<?xml version="1.0" standalone="no"?>
<!DOCTYPE svg PUBLIC "-//W3C//DTD SVG 1.1//EN" "http://www.w3.org/Graphics/SVG/1.1/DTD/svg11.dtd" >
<svg xmlns="http://www.w3.org/2000/svg" xmlns:xlink="http://www.w3.org/1999/xlink" version="1.1">
<metadata></metadata>
<defs>
<font id="robotoblack_italic" horiz-adv-x="0" >
<font-face units-per-em="2048" ascent="1536" descent="-512" />
<missing-glyph horiz-adv-x="505" />
<glyph unicode="fi" horiz-adv-x="1273" d="M63 0l147 848h-152l41 234l142 -1l8 41q43 212 186.5 325t373.5 111q127 -1 344 -57l-70 -268q-155 49 -272 47q-86 0 -149 -41.5t-85 -127.5l-7 -30l217 1l-42 -234h-205l-147 -848h-330zM1052 0h-330l187 1082h331z" />
<glyph unicode="fl" horiz-adv-x="1269" d="M945 1292q-88 8 -133 8q-93 0 -152.5 -39t-76.5 -109l-15 -71l214 1l-42 -234h-204l-147 -848h-330l147 848h-152l41 234l143 -1l12 71q35 200 172 303.5t355 103.5l175 -3l355 -19l-258 -1537h-331z" />
<glyph unicode="ffi" horiz-adv-x="1929" d="M59 0l147 848h-152l40 234l152 1l15 106q29 178 149 276.5t302 94.5q65 -2 163 -23l-25 -249q-46 12 -77 12q-75 0 -122.5 -35t-59.5 -95l-15 -88l320 -1l8 41q43 212 186.5 325t373.5 111q90 -1 175.5 -19t172.5 -41l-75 -265q-152 46 -270 46q-86 0 -149 -41t-85 -127 l-7 -30l216 1l-42 -234h-204l-147 -848h-331l147 848h-329l-147 -848h-330zM1707 0h-330l188 1082h330z" />
<glyph unicode="ffl" horiz-adv-x="1929" d="M59 0l147 848h-152l40 234l152 1l13 94q27 189 154 290q119 94 300 92q52 0 162 -22l-25 -249q-46 12 -77 12q-75 0 -122.5 -35t-59.5 -95l-15 -88l322 -1l15 88q34 187 171.5 289.5t352.5 100.5l150 -3l378 -19l-258 -1537h-330l230 1293q-88 8 -134 8q-196 0 -232 -158 l-14 -62l214 1l-42 -234h-203l-147 -848h-331l147 848h-329l-147 -848h-330z" />
<glyph />
<glyph unicode="&#x9;" horiz-adv-x="505" />
<glyph unicode=" "  horiz-adv-x="505" />
<glyph unicode="&#x09;" horiz-adv-x="505" />
<glyph unicode="&#xa0;" horiz-adv-x="505" />
<glyph unicode="!" horiz-adv-x="558" d="M395 461h-267l131 995h350zM23 145q-2 73 51 124.5t131 51.5q77 0 128 -47t53 -117q2 -75 -51 -125.5t-131 -50.5q-75 0 -127 46.5t-54 117.5z" />
<glyph unicode="&#x22;" horiz-adv-x="640" d="M371 1382l-105 -413h-185l89 568h225zM711 1382l-105 -413h-183l89 568h224z" />
<glyph unicode="#" horiz-adv-x="1164" d="M557 410h-148l-137 -410h-201l137 410h-213l32 183h241l89 264h-212l33 183h240l139 416h200l-139 -416h149l139 416h201l-139 -416h221l-32 -183h-249l-89 -264h219l-32 -183h-248l-136 -410h-201zM469 593h148l90 264h-149z" />
<glyph unicode="$" horiz-adv-x="1160" d="M710 394q9 69 -19 115.5t-106 85t-148.5 79.5t-123 94.5t-82 124t-23.5 168.5q11 175 136.5 284.5t324.5 127.5l40 212h157l-42 -218q154 -30 239 -152.5t81 -309.5l-330 1q4 116 -26.5 165.5t-91.5 50.5q-67 0 -111 -47t-52 -116q-8 -63 21.5 -108.5t105.5 -84.5 t146 -81.5t122.5 -96.5t82 -125t23.5 -168q-11 -174 -129.5 -282.5t-317.5 -128.5l-39 -202h-156l40 204q-181 24 -280.5 151t-93.5 331l328 -1q-5 -113 34.5 -172.5t119.5 -59.5q66 0 112.5 42.5t57.5 116.5z" />
<glyph unicode="%" horiz-adv-x="1484" d="M529 1477q135 -2 215 -84t72 -217l-5 -67q-11 -142 -105 -226.5t-238 -82.5q-133 2 -214 84.5t-75 214.5l6 75q12 137 107 221t237 82zM391 1097q-5 -53 16.5 -84.5t63.5 -31.5q45 -2 79.5 30t44.5 88l11 78q10 115 -79 119q-45 2 -81 -32t-45 -88zM1058 658 q135 -2 216 -84.5t73 -216.5l-6 -77q-14 -141 -109.5 -223t-233.5 -78q-131 2 -213 83.5t-76 217.5l6 78q8 90 54.5 159.5t121 105.5t167.5 35zM920 276q-2 -48 19 -80.5t62 -34.5q108 -4 127 132l9 66q5 51 -15 83t-65 34q-47 2 -83 -33.5t-44 -85.5zM396 111l-154 87 l878 1125l153 -86z" />
<glyph unicode="&#x26;" horiz-adv-x="1349" d="M329 770l-27 64q-56 136 -48 243q8 115 67.5 208t158.5 144t215 48q98 -3 177.5 -48t122 -123.5t37.5 -170.5q-11 -195 -241 -342l-94 -60l168 -247q79 118 95 243h274q-19 -288 -199 -478l171 -251h-348l-50 75q-181 -99 -369 -95q-125 3 -224.5 55t-149.5 142.5 t-43 206.5q14 228 307 386zM474 240q66 -3 177 42l-194 296l-13 -7q-74 -86 -84 -166q-9 -70 23.5 -116.5t90.5 -48.5zM531 1082q-9 -66 42 -163l69 40q105 65 115 152q5 42 -16.5 74t-66.5 33q-51 2 -92.5 -37.5t-50.5 -98.5z" />
<glyph unicode="'" horiz-adv-x="317" d="M394 1358l-93 -397h-204l90 575h235z" />
<glyph unicode="(" horiz-adv-x="711" d="M749 1608l51 -170q-193 -144 -302 -399t-142 -668l-5 -98q-15 -409 176 -557l-72 -166q-121 61 -204 180.5t-120 291.5t-31 358q9 277 92 537t225 439t332 252z" />
<glyph unicode=")" horiz-adv-x="709" d="M603 569q-32 -240 -125.5 -455.5t-229 -360t-299.5 -205.5l-51 170q193 148 302.5 403t141.5 665l6 98q10 411 -177 556l73 166q174 -85 270 -283.5t104 -481.5l1 -63q-2 -96 -13 -181z" />
<glyph unicode="*" horiz-adv-x="933" d="M398 963l-299 89l91 179l295 -134l38 359h209l-86 -350l314 123l31 -201l-338 -90l170 -271l-175 -109l-127 295l-226 -280l-161 123z" />
<glyph unicode="+" horiz-adv-x="1071" d="M721 826h331l-50 -289h-330l-69 -391h-307l68 391h-332l50 289h332l66 380h307z" />
<glyph unicode="," horiz-adv-x="545" d="M52 -391l-165 79l92 163q52 95 65 170l41 233h264l-35 -208q-45 -267 -262 -437z" />
<glyph unicode="-" horiz-adv-x="903" d="M714 497h-585l45 261h585z" />
<glyph unicode="." horiz-adv-x="610" d="M38 152q-2 76 52 126t129 50q74 0 126 -45.5t54 -118.5q2 -75 -51 -125.5t-130 -50.5q-76 0 -127 46t-53 118z" />
<glyph unicode="/" horiz-adv-x="707" d="M85 -125h-245l756 1581h246z" />
<glyph unicode="0" horiz-adv-x="1160" d="M491 -20q-124 3 -216.5 58.5t-142.5 163t-54 244.5q-3 74 6 149l38 254q46 307 197 469.5t385 157.5q190 -4 297.5 -128t115.5 -338q2 -74 -7 -149l-40 -259q-48 -311 -198.5 -469t-380.5 -153zM788 906q9 70 10 123q0 183 -116 189q-178 9 -221 -305l-53 -360 q-10 -83 -10 -123q-5 -185 115 -192q181 -9 223 313z" />
<glyph unicode="1" horiz-adv-x="1160" d="M708 0h-330l186 1070l-339 -96l46 267l644 215l37 1z" />
<glyph unicode="2" horiz-adv-x="1160" d="M979 0h-987l36 232l518 481l71 71q167 168 153 317q-11 116 -120 119q-77 2 -130.5 -62.5t-66.5 -168.5l-327 -2q8 137 83 250.5t200.5 177.5t267.5 63q213 -4 330 -115.5t102 -301.5q-9 -112 -73.5 -218t-187.5 -223l-152 -140l-226 -218l550 -2z" />
<glyph unicode="3" horiz-adv-x="1160" d="M426 869l147 -1q90 2 148 52.5t69 141.5q8 68 -27 112t-105 45q-65 2 -115 -36t-64 -101l-330 -2q6 118 76 209t186.5 140.5t250.5 48.5q220 -5 346 -115.5t115 -294.5q-13 -206 -269 -326q97 -48 145 -133t43 -192q-7 -134 -85 -233.5t-209 -153t-281 -50.5 q-131 1 -237.5 55.5t-163.5 150.5t-56 220h328q1 -71 42 -117t115 -48q83 -2 147 49t76 134q12 89 -26.5 139.5t-128.5 53.5l-176 1z" />
<glyph unicode="4" horiz-adv-x="1160" d="M946 569h143l-45 -260h-143l-54 -309h-329l54 309h-545l18 222l715 922v7l340 -5zM369 571l248 -2l88 452z" />
<glyph unicode="5" horiz-adv-x="1160" d="M121 716l202 740h830l-42 -262h-557l-89 -291q81 52 201 54q192 0 295.5 -133t85.5 -348q-18 -222 -173 -361.5t-375 -135.5q-129 3 -234.5 60t-163.5 155.5t-57 220.5h328q2 -78 39 -125t104 -49q82 -3 136 61.5t69 196.5q10 111 -30 168.5t-125 57.5q-109 0 -177 -74z " />
<glyph unicode="6" horiz-adv-x="1160" d="M1011 1478l-26 -266h-30q-170 -2 -298.5 -90t-204.5 -254q123 117 287 113q117 -2 198 -66.5t119.5 -178t27.5 -247.5q-11 -135 -82 -250t-187 -184q-133 -79 -285 -76q-149 2 -257 80t-158 212.5t-33 294.5l15 123q29 221 147.5 402.5t304 283t401.5 103.5h61zM612 725 q-112 4 -193 -107q-19 -140 -19 -192q0 -88 36 -136.5t104 -49.5q100 -2 162.5 100.5t50.5 228.5q-7 70 -44 112.5t-97 43.5z" />
<glyph unicode="7" horiz-adv-x="1160" d="M1172 1261l-718 -1261h-360l715 1196h-667l42 260h1019z" />
<glyph unicode="8" horiz-adv-x="1160" d="M1126 1075q-14 -212 -247 -331q84 -60 125 -146t34 -189q-13 -201 -164.5 -317t-375.5 -112q-98 1 -185 30t-149 87q-124 114 -111 296q14 237 285 363q-148 115 -138 302q7 127 75 223t182.5 147.5t252.5 48.5q200 -4 314.5 -115t101.5 -287zM714 436q9 78 -24.5 128 t-101.5 52q-77 2 -133 -53.5t-67 -142.5q-9 -82 26.5 -130.5t103.5 -50.5q74 -2 129 52t67 145zM794 1057q8 74 -21 117.5t-85 43.5q-65 2 -109.5 -47t-54.5 -130q-8 -74 21 -120.5t86 -46.5q63 -2 108 48t55 135z" />
<glyph unicode="9" horiz-adv-x="1160" d="M739 564q-114 -99 -243 -99q-120 1 -205.5 64t-126.5 176t-29 245q12 143 91 267.5t201.5 193.5t261.5 66q184 -5 295 -129t127 -324q5 -72 -2 -143l-14 -108q-47 -365 -282.5 -579.5t-584.5 -214.5h-21l27 271h46q334 7 459 314zM598 707q96 -2 170 95l20 142l5 83 q0 90 -32 140t-95 51q-90 2 -150 -104.5t-51 -243.5q4 -74 38.5 -118t94.5 -45z" />
<glyph unicode=":" horiz-adv-x="607" d="M39 152q-2 76 52 126t129 50q74 0 126 -45.5t54 -118.5q2 -75 -51 -125.5t-130 -50.5q-76 0 -127 46t-53 118zM177 950q-2 76 52 126t129 50q74 0 126 -45.5t54 -118.5q2 -75 -51 -125.5t-130 -50.5q-76 0 -127 46t-53 118z" />
<glyph unicode=";" horiz-adv-x="582" d="M166 950q-2 76 52 126t129 50q74 0 126 -45.5t54 -118.5q2 -75 -51 -125.5t-130 -50.5q-76 0 -127 46t-53 118zM76 -391l-165 79l92 163q52 95 65 170l41 233h264l-35 -208q-45 -267 -262 -437z" />
<glyph unicode="&#x3c;" horiz-adv-x="1023" d="M373 603l499 -184l-51 -295l-797 361l46 266l923 360l-56 -319z" />
<glyph unicode="=" horiz-adv-x="1173" d="M1045 722h-901l46 260h900zM969 283h-901l46 260h900z" />
<glyph unicode="&#x3e;" horiz-adv-x="1029" d="M638 618l-496 185l51 293l792 -360l-46 -266l-918 -360l56 319z" />
<glyph unicode="?" horiz-adv-x="1022" d="M321 459q12 238 153 362l83 66q68 55 102.5 111t31.5 131q-3 88 -93 91q-58 2 -97.5 -42t-55.5 -124l-329 -2q15 200 153 314.5t351 110.5q129 -3 225.5 -51t143.5 -135t39 -203q-12 -169 -190 -314l-117 -93q-103 -87 -125 -220zM217 150q-2 77 52 127t130 50 q77 0 128 -47t53 -117q2 -77 -51.5 -126.5t-130.5 -49.5q-74 0 -126.5 44.5t-54.5 118.5z" />
<glyph unicode="@" horiz-adv-x="1789" d="M1184 -21q-79 2 -137.5 38t-81.5 98q-120 -136 -269 -132q-111 3 -175 85t-68 216q-7 170 71.5 343.5t203.5 269.5t277 94q78 -2 147.5 -27t154.5 -82l-139 -600l-4 -38q-7 -89 70 -92q156 -7 237 269q43 148 47 299q6 243 -111.5 378.5t-347.5 139.5q-159 3 -304 -67.5 t-260.5 -209.5t-183.5 -321.5t-74 -366.5q-6 -163 46.5 -285t159.5 -185.5t262 -64.5q156 -2 336 65l29 -170q-129 -86 -366 -86q-206 2 -358 81t-235 232t-88 353q-6 227 72.5 451.5t226 397t338.5 262t398 86.5q261 -3 431 -142.5t213 -384.5q35 -210 -25.5 -435.5 t-189 -349t-303.5 -119.5zM713 428q-18 -82 -14 -154q2 -46 23 -75t59 -30q49 -3 99 45t76 120l120 461q-33 7 -53 7q-114 4 -193 -88t-117 -286z" />
<glyph unicode="A" horiz-adv-x="1363" d="M857 272h-465l-129 -272h-377l771 1456h322l269 -1456h-356zM520 543h302l-64 502z" />
<glyph unicode="B" horiz-adv-x="1291" d="M2 0l252 1456l463 -1q274 -1 409 -104t123 -289q-15 -230 -252 -326q85 -30 132.5 -108.5t40.5 -188.5q-14 -211 -166.5 -325t-417.5 -114h-584zM452 619l-61 -349l205 -1q96 0 160 47.5t76 126.5q28 167 -128 175zM491 849l161 -1q223 5 250 171q24 164 -170 165l-182 1 z" />
<glyph unicode="C" horiz-adv-x="1314" d="M1222 496q-13 -153 -100.5 -272t-230 -183t-308.5 -61q-228 5 -359 147t-143 385q-9 162 35.5 353t145 332.5t237 212t298.5 67.5q238 -4 376.5 -143t150.5 -383l-341 1q2 133 -48 190t-158 61q-270 9 -329 -420q-27 -194 -27 -277q-5 -246 182 -253q121 -4 193 59.5 t92 179.5z" />
<glyph unicode="D" horiz-adv-x="1294" d="M2 0l252 1456l428 -1q189 0 330 -99.5t200 -271.5q51 -151 31 -326l-7 -61q-27 -196 -130 -355t-265 -249.5t-350 -92.5h-489zM550 1185l-159 -915l100 -1q176 0 282.5 136t126.5 416l2 33q7 160 -50 243t-171 87z" />
<glyph unicode="E" horiz-adv-x="1122" d="M987 617h-535l-61 -347h633l-47 -270h-975l252 1456h977l-47 -271h-634l-54 -307h536z" />
<glyph unicode="F" horiz-adv-x="1096" d="M994 580h-549l-101 -580h-342l252 1456h947l-47 -271h-604l-58 -335h549z" />
<glyph unicode="G" horiz-adv-x="1364" d="M1209 179q-82 -96 -239 -148.5t-348 -49.5q-183 2 -309 92t-180 251t-29 363l8 60q46 339 238.5 537t471.5 193q244 -4 375 -131t146 -367l-328 1q-7 117 -57.5 171t-143.5 57q-138 5 -228 -108.5t-123 -324.5q-28 -180 -20 -280q15 -241 217 -244q122 -2 214 59l45 227 h-237l42 241h579z" />
<glyph unicode="H" horiz-adv-x="1406" d="M1184 0h-340l105 608h-499l-106 -608h-342l252 1456h343l-101 -578h500l100 578h341z" />
<glyph unicode="I" horiz-adv-x="609" d="M367 0h-342l253 1456h341z" />
<glyph unicode="J" horiz-adv-x="1126" d="M820 1456h342l-170 -999q-31 -219 -186.5 -350.5t-365.5 -127.5q-211 4 -326.5 124t-109.5 338l345 -1v-69q4 -119 115 -122q150 -3 188 219z" />
<glyph unicode="K" horiz-adv-x="1281" d="M587 538l-178 -167l-65 -371h-342l252 1456h343l-109 -623l142 173l378 450h444l-604 -659l335 -797h-391z" />
<glyph unicode="L" horiz-adv-x="1087" d="M391 270h593l-47 -270h-935l252 1456h343z" />
<glyph unicode="M" horiz-adv-x="1751" d="M698 1456l139 -1010l488 1010h456l-252 -1456h-344l62 357l148 658l-510 -1015h-227l-165 1053l-92 -730l-57 -323h-342l252 1456h444z" />
<glyph unicode="N" horiz-adv-x="1405" d="M1183 0h-331l-348 919l-160 -919h-342l252 1456h334l347 -919l159 919h342z" />
<glyph unicode="O" horiz-adv-x="1382" d="M603 -20q-227 5 -364 150t-155 388q-10 120 19 282.5t103 299.5t185 228q186 153 428 148q149 -3 260.5 -68.5t178.5 -188.5t78 -280q8 -111 -13.5 -252.5t-79 -270t-148.5 -226.5t-214.5 -155.5t-277.5 -54.5zM993 942q-10 250 -194 260q-142 7 -235 -112.5t-123 -352.5 q-19 -144 -14 -223q10 -254 196 -261q122 -6 210 87.5t127 272t33 329.5z" />
<glyph unicode="P" horiz-adv-x="1303" d="M430 494l-86 -494h-342l252 1456l523 -1q243 0 382.5 -135t122.5 -350q-12 -147 -94 -255t-216.5 -165t-301.5 -57zM477 765l206 -2q130 3 199 84.5t55 200.5q-8 61 -46.5 96.5t-101.5 39.5l-239 1z" />
<glyph unicode="Q" horiz-adv-x="1382" d="M1326 699q-29 -208 -119.5 -358.5t-230.5 -241.5l195 -193l-227 -172l-258 251q-56 -5 -84 -4q-147 1 -260.5 67t-179.5 190t-77 284q-8 117 17 266.5t89 279.5q96 195 260 303.5t369 104.5q148 -3 260 -68.5t179.5 -191t78.5 -282.5q6 -87 -5 -177zM995 942 q-8 131 -56.5 193t-138.5 67q-145 5 -236 -114t-122 -353q-19 -140 -14 -222q10 -253 196 -260q135 -7 226.5 105.5t125.5 333.5q23 155 19 250z" />
<glyph unicode="R" horiz-adv-x="1306" d="M624 514h-190l-90 -514h-342l252 1456l514 -1q247 0 380.5 -115.5t119.5 -315.5q-11 -158 -91 -261.5t-224 -163.5l196 -582v-17h-365zM480 785l200 -2q82 0 142.5 40t86.5 109.5t15 134.5q-20 111 -142 117l-232 1z" />
<glyph unicode="S" horiz-adv-x="1254" d="M802 394q22 113 -122 175l-164 68q-345 155 -328 422q7 122 84 217.5t213 148.5t297 51q216 -4 347.5 -126t129.5 -327h-340q3 84 -35.5 134.5t-126.5 52.5q-86 2 -152 -40t-78 -113q-19 -100 148.5 -164t243.5 -110q239 -143 224 -386q-8 -126 -81 -221t-202.5 -147 t-290.5 -50q-118 2 -219 37t-173 102q-146 135 -140 355l343 -1q-6 -112 43 -169.5t165 -57.5q86 0 143.5 39.5t70.5 109.5z" />
<glyph unicode="T" horiz-adv-x="1262" d="M1318 1185h-424l-205 -1185h-343l206 1185h-417l48 271h1182z" />
<glyph unicode="U" horiz-adv-x="1330" d="M1368 1456l-162 -950q-35 -247 -203.5 -389t-424.5 -138q-159 3 -276 68.5t-172.5 185t-37.5 272.5l162 951h344l-161 -952q-6 -50 -2 -95q5 -74 46.5 -115t117.5 -44q220 -7 265 255l162 951h342z" />
<glyph unicode="V" horiz-adv-x="1322" d="M619 400l446 1056h392l-704 -1456h-374l-244 1456h370z" />
<glyph unicode="W" horiz-adv-x="1737" d="M1189 547l304 909h346l-528 -1456h-354l-59 825l-314 -825h-354l-73 1456h333l20 -905l334 905h291z" />
<glyph unicode="X" horiz-adv-x="1278" d="M684 974l306 482h406l-518 -736l285 -720h-379l-160 491l-314 -491h-409l530 748l-276 708h375z" />
<glyph unicode="Y" horiz-adv-x="1257" d="M656 826l368 630h385l-628 -949l-87 -507h-348l94 540l-291 915l356 1z" />
<glyph unicode="Z" horiz-adv-x="1222" d="M437 272l671 -2l-47 -270h-1102l35 200l839 983l-673 2l48 271h1099l-34 -195z" />
<glyph unicode="[" horiz-adv-x="570" d="M682 1460h-114l-244 -1564h115l-39 -245h-444l321 2055h444z" />
<glyph unicode="\" horiz-adv-x="857" d="M135 1456h329l316 -1581h-331z" />
<glyph unicode="]" horiz-adv-x="570" d="M186 1706h444l-321 -2055h-445l39 245h115l244 1564h-115z" />
<glyph unicode="^" horiz-adv-x="899" d="M554 1179l-244 -450h-261l417 727h243l165 -727h-235z" />
<glyph unicode="_" horiz-adv-x="887" d="M730 -251h-878l44 251h878z" />
<glyph unicode="`" horiz-adv-x="684" d="M681 1222h-247l-229 312l331 2z" />
<glyph unicode="a" horiz-adv-x="1064" d="M597 0q-14 39 -14 98q-111 -122 -265 -118q-141 2 -234 94t-87 223q5 176 147 270.5t388 94.5l110 -2l12 61l4 53q-4 91 -91 94q-108 2 -133 -119l-330 -1q5 109 71 189.5t179.5 124t241.5 40.5q123 -3 215.5 -51.5t138.5 -135t35 -199.5l-81 -509l-5 -62q-4 -74 19 -126 l-1 -19h-320zM409 218q101 -4 177 89l33 174l-85 1q-79 -2 -136 -46.5t-67 -121.5q-5 -41 15.5 -67.5t62.5 -28.5z" />
<glyph unicode="b" horiz-adv-x="1128" d="M1055 539q-31 -263 -155 -414t-326 -146q-160 4 -246 134l-41 -113h-298l267 1536h329l-107 -543q109 111 243 109q159 -2 248 -113.5t94 -303.5q1 -64 -5 -125zM728 559q8 61 9 116q0 161 -115 168q-102 4 -171 -87l-78 -432q31 -83 136 -85q161 -5 203 210l14 89z" />
<glyph unicode="c" horiz-adv-x="1042" d="M488 239q71 -2 111 39.5t51 107.5l308 1q-6 -119 -70.5 -213t-174 -145.5t-234.5 -48.5q-216 4 -333 155.5t-95 391.5l3 24q18 164 92 290.5t194.5 195.5t269.5 65q189 -4 298.5 -120.5t105.5 -314.5l-308 1q5 172 -123 175q-174 6 -200 -293l-9 -102l-1 -38 q0 -168 115 -171z" />
<glyph unicode="d" horiz-adv-x="1127" d="M41 543q31 256 156 410t326 149q138 -4 229 -116l105 550h330l-266 -1536h-293l14 117q-121 -142 -269 -138q-156 2 -244.5 115.5t-94.5 304.5q-2 63 4 123zM369 521q-8 -64 -7 -112q0 -166 112 -169q97 -3 173 93l74 415q-33 92 -132 95q-92 2 -148.5 -79.5 t-71.5 -242.5z" />
<glyph unicode="e" horiz-adv-x="1092" d="M525 -20q-145 1 -258.5 68.5t-171.5 188t-46 265.5l3 28q27 267 185.5 422.5t388.5 149.5q139 -2 238 -70.5t145 -189t30 -270.5l-19 -137h-644q2 -85 48 -138t134 -56q143 -4 257 110l138 -183q-61 -87 -170.5 -136.5t-239.5 -51.5h-18zM605 843q-70 2 -121.5 -44 t-89.5 -154h329l6 29q6 35 2 66q-17 100 -126 103z" />
<glyph unicode="f" horiz-adv-x="730" d="M59 0l147 848h-152l40 234l152 1l13 95q25 173 138 275q121 108 315 106q50 0 163 -22l-25 -249q-46 12 -78 12q-73 0 -120.5 -33.5t-60.5 -96.5l-15 -88h205l-40 -234h-205l-147 -848h-330z" />
<glyph unicode="g" horiz-adv-x="1153" d="M43 543q19 163 89.5 295t176.5 199.5t240 65.5q163 -4 246 -117l35 97l304 -1l-177 -1040q-30 -220 -193 -347t-406 -121q-108 2 -209 43t-173 124l156 194q87 -110 226 -113q219 -4 278 233l8 33q-112 -110 -247 -108q-104 1 -183 52.5t-124 148.5t-51 216q-4 60 4 146z M368 436q0 -92 33 -143t96 -53q93 -4 169 72l85 459q-40 70 -134 72q-96 2 -161 -81.5t-82 -219.5q-6 -63 -6 -106z" />
<glyph unicode="h" horiz-adv-x="1131" d="M463 964q121 141 279 139q163 -4 241.5 -119t56.5 -312l-112 -672h-329l113 676q4 34 2 64q-7 99 -110 102q-89 2 -158 -65l-138 -777h-329l267 1536h329z" />
<glyph unicode="i" horiz-adv-x="556" d="M334 0h-330l188 1082h330zM221 1355q-2 73 51.5 122t129.5 49q77 0 128.5 -44t53.5 -115q2 -74 -51 -122.5t-130 -48.5q-75 0 -127.5 43.5t-54.5 115.5z" />
<glyph unicode="j" horiz-adv-x="546" d="M528 1082l-189 -1116q-24 -193 -146 -300.5t-310 -105.5q-75 2 -165 19l27 256q55 -12 91 -12q145 -2 172 154l190 1105h330zM223 1355q-2 74 52 122t129 48q76 2 128 -42.5t54 -115.5t-49.5 -120t-131.5 -51q-76 0 -128 44.5t-54 114.5z" />
<glyph unicode="k" horiz-adv-x="1096" d="M489 399l-120 -104l-51 -295h-329l267 1537h329l-152 -820l40 48l299 317h417l-460 -460l279 -622h-361z" />
<glyph unicode="l" horiz-adv-x="556" d="M334 0h-330l266 1536h330z" />
<glyph unicode="m" horiz-adv-x="1721" d="M483 1083l-22 -130q130 153 316 149q98 -2 161 -46t84 -117q143 167 329 163q150 -3 222.5 -112.5t52.5 -308.5l-113 -681h-330l115 682l4 59q0 99 -93 102q-87 0 -162 -89l-131 -754h-330l114 680l4 60q0 103 -93 103q-85 0 -160 -89l-133 -754h-329l188 1082z" />
<glyph unicode="n" horiz-adv-x="1130" d="M475 1083l-23 -130q130 154 313 150q150 -3 223.5 -111.5t53.5 -310.5l-114 -681h-330l115 683q4 35 2 64q-7 95 -112 95q-87 2 -159 -77l-135 -765h-329l188 1082z" />
<glyph unicode="o" horiz-adv-x="1126" d="M618 1102q145 -2 251 -72.5t155.5 -196.5t35.5 -280l-2 -22q-28 -249 -185 -402t-388 -149q-144 2 -249 71.5t-155.5 194.5t-36.5 278q25 266 182.5 424t391.5 154zM373 524l-3 -59q-14 -223 136 -227q194 -6 225 315l4 91q2 90 -33.5 143.5t-104.5 55.5 q-91 3 -149.5 -74.5t-74.5 -244.5z" />
<glyph unicode="p" horiz-adv-x="1128" d="M1056 540q-21 -170 -89 -302.5t-168.5 -197t-224.5 -61.5q-142 4 -230 112l-98 -507h-329l260 1498l304 1l-17 -103q109 126 257 122q158 -2 246.5 -113t94.5 -303q2 -62 -6 -146zM736 674q-5 165 -112 168q-104 6 -173 -85l-77 -429q31 -87 138 -89q175 -3 215 301 q9 96 9 134z" />
<glyph unicode="q" horiz-adv-x="1126" d="M41 546q20 166 86 298.5t166.5 196.5t228.5 61q162 -4 246 -138l51 119l289 -1l-260 -1498h-330l101 508q-109 -116 -247 -112q-153 2 -242 115t-95 307q-2 58 6 144zM363 442q-7 -89 21 -144.5t90 -57.5q101 -4 172 87l77 431q-30 82 -133 86q-181 3 -219 -298z" />
<glyph unicode="r" horiz-adv-x="763" d="M768 777q-53 8 -102 10q-148 4 -226 -102l-122 -685h-329l188 1082l307 1l-25 -142q106 164 250 164q41 0 102 -14z" />
<glyph unicode="s" horiz-adv-x="1028" d="M597 310q13 66 -102 99l-71 18q-174 46 -255 129t-76 197q5 156 138.5 253.5t325.5 95.5q191 -2 309.5 -97t120.5 -256l-328 1q4 128 -113 128q-50 0 -93 -29.5t-51 -78.5q-17 -81 143 -111q139 -33 215 -76.5t116 -107.5t37 -154q-3 -98 -64 -175t-176.5 -123 t-250.5 -43q-117 1 -217.5 49t-157 130.5t-58.5 189.5l306 -2q2 -144 144 -142q61 0 104 27.5t54 77.5z" />
<glyph unicode="t" horiz-adv-x="692" d="M604 1351l-47 -269h173l-41 -234h-173l-84 -497q-7 -51 6.5 -77t67.5 -28q21 -1 86 5l-24 -244q-83 -27 -177 -25q-153 2 -229 90t-62 239l88 537h-134l40 234h134l47 269h329z" />
<glyph unicode="u" horiz-adv-x="1130" d="M656 118q-121 -143 -292 -139q-159 2 -239.5 111t-62.5 292l117 700h329l-119 -704q-3 -29 0 -53q7 -82 97 -85q104 -4 177 82l134 760h331l-188 -1082h-306z" />
<glyph unicode="v" horiz-adv-x="1036" d="M476 405l271 677h355l-512 -1082h-335l-173 1082h338z" />
<glyph unicode="w" horiz-adv-x="1452" d="M967 445l217 637h322l-435 -1082h-277l-62 638l-285 -638h-279l-60 1082h309l-10 -644l277 644h229z" />
<glyph unicode="x" horiz-adv-x="1032" d="M538 786l199 296h356l-369 -542l198 -540h-328l-114 318l-211 -318h-360l388 570l-189 512h331z" />
<glyph unicode="y" horiz-adv-x="1039" d="M484 476l280 606h363l-634 -1244q-71 -147 -163.5 -212.5t-220.5 -65.5q-57 0 -145 22l25 241h38q61 0 107 19.5t77 75.5l47 90l-173 1074h340z" />
<glyph unicode="z" horiz-adv-x="1032" d="M424 262l474 -2l-45 -260h-894l35 202l569 618l-441 2l45 260h863l-34 -197z" />
<glyph unicode="{" horiz-adv-x="655" d="M418 -360q-161 54 -238.5 175t-59.5 291l30 221l1 56q-7 109 -122 120l23 228q164 7 196 198l28 203q25 187 129 301t284 167l48 -180q-68 -29 -111.5 -96t-63.5 -192l-31 -231q-34 -191 -229 -288q76 -54 106.5 -133.5t22.5 -170.5l-34 -285q-14 -154 88 -208z" />
<glyph unicode="|" horiz-adv-x="517" d="M210 -270h-180l270 1726h180z" />
<glyph unicode="}" horiz-adv-x="655" d="M-85 -182q68 29 111.5 96t63.5 192l31 231q34 190 230 288q-77 53 -107.5 133t-22.5 171q32 240 36 285q11 155 -89 208l73 174q160 -54 234.5 -176t56.5 -288l-30 -221l-1 -56q6 -110 122 -121l-23 -228q-164 -7 -196 -197l-33 -238q-58 -333 -408 -434z" />
<glyph unicode="~" horiz-adv-x="1266" d="M1184 800q-8 -124 -55 -226t-124.5 -156t-182.5 -52q-75 2 -133.5 34.5t-122.5 101t-111 74.5l-16 1q-56 0 -92.5 -48t-47.5 -124l-230 3q12 196 109.5 314t250.5 115q132 -3 241 -116l41 -43q51 -51 101 -51q109 0 140 173h232z" />
<glyph unicode="&#xa1;" horiz-adv-x="607" d="M168 623h267l-130 -995h-351zM540 939q2 -75 -51 -125.5t-131 -50.5q-77 0 -128 47t-53 117q-2 75 51 125.5t131 50.5q77 0 128 -47t53 -117z" />
<glyph unicode="&#xa2;" horiz-adv-x="1183" d="M527 239q71 -2 111.5 39.5t51.5 107.5l308 1q-9 -159 -114.5 -264.5t-279.5 -133.5l-49 -234h-196l49 235q-169 35 -251.5 179.5t-61.5 356.5l3 23q29 232 156 374.5t330 170.5l47 224h196l-48 -228q140 -35 213 -145t68 -278l-308 1q5 169 -120 176q-173 6 -206 -294 l-11 -139q-5 -169 112 -172z" />
<glyph unicode="&#xa3;" horiz-adv-x="1202" d="M597 561l-12 -111q-15 -106 -97 -184l596 4l-47 -270h-1039l48 269l86 -2q73 27 94 125l25 169h-159l46 261h150l27 216q25 205 160.5 323t337.5 114q198 -4 309 -117t107 -311l-323 1q3 86 -24.5 122t-82.5 36q-56 2 -94 -44t-49 -123l-25 -217h299l-46 -261h-287z" />
<glyph unicode="&#xa4;" horiz-adv-x="1365" d="M961 105q-184 -129 -369 -125q-200 4 -331 126l-153 -132l-123 158l154 125q-57 185 -37 345q26 215 172 375l-116 157l149 130l108 -143q177 116 354 112q187 -2 321 -116l171 148l123 -159l-169 -139q61 -191 42 -352q-25 -203 -158 -360l112 -151l-150 -131zM284 599 q-16 -111 18.5 -210t110.5 -156.5t181 -61.5q115 -4 219.5 55.5t175.5 165t87 225.5q15 110 -18 207.5t-110 156t-181 62.5q-115 4 -220 -55t-176 -165t-87 -224z" />
<glyph unicode="&#xa5;" horiz-adv-x="1085" d="M590 940l270 516h362l-425 -712l198 -2l-36 -190h-263l-17 -100h264l-33 -189h-264l-46 -263h-341l46 263h-295l34 189h293l18 100h-295l34 190h244l-175 714h336z" />
<glyph unicode="&#xa6;" horiz-adv-x="518" d="M-36 -270l138 795h285l-138 -795h-285zM417 698h-286l132 758h286z" />
<glyph unicode="&#xa7;" horiz-adv-x="1272" d="M1144 508q-7 -100 -60 -166.5t-138 -114.5q98 -113 87 -280q-15 -210 -211 -311q-149 -76 -351 -73q-237 2 -366 110.5t-126 302.5l327 -1q-2 -74 41 -112t140 -38q190 0 216 120q21 94 -147 145.5t-247 90t-129 84.5q-109 100 -99 255q7 100 61 168t138 115 q-99 113 -89 279q8 121 81 210.5t203 137.5t281 46q148 -3 254.5 -53t162 -145t53.5 -228h-326q2 78 -39 120t-121 44q-73 2 -129 -23q-75 -34 -90 -106q-21 -100 140 -147t234 -79q264 -114 249 -351zM606 652l-110 37q-63 -51 -78 -129q-22 -110 129 -161l179 -58 q71 58 85 129q22 104 -142 160z" />
<glyph unicode="&#xa8;" horiz-adv-x="993" d="M212 1361q-2 55 40.5 95.5t103.5 42.5q61 0 104.5 -38t45.5 -92q2 -57 -40.5 -96.5t-102.5 -41.5q-62 0 -105.5 38t-45.5 92zM716 1361q-2 57 40.5 96.5t102.5 41.5q61 0 105 -38.5t46 -91.5q2 -55 -40.5 -95.5t-103.5 -42.5q-61 0 -104.5 38t-45.5 92z" />
<glyph unicode="&#xa9;" horiz-adv-x="1570" d="M1088 597q-10 -150 -101 -234.5t-244 -80.5q-148 4 -230.5 113.5t-69.5 273.5l11 110q19 184 122.5 291.5t258.5 105.5q145 -4 225 -87t78 -230l-152 2q13 177 -146 181q-93 2 -155.5 -69.5t-77 -196t-15 -145t1.5 -47.5q3 -73 40 -118.5t102 -48.5q169 -7 200 179z M230 572q19 -207 147 -336t315 -131q159 -4 304 77t247 229.5t127 324.5q22 159 -29.5 301.5t-163.5 226t-264 87.5q-183 4 -348 -103.5t-259 -296.5t-76 -379zM113 722q20 197 132.5 375.5t286.5 280.5t369 98q183 -4 325 -102.5t214.5 -272t51.5 -366.5 q-21 -189 -120.5 -356t-254.5 -272q-194 -131 -413 -127q-185 4 -326.5 103.5t-213.5 273.5t-51 365z" />
<glyph unicode="&#xaa;" horiz-adv-x="887" d="M616 702l-3 72q-89 -83 -201 -83q-104 0 -166.5 60.5t-60.5 159.5q0 115 92.5 177.5t261.5 62.5l106 -2l13 55q4 24 3 46q-3 75 -81 78q-120 4 -147 -99l-173 13q7 110 94.5 173.5t219.5 61.5q121 -2 193 -77t62 -200l-53 -347l-4 -59q-1 -44 8 -92h-164zM445 833 q69 0 161 63l28 137h-80q-84 -3 -135 -34.5t-60 -83.5q-7 -38 15.5 -60t70.5 -22z" />
<glyph unicode="&#xab;" horiz-adv-x="1032" d="M284 499l155 -382l-187 -1l-205 389l1 20l322 390h221zM685 499l155 -382l-187 -1l-205 389l1 20l322 390h221z" />
<glyph unicode="&#xac;" horiz-adv-x="1100" d="M893 374h-196l46 260h-617l30 171h812z" />
<glyph unicode="&#xad;" horiz-adv-x="903" d="M714 497h-585l45 261h585z" />
<glyph unicode="&#xae;" horiz-adv-x="1570" d="M113 722q20 197 132.5 375.5t286.5 280.5t369 98q183 -4 325 -102.5t214.5 -272t51.5 -366.5q-21 -189 -120.5 -356t-254.5 -272q-194 -131 -413 -127q-185 4 -326.5 103.5t-213.5 273.5t-51 365zM234 722q-22 -158 29 -301t164 -227.5t265 -88.5q159 -4 308 80.5 t247.5 233.5t122.5 317q22 158 -29.5 301.5t-163.5 226.5t-264 87q-162 4 -311.5 -81t-247.5 -234.5t-120 -313.5zM652 653l-53 -337h-148l133 850l256 -1q139 -5 217 -73t73 -183q-3 -54 -32.5 -97.5t-98.5 -84.5q65 -54 68 -153q1 -29 -5.5 -89.5t-4.5 -88.5l4 -63l-1 -19 l-148 1q-6 37 -4 73q1 43 12 128q7 63 -14 97t-87 38zM673 787l108 -1q88 3 141 35.5t64 87.5q11 61 -17.5 90.5t-116.5 32.5l-141 1z" />
<glyph unicode="&#xaf;" horiz-adv-x="1043" d="M957 1285h-676l28 173h675z" />
<glyph unicode="&#xb0;" horiz-adv-x="799" d="M226 1186q2 119 88.5 206t203.5 85q105 -2 177 -82.5t70 -190.5q-2 -116 -86 -202.5t-200 -84.5q-109 2 -182 81t-71 188zM377 1188q-6 -50 21.5 -83.5t73.5 -33.5q51 0 93 38.5t50 92.5q7 52 -19.5 87t-70.5 35q-52 0 -95.5 -40t-52.5 -96z" />
<glyph unicode="&#xb1;" horiz-adv-x="1079" d="M727 974h303l-43 -271h-302l-55 -348h-287l55 348h-302l43 271h301l50 319h287zM857 1h-854l42 264h854z" />
<glyph unicode="&#xb2;" horiz-adv-x="755" d="M688 667h-611l28 159l300 239q120 95 134 161q7 32 -8.5 51.5t-48.5 18.5q-39 0 -66.5 -29.5t-37.5 -76.5l-222 -2q6 124 95 204t220 78q139 -2 216.5 -68t74.5 -178q-4 -130 -151 -239l-207 -141l316 -2z" />
<glyph unicode="&#xb3;" horiz-adv-x="755" d="M354 1141h82q51 2 83.5 26t39.5 63q5 29 -15 45.5t-55 16.5q-67 4 -93 -50l-227 -1q7 107 91.5 168.5t216.5 59.5q141 -3 222.5 -62.5t78.5 -157.5q-3 -117 -161 -183q119 -41 119 -170q-2 -112 -101.5 -177.5t-248.5 -62.5q-129 2 -211.5 70.5t-84.5 183.5l215 -1 q7 -74 95 -76q46 0 81 24t42 63q13 73 -84 78h-96z" />
<glyph unicode="&#xb4;" horiz-adv-x="680" d="M415 1536h367l-319 -314h-288z" />
<glyph unicode="&#xb5;" horiz-adv-x="1284" d="M540 1082l-104 -636l-4 -73q0 -127 114 -130q115 -4 194 90l133 749h328l-187 -1082h-296l6 54q-101 -76 -212 -76q-76 0 -147 37l-84 -431h-330l260 1498h329z" />
<glyph unicode="&#xb6;" horiz-adv-x="981" d="M541 0l91 520l-52 1q-211 3 -326.5 130t-97.5 329q19 214 168 345.5t372 131.5l322 -1l-252 -1456h-225z" />
<glyph unicode="&#xb7;" horiz-adv-x="647" d="M150 679q-2 76 52 126t129 50q74 0 126 -45.5t54 -118.5q2 -75 -51 -125.5t-130 -50.5q-76 0 -127 46t-53 118z" />
<glyph unicode="&#xb8;" horiz-adv-x="562" d="M249 12l-19 -67q62 -14 93.5 -57t31.5 -105q0 -121 -102.5 -186.5t-295.5 -70.5l12 188q89 12 103 84q9 54 -71 62l-42 4l43 145z" />
<glyph unicode="&#xb9;" horiz-adv-x="755" d="M538 667h-218l91 529l-177 -36l31 177l376 116l25 1z" />
<glyph unicode="&#xba;" horiz-adv-x="920" d="M205 1120q17 161 120.5 261t254.5 96q148 -4 229 -105.5t71 -250.5l-6 -66q-16 -171 -120.5 -270.5t-253.5 -95.5q-144 4 -228 103.5t-73 251.5zM371 1041q-3 -36 0 -72q5 -61 38.5 -97.5t89.5 -37.5q76 -3 131 53.5t70 156.5l11 101l-1 49q-15 132 -128 135 q-77 3 -132 -52.5t-70 -155.5z" />
<glyph unicode="&#xbb;" horiz-adv-x="1032" d="M322 914l204 -387l-1 -22l-322 -390h-222l307 415l-154 383zM723 914l204 -387l-1 -22l-322 -390h-222l307 415l-154 383z" />
<glyph unicode="&#xbc;" horiz-adv-x="1418" d="M508 664h-218l91 529l-177 -36l31 177l376 116l25 1zM377 119l-153 87l877 1126l154 -87zM1197 333l87 1l-34 -177h-76l-28 -157h-220l28 157h-322l12 160l409 471l222 2zM859 337l128 -3l40 195l-21 -26z" />
<glyph unicode="&#xbd;" horiz-adv-x="1501" d="M338 119l-153 87l877 1126l154 -87zM486 672h-218l91 529l-177 -36l31 177l376 116l25 1zM1323 0h-611l28 159l300 239q120 95 134 161q7 32 -8.5 51.5t-48.5 18.5q-39 0 -66.5 -29.5t-37.5 -76.5l-222 -2q6 124 95 204t220 78q139 -2 216.5 -68t74.5 -178 q-4 -130 -151 -239l-207 -141l316 -2z" />
<glyph unicode="&#xbe;" horiz-adv-x="1648" d="M553 119l-153 87l877 1126l154 -87zM1389 333l87 1l-34 -177h-76l-28 -157h-220l28 157h-322l12 160l409 471l222 2zM1051 337l128 -3l40 195l-21 -26zM397 1141h82q51 2 83.5 26t39.5 63q5 29 -15 45.5t-55 16.5q-67 4 -93 -50l-227 -1q7 107 91.5 168.5t216.5 59.5 q141 -3 222.5 -62.5t78.5 -157.5q-3 -117 -161 -183q119 -41 119 -170q-2 -112 -101.5 -177.5t-248.5 -62.5q-129 2 -211.5 70.5t-84.5 183.5l215 -1q7 -74 95 -76q46 0 81 24t42 63q13 73 -84 78h-96z" />
<glyph unicode="&#xbf;" horiz-adv-x="1022" d="M679 632q-7 -133 -43.5 -217.5t-110.5 -147.5l-88 -72q-138 -119 -127 -242q7 -79 83 -82q130 -3 162 166l330 2q-15 -199 -151.5 -313.5t-352.5 -110.5q-194 2 -306.5 105.5t-99.5 281.5q9 166 194 317l128 102q89 77 110 209zM798 940q2 -73 -51 -124.5t-132 -51.5 q-75 0 -127 46.5t-54 117.5q-2 75 52.5 125.5t130.5 50.5q75 0 127 -46.5t54 -117.5z" />
<glyph unicode="&#xc0;" horiz-adv-x="1363" d="M857 272h-465l-129 -272h-377l771 1456h322l269 -1456h-356zM520 543h302l-64 502zM989 1532h-247l-229 312l331 2z" />
<glyph unicode="&#xc1;" horiz-adv-x="1363" d="M857 272h-465l-129 -272h-377l771 1456h322l269 -1456h-356zM520 543h302l-64 502zM922 1846h367l-319 -314h-288z" />
<glyph unicode="&#xc2;" horiz-adv-x="1363" d="M857 272h-465l-129 -272h-377l771 1456h322l269 -1456h-356zM520 543h302l-64 502zM1260 1569v-22l-250 5l-130 135l-178 -134l-262 -4l-1 24l348 273h185z" />
<glyph unicode="&#xc3;" horiz-adv-x="1363" d="M857 272h-465l-129 -272h-377l771 1456h322l269 -1456h-356zM520 543h302l-64 502zM1257 1838q-7 -121 -73 -199t-166 -78q-36 0 -68 14t-66.5 32.5t-65 30.5t-64.5 11q-67 -3 -91 -91l-188 10q7 117 74.5 197.5t166.5 78.5q45 -1 120.5 -39t98 -43.5t47.5 -4.5 q65 3 94 91z" />
<glyph unicode="&#xc4;" horiz-adv-x="1363" d="M857 272h-465l-129 -272h-377l771 1456h322l269 -1456h-356zM520 543h302l-64 502zM464 1671q-2 55 40.5 95.5t103.5 42.5q61 0 104.5 -38t45.5 -92q2 -57 -40.5 -96.5t-102.5 -41.5q-62 0 -105.5 38t-45.5 92zM968 1671q-2 57 40.5 96.5t102.5 41.5q61 0 105 -38.5 t46 -91.5q2 -55 -40.5 -95.5t-103.5 -42.5q-61 0 -104.5 38t-45.5 92z" />
<glyph unicode="&#xc5;" horiz-adv-x="1363" d="M857 272h-465l-129 -272h-377l771 1456h322l269 -1456h-356zM520 543h302l-64 502zM660 1722q-2 88 65 149.5t160 61.5q86 0 148.5 -57.5t62.5 -139.5q0 -89 -65.5 -148t-157.5 -59q-87 0 -149 55t-64 138zM778 1723q-6 -40 14.5 -69t62.5 -29q44 0 80.5 32.5t42.5 77.5 q6 39 -14.5 69.5t-62.5 30.5q-46 0 -81.5 -33.5t-41.5 -78.5z" />
<glyph unicode="&#xc6;" horiz-adv-x="1878" d="M1693 0h-872l44 329h-362l-205 -329h-395l965 1456h1018l-46 -264h-533l-42 -316h442l-46 -264h-431l-46 -348h555zM668 601l234 -2l61 468z" />
<glyph unicode="&#xc7;" horiz-adv-x="1314" d="M1222 496q-13 -153 -100.5 -272t-230 -183t-308.5 -61q-228 5 -359 147t-143 385q-9 162 35.5 353t145 332.5t237 212t298.5 67.5q238 -4 376.5 -143t150.5 -383l-341 1q2 133 -48 190t-158 61q-270 9 -329 -420q-27 -194 -27 -277q-5 -246 182 -253q121 -4 193 59.5 t92 179.5zM681 12l-19 -67q62 -14 93.5 -57t31.5 -105q0 -121 -102.5 -186.5t-295.5 -70.5l12 188q89 12 103 84q9 54 -71 62l-42 4l43 145z" />
<glyph unicode="&#xc8;" horiz-adv-x="1122" d="M987 617h-535l-61 -347h633l-47 -270h-975l252 1456h977l-47 -271h-634l-54 -307h536zM934 1532h-247l-229 312l331 2z" />
<glyph unicode="&#xc9;" horiz-adv-x="1122" d="M987 617h-535l-61 -347h633l-47 -270h-975l252 1456h977l-47 -271h-634l-54 -307h536zM867 1846h367l-319 -314h-288z" />
<glyph unicode="&#xca;" horiz-adv-x="1122" d="M987 617h-535l-61 -347h633l-47 -270h-975l252 1456h977l-47 -271h-634l-54 -307h536zM1205 1569v-22l-250 5l-130 135l-178 -134l-262 -4l-1 24l348 273h185z" />
<glyph unicode="&#xcb;" horiz-adv-x="1122" d="M987 617h-535l-61 -347h633l-47 -270h-975l252 1456h977l-47 -271h-634l-54 -307h536zM409 1671q-2 55 40.5 95.5t103.5 42.5q61 0 104.5 -38t45.5 -92q2 -57 -40.5 -96.5t-102.5 -41.5q-62 0 -105.5 38t-45.5 92zM913 1671q-2 57 40.5 96.5t102.5 41.5q61 0 105 -38.5 t46 -91.5q2 -55 -40.5 -95.5t-103.5 -42.5q-61 0 -104.5 38t-45.5 92z" />
<glyph unicode="&#xcc;" horiz-adv-x="609" d="M367 0h-342l253 1456h341zM611 1532h-247l-229 312l331 2z" />
<glyph unicode="&#xcd;" horiz-adv-x="609" d="M367 0h-342l253 1456h341zM543 1846h367l-319 -314h-288z" />
<glyph unicode="&#xce;" horiz-adv-x="609" d="M367 0h-342l253 1456h341zM882 1569v-22l-250 5l-130 135l-178 -134l-262 -4l-1 24l348 273h185z" />
<glyph unicode="&#xcf;" horiz-adv-x="609" d="M367 0h-342l253 1456h341zM86 1671q-2 55 40.5 95.5t103.5 42.5q61 0 104.5 -38t45.5 -92q2 -57 -40.5 -96.5t-102.5 -41.5q-62 0 -105.5 38t-45.5 92zM590 1671q-2 57 40.5 96.5t102.5 41.5q61 0 105 -38.5t46 -91.5q2 -55 -40.5 -95.5t-103.5 -42.5q-61 0 -104.5 38 t-45.5 92z" />
<glyph unicode="&#xd0;" horiz-adv-x="1324" d="M32 0l110 635h-166l33 191h166l109 630l428 -1q189 0 330 -99.5t200 -271.5q51 -151 31 -326l-7 -61q-27 -196 -130 -355t-265 -249.5t-350 -92.5h-489zM686 635h-202l-63 -365l100 -1q180 0 287.5 142.5t123.5 442.5q7 160 -50 243t-171 87l-131 1l-63 -359h203z" />
<glyph unicode="&#xd1;" horiz-adv-x="1405" d="M1183 0h-331l-348 919l-160 -919h-342l252 1456h334l347 -919l159 919h342zM1283 1838q-7 -121 -73 -199t-166 -78q-36 0 -68 14t-66.5 32.5t-65 30.5t-64.5 11q-67 -3 -91 -91l-188 10q7 117 74.5 197.5t166.5 78.5q45 -1 120.5 -39t98 -43.5t47.5 -4.5q65 3 94 91z" />
<glyph unicode="&#xd2;" horiz-adv-x="1382" d="M603 -20q-227 5 -364 150t-155 388q-10 120 19 282.5t103 299.5t185 228q186 153 428 148q149 -3 260.5 -68.5t178.5 -188.5t78 -280q8 -111 -13.5 -252.5t-79 -270t-148.5 -226.5t-214.5 -155.5t-277.5 -54.5zM993 942q-10 250 -194 260q-142 7 -235 -112.5t-123 -352.5 q-19 -144 -14 -223q10 -254 196 -261q122 -6 210 87.5t127 272t33 329.5zM994 1532h-247l-229 312l331 2z" />
<glyph unicode="&#xd3;" horiz-adv-x="1382" d="M603 -20q-227 5 -364 150t-155 388q-10 120 19 282.5t103 299.5t185 228q186 153 428 148q149 -3 260.5 -68.5t178.5 -188.5t78 -280q8 -111 -13.5 -252.5t-79 -270t-148.5 -226.5t-214.5 -155.5t-277.5 -54.5zM993 942q-10 250 -194 260q-142 7 -235 -112.5t-123 -352.5 q-19 -144 -14 -223q10 -254 196 -261q122 -6 210 87.5t127 272t33 329.5zM927 1846h367l-319 -314h-288z" />
<glyph unicode="&#xd4;" horiz-adv-x="1382" d="M603 -20q-227 5 -364 150t-155 388q-10 120 19 282.5t103 299.5t185 228q186 153 428 148q149 -3 260.5 -68.5t178.5 -188.5t78 -280q8 -111 -13.5 -252.5t-79 -270t-148.5 -226.5t-214.5 -155.5t-277.5 -54.5zM993 942q-10 250 -194 260q-142 7 -235 -112.5t-123 -352.5 q-19 -144 -14 -223q10 -254 196 -261q122 -6 210 87.5t127 272t33 329.5zM1265 1569v-22l-250 5l-130 135l-178 -134l-262 -4l-1 24l348 273h185z" />
<glyph unicode="&#xd5;" horiz-adv-x="1382" d="M603 -20q-227 5 -364 150t-155 388q-10 120 19 282.5t103 299.5t185 228q186 153 428 148q149 -3 260.5 -68.5t178.5 -188.5t78 -280q8 -111 -13.5 -252.5t-79 -270t-148.5 -226.5t-214.5 -155.5t-277.5 -54.5zM993 942q-10 250 -194 260q-142 7 -235 -112.5t-123 -352.5 q-19 -144 -14 -223q10 -254 196 -261q122 -6 210 87.5t127 272t33 329.5zM1262 1838q-7 -121 -73 -199t-166 -78q-36 0 -68 14t-66.5 32.5t-65 30.5t-64.5 11q-67 -3 -91 -91l-188 10q7 117 74.5 197.5t166.5 78.5q45 -1 120.5 -39t98 -43.5t47.5 -4.5q65 3 94 91z" />
<glyph unicode="&#xd6;" horiz-adv-x="1382" d="M603 -20q-227 5 -364 150t-155 388q-10 120 19 282.5t103 299.5t185 228q186 153 428 148q149 -3 260.5 -68.5t178.5 -188.5t78 -280q8 -111 -13.5 -252.5t-79 -270t-148.5 -226.5t-214.5 -155.5t-277.5 -54.5zM993 942q-10 250 -194 260q-142 7 -235 -112.5t-123 -352.5 q-19 -144 -14 -223q10 -254 196 -261q122 -6 210 87.5t127 272t33 329.5zM469 1671q-2 55 40.5 95.5t103.5 42.5q61 0 104.5 -38t45.5 -92q2 -57 -40.5 -96.5t-102.5 -41.5q-62 0 -105.5 38t-45.5 92zM973 1671q-2 57 40.5 96.5t102.5 41.5q61 0 105 -38.5t46 -91.5 q2 -55 -40.5 -95.5t-103.5 -42.5q-61 0 -104.5 38t-45.5 92z" />
<glyph unicode="&#xd7;" horiz-adv-x="1061" d="M15 394l343 306l-237 305l205 171l232 -299l336 298l168 -196l-346 -306l239 -305l-205 -171l-232 298l-336 -297z" />
<glyph unicode="&#xd8;" horiz-adv-x="1377" d="M610 -21q-152 2 -276 67l-109 -141l-221 1l193 247q-140 234 -101 545l5 38q46 337 244 541t483 200q149 -2 271 -66l84 107l222 -1l-168 -213q139 -234 101 -542l-8 -66q-31 -214 -134 -381.5t-254 -253t-332 -82.5zM1015 991l-512 -698q45 -40 125 -42 q139 -2 228 108.5t124 319t35 312.5zM441 698q-19 -133 -22 -230l510 696q-46 35 -119 40q-144 5 -236 -112t-123 -333z" />
<glyph unicode="&#xd9;" horiz-adv-x="1330" d="M1368 1456l-162 -950q-35 -247 -203.5 -389t-424.5 -138q-159 3 -276 68.5t-172.5 185t-37.5 272.5l162 951h344l-161 -952q-6 -50 -2 -95q5 -74 46.5 -115t117.5 -44q220 -7 265 255l162 951h342zM965 1532h-247l-229 312l331 2z" />
<glyph unicode="&#xda;" horiz-adv-x="1330" d="M1368 1456l-162 -950q-35 -247 -203.5 -389t-424.5 -138q-159 3 -276 68.5t-172.5 185t-37.5 272.5l162 951h344l-161 -952q-6 -50 -2 -95q5 -74 46.5 -115t117.5 -44q220 -7 265 255l162 951h342zM898 1846h367l-319 -314h-288z" />
<glyph unicode="&#xdb;" horiz-adv-x="1330" d="M1368 1456l-162 -950q-35 -247 -203.5 -389t-424.5 -138q-159 3 -276 68.5t-172.5 185t-37.5 272.5l162 951h344l-161 -952q-6 -50 -2 -95q5 -74 46.5 -115t117.5 -44q220 -7 265 255l162 951h342zM1236 1569v-22l-250 5l-130 135l-178 -134l-262 -4l-1 24l348 273h185z " />
<glyph unicode="&#xdc;" horiz-adv-x="1330" d="M1368 1456l-162 -950q-35 -247 -203.5 -389t-424.5 -138q-159 3 -276 68.5t-172.5 185t-37.5 272.5l162 951h344l-161 -952q-6 -50 -2 -95q5 -74 46.5 -115t117.5 -44q220 -7 265 255l162 951h342zM440 1671q-2 55 40.5 95.5t103.5 42.5q61 0 104.5 -38t45.5 -92 q2 -57 -40.5 -96.5t-102.5 -41.5q-62 0 -105.5 38t-45.5 92zM944 1671q-2 57 40.5 96.5t102.5 41.5q61 0 105 -38.5t46 -91.5q2 -55 -40.5 -95.5t-103.5 -42.5q-61 0 -104.5 38t-45.5 92z" />
<glyph unicode="&#xdd;" horiz-adv-x="1257" d="M656 826l368 630h385l-628 -949l-87 -507h-348l94 540l-291 915l356 1zM867 1846h367l-319 -314h-288z" />
<glyph unicode="&#xde;" horiz-adv-x="1238" d="M591 1456l-45 -258l151 -1q248 -1 384.5 -124.5t120.5 -326.5q-11 -144 -90.5 -249.5t-215 -162.5t-300.5 -57l-209 1l-49 -278h-330l252 1456h331zM501 938l-69 -400l174 -1q108 2 179 57.5t86 149.5q14 88 -29.5 138.5t-131.5 54.5z" />
<glyph unicode="&#xdf;" horiz-adv-x="1300" d="M355 0h-330l187 1099q29 221 179 344.5t381 117.5q179 -4 287 -108t97 -265q-3 -44 -18 -83t-59.5 -118.5t-54 -104.5t-14.5 -55q-8 -43 11 -91t74 -124t78 -130t21 -104q-9 -186 -148 -294t-360 -106q-158 2 -264 50l78 256q89 -49 200 -45q67 2 112.5 39t56.5 95 q8 45 -11.5 92.5t-77.5 118t-81 121.5t-20 103q5 71 60.5 175.5t64.5 133.5t13 60q7 54 -20.5 90t-83.5 39q-143 6 -173 -212z" />
<glyph unicode="&#xe0;" horiz-adv-x="1064" d="M597 0q-14 39 -14 98q-111 -122 -265 -118q-141 2 -234 94t-87 223q5 176 147 270.5t388 94.5l110 -2l12 61l4 53q-4 91 -91 94q-108 2 -133 -119l-330 -1q5 109 71 189.5t179.5 124t241.5 40.5q123 -3 215.5 -51.5t138.5 -135t35 -199.5l-81 -509l-5 -62q-4 -74 19 -126 l-1 -19h-320zM409 218q101 -4 177 89l33 174l-85 1q-79 -2 -136 -46.5t-67 -121.5q-5 -41 15.5 -67.5t62.5 -28.5zM775 1222h-247l-229 312l331 2z" />
<glyph unicode="&#xe1;" horiz-adv-x="1064" d="M597 0q-14 39 -14 98q-111 -122 -265 -118q-141 2 -234 94t-87 223q5 176 147 270.5t388 94.5l110 -2l12 61l4 53q-4 91 -91 94q-108 2 -133 -119l-330 -1q5 109 71 189.5t179.5 124t241.5 40.5q123 -3 215.5 -51.5t138.5 -135t35 -199.5l-81 -509l-5 -62q-4 -74 19 -126 l-1 -19h-320zM409 218q101 -4 177 89l33 174l-85 1q-79 -2 -136 -46.5t-67 -121.5q-5 -41 15.5 -67.5t62.5 -28.5zM708 1536h367l-319 -314h-288z" />
<glyph unicode="&#xe2;" horiz-adv-x="1064" d="M597 0q-14 39 -14 98q-111 -122 -265 -118q-141 2 -234 94t-87 223q5 176 147 270.5t388 94.5l110 -2l12 61l4 53q-4 91 -91 94q-108 2 -133 -119l-330 -1q5 109 71 189.5t179.5 124t241.5 40.5q123 -3 215.5 -51.5t138.5 -135t35 -199.5l-81 -509l-5 -62q-4 -74 19 -126 l-1 -19h-320zM409 218q101 -4 177 89l33 174l-85 1q-79 -2 -136 -46.5t-67 -121.5q-5 -41 15.5 -67.5t62.5 -28.5zM1046 1259v-22l-250 5l-130 135l-178 -134l-262 -4l-1 24l348 273h185z" />
<glyph unicode="&#xe3;" horiz-adv-x="1064" d="M597 0q-14 39 -14 98q-111 -122 -265 -118q-141 2 -234 94t-87 223q5 176 147 270.5t388 94.5l110 -2l12 61l4 53q-4 91 -91 94q-108 2 -133 -119l-330 -1q5 109 71 189.5t179.5 124t241.5 40.5q123 -3 215.5 -51.5t138.5 -135t35 -199.5l-81 -509l-5 -62q-4 -74 19 -126 l-1 -19h-320zM409 218q101 -4 177 89l33 174l-85 1q-79 -2 -136 -46.5t-67 -121.5q-5 -41 15.5 -67.5t62.5 -28.5zM1043 1529q-7 -121 -73 -199t-166 -78q-36 0 -68 14t-66.5 32.5t-65 30.5t-64.5 11q-67 -3 -91 -91l-188 10q7 117 74.5 197.5t166.5 78.5q45 -1 120.5 -39 t98 -43.5t47.5 -4.5q65 3 94 91z" />
<glyph unicode="&#xe4;" horiz-adv-x="1064" d="M597 0q-14 39 -14 98q-111 -122 -265 -118q-141 2 -234 94t-87 223q5 176 147 270.5t388 94.5l110 -2l12 61l4 53q-4 91 -91 94q-108 2 -133 -119l-330 -1q5 109 71 189.5t179.5 124t241.5 40.5q123 -3 215.5 -51.5t138.5 -135t35 -199.5l-81 -509l-5 -62q-4 -74 19 -126 l-1 -19h-320zM409 218q101 -4 177 89l33 174l-85 1q-79 -2 -136 -46.5t-67 -121.5q-5 -41 15.5 -67.5t62.5 -28.5zM250 1361q-2 55 40.5 95.5t103.5 42.5q61 0 104.5 -38t45.5 -92q2 -57 -40.5 -96.5t-102.5 -41.5q-62 0 -105.5 38t-45.5 92zM754 1361q-2 57 40.5 96.5 t102.5 41.5q61 0 105 -38.5t46 -91.5q2 -55 -40.5 -95.5t-103.5 -42.5q-61 0 -104.5 38t-45.5 92z" />
<glyph unicode="&#xe5;" horiz-adv-x="1064" d="M597 0q-14 39 -14 98q-111 -122 -265 -118q-141 2 -234 94t-87 223q5 176 147 270.5t388 94.5l110 -2l12 61l4 53q-4 91 -91 94q-108 2 -133 -119l-330 -1q5 109 71 189.5t179.5 124t241.5 40.5q123 -3 215.5 -51.5t138.5 -135t35 -199.5l-81 -509l-5 -62q-4 -74 19 -126 l-1 -19h-320zM409 218q101 -4 177 89l33 174l-85 1q-79 -2 -136 -46.5t-67 -121.5q-5 -41 15.5 -67.5t62.5 -28.5zM446 1412q-2 88 65 149.5t160 61.5q86 0 148.5 -57.5t62.5 -139.5q0 -89 -65.5 -148t-157.5 -59q-87 0 -149 55t-64 138zM564 1413q-6 -40 14.5 -69t62.5 -29 q44 0 80.5 32.5t42.5 77.5q6 39 -14.5 69.5t-62.5 30.5q-46 0 -81.5 -33.5t-41.5 -78.5z" />
<glyph unicode="&#xe6;" horiz-adv-x="1688" d="M1117 -20q-237 5 -348 133q-165 -137 -383 -133q-172 2 -276 92t-97 245q7 165 150 252t395 87l141 -1l10 49q4 27 2 52q-7 83 -93 86q-61 2 -103.5 -25.5t-53.5 -76.5l-328 18q5 104 67.5 181t181.5 122t258 42q89 0 167 -23.5t129 -67.5q149 93 323 89 q130 -4 221.5 -68t131.5 -174t25 -247l-27 -177h-613q-8 -91 38 -140.5t138 -52.5q78 -2 148 17.5t140 48.5l63 -209q-69 -57 -175 -88t-232 -31zM457 211q76 -2 179 63l36 177l-112 1q-87 -3 -146 -40.5t-71 -99.5q-8 -48 23.5 -74.5t90.5 -26.5zM1235 844 q-149 6 -217 -199h298q11 55 11 86q0 50 -23.5 80t-68.5 33z" />
<glyph unicode="&#xe7;" horiz-adv-x="1042" d="M488 239q71 -2 111 39.5t51 107.5l308 1q-6 -119 -70.5 -213t-174 -145.5t-234.5 -48.5q-216 4 -333 155.5t-95 391.5l3 24q18 164 92 290.5t194.5 195.5t269.5 65q189 -4 298.5 -120.5t105.5 -314.5l-308 1q5 172 -123 175q-174 6 -200 -293l-9 -102l-1 -38 q0 -168 115 -171zM575 12l-19 -67q62 -14 93.5 -57t31.5 -105q0 -121 -102.5 -186.5t-295.5 -70.5l12 188q89 12 103 84q9 54 -71 62l-42 4l43 145z" />
<glyph unicode="&#xe8;" horiz-adv-x="1092" d="M525 -20q-145 1 -258.5 68.5t-171.5 188t-46 265.5l3 28q27 267 185.5 422.5t388.5 149.5q139 -2 238 -70.5t145 -189t30 -270.5l-19 -137h-644q2 -85 48 -138t134 -56q143 -4 257 110l138 -183q-61 -87 -170.5 -136.5t-239.5 -51.5h-18zM605 843q-70 2 -121.5 -44 t-89.5 -154h329l6 29q6 35 2 66q-17 100 -126 103zM763 1223h-247l-229 312l331 2z" />
<glyph unicode="&#xe9;" horiz-adv-x="1092" d="M525 -20q-145 1 -258.5 68.5t-171.5 188t-46 265.5l3 28q27 267 185.5 422.5t388.5 149.5q139 -2 238 -70.5t145 -189t30 -270.5l-19 -137h-644q2 -85 48 -138t134 -56q143 -4 257 110l138 -183q-61 -87 -170.5 -136.5t-239.5 -51.5h-18zM605 843q-70 2 -121.5 -44 t-89.5 -154h329l6 29q6 35 2 66q-17 100 -126 103zM696 1537h367l-319 -314h-288z" />
<glyph unicode="&#xea;" horiz-adv-x="1092" d="M525 -20q-145 1 -258.5 68.5t-171.5 188t-46 265.5l3 28q27 267 185.5 422.5t388.5 149.5q139 -2 238 -70.5t145 -189t30 -270.5l-19 -137h-644q2 -85 48 -138t134 -56q143 -4 257 110l138 -183q-61 -87 -170.5 -136.5t-239.5 -51.5h-18zM605 843q-70 2 -121.5 -44 t-89.5 -154h329l6 29q6 35 2 66q-17 100 -126 103zM1034 1260v-22l-250 5l-130 135l-178 -134l-262 -4l-1 24l348 273h185z" />
<glyph unicode="&#xeb;" horiz-adv-x="1092" d="M525 -20q-145 1 -258.5 68.5t-171.5 188t-46 265.5l3 28q27 267 185.5 422.5t388.5 149.5q139 -2 238 -70.5t145 -189t30 -270.5l-19 -137h-644q2 -85 48 -138t134 -56q143 -4 257 110l138 -183q-61 -87 -170.5 -136.5t-239.5 -51.5h-18zM605 843q-70 2 -121.5 -44 t-89.5 -154h329l6 29q6 35 2 66q-17 100 -126 103zM238 1362q-2 55 40.5 95.5t103.5 42.5q61 0 104.5 -38t45.5 -92q2 -57 -40.5 -96.5t-102.5 -41.5q-62 0 -105.5 38t-45.5 92zM742 1362q-2 57 40.5 96.5t102.5 41.5q61 0 105 -38.5t46 -91.5q2 -55 -40.5 -95.5 t-103.5 -42.5q-61 0 -104.5 38t-45.5 92z" />
<glyph unicode="&#xec;" horiz-adv-x="576" d="M345 0h-331l188 1082h331zM539 1202h-247l-229 312l331 2z" />
<glyph unicode="&#xed;" horiz-adv-x="576" d="M345 0h-331l188 1082h331zM471 1516h367l-319 -314h-288z" />
<glyph unicode="&#xee;" horiz-adv-x="576" d="M345 0h-331l188 1082h331zM810 1239v-22l-250 5l-130 135l-178 -134l-262 -4l-1 24l348 273h185z" />
<glyph unicode="&#xef;" horiz-adv-x="576" d="M345 0h-331l188 1082h331zM14 1341q-2 55 40.5 95.5t103.5 42.5q61 0 104.5 -38t45.5 -92q2 -57 -40.5 -96.5t-102.5 -41.5q-62 0 -105.5 38t-45.5 92zM518 1341q-2 57 40.5 96.5t102.5 41.5q61 0 105 -38.5t46 -91.5q2 -55 -40.5 -95.5t-103.5 -42.5q-61 0 -104.5 38 t-45.5 92z" />
<glyph unicode="&#xf0;" horiz-adv-x="1140" d="M961 1305q90 -153 127 -312t15 -337l-9 -63q-26 -182 -116.5 -327.5t-219 -217.5t-276.5 -69q-134 3 -239 66t-158 173.5t-41 241.5q19 228 155.5 367t347.5 135q116 -2 224 -64q-7 124 -87 241l-197 -112l-60 133l142 77q-71 58 -215 98l127 244q219 -52 371 -176 l183 104l58 -133zM508 238q96 -3 161 79t90 236l19 103q-54 66 -172 66q-76 1 -131.5 -44t-82 -132t-18.5 -162q7 -67 42 -106t92 -40z" />
<glyph unicode="&#xf1;" horiz-adv-x="1130" d="M475 1083l-23 -130q130 154 313 150q150 -3 223.5 -111.5t53.5 -310.5l-114 -681h-330l115 683q4 35 2 64q-7 95 -112 95q-87 2 -159 -77l-135 -765h-329l188 1082zM1085 1529q-7 -121 -73 -199t-166 -78q-36 0 -68 14t-66.5 32.5t-65 30.5t-64.5 11q-67 -3 -91 -91 l-188 10q7 117 74.5 197.5t166.5 78.5q45 -1 120.5 -39t98 -43.5t47.5 -4.5q65 3 94 91z" />
<glyph unicode="&#xf2;" horiz-adv-x="1126" d="M618 1102q145 -2 251 -72.5t155.5 -196.5t35.5 -280l-2 -22q-28 -249 -185 -402t-388 -149q-144 2 -249 71.5t-155.5 194.5t-36.5 278q25 266 182.5 424t391.5 154zM373 524l-3 -59q-14 -223 136 -227q194 -6 225 315l4 91q2 90 -33.5 143.5t-104.5 55.5 q-91 3 -149.5 -74.5t-74.5 -244.5zM804 1222h-247l-229 312l331 2z" />
<glyph unicode="&#xf3;" horiz-adv-x="1126" d="M618 1102q145 -2 251 -72.5t155.5 -196.5t35.5 -280l-2 -22q-28 -249 -185 -402t-388 -149q-144 2 -249 71.5t-155.5 194.5t-36.5 278q25 266 182.5 424t391.5 154zM373 524l-3 -59q-14 -223 136 -227q194 -6 225 315l4 91q2 90 -33.5 143.5t-104.5 55.5 q-91 3 -149.5 -74.5t-74.5 -244.5zM737 1536h367l-319 -314h-288z" />
<glyph unicode="&#xf4;" horiz-adv-x="1126" d="M618 1102q145 -2 251 -72.5t155.5 -196.5t35.5 -280l-2 -22q-28 -249 -185 -402t-388 -149q-144 2 -249 71.5t-155.5 194.5t-36.5 278q25 266 182.5 424t391.5 154zM373 524l-3 -59q-14 -223 136 -227q194 -6 225 315l4 91q2 90 -33.5 143.5t-104.5 55.5 q-91 3 -149.5 -74.5t-74.5 -244.5zM1075 1259v-22l-250 5l-130 135l-178 -134l-262 -4l-1 24l348 273h185z" />
<glyph unicode="&#xf5;" horiz-adv-x="1126" d="M618 1102q145 -2 251 -72.5t155.5 -196.5t35.5 -280l-2 -22q-28 -249 -185 -402t-388 -149q-144 2 -249 71.5t-155.5 194.5t-36.5 278q25 266 182.5 424t391.5 154zM373 524l-3 -59q-14 -223 136 -227q194 -6 225 315l4 91q2 90 -33.5 143.5t-104.5 55.5 q-91 3 -149.5 -74.5t-74.5 -244.5zM1072 1529q-7 -121 -73 -199t-166 -78q-36 0 -68 14t-66.5 32.5t-65 30.5t-64.5 11q-67 -3 -91 -91l-188 10q7 117 74.5 197.5t166.5 78.5q45 -1 120.5 -39t98 -43.5t47.5 -4.5q65 3 94 91z" />
<glyph unicode="&#xf6;" horiz-adv-x="1126" d="M618 1102q145 -2 251 -72.5t155.5 -196.5t35.5 -280l-2 -22q-28 -249 -185 -402t-388 -149q-144 2 -249 71.5t-155.5 194.5t-36.5 278q25 266 182.5 424t391.5 154zM373 524l-3 -59q-14 -223 136 -227q194 -6 225 315l4 91q2 90 -33.5 143.5t-104.5 55.5 q-91 3 -149.5 -74.5t-74.5 -244.5zM279 1361q-2 55 40.5 95.5t103.5 42.5q61 0 104.5 -38t45.5 -92q2 -57 -40.5 -96.5t-102.5 -41.5q-62 0 -105.5 38t-45.5 92zM783 1361q-2 57 40.5 96.5t102.5 41.5q61 0 105 -38.5t46 -91.5q2 -55 -40.5 -95.5t-103.5 -42.5 q-61 0 -104.5 38t-45.5 92z" />
<glyph unicode="&#xf7;" horiz-adv-x="1141" d="M1065 563h-1015l43 244h1014zM466 1080q-2 72 50.5 121.5t129.5 49.5t128.5 -44t53.5 -115q2 -72 -50.5 -121.5t-130.5 -49.5q-79 0 -129 46t-52 113zM326 271q-2 72 50.5 121.5t129.5 49.5q80 0 130 -45.5t52 -113.5q2 -72 -50.5 -121.5t-130.5 -49.5q-79 0 -129 46 t-52 113z" />
<glyph unicode="&#xf8;" horiz-adv-x="1126" d="M41 544q20 164 98.5 294t204 199t279.5 67q88 -2 172 -28l99 143l189 -1l-150 -215q117 -131 126 -328q2 -57 -6 -143q-30 -249 -189.5 -403t-392.5 -150q-78 0 -167 24l-101 -148l-190 1l151 218q-120 129 -128 328q-3 59 5 142zM363 527q-16 -91 -16 -157l309 468 q-17 6 -48 8q-188 3 -242 -299zM746 701l-303 -460l42 -5q93 -2 154 68.5t89 227.5q16 110 18 169z" />
<glyph unicode="&#xf9;" horiz-adv-x="1130" d="M656 118q-121 -143 -292 -139q-159 2 -239.5 111t-62.5 292l117 700h329l-119 -704q-3 -29 0 -53q7 -82 97 -85q104 -4 177 82l134 760h331l-188 -1082h-306zM816 1222h-247l-229 312l331 2z" />
<glyph unicode="&#xfa;" horiz-adv-x="1130" d="M656 118q-121 -143 -292 -139q-159 2 -239.5 111t-62.5 292l117 700h329l-119 -704q-3 -29 0 -53q7 -82 97 -85q104 -4 177 82l134 760h331l-188 -1082h-306zM749 1536h367l-319 -314h-288z" />
<glyph unicode="&#xfb;" horiz-adv-x="1130" d="M656 118q-121 -143 -292 -139q-159 2 -239.5 111t-62.5 292l117 700h329l-119 -704q-3 -29 0 -53q7 -82 97 -85q104 -4 177 82l134 760h331l-188 -1082h-306zM1087 1259v-22l-250 5l-130 135l-178 -134l-262 -4l-1 24l348 273h185z" />
<glyph unicode="&#xfc;" horiz-adv-x="1130" d="M656 118q-121 -143 -292 -139q-159 2 -239.5 111t-62.5 292l117 700h329l-119 -704q-3 -29 0 -53q7 -82 97 -85q104 -4 177 82l134 760h331l-188 -1082h-306zM291 1361q-2 55 40.5 95.5t103.5 42.5q61 0 104.5 -38t45.5 -92q2 -57 -40.5 -96.5t-102.5 -41.5 q-62 0 -105.5 38t-45.5 92zM795 1361q-2 57 40.5 96.5t102.5 41.5q61 0 105 -38.5t46 -91.5q2 -55 -40.5 -95.5t-103.5 -42.5q-61 0 -104.5 38t-45.5 92z" />
<glyph unicode="&#xfd;" horiz-adv-x="1039" d="M484 476l280 606h363l-634 -1244q-71 -147 -163.5 -212.5t-220.5 -65.5q-57 0 -145 22l25 241h38q61 0 107 19.5t77 75.5l47 90l-173 1074h340zM702 1536h367l-319 -314h-288z" />
<glyph unicode="&#xfe;" horiz-adv-x="1124" d="M1053 540q-31 -255 -157.5 -410.5t-323.5 -150.5q-143 4 -229 110l-98 -505h-330l339 1952h330l-106 -541q105 109 241 107q157 -2 245.5 -111.5t94.5 -305.5q2 -62 -6 -145zM733 674q0 165 -112 168q-102 6 -170 -83l-78 -434q31 -83 135 -85q177 -5 216 300q9 94 9 134 z" />
<glyph unicode="&#xff;" horiz-adv-x="1039" d="M484 476l280 606h363l-634 -1244q-71 -147 -163.5 -212.5t-220.5 -65.5q-57 0 -145 22l25 241h38q61 0 107 19.5t77 75.5l47 90l-173 1074h340zM244 1361q-2 55 40.5 95.5t103.5 42.5q61 0 104.5 -38t45.5 -92q2 -57 -40.5 -96.5t-102.5 -41.5q-62 0 -105.5 38t-45.5 92z M748 1361q-2 57 40.5 96.5t102.5 41.5q61 0 105 -38.5t46 -91.5q2 -55 -40.5 -95.5t-103.5 -42.5q-61 0 -104.5 38t-45.5 92z" />
<glyph unicode="&#x100;" horiz-adv-x="1363" d="M857 272h-465l-129 -272h-377l771 1456h322l269 -1456h-356zM520 543h302l-64 502zM1187 1589h-676l28 173h675z" />
<glyph unicode="&#x101;" horiz-adv-x="1064" d="M597 0q-14 39 -14 98q-111 -122 -265 -118q-141 2 -234 94t-87 223q5 176 147 270.5t388 94.5l110 -2l12 61l4 53q-4 91 -91 94q-108 2 -133 -119l-330 -1q5 109 71 189.5t179.5 124t241.5 40.5q123 -3 215.5 -51.5t138.5 -135t35 -199.5l-81 -509l-5 -62q-4 -74 19 -126 l-1 -19h-320zM409 218q101 -4 177 89l33 174l-85 1q-79 -2 -136 -46.5t-67 -121.5q-5 -41 15.5 -67.5t62.5 -28.5zM973 1280h-676l28 173h675z" />
<glyph unicode="&#x102;" horiz-adv-x="1363" d="M857 272h-465l-129 -272h-377l771 1456h322l269 -1456h-356zM520 543h302l-64 502zM1241 1850q-6 -143 -112.5 -228t-263.5 -81q-149 2 -242.5 85.5t-95.5 223.5l222 -2q-2 -124 116 -128q63 -1 102.5 33.5t50.5 94.5z" />
<glyph unicode="&#x103;" horiz-adv-x="1064" d="M597 0q-14 39 -14 98q-111 -122 -265 -118q-141 2 -234 94t-87 223q5 176 147 270.5t388 94.5l110 -2l12 61l4 53q-4 91 -91 94q-108 2 -133 -119l-330 -1q5 109 71 189.5t179.5 124t241.5 40.5q123 -3 215.5 -51.5t138.5 -135t35 -199.5l-81 -509l-5 -62q-4 -74 19 -126 l-1 -19h-320zM409 218q101 -4 177 89l33 174l-85 1q-79 -2 -136 -46.5t-67 -121.5q-5 -41 15.5 -67.5t62.5 -28.5zM1027 1540q-6 -143 -112.5 -228t-263.5 -81q-149 2 -242.5 85.5t-95.5 223.5l222 -2q-2 -124 116 -128q63 -1 102.5 33.5t50.5 94.5z" />
<glyph unicode="&#x104;" horiz-adv-x="1363" d="M1150 0l-67 -42q-89 -57 -97 -125q-7 -52 39 -54q21 -1 69 17l27 -171q-65 -41 -154 -41q-98 0 -159.5 56t-61.5 150q0 67 32.5 123t110.5 108l-32 251h-465l-129 -272h-377l771 1456h322l269 -1456h-98zM520 543h302l-64 502z" />
<glyph unicode="&#x105;" horiz-adv-x="1064" d="M856 0l-67 -42q-89 -57 -97 -125q-7 -52 39 -54q21 -1 69 17l27 -171q-65 -41 -154 -41q-98 0 -159.5 56t-61.5 150q0 135 139 228q-8 32 -8 80q-111 -122 -265 -118q-141 2 -234 94t-87 223q5 176 147 270.5t388 94.5l110 -2l12 61l4 53q-4 91 -91 94q-108 2 -133 -119 l-330 -1q5 109 71 189.5t179.5 124t241.5 40.5q123 -3 215.5 -51.5t138.5 -135t35 -199.5l-81 -509l-5 -62q-4 -74 19 -126l-1 -19h-61zM409 218q101 -4 177 89l33 174l-85 1q-79 -2 -136 -46.5t-67 -121.5q-5 -41 15.5 -67.5t62.5 -28.5z" />
<glyph unicode="&#x106;" horiz-adv-x="1314" d="M1222 496q-13 -153 -100.5 -272t-230 -183t-308.5 -61q-228 5 -359 147t-143 385q-9 162 35.5 353t145 332.5t237 212t298.5 67.5q238 -4 376.5 -143t150.5 -383l-341 1q2 133 -48 190t-158 61q-270 9 -329 -420q-27 -194 -27 -277q-5 -246 182 -253q121 -4 193 59.5 t92 179.5zM915 1846h367l-319 -314h-288z" />
<glyph unicode="&#x107;" horiz-adv-x="1042" d="M488 239q71 -2 111 39.5t51 107.5l308 1q-6 -119 -70.5 -213t-174 -145.5t-234.5 -48.5q-216 4 -333 155.5t-95 391.5l3 24q18 164 92 290.5t194.5 195.5t269.5 65q189 -4 298.5 -120.5t105.5 -314.5l-308 1q5 172 -123 175q-174 6 -200 -293l-9 -102l-1 -38 q0 -168 115 -171zM698 1536h367l-319 -314h-288z" />
<glyph unicode="&#x108;" horiz-adv-x="1314" d="M1222 496q-13 -153 -100.5 -272t-230 -183t-308.5 -61q-228 5 -359 147t-143 385q-9 162 35.5 353t145 332.5t237 212t298.5 67.5q238 -4 376.5 -143t150.5 -383l-341 1q2 133 -48 190t-158 61q-270 9 -329 -420q-27 -194 -27 -277q-5 -246 182 -253q121 -4 193 59.5 t92 179.5zM1253 1569v-22l-250 5l-130 135l-178 -134l-262 -4l-1 24l348 273h185z" />
<glyph unicode="&#x109;" horiz-adv-x="1042" d="M488 239q71 -2 111 39.5t51 107.5l308 1q-6 -119 -70.5 -213t-174 -145.5t-234.5 -48.5q-216 4 -333 155.5t-95 391.5l3 24q18 164 92 290.5t194.5 195.5t269.5 65q189 -4 298.5 -120.5t105.5 -314.5l-308 1q5 172 -123 175q-174 6 -200 -293l-9 -102l-1 -38 q0 -168 115 -171zM1036 1259v-22l-250 5l-130 135l-178 -134l-262 -4l-1 24l348 273h185z" />
<glyph unicode="&#x10a;" horiz-adv-x="1314" d="M1222 496q-13 -153 -100.5 -272t-230 -183t-308.5 -61q-228 5 -359 147t-143 385q-9 162 35.5 353t145 332.5t237 212t298.5 67.5q238 -4 376.5 -143t150.5 -383l-341 1q2 133 -48 190t-158 61q-270 9 -329 -420q-27 -194 -27 -277q-5 -246 182 -253q121 -4 193 59.5 t92 179.5zM702 1706q-2 66 45.5 109.5t113.5 43.5q67 2 114 -38.5t49 -104.5t-43.5 -108t-114.5 -44q-67 -2 -114.5 38.5t-49.5 103.5z" />
<glyph unicode="&#x10b;" horiz-adv-x="1042" d="M488 239q71 -2 111 39.5t51 107.5l308 1q-6 -119 -70.5 -213t-174 -145.5t-234.5 -48.5q-216 4 -333 155.5t-95 391.5l3 24q18 164 92 290.5t194.5 195.5t269.5 65q189 -4 298.5 -120.5t105.5 -314.5l-308 1q5 172 -123 175q-174 6 -200 -293l-9 -102l-1 -38 q0 -168 115 -171zM485 1396q-2 66 45.5 109.5t113.5 43.5q67 2 114 -38.5t49 -104.5t-43.5 -108t-114.5 -44q-67 -2 -114.5 38.5t-49.5 103.5z" />
<glyph unicode="&#x10c;" horiz-adv-x="1314" d="M1222 496q-13 -153 -100.5 -272t-230 -183t-308.5 -61q-228 5 -359 147t-143 385q-9 162 35.5 353t145 332.5t237 212t298.5 67.5q238 -4 376.5 -143t150.5 -383l-341 1q2 133 -48 190t-158 61q-270 9 -329 -420q-27 -194 -27 -277q-5 -246 182 -253q121 -4 193 59.5 t92 179.5zM851 1714l166 132l289 6l1 -21l-351 -278h-211l-285 280l-1 20l274 -6z" />
<glyph unicode="&#x10d;" horiz-adv-x="1042" d="M488 239q71 -2 111 39.5t51 107.5l308 1q-6 -119 -70.5 -213t-174 -145.5t-234.5 -48.5q-216 4 -333 155.5t-95 391.5l3 24q18 164 92 290.5t194.5 195.5t269.5 65q189 -4 298.5 -120.5t105.5 -314.5l-308 1q5 172 -123 175q-174 6 -200 -293l-9 -102l-1 -38 q0 -168 115 -171zM634 1404l166 132l289 6l1 -21l-351 -278h-211l-285 280l-1 20l274 -6z" />
<glyph unicode="&#x10e;" horiz-adv-x="1294" d="M2 0l252 1456l428 -1q189 0 330 -99.5t200 -271.5q51 -151 31 -326l-7 -61q-27 -196 -130 -355t-265 -249.5t-350 -92.5h-489zM550 1185l-159 -915l100 -1q176 0 282.5 136t126.5 416l2 33q7 160 -50 243t-171 87zM646 1714l166 132l289 6l1 -21l-351 -278h-211l-285 280 l-1 20l274 -6z" />
<glyph unicode="&#x10f;" horiz-adv-x="1277" d="M41 543q31 256 156 410t326 149q138 -4 229 -116l105 550h330l-266 -1536h-293l14 117q-121 -142 -269 -138q-156 2 -244.5 115.5t-94.5 304.5q-2 63 4 123zM369 521q-8 -64 -7 -112q0 -166 112 -169q97 -3 173 93l74 415q-33 92 -132 95q-92 2 -148.5 -79.5 t-71.5 -242.5zM1549 1469q-19 -190 -182 -363l-155 82q87 130 111 236l21 113l210 1z" />
<glyph unicode="&#x110;" horiz-adv-x="1324" d="M32 0l110 635h-166l33 191h166l109 630l428 -1q189 0 330 -99.5t200 -271.5q51 -151 31 -326l-7 -61q-27 -196 -130 -355t-265 -249.5t-350 -92.5h-489zM686 635h-202l-63 -365l100 -1q180 0 287.5 142.5t123.5 442.5q7 160 -50 243t-171 87l-131 1l-63 -359h203z" />
<glyph unicode="&#x111;" horiz-adv-x="1291" d="M1267 1215h-136l-210 -1215h-293l14 117q-123 -141 -269 -138q-152 2 -242 112.5t-97 310.5q-3 63 4 123l2 22q22 180 96 316q135 246 388 240q137 -4 228 -117l50 229h-245l33 191h244l23 130h330l-23 -130h136zM368 520q-8 -64 -7 -112q0 -167 112 -170q98 -3 174 95 l74 415q-33 92 -133 95q-91 2 -148 -79.5t-72 -243.5z" />
<glyph unicode="&#x112;" horiz-adv-x="1122" d="M987 617h-535l-61 -347h633l-47 -270h-975l252 1456h977l-47 -271h-634l-54 -307h536zM1132 1589h-676l28 173h675z" />
<glyph unicode="&#x113;" horiz-adv-x="1092" d="M525 -20q-145 1 -258.5 68.5t-171.5 188t-46 265.5l3 28q27 267 185.5 422.5t388.5 149.5q139 -2 238 -70.5t145 -189t30 -270.5l-19 -137h-644q2 -85 48 -138t134 -56q143 -4 257 110l138 -183q-61 -87 -170.5 -136.5t-239.5 -51.5h-18zM605 843q-70 2 -121.5 -44 t-89.5 -154h329l6 29q6 35 2 66q-17 100 -126 103zM961 1281h-676l28 173h675z" />
<glyph unicode="&#x114;" horiz-adv-x="1122" d="M987 617h-535l-61 -347h633l-47 -270h-975l252 1456h977l-47 -271h-634l-54 -307h536zM1186 1850q-6 -143 -112.5 -228t-263.5 -81q-149 2 -242.5 85.5t-95.5 223.5l222 -2q-2 -124 116 -128q63 -1 102.5 33.5t50.5 94.5z" />
<glyph unicode="&#x115;" horiz-adv-x="1092" d="M525 -20q-145 1 -258.5 68.5t-171.5 188t-46 265.5l3 28q27 267 185.5 422.5t388.5 149.5q139 -2 238 -70.5t145 -189t30 -270.5l-19 -137h-644q2 -85 48 -138t134 -56q143 -4 257 110l138 -183q-61 -87 -170.5 -136.5t-239.5 -51.5h-18zM605 843q-70 2 -121.5 -44 t-89.5 -154h329l6 29q6 35 2 66q-17 100 -126 103zM1015 1541q-6 -143 -112.5 -228t-263.5 -81q-149 2 -242.5 85.5t-95.5 223.5l222 -2q-2 -124 116 -128q63 -1 102.5 33.5t50.5 94.5z" />
<glyph unicode="&#x116;" horiz-adv-x="1122" d="M987 617h-535l-61 -347h633l-47 -270h-975l252 1456h977l-47 -271h-634l-54 -307h536zM654 1706q-2 66 45.5 109.5t113.5 43.5q67 2 114 -38.5t49 -104.5t-43.5 -108t-114.5 -44q-67 -2 -114.5 38.5t-49.5 103.5z" />
<glyph unicode="&#x117;" horiz-adv-x="1092" d="M525 -20q-145 1 -258.5 68.5t-171.5 188t-46 265.5l3 28q27 267 185.5 422.5t388.5 149.5q139 -2 238 -70.5t145 -189t30 -270.5l-19 -137h-644q2 -85 48 -138t134 -56q143 -4 257 110l138 -183q-61 -87 -170.5 -136.5t-239.5 -51.5h-18zM605 843q-70 2 -121.5 -44 t-89.5 -154h329l6 29q6 35 2 66q-17 100 -126 103zM483 1397q-2 66 45.5 109.5t113.5 43.5q67 2 114 -38.5t49 -104.5t-43.5 -108t-114.5 -44q-67 -2 -114.5 38.5t-49.5 103.5z" />
<glyph unicode="&#x118;" horiz-adv-x="1122" d="M987 617h-535l-61 -347h633l-47 -270h-190l-67 -42q-89 -57 -97 -125q-7 -52 39 -54q21 -1 69 17l27 -171q-65 -41 -154 -41q-98 0 -159.5 56t-61.5 150q0 123 112 210h-493l252 1456h977l-47 -271h-634l-54 -307h536z" />
<glyph unicode="&#x119;" horiz-adv-x="1092" d="M958 168q-73 -105 -223 -157l-45 -29q-73 -50 -80 -114q-7 -52 39 -54q21 -1 69 17l27 -171q-65 -41 -154 -41q-98 0 -159.5 56t-61.5 150q0 93 63 165q-184 32 -289.5 174t-89.5 338l3 28q27 267 185.5 422.5t388.5 149.5q139 -2 238 -70.5t145 -189t30 -270.5l-19 -137 h-644q2 -85 48 -138t134 -56q143 -4 257 110zM610 843q-70 2 -121.5 -44t-89.5 -154h329l6 29q6 35 2 66q-17 100 -126 103z" />
<glyph unicode="&#x11a;" horiz-adv-x="1122" d="M987 617h-535l-61 -347h633l-47 -270h-975l252 1456h977l-47 -271h-634l-54 -307h536zM803 1714l166 132l289 6l1 -21l-351 -278h-211l-285 280l-1 20l274 -6z" />
<glyph unicode="&#x11b;" horiz-adv-x="1092" d="M525 -20q-145 1 -258.5 68.5t-171.5 188t-46 265.5l3 28q27 267 185.5 422.5t388.5 149.5q139 -2 238 -70.5t145 -189t30 -270.5l-19 -137h-644q2 -85 48 -138t134 -56q143 -4 257 110l138 -183q-61 -87 -170.5 -136.5t-239.5 -51.5h-18zM605 843q-70 2 -121.5 -44 t-89.5 -154h329l6 29q6 35 2 66q-17 100 -126 103zM632 1405l166 132l289 6l1 -21l-351 -278h-211l-285 280l-1 20l274 -6z" />
<glyph unicode="&#x11c;" horiz-adv-x="1364" d="M1209 179q-82 -96 -239 -148.5t-348 -49.5q-183 2 -309 92t-180 251t-29 363l8 60q46 339 238.5 537t471.5 193q244 -4 375 -131t146 -367l-328 1q-7 117 -57.5 171t-143.5 57q-138 5 -228 -108.5t-123 -324.5q-28 -180 -20 -280q15 -241 217 -244q122 -2 214 59l45 227 h-237l42 241h579zM1270 1569v-22l-250 5l-130 135l-178 -134l-262 -4l-1 24l348 273h185z" />
<glyph unicode="&#x11d;" horiz-adv-x="1153" d="M43 543q19 163 89.5 295t176.5 199.5t240 65.5q163 -4 246 -117l35 97l304 -1l-177 -1040q-30 -220 -193 -347t-406 -121q-108 2 -209 43t-173 124l156 194q87 -110 226 -113q219 -4 278 233l8 33q-112 -110 -247 -108q-104 1 -183 52.5t-124 148.5t-51 216q-4 60 4 146z M368 436q0 -92 33 -143t96 -53q93 -4 169 72l85 459q-40 70 -134 72q-96 2 -161 -81.5t-82 -219.5q-6 -63 -6 -106zM1065 1259v-22l-250 5l-130 135l-178 -134l-262 -4l-1 24l348 273h185z" />
<glyph unicode="&#x11e;" horiz-adv-x="1364" d="M1209 179q-82 -96 -239 -148.5t-348 -49.5q-183 2 -309 92t-180 251t-29 363l8 60q46 339 238.5 537t471.5 193q244 -4 375 -131t146 -367l-328 1q-7 117 -57.5 171t-143.5 57q-138 5 -228 -108.5t-123 -324.5q-28 -180 -20 -280q15 -241 217 -244q122 -2 214 59l45 227 h-237l42 241h579zM1251 1850q-6 -143 -112.5 -228t-263.5 -81q-149 2 -242.5 85.5t-95.5 223.5l222 -2q-2 -124 116 -128q63 -1 102.5 33.5t50.5 94.5z" />
<glyph unicode="&#x11f;" horiz-adv-x="1153" d="M43 543q19 163 89.5 295t176.5 199.5t240 65.5q163 -4 246 -117l35 97l304 -1l-177 -1040q-30 -220 -193 -347t-406 -121q-108 2 -209 43t-173 124l156 194q87 -110 226 -113q219 -4 278 233l8 33q-112 -110 -247 -108q-104 1 -183 52.5t-124 148.5t-51 216q-4 60 4 146z M368 436q0 -92 33 -143t96 -53q93 -4 169 72l85 459q-40 70 -134 72q-96 2 -161 -81.5t-82 -219.5q-6 -63 -6 -106zM1046 1540q-6 -143 -112.5 -228t-263.5 -81q-149 2 -242.5 85.5t-95.5 223.5l222 -2q-2 -124 116 -128q63 -1 102.5 33.5t50.5 94.5z" />
<glyph unicode="&#x120;" horiz-adv-x="1364" d="M1209 179q-82 -96 -239 -148.5t-348 -49.5q-183 2 -309 92t-180 251t-29 363l8 60q46 339 238.5 537t471.5 193q244 -4 375 -131t146 -367l-328 1q-7 117 -57.5 171t-143.5 57q-138 5 -228 -108.5t-123 -324.5q-28 -180 -20 -280q15 -241 217 -244q122 -2 214 59l45 227 h-237l42 241h579zM719 1706q-2 66 45.5 109.5t113.5 43.5q67 2 114 -38.5t49 -104.5t-43.5 -108t-114.5 -44q-67 -2 -114.5 38.5t-49.5 103.5z" />
<glyph unicode="&#x121;" horiz-adv-x="1153" d="M43 543q19 163 89.5 295t176.5 199.5t240 65.5q163 -4 246 -117l35 97l304 -1l-177 -1040q-30 -220 -193 -347t-406 -121q-108 2 -209 43t-173 124l156 194q87 -110 226 -113q219 -4 278 233l8 33q-112 -110 -247 -108q-104 1 -183 52.5t-124 148.5t-51 216q-4 60 4 146z M368 436q0 -92 33 -143t96 -53q93 -4 169 72l85 459q-40 70 -134 72q-96 2 -161 -81.5t-82 -219.5q-6 -63 -6 -106zM514 1396q-2 66 45.5 109.5t113.5 43.5q67 2 114 -38.5t49 -104.5t-43.5 -108t-114.5 -44q-67 -2 -114.5 38.5t-49.5 103.5z" />
<glyph unicode="&#x122;" horiz-adv-x="1364" d="M1209 179q-82 -96 -239 -148.5t-348 -49.5q-183 2 -309 92t-180 251t-29 363l8 60q46 339 238.5 537t471.5 193q244 -4 375 -131t146 -367l-328 1q-7 117 -57.5 171t-143.5 57q-138 5 -228 -108.5t-123 -324.5q-28 -180 -20 -280q15 -241 217 -244q122 -2 214 59l45 227 h-237l42 241h579zM684 -152q-19 -190 -182 -363l-155 82q87 130 111 236l21 113l210 1z" />
<glyph unicode="&#x123;" horiz-adv-x="1153" d="M43 543q19 163 89.5 295t176.5 199.5t240 65.5q163 -4 246 -117l35 97l304 -1l-177 -1040q-30 -220 -193 -347t-406 -121q-108 2 -209 43t-173 124l156 194q87 -110 226 -113q219 -4 278 233l8 33q-112 -110 -247 -108q-104 1 -183 52.5t-124 148.5t-51 216q-4 60 4 146z M368 436q0 -92 33 -143t96 -53q93 -4 169 72l85 459q-40 70 -134 72q-96 2 -161 -81.5t-82 -219.5q-6 -63 -6 -106zM728 1731l169 -75q-57 -108 -77 -156t-31 -102l-26 -137h-232l22 154q36 229 175 316z" />
<glyph unicode="&#x124;" horiz-adv-x="1406" d="M1184 0h-340l105 608h-499l-106 -608h-342l252 1456h343l-101 -578h500l100 578h341zM1287 1569v-22l-250 5l-130 135l-178 -134l-262 -4l-1 24l348 273h185z" />
<glyph unicode="&#x125;" horiz-adv-x="1131" d="M463 964q121 141 279 139q163 -4 241.5 -119t56.5 -312l-112 -672h-329l113 676q4 34 2 64q-7 99 -110 102q-89 2 -158 -65l-138 -777h-329l267 1536h329zM1117 1662v-22l-250 5l-130 135l-178 -134l-262 -4l-1 24l348 273h185z" />
<glyph unicode="&#x126;" horiz-adv-x="1457" d="M1424 1243h114l-32 -183h-114l-183 -1060h-341l106 608h-500l-105 -608h-343l184 1060h-99l32 183h98l38 213h342l-37 -213h499l38 213h340zM521 878h499l32 182h-499z" />
<glyph unicode="&#x127;" horiz-adv-x="1161" d="M755 1211h-214l-48 -247q121 141 279 139q163 -4 241.5 -119t56.5 -312l-112 -672h-329l113 676q4 34 2 64q-7 99 -110 102q-89 2 -158 -65l-138 -777h-329l210 1211h-174l33 191h174l24 134h329l-26 -134h210z" />
<glyph unicode="&#x128;" horiz-adv-x="609" d="M367 0h-342l253 1456h341zM879 1838q-7 -121 -73 -199t-166 -78q-36 0 -68 14t-66.5 32.5t-65 30.5t-64.5 11q-67 -3 -91 -91l-188 10q7 117 74.5 197.5t166.5 78.5q45 -1 120.5 -39t98 -43.5t47.5 -4.5q65 3 94 91z" />
<glyph unicode="&#x129;" horiz-adv-x="576" d="M345 0h-331l188 1082h331zM807 1508q-7 -121 -73 -199t-166 -78q-36 0 -68 14t-66.5 32.5t-65 30.5t-64.5 11q-67 -3 -91 -91l-188 10q7 117 74.5 197.5t166.5 78.5q45 -1 120.5 -39t98 -43.5t47.5 -4.5q65 3 94 91z" />
<glyph unicode="&#x12a;" horiz-adv-x="609" d="M367 0h-342l253 1456h341zM809 1589h-676l28 173h675z" />
<glyph unicode="&#x12b;" horiz-adv-x="576" d="M345 0h-331l188 1082h331zM737 1259h-676l28 173h675z" />
<glyph unicode="&#x12c;" horiz-adv-x="609" d="M367 0h-342l253 1456h341zM863 1850q-6 -143 -112.5 -228t-263.5 -81q-149 2 -242.5 85.5t-95.5 223.5l222 -2q-2 -124 116 -128q63 -1 102.5 33.5t50.5 94.5z" />
<glyph unicode="&#x12d;" horiz-adv-x="576" d="M345 0h-331l188 1082h331zM791 1520q-6 -143 -112.5 -228t-263.5 -81q-149 2 -242.5 85.5t-95.5 223.5l222 -2q-2 -124 116 -128q63 -1 102.5 33.5t50.5 94.5z" />
<glyph unicode="&#x12e;" horiz-adv-x="609" d="M367 0h-342l253 1456h341zM296 0l-67 -42q-89 -57 -97 -125q-7 -52 39 -54q21 -1 69 17l27 -171q-65 -41 -154 -41q-98 0 -159.5 56t-61.5 150q0 82 49 147.5t165 123.5z" />
<glyph unicode="&#x12f;" horiz-adv-x="556" d="M334 0h-330l188 1082h330zM221 1355q-2 73 51.5 122t129.5 49q77 0 128.5 -44t53.5 -115q2 -74 -51 -122.5t-130 -48.5q-75 0 -127.5 43.5t-54.5 115.5zM280 0l-67 -42q-89 -57 -97 -125q-7 -52 39 -54q21 -1 69 17l27 -171q-65 -41 -154 -41q-98 0 -159.5 56t-61.5 150 q0 82 49 147.5t165 123.5z" />
<glyph unicode="&#x130;" horiz-adv-x="609" d="M367 0h-342l253 1456h341zM330 1706q-2 66 45.5 109.5t113.5 43.5q67 2 114 -38.5t49 -104.5t-43.5 -108t-114.5 -44q-67 -2 -114.5 38.5t-49.5 103.5z" />
<glyph unicode="&#x131;" horiz-adv-x="576" d="M345 0h-331l188 1082h331z" />
<glyph unicode="&#x132;" horiz-adv-x="1735" d="M367 0h-342l253 1456h341zM1429 1456h342l-170 -999q-31 -219 -186.5 -350.5t-365.5 -127.5q-211 4 -326.5 124t-109.5 338l345 -1v-69q4 -119 115 -122q150 -3 188 219z" />
<glyph unicode="&#x133;" horiz-adv-x="1102" d="M334 0h-330l188 1082h330zM221 1355q-2 73 51.5 122t129.5 49q77 0 128.5 -44t53.5 -115q2 -74 -51 -122.5t-130 -48.5q-75 0 -127.5 43.5t-54.5 115.5zM1084 1082l-189 -1116q-24 -193 -146 -300.5t-310 -105.5q-75 2 -165 19l27 256q55 -12 91 -12q145 -2 172 154 l190 1105h330zM779 1355q-2 74 52 122t129 48q76 2 128 -42.5t54 -115.5t-49.5 -120t-131.5 -51q-76 0 -128 44.5t-54 114.5z" />
<glyph unicode="&#x134;" horiz-adv-x="1126" d="M820 1456h342l-170 -999q-31 -219 -186.5 -350.5t-365.5 -127.5q-211 4 -326.5 124t-109.5 338l345 -1v-69q4 -119 115 -122q150 -3 188 219zM1415 1569v-22l-250 5l-130 135l-178 -134l-262 -4l-1 24l348 273h185z" />
<glyph unicode="&#x135;" horiz-adv-x="596" d="M547 1082l-187 -1096q-25 -196 -143 -311t-311 -115q-75 2 -165 19l41 256q49 -15 94 -15q126 0 156 176l186 1086h329zM792 1239v-22l-250 5l-130 135l-178 -134l-262 -4l-1 24l348 273h185z" />
<glyph unicode="&#x136;" horiz-adv-x="1281" d="M587 538l-178 -167l-65 -371h-342l252 1456h343l-109 -623l142 173l378 450h444l-604 -659l335 -797h-391zM616 -99q-19 -190 -182 -363l-155 82q87 130 111 236l21 113l210 1z" />
<glyph unicode="&#x137;" horiz-adv-x="1096" d="M489 399l-120 -104l-51 -295h-329l267 1537h329l-152 -820l40 48l299 317h417l-460 -460l279 -622h-361zM549 -121q-19 -190 -182 -363l-155 82q87 130 111 236l21 113l210 1z" />
<glyph unicode="&#x138;" horiz-adv-x="1215" d="M527 378h-122l-67 -378h-328l187 1082h329l-68 -389h77l286 389l440 -1l-433 -521l238 -560h-409z" />
<glyph unicode="&#x139;" horiz-adv-x="1087" d="M391 270h593l-47 -270h-935l252 1456h343zM532 1846h367l-319 -314h-288z" />
<glyph unicode="&#x13a;" horiz-adv-x="556" d="M334 0h-330l266 1536h330zM530 1923h367l-319 -314h-288z" />
<glyph unicode="&#x13b;" horiz-adv-x="1087" d="M391 270h593l-47 -270h-935l252 1456h343zM556 -142q-19 -190 -182 -363l-155 82q87 130 111 236l21 113l210 1z" />
<glyph unicode="&#x13c;" horiz-adv-x="556" d="M334 0h-330l266 1536h330zM256 -142q-19 -190 -182 -363l-155 82q87 130 111 236l21 113l210 1z" />
<glyph unicode="&#x13d;" horiz-adv-x="1087" d="M391 270h593l-47 -270h-935l252 1456h343zM1056 1389q-19 -190 -182 -363l-155 82q87 130 111 236l21 113l210 1z" />
<glyph unicode="&#x13e;" horiz-adv-x="706" d="M334 0h-330l266 1536h330zM949 1469q-19 -190 -182 -363l-155 82q87 130 111 236l21 113l210 1z" />
<glyph unicode="&#x13f;" horiz-adv-x="1087" d="M391 270h593l-47 -270h-935l252 1456h343zM621 835q-2 66 45.5 109.5t113.5 43.5q67 2 114 -38.5t49 -104.5t-43.5 -108t-114.5 -44q-67 -2 -114.5 38.5t-49.5 103.5z" />
<glyph unicode="&#x140;" horiz-adv-x="776" d="M334 0h-330l266 1536h330zM556 766q-2 66 45.5 109.5t113.5 43.5q67 2 114 -38.5t49 -104.5t-43.5 -108t-114.5 -44q-67 -2 -114.5 38.5t-49.5 103.5z" />
<glyph unicode="&#x141;" horiz-adv-x="1135" d="M553 920l198 52l-33 -188l-197 -53l-80 -461h593l-48 -270h-935l110 633l-138 -36l33 188l138 37l110 634h342z" />
<glyph unicode="&#x142;" horiz-adv-x="652" d="M538 931l138 41l-33 -190l-138 -42l-129 -740h-330l111 634l-134 -39l34 190l133 40l123 711h330z" />
<glyph unicode="&#x143;" horiz-adv-x="1405" d="M1183 0h-331l-348 919l-160 -919h-342l252 1456h334l347 -919l159 919h342zM948 1846h367l-319 -314h-288z" />
<glyph unicode="&#x144;" horiz-adv-x="1130" d="M475 1083l-23 -130q130 154 313 150q150 -3 223.5 -111.5t53.5 -310.5l-114 -681h-330l115 683q4 35 2 64q-7 95 -112 95q-87 2 -159 -77l-135 -765h-329l188 1082zM750 1536h367l-319 -314h-288z" />
<glyph unicode="&#x145;" horiz-adv-x="1405" d="M1183 0h-331l-348 919l-160 -919h-342l252 1456h334l347 -919l159 919h342zM685 -152q-19 -190 -182 -363l-155 82q87 130 111 236l21 113l210 1z" />
<glyph unicode="&#x146;" horiz-adv-x="1130" d="M475 1083l-23 -130q130 154 313 150q150 -3 223.5 -111.5t53.5 -310.5l-114 -681h-330l115 683q4 35 2 64q-7 95 -112 95q-87 2 -159 -77l-135 -765h-329l188 1082zM544 -142q-19 -190 -182 -363l-155 82q87 130 111 236l21 113l210 1z" />
<glyph unicode="&#x147;" horiz-adv-x="1405" d="M1183 0h-331l-348 919l-160 -919h-342l252 1456h334l347 -919l159 919h342zM884 1714l166 132l289 6l1 -21l-351 -278h-211l-285 280l-1 20l274 -6z" />
<glyph unicode="&#x148;" horiz-adv-x="1130" d="M475 1083l-23 -130q130 154 313 150q150 -3 223.5 -111.5t53.5 -310.5l-114 -681h-330l115 683q4 35 2 64q-7 95 -112 95q-87 2 -159 -77l-135 -765h-329l188 1082zM686 1404l166 132l289 6l1 -21l-351 -278h-211l-285 280l-1 20l274 -6z" />
<glyph unicode="&#x149;" horiz-adv-x="1130" d="M475 1083l-23 -130q130 154 313 150q150 -3 223.5 -111.5t53.5 -310.5l-114 -681h-330l115 683q4 35 2 64q-7 95 -112 95q-87 2 -159 -77l-135 -765h-329l188 1082zM312 1467q-19 -190 -182 -363l-155 82q87 130 111 236l21 113l210 1z" />
<glyph unicode="&#x14a;" horiz-adv-x="1419" d="M1447 1456l-250 -1462q-25 -205 -148.5 -320.5t-315.5 -113.5q-78 2 -171 19l43 266q54 -14 96 -14q57 2 94 38t62 123l2 8l-353 920l-160 -920h-341l252 1456h332l356 -919l160 919h342z" />
<glyph unicode="&#x14b;" horiz-adv-x="1126" d="M478 1083l-25 -157q134 180 314 176q132 -2 203 -93t73 -253l-5 -105l-107 -666q-25 -197 -142 -311.5t-310 -114.5q-83 2 -165 18l37 258q51 -18 98 -16q120 0 151 166l109 668l5 60q4 123 -87 128q-90 3 -179 -72l-137 -769h-329l188 1082z" />
<glyph unicode="&#x14c;" horiz-adv-x="1382" d="M603 -20q-227 5 -364 150t-155 388q-10 120 19 282.5t103 299.5t185 228q186 153 428 148q149 -3 260.5 -68.5t178.5 -188.5t78 -280q8 -111 -13.5 -252.5t-79 -270t-148.5 -226.5t-214.5 -155.5t-277.5 -54.5zM993 942q-10 250 -194 260q-142 7 -235 -112.5t-123 -352.5 q-19 -144 -14 -223q10 -254 196 -261q122 -6 210 87.5t127 272t33 329.5zM1192 1589h-676l28 173h675z" />
<glyph unicode="&#x14d;" horiz-adv-x="1126" d="M618 1102q145 -2 251 -72.5t155.5 -196.5t35.5 -280l-2 -22q-28 -249 -185 -402t-388 -149q-144 2 -249 71.5t-155.5 194.5t-36.5 278q25 266 182.5 424t391.5 154zM373 524l-3 -59q-14 -223 136 -227q194 -6 225 315l4 91q2 90 -33.5 143.5t-104.5 55.5 q-91 3 -149.5 -74.5t-74.5 -244.5zM1002 1280h-676l28 173h675z" />
<glyph unicode="&#x14e;" horiz-adv-x="1382" d="M603 -20q-227 5 -364 150t-155 388q-10 120 19 282.5t103 299.5t185 228q186 153 428 148q149 -3 260.5 -68.5t178.5 -188.5t78 -280q8 -111 -13.5 -252.5t-79 -270t-148.5 -226.5t-214.5 -155.5t-277.5 -54.5zM993 942q-10 250 -194 260q-142 7 -235 -112.5t-123 -352.5 q-19 -144 -14 -223q10 -254 196 -261q122 -6 210 87.5t127 272t33 329.5zM1246 1850q-6 -143 -112.5 -228t-263.5 -81q-149 2 -242.5 85.5t-95.5 223.5l222 -2q-2 -124 116 -128q63 -1 102.5 33.5t50.5 94.5z" />
<glyph unicode="&#x14f;" horiz-adv-x="1126" d="M618 1102q145 -2 251 -72.5t155.5 -196.5t35.5 -280l-2 -22q-28 -249 -185 -402t-388 -149q-144 2 -249 71.5t-155.5 194.5t-36.5 278q25 266 182.5 424t391.5 154zM373 524l-3 -59q-14 -223 136 -227q194 -6 225 315l4 91q2 90 -33.5 143.5t-104.5 55.5 q-91 3 -149.5 -74.5t-74.5 -244.5zM1056 1540q-6 -143 -112.5 -228t-263.5 -81q-149 2 -242.5 85.5t-95.5 223.5l222 -2q-2 -124 116 -128q63 -1 102.5 33.5t50.5 94.5z" />
<glyph unicode="&#x150;" horiz-adv-x="1382" d="M603 -20q-227 5 -364 150t-155 388q-10 120 19 282.5t103 299.5t185 228q186 153 428 148q149 -3 260.5 -68.5t178.5 -188.5t78 -280q8 -111 -13.5 -252.5t-79 -270t-148.5 -226.5t-214.5 -155.5t-277.5 -54.5zM993 942q-10 250 -194 260q-142 7 -235 -112.5t-123 -352.5 q-19 -144 -14 -223q10 -254 196 -261q122 -6 210 87.5t127 272t33 329.5zM1161 1845h294l-310 -300h-255zM758 1845h295l-283 -300h-256z" />
<glyph unicode="&#x151;" horiz-adv-x="1126" d="M618 1102q145 -2 251 -72.5t155.5 -196.5t35.5 -280l-2 -22q-28 -249 -185 -402t-388 -149q-144 2 -249 71.5t-155.5 194.5t-36.5 278q25 266 182.5 424t391.5 154zM373 524l-3 -59q-14 -223 136 -227q194 -6 225 315l4 91q2 90 -33.5 143.5t-104.5 55.5 q-91 3 -149.5 -74.5t-74.5 -244.5zM971 1535h294l-310 -300h-255zM568 1535h295l-283 -300h-256z" />
<glyph unicode="&#x152;" horiz-adv-x="1944" d="M1763 0h-864l-196 -17l-87 -1q-165 3 -293 80t-190 213.5t-41 300.5l48 311q26 172 122 307.5t245.5 209t327.5 73.5l73 -2l207 -19h902l-47 -271h-634l-54 -307h536l-46 -261h-534l-61 -347h633zM631 242q83 -3 193 8l178 955q-96 15 -179 15q-137 2 -231.5 -86 t-120.5 -246l-49 -313q-8 -62 -3 -120q8 -97 62.5 -153t149.5 -60z" />
<glyph unicode="&#x153;" horiz-adv-x="1800" d="M72 545q30 253 190 407.5t392 150.5q212 -5 328 -124q158 127 348 123q200 -4 307.5 -141t82.5 -349l-27 -177l-601 1q-2 -83 39 -136t127 -57q81 -3 153.5 16.5t146.5 48.5l63 -209q-69 -56 -176 -87.5t-244 -31.5q-211 5 -328 127q-166 -131 -370 -127 q-216 4 -334.5 151.5t-99.5 378.5l1 13zM394 433q-2 -91 32 -142t102 -53q91 -3 150.5 69.5t78.5 224.5l7 111q2 93 -32 145.5t-102 54.5q-91 3 -150.5 -73t-78.5 -226zM1307 844q-112 3 -174 -142l-22 -57h288q12 60 11 91q-4 105 -103 108z" />
<glyph unicode="&#x154;" horiz-adv-x="1306" d="M624 514h-190l-90 -514h-342l252 1456l514 -1q247 0 380.5 -115.5t119.5 -315.5q-11 -158 -91 -261.5t-224 -163.5l196 -582v-17h-365zM480 785l200 -2q82 0 142.5 40t86.5 109.5t15 134.5q-20 111 -142 117l-232 1zM818 1846h367l-319 -314h-288z" />
<glyph unicode="&#x155;" horiz-adv-x="763" d="M768 777q-53 8 -102 10q-148 4 -226 -102l-122 -685h-329l188 1082l307 1l-25 -142q106 164 250 164q41 0 102 -14zM590 1536h367l-319 -314h-288z" />
<glyph unicode="&#x156;" horiz-adv-x="1306" d="M624 514h-190l-90 -514h-342l252 1456l514 -1q247 0 380.5 -115.5t119.5 -315.5q-11 -158 -91 -261.5t-224 -163.5l196 -582v-17h-365zM480 785l200 -2q82 0 142.5 40t86.5 109.5t15 134.5q-20 111 -142 117l-232 1zM577 -142q-19 -190 -182 -363l-155 82q87 130 111 236 l21 113l210 1z" />
<glyph unicode="&#x157;" horiz-adv-x="763" d="M768 777q-53 8 -102 10q-148 4 -226 -102l-122 -685h-329l188 1082l307 1l-25 -142q106 164 250 164q41 0 102 -14zM240 -142q-19 -190 -182 -363l-155 82q87 130 111 236l21 113l210 1z" />
<glyph unicode="&#x158;" horiz-adv-x="1306" d="M624 514h-190l-90 -514h-342l252 1456l514 -1q247 0 380.5 -115.5t119.5 -315.5q-11 -158 -91 -261.5t-224 -163.5l196 -582v-17h-365zM480 785l200 -2q82 0 142.5 40t86.5 109.5t15 134.5q-20 111 -142 117l-232 1zM754 1714l166 132l289 6l1 -21l-351 -278h-211 l-285 280l-1 20l274 -6z" />
<glyph unicode="&#x159;" horiz-adv-x="763" d="M768 777q-53 8 -102 10q-148 4 -226 -102l-122 -685h-329l188 1082l307 1l-25 -142q106 164 250 164q41 0 102 -14zM527 1404l166 132l289 6l1 -21l-351 -278h-211l-285 280l-1 20l274 -6z" />
<glyph unicode="&#x15a;" horiz-adv-x="1254" d="M802 394q22 113 -122 175l-164 68q-345 155 -328 422q7 122 84 217.5t213 148.5t297 51q216 -4 347.5 -126t129.5 -327h-340q3 84 -35.5 134.5t-126.5 52.5q-86 2 -152 -40t-78 -113q-19 -100 148.5 -164t243.5 -110q239 -143 224 -386q-8 -126 -81 -221t-202.5 -147 t-290.5 -50q-118 2 -219 37t-173 102q-146 135 -140 355l343 -1q-6 -112 43 -169.5t165 -57.5q86 0 143.5 39.5t70.5 109.5zM886 1846h367l-319 -314h-288z" />
<glyph unicode="&#x15b;" horiz-adv-x="1028" d="M597 310q13 66 -102 99l-71 18q-174 46 -255 129t-76 197q5 156 138.5 253.5t325.5 95.5q191 -2 309.5 -97t120.5 -256l-328 1q4 128 -113 128q-50 0 -93 -29.5t-51 -78.5q-17 -81 143 -111q139 -33 215 -76.5t116 -107.5t37 -154q-3 -98 -64 -175t-176.5 -123 t-250.5 -43q-117 1 -217.5 49t-157 130.5t-58.5 189.5l306 -2q2 -144 144 -142q61 0 104 27.5t54 77.5zM671 1536h367l-319 -314h-288z" />
<glyph unicode="&#x15c;" horiz-adv-x="1254" d="M802 394q22 113 -122 175l-164 68q-345 155 -328 422q7 122 84 217.5t213 148.5t297 51q216 -4 347.5 -126t129.5 -327h-340q3 84 -35.5 134.5t-126.5 52.5q-86 2 -152 -40t-78 -113q-19 -100 148.5 -164t243.5 -110q239 -143 224 -386q-8 -126 -81 -221t-202.5 -147 t-290.5 -50q-118 2 -219 37t-173 102q-146 135 -140 355l343 -1q-6 -112 43 -169.5t165 -57.5q86 0 143.5 39.5t70.5 109.5zM1224 1569v-22l-250 5l-130 135l-178 -134l-262 -4l-1 24l348 273h185z" />
<glyph unicode="&#x15d;" horiz-adv-x="1028" d="M597 310q13 66 -102 99l-71 18q-174 46 -255 129t-76 197q5 156 138.5 253.5t325.5 95.5q191 -2 309.5 -97t120.5 -256l-328 1q4 128 -113 128q-50 0 -93 -29.5t-51 -78.5q-17 -81 143 -111q139 -33 215 -76.5t116 -107.5t37 -154q-3 -98 -64 -175t-176.5 -123 t-250.5 -43q-117 1 -217.5 49t-157 130.5t-58.5 189.5l306 -2q2 -144 144 -142q61 0 104 27.5t54 77.5zM1010 1259v-22l-250 5l-130 135l-178 -134l-262 -4l-1 24l348 273h185z" />
<glyph unicode="&#x15e;" horiz-adv-x="1254" d="M802 394q22 113 -122 175l-164 68q-345 155 -328 422q7 122 84 217.5t213 148.5t297 51q216 -4 347.5 -126t129.5 -327h-340q3 84 -35.5 134.5t-126.5 52.5q-86 2 -152 -40t-78 -113q-19 -100 148.5 -164t243.5 -110q239 -143 224 -386q-8 -126 -81 -221t-202.5 -147 t-290.5 -50q-118 2 -219 37t-173 102q-146 135 -140 355l343 -1q-6 -112 43 -169.5t165 -57.5q86 0 143.5 39.5t70.5 109.5zM656 12l-19 -67q62 -14 93.5 -57t31.5 -105q0 -121 -102.5 -186.5t-295.5 -70.5l12 188q89 12 103 84q9 54 -71 62l-42 4l43 145z" />
<glyph unicode="&#x15f;" horiz-adv-x="1028" d="M597 310q13 66 -102 99l-71 18q-174 46 -255 129t-76 197q5 156 138.5 253.5t325.5 95.5q191 -2 309.5 -97t120.5 -256l-328 1q4 128 -113 128q-50 0 -93 -29.5t-51 -78.5q-17 -81 143 -111q139 -33 215 -76.5t116 -107.5t37 -154q-3 -98 -64 -175t-176.5 -123 t-250.5 -43q-117 1 -217.5 49t-157 130.5t-58.5 189.5l306 -2q2 -144 144 -142q61 0 104 27.5t54 77.5zM516 3l-19 -67q62 -14 93.5 -57t31.5 -105q0 -121 -102.5 -186.5t-295.5 -70.5l12 188q89 12 103 84q9 54 -71 62l-42 4l43 145z" />
<glyph unicode="&#x160;" horiz-adv-x="1254" d="M802 394q22 113 -122 175l-164 68q-345 155 -328 422q7 122 84 217.5t213 148.5t297 51q216 -4 347.5 -126t129.5 -327h-340q3 84 -35.5 134.5t-126.5 52.5q-86 2 -152 -40t-78 -113q-19 -100 148.5 -164t243.5 -110q239 -143 224 -386q-8 -126 -81 -221t-202.5 -147 t-290.5 -50q-118 2 -219 37t-173 102q-146 135 -140 355l343 -1q-6 -112 43 -169.5t165 -57.5q86 0 143.5 39.5t70.5 109.5zM822 1714l166 132l289 6l1 -21l-351 -278h-211l-285 280l-1 20l274 -6z" />
<glyph unicode="&#x161;" horiz-adv-x="1028" d="M597 310q13 66 -102 99l-71 18q-174 46 -255 129t-76 197q5 156 138.5 253.5t325.5 95.5q191 -2 309.5 -97t120.5 -256l-328 1q4 128 -113 128q-50 0 -93 -29.5t-51 -78.5q-17 -81 143 -111q139 -33 215 -76.5t116 -107.5t37 -154q-3 -98 -64 -175t-176.5 -123 t-250.5 -43q-117 1 -217.5 49t-157 130.5t-58.5 189.5l306 -2q2 -144 144 -142q61 0 104 27.5t54 77.5zM607 1404l166 132l289 6l1 -21l-351 -278h-211l-285 280l-1 20l274 -6z" />
<glyph unicode="&#x162;" horiz-adv-x="1262" d="M1318 1185h-424l-205 -1185h-343l206 1185h-417l48 271h1182zM633 22l-19 -67q62 -14 93.5 -57t31.5 -105q0 -121 -102.5 -186.5t-295.5 -70.5l12 188q89 12 103 84q9 54 -71 62l-42 4l43 145z" />
<glyph unicode="&#x163;" horiz-adv-x="692" d="M604 1351l-47 -269h173l-41 -234h-173l-84 -497q-7 -51 6.5 -77t67.5 -28q21 -1 86 5l-24 -244q-83 -27 -177 -25q-153 2 -229 90t-62 239l88 537h-134l40 234h134l47 269h329zM423 12l-19 -67q62 -14 93.5 -57t31.5 -105q0 -121 -102.5 -186.5t-295.5 -70.5l12 188 q89 12 103 84q9 54 -71 62l-42 4l43 145z" />
<glyph unicode="&#x164;" horiz-adv-x="1262" d="M1318 1185h-424l-205 -1185h-343l206 1185h-417l48 271h1182zM797 1714l166 132l289 6l1 -21l-351 -278h-211l-285 280l-1 20l274 -6z" />
<glyph unicode="&#x165;" horiz-adv-x="732" d="M604 1351l-47 -269h173l-41 -234h-173l-84 -497q-7 -51 6.5 -77t67.5 -28q21 -1 86 5l-24 -244q-83 -27 -177 -25q-153 2 -229 90t-62 239l88 537h-134l40 234h134l47 269h329zM1038 1601q-19 -190 -182 -363l-155 82q87 130 111 236l21 113l210 1z" />
<glyph unicode="&#x166;" horiz-adv-x="1262" d="M969 723h-155l-125 -723h-343l125 723h-212l33 191h213l47 271h-417l48 271h1182l-47 -271h-424l-47 -271h156z" />
<glyph unicode="&#x167;" horiz-adv-x="692" d="M658 507h-200l-26 -156q-7 -51 6.5 -77t67.5 -28q21 -1 86 5l-24 -244q-83 -27 -177 -25q-153 2 -229 90t-62 239l32 196h-184l33 191h182l25 150h-134l40 234h134l47 269h329l-47 -269h173l-41 -234h-173l-26 -150h202z" />
<glyph unicode="&#x168;" horiz-adv-x="1330" d="M1368 1456l-162 -950q-35 -247 -203.5 -389t-424.5 -138q-159 3 -276 68.5t-172.5 185t-37.5 272.5l162 951h344l-161 -952q-6 -50 -2 -95q5 -74 46.5 -115t117.5 -44q220 -7 265 255l162 951h342zM1233 1838q-7 -121 -73 -199t-166 -78q-36 0 -68 14t-66.5 32.5 t-65 30.5t-64.5 11q-67 -3 -91 -91l-188 10q7 117 74.5 197.5t166.5 78.5q45 -1 120.5 -39t98 -43.5t47.5 -4.5q65 3 94 91z" />
<glyph unicode="&#x169;" horiz-adv-x="1130" d="M656 118q-121 -143 -292 -139q-159 2 -239.5 111t-62.5 292l117 700h329l-119 -704q-3 -29 0 -53q7 -82 97 -85q104 -4 177 82l134 760h331l-188 -1082h-306zM1084 1529q-7 -121 -73 -199t-166 -78q-36 0 -68 14t-66.5 32.5t-65 30.5t-64.5 11q-67 -3 -91 -91l-188 10 q7 117 74.5 197.5t166.5 78.5q45 -1 120.5 -39t98 -43.5t47.5 -4.5q65 3 94 91z" />
<glyph unicode="&#x16a;" horiz-adv-x="1330" d="M1368 1456l-162 -950q-35 -247 -203.5 -389t-424.5 -138q-159 3 -276 68.5t-172.5 185t-37.5 272.5l162 951h344l-161 -952q-6 -50 -2 -95q5 -74 46.5 -115t117.5 -44q220 -7 265 255l162 951h342zM1163 1589h-676l28 173h675z" />
<glyph unicode="&#x16b;" horiz-adv-x="1130" d="M656 118q-121 -143 -292 -139q-159 2 -239.5 111t-62.5 292l117 700h329l-119 -704q-3 -29 0 -53q7 -82 97 -85q104 -4 177 82l134 760h331l-188 -1082h-306zM1014 1280h-676l28 173h675z" />
<glyph unicode="&#x16c;" horiz-adv-x="1330" d="M1368 1456l-162 -950q-35 -247 -203.5 -389t-424.5 -138q-159 3 -276 68.5t-172.5 185t-37.5 272.5l162 951h344l-161 -952q-6 -50 -2 -95q5 -74 46.5 -115t117.5 -44q220 -7 265 255l162 951h342zM1217 1850q-6 -143 -112.5 -228t-263.5 -81q-149 2 -242.5 85.5 t-95.5 223.5l222 -2q-2 -124 116 -128q63 -1 102.5 33.5t50.5 94.5z" />
<glyph unicode="&#x16d;" horiz-adv-x="1130" d="M656 118q-121 -143 -292 -139q-159 2 -239.5 111t-62.5 292l117 700h329l-119 -704q-3 -29 0 -53q7 -82 97 -85q104 -4 177 82l134 760h331l-188 -1082h-306zM1068 1540q-6 -143 -112.5 -228t-263.5 -81q-149 2 -242.5 85.5t-95.5 223.5l222 -2q-2 -124 116 -128 q63 -1 102.5 33.5t50.5 94.5z" />
<glyph unicode="&#x16e;" horiz-adv-x="1330" d="M1368 1456l-162 -950q-35 -247 -203.5 -389t-424.5 -138q-159 3 -276 68.5t-172.5 185t-37.5 272.5l162 951h344l-161 -952q-6 -50 -2 -95q5 -74 46.5 -115t117.5 -44q220 -7 265 255l162 951h342zM636 1722q-2 88 65 149.5t160 61.5q86 0 148.5 -57.5t62.5 -139.5 q0 -89 -65.5 -148t-157.5 -59q-87 0 -149 55t-64 138zM754 1723q-6 -40 14.5 -69t62.5 -29q44 0 80.5 32.5t42.5 77.5q6 39 -14.5 69.5t-62.5 30.5q-46 0 -81.5 -33.5t-41.5 -78.5z" />
<glyph unicode="&#x16f;" horiz-adv-x="1130" d="M656 118q-121 -143 -292 -139q-159 2 -239.5 111t-62.5 292l117 700h329l-119 -704q-3 -29 0 -53q7 -82 97 -85q104 -4 177 82l134 760h331l-188 -1082h-306zM487 1412q-2 88 65 149.5t160 61.5q86 0 148.5 -57.5t62.5 -139.5q0 -89 -65.5 -148t-157.5 -59q-87 0 -149 55 t-64 138zM605 1413q-6 -40 14.5 -69t62.5 -29q44 0 80.5 32.5t42.5 77.5q6 39 -14.5 69.5t-62.5 30.5q-46 0 -81.5 -33.5t-41.5 -78.5z" />
<glyph unicode="&#x170;" horiz-adv-x="1330" d="M1368 1456l-162 -950q-35 -247 -203.5 -389t-424.5 -138q-159 3 -276 68.5t-172.5 185t-37.5 272.5l162 951h344l-161 -952q-6 -50 -2 -95q5 -74 46.5 -115t117.5 -44q220 -7 265 255l162 951h342zM1132 1845h294l-310 -300h-255zM729 1845h295l-283 -300h-256z" />
<glyph unicode="&#x171;" horiz-adv-x="1130" d="M656 118q-121 -143 -292 -139q-159 2 -239.5 111t-62.5 292l117 700h329l-119 -704q-3 -29 0 -53q7 -82 97 -85q104 -4 177 82l134 760h331l-188 -1082h-306zM983 1535h294l-310 -300h-255zM580 1535h295l-283 -300h-256z" />
<glyph unicode="&#x172;" horiz-adv-x="1330" d="M1368 1456l-162 -950q-25 -175 -115.5 -296t-230.5 -180q-34 -23 -60 -51t-31 -70q-7 -52 39 -54q21 -1 69 17l27 -171q-65 -41 -154 -41q-98 0 -159.5 56t-61.5 150q0 62 27 114q-153 7 -265.5 74.5t-164.5 184.5t-34 266l162 951h344l-161 -952q-6 -50 -2 -95 q5 -74 46.5 -115t117.5 -44q220 -7 265 255l162 951h342z" />
<glyph unicode="&#x173;" horiz-adv-x="1130" d="M898 0l-67 -42q-89 -57 -97 -125q-7 -52 39 -54q21 -1 69 17l27 -171q-65 -41 -154 -41q-98 0 -159.5 56t-61.5 150q0 139 144 232l18 96q-121 -143 -292 -139q-159 2 -239.5 111t-62.5 292l117 700h329l-119 -704q-3 -29 0 -53q7 -82 97 -85q104 -4 177 82l134 760h331 l-188 -1082h-42z" />
<glyph unicode="&#x174;" horiz-adv-x="1737" d="M1189 547l304 909h346l-528 -1456h-354l-59 825l-314 -825h-354l-73 1456h333l20 -905l334 905h291zM1430 1569v-22l-250 5l-130 135l-178 -134l-262 -4l-1 24l348 273h185z" />
<glyph unicode="&#x175;" horiz-adv-x="1452" d="M967 445l217 637h322l-435 -1082h-277l-62 638l-285 -638h-279l-60 1082h309l-10 -644l277 644h229zM1248 1259v-22l-250 5l-130 135l-178 -134l-262 -4l-1 24l348 273h185z" />
<glyph unicode="&#x176;" horiz-adv-x="1257" d="M656 826l368 630h385l-628 -949l-87 -507h-348l94 540l-291 915l356 1zM1205 1569v-22l-250 5l-130 135l-178 -134l-262 -4l-1 24l348 273h185z" />
<glyph unicode="&#x177;" horiz-adv-x="1039" d="M484 476l280 606h363l-634 -1244q-71 -147 -163.5 -212.5t-220.5 -65.5q-57 0 -145 22l25 241h38q61 0 107 19.5t77 75.5l47 90l-173 1074h340zM1040 1259v-22l-250 5l-130 135l-178 -134l-262 -4l-1 24l348 273h185z" />
<glyph unicode="&#x178;" horiz-adv-x="1257" d="M656 826l368 630h385l-628 -949l-87 -507h-348l94 540l-291 915l356 1zM409 1671q-2 55 40.5 95.5t103.5 42.5q61 0 104.5 -38t45.5 -92q2 -57 -40.5 -96.5t-102.5 -41.5q-62 0 -105.5 38t-45.5 92zM913 1671q-2 57 40.5 96.5t102.5 41.5q61 0 105 -38.5t46 -91.5 q2 -55 -40.5 -95.5t-103.5 -42.5q-61 0 -104.5 38t-45.5 92z" />
<glyph unicode="&#x179;" horiz-adv-x="1222" d="M437 272l671 -2l-47 -270h-1102l35 200l839 983l-673 2l48 271h1099l-34 -195zM861 1846h367l-319 -314h-288z" />
<glyph unicode="&#x17a;" horiz-adv-x="1032" d="M424 262l474 -2l-45 -260h-894l35 202l569 618l-441 2l45 260h863l-34 -197zM700 1536h367l-319 -314h-288z" />
<glyph unicode="&#x17b;" horiz-adv-x="1222" d="M437 272l671 -2l-47 -270h-1102l35 200l839 983l-673 2l48 271h1099l-34 -195zM648 1706q-2 66 45.5 109.5t113.5 43.5q67 2 114 -38.5t49 -104.5t-43.5 -108t-114.5 -44q-67 -2 -114.5 38.5t-49.5 103.5z" />
<glyph unicode="&#x17c;" horiz-adv-x="1032" d="M424 262l474 -2l-45 -260h-894l35 202l569 618l-441 2l45 260h863l-34 -197zM487 1396q-2 66 45.5 109.5t113.5 43.5q67 2 114 -38.5t49 -104.5t-43.5 -108t-114.5 -44q-67 -2 -114.5 38.5t-49.5 103.5z" />
<glyph unicode="&#x17d;" horiz-adv-x="1222" d="M437 272l671 -2l-47 -270h-1102l35 200l839 983l-673 2l48 271h1099l-34 -195zM797 1714l166 132l289 6l1 -21l-351 -278h-211l-285 280l-1 20l274 -6z" />
<glyph unicode="&#x17e;" horiz-adv-x="1032" d="M424 262l474 -2l-45 -260h-894l35 202l569 618l-441 2l45 260h863l-34 -197zM636 1404l166 132l289 6l1 -21l-351 -278h-211l-285 280l-1 20l274 -6z" />
<glyph unicode="&#x17f;" horiz-adv-x="533" d="M-14 0l199 1170q23 184 146 288t318 102q64 0 169 -20l-42 -253q-52 13 -98 13q-63 0 -105 -33.5t-55 -96.5l-202 -1170h-330z" />
<glyph unicode="&#x180;" horiz-adv-x="1209" d="M1136 539q-31 -263 -155 -414t-326 -146q-160 4 -246 134l-41 -113h-298l267 1536h329l-107 -543q109 111 243 109q159 -2 248 -113.5t94 -303.5q1 -64 -5 -125zM809 559q8 61 9 116q0 161 -115 168q-102 4 -171 -87l-78 -432q31 -83 136 -85q161 -5 203 210l14 89z M833 1206h-710l33 191h711z" />
<glyph unicode="&#x181;" horiz-adv-x="1634" d="M348 0l214 1189q-74 -9 -119 -63t-53 -133l-2 -46l1 -47h-268q-12 74 -4 152q17 188 141.5 296.5t324.5 108.5l511 -2q245 -5 379.5 -104.5t121.5 -288.5q-15 -226 -253 -326q85 -30 132.5 -108.5t40.5 -188.5q-14 -211 -166.5 -325t-417.5 -114h-583zM798 619l-61 -349 l205 -1q93 0 157.5 44.5t79.5 129.5q26 165 -129 175zM838 849l159 -1q223 0 251 171q25 164 -172 165l-180 1z" />
<glyph unicode="&#x182;" horiz-adv-x="1251" d="M1164 1185h-614l-206 -1185h-342l252 1456h957zM512 955l158 -1q152 -4 270.5 -62t179 -162t49.5 -239q-16 -223 -193.5 -357t-440.5 -134h-532l252 1456h344zM465 685l-72 -415l157 -1q107 0 184.5 61.5t92.5 162.5q13 84 -34 135.5t-137 55.5z" />
<glyph unicode="&#x183;" horiz-adv-x="1128" d="M1049 1536l-33 -191h-464l-74 -352q106 113 243 109q105 -1 182 -52t117.5 -149.5t43.5 -219.5q1 -65 -5 -126l-3 -22q-34 -268 -160 -413.5t-321 -140.5q-159 4 -247 134l-41 -113h-298l267 1536h793zM736 674q0 165 -115 168q-102 4 -170 -86l-79 -433q31 -84 137 -86 q163 -5 203 214l13 86z" />
<glyph unicode="&#x184;" horiz-adv-x="1381" d="M732 1456l-87 -501l141 -1q157 -1 279 -58t185 -162t52 -243q-16 -219 -191 -355t-445 -136h-530l170 979l-163 164l28 160l204 153h357zM598 685l-72 -415l157 -1q107 0 184.5 61.5t92.5 162.5q13 84 -34 135.5t-137 55.5z" />
<glyph unicode="&#x185;" horiz-adv-x="1255" d="M1181 539q-31 -263 -155 -414t-326 -146q-159 4 -245 134l-41 -113h-298l184 1059l-162 164l28 160l203 153h343l-107 -542q106 110 242 108q159 -2 248 -113.5t94 -303.5q1 -64 -5 -125zM855 559q8 64 8 115q0 86 -28.5 126t-85.5 43q-101 4 -171 -86l-79 -434 q33 -82 137 -84q90 -2 143.5 64t73.5 235z" />
<glyph unicode="&#x186;" horiz-adv-x="1314" d="M368 504q-4 -126 45.5 -186.5t162.5 -64.5q270 -9 328 426q26 194 27 272q0 131 -46.5 190t-135.5 62q-121 4 -193 -59.5t-91 -179.5l-340 -2q15 153 102.5 270.5t231 182t310.5 61.5q150 -3 260.5 -67.5t172.5 -188t69 -276.5q5 -104 -17.5 -258t-82.5 -286.5t-153 -229 t-211 -145.5t-251 -46q-236 4 -375.5 141.5t-151.5 384.5z" />
<glyph unicode="&#x187;" horiz-adv-x="1457" d="M1220 496q-13 -153 -100.5 -272t-230 -183t-308.5 -61q-150 3 -260 66.5t-172 185t-70 280.5q-7 117 21.5 284t100 305t179.5 229q177 150 416 148q205 -2 339 -95q144 222 411 221q70 0 165 -18l-29 -270q-54 9 -91 11q-205 5 -236 -147l-39 -227l-334 -1 q2 134 -49.5 191.5t-157.5 60.5q-272 9 -330 -427q-26 -195 -26 -271q-5 -245 182 -252q118 -4 191.5 58t93.5 180z" />
<glyph unicode="&#x188;" horiz-adv-x="1166" d="M475 239q71 -2 112 39.5t52 107.5l308 1q-6 -118 -70.5 -212t-175 -146.5t-237.5 -49.5q-144 4 -244 73t-146 194t-30 280l2 24q20 164 96 291t197 195.5t273 67.5q146 -4 246 -65q118 184 338 183q72 0 142 -16l-21 -217q-38 8 -77 10q-81 2 -135.5 -35t-68.5 -103 l-33 -193l-302 -1q5 169 -121 176q-83 3 -135 -64.5t-70 -228.5l-2 -23q-9 -70 -9 -116q-5 -169 111 -172z" />
<glyph unicode="&#x189;" horiz-adv-x="1370" d="M77 0l252 1456l428 -1q189 0 330 -99.5t200 -271.5q51 -151 31 -326l-7 -61q-27 -196 -130 -355t-265 -249.5t-350 -92.5h-489zM625 1185l-159 -915l100 -1q176 0 282.5 136t126.5 416l2 33q7 160 -50 243t-171 87zM736 651h-710l33 191h711z" />
<glyph unicode="&#x18a;" horiz-adv-x="1643" d="M350 0l214 1189q-75 -9 -120 -61t-54 -135l-2 -46l1 -47h-268q-12 74 -4 152q17 189 142.5 297t325.5 108l449 -2q179 -1 315.5 -92.5t200 -252.5t41.5 -352l-7 -61q-27 -196 -131 -356.5t-265 -250t-348 -90.5h-490zM898 1185l-159 -915l101 -1q182 0 290 146.5 t120 439.5v51q-10 267 -222 278z" />
<glyph unicode="&#x18b;" horiz-adv-x="1250" d="M561 1q-240 7 -378 136t-122 339q12 140 91 248t221 170t317 62l192 -1l41 230h-614l48 271h955l-253 -1456zM836 685l-158 1q-107 0 -183 -56t-91 -153q-14 -87 33 -144.5t135 -61.5l192 -1z" />
<glyph unicode="&#x18c;" horiz-adv-x="1127" d="M41 543q21 174 88 305t167 194t227 60q138 -4 229 -116l72 359h-465l34 191h794l-266 -1536h-293l14 117q-121 -142 -269 -138q-154 2 -243 113t-95 307q-2 61 6 144zM368 522q-7 -81 -6 -113q0 -165 112 -168q98 -3 173 92l74 415q-33 92 -132 95q-89 2 -145.5 -75.5 t-72.5 -224.5z" />
<glyph unicode="&#x18d;" horiz-adv-x="1126" d="M-24 -375l46 260l383 1q-27 32 -65 65q-325 283 -298 596l3 22q18 158 95.5 281t203.5 189.5t278 62.5q217 -4 340 -139t105 -349l-2 -22q-23 -201 -145.5 -346t-292.5 -165l-47 -2q49 -84 168 -218l58 -70l-24 -166h-806zM734 665q0 174 -134 179q-92 3 -151.5 -69.5 t-76.5 -205.5q-6 -63 -5 -102q3 -140 91 -217l40 -8q190 -6 229 315z" />
<glyph unicode="&#x18e;" horiz-adv-x="1122" d="M180 1456h974l-253 -1456h-977l48 271h633l54 307h-536l46 261h535l60 347h-632z" />
<glyph unicode="&#x18f;" horiz-adv-x="1397" d="M607 -21q-182 2 -309.5 90t-181.5 244.5t-28 356.5l29 177l889 -1q23 156 -53.5 241.5t-232.5 89.5q-196 4 -404 -57l-22 286q120 64 366 69l99 1q196 -3 338 -86.5t208 -235t41 -343.5l-25 -171q-28 -188 -128.5 -341.5t-253.5 -237.5t-332 -82zM630 275q115 -3 201 73 t140 225l-553 -1l-8 -34q-11 -60 -1 -108q19 -90 103 -130q51 -24 118 -25z" />
<glyph unicode="&#x190;" horiz-adv-x="1260" d="M658 614q-104 0 -170 -50t-79 -157q-10 -77 38.5 -118t138.5 -41q88 -2 148.5 39t75.5 117l343 1q-8 -132 -87.5 -229t-211 -148t-285.5 -48q-162 2 -283.5 55t-177 146.5t-47.5 218.5q14 247 299 353q-79 51 -123 127t-39 172q10 192 161.5 305t391.5 119h35 q135 -3 244 -55t169 -146t60 -216l-339 1q2 142 -153 144q-92 2 -156 -39.5t-76 -117.5q-27 -165 134 -173l198 -1l-46 -260z" />
<glyph unicode="&#x191;" horiz-adv-x="1209" d="M1106 580h-547l-100 -595q-25 -200 -149 -313t-313 -111q-72 0 -167 18l44 273q52 -15 85 -15q130 -4 156 148l253 1471h947l-48 -271h-603l-59 -335h549z" />
<glyph unicode="&#x192;" horiz-adv-x="745" d="M738 848h-207l-136 -883q-24 -193 -134.5 -300t-288.5 -105q-76 2 -166 19l39 256q50 -15 84 -15q57 0 90 33t45 112l136 883h-152l37 234h151l12 97q24 180 145.5 281t314.5 99q60 0 170 -21l-44 -251q-52 13 -98 13q-131 -2 -156 -130l-13 -88h208z" />
<glyph unicode="&#x193;" horiz-adv-x="1466" d="M1205 179q-83 -96 -240 -149t-347 -50q-229 2 -368 142t-156 386q-10 146 31 338t139.5 337t241.5 221t312 74q208 -2 338 -83q145 209 403 209q82 -2 166 -18l-30 -270q-54 9 -90 11q-205 5 -236 -147l-34 -199l-324 -1q-7 114 -54.5 169t-145.5 59q-137 5 -228 -107 t-124 -326q-28 -180 -20 -280q7 -117 62 -179.5t155 -64.5q122 -2 214 59l45 227h-237l42 241h579z" />
<glyph unicode="&#x194;" horiz-adv-x="1373" d="M571 1456l142 -663l369 663h413l-686 -1070l16 -63l66 -199q50 -159 45 -262q-9 -141 -121 -222t-285 -79q-168 4 -267 81t-91 205q8 124 163 340l155 208l-303 1060zM620 -129q7 42 -1 88l-15 81q-43 -76 -57 -110t-18 -69l-3 -21q-4 -49 29 -49q52 -3 65 80z" />
<glyph unicode="&#x195;" horiz-adv-x="1720" d="M1077 -21q-214 4 -319.5 114.5t-82.5 328.5l37 261l3 46q0 109 -112 112q-87 4 -157 -64l-138 -777h-329l267 1536h329l-112 -572q122 140 280 138q144 -2 222 -89.5t81 -241.5q1 -62 -7 -118l-34 -234l-3 -60q0 -52 24.5 -84.5t72.5 -35.5q65 -3 108.5 45t56.5 136 l112 662h330l-111 -660q-60 -452 -518 -443z" />
<glyph unicode="&#x196;" horiz-adv-x="736" d="M398 365q-6 -54 15 -87t78 -35q26 -2 51 1t50 8l-1 -253q-38 -8 -77 -13t-79 -5q-87 1 -158.5 28t-120 76.5t-71.5 120.5t-14 161l198 1169h330z" />
<glyph unicode="&#x197;" horiz-adv-x="758" d="M442 0h-342l253 1456h341zM739 651h-710l33 191h711z" />
<glyph unicode="&#x198;" horiz-adv-x="1281" d="M587 538l-178 -167l-65 -371h-342l252 1456h343l-111 -635l149 191l123 176q39 55 81.5 107.5t92.5 94t109.5 66.5t133.5 24q68 -1 129.5 -18.5t124.5 -43.5l-149 -243q-17 8 -32.5 15t-34.5 8q-29 1 -54.5 -13t-48 -35.5t-41.5 -46.5t-34 -45l-191 -251l339 -807h-391z " />
<glyph unicode="&#x199;" horiz-adv-x="1096" d="M489 399l-120 -104l-51 -295h-329l204 1198q23 182 136 273t314 89q90 0 184 -17l-21 -217q-41 8 -77 10q-76 2 -132.5 -33.5t-71.5 -104.5l-92 -481l40 48l299 317h417l-460 -460l279 -622h-361z" />
<glyph unicode="&#x19a;" horiz-adv-x="758" d="M435 0h-330l266 1536h330zM752 731h-710l33 191h711z" />
<glyph unicode="&#x19b;" horiz-adv-x="1093" d="M433 1555q96 -2 163 -47.5t93 -126.5l18 -69l194 59l-37 -214l-116 -36l164 -759q14 -65 33 -90t48 -28l36 -1l-26 -258l-56 -3h-26q-265 4 -318 232l-68 401l-290 -615h-362l530 1018l-171 -48l43 213l122 35q-12 44 -44 61t-91 14l-35 -3l15 243q88 24 181 22z" />
<glyph unicode="&#x19c;" horiz-adv-x="1800" d="M1298 117q-128 -141 -300 -137q-101 0 -176 43.5t-102 124.5q-140 -174 -344 -170q-130 3 -204.5 74.5t-86.5 204.5q-8 79 1 165l174 1034h329l-176 -1038l-4 -59q0 -114 93 -119q101 -4 184 86q5 56 13 96l179 1034h329l-177 -1037l-3 -59q-2 -53 22.5 -85.5t69.5 -33.5 q96 -5 178 77l200 1138h330l-253 -1456h-289z" />
<glyph unicode="&#x19d;" horiz-adv-x="1520" d="M1297 0h-332l-347 919l-159 -934q-27 -198 -147.5 -311.5t-315.5 -113.5q-76 2 -166 19l44 273q52 -15 85 -15q130 -4 156 148l253 1471h333l347 -919l160 919h342z" />
<glyph unicode="&#x19e;" horiz-adv-x="1126" d="M478 1083l-24 -138q131 160 313 158q145 -3 218.5 -105t61.5 -283l-2 -24l-188 -1107h-330l190 1109l2 53q-7 90 -92 95q-91 4 -178 -70l-138 -771h-329l188 1082z" />
<glyph unicode="&#x19f;" horiz-adv-x="1384" d="M617 -20q-149 3 -263 69.5t-180 190.5t-77 281q-8 109 16.5 259.5t87.5 281.5t158 225t216.5 143.5t257.5 46.5q224 -5 362 -151t155 -387q6 -87 -4 -176l-6 -44q-47 -344 -251 -549q-195 -195 -472 -190zM636 253q224 -8 328 310l24 79h-540l-7 -81q-7 -144 43.5 -224 t151.5 -84zM813 1202q-120 5 -206.5 -82t-142.5 -289l539 1l5 78q3 136 -47 212t-148 80z" />
<glyph unicode="&#x1a0;" horiz-adv-x="1420" d="M604 -20q-209 4 -344 130.5t-168 347.5l-7 63q-8 118 17 267.5t89.5 279t159 222t215 141t255.5 45.5q130 -2 241 -53.5t185 -150.5q115 43 143 197l13 87l196 1q-12 -179 -79.5 -284t-192.5 -148q14 -92 16 -181l-2 -84q-16 -282 -112.5 -476.5t-259.5 -301t-365 -102.5 zM995 943q-5 123 -55 189.5t-140 69.5q-137 7 -228.5 -104t-124.5 -333q-23 -155 -19 -251q10 -254 196 -261q134 -7 227 106.5t126 332.5q22 147 18 251z" />
<glyph unicode="&#x1a1;" horiz-adv-x="1172" d="M43 545q20 163 98.5 293t203.5 198.5t279 66.5q234 -5 357 -156q42 36 66.5 87.5t37.5 142.5l178 1q-12 -138 -64 -221.5t-148 -130.5q11 -69 13 -136q2 -68 -6 -137l-3 -21q-35 -256 -192 -406.5t-388 -146.5q-146 4 -250 73.5t-151.5 194t-32.5 276.5zM365 434 q-4 -89 30 -141.5t103 -54.5q91 -3 150 70t78 224l8 111q2 92 -32 145t-102 55q-90 3 -149.5 -71t-78.5 -228z" />
<glyph unicode="&#x1a2;" horiz-adv-x="1836" d="M1545 -417h-329l255 1469l-157 -67l-131 -804q-82 -96 -236 -149.5t-345 -50.5q-228 2 -366.5 142t-155.5 384q-9 124 24 307q55 307 248 487.5t469 176.5q319 -5 480 -152l306 130h263zM638 251q128 -4 226 63l153 830q-57 60 -188 65q-155 5 -252 -103.5t-130 -327.5 l-13 -93l-8 -91q-10 -168 44 -254.5t168 -88.5z" />
<glyph unicode="&#x1a3;" horiz-adv-x="1503" d="M1230 -417h-330l197 1133l-95 -34l-73 -466q-72 -122 -193 -181t-273 -55q-143 2 -244 72.5t-146.5 195t-29.5 278.5l2 24q20 164 97 292t198 195.5t272 65.5l45 -3q179 -20 289 -143l312 125h232zM471 241q68 -4 130 46l93 498q-33 55 -109 59q-177 6 -210 -294l-3 -23 l-11 -115q-5 -168 110 -171z" />
<glyph unicode="&#x1a4;" horiz-adv-x="1649" d="M777 494l-86 -494h-343l214 1189q-74 -9 -119 -63t-53 -133l-2 -46l1 -47l-268 -1q-12 74 -4 153q17 186 141 295.5t325 109.5l545 -2q236 -1 376.5 -135.5t123.5 -349.5q-12 -143 -91 -250t-216.5 -167t-303.5 -60zM823 765l207 -2q133 3 200.5 85t52.5 199 q-8 61 -46 97t-101 40l-240 1z" />
<glyph unicode="&#x1a5;" horiz-adv-x="1128" d="M1056 539q-21 -170 -88 -301.5t-168.5 -196.5t-225.5 -62q-142 3 -230 112l-98 -507h-329l254 1498q22 171 136 257t312 84q105 -2 184 -16l-21 -217q-57 9 -77 9q-83 2 -138 -34.5t-72 -103.5l-17 -66q107 109 243 107q157 -2 246 -112.5t95 -304.5q2 -60 -6 -146z M736 674q-3 90 -31.5 128t-80.5 41q-104 4 -173 -86l-77 -429q31 -85 138 -89q175 -3 215 301q9 96 9 134z" />
<glyph unicode="&#x1a6;" horiz-adv-x="1384" d="M253 1455l21 106l341 -1l-19 -104l176 -1q244 -1 377 -116t119 -314q-11 -159 -91 -262.5t-224 -163.5l303 -931v-20l-365 3l-267 863h-190l-90 -514h-342l248 1455h3zM480 785l200 -2q82 0 142.5 40t86.5 109.5t15 134.5q-20 111 -142 117l-232 1z" />
<glyph unicode="&#x1a7;" horiz-adv-x="1254" d="M383 379q-9 -62 30 -98.5t117 -38.5q121 -5 196 52t92 178l342 1q-9 -144 -91.5 -255.5t-230 -175.5t-326.5 -62q-221 4 -353.5 111t-119.5 291q12 174 148 294.5t447 210.5q229 66 251 186q10 62 -34.5 100t-126.5 41q-91 2 -153 -50t-74 -140l-340 -1q10 192 158.5 317 t376.5 136l42 1q145 -2 265 -56t178 -143t51 -203q-8 -143 -112 -251t-325 -187l-219 -74q-171 -64 -189 -184z" />
<glyph unicode="&#x1a8;" horiz-adv-x="1028" d="M331 296q-8 -42 20 -67.5t86 -28.5q75 -2 125.5 36t65.5 110l308 2q-3 -106 -70 -190.5t-186.5 -132.5t-242.5 -46q-187 4 -307 92.5t-115 234.5q4 127 91.5 210t285.5 129l119 25q145 33 160 115q8 44 -21 71t-72 27q-130 4 -154 -133l-329 -1q5 112 71.5 192.5t178 122 t242.5 38.5q178 -5 289 -97t106 -237q-9 -250 -392 -339l-104 -22q-140 -34 -155 -111z" />
<glyph unicode="&#x1a9;" horiz-adv-x="1130" d="M863 733l-383 -462l541 -2l-47 -269h-1008l29 166l510 588l-310 567l24 135h996l-48 -271h-537l233 -438v-14z" />
<glyph unicode="&#x1aa;" horiz-adv-x="1114" d="M139 1149q8 116 75 218t173 159.5t222 54.5q109 -3 199 -61.5t135 -155.5t35 -207l-198 -1173q-4 -29 -2 -57q4 -95 95 -98l100 7l-26 -257q-75 -17 -148 -14q-178 4 -272 119.5t-75 300.5l137 762q-44 -9 -86 -9q-104 0 -190 55t-133.5 151.5t-40.5 204.5zM531 1008 q65 0 110 44.5t54 113.5q7 63 -20.5 103t-84.5 42q-65 0 -112 -45t-55 -115q-9 -62 21.5 -102.5t86.5 -40.5z" />
<glyph unicode="&#x1ab;" horiz-adv-x="692" d="M689 848h-173l-84 -497l-2 -45q3 -57 77 -60q21 -1 84 5l-38 -300q-22 -177 -123.5 -273.5t-266.5 -96.5q-70 1 -143 17l21 217q60 -9 78 -9q82 -2 137.5 34.5t73.5 103.5l8 40q-127 15 -189 100.5t-49 226.5l88 537h-134l40 234h134l47 269h329l-47 -269h173z" />
<glyph unicode="&#x1ac;" horiz-adv-x="1481" d="M1537 1185h-424l-206 -1185h-343l206 1185l-205 2q-77 -2 -127 -55t-59 -139l-2 -46l1 -47h-268q-12 73 -4 150q18 195 145.5 302t325.5 105l1008 -1z" />
<glyph unicode="&#x1ad;" horiz-adv-x="766" d="M245 1222q20 179 134 271.5t316 90.5q98 -2 186 -17l-21 -217q-41 8 -78 10q-81 2 -135.5 -35t-68.5 -103l-23 -140h173l-41 -234h-173l-84 -497q-7 -51 6.5 -76.5t67.5 -27.5h43l43 4l-24 -244q-83 -27 -177 -25q-150 2 -226.5 88t-64.5 241l88 537h-134l40 234h134z " />
<glyph unicode="&#x1ae;" horiz-adv-x="1262" d="M838 -422q-77 -17 -148 -13q-178 4 -270.5 120.5t-71.5 299.5l204 1200h-417l48 271h1182l-47 -271h-424l-206 -1202l-4 -47q-4 -93 68 -95q35 -3 99 10z" />
<glyph unicode="&#x1af;" horiz-adv-x="1440" d="M1377 1456l-43 -236q104 11 159 77t72 240l198 1q-20 -239 -129.5 -354.5t-317.5 -122.5l-101 -556q-36 -249 -204.5 -389t-424.5 -136q-118 2 -215 40t-162 108q-135 143 -108 377l162 951h344l-161 -952q-6 -50 -2 -95q10 -155 165 -160q219 -7 265 261l161 946h342z " />
<glyph unicode="&#x1b0;" horiz-adv-x="1204" d="M1411 1182q-11 -174 -91.5 -267.5t-233.5 -117.5l-146 -797h-306l21 118q-121 -142 -292 -140q-158 2 -238 112t-62 292l116 700h329l-120 -704q-3 -29 0 -53q7 -82 97 -85q105 -4 178 82l134 760h331l-33 -137q61 29 94 81.5t46 154.5z" />
<glyph unicode="&#x1b1;" horiz-adv-x="1335" d="M728 1178q-154 -107 -204 -391q-39 -220 -37 -333q0 -194 126 -201q89 -4 148 72.5t84 223.5l39 283l7 98q7 184 -72 247l45 279h506l-49 -271l-219 -1q130 -203 150 -381q7 -68 -1 -142l-8 -61q-38 -283 -220.5 -455t-434.5 -166q-157 2 -275 82t-173.5 220t-36.5 305 l9 68q45 336 335 536l-221 -5l48 271h499z" />
<glyph unicode="&#x1b2;" horiz-adv-x="1329" d="M589 -21q-118 2 -215.5 40t-163.5 109q-135 145 -108 377l162 951h344l-161 -952q-6 -50 -3 -95q5 -74 46.5 -115.5t118.5 -44.5q222 -7 266 262l90 558l3 40q0 83 -84 86q-32 1 -98 -7l28 271q74 16 148 14q178 -4 269.5 -119t72.5 -301l-90 -561q-25 -158 -108.5 -275 t-217.5 -179t-299 -59z" />
<glyph unicode="&#x1b3;" horiz-adv-x="1401" d="M659 832l224 391q155 259 372 257q119 0 273 -62l-150 -243q-47 22 -66 24q-98 5 -196 -173l-30 -52l-302 -464l-89 -510h-347l94 542l-293 913l359 1z" />
<glyph unicode="&#x1b4;" horiz-adv-x="1202" d="M481 479l-3 -18l225 497l33 78q67 159 144 229t180 68q123 -3 253 -99l-93 -197q-44 26 -73 26q-67 2 -121 -116l-29 -67l-517 -1069q-66 -131 -157 -191t-214 -60q-57 0 -145 22l25 241h49q114 3 162 79l58 106l-173 1074l332 2z" />
<glyph unicode="&#x1b5;" horiz-adv-x="1222" d="M917 844l230 -2l-36 -191l-348 -1l-326 -378l671 -2l-47 -270h-1102l35 200l387 449l-226 2l36 191l346 1l297 340l-674 2l48 271h1099l-34 -195z" />
<glyph unicode="&#x1b6;" horiz-adv-x="1030" d="M779 654l132 -2l-39 -191l-260 -2l-189 -197l473 -2l-45 -260h-893l35 203l237 256l-135 2l38 191l267 2l161 166l-441 2l45 260h864l-34 -197z" />
<glyph unicode="&#x1b7;" horiz-adv-x="1316" d="M823 836q188 -42 283 -209t71 -409q-18 -171 -93.5 -310.5t-199.5 -226.5q-173 -121 -399 -116q-234 4 -376 141.5t-148 370.5l342 -1q-4 -239 204 -243q137 -3 221.5 93.5t108.5 290.5q12 113 9 165q-8 109 -54 159t-128 53l-296 1l34 196l402 392l-653 2l47 271h1091 l-33 -190z" />
<glyph unicode="&#x1b8;" horiz-adv-x="1316" d="M1152 76q-15 -151 -103.5 -268.5t-232 -181.5t-307.5 -61q-174 2 -296 81.5t-178 225t-36 332.5q26 256 177.5 427t397.5 214l-276 450l29 161h1083l-47 -271h-664l280 -422l-30 -168l-268 2q-162 0 -248.5 -119.5t-97.5 -357.5q-7 -145 42 -214.5t152 -73.5 q116 -4 189.5 59t94.5 183z" />
<glyph unicode="&#x1b9;" horiz-adv-x="1160" d="M1111 1082l-46 -260h-610l272 -336l-32 -180l-109 1q-134 0 -214 -70.5t-96 -204.5q-9 -73 36.5 -120.5t128.5 -49.5q83 0 138 46.5t68 119.5l331 2q-10 -131 -84 -228t-199.5 -149t-271.5 -49q-145 2 -260.5 57.5t-172 149t-47.5 214.5q14 191 126 313t306 163l-268 379 l36 202h968z" />
<glyph unicode="&#x1ba;" horiz-adv-x="1030" d="M250 -120q-8 -42 20 -67.5t87 -28.5q75 -2 124.5 36t66.5 110l308 2q-4 -109 -73 -193.5t-186.5 -131t-239.5 -44.5q-84 1 -166 24.5t-141 67.5q-121 89 -116 235q5 139 111.5 227.5t367.5 132.5q166 28 183 118q8 42 -17 67.5t-70 27.5l-272 2l36 201l188 154l-320 2 l46 260h858l-34 -194l-307 -235q96 -42 149.5 -122t49.5 -178q-9 -255 -407 -343l-58 -12q-174 -34 -188 -118z" />
<glyph unicode="&#x1bb;" horiz-adv-x="1233" d="M969 0h-988l41 233l464 416l-232 2l36 191l377 -1q68 84 90.5 137.5t18.5 122.5q-3 55 -33.5 87t-82.5 33q-77 2 -131.5 -62.5t-67.5 -169.5l-328 -2q8 137 84.5 251t203 177.5t270.5 62.5q136 -3 237.5 -54t149 -144.5t35.5 -217.5q-10 -107 -89 -224l166 4l-35 -191 h-272l-177 -161l-243 -228l552 -2z" />
<glyph unicode="&#x1bc;" horiz-adv-x="1270" d="M240 717l137 477h-218l46 262h1079l-46 -262h-556l-95 -292q80 54 200 54q191 2 293 -131t82 -349q-12 -144 -87.5 -259.5t-199.5 -178.5t-268 -59q-128 3 -232.5 59.5t-162 156t-55.5 220.5h329q2 -82 38.5 -127t100.5 -47q68 -3 117.5 41.5t73.5 124.5q28 95 20 177 q-7 68 -45 104.5t-105 36.5q-109 2 -179 -74z" />
<glyph unicode="&#x1bd;" horiz-adv-x="1149" d="M145 472l110 358h-158l44 252h949l-44 -252l-485 1l-67 -173q89 48 209 46q161 0 253.5 -94t84.5 -255q-7 -122 -73.5 -206t-182 -127t-258.5 -40q-209 3 -331 93.5t-124 250.5l327 16q10 -98 145 -98q65 0 114 33.5t60 101.5q8 54 -24 86t-92 32q-87 2 -140 -38z" />
<glyph unicode="&#x1be;" horiz-adv-x="1028" d="M828 848l-165 1l-6 -28q-14 -68 13 -126t101 -123.5t106.5 -123t30.5 -126.5q-3 -100 -63.5 -176.5t-177.5 -122.5t-253 -43q-117 1 -216.5 48.5t-156 130.5t-57.5 190l306 -1q0 -143 142 -143q63 0 107 29.5t54 76.5q9 40 -17 84.5t-107 132t-112.5 158t-20.5 141.5 l4 24l-147 -3l41 234h134l47 269h329l-47 -269h173z" />
<glyph unicode="&#x1bf;" horiz-adv-x="1128" d="M481 1083l-17 -103q111 126 257 122q157 -2 246.5 -113.5t95.5 -307.5q2 -64 -4 -125l-6 -46q-37 -252 -224 -424t-533 -258l-50 -244h-329l260 1498zM624 842q-105 4 -173 -85l-128 -679q170 60 274.5 178t127.5 280l2 20q9 70 9 114q-3 91 -31 130t-81 42z" />
<glyph unicode="&#x1c0;" horiz-adv-x="456" d="M209 0h-180l253 1456h180z" />
<glyph unicode="&#x1c1;" horiz-adv-x="718" d="M209 0h-180l253 1456h180zM471 0h-180l253 1456h180z" />
<glyph unicode="&#x1c2;" horiz-adv-x="758" d="M358 0h-180l253 1456h180zM780 891h-710l33 191h711zM703 449h-710l33 191h711z" />
<glyph unicode="&#x1c3;" horiz-adv-x="559" d="M395 461h-267l131 995h350zM23 145q-2 73 51 124.5t131 51.5q77 0 128 -47t53 -117q2 -75 -51 -125.5t-131 -50.5q-75 0 -127 46.5t-54 117.5z" />
<glyph unicode="&#x1c4;" horiz-adv-x="2379" d="M2 0l252 1456l428 -1q189 0 330 -99.5t200 -271.5q51 -151 31 -326l-7 -61q-27 -196 -130 -355t-265 -249.5t-350 -92.5h-489zM550 1185l-159 -915l100 -1q176 0 282.5 136t126.5 416l2 33q7 160 -50 243t-171 87zM1594 272l671 -2l-47 -270h-1102l35 200l839 983l-673 2 l48 271h1099l-34 -195zM1954 1739l166 132l289 6l1 -21l-351 -278h-211l-285 280l-1 20l274 -6z" />
<glyph unicode="&#x1c5;" horiz-adv-x="2253" d="M1243 758l-5 -44q-23 -199 -126.5 -363t-265.5 -256.5t-351 -94.5h-493l252 1456l429 -1q181 0 318.5 -92.5t200.5 -253t41 -351.5zM1644 262l474 -2l-46 -260h-894l36 202l568 618l-441 2l46 260h863l-34 -197zM550 1185l-159 -915l100 -1q183 0 291 146t120 439v49 q-9 274 -221 281zM1865 1394l144 133l288 4v-23l-314 -256h-233l-256 259v21l274 -4z" />
<glyph unicode="&#x1c6;" horiz-adv-x="2068" d="M38 543q35 264 162 414t323 145q139 -4 229 -116l109 574h330l-270 -1560h-282l9 123q-123 -148 -276 -144q-101 1 -176.5 52t-117.5 149t-46 218q-3 63 4 123zM1460 262l473 -2l-45 -260h-894l35 202l569 618l-441 2l45 260h864l-34 -197zM363 410q0 -166 110 -169 q99 -4 174 92l74 415q-33 92 -132 95q-178 3 -218 -300q-9 -96 -8 -133zM1681 1394l144 133l288 4v-23l-314 -256h-233l-257 259v21l275 -4z" />
<glyph unicode="&#x1c7;" horiz-adv-x="2213" d="M391 270h593l-47 -270h-935l252 1456h343zM1907 1456h342l-170 -999q-31 -219 -186.5 -350.5t-365.5 -127.5q-211 4 -326.5 124t-109.5 338l345 -1v-69q4 -119 115 -122q150 -3 188 219z" />
<glyph unicode="&#x1c8;" horiz-adv-x="1633" d="M391 270h593l-47 -270h-935l252 1456h343zM1615 1082l-189 -1116q-24 -193 -146 -300.5t-310 -105.5q-75 2 -165 19l27 256q55 -12 91 -12q145 -2 172 154l190 1105h330zM1310 1355q-2 74 52 122t129 48q76 2 128 -42.5t54 -115.5t-49.5 -120t-131.5 -51q-76 0 -128 44.5 t-54 114.5z" />
<glyph unicode="&#x1c9;" horiz-adv-x="1102" d="M334 0h-330l266 1536h330zM1084 1082l-189 -1116q-24 -193 -146 -300.5t-310 -105.5q-75 2 -165 19l27 256q55 -12 91 -12q145 -2 172 154l190 1105h330zM779 1355q-2 74 52 122t129 48q76 2 128 -42.5t54 -115.5t-49.5 -120t-131.5 -51q-76 0 -128 44.5t-54 114.5z" />
<glyph unicode="&#x1ca;" horiz-adv-x="2531" d="M1183 0h-331l-348 919l-160 -919h-342l252 1456h334l347 -919l159 919h342zM2225 1456h342l-170 -999q-31 -219 -186.5 -350.5t-365.5 -127.5q-211 4 -326.5 124t-109.5 338l345 -1v-69q4 -119 115 -122q150 -3 188 219z" />
<glyph unicode="&#x1cb;" horiz-adv-x="1951" d="M1183 0h-331l-348 919l-160 -919h-342l252 1456h334l347 -919l159 919h342zM1933 1082l-189 -1116q-24 -193 -146 -300.5t-310 -105.5q-75 2 -165 19l27 256q55 -12 91 -12q145 -2 172 154l190 1105h330zM1628 1355q-2 74 52 122t129 48q76 2 128 -42.5t54 -115.5 t-49.5 -120t-131.5 -51q-76 0 -128 44.5t-54 114.5z" />
<glyph unicode="&#x1cc;" horiz-adv-x="1676" d="M475 1083l-23 -130q130 154 313 150q150 -3 223.5 -111.5t53.5 -310.5l-114 -681h-330l115 683q4 35 2 64q-7 95 -112 95q-87 2 -159 -77l-135 -765h-329l188 1082zM1658 1082l-189 -1116q-24 -193 -146 -300.5t-310 -105.5q-75 2 -165 19l27 256q55 -12 91 -12 q145 -2 172 154l190 1105h330zM1353 1355q-2 74 52 122t129 48q76 2 128 -42.5t54 -115.5t-49.5 -120t-131.5 -51q-76 0 -128 44.5t-54 114.5z" />
<glyph unicode="&#x1cd;" horiz-adv-x="1363" d="M857 272h-465l-129 -272h-377l771 1456h322l269 -1456h-356zM520 543h302l-64 502zM858 1714l166 132l289 6l1 -21l-351 -278h-211l-285 280l-1 20l274 -6z" />
<glyph unicode="&#x1ce;" horiz-adv-x="1064" d="M597 0q-14 39 -14 98q-111 -122 -265 -118q-141 2 -234 94t-87 223q5 176 147 270.5t388 94.5l110 -2l12 61l4 53q-4 91 -91 94q-108 2 -133 -119l-330 -1q5 109 71 189.5t179.5 124t241.5 40.5q123 -3 215.5 -51.5t138.5 -135t35 -199.5l-81 -509l-5 -62q-4 -74 19 -126 l-1 -19h-320zM409 218q101 -4 177 89l33 174l-85 1q-79 -2 -136 -46.5t-67 -121.5q-5 -41 15.5 -67.5t62.5 -28.5zM644 1404l166 132l289 6l1 -21l-351 -278h-211l-285 280l-1 20l274 -6z" />
<glyph unicode="&#x1cf;" horiz-adv-x="609" d="M367 0h-342l253 1456h341zM480 1714l166 132l289 6l1 -21l-351 -278h-211l-285 280l-1 20l274 -6z" />
<glyph unicode="&#x1d0;" horiz-adv-x="576" d="M345 0h-331l188 1082h331zM408 1384l166 132l289 6l1 -21l-351 -278h-211l-285 280l-1 20l274 -6z" />
<glyph unicode="&#x1d1;" horiz-adv-x="1382" d="M603 -20q-227 5 -364 150t-155 388q-10 120 19 282.5t103 299.5t185 228q186 153 428 148q149 -3 260.5 -68.5t178.5 -188.5t78 -280q8 -111 -13.5 -252.5t-79 -270t-148.5 -226.5t-214.5 -155.5t-277.5 -54.5zM993 942q-10 250 -194 260q-142 7 -235 -112.5t-123 -352.5 q-19 -144 -14 -223q10 -254 196 -261q122 -6 210 87.5t127 272t33 329.5zM863 1714l166 132l289 6l1 -21l-351 -278h-211l-285 280l-1 20l274 -6z" />
<glyph unicode="&#x1d2;" horiz-adv-x="1126" d="M618 1102q145 -2 251 -72.5t155.5 -196.5t35.5 -280l-2 -22q-28 -249 -185 -402t-388 -149q-144 2 -249 71.5t-155.5 194.5t-36.5 278q25 266 182.5 424t391.5 154zM373 524l-3 -59q-14 -223 136 -227q194 -6 225 315l4 91q2 90 -33.5 143.5t-104.5 55.5 q-91 3 -149.5 -74.5t-74.5 -244.5zM673 1404l166 132l289 6l1 -21l-351 -278h-211l-285 280l-1 20l274 -6z" />
<glyph unicode="&#x1d3;" horiz-adv-x="1330" d="M1368 1456l-162 -950q-35 -247 -203.5 -389t-424.5 -138q-159 3 -276 68.5t-172.5 185t-37.5 272.5l162 951h344l-161 -952q-6 -50 -2 -95q5 -74 46.5 -115t117.5 -44q220 -7 265 255l162 951h342zM834 1714l166 132l289 6l1 -21l-351 -278h-211l-285 280l-1 20l274 -6z " />
<glyph unicode="&#x1d4;" horiz-adv-x="1130" d="M656 118q-121 -143 -292 -139q-159 2 -239.5 111t-62.5 292l117 700h329l-119 -704q-3 -29 0 -53q7 -82 97 -85q104 -4 177 82l134 760h331l-188 -1082h-306zM685 1404l166 132l289 6l1 -21l-351 -278h-211l-285 280l-1 20l274 -6z" />
<glyph unicode="&#x1d5;" horiz-adv-x="1330" d="M1368 1456l-162 -950q-35 -247 -203.5 -389t-424.5 -138q-159 3 -276 68.5t-172.5 185t-37.5 272.5l162 951h344l-161 -952q-6 -50 -2 -95q5 -74 46.5 -115t117.5 -44q220 -7 265 255l162 951h342zM1214 1884h-675l30 173h676zM497 1669q-2 51 37.5 86.5t99.5 37.5 q59 2 101 -31.5t44 -85.5q2 -54 -37.5 -88.5t-99.5 -36.5q-59 -2 -101 31.5t-44 86.5zM901 1669q-2 51 37.5 86.5t99.5 37.5q54 2 98.5 -31t46.5 -86q2 -51 -36.5 -87t-99.5 -38q-58 -2 -101 31t-45 87z" />
<glyph unicode="&#x1d6;" horiz-adv-x="1130" d="M656 118q-121 -143 -292 -139q-159 2 -239.5 111t-62.5 292l117 700h329l-119 -704q-3 -29 0 -53q7 -82 97 -85q104 -4 177 82l134 760h331l-188 -1082h-306zM291 1360q-1 30 10.5 55t31.5 43.5t46.5 29t54.5 11.5t54.5 -8t47.5 -26.5t34.5 -41.5t14.5 -53 q1 -30 -10.5 -55.5t-32 -44t-47 -29t-54.5 -10.5q-27 0 -53.5 9t-47.5 26t-34.5 41t-14.5 53zM794 1360q-1 30 11 55t32 43.5t46 29t55 11.5q28 1 54.5 -8t47.5 -26.5t34 -41.5t14 -53q1 -30 -10.5 -55.5t-31.5 -44t-46.5 -29t-54.5 -10.5t-54.5 9t-47.5 26t-34.5 41 t-14.5 53zM1070 1599h-675l30 173h676z" />
<glyph unicode="&#x1d7;" horiz-adv-x="1330" d="M1368 1456l-162 -950q-35 -247 -203.5 -389t-424.5 -138q-159 3 -276 68.5t-172.5 185t-37.5 272.5l162 951h344l-161 -952q-6 -50 -2 -95q5 -74 46.5 -115t117.5 -44q220 -7 265 255l162 951h342zM920 1992l240 -1l-206 -182h-191zM497 1669q-2 51 37.5 86.5t99.5 37.5 q59 2 101 -31.5t44 -85.5q2 -54 -37.5 -88.5t-99.5 -36.5q-59 -2 -101 31.5t-44 86.5zM901 1669q-2 51 37.5 86.5t99.5 37.5q54 2 98.5 -31t46.5 -86q2 -51 -36.5 -87t-99.5 -38q-58 -2 -101 31t-45 87z" />
<glyph unicode="&#x1d8;" horiz-adv-x="1130" d="M656 118q-121 -143 -292 -139q-159 2 -239.5 111t-62.5 292l117 700h329l-119 -704q-3 -29 0 -53q7 -82 97 -85q104 -4 177 82l134 760h331l-188 -1082h-306zM292 1360q-2 56 40 96.5t103 42.5q60 2 104.5 -37t46.5 -92q2 -59 -42 -99t-102 -40q-60 0 -104 37.5t-46 91.5 zM795 1360q-2 55 40.5 96t103.5 43q59 2 103.5 -36t46.5 -93q2 -58 -41 -98.5t-102 -40.5q-61 0 -105 37.5t-46 91.5zM809 1856l369 -1l-324 -313h-290z" />
<glyph unicode="&#x1d9;" horiz-adv-x="1330" d="M1368 1456l-162 -950q-35 -247 -203.5 -389t-424.5 -138q-159 3 -276 68.5t-172.5 185t-37.5 272.5l162 951h344l-161 -952q-6 -50 -2 -95q5 -74 46.5 -115t117.5 -44q220 -7 265 255l162 951h342zM497 1669q-2 51 37.5 86.5t99.5 37.5q57 2 100 -31t45 -86 q2 -55 -39.5 -90t-97.5 -35q-56 -2 -99.5 31.5t-45.5 86.5zM901 1669q-2 51 37.5 86.5t99.5 37.5q54 2 98.5 -31t46.5 -86q2 -51 -36.5 -87t-99.5 -38q-58 -2 -101 31t-45 87zM878 1960l140 107l290 5v-24l-310 -229h-232l-262 231v23l274 -5z" />
<glyph unicode="&#x1da;" horiz-adv-x="1130" d="M656 118q-121 -143 -292 -139q-159 2 -239.5 111t-62.5 292l117 700h329l-119 -704q-3 -29 0 -53q7 -82 97 -85q104 -4 177 82l134 760h331l-188 -1082h-306zM292 1360q-2 56 40 96.5t103 42.5q60 2 104.5 -37t46.5 -92q2 -59 -42 -99t-102 -40q-60 0 -104 37.5t-46 91.5 zM795 1360q-2 55 40.5 96t103.5 43q59 2 103.5 -36t46.5 -93q2 -58 -41 -98.5t-102 -40.5q-61 0 -105 37.5t-46 91.5zM742 1724l165 132l290 6v-21l-351 -278h-210l-286 280l-1 20l274 -6z" />
<glyph unicode="&#x1db;" horiz-adv-x="1330" d="M1368 1456l-162 -950q-35 -247 -203.5 -389t-424.5 -138q-159 3 -276 68.5t-172.5 185t-37.5 272.5l162 951h344l-161 -952q-6 -50 -2 -95q5 -74 46.5 -115t117.5 -44q220 -7 265 255l162 951h342zM949 1808l-144 1l-147 181l200 3zM497 1669q-2 51 37.5 86.5t99.5 37.5 q59 2 101 -31.5t44 -85.5q2 -54 -37.5 -88.5t-99.5 -36.5q-59 -2 -101 31.5t-44 86.5zM901 1669q-2 51 37.5 86.5t99.5 37.5q54 2 98.5 -31t46.5 -86q2 -51 -36.5 -87t-99.5 -38q-58 -2 -101 31t-45 87z" />
<glyph unicode="&#x1dc;" horiz-adv-x="1130" d="M656 118q-121 -143 -292 -139q-159 2 -239.5 111t-62.5 292l117 700h329l-119 -704q-3 -29 0 -53q7 -82 97 -85q104 -4 177 82l134 760h331l-188 -1082h-306zM292 1360q-2 56 40 96.5t103 42.5q60 2 104.5 -37t46.5 -92q2 -59 -42 -99t-102 -40q-60 0 -104 37.5t-46 91.5 zM795 1360q-2 55 40.5 96t103.5 43q59 2 103.5 -36t46.5 -93q2 -58 -41 -98.5t-102 -40.5q-61 0 -105 37.5t-46 91.5zM873 1543l-248 -1l-225 312l331 2z" />
<glyph unicode="&#x1dd;" horiz-adv-x="1061" d="M576 1102q138 -2 243.5 -71t156 -188t36.5 -262l-1 -12q-28 -277 -182 -436t-380 -153q-202 6 -309.5 143t-82.5 348l27 177l601 -1q1 82 -40 135.5t-127 57.5q-81 3 -153 -16.5t-146 -48.5l-62 209q71 58 180.5 89t238.5 29zM471 239q63 -3 110 42.5t85 156.5h-287 l-7 -30q-5 -31 -4 -60q4 -106 103 -109z" />
<glyph unicode="&#x1de;" horiz-adv-x="1363" d="M857 272h-465l-129 -272h-377l771 1456h322l269 -1456h-356zM520 543h302l-64 502zM1238 1884h-675l30 173h676zM521 1669q-2 51 37.5 86.5t99.5 37.5q59 2 101 -31.5t44 -85.5q2 -54 -37.5 -88.5t-99.5 -36.5q-59 -2 -101 31.5t-44 86.5zM925 1669q-2 51 37.5 86.5 t99.5 37.5q54 2 98.5 -31t46.5 -86q2 -51 -36.5 -87t-99.5 -38q-58 -2 -101 31t-45 87z" />
<glyph unicode="&#x1df;" horiz-adv-x="1064" d="M597 0q-14 39 -14 98q-111 -122 -265 -118q-141 2 -234 94t-87 223q5 176 147 270.5t388 94.5l110 -2l12 61l4 53q-4 91 -91 94q-108 2 -133 -119l-330 -1q5 109 71 189.5t179.5 124t241.5 40.5q123 -3 215.5 -51.5t138.5 -135t35 -199.5l-81 -509l-5 -62q-4 -74 19 -126 l-1 -19h-320zM409 218q101 -4 177 89l33 174l-85 1q-79 -2 -136 -46.5t-67 -121.5q-5 -41 15.5 -67.5t62.5 -28.5zM250 1360q-1 30 10.5 55t31.5 43.5t46.5 29t54.5 11.5t54.5 -8t47.5 -26.5t34.5 -41.5t14.5 -53q1 -30 -10.5 -55.5t-32 -44t-47 -29t-54.5 -10.5 q-27 0 -53.5 9t-47.5 26t-34.5 41t-14.5 53zM753 1360q-1 30 11 55t32 43.5t46 29t55 11.5q28 1 54.5 -8t47.5 -26.5t34 -41.5t14 -53q1 -30 -10.5 -55.5t-31.5 -44t-46.5 -29t-54.5 -10.5t-54.5 9t-47.5 26t-34.5 41t-14.5 53zM1029 1599h-675l30 173h676z" />
<glyph unicode="&#x1e0;" horiz-adv-x="1363" d="M857 272h-465l-129 -272h-377l771 1456h322l269 -1456h-356zM520 543h302l-64 502zM725 1677q-2 52 37 87t100 37q55 2 98.5 -31.5t45.5 -85.5t-36.5 -87.5t-99.5 -37.5q-59 -2 -101 31.5t-44 86.5zM1237 1882h-675l31 173h675z" />
<glyph unicode="&#x1e1;" horiz-adv-x="1064" d="M597 0q-14 39 -14 98q-111 -122 -265 -118q-141 2 -234 94t-87 223q5 176 147 270.5t388 94.5l110 -2l12 61l4 53q-4 91 -91 94q-108 2 -133 -119l-330 -1q5 109 71 189.5t179.5 124t241.5 40.5q123 -3 215.5 -51.5t138.5 -135t35 -199.5l-81 -509l-5 -62q-4 -74 19 -126 l-1 -19h-320zM409 218q101 -4 177 89l33 174l-85 1q-79 -2 -136 -46.5t-67 -121.5q-5 -41 15.5 -67.5t62.5 -28.5zM495 1396q-1 34 11.5 62t34 48t51 31t62.5 12q32 0 61 -9.5t51.5 -28t36 -45.5t14.5 -60q1 -34 -11.5 -62t-34 -48t-50.5 -31t-62 -11q-32 -1 -61.5 8.5 t-52 28t-36 45.5t-14.5 60zM1039 1657h-675l30 173h676z" />
<glyph unicode="&#x1e2;" horiz-adv-x="1878" d="M1693 0h-872l44 329h-362l-205 -329h-395l965 1456h1018l-46 -264h-533l-42 -316h442l-46 -264h-431l-46 -348h555zM668 601l234 -2l61 468zM1416 1601h-676l28 173h675z" />
<glyph unicode="&#x1e3;" horiz-adv-x="1688" d="M1117 -20q-237 5 -348 133q-165 -137 -383 -133q-172 2 -276 92t-97 245q7 165 150 252t395 87l141 -1l10 49q4 27 2 52q-7 83 -93 86q-61 2 -103.5 -25.5t-53.5 -76.5l-328 18q5 104 67.5 181t181.5 122t258 42q89 0 167 -23.5t129 -67.5q149 93 323 89 q130 -4 221.5 -68t131.5 -174t25 -247l-27 -177h-613q-8 -91 38 -140.5t138 -52.5q78 -2 148 17.5t140 48.5l63 -209q-69 -57 -175 -88t-232 -31zM457 211q76 -2 179 63l36 177l-112 1q-87 -3 -146 -40.5t-71 -99.5q-8 -48 23.5 -74.5t90.5 -26.5zM1235 844 q-149 6 -217 -199h298q11 55 11 86q0 50 -23.5 80t-68.5 33zM1293 1281h-676l28 173h675z" />
<glyph unicode="&#x1e4;" horiz-adv-x="1441" d="M1252 482h173l-27 -155l-173 -1l-17 -147q-81 -95 -238 -148t-348 -50q-183 2 -309 92t-180 251t-29 363l8 60q46 339 238.5 537t471.5 193q244 -4 375 -131t146 -367l-328 1q-7 117 -57.5 171t-143.5 57q-138 5 -228 -108.5t-123 -324.5q-28 -180 -20 -280 q15 -241 217 -244q117 -1 220 55l8 26l-203 -5l30 155l190 -3l19 61l-243 -3l43 241h579z" />
<glyph unicode="&#x1e5;" horiz-adv-x="1153" d="M1132 1082l-198 -1137h93l-25 -141h-90q-72 -174 -222 -263t-356 -85q-224 4 -387 133l131 186q96 -73 253 -73q135 -2 231 106l-652 -4l26 141l669 -1l37 146q-107 -114 -246 -110q-158 2 -253 115.5t-105 304.5q-4 61 4 147q21 183 107 323q147 239 399 233 q164 -4 245 -117l35 97zM369 520l-4 -55q-7 -221 129 -225q94 -4 171 73l84 456q-41 72 -135 74q-95 2 -160 -81t-82 -221z" />
<glyph unicode="&#x1e6;" horiz-adv-x="1364" d="M1209 179q-82 -96 -239 -148.5t-348 -49.5q-183 2 -309 92t-180 251t-29 363l8 60q46 339 238.5 537t471.5 193q244 -4 375 -131t146 -367l-328 1q-7 117 -57.5 171t-143.5 57q-138 5 -228 -108.5t-123 -324.5q-28 -180 -20 -280q15 -241 217 -244q122 -2 214 59l45 227 h-237l42 241h579zM868 1714l166 132l289 6l1 -21l-351 -278h-211l-285 280l-1 20l274 -6z" />
<glyph unicode="&#x1e7;" horiz-adv-x="1153" d="M43 543q19 163 89.5 295t176.5 199.5t240 65.5q163 -4 246 -117l35 97l304 -1l-177 -1040q-30 -220 -193 -347t-406 -121q-108 2 -209 43t-173 124l156 194q87 -110 226 -113q219 -4 278 233l8 33q-112 -110 -247 -108q-104 1 -183 52.5t-124 148.5t-51 216q-4 60 4 146z M368 436q0 -92 33 -143t96 -53q93 -4 169 72l85 459q-40 70 -134 72q-96 2 -161 -81.5t-82 -219.5q-6 -63 -6 -106zM663 1404l166 132l289 6l1 -21l-351 -278h-211l-285 280l-1 20l274 -6z" />
<glyph unicode="&#x1e8;" horiz-adv-x="1281" d="M587 538l-178 -167l-65 -371h-342l252 1456h343l-109 -623l142 173l378 450h444l-604 -659l335 -797h-391zM754 1714l166 132l289 6l1 -21l-351 -278h-211l-285 280l-1 20l274 -6z" />
<glyph unicode="&#x1e9;" horiz-adv-x="1096" d="M489 399l-120 -104l-51 -295h-329l267 1537h329l-152 -820l40 48l299 317h417l-460 -460l279 -622h-361zM865 1714l166 132l289 6l1 -21l-351 -278h-211l-285 280l-1 20l274 -6z" />
<glyph unicode="&#x1ea;" horiz-adv-x="1382" d="M603 -20q-227 5 -364 150t-155 388q-10 120 19 282.5t103 299.5t185 228q186 153 428 148q149 -3 260.5 -68.5t178.5 -188.5t78 -280q8 -111 -13.5 -252.5t-79 -270t-148.5 -226.5t-214.5 -155.5t-277.5 -54.5zM993 942q-10 250 -194 260q-142 7 -235 -112.5t-123 -352.5 q-19 -144 -14 -223q10 -254 196 -261q122 -6 210 87.5t127 272t33 329.5zM686 0l-67 -42q-89 -57 -97 -125q-7 -52 39 -54q21 -1 69 17l27 -171q-65 -41 -154 -41q-98 0 -159.5 56t-61.5 150q0 82 49 147.5t165 123.5z" />
<glyph unicode="&#x1eb;" horiz-adv-x="1126" d="M618 1102q145 -2 251 -72.5t155.5 -196.5t35.5 -280l-2 -22q-28 -249 -185 -402t-388 -149q-144 2 -249 71.5t-155.5 194.5t-36.5 278q25 266 182.5 424t391.5 154zM373 524l-3 -59q-14 -223 136 -227q194 -6 225 315l4 91q2 90 -33.5 143.5t-104.5 55.5 q-91 3 -149.5 -74.5t-74.5 -244.5zM561 -9l-67 -42q-89 -57 -97 -125q-7 -52 39 -54q21 -1 69 17l27 -171q-65 -41 -154 -41q-98 0 -159.5 56t-61.5 150q0 82 49 147.5t165 123.5z" />
<glyph unicode="&#x1ec;" horiz-adv-x="1382" d="M603 -20q-227 5 -364 150t-155 388q-10 120 19 282.5t103 299.5t185 228q186 153 428 148q149 -3 260.5 -68.5t178.5 -188.5t78 -280q8 -111 -13.5 -252.5t-79 -270t-148.5 -226.5t-214.5 -155.5t-277.5 -54.5zM993 942q-10 250 -194 260q-142 7 -235 -112.5t-123 -352.5 q-19 -144 -14 -223q10 -254 196 -261q122 -6 210 87.5t127 272t33 329.5zM686 0l-67 -42q-89 -57 -97 -125q-7 -52 39 -54q21 -1 69 17l27 -171q-65 -41 -154 -41q-98 0 -159.5 56t-61.5 150q0 82 49 147.5t165 123.5zM1192 1589h-676l28 173h675z" />
<glyph unicode="&#x1ed;" horiz-adv-x="1126" d="M618 1102q145 -2 251 -72.5t155.5 -196.5t35.5 -280l-2 -22q-28 -249 -185 -402t-388 -149q-144 2 -249 71.5t-155.5 194.5t-36.5 278q25 266 182.5 424t391.5 154zM373 524l-3 -59q-14 -223 136 -227q194 -6 225 315l4 91q2 90 -33.5 143.5t-104.5 55.5 q-91 3 -149.5 -74.5t-74.5 -244.5zM561 -9l-67 -42q-89 -57 -97 -125q-7 -52 39 -54q21 -1 69 17l27 -171q-65 -41 -154 -41q-98 0 -159.5 56t-61.5 150q0 82 49 147.5t165 123.5zM1002 1280h-676l28 173h675z" />
<glyph unicode="&#x1ee;" horiz-adv-x="1317" d="M823 836q188 -42 283 -209t71 -409q-18 -171 -93.5 -310.5t-199.5 -226.5q-173 -121 -399 -116q-234 4 -376 141.5t-148 370.5l342 -1q-4 -239 204 -243q137 -3 221.5 93.5t108.5 290.5q12 113 9 165q-8 109 -54 159t-128 53l-296 1l34 196l402 392l-653 2l47 271h1091 l-33 -190zM769 1704l166 132l289 6l1 -21l-351 -278h-211l-285 280l-1 20l274 -6z" />
<glyph unicode="&#x1ef;" horiz-adv-x="1156" d="M755 820l-591 2l46 260h967l-39 -229l-399 -361q141 -38 215.5 -159t61.5 -290q-11 -136 -90 -235.5t-212 -152.5t-288 -50q-137 3 -243 55t-163 148t-55 222h327q-1 -74 39 -117.5t115 -45.5q90 -4 161 47t84 134q17 115 -29 183.5t-164 73.5l-143 1l36 206zM717 1394 l143 133l287 4l1 -23l-313 -256h-234l-256 259v21l274 -4z" />
<glyph unicode="&#x1f0;" horiz-adv-x="596" d="M547 1082l-187 -1096q-25 -196 -143 -311t-311 -115q-75 2 -165 19l41 256q49 -15 94 -15q126 0 156 176l186 1086h329zM390 1384l166 132l289 6l1 -21l-351 -278h-211l-285 280l-1 20l274 -6z" />
<glyph unicode="&#x1f1;" horiz-adv-x="2516" d="M2 0l252 1456l428 -1q189 0 330 -99.5t200 -271.5q51 -151 31 -326l-7 -61q-27 -196 -130 -355t-265 -249.5t-350 -92.5h-489zM550 1185l-159 -915l100 -1q176 0 282.5 136t126.5 416l2 33q7 160 -50 243t-171 87zM1731 272l671 -2l-47 -270h-1102l35 200l839 983l-673 2 l48 271h1099l-34 -195z" />
<glyph unicode="&#x1f2;" horiz-adv-x="2326" d="M2 0l252 1456l428 -1q189 0 330 -99.5t200 -271.5q51 -151 31 -326l-7 -61q-27 -196 -130 -355t-265 -249.5t-350 -92.5h-489zM550 1185l-159 -915l100 -1q176 0 282.5 136t126.5 416l2 33q7 160 -50 243t-171 87zM1718 262l474 -2l-45 -260h-894l35 202l569 618l-441 2 l45 260h863l-34 -197z" />
<glyph unicode="&#x1f3;" horiz-adv-x="2159" d="M41 543q31 256 156 410t326 149q138 -4 229 -116l105 550h330l-266 -1536h-293l14 117q-121 -142 -269 -138q-156 2 -244.5 115.5t-94.5 304.5q-2 63 4 123zM369 521q-8 -64 -7 -112q0 -166 112 -169q97 -3 173 93l74 415q-33 92 -132 95q-92 2 -148.5 -79.5 t-71.5 -242.5zM1551 262l474 -2l-45 -260h-894l35 202l569 618l-441 2l45 260h863l-34 -197z" />
<glyph unicode="&#x1f4;" horiz-adv-x="1364" d="M1209 179q-82 -96 -239 -148.5t-348 -49.5q-183 2 -309 92t-180 251t-29 363l8 60q46 339 238.5 537t471.5 193q244 -4 375 -131t146 -367l-328 1q-7 117 -57.5 171t-143.5 57q-138 5 -228 -108.5t-123 -324.5q-28 -180 -20 -280q15 -241 217 -244q122 -2 214 59l45 227 h-237l42 241h579zM932 1846h367l-319 -314h-288z" />
<glyph unicode="&#x1f5;" horiz-adv-x="1153" d="M43 543q19 163 89.5 295t176.5 199.5t240 65.5q163 -4 246 -117l35 97l304 -1l-177 -1040q-30 -220 -193 -347t-406 -121q-108 2 -209 43t-173 124l156 194q87 -110 226 -113q219 -4 278 233l8 33q-112 -110 -247 -108q-104 1 -183 52.5t-124 148.5t-51 216q-4 60 4 146z M368 436q0 -92 33 -143t96 -53q93 -4 169 72l85 459q-40 70 -134 72q-96 2 -161 -81.5t-82 -219.5q-6 -63 -6 -106zM727 1536h367l-319 -314h-288z" />
<glyph unicode="&#x1f6;" horiz-adv-x="2114" d="M2085 1082l-98 -576q-37 -253 -193.5 -392t-402.5 -135q-156 3 -267 68t-160 182t-31 271l16 108h-499l-106 -608h-342l252 1456h343l-101 -578h500l100 578h341l-160 -952l-6 -90q-4 -160 142 -165q169 -6 218 178l11 48l101 607h342z" />
<glyph unicode="&#x1f7;" horiz-adv-x="1348" d="M575 1428q110 50 232 48q172 -1 293 -83t175.5 -229t33.5 -331l-8 -57q-47 -319 -305.5 -557t-670.5 -360l-55 -276h-340l324 1873l327 1zM789 1206q-117 3 -251 -101l-181 -966q272 128 416 285t177 352q23 160 21 222q-5 205 -182 208z" />
<glyph unicode="&#x1f8;" horiz-adv-x="1405" d="M1183 0h-331l-348 919l-160 -919h-342l252 1456h334l347 -919l159 919h342zM1015 1532h-247l-229 312l331 2z" />
<glyph unicode="&#x1f9;" horiz-adv-x="1130" d="M475 1083l-23 -130q130 154 313 150q150 -3 223.5 -111.5t53.5 -310.5l-114 -681h-330l115 683q4 35 2 64q-7 95 -112 95q-87 2 -159 -77l-135 -765h-329l188 1082zM817 1222h-247l-229 312l331 2z" />
<glyph unicode="&#x1fa;" horiz-adv-x="1363" d="M857 272h-465l-129 -272h-377l771 1456h322l269 -1456h-356zM520 543h302l-64 502zM1031 2019l312 -1l-320 -215h-235zM637 1566q-2 85 62.5 143t151.5 58q85 0 143 -54.5t60 -132.5q2 -82 -60 -140t-152 -58q-83 0 -143 51.5t-62 132.5zM758 1567q-5 -34 13 -59t54 -25 q41 0 70.5 29t35.5 67q5 34 -10.5 59.5t-52.5 26.5q-41 0 -72 -29t-38 -69z" />
<glyph unicode="&#x1fb;" horiz-adv-x="1064" d="M597 0q-14 39 -14 98q-111 -122 -265 -118q-141 2 -234 94t-87 223q5 176 147 270.5t388 94.5l110 -2l12 61l4 53q-4 91 -91 94q-108 2 -133 -119l-330 -1q5 109 71 189.5t179.5 124t241.5 40.5q123 -3 215.5 -51.5t138.5 -135t35 -199.5l-81 -509l-5 -62q-4 -74 19 -126 l-1 -19h-320zM409 218q101 -4 177 89l33 174l-85 1q-79 -2 -136 -46.5t-67 -121.5q-5 -41 15.5 -67.5t62.5 -28.5zM817 1710l312 -1l-320 -215h-235zM423 1257q-2 85 62.5 143t151.5 58q85 0 143 -54.5t60 -132.5q2 -82 -60 -140t-152 -58q-83 0 -143 51.5t-62 132.5z M544 1258q-5 -34 13 -59t54 -25q41 0 70.5 29t35.5 67q5 34 -10.5 59.5t-52.5 26.5q-41 0 -72 -29t-38 -69z" />
<glyph unicode="&#x1fc;" horiz-adv-x="1878" d="M1693 0h-872l44 329h-362l-205 -329h-395l965 1456h1018l-46 -264h-533l-42 -316h442l-46 -264h-431l-46 -348h555zM668 601l234 -2l61 468zM1151 1858h367l-319 -314h-288z" />
<glyph unicode="&#x1fd;" horiz-adv-x="1688" d="M1117 -20q-237 5 -348 133q-165 -137 -383 -133q-172 2 -276 92t-97 245q7 165 150 252t395 87l141 -1l10 49q4 27 2 52q-7 83 -93 86q-61 2 -103.5 -25.5t-53.5 -76.5l-328 18q5 104 67.5 181t181.5 122t258 42q89 0 167 -23.5t129 -67.5q149 93 323 89 q130 -4 221.5 -68t131.5 -174t25 -247l-27 -177h-613q-8 -91 38 -140.5t138 -52.5q78 -2 148 17.5t140 48.5l63 -209q-69 -57 -175 -88t-232 -31zM457 211q76 -2 179 63l36 177l-112 1q-87 -3 -146 -40.5t-71 -99.5q-8 -48 23.5 -74.5t90.5 -26.5zM1235 844 q-149 6 -217 -199h298q11 55 11 86q0 50 -23.5 80t-68.5 33zM1028 1537h367l-319 -314h-288z" />
<glyph unicode="&#x1fe;" horiz-adv-x="1377" d="M610 -21q-152 2 -276 67l-109 -141l-221 1l193 247q-140 234 -101 545l5 38q46 337 244 541t483 200q149 -2 271 -66l84 107l222 -1l-168 -213q139 -234 101 -542l-8 -66q-31 -214 -134 -381.5t-254 -253t-332 -82.5zM1015 991l-512 -698q45 -40 125 -42 q139 -2 228 108.5t124 319t35 312.5zM441 698q-19 -133 -22 -230l510 696q-46 35 -119 40q-144 5 -236 -112t-123 -333zM951 1920h367l-319 -314h-288z" />
<glyph unicode="&#x1ff;" horiz-adv-x="1126" d="M41 544q20 164 98.5 294t204 199t279.5 67q88 -2 172 -28l99 143l189 -1l-150 -215q117 -131 126 -328q2 -57 -6 -143q-30 -249 -189.5 -403t-392.5 -150q-78 0 -167 24l-101 -148l-190 1l151 218q-120 129 -128 328q-3 59 5 142zM363 527q-16 -91 -16 -157l309 468 q-17 6 -48 8q-188 3 -242 -299zM746 701l-303 -460l42 -5q93 -2 154 68.5t89 227.5q16 110 18 169zM711 1531h367l-319 -314h-288z" />
<glyph unicode="&#x200;" horiz-adv-x="1363" d="M857 272h-465l-129 -272h-377l771 1456h322l269 -1456h-356zM520 543h302l-64 502zM817 1562h-287l-229 266h324zM1185 1562h-288l-192 266h325z" />
<glyph unicode="&#x201;" horiz-adv-x="1064" d="M597 0q-14 39 -14 98q-111 -122 -265 -118q-141 2 -234 94t-87 223q5 176 147 270.5t388 94.5l110 -2l12 61l4 53q-4 91 -91 94q-108 2 -133 -119l-330 -1q5 109 71 189.5t179.5 124t241.5 40.5q123 -3 215.5 -51.5t138.5 -135t35 -199.5l-81 -509l-5 -62q-4 -74 19 -126 l-1 -19h-320zM409 218q101 -4 177 89l33 174l-85 1q-79 -2 -136 -46.5t-67 -121.5q-5 -41 15.5 -67.5t62.5 -28.5zM603 1252h-287l-229 266h324zM971 1252h-288l-192 266h325z" />
<glyph unicode="&#x202;" horiz-adv-x="1363" d="M857 272h-465l-129 -272h-377l771 1456h322l269 -1456h-356zM520 543h302l-64 502zM990 1589q4 124 -111 128q-64 1 -105 -33t-53 -95l-225 -1q7 142 112 226.5t270 82.5q150 -4 241 -87.5t93 -222.5z" />
<glyph unicode="&#x203;" horiz-adv-x="1064" d="M597 0q-14 39 -14 98q-111 -122 -265 -118q-141 2 -234 94t-87 223q5 176 147 270.5t388 94.5l110 -2l12 61l4 53q-4 91 -91 94q-108 2 -133 -119l-330 -1q5 109 71 189.5t179.5 124t241.5 40.5q123 -3 215.5 -51.5t138.5 -135t35 -199.5l-81 -509l-5 -62q-4 -74 19 -126 l-1 -19h-320zM409 218q101 -4 177 89l33 174l-85 1q-79 -2 -136 -46.5t-67 -121.5q-5 -41 15.5 -67.5t62.5 -28.5zM776 1279q4 124 -111 128q-64 1 -105 -33t-53 -95l-225 -1q7 142 112 226.5t270 82.5q150 -4 241 -87.5t93 -222.5z" />
<glyph unicode="&#x204;" horiz-adv-x="1122" d="M987 617h-535l-61 -347h633l-47 -270h-975l252 1456h977l-47 -271h-634l-54 -307h536zM762 1562h-287l-229 266h324zM1130 1562h-288l-192 266h325z" />
<glyph unicode="&#x205;" horiz-adv-x="1092" d="M525 -20q-145 1 -258.5 68.5t-171.5 188t-46 265.5l3 28q27 267 185.5 422.5t388.5 149.5q139 -2 238 -70.5t145 -189t30 -270.5l-19 -137h-644q2 -85 48 -138t134 -56q143 -4 257 110l138 -183q-61 -87 -170.5 -136.5t-239.5 -51.5h-18zM605 843q-70 2 -121.5 -44 t-89.5 -154h329l6 29q6 35 2 66q-17 100 -126 103zM591 1253h-287l-229 266h324zM959 1253h-288l-192 266h325z" />
<glyph unicode="&#x206;" horiz-adv-x="1122" d="M987 617h-535l-61 -347h633l-47 -270h-975l252 1456h977l-47 -271h-634l-54 -307h536zM935 1589q4 124 -111 128q-64 1 -105 -33t-53 -95l-225 -1q7 142 112 226.5t270 82.5q150 -4 241 -87.5t93 -222.5z" />
<glyph unicode="&#x207;" horiz-adv-x="1092" d="M525 -20q-145 1 -258.5 68.5t-171.5 188t-46 265.5l3 28q27 267 185.5 422.5t388.5 149.5q139 -2 238 -70.5t145 -189t30 -270.5l-19 -137h-644q2 -85 48 -138t134 -56q143 -4 257 110l138 -183q-61 -87 -170.5 -136.5t-239.5 -51.5h-18zM605 843q-70 2 -121.5 -44 t-89.5 -154h329l6 29q6 35 2 66q-17 100 -126 103zM764 1280q4 124 -111 128q-64 1 -105 -33t-53 -95l-225 -1q7 142 112 226.5t270 82.5q150 -4 241 -87.5t93 -222.5z" />
<glyph unicode="&#x208;" horiz-adv-x="609" d="M367 0h-342l253 1456h341zM438 1562h-287l-229 266h324zM806 1562h-288l-192 266h325z" />
<glyph unicode="&#x209;" horiz-adv-x="576" d="M345 0h-331l188 1082h331zM366 1232h-287l-229 266h324zM734 1232h-288l-192 266h325z" />
<glyph unicode="&#x20a;" horiz-adv-x="609" d="M367 0h-342l253 1456h341zM611 1589q4 124 -111 128q-64 1 -105 -33t-53 -95l-225 -1q7 142 112 226.5t270 82.5q150 -4 241 -87.5t93 -222.5z" />
<glyph unicode="&#x20b;" horiz-adv-x="576" d="M345 0h-331l188 1082h331zM539 1258q4 124 -111 128q-64 1 -105 -33t-53 -95l-225 -1q7 142 112 226.5t270 82.5q150 -4 241 -87.5t93 -222.5z" />
<glyph unicode="&#x20c;" horiz-adv-x="1382" d="M603 -20q-227 5 -364 150t-155 388q-10 120 19 282.5t103 299.5t185 228q186 153 428 148q149 -3 260.5 -68.5t178.5 -188.5t78 -280q8 -111 -13.5 -252.5t-79 -270t-148.5 -226.5t-214.5 -155.5t-277.5 -54.5zM993 942q-10 250 -194 260q-142 7 -235 -112.5t-123 -352.5 q-19 -144 -14 -223q10 -254 196 -261q122 -6 210 87.5t127 272t33 329.5zM822 1562h-287l-229 266h324zM1190 1562h-288l-192 266h325z" />
<glyph unicode="&#x20d;" horiz-adv-x="1126" d="M618 1102q145 -2 251 -72.5t155.5 -196.5t35.5 -280l-2 -22q-28 -249 -185 -402t-388 -149q-144 2 -249 71.5t-155.5 194.5t-36.5 278q25 266 182.5 424t391.5 154zM373 524l-3 -59q-14 -223 136 -227q194 -6 225 315l4 91q2 90 -33.5 143.5t-104.5 55.5 q-91 3 -149.5 -74.5t-74.5 -244.5zM632 1252h-287l-229 266h324zM1000 1252h-288l-192 266h325z" />
<glyph unicode="&#x20e;" horiz-adv-x="1382" d="M603 -20q-227 5 -364 150t-155 388q-10 120 19 282.5t103 299.5t185 228q186 153 428 148q149 -3 260.5 -68.5t178.5 -188.5t78 -280q8 -111 -13.5 -252.5t-79 -270t-148.5 -226.5t-214.5 -155.5t-277.5 -54.5zM993 942q-10 250 -194 260q-142 7 -235 -112.5t-123 -352.5 q-19 -144 -14 -223q10 -254 196 -261q122 -6 210 87.5t127 272t33 329.5zM995 1589q4 124 -111 128q-64 1 -105 -33t-53 -95l-225 -1q7 142 112 226.5t270 82.5q150 -4 241 -87.5t93 -222.5z" />
<glyph unicode="&#x20f;" horiz-adv-x="1126" d="M618 1102q145 -2 251 -72.5t155.5 -196.5t35.5 -280l-2 -22q-28 -249 -185 -402t-388 -149q-144 2 -249 71.5t-155.5 194.5t-36.5 278q25 266 182.5 424t391.5 154zM373 524l-3 -59q-14 -223 136 -227q194 -6 225 315l4 91q2 90 -33.5 143.5t-104.5 55.5 q-91 3 -149.5 -74.5t-74.5 -244.5zM805 1279q4 124 -111 128q-64 1 -105 -33t-53 -95l-225 -1q7 142 112 226.5t270 82.5q150 -4 241 -87.5t93 -222.5z" />
<glyph unicode="&#x210;" horiz-adv-x="1306" d="M624 514h-190l-90 -514h-342l252 1456l514 -1q247 0 380.5 -115.5t119.5 -315.5q-11 -158 -91 -261.5t-224 -163.5l196 -582v-17h-365zM480 785l200 -2q82 0 142.5 40t86.5 109.5t15 134.5q-20 111 -142 117l-232 1zM713 1562h-287l-229 266h324zM1081 1562h-288 l-192 266h325z" />
<glyph unicode="&#x211;" horiz-adv-x="763" d="M768 777q-53 8 -102 10q-148 4 -226 -102l-122 -685h-329l188 1082l307 1l-25 -142q106 164 250 164q41 0 102 -14zM485 1252h-287l-229 266h324zM853 1252h-288l-192 266h325z" />
<glyph unicode="&#x212;" horiz-adv-x="1306" d="M624 514h-190l-90 -514h-342l252 1456l514 -1q247 0 380.5 -115.5t119.5 -315.5q-11 -158 -91 -261.5t-224 -163.5l196 -582v-17h-365zM480 785l200 -2q82 0 142.5 40t86.5 109.5t15 134.5q-20 111 -142 117l-232 1zM886 1589q4 124 -111 128q-64 1 -105 -33t-53 -95 l-225 -1q7 142 112 226.5t270 82.5q150 -4 241 -87.5t93 -222.5z" />
<glyph unicode="&#x213;" horiz-adv-x="763" d="M768 777q-53 8 -102 10q-148 4 -226 -102l-122 -685h-329l188 1082l307 1l-25 -142q106 164 250 164q41 0 102 -14zM658 1279q4 124 -111 128q-64 1 -105 -33t-53 -95l-225 -1q7 142 112 226.5t270 82.5q150 -4 241 -87.5t93 -222.5z" />
<glyph unicode="&#x214;" horiz-adv-x="1330" d="M1368 1456l-162 -950q-35 -247 -203.5 -389t-424.5 -138q-159 3 -276 68.5t-172.5 185t-37.5 272.5l162 951h344l-161 -952q-6 -50 -2 -95q5 -74 46.5 -115t117.5 -44q220 -7 265 255l162 951h342zM793 1562h-287l-229 266h324zM1161 1562h-288l-192 266h325z" />
<glyph unicode="&#x215;" horiz-adv-x="1130" d="M656 118q-121 -143 -292 -139q-159 2 -239.5 111t-62.5 292l117 700h329l-119 -704q-3 -29 0 -53q7 -82 97 -85q104 -4 177 82l134 760h331l-188 -1082h-306zM644 1252h-287l-229 266h324zM1012 1252h-288l-192 266h325z" />
<glyph unicode="&#x216;" horiz-adv-x="1330" d="M1368 1456l-162 -950q-35 -247 -203.5 -389t-424.5 -138q-159 3 -276 68.5t-172.5 185t-37.5 272.5l162 951h344l-161 -952q-6 -50 -2 -95q5 -74 46.5 -115t117.5 -44q220 -7 265 255l162 951h342zM966 1589q4 124 -111 128q-64 1 -105 -33t-53 -95l-225 -1 q7 142 112 226.5t270 82.5q150 -4 241 -87.5t93 -222.5z" />
<glyph unicode="&#x217;" horiz-adv-x="1130" d="M656 118q-121 -143 -292 -139q-159 2 -239.5 111t-62.5 292l117 700h329l-119 -704q-3 -29 0 -53q7 -82 97 -85q104 -4 177 82l134 760h331l-188 -1082h-306zM817 1279q4 124 -111 128q-64 1 -105 -33t-53 -95l-225 -1q7 142 112 226.5t270 82.5q150 -4 241 -87.5 t93 -222.5z" />
<glyph unicode="&#x218;" horiz-adv-x="1254" d="M802 394q22 113 -122 175l-164 68q-345 155 -328 422q7 122 84 217.5t213 148.5t297 51q216 -4 347.5 -126t129.5 -327h-340q3 84 -35.5 134.5t-126.5 52.5q-86 2 -152 -40t-78 -113q-19 -100 148.5 -164t243.5 -110q239 -143 224 -386q-8 -126 -81 -221t-202.5 -147 t-290.5 -50q-118 2 -219 37t-173 102q-146 135 -140 355l343 -1q-6 -112 43 -169.5t165 -57.5q86 0 143.5 39.5t70.5 109.5zM622 -152q-19 -190 -182 -363l-155 82q87 130 111 236l21 113l210 1z" />
<glyph unicode="&#x219;" horiz-adv-x="1028" d="M597 310q13 66 -102 99l-71 18q-174 46 -255 129t-76 197q5 156 138.5 253.5t325.5 95.5q191 -2 309.5 -97t120.5 -256l-328 1q4 128 -113 128q-50 0 -93 -29.5t-51 -78.5q-17 -81 143 -111q139 -33 215 -76.5t116 -107.5t37 -154q-3 -98 -64 -175t-176.5 -123 t-250.5 -43q-117 1 -217.5 49t-157 130.5t-58.5 189.5l306 -2q2 -144 144 -142q61 0 104 27.5t54 77.5zM482 -162q-19 -190 -182 -363l-155 82q87 130 111 236l21 113l210 1z" />
<glyph unicode="&#x21a;" horiz-adv-x="1262" d="M1318 1185h-424l-205 -1185h-343l206 1185h-417l48 271h1182zM599 -142q-19 -190 -182 -363l-155 82q87 130 111 236l21 113l210 1z" />
<glyph unicode="&#x21b;" horiz-adv-x="692" d="M604 1351l-47 -269h173l-41 -234h-173l-84 -497q-7 -51 6.5 -77t67.5 -28q21 -1 86 5l-24 -244q-83 -27 -177 -25q-153 2 -229 90t-62 239l88 537h-134l40 234h134l47 269h329zM389 -152q-19 -190 -182 -363l-155 82q87 130 111 236l21 113l210 1z" />
<glyph unicode="&#x21c;" horiz-adv-x="1208" d="M142 553l228 68q235 76 342 172t124 225q12 87 -24.5 137t-127.5 52q-79 2 -135 -36.5t-72 -111.5l-342 -2q7 123 80 217.5t205 148.5t282 52q229 -4 362 -111.5t117 -294.5q-21 -246 -228 -416q141 -112 126 -297q-15 -203 -145 -365t-379 -275t-569 -153l30 269 q345 70 526.5 211.5t205.5 358.5l2 32q-2 43 -21 67q-269 -125 -615 -203z" />
<glyph unicode="&#x21d;" horiz-adv-x="1020" d="M136 378l101 34q222 76 313 170.5t86 206.5q-3 71 -79 74q-111 4 -137 -94l-331 -2q7 154 135.5 245.5t324.5 89.5q199 -3 313 -84.5t106 -223.5q-11 -195 -178 -343q108 -88 97 -259q-15 -224 -227.5 -381.5t-647.5 -247.5l25 241l116 43q173 66 263.5 135t130 155 t28.5 169q-110 -57 -226.5 -95t-236.5 -68z" />
<glyph unicode="&#x21e;" horiz-adv-x="1406" d="M1184 0h-340l105 608h-499l-106 -608h-342l252 1456h343l-101 -578h500l100 578h341zM885 1714l166 132l289 6l1 -21l-351 -278h-211l-285 280l-1 20l274 -6z" />
<glyph unicode="&#x21f;" horiz-adv-x="1131" d="M463 964q121 141 279 139q163 -4 241.5 -119t56.5 -312l-112 -672h-329l113 676q4 34 2 64q-7 99 -110 102q-89 2 -158 -65l-138 -777h-329l267 1536h329zM715 1807l166 132l289 6l1 -21l-351 -278h-211l-285 280l-1 20l274 -6z" />
<glyph unicode="&#x220;" horiz-adv-x="1263" d="M563 1422q133 56 257 54q127 -3 223 -58.5t144.5 -157t35.5 -226.5l-248 -1451h-332l250 1452q5 41 1 74q-13 104 -137 107q-91 3 -219 -56l-206 -1160h-330l252 1456l316 1z" />
<glyph unicode="&#x221;" horiz-adv-x="1510" d="M40 543q20 168 87.5 301.5t167 197t229.5 60.5q137 -4 228 -116l105 550h330l-254 -1417q62 5 94 4q144 0 231 -71.5t83 -196.5q-3 -132 -104.5 -210.5t-275.5 -81.5h-18q-133 3 -218.5 46.5t-115.5 123.5l-210 -152l-111 215l309 209l24 91q-112 -119 -248 -117 q-154 2 -243.5 113t-95.5 306q-2 59 6 145zM369 521q-8 -63 -7 -112q0 -166 112 -169q97 -3 173 93l74 415q-33 92 -131 95q-92 2 -149 -79.5t-72 -242.5zM985 -90q-29 0 -79 -10l-5 -24l-3 -37q-4 -68 58 -71q39 0 69 22t36 56q10 58 -76 64z" />
<glyph unicode="&#x222;" horiz-adv-x="1245" d="M687 967q215 0 229 156v30q-5 42 -66 62l29 262q186 -9 287 -103t90 -258q-7 -106 -60.5 -178.5t-144.5 -123.5q110 -138 93 -336q-19 -225 -183.5 -361.5t-421.5 -136.5h-18q-148 4 -261.5 65.5t-168.5 168.5t-43 246q20 231 214 365q-115 103 -104 275 q10 175 133.5 274t353.5 104l-29 -262q-92 -31 -106 -116q-11 -64 22.5 -96.5t134.5 -35.5zM630 695q-76 0 -133 -42.5t-85 -119t-18 -151.5q17 -127 161 -135q78 0 136 41t86 115.5t19 154.5q-17 129 -151 136z" />
<glyph unicode="&#x223;" horiz-adv-x="1190" d="M648 942q226 0 253 203q7 51 -4.5 92.5t-58.5 66.5l28 254q178 -10 275.5 -119.5t83.5 -286.5q-16 -230 -212 -349q111 -133 93 -332q-18 -222 -177.5 -356.5t-414.5 -134.5h-20q-147 4 -258 63.5t-164.5 164.5t-42.5 245q19 233 213 360q-111 123 -95 323 q13 195 141.5 307t343.5 116l-29 -253q-103 -48 -125 -179q-14 -92 22.5 -136t127.5 -48zM602 684q-99 0 -165.5 -65t-78.5 -166q-11 -97 29 -152.5t120 -60.5l19 -1q83 0 145 43t89.5 121t16.5 150q-20 124 -175 131z" />
<glyph unicode="&#x224;" horiz-adv-x="1319" d="M838 -294l19 98l6 62q4 124 -90 134h-814l35 200l839 983l-673 2l48 271h1099l-34 -195l-836 -989l348 -3q179 -6 278.5 -114t85.5 -290q-6 -76 -31 -159h-280z" />
<glyph unicode="&#x225;" horiz-adv-x="1168" d="M-6 202l569 618l-441 2l45 260h863l-34 -197l-571 -623l205 -3q182 -3 283 -109t87 -285q-5 -76 -31 -159h-266q23 96 23 163q0 57 -25.5 92t-75.5 39h-666z" />
<glyph unicode="&#x226;" horiz-adv-x="1363" d="M857 272h-465l-129 -272h-377l771 1456h322l269 -1456h-356zM520 543h302l-64 502zM709 1706q-2 66 45.5 109.5t113.5 43.5q67 2 114 -38.5t49 -104.5t-43.5 -108t-114.5 -44q-67 -2 -114.5 38.5t-49.5 103.5z" />
<glyph unicode="&#x227;" horiz-adv-x="1064" d="M597 0q-14 39 -14 98q-111 -122 -265 -118q-141 2 -234 94t-87 223q5 176 147 270.5t388 94.5l110 -2l12 61l4 53q-4 91 -91 94q-108 2 -133 -119l-330 -1q5 109 71 189.5t179.5 124t241.5 40.5q123 -3 215.5 -51.5t138.5 -135t35 -199.5l-81 -509l-5 -62q-4 -74 19 -126 l-1 -19h-320zM409 218q101 -4 177 89l33 174l-85 1q-79 -2 -136 -46.5t-67 -121.5q-5 -41 15.5 -67.5t62.5 -28.5zM495 1396q-2 66 45.5 109.5t113.5 43.5q67 2 114 -38.5t49 -104.5t-43.5 -108t-114.5 -44q-67 -2 -114.5 38.5t-49.5 103.5z" />
<glyph unicode="&#x228;" horiz-adv-x="1122" d="M987 617h-535l-61 -347h633l-47 -270h-975l252 1456h977l-47 -271h-634l-54 -307h536zM645 22l-19 -67q62 -14 93.5 -57t31.5 -105q0 -121 -102.5 -186.5t-295.5 -70.5l12 188q89 12 103 84q9 54 -71 62l-42 4l43 145z" />
<glyph unicode="&#x229;" horiz-adv-x="1092" d="M525 -20q-145 1 -258.5 68.5t-171.5 188t-46 265.5l3 28q27 267 185.5 422.5t388.5 149.5q139 -2 238 -70.5t145 -189t30 -270.5l-19 -137h-644q2 -85 48 -138t134 -56q143 -4 257 110l138 -183q-61 -87 -170.5 -136.5t-239.5 -51.5h-18zM605 843q-70 2 -121.5 -44 t-89.5 -154h329l6 29q6 35 2 66q-17 100 -126 103zM577 12l-19 -67q62 -14 93.5 -57t31.5 -105q0 -121 -102.5 -186.5t-295.5 -70.5l12 188q89 12 103 84q9 54 -71 62l-42 4l43 145z" />
<glyph unicode="&#x22a;" horiz-adv-x="1382" d="M603 -20q-227 5 -364 150t-155 388q-10 120 19 282.5t103 299.5t185 228q186 153 428 148q149 -3 260.5 -68.5t178.5 -188.5t78 -280q8 -111 -13.5 -252.5t-79 -270t-148.5 -226.5t-214.5 -155.5t-277.5 -54.5zM993 942q-10 250 -194 260q-142 7 -235 -112.5t-123 -352.5 q-19 -144 -14 -223q10 -254 196 -261q122 -6 210 87.5t127 272t33 329.5zM1243 1884h-675l30 173h676zM526 1669q-2 51 37.5 86.5t99.5 37.5q59 2 101 -31.5t44 -85.5q2 -54 -37.5 -88.5t-99.5 -36.5q-59 -2 -101 31.5t-44 86.5zM930 1669q-2 51 37.5 86.5t99.5 37.5 q54 2 98.5 -31t46.5 -86q2 -51 -36.5 -87t-99.5 -38q-58 -2 -101 31t-45 87z" />
<glyph unicode="&#x22b;" horiz-adv-x="1126" d="M618 1102q145 -2 251 -72.5t155.5 -196.5t35.5 -280l-2 -22q-28 -249 -185 -402t-388 -149q-144 2 -249 71.5t-155.5 194.5t-36.5 278q25 266 182.5 424t391.5 154zM373 524l-3 -59q-14 -223 136 -227q194 -6 225 315l4 91q2 90 -33.5 143.5t-104.5 55.5 q-91 3 -149.5 -74.5t-74.5 -244.5zM279 1360q-1 30 10.5 55t31.5 43.5t46.5 29t54.5 11.5t54.5 -8t47.5 -26.5t34.5 -41.5t14.5 -53q1 -30 -10.5 -55.5t-32 -44t-47 -29t-54.5 -10.5q-27 0 -53.5 9t-47.5 26t-34.5 41t-14.5 53zM782 1360q-1 30 11 55t32 43.5t46 29t55 11.5 q28 1 54.5 -8t47.5 -26.5t34 -41.5t14 -53q1 -30 -10.5 -55.5t-31.5 -44t-46.5 -29t-54.5 -10.5t-54.5 9t-47.5 26t-34.5 41t-14.5 53zM1058 1599h-675l30 173h676z" />
<glyph unicode="&#x22c;" horiz-adv-x="1382" d="M603 -20q-227 5 -364 150t-155 388q-10 120 19 282.5t103 299.5t185 228q186 153 428 148q149 -3 260.5 -68.5t178.5 -188.5t78 -280q8 -111 -13.5 -252.5t-79 -270t-148.5 -226.5t-214.5 -155.5t-277.5 -54.5zM993 942q-10 250 -194 260q-142 7 -235 -112.5t-123 -352.5 q-19 -144 -14 -223q10 -254 196 -261q122 -6 210 87.5t127 272t33 329.5zM1171 1761q-7 -81 -50 -132.5t-111 -53.5q-44 0 -115.5 36.5t-114.5 33.5q-53 -3 -77 -87l-138 38q7 80 51.5 132t113.5 52q42 0 115 -36t115 -33q53 3 76 88zM1244 1894h-675l30 173h676z" />
<glyph unicode="&#x22d;" horiz-adv-x="1126" d="M618 1102q145 -2 251 -72.5t155.5 -196.5t35.5 -280l-2 -22q-28 -249 -185 -402t-388 -149q-144 2 -249 71.5t-155.5 194.5t-36.5 278q25 266 182.5 424t391.5 154zM373 524l-3 -59q-14 -223 136 -227q194 -6 225 315l4 91q2 90 -33.5 143.5t-104.5 55.5 q-91 3 -149.5 -74.5t-74.5 -244.5zM1076 1529q-3 -51 -19.5 -100.5t-46.5 -89t-74 -64t-101 -23.5q-37 0 -69.5 14.5t-64 31.5t-63.5 30.5t-68 12.5q-21 -1 -36 -8.5t-25.5 -20.5t-18 -29t-12.5 -34l-188 10q3 50 20 99.5t47.5 89.5t74 64t100.5 23q36 -1 69 -15t64.5 -30.5 t63.5 -30t68 -12.5q42 2 63.5 28.5t33.5 62.5zM1068 1661h-675l31 173h675z" />
<glyph unicode="&#x22e;" horiz-adv-x="1382" d="M603 -20q-227 5 -364 150t-155 388q-10 120 19 282.5t103 299.5t185 228q186 153 428 148q149 -3 260.5 -68.5t178.5 -188.5t78 -280q8 -111 -13.5 -252.5t-79 -270t-148.5 -226.5t-214.5 -155.5t-277.5 -54.5zM993 942q-10 250 -194 260q-142 7 -235 -112.5t-123 -352.5 q-19 -144 -14 -223q10 -254 196 -261q122 -6 210 87.5t127 272t33 329.5zM714 1706q-2 66 45.5 109.5t113.5 43.5q67 2 114 -38.5t49 -104.5t-43.5 -108t-114.5 -44q-67 -2 -114.5 38.5t-49.5 103.5z" />
<glyph unicode="&#x22f;" horiz-adv-x="1126" d="M618 1102q145 -2 251 -72.5t155.5 -196.5t35.5 -280l-2 -22q-28 -249 -185 -402t-388 -149q-144 2 -249 71.5t-155.5 194.5t-36.5 278q25 266 182.5 424t391.5 154zM373 524l-3 -59q-14 -223 136 -227q194 -6 225 315l4 91q2 90 -33.5 143.5t-104.5 55.5 q-91 3 -149.5 -74.5t-74.5 -244.5zM524 1396q-2 66 45.5 109.5t113.5 43.5q67 2 114 -38.5t49 -104.5t-43.5 -108t-114.5 -44q-67 -2 -114.5 38.5t-49.5 103.5z" />
<glyph unicode="&#x230;" horiz-adv-x="1382" d="M603 -20q-227 5 -364 150t-155 388q-10 120 19 282.5t103 299.5t185 228q186 153 428 148q149 -3 260.5 -68.5t178.5 -188.5t78 -280q8 -111 -13.5 -252.5t-79 -270t-148.5 -226.5t-214.5 -155.5t-277.5 -54.5zM993 942q-10 250 -194 260q-142 7 -235 -112.5t-123 -352.5 q-19 -144 -14 -223q10 -254 196 -261q122 -6 210 87.5t127 272t33 329.5zM730 1677q-2 52 37 87t100 37q55 2 98.5 -31.5t45.5 -85.5t-36.5 -87.5t-99.5 -37.5q-59 -2 -101 31.5t-44 86.5zM1242 1882h-675l31 173h675z" />
<glyph unicode="&#x231;" horiz-adv-x="1126" d="M618 1102q145 -2 251 -72.5t155.5 -196.5t35.5 -280l-2 -22q-28 -249 -185 -402t-388 -149q-144 2 -249 71.5t-155.5 194.5t-36.5 278q25 266 182.5 424t391.5 154zM373 524l-3 -59q-14 -223 136 -227q194 -6 225 315l4 91q2 90 -33.5 143.5t-104.5 55.5 q-91 3 -149.5 -74.5t-74.5 -244.5zM524 1396q-1 34 11.5 62t34 48t51 31t62.5 12q32 0 61 -9.5t51.5 -28t36 -45.5t14.5 -60q1 -34 -11.5 -62t-34 -48t-50.5 -31t-62 -11q-32 -1 -61.5 8.5t-52 28t-36 45.5t-14.5 60zM1068 1657h-675l30 173h676z" />
<glyph unicode="&#x232;" horiz-adv-x="1257" d="M656 826l368 630h385l-628 -949l-87 -507h-348l94 540l-291 915l356 1zM1132 1589h-676l28 173h675z" />
<glyph unicode="&#x233;" horiz-adv-x="1039" d="M484 476l280 606h363l-634 -1244q-71 -147 -163.5 -212.5t-220.5 -65.5q-57 0 -145 22l25 241h38q61 0 107 19.5t77 75.5l47 90l-173 1074h340zM967 1280h-676l28 173h675z" />
<glyph unicode="&#x234;" horiz-adv-x="1101" d="M524 118q48 6 96 6q149 -2 232 -73.5t80 -193.5q-3 -140 -112 -218t-285 -76q-271 6 -333 171l-211 -152l-111 214l299 192l6 12h-1l265 1536h330zM578 -90q-23 1 -79 -10l-5 -24l-3 -37q-4 -67 58 -70q39 0 68.5 21.5t35.5 55.5q10 58 -75 64z" />
<glyph unicode="&#x235;" horiz-adv-x="1517" d="M714 683q4 35 2 64q-10 95 -112 95q-89 2 -159 -77l-136 -765h-329l188 1082l307 1l-23 -130q132 153 314 149q153 -3 224.5 -113t51.5 -308l-101 -562l94 5q125 -2 205 -53q112 -72 108 -216q-3 -138 -111.5 -215.5t-284.5 -75.5q-273 6 -335 170l-211 -152l-110 214 l304 211zM993 -90q-16 1 -78 -9l-5 -25l-4 -37q-4 -68 58 -71q40 0 69.5 21.5t35.5 56.5q5 33 -17.5 48.5t-58.5 15.5z" />
<glyph unicode="&#x236;" horiz-adv-x="1101" d="M832 848h-172l-64 -314q48 6 96 6q151 -2 233.5 -74.5t79.5 -194.5q-5 -140 -115 -217.5t-283 -75.5q-135 3 -219.5 47.5t-114.5 123.5l-211 -149l-109 212l304 212l73 424h-133l41 234h133l47 269h329l-47 -269h173zM651 325q-28 1 -80 -9l-5 -24l-3 -38q-4 -70 59 -70 q41 0 70 23t34 54q10 58 -75 64z" />
<glyph unicode="&#x237;" horiz-adv-x="596" d="M547 1082l-187 -1096q-25 -196 -143 -311t-311 -115q-75 2 -165 19l41 256q49 -15 94 -15q126 0 156 176l186 1086h329z" />
<glyph unicode="&#x238;" horiz-adv-x="1827" d="M90 543q21 174 88 305t167 194t227 60q139 -4 228 -116l106 550h331l-107 -542q110 110 243 108q160 -2 248.5 -114t93.5 -307q1 -65 -6 -126l-2 -22q-35 -268 -160 -413.5t-321 -140.5q-144 4 -231 109l-23 -88h-295l13 116q-122 -140 -268 -137q-154 2 -243 113 t-95 307q-2 58 6 144zM1388 675q0 164 -115 167q-101 4 -170 -84l-79 -436q32 -80 136 -84q94 -3 149 70t70 252zM410 408q0 -165 113 -168q99 -4 172 92l75 417q-33 91 -132 94q-179 3 -219 -300q-9 -99 -9 -135z" />
<glyph unicode="&#x239;" horiz-adv-x="1729" d="M1657 540q-31 -255 -158.5 -410.5t-322.5 -150.5q-142 4 -230 112l-98 -507h-330l101 508q-108 -114 -246 -112q-141 2 -228 97t-107 273l-4 56q-2 63 4 122l3 22q34 262 161 409.5t321 142.5q161 -4 245 -138l51 118l265 1l-18 -103q111 126 257 122q158 -2 246.5 -113 t94.5 -303q2 -64 -4 -125zM362 442q-7 -89 21 -144.5t90 -57.5q102 -4 173 87l77 431q-30 82 -134 86q-87 1 -143.5 -72.5t-75.5 -225.5zM1331 561q7 81 7 113q-5 165 -113 168q-104 6 -171 -85l-78 -430q34 -86 137 -88q169 -3 211 270l4 30z" />
<glyph unicode="&#x23a;" horiz-adv-x="1363" d="M857 272h-465l-129 -272h-174l-226 -225h-236l296 295l733 1386h323l51 -284l311 309h236l-510 -507l181 -974h-356zM627 545l198 -2l-24 164zM611 751l165 167l-17 126z" />
<glyph unicode="&#x23b;" horiz-adv-x="1314" d="M1219 495q-13 -153 -99.5 -270.5t-230.5 -183t-310 -62.5q-66 2 -168 21l-67 -125l-195 1l104 196q-85 78 -130.5 193.5t-47.5 255.5q-3 125 27 286q58 311 243 492.5t451 178.5q54 -1 110 -9l60 112l194 -1l-85 -158q227 -127 246 -471l-339 2l1 98q-2 49 -28 92 l-432 -883q36 -9 73 -9q121 -2 195 60.5t94 180.5zM406 409l389 796l-16 1q-131 0 -213.5 -96t-117.5 -307l-26 -174q-19 -132 -16 -220z" />
<glyph unicode="&#x23c;" horiz-adv-x="1042" d="M459 236q148 6 174 150l309 1q-6 -119 -71 -212.5t-176.5 -146t-239.5 -49.5q-48 0 -105 11l-200 -407h-194l232 468q-143 124 -153 345q-3 66 4 131l2 24q20 163 95.5 290t199 196.5t274.5 65.5l58 -5l177 358h195l-202 -406q171 -115 166 -383l-302 1l4 76l-256 -509z M364 529l-22 -133l222 451q-137 -25 -180 -211l-17 -85z" />
<glyph unicode="&#x23d;" horiz-adv-x="1180" d="M483 270h593l-47 -270h-935l252 1456h343zM738 651h-710l33 191h711z" />
<glyph unicode="&#x23e;" horiz-adv-x="1262" d="M1211 1580l198 2l-91 -130l42 2l-42 -269h-168l-348 -533l-113 -652h-314l-83 -125h-197l313 479l144 831h-417l48 271h946zM900 1188l-26 -123l88 125z" />
<glyph unicode="&#x23f;" horiz-adv-x="1018" d="M583 311q17 73 -127 106t-225 84q-150 95 -146 251q3 101 64.5 182t172 125.5t231.5 42.5q191 -2 308 -97t119 -257l-327 2q4 128 -111 128q-53 0 -96.5 -31.5t-50.5 -76.5q-14 -76 119.5 -107t195.5 -59q195 -88 188 -283q-3 -99 -66.5 -177.5t-184 -124t-250.5 -40.5 l-48 6l6 -39q23 -135 100 -137q73 -6 191 77l96 -190q-158 -134 -310 -131q-108 2 -193 74.5t-138 214.5l-126 382l310 113q16 -87 46 -115t91 -28q65 0 108 28t53 77z" />
<glyph unicode="&#x240;" horiz-adv-x="1305" d="M414 254l33 1q85 -1 148 -57t118 -176t97 -167.5t96 -47.5q68 0 170 79l96 -189q-67 -63 -150 -98.5t-163 -33.5q-143 3 -229 137l-93 160q-77 129 -185 138h-393l35 202l569 618l-441 2l45 260h863l-27 -182z" />
<glyph unicode="&#x241;" horiz-adv-x="1038" d="M488 520q86 3 138 69.5t72.5 219t22.5 181.5l2 49q0 161 -111 164q-69 2 -113.5 -45t-56.5 -130l-326 -1q12 198 157 326t355 124q146 -4 250.5 -75.5t153 -197.5t30.5 -278l-17 -121q-29 -205 -133 -337.5t-269 -186.5l-56 -281h-343l91 523z" />
<glyph unicode="&#x242;" horiz-adv-x="1047" d="M466 495q102 2 158 67.5t54 181.5q-4 101 -95 101q-107 0 -135 -158l-328 -2q10 186 147 303t336 115q196 -4 307 -114.5t98 -293.5q-10 -146 -97 -241t-241 -122l-65 -332h-329l87 497z" />
<glyph unicode="&#x243;" horiz-adv-x="1393" d="M103 0l252 1456l463 -1q274 -1 409 -104t123 -289q-15 -230 -252 -326q85 -30 132.5 -108.5t40.5 -188.5q-14 -211 -166.5 -325t-417.5 -114h-584zM553 619l-61 -349l205 -1q96 0 160 47.5t76 126.5q28 167 -128 175zM592 849l161 -1q223 5 250 171q24 164 -170 165 l-182 1zM685 350h-710l33 191h711z" />
<glyph unicode="&#x244;" horiz-adv-x="1573" d="M1486 1456l-107 -614h187l-33 -191h-187l-25 -159q-37 -228 -188 -364q-171 -153 -436 -149q-159 3 -277 68.5t-173 184.5t-37 273l22 146h-184l33 191h184l107 614h343l-106 -614h428l107 614h342zM718 250q223 -7 266 267l21 134h-429l-22 -147q-6 -50 -2 -95 q5 -74 46.5 -115t119.5 -44z" />
<glyph unicode="&#x245;" horiz-adv-x="1323" d="M739 1056l-463 -1056h-389l724 1456h374l224 -1456h-373z" />
<glyph unicode="&#x246;" horiz-adv-x="1122" d="M977 0h-497l-59 -125h-194l59 125h-284l252 1456h711l60 125h194l-58 -125h70l-47 -271l-149 -1l-148 -304l147 -2l-48 -261h-218l-162 -347h418zM496 878h200l144 307h-290zM409 267l166 350h-123l-67 -350h24z" />
<glyph unicode="&#x247;" horiz-adv-x="1092" d="M511 -21q-54 2 -124 13l-200 -409h-196l232 470q-97 73 -143.5 190t-33.5 259l2 22q27 265 186 423.5t399 154.5l73 -5l175 359h196l-205 -411q76 -56 119 -144t49 -196q3 -67 -5 -133l-20 -137h-424l-100 -196l44 -2q155 2 271 114l137 -183q-62 -91 -180.5 -141 t-251.5 -48zM597 846q-96 -8 -153.5 -60.5t-88.5 -141.5l141 2l104 201zM756 674l5 50q0 24 -8 50l-70 -134l65 4zM334 435q-6 -31 -5 -57q0 -27 12 -56l51 115z" />
<glyph unicode="&#x248;" horiz-adv-x="1208" d="M820 1456h342l-170 -999q-31 -219 -186.5 -350.5t-365.5 -127.5q-211 4 -326.5 124t-109.5 338l345 -1v-69q4 -119 115 -122q150 -3 188 219zM1190 651h-710l33 191h711z" />
<glyph unicode="&#x249;" horiz-adv-x="795" d="M667 1082l-189 -1116q-24 -193 -146 -300.5t-310 -105.5q-75 2 -165 19l27 256q55 -12 91 -12q145 -2 172 154l190 1105h330zM362 1355q-2 74 52 122t129 48q76 2 128 -42.5t54 -115.5t-49.5 -120t-131.5 -51q-76 0 -128 44.5t-54 114.5zM746 475h-710l33 191h711z" />
<glyph unicode="&#x24a;" horiz-adv-x="1564" d="M1161 -19q-7 -64 32 -100.5t118 -38.5q33 0 100 8l-27 -272q-76 -16 -149 -14q-152 3 -269 87t-141 213q-10 55 1 118l5 24q-96 -25 -219 -25q-145 1 -259.5 65t-184.5 186t-83 278q-13 141 26.5 329.5t141.5 334t251 225t328 78.5q157 -2 302 -47l11 26h267zM651 255 q121 -3 218 63l152 821q-52 65 -182 65q-178 6 -286.5 -147.5t-123.5 -464.5l-1 -51q6 -282 223 -286z" />
<glyph unicode="&#x24b;" horiz-adv-x="1283" d="M522 1102q162 -4 246 -138l51 119l289 -1l-200 -1161q-11 -126 131 -130q20 -1 86 5l-19 -219q-74 -14 -166 -12q-184 2 -278.5 95.5t-76.5 261.5l34 170q-109 -116 -247 -112q-155 2 -243 115.5t-94 306.5q-2 63 4 122l12 81q43 239 165 370.5t306 126.5zM363 442 q-8 -91 20.5 -145.5t90.5 -56.5q101 -4 172 87l77 431q-30 82 -133 86q-181 3 -219 -298z" />
<glyph unicode="&#x24c;" horiz-adv-x="1373" d="M691 514h-190l-90 -514h-341l89 514h-158l47 271h158l116 671l512 -1q249 0 382.5 -115.5t119.5 -315.5q-21 -305 -316 -424l196 -583l-1 -17h-364zM547 785l200 -2q82 0 142.5 40t86.5 109.5t15 134.5q-20 111 -142 117l-232 1z" />
<glyph unicode="&#x24d;" horiz-adv-x="851" d="M856 777q-53 8 -102 10q-148 4 -226 -102l-122 -685h-329l188 1082l307 1l-25 -142q106 164 250 164q41 0 102 -14zM698 422h-710l33 191h711z" />
<glyph unicode="&#x24e;" horiz-adv-x="1479" d="M683 1179h290l163 277l386 -1l-189 -274l199 -2l-33 -171h-274l-332 -502l-88 -506h-348l94 540l-147 468h-295l31 171l212 1l-92 275l357 1zM767 829l111 177l-157 1z" />
<glyph unicode="&#x24f;" horiz-adv-x="1204" d="M545 745h150l155 337l365 -1l-177 -334l145 -2l-32 -161h-193l-401 -789l-41 -66q-117 -169 -320 -169q-56 0 -146 22l26 241h49q115 3 163 79l57 105l-94 577h-215l28 161h160l-54 337h341zM569 586l5 -112l56 114z" />
<glyph unicode="&#x250;" horiz-adv-x="1064" d="M449 1084q13 -49 13 -102q111 124 264 120q139 -2 232.5 -92t89.5 -225q-7 -177 -148.5 -271t-386.5 -94l-108 2l-13 -61q-5 -27 -4 -53q4 -91 91 -94q107 -4 132 119l330 1q-5 -109 -71 -189.5t-179.5 -124t-241.5 -40.5q-185 2 -295.5 109t-93.5 277l83 527l4 45 q2 77 -19 125l1 22zM636 864q-99 4 -176 -87l-34 -176l85 -1q84 2 138 46t66 121q5 42 -16 68.5t-63 28.5z" />
<glyph unicode="&#x251;" horiz-adv-x="1173" d="M1094 1082l-121 -715q-7 -51 -5 -73q2 -47 38 -50h9l7 2l2 -247q-51 -20 -114 -18q-98 2 -163.5 46.5t-86.5 121.5q-69 -95 -134 -134t-142 -37q-155 2 -246 113t-98 301q-3 63 4 123l2 22q31 255 159.5 412.5t327.5 152.5q147 -4 218 -146l52 126h291zM370 430l-1 -26 q1 -160 113 -164q79 -4 148 65l5 37l78 429q-34 70 -115 73q-131 2 -189 -169q-29 -85 -39 -245z" />
<glyph unicode="&#x252;" horiz-adv-x="1173" d="M48 -2l122 714q7 51 6 74q-5 47 -39 50h-9l-8 -2l-1 247q51 20 114 18q98 -2 162.5 -46.5t86.5 -122.5l38 49q106 125 239 122q156 -2 245.5 -113t97.5 -301q2 -63 -4 -123l-3 -21q-37 -272 -165.5 -422t-318.5 -143q-149 4 -220 146l-51 -126h-292zM774 680 q-5 158 -113 161q-81 4 -150 -68l-9 -63l-73 -400q34 -71 116 -73q179 -6 220 311q9 99 9 132z" />
<glyph unicode="&#x253;" horiz-adv-x="1127" d="M195 1222q45 365 452 361q105 -2 184 -16l-21 -217q-38 8 -77 10q-79 2 -134 -34t-70 -104l-51 -229q109 111 243 109q157 -2 247 -111.5t95 -309.5q1 -60 -7 -147q-30 -253 -153.5 -406t-327.5 -148q-160 4 -247 133l-41 -113h-298zM736 674q0 165 -115 168 q-100 4 -170 -86l-78 -433q30 -81 136 -85q93 -3 148 70t70 251z" />
<glyph unicode="&#x254;" horiz-adv-x="1042" d="M312 386q-5 -143 122 -147q90 -3 142.5 71t67.5 244l9 84q16 201 -110 206q-70 2 -113.5 -46.5t-55.5 -129.5l-307 -1q12 196 147.5 317.5t342.5 117.5q214 -5 327 -155t91 -392l-2 -17q-33 -261 -187 -412.5t-380 -145.5q-182 4 -292.5 116t-108.5 291z" />
<glyph unicode="&#x255;" horiz-adv-x="1086" d="M380 485q148 129 311 125q133 -2 210 -75t72 -190q-7 -170 -142 -269.5t-340 -97.5q-123 2 -218 47l-142 -167l-177 142l151 183q-28 85 -35 171q-12 143 22 285.5t110.5 248t188 161.5t249.5 53q190 -4 297 -122.5t101 -312.5l-308 1q5 168 -120 175q-144 5 -192 -195 l-26 -116zM533 240q44 0 82 24t43 61q3 41 -35 45q-53 5 -143 -89l-28 -28q33 -13 81 -13z" />
<glyph unicode="&#x256;" horiz-adv-x="1283" d="M41 543q31 256 156 410t326 149q138 -4 229 -116l105 550h330l-279 -1615q-11 -126 131 -130q21 -1 86 5l-19 -218q-79 -15 -167 -13q-183 2 -277.5 95.5t-76.5 261.5l35 174q-112 -119 -248 -117q-154 2 -242.5 113.5t-94.5 306.5q-2 58 6 144zM368 522q-7 -81 -6 -113 q0 -166 112 -169q97 -3 173 93l74 415q-33 92 -132 95q-89 2 -145.5 -75.5t-72.5 -224.5z" />
<glyph unicode="&#x257;" horiz-adv-x="1283" d="M639 0l9 123q-124 -147 -276 -143q-154 2 -242.5 114t-94.5 309q-2 59 6 145l7 47q42 246 168 379t307 128q138 -4 229 -116l44 236q22 180 135 271.5t317 89.5q105 -2 184 -16l-20 -217q-41 8 -77 10q-78 2 -133.5 -34t-70.5 -104l-210 -1222h-282zM368 521 q-8 -64 -7 -113q0 -165 112 -168q98 -3 174 93l74 415q-33 92 -132 95q-93 2 -149.5 -79.5t-71.5 -242.5z" />
<glyph unicode="&#x258;" horiz-adv-x="1092" d="M395 -20q-123 2 -228 52.5t-174 142.5l166 178q81 -110 227 -114q183 -4 281 198l-656 -2l18 125q38 260 185.5 403.5t366.5 139.5q221 -5 337 -158t94 -399l-3 -30q-16 -154 -100.5 -278.5t-221 -193t-292.5 -64.5zM357 645l336 2q3 100 -30 146.5t-99 49.5 q-157 4 -203 -181z" />
<glyph unicode="&#x259;" horiz-adv-x="1061" d="M576 1102q138 -2 243.5 -71t156 -188t36.5 -262l-1 -12q-28 -277 -182 -436t-380 -153q-202 6 -309.5 143t-82.5 348l27 177l601 -1q1 82 -40 135.5t-127 57.5q-81 3 -153 -16.5t-146 -48.5l-62 209q71 58 180.5 89t238.5 29zM471 239q63 -3 110 42.5t85 156.5h-287 l-7 -30q-5 -31 -4 -60q4 -106 103 -109z" />
<glyph unicode="&#x25a;" horiz-adv-x="1517" d="M557 1102q166 -2 290.5 -85t161.5 -223l282 61l-1 -115q0 -205 83 -213h31l28 2l25 -207q-70 -39 -156 -37q-103 1 -162 73t-71 242l-33 -6l-3 -19l-5 -27q-53 -281 -206 -427.5t-380 -141.5q-209 5 -317.5 149t-92.5 381l3 59l658 152q-31 116 -168 121 q-148 4 -259 -111l-137 184q60 88 176.5 139t252.5 49zM463 239q149 -5 211 195l21 77l-347 -80l-6 -24q-6 -35 -2 -65q6 -47 38.5 -74.5t84.5 -28.5z" />
<glyph unicode="&#x25b;" horiz-adv-x="1134" d="M581 451q-185 -6 -207 -122q-10 -48 29.5 -79.5t102.5 -31.5q157 0 183 102l332 1q-10 -165 -153 -255.5t-351 -86.5q-142 3 -255 44.5t-168.5 111t-52.5 163.5q3 91 62.5 157t181.5 109q-65 35 -104 91t-39 122q1 97 63 170.5t187 115t277 38.5q190 -5 305.5 -95 t118.5 -240l-324 1q-3 93 -133 93q-64 0 -114 -30t-60 -82q-15 -84 120 -90l189 -1l-36 -207z" />
<glyph unicode="&#x25c;" horiz-adv-x="1134" d="M529 656q161 6 184 106q10 43 -21.5 70.5t-93.5 30.5q-65 2 -109 -23.5t-55 -71.5l-333 -1q8 160 149.5 249.5t335.5 85.5q220 -5 343 -86t118 -222q-5 -129 -158 -212l-64 -32q74 -32 117 -92.5t41 -143.5q-3 -101 -71 -177t-198 -118t-279 -39q-193 2 -315 95t-124 247 l325 -1q3 -100 149 -100q71 0 127 33t66 89q18 100 -137 106l-188 1l36 207z" />
<glyph unicode="&#x25d;" horiz-adv-x="1516" d="M713 762q10 43 -21.5 70.5t-92.5 30.5q-66 2 -110 -23.5t-55 -71.5l-333 -1q9 178 185 269q135 69 302 66q182 -3 293 -55t145 -143l274 60l-1 -115q0 -205 83 -213h31l29 2l24 -208q-78 -39 -155 -37q-107 2 -164.5 75.5t-66.5 239.5l-59 -16q-40 -52 -88.5 -83.5 t-108.5 -57.5q74 -33 117.5 -93.5t41.5 -143.5q-3 -100 -70 -175.5t-197.5 -118.5t-280.5 -40q-125 2 -224.5 43t-156.5 118t-58 181l325 -1q3 -100 149 -100q71 0 127 33t66 89q18 100 -137 106l-188 1l36 207h137q178 0 202 105z" />
<glyph unicode="&#x25e;" horiz-adv-x="1101" d="M1026 794q-3 -73 -48.5 -132t-151.5 -112q143 -68 137 -236q-3 -101 -66 -176.5t-183.5 -118t-262.5 -39.5q-205 3 -314 154t-88 399q14 164 88 296.5t194 203t271 68.5q202 -4 316.5 -85t107.5 -222zM606 864q-95 5 -153.5 -84.5t-73.5 -245.5q-8 -66 -7 -123 q0 -191 122 -191q58 0 101 33t51 90q14 105 -103 111l-35 1l18 197h20q54 2 94 28.5t49 82.5q16 95 -83 101z" />
<glyph unicode="&#x25f;" horiz-adv-x="749" d="M664 1082l-154 -890h147l-33 -191l-138 1l-6 -34q-36 -198 -155 -303.5t-307 -103.5q-71 0 -166 18l27 256q55 -12 91 -12q142 -2 178 142l8 37l-218 -1l34 191h207l154 890h331z" />
<glyph unicode="&#x260;" horiz-adv-x="1309" d="M44 542q19 164 90.5 297.5t176.5 199.5t238 64q145 -2 227 -91l14 79q70 336 454 332q105 -2 186 -16l-21 -217q-43 9 -77 9q-80 2 -132.5 -32t-68.5 -97l-174 -1028q-30 -220 -194 -347t-405 -121q-111 2 -212 45t-170 122l156 194q87 -110 226 -113q219 -4 278 233 l8 33q-114 -112 -247 -108q-158 2 -252.5 114.5t-104.5 302.5q-4 62 4 145zM372 521l-4 -55q-7 -100 26 -161.5t103 -63.5q94 -4 169 71l85 459q-40 69 -134 73q-97 2 -161.5 -82t-81.5 -220z" />
<glyph unicode="&#x261;" horiz-adv-x="1154" d="M43 543q19 163 89.5 295t176.5 199.5t240 65.5q163 -4 246 -117l35 97l304 -1l-177 -1040q-30 -220 -193 -347t-406 -121q-108 2 -209 43t-173 124l156 194q87 -110 226 -113q219 -4 278 233l8 33q-112 -110 -247 -108q-104 1 -183 52.5t-124 148.5t-51 216q-4 60 4 146z M368 436q0 -92 33 -143t96 -53q93 -4 169 72l85 459q-40 70 -134 72q-96 2 -161 -81.5t-82 -219.5q-6 -63 -6 -106z" />
<glyph unicode="&#x262;" horiz-adv-x="1231" d="M1039 162q-83 -91 -214 -137t-293 -41q-140 1 -254 64t-170.5 171.5t-41.5 241.5l21 158q30 222 191 354.5t387 130.5q208 -4 325 -105t134 -287l-324 1q-11 69 -46 101t-107 33q-91 2 -152.5 -60t-77.5 -166l-24 -161q-5 -43 0 -81q8 -62 47.5 -97t104.5 -38 q115 -5 192 29l24 107h-194l38 212h499z" />
<glyph unicode="&#x263;" horiz-adv-x="1125" d="M405 -438q-164 3 -263.5 74t-92.5 190q5 66 39.5 130.5t73.5 121.5l188 274l-263 729l330 1l141 -428l296 428h360l-541 -781l77 -226l24 -65q35 -99 33 -167q-6 -127 -112 -202.5t-272 -78.5h-18zM495 -134q5 34 -2 69.5t-15 68.5q-49 -72 -59.5 -96t-15.5 -52l-3 -21 q-4 -46 29 -49q53 -3 66 80z" />
<glyph unicode="&#x264;" horiz-adv-x="1262" d="M1128 757q-40 44 -56 53.5t-37 11.5q-83 7 -190 -137l-55 -74l45 -115q59 -154 52 -261q-9 -122 -102 -190t-241 -66q-141 3 -220.5 68t-74.5 173q6 121 121 281l88 116l-28 73q-53 128 -113 126q-32 -1 -58.5 -20t-49.5 -38l-134 194q122 153 294 149q169 -3 288 -220 l77 83q137 140 277 138q78 -2 145.5 -38t138.5 -120zM614 252q5 21 -3 43l-16 41l-16 -21q-37 -45 -39 -72q-6 -37 21 -39q15 -2 31 11.5t22 36.5z" />
<glyph unicode="&#x265;" horiz-adv-x="1131" d="M649 117q-124 -142 -279 -138q-162 2 -240.5 119.5t-57.5 311.5l112 672h330l-114 -675q-4 -35 -2 -64q3 -100 110 -103q88 -2 158 64l138 778h329l-260 -1499h-329z" />
<glyph unicode="&#x266;" horiz-adv-x="1131" d="M463 964q122 140 280 138q162 -3 240.5 -118.5t56.5 -311.5l-112 -672h-329l113 676q4 34 2 64q-7 99 -111 102q-90 2 -157 -65l-138 -777h-329l206 1222q20 178 133 270.5t319 90.5q105 -2 184 -16l-20 -217q-41 8 -78 10q-81 2 -135.5 -35.5t-68.5 -102.5z" />
<glyph unicode="&#x267;" horiz-adv-x="1131" d="M463 964q122 140 280 138q162 -3 240.5 -118.5t56.5 -311.5l-119 -749q-20 -179 -133.5 -271t-317.5 -90q-106 2 -185 16l21 217q41 -8 77 -10q77 -2 132.5 34t70.5 104l126 752q4 34 2 65q-7 99 -111 102q-90 2 -157 -65l-138 -777h-329l206 1222q45 365 452 361 q105 -2 184 -16l-20 -217q-41 8 -78 10q-81 2 -135.5 -35.5t-68.5 -102.5z" />
<glyph unicode="&#x268;" horiz-adv-x="758" d="M436 0h-330l188 1082h330zM323 1355q-2 73 51.5 122t129.5 49q77 0 128.5 -44t53.5 -115q2 -74 -51 -122.5t-130 -48.5q-75 0 -127.5 43.5t-54.5 115.5zM708 475h-710l33 191h711z" />
<glyph unicode="&#x269;" horiz-adv-x="720" d="M506 1082l-127 -746q-7 -66 30 -97t100 -33l86 6l-19 -219q-74 -14 -166 -12q-186 2 -278.5 97t-77.5 261l122 743h330z" />
<glyph unicode="&#x26a;" horiz-adv-x="778" d="M591 0h-621l45 260h144l97 563h-144l46 260h621l-46 -260h-148l-98 -563h149z" />
<glyph unicode="&#x26b;" horiz-adv-x="845" d="M479 0h-330l266 1536h330zM837 984q-7 -121 -73 -199t-166 -78q-36 0 -68 14t-66.5 32.5t-65 30.5t-64.5 11q-67 -3 -91 -91l-188 10q7 117 74.5 197.5t166.5 78.5q45 -1 120.5 -39t98 -43.5t47.5 -4.5q65 3 94 91z" />
<glyph unicode="&#x26c;" horiz-adv-x="1134" d="M845 759h269l-39 -218h-268l-94 -541h-331l94 541l-70 1q-155 2 -242.5 71.5t-83.5 197.5q3 137 110.5 216.5t289.5 76.5l84 -6l85 438h331zM354 821q-9 -57 73 -62l78 -1l7 33l4 37q4 68 -57 71q-39 0 -69 -22t-36 -56z" />
<glyph unicode="&#x26d;" horiz-adv-x="681" d="M599 1536l-278 -1615q-11 -125 130 -130q21 -1 86 5l-19 -219q-73 -14 -166 -12q-183 2 -277 95.5t-79 262.5l273 1613h330z" />
<glyph unicode="&#x26e;" horiz-adv-x="1195" d="M521 1082h696l-39 -230l-359 -414q121 -50 181 -165t49 -272q-10 -129 -84.5 -228t-210 -155.5t-295.5 -54.5q-198 2 -318.5 96.5t-152.5 272.5l323 -2q16 -58 52.5 -82t112.5 -24q104 0 171 61t81 162q27 211 -212 216l-33 1l28 211l282 345l-317 2l-142 -822h-330 l266 1536h330z" />
<glyph unicode="&#x26f;" horiz-adv-x="1721" d="M927 -20q-96 2 -160.5 45t-87.5 118q-138 -168 -330 -164q-150 3 -221.5 114t-51.5 308l113 681h331l-115 -682l-3 -58q-3 -100 91 -103q87 -2 161 88l133 755h329l-114 -680l-4 -59q-3 -104 92 -104q43 0 79.5 19t82.5 70l132 754h329l-188 -1082h-306l21 129 q-128 -153 -313 -149z" />
<glyph unicode="&#x270;" horiz-adv-x="1721" d="M1124 -416l105 533q-126 -141 -301 -137q-96 2 -161 44t-88 119q-136 -168 -331 -164q-149 3 -220.5 114t-51.5 308l113 681h331l-115 -682l-3 -58q-3 -100 91 -103q87 -2 161 88l133 755h329l-114 -680l-4 -59q-4 -104 92 -104q43 0 79.5 19t82.5 70l132 754h329 l-260 -1498h-329z" />
<glyph unicode="&#x271;" horiz-adv-x="1721" d="M968 -215q77 -2 132.5 34t70.5 104l127 759l4 59q0 99 -93 102q-87 0 -162 -89l-131 -754h-330l114 680l4 59q0 104 -92 104q-86 0 -161 -89l-133 -754h-329l188 1082l306 1l-22 -130q132 153 314 149q97 -2 161 -44.5t86 -118.5q141 167 329 163q150 -3 222.5 -114 t52.5 -307l-120 -758q-20 -182 -136 -273.5t-315 -87.5q-106 2 -185 16l21 217q38 -8 77 -10z" />
<glyph unicode="&#x272;" horiz-adv-x="1295" d="M639 1083l-21 -129q127 152 311 148q153 -3 225 -113.5t52 -307.5l-114 -681h-330l115 683q4 35 2 64q-7 95 -112 95q-88 2 -157 -76l-143 -843q-20 -182 -136 -273.5t-314 -87.5q-105 2 -186 16l21 217q41 -8 78 -10q81 -2 135 35t68 103l200 1159z" />
<glyph unicode="&#x273;" horiz-adv-x="1290" d="M714 683q4 35 2 64q-10 95 -113 95q-87 2 -159 -77l-135 -765h-329l188 1082l307 1l-23 -130q132 153 314 149q152 -3 224 -114t52 -307l-126 -760q-7 -60 27 -94t104 -36q22 -1 85 5l-19 -219q-73 -14 -165 -12q-183 2 -277 95.5t-79 262.5z" />
<glyph unicode="&#x274;" horiz-adv-x="1143" d="M316 0h-325l188 1082h333l180 -592l103 592h327l-188 -1082h-335l-179 596z" />
<glyph unicode="&#x275;" horiz-adv-x="1126" d="M44 544q31 255 190.5 409.5t389.5 148.5q144 -2 248 -71.5t153 -195.5t33 -282l-2 -21q-20 -164 -99 -292t-204 -196t-277 -64q-213 4 -331.5 146.5t-104.5 369.5l2 27zM604 843q-150 6 -223 -214l351 1q3 36 0 74q-11 134 -128 139zM496 239q144 -6 220 201l-350 -1 q-11 -197 130 -200z" />
<glyph unicode="&#x276;" horiz-adv-x="1611" d="M1391 413h-382l-27 -155h466l-45 -258h-561q-92 0 -187 -10t-183 -8q-144 2 -247.5 71.5t-152 194t-32.5 279.5l2 22q32 251 191.5 404t391.5 151q84 -1 175 -11.5t181 -10.5h610l-46 -258h-465l-27 -152h383zM487 243q30 -2 157 5l117 587l-150 12q-94 0 -156 -73.5 t-83 -224.5l-2 -21l-7 -88q-5 -89 25.5 -141t98.5 -56z" />
<glyph unicode="&#x277;" horiz-adv-x="1640" d="M887 1103q208 -2 369.5 -81.5t238.5 -217.5t60 -316q-14 -151 -81.5 -269t-177 -180.5t-248.5 -58.5q-101 2 -177 56.5t-107 145.5q-142 -206 -341 -203q-131 2 -222 64.5t-131.5 174.5t-25.5 256q17 186 129.5 329.5t302.5 222.5t411 77zM874 844q-135 3 -253 -50.5 t-186 -153.5t-68 -261q0 -139 91 -142q123 -5 164 209l38 246h352l-28 -192l-7 -96q-6 -161 87 -164q124 -5 156 184l9 64q17 162 -80.5 258t-274.5 98z" />
<glyph unicode="&#x278;" horiz-adv-x="1345" d="M416 -4q-196 40 -290.5 180t-75.5 351l2 22q23 222 158 362q138 143 380 177l85 448h330l-86 -450q190 -39 286 -178.5t79 -353.5q-22 -243 -163 -386t-376 -174l-79 -410h-330zM956 554l6 70q4 127 -76 183l-109 -538q144 79 175 257zM379 522l-5 -69q-4 -124 74 -181 l110 538q-150 -83 -177 -274z" />
<glyph unicode="&#x279;" horiz-adv-x="763" d="M23 -23q-43 0 -101 14l42 314q53 -8 102 -10q149 -4 226 100l122 687h329l-188 -1082h-307l25 140q-102 -163 -250 -163z" />
<glyph unicode="&#x27a;" horiz-adv-x="763" d="M-36 305l102 -10q149 -4 226 100l200 1141h329l-266 -1536h-307l25 140q-105 -163 -250 -163q-43 0 -101 14z" />
<glyph unicode="&#x27b;" horiz-adv-x="917" d="M-36 305q53 -8 102 -10q149 -4 226 100l122 687h329l-201 -1161q-11 -126 130 -130q21 -1 87 5l-19 -219q-74 -14 -166 -12q-182 2 -277 95t-78 263l40 198q-56 -76 -113.5 -109.5t-123.5 -33.5q-40 -2 -100 13z" />
<glyph unicode="&#x27c;" horiz-adv-x="763" d="M768 777q-65 10 -103 10q-147 4 -225 -102l-194 -1102h-329l260 1499l307 1l-25 -142q106 164 250 164q41 0 102 -14z" />
<glyph unicode="&#x27d;" horiz-adv-x="763" d="M775 777q-53 8 -102 10q-149 2 -226 -102l-134 -764q-7 -60 27 -94t103 -36q23 -1 86 5l-19 -218q-77 -15 -166 -13q-184 2 -277 96t-78 262l195 1159l307 1l-25 -142q106 164 250 164q41 0 102 -14z" />
<glyph unicode="&#x27e;" horiz-adv-x="703" d="M-11 0l123 743q20 178 133 270.5t319 90.5q105 -2 186 -16l-21 -217q-38 8 -77 10q-81 2 -135.5 -35t-68.5 -103l-128 -743h-331z" />
<glyph unicode="&#x27f;" horiz-adv-x="701" d="M91 -416l199 1161q13 125 -129 130q-20 1 -86 -5l19 218q77 15 165 13q187 -4 278.5 -96t78.5 -262l-194 -1159h-331z" />
<glyph unicode="&#x280;" horiz-adv-x="1130" d="M659 1081q195 -5 315 -104t111 -260q-5 -101 -69 -178t-178 -126l139 -413h-314l-124 358h-131l-63 -358h-328l188 1082zM445 575l127 -1q69 2 121.5 37t63.5 93q9 52 -19 83t-88 36l-162 1z" />
<glyph unicode="&#x281;" horiz-adv-x="1130" d="M17 0l188 1082h328l-62 -358h114l249 358h344l-301 -420q74 -48 114.5 -120t35.5 -161q-11 -177 -156.5 -279t-364.5 -102h-489zM433 507l-43 -249l128 -1q66 2 119 39.5t64 96.5q9 46 -20.5 77t-88.5 36z" />
<glyph unicode="&#x282;" horiz-adv-x="1028" d="M600 311q17 74 -128.5 106.5t-229.5 87.5q-145 95 -139 247q3 97 61 177t166 127t232 47h9q195 -5 310 -99.5t117 -255.5l-328 2q2 67 -24.5 97.5t-85.5 30.5q-51 0 -94 -29.5t-53 -78.5q-17 -81 139 -111q203 -48 286 -130.5t78 -206.5q-10 -199 -222 -291 q-127 -55 -274 -52q-134 2 -248 56l-22 -95q-9 -56 23 -91.5t105 -37.5q23 -1 86 5l-19 -218q-62 -14 -123 -12q-148 4 -226.5 100.5t-63.5 256.5l66 404l299 1q2 -143 143 -143q62 0 106 29t54 77z" />
<glyph unicode="&#x283;" horiz-adv-x="833" d="M340 1170q24 184 144.5 287.5t310.5 101.5q63 0 163 -22l-24 -249q-48 12 -79 12q-66 0 -116 -31.5t-64 -98.5l-206 -1219q-24 -184 -144.5 -287.5t-310.5 -101.5q-64 0 -162 22l24 249q46 -12 78 -12q74 0 120.5 34t59.5 96z" />
<glyph unicode="&#x284;" horiz-adv-x="834" d="M340 1170q24 184 144.5 287.5t310.5 101.5q63 0 163 -22l-24 -249q-48 12 -79 12q-66 0 -116 -31.5t-64 -98.5l-206 -1219q-24 -184 -144.5 -287.5t-310.5 -101.5q-64 0 -162 22l24 249q46 -12 78 -12q74 0 120.5 34t59.5 96zM664 1h-710l33 191h711z" />
<glyph unicode="&#x285;" horiz-adv-x="834" d="M266 717q15 118 -113 122q-26 1 -86 -7l25 250q76 19 147 19q178 -4 275 -110.5t79 -275.5l-128 -767q-14 -118 113 -122q34 -2 84 8l-24 -252q-81 -18 -146 -18q-175 2 -273 109t-80 277z" />
<glyph unicode="&#x286;" horiz-adv-x="1095" d="M932 -230l-159 -185l-152 146q-131 -171 -380 -167q-159 2 -252 74.5t-90 201.5q3 134 101 210t256 78h14l113 -8l186 1050q24 184 144.5 287.5t310.5 101.5q63 0 163 -22l-25 -249q-38 12 -77 12q-73 0 -120.5 -33.5t-60.5 -96.5l-204 -1185zM248 -237q82 0 108 115 l5 26q-53 7 -63 6q-103 -5 -117 -77q-6 -35 15 -52t52 -18z" />
<glyph unicode="&#x287;" horiz-adv-x="692" d="M19 503h173l85 496l2 46q-3 57 -77 60q-21 1 -86 -5l23 243q85 27 178 27q154 -3 229.5 -90t62.5 -240l-88 -537h133l-41 -234h-132l-47 -269h-329l47 269h-173z" />
<glyph unicode="&#x288;" horiz-adv-x="752" d="M611 1351l-47 -269h173l-41 -234h-172l-160 -927q-7 -66 30 -97t99 -33q22 -1 88 5l-19 -219q-74 -14 -166 -12q-182 2 -276 94.5t-79 263.5l154 925h-134l40 234h134l47 269h329z" />
<glyph unicode="&#x289;" horiz-adv-x="1405" d="M1344 474h-194l-82 -474h-306l21 117q-121 -142 -291 -138q-159 2 -240.5 111.5t-61.5 291.5l12 92h-195l34 191h193l73 417h329l-73 -417h289l73 417h331l-73 -417h195zM613 240q104 -4 177 82l30 152l-288 -1l-16 -95q-3 -29 0 -53q3 -38 29 -61t68 -24z" />
<glyph unicode="&#x28a;" horiz-adv-x="1242" d="M553 238q85 -2 150.5 39t94.5 114t20 164l-7 54l-26 152q-9 56 -5 109q8 109 94 167t274 66l62 2l-29 -245q-54 -13 -68.5 -63.5t-11.5 -108.5l5 -65l13 -99q14 -112 9 -165q-11 -116 -87.5 -203t-212 -134t-294.5 -44q-162 3 -278.5 51t-170 130t-42.5 188 q8 88 68 221.5t70 167t16 66.5q5 30 -4 39.5t-36 16.5l28 246q192 -5 275 -61.5t77 -160.5q-3 -69 -41 -161l-75 -169q-25 -58 -34 -117q-14 -90 30 -142.5t136 -54.5z" />
<glyph unicode="&#x28b;" horiz-adv-x="1135" d="M488 -21q-214 4 -327 121.5t-92 321.5l110 660h329l-111 -663q-4 -35 -2 -67q2 -53 31 -83t83 -31q154 -7 185 189l43 271l2 49q-3 83 -84 86q-13 1 -39 -4l-13 233q134 42 221 39q132 -4 198.5 -96.5t50.5 -244.5l-53 -358q-34 -207 -172 -317t-360 -106z" />
<glyph unicode="&#x28c;" horiz-adv-x="1032" d="M530 676l-282 -676h-357l531 1082h335l155 -1082h-337z" />
<glyph unicode="&#x28d;" horiz-adv-x="1452" d="M450 612l-213 -612h-323l435 1082h278l67 -606l279 606h279l60 -1082h-308l2 611l-269 -611h-230z" />
<glyph unicode="&#x28e;" horiz-adv-x="1046" d="M529 608l-278 -608h-364l634 1244q67 144 160.5 211t222.5 67q56 0 146 -22l-25 -241h-43q-121 -1 -169 -77l-58 -107l175 -1075h-341z" />
<glyph unicode="&#x28f;" horiz-adv-x="1078" d="M532 633l262 449h368l-513 -750l-57 -332h-329l65 374l-241 707l340 1z" />
<glyph unicode="&#x290;" horiz-adv-x="1262" d="M424 262l521 -2l-58 -339q-7 -60 27 -94t104 -36q16 -1 86 6l-19 -220q-60 -14 -123 -12q-150 4 -231.5 101.5t-66.5 256.5l10 77h-715l35 202l569 618l-441 2l45 260h863l-34 -197z" />
<glyph unicode="&#x291;" horiz-adv-x="1326" d="M428 262l91 -3l92 112q126 149 222 206.5t187 54.5q114 -4 171 -74.5t53 -197.5q-8 -162 -115.5 -261t-276.5 -99h-272l-227 -271l-172 143l119 128h-341l36 202l568 618l-441 2l45 260h863l-34 -197zM887 260q107 7 118 99q3 26 -3.5 44t-35.5 21q-54 5 -154 -129 l-30 -37z" />
<glyph unicode="&#x292;" horiz-adv-x="1160" d="M421 -436q-198 2 -321.5 105.5t-144.5 288.5l324 -2q14 -68 52 -99t109 -33q94 -2 164 55t84 157q16 109 -34.5 166.5t-159.5 61.5l-144 1l36 208l370 347l-579 2l46 260h956l-39 -229l-408 -399l8 -1q140 -36 213 -156t59 -289q-11 -137 -89.5 -237.5t-211.5 -155 t-290 -51.5z" />
<glyph unicode="&#x293;" horiz-adv-x="1280" d="M391 -435q-191 4 -317.5 91t-123.5 232q3 140 121 224.5t286 82.5q159 -4 324 -106l8 26q5 66 -50 106t-143 43l-144 1l36 208l370 347l-579 2l46 260h956l-39 -229l-408 -399l15 -3q107 -26 174.5 -107t83.5 -200q18 -145 -36 -274l135 -134l-164 -171l-120 111 q-182 -115 -431 -111zM436 -176q68 0 148 40q-128 105 -216 105q-90 0 -106 -58q-25 -87 174 -87z" />
<glyph unicode="&#x294;" horiz-adv-x="1042" d="M489 564q152 5 196 215l13 70l31 229l3 47q0 93 -27.5 132t-83.5 41q-71 2 -112 -39.5t-52 -107.5l-308 -1q6 118 70.5 212t175 146.5t237.5 49.5q144 -4 245.5 -75t146.5 -196t27 -279l-23 -158q-32 -202 -127.5 -329.5t-246.5 -179.5l-66 -341h-329l99 567z" />
<glyph unicode="&#x295;" horiz-adv-x="1042" d="M327 337q-103 46 -163 141.5t-70 223.5q-6 77 3 154l20 144q24 172 100.5 299t196.5 195t270 64q188 -4 296 -122.5t102 -313.5h-307q5 173 -121 176q-150 5 -193 -208l-10 -55l-36 -259l-2 -34q-11 -166 100 -173l178 -3l-99 -566h-332z" />
<glyph unicode="&#x296;" horiz-adv-x="1042" d="M766 1200q81 -36 133 -100q89 -109 101 -264q6 -78 -3 -155l-18 -130q-38 -275 -190.5 -426t-377.5 -146q-191 4 -298 121.5t-101 314.5l307 -1q-5 -173 120 -176q150 -5 193 208l10 55l35 248l4 46q11 163 -100 173l-178 3l99 565h330z" />
<glyph unicode="&#x297;" horiz-adv-x="1042" d="M404 -177q71 -2 111.5 39.5t51.5 107.5l309 1q-6 -118 -70.5 -212t-174.5 -146t-238 -49q-143 2 -245 73.5t-148 197t-26 278.5l71 439q23 166 100.5 293t196.5 194t269 63q190 -4 297.5 -121.5t101.5 -313.5h-308q5 173 -121 176q-83 3 -135 -64t-73 -227l-69 -440 q-11 -88 -11 -117q-5 -169 111 -172z" />
<glyph unicode="&#x298;" horiz-adv-x="1382" d="M526 726q-2 75 52.5 125.5t129.5 50.5q76 0 127 -47t53 -117q2 -73 -51 -124.5t-131 -51.5q-76 0 -127 47t-53 117zM603 -20q-227 5 -364 150t-155 388q-10 120 19 282.5t103 299.5t185 228q186 153 428 148q149 -3 260.5 -68.5t178.5 -188.5t78 -280 q8 -111 -13.5 -252.5t-79 -270t-148.5 -226.5t-214.5 -155.5t-277.5 -54.5zM993 942q-10 250 -194 260q-142 7 -235 -112.5t-123 -352.5q-19 -144 -14 -223q10 -254 196 -261q122 -6 210 87.5t127 272t33 329.5z" />
<glyph unicode="&#x299;" horiz-adv-x="1126" d="M9 0l187 1082l411 -1q217 -1 328.5 -76.5t106.5 -217.5q-3 -77 -57 -136t-181 -104q102 -23 160 -83.5t56 -146.5q-2 -153 -124 -235t-349 -82h-538zM415 441l-32 -183h174q125 5 145 95q6 24 2 40q-11 44 -82 47zM451 649l120 -1q119 5 135 87q5 26 1 43q-13 42 -87 45 l-139 1z" />
<glyph unicode="&#x29a;" horiz-adv-x="1101" d="M633 1101q204 -3 313.5 -153t88.5 -397q-20 -228 -143 -383q-154 -193 -410 -189q-134 3 -239 45.5t-155 113.5t-45 160q7 183 222 265q-126 80 -122 215q5 156 141 241.5t349 81.5zM564 456l-22 1q-145 -5 -164 -129q-8 -54 21 -81t80 -30q207 -10 232 386l1 67 q-6 190 -119 190q-53 0 -89 -29t-44 -83q-13 -90 90 -94h32z" />
<glyph unicode="&#x29b;" horiz-adv-x="1323" d="M1006 162q-80 -89 -209 -135t-300 -44q-143 3 -255 65t-168.5 171t-41.5 242l23 172q20 138 100 246t206 167t273 58q180 -2 296 -68q118 187 340 186q72 0 144 -16l-21 -217q-40 8 -79 10q-80 2 -133.5 -34t-68.5 -104l-25 -147l-321 -1q-11 69 -45.5 100.5t-106.5 33.5 q-91 2 -153 -59.5t-78 -167.5l-24 -160q-12 -100 28.5 -156t123.5 -60q115 -5 192 29l24 107h-194l38 212h500z" />
<glyph unicode="&#x29c;" horiz-adv-x="1124" d="M923 0h-330l70 401h-284l-70 -401h-329l188 1082h329l-73 -422h284l73 422h330z" />
<glyph unicode="&#x29d;" horiz-adv-x="1106" d="M722 126h275l-38 -217h-265q-48 -172 -156.5 -260.5t-292.5 -85.5q-161 2 -254 76t-90 201q3 134 103 210.5t273 76.5h115l166 955h330zM588 1355q-2 74 51 122.5t130 48.5q75 0 127.5 -43.5t54.5 -115.5q2 -73 -51.5 -122t-129.5 -49q-77 0 -128.5 44t-53.5 115z M252 -238q75 0 102 91l13 57l-65 -1q-103 -6 -117 -77q-6 -35 14.5 -52.5t52.5 -17.5z" />
<glyph unicode="&#x29e;" horiz-adv-x="1096" d="M576 682l120 104l51 296h329l-259 -1497h-329l145 779l-41 -47l-299 -317h-415l459 459l-279 622l361 1z" />
<glyph unicode="&#x29f;" horiz-adv-x="901" d="M354 258h451l-46 -258h-779l188 1082h329z" />
<glyph unicode="&#x2a0;" horiz-adv-x="1284" d="M42 545q31 258 157 410.5t324 147.5q146 -4 229 -112l18 101q70 335 451 331q104 -2 185 -16l-21 -217q-41 8 -77 10q-81 2 -135.5 -35t-68.5 -103l-256 -1478h-330l101 508q-108 -115 -247 -113q-153 2 -242 115t-95 308q-2 63 4 122zM369 524l-7 -82 q-6 -93 22.5 -146.5t89.5 -55.5q101 -4 172 87l77 431q-30 82 -134 86q-180 3 -218 -298z" />
<glyph unicode="&#x2a1;" horiz-adv-x="1042" d="M801 131h-190l-23 -131h-329l23 131h-192l34 191h191l43 245l129 -2q86 3 138.5 71t74.5 227l29 215l3 47l-2 47q-10 123 -110 126q-71 2 -111.5 -39.5t-51.5 -107.5l-308 -1q6 118 70.5 212t175 146.5t237.5 49.5q144 -4 245.5 -75t146.5 -196t27 -279l-22 -157 q-32 -203 -129.5 -332t-250.5 -174l-10 -29l198 6z" />
<glyph unicode="&#x2a2;" horiz-adv-x="1043" d="M327 337q-103 46 -163 141.5t-70 223.5q-6 77 3 154l20 144q24 172 100.5 299t196.5 195t270 64q188 -4 296 -122.5t102 -313.5h-307q5 173 -121 176q-150 5 -193 -208l-10 -55l-36 -259l-2 -34q-11 -166 100 -173l178 -3l-99 -566h-332zM808 132h-710l33 191h711z" />
<glyph unicode="&#x2a3;" horiz-adv-x="1992" d="M1384 262l474 -2l-46 -260h-1183l13 117q-54 -63 -119 -101.5t-150 -36.5q-153 2 -243 114t-97 309q-3 63 4 123l2 22q30 251 157.5 406t328.5 150q139 -4 227 -117l105 550h330l-79 -454h881l-34 -197zM368 520q-8 -63 -7 -112q0 -167 111 -170q99 -3 175 95l74 415 q-33 92 -133 95q-91 2 -148 -79.5t-72 -243.5zM1063 822l-107 -616l567 614z" />
<glyph unicode="&#x2a4;" horiz-adv-x="1858" d="M1452 820l-389 2l-142 -822h-293l14 117q-122 -140 -269 -137q-146 2 -233.5 103.5t-102.5 286.5l-2 33q-2 63 4 123l3 22q34 264 160 412t321 143q137 -4 229 -117l105 550h330l-79 -454h769l-39 -229l-414 -400q144 -37 221 -155.5t64 -282.5q-10 -135 -85 -236.5 t-210 -159t-297 -55.5q-224 2 -362 99t-179 279l320 -1q64 -117 229 -117q105 -2 176.5 57t84.5 156q16 109 -35.5 166t-159.5 61l-144 1l36 208zM362 409q0 -166 112 -169q99 -4 173 93l74 415q-33 92 -132 95q-87 2 -143 -72t-76 -229q-9 -96 -8 -133z" />
<glyph unicode="&#x2a5;" horiz-adv-x="2286" d="M1383 262l104 -3l112 137l74 80q158 159 307 156q112 -4 170.5 -76t51.5 -196q-8 -160 -113.5 -260t-278.5 -100h-268l-230 -271l-172 143l123 128h-635l14 117q-122 -140 -268 -137q-192 3 -278 168q-56 109 -61 255q-2 63 4 123l11 76q42 238 165.5 372t309.5 129 q137 -4 227 -117l105 550h330l-79 -454h881l-34 -197zM363 409q0 -166 112 -169q98 -4 172 93l74 415q-33 92 -131 95q-87 2 -143 -72t-76 -229q-9 -96 -8 -133zM1063 822l-107 -616l567 614zM1925 424q-44 4 -118 -86l-62 -80l101 2q107 7 118 99q3 26 -3.5 44t-35.5 21z " />
<glyph unicode="&#x2a6;" horiz-adv-x="1581" d="M604 1351l-47 -269h403l115 17l45 2q190 -2 305.5 -96t117.5 -257l-327 1q2 67 -24.5 97.5t-86.5 30.5q-53 0 -96 -31t-52 -77q-14 -75 118 -104.5t204 -63.5q190 -89 183 -279q-6 -141 -124.5 -226t-324.5 -95l-47 -1l-576 1q-155 7 -226 104t-54 266l78 477h-134 l40 234h134l47 269h329zM1148 334q18 64 -140 87l-30 6q-168 42 -252.5 127.5t-71.5 200.5q5 44 30 96l-167 -3l-84 -489l-1 -31q0 -60 71 -62l89 -2l393 -1q140 0 163 71z" />
<glyph unicode="&#x2a7;" horiz-adv-x="1322" d="M958 -49q-24 -187 -146 -289.5t-309 -100.5q-67 2 -162 23l25 249q37 -10 77 -12q67 0 117 31t67 97l16 68q-125 -38 -254 -35q-160 2 -232 96t-52 273l83 497h-134l40 234h134l47 269h329l-47 -269l261 1l11 87q24 183 145 287.5t310 102.5q66 -2 164 -23l-25 -249 q-39 11 -78 12q-73 0 -120.5 -34t-60.5 -96zM507 246q47 -2 161 12l110 590h-262l-83 -497q-7 -50 7 -76.5t67 -28.5z" />
<glyph unicode="&#x2a8;" horiz-adv-x="1580" d="M646 848h-129l-84 -497l-4 -35q-7 -71 50 -71q29 0 96 29q-7 64 -7 127q0 207 72.5 370.5t204 249.5t299.5 82q188 -4 296 -122.5t102 -313.5h-308q5 169 -120 176q-146 5 -194 -201l-23 -111l-12 -54l66 44q144 92 265 89q119 -2 192 -74.5t69 -190.5 q-7 -170 -142 -269.5t-341 -97.5q-192 5 -302 106l-63 -35q-131 -71 -238 -68q-153 2 -228 101.5t-57 268.5l82 497h-134l40 234h134l47 269h329l-47 -269h129zM1038 241q47 0 84 23.5t40 60.5q4 40 -34 44q-41 4 -114 -49l-75 -56q34 -23 99 -23z" />
<glyph unicode="&#x2a9;" horiz-adv-x="1780" d="M59 0l147 848h-152l40 234l152 1l12 87q25 188 146.5 290t307.5 100q65 -2 163 -23l-25 -249q-38 10 -78 12q-73 0 -120.5 -33.5t-60.5 -96.5l-15 -88l569 2l-32 -120q124 142 280 138q140 -2 216.5 -99.5t78.5 -269.5q0 -57 -6 -111l-111 -699q-20 -180 -133 -271.5 t-318 -89.5q-106 2 -185 16l21 217q38 -8 77 -10q81 -2 135 35t68 103l116 702l6 72q7 141 -106 144q-88 4 -156 -64l-138 -777h-329l148 848h-241l-147 -848h-330z" />
<glyph unicode="&#x2aa;" horiz-adv-x="1439" d="M388 329q89 -57 193 -88.5t210 -31.5q104 0 152 25t59 76q14 74 -116 104q-390 88 -380 337q5 148 126 244.5t300 106.5l42 1q195 -5 310 -100.5t117 -254.5l-328 1q2 60 -21.5 94.5t-88.5 34.5q-53 0 -96 -31t-52 -77q-14 -76 121.5 -106.5t202.5 -62.5 q187 -89 180 -279q-7 -162 -156.5 -253t-377.5 -91t-427 88l-13 -66h-341l266 1536h330z" />
<glyph unicode="&#x2ab;" horiz-adv-x="1406" d="M772 262l499 -2l-46 -260h-1221l266 1536h330l-79 -454h882l-34 -196zM476 822l-102 -587l553 585z" />
<glyph unicode="&#x2ac;" horiz-adv-x="1039" d="M448 1205l129 250l160 2l-3 -9l44 -251l96 259h227l-250 -585h-175l-55 300l-161 -300h-179l-46 585h210zM583 577l44 -251l96 259h227l-250 -585h-175l-55 300l-161 -300h-178l-47 585h210l3 -251l129 250l160 2z" />
<glyph unicode="&#x2ad;" horiz-adv-x="1006" d="M793 0h-237l69 400h-323l-70 -400h-238l102 585h799zM944 871h-237l69 400h-324l-69 -400h-238l102 585h799z" />
<glyph unicode="&#x2ae;" horiz-adv-x="1313" d="M573 457l-6 -73q-7 -140 108 -143q83 -4 153 62l139 779h329l-261 -1499h-329l106 535q-127 -143 -282 -139q-141 2 -216 100t-76 270q-1 56 5 111l44 286q15 125 -126 130q-22 1 -85 -5l18 218q77 15 165 13q183 -4 274.5 -95.5t78.5 -262.5z" />
<glyph unicode="&#x2af;" horiz-adv-x="1499" d="M816 118q-127 -143 -282 -139q-139 2 -215 99.5t-77 271.5q-1 56 5 110l44 285q13 125 -130 130q-20 1 -86 -5l18 218q68 13 166 13q188 -4 278.5 -96.5t77.5 -261.5l-41 -310l-3 -49q-7 -140 108 -143q83 -4 153 62l138 779h329l-200 -1161q-7 -61 28 -94.5t104 -35.5 q20 -1 86 5l-19 -218q-68 -13 -166 -13q-182 2 -277 95t-78 263z" />
<glyph unicode="&#x2b0;" horiz-adv-x="892" d="M438 1351q89 115 213 115q116 0 177 -80.5t49 -226.5l-82 -504h-223l70 429l6 59q8 127 -83 129q-78 3 -139 -70l-96 -547h-224l216 1244h224z" />
<glyph unicode="&#x2b1;" horiz-adv-x="892" d="M438 1351q89 117 212 115q117 0 178 -80.5t49 -226.5l-82 -504h-223l70 430l6 58q8 127 -83 129q-77 3 -139 -70l-96 -547h-224l144 873q30 289 287 285q41 -1 154 -13l-18 -202l-55 9q-116 2 -144 -110z" />
<glyph unicode="&#x2b2;" horiz-adv-x="576" d="M602 1466l-136 -814q-19 -150 -106.5 -231.5t-228.5 -81.5q-52 0 -127 14l16 186l69 -8q57 -1 97 32t52 89l140 814h224zM391 1670q-2 52 34.5 87t93.5 37q56 2 95.5 -31t41.5 -87q2 -51 -34 -87t-94 -38q-57 -2 -96 32t-41 87z" />
<glyph unicode="&#x2b3;" horiz-adv-x="596" d="M666 1224q-39 15 -86 17q-91 0 -157 -68l-93 -518h-224l138 801l175 1l1 -122q91 134 210 134q30 0 60 -8z" />
<glyph unicode="&#x2b4;" horiz-adv-x="596" d="M79 888q35 -16 85 -18q90 0 157 67l94 519h224l-139 -801l-176 -1l-1 122q-91 -134 -210 -134q-29 0 -59 8z" />
<glyph unicode="&#x2b5;" horiz-adv-x="708" d="M628 351q-77 -10 -130 -8q-120 2 -177 73.5t-42 204.5l27 134q-86 -109 -193 -112q-27 -2 -59 7l25 237q37 -15 84 -17q89 -2 158 67l94 519h223l-139 -809q-12 -96 83 -99q12 -1 62 6z" />
<glyph unicode="&#x2b6;" horiz-adv-x="867" d="M106 655l139 801h223l-42 -235l109 1l175 234l270 -1l-229 -296q105 -90 101 -220q-5 -130 -112.5 -207.5t-268.5 -77.5zM394 1028l-32 -180h131q48 2 88 25t51 74q8 41 -16 59.5t-61 20.5z" />
<glyph unicode="&#x2b7;" horiz-adv-x="1122" d="M411 1456v-461l204 461h168l45 -460l164 460h235l-325 -801h-199l-52 461l-213 -461h-201l-46 801h220z" />
<glyph unicode="&#x2b8;" horiz-adv-x="850" d="M470 1008l-2 -32l222 480h267l-462 -912q-92 -206 -281 -206q-32 -1 -112 16l17 183q85 0 119.5 17.5t61.5 62.5l19 36l-128 803l238 1z" />
<glyph unicode="&#x2b9;" horiz-adv-x="561" d="M321 1562h322l-279 -346h-177z" />
<glyph unicode="&#x2ba;" horiz-adv-x="962" d="M321 1562h322l-279 -346h-177zM722 1562h322l-279 -346h-177z" />
<glyph unicode="&#x2bb;" horiz-adv-x="497" d="M407 1601l160 -83q-93 -154 -120 -294l-38 -218h-262l30 189q37 231 230 406z" />
<glyph unicode="&#x2bc;" horiz-adv-x="492" d="M298 999l-149 83q61 97 89.5 160.5t41.5 130.5l28 163h240l-24 -157q-33 -214 -226 -380z" />
<glyph unicode="&#x2bd;" horiz-adv-x="497" d="M252 1600h258l-32 -201q-11 -81 -5 -157q5 -77 21 -155l-182 -79q-58 84 -83.5 185.5t-10.5 202.5z" />
<glyph unicode="&#x2be;" horiz-adv-x="380" d="M190 1239q42 6 71 32.5t36 70.5q7 43 -12 62t-58 24l7 99q75 -6 127.5 -56.5t52.5 -129.5q0 -84 -61.5 -137t-170.5 -61z" />
<glyph unicode="&#x2bf;" horiz-adv-x="380" d="M380 1143q-84 9 -129.5 56t-34.5 126q7 55 40.5 100.5t86.5 73.5t112 32l-22 -103q-95 -13 -99 -97q-2 -35 16 -60t54 -28z" />
<glyph unicode="&#x2c0;" horiz-adv-x="746" d="M371 1033q74 2 119 46.5t60 121.5l31 214l10 74l2 47q0 83 -60 83q-81 2 -100 -94h-227q8 133 94.5 210t230.5 75q155 -4 229.5 -110t56.5 -279l-31 -230q-41 -262 -265 -328l-43 -210h-235l67 382z" />
<glyph unicode="&#x2c1;" horiz-adv-x="746" d="M637 1525q1 40 -14 66.5t-61 28.5q-101 5 -125 -146l-41 -275l-2 -53q0 -100 84 -108l100 -2l-67 -383h-235l45 213q-140 63 -154 244q-4 52 1 103l27 207q25 194 121.5 293.5t254.5 95.5q135 -4 211.5 -80.5t76.5 -205.5z" />
<glyph unicode="&#x2c2;" horiz-adv-x="927" d="M492 966l-54 -10l18 -4l415 -153l-37 -211l-710 271l38 215l804 271l-33 -230z" />
<glyph unicode="&#x2c3;" horiz-adv-x="927" d="M584 952l22 4l-54 11l-382 143l41 234l706 -270l-38 -215l-800 -270l38 210z" />
<glyph unicode="&#x2c4;" horiz-adv-x="914" d="M308 574h-236l393 772h220l126 -772h-212l-64 439l1 33l-12 -34z" />
<glyph unicode="&#x2c5;" horiz-adv-x="914" d="M505 909v-33l11 29l218 441l213 -2l-398 -770h-216l-125 772h232z" />
<glyph unicode="&#x2c6;" horiz-adv-x="1012" d="M1029 1259v-22l-250 5l-130 135l-178 -134l-262 -4l-1 24l348 273h185z" />
<glyph unicode="&#x2c7;" horiz-adv-x="965" d="M603 1404l166 132l289 6l1 -21l-351 -278h-211l-285 280l-1 20l274 -6z" />
<glyph unicode="&#x2c8;" horiz-adv-x="371" d="M373 1136h-201l78 445h201z" />
<glyph unicode="&#x2c9;" horiz-adv-x="1044" d="M957 1285h-676l28 173h675z" />
<glyph unicode="&#x2ca;" horiz-adv-x="710" d="M400 1536h367l-319 -314h-288z" />
<glyph unicode="&#x2cb;" horiz-adv-x="712" d="M693 1222h-247l-229 312l331 2z" />
<glyph unicode="&#x2cc;" horiz-adv-x="371" d="M81 -550h-201l75 431h201z" />
<glyph unicode="&#x2cd;" horiz-adv-x="885" d="M602 -344h-676l28 173h675z" />
<glyph unicode="&#x2ce;" horiz-adv-x="712" d="M417 -377h-247l-229 312l331 2z" />
<glyph unicode="&#x2cf;" horiz-adv-x="710" d="M124 -63h367l-319 -314h-288z" />
<glyph unicode="&#x2d0;" horiz-adv-x="618" d="M579 1081l-215 -280l-25 -1l-126 281h366zM221 281l26 1l128 -282h-352z" />
<glyph unicode="&#x2d1;" horiz-adv-x="618" d="M579 1081l-215 -280l-25 -1l-126 281h366z" />
<glyph unicode="&#x2d2;" horiz-adv-x="381" d="M23 270q42 6 71 32.5t36 70.5q7 43 -12 62t-58 24l7 99q75 -6 127.5 -56.5t52.5 -129.5q0 -84 -61.5 -137t-170.5 -61z" />
<glyph unicode="&#x2d3;" horiz-adv-x="380" d="M230 173q-81 6 -133.5 58t-52.5 126q0 86 64 140.5t168 61.5l-9 -98q-43 -6 -72 -33t-35 -72q-6 -44 14 -61.5t58 -22.5z" />
<glyph unicode="&#x2d4;" horiz-adv-x="660" d="M177 341l43 246h206l-43 -246h146l-34 -193h-497l34 193h145z" />
<glyph unicode="&#x2d5;" horiz-adv-x="660" d="M43 394l34 193h493l-34 -193h-145l-44 -246h-201l43 246h-146z" />
<glyph unicode="&#x2d6;" horiz-adv-x="660" d="M198 461l32 180h206l-32 -180h146l-34 -193h-145l-32 -180h-206l32 180h-146l34 193h145z" />
<glyph unicode="&#x2d7;" horiz-adv-x="705" d="M593 461l-35 -193h-536l34 193h537z" />
<glyph unicode="&#x2d8;" horiz-adv-x="909" d="M947 1540q-6 -143 -112.5 -228t-263.5 -81q-149 2 -242.5 85.5t-95.5 223.5l222 -2q-2 -124 116 -128q63 -1 102.5 33.5t50.5 94.5z" />
<glyph unicode="&#x2d9;" horiz-adv-x="556" d="M239 1373q-2 66 45.5 109.5t113.5 43.5q67 2 114 -38.5t49 -104.5t-43.5 -108t-114.5 -44q-67 -2 -114.5 38.5t-49.5 103.5z" />
<glyph unicode="&#x2da;" horiz-adv-x="664" d="M236 1287q-2 88 65 149.5t160 61.5q86 0 148.5 -57.5t62.5 -139.5q0 -89 -65.5 -148t-157.5 -59q-87 0 -149 55t-64 138zM354 1288q-6 -40 14.5 -69t62.5 -29q44 0 80.5 32.5t42.5 77.5q6 39 -14.5 69.5t-62.5 30.5q-46 0 -81.5 -33.5t-41.5 -78.5z" />
<glyph unicode="&#x2db;" horiz-adv-x="636" d="M306 0l-67 -42q-89 -57 -97 -125q-7 -52 39 -54q21 -1 69 17l27 -171q-65 -41 -154 -41q-98 0 -159.5 56t-61.5 150q0 82 49 147.5t165 123.5z" />
<glyph unicode="&#x2dc;" horiz-adv-x="967" d="M998 1533q-7 -121 -73 -199t-166 -78q-36 0 -68 14t-66.5 32.5t-65 30.5t-64.5 11q-67 -3 -91 -91l-188 10q7 117 74.5 197.5t166.5 78.5q45 -1 120.5 -39t98 -43.5t47.5 -4.5q65 3 94 91z" />
<glyph unicode="&#x2dd;" horiz-adv-x="867" d="M785 1535h294l-310 -300h-255zM382 1535h295l-283 -300h-256z" />
<glyph unicode="&#x2de;" horiz-adv-x="564" d="M-152 764l408 91l2 -160q9 -156 85 -161h30l29 2l24 -214q-73 -40 -157 -38q-103 2 -161 72.5t-72 227.5l-231 -59z" />
<glyph unicode="&#x2df;" horiz-adv-x="725" d="M197 1296l177 153l-121 155l140 121l121 -154l175 152l119 -146l-178 -155l122 -155l-140 -121l-122 154l-174 -151z" />
<glyph unicode="&#x2e0;" horiz-adv-x="872" d="M483 1015l3 -76l214 517h283l-411 -773q41 -138 57 -178.5t15 -77.5q-2 -93 -73 -150.5t-179 -57.5q-104 0 -169 52.5t-62 139.5q1 42 21 81.5t40 74.5l101 167l-132 722l256 1zM436 490l-9 42l-33 -45q-19 -26 -25 -52l-2 -29q0 -19 15 -21q27 -2 43.5 34t10.5 71z" />
<glyph unicode="&#x2e1;" horiz-adv-x="426" d="M330 655h-224l216 1244h224z" />
<glyph unicode="&#x2e2;" horiz-adv-x="806" d="M570 875q14 62 -102 86t-178 66q-101 68 -101 182q0 117 95 188t243 69q144 -2 231 -73t91 -189l-225 1q-2 104 -104 104q-38 0 -71 -20t-44 -58q-19 -63 102.5 -88t178.5 -61q105 -65 103 -192q-3 -109 -88 -176.5t-232 -76.5l-40 -1q-130 2 -223 76.5t-99 198.5l210 -3 q-2 -60 24.5 -87.5t88.5 -27.5q56 0 93 21.5t47 60.5z" />
<glyph unicode="&#x2e3;" horiz-adv-x="874" d="M530 1217l159 239h263l-288 -406l145 -394l-235 -1l-79 255l-169 -255h-266l300 428l-136 372l237 1z" />
<glyph unicode="&#x2e4;" horiz-adv-x="841" d="M334 655l24 105q-87 33 -130.5 121.5t-36.5 209.5q9 170 109.5 274.5t257.5 100.5q137 -4 218.5 -88t81.5 -222l-204 1q0 114 -85 117q-74 2 -119.5 -69t-46.5 -174q-4 -104 71 -112l126 -2l-46 -262h-220z" />
<glyph unicode="&#x2e5;" horiz-adv-x="747" d="M621 0h-338v1196h-288v260h626v-1456z" />
<glyph unicode="&#x2e6;" horiz-adv-x="747" d="M621 0h-338v961h-288v260h288v235h338v-1456z" />
<glyph unicode="&#x2e7;" horiz-adv-x="747" d="M621 0h-338v598h-288v260h288v598h338v-1456z" />
<glyph unicode="&#x2e8;" horiz-adv-x="747" d="M621 0h-338v235h-288v260h288v961h338v-1456z" />
<glyph unicode="&#x2e9;" horiz-adv-x="747" d="M621 0h-626v260h288v1196h338v-1456z" />
<glyph unicode="&#x2ea;" horiz-adv-x="927" d="M457 260h393v-260h-730v908h337v-648z" />
<glyph unicode="&#x2eb;" horiz-adv-x="934" d="M457 583h400v-260h-400v-323h-337v908h337v-325z" />
<glyph unicode="&#x2ec;" horiz-adv-x="965" d="M316 -265l166 132l289 6l1 -21l-351 -278h-212l-285 280v20l274 -6z" />
<glyph unicode="&#x2ed;" horiz-adv-x="813" d="M862 1396h-646l33 185h645zM818 1146h-645l33 185h645z" />
<glyph unicode="&#x2ee;" horiz-adv-x="846" d="M314 974l-155 82q91 158 117 284l38 220h263l-30 -185q-37 -227 -233 -401zM668 973l-160 83q94 159 120 299l35 205h263l-31 -193q-33 -219 -227 -394z" />
<glyph unicode="&#x2ef;" horiz-adv-x="688" d="M177 -341l2 -24l6 19l148 274h140l-265 -479h-150l-99 479h167z" />
<glyph unicode="&#x2f0;" horiz-adv-x="687" d="M44 -551h-170l264 479h156l97 -479h-145l-49 273v21l-8 -22z" />
<glyph unicode="&#x2f1;" horiz-adv-x="700" d="M173 -303l-46 -8l10 -2l297 -101l-24 -134l-499 177l25 139l561 177l-20 -152z" />
<glyph unicode="&#x2f2;" horiz-adv-x="700" d="M237 -313l12 3l-45 8l-263 90l28 156l495 -175l-25 -140l-556 -176l24 134z" />
<glyph unicode="&#x2f3;" horiz-adv-x="658" d="M8 -231q-2 73 53.5 126.5t135.5 53.5q76 0 129.5 -48t55.5 -120q2 -76 -53.5 -126.5t-133.5 -50.5q-76 0 -130.5 47t-56.5 118zM129 -230q-5 -25 8.5 -45t39.5 -20q31 0 54 23.5t28 51.5q5 24 -6 45t-38 22q-30 0 -56 -24t-30 -53z" />
<glyph unicode="&#x2f4;" horiz-adv-x="712" d="M517 203h-247l-229 312l331 2z" />
<glyph unicode="&#x2f5;" horiz-adv-x="1212" d="M517 203h-247l-229 312l331 2zM1016 203h-247l-229 312l331 2z" />
<glyph unicode="&#x2f6;" horiz-adv-x="1210" d="M224 517h367l-319 -314h-288zM723 517h367l-319 -314h-288z" />
</font>
</defs>
</svg>
