<svg xmlns="http://www.w3.org/2000/svg" viewBox="0 0 16 16"><path d="M15.77,4.234a4.965,4.965,0,0,0-1.455-2.193A5.836,5.836,0,0,0,12.257.912,8.216,8.216,0,0,0,9.716.535,9.766,9.766,0,0,0,2.644,3.471,9.169,9.169,0,0,0,1,5.7,8.914,8.914,0,0,0,.12,8.287a6.5,6.5,0,0,0,.131,3.061,5.55,5.55,0,0,0,1.622,2.48,6.276,6.276,0,0,0,2.244,1.241,9.227,9.227,0,0,0,2.786.4A9.732,9.732,0,0,0,9.856,15a11.289,11.289,0,0,0,2.8-1.366l.23-.152a.763.763,0,0,0,.214-1.057.8.8,0,0,0-.13-.149l-.531-.468a5.8,5.8,0,0,0,.519-.327,7.234,7.234,0,0,0,1.929-2A6.926,6.926,0,0,0,15.9,6.911,5.57,5.57,0,0,0,15.77,4.234ZM15.146,6.78a6.18,6.18,0,0,1-.9,2.29,6.522,6.522,0,0,1-1.728,1.788,5.03,5.03,0,0,1-1.277.651,4.283,4.283,0,0,1-1.36.227,1.855,1.855,0,0,1-1.293-.38,1.05,1.05,0,0,1-.283-.418,3.213,3.213,0,0,1-.677.461,3.091,3.091,0,0,1-1.4.314,2.218,2.218,0,0,1-1.851-.731,2.538,2.538,0,0,1-.33-2.057A5.406,5.406,0,0,1,5.48,6.1c.107-.107.33-.286.33-.286a.835.835,0,0,1,.292.238A1.315,1.315,0,0,1,6,7.325,2.11,2.11,0,0,0,5.649,9.4a1.221,1.221,0,0,0,1.054.657,1.7,1.7,0,0,0,1.026-.393,2.628,2.628,0,0,0,.784-1.054l.66-1.548c.011-.027.3-.71.487-1.117a1.5,1.5,0,0,1,.979-.984,3.169,3.169,0,0,1,.823-.092c.216,0,.372.014.372.014l.416.039a3.54,3.54,0,0,0-1.173,1.639c-.312.717-.532,1.222-.915,2.345-.286.839-.138,1.02.287,1.043a1.27,1.27,0,0,0,.529-.115,2.344,2.344,0,0,0,.566-.355,4.562,4.562,0,0,0,1.677-2.835A2.672,2.672,0,0,0,12.48,4.1,4.158,4.158,0,0,0,9.467,3.083a7.1,7.1,0,0,0-1.84.234A6.235,6.235,0,0,0,6,4.005,7.067,7.067,0,0,0,3.865,5.956,6.264,6.264,0,0,0,2.789,8.511a3.524,3.524,0,0,0,.781,3.243A5.232,5.232,0,0,0,6.688,13.26a7.071,7.071,0,0,0,2.492-.045,7.314,7.314,0,0,0,2.225-.886l.278-.174.784.693-.23.153a10.558,10.558,0,0,1-2.615,1.273A8.941,8.941,0,0,1,6.9,14.7a8.442,8.442,0,0,1-2.555-.361,5.5,5.5,0,0,1-1.972-1.087,4.776,4.776,0,0,1-1.4-2.133,5.731,5.731,0,0,1-.108-2.7,8.151,8.151,0,0,1,.809-2.367A8.384,8.384,0,0,1,3.184,4.009,9,9,0,0,1,9.716,1.3a7.473,7.473,0,0,1,2.306.34,5.091,5.091,0,0,1,1.792.979,4.2,4.2,0,0,1,1.229,1.85,4.812,4.812,0,0,1,.1,2.315ZM9.314,5.5a.2.2,0,1,1-.245.312l-.13-.1a1.877,1.877,0,0,1-.592.159v.093a.2.2,0,0,1-.4,0V5.868a1.871,1.871,0,0,1-.591-.159l-.131.1A.2.2,0,1,1,6.982,5.5L7,5.486a1.439,1.439,0,0,1-.17-.161.2.2,0,0,1,.3-.261,1.462,1.462,0,0,0,2.043,0,.2.2,0,0,1,.3.261h0a1.439,1.439,0,0,1-.17.161Z"/></svg>
