<?xml version="1.0" standalone="no"?>
<!DOCTYPE svg PUBLIC "-//W3C//DTD SVG 1.1//EN" "http://www.w3.org/Graphics/SVG/1.1/DTD/svg11.dtd" >
<svg xmlns="http://www.w3.org/2000/svg" xmlns:xlink="http://www.w3.org/1999/xlink" version="1.1">
<metadata></metadata>
<defs>
<font id="roboto_monoitalic" horiz-adv-x="1202" >
<font-face units-per-em="2048" ascent="1536" descent="-512" />
<missing-glyph horiz-adv-x="500" />
<glyph horiz-adv-x="0" />
<glyph horiz-adv-x="0" />
<glyph />
<glyph unicode="&#x9;" />
<glyph unicode=" " />
<glyph unicode="!" d="M648 471h-182l171 985h182zM384 94q1 49 31.5 81.5t80.5 34.5q24 1 45 -7t36 -23t23 -35.5t8 -44.5q-1 -49 -33 -79.5t-80 -32.5q-24 -1 -44.5 6.5t-35 21.5t-23 34t-8.5 44z" />
<glyph unicode="&#x22;" d="M619 1419l-77 -362l-128 -1l61 385l17 104l145 -10zM965 1419l-77 -362h-127l60 377l17 102h147z" />
<glyph unicode="#" d="M651 410h-251l-149 -410h-145l150 410h-230l24 137h254l129 354h-249l25 139h274l152 416h145l-153 -416h250l153 416h144l-152 -416h197l-24 -139h-223l-128 -354h217l-24 -137h-242l-149 -410h-145zM449 547h250l129 354h-251z" />
<glyph unicode="$" d="M844 382q6 54 -10.5 95t-48.5 72.5t-74 54.5t-87 40q-74 29 -138 67t-110.5 89.5t-70.5 118t-18 153.5t38.5 156.5t85.5 120t124 82t155 41.5l39 220h146l-40 -222q86 -17 142 -61.5t88 -107.5t43 -138.5t6 -154.5h-180q3 51 -3 105t-27.5 98t-60.5 73t-102 31 q-56 1 -103.5 -15.5t-83 -48t-58.5 -76.5t-29 -100q-6 -57 11 -98.5t49.5 -72.5t75.5 -54t90 -41q73 -30 136.5 -67.5t109 -88t69 -116.5t17.5 -153q-6 -92 -41.5 -162.5t-93 -120t-133 -79t-161.5 -38.5l-35 -192h-146l35 193q-88 13 -151 52.5t-102 98t-56 133.5t-12 160 h181q-4 -59 6 -111t37 -91t71.5 -62.5t109.5 -24.5q58 -2 111 13.5t95 46t69.5 76.5t34.5 106z" />
<glyph unicode="%" d="M141 1193q7 59 30.5 111.5t61.5 91.5t89 61t114 21q60 -2 104.5 -25t73.5 -62t41.5 -90t8.5 -107l-7 -77q-7 -59 -30.5 -110.5t-61 -90.5t-89 -61t-113.5 -20q-60 1 -104.5 24.5t-73.5 62.5t-42 89t-9 106zM272 1115q-2 -28 1.5 -56t15.5 -51t33 -38t55 -15t59.5 14 t42.5 36.5t27 51.5t14 59l7 79q2 28 -1.5 56.5t-15.5 52t-33 38.5t-55 16q-35 0 -60 -14t-42.5 -37.5t-27.5 -52.5t-13 -59zM575 337q7 59 30.5 111.5t61.5 91.5t89.5 60.5t114.5 20.5q60 -2 104.5 -25t73.5 -62t42 -89.5t9 -106.5l-8 -78q-7 -59 -30.5 -111t-61 -90 t-89 -60t-113.5 -21q-60 1 -105 24.5t-74 62t-42 89t-9 106.5zM706 258q-2 -28 2 -56t16 -51.5t33 -38t55 -15.5q34 0 59.5 14t42.5 37t27 52t14 59l7 80q2 28 -1.5 56.5t-15 51.5t-32.5 38t-55 16q-35 0 -60.5 -14t-43 -37t-27.5 -52t-14 -59zM319 189l-103 65l727 1032 l104 -65z" />
<glyph unicode="&#x26;" d="M69 366q6 75 35.5 136t75 112.5t102.5 94t116 79.5q-19 39 -37 79t-30.5 81t-19 83.5t-3.5 87.5q6 80 36.5 147t81 114.5t119 73t150.5 23.5q62 -2 113.5 -26t88 -64.5t55 -94.5t14.5 -116q-3 -57 -25 -103.5t-55.5 -85.5t-75 -72.5t-84.5 -64.5l-114 -87l230 -396 q50 70 80 145t44 160h160q-13 -127 -62.5 -236.5t-138.5 -200.5l133 -235h-202l-61 108q-78 -59 -166.5 -94t-188.5 -33q-84 1 -155 29t-121 78.5t-75.5 121t-19.5 156.5zM446 131q76 -2 143.5 28t128.5 72l-240 430l-31 -25q-32 -25 -64.5 -54.5t-60 -63.5t-46.5 -72.5 t-25 -80.5q-6 -50 4.5 -92.5t36 -73.5t64.5 -49t90 -19zM485 1121q-4 -30 -1 -60t10.5 -58.5t19 -56.5t23.5 -55l128 92q50 37 86 83t42 111q3 27 -2.5 53.5t-19 47.5t-35.5 34.5t-53 13.5q-43 1 -77.5 -16t-60 -46t-41 -66.5t-19.5 -76.5z" />
<glyph unicode="'" d="M762 1416l-76 -359l-136 -1l61 383l16 105l154 -9z" />
<glyph unicode="(" d="M345 587q14 98 40.5 201.5t65 205.5t90.5 198t117 181t144.5 154t174.5 117l27 -124q-110 -81 -190.5 -187.5t-137.5 -227t-93 -251.5t-56 -262l-2 -15q-11 -72 -18 -154t-6 -168t11 -172t34 -166t64 -150.5t100 -124.5l-47 -112q-78 55 -135.5 130t-97 162.5 t-62.5 183.5t-32.5 193.5t-7 193.5t14.5 183z" />
<glyph unicode=")" d="M821 585q-14 -98 -40.5 -201.5t-65 -205t-90.5 -198t-117.5 -181t-145 -154t-174.5 -116.5l-28 115q111 81 191.5 188.5t137.5 230t93 254.5t56 263l2 15q10 71 17 153t6 168t-11.5 173t-34.5 167.5t-63.5 150.5t-98.5 124l46 112q79 -55 137 -130t97.5 -162.5 t62.5 -183.5t32.5 -194t7 -194t-14.5 -183z" />
<glyph unicode="*" d="M531 686l-350 96l77 170l335 -153l42 425h174l-94 -422l371 148l25 -184l-387 -94l200 -328l-152 -105l-151 364l-259 -351l-133 111z" />
<glyph unicode="+" d="M721 781h395l-32 -184h-395l-78 -451h-181l79 451h-395l33 184h393l74 425h181z" />
<glyph unicode="," d="M530 44q-19 -113 -78 -210.5t-148 -169.5l-110 65q53 70 87.5 147t49.5 164l32 179h196z" />
<glyph unicode="-" horiz-adv-x="1203" d="M947 561h-743l27 152h743z" />
<glyph unicode="." d="M398 115q0 31 10.5 58.5t29 47.5t45 31.5t58.5 11.5q31 1 57 -9t44.5 -29t29 -44.5t10.5 -56.5q0 -32 -11 -58t-30 -45.5t-46 -30.5t-58 -11q-30 0 -55.5 9.5t-44 27.5t-29 43t-10.5 55z" />
<glyph unicode="/" d="M285 -125h-171l864 1581h170z" />
<glyph unicode="0" d="M1051 559q-17 -112 -56.5 -217.5t-105 -187t-160 -129.5t-221.5 -45q-80 2 -141.5 26.5t-106 65.5t-72.5 96t-42.5 118.5t-16.5 132.5t7 138l54 341q11 74 32 146.5t53.5 137.5t76.5 120t100.5 94.5t126.5 61t155 19.5q81 -2 142 -26.5t105.5 -66t72.5 -96.5t42 -119 t16 -133t-7 -138zM322 602l622 432q1 57 -9 109t-35.5 92t-68 64t-106.5 26q-85 3 -145.5 -29.5t-102 -87.5t-65 -125.5t-34.5 -143.5zM917 844l-619 -428q-1 -56 9.5 -107t36 -90t68 -63t105.5 -26q85 -3 145.5 30t101.5 88.5t64.5 126t34.5 143.5z" />
<glyph unicode="1" d="M648 0h-181l211 1215l-396 -144l32 177l562 208h19z" />
<glyph unicode="2" d="M942 0h-927l22 141l538 523q41 41 88 86.5t88 96.5t70.5 107t37.5 118q6 51 -5 96.5t-38 79.5t-68 54.5t-94 22.5q-71 2 -126 -19.5t-95.5 -61t-65.5 -95t-34 -121.5l-180 -1q10 100 53 183.5t111 143t156.5 92t189.5 30.5q86 -2 159 -30.5t124.5 -80.5t77.5 -124.5 t19 -160.5q-6 -77 -39.5 -147t-81 -133t-104 -119t-109.5 -106l-446 -424h703z" />
<glyph unicode="3" d="M416 817l119 -2q61 0 117.5 17t101.5 49.5t74.5 81t37.5 113.5q6 54 -3 99.5t-34.5 78.5t-66 51.5t-97.5 20.5q-59 1 -109 -17t-88.5 -51t-63.5 -79.5t-35 -103.5l-179 -1q10 93 52.5 168t108 127.5t149 80.5t174.5 27q90 -2 162.5 -31.5t122 -82t73 -126.5t15.5 -165 q-5 -60 -29 -110.5t-61.5 -91.5t-84.5 -73t-99 -55q51 -22 87.5 -55.5t58 -76.5t29.5 -92.5t4 -103.5q-9 -101 -51.5 -182t-110 -138t-155.5 -86.5t-187 -27.5q-90 2 -165 31t-127.5 81.5t-80.5 126.5t-23 166l180 -1q-4 -56 9.5 -102t42 -79t72.5 -52t101 -20 q65 -2 119.5 17.5t95.5 56t67 89t33 116.5q7 62 -8 109t-47 79t-80 49t-108 19l-140 1z" />
<glyph unicode="4" d="M878 489h197l-26 -151h-197l-59 -338h-181l59 338h-644l21 119l799 999h199zM259 489h438l132 723l-39 -58z" />
<glyph unicode="5" d="M254 733l197 723h727l-32 -180h-571l-116 -389q110 65 238 63q101 -2 171.5 -43t113 -108.5t58.5 -153t7 -175.5q-10 -105 -50 -196t-106 -157t-156 -103t-200 -34q-90 2 -161.5 32t-122 83.5t-78 127t-30.5 161.5h169q3 -54 18 -99.5t43.5 -79.5t71 -53.5t99.5 -21.5 q73 -2 130 26t96.5 76t63 110t31.5 128q6 58 -3 113.5t-35 99t-71 71.5t-110 30q-73 2 -130 -22.5t-113 -67.5z" />
<glyph unicode="6" d="M960 1458l-17 -166h-12q-120 1 -214 -34.5t-165 -99.5t-121.5 -153t-84.5 -196q64 66 144.5 106.5t174.5 39.5q98 -2 167 -43.5t111 -108t58 -150.5t8 -171q-9 -102 -47.5 -194t-102.5 -161.5t-152 -109.5t-197 -37q-111 3 -188.5 54t-124.5 131t-63.5 178t-5.5 195 l12 87q16 113 47 219t78 198.5t111.5 168.5t148 131t187 85.5t228.5 30.5h20zM629 801q-51 2 -97.5 -14t-86 -44t-71.5 -66t-55 -81l-8 -64q-4 -37 -4 -81t7 -87.5t21.5 -84.5t38.5 -73t60 -52t85 -22q71 -2 126 27t94 78t62 111t30 125q6 54 -0.5 111.5t-30 105t-65 78.5 t-106.5 33z" />
<glyph unicode="7" d="M1180 1342l-791 -1342h-198l786 1294h-761l26 162h956z" />
<glyph unicode="8" d="M1121 1085q-5 -61 -27.5 -112.5t-58 -93.5t-81.5 -76t-98 -59q46 -27 81.5 -64t58 -81t32 -94t5.5 -103q-8 -99 -51.5 -178.5t-111.5 -134t-155.5 -83t-183.5 -26.5q-89 2 -164.5 30.5t-129.5 81t-81.5 126.5t-19.5 167q6 68 30.5 124.5t64.5 102.5t92 81.5t112 61.5 q-78 54 -115.5 136t-30.5 176t45.5 170.5t101 130.5t144 82t174.5 26q85 -2 155.5 -31t120 -80t74 -122t17.5 -158zM854 406q6 54 -6.5 102.5t-41 84.5t-72 57.5t-100.5 23.5q-63 1 -118 -20t-96.5 -60t-67.5 -92t-33 -114q-6 -56 6 -103t40.5 -81t72.5 -53.5t101 -20.5 q62 -2 116.5 18t96.5 56.5t69 88t33 113.5zM938 1082q5 48 -5.5 91.5t-35.5 77t-63.5 53.5t-89.5 21q-57 1 -105 -19t-84 -55.5t-58 -84t-28 -102.5q-5 -48 5 -91.5t34.5 -76t63 -52t89.5 -20.5q56 -1 104.5 18.5t85 55t59 83t28.5 101.5z" />
<glyph unicode="9" d="M286 163q123 -1 216.5 31t163.5 92.5t118.5 148t80.5 198.5q-63 -70 -143.5 -109t-176.5 -37q-98 2 -166.5 44.5t-110.5 110.5t-57.5 152.5t-7.5 170.5q10 102 48 195.5t102 164.5t152.5 112t198.5 39q80 -1 140.5 -27t105 -69t73 -100.5t43.5 -122t17 -134t-6 -136.5 l-9 -67q-16 -114 -45.5 -219.5t-75 -197t-108.5 -166t-146 -127.5t-186.5 -82.5t-229.5 -29.5h-23l16 165h16zM582 640q52 -2 99.5 15t87.5 47t72.5 69.5t55.5 83.5l7 59q3 37 3 81t-6.5 89t-21 87.5t-38.5 75.5t-59.5 53.5t-85.5 22.5q-72 2 -127.5 -28.5t-94.5 -80.5 t-62 -113t-30 -126q-6 -53 0.5 -111.5t29 -107.5t64 -81.5t106.5 -34.5z" />
<glyph unicode=":" d="M447 115q0 31 10.5 58.5t29 47.5t45 31.5t58.5 11.5q31 1 57 -9t44.5 -29t29 -44.5t10.5 -56.5q0 -32 -11 -58t-30 -45.5t-46 -30.5t-58 -11q-30 0 -55.5 9.5t-44 27.5t-29 43t-10.5 55zM598 991q0 31 10.5 58.5t29 47.5t45 31.5t58.5 11.5q31 1 57 -9t44.5 -29t29 -44.5 t10.5 -56.5q0 -32 -11 -58t-30 -45.5t-46 -30.5t-58 -11q-30 0 -55.5 9.5t-44 27.5t-29 43t-10.5 55z" />
<glyph unicode=";" d="M589 991q0 31 10.5 58.5t29 47.5t45 31.5t58.5 11.5q31 1 57 -9t44.5 -29t29 -44.5t10.5 -56.5q0 -32 -11 -58t-30 -45.5t-46 -30.5t-58 -11q-30 0 -55.5 9.5t-44 27.5t-29 43t-10.5 55zM658 44q-19 -113 -78 -210.5t-148 -169.5l-110 65q53 70 87.5 147t49.5 164l32 179 h196z" />
<glyph unicode="&#x3c;" d="M416 663l-65 -20l38 -15l563 -240l-33 -187l-758 379l26 146l889 378l-30 -201z" />
<glyph unicode="=" d="M1066 780h-868l29 161h867zM994 365h-868l29 160h867z" />
<glyph unicode="&#x3e;" d="M226 913l32 183l793 -379l-26 -145l-924 -380l36 201l659 240l71 20l-45 16z" />
<glyph unicode="?" d="M470 409q6 63 19.5 110.5t36 88t56.5 76.5t82 77q39 33 81 70t78.5 79t62.5 89.5t34 101.5q7 50 -3.5 89.5t-35.5 67t-63.5 43t-87.5 16.5q-50 1 -95 -11.5t-81 -37.5t-61 -63t-35 -88l-179 -1q10 89 51 157t103.5 113.5t141.5 68.5t165 21q84 -2 154.5 -27t119.5 -72 t73.5 -115t17.5 -156q-7 -78 -39 -143t-79.5 -120.5t-104 -104t-112.5 -93.5q-59 -49 -85.5 -105t-37.5 -130zM388 94q1 49 31.5 81.5t80.5 34.5q24 1 45 -7t36 -23t23 -35.5t8 -44.5q-1 -49 -33 -79.5t-80 -32.5q-24 -1 -44.5 6.5t-35.5 21.5t-23 34t-8 44z" />
<glyph unicode="@" d="M1160 795q-7 -43 -18 -95.5t-29 -106t-43.5 -103.5t-60 -88.5t-79 -61.5t-100.5 -22q-60 2 -95.5 33.5t-46.5 88.5q-20 -24 -42 -46t-47 -38.5t-53.5 -26.5t-61.5 -10q-41 0 -68 18.5t-43 48t-23 67t-8.5 76t2 74.5t7.5 63q8 51 23 108t38 112t55 105t73.5 87.5t93 59 t114.5 19.5q109 -3 174 -91l-118 -505q-3 -18 -5.5 -40t0.5 -42t14.5 -34t37.5 -15q38 -2 66.5 17.5t50 51.5t36.5 73t25 82t15.5 78.5t9.5 62.5q7 57 9 118t-5.5 120t-26.5 112.5t-53 94t-85.5 65.5t-124.5 27q-84 2 -155.5 -25t-130 -75.5t-105 -114t-81 -138t-57.5 -149 t-35 -146.5q-11 -63 -15 -129t3 -128.5t27 -117.5t57.5 -97t94 -66.5t136.5 -25.5q63 0 122 17.5t113 46.5l22 -119q-57 -38 -124 -55.5t-135 -16.5q-98 1 -171.5 30t-125 78.5t-82.5 116.5t-45 143.5t-13 159t14 164.5q14 85 42.5 176t72 177.5t101.5 164t130.5 135t158 90 t185.5 30.5q89 -2 156 -31.5t113.5 -79t75 -114.5t41.5 -138t13 -150t-11 -150zM476 666q-2 -12 -5 -31.5t-4.5 -43t-0.5 -47t7 -43t18 -32.5t32 -14q29 -2 53.5 8t45 27.5t38 39t31.5 43.5l114 450q-13 5 -25 8.5t-26 4.5q-47 3 -84 -14t-66 -46t-50.5 -67.5t-36.5 -80.5 t-25 -84t-16 -78z" />
<glyph unicode="A" d="M807 377h-469l-180 -377h-188l709 1456h152l195 -1456h-173zM413 538h375l-76 630z" />
<glyph unicode="B" d="M62 0l253 1456l409 -1q84 -3 160.5 -27.5t134 -72t88.5 -117t23 -162.5q-5 -61 -28.5 -109.5t-60 -86.5t-84 -67.5t-99.5 -51.5q52 -20 90 -54.5t63 -78t35.5 -94.5t6.5 -105q-7 -103 -54 -183t-119.5 -135t-164.5 -83t-188 -28h-465zM362 681l-91 -524l266 -2 q61 1 117.5 20t102.5 53.5t76.5 84.5t38.5 113q7 54 -5.5 99.5t-40.5 79t-70.5 53t-96.5 22.5zM389 835l240 -2q55 1 109 17t98 47t74 76t37 104q7 54 -8.5 94.5t-46.5 67.5t-74.5 41.5t-92.5 16.5l-256 1z" />
<glyph unicode="C" d="M1046 440q-20 -99 -66 -184.5t-114.5 -147.5t-157 -96.5t-193.5 -31.5q-86 2 -152.5 30.5t-115 76t-79.5 110.5t-47.5 134t-18.5 146.5t8 148.5l32 203q13 79 37.5 158t61 151.5t85.5 135t111.5 108t138.5 71t167 23.5q103 -2 179 -39.5t127 -100.5t77.5 -147t30.5 -180 h-179q-3 60 -16 116t-41.5 100t-74 71.5t-113.5 29.5q-66 2 -119.5 -19t-96 -57.5t-74 -86.5t-55 -105.5t-39 -114t-24.5 -112.5l-34 -206q-7 -47 -10 -101.5t2 -108.5t19.5 -104.5t42.5 -90t72 -64t107 -26.5q72 -3 128.5 21t99.5 66t72.5 99t47.5 121z" />
<glyph unicode="D" d="M46 0l252 1456l316 -1q144 -3 249.5 -58.5t171 -147t90 -212.5t7.5 -256l-15 -107q-22 -144 -82.5 -267t-154.5 -213.5t-219 -142t-276 -51.5h-339zM456 1304l-200 -1153l133 -1q117 1 210 42t162 111.5t113 166t62 204.5l16 110q13 96 2.5 187.5t-50.5 164t-111.5 118 t-181.5 49.5z" />
<glyph unicode="E" d="M959 673h-589l-90 -516h688l-28 -157h-868l253 1456h860l-28 -158h-679l-81 -468h590z" />
<glyph unicode="F" d="M963 643h-588l-112 -643h-182l252 1456h869l-28 -158h-685l-87 -498h588z" />
<glyph unicode="G" d="M1020 191q-95 -104 -220.5 -159.5t-268.5 -50.5q-86 3 -154 32.5t-118.5 78t-84.5 113t-52.5 137t-22 150t6.5 151.5l26 169q13 79 38 159.5t62.5 155t87.5 139t113.5 112t140.5 74t169 24.5q98 -2 174.5 -37t129 -95t80.5 -141t30 -175h-177q-4 57 -19 109t-44 92 t-74.5 63.5t-109.5 25.5q-67 2 -121 -19.5t-97 -59t-76.5 -88.5t-57.5 -107.5t-40.5 -115.5t-25.5 -114l-28 -172q-7 -49 -8 -104.5t6.5 -110t25 -105t48 -90t75 -65t107.5 -28.5q85 -5 164.5 17.5t140.5 85.5l57 327h-287l27 156h459z" />
<glyph unicode="H" d="M951 0h-171l117 673h-578l-117 -673h-170l253 1456h170l-109 -626h578l109 626h171z" />
<glyph unicode="I" d="M317 1456h855l-29 -161h-338l-197 -1135h339l-28 -160h-855l28 160h331l197 1135h-332z" />
<glyph unicode="J" d="M979 1456h185l-173 -1013q-15 -99 -61 -184t-115.5 -148t-159.5 -98t-192 -33q-97 2 -171 36.5t-124.5 94t-77 139.5t-27.5 172l182 -1q-2 -56 11 -106.5t41 -89.5t72 -63t106 -25q66 -2 121.5 22.5t98.5 67t71.5 98.5t39.5 118z" />
<glyph unicode="K" d="M528 674l-197 -191l-84 -483h-185l253 1456h185l-123 -700l158 165l507 535h234l-614 -646l381 -810h-207z" />
<glyph unicode="L" d="M296 157h691l-28 -157h-871l252 1456h181z" />
<glyph unicode="M" d="M511 1456l103 -726l374 726h228l-252 -1456h-176l102 590l116 582l-389 -767h-105l-107 772l-91 -605l-99 -572h-176l253 1456h219z" />
<glyph unicode="N" d="M950 0h-178l-362 1096l-193 -1096h-183l253 1456h178l362 -1094l193 1094h183z" />
<glyph unicode="O" d="M1097 645q-13 -77 -36.5 -156.5t-59 -154t-83.5 -140.5t-109.5 -114t-137 -75t-165.5 -25q-86 2 -151.5 32.5t-112.5 80.5t-77 116t-45 139t-16.5 149t8.5 147l26 166q13 77 36.5 156.5t59 154t84 140.5t110 114.5t137 75.5t165.5 25q87 -2 152.5 -32.5t112.5 -80.5 t76.5 -116t44 -139.5t16 -150t-8.5 -147.5zM944 814q6 46 9.5 100t-1 108.5t-18.5 106t-41.5 91.5t-70 65t-104.5 27q-65 2 -117.5 -19.5t-94 -60t-73 -89t-54.5 -107t-38 -114.5t-24 -110l-28 -169q-6 -45 -9 -99t2 -109t19 -107t42 -92.5t70.5 -66t104.5 -27.5 q65 -2 118 19.5t94 60t72 89.5t53.5 107.5t37.5 114.5t24 111z" />
<glyph unicode="P" d="M363 584l-102 -584h-180l252 1456l447 -1q92 -3 169.5 -34.5t132 -87.5t82 -133.5t19.5 -172.5q-9 -105 -55 -187.5t-118.5 -139.5t-165 -87t-192.5 -30zM389 736l268 -2q66 0 125 20.5t105.5 58t77 91.5t38.5 121q7 57 -5.5 106.5t-42 86.5t-75 59.5t-104.5 25.5l-288 1 z" />
<glyph unicode="Q" d="M1113 664q-14 -84 -39 -166.5t-63.5 -157.5t-91.5 -141t-123 -118l207 -214l-135 -113l-235 243q-32 -8 -64.5 -12t-65.5 -3q-89 2 -156 33t-114.5 82.5t-77.5 119.5t-45 143t-16 153t9 150l20 128q13 79 37.5 161t61 158.5t86 144.5t113 117.5t141 77.5t170.5 26 q89 -2 156.5 -33.5t115.5 -83t78 -119.5t44.5 -143.5t15.5 -154t-9 -151.5zM953 794q7 48 10.5 104t-0.5 113t-18 110.5t-42 95t-73 67.5t-110 28q-68 2 -122.5 -20.5t-98 -62t-76 -92t-56 -111t-39 -118.5t-24.5 -115l-21 -131q-7 -47 -10.5 -103.5t1 -113.5t18.5 -110.5 t42.5 -95.5t73 -68.5t109.5 -28.5q69 -2 124 20t98 61.5t75 92.5t55 111.5t38.5 119t24.5 116.5z" />
<glyph unicode="R" d="M640 594h-286l-103 -594h-180l253 1456l403 -1q95 -3 175 -33t136 -84.5t84.5 -133t20.5 -177.5q-6 -75 -34 -136t-72.5 -110t-102 -86t-123.5 -64l195 -618l-2 -13h-191zM380 746l230 -2q64 0 124 19.5t107.5 56t79.5 89.5t40 120q7 61 -6.5 110.5t-45 85t-79 55.5 t-107.5 23l-246 1z" />
<glyph unicode="S" d="M871 376q7 61 -15 104.5t-60.5 75t-88 53.5t-96.5 40q-71 27 -141 64t-124.5 87.5t-86.5 117t-27 153.5q6 95 52 171t117.5 129t159.5 80t177 25q94 -2 173 -36t135.5 -92.5t87.5 -138t28 -173.5h-184q-3 58 -18.5 108.5t-46 88.5t-76 60.5t-108.5 24.5q-54 1 -107 -15.5 t-96 -48t-71.5 -77t-34.5 -103.5t16.5 -99t61 -70.5t86 -50.5t92.5 -37q74 -27 145.5 -65.5t126.5 -91.5t86.5 -122.5t25.5 -159.5q-7 -98 -55 -173.5t-121 -126t-163 -75.5t-180 -23q-96 1 -179.5 33.5t-146 90t-97.5 138.5t-33 179h183q3 -63 23.5 -114.5t56 -88.5 t86 -58.5t114.5 -22.5q56 -1 111 13.5t100 44.5t75 75.5t37 105.5z" />
<glyph unicode="T" d="M1243 1298h-436l-225 -1298h-176l225 1298h-437l28 158h1049z" />
<glyph unicode="U" d="M1205 1456l-167 -985q-15 -100 -61 -190t-116 -157.5t-161 -106.5t-197 -37q-100 2 -177 43.5t-127.5 109t-72.5 155t-11 181.5l170 987h172l-165 -987q-7 -59 2 -117t36 -105t72.5 -77.5t112.5 -32.5q71 -2 129.5 25.5t102 74.5t71.5 108t40 125l172 986h175z" />
<glyph unicode="V" d="M542 300l514 1156h198l-673 -1456h-157l-219 1456h188z" />
<glyph unicode="W" d="M835 396l274 1060h174l-400 -1456h-184l-9 1093l-354 -1093h-187l56 1456h170l-58 -1055l345 1055h158z" />
<glyph unicode="X" d="M646 886l393 570h223l-530 -731l302 -725h-201l-220 581l-404 -581h-224l543 743l-294 713h201z" />
<glyph unicode="Y" d="M602 726l448 730h215l-605 -924l-95 -532h-168l94 554l-279 902h196z" />
<glyph unicode="Z" d="M252 157h727l-25 -157h-935l21 153l877 1145h-686l26 158h896l-21 -150z" />
<glyph unicode="[" d="M940 1512h-214l-261 -1672h215l-24 -152h-386l309 1976h386z" />
<glyph unicode="\" d="M376 1456h155l316 -1581h-155z" />
<glyph unicode="]" d="M559 1664h386l-309 -1976h-386l24 152h215l261 1672h-215z" />
<glyph unicode="^" d="M409 677h-177l446 779h125l174 -779h-158l-108 486l-1 69l-28 -70z" />
<glyph unicode="_" d="M910 -151h-890l26 151h891z" />
<glyph unicode="`" d="M880 1215h-134l-199 266h204z" />
<glyph unicode="a" d="M764 0q-8 30 -8 59t3 59q-71 -63 -154.5 -101t-180.5 -36q-68 1 -128.5 23t-105 62t-69 97t-20.5 129q4 70 28.5 124t63.5 94.5t90 68.5t108.5 45.5t119 25t121.5 7.5l206 -1l13 86q6 51 -7.5 90t-41.5 66t-68.5 41t-89.5 15q-43 1 -84.5 -9t-76 -31t-59.5 -53.5 t-35 -77.5l-181 -1q9 82 53 142.5t108.5 100.5t141.5 59.5t151 18.5q82 -2 153 -26t121.5 -70.5t76.5 -113.5t17 -154l-84 -503q-9 -55 -9.5 -110t12.5 -109l-2 -17h-183zM459 140q96 -2 179 43.5t139 121.5l39 220l-155 1q-55 0 -117.5 -7t-117.5 -29t-94 -63t-47 -108 q-5 -43 6 -76t35 -55.5t58 -34.5t75 -13z" />
<glyph unicode="b" d="M1047 535q-9 -67 -27.5 -134.5t-47.5 -129.5t-69 -116t-92 -94t-116 -62t-141 -20q-88 2 -162 36.5t-123 108.5l-36 -124h-168l267 1536h181l-108 -571q62 69 139 104t171 33q73 -2 128.5 -26t95 -64.5t64 -93.5t37 -113.5t14.5 -124t-5 -124.5zM869 557q7 61 4.5 128.5 t-23.5 124.5t-66 95t-123 40q-47 1 -87 -11t-74.5 -34.5t-64 -53.5t-54.5 -67l-82 -476q27 -75 82 -120t138 -47t144 33.5t103 93.5t66 130t34 143z" />
<glyph unicode="c" d="M533 129q49 -1 97 13.5t87.5 42t67.5 67t39 88.5l171 1q-9 -83 -54 -150.5t-111 -115t-146 -73t-159 -23.5q-114 3 -194 49t-129 120.5t-67 170.5t-8 198l5 43q9 73 32 142t58.5 130t83 111.5t106.5 86.5t128 55t147 17q84 -2 155 -32t121.5 -81.5t77.5 -123t23 -156.5 l-170 1q2 50 -12 93t-42.5 75.5t-69.5 51.5t-93 21q-83 3 -146.5 -30.5t-108.5 -89.5t-72.5 -127t-37.5 -144l-5 -42q-5 -43 -5 -88t7.5 -87.5t23.5 -81t43 -67t65.5 -46.5t91.5 -19z" />
<glyph unicode="d" d="M126 543q8 67 27 135t49 131t71.5 117t94 94t117.5 62t142 20q81 -2 151 -32t121 -96l104 562h181l-267 -1536h-164l19 114q-63 -67 -140.5 -101.5t-170.5 -32.5q-70 2 -124.5 26.5t-94 65.5t-65 94.5t-39.5 113t-17 121.5t3 121zM304 522q-5 -40 -5 -84t6.5 -86.5 t20.5 -80.5t39 -67.5t62 -47.5t88 -19q89 -3 155.5 41t116.5 113l87 505q-29 69 -82.5 108.5t-130.5 41.5q-84 3 -146 -33t-105 -94.5t-68.5 -131t-34.5 -144.5z" />
<glyph unicode="e" d="M540 -20q-110 2 -193.5 45t-137.5 114t-77.5 164t-14.5 197l5 43q8 71 31 140.5t59.5 132.5t85 116t108 91.5t129 59.5t146.5 19q112 -3 189 -48.5t122 -119.5t60 -168.5t2 -194.5l-13 -83h-745q-8 -66 4.5 -129t44.5 -113t85 -81t126 -33q94 -3 173.5 37t143.5 106 l104 -88q-37 -52 -86.5 -91.5t-106.5 -65.5t-119 -38.5t-125 -11.5zM672 950q-70 3 -126 -23.5t-99.5 -70.5t-75.5 -101t-53 -115l564 -2l4 18q9 55 -1 107t-38 93t-72 66.5t-103 27.5z" />
<glyph unicode="f" horiz-adv-x="1203" d="M332 0l163 939h-290l26 143h288l11 76q13 96 51.5 174.5t99 134t142 85t181.5 28.5q65 -1 127.5 -13t125.5 -28l-37 -152q-49 17 -99.5 27t-102.5 11q-65 1 -117 -17t-91 -52.5t-63.5 -84t-34.5 -112.5l-11 -77h405l-25 -143h-404l-163 -939h-182z" />
<glyph unicode="g" d="M127 543q9 67 27.5 135.5t48.5 131.5t70.5 117t93.5 94t117.5 62t142.5 20q85 -2 157.5 -35.5t120.5 -104.5l35 119h166l-180 -1059q-14 -101 -56.5 -185t-109 -143.5t-154 -92t-192.5 -29.5q-54 1 -107 14t-101 37t-89 58.5t-72 79.5l103 111q47 -67 111.5 -107 t148.5 -42q69 -2 125.5 18.5t99 58.5t71 92t41.5 119l20 95q-63 -63 -138 -96t-166 -31q-71 2 -125.5 26.5t-94 65t-65 94t-39 113t-16.5 122t4 121.5zM305 522q-5 -40 -5 -84t6 -86t20.5 -80.5t39.5 -68t61.5 -47.5t88.5 -20q90 -2 156.5 42.5t116.5 115.5l85 499 q-28 71 -81.5 111t-131.5 42q-84 3 -146 -33t-104.5 -94.5t-67.5 -131t-35 -144.5z" />
<glyph unicode="h" d="M396 920q33 40 71.5 74t82 58t92 37.5t102.5 12.5q92 -2 154 -37t98 -93t48 -133.5t3 -157.5l-114 -681h-181l115 684q6 53 0 99.5t-28 82t-60.5 56t-97.5 22.5q-46 1 -87.5 -10.5t-79 -33t-71 -50.5t-61.5 -63l-137 -787h-181l267 1536h181z" />
<glyph unicode="i" d="M280 1082h538l-160 -922h343l-29 -160h-880l29 160h356l132 761h-357zM663 1363q1 48 31 79.5t78 33.5q24 1 43.5 -7t34 -22t22 -34t7.5 -44q0 -48 -30 -77.5t-78 -31.5q-47 -2 -77.5 26.5t-30.5 76.5z" />
<glyph unicode="j" d="M373 1082h531l-185 -1089q-14 -98 -52 -178t-98 -136.5t-141.5 -87t-182.5 -30.5q-54 0 -105.5 4.5t-104.5 12.5l26 154q45 -8 89.5 -11.5t89.5 -4.5q65 -1 116.5 19t88.5 56.5t60.5 87.5t32.5 113l158 929h-351zM748 1364q0 48 29.5 79t77.5 33q24 1 44 -6.5t34.5 -22 t22.5 -34t8 -43.5q-1 -48 -31 -78t-78 -32t-78 27t-29 77z" />
<glyph unicode="k" d="M474 503l-163 -137l-63 -366h-182l267 1536h182l-162 -930l133 123l402 353h236l-514 -460l376 -622h-215z" />
<glyph unicode="l" d="M359 1536h538l-239 -1376h343l-29 -160h-880l29 160h356l211 1215h-358z" />
<glyph unicode="m" d="M334 1083l-20 -103q42 57 96 90t126 32q31 0 59 -6.5t51.5 -20.5t41 -36t26.5 -52q42 52 95 83.5t123 31.5q63 -1 105 -26t65.5 -66.5t31 -94t2.5 -107.5l-135 -808h-172l136 811q3 28 0 52.5t-13.5 43t-31 29t-51.5 10.5q-54 0 -94 -30t-54 -82l-142 -834h-172l137 812 q3 27 0.5 50.5t-13 41.5t-29.5 29t-49 12q-50 1 -85 -20.5t-61 -62.5l-149 -862h-172l187 1082z" />
<glyph unicode="n" d="M413 1083l-23 -161q33 40 72 74t83 58t93 36.5t103 11.5q91 -2 153 -36t98.5 -90.5t49 -131.5t3.5 -157l-115 -687h-181l115 684q6 55 0.5 102t-27 82t-60.5 55.5t-99 21.5q-47 1 -89.5 -11.5t-79.5 -35t-69.5 -54t-59.5 -67.5l-135 -777h-181l188 1082z" />
<glyph unicode="o" d="M110 544q9 73 31.5 143.5t57.5 133t82.5 115t106 90t128 58t149.5 18.5q114 -3 194.5 -50.5t129.5 -124t67.5 -174t7.5 -199.5l-2 -23q-14 -109 -58.5 -210t-115.5 -177.5t-167.5 -121.5t-214.5 -42q-113 3 -193.5 49.5t-129.5 122.5t-68 172t-8 198zM288 522 q-5 -42 -4.5 -87t8 -88t23.5 -82t43 -68.5t65.5 -47.5t90.5 -20q83 -3 147 33t109.5 94t72.5 130.5t38 144.5l2 22q7 63 2.5 132t-29.5 127.5t-73 97t-126 41.5q-84 3 -148 -33.5t-109 -95.5t-72 -132.5t-37 -145.5z" />
<glyph unicode="p" d="M1043 536q-12 -100 -47.5 -200.5t-96 -180.5t-147.5 -129t-202 -47q-82 2 -155 31.5t-126 94.5l-97 -521h-181l260 1498l164 1l-19 -119q63 69 141.5 104.5t173.5 33.5q74 -2 129 -26t94.5 -64.5t64 -93.5t37 -113t14.5 -123.5t-5 -124.5zM864 557q7 61 3.5 128.5 t-26.5 124.5t-69 95t-124 40q-85 2 -150 -39.5t-115 -107.5l-91 -523q60 -140 213 -145q84 -2 146.5 34t106 95t69 132t35.5 145z" />
<glyph unicode="q" d="M127 543q9 69 28 137.5t49 131.5t71 117t94 93t118.5 60.5t144.5 19.5q81 -2 151.5 -32t121.5 -96l32 108h168l-260 -1498h-181l98 514q-63 -59 -136.5 -89.5t-160.5 -28.5q-72 2 -127 26t-95 64.5t-66 93.5t-39.5 112.5t-16.5 122.5t4 123zM305 522q-5 -40 -5 -84.5 t6.5 -87.5t21 -82t39.5 -69t62 -48.5t89 -19.5q42 -1 79 9.5t70 29.5t62 45.5t55 58.5l94 536q-32 66 -85 102.5t-126 38.5q-84 3 -147.5 -33.5t-107 -96t-69.5 -133t-35 -145.5z" />
<glyph unicode="r" d="M931 1104q48 -1 96 -6.5t94 -22.5l-46 -180q-48 11 -96 18t-97 8q-126 1 -216 -58t-150 -168l-120 -695h-181l187 1082h172l-30 -172q38 44 81 80t91 61.5t101.5 39t113.5 13.5z" />
<glyph unicode="s" d="M818 294q6 46 -15 76t-55.5 49t-75.5 30.5t-74 19.5q-60 15 -125 37t-119 57t-87.5 87.5t-30.5 127.5q2 55 22.5 100.5t53.5 82t76.5 63.5t92 44.5t99 26t99.5 7.5q76 -2 146.5 -24t123.5 -64.5t84 -105t30 -145.5l-179 1q0 45 -17 79t-46.5 57.5t-68 35.5t-80.5 13 q-40 1 -82.5 -8t-79.5 -28.5t-63 -51t-32 -76.5t14.5 -73.5t53.5 -45.5t72.5 -27t72.5 -17q41 -10 85 -23t86 -31t79.5 -41.5t64.5 -55t42 -72.5t13 -92q-4 -87 -48 -150t-110 -102.5t-146 -58t-156 -16.5q-80 1 -154.5 24t-132.5 67.5t-92.5 110t-32.5 152.5l180 -1 q1 -52 20 -90t51 -62.5t75 -37t92 -12.5q40 -1 85 7t85 26.5t68.5 50.5t35.5 79z" />
<glyph unicode="t" d="M724 1344l-46 -262h400l-25 -143h-400l-98 -589q-5 -44 0.5 -82t22.5 -66t48.5 -45t79.5 -18q55 -2 109.5 8t108.5 22l17 -133q-63 -35 -140 -46t-148 -9q-81 1 -137 31.5t-90 81t-46.5 117t-5.5 140.5l98 588h-276l25 143h275l46 262h182z" />
<glyph unicode="u" d="M780 149q-64 -79 -147 -125t-188 -44q-97 2 -158.5 42.5t-95 105.5t-42 146.5t0.5 164.5l108 643h181l-107 -646q-6 -50 -7 -102.5t13.5 -95.5t48.5 -71t97 -30q100 -3 177 41.5t130 126.5l135 777h182l-188 -1082h-163z" />
<glyph unicode="v" d="M524 266l5 -68l29 69l422 815h192l-598 -1082h-138l-262 1082l174 1z" />
<glyph unicode="w" d="M291 381l-6 -138l55 159l284 680h117l47 -702l-2 -154l53 158l239 698h164l-411 -1082h-142l-50 673l3 154l-58 -174l-273 -653h-143l-36 1082h156z" />
<glyph unicode="x" d="M609 682l343 400h224l-483 -543l312 -539h-196l-226 411l-354 -411h-223l495 555l-303 527h197z" />
<glyph unicode="y" d="M516 375l21 -120l464 827h211l-748 -1250q-30 -52 -68 -101t-84.5 -87.5t-102 -61t-120.5 -22.5q-29 0 -58.5 5.5t-58.5 10.5l41 153q22 -2 44 -5t43 -3q39 1 72 19t60 45t49 59.5t41 61.5l103 156l-271 1020h193z" />
<glyph unicode="z" d="M321 151h663l-25 -151h-898l23 144l743 785h-612l24 153h855l-22 -139z" />
<glyph unicode="{" d="M812 -365q-89 6 -151 49.5t-99 109.5t-50.5 146t-5.5 159l22 170q7 64 -2 113.5t-35.5 84t-71.5 53.5t-111 22l15 144q138 2 218.5 69.5t100.5 206.5l22 170q12 92 44.5 174.5t86.5 145.5t130 102.5t175 45.5l10 -117q-73 -5 -120 -37t-76.5 -81.5t-44.5 -110.5t-23 -122 l-22 -170q-17 -131 -88 -216.5t-191 -136.5q48 -26 82 -62.5t54 -80.5t26.5 -94.5t1.5 -103.5l-21 -170q-6 -50 -7 -108t12.5 -108.5t47 -87t96.5 -44.5z" />
<glyph unicode="|" d="M513 -398h-146l290 1854h146z" />
<glyph unicode="}" d="M178 -252q67 4 113.5 38t77.5 84.5t48 111t26 117.5l22 169q17 130 87 215.5t190 135.5q-48 26 -81.5 63t-53.5 81.5t-26.5 95t-1.5 103.5l22 171q4 36 7.5 74t2 75t-9 71t-25.5 60.5t-48 44.5t-75 23l29 114q90 -6 151.5 -49t97.5 -108.5t47.5 -145.5t2.5 -160l-21 -171 q-14 -129 37.5 -197.5t182.5 -74.5l-15 -144q-138 -4 -219 -71t-100 -206l-22 -169q-12 -91 -45.5 -173t-88 -145.5t-130 -103.5t-172.5 -46z" />
<glyph unicode="~" d="M1158 742q-6 -65 -30 -126.5t-65 -109.5t-98 -77t-128 -28q-45 0 -85 11.5t-76.5 30.5t-70 44.5t-65.5 54.5q-20 18 -42 35.5t-46 32t-50.5 23t-54.5 8.5q-40 0 -72 -16t-55 -41.5t-38.5 -58.5t-22.5 -69l-131 17q7 65 32.5 125t67 106t98 73t127.5 26q88 -1 161.5 -41.5 t136.5 -98.5q21 -19 42.5 -37t45.5 -32t50.5 -22.5t55.5 -8.5q40 0 72.5 17t56.5 44.5t39.5 62t23.5 70.5z" />
<glyph unicode="&#xa0;" />
<glyph unicode="&#xa1;" d="M508 611h181l-171 -983h-181zM775 993q-2 -49 -33.5 -80t-79.5 -33q-24 -1 -44.5 6.5t-35.5 22t-23 34.5t-8 44q1 50 31.5 82.5t80.5 34.5q25 1 45.5 -7t35.5 -23t23 -36t8 -45z" />
<glyph unicode="&#xa2;" d="M537 129q49 -1 97 13.5t87.5 42t67.5 67t39 88.5l171 1q-9 -75 -46.5 -138t-94 -109.5t-126.5 -75t-142 -36.5l-39 -227h-181l42 242q-81 23 -138.5 74t-92 121t-47 153.5t-3.5 171.5l5 43q12 99 49.5 189.5t97 163t140 121.5t179.5 63l39 221h181l-40 -228 q66 -15 120 -49t92 -83.5t57.5 -112.5t16.5 -136l-170 1q2 50 -12 93t-42.5 75.5t-69.5 51.5t-93 21q-83 3 -146.5 -30.5t-108.5 -89.5t-72.5 -127t-37.5 -144l-5 -42q-5 -43 -5 -88t7.5 -87.5t23.5 -81t43 -67t65.5 -46.5t91.5 -19z" />
<glyph unicode="&#xa3;" d="M454 626l-30 -225q-10 -71 -35.5 -134t-71.5 -118l720 2l-27 -151h-1001l27 150l65 -1q36 14 61 41.5t41.5 62.5t26 73.5t14.5 73.5l30 226h-160l26 152h156l33 260q12 97 53.5 178t106.5 139.5t150 90.5t184 30q87 -2 153.5 -31.5t111.5 -80.5t66 -121t17 -155l-182 1 q3 50 -6.5 93t-33.5 74.5t-62.5 49.5t-91.5 20q-61 2 -110.5 -21.5t-85.5 -64t-58.5 -93t-30.5 -107.5l-34 -262h311l-27 -152h-306z" />
<glyph unicode="&#xa4;" d="M825 82q-69 -48 -144 -76t-160 -26q-76 1 -145.5 27t-128.5 76l-120 -109l-111 144l128 108q-21 69 -27.5 139.5t2.5 142.5q24 176 137 315l-96 129l142 128l90 -121q66 42 137.5 66.5t150.5 23.5q72 -1 138.5 -25t122.5 -69l141 126l112 -146l-142 -121q23 -71 31 -144 t-2 -148q-11 -83 -42.5 -157t-80.5 -141l92 -124l-143 -127zM287 506q-8 -62 4 -124t43 -113t81.5 -84t119.5 -35q76 -2 141 30t114.5 85t81 121t40.5 138q7 61 -4.5 123.5t-42 113t-80.5 83.5t-119 35q-76 2 -141.5 -29.5t-115.5 -84.5t-81.5 -121t-40.5 -138z" />
<glyph unicode="&#xa5;" d="M621 780l475 676h218l-533 -720h303l-22 -121l-367 3l-6 -7l-34 -165h379l-22 -120h-376l-57 -326h-181l57 326h-369l21 120h368l30 169h-369l21 121h313l-284 720h195z" />
<glyph unicode="&#xa6;" d="M344 -270l138 791h181l-138 -791h-181zM693 698h-181l132 758h181z" />
<glyph unicode="&#xa7;" d="M1077 439q-5 -54 -23.5 -97.5t-49 -78.5t-70.5 -62.5t-86 -49.5q56 -56 76.5 -124.5t14.5 -146.5q-8 -101 -57 -173t-122.5 -117.5t-164 -66.5t-180.5 -19q-100 2 -185 30t-146 82t-93 134t-27 186l185 2q-5 -66 13 -118t54 -88t89 -55t118 -20q53 -1 108.5 11t103 38.5 t80.5 69t41 101.5q5 40 -5.5 71t-32 55.5t-51.5 43t-63.5 33t-67.5 25.5t-64 21q-78 26 -151.5 59t-129 80.5t-86.5 115t-23 162.5q4 52 23 95.5t48.5 78.5t68.5 63t85 50q-54 57 -73 126t-13 146q5 66 29.5 120t63 96t88 72.5t106 50t117 28t119.5 7.5q100 -2 180.5 -31.5 t135.5 -84t82.5 -134t21.5 -181.5h-180q4 61 -10.5 111.5t-46.5 87.5t-80 58t-111 23q-54 1 -109.5 -10.5t-102.5 -38t-79.5 -69t-41.5 -102.5q-6 -42 4 -74t30.5 -56.5t49.5 -42.5t62.5 -32t68.5 -25t67 -21q77 -26 151 -58.5t130 -80t87 -115t24 -161.5zM607 691 q-38 12 -76 25t-75 27q-76 -21 -128 -69t-64 -129q-9 -64 15.5 -106t68 -70t98 -46t103.5 -34q38 -12 75 -25t74 -27q37 11 70 28.5t59.5 42t44 56.5t23.5 72t-4.5 72t-32.5 57t-53 44t-65 34t-68.5 26.5z" />
<glyph unicode="&#xa8;" d="M399 1369q0 46 29.5 76.5t76.5 32.5q46 1 77 -28.5t30 -76.5q-1 -46 -31 -76t-76 -32q-47 -1 -77 28t-29 76zM815 1367q1 46 30.5 77t76.5 33q47 1 77 -28.5t30 -77.5q-1 -46 -31 -76t-77 -32q-46 -1 -76 28t-30 76z" />
<glyph unicode="&#xa9;" d="M813 443q-14 -111 -81 -174.5t-182 -60.5q-61 1 -104.5 26t-70.5 65t-38.5 92t-8.5 107l8 87q6 58 27.5 111.5t57.5 94t86.5 64t113.5 22.5q111 -2 168 -65t52 -172l-109 1q4 63 -22 101t-95 38q-41 0 -71 -17t-50.5 -44t-32.5 -61.5t-16 -70.5l-8 -90q-2 -32 1.5 -65.5 t16.5 -61.5t37 -46t63 -19q35 -1 60 9t43 28t29.5 43.5t18.5 56.5zM165 534q-10 -86 9.5 -169t65 -148t116.5 -106t164 -43q100 -3 187.5 36.5t154.5 107t109.5 155.5t53.5 183q10 86 -10 168t-66 146.5t-116.5 104.5t-163.5 42q-66 2 -127 -15t-115 -49t-98.5 -77 t-78.5 -98.5t-56 -114t-29 -123.5zM78 535q8 75 33 147t65 135.5t93.5 116.5t117 91t135.5 58.5t151 18.5q74 -1 137.5 -23.5t114.5 -60.5t89.5 -90t62.5 -113t33 -128.5t2 -136.5q-8 -76 -33 -148t-65 -136t-93 -117.5t-116.5 -91.5t-136 -59t-151.5 -19q-112 2 -198.5 50 t-143.5 125.5t-82.5 176.5t-14.5 204z" />
<glyph unicode="&#xaa;" d="M781 704q-6 49 -3 97q-45 -52 -103 -81t-128 -29q-50 0 -91 15.5t-70 44t-44 69t-12 91.5q3 70 37 116t85 73.5t112.5 38.5t120.5 11l138 -1l8 53q3 27 -0.5 51.5t-14.5 42.5t-31.5 28.5t-50.5 11.5q-57 2 -98.5 -23t-57.5 -81l-156 11q9 61 39.5 105.5t75 73.5t99.5 42 t112 12q62 -1 110 -21.5t79.5 -56.5t46 -86.5t8.5 -111.5l-49 -314q-8 -46 -9.5 -90.5t5.5 -90.5zM597 826q56 0 108 28t85 73l19 110h-129q-29 -1 -60 -7.5t-58 -20.5t-46 -37t-23 -57q-3 -24 5 -41t23 -27.5t35 -15.5t41 -5z" />
<glyph unicode="&#xab;" d="M362 505l177 -387h-124l-226 387l2 20l348 389h151zM687 505l177 -387h-124l-226 387l2 20l348 389h151z" />
<glyph unicode="&#xac;" d="M950 375h-181l47 264h-627l29 161h806z" />
<glyph unicode="&#xad;" horiz-adv-x="1203" d="M947 561h-743l27 152h743z" />
<glyph unicode="&#xae;" d="M75 533q7 75 32.5 147t65 136t93 117t117 91t136 58.5t151.5 18.5q112 -3 198.5 -50.5t143.5 -124.5t82 -175.5t15 -203.5q-8 -75 -33 -147t-65 -135.5t-93 -117t-116.5 -91.5t-136 -58.5t-151.5 -18.5q-111 3 -197.5 50.5t-143.5 124.5t-83 175.5t-15 203.5zM162 532 q-10 -86 10 -168.5t66 -147t116.5 -105t163.5 -42.5q66 -2 127 15.5t115 49.5t98.5 77t78.5 99t56 114.5t29 123.5q10 86 -9.5 168t-65.5 146.5t-117 105t-164 42.5q-100 3 -187 -36t-154 -105.5t-110 -154t-53 -182.5zM477 485l-41 -253h-106l100 635l199 -1q43 -1 82 -12 t68.5 -33t45.5 -56.5t13 -83.5q-3 -33 -16.5 -59t-35 -45.5t-48.5 -33.5t-55 -25l95 -286h-103l-77 253h-121zM491 582h111q22 1 44 7t40 17t31 28.5t17 41.5q5 28 -2.5 46t-22.5 28t-36.5 14t-45.5 5l-106 1z" />
<glyph unicode="&#xaf;" d="M1054 1313h-694l23 143h694z" />
<glyph unicode="&#xb0;" d="M457 1207q3 53 25.5 102.5t59.5 87t86 59.5t104 21q50 -1 90.5 -22.5t69 -56.5t43.5 -80t12 -93q-3 -53 -25 -101.5t-58 -85t-84 -58.5t-102 -21q-50 1 -92 21.5t-71.5 54.5t-45 78.5t-12.5 93.5zM579 1210q-2 -25 5 -47t21.5 -39t35.5 -27t47 -10q27 0 51.5 11.5t43 30 t30 42.5t13.5 51q2 24 -4 47t-19.5 41t-34 29t-46.5 11q-28 0 -53 -12t-44.5 -31.5t-31.5 -44.5t-14 -52z" />
<glyph unicode="&#xb1;" d="M728 855h353l-24 -152h-352l-65 -414h-165l66 414h-374l24 152h373l65 412h164zM907 1h-811l27 151h811z" />
<glyph unicode="&#xb2;" d="M918 667h-583l21 116l316 265q21 18 45 39t46 45t38 51t20 56q7 48 -20 75t-74 28q-66 1 -105.5 -37t-53.5 -99l-155 -1q7 62 33.5 111t68.5 83.5t96 52.5t116 17q52 -1 99.5 -15.5t82.5 -43t55 -71.5t17 -100q-3 -49 -25 -91.5t-54.5 -79.5t-71 -69t-73.5 -59l-195 -145 h379z" />
<glyph unicode="&#xb3;" d="M596 1125l80 -1q27 1 55 8t51 21t39 35.5t20 52.5q3 25 -4.5 43.5t-22.5 30.5t-35.5 18t-43.5 6q-50 0 -88 -22.5t-54 -70.5h-156q6 57 33 98.5t67.5 69t90.5 41t104 12.5q49 0 97.5 -13t86 -39.5t59.5 -67.5t19 -98q-2 -36 -16 -64t-36 -50t-49.5 -39.5t-57.5 -30.5 q58 -21 87.5 -65t27.5 -106q-2 -63 -31.5 -108.5t-75 -75t-101.5 -43t-111 -12.5q-54 1 -103 16t-85.5 44t-58 72.5t-21.5 101.5h152q0 -55 35 -79.5t88 -25.5q28 0 55 7t49.5 21.5t38 36.5t19.5 52q4 31 -5.5 51.5t-28 32.5t-43 17t-51.5 6l-87 1z" />
<glyph unicode="&#xb4;" d="M708 1481h231l-302 -266h-150z" />
<glyph unicode="&#xb5;" d="M446 1082l-102 -625q-4 -32 -6.5 -68.5t-0.5 -72.5t10 -68.5t25.5 -58t46.5 -41.5t73 -17q92 -4 162.5 34.5t118.5 116.5l139 800h182l-188 -1082h-162l19 116q-53 -66 -119.5 -102t-153.5 -35q-60 1 -115 17.5t-100 57.5l-89 -470h-180l260 1498h180z" />
<glyph unicode="&#xb6;" d="M662 0l90 520l-72 1q-101 3 -181 37.5t-133.5 95t-78 144t-15.5 184.5q10 110 56.5 197.5t119.5 149t168 95t203 33.5l277 -1l-253 -1456h-181z" />
<glyph unicode="&#xb7;" d="M511 726q1 49 32 81.5t81 34.5q24 1 44.5 -7t35.5 -23t23 -35.5t8 -44.5q-1 -49 -32.5 -80.5t-79.5 -33.5q-24 -1 -45 7t-36 22t-23 34.5t-8 44.5z" />
<glyph unicode="&#xb8;" d="M503 0l-21 -55q62 -15 94 -57t30 -106q-2 -65 -33.5 -106.5t-79.5 -66t-105 -34.5t-109 -12l4 108q27 1 56.5 6t55.5 16.5t45 32t24 52.5q5 30 -8 46.5t-34.5 25t-47.5 11.5t-47 6l45 133h131z" />
<glyph unicode="&#xb9;" d="M747 665h-153l104 597l-219 -56l23 135l355 113h22z" />
<glyph unicode="&#xba;" d="M352 1140q9 74 41.5 136.5t82.5 107.5t115.5 69.5t141.5 22.5q72 -2 128 -28t93.5 -71t54.5 -105.5t10 -130.5l-13 -117q-9 -74 -41 -136t-81.5 -107t-114.5 -69t-141 -22q-72 2 -128.5 28t-94 70.5t-55 105t-11.5 130.5zM502 1022q-3 -38 3.5 -72.5t23.5 -61.5 t46.5 -43.5t71.5 -17.5q43 -1 77.5 14.5t59.5 42.5t40.5 63t21.5 76l13 119q3 37 -3.5 72t-24 62t-46.5 43.5t-71 17.5q-44 1 -78.5 -14t-59.5 -42t-40.5 -63t-21.5 -76z" />
<glyph unicode="&#xbb;" d="M426 949l224 -387l-1 -20l-347 -390h-152l328 408l-178 389h126zM760 949l224 -387l-1 -20l-347 -390h-152l328 408l-178 389h126z" />
<glyph unicode="&#xbc;" d="M408.614 751h-137.703l93.6025 537.314l-197.105 -50.4014l20.7002 121.503l319.509 101.703h19.8008zM332 223l-107 71l658 945l107 -71zM989.719 269.107h93.6025l-20.7012 -117.003h-92.7021l-27.001 -152.104h-138.604l27.001 152.104h-326.709l11.7002 99.9023 l402.311 458.112h147.604zM663.909 269.107h187.205l51.3018 261.907l-19.8008 -27.001z" />
<glyph unicode="&#xbd;" d="M274 223l-107 71l658 945l107 -71zM395.614 747h-137.703l93.6025 537.314l-197.105 -50.4014l20.7002 121.503l319.509 101.703h19.8008zM1045.92 0h-524.715l18.9004 104.402l284.408 238.507q18.9004 16.2002 40.501 35.1006q21.6006 18.9014 41.4014 40.502 t34.2012 45.9004q14.4004 24.3008 18 50.4023q6.2998 43.2012 -18 67.501q-24.3008 24.3008 -66.6025 25.2012q-59.4014 0.899414 -94.9521 -33.3008q-35.5508 -34.2012 -48.1514 -89.1025l-139.504 -0.900391q6.2998 55.8018 30.1504 99.9033 q23.8506 44.1006 61.6523 75.1514q37.8008 31.0508 86.4023 47.252q48.6006 16.2002 104.402 15.2998q46.8018 -0.899414 89.5527 -13.9502t74.252 -38.7012t49.501 -64.3516q18.001 -38.7012 15.3008 -90.002q-2.7002 -44.1016 -22.501 -82.3525 q-19.7998 -38.251 -49.0508 -71.5518t-63.9023 -62.1016q-34.6504 -28.8008 -66.1514 -53.1016l-175.505 -130.504h341.109z" />
<glyph unicode="&#xbe;" d="M396 222l-107 71l658 945l107 -71zM1021.72 269.107h93.6025l-20.7012 -117.003h-92.7021l-27.001 -152.104h-138.604l27.001 152.104h-326.709l11.7002 99.9023l402.311 458.112h147.604zM695.909 269.107h187.205l51.3018 261.907l-19.8008 -27.001zM316.012 1157.11 l72.002 -0.900391q24.3008 0.900391 49.501 7.2002q25.2012 6.30078 45.9014 18.9004q20.7002 12.6006 35.1006 31.9512t18.001 47.251q2.7002 22.501 -4.0498 39.1514q-6.75098 16.6504 -20.251 27.4512q-13.5 10.7998 -31.9512 16.2002q-18.4502 5.40039 -39.1504 5.40039 q-45.002 0 -79.2021 -20.251q-34.2012 -20.251 -48.6016 -63.4521h-140.404q5.40039 51.3018 29.7012 88.6533q24.3008 37.3506 60.752 62.1016q36.4502 24.75 81.4521 36.9004q45.001 12.1504 93.6025 11.251q44.1006 0 87.752 -11.7012q43.6514 -11.7002 77.4023 -35.5508 t53.5518 -60.751q19.7998 -36.9014 17.0996 -88.2031q-1.7998 -32.4004 -14.4004 -57.6016q-12.5996 -25.2002 -32.4004 -45.001t-44.5508 -35.5508q-24.751 -15.75 -51.752 -27.4512q52.2012 -18.9004 78.752 -58.501q26.5508 -39.6016 24.751 -95.4033 q-1.7998 -56.7012 -28.3506 -97.6523t-67.502 -67.502t-91.3525 -38.7012t-99.9023 -11.25q-48.6016 0.900391 -92.7031 14.4004q-44.1006 13.5 -76.9521 39.6016q-32.8506 26.1006 -52.2012 65.251q-19.3506 39.1514 -19.3506 91.3525h136.804q0 -49.501 31.501 -71.5518 t79.2021 -22.9502q25.2012 0 49.501 6.2998q24.3008 6.2998 44.5518 19.3506q20.25 13.0508 34.2012 32.8506q13.9502 19.8008 17.5498 46.8018q3.60059 27.9004 -4.9502 46.3516q-8.5498 18.4502 -25.2002 29.25q-16.6504 10.8008 -38.7012 15.3008t-46.3516 5.40039 l-78.3018 0.899414z" />
<glyph unicode="&#xbf;" d="M708 674q-6 -63 -19 -109.5t-35 -86t-55 -75.5t-79 -77q-38 -33 -78 -71t-74 -81t-58.5 -90.5t-31.5 -100.5q-6 -47 2 -86t30 -67.5t57.5 -45t84.5 -17.5q97 -2 163.5 52t85.5 148l180 1q-10 -86 -48.5 -154t-97 -114.5t-134 -70.5t-160.5 -22q-83 2 -150.5 28t-114 74 t-68.5 116t-14 153q7 76 37 141t74.5 121t98.5 106t108 96q29 25 49.5 50.5t34 53t22 59t13.5 68.5zM561 985q1 49 32 82t81 35q49 1 80.5 -30.5t30.5 -80.5t-32.5 -80t-80.5 -33q-24 -1 -44.5 6.5t-35.5 22t-23 34.5t-8 44z" />
<glyph unicode="&#xc0;" d="M807 377h-469l-180 -377h-188l709 1456h152l195 -1456h-173zM413 538h375l-76 630zM851 1561h-134l-199 266h204z" />
<glyph unicode="&#xc1;" d="M807 377h-469l-180 -377h-188l709 1456h152l195 -1456h-173zM413 538h375l-76 630zM908 1824h231l-302 -266h-150z" />
<glyph unicode="&#xc2;" d="M807 377h-469l-180 -377h-188l709 1456h152l195 -1456h-173zM413 538h375l-76 630zM1084 1625l-2 -27l-146 1l-118 150l-172 -149l-153 -1l2 27l272 238h106z" />
<glyph unicode="&#xc3;" d="M807 377h-469l-180 -377h-188l709 1456h152l195 -1456h-173zM413 538h375l-76 630zM1154 1844q-5 -44 -21.5 -84.5t-44 -72t-66 -50.5t-86.5 -19q-38 0 -70 15.5t-62.5 34.5t-62 34.5t-68.5 14.5q-24 -1 -43.5 -10.5t-34 -25t-24.5 -35.5t-16 -41l-100 23q5 43 22 85 t44.5 74.5t66 52t86.5 19.5q37 0 69 -16t63 -34.5t62.5 -34t68.5 -14.5q50 2 79 35.5t41 77.5z" />
<glyph unicode="&#xc4;" d="M807 377h-469l-180 -377h-188l709 1456h152l195 -1456h-173zM413 538h375l-76 630zM485 1716q0 46 29.5 76.5t76.5 32.5q46 1 77 -28.5t30 -76.5q-1 -46 -31 -76t-76 -32q-47 -1 -77 28t-29 76zM901 1714q1 46 30.5 77t76.5 33q47 1 77 -28.5t30 -77.5q-1 -46 -31 -76 t-77 -32q-46 -1 -76 28t-30 76z" />
<glyph unicode="&#xc5;" d="M807 377h-469l-180 -377h-188l709 1456h152l195 -1456h-173zM413 538h375l-76 630zM607 1724q1 43 19 81t47 66.5t67.5 44.5t81.5 16q40 0 74 -15.5t58 -41.5t37 -61t12 -74q-2 -43 -19 -80t-45.5 -64.5t-66.5 -43t-81 -15.5q-40 0 -74 14.5t-59 39.5t-38.5 59t-12.5 74z M705 1727q-3 -40 21 -70t66 -30q22 0 41.5 9t35 24.5t25 35.5t12.5 41q2 20 -3 38.5t-16 33t-27.5 23.5t-37.5 9q-23 0 -43.5 -9.5t-36 -25.5t-25.5 -36.5t-12 -42.5z" />
<glyph unicode="&#xc6;" d="M1056 0h-516l60 353h-295l-182 -353h-201l796 1456h568l-27 -152h-327l-78 -471h292l-26 -151h-293l-91 -531h347zM393 527h237l119 691z" />
<glyph unicode="&#xc7;" d="M1046 440q-20 -99 -66 -184.5t-114.5 -147.5t-157 -96.5t-193.5 -31.5q-86 2 -152.5 30.5t-115 76t-79.5 110.5t-47.5 134t-18.5 146.5t8 148.5l32 203q13 79 37.5 158t61 151.5t85.5 135t111.5 108t138.5 71t167 23.5q103 -2 179 -39.5t127 -100.5t77.5 -147t30.5 -180 h-179q-3 60 -16 116t-41.5 100t-74 71.5t-113.5 29.5q-66 2 -119.5 -19t-96 -57.5t-74 -86.5t-55 -105.5t-39 -114t-24.5 -112.5l-34 -206q-7 -47 -10 -101.5t2 -108.5t19.5 -104.5t42.5 -90t72 -64t107 -26.5q72 -3 128.5 21t99.5 66t72.5 99t47.5 121zM555 0l-21 -55 q62 -15 94 -57t30 -106q-2 -65 -33.5 -106.5t-79.5 -66t-105 -34.5t-109 -12l4 108q27 1 56.5 6t55.5 16.5t45 32t24 52.5q5 30 -8 46.5t-34.5 25t-47.5 11.5t-47 6l45 133h131z" />
<glyph unicode="&#xc8;" d="M959 673h-589l-90 -516h688l-28 -157h-868l253 1456h860l-28 -158h-679l-81 -468h590zM841 1561h-134l-199 266h204z" />
<glyph unicode="&#xc9;" d="M959 673h-589l-90 -516h688l-28 -157h-868l253 1456h860l-28 -158h-679l-81 -468h590zM898 1824h231l-302 -266h-150z" />
<glyph unicode="&#xca;" d="M959 673h-589l-90 -516h688l-28 -157h-868l253 1456h860l-28 -158h-679l-81 -468h590zM1074 1625l-2 -27l-146 1l-118 150l-172 -149l-153 -1l2 27l272 238h106z" />
<glyph unicode="&#xcb;" d="M959 673h-589l-90 -516h688l-28 -157h-868l253 1456h860l-28 -158h-679l-81 -468h590zM475 1716q0 46 29.5 76.5t76.5 32.5q46 1 77 -28.5t30 -76.5q-1 -46 -31 -76t-76 -32q-47 -1 -77 28t-29 76zM891 1714q1 46 30.5 77t76.5 33q47 1 77 -28.5t30 -77.5q-1 -46 -31 -76 t-77 -32q-46 -1 -76 28t-30 76z" />
<glyph unicode="&#xcc;" d="M317 1456h855l-29 -161h-338l-197 -1135h339l-28 -160h-855l28 160h331l197 1135h-332zM791 1561h-134l-199 266h204z" />
<glyph unicode="&#xcd;" d="M317 1456h855l-29 -161h-338l-197 -1135h339l-28 -160h-855l28 160h331l197 1135h-332zM848 1824h231l-302 -266h-150z" />
<glyph unicode="&#xce;" d="M317 1456h855l-29 -161h-338l-197 -1135h339l-28 -160h-855l28 160h331l197 1135h-332zM1024 1625l-2 -27l-146 1l-118 150l-172 -149l-153 -1l2 27l272 238h106z" />
<glyph unicode="&#xcf;" d="M317 1456h855l-29 -161h-338l-197 -1135h339l-28 -160h-855l28 160h331l197 1135h-332zM425 1716q0 46 29.5 76.5t76.5 32.5q46 1 77 -28.5t30 -76.5q-1 -46 -31 -76t-76 -32q-47 -1 -77 28t-29 76zM841 1714q1 46 30.5 77t76.5 33q47 1 77 -28.5t30 -77.5 q-1 -46 -31 -76t-77 -32q-46 -1 -76 28t-30 76z" />
<glyph unicode="&#xd0;" horiz-adv-x="1232" d="M76 0l115 666h-221l27 151h220l111 639l316 -1q144 -3 249.5 -58.5t171 -147t90 -212.5t7.5 -256l-15 -107q-22 -144 -82.5 -267t-154.5 -213.5t-219 -142t-276 -51.5h-339zM589 666h-214l-89 -515l133 -1q117 1 210 42t162 111.5t113 166t62 204.5l16 110 q13 96 2.5 187.5t-50.5 164t-111.5 118t-181.5 49.5l-155 1l-85 -487h215z" />
<glyph unicode="&#xd1;" d="M950 0h-178l-362 1096l-193 -1096h-183l253 1456h178l362 -1094l193 1094h183zM1116 1844q-5 -44 -21.5 -84.5t-44 -72t-66 -50.5t-86.5 -19q-38 0 -70 15.5t-62.5 34.5t-62 34.5t-68.5 14.5q-24 -1 -43.5 -10.5t-34 -25t-24.5 -35.5t-16 -41l-100 23q5 43 22 85 t44.5 74.5t66 52t86.5 19.5q37 0 69 -16t63 -34.5t62.5 -34t68.5 -14.5q50 2 79 35.5t41 77.5z" />
<glyph unicode="&#xd2;" d="M1097 645q-13 -77 -36.5 -156.5t-59 -154t-83.5 -140.5t-109.5 -114t-137 -75t-165.5 -25q-86 2 -151.5 32.5t-112.5 80.5t-77 116t-45 139t-16.5 149t8.5 147l26 166q13 77 36.5 156.5t59 154t84 140.5t110 114.5t137 75.5t165.5 25q87 -2 152.5 -32.5t112.5 -80.5 t76.5 -116t44 -139.5t16 -150t-8.5 -147.5zM944 814q6 46 9.5 100t-1 108.5t-18.5 106t-41.5 91.5t-70 65t-104.5 27q-65 2 -117.5 -19.5t-94 -60t-73 -89t-54.5 -107t-38 -114.5t-24 -110l-28 -169q-6 -45 -9 -99t2 -109t19 -107t42 -92.5t70.5 -66t104.5 -27.5 q65 -2 118 19.5t94 60t72 89.5t53.5 107.5t37.5 114.5t24 111zM858 1582h-134l-199 266h204z" />
<glyph unicode="&#xd3;" d="M1097 645q-13 -77 -36.5 -156.5t-59 -154t-83.5 -140.5t-109.5 -114t-137 -75t-165.5 -25q-86 2 -151.5 32.5t-112.5 80.5t-77 116t-45 139t-16.5 149t8.5 147l26 166q13 77 36.5 156.5t59 154t84 140.5t110 114.5t137 75.5t165.5 25q87 -2 152.5 -32.5t112.5 -80.5 t76.5 -116t44 -139.5t16 -150t-8.5 -147.5zM944 814q6 46 9.5 100t-1 108.5t-18.5 106t-41.5 91.5t-70 65t-104.5 27q-65 2 -117.5 -19.5t-94 -60t-73 -89t-54.5 -107t-38 -114.5t-24 -110l-28 -169q-6 -45 -9 -99t2 -109t19 -107t42 -92.5t70.5 -66t104.5 -27.5 q65 -2 118 19.5t94 60t72 89.5t53.5 107.5t37.5 114.5t24 111zM915 1845h231l-302 -266h-150z" />
<glyph unicode="&#xd4;" d="M1097 645q-13 -77 -36.5 -156.5t-59 -154t-83.5 -140.5t-109.5 -114t-137 -75t-165.5 -25q-86 2 -151.5 32.5t-112.5 80.5t-77 116t-45 139t-16.5 149t8.5 147l26 166q13 77 36.5 156.5t59 154t84 140.5t110 114.5t137 75.5t165.5 25q87 -2 152.5 -32.5t112.5 -80.5 t76.5 -116t44 -139.5t16 -150t-8.5 -147.5zM944 814q6 46 9.5 100t-1 108.5t-18.5 106t-41.5 91.5t-70 65t-104.5 27q-65 2 -117.5 -19.5t-94 -60t-73 -89t-54.5 -107t-38 -114.5t-24 -110l-28 -169q-6 -45 -9 -99t2 -109t19 -107t42 -92.5t70.5 -66t104.5 -27.5 q65 -2 118 19.5t94 60t72 89.5t53.5 107.5t37.5 114.5t24 111zM1091 1646l-2 -27l-146 1l-118 150l-172 -149l-153 -1l2 27l272 238h106z" />
<glyph unicode="&#xd5;" d="M1097 645q-13 -77 -36.5 -156.5t-59 -154t-83.5 -140.5t-109.5 -114t-137 -75t-165.5 -25q-86 2 -151.5 32.5t-112.5 80.5t-77 116t-45 139t-16.5 149t8.5 147l26 166q13 77 36.5 156.5t59 154t84 140.5t110 114.5t137 75.5t165.5 25q87 -2 152.5 -32.5t112.5 -80.5 t76.5 -116t44 -139.5t16 -150t-8.5 -147.5zM944 814q6 46 9.5 100t-1 108.5t-18.5 106t-41.5 91.5t-70 65t-104.5 27q-65 2 -117.5 -19.5t-94 -60t-73 -89t-54.5 -107t-38 -114.5t-24 -110l-28 -169q-6 -45 -9 -99t2 -109t19 -107t42 -92.5t70.5 -66t104.5 -27.5 q65 -2 118 19.5t94 60t72 89.5t53.5 107.5t37.5 114.5t24 111zM1161 1865q-5 -44 -21.5 -84.5t-44 -72t-66 -50.5t-86.5 -19q-38 0 -70 15.5t-62.5 34.5t-62 34.5t-68.5 14.5q-24 -1 -43.5 -10.5t-34 -25t-24.5 -35.5t-16 -41l-100 23q5 43 22 85t44.5 74.5t66 52t86.5 19.5 q37 0 69 -16t63 -34.5t62.5 -34t68.5 -14.5q50 2 79 35.5t41 77.5z" />
<glyph unicode="&#xd6;" d="M1097 645q-13 -77 -36.5 -156.5t-59 -154t-83.5 -140.5t-109.5 -114t-137 -75t-165.5 -25q-86 2 -151.5 32.5t-112.5 80.5t-77 116t-45 139t-16.5 149t8.5 147l26 166q13 77 36.5 156.5t59 154t84 140.5t110 114.5t137 75.5t165.5 25q87 -2 152.5 -32.5t112.5 -80.5 t76.5 -116t44 -139.5t16 -150t-8.5 -147.5zM944 814q6 46 9.5 100t-1 108.5t-18.5 106t-41.5 91.5t-70 65t-104.5 27q-65 2 -117.5 -19.5t-94 -60t-73 -89t-54.5 -107t-38 -114.5t-24 -110l-28 -169q-6 -45 -9 -99t2 -109t19 -107t42 -92.5t70.5 -66t104.5 -27.5 q65 -2 118 19.5t94 60t72 89.5t53.5 107.5t37.5 114.5t24 111zM492 1737q0 46 29.5 76.5t76.5 32.5q46 1 77 -28.5t30 -76.5q-1 -46 -31 -76t-76 -32q-47 -1 -77 28t-29 76zM908 1735q1 46 30.5 77t76.5 33q47 1 77 -28.5t30 -77.5q-1 -46 -31 -76t-77 -32q-46 -1 -76 28 t-30 76z" />
<glyph unicode="&#xd7;" d="M129 338l380 336l-261 334l129 115l260 -334l377 334l102 -132l-377 -333l263 -338l-128 -114l-264 336l-379 -336z" />
<glyph unicode="&#xd8;" d="M1089 645q-13 -77 -36.5 -156.5t-59 -154t-83.5 -140.5t-109.5 -114t-137 -75t-165.5 -25q-88 2 -152.5 32.5t-112.5 81.5l-140 -187h-151l219 293q-24 49 -38.5 104t-21.5 112.5t-6 115.5t9 112l26 166q12 77 36 156.5t59.5 154t84 140.5t110 114.5t137 75.5t165.5 25 q99 -2 169.5 -40t118.5 -100l134 180h151l-221 -295q19 -47 30 -98.5t16 -104.5t3.5 -105.5t-8.5 -102.5zM281 643q-9 -60 -10.5 -134t13.5 -145l617 827q-26 52 -72.5 85.5t-118.5 35.5q-65 2 -117.5 -19.5t-94 -60t-73 -89t-54.5 -107t-38 -114.5t-24 -110zM936 814 q7 50 10 109.5t-4 119.5l-606 -810q28 -40 70 -64.5t104 -26.5q65 -2 118 19.5t94 60t72 89.5t53.5 107.5t37.5 114.5t24 111z" />
<glyph unicode="&#xd9;" d="M1205 1456l-167 -985q-15 -100 -61 -190t-116 -157.5t-161 -106.5t-197 -37q-100 2 -177 43.5t-127.5 109t-72.5 155t-11 181.5l170 987h172l-165 -987q-7 -59 2 -117t36 -105t72.5 -77.5t112.5 -32.5q71 -2 129.5 25.5t102 74.5t71.5 108t40 125l172 986h175zM878 1549 h-134l-199 266h204z" />
<glyph unicode="&#xda;" d="M1205 1456l-167 -985q-15 -100 -61 -190t-116 -157.5t-161 -106.5t-197 -37q-100 2 -177 43.5t-127.5 109t-72.5 155t-11 181.5l170 987h172l-165 -987q-7 -59 2 -117t36 -105t72.5 -77.5t112.5 -32.5q71 -2 129.5 25.5t102 74.5t71.5 108t40 125l172 986h175zM935 1812 h231l-302 -266h-150z" />
<glyph unicode="&#xdb;" d="M1205 1456l-167 -985q-15 -100 -61 -190t-116 -157.5t-161 -106.5t-197 -37q-100 2 -177 43.5t-127.5 109t-72.5 155t-11 181.5l170 987h172l-165 -987q-7 -59 2 -117t36 -105t72.5 -77.5t112.5 -32.5q71 -2 129.5 25.5t102 74.5t71.5 108t40 125l172 986h175zM1111 1613 l-2 -27l-146 1l-118 150l-172 -149l-153 -1l2 27l272 238h106z" />
<glyph unicode="&#xdc;" d="M1205 1456l-167 -985q-15 -100 -61 -190t-116 -157.5t-161 -106.5t-197 -37q-100 2 -177 43.5t-127.5 109t-72.5 155t-11 181.5l170 987h172l-165 -987q-7 -59 2 -117t36 -105t72.5 -77.5t112.5 -32.5q71 -2 129.5 25.5t102 74.5t71.5 108t40 125l172 986h175zM512 1704 q0 46 29.5 76.5t76.5 32.5q46 1 77 -28.5t30 -76.5q-1 -46 -31 -76t-76 -32q-47 -1 -77 28t-29 76zM928 1702q1 46 30.5 77t76.5 33q47 1 77 -28.5t30 -77.5q-1 -46 -31 -76t-77 -32q-46 -1 -76 28t-30 76z" />
<glyph unicode="&#xdd;" d="M602 726l448 730h215l-605 -924l-95 -532h-168l94 554l-279 902h196zM888 1823h231l-302 -266h-150z" />
<glyph unicode="&#xde;" d="M492 1456l-51 -293l256 -1q93 -3 171.5 -31.5t134.5 -81.5t84.5 -129.5t20.5 -174.5q-9 -107 -56 -188t-119.5 -135.5t-165.5 -82t-194 -27.5l-279 1l-55 -313h-181l253 1456h181zM415 1011l-95 -546l257 -2q65 0 125 18.5t107 54.5t78.5 88t40.5 120q7 59 -6.5 107 t-44.5 82.5t-78 54.5t-105 22z" />
<glyph unicode="&#xdf;" d="M239 0h-180l186 1087q13 90 46.5 176t89 152.5t133 106t179.5 36.5q73 -2 131.5 -26t98.5 -67t59.5 -103t13.5 -133q-5 -62 -31 -113t-56.5 -99t-58.5 -97t-37 -107q-8 -45 5 -85t37 -77.5t53.5 -74.5t55 -76t41.5 -82t13 -93q-5 -80 -34.5 -144.5t-79 -110.5t-117 -70 t-146.5 -23q-36 0 -74.5 4t-75.5 12.5t-72.5 22.5t-65.5 34l54 156q48 -33 105 -55t116 -22q43 0 79 13t63.5 37.5t45 59t23.5 76.5q7 48 -7.5 89t-39 79t-54.5 75.5t-55.5 77t-41 84t-10.5 96.5q3 39 17.5 73t34 65.5t41.5 61.5t42 61.5t35 65t20 71.5q4 34 -1.5 68 t-21 61.5t-42.5 45t-66 19.5q-65 3 -111.5 -27t-78.5 -77.5t-50 -105.5t-26 -110z" />
<glyph unicode="&#xe0;" d="M764 0q-8 30 -8 59t3 59q-71 -63 -154.5 -101t-180.5 -36q-68 1 -128.5 23t-105 62t-69 97t-20.5 129q4 70 28.5 124t63.5 94.5t90 68.5t108.5 45.5t119 25t121.5 7.5l206 -1l13 86q6 51 -7.5 90t-41.5 66t-68.5 41t-89.5 15q-43 1 -84.5 -9t-76 -31t-59.5 -53.5 t-35 -77.5l-181 -1q9 82 53 142.5t108.5 100.5t141.5 59.5t151 18.5q82 -2 153 -26t121.5 -70.5t76.5 -113.5t17 -154l-84 -503q-9 -55 -9.5 -110t12.5 -109l-2 -17h-183zM459 140q96 -2 179 43.5t139 121.5l39 220l-155 1q-55 0 -117.5 -7t-117.5 -29t-94 -63t-47 -108 q-5 -43 6 -76t35 -55.5t58 -34.5t75 -13zM791 1239h-134l-199 266h204z" />
<glyph unicode="&#xe1;" d="M764 0q-8 30 -8 59t3 59q-71 -63 -154.5 -101t-180.5 -36q-68 1 -128.5 23t-105 62t-69 97t-20.5 129q4 70 28.5 124t63.5 94.5t90 68.5t108.5 45.5t119 25t121.5 7.5l206 -1l13 86q6 51 -7.5 90t-41.5 66t-68.5 41t-89.5 15q-43 1 -84.5 -9t-76 -31t-59.5 -53.5 t-35 -77.5l-181 -1q9 82 53 142.5t108.5 100.5t141.5 59.5t151 18.5q82 -2 153 -26t121.5 -70.5t76.5 -113.5t17 -154l-84 -503q-9 -55 -9.5 -110t12.5 -109l-2 -17h-183zM459 140q96 -2 179 43.5t139 121.5l39 220l-155 1q-55 0 -117.5 -7t-117.5 -29t-94 -63t-47 -108 q-5 -43 6 -76t35 -55.5t58 -34.5t75 -13zM848 1502h231l-302 -266h-150z" />
<glyph unicode="&#xe2;" d="M764 0q-8 30 -8 59t3 59q-71 -63 -154.5 -101t-180.5 -36q-68 1 -128.5 23t-105 62t-69 97t-20.5 129q4 70 28.5 124t63.5 94.5t90 68.5t108.5 45.5t119 25t121.5 7.5l206 -1l13 86q6 51 -7.5 90t-41.5 66t-68.5 41t-89.5 15q-43 1 -84.5 -9t-76 -31t-59.5 -53.5 t-35 -77.5l-181 -1q9 82 53 142.5t108.5 100.5t141.5 59.5t151 18.5q82 -2 153 -26t121.5 -70.5t76.5 -113.5t17 -154l-84 -503q-9 -55 -9.5 -110t12.5 -109l-2 -17h-183zM459 140q96 -2 179 43.5t139 121.5l39 220l-155 1q-55 0 -117.5 -7t-117.5 -29t-94 -63t-47 -108 q-5 -43 6 -76t35 -55.5t58 -34.5t75 -13zM1024 1303l-2 -27l-146 1l-118 150l-172 -149l-153 -1l2 27l272 238h106z" />
<glyph unicode="&#xe3;" d="M764 0q-8 30 -8 59t3 59q-71 -63 -154.5 -101t-180.5 -36q-68 1 -128.5 23t-105 62t-69 97t-20.5 129q4 70 28.5 124t63.5 94.5t90 68.5t108.5 45.5t119 25t121.5 7.5l206 -1l13 86q6 51 -7.5 90t-41.5 66t-68.5 41t-89.5 15q-43 1 -84.5 -9t-76 -31t-59.5 -53.5 t-35 -77.5l-181 -1q9 82 53 142.5t108.5 100.5t141.5 59.5t151 18.5q82 -2 153 -26t121.5 -70.5t76.5 -113.5t17 -154l-84 -503q-9 -55 -9.5 -110t12.5 -109l-2 -17h-183zM459 140q96 -2 179 43.5t139 121.5l39 220l-155 1q-55 0 -117.5 -7t-117.5 -29t-94 -63t-47 -108 q-5 -43 6 -76t35 -55.5t58 -34.5t75 -13zM1094 1522q-5 -44 -21.5 -84.5t-44 -72t-66 -50.5t-86.5 -19q-38 0 -70 15.5t-62.5 34.5t-62 34.5t-68.5 14.5q-24 -1 -43.5 -10.5t-34 -25t-24.5 -35.5t-16 -41l-100 23q5 43 22 85t44.5 74.5t66 52t86.5 19.5q37 0 69 -16 t63 -34.5t62.5 -34t68.5 -14.5q50 2 79 35.5t41 77.5z" />
<glyph unicode="&#xe4;" d="M764 0q-8 30 -8 59t3 59q-71 -63 -154.5 -101t-180.5 -36q-68 1 -128.5 23t-105 62t-69 97t-20.5 129q4 70 28.5 124t63.5 94.5t90 68.5t108.5 45.5t119 25t121.5 7.5l206 -1l13 86q6 51 -7.5 90t-41.5 66t-68.5 41t-89.5 15q-43 1 -84.5 -9t-76 -31t-59.5 -53.5 t-35 -77.5l-181 -1q9 82 53 142.5t108.5 100.5t141.5 59.5t151 18.5q82 -2 153 -26t121.5 -70.5t76.5 -113.5t17 -154l-84 -503q-9 -55 -9.5 -110t12.5 -109l-2 -17h-183zM459 140q96 -2 179 43.5t139 121.5l39 220l-155 1q-55 0 -117.5 -7t-117.5 -29t-94 -63t-47 -108 q-5 -43 6 -76t35 -55.5t58 -34.5t75 -13zM425 1394q0 46 29.5 76.5t76.5 32.5q46 1 77 -28.5t30 -76.5q-1 -46 -31 -76t-76 -32q-47 -1 -77 28t-29 76zM841 1392q1 46 30.5 77t76.5 33q47 1 77 -28.5t30 -77.5q-1 -46 -31 -76t-77 -32q-46 -1 -76 28t-30 76z" />
<glyph unicode="&#xe5;" d="M764 0q-8 30 -8 59t3 59q-71 -63 -154.5 -101t-180.5 -36q-68 1 -128.5 23t-105 62t-69 97t-20.5 129q4 70 28.5 124t63.5 94.5t90 68.5t108.5 45.5t119 25t121.5 7.5l206 -1l13 86q6 51 -7.5 90t-41.5 66t-68.5 41t-89.5 15q-43 1 -84.5 -9t-76 -31t-59.5 -53.5 t-35 -77.5l-181 -1q9 82 53 142.5t108.5 100.5t141.5 59.5t151 18.5q82 -2 153 -26t121.5 -70.5t76.5 -113.5t17 -154l-84 -503q-9 -55 -9.5 -110t12.5 -109l-2 -17h-183zM459 140q96 -2 179 43.5t139 121.5l39 220l-155 1q-55 0 -117.5 -7t-117.5 -29t-94 -63t-47 -108 q-5 -43 6 -76t35 -55.5t58 -34.5t75 -13zM547 1402q1 43 19 81t47 66.5t67.5 44.5t81.5 16q40 0 74 -15.5t58 -41.5t37 -61t12 -74q-2 -43 -19 -80t-45.5 -64.5t-66.5 -43t-81 -15.5q-40 0 -74 14.5t-59 39.5t-38.5 59t-12.5 74zM645 1405q-3 -40 21 -70t66 -30q22 0 41.5 9 t35 24.5t25 35.5t12.5 41q2 20 -3 38.5t-16 33t-27.5 23.5t-37.5 9q-23 0 -43.5 -9.5t-36 -25.5t-25.5 -36.5t-12 -42.5z" />
<glyph unicode="&#xe6;" d="M776 -19q-41 0 -80.5 8.5t-74 26t-63 44.5t-47.5 65q-27 -32 -57 -59t-63.5 -46.5t-72 -30t-81.5 -9.5q-65 1 -113 24.5t-79.5 63.5t-45.5 94t-11 115q6 93 43.5 160.5t97.5 112t137.5 65.5t163.5 21l66 -1l26 149q3 28 1.5 57.5t-11 53.5t-30 39.5t-55.5 16.5 q-36 1 -62.5 -12t-45 -35.5t-30 -51.5t-17.5 -60l-175 8q7 70 34.5 126.5t72 96t104 60.5t130.5 20q33 0 66 -6t62 -18.5t54.5 -33t43.5 -49.5q51 49 110.5 78t131.5 28q79 -2 134 -33.5t88 -83t44.5 -117.5t4.5 -137l-37 -234h-489l-12 -87q-6 -53 -2 -103t23.5 -88.5 t58 -62.5t100.5 -24q57 -1 104.5 19t93.5 49l35 -138q-28 -23 -61.5 -39t-69.5 -25.5t-73 -13t-72 -3.5zM890 952q-50 1 -86 -21t-60.5 -57.5t-40 -79t-22.5 -84.5l-12 -70h324l18 129q3 31 -2 63t-19 58.5t-38.5 43t-61.5 18.5zM279 129q22 0 42 6t39 16.5t36 24t33 26.5 l52 295h-54q-49 -1 -93.5 -17.5t-80 -45.5t-58.5 -70t-29 -91q-3 -29 2.5 -55t20 -46t37 -31.5t53.5 -11.5z" />
<glyph unicode="&#xe7;" d="M533 129q49 -1 97 13.5t87.5 42t67.5 67t39 88.5l171 1q-9 -83 -54 -150.5t-111 -115t-146 -73t-159 -23.5q-114 3 -194 49t-129 120.5t-67 170.5t-8 198l5 43q9 73 32 142t58.5 130t83 111.5t106.5 86.5t128 55t147 17q84 -2 155 -32t121.5 -81.5t77.5 -123t23 -156.5 l-170 1q2 50 -12 93t-42.5 75.5t-69.5 51.5t-93 21q-83 3 -146.5 -30.5t-108.5 -89.5t-72.5 -127t-37.5 -144l-5 -42q-5 -43 -5 -88t7.5 -87.5t23.5 -81t43 -67t65.5 -46.5t91.5 -19zM575 0l-21 -55q62 -15 94 -57t30 -106q-2 -65 -33.5 -106.5t-79.5 -66t-105 -34.5 t-109 -12l4 108q27 1 56.5 6t55.5 16.5t45 32t24 52.5q5 30 -8 46.5t-34.5 25t-47.5 11.5t-47 6l45 133h131z" />
<glyph unicode="&#xe8;" d="M540 -20q-110 2 -193.5 45t-137.5 114t-77.5 164t-14.5 197l5 43q8 71 31 140.5t59.5 132.5t85 116t108 91.5t129 59.5t146.5 19q112 -3 189 -48.5t122 -119.5t60 -168.5t2 -194.5l-13 -83h-745q-8 -66 4.5 -129t44.5 -113t85 -81t126 -33q94 -3 173.5 37t143.5 106 l104 -88q-37 -52 -86.5 -91.5t-106.5 -65.5t-119 -38.5t-125 -11.5zM672 950q-70 3 -126 -23.5t-99.5 -70.5t-75.5 -101t-53 -115l564 -2l4 18q9 55 -1 107t-38 93t-72 66.5t-103 27.5zM787 1240h-134l-199 266h204z" />
<glyph unicode="&#xe9;" d="M540 -20q-110 2 -193.5 45t-137.5 114t-77.5 164t-14.5 197l5 43q8 71 31 140.5t59.5 132.5t85 116t108 91.5t129 59.5t146.5 19q112 -3 189 -48.5t122 -119.5t60 -168.5t2 -194.5l-13 -83h-745q-8 -66 4.5 -129t44.5 -113t85 -81t126 -33q94 -3 173.5 37t143.5 106 l104 -88q-37 -52 -86.5 -91.5t-106.5 -65.5t-119 -38.5t-125 -11.5zM672 950q-70 3 -126 -23.5t-99.5 -70.5t-75.5 -101t-53 -115l564 -2l4 18q9 55 -1 107t-38 93t-72 66.5t-103 27.5zM844 1503h231l-302 -266h-150z" />
<glyph unicode="&#xea;" d="M540 -20q-110 2 -193.5 45t-137.5 114t-77.5 164t-14.5 197l5 43q8 71 31 140.5t59.5 132.5t85 116t108 91.5t129 59.5t146.5 19q112 -3 189 -48.5t122 -119.5t60 -168.5t2 -194.5l-13 -83h-745q-8 -66 4.5 -129t44.5 -113t85 -81t126 -33q94 -3 173.5 37t143.5 106 l104 -88q-37 -52 -86.5 -91.5t-106.5 -65.5t-119 -38.5t-125 -11.5zM672 950q-70 3 -126 -23.5t-99.5 -70.5t-75.5 -101t-53 -115l564 -2l4 18q9 55 -1 107t-38 93t-72 66.5t-103 27.5zM1020 1304l-2 -27l-146 1l-118 150l-172 -149l-153 -1l2 27l272 238h106z" />
<glyph unicode="&#xeb;" d="M540 -20q-110 2 -193.5 45t-137.5 114t-77.5 164t-14.5 197l5 43q8 71 31 140.5t59.5 132.5t85 116t108 91.5t129 59.5t146.5 19q112 -3 189 -48.5t122 -119.5t60 -168.5t2 -194.5l-13 -83h-745q-8 -66 4.5 -129t44.5 -113t85 -81t126 -33q94 -3 173.5 37t143.5 106 l104 -88q-37 -52 -86.5 -91.5t-106.5 -65.5t-119 -38.5t-125 -11.5zM672 950q-70 3 -126 -23.5t-99.5 -70.5t-75.5 -101t-53 -115l564 -2l4 18q9 55 -1 107t-38 93t-72 66.5t-103 27.5zM421 1395q0 46 29.5 76.5t76.5 32.5q46 1 77 -28.5t30 -76.5q-1 -46 -31 -76t-76 -32 q-47 -1 -77 28t-29 76zM837 1393q1 46 30.5 77t76.5 33q47 1 77 -28.5t30 -77.5q-1 -46 -31 -76t-77 -32q-46 -1 -76 28t-30 76z" />
<glyph unicode="&#xec;" d="M280 1082h538l-160 -922h343l-29 -160h-880l29 160h356l132 761h-357zM828 1218h-134l-199 266h204z" />
<glyph unicode="&#xed;" d="M280 1082h538l-160 -922h343l-29 -160h-880l29 160h356l132 761h-357zM885 1481h231l-302 -266h-150z" />
<glyph unicode="&#xee;" d="M280 1082h538l-160 -922h343l-29 -160h-880l29 160h356l132 761h-357zM1061 1282l-2 -27l-146 1l-118 150l-172 -149l-153 -1l2 27l272 238h106z" />
<glyph unicode="&#xef;" d="M280 1082h538l-160 -922h343l-29 -160h-880l29 160h356l132 761h-357zM462 1373q0 46 29.5 76.5t76.5 32.5q46 1 77 -28.5t30 -76.5q-1 -46 -31 -76t-76 -32q-47 -1 -77 28t-29 76zM878 1371q1 46 30.5 77t76.5 33q47 1 77 -28.5t30 -77.5q-1 -46 -31 -76t-77 -32 q-46 -1 -76 28t-30 76z" />
<glyph unicode="&#xf0;" d="M938 1284q80 -154 101.5 -316t-0.5 -333l-8 -63q-15 -114 -59.5 -221.5t-117 -191t-172.5 -133t-226 -46.5q-99 3 -178.5 41.5t-133.5 103.5t-79 151t-16 183q10 108 54.5 203.5t116.5 166.5t167.5 111t207.5 37q81 -2 151 -34.5t124 -89.5q2 91 -21 177t-73 163 l-287 -152l-58 107l253 133q-35 28 -73 47t-80 35l71 157q72 -23 135 -58.5t117 -86.5l250 133l58 -109zM868 687q-19 39 -50 65.5t-69 43t-80 24t-82 7.5q-76 1 -138 -30.5t-108 -83.5t-74 -118.5t-36 -135.5q-8 -60 3.5 -118t41.5 -104t78.5 -75.5t114.5 -31.5 q89 -3 155.5 37.5t113 105.5t74 144t39.5 154l10 64z" />
<glyph unicode="&#xf1;" d="M413 1083l-23 -161q33 40 72 74t83 58t93 36.5t103 11.5q91 -2 153 -36t98.5 -90.5t49 -131.5t3.5 -157l-115 -687h-181l115 684q6 55 0.5 102t-27 82t-60.5 55.5t-99 21.5q-47 1 -89.5 -11.5t-79.5 -35t-69.5 -54t-59.5 -67.5l-135 -777h-181l188 1082zM1075 1522 q-5 -44 -21.5 -84.5t-44 -72t-66 -50.5t-86.5 -19q-38 0 -70 15.5t-62.5 34.5t-62 34.5t-68.5 14.5q-24 -1 -43.5 -10.5t-34 -25t-24.5 -35.5t-16 -41l-100 23q5 43 22 85t44.5 74.5t66 52t86.5 19.5q37 0 69 -16t63 -34.5t62.5 -34t68.5 -14.5q50 2 79 35.5t41 77.5z" />
<glyph unicode="&#xf2;" d="M110 544q9 73 31.5 143.5t57.5 133t82.5 115t106 90t128 58t149.5 18.5q114 -3 194.5 -50.5t129.5 -124t67.5 -174t7.5 -199.5l-2 -23q-14 -109 -58.5 -210t-115.5 -177.5t-167.5 -121.5t-214.5 -42q-113 3 -193.5 49.5t-129.5 122.5t-68 172t-8 198zM288 522 q-5 -42 -4.5 -87t8 -88t23.5 -82t43 -68.5t65.5 -47.5t90.5 -20q83 -3 147 33t109.5 94t72.5 130.5t38 144.5l2 22q7 63 2.5 132t-29.5 127.5t-73 97t-126 41.5q-84 3 -148 -33.5t-109 -95.5t-72 -132.5t-37 -145.5zM781 1239h-134l-199 266h204z" />
<glyph unicode="&#xf3;" d="M110 544q9 73 31.5 143.5t57.5 133t82.5 115t106 90t128 58t149.5 18.5q114 -3 194.5 -50.5t129.5 -124t67.5 -174t7.5 -199.5l-2 -23q-14 -109 -58.5 -210t-115.5 -177.5t-167.5 -121.5t-214.5 -42q-113 3 -193.5 49.5t-129.5 122.5t-68 172t-8 198zM288 522 q-5 -42 -4.5 -87t8 -88t23.5 -82t43 -68.5t65.5 -47.5t90.5 -20q83 -3 147 33t109.5 94t72.5 130.5t38 144.5l2 22q7 63 2.5 132t-29.5 127.5t-73 97t-126 41.5q-84 3 -148 -33.5t-109 -95.5t-72 -132.5t-37 -145.5zM838 1502h231l-302 -266h-150z" />
<glyph unicode="&#xf4;" d="M110 544q9 73 31.5 143.5t57.5 133t82.5 115t106 90t128 58t149.5 18.5q114 -3 194.5 -50.5t129.5 -124t67.5 -174t7.5 -199.5l-2 -23q-14 -109 -58.5 -210t-115.5 -177.5t-167.5 -121.5t-214.5 -42q-113 3 -193.5 49.5t-129.5 122.5t-68 172t-8 198zM288 522 q-5 -42 -4.5 -87t8 -88t23.5 -82t43 -68.5t65.5 -47.5t90.5 -20q83 -3 147 33t109.5 94t72.5 130.5t38 144.5l2 22q7 63 2.5 132t-29.5 127.5t-73 97t-126 41.5q-84 3 -148 -33.5t-109 -95.5t-72 -132.5t-37 -145.5zM1014 1303l-2 -27l-146 1l-118 150l-172 -149l-153 -1 l2 27l272 238h106z" />
<glyph unicode="&#xf5;" d="M110 544q9 73 31.5 143.5t57.5 133t82.5 115t106 90t128 58t149.5 18.5q114 -3 194.5 -50.5t129.5 -124t67.5 -174t7.5 -199.5l-2 -23q-14 -109 -58.5 -210t-115.5 -177.5t-167.5 -121.5t-214.5 -42q-113 3 -193.5 49.5t-129.5 122.5t-68 172t-8 198zM288 522 q-5 -42 -4.5 -87t8 -88t23.5 -82t43 -68.5t65.5 -47.5t90.5 -20q83 -3 147 33t109.5 94t72.5 130.5t38 144.5l2 22q7 63 2.5 132t-29.5 127.5t-73 97t-126 41.5q-84 3 -148 -33.5t-109 -95.5t-72 -132.5t-37 -145.5zM1084 1522q-5 -44 -21.5 -84.5t-44 -72t-66 -50.5 t-86.5 -19q-38 0 -70 15.5t-62.5 34.5t-62 34.5t-68.5 14.5q-24 -1 -43.5 -10.5t-34 -25t-24.5 -35.5t-16 -41l-100 23q5 43 22 85t44.5 74.5t66 52t86.5 19.5q37 0 69 -16t63 -34.5t62.5 -34t68.5 -14.5q50 2 79 35.5t41 77.5z" />
<glyph unicode="&#xf6;" d="M110 544q9 73 31.5 143.5t57.5 133t82.5 115t106 90t128 58t149.5 18.5q114 -3 194.5 -50.5t129.5 -124t67.5 -174t7.5 -199.5l-2 -23q-14 -109 -58.5 -210t-115.5 -177.5t-167.5 -121.5t-214.5 -42q-113 3 -193.5 49.5t-129.5 122.5t-68 172t-8 198zM288 522 q-5 -42 -4.5 -87t8 -88t23.5 -82t43 -68.5t65.5 -47.5t90.5 -20q83 -3 147 33t109.5 94t72.5 130.5t38 144.5l2 22q7 63 2.5 132t-29.5 127.5t-73 97t-126 41.5q-84 3 -148 -33.5t-109 -95.5t-72 -132.5t-37 -145.5zM415 1394q0 46 29.5 76.5t76.5 32.5q46 1 77 -28.5 t30 -76.5q-1 -46 -31 -76t-76 -32q-47 -1 -77 28t-29 76zM831 1392q1 46 30.5 77t76.5 33q47 1 77 -28.5t30 -77.5q-1 -46 -31 -76t-77 -32q-46 -1 -76 28t-30 76z" />
<glyph unicode="&#xf7;" d="M1080 600h-969l32 184h970zM578 1094q1 47 30 78t76 33q23 1 43 -6.5t34 -22t22 -34t8 -42.5q-1 -47 -31 -77t-76 -32q-47 -2 -77 27t-29 76zM435 279q0 47 29.5 78t76.5 33q23 1 43 -6.5t34 -22t22 -34t8 -42.5q-1 -47 -31 -77t-76 -32q-23 -1 -42.5 6.5t-34 21.5 t-22 33t-7.5 42z" />
<glyph unicode="&#xf8;" d="M110 544q9 73 31.5 143.5t57.5 133t82.5 115t106 90t128 58t149.5 18.5q57 -2 105.5 -15t89.5 -36l103 158h131l-148 -226q37 -39 62.5 -88.5t40 -105t18 -115t-2.5 -120.5l-2 -23q-14 -109 -58.5 -210t-115.5 -177.5t-167.5 -121.5t-214.5 -42q-54 2 -100 13.5t-85 31.5 l-104 -160h-131l147 225q-39 39 -65.5 88t-42.5 104.5t-20 116.5t2 123zM288 522q-5 -36 -5.5 -73.5t4 -74.5t15 -72t27.5 -65l443 680q-48 31 -115 34q-84 3 -148 -33.5t-109 -95.5t-72 -132.5t-37 -145.5zM883 553q4 34 4.5 70t-3.5 72t-13 70.5t-24 64.5l-440 -673 q45 -27 107 -28q83 -3 147 33t109.5 94t72.5 130.5t38 144.5z" />
<glyph unicode="&#xf9;" d="M780 149q-64 -79 -147 -125t-188 -44q-97 2 -158.5 42.5t-95 105.5t-42 146.5t0.5 164.5l108 643h181l-107 -646q-6 -50 -7 -102.5t13.5 -95.5t48.5 -71t97 -30q100 -3 177 41.5t130 126.5l135 777h182l-188 -1082h-163zM776 1219h-134l-199 266h204z" />
<glyph unicode="&#xfa;" d="M780 149q-64 -79 -147 -125t-188 -44q-97 2 -158.5 42.5t-95 105.5t-42 146.5t0.5 164.5l108 643h181l-107 -646q-6 -50 -7 -102.5t13.5 -95.5t48.5 -71t97 -30q100 -3 177 41.5t130 126.5l135 777h182l-188 -1082h-163zM833 1482h231l-302 -266h-150z" />
<glyph unicode="&#xfb;" d="M780 149q-64 -79 -147 -125t-188 -44q-97 2 -158.5 42.5t-95 105.5t-42 146.5t0.5 164.5l108 643h181l-107 -646q-6 -50 -7 -102.5t13.5 -95.5t48.5 -71t97 -30q100 -3 177 41.5t130 126.5l135 777h182l-188 -1082h-163zM1009 1283l-2 -27l-146 1l-118 150l-172 -149 l-153 -1l2 27l272 238h106z" />
<glyph unicode="&#xfc;" d="M780 149q-64 -79 -147 -125t-188 -44q-97 2 -158.5 42.5t-95 105.5t-42 146.5t0.5 164.5l108 643h181l-107 -646q-6 -50 -7 -102.5t13.5 -95.5t48.5 -71t97 -30q100 -3 177 41.5t130 126.5l135 777h182l-188 -1082h-163zM410 1374q0 46 29.5 76.5t76.5 32.5 q46 1 77 -28.5t30 -76.5q-1 -46 -31 -76t-76 -32q-47 -1 -77 28t-29 76zM826 1372q1 46 30.5 77t76.5 33q47 1 77 -28.5t30 -77.5q-1 -46 -31 -76t-77 -32q-46 -1 -76 28t-30 76z" />
<glyph unicode="&#xfd;" d="M516 375l21 -120l464 827h211l-748 -1250q-30 -52 -68 -101t-84.5 -87.5t-102 -61t-120.5 -22.5q-29 0 -58.5 5.5t-58.5 10.5l41 153q22 -2 44 -5t43 -3q39 1 72 19t60 45t49 59.5t41 61.5l103 156l-271 1020h193zM853 1482h231l-302 -266h-150z" />
<glyph unicode="&#xfe;" d="M1043 535q-8 -66 -26 -133.5t-47 -129.5t-68.5 -116t-90.5 -94t-115 -62.5t-140 -20.5q-85 2 -159 32.5t-128 96.5l-97 -524h-181l343 1974h180l-110 -589q63 66 141 100.5t172 32.5q73 -2 128 -26.5t93.5 -65t63 -94t36.5 -113.5t13 -123.5t-5 -123.5zM864 557 q5 40 5.5 84t-5.5 86.5t-20.5 81.5t-39.5 68.5t-62 47.5t-88 20q-86 3 -153.5 -39.5t-117.5 -108.5l-91 -520q31 -70 86 -107.5t133 -39.5q84 -2 145.5 34.5t104 95.5t67 132t34.5 144z" />
<glyph unicode="&#xff;" d="M516 375l21 -120l464 827h211l-748 -1250q-30 -52 -68 -101t-84.5 -87.5t-102 -61t-120.5 -22.5q-29 0 -58.5 5.5t-58.5 10.5l41 153q22 -2 44 -5t43 -3q39 1 72 19t60 45t49 59.5t41 61.5l103 156l-271 1020h193zM430 1374q0 46 29.5 76.5t76.5 32.5q46 1 77 -28.5 t30 -76.5q-1 -46 -31 -76t-76 -32q-47 -1 -77 28t-29 76zM846 1372q1 46 30.5 77t76.5 33q47 1 77 -28.5t30 -77.5q-1 -46 -31 -76t-77 -32q-46 -1 -76 28t-30 76z" />
<glyph unicode="&#x100;" d="M807 377h-469l-180 -377h-188l709 1456h152l195 -1456h-173zM413 538h375l-76 630zM1141 1643h-694l23 143h694z" />
<glyph unicode="&#x101;" d="M764 0q-8 30 -8 59t3 59q-71 -63 -154.5 -101t-180.5 -36q-68 1 -128.5 23t-105 62t-69 97t-20.5 129q4 70 28.5 124t63.5 94.5t90 68.5t108.5 45.5t119 25t121.5 7.5l206 -1l13 86q6 51 -7.5 90t-41.5 66t-68.5 41t-89.5 15q-43 1 -84.5 -9t-76 -31t-59.5 -53.5 t-35 -77.5l-181 -1q9 82 53 142.5t108.5 100.5t141.5 59.5t151 18.5q82 -2 153 -26t121.5 -70.5t76.5 -113.5t17 -154l-84 -503q-9 -55 -9.5 -110t12.5 -109l-2 -17h-183zM459 140q96 -2 179 43.5t139 121.5l39 220l-155 1q-55 0 -117.5 -7t-117.5 -29t-94 -63t-47 -108 q-5 -43 6 -76t35 -55.5t58 -34.5t75 -13zM1081 1321h-694l23 143h694z" />
<glyph unicode="&#x102;" d="M807 377h-469l-180 -377h-188l709 1456h152l195 -1456h-173zM413 538h375l-76 630zM1111 1866q-6 -63 -31.5 -113t-66.5 -84.5t-94.5 -52.5t-116.5 -17q-61 1 -110.5 20.5t-85 54t-54.5 83.5t-18 110l146 -1q-1 -32 5 -59t21 -47t38.5 -31.5t58.5 -11.5t62.5 11t48 31 t33.5 47t19 59z" />
<glyph unicode="&#x103;" d="M764 0q-8 30 -8 59t3 59q-71 -63 -154.5 -101t-180.5 -36q-68 1 -128.5 23t-105 62t-69 97t-20.5 129q4 70 28.5 124t63.5 94.5t90 68.5t108.5 45.5t119 25t121.5 7.5l206 -1l13 86q6 51 -7.5 90t-41.5 66t-68.5 41t-89.5 15q-43 1 -84.5 -9t-76 -31t-59.5 -53.5 t-35 -77.5l-181 -1q9 82 53 142.5t108.5 100.5t141.5 59.5t151 18.5q82 -2 153 -26t121.5 -70.5t76.5 -113.5t17 -154l-84 -503q-9 -55 -9.5 -110t12.5 -109l-2 -17h-183zM459 140q96 -2 179 43.5t139 121.5l39 220l-155 1q-55 0 -117.5 -7t-117.5 -29t-94 -63t-47 -108 q-5 -43 6 -76t35 -55.5t58 -34.5t75 -13zM1051 1544q-6 -63 -31.5 -113t-66.5 -84.5t-94.5 -52.5t-116.5 -17q-61 1 -110.5 20.5t-85 54t-54.5 83.5t-18 110l146 -1q-1 -32 5 -59t21 -47t38.5 -31.5t58.5 -11.5t62.5 11t48 31t33.5 47t19 59z" />
<glyph unicode="&#x104;" d="M978 0l5 -3q-32 -17 -65 -39.5t-61 -50t-47.5 -61t-23.5 -72.5q-6 -66 57 -67q26 -2 51 6t48 19l21 -123q-38 -22 -80.5 -32t-86.5 -9q-81 1 -127 51t-44 131q1 48 21 90t51.5 77t71 63.5t80.5 51.5l-42 345h-469l-180 -377h-188l709 1456h152l195 -1456h-48zM413 538 h375l-76 630z" />
<glyph unicode="&#x105;" d="M900 0l5 -3q-32 -17 -65 -39.5t-61 -50t-47.5 -61t-23.5 -72.5q-6 -66 57 -67q26 -2 51 6t48 19l21 -123q-38 -22 -80.5 -32t-86.5 -9q-81 1 -127 51t-44 131q1 46 19.5 86.5t48.5 75t67.5 62.5t76.5 51q-4 23 -3 46t3 47q-71 -63 -154.5 -101t-180.5 -36 q-68 1 -128.5 23t-105 62t-69 97t-20.5 129q4 70 28.5 124t63.5 94.5t90 68.5t108.5 45.5t119 25t121.5 7.5l206 -1l13 86q6 51 -7.5 90t-41.5 66t-68.5 41t-89.5 15q-43 1 -84.5 -9t-76 -31t-59.5 -53.5t-35 -77.5l-181 -1q9 82 53 142.5t108.5 100.5t141.5 59.5t151 18.5 q82 -2 153 -26t121.5 -70.5t76.5 -113.5t17 -154l-84 -503q-9 -55 -9.5 -110t12.5 -109l-2 -17h-47zM459 140q96 -2 179 43.5t139 121.5l39 220l-155 1q-55 0 -117.5 -7t-117.5 -29t-94 -63t-47 -108q-5 -43 6 -76t35 -55.5t58 -34.5t75 -13z" />
<glyph unicode="&#x106;" d="M1046 440q-20 -99 -66 -184.5t-114.5 -147.5t-157 -96.5t-193.5 -31.5q-86 2 -152.5 30.5t-115 76t-79.5 110.5t-47.5 134t-18.5 146.5t8 148.5l32 203q13 79 37.5 158t61 151.5t85.5 135t111.5 108t138.5 71t167 23.5q103 -2 179 -39.5t127 -100.5t77.5 -147t30.5 -180 h-179q-3 60 -16 116t-41.5 100t-74 71.5t-113.5 29.5q-66 2 -119.5 -19t-96 -57.5t-74 -86.5t-55 -105.5t-39 -114t-24.5 -112.5l-34 -206q-7 -47 -10 -101.5t2 -108.5t19.5 -104.5t42.5 -90t72 -64t107 -26.5q72 -3 128.5 21t99.5 66t72.5 99t47.5 121zM948 1845h231 l-302 -266h-150z" />
<glyph unicode="&#x107;" d="M533 129q49 -1 97 13.5t87.5 42t67.5 67t39 88.5l171 1q-9 -83 -54 -150.5t-111 -115t-146 -73t-159 -23.5q-114 3 -194 49t-129 120.5t-67 170.5t-8 198l5 43q9 73 32 142t58.5 130t83 111.5t106.5 86.5t128 55t147 17q84 -2 155 -32t121.5 -81.5t77.5 -123t23 -156.5 l-170 1q2 50 -12 93t-42.5 75.5t-69.5 51.5t-93 21q-83 3 -146.5 -30.5t-108.5 -89.5t-72.5 -127t-37.5 -144l-5 -42q-5 -43 -5 -88t7.5 -87.5t23.5 -81t43 -67t65.5 -46.5t91.5 -19zM866 1502h231l-302 -266h-150z" />
<glyph unicode="&#x108;" d="M1046 440q-20 -99 -66 -184.5t-114.5 -147.5t-157 -96.5t-193.5 -31.5q-86 2 -152.5 30.5t-115 76t-79.5 110.5t-47.5 134t-18.5 146.5t8 148.5l32 203q13 79 37.5 158t61 151.5t85.5 135t111.5 108t138.5 71t167 23.5q103 -2 179 -39.5t127 -100.5t77.5 -147t30.5 -180 h-179q-3 60 -16 116t-41.5 100t-74 71.5t-113.5 29.5q-66 2 -119.5 -19t-96 -57.5t-74 -86.5t-55 -105.5t-39 -114t-24.5 -112.5l-34 -206q-7 -47 -10 -101.5t2 -108.5t19.5 -104.5t42.5 -90t72 -64t107 -26.5q72 -3 128.5 21t99.5 66t72.5 99t47.5 121zM1124 1646l-2 -27 l-146 1l-118 150l-172 -149l-153 -1l2 27l272 238h106z" />
<glyph unicode="&#x109;" d="M533 129q49 -1 97 13.5t87.5 42t67.5 67t39 88.5l171 1q-9 -83 -54 -150.5t-111 -115t-146 -73t-159 -23.5q-114 3 -194 49t-129 120.5t-67 170.5t-8 198l5 43q9 73 32 142t58.5 130t83 111.5t106.5 86.5t128 55t147 17q84 -2 155 -32t121.5 -81.5t77.5 -123t23 -156.5 l-170 1q2 50 -12 93t-42.5 75.5t-69.5 51.5t-93 21q-83 3 -146.5 -30.5t-108.5 -89.5t-72.5 -127t-37.5 -144l-5 -42q-5 -43 -5 -88t7.5 -87.5t23.5 -81t43 -67t65.5 -46.5t91.5 -19zM1042 1303l-2 -27l-146 1l-118 150l-172 -149l-153 -1l2 27l272 238h106z" />
<glyph unicode="&#x10a;" d="M1046 440q-20 -99 -66 -184.5t-114.5 -147.5t-157 -96.5t-193.5 -31.5q-86 2 -152.5 30.5t-115 76t-79.5 110.5t-47.5 134t-18.5 146.5t8 148.5l32 203q13 79 37.5 158t61 151.5t85.5 135t111.5 108t138.5 71t167 23.5q103 -2 179 -39.5t127 -100.5t77.5 -147t30.5 -180 h-179q-3 60 -16 116t-41.5 100t-74 71.5t-113.5 29.5q-66 2 -119.5 -19t-96 -57.5t-74 -86.5t-55 -105.5t-39 -114t-24.5 -112.5l-34 -206q-7 -47 -10 -101.5t2 -108.5t19.5 -104.5t42.5 -90t72 -64t107 -26.5q72 -3 128.5 21t99.5 66t72.5 99t47.5 121zM729 1723 q1 50 32 82t81 34q49 1 80.5 -30t30.5 -80t-32.5 -80t-79.5 -33q-24 -1 -44.5 6.5t-35.5 22t-23.5 34.5t-8.5 44z" />
<glyph unicode="&#x10b;" d="M533 129q49 -1 97 13.5t87.5 42t67.5 67t39 88.5l171 1q-9 -83 -54 -150.5t-111 -115t-146 -73t-159 -23.5q-114 3 -194 49t-129 120.5t-67 170.5t-8 198l5 43q9 73 32 142t58.5 130t83 111.5t106.5 86.5t128 55t147 17q84 -2 155 -32t121.5 -81.5t77.5 -123t23 -156.5 l-170 1q2 50 -12 93t-42.5 75.5t-69.5 51.5t-93 21q-83 3 -146.5 -30.5t-108.5 -89.5t-72.5 -127t-37.5 -144l-5 -42q-5 -43 -5 -88t7.5 -87.5t23.5 -81t43 -67t65.5 -46.5t91.5 -19zM647 1380q1 50 32 82t81 34q49 1 80.5 -30t30.5 -80t-32.5 -80t-79.5 -33 q-24 -1 -44.5 6.5t-35.5 22t-23.5 34.5t-8.5 44z" />
<glyph unicode="&#x10c;" d="M1046 440q-20 -99 -66 -184.5t-114.5 -147.5t-157 -96.5t-193.5 -31.5q-86 2 -152.5 30.5t-115 76t-79.5 110.5t-47.5 134t-18.5 146.5t8 148.5l32 203q13 79 37.5 158t61 151.5t85.5 135t111.5 108t138.5 71t167 23.5q103 -2 179 -39.5t127 -100.5t77.5 -147t30.5 -180 h-179q-3 60 -16 116t-41.5 100t-74 71.5t-113.5 29.5q-66 2 -119.5 -19t-96 -57.5t-74 -86.5t-55 -105.5t-39 -114t-24.5 -112.5l-34 -206q-7 -47 -10 -101.5t2 -108.5t19.5 -104.5t42.5 -90t72 -64t107 -26.5q72 -3 128.5 21t99.5 66t72.5 99t47.5 121zM834 1735l174 150 l161 2l-1 -20l-281 -247h-112l-210 244l2 23l149 -1z" />
<glyph unicode="&#x10d;" d="M533 129q49 -1 97 13.5t87.5 42t67.5 67t39 88.5l171 1q-9 -83 -54 -150.5t-111 -115t-146 -73t-159 -23.5q-114 3 -194 49t-129 120.5t-67 170.5t-8 198l5 43q9 73 32 142t58.5 130t83 111.5t106.5 86.5t128 55t147 17q84 -2 155 -32t121.5 -81.5t77.5 -123t23 -156.5 l-170 1q2 50 -12 93t-42.5 75.5t-69.5 51.5t-93 21q-83 3 -146.5 -30.5t-108.5 -89.5t-72.5 -127t-37.5 -144l-5 -42q-5 -43 -5 -88t7.5 -87.5t23.5 -81t43 -67t65.5 -46.5t91.5 -19zM752 1392l174 150l161 2l-1 -20l-281 -247h-112l-210 244l2 23l149 -1z" />
<glyph unicode="&#x10e;" d="M46 0l252 1456l316 -1q144 -3 249.5 -58.5t171 -147t90 -212.5t7.5 -256l-15 -107q-22 -144 -82.5 -267t-154.5 -213.5t-219 -142t-276 -51.5h-339zM456 1304l-200 -1153l133 -1q117 1 210 42t162 111.5t113 166t62 204.5l16 110q13 96 2.5 187.5t-50.5 164t-111.5 118 t-181.5 49.5zM741 1714l174 150l161 2l-1 -20l-281 -247h-112l-210 244l2 23l149 -1z" />
<glyph unicode="&#x10f;" horiz-adv-x="1352" d="M126 543q8 67 27 135t49 131t71.5 117t94 94t117.5 62t142 20q81 -2 151 -32t121 -96l104 562h181l-267 -1536h-164l19 114q-63 -67 -140.5 -101.5t-170.5 -32.5q-70 2 -124.5 26.5t-94 65.5t-65 94.5t-39.5 113t-17 121.5t3 121zM304 522q-5 -40 -5 -84t6.5 -86.5 t20.5 -80.5t39 -67.5t62 -47.5t88 -19q89 -3 155.5 41t116.5 113l87 505q-29 69 -82.5 108.5t-130.5 41.5q-84 3 -146 -33t-105 -94.5t-68.5 -131t-34.5 -144.5zM1607 1411q-18 -114 -77.5 -212t-148.5 -169l-95 74q52 69 89 143t53 160l26 150h177z" />
<glyph unicode="&#x110;" horiz-adv-x="1232" d="M76 0l115 666h-221l27 151h220l111 639l316 -1q144 -3 249.5 -58.5t171 -147t90 -212.5t7.5 -256l-15 -107q-22 -144 -82.5 -267t-154.5 -213.5t-219 -142t-276 -51.5h-339zM589 666h-214l-89 -515l133 -1q117 1 210 42t162 111.5t113 166t62 204.5l16 110 q13 96 2.5 187.5t-50.5 164t-111.5 118t-181.5 49.5l-155 1l-85 -487h215z" />
<glyph unicode="&#x111;" horiz-adv-x="1232" d="M1322 1234h-191l-214 -1234h-164l19 114q-63 -67 -140.5 -101.5t-170.5 -32.5q-70 2 -124.5 26.5t-94 65.5t-65 94.5t-39.5 113t-17 121.5t3 121l2 21q8 67 27 135t49 131t71.5 117t94 94t117.5 62t142 20q81 -2 151 -32t121 -96l48 260h-244l27 151h245l28 151h181 l-26 -151h191zM304 522q-5 -40 -5 -84t6.5 -86.5t20.5 -80.5t39 -67.5t62 -47.5t88 -19q89 -3 155.5 41t116.5 113l87 505q-29 69 -82.5 108.5t-130.5 41.5q-84 3 -146 -33t-105 -94.5t-68.5 -131t-34.5 -144.5z" />
<glyph unicode="&#x112;" d="M959 673h-589l-90 -516h688l-28 -157h-868l253 1456h860l-28 -158h-679l-81 -468h590zM1131 1643h-694l23 143h694z" />
<glyph unicode="&#x113;" d="M540 -20q-110 2 -193.5 45t-137.5 114t-77.5 164t-14.5 197l5 43q8 71 31 140.5t59.5 132.5t85 116t108 91.5t129 59.5t146.5 19q112 -3 189 -48.5t122 -119.5t60 -168.5t2 -194.5l-13 -83h-745q-8 -66 4.5 -129t44.5 -113t85 -81t126 -33q94 -3 173.5 37t143.5 106 l104 -88q-37 -52 -86.5 -91.5t-106.5 -65.5t-119 -38.5t-125 -11.5zM672 950q-70 3 -126 -23.5t-99.5 -70.5t-75.5 -101t-53 -115l564 -2l4 18q9 55 -1 107t-38 93t-72 66.5t-103 27.5zM1077 1322h-694l23 143h694z" />
<glyph unicode="&#x114;" d="M959 673h-589l-90 -516h688l-28 -157h-868l253 1456h860l-28 -158h-679l-81 -468h590zM1101 1866q-6 -63 -31.5 -113t-66.5 -84.5t-94.5 -52.5t-116.5 -17q-61 1 -110.5 20.5t-85 54t-54.5 83.5t-18 110l146 -1q-1 -32 5 -59t21 -47t38.5 -31.5t58.5 -11.5t62.5 11t48 31 t33.5 47t19 59z" />
<glyph unicode="&#x115;" d="M540 -20q-110 2 -193.5 45t-137.5 114t-77.5 164t-14.5 197l5 43q8 71 31 140.5t59.5 132.5t85 116t108 91.5t129 59.5t146.5 19q112 -3 189 -48.5t122 -119.5t60 -168.5t2 -194.5l-13 -83h-745q-8 -66 4.5 -129t44.5 -113t85 -81t126 -33q94 -3 173.5 37t143.5 106 l104 -88q-37 -52 -86.5 -91.5t-106.5 -65.5t-119 -38.5t-125 -11.5zM672 950q-70 3 -126 -23.5t-99.5 -70.5t-75.5 -101t-53 -115l564 -2l4 18q9 55 -1 107t-38 93t-72 66.5t-103 27.5zM1047 1545q-6 -63 -31.5 -113t-66.5 -84.5t-94.5 -52.5t-116.5 -17q-61 1 -110.5 20.5 t-85 54t-54.5 83.5t-18 110l146 -1q-1 -32 5 -59t21 -47t38.5 -31.5t58.5 -11.5t62.5 11t48 31t33.5 47t19 59z" />
<glyph unicode="&#x116;" d="M959 673h-589l-90 -516h688l-28 -157h-868l253 1456h860l-28 -158h-679l-81 -468h590zM679 1702q1 50 32 82t81 34q49 1 80.5 -30t30.5 -80t-32.5 -80t-79.5 -33q-24 -1 -44.5 6.5t-35.5 22t-23.5 34.5t-8.5 44z" />
<glyph unicode="&#x117;" d="M540 -20q-110 2 -193.5 45t-137.5 114t-77.5 164t-14.5 197l5 43q8 71 31 140.5t59.5 132.5t85 116t108 91.5t129 59.5t146.5 19q112 -3 189 -48.5t122 -119.5t60 -168.5t2 -194.5l-13 -83h-745q-8 -66 4.5 -129t44.5 -113t85 -81t126 -33q94 -3 173.5 37t143.5 106 l104 -88q-37 -52 -86.5 -91.5t-106.5 -65.5t-119 -38.5t-125 -11.5zM672 950q-70 3 -126 -23.5t-99.5 -70.5t-75.5 -101t-53 -115l564 -2l4 18q9 55 -1 107t-38 93t-72 66.5t-103 27.5zM625 1381q1 50 32 82t81 34q49 1 80.5 -30t30.5 -80t-32.5 -80t-79.5 -33 q-24 -1 -44.5 6.5t-35.5 22t-23.5 34.5t-8.5 44z" />
<glyph unicode="&#x118;" d="M959 673h-589l-90 -516h688l-28 -157h-86l5 -3q-32 -17 -65 -39.5t-61 -50t-47.5 -61t-23.5 -72.5q-6 -66 57 -67q26 -2 51 6t48 19l21 -123q-38 -22 -80.5 -32t-86.5 -9q-81 1 -127 51t-44 131q1 40 15.5 76t38 67.5t54 58t63.5 48.5h-600l253 1456h860l-28 -158h-679 l-81 -468h590z" />
<glyph unicode="&#x119;" d="M977 187q-48 -66 -113.5 -111.5t-140.5 -69.5q-30 -17 -61 -38.5t-57 -48t-43.5 -58.5t-20.5 -69q-6 -66 57 -67q26 -2 51 6t48 19l21 -123q-38 -22 -80.5 -32t-86.5 -9q-81 1 -127 51t-44 131q2 66 37 119t86 95q-101 9 -177.5 54t-126 115t-70.5 160t-12 189l5 43 q8 71 31 140.5t59.5 132.5t85 116t108 91.5t129 59.5t146.5 19q112 -3 189 -48.5t122 -119.5t60 -168.5t2 -194.5l-13 -83h-745q-8 -66 4.5 -129t44.5 -113t85 -81t126 -33q94 -3 173.5 37t143.5 106zM672 950q-70 3 -126 -23.5t-99.5 -70.5t-75.5 -101t-53 -115l564 -2 l4 18q9 55 -1 107t-38 93t-72 66.5t-103 27.5z" />
<glyph unicode="&#x11a;" d="M959 673h-589l-90 -516h688l-28 -157h-868l253 1456h860l-28 -158h-679l-81 -468h590zM784 1714l174 150l161 2l-1 -20l-281 -247h-112l-210 244l2 23l149 -1z" />
<glyph unicode="&#x11b;" d="M540 -20q-110 2 -193.5 45t-137.5 114t-77.5 164t-14.5 197l5 43q8 71 31 140.5t59.5 132.5t85 116t108 91.5t129 59.5t146.5 19q112 -3 189 -48.5t122 -119.5t60 -168.5t2 -194.5l-13 -83h-745q-8 -66 4.5 -129t44.5 -113t85 -81t126 -33q94 -3 173.5 37t143.5 106 l104 -88q-37 -52 -86.5 -91.5t-106.5 -65.5t-119 -38.5t-125 -11.5zM672 950q-70 3 -126 -23.5t-99.5 -70.5t-75.5 -101t-53 -115l564 -2l4 18q9 55 -1 107t-38 93t-72 66.5t-103 27.5zM730 1393l174 150l161 2l-1 -20l-281 -247h-112l-210 244l2 23l149 -1z" />
<glyph unicode="&#x11c;" d="M1020 191q-95 -104 -220.5 -159.5t-268.5 -50.5q-86 3 -154 32.5t-118.5 78t-84.5 113t-52.5 137t-22 150t6.5 151.5l26 169q13 79 38 159.5t62.5 155t87.5 139t113.5 112t140.5 74t169 24.5q98 -2 174.5 -37t129 -95t80.5 -141t30 -175h-177q-4 57 -19 109t-44 92 t-74.5 63.5t-109.5 25.5q-67 2 -121 -19.5t-97 -59t-76.5 -88.5t-57.5 -107.5t-40.5 -115.5t-25.5 -114l-28 -172q-7 -49 -8 -104.5t6.5 -110t25 -105t48 -90t75 -65t107.5 -28.5q85 -5 164.5 17.5t140.5 85.5l57 327h-287l27 156h459zM1097 1646l-2 -27l-146 1l-118 150 l-172 -149l-153 -1l2 27l272 238h106z" />
<glyph unicode="&#x11d;" d="M127 543q9 67 27.5 135.5t48.5 131.5t70.5 117t93.5 94t117.5 62t142.5 20q85 -2 157.5 -35.5t120.5 -104.5l35 119h166l-180 -1059q-14 -101 -56.5 -185t-109 -143.5t-154 -92t-192.5 -29.5q-54 1 -107 14t-101 37t-89 58.5t-72 79.5l103 111q47 -67 111.5 -107 t148.5 -42q69 -2 125.5 18.5t99 58.5t71 92t41.5 119l20 95q-63 -63 -138 -96t-166 -31q-71 2 -125.5 26.5t-94 65t-65 94t-39 113t-16.5 122t4 121.5zM305 522q-5 -40 -5 -84t6 -86t20.5 -80.5t39.5 -68t61.5 -47.5t88.5 -20q90 -2 156.5 42.5t116.5 115.5l85 499 q-28 71 -81.5 111t-131.5 42q-84 3 -146 -33t-104.5 -94.5t-67.5 -131t-35 -144.5zM1003 1303l-2 -27l-146 1l-118 150l-172 -149l-153 -1l2 27l272 238h106z" />
<glyph unicode="&#x11e;" d="M1020 191q-95 -104 -220.5 -159.5t-268.5 -50.5q-86 3 -154 32.5t-118.5 78t-84.5 113t-52.5 137t-22 150t6.5 151.5l26 169q13 79 38 159.5t62.5 155t87.5 139t113.5 112t140.5 74t169 24.5q98 -2 174.5 -37t129 -95t80.5 -141t30 -175h-177q-4 57 -19 109t-44 92 t-74.5 63.5t-109.5 25.5q-67 2 -121 -19.5t-97 -59t-76.5 -88.5t-57.5 -107.5t-40.5 -115.5t-25.5 -114l-28 -172q-7 -49 -8 -104.5t6.5 -110t25 -105t48 -90t75 -65t107.5 -28.5q85 -5 164.5 17.5t140.5 85.5l57 327h-287l27 156h459zM1124 1887q-6 -63 -31.5 -113 t-66.5 -84.5t-94.5 -52.5t-116.5 -17q-61 1 -110.5 20.5t-85 54t-54.5 83.5t-18 110l146 -1q-1 -32 5 -59t21 -47t38.5 -31.5t58.5 -11.5t62.5 11t48 31t33.5 47t19 59z" />
<glyph unicode="&#x11f;" d="M127 543q9 67 27.5 135.5t48.5 131.5t70.5 117t93.5 94t117.5 62t142.5 20q85 -2 157.5 -35.5t120.5 -104.5l35 119h166l-180 -1059q-14 -101 -56.5 -185t-109 -143.5t-154 -92t-192.5 -29.5q-54 1 -107 14t-101 37t-89 58.5t-72 79.5l103 111q47 -67 111.5 -107 t148.5 -42q69 -2 125.5 18.5t99 58.5t71 92t41.5 119l20 95q-63 -63 -138 -96t-166 -31q-71 2 -125.5 26.5t-94 65t-65 94t-39 113t-16.5 122t4 121.5zM305 522q-5 -40 -5 -84t6 -86t20.5 -80.5t39.5 -68t61.5 -47.5t88.5 -20q90 -2 156.5 42.5t116.5 115.5l85 499 q-28 71 -81.5 111t-131.5 42q-84 3 -146 -33t-104.5 -94.5t-67.5 -131t-35 -144.5zM1030 1544q-6 -63 -31.5 -113t-66.5 -84.5t-94.5 -52.5t-116.5 -17q-61 1 -110.5 20.5t-85 54t-54.5 83.5t-18 110l146 -1q-1 -32 5 -59t21 -47t38.5 -31.5t58.5 -11.5t62.5 11t48 31 t33.5 47t19 59z" />
<glyph unicode="&#x120;" d="M1020 191q-95 -104 -220.5 -159.5t-268.5 -50.5q-86 3 -154 32.5t-118.5 78t-84.5 113t-52.5 137t-22 150t6.5 151.5l26 169q13 79 38 159.5t62.5 155t87.5 139t113.5 112t140.5 74t169 24.5q98 -2 174.5 -37t129 -95t80.5 -141t30 -175h-177q-4 57 -19 109t-44 92 t-74.5 63.5t-109.5 25.5q-67 2 -121 -19.5t-97 -59t-76.5 -88.5t-57.5 -107.5t-40.5 -115.5t-25.5 -114l-28 -172q-7 -49 -8 -104.5t6.5 -110t25 -105t48 -90t75 -65t107.5 -28.5q85 -5 164.5 17.5t140.5 85.5l57 327h-287l27 156h459zM702 1723q1 50 32 82t81 34 q49 1 80.5 -30t30.5 -80t-32.5 -80t-79.5 -33q-24 -1 -44.5 6.5t-35.5 22t-23.5 34.5t-8.5 44z" />
<glyph unicode="&#x121;" d="M127 543q9 67 27.5 135.5t48.5 131.5t70.5 117t93.5 94t117.5 62t142.5 20q85 -2 157.5 -35.5t120.5 -104.5l35 119h166l-180 -1059q-14 -101 -56.5 -185t-109 -143.5t-154 -92t-192.5 -29.5q-54 1 -107 14t-101 37t-89 58.5t-72 79.5l103 111q47 -67 111.5 -107 t148.5 -42q69 -2 125.5 18.5t99 58.5t71 92t41.5 119l20 95q-63 -63 -138 -96t-166 -31q-71 2 -125.5 26.5t-94 65t-65 94t-39 113t-16.5 122t4 121.5zM305 522q-5 -40 -5 -84t6 -86t20.5 -80.5t39.5 -68t61.5 -47.5t88.5 -20q90 -2 156.5 42.5t116.5 115.5l85 499 q-28 71 -81.5 111t-131.5 42q-84 3 -146 -33t-104.5 -94.5t-67.5 -131t-35 -144.5zM609 1380q1 50 32 82t81 34q49 1 80.5 -30t30.5 -80t-32.5 -80t-79.5 -33q-24 -1 -44.5 6.5t-35.5 22t-23.5 34.5t-8.5 44z" />
<glyph unicode="&#x122;" d="M1020 191q-95 -104 -220.5 -159.5t-268.5 -50.5q-86 3 -154 32.5t-118.5 78t-84.5 113t-52.5 137t-22 150t6.5 151.5l26 169q13 79 38 159.5t62.5 155t87.5 139t113.5 112t140.5 74t169 24.5q98 -2 174.5 -37t129 -95t80.5 -141t30 -175h-177q-4 57 -19 109t-44 92 t-74.5 63.5t-109.5 25.5q-67 2 -121 -19.5t-97 -59t-76.5 -88.5t-57.5 -107.5t-40.5 -115.5t-25.5 -114l-28 -172q-7 -49 -8 -104.5t6.5 -110t25 -105t48 -90t75 -65t107.5 -28.5q85 -5 164.5 17.5t140.5 85.5l57 327h-287l27 156h459zM581 -135q-13 -101 -62 -188.5 t-127 -151.5l-100 74q42 61 72 125t42 137l10 73h173z" />
<glyph unicode="&#x123;" d="M127 543q9 67 27.5 135.5t48.5 131.5t70.5 117t93.5 94t117.5 62t142.5 20q85 -2 157.5 -35.5t120.5 -104.5l35 119h166l-180 -1059q-14 -101 -56.5 -185t-109 -143.5t-154 -92t-192.5 -29.5q-54 1 -107 14t-101 37t-89 58.5t-72 79.5l103 111q47 -67 111.5 -107 t148.5 -42q69 -2 125.5 18.5t99 58.5t71 92t41.5 119l20 95q-63 -63 -138 -96t-166 -31q-71 2 -125.5 26.5t-94 65t-65 94t-39 113t-16.5 122t4 121.5zM305 522q-5 -40 -5 -84t6 -86t20.5 -80.5t39.5 -68t61.5 -47.5t88.5 -20q90 -2 156.5 42.5t116.5 115.5l85 499 q-28 71 -81.5 111t-131.5 42q-84 3 -146 -33t-104.5 -94.5t-67.5 -131t-35 -144.5zM628 1381q14 90 61.5 168t115.5 136l104 -87q-36 -53 -61 -107t-37 -117l-21 -120h-180z" />
<glyph unicode="&#x124;" d="M951 0h-171l117 673h-578l-117 -673h-170l253 1456h170l-109 -626h578l109 626h171zM1063 1625l-2 -27l-146 1l-118 150l-172 -149l-153 -1l2 27l272 238h106z" />
<glyph unicode="&#x125;" d="M396 920q33 40 71.5 74t82 58t92 37.5t102.5 12.5q92 -2 154 -37t98 -93t48 -133.5t3 -157.5l-114 -681h-181l115 684q6 53 0 99.5t-28 82t-60.5 56t-97.5 22.5q-46 1 -87.5 -10.5t-79 -33t-71 -50.5t-61.5 -63l-137 -787h-181l267 1536h181zM995 1664l-2 -27l-146 1 l-118 150l-172 -149l-153 -1l2 27l272 238h106z" />
<glyph unicode="&#x126;" d="M1151 1167h124l-25 -143h-124l-178 -1024h-171l117 673h-578l-117 -673h-170l178 1024h-111l25 143h111l50 289h170l-50 -289h578l50 289h171zM921 830l34 194h-578l-34 -194h578z" />
<glyph unicode="&#x127;" horiz-adv-x="1232" d="M755 1234h-270l-59 -314q33 40 71.5 74t82 58t92 37.5t102.5 12.5q92 -2 154 -37t98 -93t48 -133.5t3 -157.5l-114 -681h-181l115 684q6 53 0 99.5t-28 82t-60.5 56t-97.5 22.5q-46 1 -87.5 -10.5t-79 -33t-71 -50.5t-61.5 -63l-137 -787h-181l214 1234h-172l27 151h171 l27 151h181l-29 -151h269z" />
<glyph unicode="&#x128;" d="M317 1456h855l-29 -161h-338l-197 -1135h339l-28 -160h-855l28 160h331l197 1135h-332zM1094 1844q-5 -44 -21.5 -84.5t-44 -72t-66 -50.5t-86.5 -19q-38 0 -70 15.5t-62.5 34.5t-62 34.5t-68.5 14.5q-24 -1 -43.5 -10.5t-34 -25t-24.5 -35.5t-16 -41l-100 23q5 43 22 85 t44.5 74.5t66 52t86.5 19.5q37 0 69 -16t63 -34.5t62.5 -34t68.5 -14.5q50 2 79 35.5t41 77.5z" />
<glyph unicode="&#x129;" d="M280 1082h538l-160 -922h343l-29 -160h-880l29 160h356l132 761h-357zM1131 1501q-5 -44 -21.5 -84.5t-44 -72t-66 -50.5t-86.5 -19q-38 0 -70 15.5t-62.5 34.5t-62 34.5t-68.5 14.5q-24 -1 -43.5 -10.5t-34 -25t-24.5 -35.5t-16 -41l-100 23q5 43 22 85t44.5 74.5t66 52 t86.5 19.5q37 0 69 -16t63 -34.5t62.5 -34t68.5 -14.5q50 2 79 35.5t41 77.5z" />
<glyph unicode="&#x12a;" d="M317 1456h855l-29 -161h-338l-197 -1135h339l-28 -160h-855l28 160h331l197 1135h-332zM1081 1643h-694l23 143h694z" />
<glyph unicode="&#x12b;" d="M280 1082h538l-160 -922h343l-29 -160h-880l29 160h356l132 761h-357zM1118 1301h-694l23 143h694z" />
<glyph unicode="&#x12c;" d="M317 1456h855l-29 -161h-338l-197 -1135h339l-28 -160h-855l28 160h331l197 1135h-332zM1051 1866q-6 -63 -31.5 -113t-66.5 -84.5t-94.5 -52.5t-116.5 -17q-61 1 -110.5 20.5t-85 54t-54.5 83.5t-18 110l146 -1q-1 -32 5 -59t21 -47t38.5 -31.5t58.5 -11.5t62.5 11 t48 31t33.5 47t19 59z" />
<glyph unicode="&#x12d;" d="M280 1082h538l-160 -922h343l-29 -160h-880l29 160h356l132 761h-357zM1088 1523q-6 -63 -31.5 -113t-66.5 -84.5t-94.5 -52.5t-116.5 -17q-61 1 -110.5 20.5t-85 54t-54.5 83.5t-18 110l146 -1q-1 -32 5 -59t21 -47t38.5 -31.5t58.5 -11.5t62.5 11t48 31t33.5 47t19 59z " />
<glyph unicode="&#x12e;" d="M317 1456h855l-29 -161h-338l-197 -1135h339l-28 -160h-143l5 -3q-32 -17 -65 -39.5t-61 -50t-47.5 -61t-23.5 -72.5q-6 -66 57 -67q26 -2 51 6t48 19l21 -123q-38 -22 -80.5 -32t-86.5 -9q-81 1 -127 51t-44 131q1 40 15.5 76t38 67.5t54 58t63.5 48.5h-530l28 160h331 l197 1135h-332z" />
<glyph unicode="&#x12f;" d="M280 1082h538l-160 -922h343l-29 -160h-347l5 -3q-32 -17 -65 -39.5t-61 -50t-47.5 -61t-23.5 -72.5q-6 -66 57 -67q26 -2 51 6t48 19l21 -123q-38 -22 -80.5 -32t-86.5 -9q-81 1 -127 51t-44 131q1 40 15.5 76t38 67.5t54 58t63.5 48.5h-351l29 160h356l132 761h-357z M663 1363q1 48 31 79.5t78 33.5q24 1 43.5 -7t34 -22t22 -34t7.5 -44q0 -48 -30 -77.5t-78 -31.5q-47 -2 -77.5 26.5t-30.5 76.5z" />
<glyph unicode="&#x130;" d="M317 1456h855l-29 -161h-338l-197 -1135h339l-28 -160h-855l28 160h331l197 1135h-332zM629 1702q1 50 32 82t81 34q49 1 80.5 -30t30.5 -80t-32.5 -80t-79.5 -33q-24 -1 -44.5 6.5t-35.5 22t-23.5 34.5t-8.5 44z" />
<glyph unicode="&#x131;" d="M280 1082h538l-160 -922h343l-29 -160h-880l29 160h356l132 761h-357z" />
<glyph unicode="&#x132;" d="M200 0h-180l252 1456h181zM1036 1456h181l-193 -1133q-11 -79 -40.5 -143t-76.5 -109t-112.5 -68.5t-147.5 -21.5q-76 1 -131.5 27.5t-91 72.5t-51 107.5t-11.5 133.5l183 -1q-2 -33 0.5 -66.5t14.5 -60.5t36 -44.5t65 -18.5q45 -1 77 13.5t54 41t34 61.5t18 75z" />
<glyph unicode="&#x133;" d="M749 1082h396l-186 -1087q-14 -98 -52 -177.5t-98 -136t-141.5 -86.5t-183.5 -30q-54 0 -106 5t-105 13l30 158q44 -8 88.5 -11t89.5 -4q64 -1 115 17.5t88.5 53.5t61 85t33.5 112l157 927h-216zM166 1082h408l-160 -922h217l-28 -160h-630l28 160h232l132 761h-228z M987 1360q0 48 29.5 79t77.5 33q24 1 44 -6.5t34.5 -22t22.5 -34t8 -43.5q-1 -48 -31 -78t-78 -32t-78 27t-29 77zM426 1359q1 48 30.5 79t77.5 33q24 1 44 -6.5t34 -22t22 -34t8 -43.5q-1 -48 -30.5 -78t-77.5 -32t-78.5 27t-29.5 77z" />
<glyph unicode="&#x134;" d="M979 1456h185l-173 -1013q-15 -99 -61 -184t-115.5 -148t-159.5 -98t-192 -33q-97 2 -171 36.5t-124.5 94t-77 139.5t-27.5 172l182 -1q-2 -56 11 -106.5t41 -89.5t72 -63t106 -25q66 -2 121.5 22.5t98.5 67t71.5 98.5t39.5 118zM1386 1612l-2 -27l-146 1l-118 150 l-172 -149l-153 -1l2 27l272 238h106z" />
<glyph unicode="&#x135;" d="M336 1082h534l-185 -1089q-14 -98 -51.5 -178t-97.5 -136.5t-141.5 -87t-183.5 -30.5q-54 0 -105.5 4.5t-104.5 12.5l26 154q45 -8 89.5 -11.5t89.5 -4.5q65 -1 116.5 19t88.5 56.5t60 87.5t32 113l158 929h-354zM1101 1273l-2 -27l-146 1l-118 150l-172 -149l-153 -1 l2 27l272 238h106z" />
<glyph unicode="&#x136;" d="M528 674l-197 -191l-84 -483h-185l253 1456h185l-123 -700l158 165l507 535h234l-614 -646l381 -810h-207zM590 -110q-13 -101 -62 -188.5t-127 -151.5l-100 74q42 61 72 125t42 137l10 73h173z" />
<glyph unicode="&#x137;" d="M474 503l-163 -137l-63 -366h-182l267 1536h182l-162 -930l133 123l402 353h236l-514 -460l376 -622h-215zM509 -108q-13 -101 -62 -188.5t-127 -151.5l-100 74q42 61 72 125t42 137l10 73h173z" />
<glyph unicode="&#x138;" d="M492 475l-177 -139l-58 -336h-181l188 1082h181l-92 -521l121 112l454 409h233l-535 -488l368 -594h-214z" />
<glyph unicode="&#x139;" d="M296 157h691l-28 -157h-871l252 1456h181zM578 1792h231l-302 -266h-150z" />
<glyph unicode="&#x13a;" d="M359 1536h538l-239 -1376h343l-29 -160h-880l29 160h356l211 1215h-358zM948 1894h231l-302 -266h-150z" />
<glyph unicode="&#x13b;" d="M296 157h691l-28 -157h-871l252 1456h181zM590 -116q-13 -101 -62 -188.5t-127 -151.5l-100 74q42 61 72 125t42 137l10 73h173z" />
<glyph unicode="&#x13c;" d="M359 1536h538l-239 -1376h343l-29 -160h-880l29 160h356l211 1215h-358zM616 -115q-13 -101 -62 -188.5t-127 -151.5l-100 74q42 61 72 125t42 137l10 73h173z" />
<glyph unicode="&#x13d;" d="M296 157h691l-28 -157h-871l252 1456h181zM1074 1310q-18 -114 -77.5 -212t-148.5 -169l-95 74q52 69 89 143t53 160l26 150h177z" />
<glyph unicode="&#x13e;" horiz-adv-x="1352" d="M359 1536h538l-239 -1376h343l-29 -160h-880l29 160h356l211 1215h-358zM1351 1394q-18 -114 -77.5 -212t-148.5 -169l-95 74q52 69 89 143t53 160l26 150h177z" />
<glyph unicode="&#x13f;" d="M296 157h691l-28 -157h-871l252 1456h181zM628 784q1 50 32 82t81 34q49 1 80.5 -30t30.5 -80t-32.5 -80t-79.5 -33q-24 -1 -44.5 6.5t-35.5 22t-23.5 34.5t-8.5 44z" />
<glyph unicode="&#x140;" horiz-adv-x="1422" d="M359 1536h538l-239 -1376h343l-29 -160h-880l29 160h356l211 1215h-358zM894 818q1 50 32 82t81 34q49 1 80.5 -30t30.5 -80t-32.5 -80t-79.5 -33q-24 -1 -44.5 6.5t-35.5 22t-23.5 34.5t-8.5 44z" />
<glyph unicode="&#x141;" d="M420 849l268 83l-30 -169l-268 -83l-90 -523h691l-28 -157h-871l107 621l-148 -46l30 169l147 45l116 667h181z" />
<glyph unicode="&#x142;" d="M359 1536h538l-97 -558l303 131l-27 -170l-306 -133l-112 -646h343l-29 -160h-880l29 160h356l97 562l-355 -154l30 171l355 154l84 482h-358z" />
<glyph unicode="&#x143;" d="M950 0h-178l-362 1096l-193 -1096h-183l253 1456h178l362 -1094l193 1094h183zM870 1824h231l-302 -266h-150z" />
<glyph unicode="&#x144;" d="M413 1083l-23 -161q33 40 72 74t83 58t93 36.5t103 11.5q91 -2 153 -36t98.5 -90.5t49 -131.5t3.5 -157l-115 -687h-181l115 684q6 55 0.5 102t-27 82t-60.5 55.5t-99 21.5q-47 1 -89.5 -11.5t-79.5 -35t-69.5 -54t-59.5 -67.5l-135 -777h-181l188 1082zM829 1502h231 l-302 -266h-150z" />
<glyph unicode="&#x145;" d="M950 0h-178l-362 1096l-193 -1096h-183l253 1456h178l362 -1094l193 1094h183zM540 -116q-13 -101 -62 -188.5t-127 -151.5l-100 74q42 61 72 125t42 137l10 73h173z" />
<glyph unicode="&#x146;" d="M413 1083l-23 -161q33 40 72 74t83 58t93 36.5t103 11.5q91 -2 153 -36t98.5 -90.5t49 -131.5t3.5 -157l-115 -687h-181l115 684q6 55 0.5 102t-27 82t-60.5 55.5t-99 21.5q-47 1 -89.5 -11.5t-79.5 -35t-69.5 -54t-59.5 -67.5l-135 -777h-181l188 1082zM555 -116 q-13 -101 -62 -188.5t-127 -151.5l-100 74q42 61 72 125t42 137l10 73h173z" />
<glyph unicode="&#x147;" d="M950 0h-178l-362 1096l-193 -1096h-183l253 1456h178l362 -1094l193 1094h183zM756 1714l174 150l161 2l-1 -20l-281 -247h-112l-210 244l2 23l149 -1z" />
<glyph unicode="&#x148;" d="M413 1083l-23 -161q33 40 72 74t83 58t93 36.5t103 11.5q91 -2 153 -36t98.5 -90.5t49 -131.5t3.5 -157l-115 -687h-181l115 684q6 55 0.5 102t-27 82t-60.5 55.5t-99 21.5q-47 1 -89.5 -11.5t-79.5 -35t-69.5 -54t-59.5 -67.5l-135 -777h-181l188 1082zM716 1392 l174 150l161 2l-1 -20l-281 -247h-112l-210 244l2 23l149 -1z" />
<glyph unicode="&#x149;" d="M413 1083l-23 -161q33 40 72 74t83 58t93 36.5t103 11.5q91 -2 153 -36t98.5 -90.5t49 -131.5t3.5 -157l-115 -687h-181l115 684q6 55 0.5 102t-27 82t-60.5 55.5t-99 21.5q-47 1 -89.5 -11.5t-79.5 -35t-69.5 -54t-59.5 -67.5l-135 -777h-181l188 1082zM342 1412 q-18 -114 -77.5 -212t-148.5 -169l-95 74q52 69 89 143t53 160l26 150h177z" />
<glyph unicode="&#x14a;" d="M1170 1456l-263 -1543q-10 -75 -37 -139.5t-71.5 -111.5t-106.5 -74t-142 -27q-29 0 -57 5t-56 13l26 148q23 -7 47.5 -11.5t48.5 -4.5q40 0 69 18.5t48.5 47.5t31 64.5t16.5 69.5l16 103l-307 1063l-187 -1077h-181l253 1456h175l309 -1075l187 1075h181z" />
<glyph unicode="&#x14b;" d="M423 1083l-23 -155q63 80 144.5 128t187.5 46q91 -2 152 -37t96 -93t45.5 -133t1.5 -157l-126 -771q-10 -76 -37.5 -140.5t-73 -111.5t-108.5 -73t-144 -25q-31 0 -60.5 5.5t-58.5 14.5l30 156q24 -8 49 -12t50 -4q41 0 71 16t50.5 42.5t32.5 61t18 70.5l126 768 q6 53 2.5 101t-23 84t-57 57.5t-98.5 23.5q-85 2 -153 -33.5t-121 -100.5l-141 -811h-181l188 1082z" />
<glyph unicode="&#x14c;" d="M1097 645q-13 -77 -36.5 -156.5t-59 -154t-83.5 -140.5t-109.5 -114t-137 -75t-165.5 -25q-86 2 -151.5 32.5t-112.5 80.5t-77 116t-45 139t-16.5 149t8.5 147l26 166q13 77 36.5 156.5t59 154t84 140.5t110 114.5t137 75.5t165.5 25q87 -2 152.5 -32.5t112.5 -80.5 t76.5 -116t44 -139.5t16 -150t-8.5 -147.5zM944 814q6 46 9.5 100t-1 108.5t-18.5 106t-41.5 91.5t-70 65t-104.5 27q-65 2 -117.5 -19.5t-94 -60t-73 -89t-54.5 -107t-38 -114.5t-24 -110l-28 -169q-6 -45 -9 -99t2 -109t19 -107t42 -92.5t70.5 -66t104.5 -27.5 q65 -2 118 19.5t94 60t72 89.5t53.5 107.5t37.5 114.5t24 111zM1148 1664h-694l23 143h694z" />
<glyph unicode="&#x14d;" d="M110 544q9 73 31.5 143.5t57.5 133t82.5 115t106 90t128 58t149.5 18.5q114 -3 194.5 -50.5t129.5 -124t67.5 -174t7.5 -199.5l-2 -23q-14 -109 -58.5 -210t-115.5 -177.5t-167.5 -121.5t-214.5 -42q-113 3 -193.5 49.5t-129.5 122.5t-68 172t-8 198zM288 522 q-5 -42 -4.5 -87t8 -88t23.5 -82t43 -68.5t65.5 -47.5t90.5 -20q83 -3 147 33t109.5 94t72.5 130.5t38 144.5l2 22q7 63 2.5 132t-29.5 127.5t-73 97t-126 41.5q-84 3 -148 -33.5t-109 -95.5t-72 -132.5t-37 -145.5zM1071 1321h-694l23 143h694z" />
<glyph unicode="&#x14e;" d="M1097 645q-13 -77 -36.5 -156.5t-59 -154t-83.5 -140.5t-109.5 -114t-137 -75t-165.5 -25q-86 2 -151.5 32.5t-112.5 80.5t-77 116t-45 139t-16.5 149t8.5 147l26 166q13 77 36.5 156.5t59 154t84 140.5t110 114.5t137 75.5t165.5 25q87 -2 152.5 -32.5t112.5 -80.5 t76.5 -116t44 -139.5t16 -150t-8.5 -147.5zM944 814q6 46 9.5 100t-1 108.5t-18.5 106t-41.5 91.5t-70 65t-104.5 27q-65 2 -117.5 -19.5t-94 -60t-73 -89t-54.5 -107t-38 -114.5t-24 -110l-28 -169q-6 -45 -9 -99t2 -109t19 -107t42 -92.5t70.5 -66t104.5 -27.5 q65 -2 118 19.5t94 60t72 89.5t53.5 107.5t37.5 114.5t24 111zM1118 1887q-6 -63 -31.5 -113t-66.5 -84.5t-94.5 -52.5t-116.5 -17q-61 1 -110.5 20.5t-85 54t-54.5 83.5t-18 110l146 -1q-1 -32 5 -59t21 -47t38.5 -31.5t58.5 -11.5t62.5 11t48 31t33.5 47t19 59z" />
<glyph unicode="&#x14f;" d="M110 544q9 73 31.5 143.5t57.5 133t82.5 115t106 90t128 58t149.5 18.5q114 -3 194.5 -50.5t129.5 -124t67.5 -174t7.5 -199.5l-2 -23q-14 -109 -58.5 -210t-115.5 -177.5t-167.5 -121.5t-214.5 -42q-113 3 -193.5 49.5t-129.5 122.5t-68 172t-8 198zM288 522 q-5 -42 -4.5 -87t8 -88t23.5 -82t43 -68.5t65.5 -47.5t90.5 -20q83 -3 147 33t109.5 94t72.5 130.5t38 144.5l2 22q7 63 2.5 132t-29.5 127.5t-73 97t-126 41.5q-84 3 -148 -33.5t-109 -95.5t-72 -132.5t-37 -145.5zM1041 1544q-6 -63 -31.5 -113t-66.5 -84.5t-94.5 -52.5 t-116.5 -17q-61 1 -110.5 20.5t-85 54t-54.5 83.5t-18 110l146 -1q-1 -32 5 -59t21 -47t38.5 -31.5t58.5 -11.5t62.5 11t48 31t33.5 47t19 59z" />
<glyph unicode="&#x150;" d="M1097 645q-13 -77 -36.5 -156.5t-59 -154t-83.5 -140.5t-109.5 -114t-137 -75t-165.5 -25q-86 2 -151.5 32.5t-112.5 80.5t-77 116t-45 139t-16.5 149t8.5 147l26 166q13 77 36.5 156.5t59 154t84 140.5t110 114.5t137 75.5t165.5 25q87 -2 152.5 -32.5t112.5 -80.5 t76.5 -116t44 -139.5t16 -150t-8.5 -147.5zM944 814q6 46 9.5 100t-1 108.5t-18.5 106t-41.5 91.5t-70 65t-104.5 27q-65 2 -117.5 -19.5t-94 -60t-73 -89t-54.5 -107t-38 -114.5t-24 -110l-28 -169q-6 -45 -9 -99t2 -109t19 -107t42 -92.5t70.5 -66t104.5 -27.5 q65 -2 118 19.5t94 60t72 89.5t53.5 107.5t37.5 114.5t24 111zM1097 1887h235l-343 -269h-181zM785 1887h216l-285 -269h-161z" />
<glyph unicode="&#x151;" d="M110 544q9 73 31.5 143.5t57.5 133t82.5 115t106 90t128 58t149.5 18.5q114 -3 194.5 -50.5t129.5 -124t67.5 -174t7.5 -199.5l-2 -23q-14 -109 -58.5 -210t-115.5 -177.5t-167.5 -121.5t-214.5 -42q-113 3 -193.5 49.5t-129.5 122.5t-68 172t-8 198zM288 522 q-5 -42 -4.5 -87t8 -88t23.5 -82t43 -68.5t65.5 -47.5t90.5 -20q83 -3 147 33t109.5 94t72.5 130.5t38 144.5l2 22q7 63 2.5 132t-29.5 127.5t-73 97t-126 41.5q-84 3 -148 -33.5t-109 -95.5t-72 -132.5t-37 -145.5zM1020 1544h235l-343 -269h-181zM708 1544h216l-285 -269 h-161z" />
<glyph unicode="&#x152;" d="M1051 0h-404q-65 -4 -128.5 -12t-128.5 -6q-108 3 -177 50t-106 121t-46 165.5t2 183.5l72 451q15 102 50 196.5t93.5 168t143.5 117t199 43.5q65 -1 128 -9.5t127 -12.5h418l-27 -152h-384l-83 -476h334l-27 -152h-333l-92 -525h396zM397 133q24 -1 48.5 -0.5t48.5 0.5 l213 1188q-23 2 -47 4t-48 2q-80 1 -133 -31.5t-86 -85.5t-51 -120t-27 -134l-71 -455q-4 -35 -7.5 -75.5t-2.5 -80.5t8.5 -77.5t26 -66.5t49.5 -47.5t79 -20.5z" />
<glyph unicode="&#x153;" d="M48 638q11 82 38.5 165.5t75 151t118 109t167.5 39.5q72 -2 133 -33.5t97 -95.5q49 55 108.5 92t135.5 36q57 -1 100 -20t73 -50.5t48.5 -73.5t27.5 -89t9.5 -96.5t-4.5 -95.5l-28 -181l-440 1l-10 -67q-3 -22 -6 -52t-3 -63t4.5 -65t17 -58t33.5 -42.5t55 -17.5 q54 -2 101.5 17.5t89.5 49.5l44 -127q-49 -49 -112.5 -71t-132.5 -20q-73 1 -136 30.5t-101 94.5q-53 -59 -117.5 -93.5t-145.5 -32.5q-61 1 -106.5 22t-77 55.5t-51 80.5t-29 96.5t-10 103.5t5.5 103zM203 439q-2 -22 -5 -53.5t-3 -65.5t4.5 -68t17 -61t34 -44.5 t56.5 -18.5q37 -2 65.5 13.5t49.5 41t35.5 59t24 68.5t15 69t9.5 61l27 200q3 22 5.5 53.5t2.5 66t-5 68t-17.5 61t-34.5 45t-56 18.5q-37 1 -65.5 -14t-49.5 -40.5t-35.5 -59t-24 -69t-15.5 -69.5t-9 -61zM721 642l270 6l12 85q3 28 3 65.5t-9 70.5t-30.5 56.5t-61.5 25.5 q-32 1 -57 -14t-43.5 -41t-32 -58.5t-23 -66t-15.5 -64.5t-11 -53z" />
<glyph unicode="&#x154;" d="M640 594h-286l-103 -594h-180l253 1456l403 -1q95 -3 175 -33t136 -84.5t84.5 -133t20.5 -177.5q-6 -75 -34 -136t-72.5 -110t-102 -86t-123.5 -64l195 -618l-2 -13h-191zM380 746l230 -2q64 0 124 19.5t107.5 56t79.5 89.5t40 120q7 61 -6.5 110.5t-45 85t-79 55.5 t-107.5 23l-246 1zM893 1812h231l-302 -266h-150z" />
<glyph unicode="&#x155;" d="M931 1104q48 -1 96 -6.5t94 -22.5l-46 -180q-48 11 -96 18t-97 8q-126 1 -216 -58t-150 -168l-120 -695h-181l187 1082h172l-30 -172q38 44 81 80t91 61.5t101.5 39t113.5 13.5zM809 1502h231l-302 -266h-150z" />
<glyph unicode="&#x156;" d="M640 594h-286l-103 -594h-180l253 1456l403 -1q95 -3 175 -33t136 -84.5t84.5 -133t20.5 -177.5q-6 -75 -34 -136t-72.5 -110t-102 -86t-123.5 -64l195 -618l-2 -13h-191zM380 746l230 -2q64 0 124 19.5t107.5 56t79.5 89.5t40 120q7 61 -6.5 110.5t-45 85t-79 55.5 t-107.5 23l-246 1zM564 -116q-13 -101 -62 -188.5t-127 -151.5l-100 74q42 61 72 125t42 137l10 73h173z" />
<glyph unicode="&#x157;" d="M931 1104q48 -1 96 -6.5t94 -22.5l-46 -180q-48 11 -96 18t-97 8q-126 1 -216 -58t-150 -168l-120 -695h-181l187 1082h172l-30 -172q38 44 81 80t91 61.5t101.5 39t113.5 13.5zM383 -116q-13 -101 -62 -188.5t-127 -151.5l-100 74q42 61 72 125t42 137l10 73h173z" />
<glyph unicode="&#x158;" d="M640 594h-286l-103 -594h-180l253 1456l403 -1q95 -3 175 -33t136 -84.5t84.5 -133t20.5 -177.5q-6 -75 -34 -136t-72.5 -110t-102 -86t-123.5 -64l195 -618l-2 -13h-191zM380 746l230 -2q64 0 124 19.5t107.5 56t79.5 89.5t40 120q7 61 -6.5 110.5t-45 85t-79 55.5 t-107.5 23l-246 1zM779 1702l174 150l161 2l-1 -20l-281 -247h-112l-210 244l2 23l149 -1z" />
<glyph unicode="&#x159;" d="M931 1104q48 -1 96 -6.5t94 -22.5l-46 -180q-48 11 -96 18t-97 8q-126 1 -216 -58t-150 -168l-120 -695h-181l187 1082h172l-30 -172q38 44 81 80t91 61.5t101.5 39t113.5 13.5zM696 1392l174 150l161 2l-1 -20l-281 -247h-112l-210 244l2 23l149 -1z" />
<glyph unicode="&#x15a;" d="M871 376q7 61 -15 104.5t-60.5 75t-88 53.5t-96.5 40q-71 27 -141 64t-124.5 87.5t-86.5 117t-27 153.5q6 95 52 171t117.5 129t159.5 80t177 25q94 -2 173 -36t135.5 -92.5t87.5 -138t28 -173.5h-184q-3 58 -18.5 108.5t-46 88.5t-76 60.5t-108.5 24.5q-54 1 -107 -15.5 t-96 -48t-71.5 -77t-34.5 -103.5t16.5 -99t61 -70.5t86 -50.5t92.5 -37q74 -27 145.5 -65.5t126.5 -91.5t86.5 -122.5t25.5 -159.5q-7 -98 -55 -173.5t-121 -126t-163 -75.5t-180 -23q-96 1 -179.5 33.5t-146 90t-97.5 138.5t-33 179h183q3 -63 23.5 -114.5t56 -88.5 t86 -58.5t114.5 -22.5q56 -1 111 13.5t100 44.5t75 75.5t37 105.5zM891 1845h231l-302 -266h-150z" />
<glyph unicode="&#x15b;" d="M818 294q6 46 -15 76t-55.5 49t-75.5 30.5t-74 19.5q-60 15 -125 37t-119 57t-87.5 87.5t-30.5 127.5q2 55 22.5 100.5t53.5 82t76.5 63.5t92 44.5t99 26t99.5 7.5q76 -2 146.5 -24t123.5 -64.5t84 -105t30 -145.5l-179 1q0 45 -17 79t-46.5 57.5t-68 35.5t-80.5 13 q-40 1 -82.5 -8t-79.5 -28.5t-63 -51t-32 -76.5t14.5 -73.5t53.5 -45.5t72.5 -27t72.5 -17q41 -10 85 -23t86 -31t79.5 -41.5t64.5 -55t42 -72.5t13 -92q-4 -87 -48 -150t-110 -102.5t-146 -58t-156 -16.5q-80 1 -154.5 24t-132.5 67.5t-92.5 110t-32.5 152.5l180 -1 q1 -52 20 -90t51 -62.5t75 -37t92 -12.5q40 -1 85 7t85 26.5t68.5 50.5t35.5 79zM840 1502h231l-302 -266h-150z" />
<glyph unicode="&#x15c;" d="M871 376q7 61 -15 104.5t-60.5 75t-88 53.5t-96.5 40q-71 27 -141 64t-124.5 87.5t-86.5 117t-27 153.5q6 95 52 171t117.5 129t159.5 80t177 25q94 -2 173 -36t135.5 -92.5t87.5 -138t28 -173.5h-184q-3 58 -18.5 108.5t-46 88.5t-76 60.5t-108.5 24.5q-54 1 -107 -15.5 t-96 -48t-71.5 -77t-34.5 -103.5t16.5 -99t61 -70.5t86 -50.5t92.5 -37q74 -27 145.5 -65.5t126.5 -91.5t86.5 -122.5t25.5 -159.5q-7 -98 -55 -173.5t-121 -126t-163 -75.5t-180 -23q-96 1 -179.5 33.5t-146 90t-97.5 138.5t-33 179h183q3 -63 23.5 -114.5t56 -88.5 t86 -58.5t114.5 -22.5q56 -1 111 13.5t100 44.5t75 75.5t37 105.5zM1067 1646l-2 -27l-146 1l-118 150l-172 -149l-153 -1l2 27l272 238h106z" />
<glyph unicode="&#x15d;" d="M818 294q6 46 -15 76t-55.5 49t-75.5 30.5t-74 19.5q-60 15 -125 37t-119 57t-87.5 87.5t-30.5 127.5q2 55 22.5 100.5t53.5 82t76.5 63.5t92 44.5t99 26t99.5 7.5q76 -2 146.5 -24t123.5 -64.5t84 -105t30 -145.5l-179 1q0 45 -17 79t-46.5 57.5t-68 35.5t-80.5 13 q-40 1 -82.5 -8t-79.5 -28.5t-63 -51t-32 -76.5t14.5 -73.5t53.5 -45.5t72.5 -27t72.5 -17q41 -10 85 -23t86 -31t79.5 -41.5t64.5 -55t42 -72.5t13 -92q-4 -87 -48 -150t-110 -102.5t-146 -58t-156 -16.5q-80 1 -154.5 24t-132.5 67.5t-92.5 110t-32.5 152.5l180 -1 q1 -52 20 -90t51 -62.5t75 -37t92 -12.5q40 -1 85 7t85 26.5t68.5 50.5t35.5 79zM1016 1303l-2 -27l-146 1l-118 150l-172 -149l-153 -1l2 27l272 238h106z" />
<glyph unicode="&#x15e;" d="M871 376q7 61 -15 104.5t-60.5 75t-88 53.5t-96.5 40q-71 27 -141 64t-124.5 87.5t-86.5 117t-27 153.5q6 95 52 171t117.5 129t159.5 80t177 25q94 -2 173 -36t135.5 -92.5t87.5 -138t28 -173.5h-184q-3 58 -18.5 108.5t-46 88.5t-76 60.5t-108.5 24.5q-54 1 -107 -15.5 t-96 -48t-71.5 -77t-34.5 -103.5t16.5 -99t61 -70.5t86 -50.5t92.5 -37q74 -27 145.5 -65.5t126.5 -91.5t86.5 -122.5t25.5 -159.5q-7 -98 -55 -173.5t-121 -126t-163 -75.5t-180 -23q-96 1 -179.5 33.5t-146 90t-97.5 138.5t-33 179h183q3 -63 23.5 -114.5t56 -88.5 t86 -58.5t114.5 -22.5q56 -1 111 13.5t100 44.5t75 75.5t37 105.5zM590 -9l-21 -55q62 -15 94 -57t30 -106q-2 -65 -33.5 -106.5t-79.5 -66t-105 -34.5t-109 -12l4 108q27 1 56.5 6t55.5 16.5t45 32t24 52.5q5 30 -8 46.5t-34.5 25t-47.5 11.5t-47 6l45 133h131z" />
<glyph unicode="&#x15f;" d="M818 294q6 46 -15 76t-55.5 49t-75.5 30.5t-74 19.5q-60 15 -125 37t-119 57t-87.5 87.5t-30.5 127.5q2 55 22.5 100.5t53.5 82t76.5 63.5t92 44.5t99 26t99.5 7.5q76 -2 146.5 -24t123.5 -64.5t84 -105t30 -145.5l-179 1q0 45 -17 79t-46.5 57.5t-68 35.5t-80.5 13 q-40 1 -82.5 -8t-79.5 -28.5t-63 -51t-32 -76.5t14.5 -73.5t53.5 -45.5t72.5 -27t72.5 -17q41 -10 85 -23t86 -31t79.5 -41.5t64.5 -55t42 -72.5t13 -92q-4 -87 -48 -150t-110 -102.5t-146 -58t-156 -16.5q-80 1 -154.5 24t-132.5 67.5t-92.5 110t-32.5 152.5l180 -1 q1 -52 20 -90t51 -62.5t75 -37t92 -12.5q40 -1 85 7t85 26.5t68.5 50.5t35.5 79zM577 -8l-21 -55q62 -15 94 -57t30 -106q-2 -65 -33.5 -106.5t-79.5 -66t-105 -34.5t-109 -12l4 108q27 1 56.5 6t55.5 16.5t45 32t24 52.5q5 30 -8 46.5t-34.5 25t-47.5 11.5t-47 6l45 133 h131z" />
<glyph unicode="&#x160;" d="M871 376q7 61 -15 104.5t-60.5 75t-88 53.5t-96.5 40q-71 27 -141 64t-124.5 87.5t-86.5 117t-27 153.5q6 95 52 171t117.5 129t159.5 80t177 25q94 -2 173 -36t135.5 -92.5t87.5 -138t28 -173.5h-184q-3 58 -18.5 108.5t-46 88.5t-76 60.5t-108.5 24.5q-54 1 -107 -15.5 t-96 -48t-71.5 -77t-34.5 -103.5t16.5 -99t61 -70.5t86 -50.5t92.5 -37q74 -27 145.5 -65.5t126.5 -91.5t86.5 -122.5t25.5 -159.5q-7 -98 -55 -173.5t-121 -126t-163 -75.5t-180 -23q-96 1 -179.5 33.5t-146 90t-97.5 138.5t-33 179h183q3 -63 23.5 -114.5t56 -88.5 t86 -58.5t114.5 -22.5q56 -1 111 13.5t100 44.5t75 75.5t37 105.5zM777 1735l174 150l161 2l-1 -20l-281 -247h-112l-210 244l2 23l149 -1z" />
<glyph unicode="&#x161;" d="M818 294q6 46 -15 76t-55.5 49t-75.5 30.5t-74 19.5q-60 15 -125 37t-119 57t-87.5 87.5t-30.5 127.5q2 55 22.5 100.5t53.5 82t76.5 63.5t92 44.5t99 26t99.5 7.5q76 -2 146.5 -24t123.5 -64.5t84 -105t30 -145.5l-179 1q0 45 -17 79t-46.5 57.5t-68 35.5t-80.5 13 q-40 1 -82.5 -8t-79.5 -28.5t-63 -51t-32 -76.5t14.5 -73.5t53.5 -45.5t72.5 -27t72.5 -17q41 -10 85 -23t86 -31t79.5 -41.5t64.5 -55t42 -72.5t13 -92q-4 -87 -48 -150t-110 -102.5t-146 -58t-156 -16.5q-80 1 -154.5 24t-132.5 67.5t-92.5 110t-32.5 152.5l180 -1 q1 -52 20 -90t51 -62.5t75 -37t92 -12.5q40 -1 85 7t85 26.5t68.5 50.5t35.5 79zM726 1392l174 150l161 2l-1 -20l-281 -247h-112l-210 244l2 23l149 -1z" />
<glyph unicode="&#x162;" d="M1243 1298h-436l-225 -1298h-176l225 1298h-437l28 158h1049zM564 0l-21 -55q62 -15 94 -57t30 -106q-2 -65 -33.5 -106.5t-79.5 -66t-105 -34.5t-109 -12l4 108q27 1 56.5 6t55.5 16.5t45 32t24 52.5q5 30 -8 46.5t-34.5 25t-47.5 11.5t-47 6l45 133h131z" />
<glyph unicode="&#x163;" d="M724 1344l-46 -262h400l-25 -143h-400l-98 -589q-5 -44 0.5 -82t22.5 -66t48.5 -45t79.5 -18q55 -2 109.5 8t108.5 22l17 -133q-63 -35 -140 -46t-148 -9q-81 1 -137 31.5t-90 81t-46.5 117t-5.5 140.5l98 588h-276l25 143h275l46 262h182zM659 0l-21 -55q62 -15 94 -57 t30 -106q-2 -65 -33.5 -106.5t-79.5 -66t-105 -34.5t-109 -12l4 108q27 1 56.5 6t55.5 16.5t45 32t24 52.5q5 30 -8 46.5t-34.5 25t-47.5 11.5t-47 6l45 133h131z" />
<glyph unicode="&#x164;" d="M1243 1298h-436l-225 -1298h-176l225 1298h-437l28 158h1049zM789 1702l174 150l161 2l-1 -20l-281 -247h-112l-210 244l2 23l149 -1z" />
<glyph unicode="&#x165;" horiz-adv-x="1242" d="M724 1344l-46 -262h400l-25 -143h-400l-98 -589q-5 -44 0.5 -82t22.5 -66t48.5 -45t79.5 -18q55 -2 109.5 8t108.5 22l17 -133q-63 -35 -140 -46t-148 -9q-81 1 -137 31.5t-90 81t-46.5 117t-5.5 140.5l98 588h-276l25 143h275l46 262h182zM1284 1569 q-18 -114 -77.5 -212t-148.5 -169l-95 74q52 69 89 143t53 160l26 150h177z" />
<glyph unicode="&#x166;" d="M952 823h-228l-142 -823h-176l142 823h-215l27 151h214l57 324h-437l28 158h1049l-28 -158h-436l-57 -324h229z" />
<glyph unicode="&#x167;" d="M822 602h-225l-42 -252q-5 -44 0.5 -82t22.5 -66t48.5 -45t79.5 -18q55 -2 109.5 8t108.5 22l17 -133q-63 -35 -140 -46t-148 -9q-81 1 -137 31.5t-90 81t-46.5 117t-5.5 140.5l42 251h-213l27 151h211l31 186h-276l25 143h275l46 262h182l-46 -262h400l-25 -143h-400 l-31 -186h227z" />
<glyph unicode="&#x168;" d="M1205 1456l-167 -985q-15 -100 -61 -190t-116 -157.5t-161 -106.5t-197 -37q-100 2 -177 43.5t-127.5 109t-72.5 155t-11 181.5l170 987h172l-165 -987q-7 -59 2 -117t36 -105t72.5 -77.5t112.5 -32.5q71 -2 129.5 25.5t102 74.5t71.5 108t40 125l172 986h175zM1181 1832 q-5 -44 -21.5 -84.5t-44 -72t-66 -50.5t-86.5 -19q-38 0 -70 15.5t-62.5 34.5t-62 34.5t-68.5 14.5q-24 -1 -43.5 -10.5t-34 -25t-24.5 -35.5t-16 -41l-100 23q5 43 22 85t44.5 74.5t66 52t86.5 19.5q37 0 69 -16t63 -34.5t62.5 -34t68.5 -14.5q50 2 79 35.5t41 77.5z" />
<glyph unicode="&#x169;" d="M780 149q-64 -79 -147 -125t-188 -44q-97 2 -158.5 42.5t-95 105.5t-42 146.5t0.5 164.5l108 643h181l-107 -646q-6 -50 -7 -102.5t13.5 -95.5t48.5 -71t97 -30q100 -3 177 41.5t130 126.5l135 777h182l-188 -1082h-163zM1079 1502q-5 -44 -21.5 -84.5t-44 -72t-66 -50.5 t-86.5 -19q-38 0 -70 15.5t-62.5 34.5t-62 34.5t-68.5 14.5q-24 -1 -43.5 -10.5t-34 -25t-24.5 -35.5t-16 -41l-100 23q5 43 22 85t44.5 74.5t66 52t86.5 19.5q37 0 69 -16t63 -34.5t62.5 -34t68.5 -14.5q50 2 79 35.5t41 77.5z" />
<glyph unicode="&#x16a;" d="M1205 1456l-167 -985q-15 -100 -61 -190t-116 -157.5t-161 -106.5t-197 -37q-100 2 -177 43.5t-127.5 109t-72.5 155t-11 181.5l170 987h172l-165 -987q-7 -59 2 -117t36 -105t72.5 -77.5t112.5 -32.5q71 -2 129.5 25.5t102 74.5t71.5 108t40 125l172 986h175zM1168 1631 h-694l23 143h694z" />
<glyph unicode="&#x16b;" d="M780 149q-64 -79 -147 -125t-188 -44q-97 2 -158.5 42.5t-95 105.5t-42 146.5t0.5 164.5l108 643h181l-107 -646q-6 -50 -7 -102.5t13.5 -95.5t48.5 -71t97 -30q100 -3 177 41.5t130 126.5l135 777h182l-188 -1082h-163zM1066 1302h-694l23 143h694z" />
<glyph unicode="&#x16c;" d="M1205 1456l-167 -985q-15 -100 -61 -190t-116 -157.5t-161 -106.5t-197 -37q-100 2 -177 43.5t-127.5 109t-72.5 155t-11 181.5l170 987h172l-165 -987q-7 -59 2 -117t36 -105t72.5 -77.5t112.5 -32.5q71 -2 129.5 25.5t102 74.5t71.5 108t40 125l172 986h175zM1138 1854 q-6 -63 -31.5 -113t-66.5 -84.5t-94.5 -52.5t-116.5 -17q-61 1 -110.5 20.5t-85 54t-54.5 83.5t-18 110l146 -1q-1 -32 5 -59t21 -47t38.5 -31.5t58.5 -11.5t62.5 11t48 31t33.5 47t19 59z" />
<glyph unicode="&#x16d;" d="M780 149q-64 -79 -147 -125t-188 -44q-97 2 -158.5 42.5t-95 105.5t-42 146.5t0.5 164.5l108 643h181l-107 -646q-6 -50 -7 -102.5t13.5 -95.5t48.5 -71t97 -30q100 -3 177 41.5t130 126.5l135 777h182l-188 -1082h-163zM1036 1524q-6 -63 -31.5 -113t-66.5 -84.5 t-94.5 -52.5t-116.5 -17q-61 1 -110.5 20.5t-85 54t-54.5 83.5t-18 110l146 -1q-1 -32 5 -59t21 -47t38.5 -31.5t58.5 -11.5t62.5 11t48 31t33.5 47t19 59z" />
<glyph unicode="&#x16e;" d="M1205 1456l-167 -985q-15 -100 -61 -190t-116 -157.5t-161 -106.5t-197 -37q-100 2 -177 43.5t-127.5 109t-72.5 155t-11 181.5l170 987h172l-165 -987q-7 -59 2 -117t36 -105t72.5 -77.5t112.5 -32.5q71 -2 129.5 25.5t102 74.5t71.5 108t40 125l172 986h175zM634 1712 q1 43 19 81t47 66.5t67.5 44.5t81.5 16q40 0 74 -15.5t58 -41.5t37 -61t12 -74q-2 -43 -19 -80t-45.5 -64.5t-66.5 -43t-81 -15.5q-40 0 -74 14.5t-59 39.5t-38.5 59t-12.5 74zM732 1715q-3 -40 21 -70t66 -30q22 0 41.5 9t35 24.5t25 35.5t12.5 41q2 20 -3 38.5t-16 33 t-27.5 23.5t-37.5 9q-23 0 -43.5 -9.5t-36 -25.5t-25.5 -36.5t-12 -42.5z" />
<glyph unicode="&#x16f;" d="M780 149q-64 -79 -147 -125t-188 -44q-97 2 -158.5 42.5t-95 105.5t-42 146.5t0.5 164.5l108 643h181l-107 -646q-6 -50 -7 -102.5t13.5 -95.5t48.5 -71t97 -30q100 -3 177 41.5t130 126.5l135 777h182l-188 -1082h-163zM532 1382q1 43 19 81t47 66.5t67.5 44.5t81.5 16 q40 0 74 -15.5t58 -41.5t37 -61t12 -74q-2 -43 -19 -80t-45.5 -64.5t-66.5 -43t-81 -15.5q-40 0 -74 14.5t-59 39.5t-38.5 59t-12.5 74zM630 1385q-3 -40 21 -70t66 -30q22 0 41.5 9t35 24.5t25 35.5t12.5 41q2 20 -3 38.5t-16 33t-27.5 23.5t-37.5 9q-23 0 -43.5 -9.5 t-36 -25.5t-25.5 -36.5t-12 -42.5z" />
<glyph unicode="&#x170;" d="M1205 1456l-167 -985q-15 -100 -61 -190t-116 -157.5t-161 -106.5t-197 -37q-100 2 -177 43.5t-127.5 109t-72.5 155t-11 181.5l170 987h172l-165 -987q-7 -59 2 -117t36 -105t72.5 -77.5t112.5 -32.5q71 -2 129.5 25.5t102 74.5t71.5 108t40 125l172 986h175zM1117 1854 h235l-343 -269h-181zM805 1854h216l-285 -269h-161z" />
<glyph unicode="&#x171;" d="M780 149q-64 -79 -147 -125t-188 -44q-97 2 -158.5 42.5t-95 105.5t-42 146.5t0.5 164.5l108 643h181l-107 -646q-6 -50 -7 -102.5t13.5 -95.5t48.5 -71t97 -30q100 -3 177 41.5t130 126.5l135 777h182l-188 -1082h-163zM1015 1524h235l-343 -269h-181zM703 1524h216 l-285 -269h-161z" />
<glyph unicode="&#x172;" d="M1205 1456l-167 -985q-12 -79 -43 -152t-78 -134t-108.5 -107t-134.5 -71q-25 -17 -48 -37t-41.5 -43t-30.5 -49.5t-15 -56.5q-6 -66 57 -67q26 -2 51 6t48 19l21 -123q-38 -22 -80.5 -32t-86.5 -9q-81 1 -127 51t-44 131q2 55 27 101t63 84q-92 9 -162 52t-116 110 t-65.5 151t-9.5 174l170 987h172l-165 -987q-7 -59 2 -117t36 -105t72.5 -77.5t112.5 -32.5q71 -2 129.5 25.5t102 74.5t71.5 108t40 125l172 986h175z" />
<glyph unicode="&#x173;" d="M914 0l5 -3q-32 -17 -65 -39.5t-61 -50t-47.5 -61t-23.5 -72.5q-6 -66 57 -67q26 -2 51 6t48 19l21 -123q-38 -22 -80.5 -32t-86.5 -9q-81 1 -127 51t-44 131q1 45 18 83.5t45 72t63 61t72 50.5l21 132q-64 -79 -147 -125t-188 -44q-97 2 -158.5 42.5t-95 105.5 t-42 146.5t0.5 164.5l108 643h181l-107 -646q-6 -50 -7 -102.5t13.5 -95.5t48.5 -71t97 -30q100 -3 177 41.5t130 126.5l135 777h182l-188 -1082h-6z" />
<glyph unicode="&#x174;" d="M835 396l274 1060h174l-400 -1456h-184l-9 1093l-354 -1093h-187l56 1456h170l-58 -1055l345 1055h158zM1059 1625l-2 -27l-146 1l-118 150l-172 -149l-153 -1l2 27l272 238h106z" />
<glyph unicode="&#x175;" d="M291 381l-6 -138l55 159l284 680h117l47 -702l-2 -154l53 158l239 698h164l-411 -1082h-142l-50 673l3 154l-58 -174l-273 -653h-143l-36 1082h156zM1016 1283l-2 -27l-146 1l-118 150l-172 -149l-153 -1l2 27l272 238h106z" />
<glyph unicode="&#x176;" d="M602 726l448 730h215l-605 -924l-95 -532h-168l94 554l-279 902h196zM1064 1624l-2 -27l-146 1l-118 150l-172 -149l-153 -1l2 27l272 238h106z" />
<glyph unicode="&#x177;" d="M516 375l21 -120l464 827h211l-748 -1250q-30 -52 -68 -101t-84.5 -87.5t-102 -61t-120.5 -22.5q-29 0 -58.5 5.5t-58.5 10.5l41 153q22 -2 44 -5t43 -3q39 1 72 19t60 45t49 59.5t41 61.5l103 156l-271 1020h193zM1029 1283l-2 -27l-146 1l-118 150l-172 -149l-153 -1 l2 27l272 238h106z" />
<glyph unicode="&#x178;" d="M602 726l448 730h215l-605 -924l-95 -532h-168l94 554l-279 902h196zM465 1715q0 46 29.5 76.5t76.5 32.5q46 1 77 -28.5t30 -76.5q-1 -46 -31 -76t-76 -32q-47 -1 -77 28t-29 76zM881 1713q1 46 30.5 77t76.5 33q47 1 77 -28.5t30 -77.5q-1 -46 -31 -76t-77 -32 q-46 -1 -76 28t-30 76z" />
<glyph unicode="&#x179;" d="M252 157h727l-25 -157h-935l21 153l877 1145h-686l26 158h896l-21 -150zM912 1812h231l-302 -266h-150z" />
<glyph unicode="&#x17a;" d="M321 151h663l-25 -151h-898l23 144l743 785h-612l24 153h855l-22 -139zM858 1482h231l-302 -266h-150z" />
<glyph unicode="&#x17b;" d="M252 157h727l-25 -157h-935l21 153l877 1145h-686l26 158h896l-21 -150zM693 1690q1 50 32 82t81 34q49 1 80.5 -30t30.5 -80t-32.5 -80t-79.5 -33q-24 -1 -44.5 6.5t-35.5 22t-23.5 34.5t-8.5 44z" />
<glyph unicode="&#x17c;" d="M321 151h663l-25 -151h-898l23 144l743 785h-612l24 153h855l-22 -139zM639 1360q1 50 32 82t81 34q49 1 80.5 -30t30.5 -80t-32.5 -80t-79.5 -33q-24 -1 -44.5 6.5t-35.5 22t-23.5 34.5t-8.5 44z" />
<glyph unicode="&#x17d;" d="M252 157h727l-25 -157h-935l21 153l877 1145h-686l26 158h896l-21 -150zM798 1702l174 150l161 2l-1 -20l-281 -247h-112l-210 244l2 23l149 -1z" />
<glyph unicode="&#x17e;" d="M321 151h663l-25 -151h-898l23 144l743 785h-612l24 153h855l-22 -139zM744 1372l174 150l161 2l-1 -20l-281 -247h-112l-210 244l2 23l149 -1z" />
<glyph unicode="&#x17f;" d="M338 0l192 1125q14 99 53 183.5t100.5 145.5t145.5 94.5t189 32.5q38 -1 74 -7t72 -14l-34 -143q-43 11 -89 13q-70 1 -126 -21.5t-97.5 -63.5t-68.5 -97.5t-37 -121.5l-193 -1126h-181z" />
<glyph unicode="&#x192;" d="M922 939h-206l-151 -991q-11 -84 -41.5 -155.5t-81.5 -123.5t-121 -80.5t-160 -26.5q-42 1 -81.5 10.5t-77.5 27.5l28 147q32 -17 68.5 -26t72.5 -10q50 -1 87 19.5t63 54.5t41.5 76.5t21.5 86.5l152 991h-172l22 143h172l12 99q12 93 49 167.5t96.5 126.5t138 79.5 t173.5 25.5q47 -1 91 -12.5t88 -26.5l-33 -148q-61 31 -130 31q-59 1 -109 -14.5t-87.5 -47t-61.5 -77t-33 -104.5l-14 -99h206z" />
<glyph unicode="&#x1a0;" d="M1090 645q-13 -77 -36.5 -156.5t-59 -154t-83.5 -140.5t-109.5 -114t-137 -75t-165.5 -25q-86 2 -151.5 32.5t-112.5 80.5t-77 116t-45 139t-16.5 149t8.5 147l26 166q13 77 36.5 156.5t59 154t84 140.5t110 114.5t137 75.5t165.5 25q105 -2 179.5 -46t122.5 -113 q37 8 63.5 28t44.5 48.5t29.5 63.5t18.5 73l159 1q-13 -134 -76.5 -220.5t-177.5 -117.5q30 -91 36.5 -190.5t-6.5 -192.5zM937 814q6 46 9.5 100t-1 108.5t-18.5 106t-41.5 91.5t-70 65t-104.5 27q-65 2 -117.5 -19.5t-94 -60t-73 -89t-54.5 -107t-38 -114.5t-24 -110 l-28 -169q-7 -45 -9.5 -99t2.5 -109t19 -107t42 -92.5t70.5 -66t104.5 -27.5q65 -2 118 19.5t94 60t72 89.5t53.5 107.5t37.5 114.5t24 111z" />
<glyph unicode="&#x1a1;" d="M107 544q9 73 31.5 143.5t57.5 133t82.5 115t106 90t128 58t149.5 18.5q91 -2 160.5 -33t118.5 -84q38 7 65 26.5t45.5 47t29.5 62.5t18 73l158 2q-13 -130 -72 -214.5t-166 -116.5q30 -69 40 -148.5t2 -162.5l-2 -23q-14 -109 -58.5 -210t-115.5 -177.5t-167.5 -121.5 t-214.5 -42q-113 3 -193.5 49.5t-129.5 122.5t-68 172t-8 198zM285 522q-5 -42 -4.5 -87t8 -88t23.5 -82t43 -68.5t65.5 -47.5t90.5 -20q83 -3 147 33t109.5 94t72.5 130.5t38 144.5l2 22q7 63 2.5 132t-29.5 127.5t-73 97t-126 41.5q-84 3 -148 -33.5t-109 -95.5 t-72 -132.5t-37 -145.5z" />
<glyph unicode="&#x1af;" d="M1205 1456l-31 -184q46 8 78 27.5t54 50.5t35 71.5t21 90.5l159 1q-18 -180 -109 -272.5t-262 -106.5l-112 -663q-15 -100 -61 -190t-116 -157.5t-161 -106.5t-197 -37q-100 2 -177 43.5t-127.5 109t-72.5 155t-11 181.5l170 987h172l-165 -987q-7 -59 2 -117t36 -105 t72.5 -77.5t112.5 -32.5q71 -2 129.5 25.5t102 74.5t71.5 108t40 125l172 986h175z" />
<glyph unicode="&#x1b0;" d="M780 149q-64 -79 -147 -125t-188 -44q-97 2 -158.5 42.5t-95 105.5t-42 146.5t0.5 164.5l108 643h181l-107 -646q-6 -50 -7 -102.5t13.5 -95.5t48.5 -71t97 -30q100 -3 177 41.5t130 126.5l135 777h182l-24 -139q71 22 104.5 80.5t47.5 147.5l160 1q-17 -170 -101 -261 t-236 -111l-139 -800h-163z" />
<glyph unicode="&#x1f0;" d="M336 1082h534l-185 -1089q-14 -98 -51.5 -178t-97.5 -136.5t-141.5 -87t-183.5 -30.5q-54 0 -105.5 4.5t-104.5 12.5l26 154q45 -8 89.5 -11.5t89.5 -4.5q65 -1 116.5 19t88.5 56.5t60 87.5t32 113l158 929h-354zM811 1362l174 150l161 2l-1 -20l-281 -247h-112l-210 244 l2 23l149 -1z" />
<glyph unicode="&#x1fa;" d="M807 377h-469l-180 -377h-188l709 1456h152l195 -1456h-173zM413 538h375l-76 630zM958 2071h210l-246 -182h-137zM632 1666q0 36 14 67.5t37.5 55.5t54.5 38t67 14q34 0 63 -12.5t50 -34.5t32.5 -52t11.5 -63q0 -35 -13.5 -65.5t-36 -54t-53 -37t-65.5 -13.5 q-33 0 -62.5 11.5t-51.5 32.5t-35 50t-13 63zM715 1668q2 -31 16 -55.5t51 -24.5q18 0 34.5 7.5t29.5 20t22 29t12 33.5q3 15 -0.5 30t-12 27t-22 19t-29.5 7q-21 0 -37 -8t-28 -21t-21 -30t-15 -34z" />
<glyph unicode="&#x1fb;" d="M764 0q-8 30 -8 59t3 59q-71 -63 -154.5 -101t-180.5 -36q-68 1 -128.5 23t-105 62t-69 97t-20.5 129q4 70 28.5 124t63.5 94.5t90 68.5t108.5 45.5t119 25t121.5 7.5l206 -1l13 86q6 51 -7.5 90t-41.5 66t-68.5 41t-89.5 15q-43 1 -84.5 -9t-76 -31t-59.5 -53.5 t-35 -77.5l-181 -1q9 82 53 142.5t108.5 100.5t141.5 59.5t151 18.5q82 -2 153 -26t121.5 -70.5t76.5 -113.5t17 -154l-84 -503q-9 -55 -9.5 -110t12.5 -109l-2 -17h-183zM459 140q96 -2 179 43.5t139 121.5l39 220l-155 1q-55 0 -117.5 -7t-117.5 -29t-94 -63t-47 -108 q-5 -43 6 -76t35 -55.5t58 -34.5t75 -13zM898 1749h210l-246 -182h-137zM572 1344q0 36 14 67.5t37.5 55.5t54.5 38t67 14q34 0 63 -12.5t50 -34.5t32.5 -52t11.5 -63q0 -35 -13.5 -65.5t-36 -54t-53 -37t-65.5 -13.5q-33 0 -62.5 11.5t-51.5 32.5t-35 50t-13 63zM655 1346 q2 -31 16 -55.5t51 -24.5q18 0 34.5 7.5t29.5 20t22 29t12 33.5q3 15 -0.5 30t-12 27t-22 19t-29.5 7q-21 0 -37 -8t-28 -21t-21 -30t-15 -34z" />
<glyph unicode="&#x1fc;" d="M1056 0h-516l60 353h-295l-182 -353h-201l796 1456h568l-27 -152h-327l-78 -471h292l-26 -151h-293l-91 -531h347zM393 527h237l119 691zM988 1824h231l-302 -266h-150z" />
<glyph unicode="&#x1fd;" d="M776 -19q-41 0 -80.5 8.5t-74 26t-63 44.5t-47.5 65q-27 -32 -57 -59t-63.5 -46.5t-72 -30t-81.5 -9.5q-65 1 -113 24.5t-79.5 63.5t-45.5 94t-11 115q6 93 43.5 160.5t97.5 112t137.5 65.5t163.5 21l66 -1l26 149q3 28 1.5 57.5t-11 53.5t-30 39.5t-55.5 16.5 q-36 1 -62.5 -12t-45 -35.5t-30 -51.5t-17.5 -60l-175 8q7 70 34.5 126.5t72 96t104 60.5t130.5 20q33 0 66 -6t62 -18.5t54.5 -33t43.5 -49.5q51 49 110.5 78t131.5 28q79 -2 134 -33.5t88 -83t44.5 -117.5t4.5 -137l-37 -234h-489l-12 -87q-6 -53 -2 -103t23.5 -88.5 t58 -62.5t100.5 -24q57 -1 104.5 19t93.5 49l35 -138q-28 -23 -61.5 -39t-69.5 -25.5t-73 -13t-72 -3.5zM890 952q-50 1 -86 -21t-60.5 -57.5t-40 -79t-22.5 -84.5l-12 -70h324l18 129q3 31 -2 63t-19 58.5t-38.5 43t-61.5 18.5zM279 129q22 0 42 6t39 16.5t36 24t33 26.5 l52 295h-54q-49 -1 -93.5 -17.5t-80 -45.5t-58.5 -70t-29 -91q-3 -29 2.5 -55t20 -46t37 -31.5t53.5 -11.5zM871 1503h231l-302 -266h-150z" />
<glyph unicode="&#x1fe;" d="M1089 645q-13 -77 -36.5 -156.5t-59 -154t-83.5 -140.5t-109.5 -114t-137 -75t-165.5 -25q-88 2 -152.5 32.5t-112.5 81.5l-140 -187h-151l219 293q-24 49 -38.5 104t-21.5 112.5t-6 115.5t9 112l26 166q12 77 36 156.5t59.5 154t84 140.5t110 114.5t137 75.5t165.5 25 q99 -2 169.5 -40t118.5 -100l134 180h151l-221 -295q19 -47 30 -98.5t16 -104.5t3.5 -105.5t-8.5 -102.5zM281 643q-9 -60 -10.5 -134t13.5 -145l617 827q-26 52 -72.5 85.5t-118.5 35.5q-65 2 -117.5 -19.5t-94 -60t-73 -89t-54.5 -107t-38 -114.5t-24 -110zM936 814 q7 50 10 109.5t-4 119.5l-606 -810q28 -40 70 -64.5t104 -26.5q65 -2 118 19.5t94 60t72 89.5t53.5 107.5t37.5 114.5t24 111zM909 1886h231l-302 -266h-150z" />
<glyph unicode="&#x1ff;" d="M110 544q9 73 31.5 143.5t57.5 133t82.5 115t106 90t128 58t149.5 18.5q57 -2 105.5 -15t89.5 -36l103 158h131l-148 -226q37 -39 62.5 -88.5t40 -105t18 -115t-2.5 -120.5l-2 -23q-14 -109 -58.5 -210t-115.5 -177.5t-167.5 -121.5t-214.5 -42q-54 2 -100 13.5t-85 31.5 l-104 -160h-131l147 225q-39 39 -65.5 88t-42.5 104.5t-20 116.5t2 123zM288 522q-5 -36 -5.5 -73.5t4 -74.5t15 -72t27.5 -65l443 680q-48 31 -115 34q-84 3 -148 -33.5t-109 -95.5t-72 -132.5t-37 -145.5zM883 553q4 34 4.5 70t-3.5 72t-13 70.5t-24 64.5l-440 -673 q45 -27 107 -28q83 -3 147 33t109.5 94t72.5 130.5t38 144.5zM801 1501h231l-302 -266h-150z" />
<glyph unicode="&#x218;" d="M871 376q7 61 -15 104.5t-60.5 75t-88 53.5t-96.5 40q-71 27 -141 64t-124.5 87.5t-86.5 117t-27 153.5q6 95 52 171t117.5 129t159.5 80t177 25q94 -2 173 -36t135.5 -92.5t87.5 -138t28 -173.5h-184q-3 58 -18.5 108.5t-46 88.5t-76 60.5t-108.5 24.5q-54 1 -107 -15.5 t-96 -48t-71.5 -77t-34.5 -103.5t16.5 -99t61 -70.5t86 -50.5t92.5 -37q74 -27 145.5 -65.5t126.5 -91.5t86.5 -122.5t25.5 -159.5q-7 -98 -55 -173.5t-121 -126t-163 -75.5t-180 -23q-96 1 -179.5 33.5t-146 90t-97.5 138.5t-33 179h183q3 -63 23.5 -114.5t56 -88.5 t86 -58.5t114.5 -22.5q56 -1 111 13.5t100 44.5t75 75.5t37 105.5zM595 -136q-13 -101 -62 -188.5t-127 -151.5l-100 74q42 61 72 125t42 137l10 73h173z" />
<glyph unicode="&#x219;" d="M818 294q6 46 -15 76t-55.5 49t-75.5 30.5t-74 19.5q-60 15 -125 37t-119 57t-87.5 87.5t-30.5 127.5q2 55 22.5 100.5t53.5 82t76.5 63.5t92 44.5t99 26t99.5 7.5q76 -2 146.5 -24t123.5 -64.5t84 -105t30 -145.5l-179 1q0 45 -17 79t-46.5 57.5t-68 35.5t-80.5 13 q-40 1 -82.5 -8t-79.5 -28.5t-63 -51t-32 -76.5t14.5 -73.5t53.5 -45.5t72.5 -27t72.5 -17q41 -10 85 -23t86 -31t79.5 -41.5t64.5 -55t42 -72.5t13 -92q-4 -87 -48 -150t-110 -102.5t-146 -58t-156 -16.5q-80 1 -154.5 24t-132.5 67.5t-92.5 110t-32.5 152.5l180 -1 q1 -52 20 -90t51 -62.5t75 -37t92 -12.5q40 -1 85 7t85 26.5t68.5 50.5t35.5 79zM582 -135q-13 -101 -62 -188.5t-127 -151.5l-100 74q42 61 72 125t42 137l10 73h173z" />
<glyph unicode="&#x21a;" d="M1243 1298h-436l-225 -1298h-176l225 1298h-437l28 158h1049zM569 -126q-13 -101 -62 -188.5t-127 -151.5l-100 74q42 61 72 125t42 137l10 73h173z" />
<glyph unicode="&#x21b;" d="M724 1344l-46 -262h400l-25 -143h-400l-98 -589q-5 -44 0.5 -82t22.5 -66t48.5 -45t79.5 -18q55 -2 109.5 8t108.5 22l17 -133q-63 -35 -140 -46t-148 -9q-81 1 -137 31.5t-90 81t-46.5 117t-5.5 140.5l98 588h-276l25 143h275l46 262h182zM664 -126q-13 -101 -62 -188.5 t-127 -151.5l-100 74q42 61 72 125t42 137l10 73h173z" />
<glyph unicode="&#x237;" d="M336 1082h534l-185 -1089q-14 -98 -51.5 -178t-97.5 -136.5t-141.5 -87t-183.5 -30.5q-54 0 -105.5 4.5t-104.5 12.5l26 154q45 -8 89.5 -11.5t89.5 -4.5q65 -1 116.5 19t88.5 56.5t60 87.5t32 113l158 929h-354z" />
<glyph unicode="&#x259;" d="M664 1102q114 -2 196.5 -47t134 -119t72 -170t10.5 -201l-5 -45q-8 -69 -31 -136t-58.5 -127.5t-83.5 -112t-106 -88.5t-125 -57t-141 -18q-105 3 -181.5 41t-124 103t-65.5 152t-6 186l19 121h728q8 65 0 129.5t-35.5 116t-77.5 85t-126 35.5q-91 3 -175.5 -24 t-157.5 -81l-62 127q40 36 87.5 61.5t99.5 41t106.5 22t107.5 5.5zM537 131q66 -2 119.5 24.5t95 70t72.5 98t52 109.5l-548 1l-5 -28q-9 -57 1 -106.5t37.5 -86.5t72 -59t103.5 -23z" />
<glyph unicode="&#x2bc;" d="M857 1412q-18 -114 -77.5 -212t-148.5 -169l-95 74q52 69 89 143t53 160l26 150h177z" />
<glyph unicode="&#x2c6;" d="M893 1278l-2 -27l-146 1l-118 150l-172 -149l-153 -1l2 27l272 238h106z" />
<glyph unicode="&#x2c7;" d="M718 1366l174 150l161 2l-1 -20l-281 -247h-112l-210 244l2 23l149 -1z" />
<glyph unicode="&#x2d8;" d="M1016 1458q-6 -63 -31.5 -113t-66.5 -84.5t-94.5 -52.5t-116.5 -17q-61 1 -110.5 20.5t-85 54t-54.5 83.5t-18 110l146 -1q-1 -32 5 -59t21 -47t38.5 -31.5t58.5 -11.5t62.5 11t48 31t33.5 47t19 59z" />
<glyph unicode="&#x2d9;" d="M614 1355q1 50 32 82t81 34q49 1 80.5 -30t30.5 -80t-32.5 -80t-79.5 -33q-24 -1 -44.5 6.5t-35.5 22t-23.5 34.5t-8.5 44z" />
<glyph unicode="&#x2da;" d="M521 1304q1 43 19 81t47 66.5t67.5 44.5t81.5 16q40 0 74 -15.5t58 -41.5t37 -61t12 -74q-2 -43 -19 -80t-45.5 -64.5t-66.5 -43t-81 -15.5q-40 0 -74 14.5t-59 39.5t-38.5 59t-12.5 74zM619 1307q-3 -40 21 -70t66 -30q22 0 41.5 9t35 24.5t25 35.5t12.5 41 q2 20 -3 38.5t-16 33t-27.5 23.5t-37.5 9q-23 0 -43.5 -9.5t-36 -25.5t-25.5 -36.5t-12 -42.5z" />
<glyph unicode="&#x2db;" d="M616 -3q-32 -17 -65 -39.5t-61 -50t-47.5 -61t-23.5 -72.5q-6 -66 57 -67q26 -2 51 6t48 19l21 -123q-38 -22 -80.5 -32t-86.5 -9q-81 1 -127 51t-44 131q1 55 27 102t65.5 85t87 68t92.5 52z" />
<glyph unicode="&#x2dc;" d="M939 1491q-5 -44 -21.5 -84.5t-44 -72t-66 -50.5t-86.5 -19q-38 0 -70 15.5t-62.5 34.5t-62 34.5t-68.5 14.5q-24 -1 -43.5 -10.5t-34 -25t-24.5 -35.5t-16 -41l-100 23q5 43 22 85t44.5 74.5t66 52t86.5 19.5q37 0 69 -16t63 -34.5t62.5 -34t68.5 -14.5q50 2 79 35.5 t41 77.5z" />
<glyph unicode="&#x2dd;" d="M886 1519h235l-343 -269h-181zM574 1519h216l-285 -269h-161z" />
<glyph unicode="&#x2f3;" d="M272 -239q1 32 13.5 60t34 49t49.5 33.5t60 12.5q30 0 55.5 -11t44.5 -30.5t29.5 -45.5t9.5 -56q-1 -32 -13.5 -59.5t-33 -48t-48.5 -32.5t-59 -12q-30 0 -56.5 10t-46 29t-30 45t-9.5 56zM356 -236q4 -23 14 -42t39 -19q13 0 25.5 5.5t22.5 15t17 21.5t9 25 q3 23 -10.5 43.5t-38.5 20.5q-16 0 -28.5 -6t-21.5 -16t-16 -23t-12 -25z" />
<glyph unicode="&#x300;" horiz-adv-x="1083" d="M-398 1212h-114l-115 346h165z" />
<glyph unicode="&#x301;" horiz-adv-x="1083" d="M-356 1559h178l-242 -347h-123z" />
<glyph unicode="&#x303;" horiz-adv-x="1083" d="M-56 1491q-5 -44 -21.5 -84.5t-44 -72t-66 -50.5t-86.5 -19q-38 0 -70 15.5t-62.5 34.5t-62 34.5t-68.5 14.5q-24 -1 -43.5 -10.5t-34 -25t-24.5 -35.5t-16 -41l-100 23q5 43 22 85t44.5 74.5t66 52t86.5 19.5q37 0 69 -16t63 -34.5t62.5 -34t68.5 -14.5q50 2 79 35.5 t41 77.5z" />
<glyph unicode="&#x309;" horiz-adv-x="1083" d="M-528 1241l22 153q21 2 46.5 4.5t49 10.5t41 23t21.5 42t-12 41t-40 21t-50 8t-42 2l14 105q41 -2 89 -10t88.5 -28.5t66.5 -54.5t24 -88q-2 -37 -16 -64t-37 -46t-53 -30.5t-63 -17.5l-11 -72z" />
<glyph unicode="&#x30f;" horiz-adv-x="1083" d="M-407 1252h-179l-251 266h233zM-155 1252h-159l-193 266h215z" />
<glyph unicode="&#x323;" horiz-adv-x="1083" d="M-852 -238q1 49 32 81.5t81 34.5q24 1 44.5 -7t35.5 -23t23 -35.5t8 -44.5q-1 -49 -32.5 -80t-79.5 -33q-24 -1 -44.5 6.5t-35.5 22t-23.5 34.5t-8.5 44z" />
<glyph unicode="&#x384;" d="M781 1658h197l-233 -387h-95z" />
<glyph unicode="&#x385;" d="M802 1727h207l-161 -264h-139zM398 1357q1 49 31.5 81.5t80.5 34.5q49 1 80.5 -30t30.5 -80t-32 -80.5t-80 -33.5q-24 -1 -44.5 7t-35.5 22.5t-23 34.5t-8 44zM890 1357q1 49 31.5 81.5t80.5 34.5q24 1 44.5 -7t35.5 -23t23 -35.5t8 -44.5q-1 -49 -32.5 -80.5 t-80.5 -33.5q-24 -1 -44 7t-35 22.5t-23 34.5t-8 44z" />
<glyph unicode="&#x386;" d="M807 377h-469l-180 -377h-188l709 1456h152l195 -1456h-173zM413 538h375l-76 630zM471 1658h197l-233 -387h-95z" />
<glyph unicode="&#x387;" d="M565 726q1 49 32 81.5t81 34.5q24 1 44.5 -7t35.5 -23t23 -35.5t8 -44.5q-1 -49 -32.5 -80.5t-79.5 -33.5q-24 -1 -45 7t-36 22t-23 34.5t-8 44.5z" />
<glyph unicode="&#x388;" horiz-adv-x="1302" d="M1059 673h-589l-90 -516h688l-28 -157h-868l253 1456h860l-28 -158h-679l-81 -468h590zM262 1658h197l-233 -387h-95z" />
<glyph unicode="&#x389;" horiz-adv-x="1302" d="M1051 0h-171l117 673h-578l-117 -673h-170l253 1456h170l-109 -626h578l109 626h171zM245 1660h197l-233 -387h-95z" />
<glyph unicode="&#x38a;" horiz-adv-x="1302" d="M417 1456h855l-29 -161h-338l-197 -1135h339l-28 -160h-855l28 160h331l197 1135h-332zM229 1660h197l-233 -387h-95z" />
<glyph unicode="&#x38c;" horiz-adv-x="1222" d="M1117 645q-13 -77 -36.5 -156.5t-59 -154t-83.5 -140.5t-109.5 -114t-137 -75t-165.5 -25q-86 2 -151.5 32.5t-112.5 80.5t-77 116t-45 139t-16.5 149t8.5 147l26 166q13 77 36.5 156.5t59 154t84 140.5t110 114.5t137 75.5t165.5 25q87 -2 152.5 -32.5t112.5 -80.5 t76.5 -116t44 -139.5t16 -150t-8.5 -147.5zM964 814q6 46 9.5 100t-1 108.5t-18.5 106t-41.5 91.5t-70 65t-104.5 27q-65 2 -117.5 -19.5t-94 -60t-73 -89t-54.5 -107t-38 -114.5t-24 -110l-28 -169q-6 -45 -9 -99t2 -109t19 -107t42 -92.5t70.5 -66t104.5 -27.5 q65 -2 118 19.5t94 60t72 89.5t53.5 107.5t37.5 114.5t24 111zM254 1658h197l-233 -387h-95z" />
<glyph unicode="&#x38e;" horiz-adv-x="1302" d="M702 726l448 730h215l-605 -924l-95 -532h-168l94 554l-279 902h196zM172 1658h197l-233 -387h-95z" />
<glyph unicode="&#x38f;" horiz-adv-x="1222" d="M605 192q62 15 110.5 47t86 77t64.5 99t46 112t31.5 117.5t20.5 114.5l11 82q6 47 8.5 100.5t-2.5 106.5t-19 102t-42 87.5t-71 62t-106 26.5q-66 2 -119.5 -18t-96.5 -55.5t-75 -84t-55.5 -103t-38.5 -112.5t-23 -113l-12 -82q-6 -43 -11 -97t-5.5 -111t6.5 -114 t26.5 -105.5t54 -85t89.5 -52.5l-30 -193h-440l28 151l253 3q-52 63 -86 135.5t-52 150t-21.5 158.5t7.5 161l12 79q11 78 35.5 156t61 149.5t86 133t112 107t138 70t163.5 22.5q85 -2 150.5 -30.5t113.5 -75.5t79.5 -109t48 -132t19.5 -144.5t-6 -146.5l-11 -78 q-14 -91 -43 -179t-74 -167.5t-106.5 -147t-139.5 -118.5l261 3l-27 -151h-440zM250 1658h197l-233 -387h-95z" />
<glyph unicode="&#x390;" d="M262 1082h522l-126 -762q-4 -39 -2 -72.5t14.5 -58t38 -38.5t69.5 -14q42 0 79 12.5t74 30.5l28 -133q-54 -35 -111 -51.5t-122 -14.5q-80 2 -131 30t-79.5 75.5t-36.5 110.5t-1 135l97 589h-342zM763 1658h207l-161 -264h-139zM359 1288q1 49 31.5 81.5t80.5 34.5 q49 1 80.5 -30t30.5 -80t-32 -80.5t-80 -33.5q-24 -1 -44.5 7t-35.5 22.5t-23 34.5t-8 44zM851 1288q1 49 31.5 81.5t80.5 34.5q24 1 44.5 -7t35.5 -23t23 -35.5t8 -44.5q-1 -49 -32.5 -80.5t-80.5 -33.5q-24 -1 -44 7t-35 22.5t-23 34.5t-8 44z" />
<glyph unicode="&#x391;" d="M807 377h-469l-180 -377h-188l709 1456h152l195 -1456h-173zM413 538h375l-76 630z" />
<glyph unicode="&#x392;" d="M62 0l253 1456l409 -1q84 -3 160.5 -27.5t134 -72t88.5 -117t23 -162.5q-5 -61 -28.5 -109.5t-60 -86.5t-84 -67.5t-99.5 -51.5q52 -20 90 -54.5t63 -78t35.5 -94.5t6.5 -105q-7 -103 -54 -183t-119.5 -135t-164.5 -83t-188 -28h-465zM362 681l-91 -524l266 -2 q61 1 117.5 20t102.5 53.5t76.5 84.5t38.5 113q7 54 -5.5 99.5t-40.5 79t-70.5 53t-96.5 22.5zM389 835l240 -2q55 1 109 17t98 47t74 76t37 104q7 54 -8.5 94.5t-46.5 67.5t-74.5 41.5t-92.5 16.5l-256 1z" />
<glyph unicode="&#x393;" d="M1162 1304h-683l-226 -1304h-182l253 1456h865z" />
<glyph unicode="&#x395;" d="M959 673h-589l-90 -516h688l-28 -157h-868l253 1456h860l-28 -158h-679l-81 -468h590z" />
<glyph unicode="&#x396;" d="M252 157h727l-25 -157h-935l21 153l877 1145h-686l26 158h896l-21 -150z" />
<glyph unicode="&#x397;" d="M951 0h-171l117 673h-578l-117 -673h-170l253 1456h170l-109 -626h578l109 626h171z" />
<glyph unicode="&#x398;" d="M831 660h-452l27 151h451zM1097 645q-13 -77 -36.5 -156.5t-59 -154t-83.5 -140.5t-109.5 -114t-137 -75t-165.5 -25q-86 2 -151.5 32.5t-112.5 80.5t-77 116t-45 139t-16.5 149t8.5 147l26 166q13 77 36.5 156.5t59 154t84 140.5t110 114.5t137 75.5t165.5 25 q87 -2 152.5 -32.5t112.5 -80.5t76.5 -116t44 -139.5t16 -150t-8.5 -147.5zM944 814q6 46 9.5 100t-1 108.5t-18.5 106t-41.5 91.5t-70 65t-104.5 27q-65 2 -117.5 -19.5t-94 -60t-73 -89t-54.5 -107t-38 -114.5t-24 -110l-28 -169q-6 -45 -9 -99t2 -109t19 -107t42 -92.5 t70.5 -66t104.5 -27.5q65 -2 118 19.5t94 60t72 89.5t53.5 107.5t37.5 114.5t24 111z" />
<glyph unicode="&#x399;" d="M317 1456h855l-29 -161h-338l-197 -1135h339l-28 -160h-855l28 160h331l197 1135h-332z" />
<glyph unicode="&#x39a;" d="M528 674l-197 -191l-84 -483h-185l253 1456h185l-123 -700l158 165l507 535h234l-614 -646l381 -810h-207z" />
<glyph unicode="&#x39b;" d="M704 1178l-568 -1178h-192l722 1456h158l218 -1456h-178z" />
<glyph unicode="&#x39c;" d="M511 1456l103 -726l374 726h228l-252 -1456h-176l102 590l116 582l-389 -767h-105l-107 772l-91 -605l-99 -572h-176l253 1456h219z" />
<glyph unicode="&#x39d;" d="M950 0h-178l-362 1096l-193 -1096h-183l253 1456h178l362 -1094l193 1094h183z" />
<glyph unicode="&#x39e;" d="M63 151h907l-27 -151h-907zM263 830h733l-27 -152h-733zM291 1456h892l-27 -152h-892z" />
<glyph unicode="&#x39f;" d="M1097 645q-13 -77 -36.5 -156.5t-59 -154t-83.5 -140.5t-109.5 -114t-137 -75t-165.5 -25q-86 2 -151.5 32.5t-112.5 80.5t-77 116t-45 139t-16.5 149t8.5 147l26 166q13 77 36.5 156.5t59 154t84 140.5t110 114.5t137 75.5t165.5 25q87 -2 152.5 -32.5t112.5 -80.5 t76.5 -116t44 -139.5t16 -150t-8.5 -147.5zM944 814q6 46 9.5 100t-1 108.5t-18.5 106t-41.5 91.5t-70 65t-104.5 27q-65 2 -117.5 -19.5t-94 -60t-73 -89t-54.5 -107t-38 -114.5t-24 -110l-28 -169q-6 -45 -9 -99t2 -109t19 -107t42 -92.5t70.5 -66t104.5 -27.5 q65 -2 118 19.5t94 60t72 89.5t53.5 107.5t37.5 114.5t24 111z" />
<glyph unicode="&#x3a0;" d="M931 0h-181l226 1304h-516l-227 -1304h-180l252 1456h878z" />
<glyph unicode="&#x3a1;" d="M363 584l-102 -584h-180l252 1456l447 -1q92 -3 169.5 -34.5t132 -87.5t82 -133.5t19.5 -172.5q-9 -105 -55 -187.5t-118.5 -139.5t-165 -87t-192.5 -30zM389 736l268 -2q66 0 125 20.5t105.5 58t77 91.5t38.5 121q7 57 -5.5 106.5t-42 86.5t-75 59.5t-104.5 25.5l-288 1 z" />
<glyph unicode="&#x3a3;" d="M791 717l-530 -565h764l-27 -152h-994l27 153l572 585l-370 583l24 135h945l-27 -152h-728l347 -561z" />
<glyph unicode="&#x3a4;" d="M1243 1298h-436l-225 -1298h-176l225 1298h-437l28 158h1049z" />
<glyph unicode="&#x3a5;" d="M602 726l448 730h215l-605 -924l-95 -532h-168l94 554l-279 902h196z" />
<glyph unicode="&#x3a6;" d="M794 1248q97 -13 167.5 -61t114.5 -118.5t61.5 -157.5t8.5 -178q-11 -108 -53.5 -202t-110.5 -165.5t-159.5 -116t-200.5 -53.5l-40 -196h-180l39 198q-98 12 -168.5 60t-114.5 119t-61 158.5t-8 179.5q11 108 53 202t110.5 165t160 115.5t200.5 52.5l42 206h180z M267 715q-7 -59 -3.5 -119t24.5 -111t61.5 -88t108.5 -49l137 753q-75 -10 -132.5 -45t-98 -87t-64.5 -117.5t-33 -136.5zM966 733q7 58 3.5 117.5t-24 110t-61 87.5t-106.5 50l-137 -753q75 10 132 45.5t97 88t63.5 118t32.5 136.5z" />
<glyph unicode="&#x3a7;" d="M646 886l393 570h223l-530 -731l302 -725h-201l-220 581l-404 -581h-224l543 743l-294 713h201z" />
<glyph unicode="&#x3a8;" d="M664 476q69 16 121 50t89 82t60 107.5t34 126.5l105 614h180l-104 -614q-15 -106 -54.5 -195t-102.5 -156.5t-149 -110.5t-195 -56l-62 -324h-181l62 326q-98 16 -165 64.5t-106 118.5t-51.5 155.5t-1.5 177.5l103 614h181l-104 -615q-7 -56 -5 -112t19 -105t52 -87 t95 -57l174 976h181z" />
<glyph unicode="&#x3aa;" d="M317 1456h855l-29 -161h-338l-197 -1135h339l-28 -160h-855l28 160h331l197 1135h-332zM425 1716q0 46 29.5 76.5t76.5 32.5q46 1 77 -28.5t30 -76.5q-1 -46 -31 -76t-76 -32q-47 -1 -77 28t-29 76zM841 1714q1 46 30.5 77t76.5 33q47 1 77 -28.5t30 -77.5 q-1 -46 -31 -76t-77 -32q-46 -1 -76 28t-30 76z" />
<glyph unicode="&#x3ab;" d="M602 726l448 730h215l-605 -924l-95 -532h-168l94 554l-279 902h196zM465 1715q0 46 29.5 76.5t76.5 32.5q46 1 77 -28.5t30 -76.5q-1 -46 -31 -76t-76 -32q-47 -1 -77 28t-29 76zM881 1713q1 46 30.5 77t76.5 33q47 1 77 -28.5t30 -77.5q-1 -46 -31 -76t-77 -32 q-46 -1 -76 28t-30 76z" />
<glyph unicode="&#x3ac;" d="M1061 1082l-136 -808q-2 -16 -3.5 -37t2 -40.5t14 -33.5t33.5 -15q13 -2 26 0t25 4l10 -140q-27 -16 -54.5 -24t-59.5 -7q-70 1 -114.5 35.5t-58.5 103.5q-66 -69 -145 -106t-176 -35q-69 2 -121 25t-89 62t-60.5 89.5t-35.5 107.5t-13.5 117t4.5 117l2 22q8 65 25 134 t44.5 134.5t65.5 123.5t88 101.5t113 68t141 22.5q88 -2 162.5 -38t122.5 -111l75 128h113zM291 493q-4 -36 -5.5 -77t3 -80.5t16.5 -76.5t33.5 -65t55 -45.5t81.5 -18.5q43 -2 80.5 9t70 30.5t61 47t53.5 59.5l94 533q-31 66 -84 103t-126 39q-57 2 -101.5 -17t-79.5 -52.5 t-60 -78t-43 -93.5t-29 -99.5t-17 -95.5zM797 1662h197l-233 -387h-95z" />
<glyph unicode="&#x3ad;" d="M589 479q-49 0 -103 -6t-100.5 -25.5t-79.5 -55t-40 -95.5q-4 -34 6.5 -60t31 -44.5t48 -31t57.5 -20t60.5 -10.5t55.5 -3q48 -1 101 9t100 32.5t82 59.5t46 90l181 1q-11 -95 -61 -160.5t-123.5 -106t-160.5 -58t-171 -15.5q-48 1 -100 8t-101.5 22t-93.5 39.5t-76.5 59 t-50 81t-13.5 106.5q3 56 25 98.5t57 74.5t80 54t94 38q-33 16 -61 37.5t-49 48.5t-32.5 60t-9.5 72q2 63 25 112t60.5 85t86.5 60.5t103 39t110.5 20.5t109.5 5q74 -2 149 -20.5t135 -57.5t98 -99t37 -145l-178 1q1 48 -22.5 80t-60.5 52t-80.5 29t-83.5 10q-44 1 -95 -6 t-96 -26.5t-78.5 -53t-40.5 -86.5q-7 -50 13.5 -79.5t55 -45.5t77 -21t80.5 -6l248 -1l-26 -148zM801 1661h197l-233 -387h-95z" />
<glyph unicode="&#x3ae;" d="M405 1082l-23 -161q66 85 153.5 134t197.5 47q94 -2 158.5 -34.5t101.5 -88.5t49.5 -131.5t3.5 -162.5l-186 -1100h-182l186 1097q7 57 1 105.5t-28 83.5t-62.5 55.5t-103.5 22.5q-91 2 -163.5 -34.5t-129.5 -105.5l-142 -809h-182l188 1082h163zM809 1662h197l-233 -387 h-95z" />
<glyph unicode="&#x3af;" d="M262 1082h522l-126 -762q-4 -39 -2 -72.5t14.5 -58t38 -38.5t69.5 -14q42 0 79 12.5t74 30.5l28 -133q-54 -35 -111 -51.5t-122 -14.5q-80 2 -131 30t-79.5 75.5t-36.5 110.5t-1 135l97 589h-342zM792 1642h197l-233 -387h-95z" />
<glyph unicode="&#x3b0;" d="M417 1082l-103 -621q-7 -58 -3.5 -116.5t24.5 -106t63 -78t113 -32.5q57 -1 103.5 18t83.5 52.5t66 77.5t50 93.5t34.5 100.5t20.5 98q19 129 10 260t-44 256l182 -2q38 -125 43.5 -255.5t-11.5 -259.5q-10 -74 -30.5 -146.5t-52.5 -138.5t-75.5 -122t-100.5 -97 t-126.5 -63.5t-153.5 -20.5q-110 2 -187 39.5t-123 102.5t-62.5 153t-4.5 191l104 617h180zM728 1658h207l-161 -264h-139zM324 1288q1 49 31.5 81.5t80.5 34.5q49 1 80.5 -30t30.5 -80t-32 -80.5t-80 -33.5q-24 -1 -44.5 7t-35.5 22.5t-23 34.5t-8 44zM816 1288 q1 49 31.5 81.5t80.5 34.5q24 1 44.5 -7t35.5 -23t23 -35.5t8 -44.5q-1 -49 -32.5 -80.5t-80.5 -33.5q-24 -1 -44 7t-35 22.5t-23 34.5t-8 44z" />
<glyph unicode="&#x3b1;" d="M1061 1082l-136 -808q-2 -16 -3.5 -37t2 -40.5t14 -33.5t33.5 -15q13 -2 26 0t25 4l10 -140q-27 -16 -54.5 -24t-59.5 -7q-70 1 -114.5 35.5t-58.5 103.5q-66 -69 -145 -106t-176 -35q-69 2 -121 25t-89 62t-60.5 89.5t-35.5 107.5t-13.5 117t4.5 117l2 22q8 65 25 134 t44.5 134.5t65.5 123.5t88 101.5t113 68t141 22.5q88 -2 162.5 -38t122.5 -111l75 128h113zM291 493q-4 -36 -5.5 -77t3 -80.5t16.5 -76.5t33.5 -65t55 -45.5t81.5 -18.5q43 -2 80.5 9t70 30.5t61 47t53.5 59.5l94 533q-31 66 -84 103t-126 39q-57 2 -101.5 -17t-79.5 -52.5 t-60 -78t-43 -93.5t-29 -99.5t-17 -95.5z" />
<glyph unicode="&#x3b2;" d="M736 1476q83 -2 153 -30t119 -78.5t74 -120.5t18 -155q-5 -54 -25 -99.5t-50.5 -83t-71 -67.5t-85.5 -54q51 -25 87.5 -63t59 -84.5t31 -99.5t4.5 -108q-8 -102 -49 -186.5t-107.5 -145t-155 -93t-190.5 -30.5q-77 2 -149.5 25t-132.5 73l-87 -460h-181l249 1457 q13 88 58 163t111 129t148.5 83.5t171.5 27.5zM632 856q57 1 106.5 16.5t87.5 45.5t62.5 74t30.5 103q5 47 -6 88.5t-36.5 73t-63.5 50t-87 19.5q-56 1 -106 -18t-89 -53t-65.5 -80.5t-35.5 -100.5l-143 -829q43 -61 110.5 -88.5t139.5 -28.5q67 -1 124.5 21.5t101 62.5 t71.5 95.5t36 120.5q6 49 -2 97t-31 87t-61.5 64.5t-92.5 28.5l-150 1l27 151z" />
<glyph unicode="&#x3b3;" d="M1034 1082h194l-630 -1046l-79 -452h-182l84 481l-264 1017h176l196 -793l5 -85l46 103z" />
<glyph unicode="&#x3b4;" d="M371 1261q4 80 40.5 138t93.5 95.5t127.5 55t142.5 16.5q81 -2 156 -28t147 -61l-52 -128q-62 26 -127 45.5t-132 18.5q-35 0 -70.5 -9t-65.5 -27t-51 -45.5t-27 -65.5q-6 -37 12 -65.5t47 -50.5t63 -38t61 -27q91 -38 160 -91.5t113.5 -122.5t62.5 -153.5t8 -184.5 l-3 -22q-14 -111 -59.5 -208.5t-118.5 -170t-170 -114t-214 -38.5q-113 3 -195.5 46t-134.5 115t-73 166.5t-11 198.5l2 22q10 85 44 161t87 136.5t124.5 102t156.5 59.5l12 18q-37 18 -67 44.5t-50.5 59.5t-30.5 71.5t-8 80.5zM283 502q-8 -66 -0.5 -132t35.5 -118.5 t78 -86.5t128 -36q82 -2 146.5 29.5t111 85.5t75 124t39.5 144l2 20q7 57 -4.5 120.5t-40.5 118t-76.5 93t-113.5 46.5q-55 7 -102.5 -6t-87 -41t-71.5 -67.5t-55.5 -84.5t-39 -93.5t-21.5 -94.5z" />
<glyph unicode="&#x3b5;" d="M589 479q-49 0 -103 -6t-100.5 -25.5t-79.5 -55t-40 -95.5q-4 -34 6.5 -60t31 -44.5t48 -31t57.5 -20t60.5 -10.5t55.5 -3q48 -1 101 9t100 32.5t82 59.5t46 90l181 1q-11 -95 -61 -160.5t-123.5 -106t-160.5 -58t-171 -15.5q-48 1 -100 8t-101.5 22t-93.5 39.5t-76.5 59 t-50 81t-13.5 106.5q3 56 25 98.5t57 74.5t80 54t94 38q-33 16 -61 37.5t-49 48.5t-32.5 60t-9.5 72q2 63 25 112t60.5 85t86.5 60.5t103 39t110.5 20.5t109.5 5q74 -2 149 -20.5t135 -57.5t98 -99t37 -145l-178 1q1 48 -22.5 80t-60.5 52t-80.5 29t-83.5 10q-44 1 -95 -6 t-96 -26.5t-78.5 -53t-40.5 -86.5q-7 -50 13.5 -79.5t55 -45.5t77 -21t80.5 -6l248 -1l-26 -148z" />
<glyph unicode="&#x3b6;" d="M1188 1456l-22 -128l-462 -419q-62 -54 -124.5 -109t-115.5 -117.5t-91 -134t-49 -158.5q-11 -80 17 -132t107 -74l205 -52q45 -11 86.5 -24.5t73 -37t49 -59t13.5 -90.5q-3 -47 -23 -90.5t-50 -82.5t-66 -72.5t-71 -59.5l-92 89q18 19 38 40.5t37.5 45t30.5 49.5t17 54 q3 24 -7.5 40.5t-28.5 27.5t-39.5 17.5t-39.5 11.5l-169 36q-72 16 -126.5 46t-90 74.5t-50.5 104t-7 135.5q6 61 29.5 119t58 112.5t78 105t90 97t94 88.5t90.5 79l352 316h-695l27 152h926z" />
<glyph unicode="&#x3b7;" d="M405 1082l-23 -161q66 85 153.5 134t197.5 47q94 -2 158.5 -34.5t101.5 -88.5t49.5 -131.5t3.5 -162.5l-186 -1100h-182l186 1097q7 57 1 105.5t-28 83.5t-62.5 55.5t-103.5 22.5q-91 2 -163.5 -34.5t-129.5 -105.5l-142 -809h-182l188 1082h163z" />
<glyph unicode="&#x3b8;" d="M1012 558q-11 -70 -29.5 -140t-47 -135t-68 -121.5t-92 -97.5t-118.5 -63.5t-148 -20.5q-78 2 -135.5 28t-97 69t-63.5 99.5t-35.5 120t-11 130t8.5 130.5l53 341q10 69 29 139.5t48 135.5t68.5 121.5t92.5 98t119 64t148 20.5q78 -2 135.5 -28t97.5 -69t63.5 -100 t34.5 -120.5t10.5 -131t-8.5 -130.5zM847 659h-477l-21 -142q-5 -36 -8 -78t-0.5 -84.5t12.5 -82.5t30.5 -71t53.5 -50.5t83 -21.5q53 -2 94.5 14t73.5 45t55 68t39 83t26.5 90t16.5 89zM396 810h477l19 130q5 36 8 78.5t0.5 84.5t-12 81.5t-30 70t-53.5 50t-83 21.5 q-80 3 -134 -33t-89 -93.5t-54.5 -127t-28.5 -133.5z" />
<glyph unicode="&#x3b9;" d="M262 1082h522l-126 -762q-4 -39 -2 -72.5t14.5 -58t38 -38.5t69.5 -14q42 0 79 12.5t74 30.5l28 -133q-54 -35 -111 -51.5t-122 -14.5q-80 2 -131 30t-79.5 75.5t-36.5 110.5t-1 135l97 589h-342z" />
<glyph unicode="&#x3ba;" d="M492 475l-177 -139l-58 -336h-181l188 1082h181l-92 -521l121 112l454 409h233l-535 -488l368 -594h-214z" />
<glyph unicode="&#x3bb;" d="M156 0h-209l568 1043l-29 132q-6 27 -15.5 59t-25.5 60t-39 47.5t-57 21.5q-17 1 -34 -0.5t-34 -2.5l12 143q23 5 47 9t48 4q58 -1 103 -23.5t78 -60t55.5 -86t34.5 -99.5l190 -949q5 -22 11.5 -47.5t18 -47.5t29.5 -38t45 -18q11 -1 23 0.5t23 3.5l-15 -153 q-14 -5 -26.5 -9t-26.5 -5q-59 -3 -101.5 20.5t-73.5 62t-50.5 87.5t-31.5 97l-112 554l-53 -128z" />
<glyph unicode="&#x3bc;" d="M446 1082l-102 -625q-4 -32 -6.5 -68.5t-0.5 -72.5t10 -68.5t25.5 -58t46.5 -41.5t73 -17q92 -4 162.5 34.5t118.5 116.5l139 800h182l-188 -1082h-162l19 116q-53 -66 -119.5 -102t-153.5 -35q-60 1 -115 17.5t-100 57.5l-89 -470h-180l260 1498h180z" />
<glyph unicode="&#x3bd;" d="M524 266l5 -68l29 69l422 815h192l-598 -1082h-138l-262 1082l174 1z" />
<glyph unicode="&#x3be;" d="M1111 1288q-53 16 -106.5 26.5t-109.5 10.5q-34 0 -74 -2t-81 -9.5t-80 -21.5t-71 -35.5t-54 -53t-28 -73.5q-7 -47 4.5 -80.5t36 -57t58.5 -37.5t72 -22.5t77 -11.5t73 -3l150 -1l-27 -152l-127 1q-86 0 -170 -15t-153.5 -52.5t-117 -101.5t-58.5 -161q-8 -65 11 -114 t56 -84.5t88 -59t107 -36.5l103 -26q44 -11 85.5 -24.5t73 -36t49.5 -58t14 -89.5q-3 -46 -23 -89t-49.5 -81.5t-65.5 -71.5t-70 -59l-91 88q19 20 39.5 41t37.5 44t29.5 48.5t15.5 55.5q3 25 -7.5 41t-28.5 26.5t-40 16.5t-41 11l-53 13q-92 22 -172.5 55t-139 84.5 t-89 126.5t-21.5 182q7 86 41.5 152t88.5 115t123 83t146 57q-44 18 -84 44.5t-70 61t-47 77.5t-14 94q4 71 31.5 125t71.5 93.5t101 65.5t119 41.5t125.5 22t121.5 5.5q64 0 127 -10t125 -28z" />
<glyph unicode="&#x3bf;" d="M110 544q9 73 31.5 143.5t57.5 133t82.5 115t106 90t128 58t149.5 18.5q114 -3 194.5 -50.5t129.5 -124t67.5 -174t7.5 -199.5l-2 -23q-14 -109 -58.5 -210t-115.5 -177.5t-167.5 -121.5t-214.5 -42q-113 3 -193.5 49.5t-129.5 122.5t-68 172t-8 198zM288 522 q-5 -42 -4.5 -87t8 -88t23.5 -82t43 -68.5t65.5 -47.5t90.5 -20q83 -3 147 33t109.5 94t72.5 130.5t38 144.5l2 22q7 63 2.5 132t-29.5 127.5t-73 97t-126 41.5q-84 3 -148 -33.5t-109 -95.5t-72 -132.5t-37 -145.5z" />
<glyph unicode="&#x3c0;" d="M1125 929h-139l-111 -663q-2 -23 -2 -45.5t6.5 -40.5t21.5 -29t43 -11q24 0 46.5 7t44.5 15l29 -132q-41 -26 -82.5 -38t-89.5 -10q-65 1 -105.5 26.5t-62 66.5t-26.5 93.5t0 109.5l108 651h-354l-161 -929h-181l161 929h-128l27 153h982z" />
<glyph unicode="&#x3c1;" d="M1045 506q-12 -98 -46.5 -193.5t-93 -170.5t-143 -120t-196.5 -43q-88 2 -167.5 33.5t-136.5 100.5l-98 -529h-181l171 992v3q2 70 22 136t56 125t84.5 108t107 84t124 53.5t134.5 16.5q79 -2 139.5 -27t103.5 -66.5t70.5 -96.5t41.5 -118t16 -131t-5 -135zM868 527 q4 39 6.5 85.5t-1.5 93t-16 90.5t-35 77.5t-60 54.5t-91 23q-75 2 -132.5 -32t-99 -89t-67.5 -122t-37 -131l-50 -294q33 -75 93.5 -113.5t142.5 -40.5q80 -2 140.5 30.5t102.5 86t67 122t34 138.5z" />
<glyph unicode="&#x3c2;" d="M667 1103q89 -2 163.5 -29.5t127 -78t80 -123t23.5 -164.5l-170 1q3 57 -12 101.5t-45.5 75t-75.5 47.5t-101 18q-81 2 -144.5 -32t-109.5 -90t-74.5 -127t-38.5 -142l-6 -42q-8 -73 6.5 -134.5t49.5 -109t90 -79t127 -45.5q36 -7 75 -15t76.5 -19.5t70.5 -28.5t57.5 -42 t37.5 -60t10 -82q-3 -62 -29.5 -112.5t-67 -91t-91 -71.5t-102.5 -53l-64 127q30 14 60 32.5t55 42t42.5 53t22.5 65.5q4 33 -14.5 52t-47.5 30t-61 15.5t-54 8.5q-104 18 -188 60t-140.5 107t-83 152.5t-15.5 196.5l5 43q13 109 58 208t117 174.5t168.5 119t212.5 41.5z " />
<glyph unicode="&#x3c3;" d="M1181 929l-275 -3q75 -88 103.5 -191t17.5 -218l-3 -24q-8 -69 -31 -134.5t-58.5 -123t-83 -105.5t-105 -82t-123.5 -52t-139 -16q-114 3 -193 50.5t-126 124t-64.5 173.5t-6.5 198l3 23q13 110 57 207.5t114.5 170t165.5 114.5t211 42l563 -1zM274 522 q-7 -62 -2.5 -130.5t28 -126t70 -95.5t124.5 -41q83 -3 145.5 33t106 94.5t69 131t35.5 143.5l3 22q7 62 2 128t-29.5 120.5t-71.5 90t-123 38.5q-81 3 -142.5 -30.5t-105.5 -89t-70 -126t-36 -140.5z" />
<glyph unicode="&#x3c4;" d="M1099 924h-345l-99 -601q-4 -38 -2.5 -71.5t13.5 -58.5t37 -40t68 -15q39 0 75.5 12.5t71.5 29.5l29 -133q-104 -70 -229 -67q-80 2 -130.5 31t-77.5 77t-34.5 111.5t0.5 134.5l97 590h-350l28 158h876z" />
<glyph unicode="&#x3c5;" d="M417 1082l-103 -621q-7 -58 -3.5 -116.5t24.5 -106t63 -78t113 -32.5q57 -1 103.5 18t83.5 52.5t66 77.5t50 93.5t34.5 100.5t20.5 98q19 129 10 260t-44 256l182 -2q38 -125 43.5 -255.5t-11.5 -259.5q-10 -74 -30.5 -146.5t-52.5 -138.5t-75.5 -122t-100.5 -97 t-126.5 -63.5t-153.5 -20.5q-110 2 -187 39.5t-123 102.5t-62.5 153t-4.5 191l104 617h180z" />
<glyph unicode="&#x3c6;" d="M408 -12q-101 20 -166 74.5t-100.5 130t-45 166t1.5 181.5q19 168 101 308.5t224 234.5l86 -136q-91 -79 -150.5 -184.5t-79.5 -224.5q-9 -54 -9 -114t15.5 -114.5t49 -99t90.5 -67.5l120 692q7 54 28.5 100t56 79.5t81 51.5t103.5 17q64 -1 111.5 -27.5t81 -69.5 t54.5 -98t31.5 -114t11.5 -117t-4 -106q-12 -111 -51 -207.5t-103.5 -171t-154.5 -123.5t-203 -64l-85 -463h-181zM605 138q69 21 123.5 62t94 95.5t64 120t32.5 135.5q2 21 4.5 57t1.5 79t-6.5 86.5t-19 79t-36.5 57t-59 20.5q-18 -1 -31 -8.5t-22 -20t-14.5 -28 t-8.5 -31.5z" />
<glyph unicode="&#x3c7;" d="M609 682l343 400h224l-483 -543l312 -539h-196l-226 411l-354 -411h-223l495 555l-303 527h197z" />
<glyph unicode="&#x3c8;" d="M764 1082l-169 -944q76 21 134 63.5t99.5 100t67.5 127t38 143.5q20 127 20 256t-23 255l183 -1q23 -126 20 -255t-20 -256q-16 -115 -56 -216t-106.5 -178.5t-159.5 -128t-214 -63.5l-84 -457h-181l85 461q-109 22 -174.5 83.5t-98 146t-37.5 183t8 194.5l81 486h181 l-82 -489q-5 -38 -8.5 -81.5t-3 -88t8 -87.5t24.5 -80.5t45.5 -67t72.5 -46.5l168 940h181z" />
<glyph unicode="&#x3c9;" d="M439 1081q-29 -63 -58 -127t-54.5 -129.5t-46 -132.5t-30.5 -136q-2 -16 -7.5 -53.5t-9.5 -84t-4.5 -97t6 -92.5t22 -70.5t45.5 -30.5q37 -3 65 14.5t48 47.5t33.5 68.5t22.5 77.5t14 74.5t8 59.5l47 300h182l-47 -300q-2 -18 -6 -50t-5.5 -69.5t0.5 -77t12 -71.5 t29 -52.5t52 -21.5q37 -1 64 24.5t46 66.5t31.5 91.5t20.5 99.5t12 90.5t7 64.5q17 130 16 260t-29 259l181 -2q16 -63 23 -128t7.5 -130t-4.5 -130t-13 -129q-7 -50 -18 -113t-29 -129t-44.5 -128.5t-65 -111t-90.5 -77t-120 -26.5q-46 1 -82 18t-62 45.5t-42 66.5t-22 81 q-21 -41 -45.5 -80t-56.5 -69t-71.5 -47.5t-90.5 -16.5q-65 2 -108 33.5t-68.5 81.5t-36 112.5t-12 126t3 122.5t10.5 102q18 140 62.5 271t113.5 254h194z" />
<glyph unicode="&#x3ca;" d="M262 1082h522l-126 -762q-4 -39 -2 -72.5t14.5 -58t38 -38.5t69.5 -14q42 0 79 12.5t74 30.5l28 -133q-54 -35 -111 -51.5t-122 -14.5q-80 2 -131 30t-79.5 75.5t-36.5 110.5t-1 135l97 589h-342zM416 1373q0 46 29.5 76.5t76.5 32.5q46 1 77 -28.5t30 -76.5 q-1 -46 -31 -76t-76 -32q-47 -1 -77 28t-29 76zM832 1371q1 46 30.5 77t76.5 33q47 1 77 -28.5t30 -77.5q-1 -46 -31 -76t-77 -32q-46 -1 -76 28t-30 76z" />
<glyph unicode="&#x3cb;" d="M417 1082l-103 -621q-7 -58 -3.5 -116.5t24.5 -106t63 -78t113 -32.5q57 -1 103.5 18t83.5 52.5t66 77.5t50 93.5t34.5 100.5t20.5 98q19 129 10 260t-44 256l182 -2q38 -125 43.5 -255.5t-11.5 -259.5q-10 -74 -30.5 -146.5t-52.5 -138.5t-75.5 -122t-100.5 -97 t-126.5 -63.5t-153.5 -20.5q-110 2 -187 39.5t-123 102.5t-62.5 153t-4.5 191l104 617h180zM382 1373q0 46 29.5 76.5t76.5 32.5q46 1 77 -28.5t30 -76.5q-1 -46 -31 -76t-76 -32q-47 -1 -77 28t-29 76zM798 1371q1 46 30.5 77t76.5 33q47 1 77 -28.5t30 -77.5 q-1 -46 -31 -76t-77 -32q-46 -1 -76 28t-30 76z" />
<glyph unicode="&#x3cc;" d="M110 544q9 73 31.5 143.5t57.5 133t82.5 115t106 90t128 58t149.5 18.5q114 -3 194.5 -50.5t129.5 -124t67.5 -174t7.5 -199.5l-2 -23q-14 -109 -58.5 -210t-115.5 -177.5t-167.5 -121.5t-214.5 -42q-113 3 -193.5 49.5t-129.5 122.5t-68 172t-8 198zM288 522 q-5 -42 -4.5 -87t8 -88t23.5 -82t43 -68.5t65.5 -47.5t90.5 -20q83 -3 147 33t109.5 94t72.5 130.5t38 144.5l2 22q7 63 2.5 132t-29.5 127.5t-73 97t-126 41.5q-84 3 -148 -33.5t-109 -95.5t-72 -132.5t-37 -145.5zM791 1662h197l-233 -387h-95z" />
<glyph unicode="&#x3cd;" d="M417 1082l-103 -621q-7 -58 -3.5 -116.5t24.5 -106t63 -78t113 -32.5q57 -1 103.5 18t83.5 52.5t66 77.5t50 93.5t34.5 100.5t20.5 98q19 129 10 260t-44 256l182 -2q38 -125 43.5 -255.5t-11.5 -259.5q-10 -74 -30.5 -146.5t-52.5 -138.5t-75.5 -122t-100.5 -97 t-126.5 -63.5t-153.5 -20.5q-110 2 -187 39.5t-123 102.5t-62.5 153t-4.5 191l104 617h180zM758 1642h197l-233 -387h-95z" />
<glyph unicode="&#x3ce;" d="M439 1081q-29 -63 -58 -127t-54.5 -129.5t-46 -132.5t-30.5 -136q-2 -16 -7.5 -53.5t-9.5 -84t-4.5 -97t6 -92.5t22 -70.5t45.5 -30.5q37 -3 65 14.5t48 47.5t33.5 68.5t22.5 77.5t14 74.5t8 59.5l47 300h182l-47 -300q-2 -18 -6 -50t-5.5 -69.5t0.5 -77t12 -71.5 t29 -52.5t52 -21.5q37 -1 64 24.5t46 66.5t31.5 91.5t20.5 99.5t12 90.5t7 64.5q17 130 16 260t-29 259l181 -2q16 -63 23 -128t7.5 -130t-4.5 -130t-13 -129q-7 -50 -18 -113t-29 -129t-44.5 -128.5t-65 -111t-90.5 -77t-120 -26.5q-46 1 -82 18t-62 45.5t-42 66.5t-22 81 q-21 -41 -45.5 -80t-56.5 -69t-71.5 -47.5t-90.5 -16.5q-65 2 -108 33.5t-68.5 81.5t-36 112.5t-12 126t3 122.5t10.5 102q18 140 62.5 271t113.5 254h194zM799 1642h197l-233 -387h-95z" />
<glyph unicode="&#x3d1;" d="M1159 627q-38 -13 -76.5 -20t-78.5 -12l-26 -160q-15 -98 -53.5 -182t-99.5 -145.5t-144.5 -96t-187.5 -31.5q-97 3 -171 39t-122 97.5t-68.5 143.5t-9.5 175l54 334l183 2l-56 -337q-6 -56 1 -108.5t30.5 -93.5t65.5 -67t105 -28q68 -3 118.5 21t86 65t57 96t30.5 115 l30 169q-95 19 -170.5 65t-126 112.5t-74.5 151t-17 181.5l2 17q8 74 37 138.5t76.5 112t111.5 73.5t142 24q80 -2 136.5 -33t90.5 -82t46.5 -118t4.5 -140l-59 -354q34 5 67 11t66 14zM619 1112q-10 -127 45.5 -219.5t180.5 -129.5l60 343q3 34 2.5 71.5t-11 69t-35 52.5 t-68.5 22q-42 1 -72.5 -15t-51.5 -43.5t-33 -62.5t-16 -71z" />
<glyph unicode="&#x3d2;" d="M902 1241q23 43 49.5 84.5t60 74t75.5 52t96 18.5q32 -1 58.5 -7t54.5 -20l-37 -148q-20 11 -42 11q-42 0 -73 -24t-52 -57l-404 -656l-99 -569h-179l102 587l-175 639q-11 31 -33.5 52t-57.5 22q-11 0 -21.5 -2.5t-21.5 -5.5l-10 152q25 12 49 17t51 4q48 -2 83 -22.5 t60 -52.5t42.5 -72t29.5 -80l110 -416l6 -76l42 94z" />
<glyph unicode="&#x3d6;" d="M1195 929l-118 1q3 -125 1.5 -247t-17.5 -246q-6 -46 -16 -98.5t-27 -104t-41.5 -98t-59 -82t-80 -56t-104.5 -18.5q-47 1 -83 18t-62.5 46t-42.5 67t-22 81q-20 -41 -44.5 -80t-56 -69t-71 -48t-90.5 -16q-56 1 -95 23.5t-64.5 58.5t-39 82t-18.5 95.5t-3.5 98.5t6.5 90 q16 132 56 260t104 244l-107 -2l28 153h1096zM882 435q14 125 13.5 247t-8.5 247l-485 1q-61 -117 -107.5 -244.5t-63.5 -259.5q-2 -14 -5.5 -41t-5.5 -59.5t-1.5 -66.5t7.5 -62.5t21 -47.5t39 -21q37 -3 64 14.5t47 47.5t33.5 69t22 78t13.5 74t8 59l39 252h181l-38 -252 q-2 -18 -6 -50t-5.5 -70t0.5 -77.5t12 -71.5t29.5 -52.5t52.5 -20.5q29 0 50 17t36.5 45t25 62.5t16 69t10 64.5t5.5 49z" />
<glyph unicode="&#x400;" d="M959 673h-589l-90 -516h688l-28 -157h-868l253 1456h860l-28 -158h-679l-81 -468h590zM841 1561h-134l-199 266h204z" />
<glyph unicode="&#x401;" d="M959 673h-589l-90 -516h688l-28 -157h-868l253 1456h860l-28 -158h-679l-81 -468h590zM475 1716q0 46 29.5 76.5t76.5 32.5q46 1 77 -28.5t30 -76.5q-1 -46 -31 -76t-76 -32q-47 -1 -77 28t-29 76zM891 1714q1 46 30.5 77t76.5 33q47 1 77 -28.5t30 -77.5q-1 -46 -31 -76 t-77 -32q-46 -1 -76 28t-30 76z" />
<glyph unicode="&#x402;" d="M1175 1304h-496l-85 -456q29 2 56.5 4t56.5 1q100 -1 173.5 -36t120.5 -95.5t66.5 -142.5t11.5 -177q-9 -99 -43.5 -175.5t-92 -129t-136.5 -80.5t-176 -30l13 145q61 2 106 23.5t75.5 57.5t48 85t23.5 106t-1 108t-30 90t-64.5 62.5t-105.5 25.5q-30 2 -60 0.5t-59 -3.5 l-124 -687h-180l226 1304h-337l27 152h1013z" />
<glyph unicode="&#x403;" d="M1162 1304h-683l-226 -1304h-182l253 1456h865zM903 1824h231l-302 -266h-150z" />
<glyph unicode="&#x404;" d="M1060 441q-19 -103 -64.5 -189t-114.5 -147.5t-159.5 -94.5t-198.5 -30q-81 2 -144.5 27t-111 67t-79.5 98.5t-49.5 122t-21 136t5.5 141.5l49 313q12 76 36 150t60 140.5t84 122.5t108.5 96.5t133.5 62.5t158 20q106 -2 184.5 -37.5t130 -97.5t77 -147t27.5 -185h-180 q-2 64 -14 120.5t-40.5 99.5t-75.5 69t-118 28q-91 2 -158.5 -37.5t-115 -103.5t-75.5 -143t-40 -156l-12 -75h554l-27 -152h-552l-14 -89q-6 -44 -7 -93.5t5 -97.5t22 -92t43 -78.5t68 -55.5t98 -23q76 -3 134 19t101 63.5t72 99t47 125.5z" />
<glyph unicode="&#x405;" d="M871 376q7 61 -15 104.5t-60.5 75t-88 53.5t-96.5 40q-71 27 -141 64t-124.5 87.5t-86.5 117t-27 153.5q6 95 52 171t117.5 129t159.5 80t177 25q94 -2 173 -36t135.5 -92.5t87.5 -138t28 -173.5h-184q-3 58 -18.5 108.5t-46 88.5t-76 60.5t-108.5 24.5q-54 1 -107 -15.5 t-96 -48t-71.5 -77t-34.5 -103.5t16.5 -99t61 -70.5t86 -50.5t92.5 -37q74 -27 145.5 -65.5t126.5 -91.5t86.5 -122.5t25.5 -159.5q-7 -98 -55 -173.5t-121 -126t-163 -75.5t-180 -23q-96 1 -179.5 33.5t-146 90t-97.5 138.5t-33 179h183q3 -63 23.5 -114.5t56 -88.5 t86 -58.5t114.5 -22.5q56 -1 111 13.5t100 44.5t75 75.5t37 105.5z" />
<glyph unicode="&#x406;" d="M317 1456h855l-29 -161h-338l-197 -1135h339l-28 -160h-855l28 160h331l197 1135h-332z" />
<glyph unicode="&#x407;" d="M317 1456h855l-29 -161h-338l-197 -1135h339l-28 -160h-855l28 160h331l197 1135h-332zM425 1716q0 46 29.5 76.5t76.5 32.5q46 1 77 -28.5t30 -76.5q-1 -46 -31 -76t-76 -32q-47 -1 -77 28t-29 76zM841 1714q1 46 30.5 77t76.5 33q47 1 77 -28.5t30 -77.5 q-1 -46 -31 -76t-77 -32q-46 -1 -76 28t-30 76z" />
<glyph unicode="&#x408;" d="M979 1456h185l-173 -1013q-15 -99 -61 -184t-115.5 -148t-159.5 -98t-192 -33q-97 2 -171 36.5t-124.5 94t-77 139.5t-27.5 172l182 -1q-2 -56 11 -106.5t41 -89.5t72 -63t106 -25q66 -2 121.5 22.5t98.5 67t71.5 98.5t39.5 118z" />
<glyph unicode="&#x409;" d="M874 1456l-99 -569l75 -2q86 -4 141.5 -45t86 -103.5t39.5 -138.5t2 -148q-5 -56 -19 -111.5t-37.5 -106t-56 -93.5t-75 -74t-95 -48.5t-115.5 -16.5h-280l226 1304h-189l-94 -532q-9 -57 -20.5 -137t-30 -166.5t-47 -171t-71.5 -151.5t-104 -107.5t-144 -38.5h-37 l17 150l19 -1q37 0 66 21.5t51.5 58.5t39.5 85.5t29.5 101t21 107t14.5 102.5t10.5 86.5t7.5 60.5l119 684h549zM749 735l-101 -585l78 -1q57 1 95 31.5t62.5 75.5t37.5 97.5t18 98.5q2 20 4.5 48t2.5 58.5t-4.5 60.5t-15.5 54.5t-30 40.5t-49 19z" />
<glyph unicode="&#x40a;" d="M345 825h241l110 631h180l-113 -619h42q86 -2 145 -37t94 -91.5t47.5 -128.5t5.5 -149q-8 -88 -38.5 -167t-83 -138t-126 -93.5t-167.5 -32.5h-238l117 673h-242l-117 -673h-180l253 1456h180zM747 687l-98 -528l42 -1q57 1 97.5 26t67.5 63.5t42 87t21 98.5q4 38 3.5 81 t-13 80t-39.5 63t-75 29z" />
<glyph unicode="&#x40b;" d="M1178 1304h-475l-84 -453q25 4 49.5 6t49.5 1q93 -1 163 -29.5t114.5 -80t62.5 -125.5t8 -166l-75 -457h-181l75 458q6 54 1.5 99t-24.5 77t-57 51t-96 21q-27 1 -53.5 -0.5t-52.5 -3.5l-126 -702h-181l226 1304h-336l27 152h992z" />
<glyph unicode="&#x40c;" d="M528 674l-197 -191l-84 -483h-185l253 1456h185l-123 -700l158 165l507 535h234l-614 -646l381 -810h-207zM898 1806h231l-302 -266h-150z" />
<glyph unicode="&#x40d;" d="M998 1456h186l-253 -1456h-181l186 1059l-698 -1059h-185l252 1456h181l-185 -1059zM827 1549h-134l-199 266h204z" />
<glyph unicode="&#x40e;" d="M568 751l33 -181l503 886h219l-728 -1217q-33 -59 -72.5 -107.5t-87.5 -83t-106.5 -53t-129.5 -17.5q-51 1 -100.5 10.5t-97.5 26.5l38 139q35 -10 72.5 -18t74.5 -9q42 0 77 12t64 33t53 50t45 62l62 96l-292 1076h193zM1128 1866q-6 -63 -31.5 -113t-66.5 -84.5 t-94.5 -52.5t-116.5 -17q-61 1 -110.5 20.5t-85 54t-54.5 83.5t-18 110l146 -1q-1 -32 5 -59t21 -47t38.5 -31.5t58.5 -11.5t62.5 11t48 31t33.5 47t19 59z" />
<glyph unicode="&#x40f;" d="M305 1456h181l-226 -1305h516l227 1305h181l-253 -1456h-344l-63 -359h-181l63 359h-353z" />
<glyph unicode="&#x410;" d="M807 377h-469l-180 -377h-188l709 1456h152l195 -1456h-173zM413 538h375l-76 630z" />
<glyph unicode="&#x411;" d="M1144 1304h-683l-78 -447l245 -1q94 -3 173 -31t134.5 -80.5t83 -129t19.5 -175.5q-9 -108 -55.5 -190.5t-118.5 -138.5t-165 -84t-196 -27h-450l253 1456h865zM357 706l-96 -555l246 -2q68 0 128 20t106 58t76 92.5t39 123.5q7 60 -5.5 107.5t-43 81t-77 52.5t-105.5 21 z" />
<glyph unicode="&#x412;" d="M62 0l253 1456l409 -1q84 -3 160.5 -27.5t134 -72t88.5 -117t23 -162.5q-5 -61 -28.5 -109.5t-60 -86.5t-84 -67.5t-99.5 -51.5q52 -20 90 -54.5t63 -78t35.5 -94.5t6.5 -105q-7 -103 -54 -183t-119.5 -135t-164.5 -83t-188 -28h-465zM362 681l-91 -524l266 -2 q61 1 117.5 20t102.5 53.5t76.5 84.5t38.5 113q7 54 -5.5 99.5t-40.5 79t-70.5 53t-96.5 22.5zM389 835l240 -2q55 1 109 17t98 47t74 76t37 104q7 54 -8.5 94.5t-46.5 67.5t-74.5 41.5t-92.5 16.5l-256 1z" />
<glyph unicode="&#x413;" d="M1162 1304h-683l-226 -1304h-182l253 1456h865z" />
<glyph unicode="&#x414;" d="M928 -357h-164l62 357h-682l-63 -359h-153l56 510l62 -1q58 36 102 86.5t76 110t55 126.5t39.5 135t29.5 135t25 128l132 585h631l-226 -1305h123zM556 871q-19 -92 -39.5 -188.5t-50 -190.5t-71.5 -181.5t-103 -162.5l437 3l200 1153h-277z" />
<glyph unicode="&#x415;" d="M959 673h-589l-90 -516h688l-28 -157h-868l253 1456h860l-28 -158h-679l-81 -468h590z" />
<glyph unicode="&#x416;" d="M754 651l-53 1l-117 -652h-178l117 652h-57l-315 -652h-231l393 738l-96 718h204l53 -653l67 -1l117 654h179l-118 -654h58l284 654h217l-357 -738l134 -718h-212z" />
<glyph unicode="&#x417;" d="M625 817q63 0 123 14.5t109 45t82 79.5t41 118q7 63 -12 110t-56.5 78.5t-89.5 47t-110 16.5q-59 1 -115 -15.5t-102 -48.5t-78 -79t-44 -107l-180 -1q10 99 59 174.5t121.5 126.5t163 76t183.5 24q93 -2 177 -27t146 -75t95 -125.5t24 -178.5q-5 -62 -30.5 -112 t-65 -90.5t-89 -71.5t-102.5 -54q103 -45 151.5 -130.5t40.5 -197.5t-61 -194.5t-133.5 -137t-180.5 -80t-202 -23.5q-96 2 -178.5 31t-142 83t-91.5 132.5t-27 179.5l180 -1q-4 -62 14.5 -111.5t54.5 -85.5t86.5 -56t111.5 -21q66 -2 132 14.5t120 52t90.5 88.5t45.5 125 q9 68 -8.5 115.5t-54.5 78t-89.5 45t-113.5 16.5l-190 1l27 152z" />
<glyph unicode="&#x418;" d="M998 1456h186l-253 -1456h-181l186 1059l-698 -1059h-185l252 1456h181l-185 -1059z" />
<glyph unicode="&#x419;" d="M998 1456h186l-253 -1456h-181l186 1059l-698 -1059h-185l252 1456h181l-185 -1059zM1087 1854q-6 -63 -31.5 -113t-66.5 -84.5t-94.5 -52.5t-116.5 -17q-61 1 -110.5 20.5t-85 54t-54.5 83.5t-18 110l146 -1q-1 -32 5 -59t21 -47t38.5 -31.5t58.5 -11.5t62.5 11t48 31 t33.5 47t19 59z" />
<glyph unicode="&#x41a;" d="M526 659h-171l-115 -659h-181l253 1456h181l-113 -646h144l542 646h220l-611 -715l385 -741h-208z" />
<glyph unicode="&#x41b;" d="M1184 1456l-252 -1456h-181l226 1304h-406l-110 -623q-11 -67 -25 -143.5t-36 -152.5t-54.5 -146t-80 -123.5t-112.5 -85t-152 -30.5h-55l17 150l36 -1q57 0 98.5 28.5t71 74.5t48 104t31 117.5t19.5 114t13 93.5l138 775h766z" />
<glyph unicode="&#x41c;" d="M511 1456l103 -726l374 726h228l-252 -1456h-176l102 590l116 582l-389 -767h-105l-107 772l-91 -605l-99 -572h-176l253 1456h219z" />
<glyph unicode="&#x41d;" d="M951 0h-171l117 673h-578l-117 -673h-170l253 1456h170l-109 -626h578l109 626h171z" />
<glyph unicode="&#x41e;" d="M1097 645q-13 -77 -36.5 -156.5t-59 -154t-83.5 -140.5t-109.5 -114t-137 -75t-165.5 -25q-86 2 -151.5 32.5t-112.5 80.5t-77 116t-45 139t-16.5 149t8.5 147l26 166q13 77 36.5 156.5t59 154t84 140.5t110 114.5t137 75.5t165.5 25q87 -2 152.5 -32.5t112.5 -80.5 t76.5 -116t44 -139.5t16 -150t-8.5 -147.5zM944 814q6 46 9.5 100t-1 108.5t-18.5 106t-41.5 91.5t-70 65t-104.5 27q-65 2 -117.5 -19.5t-94 -60t-73 -89t-54.5 -107t-38 -114.5t-24 -110l-28 -169q-6 -45 -9 -99t2 -109t19 -107t42 -92.5t70.5 -66t104.5 -27.5 q65 -2 118 19.5t94 60t72 89.5t53.5 107.5t37.5 114.5t24 111z" />
<glyph unicode="&#x41f;" d="M931 0h-181l226 1304h-516l-227 -1304h-180l252 1456h878z" />
<glyph unicode="&#x420;" d="M363 584l-102 -584h-180l252 1456l447 -1q92 -3 169.5 -34.5t132 -87.5t82 -133.5t19.5 -172.5q-9 -105 -55 -187.5t-118.5 -139.5t-165 -87t-192.5 -30zM389 736l268 -2q66 0 125 20.5t105.5 58t77 91.5t38.5 121q7 57 -5.5 106.5t-42 86.5t-75 59.5t-104.5 25.5l-288 1 z" />
<glyph unicode="&#x421;" d="M1046 440q-20 -99 -66 -184.5t-114.5 -147.5t-157 -96.5t-193.5 -31.5q-86 2 -152.5 30.5t-115 76t-79.5 110.5t-47.5 134t-18.5 146.5t8 148.5l32 203q13 79 37.5 158t61 151.5t85.5 135t111.5 108t138.5 71t167 23.5q103 -2 179 -39.5t127 -100.5t77.5 -147t30.5 -180 h-179q-3 60 -16 116t-41.5 100t-74 71.5t-113.5 29.5q-66 2 -119.5 -19t-96 -57.5t-74 -86.5t-55 -105.5t-39 -114t-24.5 -112.5l-34 -206q-7 -47 -10 -101.5t2 -108.5t19.5 -104.5t42.5 -90t72 -64t107 -26.5q72 -3 128.5 21t99.5 66t72.5 99t47.5 121z" />
<glyph unicode="&#x422;" d="M1243 1298h-436l-225 -1298h-176l225 1298h-437l28 158h1049z" />
<glyph unicode="&#x423;" d="M568 751l33 -181l503 886h219l-728 -1217q-33 -59 -72.5 -107.5t-87.5 -83t-106.5 -53t-129.5 -17.5q-51 1 -100.5 10.5t-97.5 26.5l38 139q35 -10 72.5 -18t74.5 -9q42 0 77 12t64 33t53 50t45 62l62 96l-292 1076h193z" />
<glyph unicode="&#x424;" d="M794 1248q97 -13 167.5 -61t114.5 -118.5t61.5 -157.5t8.5 -178q-11 -108 -53.5 -202t-110.5 -165.5t-159.5 -116t-200.5 -53.5l-40 -196h-180l39 198q-98 12 -168.5 60t-114.5 119t-61 158.5t-8 179.5q11 108 53 202t110.5 165t160 115.5t200.5 52.5l42 206h180z M267 715q-7 -59 -3.5 -119t24.5 -111t61.5 -88t108.5 -49l137 753q-75 -10 -132.5 -45t-98 -87t-64.5 -117.5t-33 -136.5zM966 733q7 58 3.5 117.5t-24 110t-61 87.5t-106.5 50l-137 -753q75 10 132 45.5t97 88t63.5 118t32.5 136.5z" />
<glyph unicode="&#x425;" d="M646 886l393 570h223l-530 -731l302 -725h-201l-220 581l-404 -581h-224l543 743l-294 713h201z" />
<glyph unicode="&#x426;" d="M309 1456h181l-227 -1305h504l227 1305h181l-226 -1300h143l-105 -507h-163l61 351h-828z" />
<glyph unicode="&#x427;" d="M1181 1456l-253 -1456h-181l111 604q-71 -26 -143.5 -39.5t-148.5 -12.5q-101 1 -168.5 36.5t-106.5 96t-51 141.5t-1 174l75 456h181l-75 -457q-6 -52 -6.5 -103.5t14.5 -93t49.5 -68t98.5 -28.5q77 -3 151 13t147 37l126 700h181z" />
<glyph unicode="&#x428;" d="M450 1456l-226 -1305h205l227 1305h179l-226 -1305h205l227 1305h179l-252 -1456h-951l252 1456h181z" />
<glyph unicode="&#x429;" d="M450 1456l-226 -1305h205l227 1305h179l-226 -1305h144v1h61l227 1304h179l-226 -1304h88l-105 -503h-162l61 351h-859l252 1456h181z" />
<glyph unicode="&#x42a;" d="M197 1456h476l-104 -599l127 -1q93 -3 168.5 -32.5t126.5 -83t75 -129.5t16 -171q-9 -104 -52 -186t-111 -139t-157 -86.5t-190 -28.5h-332l226 1304h-296zM543 706l-96 -555l129 -2q67 0 123 21.5t98 60t68.5 92.5t34.5 120q7 55 -3 102.5t-36 82t-68 55t-100 22.5z" />
<glyph unicode="&#x42b;" d="M359 856l82 -1q89 -3 152.5 -37t102.5 -90.5t53.5 -131t7.5 -156.5q-9 -93 -42 -173.5t-89 -140.5t-134 -94t-176 -32h-281l253 1456h175zM963 0h-181l253 1456h181zM338 706l-96 -556l79 -1q61 1 106 26.5t76 66.5t48.5 93.5t23.5 106.5q5 42 3.5 87t-15.5 83t-44 63.5 t-81 28.5z" />
<glyph unicode="&#x42c;" d="M388 857l245 -1q94 -3 173 -31t134.5 -80.5t83 -129t19.5 -175.5q-9 -108 -55.5 -190.5t-118.5 -138.5t-165 -84t-196 -27h-450l253 1456h181zM362 706l-97 -555l247 -2q68 0 128 20t106 58t76 92.5t39 123.5q7 60 -5.5 107.5t-43 81t-77 52.5t-105.5 21z" />
<glyph unicode="&#x42d;" d="M266 465q-5 -62 3 -121t34 -105.5t72 -76t118 -31.5q90 -3 158.5 35t117 100t78.5 140t42 155l14 90h-470l27 151h468l14 94q9 68 4.5 143t-30 138t-77 105t-136.5 45q-77 3 -135.5 -24t-100.5 -73.5t-68 -108.5t-37 -130l-178 -2q12 103 55.5 193t113 156.5t161 104 t198.5 34.5q121 -3 205.5 -54t134.5 -132.5t67.5 -185t3.5 -211.5l-53 -332q-18 -115 -64 -221.5t-120 -187.5t-175 -128.5t-228 -44.5q-106 2 -184 41t-127.5 104.5t-71.5 153t-15 186.5h181z" />
<glyph unicode="&#x42e;" d="M1084 516q-9 -60 -23.5 -123.5t-38 -124t-56.5 -114t-77.5 -93t-103 -61.5t-132.5 -20q-69 2 -116.5 28.5t-78.5 68.5t-47.5 96.5t-22.5 113t-4 117.5t9 111l19 122h-109l-111 -637h-181l253 1456h180l-116 -668h109l25 152q8 58 22 120.5t36 122.5t53 114.5t74 95 t99.5 63t128.5 20.5q70 -2 120 -27.5t83.5 -66.5t51.5 -95t25.5 -112.5t6 -119t-8.5 -115.5zM972 943q3 27 8 64.5t6.5 78.5t-2 82t-17 74t-39.5 54t-68 23q-45 2 -77 -16.5t-55 -50t-38 -72.5t-24.5 -83.5t-15 -83t-9.5 -71.5l-66 -428q-3 -24 -8 -60.5t-7.5 -77.5 t-0.5 -83t13 -76.5t34 -56.5t63 -24q47 -2 81.5 15.5t59 48.5t41 71.5t27 83.5t16.5 84.5t11 75.5z" />
<glyph unicode="&#x42f;" d="M746 0l106 607h-295l-401 -607h-203l454 662q-113 53 -169.5 147t-46.5 219q9 111 58.5 192t126 133.5t172.5 78t198 25.5l434 -1l-253 -1456h-181zM371 1030q-8 -62 7.5 -111t49.5 -83.5t83 -53.5t109 -21l258 -1l94 544l-230 2q-67 0 -130 -16t-114 -49.5t-84.5 -85.5 t-42.5 -125z" />
<glyph unicode="&#x430;" d="M764 0q-8 30 -8 59t3 59q-71 -63 -154.5 -101t-180.5 -36q-68 1 -128.5 23t-105 62t-69 97t-20.5 129q4 70 28.5 124t63.5 94.5t90 68.5t108.5 45.5t119 25t121.5 7.5l206 -1l13 86q6 51 -7.5 90t-41.5 66t-68.5 41t-89.5 15q-43 1 -84.5 -9t-76 -31t-59.5 -53.5 t-35 -77.5l-181 -1q9 82 53 142.5t108.5 100.5t141.5 59.5t151 18.5q82 -2 153 -26t121.5 -70.5t76.5 -113.5t17 -154l-84 -503q-9 -55 -9.5 -110t12.5 -109l-2 -17h-183zM459 140q96 -2 179 43.5t139 121.5l39 220l-155 1q-55 0 -117.5 -7t-117.5 -29t-94 -63t-47 -108 q-5 -43 6 -76t35 -55.5t58 -34.5t75 -13z" />
<glyph unicode="&#x431;" d="M678 1020q102 -2 176 -43.5t120.5 -109t65.5 -154.5t11 -180l-3 -24q-12 -107 -54 -204t-111 -170t-162.5 -115.5t-207.5 -39.5q-110 2 -190.5 47t-131 117.5t-70.5 167t-9 195.5l3 23l1 7l9 69q11 88 32.5 175.5t54.5 169t79.5 154t107.5 130t139 98t174 58.5 q41 7 84.5 15.5t81.5 25t67 45t40 75.5l150 1q-9 -89 -42 -145t-84.5 -90t-118.5 -52.5t-145 -33.5q-84 -16 -151 -48.5t-119.5 -80.5t-92.5 -111.5t-71 -141.5q75 76 166.5 124t200.5 46zM635 869q-74 2 -133.5 -25.5t-102.5 -75t-69.5 -110t-35.5 -130.5l-3 -23 q-6 -63 0.5 -128.5t32 -119.5t73 -89.5t124.5 -37.5q79 -3 140 30t104 87t68.5 123t34.5 139l2 23q6 62 -3 122t-37 107t-76 76.5t-119 31.5z" />
<glyph unicode="&#x432;" d="M55 0l187 1082l401 -1q46 -1 93.5 -7t92.5 -19.5t84 -35t67 -53t43 -74.5t11 -99q-3 -47 -21 -84.5t-46.5 -66.5t-65.5 -51t-77 -38q40 -13 71 -36.5t52.5 -54t32 -68t8.5 -79.5q-3 -60 -22.5 -106.5t-51.5 -82t-74 -60t-90 -39.5t-100 -21.5t-104 -5.5h-491zM319 475 l-57 -326l288 -1q43 0 86.5 8.5t79.5 28.5t61.5 53t31.5 82q6 43 -8 72.5t-40 47t-61 25.5t-72 9zM344 623l224 -1q42 0 89 6t88.5 23t71 48t36.5 82q6 48 -12.5 77t-51 45t-73 21.5t-76.5 6.5l-242 1z" />
<glyph unicode="&#x433;" d="M1092 929h-676l-161 -929h-182l188 1082h858z" />
<glyph unicode="&#x434;" d="M66 149q48 3 84.5 34t64 78t46.5 105t32 116t21.5 109t15.5 85l85 406h677l-161 -931h135l-99 -469h-164l56 318h-731l-56 -318h-161l64 469zM511 676q-14 -68 -29 -138t-37 -138t-52 -132t-74 -120l431 3l132 760h-322z" />
<glyph unicode="&#x435;" d="M540 -20q-110 2 -193.5 45t-137.5 114t-77.5 164t-14.5 197l5 43q8 71 31 140.5t59.5 132.5t85 116t108 91.5t129 59.5t146.5 19q112 -3 189 -48.5t122 -119.5t60 -168.5t2 -194.5l-13 -83h-745q-8 -66 4.5 -129t44.5 -113t85 -81t126 -33q94 -3 173.5 37t143.5 106 l104 -88q-37 -52 -86.5 -91.5t-106.5 -65.5t-119 -38.5t-125 -11.5zM672 950q-70 3 -126 -23.5t-99.5 -70.5t-75.5 -101t-53 -115l564 -2l4 18q9 55 -1 107t-38 93t-72 66.5t-103 27.5z" />
<glyph unicode="&#x436;" d="M718 470l-58 1l-85 -471h-181l87 471h-54l-293 -471h-227l393 573l-161 509h199l104 -448l58 -1l82 449h181l-83 -449h54l265 449h218l-354 -529l188 -553h-204z" />
<glyph unicode="&#x437;" d="M612 629q42 0 89.5 6.5t88.5 24.5t70 50t36 83q6 46 -15 76.5t-55.5 48.5t-76.5 26t-77 8q-44 1 -93.5 -7.5t-93.5 -29t-77 -53.5t-45 -81l-181 -1q10 89 59.5 151t120.5 100t154.5 54.5t161.5 15.5q47 -1 96 -8t94.5 -22t85.5 -39t69 -57.5t44 -78t11 -101.5 q-3 -48 -24.5 -86t-54 -67.5t-73 -51.5t-80.5 -39q79 -30 125 -91t42 -148q-3 -62 -26.5 -111t-61.5 -86t-87 -63t-103.5 -42t-111 -23t-108.5 -6q-79 1 -157.5 20.5t-140.5 60.5t-100 105t-36 154l178 -1q-2 -52 22.5 -88t63 -58.5t85 -33.5t90.5 -12t95.5 8t97 30.5t79 57 t40.5 87.5t-12.5 83.5t-53.5 48.5t-76.5 23t-82.5 7l-246 1l27 156z" />
<glyph unicode="&#x438;" d="M929 1082h187l-188 -1082h-181l137 786l-642 -786h-187l188 1082h180l-137 -787z" />
<glyph unicode="&#x439;" d="M929 1082h187l-188 -1082h-181l137 786l-642 -786h-187l188 1082h180l-137 -787zM1025 1523q-6 -63 -31.5 -113t-66.5 -84.5t-94.5 -52.5t-116.5 -17q-61 1 -110.5 20.5t-85 54t-54.5 83.5t-18 110l146 -1q-1 -32 5 -59t21 -47t38.5 -31.5t58.5 -11.5t62.5 11t48 31 t33.5 47t19 59z" />
<glyph unicode="&#x43a;" d="M493 461h-177l-81 -461h-181l188 1082h181l-80 -458h147l470 458h235l-550 -530l382 -552h-213z" />
<glyph unicode="&#x43b;" d="M1115 1082l-188 -1082h-182l162 929h-385l-54 -310q-11 -68 -25 -141t-36.5 -142t-55 -130t-79.5 -107t-111 -73t-149 -26h-58l22 164h38q56 0 96.5 22.5t69 59t46.5 83.5t30 97.5t19 100.5t13 92l79 463h748z" />
<glyph unicode="&#x43c;" d="M521 248l368 834h229l-188 -1082h-181l114 651l-315 -651h-125l-92 698l-122 -698h-181l188 1082h230z" />
<glyph unicode="&#x43d;" d="M928 0h-181l81 462h-511l-81 -462h-181l188 1082h181l-82 -469h511l82 469h181z" />
<glyph unicode="&#x43e;" d="M110 544q9 73 31.5 143.5t57.5 133t82.5 115t106 90t128 58t149.5 18.5q114 -3 194.5 -50.5t129.5 -124t67.5 -174t7.5 -199.5l-2 -23q-14 -109 -58.5 -210t-115.5 -177.5t-167.5 -121.5t-214.5 -42q-113 3 -193.5 49.5t-129.5 122.5t-68 172t-8 198zM288 522 q-5 -42 -4.5 -87t8 -88t23.5 -82t43 -68.5t65.5 -47.5t90.5 -20q83 -3 147 33t109.5 94t72.5 130.5t38 144.5l2 22q7 63 2.5 132t-29.5 127.5t-73 97t-126 41.5q-84 3 -148 -33.5t-109 -95.5t-72 -132.5t-37 -145.5z" />
<glyph unicode="&#x43f;" d="M928 0h-181l161 929h-510l-162 -929h-181l188 1082h873z" />
<glyph unicode="&#x440;" d="M1043 536q-12 -100 -47.5 -200.5t-96 -180.5t-147.5 -129t-202 -47q-82 2 -155 31.5t-126 94.5l-97 -521h-181l260 1498l164 1l-19 -119q63 69 141.5 104.5t173.5 33.5q74 -2 129 -26t94.5 -64.5t64 -93.5t37 -113t14.5 -123.5t-5 -124.5zM864 557q7 61 3.5 128.5 t-26.5 124.5t-69 95t-124 40q-85 2 -150 -39.5t-115 -107.5l-91 -523q60 -140 213 -145q84 -2 146.5 34t106 95t69 132t35.5 145z" />
<glyph unicode="&#x441;" d="M533 129q49 -1 97 13.5t87.5 42t67.5 67t39 88.5l171 1q-9 -83 -54 -150.5t-111 -115t-146 -73t-159 -23.5q-114 3 -194 49t-129 120.5t-67 170.5t-8 198l5 43q9 73 32 142t58.5 130t83 111.5t106.5 86.5t128 55t147 17q84 -2 155 -32t121.5 -81.5t77.5 -123t23 -156.5 l-170 1q2 50 -12 93t-42.5 75.5t-69.5 51.5t-93 21q-83 3 -146.5 -30.5t-108.5 -89.5t-72.5 -127t-37.5 -144l-5 -42q-5 -43 -5 -88t7.5 -87.5t23.5 -81t43 -67t65.5 -46.5t91.5 -19z" />
<glyph unicode="&#x442;" d="M1171 932h-419l-162 -932h-181l161 932h-412l26 150h1013z" />
<glyph unicode="&#x443;" d="M516 375l21 -120l464 827h211l-748 -1250q-30 -52 -68 -101t-84.5 -87.5t-102 -61t-120.5 -22.5q-29 0 -58.5 5.5t-58.5 10.5l41 153q22 -2 44 -5t43 -3q39 1 72 19t60 45t49 59.5t41 61.5l103 156l-271 1020h193z" />
<glyph unicode="&#x444;" d="M110 545q13 102 49.5 193.5t96 164.5t142 123t187.5 68l82 442h180l-82 -444q93 -23 154.5 -77.5t97 -128t46 -160t1.5 -172.5l-2 -23q-13 -102 -50 -193t-97.5 -163t-143 -121t-187.5 -66l-76 -404h-180l76 407q-91 23 -152 77t-96.5 126.5t-46.5 157.5t-2 170zM883 553 q7 52 6.5 109t-14 109.5t-43.5 96t-84 67.5l-148 -795q64 23 112 63t82.5 91.5t55.5 112.5t30 125zM288 522q-6 -51 -6 -107t13 -108t42.5 -94.5t82.5 -67.5l148 793q-64 -24 -112 -64.5t-81.5 -92t-54 -112.5t-29.5 -125z" />
<glyph unicode="&#x445;" d="M609 682l343 400h224l-483 -543l312 -539h-196l-226 411l-354 -411h-223l495 555l-303 527h197z" />
<glyph unicode="&#x446;" d="M248 1082h181l-162 -931h482l162 931h182l-162 -931h126l-100 -472h-163l56 321h-790z" />
<glyph unicode="&#x447;" d="M928 0h-181l75 396q-143 -38 -288 -35q-92 1 -164.5 30t-120 81.5t-69 127t-11.5 167.5l51 315h181l-52 -316q-6 -55 1 -100.5t30.5 -78.5t63 -52t97.5 -21q75 -2 149 7.5t148 24.5l97 536h181z" />
<glyph unicode="&#x448;" d="M389 1082l-162 -931h201l162 931h181l-162 -931h200l162 931h181l-188 -1082h-943l188 1082h180z" />
<glyph unicode="&#x449;" d="M378 1082l-162 -931h201l162 931h181l-162 -931h149v1h51l162 930h181l-162 -930h86l-100 -473h-162l56 321h-849l188 1082h180z" />
<glyph unicode="&#x44a;" d="M139 1082h471l-71 -410l181 -1q73 -2 137.5 -23.5t112 -62t73.5 -100t21 -138.5q-6 -87 -44.5 -152.5t-99 -109t-136.5 -65t-156 -20.5h-386l161 930h-291zM513 521l-64 -370l183 -1q45 0 87.5 12t76.5 35t57 59t29 84q5 41 -5 73.5t-32.5 55.5t-55 36t-72.5 15z" />
<glyph unicode="&#x44b;" d="M327 671l89 -1q71 -2 129 -25.5t98.5 -65.5t60.5 -100.5t15 -131.5q-5 -81 -38 -146t-86 -110t-123 -68.5t-149 -22.5h-288l189 1082h174zM951 0h-181l188 1082h181zM307 521l-65 -370l85 -1q87 2 142.5 53.5t66.5 136.5q4 34 -0.5 65.5t-19 56.5t-40.5 40.5t-63 17.5z " />
<glyph unicode="&#x44c;" d="M353 672l308 -2q73 -2 138.5 -22.5t114 -61t75 -100t21.5 -139.5q-6 -88 -45 -153.5t-100.5 -108.5t-138 -64.5t-157.5 -20.5h-513l187 1082h181zM327 521l-65 -370l311 -1q45 0 88 11.5t78 35t59 59t30 84.5q6 42 -5 75t-34.5 55.5t-57 35t-73.5 14.5z" />
<glyph unicode="&#x44d;" d="M619 951q-50 1 -98 -13t-88.5 -42t-69 -67.5t-39.5 -89.5l-171 -1q9 84 54.5 152t112 115.5t146.5 73t160 23.5q115 -2 198 -46.5t135 -118.5t72 -170t10 -202l-5 -43q-14 -113 -60 -213t-120.5 -174t-173.5 -116t-218 -39q-85 2 -156.5 31.5t-122.5 81t-78 122.5 t-23 157l170 -1q-3 -50 11.5 -93.5t43.5 -76t70.5 -51.5t93.5 -20q79 -3 141 25t108 76t78 112t52 133l-422 -1l27 152h410q4 63 -8 121t-42 102.5t-79.5 71.5t-118.5 29z" />
<glyph unicode="&#x44e;" d="M294 623h117q13 53 31.5 109.5t43 110.5t57 102t75 83.5t95.5 56t119 18.5q70 -2 119.5 -29t82 -70.5t51 -99.5t26 -116.5t6.5 -121t-7 -113.5l-3 -22q-8 -58 -22.5 -122t-38 -126t-57 -118t-78.5 -98t-102.5 -65.5t-129.5 -21.5q-95 3 -154 51.5t-89.5 121.5t-38 158 t1.5 161l-131 -1l-82 -471h-181l188 1082h181zM584 524q-3 -25 -7.5 -63.5t-6 -82t2 -87t16.5 -79.5t37.5 -59t65.5 -25q45 -2 79 18.5t58.5 54.5t41.5 78t27.5 89.5t17 88t10.5 74.5l3 21q3 25 7 64t5.5 82.5t-2.5 88t-17 81t-38 59.5t-66 25q-45 2 -79 -19t-58 -55.5 t-40.5 -78.5t-27.5 -90t-17 -89t-10 -74z" />
<glyph unicode="&#x44f;" d="M1110 1082l-188 -1082h-181l74 421h-319l-323 -421h-207l352 453q-86 42 -126 120t-34 171q6 88 47 152t103.5 105.5t140 61.5t156.5 20zM339 742q-5 -39 4.5 -69.5t31 -51.5t52.5 -33t68 -14l346 -1l62 359l-303 1q-44 -1 -88 -12.5t-80 -35t-61 -59t-32 -84.5z" />
<glyph unicode="&#x450;" d="M540 -20q-110 2 -193.5 45t-137.5 114t-77.5 164t-14.5 197l5 43q8 71 31 140.5t59.5 132.5t85 116t108 91.5t129 59.5t146.5 19q112 -3 189 -48.5t122 -119.5t60 -168.5t2 -194.5l-13 -83h-745q-8 -66 4.5 -129t44.5 -113t85 -81t126 -33q94 -3 173.5 37t143.5 106 l104 -88q-37 -52 -86.5 -91.5t-106.5 -65.5t-119 -38.5t-125 -11.5zM672 950q-70 3 -126 -23.5t-99.5 -70.5t-75.5 -101t-53 -115l564 -2l4 18q9 55 -1 107t-38 93t-72 66.5t-103 27.5zM787 1240h-134l-199 266h204z" />
<glyph unicode="&#x451;" d="M540 -20q-110 2 -193.5 45t-137.5 114t-77.5 164t-14.5 197l5 43q8 71 31 140.5t59.5 132.5t85 116t108 91.5t129 59.5t146.5 19q112 -3 189 -48.5t122 -119.5t60 -168.5t2 -194.5l-13 -83h-745q-8 -66 4.5 -129t44.5 -113t85 -81t126 -33q94 -3 173.5 37t143.5 106 l104 -88q-37 -52 -86.5 -91.5t-106.5 -65.5t-119 -38.5t-125 -11.5zM672 950q-70 3 -126 -23.5t-99.5 -70.5t-75.5 -101t-53 -115l564 -2l4 18q9 55 -1 107t-38 93t-72 66.5t-103 27.5zM421 1395q0 46 29.5 76.5t76.5 32.5q46 1 77 -28.5t30 -76.5q-1 -46 -31 -76t-76 -32 q-47 -1 -77 28t-29 76zM837 1393q1 46 30.5 77t76.5 33q47 1 77 -28.5t30 -77.5q-1 -46 -31 -76t-77 -32q-46 -1 -76 28t-30 76z" />
<glyph unicode="&#x452;" d="M701 1209h-259l-54 -289q33 40 71.5 74t82 58t92 37.5t102.5 12.5q92 -2 154 -37t98 -93t48 -133.5t3 -157.5l-38 -227h4l-90 -543q-10 -76 -37.5 -140.5t-73 -111.5t-109 -73.5t-144.5 -25.5q-32 1 -61.5 6t-59.5 14l30 147q24 -8 49.5 -12t51.5 -4q41 0 71 18 t50.5 46.5t32.5 64t18 71.5l15 89h-4l115 684q6 53 0 99.5t-28 82t-60.5 56t-97.5 22.5q-46 1 -87.5 -10.5t-79 -33t-71 -50.5t-61.5 -63l-137 -787h-181l210 1209h-184l27 151h183l31 176h181l-33 -176h257z" />
<glyph unicode="&#x453;" d="M1092 929h-676l-161 -929h-182l188 1082h858zM831 1481h231l-302 -266h-150z" />
<glyph unicode="&#x454;" d="M533 129q49 -1 97 13.5t87.5 42t67.5 67t39 88.5l171 1q-9 -83 -54 -150.5t-111 -115t-146 -73t-159 -23.5q-114 3 -194 49t-129 120.5t-67 170.5t-8 198l5 43q9 73 32 142t58.5 130t83 111.5t106.5 86.5t128 55t147 17q84 -2 155 -32t121.5 -81.5t77.5 -123t23 -156.5 l-170 1q2 50 -12 93t-42.5 75.5t-69.5 51.5t-93 21q-75 2 -134 -25.5t-103.5 -74.5t-73.5 -108t-44 -127h401l-27 -152h-394q-3 -60 6 -119t35.5 -106.5t72.5 -77.5t117 -32z" />
<glyph unicode="&#x455;" d="M818 294q6 46 -15 76t-55.5 49t-75.5 30.5t-74 19.5q-60 15 -125 37t-119 57t-87.5 87.5t-30.5 127.5q2 55 22.5 100.5t53.5 82t76.5 63.5t92 44.5t99 26t99.5 7.5q76 -2 146.5 -24t123.5 -64.5t84 -105t30 -145.5l-179 1q0 45 -17 79t-46.5 57.5t-68 35.5t-80.5 13 q-40 1 -82.5 -8t-79.5 -28.5t-63 -51t-32 -76.5t14.5 -73.5t53.5 -45.5t72.5 -27t72.5 -17q41 -10 85 -23t86 -31t79.5 -41.5t64.5 -55t42 -72.5t13 -92q-4 -87 -48 -150t-110 -102.5t-146 -58t-156 -16.5q-80 1 -154.5 24t-132.5 67.5t-92.5 110t-32.5 152.5l180 -1 q1 -52 20 -90t51 -62.5t75 -37t92 -12.5q40 -1 85 7t85 26.5t68.5 50.5t35.5 79z" />
<glyph unicode="&#x456;" d="M280 1082h538l-160 -922h343l-29 -160h-880l29 160h356l132 761h-357zM663 1363q1 48 31 79.5t78 33.5q24 1 43.5 -7t34 -22t22 -34t7.5 -44q0 -48 -30 -77.5t-78 -31.5q-47 -2 -77.5 26.5t-30.5 76.5z" />
<glyph unicode="&#x457;" d="M280 1082h538l-160 -922h343l-29 -160h-880l29 160h356l132 761h-357zM462 1373q0 46 29.5 76.5t76.5 32.5q46 1 77 -28.5t30 -76.5q-1 -46 -31 -76t-76 -32q-47 -1 -77 28t-29 76zM878 1371q1 46 30.5 77t76.5 33q47 1 77 -28.5t30 -77.5q-1 -46 -31 -76t-77 -32 q-46 -1 -76 28t-30 76z" />
<glyph unicode="&#x458;" d="M373 1082h531l-185 -1089q-14 -98 -52 -178t-98 -136.5t-141.5 -87t-182.5 -30.5q-54 0 -105.5 4.5t-104.5 12.5l26 154q45 -8 89.5 -11.5t89.5 -4.5q65 -1 116.5 19t88.5 56.5t60.5 87.5t32.5 113l158 929h-351zM748 1364q0 48 29.5 79t77.5 33q24 1 44 -6.5t34.5 -22 t22.5 -34t8 -43.5q-1 -48 -31 -78t-78 -32t-78 27t-29 77z" />
<glyph unicode="&#x459;" d="M837 1082l-74 -413l55 -1q71 -2 128.5 -26t97.5 -66t59.5 -100.5t15.5 -130.5q-5 -81 -38 -145.5t-86 -109t-122.5 -68t-147.5 -22.5h-256l161 929h-187l-53 -310q-9 -58 -20.5 -127t-30 -138.5t-46.5 -134.5t-69.5 -114.5t-99 -78.5t-135.5 -26h-49l19 154h27 q47 0 81 26t57.5 67t38 92t24 102.5t14.5 98.5t10 79l78 463h548zM745 519l-71 -372h57q43 1 79 17t62.5 43t43 62.5t21.5 77.5q9 70 -20.5 117.5t-103.5 52.5z" />
<glyph unicode="&#x45a;" d="M319 673h240l72 409h180l-72 -413l68 -2q70 -3 124.5 -27.5t91 -67t54 -100.5t13.5 -127q-5 -78 -35.5 -142t-80 -109.5t-115.5 -70t-144 -23.5h-272l90 522h-240l-91 -522h-181l188 1082h181zM713 518l-64 -369l70 -2q42 2 74.5 19t56.5 44t39 62.5t20 74.5q4 30 1 59.5 t-15 53.5t-34 39.5t-57 17.5z" />
<glyph unicode="&#x45b;" d="M752 1214h-302l-55 -294q33 40 71.5 74t82 58t92 37.5t102.5 12.5q92 -2 154 -37t98 -93t48 -133.5t3 -157.5l-114 -681h-181l115 684q6 53 0 99.5t-28 82t-60.5 56t-97.5 22.5q-46 1 -87.5 -10.5t-79 -33t-71 -50.5t-61.5 -63l-137 -787h-181l211 1214h-141l27 151h140 l30 171h181l-32 -171h300z" />
<glyph unicode="&#x45c;" d="M493 461h-177l-81 -461h-181l188 1082h181l-80 -458h147l470 458h235l-550 -530l382 -552h-213zM757 1481h231l-302 -266h-150z" />
<glyph unicode="&#x45d;" d="M929 1082h187l-188 -1082h-181l137 786l-642 -786h-187l188 1082h180l-137 -787zM765 1218h-134l-199 266h204z" />
<glyph unicode="&#x45e;" d="M516 375l21 -120l464 827h211l-748 -1250q-30 -52 -68 -101t-84.5 -87.5t-102 -61t-120.5 -22.5q-29 0 -58.5 5.5t-58.5 10.5l41 153q22 -2 44 -5t43 -3q39 1 72 19t60 45t49 59.5t41 61.5l103 156l-271 1020h193zM1056 1524q-6 -63 -31.5 -113t-66.5 -84.5t-94.5 -52.5 t-116.5 -17q-61 1 -110.5 20.5t-85 54t-54.5 83.5t-18 110l146 -1q-1 -32 5 -59t21 -47t38.5 -31.5t58.5 -11.5t62.5 11t48 31t33.5 47t19 59z" />
<glyph unicode="&#x45f;" d="M424 1082l-162 -931h511l162 931h181l-188 -1082h-343l-62 -356h-181l62 356h-348l187 1082h181z" />
<glyph unicode="&#x460;" d="M1265 1456l-192 -1136q-9 -69 -33.5 -131t-65.5 -109.5t-99 -74.5t-134 -25q-74 2 -126.5 38.5t-73.5 107.5q-21 -32 -45.5 -59.5t-53.5 -47t-63.5 -30t-74.5 -9.5q-71 1 -120.5 30t-79 76.5t-40.5 108t-5 123.5l194 1138h179l-190 -1139q-2 -23 -2.5 -54.5t6 -60.5 t24 -50t50.5 -22q38 -2 65 16t45 46.5t28.5 62.5t14.5 64l193 1137h187l-193 -1139q-3 -27 -1.5 -59.5t11 -61t30.5 -48t58 -19.5q36 0 60 19t39.5 48t23.5 62t12 61l192 1137h180z" />
<glyph unicode="&#x461;" d="M1197 1083l-129 -766q-9 -69 -34 -131.5t-66.5 -109t-99.5 -73t-134 -24.5q-73 2 -126.5 39t-75.5 107q-21 -33 -45.5 -60t-54 -46.5t-64 -30t-74.5 -9.5q-71 1 -121 30t-80 75.5t-41 106.5t-5 123l130 769h180l-127 -768q-2 -24 -2.5 -55.5t6.5 -60t24.5 -49t51.5 -21.5 q37 -2 64.5 15.5t45.5 45t28.5 61t15.5 64.5l129 768h186l-126 -768q-3 -27 -1.5 -59.5t11 -60.5t30.5 -47t57 -19q36 -1 60.5 17.5t40 47t24.5 61t13 60.5l128 768h181z" />
<glyph unicode="&#x462;" d="M663 1104h-232l-43 -247l245 -1q94 -3 173 -31t134.5 -80.5t83 -129t19.5 -175.5q-9 -108 -55.5 -190.5t-118.5 -138.5t-165 -84t-196 -27h-450l192 1104h-206l27 151h205l35 201h181l-35 -201h233zM362 706l-97 -555l247 -2q68 0 128 20t106 58t76 92.5t39 123.5 q7 60 -5.5 107.5t-43 81t-77 52.5t-105.5 21z" />
<glyph unicode="&#x463;" d="M788 1076h-312l-70 -404l254 -1q73 -2 138 -23.5t113 -62t74 -100t21 -138.5q-6 -87 -45 -152.5t-99.5 -109t-137 -65t-156.5 -20.5h-459l187 1076h-187l27 152h186l58 332h180l-58 -332h313zM380 521l-64 -370l256 -2q45 1 87.5 12.5t77 35t58 59.5t29.5 84 q6 42 -4.5 74.5t-33.5 55.5t-56 35.5t-73 14.5z" />
<glyph unicode="&#x464;" d="M340 832h145l15 99q9 59 24 123.5t39.5 125.5t58 116t79 96t104 64t132.5 21q57 -2 100.5 -20.5t75 -49t51.5 -71t32 -87t16.5 -96t4.5 -97.5l-163 1q1 37 -1 82.5t-14 86.5t-39 69.5t-77 30.5q-46 2 -80.5 -17t-60 -52t-42.5 -75.5t-29 -87t-19 -87t-12 -74.5l-15 -101 h275l-27 -151h-273l-24 -156q-3 -25 -7.5 -63.5t-5.5 -81.5t3 -87t17 -79.5t38 -58.5t66 -25q54 -3 90 22t59.5 64.5t37 86.5t23.5 89l161 1q-14 -75 -42.5 -150t-75 -134.5t-112 -95.5t-153.5 -33q-70 2 -120 28.5t-83.5 69.5t-52 98t-26.5 115t-6.5 120.5t8.5 114.5 l24 155h-144l-119 -681h-179l252 1456h180z" />
<glyph unicode="&#x465;" d="M915 464h-287q-3 -23 -5.5 -56.5t-2 -70.5t6.5 -74t19.5 -67t37 -49t60.5 -19q36 0 62.5 16t45.5 41.5t31.5 56.5t18.5 61l169 1q-6 -64 -34 -123.5t-73 -104.5t-103.5 -72t-126.5 -25q-63 1 -110.5 23.5t-81.5 59.5t-55 85.5t-31 102t-10.5 109t6.5 106.5l-145 -1 l-80 -464h-181l188 1082h181l-82 -467h131q12 55 29.5 113t42 112.5t57.5 103.5t76.5 84.5t97.5 55.5t122 18q72 -3 123.5 -34.5t84 -81.5t46 -113t10.5 -127l-171 1q1 28 -1 63t-13 65.5t-33 52t-60 23.5q-40 2 -70.5 -14t-54.5 -44t-41 -64t-29.5 -74t-21 -75t-14.5 -65 h298z" />
<glyph unicode="&#x466;" d="M819 440h-159l-77 -440h-180l77 440h-139l-220 -440h-192l744 1456h156l230 -1456h-177zM420 601h375l-84 585z" />
<glyph unicode="&#x467;" d="M768 297h-127l-52 -297h-181l53 297h-126l-167 -297h-193l627 1082h155l254 -1082h-177zM420 449h314l-77 353l-7 69l-42 -87z" />
<glyph unicode="&#x468;" d="M883 469h-68l-85 -469h-145l86 469h-66l-184 -469h-190l195 468h-159l-81 -468h-181l253 1456h181l-144 -827h198l346 827h156l74 -1456h-173zM665 629h211l-11 512z" />
<glyph unicode="&#x469;" d="M863 293l-70 1l-56 -294h-153l52 293h-72l-142 -293h-192l148 293h-142l-51 -293h-181l188 1082h181l-110 -628h194l316 628h156l140 -1082h-172zM640 454h204l-37 345z" />
<glyph unicode="&#x46a;" d="M-21 0l69 426q23 179 125.5 273.5t285.5 95.5h10l-205 661h962l-423 -665q82 -2 140.5 -30t93.5 -76t47.5 -113.5t4.5 -144.5l-70 -427h-181l71 428q5 41 4 78.5t-13 66.5t-39 47t-74 21l-70 2l-15 -22l-111 -621h-181l118 637l-1 7l-76 1q-53 0 -91.5 -15.5t-64.5 -44 t-41.5 -69t-22.5 -89.5l-71 -427h-181zM640 831l280 473h-416z" />
<glyph unicode="&#x46b;" d="M-2 0l33 218q12 86 39 155.5t73 119t112 78t156 34.5l-183 477h917l-367 -484q76 -8 124.5 -43t75 -87t33 -116.5t-0.5 -132.5l-33 -219h-181l32 220q4 38 6 77.5t-7.5 72.5t-33.5 55.5t-72 25.5l-47 2l-15 -19l-79 -434h-181l83 444l-2 9l-58 2q-54 0 -91 -18.5t-61 -51 t-37 -75.5t-20 -91l-35 -219h-180zM586 604l7 -1l230 327h-343z" />
<glyph unicode="&#x46c;" d="M914 789q60 -6 99 -31.5t61 -64.5t28.5 -89t0.5 -104l-82 -500h-150l83 501q3 26 3 50t-7.5 43t-24.5 31t-48 14l-33 1l-12 -21l-110 -619h-150l112 618l-2 22l-33 1h-1l-5 1q-33 0 -57 -11t-40.5 -30.5t-26 -45.5t-14.5 -55l-84 -500h-150l86 499q7 38 19 73t29 70 l-154 -2l-111 -640h-167l253 1456h167l-116 -664h377l-113 664h724zM798 895l196 409h-249z" />
<glyph unicode="&#x46d;" d="M903 588q55 -9 89.5 -36t53 -66t23 -86.5t-0.5 -96.5l-48 -303h-149l48 305q3 27 2.5 50.5t-8 42t-24.5 30t-47 13.5l-16 1l-18 -28l-9 1l-76 -415h-151l79 422l-4 21l-28 1h-4l-3 1q-33 1 -57 -10t-41 -31t-27 -46t-15 -55l-50 -303h-150l51 302q8 38 19.5 73t30.5 70 l-155 -2l-77 -443h-167l188 1082h167l-85 -487h363l-120 487h714zM755 622l175 317h-239z" />
<glyph unicode="&#x46e;" d="M554 821q63 0 122.5 14t108 44.5t81 78.5t40.5 117q7 56 -8.5 98t-47.5 70.5t-76.5 43t-96.5 16.5l-309 1l27 152l285 -1q84 -2 161 -27.5t134.5 -74t88.5 -119t24 -163.5q-5 -63 -31.5 -114t-67 -90.5t-91.5 -69.5t-105 -52q106 -43 157 -129.5t43 -201.5 q-8 -105 -53.5 -186t-117 -136.5t-163 -83.5t-191.5 -28l-53 1q-30 -1 -59.5 -7.5t-54 -21t-41.5 -37.5t-21 -56q-5 -33 3.5 -60t26.5 -48.5t42.5 -38.5t51.5 -30l-80 -123q-45 23 -84.5 54.5t-69 70.5t-45.5 85.5t-14 99.5q3 74 34.5 124.5t81 81.5t112.5 44t128 13l45 -1 q64 0 122 19t104 55t76.5 87.5t38.5 117.5q9 68 -8 116.5t-53 80t-88.5 47t-114.5 17.5l-149 1l27 151zM747 1757l174 150l161 2l-1 -20l-281 -247h-112l-210 244l2 23l149 -1z" />
<glyph unicode="&#x46f;" d="M532 616q43 0 92.5 6.5t93 25t74.5 51t38 85.5q6 43 -13 70.5t-50 43.5t-69 22.5t-71 7.5l-303 1l27 153l280 -1q66 -2 136 -19t126 -53t90 -92t29 -136q-3 -48 -24.5 -85.5t-53.5 -66.5t-72 -51t-80 -38q38 -15 69.5 -36t54 -49.5t34 -64t9.5 -77.5q-3 -60 -24 -108.5 t-55.5 -85.5t-80 -63.5t-96 -43t-104.5 -24.5t-106 -8l-48 1q-30 -1 -59.5 -7.5t-54 -20.5t-41.5 -37t-21 -57q-5 -34 4 -61t27 -48.5t43 -38.5t52 -31l-83 -120q-44 22 -83.5 53.5t-69 70.5t-45.5 85.5t-14 99.5q3 74 34.5 124.5t81.5 81.5t112.5 44.5t127.5 13.5l40 -1 q43 0 90 9t87.5 29.5t69.5 53.5t37 83q5 34 -4.5 59t-28 42.5t-44 28t-54 17t-57.5 8.5t-54 3l-149 1l26 151zM695 1415l174 150l161 2l-1 -20l-281 -247h-112l-210 244l2 23l149 -1z" />
<glyph unicode="&#x470;" d="M664 476q69 16 121 50t89 82t60 107.5t34 126.5l105 614h180l-104 -614q-15 -106 -54.5 -195t-102.5 -156.5t-149 -110.5t-195 -56l-62 -324h-181l62 326q-98 16 -165 64.5t-106 118.5t-51.5 155.5t-1.5 177.5l103 614h181l-104 -615q-7 -56 -5 -112t19 -105t52 -87 t95 -57l174 976h181z" />
<glyph unicode="&#x471;" d="M764 1082l-169 -944q76 21 134 63.5t99.5 100t67.5 127t38 143.5q20 127 20 256t-23 255l183 -1q23 -126 20 -255t-20 -256q-16 -115 -56 -216t-106.5 -178.5t-159.5 -128t-214 -63.5l-84 -457h-181l85 461q-109 22 -174.5 83.5t-98 146t-37.5 183t8 194.5l81 486h181 l-82 -489q-5 -38 -8.5 -81.5t-3 -88t8 -87.5t24.5 -80.5t45.5 -67t72.5 -46.5l168 940h181z" />
<glyph unicode="&#x472;" d="M1090 645q-13 -77 -36.5 -156.5t-59 -154t-83.5 -140.5t-109.5 -114t-137 -75t-165.5 -25q-86 2 -151.5 32.5t-112.5 80.5t-77 116t-45 139t-16.5 149t8.5 147l26 166q13 77 36.5 156.5t59 154t84 140.5t110 114.5t137 75.5t165.5 25q87 -2 152.5 -32.5t112.5 -80.5 t76.5 -116t44 -139.5t16 -150t-8.5 -147.5zM308 801h627l2 13q6 46 9.5 100t-1 108.5t-18.5 106t-41.5 91.5t-70 65t-104.5 27q-65 2 -117.5 -19.5t-94 -60t-73 -89t-54.5 -107t-38 -114.5t-24 -110zM911 649h-628l-1 -6q-7 -45 -9.5 -99t2.5 -109t19 -107t42 -92.5 t70.5 -66t104.5 -27.5q65 -2 118 19.5t94 60t72 89.5t53.5 107.5t37.5 114.5t24 111z" />
<glyph unicode="&#x473;" d="M82 544q9 73 31.5 143.5t57.5 133t82.5 115t106 90t128 58t149.5 18.5q114 -3 194.5 -50.5t129.5 -124t67.5 -174t7.5 -199.5l-2 -23q-14 -109 -58.5 -210t-115.5 -177.5t-167.5 -121.5t-214.5 -42q-113 3 -193.5 49.5t-129.5 122.5t-68 172t-8 198zM486 129 q74 -2 133 26t103 76t73.5 110t45.5 127h-585q-2 -59 7 -118.5t35.5 -107.5t72 -79.5t115.5 -33.5zM629 951q-73 2 -131 -25.5t-102 -74.5t-73.5 -107.5t-45.5 -124.5h582q1 58 -9 116.5t-36.5 105.5t-71.5 77.5t-113 32.5z" />
<glyph unicode="&#x474;" d="M525 366l9 -119l58 134l383 802q25 57 54 110t68 93.5t90.5 65.5t120.5 25l51 -1l-21 -171l-10 1q-35 0 -61 -12t-47 -32.5t-37 -47t-29 -54.5l-573 -1160h-166l-238 1456h197z" />
<glyph unicode="&#x475;" d="M472 306l5 -88l43 104l257 539q19 45 44.5 88.5t59.5 78t77 55.5t98 21q31 0 57 -6.5t54 -20.5l-36 -146q-11 4 -21 7t-21 2q-21 0 -39.5 -9t-34 -22.5t-28 -30.5t-21.5 -34l-452 -844h-138l-210 1082h178z" />
<glyph unicode="&#x476;" d="M525 366l9 -119l58 134l383 802q25 57 54 110t68 93.5t90.5 65.5t120.5 25l51 -1l-21 -171l-10 1q-35 0 -61 -12t-47 -32.5t-37 -47t-29 -54.5l-573 -1160h-166l-238 1456h197zM732 1592h-179l-251 266h233zM984 1592h-159l-193 266h215z" />
<glyph unicode="&#x477;" d="M472 306l5 -88l43 104l257 539q19 45 44.5 88.5t59.5 78t77 55.5t98 21q31 0 57 -6.5t54 -20.5l-36 -146q-11 4 -21 7t-21 2q-21 0 -39.5 -9t-34 -22.5t-28 -30.5t-21.5 -34l-452 -844h-138l-210 1082h178zM641 1296h-179l-251 266h233zM893 1296h-159l-193 266h215z" />
<glyph unicode="&#x478;" d="M614 488q-7 -49 -19 -106.5t-30.5 -114.5t-46 -110t-65 -93t-87.5 -63.5t-114 -20.5q-59 2 -99 29t-64 70t-35 96.5t-13.5 109.5t1 108.5t8.5 93.5l78 481q7 46 17.5 102.5t28 113.5t42.5 110.5t61 94.5t83.5 65t109.5 22q61 -2 103 -28.5t68.5 -68.5t39.5 -95t17.5 -109 t1.5 -110t-8 -97zM902 614l-13 -141l207 609h165l-447 -1251q-15 -45 -37 -92t-53.5 -86t-73.5 -63.5t-97 -24.5q-25 0 -49.5 5.5t-48.5 10.5l16 146q17 -2 34.5 -5.5t34.5 -2.5q33 1 56 21t40.5 48.5t29.5 60t22 56.5l43 106l33 1071h157zM517 1009q2 16 5.5 44.5t6 62.5 t1 69.5t-9 65t-24 48.5t-44.5 20q-32 2 -55.5 -14.5t-40 -44.5t-27 -63t-17 -70t-10 -66.5t-6.5 -52.5l-88 -559q-2 -15 -5.5 -44t-6 -63.5t-1.5 -70.5t8.5 -65.5t23 -49.5t43.5 -21q33 -2 57 15t40.5 45t27.5 63.5t17.5 70.5t10 67t6.5 53z" />
<glyph unicode="&#x479;" d="M45 547q7 53 18.5 115.5t31 125t48 120.5t68.5 102t93.5 69.5t123.5 23.5q67 -2 112.5 -30.5t73.5 -73.5t41.5 -102.5t17 -117.5t0 -119t-8.5 -106l-3 -24q-7 -53 -19 -115t-31.5 -124t-48.5 -119.5t-69.5 -101t-94.5 -68.5t-123 -23q-66 2 -111 30t-72.5 73t-41 102 t-17 117t-0.5 118t9 105zM902 616l-17 -157l212 623h165l-447 -1251q-15 -45 -37 -92.5t-53.5 -86.5t-73.5 -63.5t-97 -23.5q-25 0 -49.5 5.5t-48.5 10.5l16 146q17 -2 34.5 -5.5t34.5 -2.5q33 1 56 21t40.5 48.5t29.5 60t22 56.5l43 106l33 1071h157zM223 525 q-2 -20 -7.5 -56.5t-9.5 -80t-4.5 -89t8 -83t28 -62.5t54.5 -26q41 -2 69.5 20t48.5 58t32 81.5t19.5 90.5t11 85.5t6.5 66.5l2 23q2 20 7.5 56.5t9.5 80.5t4 90t-8.5 83.5t-28 62t-54.5 26.5q-40 2 -68.5 -20t-48.5 -58.5t-32 -82t-19 -91t-11 -86t-7 -66.5z" />
<glyph unicode="&#x47a;" d="M790 1203h-181l68 386h180zM557 -141h-181l69 395h181zM1097 645q-13 -77 -36.5 -156.5t-59 -154t-83.5 -140.5t-109.5 -114t-137 -75t-165.5 -25q-86 2 -151.5 32.5t-112.5 80.5t-77 116t-45 139t-16.5 149t8.5 147l26 166q13 77 36.5 156.5t59 154t84 140.5t110 114.5 t137 75.5t165.5 25q87 -2 152.5 -32.5t112.5 -80.5t76.5 -116t44 -139.5t16 -150t-8.5 -147.5zM944 814q6 46 9.5 100t-1 108.5t-18.5 106t-41.5 91.5t-70 65t-104.5 27q-65 2 -117.5 -19.5t-94 -60t-73 -89t-54.5 -107t-38 -114.5t-24 -110l-28 -169q-6 -45 -9 -99t2 -109 t19 -107t42 -92.5t70.5 -66t104.5 -27.5q65 -2 118 19.5t94 60t72 89.5t53.5 107.5t37.5 114.5t24 111z" />
<glyph unicode="&#x47b;" d="M729 838h-182l68 389h182zM556 -159h-182l71 407h182zM110 544q9 73 31.5 143.5t57.5 133t82.5 115t106 90t128 58t149.5 18.5q114 -3 194.5 -50.5t129.5 -124t67.5 -174t7.5 -199.5l-2 -23q-14 -109 -58.5 -210t-115.5 -177.5t-167.5 -121.5t-214.5 -42 q-113 3 -193.5 49.5t-129.5 122.5t-68 172t-8 198zM288 522q-5 -42 -4.5 -87t8 -88t23.5 -82t43 -68.5t65.5 -47.5t90.5 -20q83 -3 147 33t109.5 94t72.5 130.5t38 144.5l2 22q7 63 2.5 132t-29.5 127.5t-73 97t-126 41.5q-84 3 -148 -33.5t-109 -95.5t-72 -132.5 t-37 -145.5z" />
<glyph unicode="&#x47c;" d="M913 1455q82 -5 140 -38.5t92.5 -87.5t47 -123t4.5 -145l-118 -725q-10 -73 -36.5 -138.5t-70.5 -115t-106 -77.5t-142 -26q-71 2 -123 37.5t-74 103.5q-42 -63 -99 -103t-136 -39q-75 1 -128 32t-84.5 81t-42.5 113.5t-4 131.5l118 725q12 87 43.5 159t82.5 124 t122 81.5t162 31.5l-17 -151q-51 -3 -87.5 -24.5t-61.5 -55.5t-40 -77t-22 -88l-117 -726q-3 -27 -3 -62t9 -66.5t29 -54t58 -23.5q38 -2 65 16t45.5 46t28.5 61.5t15 64.5l83 509h182l-83 -509q-3 -27 -1.5 -59.5t11 -61t30 -48t56.5 -20.5q40 -1 68 19.5t46.5 51.5 t29 67.5t15.5 68.5l118 728q4 38 4 78t-11.5 74t-36.5 58t-71 29zM1155 1748l-11 -129l-39 1q-52 1 -99 21.5t-92 44t-90.5 43.5t-94.5 20q-54 0 -84.5 -30.5t-40.5 -81.5l-3 -18l-124 1l3 36q10 106 74.5 163.5t171.5 55.5q52 -1 98.5 -20.5t92.5 -42.5t93 -43t101 -21h44z M629 1382q30 32 55 67t35 79l17 96l136 -1l-14 -101q-11 -66 -54.5 -117t-100.5 -83z" />
<glyph unicode="&#x47d;" d="M866 1101q79 -6 133 -40.5t85.5 -88.5t41.5 -122t3 -140l-57 -378q-9 -70 -33.5 -135t-65.5 -114t-100.5 -77.5t-137.5 -26.5q-72 2 -124 36.5t-74 102.5q-21 -32 -45.5 -58t-53.5 -44.5t-63 -28.5t-73 -9q-74 1 -124 32.5t-79 81.5t-38.5 112.5t-2.5 127.5l57 378 q11 85 40.5 156t77.5 123t116.5 81.5t157.5 32.5l-17 -151q-48 -3 -81.5 -25.5t-56 -56.5t-35.5 -76t-20 -84l-57 -379q-2 -24 -3.5 -58t5 -65.5t23.5 -54.5t52 -25q38 -2 65 15.5t45.5 45t28.5 61t15 63.5l43 270h181l-41 -270q-3 -27 -1.5 -59t11.5 -60t30.5 -46.5 t56.5 -19.5q38 -1 63.5 20t41.5 52t24 66.5t12 64.5l58 381q4 34 6 73t-7 73.5t-31.5 59.5t-65.5 30zM1108 1377l-11 -129l-39 1q-53 1 -100.5 21.5t-93 44t-91 43.5t-94.5 20q-54 0 -85.5 -30.5t-41.5 -81.5l-3 -18l-124 1l3 37q10 106 75 163t172 55q53 -1 100 -20.5 t93.5 -42.5t94 -43t101.5 -21h44zM578 1010q29 32 54 67t35 79l18 96l136 -1l-14 -101q-11 -66 -53.5 -117t-98.5 -84z" />
<glyph unicode="&#x47e;" d="M482 1796h699l-18 -108h-276l-22 -125h-165l23 125h-261zM1271 1456l-192 -1136q-9 -69 -33.5 -131t-65.5 -109.5t-99 -74.5t-134 -25q-74 2 -126.5 38.5t-73.5 107.5q-21 -32 -45.5 -59.5t-53.5 -47t-63.5 -30t-74.5 -9.5q-71 1 -120.5 30t-79 76.5t-40.5 108t-5 123.5 l194 1138h179l-190 -1139q-2 -23 -2.5 -54.5t6 -60.5t24 -50t50.5 -22q38 -2 65 16t45 46.5t28.5 62.5t14.5 64l193 1137h187l-193 -1139q-3 -27 -1.5 -59.5t11 -61t30.5 -48t58 -19.5q36 0 60 19t39.5 48t23.5 62t12 61l192 1137h180z" />
<glyph unicode="&#x47f;" d="M400 1456h706l-18 -108h-279l-23 -127h-164l23 127h-264zM1197 1083l-129 -766q-9 -69 -34 -131.5t-66.5 -109t-99.5 -73t-134 -24.5q-73 2 -126.5 39t-75.5 107q-21 -33 -45.5 -60t-54 -46.5t-64 -30t-74.5 -9.5q-71 1 -121 30t-80 75.5t-41 106.5t-5 123l130 769h180 l-127 -768q-2 -24 -2.5 -55.5t6.5 -60t24.5 -49t51.5 -21.5q37 -2 64.5 15.5t45.5 45t28.5 61t15.5 64.5l129 768h186l-126 -768q-3 -27 -1.5 -59.5t11 -60.5t30.5 -47t57 -19q36 -1 60.5 17.5t40 47t24.5 61t13 60.5l128 768h181z" />
<glyph unicode="&#x480;" d="M616 -382h-181l70 369q-109 21 -183.5 82.5t-117 147.5t-55.5 187t0 201l39 247q11 74 35 150t59.5 146t83.5 130.5t108.5 105.5t133 70t158.5 23q106 -2 183.5 -41.5t127 -105.5t71 -153t14.5 -186h-181q5 61 -3 120t-33.5 106t-71 77t-117.5 32q-60 2 -110 -18.5 t-90.5 -57t-71.5 -84t-54 -101t-38 -108t-23 -103.5l-39 -250q-7 -48 -7 -101t8.5 -104.5t27 -98.5t49.5 -83.5t75.5 -59.5t104.5 -26l118 -1z" />
<glyph unicode="&#x481;" d="M573 -382h-181l69 370q-91 22 -150.5 76.5t-92.5 127.5t-43 157.5t-1 167.5l5 43q13 105 55 203.5t110.5 175t162 121.5t207.5 42q84 -2 151.5 -33t115 -83.5t71.5 -124t20 -153.5l-170 1q2 47 -9.5 90t-36.5 76t-63.5 53.5t-89.5 22.5q-78 3 -138.5 -33t-103 -93 t-68.5 -127.5t-35 -137.5l-6 -42q-7 -57 -4 -123.5t23.5 -123.5t63 -96t116.5 -43l111 -2z" />
<glyph unicode="&#x482;" d="M558 439l252 -172l-82 -114l-252 169l-234 -322h-176l293 405l-251 171l82 114l254 -170l269 373l-253 171l84 116l252 -170l242 332h172l-300 -415l255 -171l-85 -113l-250 169z" />
<glyph unicode="&#x483;" horiz-adv-x="10" d="M489 1315l-23 -125l-162 1l42 233h523l18 108l161 -1l-38 -216h-521z" />
<glyph unicode="&#x484;" horiz-adv-x="10" d="M420 1430q64 1 122.5 21t116.5 43.5t116 42.5t120 18q100 -1 156 -56.5t51 -157.5l-3 -39l-122 1l2 20q3 48 -17.5 75t-70.5 29q-59 2 -117 -17t-116 -42t-117.5 -43t-121.5 -21l-48 -1l12 127h37z" />
<glyph unicode="&#x485;" horiz-adv-x="10" d="M594 1509l21 114h176l-28 -151l38 -114l-78 -57z" />
<glyph unicode="&#x486;" horiz-adv-x="10" d="M758 1303l-71 73l79 117l22 130h176l-23 -132z" />
<glyph unicode="&#x488;" horiz-adv-x="10" d="M569 1268q6 43 24.5 78t47 59.5t66 37.5t82.5 12q43 0 78 -13.5t59.5 -38.5t37.5 -59.5t12 -77.5h-109q1 21 -2 39.5t-12 32.5t-25 22t-40 8q-47 0 -72 -29.5t-36 -70.5h-111zM1094 991q13 87 72 137.5t148 49.5q88 -1 139 -51.5t49 -137.5h-110q1 21 -2 39.5t-12 32.5 t-24.5 22t-39.5 8q-47 0 -72 -29.5t-36 -70.5h-112zM1191 487q6 43 24 78.5t46 60t65.5 37.5t82.5 12q87 -1 137.5 -52t48.5 -137h-109q1 21 -2 39.5t-12 32.5t-24.5 22t-39.5 8q-47 0 -72.5 -29.5t-36.5 -70.5zM910 -32q6 43 24 78.5t46 60t65.5 37.5t82.5 12 q87 -1 137.5 -52t48.5 -137h-109q1 21 -2 39.5t-12 32.5t-24.5 22t-39.5 8q-47 0 -72.5 -29.5t-36.5 -70.5zM302 -316q6 43 23.5 78.5t46 60t66 37.5t82.5 12q43 0 78 -13.5t59.5 -38.5t37.5 -59.5t12 -77.5h-110q1 21 -2 39.5t-12 32.5t-24.5 22t-39.5 8q-47 0 -72.5 -29.5 t-36.5 -70.5zM-35 991q7 43 25.5 78t47 59.5t66 37.5t82.5 12q87 -1 138 -52t49 -137h-109q1 21 -2 39.5t-12 32.5t-24.5 22t-39.5 8q-48 0 -73 -29.5t-36 -70.5h-112zM-291 487q6 43 24.5 78t47 60t65.5 38t82 12q87 -1 137.5 -52t48.5 -137h-109q1 21 -2 39.5t-12 32.5 t-24.5 22t-39.5 8t-41.5 -8t-30.5 -21.5t-22 -32t-15 -38.5zM-219 -32q6 43 24 78t46.5 60t65.5 38t82 12q87 -1 138 -52t49 -137h-110q1 21 -2 39.5t-12 32.5t-24.5 22t-39.5 8t-41.5 -8t-30 -21.5t-21.5 -32t-15 -38.5z" />
<glyph unicode="&#x489;" horiz-adv-x="10" d="M952 -58l13 -18l-172 -337h-101l127 352zM980 1125l-13 16l171 337h100l-126 -351zM1541 632l11 10l311 -127l-17 -92l-320 69zM387 432l-10 -10l-311 127l17 91l320 -68zM1376 1002l3 17l333 153l61 -77l-308 -191zM545 21l-3 -18l-331 -153l-62 78l308 191zM562 860 l-17 2l-93 335l67 61l148 -303zM1357 161l19 -2l93 -335l-69 -62l-147 303z" />
<glyph unicode="&#x48a;" d="M998 1456h186l-253 -1456h-181l186 1059l-698 -1059h-185l252 1456h181l-185 -1059zM1087 1854q-6 -63 -31.5 -113t-66.5 -84.5t-94.5 -52.5t-116.5 -17q-61 1 -110.5 20.5t-85 54t-54.5 83.5t-18 110l146 -1q-1 -32 5 -59t21 -47t38.5 -31.5t58.5 -11.5t62.5 11t48 31 t33.5 47t19 59zM1113 6q-19 -113 -78 -210.5t-148 -169.5l-110 65q53 70 87.5 147t49.5 164l32 179h196z" />
<glyph unicode="&#x48b;" d="M929 1082h187l-188 -1082h-181l137 786l-642 -786h-187l188 1082h180l-137 -787zM1025 1523q-6 -63 -31.5 -113t-66.5 -84.5t-94.5 -52.5t-116.5 -17q-61 1 -110.5 20.5t-85 54t-54.5 83.5t-18 110l146 -1q-1 -32 5 -59t21 -47t38.5 -31.5t58.5 -11.5t62.5 11t48 31 t33.5 47t19 59zM1110 6q-19 -113 -78 -210.5t-148 -169.5l-110 65q53 70 87.5 147t49.5 164l32 179h196z" />
<glyph unicode="&#x48c;" d="M663 1104h-232l-43 -247l245 -1q94 -3 173 -31t134.5 -80.5t83 -129t19.5 -175.5q-9 -108 -55.5 -190.5t-118.5 -138.5t-165 -84t-196 -27h-450l192 1104h-206l27 151h205l35 201h181l-35 -201h233zM362 706l-97 -555l247 -2q68 0 128 20t106 58t76 92.5t39 123.5 q7 60 -5.5 107.5t-43 81t-77 52.5t-105.5 21z" />
<glyph unicode="&#x48d;" d="M671 803h-296l-22 -131l308 -2q73 -2 138.5 -22.5t114 -61t75 -100t21.5 -139.5q-6 -88 -45 -153.5t-100.5 -108.5t-138 -64.5t-157.5 -20.5h-513l139 803h-143l27 151h142l22 128h181l-23 -128h297zM327 521l-65 -370l311 -1q45 0 88 11.5t78 35t59 59t30 84.5 q6 42 -5 75t-34.5 55.5t-57 35t-73.5 14.5z" />
<glyph unicode="&#x48e;" d="M1016 460l-131 -64l-271 500l129 65zM363 584l-102 -584h-180l252 1456l447 -1q92 -3 169.5 -34.5t132 -87.5t82 -133.5t19.5 -172.5q-9 -105 -55 -187.5t-118.5 -139.5t-165 -87t-192.5 -30zM389 736l268 -2q66 0 125 20.5t105.5 58t77 91.5t38.5 121q7 57 -5.5 106.5 t-42 86.5t-75 59.5t-104.5 25.5l-288 1z" />
<glyph unicode="&#x48f;" d="M941 -6l-115 -86l-295 382l117 86zM1043 536q-12 -100 -47.5 -200.5t-96 -180.5t-147.5 -129t-202 -47q-82 2 -155 31.5t-126 94.5l-97 -521h-181l260 1498l164 1l-19 -119q63 69 141.5 104.5t173.5 33.5q74 -2 129 -26t94.5 -64.5t64 -93.5t37 -113t14.5 -123.5 t-5 -124.5zM864 557q7 61 3.5 128.5t-26.5 124.5t-69 95t-124 40q-85 2 -150 -39.5t-115 -107.5l-91 -523q60 -140 213 -145q84 -2 146.5 34t106 95t69 132t35.5 145z" />
<glyph unicode="&#x490;" d="M1185 1304h-705l-226 -1304h-182l253 1456h705l59 335h181z" />
</font>
</defs>
</svg>
