<?xml version="1.0" encoding="UTF-8" standalone="no"?>
<!DOCTYPE svg PUBLIC "-//W3C//DTD SVG 1.1//EN" "http://www.w3.org/Graphics/SVG/1.1/DTD/svg11.dtd">
<svg width="100%" height="100%" viewBox="0 0 65 65" version="1.1" xmlns="http://www.w3.org/2000/svg" xmlns:xlink="http://www.w3.org/1999/xlink" xml:space="preserve" xmlns:serif="http://www.serif.com/" style="fill-rule:evenodd;clip-rule:evenodd;stroke-linejoin:round;stroke-miterlimit:2;">
    <g transform="matrix(0.849873,0,0,0.849873,-22.7418,-22.3169)">
        <path d="M100.214,43.604C99.12,35.546 92.035,29.195 83.637,27.965C82.22,27.757 76.851,27 64.415,27L64.322,27C51.882,27 49.214,27.757 47.797,27.965C39.632,29.161 32.176,34.868 30.367,43.021C29.497,47.037 29.404,51.489 29.565,55.573C29.796,61.429 29.84,67.275 30.377,73.108C30.748,76.982 31.395,80.825 32.313,84.609C34.033,91.597 40.994,97.412 47.814,99.785C55.115,102.259 62.968,102.67 70.492,100.971C71.32,100.78 72.138,100.559 72.948,100.306C74.774,99.73 76.916,99.086 78.492,97.954C78.513,97.938 78.531,97.918 78.543,97.894C78.556,97.871 78.563,97.845 78.564,97.818L78.564,92.166C78.563,92.141 78.557,92.117 78.546,92.094C78.535,92.072 78.519,92.053 78.499,92.037C78.479,92.022 78.456,92.011 78.432,92.006C78.407,92 78.382,92 78.357,92.006C73.537,93.147 68.597,93.719 63.641,93.71C55.112,93.71 52.818,89.698 52.161,88.028C51.633,86.584 51.298,85.078 51.164,83.549C51.162,83.523 51.167,83.497 51.178,83.474C51.188,83.45 51.204,83.43 51.224,83.413C51.244,83.397 51.268,83.386 51.293,83.38C51.319,83.375 51.345,83.375 51.37,83.382C56.11,84.515 60.969,85.087 65.846,85.086C67.018,85.086 68.188,85.086 69.36,85.055C74.265,84.919 79.434,84.67 84.259,83.736C84.379,83.712 84.5,83.692 84.603,83.661C92.214,82.212 99.457,77.665 100.193,66.15C100.22,65.697 100.289,61.402 100.289,60.931C100.293,59.333 100.809,49.59 100.214,43.604ZM57.463,59.448L54.558,59.269L54.558,65.436C54.558,66.24 54.685,66.821 54.938,67.178C55.191,67.536 55.668,67.714 56.368,67.714C57.068,67.714 57.604,67.737 57.977,67.781C58.349,67.826 58.744,67.968 59.161,68.206C59.846,68.593 60.189,69.591 60.189,71.2C60.189,73.077 59.772,74.223 58.937,74.64C58.491,74.849 58.096,74.976 57.753,75.02C57.411,75.065 56.912,75.087 56.256,75.087C53.158,75.087 50.805,74.387 49.196,72.987C47.588,71.587 46.783,69.219 46.783,65.882L46.783,59.269C46.217,59.358 45.607,59.403 44.951,59.403C44.296,59.403 43.752,59.15 43.32,58.644C42.888,58.137 42.672,57.273 42.672,56.052C42.672,54.83 42.747,53.944 42.896,53.393C43.045,52.842 43.253,52.447 43.521,52.209C43.998,51.822 44.594,51.628 45.309,51.628L46.783,51.807L46.783,47.204C46.783,46.519 46.806,46.013 46.85,45.685C46.895,45.357 47.037,45 47.275,44.613C47.662,43.868 48.809,43.496 50.716,43.496C52.741,43.496 53.948,44.047 54.335,45.149C54.484,45.626 54.558,46.385 54.558,47.428L54.558,51.807C55.869,51.688 56.86,51.628 57.53,51.628C58.2,51.628 58.707,51.65 59.049,51.695C59.392,51.74 59.786,51.881 60.233,52.12C61.008,52.507 61.395,53.654 61.395,55.56C61.395,57.437 60.993,58.584 60.189,59.001C59.742,59.21 59.347,59.336 59.005,59.381C58.662,59.425 58.148,59.448 57.463,59.448ZM76.901,51.628C79.879,51.628 82.359,52.76 84.34,55.024C86.321,57.288 87.312,60.059 87.312,63.335L87.312,71.2C87.312,71.885 87.29,72.399 87.245,72.741C87.2,73.084 87.059,73.479 86.82,73.926C86.433,74.7 85.286,75.087 83.38,75.087C81.563,75.087 80.431,74.7 79.984,73.926C79.745,73.479 79.604,73.077 79.559,72.719C79.515,72.362 79.492,71.825 79.492,71.11L79.492,63.291C79.492,62.069 79.15,61.116 78.464,60.431C77.779,59.746 76.908,59.403 75.85,59.403C74.793,59.403 73.862,59.723 73.058,60.364C72.253,61.004 71.792,61.727 71.672,62.531L71.672,71.2C71.672,71.885 71.65,72.399 71.605,72.741C71.561,73.084 71.419,73.479 71.181,73.926C70.794,74.7 69.647,75.087 67.74,75.087C65.864,75.087 64.717,74.685 64.3,73.881C64.091,73.434 63.964,73.047 63.92,72.719C63.875,72.391 63.853,71.87 63.853,71.155L63.853,44.434C63.853,43.749 63.875,43.235 63.92,42.892C63.964,42.55 64.091,42.17 64.3,41.753C64.717,40.949 65.878,40.546 67.785,40.546C69.662,40.546 70.794,40.949 71.181,41.753C71.419,42.2 71.561,42.594 71.605,42.937C71.65,43.28 71.672,43.793 71.672,44.479L71.672,54.354C73.162,52.537 74.905,51.628 76.901,51.628Z" style="fill:url(#_Linear1);fill-rule:nonzero;"/>
    </g>
    <defs>
        <linearGradient id="_Linear1" x1="0" y1="0" x2="1" y2="0" gradientUnits="userSpaceOnUse" gradientTransform="matrix(2.57429e-15,42.0414,-42.0414,2.57429e-15,29.2754,34.3483)"><stop offset="0" style="stop-color:rgb(0,96,128);stop-opacity:1"/><stop offset="1" style="stop-color:rgb(0,70,92);stop-opacity:1"/></linearGradient>
    </defs>
</svg>
