<svg xmlns="http://www.w3.org/2000/svg" fill="none" viewBox="0 0 1440 1245"><path fill="#ffb900" d="M438.957 163.115c25.062 5.75 49.562 1.125 66.312-10.687-9.813-17.875-29.688-32.563-55.063-38.312-19.875-4.625-39.5-2.625-55.063 4.312 1.75-1.125 3.438-2.312 5.188-3.75 18.437-11.812 37.5-23.062 57.375-32.874-17.875 8.625-35.438 18.437-52.438 28.812 11.5-10.688 20.75-25.938 25.063-44.126 6.062-25.062 1.75-49.562-9.813-66.312-17.874 9.5-33.125 29.375-39.188 54.5-6.062 24.5-2 48.75 9.25 65.438-25.937 17-50.749 35.749-74.062 56.188 11.25-13.812 18.749-32.875 19.625-54.5.875-26.5-8.625-50.438-23.937-65.126-16.126 13.563-27.375 36.626-28.251 63.126-.875 26.25 8.375 49.874 23.063 64.312-23.626 21.625-45.812 45-66 69.749 7.5-14.437 11.25-32.875 9.25-52.188-2.625-26.812-15.251-49.563-32.563-62.251-14.437 15.563-22.5 40.375-19.875 67.438 2.625 26.5 15 48.749 31.688 61.374a726 726 0 0 0-34.312 49c-6.312 10.063-12.125 20.188-17.874 30.563 4.875-15.875 5.187-34.563-.313-53.625-7.5-26.5-24.5-47.251-44.125-56.812-11.813 18.437-15.251 44.688-7.813 71.5 7.5 25.937 23.626 46.437 42.938 56.188-12.688 24.812-23.938 50.437-33.438 76.688-.562-14.126-4.312-29.126-11.5-43.251-13.25-25.375-34.562-42.688-56.5-48.125-8.062 21.062-6.312 48.437 6.938 73.812 12.125 23.374 31.437 40.062 51.625 46.688-.875 3.187-2 6.312-2.875 9.5-7.187 24.5-12.687 49.312-17 74.374-2.875-14.437-9.5-29.125-19.625-42.688-17.875-23.062-42.375-36.625-65.125-38.312-4.313 22.5 2.312 49.875 20.188 72.938 16.437 21.625 38.937 34.562 60.562 37.749-2.875 24.188-4.625 48.437-4.625 72.625v7.813c-5.5-12.375-13.812-24.188-24.812-34.563-21.625-20.188-48.437-30-71.812-27.688-.562 23.375 10.688 49.563 32.312 70.063 19.625 18.437 43.812 27.937 65.75 27.937a582 582 0 0 0 9.499 77c-7.5-10.375-17.312-19.875-29.374-27.937-25.063-16.438-53.938-21.063-76.688-14.688 3.75 23.375 19.625 47.563 44.688 64 22.5 14.688 47.874 19.875 69.188 16.437 1.75 6.625 3.187 13.25 5.187 19.875 4.625 16.437 9.813 32.874 15.875 49-8.938-8.063-19.312-15-31.437-20.438-28.563-12.374-58.5-12.374-81-2.312 7.5 23.375 27.937 45.563 56.5 57.937 25.062 10.938 51.312 12.375 72.374 5.5 8.938 20.188 19 40.063 30.251 59.375-10.063-6.313-21.937-11.5-34.563-14.437-30.25-7.188-59.937-1.75-80.125 12.125 11.812 21.621 35.749 39.811 66 47.001 26.5 6.31 52.437 2.87 71.812-7.19 12.375 18.75 25.937 36.88 40.375 54.19-9.813-3.44-20.75-5.75-32.312-6.63-31.688-2-60.563 8.63-78.126 26.25 15.563 19.63 42.688 33.75 74.375 35.75 26.812 1.75 51.312-5.75 69.188-18.43 14.688 15.25 30 29.68 46.125 43.25-10.937-1.44-22.5-1.75-34.312 0-33.749 4.31-61.688 21.31-76.688 43.5 20.438 17.56 51.875 26.5 85.626 22.19 27.937-3.75 51.874-15.88 67.749-32.57 27.375 19.88 56.5 37.5 86.749 52.75 5.5 2.63 11.813.31 14.438-4.87 2.625-5.5.312-11.82-4.875-14.44-23.938-11.5-47-24.81-69.188-39.5 14.688-20.19 21.937-49 17.874-79.87-4.312-33.75-21.312-61.69-43.5-76.69-17.562 20.43-26.5 51.87-22.188 85.62 2.625 19 8.938 36.31 18.188 50.19-21.312-15.87-41.812-32.87-61.125-51.31 17-16.13 28.563-41.25 30.251-70.06 1.75-31.69-8.938-60.255-26.5-78.129-19.626 15.562-33.438 42.939-35.188 74.689-1.125 18.19 2 35.19 8.062 49.87-18.188-19.31-35.437-39.81-51-61.37 18.75-12.69 34.312-34.564 40.626-62.001 7.187-30.251 2-59.938-12.126-80.126-21.625 11.5-39.812 35.438-47 65.75-4.062 16.437-4.062 32.874-1.125 47.562-1.125-2-2.625-3.75-3.75-5.75-12.125-19-23.062-38.625-32.874-58.812 20.749-9.25 40.062-28.25 51-54.5 12.375-28.562 12.125-58.5 1.75-81-23.375 7.813-45.251 28.251-57.626 56.812-6.937 15.875-9.812 32.312-9.25 47.563-9.812-23.063-18.437-46.437-25.374-70.312-.313-.563-.313-1.125-.313-1.438 21.312-5.5 42.375-21.062 57.063-44.125 16.125-25.375 20.188-54.188 13.563-77-23.375 4.063-47.251 20.188-63.438 45.563-8.625 13.812-13.812 28.812-15.874 42.937-6.313-26.812-10.938-53.937-13.563-81.312 21.937-1.125 45.812-12.125 64.563-32.312 20.188-21.625 30-48.437 27.688-71.812-23.375-.562-49.563 10.688-70.063 32.312-12.125 13-20.437 27.937-24.812 42.688-.563-9.812-.875-19.625-1.125-29.688-.313-19.312.562-38.625 2.312-57.937 21.312 2.875 46.438-3.75 68.063-19.875 23.375-17.312 37.188-41.812 39.188-64.563-22.5-4.625-49.875 1.75-73.251 19-14.125 10.375-24.5 23.375-31.125 36.875 3.438-27.688 8.938-55.375 16.125-82.437 20.438 6.625 46.438 4.312 70.312-8.063 25.375-13.25 42.688-34.562 48.126-56.5-21.063-8.062-48.438-6.312-73.812 6.938-16.438 8.625-29.375 20.437-38.063 33.749 9.25-29.688 20.437-58.812 33.749-86.749 18.438 10.062 43.5 12.687 68.626 5.187 26.5-7.812 46.688-25.062 55.937-45-18.437-11.5-45-14.688-71.5-6.937-17.312 5.187-32 14.437-42.688 25.688 6.625-12.375 13.563-24.812 20.749-36.875 7.813-12.687 15.875-25.063 24.5-37.188 16.126 12.375 40.063 18.749 65.75 15.251 26.812-3.75 49-17.312 60.812-35.188-16.126-13.812-41.251-21.063-68.063-17.312-17.312 2.312-32.312 8.937-44.375 17.874 17.875-23.374 37.5-45.812 58.5-66.562 13.563 15.562 36.312 25.937 62.251 26.812 26.5.875 50.437-8.938 64.875-24.188-13.563-16.126-36.626-27.126-63.438-27.938-19.625-.562-37.5 4.625-51.625 13.25 23.375-21.937 48.437-42.062 74.688-60.25 9.75 18.625 29.312 33.062 54.125 38.812zm885.623 652.694c21.63 3.437 46.69-1.75 69.19-16.438 25.06-16.437 41.25-40.625 44.69-64-22.75-6.312-51.63-1.437-76.69 14.688-12.12 7.813-21.94 17.312-29.37 27.938 4.62-25.375 7.81-51 9.5-77 21.93 0 45.81-9.5 65.75-27.938 21.62-20.188 32.87-46.688 32.31-70.062-23.38-2-50.19 7.5-71.81 27.688-10.94 10.374-19.32 22.5-24.82 34.562v-7.812c-.31-24.188-1.75-48.75-4.62-72.626 21.62-3.187 44.12-16.125 60.56-37.749 17.88-23.063 24.5-50.437 20.19-72.937-23.06 1.75-47.56 15.25-65.13 38.312-10.37 13.25-16.74 27.937-19.62 42.688a598 598 0 0 0-17-74.375c-.88-3.187-2-6.313-2.88-9.5 20.19-6.937 39.19-23.375 51.63-46.688 13.25-25.375 15-52.749 6.94-73.812-21.94 5.5-43.25 22.749-56.5 48.125-7.5 14.126-11.25 29.126-11.5 43.251-9.5-26.251-20.75-51.875-33.44-76.688 19-9.812 35.44-30 42.94-56.188 7.5-26.5 3.75-53.063-7.82-71.5-19.62 9.5-36.62 30-44.12 56.812-5.5 19-4.88 37.749 0 53.625-5.75-10.375-11.5-20.437-17.88-30.562-10.68-17-22.18-33.438-34.31-49 16.75-12.688 29.13-35.188 31.69-61.375 2.63-26.812-5.5-51.625-19.87-67.437-17.32 12.687-30 35.437-32.57 62.25-2 19.312 1.75 37.5 9.25 52.188-20.18-24.812-42.37-48.125-66-69.749 15-14.688 24.19-38.063 23.07-64.312-.88-26.5-12.13-49.875-28.25-63.125-15.26 14.437-24.82 38.312-23.94 65.125.87 21.625 8.37 40.625 19.62 54.5-23.37-20.437-48.12-39.188-74.06-56.188 11.25-16.749 15.25-40.625 9.25-65.437C1052.34 29.375 1037.02 9.5 1019.15 0c-11.5 16.75-15.88 41.25-9.81 66.312 4.31 18.188 13.56 33.437 25.06 44.125-17-10.375-34.31-20.188-52.439-28.812 19.629 10.063 38.939 21.063 57.379 32.875a54 54 0 0 0 5.18 3.75c-15.56-6.937-34.87-8.937-55.059-4.313-25.063 5.75-45.251 20.438-55.063 38.312 16.749 11.813 40.937 16.438 66.312 10.688 24.81-5.75 44.37-20.188 54.5-37.749 26.5 18.188 51.31 38.312 74.69 60.25-13.81-8.937-32-13.812-51.63-13.25-26.5.875-49.87 11.813-63.43 27.938 14.43 15.25 38.31 24.812 64.87 24.188 25.94-.875 48.75-11.25 62.25-26.812 21.06 20.749 40.63 42.937 58.5 66.562-11.81-8.937-27.12-15.562-44.37-17.874-26.82-3.75-51.88 3.437-68.07 17.312 11.82 17.874 34 31.437 60.82 35.188 25.37 3.437 49.31-2.625 65.74-15.251 8.63 12.125 16.75 24.5 24.5 37.188 7.19 12.125 14.13 24.5 20.75 36.875-10.68-11.25-25.37-20.438-42.68-25.688-26.5-7.813-53.07-4.625-71.5 6.937 9.25 19.875 29.68 36.875 55.93 45 25.07 7.5 50.19 4.875 68.63-5.187 13.25 27.937 24.5 57.062 33.75 86.749-8.63-13.25-21.63-25.375-38.06-33.749-25.38-13.25-52.75-15-73.82-6.938 5.5 21.937 22.75 43.251 48.13 56.5 23.94 12.375 49.87 14.688 70.31 8.063 7.19 27.125 12.69 54.749 16.13 82.437-6.63-13.563-17.32-26.5-31.13-36.875-23.37-17.312-50.75-23.625-73.25-19 2 22.75 15.87 47.251 39.19 64.563 21.62 16.125 46.69 22.749 68.06 19.875 1.44 19.312 2.31 38.625 2.31 57.937 0 9.813-.56 19.625-1.12 29.688-4.31-15-12.38-29.688-24.81-42.688-20.19-21.625-46.69-32.875-70.07-32.312-2 23.375 7.5 50.188 27.69 71.812 18.75 19.875 42.69 31.125 64.56 32.312-2.87 27.375-7.5 54.5-13.56 81.312-2-14.437-7.19-29.125-15.87-42.937-16.13-25.375-40.07-41.812-63.44-45.563-6.63 22.749-2.31 51.312 13.56 77 14.44 23.063 35.75 38.625 57.06 44.125-.31.563-.31 1.125-.31 1.438-6.94 23.937-15.56 47.562-25.37 70.312.56-15.251-2.31-31.688-9.25-47.563-12.38-28.563-34.31-49-57.63-56.812-10.37 22.188-10.69 52.437 1.75 81 11.25 25.937 30.25 45.251 51 54.5-10.06 20.188-21.06 39.812-32.87 58.812-1.13 2-2.63 3.75-3.75 5.75 2.87-14.688 2.62-31.125-1.13-47.563-7.18-30.25-25.37-54.188-47-65.749-14.12 20.188-19.31 49.875-12.12 80.126 6.62 27.374 21.93 49.314 40.62 62.004a661 661 0 0 1-51 61.37c6.07-14.69 9.25-31.69 8.07-49.87-1.75-31.69-15.57-59.13-35.19-74.693-17.88 17.563-28.57 46.433-26.5 78.123 1.75 28.81 13.25 53.94 30.25 70.07-19.31 18.43-39.81 35.43-61.13 51.31 9.25-14.13 15.57-31.13 18.19-50.19 4.31-33.75-4.62-65.13-22.19-85.63-22.19 15-39.19 42.94-43.5 76.69-4.06 30.88 3.19 59.38 17.88 79.88-22.19 14.43-45.253 27.68-69.191 39.5h-.312c-5.5 2.62-7.5 9.25-4.875 14.43 2.625 5.5 9.25 7.5 14.437 4.88 30.251-15.25 59.371-32.88 86.751-52.75 15.87 16.75 40.06 28.81 67.75 32.56 33.75 4.31 65.12-4.62 85.62-22.19-15-22.18-42.93-39.18-76.68-43.5-11.82-1.43-23.38-1.43-34.32 0 16.13-13.56 31.44-28.25 46.13-43.25 17.87 13 42.37 20.19 69.19 18.44 31.68-2 58.81-15.87 74.37-35.75-17.87-17.56-46.44-28.25-78.12-26.25-11.5.56-22.19 2.88-32.32 6.63a620 620 0 0 0 40.38-54.19c19.62 10.37 45.56 13.56 71.81 7.19 30.25-7.19 54.19-25.38 66-47.004-20.19-14.126-49.56-19.312-80.12-12.125-12.69 3.187-24.5 8.062-34.57 14.437a754 754 0 0 0 30.25-59.375c21.07 6.938 47.25 5.5 72.38-5.5 28.56-12.375 49-34.562 56.5-57.937-22.5-10.375-52.44-10.375-81 2.312-12.13 5.188-22.75 12.375-31.44 20.438 5.75-16.126 11.25-32.563 15.88-49 2.25-7.125 4-13.75 5.43-20.375z"/></svg>
