<svg width="130" height="130" viewBox="0 0 121 130" fill="none" xmlns="http://www.w3.org/2000/svg">
<rect width="130" height="130" fill="url(#paint0_linear_2_2)" x="-4.5"/>
<g filter="url(#filter0_di_2_2)">
<path d="M95.7135 43.6043C94.6199 35.5459 87.5351 29.1953 79.1366 27.9647C77.7196 27.7568 72.351 27 59.9148 27H59.822C47.3824 27 44.7135 27.7568 43.2966 27.9647C35.1319 29.1612 27.6757 34.8675 25.8667 43.0214C24.9966 47.0369 24.9037 51.4888 25.0654 55.5726C25.2958 61.4289 25.3405 67.275 25.877 73.1075C26.2479 76.9817 26.895 80.8251 27.8133 84.6088C29.5329 91.5968 36.4938 97.4122 43.3138 99.7848C50.6155 102.259 58.468 102.67 65.9919 100.971C66.8196 100.78 67.6381 100.559 68.4475 100.306C70.2737 99.7302 72.4164 99.086 73.9915 97.9542C74.0131 97.9384 74.0308 97.9178 74.0433 97.8942C74.0558 97.8706 74.0628 97.8445 74.0637 97.8179V92.1661C74.0634 92.1412 74.0574 92.1167 74.0462 92.0944C74.035 92.0721 74.0189 92.0525 73.9992 92.0371C73.9794 92.0218 73.9564 92.011 73.9318 92.0056C73.9073 92.0002 73.8819 92.0003 73.8574 92.0059C69.0369 93.1472 64.0971 93.7193 59.141 93.7103C50.6118 93.7103 48.3178 89.6981 47.6609 88.0278C47.1329 86.5842 46.7976 85.0784 46.6636 83.5486C46.6622 83.5229 46.667 83.4973 46.6775 83.4738C46.688 83.4502 46.7039 83.4295 46.724 83.4132C46.7441 83.397 46.7678 83.3856 46.7931 83.3801C46.8185 83.3746 46.8448 83.3751 46.8699 83.3816C51.6101 84.5151 56.4693 85.0873 61.3455 85.086C62.5183 85.086 63.6876 85.086 64.8604 85.0553C69.7647 84.919 74.9339 84.6701 79.7591 83.7361C79.8794 83.7123 79.9998 83.6918 80.103 83.6611C87.7139 82.2124 94.9569 77.665 95.6929 66.1501C95.7204 65.6967 95.7892 61.4016 95.7892 60.9312C95.7926 59.3325 96.3085 49.5901 95.7135 43.6043ZM83.9996 72.3371H75.9966V52.9069C75.9966 48.8163 74.277 46.7302 70.7793 46.7302C66.9343 46.7302 65.0083 49.1981 65.0083 54.0727V64.7082H57.0534V54.0727C57.0534 49.1981 55.124 46.7302 51.279 46.7302C47.8019 46.7302 46.0651 48.8163 46.0617 52.9069V72.3371H38.0656V52.3172C38.0656 48.2266 39.1191 44.9769 41.2262 42.568C43.3998 40.1648 46.2509 38.9308 49.7898 38.9308C53.8859 38.9308 56.9812 40.492 59.0447 43.6111L61.036 46.9245L63.0308 43.6111C65.0943 40.492 68.1896 38.9308 72.2788 38.9308C75.8143 38.9308 78.6654 40.1648 80.8459 42.568C82.9529 44.9746 84.0065 48.2243 84.0065 52.3172L83.9996 72.3371Z" fill="#FBFBFB" fill-opacity="0.97"/>
</g>
<defs>
<filter id="filter0_di_2_2" x="21" y="27" width="79" height="83" filterUnits="userSpaceOnUse" color-interpolation-filters="sRGB">
<feFlood flood-opacity="0" result="BackgroundImageFix"/>
<feColorMatrix in="SourceAlpha" type="matrix" values="0 0 0 0 0 0 0 0 0 0 0 0 0 0 0 0 0 0 127 0" result="hardAlpha"/>
<feOffset dy="4"/>
<feGaussianBlur stdDeviation="2"/>
<feComposite in2="hardAlpha" operator="out"/>
<feColorMatrix type="matrix" values="0 0 0 0 0.261224 0 0 0 0 0.16597 0 0 0 0 0.662652 0 0 0 0.4 0"/>
<feBlend mode="normal" in2="BackgroundImageFix" result="effect1_dropShadow_2_2"/>
<feBlend mode="normal" in="SourceGraphic" in2="effect1_dropShadow_2_2" result="shape"/>
<feColorMatrix in="SourceAlpha" type="matrix" values="0 0 0 0 0 0 0 0 0 0 0 0 0 0 0 0 0 0 127 0" result="hardAlpha"/>
<feOffset dy="4"/>
<feGaussianBlur stdDeviation="2"/>
<feComposite in2="hardAlpha" operator="arithmetic" k2="-1" k3="1"/>
<feColorMatrix type="matrix" values="0 0 0 0 0.337255 0 0 0 0 0.227451 0 0 0 0 0.8 0 0 0 0.05 0"/>
<feBlend mode="normal" in2="shape" result="effect2_innerShadow_2_2"/>
</filter>
<linearGradient id="paint0_linear_2_2" x1="61" y1="130" x2="61" y2="-91.5" gradientUnits="userSpaceOnUse">
<stop offset="0.0755157" stop-color="#563ACC"/>
<stop offset="0.520094" stop-color="#6364FF"/>
</linearGradient>
</defs>
</svg>
