<?xml version="1.0" encoding="UTF-8" standalone="no"?>
<svg width="12px" height="16px" viewBox="0 0 12 16" version="1.1" xmlns="http://www.w3.org/2000/svg" xmlns:xlink="http://www.w3.org/1999/xlink">
    <!-- Generator: Sketch 40.1 (33804) - http://www.bohemiancoding.com/sketch -->
    <!-- http://www.heropatterns.com/ -->
    <title>rain</title>
    <desc>Created with Sketch.</desc>
    <defs></defs>
    <g id="Page-1" stroke="none" stroke-width="1" fill="none" fill-rule="evenodd">
        <g id="rain" fill="#000000">
            <path d="M4,0.990777969 C4,0.443586406 4.44386482,0 5,0 C5.55228475,0 6,0.45097518 6,0.990777969 L6,5.00922203 C6,5.55641359 5.55613518,6 5,6 C4.44771525,6 4,5.54902482 4,5.00922203 L4,0.990777969 Z M10,8.99077797 C10,8.44358641 10.4438648,8 11,8 C11.5522847,8 12,8.45097518 12,8.99077797 L12,13.009222 C12,13.5564136 11.5561352,14 11,14 C10.4477153,14 10,13.5490248 10,13.009222 L10,8.99077797 Z" id="Combined-Shape"></path>
        </g>
    </g>
</svg>
