<svg xmlns="http://www.w3.org/2000/svg" viewBox="0 0 124.12477 127.91685" width="124.12476" height="127.91685"><path d="M72.584191 46.815676c-2.3-2.2-4.2-2.5-6.6-.6-2.4 1.9-2.1 4.8.9 7.6 3.1 2.9 4.7 4.1 6.7 5 2.1.9 5.4 2.5 10.5-2s10.2-11.1 9.4-14.7c-.8-3.6-4.1-1.8-6.8 1.2s-3.7 4-5.4 5.2c-1.5 1.3-3.8 3-8.7-1.7z" class="st0" style="fill:#93a1b5;stroke:#000;stroke-linecap:round;stroke-linejoin:round;stroke-miterlimit:10;fill-opacity:1"/><path d="M116.384191 75.015676c0 6.3-3.9 9.8-9.1 9.8-5.3 0-9.9-3.5-9.9-9.8 0-6.3 4.3-10.3 9.5-10.3s9.5 4 9.5 10.3z" style="fill:#3a434e;stroke:#000;stroke-linecap:round;stroke-linejoin:round;stroke-miterlimit:10;fill-opacity:1"/><path d="M54.184191 16.615676c-23 1.2-30.5 14.1-32.8 27.8-3 18.2-8.2 44.2-9.2 53.2s-1 16 6 22 11 5 23 7 19 0 20-8l16.8-1.1s14.5 5.5 18.8 6.9c4.3 1.4 10.6.5 12.1-7.1s.2-12.5-6.6-14.4c-6.8-1.9-10.6-2.9-10.6-2.9l4.4-30.1s17.4 1.6 22.6-20c0 0 3.9 1.1 4.8-2.8.9-3.9-2.6-6.2-5.6-4.8l-2.5-1s-.2-3.8-3.5-4.2c-2.1-.2-6 3.4-3 7.4 0 0-3.4 8.9-12 7.8-8.6-1.1-12.5-11.2-15-18.2s-10.7-18.3-27.7-17.5z" class="st2" style="fill:#56606b;stroke:#000;stroke-linecap:round;stroke-linejoin:round;stroke-miterlimit:10;fill-opacity:1"/><path d="M95.484191 69.915676c-.6 0-1.2 0-1.8-.1-4.2-.2-10.9-2.4-17-7.8-.7-1-.4-2-.2-2.5.5-1.1 1.7-1.8 3-1.8.8 0 1.5.3 2.2.8 3 2.2 7.8 5.1 13.8 5.1.9 0 1.8-.1 2.7-.2 7.2-1 12.1-5.8 14.3-9.9.6-1.2 1.3-2.5 1.8-3.5.2-.5.3-.7.6-.9.3-.2 1 .2 1 .2l2.1.8c-4.5 17.8-17.4 19.2-21.2 19.2h-1.3v.6z" class="st3" style="fill:#3a434e;opacity:.98;fill-opacity:1"/><path d="M48.884191 126.915676c-2.2 0-4.7-.2-7.6-.7-2.8-.5-5.1-.8-7.1-1-6.9-.9-10.3-1.3-15.6-5.9-7-6-6.8-13-5.8-21.6.3-2.3.8-5.9 1.7-11.2 3.1 1.4 6.1 2.2 8.7 2.2 3.1 0 5.4-1.2 6.6-3.4 1.6 1.9 6.9 7.3 13.3 7.3 1 0 1.9-.1 2.8-.4 3.5-1 19.8-2.1 46.9-3.4l-1.7 11.7.4.1s3.8 1 10.6 2.9c6.1 1.7 7.9 5.6 6.3 13.8-1.3 6.6-6.2 7.3-8.2 7.3-1.1 0-2.2-.2-3.3-.5-4.2-1.4-18.6-6.8-18.7-6.9h-.1l-17.3 1.2-.1.4c-.7 5.4-4.5 8.1-11.8 8.1z" class="st3" style="fill:#3a434e;fill-opacity:1"/><path d="M41.184191 103.415676c-3.8-1.4-6-1.4-7.7-1.4-1.8 0-4.6 3.3 1.4 5.4 6 2.1 10.3 3.4 10.3 3.4s1.8-2.1 3.5-2.9c1.6-.8 2.3-.9 2.3-.9l-9.8-3.6z" style="fill:#56606b;fill-opacity:1"/><path d="M27.584191 38.615676c1.2-5-2.1-8.2-5.7-9.2-3.5-1-8.4-1.7-13.9 6.9s-9.5 16.5-6.4 20.6c3.1 4.1 9.3 3.4 11.8-.8 0 0 5.7 3.8 9.5-4.2" class="st2" style="fill:#56606b;stroke:#000;stroke-linecap:round;stroke-linejoin:round;stroke-miterlimit:10;fill-opacity:1"/><path d="M10.884191 45.115676c-1.6 2.5-.8 5 2 5.9 2.7 1 5-1.5 6.5-3.8 1.6-2.3 3.6-5.9 3.6-5.9s-3.7 1.2-5.6-.2c-2-1.4-1.5-3.8-1.5-3.8l-5 7.8z" class="st3" style="fill:#3a434e;fill-opacity:1"/><path d="M22.684191 41.415676c-2.6 1.1-6.8.6-6.9-4.1 0 0-5.1 7.6-5.9 9.6" class="st5" style="fill:none;stroke:#000;stroke-linecap:round;stroke-linejoin:round;stroke-miterlimit:10"/><path d="M67.584191 5.215676c0-3.4-3.9-2.6-3.9-2.6 0-1.2-2-3.5-8.5-.6-6.4 2.9-7.3 6-7.3 6-3.8-1.7-9.6-2.6-13.5.8-3.9 3.4-4.3 10 2.3 13.5 0 0 2.9.9 7.7-.4 4.8-1.3 7.7-3.3 7.7-3.3s3.7 2.3 9 .6c5.3-1.7 9.9-4.5 10.3-10.1.5-5.7-3.8-3.9-3.8-3.9z" style="fill:#56606b;fill-opacity:1"/><path d="M67.084191 16.315676c-1-5.5-7-3-7-3 .5-2.1-3-4.1-5.5-2.7-2.5 1.4-6.6-.1-6.6-.1-6.4-4.4-14.3-2.1-16.1 2-1.1 3.3.2 7.3 4.8 9.7 0 0 2.9.9 7.7-.4 4.8-1.3 7.7-3.3 7.7-3.3s3.7 2.3 9 .6c2.3-.6 4.3-1.5 6-2.8 0 .1 0 0 0 0z" style="fill:#3a434e;fill-opacity:1"/><path d="M36.684191 22.715676c-.1 0-.2 0-.2-.1-3.1-1.6-5-4.1-5.4-7-.3-2.7.8-5.4 3-7.3 3.9-3.3 9.5-2.8 13.6-1.1.5-1.1 2.2-3.5 7.3-5.8 4.5-2 6.9-1.5 8-.8.6.4.9.9 1.1 1.3.7-.1 2-.1 3 .7.5.4.9 1 1 1.8.7-.1 1.8-.2 2.7.4 1 .7 1.4 2.1 1.2 4.1-.4 5-3.9 8.5-10.7 10.6-5.5 1.7-9.3-.6-9.4-.7-.2-.1-.3-.5-.2-.7.1-.2.5-.3.7-.2 0 0 3.6 2.2 8.6.6 6.3-2 9.6-5.1 10-9.7.1-1.6-.2-2.8-.8-3.3-.9-.7-2.3-.1-2.3-.1-.2.1-.3 0-.5 0-.1-.1-.2-.2-.2-.4 0-.8-.2-1.3-.6-1.7-.9-.8-2.6-.4-2.7-.4-.1 0-.3 0-.4-.1-.1-.1-.2-.2-.2-.4 0-.3-.2-.7-.7-1-.6-.4-2.6-1.1-7.1.8-6.1 2.7-7 5.6-7 5.7 0 .1-.1.3-.3.3-.1.1-.3.1-.4 0-3.9-1.7-9.3-2.4-13 .8-1.9 1.7-2.9 4.1-2.6 6.4.3 2.5 2 4.7 4.8 6.2.2.1.3.4.2.7-.1.3-.3.4-.5.4z"/><path d="M40.584191 84.115676s6.3 16.8 7.1 19.3c.8 2.5 1.8 3.4 7.3 3 5.5-.4 6.7-21.5 6.7-21.5l-21.1-.8z" style="fill:#191b22;stroke:#000;stroke-linecap:round;stroke-linejoin:round;stroke-miterlimit:10;fill-opacity:1"/><path d="M51.084191 103.415676c-1.7-2.1-1.9-4.2-1.9-4.2l2-10.9 3-1.4-3.1 16.5zm33.9-35.3l-23.9 1.9 1.2 8 25.2 1.1 4.6-9c-2.3-.3-4.7-.9-7.1-2z" class="st9" style="fill:#191b22;stroke:#000;stroke-linecap:round;stroke-linejoin:round;stroke-miterlimit:10;fill-opacity:1"/><path d="M28.484191 82.915676c7.2 9.4 12.7 11.4 21.8 7.7 8.5-3.4 15.4-9 15.1-15-.3-6-2.1-10.3-9.1-9.8-2.3.2-6.8 2.8-9.6 4.4-1.8 1-4.2 2.2-6 .4-1.8-1.8-4.3-4.4-4.3-4.4" class="st2" style="fill:#56606b;stroke:#000;stroke-linecap:round;stroke-linejoin:round;stroke-miterlimit:10;fill-opacity:1"/><path d="M49.284191 80.515676c-.3-.2-.5-.4-.7-.6-1.2.7-2.3 1.3-2.8 1.6-2 1.2-3.8.5-4.7-.3-.9-.9-2.3-2.4-5.5-1.5-3.7 1-4.5 5.7-2.5 8.4 6.5 6.1 12.8 4.1 15.2 3.3 2.4-.8 6.3-2.7 6.3-2.7l.6-6c-2-.8-4.1-.9-5.9-2.2z" class="st3" style="fill:#3a434e;fill-opacity:1"/><path d="M28.484191 82.915676c7.2 9.4 12.7 11.4 21.8 7.7 8.5-3.4 15.4-9 15.1-15-.3-6-2.1-10.3-9.1-9.8-2.3.2-6.8 2.8-9.6 4.4-1.8 1-4.2 2.2-6 .4-1.8-1.8-4.3-4.4-4.3-4.4m35.4-8.6c6.5 8.3 15.5 12.5 21.8 12.7" class="st5" style="fill:none;stroke:#000;stroke-linecap:round;stroke-linejoin:round;stroke-miterlimit:10"/><path d="M53.184191 104.415676c-1.6.1-2.7-1.1-2.4-2.7l4.9-25.9c.3-1.6 1.9-3 3.6-3.1l26.9-1.7c1.6-.1 3.6-1.4 4.4-2.9l.7-1.3c.7-1.5 2.7-2.8 4.4-2.9l4.5-.3c1.6-.1 3.1 1.1 3.3 2.8v.2c.2 1.6.5 3.7.7 4.6.2.9.3 3 .1 4.6l-2.2 21.3c-.2 1.6-1.7 3.1-3.3 3.3l-45.6 4z" style="fill:#191b22;fill-opacity:1"/><path d="M53.184191 104.415676c-1.6.1-2.7-1.1-2.4-2.7l4.9-25.9c.3-1.6 1.9-3 3.6-3.1l26.9-1.7c1.6-.1 3.6-1.4 4.4-2.9l.7-1.3c.7-1.5 2.7-2.8 4.4-2.9l4.5-.3c1.6-.1 3.1 1.1 3.3 2.8v.2c.2 1.6.5 3.7.7 4.6.2.9.3 3 .1 4.6l-2.2 21.3c-.2 1.6-1.7 3.1-3.3 3.3l-45.6 4z" class="st5" style="fill:none;stroke:#000;stroke-linecap:round;stroke-linejoin:round;stroke-miterlimit:10"/><path d="M55.684191 105.915676c-1.6.1-2.3-.4-2-2l4.4-25.6c.3-1.6 1.9-3 3.6-3.1l26.9-1.7c1.6-.1 3.6-1.4 4.4-2.9l.7-1.3c.7-1.5 2.7-2.8 4.4-2.9l4.5-.3c1.6-.1 3.1 1.1 3.3 2.8v.2c.2 1.6 1.3 2.9 2.5 2.8 1.2-.1 1.9 1.2 1.6 2.8l-5.2 24.9c-.3 1.6-2 3.1-3.6 3.2l-45.5 3.1z" style="fill:#191b22;fill-opacity:1"/><path d="M53.184191 104.315676l4.9-26c.3-1.6 1.9-3 3.6-3.1l26.9-1.7c1.6-.1 3.6-1.4 4.4-2.9l.7-1.3c.7-1.5 2.7-2.8 4.4-2.9l4.5-.3c1.6-.1 3.1 1.1 3.3 2.8v.2c.2 1.6 1.3 2.9 2.5 2.8 1.2-.1 1.9 1.2 1.6 2.8l-5.2 24.9c-.3 1.6-2 3.1-3.6 3.2l-46.7 3.7m9.2-103.9c-.3 2.9-2.9 4.9-4.1 5.8m8-3.2c-.7 3.5-4 6-4 6" class="st5" style="fill:none;stroke:#000;stroke-linecap:round;stroke-linejoin:round;stroke-miterlimit:10"/><path d="M39.884191 53.615676c-2.3-2.2-4.2-2.5-6.6-.6-2.4 1.9-2.1 4.8.9 7.6 3.1 2.9 4.7 4.1 6.7 5 2 .9 5.4 2.5 10.5-2s10.2-11.1 9.4-14.7c-.8-3.6-4.1-1.8-6.8 1.2s-3.7 4-5.4 5.2c-1.7 1.2-3.8 3-8.7-1.7z" class="st0" style="fill:#93a1b5;stroke:#000;stroke-linecap:round;stroke-linejoin:round;stroke-miterlimit:10;fill-opacity:1"/><path d="M44.384191 61.315676c-2.3 0-4.7-1.2-6.6-3.1-.9-.9-1.1-2-.7-2.9.3-.8 1.1-1.3 1.8-1.3.2 0 .5 0 .7.1 2.3 2.1 4.2 3.2 5.9 3.2 1.6 0 2.7-.8 3.5-1.4 1.7-1.3 2.8-2.3 5.5-5.3.9-1.1 1.9-1.9 2.7-2.4.3.2.6.4.7.8.2.8-.2 2-.7 2.7-.9 1.3-4.9 5.4-9 8.4-1.1.7-2.4 1.2-3.8 1.2z" style="fill:#b3bfcd;fill-opacity:1"/><path d="M45.784191 50.115676c-.7 0-1.4-.6-1.4-1.4v-6.1c0-.7.6-1.4 1.4-1.4.7 0 1.4.6 1.4 1.4v6.1c0 .8-.6 1.4-1.4 1.4z"/><path d="M61.184191 118.215676c.7-7.1-3.5-10.6-9.2-11.1-5.7-.5-10.2 6.8-9.1 13.1 1.1 6.3 6.7 7.2 6.7 7.2" class="st5" style="fill:none;stroke:#000;stroke-linecap:round;stroke-linejoin:round;stroke-miterlimit:10"/><path d="M52.084191 107.515676c-2.2-.7-4.3-1.4-6.5-2.2-2.1-.8-4.3-1.5-6.4-2.3-.1 0-.2-.2-.1-.3 0-.1.2-.2.3-.2 2.2.6 4.4 1.3 6.5 1.9 2.2.7 4.3 1.3 6.5 2 .3.1.4.4.3.6-.1.4-.4.6-.6.5zm25.4 10.1c-.2-1.4-.2-2.9.1-4.2.2-1.4.6-2.7 1.1-4-.3 1.3-.5 2.7-.6 4.1 0 1.4.1 2.7.4 4 .1.3-.1.5-.3.6-.2.1-.6-.1-.7-.5 0 .1 0 .1 0 0z"/><path d="M104.284191 103.615676c-3.6-.7-8.5 2.1-9.5 9.7s2.1 10.7 5.3 11.6m15.1-83.5l-.39999 1.4m-1.90001-1.2c2.4 1.7 6.4 3.4 6.4 3.4m-1.6-2.6l-.60001 1.59999" class="st5" style="fill:none;stroke:#000;stroke-linecap:round;stroke-linejoin:round;stroke-miterlimit:10"/><path d="M47.484191 79.215676c3.2 2.7 7 3.3 7 3.3" style="fill:none;stroke:#000;stroke-miterlimit:10"/><path d="M69.284191 24.315676c-3.5.4-2.7 2.9-1.2 3.5 1.5.6 3.7.1 4.3-1.6.4-1.6-1.3-2.1-3.1-1.9z" style="fill:#4f5862;fill-opacity:1"/></svg>