<svg xmlns="http://www.w3.org/2000/svg" height="134.1" width="134.6">
  <path d="M82.7 103.9c6.8 1.5 11 2.4 11.3-6.2.3-8.6-1.8-17.3-1.8-17.3l-13.6 1 4.1 22.5z" class="st32" fill="#3a434e" stroke="#000" stroke-linecap="round" stroke-linejoin="round" stroke-miterlimit="10"/>
  <path d="M65.4 113c-.2 10.3-.6 17.5 6.5 17.4 7.1-.1 12.6 1 13.6-5.3 1.1-6.3 1.9-20.6.7-28" class="st32" fill="#3a434e" stroke="#000" stroke-linecap="round" stroke-linejoin="round" stroke-miterlimit="10"/>
  <path d="m86.4 97.7-4.1-23.2s13.2-1.5 10.4-13C90 50 85.2 38.9 81.7 30.4s-14.5-17-28.6-15.7c-19.2 1.6-25.6 7-31.6 23a194 194 0 0 0-8.9 63.4c.8 8.7 5 13.7 14.4 13.5 9.4-.2 39.8-.8 49.8-2.8l.9-.2" class="st33" fill="#56606b"/>
  <path d="m85.9 97.8-4.1-23.2c0-.3.1-.5.4-.6a15 15 0 0 0 7.3-3.1 9 9 0 0 0 2.4-3.1c.5-1.2.7-2.5.6-4 0-1.2-.4-2.5-.7-4l-1.1-4-2.6-7.8c-1.9-5.2-4-10.4-6.1-15.5-.5-1.3-1-2.6-1.7-3.8a28.5 28.5 0 0 0-23.7-13.8c-2.7-.1-5.5.3-8.2.6-2.7.4-5.5.9-8.1 1.7a23.7 23.7 0 0 0-12.9 9.3 46.3 46.3 0 0 0-5.5 11l-1.3 4A179.6 179.6 0 0 0 14.1 74a152.6 152.6 0 0 0-1.2 24.9c.1 2.8.5 5.5 1.6 8 1 2.5 2.9 4.6 5.4 5.7a21 21 0 0 0 8 1.3l16.7-.4c11.1-.4 22.2-.8 33.2-2.3.1 0 .2 0 .2.2l-.1.2c-2.7.9-5.5 1.2-8.3 1.4l-8.3.6c-5.6.3-11.1.6-16.7.7l-16.7.4c-2.8 0-5.7-.1-8.4-1.3s-4.7-3.5-5.8-6.2a23.5 23.5 0 0 1-1.6-8.3c-.2-2.8-.2-5.6-.1-8.4a234.6 234.6 0 0 1 3.9-33.2c1.1-5.5 2.3-11 3.9-16.3l1.3-4 1.6-4c1.1-2.5 2.4-5 4-7.3s3.6-4.4 5.9-6.1c2.3-1.7 4.9-2.8 7.6-3.7 2.7-.8 5.5-1.4 8.2-1.7 2.8-.3 5.5-.7 8.4-.6a31 31 0 0 1 15.9 5 28.5 28.5 0 0 1 8.7 9.2c.7 1.3 1.2 2.6 1.7 3.9A415.3 415.3 0 0 1 91.8 55l1.1 4c.3 1.3.7 2.7.8 4.2a9.3 9.3 0 0 1-3.3 7.8c-2.3 1.9-5 2.8-7.9 3.3l.4-.6L87 97c0 .3-.1.5-.4.6-.3 0-.7.5-.7.2z"/>
  <path d="M26.5 114c-4.7 0-7.4-2-10-4.3-2.3-2-3.2-4.6-3.4-8.6-.1-2.7-.6-10 .4-18.8 3.8.9 9.7 3.8 13.4 7.6 5.6 5.7 17.7 6.3 22.7 6.3h1.8l.1-.4s.5-2.6 1.8-5.2l.3-.6-.7-.1c-.4-.1-10.9-2-9.7-10.8.7-5 13.3-8 33.9-8 2.2 0 3.8 0 4.2.2l3.5 2.2c-1.5.5-2.6.6-2.6.6h-.5l.1.6 4.1 24-8 13-.3-.1h-.9c-9.9 1.8-39.6 2.5-49.3 2.7l-.9-.2z" class="st34" fill="#3a434e"/>
  <path d="M45.9 51.4c-.7 0-1.4-.6-1.4-1.4v-5.1c0-.7.6-1.4 1.4-1.4.7 0 1.4.6 1.4 1.4v5c-.1.9-.7 1.5-1.4 1.5z"/>
  <path d="M72.9 30.4c-3.5.4-2.7 2.9-1.2 3.5 1.5.6 3.7 0 4.3-1.6.4-1.6-1.3-2.1-3.1-2z" class="st35" fill="#4f5862"/>
  <path d="M44.3 54c-.4.7-1.5.2-2.7-.6-1.2-.8-2.1-1.5-1.6-2.2.4-.7 1.6-.4 2.8.4 1.2.8 2 1.7 1.5 2.4z" class="st34" fill="#4f5862"/>
  <path d="M27.3 36.2c0-5.6-3.7-9.4-7.9-9.8-4.2-.4-9-.3-14 11.3-5 11.6-6.7 15.7-2.6 17.9 4.1 2.2 9.5 1.5 11.3-1.4 0 0 5.3 3.8 9.7-3.8" class="st36" fill="#56606b" stroke="#000" stroke-linecap="round" stroke-linejoin="round" stroke-miterlimit="10"/>
  <path d="M11.2 40.6c-2.7 5-2.7 7.7-.5 8.5 2.2.8 4.1.7 6.4-3 0 0 2 .7 4.9-4.1.9-1.5-.7-2.6-.7-2.6s-4.8 1.3-7.1-5l-3 6.2z" class="st34" fill="none"/>
  <path d="m9.8 43.4 4.4-9s1.8 6.3 7.8 4.9" class="st7" fill="none" stroke="#000" stroke-linecap="round" stroke-linejoin="round" stroke-miterlimit="10"/>
  <path d="M27.9 67.4c-4.9.8-9.7 4.5-9.3 15.7.4 11.2.5 18.7 6.1 20 5.5 1.3 13.8.3 14.1-7.1.3-7.4.3-16.1.3-16.1" class="st36" fill="#53606c" stroke="#000" stroke-linecap="round" stroke-linejoin="round" stroke-miterlimit="10"/>
  <path d="M28.7 103c-1.4 0-2.8-.2-4.1-.5a5 5 0 0 1-3-2c.5.2 1.1.3 1.7.3 1.2 0 5.2-.5 5.8-7.2.7-7.4 2.8-11 6.6-11 .8 0 1.6.2 2.6.5l-.2 12.7c-.2 6.7-7.2 7.2-9.4 7.2z" class="st34" fill="#3a434e"/>
  <path d="M50.7 19c-5.2 2.9-14.6 4.7-18.1-1.5-3-5.4 2.1-9.7 7.8-10 5.7-.3 7.6 1.2 7.6 1.2s1.9-6 9.3-7.7c3.9-1 6-.1 6.2 1.2 0 0 3.6-1 4 3.5 0 0 3.9-.4 3.1 5.2-.8 5.6-10.6 10-17.7 6.4 0 0-1.1 1.2-2.2 1.7z" class="st33" fill="#56606b"/>
  <path d="M40.8 21.7a9 9 0 0 1-6.3-2.3 5.3 5.3 0 0 1-.3-4.3 6.4 6.4 0 0 1 4.6-3.7c1.2-.2 2.6-.4 3.9-.4 3.3 0 6.2.8 7.3 1.9l.6.6.3-.7s.7-2 2.2-2c.2 0 .5 0 .8.2 2.2.9 3.5 1.2 4.6 1.2l1.3-.2.6-.1c.6 0 1.5.3 1.8.8.2.3.2.6.1 1l-.2.6h.7c.4 0 1.4.2 1.8.9.2.4.2 1-.2 1.7-1.8.8-3.8 1.2-5.7 1.2-2 0-4 0-5.6-.8 0 0-1.2 1.3-2.2 1.8-3.1 1.6-7 2.6-10.1 2.6z" class="st34" fill="#3a434e" fill-opacity=".9"/>
  <path d="M61.8 18.7a13 13 0 0 1-8.9-1.5l2.2.5c.7.2 1.4.2 2.2.3h2.2l2.2-.2h.1c.3 0 .5 0 .6.4-.1.2-.3.5-.6.5z"/>
  <path d="M37.6 21.3a7.5 7.5 0 0 1-5.7-4.5 5.8 5.8 0 0 1-.3-4 6.5 6.5 0 0 1 2.1-3.2c2-1.7 4.6-2.5 7.1-2.6h3.8l1.9.5 1.9.8-.8.2a12 12 0 0 1 2.8-4.2A14.6 14.6 0 0 1 59.3 0h2.6l1.3.7c.4.3.7.8.8 1.3l-.6-.4h1.7c.6 0 1.1.4 1.6.8.4.4.7.9.9 1.5l.2.8.1.8-.5-.4c1 0 1.9.3 2.6.9a4 4 0 0 1 1.1 2.5c.1.9 0 1.7-.1 2.5-.2.9-.5 1.7-1 2.4a11 11 0 0 1-3.7 3.4c-1.4.9-3 1.4-4.6 1.8-.3 0-.5-.1-.6-.4-.1-.3.1-.5.4-.6 1.5-.3 3-1 4.3-1.7a9.8 9.8 0 0 0 3.3-3.1 5 5 0 0 0 .8-2c.1-.7.2-1.5.1-2.2-.1-.7-.3-1.4-.8-2-.5-.3-1.2-.6-1.8-.6-.3 0-.5-.2-.5-.4l-.1-.7-.2-.7-.7-1.1c-.3-.3-.7-.5-1.1-.6h-1.3c-.3 0-.5-.1-.6-.4-.1-.5-.7-1-1.4-1.1-.7-.2-1.5-.2-2.2-.1-1.5.2-3.1.6-4.5 1.2-1.4.7-2.7 1.6-3.8 2.7-1.1 1-2 2.5-2.5 3.8-.1.3-.4.4-.6.3h-.1l-1.5-.6a57 57 0 0 1-1.7-.3H41c-2.4 0-4.7.8-6.5 2.3-.9.7-1.6 1.7-1.9 2.8-.3 1-.2 2.3.2 3.4s1.1 2 1.9 2.9c.6.9 1.7 1.5 2.9 1.9z"/>
  <path d="M63.5 2.2c0 3.5-2.6 5.5-4.3 6m8.3-2.5c.2 3.4-3.3 5.2-3.3 5.2" class="st7" fill="none" stroke="#000" stroke-linecap="round" stroke-linejoin="round" stroke-miterlimit="10"/>
  <path d="M90.3 84.8c2.6 2.3 3 4.3-2.4 4.8l-28.2 2.6c-2.4.3-3.4 1.7-3.4 2.8 0 1 .5 3.2 4 3 3.4 0 23.8-1.4 30.4-2.3 6.6-.8 14.4-2.4 13.4-9S98.7 78 98.7 78l-8.4 6.8z" class="st37" fill="#737039" stroke="#000" stroke-linecap="round" stroke-linejoin="round" stroke-miterlimit="10"/>
  <path d="M90.3 84.8c2.6 2.3 3 4.3-2.4 4.8l-28.2 2.6c-2.4.3-3.4 1.7-3.4 2.8 0 1 .5 3.2 4 3 3.4 0 23.8-1.4 30.4-2.3 6.6-.8 13.8-2.3 13.4-9-.3-5.5-3.1-7-4.4-8.1l-1.6-.2-7.8 6.4z" fill="#625d28" stroke="#000" stroke-linecap="round" stroke-linejoin="round" stroke-miterlimit="10"/>
  <path d="M102.7 64.7c5.4-.1 10.3-2 12.2-6.5 1.9-4.6 8.7-10.1 14.2-2.1 5.4 8 6.6 17.3 2.8 23.7-3.8 6.5-12.1 3.5-14.9-.5-2.7-4-8.6-3-14.5-2.7-5.9.2.2-12 .2-12z" class="st37" fill="#737039" stroke="#000" stroke-linecap="round" stroke-linejoin="round" stroke-miterlimit="10"/>
  <path d="M65.9 54.9s10.2 21.3 13.5 26.8c3.2 5.5 12.9 6.2 17.4 3.5 4.5-2.7 7.3-7.3 8-15.1.7-8-2.4-15-10-15.2-7.6-.3-11.9 7.6-12.1 13.7" class="st36" fill="#53606c" stroke="#000" stroke-linecap="round" stroke-linejoin="round" stroke-miterlimit="10"/>
  <path d="M65.9 54.9s10.2 21.3 13.5 26.8c3.2 5.5 12.9 6.2 17.4 3.5 4.5-2.7 7.3-7.3 8-15.1.7-8-2.4-15-10-15.2-7.6-.3-11.9 7.6-12.1 13.7" class="st36" fill="#56606b" stroke="#000" stroke-linecap="round" stroke-linejoin="round" stroke-miterlimit="10"/>
  <path d="M90.2 86.2c-3.7 0-8.3-1.3-10.4-4.8-.9-1.5-2.4-4.3-4.4-8.4l5.9-.1c4 7.4 5.9 9.8 8 9.8 3.9 0 6-3.4 6.9-9.5l.4-3.4c.5-4.6.9-7.2 3.4-7.5l.9-.1c2.1 0 2.5 1.2 3.1 2.8l.2.7v4.2c-.7 7.3-3.1 11.9-7.7 14.7-1.6 1-3.9 1.6-6.3 1.6z" class="st34" fill="#3a434e"/>
  <path d="m89.2 63.9-.3 6.6-.4 3.3-.5 1.7c-.3.5-.6 1-1.2 1.5-.2 0-.5 0-.7-.2a.5.5 0 0 1 .2-.7c.7-.4 1.1-1.5 1.3-2.5l.5-3.2.5-6.6c0-.2.2-.3.3-.3.2 0 .3.3.3.4z"/>
  <path d="M52.3 68.7c-6.3.6-11.1 3.9-10 10.7 1.1 6.8 7.6 8 16 7.7l26.4-1.3s-3.3-1.7-4.8-3.3L78.3 80c-1.6 0-15.5.8-22.7 1-3.4 0-3.8-1.2-3.9-1.8-.3-1.2.5-2.7 2.8-2.8 3.1-.2 10.8-.7 21.4-.7h11.5s.9-.3 1-9.1c0-.1-29.8 1.5-36.1 2z" class="st37" fill="#737039" stroke="#000" stroke-linecap="round" stroke-linejoin="round" stroke-miterlimit="10"/>
  <path d="M56.2 86.7c-8.8 0-12.6-2.3-13.5-7.4l-.1-.4a7.7 7.7 0 0 0 5.6 2.7 5 5 0 0 0 3.6-1.5c.5.7 1.4 1.4 3.7 1.4h.4c6.9-.2 19.5-.8 22.1-1 .6 1.2 1.2 2 1.6 2.5a13 13 0 0 0 3.6 2.5l-24.7 1.2h-2.3z" class="st39" fill="#625d28"/>
  <path d="M44.1 57.9c-2.2-.6-5.8-8.3-8.7-8.7-2.9-.3-6.6 1.6-3.2 8.5 3.4 6.9 8 10 14.3 8.2 6.3-1.8 12.7-5.1 14.5-8.3 1.8-3.2-.6-6.2-4.8-4.3-4.1 1.7-9.9 5.2-12.1 4.6z" fill="#b3bfcd" stroke="#000" stroke-linecap="round" stroke-linejoin="round" stroke-miterlimit="10"/>
  <path d="M43.1 65.9c-4.3 0-7.7-2.7-10.4-8.4-1.4-2.8-1.7-5.1-.8-6.4.8-1.3 2.3-1.4 2.9-1.4h.6c.4 0 .8.2 1.2.6a2 2 0 0 0-1.6 1.2c-.6 1.2-.3 2.9.9 4.7l.4.6c2.1 3 4.1 6 7.8 6a32 32 0 0 0 14-6c1.2-1.3 1.9-2.6 1.7-3.6.5.2.9.5 1.1.9.5.8.4 1.9-.2 3-1.6 2.8-7.4 6.2-14.2 8-1.2.6-2.3.8-3.4.8z" class="st35" fill="#93a1b5"/>
  <path d="M13.9 107.7c-.1 5 1.3 10.2 2.3 14.8 1.3 5.5 1.3 10 5.2 10.7 3.9.6 10.1.9 14.4 0 4.3-1 4.1-5.2 4.5-8.2.4-3.1 0-10.7 0-10.7s-1.1-1.4-3-2" class="st34" fill="#3a434e"/>
  <path d="M14.4 107.7c-.1 5.2 1.3 10.3 2.5 15.4l.8 3.9a19 19 0 0 0 1.1 3.6c.3.5.6 1 1.1 1.4.5.3 1 .5 1.6.6l3.9.4c2.6.2 5.2.2 7.8 0 1.3-.1 2.6-.3 3.7-.7a4 4 0 0 0 2.3-2.6c.4-1.2.5-2.4.7-3.7l.2-2 .1-1.8c0-2.6 0-5.2-.2-7.8l.1.3-.5-.6-.6-.6c-.4-.4-.9-.7-1.5-1l-.1-.1.2-.1a5 5 0 0 1 1.7.6c.3 0 .5.3.8.5l.8.6.1.2.2 7.9-.1 2-.2 2c-.1 1.3-.3 2.7-.7 4a5.4 5.4 0 0 1-2.8 3c-1.4.7-2.7.8-4 .9-2.7.2-5.3.2-8 0l-4-.4a5 5 0 0 1-2-.8c-.6-.5-1-1.1-1.4-1.7-.6-1.3-.9-2.6-1.2-4l-.8-3.8c-1.1-5.1-2.6-10.3-2.5-15.6 0-.3.2-.5.5-.5.2 0 .4.2.4.5z"/>
  <path d="m68.2 86.7.4 4.6s.3 1.5 2.4 1.5c2.1-.1 2.2-2 2.2-2l-.1-4.5-4.9.4z" class="st37" fill="#737039" stroke="#000" stroke-linecap="round" stroke-linejoin="round" stroke-miterlimit="10"/>
  <path d="M110.5 71.5c-.5 1.8.5 2.9 3.8 4.6 3.3 1.8 4 5 8.2 6 4.3.9 8.2-4.5 3.8-10.1-4.5-5.6-14.1-6.5-15.8-.5z" class="st39" fill="#625d28"/>
  <circle r="1.7" cy="57.8" cx="126.1" fill="#99988c"/>
  <path d="M17.4 115.3s.8 3.9 1.1 6.3c.3 2.4.9 3.8 5.9 3.2 5-.6 4.9-1.5 5.1-6.4.2-5-.1-7.4-3.7-7.6-3.6-.2-9.1.7-8.4 4.5z" class="st33" fill="#56606b"/>
  <path fill="#3a434e" class="st34" d="M11.2 40.6c-2.7 5-2.7 7.7-.5 8.5 2.2.8 4.1.7 6.4-3 0 0 2 .7 4.9-4.1.9-1.5-.7-2.6-.7-2.6s-4.8 1.3-7.1-5l-3 6.2z"/>
</svg>
