<svg xmlns="http://www.w3.org/2000/svg" xmlns:xlink="http://www.w3.org/1999/xlink" width="252.9" height="194.5">
  <g transform="translate(-395.9 -830.4)">
    <defs>
      <path id="a" d="M395.9 745.1h294.6v279.8H395.9z"/>
    </defs>
    <clipPath id="b">
      <use xlink:href="#a" width="100%" height="100%" overflow="visible"/>
    </clipPath>
    <path class="st53" d="M339.3 1028.6c1.5-3.2 14.4-31.3 27.4-58.8-6-9.3-2-17 1.5-23.7 1.9-3.7 3.8-7.1 3.6-10.4-.8-22 8.1-38.3 22.8-41.6 2.8-.6 5.2-.9 7.5-.9 3 0 5.6.5 8.1 1.6l4.2-3.8a12.8 12.8 0 01-4.5-8.8c-.3-4.5 2.2-9.5 6.8-13.7a48.1 48.1 0 0134.3-12.8c-.4-.9-1-2-2.1-2.9-2.1-1.6-1.9-3.2-1.6-4 .7-2.1 3.6-3.2 8.1-3.2a25 25 0 0114 4.4c.3-.7.7-1.3 1.3-1.7.5-.3 1.3-.5 2.2-.5 3.4 0 10.6 2.7 15.5 9.9 3.6 5.3 3.6 10.8.1 16a88.9 88.9 0 0139.5 24.4c2.5 2.4 5 4.6 7.3 6.5a50.3 50.3 0 0032.7 13.2l2.7-.1c2-13.5-4.1-25.5-10-35.7-6.2-10.7-6.4-12.1-4.9-13.9l.1-.1c.6-.7 1.3-1 2.1-1.1h.3c1.7 0 4.5 1 13 8.7 9.9 9 16.9 22.2 19.2 36.5a33.7 33.7 0 0017.1-20.3c2-8.6.5-16.8-4.2-22.7l-13.1 6.1-7-16.9-15.6 3.2 7.2-19.5h.1l-.2-.5 4.6-11.1 65.7 11.9c3.1.6 3.9 2.7 3.6 4.5l-.2 1-.4-.1c-.3.4-.6.7-1 .9l-21 9.9c2.1 2.9 2.2 6.1.4 9.4-1.1 1.9-2.5 6.2.4 13.3 3.7 8.9 3.5 29.2-8.3 46.2-8.1 11.7-18.3 23-37.6 26.6-3 4.6-6.5 9-10.2 12.6a64 64 0 01-42.3 15.3c-5.3 0-10.7-.6-15.9-1.9a75.2 75.2 0 00-10.6 32.1c-.2 11 .9 16.1.9 16.2l.4 1.8-164.9.8.9-2.3z" clip-path="url(#b)"/>
    <path class="st53" d="m339.8 1028.8 27.5-59.1c-6.1-9.2-2.1-16.8 1.4-23.5a23 23 0 003.7-10.6c-.8-21.7 8-37.9 22.4-41 2.7-.6 5.1-.9 7.4-.9 3 0 5.7.5 8.2 1.7a67 67 0 014.9-4.4c-3-2.6-4.6-5.5-4.8-8.8-.3-4.4 2.1-9.2 6.6-13.3a47.7 47.7 0 0134.7-12.7 7 7 0 00-2.5-3.8c-1.8-1.4-1.7-2.8-1.5-3.4.6-1.8 3.4-2.9 7.6-2.9 4.4 0 10.3 1.5 14.3 4.8.1-.9.6-1.7 1.3-2.1.4-.3 1.1-.4 1.9-.4 3.3 0 10.3 2.6 15.1 9.7a13 13 0 01-.3 16.1 88.8 88.8 0 0140 24.4c2.6 2.4 5 4.6 7.3 6.5a51.2 51.2 0 0033.1 13.3l3.1-.1c2.2-13.9-4-26.1-10-36.4-6.3-10.9-6.2-11.8-5-13.3l.1-.1c.2-.2.7-.9 1.8-.9h.2c1.5 0 4.2 1 12.7 8.6 10 9.1 17 22.5 19.2 36.9 9.3-5 16-12.8 17.9-20.9 2.1-8.9.4-17.4-4.5-23.4l-13 6.1-6.9-16.8-15.1 3.1 6.8-18.4h.6l-.5-1 4.4-10.6 65.3 11.8c3.5.7 3.3 3.2 3.2 3.9l-.1.5h-.2c-.2.4-.6.8-1 1l-21.6 10.2.3.4c2 2.7 2.2 5.8.4 8.9-1.1 2-2.6 6.4.4 13.7 3.6 8.8 3.4 28.8-8.2 45.7-8.1 11.7-18.2 22.9-37.5 26.4a68 68 0 01-10.3 12.7 63.7 63.7 0 01-42 15.1 67 67 0 01-16.1-2 79.1 79.1 0 00-10.9 32.7c-.2 11.1.9 16.2.9 16.3l.3 1.2-163.5.8.5-1.7z" clip-path="url(#b)"/>
    <path d="m577.5 843.7-1-2.1 3.9-9.4 64.5 11.6c2.4.5 2.5 2 2.4 2.8" clip-path="url(#b)" stroke-miterlimit="10" fill="#fff" stroke="#000" stroke-linecap="round" stroke-linejoin="round"/>
    <path d="m584.2 856.7 6.9 16.6 55.5-26c.9-.5 1.5-2.2-1-2.3l-69.6-1.4-5.9 16 14.1-2.9z" clip-path="url(#b)" stroke-miterlimit="10" fill="#fff" stroke="#000" stroke-width="1.7" stroke-linecap="round" stroke-linejoin="round"/>
    <path d="m585.1 857 58.9-11.2 1.4-.5h.4c.8 0 .7.3.8.6.1.3-.1.6-.4.8L587 861.5l-1.9-4.5z" clip-path="url(#b)" fill="#d1d3d4"/>
    <path class="st57" clip-path="url(#b)" stroke-miterlimit="10" d="m584.2 856.7 61.8-11.5" fill="none" stroke="#000" stroke-linecap="round" stroke-linejoin="round"/>
    <path class="st58" d="M388.5 927.9c20-40 49.9-56.3 83.4-54.9 33.6 1.4 48.8 21.7 62.4 32.9a50 50 0 0043.4 12.5c15.9-3.1 28.5-14.6 31.2-26.1s-1-20.7-6.1-25.8c-5.1-5.1-1.4-8.1 4.1-6.8 5.4 1.4 8.1 3.4 8.1 3.4s7.8-6.4 9.8-3.7c2 2.7 1.7 5.4.3 7.8-1.4 2.4-2.7 7.1.3 14.6a52.6 52.6 0 01-8.1 44.8c-12.2 17.6-26.5 30.1-62.1 26.5-38.5-3.9-54.6 44.2-54.9 59-.2 11.5.9 16.5.9 16.5l-160.7.8c.2-.1 33.4-72.4 48-101.5z" clip-path="url(#b)" stroke-miterlimit="10" fill="#53606c" stroke="#000" stroke-linecap="round" stroke-linejoin="round"/>
    <path class="st59" d="M519.2 960.2l5.9 1.6c7.8-6.2 16.5-9.4 25.9-9.4 1.4 0 2.9 0 4.4.2 4.1.4 8 .6 11.6.6 26.1 0 38.5-10.3 50-26.9 1.1-1.5 2.1-3.1 3-4.8-.1 0 .7-1 .6-1.1-1.5-.8-3.3-.4-4.7 2-1.5 2.6-5.5 6.4-12 12.4a56.7 56.7 0 01-45.4 11.4c-3.8-.8-7.5-1.2-11-1.2a31 31 0 00-28.3 15.2Zm-95.3-49 8.6-11.6h.3l2.9.1a34 34 0 0018-4.2l5.3-3.7c7.3-5.1 15.5-10.8 18.5-11.6.4-.7 2.3-3.6.8-6.3l-6.4-.5a78.5 78.5 0 00-60.4 22.9c1.6.7 6.7 3.8 12.4 14.9Zm-24.5 78.1c2.9 0 5.9-1 8.9-2.7 11-7 17-19.6 13.8-25.3-2.6 9-11.6 19.6-18.3 22.1-1.4.5-2.7.8-3.9.8-4.5 0-6.8-3.4-7.5-4.7-1 .4-3.4 1.3-6.6 1.3-4.3 0-10.9-1.7-17-9.7l-.2-.3-4.3 9.1c4.2 4.3 9.5 6.5 15.6 6.5 2.9 0 5.9-.5 9-1.5l.3-.1.2.2c.1 0 3.9 4.3 10 4.3Z" clip-path="url(#b)" fill="#38434f"/>
    <path class="st58" d="M422.1 961c-1.8 8.1-10.5 18.6-18.5 21.6s-11-4.1-11-4.1-12.3 6.5-23.5-8 4.7-24.8 4.3-35c-.8-22 8.2-37 21.6-40 13.4-2.9 23.3.8 32.4 25" clip-path="url(#b)" stroke-miterlimit="10" fill="#53606c" stroke="#000" stroke-linecap="round" stroke-linejoin="round"/>
    <path class="st59" d="M417.2 934.2s.8 3.3-4 11.8-18.4 18.2-28.5 11.3c-10.2-6.9.6-14.4 0-29.7-.2-7.3 3.8-16.5 14.2-19s13.3 6.1 13.3 6.1-5 1.6-4 5.3c1 3.8 6.3 4 6.3 4s-3.4 1.1-4.6 3.2c-1.3 2.2 0 7.5 7.3 7Z" clip-path="url(#b)" fill="#38434f"/>
    <path class="st57" d="M384.7 927.6c-.4-7.3 3.8-16.5 14.2-19s13.3 6.1 13.3 6.1-5 1.6-4 5.3c1 3.8 6.3 4 6.3 4s-3.4 1.1-4.6 3.2c-1.3 2.2 0 7.5 7.3 7m-15.5 36.9s-2.8 3.6-9.1 7.5" clip-path="url(#b)" stroke-miterlimit="10" fill="none" stroke="#000" stroke-linecap="round" stroke-linejoin="round"/>
    <path d="M417.5 891.4c-9.8-6.9-6.2-16 .3-21.8s19-14 35.2-12.2c0 0-.2-3.5-3.1-5.8s-.5-4.5 5.5-4.5 12.9 2.6 15.8 6.9c0 0-1.4-3.2.4-4.4 1.8-1.2 10.2 1 15.6 9s1.1 14.9-5.2 19.9-36.2 11.6-48.8 10.9" clip-path="url(#b)" fill="#53606c"/>
    <g class="st53" clip-path="url(#b)">
      <path class="st36" d="M459.5 878.7c-11.1.6-22.1 3.3-32.9 6.1a40.7 40.7 0 01-12.4 2l-1.3-.1c1 1.6 2.5 3.2 4.6 4.7l15.6-2.1c11.3.7 37-4.7 46.4-9.4a95.2 95.2 0 00-20-1.2z" fill="#38434f"/>
    </g>
    <path class="st59" d="M417.5 890.8c1-.6 4.1-2.1 11.6-2l4 .1 2.1.1a141.6 141.6 0 0042.1-8.6c.8-2.1.8-3.8 0-5.4-1.5-3-6.1-5.1-13.8-6.7-1.6-.3-3.4-.5-5.3-.5-9.7 0-21.9 4.4-29.1 10.4-2 1.7-4.2 2.6-6.3 2.6a7 7 0 01-6.3-4 7 7 0 01-.5-4.7c-2.8 3.2-4.2 6.7-4 9.9.2 3.3 2 6.3 5.5 8.8Z" clip-path="url(#b)" fill="#38434f"/>
    <path class="st57" d="M472.3 860.7s1.1-3.3-1.1-6.7" clip-path="url(#b)" stroke-miterlimit="10" fill="none" stroke="#000" stroke-linecap="round" stroke-linejoin="round"/>
    <path d="M489.6 967.9s2.1 0 4.3-1.9-1-5.5-1-5.5c1.9 1.4 3.2 1.7 4.2.6 1-1.1-1.5-3.3-1.5-3.3s3.3 2.9 5.9.9-.1-5-.1-5 6.8 3.2 11.1 2.9c4.4-.3 3.4-4.3 3.4-4.3 4.5 1.8 12.1 7.2 26.1 3.2 14-4.1 25.7-18.4 29.6-34s-3.1-29.1-9.5-40.2-5.8-11.2-5-12.2c.8-1 2.5-1.9 13.2 7.7a61.7 61.7 0 0119.5 42.8 63.5 63.5 0 01-20 45.9 65.4 65.4 0 01-80.2 2.4Z" clip-path="url(#b)" stroke-miterlimit="10" fill="#b3becd" stroke="#000" stroke-width="1.6" stroke-linecap="round" stroke-linejoin="round"/>
    <path d="M528.6 979.9A67.4 67.4 0 01491 968.2c.9-.2 2.1-.7 3.3-1.8 1.4-1.3 1-3 .3-4.3l1.1.2c.7 0 1.3-.3 1.8-.8.3-.3.4-.6.4-1l-.2-.9c.6.2 1.2.4 1.9.4a4 4 0 002.4-.8l.7-.8a72.6 72.6 0 0031.5 9.1 35 35 0 0021.1-6.9 68.8 68.8 0 0024.6-27.9l.3-.6c2.3-4.5 4.2-6.5 6.4-6.5.9 0 1.7.3 2.7.9a65.4 65.4 0 01-19.6 38.6 63 63 0 01-41.1 14.8z" clip-path="url(#b)" fill="#92a1b5"/>
    <path class="st57" d="M489.6 967.9c-3.9.1-6.7-.9-6.7-.9" clip-path="url(#b)" stroke-miterlimit="10" fill="none" stroke="#000" stroke-linecap="round" stroke-linejoin="round"/>
    <path d="M484 908.3c-2.2.9-2.1 3.2.1 6.7l5.9 10.3c1.4 2.4 2.6 3.5 4 2.8 1.4-.6 1.8-2 .4-4.9-1.4-2.9-5.8-11-7.2-12.7-1.6-1.7-2.4-2.5-3.2-2.2z" clip-path="url(#b)" stroke-miterlimit="10" fill="#38434f" stroke="#000" stroke-width="1.5" stroke-linecap="round" stroke-linejoin="round"/>
    <path class="st57" d="M525.9 907.8c2.5-3.7 4.8-5.2 4.8-5.2m3.8 11.9c1.5-3.1 3.7-5.6 3.7-5.6m11.9 13.3c1-3.9 2.7-5.6 2.7-5.6m10.7 9 .9-6.6" clip-path="url(#b)" stroke-miterlimit="10" fill="none" stroke="#000" stroke-linecap="round" stroke-linejoin="round"/>
    <g class="st53" clip-path="url(#b)" fill="none" stroke="#e3e5e5" stroke-width="3" stroke-linecap="round" stroke-linejoin="round">
      <path class="st49" d="m504.9 862.2 2.2-1.1"/>
      <path d="M519.8 856.2c13.6-3.5 22.1.5 28.2 3.3a58.8 58.8 0 0 0 17.6 5.3" stroke-dasharray="4.5 13.6"/>
      <path class="st49" d="m572.4 864.5 2.4-.7"/>
    </g>
    <g class="st53" clip-path="url(#b)">
      <path d="M491.2 946.7a59.3 59.3 0 0 0-10 3.5c-2.1.9-4.6.1-5.6-1.9s0-4.6 2.3-5.6c4.3-1.9 6.6-2.7 11.2-3.9 2.4-.6 4.8.8 5.3 2.9.4 2.2-1 4.4-3.2 5z" fill="#505762"/>
    </g>
    <path class="st57" d="M515.8 952.3c-.2-2.3-1.7-3.3-1.7-3.3" clip-path="url(#b)" stroke-miterlimit="10" fill="none" stroke="#000" stroke-linecap="round" stroke-linejoin="round"/>
    <g class="st53" clip-path="url(#b)">
      <path d="M454.5 887.5c-3.5.7-7.1 1.3-10.6 1.7-3.6.4-7.2.8-10.8.6-.3 0-.5-.2-.5-.5s.2-.5.5-.5c3.5.2 7.1-.1 10.6-.4 3.5-.4 7.1-.9 10.6-1.6.2 0 .4.1.4.3.1.2 0 .4-.2.4z"/>
    </g>
    <g class="st53" clip-path="url(#b)">
      <path d="M417.2 891.8a15.4 15.4 0 01-5.4-6.2l-.4-1-.2-1-.1-.5v-.5l-.1-1.1c0-1.4.2-2.8.7-4.1.9-2.6 2.6-4.9 4.4-6.9a43.8 43.8 0 0113.2-9.3 43.7 43.7 0 0123.7-4.3l-.6.5c-.2-1.3-.7-2.7-1.4-3.8a5 5 0 00-1.4-1.5c-.5-.5-1.2-1-1.5-1.9l-.1-.7.2-.7c.2-.4.6-.7.9-.9a6 6 0 012.2-.9 22.5 22.5 0 0113 1.4 16 16 0 017.1 5.3l-.9.5a5 5 0 01-.5-2.1c-.1-.7 0-1.5.4-2.3.3-.3.5-.7 1-.8l.6-.2.6-.1 2.1.2c1.4.3 2.6.8 3.9 1.4a22.5 22.5 0 019.1 8c.7 1.2 1.4 2.4 1.8 3.7.3.6.4 1.3.5 2l.1 1v1a13 13 0 01-3 7.6c-1.7 2.2-3.6 4-5.9 5.6-2.4 1.4-4.9 2.3-7.4 3.2-2.5.8-5.1 1.5-7.8 1.9l3.7-1.4 3.7-1.3c2.5-.9 5-1.8 7.2-3.2a26 26 0 005.6-5.4c1.5-2.1 2.6-4.5 2.7-7 .1-2.5-.8-5-2.2-7.1a20.2 20.2 0 00-5.3-5.6 20.2 20.2 0 00-6.9-3.4l-1.8-.2c-.6 0-1 .1-1.3.5-.5.8-.2 2.3.2 3.4.1.3 0 .5-.3.6-.2.1-.4 0-.6-.2-1.6-2.3-4-3.8-6.6-4.9a21.1 21.1 0 00-12.4-1.3l-1.8.7c-.5.4-.8.8-.7 1.3s.6.9 1.2 1.4a9.4 9.4 0 013.1 6c0 .3-.2.5-.4.5h-.1a42.1 42.1 0 00-23.2 4.2A42.3 42.3 0 00423 866a37.5 37.5 0 00-6.1 5.1 18.2 18.2 0 00-4.2 6.5 16 16 0 00-.7 3.8l.1 1v.5l.1.5.2.9.4.9a14 14 0 005 5.8c.2.2.3.5.1.7s-.4.3-.7.1z"/>
    </g>
    <g class="st53" clip-path="url(#b)">
      <path class="st36" d="M615.1 863.2c2 1.2 2.3 1.8 2.3 1.8" fill="#38434f"/>
      <path d="m615.3 862.9 1.2.9.6.5.5.6-.1.2h-.2l-.5-.5-.6-.4-1.3-.7c-.2-.1-.2-.3-.1-.5s.2-.2.5-.1c-.1 0-.1 0 0 0z"/>
    </g>
  </g>
</svg>
