<svg xmlns="http://www.w3.org/2000/svg" width="384" version="1.1" height="384">
  <g transform="translate(-282.71845,-76)" id="RenderLayer_LineSet">
    <g id="strokes">
      <path style="fill:none;stroke:#87B97D;stroke-width:3;stroke-linecap:butt;stroke-linejoin:round;stroke-opacity:1" id="path2" d="m 405.991,306.829 v 10 10 10 10 10 10 10 10 6.581 5.978 9.656 3.057" />
      <path style="fill:none;stroke:#87B97D;stroke-width:3;stroke-linecap:butt;stroke-linejoin:round;stroke-opacity:1" id="path4" d="m 405.991,409.044 v 0 -9.656 -5.978 -10 -10 -10 -10 -10 -10 -10 -10 -6.581" />
      <path style="fill:none;stroke:#87B97D;stroke-width:3;stroke-linecap:butt;stroke-linejoin:round;stroke-opacity:1" id="path6" d="m 370.692,127.899 v 1.329 10 1.4 10 0.947 4.955 2.701 10 10 10 10 10 9.658 10 10 10 10 10 10 1.283" />
      <path style="fill:none;stroke:#87B97D;stroke-width:3;stroke-linecap:butt;stroke-linejoin:round;stroke-opacity:1" id="path8" d="m 439.906,283.073 v 0 h -10 -10 -10.303 -3.612 -10 -10 -10 -2.337 l -2.962,-2.901 v 0" />
      <path style="fill:none;stroke:#87B97D;stroke-width:3;stroke-linecap:butt;stroke-linejoin:round;stroke-opacity:1" id="path10" d="m 373.654,283.073 -2.962,-2.901 v -10 -10 -10 -10 -10 -10 -1.283 -10 -10 -10 -10 -10 -9.658" />
      <path style="fill:none;stroke:#87B97D;stroke-width:3;stroke-linecap:butt;stroke-linejoin:round;stroke-opacity:1" id="path12" d="m 370.692,127.899 h -7.383 -10 -2.899 -5.311 v 0 l -0.45,0.28 -0.37,0.387 -0.268,0.47 v 0.192 10 1.4 10 0.947 4.955 2.701 10 10 10 10 10 9.658 10 10 10 10 10 10 1.283 2.901 10 4.487 5.906 3.363 10 10 10 10 10 10 10 10 6.581 l 6.235,6.039 7.183,6.957 2.643,2.56 3.237,3.135 v 0 h 7.383 2.962 10 10 10 2.337 v 0 0 -3.057" />
      <path style="fill:none;stroke:#87B97D;stroke-width:3;stroke-linecap:butt;stroke-linejoin:round;stroke-opacity:1" id="path14" d="m 584.095,303.466 3.074,3.363 v 10 10 10 10 10 10 10 10 6.581 6.183 9.988 10e-4 0.001 2.518 h 6.497 10 2.976 7.534 v 0 0" />
      <path style="fill:none;stroke:#87B97D;stroke-width:3;stroke-linecap:butt;stroke-linejoin:round;stroke-opacity:1" id="path16" d="m 615.989,393.41 v -10 -10 -10 -10 -10 -10 -10 -10 -6.581 -3.363 -5.906 -10 -4.487 -2.901 -10 -10 -10 -10 -10 -10 -1.283 -10 -10 -10 -10 -10 -9.658 -2.701 -4.955 -10 -0.947 -10 -1.4 -0.061 l -0.299,-0.524 -0.394,-0.413 -0.019,-0.019 v 0" />
      <path style="fill:none;stroke:#87B97D;stroke-width:3;stroke-linecap:butt;stroke-linejoin:round;stroke-opacity:1" id="path18" d="m 584.093,129.228 h -10 -10 -10 -10 l -10,-0.001 h -10 -5.476 -10 -10 -10 -10 -10 -10 l -10,-0.001 h -8.828 -10 -10 -10 -0.326 -3.615 l -10,0.001 h -10 l -10,0.001 h -2.205 -2.951 v 0" />
      <path style="fill:none;stroke:#87B97D;stroke-width:3;stroke-linecap:butt;stroke-linejoin:round;stroke-opacity:1" id="path20" d="m 615.277,128.211 v 0 l -0.501,-0.312 v 0 0 h -8.134 -10 -2.976 -6.497 v 1.329" />
      <path style="fill:none;stroke:#87B97D;stroke-width:3;stroke-linecap:butt;stroke-linejoin:round;stroke-opacity:1" id="path22" d="m 615.69,128.643 0.299,0.524 v 0.061 10 1.4 10 0.947 4.955 2.701 10 10 10 10 10 9.658 10 10 10 10 10 10 1.283 2.901 10 4.487 5.906 3.363 10 10 10 10 10 10 10 10 6.581 6.183 9.987 0.626 l -0.447,0.784 -0.617,0.644 -0.749,0.467" />
      <path style="fill:none;stroke:#87B97D;stroke-width:3;stroke-linecap:butt;stroke-linejoin:round;stroke-opacity:1" id="path24" d="m 587.169,156.53 v 0 0 2.701 10 10 10 10 10 9.658 10 10 10 10 10 10 1.283 l -3.074,2.901 h -10 -10 -10 -10 -10 -10 -5.424" />
      <path style="fill:none;stroke:#87B97D;stroke-width:3;stroke-linecap:butt;stroke-linejoin:round;stroke-opacity:1" id="path26" d="m 370.692,129.228 v -1.329 0 0" />
      <path style="fill:none;stroke:#87B97D;stroke-width:3;stroke-linecap:butt;stroke-linejoin:round;stroke-opacity:1" id="path28" d="m 584.093,129.228 h 3.076" />
      <path style="fill:none;stroke:#87B97D;stroke-width:3;stroke-linecap:butt;stroke-linejoin:round;stroke-opacity:1" id="path30" d="m 350.41,140.628 h 10 2.899 v 10 0.947 h -3.555 -9.344 v 0" />
      <path style="fill:none;stroke:#87B97D;stroke-width:3;stroke-linecap:butt;stroke-linejoin:round;stroke-opacity:1" id="path32" d="m 587.169,129.228 v 10 1.4 10 0.947 4.955" />
      <path style="fill:none;stroke:#87B97D;stroke-width:3;stroke-linecap:butt;stroke-linejoin:round;stroke-opacity:1" id="path34" d="m 350.41,151.575 v -10 -0.947" />
      <path style="fill:none;stroke:#87B97D;stroke-width:3;stroke-linecap:butt;stroke-linejoin:round;stroke-opacity:1" id="path36" d="m 593.666,151.575 v -10 -0.947 0 h 10 2.976" />
      <path style="fill:none;stroke:#87B97D;stroke-width:3;stroke-linecap:butt;stroke-linejoin:round;stroke-opacity:1" id="path38" d="m 606.642,140.628 v 10 0.947 h -10 -2.976 v 0 -10 -0.947" />
      <path style="fill:none;stroke:#87B97D;stroke-width:3;stroke-linecap:butt;stroke-linejoin:round;stroke-opacity:1" id="path40" d="m 615.69,128.643 -0.394,-0.413 -0.019,-0.019 v 0 l -0.501,-0.312" />
      <path style="fill:none;stroke:#87B97D;stroke-width:3;stroke-linecap:butt;stroke-linejoin:round;stroke-opacity:1" id="path42" d="m 615.989,393.41 v 6.183 9.987 0.626 l -0.447,0.783 -0.576,0.603 -0.041,0.042 v 0" />
      <path style="fill:none;stroke:#87B97D;stroke-width:3;stroke-linecap:butt;stroke-linejoin:round;stroke-opacity:1" id="path44" d="m 614.925,411.634 v 0 l -0.749,0.467" />
      <path style="fill:none;stroke:#87B97D;stroke-width:3;stroke-linecap:butt;stroke-linejoin:round;stroke-opacity:1" id="path46" d="m 615.69,128.643 -0.009,-0.01 -0.404,-0.422 -0.501,-0.312" />
      <path style="fill:none;stroke:#87B97D;stroke-width:3;stroke-linecap:butt;stroke-linejoin:round;stroke-opacity:1" id="path48" d="m 614.176,412.101 0.749,-0.467 v 0 l 0.041,-0.042 0.576,-0.603 0.447,-0.783 v -0.626 -9.987 -6.183" />
      <path style="fill:none;stroke:#87B97D;stroke-width:3;stroke-linecap:butt;stroke-linejoin:round;stroke-opacity:1" id="path50" d="m 406.223,306.613 -0.232,0.216 v 0 l 0.232,-0.216 3.38,-3.147 h 10 10 10.303 10 10 10 10 10 10 10 8.765 10 10 1.007" />
      <path style="fill:none;stroke:#87B97D;stroke-width:3;stroke-linecap:butt;stroke-linejoin:round;stroke-opacity:1" id="path52" d="m 518.671,283.073 v 0 h -10 -2.247" />
      <path style="fill:none;stroke:#87B97D;stroke-width:3;stroke-linecap:butt;stroke-linejoin:round;stroke-opacity:1" id="path54" d="m 615.277,128.211 0.404,0.422" />
      <path style="fill:none;stroke:#87B97D;stroke-width:3;stroke-linecap:butt;stroke-linejoin:round;stroke-opacity:1" id="path56" d="m 383.445,273.927 h 10 10 10 10 10 6.461" />
      <path style="fill:none;stroke:#87B97D;stroke-width:3;stroke-linecap:butt;stroke-linejoin:round;stroke-opacity:1" id="path58" d="m 576.555,273.927 2.03,-0.051 1.978,-0.302 1.707,-0.727" />
      <path style="fill:none;stroke:#87B97D;stroke-width:3;stroke-linecap:butt;stroke-linejoin:round;stroke-opacity:1" id="path60" d="m 582.27,272.847 1.099,-1.131 0.456,-1.309 0.077,-1.342" />
      <path style="fill:none;stroke:#87B97D;stroke-width:3;stroke-linecap:butt;stroke-linejoin:round;stroke-opacity:1" id="path62" d="m 583.902,269.065 v -10 -10 -10 -10 -10 -10 -10 -10 -10 -10 -9.834 0 -10 -7.959" />
      <path style="fill:none;stroke:#87B97D;stroke-width:3;stroke-linecap:butt;stroke-linejoin:round;stroke-opacity:1" id="path64" d="m 583.902,141.272 -0.077,-1.344 -0.457,-1.309 -1.098,-1.13" />
      <path style="fill:none;stroke:#87B97D;stroke-width:3;stroke-linecap:butt;stroke-linejoin:round;stroke-opacity:1" id="path66" d="m 582.27,137.489 -1.709,-0.727 -1.977,-0.301 -2.029,-0.051" />
      <path style="fill:none;stroke:#87B97D;stroke-width:3;stroke-linecap:butt;stroke-linejoin:round;stroke-opacity:1" id="path68" d="m 576.555,136.41 h -10 -10 -10 -10 -10 -10 -10 -10 -10 -10 -10 -10 -10 -10 -10 -10 -10 -10 -10 -3.11 l -2.03,0.051 -1.978,0.302 -1.707,0.726" />
      <path style="fill:none;stroke:#87B97D;stroke-width:3;stroke-linecap:butt;stroke-linejoin:round;stroke-opacity:1" id="path70" d="m 377.73,137.489 -1.099,1.131 -0.456,1.309 -0.077,1.343" />
      <path style="fill:none;stroke:#87B97D;stroke-width:3;stroke-linecap:butt;stroke-linejoin:round;stroke-opacity:1" id="path72" d="m 376.098,269.065 0.077,1.343 0.457,1.309 1.098,1.13" />
      <path style="fill:none;stroke:#87B97D;stroke-width:3;stroke-linecap:butt;stroke-linejoin:round;stroke-opacity:1" id="path74" d="m 377.73,272.847 1.709,0.727 1.977,0.302 2.029,0.051" />
      <path style="fill:none;stroke:#87B97D;stroke-width:3;stroke-linecap:butt;stroke-linejoin:round;stroke-opacity:1" id="path76" d="m 457.882,318.176 v 10 10 10 10 10 10 10 8.996 l -0.375,1.491 -0.542,1.03" />
      <path style="fill:none;stroke:#87B97D;stroke-width:3;stroke-linecap:butt;stroke-linejoin:round;stroke-opacity:1" id="path78" d="m 456.965,399.693 h -10 -10 -8.726 l -0.542,-1.03 -0.375,-1.491" />
      <path style="fill:none;stroke:#87B97D;stroke-width:3;stroke-linecap:butt;stroke-linejoin:round;stroke-opacity:1" id="path80" d="m 539.678,303.466 -0.064,-0.035 h -10 -10 -10 -10 -10 -10 -10 -10 -10 -10 -10 -10 -10.198 l -1.889,1.029 -1.304,1.491" />
      <path style="fill:none;stroke:#87B97D;stroke-width:3;stroke-linecap:butt;stroke-linejoin:round;stroke-opacity:1" id="path82" d="m 543.74,411.917 v -2.465 -0.024 -10 -10 -10 -10 -10 -10 -10 -10 -10 -10 -2.742 l -1.686,-1.925 -2.376,-1.295" />
      <path style="fill:none;stroke:#87B97D;stroke-width:3;stroke-linecap:butt;stroke-linejoin:round;stroke-opacity:1" id="path84" d="m 427.612,316.452 0.42,-0.797 h 10 10 8.933 l 0.542,1.03 0.375,1.491" />
      <path style="fill:none;stroke:#87B97D;stroke-width:3;stroke-linecap:butt;stroke-linejoin:round;stroke-opacity:1" id="path86" d="m 427.322,317.607 0.29,-1.155" />
      <path style="fill:none;stroke:#87B97D;stroke-width:3;stroke-linecap:butt;stroke-linejoin:round;stroke-opacity:1" id="path88" d="m 350.41,151.575 v -10 -0.947" />
      <path style="fill:none;stroke:#87B97D;stroke-width:3;stroke-linecap:butt;stroke-linejoin:round;stroke-opacity:1" id="path90" d="m 370.692,127.899 v 0" />
      <path style="fill:none;stroke:#87B97D;stroke-width:3;stroke-linecap:butt;stroke-linejoin:round;stroke-opacity:1" id="path92" d="m 376.098,141.272 v 10 7.954 0.005 10 10 10 10 10 10 10 10 10 10 9.834" />
      <path style="fill:none;stroke:#87B97D;stroke-width:3;stroke-linecap:butt;stroke-linejoin:round;stroke-opacity:1" id="path94" d="m 405.991,409.044 v 3.057" />
      <path style="fill:none;stroke:#87B97D;stroke-width:3;stroke-linecap:butt;stroke-linejoin:round;stroke-opacity:1" id="path96" d="m 406.223,305.951 v 0.662 0 0 0 10 10 10 10 10 10 10 10 10 10 2.333 0.098 2.873" />
      <path style="fill:none;stroke:#87B97D;stroke-width:3;stroke-linecap:butt;stroke-linejoin:round;stroke-opacity:1" id="path98" d="m 427.322,397.172 v -10 -10 -10 -10 -10 -10 -10 -9.565" />
      <path style="fill:none;stroke:#87B97D;stroke-width:3;stroke-linecap:butt;stroke-linejoin:round;stroke-opacity:1" id="path100" d="m 405.991,409.044 h 0.232" />
      <path style="fill:none;stroke:#87B97D;stroke-width:3;stroke-linecap:butt;stroke-linejoin:round;stroke-opacity:1" id="path102" d="m 506.424,283.073 h -3.436 -10 -10 -10 -10 -6.548 -3.543 -10e-4 -10 -2.99" />
      <path style="fill:none;stroke:#87B97D;stroke-width:3;stroke-linecap:butt;stroke-linejoin:round;stroke-opacity:1" id="path104" d="m 406.223,411.917 h 10 10 10 10 10 10 10 10 10 10 10 10 10 7.517" />
      <path style="fill:none;stroke:#87B97D;stroke-width:3;stroke-linecap:butt;stroke-linejoin:round;stroke-opacity:1" id="path106" d="m 518.671,273.927 h 10 10 10 10 10 7.884" />
      <path style="fill:none;stroke:#87B97D;stroke-width:3;stroke-linecap:butt;stroke-linejoin:round;stroke-opacity:1" id="path108" d="m 439.906,273.927 h 6.803 v 0 h 2.704 10 10 10 10 10 10.551 2.65 10e-4 6.056" />
      <path style="fill:none;stroke:#87B97D;stroke-width:3;stroke-linecap:butt;stroke-linejoin:round;stroke-opacity:1" id="path110" d="m 539.678,303.466 h 10 10 10 10 4.417" />
      <path style="fill:none;stroke:#87B97D;stroke-width:3;stroke-linecap:butt;stroke-linejoin:round;stroke-opacity:1" id="path112" d="m 587.169,156.53 v 0" />
      <path style="fill:none;stroke:#87B97D;stroke-width:3;stroke-linecap:butt;stroke-linejoin:round;stroke-opacity:1" id="path114" d="m 543.74,409.452 10,0.029 10,0.03 10,0.03 9.999,0.029 3.43,0.01" />
      <path style="fill:none;stroke:#87B97D;stroke-width:3;stroke-linecap:butt;stroke-linejoin:round;stroke-opacity:1" id="path116" d="m 615.989,393.41 v -10 -10 -10 -10 -10 -10 -10 -10 -6.581" />
    </g>
  </g>
</svg>
