<svg xmlns="http://www.w3.org/2000/svg" xmlns:xlink="http://www.w3.org/1999/xlink" version="1.1" width="150" height="150" viewBox="0 0 150 150" xml:space="preserve">
<symbol id="decodon-logo">
<desc>Created with Fabric.js 3.5.0</desc>
<defs>
</defs>
<rect x="0" y="0" width="100%" height="100%" fill="rgba(255,255,255,0)"/>
<g transform="matrix(0.2699 0 0 0.2699 75.0015 75.0015)" id="234540">
<path style="stroke: none; stroke-width: 0; stroke-dasharray: none; stroke-linecap: butt; stroke-dashoffset: 0; stroke-linejoin: miter; stroke-miterlimit: 4; is-custom-font: none; font-file-url: none; fill: rgb(204,175,241); fill-rule: nonzero; opacity: 1;" vector-effect="non-scaling-stroke" transform=" translate(-256.0021, -256.0012)" d="M 511.944 219.039 c -0.012 -0.143 -0.012 -0.297 -0.024 -0.44 c -0.773 -9.941 -2.569 -19.502 -5.351 -28.385 c -3.08 -9.823 -7.349 -18.825 -12.688 -26.744 c -8.134 -12.034 -18.527 -21.346 -30.918 -27.648 c -25.674 -13.093 -56.545 -11.654 -86.928 4.055 c -29.206 15.091 -54.642 41.776 -71.647 75.132 c -2.89 5.672 -5.47 11.464 -7.765 17.326 c -4.638 -4.769 -10.048 -8.645 -15.959 -11.523 c 4.864 -3.996 9.585 -8.253 14.115 -12.784 c 26.471 -26.471 43.987 -58.911 49.315 -91.352 c 5.542 -33.737 -2.616 -63.549 -22.999 -83.92 c -9.834 -9.846 -21.916 -16.862 -35.889 -20.87 c -0.155 -0.036 -0.297 -0.083 -0.44 -0.119 c -9.692 -2.331 -19.324 -3.579 -28.647 -3.674 c -10.31 -0.119 -20.168 1.165 -29.349 3.805 c -13.961 4.008 -26.031 11.024 -35.853 20.858 c -20.382 20.37 -28.552 50.171 -23.01 83.92 c 5.327 32.44 22.844 64.881 49.315 91.352 c 4.507 4.507 9.204 8.752 14.056 12.736 c -6.053 2.937 -11.416 6.862 -15.911 11.511 c -2.295 -5.827 -4.876 -11.606 -7.765 -17.267 c -16.993 -33.356 -42.43 -60.041 -71.635 -75.132 c -30.383 -15.709 -61.254 -17.148 -86.928 -4.067 c -12.391 6.314 -22.808 15.638 -30.93 27.696 c -0.083 0.119 -0.167 0.25 -0.25 0.381 c -5.22 8.491 -9.371 17.279 -12.355 26.102 c -3.282 9.751 -5.113 19.538 -5.446 29.087 c -0.499 14.52 2.438 28.159 8.752 40.551 c 13.081 25.674 38.91 42.655 72.706 47.816 c 7.028 1.07 14.234 1.594 21.548 1.594 c 26.507 0 54.44 -6.945 80.578 -20.275 c 5.601 -2.842 11.012 -5.958 16.244 -9.299 c 0.452 3.258 1.177 6.517 2.236 9.739 c 0.999 3.104 2.259 6.053 3.722 8.859 c -6.16 0.38 -12.344 1.035 -18.515 2.022 c -36.983 5.851 -70.22 21.797 -93.599 44.915 c -24.319 24.033 -35.235 52.954 -30.728 81.41 c 1.094 6.873 3.044 13.509 5.851 19.847 c 2.806 6.338 6.445 12.403 10.928 18.135 c 0.095 0.119 0.19 0.238 0.285 0.345 c 6.457 7.587 13.533 14.258 21.013 19.823 c 8.253 6.136 16.993 10.905 25.983 14.163 c 9.501 3.46 19.122 5.197 28.73 5.197 c 4.186 0 8.36 -0.333 12.534 -0.987 c 28.457 -4.507 52.585 -23.819 67.937 -54.381 c 14.758 -29.372 19.657 -65.916 13.794 -102.887 c -0.975 -6.16 -2.248 -12.225 -3.782 -18.194 c 3.187 0.559 6.445 0.868 9.727 0.868 c 3.223 0 6.481 -0.297 9.727 -0.868 c -1.534 5.958 -2.806 12.023 -3.782 18.182 c -5.851 36.983 -0.951 73.526 13.794 102.899 c 15.352 30.562 39.48 49.874 67.937 54.381 c 4.162 0.666 8.348 0.987 12.534 0.987 c 9.608 0 19.253 -1.736 28.766 -5.209 c 0.143 -0.048 0.285 -0.107 0.428 -0.155 c 9.216 -3.805 17.742 -8.467 25.341 -13.866 c 8.384 -5.958 15.626 -12.795 21.5 -20.335 c 8.943 -11.44 14.579 -24.211 16.755 -37.946 c 4.507 -28.457 -6.398 -57.377 -30.716 -81.41 c -23.379 -23.117 -56.628 -39.064 -93.599 -44.927 c -6.219 -0.987 -12.451 -1.641 -18.658 -2.022 c 3.044 -5.791 5.102 -12.094 6.005 -18.634 c 5.256 3.353 10.703 6.481 16.327 9.347 c 26.138 13.319 54.072 20.275 80.578 20.275 c 7.313 0 14.52 -0.523 21.548 -1.594 c 33.796 -5.161 59.625 -22.142 72.706 -47.816 C 509.506 247.234 512.455 233.582 511.944 219.039 z M 150.092 205.256 c -17.231 0 -31.24 14.008 -31.24 31.239 s 14.008 31.239 31.24 31.239 c 10.132 0 19.157 -4.852 24.865 -12.355 l 15.162 4.923 c -5.185 3.389 -10.596 6.529 -16.196 9.394 c -29.396 14.972 -61.076 20.87 -89.176 16.577 c -26.804 -4.079 -46.996 -16.993 -56.866 -36.365 c -4.65 -9.121 -6.814 -19.241 -6.433 -30.086 c 0.262 -7.48 1.724 -15.209 4.34 -22.999 c 2.438 -7.23 5.863 -14.484 10.191 -21.536 c 6.053 -8.931 13.711 -15.792 22.773 -20.406 c 19.372 -9.87 43.298 -8.443 67.378 4.007 c 25.258 13.057 47.424 36.436 62.408 65.832 c 2.462 4.84 4.673 9.763 6.659 14.722 l -13.901 -4.507 C 180.475 218.432 166.788 205.256 150.092 205.256 z M 159.926 236.496 c 0 5.423 -4.412 9.834 -9.834 9.834 s -9.834 -4.412 -9.834 -9.834 s 4.412 -9.834 9.834 -9.834 C 155.514 226.661 159.926 231.073 159.926 236.496 z M 189.025 113.203 c -4.4 -26.756 1.653 -49.945 17.017 -65.321 c 7.242 -7.23 16.196 -12.415 26.637 -15.412 c 6.885 -1.974 14.341 -2.985 22.178 -2.985 c 0.345 0 0.69 0 1.023 0.012 c 7.634 0.083 15.59 1.106 23.641 3.032 c 10.346 2.997 19.253 8.17 26.435 15.352 c 32.726 32.726 20.917 97.773 -26.316 145.007 c -4.15 4.15 -8.467 8.051 -12.938 11.701 v -15.697 c 11.951 -4.388 20.501 -15.887 20.501 -29.349 c 0 -17.219 -14.02 -31.24 -31.239 -31.24 c -17.231 0 -31.251 14.02 -31.251 31.24 c 0 13.485 8.598 25.008 20.585 29.372 v 15.673 c -4.471 -3.651 -8.8 -7.551 -12.938 -11.69 C 209.027 169.557 193.639 141.255 189.025 113.203 z M 265.798 159.545 c 0 5.435 -4.412 9.846 -9.834 9.846 c -5.435 0 -9.846 -4.412 -9.846 -9.846 c 0 -5.423 4.412 -9.834 9.846 -9.834 C 261.386 149.71 265.798 154.122 265.798 159.545 z M 217.137 438.952 c -12.177 24.223 -30.692 39.433 -52.169 42.834 c -10.108 1.605 -20.406 0.535 -30.597 -3.175 c -7.028 -2.557 -13.937 -6.338 -20.525 -11.238 c -6.136 -4.555 -11.963 -10.049 -17.338 -16.339 c -6.624 -8.526 -10.774 -17.933 -12.367 -27.969 c -0.476 -3.032 -0.714 -6.077 -0.714 -9.133 c 0 -18.575 8.788 -37.34 25.341 -53.715 c 20.228 -19.99 49.303 -33.844 81.898 -39.005 c 5.53 -0.868 11.047 -1.463 16.541 -1.808 l -8.348 11.487 c -2.652 -0.725 -5.435 -1.13 -8.312 -1.13 c -17.231 0 -31.239 14.02 -31.239 31.251 c 0 17.219 14.008 31.239 31.239 31.239 c 17.231 0 31.24 -14.02 31.24 -31.239 c 0 -6.564 -2.034 -12.653 -5.494 -17.683 l 8.824 -12.165 c 1.57 5.827 2.842 11.785 3.805 17.838 C 234.083 381.598 229.897 413.539 217.137 438.952 z M 200.382 361.014 c 0 5.423 -4.412 9.834 -9.834 9.834 s -9.834 -4.412 -9.834 -9.834 c 0 -5.435 4.412 -9.846 9.834 -9.846 S 200.382 355.579 200.382 361.014 z M 255.952 306.918 c -19.443 0 -35.211 -15.756 -35.211 -35.211 c 0 -19.443 15.768 -35.211 35.211 -35.211 c 19.455 0 35.223 15.768 35.223 35.211 C 291.175 291.162 275.406 306.918 255.952 306.918 z M 321.332 321.212 c 32.595 5.161 61.682 19.015 81.898 39.005 c 19.288 19.062 28.029 41.371 24.628 62.848 c -1.605 10.108 -5.803 19.562 -12.486 28.124 c -4.602 5.898 -10.322 11.297 -17.017 16.042 c -6.231 4.424 -13.259 8.277 -20.906 11.44 c -10.144 3.663 -20.382 4.709 -30.419 3.116 c -21.464 -3.401 -39.992 -18.611 -52.157 -42.846 c -12.76 -25.401 -16.946 -57.342 -11.785 -89.937 c 0.963 -6.053 2.236 -12.011 3.793 -17.826 l 8.836 12.153 c -3.461 5.03 -5.494 11.119 -5.494 17.683 c 0 17.219 14.008 31.239 31.239 31.239 c 17.219 0 31.239 -14.02 31.239 -31.239 c 0 -17.231 -14.02 -31.251 -31.239 -31.251 c -2.878 0 -5.672 0.404 -8.324 1.13 l -8.348 -11.487 C 310.285 319.737 315.814 320.344 321.332 321.212 z M 311.628 361.014 c 0 -5.435 4.412 -9.846 9.834 -9.846 c 5.423 0 9.834 4.412 9.834 9.846 c 0 5.423 -4.412 9.834 -9.834 9.834 C 316.04 370.848 311.628 366.436 311.628 361.014 z M 484.117 249.91 c -21.013 41.24 -86.524 50.1 -146.042 19.776 c -5.613 -2.854 -11.024 -5.993 -16.196 -9.383 l 15.162 -4.923 c 5.708 7.504 14.734 12.355 24.866 12.355 c 17.231 0 31.239 -14.008 31.239 -31.239 s -14.008 -31.239 -31.239 -31.239 c -16.708 0 -30.383 13.176 -31.204 29.682 l -13.901 4.507 c 1.986 -4.971 4.198 -9.882 6.659 -14.722 c 14.984 -29.396 37.15 -52.787 62.408 -65.832 c 24.081 -12.451 48.007 -13.878 67.378 -3.996 c 9.109 4.638 16.815 11.559 22.892 20.549 c 4.186 6.207 7.551 13.319 10.001 21.155 c 2.271 7.29 3.77 15.162 4.424 23.415 C 490.896 230.8 488.731 240.848 484.117 249.91 z M 352.072 236.496 c 0 -5.423 4.412 -9.834 9.834 -9.834 s 9.834 4.412 9.834 9.834 s -4.412 9.834 -9.834 9.834 S 352.072 241.918 352.072 236.496 z" stroke-linecap="round"/>
</g>
</symbol>
</svg>