<?xml version="1.0" encoding="UTF-8" standalone="no"?>
<svg
   xmlns:dc="http://purl.org/dc/elements/1.1/"
   xmlns:cc="http://creativecommons.org/ns#"
   xmlns:rdf="http://www.w3.org/1999/02/22-rdf-syntax-ns#"
   xmlns:svg="http://www.w3.org/2000/svg"
   xmlns="http://www.w3.org/2000/svg"
   xmlns:sodipodi="http://sodipodi.sourceforge.net/DTD/sodipodi-0.dtd"
   xmlns:inkscape="http://www.inkscape.org/namespaces/inkscape"
   viewBox="0 0 713.35878 175.8678"
   height="49.633801mm"
   width="201.3257mm"
   version="1.1"
   id="svg6"
   sodipodi:docname="logo_full.svg"
   inkscape:version="0.92.1 r15371">
  <metadata
     id="metadata12">
    <rdf:RDF>
      <cc:Work
         rdf:about="">
        <dc:format>image/svg+xml</dc:format>
        <dc:type
           rdf:resource="http://purl.org/dc/dcmitype/StillImage" />
        <dc:title />
      </cc:Work>
    </rdf:RDF>
  </metadata>
  <defs
     id="defs10" />
  <sodipodi:namedview
     pagecolor="#ffffff"
     bordercolor="#666666"
     borderopacity="1"
     objecttolerance="10"
     gridtolerance="10"
     guidetolerance="10"
     inkscape:pageopacity="0"
     inkscape:pageshadow="2"
     inkscape:window-width="1861"
     inkscape:window-height="1017"
     id="namedview8"
     showgrid="false"
     inkscape:zoom="1.1225746"
     inkscape:cx="601.36947"
     inkscape:cy="132.29942"
     inkscape:window-x="59"
     inkscape:window-y="27"
     inkscape:window-maximized="1"
     inkscape:current-layer="svg6" />
  <path
     d="M160.55476 105.43125c-2.4125 12.40625-21.5975 25.9825-43.63375 28.61375-11.49125 1.3725-22.80375 2.63125-34.8675 2.07875-19.73-.90375-35.2975-4.71-35.2975-4.71 0 1.92125.11875 3.75.355 5.46 2.565 19.47 19.3075 20.6375 35.16625 21.18125 16.00625.5475 30.2575-3.9475 30.2575-3.9475l.65875 14.4725s-11.19625 6.01125-31.14 7.11625c-10.99875.605-24.65375-.27625-40.56-4.485C6.99851 162.08 1.06601 125.31.15851 88-.11899 76.9225.05226 66.47625.05226 57.74125c0-38.1525 24.99625-49.335 24.99625-49.335C37.65226 2.6175 59.27976.18375 81.76351 0h.5525c22.48375.18375 44.125 2.6175 56.72875 8.40625 0 0 24.99625 11.1825 24.99625 49.335 0 0 .3125 28.1475-3.48625 47.69"
     fill="#3088d4"
     id="path2" />
  <path
     d="m 34.65751,48.494 c 0,-5.55375 4.5025,-10.055 10.055,-10.055 5.55375,0 10.055,4.50125 10.055,10.055 0,5.5525 -4.50125,10.055 -10.055,10.055 -5.5525,0 -10.055,-4.5025 -10.055,-10.055"
     id="path8474"
     style="fill:#ffffff" />
  <path
     d="m 326.26951,67.258625 c 5.315,3.99 7.97375,9.60625 7.83375,16.7 0,7.53875 -2.65875,13.45 -8.11375,17.588755 -5.45625,3.99124 -12.03,6.06 -20.00375,6.06 -14.40875,0 -24.20125,-5.9125 -29.3775,-17.588755 l 15.66875,-9.31 c 2.0975,6.35375 6.71375,9.60625 13.70875,9.60625 6.43375,0 9.6525,-2.07 9.6525,-6.35625 0,-3.10375 -4.1975,-5.91125 -12.73,-8.1275 -3.21875,-0.8875 -5.87625,-1.77375 -7.97375,-2.51375 -2.9375,-1.18125 -5.455,-2.5125 -7.55375,-4.1375 -5.17625,-3.99 -7.83375,-9.3125 -7.83375,-16.11 0,-7.2425 2.5175,-13.00625 7.55375,-17.145 5.17625,-4.28625 11.47,-6.355 19.025,-6.355 12.03,0 20.84375,5.1725 26.5775,15.66625 l -15.38625,8.8675 c -2.23875,-5.02375 -6.015,-7.53625 -11.19125,-7.53625 -5.45625,0 -8.11375,2.06875 -8.11375,6.05875 0,3.10375 4.19625,5.91125 12.73,8.12875 6.575,1.4775 11.75,3.695 15.5275,6.50375"
     id="path8466"
     style="fill:#98C4EA" />
  <path
     d="m 383.62664,49.966125 h -15.8075 v 30.7425 c 0,3.695 1.39999,5.91125 4.0575,6.945 1.95875,0.74 5.875,0.8875 11.75,0.59125 v 17.293755 c -12.16875,1.4775 -20.98251,0.295 -26.15875,-3.69625 -5.17501,-3.842505 -7.69376,-10.936255 -7.69376,-21.133755 v -30.7425 h -12.17 v -18.3275 h 12.17 v -14.9275 l 18.04501,-5.76375 v 20.69125 h 15.8075 z"
     id="path8464"
     style="fill:#ffffff" />
  <g
     id="g8482">
    <path
       id="path8462"
       style="fill:#ffffff"
       d="M 401.25614,96.37425 C 394.12238,88.83675 390.62488,79.673 390.62488,68.588 c 0,-10.9375 3.4975,-20.1 10.63126,-27.6375 7.13375,-7.5375 15.9475,-11.38 26.29875,-11.38 10.3525,0 19.165,3.8425 26.3,11.38 7.135,7.5375 10.77125,16.84875 10.77125,27.6375 0,10.9375 -3.63625,20.24875 -10.77125,27.78625 -7.135,7.53875 -15.8075,11.2325 -26.3,11.2325 -10.49125,0 -19.16501,-3.69375 -26.29875,-11.2325"
       inkscape:connector-curvature="0"
       sodipodi:nodetypes="cssssscsc" />
  </g>
  <path
     id="path8458"
     style="fill:#ffffff"
     d="m 524.92126,83.663625 c 3.6375,-3.99 5.455,-9.015 5.455,-15.075 0,-6.06 -1.8175,-11.085 -5.455,-14.9275 -3.63625,-3.99125 -8.25375,-5.91125 -13.84875,-5.91125 -5.59625,0 -10.2125,1.92 -13.98875,5.91125 -3.63625,3.8425 -5.45625,8.8675 -5.45625,14.9275 0,6.06 1.82,11.085 5.45625,15.075 3.77625,3.8425 8.5325,5.76375 13.98875,5.76375 5.595,0 10.2125,-1.92125 13.84875,-5.76375 m 5.455,-81.585 h 18.04625 V 105.53862 h -18.04625 v -8.721245 c -5.315,7.242505 -12.87,10.789995 -22.66125,10.789995 -9.3725,0 -17.485,-3.695 -24.2,-11.233745 -6.575,-7.5375 -9.9325,-16.84875 -9.9325,-27.785 0,-10.78875 3.3575,-20.10125 9.9325,-27.63875 6.715,-7.5375 14.8275,-11.38 24.2,-11.38 9.79125,0 17.34625,3.5475 22.66125,10.78875 z" />
  <path
     id="path8454"
     style="fill:#ffffff"
     d="m 571.92751,96.37425 c -7.135,-7.5375 -10.63125,-16.70125 -10.63125,-27.78625 0,-10.9375 3.49625,-20.1 10.63125,-27.6375 7.135,-7.5375 15.9475,-11.38 26.29875,-11.38 10.3525,0 19.165,3.8425 26.3,11.38 7.135,7.5375 10.77125,16.84875 10.77125,27.6375 0,10.9375 -3.63625,20.24875 -10.77125,27.78625 -7.135,7.53875 -15.8075,11.2325 -26.3,11.2325 -10.49125,0 -19.16375,-3.69375 -26.29875,-11.2325"
     inkscape:connector-curvature="0"
     sodipodi:nodetypes="cssssscsc" />
  <path
     d="M 713.35876,60.163875 V 105.53762 H 695.31251 V 62.528875 c 0,-4.8775 -1.25875,-8.5725 -3.77625,-11.38 -2.37875,-2.5125 -5.73625,-3.84375 -10.0725,-3.84375 -10.2125,0 -15.3875,6.06 -15.3875,18.3275 V 105.53762 H 648.03001 V 31.638875 h 18.04625 v 8.27625 c 4.33625,-6.94625 11.19,-10.345 20.84375,-10.345 7.69375,0 13.98875,2.66 18.885,8.12875 5.035,5.46875 7.55375,12.85875 7.55375,22.465"
     id="path4"
     style="fill:#ffffff" />
  <path
     id="path8470"
     style="fill:#98c4ea;opacity:1"
     d="m 241.91276,83.663625 c 3.77625,-3.99 5.595,-9.015 5.595,-15.075 0,-6.06 -1.81875,-11.085 -5.595,-14.9275 -3.63625,-3.99125 -8.25375,-5.91125 -13.84875,-5.91125 -5.59625,0 -10.2125,1.92 -13.84875,5.91125 -3.6375,3.8425 -5.45625,8.8675 -5.45625,14.9275 0,6.06 1.81875,11.085 5.45625,15.075 3.63625,3.8425 8.2525,5.76375 13.84875,5.76375 5.595,0 10.2125,-1.92125 13.84875,-5.76375 m 5.595,-52.025 h 18.04625 v 73.899995 h -18.04625 v -8.721245 c -5.455,7.242505 -13.01,10.789995 -22.80125,10.789995 -9.3725,0 -17.34625,-3.695 -24.06125,-11.233745 -6.57375,-7.5375 -9.93125,-16.84875 -9.93125,-27.785 0,-10.78875 3.3575,-20.10125 9.93125,-27.63875 6.715,-7.5375 14.68875,-11.38 24.06125,-11.38 9.79125,0 17.34625,3.5475 22.80125,10.78875 z" />
  <path
     d="m 178.86476,60.69975 v 46.195 h -18.30125 v -44.8375 c 0,-9.4525 -3.9775,-14.24875 -11.9325,-14.24875 -8.79375,0 -13.2025,5.69125 -13.2025,16.94375 V 89.2935 H 117.23476 V 64.75225 c 0,-11.2525 -4.40875,-16.94375 -13.2025,-16.94375 -7.955,0 -11.9325,4.79625 -11.9325,14.24875 v 44.8375 H 73.79851 v -46.195 c 0,-9.44125 2.40375,-16.94375 7.2325,-22.495 4.98,-5.55 11.50125,-8.395 19.595,-8.395 9.36625,0 16.45875,3.59875 21.14625,10.79875 l 4.56,7.6425 4.55875,-7.6425 c 4.68875,-7.2 11.78,-10.79875 21.1475,-10.79875 8.09375,0 14.61375,2.845 19.59375,8.395 4.82875,5.55125 7.2325,13.05375 7.2325,22.495"
     id="path8472"
     style="fill:#98C4EA;opacity:1" />
</svg>
