<svg width="356" height="66" viewBox="0 0 356 66" fill="none" xmlns="http://www.w3.org/2000/svg">
  <!-- Icon -->
  <rect width="66" height="66" rx="12" fill="url(#paint0_linear)"/>
  <path d="M18 14H38C42.4183 14 46 17.5817 46 22V24.5C46 28.9183 42.4183 32.5 38 32.5H30L42 50H33L23 38V50H18V14ZM26 26H36C37.3807 26 38.5 24.8807 38.5 23.5C38.5 22.1193 37.3807 21 36 21H26V26Z" fill="#FFCC00"/>
  
  <!-- Wordmark: REPUBLIQUE -->
  <g fill="#003399">
    <!-- R -->
    <path d="M80 18H96C100.418 18 104 21.582 104 26V28C104 31.314 101.985 34.118 99.12 35.28L104 48H96L92 37H88V48H80V18ZM88 30H94C95.105 30 96 29.105 96 28V26C96 24.895 95.105 24 94 24H88V30Z"/>
    <!-- E -->
    <path d="M108 18H128V24H116V30H126V36H116V42H128V48H108V18Z"/>
    <!-- P -->
    <path d="M132 18H148C152.418 18 156 21.582 156 26V30C156 34.418 152.418 38 148 38H140V48H132V18ZM140 32H146C147.105 32 148 31.105 148 30V26C148 24.895 147.105 24 146 24H140V32Z"/>
    <!-- U -->
    <path d="M160 18H168V40C168 41.105 168.895 42 170 42H178C179.105 42 180 41.105 180 40V18H188V40C188 45.523 183.523 50 178 50H170C164.477 50 160 45.523 160 40V18Z"/>
    <!-- B -->
    <path d="M192 18H208C212.418 18 216 21.582 216 26C216 28.21 215.104 30.21 213.656 31.656C215.104 33.104 216 35.104 216 37.314C216 42.837 212.418 48 208 48H192V18ZM200 30H206C207.105 30 208 29.105 208 28V26C208 24.895 207.105 24 206 24H200V30ZM200 42H206C207.105 42 208 41.105 208 40V38C208 36.895 207.105 36 206 36H200V42Z"/>
    <!-- L -->
    <path d="M220 18H228V42H244V48H220V18Z"/>
    <!-- I -->
    <path d="M248 18H256V48H248V18Z"/>
    <!-- Q -->
    <path d="M260 26C260 21.582 264.477 18 270 18H280C285.523 18 290 21.582 290 26V40C290 44.418 285.523 48 280 48H286L290 54H282L276 48H270C264.477 48 260 44.418 260 40V26ZM268 40C268 41.105 268.895 42 270 42H280C281.105 42 282 41.105 282 40V26C282 24.895 281.105 24 280 24H270C268.895 24 268 24.895 268 26V40Z"/>
    <!-- U -->
    <path d="M294 18H302V40C302 41.105 302.895 42 304 42H312C313.105 42 314 41.105 314 40V18H322V40C322 45.523 317.523 50 312 50H304C298.477 50 294 45.523 294 40V18Z"/>
    <!-- E -->
    <path d="M326 18H346V24H334V30H344V36H334V42H346V48H326V18Z"/>
  </g>
  
  <defs>
    <linearGradient id="paint0_linear" x1="33" y1="0" x2="33" y2="66" gradientUnits="userSpaceOnUse">
      <stop stop-color="#003399"/>
      <stop offset="1" stop-color="#002266"/>
    </linearGradient>
  </defs>
</svg>
