<svg xmlns="http://www.w3.org/2000/svg" xmlns:xlink="http://www.w3.org/1999/xlink" width="79" height="79" viewBox="0 0 79 79"><symbol id="logo-symbol-icon"><path d="M74.714,18.604C73.62,10.546 66.535,4.195 58.137,2.965C56.72,2.757 51.351,2 38.915,2L38.822,2C26.382,2 23.714,2.757 22.297,2.965C14.132,4.161 6.676,9.868 4.867,18.021C3.997,22.037 3.904,26.489 4.065,30.573C4.296,36.429 4.34,42.275 4.877,48.108C5.248,51.982 5.895,55.825 6.813,59.609C8.533,66.597 15.494,72.412 22.314,74.785C29.616,77.259 37.468,77.67 44.992,75.971C45.82,75.78 46.638,75.559 47.448,75.306C49.274,74.73 51.416,74.086 52.992,72.954C53.013,72.938 53.031,72.918 53.043,72.894C53.056,72.871 53.063,72.845 53.064,72.818L53.064,67.166C53.063,67.141 53.057,67.117 53.046,67.094C53.035,67.072 53.019,67.053 52.999,67.037C52.979,67.022 52.956,67.011 52.932,67.006C52.907,67 52.882,67 52.857,67.006C48.037,68.147 43.097,68.719 38.141,68.71C29.612,68.71 27.318,64.698 26.661,63.028C26.133,61.584 25.798,60.078 25.664,58.549C25.662,58.523 25.667,58.497 25.677,58.474C25.688,58.45 25.704,58.429 25.724,58.413C25.744,58.397 25.768,58.386 25.793,58.38C25.819,58.375 25.845,58.375 25.87,58.382C30.61,59.515 35.469,60.087 40.346,60.086C41.518,60.086 42.688,60.086 43.86,60.055C48.765,59.919 53.934,59.67 58.759,58.736C58.879,58.712 59,58.692 59.103,58.661C66.714,57.212 73.957,52.665 74.693,41.15C74.72,40.697 74.789,36.402 74.789,35.931C74.793,34.333 75.309,24.59 74.714,18.604ZM31.818,34.577L28.859,34.395L28.859,40.677C28.859,41.496 28.988,42.088 29.246,42.452C29.504,42.817 29.989,42.999 30.702,42.999C31.416,42.999 31.962,43.021 32.341,43.067C32.721,43.112 33.123,43.257 33.547,43.499C34.245,43.894 34.594,44.911 34.594,46.549C34.594,48.461 34.17,49.63 33.32,50.054C32.865,50.267 32.463,50.396 32.114,50.441C31.765,50.487 31.256,50.51 30.589,50.51C27.432,50.51 25.035,49.796 23.396,48.37C21.758,46.944 20.938,44.531 20.938,41.132L20.938,34.395C20.362,34.486 19.739,34.532 19.072,34.532C18.404,34.532 17.85,34.274 17.41,33.758C16.97,33.242 16.75,32.362 16.75,31.118C16.75,29.873 16.826,28.971 16.978,28.409C17.13,27.848 17.342,27.446 17.615,27.203C18.101,26.808 18.708,26.611 19.436,26.611L20.938,26.793L20.938,22.104C20.938,21.406 20.961,20.891 21.006,20.557C21.052,20.223 21.196,19.859 21.439,19.464C21.833,18.706 23.002,18.326 24.944,18.326C27.008,18.326 28.237,18.888 28.631,20.01C28.783,20.496 28.859,21.27 28.859,22.332L28.859,26.793C30.194,26.672 31.203,26.611 31.886,26.611C32.569,26.611 33.085,26.634 33.434,26.679C33.783,26.725 34.185,26.869 34.64,27.112C35.429,27.506 35.824,28.675 35.824,30.617C35.824,32.529 35.414,33.697 34.594,34.122C34.139,34.334 33.737,34.463 33.388,34.509C33.039,34.554 32.516,34.577 31.818,34.577ZM51.619,26.611C54.654,26.611 57.181,27.764 59.199,30.071C61.217,32.377 62.226,35.199 62.226,38.538L62.226,46.549C62.226,47.247 62.203,47.771 62.158,48.12C62.112,48.469 61.968,48.871 61.725,49.326C61.331,50.115 60.162,50.51 58.22,50.51C56.369,50.51 55.216,50.115 54.76,49.326C54.518,48.871 54.373,48.461 54.328,48.097C54.282,47.733 54.26,47.187 54.26,46.458L54.26,38.492C54.26,37.248 53.911,36.277 53.213,35.579C52.515,34.881 51.627,34.532 50.55,34.532C49.472,34.532 48.524,34.858 47.705,35.51C46.885,36.163 46.415,36.899 46.293,37.718L46.293,46.549C46.293,47.247 46.271,47.771 46.225,48.12C46.18,48.469 46.035,48.871 45.793,49.326C45.398,50.115 44.23,50.51 42.288,50.51C40.376,50.51 39.207,50.1 38.782,49.281C38.57,48.825 38.441,48.431 38.396,48.097C38.35,47.763 38.327,47.232 38.327,46.504L38.327,19.282C38.327,18.584 38.35,18.061 38.396,17.712C38.441,17.363 38.57,16.976 38.782,16.551C39.207,15.731 40.391,15.322 42.333,15.322C44.245,15.322 45.398,15.731 45.793,16.551C46.035,17.006 46.18,17.408 46.225,17.757C46.271,18.106 46.293,18.63 46.293,19.328L46.293,29.388C47.811,27.537 49.586,26.611 51.619,26.611Z" fill="currentColor"/></symbol><use xlink:href="#logo-symbol-icon" style="color:#fff" /></svg>
