<svg width="24" height="20" fill="none" xmlns="http://www.w3.org/2000/svg">
  <path d="M23.933 2.824c-1.609 1.255-2.86 2.533-3.754 3.833-.85 1.255-1.274 2.443-1.274 3.564.179-.09.402-.135.67-.135a5.77 5.77 0 0 1 .805-.067c1.028 0 1.877.426 2.547 1.278.715.806 1.073 1.815 1.073 3.025 0 1.48-.492 2.713-1.475 3.699-.983.986-2.212 1.479-3.687 1.479-1.564 0-2.793-.56-3.687-1.681-.894-1.165-1.34-2.712-1.34-4.64 0-2.286.692-4.55 2.077-6.791 1.386-2.241 3.42-4.37 6.1-6.388l1.945 2.824Zm-13.81 0C8.514 4.08 7.263 5.357 6.369 6.657 5.519 7.912 5.095 9.1 5.095 10.22c.179-.09.402-.135.67-.135a5.77 5.77 0 0 1 .805-.067c1.028 0 1.877.426 2.547 1.278.715.806 1.073 1.815 1.073 3.025 0 1.48-.492 2.713-1.475 3.699-.983.986-2.212 1.479-3.687 1.479-1.564 0-2.793-.56-3.687-1.681C.447 16.654 0 15.107 0 13.179c0-2.286.693-4.55 2.078-6.791 1.386-2.241 3.42-4.37 6.1-6.388l1.945 2.824Z" fill="currentColor"/>
</svg>
