<svg xmlns="http://www.w3.org/2000/svg" width="1195.8" height="803"><path stroke-miterlimit="10" class="st99" d="M102.1 466.5c-6 5.8-11.8 5-18.2-.6-2.5-2.2-4.6.9-.6 4.9 4 4 13.5 8.3 22 .8" fill="#e09c5c" stroke="#946f3a" stroke-width="2.283" stroke-linecap="round" stroke-linejoin="round"/><path stroke-miterlimit="10" d="M265.2 263.5h-59.8c-15 0-27.3 12.3-27.3 27.3v12.9c0 6.3 2.2 12.1 5.8 16.8-6.7 13.7-21.4 16.9-21.4 16.9 18.9 2.3 24.6-3.5 30.7-9.2 3.7 1.8 7.8 2.9 12.2 2.9h59.8c15 0 27.3-12.3 27.3-27.3v-12.9c.1-15.1-12.2-27.4-27.3-27.4z" fill="#fff" stroke="#668794" stroke-width="2.283" stroke-linecap="round" stroke-linejoin="round"/><path stroke-miterlimit="10" class="st99" d="M146.3 472.5c-.1 11.9-2.4 21.1 7.9 21.2 10.3.1 13.2-2.5 13.1-10.1-.1-7.6-.6-21-.6-21" fill="#e09c5c" stroke="#946f3a" stroke-width="2.283" stroke-linecap="round" stroke-linejoin="round"/><path stroke-miterlimit="10" class="st101" d="M131.8 365.8c-20.2 0-35.1 7.6-35.1 36v54.3c0 8 4.4 21.8 21.8 21.8h24.1c8.5 0 16.3-2.8 22.5-9.4 6.2-6.6 9.2-13.3 9.2-25.5v-46.6s20.4-.5 29.4-13.3c8.9-12.8 6.9-28.2 5.7-32.6 0 0 5.1-.5 4-4.4-1.1-3.9-7.3-3.3-10.1-1.1 0 0-1.6-1.8-7-1.7-5.4.1-3.7 6.2.7 6.7 0 0 2.4 13.8-4.6 18.7-7 4.9-21.4 6.6-29.8 2.7-8.5-3.7-11.3-5.6-30.8-5.6z" fill="#fbc16c" stroke="#946f3a" stroke-width="2.283" stroke-linecap="round" stroke-linejoin="round"/><path class="st4" d="M118.5 476.8c-20.1 0-20.6-18.5-20.6-20.6v-23.1c13 .1 18.8 1.5 18.8 12.4 0 13.2 2.2 19.8 13.9 19.8H162c1.7 0 3.4-.1 5-.7-.8 1-1.7 2.1-2.7 3.2-5.6 6-12.9 9-21.6 9z" fill="#e09c5c"/><path stroke-miterlimit="10" class="st101" d="M124.8 372.1c-9.6-2.9-14.7-4.9-11.8-13.3 2.9-8.4 17-6.6 24.7-2.7 0 0 4-2.4 6.3-3.3 2.3-.9 6.6-1.3 6.7 1.7 0 0 5.4.6 4.4 4.9 0 0 6.4 3.7-8.1 10.7M108.5 381.5c0-6.4-3.8-10.3-11.8-10.3s-14.8 7.5-13 18.7c1.8 11.2-4.3 19.9 2.8 24.9s14.4 1.9 16.7-1.9c0 0 7.6 2 7-9.9" fill="#fbc16c" stroke="#946f3a" stroke-width="2.283" stroke-linecap="round" stroke-linejoin="round"/><path stroke-miterlimit="10" d="M137.3 395.8c-5.7 0-8.8 4.4-7.5 10.2 1.3 5.7 5 10 11.4 10.2 6.4.1 12.5-2.1 14.4-11.4 1.9-9.3-1.6-9.4-4.4-9.4-2.8 0-13.9.4-13.9.4z" fill="#544024" stroke="#3b3024" stroke-width="2.283" stroke-linecap="round" stroke-linejoin="round"/><path stroke-miterlimit="10" d="M146.8 408.9c0-6.7-5.4-12.2-12.2-12.2-.6 0-1.1.1-1.7.1-2.8 1.6-4.1 5-3.2 9.1 1.3 5.7 5 10 11.4 10.2 1.1 0 2.2 0 3.3-.2 1.6-2 2.4-4.4 2.4-7z" fill="#693131" stroke="#381916" stroke-width="2.283" stroke-linecap="round" stroke-linejoin="round"/><path stroke-miterlimit="10" class="st104" d="M151.1 402.5v-7.2c-3 0-13.8.4-13.8.4-4.5 0-7.4 2.8-7.8 6.8z" fill="#fff" stroke="#7d7d65" stroke-width="2.283" stroke-linecap="round" stroke-linejoin="round"/><path stroke-miterlimit="10" class="st104" d="M116.2 410.7c6 5.8 14.3 5.8 18.1 2.6 3.8-3.2 5.8-11.4 2.7-12.2-3.1-.8-2.4 4.7-5.2 6.3-2.8 1.6-6 1.2-9-.7-2.9-1.9-5.9-3.2-7.4-1.4-1.3 2-.6 4 .8 5.4z" fill="#fff" stroke="#7d7d65" stroke-width="2.283" stroke-linecap="round" stroke-linejoin="round"/><path stroke-miterlimit="10" d="M319.4 440.7c-5.7 6.2-14 6.6-18 3.6-4-3-6.4-11-3.4-12 3-1 2.7 4.5 5.5 6s6.1.9 8.9-1.1c2.8-2 5.7-3.6 7.3-1.7 1.6 1.9 1.1 3.8-.3 5.2z" fill="none" stroke="#000" stroke-width=".571"/><path stroke-miterlimit="10" class="st101" d="M104.3 415.3l-20.5.1s-.7-3.4-3.8-2.9c-3.1.5-3.8 2.3-3.9 3.4 0 0-6.8.4-6.9 7.2-.1 6.8 4.9 9.5 12.1 9.1 7.2-.4 24.4 0 24.4 0" fill="#fbc16c" stroke="#946f3a" stroke-width="2.283" stroke-linecap="round" stroke-linejoin="round"/><path stroke-miterlimit="10" class="st99" d="M105.4 472.5c-.1 11.9-2.4 21.1 7.9 21.2 10.3.1 13.2-2.5 13.1-10.1-.1-7.6-.2-10.4-.2-10.4" fill="#e09c5c" stroke="#946f3a" stroke-width="2.283" stroke-linecap="round" stroke-linejoin="round"/><path d="M122.7 399.8c-.9 0-1.6-.7-1.6-1.6v-10.9c0-.9.7-1.6 1.6-1.6.9 0 1.6.7 1.6 1.6v10.9c0 .9-.7 1.6-1.6 1.6z" fill="#402f19"/><path stroke-miterlimit="10" class="st106" d="M518.8 297c-6.9-8.5-22.1-16.7-42.9-6.4-20.8 10.3-26.2 38-14.9 56.5 11.3 18.5 14.4 22.6 14.4 22.6v46.7c0 9.8 2.8 13.3 10 13.3s11.3-2.8 11.3-9.8v-10.5h29.5v11c0 4.3 2.6 9 9.5 9s9.8-2.3 9.8-11.8V355s.8-27.4-26.7-58z" fill="#fbc16c" stroke="#946f3a" stroke-width="3.565" stroke-linecap="round" stroke-linejoin="round"/><path class="st4" d="M485.4 427.9c-6.2 0-8.2-2.8-8.2-11.6V369l-.4-.5s-2-2.7-8.5-13.1c.1-1.4.2-2.8.1-4.1l13 17.2v22c0 5.2 1.1 11.2 9.9 11.2h52.3v15.8c0 9-2.6 10-8 10-7.2 0-7.7-5.5-7.7-7.2v-12.7H495v12.3c0 5.5-3 8-9.6 8z" fill="#e09c5c"/><path d="M504.6 170.3h206.2v203.5H504.6z" stroke-miterlimit="10" stroke="#3b3024" stroke-width="3.565" stroke-linecap="round" stroke-linejoin="round"/><path d="M477.8 330.1c-.8 0-1.6-.4-2-1.1l-5.3-9c-.3-.5-.4-1.2-.2-1.7.2-.6.5-1.1 1.1-1.4 1.1-.6 2.5-.3 3.2.8l5.3 9c.6 1.1.3 2.5-.8 3.2-.5.1-.9.2-1.3.2z" fill="#141a1c"/><path stroke-miterlimit="10" class="st108" d="M264.8 453c-7.2.9-16.7-.7-21.6-1.8-4.9-1.1-7.8 4.3-8.5 9.5-.7 5.2 11.7 14.1 32.7 8.7M333 450.2c13.1 4.1 22.2 11.7 22 20.3-.2 8.6-9.6 14.2-16.5 15.5-6.9 1.3-9.8-6.1-8.9-11.1.9-5 3.4-6.6 3.4-6.6M328 465.6c5 2.6 10.1 5.4 10.1 5.4M334 412c0-6.4 3.8-10.3 11.8-10.3s14.8 7.5 13 18.7c-1.8 11.2 4.3 19.9-2.8 24.9-7.1 4.9-14.4 1.9-16.7-1.9 0 0-7.6 2-7-9.9" fill="#fbe6c6" stroke="#668794" stroke-width="2.283" stroke-linecap="round" stroke-linejoin="round"/><path stroke-miterlimit="10" class="st108" d="M298.1 395.3c-29.7-.3-34.4 7.9-42 14.4-7.6 6.6-17.6 18.8-36.6 19.5 0 0-2.5-3.5-5.2-1s-2.2 5.9-.3 7.2c0 0-3.7 3.7.2 7.6 3.9 3.9 7.2 0 7.2 0s14.4 1.3 25.9-4c11.4-5.4 15.1-3.3 15.1-3.3v50.4c0 15.8 7.2 22 25.9 22s36.8 1.7 44.5-6.2c7.7-7.9 6.4-19.2 5.9-29.2s0-28.1 0-43.5c0-15.4-1.4-33.6-40.6-33.9z" fill="#fbe6c6" stroke="#668794" stroke-width="2.283" stroke-linecap="round" stroke-linejoin="round"/><path stroke-miterlimit="10" class="st109" d="M310.3 505.6c0 4.8-.5 6.6-.2 10.1-1.6 1.1-2.2 3-1.7 4.6.6 2 3.6 4 9.9 3.9 10.4.1 13.2-2.5 13.1-10.1-.1-3.5-.2-8.2-.3-12.2" fill="#dcceb5" stroke="#668794" stroke-width="2.283" stroke-linecap="round" stroke-linejoin="round"/><path d="M304.5 507c-2.6 0-5.1 0-7.9-.1-2.8 0-5.6-.1-8.4-.1-18 0-24.7-5.7-24.7-20.9 0-2.5 4.3-4.8 9-4.8 2.3 0 6.6.6 9.2 4.3 3.8 5.2 8.9 7.1 16.3 7.1 4.5 0 14.5.2 17.9-2.4 4.5-3.3 5.8-7.9 13.3-9.6 3-.7 5.6-1.2 8.6-.4.2 9.3-1.3 17.2-5.9 20.8-5.5 4.4-14.5 6.1-27.4 6.1z" fill="#dcceb5"/><path stroke-miterlimit="10" class="st108" d="M311.9 402.8c7-.1 10.7-4.4 10.2-8.6-.6-4.1-3.5-9.9-16.6-9.2-5.8.3-8.7 4.1-11.5 4.1-2.8-.1-8.3-8.1-13.1-7.6-4.8.5-5.1 3.9-4.3 5.5 0 0-4.3 1.3-1.9 6.9 2.4 5.6 7.3 7.5 12.1 8.1" fill="#fbe6c6" stroke="#668794" stroke-width="2.283" stroke-linecap="round" stroke-linejoin="round"/><path stroke-miterlimit="10" class="st109" d="M271.7 503.1c0 4.8-.5 9.2-.2 12.7-1.6 1.1-2.2 3-1.7 4.6.6 2 3.6 4 9.9 3.9 10.4.1 13.2-2.5 13.1-10.1 0-2.9-.1-3.7-.2-7.2" fill="#dcceb5" stroke="#668794" stroke-width="2.283" stroke-linecap="round" stroke-linejoin="round"/><path stroke-miterlimit="10" class="st106" d="M463.1 323.1c-3.8-5.7-8.6-7.6-16.5-3.7-7.9 3.9-8.7 14.8-4.6 21 4.2 6.3 4.8 11.2 3.8 15.8-1 4.6.5 7.1 3.7 8 3.2.9 5.2-1.1 5.2-1.1s11.2 1.1 12.4-8c1.2-9.1-.2-12.9-.2-12.9" fill="#fbc16c" stroke="#946f3a" stroke-width="3.565" stroke-linecap="round" stroke-linejoin="round"/><path stroke-miterlimit="10" d="M454.7 363.1c2-2.5 2-7.6 2-7.6" fill="none" stroke="#946f3a" stroke-width="3.565" stroke-linecap="round" stroke-linejoin="round"/><path stroke-miterlimit="10" class="st106" d="M462.8 306.7c-7.3-3.2-9.2-12.8-2.8-17 6.4-4.2 13.3-4.3 13.3-4.3s7.1-12.2 11.7-12.6c4.6-.4 6 2.7 5.2 5.2 0 0 5.9-1.1 6 3.8.1 5-2.6 7.8-6.4 10.6" fill="#fbc16c" stroke="#946f3a" stroke-width="3.565" stroke-linecap="round" stroke-linejoin="round"/><path stroke-miterlimit="10" d="M486.8 340.8c7.3 2.2 15.1 2.2 19.6-4.9 4.5-7.1 6.9-14.3 2.9-15.8s-5.4 2-7.2 6.5c-1.8 4.5-5.1 6-10.8 5.1-5.7-.9-7.7 0-8.1 2.7-.4 2.7.3 5.3 3.6 6.4z" fill="#fff" stroke="#4a493c" stroke-width="3.565" stroke-linecap="round" stroke-linejoin="round"/><path stroke-miterlimit="10" d="M627.8 211.5c.7-8.6 12.3-17.4 29.3-11.5 17 5.9 30.2 19.1 26.7 44.7 0 0 13.1 53.9 13.6 80l-31.7 1.6 1.1-57.3c0 .1-50.3-41.3-39-57.5z" fill="#fbdeb5" stroke="#946f3a" stroke-width="3.565" stroke-linecap="round" stroke-linejoin="round"/><path stroke-miterlimit="10" class="st113" d="M666.8 269.1c-.4-14.1.7-22.5.7-22.5" fill="#fbc16c" stroke="#946f3a" stroke-width="1.782" stroke-linecap="round" stroke-linejoin="round"/><path stroke-miterlimit="10" d="M628.7 208.6c6.4-7.9 18.4-6.8 28.2-1.2 9.9 5.5 15.4 12 15.4 12" fill="none" stroke="#946f3a" stroke-width="1.782" stroke-linecap="round" stroke-linejoin="round"/><path stroke-miterlimit="10" class="st115" d="M622.4 215.4c-2.1-4.9 9.9-8.8 18.2-3.6 8.3 5.2 18.6 15.2 18.5 26.7-.1 11.5-11.2 9.1-11.2 9.1s-25.1-31.4-25.5-32.2z" fill="#fbe6c6" stroke="#668794" stroke-width="3.565" stroke-linecap="round" stroke-linejoin="round"/><path stroke-miterlimit="10" class="st106" d="M607 294c4.3 13.7 10.6 20.3 10.6 20.3l31.8-16.4-7.9-12.1z" fill="#fbc16c" stroke="#946f3a" stroke-width="3.565" stroke-linecap="round" stroke-linejoin="round"/><path class="st45" d="M657.1 258.2c0 25.5-21.2 42.3-45.8 44-28.8 2-43.4-18.5-43.4-44s20-46.1 44.6-46.1 44.6 20.6 44.6 46.1z" fill="#fbc16c"/><path stroke-miterlimit="10" class="st106" d="M619.4 301.1c-2.6.6-5.3.9-8.1 1.1-28.8 2-43.4-18.5-43.4-44s20-46.1 44.6-46.1 44.6 20.7 44.6 46.1c0 7.1-1.6 13.5-4.5 19.1" fill="#fbc16c" stroke="#946f3a" stroke-width="3.565" stroke-linecap="round" stroke-linejoin="round"/><path stroke-miterlimit="10" class="st106" d="M581.5 247.7c-18.4 13.4-32.3 13.5-41.8 4.6 0 0 1.6-5.8-4.2-4.8-5.8 1-7.8 7.2-5.4 10.4 0 0-2.6 4.2-.4 8.4s8 2.8 8 2.8 8.4 9.4 20.3 9.4 21.1-3.4 25.9-8.4" fill="#fbc16c" stroke="#946f3a" stroke-width="3.565" stroke-linecap="round" stroke-linejoin="round"/><path stroke-miterlimit="10" d="M599.2 282.6c-.3-2.5-1.6-4.8-3.6-6.3s-4.6-2.2-7-1.8c-.9.1-1.9.5-2.3 1.3-1.3-.4-2.6-.7-3.9-.5-1.3.2-2.6.8-3.3 2-.7 1.1-.7 2.7.2 3.7-.4 2.4.3 5 2.3 6.4.8.5 1.7.9 2.6 1.1 2.1.6 4.4.7 6.5 0 1.3-.4 2.4-1.1 3.5-1.8 1.7-1.2 3.7-2.3 5-4.1z" fill="#a34c4c" stroke="#47271c" stroke-width="1.782" stroke-linecap="round" stroke-linejoin="round"/><path stroke-miterlimit="10" d="M592.6 281.5c-2.1 2.2-5.4 3.2-8.4 2.7-1.7-.3-3.5-1.3-4-3 1.8-1.4 4-2.1 6.3-2.1 2.2 0 4.3 1 6.1 2.4z" fill="#fbe6c6" stroke="#47271c" stroke-width="1.782" stroke-linecap="round" stroke-linejoin="round"/><circle cx="613.1" cy="271.9" r="7.2" fill="#a34c4c"/><path stroke-miterlimit="10" class="st118" d="M594.6 250.6c2.1 4.5 3.4 5.7 6.3 6.6 2.9.9 7.5-.6 9.4-3.2 0 0-2.2-3.7-7.2-4.9-5-1.1-8.5 1.5-8.5 1.5zM580.5 247.2s.9-4.5-8.9-7.4c-1.2 2.8-2.1 5.8-2.7 8.9 6.5 1.3 9.4.8 11.6-1.5z" fill="#fbe6c6" stroke="#946f3a" stroke-width="1.782" stroke-linecap="round" stroke-linejoin="round"/><path stroke-miterlimit="10" class="st106" d="M642.7 250.6c-5 13.3-5.7 28.4-1.9 33.9 3.9 5.6 9.1 4.2 9.9 1.1 0 0 .7 5.1 6.6 5.7 5.8.6 10.3-6.8 10.2-19-.1-12.2-3.7-21-12.9-21.9-9.2-.9-11.9.2-11.9.2z" fill="#fbc16c" stroke="#946f3a" stroke-width="3.565" stroke-linecap="round" stroke-linejoin="round"/><path stroke-miterlimit="10" d="M574.6 233.9c12.3-2.5 26.9-2.1 42.9 7.1s30.1 14 39.6 14.9c-1.1-24.5-20.6-44-44.5-44-16.1.1-30.2 8.9-38 22z" fill="#51a1b5" stroke="#31446e" stroke-width="3.565" stroke-linecap="round" stroke-linejoin="round"/><path stroke-miterlimit="10" class="st113" d="M596.6 240.8c1.7-1 3.7-1.5 5.6-1.6M605.7 238.9c1 0 1.9.2 2.8.5M576.4 235.5c1.8.3 3.5 1.3 4.8 2.6" fill="#fbc16c" stroke="#946f3a" stroke-width="1.782" stroke-linecap="round" stroke-linejoin="round"/><path stroke-miterlimit="10" class="st120" d="M577.6 242.5c-.3.2-.6.4-.9.7-1.5 1.7-1.4 4.3.2 5.9 1.5-.3 2.6-1 3.6-2 0 .1.5-2.2-2.9-4.6zM610.3 254s-1.6-2.8-5.3-4.3c-.4.2-.9.5-1.2.9-1.6 1.8-1.4 4.5.3 6.1.2.2.5.4.7.5 2.2-.4 4.4-1.6 5.5-3.2z" fill="#4d3b21" stroke="#2b2111" stroke-width="1.782" stroke-linecap="round" stroke-linejoin="round"/><path stroke-miterlimit="10" class="st106" d="M683.8 244.7c-2.3-7.7-5.4-11.6-5.4-11.6" fill="#fbc16c" stroke="#946f3a" stroke-width="3.565" stroke-linecap="round" stroke-linejoin="round"/><path stroke-miterlimit="10" class="st121" d="M611.3 323.1c-3.1 9.1-5.8 21.9 2 32.1l-2.2 11.4 80.7 2.3s-1-32.5-15.5-42.8c-14.4-10.4-15.9-11.5-18.9-15-3.1-3.5-5.9-9.7-5.9-9.7z" fill="#876a4d" stroke="#3b3024" stroke-width="3.565" stroke-linecap="round" stroke-linejoin="round"/><path stroke-miterlimit="10" class="st121" d="M649.1 296.5c-18 2.9-31.5 11.9-38.2 22.5-3.8 6-3.2 10.1-3.2 10.1l47.2-28zM605.7 365.5c.5-12.8 3.5-34.8 20.8-36.8s39.3 3.1 55.7 38.2z" fill="#876a4d" stroke="#3b3024" stroke-width="3.565" stroke-linecap="round" stroke-linejoin="round"/><path stroke-miterlimit="10" d="M497.8 163.6v218.9h218.9V163.6zm201.9 201.9H514.8V180.6h184.9z" fill="#594726" stroke="#45331b" stroke-width="3.565" stroke-linecap="round" stroke-linejoin="round"/><path d="M504.6 170.3h206.2v206.2H504.6z" stroke-miterlimit="10" fill="none" stroke="#45331b" stroke-width="2.674" stroke-linecap="round" stroke-linejoin="round"/><path stroke-miterlimit="10" d="M651.5 312.2c6.5.1 10.6 4.6 10.6 4.6" fill="none" stroke="#3b3024" stroke-width="1.782" stroke-linecap="round" stroke-linejoin="round"/><path stroke-miterlimit="10" class="st113" d="M679.6 325.8c-2.9-26.5-7.3-51.7-7.3-51.7M683.3 325.3l-.6-27.8" fill="#fbc16c" stroke="#946f3a" stroke-width="1.782" stroke-linecap="round" stroke-linejoin="round"/><circle stroke-miterlimit="10" class="st115" cx="649.4" cy="298" r="7.7" fill="#fbe6c6" stroke="#668794" stroke-width="3.565" stroke-linecap="round" stroke-linejoin="round"/><path stroke-miterlimit="10" d="M607.4 236.3c3.3 1.2 6.6 2.8 10 4.7 16 9.2 30.1 14 39.6 14.9-.7-15.2-8.5-28.5-20.1-36.4-11.9 1.5-22.4 7.8-29.5 16.8z" fill="#31446e" stroke="#31446e" stroke-width="3.565" stroke-linecap="round" stroke-linejoin="round"/><path stroke-miterlimit="10" class="st106" d="M495.1 347c5.7 4.6 14.7 8.5 20.1 6.6 7.7-2.7 12.7-4.6 15.8 2.2 3.1 6.8-1.9 10.8-10.1 15.2-9.9 5.2-18.6.3-26.3-3.7M570.7 380.9c0 4.9-3.9 7-8.8 7s-8.8-2.2-8.8-7 3.9-7.7 8.8-7.7 8.8 2.9 8.8 7.7z" fill="#fbc16c" stroke="#946f3a" stroke-width="3.565" stroke-linecap="round" stroke-linejoin="round"/><path stroke-miterlimit="10" d="M593.5 225.5c8.4.5 16.9 1.8 28.6 7.8" fill="none" stroke="#31446e" stroke-width="2.674" stroke-linecap="round" stroke-linejoin="round"/><path d="M598.6 175.5h3.6M616.3 175.5h64M588.7 175.5h5.6M513.3 175.5H579" stroke-miterlimit="10" class="st127" fill="none" stroke="#fbf0d3" stroke-width="2.674" stroke-linecap="round" stroke-linejoin="round"/><path class="st72" d="M262.8 284.5h-54.6c-1.9 0-3.4-1.5-3.4-3.4s1.5-3.4 3.4-3.4h54.6c1.9 0 3.4 1.5 3.4 3.4s-1.5 3.4-3.4 3.4zM262.8 301.4h-54.6c-1.9 0-3.4-1.5-3.4-3.4s1.5-3.4 3.4-3.4h54.6c1.9 0 3.4 1.5 3.4 3.4 0 1.8-1.5 3.4-3.4 3.4zM262.8 318.2h-54.6c-1.9 0-3.4-1.5-3.4-3.4s1.5-3.4 3.4-3.4h54.6c1.9 0 3.4 1.5 3.4 3.4s-1.5 3.4-3.4 3.4z" fill="#4a4439"/><path stroke-miterlimit="10" class="st108" d="M273.9 412c0-6.4 3.8-10.3 11.8-10.3s14.8 7.5 13 18.7c-1.8 11.2 4.3 19.9-2.8 24.9-7.1 4.9-14.4 1.9-16.7-1.9 0 0-7.6 2-7-9.9" fill="#fbe6c6" stroke="#668794" stroke-width="2.283" stroke-linecap="round" stroke-linejoin="round"/><path d="M534.8 202.3h45.1M534.8 313.4h45.1M550.1 330.7h29.8M534.8 348.4h45.1M534.8 218.4h11.8" stroke-miterlimit="10" class="st128" fill="#fbe6c6" stroke="#28353b" stroke-width="7.13" stroke-linecap="round" stroke-linejoin="round"/><path stroke-miterlimit="10" class="st101" d="M172.3 427.6c11.6-.6 21.6-4.6 26.7-9.3 5.8-5.3 8.9-10.5 3.7-15.1-5.1-4.5-10.1-.1-10.1-.1s-2-3.1-5-.8-.8 4.5-.8 4.5-3.6 5-14.9 5.5" fill="#fbc16c" stroke="#946f3a" stroke-width="2.283" stroke-linecap="round" stroke-linejoin="round"/><path class="st31" d="M117 400.6l-3.5.6c-1 .2-2-.5-2.1-1.5-.2-1 .5-2 1.5-2.1l3.5-.6c1-.2 2 .5 2.1 1.5.2 1-.4 2-1.5 2.1zM476.8 338l-5.4.9c-1.6.3-3.1-.8-3.3-2.4-.3-1.6.8-3.1 2.4-3.3l5.4-.9c1.6-.3 3.1.8 3.3 2.4.3 1.6-.8 3.1-2.4 3.3z" fill="#e68a4c"/><path stroke-miterlimit="10" class="st129" d="M187.7 375.8c.7-.2 1-.4 1.6-.7M182.5 377.2c.9-.2.4 0 1.2-.2M170.2 377.4c2.2.3 4.4.4 6.6.4M156.1 373.4c2.4 1.1 5 2 7.7 2.7" fill="none" stroke="#fbd7a3" stroke-width="2.853" stroke-linecap="round" stroke-linejoin="round"/><path stroke-miterlimit="10" stroke-linejoin="round" stroke-linecap="round" stroke-width="3.292" stroke="#946f3a" fill="#e09c5c" class="st130" d="M943 464.9c-8.7 8.4-17 7.2-26.3-.8-3.6-3.1-6.6 1.3-.8 7.1s19.4 12 31.7 1.2M1006.7 473.5c-.2 17.1-3.5 30.4 11.5 30.6 15 .2 19.1-3.7 18.9-14.6-.2-11-.8-30.2-.8-30.2"/><path stroke-miterlimit="10" stroke-linejoin="round" stroke-linecap="round" stroke-width="3.292" stroke="#946f3a" fill="#fbc16c" class="st131" d="M985.8 319.6c-29.1 0-50.6 10.9-50.6 51.9v78.4c0 11.6 6.3 31.4 31.4 31.4h34.7c12.2 0 23.5-4 32.4-13.6 8.9-9.6 13.2-19.2 13.2-36.7v-67.1s29.4-.7 42.3-19.2c12.9-18.5 9.9-40.7 8.3-47 0 0 7.4-.7 5.8-6.3-1.6-5.6-10.5-4.7-14.6-1.6 0 0-2.3-2.6-10.1-2.4-7.8.2-5.3 9 1 9.6 0 0 3.5 20-6.6 27s-30.9 9.5-43 3.9c-12.1-5.5-16.1-8.3-44.2-8.3z"/><path stroke-miterlimit="10" stroke-linejoin="round" stroke-linecap="round" stroke-width="4.327" stroke="#402f19" fill="none" class="st132" d="M983.3 370.5c8.6 5.9 19.2 7.4 26.8.7"/><path fill="#e09c5c" class="st4" d="M966.6 479.7c-28.9 0-29.8-26.7-29.8-29.8v-33.3c18.8.2 27.1 2.2 27.1 17.9 0 19 3.1 28.6 20.1 28.6h45.2c2.5 0 4.9-.1 7.2-1.1-1.1 1.5-2.4 3-3.9 4.6-8.1 8.7-18.6 13-31.2 13h-34.7z"/><path stroke-miterlimit="10" stroke-linejoin="round" stroke-linecap="round" stroke-width="3.292" stroke="#946f3a" fill="#fbc16c" class="st131" d="M975.8 328.7c-13.8-4.1-21.2-7-17.1-19.1 4.1-12.1 24.5-9.5 35.6-3.9 0 0 5.8-3.4 9.1-4.7 3.3-1.3 9.5-1.9 9.7 2.4 0 0 7.8.8 6.4 7 0 0 9.3 5.3-11.7 15.4M952.2 342.3c0-9.3-5.4-14.8-17-14.8s-21.4 10.8-18.7 27c2.7 16.2-6.2 28.7 4 35.9 10.2 7.2 20.8 2.7 24.1-2.7 0 0 11 2.9 10-14.3"/><path stroke-miterlimit="10" stroke-linejoin="round" stroke-linecap="round" stroke-width="3.292" stroke="#7d7d65" fill="#fff" d="M963.3 384.4c8.7 8.4 20.6 8.4 26.1 3.8 5.5-4.6 8.4-16.4 4-17.5-4.4-1.2-3.5 6.7-7.5 9.1-4 2.3-8.7 1.7-12.9-1-4.2-2.7-8.5-4.7-10.6-2-2.1 2.7-1.1 5.6.9 7.6z"/><path stroke-miterlimit="10" stroke-linejoin="round" stroke-linecap="round" stroke-width="3.292" stroke="#946f3a" fill="#e09c5c" class="st130" d="M947.8 473.5c-.2 17.1-3.5 30.4 11.5 30.6 15 .2 19.1-3.7 18.9-14.6-.2-11-.3-15-.3-15"/><path fill="#e68a4c" class="st31" d="M965.4 369.8l-6.7 1.1c-1 .2-2-.5-2.1-1.5l-.3-1.6c-.2-1 .5-2 1.5-2.1l6.7-1.1c1-.2 2 .5 2.1 1.5l.3 1.6c.2.9-.5 1.9-1.5 2.1z"/><path stroke-miterlimit="10" stroke-linejoin="round" stroke-linecap="round" stroke-width="4.115" stroke="#fbd7a3" fill="none" class="st134" d="M1066.5 334c1-.4 1.4-.5 2.4-1M1059 336.1c1.2-.2.5 0 1.7-.3M1041.1 336.4c3.1.4 6.3.6 9.5.5M1020.8 330.6c3.4 1.5 7.2 2.9 11.1 3.9"/><path stroke-miterlimit="10" class="st135" d="M275.1 402.4c.7-.3 1.3-.5 1.9-.8M269.6 405.1c.9-.5.9-.6 1.8-1.1M261.8 410.5c1.6-1.2 2.5-1.9 4.1-2.9M254.1 417.8c1.2-1.3 2.6-2.6 4-3.9" fill="none" stroke="#fff" stroke-width="2.283" stroke-linecap="round" stroke-linejoin="round"/><path stroke-miterlimit="10" class="st136" d="M519.2 357.7c.9-.3 1.8-.7 2.7-1.1M508.6 358.8c1.5.2 2.9.3 4.5.1M495 353.7c2.7 1.4 5.2 2.7 7.7 3.6" fill="none" stroke="#fbd7a3" stroke-width="4.456" stroke-linecap="round" stroke-linejoin="round"/><path d="M705.7 298.9v3M705.7 290.9v2.6M705.7 243.7v38.4" stroke-miterlimit="10" class="st137" fill="none" stroke="#bf9649" stroke-width="3.565" stroke-linecap="round" stroke-linejoin="round"/><path d="M700.3 206.8L712 226l19.7 11.1-19.3 11.8-11.1 19.6-11.8-19.2-19.6-11.1 19.3-11.8zM687.9 176l8.4-4.9 5-8.4 4.9 8.4 8.4 5-8.4 4.9-5 8.4-4.9-8.4z" class="st33" fill="#fff"/><path d="M509.2 246.6v-2.9M509.2 254.7V252M509.2 301.9v-38.4" stroke-miterlimit="10" class="st137" fill="none" stroke="#bf9649" stroke-width="3.565" stroke-linecap="round" stroke-linejoin="round"/><path d="M454.6 433.1h255.3v95.6H454.6z" fill="#587faa"/><path d="M708.8 434.1v93.6H455.5v-93.6h253.3m2-2H453.5v97.6h257.3z"/><path d="M708.81 446.053v9.1h-253.2v-9.1z" class="st82" fill="#2d3f68"/><path d="M455.3 446.1h255.5M462.3 463.4v2.2M462.3 446.1v13.1M468.4 463.4v2.2M468.4 446.1v13.1" stroke-miterlimit="10" class="st80" fill="#587faa" stroke="#000" stroke-width="2" stroke-linecap="round" stroke-linejoin="round"/><path d="M458.9 435.7h246.8" stroke-miterlimit="10" fill="none" stroke="#fff" stroke-width="2" stroke-linecap="round" stroke-linejoin="round"/><path stroke-miterlimit="10" class="st158" d="M714.6 483.2c0-6.8-2.8-11.9-6.9-11.9-4.1 0-6.7 4.1-6.7 11.9v17.4c0 4.8.5 11.1 6.8 11.1s4.8-17.9 4.8-17.9M767.3 483.2c0-6.8 2.8-11.9 6.9-11.9 4 0 6.7 4.1 6.7 11.9v17.4c0 4.8-.5 11.1-6.8 11.1s-4.8-17.9-4.8-17.9" fill="#f4a679" stroke="#668794" stroke-width="2.283" stroke-linecap="round" stroke-linejoin="round"/><path stroke-miterlimit="10" class="st158" d="M801.4 500.9c-2.4-2.8-6.8-3.1-9.7-.8-6.2 4.9-9.9 7.4-16.1 11V500c0-.6-.1-1.1-.1-1.7.1-.9.1-1.9.1-2.9 0-18.7-15.2-30.7-33.9-30.7s-33.9 12-33.9 30.7c0 1 0 1.9.1 2.9-.1.5-.1 1.1-.1 1.7v9.7c-5.8-3.4-9.4-5.8-15.3-10.6-2.9-2.3-7.2-2-9.7.8-2.4 2.8-1.9 7.3 1.3 9.9 7.6 6 11.7 8.7 20.1 13.4 1.2.7 2.4 1 3.6 1v25.6c0 .4 0 .9.1 1.3 0 .3-.1.6-.1.9v22.6c0 3.2 2.6 5.8 5.8 5.8h7.8c3.2 0 5.8-2.6 5.8-5.8v-12.8h29.3v12.8c0 3.2 2.6 5.8 5.8 5.8h7.8c3.2 0 5.8-2.6 5.8-5.8V552c0-.3 0-.6-.1-.9 0-.4.1-.9.1-1.3V525c1.5.2 3-.1 4.4-.9 8.4-4.7 12.5-7.4 20.1-13.4 2.9-2.4 3.4-6.9 1-9.8z" fill="#f4a679" stroke="#668794" stroke-width="2.283" stroke-linecap="round" stroke-linejoin="round"/><path d="M722.6 561.9h40.7" stroke-miterlimit="10" class="st108" fill="#fbe6c6" stroke="#668794" stroke-width="2.283" stroke-linecap="round" stroke-linejoin="round"/><path stroke-miterlimit="10" class="st158" d="M737.3 557.4c3.9 9.1 16.6 9.5 23.8 3.7 2.8-2.2 2.4-4.5-1.9-3.7-4.3.7-10.6 3.9-15.6-2M724.6 471.3c-1.8-7.5 1.7-14.4 13.4-12.2 2.7.5 4.8 1.5 4.8 1.5s6-1 11.2-2.8c5.2-1.8 9 .5 9.9 5.4.8 4.9-1.5 8.3-8.9 9.7" fill="#f4a679" stroke="#668794" stroke-width="2.283" stroke-linecap="round" stroke-linejoin="round"/><path stroke-miterlimit="10" class="st159" d="M625.2 484.8c0-6.8-2.8-11.9-6.9-11.9-4 0-6.7 4.1-6.7 11.9v17.4c0 4.8.5 11.1 6.8 11.1s4.8-17.9 4.8-17.9M677.9 484.8c0-6.8 2.8-11.9 6.9-11.9 4.1 0 6.7 4.1 6.7 11.9v17.4c0 4.8-.5 11.1-6.8 11.1s-4.8-17.9-4.8-17.9" fill="#965e8c" stroke="#5c3556" stroke-width="2.283" stroke-linecap="round" stroke-linejoin="round"/><path stroke-miterlimit="10" class="st159" d="M687.5 513.4l-1.3 1.6v-13.3c0-.6-.1-1.1-.1-1.7.1-.9.1-1.9.1-2.9 0-18.7-15.2-33.9-33.9-33.9s-33.9 15.2-33.9 33.9c0 1 0 1.9.1 2.9-.1.5-.1 1.1-.1 1.7v11.7c-13.2 3.2-16 17.8 0 24.1v14c0 .4 0 .9.1 1.3 0 .3-.1.6-.1.9v22.6c0 3.2 2.6 5.8 5.8 5.8h7.8c3.2 0 5.8-2.6 5.8-5.8v-12.7h29.3v12.8c0 3.2 2.6 5.8 5.8 5.8h7.8c3.2 0 5.8-2.6 5.8-5.8v-22.6c0-.3 0-.6-.1-.9 0-.4.1-.9.1-1.3v-13.5c.4-.1.9-.3 1.3-.5 15.8-6.3 13-21-.3-24.2z" fill="#965e8c" stroke="#5c3556" stroke-width="2.283" stroke-linecap="round" stroke-linejoin="round"/><path d="M632.8 563.6h40.7" stroke-miterlimit="10" fill="#fbe6c6" stroke="#5c3556" stroke-width="2.283" stroke-linecap="round" stroke-linejoin="round"/><path stroke-miterlimit="10" class="st161" d="M677.3 479.1c.8 1.1 1.5 2.2 2.1 3.4M671.8 473.2c.9.8 1.8 1.6 2.7 2.5M633 473c5.3-4.2 12-6.7 19.2-6.7 6.4 0 12.3 2 17.3 5.3" fill="none" stroke="#b895a6" stroke-width="2" stroke-linecap="round" stroke-linejoin="round"/><path d="M618.3 537.5v-10.4l3-2.1M686.2 538v-11.6l-3-2.1" stroke-miterlimit="10" class="st162" fill="none" stroke="#5c3556" stroke-width="2.283" stroke-linecap="round" stroke-linejoin="round"/><path class="st163" d="M536.7 483.2c0-6.8-2.8-11.9-6.9-11.9-4.1 0-6.7 4.1-6.7 11.9v17.4c0 4.8.5 11.1 6.8 11.1s4.8-17.9 4.8-17.9M589.4 483.2c0-6.8 2.8-11.9 6.9-11.9 4 0 6.7 4.1 6.7 11.9v17.4c0 4.8-.5 11.1-6.8 11.1s-4.8-17.9-4.8-17.9" fill="#fbe6c6"/><path stroke-miterlimit="10" class="st108" d="M623.5 500.9c-2.4-2.8-6.8-3.1-9.7-.8-6.2 4.9-9.9 7.4-16.1 11V500c0-.6-.1-1.1-.1-1.7.1-.9.1-1.9.1-2.9 0-18.7-15.2-30.7-33.9-30.7s-33.9 12-33.9 30.7c0 1 0 1.9.1 2.9-.1.5-.1 1.1-.1 1.7v9.7c-5.8-3.4-9.4-5.8-15.3-10.6-2.9-2.3-7.2-2-9.7.8-2.4 2.8-1.9 7.3 1.3 9.9 7.6 6 11.7 8.7 20.1 13.4 1.2.7 2.4 1 3.6 1v25.6c0 .4 0 .9.1 1.3 0 .3-.1.6-.1.9v22.6c0 3.2 2.6 5.8 5.8 5.8h7.8c3.2 0 5.8-2.6 5.8-5.8v-12.8h29.3v12.8c0 3.2 2.6 5.8 5.8 5.8h7.8c3.2 0 5.8-2.6 5.8-5.8V552c0-.3 0-.6-.1-.9 0-.4.1-.9.1-1.3V525c1.5.2 3-.1 4.4-.9 8.4-4.7 12.5-7.4 20.1-13.4 2.9-2.4 3.4-6.9 1-9.8zM544.3 561.9H585" fill="#fbe6c6" stroke="#668794" stroke-width="2.283" stroke-linecap="round" stroke-linejoin="round"/><path stroke-miterlimit="10" class="st108" d="M544.5 472.5c-3.4-7.4 3.2-16.2 17.7-12.8 0 0 16.5-3.7 19.8-2.6 2.7 1 3.2 3.5 0 4.8 0 0 3.2 3.7-.8 5.3 0 0 1.1 4.3-3.6 5.3s-13.4 0-13.4 0M574.1 466.6c3.2-.1 7.1.6 7.1.6M572.6 461.9s4.8-1 9.3 0" fill="#fbe6c6" stroke="#668794" stroke-width="2.283" stroke-linecap="round" stroke-linejoin="round"/><path stroke-miterlimit="10" stroke-linejoin="round" stroke-linecap="round" stroke-width="4.327" stroke="#402f19" fill="none" class="st132" d="M966.2 358.4c3.2-4.1 7.7-4.8 10.8 0"/><g><path d="M1086.8 435.8v-67.5L1048 354l-60.6 14.4v69.2l40.2 17.1z" stroke-miterlimit="10" stroke-linejoin="round" stroke-linecap="round" stroke-width="3.292" stroke="#552814" fill="#e14741" class="st164"/><path d="M1048 354l-60.6 14.4 40.1 13 59.3-13.1zM1086.8 368.3l-59.3 13.1.1 73.3 59.2-15.1z" stroke-miterlimit="10" stroke-linejoin="round" stroke-linecap="round" stroke-width="3.292" stroke="#552814" fill="#e14741" class="st164"/></g><path stroke-miterlimit="10" stroke-linejoin="round" stroke-linecap="round" stroke-width="3.292" stroke="#946f3a" fill="#fbc16c" class="st131" d="M950.1 415.4c13 12.2 29.5 18.9 48.8 15.1 7.6-1.5 9.4-19.1-3.3-19.4 0 0-1.8-6.5-6.1-5.7-4.3.8-2.4 5.7-2.4 5.7s-18.6-4.6-25.9-12.2"/><path stroke-miterlimit="10" class="st109" d="M330.1 497c6 5.8 11.8 5 18.2-.6 2.5-2.2 4.6.9.6 4.9-4 4-13.5 8.3-22 .8" fill="#dcceb5" stroke="#668794" stroke-width="2.283" stroke-linecap="round" stroke-linejoin="round"/><path stroke-miterlimit="10" d="M727.9 463.2c2.2-1.9 6.1-3.7 14.1 0 0 0 8.5-1.3 13.5-3.3" fill="none" stroke="#f7ceb2" stroke-width="2" stroke-linecap="round" stroke-linejoin="round"/><path d="M1051.4 416.2l-9.2-5.6 12.1-4 4.7-12.3 4.7 10.1 12.1-2.1-9.2 10.2 2.8 11-10.4-3.7-10.4 8.8z" fill="#fbc16c" class="st45"/><path stroke-miterlimit="10" class="st108" d="M559.4 557.4c3.9 9.1 16.6 9.5 23.8 3.7 2.8-2.2 2.4-4.5-1.9-3.7-4.3.7-10.6 3.9-15.6-2" fill="#fbe6c6" stroke="#668794" stroke-width="2.283" stroke-linecap="round" stroke-linejoin="round"/><path stroke-miterlimit="10" class="st159" d="M644.8 557.4c3.9 9.1 16.6 9.5 23.8 3.7 2.8-2.2 2.4-4.5-1.9-3.7-4.3.8-10.6 3.9-15.6-2" fill="#965e8c" stroke="#5c3556" stroke-width="2.283" stroke-linecap="round" stroke-linejoin="round"/><g transform="translate(-18.4)"><circle r="38.4" cy="585.9" cx="616.3" class="st82" fill="#2d3f68"/><path class="st33" d="M607.7 585.6v7.9h12.5l4.5 6.1h-22.8v-14h-6.5l9.2-10.9 9.4 10.9zM626.5 587.6v-7.9H614l-4.5-6.1h22.8v13.9l6.5.1-9.3 10.9-9.3-10.9z" fill="#fff"/></g><g transform="translate(-67.403)"><circle r="38.4" cy="582.2" cx="265.5" class="st82" fill="#2d3f68"/><path d="M283.1 580c-4.8-8.9-19.9-8.5-25.1-8.1V564l-13.5 13.5L258 591v-7.6c16.4 0 22.9.4 21.9 16.7 0 .2 9-9.3 3.2-20.1z" class="st33" fill="#fff"/></g><g transform="translate(-.3)"><circle r="38.4" cy="582.2" cx="996.8" class="st82" fill="#2d3f68"/><path class="st33" d="M1005.4 586.9l3.2 13.4-11.8-7.2-11.8 7.2 3.2-13.4-10.4-9 13.7-1.1 5.3-12.8 5.3 12.8 13.8 1.1z" fill="#fff"/></g><path d="M1032 385l51-12" stroke-miterlimit="10" stroke-linejoin="round" stroke-linecap="round" stroke-width="3.292" stroke="#e69985" fill="none"/></svg>