<?xml version="1.0" standalone="no"?>
<!DOCTYPE svg PUBLIC "-//W3C//DTD SVG 20010904//EN"
 "http://www.w3.org/TR/2001/REC-SVG-20010904/DTD/svg10.dtd">
<svg version="1.0" xmlns="http://www.w3.org/2000/svg"
 width="275.000000pt" height="102.000000pt" viewBox="0 0 275.000000 102.000000"
 preserveAspectRatio="xMidYMid meet">

<g transform="translate(0.000000,102.000000) scale(0.100000,-0.100000)"
fill="#c7001d" stroke="none" id="logo-symbol-wordmark">
<path d="M213 973 l-53 -23 0 -79 0 -80 -52 -3 -53 -3 -3 -47 -3 -48 55 0 54
0 4 -152 c3 -146 4 -155 30 -200 35 -59 91 -88 171 -88 65 0 73 8 60 61 -8 31
-13 34 -49 37 -51 3 -79 18 -93 49 -6 14 -11 81 -11 158 l0 135 75 0 75 0 -25
50 c-25 50 -25 50 -75 50 l-49 0 -3 103 -3 103 -52 -23z"/>
<path d="M697 776 c-114 -41 -177 -132 -177 -256 0 -110 53 -200 145 -245 58
-29 194 -28 251 2 159 84 192 306 64 433 -72 73 -188 100 -283 66z m173 -108
c52 -26 90 -89 90 -148 0 -45 -37 -118 -73 -144 -18 -13 -48 -21 -90 -24 -53
-3 -67 0 -97 20 -55 38 -80 82 -80 145 0 58 15 96 52 130 51 48 128 56 198 21z"/>
<path d="M1150 520 l0 -270 50 0 50 0 0 188 c0 183 1 189 23 210 47 44 128 55
168 23 23 -19 24 -24 29 -218 l5 -198 48 -3 47 -3 0 190 0 190 35 27 c24 18
52 29 84 32 40 3 52 0 77 -21 l29 -25 3 -197 4 -196 46 3 47 3 3 170 c1 96 -2
192 -8 222 -31 148 -182 190 -302 85 l-35 -31 -22 30 c-27 37 -76 59 -128 59
-39 0 -115 -30 -127 -49 -13 -21 -26 -11 -26 19 0 29 -1 30 -50 30 l-50 0 0
-270z"/>
<path d="M2010 785 c0 -3 38 -57 85 -120 48 -64 88 -122 91 -130 3 -7 -39 -72
-95 -147 l-100 -133 50 -3 c66 -4 82 8 154 107 32 44 61 78 66 76 4 -3 71 -93
150 -200 78 -108 150 -200 160 -205 19 -11 119 -14 119 -4 0 3 -81 116 -180
250 -99 133 -180 248 -180 254 0 6 41 64 90 130 50 66 90 122 90 125 0 12 -97
4 -117 -10 -11 -8 -44 -46 -73 -85 -28 -38 -55 -70 -59 -70 -5 0 -32 34 -62
76 -29 41 -61 80 -70 85 -18 9 -119 13 -119 4z"/>
</g>
</svg>
