<svg xmlns="http://www.w3.org/2000/svg" viewBox="0 0 64 64" enable-background="new 0 0 64 64"><circle cx="32" cy="32" r="30" fill="#4fd1d9"/><path d="m45.5 36.3c.4.2.5.5.5.9 0 .5-.3 1.2-1 2.3-.6 1.1-1.1 1.7-1.5 2-.4.2-.7.2-1.1 0l-8.6-6.2 1.2 10.5c.1.4-.1.7-.5.9-.4.2-1.3.3-2.5.3-1.2 0-2.1-.1-2.5-.3-.4-.2-.6-.5-.5-.9l1.1-10.5-8.5 6.2c-.3.2-.7.2-1.1 0-.4-.2-.9-.9-1.5-2-.6-1-.9-1.8-.9-2.3 0-.5.2-.8.5-.9l9.7-4.3-9.7-4.3c-.4-.2-.6-.5-.5-1 0-.5.3-1.2.9-2.3.6-1 1.1-1.7 1.5-1.9s.8-.2 1.1 0l8.5 6.2-1.1-10.4c-.1-.4.1-.7.5-1s1.3-.3 2.5-.3c1.2 0 2.1.1 2.5.3.4.2.6.5.5 1l-1.1 10.5 8.6-6.2c.3-.2.7-.2 1.1 0s.9.9 1.5 2c.6 1 .9 1.8 1 2.2 0 .5-.1.8-.5 1l-9.8 4.2 9.7 4.3" fill="#fff"/></svg>