<svg xmlns="http://www.w3.org/2000/svg" viewBox="0 0 64 64" enable-background="new 0 0 64 64"><path d="M62,52c0,5.5-4.5,10-10,10H12C6.5,62,2,57.5,2,52V12C2,6.5,6.5,2,12,2h40c5.5,0,10,4.5,10,10V52z" fill="#d0d0d0"/><path d="M57,45.7c0,4.6-3.7,8.3-8.3,8.3H15.3C10.7,54,7,50.3,7,45.7V12.3C7,7.7,10.7,4,15.3,4h33.3
		c4.6,0,8.3,3.7,8.3,8.3V45.7z" fill="#fff"/><path d="m45.5 33.3c.4.2.5.5.5.9 0 .5-.3 1.2-1 2.3-.6 1.1-1.1 1.7-1.5 2-.4.2-.7.2-1.1 0l-8.6-6.2 1.2 10.5c.1.4-.1.7-.5.9-.4.2-1.3.3-2.5.3-1.2 0-2.1-.1-2.5-.3-.4-.2-.6-.5-.5-.9l1.1-10.5-8.5 6.2c-.3.2-.7.2-1.1 0-.4-.2-.9-.9-1.5-2-.6-1-.9-1.8-.9-2.3 0-.5.2-.8.5-.9l9.7-4.3-9.7-4.3c-.4-.2-.6-.5-.5-1 0-.5.3-1.2.9-2.3.6-1 1.1-1.7 1.5-1.9.4-.2.8-.2 1.1 0l8.5 6.2-1.1-10.4c-.1-.4.1-.7.5-1s1.3-.3 2.5-.3c1.2 0 2.1.1 2.5.3s.6.5.5 1l-1.1 10.5 8.6-6.2c.3-.2.7-.2 1.1 0 .4.2.9.9 1.5 2 .6 1 .9 1.8 1 2.2 0 .5-.1.8-.5 1l-9.8 4.2 9.7 4.3" fill="#9aa0a5"/></svg>