<svg xmlns="http://www.w3.org/2000/svg" viewBox="0 0 64 64" enable-background="new 0 0 64 64"><path d="M62,52c0,5.5-4.5,10-10,10H12C6.5,62,2,57.5,2,52V12C2,6.5,6.5,2,12,2h40c5.5,0,10,4.5,10,10V52z" fill="#d0d0d0"/><path d="M57,45.7c0,4.6-3.7,8.3-8.3,8.3H15.3C10.7,54,7,50.3,7,45.7V12.3C7,7.7,10.7,4,15.3,4h33.3
			c4.6,0,8.3,3.7,8.3,8.3V45.7z" fill="#fff"/><path d="m22 36.1l5.6-.7c.2 1.5.7 2.6 1.4 3.4s1.7 1.2 2.8 1.2c1.2 0 2.2-.5 3-1.4.8-.9 1.2-2.2 1.2-3.8 0-1.5-.4-2.7-1.2-3.6-.8-.9-1.7-1.3-2.9-1.3-.7 0-1.6.1-2.6.4l.6-4.9c1.6 0 2.8-.3 3.6-1.1s1.2-1.7 1.2-3c0-1.1-.3-1.9-.9-2.5-.6-.6-1.4-.9-2.4-.9-1 0-1.8.4-2.5 1.1s-1.1 1.8-1.3 3.1l-5.3-.9c.4-1.9.9-3.4 1.7-4.5.7-1.1 1.8-2 3.1-2.7 1.3-.6 2.8-1 4.5-1 2.8 0 5.1.9 6.8 2.8 1.4 1.5 2.1 3.3 2.1 5.2 0 2.8-1.4 4.9-4.3 6.6 1.7.4 3.1 1.2 4.1 2.6 1 1.3 1.5 3 1.5 4.9 0 2.8-1 5.1-2.9 7-1.7 1.9-4.1 2.9-7 2.9-2.7 0-5-.8-6.8-2.4-1.8-1.7-2.8-3.8-3.1-6.5" fill="#9aa0a5"/></svg>