<?xml version="1.0" encoding="utf-8"?>
<!-- Generator: Adobe Illustrator 25.2.3, SVG Export Plug-In . SVG Version: 6.00 Build 0)  -->
<svg version="1.1" id="Layer_2" xmlns="http://www.w3.org/2000/svg" xmlns:xlink="http://www.w3.org/1999/xlink" x="0px" y="0px"
	 viewBox="0 0 128 128" style="enable-background:new 0 0 128 128;" xml:space="preserve">
<g>
	<path style="fill:#CC3333;" d="M116,4H12c-4.42,0-8,3.58-8,8v104c0,4.42,3.58,8,8,8h104c4.42,0,8-3.58,8-8V12
		C124,7.58,120.42,4,116,4z"/>
	<path style="fill:#F44336;" d="M109.7,4H11.5C7.37,4.03,4.03,7.37,4,11.5v97.9c-0.01,4.14,3.34,7.49,7.48,7.5c0.01,0,0.01,0,0.02,0
		h98.1c4.14,0.01,7.49-3.34,7.5-7.48c0-0.01,0-0.01,0-0.02V11.5c0.09-4.05-3.13-7.41-7.18-7.5C109.85,4,109.77,4,109.7,4z"/>
	<path style="fill:#FF8A80;" d="M39.7,12.9c0-2.3-1.6-3-10.8-2.7c-7.7,0.3-11.5,1.2-13.8,4s-2.9,8.5-3,15.3c0,4.8,0,9.3,2.5,9.3
		c3.4,0,3.4-7.9,6.2-12.3C26.2,17.8,39.7,15.9,39.7,12.9z"/>
	<path style="fill:#FAFAFA;" d="M77.6,87.5H46.3c-0.84,0-1.59,0.52-1.9,1.3l-6.2,17.8c-0.3,0.79-1.06,1.31-1.9,1.3H24.8
		c-1.1,0.01-2.01-0.87-2.03-1.97c0-0.25,0.04-0.49,0.13-0.73l31.7-84c0.3-0.79,1.06-1.31,1.9-1.3h11c0.84,0,1.59,0.52,1.9,1.3
		l31.8,84c0.39,1.03-0.14,2.19-1.17,2.57c-0.23,0.09-0.48,0.13-0.73,0.13H87.6c-0.84,0-1.59-0.52-1.9-1.3l-6.2-17.8
		C79.19,88.02,78.44,87.5,77.6,87.5z M52,75.2h19.9c1.13-0.02,2.03-0.96,2.01-2.09c0-0.21-0.04-0.41-0.11-0.61l-9.9-28.4
		c-0.34-1.05-1.48-1.62-2.52-1.28c-0.6,0.2-1.08,0.67-1.28,1.28l-9.9,28.4c-0.39,1.03,0.14,2.19,1.17,2.57
		C51.57,75.15,51.79,75.19,52,75.2z"/>
</g>
</svg>
