<?xml version="1.0" encoding="UTF-8" standalone="no"?><svg xmlns:dc="http://purl.org/dc/elements/1.1/" xmlns:cc="http://creativecommons.org/ns#" xmlns:rdf="http://www.w3.org/1999/02/22-rdf-syntax-ns#" xmlns:svg="http://www.w3.org/2000/svg" xmlns="http://www.w3.org/2000/svg" viewBox="0 0 45 45" style="enable-background:new 0 0 45 45;" xml:space="preserve" version="1.1" id="svg2"><metadata id="metadata8"><rdf:RDF><cc:Work rdf:about=""><dc:format>image/svg+xml</dc:format><dc:type rdf:resource="http://purl.org/dc/dcmitype/StillImage"/></cc:Work></rdf:RDF></metadata><defs id="defs6"><clipPath id="clipPath16" clipPathUnits="userSpaceOnUse"><path id="path18" d="M 0,36 36,36 36,0 0,0 0,36 Z"/></clipPath></defs><g transform="matrix(1.25,0,0,-1.25,0,45)" id="g10"><g id="g12"><g clip-path="url(#clipPath16)" id="g14"><g transform="translate(36,4)" id="g20"><path id="path22" style="fill:#dd2e44;fill-opacity:1;fill-rule:nonzero;stroke:none" d="m 0,0 c 0,-2.209 -1.791,-4 -4,-4 l -28,0 c -2.209,0 -4,1.791 -4,4 l 0,28 c 0,2.209 1.791,4 4,4 l 28,0 c 2.209,0 4,-1.791 4,-4 L 0,0 Z"/></g><g transform="translate(7.458,15.7646)" id="g24"><path id="path26" style="fill:#ffffff;fill-opacity:1;fill-rule:nonzero;stroke:none" d="M 0,0 5.32,0 2.716,8.119 2.66,8.119 0,0 Z m -0.308,10.163 c 0.476,1.288 1.568,2.324 2.996,2.324 1.484,0 2.52,-0.979 2.997,-2.324 l 5.488,-15.231 c 0.168,-0.449 0.223,-0.84 0.223,-1.036 0,-1.092 -0.896,-1.848 -1.931,-1.848 -1.177,0 -1.765,0.616 -2.044,1.456 l -0.879,2.731 -7.72,0 -0.866,-2.703 c -0.28,-0.868 -0.868,-1.484 -2.016,-1.484 -1.12,0 -2.072,0.84 -2.072,1.96 0,0.448 0.14,0.784 0.196,0.924 l 5.628,15.231 z"/></g><g transform="translate(24.2002,12)" id="g28"><path id="path30" style="fill:#ffffff;fill-opacity:1;fill-rule:nonzero;stroke:none" d="m 0,0 3.304,0 c 1.512,0 2.632,0.729 2.632,2.296 0,1.315 -1.008,2.112 -2.968,2.112 L 0,4.408 0,0 Z m 0,8 2.184,0 c 1.372,0 2.268,0.815 2.268,2.216 0,1.315 -1.036,2.088 -2.268,2.088 L 0,12.304 0,8 Z m -4.2,5.9 c 0,1.344 0.924,2.1 2.212,2.1 l 5.376,0 C 6.3,16 8.652,14.04 8.652,11.072 8.652,9.112 7.84,7.796 6.048,6.956 l 0,-0.056 C 8.428,6.564 10.304,4.477 10.304,2.041 10.304,-1.907 7.672,-4 3.808,-4 l -5.768,0 c -1.288,0 -2.24,0.876 -2.24,2.192 l 0,15.708 z"/></g></g></g></g></svg>
