<?xml version="1.0" encoding="UTF-8" standalone="no"?><svg xmlns:dc="http://purl.org/dc/elements/1.1/" xmlns:cc="http://creativecommons.org/ns#" xmlns:rdf="http://www.w3.org/1999/02/22-rdf-syntax-ns#" xmlns:svg="http://www.w3.org/2000/svg" xmlns="http://www.w3.org/2000/svg" viewBox="0 0 45 45" style="enable-background:new 0 0 45 45;" xml:space="preserve" version="1.1" id="svg2"><metadata id="metadata8"><rdf:RDF><cc:Work rdf:about=""><dc:format>image/svg+xml</dc:format><dc:type rdf:resource="http://purl.org/dc/dcmitype/StillImage"/></cc:Work></rdf:RDF></metadata><defs id="defs6"><clipPath id="clipPath16" clipPathUnits="userSpaceOnUse"><path id="path18" d="M 0,36 36,36 36,0 0,0 0,36 Z"/></clipPath></defs><g transform="matrix(1.25,0,0,-1.25,0,45)" id="g10"><g id="g12"><g clip-path="url(#clipPath16)" id="g14"><g transform="translate(36,4)" id="g20"><path id="path22" style="fill:#3b88c3;fill-opacity:1;fill-rule:nonzero;stroke:none" d="m 0,0 c 0,-2.209 -1.791,-4 -4,-4 l -28,0 c -2.209,0 -4,1.791 -4,4 l 0,28 c 0,2.209 1.791,4 4,4 l 28,0 c 2.209,0 4,-1.791 4,-4 L 0,0 Z"/></g><g transform="translate(1.5273,22.8789)" id="g24"><path id="path26" style="fill:#ffffff;fill-opacity:1;fill-rule:nonzero;stroke:none" d="m 0,0 c 0,0.85 0.544,1.326 1.275,1.326 0.323,0 0.85,-0.255 1.071,-0.561 l 5.388,-7.191 0.034,0 0,6.426 c 0,0.85 0.544,1.326 1.275,1.326 0.731,0 1.275,-0.476 1.275,-1.326 l 0,-9.655 c 0,-0.85 -0.544,-1.325 -1.275,-1.325 -0.323,0 -0.833,0.254 -1.071,0.56 l -5.389,7.106 -0.033,0 0,-6.341 c 0,-0.85 -0.544,-1.325 -1.275,-1.325 C 0.544,-10.98 0,-10.505 0,-9.655 L 0,0 Z"/></g><g transform="translate(12.5942,22.624)" id="g28"><path id="path30" style="fill:#ffffff;fill-opacity:1;fill-rule:nonzero;stroke:none" d="m 0,0 c 0,0.85 0.425,1.479 1.326,1.479 l 4.215,0 c 0.816,0 1.207,-0.578 1.207,-1.173 0,-0.578 -0.408,-1.173 -1.207,-1.173 l -2.992,0 0,-2.482 2.788,0 c 0.833,0 1.241,-0.578 1.241,-1.172 0,-0.579 -0.425,-1.173 -1.241,-1.173 l -2.788,0 0,-2.584 3.145,0 c 0.816,0 1.207,-0.578 1.207,-1.173 0,-0.578 -0.407,-1.173 -1.207,-1.173 l -4.385,0 C 0.561,-10.624 0,-10.114 0,-9.35 L 0,0 Z"/></g><g transform="translate(19.9043,22.5049)" id="g32"><path id="path34" style="fill:#ffffff;fill-opacity:1;fill-rule:nonzero;stroke:none" d="m 0,0 c -0.051,0.221 -0.068,0.34 -0.068,0.578 0,0.544 0.459,1.122 1.207,1.122 0.816,0 1.207,-0.476 1.359,-1.224 l 1.445,-7.224 0.035,0 2.209,7.445 C 6.375,1.309 6.885,1.7 7.514,1.7 8.143,1.7 8.652,1.309 8.84,0.697 l 2.209,-7.445 0.033,0 1.445,7.224 C 12.68,1.224 13.072,1.7 13.887,1.7 14.635,1.7 15.094,1.122 15.094,0.578 15.094,0.34 15.078,0.221 15.025,0 l -2.158,-9.281 c -0.17,-0.714 -0.73,-1.325 -1.681,-1.325 -0.834,0 -1.481,0.543 -1.684,1.24 l -1.973,6.561 -0.033,0 -1.972,-6.561 c -0.204,-0.697 -0.85,-1.24 -1.682,-1.24 -0.952,0 -1.514,0.611 -1.684,1.325 L 0,0 Z"/></g></g></g></g></svg>
