<?xml version="1.0" encoding="utf-8"?>
<!-- Generator: Adobe Illustrator 25.2.3, SVG Export Plug-In . SVG Version: 6.00 Build 0)  -->
<svg version="1.1" id="Layer_2" xmlns="http://www.w3.org/2000/svg" xmlns:xlink="http://www.w3.org/1999/xlink" x="0px" y="0px"
	 viewBox="0 0 128 128" style="enable-background:new 0 0 128 128;" xml:space="preserve">
<path style="fill:#427687;" d="M116,4H12c-4.42,0-8,3.58-8,8v104c0,4.42,3.58,8,8,8h104c4.42,0,8-3.58,8-8V12
	C124,7.58,120.42,4,116,4z"/>
<path style="fill:#8CAFBF;" d="M109.7,4H11.5C7.37,4.03,4.03,7.37,4,11.5v97.9c-0.01,4.14,3.34,7.49,7.48,7.5c0.01,0,0.01,0,0.02,0
	h98.1c4.14,0.01,7.49-3.34,7.5-7.48c0-0.01,0-0.01,0-0.02V11.5c0.09-4.05-3.13-7.41-7.18-7.5C109.85,4,109.77,4,109.7,4z"/>
<path style="opacity:0.5;fill:#B4E1ED;enable-background:new    ;" d="M39.7,12.9c0-2.3-1.6-3-10.8-2.7c-7.7,0.3-11.5,1.2-13.8,4
	s-2.9,3.47-3,10.27c0,4.8,0,9.3,2.5,9.3c3.4,0,3.4-2.87,6.2-7.27C26.2,17.8,39.7,15.9,39.7,12.9z"/>
<g>
	<path style="fill:#FAFAFA;" d="M20.22,89.32c-2.84-1.77-5.04-4.34-6.6-7.69c-1.57-3.35-2.35-7.32-2.35-11.9V37.88h9.12v32.45
		c0,3.65,0.85,6.59,2.55,8.83c1.7,2.24,4.12,3.36,7.25,3.36c3.13,0,5.55-1.12,7.25-3.36c1.7-2.24,2.55-5.19,2.55-8.83V37.88h9.12
		v31.86c0,4.39-0.77,8.25-2.31,11.61c-1.54,3.35-3.74,5.96-6.6,7.84c-2.86,1.87-6.2,2.81-10.01,2.81
		C26.38,91.99,23.05,91.1,20.22,89.32z"/>
	<path style="fill:#FAFAFA;" d="M59.4,37.88h17.16c3.08,0,5.9,0.7,8.44,2.11c2.54,1.4,4.54,3.38,5.99,5.91
		c1.45,2.54,2.18,5.43,2.18,8.69c0,3.25-0.73,6.16-2.18,8.72c-1.45,2.56-3.45,4.55-5.99,5.95c-2.54,1.4-5.36,2.11-8.44,2.11h-7.97
		V90.8H59.4V37.88z M76.83,61.9c2.27,0,4.05-0.71,5.34-2.14c1.29-1.43,1.94-3.15,1.94-5.17c0-2.02-0.65-3.73-1.94-5.14
		c-1.29-1.4-3.08-2.11-5.34-2.11h-8.24V61.9H76.83z"/>
	<path style="fill:#FAFAFA;" d="M100.9,88.92c-1.16-1.26-1.74-2.77-1.74-4.55c0-1.77,0.58-3.28,1.74-4.51
		c1.16-1.23,2.55-1.85,4.19-1.85c1.63,0,3.03,0.62,4.19,1.85c1.16,1.23,1.74,2.74,1.74,4.51c0,1.77-0.58,3.29-1.74,4.55
		c-1.16,1.26-2.55,1.88-4.19,1.88C103.45,90.8,102.05,90.17,100.9,88.92z M100.52,53.1V37.88h9.12V53.1l-0.82,19.52h-7.49
		L100.52,53.1z"/>
</g>
</svg>
