<svg xmlns="http://www.w3.org/2000/svg" viewBox="0 0 64 64" enable-background="new 0 0 64 64"><path d="M62,52c0,5.5-4.5,10-10,10H12C6.5,62,2,57.5,2,52V12C2,6.5,6.5,2,12,2h40c5.5,0,10,4.5,10,10V52z" fill="#4fd1d9"/><g fill="#fff"><path d="m12 22h4.1v10.7c0 1.7.1 2.8.2 3.3.2.8.6 1.5 1.2 1.9.7.5 1.5.7 2.7.7 1.1 0 2-.2 2.6-.7.6-.5.9-1 1.1-1.7.1-.7.2-1.8.2-3.3v-10.9h4v10.3c0 2.4-.1 4-.3 5-.2 1-.6 1.8-1.2 2.5-.6.7-1.4 1.2-2.4 1.6-1 .4-2.3.6-3.9.6-1.9 0-3.4-.2-4.4-.7-1-.4-1.8-1-2.3-1.7-.6-.7-1-1.4-1.1-2.2-.3-1.1-.4-2.8-.4-5v-10.4z"/><path d="m31 42v-20h5.9c2.2 0 3.7.1 4.4.3 1 .3 1.9 1 2.6 2 .7 1 1.1 2.3 1.1 3.9 0 1.2-.2 2.3-.6 3.1-.4.8-.9 1.5-1.6 2-.6.5-1.3.8-1.9.9-.9.2-2.2.3-3.8.3h-2.4v7.5h-3.7m3.7-16.6v5.7h2c1.5 0 2.4-.1 2.9-.3.5-.2.9-.5 1.2-1 .3-.4.4-1 .4-1.6 0-.7-.2-1.3-.6-1.8-.4-.5-.9-.8-1.5-.9-.4-.1-1.3-.1-2.7-.1h-1.7"/><path d="m48 42v-4h4v4h-4"/><path d="m48 22h4v12h-4z"/></g></svg>