<svg enable-background="new 0 0 128 128" viewBox="0 0 128 128" xmlns="http://www.w3.org/2000/svg"><path d="m65.71 15.31h-43.6c-1.25 0-2.24 1-2.24 2.24v100.96c0 1.24 1 2.24 2.24 2.24h43.59c30.15 0 50.43-21.19 50.43-52.73 0-31.53-20.27-52.71-50.42-52.71zm-1.29 80.8c-0.28 0-0.54-0.07-0.79-0.16-0.06 0.01-0.11 0.03-0.17 0.03-0.08 0.01-0.14 0.04-0.22 0.04h-14.7c-1.2 0-2.16-0.97-2.16-2.16v-51.67c0-1.19 0.96-2.16 2.16-2.16h14.7c0.08 0 0.14 0.03 0.22 0.04 0.05 0 0.11 0.02 0.17 0.03 0.25-0.09 0.51-0.16 0.79-0.16 0.43 0 0.86 0.04 1.29 0.06 0.75 0.03 1.5 0.09 2.24 0.18 13.11 1.63 21.69 12.39 21.69 27.84s-8.59 26.21-21.69 27.84c-0.74 0.09-1.49 0.15-2.24 0.18-0.43 0.03-0.86 0.07-1.29 0.07z" fill="#40C0E7"/></svg>
