<svg enable-background="new 0 0 128 128" viewBox="0 0 128 128" xmlns="http://www.w3.org/2000/svg"><path d="m93.22 66.17c5.68-5.41 9.19-12.68 9.19-20.7 0-16.63-15.01-30.15-33.46-30.15h-37.87c-1.24 0-2.24 1-2.24 2.24v100.96c0 1.24 1 2.24 2.24 2.24h42.62c18.46 0 33.47-13.53 33.47-30.16 0-10.05-5.52-18.95-13.95-24.43zm-25.82-9.35h-13.99c-0.21 0-0.36-0.14-0.44-0.33-0.03-0.06-0.08-0.12-0.08-0.19v-20.3c0-0.07 0.05-0.13 0.08-0.19 0.08-0.18 0.23-0.33 0.44-0.33h13.99c5.61 0 10.18 4.78 10.18 10.66 0 5.89-4.57 10.68-10.18 10.68zm0.85 44.48h-14.76c-0.04 0-0.07-0.04-0.11-0.05-0.22-0.06-0.4-0.23-0.4-0.47v-23.64c0-0.24 0.18-0.41 0.4-0.47 0.05-0.01 0.07-0.05 0.11-0.05h14.75c0.28 0 0.56 0.02 0.83 0.05 5.84 0.47 10.46 5.79 10.46 12.29 0 6.48-4.6 11.8-10.43 12.29-0.27 0.02-0.56 0.05-0.85 0.05z" fill="#40C0E7"/></svg>
