<svg xmlns="http://www.w3.org/2000/svg" viewBox="0 0 1000 1000">
  <defs/>
  <path fill="#002a8f" d="M8,195.25 C178.83,110.03 349.03,140.83 521.26,167.28 C676.47,191.12 833.42,211.85 992,132.75 L992,804.75 C821.17,889.97 650.97,859.17 478.74,832.72 C323.53,808.88 166.58,788.15 8,867.25 L8,195.25"/>
  <path fill="#fff" d="M8,329.65 C178.83,244.43 349.03,275.23 521.26,301.68 C676.47,325.52 833.42,346.25 992,267.15 L992,401.55 C821.17,486.77 650.97,455.97 478.74,429.52 C323.53,405.68 166.58,384.95 8,464.05 L8,598.45 C178.83,513.23 349.03,544.03 521.26,570.48 C676.47,594.32 833.42,615.05 992,535.95 L992,670.35 C821.17,755.57 650.97,724.77 478.74,698.32 C323.53,674.48 166.58,653.75 8,732.85 L8,329.65"/>
  <path fill="#cf142b" d="M434.07,490.05 C293.86,359.44 152.68,237.13 8,195.25 L8,867.25 C148.7,686.06 289.2,583.59 434.07,490.05"/>
  <path fill="#fff" d="M150.07,383.67 L193.55,559.99 C156,526.6 118.45,496.6 79.77,470.8 C126.15,455.87 172.46,448.12 220.24,445.36 C182.69,484.66 145.15,527.06 106.46,575.53 L150.07,383.67"/>
  <path fill="#1A1A1A" opacity="0.2" d="M8,195.25 C178.83,110.03 349.03,140.83 521.26,167.28 C676.47,191.12 833.42,211.85 992,132.75 L992,804.75 C821.17,889.97 650.97,859.17 478.74,832.72 C323.53,808.88 166.58,788.15 8,867.25 L8,195.25 M39.25,214.64 L39.25,819.14 C345.81,690.88 650.43,915.18 960.75,785.36 L960.75,180.86 C654.19,309.12 349.57,84.82 39.25,214.64"/>
</svg>
