<svg xmlns="http://www.w3.org/2000/svg" viewBox="0 0 1000 1000">
  <defs/>
  <path fill="#da121a" d="M8,195.25 C178.83,110.03 349.03,140.83 521.26,167.28 C676.47,191.12 833.42,211.85 992,132.75 L992,804.75 C821.17,889.97 650.97,859.17 478.74,832.72 C323.53,808.88 166.58,788.15 8,867.25 L8,195.25"/>
  <path fill="#fcdd09" d="M8,195.25 C178.83,110.03 349.03,140.83 521.26,167.28 C676.47,191.12 833.42,211.85 992,132.75 L992,580.75 C821.17,665.97 650.97,635.17 478.74,608.72 C323.53,584.88 166.58,564.15 8,643.25 L8,195.25"/>
  <path fill="#078930" d="M8,195.25 C178.83,110.03 349.03,140.83 521.26,167.28 C676.47,191.12 833.42,211.85 992,132.75 L992,356.75 C821.17,441.97 650.97,411.17 478.74,384.72 C323.53,360.88 166.58,340.15 8,419.25 L8,195.25"/>
  <path fill="#0f47af" d="M664,521.41 C663.76,646.43 590.83,737.74 500,724 C409.21,709.62 336.24,601.48 336,478.59 C336.24,353.57 409.17,262.26 500,276 C590.79,290.38 663.76,398.52 664,521.41"/>
  <path fill="#fcdd09" d="M500,320.8 L494.25,344.07 L517.96,447.4 L486.35,442.51 L482.8,456.9 L584.15,472.05 L599.2,459.1 L529.46,449.16 L500,320.8"/>
  <path fill="#fcdd09" d="M533.13,436.46 L574.91,364.05 L579.33,369.05 L537.56,441.51 L533.13,436.46"/>
  <path fill="#fcdd09" d="M624.78,462.19 L606.18,459.98 L544.11,512.97 L534.34,470.44 L522.85,468.68 L554.17,605.06 L569.21,622.17 L547.66,528.43 L624.78,462.19"/>
  <path fill="#fcdd09" d="M558.04,530.64 L625.62,569.49 L623.93,576.4 L556.34,537.49 L558.04,530.64"/>
  <path fill="#fcdd09" d="M577.12,656.5 L571.37,631.53 L509.3,560.66 L534.87,539.2 L531.32,523.73 L449.32,592.55 L443.57,615.87 L500,568.45 L577.12,656.5"/>
  <path fill="#fcdd09" d="M502.73,582.56 L502.73,679.62 L497.27,678.78 L497.27,581.71 L502.73,582.56"/>
  <path fill="#fcdd09" d="M422.88,633.45 L437.93,620.65 L461.64,524.49 L487.21,553.78 L496.51,545.99 L414.51,452.49 L395.91,450.06 L452.34,513.87 L422.88,633.45"/>
  <path fill="#fcdd09" d="M443.66,520.37 L376.07,541.46 L374.38,534.17 L441.96,513.02 L443.66,520.37"/>
  <path fill="#fcdd09" d="M375.22,427.06 L390.27,443.76 L466.99,454.48 L457.22,494.07 L466.52,504.7 L497.84,377.85 L492.1,352.8 L470.54,440.09 C439.09,435.29 407.63,430.72 375.22,427.06"/>
  <path fill="#fcdd09" d="M462.44,429.98 L420.67,345.39 L425.09,341.61 L466.87,426.26 L462.44,429.98"/>
  <path fill="#1A1A1A" opacity="0.2" d="M8,195.25 C178.83,110.03 349.03,140.83 521.26,167.28 C676.47,191.12 833.42,211.85 992,132.75 L992,804.75 C821.17,889.97 650.97,859.17 478.74,832.72 C323.53,808.88 166.58,788.15 8,867.25 L8,195.25 M39.25,214.64 L39.25,819.14 C345.81,690.88 650.43,915.18 960.75,785.36 L960.75,180.86 C654.19,309.12 349.57,84.82 39.25,214.64"/>
</svg>
