<svg xmlns="http://www.w3.org/2000/svg" viewBox="0 0 1000 1000">
  <defs/>
  <path fill="#4189DD" d="M8,195.25 C179.17,109.87 349.69,140.95 522.26,167.44 C677.13,191.2 833.79,211.71 992,132.75 L992,804.75 C820.83,890.13 650.31,859.05 477.74,832.56 C322.87,808.8 166.21,788.29 8,867.25 L8,195.25"/>
  <path fill="#F9D616" d="M8,643.25 C179.17,557.87 349.69,588.95 522.26,615.44 C677.13,639.2 833.79,659.71 992,580.75 L992,618.08 C820.83,703.47 650.31,672.38 477.74,645.9 C322.87,622.13 166.21,601.63 8,680.58 L8,717.92 C179.17,632.53 349.69,663.62 522.26,690.1 C677.13,713.87 833.79,734.37 992,655.42 L992,692.75 C820.83,778.13 650.31,747.05 477.74,720.56 C322.87,696.8 166.21,676.29 8,755.25 L8,643.25"/>
  <path fill="#D21034" d="M176.56,270.44 L153.78,198.23 L131,278.19 C106.65,291.11 82.31,305.75 57.2,323.09 C81.56,321.66 105.9,322.3 131,324.86 L153.78,396.1 L176.56,317.11 C200.92,306.3 225.26,297.01 250.36,288.72 C226,281.37 201.65,275.18 176.56,270.44"/>
  <path fill="#FFF" d="M179.47,267.09 C206.95,272.41 234.42,279.64 262.75,288.65 C235.26,297.28 207.79,307.31 179.47,319.73 L153.78,408.79 L128.08,328.47 C100.59,325.84 73.13,325.42 44.81,327.93 C72.31,308.11 99.77,291.03 128.08,275.83 L153.78,185.54 L179.47,267.09 M173.06,271.99 L153.78,210.89 L133.92,280.56 C112.68,291.71 91.45,304.15 69.55,318.63 C90.8,318.01 112.02,318.91 133.92,321.26 L153.78,383.44 L173.64,314.51 C194.89,304.97 216.12,296.6 238,288.99 C216.76,282.95 195.52,277.83 173.64,273.81 L173.06,271.99"/>
  <path fill="#1A1A1A" opacity="0.2" d="M8,195.25 C179.17,109.87 349.69,140.95 522.26,167.44 C677.13,191.2 833.79,211.71 992,132.75 L992,804.75 C820.83,890.13 650.31,859.05 477.74,832.56 C322.87,808.8 166.21,788.29 8,867.25 L8,195.25 M39.25,214.64 L39.25,819.14 C345.75,690.85 650.43,915.18 960.75,785.36 L960.75,180.86 C654.25,309.15 349.57,84.82 39.25,214.64"/>
</svg>
