<?xml version="1.0" encoding="UTF-8" standalone="no"?><svg xmlns:dc="http://purl.org/dc/elements/1.1/" xmlns:cc="http://creativecommons.org/ns#" xmlns:rdf="http://www.w3.org/1999/02/22-rdf-syntax-ns#" xmlns:svg="http://www.w3.org/2000/svg" xmlns="http://www.w3.org/2000/svg" viewBox="0 0 45 45" style="enable-background:new 0 0 45 45;" xml:space="preserve" version="1.1" id="svg2"><metadata id="metadata8"><rdf:RDF><cc:Work rdf:about=""><dc:format>image/svg+xml</dc:format><dc:type rdf:resource="http://purl.org/dc/dcmitype/StillImage"/></cc:Work></rdf:RDF></metadata><defs id="defs6"><clipPath id="clipPath16" clipPathUnits="userSpaceOnUse"><path id="path18" d="M 0,36 36,36 36,0 0,0 0,36 Z"/></clipPath></defs><g transform="matrix(1.25,0,0,-1.25,0,45)" id="g10"><g id="g12"><g clip-path="url(#clipPath16)" id="g14"><g transform="translate(36,9)" id="g20"><path id="path22" style="fill:#141414;fill-opacity:1;fill-rule:nonzero;stroke:none" d="m 0,0 c 0,-2.209 -1.791,-4 -4,-4 l -28,0 c -2.209,0 -4,1.791 -4,4 l 0,18 c 0,2.209 1.791,4 4,4 l 28,0 c 2.209,0 4,-1.791 4,-4 L 0,0 Z"/></g><path id="path24" style="fill:#eeeeee;fill-opacity:1;fill-rule:nonzero;stroke:none" d="M 36,13 0,13 0,23 36,23 36,13 Z"/><g transform="translate(32,31)" id="g26"><path id="path28" style="fill:#ce1225;fill-opacity:1;fill-rule:nonzero;stroke:none" d="m 0,0 -28,0 c -2.209,0 -4,-1.791 -4,-4 l 0,-4 36,0 0,4 C 4,-1.791 2.209,0 0,0"/></g><g transform="translate(14.75,14.4375)" id="g30"><path id="path32" style="fill:#bf9300;fill-opacity:1;fill-rule:nonzero;stroke:none" d="m 0,0 c 0,0 0.016,-0.25 0.234,-0.375 0,0 -0.062,-0.187 0.172,-0.297 0.235,-0.109 1.078,-0.281 2.547,-0.281 1.469,0 2.297,0.156 2.516,0.266 0.218,0.109 0.234,0.359 0.234,0.359 0,0 0.234,0.125 0.219,0.281 -0.016,0.156 -0.328,0.328 -0.328,0.328 0,0 -0.078,0.203 -0.297,0.281 C 5.078,0.641 4.375,0.219 3.031,0.281 1.687,0.344 0.922,0.547 0.672,0.531 0.422,0.516 0.312,0.266 0.312,0.266 0.312,0.266 0.031,0.141 0,0"/></g><g transform="translate(14.9219,14.4531)" id="g34"><path id="path36" style="fill:#eeeeee;fill-opacity:1;fill-rule:nonzero;stroke:none" d="m 0,0 c -0.013,-0.093 0.187,-0.297 0.187,-0.297 0,0 0,-0.234 0.204,-0.297 0.203,-0.062 1.031,-0.218 2.375,-0.203 1.343,0.016 2.296,0.094 2.406,0.188 0.109,0.093 0.203,0.297 0.203,0.297 0,0 0.219,0.156 0.203,0.281 C 5.562,0.094 5.25,0.172 5.25,0.172 c 0,0 -0.088,0.187 -0.192,0.265 C 4.953,0.516 4.281,0.125 2.844,0.125 1.436,0.125 0.625,0.469 0.484,0.453 0.344,0.437 0.25,0.172 0.25,0.172 0.25,0.172 0.016,0.109 0,0"/></g><g transform="translate(15.1094,15.5781)" id="g38"><path id="path40" style="fill:#bf9300;fill-opacity:1;fill-rule:nonzero;stroke:none" d="M 0,0 0.187,4.937 0.656,4.437 0.5,0.422 0,0 Z"/></g><g transform="translate(20.2969,15.5781)" id="g42"><path id="path44" style="fill:#bf9300;fill-opacity:1;fill-rule:nonzero;stroke:none" d="M 0,0 -0.187,4.937 -0.656,4.437 -0.5,0.422 0,0 Z"/></g><g transform="translate(16.7188,18.1719)" id="g46"><path id="path48" style="fill:#bf9300;fill-opacity:1;fill-rule:nonzero;stroke:none" d="m 0,0 -1.031,-3.016 c 0,0 -0.719,0.047 -0.516,-0.531 0,0 0.11,0.328 0.297,0.266 0.188,-0.063 0.734,-0.203 0.734,-0.203 l 0.188,-0.297 0.234,0.218 0.735,0.032 c 0,0 0.234,-0.063 0.218,-0.266 0.203,0.469 -0.312,0.609 -0.312,0.609 l -0.235,0.047 0.516,2.016 C 1.163,-1.602 0,0 0,0"/></g><g transform="translate(17.375,17.1094)" id="g50"><path id="path52" style="fill:#eeeeee;fill-opacity:1;fill-rule:nonzero;stroke:none" d="M 0,0 -0.562,-2.141 -1.5,-1.953 -0.531,0.797 0,0 Z"/></g><g transform="translate(18.73,18.1719)" id="g54"><path id="path56" style="fill:#bf9300;fill-opacity:1;fill-rule:nonzero;stroke:none" d="m 0,0 1.031,-3.016 c 0,0 0.719,0.047 0.515,-0.531 0,0 -0.109,0.328 -0.296,0.266 C 1.062,-3.344 0.516,-3.484 0.516,-3.484 l -0.187,-0.297 -0.235,0.218 -0.735,0.032 c 0,0 -0.234,-0.063 -0.218,-0.266 -0.203,0.469 0.312,0.609 0.312,0.609 l 0.235,0.047 -0.516,2.016 C -1.162,-1.602 0,0 0,0"/></g><g transform="translate(18.0737,17.1094)" id="g58"><path id="path60" style="fill:#eeeeee;fill-opacity:1;fill-rule:nonzero;stroke:none" d="M 0,0 0.562,-2.141 1.501,-1.953 0.531,0.797 0,0 Z"/></g><g transform="translate(17.7515,17.0781)" id="g62"><path id="path64" style="fill:#bf9300;fill-opacity:1;fill-rule:nonzero;stroke:none" d="m 0,0 c -1.126,0.696 -1.22,2.453 -1.22,2.453 0,0 0.697,0.036 1.203,0.391 C 0.438,2.439 1.217,2.484 1.217,2.484 1.217,2.484 1.165,0.721 0,0 M -0.001,3.125 C -0.626,2.688 -1.486,2.656 -1.486,2.656 c 0,0 0.094,-2.125 1.485,-2.984 1.437,0.89 1.5,3.016 1.5,3.016 0,0 -0.938,-0.063 -1.5,0.437"/></g><g transform="translate(16.7656,19.3594)" id="g66"><path id="path68" style="fill:#bf9300;fill-opacity:1;fill-rule:nonzero;stroke:none" d="m 0,0 c 0,0 0.078,-0.906 0.484,-1.609 l 0,1.812 C 0.484,0.203 0.219,0.047 0,0"/></g><g transform="translate(18.7188,19.3281)" id="g70"><path id="path72" style="fill:#bf9300;fill-opacity:1;fill-rule:nonzero;stroke:none" d="m 0,0 c 0,0 -0.078,-0.906 -0.484,-1.609 l 0,1.812 c 0,0 0.265,-0.156 0.484,-0.203"/></g><g transform="translate(14.5469,20.5156)" id="g74"><path id="path76" style="fill:#bf9300;fill-opacity:1;fill-rule:nonzero;stroke:none" d="M 0,0 C 0,0 0.031,0.734 0.703,0.641 1.375,0.547 1.422,0.219 2.141,0.141 2.859,0.062 3.172,0.078 3.172,0.078 L 3.156,-0.141 c 0,0 -0.559,0.054 -1.093,0.11 C 1.469,0.031 1.236,0.341 0.672,0.422 0.234,0.484 0.25,0.047 0.25,0.047 L 0,0 Z"/></g><g transform="translate(20.8594,20.5156)" id="g78"><path id="path80" style="fill:#bf9300;fill-opacity:1;fill-rule:nonzero;stroke:none" d="M 0,0 C 0,0 -0.031,0.734 -0.703,0.641 -1.375,0.547 -1.422,0.219 -2.141,0.141 -2.859,0.062 -3.172,0.078 -3.172,0.078 l 0.016,-0.219 c 0,0 0.559,0.054 1.093,0.11 0.594,0.062 0.827,0.372 1.391,0.453 0.438,0.062 0.422,-0.375 0.422,-0.375 L 0,0 Z"/></g><g transform="translate(16.7188,20.3906)" id="g82"><path id="path84" style="fill:#bf9300;fill-opacity:1;fill-rule:nonzero;stroke:none" d="m 0,0 c 0,0 0.734,0.875 0.578,1.641 0,0 -0.312,0.312 -0.391,0.203 -0.078,-0.11 -0.171,0.25 0,0.39 0.172,0.141 0.547,-0.046 0.547,-0.046 0,0 0.094,0.218 0.578,-0.016 0.485,-0.235 0.344,-0.438 0.344,-0.906 0,-0.469 0.188,-1.172 0.36,-1.313 0,0 -0.235,0 -0.375,0.094 L 1.609,-0.109 c 0,0 -0.218,0.078 -0.328,0.156 L 1,-0.094 0.844,0.125 c 0,0 -0.297,-0.219 -0.453,-0.266 L 0.453,0.078 C 0.453,0.078 0.156,0 0,0"/></g><g transform="translate(16.9531,22.4219)" id="g86"><path id="path88" style="fill:#eeeeee;fill-opacity:1;fill-rule:nonzero;stroke:none" d="m 0,0 c 0,0 0.109,0.109 0.422,-0.109 0.203,-0.142 0.383,-0.25 0.383,-0.25 0,0 0.128,0.135 0.316,0.104 0.187,-0.032 0.082,-0.292 0.113,-0.839 0.032,-0.547 0.25,-0.781 0.25,-0.781 L 1.219,-1.719 1.234,-1.891 0.937,-1.75 0.797,-1.953 0.656,-1.734 0.428,-1.874 0.359,-1.687 0.094,-1.828 c 0,0 0.39,0.484 0.422,1.016 0.009,0.158 -0.032,0.515 -0.032,0.515 0,0 -0.25,0.313 -0.484,0.297"/></g><g transform="translate(17.0469,15.4687)" id="g90"><path id="path92" style="fill:#bf9300;fill-opacity:1;fill-rule:nonzero;stroke:none" d="M 0,0 0.187,-0.281 0.422,-0.094 0.609,0.766 0.5,-0.172 0.625,-0.469 0.844,-0.234 0.812,0.859 0.984,-0.219 1.219,-0.375 1.375,-0.078 0.953,1.578 0.406,1.547 0,0 Z"/></g><g transform="translate(15.5469,14.3437)" id="g94"><path id="path96" style="fill:#bf9300;fill-opacity:1;fill-rule:nonzero;stroke:none" d="m 0,0 c -0.179,-0.107 -0.109,-0.172 0,-0.219 0.109,-0.047 0.765,-0.126 2.094,-0.156 1.359,-0.031 2.203,0.125 2.312,0.188 0.11,0.062 0.125,0.171 -0.062,0.203 C 4.156,0.047 3.219,-0.109 2.078,-0.109 0.672,-0.109 0.078,0.047 0,0"/></g><g transform="translate(16.2656,19.7344)" id="g98"><path id="path100" style="fill:#bf9300;fill-opacity:1;fill-rule:nonzero;stroke:none" d="m 0,0 -0.133,0.053 0,0 L -1.187,1 -1.719,0.781 l -0.265,-5.672 0.547,0.422 0.003,0.067 1.137,1.011 0.219,0.219 0.625,1.453 L 0.25,-1.156 0,0 Z"/></g><g transform="translate(21.125,14.8437)" id="g102"><path id="path104" style="fill:#bf9300;fill-opacity:1;fill-rule:nonzero;stroke:none" d="M 0,0 -0.266,5.672 -0.797,5.891 -1.75,4.984 -1.984,4.891 -2.234,3.734 -2.406,3.266 -1.906,1.719 -1.687,1.5 -0.55,0.489 -0.547,0.422 0,0 Z"/></g><g transform="translate(17.0757,15.5781)" id="g106"><path id="path108" style="fill:#bf9300;fill-opacity:1;fill-rule:nonzero;stroke:none" d="m 0,0 -0.222,-0.734 0.506,-0.203 0.974,0.067 0.143,0.302 -0.477,1.653 c 0,0 -0.625,0.058 -0.639,0 C 0.27,1.027 0,0 0,0"/></g></g></g></g></svg>
