<svg xmlns="http://www.w3.org/2000/svg" version="1.0" viewBox="0 0 1000 1000">
  <defs/>
  <path fill="#ce1126" d="M8,195.25 C178.83,110.03 349.03,140.83 521.26,167.28 C676.47,191.12 833.42,211.85 992,132.75 L992,804.75 C821.17,889.97 650.97,859.17 478.74,832.72 C323.53,808.88 166.58,788.15 8,867.25 L8,195.25"/>
  <path fill="#007a5e" d="M90.66,256.57 C362.11,175.81 632.48,341.95 909.34,259.59 L909.34,743.43 C637.89,824.19 367.52,658.05 90.66,740.41 L90.66,256.57"/>
  <path fill="#fcd116" d="M90.66,256.57 C362.11,175.81 632.48,341.95 909.34,259.59 C638.26,500.49 367.89,494.06 90.66,740.41 C362.11,659.65 632.48,825.79 909.34,743.43 C638.49,663.97 368.2,338 90.66,256.57"/>
  <path fill="#ce1126" d="M570.85,510.65 C570.58,555.47 539.35,586.43 500,580.64 C460.69,574.25 429.42,534.05 429.15,489.35 C429.42,444.53 460.65,413.57 500,419.36 C539.31,425.75 570.58,465.95 570.85,510.65"/>
  <path fill="#fcd116" d="M500,426.08 L479.93,493.28 L510.81,509.48 L500,426.08"/>
  <path fill="#fcd116" d="M500,426.08 L520.07,499.48 L489.19,506.13 L500,426.08"/>
  <path fill="#fcd116" d="M561.77,486.51 L496.82,476.66 L496.82,513.62 L561.77,486.51"/>
  <path fill="#fcd116" d="M561.77,486.51 L509.22,522.03 L490.14,489.18 L561.77,486.51"/>
  <path fill="#fcd116" d="M538.17,565.66 L518.1,492.3 L487.22,498.94 L538.17,565.66"/>
  <path fill="#fcd116" d="M538.17,565.66 L485.63,514.13 L504.72,487.18 L538.17,565.66"/>
  <path fill="#fcd116" d="M461.83,553.94 L514.37,518.58 L495.28,485.72 L461.83,553.94"/>
  <path fill="#fcd116" d="M461.83,553.94 L481.9,486.7 L512.78,502.9 L461.83,553.94"/>
  <path fill="#fcd116" d="M438.23,467.81 L490.78,519.18 L509.86,492.23 L438.23,467.81"/>
  <path fill="#fcd116" d="M438.23,467.81 L503.18,477.65 L503.18,514.61 L438.23,467.81"/>
  <path fill="#fcd116" d="M303.2,143.77 L291.34,184.79 L309.59,192.4 L303.2,143.77"/>
  <path fill="#fcd116" d="M303.2,143.77 L315.06,185.98 L296.81,191.76 L303.2,143.77"/>
  <path fill="#fcd116" d="M339.7,176.44 C327.03,175.36 314.37,174.49 301.32,173.86 L301.32,195.7 L339.7,176.44"/>
  <path fill="#fcd116" d="M339.7,176.44 L308.65,199.91 L297.37,181.68 C311.34,179.66 325.31,177.94 339.7,176.44"/>
  <path fill="#fcd116" d="M325.76,224.17 L313.9,181.84 L295.65,187.64 L325.76,224.17"/>
  <path fill="#fcd116" d="M325.76,224.17 L294.71,196.72 L305.99,179.58 L325.76,224.17"/>
  <path fill="#fcd116" d="M280.64,221.94 L311.69,197.57 L300.41,179.31 L280.64,221.94"/>
  <path fill="#fcd116" d="M280.64,221.94 L292.5,180.77 L310.75,188.4 L280.64,221.94"/>
  <path fill="#fcd116" d="M266.7,172.88 L297.75,199.37 L309.03,182.26 C295.06,178.84 281.09,175.71 266.7,172.88"/>
  <path fill="#fcd116" d="M266.7,172.88 C279.37,172.98 292.03,173.37 305.08,174.04 L305.08,195.88 L266.7,172.88"/>
  <path fill="#fcd116" d="M500,167.36 L488.14,207.07 L506.39,216.64 L500,167.36"/>
  <path fill="#fcd116" d="M500,167.36 L511.86,210.74 L493.61,214.66 L500,167.36"/>
  <path fill="#fcd116" d="M536.5,203.15 L498.12,197.25 L498.12,219.09 L536.5,203.15"/>
  <path fill="#fcd116" d="M536.5,203.15 L505.45,224.06 L494.17,204.65 L536.5,203.15"/>
  <path fill="#fcd116" d="M522.56,249.86 L510.7,206.49 L492.45,210.42 L522.56,249.86"/>
  <path fill="#fcd116" d="M522.56,249.86 L491.51,219.39 L502.79,203.47 L522.56,249.86"/>
  <path fill="#fcd116" d="M477.44,242.9 L508.49,222.02 L497.21,202.6 L477.44,242.9"/>
  <path fill="#fcd116" d="M477.44,242.9 L489.3,203.18 L507.55,212.75 L477.44,242.9"/>
  <path fill="#fcd116" d="M463.5,191.93 L494.55,222.37 L505.83,206.45 L463.5,191.93"/>
  <path fill="#fcd116" d="M463.5,191.93 L501.88,197.83 L501.88,219.67 L463.5,191.93"/>
  <path fill="#fcd116" d="M696.8,190.95 L684.94,231.83 L703.19,239.54 L696.8,190.95"/>
  <path fill="#fcd116" d="M696.8,190.95 L708.66,233.01 L690.41,238.9 L696.8,190.95"/>
  <path fill="#fcd116" d="M733.3,222.21 C720.63,222.1 707.97,221.71 694.92,221.04 L694.92,242.88 L733.3,222.21"/>
  <path fill="#fcd116" d="M733.3,222.21 L702.25,247.07 L690.97,228.83 C704.94,226.97 718.91,224.81 733.3,222.21"/>
  <path fill="#fcd116" d="M719.36,270.82 L707.5,228.9 L689.25,234.77 L719.36,270.82"/>
  <path fill="#fcd116" d="M719.36,270.82 L688.31,243.83 L699.59,226.76 L719.36,270.82"/>
  <path fill="#fcd116" d="M674.24,268.58 L705.29,244.68 L694.01,226.48 L674.24,268.58"/>
  <path fill="#fcd116" d="M674.24,268.58 L686.1,227.83 L704.35,235.53 L674.24,268.58"/>
  <path fill="#fcd116" d="M660.3,218.64 L691.35,246.52 L702.63,229.41 C688.66,226.15 674.69,222.59 660.3,218.64"/>
  <path fill="#fcd116" d="M660.3,218.64 C672.97,219.72 685.63,220.59 698.68,221.23 L698.68,243.07 L660.3,218.64"/>
  <path fill="#fcd116" d="M303.2,721.69 L291.34,762.71 L309.59,770.32 L303.2,721.69"/>
  <path fill="#fcd116" d="M303.2,721.69 L315.06,763.9 L296.81,769.68 L303.2,721.69"/>
  <path fill="#fcd116" d="M339.7,754.36 C327.03,753.28 314.37,752.41 301.32,751.78 L301.32,773.62 L339.7,754.36"/>
  <path fill="#fcd116" d="M339.7,754.36 L308.65,777.83 L297.37,759.6 C311.34,757.58 325.31,755.86 339.7,754.36"/>
  <path fill="#fcd116" d="M325.76,802.09 L313.9,759.76 L295.65,765.56 L325.76,802.09"/>
  <path fill="#fcd116" d="M325.76,802.09 L294.71,774.64 L305.99,757.5 L325.76,802.09"/>
  <path fill="#fcd116" d="M280.64,799.86 L311.69,775.49 L300.41,757.23 L280.64,799.86"/>
  <path fill="#fcd116" d="M280.64,799.86 L292.5,758.69 L310.75,766.32 L280.64,799.86"/>
  <path fill="#fcd116" d="M266.7,750.8 L297.75,777.29 L309.03,760.18 C295.06,756.76 281.09,753.63 266.7,750.8"/>
  <path fill="#fcd116" d="M266.7,750.8 C279.37,750.9 292.03,751.29 305.08,751.96 L305.08,773.8 L266.7,750.8"/>
  <path fill="#fcd116" d="M500,745.28 L488.14,784.99 L506.39,794.56 L500,745.28"/>
  <path fill="#fcd116" d="M500,745.28 L511.86,788.66 L493.61,792.58 L500,745.28"/>
  <path fill="#fcd116" d="M536.5,781.07 L498.12,775.17 L498.12,797.01 L536.5,781.07"/>
  <path fill="#fcd116" d="M536.5,781.07 L505.45,801.98 L494.17,782.57 L536.5,781.07"/>
  <path fill="#fcd116" d="M522.56,827.78 L510.7,784.41 L492.45,788.34 L522.56,827.78"/>
  <path fill="#fcd116" d="M522.56,827.78 L491.51,797.31 L502.79,781.39 L522.56,827.78"/>
  <path fill="#fcd116" d="M477.44,820.82 L508.49,799.94 L497.21,780.52 L477.44,820.82"/>
  <path fill="#fcd116" d="M477.44,820.82 L489.3,781.1 L507.55,790.67 L477.44,820.82"/>
  <path fill="#fcd116" d="M463.5,769.85 L494.55,800.29 L505.83,784.37 L463.5,769.85"/>
  <path fill="#fcd116" d="M463.5,769.85 L501.88,775.75 L501.88,797.59 L463.5,769.85"/>
  <path fill="#fcd116" d="M696.8,768.87 L684.94,809.75 L703.19,817.46 L696.8,768.87"/>
  <path fill="#fcd116" d="M696.8,768.87 L708.66,810.93 L690.41,816.82 L696.8,768.87"/>
  <path fill="#fcd116" d="M733.3,800.13 C720.63,800.02 707.97,799.63 694.92,798.96 L694.92,820.8 L733.3,800.13"/>
  <path fill="#fcd116" d="M733.3,800.13 L702.25,824.99 L690.97,806.75 C704.94,804.89 718.91,802.73 733.3,800.13"/>
  <path fill="#fcd116" d="M719.36,848.74 L707.5,806.82 L689.25,812.69 L719.36,848.74"/>
  <path fill="#fcd116" d="M719.36,848.74 L688.31,821.75 L699.59,804.68 L719.36,848.74"/>
  <path fill="#fcd116" d="M674.24,846.5 L705.29,822.6 L694.01,804.4 L674.24,846.5"/>
  <path fill="#fcd116" d="M674.24,846.5 L686.1,805.75 L704.35,813.45 L674.24,846.5"/>
  <path fill="#fcd116" d="M660.3,796.56 L691.35,824.44 L702.63,807.33 C688.66,804.07 674.69,800.51 660.3,796.56"/>
  <path fill="#fcd116" d="M660.3,796.56 C672.97,797.64 685.63,798.51 698.68,799.15 L698.68,820.99 L660.3,796.56"/>
  <path fill="#ce1126" d="M141.33,487.01 C150.33,504.1 167.37,521.45 182.49,527.07 C182.64,507.88 176.76,484.27 168.65,465.83 L141.33,487.01"/>
  <path fill="#fcd116" d="M126.3,425.67 C139.94,456.34 91.85,531.22 169.9,538.05 C160.44,524.44 154.42,501.58 156.61,481.48 C172.87,486.08 189.5,504.23 196.59,519.41 C216.5,433.17 144.86,447.25 126.3,425.67"/>
  <path fill="#1A1A1A" opacity="0.2" d="M8,195.25 C178.83,110.03 349.03,140.83 521.26,167.28 C676.47,191.12 833.42,211.85 992,132.75 L992,804.75 C821.17,889.97 650.97,859.17 478.74,832.72 C323.53,808.88 166.58,788.15 8,867.25 L8,195.25 M39.25,214.64 L39.25,819.14 C345.81,690.88 650.43,915.18 960.75,785.36 L960.75,180.86 C654.19,309.12 349.57,84.82 39.25,214.64"/>
</svg>
