<svg xmlns="http://www.w3.org/2000/svg" viewBox="0 0 64 64" enable-background="new 0 0 64 64" xmlns:xlink="http://www.w3.org/1999/xlink"><path d="m56 14h-48c-3.8 5-6 11.2-6 18 0 16.6 13.4 30 30 30s30-13.4 30-30c0-6.8-2.2-13-6-18" fill="#ed4c5c"/><path fill="#42ade2" d="m20.5 39h23l7-14h-37z" id="0"/><use xlink:href="#0"/><path d="M50.5,25L56,14C50.5,6.7,41.8,2,32,2S13.5,6.7,8,14l5.5,11H50.5z" fill="#3e4347"/><path fill="#fff" d="M20.5 39 32 62 43.5 39z"/><path fill="#ffce31" d="m36.2 22.2l5-6.4-6.4 5.1 2.2-7.9-4 7.1-.9-8.1-1.1 8.1-3.9-7.1 2.1 7.8-6.4-5 5.1 6.4-7.9-2.2 7.1 4-8.1.9.4.1h25.2l-7.7-1 7.1-3.9z"/></svg>