<?xml version="1.0" encoding="UTF-8" standalone="no"?><svg xmlns:dc="http://purl.org/dc/elements/1.1/" xmlns:cc="http://creativecommons.org/ns#" xmlns:rdf="http://www.w3.org/1999/02/22-rdf-syntax-ns#" xmlns:svg="http://www.w3.org/2000/svg" xmlns="http://www.w3.org/2000/svg" viewBox="0 0 45 45" style="enable-background:new 0 0 45 45;" xml:space="preserve" version="1.1" id="svg2"><metadata id="metadata8"><rdf:RDF><cc:Work rdf:about=""><dc:format>image/svg+xml</dc:format><dc:type rdf:resource="http://purl.org/dc/dcmitype/StillImage"/></cc:Work></rdf:RDF></metadata><defs id="defs6"><clipPath id="clipPath16" clipPathUnits="userSpaceOnUse"><path id="path18" d="M 0,36 36,36 36,0 0,0 0,36 Z"/></clipPath></defs><g transform="matrix(1.25,0,0,-1.25,0,45)" id="g10"><g id="g12"><g clip-path="url(#clipPath16)" id="g14"><g transform="translate(36,9)" id="g20"><path id="path22" style="fill:#008000;fill-opacity:1;fill-rule:nonzero;stroke:none" d="m 0,0 c 0,-2.209 -1.791,-4 -4,-4 l -28,0 c -2.209,0 -4,1.791 -4,4 l 0,18 c 0,2.209 1.791,4 4,4 l 28,0 c 2.209,0 4,-1.791 4,-4 L 0,0 Z"/></g><g transform="translate(30.5293,16.3389)" id="g24"><path id="path26" style="fill:#ffe000;fill-opacity:1;fill-rule:nonzero;stroke:none" d="m 0,0 0.17,-0.583 0.587,0 L 0.293,-0.94 0.464,-1.508 0,-1.15 l -0.464,-0.341 0.17,0.551 -0.464,0.357 0.572,0 L 0,0 Z"/></g><g transform="translate(28.998,22.8428)" id="g28"><path id="path30" style="fill:#ffe000;fill-opacity:1;fill-rule:nonzero;stroke:none" d="m 0,0 -0.679,-0.627 0.068,0.921 -0.914,0.14 0.762,0.522 -0.46,0.801 0.884,-0.27 L 0,2.346 0.339,1.487 1.223,1.757 0.763,0.956 1.525,0.434 0.611,0.294 0.679,-0.627 0,0 Z"/></g><g transform="translate(25.375,17.5303)" id="g32"><path id="path34" style="fill:#ffe000;fill-opacity:1;fill-rule:nonzero;stroke:none" d="m 0,0 -0.679,-0.627 0.068,0.921 -0.914,0.14 0.762,0.522 -0.46,0.801 0.884,-0.27 L 0,2.346 0.339,1.487 1.223,1.757 0.763,0.956 1.524,0.434 0.611,0.294 0.679,-0.627 0,0 Z"/></g><g transform="translate(32.4854,17.9692)" id="g36"><path id="path38" style="fill:#ffe000;fill-opacity:1;fill-rule:nonzero;stroke:none" d="m 0,0 -0.679,-0.627 0.068,0.921 -0.914,0.14 0.762,0.522 -0.46,0.801 0.884,-0.27 L 0,2.346 0.339,1.487 1.223,1.757 0.763,0.956 1.524,0.434 0.611,0.294 0.679,-0.627 0,0 Z"/></g><g transform="translate(28.9385,10.2285)" id="g40"><path id="path42" style="fill:#ffe000;fill-opacity:1;fill-rule:nonzero;stroke:none" d="m 0,0 -0.679,-0.627 0.068,0.922 -0.914,0.139 0.762,0.523 -0.46,0.801 L -0.339,1.487 0,2.347 0.339,1.487 1.223,1.758 0.763,0.957 1.524,0.435 0.611,0.295 0.679,-0.627 0,0 Z"/></g><g transform="translate(20.3652,14.0596)" id="g44"><path id="path46" style="fill:#ffe000;fill-opacity:1;fill-rule:nonzero;stroke:none" d="m 0,0 c -2.175,0 -3.94,1.766 -3.94,3.941 0,2.177 1.765,3.94 3.94,3.94 0.828,0 1.594,-0.258 2.228,-0.695 -0.906,1.04 -2.236,1.7 -3.724,1.7 -2.731,0 -4.944,-2.214 -4.944,-4.946 0,-2.73 2.213,-4.945 4.944,-4.945 1.488,0 2.819,0.66 3.726,1.7 C 1.596,0.259 0.828,0 0,0"/></g><g transform="translate(11.9727,24)" id="g48"><path id="path50" style="fill:#ffe000;fill-opacity:1;fill-rule:nonzero;stroke:none" d="m 0,0 c 0,-2.809 -2.276,-5.086 -5.085,-5.086 -2.81,0 -5.086,2.277 -5.086,5.086 0,2.809 2.276,5.086 5.086,5.086 C -2.276,5.086 0,2.809 0,0"/></g><g transform="translate(7.144,20)" id="g52"><path id="path54" style="fill:#802000;fill-opacity:1;fill-rule:nonzero;stroke:none" d="m 0,0 -1.134,0 c 0,0 0.372,0.352 0.567,0.67 0.194,0.319 0.972,2.012 0.885,3.558 C 0.23,5.772 0.496,5.515 0.584,4.592 0.673,3.671 0.584,1.78 0.425,1.23 0.266,0.682 0.089,0.332 0.319,0.26 0.549,0.189 0.62,0 0.62,0 L 0,0 Z"/></g><g transform="translate(5.1768,27.0806)" id="g56"><path id="path58" style="fill:#008000;fill-opacity:1;fill-rule:nonzero;stroke:none" d="M 0,0 0.691,0 2.109,-1.348 1.63,-0.479 2.066,-0.208 2.197,0.868 3.384,0.974 3.225,0.371 3.845,0.052 3.154,-0.957 4.66,-0.815 4.377,-1.702 l 0.815,0 0.337,-1.116 -1.985,0.16 0.992,-0.745 0,-1.134 L 2.445,-2.57 2.269,-3.403 2.145,-4.235 1.686,-4.373 1.577,-3.739 1.099,-4.537 l -0.638,0 0.62,2.249 -3.189,-0.601 0.85,1.028 1.683,0.337 -1.488,0.779 L 1.134,-1.134 -1.134,0 0,0 Z"/></g></g></g></g></svg>
