<?xml version="1.0" encoding="UTF-8" standalone="no"?><svg xmlns:dc="http://purl.org/dc/elements/1.1/" xmlns:cc="http://creativecommons.org/ns#" xmlns:rdf="http://www.w3.org/1999/02/22-rdf-syntax-ns#" xmlns:svg="http://www.w3.org/2000/svg" xmlns="http://www.w3.org/2000/svg" viewBox="0 0 45 45" style="enable-background:new 0 0 45 45;" xml:space="preserve" version="1.1" id="svg2"><metadata id="metadata8"><rdf:RDF><cc:Work rdf:about=""><dc:format>image/svg+xml</dc:format><dc:type rdf:resource="http://purl.org/dc/dcmitype/StillImage"/></cc:Work></rdf:RDF></metadata><defs id="defs6"><clipPath id="clipPath16" clipPathUnits="userSpaceOnUse"><path id="path18" d="M 0,36 36,36 36,0 0,0 0,36 Z"/></clipPath></defs><g transform="matrix(1.25,0,0,-1.25,0,45)" id="g10"><g id="g12"><g clip-path="url(#clipPath16)" id="g14"><g transform="translate(6.2761,24.7239)" id="g20"><path id="path22" style="fill:#4189dd;fill-opacity:1;fill-rule:nonzero;stroke:none" d="M 0,0 -0.943,-3.057 -1.886,0 -4.943,0.943 -1.886,1.886 -0.943,4.943 0,1.886 3.057,0.943 0,0 Z m 25.724,6.276 -28,0 c -2.209,0 -4,-1.791 -4,-4 l 0,-13.055 36,0 0,13.055 c 0,2.209 -1.791,4 -4,4"/></g><g transform="translate(4,5)" id="g24"><path id="path26" style="fill:#4189dd;fill-opacity:1;fill-rule:nonzero;stroke:none" d="m 0,0 28,0 c 1.872,0 3.431,1.291 3.867,3.028 l -35.734,0 C -3.431,1.291 -1.872,0 0,0"/></g><path id="path28" style="fill:#4189dd;fill-opacity:1;fill-rule:nonzero;stroke:none" d="m 0,10 36,0 0,1.972 -36,0 L 0,10 Z"/><g transform="translate(6.0596,24.9404)" id="g30"><path id="path32" style="fill:#ffffff;fill-opacity:1;fill-rule:nonzero;stroke:none" d="M 0,0 -0.726,-2.355 -1.453,0 -3.808,0.726 -1.453,1.453 -0.726,3.808 0,1.453 2.355,0.726 0,0 Z m -0.726,4.726 -0.943,-3.057 -3.057,-0.943 3.057,-0.942 0.943,-3.058 0.942,3.058 3.058,0.942 -3.058,0.943 -0.942,3.057 z"/></g><g transform="translate(5.3333,28.7482)" id="g34"><path id="path36" style="fill:#d21034;fill-opacity:1;fill-rule:nonzero;stroke:none" d="M 0,0 -0.726,-2.355 -3.081,-3.081 -0.726,-3.808 0,-6.163 0.726,-3.808 3.082,-3.081 0.726,-2.355 0,0 Z"/></g><path id="path38" style="fill:#f9d616;fill-opacity:1;fill-rule:nonzero;stroke:none" d="m 0,11.972 36,0 0,1.972 -36,0 0,-1.972 z"/><g transform="translate(0,9)" id="g40"><path id="path42" style="fill:#f9d616;fill-opacity:1;fill-rule:nonzero;stroke:none" d="m 0,0 c 0,-0.337 0.054,-0.659 0.133,-0.972 l 35.734,0 C 35.946,-0.659 36,-0.337 36,0 L 36,1 0,1 0,0 Z"/></g></g></g></g></svg>
