<svg xmlns="http://www.w3.org/2000/svg" viewBox="0 0 64 64" enable-background="new 0 0 64 64"><path d="m62 32h-60c0 5.5 1.5 10.6 4 15h52c2.5-4.4 4-9.5 4-15" fill="#2a5f9e"/><path d="M32,2C15.4,2,2,15.4,2,32h60C62,15.4,48.6,2,32,2z" fill="#ffe62e"/><path d="m32 62c11.1 0 20.8-6 26-15h-52c5.2 9 14.9 15 26 15" fill="#ed4c5c"/><g transform="matrix(1.14637 0 0 1.17117 33.1783 82.1384)"><path d="m-6.8-44.9l.7.7.3-.8.1-.5c-.1-1.4 0-2.8 0-2.8l.2.2c-.2-.2-.5-.5-.8-.8l-.5-.5c0 0 0 3 0 4.5" fill="#034ea2"/><path d="m-5.7-45.5l.7-2.1-.7-.7c0 0 0 1.4 0 2.8" fill="#ed1c24"/><path d="m-6.8-49.4l.5.5c-.9-.9-1.9-1.9-2.4-2.4-.1-.1-.1 2.1-.1 4.5l2 2c0-1.6 0-4.6 0-4.6" fill="#fd0"/></g><g transform="matrix(-1.14637 0 0 1.17117 1405.8541 82.1384)"/><g transform="matrix(1.14637 0 0 1.17117 33.1783 82.1384)"><path d="m-6.1-36.4c-1.7-1-1.9-4.1-1.9-4.6 0-.4 0-5.4 0-5.4l.5.5c-.9-.9-1.9-1.9-2.4-2.4-.2-.2 0 6.5 0 9.4 0 1.4.9 6.3 5.9 3.8 0 0 2.5-.9 3.3-2-.2 0-.3 0-.5 0-.1.1-.2.1-.3.1-2.9 2-4.6.6-4.6.6" fill="#fd0"/><path d="m-8-41c0 .4.2 3.5 1.8 4.5 0 0 1.7 1.4 4.7-.5-.9.4-1.6.4-2.1.3-1.4-.4-2.9-2-3.1-3.7-.2-1.7-.2-4.9-.2-4.9l.2.2c-.2-.2-.5-.5-.8-.8l-.5-.4c0 0 0 4.9 0 5.3" fill="#034ea2"/><path d="m-5.9-43.1c0-.1 0-.7 0-1.3-.3-.3.1.1-.7-.7l-.2-.2c0 0 0 .1 0 .1 0 .4 0 3.3.2 4.8.2 1.7 1.7 3.3 3.1 3.7.5.1 1.2.1 2.1-.3.1 0 .1-.1.2-.1-2.7-.3-4.4-2.7-4.7-6" fill="#ed1c24"/></g><g transform="matrix(1.14637 0 0 1.17117 33.1783 82.1384)"><path d="m4.1-36.3c1.6-1 1.9-4.1 1.8-4.5 0-.4 0-5.4 0-5.4l-.5.5c.9-.9 1.9-1.9 2.4-2.4.2-.2 0 6.5 0 9.4 0 1.4-.9 6.3-5.9 3.8 0 0-2.5-.9-3.3-2 .2 0 .3 0 .5 0 .1 0 .2.1.2.1 3.1 1.9 4.8.5 4.8.5" fill="#fd0"/><path d="m5.9-40.9c0 .4-.2 3.5-1.8 4.5 0 0-1.7 1.4-4.7-.5.9.4 1.6.4 2.1.3 1.4-.4 2.9-2 3.1-3.7.2-1.7.2-4.9.2-4.9l-.2.2c.2-.2.5-.5.8-.8l.5-.5c0 .1 0 5 0 5.4" fill="#034ea2"/><path d="m3.9-43c0-.1 0-.7 0-1.3.3-.3-.1.1.7-.7l.2-.2c0 0 0 .1 0 .1 0 .4 0 3.3-.2 4.8-.2 1.7-1.6 3.3-3.1 3.8-.5.1-1.2.1-2.1-.3-.1 0-.1-.1-.2-.1 2.6-.4 4.4-2.8 4.7-6.1" fill="#ed1c24"/></g><path d="m26.3 31c0 4.1 2.6 7.4 5.7 7.4s5.7-3.3 5.7-7.4-2.6-7.4-5.7-7.4-5.7 3.4-5.7 7.4" fill="#8cddea"/><path d="M26.3,31.3c0,4.1,2.6,7.4,5.7,7.4c3.2,0,5.7-3.3,5.7-7.4H26.3" fill="#6dd337"/><path d="m26.5 31.5l10.8.2c0 0 .1-.8.1-.8 0-.1.2-.2-.1-.2-1.2-.1-.7-.2-1.4-.2-.2 0-4.8-1.1-5.2-1.1-.4-.1-4 .5-4 .5l-.2 1.6" fill="#557176"/><path d="m26.4 29.6l1.7.7c0 0 2.2-.4 2.4-.3.2.1 2.1.4 2.2.4.1 0 2.9 0 2.9 0h-.1c-.2-.1-2.4-.7-2.6-.8-.1-.1-1.8-.7-1.9-.9-.2-.2-1.4-.9-1.6-.9-.2-.1-3 1.8-3 1.8" fill="#fff"/><path d="m34.4 23.8c0 0-1.1-.7-2.5-.7-1.1 0-2.2.6-2.2.6-1.2.7-2.2 2-2.8 3.6-.4 1.1-.7 2.4-.7 3.7 0 3.9 2.1 6.9 4.8 7.7 0 0 .4.2.9.2.5 0 1-.1 1-.1 2.7-.7 4.9-3.8 4.9-7.7 0-5.1-3.9-7.7-3.4-7.3m-1.4 14.5c0 0-.5.1-1 .1-.5 0-1-.1-1-.1-2.4-.7-4.3-3.6-4.3-7.1 0-1.2.3-2.5.7-3.5.6-1.4 1.5-2.6 2.6-3.2 0 0 1.1-.7 2-.7 1.3 0 2.3.7 2.3.7 1.8 1.1 3.1 3.7 3.1 6.6-.1 3.6-2 6.6-4.4 7.2" fill="#b1babf"/><path d="m32.2 32.9c0 0 0 0 0 0m-3.6-1.7c0 0 1.7 2.3 1.7 2.3l-2.6 1.5c0 0 .2.6.7 1.3.5.6 1.7 1.9 2.8 2 1.2.1 2 .1 2.7-.3.6-.4 1.5-.9 2.1-1.9.6-.9.6-1.1.6-1.1s-3.8-.8-3.9-.8c-.1-.1-3.7-2.9-3.8-3-.1-.1.8-1.2.8-1.2l-1.1 1.2z" fill="#034ea2"/><path fill="#ed1c24" d="m31.1 39.8h1.9v4.9h-1.9z"/><g fill="#034ea2"><path d="m29.6 40.2h1.9v4.9h-1.9z"/><path d="m32.5 40.2h1.9v4.9h-1.9z"/></g><g fill="#fd0"><path d="m29.2 40.2h1.2v6.2h-1.2z"/><path d="m33.6 40.2h1.2v6.2h-1.2z"/></g><path fill="#fff" d="m27.5 38.1h9v2.4h-9z"/><path d="m37.6 18.5c-1.8 0-3.7 2-5.6 2s-3.8-2-5.6-2c-1.7 0-8.4 2-8.4 2 9.3 0 14 5 14 5s4.7-5 14-5c0 0-6.7-2-8.4-2" fill="#594640"/><circle cx="32" cy="19.7" r="1.2" fill="#f9f9f9"/></svg>