<svg xmlns="http://www.w3.org/2000/svg" viewBox="0 0 1000 1000">
  <defs/>
  <path fill="#002b7f" d="M8,195.25 C179.17,109.87 349.69,140.95 522.26,167.44 C677.13,191.2 833.79,211.71 992,132.75 L992,804.75 C820.83,890.13 650.31,859.05 477.74,832.56 C322.87,808.8 166.21,788.29 8,867.25 L8,195.25"/>
  <path fill="#f9e814" d="M8,615.25 C179.17,529.87 349.69,560.95 522.26,587.44 C677.13,611.2 833.79,631.71 992,552.75 L992,636.75 C820.83,722.13 650.31,691.05 477.74,664.56 C322.87,640.8 166.21,620.29 8,699.25 L8,615.25"/>
  <path id="o" fill="#fff" d="M226.67,289.44 L204.14,361.89 C215.58,364.77 227.02,367.95 238.8,371.51 L226.67,289.44"/>
  <path fill="#fff" d="M226.67,289.44 L249.19,359.74 C237.75,363.73 226.32,367.98 214.53,372.66 L226.67,289.44"/>
  <path fill="#fff" d="M295.98,341 C271.93,340 247.88,339.92 223.1,341.21 L223.1,378.54 C247.16,364.97 271.2,352.66 295.98,341"/>
  <path fill="#fff" d="M295.98,341 C276.53,354.67 257.07,368.94 237.02,384.5 L215.61,355.33 C242.14,349.13 268.65,344.52 295.98,341"/>
  <path fill="#fff" d="M157.35,348.17 C176.81,359.49 196.26,371.84 216.32,385.49 L237.73,354.28 C211.2,350.61 184.68,348.39 157.35,348.17"/>
  <path fill="#fff" d="M157.35,348.17 C181.41,344.27 205.45,341.93 230.24,340.87 L230.24,378.2 C206.18,366.91 182.13,356.84 157.35,348.17"/>
  <path fill="#fff" d="M269.51,423.77 L246.98,352.83 C235.55,356.86 224.11,361.14 212.33,365.87 C231.19,384.2 250.06,403.33 269.51,423.77"/>
  <path fill="#fff" d="M269.51,423.77 C250.04,409.07 230.59,395.07 210.54,381.58 L231.97,350.19 L269.51,423.77"/>
  <path fill="#fff" d="M183.83,427.96 C203.29,411.24 222.75,395.46 242.79,380.05 L221.36,350.69 L183.83,427.96"/>
  <path fill="#fff" d="M183.83,427.96 L206.35,354.77 C217.79,357.69 229.22,360.9 241.01,364.51 C222.14,384.64 203.27,405.5 183.83,427.96"/>
  <path fill="#fff" d="M117.33,211.3 L100.44,268.93 C109.02,269.42 117.6,270.13 126.44,271.1 L117.33,211.3"/>
  <path fill="#fff" d="M117.33,211.3 L134.23,260.77 C125.65,265.41 117.07,270.26 108.22,275.5 L117.33,211.3"/>
  <path fill="#fff" d="M169.32,240.11 C151.28,242.68 133.25,246.07 114.65,250.65 L114.65,278.65 C132.7,264.96 150.74,252.27 169.32,240.11"/>
  <path fill="#fff" d="M169.32,240.11 C154.73,253.04 140.14,266.52 125.1,281.09 L109.02,262.34 C128.93,253.82 148.82,246.51 169.32,240.11"/>
  <path fill="#fff" d="M65.35,265.47 C79.94,271.15 94.53,277.53 109.57,284.84 L125.64,258.33 C105.74,259.42 85.86,261.68 65.35,265.47"/>
  <path fill="#fff" d="M65.35,265.47 C83.39,259.06 101.42,253.76 120.01,249.35 L120.01,277.35 C101.96,272.38 83.93,268.39 65.35,265.47"/>
  <path fill="#fff" d="M149.46,305.89 L132.57,255.91 C123.99,260.57 115.42,265.44 106.58,270.71 C120.73,281.7 134.88,293.31 149.46,305.89"/>
  <path fill="#fff" d="M149.46,305.89 C134.86,297.62 120.27,289.96 105.23,282.77 L121.31,256.09 L149.46,305.89"/>
  <path fill="#fff" d="M85.21,321.46 C99.81,306.07 114.4,291.38 129.43,276.92 L113.36,258.01 L85.21,321.46"/>
  <path fill="#fff" d="M85.21,321.46 L102.1,263.27 C110.68,263.78 119.25,264.52 128.08,265.51 L85.21,321.46"/>
  <path fill="#1A1A1A" opacity="0.2" d="M8,195.25 C179.17,109.87 349.69,140.95 522.26,167.44 C677.13,191.2 833.79,211.71 992,132.75 L992,804.75 C820.83,890.13 650.31,859.05 477.74,832.56 C322.87,808.8 166.21,788.29 8,867.25 L8,195.25 M39.25,214.64 L39.25,819.14 C345.75,690.85 650.43,915.18 960.75,785.36 L960.75,180.86 C654.25,309.15 349.57,84.82 39.25,214.64"/>
</svg>
