<svg xmlns="http://www.w3.org/2000/svg" viewBox="0 0 36 36"><path fill="#171796" d="M0 27c0 2.209 1.791 4 4 4h28c2.209 0 4-1.791 4-4v-4H0v4z"/><path fill="#EEE" d="M0 13h36v10H0z"/><path fill="#D52B1E" d="M32 5H4C1.791 5 0 6.791 0 9v4h14v7c0 2.209 1.791 4 4 4s4-1.791 4-4v-7h14V9c0-2.209-1.791-4-4-4z"/><path fill="#EEE" d="M15 13h2v2h-2zm2 2h2v2h-2zm2-2h2v2h-2zm0 4h2v2h-2zm-4 0h2v2h-2zm2 2h2v2h-2zm0 3.816V21h-1.816c.301.849.968 1.515 1.816 1.816zm2 0c.849-.302 1.515-.968 1.816-1.816H19v1.816z"/><path fill="#0193DD" d="M18 11.902c.287 0 .57.018.852.043l.159-1.843-1.011-.9-1.011.9.159 1.843c.282-.025.564-.043.852-.043zm4.17.931l.781-1.68-.641-1.191-1.26.499-.481 1.79c.556.148 1.089.343 1.601.582zm-6.742-.582l-.481-1.79-1.257-.5-.642 1.191.781 1.68c.511-.238 1.045-.432 1.599-.581z"/><path fill="#171796" d="M22.368 9.805l-1.292.511-.859-1.087-1.182.728L18 9.034l-1.037.923-1.181-.729-.861 1.089-1.289-.513-.725 1.345.86 1.85.113-.053c.504-.235 1.036-.428 1.579-.574l.026-.007c.552-.147 1.101-.244 1.632-.292l.041-.003c.456-.039 1.226-.039 1.682 0l.037.003c.533.047 1.085.146 1.64.293l.021.006c.541.145 1.072.339 1.579.575l.113.053.86-1.85-.722-1.345zm-8.478 2.862l-.703-1.51.56-1.038 1.095.436.433 1.61c-.475.132-.94.301-1.385.502zm3.372-.857l-.143-1.657.881-.784.881.784-.143 1.657c-.213-.017-.471-.033-.738-.033s-.524.016-.738.033zm4.847.857c-.448-.201-.913-.371-1.386-.504l.432-1.609 1.098-.435.559 1.038-.703 1.51z"/></svg>