<svg xmlns="http://www.w3.org/2000/svg" version="1.0" viewBox="0 0 1000 1000">
  <defs/>
  <path fill="#fcd116" d="M8,195.25 C178.83,110.03 349.03,140.83 521.26,167.28 C676.47,191.12 833.42,211.85 992,132.75 L992,804.75 C821.17,889.97 650.97,859.17 478.74,832.72 C323.53,808.88 166.58,788.15 8,867.25 L8,195.25"/>
  <path fill="#009e49" d="M8,531.25 C178.83,446.03 349.03,476.83 521.26,503.28 C676.47,527.12 833.42,547.85 992,468.75 L992,804.75 C821.17,889.97 650.97,859.17 478.74,832.72 C323.53,808.88 166.58,788.15 8,867.25 L8,531.25"/>
  <path fill="#ce1126" d="M8,195.25 C116.32,141.21 224.41,133.48 336,142.59 L336,814.59 C227.91,805.77 119.34,811.71 8,867.25 L8,195.25"/>
  <path id="t" fill="#000" d="M172,369.05 L146.66,479.6 C159.54,482.98 172.42,486.82 185.69,491.22 L172,369.05"/>
  <path fill="#000" d="M172,369.05 L197.34,472.66 C184.46,479.6 171.58,486.92 158.31,494.95 L172,369.05"/>
  <path fill="#000" d="M249.98,440.78 C222.92,441.19 195.87,443.03 167.98,447 L167.98,503 C195.05,480.65 222.1,460.23 249.98,440.78"/>
  <path fill="#000" d="M249.98,440.78 C228.09,462.83 206.2,485.83 183.64,510.83 L159.54,468.77 C189.39,457.29 219.23,448.21 249.98,440.78"/>
  <path fill="#000" d="M220.22,567.05 L194.88,462.48 C182,469.43 169.12,476.77 155.85,484.83 C177.08,510.77 198.33,537.95 220.22,567.05"/>
  <path fill="#000" d="M220.22,567.05 C198.32,546.57 176.43,527.15 153.88,508.57 L177.99,459.77 L220.22,567.05"/>
  <path fill="#000" d="M123.78,580.39 C145.68,553.67 167.57,528.38 190.12,503.62 L166.01,461.4 L123.78,580.39"/>
  <path fill="#000" d="M123.78,580.39 L149.12,468.74 C162,472.14 174.88,476 188.15,480.42 C166.91,512.18 145.67,545.06 123.78,580.39"/>
  <path fill="#000" d="M94.02,462.89 C115.91,478.27 137.79,495.17 160.36,514 L184.46,465.37 C154.61,462.05 124.78,460.94 94.02,462.89"/>
  <path fill="#000" d="M94.02,462.89 C121.09,455.04 148.13,449.53 176.02,445.91 L176.02,501.91 C148.95,486.94 121.9,473.84 94.02,462.89"/>
  <path fill="#1A1A1A" opacity="0.2" d="M8,195.25 C178.83,110.03 349.03,140.83 521.26,167.28 C676.47,191.12 833.42,211.85 992,132.75 L992,804.75 C821.17,889.97 650.97,859.17 478.74,832.72 C323.53,808.88 166.58,788.15 8,867.25 L8,195.25 M39.25,214.64 L39.25,819.14 C345.81,690.88 650.43,915.18 960.75,785.36 L960.75,180.86 C654.19,309.12 349.57,84.82 39.25,214.64"/>
</svg>
