<svg xmlns="http://www.w3.org/2000/svg" viewBox="0 0 64 64" enable-background="new 0 0 64 64"><path fill="#2a5f9e" d="m11.1 11.3h21.3v21.4h-21.3z"/><path fill="#fff" d="m18.6 8.2v5.8h-7.3l14.4 18h6v-7.5z"/><path d="m31.7 2v30h-30c0 16.6 13.4 30 30 30s30-13.4 30-30-13.4-30-30-30" fill="#2a5f9e"/><path d="m10.7 18.9h-6c-1.9 4-3 8.4-3 13.1h12v-18.1h-3v5" fill="#fff"/><path fill="#ed4c5c" d="m31.7 27.1l-13-16.1h-6l17 21h2z"/><path d="M18.6,5v6h-7.9v3h21V2C27,2,22.6,3.1,18.6,5z" fill="#fff"/><path d="M31.7,5H18.6C12.6,8,7.7,12.9,4.7,18.9V32h6V11h21V5z" fill="#ed4c5c"/><g fill="#89664c"><path d="m38.8 35.6c0-.1-.9-.3-1.4-.2-.4.1-1.2 2.2-1.3 2.3 0 0 .8 1 .8 1 0 0 .5-.8 1.1-.9.3 0 .5.2.8.4 0 0-.8 2.9-1.8 3.1-.2 0-.3 0-.5 0-.1-.1-.1-1.6-.1-1.6s-.2-.9-1-.8c-.8.1-.8.8-.8 1 0 .2 1.5 3.3 1.8 3.4.5.2 2.1-.5 3-1.6 1-1.1 1.2-4.1 1.2-4.2.1.1-1.8-1.9-1.8-1.9"/><path d="m55.1 40c0-.2 0-.9-.8-1-.8-.1-1 .8-1 .8s0 1.5-.1 1.6c-.2 0-.3 0-.5 0-1-.2-1.8-3.1-1.8-3.1.2-.3.5-.5.8-.4.5.1 1.1.8 1.1.9 0 0 .8-.9.8-1 0 0-.8-2.2-1.3-2.3-.3-.2-1.3 0-1.3.1 0 0-1.9 2-1.9 2 0 .1.2 3.1 1.2 4.2s2.5 1.7 3 1.6c.4-.1 1.8-3.2 1.8-3.4"/></g><path d="m36.3 37.2c-.4.6-.7 1-.9 1.4-.2.3-.1.8.3 1.4.5.7 4.2 3.5 9.1 3.5 4.9 0 8.6-2.8 9.1-3.5.4-.7.5-1.1.3-1.4s-.4-.8-.9-1.4c0 .9-3.1 4-8.6 4-5.3 0-8.4-3.2-8.4-4" fill="#dbb471"/><path d="m37.2 20.5v13c0 3.9 3.5 7 7.7 7s7.7-3.1 7.7-7v-13h-15.4" fill="#42ade2"/><g fill="#fff"><path d="m52.6 30c0 0-2.9-2-3.9-2s-2.7 2-3.9 2-2.8-2-3.8-2c-1 0-3.9 2-3.9 2v2c0 0 2.9-2 3.9-2s2.7 2 3.9 2 2.9-2 3.9-2c1 0 3.9 2 3.9 2v-2z"/><path d="m52.5 34.5c0 0-2.8-2-3.8-2-1 0-2.7 2-3.9 2s-2.9-2-3.9-2c-.9 0-3.8 2-3.8 2 .1.7.3 1.4.7 2 0 0 2.3-2 3.1-2 1 0 2.7 2 3.9 2 1.1 0 2.9-2 3.9-2 .8 0 3.1 2 3.1 2 .4-.6.6-1.3.7-2"/><path d="m50.1 38.7c0 0-1-2-1.3-2-1 0-2.7 2-3.9 2-1.1 0-2.9-2-3.9-2-.3 0-1.3 2-1.3 2 1.4 1.1 3.2 1.8 5.2 1.8s3.8-.7 5.2-1.8"/><path d="m42.7 23.4c0 1.1 0 2-2.2 2-1.2 0-2.2-2-2.2-2s1-2 2.2-2c2.2 0 2.2.9 2.2 2"/><path d="m49.3 26.4c0 .6-.5 1-1.1 1h-6.6c-.6 0-1.1-.4-1.1-1v-2c0-.6.5-1 1.1-1h6.6c.6 0 1.1.4 1.1 1v2"/><path d="m41.6 28c0 .2.5.4 1.1.4.6 0 1.1-.2 1.1-.4v-1.2c0-.2-.5-.4-1.1-.4-.6 0-1.1.2-1.1.4v1.2"/><path d="m46 28c0 .2.5.4 1.1.4.6 0 1.1-.2 1.1-.4v-1.2c0-.2-.5-.4-1.1-.4-.6 0-1.1.2-1.1.4v1.2"/></g><path d="m50.9 35.9v-.4l.2-.4c0 0-3.2.4-3.2.4 0 0 0 .5 0 .7-.1.1-.2.2-.4.3 0-1.2.1-6.1.1-6.2h-.3l-.1 6.4c-.6.4-1.5.8-2.4.8-.2 0-.3 0-.5 0 0-1.2.1-7.4.1-7.4 0 0-.3 0-.3 0s-.1 6.1-.1 7.4c-1.2-.1-1.7-.4-2-.7-.4-.3-.8-.8-.8-.8 0-1 0-5.5 0-5.5h-.2v5.5l-2-.7.1.7.8.2c0 0 .4 3.1 4.6 3 3.6-.1 5-2.3 5.3-3h1.1c0 0 0-.3 0-.3" fill="#89664c"/><g fill="#ed4c5c"><path d="m41 30.6c-.1.1-2 .4-1.7.4.3 0 1.7.3 1.7.2 0-.1 0-.6 0-.6"/><path d="m44.2 30.1c-.1 0-1.1.3-1.1.3 0 0 1.2.3 1.2.2s-.1-.4-.1-.5"/><path d="m47.4 30.4c-.1 0-1.3.3-1.1.3.2 0 1.1.3 1.1.2s-.1-.5 0-.5"/></g><g fill="#ffe62e"><path d="m46.3 32.2c0 0-.4.3-.3.8.1.5.3.9.3.9 0 0 .4-.6.9-.6.4 0 1.3.3 1.3.3s-.1-.7-.1-1.1c0-.3.7-.9.7-.9l-2.8.6"/><path d="m39.9 32.4c0 0-.3.1-.2.6.1.5.4.9.4.9 0 0 .3-.5.8-.6.4-.1 1.2.3 1.2.3s-.1-.5 0-.9c.1-.5.5-.8.5-.8s-2.6.5-2.7.5"/><path d="m43.1 31.9c0 .1-.4.5-.3 1 .1.5.3.9.4.9 0 0 .6-.5 1.1-.6.5-.1 1.2.3 1.1.3 0 0-.2-.5-.2-.8s.6-1.4.6-1.4l-2.7.6"/></g></svg>