<?xml version="1.0" encoding="UTF-8" standalone="no"?><svg xmlns:dc="http://purl.org/dc/elements/1.1/" xmlns:cc="http://creativecommons.org/ns#" xmlns:rdf="http://www.w3.org/1999/02/22-rdf-syntax-ns#" xmlns:svg="http://www.w3.org/2000/svg" xmlns="http://www.w3.org/2000/svg" viewBox="0 0 45 45" style="enable-background:new 0 0 45 45;" xml:space="preserve" version="1.1" id="svg2"><metadata id="metadata8"><rdf:RDF><cc:Work rdf:about=""><dc:format>image/svg+xml</dc:format><dc:type rdf:resource="http://purl.org/dc/dcmitype/StillImage"/></cc:Work></rdf:RDF></metadata><defs id="defs6"><clipPath id="clipPath16" clipPathUnits="userSpaceOnUse"><path id="path18" d="M 0,36 36,36 36,0 0,0 0,36 Z"/></clipPath></defs><g transform="matrix(1.25,0,0,-1.25,0,45)" id="g10"><g id="g12"><g clip-path="url(#clipPath16)" id="g14"><g transform="translate(36,9)" id="g20"><path id="path22" style="fill:#ce1b26;fill-opacity:1;fill-rule:nonzero;stroke:none" d="m 0,0 c 0,-2.209 -1.791,-4 -4,-4 l -28,0 c -2.209,0 -4,1.791 -4,4 l 0,18 c 0,2.209 1.791,4 4,4 l 28,0 c 2.209,0 4,-1.791 4,-4 L 0,0 Z"/></g><g transform="translate(0.5547,29)" id="g24"><path id="path26" style="fill:#003e87;fill-opacity:1;fill-rule:nonzero;stroke:none" d="m 0,0 c -0.343,-0.59 -0.555,-1.268 -0.555,-2 l 0,-18 c 0,-0.732 0.212,-1.409 0.555,-2 l 34.891,0 c 0.343,0.591 0.554,1.268 0.554,2 l 0,18 c 0,0.732 -0.211,1.41 -0.554,2 L 0,0 Z"/></g><g transform="translate(8,18.0005)" id="g28"><path id="path30" style="fill:#ffffff;fill-opacity:1;fill-rule:nonzero;stroke:none" d="M 0,0 C 0,5.523 4.477,10 10,10 15.523,10 20,5.523 20,0 20,-5.523 15.523,-10.001 10,-10.001 4.477,-10.001 0,-5.523 0,0"/></g><g transform="translate(9,18.0005)" id="g32"><path id="path34" style="fill:#730900;fill-opacity:1;fill-rule:nonzero;stroke:none" d="M 0,0 C 0,4.971 4.029,9 9,9 13.971,9 18,4.971 18,0 18,-4.97 13.971,-9.001 9,-9.001 4.029,-9.001 0,-4.97 0,0"/></g><g transform="translate(9.2568,18.0005)" id="g36"><path id="path38" style="fill:#ffffff;fill-opacity:1;fill-rule:nonzero;stroke:none" d="m 0,0 c 0,4.829 3.914,8.743 8.743,8.743 4.828,0 8.743,-3.914 8.743,-8.743 0,-4.829 -3.915,-8.744 -8.743,-8.744 C 3.914,-8.744 0,-4.829 0,0"/></g><g transform="translate(18,9.6562)" id="g40"><path id="path42" style="fill:#007f00;fill-opacity:1;fill-rule:nonzero;stroke:none" d="m 0,0 c -0.282,0 -0.51,-0.293 -0.51,-0.656 0,-0.364 0.228,-0.656 0.51,-0.656 0.282,0 0.51,0.292 0.51,0.656 C 0.51,-0.293 0.282,0 0,0 m 0.51,17.344 c 0,-0.363 -0.228,-0.656 -0.51,-0.656 -0.282,0 -0.51,0.293 -0.51,0.656 0,0.363 0.228,0.657 0.51,0.657 0.282,0 0.51,-0.294 0.51,-0.657"/></g><g transform="translate(20.1602,26.0605)" id="g44"><path id="path46" style="fill:#007f00;fill-opacity:1;fill-rule:nonzero;stroke:none" d="M 0,0 C 0.272,-0.073 0.568,0.15 0.662,0.501 0.756,0.852 0.612,1.194 0.34,1.268 0.067,1.34 -0.229,1.115 -0.322,0.766 -0.416,0.414 -0.273,0.072 0,0 m -4.982,-16.622 c 0.094,0.351 0.391,0.575 0.663,0.503 0.272,-0.073 0.417,-0.416 0.322,-0.767 -0.093,-0.35 -0.39,-0.575 -0.662,-0.503 -0.272,0.074 -0.416,0.416 -0.323,0.767"/></g><g transform="translate(22.1719,25.2266)" id="g48"><path id="path50" style="fill:#007f00;fill-opacity:1;fill-rule:nonzero;stroke:none" d="M 0,0 C 0.244,-0.141 0.588,-0.001 0.77,0.313 0.951,0.628 0.9,0.996 0.656,1.137 0.412,1.277 0.068,1.138 -0.113,0.823 -0.295,0.509 -0.244,0.141 0,0 m -9.113,-14.766 c 0.181,0.315 0.526,0.455 0.77,0.315 0.243,-0.142 0.294,-0.51 0.113,-0.824 -0.182,-0.315 -0.526,-0.456 -0.77,-0.315 -0.244,0.142 -0.295,0.51 -0.113,0.824"/></g><g transform="translate(23.9004,23.9004)" id="g52"><path id="path54" style="fill:#007f00;fill-opacity:1;fill-rule:nonzero;stroke:none" d="M 0,0 C 0.199,-0.199 0.567,-0.152 0.824,0.104 1.081,0.361 1.127,0.729 0.928,0.929 0.729,1.128 0.36,1.082 0.104,0.824 -0.153,0.568 -0.199,0.199 0,0 m -12.625,-11.903 c 0.257,0.257 0.626,0.303 0.825,0.104 0.199,-0.199 0.152,-0.568 -0.104,-0.825 -0.257,-0.257 -0.625,-0.304 -0.825,-0.105 -0.199,0.2 -0.152,0.569 0.104,0.826"/></g><g transform="translate(25.2266,22.1719)" id="g56"><path id="path58" style="fill:#007f00;fill-opacity:1;fill-rule:nonzero;stroke:none" d="M 0,0 C 0.141,-0.243 0.508,-0.295 0.822,-0.113 1.137,0.068 1.277,0.413 1.137,0.656 0.995,0.9 0.627,0.952 0.312,0.77 -0.002,0.589 -0.142,0.244 0,0 m -15.276,-8.23 c 0.314,0.181 0.683,0.13 0.824,-0.114 0.14,-0.243 0,-0.588 -0.314,-0.769 -0.315,-0.182 -0.683,-0.131 -0.824,0.113 -0.141,0.244 0,0.589 0.314,0.77"/></g><g transform="translate(26.0605,20.1602)" id="g60"><path id="path62" style="fill:#007f00;fill-opacity:1;fill-rule:nonzero;stroke:none" d="M 0,0 C 0.072,-0.273 0.414,-0.417 0.766,-0.323 1.116,-0.229 1.34,0.067 1.268,0.34 1.194,0.611 0.852,0.756 0.502,0.662 0.15,0.568 -0.073,0.271 0,0 m -16.886,-3.997 c 0.351,0.094 0.694,-0.05 0.766,-0.322 0.073,-0.273 -0.151,-0.569 -0.502,-0.663 -0.351,-0.094 -0.693,0.05 -0.766,0.323 -0.073,0.272 0.152,0.568 0.502,0.662"/></g><g transform="translate(26.3438,18)" id="g64"><path id="path66" style="fill:#007f00;fill-opacity:1;fill-rule:nonzero;stroke:none" d="M 0,0 C 0,-0.282 0.293,-0.51 0.656,-0.51 1.02,-0.51 1.312,-0.282 1.312,0 1.312,0.282 1.02,0.51 0.656,0.51 0.293,0.51 0,0.282 0,0 m -17.344,0.51 c 0.363,0 0.657,-0.228 0.657,-0.51 0,-0.282 -0.294,-0.51 -0.657,-0.51 -0.363,0 -0.657,0.228 -0.657,0.51 0,0.282 0.294,0.51 0.657,0.51"/></g><g transform="translate(26.0605,15.8398)" id="g68"><path id="path70" style="fill:#007f00;fill-opacity:1;fill-rule:nonzero;stroke:none" d="M 0,0 C -0.073,-0.272 0.15,-0.568 0.501,-0.662 0.852,-0.756 1.194,-0.612 1.268,-0.34 1.34,-0.067 1.115,0.229 0.766,0.322 0.414,0.416 0.072,0.273 0,0 m -16.622,4.982 c 0.351,-0.094 0.575,-0.391 0.503,-0.663 -0.073,-0.272 -0.416,-0.417 -0.767,-0.322 -0.35,0.093 -0.575,0.39 -0.503,0.662 0.074,0.272 0.416,0.416 0.767,0.323"/></g><g transform="translate(25.2266,13.8281)" id="g72"><path id="path74" style="fill:#007f00;fill-opacity:1;fill-rule:nonzero;stroke:none" d="m 0,0 c -0.141,-0.243 -0.001,-0.588 0.313,-0.77 0.315,-0.181 0.683,-0.129 0.824,0.114 0.14,0.244 10e-4,0.589 -0.314,0.77 C 0.509,0.296 0.141,0.244 0,0 m -14.766,9.114 c 0.315,-0.181 0.455,-0.526 0.315,-0.77 -0.142,-0.243 -0.51,-0.294 -0.824,-0.112 -0.315,0.181 -0.456,0.525 -0.315,0.769 0.142,0.244 0.51,0.295 0.824,0.113"/></g><g transform="translate(23.9004,12.0996)" id="g76"><path id="path78" style="fill:#007f00;fill-opacity:1;fill-rule:nonzero;stroke:none" d="M 0,0 C -0.199,-0.199 -0.152,-0.566 0.104,-0.824 0.361,-1.08 0.729,-1.127 0.929,-0.928 1.128,-0.729 1.082,-0.359 0.824,-0.104 0.568,0.154 0.199,0.199 0,0 m -11.903,12.625 c 0.257,-0.256 0.303,-0.625 0.104,-0.825 -0.199,-0.199 -0.568,-0.152 -0.825,0.104 -0.257,0.257 -0.304,0.626 -0.105,0.825 0.2,0.199 0.569,0.153 0.826,-0.104"/></g><g transform="translate(22.1719,10.7744)" id="g80"><path id="path82" style="fill:#007f00;fill-opacity:1;fill-rule:nonzero;stroke:none" d="M 0,0 C -0.243,-0.141 -0.295,-0.509 -0.113,-0.823 0.068,-1.138 0.413,-1.277 0.656,-1.137 0.9,-0.996 0.952,-0.628 0.77,-0.313 0.589,0.001 0.244,0.141 0,0 m -8.23,15.275 c 0.181,-0.314 0.13,-0.682 -0.114,-0.823 -0.243,-0.141 -0.588,0 -0.769,0.314 -0.182,0.314 -0.131,0.682 0.113,0.823 0.244,0.141 0.589,10e-4 0.77,-0.314"/></g><g transform="translate(20.1602,9.9404)" id="g84"><path id="path86" style="fill:#007f00;fill-opacity:1;fill-rule:nonzero;stroke:none" d="m 0,0 c -0.273,-0.073 -0.417,-0.415 -0.323,-0.767 0.094,-0.349 0.39,-0.574 0.663,-0.501 0.271,0.074 0.416,0.416 0.322,0.766 C 0.568,-0.151 0.271,0.073 0,0 m -3.997,16.885 c 0.094,-0.35 -0.05,-0.693 -0.322,-0.766 -0.273,-0.073 -0.569,0.152 -0.663,0.503 -0.094,0.35 0.05,0.693 0.323,0.766 0.272,0.072 0.568,-0.152 0.662,-0.503"/></g><g transform="translate(14.9604,23.8022)" id="g88"><path id="path90" style="fill:#b34b00;fill-opacity:1;fill-rule:nonzero;stroke:none" d="m 0,0 0.992,-1.693 1.087,0 0.487,-0.391 0.3,-1.036 -1.076,0.472 1.004,-0.822 -0.242,-0.824 0.827,0 0,1.463 1.35,0.827 -0.223,0.166 -1.12,-0.625 -0.13,0.914 -0.202,0.217 0.688,0.849 -0.356,0.144 -0.519,-0.77 -0.073,0.626 0.073,0.773 c 0,0 -0.346,0.275 -0.315,0.184 0.033,-0.09 0,-0.68 0,-0.68 L 1.902,0.493 1.601,0.373 2.254,-0.206 1.495,-0.772 0.574,-0.519 0.751,0.42 0.562,0.42 0.399,-0.465 0.236,0.29 0,-0.127"/></g><path id="path92" style="fill:#b34b00;fill-opacity:1;fill-rule:nonzero;stroke:none" d="m 18.665,23.897 -0.217,0 0,0.813 0.217,0 0,-0.813 z"/><path id="path94" style="fill:#b34b00;fill-opacity:1;fill-rule:nonzero;stroke:none" d="m 19.857,24.114 -0.271,0 0,0.433 0.271,0 0,-0.433 z"/><g transform="translate(16.1602,22.8408)" id="g96"><path id="path98" style="fill:#ffffff;fill-opacity:1;fill-rule:nonzero;stroke:none" d="M 0,0 C 0.033,-0.081 0.179,-0.48 0.179,-0.48 L 1.224,-0.588 1.667,-1.043 1.493,-0.521 1.224,0.083 0,0 Z"/></g><g transform="translate(14.9814,24.6919)" id="g100"><path id="path102" style="fill:#289400;fill-opacity:1;fill-rule:nonzero;stroke:none" d="m 0,0 c 0.629,0.378 1.039,-0.253 1.039,-0.253 0,0 0.26,0.795 1.037,0.849 0.776,0.054 0.769,-0.289 0.769,-0.289 0,0 0.173,0.499 1.21,0.295 C 5.093,0.398 5.061,0.054 4.887,-0.09 4.713,-0.235 3.142,-0.145 3.142,-0.145 c 0,0 0.162,-0.307 0.18,-0.433 0.018,-0.127 0.578,0.235 1.462,0 0,0 0.435,0.759 1.103,0.361 0.669,-0.397 1.106,-1.156 0.941,-1.372 -0.164,-0.217 -1.356,-0.073 -1.492,0.072 0,0 -0.242,-0.398 -0.803,-0.325 -0.561,0.072 -1.5,0.668 -1.5,0.668 l -0.188,0.289 c 0,0 -0.435,0.344 -0.964,0.362 -0.528,0.017 -0.895,0 -0.895,0 0,0 -0.356,-0.416 -0.771,-0.47 -0.416,-0.055 -0.848,-0.036 -0.848,-0.036 0,0 -0.088,0.595 0.633,1.029"/></g><g transform="translate(15.7114,23.5361)" id="g104"><path id="path106" style="fill:#289400;fill-opacity:1;fill-rule:nonzero;stroke:none" d="M 0,0 C 1.039,0.163 1.725,0 1.797,-0.506 1.869,-1.012 1.022,-0.921 0.85,-0.939 0.677,-0.958 -0.316,-1.301 -0.641,-1.283 -0.966,-1.265 -1.635,-0.939 -1.147,-0.47 -0.659,0 0,0 0,0"/></g><g transform="translate(19.6895,22.6147)" id="g108"><path id="path110" style="fill:#289400;fill-opacity:1;fill-rule:nonzero;stroke:none" d="m 0,0 c 1.022,-0.238 1.504,-0.795 1.269,-1.03 -0.235,-0.234 -0.837,-0.199 -1.385,0 -0.548,0.199 -1.308,0.055 -1.478,0.434 C -1.765,-0.217 -1.159,0.271 0,0"/></g><g transform="translate(19.3418,21.3145)" id="g112"><path id="path114" style="fill:#289400;fill-opacity:1;fill-rule:nonzero;stroke:none" d="M 0,0 C 0.776,-0.128 0.804,-0.812 0.678,-0.939 0.551,-1.065 -0.641,-0.903 -0.912,-0.578 -1.183,-0.253 -0.768,0.126 0,0"/></g><g transform="translate(16.4556,21.6577)" id="g116"><path id="path118" style="fill:#289400;fill-opacity:1;fill-rule:nonzero;stroke:none" d="M 0,0 C 0.968,0.366 1.383,-0.055 1.371,-0.434 1.36,-0.813 0.548,-0.795 0.231,-0.939 -0.085,-1.085 -0.663,-1.265 -0.861,-1.048 -1.061,-0.831 -0.764,-0.289 0,0"/></g><g transform="translate(15.792,11.6641)" id="g120"><path id="path122" style="fill:#adadad;fill-opacity:1;fill-rule:nonzero;stroke:none" d="m 0,0 c -0.27,-0.266 -0.677,-0.82 0.197,-0.99 0.875,-0.17 0.534,0.689 0.35,0.832 C 0.362,-0.014 0,0 0,0"/></g><g transform="translate(16.2266,11.416)" id="g124"><path id="path126" style="fill:#6699ff;fill-opacity:1;fill-rule:nonzero;stroke:none" d="m 0,0 c 0.018,-0.053 0.126,-0.307 0,-0.451 -0.127,-0.145 -0.343,-0.254 -0.542,-0.235 0,0 0.849,-0.144 1.029,-0.236 C 0.668,-1.01 0.83,-0.74 0.74,-0.361 0.65,0.018 0,0 0,0"/></g><g transform="translate(18.0146,11.8145)" id="g128"><path id="path130" style="fill:#eeeeee;fill-opacity:1;fill-rule:nonzero;stroke:none" d="m 0,0 0,-0.922 c 0,0 -0.741,-0.017 -1.589,0.307 -0.849,0.326 -1.012,0.488 -1.012,0.488 0,0 -0.723,-0.217 -1.066,-0.217 -0.343,0 -0.451,0.127 -0.578,0.344 -0.126,0.217 -0.343,0.648 -0.361,0.775 -0.018,0.127 0.398,0.579 0.867,0.579 0.469,0 1.102,-0.379 1.102,-0.379 0,0 0.289,0.289 0.759,0.037 0.469,-0.254 0.74,-0.326 0.704,-0.795 0,0 0.256,-0.131 0.506,-0.199 C -0.271,-0.092 0,0 0,0"/></g><g transform="translate(15.458,12.7305)" id="g132"><path id="path134" style="fill:#adadad;fill-opacity:1;fill-rule:nonzero;stroke:none" d="m 0,0 c 0.346,-0.234 1.068,-0.564 1.383,-0.699 0,0 0.112,0.304 -0.168,0.48 C 0.936,-0.041 0.531,0.119 0.334,0.197 0.136,0.275 0,0 0,0"/></g><g transform="translate(15.5942,11.6641)" id="g136"><path id="path138" style="fill:#adadad;fill-opacity:1;fill-rule:nonzero;stroke:none" d="M 0,0 C -0.487,0.437 -0.794,0.602 -1.156,0.674 -1.517,0.746 -1.94,0.613 -1.927,0.336 -1.915,0.059 -1.568,-0.23 -1.246,-0.193 -0.925,-0.158 0,0 0,0"/></g><g transform="translate(15.5942,12.627)" id="g140"><path id="path142" style="fill:#6699ff;fill-opacity:1;fill-rule:nonzero;stroke:none" d="M 0,0 C 0,0 0.018,0.342 0.253,0.199 0.488,0.053 0.416,-0.207 0.416,-0.207 L 0,0 Z"/></g><g transform="translate(15.2695,11.7773)" id="g144"><path id="path146" style="fill:#6699ff;fill-opacity:1;fill-rule:nonzero;stroke:none" d="m 0,0 c 0,0 -0.614,0.451 -0.885,0.451 -0.272,0 -0.542,-0.017 -0.525,-0.224 0.019,-0.209 0.38,-0.299 0.579,-0.334 C -0.633,-0.145 0,0 0,0"/></g><g transform="translate(20.2363,11.6641)" id="g148"><path id="path150" style="fill:#adadad;fill-opacity:1;fill-rule:nonzero;stroke:none" d="M 0,0 C 0.271,-0.266 0.678,-0.82 -0.196,-0.99 -1.072,-1.16 -0.73,-0.301 -0.547,-0.158 -0.361,-0.014 0,0 0,0"/></g><g transform="translate(19.8027,11.416)" id="g152"><path id="path154" style="fill:#6699ff;fill-opacity:1;fill-rule:nonzero;stroke:none" d="m 0,0 c -0.019,-0.053 -0.127,-0.307 0,-0.451 0.126,-0.145 0.343,-0.254 0.541,-0.235 0,0 -0.849,-0.144 -1.029,-0.236 C -0.669,-1.01 -0.831,-0.74 -0.74,-0.361 -0.65,0.018 0,0 0,0"/></g><g transform="translate(18.0146,11.8145)" id="g156"><path id="path158" style="fill:#eeeeee;fill-opacity:1;fill-rule:nonzero;stroke:none" d="m 0,0 0,-0.922 c 0,0 0.74,-0.017 1.589,0.307 0.849,0.326 1.012,0.488 1.012,0.488 0,0 0.722,-0.217 1.065,-0.217 0.343,0 0.451,0.127 0.578,0.344 0.126,0.217 0.344,0.648 0.361,0.775 0.018,0.127 -0.397,0.579 -0.867,0.579 -0.469,0 -1.101,-0.379 -1.101,-0.379 0,0 -0.289,0.289 -0.759,0.037 C 1.408,0.758 1.138,0.686 1.174,0.217 1.174,0.217 0.918,0.086 0.668,0.018 0.271,-0.092 0,0 0,0"/></g><g transform="translate(20.5713,12.7305)" id="g160"><path id="path162" style="fill:#adadad;fill-opacity:1;fill-rule:nonzero;stroke:none" d="m 0,0 c -0.348,-0.234 -1.068,-0.564 -1.383,-0.699 0,0 -0.112,0.304 0.167,0.48 0.279,0.178 0.685,0.338 0.881,0.416 C -0.137,0.275 0,0 0,0"/></g><g transform="translate(20.4346,11.6641)" id="g164"><path id="path166" style="fill:#adadad;fill-opacity:1;fill-rule:nonzero;stroke:none" d="M 0,0 C 0.487,0.437 0.794,0.602 1.156,0.674 1.517,0.746 1.939,0.613 1.927,0.336 1.914,0.059 1.568,-0.23 1.246,-0.193 0.924,-0.158 0,0 0,0"/></g><g transform="translate(20.4346,12.627)" id="g168"><path id="path170" style="fill:#6699ff;fill-opacity:1;fill-rule:nonzero;stroke:none" d="M 0,0 C 0,0 -0.018,0.342 -0.252,0.199 -0.488,0.053 -0.415,-0.207 -0.415,-0.207 L 0,0 Z"/></g><g transform="translate(20.7598,11.7773)" id="g172"><path id="path174" style="fill:#6699ff;fill-opacity:1;fill-rule:nonzero;stroke:none" d="M 0,0 C 0,0 0.614,0.451 0.885,0.451 1.156,0.451 1.427,0.434 1.409,0.227 1.391,0.018 1.029,-0.072 0.831,-0.107 0.632,-0.145 0,0 0,0"/></g><g transform="translate(15.0166,12.7344)" id="g176"><path id="path178" style="fill:#d3d3d3;fill-opacity:1;fill-rule:nonzero;stroke:none" d="M 0,0 C 0.422,-0.164 1.102,-0.902 0,-0.434 -1.103,0.037 -0.651,0.254 0,0"/></g><g transform="translate(16.4795,11.8672)" id="g180"><path id="path182" style="fill:#d3d3d3;fill-opacity:1;fill-rule:nonzero;stroke:none" d="m 0,0 c 0.479,-0.131 1.282,-0.27 1.734,-0.27 0.451,0 0.74,-0.47 0.18,-0.416 -0.56,0.055 -1.716,0.176 -2.113,0.34 C -0.596,-0.18 -0.394,0.109 0,0"/></g><g transform="translate(19.333,11.8145)" id="g184"><path id="path186" style="fill:#d3d3d3;fill-opacity:1;fill-rule:nonzero;stroke:none" d="M 0,0 C 0.505,0.27 1.463,0.865 1.788,0.939 2.113,1.012 2.511,0.975 2.475,0.812 2.438,0.648 2.239,0.561 1.933,0.523 1.625,0.486 0.632,-0.344 0,-0.434 -0.631,-0.525 0,0 0,0"/></g><g transform="translate(13.0474,14.7227)" id="g188"><path id="path190" style="fill:#289400;fill-opacity:1;fill-rule:nonzero;stroke:none" d="M 0,0 C 0.997,0.199 5.491,0.324 6.773,0.162 8.056,0 10.856,-0.777 10.494,-1.229 10.133,-1.68 8.58,-1.645 7.695,-1.5 6.81,-1.355 6.466,-2.133 4.967,-2.15 3.468,-2.168 2.709,-1.68 2.077,-1.445 1.445,-1.211 0.542,-1.338 0,-1.5 -0.542,-1.662 -2.33,-0.471 0,0"/></g><g transform="translate(18.0146,12.8965)" id="g192"><path id="path194" style="fill:#000000;fill-opacity:1;fill-rule:nonzero;stroke:none" d="m 0,0 0,6.828 -2.655,0 0,-3.414 c 0,-1.246 0.939,-2.258 1.327,-2.619 C -0.939,0.436 0,-0.09 0,-0.09"/></g><g transform="translate(18.0146,12.8965)" id="g196"><path id="path198" style="fill:#000000;fill-opacity:1;fill-rule:nonzero;stroke:none" d="m 0,0 0,6.828 2.654,0 0,-3.414 C 2.654,2.168 1.716,1.156 1.327,0.795 0.939,0.436 0,-0.09 0,-0.09"/></g><g transform="translate(18.0146,19.5078)" id="g200"><path id="path202" style="fill:#9ed7ff;fill-opacity:1;fill-rule:nonzero;stroke:none" d="m 0,0 -2.384,0 0,-3.201 c 0,-1.119 0.843,-2.137 1.192,-2.461 C -0.843,-5.986 0,-6.457 0,-6.457 c 0,0 0.843,0.471 1.191,0.795 0.349,0.324 1.193,1.342 1.193,2.461 L 2.384,0 0,0 Z"/></g><g transform="translate(16.4556,14.252)" id="g204"><path id="path206" style="fill:#006ac8;fill-opacity:1;fill-rule:nonzero;stroke:none" d="m 0,0 3.118,0 c 0.122,0.154 0.25,0.336 0.369,0.541 l -3.856,0 C -0.251,0.336 -0.122,0.154 0,0"/></g><g transform="translate(16.4556,14.252)" id="g208"><path id="path210" style="fill:#5ac800;fill-opacity:1;fill-rule:nonzero;stroke:none" d="m 0,0 c 0.141,-0.178 0.272,-0.318 0.367,-0.406 0.064,-0.061 0.145,-0.123 0.235,-0.19 l 1.914,0 c 0.09,0.067 0.171,0.129 0.235,0.19 C 2.845,-0.318 2.977,-0.178 3.118,0 L 0,0 Z"/></g><g transform="translate(18.0146,13.0508)" id="g212"><path id="path214" style="fill:#ffd801;fill-opacity:1;fill-rule:nonzero;stroke:none" d="m 0,0 c 0,0 0.561,0.314 0.957,0.605 l -1.915,0 C -0.562,0.314 0,0 0,0"/></g><g transform="translate(15.8247,15.3359)" id="g216"><path id="path218" style="fill:#ffffff;fill-opacity:1;fill-rule:nonzero;stroke:none" d="m 0,0 2.19,1.951 0,2.221 -2.384,0 0,-3.201 C -0.194,0.633 -0.117,0.303 0,0"/></g><g transform="translate(20.2031,15.3359)" id="g220"><path id="path222" style="fill:#ffd83c;fill-opacity:1;fill-rule:nonzero;stroke:none" d="m 0,0 c 0.118,0.303 0.195,0.633 0.195,0.971 l 0,3.201 -2.383,0 0,-2.221 L 0,0 Z"/></g><g transform="translate(17.7031,17.6733)" id="g224"><path id="path226" style="fill:#b34b00;fill-opacity:1;fill-rule:nonzero;stroke:none" d="m 0,0 -0.011,0.01 c -0.031,0.032 -0.083,0.032 -0.115,0 l -0.068,-0.068 -0.472,0.473 c 0.055,0.075 0.062,0.167 0.01,0.218 L -1.614,1.574 C -1.672,1.632 -1.782,1.614 -1.859,1.535 -1.936,1.457 -1.952,1.347 -1.894,1.29 l 0.958,-0.942 c 0.04,-0.039 0.104,-0.043 0.165,-0.016 l 0.483,-0.484 -0.099,-0.099 c -0.032,-0.032 -0.032,-0.084 0,-0.116 l 0.011,-0.01 c 0.031,-0.031 0.083,-0.031 0.115,0 L 0,-0.115 C 0.032,-0.083 0.032,-0.032 0,0"/></g><g transform="translate(16.1665,17.1831)" id="g228"><path id="path230" style="fill:#782121;fill-opacity:1;fill-rule:nonzero;stroke:none" d="m 0,0 c -0.037,-0.049 -0.107,-0.059 -0.156,-0.021 -0.049,0.038 -0.057,0.107 -0.02,0.156 L 0.849,1.474 C 0.886,1.523 0.956,1.532 1.004,1.495 1.053,1.457 1.062,1.388 1.025,1.339 L 0,0 Z"/></g><g transform="translate(17.436,18.4595)" id="g232"><path id="path234" style="fill:#d3d3d3;fill-opacity:1;fill-rule:nonzero;stroke:none" d="M 0,0 -0.6,0.381 -0.314,0.831 0.286,0.45 0,0 Z"/></g><g transform="translate(20.001,17.3442)" id="g236"><path id="path238" style="fill:#782121;fill-opacity:1;fill-rule:nonzero;stroke:none" d="M 0,0 C 0.041,-0.045 0.112,-0.049 0.157,-0.007 0.202,0.034 0.206,0.104 0.164,0.149 L -0.973,1.395 C -1.015,1.441 -1.085,1.444 -1.13,1.402 -1.175,1.361 -1.179,1.291 -1.137,1.246 L 0,0 Z"/></g><g transform="translate(18.5835,18.2734)" id="g240"><path id="path242" style="fill:#ffffff;fill-opacity:1;fill-rule:nonzero;stroke:none" d="M 0,0 0.515,0.489 0.148,0.875 -0.367,0.387 0,0 Z"/></g><g transform="translate(20.1133,18.7988)" id="g244"><path id="path246" style="fill:#ffffff;fill-opacity:1;fill-rule:nonzero;stroke:none" d="M 0,0 -1.346,-1.291 -1.683,-0.938 -0.338,0.353 0,0 Z"/></g><g transform="translate(16.6865,15.4023)" id="g248"><path id="path250" style="fill:#b34b00;fill-opacity:1;fill-rule:nonzero;stroke:none" d="m 0,0 c 0,0 0.73,-0.336 1.355,-0.352 0.624,-0.015 0.781,0.088 0.781,0.088 l -0.179,-0.345 -1.522,0 L 0,0 Z"/></g><g transform="translate(16.9272,15.4492)" id="g252"><path id="path254" style="fill:#ffffff;fill-opacity:1;fill-rule:nonzero;stroke:none" d="m 0,0 0.383,-0.275 1.238,0 0.179,0 L 1.607,0.662 0.383,0.604 0,0 Z"/></g><g transform="translate(14.2212,22.2583)" id="g256"><path id="path258" style="fill:#892614;fill-opacity:1;fill-rule:nonzero;stroke:none" d="M 0,0 C 0.42,0.203 1.219,0.65 1.341,0.718 1.463,0.785 1.666,0.542 1.477,0.46 1.287,0.379 0.285,-0.217 0,-0.352 -0.284,-0.488 0,0 0,0"/></g><g transform="translate(12.7578,14.3418)" id="g260"><path id="path262" style="fill:#fbd44d;fill-opacity:1;fill-rule:nonzero;stroke:none" d="M 0,0 C -0.054,-0.396 -0.289,-0.795 0.163,-0.92 0.614,-1.047 0.699,-0.627 0.576,-0.25 0.452,0.127 0,0 0,0"/></g><g transform="translate(14.3296,14.3633)" id="g264"><path id="path266" style="fill:#fbd44d;fill-opacity:1;fill-rule:nonzero;stroke:none" d="m 0,0 c -0.072,-0.166 -0.289,-0.529 0.145,-0.482 0.433,0.046 0.704,0.043 0.975,0 0.271,-0.045 0.434,0.25 0.144,0.238 C 0.976,-0.256 0.758,-0.15 0.649,0.119 0.541,0.387 0,0 0,0"/></g><g transform="translate(13.269,19.3545)" id="g268"><path id="path270" style="fill:#fbd44d;fill-opacity:1;fill-rule:nonzero;stroke:none" d="m 0,0 -0.129,0.7 c 0,0 -0.365,-0.374 -0.491,-0.554 -0.126,-0.181 -0.377,0.081 -0.523,0.199 -0.144,0.117 -0.307,0.478 -0.343,0.784 -0.036,0.307 -0.398,0.488 -0.271,0.704 0.126,0.217 0.235,0.326 0.452,0.326 0.216,0 0.27,-0.289 0.27,-0.289 0,0 0.418,-0.054 0.253,-0.253 C -1.188,1.124 -0.866,1.04 -0.866,1.04 l 0.246,0.306 c 0,0 -0.091,0.577 0,0.686 0.091,0.109 0.633,0.307 0.813,0.325 C 0.375,2.375 0.591,2.538 0.51,2.646 0.429,2.754 0.248,2.953 0.248,3.188 0.248,3.423 0.166,3.929 0.694,3.856 1.223,3.784 1.404,3.441 1.259,3.152 1.115,2.863 1.043,2.773 1.097,2.61 1.151,2.447 1.167,2.248 1.52,2.23 1.873,2.213 1.941,2.1 1.995,1.792 2.049,1.485 2.054,1.328 2.036,1.075 2.018,0.822 2.038,0.732 2.038,0.732 c 0,0 0.323,0.063 0.558,0.027 C 2.831,0.723 3.318,0.424 3.318,0.424 l -0.848,0 -0.325,0 -0.091,-0.38 c 0,0 -0.127,-0.145 -0.181,-0.126 C 1.819,-0.063 1.52,0.406 1.52,0.406 L 1.386,-0.082 0,0 Z"/></g><g transform="translate(13.1733,19.3989)" id="g272"><path id="path274" style="fill:#d3d3d3;fill-opacity:1;fill-rule:nonzero;stroke:none" d="m 0,0 c -0.198,-0.433 -0.379,-1.372 -0.343,-1.877 0.036,-0.506 0.136,-1.03 -0.005,-1.498 -0.139,-0.471 -0.338,-1.807 -0.338,-1.807 l 0.506,-0.344 0.56,0.362 0.09,2.113 0.32,1.046 0.312,-0.757 -0.126,-2.348 0.921,0.018 c 0,0 -0.073,2.168 -0.091,2.51 -0.017,0.343 -0.146,1.391 -0.19,1.716 -0.044,0.325 -0.134,0.74 -0.134,0.74 L 0,0 Z"/></g><g transform="translate(13.2095,19.4902)" id="g276"><path id="path278" style="fill:#9b5f00;fill-opacity:1;fill-rule:nonzero;stroke:none" d="M 0,0 C 0,0 0.372,-0.102 0.754,-0.091 1.153,-0.079 1.562,0.046 1.571,0 c 0.019,-0.091 0,-0.398 0,-0.398 0,0 -0.334,0.073 -0.781,0 C 0.344,-0.47 0.163,-0.452 0,-0.398 -0.162,-0.344 0,0 0,0"/></g><g transform="translate(14.0898,23.5)" id="g280"><path id="path282" style="fill:#000000;fill-opacity:1;fill-rule:nonzero;stroke:none" d="M 0,0 C 0.398,0 0.571,-0.307 0.553,-0.632 0.536,-0.957 0.437,-1.048 0.437,-1.048 c 0,0 0.065,0.352 -0.143,0.181 l 0,0.343 c 0,0 -0.452,-0.036 -0.605,0 -0.154,0.036 -0.244,0.072 -0.244,0.072 l -0.063,-0.244 c 0,0 -0.208,0.244 -0.009,0.479 C -0.429,0.018 -0.093,0 -0.093,0"/></g><g transform="translate(11.0376,20.5513)" id="g284"><path id="path286" style="fill:#892614;fill-opacity:1;fill-rule:nonzero;stroke:none" d="m 0,0 c 0.184,0.271 0.515,0.474 0.515,0.474 0,0 0.054,-0.068 0.244,0 0.19,0.068 0.176,0.122 0.285,0.162 0.108,0.041 0.094,0.163 0.094,0.163 0,0 0.637,0.258 0.908,0.38 C 2.316,1.3 2.628,1.49 2.628,1.49 L 2.75,1.395 c 0,0 0,-0.203 -0.108,-0.271 C 2.533,1.057 1.721,0.65 1.653,0.596 1.585,0.542 1.436,0.487 1.436,0.487 c 0,0 -0.067,0.136 -0.135,0.081 C 1.233,0.515 1.192,0.366 1.192,0.366 1.192,0.366 0.921,0.244 0.759,0.135 0.596,0.027 0.407,-0.353 0.23,-0.434 0.055,-0.515 -0.068,-0.103 0,0"/></g><g transform="translate(14.9351,22.7183)" id="g288"><path id="path290" style="fill:#d3d3d3;fill-opacity:1;fill-rule:nonzero;stroke:none" d="m 0,0 c 0.099,0.095 0.464,0.351 0.553,0.216 0.088,-0.135 0.223,-0.88 0.657,-0.812 0,0 -0.257,-0.23 -0.474,-0.338 C 0.519,-1.043 0.135,-1.07 0.135,-1.07 c 0,0 -0.005,0.352 0,0.555 C 0.14,-0.311 0,0 0,0"/></g><g transform="translate(19.1387,23.6802)" id="g292"><path id="path294" style="fill:#b34b00;fill-opacity:1;fill-rule:nonzero;stroke:none" d="M 0,0 C 0.149,0.068 1.619,-0.718 1.866,-0.826 2.113,-0.935 2.263,-1.368 2.507,-1.463 2.75,-1.558 2.547,-1.72 2.398,-1.639 2.249,-1.558 1.924,-1.585 1.639,-1.49 1.354,-1.395 -0.167,-0.584 -0.208,-0.462 -0.248,-0.341 0,0 0,0"/></g><g transform="translate(23.2256,14.3418)" id="g296"><path id="path298" style="fill:#892614;fill-opacity:1;fill-rule:nonzero;stroke:none" d="M 0,0 C 0.054,-0.396 0.289,-0.795 -0.163,-0.92 -0.614,-1.047 -0.698,-0.627 -0.574,-0.25 -0.452,0.127 0,0 0,0"/></g><g transform="translate(21.6543,14.3633)" id="g300"><path id="path302" style="fill:#892614;fill-opacity:1;fill-rule:nonzero;stroke:none" d="m 0,0 c 0.072,-0.166 0.288,-0.529 -0.145,-0.482 -0.433,0.046 -0.704,0.043 -0.975,0 -0.271,-0.045 -0.433,0.25 -0.144,0.238 0.288,-0.012 0.507,0.094 0.615,0.363 C -0.541,0.387 0,0 0,0"/></g><g transform="translate(22.7148,19.3545)" id="g304"><path id="path306" style="fill:#892614;fill-opacity:1;fill-rule:nonzero;stroke:none" d="m 0,0 0.129,0.7 c 0,0 0.29,-0.291 0.417,-0.472 C 0.672,0.048 0.967,0.028 1.11,0.146 1.256,0.263 1.45,0.823 1.486,1.129 1.521,1.436 1.864,1.382 1.737,1.599 1.611,1.816 1.477,1.955 1.26,1.955 1.043,1.955 1.035,1.87 1.035,1.87 1.035,1.87 0.759,1.797 0.867,1.562 0.975,1.328 0.835,1.013 0.835,1.013 L 0.62,1.197 c 0,0 -0.068,0.691 -0.159,0.799 -0.092,0.108 -0.474,0.343 -0.654,0.361 -0.181,0.018 -0.398,0.181 -0.317,0.289 0.082,0.108 0.262,0.307 0.262,0.542 0,0.235 0.083,0.741 -0.446,0.668 C -1.224,3.784 -1.404,3.441 -1.259,3.152 -1.115,2.863 -1.138,2.754 -1.191,2.592 -1.246,2.43 -1.167,2.248 -1.52,2.23 -1.873,2.213 -1.991,2.027 -2.046,1.72 -2.1,1.413 -2.054,1.328 -2.036,1.075 -2.018,0.822 -2.038,0.732 -2.038,0.732 c 0,0 -0.323,0.063 -0.558,0.027 C -2.831,0.723 -3.318,0.424 -3.318,0.424 l 0.848,0 0.325,0 0.091,-0.38 c 0,0 0.126,-0.145 0.181,-0.126 0.055,0.019 0.353,0.488 0.353,0.488 L -1.386,-0.082 0,0 Z"/></g><g transform="translate(22.8105,19.3989)" id="g308"><path id="path310" style="fill:#d3d3d3;fill-opacity:1;fill-rule:nonzero;stroke:none" d="M 0,0 C 0.198,-0.433 0.379,-1.372 0.343,-1.877 0.307,-2.383 0.207,-2.907 0.348,-3.375 0.487,-3.846 0.686,-5.182 0.686,-5.182 l -0.505,-0.344 -0.561,0.362 -0.09,2.113 -0.32,1.046 -0.312,-0.757 0.127,-2.348 -0.922,0.018 c 0,0 0.072,2.168 0.09,2.51 0.019,0.343 0.147,1.391 0.191,1.716 0.045,0.325 0.135,0.74 0.135,0.74 L 0,0 Z"/></g><g transform="translate(22.7734,19.4902)" id="g312"><path id="path314" style="fill:#9b5f00;fill-opacity:1;fill-rule:nonzero;stroke:none" d="M 0,0 C 0,0 -0.371,-0.102 -0.753,-0.091 -1.151,-0.079 -1.562,0.046 -1.571,0 c -0.018,-0.091 0,-0.398 0,-0.398 0,0 0.336,0.073 0.782,0 0.446,-0.072 0.627,-0.054 0.789,0 C 0.163,-0.344 0,0 0,0"/></g><g transform="translate(21.8936,23.5)" id="g316"><path id="path318" style="fill:#000000;fill-opacity:1;fill-rule:nonzero;stroke:none" d="m 0,0 c -0.396,0 -0.571,-0.307 -0.553,-0.632 0.018,-0.325 0.112,-0.416 0.112,-0.416 0,0 -0.079,0.352 0.138,0.181 l 0,0.343 c 0,0 0.456,-0.036 0.61,0 0.154,0.036 0.247,0.072 0.247,0.072 l 0.063,-0.244 c 0,0 0.208,0.244 0.01,0.479 C 0.428,0.018 0.094,0 0.094,0"/></g><g transform="translate(22.2051,22.041)" id="g320"><path id="path322" style="fill:#b34b00;fill-opacity:1;fill-rule:nonzero;stroke:none" d="m 0,0 1.484,-0.797 c 0,0 -0.197,0.001 -0.193,-0.17 0.005,-0.171 -1.215,0.574 -1.215,0.574 L 0,0 Z"/></g><g transform="translate(24.2861,20.8491)" id="g324"><path id="path326" style="fill:#b34b00;fill-opacity:1;fill-rule:nonzero;stroke:none" d="m 0,0 0.461,-0.149 c 0,0 0.055,0.149 0.189,0.075 0.136,-0.075 -0.067,-0.678 -0.162,-0.668 -0.094,0.011 -0.203,0.159 -0.217,0.281 -0.013,0.122 -0.419,0.285 -0.419,0.285 L 0,0 Z"/></g></g></g></g></svg>
