<svg xmlns="http://www.w3.org/2000/svg" viewBox="0 0 1000 1000">
  <defs/>
  <path d="M8,195.25 C178.83,110.03 349.03,140.83 521.26,167.28 C676.47,191.12 833.42,211.85 992,132.75 L992,804.75 C821.17,889.97 650.97,859.17 478.74,832.72 C323.53,808.88 166.58,788.15 8,867.25 L8,195.25"/>
  <path fill="#002488" d="M8,195.25 C178.83,110.03 349.03,140.83 521.26,167.28 C676.47,191.12 833.42,211.85 992,132.75 L992,357.03 C821.17,442.25 650.97,411.45 478.74,385 C323.53,361.16 166.58,340.43 8,419.53 L8,195.25"/>
  <path fill="#008000" d="M281.41,484.41 C282.06,484.2 288.48,486.42 296.79,490.06 C304.94,493.61 315.35,497.22 319.87,497.91 C328.3,499.16 355.24,514.61 355.66,518.28 C354.99,520.8 313.5,504.61 298.19,496.09 C280.32,486.18 279.87,485.96 281.41,484.41 L281.41,484.41"/>
  <path fill="#008000" d="M333.83,493.58 C337.53,502.48 349.21,509.1 365.69,512.43 C376.72,514.22 371.68,509.06 356.25,501.64 C348.99,498.47 340.64,493.32 337,490.38 C330.68,484.86 330.7,484.87 333.83,493.58 L333.83,493.58 M180.34,431.02 C189.26,443.39 199.15,451.73 218.61,464.02 C233.12,473.28 245.09,480.42 245.94,480.08 C246.86,476.23 176.11,416.3 171.23,414.75 C169.48,414.74 173.26,421.36 180.34,431.02 M363.18,503.49 C369.86,507.31 378.15,510.66 382.44,511.41 C387.46,512.07 386.14,510.8 376.76,505.93 C369.43,502.09 360.73,496.28 356.77,492.86 C349.79,486.33 349.81,486.35 350.53,491.56 C351.23,494.65 356.06,499.39 363.18,503.49 L363.18,503.49 M322.17,439.13 C326.64,457.12 343.95,489.88 350.11,492.19 C355.59,493.6 355.57,493.37 351.02,487.61 C343.38,477.55 327.31,443.68 327.03,437.3 C326.87,433.67 325.61,431.54 323.69,431.14 C321.51,431.32 321.04,433.8 322.17,439.13 M139.62,426.14 C139.82,426.81 145.04,430.03 152.36,434 C159.54,437.93 167.71,443.85 170.59,447.12 C175.7,452.99 201.74,465.87 204.65,464.1 C206.82,461.37 172.74,437.11 157.97,430.92 C140.59,423.67 140.01,424.03 139.62,426.14 M149.41,448.27 C149.72,448.87 155.59,451.09 163.68,453.71 C171.63,456.32 180.87,460.72 184.33,463.43 C190.48,468.29 218.83,476.76 221.39,474.63 C223.16,471.52 184.86,453.4 168.85,449.84 C149.99,445.71 149.45,446.22 149.41,448.27 M284.86,450.35 C296.6,472.7 308.06,487.12 313.1,486.2 C315.35,485.09 310.21,476.25 298.22,460.81 L277.57,435.21 C276.59,434.46 279.96,441.07 284.86,450.35 L284.86,450.35 M299.78,442.41 C300.03,445.96 311.58,469.89 318.61,480.54 C322.75,486.49 326.99,489.65 332.28,490.25 C339.85,490.84 339.9,490.86 328.33,476.55 C321.66,468.86 312.85,457.42 308.29,451.26 C303.5,444.89 300.14,441.38 299.78,442.41 L299.78,442.41 M271.86,451.62 C272.32,456.63 293.77,487.37 297.5,488.19 C298.92,487.85 295.44,480.9 288.75,471.34 C274.01,450.28 271.95,448.26 271.86,451.62 M250.89,537.44 C230.74,545.91 226.74,549.11 226.59,553.43 C226.83,555.28 228.53,554.89 232.06,551.95 C235.01,549.07 244.69,545.06 253.92,542.7 C263.05,540.4 273.93,536.8 278.22,534.76 L285.81,530.91 L276.7,530.68 C271.78,530.98 260.09,533.91 250.89,537.44 L250.89,537.44 M193.97,487.62 C208.52,499.57 259.18,524.38 284.41,532.92 C291.4,535.12 302.34,536.07 308.75,535.15 L320.5,533.48 L308.9,526.49 C290.18,515.45 259.4,493.92 248.44,484.12 C236.37,473.32 236.9,477.04 249.03,492.17 C253.92,498.23 267.89,508.74 280.31,515.78 C293.04,523.25 301.2,529.54 300.08,530.32 C296.29,531.16 262.18,510.27 236.06,492.36 C207.76,472.78 206.74,472.94 217.12,485.42 C222.36,491.45 231.82,499.59 238.76,503.53 C245.75,508 249.82,511.31 248.7,512.19 C245.64,513.07 228.31,503.63 204.92,490.18 C198.44,486.16 189.66,481.36 185.85,479.25 C181.61,477.08 185.42,480.7 193.97,487.62 L193.97,487.62 M196.18,483.05 L184.03,488.38 L193.14,488.96 C198.17,489.6 204.18,488.5 207.42,486.76 C210.28,485.05 215.54,483.44 219.56,482.83 C226.24,482.41 226.25,482.19 220.48,479.97 C212.9,477.03 211.04,477.02 196.18,483.05 M211.15,490.27 C205.97,494.74 206.29,494.88 217.52,492.34 C224.21,490.98 233.92,488.69 238.78,487.33 C246.63,484.9 246.11,484.56 232.41,484.74 C223.14,484.89 215,487.23 211.15,490.27 M135.7,467.71 C184.76,466.98 287.76,497.58 280.26,505.89 C278.33,506.97 250.88,500.04 246.55,497.37 C244.72,495.98 230.41,496.74 213.75,500.01 C182.97,505.61 178.04,509.93 178.52,522.37 C178.83,528.56 178.82,528.56 180.34,522.15 C183.19,510.32 187.54,507.16 204.94,505.65 C224.38,504.17 274.67,510.94 298.18,518.34 C328.52,528.44 329.58,529.02 319.44,522.64 C306.35,514.23 286.7,499.74 282.99,495.68 C270.9,482.4 160.41,460.39 137.52,465.47 C129.3,467.76 129.03,467.83 135.7,467.71 M158.74,480.11 C155.08,483.71 151.32,490.6 150.23,496.18 C148.42,505.55 148.4,505.52 153.27,498.77 C165.96,480.22 166.98,479.3 182.73,477.1 C195.47,475.27 197.32,474.68 191.23,473.35 C178.23,470.73 166.02,473.38 158.74,480.11 M313.54,493.3 C316.53,497.97 339.1,511.2 341.48,510.01 C342.08,508.89 339.86,506.66 336.01,503.94 C332.03,501.38 327.01,497.59 324.77,494.98 C319.58,490.09 311.25,488.26 313.54,493.3 L313.54,493.3 M315.36,523.01 C318.35,527.68 340.93,540.95 343.3,539.76 C343.9,538.65 341.69,536.41 337.84,533.69 C333.86,531.12 328.84,527.32 326.6,524.71 C321.41,519.81 313.08,517.96 315.36,523.01 L315.36,523.01 M331.71,509.84 C325.93,511.78 320.56,515.29 318.58,518.1 C316.63,521.48 318.15,521.48 325.57,518.29 C331.41,515.81 339.49,514.12 344.11,514.04 C352.6,514.37 352.61,514.41 347.2,510.42 C343.82,508.23 337.8,507.86 331.71,509.84 L331.71,509.84 M296.74,530.05 C279.38,545.44 275.72,556.31 281.15,573.03 L285.94,587.29 L284.6,572.96 C282.65,553.26 287.63,544.43 308.65,529.95 C318.68,523.13 326.01,517.42 326.14,516.73 C324.5,513.56 306.03,521.74 296.74,530.05 L296.74,530.05 M189.58,405.53 C198.94,422.51 237.21,462.57 258.52,478.86 C264.42,483.17 274.55,487.56 281,488.77 L292.84,491.02 L284.03,480.76 C269.75,464.37 247.92,433.99 240.91,420.88 C233.24,406.5 232.48,410.22 238.78,428.72 C241.34,436.15 250.92,450.72 260.35,461.42 C269.93,472.6 275.65,481.1 274.31,481.47 C270.31,481.02 244.95,450.51 226.63,424.52 C206.92,396.24 206.03,395.68 211.45,411.4 C214.26,419.03 220.28,430.02 225.42,436.1 C230.42,442.68 233.15,447.22 231.8,447.66 C228.65,447.49 215.55,432.87 198.69,411.8 C194.12,405.68 187.76,397.93 185.03,394.51 C181.93,390.89 184.14,395.8 189.58,405.53 M287.55,489.59 C287.82,491.9 291.99,497.3 297.57,502.12 C313.72,515.18 356.42,539.28 361.95,538.13 C365.13,537.01 360.28,533.33 345.55,526.26 C319.78,513.49 297.05,499.03 296.66,494.29 C296.93,491.9 306.47,491.7 331.58,495.18 C368.94,500.22 380.26,497.46 346.16,491.12 C310.04,484.15 287.92,484.65 287.55,489.59 L287.55,489.59 M207.37,524.45 C194.13,528.76 187.6,534 187.33,539.71 C187.46,541.89 188.44,541.45 190.06,538.8 C193.29,534.16 216.61,525.29 219.82,527.35 C220.25,528.22 219.53,532.42 217.7,537.45 C215.88,542.51 215.43,546.64 216.18,547.82 C217.29,548.76 218.47,546.61 219.52,542.95 C223.35,529.42 234.26,524.44 261.43,526.83 C275.09,528.1 290.28,530.14 295.14,530.67 C300.4,531.29 307.14,533.46 310.93,535.82 C319.32,540.52 348.74,543.49 346.77,538.83 C345.59,537.19 340.26,534.61 333.71,533.03 C327.64,531.58 314.88,527.59 305.46,524.61 C285.46,518.44 227.69,518.1 207.37,524.45 L207.37,524.45 M318.27,560.39 C295.25,554.81 284.65,558.32 275.24,572.75 L267.34,585.21 L277.5,575.48 C291.38,562.12 301.26,561.01 326.14,570.14 C337.97,574.57 347.34,577.51 347.93,577.25 C349.25,574.19 330.62,563.34 318.27,560.39 M288.63,550.23 C246.22,560.77 241.78,566.57 247.64,585.68 C250.08,593.11 250.06,592.81 250.37,583.15 C250.81,577.68 253.43,570.57 256.44,567.2 C262.18,561.57 286.33,554.45 316.58,551.29 C324.16,550.68 328.33,549.18 327.81,547.4 C325.23,543.33 315.77,543.4 288.63,550.23 M324.51,567.36 C303.16,575.67 296.41,584.69 296.57,602.19 L296.87,617.16 L299.91,603.28 C303.97,584.18 311.38,577.56 336.05,571.36 C347.82,568.49 356.67,565.76 357.01,565.17 C356.37,561.7 335.95,562.85 324.51,567.36 L324.51,567.36 M320.48,593.82 C316.82,598.73 314.25,604.81 314.1,608.36 C314.24,612.4 315.52,611.58 319.87,604.68 C323.32,599.28 328.97,593.29 332.62,590.66 C339.6,586.23 339.62,586.25 333.23,585.73 C329.4,585.64 324.36,588.69 320.48,593.82 L320.48,593.82"/>
  <path fill="#008000" d="M809.06,780.19 L804.85,787.92 C795.22,785.85 755.83,770.49 721.4,753.8 C687.05,737.11 638.38,712.07 628.99,705.25 C622.07,699.85 622.48,696.61 631.19,700.61 C639.8,704.88 672.99,723.94 696.38,735.65 C724.38,749.83 791.67,774.69 809.06,780.19 M634.77,697.84 C644.37,704.31 693.67,727.39 728.56,742.55 C763.53,757.72 803.46,771.09 813.22,772.68 L817.17,764.77 C799.45,760.14 731.43,738.51 702.97,725.5 C679.23,714.79 645.53,697.03 636.81,693.1 C628,689.44 627.69,692.7 634.77,697.84 M624.91,707.37 C616.36,702.89 615.78,706.07 622.46,711.84 L622.46,711.84 C631.52,719.14 679.12,746.95 712.6,765.78 C746.14,784.62 784.62,802.77 794.05,805.52 L798.62,798.07 C781.74,791.36 715.73,761.94 688.49,746.13 C665.67,733.02 633.34,712.1 624.91,707.37 M725.65,696.44 C700.82,689.81 665.47,677.5 656.42,674.96 C647.33,672.69 647.47,676.01 655.08,680.03 L655.08,680.03 C665.38,685.01 716.57,700.02 753.22,708.94 C789.86,717.82 831.5,723.22 841.66,722.85 L844.56,714.43 C824.24,713.27 757.03,704.97 725.65,696.44 M710.16,715.72 C685.96,706.46 651.55,690.65 642.69,687.22 C633.75,684.06 633.62,687.36 640.91,692.09 C650.79,698.03 700.93,718.22 736.55,731.16 C772.23,744.08 812.9,754.59 822.83,755.48 L826.39,747.35 C808.21,743.98 739.24,726.99 710.16,715.72 M718.93,706.59 C694.33,698.88 659.32,685.13 650.34,682.22 C641.3,679.59 641.34,682.91 648.82,687.22 C658.96,692.6 709.79,709.73 746.05,720.3 C782.35,730.85 823.63,738.35 833.71,738.49 L836.88,730.18 C817.58,728.08 749.23,716.24 718.93,706.59"/>
  <path fill="#FCDD09" d="M516.5,763.3 L526.34,772.02 C540.49,784.48 548.02,799.22 547.43,813.73 L546.91,825.59 L551.53,814.54 C556.5,802.77 555.84,784.51 549.92,769.62 L546.43,761.07 L557.51,767.65 C573.43,777.02 583.57,790.11 585.95,804.84 L587.86,816.89 L590,804.69 C592.33,791.72 587.99,773.52 579.37,759.9 L574.32,752.08 L586.17,756.19 C603.17,761.98 615.46,772.73 620.71,786.93 L624.97,798.54 L624.54,785.83 C624.12,772.3 616.3,755.09 605.35,743.41 L598.97,736.71 L611.06,738.12 C628.4,740.02 642.31,747.9 650.2,760.82 L656.62,771.37 L653.63,758.81 C650.49,745.44 639.52,730.1 626.72,720.92 L619.29,715.67 L631.1,714.33 C648.02,712.25 662.93,716.91 673.13,727.89 L681.42,736.85 L676.01,725.1 C670.29,712.56 656.65,699.82 642.56,693.56 L634.4,690.01 L645.4,685.99 C661.17,680.11 676.43,681.39 688.48,689.93 L698.3,696.89 L690.7,686.5 C682.64,675.41 666.93,665.82 652.17,662.72 L643.64,660.98 L653.36,654.54 C667.28,645.18 682.23,643.13 695.61,648.92 L706.51,653.61 L697.05,645.05 C687.02,635.86 669.91,629.74 655.13,629.86 L646.6,629.98 L654.61,621.45 C666.08,609.12 680.05,603.94 694.18,606.83 L705.7,609.14 L694.79,602.69 C683.22,595.73 665.47,593.23 651.31,596.48 L643.15,598.41 L649.1,588.21 C657.62,573.48 670,565.48 684.26,565.46 L695.89,565.41 L684.02,561.24 C671.39,556.68 653.8,557.8 640.87,563.97 L633.44,567.6 L637.08,556.16 C642.27,539.68 652.53,529.23 666.3,526.38 L677.53,524.04 L665.2,522.23 C652.06,520.18 635.42,524.78 624.28,533.61 L617.9,538.76 L619.07,526.56 C620.69,508.98 628.4,496.48 641.06,490.96 L651.4,486.46 L639.17,487.03 C626.1,487.53 611.13,495.41 602.26,506.55 L597.22,513.02 L595.86,500.53 C593.84,482.55 598.66,468.41 609.67,460.41 L618.66,453.9 L607.05,456.84 C594.63,459.89 581.97,470.79 575.77,483.83 L572.28,491.38 L568.45,479.08 C562.89,461.4 564.61,446.13 573.47,435.9 L580.74,427.57 L570.26,432.82 C559.04,438.37 549.21,451.95 545.96,466.4 L544.18,474.74 L538.05,463.14 C529.2,446.47 527.73,430.68 534.07,418.54 L539.28,408.64 L530.39,416.09 C520.88,424.01 514.3,439.81 514.15,455.08 L514.15,463.88 L505.99,453.48 C494.23,438.57 489.64,422.92 493.18,409.31 L496.1,398.2 L489.2,407.63 C481.79,417.66 478.77,435.08 481.72,450.52 L483.5,459.4 L473.67,450.68 C459.52,438.22 451.99,423.49 452.58,408.96 L453.1,397.11 L448.47,408.17 C443.5,419.94 444.17,438.19 450.08,453.08 L453.57,461.64 L442.49,455.05 C426.57,445.68 416.44,432.6 414.06,417.86 L412.15,405.82 L410,418.01 C407.68,430.98 412.01,449.18 420.64,462.8 L425.68,470.62 L413.84,466.51 C396.84,460.72 384.55,449.97 379.29,435.77 L375.04,424.16 L375.47,436.87 C375.89,450.4 383.71,467.61 394.66,479.29 L401.03,485.99 L388.95,484.58 C371.6,482.68 357.7,474.79 349.8,461.88 L343.39,451.32 L346.37,463.88 C349.51,477.26 360.48,492.61 373.28,501.78 L380.71,507.03 L368.91,508.37 C351.99,510.44 337.07,505.79 326.88,494.81 L318.58,485.84 L324,497.6 C329.72,510.14 343.36,522.88 357.44,529.13 L365.61,532.69 L354.6,536.7 C338.84,542.59 323.57,541.31 311.52,532.76 L301.7,525.81 L309.31,536.19 C317.36,547.28 333.08,556.88 347.84,559.98 L356.37,561.71 L346.65,568.15 C332.72,577.51 317.78,579.56 304.4,573.77 L293.49,569.08 L302.95,577.65 C312.98,586.84 330.1,592.95 344.88,592.83 L353.41,592.71 L345.39,601.24 C333.92,613.58 319.96,618.75 305.82,615.87 L294.31,613.55 L305.21,620 C316.79,626.97 334.54,629.46 348.7,626.22 L356.86,624.28 L350.9,634.49 C342.38,649.22 330,657.21 315.74,657.24 L304.12,657.28 L315.99,661.46 C328.62,666.01 346.21,664.89 359.14,658.72 L366.57,655.09 L362.93,666.53 C357.74,683.01 347.48,693.47 333.71,696.31 L322.48,698.65 L334.8,700.46 C347.94,702.51 364.59,697.91 375.73,689.08 L382.1,683.92 L380.94,696.13 C379.31,713.7 371.61,726.21 358.94,731.73 L348.61,736.23 L360.84,735.67 C373.91,735.16 388.88,727.28 397.75,716.14 L402.79,709.67 L404.15,722.16 C406.17,740.14 401.35,754.27 390.34,762.27 L381.34,768.79 L392.95,765.85 C405.37,762.8 418.04,751.9 424.24,738.86 L427.73,731.31 L431.56,743.6 C437.12,761.29 435.4,776.55 426.53,786.78 L419.27,795.12 L429.75,789.87 C440.96,784.32 450.8,770.74 454.04,756.29 L455.82,747.95 L461.95,759.55 C470.81,776.21 472.28,792.01 465.94,804.16 L460.73,814.05 L469.61,806.6 C479.13,798.68 485.71,782.88 485.86,767.61 L485.86,758.81 L494.02,769.21 C505.77,784.13 510.37,799.77 506.83,813.39 L503.9,824.5 L510.81,815.06 C518.21,805.02 521.24,787.61 518.29,772.17 L516.5,763.29 L516.5,763.3"/>
  <path id="a" fill="#FCDD09" d="M486.23,186.98 C474.25,205.57 472.83,221.31 480.98,250.73 C484.9,264.44 489.24,284.62 491.09,295.5 C493.49,310.83 493.28,312.21 493.6,315.51 L506.73,317.54 C507.18,312.43 507.58,306.52 508.64,298.47 C509.92,289.07 513.66,269.65 517.63,256.32 C525.59,229.6 525.05,212.76 512.65,191.37 C507.9,183.35 502.12,176.95 499.28,176.22 C496.35,176.06 490.63,180.19 486.23,186.98 M545.23,253.45 C528.16,258.65 518.13,277.3 512.41,305.14 C511.38,310.34 511.13,312.19 510.61,318.15 L519.32,319.51 C520.12,315.57 520.68,313.52 522.41,308.02 C529.64,286.84 549.05,280.85 548.57,301.61 C548.1,307.4 545.96,310.08 543.26,312.89 C546.55,312.45 553.39,310.24 559.07,307.8 C590.22,292.43 578.2,244.59 545.23,253.45 L545.23,253.45 M475.73,320.03 L524.58,327.68 C524.59,324.68 524.62,326.22 524.66,323.8 L475.8,316.31 C475.81,317.88 475.78,318.63 475.73,320.03 M479.77,337.14 C474.64,341.75 467.19,344.72 467.1,344.76 C467.12,344.77 473.92,346.5 480.31,347.09 C486.74,347.56 490.16,347.28 493.99,346.03 C493.02,353.68 492.91,361.17 492.91,361.18 C493.88,371.37 494.88,374.06 497.01,379.29 C500.06,383.82 501.37,384.05 503.67,380.12 C505.94,375.59 507.39,370.99 507.94,363.46 C507.76,357.77 507.45,355.14 506.16,348.01 C510.61,350.63 513.34,351.57 519.94,353.21 C526.7,354.81 532.85,355.51 532.87,355.51 C532.75,355.43 524.03,349.38 519.76,343.08 C515.83,336.8 516.63,337.9 513.78,330.15 C510.28,329.47 492.58,326.86 486.96,326 C483.89,332.21 483.54,333.47 479.77,337.14 L479.77,337.14 M454.77,239.6 C471.79,249.87 481.89,271.75 487.59,301.29 C488.62,306.81 488.87,308.73 489.39,314.85 L480.68,313.53 C479.88,309.35 479.32,307.12 477.59,301.09 C470.38,277.76 450.94,265.72 451.43,286.76 C451.89,292.64 454.05,296.03 456.74,299.62 C453.48,298.22 446.59,293.95 440.93,289.87 C410.02,265.65 421.68,220.84 454.77,239.6 L454.77,239.6"/>
  <path fill="#FCDD09" d="M182.83,168.78 C170.83,190.68 169.45,206.92 177.58,233.99 C181.5,246.59 185.84,265.6 187.69,276 C190.09,290.7 189.88,292.14 190.2,295.36 L203.33,294.12 C203.78,288.9 204.18,282.9 205.24,274.59 C206.52,264.9 210.26,244.61 214.23,230.4 C222.18,201.98 221.67,185.17 209.25,166.57 C204.46,159.59 198.79,154.64 195.88,154.62 C193.01,155.18 187.21,160.83 182.83,168.78 M241.83,222.08 C224.79,230.26 214.71,251.32 209.01,280.4 C207.98,285.83 207.73,287.74 207.21,293.82 L215.92,293.22 C216.72,289.11 217.28,286.93 219.01,281.07 C226.25,258.32 245.66,248.67 245.17,269.66 C244.7,275.5 242.55,278.59 239.86,281.86 C243.13,280.86 250.01,277.46 255.67,274.17 C286.35,254.4 274.91,207.44 241.83,222.08 L241.83,222.08 M172.33,304.78 C186.1,302.98 209.76,300.97 221.18,300.27 C221.19,297.27 221.22,298.8 221.26,296.37 C212.81,296.78 180.86,299.89 172.4,301.04 C172.41,302.6 172.38,303.37 172.33,304.78 M176.37,320.73 C171.28,326.75 163.75,332.02 163.7,332.06 C163.71,332.06 170.51,331.75 176.91,330.53 C183.32,329.2 186.76,328.02 190.59,325.78 C189.62,333.69 189.51,341.2 189.51,341.21 C190.48,351.15 191.48,353.57 193.61,358.27 C196.66,362.02 197.97,361.92 200.27,357.44 C202.54,352.36 203.99,347.39 204.54,339.76 C204.36,334.1 204.05,331.55 202.76,324.73 C207.21,326.28 209.93,326.58 216.54,326.79 C223.28,326.94 229.46,326.43 229.47,326.43 C229.32,326.36 220.63,322.08 216.36,316.69 C212.43,311.27 213.23,312.2 210.38,305.09 C206.87,305.21 189.21,306.94 183.56,307.6 C180.49,314.64 180.14,316.01 176.37,320.73 L176.37,320.73 M151.37,230.77 C168.44,235.55 178.49,254.72 184.19,282.73 C185.22,287.97 185.47,289.82 185.99,295.81 L177.28,296.86 C176.48,292.9 175.92,290.84 174.19,285.3 C166.92,263.86 147.54,258.16 148.03,279.02 C148.5,284.8 150.63,287.41 153.34,290.15 C150.06,289.79 143.19,287.79 137.53,285.66 C106.94,272.31 118.22,222.72 151.37,230.77 L151.37,230.77"/>
  <path fill="#FCDD09" d="M789.63,212.03 C777.67,233.3 776.22,249.26 784.38,276.96 C788.3,289.81 792.64,308.99 794.49,319.44 C796.89,334.2 796.68,335.63 797,338.86 L810.13,337.6 C810.58,332.38 810.98,326.37 812.04,318.03 C813.32,308.31 817.06,287.9 821.03,273.46 C829.02,244.44 828.42,227.87 816.05,209.87 C811.28,203.11 805.58,198.2 802.68,198.18 C799.82,198.73 794,204.3 789.63,212.03 M848.63,262.29 C831.61,272.96 821.52,294.34 815.81,323.71 C814.78,329.19 814.53,331.1 814.01,337.19 L822.72,336.17 C823.52,332.01 824.08,329.8 825.81,323.8 C832.98,300.74 852.45,288.4 851.97,309.35 C851.51,315.24 849.35,318.71 846.66,322.36 C849.92,320.88 856.79,316.4 862.47,312 C893.96,285.54 881.73,242.66 848.63,262.29 L848.63,262.29 M779.13,347.38 C792.89,346.66 816.53,344.46 827.98,342.85 C827.99,339.84 828.02,341.37 828.06,338.94 C819.58,340.03 787.59,343.16 779.2,343.64 C779.21,345.2 779.18,345.97 779.13,347.38 M783.17,363.62 C778.04,369.34 770.57,373.81 770.5,373.85 C770.53,373.85 777.3,374.25 783.71,373.46 C790.12,372.53 793.56,371.44 797.39,369.28 C796.42,377.17 796.31,384.68 796.31,384.69 C797.28,394.66 798.28,397.1 800.41,401.81 C803.46,405.59 804.77,405.49 807.07,400.98 C809.34,395.87 810.79,390.86 811.34,383.22 C811.16,377.57 810.85,375.02 809.56,368.23 C814.01,369.69 816.73,369.91 823.34,369.7 C830.09,369.39 836.25,368.22 836.27,368.22 C836.08,368.15 827.49,364.79 823.16,359.62 C819.23,354.44 820.02,355.31 817.18,348.34 L790.36,350.89 C787.29,357.79 786.94,359.14 783.17,363.62 L783.17,363.62 M758.17,270.97 C775.22,278.26 785.27,297.73 790.99,326.04 C792.02,331.32 792.27,333.19 792.79,339.18 L784.08,339.82 C783.28,335.8 782.72,333.7 780.99,328.04 C773.79,306.27 754.35,297.9 754.83,318.71 C755.3,324.54 757.44,327.52 760.14,330.65 C756.86,329.82 750.01,326.72 744.33,323.5 C712.95,303.65 725.19,258 758.17,270.97 L758.17,270.97"/>
  <path fill="#1A1A1A" opacity="0.2" d="M8,195.25 C178.83,110.03 349.03,140.83 521.26,167.28 C676.47,191.12 833.42,211.85 992,132.75 L992,804.75 C821.17,889.97 650.97,859.17 478.74,832.72 C323.53,808.88 166.58,788.15 8,867.25 L8,195.25 M39.25,214.64 L39.25,819.14 C345.81,690.88 650.43,915.18 960.75,785.36 L960.75,180.86 C654.19,309.12 349.57,84.82 39.25,214.64"/>
</svg>
