<svg xmlns="http://www.w3.org/2000/svg" viewBox="0 0 64 64" enable-background="new 0 0 64 64"><path d="M32,62c5.3,0,10.3-1.4,14.6-3.8l0.1-52.3C42.4,3.4,37.4,2,32,2C17.1,2,4.7,12.9,2.4,27.2v9.6
			C4.7,51.1,17.1,62,32,62z" fill="#2a5f9e"/><path d="m62 32c0-7.7-2.9-14.7-7.6-20-.9-1-1.8-1.9-2.9-2.8-.3-.3-.7-.6-1-.8h-3.7v-.4l-43.2 21.5c-.1.8-1.6 1.7-1.6 2.5 0 .8 1.9 1.6 1.9 2.4l42.7 21.6v-.4h3.8c.3-.3.7-.5 1-.8 1-.9 2-1.8 2.9-2.8 4.8-5.3 7.7-12.3 7.7-20" fill="#f9f9f9"/><g fill="#ed4c5c"><path d="m50.5 55.6l-48.5-23.4c0 1.6.1 3.1.4 4.6l44.3 21.4c1.3-.8 2.6-1.6 3.8-2.6"/><path d="m2.4 27.2c-.3 1.5-.4 3-.4 4.6l48.5-23.4c-1.2-1-2.5-1.8-3.9-2.6l-44.2 21.4"/></g><path fill="#9c3900" d="m44.7 37.9l-1.6-.3-.1-2.3.2-.9-.2-.9-.1-.9-2.1-.7-1.6-.1-1.3-1 .4-2.9-4-.7 2.7-2.2.1-1.9 2.2-1.1 4.3-1.8.2.6 3.7-1.6v.6l3.2-.8 3.3-1.2-.3 3.6-1.1 1.5-.7 1.7-3.7 2.3 4.8 1.9-2 2.3-2.1.1 1.2.9-1.2.6.9.1-.6.7 1.2-.2-1.5 1.3.2 1.2-1.2-.5.8 1.3-1.5-.4.3 1.4-1.1-.3-.1 1.1z"/><path d="m53.9 18l-.4 3.4-1 1.4-.7 1.7-3.8 2.4 4.8 1.9-1.8 2.2-2.4.1 1.3 1-1.5.7 1.2.1-.7.7 1.1-.2-1.2 1 .2 1.1-1.3-.6.8 1.3-1.4-.3.2 1.3-1-.3-.1 1.1-1.5-.5-1.5-.2-.1-2.2.2-.9-.2-.9-.1-1-2.1-.6-1.7-.2-1.1-.9.4-2.9-3.9-.7 2.5-2.1.1-1.9 2.2-1 4.2-1.8.2.6 3.7-1.6v.6l3.3-.7 3.1-1.1m.3-.3l-.4.1-3.2 1.1-3 .7v-.2-.4l-.4.2-3.4 1.5-.1-.3v-.4l-.3.1-4.2 1.8-2.2 1-.1.1v.1l-.1 1.8-2.4 2-.4.4.5.1 3.7.6-.3 2.6v.1l.1.1 1.1.9h.1.1l1.7.2 1.9.6.1.9.2.9-.2.8.1 2.2v.2h.2l1.5.2 1.4.5.3.1v-.3l.1-.8.7.2.4.1-.1-.4-.2-.9 1 .2.6.1-.3-.5-.4-.7.6.2.4.2-.1-.5-.2-1 1.1-.9.7-.6-.9.1-.4.1.2-.2.4-.4h-.5-.2l.6-.3.4-.2-.4.1-.8-.6 1.7-.1h.1l.1-.1 1.9-2.1.2-.3-.3-.1-4.4-1.7 3.4-2.1h.1v-.1l.7-1.7 1-1.4v-.1-.1l.4-3.4.1-.3z" fill="#3e4347"/><path d="m46.4 42.9c0 0 0 0 0 0" fill="#ffc221"/><path d="m46.4 42.9c0 0 0 0 0 0m0 0" fill="#3e4347"/><path d="m41.5 44.4l.5.9-9-4.2 1.5-1.3.2.3 5.1.5-.1-.3 1.1-.5v-.3l-2.2.5-.1-1.2-2.5-.5-.1.7h-.7l-.2.6-1.3-.4.3-1.4-1.9.9-3.3-2.7 4.2-.8 1.3 1.5.4-1.3 1.3.3-.2.6.7.1-.2.8 2.5.6.4-1 2.5 1.6 1.4-1.1.3.1.6-1.2 1.1.2.3.9-.4 1.7.3.4 6 1.4-.3 1-.6-.1.1.8-12.7-.9-.3.4 4.5.2-.3.4 3-.4-.2.7 2.8-.2-2 .8 2.2 1h-2.6l1.4 1.3-2.7-1v1l-2.1-1.4m7.4-3.1l-4.1-.9-.9.5 5 .4" fill="#ffce31"/><path d="m32.9 35.4l1.4 1.6.4-1.4 1 .3-.2.6.7.1-.2.8 2.7.6.4-.9 2.5 1.5 1.4-1.1.3.2.6-1.2.9.2.3.9-.3 1.4.3.5 5.9 1.4-.2.7-6-1.4-1 .5-.1.3 6.4.5.1.8-12.6-.9-.4.7 4.5.2-.3.4 3.1-.4-.2.7 2.1-.2-1.4.7 1.9.9h-2.3l1.2 1.1-2.2-.9v1l-2.5-1.6.6 1-8.5-3.9 1.2-1 .1.3 5.4.5-.1-.3 1.1-.5v-.5l-2.3.5-.1-1.1-2.7-.6-.1.7h-.7l-.2.6-1-.3.3-1.5-2.1 1-3-2.5 3.9-1m.1-.3h-.1l-3.9.7-.5.1.4.3 3 2.5.1.1.1-.1 1.6-.8-.2 1v.2l.2.1 1 .3.2.1.1-.2.1-.4h.5.2v-.2l.1-.4 2.2.5.1.9v.3l.3-.1 2-.4-1 .5-.2.1v.2l-4.9-.4-.1-.1-.1-.3-.2.2-1.2 1-.3.3.4.2 8.5 3.9.7.3-.4-.7-.1-.1 1.6 1 .4.2v-.5-.6l1.9.7 1.2.5-1-.9-.7-.6h1.7 1.2l-.9-.4-1.4-.7.9-.3 1.6-.6-1.7.1-1.7.1.1-.4.1-.3 5.4.4h.3l-.1-.3-.1-.5.3.1.2.1.1-.2.2-.7.1-.3-.3-.1-5.8-1.4-.2-.3.5-1.3v-.1-.1l-.3-.9v-.1h-.1l-.9-.2h-.2l-.1.2-.5 1h-.1l-.1-.1-.2.1-1.3 1-2.3-1.5-.2-.1-.1.3-.3.8-2.3-.5.1-.6.1-.2h-.3l-.4-.1.1-.3.1-.2-.2-.1-1-.3-.2-.1-.1.2-.3.9-1.1-1.2-.3-.2zm11.3 5.7l.6-.3 2.3.5-2.9-.2m-6.6 1.1l.1-.2 6.6.4-2.4.3.3-.3h-.5l-4.1-.2" fill="#3e4347"/><path d="m32.4 35.1c-.5-.3-.8-.6-.9-1-.1-.8.8-1.6.8-1.6l.2-.1v.2c.1.4 1 .5 1.4.5 0 0 .1 0 .3 0 .3 0 .6.1.9.4v.1.1c-.5.8-1.3.9-1.8.9-.3 0-.6-.1-.7-.1 0 .1-.1.2-.1.6v.2l-.1-.2" fill="#ffce31"/><path d="m32.4 32.6c.1.6 1.5.6 1.5.6s.1 0 .3 0c.2 0 .5.1.8.4-.5.7-1.2.9-1.7.9-.4 0-.7-.1-.7-.1s-.1.1-.2.7c-1.8-1 0-2.5 0-2.5m.2-.3h-.2c-.2 0-.9.8-1 1.3-.1.5 0 1.1.9 1.6l.3.2v-.3c0-.2.1-.3.1-.4.1 0 .4.1.6.1.5 0 1.3-.2 1.9-1l.1-.1-.1-.1c-.2-.3-.6-.5-1-.5-.2 0-.3 0-.3 0-.5 0-1.2-.1-1.3-.4v-.4z" fill="#3e4347"/><path fill="#fff" d="m32.3 32.6l.4-.6.2-.9 4.4-2.2 1.4-1.6-.5 1.5 1.8-.4-1.5 1.1 2-.4-1.7 1.1 2.1-.2-1.6 1.1 1.4.1-1.7.8-2.3.6-1.6 1.1h-2.3z"/><path d="m38.4 27.9l-.4 1.1 1.4-.3-1.4 1 1.8-.4-1.5 1.1 2.1-.2-1.2.8-.7.1 1.8.2-1.3.6-2.3.6-1.7 1h-2.1l-.4-1 .3-.5.2-.9 4.4-2.2 1-1m.6-1.2l-.8 1-.9 1.1-4.4 2.2h-.1v.1l-.2.9-.3.5-.1.1v.1l.4 1 .1.2h.2 2.1.1.1l1.6-1 2.2-.6 1.3-.6.8-.4-.8-.3h-.6l.9-.6.9-.6-1 .1-1.2.1.8-.5 1.1-.7-1.3.3-.7.2.5-.4.9-.7-1.1.2-1 .2.2-.7.3-1.2z" fill="#3e4347"/><path fill="#fff" d="m50.8 31.2l-.7-.9.6-1.5-.3-.5.2-1 4.1-.7-.6 1.2 1.3 1.1-.9 1.6.7 1.6z"/><path d="m54.4 26.8l-.6 1.1 1.4 1-.9 1.6.7 1.4-4.2-.8-.6-.8.5-1.5-.3-.5.2-.8 3.8-.7m.5-.3l-.5.1-3.7.6h-.2v.2l-.2.8v.1.1l.2.4-.5 1.4v.1l.1.1.6.8.1.1h.1l4.2.8.5.1-.2-.4-.6-1.3.9-1.5.1-.2-.2-.1-1.2-.9.5-.9v-.4z" fill="#3e4347"/></svg>