<svg xmlns="http://www.w3.org/2000/svg" viewBox="0 0 1000 1000">
  <defs/>
  <path fill="#0073cf" d="M8,195.25 C178.83,110.03 349.03,140.83 521.26,167.28 C676.47,191.12 833.42,211.85 992,132.75 L992,804.75 C821.17,889.97 650.97,859.17 478.74,832.72 C323.53,808.88 166.58,788.15 8,867.25 L8,195.25"/>
  <path fill="#fff" d="M8,419.25 C178.83,334.03 349.03,364.83 521.26,391.28 C676.47,415.12 833.42,435.85 992,356.75 L992,580.75 C821.17,665.97 650.97,635.17 478.74,608.72 C323.53,584.88 166.58,564.15 8,643.25 L8,419.25"/>
  <path id="triangle" fill="#0073cf" d="M500,462.67 L491.55,496.86 L504.55,504.64 L500,462.67"/>
  <path fill="#0073cf" d="M500,462.67 L508.45,499.48 L495.45,503.23 L500,462.67"/>
  <path fill="#0073cf" d="M525.99,492.47 L498.66,488.26 L498.66,506.92 L525.99,492.47"/>
  <path fill="#0073cf" d="M525.99,492.47 L503.88,511.02 L495.85,494.67 L525.99,492.47"/>
  <path fill="#0073cf" d="M474.01,484.46 L496.12,509.82 L504.15,495.96 L474.01,484.46"/>
  <path fill="#0073cf" d="M474.01,484.46 L501.34,488.67 L501.34,507.34 L474.01,484.46"/>
  <path fill="#0073cf" d="M516.07,532.69 L507.63,495.88 L494.62,499.63 L516.07,532.69"/>
  <path fill="#0073cf" d="M516.07,532.69 L493.96,507.32 L501.98,493.46 L516.07,532.69"/>
  <path fill="#0073cf" d="M483.93,527.72 L506.04,509.19 L498.02,492.84 L483.93,527.72"/>
  <path fill="#0073cf" d="M483.93,527.72 L492.37,493.52 L505.38,501.3 L483.93,527.72"/>
  <path fill="#0073cf" d="M636.67,421.79 L628.22,456.39 L641.22,463.53 L636.67,421.79"/>
  <path fill="#0073cf" d="M636.67,421.79 L645.11,458.15 L632.12,462.58 L636.67,421.79"/>
  <path fill="#0073cf" d="M662.66,450.03 L635.33,447.45 L635.33,466.11 L662.66,450.03"/>
  <path fill="#0073cf" d="M662.66,450.03 L640.55,469.94 L632.51,454 L662.66,450.03"/>
  <path fill="#0073cf" d="M610.67,444.64 L632.79,469.13 L640.82,454.86 L610.67,444.64"/>
  <path fill="#0073cf" d="M610.67,444.64 L638.01,447.73 L638.01,466.39 L610.67,444.64"/>
  <path fill="#0073cf" d="M652.74,490.9 L644.29,454.6 L631.28,459.02 L652.74,490.9"/>
  <path fill="#0073cf" d="M652.74,490.9 L630.63,466.73 L638.65,452.48 L652.74,490.9"/>
  <path fill="#0073cf" d="M620.59,487.56 L642.71,467.99 L634.68,452.06 L620.59,487.56"/>
  <path fill="#0073cf" d="M620.59,487.56 L629.04,453.01 L642.05,460.14 L620.59,487.56"/>
  <path fill="#0073cf" d="M636.67,533.79 L628.22,568.39 L641.22,575.53 L636.67,533.79"/>
  <path fill="#0073cf" d="M636.67,533.79 L645.11,570.15 L632.12,574.58 L636.67,533.79"/>
  <path fill="#0073cf" d="M662.66,562.03 L635.33,559.45 L635.33,578.11 L662.66,562.03"/>
  <path fill="#0073cf" d="M662.66,562.03 L640.55,581.94 L632.51,566 L662.66,562.03"/>
  <path fill="#0073cf" d="M610.67,556.64 L632.79,581.13 L640.82,566.86 L610.67,556.64"/>
  <path fill="#0073cf" d="M610.67,556.64 L638.01,559.73 L638.01,578.39 L610.67,556.64"/>
  <path fill="#0073cf" d="M652.74,602.9 L644.29,566.6 L631.28,571.02 L652.74,602.9"/>
  <path fill="#0073cf" d="M652.74,602.9 L630.63,578.73 L638.65,564.48 L652.74,602.9"/>
  <path fill="#0073cf" d="M620.59,599.56 L642.71,579.99 L634.68,564.06 L620.59,599.56"/>
  <path fill="#0073cf" d="M620.59,599.56 L629.04,565.01 L642.05,572.14 L620.59,599.56"/>
  <path fill="#0073cf" d="M363.33,384.08 L354.89,418.73 L367.88,425.83 L363.33,384.08"/>
  <path fill="#0073cf" d="M363.33,384.08 L371.78,420.49 L358.78,424.88 L363.33,384.08"/>
  <path fill="#0073cf" d="M389.33,412.82 L361.99,409.74 L361.99,428.4 L389.33,412.82"/>
  <path fill="#0073cf" d="M389.33,412.82 L367.21,432.24 L359.18,416.3 L389.33,412.82"/>
  <path fill="#0073cf" d="M337.34,407.43 L359.45,431.43 L367.49,417.16 L337.34,407.43"/>
  <path fill="#0073cf" d="M337.34,407.43 L364.67,410.01 L364.67,428.68 L337.34,407.43"/>
  <path fill="#0073cf" d="M379.41,453.38 L370.96,416.93 L357.95,421.33 L379.41,453.38"/>
  <path fill="#0073cf" d="M379.41,453.38 L357.29,429.04 L365.32,414.77 L379.41,453.38"/>
  <path fill="#0073cf" d="M347.26,450.04 L369.37,430.3 L361.35,414.35 L347.26,450.04"/>
  <path fill="#0073cf" d="M347.26,450.04 L355.71,415.34 L368.72,422.45 L347.26,450.04"/>
  <path fill="#0073cf" d="M363.33,496.08 L354.89,530.73 L367.88,537.83 L363.33,496.08"/>
  <path fill="#0073cf" d="M363.33,496.08 L371.78,532.49 L358.78,536.88 L363.33,496.08"/>
  <path fill="#0073cf" d="M389.33,524.82 L361.99,521.74 L361.99,540.4 L389.33,524.82"/>
  <path fill="#0073cf" d="M389.33,524.82 L367.21,544.24 L359.18,528.3 L389.33,524.82"/>
  <path fill="#0073cf" d="M337.34,519.43 L359.45,543.43 L367.49,529.16 L337.34,519.43"/>
  <path fill="#0073cf" d="M337.34,519.43 L364.67,522.01 L364.67,540.68 L337.34,519.43"/>
  <path fill="#0073cf" d="M379.41,565.38 L370.96,528.93 L357.95,533.33 L379.41,565.38"/>
  <path fill="#0073cf" d="M379.41,565.38 L357.29,541.04 L365.32,526.77 L379.41,565.38"/>
  <path fill="#0073cf" d="M347.26,562.04 L369.37,542.3 L361.35,526.35 L347.26,562.04"/>
  <path fill="#0073cf" d="M347.26,562.04 L355.71,527.34 L368.72,534.45 L347.26,562.04"/>
  <path fill="#1A1A1A" opacity="0.2" d="M8,195.25 C178.83,110.03 349.03,140.83 521.26,167.28 C676.47,191.12 833.42,211.85 992,132.75 L992,804.75 C821.17,889.97 650.97,859.17 478.74,832.72 C323.53,808.88 166.58,788.15 8,867.25 L8,195.25 M39.25,214.64 L39.25,819.14 C345.81,690.88 650.43,915.18 960.75,785.36 L960.75,180.86 C654.19,309.12 349.57,84.82 39.25,214.64"/>
</svg>
