<svg xmlns="http://www.w3.org/2000/svg" viewBox="0 0 64 64" enable-background="new 0 0 64 64"><path d="M2,32c0,16.6,13.4,30,30,30s30-13.4,30-30c0-3.5-0.6-6.9-1.7-10H3.7C2.6,25.1,2,28.5,2,32z" fill="#3e4347"/><path d="M32,2C18.9,2,7.8,10.4,3.7,22h56.6C56.2,10.4,45.1,2,32,2z" fill="#2a5f9e"/><g fill="#ffce31"><path d="m30.9 5.2c-1 1.6-1.1 2.9-.4 5 .3 1 .7 2.5.8 3.4.2 1.2.2 1.3.2 1.5.2 0 .8 0 1.1 0 0-.4.1-.9.2-1.5.1-.7.4-2.3.7-3.4.6-2.2.5-3.5-.5-5-.4-.6-.9-1-1.1-1-.2 0-.7.4-1 1m4.7 4.4c-1.4.6-2.2 2.2-2.6 4.4-.1.4-.1.6-.1 1 .3 0 .4 0 .7 0 .1-.3.1-.5.2-.9.5-1.7 2.2-2.4 2.1-.8 0 .4-.2.7-.4.9.3-.1.8-.3 1.3-.6 2.4-1.4 1.4-5.1-1.2-4m-5.5 6.1c1.1 0 3 0 3.9 0 0-.2 0-.1 0-.3-.7 0-3.2 0-3.9 0 0 .1 0 .2 0 .3m.3 1.3c-.4.4-1 .7-1 .7s.5.1 1.1 0 .8-.1 1.1-.2c-.1.6-.1 1.2-.1 1.2.1.8.2 1 .3 1.4.2.3.4.3.5 0 .2-.4.3-.8.3-1.4 0-.4 0-.6-.1-1.2.4.2.6.2 1.1.2.5 0 1 0 1 0s-.7-.4-1-.8c-.3-.4-.2-.4-.5-.9-.3 0-1.7 0-2.1 0-.3.5-.3.6-.6 1m-2-7.4c1.4.6 2.2 2.2 2.6 4.4.1.4.1.6.1 1-.3 0-.4 0-.7 0-.1-.3-.1-.5-.2-.9-.5-1.7-2.2-2.4-2.1-.8 0 .4.2.7.4.9-.3-.1-.8-.3-1.3-.6-2.4-1.4-1.4-5.1 1.2-4"/><path d="m13.6 13.6c.2 1.2.2 1.3.2 1.5.2 0 .8 0 1.1 0 0-.4.1-.9.2-1.5.1-.7.4-2.3.7-3.4.4-1.5.5-2.5.3-3.5-1.2.8-2.4 1.6-3.5 2.6.1.3.1.6.3 1 .2.9.5 2.5.7 3.3"/><path d="m16.2 15.7c0-.2 0-.1 0-.3-.7 0-3.2 0-3.9 0 0 .1 0 .2 0 .3 1.1 0 3 0 3.9 0"/><path d="m9.6 13.7c.4.3 1 .5 1.3.6-.2-.2-.4-.5-.4-.9-.1-1.6 1.5-.9 2.1.8.1.4.2.6.2.9.3 0 .4 0 .7 0 0-.5-.1-.6-.1-1-.4-1.8-.9-3.1-1.8-3.9-1 .9-1.9 1.9-2.7 2.9.1.2.3.4.7.6"/><path d="m15.9 17c-.3-.4-.2-.4-.5-.9-.3 0-1.7 0-2.1 0-.2.5-.3.6-.6 1-.4.4-1 .7-1 .7s.5.1 1.1 0 .8-.1 1.1-.2c-.1.6-.1 1.2-.1 1.2.1.8.2 1 .3 1.4.2.3.4.3.5 0 .2-.4.3-.8.3-1.4 0-.4 0-.6-.1-1.2.4.2.6.2 1.1.2.5 0 1 0 1 0s-.7-.4-1-.8"/><path d="m17.9 9.6c-1.4.6-2.2 2.2-2.6 4.4-.1.4-.1.6-.1 1 .3 0 .4 0 .7 0 .1-.3.1-.5.2-.9.5-1.7 2.2-2.4 2.1-.8 0 .4-.2.7-.4.9.3-.1.8-.3 1.3-.6 2.4-1.4 1.4-5.1-1.2-4"/><path d="m48.2 15.1c.3 0 .4 0 .7 0 0-.5-.1-.6-.1-1-.4-2.2-1.3-3.8-2.6-4.4-2.6-1.1-3.6 2.6-1.1 4.1.4.3 1 .5 1.3.6-.2-.2-.4-.5-.4-.9-.1-1.6 1.5-.9 2.1.8 0 .3 0 .5.1.8"/><path d="m48.2 10.2c.3 1 .7 2.5.8 3.4.2 1.2.2 1.3.2 1.5.2 0 .8 0 1 0 0-.4.1-.9.2-1.5.1-.7.4-2.3.7-3.4.1-.4.2-.7.3-1.1-1.1-.9-2.2-1.8-3.4-2.5-.3 1-.3 2.1.2 3.6"/><path d="m51.3 17c-.3-.4-.2-.4-.5-.9-.3 0-1.7 0-2.1 0-.2.5-.3.6-.6 1-.4.4-1 .7-1 .7s.5.1 1.1 0 .8-.1 1.1-.2c-.1.6-.1 1.2-.1 1.2.1.8.2 1 .3 1.4.2.3.4.3.5 0 .2-.4.3-.8.3-1.4 0-.4 0-.6-.1-1.2.4.2.6.2 1.1.2.5 0 1 0 1 0s-.7-.4-1-.8"/><path d="m47.8 15.7c1.1 0 3 0 3.9 0 0-.2 0-.1 0-.3-.7 0-3.2 0-3.9 0 0 .1 0 .2 0 .3"/><path d="m50.7 14.1c-.1.4-.1.6-.1 1 .3 0 .4 0 .7 0 .1-.3.1-.5.2-.9.5-1.7 2.2-2.4 2.1-.8 0 .4-.2.7-.4.9.3-.1.8-.3 1.3-.6.3-.2.6-.4.8-.7-.8-1-1.7-2-2.7-2.9-.9.9-1.5 2.2-1.9 4"/></g><g fill="#83bf4f"><path d="m53.8 50.8l-.2.7-15.8-6.9.2-.6z"/><path d="m54.3 49.1l-.2.7-16.1-5.9.2-.7z"/><path d="m54.7 47.7l-.1.6-16.4-5.2.2-.6z"/><path transform="matrix(.2789-.9603.9603.2789-8.6855 76.838)" d="m46.5 35.6h.7v17.1h-.7z"/><path d="m55.6 44.6l-.2.7-16.6-4.1.2-.7z"/><path d="m14.3 28.1l.4-.5 12.5 12-.4.5z"/><path d="m12 28.7l.4-.5 13 11.2-.4.5z"/><path d="m9.6 28.2l.4-.6 13.5 10.6-.4.6z"/><path transform="matrix(.5981-.8014.8014.5981-21.1883 26.9285)" d="m15.9 26h.7v17.1h-.7z"/><path d="m6.4 29.5l.4-.5 14.1 9.7-.4.5z"/><path d="m6.3 32.3v-.6l16.9 3.8-.1.6z"/><path d="m4.9 33.6v-.7l17 2.9-.1.6z"/><path d="m7 35.4l.1-.7 17 2-.1.7z"/><path transform="matrix(.0943-.9955.9955.0943-24.5925 46.8455)" d="m13.1 28.4h.7v17.1h-.7z"/><path d="m7.8 38.7l.1-.7 17.1.9-.1.7z"/></g><path d="m33.3 50.6l.7.5c1 .7 1.5 1.6 1.4 2.6v.8l.3-.8c.3-.8.3-2.1-.1-3l-.2-.5.8.3c1.1.5 1.8 1.3 1.9 2.2l.1.8.1-.8c.2-.9-.1-2.1-.7-2.9l-.3-.5.8.2c1.2.2 2 .9 2.4 1.8l.3.7v-.8c0-.9-.6-2-1.3-2.7l-.4-.4h.8c1.2 0 2.2.4 2.7 1.2l.4.7-.2-.8c-.2-.9-1-1.8-1.8-2.4l-.5-.3.8-.2c1.1-.3 2.2 0 2.9.6l.6.6-.4-.8c-.4-.8-1.3-1.6-2.3-1.9l-.6-.2.8-.3c1.1-.5 2.1-.5 3 0l.7.4-.5-.7c-.5-.7-1.6-1.3-2.6-1.4h-.9l.7-.5c.9-.7 2-.9 2.9-.6l.7.3-.6-.5c-.7-.6-1.9-.9-2.9-.8l-.6.1.5-.6c.8-.9 1.8-1.3 2.7-1.2l.8.1-.7-.4c-.8-.4-2-.5-3-.2l-.6.2.4-.7c.6-1 1.4-1.7 2.4-1.7h.8l-.8-.2c-.9-.3-2.1-.1-3 .4l-.5.3.2-.8c.3-1.1 1.1-1.9 2-2.2l.8-.2-.8-.1c-.9-.1-2.1.4-2.8 1l-.4.4.1-.8c.1-1.2.6-2.1 1.5-2.5l.7-.4h-.8c-.9.1-1.9.8-2.5 1.6l-.3.5-.1-.8c-.1-1.2.2-2.2.9-2.8l.6-.5-.8.3c-.8.3-1.7 1.2-2.1 2.1l-.2.5-.3-.8c-.4-1.1-.3-2.2.3-2.9l.5-.6-.8.4c-.8.5-1.5 1.5-1.7 2.5v.5l-.4-.7c-.6-1-.7-2.1-.3-2.9l.4-.7-.6.6c-.7.6-1.1 1.8-1.1 2.8v.6l-.7-.7c-.8-.9-1.1-1.9-.9-2.8l.2-.8-.5.7c-.5.7-.7 2-.5 2.9l.1.6-.7-.5c-1-.7-1.5-1.6-1.4-2.6v-.8l-.3.8c-.3.8-.3 2.1.1 3l.2.5-.8-.3c-1.1-.5-1.8-1.3-1.9-2.2l-.1-.8v.9c-.2.9.1 2.1.7 2.9l.3.5-.8-.2c-1.2-.2-2-.9-2.4-1.8l-.3-.7v.8c0 .9.6 2 1.3 2.7l.4.4h-.8c-1.2 0-2.2-.4-2.7-1.2l-.4-.7.2.8c.2.9 1 1.8 1.8 2.4l.5.3-.7.2c-1.1.3-2.2 0-2.9-.6l-.6-.6.4.8c.4.8 1.3 1.6 2.3 1.9l.6.2-.7.3c-1.1.5-2.1.5-3 0l-.7-.4.5.7c.5.7 1.6 1.3 2.6 1.4l.6.1-.7.5c-.9.7-2 .9-2.9.6l-.6-.5.6.5c.7.6 1.9.9 2.9.8l.6-.1-.5.6c-.8.9-1.8 1.3-2.7 1.2h-.9l.7.4c.8.4 2 .5 3 .2l.6-.2-.4.7c-.6 1-1.4 1.7-2.4 1.7h-.8l.8.2c.9.3 2.1.1 3-.4l.5-.3-.2.8c-.3 1.1-1.1 1.9-2 2.2l-.8.3.8.1c.9.1 2.1-.4 2.8-1l.4-.4v.7c-.1 1.2-.6 2.1-1.5 2.5l-.7.4.8-.1c.9-.1 1.9-.8 2.5-1.6l.3-.5.1.8c.1 1.2-.2 2.2-.9 2.8l-.6.6.8-.3c.8-.3 1.7-1.2 2.1-2.1l.2-.5.3.8c.4 1.1.3 2.2-.3 2.9l-.5.6.7-.5c.8-.5 1.5-1.5 1.7-2.5l.1-.6.4.7c.6 1 .7 2.1.3 2.9l-.4.7.6-.4c.7-.6 1.1-1.8 1.1-2.8v-.6l.6.6c.8.9 1.1 1.9.9 2.8l-.2.8.5-.7c.5-.7.7-2 .5-2.9l-.1-.6" fill="#ffce31"/></svg>