<svg xmlns="http://www.w3.org/2000/svg" viewBox="0 0 1000 1000">
  <defs/>
  <path fill="#008000" d="M8,195.25 C178.83,110.03 349.03,140.83 521.26,167.28 C676.47,191.12 833.42,211.85 992,132.75 L992,804.75 C821.17,889.97 650.97,859.17 478.74,832.72 C323.53,808.88 166.58,788.15 8,867.25 L8,195.25"/>
  <path fill="#ffe000" d="M602.5,514.9 C602.26,592.7 556.82,648.47 500,640 C443.22,630.88 397.74,562.42 397.5,485.1 C397.74,407.3 443.18,351.53 500,360 C556.78,369.12 602.26,437.58 602.5,514.9"/>
  <path fill="#008000" d="M616.3,516.59 C616.06,580.58 578.75,626.9 531.96,620.12 C485.22,612.68 447.86,555.76 447.62,492.02 C447.86,428.03 485.17,382.93 531.96,389.72 C578.71,397.15 616.06,452.85 616.3,516.59"/>
  <path fill="#ffe000" d="M284.26,335.66 C284.02,417.23 236.34,479.2 176.88,487.07 C117.4,494.38 69.74,446.25 69.5,365.31 C69.74,283.76 117.44,201.7 176.88,193.74 C236.38,186.51 284.02,254.74 284.26,335.66"/>
  <path fill="#802000" d="M169.47,451.98 C178.32,450.75 187.17,449.71 196.28,448.83 C196.36,448.61 197.3,445.63 196.01,443.82 C194.08,442.35 189.31,442.49 190.33,436.41 C193.56,423.88 193.96,427.59 195.99,398.41 C197.97,369.22 198.97,323.67 198.97,323.66 L195.09,324.03 C195.09,324.05 195.77,338.07 193.6,356.73 C191.36,375.36 190.71,377.06 188.24,391.46 C185.78,405.87 185.41,407.13 183.18,415.63 C180.93,424.14 180.72,424.56 177.22,432.64 C173.71,440.71 174.98,437.7 173.05,442.54 C171.96,444.9 171.01,444.57 170.24,446.27 C169.68,448.09 169.47,451.94 169.47,451.98 L169.47,451.98"/>
  <path fill="#7b3100" d="M167.54,453.82 L168.35,451.71 C168.37,451.1 168.42,450.45 168.48,449.75 C168.66,447.94 168.91,446.61 169.23,445.68 C169.46,445.1 169.73,444.62 170.08,444.19 C170.27,443.97 170.55,443.71 170.91,443.42 C171.2,443.18 171.41,442.98 171.53,442.84 C171.73,442.59 171.9,442.29 172.06,441.89 L172.88,439.84 L174.61,435.72 L176.25,431.93 L176.49,431.38 C178.15,427.55 179.21,424.95 179.71,423.57 C180.24,422 181.05,419.22 182.11,415.22 L182.3,414.5 C183.39,410.33 184.15,407.22 184.59,405.17 L187.13,391.22 L188.69,382.36 L190.46,371.92 L192.48,356.58 C193.39,348.88 193.91,341.19 194.05,333.47 C194.1,329.62 194.07,326.55 193.96,324.25 L193.87,322.59 L200.14,322 L200.1,323.61 L199.37,350.08 L197.12,398.45 C196.35,409.5 195.69,417.03 195.15,421.07 C194.87,423.08 194.55,424.89 194.18,426.51 C193.94,427.53 193.53,429.05 192.96,431.08 L191.4,436.82 C191.21,437.59 191.17,438.18 191.24,438.68 C191.32,439.07 191.48,439.39 191.75,439.72 C192.21,440.2 193.07,440.71 194.48,441.29 C195.63,441.77 196.35,442.18 196.74,442.56 C197.68,443.65 198,444.96 197.83,447.04 C197.73,447.91 197.55,448.69 197.31,449.43 L196.99,450.32 C187.27,451.24 177.56,452.38 167.54,453.82 M170.7,450.26 C178.89,449.13 187.07,448.17 195.49,447.35 C195.53,447.17 195.56,446.98 195.58,446.78 C195.66,445.92 195.56,445.43 195.29,445.09 C195.1,444.92 194.6,444.66 193.7,444.29 C192.92,443.98 192.34,443.72 191.95,443.51 C191.23,443.11 190.67,442.68 190.21,442.17 C188.93,440.52 188.64,438.75 189.25,436 L190.85,430.14 C191.4,428.18 191.79,426.72 192.01,425.77 C192.35,424.27 192.65,422.59 192.91,420.71 C193.44,416.77 194.09,409.33 194.85,398.37 L197.09,350.15 L197.79,325.33 L196.3,325.47 C196.36,327.61 196.37,330.22 196.32,333.31 C196.18,341.19 195.65,349.03 194.73,356.87 L192.68,372.33 L190.9,382.88 L189.35,391.7 L186.78,405.81 C186.32,407.93 185.54,411.1 184.43,415.33 L184.24,416.05 C183.16,420.16 182.32,423.04 181.74,424.72 C181.21,426.18 180.12,428.87 178.42,432.79 L178.18,433.34 L176.54,437.13 L174.85,441.13 L174.03,443.19 C173.72,443.95 173.36,444.56 172.94,445.09 C172.69,445.39 172.35,445.71 171.92,446.06 C171.55,446.37 171.34,446.63 171.24,446.86 C171.05,447.43 170.88,448.39 170.74,449.82 L170.7,450.26"/>
  <path fill="#008000" d="M189.93,232.03 C190.12,237.74 189.67,245.21 188.01,251.58 C186.25,258.63 184.45,265.6 184.45,272.69 C181.31,273.48 179.18,265.81 176.12,271.08 C178.26,278.52 182.71,284.12 185.97,290.72 C186.87,293.15 190.62,297.51 188.44,299.56 C181.85,296.79 180.09,286.07 175.97,279.3 C170.92,267.96 162.35,261.18 152.15,262.11 C147.92,262.91 136.8,263.68 139.35,272 C144.09,275.35 149.73,277.3 154.43,281.32 C158.17,281.61 163.73,287.74 163.76,291.1 C157.75,288.56 154.82,285.22 148.33,282.75 C139.15,279.86 127.62,284.94 122.34,298.22 C121.37,302.08 120.21,310.29 122.95,311.18 C126.48,302.96 130.97,294.59 138.22,294.89 C143.51,295.51 132.3,309.61 136.51,306.71 C137.97,305.45 141.3,302.14 143.55,301.18 C145.88,300.68 147.1,302.35 148.87,302.57 C152.44,302.79 153.19,304.29 152.99,305.65 C152.48,307 151.62,306.2 147.96,308.27 C146.27,309.47 145.19,311.55 143.2,313.02 C140.89,314.35 137.05,315.15 135.23,314.77 C129.26,312.74 120.83,315.16 118.65,325.31 C118.35,329.31 116.27,325.81 114.62,327.65 C113.66,332.78 113.39,336.9 108.41,338.15 C105.36,343.33 102.21,348.58 98.39,352.84 C101.58,358.74 108.99,343.05 109.22,348.78 C105.66,357.28 110.89,356.94 113.84,350.83 C118.44,343.08 123.43,334.77 130.26,339.35 C133.62,342.05 135.08,336.81 137.47,336.05 C139.16,340.41 140.62,336.02 142.31,333.93 C145.06,333.46 144.13,337.72 147.37,334.45 C153.9,327.89 161.11,330.89 167.5,324.75 C174.07,320.08 168.55,327.75 166.61,331.01 C163.91,339.24 165.98,348.34 160.01,354.3 C157.75,363.91 162.64,374.6 157.4,382.4 C157.28,386.57 163.99,385.18 166.79,386.4 C170.37,385.31 166.96,374.86 170.5,371.97 C175.93,375 175.4,363.9 174.39,359.78 C174.89,351.06 175.34,341.72 178.38,333.46 C182.09,323.75 184.29,336.23 181.06,340.8 C178.89,350.05 176.07,360.97 180.68,368.8 C181.91,369.38 183.33,373.26 185,374.72 C187.04,375.69 189,374.05 189.7,369.67 C191.92,356.82 190.95,343.46 194.13,330.87 C196.83,327.1 199.36,329.55 201.1,333.09 C205.66,340.07 209.05,348.79 214.53,354.55 C219.68,357.61 223.93,362.07 226.45,369.18 C227.17,374.5 237.22,375.25 234.48,369.07 C231.36,362.97 233.31,357.43 236.7,353.1 C238.41,353.2 238.07,349.68 236.56,351.06 C234.56,349.98 233.93,345.21 237.29,347.37 C242.71,348.99 236.72,342.66 234.98,342.02 C230.45,338.34 225.62,334.33 223.24,327.9 C229.13,327.89 234.9,331.41 240.94,328.9 C245.98,325.69 250.2,328.83 252.14,334.67 C255.67,333.3 254.31,329.28 252.14,327.19 C254.94,325.35 256.48,322.84 253.43,319.77 C252.13,316.25 255.4,312.03 250.79,311.75 C250.83,306.36 249.49,302.2 245.36,300.19 C240.56,296.06 229.78,307.27 229.51,296.98 C228.91,291.49 233.74,295.57 236.13,293.03 C237.2,286.62 228.32,287.97 231.06,282.89 C233.75,280.82 243.13,278.06 235.49,275.94 C231.24,277.47 228.2,276.64 224.81,274.06 C221.3,280.47 214.12,271.36 215.12,282.78 C213.72,287.5 207.11,299.05 204.6,290.67 C206.69,283.58 214.61,280.78 212.34,271.6 C211.53,266.35 208.64,272.21 206.73,272.59 C206.23,268.73 209.1,264.86 211.64,263.48 C216.51,267.32 216.36,257.8 220.93,257.58 C223.88,256.17 220.18,254.83 218.97,253.96 C220.34,250.51 224.42,248.97 219.96,246.16 C215.39,242.67 212.57,250.37 208.87,251.72 C205.93,246.49 211.58,243.8 213.78,240.77 C213.45,238.73 210.31,240.39 211.14,238.52 C212.82,235.95 218.4,235.46 215.84,231.79 C210.71,229.93 204.93,230.88 199.99,234.24 C197.21,236.35 195.99,244.33 193.63,244.87 C192.58,240.54 193.84,233.31 189.93,232.03 L189.93,232.03 M213,318.99 C216.8,318.77 212.99,325.98 211.29,326.7 C210.88,323.6 206.38,324.35 209.34,321.37 C210.5,320.31 211.69,319.51 213,318.99"/>
  <path fill="#ffe000" d="M746,700.66 L752.78,729.35 L773.48,717.96 L761.23,743.62 L780.26,758.22 L758.21,761.75 L761.25,791.61 L746,769.99 L730.75,791.89 L733.79,761.97 L711.74,758.9 L730.77,743.9 L718.52,718.49 L739.22,729.47 L746,700.66"/>
  <path fill="#ffe000" d="M623,427.36 L629.78,456.9 L650.48,448.3 L638.23,472.27 L657.26,489.52 L635.21,490 L638.25,520.27 L623,496.7 L607.75,516.8 L610.79,487.23 L588.74,481.79 L607.77,468.81 L595.52,442.08 L616.22,455.36 L623,427.36"/>
  <path fill="#ffe000" d="M746,252.66 L752.78,281.35 L773.48,269.96 L761.23,295.62 L780.26,310.22 L758.21,313.75 L761.25,343.61 L746,321.99 L730.75,343.89 L733.79,313.97 L711.74,310.9 L730.77,295.9 L718.52,270.49 L739.22,281.47 L746,252.66"/>
  <path fill="#ffe000" d="M855.33,379.75 L862.11,407.21 L882.81,391.94 L870.56,419.93 L889.6,430.86 C882.32,433.58 875.04,436.14 867.54,438.62 L870.58,467.92 L855.33,449.08 L840.09,473.62 L843.12,443.19 C835.84,443.51 828.57,443.69 821.07,443.74 L840.11,425.62 L827.86,402.24 L848.56,409.75 L855.33,379.75"/>
  <path fill="#ffe000" d="M795.2,522.5 L800.56,539.98 L814.7,539.96 L803.87,553.58 L807.25,572.06 L795.2,562.94 L783.15,574.01 L786.53,554.99 L775.7,543.13 L789.84,540.84 L795.2,522.5"/>
  <path fill="#1A1A1A" opacity="0.2" d="M8,195.25 C178.83,110.03 349.03,140.83 521.26,167.28 C676.47,191.12 833.42,211.85 992,132.75 L992,804.75 C821.17,889.97 650.97,859.17 478.74,832.72 C323.53,808.88 166.58,788.15 8,867.25 L8,195.25 M39.25,214.64 L39.25,819.14 C345.81,690.88 650.43,915.18 960.75,785.36 L960.75,180.86 C654.19,309.12 349.57,84.82 39.25,214.64"/>
</svg>
