<svg xmlns="http://www.w3.org/2000/svg" viewBox="0 0 64 64" enable-background="new 0 0 64 64"><circle cx="32" cy="32" r="30" fill="#f5f5f5"/><g fill="#699635"><path d="m12.5 37c0 0-.2 1.4.4 2 .6.6 1.9 1.4 2.4 1.5.5.1-.6-1.8-.6-1.8s-1.5-2-2.2-1.7"/><path d="m12.7 40.4c0 0 .2 1.3 1 1.5.9.2 1.7.1 1.7.1s.1-1.5-2.7-1.6"/><path d="m15.6 37.8c0 0 .9.3.9 1.1 0 .8-.1 1.6-.1 1.6s-.6-.8-.6-1.2c0-.4-.2-1.5-.2-1.5"/><path d="m15.3 42.6c0 0-.1.8.8.8.9 0 .1-1-.8-.8"/><path d="m15.2 43.9c0 0 1-.3 2.1-.1 1.1.2 1.7 1.1 1.7 1.1s-1.2.3-2.6 0c-1.3-.3-1.2-1-1.2-1"/><path d="m15.9 41c0 0 1.4-.4 2.7 2.6 0 0-2.6-.6-2.7-2.6"/><path d="m17.3 40.4c0 0 1.5-.9 2.8 3.1 0 0-1.8-.7-2.8-3.1"/><path d="m19.4 44.1c0 0 1.5-.6 3.5 1.8-3.3-.1-3.5-1.8-3.5-1.8"/><path d="m20.4 43c0 0-.1.9.5.9s.1-1.1-.5-.9"/><path d="m19.3 45.4c0 0-.1.8.4.8s0-1.1-.4-.8"/><path d="m24 47.8c0 0-.1.9.5.9.6 0 .1-1.2-.5-.9"/><path d="m25.4 45.1c0 0-.1.9.5.9s.1-1.2-.5-.9"/><path d="m21.6 43.5c0 0 2.2-.6 3.1 2.2-2.6-.4-3.1-2.2-3.1-2.2"/><path d="m19.7 46.6c0 0 2.5-.6 3.6.2 1.1.8-2.2 1.2-3.6-.2"/><path d="m24 46.6c0 0 1.7-.8 3.5 1-3.5.4-3.5-1-3.5-1"/><path d="m26.8 45.5c0 0 1.7-.5 3.3 2.5-3.7-.5-3.3-2.5-3.3-2.5"/><path d="m29.6 48.8c0 0-1.8 1.3-4.1-.1 0 .1.8-1.5 4.1.1"/><path d="m51.5 36.9c0 0 .2 1.4-.4 2-.6.6-1.9 1.4-2.4 1.5-.5.1.6-1.8.6-1.8s1.5-1.9 2.2-1.7"/><path d="m51.3 40.4c0 0-.2 1.3-1.1 1.5-.9.2-1.7.1-1.7.1s0-1.5 2.8-1.6"/><path d="m48.4 37.7c0 0-.9.3-.9 1.1 0 .8.1 1.6.1 1.6s.6-.8.6-1.2.2-1.5.2-1.5"/><path d="m48.7 42.6c0 0 .1.8-.8.8s-.1-1 .8-.8"/><path d="m48.8 43.8c0 0-1-.3-2.1-.1-1.1.2-1.7 1.1-1.7 1.1s1.2.3 2.6 0c1.3-.3 1.2-1 1.2-1"/><path d="m48.1 41c0 0-1.4-.4-2.7 2.6 0 0 2.6-.7 2.7-2.6"/><path d="m46.7 40.4c0 0-1.5-.9-2.8 3.1 0 0 1.8-.7 2.8-3.1"/><path d="m44.7 44.1c0 0-1.5-.6-3.5 1.8 3.2-.2 3.5-1.8 3.5-1.8"/><path d="m43.6 43c0 0 .1.9-.5.9s-.1-1.2.5-.9"/><path d="m44.7 45.3c0 0 .1.8-.4.8-.5 0 0-1 .4-.8"/><path d="m40 47.8c0 0 .1.9-.5.9-.6 0-.1-1.2.5-.9"/><path d="m38.6 45.1c0 0 .1.9-.5.9-.6 0-.1-1.2.5-.9"/><path d="m42.4 43.5c0 0-2.2-.6-3.1 2.2 2.6-.4 3.1-2.2 3.1-2.2"/><path d="m44.3 46.5c0 0-2.5-.6-3.6.2-1.1.9 2.2 1.3 3.6-.2"/><path d="m40 46.6c0 0-1.7-.8-3.5 1 3.5.4 3.5-1 3.5-1"/><path d="m37.2 45.5c0 0-1.7-.5-3.3 2.5 3.7-.5 3.3-2.5 3.3-2.5"/><path d="m34.4 48.8c0 0 1.8 1.3 4.1-.1 0 .1-.8-1.5-4.1.1"/><path d="m31.7 49.5c0 0-1.3 1.7-1.3 1.5 0-.2-.9-.9-.9-.9l1.5-1.1-.6-.3.3-.4 1.1.5"/><path d="m32 49.5c0 0 1.3 1.7 1.3 1.5 0-.2.9-.9.9-.9l-1.5-1.1.6-.3-.3-.4-1.1.5"/><path d="m31.6 49.6h.5"/></g><path d="m18 29.5c0 0 .4 1.1.9 1.1s1.8.1 1.8.1.7-.1.9-.7c.2-.6.8-3.1 3.8-1.6 3 1.5 3.2-2.6 3.2-2.6l-.5-.7.1-1.4c0 0 1.6 1.1 2.7 1.1 1-.1 1.8.3 2.1.3.3 0 1.4.3 1.4.3l2.7.1c0 0 .4-.4.9-.3.4.1.4-.3 1.3-.3.8 0 1.6-1 1.6-1s.2-.2 1.4 0c0 0 .8-.7 2-1 1.2-.4 1-.9 1-.9s.9-.2 1.3-.1c.4.1.6-.7.6-.7l.9-.1.4-.5.9-.2c0 0 1.1-.8 1.3-1.3.2-.5 1.4-.1 1.4-.1s.5-.5.6-.8c.1-.3.5-.1.5-.1l-.1.9-.6.3v.5h-.9l-.1.5-.8.1-.1.7-.2.3-.2.1h-.5l-.2.3-.5.6-.4.5-.8-.1-.5.7h-.3l-.5.8-.4.5-.2.3-.4.1-.1.4-.7.2-.8.2-.3.4c0 0-.9 1.9.1 2.5 1 .7 1 1.4 1 1.4l.5.3.4.7.2.8c0 0-.2.1-.4.1-.3-.2-.7-.2-.7-.2l-.4-.4-.8-.1-.5.5c0 0-.2.3-.2.5s-.1.2-.4 0-.7-.4-.7-.4l-.6-.1-.1-.3-.4.2c0 0-.1.3-.3.2-.2-.1-.4-.1-.4-.1h-.4c0 0-.9.7-.8 2.8l-1 .2-.5.4-.2.3h-.7l-.3.3-.7.3-.3.4-1 .1-.3.2-.2.4-.6-.4-.8-.2-.7.2c0 0-.2.1-.4.2-.2.2-.8.3-.8.3s-.4.1-.4.3c0 .2-.1.6-.1.6v.8c0 0-.1.5-.5.5-.4 0-.3 0-.5-.1-.2-.1-.2-.5-.2-.5v-.6l-.9-.8-.6-.2-.6.1-.5.3-.5.3c0 0 .1.4-.3.1s-.7-.3-.7-.3l-.5-.3-.7-.2-.5-.6-1.3-.1-1.1-1.3-.3-.3-.1-1-.7-.1v-.5l-.3-.5.1-1-.7-.3-.3-.9v-1.4" fill="#ff8736"/></svg>