<svg xmlns="http://www.w3.org/2000/svg" viewBox="0 0 64 64" enable-background="new 0 0 64 64"><g fill="#ffce31"><path d="m61.7 28c-.1-1-.3-2-.6-3h-58.3c-.2 1-.4 2-.6 3h59.5"/><path d="m2.3 36c.1 1 .3 2 .6 3h58.3c.2-1 .4-2 .6-3h-59.5"/><path d="m20 4.5c-1 .5-2 1-3 1.5v52c1 .6 2 1.1 3 1.5v-55"/><path d="m28 2.3v59.5c1 .1 2 .2 3 .3v-60.1c-1 0-2 .1-3 .3"/></g><g fill="#ed4c5c"><path d="m2 32c0 1.4.1 2.7.3 4h59.5c.2-1.3.3-2.6.3-4 0-1.4-.1-2.7-.3-4h-59.5c-.2 1.3-.3 2.6-.3 4"/><path d="m20 59.5c2.5 1.1 5.2 1.9 8 2.2v-59.4c-2.8.4-5.5 1.1-8 2.2v55"/></g><g fill="#2a5f9e"><path d="M17,25V6C10,10.1,4.8,16.9,2.8,25H17z"/><path d="M17,39v19C10,53.9,4.8,47.1,2.8,39H17z"/><path d="M32,2c-0.3,0-0.7,0-1,0v23h30.2C58,11.8,46.2,2,32,2z"/><path d="m31 39v23c.3 0 .7 0 1 0 14.2 0 26-9.8 29.2-23h-30.2"/></g></svg>