<svg xmlns="http://www.w3.org/2000/svg" viewBox="0 0 1000 1000">
  <defs/>
  <path fill="#f93" d="M8,195.25 C178.83,110.03 349.03,140.83 521.26,167.28 C676.47,191.12 833.42,211.85 992,132.75 L992,804.75 C821.17,889.97 650.97,859.17 478.74,832.72 C323.53,808.88 166.58,788.15 8,867.25 L8,195.25"/>
  <path fill="#fff" d="M8,419.25 C178.83,334.03 349.03,364.83 521.26,391.28 C676.47,415.12 833.42,435.85 992,356.75 L992,580.75 C821.17,665.97 650.97,635.17 478.74,608.72 C323.53,584.88 166.58,564.15 8,643.25 L8,419.25"/>
  <path fill="#128807" d="M8,643.25 C178.83,558.03 349.03,588.83 521.26,615.28 C676.47,639.12 833.42,659.85 992,580.75 L992,804.75 C821.17,889.97 650.97,859.17 478.74,832.72 C323.53,808.88 166.58,788.15 8,867.25 L8,643.25"/>
  <path fill="#008" d="M587.47,512.94 C587.18,562.78 548.54,596.83 500,589.6 C451.5,581.8 412.81,536.62 412.53,487.06 C412.82,437.22 451.46,403.17 500,410.4 C548.5,418.2 587.19,463.38 587.47,512.94"/>
  <path fill="#fff" d="M576.53,511.44 C576.25,555.04 542.5,584.69 500,578.4 C457.54,571.54 423.75,531.98 423.47,488.56 C423.75,444.96 457.5,415.31 500,421.6 C542.46,428.46 576.25,468.02 576.53,511.44"/>
  <path fill="#008" d="M515.31,502.37 C515.03,511.21 508.68,516.74 500,515.68 C491.36,514.06 484.97,506.52 484.69,497.63 C484.97,488.79 491.32,483.26 500,484.32 C508.64,485.94 515.03,493.48 515.31,502.37"/>
  <path fill="#008" d="M579.67,522.62 C579.2,524.83 577.64,525.84 575.38,525.4 C573.19,524.62 571.97,522.81 572.09,520.54 C572.56,518.35 574.12,517.34 576.38,517.77 C578.57,518.56 579.79,520.35 579.67,522.62"/>
  <path fill="#008" d="M500,578.4 L502.62,531.77 L502.31,529 L500,508.96 L499.68,511.63 L497.38,530.95 L500,578.4"/>
  <path fill="#008" d="M574.24,542.63 C573.21,544.54 571.4,545.06 569.24,544.04 C567.25,542.71 566.49,540.71 567.17,538.63 C568.2,536.72 570.02,536.2 572.17,537.22 C574.17,538.54 574.93,540.54 574.24,542.63"/>
  <path fill="#008" d="M480.19,572.67 L494.61,530.15 L497.36,510.95 L497.73,508.3 L496.74,510.69 L489.54,527.98 L480.19,572.67"/>
  <path fill="#008" d="M563.75,559.75 C562.24,561.24 560.28,561.23 558.39,559.7 C556.72,557.91 556.46,555.85 557.68,554.1 C559.19,552.61 561.15,552.62 563.05,554.15 C564.71,555.93 564.97,558 563.75,559.75"/>
  <path fill="#008" d="M461.73,562.02 L486.97,526.49 L494.58,509.43 L495.63,507.08 L482.42,523.1 L461.73,562.02"/>
  <path fill="#008" d="M548.92,572.78 C547.04,573.75 545.06,573.19 543.55,571.25 C542.33,569.13 542.59,567.16 544.26,565.86 C546.15,564.9 548.12,565.45 549.63,567.39 C550.85,569.5 550.59,571.48 548.92,572.78"/>
  <path fill="#008" d="M445.88,547.2 L480.21,521.02 L493.82,505.38 L476.5,516.65 L445.88,547.2"/>
  <path fill="#008" d="M530.75,580.79 C528.62,581.17 526.77,580.1 525.75,577.91 C525.06,575.59 525.82,573.84 527.82,573.1 C529.95,572.72 531.8,573.78 532.82,575.98 C533.52,578.29 532.76,580.04 530.75,580.79"/>
  <path fill="#008" d="M433.72,529.2 L474.8,514.12 L492.43,503.31 L489.97,504 L472.18,509.06 L433.72,529.2"/>
  <path fill="#008" d="M510.49,583.24 C508.26,583.01 506.67,581.51 506.2,579.2 C506.08,576.87 507.28,575.46 509.49,575.31 C511.72,575.54 513.32,577.04 513.78,579.35 C513.9,581.68 512.7,583.1 510.49,583.24"/>
  <path fill="#008" d="M426.07,509.21 L471.11,506.26 L489.07,501.65 L491.55,501.01 L472.39,500.88 L469.75,500.86 L426.07,509.21"/>
  <path fill="#008" d="M489.51,579.99 C487.32,579.18 486.1,577.35 486.22,575.09 C486.69,572.89 488.25,571.91 490.51,572.38 C492.69,573.19 493.92,575.01 493.8,577.28 C493.33,579.48 491.77,580.46 489.51,579.99"/>
  <path fill="#008" d="M423.47,488.56 L469.39,497.97 L472.04,498.05 L491.25,498.65 L472.04,493.33 L469.39,492.6 L423.47,488.56"/>
  <path fill="#008" d="M469.25,571.32 C467.26,569.97 466.49,567.96 467.18,565.88 C468.21,563.98 470.02,563.48 472.18,564.52 C474.17,565.87 474.93,567.88 474.25,569.96 C473.22,571.86 471.4,572.36 469.25,571.32"/>
  <path fill="#008" d="M426.07,468.63 L469.75,489.82 L472.39,490.61 L491.55,496.37 L473.59,486.23 L471.11,484.84 L426.07,468.63"/>
  <path fill="#008" d="M451.08,557.84 C449.41,556.05 449.16,553.99 450.37,552.24 C451.89,550.75 453.85,550.78 455.74,552.31 C457.41,554.11 457.66,556.17 456.45,557.92 C454.94,559.4 452.97,559.38 451.08,557.84"/>
  <path fill="#008" d="M433.72,450.8 L472.18,482.36 L474.63,483.81 L492.43,494.35 L476.94,480.07 L474.8,478.1 L433.72,450.8"/>
  <path fill="#008" d="M436.25,540.48 C435.02,538.36 435.28,536.39 436.95,535.08 C438.84,534.1 440.81,534.65 442.32,536.59 C443.54,538.7 443.28,540.67 441.61,541.98 C439.73,542.95 437.75,542.4 436.25,540.48"/>
  <path fill="#008" d="M445.88,436.33 L476.5,476.1 L478.6,478.11 L493.82,492.71 L481.86,475.27 L480.21,472.87 L445.88,436.33"/>
  <path fill="#008" d="M425.76,520.38 C425.06,518.08 425.82,516.32 427.83,515.55 C429.96,515.14 431.81,516.19 432.83,518.38 C433.52,520.68 432.76,522.43 430.76,523.2 C428.62,523.6 426.78,522.56 425.76,520.38"/>
  <path fill="#008" d="M461.73,426.23 L482.42,471.47 L484.02,473.9 L495.63,491.56 L488.02,472.16 L486.97,469.48 L461.73,426.23"/>
  <path fill="#008" d="M420.33,498.86 C420.21,496.54 421.41,495.1 423.62,494.92 C425.86,495.12 427.45,496.59 427.91,498.9 C428.03,501.23 426.83,502.66 424.62,502.84 C422.39,502.64 420.8,501.17 420.33,498.86"/>
  <path fill="#008" d="M480.19,421.21 L489.54,468.79 L490.54,471.48 L497.73,490.99 L494.99,470.94 L494.61,468.18 L480.19,421.21"/>
  <path fill="#008" d="M420.33,477.38 C420.8,475.17 422.36,474.16 424.62,474.6 C426.81,475.38 428.03,477.19 427.91,479.46 C427.44,481.65 425.88,482.66 423.62,482.23 C421.43,481.44 420.21,479.65 420.33,477.38"/>
  <path fill="#008" d="M500,421.6 L497.38,468.23 L497.69,471 L500,491.04 L500.32,488.37 L502.62,469.05 L500,421.6"/>
  <path fill="#008" d="M425.76,457.37 C426.79,455.46 428.6,454.94 430.76,455.96 C432.75,457.29 433.51,459.29 432.83,461.37 C431.8,463.28 429.98,463.8 427.83,462.78 C425.83,461.46 425.07,459.46 425.76,457.37"/>
  <path fill="#008" d="M519.81,427.33 L505.39,469.85 L502.64,489.05 L502.27,491.7 L503.26,489.31 L510.46,472.02 L519.81,427.33"/>
  <path fill="#008" d="M436.25,440.25 C437.76,438.76 439.72,438.77 441.61,440.3 C443.28,442.09 443.54,444.15 442.32,445.9 C440.81,447.39 438.85,447.38 436.95,445.85 C435.28,444.07 435.03,442 436.25,440.25"/>
  <path fill="#008" d="M538.27,437.98 L513.03,473.51 L505.42,490.57 L504.37,492.92 L517.58,476.9 L538.27,437.98"/>
  <path fill="#008" d="M451.08,427.22 C452.96,426.25 454.94,426.81 456.45,428.75 C457.67,430.87 457.41,432.84 455.74,434.14 C453.85,435.1 451.88,434.55 450.37,432.61 C449.15,430.5 449.41,428.52 451.08,427.22"/>
  <path fill="#008" d="M554.12,452.8 L519.79,478.98 L506.18,494.62 L523.5,483.35 L554.12,452.8"/>
  <path fill="#008" d="M469.25,419.21 C471.38,418.83 473.23,419.9 474.25,422.09 C474.94,424.41 474.18,426.16 472.18,426.9 C470.05,427.28 468.2,426.22 467.18,424.02 C466.48,421.71 467.24,419.96 469.25,419.21"/>
  <path fill="#008" d="M566.28,470.8 L525.2,485.88 L507.57,496.69 L510.03,496 L527.82,490.94 L566.28,470.8"/>
  <path fill="#008" d="M489.51,416.76 C491.74,416.99 493.33,418.49 493.8,420.8 C493.92,423.13 492.72,424.54 490.51,424.69 C488.28,424.46 486.68,422.96 486.22,420.65 C486.1,418.32 487.3,416.9 489.51,416.76"/>
  <path fill="#008" d="M573.93,490.79 L528.89,493.74 L510.93,498.35 L508.45,498.99 L527.61,499.12 L530.25,499.14 L573.93,490.79"/>
  <path fill="#008" d="M510.49,420.01 C512.68,420.82 513.9,422.65 513.78,424.91 C513.31,427.11 511.75,428.09 509.49,427.62 C507.31,426.81 506.08,424.99 506.2,422.72 C506.67,420.52 508.23,419.54 510.49,420.01"/>
  <path fill="#008" d="M576.53,511.44 L530.61,502.03 L527.96,501.95 L508.75,501.35 L527.96,506.67 L530.61,507.4 L576.53,511.44"/>
  <path fill="#008" d="M530.75,428.68 C532.74,430.03 533.51,432.04 532.82,434.12 C531.79,436.02 529.98,436.52 527.82,435.48 C525.83,434.13 525.07,432.12 525.75,430.04 C526.78,428.14 528.6,427.64 530.75,428.68"/>
  <path fill="#008" d="M573.93,531.37 L530.25,510.18 L527.61,509.39 L508.45,503.63 L526.41,513.77 L528.89,515.16 L573.93,531.37"/>
  <path fill="#008" d="M548.92,442.16 C550.59,443.95 550.84,446.01 549.63,447.76 C548.11,449.25 546.15,449.22 544.26,447.69 C542.59,445.89 542.34,443.83 543.55,442.08 C545.06,440.6 547.03,440.62 548.92,442.16"/>
  <path fill="#008" d="M566.28,549.2 L527.82,517.64 L525.37,516.19 L507.57,505.65 L523.06,519.93 L525.2,521.9 L566.28,549.2"/>
  <path fill="#008" d="M563.75,459.52 C564.98,461.64 564.72,463.61 563.05,464.92 C561.16,465.9 559.19,465.35 557.68,463.41 C556.46,461.3 556.72,459.33 558.39,458.02 C560.27,457.05 562.25,457.6 563.75,459.52"/>
  <path fill="#008" d="M554.12,563.67 L523.5,523.9 L521.4,521.89 L506.18,507.29 L518.14,524.73 L519.79,527.13 L554.12,563.67"/>
  <path fill="#008" d="M574.24,479.62 C574.94,481.92 574.18,483.68 572.17,484.45 C570.04,484.86 568.19,483.81 567.17,481.62 C566.48,479.32 567.24,477.57 569.24,476.8 C571.38,476.4 573.22,477.44 574.24,479.62"/>
  <path fill="#008" d="M538.27,573.77 L517.58,528.53 L515.98,526.1 L504.37,508.44 L511.98,527.84 L513.03,530.52 L538.27,573.77"/>
  <path fill="#008" d="M579.67,501.14 C579.79,503.46 578.59,504.9 576.38,505.07 C574.14,504.88 572.55,503.41 572.09,501.1 C571.97,498.77 573.17,497.34 575.38,497.16 C577.61,497.36 579.2,498.83 579.67,501.14"/>
  <path fill="#008" d="M519.81,578.79 L510.46,531.21 L509.46,528.52 L502.27,509.01 L505.01,529.06 L505.39,531.82 L519.81,578.79"/>
  <path fill="#1A1A1A" opacity="0.2" d="M8,195.25 C178.83,110.03 349.03,140.83 521.26,167.28 C676.47,191.12 833.42,211.85 992,132.75 L992,804.75 C821.17,889.97 650.97,859.17 478.74,832.72 C323.53,808.88 166.58,788.15 8,867.25 L8,195.25 M39.25,214.64 L39.25,819.14 C345.81,690.88 650.43,915.18 960.75,785.36 L960.75,180.86 C654.19,309.12 349.57,84.82 39.25,214.64"/>
</svg>
