<svg xmlns="http://www.w3.org/2000/svg" viewBox="0 0 1000 1000">
  <defs/>
  <path fill="#cf142b" d="M8,195.25 C178.83,110.03 349.03,140.83 521.26,167.28 C676.47,191.12 833.42,211.85 992,132.75 L992,804.75 C821.17,889.97 650.97,859.17 478.74,832.72 C323.53,808.88 166.58,788.15 8,867.25 L8,195.25"/>
  <path fill="#f9dd16" d="M378.59,429.83 C379.1,430.45 383.24,434.21 383.35,434.26 C383.63,434.16 394.51,432.09 394.6,432.09 C394.41,432.39 388.64,441.58 388.59,441.86 C388.79,442.15 395.14,453 395.24,453.15 C391.29,452.57 387.36,451.31 383.46,450.38 L375.58,458.15 L373.81,446.68 L363.75,440.72 C366.37,439.23 369.39,438.6 372.24,437.63 L374.82,428.73 C374.88,428.75 378.1,429.84 378.59,429.83"/>
  <path fill="#000" d="M379.18,429.12 C379.33,429.32 380.09,430.08 381.5,431.41 C382.11,431.98 382.62,432.44 383.02,432.79 C383.22,432.97 383.38,433.09 383.48,433.17 L383.49,433.18 C384.48,432.85 386.25,432.42 388.85,431.91 L392.71,431.2 L393.99,431 C394.15,430.97 394.28,430.96 394.37,430.95 C394.44,430.95 394.5,430.95 394.54,430.95 C394.62,430.96 394.7,430.98 394.77,431.01 C394.93,431.08 395.06,431.19 395.18,431.37 C395.46,431.82 395.5,432.2 395.33,432.69 C395.28,432.79 394.93,433.36 394.25,434.4 L391,439.45 C390.42,440.38 389.99,441.1 389.7,441.61 L389.58,441.82 L393.4,448.31 L395.09,451.22 L395.63,452.13 L395.62,452.21 C395.72,452.3 395.81,452.41 395.89,452.56 C396.13,453.08 396.13,453.46 395.89,453.92 C395.75,454.14 395.6,454.24 395.38,454.28 C395.33,454.28 395.28,454.28 395.23,454.28 C395.19,454.27 395.15,454.26 395.09,454.25 L394.72,454.18 L393.39,453.87 L389.33,452.91 L383.72,451.57 L375.06,460.11 L373.11,447.45 L368.5,444.73 L363.42,441.71 L363.37,441.67 C363.1,441.42 362.97,441.14 362.93,440.7 C362.92,440.4 362.98,440.17 363.11,439.95 C363.17,439.85 363.24,439.77 363.33,439.7 C363.37,439.67 363.42,439.64 363.48,439.61 C363.55,439.57 363.65,439.53 363.78,439.47 C364,439.38 364.32,439.26 364.74,439.1 L367.67,438.04 L371.61,436.67 L374.29,427.39 L374.97,427.64 C377.08,428.43 378.16,428.74 378.34,428.74 L378.83,428.58 L379.18,429.12 M378.32,430.93 C377.72,430.83 376.74,430.55 375.34,430.06 L372.87,438.6 L372.5,438.72 L368.19,440.22 L366.15,440.95 L369.05,442.68 L374.52,445.92 L376.1,456.2 L383.21,449.19 L383.54,449.27 L389.47,450.69 L393.32,451.61 L392.16,449.6 L388.21,442.81 C387.77,442.4 387.66,441.97 387.82,441.28 C387.85,441.17 387.9,441.05 387.96,440.9 C388.05,440.71 388.19,440.46 388.37,440.14 C388.67,439.6 389.12,438.86 389.72,437.9 L392.53,433.52 L389.21,434.14 L385.35,434.92 L384.07,435.21 L384.08,434.87 C383.78,435.5 383.44,435.57 382.8,435.12 C382.66,435.02 382.47,434.87 382.23,434.66 C381.81,434.3 381.28,433.82 380.66,433.23 C379.52,432.17 378.74,431.4 378.32,430.93 M383.48,433.18 C383.08,433.03 382.85,433.15 382.62,433.66 C382.7,433.53 382.95,433.38 383.48,433.18 M389.37,441.48 C389.29,441.26 389.17,441.09 388.96,440.91 C389.01,440.96 389.15,441.14 389.37,441.48 M394.51,453.6 C394.53,453.65 394.56,453.7 394.58,453.75 C394.66,453.89 394.75,454 394.86,454.1 C394.82,454.06 394.7,453.9 394.51,453.6"/>
  <path fill="#fff" d="M523.72,472.76 C523.54,463.2 510.07,418.28 507.8,411.23 C503.63,403.34 499.24,391.4 497.26,381.27 C495.88,371 492.17,363.07 486.68,359.34 C480.18,353.93 474.37,354.59 468.29,354.44 C465.25,355.01 463.11,356.54 461.5,359.56 C458.16,365.24 456.67,364.68 454.34,366.95 C436.07,368.28 418.96,378.48 405.77,385.59 C398.71,391.26 392.99,394.24 390.2,394.83 C382.71,393.68 377.56,388.69 374.84,385.72 L349.69,351.88 C342,344.21 340.96,354.04 342.02,356.11 C344.33,363.56 339.35,367.12 359.14,394.84 L366.69,416.82 C366.68,416.96 366.47,422.41 366.62,422.86 C370.61,435.01 375.78,432.85 378.78,429.78 L384.7,423.1 C384.82,423.07 396.23,419.28 396.63,419.01 C409.46,422.95 441.43,419.17 447.02,416.59 C451.99,413.85 452.01,416.58 456.33,412.77 C459.85,410.18 457.9,412.34 464.35,405.28 C466.57,403.62 467.76,406.98 468.28,409.96 C468.67,435.03 470.87,451.36 472.56,476.56 L500,500 L523.72,472.76"/>
  <path fill="#000" d="M524.79,473.55 L500.19,501.79 L471.55,477.34 L471.49,476.53 L469.72,453.58 C468.23,435.64 467.4,421.11 467.22,409.95 C467,408.6 466.66,407.58 466.15,406.73 C465.77,406.18 465.48,406.11 465.06,406.47 C461.78,410.05 459.67,412.11 458.71,412.8 C458.11,413.2 457.53,413.61 456.96,414.03 C455.22,415.61 453.65,416.37 451.77,416.55 C450.28,416.68 448.95,417.11 447.54,417.94 L447.51,417.96 L447.48,417.98 C444.06,419.59 436.61,420.84 424.71,421.77 C411.74,422.7 402.51,422.28 396.61,420.47 C394.92,421.26 391.16,422.59 385.25,424.46 L382.4,427.67 L379.49,430.95 C377.25,433.25 375.39,433.95 372.93,433.47 C369.77,432.44 367.58,429.45 365.64,423.32 L365.72,423.29 C365.47,422.15 365.41,420.1 365.6,416.98 L361.95,406.36 L358.26,395.63 C348.08,381.36 342.74,370.17 341.84,361.28 C341.66,359.38 341.42,357.94 341.13,356.9 C339.73,354.62 339.9,352.5 341.78,349.31 C344.06,346.25 346.39,346.65 350.33,350.77 L350.37,350.82 L363.39,368.29 L375.51,384.66 C380.38,389.87 384.97,392.58 390.08,393.36 C393.61,392.59 398.49,389.7 405.16,384.31 L405.23,384.26 L405.3,384.22 L410.1,381.6 C428.57,371.57 443.03,366.37 453.88,365.51 C454.41,365.01 455.09,364.48 455.94,363.93 C457.73,362.69 459.2,361.03 460.6,358.63 C462.37,355.26 464.55,353.62 468.07,352.98 L468.13,352.97 L468.2,352.98 L470.72,353.02 C477.99,353.18 483.13,354.79 487.11,358.07 C493.18,362.18 496.76,369.49 498.3,381.12 C500.33,391.53 503.74,401.22 508.63,410.45 L508.71,410.59 L508.77,410.76 C511.26,418.47 514.2,428.43 517.61,440.66 C522.4,457.97 524.73,468.66 524.79,472.93 L524.79,473.55 M522.64,471.99 C522.38,467.7 520.09,457.55 515.63,441.43 C512.26,429.34 509.35,419.48 506.89,411.86 C501.84,402.3 498.32,392.27 496.23,381.48 L496.22,381.41 L496.21,381.35 C494.81,370.78 491.66,364.26 486.33,360.65 L486.26,360.61 L486.19,360.54 C482.59,357.57 477.82,356.1 470.94,355.95 L468.45,355.91 C465.57,356.45 463.83,357.76 462.41,360.45 L462.39,360.49 L462.37,360.52 C460.77,363.27 459.08,365.18 457.01,366.6 C456.14,367.17 455.5,367.68 455.05,368.15 L454.82,368.4 L454.5,368.42 C443.85,369.19 429.49,374.33 411.05,384.34 L406.31,386.91 C399.37,392.51 394.22,395.51 390.42,396.28 L390.31,396.3 L390.2,396.28 C384.57,395.48 379.51,392.51 374.21,386.83 L374.17,386.77 L361.95,370.29 L349.01,352.94 C346.25,350.05 344.76,349.61 343.43,351.31 C342.32,353.13 342.14,354.17 342.71,355.06 L342.89,355.28 L342.98,355.58 C343.4,356.92 343.73,358.74 343.96,361.12 C344.8,369.34 349.96,380 359.87,393.85 L360.01,394.05 L363.87,405.28 L367.78,416.67 L367.75,417.08 L367.59,419.93 C367.56,420.75 367.55,421.4 367.55,421.88 C367.55,422.04 367.56,422.17 367.57,422.27 L367.61,422.4 C369.22,427.45 370.84,429.77 373.16,430.6 C374.95,430.95 376.35,430.39 378.07,428.61 L380.96,425.35 L384.16,421.75 L384.38,421.68 L390.27,419.79 L394.34,418.42 C394.92,418.21 395.36,418.04 395.67,417.91 L395.68,418.22 L396.04,417.34 L396.79,417.59 C402.47,419.36 411.52,419.77 424.38,418.84 C436.04,417.94 443.29,416.74 446.54,415.23 C448.17,414.28 449.71,413.78 451.45,413.63 C452.95,413.48 454.22,412.85 455.66,411.54 L455.7,411.5 L455.74,411.46 C456.35,411.01 456.97,410.57 457.62,410.13 C458.46,409.52 460.45,407.56 463.64,404.09 L463.65,404.08 L463.66,404.07 C465.2,402.67 466.28,402.91 467.7,404.95 C468.5,406.3 469.02,407.85 469.33,409.84 L469.35,409.97 L469.35,410.09 C469.52,421.17 470.34,435.66 471.84,453.57 L473.56,475.78 L499.81,498.2 L522.64,471.99"/>
  <path fill="#f9dd16" d="M365.26,374.46 C365.27,374.86 360.75,395.46 360.72,395.56 L356.35,389.01 L359.44,366.98 L365.26,374.46"/>
  <path fill="#000" d="M366.3,374.03 L366.17,374.86 C365.45,379.59 364.95,382.49 364.7,383.57 C364.32,385.63 364.02,387.49 363.81,389.17 L363.8,389.24 L363.78,389.3 L363.32,391.66 L362.67,394.79 C362.53,396.32 362.26,398.14 361.87,400.26 L360.07,399.46 C360.46,397.38 360.71,395.64 360.84,394.2 L360.85,394.09 L360.88,393.98 C361.06,393.18 361.27,392.14 361.52,390.85 L361.99,388.49 C362.21,386.75 362.52,384.83 362.92,382.71 L362.93,382.67 L362.94,382.62 C363.15,381.68 363.64,378.87 364.36,374.16 L364.49,373.33 L366.3,374.03 M358.77,362.69 C359.07,363.66 359.28,364.96 359.36,366.68 L359.37,366.83 L359.35,366.97 L359.16,369.08 C358.92,371.94 358.7,373.75 358.54,374.55 C358.23,376.41 358,378.1 357.84,379.61 L357.84,379.69 L357.82,379.76 L357.44,381.89 C357.25,383.04 357.07,383.99 356.92,384.73 C356.83,386.13 356.63,387.78 356.31,389.71 L354.5,388.98 C354.81,387.11 355,385.53 355.08,384.23 L355.09,384.1 L355.11,383.98 C355.26,383.27 355.44,382.33 355.64,381.16 L356.01,379.02 C356.18,377.44 356.42,375.69 356.74,373.77 L356.74,373.71 L356.76,373.66 C356.88,373.05 357.08,371.38 357.32,368.61 L357.51,366.5 C357.44,365.19 357.3,364.25 357.1,363.63 L358.77,362.69"/>
  <path fill="#000" d="M438.66,370.43 C441.46,375.22 443.46,380.91 444.76,387.86 C445.82,394.02 446.04,399.28 445.48,403.9 L443.87,403.27 C444.39,398.96 444.17,394.02 443.17,388.17 C441.94,381.59 440.06,376.24 437.44,371.75 L438.66,370.43"/>
  <path fill="#000" d="M416.07,421.35 C415.83,421.84 415.6,422.02 415.24,421.98 C414.8,421.86 414.56,421.51 414.39,420.73 C414.29,420.24 414.18,419.77 414.05,419.31 C413.62,418.41 413.35,417.05 413.25,415.03 C413.18,412.77 413.4,411.06 413.89,409.66 C414.43,407.89 414.95,406.36 415.46,405.07 C415.55,404.86 415.71,404.61 415.95,404.31 C416.07,404.16 416.13,404.08 416.14,404.06 L417.6,405.29 C417.51,405.5 417.35,405.75 417.11,406.05 C416.99,406.2 416.93,406.28 416.92,406.3 C416.43,407.54 415.93,409.01 415.41,410.74 L415.39,410.79 L415.37,410.84 C414.99,411.89 414.83,413.25 414.88,415.12 C414.96,416.75 415.13,417.7 415.36,418.15 L415.45,418.29 L415.5,418.47 C415.69,419.08 415.85,419.71 415.97,420.36 L416,420.5 C415.87,420.05 415.67,419.84 415.3,419.75 C415.02,419.71 414.86,419.74 414.74,419.87 L415.46,420.48 L416.18,421.09 L416.14,421.2 L416.12,421.25 L416.08,421.35 L416.07,421.35"/>
  <path fill="#000" d="M374.11,386.01 L374.04,386.2 L374.01,386.28 L373.79,386.83 L373.58,387.34 C373.37,387.87 373.03,388.61 372.56,389.56 C372.19,390.3 371.93,390.85 371.78,391.2 C371.59,391.68 371.26,392.34 370.79,393.2 C370.36,393.97 370.07,394.56 369.91,394.96 L369.88,395.03 L369.85,395.09 C369.64,395.47 369.33,396.12 368.92,397.05 C368.48,398.03 368.14,398.75 367.89,399.21 C367.68,399.69 367.36,400.33 366.95,401.13 C366.46,402.06 366.11,402.8 365.88,403.36 L365.88,403.37 L365.87,403.39 C365.74,403.69 365.57,404.04 365.36,404.45 L364.27,406.74 L362.84,405.49 C363.08,404.9 363.39,404.24 363.78,403.48 L363.98,403.1 L364.44,402.13 C364.7,401.51 365.08,400.71 365.59,399.72 C366,398.95 366.29,398.34 366.48,397.91 L366.5,397.86 L366.53,397.81 C366.75,397.41 367.07,396.73 367.5,395.77 C367.92,394.83 368.25,394.14 368.48,393.7 C368.68,393.22 369,392.57 369.45,391.75 C369.88,390.98 370.17,390.39 370.34,389.98 C370.51,389.58 370.79,388.98 371.18,388.19 C371.63,387.3 371.94,386.62 372.13,386.15 L372.33,385.64 L372.55,385.08 L372.58,385.01 L372.58,385.01 L372.66,384.82 L372.67,384.82 C372.95,384.36 373.22,384.31 373.69,384.66 C374.12,385.05 374.24,385.43 374.11,386 L374.11,386.01"/>
  <path fill="#000" d="M352.8,355.59 C353.12,356.5 353.35,357.72 353.47,359.32 L353.48,359.46 L353.47,359.6 L353.33,361.56 C353.17,364.22 353,365.91 352.86,366.66 C352.61,368.38 352.43,369.95 352.31,371.36 L352.31,371.43 L352.29,371.5 L351.98,373.48 C351.82,374.54 351.67,375.42 351.54,376.1 C351.48,377.41 351.33,378.95 351.06,380.74 L349.46,380.14 C349.71,378.41 349.86,376.94 349.9,375.73 L349.91,375.61 L349.93,375.49 C350.06,374.83 350.21,373.96 350.37,372.88 L350.69,370.9 C350.81,369.42 351,367.8 351.26,366.01 L351.27,365.96 L351.28,365.92 C351.39,365.35 351.54,363.79 351.7,361.21 L351.83,359.26 C351.73,358.02 351.57,357.12 351.35,356.51 L352.8,355.59"/>
  <path fill="#000" d="M377.05,410.74 C376.48,409.9 375.95,409.55 375.24,409.51 C375,409.51 374.79,409.5 374.63,409.47 C373.35,409.76 372.13,410.66 370.59,412.52 C370.03,413.29 369.35,414.12 368.54,415.03 C368.26,415.53 367.91,416.01 367.46,416.49 L367.3,416.66 L366.23,414.85 L366.4,414.67 C366.76,414.28 367.03,413.91 367.22,413.54 L367.28,413.42 L367.37,413.32 C368.18,412.42 368.85,411.6 369.4,410.86 L369.41,410.84 L369.42,410.82 C371.26,408.6 372.76,407.54 374.43,407.22 L374.53,407.21 L374.64,407.23 C374.73,407.25 374.88,407.26 375.11,407.26 C376.37,407.34 377.27,407.93 378.24,409.33 L377.05,410.74"/>
  <path fill="#000" d="M481.68,358.52 L480.99,357.93 L480.27,357.3 L480.31,357.19 L480.32,357.17 L480.33,357.14 L480.37,357.04 L480.38,357.04 C480.65,356.51 480.9,356.35 481.29,356.45 C481.75,356.65 481.96,357.06 482.03,357.92 C482.06,358.46 482.11,358.99 482.18,359.5 C482.3,359.98 482.43,360.6 482.58,361.35 C482.73,362.18 482.89,362.83 483.02,363.3 L481.52,363.96 C481.35,363.38 481.17,362.62 480.99,361.68 C480.85,360.95 480.73,360.38 480.62,359.96 L480.6,359.87 L480.58,359.78 C480.5,359.15 480.43,358.5 480.4,357.83 L480.39,357.66 C480.46,358.19 480.65,358.47 481.06,358.64 C481.33,358.72 481.51,358.68 481.68,358.52"/>
  <path fill="#000" d="M460.42,362.77 L460.43,372.86 C460.47,379.94 460.64,383.95 460.83,385.01 L460.85,385.1 L460.86,385.19 C460.91,385.65 461.01,386.33 461.15,387.23 C461.34,388.54 461.48,389.59 461.55,390.4 L461.56,390.46 L461.56,390.52 C461.56,390.94 461.6,391.55 461.69,392.36 C461.75,392.88 461.79,393.3 461.81,393.63 C461.96,394.09 462.12,394.68 462.3,395.41 C462.5,396.22 462.67,396.78 462.81,397.1 L462.89,397.28 L462.92,397.48 C462.99,397.78 463.15,398.11 463.44,398.52 C463.85,399.08 464.14,399.61 464.35,400.13 L464.82,400.92 C465.65,402.28 466.2,403.15 466.48,403.53 L465.41,405.06 C465.08,404.61 464.48,403.68 463.6,402.23 L463.06,401.34 L462.98,401.2 L462.92,401.03 C462.82,400.75 462.64,400.43 462.36,400.04 C461.86,399.33 461.54,398.67 461.37,397.97 C461.17,397.47 460.96,396.79 460.75,395.89 C460.57,395.15 460.41,394.6 460.28,394.24 L460.2,394.02 L460.19,393.78 C460.17,393.49 460.13,393.04 460.07,392.45 C459.97,391.57 459.92,390.87 459.92,390.35 C459.85,389.62 459.73,388.66 459.54,387.46 C459.41,386.56 459.31,385.86 459.25,385.36 C459.02,383.96 458.83,379.75 458.79,372.63 C458.77,365.55 458.88,361.9 458.96,361.52 L460.42,362.77"/>
  <path fill="#000" d="M449.13,417.04 C448.92,416.9 448.5,416.52 447.87,415.86 C447.2,415.16 446.71,414.69 446.4,414.42 L446.38,414.41 L446.36,414.39 C443.56,411.62 442.22,408.58 441.91,404.24 L443.55,404.35 C443.81,407.85 444.88,410.28 447.15,412.54 C447.52,412.86 448.06,413.38 448.78,414.12 C449.28,414.66 449.58,414.94 449.66,415 L449.13,417.04"/>
  <path fill="#000" d="M461.21,389.58 C461.14,389.7 460.72,390.26 459.89,391.28 L457.05,394.77 L457.04,394.79 L457.02,394.8 C452.68,399.55 448.46,402.68 443.99,404.51 C443.77,404.62 443.41,404.85 442.89,405.22 C441.92,405.91 441.22,406.26 440.7,406.37 C440.09,406.59 439.25,406.79 438.14,406.96 L437.35,407.09 L437.34,407.09 L437.33,407.09 L437.24,407.11 C435.74,407.31 434.65,407.4 433.94,407.39 C432.36,407.87 428.89,407.81 423.05,407.06 C417.94,406.36 414.93,405.81 413.9,405.47 C413.01,405.33 412.13,405.15 411.26,404.93 C410.86,404.97 410.29,404.95 409.54,404.87 C409.12,404.83 408.8,404.8 408.58,404.78 L408.52,404.78 L408.47,404.76 C407.93,404.65 407.29,404.62 406.5,404.69 L405.79,404.74 C405.55,404.87 405.21,405.04 404.75,405.24 C403.85,405.66 403.24,406 402.89,406.26 L402.82,406.31 L402.74,406.34 C402.3,406.54 401.75,406.87 401.07,407.37 C400.61,407.7 400.24,407.94 399.97,408.09 C397.92,410.03 393.32,413.22 386.01,417.74 L385.99,417.76 L385.96,417.77 C384.63,418.37 383.41,418.58 382.01,418.47 C379.69,418.08 378.49,416.94 377.71,414.35 L377.7,414.29 L377.69,414.23 C377.61,413.79 377.48,413.13 377.28,412.23 C376.96,410.82 376.79,409.8 376.74,409.13 C376.55,408.09 376.5,406.7 376.59,404.87 L376.63,404.01 L376.64,403.93 L376.65,403.86 C377.32,399.5 378.36,395.85 379.79,392.68 C379.95,392.34 380.06,392.11 380.1,392 L380.63,390.67 L382.09,391.87 L381.56,393.2 C381.49,393.36 381.37,393.63 381.2,394.01 C379.86,396.94 378.9,400.33 378.27,404.4 L378.22,405.24 C378.14,406.86 378.19,408.01 378.34,408.77 L378.37,408.92 L378.37,409.08 C378.4,409.53 378.54,410.41 378.84,411.73 C379.04,412.64 379.19,413.34 379.27,413.83 C379.74,415.32 380.51,415.99 382,416.23 C383.15,416.32 384.17,416.15 385.27,415.66 C392.57,411.14 397.08,408 399,406.15 L399.09,406.07 L399.19,406.02 C399.4,405.91 399.73,405.69 400.19,405.36 C400.92,404.83 401.53,404.46 402.05,404.22 C402.49,403.91 403.17,403.53 404.11,403.1 C404.62,402.87 404.97,402.69 405.16,402.59 L405.29,402.51 L405.44,402.5 C405.63,402.49 405.89,402.47 406.23,402.44 C407.13,402.37 407.88,402.4 408.54,402.54 C408.78,402.55 409.1,402.58 409.51,402.63 C410.25,402.71 410.74,402.72 411.02,402.67 L411.15,402.65 L411.29,402.69 C412.18,402.92 413.07,403.1 413.99,403.24 L414.08,403.25 L414.16,403.29 C414.98,403.58 417.88,404.11 423.04,404.82 C428.87,405.57 432.13,405.62 433.43,405.18 L433.57,405.12 L433.71,405.13 C434.33,405.16 435.38,405.08 436.9,404.86 L436.97,404.85 L436.99,404.85 L437.79,404.72 C438.86,404.55 439.64,404.37 440.16,404.17 L440.25,404.14 L440.34,404.13 C440.64,404.08 441.17,403.8 442.01,403.2 C442.61,402.78 443.05,402.5 443.33,402.36 L443.35,402.35 L443.37,402.34 C447.65,400.59 451.7,397.59 455.89,393.01 L458.73,389.52 L459.58,388.48 L459.75,388.32 L461.21,389.58"/>
  <path fill="#000" d="M497.25,380.11 L497.2,380.24 L497.19,380.26 L497.15,380.37 L497.1,380.34 C497.1,380.34 497.09,380.35 497.09,380.37 L496.43,381.42 L496.38,381.51 L496.31,381.57 C495.98,381.89 495.44,382.48 494.69,383.35 L493.85,384.31 C493.71,384.49 493.49,384.78 493.21,385.18 C492.59,386.02 492.11,386.54 491.73,386.82 C491.26,387.45 490.62,387.97 489.69,388.47 L489.19,388.74 L489.14,388.76 L489.09,388.78 C487.99,389.19 487.02,389.68 486.13,390.27 L486.1,390.29 L486.08,390.3 C485.6,390.58 484.98,391 484.21,391.57 C483.64,391.99 483.17,392.31 482.81,392.55 C482.62,392.84 482.36,393.2 482.05,393.63 C481.45,394.44 481.04,395.11 480.78,395.68 L480.77,395.69 L480.77,395.7 L480.13,397.01 C479.57,398.13 479.16,399.02 478.89,399.67 L478.15,401.51 L477.41,403.35 L475.95,402.09 L476.69,400.25 L477.44,398.41 C477.73,397.71 478.16,396.77 478.74,395.6 L479.35,394.35 C479.36,394.35 479.36,394.34 479.36,394.33 C479.68,393.64 480.17,392.85 480.83,391.94 C481.19,391.46 481.45,391.09 481.62,390.81 L481.72,390.66 L481.86,390.57 C482.21,390.35 482.69,390.01 483.31,389.56 C484.11,388.96 484.77,388.52 485.29,388.22 C486.26,387.57 487.3,387.05 488.47,386.61 L488.97,386.35 C489.76,385.93 490.24,385.53 490.55,385.08 L490.68,384.86 L490.88,384.78 C491.06,384.68 491.41,384.29 491.97,383.51 C492.3,383.06 492.54,382.73 492.71,382.53 L492.72,382.52 L492.73,382.5 L493.55,381.57 C494.29,380.71 494.84,380.1 495.21,379.74 L495.77,378.82 C496.21,378.15 496.54,378.08 497.02,378.54 C497.39,378.99 497.46,379.43 497.25,380.11 L497.25,380.11 M497.1,380.33 L496.42,379.75 L495.72,379.14 C495.68,379.56 495.78,379.88 496.1,380.24 C496.52,380.66 496.78,380.69 497.1,380.33"/>
  <path fill="#000" d="M486.89,485.55 C486.57,486.12 486.29,486.23 485.84,485.95 C485.37,485.56 485.26,485.07 485.44,484.18 L485.68,483.14 C485.7,482.37 485.76,481.23 485.89,479.71 C486,478.38 486.05,477.44 486.06,476.9 L486.06,476.81 L486.07,476.73 C486.36,474.23 486.51,472.32 486.54,470.97 L486.49,469.31 C486.42,467.17 486.33,465.55 486.21,464.45 L486.2,464.38 L486.2,464.3 L486.08,460.92 L485.96,458.09 C485.92,456.06 485.78,454.24 485.53,452.6 L485.51,452.49 L485.51,452.38 C485.46,450.28 485.34,448.6 485.17,447.31 L485.15,447.12 L485.16,446.94 C485.22,446.23 485.13,445.22 484.87,443.81 L484.81,443.52 L484.35,440.71 L483.85,437.75 L483.85,437.72 L483.5,435.89 L482.98,433.1 L482.96,433.01 L482.95,432.91 C482.89,432.24 482.68,431.08 482.3,429.42 L481.92,427.65 C481.48,426.24 481.18,424.91 481.02,423.64 L480.85,423.12 C480.37,421.58 480.07,420.4 479.94,419.55 C479.72,418.92 479.39,417.87 478.98,416.39 L478.67,415.31 C478.55,414.9 478.38,414.25 478.16,413.35 C477.92,412.36 477.73,411.66 477.6,411.24 L477.58,411.2 L477.57,411.15 L477.15,409.68 C476.8,408.47 476.56,407.49 476.41,406.75 C476.23,406.42 476.06,406.02 475.9,405.54 C475.84,405.35 475.79,405.22 475.76,405.15 L477.14,404.15 C477.21,404.3 477.29,404.52 477.38,404.81 C477.51,405.18 477.62,405.44 477.73,405.6 L477.9,405.86 L477.96,406.19 C478.07,406.84 478.3,407.78 478.67,409.04 L479.1,410.56 C479.25,411.06 479.46,411.83 479.71,412.87 C479.92,413.71 480.08,414.31 480.19,414.7 L480.5,415.79 C480.93,417.34 481.25,418.36 481.44,418.88 L481.51,419.07 L481.53,419.26 C481.62,419.91 481.88,420.95 482.34,422.41 L482.56,423.09 L482.6,423.24 L482.62,423.39 C482.76,424.53 483.03,425.73 483.44,427.02 L483.47,427.12 L483.49,427.23 L483.86,428.97 C484.25,430.71 484.48,431.99 484.57,432.81 L485.09,435.58 L485.43,437.38 L485.43,437.39 L485.44,437.41 L485.95,440.47 L486.4,443.19 L486.45,443.48 C486.75,445.07 486.85,446.32 486.81,447.3 C486.98,448.67 487.09,450.38 487.15,452.47 C487.41,454.23 487.56,456.16 487.6,458.27 L487.71,461.02 L487.84,464.44 C487.96,465.62 488.06,467.3 488.12,469.47 L488.18,471.14 L488.18,471.18 L488.18,471.21 C488.15,472.66 488,474.67 487.7,477.26 C487.69,477.88 487.63,478.87 487.51,480.22 C487.39,481.76 487.33,482.87 487.32,483.56 L487.32,483.72 L487.29,483.87 L487.04,484.96 L487.11,485.03 L487.06,485.15 L487,485.3 L486.97,485.38 L486.9,485.55 L486.89,485.55 M486.99,484.92 C486.96,484.52 486.81,484.25 486.46,483.98 C486.16,483.78 485.96,483.74 485.76,483.85 L486.39,484.4 L486.99,484.92"/>
  <path fill="#f9dd16" d="M483.42,366.93 C481.92,371.02 478.49,376.8 478.41,376.94 L475.01,385.7 C473.65,390.66 474.43,392.62 475.12,394.29 C476.44,397.78 476.75,399.55 477.72,402.2 C477.68,405.36 474.38,405.77 474.01,405.91 C465.39,407.9 461.6,397.5 461.34,396.41 C460.23,390.39 460.35,389.66 462.92,388.74 C465.91,388.28 466.98,388.34 468.5,387.17 C471.11,384.44 473.17,376.74 473.26,376.4 L473.68,371.62 C473.8,369.37 473.25,367.22 473.97,363.73 C475.14,360.37 475.68,359.69 478.35,359.71 C481.95,360.2 484.09,363.19 483.42,366.93"/>
  <path fill="#000" d="M484.17,367.49 C483.3,369.94 481.7,373.21 479.26,377.38 L479.14,377.57 L477.45,381.94 L475.76,386.27 C474.94,389.23 474.96,391.49 475.8,393.76 L475.82,393.82 L475.83,393.84 L475.84,393.85 C476.34,395.16 476.87,396.74 477.41,398.59 C477.81,399.95 478.15,401.01 478.43,401.77 L478.5,401.94 L478.53,402.14 C478.67,404.68 477.59,405.98 474.59,406.91 L474.58,406.92 L474.28,407.01 C470.27,408.09 467.31,406.99 464.04,403.18 C461.86,400.39 460.81,398.31 460.53,396.5 C459.64,391.12 460.25,388.66 462.66,387.64 L462.69,387.63 L462.74,387.62 L464.47,387.37 C466.21,387.11 467.31,386.73 468.02,386.19 C469.53,384.7 470.96,381.58 472.43,376.12 C472.48,375.94 472.51,375.83 472.53,375.77 L472.54,375.34 L472.67,373.71 L472.86,371.38 L472.86,371.37 L472.86,371.36 C472.9,370.88 472.89,370.13 472.83,369.09 C472.7,366.79 472.83,364.9 473.19,363.27 L473.2,363.22 L473.22,363.17 C474.44,359.9 475.85,358.64 478.28,358.59 C480.31,358.74 481.7,359.54 483.08,361.34 C484.41,363.38 484.73,365.16 484.19,367.43 L484.18,367.46 L484.17,367.49 M482.66,366.39 C482.96,365.08 482.76,364.03 481.96,362.82 C480.98,361.52 479.94,360.95 478.41,360.84 C476.67,360.88 475.65,361.82 474.74,364.25 C474.45,365.58 474.35,367.17 474.46,369.14 C474.53,370.33 474.54,371.24 474.49,371.86 C474.49,371.87 474.49,371.88 474.49,371.89 C474.24,375.12 474.05,376.81 473.99,377.03 L473.98,377.09 C472.39,382.96 470.78,386.41 468.98,388.15 C468.07,388.85 466.78,389.32 464.8,389.61 L463.14,389.85 C462.14,390.2 461.68,390.55 461.53,391.06 C461.44,391.76 461.61,393.43 462.13,396.24 L462.15,396.33 L462.15,396.41 C462.33,397.6 463.2,399.21 465.06,401.59 C467.87,404.81 470.3,405.7 473.75,404.81 L473.75,404.82 C473.84,404.78 473.95,404.74 474.07,404.71 C476.06,404.13 476.84,403.5 476.92,402.42 C476.62,401.6 476.28,400.54 475.9,399.21 C475.38,397.47 474.89,395.99 474.42,394.77 L474.41,394.74 L474.4,394.71 C473.28,391.72 473.23,388.84 474.25,385.16 L474.27,385.13 L475.98,380.71 L477.68,376.32 C477.71,376.26 477.8,376.1 477.95,375.84 C480.3,371.82 481.84,368.7 482.66,366.39"/>
  <path fill="#f9dd16" d="M594.3,396.72 C593.68,396.98 589.61,399.59 589.46,399.78 C588.94,404.41 587.84,410.13 586.09,414.4 C585.99,414.05 582.47,401.61 582.43,401.54 C582.12,401.62 572.62,402.76 572.46,402.79 C574.34,398.56 576.95,394.53 579.2,390.47 L577.63,376.59 L585.66,381.23 C588.36,378.43 591.01,375.57 593.79,372.85 C593.74,376.72 592.67,380.8 592.08,384.66 L596.62,392.9 C596.59,392.93 594.51,396.13 594.3,396.72"/>
  <path fill="#000" d="M594.5,397.84 C594.31,397.9 593.51,398.35 592.06,399.25 C591.44,399.64 590.93,399.97 590.54,400.25 C590.34,400.39 590.19,400.5 590.1,400.57 C590.09,400.58 590.09,400.58 590.09,400.58 C589.88,401.94 589.4,404.3 588.62,407.67 L587.44,412.68 L587.03,414.31 L586.9,414.79 C586.87,414.88 586.85,414.95 586.83,415 C586.79,415.09 586.75,415.17 586.7,415.24 C586.58,415.39 586.46,415.47 586.29,415.52 C585.88,415.58 585.64,415.41 585.39,414.91 C585.36,414.81 585.14,414.05 584.76,412.63 L582.93,405.81 L582.11,403 L582.03,402.74 C581.02,402.9 579.11,403.15 576.3,403.47 L573.74,403.75 L572.95,403.85 L572.9,403.79 C572.79,403.87 572.69,403.91 572.56,403.91 C572.13,403.9 571.89,403.68 571.7,403.11 C571.62,402.82 571.62,402.57 571.69,402.29 C571.7,402.23 571.73,402.17 571.75,402.11 L571.82,401.97 L572.03,401.57 L572.78,400.17 L575.1,395.93 L578.33,390.08 L576.62,374.82 L585.48,379.95 L589.18,376.11 L593.3,371.88 L593.34,371.85 C593.63,371.66 593.85,371.67 594.15,371.89 C594.34,372.05 594.46,372.25 594.55,372.54 C594.59,372.67 594.61,372.8 594.61,372.94 C594.61,373.01 594.61,373.09 594.61,373.18 L594.56,373.61 L594.38,374.96 L593.79,379.02 L592.96,384.48 L597.68,393.06 L597.24,393.71 C595.84,395.75 595.17,396.85 595.1,397.07 L594.99,397.73 L594.5,397.84 M593.72,395.76 C594.04,395.11 594.64,394.1 595.55,392.74 L591.2,384.84 L591.27,384.33 L592.18,378.37 L592.6,375.54 L590.25,377.96 L585.84,382.51 L578.65,378.35 L580.06,390.86 L579.87,391.2 L576.45,397.4 L574.24,401.43 L576.01,401.22 L581.99,400.54 C582.44,400.25 582.74,400.36 583.12,400.97 C583.17,401.07 583.23,401.2 583.3,401.36 C583.38,401.58 583.48,401.89 583.61,402.29 L584.46,405.2 L586.05,411.1 L587.05,406.81 L588.2,401.76 L588.55,400.08 L588.77,400.29 C588.5,399.58 588.61,399.12 589.15,398.62 C589.28,398.52 589.45,398.38 589.68,398.22 C590.1,397.93 590.62,397.59 591.26,397.19 C592.42,396.46 593.24,395.99 593.72,395.76 M590.09,400.57 C590.36,400.19 590.38,399.83 590.15,399.27 C590.2,399.43 590.19,399.83 590.09,400.57 M582.33,402.69 C582.51,402.72 582.67,402.68 582.87,402.54 C582.81,402.58 582.64,402.62 582.33,402.69 M572.48,401.67 C572.44,401.66 572.4,401.66 572.36,401.66 C572.23,401.67 572.13,401.71 572.02,401.78 C572.06,401.76 572.21,401.72 572.48,401.67"/>
  <path fill="#fff" d="M507.73,544.71 C514.09,550.3 547.64,560.81 553.15,562.31 C559.91,562 569.07,563.75 576.38,567.34 C583.56,571.75 589.84,571.93 594.54,567.43 C600.52,562.83 602.52,555.24 605.05,548.05 C605.91,544.18 605.79,540.42 604.55,536.88 C602.31,529.63 603.26,528.02 602.76,523.95 C609.32,501.24 609.9,474.56 610.89,454.76 C610.23,443.13 610.76,434.4 611.57,430.82 C615.46,422.49 620.85,419.28 623.88,417.75 L656.26,406.91 C664.34,402.17 658.9,395.29 656.97,395.44 C651.17,393.98 651.22,386.29 624.88,393.89 L607.66,390.19 C607.52,390.03 604.26,386.7 603.86,386.62 C594.42,384.26 593.58,391.66 594.25,396.98 L595.96,407.9 C595.95,407.96 593.5,423.92 593.52,424.46 C585.68,437.26 574.86,477.99 574.26,486.13 C574.03,493.67 572.2,492.17 572.91,499.56 C573.13,505.3 572.54,501.69 574.41,513.61 C574.56,517.2 571.96,516.71 569.85,515.57 C553.78,501.24 542.57,494.16 525.9,481.14 L500,500 L507.73,544.71"/>
  <path fill="#000" d="M506.8,545.51 L498.79,499.15 L525.82,479.46 L526.35,479.88 L541.62,491.44 C553.59,500.32 563.13,507.93 570.29,514.29 C571.25,514.84 572,515.02 572.76,514.91 C573.26,514.78 573.43,514.46 573.37,513.75 C572.42,507.72 571.97,503.95 571.92,502.39 L571.85,499.57 C571.56,496.61 571.73,494.15 572.35,491.85 C572.87,490.02 573.14,488.1 573.19,485.96 L573.19,485.91 L573.19,485.87 C573.54,480.87 575.8,471.08 580.1,456.36 C584.83,440.33 589,429.48 592.6,423.58 C592.8,421.12 593.55,415.85 594.87,407.75 L594.05,402.5 L593.21,397.14 C592.72,393.24 593.1,390.44 594.42,387.91 C596.49,384.71 599.22,383.93 604,385.19 L603.99,385.3 C604.82,385.67 606.12,386.76 608.03,388.82 L616.35,390.62 L624.76,392.41 C638.36,388.48 647.64,388.43 653.77,392.34 C655.07,393.2 656.07,393.71 656.86,393.95 C658.97,393.54 660.19,394.88 661.39,398.93 C662.32,403.25 660.98,405.93 656.68,408.28 L656.63,408.31 L639.87,414.02 L624.26,419.16 C618.91,421.94 615.2,425.85 612.55,431.53 C611.54,436.1 611.31,443.76 611.95,454.77 L611.96,454.88 L611.95,454.99 L611.61,462.26 C610.31,490.12 607.71,510.73 603.86,524.23 C603.96,525.16 604.02,526.29 604.03,527.64 C604.09,530.49 604.56,533.31 605.5,536.34 C606.89,540.28 607.08,544.13 606.07,548.63 L606.05,548.71 L606.02,548.79 L604.98,551.81 C601.97,560.48 598.79,565.87 595.17,568.69 C590.02,573.67 584.14,573.69 576.06,568.68 C568.57,564.98 561.2,563.39 553.31,563.77 L553.19,563.78 L553.06,563.75 C547.17,562.16 539.67,559.78 530.55,556.56 C517.61,551.96 509.99,548.39 507.2,545.89 L506.8,545.51 M508.66,543.88 C511.54,546.14 518.81,549.44 530.86,553.73 C539.88,556.91 547.3,559.26 553.12,560.84 C561.27,560.47 568.9,562.13 576.66,565.97 L576.71,566 L576.76,566.03 C584.12,570.58 589.3,570.62 593.85,566.23 L593.91,566.17 L593.98,566.12 C597.25,563.59 600.18,558.58 603.03,550.38 L604.06,547.4 C604.86,543.69 604.72,540.62 603.62,537.46 L603.6,537.42 L603.59,537.37 C602.51,533.92 601.97,530.68 601.9,527.38 C601.89,526 601.83,524.92 601.72,524.12 L601.65,523.69 L601.77,523.3 C605.6,510.08 608.18,489.64 609.48,461.82 L609.82,454.64 C609.16,443.19 609.43,435.15 610.55,430.25 L610.59,430.11 L610.64,429.99 C613.53,423.7 617.6,419.39 623.44,416.37 L623.49,416.35 L639.22,411.18 L655.88,405.51 C658.91,403.84 659.87,402.26 659.39,399.78 C658.72,397.44 658.16,396.65 657.33,396.84 L657.11,396.93 L656.88,396.88 C655.83,396.63 654.56,396.02 652.93,394.95 C647.24,391.33 638.39,391.48 625.19,395.32 L625,395.38 L616.2,393.51 L607.29,391.57 L607.04,391.3 C606.47,390.68 605.89,390.06 605.3,389.46 C604.8,388.94 604.39,388.55 604.09,388.28 C603.98,388.2 603.9,388.13 603.83,388.08 L603.73,388.04 C599.8,387.02 597.71,387.52 596.14,389.85 C595.19,391.7 594.91,393.81 595.29,396.82 L596.13,402.15 L597.05,408.04 L597,408.35 L595.71,416.43 L594.86,422.07 L594.62,423.96 L594.42,423.8 L594.83,424.72 L594.36,425.48 C590.87,431.13 586.78,441.79 582.09,457.68 C577.88,472.1 575.67,481.61 575.32,486.35 C575.26,488.83 574.94,491.06 574.34,493.19 C573.84,495.02 573.71,497.03 573.96,499.47 L573.97,499.55 L573.97,499.62 L574.05,502.66 C574.1,504.01 574.54,507.59 575.45,513.44 L575.45,513.46 L575.46,513.48 C575.72,516.14 575.12,517.32 573.26,517.81 C572.05,517.99 570.93,517.72 569.5,516.9 L569.42,516.84 L569.34,516.77 C562.24,510.44 552.73,502.86 540.77,493.98 L525.99,482.81 L501.22,500.85 L508.66,543.88"/>
  <path fill="#f9dd16" d="M635.15,412.76 C634.95,412.59 623.81,395.48 623.73,395.36 L629.79,393.91 L642.42,410.06 L635.15,412.76"/>
  <path fill="#000" d="M634.96,414.24 L634.49,413.62 C631.8,410.08 630.19,407.84 629.61,406.93 C628.47,405.29 627.41,403.87 626.45,402.67 L626.41,402.62 L626.37,402.56 L625.08,400.67 C624.38,399.65 623.81,398.8 623.37,398.11 C622.47,397.07 621.43,395.72 620.25,394.02 L621.55,392.36 C622.7,394.01 623.69,395.31 624.54,396.28 L624.61,396.36 L624.67,396.45 C625.09,397.12 625.66,397.97 626.37,399 L627.67,400.9 C628.67,402.15 629.75,403.61 630.92,405.29 L630.95,405.33 L630.97,405.36 C631.48,406.17 633.05,408.34 635.72,411.86 L636.2,412.48 L634.96,414.24 M645.42,411.68 C644.67,411.49 643.78,411.02 642.64,410.14 L642.54,410.06 L642.46,409.96 C642.3,409.77 641.89,409.3 641.21,408.55 C639.5,406.64 638.45,405.37 638.01,404.72 C636.96,403.29 635.99,402.07 635.1,401.02 L635.05,400.97 L635.01,400.91 L633.83,399.26 C633.18,398.37 632.66,397.63 632.26,397.03 C631.41,396.12 630.45,394.95 629.36,393.47 L630.62,391.75 C631.68,393.18 632.59,394.3 633.38,395.13 L633.46,395.21 L633.52,395.31 C633.91,395.89 634.43,396.63 635.08,397.53 L636.27,399.19 C637.2,400.28 638.21,401.55 639.29,403.02 L639.32,403.06 L639.34,403.1 C639.68,403.61 640.65,404.78 642.31,406.62 L643.56,408.03 C644.43,408.69 645.07,409.04 645.56,409.16 L645.42,411.68"/>
  <path fill="#000" d="M606.94,503.04 C602.66,503.62 598.43,502.77 593.4,500.25 C589.04,497.9 585.69,495.16 582.93,491.74 L583.99,490.18 C586.56,493.36 589.72,495.93 593.85,498.16 C598.61,500.54 602.6,501.35 606.6,500.81 L606.94,503.04"/>
  <path fill="#000" d="M583.93,446.28 C583.73,445.71 583.71,445.31 583.88,444.92 C584.14,444.46 584.45,444.38 585.02,444.64 C585.37,444.81 585.72,444.95 586.06,445.05 C586.83,445.08 587.76,445.53 589.11,446.6 C590.57,447.84 591.55,449.08 592.24,450.51 C593.14,452.18 593.89,453.7 594.51,455.06 C594.6,455.29 594.7,455.63 594.79,456.09 C594.83,456.32 594.86,456.45 594.87,456.47 L593.49,457.5 C593.39,457.26 593.29,456.93 593.2,456.47 C593.16,456.24 593.13,456.11 593.12,456.09 C592.54,454.78 591.81,453.32 590.94,451.7 L590.91,451.64 L590.89,451.59 C590.37,450.51 589.58,449.53 588.38,448.51 C587.29,447.64 586.65,447.29 586.26,447.3 L586.13,447.33 L586,447.29 C585.53,447.15 585.07,446.97 584.6,446.74 L584.5,446.69 C584.84,446.8 585.05,446.69 585.27,446.29 C585.41,445.99 585.45,445.77 585.42,445.56 L584.74,446.06 L584.05,446.57 L584,446.45 L583.97,446.39 L583.93,446.28 L583.93,446.28"/>
  <path fill="#000" d="M624,416.72 L623.91,416.52 L623.88,416.44 L623.62,415.86 L623.38,415.33 C623.14,414.77 622.82,413.95 622.42,412.84 C622.11,411.97 621.87,411.35 621.71,410.98 C621.49,410.47 621.21,409.7 620.87,408.65 C620.57,407.7 620.32,407.02 620.14,406.6 L620.11,406.53 L620.08,406.45 C619.93,405.99 619.65,405.25 619.24,404.23 C618.81,403.15 618.5,402.32 618.31,401.76 C618.1,401.23 617.83,400.49 617.5,399.54 C617.12,398.43 616.8,397.59 616.55,397 L616.54,396.98 L616.53,396.96 C616.4,396.64 616.25,396.24 616.08,395.76 L615.1,393.14 L616.52,392.18 C616.78,392.79 617.07,393.54 617.38,394.45 L617.54,394.9 L617.95,396 C618.23,396.66 618.58,397.57 618.98,398.74 C619.3,399.67 619.55,400.37 619.75,400.84 L619.77,400.9 L619.79,400.95 C619.95,401.45 620.24,402.22 620.66,403.27 C621.08,404.31 621.37,405.09 621.55,405.62 C621.77,406.14 622.04,406.89 622.37,407.89 C622.67,408.85 622.92,409.53 623.11,409.96 C623.29,410.39 623.55,411.06 623.88,411.98 C624.26,413.03 624.55,413.79 624.77,414.28 L625,414.82 L625.26,415.39 L625.29,415.47 L625.3,415.47 L625.38,415.67 L625.38,415.68 C625.55,416.27 625.46,416.64 625.04,416.99 C624.6,417.28 624.32,417.21 624.01,416.72 L624,416.72"/>
  <path fill="#000" d="M652.53,408.54 C651.81,408.41 650.97,408.02 649.88,407.26 L649.78,407.2 L649.71,407.11 C649.56,406.94 649.17,406.52 648.52,405.84 C646.9,404.15 645.91,403.01 645.5,402.42 C644.51,401.15 643.6,400.05 642.75,399.12 L642.71,399.08 L642.67,399.02 L641.56,397.53 C640.95,396.74 640.46,396.07 640.09,395.53 C639.29,394.73 638.38,393.68 637.35,392.35 L638.44,390.78 C639.43,392.07 640.29,393.06 641.04,393.8 L641.12,393.88 L641.18,393.97 C641.54,394.49 642.03,395.16 642.64,395.96 L643.76,397.45 C644.64,398.43 645.59,399.57 646.61,400.88 L646.63,400.92 L646.66,400.96 C646.98,401.41 647.89,402.46 649.45,404.09 L650.64,405.35 C651.48,405.92 652.1,406.22 652.59,406.31 L652.53,408.54"/>
  <path fill="#000" d="M607.07,405.99 C607.84,405.79 608.28,405.38 608.62,404.55 C608.72,404.26 608.82,404.03 608.9,403.85 C609.26,402.21 609.22,400.13 608.71,397.3 C608.47,396.19 608.23,394.9 608,393.42 C607.81,392.81 607.65,392.11 607.54,391.29 L607.5,391 L609.11,390.78 L609.15,391.09 C609.24,391.75 609.36,392.29 609.51,392.72 L609.57,392.86 L609.59,393.02 C609.81,394.5 610.04,395.77 610.28,396.85 L610.28,396.87 L610.29,396.89 C610.89,400.28 610.91,402.81 610.42,404.91 L610.38,405.04 L610.32,405.15 C610.27,405.25 610.2,405.43 610.1,405.69 C609.51,407.16 608.75,407.88 607.45,408.21 L607.07,405.99"/>
  <path fill="#000" d="M597.07,561.86 L597.72,561.37 L598.41,560.86 L598.46,560.98 L598.48,561 L598.49,561.03 L598.54,561.14 L598.53,561.15 C598.76,561.77 598.76,562.19 598.54,562.58 C598.22,563.04 597.89,563.05 597.31,562.63 C596.95,562.35 596.6,562.11 596.25,561.89 C595.89,561.76 595.45,561.56 594.92,561.29 C594.32,561 593.85,560.8 593.5,560.7 L593.69,558.49 C594.13,558.63 594.67,558.86 595.35,559.19 C595.86,559.45 596.27,559.63 596.58,559.74 L596.65,559.76 L596.72,559.8 C597.15,560.06 597.58,560.36 598.02,560.71 L598.14,560.79 C597.76,560.57 597.52,560.64 597.25,561.04 C597.09,561.32 597.04,561.56 597.07,561.86"/>
  <path fill="#000" d="M602.95,533.71 L596.55,527.87 C592.03,523.78 589.42,521.66 588.68,521.26 L588.62,521.23 L588.56,521.19 C588.24,520.98 587.77,520.7 587.15,520.34 C586.24,519.81 585.52,519.36 584.98,518.97 L584.94,518.94 L584.89,518.9 C584.63,518.67 584.23,518.36 583.68,517.99 C583.33,517.75 583.04,517.55 582.82,517.39 C582.47,517.3 582.03,517.15 581.5,516.94 C580.9,516.7 580.48,516.58 580.22,516.56 L580.07,516.55 L579.93,516.47 C579.71,516.37 579.45,516.37 579.07,516.49 C578.53,516.65 578.1,516.69 577.68,516.63 L576.99,516.73 C575.78,516.92 575.01,517.08 574.66,517.19 L574.12,515 C574.54,514.87 575.37,514.7 576.64,514.5 L577.43,514.37 L577.55,514.35 L577.68,514.38 C577.9,514.43 578.17,514.41 578.54,514.29 C579.2,514.1 579.72,514.1 580.25,514.32 C580.65,514.37 581.16,514.52 581.82,514.78 C582.36,515 582.77,515.14 583.05,515.2 L583.23,515.23 L583.38,515.35 C583.58,515.5 583.88,515.72 584.28,515.99 C584.87,516.39 585.33,516.74 585.67,517.03 C586.16,517.38 586.82,517.79 587.65,518.27 C588.28,518.63 588.76,518.93 589.1,519.15 C590.08,519.7 592.81,521.92 597.36,526.03 C601.86,530.12 604.1,532.33 604.34,532.68 L602.95,533.71"/>
  <path fill="#000" d="M573.12,488.4 C573.3,488.22 573.71,487.95 574.38,487.58 C575.09,487.19 575.59,486.89 575.89,486.67 L575.9,486.65 L575.92,486.64 C578.92,484.86 581.21,485.03 584.18,487.25 L583.44,489.15 C581.05,487.37 579.2,487.24 576.77,488.67 C576.42,488.93 575.87,489.27 575.11,489.69 C574.57,489.99 574.27,490.17 574.2,490.23 L573.12,488.4"/>
  <path fill="#000" d="M585.64,519.04 C585.59,518.9 585.4,518.05 585.09,516.46 L584.03,510.99 L584.02,510.97 L584.02,510.94 C582.77,503.01 582.49,495.97 583.15,489.6 C583.17,489.27 583.17,488.69 583.15,487.86 C583.11,486.3 583.17,485.22 583.32,484.55 C583.43,483.69 583.64,482.56 583.98,481.14 L584.23,480.11 L584.23,480.1 L584.23,480.09 L584.26,479.97 C584.74,478.05 585.13,476.69 585.43,475.85 C585.75,473.71 587.25,469.48 590.11,462.99 C592.66,457.28 594.27,453.97 594.9,452.97 C595.36,451.97 595.84,451.03 596.34,450.12 C596.48,449.62 596.73,448.95 597.09,448.1 L597.55,447 L597.57,446.94 L597.6,446.88 C597.9,446.31 598.19,445.56 598.47,444.57 L598.73,443.69 C598.75,443.34 598.79,442.83 598.85,442.17 C598.96,440.85 599,439.91 598.99,439.35 L598.98,439.23 L598.99,439.12 C599.05,438.49 599.07,437.63 599.04,436.53 C599.02,435.78 599.03,435.21 599.04,434.79 C598.67,431.25 598.57,423.87 598.81,412.57 L598.81,412.53 L598.81,412.49 C598.99,410.59 599.39,408.95 600.05,407.39 C601.3,404.83 602.5,404.1 604.49,404.68 L604.54,404.7 L604.58,404.73 C604.89,404.89 605.37,405.11 606.02,405.39 C607.05,405.84 607.77,406.22 608.22,406.55 C608.96,406.93 609.85,407.65 610.98,408.83 L611.51,409.38 L611.56,409.43 L611.6,409.49 C614.06,412.78 615.93,416.1 617.34,419.66 C617.49,420.05 617.59,420.3 617.64,420.42 L618.26,421.81 L616.88,422.86 L616.26,421.46 C616.19,421.29 616.07,421 615.9,420.56 C614.6,417.27 612.86,414.18 610.57,411.1 L610.05,410.56 C609.05,409.51 608.31,408.91 607.76,408.65 L607.65,408.6 L607.55,408.52 C607.25,408.28 606.64,407.95 605.67,407.53 C605.01,407.25 604.5,407.02 604.15,406.84 C603,406.53 602.27,407.03 601.47,408.68 C600.93,409.97 600.6,411.33 600.45,412.89 C600.21,424.17 600.31,431.44 600.68,434.77 L600.7,434.92 L600.69,435.07 C600.67,435.39 600.66,435.91 600.68,436.65 C600.71,437.82 600.69,438.78 600.63,439.53 C600.64,440.23 600.6,441.27 600.48,442.64 C600.41,443.39 600.37,443.91 600.36,444.19 L600.36,444.4 L600.3,444.58 L600.01,445.55 C599.68,446.67 599.34,447.56 598.99,448.26 L598.52,449.37 C598.17,450.2 597.96,450.79 597.87,451.15 L597.83,451.32 L597.75,451.47 C597.24,452.39 596.74,453.35 596.27,454.38 L596.23,454.47 L596.18,454.55 C595.67,455.32 594.11,458.53 591.53,464.29 C588.69,470.75 587.26,474.76 587.04,476.53 L587.02,476.72 L586.96,476.9 C586.69,477.61 586.31,478.93 585.82,480.87 L585.8,480.97 L585.79,480.99 L585.55,482.03 C585.22,483.4 585.02,484.45 584.93,485.2 L584.92,485.32 L584.88,485.44 C584.79,485.81 584.75,486.63 584.79,487.98 C584.81,488.95 584.81,489.64 584.78,490.06 L584.78,490.09 L584.78,490.12 C584.15,496.22 584.41,502.99 585.61,510.64 L586.67,516.09 L586.99,517.72 L587.02,518.02 L585.64,519.04"/>
  <path fill="#000" d="M577.12,568.01 L577.06,567.87 L577.05,567.85 L576.99,567.73 L577.04,567.7 L577.03,567.66 L576.62,566.25 L576.59,566.13 L576.57,566.01 C576.5,565.43 576.35,564.44 576.09,563.02 L575.82,561.44 C575.77,561.17 575.67,560.74 575.53,560.15 C575.25,558.93 575.11,558.03 575.09,557.41 C574.88,556.5 574.8,555.39 574.86,553.99 L574.89,553.22 L574.89,553.15 L574.9,553.08 C575.09,551.53 575.17,550.05 575.15,548.63 L575.15,548.59 L575.15,548.56 C575.17,547.82 575.15,546.82 575.1,545.56 L575.04,543.3 C574.93,542.9 574.81,542.38 574.66,541.74 C574.39,540.55 574.12,539.65 573.88,539.02 L573.87,539 L573.86,538.98 L573.29,537.45 C572.8,536.11 572.41,535.09 572.1,534.39 L571.24,532.41 L570.37,530.44 L571.75,529.43 L572.62,531.4 L573.49,533.38 C573.81,534.14 574.23,535.21 574.75,536.61 L575.29,538.07 L575.3,538.1 C575.61,538.89 575.92,539.94 576.22,541.28 C576.38,541.99 576.52,542.52 576.62,542.89 L576.68,543.1 L576.68,543.32 C576.68,543.88 576.7,544.65 576.74,545.66 C576.79,546.97 576.81,548.03 576.79,548.83 C576.81,550.37 576.72,551.95 576.53,553.61 L576.49,554.37 C576.45,555.55 576.51,556.4 576.67,557.01 L576.75,557.3 L576.72,557.59 C576.71,557.86 576.82,558.53 577.09,559.65 C577.24,560.3 577.35,560.79 577.41,561.11 L577.42,561.14 L577.42,561.16 L577.69,562.69 C577.93,564.08 578.1,565.11 578.18,565.76 L578.53,566.98 C578.78,567.9 578.69,568.36 578.21,568.66 C577.77,568.84 577.47,568.67 577.12,568.01 L577.12,568.01 M577.04,567.69 L577.69,567.22 L578.35,566.73 C578.1,566.42 577.87,566.37 577.5,566.54 C577.07,566.79 576.94,567.11 577.04,567.69"/>
  <path fill="#000" d="M514.43,492.94 C514.2,492.22 514.25,491.8 514.6,491.43 C515.05,491.1 515.39,491.26 515.88,492.02 L516.44,492.93 C516.93,493.41 517.63,494.17 518.54,495.22 C519.34,496.15 519.91,496.78 520.25,497.12 L520.3,497.17 L520.35,497.23 C521.82,499.07 522.98,500.39 523.82,501.23 L524.89,502.16 C526.28,503.36 527.34,504.21 528.08,504.72 L528.13,504.76 L528.19,504.81 C528.65,505.23 529.38,505.86 530.37,506.67 L532.22,508.22 C533.53,509.39 534.73,510.3 535.87,510.98 L535.95,511.02 L536.02,511.08 C537.37,512.28 538.48,513.14 539.37,513.7 L539.5,513.78 L539.61,513.91 C540.04,514.4 540.71,514.89 541.71,515.42 L541.92,515.53 L543.89,516.64 L545.96,517.8 C545.97,517.81 545.98,517.81 545.98,517.81 L547.28,518.49 L549.26,519.52 L549.33,519.55 L549.39,519.6 C549.85,519.92 550.66,520.36 551.87,520.89 C552.45,521.15 552.87,521.35 553.15,521.49 C554.22,521.8 555.16,522.21 556.05,522.78 L556.44,522.89 C557.62,523.21 558.47,523.55 559.07,523.9 C559.56,524.01 560.36,524.25 561.46,524.62 L562.27,524.89 C562.58,524.99 563.06,525.17 563.72,525.44 C564.45,525.73 564.97,525.92 565.29,526.01 L565.32,526.02 L565.35,526.03 C565.6,526.12 565.97,526.24 566.46,526.4 C567.37,526.69 568.08,526.97 568.62,527.23 C568.9,527.22 569.21,527.25 569.58,527.34 C569.73,527.37 569.83,527.39 569.89,527.4 L569.97,529.65 C569.84,529.64 569.67,529.61 569.45,529.55 C569.16,529.48 568.96,529.46 568.81,529.49 L568.58,529.55 L568.35,529.42 C567.88,529.17 567.2,528.9 566.25,528.59 C565.76,528.44 565.38,528.31 565.11,528.21 C564.73,528.1 564.16,527.9 563.4,527.59 C562.79,527.34 562.34,527.17 562.05,527.08 L561.23,526.8 C560.07,526.41 559.3,526.19 558.9,526.11 L558.75,526.08 L558.62,525.99 C558.16,525.7 557.41,525.41 556.29,525.09 L555.78,524.95 L555.66,524.92 L555.56,524.85 C554.77,524.33 553.92,523.95 552.93,523.68 L552.85,523.66 L552.78,523.62 C552.54,523.49 552.13,523.3 551.53,523.03 C550.26,522.47 549.37,521.99 548.8,521.6 L546.84,520.58 L545.56,519.92 L545.55,519.91 L545.54,519.91 L543.39,518.7 L541.49,517.62 L541.29,517.52 C540.15,516.92 539.33,516.32 538.72,515.67 C537.78,515.06 536.65,514.18 535.3,513 C534.08,512.26 532.81,511.3 531.44,510.08 L529.65,508.57 C528.67,507.76 527.93,507.13 527.43,506.69 C526.64,506.13 525.54,505.25 524.13,504.02 L523.05,503.09 L523.03,503.07 L523,503.05 C522.1,502.16 520.89,500.77 519.36,498.86 C518.97,498.47 518.37,497.81 517.56,496.87 C516.63,495.8 515.95,495.06 515.52,494.64 L515.42,494.54 L515.34,494.42 L514.75,493.46 L514.67,493.52 L514.61,493.38 L514.55,493.22 L514.51,493.13 L514.43,492.95 L514.43,492.94 M514.79,493.43 C515.06,493.64 515.28,493.62 515.6,493.36 C515.84,493.13 515.95,492.9 515.96,492.59 L515.37,493.02 L514.79,493.43"/>
  <path fill="#f9dd16" d="M591.04,559.06 C589.08,554.93 586.76,547.32 586.71,547.16 L582.52,537.94 C579.89,533.32 578.4,533.18 577.03,533.02 C574.29,532.56 573.04,531.89 570.97,531.49 C569.07,529.66 570.06,525.31 570.11,524.85 C572.3,513.26 580.48,514.88 581.25,515.19 C585.51,517.39 585.93,517.96 585.47,521.59 C584.56,525.43 584.09,526.75 584.21,529.23 C584.9,534.02 588.98,541.02 589.12,541.27 L591.99,544.56 C593.4,546.07 594.91,546.55 596.87,549.52 C598.51,552.85 598.73,553.97 597.66,557.14 C595.88,561.24 593.18,562.1 591.04,559.06"/>
  <path fill="#000" d="M590.38,559.63 C589.19,557.18 587.75,553.31 586.09,547.93 L586.01,547.67 L583.93,543.07 L581.86,538.5 C580.28,535.71 578.89,534.48 577.09,534.15 L577.05,534.15 L577.03,534.14 L577.02,534.14 C575.98,533.98 574.78,533.68 573.39,533.25 C572.36,532.92 571.55,532.71 570.96,532.61 L570.82,532.58 L570.69,532.5 C569.06,531.2 568.62,529.08 569.24,524.95 L569.25,524.93 L569.3,524.52 C570.21,519.08 572.19,516.09 575.87,514.46 C578.57,513.47 580.2,513.4 581.52,514.17 C585.27,516.26 586.59,518.41 586.28,521.92 L586.27,521.97 L586.26,522.02 L585.72,524.26 C585.19,526.47 584.98,528.08 585.03,529.23 C585.36,531.92 586.8,535.52 589.63,540.43 C589.73,540.59 589.79,540.7 589.81,540.76 L590.09,541.02 L591.06,542.13 L592.47,543.72 L592.48,543.73 L592.48,543.74 C592.77,544.06 593.25,544.48 593.93,545.02 C595.44,546.21 596.58,547.44 597.48,548.84 L597.5,548.89 L597.53,548.94 C599.07,552.23 599.32,554.82 598.4,557.72 C597.48,560.09 596.4,561.3 594.72,561.9 C592.85,562.33 591.66,561.72 590.41,559.69 L590.4,559.66 L590.38,559.63 M591.69,558.45 C592.42,559.61 593.12,559.96 594.23,559.7 C595.44,559.26 596.22,558.36 596.92,556.56 C597.57,554.49 597.38,552.6 596.24,550.15 C595.49,549 594.54,547.97 593.25,546.96 C592.46,546.35 591.89,545.84 591.5,545.4 C591.5,545.4 591.5,545.39 591.49,545.39 C589.54,543.2 588.56,541.99 588.43,541.78 L588.4,541.74 C585.34,536.44 583.77,532.42 583.4,529.24 C583.33,527.77 583.56,525.86 584.16,523.35 L584.68,521.21 C584.86,519.81 584.82,519.02 584.57,518.56 C584.14,518.02 583.04,517.27 581.04,516.25 L580.98,516.22 L580.92,516.17 C580.05,515.66 578.77,515.77 576.46,516.63 C573.35,518.04 571.71,520.53 570.91,525.17 L570.91,525.17 C570.9,525.31 570.88,525.46 570.85,525.63 C570.41,528.34 570.53,529.7 571.16,530.4 C571.79,530.53 572.6,530.74 573.6,531.05 C574.91,531.47 576.04,531.74 577.01,531.9 L577.03,531.9 L577.06,531.91 C579.43,532.33 581.21,533.87 583.17,537.33 L583.19,537.37 L585.3,542.02 L587.4,546.65 C587.42,546.72 587.49,546.91 587.59,547.24 C589.2,552.44 590.57,556.14 591.69,558.45"/>
  <path fill="#f9dd16" d="M527.11,674.28 C527.19,673.52 527.21,666.85 527.19,666.73 L519.32,653.99 C519.69,654.12 528.82,657.33 528.99,657.32 C529.06,656.89 532.26,644.94 532.3,644.72 C534.32,649.67 535.69,654.99 537.34,660.08 L546.79,666.48 L540.53,673.27 L542.46,687.9 C539.9,685.27 537.87,681.84 535.68,678.84 L528.57,679.31 C528.56,679.28 527.37,674.82 527.11,674.28"/>
  <path fill="#000" d="M526.32,673.86 C526.36,673.6 526.41,672.37 526.44,670.12 L526.44,667.72 C526.44,667.4 526.43,667.16 526.42,667 C526.42,667 526.42,666.99 526.42,666.99 C525.65,665.94 524.35,663.95 522.53,661.02 L519.85,656.63 L518.98,655.17 L518.73,654.72 C518.69,654.64 518.65,654.57 518.63,654.51 C518.59,654.41 518.56,654.31 518.53,654.21 C518.49,653.99 518.48,653.78 518.52,653.57 C518.66,653.04 518.86,652.85 519.28,652.86 C519.36,652.88 519.93,653.08 520.99,653.48 L526.07,655.37 C526.99,655.7 527.7,655.93 528.19,656.08 L528.39,656.14 L530.29,648.89 L531.16,645.68 L531.43,644.67 L531.48,644.65 C531.48,644.48 531.5,644.32 531.55,644.17 C531.74,643.66 531.97,643.51 532.41,643.63 C532.63,643.71 532.79,643.85 532.94,644.1 C532.97,644.16 533,644.22 533.02,644.29 C533.04,644.33 533.06,644.38 533.09,644.46 L533.25,644.94 L533.83,646.66 L535.56,651.96 L537.95,659.29 L548.33,666.33 L541.42,673.82 L542.31,680.51 L543.28,687.9 L543.28,687.98 C543.28,688.42 543.18,688.69 542.92,688.91 C542.73,689.04 542.56,689.07 542.34,689 C542.24,688.96 542.15,688.91 542.06,688.83 C542.01,688.79 541.97,688.74 541.91,688.68 C541.85,688.61 541.77,688.51 541.66,688.37 L540.88,687.36 L538.54,684.23 L535.43,679.99 L528.02,680.48 L527.79,679.56 C527.09,676.7 526.65,675.22 526.56,675.02 L526.18,674.5 L526.32,673.86 M527.96,674.17 C528.24,674.93 528.63,676.25 529.11,678.14 L535.94,677.69 L536.23,678.09 L539.63,682.71 L541.25,684.9 L540.7,680.67 L539.64,672.73 L545.25,666.65 L536.74,660.88 L536.6,660.44 L534.08,652.68 L532.43,647.66 L531.84,649.88 L529.81,657.4 C529.8,658.11 529.6,658.4 529.07,658.48 C528.98,658.49 528.87,658.48 528.74,658.46 C528.57,658.43 528.33,658.37 528.02,658.28 C527.51,658.13 526.78,657.88 525.83,657.55 L521.43,655.92 L523.73,659.67 L526.46,664.04 L527.37,665.47 L527.15,665.6 C527.71,665.7 527.96,666.1 528.05,667.05 C528.07,667.26 528.08,667.55 528.08,667.92 L528.08,670.41 C528.06,672.22 528.01,673.47 527.96,674.17 M526.43,667 C526.56,667.55 526.78,667.78 527.22,667.85 C527.1,667.81 526.86,667.57 526.43,667 M528.3,656.53 C528.2,656.71 528.16,656.93 528.17,657.25 C528.17,657.17 528.21,656.93 528.3,656.53 M533,645.42 C533.02,645.37 533.04,645.32 533.06,645.27 C533.11,645.12 533.13,644.97 533.12,644.8 C533.12,644.86 533.08,645.07 533,645.42"/>
  <path fill="#fff" d="M468.54,482.55 C462.57,486.67 442.23,520.82 439.05,526.53 C436.52,534.77 431.59,544.83 426.35,551.35 C420.68,557.19 417.85,564.85 418.77,572.96 C419.19,582.78 423.18,589.65 426.65,596.85 C428.83,600.23 431.14,602.17 433.95,602.84 C439.45,604.49 440.13,606.54 442.9,608.37 C454.58,629.64 471.2,646.16 483.34,659.18 C491,665.36 496.27,671.17 498.24,674.29 C501.84,683.73 501.61,692.22 501.29,696.58 L494.05,740.83 C493.47,753.03 500.24,750.87 501.01,748.52 C504.46,742.67 509.55,747.42 515.98,712.03 L525.65,693.98 C525.82,693.9 529.24,692.15 529.52,691.63 C534.94,681.98 530.6,676.44 526.97,674.07 L519.33,669.58 C519.28,669.51 510.13,657.04 509.85,656.79 C504.97,639.79 483.59,602.59 478.72,597.05 C474.11,592.3 475.66,590.97 470.76,587.43 C467.05,584.27 469.55,585.7 461.24,580.84 C458.95,578.93 460.27,576.08 461.86,574.24 C477.52,563.64 486.57,554.46 501.54,542.31 L500,500 L468.54,482.55"/>
  <path fill="#000" d="M468.41,480.95 L501.03,499.06 L502.64,543.2 L502.16,543.59 L488.66,554.94 C478.18,563.95 469.46,570.79 462.49,575.52 C461.77,576.33 461.33,577.13 461.09,578.1 C460.97,578.77 461.1,579.17 461.57,579.51 C465.79,581.99 468.34,583.68 469.37,584.56 C469.98,585.12 470.59,585.65 471.19,586.16 C473.18,587.58 474.66,589.22 475.88,591.37 C476.83,593.09 477.93,594.55 479.27,595.88 L479.3,595.91 L479.33,595.94 C482.33,599.33 487.62,607.87 495.19,621.8 C503.39,636.98 508.54,648.42 510.79,656.22 C512.26,657.93 515.29,661.96 519.88,668.37 L523.55,670.54 L527.3,672.74 C529.97,674.48 531.58,676.56 532.65,679.68 C533.81,683.92 533.12,687.87 530.36,692.64 L530.3,692.56 C529.69,693.35 528.47,694.21 526.36,695.24 L521.7,703.96 L516.98,712.78 C513.66,731 509.52,742 504.39,746.66 C503.28,747.65 502.51,748.5 502,749.29 C501.32,751.99 499.94,752.59 496.83,751.54 C493.7,750.08 492.57,746.88 493,740.5 L493,740.43 L496.74,717.52 L500.23,696.19 C500.76,688.32 499.82,681.44 497.37,675.02 C494.86,671.07 490.14,666.26 482.89,660.43 L482.81,660.37 L482.75,660.3 L478.29,655.55 C461.18,637.37 449.23,622.09 442.26,609.51 C441.63,609.08 440.89,608.48 440.03,607.69 C438.16,606.04 436.23,604.97 433.89,604.29 C430.76,603.57 428.36,601.63 425.86,597.71 L425.82,597.64 L425.78,597.56 L424.31,594.54 C420.11,585.94 417.98,578.91 417.71,572.97 C416.68,564.03 419.2,556.78 425.64,550.18 C431.03,543.48 435.11,535.5 438.05,525.86 L438.1,525.7 L438.17,525.57 C441.57,519.45 446.13,511.88 451.84,502.85 C459.98,490.06 465.33,483.02 468.01,481.2 L468.41,480.95 M468.7,484.15 C466.13,486.21 461.09,493 453.52,504.9 C447.86,513.82 443.36,521.31 439.99,527.36 C436.94,537.32 432.7,545.57 427.11,552.49 L427.07,552.53 L427.03,552.57 C421.18,558.56 418.91,564.97 419.82,572.84 L419.84,572.95 L419.84,573.05 C420.07,578.41 422.06,584.93 426.03,593.07 L427.49,596.05 C429.56,599.26 431.47,600.81 433.97,601.39 L434.01,601.4 L434.04,601.41 C436.71,602.18 438.92,603.4 441.09,605.32 C441.97,606.13 442.68,606.69 443.23,607.03 L443.53,607.21 L443.73,607.58 C450.53,619.97 462.38,635.15 479.47,653.31 L483.87,657.99 C491.41,664.07 496.36,669.16 499.03,673.44 L499.1,673.56 L499.16,673.7 C501.89,680.76 502.94,688.31 502.35,696.9 L502.34,696.98 L498.83,718.46 L495.11,741.24 C494.82,745.74 495.42,747.81 497.18,748.73 C498.97,749.35 499.71,749.19 499.96,748.09 L500,747.79 L500.13,747.55 C500.77,746.48 501.72,745.37 503.11,744.14 C507.85,739.81 511.75,729.24 514.95,711.54 L514.99,711.28 L519.93,702.06 L524.93,692.71 L525.21,692.59 C525.84,692.29 526.47,691.97 527.11,691.63 C527.65,691.34 528.06,691.1 528.36,690.9 C528.46,690.83 528.54,690.77 528.6,690.72 L528.67,690.62 C530.92,686.69 531.51,683.7 530.7,680.57 C529.91,678.29 528.69,676.74 526.64,675.4 L522.91,673.21 L518.78,670.79 L518.61,670.54 L514.03,664.17 L510.8,659.8 L509.71,658.39 L509.89,658.25 L509.13,658.18 L508.85,657.17 C506.72,649.65 501.66,638.42 493.53,623.37 C486.12,609.73 480.99,601.41 478.14,598.18 C476.6,596.64 475.33,594.94 474.21,592.93 C473.24,591.21 472.03,589.89 470.38,588.73 L470.33,588.7 L470.29,588.66 C469.64,588.11 468.99,587.54 468.33,586.94 C467.43,586.17 465,584.58 460.91,582.18 L460.9,582.17 L460.88,582.16 C459.11,580.9 458.6,579.46 459.04,576.97 C459.42,575.43 460.08,574.21 461.17,573.04 L461.24,572.97 L461.31,572.91 C468.23,568.22 476.92,561.4 487.39,552.41 L500.45,541.41 L498.97,500.95 L468.7,484.15"/>
  <path fill="#f9dd16" d="M499.6,712.77 C499.95,712.56 515.36,709.84 515.54,709.81 L513.86,717.77 L498.15,722.86 L499.6,712.77"/>
  <path fill="#000" d="M498.74,711.67 L499.33,711.49 C502.75,710.46 504.86,709.91 505.69,709.78 C507.22,709.42 508.56,709.03 509.75,708.62 L509.8,708.6 L509.84,708.59 C510.28,708.51 510.87,708.38 511.6,708.22 C512.55,708 513.33,707.84 513.96,707.73 C515.01,707.3 516.3,706.89 517.88,706.52 L518.38,709.03 C516.84,709.4 515.6,709.79 514.62,710.21 L514.54,710.24 L514.45,710.25 C513.85,710.35 513.07,710.51 512.11,710.73 L510.35,711.11 C509.12,711.53 507.73,711.93 506.16,712.3 L506.12,712.31 L506.09,712.31 C505.36,712.42 503.32,712.96 499.92,713.98 L499.32,714.16 L498.74,711.67 M495.81,725.4 C496.26,724.62 496.95,723.88 498,723.07 L498.09,723.01 L498.19,722.97 C498.38,722.91 498.86,722.7 499.64,722.36 C501.59,721.5 502.85,721.05 503.46,720.92 C504.81,720.55 506.01,720.15 507.06,719.73 L507.11,719.71 L507.17,719.69 C507.55,719.61 508.08,719.48 508.73,719.3 C509.57,719.08 510.26,718.91 510.82,718.8 C511.77,718.35 512.92,717.93 514.33,717.54 L514.87,720.04 C513.51,720.42 512.42,720.82 511.54,721.24 L511.45,721.29 L511.36,721.3 C510.83,721.41 510.13,721.57 509.28,721.8 C508.64,721.98 508.12,722.11 507.71,722.2 C506.61,722.63 505.37,723.04 503.97,723.43 L503.94,723.44 L503.9,723.45 C503.43,723.54 502.27,723.97 500.38,724.8 C499.68,725.1 499.2,725.31 498.94,725.41 C498.14,726.03 497.64,726.55 497.34,727.06 L495.81,725.4"/>
  <path fill="#000" d="M454.4,625.72 C455.8,620.37 458.2,615.72 461.84,611.35 C465.18,607.55 468.28,605.23 471.58,604.01 L472.14,606.2 C469.06,607.35 466.15,609.53 462.98,613.14 C459.54,617.28 457.27,621.64 455.96,626.65 L454.4,625.72"/>
  <path fill="#000" d="M500,632.37 C500.45,632.47 500.7,632.68 500.88,633.12 C501.06,633.69 500.98,634.13 500.59,634.65 C500.34,634.96 500.1,635.28 499.89,635.63 C499.55,636.54 498.87,637.37 497.64,638.32 C496.22,639.33 495.08,639.73 493.86,639.69 C492.42,639.76 491.16,639.74 490.03,639.65 C489.84,639.62 489.6,639.54 489.26,639.37 C489.1,639.28 489.01,639.24 488.99,639.24 L488.92,636.99 C489.11,637.01 489.35,637.1 489.69,637.27 C489.85,637.35 489.94,637.39 489.96,637.4 C491.04,637.49 492.26,637.5 493.66,637.44 L493.7,637.43 L493.74,637.44 C494.66,637.48 495.56,637.15 496.74,636.31 C497.74,635.55 498.23,634.99 498.38,634.51 L498.42,634.35 L498.5,634.21 C498.78,633.74 499.09,633.3 499.43,632.88 C499.48,632.83 499.5,632.8 499.5,632.79 C499.3,633.13 499.27,633.47 499.43,633.95 C499.57,634.29 499.69,634.48 499.84,634.57 L499.8,633.46 L499.77,632.34 L499.86,632.35 L499.91,632.35 L500,632.36 L500,632.37"/>
  <path fill="#000" d="M501.88,697.35 L502.05,697.36 L502.11,697.37 L502.59,697.41 L503.03,697.46 C503.49,697.5 504.15,697.62 505.02,697.81 C505.71,697.96 506.2,698.06 506.51,698.1 C506.92,698.14 507.53,698.27 508.34,698.5 C509.08,698.71 509.61,698.82 509.95,698.86 L510.01,698.87 L510.07,698.89 C510.43,698.98 511.02,699.1 511.84,699.23 C512.71,699.37 513.36,699.49 513.8,699.61 C514.22,699.68 514.81,699.8 515.55,699.99 C516.42,700.2 517.09,700.33 517.57,700.38 L517.58,700.39 L517.6,700.39 C517.86,700.43 518.18,700.49 518.56,700.58 L520.63,700.99 L520.64,703.23 C520.14,703.18 519.54,703.07 518.83,702.89 L518.48,702.8 L517.61,702.63 C517.07,702.57 516.35,702.43 515.43,702.2 C514.71,702.02 514.16,701.9 513.77,701.85 L513.73,701.84 L513.68,701.83 C513.3,701.72 512.69,701.6 511.84,701.47 C511.01,701.34 510.38,701.22 509.97,701.11 C509.55,701.05 508.96,700.93 508.18,700.71 C507.45,700.5 506.91,700.38 506.55,700.34 C506.2,700.3 505.67,700.2 504.94,700.04 C504.12,699.86 503.51,699.75 503.11,699.7 L502.66,699.66 L502.19,699.62 L502.13,699.61 L502.12,699.61 L501.96,699.6 L501.96,699.58 C501.51,699.43 501.32,699.11 501.27,698.41 C501.27,697.71 501.44,697.43 501.88,697.36 L501.88,697.35"/>
  <path fill="#000" d="M494.67,735.54 C495.07,734.76 495.7,734.02 496.65,733.22 L496.73,733.15 L496.82,733.11 C496.99,733.04 497.43,732.84 498.15,732.49 C499.94,731.62 501.09,731.15 501.64,731.02 C502.88,730.63 503.97,730.23 504.93,729.8 L504.98,729.78 L505.03,729.77 C505.39,729.67 505.87,729.54 506.47,729.36 C507.23,729.13 507.87,728.95 508.38,728.84 C509.24,728.38 510.3,727.96 511.58,727.55 L512.1,729.76 C510.86,730.15 509.86,730.55 509.06,730.99 L508.98,731.03 L508.89,731.05 C508.4,731.16 507.77,731.33 506.99,731.56 C506.4,731.74 505.92,731.88 505.55,731.97 C504.55,732.42 503.41,732.84 502.13,733.23 L502.1,733.24 L502.06,733.25 C501.63,733.35 500.58,733.78 498.85,734.62 C498.21,734.94 497.77,735.15 497.53,735.25 C496.8,735.88 496.33,736.42 496.06,736.94 L494.67,735.54"/>
  <path fill="#000" d="M515.89,683.84 C515.69,684.85 515.77,685.66 516.14,686.53 C516.28,686.83 516.39,687.08 516.47,687.29 C517.38,688.73 518.68,689.87 520.7,690.97 C521.5,691.34 522.42,691.84 523.46,692.46 C523.93,692.59 524.43,692.82 525,693.18 L525.2,693.31 L524.66,695.34 L524.45,695.2 C523.99,694.91 523.6,694.74 523.26,694.66 L523.15,694.63 L523.04,694.57 C522.01,693.94 521.11,693.46 520.32,693.09 L520.31,693.08 L520.29,693.08 C517.88,691.76 516.3,690.33 515.15,688.44 L515.09,688.32 L515.04,688.19 C515,688.06 514.92,687.87 514.79,687.59 C514.13,686.07 513.99,684.66 514.31,682.96 L515.89,683.84"/>
  <path fill="#000" d="M421.25,579.24 L421.28,580.3 L421.32,581.43 L421.23,581.42 L421.2,581.42 L421.18,581.42 L421.09,581.41 L421.09,581.4 C420.6,581.3 420.34,581.07 420.17,580.57 C420.02,579.93 420.16,579.51 420.66,579.07 C420.98,578.81 421.29,578.54 421.57,578.24 C421.8,577.9 422.11,577.49 422.51,577.01 C422.94,576.48 423.26,576.04 423.48,575.67 L424.79,577.19 C424.53,577.64 424.15,578.16 423.66,578.76 C423.28,579.22 423,579.61 422.8,579.91 L422.75,579.97 L422.7,580.03 C422.35,580.39 421.98,580.73 421.58,581.05 L421.48,581.13 C421.77,580.83 421.83,580.49 421.69,579.93 C421.58,579.58 421.45,579.38 421.25,579.24"/>
  <path fill="#000" d="M436.63,602.82 L443.02,598.68 C447.5,595.74 449.89,593.94 450.48,593.26 L450.53,593.2 L450.58,593.15 C450.84,592.91 451.22,592.52 451.71,591.99 C452.42,591.22 453,590.63 453.47,590.22 L453.51,590.19 L453.55,590.16 C453.81,589.99 454.17,589.69 454.63,589.26 C454.93,588.98 455.17,588.76 455.37,588.6 C455.57,588.23 455.85,587.8 456.2,587.29 C456.6,586.73 456.85,586.3 456.97,586 L457.04,585.83 L457.14,585.7 C457.3,585.51 457.41,585.19 457.49,584.67 C457.61,583.94 457.77,583.38 457.98,582.93 L458.19,582.04 C458.57,580.5 458.79,579.49 458.86,579 L460.47,579.67 C460.38,580.24 460.15,581.34 459.75,582.97 L459.51,583.97 L459.47,584.14 L459.4,584.27 C459.28,584.5 459.18,584.84 459.1,585.35 C458.95,586.24 458.72,586.87 458.38,587.37 C458.18,587.81 457.87,588.33 457.44,588.95 C457.07,589.47 456.82,589.88 456.66,590.18 L456.57,590.36 L456.43,590.48 C456.25,590.62 455.99,590.85 455.66,591.16 C455.15,591.63 454.74,591.97 454.42,592.19 C454,592.57 453.46,593.11 452.81,593.81 C452.32,594.34 451.93,594.74 451.65,595.02 C450.87,595.88 448.35,597.78 443.85,600.74 C439.34,603.67 437.03,604.99 436.71,605.07 L436.63,602.82"/>
  <path fill="#000" d="M477.75,594.34 C477.79,594.65 477.79,595.31 477.75,596.32 C477.7,597.41 477.69,598.19 477.71,598.67 L477.71,598.7 L477.71,598.73 C477.63,603.27 476.49,606.06 473.92,608.17 L473.02,606.16 C475.08,604.43 475.98,602.23 476.07,598.52 C476.05,597.95 476.06,597.09 476.11,595.94 C476.15,595.11 476.15,594.65 476.14,594.53 L477.75,594.34"/>
  <path fill="#000" d="M453.16,590.96 C453.27,590.99 453.88,591.27 455.02,591.85 L458.93,593.84 L458.94,593.84 L458.96,593.85 C464.51,597.11 469.04,600.93 472.85,605.55 C473.05,605.77 473.42,606.12 473.96,606.59 C474.96,607.47 475.61,608.18 475.99,608.76 C476.48,609.4 477.11,610.34 477.87,611.59 L478.42,612.49 L478.43,612.5 L478.44,612.51 L478.5,612.62 C479.52,614.33 480.22,615.61 480.63,616.47 C481.83,618.1 483.91,622.42 486.84,629.71 C489.4,636.13 490.82,640.01 491.2,641.37 C491.63,642.51 492.04,643.64 492.4,644.78 C492.66,645.24 492.98,645.93 493.37,646.87 L493.87,648.07 L493.91,648.14 L493.93,648.21 C494.17,648.9 494.53,649.69 495.03,650.62 L495.48,651.45 C495.69,651.69 496,652.03 496.4,652.5 C497.19,653.43 497.76,654.03 498.13,654.35 L498.2,654.41 L498.27,654.49 C498.65,654.94 499.18,655.48 499.89,656.1 C500.37,656.52 500.73,656.87 500.99,657.14 C503.38,658.82 508.1,663.11 515.18,670.15 L515.2,670.18 L515.23,670.21 C516.35,671.54 517.23,673 517.94,674.71 C519.03,677.67 518.97,679.64 517.79,681.58 L517.76,681.62 L517.73,681.66 C517.5,681.93 517.16,682.36 516.7,682.97 C515.98,683.92 515.44,684.53 515.04,684.86 C514.47,685.53 513.65,686.13 512.43,686.76 L511.85,687.05 L511.8,687.08 L511.75,687.09 C508.56,688.03 505.77,688.24 502.86,687.77 C502.55,687.71 502.35,687.68 502.26,687.67 L501.11,687.56 L501.03,685.31 L502.18,685.42 C502.32,685.43 502.56,685.47 502.9,685.54 C505.59,685.97 508.19,685.78 511.17,684.91 L511.72,684.63 C512.81,684.07 513.49,683.57 513.9,683.07 L513.98,682.97 L514.07,682.9 C514.35,682.69 514.82,682.16 515.49,681.27 C515.95,680.65 516.31,680.2 516.57,679.9 C517.23,678.75 517.23,677.52 516.53,675.62 C515.94,674.21 515.21,673.01 514.29,671.9 C507.22,664.86 502.57,660.64 500.32,659.08 L500.21,659.02 L500.12,658.91 C499.93,658.7 499.6,658.39 499.13,657.97 C498.37,657.3 497.78,656.71 497.32,656.18 C496.87,655.78 496.24,655.11 495.41,654.14 C494.97,653.61 494.65,653.26 494.47,653.08 L494.35,652.95 L494.26,652.77 L493.76,651.85 C493.19,650.8 492.77,649.86 492.47,649.02 L491.96,647.8 C491.59,646.89 491.3,646.29 491.11,645.97 L491.02,645.82 L490.96,645.64 C490.59,644.48 490.18,643.32 489.73,642.15 L489.69,642.05 L489.66,641.93 C489.38,640.86 488,637.1 485.42,630.61 C482.51,623.37 480.53,619.26 479.53,617.97 L479.41,617.83 L479.33,617.65 C478.99,616.9 478.31,615.66 477.28,613.93 L477.23,613.85 L477.22,613.82 L476.66,612.91 C475.92,611.7 475.34,610.83 474.91,610.29 L474.83,610.2 L474.78,610.09 C474.57,609.75 474.07,609.22 473.2,608.46 C472.58,607.91 472.14,607.5 471.88,607.21 L471.86,607.19 L471.85,607.17 C468.2,602.74 463.85,599.08 458.49,595.93 L454.6,593.95 L453.43,593.35 L453.23,593.21 L453.16,590.96"/>
  <path fill="#000" d="M425.63,551.84 L425.74,551.84 L425.76,551.85 L425.86,551.85 L425.86,551.92 L425.89,551.93 C426.26,552.04 426.61,552.16 426.95,552.27 L427.04,552.31 L427.12,552.36 C427.52,552.62 428.21,553.02 429.22,553.56 L430.32,554.16 C430.52,554.26 430.83,554.39 431.26,554.57 C432.16,554.95 432.77,555.31 433.19,555.66 C433.85,555.95 434.57,556.5 435.45,557.41 L435.92,557.9 L435.96,557.94 L436.01,558 C436.92,559.14 437.82,560.11 438.72,560.92 L438.75,560.94 L438.77,560.96 C439.23,561.42 439.87,561.99 440.69,562.68 C441.3,563.19 441.78,563.61 442.15,563.95 C442.45,564.06 442.83,564.21 443.29,564.42 C444.17,564.8 444.84,565.02 445.35,565.1 L445.36,565.1 L445.37,565.1 L446.58,565.34 C447.63,565.54 448.44,565.67 449.01,565.73 L450.62,565.87 L452.23,566.01 L452.3,568.26 L450.69,568.12 L449.08,567.98 C448.46,567.92 447.61,567.78 446.51,567.56 L445.36,567.34 L445.34,567.34 C444.71,567.24 443.93,566.99 442.94,566.56 C442.43,566.33 442.04,566.17 441.76,566.07 L441.6,566.02 L441.46,565.89 C441.11,565.56 440.61,565.12 439.95,564.57 C439.1,563.86 438.43,563.26 437.92,562.76 C436.94,561.88 435.98,560.84 435,559.62 L434.53,559.13 C433.79,558.37 433.24,557.95 432.79,557.78 L432.57,557.71 L432.4,557.51 C432.22,557.33 431.76,557.07 430.94,556.72 C430.46,556.53 430.11,556.37 429.88,556.25 L429.86,556.24 L429.85,556.23 L428.76,555.65 C427.78,555.12 427.07,554.71 426.61,554.43 L425.69,554.13 C425.02,553.89 424.76,553.51 424.77,552.76 C424.83,552.12 425.07,551.88 425.63,551.84 L425.63,551.84 M425.86,551.93 L425.89,552.98 L425.93,554.06 C426.22,553.94 426.36,553.69 426.4,553.16 C426.42,552.5 426.26,552.15 425.86,551.93"/>
  <path fill="#000" d="M498.67,521.51 C499.22,521.67 499.47,521.97 499.56,522.61 C499.6,523.34 499.36,523.67 498.68,523.8 L497.87,523.93 C497.37,524.22 496.61,524.6 495.58,525.06 C494.66,525.47 494.04,525.78 493.69,525.99 L493.63,526.02 L493.58,526.04 C491.81,526.69 490.52,527.28 489.64,527.8 L488.62,528.53 C487.3,529.47 486.34,530.22 485.71,530.81 L485.66,530.85 L485.61,530.88 C485.16,531.19 484.47,531.69 483.55,532.39 C482.78,532.97 482.21,533.4 481.82,533.67 C480.55,534.53 479.5,535.43 478.6,536.39 L478.54,536.46 L478.48,536.5 C477.17,537.41 476.18,538.22 475.46,538.95 L475.36,539.06 L475.23,539.11 C474.74,539.34 474.17,539.84 473.42,540.72 L473.27,540.91 L471.77,542.6 L470.19,544.39 C470.18,544.39 470.18,544.4 470.17,544.41 L469.21,545.55 L467.76,547.31 L467.71,547.37 L467.66,547.42 C467.27,547.77 466.66,548.48 465.83,549.6 C465.43,550.15 465.13,550.54 464.94,550.78 C464.3,551.88 463.64,552.76 462.93,553.48 L462.71,553.88 C462.02,555.09 461.45,555.92 460.99,556.42 C460.72,556.94 460.25,557.75 459.56,558.85 L459.06,559.65 C458.87,559.96 458.56,560.43 458.12,561.05 C457.64,561.74 457.3,562.25 457.12,562.58 L457.1,562.61 L457.08,562.65 C456.92,562.89 456.69,563.25 456.39,563.74 C455.83,564.66 455.36,565.35 454.98,565.82 C454.87,566.17 454.72,566.53 454.51,566.92 C454.43,567.07 454.37,567.18 454.35,567.24 L452.89,566 C452.95,565.86 453.04,565.67 453.16,565.44 C453.33,565.14 453.42,564.9 453.46,564.71 L453.52,564.4 L453.7,564.2 C454.04,563.8 454.5,563.14 455.08,562.19 L455.79,561.06 C456.02,560.67 456.38,560.11 456.88,559.39 C457.29,558.81 457.58,558.37 457.76,558.09 L458.27,557.27 C458.99,556.12 459.45,555.33 459.66,554.89 L459.74,554.74 L459.85,554.63 C460.21,554.27 460.71,553.54 461.36,552.39 L461.67,551.85 L461.73,551.74 L461.82,551.66 C462.46,551.03 463.05,550.24 463.63,549.21 L463.68,549.13 L463.73,549.07 C463.9,548.86 464.2,548.48 464.61,547.92 C465.48,546.74 466.15,545.96 466.63,545.52 L468.07,543.77 L469.01,542.65 L469.02,542.64 L469.03,542.63 L470.66,540.78 L472.11,539.14 L472.26,538.96 C473.11,537.96 473.82,537.34 474.48,537 C475.24,536.24 476.25,535.41 477.55,534.51 C478.52,533.48 479.64,532.53 480.96,531.63 C481.33,531.37 481.89,530.96 482.63,530.39 C483.55,529.69 484.24,529.18 484.73,528.86 C485.41,528.24 486.4,527.45 487.75,526.5 L488.77,525.76 L488.79,525.75 L488.82,525.73 C489.76,525.18 491.11,524.56 492.94,523.88 C493.34,523.64 494,523.32 494.92,522.91 C495.98,522.44 496.72,522.07 497.16,521.8 L497.26,521.73 L497.37,521.71 L498.22,521.58 L498.21,521.46 L498.33,521.47 L498.45,521.48 L498.52,521.49 L498.67,521.5 L498.67,521.51 M498.22,521.64 C497.98,521.84 497.9,522.13 497.94,522.66 C497.99,523.09 498.09,523.36 498.28,523.55 L498.25,522.58 L498.22,521.64"/>
  <path fill="#f9dd16" d="M425.54,573.71 C429.01,573.84 434.72,575.52 434.88,575.57 L442.47,576.04 C446.47,575.64 447.18,573.97 447.85,572.41 C449.28,569.41 450.2,568.35 451.31,566.11 C453.36,564.85 455.56,568.64 455.88,569.02 C462.28,578.37 457.89,587.38 457.41,588.04 C454.25,591.81 453.73,591.97 451.61,589.25 C449.55,585.89 448.89,584.53 447.28,583.22 C443.76,581.18 438.01,581.88 437.61,581.93 C437.5,581.96 434.35,583.38 434.34,583.39 C432.82,584.17 431.82,585.7 429.16,586.27 C426.34,586.25 425.57,585.89 424,582.71 C422.14,578.27 422.75,574.41 425.54,573.71"/>
  <path fill="#000" d="M425.45,572.59 C427.53,572.62 430.52,573.17 434.65,574.37 L434.85,574.44 L438.62,574.68 L442.38,574.91 C444.8,574.69 446.14,573.81 447.11,571.82 L447.13,571.77 L447.13,571.75 L447.14,571.74 C447.68,570.6 448.36,569.34 449.2,567.94 C449.83,566.91 450.29,566.07 450.61,565.42 L450.68,565.27 L450.79,565.16 C452.33,563.95 453.77,564.7 456.17,567.93 L456.18,567.95 L456.41,568.26 C459.44,572.49 460.58,576.77 460.1,582.07 C459.61,585.84 458.93,587.91 457.95,588.96 C455.04,592.23 453.2,592.51 451.07,590.01 L451.03,589.97 L451.01,589.93 L449.82,587.96 C448.62,586 447.69,584.8 446.95,584.19 C445.01,582.96 442.32,582.57 437.93,583.03 C437.79,583.05 437.7,583.05 437.65,583.05 L437.37,583.23 L436.26,583.72 L434.67,584.46 L434.66,584.46 L434.65,584.47 C434.33,584.61 433.87,584.93 433.24,585.43 C431.83,586.55 430.61,587.15 429.33,587.39 L429.29,587.39 L429.25,587.39 C426.48,587.28 424.81,586.13 423.32,583.25 C422.23,580.83 421.89,578.73 422.2,576.42 C422.71,573.94 423.6,572.88 425.4,572.59 L425.42,572.59 L425.45,572.59 M425.65,574.84 C424.62,575.02 424.1,575.65 423.8,577.14 C423.58,578.79 423.84,580.34 424.67,582.18 C425.74,584.22 426.96,585.05 429.02,585.14 C430.07,584.93 431.09,584.42 432.29,583.47 C433.01,582.89 433.57,582.51 434,582.31 C434.01,582.31 434.01,582.31 434.02,582.31 C436.23,581.28 437.39,580.83 437.58,580.8 L437.62,580.79 C442.34,580.29 445.35,580.76 447.62,582.24 C448.57,583.02 449.68,584.42 451.04,586.65 L452.18,588.54 C453,589.6 453.5,590 453.9,589.97 C454.42,589.79 455.34,588.95 456.83,587.16 L456.88,587.1 L456.93,587.06 C457.57,586.37 458.07,584.71 458.47,581.48 C458.86,576.98 457.91,573.43 455.34,569.79 L455.34,569.78 C455.26,569.69 455.17,569.57 455.08,569.44 C453.52,567.28 452.66,566.62 451.93,566.97 C451.58,567.65 451.11,568.49 450.51,569.49 C449.71,570.81 449.07,572 448.57,573.06 L448.55,573.08 L448.54,573.11 C447.27,575.74 445.59,576.89 442.58,577.17 L442.55,577.17 L438.72,576.93 L434.92,576.69 C434.87,576.68 434.72,576.65 434.46,576.57 C430.48,575.41 427.61,574.88 425.65,574.84"/>
  <path fill="#f9dd16" d="M507.57,544.56 C504.48,542.05 502.63,541.46 501.38,542.16 C499.7,529.02 498.2,515.91 496.05,502.74 L468.54,482.55 C471.33,480.37 472.5,478.44 472.55,476.56 C481.56,482.39 490.48,488.42 499.69,493.73 L523.57,472.86 C523.82,477.48 524.62,480.09 525.74,481.24 C518.42,488.54 511.01,495.61 503.94,503.48 L507.57,544.56"/>
  <path fill="#000" d="M507.09,545.78 C504.37,543.55 502.96,542.93 501.98,543.45 L500.62,544.5 L500.33,542.25 L499.2,533.23 L495.13,503.66 L470.32,485.46 L468.12,483.82 L466.3,482.46 L467.96,481.24 C470.44,479.34 471.44,477.96 471.49,476.5 L471.38,474.25 L472.92,475.25 L479.09,479.27 C487.98,485.08 494.77,489.35 499.48,492.08 L521,473.24 L522.93,471.59 L524.53,470.22 L524.63,472.94 C524.83,477.03 525.35,479.1 526.21,480 L527.68,481.2 L526.43,482.45 L521.39,487.45 C514.13,494.62 508.7,500.2 505.07,504.21 L508.36,541.27 L508.63,544.56 L507.65,544.56 L507.09,545.78 M506.3,541.97 L506.25,541.27 L502.88,503.5 L502.81,502.75 L503.21,502.3 C506.87,498.24 512.46,492.47 520.02,485 L524.1,480.97 C523.44,479.63 522.97,477.86 522.69,475.42 L522.27,475.78 L500.34,494.99 L499.9,495.37 L499.38,495.07 C494.62,492.33 487.62,487.94 478.36,481.89 L473.37,478.64 C472.9,480 472.08,481.23 470.69,482.57 L471.17,482.92 L496.46,501.46 L496.97,501.83 L497.09,502.58 C498.2,509.37 499.61,519.53 501.3,533.06 L502.22,540.35 C503.36,540.36 504.61,540.84 506.3,541.97"/>
  <path fill="#1A1A1A" opacity="0.2" d="M8,195.25 C178.83,110.03 349.03,140.83 521.26,167.28 C676.47,191.12 833.42,211.85 992,132.75 L992,804.75 C821.17,889.97 650.97,859.17 478.74,832.72 C323.53,808.88 166.58,788.15 8,867.25 L8,195.25 M39.25,214.64 L39.25,819.14 C345.81,690.88 650.43,915.18 960.75,785.36 L960.75,180.86 C654.19,309.12 349.57,84.82 39.25,214.64"/>
</svg>
