<svg xmlns="http://www.w3.org/2000/svg" viewBox="0 0 64 64" enable-background="new 0 0 64 64"><path d="M32,62c13.1,0,24.2-8.3,28.3-20H3.7C7.8,53.7,18.9,62,32,62z" fill="#ed4c5c"/><path d="M32,2C18.9,2,7.8,10.4,3.7,22h56.6C56.2,10.4,45.1,2,32,2z" fill="#699635"/><path d="m60.3 42c1.1-3.1 1.7-6.5 1.7-10 0-3.5-.6-6.9-1.7-10h-56.6c-1.1 3.1-1.7 6.5-1.7 10 0 3.5.6 6.9 1.7 10h56.6" fill="#ffce31"/><circle cx="32" cy="32" r="14" fill="#428bc1"/><g fill="#ffce31"><path d="m35.8 33.3l6.1-4.3h-7.5l-2.4-7-2.3 7h-7.5l6.1 4.3-2.3 7 6-4.3 6.1 4.3-2.3-7m3.5-3.5l-3.8 2.7-.9-2.7h4.7m-10.1 3.2l1.1-3.2h3.5l1.1 3.2-2.9 2-2.8-2m2.8-8.4l1.5 4.4h-2.9l1.4-4.4m-7.3 5.2h4.7l-.9 2.7-3.8-2.7m2.8 8.4l1.4-4.4 2.4 1.7-3.8 2.7m9 0l-3.8-2.7 2.4-1.7 1.4 4.4"/><path d="m31.6 37.3v4.7h.8v-4.7l-.4-.3z"/><path d="m25.9 32.7l-3.9 1.1.2.8 4.6-1.3z"/><path d="m29.1 28.1l.2-.8-3.1-3.8-.6.5 3.3 4.1z"/><path d="m35.1 28.1l3.3-4.1-.6-.5-3.1 3.8.2.8z"/><path d="m38.1 32.7l-.9.6 4.6 1.3.2-.8z"/></g></svg>