<svg xmlns="http://www.w3.org/2000/svg" viewBox="0 0 64 64" enable-background="new 0 0 64 64"><path d="m60 42c-5.5 0-10-4.5-10-10h-39.2v21.2c5.4 5.4 12.9 8.8 21.2 8.8 13.1 0 24.2-8.4 28.3-20-.1 0-.2 0-.3 0" fill="#ed4c5c"/><path d="m60 22c.1 0 .2 0 .3 0-4.1-11.6-15.2-20-28.3-20-8.3 0-15.8 3.4-21.2 8.8v21.2h39.2c0-5.5 4.5-10 10-10" fill="#83bf4f"/><path d="m60.3 22h-49.5v20h49.5c1.1-3.1 1.7-6.5 1.7-10s-.6-6.9-1.7-10" fill="#f9f9f9"/><path d="M10.8,10.8C5.4,16.2,2,23.7,2,32s3.4,15.8,8.8,21.2L21,32L10.8,10.8z" fill="#42ade2"/><g fill="#ffe62e"><path d="m33.7 24.1h-.6l-.3.5-.3-.5h-.6l.3-.5-.3-.5h.6l.3-.5.3.5h.6l-.3.5.3.5"/><path d="m31.2 24.3l-.6.1-.2.6-.4-.4-.6.1.2-.6-.4-.4.6-.1.2-.6.4.4.6-.1-.2.6.4.4"/><path d="m28.7 24.8l-.5.3v.6l-.5-.3-.5.3.1-.6-.5-.3.5-.3.1-.6.5.3.5-.3v.6l.3.3"/><path d="m34.4 24.1h.6l.3.5.3-.5h.6l-.3-.5.3-.5h-.6l-.3-.5-.3.5h-.6l.3.5-.3.5"/><path d="m36.9 24.3l.6.1.2.6.4-.4.6.1-.2-.6.4-.4-.6-.1-.2-.6-.4.4-.6-.1.2.6-.4.4"/><path d="m39.3 24.8l.5.3v.6l.5-.3.5.3v-.6l.5-.3-.5-.3v-.6l-.5.3-.5-.3.1.6-.6.3"/></g><path d="m28.9 25.6h10.2v10.7c0 3.6-4.7.8-5.1 2.7-.7-2-5.1.9-5.1-2.9 0-3.8 0-10.5 0-10.5" fill="#3e4347"/><path d="m29.3 26.1h9.4v9.8c0 3.3-4.3.8-4.7 2.5-.6-1.8-4.7.8-4.7-2.7 0-3.4 0-9.6 0-9.6" fill="#fff"/><path d="m35.3 30l-.3-.3c0 0-.3.1-.7.5 0-.2 0-.5.1-.7h-.5v.7c-.1-.1-.3-.4-.7-.5l-.1.4c.9.5.5 4.9-.5 6.8h2.4c-1-3.4-.8-6.3.3-6.9" fill="#89664c"/><path d="m35.5 27.8c.2-.2.2-.2.5-.2.1-.4.7-.4.8.1.5-.1.6.2.4.5.5-.1 1 0 .8.6.9.2.6.9.2 1-.1.4-.4.5-.9.4-.6.5-1 .3-1.3-.2-.7.1-.8-.1-1.1-.5-.6.2-.7.2-1.1-.1 0 .4-.2.3-.4.2 0 .5-.2.7-.6.5.3.7-.5 1-.9.4-.4 0-.4-.1-.6-.2-.2.5-.7.5-.9.2-.7-.1-.7-.5-.1-.5.1-.4.4-.3.7-.3 0-.3.2-.2.3-.2-.1-.2 0-.3.2-.3-.3-.5-.1-.6.2-.8-.2-.4.1-.4.4-.4 0-.5.1-.5.6-.6-.1-.2 0-.3.3-.3-.2-.5.1-.6.5-.5.1-.7 1.5-.3 1.4.6.3.2.4.2.6.6" fill="#83bf4f"/><path d="m41.4 33.5c-.2 1.2-1.5 1.7-1.4 2.5.2.2.6 1.1.6 1.1-.3.4-.5.7-1.6 1.2-1.4.5-3.3.2-3.3.2l.1 1.3h-3.7l.1-1.3c0 0-1.9.3-3.3-.2-.9-.4-1.4-.9-1.7-1.3 0 0 .7-1 .7-1 .2-.8-1.2-1.3-1.4-2.5-.1 2-1.1 2.7.2 3.3-.1.3-.2.7-.3.9.5 2.4 4.9 2.5 4.9 2.5v.5c0 .9 5.5.9 5.5 0v-.5c0 0 4.4-.1 4.9-2.5-.2-.4-.3-.9-.3-.9 1.1-.6.1-1.3 0-3.3" fill="#d3d3d3"/></svg>