<?xml version="1.0" encoding="UTF-8" standalone="no"?><svg xmlns:dc="http://purl.org/dc/elements/1.1/" xmlns:cc="http://creativecommons.org/ns#" xmlns:rdf="http://www.w3.org/1999/02/22-rdf-syntax-ns#" xmlns:svg="http://www.w3.org/2000/svg" xmlns="http://www.w3.org/2000/svg" viewBox="0 0 45 45" style="enable-background:new 0 0 45 45;" xml:space="preserve" version="1.1" id="svg2"><metadata id="metadata8"><rdf:RDF><cc:Work rdf:about=""><dc:format>image/svg+xml</dc:format><dc:type rdf:resource="http://purl.org/dc/dcmitype/StillImage"/></cc:Work></rdf:RDF></metadata><defs id="defs6"><clipPath id="clipPath16" clipPathUnits="userSpaceOnUse"><path id="path18" d="M 0,36 36,36 36,0 0,0 0,36 Z"/></clipPath></defs><g transform="matrix(1.25,0,0,-1.25,0,45)" id="g10"><g id="g12"><g clip-path="url(#clipPath16)" id="g14"><g transform="translate(36,9)" id="g20"><path id="path22" style="fill:#cf1b2b;fill-opacity:1;fill-rule:nonzero;stroke:none" d="m 0,0 c 0,-2.209 -1.791,-4 -4,-4 l -28,0 c -2.209,0 -4,1.791 -4,4 l 0,18 c 0,2.209 1.791,4 4,4 l 28,0 c 2.209,0 4,-1.791 4,-4 L 0,0 Z"/></g><g transform="translate(19.0186,19.4253)" id="g24"><path id="path26" style="fill:#f8dc15;fill-opacity:1;fill-rule:nonzero;stroke:none" d="m 0,0 c 0,-0.764 -0.619,-1.383 -1.383,-1.383 -0.764,0 -1.383,0.619 -1.383,1.383 0,0.764 0.619,1.383 1.383,1.383 C -0.619,1.383 0,0.764 0,0"/></g><g transform="translate(19.0186,18.6836)" id="g28"><path id="path30" style="fill:#f8dc15;fill-opacity:1;fill-rule:nonzero;stroke:none" d="m 0,0 c 0,-0.764 -0.619,-1.383 -1.383,-1.383 -0.764,0 -1.383,0.619 -1.383,1.383 0,0.764 0.619,1.383 1.383,1.383 C -0.619,1.383 0,0.764 0,0"/></g><g transform="translate(9.8579,23.8901)" id="g32"><path id="path34" style="fill:#ffffff;fill-opacity:1;fill-rule:nonzero;stroke:none" d="m 0,0 c 0.407,0.204 1.33,-1.544 2.059,-1.501 0.729,0.042 2.616,1.439 3.646,1.534 0,0 0,0.439 0.857,0.439 0.859,0 0.986,-0.431 1.073,-0.988 0,0 0.685,-1.071 0.986,-1.886 0.301,-0.815 0.301,-1.373 0.301,-1.373 0,0 -0.644,-0.643 -1.03,-0.686 -0.386,-0.043 -1.458,0.343 -1.458,0.343 0,0 -0.214,1.626 -0.3,2.121 l -0.3,0.324 c 0,0 -0.428,-0.472 -1.201,-0.6 C 3.86,-2.402 2.66,-2.359 2.23,-2.445 1.801,-2.531 1.845,-3.088 1.458,-3.045 1.073,-3.003 1.373,-2.145 0.686,-1.673 0,-1.201 -0.515,-0.257 0,0"/></g><g transform="translate(11.6279,21.1079)" id="g36"><path id="path38" style="fill:#f8dc15;fill-opacity:1;fill-rule:nonzero;stroke:none" d="M 0,0 0.376,-0.327 0.857,-0.203 0.662,-0.661 0.928,-1.08 0.433,-1.036 0.115,-1.419 0.004,-0.934 -0.458,-0.75 -0.03,-0.496 0,0 Z"/></g><g transform="translate(17.4214,9.8105)" id="g40"><path id="path42" style="fill:#ffffff;fill-opacity:1;fill-rule:nonzero;stroke:none" d="m 0,0 c -0.38,0.252 0.672,1.926 0.271,2.535 -0.402,0.61 -2.555,1.545 -3.152,2.389 0,0 -0.379,-0.219 -0.808,0.525 -0.429,0.742 -0.122,1.069 0.317,1.422 0,0 0.586,1.129 1.142,1.797 0.555,0.669 1.038,0.947 1.038,0.947 0,0 0.879,-0.236 1.109,-0.549 0.23,-0.312 0.432,-1.435 0.432,-1.435 0,0 -1.301,-0.997 -1.686,-1.32 L -1.468,5.889 c 0,0 0.623,-0.135 1.12,-0.741 C 0.151,4.545 0.713,3.482 1.002,3.154 1.291,2.826 1.752,3.143 1.909,2.785 2.065,2.432 1.171,2.262 1.106,1.432 1.04,0.602 0.479,-0.316 0,0"/></g><g transform="translate(18.9458,12.7344)" id="g44"><path id="path46" style="fill:#f8dc15;fill-opacity:1;fill-rule:nonzero;stroke:none" d="M 0,0 0.095,0.49 -0.253,0.846 0.241,0.904 0.471,1.346 0.68,0.893 1.171,0.811 0.807,0.471 0.878,-0.02 0.445,0.223 0,0 Z"/></g><g transform="translate(25.7861,23.3354)" id="g48"><path id="path50" style="fill:#ffffff;fill-opacity:1;fill-rule:nonzero;stroke:none" d="m 0,0 c -0.027,-0.456 -2.003,-0.38 -2.33,-1.032 -0.327,-0.654 -0.062,-2.986 -0.492,-3.926 0,0 0.379,-0.218 -0.051,-0.961 -0.429,-0.743 -0.865,-0.639 -1.39,-0.436 0,0 -1.27,-0.058 -2.128,0.09 -0.856,0.147 -1.338,0.425 -1.338,0.425 0,0 -0.235,0.88 -0.081,1.235 0.156,0.356 1.027,1.092 1.027,1.092 0,0 1.515,-0.629 1.987,-0.801 l 0.432,0.097 c 0,0 -0.197,0.608 0.08,1.341 0.273,0.734 0.912,1.752 1.052,2.166 0.139,0.415 -0.364,0.656 -0.134,0.97 0.229,0.313 0.822,-0.377 1.573,-0.018 C -1.04,0.6 0.035,0.573 0,0"/></g><g transform="translate(22.4922,23.1938)" id="g52"><path id="path54" style="fill:#f8dc15;fill-opacity:1;fill-rule:nonzero;stroke:none" d="M 0,0 -0.471,-0.163 -0.605,-0.642 -0.903,-0.244 -1.4,-0.265 -1.113,0.142 -1.287,0.608 -0.812,0.463 -0.422,0.771 -0.415,0.273 0,0 Z"/></g></g></g></g></svg>
