<svg xmlns="http://www.w3.org/2000/svg" viewBox="0 0 1000 1000">
  <defs/>
  <path fill="#e32118" d="M8,195.25 C178.83,110.03 349.03,140.83 521.26,167.28 C676.47,191.12 833.42,211.85 992,132.75 L992,804.75 C821.17,889.97 650.97,859.17 478.74,832.72 C323.53,808.88 166.58,788.15 8,867.25 L8,195.25"/>
  <path fill="#fff" d="M8,195.25 C178.83,110.03 349.03,140.83 521.26,167.28 C676.47,191.12 833.42,211.85 992,132.75 L992,580.75 C821.17,665.97 650.97,635.17 478.74,608.72 C323.53,584.88 166.58,564.15 8,643.25 L8,195.25"/>
  <path fill="#3e9a00" d="M8,195.25 C178.83,110.03 349.03,140.83 521.26,167.28 C676.47,191.12 833.42,211.85 992,132.75 L992,356.75 C821.17,441.97 650.97,411.17 478.74,384.72 C323.53,360.88 166.58,340.15 8,419.25 L8,195.25"/>
  <path fill="#0073ce" d="M8,195.25 L8,867.25 C89.18,715.82 170.36,590.36 254,475.34 C172.88,365.3 91.65,267.73 8,195.25"/>
  <path fill="#fff" d="M447.52,424.47 L552.21,440.42 L552.21,552.75 C551.5,590.5 504.89,554.3 500,573.64 C492.19,551.97 448.43,574.73 447.79,534.61 L447.59,445.29 L447.52,424.47"/>
  <path fill="#000" d="M552.86,439.84 L552.86,552.85 C552.72,562.97 549.54,568.54 542.66,570.75 C539.96,571.47 536.74,571.69 532.68,571.39 C530.31,571.17 526.7,570.64 521.82,569.76 C514.99,568.53 510.37,568.05 507.78,568.22 C503.59,568.76 501.58,570.36 500.64,573.88 L500.16,576.16 L499.38,573.77 C497.94,569.85 495.49,567.36 491.16,565.47 C488.47,564.45 483.89,563.45 477.22,562.54 C472.43,561.9 468.9,561.3 466.58,560.78 C462.65,559.79 459.52,558.52 456.9,556.88 C450.36,552.39 447.27,545.36 447.14,534.51 L447.08,492.12 L446.86,424.37 L446.86,423.7 L552.86,439.84 M448.18,425.24 L448.39,492.31 L448.45,534.7 C448.58,545 451.43,551.58 457.48,555.76 C459.96,557.3 462.92,558.5 466.69,559.45 C468.96,559.97 472.45,560.56 477.2,561.2 C480.58,561.65 483.07,562.03 484.68,562.33 C487.36,562.86 489.6,563.49 491.47,564.21 C495.55,565.99 498.09,568.25 499.89,571.68 C501.29,568.75 503.47,567.36 507.48,566.87 C509.29,566.74 511.5,566.82 514.22,567.15 C515.84,567.37 518.38,567.78 521.86,568.42 C526.69,569.29 530.26,569.82 532.59,570.04 C536.51,570.32 539.58,570.11 542.14,569.44 C548.49,567.37 551.4,562.19 551.55,552.66 L551.55,440.99 L448.18,425.24"/>
  <path fill="#73452b" d="M507.38,556.86 C507.28,556.94 506.13,557.92 503.55,556.55 C501.39,554.37 500.82,484.67 500.82,484.17 C506.44,478.93 510.57,477.6 510.66,477.57 L513.94,480.88 C501.7,485.67 502.71,494.63 503.83,510.95 C504.09,516.89 504.16,524.42 505.47,531.93 C507.47,541.46 511.07,549.9 511.48,555.82 C511.29,559.35 507.69,557.04 507.38,556.86"/>
  <path fill="#000" d="M507.41,557.03 C507.16,557.21 506.85,557.33 506.43,557.41 C505.49,557.53 504.61,557.31 503.5,556.67 C502.5,555.77 501.65,543.9 501.13,519.78 L500.68,484.15 L500.68,484.09 L500.72,484.06 C503.05,481.84 505.33,480.11 507.71,478.75 C508.91,478.09 509.87,477.66 510.61,477.43 L510.68,477.41 L514.19,480.94 L514,481.01 C508.54,483.17 505.52,486.26 504.11,491.12 C503.61,493.24 503.35,495.85 503.34,499.13 C503.36,501.15 503.53,504.55 503.85,509.33 L503.96,510.96 L503.96,510.97 L503.96,510.97 L504.1,514.6 C504.39,522.15 504.9,527.9 505.6,531.92 C506.19,534.75 507.25,538.74 508.82,543.9 C510.57,549.69 511.45,553.61 511.62,555.83 L511.62,555.83 C511.66,556.76 511.49,557.28 511.04,557.65 C510.66,557.9 510.21,557.97 509.53,557.86 C508.82,557.71 508.14,557.45 507.41,557.03 M507.28,556.75 L507.35,556.69 L507.43,556.74 C508.16,557.17 508.84,557.44 509.54,557.58 C510.14,557.68 510.53,557.63 510.87,557.41 C511.24,557.09 511.38,556.64 511.34,555.81 L511.34,555.8 L511.34,555.8 C511.18,553.61 510.3,549.71 508.56,543.95 C506.99,538.78 505.93,534.78 505.33,531.93 C504.62,527.9 504.11,522.13 503.83,514.57 L503.69,510.94 L503.69,510.94 L503.58,509.31 C503.26,504.52 503.09,501.11 503.07,499.09 C503.07,495.79 503.34,493.15 503.85,491.01 C505.26,486.13 508.27,483.01 513.69,480.81 L510.64,477.73 C509.93,477.96 509.01,478.38 507.87,479 C505.52,480.35 503.26,482.06 500.96,484.24 L501.4,519.81 C501.92,543.81 502.72,555.6 503.61,556.43 C504.65,557.03 505.47,557.24 506.35,557.13 C506.77,557.05 507.06,556.93 507.28,556.75"/>
  <path fill="#73452b" d="M498.91,474.07 L503.83,474.83 C499.8,514.81 503.24,539.42 503.28,551.19 C503.5,555.16 505.2,556.78 505.19,556.8 C499.93,561.06 498.01,555.84 497.81,555.38 L498.91,474.07"/>
  <path fill="#000" d="M503.98,474.72 L503.96,474.87 C502.63,488.04 501.97,500.95 501.99,513.62 C502.02,520.85 502.33,529.68 502.94,540.12 C503.25,545.58 503.4,549.27 503.42,551.21 C503.48,553.28 504.01,554.88 505.17,556.49 C505.25,556.59 505.29,556.66 505.31,556.69 C505.34,556.74 505.36,556.79 505.35,556.83 C505.34,556.9 505.32,556.93 505.26,556.94 C503.01,558.99 501.45,559.27 499.59,558.02 C498.74,557.31 498.15,556.51 497.69,555.42 L497.68,555.39 L498.77,473.91 L503.98,474.72 M499.04,474.23 L497.95,555.37 C498.38,556.39 498.94,557.15 499.73,557.8 C501.45,558.95 502.9,558.67 505.04,556.75 L504.96,556.65 C503.76,554.97 503.21,553.31 503.14,551.17 C503.13,549.23 502.98,545.55 502.66,540.09 C502.06,529.65 501.74,520.81 501.72,513.58 C501.7,500.94 502.35,488.08 503.68,474.95 L499.04,474.23"/>
  <path fill="#a36629" d="M491.25,554.37 C486.49,555.43 486.16,551.67 486.33,550.81 C496.43,530.9 500.68,486.39 491.53,479.37 L492.07,474.97 C495.59,476.97 498.8,481.75 498.91,481.91 C500.25,534.06 498.83,554.81 498.09,555.7 C492.87,559.66 491.4,554.28 490.98,553.2 L491.25,554.37"/>
  <path fill="#000" d="M491.31,554.5 C489.15,555.12 487.91,554.81 486.84,553.42 C486.53,552.93 486.32,552.41 486.2,551.8 C486.11,551.26 486.12,550.93 486.21,550.72 C488.63,545.97 490.75,539.89 492.59,532.3 C494.27,525.11 495.43,517.76 496.07,510.2 C496.68,502.47 496.62,495.96 495.92,490.53 C495.03,484.54 493.64,481.23 491.46,479.48 L491.38,479.42 L491.96,474.77 L492.11,474.85 C493.63,475.62 495.16,476.92 496.92,478.99 C497.77,480.02 498.46,480.97 499.02,481.85 L499.04,481.89 L499.04,481.93 C499.64,504.9 499.77,523.61 499.45,538.07 C499.18,549.5 498.68,555.12 498.19,555.82 L498.18,555.82 C496.04,557.66 494.62,557.91 492.98,556.74 C492.21,556.04 491.57,555.03 490.94,553.47 C490.9,553.35 490.87,553.28 490.86,553.25 L491.1,553.16 C491.12,553.19 491.15,553.27 491.2,553.4 C491.79,554.9 492.41,555.87 493.13,556.53 C494.63,557.59 495.96,557.34 497.99,555.59 L497.99,555.59 L497.99,555.59 C498.43,554.95 498.9,549.39 499.18,538.02 C499.5,523.58 499.37,504.89 498.77,481.94 C498.22,481.08 497.55,480.15 496.72,479.15 C495.07,477.2 493.61,475.94 492.19,475.18 L491.67,479.31 C493.89,481.15 495.29,484.52 496.19,490.53 C496.89,495.99 496.95,502.52 496.34,510.26 C495.7,517.84 494.54,525.2 492.85,532.41 C491.01,540.02 488.89,546.12 486.46,550.89 C486.39,551.04 486.39,551.32 486.47,551.79 C486.58,552.36 486.77,552.83 487.06,553.28 C488.03,554.54 489.17,554.81 491.2,554.23 L491.31,554.5"/>
  <path fill="#000" d="M490.85,553.49 C490.72,552.58 490.86,551.45 491.31,549.89 C491.6,548.95 492.19,547.36 493.09,545.1 C494.54,541.47 495.54,538.63 496.13,536.55 C497.09,532.91 497.49,529.64 497.4,526.48 L497.68,526.51 C497.77,529.7 497.36,533 496.4,536.66 C495.8,538.75 494.79,541.6 493.35,545.24 C492.45,547.49 491.86,549.08 491.57,550.01 C491.13,551.52 491,552.62 491.11,553.48 L490.85,553.49"/>
  <path fill="#000" d="M504.5,537.33 C506.99,544.99 507.96,551.36 507.52,556.9 L507.24,556.83 C507.68,551.33 506.72,545 504.24,537.38 L504.5,537.33"/>
  <path fill="#009a3b" d="M515.03,457.52 C516.69,455.82 516.66,455.82 519.68,456.28 C520.82,452.23 526.49,453.19 527.61,458.62 C533.18,458.67 534.03,461.56 531.98,464.88 C537.44,464.44 541.47,466.22 540.45,472.32 C549.59,476.67 546.3,482.05 542.09,483.21 C541.24,487.37 537.98,488.06 532.53,485.68 C525.75,489.28 522.36,487.27 519.13,481.96 C511.73,481.8 511.24,480.27 507.93,475.47 C502.12,477.07 501.17,476.92 496.17,473.09 C495.74,476.87 494.64,475.75 492.07,474.97 C492.15,480.2 490.62,481.8 486.06,479.64 C488.87,487.37 481.3,488.7 476.77,482.41 C472.94,481.99 472.67,481.03 470.75,479.25 C468.58,484.49 463.58,482.9 462.01,479.61 C454.42,477.01 455.12,473.58 461.46,473.92 C462.42,469.64 465.53,470.85 468.29,471.88 C468.75,469.17 470.08,469.88 471.57,470.7 C470.82,468.52 471.25,467.69 473.76,467.39 C470.41,461.94 472.25,460.87 475.95,459.61 C474.35,454.83 477.08,455.56 479.77,455.72 C479.64,450.86 480.76,450.36 485.79,450.48 C485.34,448.6 485.98,447.58 488.79,447.87 C487.36,442.76 489.17,442.19 494.26,443.67 C495.78,436.99 508.89,442.31 508.47,451.75 C512.66,453.05 513.8,453.94 515.03,457.52"/>
  <path fill="#000" d="M515.09,457.26 C515.86,456.48 516.4,456.08 516.79,455.95 C517.2,455.87 518.09,455.91 519.56,456.12 C519.76,455.12 520.18,454.51 521,454.02 C521.81,453.62 522.61,453.53 523.65,453.74 C524.71,454.02 525.52,454.49 526.31,455.3 C527.1,456.22 527.53,457.19 527.73,458.47 C530.41,458.43 531.83,459.01 532.78,460.45 C533.45,461.83 533.31,463.03 532.28,464.7 C535.1,464.5 537.04,464.91 538.74,466.03 C540.61,467.56 541.14,469.3 540.62,472.25 C544.92,474.24 546.52,476.12 546.43,478.97 C546.27,480.08 545.83,480.95 544.98,481.84 C544.14,482.62 543.28,483.08 542.22,483.33 C541.82,485.45 540.94,486.49 539.1,487.06 C537.27,487.41 535.28,487.06 532.55,485.84 C529.27,487.6 526.89,488.02 524.47,487.32 C522.45,486.5 520.8,484.94 519.07,482.1 C515.88,482.04 513.78,481.62 512.31,480.83 C511.34,480.19 510.13,478.87 508.58,476.64 L507.88,475.63 C504.97,476.42 503.03,476.66 501.74,476.47 C500.46,476.15 498.72,475.18 496.29,473.34 C496.14,474.75 495.86,475.44 495.36,475.77 C494.97,475.92 494.34,475.85 493.26,475.49 C492.84,475.35 492.49,475.23 492.22,475.15 C492.28,477.8 491.88,479.26 490.9,480.21 C489.77,481.02 488.48,480.95 486.32,479.93 C486.98,481.67 487.08,482.96 486.7,484.22 C486.22,485.41 485.51,486.04 484.23,486.42 C482.96,486.7 481.79,486.55 480.37,485.91 C478.89,485.15 477.75,484.11 476.7,482.55 C475.32,482.42 474.3,482.16 473.51,481.78 C473.01,481.51 472.41,481.03 471.66,480.3 C471.34,479.97 471.06,479.71 470.83,479.49 C469.88,481.98 468.6,482.89 466.18,482.79 C465.2,482.67 464.38,482.36 463.54,481.79 C462.73,481.17 462.23,480.54 461.91,479.72 C460.1,479.15 458.76,478.52 457.74,477.78 C456.79,477.01 456.4,476.39 456.37,475.64 C456.44,474.92 456.82,474.47 457.75,474.08 C458.7,473.75 459.83,473.65 461.34,473.77 C461.7,471.79 462.47,470.96 464.13,470.76 C465.05,470.75 466.34,471.03 468.17,471.69 C468.37,470.46 468.73,469.95 469.49,469.83 C469.93,469.82 470.5,469.99 471.33,470.42 C471.02,469.43 471.02,468.79 471.32,468.24 C471.71,467.71 472.35,467.41 473.52,467.27 C471.96,464.76 471.56,463.21 472.06,461.86 C472.59,460.95 473.68,460.24 475.77,459.51 C475.06,457.53 475.09,456.53 475.86,455.86 C476.39,455.56 477.33,455.44 478.94,455.53 L479.63,455.57 C479.56,453.19 479.9,451.9 480.74,451.11 C481.59,450.54 483.05,450.28 485.61,450.33 C485.38,449.38 485.49,448.79 485.96,448.25 C486.54,447.73 487.31,447.56 488.6,447.7 C487.89,445.21 488.01,443.96 488.98,443.18 C489.99,442.65 491.51,442.71 494.14,443.49 C494.48,441.84 495.25,441.04 496.94,440.62 C498.53,440.36 500.11,440.63 502.12,441.53 C504.15,442.55 505.65,443.8 506.94,445.52 C508.27,447.54 508.77,449.39 508.62,451.65 C510.68,452.29 512.06,452.94 512.96,453.66 C513.84,454.47 514.5,455.59 515.09,457.26 M515.14,457.63 L514.98,457.8 L514.9,457.55 C514.33,455.81 513.67,454.68 512.8,453.87 C511.92,453.16 510.54,452.52 508.46,451.89 L508.32,451.85 L508.34,451.71 C508.52,449.47 508.04,447.66 506.72,445.66 C505.48,443.99 504.02,442.78 502.04,441.79 C500.09,440.91 498.56,440.65 497.03,440.89 C495.41,441.3 494.67,442.08 494.4,443.71 L494.38,443.85 L494.24,443.81 C491.61,443.01 490.12,442.92 489.15,443.42 C488.25,444.15 488.18,445.37 488.92,447.84 L488.99,448.04 L488.79,448.01 C487.48,447.83 486.72,447.97 486.16,448.46 C485.73,448.96 485.66,449.53 485.92,450.46 L485.97,450.63 L485.8,450.62 C483.21,450.55 481.74,450.8 480.93,451.34 C480.13,452.1 479.82,453.36 479.91,455.73 L479.92,455.86 L479.79,455.86 L478.97,455.81 C477.41,455.72 476.52,455.83 476.04,456.1 C475.36,456.7 475.35,457.66 476.07,459.57 L476.13,459.71 L476,459.74 C473.9,460.46 472.82,461.15 472.31,462.02 C471.84,463.3 472.26,464.82 473.87,467.33 L474,467.52 L473.79,467.54 C472.58,467.65 471.93,467.92 471.55,468.42 C471.27,468.95 471.31,469.6 471.7,470.66 L471.83,470.99 L471.52,470.82 C470.6,470.31 469.98,470.1 469.55,470.11 C468.89,470.22 468.58,470.71 468.43,471.91 L468.41,472.07 L468.26,472.01 C466.4,471.32 465.09,471.03 464.19,471.04 C462.63,471.24 461.92,472.03 461.6,473.96 L461.58,474.08 L461.47,474.07 C459.94,473.93 458.81,474.02 457.88,474.35 C457.05,474.7 456.7,475.08 456.64,475.69 C456.67,476.32 457.02,476.87 457.88,477.56 C458.88,478.29 460.21,478.91 462.03,479.47 L462.11,479.5 L462.14,479.58 C462.43,480.36 462.9,480.97 463.67,481.56 C464.46,482.1 465.24,482.4 466.17,482.51 C468.51,482.6 469.73,481.69 470.62,479.19 L470.68,479.02 L470.83,479.15 C471.09,479.38 471.43,479.7 471.84,480.11 C472.55,480.82 473.13,481.28 473.6,481.53 C474.37,481.9 475.38,482.15 476.76,482.27 L476.83,482.28 L476.88,482.35 C477.9,483.89 479.01,484.91 480.45,485.66 C481.81,486.26 482.92,486.41 484.13,486.15 C485.33,485.79 485.99,485.2 486.44,484.09 C486.82,482.82 486.68,481.5 485.94,479.69 L485.79,479.35 L486.11,479.52 C488.32,480.64 489.61,480.75 490.71,479.98 C491.65,479.06 492.03,477.61 491.94,474.96 L491.93,474.79 L492.09,474.84 C492.38,474.92 492.79,475.05 493.31,475.22 C494.32,475.56 494.88,475.63 495.21,475.51 C495.66,475.21 495.91,474.51 496.04,473.06 L496.05,472.83 L496.24,472.98 C498.73,474.88 500.48,475.87 501.75,476.19 C503.01,476.37 504.95,476.13 507.87,475.33 L507.97,475.3 L508.03,475.4 L508.79,476.5 C510.32,478.69 511.49,479.97 512.42,480.59 C513.85,481.36 515.93,481.77 519.11,481.81 L519.2,481.81 L519.25,481.9 C520.95,484.72 522.55,486.26 524.52,487.06 C526.88,487.73 529.21,487.31 532.45,485.56 L532.5,485.53 L532.57,485.56 C535.26,486.77 537.21,487.12 539,486.78 C540.77,486.24 541.59,485.23 541.96,483.17 L541.97,483.09 L542.05,483.07 C543.11,482.84 543.94,482.39 544.77,481.62 C545.59,480.77 546.01,479.95 546.16,478.9 C546.23,476.18 544.66,474.39 540.42,472.45 L540.29,472.4 L540.32,472.27 C540.87,469.4 540.38,467.71 538.61,466.25 C536.9,465.13 534.93,464.75 532.01,465.02 L531.67,465.06 L531.87,464.79 C533,463.09 533.19,461.9 532.55,460.56 C531.66,459.22 530.27,458.69 527.63,458.76 L527.49,458.76 L527.47,458.61 C527.31,457.33 526.89,456.38 526.12,455.48 C525.39,454.72 524.63,454.27 523.63,454.02 C522.65,453.82 521.91,453.9 521.15,454.28 C520.37,454.75 519.98,455.34 519.82,456.32 L519.8,456.44 L519.68,456.42 C518.18,456.2 517.28,456.15 516.9,456.23 C516.52,456.36 515.97,456.78 515.14,457.63"/>
  <path fill="#000" d="M485.85,450.37 C486.01,450.47 486.26,450.6 486.61,450.74 C487.23,451.01 487.63,451.28 487.9,451.59 C488.25,452.05 488.47,452.67 488.61,453.57 C489.12,452.87 489.59,452.47 490.15,452.26 C490.79,452.09 491.29,452.19 491.87,452.63 C493,453.68 493.52,455.11 493.58,457.57 L493.3,457.52 C493.25,455.18 492.77,453.82 491.73,452.85 C491.23,452.47 490.81,452.39 490.27,452.53 C489.68,452.76 489.18,453.22 488.64,454.07 L488.42,454.42 L488.38,453.98 C488.27,452.92 488.06,452.23 487.7,451.75 C487.47,451.48 487.11,451.25 486.54,451 C486.18,450.85 485.91,450.71 485.73,450.6 L485.85,450.37"/>
  <path fill="#000" d="M508.59,451.85 C508.31,452.19 507.76,452.53 506.8,452.92 C505.76,453.35 505.09,453.75 504.68,454.16 C504.05,454.93 503.84,455.81 503.96,457.2 L503.72,457.26 C502.98,456.15 502.19,455.53 501.11,455.16 C499.98,454.88 499.33,455.09 498.75,455.92 L498.51,455.74 C499.16,454.81 499.89,454.57 501.15,454.89 C502.16,455.23 502.92,455.78 503.65,456.71 C503.62,455.49 503.87,454.67 504.47,453.95 C504.9,453.52 505.59,453.1 506.67,452.65 C507.59,452.28 508.11,451.96 508.36,451.66 L508.59,451.85"/>
  <path fill="#000" d="M515.17,457.55 C515.16,458.41 515.07,459.36 514.89,460.4 C514.62,461.86 514.26,462.86 513.78,463.57 L513.55,463.38 C514.01,462.7 514.36,461.73 514.63,460.31 C514.8,459.28 514.89,458.35 514.9,457.5 L515.17,457.55"/>
  <path fill="#000" d="M532.08,464.8 C532.13,464.86 532.14,464.91 532.12,464.98 C532.1,465.02 532.07,465.05 532.02,465.07 C531.98,465.09 531.91,465.1 531.81,465.1 C531.7,465.1 531.45,465.08 531.07,465.06 C528.68,464.92 527.22,465.09 526.32,465.53 L526.16,465.28 C527.11,464.81 528.61,464.63 531.05,464.77 C531.42,464.8 531.66,464.81 531.77,464.81 C531.84,464.81 531.88,464.81 531.9,464.8 C531.88,464.81 531.87,464.82 531.86,464.85 C531.85,464.9 531.86,464.93 531.88,464.97 L532.08,464.8"/>
  <path fill="#000" d="M542.03,483.33 L541.78,483.15 C540.87,482.55 540.17,482.2 539.63,482.04 C538.64,481.85 537.98,482.08 537.28,482.85 L537.04,483.15 L537.04,482.73 C536.93,479.91 536.14,478.68 534.17,478.23 L534.17,477.95 C536.24,478.41 537.1,479.62 537.3,482.39 C538.01,481.75 538.69,481.57 539.66,481.77 C540.24,481.93 540.96,482.3 541.9,482.92 L542.15,483.09 L542.03,483.33"/>
  <path fill="#000" d="M532.39,485.66 C532.38,484.42 532.26,483.45 532.05,482.68 C531.91,482.23 531.67,481.71 531.32,481.1 L531.55,480.98 C531.92,481.61 532.17,482.16 532.32,482.64 C532.53,483.44 532.65,484.44 532.66,485.71 L532.39,485.66"/>
  <path fill="#000" d="M523.42,480.49 C522.41,479.63 521.62,479.5 520.58,480.02 C519.69,480.57 519.32,481.13 519.27,481.98 L519,481.93 C519.05,480.99 519.45,480.37 520.42,479.76 C521.58,479.19 522.46,479.33 523.59,480.29 L523.42,480.49"/>
  <path fill="#000" d="M507.52,475.4 C507.51,475.25 507.49,474.98 507.44,474.58 C507.34,473.7 507.33,473.08 507.41,472.65 C507.6,471.9 507.96,471.5 508.69,471.26 L508.8,471.53 C508.16,471.75 507.84,472.09 507.67,472.75 C507.61,473.14 507.61,473.74 507.71,474.59 C507.76,475 507.79,475.28 507.79,475.45 L507.52,475.4"/>
  <path fill="#000" d="M476.36,482.32 C476.6,481.3 477.07,480.52 477.91,479.75 C478.42,479.29 478.6,478.94 478.55,478.51 L478.54,478.51 L478.54,478.5 C478.34,477.19 477.83,476.41 476.79,475.79 C475.53,475.23 474.48,475.45 473.04,476.62 L472.84,476.39 C474.38,475.16 475.5,474.92 476.88,475.55 C478.03,476.22 478.59,477.07 478.82,478.51 C478.88,479.03 478.68,479.45 478.1,479.98 C477.3,480.71 476.86,481.45 476.63,482.42 L476.36,482.32"/>
  <path fill="#000" d="M478.64,478.37 C479.49,478.23 480.24,478.26 481.02,478.48 C481.81,478.75 482.28,479.08 482.62,479.6 L482.39,479.72 C482.11,479.28 481.69,478.99 480.98,478.76 C480.24,478.55 479.53,478.51 478.72,478.65 L478.64,478.37"/>
  <path fill="#000" d="M473.94,467.32 C474.54,466.86 475.31,466.74 476.57,466.95 C477.67,467.18 478.63,467.56 479.56,468.16 L479.44,468.39 C478.54,467.82 477.62,467.45 476.56,467.23 C475.38,467.03 474.68,467.14 474.13,467.55 L473.94,467.32"/>
  <path fill="#000" d="M479.5,461.41 C479.63,461.43 479.84,461.46 480.14,461.49 C481.18,461.6 481.92,461.78 482.45,462 C483.28,462.44 483.8,463.01 484.18,463.93 C485.56,462.09 486.68,461.21 487.9,460.93 C488.96,460.81 489.55,461.1 490.01,461.99 L489.76,462.08 C489.38,461.34 488.89,461.1 487.98,461.21 C486.78,461.49 485.66,462.4 484.26,464.32 L484.11,464.54 L484.02,464.25 C483.68,463.28 483.19,462.69 482.37,462.26 C481.87,462.05 481.16,461.88 480.16,461.77 C479.85,461.74 479.63,461.71 479.5,461.69 L479.5,461.41"/>
  <path fill="#000" d="M495.31,462.18 C496.55,461.99 497.78,462.42 499.52,463.72 C501.14,465.04 502.41,466.59 503.53,468.58 C503.96,467.62 504.42,467.09 505.06,466.77 C505.49,466.6 506.1,466.54 507.01,466.6 C507.41,466.63 507.7,466.65 507.9,466.65 L507.95,466.93 C507.74,466.93 507.43,466.92 507.03,466.88 C506.16,466.83 505.59,466.88 505.19,467.03 C504.56,467.35 504.1,467.93 503.68,468.98 L503.58,469.25 L503.43,468.96 C502.32,466.88 501.03,465.29 499.38,463.94 C497.72,462.7 496.55,462.28 495.4,462.46 L495.31,462.18"/>
  <path fill="#000" d="M518.26,471.05 C519.83,470.63 521.04,470.88 522.48,471.93 C523.21,472.54 524.04,473.5 525,474.89 L525.14,475.09 C525.9,474.25 526.6,473.79 527.42,473.58 C527.95,473.48 528.72,473.49 529.79,473.65 L529.79,473.93 C528.75,473.78 528.02,473.76 527.52,473.85 C526.71,474.07 526.02,474.54 525.26,475.42 L525.15,475.55 L525.04,475.39 L524.79,475.02 C523.85,473.66 523.04,472.74 522.34,472.15 C520.99,471.16 519.85,470.93 518.37,471.33 L518.26,471.05"/>
  <path fill="#000" d="M485.12,472.71 C485.6,472.04 486.15,471.74 487.06,471.68 C487.84,471.68 488.48,471.87 489.18,472.32 C489.14,471.17 489.37,470.47 489.96,469.89 C490.62,469.38 491.14,469.35 491.86,469.78 L491.74,470.01 C491.15,469.65 490.71,469.68 490.15,470.12 C489.58,470.68 489.38,471.4 489.48,472.6 L489.51,472.88 L489.27,472.7 C488.56,472.19 487.91,471.97 487.11,471.96 C486.29,472.02 485.78,472.29 485.36,472.89 L485.12,472.71"/>
  <path fill="#ffd700" d="M496.45,416.18 L490.43,415.53 L487.43,420.58 L484.15,414.81 L478.13,414.14 L480.87,409.01 L477.59,403.24 L483.87,403.93 L486.61,398.84 L489.89,404.61 L495.9,405.29 L493.17,410.41 L496.45,416.18"/>
  <path fill="#000" d="M496.47,416.67 L490.72,416.05 L487.45,421.54 L483.89,415.27 L477.34,414.54 L480.32,408.96 L476.74,402.66 L483.57,403.41 L486.56,397.84 L490.14,404.15 L496.69,404.88 L493.72,410.46 L497.3,416.76 L496.47,416.67 M495.6,415.6 L492.62,410.35 L495.11,405.69 L489.63,405.07 L486.65,399.83 L484.17,404.45 L478.44,403.83 L481.42,409.07 L478.93,413.73 L484.4,414.35 L487.4,419.62 L490.15,415.01 L495.6,415.6"/>
  <path fill="#ffd700" d="M470.75,414.27 L464.74,414.86 L463.1,420.58 L458.73,415.44 L452.99,416.04 L454.63,410.32 L450.53,405.17 L456.27,404.54 L457.91,398.8 L462.28,403.94 L468.29,403.39 L466.38,409.09 L470.75,414.27"/>
  <path fill="#000" d="M470.87,414.76 L465.12,415.33 L463.34,421.55 L458.58,415.96 L452.3,416.62 L454.09,410.37 L449.63,404.77 L455.88,404.08 L457.67,397.82 L462.43,403.42 L469.01,402.82 L466.93,409.04 L471.69,414.68 L470.87,414.76 M469.82,413.85 L465.83,409.14 L467.57,403.96 L462.13,404.45 L458.15,399.77 L456.65,405.01 L451.43,405.58 L455.16,410.27 L453.67,415.46 L458.87,414.92 L462.86,419.61 L464.36,414.4 L469.82,413.85"/>
  <path fill="#ffd700" d="M445.88,415.77 L440.41,417.75 L440.14,423.92 L434.95,419.76 L429.48,421.72 L430.03,415.58 L424.83,411.41 L430.3,409.38 L430.85,403.24 L435.77,407.36 L441.23,405.4 L440.96,411.58 L445.88,415.77"/>
  <path fill="#000" d="M446.09,416.24 L440.88,418.12 L440.58,424.86 L434.92,420.31 L428.93,422.47 L429.52,415.76 L423.87,411.22 L429.85,409 L430.44,402.31 L435.81,406.8 L441.75,404.68 L441.45,411.4 L446.82,415.98 L446.09,416.24 M444.94,415.56 L440.47,411.76 L440.72,406.13 L435.73,407.92 L431.25,404.17 L430.75,409.76 L425.8,411.6 L430.53,415.4 L430.03,420.98 L434.98,419.2 L439.7,422.99 L439.95,417.37 L444.94,415.56"/>
  <path fill="#ffd700" d="M504.37,417.41 L510.39,418.62 L513.12,424.55 L516.4,419.8 L522.41,420.97 L519.68,415.01 L522.96,410.25 L516.95,409.04 L513.94,403.06 L510.66,407.82 L504.65,406.64 L507.38,412.61 L504.37,417.41"/>
  <path fill="#000" d="M503.56,417.73 L506.84,412.5 L503.85,405.99 L510.4,407.28 L513.97,402.11 L517.23,408.61 L523.81,409.93 L520.23,415.12 L523.21,421.62 L516.66,420.34 L513.07,425.53 L510.09,419.05 L504.35,417.89 L503.56,417.73 M505.19,417.08 L510.69,418.18 L513.17,423.57 L516.14,419.25 L521.62,420.33 L519.13,414.9 L522.11,410.57 L516.66,409.48 L513.91,404.01 L510.92,408.36 L505.44,407.29 L507.92,412.71 L505.19,417.08"/>
  <path fill="#ffd700" d="M530.07,423.4 L535.81,425.79 L537.45,432 L541.82,428.18 L547.56,430.49 L545.92,424.28 L550.29,420.4 L544.28,418.02 L542.64,411.78 L538.27,415.6 L532.53,413.28 L534.17,419.52 L530.07,423.4"/>
  <path fill="#000" d="M529.17,423.53 L533.63,419.3 L531.84,412.5 L538.12,415.04 L542.88,410.88 L544.66,417.67 L551.23,420.26 L546.46,424.5 L548.24,431.27 L541.97,428.74 L537.21,432.9 L535.42,426.13 L529.95,423.86 L529.17,423.53 M530.97,423.27 L536.19,425.44 L537.69,431.1 L541.67,427.61 L546.88,429.71 L545.38,424.06 L549.36,420.53 L543.9,418.37 L542.4,412.68 L538.41,416.17 L533.21,414.06 L534.7,419.73 L530.97,423.27"/>
  <path fill="#ffd700" d="M554.67,432.32 L560.13,435.89 L560.41,442.15 L565.6,439.48 L571.07,443 L570.79,436.75 L575.71,433.99 L570.25,430.43 L569.97,424.17 L564.78,426.85 L559.31,423.31 L559.86,429.61 L554.67,432.32"/>
  <path fill="#000" d="M553.7,432.24 L559.36,429.29 L558.76,422.41 L564.75,426.28 L570.41,423.36 L570.71,430.18 L576.65,434.06 L571.28,437.07 L571.58,443.88 L565.63,440.05 L559.97,442.96 L559.67,436.14 L554.45,432.73 L553.7,432.24 M555.63,432.41 L560.6,435.65 L560.85,441.34 L565.57,438.92 L570.55,442.13 L570.3,436.43 L574.77,433.93 L569.78,430.67 L569.53,424.98 L564.81,427.41 L559.87,424.22 L560.36,429.93 L555.63,432.41"/>
  <path fill="#fff" d="M562.05,551.95 L568.88,563.01 L575.17,554.37 L570.79,545.64 L562.05,551.95"/>
  <path fill="#000" d="M561.41,551.77 L570.93,544.9 L575.73,554.48 L568.89,563.88 L561.65,552.17 L561.41,551.77 M562.69,552.13 L568.87,562.14 L574.61,554.27 L570.66,546.38 L562.69,552.13"/>
  <path fill="#fff" d="M518.59,574.83 L519.13,585 C519.17,585 521.83,585.34 524.33,584.95 C526.52,584.36 528.39,583.09 528.43,583.06 L528.15,577.7 L518.59,574.83"/>
  <path fill="#000" d="M518.08,574.18 L528.61,577.34 L528.92,583.35 L528.74,583.48 C527.38,584.43 526.02,585.05 524.49,585.44 L524.49,585.44 L524.48,585.44 C522.76,585.73 521.03,585.75 519.13,585.49 L518.68,585.42 L518.11,574.79 L518.08,574.18 M519.1,575.48 L519.59,584.57 C521.21,584.75 522.69,584.72 524.17,584.47 C525.52,584.13 526.72,583.58 527.94,582.77 L527.7,578.06 L519.1,575.48"/>
  <path fill="#fff" d="M481.96,569.17 L481.41,578.89 C481.4,578.89 478.98,578.47 476.49,577.57 C474.32,576.6 472.42,575.01 472.39,574.98 L469.66,567.85 L481.96,569.17"/>
  <path fill="#000" d="M482.44,569.27 L481.87,579.45 L481.41,579.38 C479.73,579.1 478.08,578.66 476.39,578.03 L476.38,578.03 L476.38,578.03 C474.85,577.37 473.47,576.51 472.12,575.34 L472,575.24 L468.96,567.28 L482.47,568.74 L482.44,569.27 M481.45,569.61 L470.36,568.41 L472.78,574.73 C474,575.76 475.24,576.53 476.6,577.11 L476.61,577.11 C478.07,577.66 479.51,578.05 480.96,578.32 L481.45,569.61"/>
  <path fill="#fff" d="M437.95,533.17 L430.85,542.23 L423.19,528.28 L428.93,522.92 L437.95,533.17"/>
  <path fill="#000" d="M438.34,533.51 L430.81,543.11 L422.59,528.13 L428.92,522.22 L438.58,533.2 L438.34,533.51 M437.32,533.14 L428.95,523.62 L423.79,528.43 L430.88,541.35 L437.32,533.14"/>
  <path fill="#fff" d="M472.12,587.82 C473.02,597.32 527.5,606.02 528.43,596.5 L528.43,583.06 C527.46,590.05 473.03,579.96 472.12,574.38 L472.12,587.82"/>
  <path fill="#000" d="M471.64,587.75 L471.64,574.31 L472.6,574.46 C472.88,575.56 475.21,576.77 480.99,578.61 C486.36,580.23 492.77,581.68 500.28,582.96 C507.99,584.23 514.39,584.88 519.56,584.96 C525.38,584.93 527.65,584.37 527.95,582.99 L528.9,583.13 L528.9,596.57 C528.63,599.17 526.05,600.44 519.73,601 C514.39,601.34 507.96,600.95 500.27,599.79 C492.6,598.57 486.16,596.97 480.82,594.99 C474.53,592.5 471.91,590.38 471.64,587.75 M472.6,587.9 C472.87,589.98 475.24,591.77 481.02,594.06 C486.3,596.02 492.67,597.61 500.27,598.81 C507.89,599.96 514.26,600.35 519.53,600.01 C525.34,599.5 527.67,598.48 527.95,596.43 L527.95,584.69 C526.49,585.51 523.95,585.94 519.7,585.95 C514.48,585.87 508.02,585.21 500.27,583.94 C492.72,582.65 486.27,581.19 480.85,579.55 C476.65,578.22 474.03,577.03 472.6,575.91 L472.6,587.9"/>
  <path fill="#fff" d="M421.83,549.37 C427.44,575.66 471.61,582.98 472.12,583.06 L472.12,574.38 C471.21,570.78 472.8,570.11 480.32,570.04 C483.23,569.73 482.06,565.89 481.96,565.53 C481.78,565.54 462.51,565.95 448.34,558.49 C429.55,547.48 426.8,532.7 426.75,532.41 C426.73,532.56 425.21,543.76 421.83,549.37"/>
  <path fill="#000" d="M421.36,549.4 L421.32,549.2 L421.42,549.05 C422.84,546.78 424.07,543.44 425.15,538.7 C425.66,536.33 426.03,534.2 426.27,532.29 L427.22,532.39 C427.33,533.01 427.56,533.84 427.92,534.89 C428.67,537.02 429.64,539.12 430.87,541.27 C435,548.13 440.71,553.56 448.51,558.06 C454.34,561.18 461.49,563.26 470.36,564.39 C474.79,564.9 478.61,565.11 481.88,565.04 L482.29,565.02 L482.42,565.46 C482.65,566.31 482.76,567.11 482.75,567.94 C482.61,569.83 481.97,570.53 480.38,570.54 C476.66,570.56 474.43,570.85 473.3,571.33 C472.35,571.92 472.15,572.73 472.57,574.3 L472.6,574.38 L472.6,583.63 L472.11,583.55 C470.21,583.22 467.81,582.7 464.9,581.96 C459.1,580.45 453.72,578.64 448.69,576.51 C441.64,573.44 435.99,570.01 431.48,566.1 C425.86,560.98 422.65,555.68 421.36,549.4 M422.33,549.53 C424.63,560.37 433.16,568.7 448.94,575.6 C453.92,577.71 459.25,579.5 465,581 C467.64,581.67 469.85,582.16 471.64,582.49 L471.64,574.39 C471.11,572.33 471.43,571.25 472.78,570.43 C474.03,569.89 476.38,569.57 480.25,569.54 L480.26,569.54 L480.28,569.55 C481.29,569.54 481.7,569.06 481.79,567.77 C481.8,567.19 481.74,566.63 481.62,566.04 C478.4,566.09 474.68,565.87 470.39,565.37 C461.39,564.23 454.12,562.1 448.17,558.92 C440.17,554.31 434.31,548.74 430.07,541.69 C428.8,539.47 427.79,537.3 427.02,535.11 L426.91,534.77 C426.69,536.11 426.42,537.53 426.09,539.04 C425,543.78 423.76,547.17 422.33,549.53"/>
  <path fill="#fff" d="M578.45,572.75 C573.03,597.89 529.01,591.82 528.43,591.74 L528.43,583.06 C529.06,579.72 527.46,578.53 519.95,576.16 C517.11,574.98 518.47,571.52 518.59,571.19 C518.79,571.26 538.06,577.58 552.21,574.31 C570.77,568.78 572.93,554.64 572.98,554.35 C573,554.45 575.04,566.22 578.45,572.75"/>
  <path fill="#000" d="M578.92,572.9 C577.68,578.89 574.56,583.25 568.95,586.8 C564.46,589.44 558.89,591.23 551.82,592.23 C546.81,592.87 541.45,593.08 535.64,592.83 C532.74,592.69 530.34,592.49 528.43,592.23 L527.95,592.16 L527.95,582.93 L527.96,582.87 C528.27,581.41 528,580.5 527.01,579.62 C525.86,578.78 523.58,577.79 519.9,576.64 C518.31,576.14 517.69,575.23 517.66,573.31 C517.7,572.48 517.86,571.72 518.14,570.95 L518.28,570.59 L518.67,570.72 C521.95,571.8 525.76,572.76 530.18,573.6 C539.08,575.18 546.2,575.23 552.03,573.83 C559.77,571.61 565.22,567.85 569.16,562.09 C570.32,560.28 571.21,558.46 571.89,556.53 C572.21,555.57 572.41,554.8 572.51,554.21 L573.45,554.33 C573.78,556.32 574.24,558.57 574.84,561.1 C576.1,566.15 577.43,569.89 578.85,572.55 L578.95,572.72 L578.92,572.9 M577.94,572.77 C576.51,570.03 575.17,566.25 573.92,561.22 C573.52,559.58 573.19,558.05 572.91,556.63 L572.8,556.96 C572.1,558.96 571.17,560.85 569.97,562.72 C565.93,568.64 560.31,572.52 552.38,574.8 C546.43,576.22 539.18,576.18 530.15,574.57 C525.87,573.76 522.14,572.84 518.91,571.8 C518.74,572.35 518.65,572.9 518.62,573.49 C518.63,574.77 519.02,575.37 520,575.68 L520.01,575.68 L520.02,575.69 C523.85,576.89 526.25,577.94 527.52,578.87 C528.89,580.08 529.28,581.29 528.9,583.19 L528.9,591.31 C530.7,591.54 532.91,591.72 535.54,591.84 C541.3,592.08 546.61,591.88 551.57,591.25 C567.34,588.99 575.75,583.03 577.94,572.77"/>
  <path fill="#fff" d="M425.38,540.06 C413.05,531.14 422.4,525.53 423.74,504.83 C426.07,517.71 439.11,524.96 437.95,532.89 C432.09,531.77 429.7,523.47 426.75,532.41 L425.38,540.06"/>
  <path fill="#000" d="M425.15,540.46 C421.25,537.62 419.34,535.05 418.69,531.91 C418.51,530.56 418.56,529.05 418.87,527.22 C419.08,526.12 419.52,524.31 420.2,521.78 C421.96,515.22 422.96,509.59 423.26,504.74 L424.21,504.82 C424.7,507.67 425.73,510.42 427.46,513.42 C428.52,515.15 430.24,517.54 432.67,520.61 C434.91,523.45 436.38,525.53 437.14,526.87 C438.37,529.23 438.74,531.1 438.42,533.06 L438.35,533.42 L437.98,533.38 C436.92,533.25 435.92,532.9 434.81,532.25 C434.2,531.86 433.37,531.24 432.32,530.37 C430.89,529.2 430.04,528.73 429.52,528.73 C428.67,528.97 428,530.04 427.21,532.59 L425.73,540.87 L425.15,540.46 M425.03,539.25 L426.28,532.24 L426.29,532.21 C427.19,529.3 428.05,528.05 429.27,527.75 C430.1,527.72 431.17,528.26 432.86,529.63 C434.77,531.19 436.25,532.03 437.55,532.34 C437.7,530.76 437.34,529.2 436.33,527.26 C435.6,525.98 434.17,523.96 431.96,521.17 C429.5,518.06 427.75,515.62 426.66,513.85 C425.48,511.83 424.6,509.89 423.97,507.93 C423.49,512.14 422.55,516.86 421.13,522.16 C420.45,524.67 420.02,526.45 419.81,527.53 C419.52,529.24 419.47,530.65 419.64,531.88 C420.19,534.54 421.78,536.73 425.03,539.25"/>
  <path fill="#fff" d="M574.89,562.46 C587.22,556.69 577.34,548.64 575.99,527.61 C573.65,539.95 560.87,543.3 562.05,551.67 C567.71,552.17 570.01,544.62 572.98,554.35 L574.89,562.18 L574.89,562.46"/>
  <path fill="#000" d="M574.41,563.23 L574.41,562.17 L572.52,554.42 L572.52,554.41 C571.74,551.65 571.04,550.34 570.21,549.88 C569.67,549.73 568.86,549.97 567.45,550.75 C566.43,551.33 565.64,551.71 565.05,551.92 C563.98,552.25 563.04,552.33 562.02,552.16 L561.65,552.08 L561.58,551.7 C561.26,549.63 561.62,547.89 562.82,545.87 C563.57,544.74 565.01,543.09 567.22,540.87 C569.6,538.49 571.27,536.59 572.32,535.15 C574.02,532.63 575.02,530.2 575.51,527.47 L576.46,527.65 C576.66,530.98 577.1,534.34 577.78,537.79 C578.2,539.81 578.87,542.49 579.78,545.85 C580.5,548.49 580.96,550.37 581.18,551.49 C581.52,553.36 581.59,554.86 581.43,556.13 C580.82,559.09 579,561.08 575.13,562.92 L574.41,563.23 M575.26,561.72 C578.47,560.05 579.96,558.35 580.49,555.85 C580.63,554.69 580.56,553.3 580.25,551.55 C580.03,550.46 579.57,548.61 578.86,546 C577.94,542.62 577.27,539.91 576.85,537.87 C576.36,535.44 576,533.05 575.75,530.68 C575.12,532.45 574.27,534.12 573.12,535.8 C572.05,537.27 570.34,539.21 567.93,541.63 C565.76,543.8 564.36,545.41 563.64,546.49 C562.65,548.15 562.29,549.58 562.45,551.24 C563.69,551.28 565.06,550.88 566.9,549.87 C568.57,548.96 569.61,548.71 570.45,548.97 C571.64,549.59 572.54,551.12 573.44,554.28 L573.44,554.28 L575.26,561.72"/>
  <path fill="#000" d="M433.03,550.66 L434.4,551.98 L431.39,554.91 C430.18,556.16 429.94,556.85 430.73,557.87 C431.85,559 432.43,558.8 433.58,557.74 L436.86,554.57 L437.95,555.85 L434.68,559.29 C432.73,561.08 431.4,560.49 429.86,558.92 C428.62,557.44 428.05,556 429.74,554.02 L433.04,550.68 L433.03,550.66"/>
  <path fill="#000" d="M438.5,556.21 L439.87,557.25 L439.59,563.93 L442.6,559.6 L443.97,560.64 L439.59,567.29 L437.95,566.21 L438.23,559.53 L435.22,563.86 L433.85,562.82 L438.5,556.21"/>
  <path fill="#000" d="M440.96,568.33 L444.79,561.04 L446.15,562.08 L442.6,569.12 L440.96,568.33"/>
  <path fill="#000" d="M446.97,562.48 L443.96,570.16 L446.97,571.72 C449.92,573.07 450.97,572.19 452,569.81 C452.84,567.31 452.52,565.77 449.7,564.01 L446.97,562.48 M448.06,564.61 C450.89,566.15 451.02,567.06 450.29,569.04 C449.46,570.86 448.92,571.38 446.15,569.64 L448.06,564.61"/>
  <path fill="#000" d="M455.99,566.9 L451.07,573.73 L452.98,574.58 L454.07,572.78 L457.35,574.11 L457.63,576.12 L459.54,576.68 L457.63,567.43 L455.99,566.9 M456.53,568.95 L457.08,572.39 L454.89,571.78 L456.53,568.95"/>
  <path fill="#000" d="M460.67,568.33 L460.37,576.97 L463.59,577.52 C466.66,577.86 467.33,576.65 467.5,573.93 C467.47,571.17 466.69,569.74 463.59,568.94 L460.67,568.33 M462.31,570.09 C465.34,570.67 465.75,571.52 465.71,573.74 C465.56,575.83 465.23,576.52 462.19,575.71 L462.31,570.09"/>
  <path fill="#000" d="M489.34,584.87 L489.34,593.83 L491.26,594.12 L491.26,590.76 C491.28,590.77 492.88,591.07 494.26,590.96 C495.39,590.77 496,590.29 496.11,588.51 C496.02,586.73 495.23,585.88 493.49,585.51 L489.33,584.87 L489.34,584.87 M491.26,586.56 L493.19,586.88 C494.75,587.38 494.52,589.33 493.23,589.39 L491.26,589.08 L491.26,586.56"/>
  <path fill="#000" d="M499.18,586.39 L495.62,594.8 L497.54,595.09 L498.36,592.99 L501.92,593.54 L502.74,595.9 L504.64,596.19 L501.09,586.68 L499.17,586.39 L499.18,586.39 M500,588.49 L501.36,592.06 L498.9,591.68 L500,588.49"/>
  <path fill="#000" d="M504.65,594.52 L509.29,589.36 L505.19,588.72 L505.19,587.32 L511.75,588.34 L511.75,589.74 L506.83,594.86 L511.75,595.62 L511.75,597.3 L504.65,596.2 L504.65,594.52"/>
  <path fill="#000" d="M532.25,581.4 L533.89,581.37 L534.71,586.54 C534.92,588.46 534.26,589.36 532.96,589.76 C531.39,589.98 529.92,589.37 529.52,586.87 L530.89,586.8 C531.26,588.3 531.72,588.47 532.43,588.37 C532.96,588.19 533.18,587.53 533.07,586.57 L532.25,581.4"/>
  <path fill="#000" d="M534.99,581.31 L536.61,581.24 L537.35,585.55 C537.73,587.46 538.18,588.15 539.36,588.21 C540.79,588.08 540.91,587.45 540.63,585.74 L539.63,581.11 L541.28,581.1 L542.38,585.92 C542.87,588.83 541.74,589.52 539.77,589.69 C538.02,589.68 536.6,589.11 535.86,586.3 L534.99,581.31"/>
  <path fill="#000" d="M543.46,586.45 L544.83,586.1 C545.6,587.43 546.46,587.5 547.36,587.28 C548.49,586.83 548.59,586.04 548.06,585.52 C547.2,585.03 545.41,585.22 544.34,584.78 C543.08,584.07 542.64,583.41 542.65,582.28 C542.84,580.95 543.76,580.49 545.06,580.23 C546.53,580.05 547.65,580.35 548.65,582.19 L547.01,582.5 C546.41,581.51 545.85,581.46 545.18,581.65 C544.61,581.85 543.96,582.13 544.3,582.98 C544.8,583.56 546.55,583.57 547.72,583.74 C548.87,584.04 549.61,584.78 549.85,585.93 C549.99,587.53 549.55,588.12 547.81,588.63 C545.56,589.01 544.01,588.01 543.46,586.45"/>
  <path fill="#000" d="M550.84,580.55 L548.65,581.35 L548.11,579.87 L554.12,578.24 L554.67,579.44 L552.48,580.23 L554.94,586.76 L553.57,587.4 L550.84,580.55"/>
  <path fill="#000" d="M554.39,578 L555.76,577.36 L559.59,585.19 L558.22,585.84 L554.39,578"/>
  <path fill="#000" d="M563.69,579.91 L565.33,579.58 C565.95,581.6 565.06,583.91 562.11,583.74 C557.95,582.56 557.61,578.69 558.17,576.86 C559.58,574.49 562.05,574.91 563.69,576.55 L562.32,577.47 C561.26,576.26 559.73,576.62 559.4,577.67 C559.27,579.46 559.9,580.91 561.41,582.02 C562.85,582.69 564.43,581.66 563.69,579.91 L563.69,579.91"/>
  <path fill="#000" d="M562.87,573.91 L564.23,572.99 L569.15,580.41 L567.79,581.33 L562.87,573.91"/>
  <path fill="#000" d="M568.06,570.45 L566.7,571.38 L569.7,580.21 L571.06,579.01 L570.24,577.21 L572.7,575.31 L574.34,576.38 L575.72,575.46 L568.06,570.45 M568.6,572.5 L571.34,574.28 L569.7,575.73 L568.6,572.5"/>
  <path fill="#1A1A1A" opacity="0.2" d="M8,195.25 C178.83,110.03 349.03,140.83 521.26,167.28 C676.47,191.12 833.42,211.85 992,132.75 L992,804.75 C821.17,889.97 650.97,859.17 478.74,832.72 C323.53,808.88 166.58,788.15 8,867.25 L8,195.25 M39.25,214.64 L39.25,819.14 C345.81,690.88 650.43,915.18 960.75,785.36 L960.75,180.86 C654.19,309.12 349.57,84.82 39.25,214.64"/>
</svg>
