<?xml version="1.0" encoding="UTF-8" standalone="no"?><svg xmlns:dc="http://purl.org/dc/elements/1.1/" xmlns:cc="http://creativecommons.org/ns#" xmlns:rdf="http://www.w3.org/1999/02/22-rdf-syntax-ns#" xmlns:svg="http://www.w3.org/2000/svg" xmlns="http://www.w3.org/2000/svg" viewBox="0 0 45 45" style="enable-background:new 0 0 45 45;" xml:space="preserve" version="1.1" id="svg2"><metadata id="metadata8"><rdf:RDF><cc:Work rdf:about=""><dc:format>image/svg+xml</dc:format><dc:type rdf:resource="http://purl.org/dc/dcmitype/StillImage"/></cc:Work></rdf:RDF></metadata><defs id="defs6"><clipPath id="clipPath16" clipPathUnits="userSpaceOnUse"><path id="path18" d="M 0,36 36,36 36,0 0,0 0,36 Z"/></clipPath></defs><g transform="matrix(1.25,0,0,-1.25,0,45)" id="g10"><g id="g12"><g clip-path="url(#clipPath16)" id="g14"><g transform="translate(1.3826,6.0271)" id="g20"><path id="path22" style="fill:#d7141a;fill-opacity:1;fill-rule:nonzero;stroke:none" d="m 0,0 c 0.702,-0.655 1.615,-1.027 2.617,-1.027 l 28,0 c 2.209,0 4,1.791 4,4.5 l 0,8.5 -18.5,0 L 0,0 Z"/></g><g transform="translate(32,31)" id="g24"><path id="path26" style="fill:#eeeeee;fill-opacity:1;fill-rule:nonzero;stroke:none" d="m 0,0 -28,0 c -1.016,0 -1.94,-0.382 -2.646,-1.006 L -14.5,-13 4,-13 4,-4 C 4,-1.791 2.209,0 0,0"/></g><g transform="translate(1.3826,6.0271)" id="g28"><path id="path30" style="fill:#11457e;fill-opacity:1;fill-rule:nonzero;stroke:none" d="M 0,0 16.117,11.973 -0.029,23.967 c -0.828,-0.733 -1.354,-1.801 -1.354,-2.994 l 0,-9 0,-8.5 C -1.383,1.993 -0.845,0.79 0,0"/></g></g></g></g></svg>
