<svg xmlns="http://www.w3.org/2000/svg" viewBox="0 0 1000 1000">
  <defs/>
  <path fill="#fff" d="M8,195.25 C178.83,110.03 349.03,140.83 521.26,167.28 C676.47,191.12 833.42,211.85 992,132.75 L992,804.75 C821.17,889.97 650.97,859.17 478.74,832.72 C323.53,808.88 166.58,788.15 8,867.25 L8,195.25"/>
  <path fill="#012a87" d="M992,804.75 C821.17,889.97 650.97,859.17 478.74,832.72 C323.53,808.88 166.58,788.15 8,867.25 C182.38,661.13 356.39,576.31 532.18,482.98 C683.99,402.38 837.07,315.88 992,132.75 L992,804.75"/>
  <path fill="#f9d90f" d="M8,195.25 L8,475.25 C143.4,315.21 278.58,227.99 418,151.8 C283.02,133.39 147.03,125.9 8,195.25"/>
  <path fill="#000" d="M418.82,442.55 C418.76,462.1 415.11,480.08 407.8,496.99 C400.61,513.27 390.69,527.07 377.75,538.93 C364.73,550.7 350,559.34 333.18,565.35 C315.74,571.45 297.67,574.16 278.6,573.79 C259.54,573.31 241.45,569.82 224.02,563.22 C207.21,556.74 192.46,547.94 179.45,536.29 C166.51,524.55 156.59,511.1 149.4,495.14 C142.09,478.57 138.44,460.86 138.38,441.31 C138.44,421.78 142.09,402.5 149.4,383.32 C156.57,364.85 166.53,348.08 179.45,333.15 C192.48,318.3 207.22,306.75 224.02,298.52 C241.5,290.14 259.51,286.17 278.6,286.51 C297.68,287.01 315.71,291.77 333.18,300.65 C349.98,309.34 364.73,321.06 377.75,335.79 C390.67,350.6 400.63,367.01 407.8,385.16 C415.11,404 418.76,423.02 418.82,442.55 M400.78,440.16 C400.66,405.51 388.86,374.61 364.99,347.46 C340.98,320.5 312.46,305.89 278.6,304.99 C244.7,304.39 216.27,317.88 192.21,344.79 C168.33,371.86 156.54,403.44 156.42,438.03 C156.54,472.84 168.35,499.61 192.21,521.79 C216.22,543.79 244.74,554.46 278.6,555.31 C312.5,555.96 340.92,546.41 364.99,524.46 C388.86,502.36 400.66,474.92 400.78,440.16"/>
  <path id="a" fill="#000" d="M278.6,256.83 L303.2,301.38 C286.96,300.57 270.73,300.17 254,300.31 L278.6,256.83"/>
  <path fill="#000" d="M278.6,603.47 L254,559.65 C270.24,559.52 286.47,559.89 303.2,560.72 L278.6,603.47"/>
  <path fill="#000" d="M447.79,446.69 L405.18,465.93 L405.18,415.53 L447.79,446.69"/>
  <path fill="#000" d="M109.41,447.92 C123.47,435.98 137.53,424.65 152.02,413.57 L152.02,463.97 C137.95,458.1 123.89,452.76 109.41,447.92"/>
  <path id="b" fill="#dc171d" d="M278.6,344.47 L351.03,477.4 C303.23,472.89 255.42,471.03 206.17,474.87 L278.6,344.47"/>
  <path fill="#dc171d" d="M351.03,391.72 L278.6,515.83 L206.17,389.19 C253.98,385.46 301.77,387.07 351.03,391.72"/>
  <path fill="#1A1A1A" opacity="0.2" d="M8,195.25 C178.83,110.03 349.03,140.83 521.26,167.28 C676.47,191.12 833.42,211.85 992,132.75 L992,804.75 C821.17,889.97 650.97,859.17 478.74,832.72 C323.53,808.88 166.58,788.15 8,867.25 L8,195.25 M39.25,214.64 L39.25,819.14 C345.81,690.88 650.43,915.18 960.75,785.36 L960.75,180.86 C654.19,309.12 349.57,84.82 39.25,214.64"/>
</svg>
