<svg xmlns="http://www.w3.org/2000/svg" viewBox="0 0 64 64" enable-background="new 0 0 64 64"><path d="m55.2 13h-4.2v-4.2c-11-9-27-9-38 0v4.2h-4.2c-9 11-9 27 0 38h4.2v4.2c11 9 27 9 38 0v-4.2h4.2c9.1-11 9.1-27 0-38" fill="#f9f9f9"/><g fill="#ed4c5c"><path d="m32 27.8l-19-19c-.8.6-1.5 1.3-2.2 2-.7.7-1.4 1.5-2 2.2l19 19-19 19c.6.8 1.3 1.5 2 2.2.7.7 1.5 1.4 2.2 2l19-19 19 19c.8-.6 1.5-1.3 2.2-2 .7-.7 1.4-1.5 2-2.2l-19-19 19-19c-.6-.8-1.3-1.5-2-2.2-.7-.7-1.5-1.4-2.2-2l-19 19"/><path d="m37.1 10.7c1.3 5.1.6 11.4-5.1 14.8-5.7-3.5-6.4-9.8-5.1-14.8 1.3-1.3 7.4-2 10.2 0"/></g><g fill="#ffe62e"><path d="m36.9 13.2c0-.1-.1-.2-.2-.1-.4.1-1.5.1-1.8-.2.5.2 1.2-.2 1.2-.6 0-.4-.5-.8-1.6-.5-1 .2-2.3.1-2.3-.2 0-.3.9-.4 1.4-.3.5.1.8.1 1.7-.2-.2.1-.9.1-1.5 0-.5-.2-1.9-.2-1.9.6 0 .7 1.4.7 2.7.5.7-.1 1.1 0 1.1.2 0 .2-.7.3-1.2.3s-1-.1-1.6.1c-1.1.4-2.3.1-2.7-.4 0-.1 0-.1 0-.2.1-.1.2-.2.2-.3.1-.3 0-.3-.3-.1-.1-.1-.3-.2-.6-.2-.3 0-.5.1-.6.2-.3-.1-.4-.1-.3.1 0 .1.1.3.2.3 0 .4.4 1 .4 1-.6-.1-1.3-1.1-1.5-1.6-.1-.2-.3-.3-.4-.3-.1 0-.2.1-.1.2s.2.1.2.3c-.1-.2-.3-.2-.4-.1-.1.1 0 .2.1.2.2 0 .1.2.2.3-.2-.2-.3-.2-.4-.1-.1.1 0 .2.1.2.2 0 .8.9 2.3 1.7 0 .1-.3.1-.5.1-.4 0-.8 0-1.1-.3-.2-.2-.5-.4-.7-.3-.1.1 0 .2.1.2.1 0 .2 0 .3.1-.2-.1-.3 0-.4 0-.1.1 0 .2.1.2.1 0 .3-.1.4 0-.1 0-.3 0-.3.1s0 .2.1.2c.2 0 1.8 1 3.1-.2.2 0 1.5 0 2-.4.3.4.4.4.7.4.3.1.5.1.3.2-.1.1-.4 0-.6 0-.5 0-.8-.4-.9-.2-.1.1 0 .2.2.2-.2 0-.4 0-.3.2.1.3.3-.1.4.1-.1 0-.2 0-.2.1 0 .1.2.2.4 0 .1-.1.3-.1.4-.1.4 0 1.2.2 1.5-.1.1-.1 0-.2-.1-.3-.1-.1-.1-.2-.1-.5.3.1.7.1 1.3 0 .7-.1.9.1.9.4 0 .2-.1.2-.2.2-.4 0-.5-.1-.7-.1-.1 0-.2.2 0 .2-.1.1-.1.2 0 .2.1 0 .2 0 .3 0-.1.1-.3.2-.2.3 0 .1.2.1.3 0 .1-.1.3-.2.5-.3.6 0 .8-.9.6-1.4"/><path d="m36.7 17.6c0-.1-.1-.2-.2-.1-.4.1-1.4.1-1.7-.2.5.2 1.1-.2 1.1-.6 0-.4-.5-.7-1.5-.5-1 .2-2.2.1-2.2-.2 0-.3.9-.4 1.3-.3.4.1.8.1 1.6-.2-.2.1-.9.1-1.4 0-.5-.1-1.8-.1-1.8.5 0 .7 1.4.6 2.5.5.7-.1 1.1 0 1.1.2 0 .2-.6.3-1.1.2-.5-.1-1-.1-1.6.1-1 .3-2.2.1-2.5-.4 0 0 0-.1 0-.2.1-.1.1-.2.2-.3.1-.2 0-.3-.3-.1-.1-.1-.3-.2-.5-.2-.3 0-.4.1-.5.2-.3-.1-.4-.1-.3.1 0 .1.1.3.2.3 0 .4.4.9.4 1-.5-.1-1.2-1.1-1.4-1.5-.1-.2-.3-.3-.4-.3-.1 0-.1.1-.1.2s.2.1.2.3c-.1-.1-.3-.2-.4-.1-.1.1 0 .2.1.2.2 0 .1.2.2.3-.2-.2-.3-.2-.4-.1-.1.1 0 .2.1.2.2 0 .8.8 2.2 1.6 0 .1-.2.1-.4.1-.3 0-.8 0-1-.3-.2-.2-.5-.4-.7-.2-.1.1 0 .2.1.2.1 0 .2 0 .3.1-.1-.1-.3 0-.4 0-.1.1 0 .2.1.2.1 0 .3-.1.4 0-.1 0-.2 0-.3 0-.1.1 0 .2.1.2.2 0 1.7 1 3-.2.2 0 1.4 0 1.9-.3.3.4.4.3.7.4.3.1.5.1.3.2-.1.1-.3 0-.6 0-.5 0-.7-.3-.9-.2-.1.1 0 .2.2.2-.2 0-.3 0-.3.1.1.3.3 0 .4.1-.1 0-.2 0-.2.1 0 .1.2.2.4 0 .1-.1.3-.1.4-.1.3 0 1.1.2 1.4-.1.1-.1 0-.2-.1-.3-.1-.1-.1-.2-.1-.5.3.1.7.1 1.2 0 .6-.1.8.1.8.4 0 .2-.1.2-.2.2-.3 0-.5-.1-.6-.1-.1 0-.1.2 0 .2-.1.1-.1.2 0 .2.1 0 .2 0 .3 0-.1.1-.3.2-.2.3 0 .1.2.1.3 0 .1-.1.3-.2.4-.2.3 0 .6-.8.4-1.3"/><path d="m35.4 21.4c0-.1-.1-.1-.2-.1-.3.1-1 0-1.3-.1.4.1.8-.2.8-.4 0-.3-.4-.5-1.1-.4-.7.2-1.6.1-1.6-.1 0-.2.6-.3 1-.2.3 0 .6.1 1.2-.1-.1.1-.6.1-1 0-.4-.1-1.3-.1-1.3.4 0 .5 1 .5 1.9.3.5-.1.8 0 .8.1 0 .2-.5.2-.8.2-.4 0-.7 0-1.1.1-.8.2-1.6.1-1.9-.3 0 0 0-.1 0-.2.1-.1.1-.2.1-.2.1-.2 0-.2-.2-.1-.1-.1-.2-.1-.4-.1-.2 0-.3 0-.4.1-.2-.1-.3-.1-.2.1 0 .1.1.2.1.2 0 .3.3.7.3.7-.4 0-.9-.8-1-1.1 0-.1-.2-.2-.3-.2-.1 0-.1.1 0 .1.1.1.2.1.2.2-.1-.1-.2-.1-.3-.1 0 0 0 .1.1.1.1 0 .1.1.1.2-.1-.1-.2-.1-.3 0 0 0 0 .1.1.1.1 0 .6.6 1.6 1.2 0 .1-.2.1-.3.1-.2 0-.6 0-.7-.2-.1-.2-.4-.3-.5-.2-.1.1 0 .2.1.1s.1 0 .2.1c-.1 0-.2 0-.3 0-.1.1 0 .2.1.1.1 0 .2-.1.3 0-.1 0-.2 0-.2 0s0 .1.1.1c.2 0 1.3.7 2.2-.1.1 0 1.1 0 1.4-.3 0 .5.1.5.3.5.2 0 .3 0 .2.2 0 0-.3 0-.4 0-.4 0-.5-.3-.6-.1-.1.1 0 .2.1.2-.1 0-.2 0-.2.1 0 .2.2 0 .3 0-.1 0-.2 0-.2.1 0 .1.1.1.3 0 .1-.1.2-.1.3-.1.3 0 .8.1 1-.1.1-.1 0-.1-.1-.2-.1-.1-.1-.2-.1-.3.2 0 .5 0 .9 0 .5-.1.6.1.6.3 0 .1-.1.2-.1.2-.3 0-.4-.1-.5-.1-.1 0-.1.1 0 .2-.1 0-.1.1 0 .1 0 0 .1 0 .2 0-.1 0-.2.1-.1.2 0 0 .1.1.2 0s.2-.2.3-.2c.3-.1.5-.7.3-1.1"/><path d="m32 9.6c2.1 0 4 .6 5.2 1.3.2-1.8 1-3.5 2-4.8-1 0-1.4.5-1.4 1-.2-.7-1.2-.7-1.5-.3 1.1.7.2 2-.7 1.7-.5-.1-.7-.4-.8-.9.3 0 .5-.3.5-.6 0-.3-.3-.5-.6-.5s-.5.3-.5.6c0 .2.1.4.3.5-.3.5-.9.6-1.2.5-.5-.1-.7-.6-.7-1 0-1.1 1-1.2 1.3-1 0-.7-1.1-1.3-1.5-.7.4-.7.4-1.7-.3-2.3-.7.7-.7 1.6-.3 2.3-.3-.6-1.5 0-1.5.7.3-.2 1.3 0 1.3 1 0 .4-.2.9-.7 1-.4.1-.9 0-1.2-.5.3-.1.4-.4.3-.7-.1-.3-.4-.4-.7-.3-.3.1-.4.4-.3.7.1.2.3.3.5.3-.1.5-.3.8-.8.9-1 .3-1.8-1-.7-1.7-.3-.4-1.3-.4-1.5.3 0-.5-.4-1.1-1.4-1 .9 1.3 1.7 3.1 2 4.8.9-.7 2.8-1.3 4.9-1.3"/></g></svg>