<svg xmlns="http://www.w3.org/2000/svg" viewBox="0 0 64 64" enable-background="new 0 0 64 64"><path d="M17,6C2.7,14.3-2.3,32.7,6,47l52-30C49.7,2.7,31.3-2.3,17,6z" fill="#ffce31"/><path d="m47 58c14.3-8.3 19.3-26.6 11-41l-52 30c8.3 14.3 26.7 19.3 41 11" fill="#ed4c5c"/><path d="m57.7 18.4c0 0-1.5-.1-2.3-.1-.8 0-1.5.5-2.4.6.6-.3.9-.8 1.4-1.1.5-.2 1.3-.3 1.4-1-.5.4-1.2.3-1.8.2-.6 0-1 .5-1.4.8.2-.9.7-1.5.8-2.4.1-.8 1.4-1.4 1-2.3-.1.8-1.1.9-1.4 1.6-.3.9-1.1 1.6-1.2 2.6-.1 1.2-1 .6-1.8.9-.2.1-1.1-1-2.4-1-2 .1-2.8.1-5.4-2.5-.6-.6-2.7-.8-3.5-.3.8 0 1.5.2 2.1.6-.4.3-1-.4-1.5-.1.8 0 1.1.4 1 1.1-.7-.5-1.9-1.2-2.8-.8-.6.3-1.7-.1-2 .7.8-.4 1.6-.1 2.4.2-.4.1-1.4.1-1.7.5.4-.1.8-.1 1.1 0-.1.3-.2.6-.1.9-1.1-.4-2.6-1-3.6-.2-1.1.9.6 1.9.9 1.3-.7.3-1-.9 0-.9 1.4-.1 2.7.5 3.9 1.1-.6.2-2.5 0-2.8-.8-.1.3-.1.7.2.9-.9 0-1.7.9-2.5.8-.7 0-2.1 0-2.2.9 1.1-1 2.6-.2 3.9-.4-.3.6-.5 1.3-.7 2-.3.9-1.2 1.3-1.7 2.2.4-.4.9-.7 1.5-.8-.3.7-1.1 1.8-.7 2.5.2-1.1.9-.8 1.7-1.2-.2.5.2 1.4.9 1.2-.3.5 0 1.2.6 1.4-.4.5-1.4.2-1.6.7.7-.3 1.3.8 2.2.5-.1.4 0 .7.2 1-.5-.1-1.4.3-1.7-.4-.3.8 1.1.6.9 1.2-.3 0-.7-.8-.9-.2-.1 0-.3-.6-.6-.7-.4-.1-.9.2-1.1.1.4-.6-.7-1-1.1-.6.1-.9-1.6-1.5-1.6-2.2-.3.5.3.9.2 1.4-.2-.2-.4-.3-.6-.2-.6.1-.2-.1-.8-.2-.6-.1-.3.3-.8 0-.3-.2-.7-.1-.8.1-.3-1-1.6-.5-1.9-1.3-.1.5.6 1 .7 1.5-.6-.5-1.7.1-1.4.9-.2.1-1.6-.4-1.3.7-.4-.4-2.7-.1-2.7.6.4-.3 1.2-.1 1.5.1-.3.2-.4.9-.2 1.2-1.1-.1-.6 1.4-1.1 1.7-.7.4-1.4 1.4-2.3 1.1.5.8 1.5 0 2.1.1-.7.5-.1 1.3-.6 1.8-.4.5-.9 1.7-1.8 1.4.1.4.6.5 1 .5-.3.2-.6.6-1 .4 0 .3.2.5.4.6-.5 0-.9.2-1.4.1 0 .2.1.5.2.7-.6-.2-1.8-.5-2.2.2.3 0 .8 0 .9.4-.4-.3-.9-.1-1.4-.1-.7.1-1.1-.3-1.8-.5-.5-.2-2.8-.6-2.9.2.5-.4 1.6.4 2.2.3.9-.1 1.6.6 2.4.8-1.2-.1-1.9.5-3 .6-.5.1-1.6-.1-1.7.6.5-.3 1.1.1 1.7-.1.5-.1 1-.5 1.5-.3-.3.4-.8.6-1.3.7-.8.1-1.1.4-1.8.8-.5.3-1.2.2-1.7.6-.4.3-.8.8-1.4.8.7.4 1.4-.3 2-.5.8-.3 1.6-.2 2.3-.7-.4 1-1.8.8-2.6 1.4-1 .7-1.7 1.8-2.9 2 .5.6 1.6-.2 2-.4.9-.5 2-.3 2.8-1 .8-.7 1.7-.8 2.4-1.5.2-.2 2-1.4 2.2-1.4-.7.3-.8 1.4-1.7 1.6.7.3 2.2-.9 3-1.2-.4.6-1.7.9-1.8 1.6.7-.6 1.7-.4 2.3-.9.6-.5 1.8-1.3 2.2-2 .4-.6.8-.9 1.4-1.3.3-.2.6-.5 1-.6.4-.1.8.2 1.2 0 .1 1.8-.6.3-1.2 1.1-.1.1.6.3.7.5 0 0-1.1 1-1.2 1 .3.4 1 .1 1.3-.2-.1.3.3.6.2.9.2 0 .7-1.1.9-.9-.5.2.4.5.4.5-.3.2 0 .5.2.4-.3.1 0 .6-.2.8-.2.5-.6.4-1.1.8-.4.4-.5.9-.4 1.4.1.4.4 1.7.6.9-.4 1.9 2 3.1 3.4 1.8.7-.7 1.5-3.6.3-4.2.2.1.5 0 .6-.1.1.2.2.3.4.3.7.2.9 1.1.8 1.8.5-.6.4-2.1-.1-2.7-.2-.2-.9-.5-1.2-.6-.3 0-.5 0-.6.3-.2-.2-.5-.3-.8-.2.1-.4-.4-1.4-.8-1.6-.8-.5-.3-1.8-.1-2.5.3.2 1.2.5 1.6.7.4.2 2.6.7 1.7.3 2 .8 3.2-2.4 1.3-3.1.8.1.1-.7-.3-.9-.6-.2-1.8.1-2.3.5.1-.1.3-.8.4-.9.3-.3.6-.6 1.1-.4-1.9-2.5-2.5 2.1-3.4 1.7-.6-.3-.7-2-.4-2.4.2-.2 0-.5.1-.8.2-.3.6-.6.8-.9.7-1.2 3.6-.6 4.9 0 1.7.7 4 1 5.8 1.2-.2.4.1.6 0 .9-.2-.1-1.8-.1-1.9 0 .4 0 .8.5 1.3.5-.8.1-.9 1.2-1.5 1.2.4.3 2.7-1.1 1.7.6.4 0 .6-.5.7-.9.4.2 2.8 2.2 3.3 1.4 0 .5.7.5 1 .5.5 0 1.4.4 1.8.3-1.5 1.1 2.6 4.6 2.6 3.2 0-.9 1.3.8 2.6-.4 1.3-1.3.2-3.8-1.6-3.7.5-.1 1.6-.2 1.8.7.9-1.5-1.5-2.3-2.5-1.9.6-.3.2-.6.7-.9.4-.2.7-.6 1.2-.5-.6-.7-3-.5-2.8.7-.3-.1-.5 0-.7.2 0 .4-.2.5-.6.5-.2.4-.4.5-.6.1-.4-.2-.6-.1-1-.4-.3-.2-1-.2-1.3-.2-.5.1-.7-.6-1.3-.4-.1-1 .7-1.6 1.1-2.4.5-.9 1-1.8 1.2-2.9.1-.9-.2-1.7 1-1.8.9-.1 1.1 1 .2 1.3.4.3.9-.1 1.1-.5-.3.6-.3 1.7.5 1.9-.2-.5.4-.9.2-1.4.4.2.8.6.8 1.1.5-.6-.2-1.2-.2-1.8.9.1 1.5-.2 2.2-.8.8-.5.9-.5 1.5 0 1.1.8 3.5.6 4.2-.7.3-.7 1-.7.4-1.5-.4-.6-.9-1.1-1.2-1.7-.8-1.9-3.3.2-3.6.8-.4.6-.1.7-.9.6-1-.1-1.9.6-3 .4-1-.2-1.7-.7-2.5-1.2-1.1-.6-1.7-.6-2.5-1.7.6.1 1.3.2 1.8.7.4.4.8 1 1.5.8-.7-.2-1.4-1.3-2.1-1.7.7-.9 2.2-.6 3.3-.6.9 0 1.3 1 2 1.4-.4.2-.5.8-1 .8.4.2.9.1 1.3-.2-.1.4 0 .8.4 1-.3-.4.2-.7.4-.9.1.3.5.5.4.8 1-.2.3-2.6-.4-2.8 1.3-1.1 1.6.9 1.2 1.8.5-.4.5-1 .5-1.6 1 .3 5.8-1.1 5.6.8.7-.8-.6-1.4-1.2-1.5-.5-.1-.8-1.5-1.5-.9.8-.1.4 1-.1 1.2.2-.7-.5-1.2-1.2-1 1.7.5-.9 1.8-.7.9.1-.6.6-1 .5-1.6-.1-.3-.3-.7-.3-.9.4.1.4-.2.1-.4.3.1.6-.2.9-.2.7-.1 1.3-.4 2-.7 1-.3 3.5-.7 3.5-.7m-11.3 3.3c.3-.7 1.9-1.4 1.4-.2.2-.1.5-.8.8-.6.4.2.6.6.1.8.4 0 .8-.3 1.2-.2-.2.2-.2.6-.5.8-.6.4-2.1-.5-3-.6m1.8 1.6c-.4-.2-1.2-.6-1.5-1 .6.2 1.3.3 1.9.6 0 0-.3.2-.4.4" fill="#fff"/></svg>