<svg xmlns="http://www.w3.org/2000/svg" viewBox="0 0 1000 1000">
  <defs/>
  <path fill="#3f9c35" d="M8,195.25 C178.83,110.03 349.03,140.83 521.26,167.28 C676.47,191.12 833.42,211.85 992,132.75 L992,804.75 C821.17,889.97 650.97,859.17 478.74,832.72 C323.53,808.88 166.58,788.15 8,867.25 L8,195.25"/>
  <path fill="#ed2939" d="M8,195.25 C178.83,110.03 349.03,140.83 521.26,167.28 C676.47,191.12 833.42,211.85 992,132.75 L992,580.75 C821.17,665.97 650.97,635.17 478.74,608.72 C323.53,584.88 166.58,564.15 8,643.25 L8,195.25"/>
  <path fill="#00b9e4" d="M8,195.25 C178.83,110.03 349.03,140.83 521.26,167.28 C676.47,191.12 833.42,211.85 992,132.75 L992,356.75 C821.17,441.97 650.97,411.17 478.74,384.72 C323.53,360.88 166.58,340.15 8,419.25 L8,195.25"/>
  <path fill="#fff" d="M557.4,508.72 C557.16,564.71 524.56,604.25 483.6,598.26 C442.68,591.63 410.04,542.53 409.8,486.7 C410.04,430.7 442.64,390.68 483.6,396.66 C524.52,403.3 557.16,452.88 557.4,508.72"/>
  <path fill="#ed2939" d="M561.5,509.31 C561.26,555.98 534.17,588.96 500,584 C465.88,578.39 438.74,537.29 438.5,490.69 C438.74,444.02 465.83,411.04 500,416 C534.12,421.61 561.26,462.71 561.5,509.31"/>
  <path fill="#fff" d="M565.6,453.9 L573.44,485.14 L594.59,474.28 L584.54,501.83 L606.6,515.41 L584.54,523.26 L594.59,553.48 L573.44,536.88 L565.6,565.9 L557.76,534.64 L536.61,545.22 L546.66,517.85 L524.6,503.8 L546.66,496.42 L536.61,466.03 L557.76,482.9 L565.6,453.9"/>
  <path fill="#1A1A1A" opacity="0.2" d="M8,195.25 C178.83,110.03 349.03,140.83 521.26,167.28 C676.47,191.12 833.42,211.85 992,132.75 L992,804.75 C821.17,889.97 650.97,859.17 478.74,832.72 C323.53,808.88 166.58,788.15 8,867.25 L8,195.25 M39.25,214.64 L39.25,819.14 C345.81,690.88 650.43,915.18 960.75,785.36 L960.75,180.86 C654.19,309.12 349.57,84.82 39.25,214.64"/>
</svg>
