<svg xmlns="http://www.w3.org/2000/svg" viewBox="0 0 36 36"><path fill="#EEE" d="M36 27a4 4 0 0 1-4 4H4a4 4 0 0 1-4-4V9a4 4 0 0 1 4-4h28a4 4 0 0 1 4 4v18z"/><path fill="#DD2E44" d="M.646 29.18h34.708c.354-.544.58-1.18.634-1.863H.012c.054.684.28 1.32.634 1.863ZM36 23.597v1.863H0v-1.863h36Zm0-1.857v-1.863H0v1.863h36ZM0 16.157v1.863h36v-1.863H0ZM36 14.3v-1.863H0V14.3h36ZM0 9v1.58h36V9c0-.095-.003-.19-.01-.283H.01C.003 8.811 0 8.905 0 9Zm4-4C2.578 5 1.33 5.742.62 6.86h34.76A3.997 3.997 0 0 0 32 5H4Z"/><path fill="#010066" d="M18 5H4a4 4 0 0 0-4 4v10.88h18V5z"/><path fill="#FFCC4D" d="M9.534 17.673a5.234 5.234 0 0 1-.001-10.466c.715 0 1.397.146 2.018.405A5.958 5.958 0 0 0 8 6.44a6 6 0 0 0 0 12 5.958 5.958 0 0 0 3.551-1.172 5.21 5.21 0 0 1-2.017.405z"/><path fill="#FFCC4D" d="m12.922 9.269.334 1.62 1.003-1.315-.402 1.604 1.475-.749-1.059 1.271 1.654-.035-1.505.686 1.505.686-1.654-.035 1.059 1.271-1.475-.749.402 1.605-1.003-1.316-.334 1.621-.334-1.621-1.003 1.316.402-1.605-1.475.749 1.058-1.271-1.653.035 1.505-.686-1.505-.686 1.653.035-1.058-1.271 1.475.749-.402-1.604 1.003 1.315z"/></svg>