<?xml version="1.0" encoding="UTF-8" standalone="no"?><svg xmlns:dc="http://purl.org/dc/elements/1.1/" xmlns:cc="http://creativecommons.org/ns#" xmlns:rdf="http://www.w3.org/1999/02/22-rdf-syntax-ns#" xmlns:svg="http://www.w3.org/2000/svg" xmlns="http://www.w3.org/2000/svg" viewBox="0 0 45 45" style="enable-background:new 0 0 45 45;" xml:space="preserve" version="1.1" id="svg2"><metadata id="metadata8"><rdf:RDF><cc:Work rdf:about=""><dc:format>image/svg+xml</dc:format><dc:type rdf:resource="http://purl.org/dc/dcmitype/StillImage"/></cc:Work></rdf:RDF></metadata><defs id="defs6"><clipPath id="clipPath16" clipPathUnits="userSpaceOnUse"><path id="path18" d="M 4,31 C 1.791,31 0,29.209 0,27 L 0,27 0,9 C 0,6.791 1.791,5 4,5 l 0,0 28,0 c 2.209,0 4,1.791 4,4 l 0,0 0,18 c 0,2.209 -1.791,4 -4,4 l 0,0 -28,0 z"/></clipPath></defs><g transform="matrix(1.25,0,0,-1.25,0,45)" id="g10"><g id="g12"><g clip-path="url(#clipPath16)" id="g14"><g transform="translate(36,31)" id="g20"><path id="path22" style="fill:#d20000;fill-opacity:1;fill-rule:nonzero;stroke:none" d="m 0,0 -14.473,-10.453 c -0.202,0.279 -0.434,0.534 -0.695,0.757 L -5.5,0 -16,0 -17.555,-8.666 c -0.147,0.015 -0.295,0.023 -0.445,0.023 -0.15,0 -0.298,-0.008 -0.445,-0.023 L -20,0 l -10.5,0 9.668,-9.696 c -0.261,-0.223 -0.493,-0.478 -0.695,-0.757 L -36,0 l 0,-10.5 13.689,-1.901 c -0.027,-0.197 -0.046,-0.395 -0.046,-0.599 0,-0.204 0.019,-0.402 0.046,-0.599 L -36,-15.5 l 0,-10.5 14.473,10.453 c 0.202,-0.279 0.434,-0.534 0.695,-0.757 L -30.5,-26 l 10.5,0 1.555,8.666 c 0.147,-0.015 0.295,-0.023 0.445,-0.023 0.15,0 0.298,0.008 0.445,0.023 L -16,-26 l 10.5,0 -9.668,9.696 c 0.261,0.223 0.493,0.478 0.695,0.757 L 0,-26 l 0,10.5 -13.689,1.901 c 0.027,0.197 0.046,0.395 0.046,0.599 0,0.204 -0.019,0.402 -0.046,0.599 L 0,-10.5 0,0 Z"/></g><g transform="translate(13.6431,18)" id="g24"><path id="path26" style="fill:#ffe600;fill-opacity:1;fill-rule:nonzero;stroke:none" d="m 0,0 c 0,0.204 0.019,0.402 0.046,0.599 l -13.689,1.901 0,-5 13.689,1.901 C 0.019,-0.402 0,-0.204 0,0"/></g><g transform="translate(18,22.3569)" id="g28"><path id="path30" style="fill:#ffe600;fill-opacity:1;fill-rule:nonzero;stroke:none" d="M 0,0 C 0.15,0 0.298,-0.008 0.445,-0.023 L 2,8.643 l -4,0 1.555,-8.666 C -0.298,-0.008 -0.15,0 0,0"/></g><g transform="translate(21.5272,20.5474)" id="g32"><path id="path34" style="fill:#ffe600;fill-opacity:1;fill-rule:nonzero;stroke:none" d="m 0,0 14.473,10.453 -5.5,0 -9.668,-9.696 C -0.435,0.533 -0.202,0.279 0,0"/></g><g transform="translate(18,13.6431)" id="g36"><path id="path38" style="fill:#ffe600;fill-opacity:1;fill-rule:nonzero;stroke:none" d="M 0,0 C -0.15,0 -0.298,0.008 -0.445,0.023 L -2,-8.643 l 4,0 -1.555,8.666 C 0.298,0.008 0.15,0 0,0"/></g><g transform="translate(15.1681,21.3043)" id="g40"><path id="path42" style="fill:#ffe600;fill-opacity:1;fill-rule:nonzero;stroke:none" d="m 0,0 -9.668,9.696 -5.5,0 14.473,-10.453 C -0.493,-0.478 -0.261,-0.224 0,0"/></g><g transform="translate(14.4728,15.4526)" id="g44"><path id="path46" style="fill:#ffe600;fill-opacity:1;fill-rule:nonzero;stroke:none" d="m 0,0 -14.473,-10.453 5.5,0 9.668,9.696 C 0.435,-0.533 0.202,-0.279 0,0"/></g><g transform="translate(20.8319,14.6957)" id="g48"><path id="path50" style="fill:#ffe600;fill-opacity:1;fill-rule:nonzero;stroke:none" d="m 0,0 9.668,-9.696 5.5,0 L 0.695,0.757 C 0.493,0.478 0.261,0.224 0,0"/></g><g transform="translate(22.3569,18)" id="g52"><path id="path54" style="fill:#ffe600;fill-opacity:1;fill-rule:nonzero;stroke:none" d="m 0,0 c 0,-0.204 -0.019,-0.402 -0.046,-0.599 l 13.689,-1.901 0,5 L -0.046,0.599 C -0.019,0.402 0,0.204 0,0"/></g><g transform="translate(18,21.3569)" id="g56"><path id="path58" style="fill:#ffe600;fill-opacity:1;fill-rule:nonzero;stroke:none" d="m 0,0 c -1.851,0 -3.357,-1.506 -3.357,-3.357 0,-1.851 1.506,-3.357 3.357,-3.357 1.851,0 3.357,1.506 3.357,3.357 C 3.357,-1.506 1.851,0 0,0"/></g></g></g></g></svg>
