<svg xmlns="http://www.w3.org/2000/svg" viewBox="0 0 64 64" enable-background="new 0 0 64 64"><circle cx="32" cy="32" r="30" fill="#f5f5f5"/><path d="m23.4 33.7c2.8 1.9 6.7 1.1 8.6-1.7 1.9-2.8 5.7-3.6 8.6-1.7 2.7 1.8 3.5 5.3 2 8 3.3-5.6 1.8-12.9-3.8-16.6-5.7-3.8-13.4-2.3-17.2 3.4-.1.2-.2.4-.3.5-1.4 2.9-.5 6.3 2.1 8.1" fill="#ed4c5c"/><path d="m42.3 38.9c.1-.2.2-.4.3-.5-.1.1-.2.3-.3.5" fill="#003478"/><path d="m40.6 30.3c-2.8-1.9-6.7-1.1-8.6 1.7-1.9 2.8-5.7 3.6-8.6 1.7-2.7-1.8-3.5-5.3-2-8-3.4 5.6-1.8 12.9 3.8 16.6 5.7 3.8 13.4 2.3 17.2-3.4.1-.2.2-.4.3-.5 1.4-2.9.5-6.3-2.1-8.1" fill="#428bc1"/><g fill="#3e4347"><path d="m7.8 23.3l6.9-10.3-.7-.5-.7-.4-6.9 10.3.7.4z"/><path d="m9.7 24.6l.7.4 6.8-10.3-.6-.4-.7-.5-6.9 10.3z"/><path d="m18.4 15.5l-6.8 10.3.7.5.7.4 6.8-10.3-.7-.4z"/><path d="m48.5 42.5l.7.5 3.2-4.8-.7-.5-.7-.4-3.2 4.8z"/><path d="m56.2 40.7l-3.2 4.8.7.5.7.4 3.2-4.8-.7-.4z"/><path d="m51.8 44.7l3.2-4.8-.7-.5-.7-.4-3.2 4.8.7.4z"/><path d="m48.1 43.2l-.7-.4-3.2 4.8.7.4.7.5 3.2-4.8z"/><path d="m50.6 44.9l-.6-.4-3.2 4.8.6.4.7.5 3.2-4.8z"/><path d="m52.5 46.2l-3.2 4.8.7.5.7.4 3.2-4.8-.7-.5z"/><path d="m7.1 41.2l-.7.4 6.9 10.3.7-.4.7-.5-6.9-10.3z"/><path d="m13.4 44.9l-.7.5 3.2 4.8.7-.5.6-.4-3.2-4.8z"/><path d="m12.3 37.7l-.7.5 6.8 10.3.7-.5.7-.4-6.8-10.3z"/><path d="m9 39.9l3.2 4.8.7-.5.7-.4-3.2-4.8-.7.4z"/><path d="m53.2 17.4l.7-.5-3.2-4.8-.7.4-.7.5 3.2 4.8z"/><path d="m48.1 20.8l.7-.5-3.2-4.8-.7.5-.7.4 3.2 4.8z"/><path d="m53 18.5l3.2 4.8.7-.5.7-.4-3.2-4.8-.7.4z"/><path d="m54.3 24.6l.7-.5-6.9-10.3-.7.5-.6.4 6.8 10.3z"/><path d="m51.7 26.3l.7-.5-3.2-4.8-.7.5-.7.4 3.2 4.8z"/></g></svg>