<svg xmlns="http://www.w3.org/2000/svg" viewBox="0 0 64 64" enable-background="new 0 0 64 64"><g fill="#83bf4f"><path d="M2,32c0,6.1,1.8,11.8,5,16.6V15.4C3.8,20.2,2,25.9,2,32z"/><path d="M32,2c-5.5,0-10.6,1.5-15,4v52c4.4,2.6,9.5,4,15,4c16.6,0,30-13.4,30-30S48.6,2,32,2z"/></g><path d="m7 15.4v33.2c2.6 3.9 6 7.1 10 9.4v-52c-4 2.3-7.4 5.6-10 9.4" fill="#ed4c5c"/><g fill="#fff"><path d="m37.2 8.8c2.5 2.1 4 5.3 3.8 8.8-.3 6-5.4 10.7-11.4 10.5-1.4-.1-2.7-.4-3.8-.9 1.9 1.6 4.4 2.6 7.1 2.6 6.1 0 11-4.9 11-11-.1-4.4-2.8-8.3-6.7-10"/><path d="m26.7 16.9l.5-1.5h1.5l-1.2-.9.5-1.4-1.3.9-1.2-.9.5 1.4-1.3.9h1.5z"/><path d="m26.2 9.8l.5 1.5.5-1.5h1.5l-1.2-.9.5-1.5-1.3.9-1.2-.9.5 1.5-1.3.9z"/><path d="m31.8 12.7l.5 1.5.5-1.5h1.5l-1.2-.9.4-1.5-1.2.9-1.3-.9.5 1.5-1.2.9z"/><path d="m21.9 17.3l.5-1.5-1.3.9-1.2-.9.5 1.5-1.3.9h1.6l.4 1.5.5-1.5h1.6z"/><path d="m26.7 22.5l.5-1.4h1.5l-1.2-.9.5-1.5-1.3.9-1.2-.9.5 1.5-1.3.9h1.5z"/></g><g fill="#ffe62e"><path d="m7 15.4v6l3-3z"/><path d="m17 21.4v-6l-3 3z"/><path d="m7 29.9v5.9l3-2.9z"/><path d="m17 35.8v-5.9l-3 3z"/><path d="m7 42.6v6l3-3z"/><path d="m17 48.6v-6l-3 3z"/></g><path fill="#83bf4f" d="m9.8 42.6l-2.3-3.4 2.3-3.3h4.4l2.3 3.3-2.3 3.4z"/><path fill="#ffe62e" d="m9.8 28.8l-2.3-3.3 2.3-3.3h4.4l2.3 3.3-2.3 3.3z"/><path fill="#ed4c5c" d="m10.4 27.9l-1.7-2.4 1.7-2.4h3.2l1.7 2.4-1.7 2.4z"/><path fill="#fff" d="m11.3 26.5l-.6-1 .6-1h1.4l.6 1-.6 1z"/><path fill="#83bf4f" d="m9.2 14.6l-.7-1.1 5.5-5.2 2 3-2.2 3.3z"/><path fill="#ed4c5c" d="m9.9 13.7l-.8-1.1 4-3.8 1.7 2.5-1.7 2.4z"/><path fill="#ffe62e" d="m9 49l-.7 1.1 5.4 5.2 2-2.9-2.2-3.3z"/><g fill="#ed4c5c"><path d="m9.6 49.9l-.7 1.1 3.9 3.8 1.7-2.4-1.6-2.4z"/><path d="m10.4 41.6l-1.7-2.4 1.7-2.4h3.2l1.7 2.4-1.7 2.4z"/></g><g fill="#ffe62e"><path d="m11.3 40.2l-.7-1 .7-1h1.3l.7 1-.7 1z"/><path d="m10.9 11.9l-.4-.6 1.5-1.4.8 1-.6 1z"/></g><path fill="#fff" d="m10.4 51.7l-.4.6 1.6 1.5.8-1.1-.7-1z"/></svg>