<?xml version="1.0" encoding="UTF-8" standalone="no"?><svg xmlns:dc="http://purl.org/dc/elements/1.1/" xmlns:cc="http://creativecommons.org/ns#" xmlns:rdf="http://www.w3.org/1999/02/22-rdf-syntax-ns#" xmlns:svg="http://www.w3.org/2000/svg" xmlns="http://www.w3.org/2000/svg" viewBox="0 0 45 45" style="enable-background:new 0 0 45 45;" xml:space="preserve" version="1.1" id="svg2"><metadata id="metadata8"><rdf:RDF><cc:Work rdf:about=""><dc:format>image/svg+xml</dc:format><dc:type rdf:resource="http://purl.org/dc/dcmitype/StillImage"/></cc:Work></rdf:RDF></metadata><defs id="defs6"><clipPath id="clipPath16" clipPathUnits="userSpaceOnUse"><path id="path18" d="M 0,36 36,36 36,0 0,0 0,36 Z"/></clipPath></defs><g transform="matrix(1.25,0,0,-1.25,0,45)" id="g10"><g id="g12"><g clip-path="url(#clipPath16)" id="g14"><g transform="translate(36,9)" id="g20"><path id="path22" style="fill:#ce1b26;fill-opacity:1;fill-rule:nonzero;stroke:none" d="m 0,0 c 0,-2.209 -1.791,-4 -4,-4 l -28,0 c -2.209,0 -4,1.791 -4,4 l 0,18 c 0,2.209 1.791,4 4,4 l 28,0 c 2.209,0 4,-1.791 4,-4 L 0,0 Z"/></g><g transform="translate(32,31)" id="g24"><path id="path26" style="fill:#002b7f;fill-opacity:1;fill-rule:nonzero;stroke:none" d="m 0,0 -28,0 c -2.209,0 -4,-1.791 -4,-4 l 0,-9 36,0 0,9 C 4,-1.791 2.209,0 0,0"/></g><path id="path28" style="fill:#b28914;fill-opacity:1;fill-rule:nonzero;stroke:none" d="m 10,22 -4,0 0,3 4,0 0,-3 z"/><g transform="translate(7.8975,25.4512)" id="g30"><path id="path32" style="fill:#b28914;fill-opacity:1;fill-rule:nonzero;stroke:none" d="m 0,0 -0.095,-3.184 -3.23,0 c -0.398,0.772 -0.726,1.429 -0.726,2.318 0,0.744 0.585,1.334 1.428,1.334 C -1.73,0.468 -0.75,0.167 0,0"/></g><g transform="translate(7.8262,25.5918)" id="g34"><path id="path36" style="fill:#ffd83d;fill-opacity:1;fill-rule:nonzero;stroke:none" d="m 0,0 -0.023,-0.328 c -0.626,0.095 -1.514,0.445 -2.342,0.445 -0.764,0 -1.357,-0.306 -1.357,-1.077 0,-0.76 0.322,-1.451 0.749,-2.153 l -0.444,-0.211 c -0.398,0.772 -0.726,1.429 -0.726,2.317 0,0.744 0.584,1.475 1.592,1.475 C -1.659,0.468 -0.75,0.168 0,0"/></g><g transform="translate(8.4653,25.4512)" id="g38"><path id="path40" style="fill:#b28914;fill-opacity:1;fill-rule:nonzero;stroke:none" d="m 0,0 0.095,-3.184 3.23,0 c 0.398,0.772 0.726,1.429 0.726,2.318 0,0.744 -0.585,1.334 -1.428,1.334 C 1.73,0.468 0.75,0.167 0,0"/></g><g transform="translate(8.5366,25.5918)" id="g42"><path id="path44" style="fill:#ffd83d;fill-opacity:1;fill-rule:nonzero;stroke:none" d="m 0,0 0.023,-0.328 c 0.626,0.095 1.514,0.445 2.342,0.445 0.764,0 1.357,-0.306 1.357,-1.077 0,-0.76 -0.322,-1.451 -0.749,-2.153 l 0.444,-0.211 c 0.398,0.772 0.726,1.429 0.726,2.317 0,0.744 -0.585,1.475 -1.592,1.475 C 1.659,0.468 0.75,0.168 0,0"/></g><g transform="translate(8.1812,27.7324)" id="g46"><path id="path48" style="fill:#ffd83d;fill-opacity:1;fill-rule:nonzero;stroke:none" d="M 0,0 -0.262,-0.49 0,-0.982 0.263,-0.49 0,0 Z M 0,1.242 -0.262,0.75 0,0.26 0.263,0.75 0,1.242 Z"/></g><g transform="translate(8.2905,27.8618)" id="g50"><path id="path52" style="fill:#ffd83d;fill-opacity:1;fill-rule:nonzero;stroke:none" d="M 0,0 0.413,-0.262 0.827,0 0.413,0.263 0,0 Z M -1.045,0 -0.631,-0.262 -0.218,0 -0.631,0.263 -1.045,0 Z"/></g><g transform="translate(8.1812,28.0547)" id="g54"><path id="path56" style="fill:#ffd83d;fill-opacity:1;fill-rule:nonzero;stroke:none" d="M 0,0 C 0.11,0 0.199,-0.088 0.199,-0.198 0.199,-0.309 0.11,-0.397 0,-0.397 c -0.109,0 -0.199,0.088 -0.199,0.199 C -0.199,-0.088 -0.109,0 0,0"/></g><g transform="translate(8.1812,27.1187)" id="g58"><path id="path60" style="fill:#ffd83d;fill-opacity:1;fill-rule:nonzero;stroke:none" d="m 0,0 c 0.294,0 0.533,-0.238 0.533,-0.533 0,-0.293 -0.239,-0.531 -0.533,-0.531 -0.294,0 -0.532,0.238 -0.532,0.531 C -0.532,-0.238 -0.294,0 0,0"/></g><g transform="translate(8.1807,23.8003)" id="g62"><path id="path64" style="fill:#ffd83d;fill-opacity:1;fill-rule:nonzero;stroke:none" d="m 0,0 c -0.658,0 -1.141,-0.311 -1.17,-1.1 -0.161,0.283 -0.841,1.173 -1.476,1.054 -0.376,-0.071 -0.71,-0.594 -0.653,-1.194 -0.314,0.898 -1.228,1.046 -1.897,0.515 0.593,-0.488 0.858,-1.927 1.356,-2.552 l 3.84,0 3.84,0 c 0.499,0.625 0.764,2.064 1.357,2.552 C 4.529,-0.194 3.614,-0.342 3.302,-1.24 3.357,-0.64 3.023,-0.117 2.645,-0.046 2.011,0.073 1.332,-0.817 1.171,-1.1 1.142,-0.311 0.658,0 0,0"/></g><g transform="translate(12.0088,20.5229)" id="g66"><path id="path68" style="fill:#000000;fill-opacity:1;fill-rule:nonzero;stroke:none" d="m 0,0 c 0,-0.284 -1.715,-0.597 -3.828,-0.597 -2.112,0 -3.827,0.313 -3.827,0.597 0,0.284 1.715,0.433 3.827,0.433 C -1.715,0.433 0,0.284 0,0"/></g><g transform="translate(12.0088,20.5229)" id="g70"><path id="path72" style="fill:none;stroke:#000000;stroke-width:0.076;stroke-linecap:round;stroke-linejoin:round;stroke-miterlimit:4;stroke-dasharray:none;stroke-opacity:1" d="m 0,0 c 0,-0.284 -1.715,-0.597 -3.828,-0.597 -2.112,0 -3.827,0.313 -3.827,0.597 0,0.284 1.715,0.433 3.827,0.433 C -1.715,0.433 0,0.284 0,0 Z"/></g><g transform="translate(7.7153,25.6172)" id="g74"><path id="path76" style="fill:#ffd83d;fill-opacity:1;fill-rule:nonzero;stroke:none" d="m 0,0 c 0,0 0.585,-0.085 0.931,0 0,0 0.135,-1.197 0.253,-1.641 0,0 -0.412,0.117 -0.703,0.117 -0.29,0 -0.732,-0.117 -0.732,-0.117 0,0 0.083,0.539 0.145,0.899 C -0.043,-0.383 0,0 0,0"/></g><g transform="translate(3.312,23.9819)" id="g78"><path id="path80" style="fill:#ffd83d;fill-opacity:1;fill-rule:nonzero;stroke:none" d="M 0,0 C -0.189,0.804 -0.198,1.626 0.817,2.324 1.832,3.023 3.524,2.434 3.993,2.317 4.462,2.2 4.471,1.69 3.897,1.833 3.323,1.976 1.714,2.424 0.938,1.731 0.162,1.038 0.312,0.527 0.431,0.117 0.775,-1.063 0.147,-0.627 0,0"/></g><g transform="translate(13.0508,23.9355)" id="g82"><path id="path84" style="fill:#ffd83d;fill-opacity:1;fill-rule:nonzero;stroke:none" d="M 0,0 C 0.189,0.804 0.198,1.626 -0.817,2.324 -1.832,3.023 -3.524,2.434 -3.993,2.317 -4.462,2.2 -4.471,1.69 -3.897,1.833 -3.323,1.976 -1.714,2.424 -0.938,1.731 -0.162,1.038 -0.317,0.529 -0.431,0.117 -0.692,-0.828 -0.147,-0.627 0,0"/></g></g></g></g></svg>
