<?xml version="1.0" encoding="UTF-8" standalone="no"?><svg xmlns:dc="http://purl.org/dc/elements/1.1/" xmlns:cc="http://creativecommons.org/ns#" xmlns:rdf="http://www.w3.org/1999/02/22-rdf-syntax-ns#" xmlns:svg="http://www.w3.org/2000/svg" xmlns="http://www.w3.org/2000/svg" viewBox="0 0 45 45" style="enable-background:new 0 0 45 45;" xml:space="preserve" version="1.1" id="svg2"><metadata id="metadata8"><rdf:RDF><cc:Work rdf:about=""><dc:format>image/svg+xml</dc:format><dc:type rdf:resource="http://purl.org/dc/dcmitype/StillImage"/></cc:Work></rdf:RDF></metadata><defs id="defs6"><clipPath id="clipPath16" clipPathUnits="userSpaceOnUse"><path id="path18" d="M 0,36 36,36 36,0 0,0 0,36 Z"/></clipPath></defs><g transform="matrix(1.25,0,0,-1.25,0,45)" id="g10"><g id="g12"><g clip-path="url(#clipPath16)" id="g14"><g transform="translate(36,9)" id="g20"><path id="path22" style="fill:#e8112d;fill-opacity:1;fill-rule:nonzero;stroke:none" d="m 0,0 c 0,-2.209 -1.791,-4 -4,-4 l -28,0 c -2.209,0 -4,1.791 -4,4 l 0,18 c 0,2.209 1.791,4 4,4 l 28,0 c 2.209,0 4,-1.791 4,-4 L 0,0 Z"/></g><g transform="translate(18.4731,24.0137)" id="g24"><path id="path26" style="fill:#ffcc4d;fill-opacity:1;fill-rule:nonzero;stroke:none" d="M 0,0 C 0.014,1.045 0.94,1.764 0.979,3.156 1.642,2.322 0.546,0.758 0.935,-0.148 1.113,0.881 2.138,1.447 2.396,2.815 2.921,1.888 1.593,0.516 1.835,-0.441 2.171,0.549 3.273,0.946 3.742,2.258 4.115,1.259 2.589,0.112 2.679,-0.87 3.166,0.054 4.316,0.274 4.984,1.497 5.197,0.452 3.509,-0.442 3.445,-1.427 4.07,-0.589 5.242,-0.552 6.091,0.551 6.138,-0.515 4.332,-1.133 4.115,-2.096 c 0.748,0.729 1.91,0.583 2.922,1.539 -0.12,-1.06 -2,-1.389 -2.368,-2.305 0.854,0.603 1.981,0.277 3.129,1.063 C 7.515,-2.827 5.605,-2.857 5.101,-3.706 6.037,-3.243 7.097,-3.742 8.357,-3.145 7.916,-4.115 6.023,-3.847 5.392,-4.605 6.39,-4.296 7.361,-4.954 8.697,-4.562 8.107,-5.451 6.283,-4.89 5.541,-5.541 6.574,-5.391 7.429,-6.192 8.81,-6.014 8.091,-6.8 6.375,-5.96 5.541,-6.487 6.585,-6.501 7.304,-7.428 8.695,-7.465 7.861,-8.131 6.298,-7.031 5.392,-7.422 6.423,-7.6 6.988,-8.625 8.357,-8.883 7.429,-9.408 6.056,-8.08 5.099,-8.322 6.089,-8.658 6.488,-9.76 7.798,-10.229 6.8,-10.604 5.654,-9.076 4.669,-9.166 c 0.926,-0.486 1.147,-1.637 2.368,-2.305 -1.045,-0.213 -1.938,1.475 -2.924,1.539 0.838,-0.625 0.875,-1.797 1.978,-2.646 -1.064,-0.047 -1.685,1.76 -2.646,1.976 0.728,-0.748 0.582,-1.91 1.539,-2.921 -1.061,0.119 -1.389,2 -2.305,2.367 0.602,-0.854 0.276,-1.981 1.063,-3.129 -1.03,0.283 -1.059,2.193 -1.907,2.697 0.463,-0.935 -0.037,-1.996 0.561,-3.256 -0.971,0.442 -0.703,2.334 -1.461,2.965 0.309,-0.998 -0.348,-1.969 0.044,-3.305 -0.89,0.59 -0.328,2.414 -0.979,3.157 0.15,-1.034 -0.652,-1.889 -0.473,-3.27 -0.787,0.719 0.053,2.436 -0.473,3.27 -0.014,-1.045 -0.94,-1.764 -0.979,-3.155 -0.665,0.832 0.433,2.397 0.043,3.303 -0.177,-1.031 -1.203,-1.596 -1.46,-2.965 -0.526,0.928 0.803,2.301 0.56,3.256 -0.336,-0.988 -1.438,-1.387 -1.906,-2.697 -0.374,0.998 1.153,2.144 1.063,3.129 -0.487,-0.926 -1.638,-1.147 -2.305,-2.367 -0.213,1.044 1.475,1.937 1.539,2.921 -0.625,-0.836 -1.796,-0.873 -2.647,-1.976 -0.047,1.064 1.76,1.685 1.977,2.646 -0.748,-0.728 -1.911,-0.582 -2.923,-1.539 0.12,1.061 2.002,1.389 2.367,2.305 -0.853,-0.602 -1.979,-0.275 -3.128,-1.063 0.284,1.03 2.194,1.059 2.698,1.907 -0.936,-0.463 -1.997,0.035 -3.256,-0.561 0.442,0.971 2.333,0.703 2.964,1.461 -0.998,-0.308 -1.967,0.348 -3.304,-0.043 0.588,0.888 2.414,0.328 3.156,0.978 -1.034,-0.15 -1.888,0.652 -3.27,0.473 0.72,0.786 2.435,-0.053 3.27,0.473 -1.045,0.014 -1.763,0.94 -3.156,0.979 0.834,0.665 2.397,-0.433 3.304,-0.043 -1.03,0.177 -1.595,1.203 -2.963,1.46 0.928,0.526 2.3,-0.803 3.256,-0.56 -0.99,0.336 -1.387,1.438 -2.699,1.906 0.999,0.374 2.146,-1.153 3.128,-1.063 -0.925,0.487 -1.144,1.638 -2.367,2.305 1.045,0.214 1.94,-1.475 2.924,-1.539 -0.837,0.625 -0.874,1.797 -1.978,2.647 1.065,0.047 1.684,-1.76 2.647,-1.977 -0.729,0.748 -0.583,1.911 -1.539,2.923 1.059,-0.12 1.389,-2.002 2.306,-2.367 -0.604,0.853 -0.277,1.978 -1.064,3.128 1.028,-0.284 1.059,-2.194 1.907,-2.698 -0.463,0.937 0.036,1.997 -0.561,3.255 0.971,-0.441 0.702,-2.332 1.461,-2.963 -0.31,0.998 0.348,1.967 -0.044,3.304 0.889,-0.588 0.328,-2.414 0.979,-3.155 -0.151,1.033 0.652,1.888 0.473,3.269 C 0.314,2.55 -0.526,0.834 0,0"/></g><g transform="translate(18.0015,13.0937)" id="g28"><path id="path30" style="fill:#e8112d;fill-opacity:1;fill-rule:nonzero;stroke:none" d="M 0,0 C 2.709,0 4.905,2.197 4.905,4.906 4.905,7.616 2.709,9.812 0,9.812 -2.709,9.812 -4.905,7.616 -4.905,4.906 -4.905,2.197 -2.709,0 0,0"/></g><g transform="translate(18.0005,22.5488)" id="g32"><path id="path34" style="fill:#ffcc4d;fill-opacity:1;fill-rule:nonzero;stroke:none" d="M 0,0 C 1.251,0 2.376,-0.536 3.16,-1.393 1.931,-1.517 0.889,-1.806 0,-2.247 -0.889,-1.806 -1.932,-1.517 -3.159,-1.393 -2.377,-0.536 -1.252,0 0,0"/></g><g transform="translate(17.6772,20.1265)" id="g36"><path id="path38" style="fill:#ffcc4d;fill-opacity:1;fill-rule:nonzero;stroke:none" d="M 0,0 C -0.099,-0.055 -0.195,-0.112 -0.29,-0.171 -1.087,0.252 -2.042,0.525 -3.176,0.606 -3.124,0.679 -3.07,0.751 -3.014,0.82 -1.835,0.716 -0.84,0.434 0,0"/></g><g transform="translate(18.3257,20.1265)" id="g40"><path id="path42" style="fill:#ffcc4d;fill-opacity:1;fill-rule:nonzero;stroke:none" d="M 0,0 C 0.099,-0.055 0.195,-0.112 0.29,-0.171 1.087,0.252 2.042,0.525 3.176,0.606 3.126,0.679 3.071,0.751 3.014,0.82 1.835,0.716 0.84,0.434 0,0"/></g><g transform="translate(14.3569,20.5132)" id="g44"><path id="path46" style="fill:#ffcc4d;fill-opacity:1;fill-rule:nonzero;stroke:none" d="m 0,0 c -0.045,-0.073 -0.088,-0.148 -0.129,-0.225 1.056,-0.024 1.942,-0.268 2.67,-0.67 0.076,0.058 0.153,0.113 0.232,0.167 C 2.013,-0.313 1.094,-0.054 0,0"/></g><g transform="translate(14.2275,16.2549)" id="g48"><path id="path50" style="fill:#ffcc4d;fill-opacity:1;fill-rule:nonzero;stroke:none" d="m 0,0 c -0.368,0.633 -0.504,1.232 -0.504,2.016 0,0.64 0.138,1.243 0.388,1.787 C 0.906,3.81 1.762,3.587 2.46,3.199 1.425,2.352 0.587,1.36 0,0"/></g><g transform="translate(16.2573,14.3672)" id="g52"><path id="path54" style="fill:#ffcc4d;fill-opacity:1;fill-rule:nonzero;stroke:none" d="M 0,0 C -0.192,0.074 -0.401,0.283 -0.579,0.383 -0.477,1.99 0.275,3.312 1.323,4.423 1.401,4.348 1.476,4.271 1.547,4.19 0.572,3.051 -0.053,1.574 0,0"/></g><g transform="translate(21.6465,20.5132)" id="g56"><path id="path58" style="fill:#ffcc4d;fill-opacity:1;fill-rule:nonzero;stroke:none" d="m 0,0 c 0.045,-0.073 0.088,-0.148 0.129,-0.225 -1.057,-0.024 -1.943,-0.268 -2.67,-0.67 -0.076,0.058 -0.154,0.113 -0.232,0.167 C -2.014,-0.313 -1.096,-0.054 0,0"/></g><g transform="translate(21.7754,16.2539)" id="g60"><path id="path62" style="fill:#ffcc4d;fill-opacity:1;fill-rule:nonzero;stroke:none" d="M 0,0 C 0.367,0.633 0.504,1.233 0.504,2.017 0.504,2.657 0.365,3.26 0.115,3.804 -0.906,3.811 -1.762,3.588 -2.46,3.2 -1.426,2.353 -0.586,1.36 0,0"/></g><g transform="translate(18.0015,18.1924)" id="g64"><path id="path66" style="fill:#ffcc4d;fill-opacity:1;fill-rule:nonzero;stroke:none" d="M 0,0 C 0.767,-1.234 0.914,-2.584 0.872,-4.109 0.539,-4.191 0.358,-4.199 0,-4.199 c -0.359,0 -0.539,0.008 -0.872,0.09 C -0.914,-2.662 -0.767,-1.281 0,0"/></g><g transform="translate(19.7402,14.3672)" id="g68"><path id="path70" style="fill:#ffcc4d;fill-opacity:1;fill-rule:nonzero;stroke:none" d="M 0,0 C 0.191,0.074 0.406,0.221 0.584,0.32 0.482,1.928 -0.27,3.312 -1.318,4.423 -1.395,4.348 -1.47,4.271 -1.542,4.19 -0.566,3.051 0.053,1.574 0,0"/></g><g transform="translate(17.3242,19.0186)" id="g72"><path id="path74" style="fill:#ffcc4d;fill-opacity:1;fill-rule:nonzero;stroke:none" d="m 0,0 c -0.091,0.075 -0.194,0.154 -0.293,0.222 -1.086,-0.962 -1.891,-2.079 -2.344,-3.595 0.168,-0.191 0.164,-0.332 0.363,-0.49 C -1.994,-2.27 -1.087,-1.051 0,0"/></g><g transform="translate(18.6787,19.0186)" id="g76"><path id="path78" style="fill:#ffcc4d;fill-opacity:1;fill-rule:nonzero;stroke:none" d="M 0,0 C 0.091,0.075 0.194,0.154 0.293,0.222 1.378,-0.74 2.181,-1.878 2.634,-3.394 2.466,-3.585 2.441,-3.705 2.242,-3.863 1.963,-2.27 1.087,-1.051 0,0"/></g><g transform="translate(18.001,19.9463)" id="g80"><path id="path82" style="fill:#ffcc4d;fill-opacity:1;fill-rule:nonzero;stroke:none" d="M 0,0 C 0.054,-0.032 0.239,-0.148 0.286,-0.179 0.213,-0.224 0.046,-0.337 0,-0.369 -0.045,-0.337 -0.213,-0.224 -0.286,-0.179 -0.239,-0.148 -0.054,-0.032 0,0"/></g><g transform="translate(17.4604,19.5894)" id="g84"><path id="path86" style="fill:#ffcc4d;fill-opacity:1;fill-rule:nonzero;stroke:none" d="m 0,0 c -0.073,-0.055 -0.184,-0.14 -0.226,-0.176 0.105,-0.069 0.246,-0.176 0.29,-0.21 0.055,0.047 0.164,0.142 0.225,0.187 C 0.214,-0.146 0.056,-0.032 0,0"/></g><g transform="translate(18.5425,19.5894)" id="g88"><path id="path90" style="fill:#ffcc4d;fill-opacity:1;fill-rule:nonzero;stroke:none" d="M 0,0 C 0.073,-0.055 0.184,-0.14 0.226,-0.176 0.121,-0.245 -0.02,-0.352 -0.065,-0.386 -0.119,-0.339 -0.228,-0.244 -0.289,-0.199 -0.215,-0.146 -0.057,-0.032 0,0"/></g><g transform="translate(18.001,19.1899)" id="g92"><path id="path94" style="fill:#ffcc4d;fill-opacity:1;fill-rule:nonzero;stroke:none" d="M 0,0 C 0.047,-0.04 0.186,-0.163 0.223,-0.2 0.157,-0.258 0.054,-0.355 0,-0.416 -0.054,-0.355 -0.156,-0.258 -0.222,-0.2 -0.186,-0.163 -0.046,-0.04 0,0"/></g></g></g></g></svg>
