<svg xmlns="http://www.w3.org/2000/svg" viewBox="0 0 64 64" enable-background="new 0 0 64 64"><path d="M32,62c13.1,0,24.2-8.3,28.3-20H3.7C7.8,53.7,18.9,62,32,62z" fill="#ed4c5c"/><path d="M32,2C18.9,2,7.8,10.4,3.7,22h56.6C56.2,10.4,45.1,2,32,2z" fill="#f9f9f9"/><g fill="#428bc1"><path d="M60.3,42c1.1-3.1,1.7-6.5,1.7-10s-0.6-6.9-1.7-10H3.7C2.6,25.1,2,28.5,2,32s0.6,6.9,1.7,10H60.3z"/><path d="m30.2 24.3l.8-11.2c-6.3-2.8-13.7-2.8-20 0l.8 11.2c.4 5 4 9.3 9.2 10.7 5.2-1.5 8.8-5.7 9.2-10.7"/></g><path d="m13.5 25.8c.9 3.6 3.7 6.6 7.5 7.8 3.8-1.2 6.6-4.2 7.5-7.8l-3.8-4.7-1.5 1.9-2.2-4.2-2.2 4.2-1.5-1.9-3.8 4.7" fill="#fff"/><g fill="#428bc1"><path d="m13.8 26.9c.7 1.1 2.2 1.5 3.4.9.8-.4 1.7-.4 2.5 0 .8.4 1.7.4 2.5 0 .8-.4 1.7-.4 2.5 0 1.2.6 2.7.3 3.4-.9v.7c-.7 1.1-2.2 1.5-3.4.9-.7-.5-1.7-.5-2.5 0-.8.4-1.7.4-2.5 0-.7-.5-1.7-.5-2.5 0-1.2.6-2.7.3-3.4-.9v-.7"/><path d="m13.8 28.3c.7 1.1 2.2 1.5 3.4.9.8-.4 1.7-.4 2.5 0 .8.4 1.7.4 2.5 0 .8-.4 1.7-.4 2.5 0 1.2.6 2.7.3 3.4-.9v.7c-.7 1.1-2.2 1.5-3.4.9-.8-.4-1.7-.4-2.5 0-.8.4-1.7.4-2.5 0-.8-.4-1.7-.4-2.5 0-1.2.6-2.7.3-3.4-.9v-.7"/></g><path d="m11.7 12.8l.8 11.4c.3 4.7 3.7 8.7 8.5 10.1 4.8-1.4 8.1-5.4 8.5-10.1l.8-11.4c.2.1.5.2.7.3l-.8 11.2c-.4 5-4 9.3-9.2 10.7-5.2-1.5-8.8-5.7-9.2-10.7l-.8-11.2c.2-.1.5-.2.7-.3" fill="#ed4c5c"/><g fill="#ffe62e"><path d="m17 11.9l.2.7.8-.2-.6.6.6.6-.8-.2-.2.7-.2-.7-.8.2.6-.6-.6-.6.8.2z"/><path d="m25 11.9l.2.7.8-.2-.6.6.6.6-.8-.2-.2.7-.2-.7-.8.2.6-.6-.6-.6.8.2z"/><path d="m21 14.8l.2.7.8-.1-.6.5.6.6-.8-.2-.2.7-.2-.7-.8.2.6-.6-.6-.5.8.1z"/></g></svg>