<svg xmlns="http://www.w3.org/2000/svg" version="1.1" viewBox="0 0 1000 1000">
  <defs/>
  <path fill="#002395" d="M8,195.25 C178.83,110.03 349.03,140.83 521.26,167.28 C676.47,191.12 833.42,211.85 992,132.75 L992,804.75 C821.17,889.97 650.97,859.17 478.74,832.72 C323.53,808.88 166.58,788.15 8,867.25 L8,195.25"/>
  <path fill="#fff" d="M8,195.25 C140.2,129.3 271.98,132.54 408.16,150.48 L408.16,426 C276.41,408.64 143.71,403.07 8,470.77 L8,195.25"/>
  <path fill="#002395" d="M8,195.25 C51.33,173.64 94.58,159.36 139.2,150.5 L139.2,419.3 C95.89,427.9 52.63,441.79 8,464.05 L8,195.25"/>
  <path fill="#ED2939" d="M270.4,139.37 C313.7,139.92 356.99,143.9 401.6,149.63 L401.6,418.42 C358.3,412.87 315.01,408.74 270.4,408.17 L270.4,139.37"/>
  <path fill="#fff" d="M590.2,484.74 L611.32,521.87 C631.14,524.27 650.96,526.32 671.38,527.87 L671.38,647.99 L626.28,571.49 L565.6,662.78 L595.12,666.83 L626.28,613.49 L690.24,736.6 L754.2,620.3 L785.36,676.1 C795.1,675.45 804.84,674.6 814.88,673.47 L754.2,578.3 L709.1,650.13 L709.1,583.77 L736.16,584.32 L756.25,551.38 C740.69,551.72 725.13,551.58 709.1,551.01 L709.1,530.01 C728.92,530.72 748.74,530.79 769.16,529.96 L790.28,494.32 C724.24,499.1 658.25,493.76 590.2,484.74 M660.72,639.58 C639.07,637.73 617.43,635.29 595.12,632.39 L595.12,655.91 C616.77,658.73 638.42,661.19 660.72,663.1 L660.72,639.58 M785.36,641.66 C763.71,643.06 742.07,643.42 719.76,642.89 L719.76,666.41 C741.41,666.92 763.05,666.62 785.36,665.18 L785.36,641.66"/>
  <path fill="#fff" d="M690.24,760.12 L710.48,824.88 L657.49,782.12 C679.11,784 700.72,785.32 722.99,785.78 C705.5,798.44 688.01,810.55 670,822.59 L690.24,760.12"/>
  <path fill="#fff" d="M616.44,696.36 L636.68,762.44 L583.69,716.57 C605.3,719.5 626.92,722.13 649.19,724.24 L596.2,757.67 L616.44,696.36"/>
  <path fill="#fff" d="M764.04,704.04 L784.28,766.87 C766.8,754.96 749.31,742.37 731.29,728.79 C752.91,728.99 774.52,728.35 796.79,726.51 C779.3,740.98 761.81,754.73 743.8,768.26 L764.04,704.04"/>
  <path fill="#fff" d="M554.12,518.32 L574.36,585.04 L521.37,537.76 L586.87,547.32 L533.88,579.11 L554.12,518.32"/>
  <path fill="#fff" d="M826.36,529.25 L846.6,590.01 C829.12,579.96 811.63,569.07 793.61,557.09 C815.23,555.37 836.83,552.59 859.11,548.28 C841.62,564.69 824.13,580.22 806.12,595.42 L826.36,529.25"/>
  <path fill="#1A1A1A" opacity="0.2" d="M8,195.25 C178.83,110.03 349.03,140.83 521.26,167.28 C676.47,191.12 833.42,211.85 992,132.75 L992,804.75 C821.17,889.97 650.97,859.17 478.74,832.72 C323.53,808.88 166.58,788.15 8,867.25 L8,195.25 M39.25,214.64 L39.25,819.14 C345.81,690.88 650.43,915.18 960.75,785.36 L960.75,180.86 C654.19,309.12 349.57,84.82 39.25,214.64"/>
</svg>
