<?xml version="1.0" encoding="UTF-8" standalone="no"?><svg xmlns:dc="http://purl.org/dc/elements/1.1/" xmlns:cc="http://creativecommons.org/ns#" xmlns:rdf="http://www.w3.org/1999/02/22-rdf-syntax-ns#" xmlns:svg="http://www.w3.org/2000/svg" xmlns="http://www.w3.org/2000/svg" viewBox="0 0 45 45" style="enable-background:new 0 0 45 45;" xml:space="preserve" version="1.1" id="svg2"><metadata id="metadata8"><rdf:RDF><cc:Work rdf:about=""><dc:format>image/svg+xml</dc:format><dc:type rdf:resource="http://purl.org/dc/dcmitype/StillImage"/></cc:Work></rdf:RDF></metadata><defs id="defs6"><clipPath id="clipPath16" clipPathUnits="userSpaceOnUse"><path id="path18" d="M 0,36 36,36 36,0 0,0 0,36 Z"/></clipPath></defs><g transform="matrix(1.25,0,0,-1.25,0,45)" id="g10"><g id="g12"><g clip-path="url(#clipPath16)" id="g14"><g transform="translate(36,4)" id="g20"><path id="path22" style="fill:#3b88c3;fill-opacity:1;fill-rule:nonzero;stroke:none" d="m 0,0 c 0,-2.209 -1.791,-4 -4,-4 l -28,0 c -2.209,0 -4,1.791 -4,4 l 0,28 c 0,2.209 1.791,4 4,4 l 28,0 c 2.209,0 4,-1.791 4,-4 L 0,0 Z"/></g><g transform="translate(24.125,26.3477)" id="g24"><path id="path26" style="fill:#ffffff;fill-opacity:1;fill-rule:nonzero;stroke:none" d="m 0,0 c 0,-1.209 -0.806,-2.294 -2.076,-2.294 -1.272,0 -2.264,0.93 -4.125,0.93 -1.333,0 -2.542,-0.713 -2.542,-2.016 0,-3.193 10.356,-1.147 10.356,-9.146 0,-4.434 -3.659,-7.194 -7.938,-7.194 -2.387,0 -7.534,0.558 -7.534,3.473 0,1.209 0.806,2.201 2.077,2.201 1.457,0 3.194,-1.209 5.209,-1.209 2.047,0 3.163,1.148 3.163,2.667 0,3.658 -10.356,1.457 -10.356,8.651 0,4.34 3.565,7.038 7.689,7.038 C -4.34,3.101 0,2.449 0,0"/></g></g></g></g></svg>
