<?xml version="1.0" encoding="UTF-8" standalone="no"?><svg xmlns:dc="http://purl.org/dc/elements/1.1/" xmlns:cc="http://creativecommons.org/ns#" xmlns:rdf="http://www.w3.org/1999/02/22-rdf-syntax-ns#" xmlns:svg="http://www.w3.org/2000/svg" xmlns="http://www.w3.org/2000/svg" viewBox="0 0 45 45" style="enable-background:new 0 0 45 45;" xml:space="preserve" version="1.1" id="svg2"><metadata id="metadata8"><rdf:RDF><cc:Work rdf:about=""><dc:format>image/svg+xml</dc:format><dc:type rdf:resource="http://purl.org/dc/dcmitype/StillImage"/></cc:Work></rdf:RDF></metadata><defs id="defs6"><clipPath id="clipPath16" clipPathUnits="userSpaceOnUse"><path id="path18" d="M 4,31 C 1.791,31 0,29.209 0,27 L 0,27 0,9 C 0,6.791 1.791,5 4,5 l 0,0 28,0 c 2.209,0 4,1.791 4,4 l 0,0 0,18 c 0,2.209 -1.791,4 -4,4 l 0,0 -28,0 z"/></clipPath></defs><g transform="matrix(1.25,0,0,-1.25,0,45)" id="g10"><g id="g12"><g clip-path="url(#clipPath16)" id="g14"><path id="path20" style="fill:#3366ff;fill-opacity:1;fill-rule:nonzero;stroke:none" d="M 0,31 36,31 36,5 0,5 0,31 Z"/><g transform="translate(18,18)" id="g22"><path id="path24" style="fill:#ff0000;fill-opacity:1;fill-rule:nonzero;stroke:none" d="M 0,0 -18,-13 18,-13 0,0 Z"/></g><g transform="translate(0,19.4688)" id="g26"><path id="path28" style="fill:#ffff00;fill-opacity:1;fill-rule:nonzero;stroke:none" d="M 0,0 0,-2.975 36,0 36,-2.975 0,0 Z"/></g><g transform="translate(18,18)" id="g30"><path id="path32" style="fill:#ffff00;fill-opacity:1;fill-rule:nonzero;stroke:none" d="m 0,0 -18,11 0,2 2,0 L 0,0 Z"/></g><g transform="translate(34,31)" id="g34"><path id="path36" style="fill:#ffff00;fill-opacity:1;fill-rule:nonzero;stroke:none" d="M 0,0 2,0 2,-2 -16,-13 0,0 Z"/></g><g transform="translate(18,18)" id="g38"><path id="path40" style="fill:#ffff00;fill-opacity:1;fill-rule:nonzero;stroke:none" d="m 0,0 -1.5,13 3,0 L 0,0 Z"/></g></g></g></g></svg>
