<svg xmlns="http://www.w3.org/2000/svg" viewBox="0 0 64 64" enable-background="new 0 0 64 64"><path d="m25.8 9.3h-6.9-3.5v-2.2-.1c-.8.5-1.5 1.1-2.3 1.7-1.7 1.4-3.3 3-4.6 4.7h2.8v2.1 6h-7.4c-1.2 3.3-1.9 6.8-1.9 10.5 0 3.5.6 6.9 1.7 10h22v-20.4h-10.3v-6-2.2h3.5 6.9v-4.1" fill="#fff"/><path d="m32 2c-2.1 0-4.2.2-6.2.6v58.7c2 .4 4.1.6 6.2.6 16.6 0 30-13.4 30-30 0-16.5-13.4-29.9-30-29.9" fill="#0091c8"/><path d="m61.5 32.3c0-.2.3-.7.5-1.2 0-.3 0-.6 0-.9-.2.4-.4.7-.4.9-.2.6-.4.2-.4-1.6-.1-1.4 0-2.8.2-4.1-.7-3.3-2-6.4-3.8-9.2-.4.1-.7.2-.7.2 0 0 .2-.3.4-.7-.1-.1-.2-.3-.3-.4-.6.8-1.2 1.5-1.3 1.5-.2.1-.9.3-1.7.6l-1.4.6 1.1-1c.6-.5 1.7-1.6 2.5-2.3l.2-.2c-.1-.1-.2-.2-.2-.3l-1.5 1.4c-1.6 1.5-3.2 2.9-3.4 3-.2.1-.5.3-.5.5-.1.3 0 .7.3.8.2.1.1.3-.5 1.1-.8 1.1-1.5 2.4-2 3.7l-.4 1-.2-.9c-.3-1.1-.6-2.7-.6-3.8 0-1 0-1 .7-1.9.8-1.1 2.7-3.1 3.7-3.9.4-.3 1.1-.8 1.6-1 1-.5 1.3-.7 1.3-1 0-.4-.3-.6-.8-.5-.3.1-1.4-.1-3.3-.5-1.6-.3-2.9-.6-3-.6 0 0 .1-.6.3-1.2.2-.8.4-1.3.6-1.5.4-.4.4-.9 0-1.2-.6-.6-1.6-.1-1.5.8l.1.4-.8.1c-.5.1-1.6.3-2.4.5-1.8.5-3.1.6-4 .2-.3-.1-.5-.2-.5-.2 0 0 0 .1 0 .3 0 .5.3 1 .9 1.3l.5.3-.4.1c-.2.1-.8.1-1.3 0s-.9 0-.9 0c0 .3.6 1 1 1.2.9.5 2.7.3 4.8-.4 1-.4 2.4-.5 2.3-.2 0 .2-1.8 1.5-4.9 3.7-1.6 1.1-1.8 1.4-1.6 1.9.1.3.1.4-.3 1-.8 1.4-1.6 3.8-1.6 5 0 .6 0 .7-.9 1.6-1.7 1.8-5.1 6-5.8 7.3l-.2.3-.2-.3c-.5-.6-1.5-.3-1.5.5 0 .5.3.8.9.8.3 0 1 .3 2.1.8l1.7.8-.4.5c-.6.7-.7 1.2-.4 1.6.2.2.3.2 1.1.2.8 0 1 .1 1.9.5.9.4 1.2.7 2.5 2 3.8 3.9 4.8 4.9 6.9 6.2.6.3 1.1.5 1.3.5.2-.1.6-.4 1-.8 1.7-2 3.1-1.5 6.3.3 1.6.9 2.2 1.1 2.4 1.1v-.2c.4-1.8 1-2.4 2.4-2.6.8-1.7 1.5-3.5 2-5.4-.8 0-1.7 0-2.3 0l-1.3-.1.1-.4c.1-.6.5-1.3 1.1-1.9.3-.3.5-.6.6-.6 0 0 .4.2.9.5.4.3.9.6 1.3.8.2-1.1.4-2.3.5-3.4-.3-.8-.5-1.7-.4-2m-14.7-18c.3-1.2.6-2.3.7-2.3.1 0 1.1.2 2.3.5 2.7.5 2.7.6 2.2.7-.2.1-1.5.4-2.8.8l-2.5.7.1-.4m-10.7 20.9h-.4c-.5-.1-4.3-1.8-4.3-2 0-.5 3.6-5.1 5.7-7.3l.8-.8v.4c0 .2.1.8.2 1.2l.2.8-1.1 3.9-1.1 3.8m4 2c-.1 0-.8-.3-1.5-.8-.7-.4-1.5-.8-1.7-.9l-.4-.1 1-3.5c.5-1.9 1-3.5 1-3.5.1 0 .2.3.4.7.2.5.3.9.3 2v1.3h.4.4v1.1c0 .6.1 1.6.3 2.1.2 1 .2 1.6-.2 1.6m1.6-9.3l-.4 1.2h-.9c-.5 0-.9 0-1-.1-.2-.2 0-1.1.3-1.6.3-.5 1.2-1 1.8-1 .2 0 .4 0 .4.1.2.1 0 .7-.2 1.4m2.4 1.3h-1.2l.1-.4c.1-.2.2-.6.3-1l.2-.7.4.3c.3.2.6.6.9.9.2.3.4.6.4.7 0 .1-.5.2-1.1.2m.3-13.9c-.5.1-1.4.4-1.9.5-.5.1-.8.2-.8.2.1-.1 4.2-3.1 4.3-3.1v.2c0 .1-.2.6-.3 1.1l-.3.8-1 .3m4.8 21.8c-1.1-.8-2.2-2.2-2.8-3.7-.4-.9-.4-1-.1-1 .2 0 .2-.3.2-1.6v-1.6h-.4c-.3 0-.4-.1-.5-.5-.1-.3-.2-1.2-.2-2.3 0-1.9.2-2.7 1-4.5.4-1 .6-.9.6.1 0 .7.3 2.2.7 3.3.3.8.3 1 .2 1.5-.1.3-.2 1.1-.3 1.9-.2 2.4.2 4.7 1.2 6.9.3.6.6 1.3.6 1.5l.1.3-.3-.3m3.3-2.6c0 .1-.3.9-.6 1.8-.3.9-.6 1.7-.6 1.8 0 .1-.3 0-.6-.1-.4-.2-.5-.3-.7-.9-.2-.6-.2-.7.2-1.2.4-.7 1-1.2 1.7-1.3.6-.3.6-.3.6-.1m3.5 4.9c-.4 0-1.2-.2-1.9-.3l-1.3-.3.3-1c.2-.5.5-1.5.6-2.1.3-1.1.4-1.2.9-1 .2.1.3.3.5 1.1.2.7.5 1.5.9 2.4l.7 1.3-.7-.1m2.2-2.3c-.3.4-.7.9-.8 1.2-.1.3-.2.6-.3.7-.2.3-1.7-3.1-1.7-3.8 0-.3.5-.1 2 .6l1.3.6-.5.7" fill="#ffce31"/><g fill="#3e4347"><path d="m56.6 47.6v.2c-.2 0-.8-.2-2.4-1.1-3.2-1.9-4.6-2.4-6.3-.3-.4.4-.8.7-1 .8-.2-.1-.7-.2-1.3-.5-.2-.1-.5-.2-.7-.3-1.9-1-3.3-1.3-4.4-1-.7.2-1.2.6-1.5 1.3-.2.4-.4.7-.6.7-.5.1-2.2-.9-2.8-1.3-2.3-1.4-3.7-1.5-5.8-.1-.4.3-.8.5-1 .5-.1 0-.5-.1-.9-.2-.5-.2-.9-.4-1-.5-.2-.4-.6-.6-1-.5l-.1.1v1 .6c.3.3.8.6 1.5.8 1.6.6 2 .5 3.5-.5 1.4-.9 2.1-1 3.8.1 1.9 1.2 3.1 1.8 4.2 1.5.9-.2 1.4-1 1.7-1.6.2-.3.3-.4.5-.4.3-.1 1.1-.1 3 .8.2.1 2.1 1.1 2.9 1.1.5 0 1.1-.4 1.5-.7.4-.3.7-.6.8-.7.8-.9 1-1.1 4.1.7 1.3.8 2.3 1.2 3.1 1.3.3-.4.6-.8.9-1.3l.2-.3c.4-.6.8-1.3 1.1-2l.1-.2c.1-.3.3-.5.4-.8-1.5.4-2.1 1-2.5 2.8"/><path d="m25.5 34l.3.2v-.5z"/><path d="m23.1 34l1.3.3.3-.3-.3-.4z"/><path d="m24.8 33.3l.3.3.4-.3-.4-1.3z"/><path d="m25.8 37.2v-1.7l-.6-1.2h-.2l-1.3 2.9h.8l.5.7h.2l.5-.7h.1"/><path d="m17.5 34l.3.3 1.3-.3-1.3-.4z"/><path d="m15 34l1.3.3.3-.3-.3-.4z"/><path d="m16.7 33.3l.3.3.4-.3-.4-1.3z"/><path d="m16.9 34.3l-1.3 2.9h.9l.4.7h.2l.5-.7h.8l-1.3-2.9z"/><path d="m9.4 34l.3.3 1.3-.3-1.3-.4z"/><path d="m8.5 34l-.3-.4-1.3.4 1.3.3z"/><path d="m8.6 33.3l.4.3.3-.3-.3-1.3z"/><path d="m8.8 34.3l-1.2 2.9h.8l.4.7h.3l.4-.7h.9l-1.3-2.9z"/><path d="m25 23.7h.2l.5-.7h.1v-1.4h-1.4l-.7 1.4h.8z"/><path d="m16.9 23.7h.2l.5-.7h.8l-.6-1.4h-1.5l-.7 1.4h.9z"/><path d="m8.8 23.7h.3l.4-.7h.9l-.7-1.4h-1.5l-.6 1.4h.8z"/><path d="m6.9 27l-1.3-.4-.3.4.3.3z"/><path d="m4.5 27l-.3-.4-1.3.4 1.3.3z"/><path d="m5.3 26.3l-.4-1.3-.3 1.3.3.3z"/><path d="m4.8 27.3l-1.3 2.9h.8l.5.7h.2l.4-.7h.9l-1.3-2.9z"/><path d="m15 27l-1.3-.4-.3.4.3.3z"/><path d="m12.6 27l-.3-.4-1.3.4 1.3.3z"/><path d="m13.3 26.3l-.3-1.3-.3 1.3.3.3z"/><path d="m12.9 27.3l-1.3 2.9h.8l.5.7h.2l.4-.7h.9l-1.3-2.9z"/><path d="m23.1 27l-1.3-.4-.3.4.3.3z"/><path d="m20.7 27l-.3-.4-1.3.4 1.3.3z"/><path d="m21.4 26.3l-.3-1.3-.4 1.3.4.3z"/><path d="m21 27.3l-1.3 2.9h.8l.5.7h.2l.4-.7h.9l-1.3-2.9z"/><path d="m13.4 41.5l.3.3 1.3-.3-1.3-.4z"/><path d="m11 41.5l1.3.3.3-.3-.3-.4z"/><path d="m12.7 40.8l.3.3.3-.3-.3-1.3z"/><path d="m21.5 41.5l.3.3 1.3-.3-1.3-.4z"/><path d="m19.1 41.5l1.3.3.3-.3-.3-.4z"/><path d="m20.7 40.8l.4.3.3-.3-.3-1.3z"/></g><g fill="#ed4c5c"><path d="m22.7 21.6l-7.3-6v6h.9 1.5 6.6 1.4-1.4z"/><path d="m18.9 9.3h6.9v-5.6z"/><path d="m18.9 13.4l6.9 5.6v1.4-7z"/><path d="m3.9 21.5v.1h4.3 1.5 1.5v-6.1z"/></g><path fill="#dc241f" d="m25.8 2.6v.5-.5"/><g fill="#699635"><path d="m25.8 20.4v-1.4l-6.9-5.6h-3.5v2.2l7.3 6h1.7 1.4v-.3z"/><path d="m25.8 3.1v-.5c-3.5.7-6.9 2.1-9.8 4-.2.1-.4.2-.6.4v.1 2.2h3.5l6.9-5.6v-.6"/><path d="m8.5 13.4c-1.9 2.4-3.5 5.1-4.6 8.1l7.3-6v-2.1h-2.7"/></g><g fill="#fff"><path d="m53.3 48.2c-3.1-1.8-3.3-1.6-4.1-.7-.1.1-.4.4-.8.7-.4.4-1 .7-1.5.7-.8 0-2.7-1-2.9-1.1-1.9-1-2.7-.9-3-.8-.1 0-.3.1-.5.4-.3.6-.8 1.4-1.7 1.6-1.1.3-2.3-.3-4.2-1.5-1.8-1.1-2.5-1-3.8-.1-1.5 1-1.9 1-3.5.5-.7-.2-1.2-.5-1.5-.8v.5c.3.4.9.8 1.8 1.1 1.6.6 2 .5 3.5-.5 1.4-.9 2.1-1 3.8.1 1.9 1.2 3.1 1.8 4.2 1.5.9-.2 1.4-1 1.7-1.6.2-.3.3-.4.5-.4.3-.1 1.1-.1 3 .8.2.1 2.1 1.1 2.9 1.1.7 0 1.5-.7 2-1.2.1-.1.2-.2.3-.3.8-.9 1-1.1 4.1.7.9.5 1.7.9 2.3 1.2.2-.2.3-.4.5-.6-.8-.1-1.8-.6-3.1-1.3"/><path d="m32.7 51.7c.8-.1 1.4 0 2.5.7 2.2 1.2 3.1 1.3 4.5.4 1.7-1 2.4-1.2 3.8-.9 1 .2 1.1.2.7-.2-.9-.8-2.6-.8-4.1 0-1.8.9-2.6.9-4.6 0-1.8-.8-2.4-.9-3.3-.3-.6.4-.5.4.5.3"/><path d="m49.9 52.5c-1.4-.3-1.6-.1-.3.6 1 .5 2 .6 3.6.2.4-.4.8-.9 1.2-1.3-2 .6-3.4.8-4.5.5"/><path d="m47.4 55.9c-1.5 1.2-2.4 1.2-4 .1-1.4-1-2.4-1-4.2-.1-1.1.5-1.3.7-.9.8.3.1.9 0 1.5-.2 1.4-.6 2.1-.6 3.8.5.9.5 1.7 1 1.9 1s.8-.4 1.5-.8c1.4-.9 2.1-1.3 3-1.2.3-.2.5-.4.8-.6-1.6-.7-2.1-.6-3.4.5"/><path d="m41.6 59.2c-1.2-.9-2.4-.9-4.2 0-1.7.8-2.2.8-4.3-.7-1.7-1.2-1.8-1.2-2.8-.8-.4.2-.8.5-1 .8-.4.5-.3.5.2.3.8-.4 2.1-.4 2.4 0 .1.2.8.7 1.5 1.1 1.6 1 3 1.1 4.6.1 1.3-.7 2.1-.8 3.9-.2.5.1.4 0-.3-.6"/></g><g fill="#ed4c5c"><path d="m20.6 59.5c-.3-.1-.2-.4 0-.4.3-.1.6.2 1.4.2.2 0 .4 0 .4-.4 0-.5-.4-.9-1.8-.7-1.1.2-2 .2-2.6.1 0 .2 0 .4 0 .5.8.4 1.5.8 2.3 1.1.1-.3.2-.4.3-.4"/><path d="m3.7 42c.7 1.8 1.5 3.6 2.5 5.3.5.5 3.2 3.5 2.5 3.7 1.7 2 3.6 3.8 5.7 5.4.2 0 7.3 3.6 7.1 3.8 1.4.5 2.8.9 4.3 1.2v-13.8-.6-.8-1-3.2h-22.1"/></g><g fill="#ffe62e"><path d="m23.5 48.6c-.1-.2-.2-.3-.5-.2-.8.2-3 .1-3.7-.3 1.1.4 2.4-.4 2.4-1.1 0-.8-1-1.4-3.2-1-2.1.4-4.7.2-4.7-.4 0-.6 1.9-.7 2.8-.6 1 .1 1.6.2 3.4-.3-.4.1-1.9.2-3-.1-1.1-.3-3.9-.3-3.9 1 0 1.3 2.9 1.2 5.5.9 1.5-.2 2.3-.1 2.3.4 0 .4-1.4.6-2.4.5-1-.1-2.1-.1-3.4.2-2.2.6-4.8.2-5.4-.8 0-.1.1-.2.1-.4.2-.1.3-.4.4-.6.1-.5-.1-.5-.7-.3-.2-.2-.6-.3-1.2-.3-.6 0-.9.1-1.2.3-.6-.2-.8-.2-.7.3.1.2.2.5.4.6 0 .7.9 1.8.9 1.8-.5 0-1.1-.4-1.6-.9.5.8.9 1.5 1.5 2.2.2.2.3.3.4.5.2.3.5.6.7.9.7-.1 1.3-.4 2-.9.4 0 3.1-.1 4.2-.6.7.7.8.6 1.4.7.6.1 1 .1.6.4-.1.1-.8.1-1.2.1-1.1 0-1.6-.6-1.9-.3-.2.3 0 .4.4.4-.3 0-.7 0-.6.3.1.5.7-.1.9.1-.2 0-.5.1-.5.2 0 .2.4.4.9 0 .3-.2.6-.2.8-.2.7 0 2.4.3 3-.2.2-.2-.1-.4-.3-.6-.2-.2-.3-.4-.2-.9.6.1 1.4.1 2.6-.1 1.4-.2 1.8.2 1.8.7 0 .4-.3.4-.4.4-.8 0-1.1-.2-1.4-.2-.2.1-.3.3 0 .4-.2.1-.2.3-.1.4.1.1.4 0 .7-.1-.3.1-.6.3-.4.5.1.1.3.2.6 0 .2-.3.7-.4.9-.5.9.2 1.4-1.3 1-2.3"/><path d="m23.5 57.2c-.1-.2-.2-.3-.5-.2-.8.2-3 .1-3.7-.3 1.1.4 2.4-.4 2.4-1.1 0-.8-1-1.4-3.2-1-2.1.4-4.7.2-4.7-.4s1.9-.7 2.8-.6c1 .1 1.6.2 3.4-.3-.4.2-1.9.2-3-.1-1.1-.3-3.9-.3-3.9 1 0 1.3 2.9 1.2 5.5.9 1.5-.2 2.3-.1 2.3.4 0 .4-1.4.6-2.4.5-1-.1-2.1-.1-3.4.2-.2.1-.5.1-.7.2 1.2.8 2.4 1.6 3.7 2.3 0-.1 0-.3 0-.5.6.1 1.4.1 2.6-.1 1.4-.2 1.8.2 1.8.7 0 .4-.3.4-.4.4-.8 0-1.1-.2-1.4-.2-.2.1-.3.3 0 .4-.1.1-.2.1-.2.2.1.1.3.1.4.2h.1c.2.1.4.2.6.2.2-.2.6-.3.8-.3 1 0 1.5-1.5 1.1-2.5"/></g></svg>