<svg xmlns="http://www.w3.org/2000/svg" viewBox="0 0 1000 1000">
  <defs/>
  <path fill="#cf142b" d="M8,195.25 C178.83,110.03 349.03,140.83 521.26,167.28 C676.47,191.12 833.42,211.85 992,132.75 L992,804.75 C821.17,889.97 650.97,859.17 478.74,832.72 C323.53,808.88 166.58,788.15 8,867.25 L8,195.25"/>
  <path fill="#fff" d="M8,195.25 C170.66,114.1 332.46,138.06 500,164 L500,836 C338.19,810.95 174.65,784.12 8,867.25 L8,195.25"/>
  <path fill="#e60d2e" d="M32.3,276.64 L32.3,327.55 C48.71,320.4 65.1,314.23 81.99,308.84 C82.32,317.49 90.01,322.93 98.56,320.85 L98.56,371.76 C114.97,367.16 131.36,363.41 148.25,360.35 L148.25,309.44 C156.74,307.59 164.5,298.49 164.82,289.75 C181.22,287.32 197.62,285.59 214.52,284.47 L214.52,233.56 C198.12,234.65 181.72,236.33 164.82,238.84 C164.5,230.13 156.8,223.4 148.25,224.59 L148.25,173.69 C131.85,176.65 115.46,180.36 98.56,185.09 L98.56,236 C90.09,238.72 82.32,249.15 81.99,257.93 C65.59,263.16 49.2,269.27 32.3,276.64"/>
  <path fill="#96877d" d="M35.61,278.6 L35.61,322.72 C52.02,315.7 68.41,309.67 85.31,304.41 C85.63,313.06 93.32,318.55 101.87,316.53 L101.87,367.44 C116.09,363.56 130.3,360.31 144.94,357.56 L144.94,306.66 C153.43,304.75 161.18,295.6 161.51,286.86 C177.91,284.33 194.3,282.51 211.2,281.3 L211.2,237.17 C194.8,238.35 178.41,240.13 161.51,242.74 C161.18,234.03 153.49,227.34 144.94,228.59 L144.94,177.69 C130.73,180.35 116.52,183.56 101.87,187.56 L101.87,238.47 C93.4,241.13 85.63,251.5 85.31,260.28 C68.91,265.39 52.52,271.37 35.61,278.6"/>
  <path fill="#ccc" d="M37.27,279.59 L37.27,320.31 C53.68,313.37 70.07,307.4 86.96,302.2 C87.29,310.85 94.98,316.38 103.53,314.39 L103.53,365.3 C116.65,361.76 129.77,358.75 143.28,356.18 L143.28,305.27 C151.77,303.34 159.53,294.16 159.85,285.42 C176.25,282.84 192.65,280.97 209.55,279.72 L209.55,238.99 C193.14,240.21 176.75,242.03 159.85,244.69 C159.53,235.99 151.83,229.32 143.28,230.6 L143.28,179.7 C130.16,182.19 117.05,185.17 103.53,188.81 L103.53,239.72 C95.06,242.35 87.28,252.69 86.96,261.47 C70.56,266.52 54.17,272.43 37.27,279.59"/>
  <path fill="#96877d" d="M100.43,239.96 C103.23,242.54 102.54,247.64 98.67,253.05 C94.45,258.21 89.62,260.33 86.37,258.48 C83.58,256 84.24,250.86 88.13,245.34 C92.36,240.08 97.16,238 100.43,239.96"/>
  <path fill="#d0d0d0" d="M85.78,253.25 L86.95,251.69 L91.64,252.68 L89.3,248.58 L90.47,247.03 L95.15,255.25 L85.78,253.25 L85.78,253.25"/>
  <path fill="#d0d0d0" d="M92.81,243.94 L93.98,242.39 L101.01,247.6 L99.84,249.12 L92.81,243.94"/>
  <path fill="#96877d" d="M160.44,241.42 C157.18,244.81 152.37,244.91 148.14,241.7 C144.27,238.07 143.58,233.29 146.39,229.42 C149.66,225.94 154.45,225.81 158.69,229.1 C162.57,232.82 163.24,237.64 160.44,241.42"/>
  <path fill="#d0d0d0" d="M151.66,227.88 L152.83,228.87 L150.49,234.08 L155.18,230.88 L156.35,231.88 L146.98,238.31 L151.66,227.88 L151.66,227.88"/>
  <path fill="#d0d0d0" d="M158.69,233.9 L159.86,234.92 L152.83,243.28 L151.66,242.28 L158.69,233.9"/>
  <path fill="#96877d" d="M146.39,305.3 C143.59,302.48 144.26,297.42 148.14,292.38 C152.38,287.64 157.17,286.15 160.44,288.51 C163.24,291.42 162.56,296.44 158.69,301.39 C154.46,306.04 149.65,307.57 146.39,305.3"/>
  <path fill="#d0d0d0" d="M161.03,293.82 L159.86,295.2 L155.17,293.56 L157.52,297.98 L156.35,299.37 L151.66,290.56 L161.03,293.82 L161.03,293.82"/>
  <path fill="#d0d0d0" d="M154,302.16 L152.83,303.56 L145.8,297.61 L146.97,296.2 L154,302.16"/>
  <path fill="#96877d" d="M86.37,305.56 C89.65,301.67 94.44,300.95 98.67,303.74 C102.55,306.98 103.23,311.72 100.43,315.84 C97.16,319.62 92.34,320.3 88.13,317.62 C84.25,314.47 83.56,309.78 86.37,305.56"/>
  <path fill="#d0d0d0" d="M95.15,317.94 L93.98,317.08 L96.32,311.6 L91.64,315.37 L90.46,314.52 L99.84,307.01 L95.15,317.94 L95.15,317.94"/>
  <path fill="#d0d0d0" d="M88.12,312.82 L86.95,311.98 L93.98,302.68 L95.15,303.54 L88.12,312.82"/>
  <path fill="#96877d" d="M158.48,265.28 C158.36,275.34 155.05,284.02 148.21,292.43 C141.19,300.71 133.19,305.67 123.41,308.02 C113.55,310.16 105.65,308.88 98.61,303.82 C91.73,298.54 88.45,291.49 88.33,281.42 C88.45,271.38 91.76,262.12 98.61,253.01 C105.63,244.02 113.62,238.54 123.41,236.17 C133.27,234.05 141.16,235.86 148.21,241.62 C155.07,247.6 158.36,255.22 158.48,265.28 M157.92,265.37 C157.79,255.47 154.57,247.98 147.81,242.1 C140.87,236.43 133.11,234.66 123.41,236.74 C113.78,239.08 105.91,244.47 99,253.3 C92.27,262.27 89.02,271.37 88.9,281.25 C89.02,291.16 92.24,298.09 99,303.3 C105.93,308.28 113.71,309.55 123.41,307.45 C133.03,305.13 140.91,300.25 147.81,292.1 C154.54,283.81 157.8,275.27 157.92,265.37"/>
  <path fill="#96877d" d="M150.2,266.67 C150.07,274.38 147.58,280.99 142.35,287.52 C136.96,293.91 130.9,297.7 123.41,299.54 C115.85,301.15 109.88,300.13 104.46,296.21 C99.21,292.06 96.74,286.7 96.62,278.98 C96.74,271.28 99.24,264.33 104.46,257.4 C109.86,250.6 115.91,246.5 123.41,244.65 C130.97,243.05 136.92,244.37 142.35,248.71 C147.6,253.26 150.07,258.96 150.2,266.67 M149.63,266.77 C149.51,259.22 147.09,253.65 141.95,249.2 C136.63,244.95 130.82,243.67 123.41,245.23 C116.07,247.04 110.16,251.04 104.86,257.7 C99.75,264.48 97.3,271.28 97.18,278.82 C97.3,286.38 99.72,291.63 104.86,295.69 C110.18,299.54 116,300.54 123.41,298.96 C130.74,297.16 136.66,293.45 141.95,287.19 C147.07,280.8 149.51,274.32 149.63,266.77"/>
  <path fill="#000" d="M111.81,303.73 C111.73,304.73 111.11,305.52 110.15,305.85 C109.18,306.02 108.58,305.56 108.5,304.58 C108.58,303.58 109.2,302.78 110.15,302.46 C111.13,302.29 111.73,302.75 111.81,303.73"/>
  <path fill="#000" d="M138.31,297.75 C138.24,298.75 137.62,299.5 136.66,299.78 C135.68,299.89 135.08,299.4 135,298.42 C135.08,297.42 135.7,296.66 136.66,296.38 C137.64,296.27 138.24,296.76 138.31,297.75"/>
  <path fill="#000" d="M122.31,301.19 L122.31,302.96 L120.1,303.47 C117.93,304.17 117.85,305.59 120.1,305.24 L122.31,304.73 L122.31,306.5 C122.52,308.33 124.04,308.1 124.38,306.18 L124.52,304.23 L126.73,303.74 C128.89,303.08 128.97,301.66 126.73,301.97 L124.52,302.46 L124.52,300.69 C124.28,298.93 122.53,299.43 122.31,301.2 L122.31,301.19"/>
  <path fill="#000" d="M91.04,289.39 L93.32,288.16 L93.07,287.15 C93,286.91 92.92,286.79 92.78,286.73 C92.64,286.69 92.43,286.72 92.09,286.85 L92.06,286.7 L94.02,285.65 L94.06,285.8 C93.83,285.93 93.68,286.04 93.58,286.15 C93.49,286.26 93.43,286.37 93.4,286.5 C93.37,286.62 93.38,286.77 93.42,286.96 L93.68,287.97 L95.5,286.99 C95.79,286.83 95.97,286.72 96.06,286.63 C96.13,286.56 96.17,286.48 96.21,286.36 C96.24,286.2 96.24,286.07 96.21,285.93 L96.16,285.73 L96.32,285.65 L96.92,288.03 L96.76,288.11 L96.71,287.91 C96.64,287.68 96.55,287.57 96.38,287.53 C96.26,287.52 96.05,287.59 95.69,287.78 L91.95,289.78 C91.65,289.95 91.47,290.07 91.38,290.15 C91.32,290.22 91.27,290.3 91.24,290.42 C91.2,290.58 91.2,290.71 91.23,290.85 L91.28,291.04 L91.12,291.13 L90.09,287.02 L91.35,286.27 L91.39,286.42 C91.13,286.64 90.96,286.83 90.85,286.99 C90.75,287.15 90.69,287.31 90.66,287.48 C90.65,287.66 90.67,287.87 90.74,288.17 L91.04,289.39 M89.58,279.29 C89.65,278.46 89.95,277.76 90.57,276.99 C91.23,276.26 91.91,275.83 92.81,275.58 C93.76,275.39 94.4,275.5 95.01,275.95 C95.58,276.45 95.81,277.02 95.79,277.9 C95.72,278.78 95.42,279.49 94.8,280.25 C94.15,280.96 93.44,281.39 92.5,281.64 C91.5,281.84 90.86,281.71 90.24,281.19 C89.75,280.69 89.56,280.14 89.58,279.29 M89.89,279.3 C89.88,279.88 90.03,280.22 90.41,280.49 C90.92,280.78 91.55,280.81 92.54,280.6 C93.53,280.35 94.23,279.98 94.81,279.43 C95.23,278.98 95.43,278.54 95.48,277.98 C95.49,277.37 95.32,277 94.9,276.69 C94.45,276.43 93.85,276.39 92.87,276.6 C91.83,276.87 91.12,277.24 90.56,277.77 C90.15,278.23 89.95,278.69 89.89,279.3 M98.52,265.65 L97.96,267.33 L94.63,269.2 L94.51,269.58 C94.5,269.62 94.48,269.67 94.47,269.71 C94.45,269.76 94.43,269.81 94.41,269.86 L96.03,270.02 C96.39,270.05 96.6,270.03 96.73,269.96 C96.89,269.84 97,269.69 97.09,269.45 L97.17,269.2 L97.32,269.22 L96.41,271.92 L96.26,271.9 L96.34,271.67 C96.43,271.39 96.41,271.22 96.3,271.07 C96.23,271 96.06,270.95 95.73,270.91 L92.14,270.56 C91.77,270.53 91.56,270.55 91.44,270.63 C91.28,270.75 91.17,270.91 91.08,271.15 L91,271.39 L90.85,271.38 L91.62,269.07 C91.85,268.39 92.06,267.91 92.24,267.59 C92.45,267.28 92.68,267.04 92.99,266.83 C93.31,266.63 93.6,266.55 93.93,266.57 C94.29,266.62 94.51,266.76 94.7,267.04 C94.85,267.34 94.9,267.71 94.83,268.27 L96.87,267.13 C97.34,266.87 97.66,266.64 97.86,266.44 C98.05,266.24 98.22,265.97 98.37,265.63 L98.52,265.65 M94.15,269.83 C94.17,269.77 94.19,269.72 94.21,269.68 L94.25,269.57 C94.44,268.95 94.47,268.53 94.36,268.17 C94.21,267.84 94,267.68 93.63,267.63 C93.27,267.61 92.98,267.69 92.66,267.92 C92.36,268.16 92.16,268.45 92.01,268.87 C91.95,269.05 91.89,269.29 91.84,269.61 L94.15,269.83 M106.83,246.1 L107.98,247.33 L107.86,247.45 C107.46,247.24 107.12,247.15 106.77,247.16 C106.27,247.21 105.84,247.42 105.35,247.85 C104.71,248.49 104.42,249.08 104.38,249.85 C104.4,250.49 104.57,251 104.95,251.53 C105.28,251.94 105.63,252.2 106.07,252.39 C106.53,252.54 106.92,252.56 107.36,252.45 C107.78,252.32 108.13,252.13 108.46,251.84 C108.64,251.66 108.8,251.48 108.95,251.28 C109.09,251.08 109.21,250.87 109.31,250.65 L108.37,249.41 C108.21,249.19 108.09,249.08 108,249.04 C107.91,249.01 107.82,249.02 107.71,249.05 C107.6,249.1 107.45,249.2 107.24,249.39 L107.15,249.27 L109.09,247.48 L109.18,247.6 L109.09,247.69 C108.89,247.88 108.82,248.03 108.82,248.22 C108.84,248.34 108.92,248.51 109.09,248.75 L110.08,250.06 C109.9,250.45 109.69,250.8 109.46,251.12 C109.23,251.43 108.95,251.74 108.62,252.05 C107.59,252.95 106.76,253.31 105.81,253.3 C105.11,253.23 104.64,252.98 104.21,252.46 C103.92,252.06 103.77,251.64 103.7,251.09 C103.66,250.43 103.76,249.83 104.02,249.18 C104.27,248.65 104.61,248.18 105.11,247.7 C105.29,247.53 105.47,247.39 105.63,247.28 C105.8,247.16 106.06,247.02 106.39,246.86 C106.57,246.77 106.67,246.71 106.72,246.66 C106.77,246.62 106.79,246.57 106.8,246.5 C106.8,246.43 106.77,246.34 106.7,246.23 L106.83,246.1 M116.53,244.33 L114.3,245.49 L114.16,246.56 C114.12,246.83 114.12,247.01 114.15,247.12 C114.17,247.2 114.23,247.25 114.33,247.27 C114.44,247.28 114.62,247.24 114.91,247.11 L114.95,247.27 L113.14,248.21 L113.09,248.06 C113.33,247.89 113.46,247.76 113.52,247.66 C113.62,247.44 113.71,247.11 113.78,246.61 L114.54,241.02 L114.69,240.94 L117.97,244.5 C118.24,244.79 118.44,244.94 118.61,245 C118.78,245.03 118.96,245.01 119.21,244.9 L119.25,245.05 L116.98,246.22 L116.94,246.07 C117.17,245.93 117.3,245.82 117.37,245.72 C117.43,245.61 117.45,245.52 117.43,245.43 C117.39,245.31 117.29,245.15 117.1,244.95 L116.53,244.33 M116.33,244.09 L114.74,242.36 L114.35,245.12 L116.33,244.09 M126.85,241.61 L126.99,241.62 L126.42,243.38 L121.81,244.24 L121.82,244.08 L122.04,244.03 C122.3,243.97 122.46,243.87 122.59,243.68 C122.65,243.56 122.69,243.34 122.71,242.99 L122.86,239.02 C122.87,238.62 122.84,238.41 122.76,238.32 C122.64,238.21 122.5,238.18 122.26,238.22 L122.04,238.26 L122.04,238.09 L124.74,237.58 L124.73,237.75 C124.41,237.81 124.2,237.88 124.06,237.96 C123.93,238.06 123.85,238.15 123.79,238.25 C123.75,238.37 123.71,238.59 123.7,238.96 L123.55,242.83 C123.55,243.08 123.56,243.24 123.6,243.33 C123.64,243.39 123.69,243.42 123.76,243.44 C123.84,243.45 124.06,243.43 124.44,243.36 L124.88,243.28 C125.34,243.19 125.65,243.09 125.84,243 C126.03,242.89 126.2,242.74 126.36,242.53 C126.52,242.32 126.68,242.02 126.85,241.61 M134.79,242.09 L134.91,242.14 L133.92,243.75 L129.54,243.2 L129.59,243.03 L129.8,243.06 C130.06,243.08 130.23,243.02 130.4,242.86 C130.48,242.76 130.58,242.55 130.69,242.2 L131.89,238.2 C132.01,237.8 132.04,237.58 132,237.46 C131.92,237.31 131.8,237.23 131.57,237.2 L131.36,237.17 L131.41,237 L133.97,237.33 L133.92,237.5 C133.62,237.46 133.41,237.47 133.26,237.51 C133.12,237.56 133.02,237.63 132.94,237.72 C132.87,237.82 132.78,238.04 132.66,238.41 L131.49,242.3 C131.41,242.56 131.39,242.72 131.4,242.83 C131.42,242.9 131.45,242.94 131.51,242.99 C131.58,243.02 131.78,243.07 132.15,243.12 L132.56,243.17 C133,243.22 133.3,243.22 133.5,243.18 C133.7,243.13 133.89,243.03 134.1,242.87 C134.29,242.71 134.52,242.45 134.79,242.09 M141.18,244.28 L139.3,243.28 L138.42,244 C138.21,244.18 138.07,244.32 138,244.43 C137.95,244.52 137.94,244.61 137.97,244.72 C138.01,244.82 138.12,244.93 138.35,245.08 L138.26,245.24 L136.72,244.44 L136.82,244.28 C137.05,244.34 137.2,244.35 137.31,244.32 C137.52,244.24 137.81,244.05 138.21,243.72 L142.76,239.97 L142.88,240.04 L141.71,245.64 C141.62,246.09 141.6,246.39 141.63,246.57 C141.69,246.75 141.79,246.88 141.98,247.01 L141.89,247.16 L139.97,246.14 L140.06,245.99 C140.27,246.08 140.41,246.11 140.53,246.08 C140.64,246.05 140.71,246 140.77,245.9 C140.84,245.78 140.91,245.57 140.98,245.25 L141.18,244.28 M141.27,243.92 L141.83,241.2 L139.6,243.03 L141.27,243.92 M148.33,243.93 L149.3,245.09 L147.88,251.07 L150.64,248.48 C150.93,248.2 151.08,248.01 151.11,247.88 C151.14,247.7 151.09,247.55 150.96,247.37 L150.83,247.22 L150.96,247.1 L152.2,248.59 L152.07,248.72 L151.94,248.56 C151.78,248.38 151.63,248.32 151.44,248.35 C151.32,248.38 151.14,248.51 150.87,248.76 L146.83,252.55 L146.74,252.43 L148.25,246 L145.31,248.78 C145.01,249.06 144.86,249.25 144.83,249.38 C144.8,249.56 144.84,249.71 144.98,249.89 L145.11,250.04 L144.98,250.16 L143.74,248.69 L143.87,248.56 L144,248.71 C144.16,248.89 144.31,248.95 144.5,248.92 C144.62,248.88 144.8,248.76 145.07,248.5 L148.4,245.36 C148.46,245.09 148.49,244.89 148.49,244.78 C148.49,244.67 148.46,244.53 148.4,244.36 C148.37,244.28 148.31,244.18 148.2,244.06 L148.33,243.93 L148.33,243.93 M155.85,256.82 L154.55,257.58 L154.49,257.42 C154.72,257.27 154.86,257.14 154.95,257.04 C155.08,256.87 155.15,256.7 155.18,256.52 C155.2,256.34 155.18,256.15 155.1,255.92 L154.82,255.16 L150.52,257.45 C150.17,257.64 149.99,257.79 149.92,257.9 C149.84,258.08 149.84,258.24 149.92,258.46 L149.98,258.65 L149.83,258.73 L148.99,256.44 L149.14,256.36 L149.21,256.55 C149.31,256.79 149.42,256.89 149.61,256.92 C149.72,256.92 149.92,256.85 150.24,256.68 L154.54,254.39 L154.3,253.74 C154.2,253.48 154.12,253.32 154.04,253.23 C153.93,253.12 153.8,253.06 153.61,253.03 C153.42,253.02 153.21,253.07 152.94,253.18 L152.88,253.03 L154.22,252.39 L155.85,256.82 M151.13,268.45 L151.05,266.83 L153.72,264.16 C153.71,264.01 153.7,263.89 153.7,263.79 L153.69,263.67 L153.69,263.53 L151.96,263.92 C151.58,264.01 151.37,264.1 151.27,264.2 C151.15,264.35 151.1,264.52 151.1,264.75 L151.12,264.99 L150.95,265.02 L150.82,262.44 L150.98,262.4 L151,262.63 C151.02,262.89 151.1,263.03 151.27,263.12 C151.37,263.15 151.57,263.14 151.92,263.07 L155.76,262.21 C156.14,262.12 156.35,262.03 156.45,261.93 C156.58,261.78 156.63,261.61 156.62,261.37 L156.61,261.15 L156.77,261.11 L156.88,263.31 C156.91,263.96 156.89,264.43 156.82,264.76 C156.73,265.09 156.58,265.37 156.35,265.65 C156.1,265.92 155.83,266.07 155.48,266.16 C155.1,266.23 154.81,266.19 154.51,266.01 C154.23,265.8 154.04,265.5 153.88,265.01 L152.24,266.64 C151.86,267.02 151.62,267.32 151.5,267.55 C151.38,267.79 151.32,268.07 151.29,268.41 L151.13,268.45 M153.97,263.47 L153.97,263.61 L153.98,263.72 C154.02,264.31 154.15,264.67 154.41,264.94 C154.7,265.18 154.97,265.24 155.37,265.17 C155.76,265.07 156.02,264.91 156.26,264.62 C156.48,264.31 156.57,264.01 156.56,263.6 C156.55,263.43 156.51,263.21 156.44,262.92 L153.97,263.47 L153.97,263.47 M155.6,275.75 L155.07,277.89 L154.92,277.88 L154.95,277.76 C154.96,277.68 154.96,277.57 154.93,277.41 C154.9,277.25 154.84,277.11 154.75,276.97 C154.66,276.83 154.5,276.66 154.27,276.45 L152.45,274.74 L151,274.61 C150.64,274.58 150.43,274.6 150.31,274.67 C150.16,274.79 150.06,274.95 150,275.2 L149.95,275.4 L149.79,275.39 L150.43,272.77 L150.59,272.78 L150.54,273 C150.48,273.27 150.5,273.44 150.62,273.58 C150.71,273.65 150.89,273.7 151.22,273.73 L152.58,273.86 L155.41,272.41 C155.74,272.24 155.95,272.13 156.04,272.06 C156.13,272 156.25,271.86 156.4,271.65 C156.45,271.59 156.48,271.5 156.51,271.39 L156.67,271.41 L156.02,274.04 L155.86,274.02 L155.9,273.88 C155.93,273.74 155.93,273.61 155.9,273.48 C155.86,273.35 155.79,273.29 155.66,273.27 C155.56,273.27 155.36,273.34 155.04,273.49 L152.87,274.6 L154.35,275.98 C154.58,276.19 154.74,276.29 154.88,276.31 C154.96,276.32 155.03,276.3 155.11,276.27 C155.18,276.23 155.24,276.17 155.3,276.09 C155.35,276.01 155.4,275.9 155.44,275.73 L155.6,275.75"/>
  <path fill="#96877d" d="M142.32,273.31 C142.92,273.07 143.84,272.99 143.86,272.99 C143.86,273.02 143.92,273.35 143.69,273.57 C144,273.64 144.95,273.45 144.98,273.44 C144.98,273.44 144.58,273.82 144.39,273.98 C144.77,273.99 145.18,274.33 145.2,274.35 C145.17,274.36 144.39,274.6 144,274.51 C144.21,274.95 144.19,275.32 144.19,275.34 C144.11,275.33 142.94,275.22 142.34,274.43 L142.32,273.31"/>
  <path fill="#000" d="M142.29,273.21 C142.7,273.03 143.21,272.92 143.87,272.88 L143.95,272.87 L143.97,272.95 C144.01,273.17 143.99,273.33 143.9,273.49 C144.12,273.49 144.47,273.44 144.97,273.33 L145.33,273.25 L145.04,273.52 L144.65,273.89 C144.86,273.94 145.05,274.06 145.28,274.25 L145.43,274.38 L145.22,274.45 C144.79,274.6 144.46,274.67 144.2,274.67 C144.28,274.89 144.31,275.1 144.3,275.33 L144.29,275.46 L144.17,275.45 C143.19,275.36 142.64,275.08 142.25,274.5 L142.44,274.35 C142.78,274.85 143.25,275.11 144.08,275.21 C144.07,275 144.01,274.8 143.9,274.58 L143.74,274.29 L144.05,274.4 C144.25,274.46 144.53,274.44 144.96,274.31 C144.74,274.15 144.56,274.09 144.38,274.1 L144.05,274.13 L144.33,273.89 C144.41,273.83 144.51,273.74 144.63,273.63 C144.12,273.72 143.81,273.73 143.63,273.68 L143.46,273.61 L143.64,273.48 C143.74,273.39 143.78,273.29 143.76,273.11 C143.17,273.16 142.71,273.26 142.34,273.42 L142.29,273.21"/>
  <path fill="#96877d" d="M140.04,272.97 C139.48,273.73 137.48,272.87 137.3,272.79 C137.37,272.89 138.31,274.15 139.96,274.19 L140.04,272.97"/>
  <path fill="#000" d="M140.14,272.99 C140.03,273.26 139.84,273.39 139.46,273.43 C139.2,273.45 138.89,273.42 138.5,273.33 C138.22,273.26 137.95,273.18 137.67,273.08 C138.37,273.82 139.03,274.1 139.97,274.07 L139.94,274.31 C138.79,274.33 138.01,273.93 137.2,272.88 L137.36,272.69 C137.76,272.86 138.16,273 138.59,273.1 C138.96,273.19 139.25,273.22 139.49,273.2 C139.74,273.17 139.87,273.1 139.94,272.95 L140.14,272.99"/>
  <path fill="#96877d" d="M109.88,295.66 C119.22,293.26 128.55,291.14 138.17,289.21 L140.35,287 L136.71,285.71 L131.11,284.93 L128.87,284.15 L124.72,285.3 L121.25,287.99 L116.49,289.7 L115.37,291.29 L111.84,292.46 L106.29,293.78 L115.54,292.92 L107.92,294.44 L109.88,295.66"/>
  <path fill="#000" d="M109.93,295.76 L109.89,295.81 L107.6,294.39 L113.43,293.21 L106.28,293.89 L106.29,293.66 L111.83,292.34 L115.31,291.2 L116.43,289.6 L121.22,287.89 L124.69,285.19 L128.9,284.03 L131.16,284.81 L136.76,285.6 L140.56,286.94 L138.21,289.31 C128.88,291.18 119.55,293.3 109.93,295.76 M109.92,295.53 C119.23,293.15 128.54,291.03 138.13,289.1 L140.15,287.06 L136.67,285.83 L131.07,285.04 L128.84,284.27 L124.75,285.4 L121.28,288.09 L116.54,289.79 L115.42,291.39 L111.84,292.57 L107.92,293.5 L115.55,292.8 L115.53,293.03 L108.24,294.49 L109.92,295.53"/>
  <path fill="#96877d" d="M125.12,283.66 C121.51,283.04 120.57,287.16 119.01,289.09 C121.07,288.74 122.59,286.75 124.39,285.26 C125.99,288.46 127.68,285.95 127.83,285.75 C128.01,285.98 129.81,288.51 132.96,286.6 C133.83,286.96 134.58,286.36 134.64,286.31 C134.71,286.31 135.61,286.27 135.93,285.76 C136.52,285.76 137.07,285.05 137.11,285 C137.18,284.99 138.22,284.76 138.56,284.08 C140.42,283.62 142.62,279.74 142.77,279.47 L143.49,277.9 L144.56,277.47 C144.56,277.42 144.63,276.82 144.05,276.88 C144,276.44 143.71,276.31 143.16,276.47 C143.22,276.18 142.91,276.08 142.88,276.07 C141.93,276.74 141.82,278.98 141.81,279.14 C141.81,279.14 140.03,280.84 139.4,281.33 C139.15,279.81 137.22,278.35 137.44,277.24 C138.12,276.4 139.38,278.08 140.92,277.59 C142.31,276.71 142.92,275.02 143.05,273.45 C142.63,272.56 141.7,271.13 141.7,271.13 L140.81,271.24 L140.02,269.44 C139.94,269.52 138.52,270.83 138.4,271.83 C138.59,272.8 140.01,273.23 140.13,273.27 C140.08,273.31 139.19,274.01 138.23,273.99 C138.27,274.95 139.26,274.59 139.8,274.48 C140.08,275.14 140.66,275.38 140.69,275.4 C140.72,275.47 141.08,276.29 140.02,276.5 C138.84,276.39 137.76,274.54 136.1,275.79 C134.7,277.58 136.65,279.06 136.83,279.21 C136.78,279.24 135.48,280.27 134.53,282.43 C130.89,280.34 129.12,281.85 125.12,283.66"/>
  <path fill="#000" d="M125.13,283.54 L127.06,282.64 C130.27,281.22 132.4,281.13 134.49,282.25 C135.07,280.91 135.75,279.96 136.64,279.22 C136.29,278.91 136,278.58 135.75,278.17 C135.23,277.18 135.3,276.51 136.03,275.72 C136.81,275.06 137.58,275.09 138.81,275.85 C139.4,276.24 139.77,276.39 140.03,276.39 C140.43,276.33 140.6,276.2 140.66,275.91 C140.67,275.77 140.65,275.64 140.6,275.49 C140.16,275.3 139.9,275.04 139.72,274.61 L139.57,274.64 C139.14,274.73 138.84,274.76 138.64,274.74 C138.24,274.65 138.1,274.45 138.12,274 L138.13,273.86 L138.26,273.87 C138.81,273.91 139.3,273.75 139.9,273.32 C138.81,272.94 138.36,272.53 138.28,271.86 C138.32,271.14 138.8,270.4 139.96,269.36 L140.07,269.26 L140.88,271.12 L141.77,271 L141.8,271.05 C142.43,272.01 142.87,272.78 143.15,273.39 L143.16,273.41 L143.16,273.44 C143.09,274.6 142.86,275.48 142.46,276.24 C142.58,276.12 142.71,276.03 142.85,275.96 L142.89,275.94 L142.93,275.96 C143.17,276.05 143.27,276.15 143.29,276.32 C143.52,276.26 143.69,276.27 143.85,276.34 C144.03,276.43 144.11,276.54 144.15,276.75 C144.4,276.73 144.53,276.82 144.63,277.07 C144.67,277.2 144.68,277.32 144.67,277.46 L144.66,277.55 L143.57,277.99 L142.86,279.51 L142.86,279.51 C141.17,282.63 139.93,283.95 138.63,284.19 C138.39,284.65 137.97,284.92 137.16,285.11 C136.73,285.65 136.39,285.87 135.98,285.88 C135.75,286.23 135.37,286.39 134.66,286.42 C134.02,286.91 133.54,286.99 132.95,286.74 C130.84,288.14 129.45,287.93 127.82,285.94 C127.46,286.38 127.09,286.68 126.64,286.9 C125.61,287.26 124.98,286.87 124.33,285.43 C123.99,285.72 123.51,286.15 122.89,286.75 C121.21,288.34 120.02,289.07 118.99,289.21 L118.74,289.22 L118.94,289.01 C119.22,288.71 119.64,288.08 120.2,287.06 C121.92,284.1 123.28,283.14 125.13,283.54 M125.07,283.77 C123.33,283.38 122.04,284.3 120.39,287.14 C119.93,287.98 119.56,288.57 119.27,288.94 C120.2,288.71 121.28,288 122.76,286.6 C123.46,285.92 123.98,285.45 124.34,285.17 L124.45,285.08 L124.49,285.2 C125.1,286.6 125.66,287 126.59,286.68 C127.04,286.47 127.4,286.16 127.75,285.69 L127.85,285.56 L127.93,285.67 C129.52,287.68 130.86,287.9 132.91,286.51 L132.97,286.46 L133.03,286.5 C133.56,286.75 134,286.68 134.58,286.22 L134.62,286.19 L134.66,286.19 C135.34,286.16 135.67,286.03 135.83,285.73 L135.87,285.63 L135.97,285.64 C136.32,285.67 136.62,285.47 137.02,284.94 L137.06,284.9 L137.11,284.89 C137.9,284.72 138.28,284.48 138.46,284.06 L138.49,283.97 L138.58,283.96 C139.8,283.79 140.99,282.52 142.67,279.44 L143.42,277.81 L144.45,277.4 C144.45,277.32 144.44,277.25 144.42,277.18 C144.35,277 144.25,276.95 144.06,276.99 L143.95,277.02 L143.94,276.9 C143.93,276.72 143.87,276.62 143.74,276.55 C143.58,276.49 143.42,276.5 143.18,276.58 L142.98,276.65 L143.05,276.45 C143.09,276.34 143.03,276.26 142.86,276.19 C142.27,276.58 141.99,277.41 141.92,279.12 L141.92,279.18 L141.88,279.22 C140.69,280.37 139.89,281.09 139.46,281.42 L139.3,281.54 L139.29,281.35 C139.25,280.88 138.93,280.25 138.2,279.3 C137.42,278.27 137.19,277.67 137.35,277.21 C137.51,276.91 137.7,276.8 138.03,276.83 C138.19,276.86 138.47,276.97 138.88,277.16 C139.82,277.6 140.4,277.69 140.88,277.49 C142.18,276.72 142.77,275.58 142.93,273.49 C142.67,272.91 142.24,272.17 141.64,271.25 L140.73,271.37 L139.97,269.63 C138.96,270.55 138.54,271.2 138.51,271.81 C138.58,272.43 139.04,272.8 140.18,273.15 L140.36,273.21 L140.19,273.35 C139.52,273.88 138.96,274.11 138.34,274.11 C138.37,274.35 138.47,274.46 138.71,274.51 C138.89,274.53 139.16,274.5 139.57,274.41 C139.68,274.39 139.76,274.37 139.8,274.37 L139.88,274.35 L139.9,274.43 C140.07,274.85 140.31,275.1 140.75,275.29 L140.78,275.3 L140.8,275.33 C140.87,275.52 140.89,275.7 140.88,275.9 C140.79,276.34 140.56,276.54 140.01,276.62 C139.7,276.63 139.29,276.46 138.66,276.06 C137.53,275.35 136.84,275.31 136.16,275.87 C135.54,276.55 135.48,277.14 135.95,278.02 C136.21,278.45 136.52,278.8 136.9,279.11 L137.02,279.19 L136.88,279.3 C135.94,280.04 135.23,281.02 134.63,282.45 L134.57,282.6 L134.46,282.53 C132.41,281.37 130.31,281.43 127.11,282.85 L125.21,283.73 L125.2,283.81 L125.07,283.77 M142.14,276.72 C141.8,277.13 141.42,277.44 140.95,277.69 C140.4,277.93 139.76,277.84 138.76,277.38 C138.37,277.19 138.11,277.09 137.96,277.06 C137.75,277.04 137.64,277.1 137.54,277.28 C137.43,277.64 137.65,278.17 138.38,279.13 C139.05,280 139.39,280.63 139.5,281.13 C139.94,280.77 140.67,280.1 141.7,279.1 C141.74,278.04 141.89,277.28 142.14,276.72"/>
  <path fill="#96877d" d="M120.02,279.73 C121.29,280.97 120.65,283.2 121.03,283.68 C121.7,283.91 122.43,283.17 122.49,283.11 C124.06,283.03 126.68,281.73 126.75,281.69 C127.94,282.03 127.49,281.3 128.2,281.08 C129.06,282.53 130.84,281.91 131,281.85 C130.96,281.82 129.03,280.31 127.81,279.9 C126.76,280.64 124.21,281.34 123.66,281.41 C123.17,281.35 123.43,280.76 123.22,280.36 C124.1,278.94 123.46,277 122.88,276.02 C120.44,275.37 118.25,277.89 120.02,279.73"/>
  <path fill="#000" d="M119.95,279.83 C119.44,279.42 119.22,279.01 119.19,278.41 C119.21,277.87 119.39,277.4 119.78,276.88 C120.81,275.69 121.68,275.43 122.94,275.91 L122.96,275.92 L122.97,275.94 C124.14,277.8 124.24,279.03 123.35,280.35 C123.4,280.47 123.43,280.63 123.44,280.85 C123.46,281.16 123.53,281.28 123.68,281.29 C125.36,281.17 126.59,280.72 127.75,279.82 L127.8,279.78 L127.86,279.79 C128.69,280.04 129.72,280.65 131.08,281.75 L131.24,281.88 L131.02,281.96 C129.47,282.45 128.69,282.25 128.13,281.21 C128,281.26 127.91,281.35 127.81,281.51 C127.57,281.89 127.28,281.97 126.73,281.81 C124.9,282.77 123.57,283.2 122.51,283.23 C121.87,283.85 121.44,284 120.96,283.78 C120.79,283.65 120.72,283.31 120.74,282.55 C120.75,281.1 120.52,280.32 119.95,279.83 L119.95,279.83 M120.1,279.63 C120.72,280.16 120.98,280.99 120.96,282.51 C120.94,283.18 120.99,283.48 121.1,283.57 C121.49,283.74 121.86,283.6 122.42,283.04 L122.46,282.99 L122.52,283 C123.55,282.99 124.86,282.56 126.71,281.59 L126.76,281.56 L126.8,281.58 C127.24,281.71 127.46,281.67 127.62,281.43 C127.79,281.15 127.96,281.02 128.21,280.96 L128.28,280.95 L128.31,281.02 C128.77,281.96 129.44,282.17 130.77,281.82 C129.53,280.83 128.59,280.27 127.82,280.03 C126.62,280.94 125.35,281.4 123.65,281.52 C123.36,281.51 123.25,281.35 123.22,280.91 C123.21,280.67 123.18,280.53 123.12,280.45 L123.07,280.38 L123.14,280.3 C124,279.07 123.92,277.91 122.8,276.12 C121.65,275.69 120.86,275.93 119.93,277 C119.59,277.47 119.43,277.88 119.41,278.36 C119.44,278.89 119.64,279.26 120.1,279.63 L120.1,279.63"/>
  <path fill="#96877d" d="M110.33,277.91 C108.34,278.61 105.53,277.1 103.84,278.32 C102.46,280.08 103.02,282.21 104.04,283.54 C104.75,284.74 102.83,285.69 101.98,286.74 C101.46,287.72 102.11,288.25 102.17,288.31 L102.85,288.57 L102.73,289.62 L103.09,290.74 C103.11,290.75 103.38,290.93 103.52,290.54 C103.79,290.86 103.58,291.65 104.31,291.66 C104.12,291.08 104.49,289.48 104.51,289.42 C104.58,289.4 105.74,289.14 106.18,288.49 C106.43,287.74 105.9,286.77 105.86,286.71 L106.25,286.6 C105.82,286.33 105.67,285.55 105.66,285.5 C105.77,285.43 107.32,284.46 107.48,282.99 C107.16,281.51 104.79,280.92 105.58,279.8 C106.97,278.92 108.7,280.79 110.69,279.24 C112.49,277.47 111.33,279.03 111.33,279.04 C111.37,278.92 112.15,277.12 110.33,277.91"/>
  <path fill="#000" d="M110.46,277.72 L110.46,277.73 C110.84,277.55 111.1,277.51 111.31,277.57 C111.5,277.65 111.59,277.79 111.62,278.08 C111.62,278.15 111.62,278.21 111.62,278.29 C111.66,278.27 111.7,278.26 111.73,278.27 C111.81,278.3 111.82,278.36 111.78,278.48 C111.73,278.61 111.61,278.81 111.41,279.09 L111.22,279.02 C111.26,278.93 111.28,278.86 111.31,278.78 C111.16,278.91 110.98,279.09 110.76,279.31 C109.97,280.01 109.06,280.16 107.56,279.81 C106.56,279.56 106.01,279.59 105.64,279.88 C105.44,280.09 105.41,280.26 105.54,280.5 C105.65,280.66 105.91,280.91 106.33,281.26 C107.18,281.96 107.54,282.46 107.59,282.96 C107.54,283.99 107.03,284.73 105.79,285.54 C105.9,286.08 106.06,286.35 106.32,286.49 L106.61,286.62 L106.04,286.77 C106.42,287.51 106.48,288.02 106.27,288.52 C105.99,289.01 105.5,289.3 104.59,289.52 C104.31,290.62 104.27,291.24 104.41,291.59 L104.5,291.76 L104.3,291.78 C103.91,291.8 103.72,291.6 103.6,291.06 C103.57,290.94 103.55,290.84 103.52,290.77 C103.44,290.86 103.36,290.9 103.23,290.91 C103.15,290.9 103.08,290.88 103.01,290.84 L102.99,290.83 L102.62,289.66 L102.73,288.66 L102.1,288.41 L102.09,288.41 C101.52,287.88 101.46,287.42 101.89,286.69 C102.05,286.47 102.38,286.13 102.91,285.67 C103.47,285.19 103.81,284.84 103.98,284.61 C104.21,284.22 104.2,283.95 103.95,283.63 C103.37,282.94 103.04,282.17 102.9,281.13 C102.8,279.89 103.06,279.05 103.77,278.25 C104.43,277.68 105.43,277.55 107.28,277.84 C108.8,278.09 109.72,278.07 110.31,277.81 L110.46,277.72 M110.21,278.08 C109.56,278.3 108.62,278.31 107.19,278.07 C105.43,277.79 104.48,277.9 103.9,278.39 C103.26,279.12 103.03,279.89 103.12,281.04 C103.26,282.04 103.57,282.78 104.13,283.45 C104.44,283.85 104.45,284.2 104.15,284.7 C103.96,284.96 103.6,285.34 103.02,285.84 C102.51,286.28 102.2,286.59 102.06,286.79 C101.72,287.38 101.77,287.76 102.25,288.2 L102.97,288.48 L102.84,289.58 L103.18,290.65 C103.22,290.66 103.25,290.67 103.29,290.67 C103.35,290.67 103.39,290.63 103.42,290.53 L103.47,290.34 L103.6,290.44 C103.69,290.52 103.76,290.67 103.81,290.96 C103.88,291.28 103.97,291.44 104.14,291.52 C104.07,291.09 104.14,290.42 104.4,289.41 L104.43,289.32 L104.52,289.3 C105.39,289.12 105.84,288.87 106.08,288.46 C106.26,288.01 106.18,287.53 105.76,286.78 L105.68,286.64 L105.97,286.56 C105.77,286.35 105.64,286.04 105.55,285.55 L105.54,285.45 L105.63,285.4 C106.83,284.64 107.32,283.96 107.37,283.02 C107.33,282.59 106.98,282.12 106.17,281.46 C105.73,281.1 105.47,280.84 105.35,280.66 C105.16,280.31 105.2,280.05 105.52,279.72 C105.97,279.36 106.58,279.31 107.66,279.58 C109.07,279.91 109.91,279.79 110.63,279.16 C110.96,278.83 111.21,278.59 111.38,278.45 C111.4,278.34 111.4,278.24 111.4,278.15 C111.38,277.95 111.32,277.85 111.2,277.79 C111.01,277.75 110.76,277.81 110.36,278.01 L110.21,278.09 L110.21,278.08"/>
  <path fill="#96877d" d="M119.79,255.48 C117.32,255.17 112.36,255.99 109.54,255.48 C108.3,255.98 107.82,256.95 107.72,257.42 C106.39,257.91 105.67,259.81 105.76,260.35 C103.31,260.42 102.5,263.72 103.1,264.65 C101.18,265.52 101.32,267.64 101.17,268.59 C100.61,270.4 101.24,270.63 102.57,269.76 C102.72,270.43 102.51,270.81 101.92,271.14 C105.58,273.59 107.22,267.81 110.35,266.44 C114.11,264.21 115.58,262.14 115.62,262.08 L117.1,261.92 L119.79,255.48"/>
  <path fill="#000" d="M120.02,255.4 L119.88,255.53 L117.17,262.03 L115.67,262.19 C114.57,263.71 112.92,265.08 110.38,266.54 L110.37,266.55 L110.35,266.55 C109.58,266.81 108.62,267.62 107.25,269.25 C106.16,270.56 105.36,271.34 104.78,271.71 C103.71,272.24 102.89,272.11 101.84,271.24 L101.72,271.13 L101.9,271.04 C102.16,270.89 102.33,270.75 102.43,270.55 C102.52,270.36 102.53,270.18 102.49,269.94 C101.82,270.38 101.42,270.47 101.08,270.28 C100.75,270 100.74,269.53 101.06,268.59 C101.08,268.49 101.11,268.28 101.14,267.97 C101.36,266.1 101.86,265.15 102.88,264.62 C102.56,264.12 102.63,263.41 103.17,262.13 C103.85,260.75 104.53,260.21 105.61,260.21 C105.61,259.9 105.76,259.46 106.09,258.82 C106.58,257.97 107.04,257.53 107.62,257.33 C107.84,256.35 108.38,255.79 109.53,255.37 L109.56,255.36 L109.59,255.37 C110.63,255.58 112.51,255.61 115.38,255.4 C117.62,255.24 119.08,255.24 119.84,255.36 L120.02,255.4 M115.34,255.63 C112.47,255.84 110.58,255.82 109.52,255.61 C108.46,256 107.99,256.51 107.83,257.41 L107.82,257.51 L107.71,257.54 C107.17,257.69 106.74,258.08 106.28,258.89 C105.89,259.64 105.78,260.04 105.86,260.27 L105.98,260.5 L105.72,260.46 C104.67,260.38 104.02,260.86 103.37,262.18 C102.81,263.5 102.77,264.15 103.18,264.55 L103.36,264.68 L103.1,264.76 C102.08,265.18 101.58,266.06 101.36,267.93 C101.33,268.27 101.3,268.48 101.27,268.59 L101.27,268.6 L101.27,268.61 C100.98,269.45 100.98,269.85 101.23,270.08 C101.52,270.22 101.88,270.12 102.52,269.67 L102.64,269.58 L102.67,269.7 C102.77,270.05 102.75,270.33 102.62,270.61 C102.51,270.82 102.36,270.99 102.12,271.14 C103.06,271.87 103.79,271.97 104.72,271.51 C105.26,271.16 106.04,270.41 107.1,269.13 C108.5,267.45 109.51,266.61 110.34,266.33 C112.85,264.88 114.48,263.52 115.53,262.03 L115.57,261.97 L117.04,261.81 L119.64,255.57 C118.87,255.48 117.46,255.48 115.34,255.63"/>
  <path fill="#96877d" d="M126.57,251.03 C126.4,253.21 125.05,254.89 122.96,255.54 C120.82,255.86 119.52,254.83 119.35,252.69 C119.51,250.5 120.86,248.8 122.96,248.14 C125.09,247.83 126.4,248.88 126.57,251.03"/>
  <path fill="#000" d="M126.68,251 C126.65,252.09 126.32,252.98 125.59,253.94 C124.81,254.86 124.01,255.38 122.96,255.66 C120.36,256.12 119.37,255.34 119.23,252.71 C119.37,250.06 120.4,248.76 122.96,248.03 C125.55,247.57 126.55,248.37 126.68,251 M126.46,251.05 C126.42,250.02 126.12,249.35 125.43,248.74 C124.69,248.2 123.97,248.06 122.96,248.26 C120.55,248.94 119.58,250.16 119.46,252.66 C119.59,255.13 120.52,255.86 122.96,255.43 C123.95,255.17 124.7,254.68 125.43,253.82 C126.12,252.91 126.43,252.08 126.46,251.05"/>
  <path fill="#96877d" d="M116.6,282.49 C114.08,282.46 111.02,281.25 110.27,278.16 C112.92,269.35 122.56,270.85 124.05,264.51 C123.89,260.29 124.6,256.24 126.8,252.12 C127.93,250.54 129.16,249.89 129.21,249.87 C129.22,249.91 129.41,250.66 129.09,251.38 C130.9,250.91 133.29,251.23 134.98,251.06 C135.45,252 135.42,252.34 135.31,253 C135.13,253.63 134.58,253.62 134.53,253.62 C134.06,254.16 133.59,254.61 132.4,254.69 C131.44,255.53 129.7,256.13 129.65,256.14 C129.9,256.36 133.13,259.31 132.9,260.96 C133.72,261.29 134.88,262.72 134.92,262.78 C134.97,262.74 137.47,260.77 138.45,259.31 C140.01,259.15 142.5,260.06 143.77,260.11 L146.85,262.12 C146.71,262.24 145.21,263.54 144.22,262.21 C143.19,262.27 141.25,260.75 138.28,261.81 C137.93,264.52 135.51,266.75 135.37,266.87 C135.48,266.84 137.89,266.1 139.46,266.57 C140.96,267.56 143.15,268.9 143.16,268.9 L145.12,271.97 C144.98,272.01 143.51,272.56 142.65,270.37 C141.94,272.17 141.93,269.61 139.29,268.38 C138.45,268.65 138.1,268.76 137.39,268.36 C135.44,269.33 133.2,270.75 130.49,271.17 C128.63,272.28 127.14,274.08 125.23,275.48 C123.23,276.79 122.75,276.53 122.71,276.52 L121.14,276.94 C120.93,278.04 120.98,279.28 120.19,279.86 C120.6,280.57 119.83,282.88 118.84,283.79 C119.42,285.32 120.52,285.52 121.98,286.04 C122.06,285.98 123.1,285.29 124,285.75 C124.76,286.41 125.6,288.2 125.62,288.25 C125.59,288.26 123.99,288.68 123.44,288.63 C122.91,288.47 122.87,288.03 122.26,288.27 C118.3,285.91 116.64,287.34 116.1,286.86 C115.9,286.11 116.82,283.77 116.6,282.49"/>
  <path fill="#000" d="M116.51,282.61 C115.18,282.64 113.99,282.33 112.67,281.61 C111.14,280.66 110.42,279.68 110.16,278.21 L110.16,278.19 L110.16,278.16 C111.13,274.85 113.48,272.39 118.16,270.01 C121.82,268.17 123.46,266.59 123.94,264.53 C123.76,259.85 124.64,255.93 126.7,252.08 L126.71,252.07 L126.71,252.07 C127.47,250.97 128.24,250.25 129.18,249.76 L129.28,249.71 L129.31,249.81 C129.45,250.34 129.44,250.76 129.28,251.21 C130.03,251.04 131.13,250.95 132.67,250.99 C133.77,251.02 134.53,251 134.98,250.94 L135.05,250.93 L135.08,250.99 C135.42,251.67 135.52,252.28 135.42,253 C135.35,253.33 135.2,253.51 134.9,253.65 C134.78,253.7 134.67,253.73 134.56,253.73 C133.91,254.42 133.28,254.74 132.43,254.81 C131.83,255.35 131.03,255.79 129.89,256.18 C132.37,258.42 133.24,259.77 133.05,260.87 C133.58,261.1 134.18,261.63 134.96,262.62 C136.67,261.3 137.75,260.22 138.36,259.26 L138.39,259.21 L138.45,259.19 C139.08,259.1 140.11,259.22 141.69,259.61 C142.75,259.88 143.43,260 143.79,260 L143.82,260 L143.84,260.01 L146.92,262.02 L147.04,262.1 L146.91,262.21 C146.59,262.48 146.25,262.68 145.86,262.83 C145.03,263.1 144.57,262.96 144.15,262.34 C143.88,262.35 143.46,262.26 142.8,262.03 C141.01,261.43 139.69,261.39 138.39,261.88 C138.22,263.59 137.47,265 135.82,266.61 C137.44,266.15 138.55,266.11 139.52,266.46 L139.52,266.46 L139.53,266.47 C140.53,267.13 141.76,267.9 143.22,268.79 L143.24,268.8 L145.29,272.02 L145.14,272.08 C143.88,272.45 143.21,272.08 142.64,270.7 C142.48,271.04 142.35,271.17 142.18,271.17 C142.06,271.14 141.89,270.96 141.62,270.57 C140.87,269.48 140.14,268.86 139.27,268.5 C138.43,268.75 137.87,268.74 137.36,268.49 C137.06,268.64 136.6,268.87 135.99,269.2 C133.68,270.43 131.92,271.08 130.51,271.28 C129.81,271.68 128.88,272.41 127.67,273.54 C126.65,274.49 125.86,275.16 125.27,275.58 C123.91,276.49 123.16,276.78 122.67,276.64 L121.23,277.03 C121.19,277.21 121.16,277.47 121.12,277.81 C120.97,278.9 120.74,279.51 120.36,279.87 C120.54,280.22 120.5,280.78 120.18,281.77 C119.82,282.78 119.44,283.41 118.97,283.82 C119.32,284.65 120.03,285.2 121.42,285.71 L121.99,285.91 C122.87,285.34 123.46,285.27 124.07,285.65 C124.61,286.08 125.14,286.86 125.72,288.18 L125.78,288.32 L125.63,288.36 C124.48,288.69 123.78,288.8 123.39,288.74 C123.24,288.71 123.08,288.62 122.9,288.48 C122.68,288.31 122.51,288.28 122.29,288.37 L122.23,288.4 L122.19,288.37 C120.41,287.24 118.86,286.86 116.99,287.09 C116.4,287.17 116.13,287.12 116,286.94 C115.89,286.66 115.94,286.08 116.21,285.02 C116.51,283.83 116.59,283.07 116.51,282.61 M116.62,282.48 L116.71,282.44 C116.83,282.92 116.75,283.73 116.42,285.03 C116.17,286.03 116.11,286.56 116.2,286.79 C116.28,286.9 116.51,286.93 117,286.85 C118.91,286.63 120.49,287.01 122.29,288.14 C122.57,288.04 122.79,288.08 123.06,288.28 C123.22,288.41 123.35,288.48 123.48,288.52 C123.81,288.56 124.44,288.47 125.46,288.18 C124.91,286.96 124.42,286.24 123.92,285.85 C123.37,285.52 122.84,285.59 122.02,286.13 L121.97,286.17 L121.92,286.15 L121.31,285.94 C119.81,285.39 119.07,284.78 118.73,283.85 L118.71,283.76 L118.8,283.7 C119.24,283.35 119.61,282.75 119.97,281.73 C120.3,280.72 120.33,280.21 120.1,279.95 L119.98,279.85 L120.15,279.76 C120.52,279.5 120.75,278.95 120.9,277.84 C120.94,277.42 120.99,277.12 121.03,276.94 L121.05,276.85 L122.74,276.39 L122.77,276.41 C123.18,276.55 123.87,276.27 125.18,275.39 C125.75,274.98 126.54,274.32 127.54,273.38 C128.78,272.22 129.74,271.47 130.46,271.07 L130.48,271.05 L130.51,271.05 C131.89,270.86 133.63,270.22 135.92,269 C136.57,268.65 137.05,268.4 137.36,268.25 L137.41,268.23 L137.46,268.26 C137.92,268.5 138.45,268.52 139.25,268.28 L139.28,268.27 L139.31,268.26 L139.34,268.27 C140.27,268.64 141.02,269.28 141.81,270.42 C142.05,270.76 142.18,270.92 142.25,270.94 C142.32,270.93 142.41,270.77 142.55,270.35 L142.66,270 L142.76,270.32 C143.24,271.73 143.83,272.16 144.94,271.91 L143.07,268.99 C141.61,268.1 140.39,267.33 139.39,266.67 C138.38,266.32 137.18,266.4 135.38,266.98 L135.31,266.79 C137.19,265.09 138.02,263.62 138.17,261.83 L138.17,261.74 L138.26,261.7 C139.64,261.15 141.02,261.18 142.91,261.81 C143.6,262.06 144,262.14 144.21,262.1 L144.29,262.08 L144.32,262.14 C144.68,262.72 145.08,262.85 145.82,262.61 C146.12,262.49 146.4,262.34 146.66,262.14 L143.73,260.23 C143.34,260.22 142.65,260.1 141.61,259.84 C140.1,259.46 139.11,259.34 138.51,259.41 C137.86,260.41 136.74,261.52 134.97,262.87 L134.88,262.93 L134.83,262.86 C134,261.79 133.39,261.26 132.86,261.07 L132.75,261.04 L132.8,260.93 C133.08,259.9 132.2,258.57 129.57,256.24 L129.42,256.1 L129.64,256.03 C130.88,255.63 131.72,255.18 132.33,254.62 L132.37,254.58 L132.42,254.58 C133.24,254.52 133.84,254.22 134.45,253.55 L134.5,253.5 L134.55,253.5 C134.65,253.5 134.75,253.48 134.86,253.44 C135.06,253.35 135.15,253.22 135.2,253 C135.29,252.36 135.2,251.81 134.9,251.18 C134.43,251.23 133.68,251.25 132.62,251.22 C130.95,251.18 129.82,251.29 129.11,251.49 L128.88,251.57 L129,251.34 C129.2,250.93 129.24,250.53 129.13,250.02 C128.28,250.49 127.58,251.16 126.89,252.16 C124.85,255.97 123.99,259.85 124.16,264.48 L124.16,264.49 L124.16,264.5 C123.67,266.68 121.98,268.32 118.21,270.22 C113.63,272.55 111.33,274.93 110.38,278.14 C110.64,279.54 111.34,280.49 112.81,281.4 C114.06,282.08 115.19,282.38 116.44,282.39 L116.42,282.32 L116.65,282.38 L116.62,282.48"/>
  <path fill="#96877d" d="M107.48,269.39 C107.78,269.14 108.99,269.25 109.07,269.26 L111.6,270.24 L116.75,272.37 L118.57,274.65 L115.29,274.35 L110.73,271.47 L108.28,270.48 C108.21,270.43 107.39,269.75 107.48,269.39"/>
  <path fill="#000" d="M107.5,269.24 C107.77,269.09 108.25,269.05 109.11,269.15 L109.12,269.15 L111.66,270.13 L116.83,272.27 L118.85,274.79 L115.23,274.46 L110.66,271.58 L108.2,270.59 L108.2,270.58 C107.47,269.99 107.26,269.65 107.4,269.34 L107.47,269.22 L107.5,269.24 M107.57,269.44 C107.51,269.61 107.72,269.87 108.35,270.38 L110.8,271.36 L115.34,274.24 L118.3,274.5 L116.67,272.47 L111.54,270.35 L109.02,269.38 C108.12,269.27 107.71,269.3 107.57,269.44 L107.57,269.44"/>
  <path fill="#96877d" d="M137.94,271.01 C136.08,271.47 132,276.95 131.78,277.27 L135.09,280.25 C135.09,279.99 135.39,274.34 137.94,271.01"/>
  <path fill="#000" d="M137.97,270.89 L138.18,270.91 L138.01,271.08 C136.23,273.21 135.36,275.95 135.2,280.23 L135.19,280.52 L131.63,277.31 L131.69,277.22 C134.79,272.81 136.64,271.04 137.97,270.89 M137.69,271.14 C136.48,271.5 134.72,273.27 131.93,277.24 L134.98,279.99 C135.17,275.93 136.01,273.26 137.69,271.14"/>
  <path fill="#96877d" d="M116.27,260.6 C115.32,262.33 115.26,264.45 116.47,265.43 C116.71,267.15 117.83,269.51 118.9,269.84 C120.08,269.88 124.36,269.8 126.18,269.25 C126.09,272.32 127.91,273.87 130.1,275.1 C130.09,275.38 130.1,275.66 130.32,275.95 C130.64,276.18 131.53,276.04 131.67,275.86 C132.35,276.39 134.26,276.24 134.62,275.92 C134.5,275.61 131.39,273.85 130.44,273.19 C129.76,272 128.59,269.5 128.2,267.25 C126.22,265.64 123.64,266.19 123.45,266.23 L123.55,262.04 L123.72,257.29 L122.09,256.81 C122.1,256.8 122.41,256.57 122.6,256.34 C123.03,256.33 123.67,255.51 123.83,255.19 C124.23,255.24 124.51,255.17 124.61,254.95 C124.65,254.75 124.75,253.94 124.87,253.49 C125.94,251.9 124.81,250.29 122.81,250.47 C120.96,251.09 120.59,253.09 120.58,253.43 C120.74,254.13 120.71,254.46 120.58,254.69 C120.42,254.89 119.8,255.45 119.79,255.45 C119.74,255.44 118.82,255.24 117.5,256 C116.16,256.86 114.95,257.8 114.75,258.68 C114.14,258.98 113.32,259.86 113.07,260.59 C112.53,260.67 111.96,261.18 110.83,263.28 C109.02,264.96 108.8,268.68 108.79,268.91 C108.78,268.93 108.3,269.81 108.24,270.24 C108.24,270.69 108.4,270.95 108.67,270.85 C108.74,271.12 109.02,271.25 109.21,271.14 C109.3,271.4 109.61,271.44 109.88,271.35 C109.98,271.51 110.58,271.31 110.7,271.11 C110.74,270.9 110.67,270.03 110.72,269.92 C110.82,269.88 111.39,270.1 111.59,269.98 C111.73,269.78 111.57,269.48 111.46,269.31 C111.34,269.2 110.89,269.15 110.72,268.53 C110.65,267.85 111.04,266.87 111.05,266.83 C111.12,266.76 112.99,264.63 113.39,263.1 C114.99,262.71 115.77,261.34 116.27,260.6"/>
  <path fill="#000" d="M115.66,261.64 C114.91,262.55 114.25,263.01 113.48,263.2 C113.23,264.24 112.51,265.39 111.14,266.89 C110.86,267.57 110.77,268.06 110.83,268.48 C110.9,268.77 111.06,268.95 111.37,269.11 C111.47,269.16 111.53,269.2 111.56,269.23 C111.81,269.62 111.83,269.84 111.65,270.06 C111.53,270.16 111.34,270.16 110.98,270.07 L110.79,269.99 L110.82,270.48 C110.84,270.83 110.83,271.04 110.81,271.12 C110.75,271.27 110.6,271.38 110.28,271.48 C110.03,271.55 109.9,271.55 109.81,271.49 C109.44,271.61 109.25,271.56 109.13,271.29 C109.03,271.32 108.94,271.3 108.83,271.25 C108.7,271.18 108.63,271.11 108.59,270.99 C108.45,271.02 108.36,270.97 108.26,270.84 C108.16,270.68 108.12,270.51 108.13,270.26 C108.16,269.96 108.33,269.53 108.68,268.9 C108.83,265.95 109.45,264.3 110.75,263.21 C111.69,261.47 112.37,260.68 112.99,260.48 C113.28,259.57 113.77,259.02 114.65,258.6 C114.86,257.89 115.68,257.07 117.46,255.9 C118.35,255.36 119.04,255.2 119.79,255.32 C120.18,254.99 120.4,254.76 120.49,254.64 C120.61,254.42 120.61,254.07 120.47,253.48 L120.47,253.48 L120.47,253.48 C120.43,253.17 120.55,252.71 120.89,252 C121.4,251.05 121.96,250.58 122.82,250.35 C123.85,250.19 124.49,250.43 125.1,251.23 C125.63,252.1 125.59,252.73 124.96,253.53 C124.92,253.71 124.86,254.03 124.79,254.48 C124.75,254.74 124.73,254.9 124.71,254.96 C124.65,255.12 124.55,255.22 124.34,255.28 C124.21,255.32 124.06,255.33 123.89,255.32 C123.51,256.18 123.16,256.49 122.62,256.47 C122.54,256.57 122.45,256.66 122.33,256.75 L123.83,257.2 L123.66,262.02 L123.57,266.09 C125.65,265.69 127,266 128.28,267.16 L128.3,267.18 L128.31,267.21 C128.61,269.08 129.31,270.96 130.53,273.1 C130.74,273.25 131.3,273.6 132.23,274.13 C134.05,275.19 134.73,275.72 134.72,275.96 C134.56,276.2 134.14,276.32 133.24,276.35 C132.43,276.36 131.96,276.25 131.66,276.02 C131.53,276.1 131.34,276.15 131.05,276.18 C130.62,276.22 130.38,276.18 130.23,276.04 C130.06,275.82 129.99,275.57 129.99,275.18 C127.1,273.51 126,271.9 126.06,269.41 C124.48,269.91 122.18,270.1 118.87,269.95 C118.33,269.87 117.86,269.39 117.25,268.26 C116.74,267.23 116.46,266.35 116.36,265.51 C115.75,265.08 115.47,264.46 115.42,263.34 C115.42,262.72 115.5,262.18 115.66,261.64 M116.35,260.65 C115.87,261.45 115.65,262.26 115.64,263.28 C115.69,264.35 115.95,264.93 116.54,265.32 L116.58,265.34 L116.58,265.39 C116.67,266.22 116.94,267.09 117.45,268.11 C118.03,269.19 118.46,269.64 118.93,269.72 C122.32,269.87 124.62,269.67 126.16,269.14 L126.31,269.08 L126.29,269.24 C126.17,271.72 127.25,273.33 130.17,275 L130.22,275.02 L130.21,275.08 C130.2,275.44 130.26,275.68 130.41,275.86 C130.51,275.96 130.71,275.99 131.08,275.95 C131.4,275.92 131.54,275.88 131.57,275.85 L131.63,275.61 L131.76,275.77 C132,276.02 132.44,276.12 133.28,276.12 C134.07,276.09 134.42,276.02 134.53,275.89 C134.5,275.81 133.79,275.32 132.09,274.34 C131.14,273.79 130.57,273.44 130.36,273.29 L130.35,273.28 L130.34,273.27 C129.11,271.11 128.4,269.21 128.09,267.32 C126.83,266.21 125.51,265.92 123.45,266.34 L123.34,266.37 L123.44,262.06 L123.6,257.39 L121.84,256.86 L122.05,256.71 C122.25,256.57 122.4,256.43 122.51,256.29 L122.57,256.22 L122.64,256.23 C123.09,256.28 123.39,255.99 123.73,255.17 L123.77,255.07 L123.86,255.08 C124.05,255.1 124.2,255.09 124.33,255.06 C124.43,255.03 124.48,254.99 124.5,254.94 C124.51,254.89 124.54,254.75 124.57,254.5 C124.64,254 124.71,253.67 124.76,253.48 L124.77,253.44 L124.79,253.42 C125.35,252.72 125.38,252.16 124.91,251.39 C124.35,250.66 123.76,250.43 122.81,250.58 C122.05,250.78 121.54,251.21 121.08,252.07 C120.77,252.72 120.66,253.12 120.69,253.38 C120.84,254.04 120.83,254.44 120.67,254.74 C120.56,254.89 120.29,255.15 119.85,255.53 L119.8,255.58 L119.75,255.56 C119.05,255.43 118.39,255.58 117.54,256.09 C115.76,257.26 115,258.03 114.86,258.66 L114.86,258.75 L114.77,258.78 C113.9,259.17 113.44,259.69 113.18,260.59 L113.15,260.7 L113.05,260.7 C112.5,260.82 111.87,261.55 110.93,263.31 L110.91,263.35 L110.88,263.37 C109.63,264.39 109.04,265.99 108.9,268.88 L108.9,268.92 L108.88,268.95 C108.54,269.55 108.38,269.95 108.35,270.22 C108.34,270.41 108.37,270.55 108.45,270.67 C108.52,270.76 108.57,270.78 108.64,270.74 L108.77,270.68 L108.78,270.81 C108.8,270.91 108.85,270.97 108.96,271.03 C109.05,271.08 109.11,271.08 109.15,271.05 L109.28,270.95 L109.31,271.09 C109.39,271.33 109.53,271.37 109.86,271.25 L109.98,271.2 L109.99,271.31 C110,271.33 110.08,271.32 110.27,271.26 C110.48,271.19 110.58,271.14 110.6,271.1 C110.61,271.05 110.61,270.87 110.6,270.55 C110.57,270.14 110.59,269.93 110.65,269.85 C110.72,269.79 110.84,269.78 111.08,269.84 C111.35,269.92 111.48,269.93 111.52,269.91 C111.59,269.82 111.55,269.67 111.37,269.4 C111.36,269.39 111.32,269.36 111.24,269.33 C110.88,269.15 110.7,268.93 110.61,268.58 C110.54,268.1 110.64,267.56 110.96,266.81 L110.97,266.78 L110.99,266.76 C112.38,265.25 113.07,264.12 113.28,263.11 L113.3,263 L113.4,262.99 C114.32,262.79 115.08,262.17 115.98,260.85 L116.18,260.55 L116.23,260.47 L116.45,260.51 L116.35,260.65"/>
  <path fill="#96877d" d="M112.61,255.44 C113.24,254.13 114.71,253.82 114.82,253.79 C114.87,253.66 115.39,252.16 117.78,252.4 C118.82,251.59 120.84,251.92 120.97,251.94 C121.02,251.87 121.82,250.69 122.97,250.43 C125.12,250.4 125.38,251.95 125.3,252.47 C124.1,252.89 122.2,252.37 120.63,252.94 C119.72,253.66 118.38,254.57 117.78,255.41 C116.34,255.76 114.91,254.93 112.61,255.44"/>
  <path fill="#000" d="M112.51,255.42 C112.91,254.48 113.54,253.98 114.75,253.69 C114.88,253.39 115.07,253.13 115.36,252.85 C116.04,252.3 116.73,252.13 117.76,252.28 C118.46,251.7 119.37,251.56 120.93,251.81 C121.58,250.88 122.18,250.45 122.99,250.32 C123.98,250.25 124.56,250.48 125.07,251.15 C125.42,251.7 125.51,252.09 125.4,252.49 L125.38,252.55 L125.33,252.58 C124.92,252.75 124.26,252.81 123.22,252.77 C122.02,252.72 121.22,252.82 120.67,253.04 C120.51,253.17 120.24,253.38 119.86,253.66 C118.77,254.47 118.14,255.06 117.87,255.46 L117.84,255.51 L117.79,255.52 C117.32,255.66 116.66,255.67 115.67,255.52 C114.41,255.32 113.44,255.34 112.61,255.55 L112.44,255.6 L112.51,255.42 M112.78,255.28 C113.61,255.1 114.56,255.1 115.76,255.28 C116.67,255.43 117.29,255.43 117.72,255.32 C118.03,254.89 118.68,254.29 119.76,253.48 C120.14,253.19 120.42,252.99 120.58,252.86 L120.59,252.84 L120.61,252.84 C121.19,252.59 122.03,252.49 123.28,252.54 C124.22,252.58 124.84,252.53 125.21,252.39 C125.27,252.08 125.17,251.76 124.88,251.31 C124.42,250.7 123.87,250.48 122.96,250.55 C122.22,250.67 121.66,251.09 121.06,251.99 L121.01,252.08 L120.93,252.06 C119.36,251.79 118.48,251.92 117.85,252.47 L117.79,252.53 L117.73,252.52 C116.75,252.37 116.1,252.52 115.48,253.02 C115.21,253.28 115.03,253.53 114.93,253.81 L114.9,253.89 L114.82,253.91 C113.76,254.14 113.17,254.54 112.78,255.28"/>
  <path fill="#96877d" d="M116.99,256.35 C117.61,255.84 118.71,255.11 119.68,255.51 C120.64,256.27 121.99,256.9 122.01,256.91 L123.6,257.23 L124.33,257.53 L123.86,265.12 C122.31,263.97 121.09,263.89 119.93,262.39 C119.48,261.66 119.67,259.85 118.81,258.75 C117.75,257.71 116.89,257.19 116.99,256.35"/>
  <path fill="#000" d="M116.94,256.27 C118.16,255.26 118.95,255.03 119.75,255.4 L119.76,255.4 L119.76,255.41 C120.38,255.93 121.13,256.38 122.06,256.8 L123.65,257.12 L124.45,257.44 L123.95,265.36 L123.78,265.22 C123.37,264.9 122.81,264.56 122.06,264.19 C121,263.65 120.31,263.11 119.84,262.47 C119.68,262.25 119.55,261.81 119.46,261.04 C119.31,259.92 119.08,259.25 118.73,258.85 C118.56,258.67 118.31,258.44 117.98,258.14 C117.11,257.34 116.81,256.83 116.89,256.34 L116.9,256.3 L116.94,256.27 M117.09,256.4 C117.07,256.78 117.37,257.24 118.14,257.95 C118.48,258.25 118.73,258.49 118.9,258.66 C119.28,259.1 119.53,259.8 119.68,260.96 C119.77,261.7 119.88,262.11 120.02,262.3 L120.03,262.31 L120.03,262.31 C120.48,262.92 121.15,263.45 122.19,263.97 C122.85,264.3 123.37,264.6 123.76,264.89 L124.22,257.61 L123.55,257.35 L121.95,257.02 L121.95,257.02 C121,256.6 120.24,256.13 119.61,255.61 C118.9,255.29 118.2,255.5 117.09,256.4"/>
  <path fill="#96877d" d="M120.83,257.6 C120.87,257.58 121.62,257.29 121.9,257.39 C122.21,257.42 122.45,257.45 122.56,257.68 C122.89,257.72 123.07,257.82 123.09,258.07 C123.39,258.13 123.5,258.56 123.51,258.6 L123.23,259.09 C123.21,259.08 122.94,258.87 122.87,258.54 C122.64,258.49 122.27,258.47 122.12,258.21 C121.76,258.24 121.57,258.13 121.49,257.83 C121.14,257.94 120.86,257.62 120.83,257.6"/>
  <path fill="#000" d="M120.81,257.49 C121.41,257.25 121.74,257.19 121.96,257.28 L121.98,257.28 C122.35,257.33 122.53,257.42 122.64,257.57 C122.99,257.62 123.14,257.73 123.19,257.96 C123.4,258.03 123.52,258.19 123.61,258.55 L123.62,258.6 L123.25,259.26 L123.15,259.19 C122.94,259.03 122.83,258.86 122.77,258.65 L122.67,258.63 C122.34,258.56 122.15,258.47 122.05,258.33 C121.69,258.35 121.52,258.25 121.4,257.97 C121.16,258.02 120.98,257.94 120.74,257.69 L120.64,257.56 L120.81,257.49 M121.04,257.63 C121.2,257.76 121.32,257.78 121.46,257.73 L121.57,257.67 L121.59,257.78 C121.67,258.04 121.81,258.12 122.13,258.1 L122.2,258.09 L122.22,258.15 C122.28,258.26 122.43,258.34 122.75,258.4 C122.83,258.41 122.89,258.42 122.92,258.43 L122.97,258.45 L122.98,258.51 C123.01,258.66 123.08,258.79 123.21,258.92 L123.39,258.61 C123.31,258.32 123.22,258.21 123.06,258.19 L122.98,258.18 L122.98,258.09 C122.96,257.91 122.84,257.83 122.52,257.8 L122.47,257.8 L122.45,257.74 C122.39,257.62 122.24,257.55 121.91,257.51 L121.87,257.5 L121.85,257.5 L121.83,257.49 C121.7,257.43 121.47,257.47 121.04,257.63"/>
  <path fill="#96877d" d="M127.92,251.1 C127.37,250.73 126.66,251.21 126.6,251.25 L124.36,255.71 L123.38,256.77 L123.29,259.89 L124.11,262.6 L123.83,264.9 C123.85,264.87 124.88,263.56 125.09,262.92 C125.14,262.28 124.68,260.59 124.67,260.55 C124.63,260.49 124.08,259.59 124.81,257.16 C125.71,254.83 127.38,252.54 127.92,251.1"/>
  <path fill="#000" d="M128.05,251.05 L128.02,251.12 C127.86,251.59 127.45,252.4 126.74,253.59 C125.81,255.15 125.22,256.34 124.91,257.18 C124.39,258.78 124.37,259.74 124.76,260.47 L124.77,260.48 L124.77,260.49 C125.14,261.71 125.26,262.47 125.2,262.92 C125.07,263.38 124.68,264.03 123.9,264.97 L123.68,265.23 L123.99,262.63 L123.18,259.93 L123.27,256.74 L124.27,255.66 L126.52,251.18 L126.55,251.16 C127.2,250.73 127.6,250.69 128,251.01 L128.05,251.05 M126.68,251.32 L124.45,255.77 L123.49,256.8 L123.41,259.85 L124.22,262.56 L123.98,264.56 C124.57,263.81 124.88,263.29 124.98,262.92 C125.03,262.52 124.92,261.79 124.56,260.62 C124.14,259.83 124.17,258.82 124.7,257.14 C125.02,256.28 125.62,255.08 126.56,253.5 C127.22,252.38 127.62,251.61 127.79,251.16 C127.49,250.96 127.18,251 126.68,251.32"/>
  <path fill="#96877d" d="M133.45,253.44 C133.36,253.59 129.91,258.98 124.22,262.4 C122.63,262.72 123.17,259.16 123.21,258.84 L122.82,259.05 C122.76,259.38 121.99,262.89 124.05,262.9 C129.79,260.05 134,253.54 134.13,253.34 L133.44,253.45 L133.45,253.44"/>
  <path fill="#000" d="M133.36,253.4 L133.43,253.43 L133.42,253.34 L133.7,253.23 L133.65,253.3 L134.34,253.19 L134.22,253.38 C131.18,258.2 128,261.18 124.07,263 L124.06,263.01 L124.05,263.01 C123.06,263.14 122.65,262.65 122.53,261.17 C122.51,260.48 122.57,259.78 122.71,259.05 L122.73,258.98 L123.35,258.66 L123.32,258.83 C123.23,259.55 123.21,260.22 123.24,260.87 C123.27,261.44 123.36,261.82 123.5,262.09 C123.68,262.37 123.87,262.43 124.19,262.3 C128.02,260.1 130.91,257.31 133.36,253.4 M124.25,262.5 L124.25,262.5 L124.25,262.51 C123.8,262.69 123.54,262.62 123.3,262.23 C123.15,261.94 123.05,261.53 123.01,260.93 C122.99,260.32 123.01,259.69 123.08,259.03 L122.91,259.12 C122.79,259.8 122.74,260.46 122.76,261.11 C122.86,262.43 123.2,262.88 124.04,262.79 C127.85,261.02 130.94,258.13 133.92,253.48 L133.5,253.55 C131.03,257.48 128.11,260.29 124.25,262.5"/>
  <path fill="#96877d" d="M135.82,282.4 C135.78,282.44 135.33,282.85 134.59,282.65 C134.13,281.9 133.32,282.01 133.24,282.02 C133.19,281.88 132.69,280.46 131.62,281.04 C131.35,280.17 130.47,280.79 130.39,280.84 C130.38,280.74 130.38,279.59 129.1,279.92 C129.3,278.25 127.52,278.77 127.36,278.8 C127.35,278.67 127.32,277.2 124.11,278.1 C131.31,273.89 136.1,280.05 136.38,280.39 L135.82,282.4"/>
  <path fill="#000" d="M135.89,282.48 C135.46,282.86 135.08,282.94 134.53,282.77 L134.5,282.75 L134.49,282.72 C134.22,282.23 133.88,282.06 133.24,282.13 L133.16,282.14 L133.14,282.08 C133.03,281.8 132.9,281.56 132.71,281.33 C132.34,280.93 132.06,280.87 131.67,281.13 L131.54,281.23 L131.51,281.08 C131.44,280.75 131.29,280.65 130.95,280.71 C130.77,280.75 130.6,280.83 130.43,280.94 L130.28,281.04 L130.28,280.87 C130.27,280.65 130.22,280.47 130.12,280.28 C129.89,279.94 129.62,279.86 129.12,280.03 L128.95,280.09 L128.99,279.91 C129.12,279.25 128.95,278.96 128.35,278.84 C128.03,278.81 127.72,278.83 127.37,278.92 L127.26,278.95 L127.25,278.83 C127.23,278.56 127.11,278.36 126.85,278.15 C126.26,277.78 125.47,277.78 124.13,278.21 L124.07,278.01 C127.18,276.06 129.68,275.88 132.88,277.38 C134.38,278.2 135.52,279.14 136.47,280.31 L136.29,280.48 C135.35,279.32 134.23,278.4 132.75,277.59 C129.87,276.23 127.6,276.29 124.8,277.78 C125.84,277.55 126.48,277.61 127.01,277.95 C127.27,278.16 127.41,278.38 127.46,278.67 C127.8,278.59 128.11,278.58 128.43,278.61 C129.11,278.74 129.33,279.05 129.24,279.76 C129.76,279.64 130.06,279.74 130.31,280.13 C130.4,280.3 130.46,280.47 130.49,280.66 C130.64,280.58 130.79,280.52 130.94,280.48 C131.37,280.4 131.57,280.51 131.7,280.86 C132.16,280.63 132.48,280.71 132.89,281.16 C133.07,281.38 133.21,281.62 133.32,281.89 C134,281.84 134.38,282.03 134.68,282.56 C135.11,282.68 135.42,282.62 135.76,282.32 L135.89,282.48"/>
  <path fill="#96877d" d="M139.07,282.43 C139.15,282.51 140.59,283.79 141.48,283.8 C142.28,283.48 142.37,281.98 142.37,281.85 C142.4,281.9 142.61,282.5 143.05,282.29 C143.06,282.85 143.51,282.88 143.55,282.89 C143.43,283.17 142.29,286.18 138.06,284.13 L139.07,282.43"/>
  <path fill="#000" d="M139.15,282.34 C140.24,283.34 140.92,283.72 141.48,283.68 C141.97,283.54 142.19,283.04 142.26,281.86 L142.48,281.79 C142.52,281.9 142.58,282 142.65,282.09 C142.78,282.24 142.87,282.27 143,282.2 L143.17,282.08 L143.16,282.28 C143.15,282.6 143.26,282.73 143.58,282.77 L143.7,282.78 L143.65,282.91 C143.38,283.56 142.98,284.05 142.38,284.51 C141.07,285.31 139.83,285.24 137.99,284.23 L138.13,284.02 C139.89,284.99 141.06,285.07 142.28,284.32 C142.8,283.94 143.14,283.52 143.4,282.99 C143.1,282.91 142.97,282.77 142.93,282.46 C142.76,282.5 142.63,282.44 142.47,282.26 L142.46,282.24 C142.32,283.3 142.05,283.76 141.48,283.91 C140.85,283.96 140.12,283.57 138.99,282.52 L139.15,282.34"/>
  <path fill="#96877d" d="M126.68,285.73 L126.12,288.21 C126.07,288.27 125.49,288.95 125.62,289.12 C125.87,289.15 126.92,288.62 126.96,288.59 C127.01,288.58 128.64,287.95 129.26,287.34 C129.7,288.09 130.38,288.01 130.43,288.01 C130.44,287.99 130.47,287.65 130.38,287.45 C130.78,287.41 131.1,287.24 131.11,287.23 C131.12,287.18 131.31,286.6 130.83,286.37 C130.9,285.84 131.11,285.44 130.27,285.63 C129.52,286.52 128.18,287.46 127.69,287.4 C127.52,287.11 129.02,286 128.7,284.88 L126.68,285.73"/>
  <path fill="#000" d="M126.79,285.73 L126.22,288.24 L126.2,288.27 C126.08,288.41 125.97,288.54 125.87,288.68 C125.79,288.8 125.74,288.89 125.71,288.96 L125.68,289.01 C125.81,289.04 126.18,288.9 126.93,288.49 L126.94,288.49 L126.95,288.48 C128.12,288.07 128.81,287.68 129.18,287.28 L129.3,287.14 L129.36,287.27 C129.6,287.72 129.87,287.9 130.34,287.9 C130.35,287.73 130.33,287.61 130.28,287.52 L130.17,287.34 L130.4,287.33 C130.63,287.32 130.82,287.26 131.02,287.16 C131.11,286.77 131.05,286.59 130.78,286.48 L130.71,286.46 L130.72,286.38 C130.72,286.33 130.74,286.25 130.75,286.14 C130.79,285.91 130.79,285.79 130.76,285.74 C130.7,285.67 130.58,285.67 130.32,285.73 C129.09,287.26 128.35,287.74 127.63,287.51 C127.56,287.47 127.53,287.42 127.53,287.34 C127.53,287.28 127.55,287.21 127.6,287.13 C127.65,287.05 127.75,286.91 127.92,286.7 C128.58,285.87 128.76,285.37 128.6,284.95 L128.8,284.81 C129,285.33 128.81,285.9 128.08,286.83 C127.92,287.02 127.82,287.15 127.78,287.22 C127.76,287.26 127.75,287.28 127.75,287.29 L127.75,287.29 C128.37,287.48 129.04,287.02 130.19,285.57 L130.22,285.53 L130.26,285.52 C130.64,285.42 130.84,285.44 130.96,285.58 C131.01,285.68 131.02,285.85 130.97,286.13 L130.95,286.29 C131.29,286.45 131.36,286.71 131.21,287.25 L131.19,287.3 L131.15,287.33 C130.95,287.44 130.76,287.51 130.54,287.55 C130.57,287.67 130.57,287.82 130.54,288 L130.53,288.11 L130.42,288.12 C129.86,288.17 129.52,288 129.22,287.53 C128.79,287.93 128.08,288.31 126.99,288.7 C126.17,289.14 125.75,289.28 125.56,289.23 C125.45,289.17 125.44,289.09 125.51,288.91 C125.55,288.82 125.61,288.71 125.71,288.57 C125.8,288.43 125.91,288.3 126.02,288.17 L126.57,285.72 L126.79,285.73"/>
  <path fill="#1A1A1A" opacity="0.2" d="M8,195.25 C178.83,110.03 349.03,140.83 521.26,167.28 C676.47,191.12 833.42,211.85 992,132.75 L992,804.75 C821.17,889.97 650.97,859.17 478.74,832.72 C323.53,808.88 166.58,788.15 8,867.25 L8,195.25 M39.25,214.64 L39.25,819.14 C345.81,690.88 650.43,915.18 960.75,785.36 L960.75,180.86 C654.19,309.12 349.57,84.82 39.25,214.64"/>
</svg>
