<svg xmlns="http://www.w3.org/2000/svg" viewBox="0 0 1000 1000">
  <defs/>
  <path fill="#ed2939" d="M8,195.25 C178.83,110.03 349.03,140.83 521.26,167.28 C676.47,191.12 833.42,211.85 992,132.75 L992,468.75 C821.17,553.97 650.97,523.17 478.74,496.72 C323.53,472.88 166.58,452.15 8,531.25 L8,195.25"/>
  <path fill="#fff" d="M8,531.25 C178.83,446.03 349.03,476.83 521.26,503.28 C676.47,527.12 833.42,547.85 992,468.75 L992,804.75 C821.17,889.97 650.97,859.17 478.74,832.72 C323.53,808.88 166.58,788.15 8,867.25 L8,531.25"/>
  <path fill="#fff" d="M345.49,311.41 C345.21,381.88 290.47,430.75 222.15,434.68 C153.83,438.14 99.09,397.67 98.81,328.13 C99.09,257.67 153.84,186.02 222.15,181.98 C290.48,178.63 345.21,241.89 345.49,311.41"/>
  <path fill="#ed2939" d="M384.25,315.48 C383.97,382.04 332.28,427.07 267.69,426.75 C203.1,425.93 151.41,382.06 151.13,316.29 C151.41,249.74 203.1,187.7 267.69,187.94 C332.27,188.83 383.97,249.71 384.25,315.48"/>
  <path id="star" fill="#fff" d="M237.42,310.73 L220.66,298.29 L203.91,312.63 L210.36,290.9 L193.55,279.25 L214.29,277.58 L220.65,255.93 L227.02,276.86 L247.77,276.15 L230.96,289.73 L237.42,310.73"/>
  <path fill="#fff" d="M368.89,316.78 L352.13,301.9 L335.38,313.59 L341.83,292.9 L325.02,278.48 L345.76,280.21 L352.13,259.54 L358.49,281.42 L379.24,283.62 L362.43,294.87 L368.89,316.78"/>
  <path fill="#fff" d="M303.22,261.47 L286.46,247.62 L269.71,260.43 L276.16,239.3 L259.35,226.06 L280.09,226.34 L286.46,205.26 L292.83,226.74 L313.57,227.72 L296.76,239.94 L303.22,261.47"/>
  <path fill="#fff" d="M262.02,390.34 L245.26,377.33 L228.51,391.05 L234.96,369.56 L218.15,357.27 L238.89,356.39 L245.25,334.96 L251.62,356.12 L272.37,356.1 L255.56,369.12 L262.02,390.34"/>
  <path fill="#fff" d="M344.29,394.32 L327.53,379.78 L310.78,391.84 L317.23,371.01 L300.42,356.98 L321.16,358.23 L327.53,337.42 L333.89,359.17 L354.64,360.96 L337.83,372.53 L344.29,394.32"/>
  <path fill="#1A1A1A" opacity="0.2" d="M8,195.25 C178.83,110.03 349.03,140.83 521.26,167.28 C676.47,191.12 833.42,211.85 992,132.75 L992,804.75 C821.17,889.97 650.97,859.17 478.74,832.72 C323.53,808.88 166.58,788.15 8,867.25 L8,195.25 M39.25,214.64 L39.25,819.14 C345.81,690.88 650.43,915.18 960.75,785.36 L960.75,180.86 C654.19,309.12 349.57,84.82 39.25,214.64"/>
</svg>
