<?xml version="1.0" encoding="UTF-8" standalone="no"?><svg xmlns:dc="http://purl.org/dc/elements/1.1/" xmlns:cc="http://creativecommons.org/ns#" xmlns:rdf="http://www.w3.org/1999/02/22-rdf-syntax-ns#" xmlns:svg="http://www.w3.org/2000/svg" xmlns="http://www.w3.org/2000/svg" viewBox="0 0 45 45" style="enable-background:new 0 0 45 45;" xml:space="preserve" version="1.1" id="svg2"><metadata id="metadata8"><rdf:RDF><cc:Work rdf:about=""><dc:format>image/svg+xml</dc:format><dc:type rdf:resource="http://purl.org/dc/dcmitype/StillImage"/></cc:Work></rdf:RDF></metadata><defs id="defs6"><clipPath id="clipPath16" clipPathUnits="userSpaceOnUse"><path id="path18" d="M 0,36 36,36 36,0 0,0 0,36 Z"/></clipPath></defs><g transform="matrix(1.25,0,0,-1.25,0,45)" id="g10"><g id="g12"><g clip-path="url(#clipPath16)" id="g14"><g transform="translate(36,9)" id="g20"><path id="path22" style="fill:#ed1c23;fill-opacity:1;fill-rule:nonzero;stroke:none" d="m 0,0 c 0,-2.209 -1.791,-4 -4,-4 l -28,0 c -2.209,0 -4,1.791 -4,4 l 0,18 c 0,2.209 1.791,4 4,4 l 28,0 c 2.209,0 4,-1.791 4,-4 L 0,0 Z"/></g><path id="path24" style="fill:#eeeeee;fill-opacity:1;fill-rule:nonzero;stroke:none" d="M 36,13 0,13 0,23 36,23 36,13 Z"/><g transform="translate(16.9934,22.7956)" id="g26"><path id="path28" style="fill:#008000;fill-opacity:1;fill-rule:nonzero;stroke:none" d="m 0,0 c -0.183,-0.203 -0.615,-0.486 -0.713,-0.679 -0.098,-0.194 -0.413,-0.393 -0.581,-0.464 -0.169,-0.072 -0.021,-0.188 0.163,-0.073 0.185,0.114 0.338,0.109 0.447,0.214 0.108,0.104 0.263,0.005 0.111,-0.066 -0.151,-0.072 -0.208,-0.192 -0.274,-0.278 -0.067,-0.087 -0.099,-0.13 -0.252,-0.133 -0.153,-0.004 -0.289,-0.041 -0.396,-0.196 -0.108,-0.156 -0.24,-0.338 -0.297,-0.424 -0.058,-0.086 -0.014,-0.153 0.128,-0.048 0.143,0.106 0.302,0.194 0.373,0.076 0.071,-0.117 0.068,-0.173 -0.122,-0.249 -0.405,-0.162 -0.522,-0.258 -0.595,-0.421 -0.073,-0.164 -0.03,-0.214 -0.283,-0.296 -0.253,-0.082 -0.664,-0.38 -0.932,-0.582 -0.268,-0.202 -0.115,-0.212 0.09,-0.202 0.314,0.015 0.718,0.228 0.924,0.139 0.062,-0.118 0.134,-0.27 0.23,-0.378 -0.331,-0.466 -0.386,-0.647 -0.726,-0.654 -0.341,-0.008 -0.554,-0.353 -0.712,-0.526 -0.158,-0.174 -0.295,-0.339 -0.459,-0.41 -0.143,-0.063 -0.176,-0.114 -0.064,-0.171 0.111,-0.058 0.21,0.08 0.313,0.032 0.104,-0.049 0.172,-0.031 0.331,0.075 0.159,0.105 0.326,0.246 0.581,0.277 0.122,-0.143 0.183,-0.218 0.321,-0.292 -0.239,-0.327 -0.6,-0.582 -0.912,-0.691 -0.313,-0.108 -0.361,-0.229 -0.585,-0.515 -0.223,-0.285 -0.213,-0.379 -0.442,-0.383 -0.23,-0.006 -0.22,-0.057 -0.099,-0.147 0.121,-0.092 0.213,-0.047 0.393,-0.086 0.18,-0.038 0.41,-0.076 0.643,0.176 0.233,0.252 0.803,0.693 1.288,0.65 0.23,-0.021 0.393,-0.068 0.118,-0.33 -0.276,-0.261 -0.672,-0.46 -0.942,-0.514 -0.526,-0.106 -0.751,-0.315 -0.904,-0.309 -0.153,0.005 -0.296,-0.1 -0.063,-0.239 0.233,-0.141 0.31,-0.173 0.572,-0.056 0.261,0.116 0.69,0.313 0.859,0.358 0.169,0.047 0.296,0.118 0.415,0.086 0.121,-0.031 0.213,0.006 0.348,0.093 0.134,0.088 0.329,0.101 0.496,0.258 0.194,0.182 0.399,0.025 0.529,-0.082 0.13,-0.108 0.386,-0.536 0.155,-0.831 -0.232,-0.294 -0.489,-0.606 -0.571,-0.761 -0.082,-0.155 -0.129,-0.165 -0.226,-0.2 -0.312,-0.118 -0.63,-0.312 -0.723,-0.391 -0.092,-0.078 -0.057,-0.104 0.071,-0.126 0.128,-0.023 0.145,0.004 0.262,0.099 0.117,0.096 0.259,0.243 0.548,0.234 0.153,-0.006 0.279,0.082 0.412,0.221 0.133,0.139 0.42,0.264 0.565,0.234 0.145,-0.031 0.187,0.003 0.271,0.066 0.083,0.061 0.151,0.088 0.281,-0.02 0.13,-0.108 0.24,-0.088 0.374,-0.009 0.135,0.08 0.28,0.049 0.317,-0.036 0.035,-0.084 0.054,-0.16 0.175,-0.242 0.121,-0.083 0.552,-0.338 0.69,-0.411 0.137,-0.074 0.227,0.064 0.124,0.156 -0.104,0.091 -0.157,0.167 -0.142,0.243 0.016,0.077 0.096,0.108 0.33,0.076 0.367,-0.052 0.892,-0.313 1.082,-0.427 0.191,-0.116 0.362,-0.214 0.516,-0.211 0.153,0.004 0.202,0.039 0.064,0.164 -0.14,0.124 -0.309,0.111 -0.371,0.238 -0.107,0.219 -0.292,0.061 -0.39,0.281 -0.069,0.157 -0.164,0.175 -0.284,0.164 -0.119,-0.011 -0.278,0.096 -0.388,0.264 -0.388,0.587 -0.493,1.112 -0.366,1.507 0.128,0.394 0.5,0.513 0.717,0.347 0.217,-0.166 0.473,-0.27 0.584,-0.259 0.111,0.011 0.205,0.012 0.349,-0.069 0.147,-0.083 0.396,-0.136 0.699,-0.01 0.303,0.125 0.41,0.026 0.603,0.021 0.163,-0.005 0.359,-0.035 0.49,-0.143 0.129,-0.108 0.327,-0.18 0.625,-0.224 C 6.462,-7.56 6.664,-7.479 6.424,-7.34 6.181,-7.2 5.976,-7.119 5.887,-6.993 5.8,-6.868 5.671,-6.845 5.545,-6.848 5.418,-6.851 5.211,-6.762 5.037,-6.587 4.864,-6.411 4.726,-6.38 4.59,-6.4 4.454,-6.42 4.3,-6.381 4.205,-6.265 c 0.131,0.156 0.271,0.448 0.396,0.536 0.154,0.012 0.28,-0.028 0.385,-0.119 0.105,-0.09 0.249,-0.071 0.352,-0.069 C 5.44,-5.915 5.585,-5.962 5.671,-6.02 5.758,-6.078 5.894,-6.074 6.021,-6.021 6.146,-5.967 6.119,-5.9 5.965,-5.81 5.809,-5.72 5.723,-5.662 5.669,-5.577 5.618,-5.494 5.573,-5.453 5.387,-5.456 5.2,-5.461 5.111,-5.369 4.964,-5.21 4.632,-4.852 4.412,-4.831 4.198,-4.861 3.987,-4.891 3.775,-4.93 3.599,-4.678 c 0.218,0.107 0.396,-0.139 0.679,0.074 0.152,0.114 0.252,0.142 0.441,0.078 0.189,-0.064 0.409,-0.043 0.467,10e-4 0.06,0.044 0.136,0.114 0.229,0.124 0.092,0.011 0.081,0.135 -0.055,0.118 -0.263,-0.031 -0.31,0.13 -0.563,0.082 -0.254,-0.048 -0.347,-0.008 -0.512,0.108 -0.165,0.115 -0.303,0.214 -0.786,0.136 0.022,0.153 0.009,0.315 0.247,0.363 0.181,-0.107 0.35,-0.087 0.494,-0.083 0.145,0.003 0.639,0.005 0.784,-0.018 0.147,-0.022 0.178,0.047 -0.038,0.162 -0.214,0.114 -0.521,0.158 -0.632,0.164 -0.111,0.007 -0.165,0.082 -0.236,0.225 -0.071,0.143 -0.285,0.257 -0.601,0.259 -0.256,0.002 -0.444,0.118 -0.574,0.234 -0.131,0.117 -0.252,0.208 -0.405,0.23 -0.154,0.022 -0.293,0.13 -0.227,0.259 0.064,0.129 0.319,0.185 0.501,0.07 0.18,-0.115 0.291,-0.121 0.4,-0.059 0.109,0.062 0.178,0.089 0.341,0.033 0.162,-0.056 0.325,-0.053 0.073,0.138 -0.363,0.272 -0.719,0.163 -0.841,0.313 -0.123,0.151 -0.223,0.089 -0.307,0.053 -0.085,-0.036 -0.237,0.048 -0.055,0.143 0.135,0.072 0.271,0.108 0.391,0.052 0.12,-0.058 0.265,-0.037 0.356,0.007 0.093,0.045 0.184,0.132 -0.097,0.185 C 2.791,-1.173 2.362,-1.004 2.196,-0.854 2.032,-0.705 1.853,-0.675 1.709,-0.703 1.565,-0.732 1.446,-0.752 1.196,-0.595 0.945,-0.439 0.619,-0.284 0.391,0.034 0.162,0.352 0.141,0.156 0,0"/></g><g transform="translate(16.1521,20.9835)" id="g30"><path id="path32" style="fill:#eeeeee;fill-opacity:1;fill-rule:nonzero;stroke:none" d="m 0,0 c -0.165,0.02 -0.299,-0.057 -0.213,-0.17 0.085,-0.113 0.128,-0.042 0.236,0.011 C 0.13,-0.105 0.23,-0.027 0,0"/></g><g transform="translate(16.6067,20.6234)" id="g34"><path id="path36" style="fill:#eeeeee;fill-opacity:1;fill-rule:nonzero;stroke:none" d="m 0,0 c -0.151,-0.073 -0.297,-0.16 -0.344,-0.314 -0.048,-0.154 -0.041,-0.29 0.101,-0.253 0.216,0.056 0.23,0.312 0.388,0.341 C 0.093,-0.151 0.078,-0.049 0,0"/></g><g transform="translate(16.8722,20.7569)" id="g38"><path id="path40" style="fill:#eeeeee;fill-opacity:1;fill-rule:nonzero;stroke:none" d="M 0,0 C 0.014,-0.063 0.035,-0.165 0.087,-0.215 0.226,-0.148 0.581,-0.013 0.714,0.016 0.725,0.111 0.698,0.175 0.671,0.225 0.48,0.208 0.201,0.139 0,0"/></g><g transform="translate(18.0634,20.1555)" id="g42"><path id="path44" style="fill:#eeeeee;fill-opacity:1;fill-rule:nonzero;stroke:none" d="m 0,0 c 0.002,-0.094 0.042,-0.331 0.061,-0.425 0.085,-0.04 0.197,-0.072 0.282,-0.095 0.058,0.112 0.071,0.273 0.069,0.375 C 0.257,-0.046 0.118,0.062 0,0"/></g><g transform="translate(17.7602,20.0208)" id="g46"><path id="path48" style="fill:#eeeeee;fill-opacity:1;fill-rule:nonzero;stroke:none" d="M 0,0 C 0.01,-0.076 0.013,-0.187 0.023,-0.255 -0.088,-0.257 -0.266,-0.32 -0.375,-0.357 -0.485,-0.393 -0.617,-0.192 -0.423,-0.111 -0.229,-0.031 -0.102,-0.01 0,0"/></g><g transform="translate(15.0371,19.2553)" id="g50"><path id="path52" style="fill:#eeeeee;fill-opacity:1;fill-rule:nonzero;stroke:none" d="M 0,0 C 0.202,0.107 0.306,0.041 0.491,0.096 0.578,0.013 0.682,-0.087 0.753,-0.188 0.646,-0.369 0.32,-0.248 0.211,-0.327 0.124,-0.235 0.062,-0.143 0,0"/></g><g transform="translate(15.8578,19.4605)" id="g54"><path id="path56" style="fill:#eeeeee;fill-opacity:1;fill-rule:nonzero;stroke:none" d="M 0,0 C 0.053,-0.11 0.107,-0.202 0.15,-0.252 0.304,-0.266 0.361,-0.18 0.427,-0.076 0.493,0.028 0.49,0.155 0.32,0.143 0.15,0.131 0.057,0.095 0,0"/></g><g transform="translate(14.5308,17.4997)" id="g58"><path id="path60" style="fill:#eeeeee;fill-opacity:1;fill-rule:nonzero;stroke:none" d="M 0,0 C 0.044,-0.109 0.173,-0.149 0.209,-0.234 0.352,-0.146 0.42,-0.152 0.54,-0.176 0.659,-0.198 0.98,-0.089 1.163,0.103 1.346,0.294 1.228,0.274 1.015,0.244 0.803,0.214 0.643,0.176 0.497,0.207 0.352,0.237 0.132,0.174 0,0"/></g><g transform="translate(16.4086,18.3916)" id="g62"><path id="path64" style="fill:#eeeeee;fill-opacity:1;fill-rule:nonzero;stroke:none" d="m 0,0 c -0.101,-0.062 -0.151,-0.105 -0.072,-0.197 0.078,-0.092 0.12,-0.049 0.212,0.005 0.093,0.053 0.134,0.13 0.082,0.197 C 0.169,0.072 0.101,0.062 0,0"/></g><g transform="translate(16.9072,18.5491)" id="g66"><path id="path68" style="fill:#eeeeee;fill-opacity:1;fill-rule:nonzero;stroke:none" d="m 0,0 c -0.102,-0.002 -0.094,-0.066 -0.08,-0.116 0.014,-0.051 0.027,-0.083 0.11,-0.081 0.083,0.002 0.095,0.021 0.068,0.104 C 0.071,-0.011 0.064,0.002 0,0"/></g><g transform="translate(17.2154,18.4607)" id="g70"><path id="path72" style="fill:#eeeeee;fill-opacity:1;fill-rule:nonzero;stroke:none" d="M 0,0 C 0.003,-0.116 -0.017,-0.109 0.098,-0.126 0.214,-0.142 0.252,-0.135 0.256,-0.027 0.26,0.082 0.265,0.12 0.131,0.124 -0.003,0.127 -0.002,0.083 0,0"/></g><g transform="translate(17.69,18.3689)" id="g74"><path id="path76" style="fill:#eeeeee;fill-opacity:1;fill-rule:nonzero;stroke:none" d="M 0,0 C -0.033,-0.092 -0.079,-0.168 0.062,-0.222 0.204,-0.276 0.209,-0.238 0.251,-0.116 0.293,0.006 0.298,0.064 0.189,0.094 0.08,0.123 0.042,0.116 0,0"/></g><g transform="translate(18.1947,18.3349)" id="g78"><path id="path80" style="fill:#eeeeee;fill-opacity:1;fill-rule:nonzero;stroke:none" d="M 0,0 C -0.005,-0.051 -0.047,-0.193 -0.065,-0.238 -0.007,-0.262 0.07,-0.292 0.129,-0.329 0.187,-0.366 0.268,-0.262 0.24,-0.167 0.212,-0.072 0.107,0.079 0,0"/></g><g transform="translate(18.7934,19.8606)" id="g82"><path id="path84" style="fill:#eeeeee;fill-opacity:1;fill-rule:nonzero;stroke:none" d="m 0,0 c -0.018,-0.064 -0.077,-0.276 -0.101,-0.334 0.167,-0.041 0.295,-0.064 0.409,-0.055 0.115,0.009 0.3,0.045 0.39,0.028 0.089,-0.017 0.138,0.073 -0.011,0.185 -0.149,0.111 -0.24,0.128 -0.335,0.127 C 0.257,-0.052 0.094,0.066 0,0"/></g><g transform="translate(19.4288,19.0706)" id="g86"><path id="path88" style="fill:#eeeeee;fill-opacity:1;fill-rule:nonzero;stroke:none" d="M 0,0 C -0.113,0.018 -0.177,-0.074 -0.098,-0.136 -0.02,-0.199 0.081,-0.171 0.092,-0.113 0.105,-0.055 0.109,-0.017 0,0"/></g><g transform="translate(19.6847,19.1017)" id="g90"><path id="path92" style="fill:#eeeeee;fill-opacity:1;fill-rule:nonzero;stroke:none" d="m 0,0 c 0.007,-0.057 0.022,-0.159 0.023,-0.204 0.085,-0.081 0.173,0.004 0.264,-0.077 0.091,-0.081 0.158,0.003 0.176,0.087 0.018,0.083 0.029,0.128 -0.047,0.126 C 0.249,-0.071 0.138,0.073 0,0"/></g><g transform="translate(17.8737,21.0657)" id="g94"><path id="path96" style="fill:#eeeeee;fill-opacity:1;fill-rule:nonzero;stroke:none" d="M 0,0 C 0.02,-0.044 0.073,-0.145 0.074,-0.196 0.152,-0.245 0.332,-0.299 0.381,-0.209 0.43,-0.118 0.448,-0.079 0.364,-0.037 0.281,0.006 0.098,0.162 0,0"/></g><g transform="translate(18.5597,20.9083)" id="g98"><path id="path100" style="fill:#eeeeee;fill-opacity:1;fill-rule:nonzero;stroke:none" d="M 0,0 C -0.055,-0.062 -0.011,-0.096 0.067,-0.138 0.145,-0.182 0.2,-0.11 0.193,-0.053 0.185,0.005 0.081,0.091 0,0"/></g><g transform="translate(16.0404,16.5634)" id="g102"><path id="path104" style="fill:#eeeeee;fill-opacity:1;fill-rule:nonzero;stroke:none" d="M 0,0 C 0.058,-0.052 0.105,-0.126 0.089,-0.21 0.074,-0.296 0.126,-0.329 0.186,-0.354 0.246,-0.377 0.403,-0.525 0.433,-0.365 0.464,-0.203 0.33,0.05 0.236,0.064 0.143,0.08 0.1,0.079 0.057,0.129 0.013,0.179 -0.113,0.1 0,0"/></g><g transform="translate(21.285,17.2382)" id="g106"><path id="path108" style="fill:#eeeeee;fill-opacity:1;fill-rule:nonzero;stroke:none" d="m 0,0 c -0.04,-0.145 -0.196,-0.462 -0.296,-0.525 -0.154,0.074 -0.436,0.136 -0.463,0.22 0.056,0.154 0.111,0.283 0.154,0.377 C -0.43,0.11 -0.149,0.125 0,0"/></g><g transform="translate(20.3257,17.4563)" id="g110"><path id="path112" style="fill:#eeeeee;fill-opacity:1;fill-rule:nonzero;stroke:none" d="m 0,0 c -0.004,-0.111 -0.069,-0.359 -0.1,-0.445 -0.178,-0.021 -0.605,0.063 -0.749,0.009 0.006,0.119 0.002,0.273 0.035,0.351 C -0.542,-0.08 -0.29,0.096 0,0"/></g></g></g></g></svg>
