<?xml version="1.0" encoding="UTF-8" standalone="no"?><svg xmlns:dc="http://purl.org/dc/elements/1.1/" xmlns:cc="http://creativecommons.org/ns#" xmlns:rdf="http://www.w3.org/1999/02/22-rdf-syntax-ns#" xmlns:svg="http://www.w3.org/2000/svg" xmlns="http://www.w3.org/2000/svg" viewBox="0 0 45 45" style="enable-background:new 0 0 45 45;" xml:space="preserve" version="1.1" id="svg2"><metadata id="metadata8"><rdf:RDF><cc:Work rdf:about=""><dc:format>image/svg+xml</dc:format><dc:type rdf:resource="http://purl.org/dc/dcmitype/StillImage"/></cc:Work></rdf:RDF></metadata><defs id="defs6"><clipPath id="clipPath16" clipPathUnits="userSpaceOnUse"><path id="path18" d="M 0,36 36,36 36,0 0,0 0,36 Z"/></clipPath><clipPath id="clipPath56" clipPathUnits="userSpaceOnUse"><path id="path58" d="M 4,31 C 1.791,31 0,29.209 0,27 l 0,0 0,-9 19,0 0,13 -15,0 z"/></clipPath><clipPath id="clipPath72" clipPathUnits="userSpaceOnUse"><path id="path74" d="M 0,36 36,36 36,0 0,0 0,36 Z"/></clipPath><clipPath id="clipPath100" clipPathUnits="userSpaceOnUse"><path id="path102" d="m 23.73,22.855 c -0.189,-4.48 -0.279,-8.261 3.922,-9.902 l 0,0 c 4.201,1.641 4.11,5.422 3.92,9.902 l 0,0 c -0.274,0.187 -1.981,0.676 -3.92,0.676 l 0,0 c -1.94,0 -3.648,-0.489 -3.922,-0.676"/></clipPath></defs><g transform="matrix(1.25,0,0,-1.25,0,45)" id="g10"><g id="g12"><g clip-path="url(#clipPath16)" id="g14"><g transform="translate(36,9)" id="g20"><path id="path22" style="fill:#00247d;fill-opacity:1;fill-rule:nonzero;stroke:none" d="m 0,0 c 0,-2.209 -1.791,-4 -4,-4 l -28,0 c -2.209,0 -4,1.791 -4,4 l 0,18 c 0,2.209 1.791,4 4,4 l 28,0 c 2.209,0 4,-1.791 4,-4 L 0,0 Z"/></g><g transform="translate(19,31)" id="g24"><path id="path26" style="fill:#00247d;fill-opacity:1;fill-rule:nonzero;stroke:none" d="m 0,0 -15,0 c -2.209,0 -4,-1.791 -4,-4 l 0,-9 19,0 0,13 z"/></g><g transform="translate(19,18)" id="g28"><path id="path30" style="fill:#eeeeee;fill-opacity:1;fill-rule:nonzero;stroke:none" d="M 0,0 0,2.029 -7.1,7 -12.329,7 -2.332,0 0,0 Z"/></g><g transform="translate(19,19.418)" id="g32"><path id="path34" style="fill:#cf1b2b;fill-opacity:1;fill-rule:nonzero;stroke:none" d="m 0,0 -7.971,5.582 -1.743,0 L 0,-1.22 0,0 Z"/></g><g transform="translate(8.0996,25)" id="g36"><path id="path38" style="fill:#eeeeee;fill-opacity:1;fill-rule:nonzero;stroke:none" d="M 0,0 -8.1,-5.766 -8.1,-7 -4.768,-7 5.23,0 0,0 Z"/></g><g transform="translate(10.7139,25)" id="g40"><path id="path42" style="fill:#cf1b2b;fill-opacity:1;fill-rule:nonzero;stroke:none" d="m 0,0 -9.98,-7 0.266,0 1.461,0 L 1.744,0 0,0 Z"/></g><g transform="translate(16.6689,31)" id="g44"><path id="path46" style="fill:#eeeeee;fill-opacity:1;fill-rule:nonzero;stroke:none" d="m 0,0 -9.997,-7 5.229,0 7.099,4.971 L 2.331,0 0,0 Z"/></g><g transform="translate(17.5391,31)" id="g48"><path id="path50" style="fill:#cf1b2b;fill-opacity:1;fill-rule:nonzero;stroke:none" d="m 0,0 -9.996,-7 1.743,0 9.714,6.802 L 1.461,0 0,0 Z"/></g></g></g><g id="g52"><g clip-path="url(#clipPath56)" id="g54"><g transform="translate(10,24)" id="g60"><path id="path62" style="fill:#eeeeee;fill-opacity:1;fill-rule:nonzero;stroke:none" d="M 0,0 3.328,0 -6.668,7 -9,7 -9.625,5.406 0,-1.331 0,0 Z"/></g><g transform="translate(10,24)" id="g64"><path id="path66" style="fill:#cf1b2b;fill-opacity:1;fill-rule:nonzero;stroke:none" d="M 0,0 0.714,0 -9,6.802 -9.5,5.937 0,-0.722 0,0 Z"/></g></g></g><g id="g68"><g clip-path="url(#clipPath72)" id="g70"><g transform="translate(19,27)" id="g76"><path id="path78" style="fill:#eeeeee;fill-opacity:1;fill-rule:nonzero;stroke:none" d="m 0,0 -7,0 0,4 -5,0 0,-4 -7,0 0,-5 7,0 0,-4 5,0 0,4 7,0 0,5 z"/></g><path id="path80" style="fill:#cf1b2b;fill-opacity:1;fill-rule:nonzero;stroke:none" d="m 11,18 -3,0 0,13 3,0 0,-13 z"/><path id="path82" style="fill:#cf1b2b;fill-opacity:1;fill-rule:nonzero;stroke:none" d="m 19,23 -19,0 0,3 19,0 0,-3 z"/><g transform="translate(27.4697,12.4873)" id="g84"><path id="path86" style="fill:#eeeeee;fill-opacity:1;fill-rule:nonzero;stroke:none" d="m 0,0 c -4.602,1.797 -4.426,5.971 -4.239,10.389 l 0.01,0.25 0.207,0.14 c 0.379,0.26 2.206,0.765 4.204,0.765 1.999,0 3.825,-0.505 4.204,-0.765 L 4.592,10.638 4.603,10.389 C 4.789,5.971 4.966,1.797 0.363,0 L 0.182,-0.071 0,0 Z"/></g><g transform="translate(31.5723,22.8545)" id="g88"><path id="path90" style="fill:#ffff00;fill-opacity:1;fill-rule:nonzero;stroke:none" d="M 0,0 C -0.273,0.187 -1.981,0.677 -3.921,0.677 -5.86,0.677 -7.568,0.187 -7.842,0 -8.031,-4.48 -8.121,-8.261 -3.921,-9.901 0.28,-8.261 0.189,-4.48 0,0"/></g><g transform="translate(23.668,20)" id="g92"><path id="path94" style="fill:#8fc5ff;fill-opacity:1;fill-rule:nonzero;stroke:none" d="M 0,0 C 0.047,-3.191 0.713,-5.77 3.983,-7.047 7.254,-5.77 7.921,-3.191 7.967,0 L 0,0 Z"/></g></g></g><g id="g96"><g clip-path="url(#clipPath100)" id="g98"><g transform="translate(24,15.959)" id="g104"><path id="path106" style="fill:#366cc9;fill-opacity:1;fill-rule:nonzero;stroke:none" d="M 0,0 7.187,0 C 7.187,0 6.344,-3.25 3.651,-3.25 0.959,-3.25 0,0 0,0"/></g><g transform="translate(24.5625,18.1143)" id="g108"><path id="path110" style="fill:#5d3100;fill-opacity:1;fill-rule:nonzero;stroke:none" d="M 0,0 C 0.168,0.449 0.541,1.084 0.687,1.104 0.834,1.125 2.434,-2.009 2.309,-2.155 2.184,-2.302 0.396,-2.396 0.042,-2.333 -0.312,-2.271 0,0 0,0"/></g><g transform="translate(23.542,18.542)" id="g112"><path id="path114" style="fill:#cf6200;fill-opacity:1;fill-rule:nonzero;stroke:none" d="m 0,0 c 0.125,0.292 0.542,0.979 0.667,0.979 0.125,0 2.103,-3.688 2.228,-4.084 C 3.02,-3.5 1.146,-3.684 0.792,-3.623 0.437,-3.563 0,0 0,0"/></g><path id="path116" style="fill:#ffff00;fill-opacity:1;fill-rule:nonzero;stroke:none" d="m 27.23,19.73 -0.131,0 0,-3.792 0.131,0 0,3.792 z"/><path id="path118" style="fill:#ffff00;fill-opacity:1;fill-rule:nonzero;stroke:none" d="m 28.562,19.834 -0.131,0 0,-3.896 0.131,0 0,3.896 z"/><path id="path120" style="fill:#ffff00;fill-opacity:1;fill-rule:nonzero;stroke:none" d="m 29.792,19.73 -0.131,0 0,-3.792 0.131,0 0,3.792 z"/><g transform="translate(25.3125,16.9023)" id="g122"><path id="path124" style="fill:#000000;fill-opacity:1;fill-rule:nonzero;stroke:none" d="m 0,0 c 0.198,-0.055 1.039,-0.521 1.559,-0.677 0.625,-0.187 1.546,-0.163 1.796,-0.163 0.25,0 0.727,0.73 0.936,0.73 l 1.251,0 c 0.188,0 0.124,-1.25 -0.355,-1.25 l -3.375,0 C 1.5,-1.36 0.437,-0.382 0.23,-0.277 0.021,-0.173 -0.177,0.049 0,0"/></g><g transform="translate(27.6514,19.3232)" id="g126"><path id="path128" style="fill:#eeeeee;fill-opacity:1;fill-rule:nonzero;stroke:none" d="m 0,0 c 0,-0.109 -0.089,-0.198 -0.198,-0.198 l -0.693,0 c -0.109,0 -0.198,0.089 -0.198,0.198 0,0.109 0.089,0.198 0.198,0.198 l 0.693,0 C -0.089,0.198 0,0.109 0,0"/></g><g transform="translate(28.9756,19.5215)" id="g130"><path id="path132" style="fill:#eeeeee;fill-opacity:1;fill-rule:nonzero;stroke:none" d="m 0,0 c 0,-0.109 -0.089,-0.198 -0.198,-0.198 l -0.693,0 c -0.109,0 -0.198,0.089 -0.198,0.198 0,0.109 0.089,0.198 0.198,0.198 l 0.693,0 C -0.089,0.198 0,0.109 0,0"/></g><g transform="translate(30.3369,19.125)" id="g134"><path id="path136" style="fill:#eeeeee;fill-opacity:1;fill-rule:nonzero;stroke:none" d="m 0,0 c 0,-0.109 -0.089,-0.198 -0.198,-0.198 l -0.693,0 c -0.109,0 -0.198,0.089 -0.198,0.198 0,0.109 0.089,0.198 0.198,0.198 l 0.693,0 C -0.089,0.198 0,0.109 0,0"/></g><g transform="translate(30.3369,18.0312)" id="g138"><path id="path140" style="fill:#eeeeee;fill-opacity:1;fill-rule:nonzero;stroke:none" d="m 0,0 c 0,-0.109 -0.089,-0.198 -0.198,-0.198 l -0.693,0 c -0.109,0 -0.198,0.089 -0.198,0.198 0,0.109 0.089,0.198 0.198,0.198 l 0.693,0 C -0.089,0.198 0,0.109 0,0"/></g><g transform="translate(30.3369,17.3057)" id="g142"><path id="path144" style="fill:#eeeeee;fill-opacity:1;fill-rule:nonzero;stroke:none" d="m 0,0 c 0,-0.109 -0.089,-0.198 -0.198,-0.198 l -0.693,0 c -0.109,0 -0.198,0.089 -0.198,0.198 0,0.109 0.089,0.198 0.198,0.198 l 0.693,0 C -0.089,0.198 0,0.109 0,0"/></g><g transform="translate(28.9756,18.792)" id="g146"><path id="path148" style="fill:#eeeeee;fill-opacity:1;fill-rule:nonzero;stroke:none" d="m 0,0 c 0,-0.109 -0.089,-0.198 -0.198,-0.198 l -0.693,0 c -0.109,0 -0.198,0.089 -0.198,0.198 0,0.109 0.089,0.198 0.198,0.198 l 0.693,0 C -0.089,0.198 0,0.109 0,0"/></g><g transform="translate(28.9756,18.0312)" id="g150"><path id="path152" style="fill:#eeeeee;fill-opacity:1;fill-rule:nonzero;stroke:none" d="m 0,0 c 0,-0.109 -0.089,-0.198 -0.198,-0.198 l -0.693,0 c -0.109,0 -0.198,0.089 -0.198,0.198 0,0.109 0.089,0.198 0.198,0.198 l 0.693,0 C -0.089,0.198 0,0.109 0,0"/></g><g transform="translate(28.9756,17.3057)" id="g154"><path id="path156" style="fill:#eeeeee;fill-opacity:1;fill-rule:nonzero;stroke:none" d="m 0,0 c 0,-0.109 -0.089,-0.198 -0.198,-0.198 l -0.693,0 c -0.109,0 -0.198,0.089 -0.198,0.198 0,0.109 0.089,0.198 0.198,0.198 l 0.693,0 C -0.089,0.198 0,0.109 0,0"/></g><g transform="translate(27.6514,18.5937)" id="g158"><path id="path160" style="fill:#eeeeee;fill-opacity:1;fill-rule:nonzero;stroke:none" d="m 0,0 c 0,-0.109 -0.089,-0.198 -0.198,-0.198 l -0.693,0 c -0.109,0 -0.198,0.089 -0.198,0.198 0,0.109 0.089,0.198 0.198,0.198 l 0.693,0 C -0.089,0.198 0,0.109 0,0"/></g><g transform="translate(27.6514,17.833)" id="g162"><path id="path164" style="fill:#eeeeee;fill-opacity:1;fill-rule:nonzero;stroke:none" d="m 0,0 c 0,-0.109 -0.089,-0.198 -0.198,-0.198 l -0.693,0 c -0.109,0 -0.198,0.089 -0.198,0.198 0,0.109 0.089,0.198 0.198,0.198 l 0.693,0 C -0.089,0.198 0,0.109 0,0"/></g><g transform="translate(27.6514,17.1074)" id="g166"><path id="path168" style="fill:#eeeeee;fill-opacity:1;fill-rule:nonzero;stroke:none" d="m 0,0 c 0,-0.109 -0.089,-0.198 -0.198,-0.198 l -0.693,0 c -0.109,0 -0.198,0.089 -0.198,0.198 0,0.109 0.089,0.198 0.198,0.198 l 0.693,0 C -0.089,0.198 0,0.109 0,0"/></g><g transform="translate(27.4375,15.0303)" id="g170"><path id="path172" style="fill:#00d860;fill-opacity:1;fill-rule:nonzero;stroke:none" d="m 0,0 c 0,-0.098 0.079,-0.177 0.177,-0.177 l 3.021,0 c 0.098,0 0.177,0.079 0.177,0.177 0,0.098 -0.079,0.177 -0.177,0.177 l -3.021,0 C 0.079,0.177 0,0.098 0,0"/></g><g transform="translate(27.292,14.3008)" id="g174"><path id="path176" style="fill:#00d860;fill-opacity:1;fill-rule:nonzero;stroke:none" d="m 0,0 c 0,-0.098 0.079,-0.177 0.177,-0.177 l 3.021,0 c 0.098,0 0.177,0.079 0.177,0.177 0,0.098 -0.079,0.177 -0.177,0.177 l -3.021,0 C 0.079,0.177 0,0.098 0,0"/></g><g transform="translate(26.833,13.5713)" id="g178"><path id="path180" style="fill:#00d860;fill-opacity:1;fill-rule:nonzero;stroke:none" d="m 0,0 c 0,-0.098 0.079,-0.177 0.177,-0.177 l 3.021,0 c 0.098,0 0.177,0.079 0.177,0.177 0,0.098 -0.079,0.177 -0.177,0.177 l -3.021,0 C 0.079,0.177 0,0.098 0,0"/></g><g transform="translate(25.8672,22.7588)" id="g182"><path id="path184" style="fill:#ac5f1a;fill-opacity:1;fill-rule:nonzero;stroke:none" d="M 0,0 C 0.023,0.165 0.446,0.032 0.612,0.178 0.778,0.323 1.229,0.676 1.597,0.22 1.802,-0.035 1.75,-0.21 1.979,-0.419 2.207,-0.628 3.425,-1.155 3.82,-1.03 3.8,-1.28 3.445,-1.405 3.445,-1.405 c 0,0 0.335,-0.249 0.377,-0.541 C 3.864,-2.238 3.32,-1.493 2.55,-1.697 2.242,-1.779 1.898,-2.101 1.273,-1.946 0.648,-1.792 0.632,-0.854 0.615,-0.459 0.609,-0.315 -0.016,-0.109 0,0"/></g><g transform="translate(26.1797,22.8437)" id="g186"><path id="path188" style="fill:#eeeeee;fill-opacity:1;fill-rule:nonzero;stroke:none" d="M 0,0 C 0.03,0.134 0.364,-0.004 0.51,0.104 0.654,0.21 1.047,0.467 1.314,0.07 1.463,-0.15 1.409,-0.29 1.582,-0.476 1.753,-0.66 2.708,-1.173 3.039,-1.099 3.006,-1.3 2.708,-1.378 2.708,-1.378 c 0,0 0.255,-0.226 0.269,-0.467 C 2.992,-2.084 2.601,-1.44 1.959,-1.555 1.703,-1.601 1.401,-1.839 0.904,-1.67 0.405,-1.503 0.455,-0.737 0.469,-0.415 0.474,-0.298 -0.021,-0.087 0,0"/></g><g transform="translate(27.375,20.3398)" id="g190"><path id="path192" style="fill:#000000;fill-opacity:1;fill-rule:nonzero;stroke:none" d="m 0,0 c 0,-0.041 -0.033,-0.074 -0.074,-0.074 -0.041,0 -0.075,0.033 -0.075,0.074 l 0,0.47 c 0,0.041 0.034,0.074 0.075,0.074 C -0.033,0.544 0,0.511 0,0.47 L 0,0 Z"/></g><g transform="translate(27.9287,20.3398)" id="g194"><path id="path196" style="fill:#000000;fill-opacity:1;fill-rule:nonzero;stroke:none" d="m 0,0 c 0,-0.041 -0.033,-0.074 -0.074,-0.074 -0.041,0 -0.075,0.033 -0.075,0.074 l 0,0.47 c 0,0.041 0.034,0.074 0.075,0.074 C -0.033,0.544 0,0.511 0,0.47 L 0,0 Z"/></g><g transform="translate(27.2695,22.7344)" id="g198"><path id="path200" style="fill:#000000;fill-opacity:1;fill-rule:nonzero;stroke:none" d="m 0,0 c 0,-0.078 -0.063,-0.141 -0.141,-0.141 -0.078,0 -0.14,0.063 -0.14,0.141 0,0.078 0.062,0.141 0.14,0.141 C -0.063,0.141 0,0.078 0,0"/></g></g></g></g></svg>
