<svg xmlns="http://www.w3.org/2000/svg" viewBox="0 0 1000 1000">
  <defs/>
  <path fill="#36f" d="M8,195.25 C178.83,110.03 349.03,140.83 521.26,167.28 C676.47,191.12 833.42,211.85 992,132.75 L992,804.75 C821.17,889.97 650.97,859.17 478.74,832.72 C323.53,808.88 166.58,788.15 8,867.25 L8,195.25"/>
  <path fill="#f00" d="M500,500 C337.73,585.69 174.81,670.08 8,867.25 C178.83,782.03 349.03,812.83 521.26,839.28 C676.47,863.12 833.42,883.85 992,804.75 C829.5,774.88 667.53,640.34 500,500"/>
  <path fill="#ff0" d="M8,506.05 L8,556.45 C178.66,462.57 348.69,484.52 520.73,502.14 C676.13,518.06 833.25,530.87 992,443.55 L992,493.95 C821.35,570.34 651.32,530.99 479.27,495.74 C323.89,463.9 166.75,434.99 8,506.05"/>
  <path fill="#ff0" d="M500,500 C338.25,378.31 174.87,253.69 8,237.25 L8,195.25 C21.54,188.5 35.06,182.45 49,176.92 C197.9,229.09 346.49,361.86 500,500 M500,500 C648.8,412.18 798,325.44 951,151.08 C964.53,145.71 978.05,139.71 992,132.75 L992,174.75 C829.43,353.03 667.34,425.91 500,500"/>
  <path fill="#ff0" d="M500,500 L475.4,160.2 L524.6,167.8 L500,500"/>
  <path fill="#1A1A1A" opacity="0.2" d="M8,195.25 C178.83,110.03 349.03,140.83 521.26,167.28 C676.47,191.12 833.42,211.85 992,132.75 L992,804.75 C821.17,889.97 650.97,859.17 478.74,832.72 C323.53,808.88 166.58,788.15 8,867.25 L8,195.25 M39.25,214.64 L39.25,819.14 C345.81,690.88 650.43,915.18 960.75,785.36 L960.75,180.86 C654.19,309.12 349.57,84.82 39.25,214.64"/>
</svg>
