<svg xmlns="http://www.w3.org/2000/svg" viewBox="0 0 1000 1000">
  <defs/>
  <path fill="#e70013" d="M8,195.25 C178.83,110.03 349.03,140.83 521.26,167.28 C676.47,191.12 833.42,211.85 992,132.75 L992,804.75 C821.17,889.97 650.97,859.17 478.74,832.72 C323.53,808.88 166.58,788.15 8,867.25 L8,195.25"/>
  <path fill="#fff" d="M664,521.41 C663.71,615.47 590.86,681.78 500,668 C409.18,653.65 336.28,570.53 336,478.59 C336.29,384.53 409.14,318.22 500,332 C590.82,346.35 663.72,429.47 664,521.41"/>
  <path fill="#e70013" d="M500,374 C431.82,363.73 377.28,412.4 377,482.64 C377.28,552 431.86,615.16 500,626 C539.51,631.9 575.81,618.33 599.24,588.7 C580.89,603.44 557.6,609.44 532.8,605.85 C478.26,597.27 434.68,545.77 434.4,490.1 C434.68,434.01 478.22,396.24 532.8,404.25 C557.52,408.17 580.95,420.9 599.23,440.28 C575.96,404.85 539.36,380.32 500,374"/>
  <path fill="#e70013" d="M459,493.71 L592.5,469.17 L510,573.45 L510,429.64 L592.5,558.04 L459,493.71"/>
  <path fill="#1A1A1A" opacity="0.2" d="M8,195.25 C178.83,110.03 349.03,140.83 521.26,167.28 C676.47,191.12 833.42,211.85 992,132.75 L992,804.75 C821.17,889.97 650.97,859.17 478.74,832.72 C323.53,808.88 166.58,788.15 8,867.25 L8,195.25 M39.25,214.64 L39.25,819.14 C345.81,690.88 650.43,915.18 960.75,785.36 L960.75,180.86 C654.19,309.12 349.57,84.82 39.25,214.64"/>
</svg>
