<svg xmlns="http://www.w3.org/2000/svg" viewBox="0 0 64 64" enable-background="new 0 0 64 64"><path d="m8 50h48c2.6-3.5 4.5-7.6 5.4-12h-58.8c.9 4.4 2.8 8.5 5.4 12" fill="#ffce31"/><path d="m56 50h-48c5.5 7.3 14.2 12 24 12s18.5-4.7 24-12" fill="#83bf4f"/><path d="M2,32c0,2.1,0.2,4.1,0.6,6H32V2C15.4,2,2,15.4,2,32z" fill="#ed4c5c"/><path d="M32,2v12h24C50.5,6.7,41.8,2,32,2z" fill="#83bf4f"/><path d="m56 14h-24v12h29.4c-.9-4.4-2.8-8.5-5.4-12" fill="#ffce31"/><path d="m61.4 26h-29.4v12h29.4c.4-1.9.6-3.9.6-6s-.2-4.1-.6-6" fill="#83bf4f"/><path fill="#fff" d="m18 27.3l6.8 4.7-2.6-7.6 6.8-4.8h-8.4l-2.6-7.6-2.6 7.6h-8.4l6.8 4.8-2.6 7.6z"/></svg>