<svg xmlns="http://www.w3.org/2000/svg" viewBox="0 0 1000 1000">
  <defs/>
  <path fill="#6Cf" d="M8,195.25 C178.83,110.03 349.03,140.83 521.26,167.28 C676.47,191.12 833.42,211.85 992,132.75 L992,804.75 C821.17,889.97 650.97,859.17 478.74,832.72 C323.53,808.88 166.58,788.15 8,867.25 L8,195.25"/>
  <path fill="#FFF" d="M336,756.35 C390.13,750.46 444.24,748.43 500,746.4 C554.11,765.13 608.24,783.91 664,799.17 L500,224.48 L336,756.35"/>
  <path d="M358.14,758.37 C404.96,752.74 451.77,749.6 500,746.4 C546.81,763.99 593.63,781.63 641.86,797.15 L500,298.4 L358.14,758.37"/>
  <path fill="#FCD116" d="M336,756.35 C444.23,765.27 552.47,789.97 664,799.17 L500,500 L336,756.35"/>
  <path fill="#1A1A1A" opacity="0.2" d="M8,195.25 C178.83,110.03 349.03,140.83 521.26,167.28 C676.47,191.12 833.42,211.85 992,132.75 L992,804.75 C821.17,889.97 650.97,859.17 478.74,832.72 C323.53,808.88 166.58,788.15 8,867.25 L8,195.25 M39.25,214.64 L39.25,819.14 C345.81,690.88 650.43,915.18 960.75,785.36 L960.75,180.86 C654.19,309.12 349.57,84.82 39.25,214.64"/>
</svg>
