<svg xmlns="http://www.w3.org/2000/svg" viewBox="0 0 1000 1000">
  <defs/>
  <path fill="#00785E" d="M8,195.25 C178.83,110.03 349.03,140.83 521.26,167.28 C676.47,191.12 833.42,211.85 992,132.75 L992,804.75 C821.17,889.97 650.97,859.17 478.74,832.72 C323.53,808.88 166.58,788.15 8,867.25 L8,195.25"/>
  <path fill="#FBD116" d="M500,290.7 L478.82,354.22 L534.28,321.49 L465.72,310.95 L521.18,360.77 L500,290.7"/>
  <path fill="#FFF" d="M500,628.28 C453.79,621.12 407.56,613.93 359.95,609.07 L354.75,602.95 C402.68,607.65 450.61,615.03 500,622.68 C501.15,623.36 501.81,624.36 501.95,625.63 C501.92,627.01 501.27,627.9 500,628.28 M500,584.4 C500.85,582.69 502.22,579.25 501.68,574.09 C501.31,571.8 500.64,569.92 500,568.5 C492.03,574.95 477.44,584.64 455.59,588.28 C445.38,589.87 434.68,589.99 423.47,588.48 C394.99,584.53 366.52,581.06 337.19,578.61 C339.74,582.65 342.4,586.61 345.18,590.5 C372.71,592.99 400.23,596.4 428.59,600.4 C455.95,604.13 480.51,598.08 500,584.4 M350.22,529.67 C346.02,530.88 341.66,531.49 336.97,531.44 C357.44,556.66 386.88,574.55 420.05,579.26 C451.65,583.46 479.59,574.67 500,556.25 C503.41,532.58 505.89,505.29 506.21,474.74 C506.53,439.17 503.84,406.89 500,379.04 C490.9,386.03 474.3,401.16 466.14,427.41 C463.2,437.27 461.61,447.81 461.56,459.1 C461.66,482.55 468.47,505.07 480.27,525.07 C465.77,503.49 457.24,478.39 457.12,452.13 C457.2,434.7 460.97,418.98 467.74,405.19 C463.05,399.3 459.56,392.69 457.45,385.46 C448.35,400.72 443.2,418.81 443.11,439.21 C443.22,464.58 451.19,488.83 464.81,509.9 C440.89,480.79 407.71,460.07 370.51,455.84 C368.51,455.62 366.53,455.46 364.56,455.34 C368.28,459.36 371.36,463.84 373.79,468.8 C410.79,473.15 443.8,493.78 467.66,522.71 C444.88,499.9 416.03,484.06 384.18,480.14 C366.35,478.11 349.61,480.03 334.09,485.33 C350.12,529.43 390.29,563.84 437.82,570.92 C440.89,571.35 443.93,571.65 446.94,571.85 C440.53,572.06 433.97,571.72 427.23,570.81 C397.22,566.45 370.32,551.29 350.22,529.67 M500,674.12 L427.42,663.23 C449.95,675.51 474.33,684.26 500,688.3 C500.63,687.12 501.57,684.95 501.71,681.63 C501.63,678.13 500.63,675.51 500,674.12 M500,639.82 C457.77,633.29 415.54,626.73 372.04,621.9 C375.51,625.32 379.06,628.64 382.72,631.87 C421.42,636.44 460.12,642.4 500,648.57 C500.37,648.23 501.59,647.01 501.74,644.47 C501.6,641.92 500.35,640.26 500,639.82 M500,657.32 L395.18,642.14 C401.54,647.02 408.12,651.62 414.93,655.91 L500,668.52 C500.53,667.72 501.54,665.91 501.58,662.9 C501.42,660.22 500.52,658.27 500,657.32"/>
  <path fill="#FBD116" d="M362.3,375.15 L342.26,417.28 L383.74,398.01 L336.66,387.31 L371.35,423.82 L362.3,375.15"/>
  <path fill="#FBD116" d="M396.62,320.46 L410.49,368.73 L425.94,324.88 L387.08,347.68 L434.52,354.82 L396.62,320.46"/>
  <path fill="#FFF" d="M500,628.28 C546.21,635.43 592.44,642.62 640.05,647.48 C641.81,645.82 643.55,644.13 645.25,642.4 C597.32,637.7 549.39,630.32 500,622.68 C498.83,623 498.19,623.78 498.05,625.02 C498.08,626.39 498.75,627.52 500,628.28 M500,584.4 C499.16,582.44 497.79,578.51 498.32,573.57 C498.7,571.37 499.36,569.73 500,568.5 C507.93,577.37 522.62,591.72 544.41,601.87 C554.63,606.52 565.33,609.76 576.53,611.37 C605.01,615.32 633.48,618.79 662.81,621.24 C660.26,624.85 657.6,628.35 654.82,631.74 C627.29,629.26 599.77,625.84 571.41,621.85 C544.11,617.87 519.45,604.07 500,584.4 M649.78,569.99 C653.99,571.99 658.35,573.38 663.03,574.11 C642.44,596.04 613.24,607.5 579.95,603.09 C548.43,598.6 520.35,580.92 500,556.25 C496.59,531.52 494.11,503.46 493.79,472.82 C493.47,437.14 496.16,405.69 500,379.04 C509.07,388.81 525.72,409.17 533.86,437.82 C536.8,448.58 538.39,459.62 538.44,470.9 C538.34,494.36 531.53,514.78 519.73,531.17 C534.24,514.03 542.76,491.53 542.88,465.27 C542.81,447.84 539.03,430.96 532.26,415.12 C536.96,410.63 540.43,405.14 542.55,398.5 C551.65,416.48 556.8,436.1 556.89,456.49 C556.78,481.87 548.82,503.76 535.19,520.72 C559.17,498.8 592.22,488.07 629.49,492.01 C631.48,492.24 633.47,492.5 635.44,492.79 C631.71,496.04 628.65,499.81 626.21,504.25 C589.14,500.3 556.26,510.92 532.34,532.66 C555.15,516.75 583.91,509.54 615.82,513.21 C633.61,515.38 650.42,520.67 665.91,528.47 C649.72,570.4 609.87,596.39 562.18,589.74 C559.11,589.28 556.07,588.7 553.06,588.01 C559.48,590.11 566.04,591.67 572.77,592.64 C602.88,596.72 629.59,587.89 649.78,569.99 M500,674.12 L572.58,685.02 C550.03,690.96 525.71,692.21 500,688.3 C499.37,686.94 498.43,684.43 498.29,681.1 C498.37,677.59 499.36,675.32 500,674.12 M500,639.82 C542.23,646.36 584.46,652.92 627.96,657.75 C624.49,660.4 620.94,662.9 617.28,665.28 C578.58,660.71 539.88,654.75 500,648.57 C499.65,648.14 498.4,646.47 498.26,643.93 C498.41,641.39 499.63,640.17 500,639.82 M500,657.32 L604.82,672.51 C598.45,675.81 591.88,678.69 585.07,681.14 L500,668.52 C499.48,667.57 498.46,665.4 498.42,662.41 C498.58,659.75 499.48,658.12 500,657.32"/>
  <path fill="#FBD116" d="M637.7,413.08 L657.74,459.04 L616.26,431.17 C631.8,431.05 647.33,430.71 663.34,430.03 L628.65,459.81 L637.7,413.08"/>
  <path fill="#FBD116" d="M603.38,350.48 L589.51,395.15 L574.06,347.08 L612.92,380.04 L565.48,374.59 L603.38,350.48"/>
  <path fill="#1A1A1A" opacity="0.2" d="M8,195.25 C178.83,110.03 349.03,140.83 521.26,167.28 C676.47,191.12 833.42,211.85 992,132.75 L992,804.75 C821.17,889.97 650.97,859.17 478.74,832.72 C323.53,808.88 166.58,788.15 8,867.25 L8,195.25 M39.25,214.64 L39.25,819.14 C345.81,690.88 650.43,915.18 960.75,785.36 L960.75,180.86 C654.19,309.12 349.57,84.82 39.25,214.64"/>
</svg>
