<svg xmlns="http://www.w3.org/2000/svg" viewBox="0 0 64 64" enable-background="new 0 0 64 64"><path d="M29.2,8H50c-5-3.8-11.2-6-18-6c-6.8,0-13,2.2-18,6h11.6v48H14c5,3.8,11.2,6,18,6c6.8,0,13-2.2,18-6H29.2V8z" fill="#ffce31"/><path d="m62 32c0-9.8-4.7-18.5-12-24h-20.8v48h20.8c7.3-5.5 12-14.2 12-24" fill="#c94747"/><path d="m25.6 8h-11.6c-.1.1-.3.2-.4.3v47.4c.1.1.3.2.4.3h11.6v-48" fill="#ff8736"/><path d="M2,32c0,9.6,4.5,18.2,11.6,23.7V8.3C6.5,13.8,2,22.4,2,32z" fill="#699635"/><g fill="#ffce31"><path d="m34.4 49.6c-1.1.8-3.2.7-4.1 1.7-1.1 1.1.1 2.5.1 2.7l-.1.8c0 0 .7 0 1.1.1.5.1.7.5 1.5.4 2.2-.1 2.1-2.1 2.2-3.8.1-.6.4-1.5.5-2.1.1-.6.2-1.4.2-1.4 0-.3-.7 1.1-1.4 1.6"/><path d="m35.1 12.7c-.1-1.7 0-3.7-2.2-3.8-.9-.1-1.1.3-1.5.4-.3 0-1.1.1-1.1.1l.1.8c0 .1-1.2 1.6-.1 2.7.9.9 3.1.9 4.1 1.7.7.5 1.4 1.8 1.4 1.8 0 0 0-.9-.2-1.4-.1-.8-.4-1.7-.5-2.3"/><path d="m61.8 28.7c-.8 0-1.5-.1-2.2-.1.3.2-.8-3.5-.2-4 .7-.6.2-4.2-.4-5 0-.1 0-.3.1-.4-.3-.7-.7-1.4-1.1-2-1.1-.4-2-1.1-2.4.5-.4-.5-1.5-1.6-2.2-1.3-.1.4-.2.8-.4 1.2-.5.2-2.3-.8-3.3-.6 0 2-1.2 1.2-2.6 1.9-2.6 1.2-1.3-1.1-3-1.1-3.2 0 1.3 4.9 2.1 5.4.1-.2-.3-.6 0-.8 0 0 1.1.9 1.1.6.1-.3.1-.6.3-.8.3.5 2.6 3.2 2.1 3.7-.1.1-2.3-.1-2.3-.1.1-.2.2-.7.2-.8-.7-.7-2-.8-2.7-.6-.6.2-1.7 1-1.8 2 .4-.1 1.8-.5 2-.3.1.1-.4.8-.4.9.6 0 1.8.3 2.1.3.1-.2.3-.5.4-.7.3.4.5.8.8 1.3.3.2.9-1.8 1.5-.4.2.5-4.9 5.3-5.2 7.1-.2 1 0 2 .4 2.9-.9-1-3.3-3.7-3.9-3.4-1.5.8-.2 5.4.5 6.3.8 1.1 5.5 3.8 5.5.2 0-.2-.2-.5-.4-.9 1.1.7 2.5 1.3 3.1 2 .7.8 1.3 3 1.2 4.2-.3 2.9-4.8.2-4.8 3.4 0-.4 4.4.2 4.7-.1.7-.5 2.9 1.2 2.5-1.2-.4-2.4 2.5-1.3 2.5-3.2 0-1-3.1.2-1.4-2.5.7-1 .2-2.4 1-1.3 1.3 1.6 3.4.5 5.7-.7.7-2.6 1.1-5.3 1.1-8.1 0-1.3-.1-2.4-.2-3.5"/><path d="m40 41.8c-.2.7-1.2-3.1-1-3.3.4.1.7.1 1.1.1.3-.2-.7-.7-1.6-1 .8 0 1.5-.3 1.5-.5 0-.2-.4-.4-1.1-.5.6-.1 1-.3 1-.5 0-.2-.5-.4-1.2-.5.7-.1 1.3-.3 1.3-.5 0-.2-.3-.4-.8-.5.6-.1 1-.3 1-.6 0-.2-.3-.4-.8-.5.5-.1.9-.2 1.2-.3 1.7-1.8-.5-3-.5-1.1 0 .8-2.2.5-2.6.3-.4-.2-.2-.4 0-.7.4.2 2.2.5 2.3-2.1.1-1.1.1-16.3 1.5-16.3-5.9-.3-3.3 14.6-3.8 17.9-.4-.7-2.1.1-1.6 1.2.3.6 1 .9 1.7 1.1-.5.1-.9.3-.9.5 0 .2.3.4.8.5-.6.1-1 .3-1 .5 0 .2.5.4 1.2.5-.7.1-1.3.3-1.3.5 0 .2.5.4 1.1.5-.6.1-1 .3-1 .5 0 .2.3.4.8.5-.4.1-.6.3-.6.6.4.2.8.4 1.2.6 0 .8-.4 2.5-.7 3.3-.1-.3-.4-.4-.6-.5-1.3.1 1 1.6 1 1.5 0 .5-.5.4-.7.7 0 0 1.6 1 1.6 1.2.2-.2 1.5-1.1 1.6-1.2-.2-.2-.7-.4-.7-.7 0-.2 1.3-.5 1.4-.9.1-.4-.7-.8-.8-.3"/></g></svg>