<svg enable-background="new 0 0 128 128" viewBox="0 0 128 128" xmlns="http://www.w3.org/2000/svg"><path d="m94.9 71.35c-8.08-7.63-21.82-13.99-30.91-18.2-1.54-0.71-2.93-1.35-4.11-1.92-3.43-1.65-8.12-6.22-6.1-11.47 1.36-3.55 4.81-5.34 10.27-5.34 1.75 0 3.67 0.2 5.72 0.58 7.12 1.33 12.52 3.99 15.58 5.5 0.38 0.19 0.82 0.21 1.22 0.07 0.39-0.15 0.72-0.45 0.89-0.84l7.01-15.81c0.31-0.69 0.07-1.51-0.57-1.93-4.94-3.28-17.27-8.15-30.97-8.15-1.98 0-3.95 0.1-5.87 0.3-10.92 1.12-21.86 4.03-27.92 17.64-3.78 8.47-3.77 18.01 0.01 24.89 4.04 7.51 10.66 10.87 19.04 15.11l1.08 0.55c6.05 3.02 13.3 6.38 18.07 8.59 7.05 3.4 9.66 9.44 8.04 13.08-2.61 5.87-8.38 7.16-18.36 4.33-8.81-2.39-16.94-9.14-19.21-11.15-0.34-0.3-0.79-0.44-1.25-0.38-0.45 0.06-0.85 0.32-1.1 0.69l-10.86 16.65c-0.41 0.63-0.32 1.46 0.22 1.98 5.63 5.43 10.22 8.59 18.17 12.5 5.35 2.63 13.18 4.21 20.95 4.21 8.12 0 27.95-1.88 36.65-19.26 5.55-11.12 3.48-22.84-5.69-32.22z" fill="#40C0E7"/></svg>
