<svg xmlns="http://www.w3.org/2000/svg" viewBox="0 0 1000 1000">
  <defs/>
  <path fill="#FECB00" d="M8,195.25 C178.83,110.03 349.03,140.83 521.26,167.28 C676.47,191.12 833.42,211.85 992,132.75 L992,468.75 C821.17,553.97 650.97,523.17 478.74,496.72 C323.53,472.88 166.58,452.15 8,531.25 L8,195.25"/>
  <path fill="#EA2839" d="M8,531.25 C178.83,446.03 349.03,476.83 521.26,503.28 C676.47,527.12 833.42,547.85 992,468.75 L992,804.75 C821.17,889.97 650.97,859.17 478.74,832.72 C323.53,808.88 166.58,788.15 8,867.25 L8,531.25"/>
  <path fill="#34B233" d="M8,419.25 C178.83,334.03 349.03,364.83 521.26,391.28 C676.47,415.12 833.42,435.85 992,356.75 L992,580.75 C821.17,665.97 650.97,635.17 478.74,608.72 C323.53,584.88 166.58,564.15 8,643.25 L8,419.25"/>
  <path id="pt" fill="#FFF" d="M421.44,511.91 L500,276 L578.56,535.36 C526.71,528.19 474.86,519.3 421.44,511.91"/>
  <path fill="#FFF" d="M563.52,580.56 C495.66,621.28 427.82,659.55 357.92,704.53 L436.48,466.71 L563.52,580.56"/>
  <path fill="#FFF" d="M475.73,596.38 C407.88,535.52 340,475.38 270.07,422.5 C353.97,423.54 437.82,437.63 524.27,450.88 L475.73,596.38"/>
  <path fill="#FFF" d="M475.73,443.39 C559.59,456.25 643.52,470.7 729.93,471.77 C662.04,521.44 594.19,562.57 524.27,603.87 L475.73,443.39"/>
  <path fill="#FFF" d="M563.52,485.92 L642.08,743.35 C574.25,686.06 506.39,623.44 436.48,561.35 L563.52,485.92"/>
  <path fill="#1A1A1A" opacity="0.2" d="M8,195.25 C178.83,110.03 349.03,140.83 521.26,167.28 C676.47,191.12 833.42,211.85 992,132.75 L992,804.75 C821.17,889.97 650.97,859.17 478.74,832.72 C323.53,808.88 166.58,788.15 8,867.25 L8,195.25 M39.25,214.64 L39.25,819.14 C345.81,690.88 650.43,915.18 960.75,785.36 L960.75,180.86 C654.19,309.12 349.57,84.82 39.25,214.64"/>
</svg>
