<svg xmlns="http://www.w3.org/2000/svg" viewBox="0 0 64 64" enable-background="new 0 0 64 64"><path d="M32,2C19.7,2,9.1,9.4,4.5,20h55C54.9,9.4,44.3,2,32,2z" fill="#3e4347"/><path d="M32,62c12.3,0,22.9-7.4,27.5-18h-55C9.1,54.6,19.7,62,32,62z" fill="#75a843"/><path d="m62 32c0-2.8-.4-5.5-1.1-8h-57.8c-.7 2.5-1.1 5.2-1.1 8s.4 5.5 1.1 8h57.8c.7-2.5 1.1-5.2 1.1-8" fill="#c94747"/><g fill="#fff"><path d="m3.7 42c.2.7.5 1.3.8 2h55c.3-.7.6-1.3.8-2 .2-.7.4-1.3.6-2h-57.8c.2.7.4 1.3.6 2"/><path d="m60.3 22c-.2-.7-.5-1.3-.8-2h-55c-.3.7-.6 1.3-.8 2-.2.7-.4 1.3-.6 2h57.8c-.2-.7-.4-1.3-.6-2"/><path d="m20.2 52.3l.7.4 19.3-33.4c1.1-.3 1.7-1.4 2.4-2.4.4-.7 2.1-3.6 2.8-7.3-2.9 2.5-4.5 5.3-4.9 6.1-.6 1.1-1.2 2.1-.9 3.3l-19.4 33.3"/><path d="m43.8 52.3l-.7.4-19.3-33.4c-1.1-.3-1.7-1.4-2.4-2.4-.4-.7-2.1-3.6-2.8-7.3 2.9 2.5 4.5 5.3 4.9 6.1.6 1.1 1.2 2.1.9 3.3l19.4 33.3"/></g><path d="m40 32c0 11-8 20-8 20s-8-9-8-20c0-11 8-20 8-20s8 9 8 20" fill="#c94747"/><g fill="#3e4347"><path d="m26.1 40c1.7-1.7 2.9-4.6 2.9-8 0-3.4-1.1-6.3-2.9-8-.7 2.3-1.1 5.1-1.1 8 0 2.9.4 5.7 1.1 8"/><path d="m37.9 24c-1.7 1.7-2.9 4.6-2.9 8 0 3.4 1.1 6.3 2.9 8 .7-2.3 1.1-5.1 1.1-8 0-2.9-.4-5.7-1.1-8"/></g><g fill="#fff"><ellipse cx="32" cy="32" rx="1.6" ry="2.4"/><path d="m31.4 12.7c-.6 1.7-1 4.9-1 8.4 0 3.6.4 6.7 1 8.4.2-2.5.4-5.3.4-8.4 0-3-.1-5.9-.4-8.4"/><path d="m32.6 12.7c.6 1.7 1 4.9 1 8.4 0 3.6-.4 6.7-1 8.4-.2-2.5-.4-5.3-.4-8.4 0-3 .1-5.9.4-8.4"/><path d="m31.4 34.4c-.6 1.7-1 4.9-1 8.4 0 3.6.4 6.7 1 8.4.2-2.5.4-5.3.4-8.4 0-3-.1-5.9-.4-8.4"/><path d="m32.6 34.4c.6 1.7 1 4.9 1 8.4 0 3.6-.4 6.7-1 8.4-.2-2.5-.4-5.3-.4-8.4 0-3 .1-5.9.4-8.4"/></g></svg>