<svg xmlns="http://www.w3.org/2000/svg" version="1.1" viewBox="0 0 1000 1000">
  <defs/>
  <path fill="#fff" d="M8,195.25 C178.83,110.03 349.03,140.83 521.26,167.28 C676.47,191.12 833.42,211.85 992,132.75 L992,804.75 C821.17,889.97 650.97,859.17 478.74,832.72 C323.53,808.88 166.58,788.15 8,867.25 L8,195.25"/>
  <path fill="#0038a8" d="M372.44,220.79 C575.93,243.4 782.5,311.92 992,207.42 L992,282.08 C786.86,384.42 583.67,318.93 372.44,295.46 L372.44,220.79"/>
  <path fill="#0038a8" d="M372.44,370.12 C575.93,392.74 782.5,461.26 992,356.75 L992,431.42 C786.86,533.76 583.67,468.27 372.44,444.79 L372.44,370.12"/>
  <path fill="#0038a8" d="M8,568.58 C178.83,483.36 349.03,514.16 521.26,540.62 C676.47,564.46 833.42,585.19 992,506.08 L992,580.75 C821.17,665.97 650.97,635.17 478.74,608.72 C323.53,584.88 166.58,564.15 8,643.25 L8,568.58"/>
  <path fill="#0038a8" d="M8,717.92 C178.83,632.69 349.03,663.5 521.26,689.95 C676.47,713.79 833.42,734.52 992,655.42 L992,730.08 C821.17,815.31 650.97,784.5 478.74,758.05 C323.53,734.21 166.58,713.48 8,792.58 L8,717.92"/>
  <path fill="#fcd116" d="M181.99,366.95 L194.05,384.09 C143.75,426.84 174.59,443.4 139.6,462.31 C161.15,436.16 136.34,439.33 154.58,390.36 L181.99,366.95"/>
  <path fill="#7B3F00" d="M182.97,366.13 L195.69,384.22 L194.74,385.03 C177.51,399.6 166.79,416.33 162.09,434.81 C160.29,441.84 158.4,446.77 156.4,449.94 C153.01,454.9 147.72,459.19 139.97,463.39 L135.05,466.02 L138.76,461.58 C145.76,453 148.44,444.69 147.18,435.3 C145.22,421.55 147.26,406.63 153.45,390.07 L153.92,388.87 L156.15,389.43 L155.67,390.63 C149.66,406.74 147.67,421.21 149.55,434.54 C150.71,443.08 148.87,450.72 143.79,458.55 C148.68,455.41 152.11,452.27 154.51,448.76 C156.31,445.87 158.05,441.24 159.75,434.54 C164.5,415.81 175.23,398.81 192.41,383.95 L180.97,367.75 L180.31,366.82 L182.31,365.2 L182.97,366.13"/>
  <path fill="#7B3F00" d="M181.99,366.95 L174.04,373.59 L174.37,373.77 C160.88,398.57 158.51,416.58 156.55,430.54 C155.52,437.57 154.59,443.46 152.39,448.9 C150.82,452.4 148.81,455.51 145.87,458.58 C170.65,441.56 147.47,423.73 194.05,384.09 L181.99,366.95"/>
  <path fill="#7B3F00" d="M182.13,366.15 L194.78,384.16 L194.38,384.5 C182.9,394.19 174.62,403.87 169.27,413.41 C166.24,418.97 163.64,426.01 161.43,434.73 C159.91,440.7 158.45,444.93 157.06,447.63 C154.63,451.94 151.12,455.59 146.09,459.06 L141.82,461.91 L145.5,458.19 C148.27,455.33 150.32,452.31 151.88,448.76 C153.37,445.07 154.76,439.07 156,430.56 L156.15,429.56 C157.55,419.67 159.1,411.66 160.78,405.49 C163.69,395.04 167.95,384.59 173.64,374.05 L173.02,373.76 L181.66,366.54 L182.13,366.15 M175.02,373.42 L175.13,373.48 L174.84,374.01 C169.06,384.62 164.75,395.15 161.83,405.66 C160.18,411.78 158.63,419.72 157.2,429.54 C157.15,430 157.1,430.32 157.06,430.53 C155.81,439.14 154.4,445.24 152.87,449.04 C151.89,451.3 150.72,453.38 149.3,455.38 C152.26,452.8 154.44,450.19 156.11,447.23 C157.46,444.64 158.88,440.51 160.37,434.63 C162.6,425.78 165.24,418.61 168.32,412.94 C173.7,403.39 181.93,393.72 193.28,384.05 L181.84,367.75 L175.02,373.42"/>
  <path fill="#7B3F00" d="M174.37,373.77 C165.58,389.92 159.71,408.5 156.66,429.59 C154.17,446.39 148.81,457.15 140.11,463.29 L139.09,461.29 C147,455.65 151.92,445.55 154.29,429.61 C157.39,408.18 163.37,389.26 172.33,372.77 L174.37,373.77"/>
  <path fill="#fcd116" d="M190.22,329.52 C182.28,330.36 174.35,331.35 166.17,332.54 L190.22,465.04 L214.28,327.47 C206.34,328 198.4,328.67 190.22,329.52 L190.22,465.04 L190.22,329.52"/>
  <path fill="#7B3F00" d="M189.02,328.42 C197.84,327.48 206.65,326.73 215.73,326.14 L190.22,471.91 L164.71,331.52 C172.73,330.33 180.75,329.31 189.02,328.42 M191.42,330.63 L191.42,451.25 L212.82,328.8 L191.42,330.63 M189.02,451.5 L189.02,330.88 C181.96,331.64 174.9,332.52 167.63,333.56 L189.02,451.5"/>
  <path fill="#7B3F00" d="M190.22,329.52 C198.16,328.69 206.1,328.02 214.28,327.47 C206.34,328 198.4,328.67 190.22,329.52 L190.22,465.04 L214.28,327.47 C206.34,328 198.4,328.67 190.22,329.52"/>
  <path fill="#fcd116" d="M159.21,353.43 L154.98,375.92 C94.06,376.61 102.87,413.92 67.99,408.36 C98.68,397.76 81.1,383.39 126.37,353.64 C137.21,353.23 148.04,353.16 159.21,353.43"/>
  <path fill="#7B3F00" d="M160.37,353.51 L155.93,377.18 L154.8,377.15 C133.67,377.36 115.76,384.41 100.13,397.91 C94.22,403.05 89.67,406.34 86.32,407.93 C80.84,410.29 74.8,410.83 67.44,409.68 L62.85,408.89 L68.02,407.12 C77.89,403.66 85.26,397.75 90.98,388.37 C99.36,374.47 110.86,362.44 125.9,352.59 L127.03,351.89 L127.94,353.97 L126.81,354.67 C112.18,364.22 101.02,375.84 92.92,389.26 C87.7,397.79 81.28,403.63 72.98,407.61 C77.97,407.88 82.12,407.24 85.99,405.61 C89.03,404.14 93.29,401.02 98.93,396.12 C114.78,382.39 132.84,375.12 154.03,374.66 L158.01,353.4 L158.26,352.16 L160.59,352.24 L160.37,353.51"/>
  <path fill="#7B3F00" d="M159.21,353.43 L149.66,353.28 L149.77,353.67 C124.4,364.7 110.56,379.2 99.77,390.36 C94.36,395.99 89.68,400.75 84.68,404.3 C81.32,406.53 78.01,408.06 74.18,409 C100.49,409.38 98.54,376.57 154.98,375.92 L159.21,353.43"/>
  <path fill="#7B3F00" d="M159.83,352.88 L155.42,376.48 L154.91,376.49 C140.87,376.61 129.17,379.15 119.3,383.79 C113.61,386.6 107.17,391.05 99.8,397.41 C94.77,401.78 90.95,404.71 88.29,406.25 C83.84,408.59 79.29,409.65 74,409.59 L69.55,409.5 L74.22,408.43 C77.78,407.57 81.07,406.1 84.46,403.84 C87.87,401.45 92.85,396.84 99.44,390 L100.2,389.23 C107.88,381.29 114.33,375.32 119.59,371.1 C128.56,364.01 138.34,358.09 149.11,353.38 L148.93,352.7 L159.28,352.89 L159.83,352.88 M150.42,353.86 L150.42,353.97 L149.91,354.21 C139.02,358.9 129.16,364.82 120.14,371.95 C114.93,376.12 108.51,382.05 100.86,389.94 L100.1,390.72 C93.43,397.61 88.37,402.29 84.86,404.76 C82.7,406.21 80.56,407.35 78.37,408.25 C81.88,407.82 84.96,406.86 88.03,405.24 C90.6,403.76 94.32,400.91 99.26,396.62 C106.72,390.15 113.26,385.63 119.05,382.77 C128.93,378.09 140.6,375.52 154.54,375.36 L158.55,353.98 L150.42,353.86"/>
  <path fill="#7B3F00" d="M149.77,353.67 C133.22,360.85 116.93,372.7 100.53,389.59 C87.47,403 76.81,409.56 67.59,409.66 L68.39,407.07 C76.79,406.97 86.69,400.76 99.07,388.01 C115.74,370.8 132.32,358.72 149.19,351.39 L149.77,353.67"/>
  <path fill="#fcd116" d="M190.22,329.52 L173.2,314.12 C147.95,354.89 122.69,397.31 96.67,443.24 C133.17,406.97 169.65,374.99 207.24,345.41 L190.22,329.52 C159.35,364.4 128.48,401.6 96.67,443.24 C127.55,402.82 158.42,365.45 190.22,329.52"/>
  <path fill="#7B3F00" d="M190.22,327.77 L209.1,345.42 C170.43,375.73 131.78,409.46 91.93,449.47 C118.71,401.95 145.48,356.76 173.06,312.23 L190.22,327.77 M190.22,331.27 C162.74,362.31 135.27,395.18 106.95,431.61 C139.43,400.05 171.89,371.79 205.35,345.37 L190.22,331.27 M105.27,430.34 C132.75,394.87 160.21,361.77 188.51,329.7 L173.38,316.03 C150.91,352.31 128.43,389.89 105.27,430.34"/>
  <path fill="#7B3F00" d="M190.22,329.52 L207.24,345.41 L190.22,329.52 C159.35,364.4 128.48,401.6 96.67,443.24 C133.17,406.97 169.65,374.99 207.24,345.41 L190.22,329.52"/>
  <path fill="#fcd116" d="M154.58,325.93 L136.58,341.62 C100.39,298.37 79.83,336.56 67.99,304.65 C90.18,319.78 90.63,291.94 135.56,301.39 L154.58,325.93"/>
  <path fill="#7B3F00" d="M155.27,326.82 L136.28,343.36 L135.59,342.53 C122.98,327.42 108.42,319.91 90.98,320.24 C84.36,320.37 79.88,319.91 77.1,318.77 C72.75,316.68 69.51,312.51 66.86,305.42 L65.25,300.95 L68.86,303.49 C75.91,308.23 83.52,308.46 92.95,304.39 C106.8,298.32 120.88,296.9 136.03,300.14 L137.12,300.4 L136.21,302.86 L135.12,302.6 C120.36,299.48 106.69,300.87 93.28,306.72 C84.69,310.43 77.59,310.85 70.87,307.95 C73.07,312.27 75.48,314.86 78.56,316.35 C81.1,317.38 85.29,317.79 91.6,317.67 C109.25,317.34 124.04,324.84 136.87,339.88 L153.92,324.99 L154.91,324.15 L156.26,325.98 L155.27,326.82"/>
  <path fill="#7B3F00" d="M154.58,325.93 L149.08,318.74 L148.86,319.11 C126.41,309.35 109.4,311.29 96.01,313.1 C89.31,313.97 83.7,314.75 78.78,314.11 C75.56,313.52 72.96,312.4 70.47,310.21 C82.79,331.68 102.81,301.34 136.58,341.62 L154.58,325.93"/>
  <path fill="#7B3F00" d="M155.34,325.95 L136.43,342.39 L136.14,342.04 C127.75,331.96 119.46,325.43 110.85,322.11 C105.82,320.28 99.38,319.35 91.17,319.51 C85.54,319.63 81.66,319.39 79.25,318.74 C75.36,317.47 72.48,314.97 69.96,310.61 L67.95,306.94 L70.9,309.69 C73.24,311.76 75.74,312.94 78.99,313.52 C82.34,313.95 87.96,313.58 96.09,312.51 C96.28,312.48 96.6,312.44 97.03,312.39 C106.48,311.16 114.04,310.86 119.81,311.21 C129.6,311.9 139.11,314.28 148.68,318.4 L149.04,317.7 L155.02,325.52 L155.34,325.95 M149.11,319.74 L149.04,319.87 L148.57,319.65 C138.93,315.45 129.34,313.04 119.48,312.37 C113.76,312.03 106.26,312.32 96.89,313.52 C96.45,313.59 96.14,313.63 95.94,313.64 C87.71,314.73 82,315.12 78.56,314.67 C76.49,314.33 74.7,313.74 72.98,312.86 C75.02,315.27 77.11,316.71 79.8,317.59 C82.11,318.22 85.89,318.47 91.42,318.36 C99.76,318.19 106.31,319.13 111.43,320.99 C120.04,324.35 128.33,330.84 136.69,340.81 L153.81,325.91 L149.11,319.74"/>
  <path fill="#7B3F00" d="M148.86,319.11 C134.2,312.73 117.08,310.36 96.92,312.95 C80.85,314.98 71.32,313 66.93,305.55 L69.08,303.75 C73.11,310.55 82.04,312.33 97.29,310.42 C117.77,307.81 135.17,310.26 150.1,316.8 L148.86,319.11"/>
  <path fill="#fcd116" d="M190.22,329.52 L190.22,304.88 C146.56,317.63 102.92,335 57.93,360.15 C101.61,352 145.22,350.53 190.22,354.16 L190.22,329.52 C146.56,334.13 102.92,343.38 57.93,360.15 C101.61,343.86 145.23,334.28 190.22,329.52"/>
  <path fill="#7B3F00" d="M191.42,328.16 L191.42,355.53 C145.15,351.7 98.9,353.05 51.22,362.71 C97.52,336.08 143.75,317.09 191.42,303.26 L191.42,328.16 M189.02,330.88 C150.15,335.07 111.32,342.93 71.27,356.6 C110.14,350.56 148.97,349.65 189.02,352.79 L189.02,330.88 M71.27,354.14 C110.15,340.87 148.97,332.73 189.02,328.42 L189.02,306.5 C150.16,317.92 111.32,333.01 71.27,354.14"/>
  <path fill="#7B3F00" d="M190.22,329.52 L190.22,354.16 L190.22,329.52 C146.56,334.13 102.92,343.38 57.93,360.15 C101.61,352 145.22,350.53 190.22,354.16 L190.22,329.52"/>
  <path fill="#fcd116" d="M170.87,300.1 C163.85,299.65 156.82,299.32 149.59,299.12 C158.95,235.26 123.19,248.99 139.6,211.88 C139.5,243.09 158.02,222.55 176.77,265.68 L170.87,300.1"/>
  <path fill="#7B3F00" d="M170.62,301.33 C163.22,300.86 155.82,300.53 148.2,300.34 L148.42,299.15 C151.69,276.92 148.92,258.99 139.97,244.73 C136.54,239.33 134.69,235.14 134.13,231.76 C133.48,226.34 134.86,219.8 138.51,211.53 L140.88,206.36 L140.8,211.68 C140.82,221.88 144.32,228.59 151.85,233.17 C163.03,239.85 171.57,250.39 177.9,265.05 L178.34,266.15 L176.12,267.37 L175.68,266.26 C169.51,252.03 161.25,241.83 150.42,235.4 C143.54,231.24 139.82,225.54 138.65,217.18 C136.74,222.69 136.08,227.1 136.5,230.94 C137.03,234 138.79,237.93 142.04,243.1 C151.12,257.59 154.05,275.67 150.97,297.91 C157.61,298.1 164.25,298.4 171.09,298.84 L172.26,298.94 L171.82,301.39 L170.62,301.33"/>
  <path fill="#7B3F00" d="M170.87,300.1 L172.58,290.08 L172.18,290.25 C165.81,265.03 155.46,252.64 147.44,242.95 C143.4,238.12 140.13,234.03 138.18,229.26 C137.02,226.04 136.57,222.8 136.9,218.76 C127.95,247.44 158.31,239.6 149.59,299.12 C156.61,299.31 163.63,299.63 170.87,300.1"/>
  <path fill="#7B3F00" d="M171.31,300.67 C163.93,300.2 156.56,299.87 148.97,299.68 L149.04,299.15 C151.23,284.37 151.18,272.36 148.93,262.69 C147.51,257.09 144.76,251.01 140.55,244.28 C137.64,239.67 135.92,236.18 135.19,233.56 C134.23,229.23 134.59,224.5 136.39,218.68 L137.96,213.81 L137.45,218.69 C137.13,222.45 137.52,225.69 138.69,228.93 C140.01,232.21 142.99,236.65 147.87,242.53 L148.42,243.22 C154.1,250.06 158.35,255.98 161.25,260.93 C166.11,269.36 169.86,278.84 172.58,289.52 L173.28,289.24 L171.38,300.1 L171.31,300.67 M171.89,290.96 L171.78,290.98 L171.64,290.47 C168.94,279.66 165.18,270.1 160.3,261.64 C157.43,256.74 153.2,250.86 147.55,244.05 L147,243.37 C142.06,237.42 139.03,232.91 137.67,229.55 C136.91,227.48 136.46,225.41 136.28,223.18 C135.58,226.95 135.58,230.08 136.25,233.08 C136.95,235.61 138.62,239.02 141.46,243.55 C145.75,250.36 148.54,256.54 149.99,262.24 C152.26,271.93 152.35,283.91 150.21,298.57 C156.88,298.75 163.55,299.05 170.43,299.49 L171.89,290.96"/>
  <path fill="#7B3F00" d="M172.18,290.25 C168.04,273.84 160.05,258.26 147.98,243.63 C138.43,231.98 135.38,221.85 138.47,211.69 L140.73,212.07 C137.93,221.31 140.87,230.71 149.91,241.8 C162.18,256.7 170.3,272.6 174.51,289.34 L172.18,290.25"/>
  <path fill="#fcd116" d="M190.22,329.52 L207.24,310.54 C170.75,287.5 134.26,267.53 96.67,251.57 C121.92,281.75 147.18,313.97 173.2,348.99 L190.22,329.52 C159.35,301.15 128.47,275.1 96.67,251.57 C127.54,274.4 158.41,300.28 190.22,329.52"/>
  <path fill="#7B3F00" d="M191.94,329.34 L173.06,350.91 C146.28,314.91 119.51,280.76 91.93,248.09 C130.6,264.11 169.25,284.97 209.1,310.25 L191.94,329.34 M188.51,329.7 C161.04,304.52 133.57,281.19 105.27,259.72 C127.74,287 150.22,315.86 173.38,347.02 L188.51,329.7 M106.95,257.56 C134.42,278.48 161.9,301.75 190.22,327.77 L205.35,310.87 C172.87,290.47 140.4,272.51 106.95,257.56"/>
  <path fill="#7B3F00" d="M190.22,329.52 L173.2,348.99 L190.22,329.52 C159.35,301.15 128.47,275.1 96.67,251.57 C121.92,281.75 147.18,313.97 173.2,348.99 L190.22,329.52"/>
  <path fill="#fcd116" d="M198.46,292.2 L186.4,274.98 C234.77,233.36 206.27,213.9 240.84,201.03 C219.22,223.62 243.94,224.46 225.86,270.81 L198.46,292.2"/>
  <path fill="#7B3F00" d="M197.47,293 L184.76,274.86 L185.7,274.05 C202.93,259.23 213.64,243.66 218.36,225.55 C220.16,218.69 222.04,213.96 224.04,211.02 C227.45,206.43 232.7,202.8 240.48,199.88 L245.4,198.12 L241.68,201.9 C234.67,209.29 232,217.28 233.26,226.85 C235.23,240.91 233.17,255.46 226.99,271.24 L226.52,272.38 L224.3,271.56 L224.77,270.41 C230.78,255.02 232.78,240.89 230.89,227.27 C229.73,218.57 231.57,211.15 236.65,204.1 C231.75,206.5 228.34,209.18 225.94,212.41 C224.13,215.1 222.39,219.52 220.69,226.05 C215.93,244.37 205.22,260.13 188.04,275.1 L199.48,291.44 L200.14,292.39 L198.13,293.95 L197.47,293"/>
  <path fill="#7B3F00" d="M198.46,292.2 L206.4,285.89 L206.08,285.69 C219.54,261.67 221.92,244.23 223.9,230.4 C224.92,223.48 225.86,217.7 228.05,212.54 C229.63,209.23 231.63,206.4 234.58,203.76 C209.74,217.16 231.74,235.92 186.4,274.98 L198.46,292.2"/>
  <path fill="#7B3F00" d="M198.31,293 L185.67,274.91 L186.07,274.57 C197.54,264.73 205.82,255.54 211.18,246.37 C214.21,241.02 216.81,234.21 219.01,225.7 C220.53,219.87 221.99,215.79 223.39,213.25 C225.83,209.19 229.3,205.99 234.36,203.25 L238.62,201.05 L234.94,204.2 C232.17,206.66 230.14,209.38 228.56,212.74 C227.07,216.24 225.69,222.07 224.44,230.45 L224.3,231.42 C222.89,241.16 221.35,249 219.67,255.01 C216.76,265.17 212.49,275.23 206.8,285.45 L207.42,285.77 L198.79,292.62 L198.31,293 M205.42,286 L205.31,285.94 L205.6,285.43 C211.39,275.12 215.7,264.97 218.61,254.73 C220.27,248.77 221.81,240.99 223.24,231.33 C223.29,230.88 223.34,230.55 223.39,230.35 C224.63,221.87 226.04,215.94 227.58,212.34 C228.56,210.2 229.73,208.28 231.15,206.47 C228.17,208.65 226.01,210.98 224.33,213.76 C222.99,216.2 221.56,220.17 220.07,225.9 C217.84,234.54 215.21,241.46 212.13,246.9 C206.74,256.07 198.52,265.23 187.16,275.01 L198.6,291.4 L205.42,286"/>
  <path fill="#7B3F00" d="M206.08,285.69 C214.86,270.01 220.73,252.1 223.79,231.34 C226.28,214.81 231.62,204.66 240.33,199.96 L241.35,202.13 C233.42,206.44 228.52,215.92 226.16,231.59 C223.05,252.67 217.07,270.86 208.12,286.8 L206.08,285.69"/>
  <path fill="#fcd116" d="M190.22,329.52 C198.16,328.69 206.1,328.02 214.28,327.47 L190.22,194 L166.17,332.54 C174.11,331.38 182.04,330.38 190.22,329.52 L190.22,194 L190.22,329.52"/>
  <path fill="#7B3F00" d="M191.42,330.63 C182.61,331.54 173.8,332.64 164.71,333.99 L190.22,187.13 L215.73,328.61 C207.71,329.13 199.69,329.78 191.42,330.63 M189.02,328.42 L189.02,207.79 L167.63,331.1 C174.69,330.08 181.75,329.2 189.02,328.42 M191.42,207.54 L191.42,328.16 L212.82,326.34 L191.42,207.54"/>
  <path fill="#7B3F00" d="M190.22,329.52 C182.28,330.36 174.35,331.35 166.17,332.54 C174.11,331.38 182.04,330.38 190.22,329.52 L190.22,194 L166.17,332.54 C174.11,331.38 182.04,330.38 190.22,329.52"/>
  <path fill="#fcd116" d="M221.24,307.22 L225.46,285.2 C285.3,291.79 280.47,257.58 312.46,275.72 C282.57,273.86 297.72,293.03 254.07,312.23 C243.24,310.34 232.4,308.67 221.24,307.22"/>
  <path fill="#7B3F00" d="M220.07,307.03 L224.52,283.83 L225.65,284 C246.77,286.33 264.7,283.53 280.31,274.74 C286.24,271.38 290.73,269.63 294.13,269.21 C299.59,268.76 305.62,270.46 313,274.64 L317.6,277.35 L312.42,276.95 C302.48,276.39 295.22,279.67 289.46,287.18 C281.07,298.33 269.62,306.79 254.55,313.39 L253.42,313.84 L252.51,311.58 L253.64,311.12 C268.29,304.68 279.4,296.47 287.53,285.66 C292.78,278.79 299.09,275.22 307.46,274.47 C302.45,272.24 298.31,271.37 294.45,271.65 C291.37,272.06 287.18,273.71 281.52,276.89 C265.68,285.78 247.61,288.73 226.41,286.57 L222.44,307.38 L222.18,308.59 L219.85,308.27 L220.07,307.03"/>
  <path fill="#7B3F00" d="M221.24,307.22 L230.78,308.52 L230.68,308.11 C256.11,300.56 269.74,290.4 280.68,282.4 C286.11,278.41 290.74,275.21 295.77,273.42 C299.14,272.37 302.39,272.07 306.26,272.61 C280.68,262.33 281.48,291.36 225.46,285.2 L221.24,307.22"/>
  <path fill="#7B3F00" d="M220.62,307.71 L225.03,284.59 L225.54,284.64 C239.57,286.2 251.31,285.98 261.14,283.68 C266.84,282.23 273.28,279.48 280.64,275.34 C285.7,272.49 289.47,270.85 292.16,270.21 C296.6,269.39 301.11,269.97 306.44,272.1 L310.89,273.95 L306.22,273.17 C302.62,272.65 299.38,272.9 295.98,273.95 C292.55,275.15 287.62,278.02 281.01,282.85 L280.24,283.39 C272.57,289.03 266.12,293.34 260.85,296.3 C251.89,301.28 242.11,305.28 231.33,308.49 L231.51,309.2 L221.16,307.75 L220.62,307.71 M230.02,307.84 L230.02,307.73 L230.53,307.56 C241.43,304.35 251.3,300.34 260.3,295.33 C265.52,292.39 271.94,288.1 279.58,282.48 L280.35,281.94 C287.03,277.05 292.05,274.13 295.58,272.89 C297.75,272.21 299.86,271.84 302.07,271.76 C298.53,270.87 295.49,270.74 292.41,271.31 C289.82,271.92 286.14,273.51 281.19,276.29 C273.73,280.49 267.2,283.29 261.4,284.76 C251.54,287.09 239.83,287.34 225.9,285.81 L221.89,306.74 L230.02,307.84"/>
  <path fill="#7B3F00" d="M230.68,308.11 C247.23,303.2 263.54,294.91 279.91,282.94 C293,273.46 303.57,270.88 312.86,274.59 L312.06,276.86 C303.59,273.5 293.78,276 281.37,284.95 C264.73,297.09 248.13,305.49 231.26,310.48 L230.68,308.11"/>
  <path fill="#fcd116" d="M190.22,329.52 L207.24,345.41 L283.78,230.47 C247.29,255.33 210.8,282.44 173.2,314.12 L190.22,329.52 C221.1,294.67 251.97,262.17 283.78,230.47 C252.9,261.24 222.03,293.62 190.22,329.52"/>
  <path fill="#7B3F00" d="M190.22,331.27 L171.34,314.22 C210.02,281.5 248.68,252.69 288.51,225.77 L207.39,347.3 L190.22,331.27 M190.22,327.77 C217.71,296.75 245.19,267.6 273.5,239.06 C241.03,261.58 208.56,285.97 175.1,314.05 L190.22,327.77 M275.17,240.8 C247.71,268.47 220.24,297.46 191.94,329.34 L207.06,343.48 L275.17,240.8"/>
  <path fill="#7B3F00" d="M190.22,329.52 L173.2,314.12 L190.22,329.52 C221.1,294.67 251.97,262.17 283.78,230.47 C247.29,255.33 210.8,282.44 173.2,314.12 L190.22,329.52"/>
  <path fill="#fcd116" d="M225.86,335.24 L243.87,322.25 C280.08,372.1 300.74,343.06 312.46,379.44 C291.43,356.52 289.33,380.29 244.89,362.66 L225.86,335.24"/>
  <path fill="#7B3F00" d="M225.17,334.27 L244.16,320.56 L244.85,321.52 C257.44,338.91 272.08,349.89 289.46,355.31 C296.06,357.39 300.56,359.53 303.35,361.73 C307.65,365.43 310.95,371.01 313.59,379.13 L315.19,384.27 L311.58,380.24 C304.54,372.65 296.9,369.54 287.49,370.51 C273.7,372.08 259.54,369.83 244.42,363.83 L243.32,363.36 L244.23,361.07 L245.33,361.53 C260.06,367.39 273.8,369.58 287.16,368.08 C295.73,367.17 302.84,369.38 309.58,374.98 C307.39,369.83 304.92,366.2 301.89,363.59 C299.35,361.62 295.13,359.64 288.84,357.68 C271.25,352.21 256.38,341.25 243.58,323.93 L226.52,336.26 L225.54,336.98 L224.19,334.99 L225.17,334.27"/>
  <path fill="#7B3F00" d="M225.86,335.24 L231.37,343.14 L231.59,342.79 C254.04,355.72 271.06,358.42 284.43,360.82 C291.14,362.08 296.72,363.27 301.67,365.75 C304.83,367.52 307.51,369.71 309.98,372.87 C297.78,346.73 277.65,368.69 243.87,322.25 L225.86,335.24"/>
  <path fill="#7B3F00" d="M225.1,335.13 L244.01,321.5 L244.31,321.9 C252.67,333.48 261.02,341.91 269.6,347.49 C274.61,350.66 281.09,353.44 289.28,355.98 C294.89,357.73 298.78,359.4 301.2,360.95 C305.03,363.63 307.99,367.36 310.49,372.68 L312.49,377.16 L309.54,373.22 C307.23,370.25 304.66,368.03 301.45,366.26 C298.09,364.58 292.48,362.9 284.36,361.38 L283.41,361.21 C273.98,359.51 266.4,357.86 260.63,356.14 C250.88,353.16 241.31,348.98 231.77,343.53 L231.4,344.18 L225.43,335.6 L225.1,335.13 M231.33,342.13 L231.4,342.02 L231.88,342.3 C241.49,347.85 251.13,352.08 260.96,355.06 C266.68,356.76 274.2,358.41 283.56,360.13 C283.99,360.19 284.31,360.25 284.5,360.3 C292.72,361.83 298.43,363.53 301.89,365.27 C303.93,366.38 305.75,367.67 307.46,369.22 C305.45,366.06 303.28,363.74 300.65,361.89 C298.33,360.4 294.54,358.77 289.02,357.05 C280.72,354.48 274.12,351.67 269.02,348.46 C260.43,342.86 252.09,334.48 243.76,323.03 L226.63,335.36 L231.33,342.13"/>
  <path fill="#7B3F00" d="M231.59,342.79 C246.21,351.21 263.41,357.01 283.52,360.69 C299.53,363.7 309.16,369.8 313.51,378.98 L311.36,379.89 C307.38,371.55 298.34,365.96 283.16,363.1 C262.73,359.37 245.24,353.49 230.35,344.93 L231.59,342.79"/>
  <path fill="#fcd116" d="M190.22,329.52 L190.22,354.16 C233.89,341.48 277.53,333.5 322.52,328.23 C278.86,317.08 235.2,308.58 190.22,304.88 L190.22,329.52 C233.89,324.98 277.53,325.12 322.52,328.23 C278.86,325.21 235.21,324.84 190.22,329.52"/>
  <path fill="#7B3F00" d="M189.02,330.88 L189.02,303.51 C235.29,307.23 281.54,316.23 329.22,328.72 C282.95,333.85 236.69,341.84 189.02,355.78 L189.02,330.88 M191.42,328.16 C230.29,324.2 269.13,323.93 309.18,326.16 C270.31,316.76 231.46,309.62 191.42,306.25 L191.42,328.16 M309.18,328.62 C270.31,326.46 231.47,326.54 191.42,330.63 L191.42,352.54 C230.3,341.34 269.14,333.84 309.18,328.62"/>
  <path fill="#7B3F00" d="M190.22,329.52 L190.22,304.88 L190.22,329.52 C233.89,324.98 277.53,325.12 322.52,328.23 C278.86,317.08 235.2,308.58 190.22,304.88 L190.22,329.52"/>
  <path fill="#fcd116" d="M209.57,359.57 L230.86,362.68 C221.55,424.92 257.27,417.13 240.84,451.46 C240.94,420.23 222.38,437.54 203.67,393.67 L209.57,359.57"/>
  <path fill="#7B3F00" d="M209.83,358.36 L232.24,361.66 L232.02,362.82 C228.75,384.62 231.54,402.81 240.48,418.54 C243.9,424.52 245.76,429.09 246.31,432.55 C246.97,438.13 245.58,444.36 241.94,451.99 L239.57,456.76 L239.64,451.46 C239.63,441.3 236.12,433.89 228.6,428.34 C217.42,420.24 208.87,409.16 202.54,394.25 L202.1,393.13 L204.33,392.01 L204.76,393.13 C210.93,407.66 219.21,418.44 230.02,426.3 C236.88,431.37 240.63,437.79 241.79,446.32 C243.7,441.14 244.37,436.87 243.94,432.94 C243.42,429.8 241.65,425.53 238.4,419.83 C229.34,403.91 226.39,385.58 229.47,363.71 L209.36,360.82 L208.19,360.64 L208.63,358.22 L209.83,358.36"/>
  <path fill="#7B3F00" d="M209.57,359.57 L207.86,369.48 L208.26,369.34 C214.62,394.88 224.98,408.32 233.01,419.16 C237.03,424.56 240.32,429.22 242.26,434.32 C243.43,437.74 243.87,441.08 243.54,445.05 C252.54,417.84 222.18,420.74 230.86,362.68 L209.57,359.57"/>
  <path fill="#7B3F00" d="M209.14,358.97 L231.48,362.21 L231.4,362.74 C229.21,377.21 229.27,389.23 231.51,399.21 C232.94,405 235.68,411.47 239.9,418.89 C242.8,423.98 244.53,427.82 245.25,430.56 C246.22,435.08 245.85,439.73 244.05,445.22 L242.48,449.81 L242.99,445.02 C243.32,441.33 242.92,438 241.75,434.56 C240.44,431.08 237.45,426.09 232.57,419.51 L232.02,418.75 C226.35,411.12 222.09,404.74 219.2,399.52 C214.34,390.62 210.58,380.88 207.86,370.04 L207.17,370.28 L209.06,359.53 L209.14,358.97 M208.55,368.64 L208.66,368.63 L208.81,369.15 C211.5,380.12 215.26,389.95 220.14,398.9 C223.01,404.08 227.25,410.43 232.9,418.04 L233.45,418.81 C238.37,425.46 241.42,430.54 242.78,434.12 C243.53,436.33 243.98,438.48 244.16,440.74 C244.86,437.11 244.86,433.97 244.2,430.84 C243.5,428.21 241.82,424.47 238.98,419.48 C234.7,411.97 231.9,405.4 230.46,399.51 C228.18,389.51 228.09,377.53 230.24,363.16 L210.01,360.21 L208.55,368.64"/>
  <path fill="#7B3F00" d="M208.26,369.34 C212.4,386 220.4,402.09 232.46,418.4 C242.03,431.44 245.05,442.28 241.97,451.84 L239.71,451.08 C242.49,442.36 239.59,432.31 230.53,419.97 C218.27,403.42 210.14,387.08 205.93,370.11 L208.26,369.34"/>
  <path fill="#fcd116" d="M190.22,329.52 L173.2,348.99 C209.69,369.99 246.17,394.44 283.78,422.14 L207.24,310.54 L190.22,329.52 C221.09,357.92 251.96,388.67 283.78,422.14 C252.9,389.66 222.03,358.78 190.22,329.52"/>
  <path fill="#7B3F00" d="M188.51,329.7 L207.39,308.62 C234.16,346.18 260.93,385.41 288.51,427.14 C249.85,398.43 211.18,372.19 171.34,349.39 L188.51,329.7 M191.94,329.34 C219.4,354.7 246.87,381.91 275.17,411.42 L207.06,312.49 L191.94,329.34 M273.5,413.1 C246.01,384.54 218.53,357.31 190.22,331.27 L175.1,348.55 C207.57,367.35 240.03,388.86 273.5,413.1"/>
  <path fill="#7B3F00" d="M190.22,329.52 L207.24,310.54 L190.22,329.52 C221.09,357.92 251.96,388.67 283.78,422.14 L207.24,310.54 L190.22,329.52"/>
  <path fill="#fcd116" d="M234.32,326.45 C234.04,351.63 214.76,371.85 190.22,374.69 C165.66,377 146.4,360.96 146.12,335.85 C146.4,310.65 165.69,287.23 190.22,284.35 C214.79,282.08 234.04,301.33 234.32,326.45"/>
  <path fill="#7B3F00" d="M235.52,326.41 C235.4,339.37 231.1,350.1 222.26,359.81 C213.23,369.36 202.86,374.48 190.22,375.93 C177.56,377.14 167.22,374.21 158.19,366.58 C149.33,358.77 145.04,349.05 144.92,336.07 C145.04,323.14 149.34,311.62 158.19,300.95 C167.22,290.43 177.58,284.58 190.22,283.11 C202.89,281.92 213.22,285.59 222.26,294.18 C231.11,302.95 235.4,313.46 235.52,326.41 M233.12,326.49 C233,314.22 228.94,304.3 220.54,296.02 C211.99,287.91 202.24,284.46 190.22,285.58 C178.24,286.97 168.44,292.49 159.9,302.43 C151.52,312.5 147.45,323.37 147.33,335.63 C147.45,347.93 151.5,357.14 159.9,364.56 C168.45,371.81 178.21,374.6 190.22,373.46 C202.2,372.09 212.01,367.22 220.54,358.15 C228.93,348.94 233,338.78 233.12,326.49"/>
  <path fill="#7B3F00" d="M222.69,308.9 C219.72,312.03 218.41,306.97 208.26,307.36 C198.17,308.56 196.75,314.07 195.03,313.43 C194.06,311.79 203.01,304.51 206.66,303.38 C210.17,302.9 218.72,305.38 222.69,308.9 M211.07,313.32 C213.6,316.14 211.64,320.53 208.66,321.3 C205.52,321.12 201.1,317.4 203.05,313.53 L211.07,313.32"/>
  <path fill="#7B3F00" d="M197.84,318.09 C198.54,313.08 202.03,312.01 208.66,311.44 C215.1,311.32 217.86,315.5 220.29,316.83 C217.49,316.69 215.08,313.33 208.66,313.49 C202.25,313.99 202.25,314 197.84,318.5 L197.84,318.09 M199.04,319.21 C200.89,317.07 202.47,320.87 207.06,321.01 C211.54,320.55 213.77,319.3 216.68,317.05 C219.4,315.09 212.68,321.7 208.26,322.56 C203.43,322.7 198.4,321.18 199.04,319.21"/>
  <path fill="#7B3F00" d="M212.67,320.6 C217.63,316.97 214.86,313.81 212.67,312.79 C213.71,313.88 216.35,317.05 212.67,320.6 M190.22,347.18 C192.62,346.85 193.44,346.1 196.64,345.72 C199.94,345.66 207.33,348.92 211.87,347.35 C202.59,351.67 206.3,348.92 190.22,350.46 L188.22,350.68 L190.22,347.18 M213.47,350.93 C211.87,348.17 212.28,348.95 209.06,344.67 C212.3,346.99 212.99,348.03 213.47,350.93 M190.22,357.03 C200.25,355.9 198.61,354.16 211.87,347.35 C202.25,349.39 200.23,352.57 190.22,353.75 L188.22,353.96 L190.22,357.03 M190.22,341.84 C192.99,341.35 193.86,339.61 197.04,339.11 C200.41,338.91 204.44,339.73 206.66,341.16 C207.09,341.18 205.42,338.3 202.25,337.82 C199.18,337.13 200.1,332.79 196.64,331.76 C196.76,333.38 197.71,332.9 198.24,335.3 C197.86,337.39 194.99,337.63 193.83,335.72 C194.38,338.97 192.42,339.13 190.22,339.38 L190.22,341.84"/>
  <path fill="#7B3F00" d="M157.75,315.77 C160.72,318.25 162.06,312.91 172.18,311.16 C182.33,310.21 183.65,315.47 185.41,314.44 C186.4,312.56 177.44,307.19 173.79,306.83 C170.33,307.09 161.71,311.42 157.75,315.77 M169.38,317.7 C166.85,321.06 168.78,325.03 171.78,325.17 C174.91,324.33 179.34,319.66 177.39,316.22 L169.38,317.7"/>
  <path fill="#7B3F00" d="M182.61,319.69 C181.9,314.8 178.43,314.49 171.78,315.32 C165.4,316.55 162.55,321.35 160.16,323.19 C162.9,322.46 165.43,318.56 171.78,317.37 C178.2,316.51 178.19,316.53 182.61,320.1 L182.61,319.69 M181.4,321.06 C179.56,319.31 177.95,323.45 173.38,324.55 C168.88,325.04 166.68,324.27 163.76,322.63 C161.09,321.28 167.67,326.43 172.18,326.35 C177.02,325.47 182.03,322.86 181.4,321.06"/>
  <path fill="#7B3F00" d="M167.77,325.32 C162.8,322.74 165.59,318.99 167.77,317.52 C166.74,318.83 164.09,322.55 167.77,325.32 M190.22,347.18 C187.81,347.35 187.02,346.78 183.81,347.06 C180.55,347.7 173.05,352.51 168.57,351.9 C177.85,354.26 174.14,352.29 190.22,350.46 L192.23,350.26 L190.22,347.18 M166.97,355.83 C168.58,352.73 168.16,353.59 171.38,348.64 C168.16,351.63 167.45,352.84 166.97,355.83 M190.22,357.03 C180.16,358.01 181.85,355.92 168.57,351.9 C178.21,351.91 180.18,354.67 190.22,353.75 L192.23,353.54 L190.22,357.03 M190.22,341.84 C187.41,341.93 186.62,340.38 183.41,340.54 C180.07,341.04 175.99,342.72 173.79,344.61 C173.29,344.74 175.08,341.47 178.2,340.35 C181.17,339.05 180.43,334.83 183.81,333.1 C183.68,334.73 182.73,334.49 182.2,336.99 C182.59,339.03 185.47,338.6 186.61,336.48 C186.06,339.86 188.03,339.59 190.22,339.38 L190.22,341.84"/>
  <path fill="#7B3F00" d="M190.22,360.73 C188.22,361.04 182.99,362.59 190.22,361.96 C197.42,361.08 192.24,360.62 190.22,360.73"/>
  <path fill="#1A1A1A" opacity="0.2" d="M8,195.25 C178.83,110.03 349.03,140.83 521.26,167.28 C676.47,191.12 833.42,211.85 992,132.75 L992,804.75 C821.17,889.97 650.97,859.17 478.74,832.72 C323.53,808.88 166.58,788.15 8,867.25 L8,195.25 M39.25,214.64 L39.25,819.14 C345.81,690.88 650.43,915.18 960.75,785.36 L960.75,180.86 C654.19,309.12 349.57,84.82 39.25,214.64"/>
</svg>
