<svg xmlns="http://www.w3.org/2000/svg" viewBox="0 0 1000 1000">
  <defs/>
  <path fill="#fff" d="M8,195.25 C178.83,110.03 349.03,140.83 521.26,167.28 C676.47,191.12 833.42,211.85 992,132.75 L992,804.75 C821.17,889.97 650.97,859.17 478.74,832.72 C323.53,808.88 166.58,788.15 8,867.25 L8,195.25"/>
  <path fill="#d42e12" d="M249.43,280.58 L249.43,207.41 L272.71,207.41 L287.95,263.47 L302.97,208.41 L326.36,209.85 L326.36,283.02 L311.6,282.04 L311.6,223.03 L296.06,281.26 L279.94,280.72 L264.19,221.49 L264.19,280.5 L249.43,280.58 M370.87,228.62 L360.26,258.64 L381.52,260.97 L370.87,228.62 M361.72,212.99 L379.91,214.98 L407.51,291.57 L390.98,289.47 L385.79,273.79 L356.1,270.54 L351.06,285.1 L334.47,283.64 L361.72,212.99 M449.62,297.5 L433.87,295.2 L433.87,267.93 L406.06,218.22 L425.35,220.83 L441.72,254.71 L456.85,225.41 L474.84,228.13 L449.62,270.23 L449.62,297.5 M494.44,267.81 C494.53,275.98 496.34,282.24 500.05,287.45 C503.99,292.5 508.9,295.35 515.75,296.54 C522.72,297.48 527.61,296.16 531.61,292.31 C535.37,288.24 537.18,282.57 537.27,274.39 C537.18,266.22 535.35,259.99 531.61,254.81 C527.63,249.73 522.67,246.87 515.75,245.67 C508.85,244.74 504.01,246.05 500.05,249.9 C496.33,253.95 494.53,259.59 494.44,267.81 M478.37,265.33 C478.48,253.36 481.73,244.85 488.46,238.77 C495.41,232.88 504.15,230.89 515.75,232.56 C527.3,234.46 536.11,239.17 543.04,247.15 C549.82,255.3 553.12,264.85 553.23,276.78 C553.12,288.71 549.84,297.24 543.04,303.38 C536.09,309.3 527.35,311.32 515.75,309.65 C504.2,307.76 495.39,303.01 488.46,295 C481.75,286.83 478.48,277.25 478.37,265.33 M581.57,317.32 L581.57,257.22 L558.85,254 L558.85,240.94 L619.88,249.02 L619.88,262.08 L597.32,259.31 L597.32,319.41 L581.57,317.32 M644.78,324.86 L644.78,264.75 L622.06,262.33 L622.06,249.27 C642.2,251.57 662.34,253.48 683.09,254.82 L683.09,267.89 L660.53,266.2 L660.53,326.3 L644.78,324.86 M692.14,328.53 L692.14,255.36 C710.48,256.36 728.82,256.85 747.71,256.65 L747.71,269.37 C734.5,269.51 721.29,269.31 707.68,268.8 L707.68,284.4 C719.76,284.85 731.84,285.07 744.28,285 L744.28,297.52 C732.2,297.59 720.13,297.38 707.68,296.92 L707.68,315.74 C721.51,316.26 735.34,316.47 749.58,316.29 L749.58,329.8 C730.63,330.04 711.67,329.59 692.14,328.53"/>
  <path fill="#dfdfdf" d="M297.39,334.76 C290.68,335.5 285.78,337.16 279,341.12 C276.76,342.44 274.91,343.22 274.46,343.19 C274.08,342.94 273.7,341.94 273.47,340.48 C273.26,339.15 272.84,337.73 272.53,337.25 C271.48,335.99 270.79,336.9 268.97,341.48 C268.16,343.64 267.26,345.65 267.05,345.97 C266.09,346.97 265.19,346.65 263.72,344.9 C262.17,343.09 260.52,342.65 259.83,343.88 C259.73,344.31 259.79,345.77 260.06,347.34 C260.75,351.93 259.68,352.44 255.7,349.52 C252.27,346.88 251.21,346.47 249.84,347.08 C248.55,347.94 248.58,348.74 250.26,352.79 C251.65,356.31 251.92,358.62 250.4,356.73 C249.96,356.22 248.32,355.08 246.51,354.2 C244.73,353.32 241.97,351.89 240.32,350.98 C238.67,350.12 236.43,349.1 235.3,348.69 C233.02,348.1 222.3,347.05 221.14,347.26 C221.04,347.49 222.29,348.48 224.52,350.01 C229.33,353.27 237.69,360.98 238.07,362.15 C238.01,362.78 237.6,362.86 234.32,362.7 C230.05,362.48 230.15,362.34 231.08,366.86 C231.41,368.49 231.42,369.42 231.18,369.79 C230.8,370.04 229.52,370.04 227.24,369.67 C225.31,369.38 223.63,369.15 223.44,369.14 C222.83,369.54 223.06,372.66 224.05,376.12 C224.99,379.13 224.98,379.35 224.24,379.95 C223.19,380.66 222.32,380.43 215.1,377.5 C210.83,375.77 209.83,375.55 207.5,375.78 C206.01,375.97 204.36,376.44 203.61,376.86 L202.29,377.65 L205.34,380.76 C208.98,384.61 212.46,389.59 213.17,391.75 C213.99,395.39 210.89,396 199.06,395.56 C192.56,395.33 188.52,395.96 186.26,397.28 C184.51,398.58 179.33,404.28 178.99,405.1 C179.18,405.25 181.57,405.33 185.04,405.1 C192.11,404.66 196.98,405.43 201.26,407.37 C205.2,409.3 205.11,409.67 200.84,410.1 C197.2,410.48 195.33,411.2 193.34,412.91 C192.45,413.73 192.45,413.76 193.34,414.69 C194.85,416.07 197.22,416.95 200.56,417.28 C202.24,417.43 203.55,417.63 203.7,417.73 C203.66,417.81 202.43,418.24 200.47,418.73 C195.55,420.04 188.83,422.78 185.41,424.85 C182.41,426.76 182.3,426.92 181.66,431.48 L181.38,433.34 L182.88,432.83 C185.4,432.08 197.18,430.61 199.29,430.74 C202.28,431.24 201.46,431.82 196.81,432.89 C190.96,434.2 187.78,435.26 186.16,436.2 L184.95,437.01 L187.48,437.97 C188.92,438.5 192.1,439.17 194.7,439.48 C205.69,440.81 207.01,441.87 197.84,442.31 C190.07,442.69 187.59,443.25 187.52,444.45 C188.11,445.79 192.16,447.44 197.23,448.37 C200.16,448.96 199.08,449.47 194.23,450.19 C189.71,450.9 186.82,452.28 185.23,454.31 C184.3,456.32 184.86,461.56 186.07,462.77 C186.39,462.85 186.87,462.64 187.34,462.2 C187.8,461.74 189.67,460.47 191.6,459.29 C195.22,457.16 195.25,457.15 200.42,457.49 C202.73,457.81 204.39,459.26 206.19,462.68 C207.02,464.25 208.64,466.69 209.84,468.17 L212.94,471.89 C213.83,472.94 213.83,472.97 212.84,475.06 C212.33,476.25 211.78,477.59 211.63,478.03 C210.31,480.95 196.8,481.1 185.13,478.58 C180.6,477.48 174.05,475 170.97,473.2 L168.68,471.8 L168.68,473.67 C168.87,478.48 172.15,485.33 175.71,488.37 L177.96,490.15 L175.66,494.96 C172.81,501.12 172.67,502.95 174.82,505.11 C175.65,505.94 176.11,506.69 175.99,507.17 C175.78,507.57 174.65,508.64 173.27,509.64 C169.05,512.65 169.24,512.42 170.97,513.07 C171.87,513.39 174.07,513.58 175.99,513.5 C178.13,513.45 179.59,513.61 179.98,513.92 C180.85,515.53 178.88,518.37 174.49,521.82 C173.83,522.38 174.27,522.45 177.35,522.55 C179.42,522.57 182.41,522.49 184.01,522.37 L186.91,522.14 L185.93,524.07 C184.66,526.39 182.56,528.87 180.72,530.35 L179.41,531.37 L180.87,531.39 C181.68,531.4 183.28,531.14 184.52,530.81 C188.23,529.86 192.1,529.63 193.25,530.07 C194.55,531.3 193.56,533.41 189.82,537.63 L186.63,541.14 L188.7,541.25 C192.71,541.31 197.35,540.26 200.14,538.69 C201.55,537.88 202.62,537.35 202.76,537.36 C203.09,538.43 200.95,544.78 199.25,547.27 C198.86,547.78 198.71,548.24 198.87,548.51 C199.14,548.6 201.53,548.59 204.45,548.37 C208.57,548.01 210.02,547.71 211.3,546.98 C212.19,546.48 212.98,546.07 213.08,546.04 C213.1,546.08 213.21,547.01 213.22,548.29 C213.18,549.96 212.88,550.9 212,552.21 L210.83,553.88 L212.14,553.79 C215.31,553.37 222.22,550.66 224.99,548.65 C226.69,547.38 226.8,547.41 226.82,549.19 C226.67,551.31 225.72,554.05 224.66,555.49 C223.7,556.71 223.89,556.67 228.51,555.26 C232.67,553.96 236.21,552.37 238.16,551.01 C239.92,549.67 240.06,549.78 239.71,551.82 C239.21,554.31 238.42,555.54 236.62,556.67 C235.78,557.13 235.32,557.54 235.4,557.68 C236.03,557.82 245.41,556.21 247.92,555.38 C249.06,554.95 250.32,554.23 250.82,553.8 C251.63,553.07 251.66,553.07 251.67,554.22 C251.62,554.93 251.15,556.4 250.5,557.7 C249.84,558.97 249.36,560.06 249.32,560.21 C249.57,560.47 251.7,559.8 254.9,558.37 C256.59,557.6 258.44,557.01 259.17,556.96 C260.86,557.11 262.5,558.38 264.09,560.8 C264.96,562.11 266.08,563.02 268.45,564.29 L271.74,566.01 L271.92,564.05 C272.32,562.14 279.98,541.79 280.65,540.78 C281.14,540.75 290.19,547.18 299.49,554.65 C304.97,559.18 317.48,572.63 321.3,578.1 C331.46,593.13 334.72,603.06 334.85,618.98 C334.82,627.74 334.27,632.31 332.32,640.58 C327.86,658.32 318,674.35 306.57,682.58 C298.91,687.87 290.34,689.28 273.71,688.53 C253.59,687.5 241.45,683.72 232.02,674.81 C225.17,668.02 220.79,659.5 218.8,648.95 C218.55,647.22 218.31,643.03 218.28,639.61 C218.38,627.77 220.88,619.77 226.49,613.13 C231.51,607.55 236.48,604.57 243.23,603.22 C249.77,602.2 256.52,604.17 261.23,608.35 C264.32,611.41 264.43,612.57 262.03,617.67 C259.87,622.24 259.73,623.18 261.05,624.68 C262.53,625.92 264.74,625.9 267.94,624.47 C272.34,622.18 274.32,617.66 274.08,610.43 C273.55,604.01 270.92,600.18 264.38,596.59 C258.05,593.38 254.94,592.74 245.1,592.95 C236.99,593.14 236.15,593.3 232.21,594.68 C224.27,597.56 219.68,600.98 215.85,606.52 C207.43,619.52 202.91,640.42 205.48,653.95 C207.71,664.18 213.22,674.73 221.05,683.64 C234.49,698.59 251.65,704.93 276.99,705.54 C295.76,705.86 308.73,703.02 322,695.2 C336.66,686.38 345.98,674.9 354.12,655.28 C356.26,649.88 357.08,646.57 357.5,641.78 C357.67,639.37 358.05,637.65 358.43,637.12 C360.23,634.76 360.86,629.17 359.79,624.67 L359.09,622.3 L360.54,621.15 C363.03,618.67 362.8,614.3 359.93,610.23 L358.57,608.51 L360.12,607.08 C362.1,604.94 362.94,601.45 362.65,595.96 C362.27,591.96 360.81,587.47 359.93,586.93 C359.03,586.7 359.58,585.71 360.97,584.93 C363.12,583.67 364.08,581.93 364.2,578.92 C364.06,572.79 361.82,564.35 360.12,563.08 C359.43,562.6 359.27,561.55 359.93,561.48 C361.06,561.15 362.32,557.54 362.7,553.16 C362.89,547.89 361.96,544.22 359.93,541.69 L358.57,540.11 L360.03,537.18 C361.29,534.63 361.45,533.95 361.25,531.69 C360.5,526.34 355.29,516.87 351.12,513.39 C349.6,512.2 349.25,511.66 349.2,510.52 C349.03,507.19 346.65,502.47 342.3,497.17 C337.8,491.82 336.43,489.58 335.41,486.02 C334.71,483.74 334.05,482.6 332.08,480.38 C329.63,477.83 324.97,474.65 322,473.53 C321.37,473.3 321.1,472.88 321.06,472.07 C320.74,468.77 317.43,463.93 314.03,461.87 C312.37,460.97 312.18,460.72 312.15,459.3 C311.99,457.24 310.63,455.41 306.81,452.42 C303.13,449.82 297.69,448.06 288.95,446.93 C270.6,444.7 262.76,441.76 254.01,433.06 C248.81,427.74 246.86,424.37 244.92,417.35 C243.42,411.45 243.35,406.27 244.68,401.89 C245.83,398.68 248.83,393.14 249.37,392.77 C249.49,392.9 249.29,394.25 248.76,396.24 C247.61,400.97 247.5,408.16 248.53,411.95 C250.24,417.11 253.06,420.58 257.39,423 C260.34,424.5 261.67,424.83 266.67,425.37 C271.95,425.97 275.13,427.05 276.99,428.63 C279.81,431.02 284.94,431.44 290.63,429.79 C292.07,429.34 294.64,428.87 296.49,428.77 L299.87,428.59 L304.23,431.92 C308.74,435.26 328.2,447.76 331.61,449.5 C338.15,452.43 344.55,451.37 347.84,446.8 C350.1,442.99 348.14,439.4 337.9,428.97 C329.63,420.63 327.76,418.02 326.6,413.48 C326.08,411.57 324.6,407.41 323.17,404.21 C319.76,396.35 319.73,395.22 322.94,391.89 C324.21,390.54 325.55,388.77 325.99,387.79 C326.7,385.84 326.94,382.29 326.55,381.44 C326.12,381.29 323.26,381.63 321.49,382.14 C320.96,382.21 320.89,381.63 321.02,378.26 C321.08,375.64 320.89,373.64 320.59,372.66 L319.99,371.18 L318.3,372.75 C316.45,374.38 315.43,374.67 314.73,373.77 C314.61,373.5 314.28,372.12 314.03,370.65 C313.39,367.23 311.83,363.29 311.22,363.33 C311.04,363.54 310.62,364.48 310.28,365.44 C309.96,366.48 309.59,367.14 309.34,367.21 C309.16,367.1 308.85,366.1 308.64,364.62 C308.08,360.39 307.54,358.81 306.29,357.44 C305.23,356.37 305.01,356.32 304.65,356.87 C304.43,357.27 304.21,358.07 304.18,358.77 C304.07,360.95 302.85,364.99 301.14,368.61 C297.58,375.32 294.73,374.56 288.01,365.43 C284.24,360.1 283.78,358.74 284.72,356.35 C287.49,350.96 297.45,344.32 307.42,341.55 C309.32,341.04 310.63,340.52 310.75,340.34 C310.53,339.34 308.51,337.3 306.34,336.01 C303.88,334.83 301.37,334.46 297.39,334.76"/>
  <path fill="#000" d="M200.52,431.95 C203,429.7 189.39,431.59 185.99,432.01 C183.86,432.93 182.09,433.88 181.39,433.8 C180.86,433.35 181.23,431.32 181.91,427.05 C184.26,424.89 186.51,423.62 189.05,422.56 C191.44,421.45 193.54,420.64 196.27,419.5 C198.89,418.96 199.72,418.95 203.45,417.84 C198.96,417.55 196.15,418.2 191.65,414.08 C193.38,412.75 194.13,411.5 196.2,410.67 C198.32,410.03 199.05,410.01 200.78,409.86 C204.14,409.63 205.03,410.11 202.85,408.67 C200.52,407.24 196.46,405.82 191.63,405.32 C187.42,405.09 181.11,405.71 178.03,405.99 C179.57,403.02 181.97,400.97 183.64,399.03 C186.49,395.53 192.01,394.9 201.15,395.55 C215.28,396.03 216.18,394.53 207.21,383.52 L201.53,377.58 L205.13,375.81 L209.07,375.39 C212.81,376.13 217.6,378.59 220.49,379.68 C225.15,381.3 224.85,379.71 223.41,375.8 C222.34,372.59 223.02,372.6 222.65,369 C225.41,369.08 230.45,370.68 231.05,369.5 C230.97,367.73 230.31,366.56 229.8,362.51 C231.84,362.47 236.33,362.71 237.35,362.56 C238.12,362.04 236.14,360.21 233.53,357.89 L227.29,352.42 L218.46,346.79 L231.56,347.82 C235.67,347.92 241.88,351.85 245.38,353.7 C247.12,354.54 248.61,354.89 249.71,355.91 C251.8,357.03 249.46,359 250.92,356.97 C251.29,355.27 248.22,350.81 248.34,348.28 C251.78,343.33 257.06,352.05 259.01,351.17 C261.26,350.21 258.15,345.11 259.82,343.21 C263.05,342.01 264.36,347.06 266.19,346.6 C267.58,345.14 269.16,337.84 271.44,336.4 C274.08,336.37 272.88,343.78 274.69,343.47 C278.57,340.82 286.5,336.06 293.25,335.17 C296.64,334.79 300.42,334.16 303.77,334.8 C307.23,335.79 309.9,337.96 311.07,340.96 C306.63,342.02 305.94,342.13 301.32,343.95 C296.66,345.64 290.76,349.69 287.75,352.57 C282.85,358.08 282.86,358.58 288.33,365.9 C295.41,375.86 298.56,375.48 302.47,364.41 C303.93,360.01 303.71,357.27 304.32,355.74 C304.8,356.09 306.25,356.88 307.28,358.42 C307.99,359.97 308.79,365.6 308.85,367.26 C309.52,366.73 310.15,365.06 310.84,361.9 C312.57,365.44 313.06,366.59 313.65,368.25 C314.15,370.23 313.85,373.77 315.46,374.31 C316.48,374.18 317.66,372.56 319.85,370.65 C321.59,374.53 321.41,378.63 320.7,382.12 C322.17,381.73 325.12,380.97 326.58,380.88 C326.99,382.74 326.97,384.78 326.65,386.42 C325.61,388.75 325.21,390.5 322.97,392.25 C319.53,395.11 319.52,396.62 322.97,403.78 C325.26,408.48 326.88,413.46 327.01,415.6 C327.27,417.49 332.1,423.49 338.84,429.85 C347.01,437.82 349.62,442.19 348.65,445.5 C345.41,452.33 337.14,453.5 328.74,448.55 L309.98,436.66 C305.54,433.84 302.53,431.05 299.83,429.13 C295.36,428.9 292.2,429.21 288.33,430.94 C282.32,431.57 278.23,430.91 276.78,429.16 C275.31,427.37 271.24,425.94 266.68,425.76 C254.95,425.43 247.82,418.23 247.12,406.59 C247.01,401.59 247.62,398.5 249.22,392.83 C242.88,403.36 242.52,407.93 244.76,417.07 C247.75,430.01 260.16,445.1 288.62,446.63 C293.96,447.04 298.42,448.66 303.48,449.99 C307.04,452.31 313.11,456.05 312.2,460.88 C317.55,462.95 320.8,468.19 321.1,473 C333.97,478.18 335.58,485.53 335.67,487.24 C335.89,488.83 338.78,493.23 342.88,497.61 C346.95,502.07 349.41,508.07 349.1,511.66 C353.52,514.6 355.18,517.98 357.9,522.09 C360.35,527.34 363.81,533.2 358.38,540.08 C364.26,543.6 364,559.45 359.32,562.12 C362.72,565.17 363.52,570.82 364.29,579.22 C364.22,582.13 363.49,584.09 359.21,586.06 C360.35,586.88 361.18,588.39 361.86,590.62 C362.45,592.82 362.78,595.39 362.81,597.98 C362.77,600.57 362.42,602.98 361.74,604.92 C360.91,606.88 359.95,607.97 358.34,608.26 C363.57,612.84 363.52,621.13 358.94,622.2 C361.41,627.67 360.67,636.08 357.44,638.08 C357.97,647.86 354.49,654.21 352.44,659.19 C348.42,669.04 343.28,677.1 336.76,683.9 C330.15,690.62 322.42,695.83 313.15,700 C292.91,708.64 258.64,707.66 238.97,698.09 C221.56,689.19 207.71,670.9 204.62,651.77 C202.2,634.56 210.1,609.35 220.5,600.42 C237.53,587.09 268.38,590.77 273.61,606.21 C275.76,614.27 273.09,622.65 267.55,625.06 C260.16,627.42 257.63,624.37 261.48,617.64 C264.33,612.51 264.09,611.25 259.46,607.29 C245.19,597.15 225.25,606.72 219.92,625.58 C214,649.94 223.34,672.43 242.72,682.02 C259,689.72 291.38,690.93 303.05,684.37 C325.6,670.67 339.55,633.4 332.78,602.91 C328.84,586.26 313.5,565.17 293.24,550.28 L280.54,540.71 L275.92,552.73 C273.39,559.11 271.47,562.48 271.88,566.57 C268.06,564.26 266.86,564.5 264.19,562.08 C262.85,559.2 261.08,556.75 257.73,557.33 C257,557.63 252.62,560.04 248.28,560.89 C249.92,557.29 251.14,557.14 251.12,553.57 C248.53,556.55 242.28,557.12 233.42,558.38 C240.11,554.07 239.02,553.52 239.43,550.08 C236.62,553.11 230.48,555.18 222.85,557.03 C226.62,552.59 226.11,551.53 226.43,547.67 C222.32,551.61 213.59,554.24 209.93,554.41 C212.95,550.59 212.97,550.67 212.93,546.22 C209.31,549.05 203.51,549.23 197.74,548.76 C201.12,544.5 202.16,540.56 202.43,537.25 C197.61,541.8 190.71,541.73 185.65,541.46 C189.47,537.57 191.65,535.4 192.92,533.14 C194.18,530.2 193.45,529.57 188.75,529.97 C185.53,530.5 183.44,532.39 178.69,531.38 C185.26,527.42 187.55,519.11 188.86,518.38 C195.03,517.78 180.31,529.95 193.41,526.71 C196.67,525.93 198.13,525.84 200.55,525.76 C198.84,528.44 198.58,528.59 197.12,530.61 C195.55,533.38 195.03,536.24 191.3,538.94 C194.69,538.64 197.09,538.57 199.43,536.72 C201.57,534.72 201.66,534.07 206.2,530.29 C206.78,533.79 206.54,534.49 206.18,536.88 C205.53,540.97 204.86,542.1 203.64,545.41 C208.82,546 211.4,544.46 212.54,542.11 C213.85,540.48 215.75,537.24 218.24,536.11 C219.16,539.25 218.28,539.41 217.79,542.14 C216.75,545.26 216.4,547.41 215.51,550.33 C220.61,548.45 223.53,546.53 226.85,542.43 C232.34,537.45 232.32,537.46 230.6,543.74 C229.91,547.93 230.01,548.81 228.59,552.47 C233.59,551.25 237.74,548.96 240.41,544.88 C243.34,540.39 243.55,540.64 242.43,546.31 C242.34,550.1 242.83,550.67 242,554.37 C246.53,553.19 249.47,551.51 251.96,547.61 C254.89,543.17 255.1,543.43 253.98,549.07 C253.39,552.68 254.44,553.28 252.54,557.07 C257.56,554.88 257.69,555.37 259.46,552.59 C260.88,550.49 262.37,553.16 264.83,557.83 C266.84,561.22 268.13,561.48 269.63,561.69 C270.05,559.1 270.98,557.39 273.32,551.8 C275.94,545.2 277.47,540.18 277.36,539.46 L261.48,530.71 C252.9,526.39 246.54,522.07 246.19,520.21 C246.03,518.64 244.86,517.69 242.72,517.62 C237.76,517.27 226.46,506.67 225.98,501.96 C225.79,499.77 223.42,495.17 220.21,491.33 C215.76,485.69 211.06,483.88 197.98,483.52 C188.76,482.66 181.16,481.1 176.34,479.1 C173.98,478.05 173.6,477.18 171.8,476.62 C171.83,478.41 172.78,482.52 176.05,485.64 C178.01,487.39 179.79,487.72 181.55,488.56 C180.03,490.5 178.76,493.68 177.49,496.1 C174.62,501.35 174.61,502.5 178.65,503.64 C182.4,504.76 182.38,505.46 179.22,508.01 C177.89,509.16 176,510.2 174.6,511.25 C176.8,511.48 178.36,511.39 182.51,509.87 C187.78,506.12 188.04,506.9 185.86,510.48 C184.05,513.59 182.69,516.74 180.1,519.38 C183.18,519.11 184.53,518.47 187.3,517.12 C190.33,515.58 192.42,514.57 190.65,519.37 C188.62,522.68 189.9,517.8 188.02,522.16 C184.85,523.01 178.01,523.13 172.82,522.6 C177.44,519.27 179.01,517.23 179.69,515.77 C180.3,513 178.25,513.44 175.76,513.77 C174.55,513.95 171.66,514.59 168.91,512.28 C171.07,510.83 173.99,509.27 176.04,506.67 C170.37,503.52 173.37,498.53 174.94,495.5 C176.04,493.33 176.21,492.29 177.5,490.01 C175.56,489.79 173.2,487.1 171.72,484.74 C169,479.95 167.89,475.6 168.18,471.32 C172.12,473.85 173.61,474.63 176.05,475.58 C180.26,477.52 189,479.64 196.9,480.19 C205.07,480.62 211.11,480.06 211.55,477.09 C211.87,474.1 214.41,474.23 212.42,471.96 C208.18,467.73 205.97,464.09 204.56,460.23 C201.85,457.45 199.14,457.42 194.82,457.76 C192.49,459.16 188.57,460.77 186.36,463.82 C184.52,462.64 183.67,457.76 184.48,454.46 C185.26,453.13 189.43,450.62 192.36,450.01 C195.1,449.72 196.43,450.18 198.86,449.04 C196.05,448.52 194.57,448.6 191.63,447.48 C188.84,446.39 186.8,445.95 186.87,444.2 C188.03,442.18 201.06,442.07 203.63,441.99 C205.21,441.67 200.56,440.42 196.97,440.16 C194.56,439.64 189.63,440.16 184.27,436.99 C188.23,434.18 190.07,434.74 193.31,433.36 L200.52,431.95 M205.21,432.78 C203.18,435.15 190.84,435.83 194,436.64 C194.23,436.66 204.41,437.86 208.3,440.55 C208.54,443.38 205.46,444.67 205.18,444.79 L191.55,444.55 C192.23,446.22 203.91,446.14 204.34,448.88 C204.27,449.96 205.02,451.31 200.62,451.36 C196.47,451.87 191.72,452.11 188.57,453.9 C186.4,455.49 186.17,457.58 186.8,459.83 C188.87,457.99 191.91,456.3 193.67,455.5 C197.46,454.74 199.94,455.19 202.54,456.06 C205.12,457.03 206.64,457.97 208.95,462.2 C210.63,466.03 214.89,469.83 219.34,471.57 C224.1,472.9 231.1,476.49 234.64,480.9 C238.34,485.85 241.05,489.64 249.85,494.82 C258.1,502.75 251.31,500.15 254.74,500.49 C264.8,502.09 269.96,504.46 271.88,506.84 C274.07,509.23 278.42,511.83 282.27,512.96 C286.51,514.44 289.16,516.33 289.48,517.91 C289.7,519.78 291.35,520.81 294.1,521.04 C300.75,521.81 328.28,553 333.93,566.05 C343.73,589.65 345.45,598.06 345.48,620.25 C345.15,635.08 343.39,648.07 340.86,654.14 C334.8,667.68 310.68,693.28 303.83,693.41 C302.66,693.69 303.13,693.59 301.74,693.75 C301.07,694.68 300.76,694.77 298.48,695.74 C295.11,697.22 291.07,697.87 285.88,697.91 C280.75,697.87 274.72,697.23 267.74,696.18 C260.77,695.1 253.96,693.65 248.85,692.03 C243.71,690.34 241.98,689.49 240.41,687.96 C239.89,687.46 238.93,686.93 239,684.82 C237.73,685.77 235.73,685.65 232.61,683.09 C230.06,680.92 228.22,680.17 229.16,677.82 C226.01,677.48 225.54,676.39 223.04,672.88 C221.31,670.52 219.8,668.79 220.37,665.34 C218.14,665.57 217.24,663.12 215.92,660.04 C214.69,657.29 213.14,654.52 215.31,652.77 C212.6,652.65 213.02,649.82 212.74,647.16 C212.35,644.5 211.82,641.47 214.49,640.26 C211.78,639.2 212.76,636.68 213.29,633.7 C213.92,629.72 214.24,628.01 216.59,627.15 C214.64,625.98 215.68,622.94 217.16,617.74 C218.53,613.68 220.63,612.39 223.77,612.7 C221.47,610.22 225.7,607.1 227.2,605.8 C230.58,602.98 233.39,602.07 234.44,603.61 C234.85,600.39 244.5,599.88 249.19,600.24 C253.43,600.78 256.89,602.55 260.91,605.81 C266.98,610.95 267.22,612.25 264.08,617.65 C260.53,624.58 263.03,625.77 268.7,620.34 C274.35,614.21 272.78,607.34 264.37,600.2 C257.92,594.89 253.77,593.99 242.72,595.09 C223.29,597.78 215.72,604.53 210.11,623.26 C201.56,654.79 213.27,682.89 239.26,695.42 C250.92,700.71 257.65,701.97 276.49,702.36 C304.1,702.52 320.71,697.21 336.82,680.41 C346.74,669.85 357.31,643.22 354.14,637.13 C348.71,633.97 353.99,634.66 355.87,634.84 C358.23,634.33 358.92,623.57 354.75,620.25 C363.34,620.52 358.77,610.15 353.62,607.03 C358.37,607.03 360.36,603.22 360.67,598.09 C360.65,592.94 358.83,588.17 354.81,586.25 C351.95,584.93 354.47,584.55 357.39,584.14 C360.85,583.63 361.89,583.36 361.62,577.14 C361.05,572.8 359.68,566.62 356.91,564.71 C353.9,563.23 349.48,562.35 346.89,561.88 C350,561.17 352.89,560.86 355.29,560.86 C360.52,558.61 362.11,549.11 357.57,545.09 C352.42,541.99 341.71,546.03 340.52,543.97 C343.03,541.85 349.75,541.41 353.07,539.56 C357.06,535.91 360.3,532.85 354.14,522.9 C351.02,517.48 351.4,516.48 347.79,514.64 C342.9,514.25 332.49,519.55 324.47,518.98 C328.3,516.33 340.47,514.42 344.56,512.02 C348.32,509.09 345.67,504.83 341.44,498.96 C336.42,494.11 334.62,493.69 328.16,496.11 C323.8,497.53 316.99,498.9 309.55,499.78 C312.66,497.12 325.41,494.25 328.45,492.29 C333.91,488.45 333.92,486.95 328.74,480.53 L320.97,476.69 L312.29,480.85 C305.54,483.54 296.61,486.24 296.11,485.61 C296.46,485.1 304.87,481.37 309.69,478.93 C314.71,476.32 317.35,473.06 317.58,470.83 C317.27,463.38 311.19,462.09 300.72,468.8 C295.09,471.72 283.07,474.98 281.78,473.76 C281.44,471.79 290,470.39 295.26,468.16 C300.31,465.46 308.44,461.54 308.91,459.15 C307.62,455.14 302.56,451.75 279.67,448.44 C262.52,445.85 253.88,440.6 246.19,427.95 C237.06,412.58 238.66,399.64 251.09,387.07 L261.48,376.96 L255.42,386.44 C244.26,403.54 249.59,422.29 265.53,422.8 C269.42,422.94 274.56,424.42 277.65,426.51 C281.87,428.86 285.05,428.54 288.6,427.65 L294.12,426.19 L296.03,425.84 L288.04,419.99 C279,414.92 275.52,407.02 280.25,401.73 C282.09,400.15 282.48,401.68 281.69,406.5 C280.65,412.28 281.64,414.55 285.73,416.37 C288.63,417.97 294.33,421.44 298.14,424.53 C310.65,434.28 327.26,445.84 329.03,446.21 C329.76,445.93 328.55,443.46 325.27,439.13 C322.17,435.3 323.77,436.11 329.03,441.48 C336.95,449.21 338.99,450.19 342.88,447.34 C349.16,442.47 348.41,440.23 337.4,432.09 C330.72,427.52 326.28,421.25 323.83,413.89 C322.03,407.84 319.18,401.22 318.06,399.31 C316.45,396.89 317.15,394.76 319.79,392.33 C322.31,390.12 324.46,386.02 324.43,384.01 C323.28,384.17 322.45,384.42 321.23,385.03 C319.65,385.68 318.5,384.65 318.35,381.88 C318.42,380.53 319.2,375.6 319.08,374.32 C318.31,375.62 316.32,378.2 315.46,378.74 C313.86,379.42 312.47,378.63 312.29,376.48 C311.81,372.17 311.34,370.88 310.96,368.84 C310.29,369.95 307.34,374.02 306.02,375.15 C306.99,371.67 306.18,361.7 305.77,360.42 C305.56,363.24 304.16,368.11 303.67,369.91 C300.56,374.23 299.88,375.03 296.41,376.04 C293.42,375.9 292.18,374.81 288.04,369.73 C283.96,364.47 281.68,360.8 281.29,358.18 C281.6,355.28 289.68,345.53 300,341.71 C304.29,340.29 304.88,339.92 307.51,339.32 C306.81,339.05 305.72,338.1 302.61,337.27 C300.77,336.92 294.54,336.74 290.03,338.53 C286.08,339.73 277.54,343.34 273.29,347.38 C271.19,346.91 273.53,340.95 271.03,341.26 C268.83,342.8 269.13,349.75 267.32,351.36 C264.02,352.5 263.56,347.86 262.12,347.29 C261.12,348 262.84,353.65 260.6,355.75 C258.63,356.02 253.03,350.01 252.05,350.37 C252.05,351.57 256.05,357.21 255.33,358.52 C253.61,360.11 253.77,361.62 249.91,360.3 C246.54,358.55 232.99,350.52 229.24,350.57 C232.54,352.72 235.16,355.26 238.77,358.55 C244.65,364.64 246.08,365.25 241.56,366.18 C237.2,365.45 236.29,364.44 234.09,365.83 C233.42,366.88 234.64,371.81 233.62,373.07 C232.06,373.69 227.4,372.59 226.71,372.87 C224.97,375.54 228.01,378.04 227.13,381.7 C225.3,386.82 224.61,386.82 218.76,383.03 C213.76,379.81 208.71,378.08 208.06,379.21 C207.99,380.94 209.13,381.57 211.83,385.25 C220.19,397 217.91,399.06 201.44,398.78 C200.91,398.67 188.71,396.27 184.03,402.8 C188.22,401.73 197.26,402.62 200.02,403.47 C201.41,404.01 204.31,405.55 206.93,407.42 C208.13,408.46 207.54,409.17 206.69,411.61 C203.62,412.93 200.47,413.83 196.88,414.04 C207.66,417.26 206.58,414.15 210.52,415.89 C207.59,420.78 205.6,420.59 195.96,422.84 C193.57,424.18 191.33,425 188.72,426.02 C185.93,427.26 184.56,429.1 185.06,429.53 C185.74,429.57 188.3,428.76 191.28,428.12 C194.72,427.81 192.95,427.91 200.67,428.05 C204.41,428.91 205.71,431.01 205.21,432.78"/>
  <path fill="#000" d="M303.42,402.1 C303.32,403.93 302.51,405.03 301.23,405.12 C299.96,404.91 299.15,403.73 299.04,401.89 C299.15,400.06 299.95,398.95 301.23,398.86 C302.47,399.06 303.27,400.2 303.42,401.99 L303.42,402.1"/>
  <path fill="#000" d="M308.85,405.12 C307.94,407.21 306.67,408.47 304.56,409.39 C302.4,410.14 300.55,410.1 298.35,409.26 C296.19,408.27 294.84,406.94 293.8,404.82 C292.91,402.62 292.86,400.77 293.62,398.59 C294.54,396.48 295.81,395.2 297.92,394.27 C300.08,393.5 301.92,393.54 304.13,394.39 C306.28,395.4 307.64,396.74 308.67,398.87 C309.56,401.09 309.62,402.94 308.86,405.1 L306.78,404.15 C307.32,402.61 307.28,401.3 306.65,399.73 C305.9,398.19 304.92,397.23 303.36,396.5 C301.74,395.87 300.39,395.84 298.8,396.41 C297.27,397.08 296.36,398 295.7,399.51 C295.15,401.06 295.19,402.37 295.82,403.94 C296.57,405.47 297.55,406.43 299.11,407.15 C300.74,407.77 302.09,407.8 303.67,407.24 C305.2,406.58 306.12,405.67 306.78,404.16 L308.85,405.12"/>
  <path fill="#000" d="M281.83,390.93 C286.08,388.91 290.76,388.86 296.94,390.88 C299.89,391.93 302.41,393.15 304.62,394.56 L303.49,396.47 C301.43,395.16 299.08,394.03 296.31,393.04 C290.71,391.23 286.59,391.24 282.87,392.98 L281.83,390.93"/>
  <path fill="#dfdfdf" d="M214.05,477.93 C213.81,476.31 214.38,475.6 216.93,473.73 C220.16,474.05 225.2,475.92 228.8,478.84 C234.57,483.89 235.5,485.77 238.76,490.2 C237.37,492.93 236.58,493.55 234.03,496.17 C231.45,497.99 229.93,499.07 228.19,500.03 C226.72,495.67 225.13,493.58 221.26,488.68 C219.24,486.09 214.26,484.11 211.44,482.26 C212.12,480.05 213.01,479.75 214.05,477.93"/>
  <path fill="#dfdfdf" d="M235.75,497.72 C238.31,495.75 239.21,493.5 240.95,492.18 C243.36,493.24 242.78,493.46 246.7,495.41 C250.89,498.1 249.48,497.46 252.67,501.96 C251.33,504.69 250.63,505.94 248.61,508.85 C246.45,511.03 246.27,512.44 244.26,515.1 C240.32,514.07 237.98,512.73 234.84,509.28 C232.52,506.78 230.45,506.63 229.17,502.3 C231.94,500.35 234.06,499.32 235.75,497.72"/>
  <path fill="#dfdfdf" d="M250.82,509.92 C252.75,507.08 253.27,505.2 254.87,503.15 C257.81,503.54 260.13,504.01 263.59,505.13 C268.32,506.35 268.94,507.72 271.39,510.48 C270.15,513.22 269.82,516.6 268.82,521.52 C268.04,524.94 267.37,526.8 265.96,529.87 C262.08,528.12 259.25,526.62 255.88,524.45 C252.31,522.26 249.3,520.26 247.55,515.82 C249.26,512.53 249.26,511.61 250.82,509.92"/>
  <path fill="#dfdfdf" d="M271.53,523.17 C272.3,519.32 272.39,515.48 274.09,512.4 C276.98,512.95 276.58,513.71 279.99,515.03 C283.7,516.68 285.83,517.2 287.96,521.22 C284.73,524.13 284.19,523.74 283.06,528.58 C282.49,532.05 283.53,536.7 282.36,539.82 C278.52,537.94 278.09,537.06 274.77,534.74 C271.25,532.63 271.02,533.39 268.76,531.19 C270.02,527.31 270.73,525.44 271.53,523.17"/>
  <path fill="#dfdfdf" d="M285.78,528.92 C287.48,525.51 288.14,524.78 289.99,523.17 C293.5,524.59 294.83,524.02 298.22,527.03 C301.29,529.45 307.66,535.25 310.16,538.01 C307.76,539.07 305.79,539.8 302.94,543.27 C300.34,546.86 300.91,547.75 299.43,551.81 C296.55,549.79 295.17,548.75 292.49,546.95 C289.68,544.22 288.53,543.38 285.32,541.03 C286.37,537.28 285.46,531.91 285.78,528.92"/>
  <path fill="#dfdfdf" d="M304.83,545.66 C306.67,542.37 308.74,541.76 310.7,540.26 C314.05,542.04 315.51,544.87 318.76,548.19 C322.83,553.08 323.45,553.88 325.4,556.82 C322.39,558.11 321.6,558.24 318.85,560.48 C316,562.81 315.3,562.89 313.34,564.94 C311.29,562.43 311.57,562.64 308.89,559.78 C306.08,557 305.77,557 302.06,553.4 C303.16,549.56 303.71,548.23 304.83,545.66"/>
  <path fill="#dfdfdf" d="M320.73,563.07 C322.75,561.64 324.58,560.62 326.27,559.61 C327.9,561.65 329.32,563.28 330.36,565.48 C331.94,567.69 332.07,568.08 333.35,571 C330.35,572.26 330.68,571.95 328.45,572.87 C326.32,573.84 325.34,574.86 322.79,576.42 C320.77,573.86 322.15,574.88 319.5,571.97 C318.21,570.24 317.48,568.95 315.48,566.71 C318.38,564.35 318.78,564.05 320.73,563.07"/>
  <path fill="#dfdfdf" d="M328.6,575.6 C331.01,574.61 332.05,574.1 334.06,573.36 C335.42,576.06 335.76,576.5 336.74,578.72 C337.35,580.58 337.77,581.54 338.82,584.6 C336.57,585.25 335.9,585.42 334.42,585.98 C332.92,586.57 331.32,587.39 329.58,588.29 C327.91,585.02 328.01,585.7 327.03,583.78 C326.12,581.94 325.56,581.34 323.93,578.81 C326.33,577.11 327.07,576.51 328.6,575.6"/>
  <path fill="#dfdfdf" d="M334.58,588.31 C337,587.36 336.96,587.59 338.98,586.91 C340.25,589.68 341.29,594.26 342.01,597.17 C342.53,600.42 342.97,604 343.15,607.89 C341.03,608.12 341.91,607.95 340.04,608.16 C338.19,608.39 338.09,608.44 336.11,609.13 C335.5,604.83 334.99,602.5 333.94,599.49 C333.23,597.37 331.67,592.76 330.13,590.13 C332.21,589.18 333.02,589.15 334.58,588.31"/>
  <path fill="#dfdfdf" d="M339.79,610.64 C340.54,610.53 341.33,610.46 342.9,610.46 C343.2,616.03 343.21,617.38 343.06,622.88 C342.68,628.62 342.55,633.3 341.69,639.09 C340.68,638.67 340.44,638.39 338.58,638.1 C336.72,637.84 336.83,637.82 334.91,637.79 C336.23,632.39 336.3,630.53 336.7,624.02 C336.86,618.93 336.84,617.29 336.45,611.52 C337.91,611.15 338.55,610.9 339.79,610.64"/>
  <path fill="#dfdfdf" d="M337.21,640.66 C337.96,640.6 339.8,640.89 341.38,640.93 C339.65,650.54 338.28,654 335.1,659.77 C331.29,665.12 327.57,670.09 322.71,675.16 C322.12,674.67 321.69,674.1 321.12,673.49 C320.56,672.91 320.12,672.69 319.45,672.04 C324.99,664.86 325.99,662.73 329.32,656.07 C332.05,649.38 332.51,647.54 334.34,640.15 C335.82,640.86 335.96,640.9 337.21,640.66"/>
  <path fill="#dfdfdf" d="M319.76,674.99 C320.71,675.69 320.25,675.42 321.7,676.48 C319.4,679.09 317.8,680.58 313.54,684.63 C310.35,686.93 309.33,688.77 302.8,691.27 C302.02,690.33 301.98,690.21 301.6,689.62 C301.23,689.04 301.09,688.89 300.67,687.79 C304.07,686.79 307.82,684.72 310.46,682.29 C314.58,678.83 315.65,677.32 318.41,673.9 C319.05,674.37 319.33,674.56 319.76,674.99"/>
  <path fill="#dfdfdf" d="M299.01,690.49 C299.51,691.38 299.36,691.59 299.82,692.62 C296.81,694.29 296.2,694.4 288.87,695.61 C279.87,695.6 276.11,695.34 271.87,694.71 C272.03,693.56 272.04,693.45 272.09,692.37 C272.12,691.34 272.02,691.67 272.08,690.57 C280.5,691.22 283.03,690.81 286.36,690.67 C292.35,690.22 296.84,689.07 298.27,688.74 C298.92,689.96 298.84,689.65 299.01,690.49"/>
  <path fill="#dfdfdf" d="M269.67,692.53 C269.48,693.43 269.52,693.14 269.25,694.43 C262.29,693.14 262.15,693.25 253.72,691.56 C247.38,689.71 245.29,688.44 241.35,686.38 C241.07,684.97 241.13,685.13 241.46,684.54 C241.86,683.75 241.57,683.99 242.5,683.39 C247.24,686.04 252.13,686.97 254.85,687.83 C261.25,689.11 264.4,689.5 269.81,690.15 L269.67,692.53"/>
  <path fill="#dfdfdf" d="M239.56,682.76 C238.5,683.64 238.43,683.95 237.09,683.84 C234.92,683.54 234.65,683.03 232.56,681.33 C231.44,680.39 230.13,679.03 230.27,678.32 C230.73,677.35 231.27,675.34 232.31,676.64 C233.27,677.87 236.48,679.86 238.59,681.25 C240.19,682.36 239.98,682.42 239.56,682.76"/>
  <path fill="#dfdfdf" d="M229.13,675.82 C227.92,676.29 228.19,676.49 227.2,675.65 C226.41,674.92 225.78,673.79 224.3,672.03 C223.44,670.96 221.85,668.22 221.66,667.51 C221.55,665.54 222.33,664.37 223.29,665.83 C224.79,668.62 226.62,671.37 229.16,673.74 C230.52,675.11 229.69,675.58 229.13,675.82"/>
  <path fill="#dfdfdf" d="M221.64,663.83 C220.41,664.32 220.54,664.52 219.52,663.7 C218.74,662.93 217.9,661.21 216.92,659.07 C216.29,657.75 215.27,656.1 215.57,654.73 C216.24,653.26 217.65,652.32 218.31,653.93 C219.17,656.96 219.4,656.99 220.84,660.53 C221.45,662.03 222.03,663.47 221.64,663.83"/>
  <path fill="#dfdfdf" d="M217.59,650.92 C217.02,651.88 216.3,651.83 214.78,651.27 C213.7,650.62 214.01,649.03 213.88,646.55 C213.77,645.27 213.58,644.14 213.87,642.43 C214.42,640.94 216.55,640.29 217.02,642.01 C217.13,643.29 216.99,644.04 217.21,646.23 C217.64,649.78 217.92,650.13 217.59,650.92"/>
  <path fill="#dfdfdf" d="M216.54,638.56 C216.14,639.36 215.22,639.19 214.43,638.39 C213.76,637.32 214.49,635.69 214.64,633.6 C214.71,632.3 215.03,631.04 215.69,629.41 C216.24,628.42 217.42,628.19 217.61,629.97 C217.6,630.84 217.39,631.97 217.15,633.87 C216.92,635.97 216.94,637.24 216.54,638.56"/>
  <path fill="#dfdfdf" d="M218.59,625.9 C218.17,626.66 217.18,626.07 216.83,624.98 C216.62,623.35 217.5,621.59 218.04,619.58 C218.47,617.86 219.17,616.05 220.43,614.78 C221.49,613.93 222.89,613.4 222.7,615.16 C222.32,616.49 220.64,619.22 219.91,621.41 C219.32,623.44 219.03,624.59 218.59,625.9"/>
  <path fill="#dfdfdf" d="M226.26,611.15 C225.36,611.24 224.57,611.5 224.74,610.43 C225.05,609.48 225.83,608.98 227.58,607.5 C228.46,606.74 230.01,605.42 230.86,604.91 C231.97,604.34 233.62,603.66 233.13,605.32 C232.78,606 232.01,606.34 230.39,607.51 C228.71,608.84 226.79,610.94 226.26,611.15"/>
  <path fill="#dfdfdf" d="M702.61,382.5 C709.31,383.81 714.22,385.8 721,390.07 C723.25,391.5 725.1,392.35 725.54,392.33 C725.92,392.09 726.3,391.11 726.53,389.65 C726.74,388.33 727.16,386.93 727.47,386.45 C728.52,385.23 729.21,386.15 731.03,390.77 C731.84,392.95 732.74,394.98 732.95,395.3 C733.91,396.31 734.81,396.01 736.28,394.26 C737.83,392.47 739.49,392.02 740.17,393.26 C740.27,393.68 740.21,395.14 739.94,396.72 C739.25,401.3 740.32,401.83 744.3,398.86 C747.73,396.17 748.79,395.73 750.16,396.3 C751.45,397.12 751.42,397.92 749.74,402.03 C748.35,405.57 748.08,407.9 749.6,405.97 C750.04,405.44 751.68,404.25 753.49,403.31 C755.27,402.36 758.03,400.8 759.68,399.8 C761.33,398.85 763.57,397.69 764.7,397.2 C766.91,396.46 777.79,394.41 778.86,394.49 C778.96,394.7 777.71,395.84 775.48,397.6 C770.68,401.32 762.28,409.71 761.93,410.83 C761.99,411.46 762.4,411.53 765.68,411.14 C769.95,410.6 769.85,410.44 768.92,415.05 C768.59,416.71 768.58,417.63 768.82,417.98 C769.2,418.2 770.47,418.1 772.76,417.52 C774.69,417.05 776.37,416.64 776.56,416.61 C777.17,416.96 776.94,420.09 775.95,423.66 C775.02,426.76 775.02,426.98 775.76,427.51 C776.79,428.1 777.69,427.84 784.9,424 C789.17,421.71 790.18,421.33 792.5,421.21 C793.99,421.17 795.64,421.37 796.39,421.67 L797.71,422.23 L794.66,425.84 C791.03,430.27 787.53,435.77 786.83,438 C786.02,441.68 789.1,442.11 800.94,439.57 C807.45,438.16 811.49,437.9 813.74,438.72 C815.56,439.66 820.64,444.03 821.01,444.82 C820.83,445.01 818.41,445.7 814.96,446.26 C807.92,447.41 803.01,449.09 798.74,451.78 C794.82,454.37 794.87,454.74 799.16,454.43 C802.82,454.17 804.67,454.52 806.66,455.84 C807.55,456.48 807.55,456.51 806.66,457.62 C805.16,459.29 802.76,460.65 799.44,461.56 C797.76,462.01 796.45,462.43 796.3,462.55 C796.34,462.64 797.56,462.85 799.53,463 C804.45,463.44 811.19,464.8 814.59,466.1 C817.6,467.32 817.7,467.44 818.34,471.86 L818.62,473.65 L817.12,473.49 C814.71,473.34 802.76,474.3 800.71,474.8 C797.74,475.83 798.52,476.29 803.19,476.5 C809.05,476.69 812.22,477.03 813.84,477.61 L815.05,478.15 L812.52,479.68 C811.07,480.52 807.9,481.86 805.3,482.68 C794.37,486.09 792.95,487.34 802.16,486.1 C809.94,485.02 812.41,484.93 812.48,486.17 C811.91,487.6 807.8,490.18 802.77,492.05 C799.86,493.18 800.91,493.52 805.77,493.3 C810.32,493.11 813.16,493.83 814.77,495.52 C815.69,497.28 815.14,502.69 813.93,504.16 C813.61,504.32 813.13,504.21 812.66,503.87 C812.19,503.51 810.34,502.65 808.4,501.87 C804.76,500.47 804.76,500.48 799.58,501.75 C797.3,502.47 795.6,504.22 793.81,507.9 C792.98,509.6 791.36,512.29 790.16,513.94 L787.06,518.1 C786.17,519.28 786.17,519.3 787.16,521.26 C787.67,522.38 788.22,523.64 788.37,524.06 C789.74,526.91 803.14,524.93 814.87,519.76 C819.39,517.64 825.93,513.48 829.03,510.83 L831.32,508.78 L831.32,510.65 C831.13,515.45 827.82,523.33 824.29,527.26 L822.04,529.62 L824.34,533.84 C827.18,539.24 827.33,541.04 825.18,543.77 C824.36,544.81 823.9,545.7 824.01,546.13 C824.23,546.5 825.33,547.25 826.73,547.88 C830.94,549.75 830.77,549.55 829.03,550.69 C828.12,551.26 825.92,552.05 824.01,552.47 C821.89,552.96 820.4,553.49 820.02,553.88 C819.14,555.74 821.11,558.08 825.51,560.39 C826.17,560.77 825.73,560.97 822.65,561.87 C820.58,562.4 817.59,563.05 815.99,563.3 L813.09,563.72 L814.07,565.44 C815.36,567.5 817.41,569.45 819.28,570.5 L820.59,571.2 L819.13,571.57 C818.31,571.78 816.72,571.89 815.48,571.86 C811.81,571.75 807.89,572.31 806.75,572.98 C805.46,574.47 806.44,576.4 810.18,579.84 L813.37,582.66 L811.3,583.22 C807.24,584.15 802.67,583.98 799.86,582.9 C798.45,582.33 797.39,581.99 797.24,582.03 C796.89,583.2 799.04,589.13 800.75,591.32 C801.14,591.77 801.29,592.19 801.13,592.49 C800.86,592.64 798.47,593.05 795.55,593.31 C791.42,593.62 789.98,593.51 788.7,592.97 C787.8,592.59 787.02,592.29 786.92,592.27 C786.9,592.31 786.79,593.26 786.78,594.54 C786.82,596.21 787.11,597.1 788,598.3 L789.17,599.8 L787.86,599.89 C784.63,599.91 777.83,598.04 775.01,596.29 C773.31,595.18 773.2,595.21 773.18,597 C773.33,599.12 774.28,601.75 775.34,603.09 C776.29,604.21 776.11,604.21 771.49,603.23 C767.32,602.29 763.8,600.95 761.84,599.7 C760.08,598.47 759.94,598.59 760.29,600.61 C760.79,603.07 761.57,604.25 763.38,605.27 C764.22,605.67 764.68,606.04 764.6,606.19 C763.91,606.4 754.65,605.29 752.08,604.54 C750.94,604.14 749.68,603.47 749.18,603.05 C748.37,602.34 748.34,602.34 748.33,603.49 C748.38,604.19 748.85,605.65 749.5,606.93 C750.16,608.19 750.64,609.27 750.68,609.42 C750.43,609.68 748.3,609.07 745.1,607.7 C743.42,606.96 741.56,606.38 740.83,606.33 C739.14,606.49 737.5,607.75 735.91,610.17 C735.04,611.47 733.92,612.37 731.55,613.6 L728.26,615.24 L728.08,613.27 C727.69,611.38 720.02,590.71 719.35,589.66 C718.87,589.61 709.79,595.58 700.51,602.2 C695.01,606.22 682.49,618.23 678.7,623.14 C668.54,636.76 665.28,646.05 665.15,661.99 C665.18,670.75 665.73,675.42 667.68,684 C672.14,702.42 682.02,719.97 693.43,729.42 C701.04,735.49 709.7,737.87 726.29,737.69 C746.38,737.29 758.59,732.68 767.98,723.07 C774.82,715.74 779.22,706.67 781.2,695.91 C781.45,694.14 781.69,689.93 781.72,686.51 C781.62,674.65 779.12,667.02 773.51,660.91 C768.49,655.8 763.52,653.21 756.77,652.19 C750.25,651.47 743.46,653.56 738.77,657.73 C735.69,660.78 735.56,661.93 737.97,667.04 C740.13,671.61 740.27,672.55 738.95,674.06 C737.46,675.29 735.27,675.27 732.06,673.78 C727.66,671.41 725.68,666.79 725.92,659.58 C726.45,653.16 729.08,649.47 735.62,645.95 C741.98,642.78 745.04,642.19 754.9,642 C763.03,641.83 763.83,641.87 767.79,642.96 C775.75,645.2 780.31,648.05 784.16,653.12 C792.57,665.03 797.11,685.07 794.52,699.06 C792.3,709.62 786.77,721.08 778.95,730.86 C765.55,747.25 748.33,754.97 723.01,754.59 C704.28,754.12 691.23,749.75 678,740.14 C663.35,729.3 654,716 645.88,694.85 C643.74,689.04 642.92,685.55 642.5,680.69 C642.33,678.26 641.95,676.44 641.57,675.84 C639.77,673.12 639.15,667.36 640.21,663.11 L640.91,660.88 L639.46,659.44 C636.96,656.44 637.2,652.12 640.07,648.64 L641.43,647.19 L639.88,645.45 C637.91,642.92 637.06,639.22 637.35,633.81 C637.73,629.85 639.15,625.72 640.07,625.35 C640.99,625.3 640.41,624.19 639.03,623.13 C636.9,621.44 635.92,619.46 635.8,616.45 C635.94,610.31 638.15,602.4 639.88,601.46 C640.58,601.11 640.71,600.09 640.07,599.89 C638.98,599.35 637.67,595.42 637.3,591.01 C637.11,585.67 638.03,582.23 640.07,580.1 L641.43,578.8 L639.97,575.58 C638.71,572.77 638.55,572.05 638.75,569.83 C639.51,564.59 644.68,556.25 648.88,553.54 C650.4,552.63 650.75,552.17 650.8,551.03 C650.98,547.69 653.34,543.48 657.7,538.93 C662.21,534.35 663.57,532.35 664.59,528.94 C665.29,526.76 665.94,525.74 667.92,523.83 C670.38,521.66 675,519.19 678,518.47 C678.63,518.32 678.9,517.95 678.94,517.14 C679.27,513.86 682.55,509.5 685.97,507.85 C687.63,507.15 687.82,506.93 687.85,505.51 C688.02,503.44 689.36,501.82 693.19,499.23 C696.87,497.03 702.3,495.84 711.05,495.32 C729.36,494.32 737.32,491.15 745.99,482.38 C751.19,476.96 753.14,473.48 755.08,466.39 C756.58,460.42 756.65,455.24 755.32,450.92 C754.17,447.75 751.18,442.34 750.63,441.98 C750.51,442.11 750.71,443.45 751.24,445.42 C752.38,450.12 752.5,457.3 751.47,461.13 C749.77,466.34 746.94,469.9 742.61,472.36 C739.66,473.89 738.33,474.23 733.33,474.7 C728.05,475.22 724.87,476.17 723.01,477.68 C720.18,479.96 715.07,480.12 709.37,478.06 C707.93,477.51 705.35,476.84 703.51,476.58 L700.13,476.09 L695.77,479 C691.14,481.96 671.84,491.8 668.39,493.03 C661.86,494.93 655.45,492.74 652.16,487.56 C649.89,483.3 651.87,480.17 662.1,471.48 C670.38,464.51 672.24,462.13 673.4,457.77 C673.92,455.92 675.4,451.99 676.83,448.98 C680.24,441.6 680.27,440.48 677.06,436.7 C675.79,435.18 674.45,433.2 674.01,432.16 C673.3,430.1 673.06,426.52 673.45,425.74 C673.86,425.65 676.74,426.4 678.51,427.15 C679.05,427.3 679.11,426.73 678.98,423.34 C678.92,420.71 679.11,418.73 679.41,417.8 L680.02,416.4 L681.7,418.19 C683.55,420.07 684.57,420.48 685.27,419.67 C685.38,419.41 685.72,418.08 685.97,416.64 C686.61,413.28 688.14,409.53 688.78,409.65 C688.96,409.88 689.38,410.87 689.72,411.86 C690.04,412.94 690.41,413.65 690.66,413.74 C690.84,413.65 691.15,412.69 691.36,411.24 C691.93,407.06 692.46,405.55 693.71,404.3 C694.77,403.35 694.99,403.32 695.35,403.91 C695.57,404.33 695.79,405.16 695.82,405.85 C695.93,408.03 697.15,412.21 698.86,415.99 C702.42,423.04 705.27,422.55 711.99,413.89 C715.77,408.8 716.22,407.45 715.28,405.01 C712.53,399.51 702.52,392.13 692.58,388.29 C690.69,387.58 689.36,386.9 689.25,386.72 C689.47,385.72 691.47,383.93 693.66,382.88 C696.11,381.96 698.63,381.84 702.61,382.5"/>
  <path fill="#000" d="M799.48,476.23 C797.11,474.5 810.47,473.73 814.01,473.38 C816.15,473.83 817.89,474.37 818.61,474.11 C819.13,473.54 818.77,471.58 818.09,467.48 C815.73,465.88 813.51,465.13 810.95,464.6 C808.56,464.01 806.46,463.62 803.73,463 C801.11,462.95 800.27,463.1 796.55,462.61 C801.03,461.58 803.85,461.7 808.35,456.67 C806.61,455.69 805.88,454.59 803.8,454.16 C801.68,453.92 800.95,454.03 799.22,454.18 C795.87,454.53 794.97,455.15 797.15,453.34 C799.46,451.53 803.57,449.37 808.37,447.91 C812.58,446.81 818.9,445.97 821.97,445.47 C820.42,442.87 818.04,441.43 816.36,439.87 C813.5,437.02 808.01,437.67 798.85,439.94 C784.63,442.86 783.94,441.1 792.79,428.91 L798.47,422.03 L794.87,420.86 L790.93,421.06 C787.21,422.34 782.38,425.43 779.51,426.83 C774.84,428.98 775.16,427.31 776.59,423.27 C777.66,419.94 776.98,420.03 777.35,416.4 C774.58,416.77 769.57,418.84 768.95,417.68 C769.03,415.91 769.69,414.68 770.2,410.58 C768.16,410.72 763.67,411.28 762.65,411.2 C761.87,410.73 763.86,408.78 766.47,406.27 L772.71,400.27 L781.54,393.71 L768.44,396.04 C764.36,396.47 758.09,400.78 754.62,402.77 C752.88,403.68 751.39,404.08 750.29,405.12 C748.2,406.3 750.54,408.21 749.08,406.21 C748.71,404.55 751.78,399.97 751.66,397.45 C748.23,392.63 742.93,401.41 740.99,400.54 C738.74,399.59 741.85,394.48 740.18,392.59 C736.95,391.39 735.64,396.42 733.81,395.94 C732.42,394.46 730.83,387.13 728.56,385.63 C725.9,385.53 727.15,392.98 725.31,392.61 C721.46,389.84 713.47,384.65 706.75,383.25 C703.37,382.6 699.56,381.62 696.23,381.92 C692.74,382.57 690.1,384.41 688.93,387.29 C693.37,388.87 694.05,389.05 698.68,391.33 C703.32,393.45 709.26,397.98 712.25,401.04 C717.14,406.86 717.15,407.36 711.67,414.33 C704.59,423.81 701.43,423.11 697.53,411.67 C696.07,407.11 696.29,404.42 695.68,402.82 C695.2,403.12 693.76,403.75 692.72,405.18 C692.01,406.65 691.21,412.18 691.15,413.85 C690.48,413.25 689.85,411.49 689.16,408.27 C687.43,411.6 686.94,412.69 686.35,414.28 C685.85,416.21 686.17,419.77 684.54,420.11 C683.54,419.86 682.33,418.08 680.15,415.88 C678.41,419.52 678.59,423.64 679.3,427.25 C677.83,426.65 674.86,425.47 673.42,425.16 C673.01,426.97 673.03,429 673.35,430.7 C674.38,433.17 674.8,435 677.03,437.06 C680.47,440.39 680.48,441.9 677.03,448.59 C674.74,452.97 673.12,457.68 672.99,459.83 C672.72,461.72 667.92,466.96 661.16,472.2 C652.99,478.78 650.37,482.58 651.35,486.11 C654.59,493.55 662.86,496.2 671.26,492.52 L690.02,483.12 C694.46,480.8 697.47,478.31 700.17,476.64 C704.63,476.82 707.8,477.38 711.67,479.38 C717.69,480.4 721.76,479.91 723.22,478.21 C724.69,476.48 728.76,475.2 733.32,475.1 C745.05,474.92 752.18,467.36 752.88,455.72 C752.99,450.71 752.38,447.65 750.78,442.03 C757.12,452.35 757.49,456.85 755.24,466.11 C752.3,478.94 739.81,495.4 711.38,495.04 C706.04,495.09 701.58,496.32 696.52,497.15 C692.95,499.11 686.89,502.13 687.8,507.08 C682.43,508.52 679.2,513.27 678.9,518.07 C666.01,521.47 664.42,528.35 664.33,530.12 C664.11,531.71 661.24,535.59 657.12,539.26 C653.03,543.02 650.59,548.5 650.9,552.19 C646.46,554.3 644.83,557.33 642.1,560.91 C639.65,565.67 636.18,570.82 641.62,578.8 C635.72,581.15 636.01,597.04 640.68,600.66 C637.26,603.03 636.48,608.46 635.71,616.73 C635.78,619.63 636.53,621.8 640.79,624.62 C639.64,625.21 638.83,626.53 638.14,628.64 C637.56,630.71 637.22,633.21 637.19,635.8 C637.23,638.39 637.58,640.87 638.26,642.96 C639.08,645.08 640.07,646.39 641.66,646.99 C636.43,650.53 636.51,658.83 641.06,660.81 C638.61,665.76 639.34,674.36 642.56,677 C642.03,686.64 645.51,693.73 647.56,699.09 C651.58,709.69 656.73,718.72 663.24,726.6 C669.85,734.4 677.6,740.8 686.85,746.09 C707.57,757.42 740.88,757.8 761.03,746.83 C778.42,736.9 792.29,716.38 795.38,696.75 C797.81,679.09 789.92,655.32 779.5,647.57 C762.7,636.3 731.45,640.61 726.39,655.38 C724.25,663.35 726.91,671.86 732.45,674.38 C739.85,676.86 742.35,673.72 738.52,667.02 C735.67,661.87 735.92,660.63 740.54,656.67 C754.72,646.52 774.81,654.63 780.08,672.67 C785.95,696.16 776.7,720.39 757.28,730.96 C740.54,739.67 709.09,739.59 696.95,731.57 C674.37,715.58 660.49,675.51 667.22,646.26 C671.17,630.17 686.48,611.65 706.76,598.36 L719.46,589.6 L724.08,601.82 C726.61,608.29 728.53,611.72 728.12,615.79 C731.94,613.58 733.14,613.83 735.81,611.45 C737.15,608.57 738.92,606.14 742.27,606.69 C743.01,606.99 747.37,609.35 751.72,610.06 C750.08,606.51 748.86,606.4 748.88,602.83 C751.47,605.74 757.71,606.13 766.58,606.75 C759.89,602.92 760.98,602.24 760.58,598.85 C763.4,601.73 769.5,603.39 777.15,604.44 C773.38,600.4 773.89,599.26 773.57,595.44 C777.74,599.04 786.34,600.56 790.07,600.2 C787.05,596.82 787.03,596.88 787.07,592.44 C790.71,594.78 796.45,594.07 802.26,592.54 C798.87,588.89 797.85,585.14 797.57,581.86 C802.42,585.61 809.24,584.18 814.35,582.76 C810.52,579.72 808.36,578.01 807.08,575.99 C805.82,573.3 806.56,572.55 811.25,571.95 C814.5,571.78 816.53,573.23 821.31,571.03 C814.67,568.67 812.51,560.86 811.14,560.39 C805.15,561.08 819.54,570.23 806.59,569.65 C803.33,569.52 801.87,569.69 799.45,570.04 C801.16,572.42 801.41,572.52 802.88,574.27 C804.46,576.76 804.95,579.51 808.71,581.46 C805.29,581.85 802.91,582.24 800.57,580.8 C798.43,579.18 798.34,578.57 793.8,575.51 C793.22,579.11 793.46,579.77 793.82,582.1 C794.47,586.1 795.13,587.11 796.36,590.22 C791.16,591.66 788.6,590.47 787.46,588.27 C786.14,586.81 784.28,583.84 781.76,583 C780.84,586.26 781.72,586.3 782.21,588.98 C783.25,591.97 783.6,594.08 784.49,596.88 C779.37,595.64 776.47,594.03 773.15,590.24 C767.66,585.77 767.68,585.74 769.4,591.89 C770.09,596.01 769.99,596.91 771.41,600.44 C766.39,599.66 762.27,597.65 759.59,593.71 C756.66,589.37 756.45,589.63 757.57,595.24 C757.66,599.02 757.17,599.62 758,603.27 C753.46,602.31 750.54,600.73 748.04,596.89 C745.11,592.51 744.9,592.76 746.02,598.39 C746.61,601.98 745.56,602.61 747.46,606.35 C742.44,604.27 742.31,604.72 740.54,601.96 C739.12,599.87 737.63,602.54 735.17,607.18 C733.15,610.56 731.87,610.79 730.37,610.97 C729.95,608.37 729.02,606.64 726.68,600.98 C724.06,594.3 722.53,589.2 722.64,588.49 L738.52,580.09 C747.09,575.77 753.46,571.17 753.81,569.3 C753.97,567.73 755.15,566.74 757.28,566.56 C762.23,565.97 773.54,554.52 774.02,549.69 C774.2,547.51 776.59,542.65 779.79,538.45 C784.28,532.25 788.92,530.08 802.02,527.34 C811.23,524.76 818.82,521.4 823.66,518.15 C826.01,516.51 826.42,515.52 828.2,514.47 C828.17,516.21 827.2,520.67 823.95,524.62 C821.99,526.87 820.21,527.65 818.45,528.9 C819.97,530.49 821.24,533.34 822.51,535.45 C825.37,539.96 825.39,541.13 821.35,543.28 C817.61,545.32 817.61,546.01 820.78,547.79 C822.11,548.61 824.01,549.16 825.4,549.85 C823.2,550.66 821.63,550.98 817.49,550.45 C812.23,547.93 811.95,548.72 814.14,551.82 C815.96,554.54 817.3,557.36 819.9,559.38 C816.8,559.86 815.47,559.53 812.7,558.79 C809.65,557.9 807.59,557.34 809.35,561.76 C811.39,564.65 810.1,560.02 811.98,563.99 C815.16,564.14 821.94,562.66 827.18,560.73 C822.53,558.62 821.01,556.98 820.31,555.67 C819.71,553.08 821.74,552.99 824.24,552.67 C825.43,552.55 828.34,552.41 831.09,549.32 C828.91,548.48 826.03,547.74 823.96,545.65 C829.63,541.02 826.63,536.79 825.06,534.19 C823.96,532.31 823.79,531.31 822.5,529.36 C824.37,528.67 826.82,525.29 828.28,522.57 C831,517.04 832.11,512.32 831.82,508.16 C827.89,511.8 826.39,512.98 823.95,514.56 C819.7,517.62 811,521.77 803.1,523.81 C794.92,525.76 788.89,526.05 788.45,523.12 C788.13,520.15 785.58,520.65 787.58,518.1 C791.82,513.29 794.04,509.25 795.44,505.19 C798.13,501.98 800.88,501.47 805.18,500.98 C807.53,501.94 811.43,502.72 813.64,505.28 C815.46,503.7 816.32,498.57 815.52,495.49 C814.72,494.32 810.63,492.76 807.64,492.74 C804.91,493 803.56,493.71 801.14,493.03 C803.96,491.98 805.42,491.79 808.37,490.07 C811.14,488.41 813.2,487.48 813.13,485.77 C812.02,484.09 798.92,486.45 796.37,486.8 C794.76,486.74 799.45,484.72 803.03,483.79 C805.45,482.82 810.35,482.39 815.73,477.98 C811.79,476.08 809.92,477.01 806.69,476.29 L799.48,476.23 M794.79,477.84 C796.9,479.97 809.05,478.31 806,479.7 C805.85,479.75 795.51,482.89 791.7,486.1 C791.46,489 794.53,489.78 794.82,489.85 L808.45,487.12 C807.8,488.86 796.06,491.2 795.66,493.8 C795.73,494.86 794.96,496.37 799.38,495.65 C803.52,495.43 808.31,494.74 811.43,495.84 C813.61,496.97 813.84,498.98 813.2,501.38 C811.13,500 808.11,498.95 806.33,498.49 C802.56,498.48 800.05,499.38 797.46,500.69 C794.9,502.08 793.35,503.29 791.05,507.85 C789.37,511.9 785.08,516.34 780.66,518.59 C775.93,520.46 768.87,524.74 765.36,529.36 C761.68,534.54 758.94,538.59 750.15,544.04 C741.92,552.17 748.68,549.43 745.26,549.82 C735.19,551.56 730.06,553.72 728.12,556.06 C725.91,558.41 721.59,560.83 717.73,561.76 C713.48,563.01 710.84,564.69 710.52,566.27 C710.3,568.12 708.66,569.04 705.9,569.05 C699.34,569.28 671.55,597.42 666.07,609.21 C656.27,631.22 654.55,639.22 654.52,661.44 C654.85,676.32 656.61,689.63 659.14,696.15 C665.31,710.99 689.27,739.7 696.17,740.53 C697.34,740.93 696.87,740.78 698.26,741.08 C698.93,742.08 699.24,742.2 701.52,743.38 C704.9,745.16 708.93,746.13 714.12,746.51 C719.26,746.78 725.27,746.42 732.26,745.5 C739.24,744.53 746.02,743 751.15,741.22 C756.28,739.36 758.02,738.4 759.59,736.78 C760.11,736.26 761.07,735.66 761,733.56 C762.27,734.44 764.27,734.2 767.39,731.4 C769.94,729.03 771.78,728.1 770.84,725.84 C773.97,725.23 774.47,724.07 776.96,720.31 C778.69,717.77 780.2,715.84 779.63,712.48 C781.84,712.46 782.77,709.88 784.08,706.64 C785.31,703.73 786.87,700.77 784.69,699.3 C787.38,698.83 786.98,696.03 787.26,693.34 C787.65,690.62 788.2,687.54 785.51,686.68 C788.21,685.27 787.24,682.87 786.71,679.97 C786.07,676.06 785.77,674.41 783.41,673.84 C785.36,672.43 784.32,669.51 782.84,664.5 C781.47,660.6 779.38,659.57 776.23,660.21 C778.53,657.5 774.3,654.81 772.8,653.65 C769.43,651.13 766.6,650.44 765.56,652.06 C765.16,648.91 755.49,648.93 750.81,649.44 C746.58,650.1 743.1,651.92 739.09,655.19 C733.03,660.31 732.77,661.57 735.92,667.01 C739.46,673.95 736.97,675.17 731.3,669.64 C725.62,663.36 727.25,656.59 735.63,649.56 C742.12,644.27 746.2,643.45 757.28,644.03 C776.74,645.74 784.23,651 789.89,669.08 C798.34,699 786.83,730.05 760.74,744.17 C749.2,750.07 742.26,751.74 723.51,751.42 C696.01,750.47 679.16,742.39 663.18,723.1 C653.27,710.9 642.7,682.15 645.86,676.7 C651.3,674.58 646.02,674.26 644.13,674.06 C641.82,673.11 641.06,662.21 645.25,659.7 C636.73,658.29 641.2,648.83 646.38,646.7 C641.66,645.78 639.64,641.52 639.33,636.35 C639.35,631.17 641.14,626.83 645.19,625.68 C648.07,624.92 645.53,624.05 642.61,623.06 C639.15,621.87 638.11,621.35 638.38,615.21 C638.96,610.95 640.29,605.1 643.09,603.73 C646.09,602.86 650.52,602.81 653.11,602.81 C650,601.53 647.1,600.67 644.71,600.2 C639.49,596.92 637.89,587.09 642.43,583.98 C647.59,581.9 658.25,587.94 659.48,586.03 C656.97,583.49 650.25,581.82 646.93,579.34 C642.94,574.91 639.71,571.2 645.86,562.47 C648.99,557.64 648.59,556.58 652.21,555.41 C657.06,555.92 667.55,562.99 675.53,563.58 C671.72,560.39 659.56,556.52 655.44,553.38 C651.68,549.77 654.33,545.99 658.56,540.87 C663.59,536.87 665.37,536.76 671.84,540.17 C676.21,542.24 683.01,544.55 690.45,546.29 C687.37,543.31 674.61,538.72 671.55,536.3 C666.08,531.62 666.09,530.12 671.26,524.49 L679.03,521.78 L687.71,527.04 C694.49,530.54 703.37,534.07 703.89,533.45 C703.58,532.97 695.1,528.39 690.31,525.42 C685.31,522.24 682.65,518.6 682.42,516.37 C682.73,508.92 688.81,508.52 699.28,516.23 C704.97,519.72 716.88,523.79 718.22,522.59 C718.55,520.68 710,518.73 704.74,516.08 C699.71,512.96 691.56,508.17 691.09,505.73 C692.46,501.64 697.39,499.55 720.33,497.37 C737.46,495.56 746.16,489.92 753.81,477.05 C763.01,461.2 761.27,448.49 748.91,436.32 L738.52,426.33 L744.58,435.77 C755.61,452.52 750.51,471.81 734.47,472.15 C730.59,472.23 725.42,473.58 722.35,475.53 C718.12,477.69 714.96,477.2 711.4,476.06 L705.88,474.19 L703.97,473.69 L711.96,468.45 C721.02,463.95 724.46,456.12 719.75,450.64 C717.91,448.96 717.52,450.47 718.31,455.33 C719.35,461.16 718.37,463.39 714.27,464.97 C711.37,466.39 705.66,469.45 701.86,472.19 C689.24,480.9 672.85,490.03 670.97,490.13 C670.25,489.75 671.45,487.47 674.73,483.61 C677.83,480.22 676.23,480.82 670.97,485.4 C663.06,491.92 661,492.51 657.12,489 C650.8,482.98 651.63,480.96 662.6,474.68 C669.3,471.21 673.71,465.61 676.17,458.58 C677.97,452.77 680.82,446.55 681.94,444.78 C683.55,442.57 682.85,440.35 680.21,437.57 C677.7,435.04 675.54,430.58 675.57,428.61 C676.71,428.93 677.55,429.31 678.77,430.08 C680.36,430.94 681.5,430.07 681.65,427.32 C681.58,425.97 680.8,420.9 680.92,419.66 C681.68,421.05 683.69,423.9 684.54,424.55 C686.15,425.43 687.53,424.81 687.71,422.67 C688.19,418.41 688.66,417.18 689.04,415.19 C689.7,416.37 692.67,420.78 693.98,422.05 C693.01,418.45 693.82,408.58 694.23,407.35 C694.44,410.17 695.84,415.2 696.33,417.05 C699.44,421.68 700.13,422.55 703.59,423.86 C706.59,423.97 707.82,422.98 711.96,418.18 C716.04,413.18 718.32,409.64 718.71,407.02 C718.4,404.14 710.3,393.96 700,389.2 C695.71,387.38 695.12,386.94 692.49,386.05 C693.2,385.86 694.28,385.04 697.39,384.51 C699.2,384.35 705.48,384.74 709.97,386.84 C713.89,388.32 722.5,392.42 726.71,396.55 C728.83,396.15 726.45,390.13 728.97,390.5 C731.17,392.09 730.87,399.04 732.68,400.68 C735.98,401.87 736.44,397.23 737.88,396.66 C738.88,397.38 737.16,403.02 739.4,405.13 C741.35,405.39 746.99,399.31 747.95,399.65 C747.95,400.85 743.96,406.56 744.67,407.86 C746.39,409.42 746.23,410.94 750.09,409.52 C753.33,407.74 767.12,398.86 770.76,398.6 C767.46,401.03 764.84,403.78 761.23,407.28 C755.37,413.69 753.9,414.36 758.44,415.06 C762.8,414.1 763.7,413.02 765.91,414.25 C766.58,415.25 765.37,420.28 766.38,421.46 C767.92,421.95 772.63,420.47 773.29,420.67 C775.02,423.16 772,425.99 772.87,429.54 C774.69,434.48 775.39,434.45 781.24,429.99 C786.23,426.17 791.29,423.69 791.94,424.72 C792.01,426.42 790.87,427.26 788.17,431.31 C779.95,444 782,446.31 798.56,443.22 C799.04,443.04 811.35,438.35 815.97,443.73 C811.88,443.62 802.67,446.35 799.98,447.66 C798.6,448.44 795.68,450.49 793.07,452.76 C791.87,453.98 792.46,454.6 793.31,456.91 C796.38,457.76 799.51,458.12 803.12,457.65 C792.32,462.88 793.47,459.42 789.48,461.76 C792.39,466.2 794.41,465.84 804.04,466.28 C806.43,467.17 808.67,467.54 811.28,467.99 C814.07,468.63 815.44,470.16 814.94,470.69 C814.23,470.9 811.71,470.66 808.72,470.63 C805.27,471.03 807.06,470.84 799.33,472.36 C795.6,473.85 794.29,476.17 794.79,477.84"/>
  <path fill="#000" d="M696.58,449.26 C696.68,451.1 697.49,452.29 698.77,452.5 C700.05,452.41 700.85,451.31 700.96,449.47 C700.85,447.64 700.04,446.45 698.77,446.24 C697.52,446.33 696.73,447.37 696.58,449.15 L696.58,449.26"/>
  <path fill="#000" d="M691.15,451.7 C692.06,453.89 693.34,455.31 695.44,456.43 C697.6,457.41 699.45,457.55 701.65,456.91 C703.82,456.1 705.16,454.9 706.2,452.85 C707.09,450.72 707.14,448.88 706.38,446.64 C705.46,444.46 704.18,443.07 702.08,441.96 C699.92,440.99 698.07,440.85 695.87,441.48 C693.71,442.28 692.37,443.45 691.33,445.48 C690.44,447.59 690.38,449.43 691.14,451.69 L693.22,450.97 C692.68,449.37 692.72,448.06 693.35,446.56 C694.1,445.1 695.07,444.24 696.64,443.67 C698.26,443.2 699.61,443.31 701.2,444.01 C702.72,444.82 703.65,445.83 704.3,447.39 C704.85,448.99 704.81,450.3 704.18,451.81 C703.43,453.28 702.46,454.15 700.89,454.73 C699.27,455.2 697.91,455.1 696.33,454.38 C694.8,453.57 693.88,452.55 693.22,450.98 L691.15,451.7"/>
  <path fill="#000" d="M718.17,439.75 C713.93,437.51 709.23,437.16 703.06,438.65 C700.1,439.45 697.59,440.42 695.38,441.6 L696.51,443.63 C698.57,442.53 700.91,441.62 703.69,440.87 C709.28,439.53 713.42,439.8 717.13,441.74 L718.17,439.75"/>
  <path fill="#dfdfdf" d="M785.95,524.3 C786.19,522.63 785.62,522.02 783.07,520.46 C779.88,521.17 774.77,523.61 771.2,526.83 C765.43,532.38 764.5,534.29 761.24,538.93 C762.63,541.57 763.42,542.15 765.97,544.58 C768.55,546.21 770.07,547.16 771.81,547.97 C773.28,543.48 774.88,541.24 778.74,535.92 C780.74,533.13 785.75,530.5 788.56,528.27 C787.88,526.14 786.99,525.98 785.95,524.3"/>
  <path fill="#dfdfdf" d="M764.25,546.26 C761.69,544.45 760.8,542.26 759.05,541.04 C756.64,542.22 757.22,542.42 753.3,544.53 C749.11,547.37 750.52,546.67 747.33,551.26 C748.67,553.95 749.37,555.19 751.39,558.03 C753.55,560.14 753.73,561.55 755.74,564.12 C759.68,562.91 762.03,561.42 765.16,557.75 C767.47,555.09 769.56,554.75 770.83,550.32 C768.06,548.61 765.94,547.74 764.25,546.26"/>
  <path fill="#dfdfdf" d="M749.18,559.17 C747.25,556.37 746.73,554.51 745.13,552.48 C742.19,552.91 739.87,553.4 736.41,554.5 C731.67,555.68 731.07,557.01 728.61,559.71 C729.85,562.49 730.18,565.87 731.18,570.82 C731.96,574.25 732.63,576.13 734.04,579.22 C737.92,577.51 740.75,576 744.12,573.8 C747.69,571.56 750.7,569.47 752.45,564.97 C750.74,561.74 750.74,560.81 749.18,559.17"/>
  <path fill="#dfdfdf" d="M728.47,572.4 C727.7,568.53 727.61,564.69 725.91,561.55 C723.01,562 723.43,562.78 720.01,563.94 C716.3,565.42 714.18,565.8 712.04,569.68 C715.27,572.8 715.81,572.44 716.94,577.34 C717.51,580.84 716.47,585.43 717.64,588.62 C721.48,586.93 721.91,586.07 725.23,583.87 C728.75,581.88 728.98,582.64 731.24,580.49 C729.98,576.58 729.27,574.69 728.47,572.4"/>
  <path fill="#dfdfdf" d="M714.22,577.51 C712.52,574 711.86,573.23 710.01,571.49 C706.5,572.66 705.17,571.97 701.78,574.69 C698.7,576.83 692.33,581.98 689.84,584.45 C692.23,585.78 694.22,586.74 697.06,590.48 C699.67,594.33 699.08,595.16 700.57,599.36 C703.45,597.61 704.83,596.68 707.51,595.09 C710.32,592.57 711.47,591.81 714.68,589.65 C713.63,585.83 714.54,580.53 714.22,577.51"/>
  <path fill="#dfdfdf" d="M695.17,592.68 C693.34,589.21 691.25,588.36 689.3,586.64 C685.94,588.03 684.49,590.67 681.24,593.57 C677.17,597.92 676.56,598.62 674.6,601.28 C677.61,603 678.4,603.24 681.15,605.85 C684,608.55 684.7,608.72 686.66,611.01 C688.71,608.74 688.43,608.92 691.11,606.36 C693.92,603.89 694.23,603.94 697.94,600.7 C696.84,596.75 696.29,595.37 695.17,592.68"/>
  <path fill="#dfdfdf" d="M679.27,608.19 C677.25,606.48 675.42,605.2 673.73,603.94 C672.09,605.76 670.68,607.15 669.64,609.21 C668.06,611.16 667.93,611.54 666.65,614.25 C669.65,615.99 669.32,615.62 671.55,616.88 C673.67,618.17 674.66,619.33 677.21,621.25 C679.23,618.97 677.85,619.81 680.51,617.25 C681.79,615.69 682.52,614.5 684.52,612.51 C681.62,609.78 681.21,609.43 679.27,608.19"/>
  <path fill="#dfdfdf" d="M671.4,619.59 C668.99,618.23 667.94,617.56 665.94,616.5 C664.58,618.98 664.24,619.36 663.26,621.42 C662.65,623.18 662.23,624.07 661.18,626.96 C663.43,627.98 664.1,628.27 665.58,629.06 C667.08,629.89 668.68,630.97 670.42,632.13 C672.09,629.12 671.99,629.78 672.97,628 C673.88,626.29 674.44,625.78 676.07,623.49 C673.67,621.44 672.93,620.73 671.4,619.59"/>
  <path fill="#dfdfdf" d="M665.42,631.36 C663,630.02 663.04,630.26 661.02,629.23 C659.76,631.79 658.71,636.19 657.99,638.98 C657.47,642.13 657.03,645.63 656.85,649.5 C658.98,650.1 658.09,649.78 659.96,650.31 C661.81,650.85 661.91,650.92 663.89,651.93 C664.5,647.74 665.01,645.49 666.06,642.65 C666.77,640.63 668.33,636.28 669.87,633.89 C667.79,632.62 666.98,632.46 665.42,631.36"/>
  <path fill="#dfdfdf" d="M660.21,652.83 C659.46,652.59 658.67,652.39 657.1,652.11 C656.8,657.63 656.79,658.98 656.94,664.5 C657.32,670.32 657.45,675.01 658.31,680.95 C659.33,680.71 659.56,680.47 661.42,680.49 C663.28,680.55 663.17,680.51 665.09,680.79 C663.77,675.18 663.7,673.31 663.3,666.73 C663.14,661.62 663.16,659.98 663.55,654.27 C662.09,653.66 661.45,653.3 660.21,652.83"/>
  <path fill="#dfdfdf" d="M662.79,683.28 C662.03,683.1 660.2,683.08 658.62,682.85 C660.35,692.75 661.72,696.45 664.9,702.74 C668.71,708.7 672.43,714.25 677.29,720 C677.88,719.59 678.31,719.09 678.88,718.55 C679.44,718.06 679.88,717.89 680.55,717.33 C675.01,709.4 674.01,707.11 670.68,699.95 C667.95,692.84 667.49,690.93 665.66,683.24 C664.18,683.72 664.04,683.73 662.79,683.28"/>
  <path fill="#dfdfdf" d="M680.24,720.24 C679.29,720.81 679.75,720.6 678.3,721.46 C680.6,724.38 682.2,726.1 686.46,730.67 C689.64,733.35 690.68,735.35 697.2,738.5 C697.98,737.63 698.02,737.52 698.4,736.96 C698.77,736.42 698.91,736.29 699.33,735.23 C695.95,733.9 692.18,731.42 689.54,728.7 C685.42,724.76 684.35,723.1 681.59,719.33 C680.95,719.71 680.67,719.86 680.24,720.24"/>
  <path fill="#dfdfdf" d="M700.99,738.08 C700.5,738.92 700.64,739.14 700.18,740.13 C703.17,742.07 703.81,742.28 711.13,744.01 C720.13,744.6 723.9,744.44 728.13,743.93 C727.97,742.78 727.96,742.67 727.91,741.58 C727.88,740.55 727.98,740.89 727.92,739.79 C719.51,740.18 716.96,739.58 713.64,739.23 C707.65,738.39 703.16,736.85 701.73,736.4 C701.08,737.56 701.16,737.26 700.99,738.08"/>
  <path fill="#dfdfdf" d="M730.33,741.8 C730.52,742.71 730.48,742.42 730.75,743.72 C737.72,742.56 737.86,742.7 746.28,740.87 C752.62,738.9 754.72,737.51 758.65,735.25 C758.93,733.83 758.87,733.99 758.54,733.42 C758.14,732.65 758.43,732.88 757.5,732.32 C752.74,735.21 747.88,736.25 745.15,737.16 C738.75,738.53 735.6,738.89 730.19,739.43 L730.33,741.8"/>
  <path fill="#dfdfdf" d="M760.44,731.53 C761.5,732.35 761.57,732.66 762.91,732.47 C765.07,732.03 765.35,731.49 767.44,729.63 C768.56,728.61 769.87,727.13 769.73,726.43 C769.27,725.51 768.73,723.54 767.69,724.92 C766.73,726.23 763.51,728.46 761.41,729.97 C759.81,731.17 760.02,731.22 760.44,731.53"/>
  <path fill="#dfdfdf" d="M770.87,723.84 C772.08,724.21 771.81,724.43 772.8,723.5 C773.59,722.7 774.22,721.5 775.7,719.6 C776.55,718.44 778.15,715.51 778.34,714.8 C778.45,712.81 777.66,711.73 776.71,713.29 C775.21,716.23 773.37,719.17 770.84,721.76 C769.48,723.25 770.31,723.65 770.87,723.84"/>
  <path fill="#dfdfdf" d="M778.36,711.11 C779.59,711.46 779.46,711.68 780.48,710.74 C781.26,709.89 782.11,708.05 783.08,705.8 C783.71,704.41 784.73,702.61 784.43,701.3 C783.76,699.9 782.35,699.15 781.69,700.83 C780.83,703.96 780.6,704.03 779.16,707.73 C778.55,709.3 777.97,710.8 778.36,711.11"/>
  <path fill="#dfdfdf" d="M782.41,697.73 C782.98,698.63 783.7,698.49 785.22,697.73 C786.3,696.95 785.99,695.38 786.12,692.89 C786.23,691.6 786.42,690.43 786.13,688.77 C785.57,687.34 783.44,686.99 782.98,688.75 C782.87,690.05 783.01,690.78 782.79,693 C782.36,696.6 782.08,696.99 782.41,697.73"/>
  <path fill="#dfdfdf" d="M783.46,685.25 C783.86,686 784.79,685.71 785.57,684.8 C786.24,683.64 785.51,682.11 785.36,680.04 C785.29,678.75 784.97,677.54 784.31,675.98 C783.76,675.06 782.58,675 782.39,676.79 C782.4,677.65 782.61,678.76 782.85,680.63 C783.08,682.7 783.06,683.97 783.46,685.25"/>
  <path fill="#dfdfdf" d="M781.41,672.83 C781.83,673.55 782.82,672.83 783.17,671.7 C783.38,670.03 782.5,668.4 781.96,666.45 C781.53,664.77 780.83,663.06 779.57,661.93 C778.51,661.19 777.11,660.83 777.3,662.56 C777.68,663.86 779.36,666.38 780.09,668.5 C780.68,670.46 780.97,671.57 781.41,672.83"/>
  <path fill="#dfdfdf" d="M773.74,658.91 C774.64,658.91 775.43,659.09 775.26,658.04 C774.94,657.11 774.17,656.7 772.42,655.38 C771.54,654.7 769.99,653.52 769.15,653.08 C768.03,652.6 766.39,652.05 766.87,653.67 C767.22,654.32 767.99,654.6 769.61,655.64 C771.3,656.83 773.2,658.75 773.74,658.91"/>
  <path fill="#000" d="M373.86,700.56 C356.76,704.66 332.45,714.55 322.48,720.68 C319.35,722.99 319.6,725.37 324.5,735.9 C328.07,742.8 331.44,748.27 332,748.59 C332.91,748.52 342.33,744.98 353.08,740.38 C363.82,736.06 377.37,730.72 383.67,730.08 C388.49,729.68 392.81,729.25 395.56,728.5 C396.64,731.36 395.97,729.76 397.97,734.27 C400.7,740.81 399.13,740.38 403.99,742.71 C409.54,744.76 421.75,739.89 422.06,739.76 C437.07,736.55 445.44,737.05 499.42,745.39 C553.42,753.76 561.71,755.47 576.77,763.17 L590.4,769.74 C591.97,770.48 592.73,770.9 594.39,770.77 C595.93,770.4 597.32,768.58 598.11,767.15 C598.11,767.15 601.37,759.4 602.28,756.65 C605.18,758.4 610.39,760.91 615.45,763.15 C621.5,765.98 635.07,773.69 645.76,780.04 C656.51,786.72 665.93,791.76 666.83,791.96 C667.43,791.72 670.75,786.82 674.33,780.41 C681.33,766.93 681.77,768.42 656.72,752.97 C622.91,732.17 590.2,719.87 586.59,727.85 C585.99,729.39 585.53,730.29 584.73,732.28 C581.37,731.04 572.58,727.74 563.78,724.97 C536.55,716.11 462.27,704.48 435.05,705.52 C426.24,705.8 420.3,707.35 415.32,708.12 C412.46,701.99 413.12,704.33 412.52,702.64 C409.86,696.46 395.21,695.29 373.86,700.56"/>
  <path fill="#dfdfdf" d="M401.27,699.61 C388.76,698.53 365.77,703.74 342.11,713.93 C321.85,722.56 321.39,723.29 326.82,734.58 C329.16,739.76 331.72,744.45 332.02,745.05 C332.03,745.06 332.06,745.09 332.06,745.1 C333.27,745.28 342,742.13 352.48,737.64 C363.5,733.09 377.32,728.52 383.4,727.4 C387.89,726.37 391.11,726.51 395.12,726.18 C394.42,721.74 395.32,725.57 392.46,716.94 C395.94,708.79 401.92,702.71 408.2,701.69 C406.53,700.65 404.34,699.96 401.27,699.61"/>
  <path fill="#dfdfdf" d="M496.1,713.64 C472.15,710.18 448.67,707.87 437.88,707.99 C419.53,708.57 409.71,713.09 402.87,715.86 C400.33,717.36 398.24,717.69 395.49,718.96 C397.55,724.24 397.64,727.17 399.39,731.8 C401.22,736.85 400.44,739.14 405.62,740.25 C411.03,740.79 422.18,736.89 422.35,736.83 C437.07,733.58 445.74,734.11 499.43,742.42 C553.43,750.8 564.23,754.01 576.75,760.2 C585.84,764.73 589.49,767.47 593.15,767.46 C595.04,767.09 595.92,764.91 597.29,761.57 C599.07,757.24 601.15,751.47 602.3,743.98 C599.43,743.33 600.73,744.75 596.84,742.57 C588.47,737.67 586.91,737.12 581.38,734 C574.78,730.36 568.75,729.37 559.12,726.19 C547.86,722.83 522.85,718.3 498.4,713.99 L496.1,713.64"/>
  <path fill="#dfdfdf" d="M596.39,728.4 C594.75,728.22 593.39,728.22 592.21,728.4 C594.69,730.4 597.72,733.38 599.3,734.53 C605.32,738.74 605.32,741.4 604.76,747.06 C604.47,749.61 604.25,750.56 603.28,753.98 C605.55,755.3 611.13,758.34 615.74,760.54 C621.51,763.05 635.35,770.75 646.33,777.42 C656.63,783.8 665.32,788.32 666.71,788.46 C666.73,788.45 666.77,788.43 666.79,788.42 C666.79,788.42 666.83,788.43 666.83,788.43 C667.14,787.87 669.69,783.58 672.04,778.75 C675.79,771.48 676.01,769.2 673.18,766.44 C666.79,760.76 641.17,746.33 622.67,737.66 C610.8,732.28 602.18,729.18 596.39,728.4"/>
  <path fill="#dfdfdf" d="M589.13,729.84 C588.93,730.04 588.77,730.25 588.6,730.48 C587.76,731.52 587.6,732.57 587.33,733.92 C589.3,735.01 595.69,739.54 599.02,740.12 C599.74,740.21 600.28,740.24 600.61,740.16 C600.63,740.15 600.68,740.13 600.7,740.12 C600.7,740.12 600.73,740.09 600.74,740.09 C600.76,740.07 600.8,740.04 600.82,740.02 C600.83,740.01 600.85,739.99 600.86,739.98 C600.86,739.97 600.9,739.95 600.9,739.94 C600.9,739.93 600.9,739.91 600.9,739.9 C600.9,739.89 600.9,739.86 600.9,739.86 L600.9,739.82 C600.9,739.81 600.9,739.78 600.9,739.77 C600.89,739.74 600.88,739.68 600.86,739.64 C600.85,739.62 600.83,739.57 600.82,739.55 C600.8,739.52 600.76,739.45 600.74,739.42 C600.23,738.75 598.88,737.6 596.1,735.63 C594.16,734.23 591.03,731.63 589.13,729.84"/>
  <path fill="#dfdfdf" d="M409.92,703.48 C408.01,704.67 404.82,706.33 402.75,707.49 C399.07,709.73 398.5,711.45 396.88,714.93 C396.85,715 396.82,715.09 396.8,715.13 L396.8,715.17 C396.81,715.17 396.84,715.18 396.84,715.18 C396.85,715.18 396.88,715.18 396.88,715.18 C397.41,714.93 400.24,712.89 406.93,711.31 C412.69,709.86 409.63,710.56 413.2,709.5 C410.83,705.45 410.56,705.15 410.25,704.23 C410.16,703.96 410.05,703.72 409.92,703.48"/>
  <path fill="#000" d="M434.94,715.71 L435.6,721.67 L439.52,721.77 C440.97,721.78 441.84,721.58 442.43,721.13 C442.96,720.61 443.14,719.93 443.04,718.77 C442.89,717.69 442.57,717.04 441.97,716.54 C441.33,716.11 440.37,715.88 438.86,715.82 L434.94,715.71 M432.46,713.6 L439,713.76 C440.07,713.79 440.84,713.87 441.36,713.97 C441.88,714.08 442.33,714.25 442.76,714.48 C443.52,714.94 444.09,715.48 444.57,716.22 C445.01,716.98 445.28,717.79 445.41,718.79 C445.5,719.76 445.4,720.51 445.1,721.21 C444.75,721.87 444.27,722.34 443.53,722.73 C444.22,722.96 444.68,723.27 445.03,723.74 C445.36,724.22 445.61,724.95 445.82,726.05 L446.33,728.96 C446.45,729.58 446.57,730.04 446.72,730.36 C446.89,730.67 447.07,730.87 447.33,731.02 L447.38,731.51 L444.74,731.43 C444.49,731.04 444.26,730.29 444.03,729.07 L444.02,729 L443.63,726.71 C443.4,725.5 443.09,724.8 442.65,724.39 C442.16,724.05 441.22,723.85 439.56,723.79 L435.85,723.69 L436.68,731.22 L434.41,731.16 L432.46,713.6 M452.5,724.63 L457.78,725.02 L454.61,717.09 L452.5,724.63 M448.12,731.56 L453.17,714.48 L455.71,714.67 L463.26,732.68 L460.77,732.5 L458.6,727.12 L451.93,726.63 L450.5,731.73 L448.12,731.56 L448.12,731.56 M471.46,733.55 L470.96,716.09 L473.27,716.37 L473.47,723.54 L482.28,724.63 L482.07,717.46 L484.39,717.74 L484.89,735.21 L482.57,734.93 L482.34,726.74 L473.53,725.66 L473.76,733.84 L471.46,733.55 M491.51,728.95 L496.8,729.74 L494.13,721.66 L491.51,728.95 M486.63,735.45 L492.85,718.98 L495.4,719.36 L501.82,737.72 L499.31,737.34 L497.49,731.87 L490.8,730.87 L489.02,735.81 L486.63,735.45 M515.55,733.61 L517.79,733.99 C517.58,736.17 516.93,737.54 515.58,738.68 C514.15,739.69 512.65,739.99 510.48,739.68 C508.01,739.17 506.35,738.14 504.9,736.22 C503.6,734.2 503,731.98 502.98,728.95 C503.11,726.13 503.78,724.34 505.22,722.85 C506.81,721.51 508.49,721.09 511.02,721.44 C512.99,721.83 514.42,722.55 515.71,723.77 C516.92,725.08 517.55,726.44 517.77,728.28 L515.51,727.89 C515.28,726.68 514.82,725.8 514.02,724.99 C513.18,724.24 512.21,723.78 510.89,723.52 C509.08,723.28 507.93,723.61 506.85,724.68 C505.9,725.84 505.43,727.34 505.34,729.65 C505.36,731.83 505.79,733.48 506.73,735.01 C507.79,736.48 508.94,737.25 510.63,737.61 C512.08,737.81 513.09,737.59 514.06,736.87 C514.98,736.06 515.42,735.1 515.55,733.61 M520.4,740.94 L521.18,723.68 L523.48,724.14 L523.17,731.23 L531.97,732.99 L532.29,725.9 L534.6,726.36 L533.82,743.62 L531.51,743.16 L531.87,735.07 L523.07,733.32 L522.71,741.4 L520.4,740.94 M537.49,744.45 L538.66,727.27 L540.96,727.78 L539.79,744.96 L537.49,744.45 M547.22,731.26 L546.66,737.04 L550.59,738.01 C552.05,738.35 552.97,738.35 553.65,738.06 C554.3,737.68 554.62,737.08 554.76,735.96 C554.83,734.9 554.64,734.21 554.14,733.61 C553.58,733.06 552.66,732.63 551.15,732.23 L547.22,731.26 M545.16,728.69 L551.72,730.32 C552.78,730.58 553.55,730.82 554.05,731.03 C554.54,731.26 554.97,731.52 555.36,731.83 C556.03,732.43 556.49,733.07 556.81,733.88 C557.11,734.7 557.21,735.52 557.14,736.49 C557.03,737.44 556.77,738.12 556.33,738.72 C555.84,739.27 555.26,739.61 554.43,739.82 C555.08,740.19 555.48,740.58 555.74,741.1 C555.97,741.64 556.08,742.38 556.06,743.47 L555.98,746.33 C555.97,746.95 556,747.41 556.08,747.75 C556.18,748.08 556.33,748.31 556.56,748.51 L556.51,748.98 L553.86,748.33 C553.7,747.9 553.62,747.14 553.63,745.93 L553.64,745.86 L553.72,743.6 C553.73,742.41 553.57,741.69 553.21,741.2 C552.78,740.77 551.87,740.37 550.22,739.94 L546.5,739.02 L545.79,746.33 L543.52,745.76 L545.16,728.69 M559.16,749.77 L561.38,732.84 L563.66,733.47 L561.45,750.41 L559.16,749.77"/>
  <path fill="#171796" d="M401.23,365.36 C393.33,368.73 389.51,374.04 388.7,382.44 C388.16,391.51 390,397.74 395.02,403.39 C397.31,406.05 399.04,408.38 399.19,408.96 C399.06,409.44 397.53,411.28 395.34,413.19 C390.28,417.59 387.57,423.25 387.42,429.98 C387.52,436.87 389.45,441.6 394.91,448.55 L399.41,454.16 L394.48,459.13 C384.68,469.39 385.01,481.69 395.23,493.87 L399.62,499.14 L500.45,513.84 L601.17,528.5 L606.09,523.75 C615.59,514.24 615.57,503.45 606.2,490.1 L601.38,483.46 L605.88,478.55 C615.69,467.45 615.46,456.83 605.34,443.72 C600.74,437.89 600.66,437.1 604.27,435.04 C610.19,431.31 613.64,418.78 611.12,409.79 C606.76,396.66 590.5,386.61 579.76,390.36 C577.84,391.14 574.01,393.3 571.09,395.18 C568.11,397.21 565.59,398.53 564.99,398.59 C564.56,398.4 562.06,396.22 559.32,393.38 C548.65,382.8 537.02,381.67 526.35,390.32 L522.39,393.66 L517.15,387.92 C506.26,376.1 493.57,374.54 482.47,383.54 L478.51,386.88 L474.22,382.28 C467.79,375.38 463.81,373.1 456.46,371.8 C449.33,370.77 443.18,372.65 437.83,377.61 L435.26,379.98 L429.7,374.37 C419.22,363.9 411.37,361.38 401.23,365.36"/>
  <path fill="#000" d="M400.7,364.06 C410.73,360.2 420.22,363.18 430.55,373.46 L435.17,378.13 L436.87,376.56 C442.57,371.24 448.74,369.32 456.48,370.46 C463.32,371.72 469.27,375.2 475.1,381.41 L478.47,385.04 L481.55,382.44 C487.39,377.69 493.16,375.84 499.85,376.54 C506.53,377.51 512.32,380.84 518.03,387.06 L522.36,391.8 L525.44,389.21 C531.04,384.66 536.49,382.79 542.76,383.25 C549.02,383.97 554.55,386.89 560.18,392.5 C563.21,395.66 564.79,397.14 564.99,397.25 C565.36,397.2 567.03,396.25 570.26,394.02 L570.27,394.02 L570.29,394.01 C574.11,391.53 577.04,389.92 579.16,389.08 C584.93,387.01 590.96,388.09 598.42,392.56 C605.68,397.18 610.11,402.56 612.37,409.52 C613.72,414.22 613.67,419.12 612.17,424.91 C610.49,430.75 608.25,434.25 604.98,436.25 C603.58,437.03 603.04,437.52 603.02,437.96 C603.19,438.67 604.18,440.26 606.32,442.95 C616.74,456.45 616.95,468.14 606.88,479.54 L603.09,483.69 L607.22,489.38 C617.11,503.46 617.08,514.76 607.05,524.79 L601.74,529.92 C534.86,521.42 467.97,509.2 399.06,500.42 L394.3,494.7 C388.9,488.29 386.28,482.24 386,475.66 C385.98,469.05 388.34,463.5 393.51,458.11 L397.64,453.94 L393.94,449.33 C388.72,442.65 386.23,436.44 386.11,429.82 C386.24,422.52 388.86,416.92 394.44,412.1 C396.77,410.11 397.79,409.07 397.88,408.79 C397.82,408.66 396.64,407.16 394.11,404.24 C388.98,398.47 386.84,391.48 387.39,382.17 C388.25,373.3 392.39,367.6 400.61,364.09 L400.62,364.09 L400.7,364.06 M390.01,382.7 C389.52,391.17 391.39,397.4 395.92,402.52 L395.93,402.54 L395.95,402.56 C399.03,406.15 400.36,408.19 400.5,409.13 C400.36,410.22 399.14,411.76 396.24,414.28 C391.21,418.65 388.87,423.6 388.73,430.14 C388.86,436.06 391.11,441.65 395.88,447.77 L401.18,454.38 L395.46,460.15 C390.76,465.07 388.62,470.02 388.62,475.91 C388.88,481.78 391.26,487.2 396.16,493.05 L400.18,497.87 C466.32,506.34 532.46,518.38 600.6,527.08 L605.14,522.71 C614.12,513.7 614.12,503.57 605.18,490.82 L599.68,483.24 L604.87,477.56 C613.96,467.25 613.78,456.74 604.37,444.5 C601.87,441.33 600.68,439.27 600.42,437.96 C600.35,436.33 601.22,435.17 603.56,433.82 C606.25,432.13 608.13,429.12 609.64,423.91 C611,418.62 611.06,414.22 609.88,410.05 C607.85,403.85 603.87,399.05 597.28,394.85 C590.6,390.85 585.36,389.87 580.36,391.64 C578.38,392.43 575.59,393.96 571.91,396.35 C568.15,398.91 566.03,399.94 564.99,399.93 C564.09,399.66 562.03,397.97 558.45,394.27 C553.37,389.22 548.46,386.61 542.91,385.96 C537.29,385.56 532.39,387.26 527.26,391.42 L522.42,395.51 L516.26,388.77 C511.05,383.12 505.89,380.12 499.92,379.24 C493.91,378.62 488.73,380.31 483.38,384.65 L478.54,388.73 L473.35,383.14 C467.99,377.46 462.62,374.29 456.44,373.14 C449.49,372.13 443.97,373.86 438.8,378.66 L435.36,381.84 L428.85,375.27 C423.77,370.21 419.35,367.16 415.11,365.71 C410.82,364.47 406.69,364.75 401.84,366.63 L401.83,366.63 L401.75,366.66 L401.75,366.66 C394.44,369.82 390.78,374.84 390.01,382.7"/>
  <path fill="#d42e12" d="M396.03,505.12 C385.57,516.03 385.7,527.71 396.24,541.33 L400.2,546.33 L395.71,550.81 C393.25,553.32 390.66,556.84 389.71,558.73 C386.43,567.04 388.86,578.04 395.6,585.66 C399.66,590.35 399.74,591.76 395.92,596.23 C394.22,598.13 392.23,600.8 391.43,602.24 C383.65,617.23 395.22,637.33 413.15,640.13 C420.37,640.98 425.38,639.52 430.39,634.95 C434.41,631.37 436.1,631.52 439.7,635.74 C444.92,642.22 451.25,646.47 456.93,647.49 C463.57,648.37 467.4,647.01 474.17,641.55 L479.2,637.27 L483.8,643.14 C493.99,655.64 503.59,657.45 517.19,649.17 L522.65,645.85 L527.36,650.95 C533.37,657.14 537.56,659.74 543.42,660.73 C549.31,661.49 553.34,659.94 560.22,654.11 L565.79,649.43 L570.07,653.99 C578.42,662.75 582.74,665.62 588.8,666.54 C595.12,667.28 599.26,665.86 605.6,660.93 C611.44,656.05 614.31,650.57 613.74,645.15 C612.82,639.33 608.06,628.9 604.43,624.71 L601.32,621.25 L606.14,616.26 C616.61,604.72 616.68,595.4 606.35,581.42 L602.07,575.62 L606.57,570.59 C616.6,559.4 616.47,548.59 606.35,536.02 L600.9,529.53 L500.71,515.05 L400.53,500.54 L396.03,505.12"/>
  <path fill="#000" d="M395.09,504.07 L399.94,499.12 L500.71,513.71 L601.45,528.25 L607.31,535.22 C617.88,548.34 618,559.95 607.58,571.57 L603.78,575.83 L607.35,580.67 C612.76,587.98 615.3,594.13 615.39,599.92 C615.21,605.69 612.61,611.22 607.12,617.27 L603.14,621.4 L605.33,623.84 C607.24,626.02 609.22,629.26 611.34,633.83 C613.39,638.42 614.58,642.1 615.04,645.1 C615.74,651.26 613.09,656.55 606.48,662.04 C600.4,666.73 594.83,668.55 588.8,667.89 C583.13,666.98 576.84,662.85 569.19,654.86 L565.82,651.27 L561.14,655.2 C554.69,660.63 549.11,662.77 543.42,662.07 C537.77,661.1 532.37,657.85 526.48,651.81 L522.57,647.57 L517.99,650.37 C504.38,658.62 493.16,656.55 482.83,643.89 L479.14,639.2 L475.07,642.66 C468.79,647.68 463.07,649.61 456.93,648.83 C450.37,647.7 444.58,643.81 438.74,636.52 C437.24,634.72 436.2,633.92 435.28,633.75 C434.28,633.76 433.11,634.4 431.34,636 C426.27,640.63 420.57,642.34 413.15,641.48 C403.67,640.05 396.79,635.27 391.51,626.36 C386.47,617.28 386.08,609.44 390.26,601.49 C391.24,599.69 392.75,597.64 394.91,595.25 C396.64,593.24 397.37,591.93 397.42,590.91 C397.3,589.94 396.5,588.6 394.7,586.53 C391.14,582.53 388.86,578.09 387.57,572.61 C386.44,567.05 386.74,562.46 388.5,558.06 L388.51,558.05 L388.52,558.03 C389.76,555.47 391.76,552.78 394.74,549.78 L398.43,546.1 L395.27,542.11 C384.14,527.75 384.04,515.59 395.05,504.1 L395.05,504.1 L395.09,504.07 M396.79,506.36 C387.05,516.71 387.21,527.6 397.22,540.56 L401.98,546.56 L396.68,551.83 C393.89,554.64 392.05,557.1 390.92,559.4 C389.38,563.29 389.12,567.34 390.12,572.32 C391.29,577.25 393.32,581.21 396.5,584.79 C398.83,587.49 399.87,589.43 400.04,591.15 C399.99,592.87 399.09,594.69 396.94,597.2 C394.89,599.47 393.49,601.37 392.6,602.99 L392.59,603 L392.59,603.02 C388.88,610.1 389.23,617.06 393.73,625.19 C398.49,633.22 404.63,637.49 413.15,638.79 C419.81,639.56 424.88,638.03 429.43,633.89 C431.72,631.83 433.41,631.02 435.13,631.05 C436.89,631.32 438.54,632.45 440.66,634.95 C445.99,641.61 451.15,645.13 456.93,646.14 C462.37,646.81 467.48,645.04 473.26,640.44 L479.25,635.35 L484.77,642.38 C489.66,648.37 494.23,651.58 499.25,652.64 C504.39,653.44 509.8,651.99 516.4,647.98 L522.74,644.12 L528.24,650.1 C533.61,655.59 538.43,658.51 543.42,659.39 C548.39,659.98 553.36,658.01 559.3,653.02 L565.76,647.59 L570.95,653.11 C578.09,660.57 583.8,664.38 588.8,665.2 C594.16,665.77 599.15,664.11 604.73,659.82 C610.64,654.91 613,650.37 612.44,645.19 C612.02,642.46 610.92,639.05 608.99,634.74 C607.01,630.47 605.21,627.5 603.53,625.57 L599.51,621.09 L605.16,615.25 C610.21,609.67 612.59,604.71 612.76,599.59 C612.67,594.46 610.34,588.92 605.35,582.16 L600.37,575.41 L605.56,569.61 C614.97,559.08 614.9,548.66 605.4,536.83 L600.34,530.8 L500.71,516.4 L401.11,501.96 L397.01,506.14 L396.79,506.36"/>
  <path fill="#000" d="M373.86,488.26 L373.88,511.88 L374.13,630.06 C374.02,635.87 376.95,637.53 381.96,642.02 C389.98,649.33 398.08,656.28 443.13,659.38 C484.49,665.78 492.96,670.55 497.4,688.01 L499.7,697.83 L501.73,688.69 C505.07,672.81 514.56,670.79 554.53,676.31 C605.71,684.54 610.18,681.26 617.41,675.81 C617.59,675.68 622.43,672.19 624.17,668.29 C625.56,663.77 624.99,660.2 624.97,660.08 L624.97,523.57 L624.97,379.87 C583.54,375.19 542.11,368.8 499.42,362.19 C457.98,355.78 416.55,349.35 373.86,344.56 L373.86,488.26 M622.09,524.43 L622.63,642.85 C622.67,658.86 623.63,663.71 622.09,666.65 C620.34,669.46 617.09,673.12 617.07,673.14 C609.26,680.12 602.69,681.23 567.13,675.73 C544.16,672.53 531.78,671.26 513.68,671.37 C510.59,673.43 503.36,672.22 499.42,686.74 C494.52,670.83 491.49,670.96 491.35,670.95 C472.13,659.81 463.55,659.91 432.74,655.22 C412.63,655.2 391.72,648.74 383.38,639.56 C383.3,639.56 382.29,639.72 376.74,632.55 L376.75,511.16 L376.74,489.77 L376.74,347.85 C417.23,352.46 457.71,358.69 499.42,365.15 C539.9,371.42 580.38,377.71 622.09,382.5 L622.09,524.43"/>
  <path fill="#fff" d="M464.69,421.47 C457.12,436.55 456.82,443.49 463.09,457.46 C468.13,468.17 473.76,475.16 481.71,480.54 C502.71,494.26 528.41,490.62 539.17,472.34 C545.51,460.79 544.78,441.03 537.78,430.74 L535.86,428.07 L534.04,434.82 C531.4,444.5 528.9,449.01 523.76,453.69 C513.86,462.18 501.12,462.38 487.16,454.13 C476.55,447.5 472.38,440.37 468.33,420.99 L467.37,416.2 L464.69,421.47"/>
  <path fill="#000" d="M462.18,422.12 C455.88,436.06 456.43,443.31 464.2,460.27 C484.9,504.03 543.92,498.17 544.16,451.83 C543.88,444.35 544.01,439.69 540.11,430.82 C538.22,427.15 537.44,426.01 536.1,423.75 C535.58,425.9 534.76,429.72 533.19,435.99 C527.1,457.98 508.65,465.43 488.45,453.93 C477.15,447.29 472.12,439.1 469.11,422.58 L467.09,411.92 L462.18,422.12 M481.81,454.39 C496.02,465.63 516.37,465.94 527.41,455.51 C531.68,450.96 534.34,443.81 535.5,439.88 C536.58,436.11 536.77,435.56 537.44,431.73 C539.12,435.81 539.98,437.92 540.82,443.94 C541.88,452.9 540.11,459.7 538.09,464.82 C527.58,490.53 496.05,493.69 475.46,471.15 C465.57,460.15 458.09,441.61 462.11,430.32 C463.59,426.41 464.02,424.15 465.95,420.08 C466.29,423.12 466.58,427.18 468.53,433.72 C471.26,442.78 475.72,449.45 481.81,454.39"/>
  <path fill="#e9d315" d="M450.69,556.42 C450.53,562.8 450.82,565.74 451.79,570.64 C448.6,567.09 445.48,564.46 441.12,561.21 C435.25,556.93 428.99,553.23 426.2,556.65 C424.33,560.53 430.19,566.13 435.61,570.14 C441.28,574.13 444.44,575.16 448.13,577.12 C445,578.28 440.86,578.94 436.13,581.25 C431.26,583.86 425.07,588.61 427.27,593.25 C430.37,597.44 437.24,594.35 441.91,591.88 C445.51,589.89 450.2,586.72 452.11,585.03 C451.73,587.85 450.72,593.36 450.73,598.84 C450.88,605.8 451.72,612.56 456.53,613.72 C461.5,613.95 462.42,606.24 462.41,599.96 C462.29,593.78 461.63,589.34 461.05,586.2 C463.19,588.74 466.41,592.39 470.63,596.48 C474.53,600.06 482.18,604.98 485.24,601.72 C487.6,597.81 483.95,593.58 476.32,587.37 C471.05,583.22 467.41,581.43 463.98,579.48 C467.47,578.62 471.14,578.64 476.7,576.17 C485.02,572.19 488.13,569.63 485.83,564.7 C483.1,560.18 478.71,561.58 471,565.36 C467.01,567.43 463.28,570.25 460.71,572.36 C461.28,568.52 461.88,562.87 461.87,558.57 C461.72,551.84 460.44,544.28 456.22,543.13 C451.93,542.9 450.97,549.13 450.69,556.42"/>
  <path fill="#000" d="M449.63,556.23 C450.05,545.94 452.03,541.67 456.22,542.04 C460.64,543.01 462.7,548.06 462.94,558.72 C462.95,561.88 462.71,565.52 462.19,569.69 C465.17,567.41 467.9,565.66 470.43,564.36 C474.76,562.23 477.88,561.12 480.04,560.8 C483.27,560.59 485.15,561.56 486.75,564.29 C488.13,567.22 487.95,569.26 486.11,571.59 C484.58,573.21 481.75,575.04 477.26,577.19 C474.63,578.37 471.52,579.26 467.73,579.9 L467.04,580.02 C470.9,582.21 474.15,584.37 476.9,586.54 C481.06,589.93 483.82,592.67 485.4,594.87 C487.38,598.01 487.57,600.13 486.13,602.46 C484.44,604.44 482.2,604.52 477.97,602.71 C474.99,601.27 472.4,599.5 469.97,597.24 C467.48,594.83 465.06,592.3 462.67,589.62 C463.14,593.06 463.41,596.54 463.48,600.11 C463.49,604.05 463.11,607.19 462.36,609.8 C461.01,613.66 459.41,615.02 456.53,614.81 C452.03,613.87 449.94,609 449.66,598.69 C449.65,595.95 449.95,592.34 450.6,587.8 C448.44,589.41 445.76,591.09 442.5,592.87 C439.3,594.56 436.63,595.63 434.32,596.18 C430.31,596.9 428.1,596.21 426.39,593.73 C425.03,591.07 425.52,588.84 428.18,585.69 C430.13,583.64 432.5,581.88 435.55,580.25 C437.61,579.24 440.35,578.23 443.89,577.24 L445.3,576.84 L444.5,576.46 C440.89,574.72 437.79,572.92 435.09,571.01 C431.82,568.6 429.3,566.3 427.34,563.97 C424.64,560.45 424.09,558.22 425.28,555.96 C427.81,552.58 432.74,553.89 441.66,560.34 C445.02,562.86 447.85,565.24 450.2,567.51 C449.72,563.95 449.53,560.21 449.63,556.23 M451.76,556.61 C451.64,561.65 452,566.25 452.83,570.57 L453.56,574.17 L451.05,571.32 C448.48,568.47 445.04,565.41 440.59,562.08 C432.87,556.49 428.93,555.13 427.11,557.35 C426.45,558.66 426.93,560.16 428.9,562.7 C430.7,564.84 433.06,566.99 436.14,569.26 C438.71,571.08 441.68,572.8 445.15,574.48 C446.63,575.18 447.75,575.75 448.52,576.17 L450.68,577.35 L448.63,578.16 C447.83,578.47 446.53,578.87 444.69,579.38 C441.28,580.34 438.65,581.3 436.71,582.26 C433.84,583.78 431.63,585.41 429.83,587.31 C427.82,589.64 427.38,591.16 428.16,592.76 C429.19,594.2 430.7,594.56 433.61,594.02 C435.75,593.5 438.27,592.49 441.31,590.88 C445.75,588.45 449.04,586.23 451.34,584.16 L453.6,582.07 L453.17,585.33 L452.85,587.49 C452.12,592.36 451.78,596.16 451.79,598.98 C452.03,607.86 453.45,611.87 456.53,612.62 C458.3,612.73 459.34,611.7 460.32,608.86 C461.01,606.46 461.36,603.53 461.35,599.82 C461.26,595.16 460.81,590.67 460.01,586.25 L459.3,582.55 L461.81,585.55 C464.89,589.2 468.04,592.58 471.29,595.72 C473.5,597.78 475.86,599.39 478.59,600.71 C481.73,602.08 483.31,602.14 484.35,600.99 C485.25,599.51 485.08,598.1 483.72,595.96 C482.29,593.98 479.71,591.43 475.75,588.2 C472.99,586.02 469.65,583.83 465.66,581.6 L463.57,580.43 L461.18,579.05 L463.58,578.41 C464.34,578.21 465.51,577.98 467.11,577.72 C470.73,577.1 473.68,576.26 476.15,575.15 C480.43,573.1 483.06,571.42 484.44,569.98 C485.69,568.4 485.82,567.04 484.91,565.11 C483.92,563.44 482.71,562.85 480.58,562.99 C478.63,563.28 475.71,564.34 471.58,566.37 C468.53,567.93 465.19,570.19 461.45,573.26 L459.19,575.13 L459.66,572.04 C460.45,566.72 460.82,562.2 460.81,558.42 C460.6,549.19 459.21,544.98 456.21,544.22 C453.42,544.1 452.12,547.71 451.76,556.61"/>
  <path fill="#fff" d="M462.82,579.36 C462.54,583.27 460.1,585.4 456.25,585.11 C452.44,584.25 449.95,581.34 449.67,577.4 C449.95,573.49 452.39,571.35 456.25,571.64 C460.05,572.5 462.54,575.42 462.82,579.36 L462.82,579.36"/>
  <path fill="#000" d="M464.05,579.55 C463.97,581.85 463.29,583.4 461.76,584.85 C460.11,586.18 458.5,586.62 456.25,586.37 C454.02,585.95 452.36,585.01 450.73,583.2 C449.21,581.31 448.52,579.5 448.44,577.22 C448.53,574.92 449.2,573.36 450.73,571.9 C452.38,570.58 453.99,570.13 456.25,570.38 C458.47,570.8 460.12,571.75 461.76,573.55 C463.28,575.45 463.96,577.25 464.05,579.54 L461.6,579.17 C461.54,577.61 461.07,576.37 460.03,575.07 C458.91,573.83 457.77,573.18 456.25,572.9 C454.7,572.72 453.59,573.03 452.46,573.94 C451.41,574.94 450.95,576 450.9,577.58 C450.95,579.15 451.42,580.38 452.46,581.69 C453.58,582.92 454.72,583.57 456.25,583.85 C457.79,584.03 458.9,583.72 460.03,582.82 C461.08,581.82 461.54,580.75 461.6,579.18 L464.05,579.55"/>
  <path fill="#e9d315" d="M536.8,569.6 C536.63,575.98 536.92,578.92 537.89,583.82 C534.71,580.26 531.59,577.62 527.23,574.34 C521.36,570.01 515.1,566.24 512.3,569.62 C510.44,573.47 516.3,579.16 521.72,583.22 C527.39,587.26 530.55,588.31 534.24,590.29 C531.11,591.44 526.96,592.07 522.24,594.34 C517.36,596.9 511.18,601.57 513.38,606.23 C516.48,610.46 523.34,607.45 528.01,605.01 C531.62,603.05 536.31,599.9 538.22,598.21 C537.83,601.03 536.83,606.54 536.83,612.01 C536.99,618.98 537.83,625.75 542.64,626.9 C547.61,627.14 548.53,619.42 548.52,613.15 C548.39,606.96 547.74,602.53 547.16,599.38 C549.3,601.92 552.52,605.56 556.73,609.62 C560.64,613.18 568.28,618.02 571.35,614.72 C573.7,610.77 570.06,606.61 562.43,600.47 C557.15,596.36 553.52,594.59 550.09,592.65 C553.57,591.79 557.25,591.79 562.81,589.27 C571.13,585.21 574.23,582.58 571.94,577.69 C569.21,573.21 564.82,574.66 557.11,578.5 C553.12,580.59 549.39,583.43 546.82,585.54 C547.39,581.7 547.98,576.05 547.98,571.75 C547.82,565.02 546.55,557.47 542.32,556.32 C538.04,556.08 537.08,562.31 536.8,569.6"/>
  <path fill="#000" d="M535.73,569.4 C536.16,559.11 538.14,554.85 542.33,555.23 C546.75,556.2 548.8,561.24 549.05,571.9 C549.06,575.06 548.81,578.7 548.3,582.87 C551.28,580.58 554,578.82 556.54,577.5 C560.86,575.35 563.98,574.2 566.15,573.86 C569.38,573.61 571.25,574.57 572.86,577.27 C574.24,580.18 574.06,582.23 572.22,584.58 C570.69,586.22 567.86,588.09 563.36,590.28 C560.74,591.48 557.63,592.4 553.83,593.06 L553.15,593.18 C557,595.35 560.26,597.49 563,599.63 C567.17,602.98 569.93,605.69 571.51,607.87 C573.48,610.98 573.68,613.09 572.24,615.45 C570.55,617.45 568.31,617.56 564.08,615.79 C561.09,614.38 558.51,612.63 556.07,610.39 C553.59,608 551.17,605.48 548.78,602.8 C549.25,606.24 549.52,609.72 549.58,613.29 C549.59,617.23 549.22,620.37 548.47,622.98 C547.12,626.84 545.52,628.21 542.64,628 C538.14,627.06 536.04,622.18 535.77,611.87 C535.75,609.12 536.06,605.51 536.71,600.98 C534.55,602.58 531.87,604.25 528.61,606.01 C525.41,607.68 522.74,608.72 520.43,609.25 C516.41,609.92 514.21,609.2 512.5,606.7 C511.14,604.02 511.63,601.79 514.29,598.68 C516.24,596.66 518.6,594.93 521.66,593.33 C523.72,592.34 526.46,591.36 529.99,590.39 L531.4,590 L530.6,589.61 C527,587.85 523.89,586.02 521.2,584.09 C517.93,581.65 515.4,579.31 513.45,576.96 C510.75,573.39 510.2,571.15 511.39,568.92 C513.92,565.57 518.85,566.95 527.77,573.48 C531.13,576.02 533.96,578.41 536.3,580.69 C535.83,577.12 535.64,573.39 535.73,569.4 M537.86,569.79 C537.75,574.83 538.11,579.43 538.94,583.75 L539.66,587.36 L537.15,584.5 C534.59,581.64 531.15,578.56 526.7,575.2 C518.98,569.55 515.04,568.13 513.21,570.33 C512.55,571.63 513.03,573.13 515,575.7 C516.8,577.87 519.16,580.05 522.24,582.35 C524.82,584.19 527.79,585.94 531.25,587.63 C532.74,588.35 533.86,588.92 534.63,589.34 L536.79,590.53 L534.74,591.33 C533.94,591.63 532.63,592.04 530.8,592.53 C527.38,593.47 524.76,594.41 522.81,595.35 C519.94,596.84 517.74,598.45 515.93,600.33 C513.93,602.63 513.48,604.14 514.27,605.76 C515.29,607.21 516.81,607.59 519.72,607.08 C521.86,606.59 524.37,605.6 527.42,604.01 C531.86,601.61 535.14,599.41 537.45,597.34 L539.7,595.26 L539.28,598.51 L538.96,600.67 C538.23,605.54 537.89,609.34 537.9,612.16 C538.14,621.04 539.56,625.06 542.63,625.81 C544.41,625.92 545.45,624.89 546.43,622.04 C547.12,619.64 547.46,616.71 547.45,613 C547.36,608.34 546.92,603.85 546.11,599.44 L545.41,595.73 L547.92,598.73 C550.99,602.37 554.14,605.74 557.39,608.86 C559.61,610.91 561.97,612.5 564.7,613.79 C567.84,615.13 569.42,615.17 570.46,614 C571.36,612.51 571.19,611.11 569.83,608.98 C568.4,607.01 565.82,604.5 561.86,601.31 C559.09,599.15 555.76,596.98 551.77,594.76 L549.68,593.6 L547.29,592.23 L549.68,591.58 C550.45,591.38 551.62,591.15 553.21,590.88 C556.84,590.25 559.78,589.38 562.26,588.25 C566.53,586.17 569.17,584.45 570.54,582.99 C571.79,581.4 571.93,580.04 571.02,578.12 C570.03,576.46 568.82,575.88 566.68,576.05 C564.74,576.36 561.82,577.45 557.68,579.51 C554.64,581.09 551.3,583.37 547.56,586.44 L545.3,588.32 L545.77,585.22 C546.55,579.9 546.92,575.39 546.91,571.61 C546.71,562.38 545.32,558.17 542.32,557.41 C539.53,557.28 538.23,560.89 537.86,569.79"/>
  <path fill="#fff" d="M548.93,592.54 C548.64,596.45 546.2,598.58 542.35,598.3 C538.54,597.44 536.06,594.52 535.78,590.57 C536.06,586.67 538.5,584.54 542.35,584.83 C546.16,585.68 548.64,588.59 548.93,592.54 L548.93,592.54"/>
  <path fill="#000" d="M550.15,592.72 C550.07,595.02 549.4,596.58 547.87,598.04 C546.22,599.36 544.61,599.81 542.35,599.55 C540.13,599.14 538.47,598.19 536.84,596.38 C535.32,594.48 534.63,592.67 534.55,590.39 C534.63,588.09 535.31,586.53 536.84,585.08 C538.48,583.76 540.1,583.32 542.35,583.57 C544.57,583.99 546.23,584.93 547.86,586.73 C549.38,588.63 550.07,590.43 550.15,592.72 L547.7,592.35 C547.65,590.79 547.17,589.55 546.13,588.25 C545.01,587.02 543.88,586.37 542.35,586.08 C540.81,585.91 539.7,586.21 538.57,587.12 C537.52,588.12 537.06,589.18 537,590.76 C537.06,592.33 537.53,593.56 538.57,594.87 C539.69,596.11 540.83,596.76 542.35,597.04 C543.9,597.22 545.01,596.91 546.14,596 C547.18,595 547.65,593.94 547.7,592.36 L550.15,592.72"/>
  <path fill="#1A1A1A" opacity="0.2" d="M8,195.25 C178.83,110.03 349.03,140.83 521.26,167.28 C676.47,191.12 833.42,211.85 992,132.75 L992,804.75 C821.17,889.97 650.97,859.17 478.74,832.72 C323.53,808.88 166.58,788.15 8,867.25 L8,195.25 M39.25,214.64 L39.25,819.14 C345.81,690.88 650.43,915.18 960.75,785.36 L960.75,180.86 C654.19,309.12 349.57,84.82 39.25,214.64"/>
</svg>
