<svg xmlns="http://www.w3.org/2000/svg" viewBox="0 0 64 64" enable-background="new 0 0 64 64"><circle cx="32" cy="32" r="30" fill="#4fd1d9"/><path d="m41.5 44c-2.2 2.3-5.4 3.4-9.5 3.4s-7.3-1.1-9.5-3.4c-2.9-2.8-4.4-6.8-4.4-12 0-5.3 1.5-9.3 4.4-12 2.2-2.3 5.4-3.4 9.5-3.4s7.3 1.1 9.5 3.4c2.9 2.7 4.4 6.7 4.4 12 0 5.2-1.5 9.2-4.4 12m-3.8-4.4c1.4-1.8 2.1-4.3 2.1-7.6 0-3.3-.7-5.8-2.1-7.5s-3.3-2.7-5.7-2.7-4.3.9-5.7 2.7-2.1 4.3-2.1 7.6c0 3.3.7 5.8 2.1 7.6s3.3 2.7 5.7 2.7 4.3-1.1 5.7-2.8" fill="#fff"/></svg>