<?xml version="1.0" encoding="UTF-8" standalone="no"?><svg xmlns:dc="http://purl.org/dc/elements/1.1/" xmlns:cc="http://creativecommons.org/ns#" xmlns:rdf="http://www.w3.org/1999/02/22-rdf-syntax-ns#" xmlns:svg="http://www.w3.org/2000/svg" xmlns="http://www.w3.org/2000/svg" viewBox="0 0 45 45" style="enable-background:new 0 0 45 45;" xml:space="preserve" version="1.1" id="svg2"><metadata id="metadata8"><rdf:RDF><cc:Work rdf:about=""><dc:format>image/svg+xml</dc:format><dc:type rdf:resource="http://purl.org/dc/dcmitype/StillImage"/></cc:Work></rdf:RDF></metadata><defs id="defs6"><clipPath id="clipPath16" clipPathUnits="userSpaceOnUse"><path id="path18" d="M 4,31 C 1.791,31 0,29.209 0,27 L 0,27 0,9 C 0,6.791 1.791,5 4,5 l 0,0 28,0 c 2.209,0 4,1.791 4,4 l 0,0 0,18 c 0,2.209 -1.791,4 -4,4 l 0,0 -28,0 z"/></clipPath></defs><g transform="matrix(1.25,0,0,-1.25,0,45)" id="g10"><g id="g12"><g clip-path="url(#clipPath16)" id="g14"><path id="path20" style="fill:#006a4e;fill-opacity:1;fill-rule:nonzero;stroke:none" d="m 0,5 36,0 0,5.2 -36,0 L 0,5 Z"/><g transform="translate(15.5,15.5)" id="g22"><path id="path24" style="fill:#006a4e;fill-opacity:1;fill-rule:nonzero;stroke:none" d="m 0,0 20.5,-0.1 0,5.2 L 0,5.1 0,0 Z"/></g><path id="path26" style="fill:#006a4e;fill-opacity:1;fill-rule:nonzero;stroke:none" d="m 15.5,25.8 20.5,0 0,5.2 -20.5,0 0,-5.2 z"/><path id="path28" style="fill:#ffce00;fill-opacity:1;fill-rule:nonzero;stroke:none" d="m 15.5,20.6 20.5,0 0,5.2 -20.5,0 0,-5.2 z"/><g transform="translate(0,15.5)" id="g30"><path id="path32" style="fill:#ffce00;fill-opacity:1;fill-rule:nonzero;stroke:none" d="m 0,0 0,-5.3 36,0 0,5.2 L 15.5,0 0,0 Z"/></g><g transform="translate(0.0259,31)" id="g34"><path id="path36" style="fill:#d21034;fill-opacity:1;fill-rule:nonzero;stroke:none" d="m 0,0 0,-5.167 0,-5.166 0,-5.167 15.5,0 0,5.167 0,5.166 L 15.5,0 0,0 Z"/></g><g transform="translate(12.3386,24.5865)" id="g38"><path id="path40" style="fill:#ffffff;fill-opacity:1;fill-rule:nonzero;stroke:none" d="M 0,0 -3.454,0 -3.467,0.04 -4.563,3.413 -4.585,3.346 -5.672,0 l -3.554,0 -0.035,0 2.858,-2.077 0.046,-0.033 -1.068,-3.284 -0.041,-0.129 2.903,2.11 2.904,-2.11 L -2.768,-2.11 0.135,0 0,0 Z"/></g></g></g></g></svg>
