<svg xmlns="http://www.w3.org/2000/svg" viewBox="0 0 64 64" enable-background="new 0 0 64 64"><path d="m6 47c1.9 3.4 4.4 6.2 7.3 8.5l48.4-27.9c-.6-3.6-1.8-7.2-3.7-10.6-1.9-3.4-4.4-6.2-7.3-8.5l-48.4 27.9c.6 3.7 1.8 7.2 3.7 10.6" fill="#3e4347"/><g fill="#ffe62e"><path d="m19.1 59.1l42.8-24.7c.2-2.3.1-4.5-.2-6.8l-48.4 27.9c1.8 1.4 3.8 2.6 5.8 3.6"/><path d="m2.3 36.4l48.4-27.9c-1.8-1.4-3.7-2.6-5.8-3.6l-42.8 24.7c-.2 2.3-.1 4.6.2 6.8"/></g><path d="M44.9,4.9c-8.6-4.1-19-4-27.9,1.1C8.1,11.1,2.9,20.1,2.1,29.6L44.9,4.9z" fill="#699635"/><path d="m19.1 59.1c8.6 4.1 19 4 27.9-1.1 8.9-5.1 14.1-14.1 14.9-23.6l-42.8 24.7" fill="#ed4c5c"/><g fill="#fff"><path d="m22 40.1l4.6.6-3.5-3.2 1.8-4.3-4 2.3-3.5-3.3 1.1 4.7-3.9 2.2 4.5.7 1.1 4.6z"/><path d="m44 27.4l4.6.6-3.5-3.3 1.8-4.2-3.9 2.2-3.5-3.2 1 4.6-3.9 2.3 4.6.6 1.1 4.6z"/></g></svg>