<svg xmlns="http://www.w3.org/2000/svg" viewBox="0 0 64 64" enable-background="new 0 0 64 64"><path d="M32,62c13.1,0,24.2-8.3,28.3-20H3.7C7.8,53.7,18.9,62,32,62z" fill="#428bc1"/><path d="M32,2C18.9,2,7.8,10.4,3.7,22h56.6C56.2,10.4,45.1,2,32,2z" fill="#ed4c5c"/><path d="M60.3,42c1.1-3.1,1.7-6.5,1.7-10s-0.6-6.9-1.7-10H3.7C2.6,25.1,2,28.5,2,32s0.6,6.9,1.7,10H60.3z" fill="#f9f9f9"/><path d="m32 41c-5 0-9-4-9-9s4-9 9-9 9 4 9 9-4 9-9 9m0-17.7c-4.8 0-8.7 3.9-8.7 8.7s3.9 8.7 8.7 8.7 8.7-3.9 8.7-8.7-3.9-8.7-8.7-8.7" fill="#3e4347"/><path d="m32 24.4c-4.2 0-7.6 3.4-7.6 7.6 0 4.2 3.4 7.6 7.6 7.6 4.2 0 7.6-3.4 7.6-7.6s-3.4-7.6-7.6-7.6m0 13.3c-3.1 0-5.7-2.6-5.7-5.7s2.6-5.7 5.7-5.7 5.7 2.6 5.7 5.7-2.6 5.7-5.7 5.7" fill="#ed4c5c"/><path d="M26,32c0-3.3,2.7-6,6-6s6,2.7,6,6h1.3c0-4-3.3-7.3-7.3-7.3S24.7,28,24.7,32H26z" fill="#ffce31"/><path d="m34.9 31.7c0 1.6-1.3 2.9-2.9 2.9-1.6 0-2.9-1.3-2.9-2.9s1.3-2.9 2.9-2.9c1.6 0 2.9 1.3 2.9 2.9" fill="#428bc1"/><path d="m33.6 33.6l-1.6-1.1-1.6 1.1.6-1.7-1.4-1.1h1.7l.6-1.7.6 1.7h1.7l-1.2 1.1.6 1.7" fill="#ffce31"/><path d="m29.4 29.5c0 0-.4-.1-.6-.1.2-.3.3-1 .3-1s-.6.3-.8.7c-.1-.2-.3-.5-.3-.5s-.3.3-.2.6c0 .3.4.7.4.7s.5.2.8.1c.2-.2.4-.5.4-.5" fill="#699635"/><path d="m28.9 30.3c0 0-.4 0-.6.1.1-.4 0-1 0-1s-.5.5-.6.8c-.2-.2-.5-.4-.5-.4s-.2.4-.1.6.6.6.6.6.6 0 .8-.1.4-.6.4-.6" fill="#83bf4f"/><path d="m28.6 31.2c0 0-.4.1-.6.2 0-.4-.2-1-.2-1s-.3.6-.3 1c-.2-.2-.5-.3-.5-.3s-.1.4.1.6c.2.2.7.4.7.4s.5-.1.7-.3c.2-.2.1-.6.1-.6" fill="#699635"/><path d="m28.6 32.2c0 0-.3.2-.5.4-.1-.4-.5-.9-.5-.9s-.2.6-.1 1c-.3-.1-.6-.1-.6-.1s0 .4.3.6c.2.2.8.2.8.2s.5-.3.6-.5 0-.7 0-.7" fill="#83bf4f"/><path d="m28.8 33.1c0 0-.3.3-.4.5-.2-.4-.7-.7-.7-.7s0 .6.2 1c-.3 0-.6 0-.6 0s.1.4.4.5c.3.1.8 0 .8 0s.4-.4.5-.7-.2-.6-.2-.6" fill="#699635"/><path d="m29.3 34c0 0-.2.3-.3.6-.3-.3-.9-.5-.9-.5s.2.6.4.9c-.3 0-.6.2-.6.2s.2.3.5.4c.3 0 .8-.2.8-.2s.3-.5.3-.8c.1-.4-.2-.6-.2-.6" fill="#83bf4f"/><path d="m29.9 34.7c0 0-.1.4-.1.6-.3-.2-1-.3-1-.3s.3.5.7.8c-.2.1-.5.3-.5.3s.3.3.6.2c.3 0 .7-.4.7-.4s.2-.5.1-.8c-.1-.2-.5-.4-.5-.4" fill="#699635"/><path d="m30.8 35.2c0 0 0 .4.1.6-.4-.1-1 0-1 0s.5.4.8.6c-.2.2-.4.4-.4.4s.4.2.6.1c.3-.1.6-.6.6-.6s0-.6-.1-.8c-.3-.2-.6-.3-.6-.3" fill="#83bf4f"/><path d="m34.6 29.5c0 0 .4-.1.6-.1-.2-.3-.3-1-.3-1s.6.3.8.7c.1-.2.3-.5.3-.5s.3.3.2.6c0 .3-.4.7-.4.7s-.5.1-.8 0c-.2-.1-.4-.4-.4-.4" fill="#699635"/><path d="m35.1 30.3c0 0 .4 0 .6.1-.1-.4 0-1 0-1s.5.5.6.8c.2-.2.5-.4.5-.4s.2.4.1.6-.7.6-.7.6-.6 0-.8-.1-.3-.6-.3-.6" fill="#83bf4f"/><path d="m35.4 31.2c0 0 .4.1.6.2 0-.4.2-1 .2-1s.3.6.3 1c.2-.2.5-.3.5-.3s.1.4-.1.6c-.2.2-.7.4-.7.4s-.5-.1-.7-.3c-.2-.2-.1-.6-.1-.6" fill="#699635"/><path d="m35.4 32.2c0 0 .3.2.5.4.1-.4.5-.9.5-.9s.2.6.1 1c.3-.1.6-.1.6-.1s0 .4-.3.6c-.2.2-.8.2-.8.2s-.5-.3-.6-.5c-.1-.3 0-.7 0-.7" fill="#83bf4f"/><path d="m35.2 33.1c0 0 .3.3.4.5.2-.4.7-.7.7-.7s0 .6-.2 1c.3 0 .6 0 .6 0s-.1.4-.4.5c-.3.1-.8 0-.8 0s-.4-.4-.5-.7.2-.6.2-.6" fill="#699635"/><path d="m34.7 34c0 0 .2.3.3.6.3-.3.9-.5.9-.5s-.2.6-.4.9c.3 0 .6.2.6.2s-.2.3-.5.4c-.3 0-.8-.2-.8-.2s-.3-.5-.3-.8c-.1-.4.2-.6.2-.6" fill="#83bf4f"/><path d="m34.1 34.7c0 0 .1.4.1.6.3-.2 1-.3 1-.3s-.3.5-.7.8c.2.1.5.3.5.3s-.3.3-.6.2c-.3 0-.7-.4-.7-.4s-.2-.5-.1-.8c.1-.2.5-.4.5-.4" fill="#699635"/><path d="m33.2 35.2c0 0 0 .4-.1.6.4-.1 1 0 1 0s-.5.4-.8.6c.2.2.4.4.4.4s-.4.2-.6.1c-.3-.1-.6-.6-.6-.6s0-.6.1-.8c.3-.2.6-.3.6-.3" fill="#83bf4f"/></svg>