<svg xmlns="http://www.w3.org/2000/svg" viewBox="0 0 1000 1000">
  <defs/>
  <path fill="#00247d" d="M8,195.25 C178.83,110.03 349.03,140.83 521.26,167.28 C676.47,191.12 833.42,211.85 992,132.75 L992,804.75 C821.17,889.97 650.97,859.17 478.74,832.72 C323.53,808.88 166.58,788.15 8,867.25 L8,195.25"/>
  <path fill="#fff" d="M8,195.25 C26.16,186.19 44.31,178.41 63.01,171.61 C126.04,191.91 189.04,226.03 254,269.78 C317.04,226.19 380.06,190.47 444.99,155.63 L500,164 L511,195.75 C444.33,230.98 377.67,265.7 309.01,308.71 C375.65,358 442.31,414.13 511,471.65 L489,528.35 C411.48,463.44 333.91,398.81 254,344.91 C176.44,398.61 98.86,463.87 19,555.96 L8,531.25 L8,493.68 C71.05,419.16 134.05,360.26 198.99,310 C135.99,272.71 72.92,244.75 8,232.82 L8,195.25"/>
  <path fill="#cf142b" d="M254,307.34 L254,332.39 C175.23,386.93 96.44,453.39 15.33,547.69 L8,531.25 C89.2,435.27 170.36,365.26 254,307.34 M254,307.34 C266.1,307.24 278.2,307.42 290.67,307.86 C362.16,359.31 433.66,419.39 507.33,481.1 L500,500 C418.86,432.02 337.65,363.77 254,307.34 M8,195.25 C89.19,210.18 170.33,251 254,307.34 C241.9,307.46 229.8,307.85 217.33,308.61 C148.29,265.74 79.15,233.38 8,220.29 L8,195.25 M254,307.34 L254,282.3 C323.1,234.53 392.16,196.22 463.33,158.37 L500,164 C418.81,206.88 337.61,249.54 254,307.34"/>
  <path fill="#fff" d="M295,140.03 L295,252.03 C389.72,255.98 484.4,274.84 582,288.2 L582,400.2 C487.32,387.24 392.56,368.1 295,364.03 L295,588.03 C267.94,586.93 240.88,587.01 213,588.89 L213,364.89 C145.36,369.55 77.68,384.49 8,419.25 L8,307.25 C75.69,273.48 143.27,257.69 213,252.89 L213,140.89 C240.07,139.07 267.12,138.9 295,140.03"/>
  <path fill="#cf142b" d="M278.6,139.51 L278.6,273.91 C378.74,276.19 478.81,296.48 582,310.6 L582,377.8 C481.92,364.1 381.73,343.46 278.6,341.11 L278.6,587.51 C262.36,587.16 246.13,587.27 229.4,587.98 L229.4,341.58 C156.36,344.79 83.25,359.31 8,396.85 L8,329.65 C81.11,293.18 154.09,277.7 229.4,274.38 L229.4,139.98 C245.64,139.29 261.87,139.15 278.6,139.51"/>
  <path fill="#5b97b1" d="M8,531.25 C170.66,450.1 332.46,474.06 500,500 L500,164 C661.81,189.05 825.35,215.88 992,132.75 L992,804.75 C821.17,889.97 650.97,859.17 478.74,832.72 C323.53,808.88 166.58,788.15 8,867.25 L8,531.25"/>
  <path fill="#ffce00" d="M537.18,719.53 L561.32,824.58 L498.12,752.29 L576.23,763.98 L513.04,817.31 L537.18,719.53"/>
  <path fill="#ffce00" d="M678.32,706.17 L654.18,805.71 L630.04,701.83 L693.24,769.8 C667.46,768.4 641.68,765.99 615.12,762.84 L678.32,706.17"/>
  <path fill="#ffce00" d="M678.32,569.55 L654.18,669.09 L630.04,565.21 L693.24,633.18 C667.46,631.78 641.68,629.37 615.12,626.22 L678.32,569.55"/>
  <path fill="#ffce00" d="M781.64,672.6 L757.5,775.08 L733.37,673.81 C754.22,694.66 775.08,714.7 796.56,734.25 C770.78,736.37 745.01,736.94 718.45,736.28 C739.3,716.11 760.15,695.2 781.64,672.6"/>
  <path fill="#ffce00" d="M781.64,375.34 L757.5,477.82 L733.37,376.55 C754.22,397.4 775.08,417.44 796.56,436.98 C770.78,439.11 745.01,439.68 718.45,439.01 C739.3,418.85 760.15,397.94 781.64,375.34"/>
  <path fill="#ffce00" d="M825.08,564.1 L849.22,661.88 C828.37,644.83 807.52,626.58 786.03,606.69 C811.81,604.96 837.57,601.74 864.14,596.34 C843.28,621.28 822.43,644.97 800.94,668.24 L825.08,564.1"/>
  <path fill="#ffce00" d="M868.48,323.27 L844.34,429.3 L820.2,331.31 C841.06,349.44 861.91,366.47 883.4,382.58 C857.61,388.82 831.85,393.05 805.28,395.66 C826.14,372.93 846.99,349.15 868.48,323.27"/>
  <path fill="#ffce00" d="M912.33,468.66 L936.46,562.1 C915.61,548.91 894.76,534.23 873.27,517.69 C899.05,511.93 924.81,504.24 951.38,493.74 C930.52,522.69 909.67,550.09 888.19,576.86 L912.33,468.66"/>
  <path fill="#ffce00" d="M912.33,206.5 L936.46,299.94 C915.61,286.75 894.76,272.07 873.27,255.53 C899.05,249.78 924.81,242.09 951.38,231.58 C930.52,260.54 909.67,287.93 888.19,314.7 L912.33,206.5"/>
  <path fill="#1A1A1A" opacity="0.2" d="M8,195.25 C178.83,110.03 349.03,140.83 521.26,167.28 C676.47,191.12 833.42,211.85 992,132.75 L992,804.75 C821.17,889.97 650.97,859.17 478.74,832.72 C323.53,808.88 166.58,788.15 8,867.25 L8,195.25 M39.25,214.64 L39.25,819.14 C345.81,690.88 650.43,915.18 960.75,785.36 L960.75,180.86 C654.19,309.12 349.57,84.82 39.25,214.64"/>
</svg>
