<svg xmlns="http://www.w3.org/2000/svg" viewBox="0 0 1000 1000">
  <defs/>
  <path fill="#000" d="M8,195.25 C178.83,110.03 349.03,140.83 521.26,167.28 C676.47,191.12 833.42,211.85 992,132.75 L992,804.75 C821.17,889.97 650.97,859.17 478.74,832.72 C323.53,808.88 166.58,788.15 8,867.25 L8,195.25"/>
  <path fill="#fff" d="M8,195.25 C178.83,110.03 349.03,140.83 521.26,167.28 C676.47,191.12 833.42,211.85 992,132.75 L992,580.75 C821.17,665.97 650.97,635.17 478.74,608.72 C323.53,584.88 166.58,564.15 8,643.25 L8,195.25"/>
  <path fill="#ce1126" d="M8,195.25 C178.83,110.03 349.03,140.83 521.26,167.28 C676.47,191.12 833.42,211.85 992,132.75 L992,356.75 C821.17,441.97 650.97,411.17 478.74,384.72 C323.53,360.88 166.58,340.15 8,419.25 L8,195.25"/>
  <path id="o" fill="#007a3d" d="M303.2,403.61 L281.24,472.01 C294.96,476.94 308.69,482.18 322.83,487.87 L303.2,403.61"/>
  <path fill="#007a3d" d="M303.2,403.61 L325.16,474.19 C311.44,477.77 297.71,481.62 283.57,485.92 L303.2,403.61"/>
  <path fill="#007a3d" d="M370.79,459.45 C347.34,456.88 323.89,454.88 299.72,453.74 L299.72,498.54 C323.18,484.85 346.63,472.04 370.79,459.45"/>
  <path fill="#007a3d" d="M370.79,459.45 L313.3,497.26 L287.59,459.81 C315.05,458.56 342.5,458.58 370.79,459.45"/>
  <path fill="#007a3d" d="M235.61,453.24 C254.58,466.72 273.55,480.95 293.1,496.25 L318.81,461.36 C291.35,457.41 263.9,454.52 235.61,453.24"/>
  <path fill="#007a3d" d="M235.61,453.24 C259.07,452.45 282.51,452.81 306.68,454.09 L306.68,498.89 C283.22,482.86 259.77,467.66 235.61,453.24"/>
  <path fill="#007a3d" d="M344.97,538.25 L323.01,467.26 C309.29,470.87 295.56,474.74 281.42,479.08 L344.97,538.25"/>
  <path fill="#007a3d" d="M344.97,538.25 L287.48,491.86 L313.18,456.82 L344.97,538.25"/>
  <path fill="#007a3d" d="M261.43,534.21 C280.41,520.11 299.38,506.69 318.92,493.43 L293.22,455.82 L261.43,534.21"/>
  <path fill="#007a3d" d="M261.43,534.21 L283.39,465.29 C297.11,470.25 310.84,475.52 324.98,481.24 C304.01,498.02 283.04,515.4 261.43,534.21"/>
  <path fill="#007a3d" d="M696.8,450.79 L674.84,518.69 C688.57,524.24 702.29,529.53 716.43,534.65 L696.8,450.79"/>
  <path fill="#007a3d" d="M696.8,450.79 L718.76,520.86 C705.03,525.08 691.31,528.97 677.17,532.7 L696.8,450.79"/>
  <path fill="#007a3d" d="M764.39,501.77 C740.93,502.56 717.49,502.2 693.32,500.92 L693.32,545.72 C716.77,532.18 740.22,517.82 764.39,501.77"/>
  <path fill="#007a3d" d="M764.39,501.77 C745.41,516.53 726.44,530.54 706.9,544.34 L681.19,506.74 C708.65,506.38 736.1,504.94 764.39,501.77"/>
  <path fill="#007a3d" d="M629.21,495.56 L686.7,543.33 L712.41,508.29 C684.96,505.22 657.5,500.88 629.21,495.56"/>
  <path fill="#007a3d" d="M629.21,495.56 C652.66,498.13 676.11,500.13 700.28,501.27 L700.28,546.07 C676.83,530.19 653.38,513.44 629.21,495.56"/>
  <path fill="#007a3d" d="M738.57,583.58 L716.61,514.03 C702.88,518.21 689.16,522.07 675.02,525.77 C695.99,545.55 716.97,564.73 738.57,583.58"/>
  <path fill="#007a3d" d="M738.57,583.58 C719.6,569.44 700.63,554.62 681.08,538.78 L706.78,503.9 L738.57,583.58"/>
  <path fill="#007a3d" d="M655.03,579.54 C674,567.11 692.97,554.25 712.52,540.35 L686.82,502.9 L655.03,579.54"/>
  <path fill="#007a3d" d="M655.03,579.54 L676.99,512.06 C690.72,517.58 704.44,522.85 718.58,527.93 C697.6,545.66 676.63,562.64 655.03,579.54"/>
  <path fill="#1A1A1A" opacity="0.2" d="M8,195.25 C178.83,110.03 349.03,140.83 521.26,167.28 C676.47,191.12 833.42,211.85 992,132.75 L992,804.75 C821.17,889.97 650.97,859.17 478.74,832.72 C323.53,808.88 166.58,788.15 8,867.25 L8,195.25 M39.25,214.64 L39.25,819.14 C345.81,690.88 650.43,915.18 960.75,785.36 L960.75,180.86 C654.19,309.12 349.57,84.82 39.25,214.64"/>
</svg>
