<svg xmlns="http://www.w3.org/2000/svg" viewBox="0 0 1000 1000">
  <defs/>
  <path d="M8,195.25 C178.83,110.03 349.03,140.83 521.26,167.28 C676.47,191.12 833.42,211.85 992,132.75 L992,804.75 C821.17,889.97 650.97,859.17 478.74,832.72 C323.53,808.88 166.58,788.15 8,867.25 L8,195.25"/>
  <path fill="#CE1126" d="M641.04,438.67 C640.76,519.34 578.16,575.65 500,563.84 C421.88,551.46 359.24,479.4 358.96,400.05 C359.24,319.38 421.84,263.07 500,274.88 C578.12,287.26 640.76,359.32 641.04,438.67"/>
  <path fill="#CE1126" d="M8,419.25 C178.83,334.03 349.03,364.83 521.26,391.28 C676.47,415.12 833.42,435.85 992,356.75 L992,580.75 C821.17,665.97 650.97,635.17 478.74,608.72 C323.53,584.88 166.58,564.15 8,643.25 L8,419.25"/>
  <path id="r" fill="#CE1126" d="M500,190.88 C495.1,190.55 493.54,196.95 493.44,204.42 C493.48,222.35 495.61,231.64 500,258.08 C504.47,233 506.52,224.16 506.56,206.46 C506.43,198.75 504.42,191.97 500,190.88"/>
  <path fill="#CE1126" d="M519.44,194.75 C514.52,193.98 512.41,200.13 511.67,207.47 C510.18,225.1 511.54,234.42 513.72,260.82 C520.37,236.57 523.19,228.06 524.74,210.66 C525.26,203.07 523.81,196.22 519.44,194.75"/>
  <path fill="#CE1126" d="M538.73,200.3 C533.84,199.1 531.17,204.96 529.8,212.11 C526.81,229.31 527.39,238.6 527.34,264.74 C536.11,241.5 539.68,233.38 542.72,216.4 C543.9,208.99 543.02,202.13 538.73,200.3"/>
  <path fill="#CE1126" d="M557.73,207.43 C552.89,205.84 549.7,211.37 547.71,218.28 C543.22,234.93 543.02,244.11 540.75,269.82 C551.58,247.74 555.87,240.06 560.38,223.62 C562.2,216.43 561.9,209.61 557.73,207.43"/>
  <path fill="#CE1126" d="M576.28,216.07 C571.54,214.09 567.86,219.26 565.26,225.89 C559.32,241.9 558.33,250.91 553.85,276 C566.66,255.23 571.64,248.03 577.59,232.23 C580.04,225.3 580.31,218.56 576.28,216.07"/>
  <path fill="#CE1126" d="M594.26,226.13 C589.65,223.79 585.49,228.57 582.31,234.88 C574.95,250.13 573.19,258.92 566.54,283.23 C581.22,263.9 586.86,257.21 594.2,242.15 C597.26,235.53 598.12,228.92 594.26,226.13"/>
  <path fill="#CE1126" d="M611.52,237.5 C607.08,234.83 602.48,239.21 598.73,245.16 C590.02,259.58 587.5,268.08 578.72,291.43 C595.18,273.67 601.42,267.54 610.09,253.3 C613.74,247.02 615.17,240.57 611.52,237.5"/>
  <path fill="#CE1126" d="M627.93,250.12 C623.69,247.13 618.68,251.07 614.4,256.63 C604.41,270.14 601.14,278.3 590.3,300.56 C608.4,284.48 615.22,278.93 625.15,265.59 C629.36,259.68 631.34,253.44 627.93,250.12"/>
  <path fill="#CE1126" d="M643.37,263.87 C639.36,260.59 633.98,264.08 629.21,269.23 C618,281.75 614.02,289.53 601.2,310.55 C620.8,296.23 628.13,291.3 639.26,278.93 C643.99,273.43 646.52,267.43 643.37,263.87"/>
  <path fill="#CE1126" d="M657.71,278.68 C653.97,275.12 648.26,278.15 643.02,282.85 C630.69,294.32 626.03,301.67 611.33,321.31 C632.28,308.86 640.08,304.58 652.3,293.24 C657.52,288.18 660.58,282.44 657.71,278.68"/>
  <path fill="#CE1126" d="M670.86,294.45 C667.41,290.64 661.41,293.19 655.75,297.41 C642.38,307.77 637.08,314.64 620.61,332.78 C642.75,322.27 650.96,318.66 664.19,308.43 C669.86,303.84 673.41,298.4 670.86,294.45"/>
  <path fill="#CE1126" d="M682.7,311.09 C679.57,307.05 673.34,309.11 667.3,312.83 C652.99,322.01 647.09,328.38 628.97,344.88 C652.13,336.39 660.69,333.48 674.82,324.41 C680.91,320.33 684.93,315.21 682.7,311.09"/>
  <path fill="#CE1126" d="M693.16,328.52 C690.37,324.27 683.94,325.81 677.57,329.02 C662.44,336.96 655.97,342.78 636.35,357.54 C660.35,351.13 669.19,348.93 684.13,341.1 C690.57,337.54 695.04,332.78 693.16,328.52"/>
  <path fill="#CE1126" d="M702.14,346.65 C699.71,342.2 693.15,343.22 686.49,345.89 C670.65,352.53 663.67,357.76 642.69,370.67 C667.35,366.38 676.41,364.94 692.03,358.39 C698.79,355.38 703.66,351.02 702.14,346.65"/>
  <path fill="#CE1126" d="M709.59,365.36 C707.54,360.75 700.89,361.23 693.99,363.33 C677.55,368.62 670.13,373.23 647.95,384.18 C673.08,382.07 682.28,381.39 698.48,376.19 C705.5,373.76 710.74,369.83 709.59,365.36"/>
  <path fill="#CE1126" d="M715.44,384.56 C713.78,379.81 707.09,379.74 700.01,381.25 C683.11,385.14 675.28,389.09 652.08,397.99 C677.49,398.08 686.77,398.19 703.41,394.39 C710.64,392.57 716.21,389.1 715.44,384.56"/>
  <path fill="#CE1126" d="M280.35,355.24 C279.91,360.2 286.03,363.11 293.21,364.79 C310.49,368.55 319.4,368.38 344.95,370.71 C321.02,359.61 312.47,355.47 295.49,351.65 C288.06,350.13 281.52,350.83 280.35,355.24"/>
  <path fill="#CE1126" d="M284.56,335.89 C283.7,340.78 289.56,344.25 296.59,346.58 C313.55,351.93 322.48,352.58 347.92,357.25 C324.84,344.06 316.65,339.16 299.99,333.75 C292.69,331.55 286.1,331.62 284.56,335.89"/>
  <path fill="#CE1126" d="M290.41,317.07 C289.13,321.85 294.7,325.85 301.52,328.83 C318.03,335.74 326.91,337.24 352.05,344.22 C330,329.03 322.23,323.39 306.01,316.43 C298.9,313.54 292.32,312.98 290.41,317.07"/>
  <path fill="#CE1126" d="M297.86,298.95 C296.18,303.57 301.39,308.09 307.97,311.7 C323.89,320.14 332.66,322.47 357.31,331.73 C336.45,314.65 329.16,308.32 313.51,299.84 C306.64,296.29 300.11,295.08 297.86,298.95"/>
  <path fill="#CE1126" d="M306.84,281.72 C304.77,286.13 309.6,291.12 315.87,295.34 C331.09,305.26 339.68,308.41 363.65,319.9 C344.14,301.05 337.38,294.07 322.43,284.14 C315.85,279.94 309.42,278.1 306.84,281.72"/>
  <path fill="#CE1126" d="M317.3,265.52 C314.84,269.69 319.25,275.12 325.18,279.92 C339.57,291.23 347.92,295.2 371.03,308.82 C353.02,288.35 346.84,280.79 332.7,269.48 C326.47,264.67 320.19,262.2 317.3,265.52"/>
  <path fill="#CE1126" d="M329.14,250.54 C326.33,254.42 330.28,260.24 335.81,265.58 C349.27,278.2 357.32,282.95 379.39,298.6 C363.02,276.67 357.47,268.6 344.25,256 C338.4,250.63 332.32,247.55 329.14,250.54"/>
  <path fill="#CE1126" d="M342.29,236.92 C339.14,240.47 342.61,246.62 347.7,252.46 C360.12,266.27 367.79,271.77 388.67,289.33 C374.06,266.12 369.17,257.61 356.98,243.84 C351.57,237.95 345.72,234.28 342.29,236.92"/>
  <path fill="#CE1126" d="M356.63,224.79 C353.17,227.98 356.13,234.41 360.74,240.68 C372.04,255.56 379.28,261.76 398.8,281.08 C386.07,256.8 381.88,247.92 370.79,233.11 C365.86,226.75 360.3,222.54 356.63,224.79"/>
  <path fill="#CE1126" d="M372.07,214.28 C368.31,217.08 370.74,223.72 374.85,230.37 C384.93,246.18 391.68,253.02 409.7,273.93 C398.94,248.78 395.48,239.62 385.6,223.91 C381.18,217.15 375.94,212.43 372.07,214.28"/>
  <path fill="#CE1126" d="M388.48,205.47 C384.46,207.85 386.34,214.65 389.91,221.62 C398.7,238.2 404.91,245.62 421.28,267.94 C412.58,242.14 409.88,232.78 401.27,216.32 C397.4,209.23 392.53,204.05 388.48,205.47"/>
  <path fill="#CE1126" d="M405.74,198.45 C401.49,200.39 402.81,207.27 405.8,214.49 C413.24,231.7 418.86,239.62 433.46,263.16 C426.89,236.93 424.96,227.46 417.69,210.4 C414.4,203.04 409.93,197.45 405.74,198.45"/>
  <path fill="#CE1126" d="M423.72,193.25 C419.26,194.74 420.01,201.64 422.41,209.05 C428.44,226.71 433.43,235.07 446.15,259.61 C441.75,233.19 440.62,223.68 434.74,206.19 C432.05,198.62 428.01,192.68 423.72,193.25"/>
  <path fill="#CE1126" d="M442.27,189.9 C437.65,190.94 437.82,197.8 439.62,205.32 C444.18,223.28 448.51,231.99 459.25,257.33 C457.06,230.92 456.72,221.47 452.29,203.7 C450.22,196 446.65,189.76 442.27,189.9"/>
  <path fill="#CE1126" d="M461.27,188.41 C456.52,188.98 456.11,195.74 457.28,203.31 C460.35,221.41 463.97,230.4 472.66,256.32 C472.7,230.15 473.16,220.83 470.2,202.93 C468.77,195.17 465.7,188.69 461.27,188.41"/>
  <path fill="#CE1126" d="M480.56,188.75 C475.72,188.86 474.73,195.47 475.26,203.02 C476.83,221.11 479.72,230.28 486.28,256.57 C488.54,230.85 489.8,221.73 488.33,203.86 C487.56,196.1 485,189.44 480.56,188.75"/>
  <path d="M8,402.45 C178.83,317.23 349.03,348.03 521.26,374.48 C676.47,398.32 833.42,419.05 992,339.95 L992,356.75 C821.17,441.97 650.97,411.17 478.74,384.72 C323.53,360.88 166.58,340.15 8,419.25 L8,402.45"/>
  <path fill="#339E35" d="M8,643.25 C178.83,558.03 349.03,588.83 521.26,615.28 C676.47,639.12 833.42,659.85 992,580.75 L992,804.75 C821.17,889.97 650.97,859.17 478.74,832.72 C323.53,808.88 166.58,788.15 8,867.25 L8,643.25"/>
  <path fill="#1A1A1A" opacity="0.2" d="M8,195.25 C178.83,110.03 349.03,140.83 521.26,167.28 C676.47,191.12 833.42,211.85 992,132.75 L992,804.75 C821.17,889.97 650.97,859.17 478.74,832.72 C323.53,808.88 166.58,788.15 8,867.25 L8,195.25 M39.25,214.64 L39.25,819.14 C345.81,690.88 650.43,915.18 960.75,785.36 L960.75,180.86 C654.19,309.12 349.57,84.82 39.25,214.64"/>
</svg>
