<svg xmlns="http://www.w3.org/2000/svg" viewBox="0 0 64 64" enable-background="new 0 0 64 64"><circle cx="32" cy="32" r="30" fill="#83bf4f"/><g fill="#fff"><path d="m37.5 30.4c-.7.2-1.4.5-2 .9.1-.6.2-1.2.2-1.9 0-3.6-3.6-7.4-3.6-7.4s-3.6 3.9-3.6 7.4c0 .7.1 1.3.2 1.9-.6-.4-1.3-.8-2.1-1-3.9-1.1-8.5 1.3-8.5 1.3s3.2 5 7.1 6.1c3.3.9 5.8-1.6 6.7-1.9.1 0 .3 0 .4 0 1 .4 3.4 2.8 6.7 1.9 3.9-1.1 7.1-6.1 7.1-6.1s-4.8-2.3-8.6-1.2"/><path d="m24.7 48c2.2 1.3 4.6 2 7.3 2s5.1-.7 7.3-2h-14.6"/><path d="m20.3 44c.5.7 1.1 1.4 1.8 2h19.8c.7-.6 1.3-1.3 1.8-2h-23.4"/></g><g fill="#ffe62e"><path d="m32 18.1l2.5 1.9-1-3 2.5-1.9-3-.1-1-3-1 3-3 .1 2.5 1.9-1 3z"/><path d="m24.7 19.3l1.8.3-1.4-1.3.7-1.8-1.6 1-1.4-1.3.4 1.8-1.5.9 1.8.3.4 1.9z"/><path d="m19.3 24.7l1.8-.8-1.9-.4-.3-1.8-.9 1.5-1.8-.4 1.3 1.4-1 1.6 1.8-.7 1.3 1.4z"/><path d="m44.7 24.7l-.3 1.8 1.3-1.4 1.8.7-1-1.6 1.3-1.4-1.8.4-.9-1.5-.3 1.8-1.9.4z"/><path d="m39.3 19.3l.8 1.8.4-1.9 1.8-.3-1.5-.9.4-1.8-1.4 1.3-1.6-1 .7 1.8-1.4 1.3z"/></g><path d="m46.3 40h-10.7c-2.4 0-2.6-1.7-2.6-2h-2c0 .2-.1 2-2.6 2h-10.7c.3.7.6 1.4 1 2h9.7c1.8 0 2.9-.6 3.6-1.4.7.8 1.8 1.4 3.6 1.4h9.7c.4-.6.7-1.3 1-2" fill="#fff"/></svg>