<?xml version="1.0" encoding="UTF-8" standalone="no"?><svg xmlns:dc="http://purl.org/dc/elements/1.1/" xmlns:cc="http://creativecommons.org/ns#" xmlns:rdf="http://www.w3.org/1999/02/22-rdf-syntax-ns#" xmlns:svg="http://www.w3.org/2000/svg" xmlns="http://www.w3.org/2000/svg" viewBox="0 0 45 45" style="enable-background:new 0 0 45 45;" xml:space="preserve" version="1.1" id="svg2"><metadata id="metadata8"><rdf:RDF><cc:Work rdf:about=""><dc:format>image/svg+xml</dc:format><dc:type rdf:resource="http://purl.org/dc/dcmitype/StillImage"/></cc:Work></rdf:RDF></metadata><defs id="defs6"><clipPath id="clipPath16" clipPathUnits="userSpaceOnUse"><path id="path18" d="M 0,36 36,36 36,0 0,0 0,36 Z"/></clipPath><clipPath id="clipPath28" clipPathUnits="userSpaceOnUse"><path id="path30" d="M 4,31 C 1.791,31 0,29.209 0,27 L 0,27 0,9 C 0,6.791 1.791,5 4,5 l 0,0 28,0 c 2.209,0 4,1.791 4,4 l 0,0 0,18 c 0,2.209 -1.791,4 -4,4 l 0,0 -28,0 z"/></clipPath><clipPath id="clipPath38" clipPathUnits="userSpaceOnUse"><path id="path40" d="M 0,36 36,36 36,0 0,0 0,36 Z"/></clipPath></defs><g transform="matrix(1.25,0,0,-1.25,0,45)" id="g10"><g id="g12"><g clip-path="url(#clipPath16)" id="g14"><g transform="translate(36,9)" id="g20"><path id="path22" style="fill:#ce1126;fill-opacity:1;fill-rule:nonzero;stroke:none" d="m 0,0 c 0,-2.209 -1.791,-4 -4,-4 l -28,0 c -2.209,0 -4,1.791 -4,4 l 0,18 c 0,2.209 1.791,4 4,4 l 28,0 c 2.209,0 4,-1.791 4,-4 L 0,0 Z"/></g></g></g><g id="g24"><g clip-path="url(#clipPath28)" id="g26"><path id="path32" style="fill:#eeeeee;fill-opacity:1;fill-rule:nonzero;stroke:none" d="M 36,12 0,12 0,24 36,24 36,12 Z"/></g></g><g id="g34"><g clip-path="url(#clipPath38)" id="g36"><g transform="translate(18.8125,21.75)" id="g42"><path id="path44" style="fill:#ff9d11;fill-opacity:1;fill-rule:nonzero;stroke:none" d="M 0,0 C 0,0 0.583,-0.021 0.458,-0.042 0.415,-0.049 0.404,-0.455 0.408,-0.979 l 0.91,1.736 C 0.987,0.914 0.643,1.042 0.277,1.123 L 0,0 Z"/></g><g transform="translate(21.0996,20.8267)" id="g46"><path id="path48" style="fill:#ff9d11;fill-opacity:1;fill-rule:nonzero;stroke:none" d="m 0,0 0,-1.212 1.331,0.656 C 1.131,-0.165 0.886,0.196 0.594,0.518 L 0,0 Z"/></g><g transform="translate(20.1309,19.9819)" id="g50"><path id="path52" style="fill:#ff9d11;fill-opacity:1;fill-rule:nonzero;stroke:none" d="m 0,0 -0.875,-0.763 c 0.007,-0.193 0.013,-0.365 0.018,-0.505 L 0,-0.845 0,0 Z"/></g><g transform="translate(20.1309,20.7959)" id="g54"><path id="path56" style="fill:#ff9d11;fill-opacity:1;fill-rule:nonzero;stroke:none" d="M 0,0 C 0,0.219 0.424,0.314 0.711,0.252 L 1.296,0.83 C 1.005,1.105 0.677,1.334 0.327,1.533 l -1.229,-2.126 c 0.004,-0.245 0.011,-0.493 0.019,-0.727 L 0,-0.449 0,0 Z"/></g><g transform="translate(16.6875,20.6147)" id="g58"><path id="path60" style="fill:#ff9d11;fill-opacity:1;fill-rule:nonzero;stroke:none" d="M 0,0 -0.061,2.171 C -0.373,2.081 -0.669,1.964 -0.953,1.819 L 0,0 Z"/></g><g transform="translate(14.9624,16.2344)" id="g62"><path id="path64" style="fill:#083e9d;fill-opacity:1;fill-rule:nonzero;stroke:none" d="m 0,0 c -0.13,0.35 -0.165,0.656 -0.165,0.656 0,0 -0.079,0.11 -0.319,0 C -0.724,0.547 -0.978,0.344 -1.337,0.266 -1.505,0.229 -1.648,0.314 -1.757,0.413 -1.717,0.27 -1.656,0.138 -1.604,0 L 0,0 Z"/></g><g transform="translate(18.5327,16.2344)" id="g66"><path id="path68" style="fill:#083e9d;fill-opacity:1;fill-rule:nonzero;stroke:none" d="M 0,0 C -0.099,0.202 -0.221,0.359 -0.533,0.359 -0.835,0.359 -0.97,0.183 -1.069,0 L 0,0 Z"/></g><g transform="translate(22.6426,16.2344)" id="g70"><path id="path72" style="fill:#083e9d;fill-opacity:1;fill-rule:nonzero;stroke:none" d="M 0,0 C 0.059,0.152 0.124,0.302 0.167,0.461 -0.164,0.124 -0.673,0.253 -0.83,0.453 c -0.172,0.219 -0.563,0.252 -0.563,0.252 0,0 -0.046,-0.314 -0.15,-0.689 C -1.544,0.011 -1.548,0.005 -1.55,0 L 0,0 Z"/></g><g transform="translate(22.2871,15.4844)" id="g74"><path id="path76" style="fill:#083e9d;fill-opacity:1;fill-rule:nonzero;stroke:none" d="M 0,0 C 0.079,0.135 0.161,0.268 0.228,0.411 0.131,0.46 0.013,0.505 -0.131,0.508 -0.475,0.516 -0.508,0.27 -0.99,0.266 -1.219,0.264 -1.34,0.321 -1.406,0.395 -1.522,0.254 -1.679,0.116 -1.851,0 L 0,0 Z"/></g><g transform="translate(16.9131,15.4844)" id="g78"><path id="path80" style="fill:#083e9d;fill-opacity:1;fill-rule:nonzero;stroke:none" d="M 0,0 2.067,0 C 2.024,0.042 1.984,0.086 1.949,0.134 L 1.953,0.122 c 0,0 -0.428,0.409 -0.866,0.409 -0.563,0 -0.95,-0.409 -0.95,-0.409 L 0.15,0.146 C 0.105,0.097 0.055,0.047 0,0"/></g><g transform="translate(15.4736,15.4844)" id="g82"><path id="path84" style="fill:#083e9d;fill-opacity:1;fill-rule:nonzero;stroke:none" d="M 0,0 C -0.141,0.117 -0.259,0.257 -0.348,0.41 -0.496,0.309 -0.663,0.222 -0.833,0.234 -1.255,0.266 -1.523,0.715 -1.771,0.594 -1.855,0.552 -1.936,0.511 -2.013,0.475 -1.939,0.309 -1.849,0.154 -1.759,0 L 0,0 Z"/></g><g transform="translate(14.3799,14.5937)" id="g86"><path id="path88" style="fill:#083e9d;fill-opacity:1;fill-rule:nonzero;stroke:none" d="M 0,0 7.242,0 C 7.361,0.129 7.476,0.262 7.581,0.402 7.413,0.546 7.159,0.719 6.87,0.719 6.386,0.719 6.179,0.281 5.751,0.281 c -0.428,0 -0.475,0.391 -1.006,0.391 -0.531,0 -0.765,-0.453 -1.18,-0.453 -0.414,0 -0.71,0.453 -1.101,0.453 -0.391,0 -0.688,-0.453 -1.109,-0.453 -0.422,0 -0.657,0.5 -1.032,0.5 -0.236,0 -0.514,-0.151 -0.699,-0.265 C -0.259,0.295 -0.133,0.145 0,0"/></g><g transform="translate(20.7363,13.8594)" id="g90"><path id="path92" style="fill:#083e9d;fill-opacity:1;fill-rule:nonzero;stroke:none" d="m 0,0 c 0.115,0.078 0.236,0.147 0.345,0.234 -0.251,0.12 -0.667,0.297 -0.95,0.297 -0.428,0 -0.538,-0.234 -1.006,-0.234 -0.469,0 -0.676,0.265 -1.143,0.265 -0.467,0 -0.625,-0.343 -1.069,-0.343 -0.445,0 -0.632,0.375 -1.179,0.375 C -5.323,0.594 -5.7,0.46 -5.959,0.349 -5.811,0.219 -5.644,0.111 -5.48,0 L 0,0 Z"/></g><g transform="translate(19.1406,13.5937)" id="g94"><path id="path96" style="fill:#083e9d;fill-opacity:1;fill-rule:nonzero;stroke:none" d="m 0,0 c -0.531,0 -0.781,-0.453 -1.141,-0.453 -0.359,0 -0.673,0.469 -1.086,0.469 -0.249,0 -0.539,-0.138 -0.74,-0.25 0.564,-0.228 1.178,-0.36 1.826,-0.36 0.652,0 1.265,0.139 1.832,0.369 C 0.509,-0.112 0.264,0 0,0"/></g><g transform="translate(14.7769,18.3247)" id="g98"><path id="path100" style="fill:#ff9d11;fill-opacity:1;fill-rule:nonzero;stroke:none" d="m 0,0 -1.737,0.07 c -0.011,-0.132 -0.04,-0.259 -0.04,-0.395 0,-0.221 0.037,-0.432 0.065,-0.646 L 0,-0.971 0,0 Z"/></g><g transform="translate(12.7085,18.6201)" id="g102"><path id="path104" style="fill:#eeeeee;fill-opacity:1;fill-rule:nonzero;stroke:none" d="M 0,0 3.187,-0.306 3.026,-0.532 -0.146,-0.448 0,0 Z"/></g><g transform="translate(14.7769,19.3232)" id="g106"><path id="path108" style="fill:#ff9d11;fill-opacity:1;fill-rule:nonzero;stroke:none" d="m 0,0 -1.399,0.574 c -0.147,-0.355 -0.239,-0.735 -0.3,-1.126 L 0,-0.674 0,0 Z"/></g><g transform="translate(15.7969,18.9043)" id="g110"><path id="path112" style="fill:#ff9d11;fill-opacity:1;fill-rule:nonzero;stroke:none" d="m 0,0 0,-0.328 0.949,-0.068 0,0.006 L 0,0 Z"/></g><g transform="translate(15.7969,19.0869)" id="g114"><path id="path116" style="fill:#ff9d11;fill-opacity:1;fill-rule:nonzero;stroke:none" d="M 0,0 0.946,-0.467 0.934,-0.008 0,0.807 0,0 Z"/></g><g transform="translate(14.7769,20.7832)" id="g118"><path id="path120" style="fill:#ff9d11;fill-opacity:1;fill-rule:nonzero;stroke:none" d="M 0,0 -0.542,0.473 C -0.819,0.154 -1.055,-0.197 -1.244,-0.58 L 0,-1.193 0,0 Z"/></g><g transform="translate(15.7969,20.9844)" id="g122"><path id="path124" style="fill:#ff9d11;fill-opacity:1;fill-rule:nonzero;stroke:none" d="M 0,0 0,-0.737 0.926,-1.651 0.907,-0.965 -0.387,1.273 C -0.723,1.068 -1.041,0.838 -1.318,0.563 L -0.843,0.094 C -0.551,0.215 0,0.207 0,0"/></g><g transform="translate(22.96,18.4019)" id="g126"><path id="path128" style="fill:#ff9d11;fill-opacity:1;fill-rule:nonzero;stroke:none" d="m 0,0 -1.86,-0.075 0,-0.973 1.835,0 C 0.003,-0.835 0.04,-0.624 0.04,-0.402 0.04,-0.264 0.011,-0.135 0,0"/></g><g transform="translate(21,18.0879)" id="g130"><path id="path132" style="fill:#eeeeee;fill-opacity:1;fill-rule:nonzero;stroke:none" d="m 0,0 2.333,0.084 0,0.35 L 0,0.314 0,0 Z"/></g><g transform="translate(21.0996,18.6523)" id="g134"><path id="path136" style="fill:#ff9d11;fill-opacity:1;fill-rule:nonzero;stroke:none" d="M 0,0 1.821,0.131 C 1.757,0.54 1.658,0.937 1.5,1.308 L 0,0.692 0,0 Z"/></g><g transform="translate(20.1309,18.9463)" id="g138"><path id="path140" style="fill:#ff9d11;fill-opacity:1;fill-rule:nonzero;stroke:none" d="m 0,0 -0.853,-0.35 c 0.001,-0.026 0.002,-0.052 0.003,-0.074 L 0,-0.363 0,0 Z"/></g><g transform="translate(13.354,20.6147)" id="g142"><path id="path144" style="fill:#eeeeee;fill-opacity:1;fill-rule:nonzero;stroke:none" d="m 0,0 3.559,-1.88 0,-0.213 L 0,-0.633 0,0 Z"/></g><g transform="translate(19.123,18.522)" id="g146"><path id="path148" style="fill:#eeeeee;fill-opacity:1;fill-rule:nonzero;stroke:none" d="M 0,0 3.687,1.77 3.482,2.249 0,0.424 0,0 Z"/></g><g transform="translate(14.604,21.8218)" id="g150"><path id="path152" style="fill:#eeeeee;fill-opacity:1;fill-rule:nonzero;stroke:none" d="m 0,0 2.157,-2.346 0,-0.309 -2.428,2.333 L 0,0 Z"/></g><g transform="translate(19.123,19.3062)" id="g154"><path id="path156" style="fill:#eeeeee;fill-opacity:1;fill-rule:nonzero;stroke:none" d="M 0,0 2.643,2.256 2.304,2.652 0,0.262 0,0 Z"/></g><g transform="translate(15.9595,22.6875)" id="g158"><path id="path160" style="fill:#eeeeee;fill-opacity:1;fill-rule:nonzero;stroke:none" d="M 0,0 0.925,-2.073 0.727,-2.265 -0.289,-0.146 0,0 Z"/></g><g transform="translate(20,22.7852)" id="g162"><path id="path164" style="fill:#eeeeee;fill-opacity:1;fill-rule:nonzero;stroke:none" d="m 0,0 -0.877,-1.863 0,-0.499 1.205,2.16 L 0,0 Z"/></g><path id="path166" style="fill:#eeeeee;fill-opacity:1;fill-rule:nonzero;stroke:none" d="m 23.333,17.156 -10.479,0 0,0.266 10.479,0 0,-0.266 z"/><g transform="translate(15.0469,20.7031)" id="g168"><path id="path170" style="fill:#ce1126;fill-opacity:1;fill-rule:nonzero;stroke:none" d="m 0,0 0,-3.578 c 0,-0.484 0.266,-1.641 1.031,-1.641 1.047,0 1.386,1.297 1.386,1.297 0,0 -0.755,-0.664 -1.291,-0.453 -0.535,0.211 -0.572,0.531 -0.572,1.234 l 0,3.053 C 0.554,0.187 0,0.25 0,0"/></g><g transform="translate(20.9023,20.7031)" id="g172"><path id="path174" style="fill:#ce1126;fill-opacity:1;fill-rule:nonzero;stroke:none" d="m 0,0 0,-3.578 c 0,-0.484 -0.266,-1.641 -1.031,-1.641 -1.047,0 -1.386,1.297 -1.386,1.297 0,0 0.755,-0.664 1.29,-0.453 0.536,0.211 0.573,0.531 0.573,1.234 l 0,3.053 C -0.554,0.187 0,0.25 0,0"/></g><g transform="translate(18.8125,18.7061)" id="g176"><path id="path178" style="fill:#ce1126;fill-opacity:1;fill-rule:nonzero;stroke:none" d="m 0,0 -1.797,0.551 0,2.868 C -1.797,4.263 -1.15,4.679 0,4.278 -1,4.184 -1.318,3.342 0,2.716 L 0,0 Z"/></g><g transform="translate(20,17.2891)" id="g180"><path id="path182" style="fill:#630810;fill-opacity:1;fill-rule:nonzero;stroke:none" d="m 0,0 c 0,-0.073 -0.06,-0.133 -0.133,-0.133 l -3.859,0 c -0.073,0 -0.133,0.06 -0.133,0.133 0,0.073 0.06,0.133 0.133,0.133 l 3.859,0 C -0.06,0.133 0,0.073 0,0"/></g><g transform="translate(17.0161,16.5869)" id="g184"><path id="path186" style="fill:#630810;fill-opacity:1;fill-rule:nonzero;stroke:none" d="m 0,0 -0.893,0 0.383,0.507 0.893,0 L 0,0 Z"/></g><g transform="translate(18.8691,16.5869)" id="g188"><path id="path190" style="fill:#630810;fill-opacity:1;fill-rule:nonzero;stroke:none" d="M 0,0 0.893,0 0.51,0.507 -0.384,0.507 0,0 Z"/></g><g transform="translate(16.3438,17.8477)" id="g192"><path id="path194" style="fill:#630810;fill-opacity:1;fill-rule:nonzero;stroke:none" d="m 0,0 c 0,-0.037 -0.03,-0.066 -0.066,-0.066 -0.037,0 -0.067,0.029 -0.067,0.066 l 0,0.48 c 0,0.037 0.03,0.067 0.067,0.067 C -0.03,0.547 0,0.517 0,0.48 L 0,0 Z"/></g><g transform="translate(16.083,17.5576)" id="g196"><path id="path198" style="fill:#630810;fill-opacity:1;fill-rule:nonzero;stroke:none" d="M 0,0 C -0.043,-0.046 -0.127,-0.059 -0.189,-0.029 -0.25,0.002 -0.267,0.064 -0.225,0.109 l 0.57,0.62 C 0.387,0.774 0.472,0.787 0.533,0.757 0.596,0.727 0.611,0.664 0.569,0.619 L 0,0 Z"/></g><g transform="translate(16.4287,17.5576)" id="g200"><path id="path202" style="fill:#630810;fill-opacity:1;fill-rule:nonzero;stroke:none" d="M 0,0 C 0.043,-0.046 0.127,-0.059 0.189,-0.029 0.25,0.002 0.267,0.064 0.225,0.109 l -0.57,0.62 C -0.387,0.774 -0.472,0.787 -0.533,0.757 -0.596,0.727 -0.611,0.664 -0.569,0.619 L 0,0 Z"/></g><g transform="translate(17.2314,17.8477)" id="g204"><path id="path206" style="fill:#630810;fill-opacity:1;fill-rule:nonzero;stroke:none" d="m 0,0 c 0,-0.037 -0.03,-0.066 -0.066,-0.066 -0.037,0 -0.067,0.029 -0.067,0.066 l 0,0.48 c 0,0.037 0.03,0.067 0.067,0.067 C -0.03,0.547 0,0.517 0,0.48 L 0,0 Z"/></g><g transform="translate(16.9707,17.5576)" id="g208"><path id="path210" style="fill:#630810;fill-opacity:1;fill-rule:nonzero;stroke:none" d="M 0,0 C -0.043,-0.046 -0.127,-0.059 -0.189,-0.029 -0.25,0.002 -0.267,0.064 -0.225,0.109 l 0.57,0.62 C 0.387,0.774 0.472,0.787 0.533,0.757 0.596,0.727 0.611,0.664 0.569,0.619 L 0,0 Z"/></g><g transform="translate(17.3164,17.5576)" id="g212"><path id="path214" style="fill:#630810;fill-opacity:1;fill-rule:nonzero;stroke:none" d="M 0,0 C 0.043,-0.046 0.127,-0.059 0.188,-0.029 0.25,0.002 0.267,0.064 0.225,0.109 l -0.57,0.62 C -0.387,0.774 -0.472,0.787 -0.533,0.757 -0.596,0.727 -0.611,0.664 -0.569,0.619 L 0,0 Z"/></g><g transform="translate(18.0703,17.8477)" id="g216"><path id="path218" style="fill:#630810;fill-opacity:1;fill-rule:nonzero;stroke:none" d="m 0,0 c 0,-0.037 -0.03,-0.066 -0.066,-0.066 -0.037,0 -0.067,0.029 -0.067,0.066 l 0,0.48 c 0,0.037 0.03,0.067 0.067,0.067 C -0.03,0.547 0,0.517 0,0.48 L 0,0 Z"/></g><g transform="translate(17.8096,17.5576)" id="g220"><path id="path222" style="fill:#630810;fill-opacity:1;fill-rule:nonzero;stroke:none" d="M 0,0 C -0.043,-0.046 -0.127,-0.059 -0.189,-0.029 -0.25,0.002 -0.267,0.064 -0.225,0.109 l 0.57,0.62 C 0.387,0.774 0.472,0.787 0.533,0.757 0.596,0.727 0.611,0.664 0.569,0.619 L 0,0 Z"/></g><g transform="translate(18.1553,17.5576)" id="g224"><path id="path226" style="fill:#630810;fill-opacity:1;fill-rule:nonzero;stroke:none" d="M 0,0 C 0.043,-0.046 0.127,-0.059 0.188,-0.029 0.25,0.002 0.267,0.064 0.225,0.109 l -0.57,0.62 C -0.387,0.774 -0.472,0.787 -0.533,0.757 -0.596,0.727 -0.611,0.664 -0.569,0.619 L 0,0 Z"/></g><g transform="translate(18.9004,17.8477)" id="g228"><path id="path230" style="fill:#630810;fill-opacity:1;fill-rule:nonzero;stroke:none" d="m 0,0 c 0,-0.037 -0.03,-0.066 -0.066,-0.066 -0.037,0 -0.067,0.029 -0.067,0.066 l 0,0.48 c 0,0.037 0.03,0.067 0.067,0.067 C -0.03,0.547 0,0.517 0,0.48 L 0,0 Z"/></g><g transform="translate(18.6396,17.5576)" id="g232"><path id="path234" style="fill:#630810;fill-opacity:1;fill-rule:nonzero;stroke:none" d="M 0,0 C -0.043,-0.046 -0.127,-0.059 -0.188,-0.029 -0.25,0.002 -0.267,0.064 -0.225,0.109 l 0.57,0.62 C 0.387,0.774 0.472,0.787 0.533,0.757 0.596,0.727 0.611,0.664 0.569,0.619 L 0,0 Z"/></g><g transform="translate(18.9854,17.5576)" id="g236"><path id="path238" style="fill:#630810;fill-opacity:1;fill-rule:nonzero;stroke:none" d="M 0,0 C 0.043,-0.046 0.127,-0.059 0.188,-0.029 0.25,0.002 0.267,0.064 0.225,0.109 l -0.57,0.62 C -0.387,0.774 -0.472,0.787 -0.533,0.757 -0.596,0.727 -0.611,0.664 -0.569,0.619 L 0,0 Z"/></g><g transform="translate(19.7207,17.8477)" id="g240"><path id="path242" style="fill:#630810;fill-opacity:1;fill-rule:nonzero;stroke:none" d="m 0,0 c 0,-0.037 -0.029,-0.066 -0.066,-0.066 -0.038,0 -0.067,0.029 -0.067,0.066 l 0,0.48 c 0,0.037 0.029,0.067 0.067,0.067 C -0.029,0.547 0,0.517 0,0.48 L 0,0 Z"/></g><g transform="translate(19.46,17.5576)" id="g244"><path id="path246" style="fill:#630810;fill-opacity:1;fill-rule:nonzero;stroke:none" d="M 0,0 C -0.043,-0.046 -0.127,-0.059 -0.189,-0.029 -0.25,0.002 -0.267,0.064 -0.225,0.109 l 0.57,0.62 C 0.387,0.774 0.472,0.787 0.533,0.757 0.596,0.727 0.611,0.664 0.569,0.619 L 0,0 Z"/></g><g transform="translate(19.8057,17.5576)" id="g248"><path id="path250" style="fill:#630810;fill-opacity:1;fill-rule:nonzero;stroke:none" d="M 0,0 C 0.043,-0.046 0.127,-0.059 0.188,-0.029 0.25,0.002 0.267,0.064 0.225,0.109 l -0.57,0.62 C -0.387,0.774 -0.472,0.787 -0.533,0.757 -0.596,0.727 -0.611,0.664 -0.569,0.619 L 0,0 Z"/></g></g></g></g></svg>
