<svg xmlns="http://www.w3.org/2000/svg" viewBox="0 0 1000 1000">
  <defs/>
  <path fill="#ce1126" d="M8,195.25 C178.83,110.03 349.03,140.83 521.26,167.28 C676.47,191.12 833.42,211.85 992,132.75 L992,804.75 C821.17,889.97 650.97,859.17 478.74,832.72 C323.53,808.88 166.58,788.15 8,867.25 L8,195.25"/>
  <path fill="#002868" d="M8,363.25 C178.83,278.03 349.03,308.83 521.26,335.28 C676.47,359.12 833.42,379.85 992,300.75 L992,636.75 C821.17,721.97 650.97,691.17 478.74,664.72 C323.53,640.88 166.58,620.15 8,699.25 L8,363.25"/>
  <path fill="#fff" d="M631.2,518.28 C630.92,593.25 572.72,645.37 500,634.4 C427.32,622.86 369.08,555.63 368.8,481.72 C369.08,406.75 427.28,354.63 500,365.6 C572.68,377.14 630.92,444.37 631.2,518.28"/>
  <path fill="#1A1A1A" opacity="0.2" d="M8,195.25 C178.83,110.03 349.03,140.83 521.26,167.28 C676.47,191.12 833.42,211.85 992,132.75 L992,804.75 C821.17,889.97 650.97,859.17 478.74,832.72 C323.53,808.88 166.58,788.15 8,867.25 L8,195.25 M39.25,214.64 L39.25,819.14 C345.81,690.88 650.43,915.18 960.75,785.36 L960.75,180.86 C654.19,309.12 349.57,84.82 39.25,214.64"/>
</svg>
