<?xml version="1.0" encoding="UTF-8" standalone="no"?><svg xmlns:dc="http://purl.org/dc/elements/1.1/" xmlns:cc="http://creativecommons.org/ns#" xmlns:rdf="http://www.w3.org/1999/02/22-rdf-syntax-ns#" xmlns:svg="http://www.w3.org/2000/svg" xmlns="http://www.w3.org/2000/svg" viewBox="0 0 45 45" style="enable-background:new 0 0 45 45;" xml:space="preserve" version="1.1" id="svg2"><metadata id="metadata8"><rdf:RDF><cc:Work rdf:about=""><dc:format>image/svg+xml</dc:format><dc:type rdf:resource="http://purl.org/dc/dcmitype/StillImage"/></cc:Work></rdf:RDF></metadata><defs id="defs6"><clipPath id="clipPath16" clipPathUnits="userSpaceOnUse"><path id="path18" d="M 0,36 36,36 36,0 0,0 0,36 Z"/></clipPath></defs><g transform="matrix(1.25,0,0,-1.25,0,45)" id="g10"><g id="g12"><g clip-path="url(#clipPath16)" id="g14"><g transform="translate(18,21.25)" id="g20"><path id="path22" style="fill:#141414;fill-opacity:1;fill-rule:nonzero;stroke:none" d="m 0,0 c 0.902,0 1.718,-0.368 2.307,-0.961 -0.465,0.335 -1.033,0.535 -1.65,0.535 -1.559,0 -2.824,-1.264 -2.824,-2.824 0,-1.56 1.265,-2.824 2.824,-2.824 0.617,0 1.185,0.2 1.65,0.535 C 1.718,-6.132 0.902,-6.5 0,-6.5 c -1.795,0 -3.25,1.455 -3.25,3.25 C -3.25,-1.455 -1.795,0 0,0 m 3.25,-0.952 1.032,-1.42 1.67,0.542 -1.032,-1.42 1.032,-1.42 -1.67,0.542 -1.032,-1.42 0,1.756 -1.67,0.542 1.67,0.543 0,1.755 z M -18,-9.25 l 36,0 0,12 -36,0 0,-12 z"/></g><g transform="translate(32,31)" id="g24"><path id="path26" style="fill:#e70013;fill-opacity:1;fill-rule:nonzero;stroke:none" d="m 0,0 -28,0 c -2.209,0 -4,-1.791 -4,-4 l 0,-3 36,0 0,3 C 4,-1.791 2.209,0 0,0"/></g><g transform="translate(32,5)" id="g28"><path id="path30" style="fill:#239e46;fill-opacity:1;fill-rule:nonzero;stroke:none" d="m 0,0 -28,0 c -2.209,0 -4,1.791 -4,4 L -32,7 4,7 4,4 C 4,1.791 2.209,0 0,0"/></g><g transform="translate(18,14.75)" id="g32"><path id="path34" style="fill:#ffffff;fill-opacity:1;fill-rule:nonzero;stroke:none" d="M 0,0 C 0.902,0 1.718,0.368 2.307,0.961 1.842,0.626 1.274,0.426 0.657,0.426 c -1.559,0 -2.824,1.264 -2.824,2.824 0,1.56 1.265,2.824 2.824,2.824 0.617,0 1.185,-0.2 1.65,-0.535 C 1.718,6.132 0.902,6.5 0,6.5 -1.795,6.5 -3.25,5.045 -3.25,3.25 -3.25,1.455 -1.795,0 0,0"/></g><g transform="translate(21.25,17.4575)" id="g36"><path id="path38" style="fill:#ffffff;fill-opacity:1;fill-rule:nonzero;stroke:none" d="M 0,0 0,-1.756 1.032,-0.335 2.702,-0.878 1.67,0.542 2.702,1.963 1.032,1.42 0,2.841 0,1.085 -1.67,0.542 0,0 Z"/></g></g></g></g></svg>
