<svg xmlns="http://www.w3.org/2000/svg" viewBox="0 0 1000 1000">
  <defs/>
  <path fill="#00afca" d="M8,195.25 C178.83,110.03 349.03,140.83 521.26,167.28 C676.47,191.12 833.42,211.85 992,132.75 L992,804.75 C821.17,889.97 650.97,859.17 478.74,832.72 C323.53,808.88 166.58,788.15 8,867.25 L8,195.25"/>
  <path fill="#fec50c" d="M605.79,461.55 C605.55,511.78 576.36,547.94 539.59,542.73 C502.87,536.87 473.63,492.27 473.39,442.14 C473.63,391.91 502.83,356.69 539.59,361.9 C576.31,367.75 605.55,411.42 605.79,461.55"/>
  <path id="r" fill="#fec50c" d="M539.59,349.56 C543.65,349.78 544.86,347.18 545,342.92 C544.86,337.52 539.6,311.17 539.59,311.13 C539.58,311.17 534.33,335.88 534.18,341.29 C534.33,345.57 535.58,348.63 539.59,349.56"/>
  <path fill="#fec50c" d="M614.82,462.65 C615.1,468.19 617.17,470.12 620.28,470.68 C624.35,470.89 642.8,465.79 642.96,465.74 C642.9,465.71 624.23,456.62 620.28,455.9 C617.14,455.74 615.06,457.14 614.82,462.65"/>
  <path fill="#fec50c" d="M539.59,555.06 C535.54,554.84 534.33,557.44 534.18,561.7 C534.33,567.11 539.58,593.46 539.59,593.5 C539.6,593.46 544.85,568.74 545,563.33 C544.86,559.05 543.6,555.99 539.59,555.06"/>
  <path fill="#fec50c" d="M464.37,440.76 C464.08,435.22 462.01,433.22 458.9,432.55 C454.84,432.21 436.36,436.57 436.22,436.6 C436.3,436.64 454.95,446.48 458.9,447.33 C462.05,447.6 464.12,446.27 464.37,440.76"/>
  <path fill="#fec50c" d="M568.38,361.61 C572.28,363.9 574.11,362.26 575.47,358.55 C576.83,353.71 579.15,327.66 579.15,327.61 C579.11,327.66 567.15,346.75 565.47,351.48 C564.41,355.29 564.78,358.74 568.38,361.61"/>
  <path fill="#fec50c" d="M609.09,501.28 C607.81,506.31 609.27,509.21 612.07,511.33 C615.93,513.68 634.97,518.93 635.09,518.96 C635.06,518.93 619.77,500.85 616.21,498.16 C613.22,496.36 610.9,496.49 609.09,501.28"/>
  <path fill="#fec50c" d="M510.8,542.84 C506.91,540.5 505.08,542.11 503.71,545.81 C502.35,550.62 500.04,576.64 500.03,576.69 C500.07,576.63 512.03,557.73 513.71,553.01 C514.77,549.21 514.4,545.76 510.8,542.84"/>
  <path fill="#fec50c" d="M470.09,402.31 C471.38,397.33 469.91,394.38 467.12,392.18 C463.28,389.72 444.19,383.74 444.09,383.71 C444.13,383.76 459.42,402.41 462.98,405.21 C465.97,407.11 468.28,407.05 470.09,402.31"/>
  <path fill="#fec50c" d="M592.79,387.23 C595.89,391.28 598.12,390.78 600.47,388.18 C603.13,384.58 612.65,362.63 612.69,362.56 C612.61,362.61 595.79,373.42 592.82,376.73 C590.73,379.56 590.11,382.8 592.79,387.23"/>
  <path fill="#fec50c" d="M592.79,532.54 C590.15,536.3 590.73,539.66 592.82,543.05 C595.81,547.17 612.64,562.19 612.69,562.23 C612.67,562.19 603.14,537.86 600.47,533.58 C598.12,530.38 595.87,529.26 592.79,532.54"/>
  <path fill="#fec50c" d="M486.4,516.79 C483.29,512.67 481.07,513.12 478.71,515.65 C476.05,519.18 466.53,540.85 466.5,540.92 C466.58,540.87 483.37,530.56 486.36,527.29 C488.45,524.5 489.07,521.28 486.4,516.79"/>
  <path fill="#fec50c" d="M486.4,371.48 C489.03,367.78 488.45,364.41 486.36,360.98 C483.39,356.81 466.55,341.3 466.5,341.25 C466.52,341.3 476.05,365.9 478.71,370.25 C481.07,373.51 483.32,374.69 486.4,371.48"/>
  <path fill="#fec50c" d="M609.09,422.64 C610.94,427.83 613.23,428.56 616.21,427.47 C619.81,425.6 635,411 635.09,410.9 C635,410.91 615.83,411.93 612.07,413.32 C609.25,414.76 607.76,417.28 609.09,422.64"/>
  <path fill="#fec50c" d="M568.38,551.47 C564.78,553.38 564.41,556.63 565.47,560.77 C567.14,565.95 579.13,588.45 579.15,588.49 C579.15,588.44 576.84,561.77 575.47,556.53 C574.11,552.44 572.24,550.23 568.38,551.47"/>
  <path fill="#fec50c" d="M470.09,480.95 C468.25,475.71 465.95,474.91 462.98,475.9 C459.37,477.65 444.18,491.69 444.09,491.77 C444.21,491.77 463.33,491.47 467.12,490.19 C469.93,488.82 471.43,486.35 470.09,480.95"/>
  <path fill="#fec50c" d="M510.8,352.98 C514.41,351.11 514.78,347.87 513.71,343.71 C512.05,338.53 500.06,315.85 500.03,315.81 C500.04,315.85 502.34,342.56 503.71,347.82 C505.07,351.93 506.95,354.17 510.8,352.98"/>
  <path fill="#fec50c" d="M554.27,353.72 C558.31,355.01 559.88,352.84 560.64,348.78 C561.26,343.57 559.76,316.87 559.76,316.83 C559.74,316.88 550.96,339.18 550.03,344.34 C549.56,348.47 550.39,351.77 554.27,353.72"/>
  <path fill="#fec50c" d="M613.37,482.52 C612.87,487.92 614.66,490.36 617.67,491.74 C621.74,493.04 640.82,493.08 640.98,493.08 C640.93,493.05 623.61,479.21 619.79,477.49 C616.67,476.48 614.4,477.27 613.37,482.52"/>
  <path fill="#fec50c" d="M524.92,550.86 C520.87,549.54 519.3,551.7 518.54,555.75 C517.92,560.96 519.42,587.67 519.43,587.72 C519.44,587.67 528.23,565.43 529.16,560.26 C529.62,556.13 528.79,552.84 524.92,550.86"/>
  <path fill="#fec50c" d="M465.81,420.94 C466.32,415.56 464.52,413.06 461.51,411.58 C457.47,410.15 438.34,409.35 438.21,409.34 C438.27,409.39 455.58,423.91 459.4,425.76 C462.51,426.87 464.78,426.16 465.81,420.94"/>
  <path fill="#fec50c" d="M581.39,372.92 C584.96,376.15 587.02,375.06 588.92,371.84 C590.97,367.56 597.01,343.1 597.02,343.04 C596.96,343.1 582.29,358.31 579.92,362.41 C578.32,365.79 578.19,369.21 581.39,372.92"/>
  <path fill="#fec50c" d="M602.14,518.18 C600.14,522.65 601.19,525.86 603.67,528.66 C607.17,531.98 625.46,542.29 625.54,542.33 C625.52,542.29 612.86,520.66 609.69,517.11 C606.96,514.56 604.64,514.06 602.14,518.18"/>
  <path fill="#fec50c" d="M497.8,531.33 C494.23,528.03 492.16,529.08 490.26,532.26 C488.21,536.51 482.18,560.82 482.16,560.88 C482.22,560.82 496.88,545.95 499.26,541.87 C500.87,538.51 501,535.1 497.8,531.33"/>
  <path fill="#fec50c" d="M477.04,385.61 C479.04,381.19 478,377.96 475.51,375.09 C472.04,371.7 453.71,360.75 453.64,360.71 C453.67,360.76 466.33,382.82 469.5,386.46 C472.22,389.09 474.55,389.67 477.04,385.61"/>
  <path fill="#fec50c" d="M602.14,404.01 C604.66,408.72 606.97,408.83 609.69,406.95 C612.87,404.17 625.48,385.54 625.54,385.45 C625.45,385.48 607.11,391.51 603.67,393.91 C601.18,396.09 600.1,399.03 602.14,404.01"/>
  <path fill="#fec50c" d="M581.39,543.79 C578.21,546.68 578.31,550.06 579.92,553.89 C582.29,558.64 596.99,577.79 597.02,577.83 C597.01,577.79 590.98,551.76 588.92,546.9 C587.03,543.18 584.93,541.48 581.39,543.79"/>
  <path fill="#fec50c" d="M477.04,499.78 C474.52,495.01 472.22,494.83 469.5,496.62 C466.31,499.31 453.7,517.51 453.64,517.59 C453.75,517.56 472.04,512.16 475.51,509.84 C478,507.72 479.09,504.82 477.04,499.78"/>
  <path fill="#fec50c" d="M497.8,360.47 C500.97,357.63 500.87,354.25 499.26,350.38 C496.91,345.61 482.2,326.13 482.16,326.09 C482.17,326.13 488.21,352.31 490.26,357.21 C492.16,360.96 494.26,362.71 497.8,360.47"/>
  <path fill="#fec50c" d="M613.37,442.43 C614.44,447.9 616.69,449.26 619.79,448.98 C623.69,448.12 640.84,438.08 640.98,437.99 C640.9,437.98 621.61,433.9 617.67,434.24 C614.64,434.91 612.82,436.89 613.37,442.43"/>
  <path fill="#fec50c" d="M554.27,555.27 C550.37,556.16 549.56,559.1 550.03,563.4 C550.95,568.8 559.74,593.74 559.76,593.77 C559.76,593.73 561.27,567.51 560.64,562.08 C559.89,557.81 558.27,555.11 554.27,555.27"/>
  <path fill="#fec50c" d="M465.81,461.03 C464.74,455.53 462.49,454.1 459.4,454.26 C455.49,454.99 438.33,464.36 438.21,464.43 C438.31,464.46 457.56,469.29 461.51,469.08 C464.55,468.51 466.36,466.6 465.81,461.03"/>
  <path fill="#fec50c" d="M524.92,349.31 C528.82,348.45 529.62,345.5 529.16,341.2 C528.24,335.81 519.44,310.81 519.43,310.77 C519.42,310.81 517.92,337.02 518.54,342.46 C519.3,346.73 520.92,349.45 524.92,349.31"/>
  <path fill="#fec50c" d="M527.78,646.39 C525.98,646.27 524.32,646.34 522.6,646.78 C520.29,646.92 518.07,647.55 515.78,647.77 L514.86,647.83 L513.32,647.79 C513.41,648.39 513.47,648.98 513.48,649.57 C513.48,650.18 513.42,650.74 513.32,651.22 C513.2,651.68 512.91,652.2 512.66,652.53 C512.32,652.98 511.99,653.33 511.58,653.55 C511.17,653.75 510.76,653.8 510.3,653.78 C509.84,653.73 509.42,653.63 508.97,653.35 C508.53,653.06 508.13,652.64 507.74,652.13 C507.28,652.21 506.81,652.25 506.36,652.25 C505.9,652.24 505.48,652.18 505.07,652.05 C504.61,651.8 504.14,651.52 503.69,651.21 C503.25,650.89 502.83,650.52 502.41,650.09 C500.67,651.21 499,652.19 497.85,654.36 C497.31,655.39 497.17,656.54 497.03,657.82 C496.99,659.4 497.26,661.04 497.74,662.61 C497.96,662.89 498.07,661.3 498.62,660.93 C499.61,660.03 500.69,659.48 501.9,659.2 C502.92,658.72 502.77,659.34 502.36,660.39 C502.24,661.01 501.67,662.87 502.46,662.02 C505.89,660.62 509.4,660.69 513.07,660.86 C518.29,660.96 523.51,661.58 528.75,662.28 L543.51,664.94 C545.87,665.44 548.2,666.33 550.53,666.25 C551.13,666.15 551.9,666.18 552.28,665.82 C551.18,664.88 550.04,664.63 548.84,664.26 L539.46,662.85 C536.8,662.12 534.21,661.56 531.67,659.93 C530.97,659.39 530.48,658.62 529.78,659.35 C528.83,659.64 527.86,659.79 526.86,659.75 C525.1,659.6 523.49,658.91 521.83,657.8 C523.01,655.82 524.34,654.1 525.62,652.28 C524.6,651.9 523.62,651.46 522.6,650.97 C524.37,649.54 526.05,647.92 527.78,646.39"/>
  <path fill="#fec50c" d="M604.4,680.46 C600.63,682.44 598.26,677.79 595.14,675.46 C593.25,677.04 592.63,681.8 590.82,684.25 C588.02,687.22 585.83,682.82 585.75,678.89 C582.87,682.21 581.54,688.47 576.86,687.38 C574.63,684.29 573.32,679.68 571.4,684.9 C569.73,687.76 566.86,690.79 564.55,686.51 C563.88,682.51 562.83,678.15 561.08,683.79 C559.74,688.07 557.03,690.27 553.51,688.2 C552.13,685.4 554.56,679.88 552.68,679.37 C549.3,682.29 547.45,688.6 542.72,687.81 C541.28,684.59 543.45,680.66 541.83,677.1 C539.38,681.12 536.95,686.12 532.82,686.32 C531.28,683.6 532.47,678.18 531.65,676.82 C527.32,679.84 523.28,684.64 517.85,682.29 C520.21,671.9 528.17,669.61 535.59,669.76 C548.01,669.71 560.82,675.05 572.8,670.87 C575.09,669.43 578.87,668.08 577.71,664 C576.75,660.92 580.96,662.65 582.04,659.4 C582.01,655.1 584.24,655.93 587.13,655.99 C599.12,657 610.98,661.75 622.93,663.78 C623.48,672.06 617.7,676.41 612.17,673.61 C609.49,673.01 606.33,665.66 606.69,671.21 C606.25,674.53 606.35,678.31 604.4,680.46 L604.4,680.46 M502.36,649.39 C505.37,652.92 506.94,649.81 509.68,648.36 C518.39,645.5 525.93,639.67 533.47,633.64 C538.06,629.04 541.92,623.41 548.03,622.38 C559.95,619.38 572.51,621.52 584.48,618.74 C593.76,603.08 608.86,598.89 621.92,590.63 C624.83,589.44 625.85,586.79 626.87,583.1 C631.9,572.96 638.51,564.43 646.47,558.64 C650.44,556.19 654.52,555.13 658.98,556.64 C658.53,563.64 655.78,569.3 652.25,573.9 C655.13,573.85 657.59,572.06 660.5,572.2 C661.16,579.47 656.1,582.57 652.88,586.78 C654.96,587.52 660.45,588.42 657.45,590.66 C652.96,594.42 648.04,596.96 643.87,601.35 C647.66,602.77 648.05,603.65 644.24,605.28 C641.87,606.95 638.56,607.33 637.78,610.96 C640.24,613.91 636.77,615.43 634.86,616.21 C631.58,617 628.84,618.11 632.64,621.96 C630.79,624.95 628.04,625.23 625.09,624.68 C625.99,628.67 626.96,632.16 623.67,633.75 C615.81,640.85 607.08,645.35 597.29,645.58 C609.56,648.33 621.58,646.77 632.11,638.96 C634.09,636.85 639.99,635.55 636.62,633.02 C634.51,631.7 631.07,630.12 630.44,628.15 C636.19,624.3 642.94,626.25 649.08,624.22 C648.74,621.65 644.87,621.8 642.74,621.08 C638.55,620.03 638.78,618.9 642.84,618.61 C648.1,617.33 653.57,617.29 658.09,613.25 C654.42,610.99 650.3,612.02 646.41,610.1 C652.87,607.03 660.1,607.03 665.95,601.95 C668.02,598.14 663.03,598.9 660.9,598.92 C657.3,599.19 655.87,597.29 659.76,595.36 C666.7,589.1 675.03,585.19 680.01,575.61 C681.17,573.07 682.8,567.41 679.07,569.01 C674.18,571.21 670.28,577.39 664.69,575.15 C675.39,564.64 685.46,552.48 692.86,537.2 C692.7,532.62 688.56,532.06 686.7,535.39 C679.82,544.09 673.56,554.09 664.81,559.21 C673.21,548.74 680.17,536.13 686.28,522.86 C687.75,518.75 690.79,514.38 689.18,509.61 C685.77,506.21 682.59,508.73 680.69,512.93 C675.39,522.15 671.21,532.81 664.43,540.11 C670.46,524.88 676.55,508.73 676.82,490.62 C676.74,486.5 676.29,481.91 672.55,481.81 C669.8,482.84 670.21,487.96 669.11,491.29 C666.48,503.48 665.09,516.64 659.74,527.07 C661,517.1 663,506.9 661.46,496.58 C660.13,492.1 655.9,493.39 656.03,498.01 C649.47,541.87 627.93,578.19 599.45,597.15 C586.31,605.52 571.97,609.94 557.09,610.8 C553.07,611.27 548.86,610.26 545,611.36 C535.83,619.84 530.13,634.64 518.53,638.21 C513.12,640.86 506.74,640.77 502.74,646.68 C502.44,647.5 502.36,648.43 502.36,649.39 L502.36,649.39"/>
  <path fill="#fec50c" d="M537.29,609.85 C535.62,613.9 534.46,618.55 532.34,622.1 C525.43,612.9 516.2,611.61 507.57,609.74 C500.44,608.1 493.25,606.05 487.62,598.47 C481.99,591.19 477.22,582.37 470.96,576.16 C465.11,573.07 459.47,569.53 454.68,563.44 C444.84,550.8 438.94,533.69 429.31,520.82 C427.41,518.09 425.29,515.82 423.2,513.42 C421.33,514.4 422.12,519.23 419.7,516.45 C418.1,514.98 415.45,514.48 414.81,516.16 C417.8,521.99 420.62,528.38 421.17,535.33 C418.99,535.21 415.73,534.22 414.53,534.87 C417.28,540.76 420.69,546.04 424.59,550.54 C422.54,550.61 419.24,550.15 418.29,550.89 C422.27,555.85 426.34,560.56 431.45,562.6 C432.18,564.83 430.26,567.64 432.08,569.8 C433.64,570.79 437.12,572.19 434.62,573.98 C432.78,575.9 433.34,579.34 435.89,580.05 C437.69,581.36 440.69,582.23 441.29,584.11 C439.53,585.96 435.93,587.3 439.24,589.89 C442.83,593.03 446.59,595.17 450.61,596.07 C448.56,597.98 446.24,599.06 444.14,600.84 C453.32,609.44 463.36,615.8 473.38,621.97 C477.38,624.39 481.39,626.66 485.51,628.41 C473.48,625.5 462.02,619.01 451.02,610.74 C445.35,606.52 439.65,602.42 433.86,598.66 C436.46,597.33 439.29,597.1 441.98,596.01 C436.42,593.74 430.67,592.27 425.71,587.59 C426.69,586.01 429.07,586.13 430.79,585.51 C433.75,584.9 435.45,584.2 431.4,583.14 C427.14,581.12 422.71,580.88 418.88,577.14 C419.5,575.3 422.63,576.22 424.48,575.7 C426.54,575.52 428.47,575.37 430.18,573.86 C423.56,569.49 415.7,570.56 410.41,562.38 C409.72,559.46 413.65,561.99 415.35,561.98 C418.89,562.59 422.33,564.18 425.73,563.01 C416.36,556.09 406.58,549.52 399.34,538.33 C398.36,536.18 396.43,532.23 398.09,531.41 C403.6,533.51 407.64,541.38 413.54,541.39 C413.85,539.9 410.43,537.23 409.05,534.9 C400.42,523.62 392.13,511.63 386.01,497.68 C386.13,493.13 390.2,493.25 392.02,496.74 C398.61,506.28 404.65,517 412.79,524.14 C415.64,526.27 411.35,521.68 410.5,520.02 C402.92,506.95 395.74,493.34 390.38,478.51 C389.32,475.46 388.06,471.51 390.7,470.01 C393.81,468.75 396.1,471.2 397.8,474.93 C403.34,485.3 407.58,497.13 414.44,506.16 C408.5,489.61 402.31,472.36 402.04,454.24 C402.2,450.38 402.32,445.98 405.82,446.07 C408.66,446.38 408.35,450.5 409.24,453.46 C412.08,467.15 413.47,481.57 419.14,494.14 C417.84,484.09 416.08,473.76 417.23,463.89 C417.8,460.59 419.96,460.11 421.99,462.25 C423.35,467.25 423.78,473.15 425.02,478.46 C432.55,514.19 449.07,546.8 470.75,570.69 C488.76,590.16 509.71,603.31 531.42,608.48 C533.38,609 535.34,609.4 537.3,609.85 L537.29,609.85"/>
  <path fill="#fec50c" d="M511,650.14 C510.95,651.07 510.53,651.58 509.84,651.55 C509.17,651.37 508.73,650.71 508.68,649.78 C508.73,648.85 509.15,648.34 509.84,648.37 C510.51,648.55 510.95,649.2 511,650.14"/>
  <path fill="#fec50c" d="M510.22,649.76 C510.19,650.14 510.02,650.35 509.74,650.34 C509.47,650.26 509.29,650 509.27,649.61 C509.29,649.24 509.46,649.03 509.74,649.04 C510.02,649.11 510.19,649.38 510.22,649.76"/>
  <path fill="#00afca" d="M510.31,649.78 C510.29,650.31 510.14,650.5 509.74,650.46 C509.35,650.38 509.19,650.14 509.17,649.6 C509.19,649.06 509.35,648.88 509.74,648.91 C510.13,649 510.29,649.24 510.31,649.78 M510.12,649.75 C510.12,649.6 510.08,649.48 510.01,649.36 C509.93,649.25 509.85,649.19 509.74,649.17 C509.48,649.15 509.37,649.27 509.36,649.63 C509.37,649.99 509.48,650.15 509.74,650.21 C510.01,650.23 510.11,650.11 510.12,649.75"/>
  <path fill="#fec50c" d="M67.04,219.18 C66.66,218.89 62.82,215.8 60.71,218.75 C58.55,224.25 68.36,241.91 68.65,249.78 C68.4,262.5 62.63,267.77 54.88,272.63 C49.65,275.63 41.55,277.44 41.47,277.46 C43.11,273.89 44.03,272.77 46.69,271.39 C43.64,270.29 40.96,267.35 40.77,260.17 C40.88,249.33 43.92,243.51 44.04,231.29 C43.8,224.41 40.03,217.67 39.96,217.55 C47.34,215.89 50.54,223.02 48.7,231.36 C49.89,231.06 50.81,230.39 51.78,228.86 C52.18,230.79 51.49,233.22 50.36,235.79 C51.3,236.02 51.87,235.49 53.34,234.49 C53.13,236.7 52.28,239.06 50.07,242.13 C56.79,237.55 60.29,241.83 60.52,248.47 C60.28,253.6 58.11,257.39 55.58,258.67 C54.72,258.95 53.7,258.95 52.97,258.56 C52.57,260.15 52.77,261.7 53.23,262.94 C51.34,262.87 50.42,262.08 51.11,258.64 C49.65,258.97 48.73,258.79 47.9,257.89 C48.73,256.22 49.76,255.15 51.11,254.61 C50.25,252.03 51.16,250.31 52.85,248.25 C52.78,248.7 51.83,253.71 54.46,253.31 C55.71,252.77 56.61,251.98 56.72,249.53 C56.58,247.27 55.54,245.31 52.31,246.44 C49.14,248.07 46.94,251.35 46.74,258.25 C46.99,264.54 50.18,265.91 55.21,264.41 C59.69,262.65 62.6,258.76 62.84,252.42 C62.61,244.25 54.45,228.87 54.23,221.64 C54.51,215.97 57.66,212.08 61.32,210.49 C66.13,209.3 69.46,213.36 69.72,213.66 L67.04,219.17 L67.04,219.18"/>
  <path id="op" fill="#fec50c" d="M68.03,366.14 C67.72,379.96 59.26,389.63 52.04,392.67 C42.38,396.12 37.72,391.01 37.52,380.69 C37.57,374.92 38.31,371.05 40.23,364.7 L61.95,294.63 C62.67,292.17 62.93,289.71 62.96,286.11 C62.68,280.41 59.27,277.72 54.92,278.92 C51.05,280.61 47.37,286.46 47.09,292.33 C47.3,299.25 49.49,300.93 52.31,300.08 C55.63,298.61 56.72,296.68 56.86,293.4 C56.78,291.16 56.17,290.65 54.99,290.99 C52.35,292.52 52.93,296.54 52.98,296.89 C51.5,296.85 50.58,295.66 51.11,292.85 C50.04,292.9 49.21,292.59 48.4,291.72 C49.18,290.41 50,289.39 51.11,288.64 C50.56,285.81 51.29,284.32 53.22,282.83 C52.86,284.13 52.84,285.13 52.95,286.09 C56.22,283.85 60.11,283.88 60.48,290.95 C60.27,298.22 57.05,304.66 50.3,306.18 C51.91,306.77 52.6,308.27 52.85,310.69 C51.61,310.57 50.34,310.94 50.3,310.95 C51.14,312.54 52.05,313.68 52.11,317.39 C50.8,317.02 49.84,316.25 48.16,317.66 C50.46,323.7 47.63,333.23 39.86,339.01 C42.66,333.19 43.99,327.92 44.08,322.97 C43.97,307.18 40.97,305.85 40.87,294.87 C40.98,290.15 42.62,284.77 46.02,279.84 L46.02,280.02 C43.66,280.01 42.44,279.23 41.47,277.46 C46.91,273.27 53.94,270.61 58.2,271.08 C63.03,270.39 65.87,273.62 67.04,275.94 C67.99,278.27 69.69,286.15 67.04,295.37 L44.95,367.71 C44.02,370.94 43.47,374.07 43.41,377.32 C43.76,385.44 48.56,385.95 51.91,384.83 C55.74,383.05 59.05,378.43 59.34,373.4 C59.21,370.25 58.25,369.14 56.4,369.64 C52.31,371.69 52.51,375.6 53.32,378.7 C50.63,377.88 49.39,376.04 49.63,372.71 C48.07,372.96 46.88,372.62 45.48,371.16 C46.57,368.93 47.72,367.32 49.63,366.39 C49.06,361.89 50.96,359.41 53.32,357.25 C52.6,361.24 52.1,364.61 56.4,363.41 C59.69,362.25 61.7,362.14 63.36,364.32 L63.65,348.62 L63.69,346.05 C63.38,340.61 58.71,342.63 54.86,345.66 C56.34,338.72 58.81,334.71 65.16,333.06 C63.53,332.6 62.19,331.47 62.02,327.6 C62.23,322.32 65.03,315.98 67.04,313.37 L68.03,366.14 L68.03,366.14"/>
  <path fill="#fec50c" d="M68.03,407 C67.72,393.24 59.35,389.7 52.04,392.28 C42.48,396.31 37.72,405.68 37.52,416.05 C37.57,421.83 38.31,425.02 40.23,429.76 L43.84,438.51 L61.95,482.86 C62.66,484.78 62.93,487.04 62.96,490.65 C62.69,496.42 59.16,501.76 54.92,503.81 C50.93,505.13 47.37,502.27 47.09,496.51 C47.3,489.52 49.57,485.96 52.31,484.65 C55.7,483.54 56.72,484.63 56.86,487.86 C56.78,490.12 56.13,491.15 54.99,491.69 C52.19,492.21 52.93,487.73 52.98,487.33 C51.55,488.48 50.6,490.48 51.11,492.82 C50.09,493.57 49.19,494.61 48.4,496.09 C49.2,496.79 49.96,497.15 51.11,497.03 C50.55,500.34 51.25,501.21 53.22,501.21 C52.86,500.19 52.83,499.22 52.95,498.15 C56.18,497.87 60.12,494.83 60.48,487.62 C60.27,480.47 57.16,476.31 50.3,480.12 C51.86,478.33 52.61,476.15 52.85,473.63 C51.61,474.71 50.32,475.35 50.3,475.35 C51.12,473.15 52.05,471.17 52.11,467.5 C50.82,468.87 49.79,470.4 48.16,470.33 C50.47,462.44 47.73,455.05 39.86,455.76 C42.68,459.26 43.99,463.33 44.08,468.31 C43.97,484.1 40.97,488.07 40.87,499.05 C40.99,503.82 42.57,507.64 46.02,509.87 L46.02,509.69 C43.75,511.54 42.4,513.5 41.47,515.96 C46.8,515.66 53.95,512.83 58.2,509.18 C62.85,506.38 65.92,500.9 67.04,497.9 C68,494.89 69.66,485.75 67.04,478.47 L44.95,422.87 C44.02,420.4 43.47,417.77 43.41,414.51 C43.75,406.22 48.63,401.68 51.91,400.21 C55.85,399 59.04,401.07 59.34,406.01 C59.21,409.2 58.19,411.1 56.4,411.97 C52.16,413.05 52.5,409 53.32,405.26 C50.69,408.09 49.4,411.1 49.63,414.12 C48.15,415.06 46.85,416.45 45.48,418.98 C46.61,420.37 47.63,421.05 49.63,420.44 C49.05,425.52 50.9,426.36 53.32,426.71 C52.6,423.28 52.23,420.2 56.4,418.2 C59.6,416.91 61.74,415.44 63.36,412.15 L63.69,430.17 C63.39,435.66 58.72,437.22 54.86,437.12 C56.35,443 58.72,445.05 65.16,442.11 C63.59,443.68 62.18,445.96 62.02,449.84 C62.24,455.14 64.96,459.23 67.04,460.47 L68.03,407 L68.03,407"/>
  <path fill="#fec50c" d="M67.04,219.18 C67.42,218.63 71.27,212.82 73.37,214.29 C75.46,218.13 65.71,242.92 65.43,250.91 C65.69,263.56 71.4,264.67 79.2,264.06 C84.34,263.37 92.53,259.45 92.61,259.41 C90.95,256.97 90.11,256.52 87.39,257.03 C90.37,253.85 93.12,248.8 93.31,241.62 C93.2,230.78 90.16,227.27 90.04,215.05 C90.27,208.19 94.07,198.54 94.12,198.43 C86.84,201.95 83.55,211.43 85.38,218.42 C84.15,218.98 83.29,218.96 82.3,218.1 C81.89,220.39 82.59,222.24 83.72,224.03 C82.77,224.93 82.2,224.79 80.74,224.83 C80.96,226.98 81.76,228.62 84.01,230.16 C77.38,230.32 73.79,237.11 73.56,243.87 C73.8,248.94 75.86,251.12 78.5,250.59 C79.32,250.28 80.39,249.52 81.11,248.64 C81.5,249.92 81.32,251.62 80.85,253.2 C82.71,251.82 83.64,250.31 82.97,247.4 C84.38,246.73 85.37,245.84 86.18,244.38 C85.33,243.28 84.38,242.95 82.97,243.37 C83.85,240.12 82.93,239.12 81.23,238.24 C81.3,238.64 82.09,243.07 79.62,244.44 C78.35,244.79 77.47,244.67 77.36,242.26 C77.5,239.95 78.63,237.17 81.77,236.05 C85.01,235.43 87.14,237.08 87.34,243.92 C87.09,250.3 83.83,254.05 78.87,256.07 C74.31,257.49 71.49,255.71 71.24,249.46 C71.46,241.29 79.63,219.84 79.85,212.61 C79.56,207.03 76.5,205.44 72.76,206.46 C68.22,208.54 64.52,215.24 64.36,215.55 L67.04,219.18 L67.04,219.18"/>
  <path fill="#fec50c" d="M66.05,366.84 C66.36,380.55 74.75,384.17 82.04,382.09 C91.61,378.75 96.36,370.23 96.56,359.83 C96.51,354.06 95.77,350.75 93.85,345.77 L72.13,291.04 C71.42,289.1 71.15,286.84 71.12,283.23 C71.39,277.45 74.91,272.19 79.16,270.37 C83.15,269.29 86.71,272.48 86.99,278.26 C86.78,285.24 84.52,288.58 81.77,289.7 C78.39,290.58 77.36,289.46 77.22,286.22 C77.3,283.96 77.94,282.97 79.09,282.49 C81.87,282.14 81.15,286.58 81.1,286.98 C82.54,285.92 83.49,284 82.97,281.62 C84,280.94 84.89,279.98 85.68,278.57 C84.88,277.79 84.12,277.37 82.97,277.4 C83.53,274.14 82.82,273.21 80.86,273.08 C81.22,274.12 81.25,275.1 81.13,276.15 C77.89,276.22 73.96,279.1 73.6,286.33 C73.81,293.5 76.93,297.66 83.78,294.38 C82.22,296.05 81.47,298.17 81.23,300.68 C82.48,299.68 83.76,299.15 83.78,299.14 C82.96,301.29 82.03,303.19 81.97,306.86 C83.27,305.58 84.28,304.13 85.92,304.34 C83.6,312.08 86.38,319.54 94.22,319.82 C91.41,315.97 90.09,311.74 90,306.76 C90.11,290.97 93.11,287.36 93.21,276.39 C93.09,271.63 91.5,267.57 88.06,265.01 L88.06,265.19 C90.34,263.56 91.68,261.78 92.61,259.41 C87.22,259.08 80.18,261.33 75.88,264.85 C71.22,267.47 68.16,272.94 67.04,275.94 C66.08,278.96 64.42,288.1 67.04,295.37 L89.13,352.12 C90.06,354.68 90.61,357.38 90.67,360.64 C90.33,368.89 85.47,372.93 82.17,374.16 C78.24,375.11 75.04,372.91 74.74,367.97 C74.87,364.78 75.89,362.92 77.68,362.14 C81.91,361.28 81.57,365.34 80.76,369.02 C83.39,366.37 84.68,363.49 84.45,360.43 C85.94,359.61 87.22,358.35 88.6,355.95 C87.48,354.45 86.44,353.67 84.45,354.11 C85.03,349.09 83.17,348.08 80.76,347.57 C81.49,351.07 81.85,354.13 77.68,355.91 C74.47,357.04 72.35,358.45 70.72,361.73 L70.43,346.23 L70.39,343.69 C70.69,338.19 75.35,336.75 79.22,337.07 C77.73,331.13 75.35,328.87 68.92,331.74 C70.49,330.18 71.9,327.94 72.06,324.06 C71.84,318.76 69.12,314.61 67.04,313.37 L66.05,366.84 L66.05,366.84"/>
  <path fill="#fec50c" d="M66.05,407.7 C66.36,393.82 74.82,384.25 82.04,381.7 C91.69,378.95 96.36,384.89 96.56,395.19 C96.51,400.97 95.77,404.72 93.85,410.82 L90.24,422.13 L72.13,479.27 C71.41,481.72 71.15,484.17 71.12,487.77 C71.4,493.46 74.82,496.23 79.16,495.27 C83.05,493.8 86.71,488.3 86.99,482.44 C86.78,475.51 84.59,473.62 81.77,474.27 C78.44,475.52 77.36,477.41 77.22,480.69 C77.3,482.92 77.91,483.47 79.09,483.19 C81.74,481.82 81.15,477.78 81.1,477.41 C82.57,477.55 83.5,478.82 82.97,481.58 C84.04,481.62 84.87,481.99 85.68,482.93 C84.9,484.18 84.08,485.13 82.97,485.8 C83.52,488.67 82.79,490.1 80.86,491.46 C81.22,490.18 81.24,489.18 81.13,488.22 C77.86,490.24 73.97,490.05 73.6,482.99 C73.81,475.74 77.01,469.33 83.78,468.31 C82.17,467.61 81.48,466.05 81.23,463.62 C82.47,463.83 83.75,463.56 83.78,463.55 C82.95,461.89 82.03,460.68 81.97,456.97 C83.28,457.43 84.24,458.27 85.92,457.02 C83.63,450.8 86.43,441.38 94.22,436.56 C91.42,442.03 90.09,447.15 90,452.11 C90.11,467.89 93.11,469.59 93.21,480.57 C93.1,485.31 91.46,490.44 88.06,495.04 L88.06,494.85 C90.41,495.11 91.65,496.04 92.61,497.91 C87.22,501.43 80.1,503.6 75.88,502.95 C71.06,503.45 68.21,500.22 67.04,497.9 C66.09,495.58 64.39,487.7 67.04,478.47 L89.13,407.28 C90.06,404.14 90.61,401.08 90.67,397.83 C90.32,389.66 85.53,388.67 82.17,389.54 C78.33,391.07 75.03,395.54 74.74,400.58 C74.87,403.73 75.83,404.87 77.68,404.46 C81.77,402.63 81.58,398.75 80.76,395.58 C83.45,396.58 84.69,398.54 84.45,401.84 C86,401.72 87.2,402.17 88.6,403.77 C87.5,405.9 86.37,407.38 84.45,408.17 C85.02,412.73 83.13,415.02 80.76,417.03 C81.48,413.1 81.97,409.72 77.68,410.7 C74.39,411.69 72.38,411.76 70.72,409.55 L70.39,427.81 C70.7,433.24 75.37,431.35 79.22,428.53 C77.74,435.41 75.28,439.21 68.92,440.79 C70.55,441.27 71.89,442.43 72.06,446.3 C71.85,451.57 69.05,457.86 67.04,460.47 L66.05,407.7 L66.05,407.7"/>
  <path fill="#fec50c" d="M67.04,793.17 C66.67,793.71 62.8,799.55 60.71,798.15 C58.61,794.35 68.37,769.36 68.65,761.45 C68.39,748.79 62.68,747.6 54.88,748.63 C49.73,749.63 41.6,754.39 41.47,754.47 C43.14,756.72 43.97,757.06 46.69,756.29 C43.72,759.75 40.96,765.16 40.77,772.34 C40.88,783.18 43.92,786.31 44.04,798.54 C43.81,805.38 40.01,815.53 39.96,815.63 C47.21,811.22 50.53,801.57 48.7,794.72 C49.93,794.05 50.79,794.01 51.78,794.79 C52.2,792.46 51.49,790.67 50.36,788.97 C51.31,788 51.88,788.09 53.34,787.95 C53.12,785.82 52.32,784.23 50.07,782.87 C56.69,782.19 60.29,775.35 60.52,768.58 C60.28,763.51 58.23,761.4 55.58,762.06 C54.76,762.41 53.69,763.24 52.97,764.17 C52.58,762.93 52.76,761.2 53.23,759.6 C51.38,761.1 50.44,762.69 51.11,765.54 C49.71,766.32 48.71,767.3 47.9,768.82 C48.75,769.85 49.7,770.1 51.11,769.57 C50.23,772.89 51.15,773.81 52.85,774.58 C52.78,774.19 51.99,769.79 54.46,768.28 C55.73,767.85 56.61,767.93 56.72,770.34 C56.58,772.65 55.44,775.48 52.31,776.8 C49.06,777.66 46.94,776.22 46.74,769.39 C46.99,763 50.26,758.9 55.21,756.6 C59.77,754.94 62.59,756.68 62.84,762.93 C62.62,771.05 54.45,792.85 54.23,800.13 C54.52,805.69 57.58,807.09 61.32,805.96 C65.85,803.78 69.56,797.11 69.72,796.82 L67.04,793.17 L67.04,793.17"/>
  <path fill="#fec50c" d="M68.03,645.51 C67.72,631.74 59.35,628.21 52.04,630.78 C42.48,634.81 37.72,644.19 37.52,654.56 C37.57,660.34 38.31,663.52 40.23,668.26 L43.84,677.01 L61.95,721.37 C62.66,723.29 62.93,725.54 62.96,729.16 C62.69,734.93 59.16,740.27 54.92,742.32 C50.93,743.63 47.37,740.78 47.09,735.02 C47.3,728.03 49.57,724.46 52.31,723.16 C55.7,722.05 56.72,723.14 56.86,726.37 C56.78,728.63 56.13,729.66 54.99,730.19 C52.19,730.72 52.93,726.24 52.98,725.83 C51.55,726.98 50.6,728.99 51.11,731.33 C50.09,732.08 49.19,733.12 48.4,734.59 C49.2,735.3 49.96,735.66 51.11,735.54 C50.55,738.85 51.25,739.72 53.22,739.72 C52.86,738.7 52.83,737.72 52.95,736.66 C56.18,736.38 60.12,733.34 60.48,726.12 C60.27,718.98 57.16,714.82 50.3,718.63 C51.86,716.84 52.61,714.65 52.85,712.14 C51.61,713.22 50.32,713.85 50.3,713.86 C51.12,711.65 52.05,709.68 52.11,706.01 C50.82,707.37 49.79,708.91 48.16,708.84 C50.47,700.95 47.73,693.55 39.86,694.26 C42.68,697.76 43.99,701.84 44.08,706.82 C43.97,722.6 40.97,726.58 40.87,737.56 C40.99,742.33 42.57,746.15 46.02,748.37 L46.02,748.19 C43.75,750.04 42.4,752 41.47,754.47 C46.8,754.17 53.95,751.34 58.2,747.68 C62.85,744.89 65.92,739.41 67.04,736.41 C68,733.39 69.66,724.26 67.04,716.98 L44.95,661.37 C44.02,658.9 43.47,656.28 43.41,653.02 C43.75,644.73 48.63,640.18 51.91,638.72 C55.85,637.5 59.04,639.58 59.34,644.52 C59.21,647.7 58.19,649.61 56.4,650.48 C52.16,651.56 52.5,647.51 53.32,643.77 C50.69,646.59 49.4,649.61 49.63,652.63 C48.15,653.56 46.85,654.96 45.48,657.49 C46.61,658.88 47.63,659.55 49.63,658.95 C49.05,664.03 50.9,664.86 53.32,665.21 C52.6,661.79 52.23,658.7 56.4,656.71 C59.6,655.42 61.74,653.95 63.36,650.65 L63.69,668.68 C63.39,674.17 58.72,675.73 54.86,675.62 C56.35,681.51 58.72,683.56 65.16,680.62 C63.59,682.19 62.18,684.46 62.02,688.35 C62.24,693.64 64.96,697.74 67.04,698.98 L68.03,645.51 L68.03,645.51"/>
  <path fill="#fec50c" d="M68.03,604.65 C67.72,618.47 59.26,628.13 52.04,631.17 C42.38,634.63 37.72,629.52 37.52,619.19 C37.57,613.42 38.31,609.55 40.23,603.21 L61.95,533.13 C62.67,530.67 62.93,528.22 62.96,524.61 C62.68,518.92 59.27,516.22 54.92,517.42 C51.05,519.11 47.37,524.97 47.09,530.84 C47.3,537.75 49.49,539.44 52.31,538.59 C55.63,537.11 56.72,535.19 56.86,531.9 C56.78,529.67 56.17,529.15 54.99,529.5 C52.35,531.02 52.93,535.05 52.98,535.4 C51.5,535.36 50.58,534.16 51.11,531.36 C50.04,531.41 49.21,531.1 48.4,530.23 C49.18,528.92 50,527.89 51.11,527.14 C50.56,524.32 51.29,522.82 53.22,521.33 C52.86,522.64 52.84,523.64 52.95,524.6 C56.22,522.36 60.11,522.39 60.48,529.46 C60.27,536.72 57.05,543.16 50.3,544.69 C51.91,545.28 52.6,546.78 52.85,549.2 C51.61,549.08 50.34,549.45 50.3,549.45 C51.14,551.05 52.05,552.19 52.11,555.9 C50.8,555.53 49.84,554.76 48.16,556.17 C50.46,562.21 47.63,571.74 39.86,577.52 C42.66,571.7 43.99,566.43 44.08,561.48 C43.97,545.68 40.97,544.35 40.87,533.38 C40.98,528.66 42.62,523.28 46.02,518.35 L46.02,518.53 C43.66,518.51 42.44,517.74 41.47,515.97 C46.91,511.78 53.94,509.11 58.2,509.59 C63.03,508.9 65.87,512.12 67.04,514.45 C67.99,516.77 69.69,524.66 67.04,533.88 L44.95,606.21 C44.02,609.45 43.47,612.58 43.41,615.82 C43.76,623.94 48.56,624.46 51.91,623.34 C55.74,621.56 59.05,616.94 59.34,611.9 C59.21,608.76 58.25,607.65 56.4,608.15 C52.31,610.2 52.51,614.11 53.32,617.21 C50.63,616.39 49.39,614.55 49.63,611.22 C48.07,611.46 46.88,611.13 45.48,609.66 C46.57,607.43 47.72,605.83 49.63,604.89 C49.06,600.39 50.96,597.92 53.32,595.76 C52.6,599.75 52.1,603.12 56.4,601.92 C59.69,600.76 61.7,600.65 63.36,602.83 L63.65,587.12 L63.69,584.56 C63.38,579.11 58.71,581.13 54.86,584.17 C56.34,577.23 58.81,573.22 65.16,571.57 C63.53,571.1 62.19,569.97 62.02,566.1 C62.23,560.83 65.03,554.48 67.04,551.88 L68.03,604.65 L68.03,604.65"/>
  <path fill="#fec50c" d="M67.04,793.17 C67.41,793.45 71.27,796.57 73.37,793.69 C75.54,788.23 65.71,770.37 65.43,762.58 C65.68,749.84 71.45,744.5 79.2,740.06 C84.5,737.34 92.47,736.43 92.61,736.42 C90.96,739.8 90.06,740.8 87.39,741.93 C90.43,743.32 93.12,746.61 93.31,753.79 C93.2,764.63 90.16,770.07 90.04,782.3 C90.28,789.16 94.05,796.39 94.12,796.51 C86.77,797.25 83.53,790 85.38,781.78 C84.18,781.97 83.27,782.57 82.3,784.03 C81.9,782.07 82.59,779.7 83.72,777.21 C82.78,776.91 82.21,777.39 80.74,778.3 C80.96,776.09 81.8,773.79 84.01,770.89 C77.3,774.95 73.79,770.64 73.56,763.98 C73.8,758.85 75.96,755.14 78.5,753.98 C79.36,753.75 80.38,753.82 81.11,754.25 C81.51,752.69 81.31,751.12 80.85,749.86 C82.73,750.05 83.65,750.92 82.97,754.3 C84.42,754.08 85.35,754.34 86.18,755.32 C85.35,756.91 84.33,757.89 82.97,758.34 C83.83,760.99 82.92,762.62 81.23,764.57 C81.3,764.12 82.24,759.17 79.62,759.41 C78.37,759.88 77.47,760.61 77.36,763.06 C77.5,765.34 78.55,767.33 81.77,766.42 C84.95,765.01 87.14,761.96 87.34,755.06 C87.09,748.76 83.89,747.05 78.87,748.27 C74.38,749.79 71.48,753.63 71.24,759.97 C71.47,768.09 79.63,783.81 79.85,791.09 C79.57,796.75 76.42,800.45 72.76,801.93 C67.96,803 64.61,799 64.36,798.7 L67.04,793.17 L67.04,793.17"/>
  <path fill="#fec50c" d="M66.05,646.21 C66.36,632.33 74.82,622.75 82.04,620.21 C91.69,617.46 96.36,623.4 96.56,633.7 C96.51,639.47 95.77,643.23 93.85,649.33 L90.24,660.64 L72.13,717.78 C71.41,720.22 71.15,722.68 71.12,726.28 C71.4,731.97 74.82,734.74 79.16,733.77 C83.05,732.31 86.71,726.8 86.99,720.95 C86.78,714.02 84.59,712.13 81.77,712.77 C78.44,714.03 77.36,715.91 77.22,719.19 C77.3,721.43 77.91,721.98 79.09,721.7 C81.74,720.32 81.15,716.28 81.1,715.92 C82.57,716.06 83.5,717.33 82.97,720.09 C84.04,720.12 84.87,720.5 85.68,721.44 C84.9,722.68 84.08,723.64 82.97,724.3 C83.52,727.18 82.79,728.61 80.86,729.97 C81.22,728.69 81.24,727.69 81.13,726.72 C77.86,728.75 73.97,728.56 73.6,721.5 C73.81,714.25 77.01,707.84 83.78,706.82 C82.17,706.11 81.48,704.56 81.23,702.13 C82.47,702.33 83.75,702.06 83.78,702.06 C82.95,700.4 82.03,699.18 81.97,695.48 C83.28,695.94 84.24,696.78 85.92,695.52 C83.63,689.31 86.43,679.89 94.22,675.07 C91.42,680.54 90.09,685.66 90,690.61 C90.11,706.4 93.11,708.1 93.21,719.08 C93.1,723.81 91.46,728.94 88.06,733.54 L88.06,733.36 C90.41,733.61 91.65,734.54 92.61,736.42 C87.22,739.93 80.1,742.1 75.88,741.45 C71.06,741.95 68.21,738.73 67.04,736.41 C66.09,734.08 64.39,726.2 67.04,716.98 L89.13,645.78 C90.06,642.65 90.61,639.59 90.67,636.34 C90.32,628.17 85.53,627.17 82.17,628.05 C78.33,629.58 75.03,634.05 74.74,639.09 C74.87,642.24 75.83,643.38 77.68,642.97 C81.77,641.13 81.58,637.26 80.76,634.09 C83.45,635.08 84.69,637.04 84.45,640.35 C86,640.23 87.2,640.68 88.6,642.28 C87.5,644.41 86.37,645.89 84.45,646.67 C85.02,651.23 83.13,653.52 80.76,655.54 C81.48,651.6 81.97,648.23 77.68,649.2 C74.39,650.2 72.38,650.26 70.72,648.06 L70.39,666.32 C70.7,671.75 75.37,669.85 79.22,667.03 C77.74,673.91 75.28,677.71 68.92,679.29 C70.55,679.78 71.89,680.94 72.06,684.81 C71.85,690.08 69.05,696.37 67.04,698.98 L66.05,646.21 L66.05,646.21"/>
  <path fill="#fec50c" d="M66.05,605.35 C66.36,619.06 74.75,622.67 82.04,620.6 C91.61,617.26 96.36,608.74 96.56,598.34 C96.51,592.56 95.77,589.26 93.85,584.28 L72.13,529.55 C71.42,527.61 71.15,525.35 71.12,521.73 C71.39,515.95 74.91,510.7 79.16,508.88 C83.15,507.8 86.71,510.98 86.99,516.77 C86.78,523.75 84.52,527.09 81.77,528.2 C78.39,529.08 77.36,527.97 77.22,524.73 C77.3,522.47 77.94,521.47 79.09,521 C81.87,520.64 81.15,525.08 81.1,525.49 C82.54,524.43 83.49,522.5 82.97,520.12 C84,519.44 84.89,518.49 85.68,517.08 C84.88,516.3 84.12,515.87 82.97,515.91 C83.53,512.65 82.82,511.72 80.86,511.58 C81.22,512.63 81.25,513.61 81.13,514.66 C77.89,514.73 73.96,517.61 73.6,524.83 C73.81,532.01 76.93,536.17 83.78,532.88 C82.22,534.56 81.47,536.68 81.23,539.19 C82.48,538.19 83.76,537.66 83.78,537.65 C82.96,539.8 82.03,541.69 81.97,545.37 C83.27,544.09 84.28,542.64 85.92,542.85 C83.6,550.59 86.38,558.05 94.22,558.32 C91.41,554.47 90.09,550.25 90,545.27 C90.11,529.48 93.11,525.87 93.21,514.9 C93.09,510.14 91.5,506.08 88.06,503.51 L88.06,503.7 C90.34,502.07 91.68,500.28 92.61,497.92 C87.22,497.58 80.18,499.84 75.88,503.36 C71.22,505.97 68.16,511.44 67.04,514.44 C66.08,517.46 64.42,526.6 67.04,533.87 L89.13,590.62 C90.06,593.19 90.61,595.89 90.67,599.14 C90.33,607.39 85.47,611.44 82.17,612.67 C78.24,613.61 75.04,611.42 74.74,606.48 C74.87,603.29 75.89,601.43 77.68,600.64 C81.91,599.79 81.57,603.85 80.76,607.53 C83.39,604.87 84.68,601.99 84.45,598.94 C85.94,598.12 87.22,596.85 88.6,594.45 C87.48,592.96 86.44,592.18 84.45,592.61 C85.03,587.59 83.17,586.59 80.76,586.08 C81.49,589.57 81.85,592.64 77.68,594.41 C74.47,595.55 72.35,596.96 70.72,600.23 L70.43,584.73 L70.39,582.2 C70.69,576.69 75.35,575.26 79.22,575.58 C77.73,569.63 75.35,567.38 68.92,570.25 C70.49,568.69 71.9,566.45 72.06,562.56 C71.84,557.26 69.12,553.11 67.04,551.88 L66.05,605.35 L66.05,605.35"/>
  <path fill="#1A1A1A" opacity="0.2" d="M8,195.25 C178.83,110.03 349.03,140.83 521.26,167.28 C676.47,191.12 833.42,211.85 992,132.75 L992,804.75 C821.17,889.97 650.97,859.17 478.74,832.72 C323.53,808.88 166.58,788.15 8,867.25 L8,195.25 M39.25,214.64 L39.25,819.14 C345.81,690.88 650.43,915.18 960.75,785.36 L960.75,180.86 C654.19,309.12 349.57,84.82 39.25,214.64"/>
</svg>
