<?xml version="1.0" encoding="UTF-8" standalone="no"?><svg xmlns:dc="http://purl.org/dc/elements/1.1/" xmlns:cc="http://creativecommons.org/ns#" xmlns:rdf="http://www.w3.org/1999/02/22-rdf-syntax-ns#" xmlns:svg="http://www.w3.org/2000/svg" xmlns="http://www.w3.org/2000/svg" viewBox="0 0 45 45" style="enable-background:new 0 0 45 45;" xml:space="preserve" version="1.1" id="svg2"><metadata id="metadata8"><rdf:RDF><cc:Work rdf:about=""><dc:format>image/svg+xml</dc:format><dc:type rdf:resource="http://purl.org/dc/dcmitype/StillImage"/></cc:Work></rdf:RDF></metadata><defs id="defs6"><clipPath id="clipPath16" clipPathUnits="userSpaceOnUse"><path id="path18" d="M 0,36 36,36 36,0 0,0 0,36 Z"/></clipPath></defs><g transform="matrix(1.25,0,0,-1.25,0,45)" id="g10"><g id="g12"><g clip-path="url(#clipPath16)" id="g14"><g transform="translate(36,9)" id="g20"><path id="path22" style="fill:#002395;fill-opacity:1;fill-rule:nonzero;stroke:none" d="m 0,0 c 0,-2.209 -1.791,-4 -4,-4 l -28,0 c -2.209,0 -4,1.791 -4,4 l 0,18 c 0,2.209 1.791,4 4,4 l 28,0 c 2.209,0 4,-1.791 4,-4 L 0,0 Z"/></g><g transform="translate(6,31)" id="g24"><path id="path26" style="fill:#eeeeee;fill-opacity:1;fill-rule:nonzero;stroke:none" d="m 0,0 0,-12 -6,0 0,-1 19,0 0,13 -13,0 z"/></g><path id="path28" style="fill:#ed2939;fill-opacity:1;fill-rule:nonzero;stroke:none" d="m 18,19 -6,0 0,12 6,0 0,-12 z"/><path id="path30" style="fill:#eeeeee;fill-opacity:1;fill-rule:nonzero;stroke:none" d="m 12,19 -6,0 0,12 6,0 0,-12 z"/><g transform="translate(29.9639,15.9062)" id="g32"><path id="path34" style="fill:#ffffff;fill-opacity:1;fill-rule:nonzero;stroke:none" d="m 0,0 -1.701,-2.631 0,4.763 2.268,0 0.838,0.961 -3.88,0 -3.879,0 0.837,-0.961 2.269,0 0,-4.763 -1.701,2.631 -2.475,-3.867 1.237,0 1.238,2.035 2.474,-4.356 2.475,4.356 1.238,-2.035 1.238,0 L 0,0 Z"/></g><g transform="translate(27.0127,16.9951)" id="g36"><path id="path38" style="fill:#ffffff;fill-opacity:1;fill-rule:nonzero;stroke:none" d="m 0,0 3.119,0 -0.687,-0.941 -2.269,0 L 0,0 Z"/></g><path id="path40" style="fill:#ffffff;fill-opacity:1;fill-rule:nonzero;stroke:none" d="m 26.252,12.359 -2.476,0 0,0.617 2.476,0 0,-0.617 z"/><path id="path42" style="fill:#ffffff;fill-opacity:1;fill-rule:nonzero;stroke:none" d="m 31.202,12.359 -2.475,0 0,0.617 2.475,0 0,-0.617 z"/><g transform="translate(27.4893,8.7939)" id="g44"><path id="path46" style="fill:#ffffff;fill-opacity:1;fill-rule:nonzero;stroke:none" d="m 0,0 0.299,-1.027 1.034,0 -0.816,-0.66 0.298,-1.015 -0.815,0.62 -0.816,-0.604 0.299,1 -0.816,0.659 1.007,0 L 0,0 Z"/></g><g transform="translate(22.1523,18)" id="g48"><path id="path50" style="fill:#ffffff;fill-opacity:1;fill-rule:nonzero;stroke:none" d="m 0,0 0.299,-1.026 1.034,0 -0.815,-0.632 0.298,-1 -0.816,0.627 -0.815,-0.6 0.298,0.973 -0.815,0.632 1.006,0 L 0,0 Z"/></g><g transform="translate(32.8252,18)" id="g52"><path id="path54" style="fill:#ffffff;fill-opacity:1;fill-rule:nonzero;stroke:none" d="m 0,0 0.3,-1.026 1.033,0 -0.815,-0.632 0.298,-1 -0.816,0.627 -0.814,-0.6 0.297,0.973 -0.815,0.632 1.007,0 L 0,0 Z"/></g><g transform="translate(24.5605,10.8496)" id="g56"><path id="path58" style="fill:#ffffff;fill-opacity:1;fill-rule:nonzero;stroke:none" d="m 0,0 0.298,-1.026 1.034,0 L 0.517,-1.668 0.814,-2.673 0,-2.048 l -0.816,-0.6 0.299,0.981 -0.816,0.641 1.006,0 L 0,0 Z"/></g><g transform="translate(30.418,10.8496)" id="g60"><path id="path62" style="fill:#ffffff;fill-opacity:1;fill-rule:nonzero;stroke:none" d="m 0,0 0.3,-1.026 1.033,0 L 0.517,-1.668 0.816,-2.673 0,-2.048 l -0.814,-0.6 0.297,0.981 -0.815,0.641 1.007,0 L 0,0 Z"/></g></g></g></g></svg>
