<svg xmlns="http://www.w3.org/2000/svg" viewBox="0 0 1000 1000">
  <defs/>
  <path fill="#ce1126" d="M8,195.25 C178.83,110.03 349.03,140.83 521.26,167.28 C676.47,191.12 833.42,211.85 992,132.75 L992,804.75 C821.17,889.97 650.97,859.17 478.74,832.72 C323.53,808.88 166.58,788.15 8,867.25 L8,195.25"/>
  <path fill="#fff" d="M8,363.25 C178.83,278.03 349.03,308.83 521.26,335.28 C676.47,359.12 833.42,379.85 992,300.75 L992,636.75 C821.17,721.97 650.97,691.17 478.74,664.72 C323.53,640.88 166.58,620.15 8,699.25 L8,363.25"/>
  <path fill="#ff9c10" d="M462.76,479.19 L438.85,474.95 L438.85,465.27 L462.76,479.19"/>
  <path fill="#ff9c10" d="M438.85,460.43 L438.85,444.3 C438.64,444.29 436.35,444.31 436.46,441.13 C436.95,436.87 443.99,444.41 451.96,452.71 C455.9,456.81 459.88,460.91 462.85,463.48 L462.66,476.36 L438.85,460.43"/>
  <path fill="#ff9c10" d="M360.82,505.04 C359.78,497.59 359.23,490.05 359.21,482.4 C359.22,478.55 359.36,474.75 359.62,470.99 L409.76,479.37 L409.76,511.24 L360.82,505.04"/>
  <path fill="#ff9c10" d="M360.63,461.38 C362.29,449.65 365.23,438.59 369.33,428.2 L410.16,449.58 L410.56,472.22 L360.63,461.38"/>
  <path fill="#ff9c10" d="M373.05,419.73 C378.03,409.49 384.12,400.2 391.25,391.9 L414.14,415.03 C413.92,415.19 410.93,417.29 410.84,420.1 C410.97,421.35 411.87,422.09 412.99,422.97 C414.13,423.86 415.03,424.6 415.11,425.86 C414.66,428.45 411.68,428.45 411.24,430.82 C411.43,433.33 414.62,436.19 414.82,436.36 L408.97,441.77 L373.05,419.73"/>
  <path fill="#ff9c10" d="M640.3,508.41 C640.53,511.48 640.68,514.56 640.76,517.66 L637.24,543.46 L584.25,537.05 L583.85,505.94 L640.3,508.41"/>
  <path fill="#ff9c10" d="M638.53,498.74 L584.67,498.81 L584.26,475.76 L629.56,461.93 C629.75,462.41 629.99,462.88 630.18,463.36 C632.52,469.98 634.47,476.68 636.02,483.46 C637.13,488.53 637.86,493.62 638.53,498.74"/>
  <path fill="#ff9c10" d="M607.04,420.9 C614.21,430.66 620.39,441.08 625.5,452.11 L585.07,468.62 C584.41,465.56 583.22,462.83 580.71,460.73 C582.92,459.53 584.32,457.1 582.56,454.47 C582.3,454.15 581.92,453.81 581.51,453.46 C580.38,452.49 579.45,451.69 580.22,450.45 L580.81,449.83 C582.43,448.11 583.89,446.51 583,443.84 C582.32,441.86 580.68,440.01 580.46,438.02 L607.04,420.9"/>
  <path fill="#ff9c10" d="M532.08,490.56 L532.08,490.56 L555.18,483.72 L554.78,492.95 L532.08,490.56"/>
  <path fill="#ff9c10" d="M532.06,485.51 L531.97,475.01 L535.58,472.27 C541.91,467.47 554.67,457.85 558.06,455.61 C557.81,459.74 555.68,462.28 555.57,462.41 L555.57,477.74 L532.06,485.51"/>
  <path fill="#ff9c10" d="M398.58,384.15 C406.11,376.95 414.4,370.83 423.48,365.85 L462.76,433.93 L462.66,457.61 L440.05,432.08 C439.81,432.03 437.16,431.5 436.84,429.17 C437.19,426.39 439.61,427.51 439.93,423.91 C439.51,420.34 436.12,419.85 435.69,417.09 C435.99,414.29 438.23,415.22 438.52,411.21 C438.21,407.91 435.82,407.46 431.49,406.69 L428.5,406.13 C422.6,404.93 417.87,404.65 416.78,407.01 L398.58,384.15"/>
  <path fill="#ff9c10" d="M463.21,352.98 L467.18,360.99 C462.08,364.2 461.51,423.1 461.51,423.69 L433.24,361.14 C442.68,357.17 452.66,354.43 463.21,352.98"/>
  <path fill="#ff9c10" d="M557.17,374.93 C559.89,376.61 562.57,378.36 565.2,380.18 L531.99,435.36 L532.04,409.7 C532.01,409.07 532.2,408.39 532.43,407.68 C532.94,406.08 533.34,404.89 531.12,404.19 C527.42,403.81 523.74,403.13 520.05,402.13 L531.83,362.22 L533.14,362.75 C535.9,363.93 538.63,365.21 541.33,366.58 C546.67,369.2 551.97,371.93 557.17,374.93"/>
  <path fill="#ff9c10" d="M573.1,386 C582.99,393.76 592.04,402.53 600.17,412.17 L585.8,425.18 C584.91,425.63 584.04,426.56 583.14,427.6 C581.44,429.55 580.19,431.02 578.37,429.37 C575.34,428.18 572.4,427.88 569.29,427.65 C567.54,427.52 565.8,427.37 564.06,427.06 C560.33,426.27 555.65,427.36 558.07,432.27 C561.43,434.36 560.99,438.62 557.69,439.75 C555.81,441.31 556.91,442.38 558.3,443.78 C559.41,444.9 560.24,445.74 559.58,446.84 L532.04,469.55 L532.09,444.57 L573.1,386"/>
  <path fill="#083d9c" d="M467,621.61 C467.3,621.64 467.59,621.69 467.89,621.74 L468.33,621.81 C482.6,624.34 486.74,635.73 496.62,638.5 C501.71,639.55 506.01,637.65 510.99,635.32 C515.98,632.98 520.99,630.75 527.27,631.31 C539.71,633.1 555.04,645.45 555.2,645.58 L525.7,651.34 C520.55,651.53 515.32,651.43 509.99,651.02 C499.61,649.39 489.24,647.6 478.85,644.91 C466.3,640.94 454.35,635.43 443.07,628.58 C448.29,625.4 457.43,620.92 467,621.61"/>
  <path fill="#083d9c" d="M466.91,619.87 C467.15,619.9 467.49,619.95 467.92,620.02 L468.33,620.09 C474.16,621.1 480.02,624.3 486.59,630.15 C490.88,633.96 494.13,636.04 496.78,636.81 C499.84,637.42 504.02,636.49 510.12,633.71 C517.2,630.46 522.69,629.16 527.21,629.58 C535.89,630.7 545.31,635.47 556.13,644.28 L557.75,645.61 C540.03,651.34 520.67,652.96 500,649.84 C479.01,646.51 459.28,638.71 441.34,627.5 C450.61,621.67 458.88,619.23 466.91,619.87 M467.1,623.35 C460.33,622.83 453.35,624.72 445.41,629.31 C453.14,633.67 461.17,637.38 469.57,640.46 C479.67,643.7 494.8,646.93 515.05,650.07 L515.28,650.11 C517.75,650.16 520.12,650.18 522.41,650.15 L551.31,644.53 C542.3,637.7 534.5,633.99 527.33,633.05 C523.4,632.71 518.45,633.92 511.87,636.93 C505.14,640.01 500.28,641 496.47,640.2 C493.2,639.28 489.39,636.89 484.59,632.62 C478.62,627.31 473.42,624.44 468.33,623.54 L467.86,623.46 C467.51,623.4 467.25,623.37 467.1,623.35"/>
  <path fill="#083d9c" d="M412.96,605.26 C410.59,602.96 408.28,600.61 406.02,598.2 C413.41,596.08 431.55,591.37 437.66,591.75 C441.26,592.23 445.82,594.92 450.91,598.06 C456.66,601.61 462.61,605.16 467.94,605.93 C477.92,606.81 485.45,600.37 498.61,601.77 C504.93,602.7 508.92,605.34 513.13,608.25 C517.73,611.42 522.15,614.36 529.69,615.03 C536.21,615.33 538.55,613.88 541.14,612.19 C544.3,610.14 547.18,608.32 557.57,609.92 C571.64,612.54 583.85,623.61 589.39,629.35 L586.11,631.66 C528.98,623.69 471.83,613.44 412.96,605.26"/>
  <path fill="#083d9c" d="M590.63,628.42 L588.19,630.21 C586.12,628.08 583.75,625.89 581.04,623.62 C572.74,616.82 565.1,612.91 557.54,611.54 C550.9,610.52 546.08,611.19 542.12,613.62 C538.39,615.94 534.55,616.89 529.82,616.67 C524.44,616.2 518.83,613.93 512.39,609.57 C507.05,605.95 502.63,603.99 498.66,603.4 C494.09,602.91 488.55,603.59 481.64,605.55 C475.75,607.23 471.33,607.85 468,607.56 C464.17,607.02 458.39,604.42 450.25,599.43 C443.94,595.57 439.9,593.69 437.75,593.38 C433.18,593.05 423.13,594.97 407.3,599.57 L404.74,596.81 C421.69,591.81 432.53,589.75 437.58,590.12 C440.26,590.47 444.78,592.53 451.57,596.68 C459.25,601.39 464.56,603.82 467.88,604.3 C470.8,604.54 474.85,603.95 480.37,602.38 C487.66,600.31 493.59,599.6 498.57,600.14 C503.09,600.8 508.03,602.96 513.86,606.92 C519.76,610.91 524.79,612.96 529.56,613.39 C533.66,613.58 536.93,612.76 540.16,610.77 C544.72,607.95 550.21,607.16 557.61,608.31 C565.79,609.78 574,613.96 582.81,621.17 C585.79,623.67 588.38,626.07 590.63,628.42 M584.1,633 C528.29,625.17 472.47,615.21 414.97,607.16 L411.03,603.37 C469.44,611.43 527.87,621.97 588.06,630.31 C586.76,631.23 585.44,632.13 584.1,633"/>
  <path fill="#083d9c" d="M391.38,580.29 C389.51,577.66 387.7,574.98 385.95,572.25 L389.17,570.58 C395.48,567.27 403.17,563.42 408.98,563.97 C418.47,565.59 427.37,578.22 437.26,580.79 C442.15,581.68 445.76,579.74 450.05,577.31 C454.71,574.68 459.38,572.15 466.34,573.01 C479.43,575.33 487.12,587.55 497.42,589.48 C507.81,590.77 518.5,582.16 528.89,583.04 C534.26,583.83 539.45,587.49 544.71,591.33 C549.68,594.96 554.27,598.15 558.77,598.8 C567.95,599.39 575.87,589.9 587.05,590.66 C597.61,593.24 608.26,601.84 611.52,608.14 C610.37,609.56 609.2,610.95 608.01,612.31 C536.53,603.22 465.04,589.63 391.38,580.29"/>
  <path fill="#083d9c" d="M612.66,606.7 L610.6,609.27 C609.85,607.49 608.07,605.25 604.85,602.22 C599.08,597.01 593.33,593.82 587.01,592.28 C583.3,592.06 578.59,593.39 572.29,596.51 C566.38,599.44 562.1,600.64 558.84,600.43 C555.5,599.97 550.7,597.51 543.93,592.62 C537.09,587.68 532.26,585.17 528.95,584.67 C525.72,584.4 520.96,585.39 514.18,587.86 C506.68,590.59 501.28,591.59 497.42,591.1 C493.82,590.43 489.17,587.97 482.98,583.32 C476.13,578.18 470.76,575.41 466.34,574.63 C461.99,574.1 457.12,575.38 450.96,578.78 C445.15,581.98 440.83,583.08 437.14,582.39 C433.58,581.48 428.8,578.64 422.4,573.49 C416.27,568.58 411.98,566.12 408.98,565.59 C405.39,565.25 399.29,567.25 390.02,572.05 C388.87,572.65 387.81,573.18 386.84,573.64 L385.03,570.8 L388.33,569.1 C398.12,564.02 404.78,561.92 408.98,562.34 C412.62,562.95 417.49,565.68 424.14,571.02 C430.09,575.81 434.37,578.4 437.39,579.19 C440.32,579.71 443.96,578.7 449.14,575.85 C455.85,572.14 461.32,570.75 466.34,571.38 C471.34,572.25 477.25,575.25 484.59,580.77 C490.29,585.05 494.4,587.27 497.42,587.86 C500.76,588.27 505.69,587.31 512.73,584.75 C519.93,582.13 525.14,581.08 528.83,581.41 C532.74,581.98 538.12,584.71 545.49,590.03 C551.74,594.54 555.97,596.76 558.7,597.16 C561.4,597.32 565.17,596.22 570.6,593.53 C577.45,590.14 582.7,588.72 587,589.03 L587.09,589.04 L587.19,589.06 C594.16,590.72 600.51,594.22 606.8,599.9 C609.52,602.46 611.42,604.68 612.66,606.7 M606.7,613.77 C536.08,604.74 465.45,591.36 392.68,582.08 L390.12,578.51 C462.44,587.62 534.76,601.43 609.28,610.85 L606.7,613.77"/>
  <path fill="#083d9c" d="M472.46,569.44 C471.98,568.85 481.97,555.28 497.82,556.81 C512.06,558.35 523.17,576.44 523.15,577.23 L472.46,569.44"/>
  <path fill="#083d9c" d="M474.05,571.3 L474.05,571.31 L472.46,571.06 C471.46,570.86 471.01,570.38 470.85,569.33 C470.83,569.13 470.84,568.94 470.88,568.73 L470.88,567.58 L471.37,567.65 C471.68,567.16 472.1,566.6 472.63,565.96 C474.15,564.18 475.89,562.54 477.94,560.95 C484.37,556.23 490.66,554.41 497.73,555.18 C504.18,555.78 510.29,559.26 516.93,566.2 C519.02,568.46 520.89,570.78 522.58,573.22 C524.55,576.22 524.99,577.68 524.27,578.55 L523.81,578.95 L474.05,571.3 M475.21,568.24 L520.31,575.17 L520.08,574.83 C518.51,572.57 516.77,570.4 514.83,568.3 C508.84,562.06 503.51,558.98 497.95,558.45 L497.91,558.45 L497.86,558.44 C491.54,557.76 485.92,559.41 480.04,563.7 C478.18,565.14 476.59,566.63 475.21,568.24"/>
  <path fill="#083d9c" d="M627.29,582.93 C626.15,585.3 624.97,587.61 623.73,589.89 L564.74,582.22 C564.96,582.12 573.34,578.07 576.16,573.51 C580.57,576.77 579.5,578.75 588.41,580.55 C593.05,581.19 597.26,579.35 601.75,577.25 C606.16,575.19 610.18,573.41 614.52,573.95 C618.78,574.87 623.36,578.78 627.29,582.93"/>
  <path fill="#083d9c" d="M627.96,581.48 L626.57,584.41 C621.53,579 617.7,576.26 614.45,575.56 C611.83,575.25 608.09,576.22 602.55,578.75 C596.28,581.62 591.78,582.65 588.34,582.16 C583.75,581.24 580.62,579.71 578.14,577.26 C577.63,576.73 577.15,576.26 576.69,575.84 C575.19,577.77 573.11,579.54 570.13,581.37 L624.55,588.36 L622.87,591.41 L558.89,583 L563.94,580.7 C569.73,578 573.1,575.41 574.75,572.58 L575.49,571.19 L576.92,572.18 C577.97,572.93 579.07,573.9 580.26,575.14 C582.16,576.99 584.66,578.17 588.48,578.94 C591.3,579.31 595.23,578.36 600.96,575.74 C607.03,572.97 611.35,571.92 614.59,572.34 C618.4,573.12 622.63,575.97 627.96,581.48"/>
  <path fill="#083d9c" d="M376.27,554.99 C374.49,551.33 372.84,547.61 371.3,543.83 C374.38,541.82 377.33,540.54 380.35,540.59 C384.65,541.08 388.72,543.85 393.11,547 C397.59,550.22 401.87,553.16 406.46,553.74 C415.41,554.32 414.26,552.08 418.7,550.01 C421.48,555.26 429.98,561.82 430.13,561.93 L376.27,554.99"/>
  <path fill="#083d9c" d="M377.13,556.71 L375.45,553.28 L424.74,559.55 C421.78,556.91 419.66,554.52 418.18,552.2 C417.72,552.49 417.23,552.83 416.73,553.22 C414.24,555.01 411.14,555.68 406.53,555.37 C403.13,554.96 398.57,552.73 392.32,548.3 C386.79,544.39 383.01,542.53 380.42,542.22 C377.96,542.18 375.39,543.13 371.95,545.43 L370.67,542.25 C374.42,539.87 377.38,538.89 380.27,538.96 C383.48,539.31 387.84,541.4 393.91,545.69 C399.63,549.75 403.61,551.75 406.39,552.11 C410.24,552.36 412.69,551.86 414.61,550.52 C415.8,549.6 416.89,548.94 417.95,548.48 L419.38,547.88 L420.12,549.47 C421.74,552.72 425.17,556.31 430.92,560.64 L435.98,564.39 L377.13,556.71"/>
  <path fill="#083d9c" d="M366.99,531.9 C365.67,527.72 364.5,523.5 363.48,519.21 C367.13,522.76 373.22,527.74 379.49,528.45 C383.17,528.55 386.8,526.91 390.95,524.93 C397.36,521.85 403.84,518.88 411.76,522.4 C412.33,530.97 415.31,538.13 415.34,538.21 L366.99,531.9"/>
  <path fill="#083d9c" d="M367.54,533.59 C365.69,527.96 364.13,522.24 362.86,516.42 C368.74,523.02 373.97,526.27 379.42,526.82 C381.64,526.86 385.04,525.83 390.14,523.43 C399.47,519.07 406.47,518.32 412.27,520.93 L413.29,521.43 L413.34,522.54 C413.66,528.05 414.78,532.99 416.77,537.71 L417.86,540.2 L367.54,533.59 M367.07,530.29 L412.92,536.24 C411.49,532.18 410.61,527.99 410.25,523.44 C405.48,521.85 399.65,522.74 391.75,526.42 C386.19,529.03 382.3,530.17 379.56,530.08 C374.45,529.58 369.68,527.2 364.45,522.46 L367.07,530.29"/>
  <path fill="#083d9c" d="M629.67,568.48 L580.27,562.73 C580.32,562.64 583.28,556.37 583.86,547.9 C591.74,546.51 598.27,551.16 604.67,555.81 C608.8,558.81 612.49,561.34 616.13,562.09 C625.52,563.12 634.59,554.37 634.85,554.11 L629.67,568.48"/>
  <path fill="#083d9c" d="M629.69,570.1 L577.76,564.03 L578.84,561.84 C580.84,557.66 581.96,553.05 582.28,547.6 L582.33,546.5 L583.35,546.29 C589.12,545.25 596.15,547.84 605.47,554.51 C610.57,558.16 614.01,560.01 616.2,560.48 C621.98,561.25 627.46,558.89 633.69,552.88 L636.35,554.81 L630.86,570.05 L629.81,570.11 L629.69,570.1 M628.55,566.74 L631.17,559.47 C625.93,563.1 621.21,564.41 616.06,563.71 C613.35,563.16 609.42,561.09 603.87,557.11 C595.98,551.46 590.11,549.03 585.38,549.34 C585.01,553.81 584.13,557.75 582.7,561.42 L628.55,566.74"/>
  <path fill="#083d9c" d="M485.11,548.46 C485.09,548.48 485.08,548.48 485.06,548.46 L485.11,548.46 C485.13,548.42 485.16,548.28 485.19,548.06 C485.49,546.08 486.26,540.56 497.41,541.9 C510.51,544.39 510.16,551.2 510.15,551.54 L485.11,548.46"/>
  <path fill="#083d9c" d="M485.61,550.15 C485.01,550.29 484.54,550.1 483.94,549.44 L480.91,545.89 L483.81,546.55 C485.31,541.09 489.39,539.2 497.41,540.28 C503.52,541.33 507.35,543.31 509.93,546.64 C511.22,548.53 511.76,550.12 511.74,551.87 L511.66,553.34 L485.61,550.15 M487.11,547.09 L508.27,549.68 C508.08,549.25 507.83,548.8 507.49,548.33 C505.54,545.89 502.53,544.42 497.41,543.52 C491.5,542.75 488.53,543.79 487.11,547.09 M484.75,546.76 L485.09,546.84 L485.46,546.89 C485.22,546.77 485,546.73 484.75,546.76"/>
  <path fill="#ce1126" d="M524.1,485.92 L471.91,463.75 L471.51,369.72 C476.37,358.6 480.99,348.8 522.5,361.04 C480.22,358.4 500.24,407.44 524.1,410.49 L524.1,485.92"/>
  <path fill="#630810" d="M471.5,465.26 C470.7,464.87 470.36,464.38 470.32,463.51 C470.32,463.48 470.32,463.46 470.32,463.44 L469.93,369.48 C469.93,369.26 469.97,369.06 470.05,368.87 C473.47,361.26 477.43,356.92 482.58,355.03 C490.68,352.44 503.79,353.86 522.73,359.47 C523.59,359.78 523.97,360.25 524.08,361.17 C524.11,362.3 523.72,362.71 522.62,362.68 C513.07,362.05 506.86,363.81 502.83,368.22 C499.62,372.19 498.75,376.89 500.04,383.48 C501.48,389.7 504.32,395.09 508.9,400.23 C513.82,405.47 518.57,408.16 524.02,408.86 C524.04,408.86 524.07,408.86 524.1,408.87 C525.19,409.1 525.62,409.61 525.68,410.73 L525.68,486.16 C525.68,486.3 525.66,486.43 525.63,486.56 C525.47,487.08 525.27,487.36 524.94,487.53 C524.59,487.66 524.23,487.63 523.69,487.42 L471.5,465.26 M473.49,462.74 L522.51,483.57 L522.51,411.89 C516.82,410.73 511.82,407.7 506.75,402.29 C501.7,396.61 498.54,390.63 496.96,383.73 C495.43,376.09 496.5,370.52 500.33,365.84 C503.19,362.69 506.79,360.79 511.86,359.78 C499.02,356.75 489.95,356.26 483.95,358.16 C479.59,359.8 476.18,363.56 473.1,370.28 L473.49,462.74"/>
  <path fill="#ce1126" d="M483.5,533.7 C470.29,585.46 426.07,568.49 417.88,526.55 L417.17,442.78 C417.64,441.2 421.61,440.8 422.13,438.79 C422.08,437.8 421.46,437.08 420.59,436.14 C419.52,434.97 418.5,433.79 418.23,431.79 C418.26,430.72 419.13,430.36 420.28,429.9 C421.47,429.43 422.4,429.04 422.49,427.88 C422.34,426.53 421.31,425.44 420.1,424.25 C418.96,423.13 418.09,422.21 418.03,421.16 C418.58,419.2 421.09,417.95 421.44,415.65 C421.36,414.02 420.34,412.82 419.46,411.85 C418.4,410.67 417.98,410.26 421.42,410.68 L430.11,411.72 C430.14,411.72 433.23,412.24 433.97,412.32 C433.68,412.54 433.23,412.8 432.69,413.1 C430.9,414.1 428.98,415.24 428.87,417.11 C429.63,419.99 434.1,420.57 434.9,423.71 C434.89,425.18 433.9,425.55 432.55,426.05 C431.18,426.55 430.09,426.97 429.94,428.56 C430.53,431.74 434.41,431.34 434.9,434.49 C434.77,436.22 433.67,436.82 432.36,437.5 C431.18,438.12 430.33,438.58 430.29,439.82 C430.77,442.4 433.65,444.27 433.84,444.39 C433.83,444.94 432.88,524.85 434.71,526.5 C442.27,540.85 471.64,550.78 483.5,533.7"/>
  <path fill="#630810" d="M482.05,532.8 C482.41,532.01 482.9,531.84 483.88,532.18 C484.4,532.41 484.72,532.67 484.94,533.03 C485.12,533.41 485.16,533.8 485.04,534.32 L485.04,534.33 L485.04,534.33 C481.83,547.03 476.94,555.9 470.05,561.69 C463.51,566.86 456.78,568.49 448.72,566.86 C441.09,565.07 434.6,560.83 428.48,553.6 C422.35,546.05 418.38,537.27 416.32,526.65 C416.3,526.55 416.29,526.45 416.29,526.35 L415.99,484.42 L415.58,442.55 C415.7,441.31 416.56,440.44 418.68,439.5 C419.96,438.96 420.49,438.66 420.55,438.53 C420.52,438.37 420.22,437.95 419.52,437.18 C417.73,435.17 416.88,433.51 416.65,431.7 C416.65,430.21 417.45,429.27 419.55,428.36 C420.48,427.99 420.87,427.78 420.91,427.7 C420.84,427.3 420.31,426.58 419.09,425.36 C417.25,423.48 416.49,422.15 416.45,420.87 C416.45,420.82 416.46,420.77 416.46,420.72 C416.65,419.75 417.25,418.75 418.46,417.47 C419.39,416.49 419.8,415.86 419.86,415.39 C419.82,414.79 419.39,414.03 418.37,412.88 C417.04,411.32 416.82,410.39 417.54,409.45 C418.14,408.93 419.25,408.79 421.39,409.05 L427.33,409.76 L430.08,410.09 C430.36,410.13 430.6,410.22 430.85,410.38 C430.89,410.39 431.89,410.51 433.89,410.69 C434.41,410.76 434.78,410.97 435.14,411.4 C435.5,411.87 435.65,412.25 435.65,412.65 C435.61,413.04 435.43,413.35 435.03,413.68 C434.79,413.86 434.31,414.16 433.58,414.57 C431.39,415.82 430.52,416.59 430.45,417.2 C430.54,417.56 431.11,418.06 432.43,418.87 C435.04,420.52 436.2,421.96 436.48,423.81 C436.5,425.6 435.61,426.65 433.25,427.6 C432.09,428.04 431.61,428.38 431.52,428.77 C431.61,429.15 432.04,429.55 433.03,430.1 C435.39,431.49 436.36,432.81 436.49,434.71 C436.37,436.52 435.45,437.74 433.22,438.99 C432.28,439.48 431.91,439.76 431.87,439.94 C432.03,441.02 432.77,441.91 434.49,443 C435.13,443.43 435.4,443.9 435.42,444.64 C434.6,498.12 434.6,524.48 435.14,525 C435.57,525.2 435.86,525.48 436.1,525.92 C439.91,533.23 446.73,537.79 457.62,540.31 C469.09,542.69 476.79,540.33 482.05,532.8 M479.86,540.23 C474.11,544.47 466.99,545.52 457.4,543.52 C445.36,540.74 437.69,535.5 433.32,527.08 L433.67,526.93 C432.05,521.25 431.51,494.1 432.24,445.16 C429.98,443.45 428.96,441.85 428.71,439.7 C428.73,438.17 429.5,437.13 431.5,436.02 C432.75,435.34 433.26,434.83 433.32,434.26 C433.27,433.9 432.87,433.52 431.87,432.96 C429.53,431.59 428.53,430.28 428.35,428.39 L428.35,428.33 C428.49,426.53 429.46,425.45 431.85,424.49 C432.88,424.1 433.29,423.85 433.32,423.62 C433.21,423.13 432.59,422.54 431.14,421.65 C428.65,420.07 427.55,418.72 427.29,417.01 C427.28,415.67 427.87,414.58 429.37,413.25 L427.39,413.01 L421.76,412.34 C422.63,413.67 423.01,414.77 423.02,415.91 C422.92,417.2 422.28,418.41 420.83,419.94 C420.13,420.68 419.75,421.18 419.63,421.5 C419.72,421.69 420.19,422.23 421.11,423.14 C423.08,425.15 423.94,426.63 424.07,428.06 C424,429.57 423.15,430.52 421.01,431.44 C420.4,431.68 420.03,431.87 419.85,431.99 L419.81,431.88 C419.94,432.8 420.49,433.78 421.66,435.09 C423.08,436.68 423.68,437.87 423.72,439.06 C423.56,440.5 422.58,441.49 420.19,442.56 C419.5,442.85 419.05,443.06 418.84,443.2 L418.75,443.01 L419.16,484.82 L419.46,526.6 C421.41,536.52 425.1,544.67 430.77,551.68 C436.32,558.23 442.12,562.04 448.94,563.66 C456.06,565.08 462.01,563.63 467.87,559.01 C472.96,554.72 476.85,548.65 479.86,540.23"/>
  <path fill="#ce1126" d="M513.2,538.3 C525.08,559.06 554.38,558 561.99,545.74 C563.89,544.58 562.87,464.52 562.86,463.88 C563.09,463.8 565.92,462.83 566.41,460.32 C566.38,459.1 565.57,458.37 564.48,457.44 C563.26,456.4 562.22,455.46 562.1,453.71 C562.59,450.57 566.18,452.32 566.76,449.17 C566.63,447.56 565.61,446.76 564.36,445.84 C563.13,444.93 562.2,444.21 562.2,442.75 C562.86,439.63 565.83,440.39 566.43,437.51 C566.4,435.32 564.95,433.8 563.61,432.48 C563.35,432.24 563.12,432.01 562.93,431.8 C563.68,431.93 566.56,432.27 566.59,432.27 L575.28,433.68 C578.71,434.21 578.31,434.5 577.25,435.39 C576.35,436.13 575.35,437.01 575.26,438.65 C575.6,440.96 578.14,443.05 578.67,445.09 C578.61,446.15 577.75,446.8 576.6,447.61 C575.38,448.48 574.37,449.25 574.21,450.58 C574.3,451.75 575.25,452.42 576.42,453.22 C577.57,453.99 578.44,454.61 578.47,455.67 C578.2,457.63 577.2,458.49 576.11,459.36 C575.23,460.08 574.62,460.6 574.57,461.59 C575.06,463.63 579.09,465.35 579.53,466.95 L578.83,550.53 C570.58,590.49 526.42,594.18 513.2,538.3"/>
  <path fill="#630810" d="M511.66,538.44 L511.66,538.44 C511.46,537.3 511.77,536.82 512.83,536.66 C513.8,536.62 514.3,536.94 514.66,537.85 C519.89,546.95 527.66,551.73 539.09,552.8 C550.02,553.56 556.77,551 560.6,544.76 C560.84,544.38 561.12,544.2 561.57,544.11 C562.12,543.74 562.1,517.42 561.28,463.68 C561.3,462.93 561.56,462.55 562.21,462.31 C563.95,461.7 564.67,461.05 564.83,459.99 C564.8,459.79 564.44,459.38 563.58,458.64 C561.5,456.79 560.62,455.27 560.51,453.49 C560.63,451.6 561.53,450.59 563.79,449.86 C564.71,449.58 565.1,449.31 565.18,448.92 C565.1,448.47 564.64,447.94 563.57,447.13 C561.43,445.46 560.6,444.1 560.62,442.39 C560.85,440.72 561.68,439.61 563.51,438.54 C564.4,438.03 564.78,437.64 564.85,437.17 C564.83,436.26 564.19,435.2 562.61,433.6 C562.26,433.26 562.02,433.01 561.87,432.85 C561.09,431.94 561.06,431.32 561.76,430.55 C562.13,430.22 562.49,430.11 563.01,430.19 C564.89,430.56 565.84,430.71 565.89,430.72 C566.13,430.64 566.36,430.62 566.62,430.65 L570.8,431.34 L575.31,432.06 C577.44,432.39 578.57,432.84 579.16,433.52 C579.89,434.66 579.66,435.53 578.33,436.72 C577.31,437.59 576.89,438.21 576.85,438.82 C576.9,439.3 577.31,440.06 578.24,441.29 C579.45,442.89 580.06,444.08 580.24,445.09 C580.25,445.14 580.25,445.19 580.25,445.24 C580.21,446.53 579.47,447.62 577.61,449 C576.38,449.89 575.86,450.44 575.8,450.84 C575.83,450.93 576.23,451.25 577.15,451.88 C579.24,453.36 580.05,454.54 580.05,456.02 C579.82,457.79 578.99,459.18 577.18,460.71 C576.48,461.29 576.18,461.61 576.15,461.77 C576.2,461.9 576.75,462.37 578.02,463.25 C580.12,464.77 581,465.91 581.12,467.16 L580.71,508.91 L580.41,550.76 C580.41,550.86 580.4,550.96 580.38,551.05 C578.32,561.15 574.37,568.78 568.22,574.62 C562.09,580.13 555.66,582.48 547.99,582.01 C539.97,581.25 533.17,577.56 526.66,570.42 C519.78,562.54 514.86,552.08 511.66,538.44 M516.84,545.94 C519.84,555.25 523.77,562.58 528.83,568.39 C534.67,574.78 540.68,578.06 547.77,578.74 C554.63,579.14 560.36,577.03 565.93,572.05 C571.62,566.64 575.29,559.57 577.24,550.14 L577.54,508.44 L577.95,466.74 L577.86,466.91 C577.65,466.72 577.2,466.38 576.51,465.9 C574.14,464.18 573.14,462.87 572.98,461.41 C573.03,460.22 573.62,459.23 575.04,458.02 C576.23,457.03 576.76,456.22 576.89,455.32 L576.85,455.42 C576.68,455.25 576.3,454.96 575.69,454.55 C573.57,453.05 572.71,451.83 572.63,450.32 C572.76,448.89 573.61,447.7 575.6,446.22 C576.52,445.56 576.98,445.17 577.08,444.99 C576.95,444.64 576.57,444.03 575.87,443.11 C574.43,441.18 573.78,439.75 573.68,438.47 C573.7,437.31 574.07,436.34 574.94,435.25 L570.74,434.57 L566.77,433.92 C567.68,435.37 568.05,436.57 568.01,437.86 C567.81,439.41 567.03,440.46 565.27,441.49 C564.3,442.04 563.87,442.52 563.78,443.11 C563.8,443.4 564.19,443.82 565.15,444.55 C567.31,446.22 568.23,447.63 568.35,449.38 L568.35,449.44 C568.18,451.29 567.25,452.29 565.01,453.03 C564.09,453.31 563.73,453.57 563.68,453.94 C563.74,454.54 564.22,455.22 565.38,456.23 C567.24,457.88 567.98,459.17 567.99,460.65 C567.74,462.77 566.75,464.03 564.46,465.1 C565.2,514.26 564.65,541.27 563.03,546.47 L563.38,546.72 C559,553.92 551.39,556.92 539.3,556.08 C529.75,555.19 522.58,551.94 516.84,545.94"/>
  <path fill="#630810" d="M469.92,535.23 L452,532.53 C456.2,527.97 463.84,524.29 463.95,524.24 L481.08,526.45 C478.1,531.66 474.42,533.42 469.92,535.23"/>
  <path fill="#630810" d="M471.01,537.46 L470.02,535.43 L470.1,537.6 L469.92,536.96 L469.92,537.58 L447.31,534.19 L450.19,530.82 C453.12,527.52 457.19,524.66 462.78,522.05 L463.29,521.81 L484.84,524.6 L483.12,527.83 C480.79,531.93 476.99,534.98 471.01,537.46 M469.34,532.8 C472.44,531.45 474.78,529.98 476.65,528.22 L464.6,526.67 C461.74,528.04 459.34,529.47 457.3,530.98 L469.34,532.8"/>
  <path fill="#630810" d="M525.29,543.77 L525.29,543.77 C520.83,540.6 517.09,537.64 514.14,531.56 L531.26,534.59 C531.33,534.64 539.05,540.71 543.21,546.48 L525.29,543.77"/>
  <path fill="#630810" d="M524.2,545.66 C518.27,541.38 514.4,537.08 512.09,532.31 L510.37,528.55 L531.92,532.36 L532.43,532.75 C538,537.04 542.11,541.16 545.02,545.31 L547.9,549.53 L525.29,546.11 L525.29,545.69 L525.17,546.09 L525.17,546.09 L525.23,543.87 L524.2,545.66 M525.87,541.51 L537.91,543.34 C535.87,541.22 533.46,539.06 530.61,536.82 L518.56,534.7 C520.42,537 522.79,539.23 525.87,541.51"/>
  <path fill="#630810" d="M438.85,511.33 L556.77,529.61 C558.35,529.94 558.98,530.67 559.05,532.3 C559.03,533.11 558.86,533.6 558.48,533.97 C558.05,534.3 557.55,534.4 556.76,534.3 L438.84,516.01 C437.26,515.69 436.63,514.96 436.55,513.33 C436.58,512.52 436.75,512.03 437.13,511.66 C437.56,511.33 438.06,511.23 438.85,511.33"/>
  <path fill="#630810" d="M446.25,484.71 L460.19,505.74 C461.08,507.23 460.96,508.1 459.74,508.96 C458.43,509.67 457.56,509.42 456.54,508.02 L442.59,487 C441.7,485.52 441.83,484.65 443.04,483.78 C444.36,483.06 445.23,483.32 446.25,484.71"/>
  <path fill="#630810" d="M442.66,503.04 L457.8,486.73 C458.89,485.7 459.76,485.75 461.03,486.92 C462.19,488.21 462.27,489.11 461.32,490.27 L446.18,506.57 C445.09,507.6 444.23,507.55 442.95,506.39 C441.79,505.11 441.71,504.21 442.66,503.04"/>
  <path fill="#630810" d="M454.68,486.23 L454.28,497.86 C454.23,498.67 454.04,499.15 453.65,499.51 C453.22,499.82 452.71,499.9 451.91,499.77 C450.34,499.4 449.73,498.65 449.71,497.02 L450.1,485.38 C450.15,484.58 450.34,484.1 450.73,483.74 C451.17,483.43 451.68,483.35 452.47,483.47 C454.05,483.85 454.65,484.6 454.68,486.23"/>
  <path fill="#630810" d="M468.56,488.05 L482.5,509.15 C483.39,510.63 483.27,511.5 482.05,512.36 C480.74,513.07 479.87,512.81 478.85,511.41 L464.9,490.32 C464.01,488.84 464.14,487.97 465.35,487.11 C466.67,486.4 467.54,486.65 468.56,488.05"/>
  <path fill="#630810" d="M464.97,506.37 L480.11,490.13 C481.2,489.1 482.07,489.15 483.34,490.33 C484.5,491.61 484.58,492.52 483.63,493.68 L468.49,509.91 C467.4,510.94 466.53,510.88 465.26,509.71 C464.1,508.43 464.02,507.52 464.97,506.37"/>
  <path fill="#630810" d="M476.99,489.61 L476.59,501.24 C476.54,502.05 476.35,502.53 475.96,502.88 C475.53,503.19 475.02,503.27 474.22,503.14 C472.65,502.76 472.04,502 472.02,500.38 L472.41,488.74 C472.46,487.94 472.65,487.46 473.04,487.1 C473.48,486.8 473.99,486.72 474.78,486.84 C476.36,487.23 476.96,487.98 476.99,489.61"/>
  <path fill="#630810" d="M491.27,491.54 L505.21,512.66 C506.1,514.15 505.98,515.01 504.76,515.87 C503.44,516.58 502.57,516.32 501.55,514.91 L487.61,493.8 C486.72,492.31 486.84,491.44 488.06,490.58 C489.38,489.88 490.24,490.14 491.27,491.54"/>
  <path fill="#630810" d="M487.68,509.85 L502.82,493.64 C503.9,492.61 504.77,492.66 506.05,493.84 C507.21,495.13 507.29,496.03 506.33,497.19 L491.19,513.4 C490.11,514.42 489.24,514.37 487.97,513.19 C486.81,511.91 486.73,511 487.68,509.85"/>
  <path fill="#630810" d="M499.69,493.11 L499.3,504.75 C499.25,505.55 499.06,506.03 498.67,506.39 C498.23,506.69 497.73,506.77 496.93,506.64 C495.35,506.26 494.75,505.5 494.72,503.88 L495.12,492.24 C495.17,491.44 495.36,490.96 495.75,490.6 C496.19,490.3 496.69,490.22 497.49,490.35 C499.06,490.73 499.67,491.49 499.69,493.11"/>
  <path fill="#630810" d="M514.77,495.18 L528.71,516.28 C529.6,517.76 529.48,518.63 528.26,519.49 C526.95,520.2 526.08,519.94 525.06,518.54 L511.11,497.44 C510.23,495.95 510.35,495.08 511.57,494.22 C512.88,493.52 513.75,493.77 514.77,495.18"/>
  <path fill="#630810" d="M511.19,513.48 L526.33,497.26 C527.41,496.23 528.28,496.28 529.55,497.46 C530.71,498.74 530.79,499.65 529.84,500.8 L514.7,517.03 C513.62,518.06 512.75,518 511.47,516.83 C510.31,515.54 510.23,514.64 511.19,513.48"/>
  <path fill="#630810" d="M523.2,496.74 L522.8,508.37 C522.75,509.18 522.57,509.66 522.17,510.02 C521.74,510.32 521.23,510.4 520.43,510.27 C518.86,509.89 518.25,509.13 518.23,507.51 L518.63,495.87 C518.67,495.07 518.86,494.59 519.26,494.23 C519.69,493.93 520.2,493.85 520.99,493.98 C522.57,494.36 523.17,495.12 523.2,496.74"/>
  <path fill="#630810" d="M537.48,498.65 L551.42,519.69 C552.31,521.17 552.19,522.04 550.97,522.91 C549.66,523.62 548.79,523.37 547.77,521.97 L533.82,500.92 C532.93,499.43 533.05,498.56 534.27,497.7 C535.59,496.99 536.46,497.25 537.48,498.65"/>
  <path fill="#630810" d="M533.89,516.96 L549.03,500.68 C550.12,499.65 550.98,499.7 552.26,500.87 C553.42,502.14 553.5,503.05 552.55,504.21 L537.41,520.5 C536.32,521.53 535.45,521.48 534.18,520.31 C533.02,519.03 532.94,518.12 533.89,516.96"/>
  <path fill="#630810" d="M545.91,500.18 L545.51,511.82 C545.46,512.62 545.27,513.1 544.88,513.46 C544.45,513.77 543.94,513.85 543.14,513.72 C541.57,513.35 540.96,512.59 540.93,510.97 L541.33,499.33 C541.38,498.53 541.57,498.05 541.96,497.69 C542.4,497.38 542.91,497.3 543.7,497.43 C545.28,497.8 545.88,498.56 545.91,500.18"/>
  <path fill="#1A1A1A" opacity="0.2" d="M8,195.25 C178.83,110.03 349.03,140.83 521.26,167.28 C676.47,191.12 833.42,211.85 992,132.75 L992,804.75 C821.17,889.97 650.97,859.17 478.74,832.72 C323.53,808.88 166.58,788.15 8,867.25 L8,195.25 M39.25,214.64 L39.25,819.14 C345.81,690.88 650.43,915.18 960.75,785.36 L960.75,180.86 C654.19,309.12 349.57,84.82 39.25,214.64"/>
</svg>
