<svg xmlns="http://www.w3.org/2000/svg" viewBox="0 0 64 64" enable-background="new 0 0 64 64"><path d="M32,2v10H12v20H2c0,16.6,13.4,30,30,30s30-13.4,30-30S48.6,2,32,2z" fill="#2a5f9e"/><path d="M32,2c-4.7,0-9.1,1.1-13.1,3v3.1V11H11v2.9V14v4.9H5c-1.9,4-3,8.4-3,13.1h12V17l12,15h6v-7.5L23.6,14H32V2z" fill="#fff"/><g fill="#ed4c5c"><path d="m15.4 14l14.6 18h2v-4.9l-10.6-13.1z"/><path d="M32,5H18.9C12.9,7.9,7.9,12.9,5,18.9V32h6V11h21V5z"/></g><path d="m57.9 29.2c0 7.4-1.2 15.3-10.7 19.1-9.5-3.8-10.7-11.7-10.7-19.1-.1 0 21.4 0 21.4 0" fill="#49c3f2"/><path d="m47.2 48.3c4.3-1.7 6.9-4.3 8.5-7.3-.2 0-.7 0-.9 0-.2 0-9.2-.9-10.2-1.3-.9-.3-4.4.3-6.1.9 1.5 3.2 4.1 5.9 8.7 7.7" fill="#428bc1"/><path d="m40.5 43.8c.1 0 2.6.4 3-.2.4-.6-1.2-1.9-1.1-2.6 0-.2.2-.6.4-.7.4-.2 1.7.3 1.8-.6.1-1.5-1.2-2.7-1.6-4.1-.3-.9-.3-1.7-.4-2.6 0-.4-.1-.6-.5-.7-.5-.2-.5-.6-.7-1.1-.2 0-.7.4-.7.6 0 .9-.8.9-1.2 1.6-.3-.4-.5-1.1-.8-1.5-.4-.4-.5-.4-.4-1-.6-.5-.6.3-1 .5-.1.2-.5.5-.8 1 .3 4.1 1.2 8.1 4 11.4" fill="#c94747"/><path d="m57.9 29.2c0-2.8-.1-5.5-.1-7.8-3.6-1.6-8.3-1.9-10.7-1.9-2.4 0-7.1.3-10.7 1.9.1 2.4-.1 5.1-.1 7.8h21.6" fill="#ffe62e"/><path d="m49.6 39.9c-1.4 0-2.7 0-3.7-.1-.9-.1-1.2-.3-1.9-.7-1-.6-1.2-.7-2.6-1.5-.2-.1-.4 0-.1.2 1.4.9 1.9 1.2 2.5 1.7.7.4 2.7 1.7 2.7 1.7h8.1l1.3-2.7c0-.2-.1-.4-.1-.5-1.5.1-2.9.1-4 .1-.1.1-.2.3-.3.5-.6.1-1 .2-1.2.2.1.1-.5.9-.7 1.1" fill="#3e4347"/><path d="m44.7 21.3c-.4 0-1.1 0-1.3.1-.2.1-.2.1.1.2.3.1.8.2 1 .4.3.2.5.5.4.9-.2 1.2.4 2.4 1.4 2.9.1 0 .1.1.1.2 0 .2-.1.4-.1.5-.1.1-.1.2.1.1-.1.2-.4.6-.4.7-.8-.1-1.4 0-1.4.8 0 .1 0 .2.1 0 .1-.2.2-.4.6-.4-.3.3-.4.5-.3.7 0 .2.1.3.2.1s.2-.4.4-.5c.1 0 .1-.1.1.1s0 .4.1.5c.1.1.1.1.1-.1 0-.2 0-.5.2-.6.3-.1.5-.1.6.1.1.2.2 0 .1-.2s-.3-.4-.5-.4c.2-.3.4-.7.4-.8 0-.1.1-.1.2-.1.1 0 .1 0 .2-.1.1-.1.2-.5.3-.7.1 0 .2 0 .2-.1.2.3.4.6.4.7 0 .1.1.1.1.2 0 .1-.2.6-.2.7-.6 0-.8 0-1 .3-.1.1 0 .2.2.1.1-.1.3-.1.4-.1.1 0 .1.1 0 .1-.3.2-.6.4-.5.7 0 .1.1.2.1 0 .1-.2.3-.4.6-.5 0 .2 0 .6.2.7.2.1.2 0 .1-.1-.1-.2 0-.5.1-.6.2-.3.8.1.9.2.1.1.2.1.1-.1-.1-.3-.5-.5-.9-.6.1-.5.4-1.6.5-1.9.2.1.4-.2.8-.1.6.2 1.6.8 1.7 1s.2.1.3 0c.1-.1.2 0 .3 0 .1 0 .2.1.1-.2-.1-.3-.5-.8-1.1-1.2.3 0 .8 0 .8-.1s-.5-.3-.8-.3c.2-.1.5-.2.7-.3.1-.1 0-.1-.3-.1-1 0-1.5 0-2-.3-.8-.5-1.3-1-1.7-1.2-.2-.1-.3-.4-.4-.6-.3-.7-.3-1-.9-1.3-.4 0-1.2.3-1.5.6" fill="#c94747"/></svg>