<svg xmlns="http://www.w3.org/2000/svg" viewBox="0 0 1000 1000">
  <defs/>
  <path fill="#00247d" d="M8,195.25 C178.83,110.03 349.03,140.83 521.26,167.28 C676.47,191.12 833.42,211.85 992,132.75 L992,804.75 C821.17,889.97 650.97,859.17 478.74,832.72 C323.53,808.88 166.58,788.15 8,867.25 L8,195.25"/>
  <path fill="#fff" d="M8,195.25 C26.16,186.19 44.31,178.41 63.01,171.61 C126.04,191.91 189.04,226.03 254,269.78 C317.04,226.19 380.06,190.47 444.99,155.63 L500,164 L511,195.75 C444.33,230.98 377.67,265.7 309.01,308.71 C375.65,358 442.31,414.13 511,471.65 L489,528.35 C411.48,463.44 333.91,398.81 254,344.91 C176.44,398.61 98.86,463.87 19,555.96 L8,531.25 L8,493.68 C71.05,419.16 134.05,360.26 198.99,310 C135.99,272.71 72.92,244.75 8,232.82 L8,195.25"/>
  <path fill="#cf142b" d="M254,307.34 C266.1,307.24 278.2,307.42 290.67,307.86 C362.16,359.31 433.66,419.39 507.33,481.1 L500,500 C418.86,432.02 337.65,363.77 254,307.34 L254,332.39 C175.23,386.93 96.44,453.39 15.33,547.69 L8,531.25 C89.2,435.27 170.36,365.26 254,307.34 C241.9,307.46 229.8,307.85 217.33,308.61 C148.29,265.74 79.15,233.38 8,220.29 L8,195.25 C89.19,210.18 170.33,251 254,307.34 L254,282.3 C323.1,234.53 392.16,196.22 463.33,158.37 L500,164 C418.81,206.88 337.61,249.54 254,307.34"/>
  <path fill="#fff" d="M295,140.03 L295,252.03 C389.72,255.98 484.4,274.84 582,288.2 L582,400.2 C487.32,387.24 392.56,368.1 295,364.03 L295,532.03 C267.94,530.93 240.88,531.01 213,532.89 L213,364.89 C145.36,369.55 77.68,384.49 8,419.25 L8,307.25 C75.69,273.48 143.27,257.69 213,252.89 L213,140.89 C240.07,139.07 267.12,138.9 295,140.03"/>
  <path fill="#cf142b" d="M278.6,139.51 L278.6,273.91 C378.74,276.19 478.81,296.48 582,310.6 L582,377.8 C481.92,364.1 381.73,343.46 278.6,341.11 L278.6,531.51 C262.36,531.16 246.13,531.27 229.4,531.98 L229.4,341.58 C156.36,344.79 83.25,359.31 8,396.85 L8,329.65 C81.11,293.18 154.09,277.7 229.4,274.38 L229.4,139.98 C245.64,139.29 261.87,139.15 278.6,139.51"/>
  <path fill="#00247d" d="M8,531.25 C170.66,450.1 332.46,474.06 500,500 L500,164 C661.81,189.05 825.35,215.88 992,132.75 L992,804.75 C821.17,889.97 650.97,859.17 478.74,832.72 C323.53,808.88 166.58,788.15 8,867.25 L8,531.25"/>
  <path fill="#fff" d="M835.33,373.41 L835.33,468.81 C835.23,546.31 812.96,624.58 745.99,669.15 C678.98,625.75 656.75,549.16 656.65,471.69 L656.65,376.29 C715.61,381.48 774.58,382.43 835.33,373.41 L835.33,373.41"/>
  <path fill="#fdc300" d="M829.32,384 L829.32,472.98 C829.22,545.34 808.45,617.85 745.99,659.43 C683.5,618.94 662.76,547.85 662.66,475.51 L662.66,386.53 C717.66,391.08 772.66,391.8 829.32,384 L829.32,384"/>
  <path fill="#ff9e3d" d="M707.19,428.28 C705.9,426.98 704.72,426.27 702.86,426.04 C702.98,419.88 700.22,417.46 697.74,416.06 C695.4,414.74 694.7,413.63 694.22,411.07 C693.7,408.49 692.66,407.14 690.5,406.06 C688.4,404.92 686.65,402.23 685.78,400.7 C684.93,399.3 684.7,399.52 684.07,401.83 C683.26,404.46 681.28,407.91 683.26,408.65 C681.62,410.49 680.87,412.18 681.75,415.14 C680.6,416.45 679.93,417.85 681.35,418.82 C682.88,419.65 683.22,420.15 683.36,420.74 C681.99,421.03 681.71,423.96 684.87,425.36 C684.18,425.74 683.89,428.14 685.17,428.54 C683.4,428.77 681.82,431.68 679.54,431.88 C677.13,431.79 676.16,432.28 675.93,433.69 C675.72,435.1 674.66,436.55 674.02,437.26 C675.8,437.63 676.74,437.45 677.73,436.56 C678.78,435.67 680,435.53 681.15,436.66 C682.31,437.83 684.14,438.42 685.27,438.29 C683.03,440.38 681.61,442.75 681.25,445.45 C680.93,448.22 679.77,450.74 678.24,451.7 C676.65,452.57 674.89,454.4 674.02,457.03 C676.11,463.65 678.54,465.34 681.35,467.29 C686.22,470.68 689.09,473.01 691.21,476.13 C693.37,479.15 693.86,477.21 697.03,482.48 C700.02,488.04 703.01,497.55 705.88,499.63 C709.18,501.28 712.4,500.47 714.93,495.28 C717.09,489.54 718.37,438.14 707.19,428.28"/>
  <path fill="#000" d="M707.25,428.16 C712.19,432.44 715.15,443.74 716.25,463.28 C716.61,470.36 716.64,477.23 716.35,483.94 C716.04,490.18 715.56,493.88 715.02,495.35 C713.85,497.9 712.57,499.33 710.74,500.19 C709,500.82 707.58,500.7 705.84,499.76 C704.57,498.84 702.76,495.78 700.24,489.79 C698.78,486.3 697.68,483.91 696.95,482.57 C695.75,480.5 694.6,479.2 693.33,478.37 C692.43,477.81 691.74,477.13 691.13,476.22 C689.46,473.79 686.31,470.93 681.31,467.42 L681.15,467.32 C677.56,464.69 675.31,461.51 673.92,457.08 L673.9,457.03 L673.92,456.98 C674.75,454.31 676.01,452.73 678.2,451.57 C679.93,450.57 680.79,448.83 681.15,445.43 C681.46,442.81 682.55,440.74 684.83,438.51 C683.38,438.58 682.3,438.08 681.09,436.77 C679.94,435.58 679.06,435.56 677.8,436.68 C676.83,437.54 675.74,437.75 674,437.41 L673.76,437.35 L673.95,437.15 C675.13,435.83 675.68,434.78 675.82,433.67 C676.06,432.17 677.06,431.65 679.54,431.74 C680.39,431.73 681.31,431.21 682.64,429.95 C683.46,429.16 684.1,428.71 684.64,428.49 C684.32,428.19 684.18,427.74 684.16,426.95 C684.17,426.14 684.29,425.67 684.52,425.39 C683.19,424.8 682.55,424.02 682.3,422.65 C682.23,422.07 682.29,421.62 682.49,421.19 C682.69,420.82 682.9,420.65 683.21,420.59 C682.97,420.05 682.41,419.55 681.32,418.96 C680.55,418.5 680.31,417.98 680.47,417.07 C680.64,416.41 681,415.79 681.62,415.09 C680.9,412.61 681.29,410.81 683,408.74 C682.7,408.63 682.52,408.47 682.38,408.19 C682.25,407.87 682.21,407.49 682.28,406.96 C682.38,406.34 682.7,405.3 683.26,403.8 C683.63,402.84 683.86,402.16 683.97,401.78 C684.3,400.56 684.56,399.95 684.8,399.74 C685.1,399.59 685.39,399.82 685.86,400.62 C687.57,403.54 689.01,405.14 690.53,405.92 C692.71,407.02 693.81,408.49 694.33,411.05 C694.79,413.36 695.79,414.77 697.77,415.92 C701.57,418.13 703.09,421.01 702.98,425.91 C704.61,426.13 705.89,426.81 707.25,428.16 M707.12,428.39 C705.77,427.04 704.5,426.39 702.86,426.19 L702.75,426.18 L702.76,426.03 C702.91,421.2 701.44,418.36 697.7,416.19 C695.64,415 694.6,413.52 694.12,411.1 C693.62,408.66 692.57,407.26 690.47,406.2 C688.91,405.39 687.43,403.76 685.69,400.79 C685.31,400.13 685.09,399.92 684.9,400 C684.71,400.17 684.48,400.74 684.17,401.89 C684.06,402.29 683.82,402.97 683.45,403.94 C682.9,405.42 682.59,406.44 682.49,407.03 C682.43,407.48 682.46,407.8 682.56,408.04 C682.7,408.31 682.9,408.44 683.27,408.5 L683.55,408.54 L683.33,408.76 C681.52,410.83 681.1,412.61 681.85,415.08 L681.89,415.19 L681.82,415.26 C681.19,415.94 680.84,416.54 680.68,417.17 C680.55,417.89 680.75,418.31 681.39,418.69 C682.68,419.39 683.28,419.99 683.47,420.71 L683.5,420.89 L683.36,420.88 C683.05,420.88 682.85,421.02 682.66,421.36 C682.5,421.73 682.45,422.11 682.51,422.61 C682.77,423.95 683.44,424.69 684.89,425.22 L684.89,425.51 C684.54,425.6 684.39,426 684.37,426.96 C684.4,427.92 684.62,428.31 685.17,428.39 L685.17,428.69 C684.6,428.71 683.88,429.14 682.77,430.19 C681.39,431.49 680.43,432.02 679.54,432.03 C677.2,431.94 676.25,432.4 676.03,433.71 C675.9,434.83 675.37,435.89 674.27,437.17 C675.82,437.43 676.8,437.21 677.67,436.44 C679.02,435.23 679.98,435.26 681.22,436.55 C682.52,437.95 683.67,438.4 685.25,438.15 L685.33,438.42 C682.86,440.7 681.69,442.8 681.36,445.47 C680.99,448.99 680.1,450.8 678.28,451.84 C676.16,452.96 674.94,454.48 674.13,457.04 C675.51,461.37 677.71,464.48 681.24,467.06 L681.4,467.16 C686.43,470.69 689.59,473.57 691.28,476.04 C691.87,476.91 692.54,477.56 693.41,478.11 C694.72,478.96 695.89,480.28 697.12,482.39 C697.85,483.75 698.96,486.15 700.42,489.66 C702.92,495.58 704.69,498.6 705.92,499.5 C707.61,500.4 708.99,500.52 710.67,499.91 C712.45,499.07 713.7,497.68 714.83,495.2 C715.36,493.77 715.83,490.11 716.14,483.91 C716.43,477.22 716.4,470.36 716.04,463.29 C714.94,443.85 712.02,432.62 707.13,428.4 L707.15,428.34 L707.12,428.39"/>
  <path fill="#ff927f" d="M712.32,406.49 C709.39,410.62 706.09,414.42 706.48,421.94 C707.09,429.67 707.54,441.11 702.66,445.39 C697.61,449.69 695.37,459.19 701.26,465.93 C707.17,472.44 707.5,479.5 708.49,486.55 C709.66,493.69 711.86,498.73 716.13,494.49 C720.33,495.21 722.15,493.43 722.37,488.88 C722.4,484.3 722.6,482.26 725.58,480.7 C728.61,479.26 729.34,478.08 730.81,474.32 C732.26,470.54 732.9,469.07 732.22,466.78 C731.48,464.45 731.19,460.16 731.71,456.75 C732.15,453.4 731,451.72 730.1,449.6 C729.32,447.46 729.05,445.79 729.4,443 C729.69,440.15 728.84,438.58 727.39,437.06 C725.97,435.57 725.45,434.37 725.68,432.09 C725.84,429.83 724.75,428.59 723.17,426.83 C721.64,425.02 720.67,423.02 720.56,419.63 C720.27,416.08 716.03,408.91 712.32,406.49"/>
  <path fill="#000" d="M712.29,406.32 L712.35,406.36 C714.15,407.47 715.89,409.38 717.87,412.5 C719.73,415.62 720.57,417.84 720.66,419.64 C720.75,422.54 721.53,424.67 723.24,426.72 L723.34,426.83 C725.2,428.99 725.9,430.54 725.79,432.12 C725.6,434.07 726.08,435.48 727.45,436.95 C729.17,438.79 729.77,440.55 729.51,443.03 C729.22,445.37 729.44,447.41 730.2,449.53 C730.31,449.81 730.5,450.24 730.76,450.81 C731.77,453.11 732.08,454.94 731.82,456.79 C731.17,460.68 731.34,463.79 732.31,466.72 C732.73,468.2 732.46,470.22 731.28,473.41 L730.9,474.39 C729.51,477.78 727.93,479.68 725.61,480.84 C724.22,481.51 723.44,482.35 722.94,483.7 C722.66,484.69 722.49,486.38 722.47,488.88 C722.42,491.23 721.91,492.68 720.82,493.8 C719.6,494.8 718.26,495.05 716.17,494.64 C714.1,496.76 712.75,496.83 711.11,494.92 C709.9,493.17 709.02,490.56 708.39,486.57 L708.03,483.92 C707.48,479.81 706.88,476.78 706.27,474.74 C705.11,471.32 703.51,468.58 701.19,466.04 C698.31,462.82 697.26,459.4 697.71,454.72 C698.35,450.43 699.84,447.58 702.61,445.27 C706.12,442.27 707.35,434.92 706.38,421.95 C706.2,418.91 706.6,416.31 707.65,413.67 C708.33,412.17 709.52,410.21 711.29,407.72 L712.24,406.39 L712.29,406.32 M712.34,406.67 L711.44,407.93 C709.68,410.4 708.51,412.34 707.84,413.83 C706.81,416.41 706.41,418.95 706.59,421.92 C707.58,435.02 706.31,442.46 702.72,445.52 C700.01,447.8 698.56,450.57 697.92,454.78 C697.49,459.35 698.51,462.66 701.32,465.81 C703.66,468.37 705.3,471.17 706.47,474.63 C707.09,476.69 707.69,479.74 708.24,483.88 L708.6,486.53 C709.22,490.45 710.08,493.01 711.26,494.71 C712.81,496.51 714.09,496.42 716.07,494.38 L716.1,494.33 L716.15,494.35 C718.21,494.76 719.52,494.52 720.7,493.56 C721.73,492.49 722.2,491.12 722.26,488.88 C722.28,486.33 722.45,484.61 722.75,483.57 C723.27,482.15 724.09,481.26 725.55,480.56 C727.81,479.43 729.35,477.57 730.71,474.25 L731.09,473.27 C732.23,470.17 732.51,468.23 732.12,466.84 C731.13,463.85 730.96,460.68 731.61,456.72 C731.86,454.96 731.56,453.19 730.58,450.97 C730.32,450.39 730.13,449.96 730.01,449.66 C729.23,447.48 729,445.38 729.3,442.97 C729.54,440.62 728.97,438.95 727.33,437.18 C725.89,435.63 725.38,434.14 725.58,432.06 C725.67,430.61 725,429.13 723.2,427.05 L723.1,426.94 C721.34,424.83 720.54,422.64 720.45,419.63 C720.36,417.91 719.54,415.75 717.71,412.69 C715.78,409.64 714.08,407.77 712.34,406.67"/>
  <path fill="#ff9ee1" d="M713.42,496.19 C720.06,493.5 719.55,479.35 718.55,472.59 C717.48,466.15 715.15,457.23 716.94,450.02 C719.41,439.84 713.88,430.26 715.13,426.35 C716.66,422.47 716.53,420.56 716.33,419.25 C716,418 714.79,417.02 714.53,419.61 C714.37,422.25 713.93,423.11 712.72,424.77 C711.64,426.6 711.82,429.76 712.72,433.97 C713.67,438.1 715.36,443.94 712.51,451.95 C709.62,459.93 710.71,463.3 711.91,467.17 C713.8,473.47 717.79,492.59 713.42,496.19"/>
  <path fill="#000" d="M713.45,496.34 L713.37,496.06 C715.29,494.51 715.82,490.55 714.97,482.76 C714.26,476.98 713.21,471.84 711.81,467.23 L711.74,466.98 C710.99,464.5 710.6,462.53 710.53,460.94 C710.54,458.3 711.13,455.39 712.42,451.88 C714.18,447 714.33,441.65 712.87,435.1 L712.61,434.01 C711.57,429.07 711.63,426.32 712.64,424.66 C713.74,423.1 714.29,421.54 714.42,419.6 C714.45,418.94 714.56,418.5 714.74,418.18 C714.94,417.9 715.12,417.8 715.4,417.84 C715.98,418 716.27,418.38 716.44,419.22 C716.71,421.39 716.34,423.62 715.22,426.43 C714.88,427.52 715.08,429.72 716.03,433.58 C717.78,440.68 718.07,445.97 717.04,450.08 C716.07,453.92 716.31,459.88 717.91,468.45 L718.65,472.56 C719.35,477.21 719.46,481.62 718.99,485.99 C718.16,492.11 716.51,495.14 713.45,496.34 M714.08,495.78 C716.62,494.33 718.03,491.44 718.78,485.94 C719.24,481.6 719.13,477.23 718.44,472.61 L717.7,468.52 C716.09,459.88 715.85,453.87 716.84,449.97 C717.86,445.92 717.57,440.7 715.83,433.68 C714.86,429.72 714.66,427.45 715.03,426.28 C716.13,423.54 716.49,421.37 716.23,419.28 C716.09,418.58 715.85,418.26 715.38,418.13 C715.18,418.1 715.04,418.17 714.9,418.37 C714.75,418.64 714.66,419.03 714.63,419.62 C714.5,421.64 713.93,423.26 712.79,424.88 C711.84,426.45 711.8,429.11 712.82,433.93 L713.07,435.02 C714.55,441.65 714.39,447.07 712.61,452.02 C711.33,455.49 710.75,458.34 710.75,460.94 C710.82,462.49 711.19,464.42 711.93,466.87 L712.01,467.12 C713.41,471.75 714.47,476.91 715.18,482.72 C715.95,489.77 715.56,493.76 714.08,495.78"/>
  <path fill="#ff9e3d" d="M683.26,408.65 C684.13,408.67 685.32,408.4 685.48,409.75 L683.26,408.65"/>
  <path fill="#000" d="M683.26,408.5 C683.35,408.51 683.5,408.51 683.71,408.5 C684.27,408.5 684.66,408.54 684.91,408.63 C685.37,408.84 685.56,409.15 685.58,409.75 L685.37,409.74 C685.35,409.3 685.21,409.07 684.86,408.91 C684.63,408.83 684.27,408.79 683.72,408.8 C683.5,408.8 683.35,408.8 683.26,408.79 L683.26,408.5"/>
  <path fill="#ff9e3d" d="M681.75,415.14 C682.76,414.47 684.17,415.28 685.88,414.23 L681.75,415.14"/>
  <path fill="#000" d="M681.69,415.02 C682.02,414.76 682.51,414.65 683.35,414.67 C684.46,414.7 685.21,414.52 685.82,414.11 L685.93,414.36 C685.28,414.8 684.51,414.99 683.35,414.96 C682.56,414.94 682.1,415.04 681.82,415.26 L681.69,415.02"/>
  <path fill="#ff9e3d" d="M683.36,420.74 C684.66,420.81 686.06,420.8 687.69,419.29 L683.36,420.74"/>
  <path fill="#000" d="M683.36,420.59 C685.25,420.65 686.49,420.23 687.62,419.17 L687.75,419.4 C686.59,420.5 685.3,420.94 683.36,420.88 L683.36,420.59"/>
  <path fill="#ff9e3d" d="M684.87,425.36 C686.13,425.34 687.84,424.63 688.54,422.63 L684.87,425.36"/>
  <path fill="#000" d="M684.87,425.22 C686.86,425.24 687.84,424.51 688.44,422.58 L688.64,422.69 C688,424.75 686.97,425.53 684.87,425.51 L684.87,425.22"/>
  <path fill="#ff9e3d" d="M685.17,428.54 C687.53,428.66 689.94,429.62 690.6,428.79 L685.17,428.54"/>
  <path fill="#000" d="M685.17,428.39 C685.74,428.41 686.62,428.52 687.84,428.76 C689.55,429.08 690.28,429.05 690.51,428.72 L690.69,428.87 C690.42,429.32 689.63,429.38 687.82,429.05 C686.61,428.81 685.74,428.7 685.18,428.69 L685.17,428.39"/>
  <path fill="#ff9e3d" d="M685.27,438.29 C686.95,436.56 690.12,435.24 691.15,433.42 L685.27,438.29"/>
  <path fill="#000" d="M685.2,438.18 C685.68,437.64 686.58,436.94 688,436.04 C689.78,434.9 690.7,434.06 691.06,433.35 L691.25,433.5 C690.87,434.26 689.92,435.14 688.1,436.31 C686.69,437.2 685.81,437.88 685.35,438.41 L685.2,438.18"/>
  <path fill="#ff9e3d" d="M689.09,407.9 C691.46,409.34 690.7,411.04 691.81,412.59 C693.8,415.28 692.23,417.29 693.82,418.33 C695.62,419.16 695.59,419.48 695.12,422.24 C694.8,425.48 696.6,425.65 696.03,427.78 L689.09,407.9"/>
  <path fill="#000" d="M689.13,407.77 C690.2,408.37 690.79,409.22 691.15,410.7 C691.34,411.56 691.57,412.11 691.87,412.48 C692.67,413.44 693.03,414.57 693.07,416.25 C693.1,417.36 693.32,417.9 693.85,418.19 C694.78,418.62 695.24,419.01 695.42,419.51 C695.52,419.94 695.47,420.82 695.23,422.28 C695.07,423.39 695.25,424.35 695.8,425.43 C696.29,426.38 696.38,427.08 696.12,427.85 L695.93,427.71 C696.15,427.05 696.06,426.44 695.64,425.6 C695.04,424.44 694.85,423.41 695.02,422.2 C695.25,420.8 695.3,419.98 695.23,419.61 C695.07,419.2 694.65,418.86 693.79,418.47 C693.16,418.13 692.89,417.5 692.86,416.23 C692.82,414.66 692.48,413.6 691.74,412.7 C691.4,412.29 691.15,411.69 690.94,410.77 C690.61,409.39 690.06,408.6 689.06,408.04 L689.13,407.77"/>
  <path fill="#ff9e3d" d="M702.87,426.04 C701.64,426.02 699.19,426.05 697.64,429.58 L702.87,426.04"/>
  <path fill="#000" d="M702.87,426.19 C700.17,426.2 698.75,427.16 697.73,429.64 L697.54,429.51 C698.6,426.91 700.08,425.91 702.87,425.9 L702.87,426.19"/>
  <path fill="#ff9e3d" d="M681.4,464.48 C682.61,464.74 683.08,464.03 683.46,463.1 C683.83,462.11 683.96,461.56 685.02,461.49 C686.19,461.45 687.53,461.16 688.04,460.09 C688.54,459.08 689.5,460.05 690.7,457.29 C691.79,454.27 692.52,451.37 695.27,449.99 L681.4,464.48"/>
  <path fill="#000" d="M681.42,464.34 C682.35,464.55 682.88,464.2 683.37,463.03 L683.45,462.8 C683.86,461.8 684.3,461.39 685.02,461.34 C686.75,461.29 687.56,460.91 687.94,460.03 C688.07,459.7 688.3,459.49 688.75,459.32 C689.59,458.99 690.14,458.37 690.61,457.22 L691.09,455.85 C692.36,452.38 693.6,450.63 695.24,449.85 L695.31,450.13 C693.73,450.89 692.52,452.59 691.29,455.98 L690.8,457.36 C690.3,458.59 689.71,459.24 688.81,459.61 C688.43,459.75 688.23,459.91 688.14,460.15 C687.72,461.15 686.85,461.57 685.03,461.63 C684.39,461.68 684.01,462.04 683.64,462.94 L683.56,463.18 C683.01,464.47 682.42,464.86 681.38,464.62 L681.42,464.34"/>
  <path fill="#00a728" d="M761.15,526.15 C762.14,528.55 761.28,530.62 763.04,531.76 C765.03,533.21 763.6,536.59 765.99,538.3 C768.06,539.85 766.31,543.1 768.57,545.1 C770.54,546.92 768.5,549.97 771.23,552.28 C773.84,554.66 771.1,558.65 772.95,560.79 C774.83,562.9 772.6,566.93 774.86,569.03 C777.11,571.1 774.12,574.19 776.19,577.03 C778.27,579.81 776.02,583.26 778.09,585.78 C780.13,588.3 777.01,591.04 779.05,594.58 C780.62,597.25 778.66,599.63 779.81,603.65 C780.59,606.71 778.99,616.06 773.52,615.95 C771.16,620.65 764.59,624.35 761.52,623.45 C758.44,626.27 750.75,629.73 745.88,624.27 C741.03,629.82 733.34,626.5 730.26,623.73 C727.18,624.69 720.62,621.13 718.25,616.48 C712.78,616.71 711.18,607.4 711.96,604.32 C713.11,600.26 711.15,597.94 712.72,595.23 C714.76,591.64 711.64,588.98 713.68,586.41 C715.76,583.83 713.5,580.44 715.58,577.61 C717.65,574.72 714.66,571.7 716.92,569.58 C719.18,567.43 716.94,563.45 718.82,561.3 C720.68,559.12 717.93,555.19 720.54,552.75 C723.28,550.39 721.23,547.38 723.21,545.52 C725.47,543.47 723.71,540.26 725.78,538.67 C728.17,536.91 726.75,533.55 728.73,532.07 C730.51,530.88 729.6,528.77 730.68,526.31 C736.81,529.44 753.44,531.38 761.15,526.15"/>
  <path fill="#000" d="M761.24,526.06 C761.55,526.73 761.76,527.65 761.87,528.93 C762.01,530.45 762.36,531.21 763.08,531.63 C763.85,532.08 764.25,532.96 764.45,534.75 C764.67,536.65 765.14,537.62 766.03,538.16 C766.86,538.67 767.23,539.59 767.31,541.44 C767.4,543.33 767.78,544.34 768.61,544.97 C769.36,545.54 769.69,546.46 769.72,548.21 C769.77,550.24 770.22,551.36 771.28,552.14 C772.41,553.01 772.75,554.37 772.43,556.98 C772.17,559.01 772.35,560.06 773,560.66 C773.77,561.35 774.03,562.52 773.88,564.75 C773.73,567.05 774.03,568.22 774.9,568.9 C775.84,569.61 776.07,570.69 775.69,572.78 C775.31,574.84 775.49,576.02 776.25,576.91 C777.1,577.88 777.4,579.22 777.25,581.53 C777.1,583.66 777.38,584.85 778.16,585.66 C778.99,586.53 779.16,587.68 778.7,589.74 C778.21,591.93 778.34,593.31 779.12,594.47 C779.78,595.45 779.96,596.71 779.69,598.74 C779.4,600.79 779.48,602.3 779.91,603.58 C780.48,605.44 780.27,607.71 779.12,611.11 C777.64,614.86 776.1,616.23 773.58,616.11 C772.5,618.34 770.76,620.16 767.84,622 C764.9,623.69 763.07,624.12 761.53,623.61 C759.62,625.39 757.42,626.49 754.36,627.16 C750.49,627.75 748.09,626.97 745.88,624.47 C743.68,627.01 741.28,627.83 737.42,627.31 C734.35,626.7 732.15,625.64 730.24,623.89 C728.7,624.44 726.87,624.03 723.93,622.4 C721.02,620.62 719.28,618.84 718.2,616.63 C715.67,616.81 714.14,615.48 712.65,611.76 C711.5,608.39 711.29,606.12 711.87,604.25 C712.29,602.96 712.37,601.44 712.09,599.41 C711.81,597.38 711.99,596.12 712.65,595.12 C713.43,593.94 713.57,592.56 713.08,590.38 C712.62,588.34 712.78,587.18 713.62,586.29 C714.39,585.46 714.67,584.26 714.53,582.13 C714.37,579.84 714.68,578.48 715.52,577.5 C716.28,576.59 716.46,575.4 716.08,573.35 C715.7,571.27 715.93,570.18 716.87,569.45 C717.74,568.76 718.04,567.58 717.89,565.28 C717.74,563.05 718.01,561.88 718.77,561.17 C719.42,560.56 719.6,559.51 719.34,557.48 C719.02,554.87 719.36,553.51 720.49,552.62 C721.55,551.82 722,550.68 722.05,548.65 C722.08,546.9 722.41,545.97 723.16,545.39 C723.99,544.74 724.38,543.72 724.46,541.84 C724.54,539.99 724.92,539.05 725.74,538.53 C726.64,537.97 727.1,536.99 727.32,535.08 C727.52,533.3 727.93,532.4 728.7,531.94 C729.41,531.51 729.76,530.74 729.91,529.22 C730.02,527.88 730.24,526.93 730.6,526.23 L730.64,526.14 L730.72,526.18 C734.11,527.93 738.81,528.99 745.34,529.31 C752.67,529.52 757.64,528.41 761.1,526.02 L761.14,525.99 L761.21,526.02 L761.24,526.06 M761.11,526.34 C757.62,528.71 752.64,529.81 745.33,529.6 C738.83,529.29 734.12,528.23 730.72,526.49 C730.42,527.14 730.22,528.03 730.12,529.25 C729.96,530.9 729.57,531.74 728.77,532.21 C728.08,532.63 727.71,533.46 727.53,535.12 C727.3,537.15 726.79,538.2 725.82,538.8 C725.08,539.27 724.75,540.13 724.67,541.85 C724.58,543.86 724.16,544.95 723.25,545.65 C722.59,546.17 722.29,547.03 722.27,548.65 C722.21,550.81 721.72,552.02 720.59,552.88 C719.56,553.7 719.25,554.97 719.55,557.43 C719.82,559.6 719.62,560.74 718.88,561.43 C718.2,562.06 717.96,563.16 718.1,565.25 C718.26,567.69 717.92,568.95 716.96,569.71 C716.13,570.37 715.93,571.36 716.28,573.27 C716.69,575.46 716.49,576.74 715.65,577.73 C714.87,578.64 714.59,579.92 714.74,582.1 C714.89,584.35 714.58,585.63 713.74,586.53 C712.99,587.33 712.85,588.4 713.28,590.29 C713.79,592.59 713.64,594.06 712.8,595.33 C712.2,596.25 712.04,597.44 712.3,599.35 C712.59,601.46 712.5,603.03 712.06,604.38 C711.51,606.17 711.72,608.36 712.84,611.63 C714.29,615.26 715.78,616.55 718.24,616.33 L718.31,616.32 L718.34,616.41 C719.39,618.59 721.1,620.36 724.01,622.13 C726.94,623.76 728.73,624.15 730.22,623.59 L730.27,623.57 L730.32,623.61 C732.21,625.35 734.39,626.41 737.44,627.02 C741.29,627.53 743.66,626.71 745.81,624.17 L745.88,624.07 L745.96,624.17 C748.12,626.67 750.48,627.45 754.33,626.87 C757.38,626.21 759.56,625.11 761.45,623.33 L761.5,623.29 L761.55,623.31 C763.04,623.84 764.84,623.41 767.76,621.73 C770.67,619.9 772.39,618.09 773.43,615.88 L773.47,615.8 L773.54,615.81 C775.99,615.97 777.48,614.65 778.93,610.99 C780.05,607.69 780.26,605.49 779.71,603.72 C779.27,602.38 779.18,600.81 779.48,598.69 C779.74,596.77 779.57,595.59 778.97,594.69 C778.13,593.43 777.98,591.97 778.49,589.66 C778.92,587.75 778.78,586.69 778.03,585.9 C777.19,585.03 776.88,583.76 777.04,581.5 C777.18,579.32 776.9,578.05 776.12,577.15 C775.28,576.17 775.09,574.9 775.49,572.71 C775.84,570.79 775.64,569.8 774.81,569.16 C773.85,568.42 773.51,567.17 773.67,564.73 C773.81,562.63 773.58,561.54 772.9,560.92 C772.16,560.24 771.95,559.11 772.22,556.93 C772.52,554.47 772.22,553.2 771.19,552.41 C770.05,551.57 769.56,550.37 769.51,548.21 C769.48,546.59 769.19,545.74 768.52,545.23 C767.61,544.55 767.19,543.47 767.1,541.46 C767.03,539.74 766.69,538.89 765.95,538.44 C764.98,537.85 764.48,536.81 764.24,534.79 C764.06,533.13 763.69,532.31 763,531.9 C762.2,531.44 761.81,530.61 761.65,528.97 C761.56,527.8 761.38,526.96 761.11,526.34"/>
  <path fill="#00a728" d="M735.79,527.19 C733.98,530.2 735.88,531.98 734.07,535.51 C732.21,539 733.65,540.6 732.16,543.83 C730.72,547.06 732.65,548.4 731.02,551.89 C729.39,555.39 731.13,557.2 729.3,560.2 C727.52,563.21 729.38,565.5 727.59,568.76 C725.78,572.02 727.69,573.81 725.87,576.81 C724.11,579.83 725.93,582.61 724.16,585.63 C722.39,588.64 724.22,591.96 722.25,595.48 C720.29,599 722.31,601.29 720.73,604.04 C719.08,606.75 720.29,609.1 719.21,611.03 C717.91,613.01 717.74,615.18 718.25,616.48 L735.79,527.19"/>
  <path fill="#000" d="M735.86,527.29 C735.21,528.28 734.95,529.43 735.03,531.12 C735.13,533.01 734.85,534.37 734.15,535.6 C733.45,536.82 733.12,538.16 733.08,539.96 C733.06,541.62 732.79,542.86 732.25,543.91 C731.73,544.95 731.58,546.08 731.76,547.64 C731.96,549.4 731.75,550.72 731.1,551.97 C730.52,553.1 730.28,554.39 730.34,556.15 C730.4,557.98 730.1,559.23 729.38,560.3 C728.73,561.29 728.47,562.51 728.55,564.36 C728.65,566.36 728.37,567.72 727.67,568.86 C727.01,569.93 726.75,571.15 726.84,572.88 C726.93,574.65 726.65,575.86 725.95,576.91 C725.3,577.9 725.04,579.19 725.13,581.21 C725.22,583.31 724.94,584.68 724.24,585.73 C723.6,586.7 723.33,588.06 723.38,590.24 C723.44,592.7 723.11,594.33 722.33,595.58 C721.58,596.8 721.31,598.2 721.48,600.23 C721.63,602.05 721.41,603.22 720.81,604.15 C720.15,605.11 719.86,606.33 719.87,608.14 C719.88,609.61 719.69,610.51 719.28,611.14 C717.85,613.19 717.6,614.68 718.34,616.39 L718.17,616.56 C717.36,614.7 717.62,613.11 719.13,610.93 C719.5,610.37 719.67,609.52 719.65,608.15 C719.64,606.24 719.96,604.97 720.65,603.94 C721.21,603.09 721.41,601.99 721.26,600.27 C721.09,598.14 721.38,596.67 722.17,595.38 C722.91,594.19 723.23,592.63 723.17,590.25 C723.11,587.98 723.41,586.56 724.08,585.52 C724.74,584.53 725,583.24 724.91,581.23 C724.82,579.12 725.1,577.76 725.8,576.7 C726.46,575.72 726.72,574.58 726.63,572.9 C726.53,571.09 726.81,569.8 727.51,568.66 C728.17,567.59 728.43,566.29 728.34,564.39 C728.25,562.44 728.53,561.15 729.23,560.09 C729.9,559.09 730.18,557.91 730.12,556.17 C730.06,554.34 730.32,552.99 730.94,551.8 C731.55,550.61 731.74,549.37 731.55,547.69 C731.36,546.05 731.53,544.84 732.08,543.74 C732.59,542.73 732.84,541.55 732.87,539.96 C732.9,538.09 733.26,536.69 733.99,535.42 C734.65,534.25 734.91,532.95 734.82,531.15 C734.73,529.36 735.01,528.14 735.71,527.09 L735.86,527.29"/>
  <path fill="#00a728" d="M739.79,528.24 C738.19,531.76 740.44,533.04 739.03,536.05 C737.57,539.02 739.53,539.85 738.45,543.34 C737.35,546.8 739.17,547.42 737.69,550.89 C736.3,554.4 738.31,556.73 736.74,560.26 C735.15,563.77 737.38,565.33 735.98,568.84 C734.54,572.34 736.45,573.93 735.22,576.65 C734.02,579.39 736.03,581.71 734.45,584.98 C732.87,588.23 734.9,590.31 733.69,593.3 C732.46,596.28 733.96,599.17 732.93,601.63 C731.91,604.1 733.55,607.21 731.97,610.47 C730.35,613.71 732.08,615.56 731.21,617.75 C730.02,620.06 729.31,622.6 730.26,623.73 L739.79,528.24"/>
  <path fill="#000" d="M739.87,528.33 C739.26,529.52 739.14,530.74 739.46,532.4 C739.78,533.99 739.66,535.1 739.11,536.14 C738.56,537.15 738.44,538.16 738.72,539.55 C739.03,541.04 738.97,542.22 738.55,543.41 C738.16,544.49 738.08,545.59 738.29,546.94 C738.53,548.47 738.37,549.69 737.78,550.97 C737.27,552.1 737.13,553.48 737.38,555.45 C737.64,557.59 737.46,559.08 736.82,560.34 C736.22,561.53 736.09,562.8 736.4,564.59 C736.73,566.4 736.62,567.72 736.07,568.93 C735.52,570.13 735.38,571.41 735.65,573.14 C735.9,574.73 735.79,575.81 735.3,576.74 C734.87,577.59 734.78,578.68 735.04,580.37 C735.36,582.45 735.2,583.86 734.54,585.07 C733.92,586.2 733.77,587.49 734.07,589.39 C734.35,591.17 734.25,592.38 733.77,593.39 C733.3,594.41 733.15,595.76 733.36,597.79 C733.55,599.68 733.43,600.87 733.01,601.72 C732.65,602.45 732.55,603.56 732.73,605.34 C732.95,607.74 732.73,609.32 732.06,610.56 C731.39,611.77 731.21,613.06 731.48,614.89 C731.7,616.26 731.63,617.15 731.3,617.84 C730.67,619.01 730.25,620.12 730,621.24 C729.77,622.51 729.86,623.18 730.31,623.6 L730.21,623.86 C729.66,623.35 729.53,622.58 729.79,621.16 C730.05,620 730.48,618.87 731.13,617.67 C731.42,617.05 731.48,616.23 731.27,614.95 C730.99,613.03 731.18,611.66 731.89,610.38 C732.53,609.2 732.74,607.69 732.52,605.38 C732.33,603.51 732.45,602.34 732.84,601.54 C733.22,600.76 733.33,599.63 733.15,597.84 C732.94,595.72 733.09,594.3 733.6,593.22 C734.04,592.29 734.13,591.15 733.86,589.46 C733.55,587.46 733.71,586.09 734.37,584.88 C734.99,583.75 735.14,582.41 734.83,580.44 C734.55,578.65 734.66,577.48 735.13,576.56 C735.58,575.7 735.68,574.7 735.45,573.21 C735.16,571.39 735.31,570.03 735.89,568.76 C736.4,567.63 736.51,566.39 736.2,564.66 C735.87,562.78 736.01,561.43 736.65,560.17 C737.25,558.98 737.42,557.56 737.17,555.5 C736.91,553.45 737.06,552.01 737.6,550.8 C738.16,549.6 738.31,548.45 738.09,547.01 C737.86,545.58 737.95,544.42 738.36,543.27 C738.75,542.16 738.8,541.04 738.52,539.63 C738.22,538.14 738.35,537.05 738.94,535.96 C739.45,535.01 739.55,533.97 739.26,532.49 C738.91,530.73 739.05,529.43 739.7,528.15 L739.87,528.33"/>
  <path fill="#00a728" d="M745.89,531.33 C745.13,536.82 747,541.55 745.89,546.15 C744.8,550.75 746.61,552.45 746.08,556.13 C745.51,559.8 746.82,562.42 745.89,566.41 C744.99,570.41 747.16,573.29 745.89,578.51 C744.59,583.71 746.65,584.88 745.89,590 C744.99,595.98 747.52,598.91 745.89,603.18 C744.32,607.47 747.27,608.28 746.08,613.08 C744.79,617.83 746.8,619.52 745.89,624.27 L745.89,531.33"/>
  <path fill="#000" d="M745.99,531.36 C745.73,533.12 745.75,535.52 746.1,538.76 C746.46,542.17 746.4,544.55 745.98,546.2 C745.54,547.9 745.53,549.68 745.96,551.88 C746.32,553.65 746.38,555.02 746.18,556.17 C745.98,557.29 745.97,558.78 746.19,560.77 C746.44,563.16 746.37,564.98 745.98,566.46 C745.68,567.7 745.69,569.32 746.06,571.57 C746.53,574.42 746.49,576.63 745.98,578.56 C745.49,580.41 745.44,582.29 745.84,584.53 C746.23,586.62 746.27,588.38 745.99,590.03 C745.67,591.94 745.74,594.15 746.22,596.93 C746.7,599.74 746.61,601.68 745.98,603.26 C745.39,604.71 745.38,606.11 745.96,607.93 C746.59,609.89 746.65,611.47 746.17,613.13 C745.69,614.8 745.62,616.59 745.98,618.85 C746.33,621.01 746.32,622.75 745.99,624.32 L745.78,624.23 C746.11,622.72 746.11,621.03 745.77,618.92 C745.4,616.6 745.48,614.74 745.98,613.02 C746.43,611.44 746.37,609.94 745.76,608.06 C745.15,606.13 745.17,604.66 745.79,603.11 C746.39,601.6 746.48,599.73 746.02,597 C745.52,594.17 745.46,591.91 745.78,589.96 C746.05,588.36 746.01,586.65 745.64,584.61 C745.22,582.3 745.28,580.37 745.79,578.45 C746.28,576.58 746.31,574.43 745.86,571.64 C745.47,569.32 745.46,567.65 745.79,566.36 C746.15,564.93 746.23,563.16 745.98,560.81 C745.75,558.78 745.76,557.25 745.97,556.09 C746.17,554.99 746.11,553.68 745.76,551.96 C745.31,549.69 745.33,547.86 745.79,546.1 C746.19,544.49 746.25,542.16 745.89,538.8 C745.53,535.53 745.52,533.09 745.78,531.3 L745.99,531.36"/>
  <path fill="#00a728" d="M755.99,527.01 C757.8,529.99 755.89,531.81 757.7,535.3 C759.56,538.75 758.13,540.39 759.61,543.58 C761.05,546.78 759.12,548.16 760.75,551.62 C762.39,555.09 760.65,556.94 762.47,559.9 C764.25,562.87 762.39,565.2 764.18,568.43 C765.99,571.65 764.09,573.48 765.9,576.44 C767.66,579.43 765.85,582.25 767.61,585.23 C769.38,588.2 767.55,591.57 769.52,595.04 C771.48,598.52 769.47,600.86 771.04,603.57 C772.7,606.24 771.48,608.62 772.57,610.53 C773.87,612.48 774.03,614.65 773.52,615.95 L755.99,527.01"/>
  <path fill="#000" d="M756.06,526.9 C756.77,527.95 757.04,529.16 756.95,530.96 C756.86,532.76 757.12,534.05 757.78,535.2 C758.52,536.46 758.87,537.86 758.91,539.72 C758.93,541.32 759.18,542.5 759.69,543.49 C760.25,544.59 760.42,545.79 760.23,547.44 C760.04,549.11 760.23,550.36 760.84,551.53 C761.45,552.71 761.71,554.05 761.65,555.89 C761.59,557.63 761.87,558.8 762.54,559.79 C763.24,560.83 763.52,562.12 763.43,564.07 C763.34,565.98 763.61,567.27 764.26,568.33 C764.96,569.45 765.24,570.73 765.15,572.55 C765.06,574.23 765.32,575.37 765.97,576.34 C766.67,577.38 766.95,578.73 766.86,580.84 C766.77,582.86 767.04,584.15 767.69,585.12 C768.37,586.14 768.66,587.56 768.61,589.83 C768.55,592.21 768.87,593.76 769.6,594.94 C770.4,596.21 770.68,597.68 770.51,599.81 C770.36,601.54 770.56,602.63 771.12,603.46 C771.81,604.48 772.13,605.75 772.12,607.65 C772.11,609.03 772.28,609.87 772.64,610.42 C774.16,612.58 774.42,614.16 773.61,616.03 L773.43,615.87 C774.18,614.14 773.92,612.67 772.49,610.64 C772.08,610.02 771.89,609.12 771.91,607.65 C771.92,605.83 771.62,604.63 770.97,603.68 C770.36,602.77 770.15,601.6 770.3,599.78 C770.46,597.74 770.19,596.35 769.44,595.15 C768.67,593.91 768.33,592.29 768.39,589.82 C768.45,587.64 768.17,586.29 767.54,585.33 C766.84,584.29 766.56,582.94 766.65,580.82 C766.74,578.81 766.47,577.52 765.82,576.55 C765.12,575.51 764.84,574.31 764.93,572.53 C765.02,570.8 764.76,569.59 764.1,568.53 C763.41,567.41 763.13,566.05 763.22,564.05 C763.31,562.19 763.05,560.98 762.39,560 C761.68,558.95 761.38,557.7 761.44,555.87 C761.5,554.11 761.25,552.83 760.67,551.71 C760.02,550.47 759.82,549.16 760.02,547.39 C760.2,545.83 760.04,544.69 759.52,543.67 C758.99,542.62 758.72,541.39 758.69,539.73 C758.66,537.93 758.32,536.6 757.62,535.4 C756.92,534.18 756.65,532.82 756.74,530.93 C756.83,529.23 756.57,528.09 755.91,527.11 L756.06,526.9"/>
  <path fill="#00a728" d="M751.99,528.13 C753.58,531.62 751.34,532.95 752.75,535.93 C754.2,538.87 752.24,539.75 753.32,543.21 C754.42,546.65 752.6,547.3 754.08,550.74 C755.47,554.23 753.46,556.6 755.03,560.09 C756.62,563.57 754.4,565.19 755.8,568.67 C757.23,572.14 755.32,573.77 756.56,576.46 C757.76,579.18 755.75,581.54 757.32,584.77 C758.9,588 756.88,590.12 758.09,593.09 C759.31,596.04 757.81,598.96 758.85,601.4 C759.86,603.85 758.23,607 759.8,610.22 C761.42,613.42 759.69,615.32 760.56,617.49 C761.75,619.77 762.47,622.3 761.52,623.45 L751.99,528.13"/>
  <path fill="#000" d="M752.07,528.04 C752.72,529.31 752.86,530.6 752.52,532.37 C752.22,533.86 752.32,534.89 752.83,535.83 C753.42,536.91 753.56,538.01 753.26,539.5 C752.97,540.92 753.02,542.03 753.41,543.13 C753.83,544.28 753.92,545.44 753.69,546.87 C753.46,548.32 753.61,549.47 754.17,550.66 C754.71,551.85 754.86,553.29 754.6,555.35 C754.35,557.41 754.52,558.82 755.12,560 C755.76,561.25 755.91,562.6 755.58,564.49 C755.27,566.22 755.37,567.46 755.88,568.58 C756.47,569.85 756.61,571.2 756.33,573.03 C756.09,574.52 756.2,575.52 756.64,576.37 C757.12,577.28 757.22,578.45 756.94,580.24 C756.64,582.22 756.79,583.55 757.41,584.68 C758.06,585.87 758.23,587.24 757.92,589.24 C757.64,590.94 757.73,592.07 758.17,593 C758.68,594.07 758.84,595.49 758.62,597.61 C758.44,599.41 758.55,600.54 758.93,601.3 C759.33,602.1 759.44,603.27 759.26,605.15 C759.04,607.45 759.25,608.96 759.88,610.13 C760.59,611.39 760.78,612.76 760.5,614.69 C760.3,615.97 760.35,616.79 760.65,617.4 C761.29,618.59 761.72,619.72 761.98,620.86 C762.24,622.29 762.11,623.05 761.57,623.57 L761.46,623.32 C761.91,622.89 762.01,622.22 761.78,620.95 C761.53,619.84 761.11,618.74 760.48,617.58 C760.14,616.89 760.08,616 760.29,614.63 C760.56,612.8 760.38,611.51 759.72,610.32 C759.04,609.09 758.82,607.51 759.05,605.11 C759.23,603.32 759.12,602.21 758.76,601.49 C758.34,600.65 758.22,599.46 758.41,597.57 C758.62,595.53 758.48,594.18 758,593.17 C757.52,592.17 757.42,590.96 757.71,589.18 C758.01,587.28 757.86,585.98 757.24,584.87 C756.58,583.67 756.41,582.26 756.73,580.18 C757,578.48 756.91,577.39 756.47,576.55 C755.99,575.63 755.87,574.55 756.12,572.96 C756.39,571.22 756.26,569.94 755.71,568.75 C755.16,567.55 755.05,566.24 755.37,564.42 C755.68,562.63 755.55,561.36 754.95,560.18 C754.31,558.93 754.13,557.45 754.39,555.3 C754.64,553.32 754.5,551.95 753.99,550.83 C753.4,549.56 753.24,548.34 753.48,546.8 C753.7,545.45 753.62,544.36 753.22,543.28 C752.81,542.1 752.75,540.92 753.05,539.42 C753.33,538.03 753.21,537.02 752.67,536.02 C752.11,534.99 752,533.88 752.31,532.29 C752.64,530.62 752.51,529.41 751.9,528.22 L752.07,528.04"/>
  <path fill="#fcc300" d="M732.97,540.06 C732.97,541.26 732.92,542.34 732.16,543.83 C730.72,547.06 732.65,548.4 731.02,551.89 C729.39,555.39 731.13,557.21 729.3,560.2 C727.52,563.21 729.38,565.5 727.59,568.76 C725.78,572.02 727.69,573.81 725.87,576.81 C724.11,579.83 725.93,582.61 724.16,585.63 C722.39,588.64 724.22,591.96 722.25,595.48 C720.29,599 722.31,601.3 720.73,604.04 C719.08,606.75 720.29,609.1 719.21,611.03 C721.3,608.59 721.67,605.25 723.21,603.31 C724.62,601.34 722.92,599.04 723.59,597.59 C724.26,596.17 724.08,590.98 725.5,588.26 C726.88,585.5 726.04,580.65 727.21,578.65 C728.41,576.63 727.94,571.62 729.5,569.57 C731.05,567.52 729.81,563.53 731.02,561 C732.27,558.53 731.28,555.13 732.55,552.16 C733.84,549.22 732.83,546.78 733.69,544.36 C733.98,543.26 734.4,535.85 732.97,540.06"/>
  <path fill="#000" d="M732.87,540.06 L732.87,540.01 C733.02,539.48 733.16,539.11 733.28,538.88 C733.44,538.62 733.56,538.55 733.71,538.65 C733.88,538.82 734,539.28 734.06,540.2 C734.18,542.37 734.06,543.7 733.78,544.44 C733.49,545.16 733.35,546.2 733.38,547.73 C733.42,549.73 733.17,551.13 732.63,552.25 C732.17,553.22 731.92,554.64 731.89,556.78 C731.86,558.9 731.6,560.23 731.1,561.09 C730.67,561.86 730.46,563.13 730.5,565.22 C730.54,567.62 730.24,568.93 729.56,569.69 C728.93,570.4 728.52,571.82 728.29,574.46 C728.09,576.79 727.75,578.1 727.28,578.76 C726.84,579.39 726.59,580.68 726.53,583.01 C726.47,585.72 726.15,587.37 725.58,588.36 C724.97,589.39 724.55,591.21 724.31,594.21 C724.15,596.18 723.93,597.26 723.66,597.7 C723.44,598.07 723.44,598.69 723.69,599.81 C724.07,601.58 723.94,602.62 723.27,603.43 C722.77,604 722.23,605.05 721.63,606.72 C720.85,608.87 720.09,610.26 719.27,611.15 L719.13,610.93 C719.5,610.37 719.67,609.52 719.65,608.15 C719.64,606.24 719.96,604.97 720.65,603.94 C721.21,603.09 721.41,601.99 721.26,600.27 C721.09,598.14 721.38,596.67 722.17,595.38 C722.91,594.19 723.23,592.63 723.17,590.25 C723.11,587.99 723.41,586.56 724.08,585.52 C724.74,584.54 725,583.24 724.91,581.23 C724.82,579.12 725.1,577.76 725.8,576.7 C726.46,575.72 726.72,574.58 726.63,572.9 C726.53,571.09 726.81,569.8 727.51,568.66 C728.17,567.59 728.43,566.29 728.34,564.39 C728.25,562.44 728.53,561.15 729.23,560.09 C729.9,559.09 730.18,557.91 730.12,556.17 C730.06,554.34 730.32,552.99 730.94,551.8 C731.55,550.62 731.74,549.37 731.55,547.69 C731.36,546.05 731.53,544.84 732.08,543.74 C732.59,542.73 732.84,541.58 732.87,540.06 M733.08,540.09 C733.05,541.67 732.79,542.86 732.25,543.91 C731.73,544.95 731.58,546.08 731.76,547.64 C731.96,549.4 731.75,550.72 731.1,551.98 C730.52,553.1 730.28,554.39 730.34,556.15 C730.4,557.98 730.1,559.23 729.38,560.3 C728.73,561.29 728.47,562.51 728.55,564.36 C728.65,566.36 728.37,567.72 727.67,568.86 C727.01,569.93 726.75,571.15 726.84,572.88 C726.93,574.65 726.65,575.86 725.95,576.91 C725.3,577.9 725.04,579.19 725.13,581.21 C725.22,583.31 724.94,584.68 724.24,585.73 C723.6,586.7 723.33,588.06 723.38,590.24 C723.44,592.7 723.11,594.33 722.33,595.58 C721.58,596.8 721.31,598.2 721.48,600.23 C721.63,602.06 721.41,603.22 720.81,604.15 C720.15,605.11 719.86,606.33 719.87,608.14 C719.88,609.03 719.81,609.72 719.67,610.29 C720.27,609.42 720.85,608.22 721.44,606.6 C722.06,604.88 722.61,603.8 723.14,603.2 C723.73,602.48 723.84,601.53 723.49,599.9 C723.21,598.66 723.23,597.95 723.51,597.49 C723.74,597.1 723.95,596.07 724.09,594.17 C724.34,591.11 724.78,589.24 725.42,588.16 C725.95,587.23 726.26,585.64 726.32,583 C726.38,580.58 726.65,579.23 727.14,578.54 C727.57,577.94 727.88,576.68 728.08,574.43 C728.32,571.7 728.76,570.21 729.44,569.45 C730.05,568.76 730.32,567.52 730.29,565.23 C730.25,563.06 730.47,561.73 730.94,560.9 C731.4,560.09 731.65,558.82 731.68,556.77 C731.7,554.58 731.97,553.1 732.46,552.07 C732.97,551.02 733.2,549.67 733.17,547.74 C733.13,546.15 733.28,545.06 733.6,544.28 C733.86,543.6 733.96,542.33 733.85,540.22 C733.8,539.41 733.71,539.02 733.6,538.9 C733.57,538.89 733.53,538.93 733.45,539.06 C733.34,539.26 733.22,539.6 733.08,540.09"/>
  <path fill="#fcc300" d="M738.45,543.34 C737.35,546.8 739.17,547.42 737.69,550.89 C736.3,554.4 738.31,556.73 736.74,560.26 C735.15,563.77 737.38,565.33 735.98,568.84 C734.54,572.34 736.45,573.93 735.22,576.65 C734.02,579.39 736.03,581.71 734.45,584.98 C732.87,588.23 734.9,590.31 733.69,593.3 C732.46,596.28 733.96,599.17 732.93,601.63 C731.91,604.1 733.55,607.21 731.97,610.47 C730.35,613.71 732.08,615.56 731.21,617.75 C733.26,616.39 732.83,612.69 733.5,611.52 C734.03,610.44 733.57,604.82 734.55,603.07 C735.49,601.32 734.04,596.86 734.93,594.61 C736.77,590.99 735.45,588.86 736.45,586.03 C737.42,583.2 736.25,579.88 736.93,577.96 C738.24,574.72 736.52,572.13 737.41,569.76 C738.84,566.39 737.35,563.94 738.26,561.69 C739.77,558.32 738.34,555.29 738.84,553.49 C739.64,551.3 740.62,545.11 738.45,543.34"/>
  <path fill="#000" d="M738.36,543.27 L738.4,543.16 L738.49,543.2 C739.59,543.89 740.01,545.3 739.93,548.23 C739.79,550.58 739.46,552.29 738.93,553.57 C738.76,554.02 738.75,554.82 738.93,556.14 C739.25,558.64 739.05,560.35 738.35,561.78 C738.03,562.44 737.94,563.4 738.09,564.91 C738.3,567.04 738.1,568.56 737.49,569.85 C737.17,570.56 737.12,571.57 737.38,573.18 C737.71,575.33 737.58,576.81 737.02,578.04 C736.77,578.62 736.71,579.63 736.87,581.32 C737.09,583.55 736.97,585.04 736.54,586.1 C736.22,586.91 736.07,587.98 736.1,589.51 C736.14,591.68 735.79,593.29 735.01,594.7 C734.66,595.43 734.59,596.73 734.88,598.99 C735.16,601.3 735.06,602.54 734.62,603.18 C734.19,603.82 733.95,605.31 733.96,608.13 C733.96,610.22 733.82,611.28 733.57,611.64 C733.39,611.87 733.24,612.48 733.11,613.62 C732.81,616.11 732.26,617.32 731.24,617.89 L730.92,618.04 L731.13,617.67 C731.42,617.05 731.48,616.23 731.27,614.95 C730.99,613.03 731.18,611.66 731.89,610.38 C732.53,609.2 732.73,607.69 732.52,605.38 C732.33,603.51 732.45,602.34 732.84,601.54 C733.22,600.76 733.33,599.63 733.15,597.84 C732.94,595.72 733.09,594.3 733.6,593.22 C734.04,592.29 734.13,591.15 733.86,589.46 C733.55,587.46 733.71,586.09 734.37,584.88 C734.99,583.75 735.14,582.41 734.83,580.44 C734.55,578.65 734.66,577.48 735.13,576.56 C735.58,575.7 735.68,574.7 735.45,573.21 C735.16,571.39 735.31,570.03 735.89,568.76 C736.4,567.63 736.51,566.38 736.2,564.66 C735.87,562.78 736.01,561.43 736.65,560.17 C737.25,558.98 737.42,557.56 737.17,555.5 C736.91,553.45 737.06,552.01 737.6,550.8 C738.16,549.6 738.31,548.45 738.09,547.01 C737.86,545.58 737.95,544.43 738.36,543.27 M738.51,543.52 C738.15,544.58 738.08,545.64 738.29,546.94 C738.53,548.47 738.38,549.69 737.78,550.97 C737.27,552.1 737.13,553.48 737.38,555.45 C737.64,557.59 737.46,559.08 736.82,560.34 C736.22,561.53 736.09,562.8 736.4,564.59 C736.73,566.4 736.62,567.72 736.06,568.93 C735.52,570.13 735.38,571.41 735.65,573.14 C735.9,574.73 735.79,575.81 735.3,576.74 C734.87,577.59 734.78,578.68 735.04,580.37 C735.36,582.44 735.2,583.86 734.54,585.07 C733.92,586.2 733.77,587.49 734.07,589.39 C734.35,591.17 734.25,592.38 733.77,593.39 C733.3,594.41 733.15,595.76 733.36,597.79 C733.55,599.68 733.43,600.87 733.01,601.72 C732.65,602.45 732.55,603.56 732.73,605.34 C732.95,607.74 732.73,609.32 732.06,610.56 C731.39,611.77 731.21,613.06 731.48,614.89 C731.66,615.99 731.65,616.8 731.46,617.45 C732.21,616.81 732.65,615.68 732.9,613.58 C733.03,612.36 733.21,611.7 733.44,611.41 C733.63,611.11 733.75,610.12 733.74,608.13 C733.74,605.22 734,603.66 734.48,602.96 C734.86,602.39 734.94,601.24 734.67,599.04 C734.37,596.69 734.45,595.32 734.85,594.52 C735.59,593.16 735.92,591.62 735.89,589.52 C735.85,587.93 736.01,586.81 736.36,585.95 C736.76,584.95 736.87,583.52 736.66,581.36 C736.49,579.59 736.56,578.52 736.84,577.87 C737.37,576.72 737.49,575.31 737.17,573.25 C736.9,571.55 736.96,570.46 737.32,569.67 C737.9,568.45 738.08,567 737.88,564.95 C737.72,563.36 737.83,562.33 738.18,561.6 C738.85,560.25 739.03,558.61 738.72,556.2 C738.53,554.79 738.55,553.93 738.75,553.41 C739.26,552.18 739.58,550.51 739.72,548.21 C739.8,545.52 739.43,544.2 738.51,543.52"/>
  <path fill="#fcc300" d="M745.89,546.15 C744.8,550.75 746.61,552.45 746.08,556.13 C745.51,559.8 746.82,562.42 745.89,566.41 C744.99,570.41 747.16,573.29 745.89,578.51 C744.59,583.71 746.65,584.88 745.89,590 C744.99,595.98 747.52,598.91 745.89,603.19 C744.36,607.5 747.69,608.58 746.08,613.08 C745.38,615.25 745.93,620.42 747.7,614.1 C748.95,607.63 746.83,607.04 747.89,604.34 C748.94,601.59 747.59,594.93 747.98,591.19 C748.37,587.49 746.89,582.67 747.89,578.69 C748.8,574.69 746.32,570.73 747.22,567.25 C748.2,563.77 746.92,559.78 747.79,556.96 C748.64,554.13 747.18,550.65 747.41,549.02 C747.69,547.4 747.19,541.77 745.89,546.15"/>
  <path fill="#000" d="M745.79,546.1 L745.79,546.1 C746.06,544.98 746.31,544.49 746.61,544.35 C746.91,544.31 747.1,544.56 747.32,545.27 C747.74,546.84 747.79,548.01 747.51,549.08 C747.42,549.49 747.49,550.32 747.78,551.71 C748.3,554.2 748.3,555.83 747.88,557.03 C747.56,557.94 747.46,559.41 747.64,561.69 C747.83,564.29 747.71,566.07 747.32,567.31 C746.97,568.46 747.05,570.1 747.63,572.64 C748.27,575.42 748.36,577.32 747.99,578.75 C747.58,580.26 747.52,582.52 747.89,585.86 C748.18,588.37 748.23,590.12 748.09,591.22 C747.96,592.27 747.99,594.19 748.24,597.09 C748.56,601.02 748.43,603.3 747.97,604.42 C747.62,605.2 747.58,606.08 747.86,607.33 C748.35,609.53 748.33,611.68 747.8,614.15 C747.42,615.66 747.07,616.58 746.74,617.04 C746.55,617.25 746.41,617.32 746.24,617.28 C746.09,617.22 745.98,617.1 745.86,616.84 C745.37,615.53 745.41,614.39 745.99,613 C746.6,611.48 746.58,610.03 745.9,608.08 C745.21,606.1 745.19,604.63 745.79,603.11 C746.39,601.6 746.48,599.73 746.02,597 C745.52,594.17 745.46,591.91 745.78,589.96 C746.05,588.36 746.01,586.65 745.64,584.61 C745.22,582.3 745.28,580.37 745.79,578.45 C746.28,576.58 746.31,574.43 745.86,571.64 C745.47,569.32 745.46,567.65 745.79,566.36 C746.15,564.93 746.23,563.16 745.98,560.81 C745.75,558.78 745.76,557.25 745.97,556.09 C746.17,554.99 746.11,553.68 745.76,551.96 C745.31,549.7 745.33,547.86 745.78,546.11 L745.79,546.1 M745.98,546.2 C745.54,547.9 745.53,549.68 745.96,551.88 C746.32,553.65 746.38,555.02 746.18,556.17 C745.98,557.29 745.97,558.78 746.19,560.77 C746.44,563.16 746.37,564.98 745.98,566.46 C745.68,567.7 745.69,569.32 746.06,571.57 C746.53,574.42 746.49,576.63 745.98,578.56 C745.49,580.41 745.44,582.29 745.84,584.53 C746.23,586.62 746.27,588.38 745.99,590.03 C745.67,591.94 745.74,594.15 746.22,596.93 C746.7,599.74 746.61,601.68 745.98,603.26 C745.41,604.68 745.43,606.07 746.09,607.95 C746.8,609.99 746.82,611.54 746.17,613.15 C745.63,614.44 745.6,615.49 746.05,616.7 C746.13,616.88 746.2,616.96 746.29,617 C746.38,617.02 746.47,616.97 746.59,616.83 C746.9,616.4 747.23,615.52 747.59,614.06 C748.12,611.65 748.13,609.57 747.66,607.42 C747.36,606.08 747.41,605.12 747.8,604.25 C748.23,603.2 748.34,600.98 748.02,597.12 C747.77,594.2 747.74,592.24 747.88,591.16 C748.01,590.1 747.96,588.39 747.68,585.91 C747.31,582.51 747.37,580.2 747.79,578.64 C748.15,577.28 748.06,575.44 747.43,572.73 C746.83,570.12 746.76,568.4 747.13,567.18 C747.5,566 747.62,564.27 747.43,561.73 C747.25,559.38 747.35,557.85 747.7,556.88 C748.09,555.77 748.07,554.2 747.58,551.8 C747.27,550.34 747.2,549.45 747.31,548.97 C747.57,547.98 747.52,546.87 747.12,545.38 C746.95,544.83 746.82,544.63 746.65,544.64 C746.44,544.75 746.23,545.19 745.99,546.19 L745.99,546.2 L745.98,546.2"/>
  <path fill="#ef072d" d="M760.18,529.25 C760.11,499.63 757.18,490.06 745.89,489.94 C734.59,490.25 731.66,499.89 731.59,529.5 C741.03,529.59 750.46,529.51 760.18,529.25"/>
  <path fill="#000" d="M760.29,529.39 C750.78,529.65 741.28,529.74 731.49,529.65 L731.49,529.5 C731.52,514.49 732.53,504.32 734.43,498.65 C736.7,492.66 740.14,490.03 745.89,489.79 C751.64,489.93 755.07,492.49 757.35,498.44 C759.25,504.08 760.25,514.23 760.29,529.24 L760.29,529.39 M760.07,529.1 C760.03,514.22 759.03,504.15 757.15,498.57 C754.92,492.74 751.54,490.22 745.89,490.08 C740.23,490.32 736.85,492.9 734.62,498.77 C732.74,504.39 731.74,514.47 731.7,529.36 C741.06,529.44 750.43,529.37 760.07,529.1"/>
  <path fill="#000" d="M731.59,529.5 C731.66,499.89 734.59,490.25 745.89,489.94 C740.6,490.38 737.8,495.16 736.74,499.08 C735.93,502.72 736.33,502.46 737.5,501.03 C738.76,499.74 738.01,502.63 737.12,504.41 C736.23,506.28 735.05,510.64 736.55,509.36 C738.04,507.95 738.79,509.5 737.5,512.36 C736.18,515.23 734.6,521.22 736.26,519.25 C737.89,517.21 737.85,520.57 737.12,522.51 C736.31,524.41 736.28,525.78 737.12,525.11 C738.01,524.66 737.73,527.88 737.03,529.54 L731.59,529.5"/>
  <path fill="#000" d="M731.49,529.5 C731.52,514.49 732.53,504.32 734.43,498.65 C736.7,492.66 740.14,490.03 745.89,489.79 L745.89,490.08 C743.48,490.22 741.69,491.14 739.77,493.27 C738.34,495.04 737.42,496.89 736.84,499.12 C736.45,500.81 736.36,501.64 736.45,501.85 C736.55,501.92 736.82,501.67 737.43,500.92 C737.77,500.52 737.96,500.43 738.13,500.61 C738.24,500.78 738.27,501.07 738.2,501.58 C738.03,502.63 737.71,503.57 737.21,504.5 C736.71,505.44 736.34,506.61 736.08,508.13 C735.99,508.78 735.98,509.19 736.04,509.42 C736.07,509.49 736.09,509.52 736.14,509.52 C736.22,509.5 736.33,509.42 736.48,509.25 C736.84,508.84 737.13,508.67 737.46,508.64 C737.79,508.65 737.98,508.8 738.15,509.18 C738.45,510.05 738.3,511.01 737.59,512.44 C736.89,513.85 736.34,515.55 735.91,517.69 C735.75,518.57 735.71,519.14 735.75,519.45 C735.77,519.53 735.79,519.56 735.82,519.56 C735.91,519.52 736.02,519.4 736.18,519.15 C736.57,518.58 736.84,518.38 737.14,518.43 C737.4,518.53 737.55,518.78 737.65,519.34 C737.81,520.51 737.68,521.51 737.21,522.59 C736.81,523.47 736.63,524.17 736.62,524.78 C736.63,525 736.66,525.11 736.72,525.16 C736.8,525.19 736.9,525.15 737.06,524.99 C737.19,524.87 737.29,524.84 737.4,524.88 C737.5,524.93 737.57,525.03 737.63,525.21 C737.72,525.51 737.76,525.92 737.75,526.5 C737.7,527.86 737.49,528.85 737.11,529.62 L737.08,529.68 L731.49,529.65 L731.49,529.5 M743.02,490.4 C738.95,491.49 736.45,493.96 734.62,498.77 C732.74,504.39 731.74,514.47 731.7,529.36 L736.97,529.39 C737.31,528.67 737.49,527.75 737.54,526.49 C737.55,525.96 737.51,525.58 737.44,525.33 C737.4,525.23 737.37,525.18 737.33,525.16 C737.29,525.14 737.25,525.16 737.19,525.23 C736.95,525.45 736.8,525.51 736.63,525.42 C736.49,525.31 736.42,525.13 736.41,524.79 C736.41,524.11 736.6,523.37 737.03,522.43 C737.47,521.43 737.59,520.5 737.44,519.4 C737.37,518.97 737.27,518.78 737.1,518.71 C736.88,518.69 736.67,518.86 736.34,519.35 C736.15,519.64 736,519.79 735.87,519.84 C735.7,519.88 735.61,519.8 735.55,519.52 C735.5,519.16 735.54,518.55 735.71,517.62 C736.14,515.44 736.7,513.71 737.41,512.27 C738.07,510.95 738.22,510.08 737.97,509.32 C737.84,509.05 737.7,508.94 737.46,508.93 C737.19,508.96 736.94,509.11 736.62,509.47 C736.43,509.68 736.29,509.78 736.16,509.81 C736.01,509.82 735.92,509.75 735.84,509.54 C735.77,509.25 735.77,508.78 735.87,508.07 C736.14,506.5 736.52,505.3 737.04,504.32 C737.52,503.43 737.83,502.53 737.99,501.52 C738.05,501.13 738.04,500.92 737.99,500.82 C737.92,500.77 737.81,500.85 737.57,501.14 C736.85,502.01 736.51,502.26 736.29,502.06 C736.15,501.75 736.22,500.84 736.64,499.03 C737.23,496.75 738.18,494.86 739.63,493.05 C740.72,491.81 741.79,490.98 743.02,490.4"/>
  <path fill="#000" d="M757.99,527.61 C757.93,504.44 755.9,497.91 751.7,495.46 C749.31,494.2 749.28,494.43 750.4,496.52 C751.4,498.66 751.51,501.5 750.31,499.52 C749.23,497.43 748.96,497.1 748.48,497.98 C748.27,499.04 749.62,503.04 750.92,507.06 C751.8,510.23 751.39,511.68 749.78,508.64 C748.18,505.6 748.41,508.31 749.6,510.98 C751.1,514.51 751.22,524.5 751.22,528.92 L757.99,527.61"/>
  <path fill="#000" d="M758.1,527.74 L751.12,529.09 L751.12,528.92 L751.12,528.55 C751.09,518.97 750.51,513.32 749.51,511.07 C748.84,509.66 748.55,508.59 748.54,507.66 C748.55,507.45 748.59,507.31 748.66,507.22 C748.76,507.11 748.85,507.11 749,507.2 C749.22,507.38 749.5,507.8 749.87,508.56 C750.23,509.29 750.53,509.75 750.79,510.02 C750.99,510.21 751.1,510.23 751.19,510.1 C751.4,509.61 751.31,508.73 750.82,507.12 L749.91,504.32 C748.64,500.47 748.24,498.5 748.39,497.9 C748.52,497.64 748.63,497.49 748.76,497.41 C748.92,497.34 749.04,497.36 749.22,497.51 C749.45,497.74 749.84,498.36 750.39,499.44 C750.63,499.89 750.78,500.06 750.91,500.07 C751,500.04 751.04,499.9 751.06,499.56 C751.08,498.56 750.85,497.64 750.31,496.61 C750,496.05 749.8,495.64 749.69,495.37 C749.55,494.98 749.55,494.77 749.67,494.62 C749.91,494.48 750.49,494.66 751.74,495.33 C754.02,496.74 755.46,499.21 756.52,503.7 C757.53,508.62 758.08,516.54 758.1,527.61 L758.1,527.74 M757.88,527.49 C757.86,516.51 757.32,508.66 756.32,503.79 C755.26,499.38 753.87,496.99 751.66,495.6 C750.49,494.97 749.96,494.77 749.79,494.85 C749.77,494.89 749.79,495 749.88,495.24 C749.98,495.49 750.18,495.88 750.48,496.44 C751.05,497.53 751.29,498.5 751.28,499.58 C751.24,500.09 751.15,500.3 750.93,500.36 C750.71,500.36 750.51,500.16 750.22,499.6 C749.68,498.56 749.31,497.97 749.1,497.75 C748.99,497.66 748.92,497.64 748.84,497.68 C748.76,497.73 748.67,497.85 748.56,498.06 C748.45,498.56 748.87,500.45 750.1,504.2 L751.02,507 C751.53,508.72 751.61,509.69 751.36,510.27 C751.18,510.55 750.99,510.55 750.66,510.26 C750.38,509.97 750.06,509.48 749.69,508.72 C749.35,508 749.09,507.61 748.9,507.46 C748.85,507.42 748.82,507.42 748.8,507.43 C748.78,507.47 748.76,507.54 748.76,507.67 C748.76,508.54 749.04,509.55 749.69,510.9 C750.71,513.2 751.3,518.91 751.33,528.55 L751.33,528.76 L757.88,527.49"/>
  <path fill="#ef072d" d="M745.89,533.81 C750.45,533.68 755.14,532.54 758.56,530.75 C762.47,528.38 762.62,526.9 761.32,524.45 C760.16,522.97 758.45,523.81 756.27,525.13 C754.09,526.28 748.88,527.16 745.89,527.26 C742.89,527.22 737.68,526.42 735.5,525.32 C733.33,524.04 731.62,523.22 730.45,524.73 C729.15,527.2 729.3,528.68 733.21,530.97 C736.63,532.7 741.32,533.76 745.89,533.81"/>
  <path fill="#000" d="M745.89,533.95 C740.9,533.92 736.85,533 733.18,531.11 C731.25,530.03 730.24,529.08 729.76,527.99 C729.45,526.97 729.62,525.99 730.37,524.64 C731.29,523.4 732.69,523.55 735.54,525.18 C737.84,526.44 741.07,527.09 745.89,527.11 C750.71,527 753.94,526.3 756.23,525 C759.08,523.31 760.48,523.14 761.41,524.36 C762.15,525.7 762.32,526.68 762.01,527.7 C761.53,528.8 760.52,529.77 758.6,530.88 C754.91,532.84 750.86,533.83 745.89,533.95 M745.89,533.66 C750.83,533.54 754.86,532.55 758.52,530.61 C760.39,529.53 761.37,528.6 761.82,527.58 C762.09,526.67 761.93,525.78 761.24,524.55 C760.39,523.44 759.06,523.64 756.32,525.26 C753.99,526.58 750.74,527.3 745.89,527.4 C741.03,527.38 737.78,526.72 735.46,525.45 C732.71,523.87 731.38,523.71 730.53,524.82 C729.84,526.07 729.68,526.96 729.95,527.86 C730.4,528.88 731.38,529.79 733.25,530.84 C736.91,532.71 740.93,533.63 745.89,533.66"/>
  <path fill="#b95a1e" d="M789.34,493.15 L794.43,504.72 C796.75,509.67 798.13,510.47 799.88,508.96 C801.24,506.99 800.18,503.64 798.87,501.49 C797.58,499.68 790.76,491.05 790.75,491.04 L789.34,493.15"/>
  <path fill="#000" d="M789.19,493.13 L790.75,490.81 L790.84,490.92 C795.41,496.68 798.1,500.15 798.96,501.37 C799.7,502.53 800.21,503.76 800.54,505.25 C800.87,507.09 800.69,508.2 799.95,509.09 C799.02,509.97 798.3,510.06 797.31,509.43 C796.38,508.67 795.43,507.24 794.32,504.82 L792.88,501.54 L789.24,493.24 L789.19,493.13 M789.49,493.16 L793.09,501.36 L794.53,504.63 C795.61,507.01 796.54,508.4 797.44,509.13 C798.33,509.7 798.98,509.62 799.81,508.83 C800.45,508.05 800.61,507.05 800.31,505.36 C799.99,503.92 799.5,502.73 798.77,501.61 C797.93,500.39 795.27,496.97 790.76,491.28 L789.49,493.16"/>
  <path fill="#b95a1e" d="M788.64,493.73 L790.67,507.3 C791.67,513.18 792.77,514.63 794.72,514.04 C796.42,512.81 796.23,509.08 795.51,506.36 C794.75,504 790.44,492.4 790.44,492.39 L788.64,493.73"/>
  <path fill="#000" d="M788.51,493.65 L790.5,492.17 L790.55,492.31 C793.45,500.05 795.13,504.7 795.63,506.29 C796.05,507.76 796.23,509.21 796.19,510.79 C796.06,512.74 795.64,513.7 794.75,514.2 C793.69,514.59 793,514.33 792.24,513.23 C791.56,512.06 791,510.19 790.55,507.34 L789.97,503.5 L788.52,493.77 L788.51,493.65 M788.78,493.81 L790.21,503.42 L790.79,507.26 C791.23,510.05 791.78,511.88 792.43,513 C793.12,513.99 793.74,514.23 794.69,513.88 C795.47,513.44 795.83,512.57 795.95,510.79 C795.99,509.27 795.81,507.86 795.4,506.44 C794.91,504.86 793.25,500.27 790.39,492.62 L788.78,493.81"/>
  <path fill="#b95a1e" d="M787.41,494.06 L787.41,497.3 L787.41,508.09 C787.53,514.19 788.4,515.98 790.36,515.99 C792.2,515.29 792.53,511.56 792.23,508.64 C791.84,506.07 789.34,493.29 789.34,493.29 L787.41,494.06"/>
  <path fill="#000" d="M787.29,493.94 L789.43,493.08 L789.46,493.23 C791.15,501.77 792.1,506.88 792.35,508.6 C792.55,510.18 792.51,511.68 792.25,513.22 C791.84,515.12 791.31,515.93 790.36,516.15 C789.29,516.22 788.66,515.74 788.08,514.43 C787.59,513.07 787.32,511.04 787.29,508.1 L787.28,504.13 L787.29,494.07 L787.29,493.94 M787.53,494.19 L787.53,504.11 L787.53,508.08 C787.56,510.97 787.83,512.95 788.29,514.26 C788.82,515.45 789.39,515.88 790.35,515.82 C791.17,515.63 791.64,514.89 792.01,513.15 C792.27,511.66 792.3,510.22 792.11,508.68 C791.86,506.98 790.92,501.92 789.25,493.49 L787.53,494.19"/>
  <path fill="#b95a1e" d="M785.48,493.41 L780.4,505.69 C778.07,510.95 776.69,511.94 774.94,510.68 C773.59,508.9 774.64,505.4 775.96,503.07 C777.24,501.08 784.06,491.51 784.07,491.5 L785.48,493.41"/>
  <path fill="#000" d="M785.59,493.49 L781.94,502.29 L780.5,505.77 C779.4,508.33 778.43,509.91 777.51,510.79 C776.52,511.56 775.8,511.57 774.87,510.81 C774.13,510.03 773.95,508.95 774.28,507.06 C774.61,505.53 775.12,504.22 775.86,502.96 C776.72,501.62 779.41,497.78 783.98,491.39 L784.07,491.27 L785.63,493.38 L785.59,493.49 M785.33,493.45 L784.07,491.74 C779.55,498.05 776.89,501.84 776.05,503.17 C775.33,504.39 774.83,505.66 774.51,507.13 C774.21,508.87 774.37,509.84 775.01,510.54 C775.85,511.21 776.49,511.21 777.38,510.51 C778.27,509.66 779.21,508.13 780.29,505.61 L781.73,502.14 L785.33,493.45"/>
  <path fill="#b95a1e" d="M786.18,493.9 L784.16,507.75 C783.16,513.76 782.05,515.37 780.1,515.04 C778.39,514.04 778.59,510.31 779.31,507.48 C780.07,505.01 784.38,492.81 784.38,492.81 L786.18,493.9"/>
  <path fill="#000" d="M786.3,493.92 L784.85,503.85 L784.28,507.78 C783.82,510.68 783.26,512.63 782.58,513.9 C781.82,515.09 781.13,515.45 780.07,515.2 C779.17,514.83 778.76,513.94 778.63,512 C778.59,510.43 778.77,508.95 779.2,507.42 C779.69,505.76 781.38,500.88 784.27,492.74 L784.33,492.59 L786.32,493.8 L786.3,493.92 M786.04,494 L784.44,493.03 C781.58,501.07 779.91,505.89 779.42,507.53 C779.01,509.02 778.84,510.45 778.88,511.96 C778.99,513.74 779.35,514.55 780.14,514.88 C781.08,515.1 781.71,514.78 782.39,513.69 C783.05,512.48 783.59,510.57 784.04,507.72 L784.61,503.8 L786.04,494"/>
  <path fill="#b95a1e" d="M787.41,494.06 L787.42,497.3 L787.41,508.09 C787.29,514.2 786.41,516.11 784.47,516.39 C782.6,515.94 782.29,512.28 782.59,509.3 C782.98,506.68 785.48,493.56 785.48,493.55 L787.41,494.06"/>
  <path fill="#000" d="M787.54,494.06 L787.54,504.11 L787.54,508.08 C787.5,511.02 787.23,513.09 786.75,514.52 C786.17,515.91 785.53,516.48 784.46,516.56 C783.51,516.47 782.98,515.74 782.57,513.89 C782.31,512.38 782.27,510.89 782.47,509.28 C782.72,507.53 783.67,502.28 785.36,493.52 L785.39,493.36 L787.54,493.93 L787.54,494.06 M787.29,494.2 L785.57,493.75 C783.9,502.41 782.96,507.6 782.71,509.33 C782.52,510.89 782.55,512.33 782.81,513.79 C783.18,515.48 783.64,516.14 784.47,516.22 C785.43,516.15 786.01,515.64 786.53,514.38 C787,513 787.26,510.98 787.29,508.1 L787.29,504.13 L787.29,494.2"/>
  <path fill="#b95a1e" d="M790.66,431.46 C790.69,431.42 795.49,424.3 803.8,416.49 C812.38,408.54 817.95,403.03 819.33,403.72 C819.02,405.19 812.28,412.75 806.19,419.03 C800.24,425.21 793.05,434.05 793.05,434.05 L790.66,431.46"/>
  <path fill="#000" d="M790.57,431.35 C793.82,426.49 798.15,421.56 803.74,416.35 L806.65,413.64 C814.66,406.21 818.48,403.19 819.4,403.58 L819.45,403.63 L819.45,403.71 C819.25,404.93 815.13,410 806.26,419.16 C802.29,423.26 797.92,428.27 793.13,434.17 L793.05,434.27 L790.48,431.49 L790.57,431.35 M790.84,431.43 L793.05,433.83 C797.81,427.96 802.17,422.99 806.12,418.9 C814.67,410.08 818.82,405.07 819.2,403.83 C818.28,403.72 814.45,406.79 806.78,413.91 L803.86,416.63 C798.35,421.77 794.06,426.64 790.84,431.43"/>
  <path fill="#b95a1e" d="M791.21,436.96 C791.23,436.95 795.96,432.63 804.99,426.08 C814.35,420.26 825.96,419.55 826.49,420.83 C825.07,422.17 814.7,423.91 807.38,428.61 C800.57,433.34 793.61,439.54 793.6,439.55 L791.21,436.96"/>
  <path fill="#000" d="M791.15,436.83 C794.34,433.88 798.91,430.29 804.94,425.93 L804.95,425.93 L804.95,425.93 C809,423.36 813.56,421.64 819.08,420.6 C821.16,420.25 822.91,420.08 824.4,420.09 C825.94,420.14 826.54,420.34 826.62,420.82 L826.62,420.89 L826.57,420.95 C826.16,421.35 824.62,422.02 821.56,422.95 C815.02,424.93 810.41,426.82 807.43,428.76 C802.89,431.89 798.31,435.52 793.67,439.69 L793.59,439.76 L791.01,436.96 L791.15,436.83 M791.42,436.97 L793.62,439.35 C798.25,435.19 802.81,431.58 807.34,428.47 C810.34,426.51 814.97,424.61 821.53,422.62 C824.36,421.76 825.89,421.14 826.36,420.78 C826.19,420.57 825.63,420.46 824.37,420.42 C822.9,420.42 821.15,420.58 819.09,420.93 C813.6,421.97 809.06,423.67 805.04,426.23 L805.04,426.23 C799.11,430.51 794.59,434.06 791.42,436.97"/>
  <path fill="#b95a1e" d="M791.27,446.51 C791.28,446.5 795.44,443.55 805.04,438.4 C815.03,433.42 826.77,434.47 827.28,435.82 C825.81,437.15 815.98,437.97 808.63,440.81 C801.23,443.87 793.69,449.07 793.65,449.1 L791.27,446.51"/>
  <path fill="#000" d="M791.21,446.36 C794.02,444.34 798.58,441.67 805.01,438.24 C809.32,436.03 814.08,434.85 819.75,434.54 C825.06,434.37 827.13,434.7 827.41,435.8 L827.41,435.88 L827.36,435.94 C826.86,436.4 824.92,437.05 820.99,437.82 C815.31,438.91 811.25,439.95 808.66,440.97 C803.71,442.97 798.78,445.7 793.71,449.25 L793.63,449.3 L791.19,446.64 L791.24,446.55 L791.21,446.36 M791.49,446.53 L793.67,448.9 C798.74,445.37 803.67,442.65 808.6,440.65 C811.21,439.62 815.28,438.59 820.98,437.49 C824.68,436.77 826.61,436.16 827.16,435.76 C826.76,434.96 824.73,434.7 819.74,434.88 C814.09,435.18 809.37,436.36 805.08,438.55 C798.8,441.91 794.3,444.54 791.49,446.53"/>
  <path fill="#b95a1e" d="M791.72,456.17 C791.85,456.01 796.46,450.61 806.72,447.93 C817.3,445.86 824.98,452.48 825.35,454.09 C823.82,455.17 814.85,449.74 807.43,451.14 C799.8,453.27 794.24,458.63 794.11,458.76 L791.72,456.17"/>
  <path fill="#000" d="M791.64,456.05 C792.48,455.06 793.68,453.99 795.34,452.79 C798.73,450.45 802.4,448.83 806.71,447.76 C811.3,446.8 815.42,447.32 819.94,449.43 C823.74,451.37 825.28,452.71 825.47,454.08 L825.47,454.15 L825.43,454.21 C824.94,454.6 823.58,454.41 820.59,453.4 C814.57,451.34 810.42,450.69 807.45,451.31 C802.33,452.64 798.12,455.04 794.18,458.89 L794.1,458.97 L791.53,456.19 L791.64,456.05 M791.91,456.16 L794.12,458.55 C798.07,454.7 802.3,452.31 807.42,450.98 C810.43,450.36 814.61,451.01 820.67,453.07 C823.42,454.01 824.75,454.24 825.23,454.02 C824.96,452.83 823.44,451.58 819.84,449.75 C815.36,447.65 811.28,447.14 806.73,448.09 C802.45,449.16 798.81,450.76 795.44,453.08 C793.88,454.22 792.73,455.23 791.91,456.16"/>
  <path fill="#b95a1e" d="M789.34,425.85 C789.58,425.61 796.55,418.49 797.04,412.77 C796.82,407.2 793.75,402 792.68,399.26 C794.78,399.61 798.69,406.7 798.97,412.61 C798.58,418.82 791.88,428.25 791.73,428.44 L789.34,425.85"/>
  <path fill="#000" d="M789.22,426.17 L789.22,425.5 L789.35,425.64 C794.44,420.54 796.75,416.52 796.92,412.78 C796.83,410.01 795.83,406.53 793.7,401.9 C793.12,400.66 792.75,399.8 792.57,399.34 L792.49,399.11 L792.68,399.09 C793.83,399.18 794.96,400.45 796.65,403.7 C798.25,407.05 799.01,409.85 799.09,412.6 C798.95,416.78 796.68,421.89 791.81,428.56 L791.73,428.67 L789.33,426.06 L789.22,426.17 M789.54,425.85 L791.73,428.22 C796.49,421.67 798.7,416.69 798.84,412.62 C798.76,409.94 798.02,407.19 796.44,403.9 C794.94,400.98 793.88,399.71 792.89,399.43 C793.09,399.92 793.42,400.68 793.91,401.71 C796.06,406.39 797.07,409.92 797.16,412.76 C797,416.6 794.67,420.71 789.54,425.85"/>
  <path fill="#b95a1e" d="M789.34,425.85 C789.34,425.82 788.45,421.78 788.38,413.44 C788.59,403.65 792.55,397.38 794.15,394.99 C794.3,397.12 790.52,404.98 790.3,413.3 C790.39,419.38 791.73,428.43 791.73,428.44 L789.34,425.85"/>
  <path fill="#000" d="M789.22,425.91 C788.62,423.13 788.28,419.03 788.26,413.45 C788.35,406.69 790.21,400.76 794.07,394.88 L794.22,394.65 L794.27,394.94 C794.33,395.56 794,397.1 793.15,399.81 C791.36,405.48 790.49,409.89 790.43,413.29 C790.45,417.33 790.92,422.35 791.85,428.4 L791.92,428.87 L789.26,425.98 L789.32,425.88 L789.22,425.91 M789.45,425.74 L791.54,428.02 C790.65,422.15 790.21,417.27 790.18,413.31 C790.25,409.86 791.12,405.41 792.93,399.69 C793.61,397.53 793.97,396.12 794.04,395.39 C790.37,401.13 788.6,406.88 788.5,413.43 C788.53,418.95 788.86,423 789.45,425.74"/>
  <path fill="#b95a1e" d="M784.16,431.91 C784.13,431.86 779.34,425.42 771.02,418.75 C762.44,411.99 756.88,407.27 755.5,408.17 C755.81,409.63 762.52,416.17 768.63,421.62 C774.58,426.98 781.77,434.82 781.77,434.83 L784.16,431.91"/>
  <path fill="#000" d="M784.34,431.91 L781.77,435.05 L781.69,434.96 C776.9,429.71 772.53,425.31 768.57,421.76 C759.68,413.83 755.57,409.39 755.37,408.17 L755.37,408.09 L755.42,408.04 C756.35,407.5 760.17,409.98 768.17,416.3 L771.09,418.6 C776.67,423.04 781,427.36 784.25,431.79 L784.34,431.91 M783.98,431.9 C780.76,427.54 776.48,423.27 770.96,418.89 L768.04,416.59 C760.37,410.52 756.57,408.01 755.63,408.25 C756.01,409.47 760.14,413.84 768.7,421.48 C772.65,425.02 777.01,429.39 781.77,434.61 L783.98,431.9"/>
  <path fill="#b95a1e" d="M783.61,437.49 C783.59,437.47 778.87,433.8 769.83,428.5 C760.47,423.99 748.86,424.96 748.33,426.31 C749.74,427.44 760.12,427.69 767.44,431.37 C774.26,435.16 781.21,440.39 781.22,440.4 L783.61,437.49"/>
  <path fill="#000" d="M783.81,437.45 L781.23,440.61 L781.16,440.55 C776.51,437.01 771.94,434.02 767.39,431.53 C764.41,430 759.81,428.76 753.26,427.71 C750.19,427.22 748.66,426.78 748.25,426.44 L748.21,426.39 L748.21,426.31 C748.29,425.83 748.89,425.54 750.42,425.26 C751.92,425.04 753.67,424.95 755.74,425.01 C761.27,425.26 765.82,426.34 769.87,428.35 L769.88,428.35 L769.88,428.35 C775.91,431.87 780.48,434.84 783.67,437.34 L783.81,437.45 M783.4,437.52 C780.23,435.04 775.72,432.12 769.78,428.66 L769.78,428.66 C765.75,426.66 761.23,425.6 755.73,425.34 C753.67,425.29 751.93,425.37 750.45,425.59 C749.2,425.81 748.63,426.01 748.47,426.24 C748.94,426.53 750.45,426.93 753.29,427.38 C759.86,428.43 764.48,429.68 767.49,431.22 C772.02,433.7 776.58,436.68 781.21,440.2 L783.4,437.52"/>
  <path fill="#b95a1e" d="M783.56,447.04 C783.54,447.03 779.39,444.65 769.78,440.83 C759.8,437.24 748.04,440 747.54,441.41 C749.01,442.53 758.84,441.93 766.19,443.74 C773.61,445.78 781.13,449.93 781.17,449.96 L783.56,447.04"/>
  <path fill="#000" d="M783.61,446.88 L783.58,447.07 L783.64,447.16 L781.19,450.15 L781.12,450.11 C776.04,447.26 771.12,445.22 766.17,443.91 C763.58,443.25 759.52,442.78 753.83,442.5 C749.88,442.3 747.97,441.94 747.46,441.54 L747.42,441.49 L747.42,441.41 C747.68,440.29 749.77,439.63 755.07,439.05 C760.76,438.54 765.5,439.06 769.81,440.67 C776.24,443.21 780.8,445.25 783.61,446.88 M783.33,447.09 C780.53,445.48 776.03,443.47 769.74,440.99 C765.45,439.4 760.75,438.88 755.08,439.38 C750.11,439.92 748.05,440.49 747.67,441.33 C748.22,441.66 750.13,441.98 753.84,442.17 C759.54,442.45 763.62,442.92 766.22,443.58 C771.17,444.89 776.08,446.92 781.15,449.76 L783.33,447.09"/>
  <path fill="#b95a1e" d="M783.1,456.76 C782.95,456.61 778.4,451.85 768.1,450.59 C757.55,450.01 749.84,457.75 749.47,459.4 C750.97,460.24 760,453.54 767.39,453.91 C775.06,454.98 780.57,459.56 780.71,459.68 L783.1,456.76"/>
  <path fill="#000" d="M783.29,456.75 L780.72,459.89 L780.65,459.82 C776.69,456.5 772.51,454.7 767.38,454.07 C764.42,453.88 760.26,455.1 754.23,458.02 C751.24,459.47 749.88,459.85 749.39,459.53 L749.35,459.48 L749.35,459.41 C749.54,458.03 751.1,456.44 754.89,453.96 C759.41,451.2 763.54,450.11 768.12,450.43 C772.44,450.9 776.09,452.01 779.48,453.88 C781.15,454.86 782.34,455.75 783.18,456.63 L783.29,456.75 M782.91,456.78 C782.09,455.95 780.95,455.11 779.38,454.19 C776.01,452.33 772.38,451.23 768.09,450.76 C763.56,450.44 759.47,451.53 754.99,454.26 C751.4,456.61 749.86,458.11 749.6,459.32 C750.06,459.47 751.41,459.04 754.15,457.71 C760.21,454.78 764.41,453.54 767.4,453.74 C772.55,454.37 776.74,456.16 780.71,459.47 L782.91,456.78"/>
  <path fill="#b95a1e" d="M785.48,426.11 C785.21,425.88 778.28,419.81 777.78,414.1 C778,408.53 781.08,402.86 782.14,399.98 C780.08,400.61 776.13,408.28 775.86,414.2 C776.24,420.41 782.93,428.84 783.09,429.04 L785.48,426.11"/>
  <path fill="#000" d="M785.49,426.32 L783.09,429.26 L783.01,429.16 C778.14,423.16 775.87,418.39 775.73,414.2 C775.82,411.47 776.57,408.54 778.17,404.97 C779.85,401.5 781.01,400.05 782.14,399.82 L782.33,399.81 L782.25,400.05 C782.08,400.54 781.71,401.44 781.12,402.77 C778.99,407.68 777.99,411.32 777.9,414.09 C778.08,417.83 780.37,421.5 785.47,425.91 L785.6,425.74 L785.6,426.41 L785.49,426.32 M785.28,426.14 C780.14,421.7 777.82,417.95 777.66,414.1 C777.75,411.27 778.76,407.57 780.91,402.6 C781.4,401.5 781.74,400.7 781.93,400.19 C780.96,400.59 779.88,402.03 778.38,405.14 C776.8,408.65 776.06,411.52 775.98,414.19 C776.12,418.26 778.33,422.91 783.1,428.81 L785.28,426.14"/>
  <path fill="#b95a1e" d="M785.48,426.11 C785.49,426.09 786.37,421.91 786.44,413.57 C786.23,403.78 782.28,398.1 780.67,395.91 C780.52,398.1 784.3,405.38 784.52,413.7 C784.44,419.77 783.1,429.02 783.09,429.04 L785.48,426.11"/>
  <path fill="#000" d="M785.6,426.16 L785.5,426.14 L785.56,426.23 L782.9,429.49 L782.97,429.01 C783.91,422.83 784.37,417.75 784.4,413.71 C784.33,410.3 783.46,406.02 781.67,400.6 C780.82,398.01 780.5,396.51 780.55,395.88 L780.6,395.59 L780.76,395.79 C784.61,401.15 786.47,406.8 786.57,413.56 C786.54,419.15 786.2,423.3 785.6,426.16 M785.38,426.02 C785.97,423.2 786.3,419.1 786.32,413.58 C786.22,407.02 784.45,401.54 780.78,396.3 C780.86,397.02 781.21,398.38 781.9,400.44 C783.7,405.92 784.58,410.24 784.64,413.69 C784.61,417.65 784.17,422.59 783.29,428.58 L785.38,426.02"/>
  <path fill="#b95a1e" d="M812.44,523.57 C809.56,514.23 808.62,497.71 808.59,494.87 C808.62,487.06 810.36,448.9 810.52,433.67 C810.42,418.26 803.96,411.09 797.04,411.39 C791.13,412.18 787.63,417.43 787.42,425.98 L790.3,425.78 C790.52,420 793.05,416.19 797.04,415.55 C802.96,415.32 807.07,420.97 807.63,433.97 C808,448.79 806.5,487.53 806.67,497.84 C806.95,508.21 809.47,517.02 812.44,523.57"/>
  <path fill="#fdc301" d="M812.72,523.38 L812.18,523.82 C808.51,515.72 806.6,507.2 806.36,497.88 L806.79,472.79 C807.3,452.53 807.46,439.61 807.32,434.02 C807.08,427.81 806.03,423.37 804.12,420.05 C802.09,417.02 800.09,415.88 797.04,415.97 C795.13,416.22 793.79,417.09 792.45,418.97 C791.25,420.93 790.68,423.02 790.61,425.76 L790.61,426.18 L787.11,426.42 L787.11,426 C787.2,421.63 788.06,418.37 789.84,415.47 C791.85,412.66 793.94,411.36 797.04,410.97 C800.93,410.82 803.73,412.37 806.59,416.31 C809.44,420.7 810.81,426.22 810.82,433.65 L809.67,470.71 L808.9,494.84 C808.92,497.61 809.18,501.56 809.7,506.7 C810.47,513.91 811.49,519.42 812.72,523.38 M810.91,519.02 C810.21,515.67 809.6,511.63 809.09,506.88 C808.56,501.7 808.3,497.71 808.28,494.9 L809.06,470.73 L810.21,433.7 C810.19,426.48 808.87,421.15 806.12,416.91 C803.4,413.15 800.73,411.67 797.04,411.81 C794.13,412.18 792.16,413.4 790.29,416.02 C788.68,418.65 787.87,421.59 787.73,425.54 L790,425.38 C790.13,422.61 790.76,420.46 792.01,418.43 C793.48,416.36 794.94,415.4 797.04,415.13 C800.3,415.03 802.44,416.25 804.6,419.49 C806.6,422.93 807.69,427.54 807.94,433.92 C808.08,439.53 807.91,452.48 807.41,472.76 L806.97,497.8 C807.17,505.32 808.46,512.3 810.91,519.02"/>
  <path fill="#b95a1e" d="M762.38,527.04 C765.26,517.29 766.21,500.63 766.23,497.8 C766.21,489.99 764.47,452.08 764.31,436.87 C764.41,421.45 770.88,413.36 777.78,412.71 C783.71,412.69 787.2,417.45 787.41,425.98 L784.52,426.18 C784.3,420.41 781.79,416.96 777.78,416.87 C771.88,417.46 767.75,423.69 767.2,436.77 C766.82,451.64 768.32,490.16 768.16,500.5 C767.87,510.89 765.36,520.07 762.38,527.04"/>
  <path fill="#fdc301" d="M762.1,526.89 C763.34,522.75 764.35,517.09 765.12,509.79 C765.65,504.56 765.9,500.58 765.93,497.81 L765.15,473.79 L764,436.89 C764.01,429.47 765.39,423.74 768.24,418.96 C771.09,414.63 773.92,412.68 777.78,412.29 C780.9,412.26 782.97,413.26 784.98,415.81 C786.77,418.46 787.63,421.58 787.71,425.96 L787.71,426.38 L784.21,426.62 L784.21,426.2 C784.15,423.46 783.58,421.47 782.37,419.67 C781.03,417.96 779.71,417.28 777.78,417.29 C774.76,417.62 772.72,419.06 770.7,422.36 C768.8,425.93 767.75,430.54 767.5,436.77 C767.36,442.38 767.53,455.28 768.03,475.47 L768.46,500.5 C768.22,509.84 766.31,518.64 762.65,527.25 L762.1,526.89 M763.91,522.28 C766.36,515.21 767.66,508.04 767.85,500.5 L767.42,475.52 C766.91,455.31 766.75,442.39 766.89,436.76 C767.14,430.35 768.23,425.58 770.22,421.86 C772.37,418.34 774.55,416.8 777.78,416.45 C779.89,416.44 781.34,417.18 782.82,419.06 C784.07,420.92 784.69,422.97 784.82,425.74 L787.1,425.58 C786.95,421.63 786.15,418.83 784.54,416.41 C782.65,414.04 780.72,413.1 777.78,413.13 C774.11,413.5 771.42,415.36 768.7,419.49 C765.95,424.11 764.63,429.65 764.61,436.86 L765.77,473.73 L766.54,497.79 C766.52,500.6 766.26,504.62 765.73,509.88 C765.23,514.7 764.62,518.82 763.91,522.28"/>
  <path fill="#b95a1e" d="M787.42,493.91 C792.82,493.15 793.33,490.89 793.39,490.7 C793.42,490.55 794.36,485.23 793.99,483.72 C792.93,482.6 787.77,482.8 787.42,482.82 L787.42,493.91"/>
  <path fill="#000" d="M787.29,494.09 L787.29,482.66 L787.42,482.65 C791.6,482.42 793.46,482.71 794.09,483.63 C794.43,484.65 794.3,486.85 793.51,490.74 C792.89,492.68 791.21,493.64 787.42,494.08 L787.29,494.09 M787.54,493.73 C791.12,493.3 792.7,492.42 793.27,490.66 C794.05,486.87 794.19,484.76 793.88,483.81 C793.32,483.01 791.54,482.76 787.54,482.98 L787.54,493.73"/>
  <path fill="#b95a1e" d="M787.42,488.37 C793.23,487.68 794.08,485.28 794.15,485.1 C794.24,484.82 795.76,479.7 795.12,478.09 C793.73,477.04 787.74,477.26 787.42,477.28 L787.42,488.37"/>
  <path fill="#000" d="M787.29,488.54 L787.29,477.12 L787.42,477.11 C792.1,476.83 794.34,477.11 795.2,477.96 C795.79,479.05 795.56,481.14 794.26,485.16 C793.38,487.16 791.47,488.15 787.42,488.53 L787.29,488.54 M787.54,488.19 C791.41,487.81 793.23,486.88 794.04,485.03 C795.3,481.17 795.54,479.18 795.03,478.21 C794.22,477.43 792.07,477.17 787.54,477.43 L787.54,488.19"/>
  <path fill="#b95a1e" d="M787.42,482.82 C792.31,482.21 794.98,479.61 795.12,479.47 C795.21,479.2 796.73,474.08 796.08,472.46 C794.66,471.46 787.77,471.71 787.42,471.73 L787.42,482.82"/>
  <path fill="#000" d="M787.29,483 L787.29,471.57 L787.42,471.56 C792.76,471.24 795.28,471.51 796.17,472.34 C796.75,473.42 796.53,475.52 795.23,479.53 L795.21,479.58 L795.19,479.6 C793.08,481.63 790.76,482.66 787.42,482.99 L787.29,483 M787.54,482.65 C790.75,482.3 792.99,481.31 795.02,479.37 C796.26,475.53 796.5,473.55 795.99,472.58 C795.16,471.82 792.72,471.58 787.54,471.89 L787.54,482.65"/>
  <path fill="#b95a1e" d="M787.42,475.89 C796.08,474.85 796.06,471.9 796.08,471.67 C796.17,471.4 797.69,466.28 797.04,464.66 C795.57,463.75 787.83,464.74 787.42,464.8 L787.42,475.89"/>
  <path fill="#000" d="M787.29,476.07 L787.29,464.65 L787.41,464.63 C793.43,463.72 796.21,463.73 797.13,464.54 C797.72,465.62 797.49,467.7 796.2,471.7 C796.15,472.36 795.81,472.94 795.06,473.64 C793.46,474.91 791.14,475.69 787.42,476.06 L787.29,476.07 M787.54,475.71 C791.15,475.34 793.4,474.59 794.93,473.36 C795.63,472.72 795.92,472.22 795.96,471.68 L795.96,471.65 L795.97,471.61 C797.22,467.74 797.46,465.75 796.95,464.78 C796.1,464.05 793.4,464.06 787.54,464.95 L787.54,475.71"/>
  <path fill="#b95a1e" d="M787.42,470.34 C796.12,469.37 796.97,466.99 797.04,466.84 C797.13,466.56 798.65,461.44 798,459.82 C796.56,458.88 787.79,459.23 787.42,459.25 L787.42,470.34"/>
  <path fill="#000" d="M787.29,470.52 L787.29,459.1 L787.42,459.09 C794.05,458.67 797.18,458.89 798.09,459.7 C798.68,460.78 798.45,462.88 797.15,466.9 C796.22,468.81 793.44,469.92 787.42,470.51 L787.29,470.52 M787.54,470.17 C793.38,469.59 796.06,468.54 796.93,466.77 C798.19,462.9 798.43,460.91 797.91,459.95 C797.07,459.2 794.02,459.01 787.54,459.41 L787.54,470.17"/>
  <path fill="#b95a1e" d="M787.42,463.41 C796.14,462.47 797.91,459.94 798,459.83 C798.09,459.55 799.61,454.42 798.97,452.81 C797.53,451.87 787.78,452.3 787.42,452.32 L787.42,463.41"/>
  <path fill="#000" d="M787.29,463.59 L787.29,452.16 L787.42,452.16 C794.69,451.69 798.15,451.88 799.05,452.69 C799.64,453.77 799.41,455.86 798.11,459.89 L798.1,459.91 L798.09,459.93 C796.56,461.84 793.39,463.01 787.42,463.58 L787.29,463.59 M787.54,463.24 C793.35,462.66 796.41,461.54 797.9,459.74 C799.15,455.88 799.39,453.9 798.88,452.93 C798.03,452.19 794.66,452.03 787.54,452.48 L787.54,463.24"/>
  <path fill="#b95a1e" d="M787.42,456.48 C796.14,455.56 798.87,452.9 798.97,452.81 C799,452.59 799.68,447.45 798.97,445.88 C797.53,444.94 787.78,445.37 787.42,445.39 L787.42,456.48"/>
  <path fill="#000" d="M787.29,456.66 L787.29,445.23 L787.42,445.22 C794.69,444.76 798.15,444.94 799.05,445.76 C799.65,446.8 799.71,448.91 799.08,452.84 L799.07,452.9 L799.03,452.94 C796.92,454.88 793.34,456.09 787.42,456.65 L787.29,456.66 M787.54,456.31 C793.31,455.74 796.78,454.57 798.86,452.72 C799.46,448.95 799.42,446.95 798.88,446 C798.03,445.26 794.66,445.09 787.54,445.55 L787.54,456.31"/>
  <path fill="#b95a1e" d="M787.42,449.55 C796.14,448.62 798.87,445.97 798.97,445.88 C798.96,445.72 798.78,440.55 798,439.03 C796.56,438.08 787.79,438.44 787.42,438.46 L787.42,449.55"/>
  <path fill="#000" d="M787.29,449.73 L787.29,438.3 L787.42,438.29 C794.05,437.87 797.18,438.09 798.09,438.91 C798.7,439.92 799.05,442.05 799.09,445.87 L799.09,445.96 L799.03,446.01 C796.92,447.95 793.34,449.16 787.42,449.72 L787.29,449.73 M787.54,449.37 C793.29,448.81 796.76,447.64 798.84,445.8 C798.81,442.12 798.48,440.09 797.91,439.15 C797.07,438.41 794.02,438.21 787.54,438.62 L787.54,449.37"/>
  <path fill="#b95a1e" d="M787.42,442.62 C796.14,441.67 797.91,439.15 798,439.03 C798,438.87 797.82,433.7 797.04,432.18 C795.6,431.22 787.79,431.5 787.42,431.53 L787.42,442.62"/>
  <path fill="#000" d="M787.29,442.79 L787.29,431.37 L787.42,431.36 C793.41,430.99 796.22,431.24 797.13,432.06 C797.74,433.07 798.09,435.2 798.12,439.02 L798.12,439.09 L798.09,439.14 C796.56,441.05 793.39,442.21 787.42,442.79 L787.29,442.79 M787.54,442.44 C793.32,441.87 796.38,440.76 797.88,438.97 C797.84,435.28 797.52,433.24 796.95,432.3 C796.11,431.55 793.38,431.33 787.54,431.69 L787.54,442.44"/>
  <path fill="#b95a1e" d="M787.42,425.23 C794.26,425.34 796.93,432.1 797.06,432.34 L795.12,435.11 C793.66,436.4 787.72,437.05 787.5,437.06 L787.42,425.23"/>
  <path fill="#000" d="M787.42,425.06 C791.73,424.97 794.58,427.02 797.08,432.08 L797.14,431.98 L797.18,432.31 C797.18,432.33 797.18,432.35 797.18,432.37 C797.16,432.43 797.15,432.47 797.12,432.49 L795.2,435.22 C794.65,435.85 793.38,436.36 790.9,436.82 C790.15,436.94 789.35,437.05 788.51,437.14 L787.76,437.21 L787.56,437.22 L787.51,437.23 L787.49,437.23 C787.49,437.23 787.48,437.23 787.47,437.23 C787.46,437.22 787.45,437.22 787.44,437.21 C787.42,437.19 787.4,437.17 787.39,437.14 C787.38,437.1 787.37,437.07 787.38,437.04 L787.29,425.07 L787.42,425.06 M796.9,432.33 L796.89,432.32 C794.46,427.37 791.72,425.36 787.54,425.39 L787.62,436.89 L787.76,436.88 L788.51,436.81 C789.34,436.72 790.13,436.61 790.88,436.49 C793.3,436.04 794.53,435.57 795.03,435 L796.9,432.33 M796.99,432.2 C796.98,432.22 796.97,432.23 796.96,432.25 L796.99,432.2"/>
  <path fill="#b95a1e" d="M787.41,493.91 C781.99,493.9 781.49,491.71 781.43,491.52 C781.4,491.38 780.46,486.2 780.84,484.63 C781.88,483.37 787.08,482.85 787.41,482.82 L787.41,493.91"/>
  <path fill="#000" d="M787.41,494.08 C783.6,494.16 781.94,493.45 781.32,491.58 C780.53,487.8 780.39,485.63 780.73,484.55 C781.35,483.55 783.24,482.99 787.41,482.65 L787.53,482.65 L787.53,494.07 L787.41,494.08 M787.28,493.75 L787.28,483 C783.29,483.32 781.5,483.83 780.94,484.7 C780.64,485.69 780.78,487.79 781.55,491.47 C782.12,493.16 783.69,493.81 787.28,493.75"/>
  <path fill="#b95a1e" d="M787.41,488.37 C781.57,488.48 780.75,486.21 780.67,486.02 C780.58,485.76 779.05,480.87 779.71,479.15 C781.08,477.92 787.11,477.3 787.41,477.28 L787.41,488.37"/>
  <path fill="#000" d="M787.41,488.53 C783.34,488.7 781.45,488 780.56,486.1 C779.26,482.27 779.03,480.21 779.62,479.04 C780.48,478.07 782.74,477.48 787.41,477.11 L787.53,477.1 L787.53,488.52 L787.41,488.53 M787.28,488.21 L787.28,477.45 C782.77,477.81 780.59,478.37 779.8,479.26 C779.28,480.3 779.52,482.26 780.78,485.94 C781.6,487.7 783.4,488.36 787.28,488.21"/>
  <path fill="#b95a1e" d="M787.41,482.82 C782.48,482.88 779.86,480.66 779.71,480.53 C779.62,480.27 778.09,475.38 778.74,473.65 C780.15,472.46 787.09,471.76 787.41,471.73 L787.41,482.82"/>
  <path fill="#000" d="M787.41,482.99 C784.05,483.12 781.75,482.42 779.64,480.67 L779.61,480.65 L779.6,480.61 C778.3,476.78 778.07,474.71 778.66,473.54 C779.54,472.59 782.08,471.98 787.41,471.56 L787.53,471.56 L787.53,482.98 L787.41,482.99 M787.28,482.66 L787.28,471.91 C782.12,472.31 779.65,472.89 778.83,473.76 C778.32,474.8 778.56,476.75 779.8,480.42 C781.84,482.08 784.05,482.76 787.28,482.66"/>
  <path fill="#b95a1e" d="M787.41,475.89 C778.72,476.04 778.76,473.09 778.74,472.87 C778.65,472.6 777.12,467.71 777.78,465.99 C779.25,464.87 787.02,464.79 787.41,464.8 L787.41,475.89"/>
  <path fill="#000" d="M787.41,476.06 C783.67,476.2 781.36,475.75 779.76,474.69 C779,474.09 778.68,473.57 778.62,472.91 C777.33,469.1 777.1,467.04 777.69,465.88 C778.61,464.95 781.41,464.55 787.41,464.63 L787.53,464.64 L787.53,476.05 L787.41,476.06 M787.28,475.73 L787.28,464.96 C781.44,464.88 778.72,465.25 777.87,466.1 C777.36,467.14 777.6,469.1 778.85,472.79 L778.87,472.82 L778.87,472.86 C778.9,473.4 779.19,473.85 779.89,474.4 C781.43,475.42 783.66,475.86 787.28,475.73"/>
  <path fill="#b95a1e" d="M787.41,470.34 C778.68,470.57 777.85,468.31 777.78,468.16 C777.69,467.9 776.16,463.01 776.82,461.28 C778.26,460.14 787.07,459.28 787.41,459.25 L787.41,470.34"/>
  <path fill="#000" d="M787.41,470.51 C781.37,470.75 778.62,470.04 777.67,468.24 C776.37,464.4 776.14,462.34 776.73,461.17 C777.63,460.24 780.79,459.58 787.41,459.09 L787.53,459.08 L787.53,470.5 L787.41,470.51 M787.28,470.18 L787.28,459.43 C780.82,459.91 777.75,460.54 776.91,461.39 C776.39,462.44 776.64,464.39 777.89,468.08 C778.77,469.74 781.43,470.41 787.28,470.18"/>
  <path fill="#b95a1e" d="M787.41,463.41 C778.66,463.67 776.92,461.4 776.82,461.28 C776.73,461.02 775.2,456.12 775.86,454.4 C777.29,453.26 787.07,452.35 787.41,452.32 L787.41,463.41"/>
  <path fill="#000" d="M787.41,463.58 C781.42,463.83 778.27,463.11 776.73,461.4 L776.72,461.38 L776.71,461.36 C775.41,457.52 775.18,455.46 775.77,454.29 C776.67,453.36 780.15,452.69 787.41,452.16 L787.53,452.15 L787.53,463.57 L787.41,463.58 M787.28,463.25 L787.28,452.5 C780.18,453.02 776.78,453.66 775.95,454.51 C775.43,455.55 775.67,457.5 776.92,461.18 C778.42,462.79 781.45,463.48 787.28,463.25"/>
  <path fill="#b95a1e" d="M787.41,456.48 C778.66,456.76 775.96,454.49 775.86,454.4 C775.82,454.19 775.13,449.15 775.86,447.47 C777.29,446.33 787.07,445.42 787.41,445.39 L787.41,456.48"/>
  <path fill="#000" d="M787.41,456.65 C781.46,456.9 777.91,456.19 775.79,454.54 L775.75,454.51 L775.74,454.45 C775.11,450.61 775.17,448.49 775.77,447.36 C776.67,446.43 780.15,445.76 787.41,445.23 L787.53,445.22 L787.53,456.64 L787.41,456.65 M787.28,456.32 L787.28,445.57 C780.18,446.09 776.78,446.73 775.95,447.58 C775.4,448.61 775.37,450.62 775.96,454.29 C778.05,455.86 781.49,456.55 787.28,456.32"/>
  <path fill="#b95a1e" d="M787.41,449.55 C778.66,449.83 775.96,447.55 775.86,447.47 C775.86,447.32 776.04,442.12 776.82,440.49 C778.26,439.34 787.07,438.49 787.41,438.46 L787.41,449.55"/>
  <path fill="#000" d="M787.41,449.72 C781.46,449.97 777.91,449.26 775.79,447.61 L775.73,447.56 L775.73,447.48 C775.77,443.66 776.12,441.47 776.73,440.38 C777.63,439.44 780.79,438.79 787.41,438.29 L787.53,438.29 L787.53,449.71 L787.41,449.72 M787.28,449.39 L787.28,438.64 C780.82,439.12 777.75,439.74 776.91,440.6 C776.35,441.61 776.02,443.7 775.98,447.37 C778.07,448.93 781.51,449.62 787.28,449.39"/>
  <path fill="#b95a1e" d="M787.41,442.62 C778.66,442.87 776.92,440.6 776.82,440.49 C776.82,440.34 777,435.14 777.78,433.51 C779.22,432.35 787.06,431.55 787.41,431.53 L787.41,442.62"/>
  <path fill="#000" d="M787.41,442.79 C781.41,443.04 778.26,442.31 776.73,440.61 L776.7,440.56 L776.7,440.49 C776.73,436.68 777.08,434.49 777.69,433.39 C778.59,432.46 781.43,431.82 787.41,431.36 L787.53,431.35 L787.53,442.78 L787.41,442.79 M787.28,442.46 L787.28,431.7 C781.46,432.15 778.71,432.76 777.87,433.61 C777.31,434.63 776.98,436.73 776.94,440.41 C778.45,442 781.48,442.68 787.28,442.46"/>
  <path fill="#b95a1e" d="M787.41,425.23 C780.61,426.27 777.88,433.44 777.77,433.67 L779.71,436.17 C781.17,437.26 787.07,437.09 787.32,437.07 L787.41,425.23"/>
  <path fill="#000" d="M787.53,425.05 L787.45,437.03 C787.45,437.07 787.45,437.1 787.43,437.14 C787.42,437.17 787.41,437.19 787.39,437.21 C787.37,437.22 787.36,437.23 787.35,437.23 C787.34,437.24 787.34,437.24 787.33,437.24 L787.31,437.24 L787.26,437.24 L787.06,437.26 L786.31,437.29 C785.47,437.32 784.67,437.32 783.92,437.3 C781.43,437.18 780.17,436.85 779.62,436.29 L777.71,433.83 C777.68,433.81 777.66,433.77 777.65,433.72 C777.64,433.7 777.64,433.67 777.64,433.65 L777.68,433.32 L777.74,433.41 C780.23,428.02 783.12,425.56 787.41,425.06 L787.53,425.05 M777.92,433.64 L779.79,436.05 C780.3,436.55 781.51,436.85 783.94,436.96 C784.69,436.98 785.48,436.98 786.32,436.96 L787.06,436.92 L787.2,436.92 L787.28,425.41 C783.13,425.95 780.35,428.35 777.93,433.63 L777.92,433.64 M777.87,433.57 C777.86,433.55 777.85,433.53 777.83,433.52 L777.87,433.57"/>
  <path fill="#1A1A1A" opacity="0.2" d="M8,195.25 C178.83,110.03 349.03,140.83 521.26,167.28 C676.47,191.12 833.42,211.85 992,132.75 L992,804.75 C821.17,889.97 650.97,859.17 478.74,832.72 C323.53,808.88 166.58,788.15 8,867.25 L8,195.25 M39.25,214.64 L39.25,819.14 C345.81,690.88 650.43,915.18 960.75,785.36 L960.75,180.86 C654.19,309.12 349.57,84.82 39.25,214.64"/>
</svg>
