<?xml version="1.0" encoding="UTF-8" standalone="no"?><svg xmlns:dc="http://purl.org/dc/elements/1.1/" xmlns:cc="http://creativecommons.org/ns#" xmlns:rdf="http://www.w3.org/1999/02/22-rdf-syntax-ns#" xmlns:svg="http://www.w3.org/2000/svg" xmlns="http://www.w3.org/2000/svg" viewBox="0 0 45 45" style="enable-background:new 0 0 45 45;" xml:space="preserve" version="1.1" id="svg2"><metadata id="metadata8"><rdf:RDF><cc:Work rdf:about=""><dc:format>image/svg+xml</dc:format><dc:type rdf:resource="http://purl.org/dc/dcmitype/StillImage"/></cc:Work></rdf:RDF></metadata><defs id="defs6"><clipPath id="clipPath16" clipPathUnits="userSpaceOnUse"><path id="path18" d="M 0,36 36,36 36,0 0,0 0,36 Z"/></clipPath><clipPath id="clipPath28" clipPathUnits="userSpaceOnUse"><path id="path30" d="M 4,31 C 1.791,31 0,29.209 0,27 L 0,27 0,9 C 0,6.791 1.791,5 4,5 l 0,0 28,0 c 2.209,0 4,1.791 4,4 l 0,0 0,18 c 0,2.209 -1.791,4 -4,4 l 0,0 -28,0 z"/></clipPath><clipPath id="clipPath42" clipPathUnits="userSpaceOnUse"><path id="path44" d="M 0,36 36,36 36,0 0,0 0,36 Z"/></clipPath></defs><g transform="matrix(1.25,0,0,-1.25,0,45)" id="g10"><g id="g12"><g clip-path="url(#clipPath16)" id="g14"><g transform="translate(36,9)" id="g20"><path id="path22" style="fill:#1a8a00;fill-opacity:1;fill-rule:nonzero;stroke:none" d="m 0,0 c 0,-2.209 -1.791,-4 -4,-4 l -28,0 c -2.209,0 -4,1.791 -4,4 l 0,18 c 0,2.209 1.791,4 4,4 l 28,0 c 2.209,0 4,-1.791 4,-4 L 0,0 Z"/></g></g></g><g id="g24"><g clip-path="url(#clipPath28)" id="g26"><path id="path32" style="fill:#ef7d00;fill-opacity:1;fill-rule:nonzero;stroke:none" d="m 31,21 5,0 0,-16 -5,0 0,16 z"/><path id="path34" style="fill:#141414;fill-opacity:1;fill-rule:nonzero;stroke:none" d="m 26,21 5,0 0,-16 -5,0 0,16 z"/><path id="path36" style="fill:#de200f;fill-opacity:1;fill-rule:nonzero;stroke:none" d="m 21,21 5,0 0,-16 -5,0 0,16 z"/></g></g><g id="g38"><g clip-path="url(#clipPath42)" id="g40"><g transform="translate(28.6475,24.0166)" id="g46"><path id="path48" style="fill:#ef7d00;fill-opacity:1;fill-rule:nonzero;stroke:none" d="m 0,0 c -0.28,0 -0.088,0.151 -0.132,0.303 -0.044,0.152 0.152,0.022 0.13,0.152 -0.023,0.13 0,0.758 0,0.758 C 0.215,0.997 0.323,0.715 0.302,0.498 0.28,0.281 0.41,0.26 0.453,0.151 0.496,0.042 0.28,0 0,0 M 6.436,3.728 C 6.326,3.749 5.72,3.402 5.72,3.402 c 0,0 0.564,0.65 0.433,0.65 -0.13,0 -0.866,-0.346 -0.866,-0.346 0,0 0.455,0.564 0.303,0.498 C 5.437,4.139 4.614,3.771 3.986,3.508 4.074,3.657 4.052,3.879 3.986,3.879 3.922,3.879 3.553,3.641 2.989,3.511 2.425,3.381 1.581,2.904 1.212,2.969 c -0.368,0.065 -1.106,0 -1.106,0 0,0 -0.215,0.325 -0.043,0.412 0.172,0.087 0.304,-0.13 0.304,-0.13 0,0 0.304,0.13 0.304,0.314 0,0.184 -0.521,0.206 -0.521,0.206 0,0 -0.217,0.281 -0.563,0.281 -0.91,0 -0.976,-0.975 -0.976,-0.975 0,0 -0.369,0.13 -0.715,0.217 -0.346,0.087 -0.954,0.043 -1.56,0.412 -0.607,0.369 -0.997,0.498 -0.261,-0.282 -1.084,0.368 -1.646,1.105 -1.799,0.785 -0.152,-0.32 0.412,-0.698 0.412,-0.698 0,0 -0.303,0.086 -0.563,0.325 -0.26,0.239 -0.629,0.39 -0.281,-0.13 -0.455,0.13 -0.13,-0.347 -0.13,-0.347 0,0 -0.369,-0.108 0,-0.368 0.368,-0.261 1.04,-0.369 1.04,-0.369 0,0 -0.304,-0.216 -0.109,-0.303 0.195,-0.087 0.52,-0.022 0.52,-0.022 0,0 -0.26,-0.216 0,-0.303 0.26,-0.087 0.585,0 0.585,0 0,0 -0.108,-0.217 0.151,-0.315 0.261,-0.098 0.673,0.119 0.673,0.119 0,0 -0.195,-0.129 0,-0.238 0.196,-0.108 0.498,0.119 0.498,0.119 0,0 -0.173,-0.292 0,-0.336 0.173,-0.043 0.455,0.174 0.455,0.174 0,0 -0.173,-0.282 0,-0.304 0.173,-0.022 0.564,0.195 0.564,0.195 0,0 -0.239,-0.303 0,-0.303 0.239,0 0.52,0.151 0.52,0.151 0,0 -0.065,-0.238 0.13,-0.324 0.195,-0.087 0.477,0.151 0.477,0.151 0,0 0.065,-0.455 0.022,-0.715 -0.043,-0.26 0.281,-0.065 0.281,-0.065 0,0 -0.044,-0.39 -0.303,-0.368 -0.26,0.021 -0.521,-0.325 -0.433,-0.412 0.087,-0.087 0.433,0.065 0.433,0.065 0,0 -0.022,-0.477 0.108,-0.437 0.13,0.04 0.347,0.307 0.347,0.307 0,0 0.13,-0.347 0.218,-0.304 0.086,0.044 0.129,0.239 0.129,0.347 0,0.108 0.238,0.152 0.238,0.152 0,0 0.065,-0.433 0.152,-0.349 0.088,0.084 0.108,0.371 0.238,0.457 0.13,0.086 0.087,-0.498 0.217,-0.455 0.131,0.043 0.066,0.434 0.022,0.564 -0.043,0.13 0.26,-0.109 0.239,0 -0.022,0.109 -0.261,0.325 -0.261,0.325 0,0 0.303,-0.109 0.217,0 -0.086,0.109 -0.13,0.39 0,0.328 0.13,-0.061 0.239,0.192 0.239,0.192 0,0 0.346,-0.26 0.563,-0.173 0.216,0.085 -0.282,0.39 -0.282,0.39 0,0 0.759,-0.261 0.926,-0.217 0.168,0.044 -0.255,0.325 -0.255,0.325 0,0 0.478,-0.108 0.565,0 0.086,0.109 -0.31,0.195 -0.31,0.195 0,0 0.526,-0.087 0.591,0 0.065,0.087 -0.151,0.195 -0.151,0.195 0,0 0.866,0.022 1.04,0.325 C 4.875,1.734 5.828,2.427 5.915,2.579 6.001,2.73 5.764,2.73 5.764,2.73 c 0,0 0.52,0.412 0.455,0.477 C 6.153,3.272 5.872,3.121 5.872,3.121 c 0,0 0.672,0.585 0.564,0.607"/></g></g></g></g></svg>
