<svg xmlns="http://www.w3.org/2000/svg" viewBox="0 0 1000 1000">
  <defs/>
  <path fill="#000" d="M8,195.25 C178.83,110.03 349.03,140.83 521.26,167.28 C676.47,191.12 833.42,211.85 992,132.75 L992,804.75 C821.17,889.97 650.97,859.17 478.74,832.72 C323.53,808.88 166.58,788.15 8,867.25 L8,195.25"/>
  <path fill="#fcdc04" d="M8,307.25 C178.83,222.03 349.03,252.83 521.26,279.28 C676.47,303.12 833.42,323.85 992,244.75 L992,468.75 C821.17,553.97 650.97,523.17 478.74,496.72 C323.53,472.88 166.58,452.15 8,531.25 L8,307.25"/>
  <path fill="#d90000" d="M8,419.25 C178.83,334.03 349.03,364.83 521.26,391.28 C676.47,415.12 833.42,435.85 992,356.75 L992,468.75 C821.17,553.97 650.97,523.17 478.74,496.72 C323.53,472.88 166.58,452.15 8,531.25 L8,419.25"/>
  <path fill="#fcdc04" d="M8,643.25 C178.83,558.03 349.03,588.83 521.26,615.28 C676.47,639.12 833.42,659.85 992,580.75 L992,804.75 C821.17,889.97 650.97,859.17 478.74,832.72 C323.53,808.88 166.58,788.15 8,867.25 L8,643.25"/>
  <path fill="#d90000" d="M8,755.25 C178.83,670.03 349.03,700.83 521.26,727.28 C676.47,751.12 833.42,771.85 992,692.75 L992,804.75 C821.17,889.97 650.97,859.17 478.74,832.72 C323.53,808.88 166.58,788.15 8,867.25 L8,755.25"/>
  <path fill="#fff" d="M602.23,514.86 C601.94,573.15 556.7,613.21 500,604.72 C443.34,595.66 398.05,542.95 397.77,485.14 C398.06,426.85 443.3,386.79 500,395.28 C556.66,404.34 601.95,457.05 602.23,514.86"/>
  <path fill="#d90000" d="M481.98,417.01 L475.35,403.48 C478.1,401.26 482.06,400 489.08,400.95 L488.38,414.54 L481.98,417.01"/>
  <path fill="#000" d="M481.5,417.21 L474.68,403.28 L474.96,403.03 C478.29,400.34 482.64,399.5 489.08,400.39 L489.65,400.48 L489.28,407.85 L488.91,414.97 L481.76,417.73 L481.5,417.21 M482.2,416.29 L487.85,414.12 L488.19,407.63 L488.5,401.43 C482.85,400.75 479.04,401.46 476.03,403.7 L482.2,416.29"/>
  <path fill="#fcdc04" d="M488.38,414.66 L489.31,400.99 C489.62,401.02 502.6,402.41 510.48,412.6 C508.17,415.88 505.6,419.01 503.15,422.19 L488.38,414.66"/>
  <path fill="#000" d="M487.83,414.54 L488.8,400.38 L489.28,400.42 C491.63,400.68 494.23,401.32 497.22,402.39 C503.18,404.7 507.5,407.83 510.83,412.22 C510.86,412.25 510.89,412.3 510.92,412.34 C511.07,412.6 511.07,412.78 510.93,412.99 L507.27,417.79 L503.36,422.89 L487.8,414.96 L487.83,414.54 M509.79,412.53 C506.63,408.51 502.58,405.62 496.99,403.45 C494.31,402.49 491.96,401.89 489.82,401.6 L488.95,414.36 L502.94,421.49 L506.38,417.01 L509.79,412.53"/>
  <path fill="#d90000" d="M503.38,422.11 L510.13,412.43 C514.67,418.12 516.43,421.69 517.22,427.11 C517.19,427.12 506.64,428.08 506.52,428.08 L503.38,422.11"/>
  <path fill="#000" d="M502.92,421.73 L510.05,411.51 L510.53,412.1 C514.69,417.37 516.98,422.13 517.75,427.02 C517.79,427.14 517.78,427.25 517.74,427.37 C517.71,427.46 517.66,427.53 517.58,427.59 C517.54,427.62 517.49,427.64 517.44,427.66 C517.41,427.67 517.36,427.69 517.3,427.7 C517.22,427.71 517.1,427.73 516.95,427.75 L515.74,427.9 L512.04,428.25 L508.33,428.56 L507.1,428.64 C506.94,428.65 506.82,428.65 506.73,428.65 C506.68,428.65 506.63,428.65 506.59,428.65 C506.55,428.64 506.51,428.64 506.48,428.63 C506.13,428.52 506,428.35 505.98,427.99 L505.91,427.99 L505.58,427.32 L504.53,425.31 L503,422.44 L502.69,422.08 L502.92,421.73 M504.03,422.21 L505.47,424.89 L506.81,427.51 L506.88,427.51 L508.09,427.43 L511.79,427.12 L515.47,426.77 L516.62,426.63 C515.85,422.3 513.82,418.05 510.21,413.35 L504.03,422.21 M506.89,427.69 C507.01,427.95 507.07,428.11 507.07,428.16 C507.06,427.95 507.01,427.81 506.89,427.69 M516.67,427.03 C516.67,427.08 516.68,427.14 516.7,427.19 L516.68,427.1 L516.67,427.03"/>
  <path d="M485.35,596.38 C485.57,596.16 497.82,583.81 522.69,590.47 C518.42,583.83 507.39,582.61 506.99,582.57 C506.91,581.92 503.57,553.87 506.18,552.06 C509.31,551.41 521.19,554.47 521.41,554.53 C523.26,554.35 525.52,551.08 523.62,547.48 C521.16,543.77 515.33,532.93 517.57,530.58 C520.69,529.32 534.38,534.25 534.79,534.41 L493.73,474.23 C493.65,473.83 489.82,453.83 497.92,444.85 C507.95,437.41 506.97,428.79 506.64,428.45 C504.82,418.62 491.71,410.16 481.87,417.11 C476.6,423.54 479.82,428.67 480,428.98 C479.47,429.05 466.1,430.92 464.77,433.33 C465.14,435.77 480.56,435.39 481.28,435.37 L479.66,447.16 C479.28,447.45 446.9,472.66 471.86,503.75 C472.08,503.61 472.66,502.71 472.68,502.68 C472.8,502.86 481.64,515.02 491.05,519.33 C499.91,529.97 499.09,528.45 499.08,528.44 C499.11,528.72 500.5,543.02 499.2,545.97 C496.7,544.97 474.68,540.83 471.05,541.4 C467.69,541.8 456.83,539.58 459.3,559.4 L463.49,550.14 C463.48,550.44 463.37,556.72 465.93,560.04 C465.72,552.47 468.51,548.2 468.61,548.06 C468.63,548.38 469.44,555.79 470.93,557.7 C472.88,558.47 472.48,545.59 482.33,547.54 C492.02,550.15 498.95,550.94 498.96,550.94 C498.99,551.13 501.92,579.22 501.17,581.9 C493.71,579.2 478.17,579.03 476.52,583.1 C486.3,584.11 490.78,585.89 490.82,585.9 C490.41,586.22 483.52,591.48 485.35,596.38"/>
  <path fill="#000" d="M485.77,596.81 L485.27,597.31 L484.89,596.59 C483.85,594.27 484.35,592.15 486.73,589.03 C487.66,587.91 488.64,586.93 489.68,586.04 C486.66,585.03 482.34,584.23 476.55,583.67 L475.8,583.6 L475.98,582.89 C476.81,580.67 479.86,579.61 486.53,579.35 C492.36,579.26 496.99,579.87 500.78,581.18 C501.15,578.63 500.44,568.79 498.48,551.45 C493.9,550.9 488.51,549.79 482.27,548.08 C477.98,547.13 475.25,549.35 472.94,555.66 C472.58,556.7 472.32,557.36 472.16,557.68 C471.98,557.98 471.82,558.17 471.62,558.28 C471.27,558.45 470.99,558.4 470.63,558.12 C469.5,556.97 468.73,554.52 468.21,549.84 C466.85,552.69 466.29,555.89 466.48,560.09 L466.56,561.45 L465.57,560.41 C464,558.59 463.18,556.3 462.93,552.78 L459.05,561.36 L458.76,559.4 C457.7,551.5 458.58,546.6 461.52,543.52 C463.34,541.95 465.72,541.14 469.5,540.93 C470.19,540.9 470.64,540.87 470.87,540.84 C472.56,540.56 477.34,541.01 485.57,542.43 C492.69,543.69 497.1,544.66 498.9,545.27 C499.63,543.19 499.6,537.89 498.58,528.79 C498.43,528.66 498.24,528.48 498.02,528.25 C496.83,526.98 494.41,524.17 490.77,519.79 C486.78,517.99 482.62,514.79 477.97,509.88 C475.92,507.67 474.19,505.6 472.75,503.66 C472.48,504.02 472.28,504.21 472.11,504.29 L471.75,504.42 L471.47,504.08 C460.7,490.84 458.85,477.84 465.71,463.63 C469.22,456.72 473.61,451.23 479.14,446.8 L480.64,435.96 C478.03,436 475.44,435.97 472.86,435.86 C470.38,435.73 468.46,435.53 467.08,435.27 C466.21,435.08 465.57,434.87 465.11,434.63 C464.37,434.18 464.13,433.77 464.23,433.12 C464.94,431.26 469.43,429.8 479.15,428.51 C478.72,427.57 478.45,426.54 478.3,425.3 C478.1,422.04 479.01,419.51 481.45,416.69 L481.47,416.66 L481.5,416.64 C486.39,413.1 491.26,412.89 497.45,415.96 C503.18,419.12 506.14,422.89 507.15,428.26 C507.18,428.31 507.2,428.36 507.22,428.42 C507.26,428.53 507.29,428.67 507.32,428.84 C507.37,429.19 507.4,429.6 507.39,430.09 C507.36,431.42 507.14,432.77 506.73,434.24 C505.3,438.69 502.65,442.18 498.3,445.32 C494.94,448.94 493.32,454.45 493.23,462.81 C493.26,466.92 493.59,470.64 494.24,474.07 L536.16,535.5 L534.67,534.93 C524.96,531.28 519.76,530.15 517.91,531.07 C517.07,531.91 517.41,533.91 519.26,538.32 C520.82,541.83 522.4,544.75 524.05,547.2 C525.17,548.98 525.29,550.52 524.46,552.59 C523.54,554.49 522.69,555.18 521.41,555.09 L521.38,555.08 L521.35,555.07 C513.12,552.81 508.37,552.09 506.41,552.6 C504.8,553.47 505.08,562.75 507.47,582.06 C509.37,582.3 511.37,582.75 513.54,583.44 C518.42,585.14 521.33,587.23 523.16,590.25 L523.76,591.33 L522.62,591.01 C512.33,588.18 503.4,588.29 495.03,591.32 C490.88,592.94 487.93,594.71 485.77,596.81 M499.64,528.64 C500.78,538.74 500.71,544.34 499.67,546.33 L499.45,546.68 L499.03,546.48 C497.74,545.93 493.31,544.92 485.55,543.54 C477.43,542.14 472.78,541.69 471.24,541.95 L471.23,541.95 L471.21,541.96 C470.94,542 470.44,542.03 469.7,542.06 C466.17,542.26 463.96,542.99 462.32,544.4 C459.88,546.99 459.01,550.94 459.58,557.36 L462.99,549.84 L464.03,550.25 C463.91,553.86 464.34,556.37 465.33,558.35 C465.37,553.9 466.26,550.59 468.15,547.68 L469.03,546.41 L469.15,548.1 C469.59,553.51 470.28,556.24 471.24,557.28 L471.19,557.01 C471.32,556.75 471.56,556.14 471.9,555.15 C474.41,548.29 477.51,545.88 482.4,546.99 C488.82,548.75 494.3,549.86 498.94,550.38 L499.45,550.43 L499.51,550.96 C501.68,570.15 502.31,580.37 501.68,582.19 L501.5,582.61 L501.05,582.43 C497.32,581.04 492.68,580.39 486.71,580.49 C481.42,580.68 478.66,581.37 477.4,582.63 C483.54,583.27 487.97,584.2 490.96,585.38 L491.96,585.8 L491.18,586.38 C489.9,587.37 488.73,588.5 487.61,589.84 C485.83,592.13 485.24,593.75 485.52,595.38 C487.74,593.44 490.63,591.77 494.52,590.25 C502.76,587.27 511.48,587.05 521.5,589.58 C519.73,587.44 517.24,585.87 513.35,584.52 C511.07,583.8 508.99,583.34 507.02,583.13 L506.51,583.08 L506.45,582.56 C503.94,562.36 503.82,552.56 505.94,551.52 C508.09,550.95 513.02,551.66 521.44,553.97 C522.2,553.99 522.76,553.44 523.45,552 C524.12,550.34 524.04,549.13 523.19,547.76 C521.5,545.24 519.87,542.24 518.27,538.65 C516.18,533.62 515.93,531.27 517.24,530.09 C519.26,529.05 524.27,529.98 533.42,533.32 L493.22,474.4 L493.2,474.27 C492.52,470.72 492.17,466.88 492.14,462.64 C492.22,453.98 493.95,448.23 497.51,444.42 L497.53,444.39 L497.57,444.37 C501.77,441.34 504.3,438.02 505.68,433.76 C506.07,432.39 506.27,431.14 506.3,429.91 C506.3,429.61 506.29,429.34 506.27,429.11 L506.2,429.12 L506.1,428.45 C505.2,423.44 502.47,419.93 497.08,416.95 C491.3,414.11 486.83,414.3 482.26,417.56 C480.05,420.14 479.21,422.43 479.39,425.34 C479.56,426.74 479.9,427.8 480.45,428.72 L480.91,429.45 L480.15,429.54 C470.39,430.79 465.91,432.06 465.3,433.53 C465.3,433.53 465.37,433.57 465.51,433.65 C465.86,433.83 466.38,434 467.13,434.16 C468.46,434.41 470.32,434.61 472.75,434.73 C475.54,434.85 478.35,434.88 481.19,434.81 L481.93,434.79 L480.17,447.51 L480.02,447.63 C474.52,451.99 470.18,457.41 466.7,464.26 C460.14,477.85 461.79,490.26 471.84,502.92 L472.2,502.34 L472.59,501.67 L473.1,502.4 C474.6,504.48 476.45,506.72 478.7,509.16 C483.28,513.99 487.33,517.09 491.19,518.81 L491.34,518.87 L491.45,519 C495.12,523.43 497.56,526.26 498.74,527.52 C498.94,527.72 499.09,527.87 499.19,527.96 L499.16,527.98 C498.92,527.91 498.77,527.96 498.63,528.15 C498.58,528.24 498.55,528.32 498.55,528.42 L499.55,528.23 C499.59,528.3 499.61,528.37 499.63,528.43 C499.65,528.51 499.65,528.58 499.64,528.64"/>
  <path fill="#9ca69c" d="M489.28,444.2 C488.96,444.51 465.57,467.46 475.51,490.33 C476.04,487.34 475.86,485.83 476.18,485.8 C475.85,485.65 478.79,488.47 478.91,488.17 C478.87,486.64 477.83,483.3 477.81,483.25 L481.09,484.6 L479.18,480.67 L483.82,481.94 C483.71,481.61 482.43,477.62 482.73,477.3 C483.27,477.4 486.55,478.17 486.55,478.17 C479.9,464.29 486.02,455.08 489.28,444.2"/>
  <path fill="#9ca69c" d="M488.87,443.76 L489.8,444.43 C489.37,445.9 488.64,448.07 487.6,450.94 C485.62,456.47 484.51,460.64 484.17,463.59 C483.78,468.54 484.68,473.1 487.02,477.97 L487.52,478.96 L486.5,478.72 L483.2,477.95 C483.2,477.95 483.2,477.96 483.2,477.97 C483.27,478.33 483.4,478.84 483.59,479.5 C483.82,480.27 484.06,481.04 484.33,481.82 L484.64,482.73 L481.47,481.86 L480.16,481.5 L480.61,482.44 L482.16,485.61 L479.29,484.44 L478.67,484.18 C479.2,485.95 479.45,487.24 479.46,488.17 C479.51,488.42 479.45,488.57 479.27,488.72 C479.09,488.84 478.92,488.84 478.67,488.73 C478.56,488.67 478.41,488.57 478.22,488.42 C477.94,488.2 477.57,487.87 477.1,487.44 L476.48,486.86 L476.47,487.04 C476.37,488.39 476.23,489.54 476.05,490.52 L475.75,492.06 L475.03,490.51 C470.68,480.74 471.61,470.47 477.99,458.49 C481.23,452.62 484.82,447.78 488.87,443.76 M476.01,486.3 C476.07,486.32 476.14,486.33 476.23,486.32 C476.33,486.31 476.42,486.29 476.49,486.26 C476.5,486.24 476.52,486.22 476.53,486.2 L476.54,486.21 L476.54,486.22 C476.65,486.11 476.69,485.97 476.65,485.74 C476.63,485.66 476.61,485.59 476.56,485.52 C476.55,485.49 476.54,485.48 476.53,485.46 C476.56,485.5 476.63,485.57 476.74,485.69 C477.02,485.96 477.36,486.28 477.75,486.65 L478.31,487.15 C478.16,486.22 477.84,484.97 477.3,483.37 L476.94,482.32 L479.56,483.39 L480.02,483.58 L479.65,482.82 L478.2,479.84 L481.6,480.77 L483,481.15 L482.55,479.67 C482.34,478.97 482.21,478.41 482.13,478.01 C482.08,477.73 482.06,477.52 482.07,477.35 C482.12,476.87 482.3,476.7 482.73,476.74 C483.04,476.79 484,477 485.59,477.38 C483.49,472.62 482.7,468.14 483.09,463.31 C483.44,460.27 484.56,456.02 486.57,450.41 L487.99,446.37 C484.68,449.99 481.7,454.2 478.96,459.15 C473.15,470.07 471.98,479.43 475.24,488.36 C475.3,487.87 475.34,487.35 475.38,486.8 C475.41,486.31 475.44,486 475.47,485.85 C475.49,485.72 475.52,485.62 475.56,485.53 C475.61,485.32 475.73,485.22 476,485.19 C476.15,485.19 476.29,485.24 476.46,485.36 L476.01,486.3"/>
  <path fill="#9ca69c" d="M497.68,422.06 C497.74,422.56 498.77,431.02 493.96,433.64 C492.9,434.14 490.34,434.66 490.47,436.67 C491.21,439.35 492.34,439.14 494.43,438.95 C499.85,438.33 505.45,428.81 497.68,422.06"/>
  <path fill="#9ca69c" d="M497.14,422.05 L496.98,420.86 L497.97,421.63 C501.92,424.94 502.97,428.27 501.55,433.05 C499.92,437.39 497.92,439.22 494.54,439.52 L494.28,439.54 C493.03,439.64 492.22,439.57 491.69,439.37 C490.8,438.92 490.29,438.16 489.94,436.73 C489.74,435.31 490.55,434.4 492.92,433.44 C493.31,433.29 493.55,433.19 493.64,433.13 L493.67,433.12 L493.7,433.1 C495.66,432.16 496.66,430.43 497.16,426.96 C497.34,425.23 497.33,423.62 497.14,422.05 M498.35,423.31 C498.42,424.59 498.39,425.89 498.24,427.26 C497.68,431.11 496.53,433.06 494.25,434.16 C494.1,434.24 493.82,434.35 493.42,434.51 C491.58,435.24 490.92,435.83 491,436.62 C491.24,437.6 491.53,438.09 491.98,438.34 C492.33,438.46 492.97,438.5 494.03,438.41 L494.3,438.39 L494.32,438.39 L494.33,438.39 C497.29,438.1 499.02,436.48 500.51,432.54 C501.63,428.69 501.02,426.09 498.35,423.31"/>
  <path fill="#fff" d="M488.85,428.83 C488.75,430.01 488.04,430.63 486.88,430.55 C485.74,430.28 485,429.41 484.91,428.23 C485.01,427.05 485.72,426.43 486.88,426.51 C488.02,426.79 488.76,427.65 488.85,428.83"/>
  <path fill="#d90000" d="M480.94,435.44 C479.32,436.66 473.32,441.93 479.54,446.07 C486.29,445.04 484.69,443.81 486.05,442.3 C485.74,439.1 482.88,437.74 480.94,435.44"/>
  <path fill="#000" d="M480.59,434.95 L481,434.67 L481.35,435.14 C481.71,435.6 482.36,436.25 483.34,437.11 C485.57,439.13 486.51,440.69 486.6,442.4 L486.6,442.62 L486.44,442.76 C486.21,442.97 486.02,443.28 485.82,443.73 C485.02,445.26 483.29,446.11 479.68,446.63 L479.51,446.65 L479.34,446.56 C477.6,445.54 476.7,444.5 476.25,443.06 C476,441.88 476.15,440.77 476.78,439.41 C477.74,437.54 478.93,436.15 480.59,434.95 M480.9,436.2 C479.56,437.25 478.57,438.46 477.77,440.03 C477.25,441.15 477.12,442.03 477.31,442.93 C477.62,443.94 478.28,444.7 479.57,445.48 C482.69,445.01 484.18,444.33 484.8,443.16 C485.01,442.67 485.24,442.3 485.5,442.01 C485.33,440.77 484.52,439.55 482.72,437.93 C481.93,437.25 481.33,436.67 480.9,436.2"/>
  <path fill="#9ca69c" d="M495.59,505.26 C495.19,506.94 493.96,512.03 495.82,516.97 C501.8,515.51 504.14,516.47 506.29,518.12 C501.52,513.43 499.7,511.48 495.59,505.26"/>
  <path fill="#9ca69c" d="M495.06,505.05 L495.32,503.91 L496.03,504.99 C498.92,509.35 502.42,513.56 506.63,517.73 L505.99,518.54 C503.48,516.72 500.57,516.39 496.03,517.52 L495.56,517.65 L495.33,517.14 C494.03,513.88 493.9,510.24 494.99,505.33 L495.06,505.05 M495.86,506.59 C495.09,510.58 495.19,513.58 496.1,516.29 C499.1,515.59 501.43,515.55 503.6,516.12 C500.66,512.98 498.1,509.83 495.86,506.59"/>
  <path fill="#fff" d="M505.59,533.86 L505.94,547.25 C506.07,547.3 510.36,548.58 512.57,548.28 C514.53,547.23 512.51,539.43 505.59,533.86"/>
  <path fill="#fff" d="M505.05,533.79 L505.02,532.78 L505.87,533.41 C509.12,535.96 511.33,538.85 512.94,542.65 C513.53,544.19 513.83,545.46 513.88,546.6 C513.86,547.96 513.55,548.57 512.77,548.83 C511.2,549.12 509.05,548.83 505.85,547.79 L505.41,547.64 L505.05,533.79 M506.17,534.96 L506.48,546.86 C509.24,547.73 511.08,547.97 512.37,547.73 C512.67,547.61 512.78,547.27 512.78,546.46 C512.74,545.47 512.47,544.33 511.94,542.94 C510.58,539.72 508.77,537.23 506.17,534.96"/>
  <path fill="#9ca69c" d="M538.51,540.57 C538.4,540.28 530.12,519.04 508.73,510.03 C487.41,500.89 490.14,479.07 491.87,477.4 C492.86,475.29 493.38,472.82 499.66,476.46 C505.88,480.45 534.23,499.22 538.28,500.74 C542.2,502.99 538.82,540.26 538.51,540.57"/>
  <path fill="#000" d="M538.01,540.71 C536.57,537.09 534.36,533.18 531.23,528.8 C524.81,520.13 517.46,514.21 508.61,510.56 C499.19,506.63 493.65,500.44 491.09,491.01 C490.33,487.79 490.05,484.76 490.21,481.66 C490.43,479.02 490.82,477.64 491.42,476.99 L491.59,476.63 C492.3,475.18 492.97,474.44 493.84,474.1 C495.33,473.76 497.11,474.29 499.89,475.99 L507.12,480.71 C525.95,493.07 536.34,499.46 538.37,500.2 C540.38,501.17 541.12,507.72 540.6,521.46 C540.41,525.93 540.12,530.41 539.74,534.89 L539.31,539.21 C539.25,539.73 539.19,540.13 539.15,540.4 C539.12,540.55 539.1,540.66 539.08,540.74 C539.06,540.81 539.03,540.87 539,540.92 C538.92,541.04 538.83,541.1 538.7,541.13 C538.43,541.17 538.25,541.09 538.07,540.84 L538.03,540.78 L538.01,540.71 M538.26,538.6 L538.65,534.62 C539.03,530.17 539.31,525.71 539.51,521.24 C540.01,508.17 539.55,502.03 538.18,501.28 C536.05,500.5 525.56,494.06 506.64,481.64 L499.43,476.93 C496.98,475.42 495.46,474.94 494.3,475.19 C493.69,475.43 493.17,476.03 492.59,477.24 L492.36,477.71 L492.31,477.82 L492.21,477.89 C491.8,478.28 491.5,479.45 491.3,481.91 C491.14,484.88 491.41,487.79 492.15,490.88 C494.59,499.86 499.87,505.75 508.86,509.51 C517.95,513.25 525.5,519.32 532.07,528.21 C534.75,531.96 536.78,535.39 538.26,538.6"/>
  <path fill="#d90000" d="M518.16,511.37 C518.4,511.87 546,532.84 538.04,546.81 C546.09,541.92 543.73,532.7 543.63,532.28 C543.78,532.72 550.15,550.71 533.97,557.64 C535.81,559.41 536.81,559.28 536.88,559.27 L534.09,561.7 C534.05,561.79 532.82,563.52 543.86,559.84 C540.87,562.03 540.62,563.55 540.6,563.64 C540.69,563.82 541.29,565.92 548.63,560.79 C545.97,563.4 544.24,565.4 543.16,566.87 C542.56,567.67 542.16,568.6 541.53,569.38 C557.49,569.83 591.09,523.73 530.72,498.52 C531.13,499.03 534.74,503.35 533.51,501.92 L518.16,511.37"/>
  <path fill="#000" d="M517.84,510.87 L532.69,501.73 L530.32,498.85 L529,497.24 L530.85,497.99 C545.11,503.9 554.81,511 560.67,519.8 C565.43,527.36 566.91,534.96 565.32,543.64 C563.8,550.88 560.6,556.99 555.42,562.57 C550.36,567.75 546.07,570.02 541.67,569.95 C541.61,569.96 541.54,569.95 541.47,569.93 C541.14,569.82 541,569.65 540.99,569.3 L540.99,568.79 L541.19,568.8 C542.04,567.33 543.2,565.74 544.73,563.96 C543.64,564.48 542.77,564.74 542.01,564.79 C540.92,564.79 540.39,564.5 540.09,563.75 L540.05,563.62 L540.06,563.49 C540.18,562.78 540.52,562.12 541.15,561.36 C538.09,562.3 536.06,562.74 534.91,562.77 C534.17,562.74 533.79,562.55 533.57,562.11 C533.46,561.82 533.47,561.6 533.62,561.34 L533.66,561.29 L535.63,559.57 C535.01,559.26 534.36,558.76 533.62,558.01 L533.01,557.38 L533.72,557.1 C540.46,554.33 543.76,549.79 544.41,542.46 C544.48,541.14 544.48,539.87 544.4,538.62 C543.63,542.74 541.83,545.33 538.35,547.33 L537.58,546.45 C542.27,538.62 536.38,527.95 519.08,512.91 L518.13,512.08 C518.01,511.97 517.92,511.89 517.86,511.82 C517.8,511.77 517.76,511.72 517.73,511.67 C517.68,511.59 517.64,511.52 517.62,511.44 C517.57,511.16 517.63,511 517.83,510.87 L517.84,510.87 M542.54,568.82 C546.35,568.48 550.12,566.29 554.59,561.72 C559.65,556.28 562.76,550.32 564.25,543.27 C565.77,534.9 564.35,527.6 559.79,520.33 C554.34,512.16 545.46,505.48 532.46,499.82 L533.73,501.38 C533.86,501.54 533.94,501.64 533.96,501.66 C533.97,501.68 533.98,501.7 533.99,501.72 C534.17,502.07 534.13,502.27 533.84,502.46 C533.78,502.49 533.73,502.51 533.68,502.52 L519.05,511.52 L519.7,512.08 C536.12,526.35 542.44,536.9 539.56,545.12 C541.76,543.21 542.9,541.03 543.39,537.77 C543.6,535.75 543.5,534.01 543.1,532.36 L544.14,532.16 C545.25,535.48 545.68,538.86 545.5,542.7 C544.85,550.18 541.59,554.88 534.96,557.87 C535.72,558.51 536.24,558.75 536.73,558.71 L537.27,559.72 L535.09,561.63 C536.58,561.48 539.38,560.75 543.62,559.3 L544.2,560.33 C542.39,561.6 541.5,562.59 541.18,563.6 C541.29,563.65 541.49,563.67 541.81,563.66 C543.24,563.5 545.25,562.51 548.27,560.31 L549.03,561.23 C546.05,564.12 543.94,566.62 542.54,568.82"/>
  <path fill="#fff" d="M519.44,506.44 C523.44,509.95 524.68,511.07 525.25,512.58 C521.59,511.27 518.42,510.93 518.39,510.93 C518.35,510.88 510.52,502.28 509.2,501.29 C508.17,500.88 502.19,496.33 502.1,496.26 C499.23,493.86 496.1,483.59 507.46,487.91 C518.98,495.28 520.59,496.02 520.6,496.02 L534.32,502.52 L542.23,512.77 C542.17,512.73 528.14,503.72 526.41,503.11 C530.17,507.07 532.43,511.58 532.46,511.65 C528,509.66 524.12,507.92 519.44,506.44"/>
  <path fill="#000" d="M521.7,507.77 C524.15,510.05 525.4,511.55 525.77,512.48 L526.07,513.47 L525.13,513.11 C522.75,512.22 520.56,511.7 518.43,511.49 L518.19,511.47 L518.01,511.28 C512.97,505.58 509.99,502.5 509.06,501.82 C508.13,501.45 505.77,499.85 501.83,496.71 C500.94,496.05 500.25,495.09 499.6,493.58 C498.99,492.01 498.78,490.69 498.92,489.36 C499.2,487.72 499.86,486.88 501.26,486.35 C502.87,485.95 504.78,486.24 507.6,487.4 L507.64,487.41 L507.69,487.44 C515.35,492.35 519.7,494.99 520.75,495.5 L520.75,495.51 L527.69,498.79 L534.63,502.08 L538.69,507.34 L542.64,512.46 L541.99,513.24 C535.63,509.06 531.19,506.25 528.67,504.79 C530.39,506.88 531.79,509.06 532.95,511.47 L533.53,512.71 L532.31,512.17 L531.42,511.77 C527.53,510.04 524.3,508.71 521.7,507.77 M519.12,506.85 L519.52,505.9 C522.39,506.81 526.32,508.35 531.35,510.57 C529.93,507.98 528.21,505.68 526.07,503.49 L524.74,502.17 L526.45,502.55 C527.58,502.9 532.02,505.49 539.94,510.65 L537.87,507.96 L534.02,502.96 L527.36,499.81 L520.45,496.53 L520.43,496.53 C519.31,495.98 514.92,493.31 507.27,488.41 C504.74,487.38 503.06,487.11 501.71,487.44 C500.7,487.82 500.21,488.45 500,489.68 C499.89,490.79 500.07,491.92 500.59,493.28 C501.13,494.54 501.68,495.31 502.35,495.8 L502.37,495.81 L502.4,495.83 C506.39,499.03 508.59,500.53 509.2,500.73 L509.31,500.75 L509.41,500.81 C510.37,501.46 513.42,504.56 518.59,510.39 C520.34,510.57 522.13,510.96 524.03,511.57 C523.21,510.6 521.77,509.19 519.67,507.33 L519.12,506.85"/>
  <path d="M464.65,434.02 C464.8,434.01 477.96,433 479.77,433.47 L464.65,434.02"/>
  <path fill="#fff" d="M464.52,433.46 C473.69,432.6 478.65,432.53 479.92,432.96 L479.62,433.99 C478.54,433.64 473.75,433.75 464.78,434.59 L464.52,433.46"/>
  <path fill="#1A1A1A" opacity="0.2" d="M8,195.25 C178.83,110.03 349.03,140.83 521.26,167.28 C676.47,191.12 833.42,211.85 992,132.75 L992,804.75 C821.17,889.97 650.97,859.17 478.74,832.72 C323.53,808.88 166.58,788.15 8,867.25 L8,195.25 M39.25,214.64 L39.25,819.14 C345.81,690.88 650.43,915.18 960.75,785.36 L960.75,180.86 C654.19,309.12 349.57,84.82 39.25,214.64"/>
</svg>
