<svg xmlns="http://www.w3.org/2000/svg" viewBox="0 0 1000 1000">
  <defs/>
  <path fill="#1eb53a" d="M8,195.25 C178.83,110.03 349.03,140.83 521.26,167.28 C676.47,191.12 833.42,211.85 992,132.75 L992,804.75 C821.17,889.97 650.97,859.17 478.74,832.72 C323.53,808.88 166.58,788.15 8,867.25 L8,195.25"/>
  <path fill="#0099b5" d="M8,195.25 C178.83,110.03 349.03,140.83 521.26,167.28 C676.47,191.12 833.42,211.85 992,132.75 L992,468.75 C821.17,553.97 650.97,523.17 478.74,496.72 C323.53,472.88 166.58,452.15 8,531.25 L8,195.25"/>
  <path fill="#ce1126" d="M8,410.29 C178.83,325.07 349.03,355.87 521.26,382.32 C676.47,406.16 833.42,426.89 992,347.79 L992,589.71 C821.17,674.93 650.97,644.13 478.74,617.68 C323.53,593.84 166.58,573.11 8,652.21 L8,410.29"/>
  <path fill="#fff" d="M8,423.73 C178.83,338.51 349.03,369.31 521.26,395.76 C676.47,419.6 833.42,440.33 992,361.23 L992,576.27 C821.17,661.49 650.97,630.69 478.74,604.24 C323.53,580.4 166.58,559.67 8,638.77 L8,423.73"/>
  <path fill="#fff" d="M204.8,249.02 C204.56,293.87 178.52,331.06 145.76,337.41 C112.96,343.17 86.96,315.9 86.72,271.2 C86.96,226.35 113.01,182.53 145.76,176.13 C178.57,170.42 204.56,204.31 204.8,249.02"/>
  <path fill="#0099b5" d="M224.48,247.73 C224.24,292.57 198.2,328.99 165.44,334.14 C132.64,338.7 106.64,310.29 106.4,265.58 C106.64,220.73 132.69,178.06 165.44,172.86 C198.25,168.36 224.24,203.01 224.48,247.73"/>
  <path id="o" fill="#fff" d="M275.65,295.36 L272,310.63 L277.61,313.22 L275.65,295.36"/>
  <path fill="#fff" d="M275.65,295.36 L279.3,310.77 L273.68,313.15 L275.65,295.36"/>
  <path fill="#fff" d="M286.88,306.78 L275.07,306.49 L275.07,314.55 L286.88,306.78"/>
  <path fill="#fff" d="M286.88,306.78 L277.32,316.01 L273.86,309.43 L286.88,306.78"/>
  <path fill="#fff" d="M264.42,306.37 L273.97,315.95 L277.44,309.49 L264.42,306.37"/>
  <path fill="#fff" d="M264.42,306.37 L276.23,306.51 L276.23,314.57 L264.42,306.37"/>
  <path fill="#fff" d="M282.59,324.69 L278.94,309.26 L273.32,311.64 L282.59,324.69"/>
  <path fill="#fff" d="M282.59,324.69 L273.04,315.01 L276.51,308.54 L282.59,324.69"/>
  <path fill="#fff" d="M268.71,324.43 L278.26,315.1 L274.79,308.51 L268.71,324.43"/>
  <path fill="#fff" d="M268.71,324.43 L272.36,309.14 L277.97,311.73 L268.71,324.43"/>
  <path fill="#fff" d="M275.65,230.84 L272,246.12 L277.61,248.71 L275.65,230.84"/>
  <path fill="#fff" d="M275.65,230.84 L279.3,246.26 L273.68,248.64 L275.65,230.84"/>
  <path fill="#fff" d="M286.88,242.27 L275.07,241.98 L275.07,250.04 L286.88,242.27"/>
  <path fill="#fff" d="M286.88,242.27 L277.32,251.5 L273.86,244.91 L286.88,242.27"/>
  <path fill="#fff" d="M264.42,241.86 L273.97,251.44 L277.44,244.98 L264.42,241.86"/>
  <path fill="#fff" d="M264.42,241.86 L276.23,242 L276.23,250.06 L264.42,241.86"/>
  <path fill="#fff" d="M282.59,260.18 L278.94,244.75 L273.32,247.13 L282.59,260.18"/>
  <path fill="#fff" d="M282.59,260.18 L273.04,250.49 L276.51,244.03 L282.59,260.18"/>
  <path fill="#fff" d="M268.71,259.92 L278.26,250.59 L274.79,244 L268.71,259.92"/>
  <path fill="#fff" d="M268.71,259.92 L272.36,244.63 L277.97,247.22 L268.71,259.92"/>
  <path fill="#fff" d="M275.65,166.33 L272,181.61 L277.61,184.2 L275.65,166.33"/>
  <path fill="#fff" d="M275.65,166.33 L279.3,181.74 L273.68,184.13 L275.65,166.33"/>
  <path fill="#fff" d="M286.88,177.76 L275.07,177.47 L275.07,185.53 L286.88,177.76"/>
  <path fill="#fff" d="M286.88,177.76 L277.32,186.99 L273.86,180.4 L286.88,177.76"/>
  <path fill="#fff" d="M264.42,177.34 L273.97,186.93 L277.44,180.47 L264.42,177.34"/>
  <path fill="#fff" d="M264.42,177.34 L276.23,177.49 L276.23,185.55 L264.42,177.34"/>
  <path fill="#fff" d="M282.59,195.66 L278.94,180.24 L273.32,182.62 L282.59,195.66"/>
  <path fill="#fff" d="M282.59,195.66 L273.04,185.98 L276.51,179.52 L282.59,195.66"/>
  <path fill="#fff" d="M268.71,195.41 L278.26,186.08 L274.79,179.49 L268.71,195.41"/>
  <path fill="#fff" d="M268.71,195.41 L272.36,180.11 L277.97,182.71 L268.71,195.41"/>
  <path fill="#fff" d="M322.88,297.49 L319.23,312.58 L324.85,315.46 L322.88,297.49"/>
  <path fill="#fff" d="M322.88,297.49 L326.53,313.09 L320.91,315.19 L322.88,297.49"/>
  <path fill="#fff" d="M334.11,309.48 L322.3,308.6 L322.3,316.66 L334.11,309.48"/>
  <path fill="#fff" d="M334.11,309.48 L324.56,318.24 L321.09,311.47 L334.11,309.48"/>
  <path fill="#fff" d="M311.65,307.91 L321.2,318 L324.67,311.72 L311.65,307.91"/>
  <path fill="#fff" d="M311.65,307.91 L323.46,308.68 L323.46,316.74 L311.65,307.91"/>
  <path fill="#fff" d="M329.82,327.18 L326.17,311.57 L320.56,313.66 L329.82,327.18"/>
  <path fill="#fff" d="M329.82,327.18 L320.27,317.01 L323.74,310.73 L329.82,327.18"/>
  <path fill="#fff" d="M315.94,326.21 L325.49,317.37 L322.02,310.61 L315.94,326.21"/>
  <path fill="#fff" d="M315.94,326.21 L319.59,311.11 L325.2,313.99 L315.94,326.21"/>
  <path fill="#fff" d="M322.88,232.98 L319.23,248.07 L324.85,250.95 L322.88,232.98"/>
  <path fill="#fff" d="M322.88,232.98 L326.53,248.58 L320.91,250.68 L322.88,232.98"/>
  <path fill="#fff" d="M334.11,244.97 L322.3,244.09 L322.3,252.15 L334.11,244.97"/>
  <path fill="#fff" d="M334.11,244.97 L324.56,253.73 L321.09,246.96 L334.11,244.97"/>
  <path fill="#fff" d="M311.65,243.4 L321.2,253.49 L324.67,247.21 L311.65,243.4"/>
  <path fill="#fff" d="M311.65,243.4 L323.46,244.17 L323.46,252.23 L311.65,243.4"/>
  <path fill="#fff" d="M329.82,262.67 L326.17,247.06 L320.56,249.15 L329.82,262.67"/>
  <path fill="#fff" d="M329.82,262.67 L320.27,252.5 L323.74,246.21 L329.82,262.67"/>
  <path fill="#fff" d="M315.94,261.7 L325.49,252.86 L322.02,246.09 L315.94,261.7"/>
  <path fill="#fff" d="M315.94,261.7 L319.59,246.59 L325.2,249.48 L315.94,261.7"/>
  <path fill="#fff" d="M322.88,168.47 L319.23,183.56 L324.85,186.44 L322.88,168.47"/>
  <path fill="#fff" d="M322.88,168.47 L326.53,184.07 L320.91,186.16 L322.88,168.47"/>
  <path fill="#fff" d="M334.11,180.46 L322.3,179.57 L322.3,187.64 L334.11,180.46"/>
  <path fill="#fff" d="M334.11,180.46 L324.56,189.21 L321.09,182.45 L334.11,180.46"/>
  <path fill="#fff" d="M311.65,178.89 L321.2,188.98 L324.67,182.7 L311.65,178.89"/>
  <path fill="#fff" d="M311.65,178.89 L323.46,179.66 L323.46,187.72 L311.65,178.89"/>
  <path fill="#fff" d="M329.82,198.15 L326.17,182.54 L320.56,184.64 L329.82,198.15"/>
  <path fill="#fff" d="M329.82,198.15 L320.27,187.99 L323.74,181.7 L329.82,198.15"/>
  <path fill="#fff" d="M315.94,197.18 L325.49,188.35 L322.02,181.58 L315.94,197.18"/>
  <path fill="#fff" d="M315.94,197.18 L319.59,182.08 L325.2,184.96 L315.94,197.18"/>
  <path fill="#fff" d="M370.11,301.77 L366.46,316.72 L372.08,319.82 L370.11,301.77"/>
  <path fill="#fff" d="M370.11,301.77 L373.76,317.51 L368.15,319.39 L370.11,301.77"/>
  <path fill="#fff" d="M381.34,314.18 L369.53,312.85 L369.53,320.92 L381.34,314.18"/>
  <path fill="#fff" d="M381.34,314.18 L371.79,322.58 L368.32,315.68 L381.34,314.18"/>
  <path fill="#fff" d="M358.88,311.74 L368.44,322.21 L371.9,316.07 L358.88,311.74"/>
  <path fill="#fff" d="M358.88,311.74 L370.69,312.98 L370.69,321.04 L358.88,311.74"/>
  <path fill="#fff" d="M377.05,331.72 L373.4,315.97 L367.79,317.85 L377.05,331.72"/>
  <path fill="#fff" d="M377.05,331.72 L367.5,321.18 L370.97,315.04 L377.05,331.72"/>
  <path fill="#fff" d="M363.17,330.21 L372.72,321.75 L369.25,314.85 L363.17,330.21"/>
  <path fill="#fff" d="M363.17,330.21 L366.82,315.25 L372.44,318.36 L363.17,330.21"/>
  <path fill="#fff" d="M370.11,237.26 L366.46,252.2 L372.08,255.3 L370.11,237.26"/>
  <path fill="#fff" d="M370.11,237.26 L373.76,253 L368.15,254.88 L370.11,237.26"/>
  <path fill="#fff" d="M381.34,249.67 L369.53,248.34 L369.53,256.4 L381.34,249.67"/>
  <path fill="#fff" d="M381.34,249.67 L371.79,258.07 L368.32,251.17 L381.34,249.67"/>
  <path fill="#fff" d="M358.88,247.22 L368.44,257.7 L371.9,251.56 L358.88,247.22"/>
  <path fill="#fff" d="M358.88,247.22 L370.69,248.47 L370.69,256.53 L358.88,247.22"/>
  <path fill="#fff" d="M377.05,267.21 L373.4,251.46 L367.79,253.34 L377.05,267.21"/>
  <path fill="#fff" d="M377.05,267.21 L367.5,256.67 L370.97,250.52 L377.05,267.21"/>
  <path fill="#fff" d="M363.17,265.69 L372.72,257.24 L369.25,250.34 L363.17,265.69"/>
  <path fill="#fff" d="M363.17,265.69 L366.82,250.74 L372.44,253.84 L363.17,265.69"/>
  <path fill="#fff" d="M370.11,172.75 L366.46,187.69 L372.08,190.79 L370.11,172.75"/>
  <path fill="#fff" d="M370.11,172.75 L373.76,188.49 L368.15,190.36 L370.11,172.75"/>
  <path fill="#fff" d="M381.34,185.16 L369.53,183.83 L369.53,191.89 L381.34,185.16"/>
  <path fill="#fff" d="M381.34,185.16 L371.79,193.56 L368.32,186.65 L381.34,185.16"/>
  <path fill="#fff" d="M358.88,182.71 L368.44,193.19 L371.9,187.05 L358.88,182.71"/>
  <path fill="#fff" d="M358.88,182.71 L370.69,183.95 L370.69,192.02 L358.88,182.71"/>
  <path fill="#fff" d="M377.05,202.7 L373.4,186.95 L367.79,188.82 L377.05,202.7"/>
  <path fill="#fff" d="M377.05,202.7 L367.5,192.16 L370.97,186.01 L377.05,202.7"/>
  <path fill="#fff" d="M363.17,201.18 L372.72,192.73 L369.25,185.82 L363.17,201.18"/>
  <path fill="#fff" d="M363.17,201.18 L366.82,186.23 L372.44,189.33 L363.17,201.18"/>
  <path fill="#fff" d="M181.18,299.77 L177.54,315.56 L183.15,317.37 L181.18,299.77"/>
  <path fill="#fff" d="M181.18,299.77 L184.83,314.68 L179.22,317.84 L181.18,299.77"/>
  <path fill="#fff" d="M192.41,309.68 L180.61,310.99 L180.61,319.05 L192.41,309.68"/>
  <path fill="#fff" d="M192.41,309.68 L182.86,320.2 L179.39,314.09 L192.41,309.68"/>
  <path fill="#fff" d="M169.95,312.38 L179.51,320.6 L182.98,313.66 L169.95,312.38"/>
  <path fill="#fff" d="M169.95,312.38 L181.76,310.85 L181.76,318.91 L169.95,312.38"/>
  <path fill="#fff" d="M188.13,328.16 L184.48,313.23 L178.86,316.39 L188.13,328.16"/>
  <path fill="#fff" d="M188.13,328.16 L178.57,319.79 L182.04,312.84 L188.13,328.16"/>
  <path fill="#fff" d="M174.24,329.83 L183.8,319.16 L180.33,313.05 L174.24,329.83"/>
  <path fill="#fff" d="M174.24,329.83 L177.89,314.02 L183.51,315.83 L174.24,329.83"/>
  <path fill="#fff" d="M228.42,295.93 L224.77,311.44 L230.38,313.67 L228.42,295.93"/>
  <path fill="#fff" d="M228.42,295.93 L232.06,311.11 L226.45,313.85 L228.42,295.93"/>
  <path fill="#fff" d="M239.65,306.66 L227.84,307.1 L227.84,315.16 L239.65,306.66"/>
  <path fill="#fff" d="M239.65,306.66 L230.09,316.48 L226.62,310.11 L239.65,306.66"/>
  <path fill="#fff" d="M217.19,307.67 L226.74,316.63 L230.21,309.95 L217.19,307.67"/>
  <path fill="#fff" d="M217.19,307.67 L228.99,307.04 L228.99,315.11 L217.19,307.67"/>
  <path fill="#fff" d="M235.36,324.83 L231.71,309.62 L226.09,312.36 L235.36,324.83"/>
  <path fill="#fff" d="M235.36,324.83 L225.8,315.74 L229.27,309.06 L235.36,324.83"/>
  <path fill="#fff" d="M221.47,325.45 L231.03,315.51 L227.56,309.14 L221.47,325.45"/>
  <path fill="#fff" d="M221.47,325.45 L225.12,309.92 L230.74,312.15 L221.47,325.45"/>
  <path fill="#fff" d="M228.42,231.41 L224.77,246.92 L230.38,249.16 L228.42,231.41"/>
  <path fill="#fff" d="M228.42,231.41 L232.06,246.6 L226.45,249.33 L228.42,231.41"/>
  <path fill="#fff" d="M239.65,242.15 L227.84,242.58 L227.84,250.65 L239.65,242.15"/>
  <path fill="#fff" d="M239.65,242.15 L230.09,251.97 L226.62,245.6 L239.65,242.15"/>
  <path fill="#fff" d="M217.19,243.15 L226.74,252.12 L230.21,245.44 L217.19,243.15"/>
  <path fill="#fff" d="M217.19,243.15 L228.99,242.53 L228.99,250.6 L217.19,243.15"/>
  <path fill="#fff" d="M235.36,260.31 L231.71,245.11 L226.09,247.85 L235.36,260.31"/>
  <path fill="#fff" d="M235.36,260.31 L225.8,251.23 L229.27,244.55 L235.36,260.31"/>
  <path fill="#fff" d="M221.47,260.94 L231.03,251 L227.56,244.62 L221.47,260.94"/>
  <path fill="#fff" d="M221.47,260.94 L225.12,245.41 L230.74,247.64 L221.47,260.94"/>
  <path fill="#1A1A1A" opacity="0.2" d="M8,195.25 C178.83,110.03 349.03,140.83 521.26,167.28 C676.47,191.12 833.42,211.85 992,132.75 L992,804.75 C821.17,889.97 650.97,859.17 478.74,832.72 C323.53,808.88 166.58,788.15 8,867.25 L8,195.25 M39.25,214.64 L39.25,819.14 C345.81,690.88 650.43,915.18 960.75,785.36 L960.75,180.86 C654.19,309.12 349.57,84.82 39.25,214.64"/>
</svg>
