<?xml version="1.0" encoding="UTF-8" standalone="no"?><svg xmlns:dc="http://purl.org/dc/elements/1.1/" xmlns:cc="http://creativecommons.org/ns#" xmlns:rdf="http://www.w3.org/1999/02/22-rdf-syntax-ns#" xmlns:svg="http://www.w3.org/2000/svg" xmlns="http://www.w3.org/2000/svg" viewBox="0 0 45 45" style="enable-background:new 0 0 45 45;" xml:space="preserve" version="1.1" id="svg2"><metadata id="metadata8"><rdf:RDF><cc:Work rdf:about=""><dc:format>image/svg+xml</dc:format><dc:type rdf:resource="http://purl.org/dc/dcmitype/StillImage"/></cc:Work></rdf:RDF></metadata><defs id="defs6"><clipPath id="clipPath16" clipPathUnits="userSpaceOnUse"><path id="path18" d="M 0,36 36,36 36,0 0,0 0,36 Z"/></clipPath><clipPath id="clipPath28" clipPathUnits="userSpaceOnUse"><path id="path30" d="M 4,31 C 1.791,31 0,29.209 0,27 L 0,27 0,9 C 0,6.791 1.791,5 4,5 l 0,0 28,0 c 2.209,0 4,1.791 4,4 l 0,0 0,18 c 0,2.209 -1.791,4 -4,4 l 0,0 -28,0 z"/></clipPath><clipPath id="clipPath38" clipPathUnits="userSpaceOnUse"><path id="path40" d="M 0,36 36,36 36,0 0,0 0,36 Z"/></clipPath></defs><g transform="matrix(1.25,0,0,-1.25,0,45)" id="g10"><g id="g12"><g clip-path="url(#clipPath16)" id="g14"><g transform="translate(36,9)" id="g20"><path id="path22" style="fill:#0f47af;fill-opacity:1;fill-rule:nonzero;stroke:none" d="m 0,0 c 0,-2.209 -1.791,-4 -4,-4 l -28,0 c -2.209,0 -4,1.791 -4,4 l 0,18 c 0,2.209 1.791,4 4,4 l 28,0 c 2.209,0 4,-1.791 4,-4 L 0,0 Z"/></g></g></g><g id="g24"><g clip-path="url(#clipPath28)" id="g26"><path id="path32" style="fill:#eeeeee;fill-opacity:1;fill-rule:nonzero;stroke:none" d="M 36,13 0,13 0,23 36,23 36,13 Z"/></g></g><g id="g34"><g clip-path="url(#clipPath38)" id="g36"><g transform="translate(17.4619,14.7031)" id="g42"><path id="path44" style="fill:#1f601a;fill-opacity:1;fill-rule:nonzero;stroke:none" d="m 0,0 c 0.246,0.764 -0.609,0.906 -0.609,0.906 0,0 0.062,-0.437 -0.453,-0.453 0.171,-0.344 0.015,-0.625 -0.204,-0.64 C -0.906,-0.516 -0.156,-0.484 0,0"/></g><g transform="translate(16.1919,15.166)" id="g46"><path id="path48" style="fill:#1f601a;fill-opacity:1;fill-rule:nonzero;stroke:none" d="m 0,0 c 0.473,0.578 -0.221,0.992 -0.221,0.992 0,0 -0.094,-0.4 -0.547,-0.239 C -0.735,0.398 -0.966,0.206 -1.161,0.267 -0.961,-0.141 -0.3,-0.368 0,0"/></g><g transform="translate(15.2969,15.9609)" id="g50"><path id="path52" style="fill:#1f601a;fill-opacity:1;fill-rule:nonzero;stroke:none" d="m 0,0 c 0.563,0.302 0.152,0.856 0.152,0.856 0,0 -0.207,-0.284 -0.511,-0.009 C -0.45,0.556 -0.695,0.48 -0.83,0.592 -0.805,0.204 -0.358,-0.191 0,0"/></g><g transform="translate(14.9512,16.9697)" id="g54"><path id="path56" style="fill:#1f601a;fill-opacity:1;fill-rule:nonzero;stroke:none" d="m 0,0 c 0.594,0.121 0.371,0.736 0.371,0.736 0,0 -0.266,-0.202 -0.467,0.13 C -0.258,0.627 -0.501,0.625 -0.593,0.762 -0.675,0.403 -0.377,-0.077 0,0"/></g><g transform="translate(14.8115,17.8354)" id="g58"><path id="path60" style="fill:#1f601a;fill-opacity:1;fill-rule:nonzero;stroke:none" d="m 0,0 c 0.545,0.004 0.455,0.586 0.455,0.586 0,0 -0.269,-0.133 -0.389,0.195 C -0.119,0.598 -0.333,0.639 -0.391,0.776 -0.526,0.473 -0.346,-0.002 0,0"/></g><g transform="translate(14.9399,18.6602)" id="g62"><path id="path64" style="fill:#1f601a;fill-opacity:1;fill-rule:nonzero;stroke:none" d="m 0,0 c 0.425,-0.146 0.492,0.395 0.492,0.395 0,0 -0.241,-0.043 -0.257,0.281 C 0.048,0.564 -0.109,0.659 -0.121,0.796 -0.298,0.565 -0.27,0.093 0,0"/></g><g transform="translate(15.2671,19.3428)" id="g66"><path id="path68" style="fill:#1f601a;fill-opacity:1;fill-rule:nonzero;stroke:none" d="m 0,0 c 0.212,-0.124 0.45,0.288 0.45,0.288 0,0 -0.184,0.066 -0.138,0.369 C 0.149,0.583 0.036,0.628 0.052,0.757 -0.126,0.57 -0.2,0.117 0,0"/></g><g transform="translate(18.3828,14.7031)" id="g70"><path id="path72" style="fill:#1f601a;fill-opacity:1;fill-rule:nonzero;stroke:none" d="m 0,0 c -0.246,0.764 0.609,0.906 0.609,0.906 0,0 -0.062,-0.437 0.453,-0.453 C 0.891,0.109 1.047,-0.172 1.266,-0.187 0.906,-0.516 0.156,-0.484 0,0"/></g><g transform="translate(19.6523,15.166)" id="g74"><path id="path76" style="fill:#1f601a;fill-opacity:1;fill-rule:nonzero;stroke:none" d="m 0,0 c -0.473,0.578 0.221,0.992 0.221,0.992 0,0 0.095,-0.4 0.547,-0.239 C 0.735,0.398 0.967,0.206 1.162,0.267 0.961,-0.141 0.301,-0.368 0,0"/></g><g transform="translate(20.5479,15.9609)" id="g78"><path id="path80" style="fill:#1f601a;fill-opacity:1;fill-rule:nonzero;stroke:none" d="m 0,0 c -0.563,0.302 -0.151,0.856 -0.151,0.856 0,0 0.207,-0.284 0.509,-0.009 C 0.45,0.556 0.695,0.48 0.829,0.592 0.805,0.204 0.358,-0.191 0,0"/></g><g transform="translate(20.8936,16.9697)" id="g82"><path id="path84" style="fill:#1f601a;fill-opacity:1;fill-rule:nonzero;stroke:none" d="m 0,0 c -0.594,0.121 -0.37,0.736 -0.37,0.736 0,0 0.265,-0.202 0.467,0.13 C 0.259,0.627 0.501,0.625 0.593,0.762 0.675,0.403 0.377,-0.077 0,0"/></g><g transform="translate(21.0332,17.8354)" id="g86"><path id="path88" style="fill:#1f601a;fill-opacity:1;fill-rule:nonzero;stroke:none" d="m 0,0 c -0.545,0.004 -0.455,0.586 -0.455,0.586 0,0 0.269,-0.133 0.39,0.195 C 0.119,0.598 0.334,0.639 0.391,0.776 0.525,0.473 0.346,-0.002 0,0"/></g><g transform="translate(20.9043,18.6602)" id="g90"><path id="path92" style="fill:#1f601a;fill-opacity:1;fill-rule:nonzero;stroke:none" d="m 0,0 c -0.425,-0.146 -0.492,0.395 -0.492,0.395 0,0 0.242,-0.043 0.258,0.281 C -0.047,0.564 0.109,0.659 0.122,0.796 0.299,0.565 0.271,0.093 0,0"/></g><g transform="translate(20.5781,19.3428)" id="g94"><path id="path96" style="fill:#1f601a;fill-opacity:1;fill-rule:nonzero;stroke:none" d="m 0,0 c -0.213,-0.124 -0.45,0.288 -0.45,0.288 0,0 0.184,0.066 0.138,0.369 0.163,-0.074 0.275,-0.029 0.259,0.1 C 0.125,0.57 0.199,0.117 0,0"/></g><g transform="translate(18.3062,14.6982)" id="g98"><path id="path100" style="fill:#06209f;fill-opacity:1;fill-rule:nonzero;stroke:none" d="m 0,0 c 0,-0.221 -0.179,-0.399 -0.4,-0.399 -0.221,0 -0.4,0.178 -0.4,0.399 0,0.222 0.179,0.4 0.4,0.4 C -0.179,0.4 0,0.222 0,0"/></g><g transform="translate(17.8213,18.2256)" id="g102"><path id="path104" style="fill:#06209f;fill-opacity:1;fill-rule:nonzero;stroke:none" d="m 0,0 -1.859,1.993 c 0,0 -0.313,-2.297 0.593,-2.906 C -0.359,-1.523 0,0 0,0"/></g><g transform="translate(16.8545,19.2612)" id="g106"><path id="path108" style="fill:#ffffff;fill-opacity:1;fill-rule:nonzero;stroke:none" d="m 0,0 -0.414,0.444 c 0,0 -0.213,-1.783 0.693,-2.393 C -0.158,-1.058 0,0 0,0"/></g><g transform="translate(17.8213,17.3984)" id="g110"><path id="path112" style="fill:#06209f;fill-opacity:1;fill-rule:nonzero;stroke:none" d="m 0,0 -2.549,1.445 c 0,0 -0.125,-1.484 0.321,-2.203 0.447,-0.719 2.085,-0.765 2.313,-0.062 C 0.312,-0.117 0,0 0,0"/></g><g transform="translate(16.1938,18.3213)" id="g114"><path id="path116" style="fill:#ffffff;fill-opacity:1;fill-rule:nonzero;stroke:none" d="m 0,0 -0.478,0.271 c 0,0 -0.284,-2.983 1.978,-2.298 C 0.003,-1.957 0,0 0,0"/></g><g transform="translate(17.9893,18.2256)" id="g118"><path id="path120" style="fill:#06209f;fill-opacity:1;fill-rule:nonzero;stroke:none" d="m 0,0 1.859,1.993 c 0,0 0.313,-2.297 -0.593,-2.906 C 0.359,-1.523 0,0 0,0"/></g><g transform="translate(18.9561,19.2612)" id="g122"><path id="path124" style="fill:#ffffff;fill-opacity:1;fill-rule:nonzero;stroke:none" d="m 0,0 0.414,0.444 c 0,0 0.213,-1.783 -0.693,-2.393 C 0.158,-1.058 0,0 0,0"/></g><g transform="translate(17.9893,17.3984)" id="g126"><path id="path128" style="fill:#06209f;fill-opacity:1;fill-rule:nonzero;stroke:none" d="m 0,0 2.549,1.445 c 0,0 0.125,-1.484 -0.322,-2.203 C 1.781,-1.477 0.143,-1.523 -0.085,-0.82 -0.312,-0.117 0,0 0,0"/></g><g transform="translate(19.6162,18.3213)" id="g130"><path id="path132" style="fill:#ffffff;fill-opacity:1;fill-rule:nonzero;stroke:none" d="m 0,0 0.479,0.271 c 0,0 0.283,-2.983 -1.979,-2.298 C -0.002,-1.957 0,0 0,0"/></g><g transform="translate(17.8213,20.7031)" id="g134"><path id="path136" style="fill:#ffcc01;fill-opacity:1;fill-rule:nonzero;stroke:none" d="m 0,0 -2.474,-4.266 2.474,0 2.475,0 L 0,0 Z"/></g><g transform="translate(15.6943,16.6377)" id="g138"><path id="path140" style="fill:#ffffff;fill-opacity:1;fill-rule:nonzero;stroke:none" d="M 0,0 2.127,3.667 4.254,0 0,0 Z"/></g><g transform="translate(16.3032,17.6875)" id="g142"><path id="path144" style="fill:#017e93;fill-opacity:1;fill-rule:nonzero;stroke:none" d="m 0,0 -0.609,-1.05 4.254,0 L 3.036,0 0,0 Z"/></g><g transform="translate(16.1025,17.1685)" id="g146"><path id="path148" style="fill:#ffcc01;fill-opacity:1;fill-rule:nonzero;stroke:none" d="m 0,0 c 0,0 0.687,0.972 0.953,0.972 0.266,0 0.391,-0.305 0.391,-0.305 0,0 0.104,0.164 0.247,0.164 0.143,0 0.213,-0.164 0.213,-0.164 0,0 0.102,0.161 0.165,0.131 0.062,-0.029 0.267,-0.279 0.267,-0.279 0,0 0.061,0.108 0.202,0.148 0.14,0.039 0.234,-0.148 0.234,-0.148 0,0 0.138,0.296 0.17,0.148 C 2.875,0.519 3.385,0 3.385,0 L 0,0 Z"/></g><g transform="translate(18.0713,18.7646)" id="g150"><path id="path152" style="fill:#e60000;fill-opacity:1;fill-rule:nonzero;stroke:none" d="m 0,0 c 0,-0.104 -0.085,-0.189 -0.189,-0.189 -0.104,0 -0.189,0.085 -0.189,0.189 0,0.104 0.085,0.188 0.189,0.188 C -0.085,0.188 0,0.104 0,0"/></g><g transform="translate(14.0024,19.7598)" id="g154"><path id="path156" style="fill:#ffcc01;fill-opacity:1;fill-rule:nonzero;stroke:none" d="M 0,0 C -0.255,-0.504 -0.413,-1.059 -0.459,-1.651 L 0.04,-1.664 c 0.044,0.519 0.184,1.007 0.41,1.45 L 0,0 Z"/></g><g transform="translate(18.7563,21.6182)" id="g158"><path id="path160" style="fill:#ffcc01;fill-opacity:1;fill-rule:nonzero;stroke:none" d="m 0,0 c 0.633,-0.133 1.199,-0.429 1.68,-0.826 l 0.345,0.362 C 1.478,-0.007 0.833,0.334 0.11,0.487 L 0,0 Z"/></g><g transform="translate(21.1934,19.9893)" id="g162"><path id="path164" style="fill:#ffcc01;fill-opacity:1;fill-rule:nonzero;stroke:none" d="m 0,0 c 0.434,-0.633 0.69,-1.398 0.69,-2.224 0,-0.15 -0.027,-0.293 -0.044,-0.439 l 0.491,-0.09 c 0.021,0.176 0.053,0.348 0.053,0.529 0,0.928 -0.286,1.787 -0.772,2.5 L 0,0 Z"/></g><g transform="translate(16.2231,14.2412)" id="g166"><path id="path168" style="fill:#ffcc01;fill-opacity:1;fill-rule:nonzero;stroke:none" d="M 0,0 C -1.184,0.58 -2.022,1.73 -2.171,3.098 L -2.665,3.043 c 0.168,-1.547 1.118,-2.846 2.459,-3.498 L 0,0 Z"/></g><g transform="translate(14.8867,20.2163)" id="g170"><path id="path172" style="fill:#ffcc01;fill-opacity:1;fill-rule:nonzero;stroke:none" d="M 0,0 C 0.722,0.899 1.817,1.487 3.06,1.487 3.085,1.487 3.109,1.48 3.136,1.479 3.146,1.656 3.157,1.82 3.167,1.976 3.13,1.977 3.096,1.987 3.06,1.987 1.647,1.987 0.403,1.315 -0.409,0.286 -0.284,0.198 -0.146,0.102 0,0"/></g><g transform="translate(21.6865,16.5947)" id="g174"><path id="path176" style="fill:#ffcc01;fill-opacity:1;fill-rule:nonzero;stroke:none" d="m 0,0 c -0.33,-1.055 -1.081,-1.916 -2.068,-2.382 l 0.203,-0.456 c 1.113,0.523 1.962,1.491 2.337,2.679 L 0,0 Z"/></g></g></g></g></svg>
