<svg xmlns="http://www.w3.org/2000/svg" viewBox="0 0 1000 1000">
  <defs/>
  <path fill="#3A75C4" d="M8,195.25 C178.83,110.03 349.03,140.83 521.26,167.28 C676.47,191.12 833.42,211.85 992,132.75 L992,804.75 C821.17,889.97 650.97,859.17 478.74,832.72 C323.53,808.88 166.58,788.15 8,867.25 L8,195.25"/>
  <path fill="#CE1126" d="M8,195.25 C178.83,110.03 349.03,140.83 521.26,167.28 C676.47,191.12 833.42,211.85 992,132.75 L992,636.75 C821.17,721.97 650.97,691.17 478.74,664.72 C323.53,640.88 166.58,620.15 8,699.25 L8,195.25"/>
  <path fill="#FFF" d="M8,195.25 C178.83,110.03 349.03,140.83 521.26,167.28 C676.47,191.12 833.42,211.85 992,132.75 L992,468.75 C821.17,553.97 650.97,523.17 478.74,496.72 C323.53,472.88 166.58,452.15 8,531.25 L8,195.25"/>
  <path fill="#FFC61E" d="M8,195.25 C178.83,110.03 349.03,140.83 521.26,167.28 C676.47,191.12 833.42,211.85 992,132.75 L992,300.75 C821.17,385.97 650.97,355.17 478.74,328.72 C323.53,304.88 166.58,284.15 8,363.25 L8,195.25"/>
  <path fill="#3D8E33" d="M8,867.25 C170.55,675.11 332.68,588.36 500,500 C338.23,364.48 174.93,225.94 8,195.25 L8,867.25"/>
  <path fill="#FFF" d="M308.12,476.67 C307.85,561.01 248.82,621.97 175.28,631.81 C101.74,641.17 42.7,598.72 42.44,515.57 C42.71,431.26 101.78,339.37 175.28,329.41 C248.85,320.18 307.86,393.55 308.12,476.67"/>
  <path fill="#3D8E33" d="M367.16,481.55 C366.89,565.88 307.88,624.07 234.32,626.98 C160.76,629.39 101.74,578.55 101.48,495.39 C101.75,411.09 160.77,327.6 234.32,324.58 C307.88,322.28 366.9,398.42 367.16,481.55"/>
  <path id="star" fill="#FFF" d="M204.82,341.31 L219.3,390.9 C206.79,381.32 194.29,372.09 181.4,363 C196.85,361.17 212.28,359.92 228.19,359.19 L190.3,393.25 L204.82,341.31"/>
  <path fill="#FFF" d="M204.82,413.45 L219.3,463.04 C206.79,453.47 194.29,444.24 181.41,435.15 C196.85,433.31 212.28,432.07 228.19,431.34 L190.3,465.4 L204.82,413.45"/>
  <path fill="#FFF" d="M204.82,485.6 L219.3,535.19 C206.79,525.61 194.29,516.38 181.41,507.3 C196.85,505.46 212.28,504.21 228.19,503.48 L190.3,537.54 L204.82,485.6"/>
  <path fill="#FFF" d="M204.82,557.75 L219.3,607.34 C206.79,597.76 194.29,588.53 181.41,579.44 C196.85,577.6 212.28,576.36 228.19,575.63 L190.3,609.69 L204.82,557.75"/>
  <path fill="#1A1A1A" opacity="0.2" d="M8,195.25 C178.83,110.03 349.03,140.83 521.26,167.28 C676.47,191.12 833.42,211.85 992,132.75 L992,804.75 C821.17,889.97 650.97,859.17 478.74,832.72 C323.53,808.88 166.58,788.15 8,867.25 L8,195.25 M39.25,214.64 L39.25,819.14 C345.81,690.88 650.43,915.18 960.75,785.36 L960.75,180.86 C654.19,309.12 349.57,84.82 39.25,214.64"/>
</svg>
