<svg xmlns="http://www.w3.org/2000/svg" viewBox="0 0 64 64" enable-background="new 0 0 64 64"><path d="M11,48v5.4c5.4,5.3,12.8,8.6,21,8.6c10.7,0,20.1-5.6,25.4-14H11z" fill="#428bc1"/><path d="m11 32v16h46.4c2.9-4.6 4.6-10.1 4.6-16h-51" fill="#ed4c5c"/><path d="M11,32h51c0-5.9-1.7-11.4-4.6-16H11V32z" fill="#fff"/><path d="m11 16h46.4c-5.3-8.4-14.7-14-25.4-14-8.2 0-15.6 3.3-21 8.6 0 0 0 5.4 0 5.4" fill="#ffce31"/><path d="M11,10.6C5.5,16,2,23.6,2,32s3.5,16,9,21.4L32.4,32L11,10.6z" fill="#75a843"/><g fill="#f9f9f9"><path d="m18 41.8c-4.6-.9-8-5-8-9.8s3.4-8.9 8-9.8c-.6-.1-1.3-.2-2-.2-5.5 0-10 4.5-10 10 0 5.5 4.5 10 10 10 .7 0 1.4-.1 2-.2"/><path d="m16.8 36l1.2-.9 1.2.9-.4-1.5 1.2-1h-1.5l-.5-1.5-.5 1.5h-1.5l1.2 1z"/><path d="m16.8 40l1.2-.9 1.2.9-.4-1.5 1.2-1h-1.5l-.5-1.5-.5 1.5h-1.5l1.2 1z"/><path d="m16.8 28l1.2-.9 1.2.9-.4-1.5 1.2-1h-1.5l-.5-1.5-.5 1.5h-1.5l1.2 1z"/><path d="m16.8 32l1.2-.9 1.2.9-.4-1.5 1.2-1h-1.5l-.5-1.5-.5 1.5h-1.5l1.2 1z"/></g></svg>