<?xml version="1.0" encoding="UTF-8" standalone="no"?><svg xmlns:dc="http://purl.org/dc/elements/1.1/" xmlns:cc="http://creativecommons.org/ns#" xmlns:rdf="http://www.w3.org/1999/02/22-rdf-syntax-ns#" xmlns:svg="http://www.w3.org/2000/svg" xmlns="http://www.w3.org/2000/svg" viewBox="0 0 45 45" style="enable-background:new 0 0 45 45;" xml:space="preserve" version="1.1" id="svg2"><metadata id="metadata8"><rdf:RDF><cc:Work rdf:about=""><dc:format>image/svg+xml</dc:format><dc:type rdf:resource="http://purl.org/dc/dcmitype/StillImage"/></cc:Work></rdf:RDF></metadata><defs id="defs6"><clipPath id="clipPath16" clipPathUnits="userSpaceOnUse"><path id="path18" d="M 0,36 36,36 36,0 0,0 0,36 Z"/></clipPath></defs><g transform="matrix(1.25,0,0,-1.25,0,45)" id="g10"><g id="g12"><g clip-path="url(#clipPath16)" id="g14"><g transform="translate(36,9)" id="g20"><path id="path22" style="fill:#032a87;fill-opacity:1;fill-rule:nonzero;stroke:none" d="m 0,0 c 0,-2.209 -1.791,-4 -4,-4 l -28,0 c -2.209,0 -4,1.791 -4,4 l 0,18 c 0,2.209 1.791,4 4,4 l 28,0 c 2.209,0 4,-1.791 4,-4 L 0,0 Z"/></g><g transform="translate(32,31)" id="g24"><path id="path26" style="fill:#dc181e;fill-opacity:1;fill-rule:nonzero;stroke:none" d="m 0,0 -28,0 c -2.209,0 -4,-1.791 -4,-4 l 0,-9 36,0 0,9 C 4,-1.791 2.209,0 0,0"/></g><g transform="translate(1.313,6.0547)" id="g28"><path id="path30" style="fill:#eeeeee;fill-opacity:1;fill-rule:nonzero;stroke:none" d="M 0,0 15.718,11.881 0.017,23.904 c -0.811,-0.732 -1.33,-1.78 -1.33,-2.959 l 0,-18 C -1.313,1.774 -0.801,0.731 0,0"/></g><g transform="translate(8.625,21.2607)" id="g32"><path id="path34" style="fill:#fada10;fill-opacity:1;fill-rule:nonzero;stroke:none" d="m 0,0 c 0,-0.915 -0.962,-1.657 -2.148,-1.657 -1.187,0 -2.149,0.742 -2.149,1.657 0,0.915 0.962,1.656 2.149,1.656 C -0.962,1.656 0,0.915 0,0"/></g><g transform="translate(3.8545,21.9585)" id="g36"><path id="path38" style="fill:#bd725f;fill-opacity:1;fill-rule:nonzero;stroke:none" d="M 0,0 C 0.46,0.46 2.119,0.437 2.622,0.146 2.062,0.9 2.833,0.542 3.438,0.542 4.042,0.543 4.208,0.356 3.813,0.314 3.417,0.271 3.083,0.334 3.188,0.209 3.292,0.084 3.896,0.189 4.437,0.314 4.979,0.437 5.604,-0.02 5.646,-0.104 5.687,-0.187 4.687,0.021 4.333,-0.104 3.979,-0.229 3.416,-0.208 3.458,-0.333 3.5,-0.458 2.869,-0.541 2.622,-0.479 2.375,-0.416 1.354,-0.437 1.521,-0.333 1.687,-0.229 1.896,-0.104 1.979,-0.062 2.063,-0.02 0.729,0.021 0,0"/></g><g transform="translate(10.1563,21.4375)" id="g40"><path id="path42" style="fill:#dc181e;fill-opacity:1;fill-rule:nonzero;stroke:none" d="M 0,0 C 0,0 -0.939,-0.477 -1.891,-0.25 -2.938,0 -3.703,-0.111 -3.703,-0.391 -3.703,-0.111 -4.469,0 -5.516,-0.25 -6.467,-0.477 -7.406,0 -7.406,0 c 0,0 0.694,-1.109 0.281,-3.328 -0.422,-2.266 -0.297,-3.297 1.49,-3.364 1.51,-0.057 1.932,-0.511 1.932,-0.511 0,0 0.421,0.454 1.932,0.511 1.787,0.067 1.912,1.098 1.49,3.364 C -0.694,-1.109 0,0 0,0"/></g><g transform="translate(9.4687,17.4219)" id="g44"><path id="path46" style="fill:#63b0e2;fill-opacity:1;fill-rule:nonzero;stroke:none" d="m 0,0 c -0.531,1.828 0.031,3.328 0.031,3.328 0,0 -0.828,-0.25 -1.75,0.016 -0.922,0.265 -1.297,-0.188 -1.297,-0.188 0,0 -0.375,0.453 -1.296,0.188 -0.922,-0.266 -1.75,-0.016 -1.75,-0.016 0,0 0.562,-1.5 0.031,-3.328 -0.531,-1.828 0.765,-2.094 1.64,-2.078 0.875,0.015 1.375,-0.485 1.375,-0.485 0,0 0.5,0.5 1.375,0.485 C -0.766,-2.094 0.531,-1.828 0,0"/></g><g transform="translate(8.5469,16.1094)" id="g48"><path id="path50" style="fill:#ffffff;fill-opacity:1;fill-rule:nonzero;stroke:none" d="m 0,0 0,0.906 0.203,0 0,0.36 -0.219,0 0,0.968 0.203,0 -1.671,1.11 0,0.453 0.25,0 -0.86,0.578 -0.859,-0.578 0.25,0 0,-0.453 -1.672,-1.11 0.203,0 0,-0.968 -0.219,0 0,-0.36 0.204,0 0,-0.906 -0.25,0 0,-0.453 2.343,0 2.344,0 L 0.25,0 0,0 Z"/></g><g transform="translate(8.7109,19.8828)" id="g52"><path id="path54" style="fill:#ffffff;fill-opacity:1;fill-rule:nonzero;stroke:none" d="m 0,0 c 0,-0.358 -0.073,-0.492 -0.164,-0.492 -0.091,0 -0.164,0.134 -0.164,0.492 0,0.358 0.164,0.648 0.164,0.648 C -0.164,0.648 0,0.358 0,0"/></g><g transform="translate(9.1797,19.3437)" id="g56"><path id="path58" style="fill:#ffffff;fill-opacity:1;fill-rule:nonzero;stroke:none" d="m 0,0 -1.266,0 c 0,0.172 0.284,0.312 0.633,0.312 C -0.283,0.312 0,0.172 0,0"/></g><g transform="translate(4.875,19.8125)" id="g60"><path id="path62" style="fill:#018830;fill-opacity:1;fill-rule:nonzero;stroke:none" d="m 0,0 c 0,0 -0.234,-0.422 -0.281,-0.672 -0.047,-0.25 -0.188,0.156 -0.188,0.156 0,0 -0.25,-0.25 -0.312,-0.343 -0.063,-0.094 -0.078,0.718 0,0.828 0.078,0.109 -0.188,0.078 -0.281,0.125 -0.094,0.047 0.203,0.343 0.203,0.343 0,0 -0.407,0.188 -0.266,0.235 0.141,0.047 0.656,0.015 0.828,-0.125 0.172,-0.141 0.578,0.094 0.734,0.125 0.157,0.031 0,-0.156 -0.125,-0.266 C 0.187,0.297 0.25,0.016 0.25,-0.125 0.25,-0.266 0,0 0,0"/></g><path id="path64" style="fill:#b6b6b6;fill-opacity:1;fill-rule:nonzero;stroke:none" d="m 7.422,17.266 -1.844,0 0,0.531 1.844,0 0,-0.531 z"/><path id="path66" style="fill:#b6b6b6;fill-opacity:1;fill-rule:nonzero;stroke:none" d="m 5.25,17.5 -0.562,0 0,0.734 0.562,0 0,-0.734 z"/><path id="path68" style="fill:#b6b6b6;fill-opacity:1;fill-rule:nonzero;stroke:none" d="m 5.25,16.266 -0.562,0 0,0.734 0.562,0 0,-0.734 z"/><path id="path70" style="fill:#b6b6b6;fill-opacity:1;fill-rule:nonzero;stroke:none" d="m 8.266,17.5 -0.562,0 0,0.734 0.562,0 0,-0.734 z"/><path id="path72" style="fill:#b6b6b6;fill-opacity:1;fill-rule:nonzero;stroke:none" d="m 8.266,16.266 -0.562,0 0,0.734 0.562,0 0,-0.734 z"/><path id="path74" style="fill:#b6b6b6;fill-opacity:1;fill-rule:nonzero;stroke:none" d="m 6.891,19.391 -0.844,0 0,0.391 0.844,0 0,-0.391 z"/><g transform="translate(11.5,17.2344)" id="g76"><path id="path78" style="fill:#fada10;fill-opacity:1;fill-rule:nonzero;stroke:none" d="m 0,0 -0.156,0.891 -0.828,-0.266 0.25,-1.203 0.187,-0.047 c 0,0 0.016,-0.969 -0.719,-1.719 -0.734,-0.75 -2.031,-0.75 -2.031,-0.75 0,0 -0.672,-0.484 -1.75,-0.484 -1.078,0 -1.75,0.484 -1.75,0.484 0,0 -1.297,0 -2.031,0.75 -0.735,0.75 -0.719,1.719 -0.719,1.719 l 0.188,0.047 0.25,1.203 L -9.938,0.891 -10.094,0 -10.391,-0.031 c 0,0 0.016,-1.75 0.625,-2.672 0.61,-0.922 1.969,-1.203 1.969,-1.203 0,0 0.016,-0.11 0.047,-0.219 0.891,-0.516 2.703,-0.547 2.703,-0.547 0,0 1.813,0.031 2.703,0.547 0.031,0.109 0.047,0.219 0.047,0.219 0,0 1.36,0.281 1.969,1.203 0.609,0.922 0.625,2.672 0.625,2.672 L 0,0 Z"/></g></g></g></g></svg>
