<svg xmlns="http://www.w3.org/2000/svg" viewBox="0 0 1000 1000">
  <defs/>
  <path fill="#198a00" d="M8,195.25 C178.83,110.03 349.03,140.83 521.26,167.28 C676.47,191.12 833.42,211.85 992,132.75 L992,804.75 C821.17,889.97 650.97,859.17 478.74,832.72 C323.53,808.88 166.58,788.15 8,867.25 L8,195.25"/>
  <path fill="#ef7d00" d="M874.86,414.52 C913.52,405.77 952.15,392.63 992,372.75 L992,804.75 C953.32,824.05 914.7,837.5 874.86,846.52 L874.86,414.52"/>
  <path fill="#000" d="M757.71,428.46 C796.38,427.47 835.02,423.46 874.86,414.52 L874.86,846.52 C836.18,855.2 797.55,859.44 757.71,860.46 L757.71,428.46"/>
  <path fill="#de2010" d="M640.57,423.26 C679.23,427.16 717.88,429.42 757.71,428.46 L757.71,860.46 C719.05,861.4 680.41,859.28 640.57,855.26 L640.57,423.26"/>
  <path fill="#ef7d00" d="M905.98,247.3 C906.04,247.26 945.62,218.02 950.18,212.69 C951.47,214.21 934.4,241.91 899.24,259.56 C930.68,243.62 957.94,210.77 963.32,208.81 C966.53,208.61 955.73,239.86 892.13,272.97 C942.41,247.17 970.98,209.93 970.95,212.82 C971.04,213.05 969.7,219.07 960.92,229.83 C953.79,238.58 941.83,250.3 922.14,262.99 C934.67,255.91 966.95,224.99 967.23,227.81 C967.61,228.64 935.6,285.34 875.09,286.46 C922.92,286.83 954.23,245.63 958.53,244.01 C958.73,244.06 954.47,260.18 926.42,277.35 C916.89,283.19 904.77,288.77 889.3,293.22 C918.21,282.98 910.11,287.2 909.89,287.34 C909.61,287.63 893.1,304.61 872.25,301.11 C888.51,301.67 890.05,301.1 890.54,302.41 C889.06,304.47 876.52,310.01 863.38,306.32 C873.98,308.14 882.49,306.82 883.08,308.11 C882.53,308.86 876.65,313.34 870.48,312.5 C864.38,311.11 811.36,288.71 810.65,288.37 C841,277.3 871.33,264 902.61,247.1 L905.98,247.3"/>
  <path fill="#000" d="M905.97,246.73 C932.68,228.17 947.29,215.48 949.85,212.41 C950.13,212.08 950.33,212.02 950.57,212.17 C951.18,212.89 950.57,214.56 948.26,218.25 C945.88,221.9 942.73,225.92 938.73,230.34 L937.99,231.14 L949.01,220.83 L957.95,212.29 C960.6,209.9 962.35,208.64 963.38,208.25 C963.4,208.24 963.41,208.24 963.43,208.23 C963.98,208.17 964.19,208.5 964.22,209.48 C964.2,210.34 963.99,211.38 963.54,212.71 C962.21,216.32 959.72,220.53 955.83,225.52 C954.62,227.03 953.32,228.57 951.94,230.13 C955.98,226.4 960.17,222.38 964.54,218.04 L969.24,213.39 C969.81,212.86 970.23,212.51 970.51,212.32 C970.76,212.16 970.95,212.09 971.12,212.09 C971.38,212.12 971.48,212.24 971.49,212.54 C971.53,213.15 971.13,214.45 970.09,216.7 C968.55,219.87 966.37,223.38 963.47,227.29 C961.97,229.26 960.36,231.25 958.61,233.25 L961.58,230.73 C963.42,229.21 964.8,228.16 965.71,227.56 C966.28,227.21 966.7,227.01 967.02,226.94 C967.54,226.86 967.74,227.02 967.76,227.51 C967.76,228.6 966.14,231.63 962.08,237.33 C959.9,240.33 957.57,243.27 955.09,246.18 C956.95,244.51 958.09,243.65 958.59,243.45 C958.6,243.45 958.61,243.45 958.62,243.44 C958.92,243.39 959.05,243.49 959.1,243.8 C959.11,243.91 959.1,244.04 959.08,244.2 C959.02,244.47 958.92,244.81 958.77,245.25 C958.37,246.29 957.78,247.51 956.99,248.92 C954.62,252.99 951.4,257.19 947.16,261.61 C938,270.92 926.21,279.14 911.41,285.83 C911.47,285.89 911.5,285.96 911.52,286.06 C911.56,286.4 911.42,286.7 911.01,287.09 C910.77,287.31 910.48,287.53 910.13,287.76 C907.19,290.71 903.52,293.5 898.94,296.2 C895.18,298.33 891.56,299.87 887.92,300.93 C888.25,300.94 888.5,300.96 888.69,300.97 C890.13,301.13 890.78,301.46 891.05,302.14 C891.08,302.29 891.06,302.42 890.98,302.59 C890.54,303.27 889.56,304 887.76,304.9 C886.03,305.71 884.12,306.4 881.95,306.98 C883.03,307.14 883.49,307.41 883.6,307.92 C883.61,308 883.6,308.08 883.58,308.17 C883.19,309.01 881.86,310.04 879.04,311.47 C875.66,313.05 873,313.5 870.27,313.04 C866.38,312.18 846.33,305.78 810.39,288.87 C810.08,288.7 810.03,288.51 810.19,288.16 C810.28,288.01 810.37,287.92 810.52,287.86 C840.87,276.8 871.2,263.5 902.48,246.61 C902.59,246.56 902.68,246.54 902.78,246.54 L905.97,246.73 M906.17,247.75 C906.05,247.83 905.94,247.86 905.81,247.86 L902.59,247.67 C872.7,263.82 842.84,277.12 812.06,288.41 C847.24,304.87 866.86,311.12 870.68,311.96 C873.18,312.38 875.64,311.95 878.78,310.49 C879.82,309.96 880.76,309.39 881.63,308.77 L882.4,308.2 C881.87,308.07 880.14,307.97 877.1,307.95 L876.94,307.95 C872.04,308.5 867.58,308.14 863.14,306.85 C862.98,306.79 862.89,306.72 862.85,306.61 C862.81,306.49 862.83,306.36 862.9,306.17 C863.07,305.84 863.25,305.73 863.56,305.77 C867.01,306.38 871.49,306.77 877.11,306.84 C878.5,306.65 879.91,306.39 881.35,306.05 C883.69,305.46 885.72,304.75 887.53,303.9 C888.73,303.31 889.49,302.84 889.89,302.48 C889.63,302.29 889.16,302.16 888.36,302.08 C887.64,302.03 885.88,301.98 883.09,301.93 C879.32,302.4 875.74,302.31 872.06,301.65 C871.89,301.61 871.8,301.55 871.74,301.44 C871.69,301.33 871.7,301.2 871.76,301.01 C871.9,300.69 872.07,300.56 872.38,300.55 L879.99,300.76 L883.27,300.82 C888.35,300.03 893.35,298.23 898.64,295.25 C903.15,292.6 906.73,289.87 909.58,287 C909.63,286.95 909.68,286.91 909.73,286.87 L909.78,286.84 C909.33,286.94 908.76,287.08 908.05,287.29 C902.21,289.7 895.97,291.87 889.31,293.76 C889.12,293.8 889.01,293.8 888.91,293.73 C888.82,293.66 888.78,293.55 888.77,293.37 C888.78,293.02 888.91,292.83 889.25,292.7 C898.24,289.52 904.47,287.28 907.93,286.25 C924.13,279.41 936.89,270.77 946.6,260.91 C950.73,256.61 953.86,252.54 956.15,248.62 C956.89,247.29 957.44,246.16 957.8,245.2 L957.9,244.92 C956.97,245.64 955.06,247.36 952.19,250.11 C949.21,252.96 946.31,255.61 943.5,258.07 C933.91,266.75 924,273.47 913.54,278.35 C900.72,284.33 888.05,287.17 874.97,287.02 C874.63,286.99 874.52,286.84 874.58,286.47 C874.62,286.28 874.68,286.15 874.79,286.05 C874.9,285.96 875.02,285.92 875.2,285.91 C888.68,285.71 901.3,282.83 913.52,277.26 C916.65,275.76 919.75,274.09 922.87,272.24 C929.08,268.47 935.77,263.54 943.02,257.28 L943.81,256.56 C950.54,250.28 956.35,243.71 961.36,236.85 C963.13,234.38 964.54,232.22 965.62,230.36 C966.05,229.61 966.36,229 966.56,228.55 C966.64,228.38 966.69,228.25 966.71,228.16 C966.71,228.14 966.71,228.13 966.7,228.11 C966.54,228.17 966.28,228.3 965.92,228.53 C965.07,229.09 963.75,230.1 961.97,231.57 L952.64,239.6 C945.86,246.3 937.7,253.04 928.07,259.65 C925.55,261.45 923.61,262.71 922.25,263.48 C921.91,263.64 921.75,263.6 921.63,263.31 C921.55,262.98 921.64,262.76 921.98,262.52 L927.79,258.7 C932.55,255.24 939.4,249.82 948.35,242.13 L952.16,238.83 C956.23,234.75 959.75,230.74 962.77,226.77 C965.6,222.98 967.7,219.59 969.19,216.53 C969.67,215.5 970.02,214.62 970.26,213.88 C970.3,213.77 970.33,213.66 970.35,213.57 C970.18,213.72 969.96,213.92 969.69,214.16 L965.05,218.76 C956.5,227.29 948.56,234.57 941.22,240.75 C931.06,249.77 918.02,259.15 901.98,268.23 C898.75,270.06 895.51,271.8 892.26,273.47 C891.9,273.63 891.73,273.57 891.62,273.24 C891.55,272.89 891.66,272.68 892.01,272.48 L892.01,272.48 L901.62,267.31 C913.93,260.28 925.94,252 937.76,242.43 L940.81,239.91 C946.56,234.74 951.31,229.75 955.15,224.97 C958.91,220.14 961.3,216.13 962.57,212.71 C962.96,211.54 963.15,210.64 963.17,209.93 C963.16,209.71 963.14,209.55 963.1,209.43 C961.67,210.18 957.18,214.19 949.53,221.57 C940.47,230.3 933.11,236.82 927.43,241.45 L925.97,242.63 C917.86,249.42 909.04,255.23 899.34,260.05 C899.16,260.14 899.04,260.16 898.93,260.12 C898.82,260.07 898.76,259.98 898.72,259.81 C898.66,259.46 898.78,259.25 899.12,259.06 L899.13,259.06 C907.37,254.9 916.13,249.22 925.52,241.8 C929.96,238.02 934.15,233.99 938.12,229.69 C942.05,225.35 945.14,221.4 947.47,217.85 C948.71,215.9 949.45,214.58 949.74,213.85 C945.64,218.06 931.11,230.41 906.17,247.75 M966.72,228.17 C966.72,228.22 966.75,228.26 966.8,228.31 C966.76,228.27 966.74,228.23 966.72,228.17"/>
  <path fill="#ef7d00" d="M797.88,351.45 C789.81,352.7 789.6,358.42 789.57,358.86 C789.53,358.9 788.97,359.36 789.35,362.64 C790.7,360.32 791.34,359.57 791.35,359.57 C792.41,359.68 795.73,360.27 801.81,355.56 C796.77,361.48 799.42,362.79 799.66,362.93 C799.57,363.26 798.5,366.72 802.48,367.63 C801.32,365.95 801.91,364.65 801.96,364.54 C802.39,364.44 807.08,363.51 807.3,356.92 C807.87,362.87 810.69,363.83 810.93,363.93 C810.94,364.18 810.93,366.87 814.64,367.07 C812.74,365.4 813.06,363.17 813.08,363 C813.41,362.72 817.45,359.53 813.83,354.06 C816.22,352.25 818.22,348.63 818.28,348.53 C818.25,348.52 815,347.54 813.38,346.65 C812.9,345.07 813.3,337.34 813.31,337.18 L811.3,327.01 L805.59,343.77 C805.84,341.96 805.89,350.03 797.88,351.45"/>
  <path fill="#000" d="M797.88,350.91 C801.08,350.49 802.93,349.16 804.37,346.28 C804.71,345.49 804.94,344.74 805.08,343.98 C805.06,343.92 805.06,343.85 805.07,343.77 C805.08,343.62 805.1,343.5 805.11,343.41 C805.13,343.34 805.14,343.28 805.16,343.23 C805.2,343.15 805.25,343.08 805.31,343.02 L810.81,326.88 C810.89,326.68 811,326.57 811.2,326.49 C811.38,326.44 811.5,326.45 811.62,326.5 C811.72,326.57 811.78,326.67 811.82,326.85 L813.83,337.02 C813.83,337.07 813.84,337.12 813.83,337.17 C813.43,342.32 813.48,345.2 813.8,346.24 C814.83,346.81 816.36,347.4 818.47,348 C818.49,348.01 818.51,348.02 818.53,348.03 C818.84,348.19 818.9,348.38 818.74,348.74 C817.43,351.21 816.11,352.91 814.59,354.14 C816.1,356.44 816.35,358.29 815.46,360.62 C814.97,361.71 814.37,362.54 813.57,363.25 C813.45,364.76 813.85,365.72 814.98,366.62 C815.12,366.73 815.17,366.86 815.17,367.05 C815.15,367.24 815.1,367.36 815.01,367.47 C814.91,367.56 814.79,367.61 814.6,367.62 C812.79,367.62 811.75,367.11 810.94,365.86 C810.65,365.34 810.49,364.86 810.42,364.33 C809.87,364.06 809.35,363.65 808.79,363.02 C808.18,362.28 807.72,361.46 807.36,360.45 C806.86,361.72 806.15,362.69 805.06,363.6 C804.14,364.3 803.27,364.75 802.32,365 C802.1,365.78 802.27,366.43 802.89,367.26 C802.99,367.39 803.02,367.51 802.99,367.69 C802.9,368.06 802.73,368.19 802.37,368.17 C800.36,367.85 799.43,367.03 799.02,365.24 C798.91,364.56 798.92,363.92 799.04,363.26 C798.58,362.91 798.33,362.39 798.21,361.49 C798.13,360.45 798.43,359.41 799.2,358.07 C796.41,359.67 794.07,360.29 791.54,360.14 C791.14,360.67 790.55,361.58 789.79,362.89 C789.7,363.05 789.59,363.13 789.42,363.17 C789.24,363.21 789.12,363.19 789.01,363.12 C788.91,363.05 788.85,362.94 788.82,362.75 C788.56,360.61 788.65,359.39 789.05,358.68 C789.16,357.49 789.53,356.37 790.25,355.14 C791.98,352.57 794.18,351.35 797.88,350.91 M797.88,351.99 C794.58,352.38 792.63,353.44 791.13,355.66 C790.48,356.79 790.16,357.79 790.09,358.84 C790.08,359.03 790.02,359.16 789.87,359.28 C789.91,359.25 789.92,359.24 789.92,359.24 C789.88,359.32 789.84,359.44 789.8,359.61 C789.74,359.98 789.71,360.43 789.72,361 C790.24,360.17 790.66,359.58 790.97,359.22 C791.11,359.08 791.24,359.02 791.43,359.03 L791.64,359.05 C794.82,359.24 797.78,358.1 801.5,355.15 C801.81,354.92 802.01,354.94 802.24,355.21 C802.41,355.47 802.39,355.66 802.17,355.92 C800.04,358.28 799.21,359.86 799.25,361.28 C799.31,361.65 799.43,361.94 799.65,362.2 C799.72,362.28 799.79,362.34 799.86,362.4 L799.82,362.41 L799.93,362.45 C800.17,362.59 800.23,362.76 800.16,363.05 C799.99,363.69 799.95,364.29 800.06,364.97 C800.24,365.83 800.61,366.35 801.33,366.75 C801.06,365.9 801.11,365.19 801.49,364.33 C801.59,364.15 801.71,364.05 801.91,364.01 C802.79,363.81 803.59,363.42 804.47,362.76 C806.11,361.34 806.78,359.74 806.78,357.24 L806.77,356.99 C806.78,356.62 806.91,356.46 807.27,356.38 C807.63,356.34 807.78,356.46 807.83,356.83 L807.84,357.09 C808.01,359.37 808.56,360.94 809.61,362.25 C810.16,362.87 810.64,363.22 811.14,363.41 C811.36,363.49 811.45,363.62 811.46,363.87 C811.47,364.33 811.6,364.76 811.86,365.24 C812.2,365.78 812.6,366.11 813.21,366.34 C812.91,365.84 812.71,365.29 812.59,364.64 C812.5,364.01 812.49,363.47 812.57,362.96 C812.6,362.8 812.67,362.68 812.79,362.58 C813.52,361.97 814.06,361.25 814.51,360.27 C815.28,358.21 814.97,356.56 813.4,354.43 C813.3,354.29 813.26,354.18 813.27,354.04 C813.3,353.91 813.37,353.79 813.51,353.66 C813.53,353.64 813.56,353.63 813.58,353.61 C815.01,352.61 816.25,351.14 817.52,348.89 C815.53,348.29 814.09,347.71 813.08,347.13 C813.01,347.08 812.96,347.03 812.91,346.95 C812.47,345.83 812.35,342.81 812.78,337.27 L811.16,329.04 L806.17,343.67 C806.16,343.74 806.15,343.83 806.14,343.92 C805.99,344.83 805.73,345.72 805.33,346.65 C803.66,349.98 801.54,351.51 797.88,351.99"/>
  <path fill="#ef7d00" d="M837.81,323.38 C838.24,323.74 843.62,328.37 849.53,327.45 C850.97,325.16 845.69,323.03 845.09,322.04 C847.75,323.87 856.77,329.42 863.38,325.67 C865.49,321.87 859.3,323.64 851.3,316.13 C857,318.63 869.53,322.94 876.16,318.91 C878.17,315.51 862.87,311.04 856.81,305.44 L842.61,301.1 L823.26,318.75 L837.81,323.38"/>
  <path fill="#000" d="M837.51,323.87 L823.04,319.28 C822.96,319.24 822.89,319.2 822.83,319.13 C822.63,318.85 822.66,318.64 822.94,318.36 L842.29,300.72 C842.47,300.56 842.63,300.52 842.83,300.58 L857.03,304.91 C857.1,304.93 857.15,304.96 857.21,305.01 C858.82,306.51 862.29,308.73 867.89,311.57 C871.38,313.32 873.66,314.57 874.8,315.32 C875.74,315.97 876.33,316.53 876.68,317.07 C877.11,317.87 877.07,318.47 876.53,319.21 C876.48,319.27 876.43,319.32 876.37,319.36 C873.34,321.24 869.3,321.69 863.21,320.59 C860.35,320.01 857.46,319.17 854.47,318.06 C856.45,319.47 858.67,320.68 861.26,321.74 C862.76,322.36 863.63,322.82 864,323.18 C864.59,323.92 864.54,324.68 863.8,325.91 C863.74,325.99 863.67,326.06 863.59,326.12 C860.58,327.9 857.28,328.07 852.53,326.54 C851.77,326.27 851.01,325.97 850.26,325.64 C850.36,325.84 850.43,326.03 850.46,326.22 C850.53,326.84 850.36,327.3 849.85,327.82 C849.76,327.9 849.67,327.95 849.56,327.98 C845.61,328.74 841.96,327.52 837.51,323.87 M838.17,322.92 L838.23,322.98 C842.39,326.38 845.73,327.55 849.32,326.96 C849.41,326.82 849.44,326.71 849.42,326.57 C849.37,326.33 849.21,326.07 848.91,325.74 C848.48,325.3 847.65,324.67 846.37,323.83 C845.14,323.02 844.62,322.51 844.56,322.13 C844.58,321.75 844.73,321.58 845.09,321.5 C845.23,321.48 845.33,321.5 845.43,321.57 C847.92,323.26 850.39,324.54 853.01,325.49 C857.39,326.89 860.35,326.8 863.04,325.3 C863.38,324.68 863.41,324.33 863.17,324.02 C862.89,323.75 862.12,323.35 860.73,322.78 C856.68,321.1 853.52,319.08 850.91,316.55 C850.68,316.3 850.7,316.09 850.96,315.78 C851.17,315.57 851.34,315.53 851.58,315.62 C855.73,317.44 859.69,318.71 863.59,319.51 C869.33,320.54 873.08,320.17 875.84,318.54 C875.95,318.32 875.93,318.11 875.75,317.8 C875.46,317.36 874.94,316.87 874.1,316.28 C872.99,315.55 870.74,314.32 867.29,312.58 C861.71,309.74 858.19,307.5 856.48,305.94 L842.67,301.72 L824.29,318.5 L838.03,322.85 C838.08,322.87 838.13,322.89 838.17,322.92"/>
  <path fill="#ef7d00" d="M815.98,275.61 C816.21,275.46 822.4,271.86 848.82,269.03 C851.75,268.61 866.57,260.89 871.54,258.23 C879.35,255.13 903.08,244.02 910.07,237.25 C914.81,235.88 908.76,245.31 902.96,249.34 C896.37,253.98 874.45,266.43 866.22,267.37 C875.87,265.84 870.43,273.84 854.5,273.68 C861.97,276.42 859.45,277.36 859.29,277.44 C858.89,277.53 846.26,280.26 842.25,278.31 C851.13,280.22 847.76,281.65 847.58,281.75 C847.37,281.81 838.55,283.85 834.09,282.91 C840.51,283.97 837.43,285.35 837.28,285.43 C837.14,285.47 832.09,286.84 827.52,286.17 C823.17,284.84 816.31,275.84 815.98,275.61"/>
  <path fill="#000" d="M815.73,275.16 C816.93,274.42 819.1,273.6 822.48,272.68 C829.1,270.95 837.86,269.65 848.86,268.48 L848.88,268.48 C850.4,268.29 856.7,265.6 868.04,259.55 L871.39,257.75 C871.41,257.74 871.43,257.73 871.45,257.72 C877.74,255.22 884.27,252.27 891.08,248.79 C900.76,243.77 906.89,239.69 909.76,236.9 C909.84,236.82 909.92,236.77 910.01,236.73 C910.72,236.46 911.21,236.4 911.62,236.54 C912.05,236.74 912.22,237.05 912.25,237.66 C912.22,238.56 911.8,239.73 910.87,241.39 C908.62,245.13 906.17,247.78 903.15,249.79 C898.78,252.87 892.88,256.46 885.39,260.41 C879.22,263.61 874.34,265.71 870.69,266.91 C870.83,266.98 870.95,267.07 871.06,267.16 C871.51,267.59 871.61,268.02 871.43,268.7 C871.24,269.25 870.87,269.77 870.23,270.35 C868.87,271.48 867.04,272.38 864.46,273.15 C862.31,273.73 860.03,274.08 857.51,274.22 C859.12,274.97 859.93,275.58 860.25,276.23 C860.43,276.74 860.34,277.11 859.96,277.56 C859.79,277.73 859.61,277.85 859.41,277.94 C859.38,277.95 859.35,277.97 859.32,277.97 C857.05,278.51 854.64,278.96 852.08,279.31 C850.67,279.49 849.4,279.61 848.25,279.67 C848.55,279.92 848.72,280.14 848.81,280.4 C849,281.22 848.71,281.72 847.73,282.24 C847.7,282.26 847.66,282.27 847.62,282.28 C844.01,283.2 841.01,283.7 838.5,283.85 C838.62,284.03 838.67,284.21 838.67,284.42 C838.6,285.05 838.26,285.48 837.45,285.91 C837.42,285.93 837.39,285.94 837.36,285.95 C833.63,287.03 830.48,287.25 827.35,286.7 C824.96,286.07 821.63,283.23 816.86,277.45 L815.97,276.39 C815.88,276.28 815.8,276.2 815.75,276.14 C815.55,276.08 815.46,275.95 815.45,275.67 C815.46,275.44 815.54,275.3 815.73,275.16 M867.81,266.6 C871.48,265.79 877.19,263.53 885.12,259.43 C892.58,255.51 898.44,251.95 902.76,248.9 C902.77,248.89 902.79,248.88 902.8,248.87 C905.62,246.99 907.89,244.53 910.01,241.02 C910.81,239.6 911.17,238.65 911.2,237.99 C911.19,237.77 911.14,237.67 911.03,237.61 C910.86,237.56 910.62,237.59 910.25,237.72 C907.23,240.62 901.01,244.75 891.33,249.77 C884.51,253.26 877.97,256.23 871.66,258.73 L868.36,260.51 C856.91,266.63 850.46,269.36 848.77,269.58 C837.86,270.73 829.17,272.02 822.62,273.73 C819.92,274.47 818.02,275.12 816.83,275.7 C817.07,275.96 817.36,276.29 817.69,276.7 C822.34,282.31 825.5,285.04 827.68,285.63 C830.64,286.14 833.61,285.93 837.15,284.92 C837.47,284.75 837.6,284.64 837.62,284.54 C837.58,284.27 837.18,284.06 836.15,283.82 C835.3,283.74 834.56,283.62 833.88,283.43 C833.55,283.32 833.48,283.14 833.6,282.77 C833.74,282.45 833.91,282.34 834.22,282.36 C834.88,282.45 835.47,282.55 835.98,282.67 C837.64,282.77 839.75,282.66 842.43,282.26 C844.29,281.97 845.96,281.62 847.47,281.24 C847.73,281.1 847.82,281 847.8,280.89 C847.61,280.47 847.01,280.11 845.67,279.68 C843.93,279.56 842.76,279.27 841.93,278.79 C841.79,278.69 841.72,278.6 841.7,278.47 C841.69,278.34 841.73,278.21 841.84,278.04 C842.01,277.81 842.17,277.73 842.42,277.77 C843.82,278.04 844.98,278.31 845.92,278.6 C847.53,278.65 849.58,278.54 852.13,278.22 C854.64,277.88 856.99,277.44 859.21,276.92 C859.23,276.9 859.26,276.88 859.28,276.86 C859.28,276.85 859.28,276.84 859.27,276.8 C858.86,276.09 857.4,275.3 854.26,274.2 C854.01,274.1 853.94,273.96 853.98,273.66 C854.08,273.28 854.25,273.14 854.61,273.13 C858.28,273.21 861.45,272.86 864.38,272.09 C866.78,271.38 868.45,270.56 869.66,269.57 C870.09,269.18 870.33,268.86 870.44,268.57 C870.49,268.36 870.45,268.22 870.29,268.06 C869.81,267.71 869.07,267.58 867.77,267.68 C867.18,267.8 866.64,267.88 866.15,267.92 C865.97,267.93 865.86,267.9 865.78,267.82 C865.7,267.72 865.68,267.61 865.69,267.42 C865.75,267.07 865.9,266.91 866.23,266.83 C866.8,266.72 867.33,266.65 867.81,266.6"/>
  <path fill="#ef7d00" d="M826.51,328.46 L827.48,344.64 C827.48,344.64 826.95,345.53 826.51,346.09 C825.46,346.55 814.96,345.96 815.83,354.18 C815.85,357.73 815.92,358.48 818.43,360.22 C817.82,357.96 817.98,356.41 817.98,356.37 C818.25,356.47 820.98,357.69 824.58,352.27 C822.53,357.81 823.81,359.09 824.44,359.33 C824.8,360.52 823.65,364.03 828,363.81 C826.41,362.3 827.05,360.33 827.11,360.16 C827.43,360.05 831.34,358.94 830.15,351.1 C831.95,349.39 832.47,350.59 832.52,350.69 C832.57,351.05 832.95,354.9 837.12,353.78 C838.77,354.78 836.99,357.15 836.83,357.38 C837.02,357.34 839.52,356.95 840.68,354.47 C841.63,351.63 842.52,347.98 837.72,346.57 C837.38,344.94 839.45,344.51 839.64,344.46 C839.79,344.49 842.55,345.02 843.65,346.26 C844.63,347.16 844.15,342.86 840.39,342.39 C835.6,342.91 835.39,342.18 835.34,341.92 L834.16,326.9 L826.51,328.46"/>
  <path fill="#000" d="M825.99,328.56 C825.98,328.19 826.12,328.01 826.48,327.92 L834.12,326.36 C834.47,326.31 834.62,326.41 834.68,326.76 L835.41,335.44 L835.87,341.75 C835.94,341.82 836.07,341.87 836.28,341.93 C837.09,342.1 838.42,342.09 840.4,341.85 C840.42,341.85 840.44,341.85 840.46,341.85 C842.39,341.92 843.46,342.66 844.29,344.52 C844.54,345.18 844.62,345.7 844.58,346.18 C844.51,346.65 844.33,346.88 843.97,347 C843.66,347.05 843.45,346.95 843.2,346.62 C842.6,345.85 841.54,345.37 839.58,345.02 C839.26,345.1 838.96,345.22 838.67,345.39 C838.31,345.62 838.17,345.82 838.16,346.1 C840.42,346.73 841.46,347.76 841.89,349.78 C842.05,351.11 841.84,352.62 841.18,354.59 C840.68,355.84 839.91,356.67 838.58,357.36 C837.95,357.66 837.37,357.83 836.81,357.92 C836.68,357.93 836.58,357.91 836.48,357.84 C836.35,357.73 836.29,357.64 836.27,357.5 C836.26,357.37 836.31,357.25 836.42,357.09 C836.74,356.64 836.99,356.19 837.18,355.7 C837.43,354.99 837.38,354.62 837.03,354.36 C835.08,354.96 833.92,354.63 832.84,353.18 C832.4,352.47 832.14,351.76 832.01,350.93 C831.95,350.83 831.87,350.77 831.75,350.73 C831.48,350.66 831.18,350.8 830.73,351.22 C831.29,354.6 830.96,356.83 829.64,358.82 C828.97,359.7 828.3,360.24 827.51,360.58 C827.22,361.82 827.46,362.6 828.34,363.35 C828.46,363.45 828.52,363.56 828.52,363.73 C828.51,364.1 828.37,364.27 828.01,364.35 C826.26,364.55 825.31,364.23 824.6,363.24 C824.28,362.66 824.1,361.83 824.06,360.57 C824.05,360.2 824.03,359.94 824.02,359.8 C823.47,359.52 823.16,359 822.96,357.94 C822.85,357.11 822.9,356.19 823.13,355.07 C822.15,356.04 821.22,356.62 820.13,356.94 C819.5,357.1 818.96,357.14 818.45,357.08 C818.46,357.94 818.61,358.9 818.93,360.01 C818.98,360.18 818.95,360.33 818.85,360.5 C818.61,360.81 818.41,360.86 818.11,360.69 C816.81,359.8 816.08,359.01 815.69,358.14 C815.46,357.45 815.32,356.21 815.3,354.29 C814.83,350.96 815.75,349.07 818.61,347.42 C820.12,346.71 822.22,346.18 825.15,345.81 C825.61,345.76 825.92,345.71 826.06,345.69 C826.13,345.68 826.18,345.67 826.22,345.66 C826.44,345.37 826.68,345.01 826.94,344.57 L825.99,328.56 M827.07,328.89 L828,344.53 C828.01,344.65 827.98,344.76 827.92,344.87 C827.55,345.5 827.21,346.01 826.9,346.41 C826.7,346.6 826.17,346.76 825.13,346.89 C822.34,347.24 820.37,347.73 818.99,348.38 C816.68,349.72 815.94,351.28 816.35,354.02 C816.35,354.05 816.36,354.09 816.36,354.12 C816.37,355.93 816.49,357.07 816.68,357.64 C816.84,358.03 817.11,358.4 817.54,358.82 C817.39,357.91 817.37,357.11 817.46,356.36 C817.53,355.98 817.69,355.84 818.06,355.83 C818.12,355.83 818.18,355.84 818.24,355.87 C818.72,356.06 819.25,356.07 819.99,355.89 C821.53,355.39 822.78,354.26 824.14,352.04 C824.36,351.71 824.55,351.64 824.87,351.78 C825.13,351.94 825.18,352.11 825.07,352.43 C824.16,354.7 823.85,356.32 824,357.64 C824.14,358.4 824.3,358.72 824.57,358.79 C824.71,358.82 824.81,358.88 824.89,359 C825.01,359.23 825.09,359.67 825.11,360.41 C825.15,361.48 825.28,362.15 825.51,362.58 C825.8,363 826.18,363.22 826.81,363.31 C826.54,362.8 826.41,362.25 826.39,361.57 C826.39,361 826.46,360.51 826.61,360.04 C826.7,359.82 826.82,359.71 827.03,359.64 C827.69,359.42 828.25,359 828.84,358.24 C829.97,356.5 830.22,354.46 829.63,351.29 C829.6,351.08 829.64,350.93 829.79,350.75 C830.74,349.78 831.42,349.49 832.2,349.69 C832.58,349.83 832.82,350.04 833,350.41 C833.03,350.45 833.04,350.5 833.05,350.56 C833.14,351.27 833.36,351.88 833.74,352.48 C834.56,353.58 835.46,353.8 837,353.27 C837.13,353.22 837.24,353.22 837.36,353.26 C838.44,353.75 838.65,354.47 838.16,355.96 C838.08,356.18 837.98,356.39 837.88,356.6 C839.06,356.16 839.73,355.5 840.19,354.36 C840.79,352.59 840.98,351.26 840.85,350.11 C840.48,348.44 839.56,347.6 837.54,347.11 C837.38,347.07 837.29,346.99 837.22,346.83 C836.9,345.81 837.19,345.16 838.25,344.46 C838.69,344.21 839.13,344.04 839.62,343.93 C839.68,343.91 839.74,343.91 839.8,343.92 C841.39,344.19 842.5,344.58 843.33,345.13 L843.31,345.07 C842.65,343.6 841.83,343.01 840.34,342.94 C836.5,343.37 835.02,343.09 834.81,341.99 L834.36,335.68 L833.69,327.54 L827.07,328.89"/>
  <path fill="#ef7d00" d="M843.03,339.91 C842.63,338.8 835.57,330.59 837,328.46 C839.24,328.92 842.22,332.21 845.21,330.71 C844.14,329.19 842.15,330.29 839.13,326.21 C836.4,321.19 835.8,313.73 826.17,306.17 C833.01,314.58 846.24,317.54 847.44,314.81 C847.38,312.08 835.49,304.08 835.49,301.5 C838.51,306.34 851.06,314.83 861.2,312.28 C861.27,310.01 853.65,307.34 850.95,303.68 C844.41,300.62 828.45,290.01 827.62,286.69 C821.42,279.18 817.78,277.13 815.96,276.32 C815.29,275.6 815.11,274.96 814.97,274.49 C811.53,266.32 815.95,263.47 819.13,262.51 C821.56,262 822.21,262.16 823.98,261.2 L817.81,259.75 C820.98,261.04 826.75,258.92 825.85,264.28 C828.98,262.5 835.14,255.36 818.61,255.37 C812.85,250.29 791.42,249.08 785.4,274.7 C785.84,275.03 786.08,275.3 787.49,276.2 C780.45,273.65 761.54,271.84 754.69,270.95 C736.07,266.11 717.33,254.16 715.25,255.18 C713.62,256.78 725.65,267.94 725.69,268.61 C713.88,261.97 703.12,256.94 693.08,252.23 C685.78,249.08 679.27,243.57 678.18,244.16 C676.18,249.51 689.12,262.22 692.08,264.28 C694.09,265.44 706.27,271.44 711.9,274.2 C712.85,274.66 713.94,274.94 714.72,275.65 C684.07,261.62 678.85,258.3 677.39,256.82 C674.72,255.67 668.07,247.78 666.28,247.61 C665.42,248.84 667.24,261.43 681.91,268.78 C684.64,270.58 712.76,282.06 712.98,282.47 L678.52,267.41 C672,264.29 664.45,256.28 662.84,256.56 C661.77,257.81 666.25,266.13 672.9,269.91 C676.29,271.58 689.26,278.44 700.93,282.87 C701.62,283 680.06,274.02 669.47,269.07 C664.62,265.97 662.64,263.34 661.78,263.56 C660.98,264.27 663.29,277.73 697.1,287.22 C700.43,287.6 705.79,284.69 708.38,285.65 C708.16,285.7 697.59,287.33 696.48,287.34 C695.37,287.24 689.89,287.75 689.56,287.9 C689.36,288.89 691.58,293.55 709.04,293.45 C711.82,293.19 722.52,289.83 722.28,290.57 C721.56,290.92 706.02,295.22 704.68,295.39 C703.43,295.5 698.34,295.97 697.85,296.33 C697.9,297.24 701.76,300.45 711.29,301.55 C716.63,301.85 724.81,300.19 730.11,298.83 C733.16,298.06 734.89,297.62 734.9,297.62 C734.49,297.83 719.83,302.59 719.4,302.77 C718.78,302.93 713.58,303.38 713.26,303.55 C713.1,304.56 720.85,312.12 745.49,304.43 C742.71,307.26 731.49,309.96 731.22,310.21 C731.41,310.74 733.68,312.85 737.96,313.94 C740.08,314.32 742.82,314.26 745.45,313.88 C750.18,312.9 754.87,311.13 761.22,305.58 C761.12,307.24 746.5,315.42 746.44,316.04 C750.52,318.77 761.22,315.47 762.47,314.92 C763.61,314.28 784.38,302.03 784.99,300.53 C784.58,302.24 757.35,318.25 757.16,318.61 C759.65,320.96 768.16,318.25 769.18,317.82 L781.92,310.68 C781.62,310.87 768.79,318.95 769.16,320.46 C769.42,325.72 790.97,315.79 793.41,314.29 C793.78,313.52 782.96,320.24 782.3,322.63 C786.77,328.36 797.98,325.71 800.42,324.11 C801.4,323.84 799.29,328.19 799.97,328.22 C800.21,328.01 802.54,325.18 803.6,323.09 C803.22,324.82 802,327.67 801.15,330.83 C800.41,334.01 800.07,337.49 799.05,341.31 C799.28,342.92 806.2,337.47 805.52,326.01 C805.98,332.14 803.42,343.16 803.86,343.94 C805.83,344.36 809.74,338.17 810.54,333.13 C812,335.45 814.75,339.49 817.19,340.61 C816.95,337.15 817.21,337.28 816.14,333.98 C816.73,329.35 816.86,323.07 817.01,315.94 C823.71,327.21 826.21,331.72 824.46,341.22 C826.63,341.08 829.33,334.62 829.35,330.47 C832.45,340.4 842.39,340.19 843.03,339.91"/>
  <path fill="#000" d="M843.55,339.86 C843.54,339.95 843.52,340.03 843.48,340.11 C843.2,340.49 842.52,340.62 841.05,340.52 C839.6,340.38 838.22,340.07 836.83,339.57 C833.37,338.14 831.22,336.18 829.68,333.09 C829.4,334.45 828.93,335.92 828.22,337.58 C826.73,340.79 825.64,341.92 824.27,341.75 C823.99,341.65 823.9,341.5 823.95,341.18 C824.73,336.8 824.56,333.11 823.43,329.47 C822.59,327.13 820.65,323.29 817.5,317.86 C817.32,325.68 817.03,331.01 816.68,333.87 C817.21,335.55 817.5,337.06 817.6,338.52 L817.72,340.5 C817.72,340.59 817.71,340.68 817.67,340.77 C817.6,340.94 817.51,341.05 817.39,341.12 C817.27,341.17 817.15,341.18 816.98,341.13 C815.35,340.43 813.44,338.49 810.83,334.61 C810.34,336.59 809.46,338.63 808.08,340.91 C807.3,342.14 806.57,343.05 805.86,343.72 C804.88,344.57 804.24,344.75 803.56,344.42 C803.21,344.01 803.24,342.33 803.85,338.57 L804.08,337.14 C803.76,337.72 803.42,338.29 803.04,338.85 C802.14,340.13 801.28,341.03 800.38,341.67 C799.94,341.96 799.6,342.1 799.3,342.14 C799.03,342.15 798.86,342.09 798.69,341.93 C798.54,341.75 798.49,341.56 798.53,341.27 C798.53,341.25 798.54,341.22 798.54,341.2 C798.93,339.78 799.36,337.75 799.8,335.1 C800.13,333.12 800.42,331.67 800.64,330.73 C800.9,329.74 801.32,328.4 801.91,326.71 C801.1,327.78 800.56,328.4 800.27,328.64 C800.07,328.79 799.9,328.83 799.7,328.78 C799.48,328.71 799.37,328.58 799.32,328.33 C799.3,328.2 799.31,328.01 799.35,327.75 C799.4,327.5 799.52,327.02 799.71,326.3 C799.86,325.72 799.97,325.26 800.05,324.94 C799.41,325.26 798.55,325.57 797.42,325.88 C795.66,326.34 793.9,326.62 792.08,326.72 C786.87,326.84 783.87,325.68 781.86,322.95 C781.8,322.85 781.77,322.76 781.77,322.65 C781.9,321.62 782.89,320.44 785.24,318.66 C783.62,319.31 782.05,319.9 780.52,320.43 C777.06,321.6 774.42,322.25 772.46,322.48 C771.25,322.59 770.39,322.51 769.74,322.28 C768.95,321.92 768.64,321.46 768.62,320.64 C768.47,320.29 768.54,319.95 768.89,319.45 C769.15,319.11 769.55,318.69 770.13,318.19 C770.45,317.92 770.81,317.62 771.23,317.29 L769.43,318.29 L769.42,318.29 C768.48,318.78 766.66,319.32 763.76,319.88 C759.8,320.52 757.82,320.21 756.73,318.92 C756.72,318.91 756.71,318.89 756.7,318.87 C756.59,318.43 757.25,317.8 759.13,316.61 C758.11,316.85 756.93,317.1 755.57,317.34 C750.7,318.1 747.93,317.79 746.1,316.46 C746.09,316.45 746.09,316.45 746.08,316.44 C745.82,316.17 745.81,315.93 746.02,315.57 C746.1,315.45 746.23,315.32 746.4,315.17 C746.67,314.94 747.09,314.64 747.67,314.27 L748.79,313.57 C747.72,313.91 746.64,314.19 745.55,314.41 C745.54,314.41 745.53,314.41 745.53,314.41 C742.43,314.86 739.96,314.86 737.86,314.47 C735.97,314.04 734.32,313.36 732.74,312.36 C731.35,311.42 730.77,310.79 730.69,310.23 C730.69,310.2 730.69,310.17 730.7,310.14 L730.71,310.14 C730.94,309.75 731.92,309.3 734.1,308.69 C737.52,307.74 740.14,306.85 742.02,306.04 C733.12,308.47 725.95,308.97 719.96,307.78 C717.64,307.24 715.86,306.54 714.4,305.62 C712.99,304.64 712.56,304 712.78,303.31 C712.78,303.3 712.78,303.3 712.79,303.29 C713.04,303 714.17,302.75 716.67,302.54 C718.24,302.42 719.05,302.32 719.16,302.28 L719.16,302.29 C719.5,302.15 720.87,301.69 723.28,300.92 C718,301.92 714.06,302.27 711.26,302.08 C707.09,301.65 703.71,300.76 700.77,299.38 C698.11,298 697.18,297.1 697.35,296.13 L697.35,296.12 C697.72,295.64 699.58,295.25 703.85,294.92 L704.61,294.86 C704.62,294.86 704.63,294.86 704.64,294.86 C705,294.82 706.26,294.56 708.48,294 C701.21,294.04 696.05,293.2 692.46,291.58 C691.15,290.93 690.26,290.26 689.61,289.49 C689.05,288.74 688.9,288.22 689.07,287.68 C689.07,287.68 689.07,287.67 689.07,287.67 C689.32,287.36 690.34,287.11 692.64,286.91 L693.78,286.83 C681.09,282.97 672.04,278.14 666.09,272.42 C663.95,270.26 662.54,268.3 661.64,266.33 C660.89,264.46 660.86,263.57 661.48,263.09 C662.03,262.85 662.85,263.25 664.38,264.57 C666.37,266.3 668.12,267.63 669.69,268.59 L670.22,268.84 C668.17,267.24 666.32,265.22 664.5,262.55 C663.54,261.08 662.86,259.8 662.42,258.64 C661.93,257.17 661.97,256.47 662.57,256.07 L662.57,256.07 C663.13,255.85 663.86,256.09 665.13,256.97 C665.77,257.44 666.96,258.4 668.69,259.85 C670.29,261.19 671.74,262.35 673.04,263.34 C670.91,261.17 669.21,258.84 667.77,256.13 C666.76,254.1 666.1,252.22 665.72,250.36 C665.42,248.55 665.49,247.65 665.92,247.18 C665.99,247.13 666.05,247.1 666.13,247.08 C667.05,247.07 668.82,248.36 672.09,251.65 C674.98,254.56 676.71,255.99 677.5,256.3 C677.6,256.33 677.68,256.38 677.76,256.46 C678.56,257.2 681,258.72 685.35,260.99 L689.85,263.26 C687.9,261.56 685.56,259.11 682.79,255.79 C678.11,249.96 676.65,246.41 677.72,243.88 C677.73,243.86 677.74,243.84 677.76,243.82 C678.17,243.38 678.79,243.45 680.02,244.08 C680.6,244.41 681.73,245.11 683.39,246.19 C687.63,248.92 690.89,250.73 693.25,251.73 L693.28,251.74 C705.4,257.43 715.46,262.39 723.49,266.78 L722.18,265.42 C719.48,262.62 717.6,260.57 716.53,259.29 C715.65,258.2 715.07,257.34 714.73,256.69 C714.53,256.26 714.43,255.92 714.43,255.61 C714.45,255.15 714.62,254.89 715,254.7 C715.66,254.43 716.83,254.66 719.01,255.56 C720.29,256.13 722.79,257.32 726.52,259.15 C738.58,265.02 747.97,268.66 754.8,270.42 L757.71,270.78 C770.69,272.36 779.72,273.58 784.87,274.83 C784.86,274.77 784.87,274.7 784.88,274.61 C786.29,268.43 788.52,263.68 791.79,259.78 C794.74,256.53 797.93,254.41 801.95,253.01 C805.39,251.97 808.6,251.68 812.05,252.1 C815.12,252.6 817.21,253.44 818.86,254.82 C826.43,254.77 829.68,255.91 830.12,258.96 C830.12,260.12 829.71,261.19 828.71,262.5 C827.84,263.54 826.99,264.26 826.02,264.76 C825.92,264.81 825.82,264.83 825.71,264.82 C825.53,264.78 825.43,264.72 825.36,264.62 C825.31,264.51 825.3,264.38 825.34,264.2 C825.68,262.75 825.51,262 824.73,261.48 C824.66,261.44 824.58,261.41 824.48,261.37 C824.43,261.48 824.34,261.57 824.19,261.67 C823.32,262.15 822.32,262.48 821.07,262.69 C820.33,262.81 819.71,262.92 819.2,263.04 L819.19,263.04 C817.24,263.61 815.98,264.51 814.97,266.05 C813.78,268.35 813.9,270.7 815.45,274.21 C815.46,274.23 815.47,274.26 815.48,274.28 L815.5,274.38 C815.7,275.01 815.95,275.47 816.29,275.85 C819.71,277.44 823.51,280.8 828.04,286.31 C828.1,286.38 828.13,286.46 828.15,286.56 C828.48,287.88 831.27,290.54 837.4,294.88 C842.99,298.77 847.57,301.48 851.22,303.17 C851.3,303.21 851.36,303.25 851.41,303.33 C852.18,304.43 853.99,305.9 857.21,307.86 C858.83,308.82 859.91,309.53 860.48,309.96 C861.53,310.86 861.87,311.53 861.7,312.34 C861.62,312.59 861.49,312.72 861.25,312.81 C856.55,314.05 851.56,313.27 845.37,310.23 L843.87,309.44 C844.86,310.31 845.6,310.98 846.09,311.47 C847.53,312.99 848.05,313.97 847.95,314.85 C847.61,315.91 846.71,316.34 844.66,316.38 C842.96,316.32 841.03,315.96 838.72,315.23 C836.88,314.61 835.2,313.9 833.63,313.09 L834.16,313.92 C835.25,315.73 836.42,318.21 837.67,321.46 C838.47,323.56 839.11,325.01 839.59,325.87 C840.74,327.52 842,328.49 843.76,329.1 C844.8,329.45 845.36,329.84 845.68,330.4 C845.81,330.71 845.75,330.91 845.46,331.15 C844.46,331.8 843.52,331.94 842.24,331.6 C841.57,331.38 840.63,330.92 839.37,330.16 C838.35,329.54 837.63,329.19 837.16,329.05 C837.09,329.51 837.39,330.37 838.24,331.89 C838.91,333.02 840.07,334.72 841.77,337.01 C843,338.67 843.52,339.56 843.55,339.86 M805.03,326.56 L804.99,326.12 C804.98,325.74 805.1,325.57 805.47,325.48 C805.83,325.43 805.98,325.54 806.04,325.9 C806.06,326.04 806.07,326.19 806.08,326.35 C806.23,328.43 806.14,330.34 805.81,332.19 C805.6,334.04 805.29,336.19 804.89,338.65 C804.35,341.86 804.16,343.42 804.16,343.47 C804.37,343.56 804.67,343.42 805.21,342.94 C805.83,342.35 806.49,341.52 807.21,340.39 C808.85,337.67 809.72,335.37 810.02,333.13 C810.07,332.76 810.23,332.61 810.6,332.59 C810.78,332.6 810.89,332.66 810.99,332.81 C813.34,336.47 815.15,338.63 816.6,339.68 L816.54,338.69 C816.45,337.3 816.16,335.84 815.64,334.21 C815.61,334.13 815.6,334.05 815.61,333.97 C815.98,331.14 816.27,325.7 816.45,317.6 L816.49,315.99 C816.51,315.61 816.66,315.45 817.03,315.4 C817.24,315.39 817.36,315.45 817.47,315.62 C821.22,321.95 823.49,326.37 824.43,329 C825.56,332.63 825.78,336.31 825.1,340.62 C825.69,340.24 826.37,339.23 827.27,337.24 C828.41,334.53 828.88,332.42 828.82,330.58 C828.81,330.39 828.84,330.27 828.92,330.15 C829.01,330.04 829.13,329.98 829.31,329.93 C829.62,329.89 829.77,329.98 829.86,330.26 C831.06,334.38 833.29,336.87 837.32,338.54 C838.63,339.01 839.92,339.3 841.29,339.43 C841.61,339.46 841.9,339.47 842.17,339.47 L840.9,337.76 C839.18,335.44 838,333.7 837.32,332.55 C836.01,330.14 835.85,328.91 836.72,328.04 C836.84,327.95 836.95,327.91 837.09,327.91 C837.7,327.97 838.62,328.36 840,329.19 C841.94,330.33 843.23,330.72 844.28,330.57 C844.04,330.42 843.73,330.29 843.32,330.16 C841.36,329.47 839.96,328.39 838.68,326.56 C838.67,326.56 838.67,326.55 838.67,326.54 C838.17,325.64 837.5,324.14 836.68,321.99 C835.45,318.79 834.31,316.36 833.25,314.59 C832.58,313.53 831.85,312.52 831.03,311.53 C828.94,310.05 827.22,308.43 825.74,306.54 C825.59,306.31 825.6,306.13 825.77,305.87 C825.9,305.72 826,305.64 826.13,305.61 C826.26,305.59 826.38,305.62 826.52,305.72 C828.53,307.27 830.26,308.89 831.79,310.66 C833.94,312.06 836.35,313.22 839.17,314.19 C841.39,314.89 843.23,315.23 844.84,315.28 C846.21,315.28 846.78,315.13 846.93,314.78 C846.87,313.95 845.2,312.09 840.95,308.45 C838.88,306.69 837.48,305.42 836.72,304.65 C835.34,303.18 834.86,302.25 834.98,301.43 C835.04,301.24 835.11,301.13 835.22,301.04 C835.34,300.97 835.46,300.94 835.64,300.96 C835.78,300.99 835.88,301.05 835.95,301.18 C837.65,303.94 840.8,306.54 845.95,309.23 C851.71,312.05 856.31,312.84 860.64,311.89 C860.26,311.28 859.01,310.31 856.57,308.84 C853.34,306.87 851.45,305.34 850.56,304.13 C846.88,302.42 842.29,299.69 836.73,295.81 C830.6,291.46 827.65,288.61 827.12,286.98 C822.68,281.59 818.99,278.33 815.71,276.82 C815.66,276.8 815.61,276.77 815.57,276.73 C815.09,276.23 814.75,275.62 814.49,274.8 L814.48,274.74 C812.79,270.87 812.69,268.23 814.09,265.56 C815.3,263.71 816.77,262.65 819.06,261.98 L819.07,261.98 C819.62,261.86 820.27,261.74 821.03,261.62 C821.46,261.55 821.85,261.47 822.22,261.37 L820.64,260.99 L819.91,260.82 C818.78,260.69 818.02,260.49 817.52,260.23 C817.29,260.08 817.23,259.92 817.31,259.63 C817.38,259.45 817.46,259.33 817.57,259.26 C817.69,259.19 817.81,259.18 817.99,259.22 L820.22,259.75 C820.6,259.79 821.03,259.82 821.5,259.84 C823.41,259.94 824.62,260.17 825.32,260.51 C826.28,261.12 826.63,261.88 826.57,263.24 C827.04,262.87 827.49,262.42 827.94,261.87 C828.73,260.83 829.06,260.01 829.07,259.16 C828.66,256.72 825.66,255.84 818.57,255.91 C818.43,255.91 818.33,255.87 818.23,255.79 C816.73,254.47 814.77,253.66 811.8,253.17 C808.5,252.78 805.46,253.05 802.18,254.04 C793.73,256.98 788.61,263.34 785.98,274.46 L786.08,274.53 C786.54,274.9 787.11,275.3 787.79,275.74 C788.08,275.94 788.12,276.14 787.92,276.48 C787.74,276.74 787.56,276.8 787.28,276.71 C783.15,275.19 773.33,273.77 757.57,271.86 L754.62,271.49 C754.6,271.49 754.58,271.48 754.56,271.48 C747.66,269.71 738.21,266.04 726.08,260.12 C719.31,256.81 716.09,255.51 715.58,255.62 C715.55,255.64 715.52,255.66 715.48,255.68 C715.49,255.8 715.55,255.98 715.67,256.23 C715.97,256.8 716.51,257.58 717.33,258.6 C718.38,259.86 720.24,261.89 722.92,264.67 L725.31,267.17 C725.63,267.52 725.85,267.79 725.99,267.98 C726.09,268.11 726.15,268.23 726.19,268.33 C726.24,268.44 726.25,268.55 726.24,268.66 C726.19,268.9 726.09,269.03 725.87,269.12 C725.71,269.17 725.59,269.16 725.44,269.08 C717.08,264.38 706.24,259 692.9,252.73 C690.48,251.7 687.16,249.86 682.87,247.09 C680.15,245.33 678.78,244.54 678.62,244.5 C677.86,246.62 679.26,249.74 683.58,255.12 C687.27,259.55 690.15,262.36 692.34,263.82 C693.21,264.33 697.44,266.53 705.06,270.27 L712.02,273.66 L714.2,274.75 C714.46,274.88 714.66,274.99 714.79,275.06 C714.87,275.11 714.94,275.15 714.98,275.18 C715.03,275.22 715.07,275.26 715.11,275.3 C715.19,275.4 715.23,275.51 715.25,275.64 C715.25,275.92 715.15,276.07 714.89,276.17 C714.76,276.21 714.65,276.2 714.51,276.15 C699.37,269.22 689.51,264.31 684.92,261.95 C680.64,259.71 678.12,258.15 677.13,257.29 C676.12,256.82 674.25,255.29 671.38,252.39 C668.72,249.7 667.17,248.4 666.57,248.15 C666.51,248.44 666.55,249.1 666.76,250.23 C667.11,251.98 667.74,253.76 668.7,255.69 C671.65,261.24 675.91,265.27 682.11,268.29 C682.14,268.31 682.17,268.33 682.2,268.35 C682.98,268.86 688.15,271.28 697.88,275.32 L708.49,279.71 C710.03,280.36 711.18,280.87 711.95,281.23 C713.15,281.83 713.56,282.23 713.47,282.68 C713.39,282.78 713.11,282.77 712.46,282.6 C712.48,282.66 712.52,282.72 712.57,282.77 C712.55,282.75 712.5,282.71 712.42,282.67 C712.34,282.62 712.25,282.56 712.13,282.5 C710.54,282 707.56,280.86 703.14,278.97 L685.93,271.36 L678.34,267.91 C676.05,266.84 672.67,264.51 668.06,260.67 C664.93,258.05 663.44,257.03 663.12,257.04 L663.1,257.04 C663.03,257.13 663.11,257.49 663.41,258.33 C663.81,259.4 664.45,260.6 665.35,261.99 C667.79,265.54 670.24,267.86 673.1,269.42 L676.27,271.03 C680.82,273.34 684.96,275.36 688.7,277.1 L698.1,281.11 L700.43,282.08 L701,282.32 L701.12,282.37 L701.15,282.39 C701.17,282.39 701.18,282.4 701.2,282.41 C701.27,282.46 701.33,282.51 701.37,282.58 C701.45,282.7 701.48,282.81 701.47,282.95 C701.44,283.15 701.36,283.27 701.19,283.37 C701.1,283.4 701.02,283.42 700.92,283.41 C700.87,283.41 700.82,283.39 700.77,283.37 C697.28,282.05 693.14,280.3 688.32,278.09 L669.29,269.56 C669.27,269.55 669.25,269.54 669.23,269.53 C667.6,268.53 665.78,267.16 663.73,265.36 C662.75,264.5 662.22,264.05 662.14,264 C662.13,264.08 662.12,264.19 662.14,264.34 C662.19,264.79 662.34,265.32 662.6,265.97 C663.44,267.79 664.77,269.62 666.79,271.67 C673.09,277.72 683.04,282.79 697.21,286.7 C697.24,286.71 697.27,286.72 697.29,286.73 C697.33,286.74 697.4,286.75 697.51,286.75 C698.23,286.67 699.33,286.54 700.79,286.33 L704.74,285.66 L707.39,285.19 C707.74,285.13 708,285.1 708.15,285.08 C708.28,285.07 708.37,285.07 708.44,285.08 C708.75,285.14 708.88,285.28 708.93,285.58 C708.94,285.82 708.87,285.97 708.68,286.11 C708.49,286.18 706.59,286.55 702.87,287.12 C699.07,287.69 696.95,287.9 696.44,287.87 C696.43,287.87 696.42,287.87 696.4,287.87 C695.97,287.81 694.78,287.83 692.78,287.99 C691.93,288.06 691.22,288.13 690.65,288.21 C690.41,288.24 690.22,288.27 690.07,288.3 C690.13,288.43 690.24,288.61 690.42,288.84 C690.95,289.47 691.72,290.03 692.86,290.61 C696.4,292.2 701.61,293 709.01,292.91 C709.7,292.86 712.16,292.35 716.47,291.24 L720.74,290.17 C721.33,290.03 721.75,289.95 722.01,289.92 C722.24,289.9 722.41,289.92 722.54,289.98 C722.86,290.16 722.94,290.36 722.83,290.7 C722.79,290.81 722.72,290.9 722.62,291 C722.25,291.2 719.43,292.15 713.9,293.69 C708.45,295.17 705.42,295.86 704.74,295.93 L703.97,295.99 C700.72,296.24 698.89,296.41 698.44,296.5 C698.54,296.63 698.68,296.77 698.86,296.93 C699.44,297.42 700.2,297.9 701.19,298.41 C704.01,299.73 707.27,300.58 711.32,301.01 C715.53,301.29 722.55,300.27 732.68,297.6 L734.27,297.18 C734.46,297.13 734.61,297.1 734.7,297.08 C734.78,297.07 734.85,297.06 734.91,297.06 C735.08,297.08 735.19,297.14 735.3,297.26 C735.5,297.54 735.5,297.74 735.28,297.99 C735.05,298.13 732.15,299.22 726.35,301.08 L719.71,303.21 C719.69,303.23 719.67,303.24 719.64,303.26 C719.41,303.35 718.48,303.48 716.78,303.62 L714.5,303.82 C714.29,303.84 714.11,303.87 713.96,303.89 C714.2,304.15 714.52,304.42 714.95,304.72 C716.3,305.57 717.97,306.22 720.15,306.72 C726.78,308.04 734.96,307.21 745.33,303.91 C745.69,303.82 745.87,303.91 745.99,304.26 C746.04,304.46 746.02,304.6 745.9,304.76 C744.56,306.23 740.98,307.88 734.37,309.74 L732.22,310.34 L731.99,310.42 L732.03,310.46 C732.36,310.77 732.78,311.1 733.3,311.45 C734.78,312.38 736.31,313.01 738.07,313.41 C740.05,313.78 742.39,313.77 745.36,313.35 L745.37,313.35 C750.91,312.16 755.89,309.54 760.88,305.17 C761.02,305.05 761.14,305 761.27,305 C761.4,305.02 761.5,305.08 761.62,305.21 C761.65,305.25 761.68,305.29 761.7,305.34 C761.89,306.13 761.1,307.08 758.75,308.74 C757.55,309.55 755.43,310.87 752.39,312.68 L748.23,315.18 C747.76,315.48 747.41,315.73 747.17,315.91 C748.81,316.78 751.28,316.94 755.41,316.28 C758.9,315.64 761.1,315.01 762.23,314.44 C765.8,312.45 769.66,310.2 773.8,307.69 C781.02,303.27 784.3,300.91 784.46,300.59 C784.46,300.22 784.6,300.06 784.96,299.99 C785.28,299.97 785.43,300.08 785.51,300.39 C785.51,300.41 785.51,300.44 785.51,300.46 L785.52,300.46 C785.52,300.53 785.5,300.61 785.46,300.7 C784.97,301.55 783.03,303.19 779.13,305.76 C776.69,307.33 772.55,309.89 766.7,313.36 L760.07,317.28 C759.19,317.81 758.54,318.22 758.11,318.5 L757.92,318.63 C758.91,319.23 760.59,319.32 763.61,318.81 C766.4,318.28 768.11,317.78 768.94,317.35 L768.95,317.35 L775.31,313.81 L781.67,310.22 L781.69,310.21 L781.69,310.21 C781.81,310.14 781.92,310.12 782.05,310.14 C782.35,310.22 782.46,310.36 782.45,310.69 C782.44,310.8 782.41,310.89 782.34,310.99 C782.31,311.02 782.29,311.05 782.26,311.08 C782.24,311.09 782.23,311.1 782.22,311.11 C782.21,311.11 782.21,311.12 782.2,311.12 C782.19,311.13 782.18,311.13 782.17,311.14 L782.17,311.14 L782.09,311.19 C779.38,312.91 776.97,314.49 774.87,315.94 C773.06,317.2 771.71,318.22 770.79,319 C770.28,319.45 769.93,319.8 769.72,320.07 C769.69,320.12 769.66,320.17 769.64,320.2 C769.68,320.29 769.69,320.39 769.68,320.5 C769.66,320.89 769.79,321.1 770.16,321.27 C770.66,321.45 771.36,321.5 772.41,321.41 C774.28,321.18 776.85,320.55 780.23,319.41 C782.88,318.48 785.66,317.38 788.59,316.08 L790.99,314.98 L791.84,314.5 L792.99,313.88 C793.13,313.81 793.24,313.77 793.3,313.74 C793.35,313.72 793.41,313.71 793.46,313.71 C793.65,313.7 793.77,313.76 793.89,313.9 C794.03,314.11 794.03,314.29 793.89,314.53 C793.84,314.6 793.77,314.67 793.68,314.73 C793.31,314.98 792.56,315.38 791.43,315.93 C790.42,316.51 789.44,317.11 788.46,317.73 C784.84,320.07 783.19,321.52 782.84,322.46 C784.68,324.77 787.37,325.74 792.11,325.64 C793.86,325.54 795.54,325.27 797.23,324.84 C798.71,324.43 799.62,324.05 800.12,323.69 C800.3,323.55 800.46,323.49 800.64,323.49 C800.91,323.52 801.05,323.63 801.15,323.89 C801.21,324.07 801.21,324.31 801.16,324.65 C801.11,324.98 800.96,325.6 800.72,326.5 L800.68,326.64 L801.11,326.08 C802.05,324.81 802.71,323.76 803.12,322.9 C803.3,322.56 803.49,322.47 803.83,322.59 C804.07,322.7 804.15,322.85 804.12,323.14 C804,323.74 803.66,324.86 803.08,326.5 C802.4,328.39 801.93,329.86 801.66,330.92 C801.44,331.82 801.17,333.24 800.84,335.18 C800.44,337.57 800.06,339.46 799.7,340.88 L799.85,340.78 C800.63,340.22 801.39,339.43 802.2,338.28 C803.47,336.35 804.29,334.38 804.78,332.08 C805.03,329.69 805.11,327.87 805.03,326.56 M662.13,263.99 L662.13,263.99 C662.11,264.01 662.08,264.03 662.05,264.05 C662.09,264.02 662.12,264.01 662.13,263.99 M731.74,310.26 C731.75,310.24 731.75,310.22 731.75,310.2 C731.75,310.23 731.74,310.26 731.74,310.29 L731.74,310.26"/>
  <path fill="#ef7d00" d="M732.21,271.84 C732.04,271.95 727.81,274.72 722.05,274.71 C724.25,279.78 734.52,276.31 735.13,276.11 C734.98,276.27 729.53,281.57 725.47,282.81 C728.37,284.58 737.59,284.1 739.76,283.21 C741.43,282.12 744.45,278.61 744.49,278.56 C744.24,278.83 734.11,289.38 732.51,289.8 C733.12,291.06 742.79,290.63 745.8,288.67 C748.21,286.75 753.91,283.65 753.95,283.64 C753.83,283.72 738.65,293.55 737.95,293.8 C743.92,295.06 754.89,291.99 762.5,287.48 C751.66,294.63 750.61,295.78 745.09,298.13 C750.01,299.22 752.54,302.2 769.24,294.89 C778.78,289.98 784.16,282.22 784.24,282.1 C778.19,289.93 768.98,296.73 758.58,303.29 C758.37,304.58 769.28,308.67 784.54,293.33 C767.27,286.88 750.01,279.76 732.21,271.84"/>
  <path fill="#000" d="M732.51,272.28 C731.71,272.82 730.71,273.36 729.45,273.89 C727.16,274.79 725.04,275.22 722.84,275.27 C723.84,276.67 725.59,277.16 729.06,276.89 C731.1,276.66 733.03,276.24 734.96,275.6 C735.13,275.54 735.26,275.54 735.38,275.6 C735.49,275.66 735.57,275.76 735.63,275.94 C735.69,276.16 735.66,276.32 735.51,276.49 C734.54,277.47 733.43,278.49 732.14,279.56 C730.09,281.2 728.37,282.29 726.86,282.94 C728.17,283.34 730.11,283.57 732.87,283.57 C736.41,283.51 738.5,283.21 739.51,282.74 C739.84,282.55 740.2,282.29 740.61,281.95 L744.11,278.19 C744.36,277.95 744.55,277.93 744.83,278.15 C744.96,278.27 745.03,278.38 745.05,278.51 C745.05,278.64 745.01,278.76 744.89,278.91 C743.47,280.63 742.27,281.91 741.27,282.78 C737.64,286.56 735.11,288.85 733.65,289.85 C733.82,289.89 734.02,289.91 734.23,289.94 C735.3,290.04 736.6,290.06 738.18,289.96 C742.1,289.67 744.32,289.09 745.46,288.26 C747.08,286.92 749.78,285.24 753.72,283.16 C753.88,283.07 754,283.06 754.13,283.09 C754.25,283.14 754.34,283.23 754.42,283.39 C754.55,283.69 754.5,283.88 754.23,284.09 C746.84,289.07 741.96,292.16 739.59,293.54 C742.19,293.76 745.39,293.4 749.5,292.36 C754.27,291.04 758.44,289.28 762.24,287.02 C762.57,286.84 762.76,286.89 762.96,287.2 C763.12,287.52 763.07,287.72 762.78,287.93 L755.22,292.97 C751.89,295.18 749.08,296.83 746.73,297.98 L747.56,298.22 C750.14,298.93 752.36,299.18 754.49,299.02 C758.09,298.6 762.85,297.14 769.03,294.41 L769.05,294.4 C771.38,293.23 773.59,291.84 775.75,290.18 C779.15,287.18 781.81,284.4 783.83,281.79 C784.06,281.51 784.25,281.47 784.55,281.64 C784.83,281.86 784.86,282.06 784.67,282.39 C783.72,283.76 782.41,285.33 780.69,287.12 C779.28,288.54 777.84,289.84 776.36,291.03 C771.85,294.92 766.2,299.07 759.32,303.45 C759.6,303.6 759.96,303.74 760.43,303.87 C761.95,304.24 763.63,304.29 765.69,304.02 C771.88,302.98 777.81,299.47 784.18,292.97 C784.45,292.7 784.65,292.7 784.92,292.94 C785.04,293.07 785.1,293.18 785.1,293.31 C785.09,293.44 785.03,293.56 784.9,293.7 C778.36,300.39 772.23,304.02 765.8,305.09 C763.6,305.38 761.79,305.32 760.14,304.92 C759.48,304.74 758.99,304.53 758.61,304.28 C758.04,303.86 757.91,303.52 758.12,303.04 C758.17,302.95 758.23,302.89 758.31,302.83 C762.25,300.34 765.8,297.93 768.97,295.6 C762.9,298.25 758.19,299.67 754.57,300.09 C752.31,300.27 749.97,300.01 747.26,299.26 C746.27,298.97 745.51,298.77 744.99,298.66 C744.8,298.61 744.69,298.52 744.6,298.33 C744.49,297.98 744.57,297.79 744.9,297.63 C747.44,296.53 750.67,294.71 754.66,292.07 L755.41,291.56 C753.6,292.26 751.72,292.87 749.75,293.4 C744.58,294.71 740.79,294.97 737.82,294.33 C737.55,294.24 737.44,294.1 737.42,293.8 C737.44,293.43 737.58,293.28 737.95,293.26 C738.15,293.21 739.65,292.36 742.56,290.51 C741.37,290.74 739.94,290.93 738.25,291.04 C736.61,291.14 735.25,291.12 734.13,291.01 C733.53,290.94 733.08,290.84 732.75,290.72 C732.16,290.47 731.95,290.19 731.99,289.71 C732.06,289.38 732.21,289.26 732.55,289.26 C733.17,289.15 734.99,287.69 738.43,284.21 C737.12,284.46 735.3,284.62 732.89,284.65 C728.83,284.62 726.48,284.14 725.15,283.23 C725.05,283.15 724.99,283.05 724.96,282.92 C724.92,282.74 724.93,282.61 725,282.5 C725.07,282.39 725.18,282.32 725.35,282.28 C726.98,281.85 728.93,280.75 731.48,278.71 C732.08,278.22 732.64,277.73 733.17,277.26 C731.86,277.58 730.54,277.82 729.18,277.96 C724.55,278.29 722.47,277.41 721.54,274.84 C721.53,274.78 721.52,274.73 721.52,274.68 C721.55,274.3 721.7,274.17 722.07,274.17 C724.39,274.24 726.6,273.84 729.04,272.89 C730.23,272.38 731.18,271.89 731.91,271.39 C732.06,271.29 732.18,271.25 732.31,271.27 C732.44,271.3 732.54,271.38 732.65,271.53 C732.84,271.85 732.8,272.05 732.51,272.28"/>
  <path fill="#ef7d00" d="M813.12,299.54 C813.17,299.73 814.21,303.59 818.15,306.82 C822.1,309.99 822.45,312.81 822.48,313 L813.12,299.54"/>
  <path fill="#000" d="M813.63,299.37 C813.8,300.05 814.12,300.84 814.6,301.78 C815.63,303.67 816.86,305.12 818.49,306.36 C820.24,307.68 821.43,309.05 822.3,310.71 C822.71,311.56 822.93,312.26 823,312.88 C823.02,313.25 822.89,313.43 822.53,313.53 C822.34,313.56 822.23,313.55 822.12,313.48 C822.02,313.4 821.97,313.3 821.95,313.11 C821.89,312.62 821.7,312.03 821.35,311.29 C820.55,309.77 819.44,308.5 817.81,307.27 C816.07,305.94 814.76,304.4 813.65,302.38 C813.14,301.36 812.8,300.49 812.61,299.72 C812.57,299.55 812.58,299.42 812.64,299.29 C812.72,299.18 812.82,299.1 813,299.03 C813.36,298.93 813.53,299.02 813.63,299.37"/>
  <path fill="#ef7d00" d="M811.11,270.83 C811.18,271.01 812.55,274.37 816.64,276.74 C820.94,279.07 826.99,285.9 827.71,287.35 C828.17,289.1 830.46,300.96 830.43,302.38 L811.11,270.83"/>
  <path fill="#000" d="M811.6,270.59 C811.84,271.19 812.21,271.87 812.76,272.65 C813.94,274.22 815.24,275.35 816.91,276.24 C818.85,277.26 821.14,279.07 823.97,281.91 C826.46,284.48 827.79,286.16 828.21,287.1 L828.22,287.13 C828.52,288.21 829.07,290.76 829.85,294.81 C830.67,299.23 830.99,301.7 830.95,302.39 C830.87,302.77 830.71,302.92 830.35,302.93 C830.17,302.92 830.06,302.88 829.98,302.79 C829.91,302.68 829.88,302.56 829.91,302.38 C829.93,301.81 829.62,299.45 828.81,295.15 C828.04,291.15 827.5,288.64 827.21,287.58 C826.83,286.77 825.57,285.19 823.18,282.73 C820.43,279.96 818.22,278.2 816.37,277.23 C814.56,276.27 813.16,275.05 811.89,273.35 C811.29,272.5 810.88,271.75 810.61,271.07 C810.5,270.72 810.59,270.53 810.93,270.34 C811.28,270.2 811.46,270.26 811.6,270.59"/>
  <path fill="#ef7d00" d="M785.45,279.19 C785.44,280.92 779.89,288.43 788.06,297.16 C780.34,306.63 780.32,307.63 780.31,307.68 C780.53,307.77 784.38,309.53 792.39,302.9 C804.94,316.88 801.05,323.44 800.91,323.69 L785.45,279.19"/>
  <path fill="#000" d="M785.96,279.04 C786,279.38 785.85,280.04 785.44,281.15 C784.49,283.77 784.06,285.88 784.06,287.72 C784.3,291.09 785.6,293.83 788.44,296.76 C788.66,297.01 788.67,297.21 788.45,297.49 C785.24,301.42 783.01,304.32 781.71,306.23 C781.38,306.73 781.14,307.1 781,307.34 C781.62,307.47 782.38,307.47 783.39,307.31 C786.09,306.75 788.79,305.28 792.06,302.5 C792.35,302.27 792.54,302.27 792.78,302.51 C798.2,308.44 801.11,313.47 801.96,318.29 C802.3,320.83 802.1,322.53 801.35,323.94 C801.25,324.1 801.15,324.19 801.03,324.24 C800.9,324.27 800.78,324.25 800.62,324.17 C800.33,323.97 800.29,323.77 800.47,323.43 C801.07,322.28 801.22,320.81 800.92,318.55 C800.12,314.03 797.39,309.28 792.32,303.64 C789.04,306.35 786.29,307.8 783.5,308.38 C781.99,308.6 780.93,308.53 780.07,308.17 C779.88,308.07 779.8,307.94 779.79,307.71 C779.95,306.78 782.25,303.46 787.34,297.22 C784.55,294.19 783.24,291.34 783.01,287.82 C783,285.83 783.46,283.58 784.46,280.81 C784.8,279.92 784.93,279.45 784.93,279.33 C784.88,278.96 784.99,278.78 785.34,278.66 C785.52,278.62 785.64,278.63 785.75,278.69 C785.86,278.76 785.92,278.86 785.96,279.04"/>
  <path fill="#ef7d00" d="M799.89,313.37 C799.83,313.26 798.85,311.99 800.81,305.78 C802.79,307.66 804.74,308.08 805.73,308.78 C807.11,309.49 815.67,309.98 816.91,315.82 L799.89,313.37"/>
  <path fill="#000" d="M799.47,313.73 C798.67,312.4 798.86,310.07 800.32,305.64 C800.46,305.28 800.64,305.18 800.99,305.26 C801.08,305.28 801.14,305.32 801.2,305.38 C802,306.17 803.06,306.86 804.55,307.53 C805.32,307.86 805.81,308.14 806.08,308.35 C806.19,308.41 806.73,308.57 807.78,308.81 C810.33,309.4 812.21,310.01 813.52,310.64 C815.97,312 817.08,313.45 817.43,315.7 C817.45,315.88 817.42,316.01 817.34,316.13 C817.26,316.24 817.14,316.3 816.96,316.35 C816.6,316.41 816.44,316.3 816.39,315.93 C816.09,314.05 815.12,312.81 812.98,311.63 C811.74,311.02 809.93,310.44 807.46,309.87 C806.26,309.6 805.6,309.37 805.37,309.21 C805.17,309.06 804.75,308.83 804.07,308.53 C802.83,307.98 801.84,307.39 801.04,306.75 C800.39,308.87 800.09,310.5 800.09,311.8 C800.12,312.45 800.19,312.82 800.31,313 C800.52,313.29 800.49,313.5 800.21,313.77 C800.06,313.89 799.95,313.94 799.82,313.94 C799.69,313.93 799.59,313.87 799.47,313.73"/>
  <path fill="#ef7d00" d="M811.24,256.72 C811.05,256.03 809.53,252.91 802.04,258.17 C806.21,258.2 809.39,259.5 811.24,256.72"/>
  <path fill="#000" d="M811.76,256.66 C811.76,256.75 811.74,256.84 811.7,256.92 C811.07,258.08 810.28,258.68 808.94,258.97 C808.22,259.08 807.03,259.07 805.32,258.9 C803.86,258.76 802.76,258.7 802.01,258.71 C801.83,258.71 801.71,258.65 801.6,258.51 C801.42,258.2 801.46,257.99 801.75,257.75 C805.11,255.27 807.4,254.39 809.51,254.65 C810.23,254.81 810.75,255.1 811.22,255.58 C811.58,255.99 811.74,256.32 811.76,256.66 M810.68,256.69 C810.63,256.62 810.55,256.51 810.42,256.37 C810.09,256.03 809.72,255.83 809.21,255.72 C807.71,255.52 806.04,256.08 803.62,257.66 C804.17,257.7 804.81,257.75 805.52,257.82 C807.14,257.98 808.23,257.99 808.87,257.9 C809.72,257.72 810.25,257.36 810.68,256.69"/>
  <path fill="#ef7d00" d="M880.42,262.88 C881.15,262.92 901.59,261.75 909.18,257.53 C899.5,271.51 882.51,268.59 882.02,268.5 C890.92,268.84 891.2,268.56 894.09,270.12 C894.22,272.35 878.35,275.21 872.07,273.62 C887.92,274.77 888.16,274.07 888.76,275.84 C888.55,278.59 863.68,280.95 860.54,278.2 C867.68,281.88 871.51,282.15 875.45,283.55 C870.51,286.67 861.94,290.53 845.45,282.62 C867.14,297.11 886.1,291.61 889.3,293.89 C881.13,306.23 853.5,296.06 839.59,289.57 C827.11,283.75 867.92,303.92 872.61,303.03 C869.91,306.27 857.33,306.56 855.74,305.47 L880.42,262.88"/>
  <path fill="#000" d="M880.64,262.34 C881.55,262.47 885.37,262.29 892.34,261.42 C900.61,260.3 906.02,258.77 909.03,257.06 C909.38,256.87 909.56,256.91 909.68,257.23 C909.73,257.4 909.7,257.56 909.59,257.75 C905.59,263.69 900.3,267.22 892.73,268.81 C893.27,269.02 893.82,269.29 894.42,269.61 C894.49,269.66 894.54,269.71 894.57,269.79 C894.78,270.36 894.58,270.79 893.84,271.35 C893.39,271.66 892.75,271.97 891.87,272.29 C890.22,272.87 888.13,273.41 885.52,273.88 C886.47,273.95 887.1,274.02 887.44,274.07 C888.44,274.3 888.95,274.72 889.27,275.56 C889.36,275.96 889.26,276.27 888.89,276.66 C888.67,276.86 888.37,277.06 887.96,277.26 C887.26,277.57 886.28,277.9 884.98,278.23 C882.46,278.83 879.39,279.33 875.71,279.71 C871.85,280.06 868.72,280.18 866.26,280.11 C867.94,280.73 869.72,281.29 871.6,281.8 C873.45,282.29 874.82,282.7 875.71,283.02 C875.87,283.08 875.95,283.16 875.99,283.28 C876.02,283.4 875.99,283.53 875.9,283.72 C875.84,283.84 875.76,283.93 875.65,284 C868.91,288.17 861.53,288.89 852.37,286.08 C856.93,288.39 861.61,290.07 866.59,291.17 C870.81,292.03 876.04,292.53 882.39,292.57 C886.65,292.6 888.86,292.9 889.68,293.42 C889.88,293.61 889.89,293.8 889.72,294.1 C886.05,299.69 878.77,301.58 866.45,299.44 C862.45,298.67 858.13,297.5 853.43,295.89 C864.9,300.98 871.05,302.85 872.54,302.51 C872.91,302.4 873.07,302.49 873.13,302.85 C873.14,302.99 873.12,303.11 873.04,303.25 C871.8,304.91 869.1,305.94 863.72,306.51 C858.59,306.92 856.16,306.64 855.31,305.86 C855.21,305.72 855.18,305.6 855.19,305.47 C855.22,305.33 855.3,305.22 855.45,305.08 C855.76,304.83 855.96,304.83 856.18,305.09 C856.38,305.26 857.1,305.41 858.61,305.52 C860.19,305.61 861.92,305.58 863.83,305.42 C867.63,305.03 869.99,304.41 871.37,303.6 C868.26,303.19 860.98,300.66 849.36,295.31 C844.74,293.16 841.05,291.32 838.29,289.85 L837.05,289.17 C836.9,289.08 836.8,289.01 836.73,288.97 C836.67,288.92 836.62,288.88 836.59,288.83 C836.45,288.64 836.45,288.47 836.56,288.24 C836.7,288 836.86,287.9 837.12,287.9 C837.3,287.93 838.2,288.29 839.86,289.07 C850.2,293.87 859.13,296.88 866.83,298.35 C878.26,300.33 885.03,298.83 888.55,294.16 C887.62,293.88 885.55,293.7 882.15,293.68 C875.74,293.64 870.46,293.13 866.19,292.25 C858.61,290.57 851.7,287.54 845.11,283.09 C844.87,282.9 844.84,282.71 845,282.4 C845.11,282.23 845.21,282.13 845.33,282.08 C845.46,282.03 845.58,282.04 845.73,282.12 C857.2,287.65 866.27,288.07 874.19,283.74 C873.39,283.49 872.38,283.2 871.15,282.87 C867.79,281.96 864.77,280.87 862.03,279.6 C861.06,279.32 860.48,279.01 860.11,278.59 C860,278.46 859.97,278.34 859.99,278.21 C860.01,278.07 860.09,277.95 860.23,277.82 C860.45,277.63 860.62,277.6 860.84,277.7 C861.46,278.02 862.1,278.34 862.76,278.65 C865.13,279.13 869.41,279.19 875.85,278.6 C879.48,278.23 882.5,277.74 884.98,277.15 C886.21,276.84 887.12,276.54 887.74,276.26 C887.95,276.16 888.1,276.07 888.21,275.99 C887.99,275.54 887.65,275.31 887.03,275.17 C886.29,275.06 883.91,274.9 879.86,274.68 L879.47,274.66 C876.15,274.86 873.7,274.68 871.83,274.16 C871.67,274.1 871.59,274.03 871.54,273.92 C871.51,273.8 871.53,273.66 871.61,273.48 C871.76,273.18 871.93,273.07 872.22,273.07 L879.71,273.55 C881.45,273.41 883.4,273.16 885.58,272.79 C888.13,272.32 890.18,271.8 891.77,271.25 C892.53,270.96 893.07,270.7 893.42,270.47 C893.43,270.47 893.43,270.46 893.44,270.46 C892.42,269.93 891.55,269.62 890.75,269.47 C890.41,269.42 889.85,269.37 889.06,269.32 C886.43,269.52 884.06,269.43 881.81,269.05 C881.65,269.01 881.56,268.96 881.5,268.85 C881.46,268.73 881.46,268.6 881.53,268.41 C881.67,268.08 881.84,267.95 882.16,267.95 L885.53,268.07 L889.3,268.21 C890.25,268.12 891.23,267.99 892.25,267.82 C899.03,266.51 903.87,263.66 907.69,258.86 C904.36,260.3 899.28,261.58 892.2,262.52 C885.13,263.41 881.2,263.58 880.2,263.42 C879.87,263.33 879.8,263.15 879.94,262.77 C880.02,262.58 880.11,262.47 880.22,262.39 C880.35,262.32 880.47,262.3 880.64,262.34"/>
  <path fill="#ef7d00" d="M885.92,280.73 C883.36,281.63 876.02,283.36 874.92,283.5 L885.92,280.73"/>
  <path fill="#000" d="M885.99,281.25 C884.81,281.68 882.78,282.28 879.89,283 C877.14,283.66 875.47,283.99 874.84,284.05 C874.48,284.06 874.36,283.92 874.4,283.54 C874.43,283.35 874.49,283.22 874.58,283.11 C874.69,283.02 874.82,282.97 875,282.95 C875.57,282.89 877.19,282.57 879.88,281.92 C882.73,281.21 884.71,280.63 885.85,280.21 C886.22,280.09 886.38,280.17 886.44,280.53 C886.46,280.71 886.44,280.84 886.37,280.97 C886.28,281.09 886.17,281.17 885.99,281.25"/>
  <path fill="#ef7d00" d="M725.97,268.73 C726.23,268.86 741.96,276.56 749.02,276.25 C747.09,277.81 744.56,278.54 744.49,278.56 C746.33,279.29 750.8,281.33 758.07,279.86 C756.35,281.49 754.15,283.35 754.15,283.35 C754.38,283.42 760.03,285.17 767.23,281.74 C765.14,284.29 763.91,286.11 763.91,286.11 L768.74,286.22 C754.63,280.85 740.52,275.07 725.97,268.73"/>
  <path fill="#000" d="M726.2,268.25 C728.9,269.61 731.87,270.96 735.12,272.27 C741.67,274.85 746.13,275.88 748.97,275.71 C749.16,275.7 749.28,275.73 749.38,275.81 C749.47,275.9 749.52,276.01 749.54,276.2 C749.55,276.39 749.5,276.52 749.36,276.65 C748.41,277.47 747.37,278.1 746.12,278.61 C750.19,279.97 753.92,280.2 757.97,279.33 C758.15,279.29 758.27,279.3 758.38,279.37 C758.49,279.44 758.55,279.55 758.59,279.73 C758.62,279.94 758.58,280.09 758.43,280.24 C757.49,281.15 756.44,282.1 755.28,283.09 C756.09,283.25 757.02,283.35 758.11,283.38 C761.31,283.38 764.09,282.71 767,281.26 C767.17,281.18 767.29,281.16 767.42,281.19 C767.54,281.24 767.62,281.32 767.71,281.49 C767.8,281.71 767.78,281.88 767.63,282.08 C766.53,283.4 765.63,284.57 764.9,285.6 L768.77,285.68 C769.14,285.7 769.27,285.85 769.27,286.23 C769.25,286.41 769.21,286.53 769.11,286.63 C769.01,286.72 768.89,286.76 768.71,286.76 L763.88,286.65 C763.78,286.65 763.7,286.62 763.61,286.57 C763.46,286.46 763.39,286.36 763.36,286.23 C763.34,286.1 763.38,285.98 763.48,285.82 C764,285.03 764.64,284.15 765.41,283.16 C763,284.06 760.65,284.47 758.06,284.46 C756.39,284.4 755.07,284.2 753.98,283.86 C753.88,283.83 753.8,283.77 753.74,283.69 C753.63,283.55 753.59,283.43 753.59,283.29 C753.62,283.16 753.68,283.05 753.82,282.93 C754.73,282.17 755.58,281.44 756.36,280.73 C752.41,281.23 748.77,280.78 744.81,279.27 L744.3,279.07 C744.12,278.99 744.03,278.88 743.98,278.69 C743.94,278.51 743.95,278.38 744.01,278.26 C744.09,278.15 744.19,278.09 744.37,278.04 C745.51,277.74 746.48,277.33 747.38,276.8 C744.4,276.56 740.27,275.46 734.74,273.28 C731.46,271.95 728.47,270.59 725.74,269.21 C725.58,269.12 725.49,269.03 725.44,268.91 C725.41,268.78 725.42,268.65 725.5,268.49 C725.68,268.16 725.87,268.1 726.2,268.25"/>
  <path fill="#1A1A1A" opacity="0.2" d="M8,195.25 C178.83,110.03 349.03,140.83 521.26,167.28 C676.47,191.12 833.42,211.85 992,132.75 L992,804.75 C821.17,889.97 650.97,859.17 478.74,832.72 C323.53,808.88 166.58,788.15 8,867.25 L8,195.25 M39.25,214.64 L39.25,819.14 C345.81,690.88 650.43,915.18 960.75,785.36 L960.75,180.86 C654.19,309.12 349.57,84.82 39.25,214.64"/>
</svg>
