<svg enable-background="new 0 0 128 128" viewBox="0 0 128 128" xmlns="http://www.w3.org/2000/svg"><path d="m110.55 117.41-33.63-53.72 29.73-44.82c0.45-0.69 0.5-1.57 0.1-2.3-0.39-0.73-1.14-1.18-1.97-1.18h-24.44c-0.74 0-1.45 0.38-1.86 1l-26.99 40.69v-39.44c0-1.24-1.01-2.24-2.24-2.24h-21.9c-1.24 0-2.24 1-2.24 2.24v100.96c0 1.24 1 2.24 2.24 2.24h21.9c1.23 0 2.24-1 2.24-2.24v-48.05l30.82 49.24c0.41 0.65 1.13 1.05 1.9 1.05h24.44c0.81 0 1.57-0.44 1.96-1.16 0.39-0.71 0.37-1.58-0.06-2.27z" fill="#40C0E7"/></svg>
