<?xml version="1.0" encoding="UTF-8" standalone="no"?><svg xmlns:dc="http://purl.org/dc/elements/1.1/" xmlns:cc="http://creativecommons.org/ns#" xmlns:rdf="http://www.w3.org/1999/02/22-rdf-syntax-ns#" xmlns:svg="http://www.w3.org/2000/svg" xmlns="http://www.w3.org/2000/svg" viewBox="0 0 45 45" style="enable-background:new 0 0 45 45;" xml:space="preserve" version="1.1" id="svg2"><metadata id="metadata8"><rdf:RDF><cc:Work rdf:about=""><dc:format>image/svg+xml</dc:format><dc:type rdf:resource="http://purl.org/dc/dcmitype/StillImage"/></cc:Work></rdf:RDF></metadata><defs id="defs6"><clipPath id="clipPath16" clipPathUnits="userSpaceOnUse"><path id="path18" d="M 0,36 36,36 36,0 0,0 0,36 Z"/></clipPath></defs><g transform="matrix(1.25,0,0,-1.25,0,45)" id="g10"><g id="g12"><g clip-path="url(#clipPath16)" id="g14"><g transform="translate(36,9)" id="g20"><path id="path22" style="fill:#ce1126;fill-opacity:1;fill-rule:nonzero;stroke:none" d="m 0,0 c 0,-2.209 -1.791,-4 -4,-4 l -28,0 c -2.209,0 -4,1.791 -4,4 l 0,18 c 0,2.209 1.791,4 4,4 l 28,0 c 2.209,0 4,-1.791 4,-4 L 0,0 Z"/></g><g transform="translate(32,31)" id="g24"><path id="path26" style="fill:#0038a8;fill-opacity:1;fill-rule:nonzero;stroke:none" d="m 0,0 -28,0 c -2.209,0 -4,-1.791 -4,-4 l 0,-9 36,0 0,9 C 4,-1.791 2.209,0 0,0"/></g><g transform="translate(1.313,6.0547)" id="g28"><path id="path30" style="fill:#eeeeee;fill-opacity:1;fill-rule:nonzero;stroke:none" d="M 0,0 17.718,11.881 0.017,23.904 c -0.811,-0.732 -1.33,-1.78 -1.33,-2.959 l 0,-18 C -1.313,1.774 -0.801,0.731 0,0"/></g><g transform="translate(16.0703,19.48)" id="g32"><path id="path34" style="fill:#fcd116;fill-opacity:1;fill-rule:nonzero;stroke:none" d="m 0,0 0.043,-1.153 1.115,-0.294 -1.084,-0.396 0.066,-1.152 -0.712,0.908 -1.075,-0.417 0.643,0.957 -0.73,0.893 1.11,-0.316 L 0,0 Z"/></g><g transform="translate(1.603,28.0181)" id="g36"><path id="path38" style="fill:#fcd116;fill-opacity:1;fill-rule:nonzero;stroke:none" d="M 0,0 0.866,-0.763 1.846,-0.156 1.388,-1.215 2.268,-1.96 1.12,-1.852 0.683,-2.918 0.432,-1.793 -0.719,-1.708 0.274,-1.121 0,0 Z"/></g><g transform="translate(2.0342,10.8047)" id="g40"><path id="path42" style="fill:#fcd116;fill-opacity:1;fill-rule:nonzero;stroke:none" d="m 0,0 0.574,-1 1.124,0.258 -0.774,-0.855 0.594,-0.989 -1.053,0.473 -0.756,-0.871 0.123,1.147 -1.061,0.45 1.128,0.239 L 0,0 Z"/></g><g transform="translate(10,18.0005)" id="g44"><path id="path46" style="fill:#fcd116;fill-opacity:1;fill-rule:nonzero;stroke:none" d="m 0,0 c 0,-1.657 -1.343,-3.001 -3,-3.001 -1.657,0 -3,1.344 -3,3.001 0,1.657 1.343,3 3,3 1.657,0 3,-1.343 3,-3"/></g><g transform="translate(7.5952,23.4033)" id="g48"><path id="path50" style="fill:#fcd116;fill-opacity:1;fill-rule:nonzero;stroke:none" d="M 0,0 -0.158,-2.648 -0.401,-2.612 -0.316,0.462 -0.595,0.644 -0.875,0.462 -0.79,-2.612 -1.033,-2.648 -1.19,0 l -0.353,-0.219 0.329,-2.696 0.619,0 0.619,0 0.329,2.696 L 0,0 Z"/></g><g transform="translate(6.4048,12.5967)" id="g52"><path id="path54" style="fill:#fcd116;fill-opacity:1;fill-rule:nonzero;stroke:none" d="M 0,0 0.158,2.648 0.401,2.612 0.315,-0.462 0.595,-0.644 0.875,-0.462 0.79,2.612 1.033,2.648 1.19,0 1.543,0.219 1.214,2.916 l -0.619,0 -0.619,0 L -0.353,0.219 0,0 Z"/></g><g transform="translate(2.7583,14.6006)" id="g56"><path id="path58" style="fill:#fcd116;fill-opacity:1;fill-rule:nonzero;stroke:none" d="M 0,0 1.984,1.76 2.131,1.564 -0.103,-0.55 -0.034,-0.877 0.292,-0.945 2.405,1.289 2.603,1.143 0.842,-0.843 1.246,-0.937 2.921,1.202 2.483,1.641 2.044,2.078 -0.095,0.403 0,0 Z"/></g><g transform="translate(11.2417,21.3999)" id="g60"><path id="path62" style="fill:#fcd116;fill-opacity:1;fill-rule:nonzero;stroke:none" d="m 0,0 -1.984,-1.761 -0.147,0.197 2.234,2.113 -0.069,0.327 -0.326,0.069 -2.113,-2.234 -0.198,0.146 1.761,1.985 -0.404,0.094 -1.675,-2.139 0.438,-0.438 0.439,-0.438 2.139,1.675 L 0,0 Z"/></g><g transform="translate(1.5967,18.5952)" id="g64"><path id="path66" style="fill:#fcd116;fill-opacity:1;fill-rule:nonzero;stroke:none" d="M 0,0 2.649,-0.158 2.612,-0.401 -0.462,-0.315 -0.644,-0.595 -0.462,-0.874 2.612,-0.79 2.649,-1.033 0,-1.19 l 0.219,-0.353 2.697,0.329 0,0.619 0,0.619 L 0.219,0.353 0,0 Z"/></g><g transform="translate(12.4033,17.4048)" id="g68"><path id="path70" style="fill:#fcd116;fill-opacity:1;fill-rule:nonzero;stroke:none" d="M 0,0 -2.649,0.158 -2.612,0.401 0.462,0.316 0.644,0.595 0.462,0.875 -2.612,0.79 -2.649,1.033 0,1.19 -0.219,1.543 -2.916,1.215 l 0,-0.62 0,-0.619 2.697,-0.329 L 0,0 Z"/></g><g transform="translate(3.6001,22.2417)" id="g72"><path id="path74" style="fill:#fcd116;fill-opacity:1;fill-rule:nonzero;stroke:none" d="M 0,0 1.761,-1.984 1.563,-2.13 -0.549,0.103 -0.876,0.035 -0.944,-0.292 1.289,-2.405 1.143,-2.603 -0.842,-0.842 -0.937,-1.246 1.203,-2.921 1.641,-2.483 2.079,-2.044 0.404,0.095 0,0 Z"/></g><g transform="translate(10.3999,13.7578)" id="g76"><path id="path78" style="fill:#fcd116;fill-opacity:1;fill-rule:nonzero;stroke:none" d="m 0,0 -1.761,1.985 0.198,0.147 2.112,-2.234 0.327,0.068 0.068,0.327 -2.233,2.113 0.146,0.197 L 0.842,0.843 0.936,1.246 -1.203,2.921 -1.641,2.483 -2.079,2.045 -0.404,-0.094 0,0 Z"/></g></g></g></g></svg>
