<?xml version="1.0" encoding="UTF-8" standalone="no"?><svg xmlns:dc="http://purl.org/dc/elements/1.1/" xmlns:cc="http://creativecommons.org/ns#" xmlns:rdf="http://www.w3.org/1999/02/22-rdf-syntax-ns#" xmlns:svg="http://www.w3.org/2000/svg" xmlns="http://www.w3.org/2000/svg" viewBox="0 0 45 45" style="enable-background:new 0 0 45 45;" xml:space="preserve" version="1.1" id="svg2"><metadata id="metadata8"><rdf:RDF><cc:Work rdf:about=""><dc:format>image/svg+xml</dc:format><dc:type rdf:resource="http://purl.org/dc/dcmitype/StillImage"/></cc:Work></rdf:RDF></metadata><defs id="defs6"><clipPath id="clipPath16" clipPathUnits="userSpaceOnUse"><path id="path18" d="M 4,31 C 1.791,31 0,29.209 0,27 L 0,27 0,9 C 0,6.791 1.791,5 4,5 l 0,0 28,0 c 2.209,0 4,1.791 4,4 l 0,0 0,18 c 0,2.209 -1.791,4 -4,4 l 0,0 -28,0 z"/></clipPath></defs><g transform="matrix(1.25,0,0,-1.25,0,45)" id="g10"><g id="g12"><g clip-path="url(#clipPath16)" id="g14"><g transform="translate(18,11.5)" id="g20"><path id="path22" style="fill:#e70013;fill-opacity:1;fill-rule:nonzero;stroke:none" d="M 0,0 C -3.59,0 -6.5,2.91 -6.5,6.5 -6.5,10.09 -3.59,13 0,13 3.59,13 6.5,10.09 6.5,6.5 6.5,2.91 3.59,0 0,0 m -18,-6.5 36,0 0,26 -36,0 0,-26 z"/></g><g transform="translate(18,24.5)" id="g24"><path id="path26" style="fill:#ffffff;fill-opacity:1;fill-rule:nonzero;stroke:none" d="m 0,0 c -3.59,0 -6.5,-2.91 -6.5,-6.5 0,-3.59 2.91,-6.5 6.5,-6.5 3.59,0 6.5,2.91 6.5,6.5 C 6.5,-2.91 3.59,0 0,0"/></g><g transform="translate(15.4,18)" id="g28"><path id="path30" style="fill:#e70013;fill-opacity:1;fill-rule:nonzero;stroke:none" d="M 0,0 C 0,2.154 1.746,3.9 3.9,3.9 4.919,3.9 5.846,3.509 6.541,2.869 5.655,4.085 4.22,4.875 2.6,4.875 -0.092,4.875 -2.275,2.692 -2.275,0 c 0,-2.692 2.183,-4.875 4.875,-4.875 1.62,0 3.055,0.79 3.941,2.006 C 5.846,-3.509 4.919,-3.9 3.9,-3.9 1.746,-3.9 0,-2.154 0,0"/></g><g transform="translate(19.6452,19.0626)" id="g32"><path id="path34" style="fill:#e70013;fill-opacity:1;fill-rule:nonzero;stroke:none" d="m 0,0 -1.249,1.719 0,-2.125 -2.021,-0.657 2.021,-0.656 0,-2.125 L 0,-2.125 2.021,-2.782 0.772,-1.063 2.021,0.657 0,0 Z"/></g></g></g></g></svg>
