<svg xmlns="http://www.w3.org/2000/svg" viewBox="0 0 1000 1000">
  <defs/>
  <path fill="#fff" d="M8,195.25 C178.83,110.03 349.03,140.83 521.26,167.28 C676.47,191.12 833.42,211.85 992,132.75 L992,804.75 C821.17,889.97 650.97,859.17 478.74,832.72 C323.53,808.88 166.58,788.15 8,867.25 L8,195.25"/>
  <path fill="#000" d="M8,195.25 C178.83,110.03 349.03,140.83 521.26,167.28 C676.47,191.12 833.42,211.85 992,132.75 L992,334.35 C821.17,419.57 650.97,388.77 478.74,362.32 C323.53,338.48 166.58,317.75 8,396.85 L8,195.25"/>
  <path fill="#b00" d="M8,430.45 C178.83,345.23 349.03,376.03 521.26,402.48 C676.47,426.32 833.42,447.05 992,367.95 L992,569.55 C821.17,654.77 650.97,623.97 478.74,597.52 C323.53,573.68 166.58,552.95 8,632.05 L8,430.45"/>
  <path fill="#060" d="M8,665.65 C178.83,580.43 349.03,611.23 521.26,637.68 C676.47,661.52 833.42,682.25 992,603.15 L992,804.75 C821.17,889.97 650.97,859.17 478.74,832.72 C323.53,808.88 166.58,788.15 8,867.25 L8,665.65"/>
  <path fill="#000" d="M382.83,682.81 L389.93,687.86 L581.45,376 C592.7,374.2 598.7,364.49 604.95,354.19 C609.08,347.38 625.3,320.33 632.56,283.22 C604.2,305.52 587.82,331.98 583.65,338.81 C577.41,349.03 571.55,358.78 574.35,370.82 L382.83,682.81"/>
  <path fill="#fff" d="M382.83,682.81 L389.93,687.86 L581.45,376 C592.7,374.2 598.7,364.49 604.95,354.19 C609.08,347.38 625.3,320.33 632.56,283.22 C604.2,305.52 587.82,331.98 583.65,338.81 C577.41,349.03 571.55,358.78 574.35,370.82 L382.83,682.81"/>
  <path fill="#000" d="M617.17,716.19 L610.07,719.54 L418.55,351.76 C407.35,346.9 401.28,335.61 395.05,323.78 C390.91,315.92 374.68,284.94 367.44,246.38 C395.8,274.78 412.25,306.12 416.35,313.96 C422.58,325.87 428.44,337.33 425.65,348.54 L617.17,716.19"/>
  <path fill="#fff" d="M617.17,716.19 L610.07,719.54 L418.55,351.76 C407.35,346.9 401.28,335.61 395.05,323.78 C390.91,315.92 374.68,284.94 367.44,246.38 C395.8,274.78 412.25,306.12 416.35,313.96 C422.58,325.87 428.44,337.33 425.65,348.54 L617.17,716.19"/>
  <path fill="#b00" d="M422.1,589.17 C434.6,624.69 475.29,697.27 500,701.6 C524.86,704.94 565.3,644.77 577.9,612.43 L577.9,410.83 C565.4,375.31 524.71,302.73 500,298.4 C475.14,295.06 434.7,355.23 422.1,387.57 L422.1,589.17"/>
  <path id="deco_r" fill="#000" d="M577.9,612.43 C590.18,580.47 598.32,548.02 598.4,514.38 C598.32,480.73 590.18,446.2 577.9,410.83 C565.62,442.8 557.48,475.06 557.4,508.72 C557.48,542.36 565.62,577.07 577.9,612.43"/>
  <path fill="#000" d="M422.1,589.17 C409.82,553.8 401.68,519.27 401.6,485.63 C401.68,451.98 409.82,419.53 422.1,387.57 C434.38,422.93 442.52,457.64 442.6,491.28 C442.52,524.94 434.38,557.2 422.1,589.17"/>
  <path fill="#fff" d="M516.4,502.54 C516.18,516.68 509.24,526.29 500,525.2 C490.81,523.44 483.82,511.65 483.6,497.46 C483.82,483.32 490.76,473.71 500,474.8 C509.19,476.56 516.18,488.35 516.4,502.54"/>
  <path id="deco_br" fill="#fff" d="M504.1,525.21 C504.14,525.3 520.32,561.27 520.5,615.94 C520.32,670.61 504.15,701.51 504.1,701.61 L504.1,525.21"/>
  <path fill="#fff" d="M495.9,474.79 C495.86,474.7 479.68,438.73 479.5,384.06 C479.68,329.39 495.85,298.49 495.9,298.39 L495.9,474.79"/>
  <path fill="#fff" d="M495.9,523.94 C495.85,524.03 479.68,554.93 479.5,609.6 C479.68,664.27 495.86,700.24 495.9,700.34 L495.9,523.94"/>
  <path fill="#fff" d="M504.1,476.06 C504.15,475.97 520.32,445.07 520.5,390.4 C520.32,335.73 504.14,299.76 504.1,299.66 L504.1,476.06"/>
  <path fill="#1A1A1A" opacity="0.2" d="M8,195.25 C178.83,110.03 349.03,140.83 521.26,167.28 C676.47,191.12 833.42,211.85 992,132.75 L992,804.75 C821.17,889.97 650.97,859.17 478.74,832.72 C323.53,808.88 166.58,788.15 8,867.25 L8,195.25 M39.25,214.64 L39.25,819.14 C345.81,690.88 650.43,915.18 960.75,785.36 L960.75,180.86 C654.19,309.12 349.57,84.82 39.25,214.64"/>
</svg>
