<?xml version="1.0" encoding="UTF-8" standalone="no"?><svg xmlns:dc="http://purl.org/dc/elements/1.1/" xmlns:cc="http://creativecommons.org/ns#" xmlns:rdf="http://www.w3.org/1999/02/22-rdf-syntax-ns#" xmlns:svg="http://www.w3.org/2000/svg" xmlns="http://www.w3.org/2000/svg" viewBox="0 0 45 45" style="enable-background:new 0 0 45 45;" xml:space="preserve" version="1.1" id="svg2"><metadata id="metadata8"><rdf:RDF><cc:Work rdf:about=""><dc:format>image/svg+xml</dc:format><dc:type rdf:resource="http://purl.org/dc/dcmitype/StillImage"/></cc:Work></rdf:RDF></metadata><defs id="defs6"><clipPath id="clipPath16" clipPathUnits="userSpaceOnUse"><path id="path18" d="M 0,36 36,36 36,0 0,0 0,36 Z"/></clipPath></defs><g transform="matrix(1.25,0,0,-1.25,0,45)" id="g10"><g id="g12"><g clip-path="url(#clipPath16)" id="g14"><g transform="translate(36,9)" id="g20"><path id="path22" style="fill:#006600;fill-opacity:1;fill-rule:nonzero;stroke:none" d="m 0,0 c 0,-2.209 -1.791,-4 -4,-4 l -28,0 c -2.209,0 -4,1.791 -4,4 l 0,18 c 0,2.209 1.791,4 4,4 l 28,0 c 2.209,0 4,-1.791 4,-4 L 0,0 Z"/></g><path id="path24" style="fill:#bb1600;fill-opacity:1;fill-rule:nonzero;stroke:none" d="M 36,13 0,13 0,23 36,23 36,13 Z"/><g transform="translate(32,31)" id="g26"><path id="path28" style="fill:#141414;fill-opacity:1;fill-rule:nonzero;stroke:none" d="m 0,0 -28,0 c -2.209,0 -4,-1.791 -4,-4 l 0,-4 36,0 0,4 C 4,-1.791 2.209,0 0,0"/></g><path id="path30" style="fill:#eeeeee;fill-opacity:1;fill-rule:nonzero;stroke:none" d="m 36,22 -36,0 0,1 36,0 0,-1 z"/><path id="path32" style="fill:#eeeeee;fill-opacity:1;fill-rule:nonzero;stroke:none" d="m 36,13 -36,0 0,1 36,0 0,-1 z"/><g transform="translate(13.7798,10.6172)" id="g34"><path id="path36" style="fill:#ffffff;fill-opacity:1;fill-rule:nonzero;stroke:none" d="m 0,0 7.28,12.234 c 0.542,-0.151 0.935,0.532 1.29,1.592 0.418,1.242 0.759,2.085 0.688,2.127 C 9.186,15.996 8.609,15.293 7.715,14.335 6.944,13.505 6.531,12.826 6.951,12.425 L -0.327,0.193 C -0.381,0.104 -0.054,-0.094 0,0"/></g><g transform="translate(13.7798,10.6172)" id="g38"><path id="path40" style="fill:none;stroke:#141414;stroke-width:0.06;stroke-linecap:butt;stroke-linejoin:miter;stroke-miterlimit:4;stroke-dasharray:none;stroke-opacity:1" d="m 0,0 7.28,12.234 c 0.542,-0.151 0.935,0.532 1.29,1.592 0.418,1.242 0.759,2.085 0.688,2.127 C 9.186,15.996 8.609,15.293 7.715,14.335 6.944,13.505 6.531,12.826 6.951,12.425 L -0.327,0.193 C -0.381,0.104 -0.054,-0.094 0,0 Z"/></g><g transform="translate(22.2188,10.6172)" id="g42"><path id="path44" style="fill:#ffffff;fill-opacity:1;fill-rule:nonzero;stroke:none" d="m 0,0 -7.279,12.234 c -0.542,-0.151 -0.935,0.532 -1.291,1.592 -0.417,1.242 -0.758,2.085 -0.687,2.127 0.07,0.043 0.649,-0.66 1.541,-1.618 0.773,-0.83 1.187,-1.509 0.767,-1.91 L 0.328,0.193 C 0.383,0.104 0.056,-0.094 0,0"/></g><g transform="translate(22.2188,10.6172)" id="g46"><path id="path48" style="fill:none;stroke:#141414;stroke-width:0.06;stroke-linecap:butt;stroke-linejoin:miter;stroke-miterlimit:4;stroke-dasharray:none;stroke-opacity:1" d="m 0,0 -7.279,12.234 c -0.542,-0.151 -0.935,0.532 -1.291,1.592 -0.417,1.242 -0.758,2.085 -0.687,2.127 0.07,0.043 0.649,-0.66 1.541,-1.618 0.773,-0.83 1.187,-1.509 0.767,-1.91 L 0.328,0.193 C 0.383,0.104 0.056,-0.094 0,0 Z"/></g><g transform="translate(17.9995,10.5195)" id="g50"><path id="path52" style="fill:#bb1600;fill-opacity:1;fill-rule:nonzero;stroke:none" d="M 0,0 C 2.493,1.87 3.692,4.362 3.692,7.5 3.692,10.638 2.493,13.13 0,14.999 -2.492,13.13 -3.692,10.638 -3.692,7.5 -3.692,4.362 -2.492,1.87 0,0"/></g><g transform="translate(17.9995,10.5195)" id="g54"><path id="path56" style="fill:none;stroke:#141414;stroke-width:0.06;stroke-linecap:butt;stroke-linejoin:miter;stroke-miterlimit:4;stroke-dasharray:none;stroke-opacity:1" d="M 0,0 C 2.493,1.87 3.692,4.362 3.692,7.5 3.692,10.638 2.493,13.13 0,14.999 -2.492,13.13 -3.692,10.638 -3.692,7.5 -3.692,4.362 -2.492,1.87 0,0 Z"/></g><g transform="translate(15.1016,14.0459)" id="g58"><path id="path60" style="fill:#141414;fill-opacity:1;fill-rule:nonzero;stroke:none" d="M 0,0 C 0.533,1.184 0.793,2.499 0.793,3.965 0.793,5.43 0.533,6.746 0,7.931 -0.532,6.746 -0.794,5.43 -0.794,3.965 -0.794,2.499 -0.532,1.184 0,0"/></g><g transform="translate(15.1016,14.0459)" id="g62"><path id="path64" style="fill:none;stroke:#141414;stroke-width:0.02;stroke-linecap:butt;stroke-linejoin:miter;stroke-miterlimit:4;stroke-dasharray:none;stroke-opacity:1" d="M 0,0 C 0.533,1.184 0.793,2.499 0.793,3.965 0.793,5.43 0.533,6.746 0,7.931 -0.532,6.746 -0.794,5.43 -0.794,3.965 -0.794,2.499 -0.532,1.184 0,0 Z"/></g><g transform="translate(20.9033,14.0459)" id="g66"><path id="path68" style="fill:#141414;fill-opacity:1;fill-rule:nonzero;stroke:none" d="M 0,0 C -0.531,1.184 -0.794,2.499 -0.794,3.965 -0.794,5.43 -0.531,6.746 0,7.931 0.532,6.746 0.793,5.43 0.793,3.965 0.793,2.499 0.532,1.184 0,0"/></g><g transform="translate(20.9033,14.0459)" id="g70"><path id="path72" style="fill:none;stroke:#141414;stroke-width:0.02;stroke-linecap:butt;stroke-linejoin:miter;stroke-miterlimit:4;stroke-dasharray:none;stroke-opacity:1" d="M 0,0 C -0.531,1.184 -0.794,2.499 -0.794,3.965 -0.794,5.43 -0.531,6.746 0,7.931 0.532,6.746 0.793,5.43 0.793,3.965 0.793,2.499 0.532,1.184 0,0 Z"/></g><g transform="translate(17.9995,17.0732)" id="g74"><path id="path76" style="fill:#ffffff;fill-opacity:1;fill-rule:nonzero;stroke:none" d="M 0,0 C 0.306,0 0.555,0.424 0.555,0.946 0.555,1.469 0.306,1.893 0,1.893 -0.306,1.893 -0.554,1.469 -0.554,0.946 -0.554,0.424 -0.306,0 0,0"/></g><g transform="translate(17.7686,19.5703)" id="g78"><path id="path80" style="fill:#ffffff;fill-opacity:1;fill-rule:nonzero;stroke:none" d="m 0,0 c -0.502,0.739 -0.746,1.677 -0.746,2.821 0,1.145 0.244,2.084 0.746,2.823 L 0,0 Z"/></g><g transform="translate(18.231,19.5703)" id="g82"><path id="path84" style="fill:#ffffff;fill-opacity:1;fill-rule:nonzero;stroke:none" d="M 0,0 C 0.501,0.739 0.744,1.677 0.744,2.821 0.744,3.966 0.501,4.905 0,5.644 L 0,0 Z"/></g><g transform="translate(17.7686,16.4697)" id="g86"><path id="path88" style="fill:#ffffff;fill-opacity:1;fill-rule:nonzero;stroke:none" d="m 0,0 c -0.502,-0.738 -0.746,-1.677 -0.746,-2.821 0,-1.146 0.244,-2.082 0.746,-2.822 L 0,0 Z"/></g><g transform="translate(18.231,16.4697)" id="g90"><path id="path92" style="fill:#ffffff;fill-opacity:1;fill-rule:nonzero;stroke:none" d="M 0,0 C 0.501,-0.738 0.744,-1.677 0.744,-2.821 0.744,-3.967 0.501,-4.903 0,-5.643 L 0,0 Z"/></g></g></g></g></svg>
