<svg xmlns="http://www.w3.org/2000/svg" viewBox="0 0 64 64" enable-background="new 0 0 64 64"><path d="m60 42c-5.5 0-10-4.5-10-10h-39.2v21.2c5.4 5.4 12.9 8.8 21.2 8.8 13.1 0 24.2-8.4 28.3-20-.1 0-.2 0-.3 0" fill="#3e4347"/><path d="m60 22c.1 0 .2 0 .3 0-4.1-11.6-15.2-20-28.3-20-8.3 0-15.8 3.4-21.2 8.8v21.2h39.2c0-5.5 4.5-10 10-10" fill="#ed4c5c"/><path d="m60.3 22h-49.5v20h49.5c1.1-3.1 1.7-6.5 1.7-10s-.6-6.9-1.7-10" fill="#f9f9f9"/><path d="M10.8,10.8C5.4,16.2,2,23.7,2,32s3.4,15.8,8.8,21.2L32,32L10.8,10.8z" fill="#699635"/></svg>