<svg xmlns="http://www.w3.org/2000/svg" viewBox="0 0 64 64" enable-background="new 0 0 64 64"><g fill="#699635"><path d="m2 32c0 11.5 6.5 21.5 16 26.5v-53c-9.5 5-16 15-16 26.5"/><path d="m62 32c0-11.5-6.5-21.5-16-26.5v53.1c9.5-5.1 16-15.1 16-26.6"/></g><path d="M32,2c-5.1,0-9.8,1.3-14,3.5v53.1c4.2,2.2,8.9,3.5,14,3.5s9.8-1.3,14-3.5V5.5C41.8,3.3,37.1,2,32,2z" fill="#fff"/><path d="m32.3 13.1c-.1.8-.2 1.7-.2 2.5-.3 0-.6.1-.8.1 0 0 .6.3.7.7v.1c-.2.1-.7.1-.7.1s.7.6.7.8c-.2.1-.9.2-.9.2s.8.6.9.9c0 .3 0 .5 0 .5-.1 0-1.4-1.1-2.2-.8l-.1.1c.1.2 1.3.4 2.1 1.1 0 .2-2.4-.6-2.5-.1.1.1 2.5.5 2.7.8-.9 0-2.8-.2-2.7.1-.2.3 1.8.1 2.6.4.2.3.2.5-.2.5-.8-.4-2.6-.7-2.6-.2.2.1 1.9.1 2.5.5-.9.2-3.9-.4-3.9-.1.1.1.6.7 1.4.7.8 0 2.7.3 2.8.6-.1.2-2.5-.5-3.4-.1-1 .5 2.8.2 3.4.7.6.6-1.2-.1-1.2-.1s-2.7-.2-3-.1c-.4.2-.8.6-.8.6s.3.5.5.4h.1l-.2.3c0 0 3.6.9 4.4 1.6.8.8-4.5-1.2-4.5-1.2s-2.1.8.1.8c-.3.4.1.6.1.6 0 0 3.8.8 4.1 1.4s-2.6-.6-3.2-.9c-.6-.3-2.4.2-2.5.3.1.1.9.3.9.5-.1.2-1 .3-1.1.5 0 .2 4.8 1.2 6 2.3 1.3 1.1-3.7-1.3-3.7-1.3s.3.4 0 .5c-.3.1-1.3-1.4-2.9-.5-.3.4 1.4.7 1.9.7-.1.4-.3.5.3.9l.1.1c-.1 0-1.2-.6-1.3-.6l.1.7c-.6-.5-1.2-.6-1.9-.1 0 0 0 .5.6.7-.4.7.4.5 1.6 1.2-1.8-.5-2 .4-.7.6s4.9.3 5.7 1.4c.2.2.2.3.2.4-.1.1-1.4-.8-1.6-.8 0 .1-.1.5-.1.5-.5-.3-1-.6-1.7-.7-.1.1 0 .2-.1.3-.6-.4-1.1-.7-2-.8 0 .1-.1.3-.1.4 0 0-.7-.9-2.1 0-.8.6 3 .2 3.6.9.6.7.1.8.1.8-.5-.2-1-.4-1.5-.6 0 0-1.8-.3-2.3.1-.5.4 7.4 1.4 7.7 2.5.2.6-1.9-.6-3.6-1.1-.1.2-.1.4-.2.6 0 0-.7-.7-1.5-.8l.2.7c0 0-2-.9-3-.4-1 .5 3.5.7 3.9 1.2l.1.1c-.1.1-1.4-.4-1.6-.1-.2.3-2.3-.6-2.3-.2 0 .4.3.6.3.6s4.5.4 4.7 1c.2.5-2.5-.3-2.5-.3s-.3.4-.1.6c-.1 0-1.5-1-1.4-.2-.6-.2-2-.9-1.8-.4.2.5 4 1.3 4.1 1.3-.1 0-1.7.1-1.6.6-2.1-1.3-2.1-.5-2.1-.5-.1 0-2.8-.7-.7.5 1.1.6 1.4.8 1.4.9h-.2l.2.6c-.1 0-1.5-.8-2-.8-.5-.1-2.8.6-.3 1.7 2.4 1.1 3.9-.3 5.3-.1 1.4.2 2 .4 1.9.8-.1.4-1.4-1.4-2.7.2-1.5-.3-2.5-.5-1.7.6-2.4-.9-3.9.3-.9.8 3 .1 4.9-.7 4.9-.7s.5.9 1.2.3c.7-.6.8.2.8.2l.7-.3h.2v6.1c.8 0 1.6 0 2.5 0 0 0-.8-5.3-.4-6 .4-.7.8-.6.8-.6 0 0 1.6.5 1.8.4.1-.1 0-.6.8-.5.3-.1.2-.5.3-.6.3 0 5.2 1.4 6.2 0-.3-.7-1.2-.1-1.5 0-.2 0-1.2-.5-1.8 0-.5-.4-2.8-.6-2.8-.6-.3-.3 5.5.2 5.9-.1.7-.7-1.3-.6-1.6-.4-.5-.3-1.2-.3-1.6-.1-.2-.5-2.1-.3-3.1-.4-.3-.2-.3-.3-.1-.4 2.2.1 4.4.4 6.6.3.6-.8-.8-1.1-1.6-.4-.5-.8-1.5 0-2.1-.1-.7-.1-.4-.9.5-.8.8.1 2.3-.1 2.6-.4.3-.4-.2-.8-1.6-.4-.5-.5-1.5 0-2 .2-.6-.4-2.1-.1-2.6.1-.5-.3 2.6-.8 2.6-.8 1.2 0 1.9-.2 2.3-.3 1.8-1 0-1.1-1-.4-.6-.5-1.2 0-1.7.2-.5.2-1.4.3-1.5.2.1-.1 1.4-1 1.4-1s1.8-.1 2.1-.2c.2 0 1-.4 1-.5 0-.1-.3-.1-1.3.2-.9.1-1.4 0-1.7.1-.5-.1-.8-.1-.8-.2.1-.1 1-.2 1-.2s2.6-.2 2.7-.4c.1-1-2.2-.6-2.2-.6 0-.7-2 0-2.1 0l-.1-.2v-.1c.1-.2.4-.3.4-.3.6-.1 1.4-.2 1.6-.4 0 0 1.6 0 1.8-.4-.4-1.1-3.3.2-3.7.4l-.2-.1c-.1-.2.5-.8.5-.8.1 0 2.5-.1 3.6-1.7.1-.9-1.3.5-1.3.5-.1-1.2-1.6.1-2.4.2-.8.1-.9-.4-.3-.5.6-.1 1.2 0 1.6-.9.3-.9 1.3.1 1.5-.3.2-.3-.3-.6-.4-.6 0 0 .7-.8-.5-.7-1.2 0-2.7-.1-2.7-.2.1 0 1.3-.5 2.4-.5 1.2 0 .5-.8-.6-.8-1.1 0-1.7-.4-1.7-.4.6-.2 1.3-.5 1.9-.7 0-.2-.1-.4-.1-.5 0 0 1.1-.9-.5-.7s-1.6.4-1.6.4l-3.2.5c0 0-.3-.1-.4-.2 0-.1.1-.1.4-.2.8-.2 3.7-.8 4.1-.6h.1c.2-.1-.4-1.1-1.7-1.2-1.5-.2-2.5.4-2.5.4s-1-.4-.1-.7c.9-.3 2.4.1 2.4.1s1.6-.5.3-.7c-1.3-.2-1.8.2-2.4.2-.2-.3 2.1-.4 2.3-.6-.2-.5-1.7 0-2.6 0-.4-.2-.4-.4 0-.6.9 0 1.7 0 2.6 0 0-.5 0-1 0-1.5-1.1-.2-2.4.1-3 .1.2-.5 2.6-.6 2.8-.8.5-.7-2.3 0-2.4 0-.5-.1-.5-.4-.2-.6.7-.1 2.4.1 2.3-.4-.1-.5-1.1-.2-1.6-.1-.4.1-1.1 0-1.1 0-.3-.4 2.5-.2 2.5-.5 0-.3-1.8-.1-2.3-.1-.4-.3 2.2-.5 2.3-.5.1-.8-1.8 0-2.1 0h-.1c-.1-.1 0-.5 0-.5l.7-.4-.6-.2v-.6c0 0 .5-.4.6-.6-.1-.1-.7.1-.7.1 0-.2 0-.3 0-.5 0 0 .5-.1.5-.3-.1-.1-.6-.2-.6-.2-.2-1-.3-1.9-.4-2.7m-.4 8.6v.4c0 0-.6 0-.7-.1.2-.2.6-.2.7-.3m.8.5c0 0 1.1 0 1.2.2-.1.2-1.2.3-1.2.3v-.5m-.1.7l.6.1c-.1.1-.5.1-.5.1l-.1-.2m-3.4.9c.4 0 1.1.1 2.4.4v.4c0 0-2.5-.7-2.7-.7 0 0 .1-.1.3-.1m1.3 1c.4 0 1.3.2 1.4.2v.5c-.1 0-1.5-.5-1.5-.6l.1-.1m3.8 1c.4 0 .6 0 .5.1-.3.3-2.1.6-2.1.6v-.6c.1 0 1-.1 1.6-.1m-5.3 1.7c.3 0 1 .2 2.7.8v.4c0 0-2.7-.8-2.8-1-.1.1-.2-.1.1-.2m5.4.6h.2c-.3.3-1.6.6-1.6.6v-.4c0 .1 1-.1 1.4-.2m-6 .1c.4 0 1.3.2 3.4 1.2v.4c-.1 0-3.7-1.3-3.7-1.3 0-.1-.1-.3.3-.3m6.9 1.6c.1 0 .2 0 .2 0-.3.3-2.4.6-2.5.7v-.3c.1 0 1.7-.4 2.3-.4m-6.2.9c.6 0 2.5.8 2.6.9v.4c-.1 0-2.6-1.1-2.7-1-.1-.2 0-.3.1-.3m5.6.2c.1 0 .2 0 .3 0-.2.2-2 .5-2 .5v-.4c0 .1 1.2-.1 1.7-.1m-.1 1.2c.1 0 .2 0 .2 0-.2.2-1.7.5-1.7.5v-.4c0 0 1-.1 1.5-.1m-6.4 0c.4 0 1.3.1 3.5.9l.1.4c0 0-3.7-1.2-3.8-1.2 0 0 0 0 .2-.1m4.9 1c0 0 .7 0 .8.1-.1.1-.7.2-.7.2s-.1-.2-.1-.3m1.5.8c.1 0 .2 0 .3.1l-.1.1c-.5.4-1.7.5-1.7.5v-.5c0 .1 1-.2 1.5-.2m1.5.5c.2 0 .3 0 .3.1l-.1.2c-.2.2-3.1 1.1-3.1 1.1v-.7c1.7-.5 2.5-.7 2.9-.7m-1.9 1.7c.2 0 .3 0 .4 0-.2.2-1.4.3-1.4.3v-.3c.1.1.6 0 1 0m1.2.5c-.4.4-2.2.8-2.2.8v-.3c0 0 1.8-.5 2.2-.5m1 .4c.2 0 .4 0 .5.1 0 .1-.1.4-.6.5-.6-.1-3.1.7-3.2.7v-.3c.9-.6 2.5-1 3.3-1m-6.4 1.4c1.1.1 1.5.5 1.6.7-.2.4-1.9-.5-1.8-.7h.2m6.2.1h.1v.1c-.1.2-.7.1-.7.1.1 0 .4-.2.6-.2m-2.3 1.2h.2v.1c-.2.3-.9.2-.9.2v-.2c0 0 .4-.1.7-.1m-4.4.8c.2 0 .4.1.6.3.5-.1 1.4.1 1.4.1v.4c-.1 0-1.2 0-1.5-.2-.2 0-.8-.3-.8-.5l.3-.1m4.9.2c.2 0 .3 0 .1.2-.4.5-1.4.3-1.4.3v-.3c.4 0 1-.2 1.3-.2m-3.7 1.1c.4 0 .8.1.8.1 0 0 .2.4 0 .6-.2.1-1.3-.1-1.4-.5.2-.1.4-.2.6-.2m-4.1.2c.4 0 .8.2.8.2v.4c0 0-.7-.2-1-.6h.2m6.9.1c.4 0 .9.1 1 .2v.1c-.2.2-1.4 0-1.4 0v-.3c.2 0 .3 0 .4 0" fill="#699635"/></svg>