<svg xmlns="http://www.w3.org/2000/svg" viewBox="0 0 64 64" enable-background="new 0 0 64 64"><path d="M62,52c0,5.5-4.5,10-10,10H12C6.5,62,2,57.5,2,52V12C2,6.5,6.5,2,12,2h40c5.5,0,10,4.5,10,10V52z" fill="#ff5a79"/><path d="m20.1 24.6c-1.5 2.1-3.3 3.9-5.1 5.1-.7-1-2-2.7-3-3.5 2.5-1.4 5-3.9 6.8-6.4h-5.1v-4.1h6.5v-3.7h4.7v3.7h5.4v4.1h-5.4c1.7.9 5.3 3.2 6.3 3.9l-2.6 3.4c-.8-.8-2.3-2-3.7-3.1v5.6h-4.7l-.1-5m4.7 19c-2.1 3-5.5 6.1-8.5 7.9-.9-.9-2.9-2.4-4-3.1 3-1.5 6-3.9 7.7-6.2l4.8 1.4m-11.4-6.5h37.4v4.3h-16.1v5.8c0 2.4-.5 3.5-2.3 4.2-1.8.6-4.1.6-7.2.6-.3-1.4-1.1-3.2-1.7-4.4 2.1.1 4.6.1 5.2.1.7 0 .9-.2.9-.7v-5.6h-16.2v-4.3m4.6-6.3h28.5v4.1h-28.5v-4.1m26.6-11c2 2.4 4.9 5 7.4 6.3-1 .8-2.4 2.4-3.2 3.5-1.7-1.2-3.6-3.2-5.3-5.3v5.3h-4.8v-5.5c-1.7 2.2-3.7 4.2-5.7 5.4-.7-1-2-2.6-3-3.4 2.6-1.3 5.4-3.8 7.2-6.3h-5.6v-4.1h7.1v-3.7h4.8v3.7h7v4.1h-5.9m-2.4 22.1c2.9 1.8 6.6 4.7 8.5 6.7l-4.3 2.7c-1.6-1.9-5.2-5-8.2-7l4-2.4" fill="#fff"/></svg>