<?xml version="1.0" encoding="utf-8"?>
<!-- Generator: Adobe Illustrator 25.2.3, SVG Export Plug-In . SVG Version: 6.00 Build 0)  -->
<svg version="1.1" id="Layer_2" xmlns="http://www.w3.org/2000/svg" xmlns:xlink="http://www.w3.org/1999/xlink" x="0px" y="0px"
	 viewBox="0 0 128 128" style="enable-background:new 0 0 128 128;" xml:space="preserve">
<g>
	<path style="fill:#427687;" d="M116,4H12c-4.42,0-8,3.58-8,8v104c0,4.42,3.58,8,8,8h104c4.42,0,8-3.58,8-8V12
		C124,7.58,120.42,4,116,4z"/>
	<path style="fill:#8CAFBF;" d="M109.7,4H11.5C7.37,4.03,4.03,7.37,4,11.5v97.9c-0.01,4.14,3.34,7.49,7.48,7.5c0.01,0,0.01,0,0.02,0
		h98.1c4.14,0.01,7.49-3.34,7.5-7.48c0-0.01,0-0.01,0-0.02V11.5c0.09-4.05-3.13-7.41-7.18-7.5C109.85,4,109.77,4,109.7,4z"/>
	<path style="fill:#FAFAFA;" d="M30.2,48.2h-4.6c-1.1,0-2-0.9-2-2V28.7c0-1.1,0.9-2,2-2h30.1c1.1-0.02,1.98-0.93,1.97-2.03
		c0-0.26-0.06-0.53-0.17-0.77c-0.5-1.1-1-2.3-1.6-3.4c-0.48-1-0.06-2.19,0.94-2.67c0.12-0.06,0.24-0.1,0.36-0.13l5.2-1.4
		c0.9-0.21,1.84,0.19,2.3,1c1.51,2.7,2.87,5.47,4.1,8.3c0.31,0.72,1.02,1.19,1.8,1.2h29.7c1.1,0,2,0.9,2,2v15.4c0,1.1-0.9,2-2,2
		h-4.9c-1.1,0-2-0.9-2-2v-7.6c0-1.1-0.9-2-2-2H79.7c-1.1,0-2,0.9-2,2v12.9c0,1.1,0.9,2,2,2h16.1c1.7,0,4.1-0.1,6-0.3
		c1.1-0.12,2.08,0.68,2.2,1.78c0,0.01,0,0.01,0,0.02c0.1,1.2,0.2,2.5,0.4,3.7c0.12,1.1-0.68,2.08-1.78,2.2c-0.01,0-0.01,0-0.02,0
		C100.7,59,98.3,59,96,59H80.7c-9.2,0-11.6-2.9-11.6-11.2V36.5c0-1.1-0.9-2-2-2h-6.2c-1.03-0.01-1.9,0.77-2,1.8
		c-1.5,14.5-6.8,21.9-29,25.6c-0.91,0.2-1.82-0.32-2.1-1.2c-0.45-1.09-1.02-2.13-1.7-3.1c-0.57-0.95-0.26-2.18,0.69-2.74
		c0.22-0.13,0.46-0.22,0.71-0.26C44.8,51.9,48.8,47,50,36.7c0.11-1.1-0.69-2.08-1.79-2.19C48.14,34.5,48.07,34.5,48,34.5H34.2
		c-1.1,0-2,0.9-2,2v9.8c0.03,1.03-0.79,1.88-1.81,1.9C30.32,48.21,30.26,48.2,30.2,48.2z M70.1,91.7h31.1c1.1,0,2,0.9,2,2v4.2
		c0,1.1-0.9,2-2,2H25.7c-1.1,0-2-0.9-2-2v-4.2c0-1.1,0.9-2,2-2h31.4c1.1,0,2-0.9,2-2V75.9c0-1.1-0.9-2-2-2H34.8c-1.1,0-2-0.9-2-2v-4
		c0-1.1,0.9-2,2-2h57.6c1.1,0,2,0.9,2,2v4c0,1.1-0.9,2-2,2H70.1c-1.1,0-2,0.9-2,2v13.8C68.1,90.8,69,91.7,70.1,91.7z"/>
	<path style="opacity:0.5;fill:#B4E1ED;enable-background:new    ;" d="M39.7,12.9c0-2.3-1.6-3-10.8-2.7c-7.7,0.3-11.5,1.2-13.8,4
		s-2.9,8.5-3,15.3c0,4.8,0,9.3,2.5,9.3c3.4,0,3.4-7.9,6.2-12.3C26.2,17.8,39.7,15.9,39.7,12.9z"/>
</g>
</svg>
