<?xml version="1.0" encoding="utf-8"?>
<!-- Generator: Adobe Illustrator 25.2.3, SVG Export Plug-In . SVG Version: 6.00 Build 0)  -->
<svg version="1.1" id="Layer_2" xmlns="http://www.w3.org/2000/svg" xmlns:xlink="http://www.w3.org/1999/xlink" x="0px" y="0px"
	 viewBox="0 0 128 128" style="enable-background:new 0 0 128 128;" xml:space="preserve">
<g>
	<path style="fill:#F77E00;" d="M116,4H12c-4.42,0-8,3.58-8,8v104c0,4.42,3.58,8,8,8h104c4.42,0,8-3.58,8-8V12
		C124,7.58,120.42,4,116,4z"/>
	<path style="fill:#FF9800;" d="M109.7,4H11.5C7.37,4.03,4.03,7.37,4,11.5v97.9c-0.01,4.14,3.34,7.49,7.48,7.5c0.01,0,0.01,0,0.02,0
		h98.1c4.14,0.01,7.49-3.34,7.5-7.48c0-0.01,0-0.01,0-0.02V11.5c0.09-4.05-3.13-7.41-7.18-7.5C109.85,4,109.77,4,109.7,4z"/>
	<path style="opacity:0.75;fill:#FFBD52;enable-background:new    ;" d="M39.7,12.9c0-2.3-1.6-3-10.8-2.7c-7.7,0.3-11.5,1.2-13.8,4
		s-2.9,8.5-3,15.3c0,4.8,0,9.3,2.5,9.3c3.4,0,3.4-7.9,6.2-12.3C26.2,17.8,39.7,15.9,39.7,12.9z"/>
	<path style="fill:#FAFAFA;" d="M52.8,37.5c-1.3,2.5-2.5,5-3.9,7.5c-0.28,0.48-0.11,1.09,0.37,1.37c0.16,0.09,0.35,0.14,0.53,0.13
		h40.3c1.66,0,3,1.34,3,3v44.4c0,4.8-0.9,7.4-4.4,8.8c-3,1.3-7.5,1.4-14.1,1.4c-1.36,0.03-2.56-0.88-2.9-2.2
		c-0.2-0.7-0.4-1.4-0.7-2.2c-0.55-1.56,0.27-3.28,1.83-3.83c0.34-0.12,0.71-0.18,1.07-0.17c3.9,0.1,7.2,0.1,8.4,0
		c1.6,0,2.1-0.5,2.1-1.9v-7.2c0.03-0.52-0.36-0.97-0.88-1c-0.04,0-0.08,0-0.12,0H46.9c-0.48-0.01-0.9,0.33-1,0.8
		c-1.1,5.76-3.61,11.15-7.3,15.7c-1.06,1.27-2.96,1.44-4.23,0.37c-0.14-0.11-0.26-0.24-0.37-0.37c-0.68-0.81-1.42-1.58-2.2-2.3
		c-1.11-1.13-1.15-2.92-0.1-4.1c6.1-7.1,6.7-16.4,6.7-24.4v-8.6c-0.01-0.55-0.46-0.99-1.01-0.99c-0.26,0-0.5,0.11-0.69,0.29
		c-2.9,3.27-6.12,6.25-9.6,8.9c-1.3,1.02-3.18,0.79-4.2-0.5l-1.8-2.1c-1.05-1.28-0.87-3.17,0.4-4.22c0.03-0.03,0.06-0.05,0.1-0.08
		c8.7-6.6,15.6-15.7,20.9-25.6c0.28-0.48,0.11-1.09-0.37-1.37c-0.16-0.09-0.35-0.14-0.53-0.13H22.9c-1.1,0-2-0.9-2-2v-4.3
		c0-1.1,0.9-2,2-2h23.4c0.4,0.03,0.78-0.22,0.9-0.6c1.2-3.2,2.3-6.3,3.2-9.4c0.32-1.02,1.36-1.62,2.4-1.4l5.1,1.2
		c1.12,0.32,1.78,1.47,1.5,2.6c-0.7,2.1-1.4,4.2-2.2,6.4c-0.22,0.51,0.01,1.1,0.52,1.32c0.12,0.05,0.25,0.08,0.38,0.08H102
		c1.1,0,2,0.9,2,2v4.3c0,1.1-0.9,2-2,2H53.7C53.3,36.9,53,37.1,52.8,37.5z M84.4,77.1v-6.3c0.03-0.52-0.36-0.97-0.88-1
		c-0.04,0-0.08,0-0.12,0H48.3c-0.55,0-1,0.45-1,1v0.6c0,1.8-0.1,3.7-0.2,5.6c-0.06,0.55,0.35,1.04,0.89,1.09
		c0.03,0,0.07,0.01,0.11,0.01h35.3c0.52,0.03,0.97-0.36,1-0.88C84.4,77.18,84.4,77.14,84.4,77.1z M83.4,54.3H48.3
		c-0.54,0.04-0.96,0.46-1,1v6.2c0.04,0.54,0.46,0.96,1,1h35.1c0.55,0,1-0.45,1-1v-6.2c0.03-0.52-0.36-0.97-0.88-1
		C83.48,54.3,83.44,54.3,83.4,54.3z"/>
</g>
</svg>
