<?xml version="1.0" encoding="UTF-8" standalone="no"?><svg xmlns:dc="http://purl.org/dc/elements/1.1/" xmlns:cc="http://creativecommons.org/ns#" xmlns:rdf="http://www.w3.org/1999/02/22-rdf-syntax-ns#" xmlns:svg="http://www.w3.org/2000/svg" xmlns="http://www.w3.org/2000/svg" viewBox="0 0 45 45" style="enable-background:new 0 0 45 45;" xml:space="preserve" version="1.1" id="svg2"><metadata id="metadata8"><rdf:RDF><cc:Work rdf:about=""><dc:format>image/svg+xml</dc:format><dc:type rdf:resource="http://purl.org/dc/dcmitype/StillImage"/></cc:Work></rdf:RDF></metadata><defs id="defs6"><clipPath id="clipPath16" clipPathUnits="userSpaceOnUse"><path id="path18" d="M 0,36 36,36 36,0 0,0 0,36 Z"/></clipPath></defs><g transform="matrix(1.25,0,0,-1.25,0,45)" id="g10"><g id="g12"><g clip-path="url(#clipPath16)" id="g14"><g transform="translate(36,4)" id="g20"><path id="path22" style="fill:#f4900c;fill-opacity:1;fill-rule:nonzero;stroke:none" d="m 0,0 c 0,-2.209 -1.791,-4 -4,-4 l -28,0 c -2.209,0 -4,1.791 -4,4 l 0,28 c 0,2.209 1.791,4 4,4 l 28,0 c 2.209,0 4,-1.791 4,-4 L 0,0 Z"/></g><g transform="translate(25.2217,13.7402)" id="g24"><path id="path26" style="fill:#ffffff;fill-opacity:1;fill-rule:nonzero;stroke:none" d="m 0,0 c 0.832,0 1.093,0.26 1.093,0.963 l 0,3.718 -7.541,0 L -6.448,0 0,0 Z m 1.093,6.501 0,3.25 c 0,0.702 -0.261,0.962 -1.093,0.962 l -6.448,0 0,-4.212 7.541,0 z m -16.641,-1.82 0,-3.718 C -15.548,0.26 -15.314,0 -14.457,0 l 5.981,0 0,4.681 -7.072,0 z m 1.091,6.032 c -0.857,0 -1.091,-0.26 -1.091,-0.962 l 0,-3.25 7.072,0 0,4.212 -5.981,0 z m 5.981,4.758 c 0,0.494 0.39,0.78 1.014,0.78 0.624,0 1.014,-0.286 1.014,-0.78 l 0,-2.938 7.125,0 c 1.69,0 2.391,-0.676 2.391,-2.288 l 0,-9.751 c 0,-1.611 -0.701,-2.314 -2.391,-2.314 l -7.125,0 0,-5.278 c 0,-0.519 -0.39,-0.779 -1.014,-0.779 -0.624,0 -1.014,0.26 -1.014,0.779 l 0,5.278 -6.656,0 c -1.691,0 -2.392,0.703 -2.392,2.314 l 0,9.751 c 0,1.612 0.701,2.288 2.392,2.288 l 6.656,0 0,2.938 z"/></g></g></g></g></svg>
