<?xml version="1.0" encoding="UTF-8" standalone="no"?><svg xmlns:dc="http://purl.org/dc/elements/1.1/" xmlns:cc="http://creativecommons.org/ns#" xmlns:rdf="http://www.w3.org/1999/02/22-rdf-syntax-ns#" xmlns:svg="http://www.w3.org/2000/svg" xmlns="http://www.w3.org/2000/svg" viewBox="0 0 45 45" style="enable-background:new 0 0 45 45;" xml:space="preserve" version="1.1" id="svg2"><metadata id="metadata8"><rdf:RDF><cc:Work rdf:about=""><dc:format>image/svg+xml</dc:format><dc:type rdf:resource="http://purl.org/dc/dcmitype/StillImage"/></cc:Work></rdf:RDF></metadata><defs id="defs6"><clipPath id="clipPath16" clipPathUnits="userSpaceOnUse"><path id="path18" d="M 0,36 36,36 36,0 0,0 0,36 Z"/></clipPath></defs><g transform="matrix(1.25,0,0,-1.25,0,45)" id="g10"><g id="g12"><g clip-path="url(#clipPath16)" id="g14"><g transform="translate(36,4)" id="g20"><path id="path22" style="fill:#dd2e44;fill-opacity:1;fill-rule:nonzero;stroke:none" d="m 0,0 c 0,-2.209 -1.791,-4 -4,-4 l -28,0 c -2.209,0 -4,1.791 -4,4 l 0,28 c 0,2.209 1.791,4 4,4 l 28,0 c 2.209,0 4,-1.791 4,-4 L 0,0 Z"/></g><g transform="translate(23.2598,21.5869)" id="g24"><path id="path26" style="fill:#ffffff;fill-opacity:1;fill-rule:nonzero;stroke:none" d="M 0,0 C 0.467,0 0.754,-0.442 0.754,-0.962 0.754,-1.508 0.467,-1.924 0,-1.924 l -10.531,0 c -0.494,0 -0.754,0.416 -0.754,0.962 0,0.52 0.26,0.962 0.754,0.962 L 0,0 Z m 0.363,-13.157 c 0.546,0 0.832,0.156 0.832,0.728 l 0,4.993 c 0,0.572 -0.286,0.728 -0.832,0.728 l -11.258,0 c -0.546,0 -0.806,-0.156 -0.806,-0.728 l 0,-4.993 c 0,-0.572 0.26,-0.728 0.806,-0.728 l 11.258,0 z m 0.598,8.32 c 1.586,0 2.314,-0.676 2.314,-2.234 l 0,-5.721 c 0,-1.586 -0.728,-2.236 -2.314,-2.236 l -12.428,0 c -1.587,0 -2.314,0.65 -2.314,2.236 l 0,5.721 c 0,1.558 0.727,2.234 2.314,2.234 l 12.428,0 z M -5.331,8.086 c 0.572,0 1.144,-0.208 1.482,-0.624 C -1.066,3.848 2.418,1.404 6.422,-0.494 6.838,-0.676 7.046,-1.04 7.046,-1.43 7.046,-1.586 7.02,-1.768 6.941,-1.95 6.76,-2.34 6.369,-2.6 5.953,-2.6 c -0.155,0 -0.338,0.026 -0.493,0.104 -4.212,2.132 -8.061,5.174 -10.453,8.32 -0.13,0.156 -0.234,0.234 -0.338,0.234 -0.104,0 -0.208,-0.078 -0.312,-0.208 -2.34,-3.198 -6.344,-6.474 -10.348,-8.346 -0.156,-0.078 -0.338,-0.13 -0.494,-0.13 -0.39,0 -0.729,0.208 -0.937,0.624 -0.077,0.156 -0.103,0.312 -0.103,0.468 0,0.39 0.234,0.78 0.65,0.962 4.056,1.924 7.488,4.654 10.036,8.034 0.338,0.416 0.936,0.624 1.508,0.624"/></g></g></g></g></svg>
