<?xml version="1.0" encoding="UTF-8" standalone="no"?><svg xmlns:dc="http://purl.org/dc/elements/1.1/" xmlns:cc="http://creativecommons.org/ns#" xmlns:rdf="http://www.w3.org/1999/02/22-rdf-syntax-ns#" xmlns:svg="http://www.w3.org/2000/svg" xmlns="http://www.w3.org/2000/svg" viewBox="0 0 45 45" style="enable-background:new 0 0 45 45;" xml:space="preserve" version="1.1" id="svg2"><metadata id="metadata8"><rdf:RDF><cc:Work rdf:about=""><dc:format>image/svg+xml</dc:format><dc:type rdf:resource="http://purl.org/dc/dcmitype/StillImage"/></cc:Work></rdf:RDF></metadata><defs id="defs6"><clipPath id="clipPath16" clipPathUnits="userSpaceOnUse"><path id="path18" d="M 0,36 36,36 36,0 0,0 0,36 Z"/></clipPath><clipPath id="clipPath28" clipPathUnits="userSpaceOnUse"><path id="path30" d="M 18,36 C 8.059,36 0,27.941 0,18 l 0,0 C 0,8.059 8.059,0 18,0 l 0,0 c 9.941,0 18,8.059 18,18 l 0,0 c 0,9.941 -8.059,18 -18,18 z"/></clipPath></defs><g transform="matrix(1.25,0,0,-1.25,0,45)" id="g10"><g id="g12"><g clip-path="url(#clipPath16)" id="g14"><g transform="translate(36,18)" id="g20"><path id="path22" style="fill:#88c9f9;fill-opacity:1;fill-rule:nonzero;stroke:none" d="m 0,0 c 0,-9.941 -8.059,-18 -18,-18 -9.941,0 -18,8.059 -18,18 0,9.941 8.059,18 18,18 C -8.059,18 0,9.941 0,0"/></g></g></g><g id="g24"><g clip-path="url(#clipPath28)" id="g26"><g transform="translate(3.6274,28.9521)" id="g32"><path id="path34" style="fill:#5c913b;fill-opacity:1;fill-rule:nonzero;stroke:none" d="M 0,0 C -0.451,2.93 2.195,4.156 3.607,4.469 5.019,4.784 6.383,5.09 6.54,4.464 6.696,3.836 6.851,3.003 7.713,3.316 8.575,3.63 10.756,3.875 11.776,4.658 12.795,5.441 14.02,5.445 15.04,5.131 16.059,4.818 18.917,4.904 18.29,3.964 17.663,3.023 16.465,3.137 15.839,2.04 15.212,0.941 16.011,0.214 16.873,0.214 c 0.865,0 1.709,-0.135 2.259,0.727 0.549,0.863 -0.382,2.463 0.325,2.357 0.706,-0.106 1.477,-0.866 2.03,-2.043 0.547,-1.176 1.408,-0.47 1.723,-1.176 0.313,-0.705 2.04,-2.039 1.177,-1.804 -0.864,0.236 -1.726,0.392 -1.961,-0.47 -0.236,-0.863 0.389,-1.726 -0.236,-1.647 -0.627,0.079 -0.861,-0.089 -1.725,-0.004 -0.862,0.083 -1.333,0.631 -2.039,-0.545 -0.705,-1.175 -1.254,-1.961 -1.567,-2.509 -0.315,-0.549 -0.785,-0.861 -0.55,-1.96 0.235,-1.099 -0.628,-0.785 -0.628,0.156 0,0.94 -0.548,1.098 -1.253,0.942 -0.706,-0.157 -1.803,-0.313 -1.724,-1.098 0.077,-0.784 -0.315,-1.725 0.313,-2.352 0.627,-0.629 1.33,0.076 1.723,-0.158 0.393,-0.237 1.525,-0.023 1.133,-0.416 -0.393,-0.391 -1.76,-0.881 -0.976,-1.509 0.786,-0.626 1.578,-0.829 1.893,-0.907 0.313,-0.08 0.062,0.774 1.083,1.166 1.017,0.392 2.608,1.29 3,0.584 0.391,-0.705 0.338,-0.595 1.75,-0.75 1.41,-0.156 1.79,-0.585 2.417,-1.917 0.626,-1.333 0.446,-1.192 1.462,-1.581 1.021,-0.393 1.678,-0.222 0.737,-1.086 -0.941,-0.86 -1.651,-0.814 -2.199,-1.833 -0.55,-1.017 -0.153,-1.731 -1.25,-2.75 -1.098,-1.019 -2.242,-1.876 -3.417,-2.583 -0.618,-0.37 -2.162,-2.07 -3.083,-2.667 -0.834,-0.541 -1.083,0 -1.083,0 0,0 0.256,1.667 0.964,2.372 0.704,0.705 1.105,3.344 0.869,4.128 -0.234,0.783 -1.36,1.02 -1.75,1.333 -0.392,0.312 -1.417,1.548 -1.417,2.334 0,0.784 1.71,2.809 1.71,2.809 0.218,-1.088 -1.039,0.329 -1.627,0.524 -0.47,0.157 -1.542,1.656 -2.459,1.814 -0.916,0.159 -1.363,0.7 -2.068,1.25 -0.706,0.549 -2.431,1.332 -2.353,2.195 0.079,0.862 -1.725,1.568 -2.038,1.568 -0.314,0 -1.019,0 -1.647,1.098 -0.627,1.098 -1.725,2.196 -1.411,2.979 0.313,0.784 0.392,1.727 0.234,2.589 C 3.058,0.236 1.882,0.55 1.647,0.315 1.412,0.079 0.158,-1.02 0,0"/></g></g></g></g></svg>
