<svg xmlns="http://www.w3.org/2000/svg" viewBox="0 0 64 64" enable-background="new 0 0 64 64"><path fill="#f2b200" d="m0 0h64v64h-64z"/><g fill="#ffdf99"><circle cx="32" cy="32" r="10.7"/><path d="m3.5 4.2c2.3 4.5 5.6 8.4 9.2 11.8 3.3 3.2 7.2 6.4 11.5 8.2-1.9-4.6-5.4-8.8-8.9-12.3-3.6-3.5-7.7-7.1-12.4-9 .2.4.4.9.6 1.3"/><path d="m42.2 19.9c-.9 1.4-1.7 2.8-2.4 4.3 4.6-1.9 8.8-5.5 12.3-8.9 3.5-3.5 7-7.6 8.9-12.3-3.6 1.5-6.9 4.1-9.9 6.6-3.3 3-6.4 6.4-8.9 10.3"/><path d="m29.9.4c-.4 3.7-.4 7.4 0 11 .3 3.2.8 6.5 2.1 9.5 2-4.7 2.4-10.3 2.4-15.4 0-1.4-.1-2.7-.2-4.1 0-.1-.1-1.4-.2-1.4-.2 0-.4 0-.6 0-.7 0-1.5 0-2.2 0-.6 0-1.2-.2-1.3.4"/><path d="m18.7 3.2c1 3.5 2.3 7 4 10.3 1.4 2.9 3.1 5.8 5.4 8.1.2-5.1-1.5-10.5-3.3-15.2-.5-1.4-1.1-2.7-1.8-4.1-.4-.6-.8-2.3-1.6-2.3-1.2 0-2.3 0-3.5 0 .3 1.1.5 2.2.8 3.2"/><path d="m43 2.2c-1.8 3.2-3.3 6.6-4.5 10.1-1 3-1.9 6.3-1.9 9.5 2.8-2.6 4.9-6.1 6.6-9.4 2.1-3.9 3.7-8.1 4.7-12.4-.8 0-1.7 0-2.5 0-.4 0-.7 0-1.1 0-.3 0-1.2 1.9-1.3 2.2"/><path d="m63.6 29.9c-3.7-.4-7.4-.4-11 0-3.2.3-6.6.8-9.5 2.1 4.7 2 10.3 2.4 15.4 2.4 1.4 0 2.7-.1 4.1-.2.2 0 1.4-.1 1.4-.2 0-.2 0-.4 0-.6 0-.7 0-1.5 0-2.2 0-.6.2-1.2-.4-1.3"/><path d="m60.8 18.7c-3.5 1-7 2.3-10.3 4-2.9 1.4-5.8 3.1-8.1 5.4 5.1.2 10.5-1.5 15.2-3.3 1.4-.5 2.7-1.1 4.1-1.8.6-.3 2.3-.8 2.3-1.5 0-1.2 0-2.3 0-3.5-1.1.2-2.2.4-3.2.7"/><path d="m.4 34.1c3.7.4 7.4.4 11 0 3.2-.3 6.5-.8 9.5-2.1-4.7-2-10.3-2.4-15.4-2.4-1.4 0-2.7.1-4.1.2-.1 0-1.4.1-1.4.2 0 .2 0 .4 0 .6 0 .8 0 1.5 0 2.3 0 .5-.2 1.1.4 1.2"/><path d="m2.2 21c3.2 1.8 6.6 3.3 10.1 4.5 3 1 6.3 1.9 9.5 1.9-2.6-2.8-6.1-4.9-9.4-6.6-3.9-2-8.1-3.7-12.4-4.7 0 .8 0 1.6 0 2.5 0 .4 0 .7 0 1.1 0 .3 1.9 1.2 2.2 1.3"/></g><path fill="#3e4347" d="m0 29.8v11.3l16.7-4.4z"/><path fill="#d0d0d0" d="m64 31.8l-16.7-9.5-15.3 12.7-15.3-7.7-16.7 11.2v4.2h64z"/><path fill="#3e4347" d="m47.3 22.3l5.6 6.6-10.2 3.6 12.9 4.2-12.9 3.8-26-13.2-4.2 7.7 8.8 1.7-4.6 6h47.3v-10.9z"/><path d="m64 39.8c-1.8.3-3.6.9-5.1 1.7-.9-1.2-2.4-2-4-2-1.4 0-2.7.6-3.6 1.5-.4-.3-.8-.5-1.3-.5-.8 0-1.5.5-1.8 1.1-.7-.3-1.5-.5-2.3-.5-1.2 0-2.2.4-3.1 1-1.4-1.6-3.4-2.6-5.6-2.6-2.2 0-4.2 1-5.5 2.5-.6-.9-1.5-1.5-2.7-1.5-1.4 0-2.6.9-3 2.2-1-1-2.3-1.7-3.8-1.7-1.1 0-2.1.3-2.9.9-.1-2.9-2.4-5.2-5.4-5.2-2.7 0-4.9 1.9-5.3 4.5-1.3-1.1-2.9-1.7-4.7-1.7-1.4 0-2.6.4-3.7 1v23.5h64l-.2-24.2" fill="#83bf4f"/><g fill="#699635"><path d="m63.5 47.2c-2.4-1.2-5.4-1.2-7.7.3-.6-2.4-2.8-4.4-5.4-4.4-2.5 0-6.1 1.8-6.1 4.7-1.9-.8-4.3-.7-5.9.6-1-1.6-3.1-2.1-4.8-1.5-.7.3-.9 1-1.7.4-.8-.6-1.7-1.1-2.7-1.3-1.9-.5-3.9-.4-5.6.4-.4.2-.8.4-1.2.7-.4.3-.8.8-1.2 1-.2.1-.7-.2-.9-.3-.5-.2-1.1-.3-1.7-.4-.9-.1-1.6.2-2.4.4-.3.1-.5-.3-.7-.4-.3-.2-.8-.4-1.2-.4-.6 0-1.1.4-1.7.3-.2 0-.7-.4-.9-.5-.5-.2-1-.4-1.5-.6-1.8-.4-3.8.2-5.1 1.6-.5.5-1.5-.2-2.1-.4-1.1-.3-2.1-.6-3.2-.7 1.7.5 3.4 1 4.9 1.9.5.3.8-.5 1.2-.8.8-.6 1.7-.9 2.7-1 .9 0 1.7.2 2.5.6.5.3.8.9 1.3 1.2.2.1.5-.2.6-.3.3-.3.7-.3 1.1-.2.4.1.7.3.9.6.2.2.2.6.6.6.9-.2 1.6-.6 2.6-.5 1 .1 1.9.5 2.7 1 .4.3.6-.1 1-.4.4-.4.8-.7 1.3-1.1 3.1-2.4 6.9-.5 9.2 1.9.8-1 1.7-2.2 3.2-1.8 1.3.3 1.7 1.7 2.1 2.8 1-1 2.1-2 3.5-2.2 1.6-.2 2.9.5 4.2 1.3.2-2.8 1.1-5.3 4.1-5.8 3-.5 5 1.9 5.7 4.5 2.5-2.1 5.6-2.7 8.6-1.3 0-.3-.1-.4-.3-.5m-49.4.8c0 0 0 0 0 0m27.9.8"/><path d="m64 58.4c-2.3-1.8-5.6-2.2-8.3-1-.7.3-1.4.8-2 1.3-.7.6-1 .1-1.9-.1-.7-.2-1.5-.2-2.2-.1-.1 0-1.5.4-1.5.4-.4-.6-1.2-.9-1.9-.9-.3 0-.6.1-.9.2-.6.2-.5.2-1.1-.2-1.3-.8-2.8-1-4.2-.7-.6.2-1.3.5-1.8.8-.4.3-.9 1.1-1.4.9-1.6-.6-3.1-1-4.7-1.3 1.6.4 3.3.9 4.8 1.8.5.4.7 0 1-.4.6-.7 1.6-1 2.4-1.2.9-.1 1.7-.1 2.5.3.7.3 1.1.8 1.6 1.2.5.4.8 0 1.3-.3.8-.4 1.5.3 1.8.9.3.5 1.2-.1 1.7-.2 1-.2 2.1-.1 3 .4.2.1 1.1.9 1.4.8.5-.4.9-1 1.4-1.4 2.8-2.1 6.7-1.5 9.1 1-.1-.8-.1-1.7-.1-2.2m-17.9.5c0 0 0 0 0 0m4.1.7c0 0 .1 0 0 0"/><path d="m35.1 55.1c-2.4-1.3-5.4-1.2-7.7.3-.6-2.4-2.8-4.4-5.4-4.4-1.6 0-3.2.5-4.3 1.6-.5.5-1 1.1-1.3 1.7-.2.4-.2 1.1-.5 1.4-1.4-.6-3.2-.7-4.6-.1-.4.2-1.2.9-1.5.5-.4-.6-1.1-1-1.7-1.3-.7-.3-1.5-.3-2.2-.2-.3.2-.6.3-.9.4-.2.1-.8.7-1 .6-.2 0-.5-.4-.7-.5-.4-.3-.7-.5-1.1-.7-.7-.3-1.4-.6-2.2-.7 0 .5 0 1 0 1.4 0 .2 1.3.6 1.6.7 1 .5 1.8 1.4 2.6 2.2.8-1 1.7-2.2 3.2-1.8 1.3.3 1.7 1.7 2.1 2.8 1-1 2.1-2 3.5-2.2 1.6-.2 2.9.5 4.2 1.3.2-2.8 1.1-5.3 4.1-5.8 3-.5 5 1.9 5.7 4.5 2.5-2.1 5.6-2.7 8.6-1.3-.1-.2-.3-.3-.5-.4"/></g></svg>