<svg xmlns="http://www.w3.org/2000/svg" viewBox="0 0 36 36"><path fill="#88C9F9" d="M32 0H4C1.791 0 0 1.791 0 4v22h36V4c0-2.209-1.791-4-4-4z"/><path fill="#66757F" d="M10 26V7l4-4h2l4 4v19zm23-15c0-1-1-1-1-1h-7s-1 0-1 1v15h9V11z"/><path fill="#292F33" d="M28 17c0-1-1-1-1-1h-8c-1 0-1 1-1 1v9h10v-9zm-17 2H6v-5s0-1-1-1H0v13h12v-6s0-1-1-1z"/><path d="M8 21h2v2H8zm8-12h2v2h-2zm0 4h2v2h-2zm-2 4h2v2h-2zm10 1h2v2h-2zm5-6h2v2h-2zm0 4h2v2h-2z" fill="#FFCC4D"/><path fill="#E1E8ED" d="M34 20c-.344 0-.676.047-1 .113-1.677.344-3.045 1.52-3.652 3.085-.34-.567-.804-1.047-1.348-1.418-.714-.487-1.569-.78-2.5-.78-.763 0-1.47.207-2.099.542C22.773 20.611 21.707 20 20.5 20c-.986 0-1.868.415-2.5 1.073-.345.359-.619.788-.788 1.268-.528-.217-1.105-.341-1.712-.341-1.427 0-2.68.677-3.5 1.715-.19.241-.365.495-.504.771C10.892 24.185 10.221 24 9.5 24c-1.058 0-2.013.387-2.78 1-.09.072-.189.134-.274.213-.059-.074-.125-.143-.189-.213-.589-.646-1.369-1.109-2.257-1.288-.263-.053-.533-.087-.812-.087-1.284 0-2.419.591-3.188 1.501V32h36V20.422c-.613-.268-1.288-.422-2-.422z"/><path fill="#CCD6DD" d="M36 27.117c-1.223-2.039-3.449-3.408-6-3.408-2.926 0-5.429 1.796-6.475 4.344C23.35 28.034 23.18 28 23 28c-.702 0-1.369.148-1.976.409C20.291 27.554 19.215 27 18 27c-2.209 0-4 1.791-4 4 0 .05.013.097.015.146C13.689 31.06 13.353 31 13 31c-.876 0-1.679.289-2.338.767C10.065 31.294 9.32 31 8.5 31c-.198 0-.388.026-.577.059C7.286 29.279 5.602 28 3.604 28 2.136 28 .843 28.7 0 29.771V32c0 2.209 1.791 4 4 4h28c2.209 0 4-1.791 4-4v-4.883z"/></svg>