<?xml version="1.0" encoding="utf-8"?>
<!-- Generator: Adobe Illustrator 25.2.3, SVG Export Plug-In . SVG Version: 6.00 Build 0)  -->
<svg version="1.1" id="Layer_2" xmlns="http://www.w3.org/2000/svg" xmlns:xlink="http://www.w3.org/1999/xlink" x="0px" y="0px"
	 viewBox="0 0 128 128" style="enable-background:new 0 0 128 128;" xml:space="preserve">
<radialGradient id="SVGID_1_" cx="66.5225" cy="139.6644" r="134.8811" gradientUnits="userSpaceOnUse">
	<stop  offset="0.4216" style="stop-color:#A8D793"/>
	<stop  offset="0.5608" style="stop-color:#7DAD8B"/>
	<stop  offset="0.7052" style="stop-color:#4C7D82"/>
	<stop  offset="0.7809" style="stop-color:#457986"/>
	<stop  offset="0.8899" style="stop-color:#326C8F"/>
	<stop  offset="1" style="stop-color:#185B9D"/>
</radialGradient>
<path style="fill:url(#SVGID_1_);" d="M116.62,124.26H11.32c-4.15,0-7.52-3.37-7.52-7.52V11.44c0-4.15,3.37-7.52,7.52-7.52h105.3
	c4.15,0,7.52,3.37,7.52,7.52v105.3C124.15,120.89,120.78,124.26,116.62,124.26z"/>
<polygon style="fill:#6BA3AE;" points="121.3,62.39 102.3,62.39 102.3,84.25 60.19,84.25 60.19,18.84 28.65,18.84 28.65,84.25 
	24.17,84.25 24.17,49.13 12.34,49.13 12.34,91.78 21.84,91.78 21.84,117.22 118.97,117.22 118.97,106.11 121.3,106.11 "/>
<path style="fill:#FEF7B0;" d="M96.24,17.86c-0.39,0.08,1.37,3.95,1.26,9.18c-0.15,7.02-5.64,11.51-12.17,11.34
	c-4.91-0.13-8.17-2.27-8.46-1.77c-0.12,0.21,0.83,4.71,5.46,7.16c7.23,3.82,14.32,1.6,18.23-2.54c3.8-4.02,5.15-10.58,2.87-16.14
	C101.03,19.26,96.7,17.77,96.24,17.86z"/>
<path style="fill:#FFD420;" d="M108.95,42.14c0.28,0.33,3.76-0.06,3.76-0.06s1.88,2.71,2.27,2.71c0.66,0,1.33-3.48,1.33-3.48
	s3.15-0.18,3.26-0.61c0.15-0.6-2.71-2.65-2.71-2.65s0.54-3.32,0.06-3.6c-0.52-0.3-3.15,1.88-3.15,1.88S110.39,34.51,110,35
	c-0.3,0.38,0.88,3.82,0.88,3.82S108.75,41.9,108.95,42.14z"/>
<path style="fill:#FFD420;" d="M65.86,25.16C66.05,25.6,69.7,26,69.7,26s1.33,3.6,1.75,3.69c0.71,0.17,2.21-3.32,2.21-3.32
	s3.66-0.05,3.87-0.5c0.37-0.79-2.35-3.17-2.35-3.17s1.68-3.43,0.97-3.85c-0.72-0.42-3.86,1.23-3.86,1.23s-3.12-2.74-3.71-2.38
	c-0.81,0.5,0.17,4.25,0.17,4.25S65.54,24.39,65.86,25.16z"/>
<path style="fill:#FFD420;" d="M9.73,14.65c0.14,0.38,3.43,0.66,3.43,0.66s1.47,3.15,1.83,3.21c0.45,0.07,1.99-2.88,1.99-2.88
	s3.38-0.29,3.51-0.68c0.19-0.54-2.19-2.69-2.19-2.69s0.78-3.73,0.5-3.93c-0.36-0.25-3.43,1.38-3.43,1.38s-2.82-1.99-3.28-1.63
	c-0.43,0.33,0.29,3.79,0.29,3.79S9.49,14,9.73,14.65z"/>
<path style="fill:#FFD420;" d="M15.97,27.21c0.1,0.33,2.73,0.67,2.73,0.67s0.96,2.81,1.26,2.89c0.51,0.14,1.71-2.48,1.71-2.48
	s2.67,0.17,2.85-0.14c0.21-0.36-1.47-2.45-1.47-2.45s0.84-2.53,0.58-2.76c-0.28-0.23-2.8,0.8-2.8,0.8s-2-1.93-2.46-1.73
	c-0.4,0.17-0.25,3.05-0.25,3.05S15.83,26.74,15.97,27.21z"/>
<rect x="32.41" y="25.13" style="fill:#3F737B;" width="2.37" height="7.59"/>
<rect x="37.46" y="25.13" style="fill:#3F737B;" width="2.47" height="7.59"/>
<polygon style="fill:#3F737B;" points="45.27,25.13 42.85,25.13 42.85,32.72 45.21,32.7 "/>
<polygon style="fill:#3F737B;" points="50.44,25.13 47.84,25.14 47.91,32.72 50.42,32.72 "/>
<rect x="32.41" y="25.13" style="fill:#3F737B;" width="2.37" height="7.59"/>
<rect x="37.46" y="25.13" style="fill:#3F737B;" width="2.47" height="7.59"/>
<polygon style="fill:#3F737B;" points="45.31,25.13 42.85,25.13 42.85,32.72 45.28,32.7 "/>
<polygon style="fill:#3F737B;" points="50.44,37.13 47.84,37.14 47.91,44.72 50.42,44.72 "/>
<rect x="32.41" y="37.13" style="fill:#3F737B;" width="2.37" height="7.59"/>
<rect x="37.46" y="37.13" style="fill:#3F737B;" width="2.47" height="7.59"/>
<polygon style="fill:#3F737B;" points="45.31,37.13 42.85,37.13 42.85,44.72 45.28,44.7 "/>
<rect x="32.41" y="49.13" style="fill:#3F737B;" width="2.37" height="7.59"/>
<rect x="37.46" y="49.13" style="fill:#3F737B;" width="2.47" height="7.59"/>
<polygon style="fill:#3F737B;" points="45.31,49.13 42.85,49.13 42.85,56.72 45.28,56.7 "/>
<polygon style="fill:#3F737B;" points="53.36,25.13 53.35,32.72 55.91,32.72 55.91,25.13 "/>
<rect x="105.55" y="81.2" style="fill:#3F737B;" width="2.88" height="3.94"/>
<rect x="111.3" y="81.2" style="fill:#3F737B;" width="2.88" height="3.94"/>
<rect x="105.55" y="73.83" style="fill:#FDE064;" width="2.88" height="3.94"/>
<rect x="111.3" y="73.83" style="fill:#3F737B;" width="2.88" height="3.94"/>
<rect x="105.55" y="66.83" style="fill:#3F737B;" width="2.88" height="3.94"/>
<rect x="111.3" y="66.83" style="fill:#FDE064;" width="2.88" height="3.94"/>
<radialGradient id="SVGID_2_" cx="66.0888" cy="-50.9464" r="173.0464" gradientUnits="userSpaceOnUse">
	<stop  offset="0.0392" style="stop-color:#163387"/>
	<stop  offset="0.3779" style="stop-color:#163284"/>
	<stop  offset="0.6215" style="stop-color:#17317B"/>
	<stop  offset="0.8346" style="stop-color:#182E6B"/>
	<stop  offset="1" style="stop-color:#1A2B59"/>
</radialGradient>
<path style="fill:url(#SVGID_2_);" d="M115,49.4c-0.36,0.73,0,42.7,0,42.7H99.13V68.1h-5.11v-7.67h-4.53v-6.51h-8.16v6.84h-5.19
	v7.17h-5.36v34.95h-5.04v-39h2.35v-7.44h-2.35V41.03h-2.65l-3.61-11.16h-7.11L48.8,41.03h-2.79v15.41h-2.48v7.44h2.48v39h-7.18
	V67.83H17.19V28.47c0,0-13.35-0.09-13.39-0.05v88.32c0,4.15,3.37,7.52,7.52,7.52h105.3c4.15,0,7.52-3.37,7.52-7.52V49.4H115z"/>
<rect x="5.71" y="116.21" style="fill:#3F737B;" width="29.97" height="2.35"/>
<rect x="5.71" y="107.86" style="fill:#3F737B;" width="29.97" height="2.35"/>
<rect x="5.71" y="99.21" style="fill:#3F737B;" width="29.97" height="2.35"/>
<rect x="5.71" y="90.86" style="fill:#3F737B;" width="29.97" height="2.35"/>
<rect x="5.71" y="81.21" style="fill:#3F737B;" width="29.97" height="2.35"/>
<rect x="5.71" y="72.86" style="fill:#FDE064;" width="29.97" height="2.35"/>
<rect x="5.71" y="63.32" style="fill:#3F737B;" width="1.76" height="3.7"/>
<rect x="11.71" y="63.32" style="fill:#3F737B;" width="1.76" height="3.7"/>
<rect x="5.71" y="55.89" style="fill:#FDE064;" width="1.76" height="3.7"/>
<rect x="11.71" y="55.89" style="fill:#3F737B;" width="1.76" height="3.7"/>
<rect x="5.71" y="48.46" style="fill:#FDE064;" width="1.76" height="3.7"/>
<rect x="11.71" y="48.46" style="fill:#3F737B;" width="1.76" height="3.7"/>
<rect x="5.71" y="41.03" style="fill:#3F737B;" width="1.76" height="3.7"/>
<rect x="11.71" y="41.03" style="fill:#FDE064;" width="1.76" height="3.7"/>
<rect x="5.71" y="33.59" style="fill:#FDE064;" width="1.76" height="3.7"/>
<rect x="11.71" y="33.59" style="fill:#3F737B;" width="1.76" height="3.7"/>
<rect x="49.8" y="64.51" style="fill:#FDE064;" width="2.27" height="4.76"/>
<rect x="55.18" y="64.51" style="fill:#3F737B;" width="2.27" height="4.76"/>
<rect x="60.36" y="64.51" style="fill:#3F737B;" width="2.27" height="4.76"/>
<rect x="49.8" y="73.51" style="fill:#3F737B;" width="2.27" height="4.76"/>
<rect x="49.8" y="97.7" style="fill:#3F737B;" width="2.27" height="4.76"/>
<rect x="55.18" y="97.7" style="fill:#3F737B;" width="2.27" height="4.76"/>
<rect x="60.36" y="97.7" style="fill:#3F737B;" width="2.27" height="4.76"/>
<rect x="55.18" y="73.51" style="fill:#3F737B;" width="2.27" height="4.76"/>
<rect x="60.36" y="73.51" style="fill:#FDE064;" width="2.27" height="4.76"/>
<rect x="49.8" y="82.51" style="fill:#3F737B;" width="2.27" height="4.76"/>
<rect x="55.18" y="82.51" style="fill:#FDE064;" width="2.27" height="4.76"/>
<rect x="60.36" y="82.51" style="fill:#3F737B;" width="2.27" height="4.76"/>
<path style="fill:#3F737B;" d="M54.01,53.96h4.66v-6.92c0,0,0.17-2.6-2.35-2.66c-2.37-0.06-2.4,2.6-2.4,2.6S54.07,53.96,54.01,53.96
	z"/>
<rect x="79.85" y="64.16" style="fill:#FDE064;" width="2.27" height="9.69"/>
<rect x="88.36" y="64.16" style="fill:#FDE064;" width="2.27" height="9.69"/>
<rect x="84.15" y="64.16" style="fill:#FDE064;" width="2.27" height="9.69"/>
<rect x="76.37" y="77.58" style="fill:#FDE064;" width="2.27" height="3.09"/>
<rect x="84.19" y="77.58" style="fill:#FDE064;" width="2.27" height="3.09"/>
<rect x="92.01" y="77.58" style="fill:#FDE064;" width="2.27" height="3.09"/>
<rect x="76.37" y="87.58" style="fill:#3F737B;" width="2.27" height="3.09"/>
<rect x="84.19" y="87.58" style="fill:#FDE064;" width="2.27" height="3.09"/>
<rect x="92.01" y="87.58" style="fill:#FDE064;" width="2.27" height="3.09"/>
<rect x="76.37" y="97.03" style="fill:#3F737B;" width="2.27" height="3.09"/>
<rect x="84.19" y="97.03" style="fill:#3F737B;" width="2.27" height="3.09"/>
<rect x="92.01" y="97.03" style="fill:#FDE064;" width="2.27" height="3.09"/>
<rect x="76.37" y="107.03" style="fill:#3F737B;" width="2.27" height="3.09"/>
<rect x="84.19" y="107.03" style="fill:#FDE064;" width="2.27" height="3.09"/>
<rect x="92.01" y="107.03" style="fill:#3F737B;" width="2.27" height="3.09"/>
<rect x="76.37" y="116.5" style="fill:#3F737B;" width="2.27" height="3.09"/>
<rect x="84.19" y="116.5" style="fill:#3F737B;" width="2.27" height="3.09"/>
<rect x="92.01" y="116.5" style="fill:#3F737B;" width="2.27" height="3.09"/>
</svg>
