<?xml version="1.0" encoding="UTF-8" standalone="no"?><svg xmlns:dc="http://purl.org/dc/elements/1.1/" xmlns:cc="http://creativecommons.org/ns#" xmlns:rdf="http://www.w3.org/1999/02/22-rdf-syntax-ns#" xmlns:svg="http://www.w3.org/2000/svg" xmlns="http://www.w3.org/2000/svg" viewBox="0 0 45 45" style="enable-background:new 0 0 45 45;" xml:space="preserve" version="1.1" id="svg2"><metadata id="metadata8"><rdf:RDF><cc:Work rdf:about=""><dc:format>image/svg+xml</dc:format><dc:type rdf:resource="http://purl.org/dc/dcmitype/StillImage"/></cc:Work></rdf:RDF></metadata><defs id="defs6"><clipPath id="clipPath16" clipPathUnits="userSpaceOnUse"><path id="path18" d="M 0,36 36,36 36,0 0,0 0,36 Z"/></clipPath><clipPath id="clipPath28" clipPathUnits="userSpaceOnUse"><path id="path30" d="M 4,36 C 4,36 0,36 0,32 L 0,32 0,4 C 0,0 4,0 4,0 l 0,0 28,0 c 4,0 4,4 4,4 l 0,0 0,28 c 0,0 0,4 -4,4 l 0,0 -28,0 z"/></clipPath><clipPath id="clipPath40" clipPathUnits="userSpaceOnUse"><path id="path42" d="M 14,23 C 12,19 0,10 0,10 L 0,10 0,4 C 0,0 4,0 4,0 l 0,0 28,0 c 4,0 4,4 4,4 l 0,0 0,6 c 0,0 -9,5 -14,13 l 0,0 c -0.75,1.199 -2,-2 -4,-2 l 0,0 c -1.6,0 -2.56,2.56 -3.392,2.56 l 0,0 C 14.4,23.56 14.2,23.4 14,23"/></clipPath><clipPath id="clipPath52" clipPathUnits="userSpaceOnUse"><path id="path54" d="M 0,36 36,36 36,0 0,0 0,36 Z"/></clipPath></defs><g transform="matrix(1.25,0,0,-1.25,0,45)" id="g10"><g id="g12"><g clip-path="url(#clipPath16)" id="g14"><g transform="translate(36,4)" id="g20"><path id="path22" style="fill:#c1694f;fill-opacity:1;fill-rule:nonzero;stroke:none" d="m 0,0 c 0,0 0,-4 -4,-4 l -28,0 c 0,0 -4,0 -4,4 l 0,28 c 0,4 4,4 4,4 l 28,0 c 4,0 4,-4 4,-4 L 0,0 Z"/></g></g></g><g id="g24"><g clip-path="url(#clipPath28)" id="g26"><g transform="translate(0,10)" id="g32"><path id="path34" style="fill:#662213;fill-opacity:1;fill-rule:nonzero;stroke:none" d="m 0,0 c 0,0 12,9 14,13 1,2 2,-2 4,-2 2,0 3.25,3.199 4,2 C 27,5 36,0 36,0 l 0,-10 -36,0 0,10 z"/></g></g></g><g id="g36"><g clip-path="url(#clipPath40)" id="g38"><g transform="translate(14,23)" id="g44"><path id="path46" style="fill:#be1931;fill-opacity:1;fill-rule:nonzero;stroke:none" d="m 0,0 -10,-10 c 0,0 7.105,7.789 8,6 0.558,-1.116 -2.11,-3.881 -4.437,-4.938 -2.282,-1.035 -2.67,-2.838 -1.344,-3.281 0.829,-0.276 2.983,0.175 4.027,2.456 1.321,2.887 4.276,5.989 4.965,5.538 1.532,-1 -2.367,-7.244 -5.149,-10.494 -1.283,-1.499 -0.204,-3.072 0.938,-3.281 1.875,-0.344 3.5,1.469 3.807,4.14 0.442,3.847 1.62,7.502 3.349,7.423 2.904,-0.133 0.719,-8.032 4.719,-7.032 1.411,0.353 1.766,2.231 0.281,3.469 -1.477,1.232 -2.423,3.733 -0.802,5.354 0.353,0.353 2,-0.691 2.802,-2.198 1.515,-2.844 3.208,0.951 1.911,1.987 C 12.286,-4.234 18,-8 18,-8 L 7,1 0,0 Z"/></g></g></g><g id="g48"><g clip-path="url(#clipPath52)" id="g50"><g transform="translate(22,23)" id="g56"><path id="path58" style="fill:#ffcc4d;fill-opacity:1;fill-rule:nonzero;stroke:none" d="m 0,0 c 0,-1.104 -1.791,-2 -4,-2 -2.209,0 -4,0.896 -4,2 0,1.105 1.791,2 4,2 2.209,0 4,-0.895 4,-2"/></g><g transform="translate(18,23)" id="g60"><path id="path62" style="fill:#ffac33;fill-opacity:1;fill-rule:nonzero;stroke:none" d="M 0,0 C -1.562,0 -1.5,2.031 -5,4 -7.756,5.55 -10.5,4.531 -12.438,1.937 -14.592,-0.947 -18.002,2.003 -14,5 -7.531,9.844 -3.313,3.406 -1.687,4.125 -0.876,4.484 -2.496,7.178 -5.007,8.317 -7.206,9.315 -8.439,11 -6.937,11.5 c 2.999,1 5.125,-2.719 6.125,-4.719 0.999,-2 2.124,-1.156 3.843,1.5 1,1.545 2.65,3.141 4.063,3.386 C 9.188,12.031 11.719,9.625 8.969,9.5 6.658,9.395 4,8 3,6 2,4 4.386,4.99 6.312,6.125 10.344,8.5 16,8 15,5 14,2 11.714,8.022 3.688,3.469 1.228,2.073 1.562,0 0,0"/></g></g></g></g></svg>
