<svg xmlns="http://www.w3.org/2000/svg" viewBox="0 0 64 64" enable-background="new 0 0 64 64"><path transform="matrix(.7071-.7071.7071.7071-2.0487 35.6909)" fill="#d0d0d0" d="m34 19h16v2.6h-16z"/><path d="m36.7 26.3c-4.8-4.8-3.9-9.2-2.3-12.5l-31.7 46.2 47-32c-3.2 1.5-8.4 2.8-13-1.7" fill="#f2b200"/><path d="m21.6 11.1c-2.9-2.9-4.3-6.7-3.7-9.8l-15.2 58.7 32.1-46.9c-3 3.1-9 2.2-13.2-2" fill="#ffce31"/><path d="m61.6 45c-3.1.5-6.9-.8-9.8-3.7-4.2-4.2-5.1-10.2-2-13.3l-47 32 58.8-15" fill="#ff8736"/><g fill="#3e4347"><path d="m46.8 13.7l.1.1 1.7 1.7.3.3 6.3-6.3c1-1 3-.7 4.4.6 1.4 1.4 1.7 3.3.6 4.4-.5.5-.4 1.5.3 2.2.7.7 1.7.8 2.2.3 2.1-2.1 1.5-6-1.3-8.7-2.8-2.8-6.7-3.4-8.7-1.3l-6.3 6.3.4.4"/><path d="m.5 62.3c.5.5 1.2.6 1.6.2 0 0 1.4-1.4 3.1-3.1-.2-.4-.4-.8-.7-1.1-.3-.3-.7-.6-1.1-.7-1.8 1.8-3.1 3.1-3.1 3.1-.4.3-.3 1.1.2 1.6"/><path d="m44.4 21.3c-.1 0-.3-.1-.4-.3l-.4-.4 1.2-1.2c-.2 1.1.1 1.9-.4 1.9"/></g></svg>