<?xml version="1.0" encoding="UTF-8" standalone="no"?><svg xmlns:dc="http://purl.org/dc/elements/1.1/" xmlns:cc="http://creativecommons.org/ns#" xmlns:rdf="http://www.w3.org/1999/02/22-rdf-syntax-ns#" xmlns:svg="http://www.w3.org/2000/svg" xmlns="http://www.w3.org/2000/svg" viewBox="0 0 45 45" style="enable-background:new 0 0 45 45;" xml:space="preserve" version="1.1" id="svg2"><metadata id="metadata8"><rdf:RDF><cc:Work rdf:about=""><dc:format>image/svg+xml</dc:format><dc:type rdf:resource="http://purl.org/dc/dcmitype/StillImage"/></cc:Work></rdf:RDF></metadata><defs id="defs6"><clipPath id="clipPath16" clipPathUnits="userSpaceOnUse"><path id="path18" d="M 0,36 36,36 36,0 0,0 0,36 Z"/></clipPath></defs><g transform="matrix(1.25,0,0,-1.25,0,45)" id="g10"><g id="g12"><g clip-path="url(#clipPath16)" id="g14"><g transform="translate(18,0.2002)" id="g20"><path id="path22" style="fill:#f4900c;fill-opacity:1;fill-rule:nonzero;stroke:none" d="m 0,0 c -0.39,0 -0.745,0.218 -0.921,0.565 l -1.8,3.554 -3.024,-2.596 c -0.191,-0.161 -0.43,-0.247 -0.672,-0.247 -0.133,0 -0.267,0.026 -0.394,0.079 -0.359,0.148 -0.606,0.487 -0.634,0.873 l -0.304,3.975 -3.788,-1.241 c -0.105,-0.034 -0.213,-0.051 -0.321,-0.051 -0.269,0 -0.532,0.106 -0.73,0.303 -0.274,0.273 -0.371,0.681 -0.25,1.051 l 1.24,3.788 -3.972,0.301 c -0.388,0.031 -0.726,0.275 -0.875,0.633 -0.148,0.362 -0.083,0.773 0.17,1.068 l 2.594,3.024 -3.553,1.8 c -0.348,0.176 -0.566,0.533 -0.566,0.921 0,0.388 0.218,0.744 0.566,0.921 l 3.553,1.8 -2.594,3.023 c -0.252,0.296 -0.318,0.708 -0.17,1.067 0.149,0.359 0.487,0.605 0.875,0.634 l 3.972,0.304 -1.24,3.787 c -0.121,0.37 -0.024,0.776 0.25,1.052 0.198,0.196 0.461,0.301 0.73,0.301 0.108,0 0.216,-0.017 0.321,-0.051 l 3.788,-1.24 0.304,3.972 c 0.028,0.388 0.275,0.726 0.634,0.875 0.127,0.052 0.261,0.078 0.394,0.078 0.242,0 0.481,-0.085 0.672,-0.248 l 3.024,-2.595 1.8,3.554 C -0.745,35.381 -0.39,35.6 0,35.6 c 0.388,0 0.745,-0.219 0.92,-0.565 l 1.802,-3.555 3.024,2.595 c 0.191,0.163 0.431,0.248 0.671,0.248 0.135,0 0.268,-0.026 0.397,-0.078 0.358,-0.149 0.602,-0.488 0.633,-0.875 l 0.303,-3.972 3.785,1.24 c 0.106,0.034 0.215,0.051 0.321,0.051 0.27,0 0.535,-0.105 0.73,-0.301 0.276,-0.276 0.373,-0.682 0.252,-1.052 l -1.241,-3.787 3.975,-0.304 c 0.386,-0.029 0.725,-0.275 0.873,-0.634 0.149,-0.359 0.084,-0.771 -0.169,-1.067 l -2.595,-3.023 3.553,-1.8 C 17.582,18.544 17.8,18.188 17.8,17.8 c 0,-0.388 -0.218,-0.744 -0.566,-0.921 l -3.553,-1.8 2.595,-3.024 c 0.253,-0.295 0.318,-0.706 0.169,-1.068 -0.148,-0.358 -0.487,-0.602 -0.876,-0.633 l -3.972,-0.301 1.241,-3.788 c 0.121,-0.371 0.024,-0.778 -0.252,-1.051 -0.195,-0.197 -0.46,-0.303 -0.73,-0.303 -0.106,0 -0.215,0.017 -0.321,0.051 L 7.75,6.203 7.447,2.23 C 7.416,1.842 7.172,1.503 6.814,1.355 6.685,1.302 6.552,1.276 6.417,1.276 c -0.24,0 -0.48,0.086 -0.671,0.247 L 2.722,4.119 0.92,0.565 C 0.745,0.218 0.388,0 0,0"/></g><g transform="translate(31,17.9995)" id="g24"><path id="path26" style="fill:#ffcc4d;fill-opacity:1;fill-rule:nonzero;stroke:none" d="M 0,0 C 0,-7.179 -5.821,-12.999 -13.001,-12.999 -20.179,-12.999 -26,-7.179 -26,0 c 0,7.18 5.821,13.001 12.999,13.001 C -5.821,13.001 0,7.18 0,0"/></g><g transform="translate(18,12.5293)" id="g28"><path id="path30" style="fill:#f4900c;fill-opacity:1;fill-rule:nonzero;stroke:none" d="m 0,0 c -6.222,0 -8,2.328 -8,1.229 0,-1.102 3.556,-3.981 8,-3.981 4.444,0 8,2.879 8,3.981 C 8,2.328 6.223,0 0,0"/></g><g transform="translate(26,21.3335)" id="g32"><path id="path34" style="fill:#f4900c;fill-opacity:1;fill-rule:nonzero;stroke:none" d="m 0,0 c 0,-1.473 -1.194,-2.667 -2.667,-2.667 -1.472,0 -2.666,1.194 -2.666,2.667 0,1.473 1.194,2.667 2.666,2.667 C -1.194,2.667 0,1.473 0,0"/></g><g transform="translate(15.3335,21.3335)" id="g36"><path id="path38" style="fill:#f4900c;fill-opacity:1;fill-rule:nonzero;stroke:none" d="m 0,0 c 0,-1.473 -1.195,-2.667 -2.667,-2.667 -1.472,0 -2.666,1.194 -2.666,2.667 0,1.473 1.194,2.667 2.666,2.667 C -1.195,2.667 0,1.473 0,0"/></g></g></g></g></svg>
