<?xml version="1.0" encoding="utf-8"?>
<!-- Generator: Adobe Illustrator 25.2.3, SVG Export Plug-In . SVG Version: 6.00 Build 0)  -->
<svg version="1.1" id="Layer_5" xmlns="http://www.w3.org/2000/svg" xmlns:xlink="http://www.w3.org/1999/xlink" x="0px" y="0px"
	 viewBox="0 0 128 128" style="enable-background:new 0 0 128 128;" xml:space="preserve">
<g>
	<path style="fill:#22404C;" d="M64,4c0,0-36.01,13.04-36.01,60S64,124,64,124c33.14,0,60-26.86,60-60S97.14,4,64,4z"/>
	<path style="fill:#FCE5AC;" d="M30.53,64C30.53,17.04,64,4,64,4C30.86,4,4,30.86,4,64s26.86,60,60,60C64,124,30.53,110.96,30.53,64
		z"/>
	<g>
		<g>
			<path style="fill:#1B2E35;" d="M56.53,11.19c3.99-0.2,7.41-0.92,7.48-2.28c0.06-1-1.9-2.08-4.68-2.48
				c-1.86,1.12-4.13,2.68-6.59,4.73C53.86,11.25,55.15,11.26,56.53,11.19z"/>
			<path style="fill:#F1C688;" d="M56.13,6.29c-4.36,0.23-7.48,2.05-7.19,3.37c0.19,0.87,1.68,1.34,3.8,1.5
				c2.46-2.06,4.74-3.61,6.59-4.73C58.35,6.29,57.27,6.23,56.13,6.29z"/>
		</g>
	</g>
	<path style="fill:#1B2E35;" d="M119.37,59.47c-0.01-0.4,0.01-0.8,0.08-1.21c1.22-7.23,1.8-14-6.32-18.14
		c-0.89-0.46-1.87-0.83-2.55-1.57c-1.25-1.35-1.14-3.41-1.46-5.22c-0.97-5.54-7.24-9.51-12.66-8.01c-1.78,0.49-3.64,1.47-5.35,0.8
		c-1.38-0.54-2.16-1.97-2.94-3.23c-2.21-3.58-5.6-6.76-9.77-7.34c-4.17-0.59-8.91,2.3-9.17,6.5c-0.11,1.83,0.2,3.99,1.6,5.18
		c5.88,5.01,9.52,1.32,12.25,3.91c3.17,3.01-3.41,3.82-2.32,11.47c0.55,3.82,4.34,7.4,8.19,7.08c1.71-0.15,4.31-0.24,5.26,1.19
		c0.75,1.12,0.56,2.19,0.56,4.03c0,4.54,0.5,8.11,4.92,9.14c0.57,0.13,1.19,0.2,1.72-0.03c1.17-0.51,1.16-2.08,1.08-3.36
		c-0.35-5.62-4.31-6.76-5.03-9.85c-0.91-3.94,4.47-9.27,8.87-7.78c3.5,1.19,0.65,5.25,3.21,9.94c1.69,3.11,5.01,4.54,6.24,7.08
		c1.23,2.54,0.09,4.3,0.69,5.91c0.93,2.52,2.41,2.56,3.24,1.67c0.91-0.97,0.61-2.96,0.39-4.12
		C119.86,62.16,119.41,60.84,119.37,59.47z"/>
	<path style="fill:#F1C688;" d="M26.26,102.61c-1.02-0.95-1.91-0.73-2.01-0.57c-1.15,1.68,1.47,6.44,6.28,7.28
		c1,0.17,2.17-0.75,0.97-1.83C30.29,106.4,27.28,103.56,26.26,102.61z"/>
	<path style="fill:#F1C688;" d="M42.04,114.42c-0.48,1.98,3.66,5.49,8.46,4.57c1-0.19,1.76-1.47,0.25-2.06
		c-1.51-0.59-5.33-2.17-6.63-2.7S42.08,114.23,42.04,114.42z"/>
	<path style="fill:#1B2E35;" d="M49.23,112.75c0.28-0.71-0.33-1.45-0.93-1.91c-0.5-0.39-1.87-1.25-3.51-2.13
		c1.33,1.66,2.68,3.17,4.02,4.52C48.99,113.11,49.15,112.97,49.23,112.75z"/>
	<path style="fill:#F1C688;" d="M36.36,106.86c-0.52,1.99,3.15,4.36,4.55,5.13c1.99,1.09,4.27,1.67,6.55,1.6
		c0.46-0.01,0.98-0.11,1.35-0.36c-1.34-1.35-2.69-2.87-4.02-4.52C41.4,106.88,36.86,104.95,36.36,106.86z"/>
	<path style="fill:#1B2E35;" d="M97.71,106c-0.22-0.13-0.6-1.22,0.58-2.57c1.18-1.35,4.68-5.33,6.01-6.92s2.66-0.18,2.52,1.09
		C106.12,103.71,100.03,107.33,97.71,106z"/>
	<path style="fill:#1B2E35;" d="M109.01,94.19c-0.2-0.04-0.77-0.78-0.21-2.12s2.23-5.29,2.85-6.84c0.62-1.56,2-0.82,2.21,0.2
		C114.88,90.29,111.13,94.62,109.01,94.19z"/>
	<path style="fill:#1B2E35;" d="M86.51,13.32c-0.04,0.2-0.79,0.79-2.12,0.27c-1.33-0.52-5.25-2.1-6.8-2.68
		c-1.55-0.58-0.79-1.98,0.22-2.22C82.69,7.54,86.97,11.18,86.51,13.32z"/>
	<path style="fill:#1B2E35;" d="M31.75,78.73c0.45-0.32,0.91-0.61,1.42-0.81c2.34-0.87,2.4,0.63,2.63,2.38
		c1.08,8.06,4.43,10.14,6.78,11.05c4.89,1.89,10.9,0.09,14.08-4.08c3.18-4.17,3.53-10.4,0.66-14.79
		c-4.38-6.7-13.03-7.07-14.78-10.82c-1.97-4.22,3.48-4.81,5.86-8.47c2.12-3.25,2.56-7.72,0.54-11.08c-1-1.66-2.66-3.32-2.24-5.21
		c0.47-2.11,6.48-5.42,10.95-9.26c3.17-2.72,10.62-10.03-1.19-12.19c-4-0.73-6.91-0.14-9.16,0.88C38.92,25.47,30.53,40.48,30.53,64
		C30.53,69.35,30.98,74.23,31.75,78.73z M37.37,48.58c0.8,0,2.73-0.26,3.41,0.18c0.91,0.59,0.94,1.84,0.72,3.04
		c-0.14,0.79-0.39,1.55-0.57,2.07c-0.49,1.45-1.2,2.97-2.57,3.64c-0.6,0.3-1.27,0.4-1.93,0.51c-1.37,0.21-3.08,0.28-3.79-0.91
		c-0.26-0.43-0.32-0.95-0.37-1.45c-0.23-2.16-0.34-4.67,1.25-6.14C34.68,48.46,35.95,48.59,37.37,48.58z"/>
	<path style="fill:#F1C688;" d="M33.16,22.12c-4.94,3.01-3.07,5.19-3.52,7.74c-0.46,2.55-3.19,3.64-5.19,3.83
		c-2.37,0.23-2.56-1.21-1.42-2.94c0.63-0.95,1.3-1.54,1.62-2.66c0.37-1.3,0.17-2.7,0.89-3.9c1.13-1.88,3.77-2.14,5.4-3.6
		c1.18-1.06,1.75-2.69,3.01-3.66c1.26-0.97,2.9-1.32,4.47-1.6c3.2-0.57,5.9-3.09,4.45-3.17c-1.46-0.08-3.89-0.55-5.93,0.95
		c-2.27,1.66-5.32,2.18-7.73,3.55c-2.7,1.55-4.12,4.92-4.94,5.83c-0.82,0.91-3.46,1-5.28,2.88C15.19,29.27,8.85,43.4,8.85,48.69
		c0,4.93,2.19,9.75,7.08,11.09c0.74,0.2,1.53,0.43,2.01,1.03c1.1,1.37-1.65,5.49-2.07,7.15c-1.07,4.3,0.1,7.61,2,9.98
		c4.11,5.11,8.21,4.42,12.33,1.89c0.54-0.33,1.03-0.73,1.55-1.09c-0.77-4.5-1.22-9.38-1.22-14.73c0-23.52,8.4-38.53,16.78-47.66
		c-3.11,1.4-4.96,3.6-6.65,4.32C38.34,21.65,36.74,19.94,33.16,22.12z M26.01,48.86c-0.34,0.65-0.85,1.3-1.58,1.41
		c-0.69,0.1-1.35-0.34-1.78-0.89c-0.68-0.89-0.88-2.14-0.45-3.17c0.51-1.24,2.25-2.23,3.6-1.65c0.73,0.31,0.95,1.05,0.91,1.86
		C26.66,47.31,26.31,48.28,26.01,48.86z"/>
</g>
</svg>
