<?xml version="1.0" encoding="UTF-8" standalone="no"?><svg xmlns:dc="http://purl.org/dc/elements/1.1/" xmlns:cc="http://creativecommons.org/ns#" xmlns:rdf="http://www.w3.org/1999/02/22-rdf-syntax-ns#" xmlns:svg="http://www.w3.org/2000/svg" xmlns="http://www.w3.org/2000/svg" viewBox="0 0 45 45" style="enable-background:new 0 0 45 45;" xml:space="preserve" version="1.1" id="svg2"><metadata id="metadata8"><rdf:RDF><cc:Work rdf:about=""><dc:format>image/svg+xml</dc:format><dc:type rdf:resource="http://purl.org/dc/dcmitype/StillImage"/></cc:Work></rdf:RDF></metadata><defs id="defs6"><clipPath id="clipPath16" clipPathUnits="userSpaceOnUse"><path id="path18" d="M 0,36 36,36 36,0 0,0 0,36 Z"/></clipPath></defs><g transform="matrix(1.25,0,0,-1.25,0,45)" id="g10"><g id="g12"><g clip-path="url(#clipPath16)" id="g14"><g transform="translate(33.0518,15.748)" id="g20"><path id="path22" style="fill:#bbddf5;fill-opacity:1;fill-rule:nonzero;stroke:none" d="m 0,0 c 0,-1.783 -1.431,-3.227 -3.197,-3.227 -1.767,0 -3.198,1.444 -3.198,3.227 0,1.782 1.431,3.229 3.198,3.229 C -1.431,3.229 0,1.782 0,0"/></g><g transform="translate(35.833,13.4346)" id="g24"><path id="path26" style="fill:#bbddf5;fill-opacity:1;fill-rule:nonzero;stroke:none" d="m 0,0 c 0,-1.536 -1.245,-2.781 -2.781,-2.781 -1.536,0 -2.781,1.245 -2.781,2.781 0,1.535 1.245,2.78 2.781,2.78 C -1.245,2.78 0,1.535 0,0"/></g><g transform="translate(34.5947,8.9277)" id="g28"><path id="path30" style="fill:#bbddf5;fill-opacity:1;fill-rule:nonzero;stroke:none" d="m 0,0 c 0,-1.761 -1.427,-3.188 -3.188,-3.188 -1.759,0 -3.187,1.427 -3.187,3.188 0,1.76 1.428,3.187 3.187,3.187 C -1.427,3.187 0,1.76 0,0"/></g><g transform="translate(30.2705,8.7119)" id="g32"><path id="path34" style="fill:#bbddf5;fill-opacity:1;fill-rule:nonzero;stroke:none" d="m 0,0 c 0,-0.879 -0.996,-1.592 -2.225,-1.592 -1.228,0 -2.223,0.713 -2.223,1.592 0,0.878 0.995,1.591 2.223,1.591 C -0.996,1.591 0,0.878 0,0"/></g><g transform="translate(29.0234,14.4893)" id="g36"><path id="path38" style="fill:#bbddf5;fill-opacity:1;fill-rule:nonzero;stroke:none" d="M 0,0 C 0,0 -2.968,-0.951 -5.789,-0.504 -3.31,-2.375 1.056,-1.502 1.056,-1.502 L 0,0 Z"/></g><g transform="translate(29.2207,12.665)" id="g40"><path id="path42" style="fill:#bbddf5;fill-opacity:1;fill-rule:nonzero;stroke:none" d="M 0,0 C -0.087,-0.02 -3.002,-0.551 -7.037,-0.144 -5.815,-1.371 -0.555,-1.503 0.4,-1.178 1.354,-0.852 0,0 0,0"/></g><g transform="translate(29.9072,8.665)" id="g44"><path id="path46" style="fill:#bbddf5;fill-opacity:1;fill-rule:nonzero;stroke:none" d="M 0,0 C 0,0 -2.422,1.123 -6.673,1.988 -3.777,2.824 0.693,1.788 1.151,1.123 1.61,0.458 0,0 0,0"/></g><g transform="translate(32.4629,11.708)" id="g48"><path id="path50" style="fill:#bbddf5;fill-opacity:1;fill-rule:nonzero;stroke:none" d="m 0,0 c 0,-2.275 -0.999,-4.12 -2.232,-4.12 -1.234,0 -2.234,1.845 -2.234,4.12 0,2.277 1,4.122 2.234,4.122 C -0.999,4.122 0,2.277 0,0"/></g><g transform="translate(1.9023,27.875)" id="g52"><path id="path54" style="fill:#ccd6dd;fill-opacity:1;fill-rule:nonzero;stroke:none" d="m 0,0 c 0,0 2.803,-2.014 5.365,-0.19 4.217,3.003 8.741,3.165 11.14,1.889 2.685,-1.428 4.563,-4.921 3.104,-7.545 -1.792,-3.23 -0.55,-4.065 0.6,-4.608 1.186,-0.562 -0.338,-1.86 -1.008,-2.018 -0.668,-0.16 0.297,-1.501 1.039,-1.501 -0.232,-0.925 -0.642,-1.348 -1.05,-1.539 0.613,-0.352 0.869,-1.495 0.485,-1.578 -0.814,-0.176 -1.491,-0.523 -1.771,-1.156 -1.683,-3.818 -3.474,1.509 -7.986,-1.268 -4.897,-3.012 -9.855,2.424 -7.298,6.395 -3.307,0.658 -4.104,4.176 -1.808,6.057 C -1.75,-5.687 -2.375,-1.437 0,0"/></g><g transform="translate(1.6362,19.3535)" id="g56"><path id="path58" style="fill:#99aab5;fill-opacity:1;fill-rule:nonzero;stroke:none" d="m 0,0 c 0,0 -1.492,-3.71 2.886,-4.598 3.52,-0.713 5.645,1.912 5.645,1.912 0,0 -2.796,-1.832 -5.75,-0.645 C -0.174,-2.145 0,0 0,0"/></g><g transform="translate(1.9023,27.875)" id="g60"><path id="path62" style="fill:#99aab5;fill-opacity:1;fill-rule:nonzero;stroke:none" d="M 0,0 C 0,0 -1.86,-0.875 -1.694,-3.5 -1.527,-6.125 0.473,-7.791 2.848,-6.875 -0.86,-6.417 -2.402,-2.333 0,0"/></g><g transform="translate(4.522,14.7559)" id="g64"><path id="path66" style="fill:#99aab5;fill-opacity:1;fill-rule:nonzero;stroke:none" d="M 0,0 C 0,0 -1.853,-2.135 0,-5.133 1.853,-8.131 5.027,-7.357 5.826,-7.056 0.687,-7.828 -0.923,-1.823 1.257,-0.123 3.437,1.577 0,0 0,0"/></g><g transform="translate(22.1426,13.9023)" id="g68"><path id="path70" style="fill:#99aab5;fill-opacity:1;fill-rule:nonzero;stroke:none" d="M 0,0 C 0,0 -0.471,-0.871 -1.674,-0.934 -2.216,-0.962 -1.603,-1.604 -1.05,-1.539 -0.616,-1.488 -0.269,-1.099 0,0"/></g><g transform="translate(21.6602,10.8389)" id="g72"><path id="path74" style="fill:#99aab5;fill-opacity:1;fill-rule:nonzero;stroke:none" d="m 0,0 c 0.164,0.142 -0.535,0.54 -1.129,0.304 -0.594,-0.237 -0.777,-1.994 -1.443,-2.623 1.084,1.121 0.797,1.59 1.677,1.941 C -0.427,-0.191 -0.168,-0.145 0,0"/></g><g transform="translate(22.5449,16.833)" id="g76"><path id="path78" style="fill:#99aab5;fill-opacity:1;fill-rule:nonzero;stroke:none" d="M 0,0 C 0,0 0.006,-1.048 -1.613,-1.534 -3.232,-2.021 -2.554,-1.026 -1.701,-0.958 -0.232,-0.841 -0.002,0.002 0,0"/></g><g transform="translate(20.167,18.541)" id="g80"><path id="path82" style="fill:#99aab5;fill-opacity:1;fill-rule:nonzero;stroke:none" d="m 0,0 c 0,0 0.097,0.722 -0.13,1.266 -0.167,0.402 -0.037,-0.573 -0.949,-1.023 -0.985,-0.486 -2.072,-0.534 -2.072,-0.534 0,0 1.968,-0.844 3.151,0.291"/></g><g transform="translate(22.0186,23.9683)" id="g84"><path id="path86" style="fill:#99aab5;fill-opacity:1;fill-rule:nonzero;stroke:none" d="m 0,0 c 0,0 0.325,-3.562 -3.675,-3.718 -4,-0.157 -7.469,3.718 -7.469,3.718 0,0 3.719,-3.25 7.5,-2.968 C 0.138,-2.687 0,0 0,0"/></g><g transform="translate(16.792,20.7461)" id="g88"><path id="path90" style="fill:#99aab5;fill-opacity:1;fill-rule:nonzero;stroke:none" d="m 0,0 c 0,0 -1.417,-2.454 -5.5,-2.496 -4.084,-0.042 -4.459,3.541 -4.459,3.541 0,0 0.955,-3.404 5.25,-2.883 C -1.792,-1.484 -1,0.295 -1,0.295 L 0,0 Z"/></g></g></g></g></svg>
