<?xml version="1.0" encoding="utf-8"?>
<!-- Generator: Adobe Illustrator 25.2.3, SVG Export Plug-In . SVG Version: 6.00 Build 0)  -->
<svg version="1.1" id="Layer_2" xmlns="http://www.w3.org/2000/svg" xmlns:xlink="http://www.w3.org/1999/xlink" x="0px" y="0px"
	 viewBox="0 0 128 128" style="enable-background:new 0 0 128 128;" xml:space="preserve">
<path style="fill:#9A9A9A;" d="M45.79,74.25c0,0-18.68,2.79-17.25,4.65c2.23,2.9,19.94,18.59,30.25,26.94
	c9.76,7.91,18.65,16.63,25.32,17.78c10.07,1.74,24.68-1.06,35.33-15.2c6.13-8.14,1.87-19.82-1.06-25.56s-32.45-24.8-32.45-24.8
	L45.79,74.25z"/>
<path style="fill:#B0B0B0;" d="M54.2,84.96c0,0,1.27,6.37,4.84,8.54c3.57,2.17,5.73,1.66,9.56,4.97c3.82,3.31,6.37,9.17,8.54,10.83
	c2.17,1.66,6.5,2.93,9.56,5.1c3.06,2.17,4.08,4.84,7.64,5.35s20.76-3.63,25.97-12.66c5.03-8.71,3.46-17.43,2.18-21.38
	c-1.27-3.95-20.25-28.31-25.35-34.68c-5.1-6.37-12.36-16.64-12.36-16.64L54.2,84.96z"/>
<path style="fill:#E0E0E0;" d="M83.76,62.53c0,0,0.82,3.83,1.78,8.19c0.81,3.7,2.58,9.47,4.87,10.36c2.29,0.89,5.2,0.18,5.2,0.18
	s3.65,12.75,5.73,14.27c1.4,1.02,5.61,0,6.37,0.89c0.76,0.89,4.2,10.57,6.37,10.57c2.17,0,4.02-3.01,5.73-8.79
	c2.04-6.88,0.09-11.28-3.57-16.56c-4.59-6.63-17.71-23.95-21.15-27.9s-5.73-6.63-6.75-5.99C87.33,48.39,83.76,62.53,83.76,62.53z"/>
<path style="fill:#FFFFFF;" d="M115.12,95.26c-1.49,0-2.33,2.37-2,4.89c0.33,2.52,0.75,3.97,2.56,3.81
	c2.11-0.19,1.78-3.18,1.74-4.89S116.79,95.26,115.12,95.26z"/>
<path style="fill:#FFFFFF;" d="M97.3,77.45c2.35,2.52,5.6,4.09,8.4,7c2.8,2.91,5.26,7.5,7.45,8.62c2.18,1.12,4.03,1.01,4.59-0.62
	c0.56-1.62-0.84-4.31-2.52-5.6s-2.97-2.07-3.58-3.36s-0.34-3.25-2.46-5.43c-2.13-2.18-7.11-3.42-8.45-5.09
	c-1.34-1.68-0.73-5.99-2.74-7.78c-2.02-1.79-4.42-1.12-4.42,1.74s1.18,3.14,1.74,5.09C95.84,73.98,95.67,75.71,97.3,77.45z"/>
<path style="fill:#FFFFFF;" d="M89.57,67.82c2.36,0.34,3.58-2.63,3.75-6.38c0.17-3.75,0.58-7.91-2.63-8.45
	c-2.97-0.5-3.47,7.33-3.58,10.25C87.03,65.13,87.22,67.48,89.57,67.82z"/>
<path style="fill:#807F7D;" d="M33.42,65.45c0,0-12.58,7.82-3.48,14.87s18.01,8.93,31.62,4.99c14.96-4.33,23.46-18.24,26.09-27.51
	c2.63-9.26,1.78-17.51-2.04-23.2s-8.41-9.77-10.62-10.28c-2.21-0.51-21.16,35.7-21.16,35.7L33.42,65.45z"/>
<path style="fill:#F6B140;" d="M74.89,68.73l3.33-0.11c0,0,2.58-3.57,2.89-4.34c0.31-0.78-9.33-27.37-9.23-27.89
	c0.1-0.52-5.01-26.89-14.62-30.58c-6.74-2.59-10.89-1.56-13.79-1.76s-4.58-0.96-8.81-0.41c-5.6,0.73-13.06,1.87-22.19,12.44
	C3.67,26.28,5.33,33.28,5.53,40.43S4.32,53.5,8.05,58.69s12.41,8.59,12.41,8.59L74.89,68.73z"/>
<path style="fill:#A1C23C;" d="M61.71,18.32c-0.16-1.21-0.38-6.85-8.4-6.97c-3.98-0.06-6.64,2.09-6.64,2.09s-7.65-2.06-13.6,0.26
	C29.67,15.02,21.8,29,21.8,29l9.72,2.19L61.71,18.32z"/>
<path style="fill:#95A61D;" d="M52.91,24.45c0.06-0.31,8.73-5.86,8.73-5.86s0.5-1.98-4.21-2.4c-3.49-0.31-5.27,2.15-5.27,2.15
	s-4.33-2.08-7.55,0.69c-2.19,1.88-0.5,3.62-0.5,3.62L52.91,24.45z"/>
<path style="fill:#95A61D;" d="M24.02,29.31c0,0,0.23-3.54,3.43-8.24c3.74-5.49,9.73-6.68,9.86-7.49c0.13-0.87-4.93-1.5-9.73,1.56
	c-4,2.55-7.4,7.02-7.9,12.08C19.1,33.08,24.02,29.31,24.02,29.31z"/>
<path style="fill:#FFD61C;" d="M27.3,32.1c0.04,1.16-10.43,2.58-11.86,2.58s-3.19-1.42-2.64-3.37c0.68-2.45,4.15-2.93,6.26-2.93
	C21.78,28.38,27.16,28.5,27.3,32.1z"/>
<path style="fill:#FFFFFE;" d="M26.41,33.35c0,0-3.81-1.23-8.44,0.27c-4.52,1.46-6.38,3.7-7.49,7.83
	c-1.53,5.72,1.36,12.32,1.36,12.32l9.19,6.13c0,0,7.49-5.79,7.21-6.53S26.41,33.35,26.41,33.35z"/>
<path style="fill:#FFD61C;" d="M11.91,48.26c-0.98,0.63-2.04,3.33,0.61,7.76c2.47,4.12,4.56,4.76,5.99,3.33
	c1.43-1.43-1.75-3.47-3.27-6.74C14.53,51.08,13.61,47.17,11.91,48.26z"/>
<path style="fill:#FAB16E;" d="M20.01,49.55c0,0-3.47-2.72-2.11-8.58s8.24-9.39,8.24-9.39s-0.41-8.3,6.87-11.3
	s15.72,4.22,15.72,4.22l3.88,21.1L20.01,49.55z"/>
<path style="fill:#D27857;" d="M36.13,27.15c-0.9,2.26-2.27,6.29,0.19,7.02s4.8-3.26,5.53-5.15c0.73-1.89,1.97-4.92-0.25-6.13
	S37.15,24.59,36.13,27.15z"/>
<path style="fill:#D27857;" d="M32.07,26.67c-1.98-0.15-3.26,1.96-3.19,5.66c0.05,2.56,0.63,4.26,2.66,4.31
	c2.23,0.05,2.47-3.34,2.61-5.27S34.46,26.85,32.07,26.67z"/>
<path style="fill:#D27857;" d="M21.13,46.07c0.74,1.47,3.63,1.94,7.26-0.29c2.83-1.73,4.06-4.06,3.68-5.56
	c-0.39-1.5-4.11-1.98-7.31,0.05C21.57,42.3,20.31,44.43,21.13,46.07z"/>
<path style="fill:#543630;" d="M44.02,18.3c-1.72,0.39-3.73,1.84-3.29,4.6c0.37,2.33,3.24,2.56,5.23,2.13
	c1.7-0.37,3.97-2.56,3.53-4.69C49.05,18.2,46.78,17.67,44.02,18.3z"/>
<path style="fill:#543630;" d="M35.26,40.07c1.5,2.84,5.57,0.57,6.97-0.34c1.47-0.96,3.15-3,2.47-4.74s-2.95-2.37-6.1-0.77
	S34.29,38.23,35.26,40.07z"/>
<path style="fill:#6D4C41;" d="M61.65,18.58c0,0-3.14-0.11-7.39,3.1C44.73,28.87,42.97,44.8,42.97,44.8L38.84,46
	c0,0-2.58-0.25-4.63,0.22C31.31,46.86,29,49.03,29,49.03l-8.43,12.17c0,0,4.33,1.96,10.7,1.3c3.85-0.4,19.45,0.27,19.45,0.27
	s15.69-1.64,15.47-2c-0.22-0.36-3.51-4.8-4.59-7.47c-1.09-2.68,0.92-21.64,0.92-21.64l-1.16-6.51L61.65,18.58z"/>
<path style="fill:#FFD61C;" d="M43.96,41.01c2.14,0.68,3.43-1.22,3.97-2.39c0.85-1.83,1.58-3.97,3.7-6.09
	c2.46-2.47,4.8-3.12,3.56-5.56c-1.45-2.86-7.13,3.13-7.13,3.13s1.42-3.09,3.47-4.96c1.77-1.61,0.55-4.9-2.62-2.75
	c-3.3,2.24-5.37,5.91-6.18,8.71C42.04,33.49,41.39,40.2,43.96,41.01z"/>
<path style="fill:#8D6256;" d="M58.45,30.45c-2.54-0.68-5.02,0.77-6.68,5.28c-1.13,3.07,0.05,6.36,1.94,6.86
	c3.32,0.87,6.68-3.84,6.99-7.13C61.02,32.16,60.3,30.95,58.45,30.45z"/>
<path style="fill:#8D6256;" d="M37.55,47.87c0.54,1.95,5.14,2.53,7.94,1.35c3.43-1.44,4.87-4.51,4.06-6.63
	c-0.81-2.12-4.54-2.74-7.67-1.22C38.82,42.86,36.83,45.25,37.55,47.87z"/>
<path style="fill:#8D6256;" d="M47.21,53.69c0.72,2.43,4.06,2.21,5.51,1.71c1.44-0.5,3.88-1.58,3.34-4.29
	c-0.54-2.71-3.56-2.3-5.19-2.03C49.24,49.36,46.49,51.25,47.21,53.69z"/>
<path style="fill:#8D6256;" d="M29.48,56.85c0.31,1.38-0.05,3.83-4.87,4.47c-3.42,0.45-6.36-0.14-6.63-2.71
	c-0.48-4.58,4.6-4.33,4.6-4.33s-4.02-0.14-4.15-3.75c-0.1-2.62,2.8-4.24,6.5-4.87s6.58,0.72,6.99,3.25
	c0.63,3.84-5.14,5.46-5.14,5.46S29.1,55.21,29.48,56.85z"/>
<path style="fill:#FAB16E;" d="M40.22,52.6c0.23,2.98-3.52,3.84-6.09,3.7c-1.8-0.09-5.41-1.25-4.74-4.11
	c0.81-3.43,5.32-3.25,7.08-2.98S40.07,50.67,40.22,52.6z"/>
<radialGradient id="SVGID_1_" cx="79.6982" cy="71.5718" r="51.1552" gradientUnits="userSpaceOnUse">
	<stop  offset="0.5319" style="stop-color:#F8CD7F"/>
	<stop  offset="0.6296" style="stop-color:#FAD593"/>
	<stop  offset="0.8473" style="stop-color:#FEE4BB"/>
	<stop  offset="0.9605" style="stop-color:#FFEACA"/>
</radialGradient>
<path style="fill:url(#SVGID_1_);" d="M19.46,68.67c2.01,1.73,10.17,9.58,13.58,11.75c3.42,2.17,10.08,5.75,21.5,3.42
	c11.42-2.33,17.5-8.83,19.91-11c2.42-2.17,3.35-4.09,3.34-4.21c-0.01-0.12-18.34-9.7-24.09-9.29c-5.75,0.42-16.75,4.75-22.75,5.75
	s-19.83-3.08-19.83-3.08S15.96,65.67,19.46,68.67z"/>
<radialGradient id="SVGID_2_" cx="79.6065" cy="68.2169" r="45.1423" gradientUnits="userSpaceOnUse">
	<stop  offset="0.5319" style="stop-color:#F8CD7F"/>
	<stop  offset="0.6296" style="stop-color:#FAD593"/>
	<stop  offset="0.8473" style="stop-color:#FEE4BB"/>
	<stop  offset="0.9605" style="stop-color:#FFEACA"/>
</radialGradient>
<path style="fill:url(#SVGID_2_);" d="M63.12,50.01V26.95l2.04-11.47l-2.6-6.27c0,0,10.91,12.89,14.56,17.83
	c3.65,4.93,6.89,8.45,7.69,11.51c0.92,3.51,1.05,11.19-0.35,16.72c-1.7,6.69-4.02,10.18-4.02,10.18s-5.2-2.46-10.13-6.21
	S63.12,50.01,63.12,50.01z"/>
<path style="fill:#F6C977;" d="M72.97,34.72c-1.64,0.39-2.13,4.58-1.58,7.9c0.62,3.7,1.58,6.32,4.03,5.84
	c2.45-0.47,1.89-5.92,1.18-9.63S74.63,34.32,72.97,34.72z"/>
<path style="fill:#F6C977;" d="M66.42,42.45c-1.74-0.55-3.55,1.58-3.71,5.84s1.82,4.11,2.53,4.26s2.68-1.5,2.84-4.82
	C68.2,45.06,67.85,42.91,66.42,42.45z"/>
<path style="fill:#F6C977;" d="M55.05,72.54c-2.43,2.06-2.61,5.76-1.42,7.82c1.18,2.05,2.29,3.16,2.29,3.16s5.17-1.26,7.95-2.68
	c2.52-1.29,5.86-3.87,5.86-3.87s-5.12-4.89-8.6-5.68S56.07,71.67,55.05,72.54z"/>
<path style="fill:#F7BF5E;" d="M76.34,54.99c-0.22,1.79,0.46,3.55,1.9,4.62c1.68,1.25,5.1,0,3.14-3.79
	C79.47,52.12,76.58,53.03,76.34,54.99z"/>
<path style="fill:#F6C977;" d="M36.78,72.1c-1.32,2.01-0.68,5.6,4.07,7.01c3.29,0.98,5.57-0.47,6.28-2.01
	c0.71-1.54,0.62-5.07-3.97-6.52C39.96,69.56,37.91,70.38,36.78,72.1z"/>
<radialGradient id="SVGID_3_" cx="46.6324" cy="78.7651" r="9.4423" gradientUnits="userSpaceOnUse">
	<stop  offset="0.5319" style="stop-color:#F6AF3D"/>
	<stop  offset="0.9585" style="stop-color:#F6AF3D;stop-opacity:0"/>
</radialGradient>
<path style="fill:url(#SVGID_3_);" d="M38.6,74.42c-0.52,1.62,1.13,3.44,3.91,3.79s4.27-0.36,4.74-1.96
	c0.47-1.6-1.78-3.38-4.33-3.67C40.68,72.33,39.07,72.94,38.6,74.42z"/>
<path style="fill:#F7BD5C;" d="M55.96,76.62c-0.69,0.84-0.71,3.32,1.48,4.21c2.19,0.89,3.56-0.36,3.85-1.3
	c0.3-0.95-0.26-2.53-1.66-3.26C58.38,75.61,56.79,75.61,55.96,76.62z"/>
<radialGradient id="SVGID_4_" cx="66.0223" cy="80.6235" r="4.4988" gradientTransform="matrix(-0.4024 -0.9155 2.0944 -0.9206 -76.2668 215.2872)" gradientUnits="userSpaceOnUse">
	<stop  offset="0.5319" style="stop-color:#F6AF3D"/>
	<stop  offset="0.9585" style="stop-color:#F6AF3D;stop-opacity:0"/>
</radialGradient>
<path style="fill:url(#SVGID_4_);" d="M60.27,82.23c0,0-0.88-3.26,1.14-4.34c2.02-1.08,3.23,0.13,3.23,0.13s0.47-1.38,2.19-1.63
	c1.72-0.26,2.84,0.6,2.84,0.6s-2.63,2.13-4.55,3.23C63.16,81.35,60.27,82.23,60.27,82.23z"/>
<radialGradient id="SVGID_5_" cx="82.6285" cy="63.218" r="4.7157" gradientUnits="userSpaceOnUse">
	<stop  offset="0.5319" style="stop-color:#F6AF3D"/>
	<stop  offset="0.9585" style="stop-color:#F6AF3D;stop-opacity:0"/>
</radialGradient>
<path style="fill:url(#SVGID_5_);" d="M83.17,59.58c0,0-3.31-1.46-4.24,0.82c-0.96,2.34,1.87,4.54,1.87,4.54s0.9-1.76,1.33-2.8
	C82.65,60.89,83.17,59.58,83.17,59.58z"/>
<radialGradient id="SVGID_6_" cx="64.6563" cy="34.4346" r="7.3087" gradientUnits="userSpaceOnUse">
	<stop  offset="0.5319" style="stop-color:#F6AF3D"/>
	<stop  offset="0.9585" style="stop-color:#F6AF3D;stop-opacity:0"/>
</radialGradient>
<path style="fill:url(#SVGID_6_);" d="M67.72,27.85c-1.43,0-2.43,2.2-2.34,4.03c0.09,1.83,1.1,3.62,2.7,3.53
	c2.25-0.13,2.35-2.43,2.29-4.21C70.33,29.77,69.51,27.85,67.72,27.85z"/>
<radialGradient id="SVGID_7_" cx="72.6217" cy="40.4065" r="9.1781" gradientUnits="userSpaceOnUse">
	<stop  offset="0.5319" style="stop-color:#F6AF3D"/>
	<stop  offset="0.9585" style="stop-color:#F6AF3D;stop-opacity:0"/>
</radialGradient>
<path style="fill:url(#SVGID_7_);" d="M78.14,37c0.15-0.61,0.16-1.31,0.03-2c-0.32-1.65-1.72-2.94-3.39-2.38
	c-1.79,0.6-1.74,3.3-1.33,4.4c0.19,0.49,0.54,0.95,1.01,1.28c-0.41,1.13-0.36,2.58-0.23,3.58c0.23,1.83,1.01,3.66,2.7,4.17
	c1.45,0.43,2.7-0.41,2.84-2.93C79.88,41.12,79.62,38.12,78.14,37z"/>
<path style="fill:#FFEBC8;" d="M47.67,57.9c-5.74,1.15-13.27,3.63-20.48,5.01c-7.18,1.37-14.7-1.55-16.52-1.7
	c-1.82-0.15,5.46,5.11,6.78,5.82c1.08,0.58,5.37,1.47,15.49-0.8c10.12-2.27,14.18-4.21,18.7-4.13c6.83,0.12,11.45,1.17,17.11,4.57
	c5.26,3.15,5.83,4.05,6.96,4.94c0.89-0.93,2.96-3.6,2.96-3.6S63.37,54.74,47.67,57.9z"/>
<path style="fill:#FFEBC8;" d="M68.85,57.76c-0.24,0.49-2.99,0.13-4.94-1.17c-1.94-1.3-3.69-5.13-4.19-9.88
	c-0.57-5.42,0.16-14.63,1.62-21.56s2.09-9.19,1.45-12.21c-0.7-3.31-2.39-3.76-2.87-5.37c-0.33-1.1,3.02,1.71,4.5,3.36
	c4.89,5.44,1.24,9.51,0.43,17.61c-0.69,6.89-1.45,15.12,0.09,20.14C66.48,53.7,68.85,57.76,68.85,57.76z"/>
</svg>
