<?xml version="1.0" encoding="UTF-8" standalone="no"?><svg xmlns:dc="http://purl.org/dc/elements/1.1/" xmlns:cc="http://creativecommons.org/ns#" xmlns:rdf="http://www.w3.org/1999/02/22-rdf-syntax-ns#" xmlns:svg="http://www.w3.org/2000/svg" xmlns="http://www.w3.org/2000/svg" viewBox="0 0 45 45" style="enable-background:new 0 0 45 45;" xml:space="preserve" version="1.1" id="svg2"><metadata id="metadata8"><rdf:RDF><cc:Work rdf:about=""><dc:format>image/svg+xml</dc:format><dc:type rdf:resource="http://purl.org/dc/dcmitype/StillImage"/></cc:Work></rdf:RDF></metadata><defs id="defs6"><clipPath id="clipPath16" clipPathUnits="userSpaceOnUse"><path id="path18" d="M 0,36 36,36 36,0 0,0 0,36 Z"/></clipPath></defs><g transform="matrix(1.25,0,0,-1.25,0,45)" id="g10"><g id="g12"><g clip-path="url(#clipPath16)" id="g14"><g transform="translate(26.3023,22.5108)" id="g20"><path id="path22" style="fill:#ffcc4d;fill-opacity:1;fill-rule:nonzero;stroke:none" d="M 0,0 -0.174,0.174 -9.356,9.31 c 2.813,-3.28 2.163,-7.785 -1.616,-10.312 -3.671,-2.455 -8.996,-2.174 -12.389,0.509 l 5.227,-5.321 2.465,-2.465 c 1.218,-1.218 3.126,-1.751 4.531,-1.714 1.059,0.028 1.834,0.379 1.809,1.009 -0.015,0.363 0.189,0.652 0.527,0.882 1.086,0.736 3.604,0.828 5.107,0.527 0.493,-0.099 0.957,-0.081 1.396,0.013 1.332,0.286 2.393,1.352 3.034,2.601 0.648,1.264 0.867,2.704 0.511,3.69 -0.004,0.011 -0.006,0.024 -0.01,0.035 L 0,0 Z"/></g><g transform="translate(19.0143,18.5291)" id="g24"><path id="path26" style="fill:#ffac33;fill-opacity:1;fill-rule:nonzero;stroke:none" d="M 0,0 C -0.389,0.389 -1.118,0.488 -1.629,0.22 -2.14,-0.047 -2.238,-0.579 -1.849,-0.968 -1.46,-1.358 -0.731,-1.456 -0.22,-1.189 0.291,-0.921 0.389,-0.389 0,0"/></g><g transform="translate(24.4567,19.7177)" id="g28"><path id="path30" style="fill:#d99e82;fill-opacity:1;fill-rule:nonzero;stroke:none" d="M 0,0 C -0.389,0.389 -0.901,0.271 -1.145,-0.264 -1.388,-0.799 -1.27,-1.548 -0.88,-1.937 -0.491,-2.326 0.021,-2.208 0.264,-1.673 0.507,-1.138 0.389,-0.389 0,0"/></g><g transform="translate(21.9034,24.0923)" id="g32"><path id="path34" style="fill:#ffac33;fill-opacity:1;fill-rule:nonzero;stroke:none" d="m 0,0 c -0.268,-0.511 -0.799,-0.609 -1.189,-0.22 -0.389,0.389 -0.487,1.118 -0.22,1.629 0.267,0.51 0.8,0.609 1.189,0.22 C 0.169,1.24 0.267,0.511 0,0"/></g><g transform="translate(12.7468,14.9357)" id="g36"><path id="path38" style="fill:#d99e82;fill-opacity:1;fill-rule:nonzero;stroke:none" d="M 0,0 C -0.584,-0.195 -1.372,-0.037 -1.761,0.352 -2.15,0.741 -1.993,1.214 -1.409,1.409 -0.825,1.603 -0.037,1.446 0.352,1.057 0.741,0.667 0.584,0.195 0,0"/></g><g transform="translate(24.0031,14.9491)" id="g40"><path id="path42" style="fill:#bdbdbd;fill-opacity:1;fill-rule:nonzero;stroke:none" d="m 0,0 c -0.438,-0.094 -0.903,-0.112 -1.395,-0.013 -1.503,0.3 -4.022,0.209 -5.108,-0.528 L 6.519,-13.562 c 2.486,0.847 3.929,3.035 3.962,3.081 L 0,0 Z"/></g><g transform="translate(33.8595,14.9178)" id="g44"><path id="path46" style="fill:#bdbdbd;fill-opacity:1;fill-rule:nonzero;stroke:none" d="M 0,0 0,0 0.018,0.018 -3.504,3.54 c -1,2.113 0.775,3.433 0.071,4.137 C -4.11,8.354 -6.148,7.65 -7.557,7.593 L -6.321,6.357 C -5.948,5.371 -6.167,3.911 -6.823,2.632 L 2.105,-6.295 C 2.367,-3.058 0.738,-0.83 0,0"/></g><g transform="translate(15.1645,12.5181)" id="g48"><path id="path50" style="fill:#808285;fill-opacity:1;fill-rule:nonzero;stroke:none" d="m 0,0 c -1.405,-0.037 -3.313,0.496 -4.531,1.713 l -1.761,1.761 c -0.176,-0.528 0,-1.409 0.353,-1.761 0.704,-0.704 -0.705,-3.521 2.112,-4.929 1.89,-0.946 4.226,0 5.635,-1.409 0,0 4.483,-4.506 4.931,-4.931 0.448,-0.426 2.334,-1.863 4.9,-2.083 L 0,0 Z"/></g><g transform="translate(17.5002,14.4085)" id="g52"><path id="path54" style="fill:#a6a6a6;fill-opacity:1;fill-rule:nonzero;stroke:none" d="m 0,0 c -0.338,-0.229 -0.542,-0.519 -0.527,-0.881 0.025,-0.631 -0.75,-0.981 -1.809,-1.009 L 9.303,-13.529 c 2.163,-0.166 3.646,0.48 3.719,0.507 L 0,0 Z"/></g><g transform="translate(27.0369,17.5502)" id="g56"><path id="path58" style="fill:#d8d8d8;fill-opacity:1;fill-rule:nonzero;stroke:none" d="M 0,0 C -0.641,-1.249 -1.701,-2.315 -3.034,-2.601 L 7.447,-13.082 c 1.347,1.902 1.473,4.056 1.481,4.154 L 0,0 Z"/></g><g transform="translate(3.1553,28.5931)" id="g60"><path id="path62" style="fill:#ffac33;fill-opacity:1;fill-rule:nonzero;stroke:none" d="M 0,0 C 0.069,0.304 0.205,0.605 0.435,0.835 1.081,1.48 1.908,2.117 3.012,2.143 3.722,2.16 4.546,2.052 5.513,1.468 L 12.582,1.409 C 12.338,1.815 12.041,2.207 11.675,2.572 9.146,5.101 4.64,5.508 1.609,3.481 0.179,2.525 -0.659,1.197 -0.888,-0.204 -0.631,0.003 -0.3,0.08 0,0"/></g><g transform="translate(15.7473,29.9838)" id="g64"><path id="path66" style="fill:#ffac33;fill-opacity:1;fill-rule:nonzero;stroke:none" d="m 0,0 c -0.003,0.005 -0.006,0.011 -0.009,0.016 l -0.004,0 C -0.008,0.011 -0.005,0.005 0,0"/></g><g transform="translate(2.9592,26.1578)" id="g68"><path id="path70" style="fill:#ffac33;fill-opacity:1;fill-rule:nonzero;stroke:none" d="M 0,0 C -0.023,0.019 -0.052,0.028 -0.073,0.049 -0.204,0.18 -0.275,0.343 -0.318,0.511 -0.454,0.546 -0.581,0.612 -0.696,0.7 c -0.079,0.499 -0.077,1.008 0,1.502 -0.169,-1.076 0.026,-2.19 0.598,-3.216 0,0.001 -0.001,0.002 -0.001,0.002 C -0.18,-0.675 -0.156,-0.318 0,0"/></g><g transform="translate(2.2651,28.387)" id="g72"><path id="path74" style="fill:#c1694f;fill-opacity:1;fill-rule:nonzero;stroke:none" d="m 0,0 c -0.001,-0.009 -0.001,-0.018 -0.002,-0.028 0.001,0.01 0.003,0.02 0.005,0.03 C 0.002,0.001 0.001,0.001 0,0"/></g><g transform="translate(15.738,30)" id="g76"><path id="path78" style="fill:#ffe8b6;fill-opacity:1;fill-rule:nonzero;stroke:none" d="m 0,0 c 0.003,-0.005 0.006,-0.011 0.009,-0.016 1.428,-2.397 0.76,-5.337 -1.826,-7.066 -3.03,-2.027 -7.537,-1.62 -10.065,0.909 -0.412,0.411 -0.738,0.856 -0.995,1.317 -0.572,1.025 -0.767,2.14 -0.598,3.215 10e-4,0.01 10e-4,0.019 0.002,0.028 0.001,10e-4 0.002,10e-4 0.003,0.002 0.229,1.401 1.066,2.729 2.497,3.685 3.03,2.027 7.537,1.62 10.065,-0.909 0.366,-0.365 0.663,-0.757 0.907,-1.163 m 1.209,1.819 c -0.137,0.16 -0.274,0.32 -0.427,0.474 -3.307,3.306 -9.221,3.869 -13.163,1.188 -3.835,-2.608 -4.398,-7.608 -1.189,-10.785 0.245,-0.242 0.505,-0.467 0.774,-0.68 3.393,-2.683 8.718,-2.964 12.389,-0.509 3.779,2.527 4.43,7.032 1.616,10.312"/></g><g transform="translate(13.9213,22.9179)" id="g80"><path id="path82" style="fill:#c1694f;fill-opacity:1;fill-rule:nonzero;stroke:none" d="M 0,0 C 2.585,1.729 3.254,4.669 1.826,7.066 1.821,7.071 1.818,7.077 1.813,7.082 l 0.004,0 C 1.816,7.083 1.816,7.083 1.816,7.084 L -5.253,7.143 C -6.22,7.727 -7.044,7.835 -7.754,7.818 -8.858,7.793 -9.685,7.156 -10.331,6.51 c -0.23,-0.23 -0.366,-0.531 -0.435,-0.835 -0.3,0.08 -0.631,0.003 -0.888,-0.204 -10e-4,-0.01 -0.003,-0.02 -0.004,-0.029 -0.077,-0.495 -0.079,-1.003 0,-1.502 0.115,-0.088 0.242,-0.154 0.378,-0.189 0.043,-0.168 0.113,-0.331 0.245,-0.462 0.021,-0.021 0.05,-0.03 0.073,-0.049 -0.156,-0.318 -0.18,-0.675 -0.099,-1.012 0,0 10e-4,-0.001 10e-4,-0.002 0.257,-0.461 0.583,-0.905 0.994,-1.317 C -7.537,-1.62 -3.03,-2.027 0,0"/></g><g transform="translate(8.6682,29.8502)" id="g84"><path id="path86" style="fill:#f4900c;fill-opacity:1;fill-rule:nonzero;stroke:none" d="M 0,0 7.279,-0.271 C 7.155,0.005 6.998,0.283 6.795,0.563 4.194,2.484 0.248,2.65 -2.495,0.816 L -2.501,0.781 C -1.791,0.797 -0.967,0.584 0,0"/></g><g transform="translate(6.4076,26.9097)" id="g88"><path id="path90" style="fill:#d99e82;fill-opacity:1;fill-rule:nonzero;stroke:none" d="m 0,0 c -0.389,-0.389 -1.02,-0.389 -1.409,0 -0.389,0.389 -0.389,1.019 0,1.409 0.39,0.389 1.02,0.389 1.409,0 C 0.389,1.02 0.389,0.389 0,0"/></g><g transform="translate(8.1685,24.4445)" id="g92"><path id="path94" style="fill:#d99e82;fill-opacity:1;fill-rule:nonzero;stroke:none" d="m 0,0 c -0.584,-0.584 -1.53,-0.583 -2.113,0 -0.583,0.583 -0.584,1.529 0,2.113 0.584,0.584 1.53,0.583 2.113,0 C 0.583,1.53 0.584,0.584 0,0"/></g><g transform="translate(10.6337,24.0923)" id="g96"><path id="path98" style="fill:#d99e82;fill-opacity:1;fill-rule:nonzero;stroke:none" d="m 0,0 c -0.389,-0.389 -1.02,-0.389 -1.409,0 -0.389,0.389 -0.389,1.019 0,1.409 0.39,0.389 1.02,0.389 1.409,0 C 0.389,1.02 0.389,0.389 0,0"/></g><g transform="translate(4.6467,27.9663)" id="g100"><path id="path102" style="fill:#d99e82;fill-opacity:1;fill-rule:nonzero;stroke:none" d="m 0,0 c -0.195,-0.195 -0.51,-0.195 -0.704,0 -0.195,0.195 -0.195,0.51 0,0.704 0.194,0.195 0.509,0.195 0.704,0 C 0.195,0.51 0.195,0.195 0,0"/></g><g transform="translate(8.5207,21.9793)" id="g104"><path id="path106" style="fill:#d99e82;fill-opacity:1;fill-rule:nonzero;stroke:none" d="m 0,0 c -0.389,-0.389 -1.019,-0.389 -1.409,0 -0.389,0.389 -0.389,1.019 0,1.409 0.39,0.389 1.02,0.389 1.409,0 C 0.389,1.019 0.389,0.389 0,0"/></g><g transform="translate(7.4642,29.375)" id="g108"><path id="path110" style="fill:#ffd983;fill-opacity:1;fill-rule:nonzero;stroke:none" d="m 0,0 c -0.584,-0.584 -1.53,-0.583 -2.113,0 -0.583,0.583 -0.584,1.529 0,2.113 0.584,0.584 1.53,0.583 2.113,0 C 0.583,1.53 0.584,0.584 0,0"/></g><g transform="translate(10.6337,22.6836)" id="g112"><path id="path114" style="fill:#d99e82;fill-opacity:1;fill-rule:nonzero;stroke:none" d="M 0,0 C -0.389,0.389 -1.019,0.389 -1.409,0 -1.689,-0.281 -1.76,-0.685 -1.636,-1.035 -1.007,-1.07 -0.374,-1.04 0.246,-0.938 0.326,-0.611 0.255,-0.255 0,0"/></g><g transform="translate(16.2686,28.3185)" id="g116"><path id="path118" style="fill:#77b255;fill-opacity:1;fill-rule:nonzero;stroke:none" d="m 0,0 c -0.389,0.389 -1.02,0.389 -1.409,0 -0.129,-0.129 -0.211,-0.285 -0.254,-0.45 -0.165,-0.043 -0.321,-0.125 -0.45,-0.254 0.389,0.389 0.39,1.02 10e-4,1.409 0.385,0.386 0.393,1.014 0.009,1.398 l -0.016,0.016 c -0.386,0.386 -1.015,0.382 -1.402,-0.005 -0.131,0.131 -0.293,0.201 -0.461,0.244 -0.042,0.167 -0.113,0.328 -0.244,0.459 -0.232,0.232 -0.55,0.323 -0.851,0.278 -0.059,0.413 -0.24,0.813 -0.558,1.131 -0.778,0.778 -2.038,0.778 -2.817,-0.001 -0.778,-0.778 -0.778,-2.038 0,-2.816 0.531,-0.532 1.285,-0.691 1.958,-0.498 0.043,-0.073 0.092,-0.144 0.155,-0.207 -0.389,-0.389 -0.389,-1.019 0,-1.408 0.225,-0.226 0.532,-0.317 0.826,-0.281 0.066,-0.186 0.169,-0.362 0.318,-0.512 0.397,-0.396 0.974,-0.497 1.465,-0.307 0.048,-0.112 0.117,-0.217 0.208,-0.309 -0.389,-0.389 -0.389,-1.02 0,-1.409 0.389,-0.389 1.02,-0.389 1.409,0 0.075,-0.074 0.16,-0.13 0.249,-0.176 0.01,-0.005 0.02,-0.011 0.03,-0.016 0.37,-0.175 0.824,-0.114 1.13,0.192 0.389,0.389 0.389,1.02 0,1.409 0.094,0.094 0.162,0.203 0.211,0.318 0.001,0.039 -0.001,0.079 -0.001,0.119 0.181,0.039 0.353,0.127 0.494,0.267 0.389,0.389 0.389,1.02 0,1.409"/></g><g transform="translate(15.212,27.2619)" id="g120"><path id="path122" style="fill:#a6d388;fill-opacity:1;fill-rule:nonzero;stroke:none" d="m 0,0 c -0.195,-0.195 -0.51,-0.195 -0.704,0 -0.195,0.195 -0.195,0.51 0,0.704 0.194,0.195 0.509,0.195 0.704,0 C 0.195,0.51 0.195,0.195 0,0"/></g><g transform="translate(13.4512,22.6836)" id="g124"><path id="path126" style="fill:#ffd983;fill-opacity:1;fill-rule:nonzero;stroke:none" d="m 0,0 c -0.389,-0.389 -1.019,-0.389 -1.409,0 -0.389,0.389 -0.389,1.019 0,1.409 0.39,0.389 1.02,0.389 1.409,0 C 0.389,1.019 0.389,0.389 0,0"/></g><g transform="translate(12.3946,26.5576)" id="g128"><path id="path130" style="fill:#ffd983;fill-opacity:1;fill-rule:nonzero;stroke:none" d="m 0,0 c -0.488,0.488 -1.226,0.562 -1.797,0.234 -0.073,0.171 -0.177,0.331 -0.316,0.47 -0.139,0.139 -0.3,0.243 -0.47,0.316 0.328,0.571 0.254,1.309 -0.234,1.797 -0.584,0.584 -1.529,0.584 -2.113,0 -0.584,-0.584 -0.584,-1.529 0,-2.113 0.139,-0.139 0.299,-0.242 0.47,-0.315 -0.328,-0.571 -0.254,-1.31 0.234,-1.798 0.488,-0.488 1.226,-0.562 1.797,-0.234 0.073,-0.17 0.177,-0.331 0.316,-0.47 0.584,-0.584 1.529,-0.584 2.113,0 0.584,0.584 0.584,1.529 0,2.113"/></g><g transform="translate(11.3381,24.7967)" id="g132"><path id="path134" style="fill:#ffe8b6;fill-opacity:1;fill-rule:nonzero;stroke:none" d="m 0,0 c -0.486,-0.486 -1.275,-0.486 -1.761,0 -0.486,0.486 -0.486,1.275 0,1.761 0.486,0.486 1.275,0.486 1.761,0 C 0.486,1.275 0.486,0.486 0,0"/></g><g transform="translate(9.5772,27.2619)" id="g136"><path id="path138" style="fill:#ffe8b6;fill-opacity:1;fill-rule:nonzero;stroke:none" d="m 0,0 c -0.292,-0.292 -0.765,-0.292 -1.057,0 -0.291,0.292 -0.291,0.765 0,1.057 0.292,0.291 0.765,0.291 1.057,0 C 0.292,0.765 0.292,0.292 0,0"/></g><g transform="translate(8.1685,28.6706)" id="g140"><path id="path142" style="fill:#ffe8b6;fill-opacity:1;fill-rule:nonzero;stroke:none" d="m 0,0 c -0.292,-0.292 -0.765,-0.292 -1.057,0 -0.291,0.292 -0.291,0.765 0,1.057 0.292,0.291 0.765,0.291 1.057,0 C 0.292,0.765 0.292,0.292 0,0"/></g><g transform="translate(8.8729,30.7837)" id="g144"><path id="path146" style="fill:#a6d388;fill-opacity:1;fill-rule:nonzero;stroke:none" d="m 0,0 c -0.195,-0.195 -0.51,-0.195 -0.704,0 -0.195,0.195 -0.195,0.51 0,0.704 0.194,0.195 0.509,0.195 0.704,0 C 0.195,0.51 0.195,0.195 0,0"/></g><g transform="translate(15.5642,29.0228)" id="g148"><path id="path150" style="fill:#77b255;fill-opacity:1;fill-rule:nonzero;stroke:none" d="m 0,0 c -0.389,-0.389 -1.02,-0.389 -1.409,0 -0.389,0.389 -0.389,1.019 0,1.409 0.389,0.389 1.02,0.389 1.409,0 C 0.389,1.02 0.389,0.389 0,0"/></g><g transform="translate(14.8599,26.9097)" id="g152"><path id="path154" style="fill:#a6d388;fill-opacity:1;fill-rule:nonzero;stroke:none" d="m 0,0 c -0.389,-0.389 -1.019,-0.389 -1.409,0 -0.389,0.389 -0.389,1.019 0,1.409 0.39,0.389 1.02,0.389 1.409,0 C 0.389,1.019 0.389,0.389 0,0"/></g><g transform="translate(13.099,30.0793)" id="g156"><path id="path158" style="fill:#a6d388;fill-opacity:1;fill-rule:nonzero;stroke:none" d="m 0,0 c -0.219,0.219 -0.488,0.355 -0.77,0.41 -0.014,0.235 -0.107,0.467 -0.287,0.647 -0.389,0.389 -1.019,0.389 -1.408,0 -0.39,0.389 -1.02,0.389 -1.409,0 -0.389,-0.39 -0.389,-1.02 0,-1.409 0.389,-0.389 1.019,-0.389 1.409,0 0.021,-0.022 0.046,-0.037 0.069,-0.057 -0.27,-0.556 -0.179,-1.242 0.283,-1.704 0.584,-0.584 1.529,-0.584 2.113,0 0.584,0.584 0.584,1.529 0,2.113"/></g><g transform="translate(10.9859,31.488)" id="g160"><path id="path162" style="fill:#dd2e44;fill-opacity:1;fill-rule:nonzero;stroke:none" d="m 0,0 c -0.292,-0.292 -0.765,-0.292 -1.057,0 -0.291,0.292 -0.291,0.765 0,1.057 0.292,0.291 0.765,0.291 1.057,0 C 0.292,0.765 0.292,0.292 0,0"/></g><g transform="translate(15.212,28.6706)" id="g164"><path id="path166" style="fill:#dd2e44;fill-opacity:1;fill-rule:nonzero;stroke:none" d="m 0,0 c -0.292,-0.292 -0.765,-0.292 -1.057,0 -0.291,0.292 -0.291,0.765 0,1.057 0.292,0.291 0.765,0.291 1.057,0 C 0.292,0.765 0.292,0.292 0,0"/></g><g transform="translate(14.8599,25.501)" id="g168"><path id="path170" style="fill:#dd2e44;fill-opacity:1;fill-rule:nonzero;stroke:none" d="m 0,0 c -0.389,-0.389 -1.019,-0.389 -1.409,0 -0.389,0.389 -0.389,1.019 0,1.409 0.39,0.389 1.02,0.389 1.409,0 C 0.389,1.019 0.389,0.389 0,0"/></g><g transform="translate(13.4511,32.5446)" id="g172"><path id="path174" style="fill:#77b255;fill-opacity:1;fill-rule:nonzero;stroke:none" d="m 0,0 c -0.389,0.389 -1.02,0.389 -1.409,0 -0.389,-0.389 -0.389,-1.02 0,-1.409 -0.389,-0.389 -0.389,-1.019 0,-1.408 0.389,-0.389 1.02,-0.39 1.409,0 0.389,0.389 0.389,1.019 0,1.408 0.389,0.389 0.389,1.02 0,1.409"/></g><g transform="translate(12.7468,29.0228)" id="g176"><path id="path178" style="fill:#dd2e44;fill-opacity:1;fill-rule:nonzero;stroke:none" d="m 0,0 c -0.389,-0.389 -1.019,-0.389 -1.409,0 -0.389,0.389 -0.389,1.019 0,1.409 0.39,0.389 1.02,0.389 1.409,0 C 0.389,1.019 0.389,0.389 0,0"/></g><g transform="translate(13.8033,31.488)" id="g180"><path id="path182" style="fill:#dd2e44;fill-opacity:1;fill-rule:nonzero;stroke:none" d="m 0,0 c -0.195,-0.195 -0.51,-0.195 -0.704,0 -0.195,0.195 -0.195,0.51 0,0.704 0.194,0.195 0.509,0.195 0.704,0 C 0.195,0.51 0.195,0.195 0,0"/></g></g></g></g></svg>
