<svg xmlns="http://www.w3.org/2000/svg" viewBox="0 0 64 64" enable-background="new 0 0 64 64"><path d="M4.3,11.1C4.3,31,19.5,61,27.1,61c9.7,0,2.1-19.6,2.1-19.6l30.2-11.9C63.9,2.5,4.3-3.6,4.3,11.1z" fill="#97a3a2"/><path d="m58.1 17.6c15.3 4.8-17.3-21-48.6-14.6-9.1 1.9-6 9.9-6 9.9-2.1 3-2 7.2 0 10.3 1.7 2.6 0 7.1 4.9 12.1.8.8-2.1 5.2 3.6 9.3 1.2.9 3.2 2.4 2.7 4.7-.6 2.8 5 5.4 6 8.6 2.1 6.5 10.1 4.6 13.8-1.1 0 0-1.3.4-1.8-.5 4.1-2 4.7-7.3-.6-7.8 4.8-4.1 2.6-9.5 9.6-10.8 5.7-1 6.7-3.4 6.7-3.4 7.9.1 18.9-5.2 9.7-16.7m-51.2 3.6c-.7-1.4-1.6-3.4-1-5 1.3 1.3 2.7 2.5 4.2 3.6-1.1.2-2.3.7-3.2 1.4m2.1 8.3c2.2 2.5 4.9 3 4.9 3-2 .9-4.5 1.3-4.9-3m6.1 16.6c0 0 1.4 0 1.4.4.2 2.7-1.4-.4-1.4-.4m-2.5-7.7c3.2 1.8 6.8 3.1 10.4 3.9-12.7 1.7-11.9-4.8-10.4-3.9m12.7 9.4c0 0-2.6.7-4.8.2 1.5-1.6 4.8-.2 4.8-.2m-3.5 5.3c0 0 0 0 0 0-.8 1.2-2.8-1.1-2.8-2.1.1-2 5.9-.4 5.9-.4s-2.4 1.4-3.1 2.5m2.7 4.7c1.6 0 3.3-.1 4.9-.4-.9 1.2-2.8 2.7-4.9.4m2.5-4.2c2.7-1.2 4.4-1.2 4.4-1.2s-2 1.7-4.4 1.2m-11.1-18.1c5.3-2.6 9.9 1.3 17.6 3.1-2.9.8-12.9.6-17.6-3.1m11.8-2.6c0 0 7.1.5 5.8-.7-4.3-4.1-18.6 1.7-24.5-8 2.7-2.4 5.8-1.4 8.5.1-4.9 3.1.4 1.1 3.2 1.7 5 1.1 14.7 4 16.7 8-6 .7-9.7-1.1-9.7-1.1m13.3.5c.6.5 3.2.1 3.2.1-1.5.8-3.9 2.5-3.2-.1m-27.1-15.9c17.7 1.5 28.9 6.3 31.1 12.6-13.4-1.1-8.1-7.6-31.1-12.6m42 12.1c-.2-5.7-9.5-14.6-5-5 1.9 4.1-.4 7.4-2.4 4.2-9.8-15.5-30.3-9.5-39.2-14.8 8.9-4.3 43.7 8 34.8 4-25.7-11.8-37.4-5.4-37.4-8.3 0-5.3 17.5-8.3 40.9 2-28.8-5.6-31.7-2.6-26.9-2.1 35.2 3.6 41.2 14.1 35.2 20" fill="#c8d9d8"/><g fill="#fff"><path d="m30.3 13.5c-22.4-4.5-24.2-4.8-3.1.8 28.3 7.5 19 2.4 3.1-.8"/><path d="m20.5 22.7c-10.8-7.4-15.3-9.5-8.6-3.7 14.1 12.1 27.1 12.9 29.3 12.7 4.8-.6-8-.4-20.7-9"/><path d="m17.6 30.7c-9.3-5.5-13-6.2-7-1.4 12.8 10.1 22.9 8.3 24.4 7.5 3.2-2-6.5.4-17.4-6.1"/><path d="m20.7 39.4c-7.3-2.9-10-2.8-4.9.1 10.6 6.1 17 2.8 17.8 1.8 1.7-2.3-4.2 1.5-12.9-1.9"/><path d="m21 44.7c-6.1-1.4-8.1-.5-3.7.8 8 2.4 12.3.9 13.1.3 2-1.3-2.3.6-9.4-1.1"/><path d="m27.8 49.3c7.7-2.8-3-1.5-4.3.4-.5.7 3.3 0 4.3-.4"/><path d="m28.3 52.7c7.2-2.1-2.6-1.6-3.9.1-.5.5 3 .1 3.9-.1"/><path d="m24.9 55.3c-.5.5 2.6.5 3.5.3 6.7-1.2-2.1-1.7-3.5-.3"/></g></svg>