<?xml version="1.0" encoding="UTF-8" standalone="no"?><svg xmlns:dc="http://purl.org/dc/elements/1.1/" xmlns:cc="http://creativecommons.org/ns#" xmlns:rdf="http://www.w3.org/1999/02/22-rdf-syntax-ns#" xmlns:svg="http://www.w3.org/2000/svg" xmlns="http://www.w3.org/2000/svg" viewBox="0 0 45 45" style="enable-background:new 0 0 45 45;" xml:space="preserve" version="1.1" id="svg2"><metadata id="metadata8"><rdf:RDF><cc:Work rdf:about=""><dc:format>image/svg+xml</dc:format><dc:type rdf:resource="http://purl.org/dc/dcmitype/StillImage"/></cc:Work></rdf:RDF></metadata><defs id="defs6"><clipPath id="clipPath16" clipPathUnits="userSpaceOnUse"><path id="path18" d="M 0,36 36,36 36,0 0,0 0,36 Z"/></clipPath></defs><g transform="matrix(1.25,0,0,-1.25,0,45)" id="g10"><g id="g12"><g clip-path="url(#clipPath16)" id="g14"><g transform="translate(12,28.9995)" id="g20"><path id="path22" style="fill:#ffe8b6;fill-opacity:1;fill-rule:nonzero;stroke:none" d="m 0,0 c -6.626,0 -12,-7.164 -12,-16 l 6,0 0,-6 17.119,0 C 11.683,-20.145 12,-18.123 12,-16 12,-7.164 6.627,0 0,0"/></g><g transform="translate(29,15)" id="g24"><path id="path26" style="fill:#ffe8b6;fill-opacity:1;fill-rule:nonzero;stroke:none" d="M 0,0 4.896,0 C 4.156,7.89 -0.882,14 -7,14 c -6.626,0 -11.999,-7.164 -11.999,-16 0,-2.123 0.316,-4.145 0.88,-6 L 0,-8 0,0 Z"/></g><g transform="translate(36,13)" id="g28"><path id="path30" style="fill:#ffac33;fill-opacity:1;fill-rule:nonzero;stroke:none" d="m 0,0 c 0,8.836 -5.373,16 -12,16 -6.626,0 -11.999,-7.164 -11.999,-16 0,-2.123 0.316,-4.145 0.88,-6 L -6,-6 c 3.314,0 6,2.686 6,6"/></g><path id="path32" style="fill:#ffac33;fill-opacity:1;fill-rule:nonzero;stroke:none" d="M 16,13 6,13 6,7 16,7 16,13 Z"/><g transform="translate(5e-4,13)" id="g34"><path id="path36" style="fill:#ffe8b6;fill-opacity:1;fill-rule:nonzero;stroke:none" d="M 0,0 C 0,3.313 2.687,5.999 6,5.999 9.313,5.999 12,3.313 12,0 12,-3.314 9.313,-6 6,-6 2.687,-6 0,-3.314 0,0"/></g><g transform="translate(14,28.9995)" id="g38"><path id="path40" style="fill:#ffac33;fill-opacity:1;fill-rule:nonzero;stroke:none" d="m 0,0 c -6.626,0 -12,-7.164 -12,-16 0,-2.21 1.792,-4 4,-4 2.209,0 4.001,1.79 4.001,4 0,6.963 3.342,12.871 7.999,15.07 C 2.747,-0.338 1.405,0 0,0"/></g><g transform="translate(5.0005,13)" id="g42"><path id="path44" style="fill:#d99e82;fill-opacity:1;fill-rule:nonzero;stroke:none" d="m 0,0 c 0,-0.553 -0.448,-1 -1,-1 -0.552,0 -1,0.447 -1,1 0,0.553 0.448,1 1,1 0.552,0 1,-0.447 1,-1"/></g><g transform="translate(9.9751,12.75)" id="g46"><path id="path48" style="fill:#c1694f;fill-opacity:1;fill-rule:nonzero;stroke:none" d="m 0,0 c -0.12,0.709 -0.732,1.25 -1.475,1.25 -0.179,0 -0.35,-0.037 -0.509,-0.095 10e-4,0.032 0.009,0.063 0.009,0.095 0,1.105 -0.895,2 -2,2 -1.104,0 -2,-0.895 -2,-2 0,-0.525 0.207,-1 0.539,-1.357 -0.327,-0.276 -0.539,-0.682 -0.539,-1.143 0,-0.678 0.453,-1.244 1.071,-1.43 0.167,-0.556 0.651,-0.962 1.241,-1.039 C -1.686,-3.564 -0.125,-1.986 0,0"/></g><g transform="translate(9.5005,15)" id="g50"><path id="path52" style="fill:#d99e82;fill-opacity:1;fill-rule:nonzero;stroke:none" d="M 0,0 C -0.829,0 -1.5,-0.672 -1.5,-1.5 -1.5,-2.328 -0.829,-3 0,-3 0.13,-3 0.254,-2.979 0.375,-2.947 0.45,-2.642 0.5,-2.328 0.5,-2 c 0,0.637 0.037,1.261 0.091,1.878 C 0.41,-0.044 0.21,0 0,0"/></g><g transform="translate(8.0005,16)" id="g54"><path id="path56" style="fill:#ffcc4d;fill-opacity:1;fill-rule:nonzero;stroke:none" d="M 0,0 C 0,-0.553 -0.671,-1 -1.5,-1 -2.329,-1 -3,-0.553 -3,0 -3,0.553 -2.329,1 -1.5,1 -0.671,1 0,0.553 0,0"/></g><g transform="translate(8.0005,15)" id="g58"><path id="path60" style="fill:#ffcc4d;fill-opacity:1;fill-rule:nonzero;stroke:none" d="m 0,0 c 0,-0.553 -0.448,-1 -1,-1 -0.552,0 -1,0.447 -1,1 0,0.553 0.448,1 1,1 0.552,0 1,-0.447 1,-1"/></g><g transform="translate(10.0005,15)" id="g62"><path id="path64" style="fill:#c1694f;fill-opacity:1;fill-rule:nonzero;stroke:none" d="m 0,0 c 0,-0.553 -0.448,-1 -1,-1 -0.552,0 -1,0.447 -1,1 0,0.553 0.448,1 1,1 0.552,0 1,-0.447 1,-1"/></g><g transform="translate(6.0005,14)" id="g66"><path id="path68" style="fill:#d99e82;fill-opacity:1;fill-rule:nonzero;stroke:none" d="m 0,0 c 0,-0.553 -0.448,-1 -1,-1 -0.552,0 -1,0.447 -1,1 0,0.553 0.448,1 1,1 0.552,0 1,-0.447 1,-1"/></g><g transform="translate(8.0005,14)" id="g70"><path id="path72" style="fill:#d99e82;fill-opacity:1;fill-rule:nonzero;stroke:none" d="m 0,0 c 0,-0.553 -0.448,-1 -1,-1 -0.552,0 -1,0.447 -1,1 0,0.553 0.448,1 1,1 0.552,0 1,-0.447 1,-1"/></g><g transform="translate(9.0005,16)" id="g74"><path id="path76" style="fill:#ffd983;fill-opacity:1;fill-rule:nonzero;stroke:none" d="m 0,0 c 0,-0.553 -0.448,-1 -1,-1 -0.552,0 -1,0.447 -1,1 0,0.553 0.448,1 1,1 0.552,0 1,-0.447 1,-1"/></g><g transform="translate(8.0005,18)" id="g78"><path id="path80" style="fill:#ffe8b6;fill-opacity:1;fill-rule:nonzero;stroke:none" d="m 0,0 c 0,-0.553 -0.448,-1 -1,-1 -0.552,0 -1,0.447 -1,1 0,0.553 0.448,1 1,1 0.552,0 1,-0.447 1,-1"/></g><g transform="translate(7.0005,16)" id="g82"><path id="path84" style="fill:#ffe8b6;fill-opacity:1;fill-rule:nonzero;stroke:none" d="m 0,0 c 0,-0.553 -0.448,-1 -1,-1 -0.552,0 -1,0.447 -1,1 0,0.553 0.448,1 1,1 0.552,0 1,-0.447 1,-1"/></g><g transform="translate(10.0005,18)" id="g86"><path id="path88" style="fill:#ffd983;fill-opacity:1;fill-rule:nonzero;stroke:none" d="m 0,0 c 0,-0.553 -0.448,-1 -1,-1 -0.552,0 -1,0.447 -1,1 0,0.553 0.448,1 1,1 0.552,0 1,-0.447 1,-1"/></g><g transform="translate(10.0005,16)" id="g90"><path id="path92" style="fill:#ffd983;fill-opacity:1;fill-rule:nonzero;stroke:none" d="m 0,0 c 0,-0.553 -0.448,-1 -1,-1 -0.552,0 -1,0.447 -1,1 0,0.553 0.448,1 1,1 0.552,0 1,-0.447 1,-1"/></g><g transform="translate(10.0005,17)" id="g94"><path id="path96" style="fill:#ffd983;fill-opacity:1;fill-rule:nonzero;stroke:none" d="m 0,0 c 0,-0.553 -0.448,-1 -1,-1 -0.552,0 -1,0.447 -1,1 0,0.553 0.448,1 1,1 0.552,0 1,-0.447 1,-1"/></g><g transform="translate(10.0005,17)" id="g98"><path id="path100" style="fill:#ffe8b6;fill-opacity:1;fill-rule:nonzero;stroke:none" d="m 0,0 c 0,-0.553 -0.448,-1 -1,-1 -0.552,0 -1,0.447 -1,1 0,0.553 0.448,1 1,1 0.552,0 1,-0.447 1,-1"/></g><g transform="translate(10.5718,23.5474)" id="g102"><path id="path104" style="fill:#77b255;fill-opacity:1;fill-rule:nonzero;stroke:none" d="m 0,0 c -0.272,0.278 -0.651,0.452 -1.071,0.452 -0.738,0 -1.348,-0.533 -1.473,-1.235 -0.216,0.14 -0.478,0.235 -0.777,0.235 -0.691,0 -1.25,-0.448 -1.25,-1 0,-0.19 0.084,-0.358 0.199,-0.51 -0.123,-0.145 -0.199,-0.311 -0.199,-0.49 -0.553,0 -1,-0.448 -1,-1 0,-0.202 0.074,-0.379 0.178,-0.536 -0.11,-0.14 -0.178,-0.295 -0.178,-0.463 0,-0.553 0.671,-1 1.5,-1 0.43,0 0.815,0.122 1.089,0.316 0.253,-0.196 0.566,-0.316 0.911,-0.316 0.197,0 0.385,0.04 0.557,0.11 0.163,-0.603 0.691,-1.042 1.331,-1.092 0.495,2.544 1.451,4.835 2.739,6.72 C 2.234,0.355 1.847,0.452 1.429,0.452 0.868,0.452 0.363,0.278 0,0"/></g><g transform="translate(9.0005,20.9995)" id="g106"><path id="path108" style="fill:#a6d388;fill-opacity:1;fill-rule:nonzero;stroke:none" d="m 0,0 c 0,-0.552 -0.448,-1 -1,-1 -0.552,0 -1,0.448 -1,1 0,0.552 0.448,1 1,1 0.552,0 1,-0.448 1,-1"/></g><g transform="translate(10.0005,22.4995)" id="g110"><path id="path112" style="fill:#a6d388;fill-opacity:1;fill-rule:nonzero;stroke:none" d="M 0,0 C 0,-0.276 -0.224,-0.5 -0.5,-0.5 -0.776,-0.5 -1,-0.276 -1,0 -1,0.276 -0.776,0.5 -0.5,0.5 -0.224,0.5 0,0.276 0,0"/></g><g transform="translate(7.0005,19.4995)" id="g114"><path id="path116" style="fill:#a6d388;fill-opacity:1;fill-rule:nonzero;stroke:none" d="M 0,0 C 0,-0.276 -0.224,-0.5 -0.5,-0.5 -0.776,-0.5 -1,-0.276 -1,0 -1,0.276 -0.776,0.5 -0.5,0.5 -0.224,0.5 0,0.276 0,0"/></g><g transform="translate(10.0005,19.4995)" id="g118"><path id="path120" style="fill:#a6d388;fill-opacity:1;fill-rule:nonzero;stroke:none" d="M 0,0 C 0,-0.276 -0.224,-0.5 -0.5,-0.5 -0.776,-0.5 -1,-0.276 -1,0 -1,0.276 -0.776,0.5 -0.5,0.5 -0.224,0.5 0,0.276 0,0"/></g><g transform="translate(11.0005,20.9995)" id="g122"><path id="path124" style="fill:#a6d388;fill-opacity:1;fill-rule:nonzero;stroke:none" d="m 0,0 c 0,-0.552 -0.448,-1 -1,-1 -0.552,0 -1,0.448 -1,1 0,0.552 0.448,1 1,1 0.552,0 1,-0.448 1,-1"/></g><g transform="translate(10.0005,23.9995)" id="g126"><path id="path128" style="fill:#dd2e44;fill-opacity:1;fill-rule:nonzero;stroke:none" d="m 0,0 c 0,-0.552 -0.448,-1 -1,-1 -0.552,0 -1,0.448 -1,1 0,0.552 0.448,1 1,1 0.552,0 1,-0.448 1,-1"/></g><g transform="translate(12.0005,23.9995)" id="g130"><path id="path132" style="fill:#ffd983;fill-opacity:1;fill-rule:nonzero;stroke:none" d="m 0,0 c 0,-0.552 -0.448,-1 -1,-1 -0.552,0 -1,0.448 -1,1 0,0.552 0.448,1 1,1 0.552,0 1,-0.448 1,-1"/></g><g transform="translate(13.0005,25.9995)" id="g134"><path id="path136" style="fill:#ffd983;fill-opacity:1;fill-rule:nonzero;stroke:none" d="m 0,0 c 0,-0.552 -0.448,-1 -1,-1 -0.552,0 -1,0.448 -1,1 0,0.552 0.448,1 1,1 0.552,0 1,-0.448 1,-1"/></g><g transform="translate(10.0005,21.9995)" id="g138"><path id="path140" style="fill:#ffd983;fill-opacity:1;fill-rule:nonzero;stroke:none" d="m 0,0 c 0,-0.552 -0.448,-1 -1,-1 -0.552,0 -1,0.448 -1,1 0,0.552 0.448,1 1,1 0.552,0 1,-0.448 1,-1"/></g><g transform="translate(15.0005,26.9995)" id="g142"><path id="path144" style="fill:#a6d388;fill-opacity:1;fill-rule:nonzero;stroke:none" d="m 0,0 c -0.552,0 -1,-0.448 -1,-1 0,-0.035 0.016,-0.064 0.02,-0.098 C -1.143,-1.038 -1.316,-1 -1.5,-1 -2.329,-1 -3,-1.671 -3,-2.5 c 0,-0.561 0.311,-1.043 0.767,-1.301 0.844,1.354 1.855,2.513 2.989,3.436 C 0.572,-0.147 0.308,0 0,0"/></g><g transform="translate(13.0005,24.9995)" id="g146"><path id="path148" style="fill:#dd2e44;fill-opacity:1;fill-rule:nonzero;stroke:none" d="m 0,0 c 0,-0.552 -0.448,-1 -1,-1 -0.552,0 -1,0.448 -1,1 0,0.552 0.448,1 1,1 0.552,0 1,-0.448 1,-1"/></g><g transform="translate(15.0005,26.9995)" id="g150"><path id="path152" style="fill:#dd2e44;fill-opacity:1;fill-rule:nonzero;stroke:none" d="m 0,0 c 0,-0.552 -0.448,-1 -1,-1 -0.552,0 -1,0.448 -1,1 0,0.552 0.448,1 1,1 0.552,0 1,-0.448 1,-1"/></g><g transform="translate(18.0005,11)" id="g154"><path id="path156" style="fill:#f4900c;fill-opacity:1;fill-rule:nonzero;stroke:none" d="m 0,0 c 0,-0.553 -0.448,-1 -1,-1 -0.552,0 -1,0.447 -1,1 0,0.553 0.448,1 1,1 0.552,0 1,-0.447 1,-1"/></g><g transform="translate(14.0005,8)" id="g158"><path id="path160" style="fill:#f4900c;fill-opacity:1;fill-rule:nonzero;stroke:none" d="m 0,0 c 0,-0.553 -0.448,-1 -1,-1 -0.552,0 -1,0.447 -1,1 0,0.553 0.448,1 1,1 0.552,0 1,-0.447 1,-1"/></g><g transform="translate(20,8)" id="g162"><path id="path164" style="fill:#f4900c;fill-opacity:1;fill-rule:nonzero;stroke:none" d="m 0,0 c 0,-0.553 -0.447,-1 -1,-1 -0.552,0 -1,0.447 -1,1 0,0.553 0.448,1 1,1 0.553,0 1,-0.447 1,-1"/></g><g transform="translate(23,9)" id="g166"><path id="path168" style="fill:#f4900c;fill-opacity:1;fill-rule:nonzero;stroke:none" d="m 0,0 c 0,-0.553 -0.447,-1 -1,-1 -0.553,0 -1,0.447 -1,1 0,0.553 0.447,1 1,1 0.553,0 1,-0.447 1,-1"/></g><g transform="translate(27,9)" id="g170"><path id="path172" style="fill:#f4900c;fill-opacity:1;fill-rule:nonzero;stroke:none" d="m 0,0 c 0,-0.553 -0.447,-1 -1,-1 -0.553,0 -1,0.447 -1,1 0,0.553 0.447,1 1,1 0.553,0 1,-0.447 1,-1"/></g><g transform="translate(30,8)" id="g174"><path id="path176" style="fill:#f4900c;fill-opacity:1;fill-rule:nonzero;stroke:none" d="m 0,0 c 0,-0.553 -0.447,-1 -1,-1 -0.553,0 -1,0.447 -1,1 0,0.553 0.447,1 1,1 0.553,0 1,-0.447 1,-1"/></g><g transform="translate(32,10)" id="g178"><path id="path180" style="fill:#f4900c;fill-opacity:1;fill-rule:nonzero;stroke:none" d="m 0,0 c 0,-0.553 -0.447,-1 -1,-1 -0.553,0 -1,0.447 -1,1 0,0.553 0.447,1 1,1 0.553,0 1,-0.447 1,-1"/></g><g transform="translate(22,14)" id="g182"><path id="path184" style="fill:#f4900c;fill-opacity:1;fill-rule:nonzero;stroke:none" d="m 0,0 c 0,-0.553 -0.447,-1 -1,-1 -0.552,0 -1,0.447 -1,1 0,0.553 0.448,1 1,1 0.553,0 1,-0.447 1,-1"/></g><g transform="translate(16.0005,14)" id="g186"><path id="path188" style="fill:#f4900c;fill-opacity:1;fill-rule:nonzero;stroke:none" d="m 0,0 c 0,-0.553 -0.448,-1 -1,-1 -0.552,0 -1,0.447 -1,1 0,0.553 0.448,1 1,1 0.552,0 1,-0.447 1,-1"/></g><g transform="translate(35,12)" id="g190"><path id="path192" style="fill:#f4900c;fill-opacity:1;fill-rule:nonzero;stroke:none" d="m 0,0 c 0,-0.553 -0.447,-1 -1,-1 -0.553,0 -1,0.447 -1,1 0,0.553 0.447,1 1,1 0.553,0 1,-0.447 1,-1"/></g><g transform="translate(18.0005,18)" id="g194"><path id="path196" style="fill:#f4900c;fill-opacity:1;fill-rule:nonzero;stroke:none" d="m 0,0 c 0,-0.553 -0.448,-1 -1,-1 -0.552,0 -1,0.447 -1,1 0,0.553 0.448,1 1,1 0.552,0 1,-0.447 1,-1"/></g><g transform="translate(23,19.9995)" id="g198"><path id="path200" style="fill:#f4900c;fill-opacity:1;fill-rule:nonzero;stroke:none" d="m 0,0 c 0,-0.552 -0.447,-1 -1,-1 -0.553,0 -1,0.448 -1,1 0,0.552 0.447,1 1,1 0.553,0 1,-0.448 1,-1"/></g><g transform="translate(20,23.9995)" id="g202"><path id="path204" style="fill:#f4900c;fill-opacity:1;fill-rule:nonzero;stroke:none" d="m 0,0 c 0,-0.552 -0.447,-1 -1,-1 -0.552,0 -0.999,0.448 -0.999,1 0,0.552 0.447,1 0.999,1 0.553,0 1,-0.448 1,-1"/></g><g transform="translate(28,22.9995)" id="g206"><path id="path208" style="fill:#f4900c;fill-opacity:1;fill-rule:nonzero;stroke:none" d="m 0,0 c 0,-0.552 -0.447,-1 -1,-1 -0.553,0 -1,0.448 -1,1 0,0.552 0.447,1 1,1 0.553,0 1,-0.448 1,-1"/></g><g transform="translate(25,25.9995)" id="g210"><path id="path212" style="fill:#f4900c;fill-opacity:1;fill-rule:nonzero;stroke:none" d="m 0,0 c 0,-0.552 -0.447,-1 -1,-1 -0.553,0 -1,0.448 -1,1 0,0.552 0.447,1 1,1 0.553,0 1,-0.448 1,-1"/></g><g transform="translate(32,17)" id="g214"><path id="path216" style="fill:#f4900c;fill-opacity:1;fill-rule:nonzero;stroke:none" d="m 0,0 c 0,-0.553 -0.447,-1 -1,-1 -0.553,0 -1,0.447 -1,1 0,0.553 0.447,1 1,1 0.553,0 1,-0.447 1,-1"/></g><g transform="translate(27,17)" id="g218"><path id="path220" style="fill:#f4900c;fill-opacity:1;fill-rule:nonzero;stroke:none" d="m 0,0 c 0,-0.553 -0.447,-1 -1,-1 -0.553,0 -1,0.447 -1,1 0,0.553 0.447,1 1,1 0.553,0 1,-0.447 1,-1"/></g><g transform="translate(25,13)" id="g222"><path id="path224" style="fill:#f4900c;fill-opacity:1;fill-rule:nonzero;stroke:none" d="m 0,0 c 0,-0.553 -0.447,-1 -1,-1 -0.553,0 -1,0.447 -1,1 0,0.553 0.447,1 1,1 0.553,0 1,-0.447 1,-1"/></g><g transform="translate(30,14)" id="g226"><path id="path228" style="fill:#f4900c;fill-opacity:1;fill-rule:nonzero;stroke:none" d="m 0,0 c 0,-0.553 -0.447,-1 -1,-1 -0.553,0 -1,0.447 -1,1 0,0.553 0.447,1 1,1 0.553,0 1,-0.447 1,-1"/></g></g></g></g></svg>
