<svg xmlns="http://www.w3.org/2000/svg" viewBox="0 0 64 64" enable-background="new 0 0 64 64"><path d="M23.3,53L2,37.5V62C4.2,55.5,23.3,53,23.3,53z" fill="#c8d2da"/><path d="m18.8 51.9c-8.9-5.1-10.5-16-10.5-16s-1.4-5.8 5.8-16.2c4-5.7 15.9-10 17.5-5.7 3.3 9 0 12 1.4 14.2 1.7 2.7 2.9 3.6 3.8 4.2.7.4 1.1 1 1.1 2.1-.1 1.6-2.8 1.9-2.9 2.3-.2 1.2.6 1.7 2 2.6 1.3.9-1.1 1.9-.6 4.8.5 3 .7 4.1.7 4.1-1.1.9-3.4.9-3.1 2.7.6 4.2-4.6 7-15.2.9" fill="#e4eef7"/><path d="m34.6 42.7c.6-.4 1.2-.9 1.7-1.4.4-.5.8-1.1.4-2.2.4.1.8.6 1 1.2.2.6 0 1.4-.2 1.9-.2.5-.5 1-.8 1.4.3.4.7.9.8 1.5.2.6.2 1.2.1 1.7-.1.5-.2 1-.4 1.5-.4-1-.6-1.9-1-2.4-.2-.2-.4-.4-.6-.6-.2-.2-.5-.4-.9-.6l-1.6-1 1.5-1" fill="#91999f"/><path d="m31.2 30c-4.1 3.1-7.5-.2-7.5-.2 3.6.9 7.5.2 7.5.2" fill="#adb5bc"/><path d="m30.5 39.4c.5.5.9 1.2 1.1 1.9.3.7.5 1.5.6 2.3.1.8 0 1.7-.2 2.5-.2.8-.6 1.5-1.1 2 .2-.8.3-1.5.4-2.2 0-.7 0-1.4 0-2.2-.1-1.4-.4-2.8-.8-4.3" fill="#c8d2da"/><g fill="#91999f"><path d="m27.6 21.3c-3.2 0-6.4 3.1-6.4 3.1 6.9-3.4 11.7 0 11.7 0-.5-.8-2.8-3.1-5.3-3.1"/><path d="m15.7 22.9c0 0-6.3 21.5 0 39.1h-4.7c0 0-6.8-19.5.8-39.7l3.9.6"/></g><path d="m11.9 22.8c0 0-6.3 21.6 0 39.2h-4.6c0 0-6.8-19.6.8-39.8l3.8.6" fill="#adb5bc"/><path d="M8.2,22.9c0,0-6.3,21.5,0,39.1H2V37.5L8.2,22.9z" fill="#91999f"/><path d="m19.5 4.4c0 0 3.5-1.1 5.2-.1 11.2 6.5 5.8 7.5 1.9 5.9-2.9-1.2-7.1-5.8-7.1-5.8" fill="#c8d2da"/><path d="m27.6 9.5c0 0 3.6-1.3 5.2-.1 7.4 5.6 1.2 16.7 1.2 16.7s1.4-10.8-2.5-12.5c-2.9-1.2-3.9-4.1-3.9-4.1" fill="#adb5bc"/><g fill="#c8d2da"><path d="M2,4.5c11.9-6.1,19,0.7,19,0.7L2,27.4V4.5z"/><path d="M20.9,17.6c7.1-6.9,10.6-4,10.6-4C21-5.1,2,20.9,2,37.5C2,37.5,14.5,23.8,20.9,17.6z"/><path d="m17.4 27.7c8.2-9.1 11.8-17.3 11.8-17.3-8.7 11.9-24.1 18.7-27.2 47.8 0 0 7.8-22 15.4-30.5"/></g><path d="M13.7,13.6C21.2,5.9,27,8.5,27,8.5C18.7-2.7,4.5,3.7,2,23.1v14.4C2,37.5,7.6,20,13.7,13.6z" fill="#adb5bc"/><g fill="#42ade2"><path d="m38 43.3c4.8.9 10.2-1.6 12.3-6 1.7-3.6 1-10.3-3.7-11.2-3.7-.7-6.1 3.1-5.6 6.3 1.1 6.7 9 2.1 5.5-1.7 1.7 3.1-2.7 5.8-4.2 2.8-1.3-2.7 1.2-7.3 4.6-5.5 3.8 2 2.8 8 .3 10.5-2.4 2.6-5.8 3.9-9.2 4.8"/><path d="m57.2 30.3c1.2 1.8-1.3 4.3-2.8 2.2-1.6-2.2 1.1-5.8 3.5-3.6 4.3 4.5-2.7 10.4-7.6 11.6 3.9.2 8.5-1.9 10-5.7 1-2.6.5-6.8-2.5-8-3.3-1.3-6.1 2.8-4.5 5.6 2.1 3.8 6.3.4 3.9-2.1"/><path d="m38 44.3c4.4.4 9.7.7 13.3 3.4 2.8 2.1 3.8 7 1.3 9.7-2.5 2.7-6.1 0-5.8-3.2.3-3.8 5.8-2.7 4.7.9 2.6-4.8-6.9-6.7-5.6.8.8 4.7 7.4 5.6 9.3 1.2 4.6-11.1-9.5-14.9-17.2-12.8"/><path d="m47.8 42.9c3.9.2 13.6.3 12.5 5.9-.5 2.3-3.6 2.3-3.4-.3.1-2.1 2.8-1.6 2.4.5 2-4-5.6-3.5-3.3 1.3 1.5 3.2 5.7 1.3 6-1.9.6-7.4-9.7-6.6-14.2-5.5"/></g></svg>