<svg xmlns="http://www.w3.org/2000/svg" viewBox="0 0 64 64" enable-background="new 0 0 64 64"><g fill="#75d6ff"><path d="m20.6 43.2l1.5-2.4-2.3 1.5-.7-4.1-.6 4.1-2.3-1.5 1.5 2.4-4.1.6 4.1.6-1.5 2.3 2.3-1.5.6 4.2.7-4.2 2.3 1.5-1.5-2.3 4.1-.6z"/><path d="m50.7 43.2l1.5-2.4-2.3 1.5-.6-4.1-.6 4.1-2.4-1.5 1.5 2.4-4.1.6 4.2.6-1.6 2.3 2.4-1.5.6 4.2.6-4.2 2.3 1.5-1.5-2.3 4.2-.6z"/><path d="m35.6 43.2l1.6-2.4-2.4 1.5-.6-4.1-.6 4.1-2.3-1.5 1.5 2.4-4.2.6 4.2.6-1.5 2.3 2.3-1.5.6 4.2.6-4.2 2.4 1.5-1.6-2.3 4.2-.6z"/><path d="m13.1 54.3l1.6-2.3-2.4 1.5-.6-4.1-.6 4.1-2.3-1.5 1.5 2.3-4.2.6 4.2.6-1.5 2.4 2.3-1.5.6 4.1.6-4.1 2.4 1.5-1.6-2.4 4.2-.6z"/><path d="m43.3 54.3l1.5-2.3-2.3 1.5-.6-4.1-.7 4.1-2.3-1.5 1.5 2.3-4.1.6 4.1.6-1.5 2.4 2.3-1.5.7 4.1.6-4.1 2.3 1.5-1.5-2.4 4.1-.6z"/><path d="m28.2 54.3l1.5-2.3-2.3 1.5-.6-4.1-.6 4.1-2.4-1.5 1.6 2.3-4.2.6 4.2.6-1.6 2.4 2.4-1.5.6 4.1.6-4.1 2.3 1.5-1.5-2.4 4.2-.6z"/></g><path d="m21.1 34c-.8 0-1.6-.1-2.4-.4-3.1-1-5.3-3.9-5.3-7.2 0-2.2 1-4.3 2.6-5.7.4-.4.9-.7 1.4-1l.5-1.8c1.3-4.4 5.4-7.5 10-7.5.5 0 .9 0 1.5.1.4.1.8.1 1.2.3l.2-.4c1.9-3.3 5.4-5.4 9.2-5.4 5.8 0 10.5 4.7 10.5 10.5 0 .3 0 .6 0 .8v.2c.4.2.9.4 1.3.6 2.8 1.6 4.5 4.6 4.5 7.8 0 4.2-2.9 7.8-7 8.8-.7.2-1.4.2-2 .2h-26.2z" fill="#fff"/><path d="m40 6.5c5 0 9 4 9 8.9 0 .2 0 .5 0 .7-2.1.2-4 1-5.4 2.3 1.1-.6 2.4-1 3.7-1 .5 0 1 0 1.5.1.8.2 1.6.5 2.3.9 2.3 1.3 3.8 3.7 3.8 6.5 0 3.6-2.5 6.5-5.8 7.3-.5.1-1.1.2-1.7.2h-26.3c-.7 0-1.3-.1-1.9-.3-2.4-.8-4.2-3.1-4.2-5.8 0-1.8.8-3.5 2.1-4.6.6-.5 1.3-.9 2-1.2.6-.2 1.3-.3 2-.3 2 0 3.7.9 4.9 2.4h.1c-1.3-2.4-3.7-4.1-6.6-4.3 1.1-3.7 4.5-6.4 8.5-6.4.4 0 .9 0 1.3.1.8.1 1.6.3 2.3.7 2.7 1.2 4.7 3.7 5.1 6.8 0 0 0 0 0-.1 0-3.4-1.8-6.5-4.5-8.3 1.5-2.7 4.4-4.6 7.8-4.6m0-3c-4.1 0-8 2.1-10.2 5.6-.1 0-.2 0-.3 0-.6-.1-1.2-.1-1.7-.1-5.3 0-10 3.5-11.4 8.6l-.3 1.2c-.4.2-.7.5-1.1.8-2 1.7-3.1 4.2-3.1 6.9 0 4 2.5 7.4 6.3 8.7.9.3 1.9.5 2.9.5h26.2c.8 0 1.6-.1 2.4-.3 4.8-1.1 8.2-5.3 8.2-10.3 0-3.8-2-7.3-5.3-9.1-.2-.1-.3-.2-.5-.3 0 0 0 0 0-.1 0-6.7-5.4-12.1-12.1-12.1z" fill="#75d6ff"/></svg>