<?xml version="1.0" encoding="utf-8"?>
<!-- Generator: Adobe Illustrator 25.2.3, SVG Export Plug-In . SVG Version: 6.00 Build 0)  -->
<svg version="1.1" id="Layer_3" xmlns="http://www.w3.org/2000/svg" xmlns:xlink="http://www.w3.org/1999/xlink" x="0px" y="0px"
	 viewBox="0 0 128 128" style="enable-background:new 0 0 128 128;" xml:space="preserve">
<path style="fill:#FCC11A;" d="M29.12,39.22c-4.79,6.16-4.71,17.1,1.41,22.52c6.95,6.15,16.73,6.09,22.88,0.43
	c7.38-6.79,6.95-18.09,0.43-24.48C47.29,31.25,35.58,30.91,29.12,39.22z"/>
<path style="fill:#FEE269;" d="M36.81,37.11c-1.89-0.84-3.97,1.44-4.87,3.01c-0.9,1.56-1.74,4.63,0.18,5.41s3.31-0.54,4.69-2.83
	C38.2,40.41,38.98,38.07,36.81,37.11z"/>
<path style="fill:#FFA722;" d="M41.74,28.53c-0.46,0.86-0.3,1.52,0.61,1.73c0.91,0.22,6.59,1.14,7.07,1.17
	c0.69,0.04,0.95-0.48,0.87-1.08s-1.47-9.11-1.6-9.89c-0.13-0.78-0.95-1.56-1.73-0.52S42.09,27.88,41.74,28.53z"/>
<path style="fill:#FFA722;" d="M56.45,34.42c-0.89,0.28-0.87,0.82-0.39,1.52c0.48,0.69,3.77,5.72,4.08,6.07
	c0.3,0.35,0.82,0.43,1.26-0.09c0.43-0.52,5.85-8.11,6.25-8.59c0.65-0.78,0.26-1.6-0.74-1.34C66.14,32.19,57.01,34.25,56.45,34.42z"
	/>
<path style="fill:#FFA722;" d="M22.62,57.5c0.61-1,1.39-0.74,1.95,0.22c0.39,0.65,3.64,5.03,3.95,5.51c0.3,0.48,0.43,1.39-0.52,1.6
	c-0.95,0.22-8.72,2.26-9.93,2.47c-1.21,0.22-1.91-0.74-1.13-1.78C17.39,64.91,22.27,58.06,22.62,57.5z"/>
<path style="fill:#FFA722;" d="M20.97,49.95c1.11,0.49,1.63,0.32,1.86-0.48c0.3-1.04,1.21-5.81,1.26-6.9
	c0.03-0.71-0.26-1.39-1.34-1.21c-1.08,0.17-8.89,1.26-9.89,1.6c-1.16,0.4-1.08,1.68-0.3,2.08C13.47,45.53,20.19,49.6,20.97,49.95z"
	/>
<path style="fill:#FFA722;" d="M34.46,31.74c0.62-0.5,0.43-1.21-0.13-1.6c-0.56-0.39-7.53-5.43-8.41-6.12
	c-0.78-0.61-1.73-0.39-1.47,1c0.19,1,2.41,9.72,2.56,10.32c0.17,0.69,0.69,1.04,1.3,0.61C28.91,35.51,33.81,32.26,34.46,31.74z"/>
<path style="fill:#E2EBEE;" d="M107.33,76.86c-0.14-0.46,4.52-33.89-25.85-38.83c-27.2-4.42-33.1,20-33.1,20s-10.33-1.73-17.76,5.61
	c-6.13,6.05-6.93,12.86-6.93,12.86S16.1,75,9.46,80.07C2.78,85.17,4.41,90.5,4.41,90.5l15.36,10.62l90.55-2.72l12.86-3.44
	c0,0,2.21-7.81-5.25-13.8C111.91,76.33,107.33,76.86,107.33,76.86z"/>
<path style="fill:#B9CED3;" d="M30.29,90.24c0,0-5.41,3.54-14.13,2.6c-9.99-1.08-11.82-4.86-11.82-4.86s-1.09,7.4,4.93,12.39
	c5.44,4.51,12.29,3.35,21.83,3.41s73.63-0.03,79.69,0.03c4.96,0.05,8.97-1.5,11.09-5.63c2.01-3.9,1.55-6.02,1.55-6.02
	s-3.61,2.24-11.47,1.32c-6.79-0.79-10.11-3.53-10.11-3.53s-8.63,4.42-23.04,4.24c-15.1-0.19-20.23-5.73-20.23-5.73
	s-4.9,4.64-15.67,4.37S30.29,90.24,30.29,90.24z"/>
</svg>
