<svg xmlns="http://www.w3.org/2000/svg" viewBox="0 0 64 64" enable-background="new 0 0 64 64"><path d="m59.3 48.4c.9 1 .9 2.6 0 3.5l-4.2 4.4c-.9 1-2.5 1-3.4 0l1.3-6.2 6.3-1.7" fill="#8cc63e"/><path d="m56.6 52.3c5.4-4.5 9.4-11.5-1.7-22.6-8.4-8.4-1-13.8-1-13.8s-25 0 2.7 36.4" fill="#64892f"/><path d="m11.3 7.3c-5.1 4.9 1.1 19.6 21.8 39.8 11.3 11 16.8 9.2 21.8 4.2s6.8-10.6-4.1-22c-20-20.9-34.6-27.1-39.5-22" fill="#c9ac1c"/><g fill="#ffe62e"><path d="m13.6 6.4c-1.8-1.4-5.3 1.8-2.6 4 1.6 1.4 5.3-1.9 2.6-4"/><path d="m17 9.7c-1.9-1.5-5.4 1.7-2.6 4.1 1.7 1.4 5.4-1.8 2.6-4.1"/><path d="m20.4 13c-1.7-1.3-5.2 1.9-2.6 4 1.5 1.3 5.1-2 2.6-4"/><path d="m23.7 16.3c-1.7-1.3-5.2 1.9-2.6 4 1.5 1.3 5.2-2 2.6-4"/><path d="m27.1 19.6c-1.7-1.3-5.2 1.9-2.6 4 1.5 1.3 5.2-2 2.6-4"/><path d="m30.5 22.9c-1.7-1.3-5.2 1.9-2.6 4 1.5 1.3 5.2-2 2.6-4"/><path d="m33.8 26.5c-1.7-1.3-5.2 1.9-2.6 4 1.5 1.3 5.1-2 2.6-4"/><path d="m37.1 29.7c-1.7-1.3-5.2 1.9-2.6 4 1.5 1.3 5.1-2 2.6-4"/><path d="m40.2 32.8c-1.7-1.3-5.2 1.9-2.6 4 1.5 1.3 5.1-2 2.6-4"/><path d="m43.5 36.1c-1.7-1.3-5.2 1.9-2.6 4 1.5 1.3 5.2-2 2.6-4"/><path d="m46.7 39.6c-1.7-1.3-5.2 1.9-2.6 4 1.5 1.3 5.1-2.1 2.6-4"/><path d="m50.3 42.8c-1.7-1.3-5.2 1.9-2.6 4 1.5 1.3 5.1-2 2.6-4"/><path d="m53.5 46.2c-1.7-1.3-5.2 1.9-2.6 4 1.5 1.3 5.2-2 2.6-4"/><path d="m56.3 49c-1.1-.7-4.5 2.6-2.9 3.7.9.7 4.5-2.7 2.9-3.7"/><path d="m59.5 44.7c.5.9-.8 3.2-1.7 3.6-2.4 1.4.7-5.4 1.7-3.6"/><path d="m32.6 17.5c-1.7-1.3-5.2 1.9-2.6 4 1.5 1.3 5.2-2 2.6-4"/><path d="m37.9 15.8c-1.7-1.3-4.8 1.5-2.3 3.6 1.6 1.4 4.9-1.6 2.3-3.6"/><path d="m41.5 19.3c-1.7-1.3-4.8 1.5-2.3 3.6 1.5 1.3 4.8-1.6 2.3-3.6"/><path d="m45.4 22.5c-1.9-1.5-5.4 1.7-2.6 4.1 1.8 1.5 5.5-1.8 2.6-4.1"/><path d="m49.3 26.4c-1.9-1.5-5.4 1.7-2.6 4.1 1.7 1.5 5.4-1.8 2.6-4.1"/><path d="m52.9 30.4c-1.9-1.5-5.4 1.7-2.6 4.1 1.8 1.4 5.5-1.9 2.6-4.1"/><path d="m56.5 34.9c-1.4-2-4.5-.4-2.5 2.7 1.2 1.8 4.6.3 2.5-2.7"/><path d="m36.1 21c-1.7-1.3-5.2 1.9-2.6 4 1.5 1.3 5.2-2 2.6-4"/><path d="m39.6 24.6c-1.7-1.3-5.2 1.9-2.6 4 1.5 1.2 5.2-2.1 2.6-4"/><path d="m43.1 28.1c-1.7-1.3-5.2 1.9-2.6 4 1.5 1.3 5.2-2 2.6-4"/><path d="m46.6 31.6c-1.7-1.3-5.2 1.9-2.6 4 1.5 1.3 5.2-2 2.6-4"/><path d="m50.2 35.2c-1.7-1.3-5.2 1.9-2.6 4 1.5 1.3 5.2-2 2.6-4"/><path d="m53.6 38.6c-1.7-1.3-5.2 1.9-2.6 4 1.5 1.3 5.2-2 2.6-4"/><path d="m57.1 42.2c-1.7-1.3-5.2 1.9-2.6 4 1.6 1.3 5.2-2 2.6-4"/><path d="m29.3 14.2c-1.7-1.3-5.2 1.9-2.6 4 1.5 1.3 5.2-2 2.6-4"/><path d="m35 15.5c1.1-1.7-2.1-4.9-4-2.3-1.2 1.5 2.2 4.9 4 2.3"/><path d="m25.8 11c-1.7-1.3-5.2 1.9-2.6 4 1.5 1.3 5.1-2 2.6-4"/><path d="m22.3 8.4c-1.5-1.2-4.7 1.7-2.4 3.6 1.4 1.2 4.7-1.8 2.4-3.6"/><path d="m18.6 6.9c-1.2-1-3.2.7-1.3 2.4 1.1 1 3.2-.8 1.3-2.4"/><path d="m14.4 5.5c-.6.8 1 2.6 2 1.3.6-.7-1.1-2.5-2-1.3"/><path d="m16.5 5.3c-.2.4 1.5 1.8 2 .5.2-.8-1.7-1.1-2-.5"/><path d="m18.9 6c-.2.4 1.8 2.1 2.4.6.3-.9-2.1-1.2-2.4-.6"/><path d="m21.7 6.8c-.3.4 1.3 2.5 2.1 1.1.6-.8-1.7-1.6-2.1-1.1"/><path d="m58.6 42.5c.9-.1 1.5-4.8-1.4-4.2-1.7.4.1 4.3 1.4 4.2"/><path d="m27.7 9.8c-.8.7.8 4.8 3.3 2.4 1.5-1.5-2.1-3.3-3.3-2.4"/><path d="m24.3 8c-.6.5.7 3.9 2.7 1.9 1.2-1.2-1.7-2.7-2.7-1.9"/><path d="m21.5 28.7c-1.3-1.7 1.9-5.2 4-2.7 1.3 1.6-2 5.3-4 2.7"/><path d="m19.8 34c-1.3-1.7 1.5-4.8 3.6-2.3 1.3 1.6-1.6 4.9-3.6 2.3"/><path d="m25 32.2c-1.3-1.7 1.9-5.2 4-2.7 1.3 1.6-2 5.3-4 2.7"/><path d="m28.5 35.7c-1.3-1.7 1.9-5.2 4-2.7 1.3 1.6-2 5.3-4 2.7"/><path d="m18.2 25.4c-1.3-1.7 1.9-5.2 4-2.7 1.3 1.6-2 5.2-4 2.7"/><path d="m19.5 31c-1.7 1.1-4.9-2.1-2.3-4 1.6-1.1 4.9 2.3 2.3 4"/><path d="m15.1 21.8c-1.3-1.7 1.9-5.2 4-2.7 1.2 1.6-2.1 5.3-4 2.7"/><path d="m12.5 18.3c-1.2-1.5 1.7-4.7 3.6-2.4 1.2 1.4-1.8 4.7-3.6 2.4"/><path d="m11 14.6c-1-1.2.7-3.3 2.4-1.3.9 1.1-.9 3.2-2.4 1.3"/><path d="m9.6 10.4c.8-.6 2.5 1 1.3 2-.7.5-2.5-1.1-1.3-2"/><path d="m9.4 12.5c.4-.2 1.8 1.5.5 2-.8.2-1.1-1.8-.5-2"/><path d="m10.1 14.9c.4-.2 2.1 1.8.6 2.4-.9.2-1.2-2.1-.6-2.4"/><path d="m10.9 17.7c.4-.3 2.5 1.3 1.1 2.2-.8.5-1.7-1.8-1.1-2.2"/><path d="m13.9 23.7c.7-.8 4.8.8 2.4 3.3-1.5 1.5-3.4-2.1-2.4-3.3"/><path d="m12 20.4c.5-.6 3.9.7 1.9 2.7-1.2 1.2-2.6-1.8-1.9-2.7"/></g><path d="M2,30.5c0,0,22.3,8.2,30.5,20.9c5.4,8.3,16.1,11.4,22.6,0.7C35.5,25.7,2,30.5,2,30.5z" fill="#8cc63e"/></svg>