<svg xmlns="http://www.w3.org/2000/svg" viewBox="0 0 64 64" enable-background="new 0 0 64 64"><g fill="#83bf4f"><path d="m43.8 63.4c-7.7 2-11-2-11-2s.6-6.2 8.4-8.2c5.3-1.4 15.3 1.4 15.3 1.4s-7.4 7.4-12.7 8.8"/><path d="m21 58c7.7 2 11-2 11-2s-.6-6.2-8.4-8.2c-5.3-1.4-15.3 1.4-15.3 1.4s7.4 7.4 12.7 8.8"/></g><path d="m32 28c0 3.8 0 36 0 36" fill="none" stroke="#75a843" stroke-width="4" stroke-miterlimit="10"/><g fill="#ffd68d"><path d="m50.3 19.6c-4.9 4.9-15 8.4-16.7 6.8-1.6-1.6 1.8-11.8 6.8-16.7 6.9-6.9 16.8 3 9.9 9.9"/><path d="m13.7 36.4c4.9-4.9 15-8.4 16.7-6.8 1.6 1.6-1.9 11.7-6.8 16.7-6.9 6.9-16.8-3-9.9-9.9"/><path d="m40.4 46.3c-4.9-4.9-8.4-15-6.8-16.7 1.6-1.6 11.8 1.8 16.7 6.8 6.9 6.9-3 16.8-9.9 9.9"/><path d="m23.6 9.7c4.9 4.9 8.4 15 6.8 16.7-1.6 1.6-11.8-1.9-16.7-6.8-6.9-6.9 3-16.8 9.9-9.9"/></g><g fill="#ffe9ab"><path d="m50.9 35c-7 0-16.6-4.7-16.6-7 0-2.3 9.6-7 16.6-7 9.8 0 9.8 14 0 14"/><path d="m13.1 21c7 0 16.6 4.7 16.6 7 0 2.3-9.6 7-16.6 7-9.8 0-9.8-14 0-14"/><path d="m25 46.9c0-7 4.7-16.6 7-16.6 2.3 0 7 9.6 7 16.6 0 9.8-14 9.8-14 0"/><path d="m39 9.1c0 7-4.7 16.6-7 16.6-2.3 0-7-9.6-7-16.6 0-9.8 14-9.8 14 0"/></g><circle cx="32" cy="28" r="9.6" fill="#f29a2e"/></svg>