<?xml version="1.0" encoding="utf-8"?>
<!-- Generator: Adobe Illustrator 25.2.3, SVG Export Plug-In . SVG Version: 6.00 Build 0)  -->
<svg version="1.1" id="Layer_2" xmlns="http://www.w3.org/2000/svg" xmlns:xlink="http://www.w3.org/1999/xlink" x="0px" y="0px"
	 viewBox="0 0 128 128" style="enable-background:new 0 0 128 128;" xml:space="preserve">
<path style="fill:#8BC029;" d="M75.58,64.51c0,0,7.51,2.63,8.63-1.31c1.13-3.94-0.56-16.52-0.19-20.84s0.38-11.83,9.95-11.83
	s10.7,7.7,10.89,14.08c0.19,6.38,1.65,20.87-5.93,30.29c-4.34,5.4-12.46,8.37-18.85,9.13c-6.38,0.75-12.95,9.73-12.95,9.73
	l-15.21,6.23c0,0-10.6-0.15-19.71-7.88c-9.81-8.32-8.88-23.71-9.81-32.91s-3.89-22.28,10.38-23.4C47.05,34.66,44.05,55.31,43.3,60
	c-0.75,4.69-1.13,17.64,3.38,19.71c4.5,2.06,14.83-2.44,14.83-2.44L75.58,64.51z"/>
<path style="fill:#59951B;" d="M92.01,35.51c-1-1-2.35,3.75-2.25,6.66c0.09,2.91,1.31,20.84-1.88,23.74
	c-3.19,2.91-5.16,3.28-10.32,3.28S54.19,87.03,52.12,87.03s-6.48-0.09-9.29-3c-2.82-2.91-4.41-7.32-4.5-14.73
	s-0.38-19.05-0.47-20.93c-0.09-1.88-0.56-6.38-2.16-6.66s-0.38,3.19-0.38,5.16c0,1.97,0.24,21.48,0.28,23.74
	c0.09,4.6,1.97,12.58,5.26,15.11c3.28,2.53,7.23,3.85,10.79,3.57c3.57-0.28,23.46-17.64,25.81-17.74c2.35-0.09,8.74,0.52,12.48-4.22
	c3.85-4.88,2.63-18.02,2.53-21.68C92.38,41.98,92.38,35.88,92.01,35.51z"/>
<path style="fill:#59951B;" d="M31.38,42.55c0.07-1.6-3,2.06-3.1,7.6c-0.08,4.51,0.75,21.57,1.5,25.81
	c0.84,4.79,3.21,10.86,7.98,15.02c3.66,3.19,8.92,4.22,13.14,4.22s12.01-2.63,16.52-6.85s7.7-9.67,10.42-9.57
	c2.72,0.09,11.36-0.19,15.96-5.63s6.57-16.05,6.19-24.87c-0.35-8.18-0.67-13.07-2.35-12.76c-1.03,0.19-0.19,5.63,0,9.95
	s0,13.89-1.69,18.86c-1.69,4.97-5.26,10.7-12.39,11.83c-7.13,1.13-8.63,0.09-8.63,0.09S69.11,84.5,64.6,87.69s-11.64,4.97-13.7,5.07
	c-2.06,0.09-8.26-1.31-11.26-3.75c-3.09-2.51-6.58-6.94-7.41-12.48c-0.77-5.12-1.5-19.19-1.69-24.59
	C30.4,48.09,31.29,44.61,31.38,42.55z"/>
<path style="fill:#8BC029;" d="M64.6,7.73c-8.9-0.54-17.46,8.26-16.89,22.34s1.88,15.67,1.97,30.78s1.22,35.19,1.41,41.39
	s-0.09,15.49,5.91,19.24c6.01,3.75,15.2,1.88,18.21-2.06c3-3.94,2.72-10.51,2.63-18.58c-0.09-8.07-0.19-21.87-0.47-26.65
	s2.25-39.79,2.44-44.67C79.99,24.89,80.18,8.67,64.6,7.73z"/>
<path style="fill:#59951B;" d="M59.91,11.86c-1.46,0-5.73,6.01-6.01,12.11s-0.56,19.71-0.19,27.5s1.24,29.55,1.5,36.6
	c0.28,7.6,0.75,20.37,0.84,22.81c0.09,2.44,1.07,10.18,3.19,9.39c0.75-0.28-0.19-11.73-0.66-22.71c-0.45-10.5-1.5-35.57-1.69-44.3
	s-0.84-23.65-0.09-28.53c0.75-4.88,1.6-7.7,2.35-9.2C59.91,14.02,61.32,11.86,59.91,11.86z"/>
<path style="fill:#59951B;" d="M71.74,119.88c1.68-0.61,2.63-3.66,2.63-8.63c0-4.97-0.19-24.5-0.19-33.79s0.84-28.25,0.84-35.66
	s0-17.83-0.84-21.77c-0.75-3.48-3-7.7-4.79-7.79c-1.78-0.09,1.97,4.41,2.25,9.85c0.43,8.29,0.28,19.24,0.09,36.32
	s0.38,30.5,0.28,38.86c-0.09,8.35,0.15,12.2,0,17.46C71.92,118.01,70.7,120.26,71.74,119.88z"/>
<path style="fill:#59951B;" d="M64.51,12.33c-1.41-0.07-2.35,8.73-2.16,13.98c0.19,5.26,0.75,29.56,0.94,33.88
	s0.66,35.66,0.66,42.52c0,6.85,0.28,13.14,0.38,15.11c0.09,1.97-0.09,3.28,1.41,3.38c1.5,0.09,1.22-1.97,1.22-3.57
	s-0.09-9.67-0.09-15.02c0-5.35-0.47-34.35-0.56-42.89c-0.09-8.54-0.09-26.47-0.09-33.69S66.29,12.42,64.51,12.33z"/>
<path style="fill:#FFBF1B;" d="M64.51,5.66c0,0,2.06-2.25,2.72-1.88s-1.22,4.88-2.35,5.16c-1.13,0.28-3.57-3.85-2.91-4.22
	C62.63,4.35,64.51,5.66,64.51,5.66z"/>
<path style="fill:#FFBF1B;" d="M74.65,13.64c0.81,1.22,5.44-0.09,5.07-1.03c-0.52-1.31-2.72-0.84-2.72-0.84s0.28-3-1.03-3
	C75.02,8.76,74.08,12.8,74.65,13.64z"/>
<path style="fill:#FFBF1B;" d="M52.59,7.82c-0.8,0.23-0.19,2.63-0.19,2.63s-2.44-0.47-2.53,0.47c-0.09,0.94,3.57,3,4.69,1.78
	C55.69,11.48,53.74,7.48,52.59,7.82z"/>
<path style="fill:#FFE068;" d="M45.74,23.45c-0.56,0.99,1.69,2.86,1.69,2.86s-2.72,1.88-2.16,2.63c0.56,0.75,5.35-0.84,5.4-2.39
	C50.71,25,46.26,22.54,45.74,23.45z"/>
<path style="fill:#FFE068;" d="M69.95,23.36c-0.52-0.17-3.66,4.08-2.58,5.3c1.08,1.22,5.68-0.94,5.63-1.6s-2.82-0.84-2.82-0.84
	S70.38,23.5,69.95,23.36z"/>
<path style="fill:#FFE068;" d="M52.08,45.84c0.16,1.35-4.79,3.94-5.4,2.96s1.97-3.1,1.97-3.1s-1.86-2.45-1.5-3.1
	C47.63,41.76,51.9,44.29,52.08,45.84z"/>
<path style="fill:#FFE068;" d="M78.02,42.41c-0.67-0.31-4.32,2.58-3.99,4.5c0.33,1.92,5.63,0.89,5.63,0.28s-2.67-1.69-2.67-1.69
	S78.63,42.69,78.02,42.41z"/>
<path style="fill:#FFE068;" d="M56.25,56.77c-0.33,0.29,1.74,2.91,1.74,2.91s-2.53,2.02-2.25,2.72c0.28,0.7,5.44,0,5.54-2.35
	C61.36,57.88,57,56.11,56.25,56.77z"/>
<path style="fill:#FFE068;" d="M47.56,68.94c-0.19,0.45,1.97,2.82,1.97,2.82s-2.49,2.86-1.92,3.47c0.56,0.61,5.3-1.22,5.49-3.1
	S47.98,67.91,47.56,68.94z"/>
<path style="fill:#FFE068;" d="M73.05,68.12c0.23,2.49,4.88,2.82,5.26,2.02c0.29-0.61-2.25-2.25-2.25-2.25s1.95-2.6,1.6-3
	C77.04,64.18,72.88,66.3,73.05,68.12z"/>
<path style="fill:#FFE068;" d="M51.08,84.43c-0.44,0.56,1.83,2.86,1.83,2.86s-3.23,1.56-2.91,2.44c0.23,0.66,5.47,0.49,5.96-1.55
	C56.71,85.04,51.41,84.01,51.08,84.43z"/>
<path style="fill:#FFE068;" d="M65.85,99.64c0.03,1.84,5.3,2.86,5.68,2.21c0.38-0.66-2.72-2.91-2.72-2.91s2.16-2.77,1.83-3.38
	C70.31,94.95,65.8,97.11,65.85,99.64z"/>
<path style="fill:#FFE068;" d="M75.68,89.48c0.19,2.11,5.65,3,5.77,2.02c0.09-0.75-2.58-2.39-2.58-2.39s1.83-1.92,1.41-2.63
	C79.86,85.78,75.55,87.98,75.68,89.48z"/>
<path style="fill:#FFE068;" d="M55.88,108.86c0.19,2.02-3.8,4.04-4.13,3.52c-0.45-0.7,1.55-3.61,1.55-3.61s-2.16-2.77-1.88-3.24
	C51.86,104.78,55.69,106.84,55.88,108.86z"/>
<path style="fill:#FFBF1B;" d="M79.97,103.32c0.23,0.72-1.55,3.19-1.55,3.19s3.05,2.21,2.58,2.91c-0.47,0.7-4.88,0.05-5.35-2.21
	C75.18,104.97,79.68,102.43,79.97,103.32z"/>
<path style="fill:#FFBF1B;" d="M95.35,30c0,0-1.84-2.3-2.67-1.77c-0.48,0.31,0.72,4.26,2.75,4.3c2.03,0.04,3.22-4.38,2.39-4.57
	C97.15,27.81,95.35,30,95.35,30z"/>
<path style="fill:#FFBF1B;" d="M105.37,35.36c0,0,0.32-2.36-0.04-2.76c-0.36-0.4-3.23,3.24-2.28,4.87c0.96,1.64,5.43-0.92,5.11-1.44
	C107.84,35.52,105.37,35.36,105.37,35.36z"/>
<path style="fill:#FFBF1B;" d="M84.3,35.2c0,0-2.74,0.85-2.74,1.58c0,0.72,4.31,1.66,5.4-0.17c1.09-1.83-2.7-4.56-3.13-4.17
	C83.39,32.81,84.3,35.2,84.3,35.2z"/>
<path style="fill:#FFBF1B;" d="M101.96,67.47c-0.38,1.61,3.05,4.88,3.8,4.36c0.41-0.28-1.08-3.66-1.08-3.66s2.72-1.08,2.67-1.55
	S102.38,65.68,101.96,67.47z"/>
<path style="fill:#FFE068;" d="M104.21,53.67c-0.03,1.4,5.16,2.25,5.44,1.69c0.28-0.56-2.16-2.63-2.16-2.63s1.88-2.39,1.31-2.82
	S104.26,51.51,104.21,53.67z"/>
<path style="fill:#FFE068;" d="M24.14,55.2c0.1,1.31-3.75,3.43-4.22,2.82s1.31-2.77,1.31-2.77s-2.3-1.5-1.74-2.25
	C20.05,52.24,23.99,53.42,24.14,55.2z"/>
<path style="fill:#FFE068;" d="M25.28,62.07c-0.29,0.45,1.64,2.44,1.64,2.44s-1.88,2.53-1.36,3.05c0.52,0.52,3.9-1,3.8-3.28
	C29.27,62.12,25.7,61.41,25.28,62.07z"/>
<path style="fill:#FFBF1B;" d="M33.44,34.14c0,0-1.88-2.18-2.44-2.1c-0.8,0.12-0.09,4.55,2.25,4.55c2.35,0,3.19-4.32,2.67-4.55
	C35.42,31.81,33.44,34.14,33.44,34.14z"/>
<path style="fill:#FFBF1B;" d="M40.81,40.39c1.27,1.55,5.44-1.13,5.26-1.64c-0.19-0.52-3-0.42-3-0.42s0.38-2.49-0.47-2.77
	C41.75,35.27,39.75,39.09,40.81,40.39z"/>
<path style="fill:#FFBF1B;" d="M25,41c-0.75,1.5-4.55,0.7-4.74-0.05c-0.19-0.75,2.3-1.41,2.3-1.41s-0.75-2.35-0.33-2.63
	C22.65,36.64,26.15,38.69,25,41z"/>
<path style="fill:#FFBF1B;" d="M26.65,76.97c0.64,1.55-2.35,4.55-2.91,3.99c-0.33-0.33,0.33-3.1,0.33-3.1s-2.52-1.03-2.39-1.45
	C21.82,75.94,25.9,75.14,26.65,76.97z"/>
</svg>
