<svg xmlns="http://www.w3.org/2000/svg" viewBox="0 0 64 64" enable-background="new 0 0 64 64"><path d="m6.6 2.5c-3.6 3.3-.8 10.8-.8 10.8-4.1 4.7-2.8 12.8-2.8 12.8l4.9-13.3c-.6-7.2 2.1-9.3 2.1-9.3.5-1.1-2.1-2.2-3.4-1" fill="#6c9925"/><path d="m7.6 3.3c-3 2.7-.2 9.8-.2 9.8-4.1 4.7-2.7 9-2.8 11.6l19.9-11.8c-2.2-5.8-14.5-2.7-14.5-2.7-2.5-4.3 0-6.7 0-6.7s-.8.3-2.4-.2" fill="#8cc63e"/><path d="m42.9 48c-9.7-9.3-10.8-16.8-10.8-25.2 0-6.6-4-11.3-8.3-12.1-2.2-.4-9-.7-6.7 1.3 2.2 2-8.1.4-8.1 4.7 0 3.1-2.6-.6-5.7 7.1-3.1 8-.1 13.5 4.4 18.5 8.8 9.6 29.4 27.1 50.7 16.1 11-5.5-6.1-1.4-15.5-10.4" fill="#ed4040"/></svg>