<?xml version="1.0" encoding="utf-8"?>
<!-- Generator: Adobe Illustrator 25.2.3, SVG Export Plug-In . SVG Version: 6.00 Build 0)  -->
<svg version="1.1" id="Layer_2" xmlns="http://www.w3.org/2000/svg" xmlns:xlink="http://www.w3.org/1999/xlink" x="0px" y="0px"
	 viewBox="0 0 128 128" style="enable-background:new 0 0 128 128;" xml:space="preserve">
<path style="fill:#5B9821;" d="M84.5,37.89c0,0-10.95,2.89-26.19,25.75c-11.77,17.65-12.95,31.48-22.8,40.75
	c-5.01,4.71-13.09,7.94-13.09,7.94s-6.47-0.15-6.91,0.15c-0.44,0.29-1.73,3.53,0.69,7.51c2,3.29,5.05,4.12,6.08,4.26
	c1.03,0.15,2.94-4.27,3.68-4.86c0.74-0.59,9.43-3.93,15.6-10.74c12.65-13.98,12.45-26.11,21.63-42.08
	c10.15-17.65,22.66-26.19,22.66-26.19L84.5,37.89z"/>
<path style="fill:#5B9821;" d="M122.69,3.39c-0.39-0.43-25.34-0.05-38.15,11.52c-15.22,13.74-11.1,32.76-11.1,32.76
	s17.77,4.21,31.18-7.93C120.26,25.59,123.08,3.82,122.69,3.39z"/>
<path style="fill:#5B9821;" d="M72.4,70.49c0.82,0.64,2,1.39,3.69,2.23c9.56,4.78,21.5,2.16,27.35-0.16
	c8.13-3.23,20.21-12.95,20.21-13.69c0-0.74-5.5-3.38-13.32-5.71c-7.82-2.33-18.27-2.44-26.21,0.95
	c-7.28,3.11-10.67,8.58-12.54,11.86c0,0-2.9,0.46-5,0.82c-3.7,0.63-6.55,1.9-6.55,1.9l-2.85,5.92c0,0,5.81-2.64,8.77-3.28
	S72.4,70.49,72.4,70.49z"/>
<path style="fill:#5B9821;" d="M54.31,8.73c-0.93,0.19-5.33,7.06-8.03,13.63c-2.13,5.17-4.26,18.38-0.45,26.52s8.22,9.68,8.22,9.68
	s0.54,2.37,0.48,5.55c-0.03,1.8-0.21,6.76-0.21,6.76l4.35-1.89c0,0,0.29-4.16,0.27-6.18c-0.03-2.13-0.29-4.82-0.29-4.82
	s7.19-6.73,7.72-17.18c0.42-8.24-0.46-15.89-5-24.14C57.81,10.23,54.84,8.63,54.31,8.73z"/>
<path style="fill:#5B9821;" d="M5.8,24.95c-1.08,1.23,1.37,4.33,1.59,11.31c0.17,5.71,1.16,25.05,6.87,34.98
	s13.63,12.37,16.17,13.21c2.54,0.85,8.03,0.95,8.03,0.95s2.33,2.01,3.17,4.86c0.85,2.85,1.69,7.08,1.69,7.08l4.02-5.92
	c0,0-1.16-4.65-2.33-6.76c-1.16-2.11-1.59-2.85-1.59-2.85s2.57-15.99-1.8-29.17C36.45,37,27.57,31.08,19.33,27.59
	S6.54,24.11,5.8,24.95z"/>
<path style="fill:#5B9821;" d="M50.3,93.01c0,0,1.89-1.15,5.27-1.23c3.11-0.07,5.04,0.51,5.04,0.51s5.81-6.67,12.31-8.58
	c6.13-1.8,14.22-3.41,28.47,2.5c14.27,5.92,22.47,11.66,22.37,13.46c-0.11,1.8-14.13,8.22-19.94,10.22
	c-5.81,2.01-19.14,6.23-31.64,1.4c-9.93-3.84-12.15-13-12.15-13s-2.3-1.27-4.94-1.12c-4.83,0.26-8.9,3.87-8.9,3.87L50.3,93.01z"/>
<path style="fill:#8DC02C;" d="M77.97,38.72c1.57,0.97,5.5-8.88,9.3-13.42s10.89-9.19,10.15-11.2s-9.09,0.85-14.8,8.24
	C76.92,29.74,76.6,37.88,77.97,38.72z"/>
<path style="fill:#8DC02C;" d="M79.04,63.53c1.14,1.57,6.37-2.17,11.63-3.38c5.41-1.25,11.2,0.51,10.99-2.43
	c-0.2-2.78-7.93-3.06-13-1.69C83.59,57.4,77.67,61.62,79.04,63.53z"/>
<path style="fill:#8DC02C;" d="M50.51,48.58c1.93-0.08,1.27-6.02,1.37-11.63s1.06-14.06-1.06-14.16c-2.11-0.11-3.89,5.47-4.02,12.15
	C46.7,40.44,47.97,48.68,50.51,48.58z"/>
<path style="fill:#8DC02C;" d="M12.14,38.06c-1.27,0.42-0.37,3.38-0.32,4.76c0.32,9.09,3.38,23.15,8.35,29.28
	c3.86,4.76,8.24,8.24,11.2,6.13c2.96-2.11-2.67-6.67-5.5-11.2c-4.54-7.29-7.4-16.59-8.88-21.14S14.53,37.26,12.14,38.06z"/>
<path style="fill:#8DC02D;" d="M67.41,92.04c0.19,2.77,6.21,1.32,12.59,0.69s11.63-1.51,11.38-3.85c-0.23-2.18-7.36-2.41-12.99-2.01
	C72.76,87.27,67.24,89.57,67.41,92.04z"/>
</svg>
