<svg xmlns="http://www.w3.org/2000/svg" viewBox="0 0 64 64" enable-background="new 0 0 64 64"><path d="M39.8,45.1C33.4,50.4,33.9,64,33.9,64h2.2C41.9,46.2,62,39.5,62,39.5S49.2,37.2,39.8,45.1z" fill="#83bf4f"/><path fill="#75a843" d="m33.6 1l2.5 63h-5z"/><path d="M45.2,25.1c0,11-5.2,15.7-11.6,15.7s-11.6-4.7-11.6-15.7S33.6,1,33.6,1S45.2,14.1,45.2,25.1z" fill="#aa1f65"/><path d="m37 19.9c14.8 9.3 4.8 22.5-3.6 22.5-8.4 0-15.2-8.6-15.2-19.3s8.3-19.3 8.3-19.3-.4 9.3 10.5 16.1" fill="#d33777"/><path d="m30.3 19.9c-14.8 9.3-4.8 22.5 3.6 22.5 8.4 0 15.2-8.6 15.2-19.3s-8.2-19.2-8.2-19.2.3 9.2-10.6 16" fill="#e84d88"/><path d="M24.8,43.1c6.6,6.6,8.7,20.9,8.7,20.9h-4.8C21,45.8,2,32.5,2,32.5S18.2,36.6,24.8,43.1z" fill="#83bf4f"/></svg>