<?xml version="1.0" encoding="utf-8"?>
<!-- Generator: Adobe Illustrator 25.2.3, SVG Export Plug-In . SVG Version: 6.00 Build 0)  -->
<svg version="1.1" id="Layer_3" xmlns="http://www.w3.org/2000/svg" xmlns:xlink="http://www.w3.org/1999/xlink" x="0px" y="0px"
	 viewBox="0 0 128 128" style="enable-background:new 0 0 128 128;" xml:space="preserve">
<path style="fill:#855B51;" d="M56.39,103.2c0,0-0.28,5-1.06,8.02c-0.77,3.03-3.38,5.07-2.53,8.59c0.56,2.32,3.59,4.01,9.64,4.01
	c6.05,0,10.16-1.62,10.28-4.72c0.14-3.59-2.04-4.86-2.39-8.8c-0.35-3.94-0.21-7.6-0.21-7.6L56.39,103.2z"/>
<path style="fill:#027F1C;" d="M21.15,87.5c0,0-4.6,0.94-6.29,1.5s-3.19,0.94-3.57,2.53s-0.75,5.63,5.35,8.35
	c6.1,2.72,15.86,1.78,15.86,1.78s-1.03,4.04,2.35,5.91c3.38,1.88,9.95,1.41,14.45-0.09c4.5-1.5,5.91-2.44,5.91-2.44
	s2.25,3.94,9.95,3.85c7.7-0.09,9.85-2.91,9.85-2.91s7.98,4.6,14.73,3.19s4.69-7.79,4.69-7.79s8.45,1.69,15.49-1.22
	c7.04-2.91,7.6-6.57,7.41-7.7c-0.19-1.13-1.64-3.24-3.99-3.05s-7.74-1.74-9.9-3.05c-2.16-1.31-6.95-3.66-7.79-4.04
	c-0.84-0.38-2.49-1.6-2.21-2.63c0.28-1.03,0.7-1.31,2.58-1.13c1.88,0.19,7.13,0.19,9.57-1.69c2.44-1.88,3.94-4.5,3.66-6.01
	c-0.28-1.5-3-2.72-3-2.72s-14.08-6.48-15.2-6.95c-1.13-0.47-3.84-1.88-3.75-3.1c0.09-1.31,8.82-0.38,9.67-5.73s-1.6-5.35-3.57-6.48
	s-7.7-2.82-7.7-2.82s-4.69-3-5.54-3.57c-0.84-0.56-2.25-1.5-2.16-2.25c0.09-0.75,4.86,0.73,9.01-0.56c3-0.94,3.38-2.96,2.77-4.74
	c-0.3-0.87-5.68-3.33-5.68-3.33L55.31,24.9c0,0-19.05,6.38-19.71,6.66c-0.66,0.28-1.03,1.5,0,2.82c1.03,1.31,2.72,3.28,6.38,3.19
	c3.66-0.09,6.01-1.69,6.66-0.66c0.66,1.03-0.96,2.64-2.06,3.28c-3.28,1.92-6.1,3.57-6.1,3.57s-10.61,4.5-11.17,7.23
	s0.56,4.07,2.25,5.26c1.41,0.99,4.08,1.36,5.82,1.31c1.22-0.03,1.99-0.37,2.3,0.75c0.42,1.55-2.21,2.91-4.65,3.75
	c-2.44,0.84-7.23,3-7.23,3s-7.88,1.88-8.35,2.72c-0.47,0.84-1.31,4.97,1.97,7.88c3.28,2.91,9.29,3.66,9.29,3.66
	s-0.75,2.35-2.25,3.66C26.97,84.31,24.43,86.19,21.15,87.5z"/>
<path style="fill:#02AB47;" d="M62.44,4.35c2.35,0,2.53,4.04,7.13,9.67c4.98,6.1,10.63,11.39,12.93,13.23
	c2.51,2.02,6.03,3.45,6.19,3.87c0.16,0.42-3.64,1.85-8.99,2.14c-5.35,0.28-10.42-1.69-10.42-1.69s3.85,8.54,1.78,10.51
	c-1.67,1.59-7.51,1.41-11.73-4.79s-4.32-8.17-4.32-8.17s-6.66,4.04-12.58,4.13s-6.85-1.2-6.85-1.69c0-0.49,6.66-3.47,9.29-5.44
	S53.32,17.7,57,12.42C59.82,8.39,60.57,4.35,62.44,4.35z"/>
<path style="fill:#02AB47;" d="M57,39.08c0,0-2.44,2.53-6.29,2.82s-5.91-0.66-5.91-0.66s-4.74,1.92-9.01,4.41
	c-3.34,1.95-6.41,4.46-6.34,4.88c0.07,0.42,0.99,1.97,7.18,1.97s6.76-1.58,9.85-1.5c3.94,0.09,6.19,7.02,12.95,7.13
	c5.63,0.09,4.79-4.04,7.88-4.41c3.1-0.38,4.51,2.09,8.87,2.21c12.01,0.33,21.49-5.07,20.13-8.31c-0.45-1.08-3.55-2.59-8.07-4.18
	c-4.27-1.5-5.87-2.39-5.87-2.39s-0.7,1.5-2.86,2.16c-2.02,0.61-5.54-0.75-5.54-0.75s0,2.91-3.28,3.47
	c-4.41,0.75-8.35-1.22-10.14-2.82S57,39.08,57,39.08z"/>
<path style="fill:#02AB47;" d="M75.58,78.68c-3.07,1.21-6.29,8.92-12.86,7.23c-6.57-1.69-7.41-12.58-7.41-12.58
	s-15.17,13.2-19.71,9.01c-3.71-3.43,3.1-8.78,3.1-8.78s-7.04,2.21-13.14-0.42s-6.22-4.72-6.1-5.35c0.12-0.63,4.47-2.15,8.07-3.38
	c2.96-1.01,6.41-1.97,6.41-1.97s3.54,1.41,2.7,3.19c-0.84,1.78-4.22,3-2.91,4.32c1.31,1.31,4.88-1.13,6.1-1.97s4.69-2.62,6.95-2.72
	c4.97-0.23,6.95,3.57,11.64,2.72s8.14-4.6,13.12-5.26c4.97-0.66,8.07,1.69,12.95,1.13c4.88-0.56,6.59-2.63,6.59-2.63
	s4.97,1.88,9.2,3.66c4.22,1.78,7.79,4.32,7.79,4.32s-3,3-8.35,3.66c-5.35,0.66-8.17-2.06-9.2-2.63s-4.22-3.28-5.07-2.25
	c-0.84,1.03,3.47,3.47,5.35,4.88s5.59,4.43,0.09,7.41c-2.77,1.5-6.29,1.08-8.17,0.66C77.55,79.78,77.66,77.87,75.58,78.68z"/>
<path style="fill:#02AB47;" d="M75.87,83.94c0,0-5.54,6.76-9.57,8.82s-7.79,2.11-7.79,2.11s-2.11,2.16-1.69,5.26
	c0.3,2.22,2.91,4.36,8.63,3.99s7.13-1.69,7.32-3.38c0.19-1.69-0.99-3.28-1.36-4.04c-0.38-0.75-1.92-2.53-0.89-3.19
	c1.03-0.66,2.06,0.38,3.38,2.35c1.31,1.97,7.41,12.48,15.39,9.1c7.89-3.34-1.78-10.89,0.19-12.11c1.97-1.22,6.95,3.1,14.64,2.63
	c8.36-0.51,10.23-4.71,10.23-5.96c0-0.47-3.43-0.47-6.29-1.13c-2.17-0.5-5.3-2.44-5.3-2.44s-6.9,2.86-13.37,2.02
	S75.87,83.94,75.87,83.94z"/>
<path style="fill:#02AB47;" d="M50.81,81.4c0,0,0.38,6.38,1.6,8.63c1.22,2.25,3.94,4.5,3.94,4.5s-0.61,2.96-3.66,5.26
	c-3.99,3.01-11.17,5.16-15.39,4.04c-4.22-1.13-3.28-4.04-2.91-5.16c0.38-1.13,4.5-5.73,5.54-7.23c1.03-1.5,2.35-3.47,1.13-3.75
	c-1.22-0.28-3.19,2.72-4.6,4.41c-1.41,1.69-5.26,5.35-12.48,4.32S11.2,91.3,11.86,90.46c0.66-0.84,5.73-2.58,8.54-3.43
	c2.82-0.84,8.07-4.04,8.07-4.04s-0.47,2.72,1.97,3.66c3.06,1.18,7.32,0.84,12.76-1.31C47.32,83.71,50.81,81.4,50.81,81.4z"/>
<path style="fill:#028B2B;" d="M24.08,88.84c-1.73,1.49-4.22,2.11-3.17,3.66c1.06,1.55,3.1-0.21,4.79-1.55
	c1.69-1.34,3.59-2.67,2.6-3.87C27.32,85.88,25.63,87.5,24.08,88.84z"/>
<path style="fill:#028B2B;" d="M43.44,95.04c1.84,1.45,3.1-2.6,3.73-4.15c0.63-1.55,2.08-3.81,0.84-4.58
	c-1.69-1.06-2.39,1.06-3.38,3.52S42.1,93.98,43.44,95.04z"/>
<path style="fill:#028B2B;" d="M49.14,67.44c-1.01-0.76-1.76-0.07-3.17,1.97c-1.41,2.04-2.25,3.52-1.13,4.29
	c1.13,0.77,3.03-1.97,3.73-3.03S49.99,68.08,49.14,67.44z"/>
<path style="fill:#028B2B;" d="M63.17,69.23c-1.81,0.42-0.86,2.22-0.49,3.94c0.42,1.97,1.06,5.07,1.34,5.91
	c0.35,1.06,0.77,2.6,2.11,2.25c1.34-0.35,0.86-2.29,0.7-3.17c-0.35-2.04-1.13-5.21-1.34-6.19C65.28,70.99,65,68.8,63.17,69.23z"/>
<path style="fill:#028B2B;" d="M77.79,88.7c-1.12,1.06,0.28,2.53,1.9,4.36s2.67,3.8,4.01,2.96c1.34-0.84-0.14-2.67-1.48-4.15
	C80.89,90.39,79.13,87.43,77.79,88.7z"/>
<path style="fill:#028B2B;" d="M75.84,67.35c-1.2,1.06,0.35,2.53,1.27,3.94s2.82,3.52,3.38,4.08c0.56,0.56,1.43,1.71,2.39,1.13
	c1.22-0.74,0.07-2.25-0.42-2.82s-2.11-2.82-3.03-3.8S77.34,66.02,75.84,67.35z"/>
<path style="fill:#028B2B;" d="M76.1,45.62c-0.98,1.38,1.06,2.82,3.03,3.94c1.97,1.13,4.04,2.36,4.79,1.13
	c0.84-1.41-1.2-2.53-2.89-3.52C79.34,46.18,77.16,44.14,76.1,45.62z"/>
<path style="fill:#028B2B;" d="M59.63,47.73c-2.11-0.14-1.83,1.69-1.76,3.66c0.07,1.97,0.42,3.1,1.76,3.1c1.34,0,1.34-2.04,1.34-3.1
	C60.97,50.34,60.97,47.82,59.63,47.73z"/>
<path style="fill:#028B2B;" d="M48.6,47.94c0.94,1.52,3.1-0.63,4.01-1.41c0.92-0.77,2.25-1.9,1.34-3.03
	c-0.92-1.13-2.82,0.49-3.73,1.34C49.31,45.69,47.69,46.47,48.6,47.94z"/>
<path style="fill:#028B2B;" d="M62.06,26.9c0.57,3.96,1.36,5.63,2.87,5.13c1.35-0.44,0.42-2.89,0.1-5.16
	c-0.31-2.28-0.36-4.26-2.03-4.01C61.13,23.14,61.72,24.52,62.06,26.9z"/>
<path style="fill:#028B2B;" d="M70.05,25.5c1.26,1.93,2.55,3.01,3.87,2.17c1.01-0.64-0.39-2.49-1.24-3.61
	c-0.58-0.76-2.24-3.93-3.79-2.57C67.84,22.41,68.74,23.49,70.05,25.5z"/>
<path style="fill:#028B2B;" d="M56.6,20.99c0.73,0.68,0,2.04-1.06,3.17c-1.06,1.13-2.53,3.17-3.66,2.11s0.84-2.82,1.55-3.66
	C54.14,21.76,55.48,19.93,56.6,20.99z"/>
</svg>
