<?xml version="1.0" encoding="utf-8"?>
<!-- Generator: Adobe Illustrator 26.3.1, SVG Export Plug-In . SVG Version: 6.00 Build 0)  -->
<svg version="1.1" id="Layer_2" xmlns="http://www.w3.org/2000/svg" xmlns:xlink="http://www.w3.org/1999/xlink" x="0px" y="0px"
	 viewBox="0 0 128 128" style="enable-background:new 0 0 128 128;" xml:space="preserve">
<path style="fill:#DC0D28;" d="M113.69,45.18l-11.26,4.32L80.09,98.67l-36.13,24.59c0,0,24.87,2.06,44.2-11.07
	s29.09-30.22,32.29-44.11c3.19-13.89,1.69-18.02,1.69-18.02L113.69,45.18z"/>
<path style="fill:#FF5117;" d="M82.53,36.17c0,0-7.13,0.94-10.89,13.51s-1.69,22.52-10.14,33.41S45.36,98.11,31.85,95.48
	c-18.46-3.59-17.27-17.1-22.9-17.83C4.63,77.09,2,90.98,8.57,102.05s19.33,19.71,33.22,21.02c13.89,1.31,38.1-6.57,51.62-27.41
	S108.62,60,109,50.62S96.42,36.35,96.42,36.35L82.53,36.17z"/>
<path style="fill:#FFCB88;" d="M86.1,49.92c-3.1-2.39-7.04,1.27-8.59,7.04c-1.55,5.77-1.69,10.7-2.53,13.51s-3.1,6.76-0.14,8.45
	c2.96,1.69,5.91-3.8,7.04-8.02c1.13-4.22,2.11-10,3.66-12.81S88.54,51.8,86.1,49.92z"/>
<path style="fill:#FFCB88;" d="M72.77,82.53c-3.19-1.13-3.85,1.6-4.41,2.44s-1.6,2.91,0.19,4.04c1.99,1.26,3.57-0.19,4.5-1.6
	C73.99,86,74.59,83.17,72.77,82.53z"/>
<path style="fill:#98B71E;" d="M85.06,38.61c2.35,2.25-0.94,4.5,0.75,5.82c1.99,1.55,7.6-1.6,12.2-0.09s4.41,6.95,7.79,7.32
	c3.38,0.38,3.28-2.82,7.88-2.16c4.6,0.66,6.76,6.66,9.01,6.01s1.03-8.07-4.41-13.23c-4.34-4.11-7.23-4.97-7.51-6.95
	c-0.28-1.97,1.78-11.07,2.44-15.58c0.66-4.5,0.47-10.7-5.16-13.51c-5.63-2.82-10.42-0.19-11.36,1.41c-1.14,1.93-0.73,4.64,4.04,2.82
	c4.41-1.69,7.41,2.35,6.85,6.29s-3.57,9.57-5.35,11.83s-2.72,3.57-4.04,3.85c-1.31,0.28-5.63-0.47-9.67-0.28
	c-4.81,0.22-9.85,2.63-9.2,4.6S83.23,36.85,85.06,38.61z"/>
</svg>
