<?xml version="1.0" encoding="utf-8"?>
<!-- Generator: Adobe Illustrator 25.2.3, SVG Export Plug-In . SVG Version: 6.00 Build 0)  -->
<svg version="1.1" id="Layer_2" xmlns="http://www.w3.org/2000/svg" xmlns:xlink="http://www.w3.org/1999/xlink" x="0px" y="0px"
	 viewBox="0 0 128 128" style="enable-background:new 0 0 128 128;" xml:space="preserve">
<radialGradient id="SVGID_1_" cx="63.3448" cy="19.2411" r="79.4208" gradientTransform="matrix(3.174587e-03 1 -2.5368 8.053489e-03 111.9554 -44.2583)" gradientUnits="userSpaceOnUse">
	<stop  offset="0.3481" style="stop-color:#A82209"/>
	<stop  offset="1" style="stop-color:#543121"/>
</radialGradient>
<path style="fill:url(#SVGID_1_);" d="M62.53,15.12c-3.27,0.16-8.43,5.56-8.43,5.56s-3.13,2.43-6.99,4.52
	c-3.21,1.74-25.64,10.8-36.8,28.44c-8.36,13.23-10.99,32.13,3.33,48.28s34.96,15.32,34.96,15.32s24.64,1.17,34.47-0.67
	c8.29-1.55,17.68-3.39,17.68-3.39s21.96-10.04,23.48-36.92c1.36-24.05-16.56-36.4-25.94-41.85c-5.26-3.05-18.22-9.94-23.31-13.81
	C67.06,14.59,66.24,14.94,62.53,15.12z"/>
<path style="fill:#F5B03E;" d="M64.17,27.79c0,0,3.15-3.58,4.89-5.21c1.74-1.63,4.13-3.37,4.13-3.37s-4.78-4.02-5.97-5.54
	c-1.19-1.52-3.04-4.89-4.23-4.89c-1.19,0-2.61,4.13-4.02,6.08c-1.41,1.95-4.99,5.86-4.99,5.86s3.69,1.74,5.43,3.04
	C61.13,25.08,64.17,27.79,64.17,27.79z"/>
<path style="fill:#CF701E;" d="M50.6,106.67c-8.75,0.2-19.94,7.11-19.94,7.11s9.81,6.76,36.56,6.17
	c26.75-0.59,35.54-7.89,35.54-7.89s-8.4-6.57-18.33-6.87c-8.16-0.24-9.74,2.36-17.7,2.56C58.76,107.95,59.36,106.47,50.6,106.67z"/>
<path style="fill:#543121;" d="M44.93,38.64C42.59,37.91,34.26,49.22,31,59.98c-2.92,9.66-2.39,18.79-0.15,26.87
	c1.61,5.8,8.14,18.32,10.72,18.21c2.58-0.11-6.31-12.63-6.46-28.78c-0.17-18.55,3.08-22.47,5.87-28.19
	C42.03,45.95,46.72,39.2,44.93,38.64z"/>
<path style="fill:#543121;" d="M61.77,46.03c-1.59,0-5.39,8.31-5.28,27.74c0.09,16.3,0.84,25.92,4.15,28.07
	c2.25,1.46,1.28-22.57,1.24-27.96C61.77,61.64,63.91,46.03,61.77,46.03z"/>
<path style="fill:#543121;" d="M78.39,39.65c-1.91,0.9,1.01,7.3,2.7,17.86c1.06,6.66,1.91,22.12,1.12,28.86
	c-0.79,6.74-3.82,15.05-0.34,15.16s6.85-10.56,5.95-29.87C86.93,52.34,80.17,38.82,78.39,39.65z"/>
<path style="fill:#543121;" d="M100.08,47.74c-2.02,1.35,3.48,9.88,4.15,24.26c0.67,14.37-5.17,31.11-3.14,31.11
	c2.02,0,7.41-12.13,8.2-24.71C110.26,62.81,102.18,46.34,100.08,47.74z"/>
<path style="fill:#D06150;" d="M34.61,40.56c-1.78-1.61-10.06-0.17-17.76,13.13c-6.46,11.15-4,18.89,0.34,19.65
	c6.4,1.12,5.69-7.45,10.33-16.73C31.74,48.17,36.49,42.26,34.61,40.56z"/>
<path style="fill:#D06150;" d="M51,41.68c-2.46-0.86-4.47,4.91-5.39,8.09c-0.77,2.65-1.36,6.9,2.13,7.52
	c3.88,0.7,4.39-4.37,4.6-8.09C52.51,46.29,53.24,42.47,51,41.68z"/>
</svg>
