<svg xmlns="http://www.w3.org/2000/svg" viewBox="0 0 64 64" enable-background="new 0 0 64 64"><path d="M2.1,50.3c16.2,15.6,43.6,15.6,59.8-0.1L32,2L2.1,50.3z" fill="#f55"/><path d="M6,44l-1.1,1.6C16.7,56,41.7,60.1,59.2,45.5L58,44C42.9,55.5,21.1,55.5,6,44z" fill="#ceff80"/><path d="M4.9,45.6L2,50.2c16.2,15.7,43.7,15.7,60-0.1l-2.8-4.6C43.7,58,20.3,58,4.9,45.6z" fill="#8cc63e"/><g fill="#3e4347"><path d="m16 38.5c0-1.3 2.4-4.6 2.4-4.6s2.5 3.4 2.5 4.7c0 1.3-1 2.3-2.4 2.3-1.4 0-2.5-1.1-2.5-2.4"/><path d="m28.4 43.1c0-1.3 2.4-4.6 2.4-4.6s2.5 3.4 2.5 4.7c0 1.3-1 2.3-2.4 2.3-1.4 0-2.5-1.1-2.5-2.4"/><path d="m36.5 31.5c0-1.3 2.4-4.6 2.4-4.6s2.5 3.4 2.5 4.7c0 1.3-1 2.3-2.4 2.3-1.4 0-2.5-1.1-2.5-2.4"/><path d="m44.7 42.5c0-1.3 2.4-4.6 2.4-4.6s2.5 3.4 2.5 4.7c0 1.3-1 2.3-2.4 2.3-1.4-.1-2.5-1.1-2.5-2.4"/><path d="m27.2 20.9c0-1.3 2.4-4.6 2.4-4.6s2.4 3.4 2.4 4.7c0 1.3-1 2.3-2.4 2.3-1.3-.1-2.4-1.1-2.4-2.4"/></g><g fill="#64892f"><path d="m28.2 54.7v7.1c2.5.2 5 .2 7.5 0v-7.1c-2.4.2-5 .2-7.5 0"/><path d="m10.6 49.4l-2.2 5.8c2.1 1.4 4.4 2.5 6.7 3.5l2.3-6.2c-2.3-.8-4.6-1.9-6.8-3.1"/><path d="m53.4 49.4c-2.2 1.2-4.5 2.3-6.9 3.1l2.3 6.2c2.3-1 4.6-2.1 6.7-3.5l-2.1-5.8"/></g></svg>