<?xml version="1.0" encoding="utf-8"?>
<!-- Generator: Adobe Illustrator 25.2.3, SVG Export Plug-In . SVG Version: 6.00 Build 0)  -->
<svg version="1.1" id="Layer_2" xmlns="http://www.w3.org/2000/svg" xmlns:xlink="http://www.w3.org/1999/xlink" x="0px" y="0px"
	 viewBox="0 0 128 128" style="enable-background:new 0 0 128 128;" xml:space="preserve">
<path style="fill:#6EA517;" d="M78.7,52.85L60.22,36.83l6.86-5.1c0,0,19.91-11.15,38.9,2.29c18.66,13.2,16.9,52.45,2.46,70.4
	s-24.47,19.01-29.92,18.83c-5.46-0.18-6.34-2.82-11.62-2.29c-5.28,0.53-7.04,3.52-16.72,2.82c-8.78-0.64-16.02-4.05-19.54-7.92
	C27.31,112.18,78.7,52.85,78.7,52.85z"/>
<path style="fill:#87C244;" d="M100.21,34.4c0,0-7.93,3.42-15.85,4.04c-7.93,0.62-22.07-0.47-22.07-0.47s-1.55-8.24-2.02-8.24
	c-0.47,0-21.28-7.24-36.52,4.2C7.69,45.98,6.11,69.38,8.67,80.55c5.89,25.67,24.78,37.76,24.78,37.76s16.87,1.87,38.01-7.45
	s39.44-25.64,39.01-47.55C110,39.99,100.21,34.4,100.21,34.4z"/>
<path style="fill:#E5DD9F;" d="M37.7,38.9c-2.71-3.13-10.15-2.43-15.93,5.84c-6.02,8.6-6.29,24.36-1.33,24.79
	c4.07,0.35,5.11-6.54,7.61-11.42C32.75,48.95,43.9,46.07,37.7,38.9z"/>
<path style="fill:#59702C;" d="M44.25,35.36c-1.19,2.48,2.73,8.58,17.37,9.03c15.4,0.47,20.45-8.11,18.69-10.11
	c-1.76-2-7.52,1.29-18.45,1.18S46.28,31.15,44.25,35.36z"/>
<path style="fill:#513532;" d="M51.86,18.64c-1.18-0.24-5.99-1.06-6.47-2.94c-0.22-0.89,0.94-3.76,4-5.88s6.11-2.7,6.82-1.06
	c0.71,1.65,0.47,2.7,0.47,3.06c0,0.35,2.42,3.18,4.11,6.82c2.35,5.05,3.64,9.99,3.41,15.05c-0.17,3.66-0.24,8.82-2.35,8.46
	c-2.2-0.37-1.74-5.53-2.82-9.17C56.45,24.29,52.57,18.79,51.86,18.64z"/>
<path style="fill:#2F7C31;" d="M82.59,24.36c0.24-0.35,24.57-15.63,24.68-16.57S94.7,4.61,86.71,7.55s-16.27,7.67-20.22,15.87
	c-3.17,6.58-3.17,11.05-2.35,12.11C64.53,36.03,82.59,24.36,82.59,24.36z"/>
<path style="fill:#4C8C19;" d="M79.89,23.42c10.74-6.86,27.39-15.63,27.39-15.63s0.5,1.31-2.7,6.82
	c-4.23,7.29-14.11,16.69-24.1,19.63c-10.84,3.19-16.34,1.29-16.34,1.29S71.43,28.83,79.89,23.42z"/>
</svg>
