<?xml version="1.0" encoding="UTF-8" standalone="no"?><svg xmlns:dc="http://purl.org/dc/elements/1.1/" xmlns:cc="http://creativecommons.org/ns#" xmlns:rdf="http://www.w3.org/1999/02/22-rdf-syntax-ns#" xmlns:svg="http://www.w3.org/2000/svg" xmlns="http://www.w3.org/2000/svg" viewBox="0 0 45 45" style="enable-background:new 0 0 45 45;" xml:space="preserve" version="1.1" id="svg2"><metadata id="metadata8"><rdf:RDF><cc:Work rdf:about=""><dc:format>image/svg+xml</dc:format><dc:type rdf:resource="http://purl.org/dc/dcmitype/StillImage"/></cc:Work></rdf:RDF></metadata><defs id="defs6"><clipPath id="clipPath16" clipPathUnits="userSpaceOnUse"><path id="path18" d="M 0,36 36,36 36,0 0,0 0,36 Z"/></clipPath></defs><g transform="matrix(1.25,0,0,-1.25,0,45)" id="g10"><g id="g12"><g clip-path="url(#clipPath16)" id="g14"><g transform="translate(36,15.083)" id="g20"><path id="path22" style="fill:#dd2e44;fill-opacity:1;fill-rule:nonzero;stroke:none" d="M 0,0 C 0,0.687 -2.895,0.5 -3.125,1 -3.355,1.5 0.083,5.584 -0.417,6.5 -0.917,7.417 -5.503,5.334 -5.792,5.792 -6.08,6.25 -5.5,9.292 -6,9.667 c -0.5,0.375 -5.25,-4.916 -5.917,-4.292 -0.666,0.625 1.542,10.5 1.086,10.699 -0.456,0.198 -3.419,-1.366 -3.793,-1.282 -0.374,0.083 -2.694,6.125 -3.376,6.125 -0.682,0 -3.002,-6.042 -3.376,-6.125 -0.374,-0.084 -3.337,1.48 -3.793,1.282 C -25.625,15.875 -23.417,6 -24.083,5.375 -24.75,4.751 -29.5,10.042 -30,9.667 -30.5,9.292 -29.92,6.25 -30.208,5.792 -30.497,5.334 -35.083,7.417 -35.583,6.5 -36.083,5.584 -32.645,1.5 -32.875,1 -33.105,0.5 -36,0.687 -36,0 c 0,-0.687 8.438,-5.235 9,-5.771 0.562,-0.535 -2.914,-2.801 -2.417,-3.229 0.576,-0.496 3.84,0.83 10.417,0.957 l 0,-6.04 c 0,-0.553 0.448,-1 1,-1 0.553,0 1,0.447 1,1 l 0,6.04 C -10.423,-8.17 -7.159,-9.496 -6.583,-9 -6.087,-8.572 -9.563,-6.306 -9,-5.771 -8.438,-5.235 0,-0.687 0,0"/></g></g></g></g></svg>
