<svg xmlns="http://www.w3.org/2000/svg" viewBox="0 0 36 36"><path fill="#F2C994" d="M27 33c0 2.209-1.791 3-4 3H13c-2.209 0-4-.791-4-3s3-7 3-13 12-6 12 0 3 10.791 3 13z"/><path fill="#C1694F" d="M34.666 11.189l-.001-.002c-.96-2.357-2.404-4.453-4.208-6.182h-.003C27.222 1.904 22.839 0 18 0 13.638 0 9.639 1.541 6.524 4.115c-2.19 1.809-3.941 4.13-5.076 6.785C.518 13.075 0 15.473 0 18c0 2.209 1.791 4 4 4h28c2.209 0 4-1.791 4-4 0-2.417-.48-4.713-1.334-6.811z"/><path fill="#CC927A" d="M11.771 10.934c1.546-1.547 1.86-3.74.7-4.9-1.16-1.16-3.353-.846-4.9.7-1.546 1.546-1.86 3.74-.7 4.9 1.16 1.16 3.354.846 4.9-.7Z"/></svg>