<svg xmlns="http://www.w3.org/2000/svg" viewBox="0 0 64 64" enable-background="new 0 0 64 64"><path d="m56.5 31.3c0-.5.1-.9.3-1.3-1.9-1.1-3-2.7-3-4.5.1-2.8 3.3-5.1 7.4-5.5 1-9.4.8-17 .8-17s-37.1-1.3-50.6 11.7c-.2.2-.4.4-.7.7 2 1.2 3.3 3.2 3.3 5.5 0 3.7-3.5 6.8-7.8 6.8-1.3 0-2.5-.3-3.6-.8-3.9 11.7 12 15.1 15.5 18.5 4.5 4.3 9 28.4 31.7 6.5 4.1-4 6.9-10.2 8.7-16.8-1.2-1-2-2.3-2-3.8" fill="#ffd93b"/><path fill="#db9523" d="m24.5 40.9l4.6-4.6 19 11.7-18.3-12.5 7.6-7.6 17 7.5-16.3-8.3 7.1-7.2 12.9-.6-11.9-.4 15.8-15.9-16.5 15.2-.4-11.5-.6 12.5-7.4 6.9-8.6-15.8 7.8 16.5-8 7.3-12.9-17.6 12.2 18.3-4.8 4.4-12.9-7.6 12.2 8.3-12.5 11.5 2.3 2.2 11.9-12 8.6 11.7z"/></svg>