<svg xmlns="http://www.w3.org/2000/svg" viewBox="0 0 64 64" enable-background="new 0 0 64 64"><path d="m59.3 33.6c-1.1-.5-1.1-1.4-1-2.1l2.6-9.1-8.7 1.8c-.3 0-1.1 0-1.6-1.7l-.8-3.1-6 7c0 0-3.9 4.3-2.7-2.2l2.6-13.9-4.8 2.4c-.3.1-1.2.2-2.5-2.2l-4.4-8.5-4.4 8.4c-1.3 2.4-2.2 2.3-2.5 2.2l-4.8-2.4 2.6 13.9c1.2 6.5-2.7 2.2-2.7 2.2l-6-7-.8 3.1c-.4 1.7-1.3 1.8-1.6 1.7l-8.7-1.8 2.6 9.1c.1.7.1 1.6-1 2.1l-2.7 1.3c0 0 10 8 13.2 10.7.6.5 2.2 2.1 1.6 3.7l-1.2 3.6 13.6-2.1c.7-.1 4.6-.1 5.3 0l13.6 2.1-1.2-3.6c-.5-1.7 1-3.2 1.6-3.7 3.5-2.7 13.5-10.7 13.5-10.7l-2.7-1.2" fill="#ff8e66"/><path d="m56.8 35.5c-1.8.1-3.5.2-5.3.3-2.9.1-5.8.2-8.8.2 1.3-.9 2.5-1.9 3.8-2.8l7.3-5.3 3.6-2.7c1.2-.9 2.4-1.8 3.5-2.9-1.1 1-2.4 1.8-3.6 2.7l-3.7 2.5-7.2 4.7c.5-1.9 1-3.9 1.5-5.8l1-3.5c.3-1.2.7-2.4 1.1-3.5-.5 1.1-.9 2.3-1.4 3.4l-1.2 3.5c-.8 2.3-1.5 4.5-2.2 6.8-2.2 1.5-4.4 2.9-6.6 4.4-1.2.9-2.5 1.7-3.7 2.6-.6.4-1.2.9-1.8 1.4l-.4-13.9c1.4-3.1 3-6.1 4.9-8.9 1.9-2.9 4-5.8 6.3-8.5-2.4 2.6-4.6 5.4-6.7 8.2-1.6 2.3-3.2 4.7-4.5 7.2l-.7-21.3-.6 21.3c-1.3-2.5-2.9-4.9-4.5-7.2-2.1-2.9-4.3-5.6-6.7-8.2 2.3 2.7 4.3 5.6 6.3 8.5 1.8 2.9 3.5 5.8 4.9 8.9l-.4 13.8c-.6-.5-1.2-.9-1.8-1.4-1.2-.9-2.5-1.8-3.7-2.6-2.2-1.5-4.4-3-6.6-4.4-.7-2.3-1.4-4.5-2.2-6.8l-1.2-3.5c-.4-1.1-.8-2.3-1.4-3.4.5 1.1.8 2.3 1.1 3.5l1 3.5c.5 1.9 1 3.9 1.5 5.8l-7.2-4.7-3.7-2.4c-1.2-.9-2.5-1.7-3.6-2.7 1.1 1.1 2.3 2 3.5 2.9l3.6 2.7 7.3 5.3c1.3.9 2.5 1.9 3.8 2.8-2.9 0-5.8-.1-8.8-.2-1.8-.1-3.5-.2-5.3-.3-1.8-.2-3.5-.3-5.2-.7 1.7.5 3.5.7 5.2 1 1.8.2 3.5.4 5.3.6 3.4.3 6.7.5 10.1.7.7.5 1.4 1 2.1 1.6 1.1.9 2.2 1.7 3.3 2.6-1.9 1.9-3.7 3.8-5.6 5.7-1.1 1.1-2.1 2.1-3.2 3.1-1.1 1-2.2 2-3.4 2.8 1.3-.8 2.5-1.7 3.6-2.7 1.1-1 2.3-1.9 3.4-2.9 2-1.8 4-3.7 6-5.4.4.3.8.6 1.1 1 .4.4.8.8 1.1 1.2l-.6 17.9h3l-.5-17.9c.3-.4.7-.8 1.1-1.2.4-.3.7-.7 1.1-1 2 1.8 4 3.6 6 5.4 1.1 1 2.2 2 3.4 2.9 1.2.9 2.3 1.9 3.6 2.7-1.2-.8-2.3-1.8-3.4-2.8-1.1-1-2.2-2.1-3.2-3.1-1.9-1.9-3.7-3.8-5.6-5.7 1.1-.9 2.2-1.8 3.3-2.6.7-.5 1.4-1 2.1-1.6 3.4-.2 6.7-.4 10.1-.7 1.8-.2 3.5-.3 5.3-.6 1.8-.2 3.5-.4 5.2-1-1.7.4-3.5.6-5.2.7" fill="#c65c3c"/></svg>