<?xml version="1.0" encoding="utf-8"?>
<!-- Generator: Adobe Illustrator 25.2.3, SVG Export Plug-In . SVG Version: 6.00 Build 0)  -->
<svg version="1.1" id="Layer_3" xmlns="http://www.w3.org/2000/svg" xmlns:xlink="http://www.w3.org/1999/xlink" x="0px" y="0px"
	 viewBox="0 0 128 128" style="enable-background:new 0 0 128 128;" xml:space="preserve">
<path style="fill:#7A9C41;" d="M30.37,22.83c-0.53-0.95-6.76-7.19-6.76-7.19s-1.37-2.11-4.23-2.11s-3.7,2.84-5.8,6.47
	c-1.8,3.11-9.87,16.01-9.78,36.11c0.08,17.12,3.85,26.32,11.67,36.26c6.76,8.59,21.87,17.65,38.89,20.82
	c17.01,3.17,39.84,1.9,52.63-6.97s15.32-18.78,16.49-26c1.48-9.17,1.22-21.13-2.47-22.49c-3.26-1.19-8.2,1.4-8.2,1.4L30.37,22.83z"
	/>
<path style="fill:#FFF6A0;" d="M108.7,54.96l3.72,0.12l6.46,2.33c0,0-16.98,35.59-51.2,43.41c-32.17,7.35-55.83-8.36-58.51-37.81
	c-2.8-30.81,13.99-47.9,13.99-47.9l4.68,2.46l25.12,46.55L108.7,54.96z"/>
<path style="fill:#FF6C75;" d="M31.56,89.24c17.93,12.78,47.79,4.69,63.47-11.65c16.26-16.95,17.4-22.51,17.4-22.51
	s-19.27-7.91-28.78-12.41S45.96,25.82,41.45,23.65S27.6,17.43,27.6,17.43S19.26,28.67,16.14,43.7S14.7,77.23,31.56,89.24z"/>
<path style="fill:#2F2F2F;" d="M42.58,42.19c0.2,0.87-0.34,3.98-4.53,5.89c-2.17,0.99-3.87,0.05-4.48-1.46
	c-0.68-1.68,0.3-3.88,2.69-4.9C39,40.54,42.44,41.57,42.58,42.19z"/>
<path style="fill:#2F2F2F;" d="M50.13,54.57c1.3,1.19-0.38,5-1.28,6.16c-0.9,1.17-3.64,3.69-5.84,1.32
	c-2.27-2.46,0.63-5.39,1.56-6.17S48.86,53.41,50.13,54.57z"/>
<path style="fill:#2F2F2F;" d="M63.55,59.58c-1.29-0.07-4.15,2.83-3.71,6.27c0.4,3.11,2.03,3.73,3.37,3.83
	c1.33,0.1,3.02-1.2,3.27-4.41C66.75,61.69,64.49,59.63,63.55,59.58z"/>
<path style="fill:#2F2F2F;" d="M77.24,56.62c-0.91,0.64-1.32,4,0.3,6.69c1.29,2.13,3.55,3.14,5.37,1.72c1.82-1.42,1.52-4-0.46-6.23
	C80.48,56.57,78.1,56.01,77.24,56.62z"/>
<path style="fill:#C1CA32;" d="M119.47,70.52c0.4,0.64,0.94,2.01-0.04,3.74c-0.86,1.52-1.89,2.3-1.6,4.24s1.77,1.6,1.69,5.51
	c-0.06,2.86-2.18,4.98-4.03,6.46c-1.85,1.48-3,2.72-3.17,5.27c-0.17,2.61-0.62,4.98-2.18,6.46c-2.76,2.59-5.08,1.05-7.53,3.5
	c-1.94,1.94-1.57,3.83-1.57,3.83s-1.9,0.93-5.29,2.01c-4.2,1.33-6.52,1.59-6.52,1.59s2.39-1.8,3.05-3.77s1.28-5.06,3.58-6.95
	c4.57-3.62,7.77-0.82,9.79-2.88c1.81-1.85-0.37-4.15,1.97-8.47c1.95-3.59,6.13-3.58,6.42-6.34c0.29-2.76-1.51-3.08-0.99-6.58
	C113.71,73.73,119.26,70.19,119.47,70.52z"/>
<path style="fill:#C1CA32;" d="M57.16,113.66c0,0,0.64-3.15,4.51-4.39c2.47-0.99,4.61,0.45,7.03-0.37c2.43-0.82,2.72-3.95,6.29-5.72
	c3.58-1.77,6.17,0.78,9.58-0.37c3.41-1.15,1.81-5.43,4.85-8.43c3.67-3.62,6.94-1.16,9.58-3.13c3.54-2.63,2.71-7,5.39-7.08
	c1.4-0.04,2.1,2.63,1.23,5.92c-0.86,3.29-3.29,5.19-5.64,5.92c-2.51,0.78-3.91,0.21-5.68,2.59c-1.2,1.61-1.71,5.29-5.14,7.36
	c-5.1,3.09-6.99,1.11-9.91,3.09c-3.41,2.72-3.74,5.61-3.74,5.61s-5.97,0.19-8.81,0.03C62.24,114.44,57.16,113.66,57.16,113.66z"/>
<path style="fill:#C1CA32;" d="M36.62,107.59c0,0,5.47,0.41,8.31,0.16c2.84-0.25,8.19-1.11,8.52,1.4s-2.43,3.33-2.43,3.33
	s-4.57-0.99-7.53-2.06C40.52,109.36,36.62,107.59,36.62,107.59z"/>
</svg>
