<?xml version="1.0" encoding="UTF-8" standalone="no"?><svg xmlns:dc="http://purl.org/dc/elements/1.1/" xmlns:cc="http://creativecommons.org/ns#" xmlns:rdf="http://www.w3.org/1999/02/22-rdf-syntax-ns#" xmlns:svg="http://www.w3.org/2000/svg" xmlns="http://www.w3.org/2000/svg" viewBox="0 0 45 45" style="enable-background:new 0 0 45 45;" xml:space="preserve" version="1.1" id="svg2"><metadata id="metadata8"><rdf:RDF><cc:Work rdf:about=""><dc:format>image/svg+xml</dc:format><dc:type rdf:resource="http://purl.org/dc/dcmitype/StillImage"/></cc:Work></rdf:RDF></metadata><defs id="defs6"><clipPath id="clipPath16" clipPathUnits="userSpaceOnUse"><path id="path18" d="M 0,36 36,36 36,0 0,0 0,36 Z"/></clipPath></defs><g transform="matrix(1.25,0,0,-1.25,0,45)" id="g10"><g id="g12"><g clip-path="url(#clipPath16)" id="g14"><g transform="translate(36,22.5)" id="g20"><path id="path22" style="fill:#d99e82;fill-opacity:1;fill-rule:nonzero;stroke:none" d="m 0,0 c 0,4.558 -4.435,8.267 -10,8.479 l 0,0.021 -16,0 0,-0.021 C -31.565,8.267 -36,4.558 -36,0 c 0,-1.861 0.747,-3.576 2,-4.976 l 0,-12.524 c 0,-2.209 1.791,-4 4,-4 l 24,0 c 2.209,0 4,1.791 4,4 l 0,12.524 c 1.253,1.4 2,3.115 2,4.976"/></g><path id="path24" style="fill:#cc927a;fill-opacity:1;fill-rule:nonzero;stroke:none" d="m 34,16.024 -15,0 0,1.5 15,0 0,-1.5 z"/><g transform="translate(21,22.5)" id="g26"><path id="path28" style="fill:#ffe8b6;fill-opacity:1;fill-rule:nonzero;stroke:none" d="M 0,0 C 0,3.461 -3.538,6.291 -8,6.489 -8.165,6.496 -10.332,6.5 -10.5,6.5 -15.194,6.5 -19,3.59 -19,0 c 0,-1.595 0.754,-3.053 2,-4.184 l 0,-12.316 c 0,-1.657 1.343,-3 3,-3 l 9,0 c 1.657,0 3,1.343 3,3 l 0,12.321 C -0.756,-3.048 0,-1.593 0,0"/></g></g></g></g></svg>
