<svg xmlns="http://www.w3.org/2000/svg" viewBox="0 0 64 64" enable-background="new 0 0 64 64"><path d="m62 32c0 1.2-1.2 2.3-1.4 3.5-.1 1.2.8 2.6.5 3.7-.3 1.2-1.8 2-2.2 3.1-.4 1.1.2 2.7-.4 3.7-.6 1.1-2.2 1.5-2.8 2.4-.7 1-.5 2.7-1.3 3.5-.8.9-2.5.9-3.3 1.7-.9.8-1.1 2.5-2.1 3.1-1 .7-2.6.3-3.6.8-1 .6-1.6 2.1-2.8 2.5-1.1.4-2.6-.4-3.7-.1-1.1.3-2.1 1.7-3.3 1.8-1.2.1-2.4-1-3.6-1s-2.5 1.1-3.6 1c-1.2-.1-2.1-1.5-3.3-1.8-1.2-.3-2.6.5-3.7.1-1.1-.4-1.7-2-2.8-2.5-1.1-.6-2.7-.2-3.6-.8-1-.7-1.2-2.3-2.1-3.1-.9-.8-2.6-.8-3.3-1.7-.8-.9-.6-2.6-1.3-3.5-.7-1-2.3-1.4-2.8-2.4-.5-1.1 0-2.6-.4-3.7-.4-1.1-1.9-1.9-2.2-3.1-.3-1.1.7-2.5.5-3.7-.2-1.2-1.4-2.3-1.4-3.5s1.2-2.3 1.4-3.5c.1-1.2-.8-2.6-.5-3.7.3-1.2 1.8-2 2.2-3.1.4-1.1-.2-2.7.3-3.7.6-1.1 2.2-1.5 2.8-2.4.7-1 .5-2.7 1.3-3.5.8-.9 2.5-.9 3.3-1.7s1.2-2.6 2.2-3.3c1-.7 2.6-.3 3.6-.8 1-.6 1.6-2.1 2.8-2.5 1.1-.4 2.6.4 3.7.1 1.1-.3 2.1-1.7 3.3-1.8 1.2-.1 2.4 1 3.6 1s2.5-1.1 3.6-1c1.2.1 2.1 1.5 3.3 1.8 1.2.3 2.6-.5 3.7-.1 1.1.4 1.7 2 2.8 2.5 1.1.6 2.7.2 3.6.8 1 .7 1.2 2.3 2.1 3.1s2.6.8 3.3 1.7.6 2.6 1.3 3.5c.7 1 2.3 1.4 2.8 2.4.5 1.1 0 2.6.4 3.7.4 1.1 1.9 1.9 2.2 3.1.3 1.1-.7 2.5-.5 3.7.2 1.4 1.4 2.5 1.4 3.7" fill="#a87451"/><g fill="#8e6244"><ellipse cx="32" cy="8.4" rx="1.2" ry="3.6"/><ellipse cx="32" cy="18.2" rx="1.2" ry="3.6"/><ellipse cx="32" cy="27.9" rx="1.2" ry="3.6"/><ellipse cx="32" cy="37.7" rx="1.2" ry="3.6"/><ellipse cx="26.6" cy="9.9" rx="1.2" ry="3.6"/><ellipse cx="26.6" cy="19.6" rx="1.2" ry="3.6"/><ellipse cx="26.6" cy="29.4" rx="1.2" ry="3.6"/><ellipse cx="21.3" cy="8.4" rx="1.2" ry="3.6"/><ellipse cx="21.3" cy="18.2" rx="1.2" ry="3.6"/><ellipse cx="21.3" cy="27.9" rx="1.2" ry="3.6"/><ellipse cx="21.3" cy="37.7" rx="1.2" ry="3.6"/><ellipse cx="15.9" cy="11.9" rx="1.3" ry="3.6"/><ellipse cx="15.9" cy="21.6" rx="1.3" ry="3.6"/><ellipse cx="15.9" cy="31.4" rx="1.3" ry="3.6"/><ellipse cx="11.6" cy="18.2" rx="1.2" ry="3.6"/><ellipse cx="10.6" cy="27.9" rx="1.2" ry="3.6"/><ellipse cx="11.6" cy="37.7" rx="1.2" ry="3.6"/><ellipse cx="10.6" cy="47.4" rx="1.2" ry="3.6"/><ellipse cx="5.2" cy="31.7" rx="1.2" ry="3.6"/><ellipse cx="7.2" cy="22.2" rx="1.3" ry="3.6"/><ellipse cx="7.2" cy="41.1" rx="1.3" ry="3.6"/><ellipse cx="37.3" cy="9.9" rx="1.2" ry="3.6"/><ellipse cx="37.3" cy="19.6" rx="1.2" ry="3.6"/><ellipse cx="37.3" cy="29.4" rx="1.2" ry="3.6"/><ellipse cx="42.7" cy="8.4" rx="1.2" ry="3.6"/><ellipse cx="42.7" cy="18.2" rx="1.2" ry="3.6"/><ellipse cx="42.7" cy="27.9" rx="1.2" ry="3.6"/><ellipse cx="42.7" cy="37.7" rx="1.2" ry="3.6"/><ellipse cx="48" cy="11.9" rx="1.2" ry="3.6"/><ellipse cx="48" cy="21.6" rx="1.2" ry="3.6"/><ellipse cx="48" cy="31.4" rx="1.2" ry="3.6"/><ellipse cx="52.4" cy="18.2" rx="1.2" ry="3.6"/><ellipse cx="53.4" cy="27.9" rx="1.2" ry="3.6"/><ellipse cx="52.4" cy="37.7" rx="1.2" ry="3.6"/><ellipse cx="53.4" cy="47.4" rx="1.2" ry="3.6"/><ellipse cx="58.7" cy="31.7" rx="1.2" ry="3.6"/><ellipse cx="56.7" cy="22.2" rx="1.2" ry="3.6"/><ellipse cx="56.7" cy="41.1" rx="1.2" ry="3.6"/></g><path d="M49,59.9c0,2.8-34.1,2.8-34.1,0V36.8H49V59.9z" fill="#334037"/><g fill="#3f4f44"><path d="m19.8 47.3l-1.1 1.6 1.1 1.5 1.1-1.5z"/><path d="m32.2 47.3l-1.1 1.6 1.1 1.5 1.1-1.5z"/><path d="m44.6 47.3l-1.1 1.6 1.1 1.5 1.1-1.5z"/><path d="m19.8 38.2l-1.1 1.5 1.1 1.5 1.1-1.5z"/><path d="m32.2 38.2l-1.1 1.5 1.1 1.5 1.1-1.5z"/><path d="m44.6 38.2l-1.1 1.5 1.1 1.5 1.1-1.5z"/><path d="m19.8 56.5l-1.1 1.5 1.1 1.6 1.1-1.6z"/><path d="m32.2 56.5l-1.1 1.5 1.1 1.6 1.1-1.6z"/><path d="m44.6 56.5l-1.1 1.5 1.1 1.6 1.1-1.6z"/><path d="m38.4 51.9l-1.1 1.6 1.1 1.5 1.1-1.5z"/><path d="m26 51.9l-1.1 1.6 1.1 1.5 1.1-1.5z"/><path d="m38.4 42.8l-1.1 1.5 1.1 1.5 1.1-1.5z"/><path d="m26 42.8l-1.1 1.5 1.1 1.5 1.1-1.5z"/></g></svg>