<svg xmlns="http://www.w3.org/2000/svg" viewBox="0 0 64 64" enable-background="new 0 0 64 64"><path d="m58 49.2c0 7.1-11.7 12.8-26 12.8-14.4 0-26-5.7-26-12.8 0-7.1 11.6-12.8 26-12.8 14.3 0 26 5.7 26 12.8" fill="#94989b"/><path d="m62 44c0 8.6-13.4 15.7-30 15.7-16.6 0-30-7-30-15.7 0-8.6 13.4-15.7 30-15.7 16.6 0 30 7 30 15.7" fill="#c7d7d7"/><path d="m56.7 42.7c0 5.8-11.1 10.4-24.7 10.4-13.6 0-24.7-4.7-24.7-10.4 0-5.8 11.1-10.4 24.7-10.4 13.6-.1 24.7 4.6 24.7 10.4" fill="#94989b"/><path d="m50.2 50.5c-2.8.5-3.3 3.7-11.4 2.9-3.8-.4-6 .8-10.7 1.2s-29.9-4.4-19.7-15.9c10.1-11.5 48.4-6.2 48.8 1.2.4 7.5-4.8 10.2-7 10.6" fill="#d3976e"/><path d="m8.4 19.4c-.9.6.3.6.3.6s10.2-3.5 10.7-2.5c.5 1-10.3 4-10.1 5.2.2 1.2 11-3.4 11.2-2.4.3 1-9.8 4.8-9.8 4.8s-.8.8.2.7c13-1.6 17.1-5.5 17.1-5.5s.9-.7.6-1.6c0-.1 28.4-10.2 32.2-11.6 1.9-.7-.1-5.7-1.9-5-3.9 1.3-32.3 11.6-32.3 11.6-.3-.9-1.5-.9-1.5-.9s-5.7-.4-16.7 6.6" fill="#839391"/><g fill="#ffe299"><path d="m57.6 39.8c-.3-2.1-2.7-4-7.1-5.6-2.6-2.1-6.3-2.7-8.6-2.9-2.1-.1-4.2 0-6.2.4-.9.1-1.9-.9-2.7-.6-4.3-1.2-8.2 1-11 1-3 0-15 2-14.9 8.2-.5.6-3.1 2.7.9 4.3-1 1.1-1.2 2.2-1.1 2.9.2 1.6 1.5 3.1 4 4.3 3.7 1.8 6.9 2.4 9.4 2.4 3.7-.2 5.5 3.6 13.7 2.8l-1-2c-.1 0-3 0-6-2 .1 0 17.8-1.2 20-1.5 5-.5 8.6-4.6 9-6.5.3-1.4 1.8-4.1 1.6-5.2m-31.3-6c.3 0-5.9 2.6-9.3 4.2l.6-2.6c0 0 0 0 .1 0 2.4-.8 5.3-1.3 8.6-1.6m17.4 15.9c0 0-1.2-1.3-1.1-1.5 1.3-.2 2.5-.4 3.7-.7-.5 1-1.4 1.7-2.6 2.2m-.1 0c-.1 0-.1 0-.2.1 0 0 .1 0 .2-.1m-18.6-5.4c.4.1 8.7 2 11.8 2.5-1.8 1.2-7.8 2.2-11.8-2.5m-9 6.7c0 0-2.1-2.9-2-4 .7.6 3.1 1.3 4 1.5.1.2 1.6 2.9 2 3.5-2 0-4-1-4-1m1.1-7.2c0 .7 0 1.4.2 2.2-1.8-.4-3.3-1.1-4.3-2 1-.3 2.4-.4 4.1-.2m21.9-10.8c6 2 9.8 4.8 10 5-.2.4.2 1.6 0 2-.8-.4-7-5-11-6 .7-.1 1-1 1-1m9 11c.5-.4 3-3 3-3s1 0 2 0c.6 0-2.7 3.6-3 4-.3-.1-1.7-.9-2-1m-.9 4.2c.2-.3.3-.6.4-.9.5-.1 1-.3 1.5-.4.3.5.6.9 1 1.4-.8.4-1.8.8-2.9 1.2-.5.2-1 .3-1.4.5.5-.6 1.1-1.1 1.4-1.8m-35.2-8c-.3.4-.5.7-.6 1.1-.6-.1-1.2-.3-1.8-.5-.4-.2-.6-.3-.9-.5.8-.8 1.9-1.6 3.3-2.4v2.3m-.9 6.8c.1-.4.4-.8.9-1.2-.3 1.4.2 2.9 1.3 4.3-.1 0-.2-.1-.2-.1-1.5-1-2.1-2.2-2-3m8-3.2c.9.2 5.9 3 6.9 3.3-.9 0-4.9-.1-6.9-1.1-.2-.7-.2-1.4 0-2.2m21.3 4.6c-.1.4 0 .7.2 1 .4.6-.8.8-2.3 0-.5-.3-.7-.6-.8-.9.9.1 1.9 0 2.9-.1m11.5-1.2c-.2-.3-.5-.6-.8-1 .3-.1.6-.2.9-.4.5.1.8.3 1 .4-.2.3-.6.6-1.1 1m-30.3 3c-.7-.3-1-1-1.4-1.5 6.9-.7 15.1 1.9 15.9 2.3.1.1-10 1-14.5-.8m33.6-7.4c.9-2.8-3-5.7-3.1-5.8 1 0 5 2 3.1 5.8"/><path d="m13 35v-14.7c0-.4-.6-.7-1.2-.7s-1.2.3-1.2.7v15.7l2.4-1"/><path d="m16 42v-26.8c0-.4-.6-.7-1.2-.7s-1.2.3-1.2.7v26.8h2.4"/><path d="m18.9 26.9c.7 0 1.2-.3 1.2-.7v-12.8c0-.4-.6-.7-1.2-.7s-1.2.3-1.2.7v12.7c0 .5.6.8 1.2.8"/></g><path d="m15.2 41.1c1 2 2.5.8 3.2 3 .7 2.2 2.4-.2 3.9 1.1 1.5 1.3 5.5.6 7.2.9 1.7.3 1.9-.9 3.9-.3 2 .7 1.7-1.9 6.4-.2 1.5.6 1.1-1.7 3.6-1.1 2.5.6.7-1.9 3.8-1.7 3.1.2-2.4-6.3-5.1-5.5-2.7.8-6-4.5-10-4.5-8.3.2-18.3 5.8-16.9 8.3" fill="#ec6430"/><g fill="#8cc63e"><path d="m21.5 36.5l-.7 1.5.7 1.5.7-1.5z"/><path d="m24.5 34l-.5 1 .5 1 .5-1z"/><path d="m27.5 37l-.5 1 .5 1 .5-1z"/><path d="m28.5 32.5l-.7 1.5.7 1.5.7-1.5z"/><path d="m31.5 35.5l-.7 1.5.7 1.5.7-1.5z"/><path d="m34.5 33l-.5 1 .5 1 .5-1z"/><path d="m37.5 37l-.5 1 .5 1 .5-1z"/><path d="m40.5 36.5l-.7 1.5.7 1.5.7-1.5z"/><path d="m44.5 39l-.5 1 .5 1 .5-1z"/><path d="m34.5 39l-.5 1 .5 1 .5-1z"/><path d="m30.5 41l-.5 1 .5 1 .5-1z"/><path d="m24.5 39l-.5 1 .5 1 .5-1z"/><path d="m18.5 38l-.5 1 .5 1 .5-1z"/></g></svg>