<?xml version="1.0" encoding="utf-8"?>
<!-- Generator: Adobe Illustrator 25.2.3, SVG Export Plug-In . SVG Version: 6.00 Build 0)  -->
<svg version="1.1" id="Layer_2" xmlns="http://www.w3.org/2000/svg" xmlns:xlink="http://www.w3.org/1999/xlink" x="0px" y="0px"
	 viewBox="0 0 128 128" style="enable-background:new 0 0 128 128;" xml:space="preserve">
<path style="fill:#FF2A23;" d="M73.13,16.43c-0.58-0.58-17.72-0.37-17.72-0.37L16.14,59.68c0,0-1.37,12.84-0.11,18.22
	c0.71,3.03,2.16,8.48,6.56,14.95c3.01,4.43,5.37,6.35,5.37,6.35l23.44,10.13l39.19,4.03l22.95-14.89c0,0,1.71-6.84,1.1-11.84
	c-0.61-5.01-1.59-8.79-1.47-12.09c0.12-3.3,2.08-16.55-1.02-26.04c-2.74-8.38-10.82-19.99-20.95-25.97S73.13,16.43,73.13,16.43z"/>
<path style="fill:#DC0D27;" d="M67.15,116.99c5.55,1.35,16.32,6.28,20.96,6.99c4.8,0.73,11.63,0.8,18.87-4.69
	c6.46-4.9,9.44-9.88,9.8-14.1c0.51-5.91-0.52-11.14-0.84-13.64c-0.31-2.5-1.72-7.94-1.72-7.94s-4.01,8.88-9.02,13.05
	c-5.01,4.17-17.1,9.7-29.09,10.11c-11.99,0.42-20.02,0.73-28.47-1.36s-22.8-9.51-22.8-9.51s5.04,7.5,14.88,13.05
	c7.43,4.19,11.9,5.26,14.91,5.94C59.31,115.96,62.87,115.94,67.15,116.99z"/>
<path style="fill:#DC0D27;" d="M35.87,33.05c0,0-20.53,30.67-20.72,35.78c-0.21,5.84,1,9.32,1,9.32s4.17-0.15,8.24-2.77
	c1.89-1.21,3.31-2.42,3.31-2.42s5.79,8.11,7.66,8.21s6.85-3.5,9.04-6.1c2.19-2.61,3.65-7.41,3.65-7.41s3.38,1.53,10.47,1.32
	s9.27-0.84,9.79-1.36c0.52-0.52,1.22-3.81,1.84-6.42c0.63-2.61,0.69-6.33,0.69-7.9c0-1.56-0.44-3.94-0.44-3.94s5.59-2.65,8.2-5.16
	c2.61-2.5,3.86-3.75,4.28-4.59c0.42-0.83-1.15-4.9-2.92-7.61s-4.17-4.59-4.17-4.59s3.55-2.82,5.01-4.38s3.36-3.99,3.36-3.99
	s-3.04-1.33-6.69-2.16c-3.65-0.83-10.95-1.77-10.95-1.77L35.87,33.05z"/>
<path style="fill:#759937;" d="M19.32,52.84c-0.29,0.2-9.08,13.97-9.18,15.23c-0.1,1.27-0.31,3.31,1.07,4
	c0.98,0.49,1.76-0.39,2.44-0.98s2.05-1.46,3.61-2.25s4.24-1.32,6.15-2.44c2.83-1.66,5.37-5.66,5.37-5.66l6.93,9.96l-2.47,6.14
	c0,0,1.74,2.09,2.09,2.35c0.63,0.47,4.39-2.34,6.34-7.32s2.44-11.33,2.44-11.33s3.91,2.73,7.72,3.52c3.81,0.78,11.61,0.39,12.11-0.2
	c0.44-0.52,0.7-7.96,0.31-11.28c-0.39-3.32-2.22-7.71-2.22-7.71s3.96,0.63,8.65-0.64s8.2-4,8.4-5.08s-2.68-3.82-2.68-3.82
	l-11.58-4.09l-1.4-3.49c0,0,5.92-1.74,9.01-5.4c2.23-2.65,6.23-6.01,6.23-7.58s-2.52-1.21-2.52-1.21l-21.48,8.59L19.32,52.84z"/>
<path style="fill:#98B715;" d="M29.77,26.42c6.31-5.8,12.68-10.56,22.95-13.23c10.23-2.66,17.37-1.35,19.03-1.05
	c1.66,0.29,6.66,1.2,6.27,1.73c-0.17,0.23-3.82,1.96-7.44,4.3s-5.14,3.1-6.05,3.61c-1.36,0.76-3.32,1.81-3.24,3.03
	c0.12,1.66,2.36,1.76,4.8,3.03c2.44,1.27,5.47,3.22,7.72,5.18s3.38,2.74,3.69,3.51c0.34,0.84-7.01,4.79-11.99,4.69
	s-7.32-2.34-8.5-0.59c-1.17,1.76,2.54,6.15,3.52,11.04s0.98,9.77,0.98,9.77S54.03,62,50.57,60.75c-5.21-1.88-5.86-5.89-8.69-5.37
	c-3.83,0.7-0.41,7.29-3.1,15.16c-2.4,7.04-4.44,7.58-4.44,7.58s-3.31-3.41-4.49-5.27s-2.53-2.82-2.82-6.82
	c-0.29-4,0.2-9.08-1.76-9.28s-2.44,3.91-4.69,5.96s-5.66,3.13-7.23,4.39c-1.56,1.27-3.18,3.53-3.18,3.53s-1.12-6.75,1.91-15.83
	S20.1,35.31,29.77,26.42z"/>
<path style="fill:#98B715;" d="M17.95,7.09c0.25-0.93,4.52-3.52,6.57-3.42s1.64,0.68,1.93,1.46s-1.17,8.2,1.17,12.5
	c2.11,3.87,4,5.76,8.2,5.66s-5.27,12.4-5.27,12.4s-8.11-4.49-11.33-12.79S17.56,8.55,17.95,7.09z"/>
<path style="fill:#FFEBCA;" d="M101.21,85.18c-1.85,0.09-3.55,2.61-2.58,6.03c0.8,2.83,2.83,3.88,4.31,3.69
	c1.48-0.18,2.83-2.46,2.28-5.66C104.79,86.81,103.67,85.06,101.21,85.18z"/>
<path style="fill:#FFEBCA;" d="M98.75,57.07c-2.53,0.65-2.28,3.97-1.72,5.78c0.55,1.81,2.09,3.02,3.75,2.69s2.65-2.96,2.21-4.97
	C102.57,58.55,101.09,56.47,98.75,57.07z"/>
<path style="fill:#FFEBCA;" d="M85.4,33.62c-1.84,1.6-1.05,4.18,0.55,5.91c1.6,1.72,3.69,2.15,5.05,1.11s0.92-4.68-0.68-6.21
	C88.72,32.89,86.81,32.39,85.4,33.62z"/>
<path style="fill:#FFEBCA;" d="M76.46,54.55c-1.46,1.31-1.18,4.16,0.46,6.14c1.64,1.98,4.13,3.1,5.38,1.45
	c1.25-1.65,0.33-4.88-0.98-6.6C80,53.82,77.7,53.43,76.46,54.55z"/>
<path style="fill:#FFFEFF;" d="M76.48,58.39c1.65,0.99,3.85-2.49,2.18-3.66C76.86,53.46,74.41,57.15,76.48,58.39z"/>
<path style="fill:#FFEBCA;" d="M76.88,79.24c-1.35,1.68-0.29,4.13,0.95,5.61c1.43,1.7,4.7,2.77,6.19,1.32
	c1.73-1.68,0.95-4.6-1.29-6.62C81.04,78.03,78.24,77.53,76.88,79.24z"/>
<path style="fill:#FFEBCA;" d="M78.94,104.01c-0.58,2.09,0.3,4.04,4.18,4.68c3.38,0.55,5.11-1.05,5.05-2.77
	c-0.04-1.17-1.35-3.14-4.55-3.69C81.05,101.78,79.43,102.23,78.94,104.01z"/>
<path style="fill:#FFEBCA;" d="M52.85,95.83c-1.31,1.96,0.3,4.67,1.91,5.91c1.84,1.42,4.92,1.11,5.72-0.62
	c0.8-1.72-0.18-4.06-2.09-5.41C56.48,94.35,53.96,94.17,52.85,95.83z"/>
<path style="fill:#FFEBCA;" d="M31.87,83.83c-2.42,2.02-0.67,5.06,0.86,6.21c1.72,1.29,3.88,2.21,5.78,0.55s0.06-5.11-1.11-6.15
	C36.24,83.4,33.72,82.29,31.87,83.83z"/>
<path style="fill:#FFFFFE;" d="M33.6,83.88c-1.63-0.31-3.51,2.89-1.48,4.06C34.01,89.03,35.87,84.31,33.6,83.88z"/>
<path style="fill:#FFEBCA;" d="M55.68,74.23c-1.28,1.93-0.06,4.92,1.54,5.97s4.06,1.78,5.54-0.12c1.48-1.91,0.62-4.37-1.11-5.78
	C59.93,72.88,57.04,72.2,55.68,74.23z"/>
<path style="fill:#FFFFFF;" d="M57.9,73.74c-1.11-0.12-1.78,1.05-1.97,2.15c-0.18,1.11,0.12,2.21,1.29,2.46
	c1.17,0.25,1.85-1.48,1.91-2.15C59.19,75.52,59.07,73.86,57.9,73.74z"/>
</svg>
