<?xml version="1.0" encoding="utf-8"?>
<!-- Generator: Adobe Illustrator 25.2.3, SVG Export Plug-In . SVG Version: 6.00 Build 0)  -->
<svg version="1.1" id="Layer_2" xmlns="http://www.w3.org/2000/svg" xmlns:xlink="http://www.w3.org/1999/xlink" x="0px" y="0px"
	 viewBox="0 0 128 128" style="enable-background:new 0 0 128 128;" xml:space="preserve">
<path style="fill:#DDBCA8;" d="M33.16,39.69c0,0-5.83-8.61-9.8-10.08c-3.98-1.47-8.11-0.51-9.94-2.9c-1.85-2.42-2.81-6.55-2.22-9.2
	c0.59-2.65,2.1-4.66,3.42-4.95s4.82,1.56,4.82,1.56s-0.15-4.49,0.29-6.11c0.44-1.62,2.29-3.31,3.24-3.9
	c3.08-1.92,4.71-0.44,4.71-0.44s-1.18,10.31,2.65,14.87s19,20.32,16.05,20.47C43.44,39.15,33.16,39.69,33.16,39.69z"/>
<path style="fill:#FFEBCA;" d="M33.44,32.93c0,0-6.51-6.11-8.56-7.18c-2.05-1.07-6.31-0.52-7.8-1.3c-2.01-1.05-4.19-3.3-4.37-6.95
	s0.84-5.44,4.45-5.61c2.94-0.14,4.72,0.98,5.52,0.18c0.8-0.8,0.09-6.15,0.53-7.04c0.45-0.89,1.69-2.58,4.99-2.05s4.72,3.58,4.9,4.37
	c0.74,3.21,0.2,9.24,1.01,10.67c1.28,2.25,9.94,11.87,9.94,11.87S33.52,32.75,33.44,32.93z"/>
<path style="fill:#CF701E;" d="M33.18,30.72C19.12,40.64,14.37,54.39,14.87,64.6c0.43,8.78,3.55,13.51,8.66,17.74
	s8.3,5.41,10.42,8.27s5.09,14.69,11.69,20.91s27.68,18.76,52.24-3.26c25.28-22.67,17.5-45.41,8.16-53.88
	c-9.02-8.18-16.86-8.74-20.88-13.63c-4.61-5.6-2.86-7.87-10.34-13.99C66,19.54,50.49,18.52,33.18,30.72z"/>
<path style="fill:#FBD5B2;" d="M61.2,63.54c-14.82,11.9-25.02,36.47-7.22,47.95c13.33,8.59,32.35,2.11,43.18-7.92
	c8.47-7.84,19.16-28.63,9-40.97C97.12,51.62,77.02,50.84,61.2,63.54z"/>
<path style="fill:#AB5931;" d="M58.77,32.62c-0.95-0.95-2.46-0.87-3.69,0.58c-1.23,1.45-1.4,3.29-0.36,4.12
	c1.52,1.23,3.11-0.31,3.91-1.37C59.49,34.79,59.85,33.7,58.77,32.62z"/>
<path style="fill:#AB5931;" d="M31.43,44.41c-1.88-0.29-2.46,1.52-2.53,3.04c-0.07,1.52-0.29,3.26,1.74,3.4
	c2.03,0.14,2.46-1.95,2.46-3.33C33.09,46.14,33.29,44.69,31.43,44.41z"/>
<path style="fill:#AB5931;" d="M32,62.06c-1.81-0.08-2.39,1.45-2.31,3.69s0.8,3.62,2.03,3.54c1.23-0.07,1.9-1.45,2.03-3.33
	C33.89,63.79,33.74,62.13,32,62.06z"/>
<path style="fill:#AB5931;" d="M38.44,69.29c-1.09-0.78-2.68-0.22-3.26,2.03c-0.62,2.4,0.32,3.16,1.09,3.47
	c1.23,0.51,2.17-0.8,2.6-2.24C39.31,71.1,39.46,70.01,38.44,69.29z"/>
<path style="fill:#FF605E;" d="M81,60.52c-1.19-0.81-9.92,1.03-18.3,8.99S51.54,84.09,52.37,86.36s6.51,2.17,8.79,2.17
	s8.15-0.05,10.03-0.1c3.72-0.1,3.72,3.51-0.1,4.03c-3.09,0.42-11.58,0.72-14.99,1.96c-3,1.09-5.68,1.96-5.89,4.34
	c-0.21,2.38,3.51,8.27,9.72,10.44s13.54,1.55,14.88,0.52c1.34-1.03,2.27-8.37,2.48-11.78c0.21-3.41,0.1-8.27,2.69-8.27
	s1.86,6.1,1.96,8.58c0.1,2.48-0.1,6.82,1.24,7.86c1.34,1.03,6.69-1.63,11.37-6.31c4.24-4.24,7.65-8.79,6.41-10.34
	c-1.24-1.55-11.47-1.76-13.95-1.65c-2.48,0.1-2.89-4.13,0.62-4.24c3.51-0.1,11.99,0.62,14.68-0.83c2.69-1.45,5.99-8.06,1.45-15.5
	s-9.82-7.65-12.09-7.44c-2.27,0.21-3.31,6.2-4.13,9.1c-0.83,2.89-1.65,8.27-1.96,9.51c-0.31,1.24-3,2.27-3.2-0.41
	c-0.21-2.69,0.21-7.44,0.31-10.13S82.96,61.87,81,60.52z"/>
<path style="fill:#DFBBAA;" d="M86.89,91.53c0,0-8.06-6.93-8.68-6.1c-0.62,0.83-1.86,2.27-2.07,4.55c-0.21,2.27,0.55,2.98,0.55,2.98
	s7.51,9.94,9.16,11.8c1.65,1.86,3.99,5.3,4.2,6.95c0.21,1.65-0.6,7.16,0.14,8.87c0.93,2.17,2.77,3.61,5.56,4.14
	c1.41,0.27,6.49-0.07,7.84-1.42s1.93-3.84,1.93-5.08c0-1.24-0.58-2.14,0.76-2.76c1.34-0.62,5.32-0.14,7.18-1.17
	c1.86-1.03,3.31-3.25,3.21-5.84c-0.1-2.58-3.74-4.33-4.05-4.33S86.89,91.53,86.89,91.53z"/>
<path style="fill:#FFEBCA;" d="M87.92,81.85c-0.45-0.31-0.71-0.42-1.05-0.45c-1.48-0.12-3.4,0.01-5.58,1.38
	c-2.29,1.43-3.87,3.69-3.87,3.69s12.67,15.6,13.81,17.26c1.14,1.65,3.2,4.34,3.2,5.68s-0.78,6.84-0.31,8.06
	c0.72,1.86,3.41,4.44,5.89,4.44c3.52,0,4.89-1.92,5.41-3.27s0.49-5.42,1.31-7.48c1.03-2.58,9.39-0.36,9.91-2.01
	c0.52-1.65,1.27-6.12-2.36-8.22c-2.69-1.55-9.41-0.72-9.41-0.72S89.24,82.74,87.92,81.85z"/>
</svg>
