<svg xmlns="http://www.w3.org/2000/svg" viewBox="0 0 64 64" enable-background="new 0 0 64 64"><path d="m28.4 35.6c-4.5-4.5-10.5 7-15.1 7.6-2.1.3-6.2-2.2-9.6 1.1-2.3 2.3-2.3 6.1 0 8.4 1.6 1.6 3.9 2.1 6 1.5-.6 2-.2 4.4 1.5 6 2.3 2.3 6.1 2.3 8.4 0 3.3-3.3.9-7.5 1.1-9.6.6-4.5 12.2-10.5 7.7-15" fill="#ddd"/><path d="m22.9 46.9l1-1.1 1.9-6.7-7.6.9-1.2 1.2 2.9.7c-1.8 2.3-3 4.3-3 4.3s3.3.1 5.6-.4l.4 1.1" opacity=".15"/><g fill="#fff"><path d="m11.5 58.7c-.6-3 .6-5.9 2.8-7.6-.1 0-.1 0-.2 0-2.5.5-4.1 3-3.6 5.6.2.9.6 1.6 1.1 2.3 0-.1 0-.2-.1-.3" opacity=".4"/><path d="m3.8 49.8c-.4-2.2.4-4.2 2-5.5 0 0-.1 0-.1 0-1.8.3-3 2.2-2.6 4 .1.7.4 1.3.8 1.7 0 0 0-.1-.1-.2" opacity=".4"/></g><path d="m54.5 35.4c20.5-20.5-5.4-46.4-25.9-25.9-8.2 8.2-6.7 18.2-8.3 26-.6 2.8-3 4.8-3 4.8s1.7.6 3.6 1c-1.6 2-2.7 3.7-2.7 3.7s2.4.2 4.9-.3c.3 1.2.6 2 .6 2s2.1-2.5 4.8-3c7.8-1.6 17.7 0 26-8.3" fill="#a8693f"/><g fill="#c28d69"><path transform="matrix(.7074-.7068.7068.7074-.961 34.6969)" d="m40.7 17.8h1.5v1.5h-1.5z"/><path transform="matrix(.7074-.7068.7068.7074 3.7484 36.3218)" d="m45 12.9h1.5v1.5h-1.5z"/><path transform="matrix(.7071-.7071.7071.7071-5.3803 33.1712)" d="m36.6 22.3h1.5v1.5h-1.5z"/><path transform="matrix(.7068-.7074.7074.7068-10.2532 31.1707)" d="m31.7 27.2h1.5v1.5h-1.5z"/><path transform="matrix(.7073-.7069.7069.7073 3.0984 26.9566)" d="m33.4 9h1.5v1.5h-1.5z"/><path transform="matrix(.7071-.7071.7071.7071-1.5101 25.3087)" d="m29.1 13.7h1.5v1.5h-1.5z"/><path transform="matrix(.7068-.7074.7074.7068-6.5542 24.7174)" d="m25.8 19.5h1.5v1.5h-1.5z"/><path transform="matrix(.7069-.7073.7073.7069 7.3234 29.5868)" d="m38.6 5.2h1.5v1.5h-1.5z"/><path transform="matrix(.7071-.7071.7071.7071-1.1374 29.8877)" d="m34.8 15.6h1.5v1.5h-1.5z"/><path transform="matrix(.7073-.7069.7069.7073 4.2855 32.5232)" d="m40.4 10h2.1v2.1h-2.1z"/><path transform="matrix(.7074-.7068.7068.7074-11.1857 26.3239)" d="m25.5 25.9h1.5v1.5h-1.5z"/><path transform="matrix(.7073-.7069.7069.7073-6.4897 28.8897)" d="m30.6 21.2h2.1v2.1h-2.1z"/><path transform="matrix(.7076-.7066.7066.7076 8.9808 34.6762)" d="m45.6 5.7h1.5v1.5h-1.5z"/></g></svg>