<svg xmlns="http://www.w3.org/2000/svg" viewBox="0 0 64 64" enable-background="new 0 0 64 64"><path d="m24.5 42.5c-2 .3-4 .7-5.9 1-2.4-13.9-2.4-28.1 0-42.1 2 .4 3.9.7 5.9 1.1-2.4 13.3-2.4 26.8 0 40" fill="#ffc800"/><path d="m30 42.5c2-.3 4-.6 5.9-.9-4-11.6-6-24.2-5.7-37.2-2 .7-4.1 1.5-6.1 2.3 0 12.5 2.1 24.6 5.9 35.8" fill="#ffd41f"/><g fill="#ffe62e"><path d="m16.4 39.5c2-.3 3.9-.7 5.9-1-3.8-11.2-5.8-23.4-5.4-35.9-2.1 1-4.2 2-6.2 3.1.1 11.8 2.1 23.2 5.7 33.8"/><path d="m39.9 42c1.9-.3 3.8-.7 5.7-1 1-11.6 4.1-22.4 8.8-32-2.2-.1-4.4-.1-6.6-.2-4.5 10.2-7.2 21.4-7.9 33.2"/><path d="m13.3 40.4c1.7-.3 3.4-.6 5-.9-4.9-7.2-8.7-15.9-10.7-25.6-1.9 1.3-3.8 2.7-5.6 4.1 2.6 8.5 6.5 16 11.3 22.4"/><path d="m45.4 38.5c1.9-.3 3.7-.6 5.6-1 2.2-9.9 6-18.8 11-26.3-1.7-1-3.4-2.1-5.1-3.2-5.5 8.7-9.5 19-11.5 30.5"/><path d="m38.4 42.5c-2 .3-4 .7-5.9 1-2.3-13.3-2.3-26.9 0-40.1 2 .4 3.9.7 5.9 1.1-2.2 12.6-2.2 25.4 0 38"/></g><path d="m48.6 39.5c-2 .3-4 .7-5.9 1-2.1-11.9-2.1-24 0-35.9 1.9.9 3.8 1.9 5.6 2.7-1.6 10.8-1.5 21.6.3 32.2" fill="#ffc800"/><path d="m25.8 41.5c-2-.4-3.9-.8-5.9-1.1 2-10.3 2-20.9 0-31.3 2.2 1.1 4.5 2.2 6.7 3.5 1.3 9.6 1 19.3-.8 28.9" fill="#ffe62e"/><g fill="#ffc800"><path d="m18.1 40.5c-1.9-.4-3.8-.7-5.7-1.1-1.2-11.8-4.8-22.7-10.1-32 2.4-.1 4.7-.3 7-.4 4.9 10 8.1 21.3 8.8 33.5"/><path d="m39.4 39.4c-1.5-.3-2.9-.6-4.4-.8 7.4-7.1 13.7-16.7 17.5-28.3 1.8 1.3 3.5 2.6 5.2 4.1-4.6 10.1-11.1 18.6-18.3 25"/></g><g fill="#ffd41f"><path d="m40.6 38.1c-2 .3-3.9.7-5.9 1-.4-10.2.9-20.2 3.9-29.6 1.6 1.5 3.2 2.9 4.9 4.2-2.2 7.8-3.2 16-2.9 24.4"/><path d="m21.8 35.6c-1.9.3-3.9.7-5.8 1-3.6-6.6-6.1-14.2-7.1-22.4 2.1.7 4.2 1.3 6.3 1.9 1 7.2 3.4 13.8 6.6 19.5"/></g><path d="m29.9 44c-1.9-.5-3.8-1-5.8-1.6-.8-7.5-.4-14.9 1.1-22.2 1.4 1.4 2.9 2.7 4.4 3.9-.8 6.6-.8 13.3.3 19.9" fill="#ffc800"/><path d="m53.6 40c-1.7.3-3.5.6-5.2.9 1.7-8.8 5.1-16.8 9.5-23.4 1.3 1.4 2.6 2.7 4 3.9-3.7 5.4-6.6 11.6-8.3 18.6" fill="#ffd41f"/><g fill="#ffe62e"><path d="m40.2 41.6c-2-.3-4-.6-5.9-.9 3.5-7.2 5.7-15.4 6.1-24.1 2.1 1.2 4.1 2.6 6.1 4.1-1 7.5-3.2 14.6-6.3 20.9"/><path d="m50.7 37.5c-1.4-.2-2.8-.3-4.1-.5 2.7-5.7 4.3-12.2 4.5-19.1 1.4 1 2.9 2 4.3 3.2-.7 5.9-2.4 11.4-4.7 16.4"/></g><path d="m46.6 27.9c0 5.4-6.6 9.7-14.6 9.7-8.1 0-14.6-4.3-14.6-9.7h-13.2l4.5 30.1c8.7 6 37.8 6 46.4 0l4.5-30.1c.1 0-13 0-13 0" fill="#ef4d3c"/><g fill="#ab2d1f"><path d="m33.1 55.7l-.6.3c-.1-.1-.2-.2-.3-.2h-.4c-.1 0-.3.1-.3.2l-.6-.3-1.5-.8v1.7 1.7l1.5-.8.6-.3c.1.1.2.2.3.2h.4c.1 0 .3-.1.3-.2l.6.3 1.5.8v-1.7-1.7l-1.5.8"/><path d="m29.7 51c.2.4.6.7 1 .9.4.2.8.3 1.3.3.4 0 .9-.1 1.3-.3.4-.2.7-.5 1-.8.1.4-.2.9-.6 1.3-.4.3-1 .6-1.7.6-.6 0-1.2-.2-1.7-.6-.4-.5-.7-1-.6-1.4"/><path d="m38.4 46.5v-.1c0-.1 0-.1-.1-.1-.1 0-.2-.1-.3-.1-.1 0-.1 0-.2-.1-1-2.3-3.2-3.9-5.9-3.9-2.6 0-4.9 1.6-5.9 3.9-.1 0-.2 0-.2.1-.1 0-.2.1-.3.1-.1 0-.1 0-.1.1v.1c0 .2 0 .1.1.2.1 0 .1.1.1.1-.2.5-.2 1.1-.2 1.7 0 3.5 2.9 6.4 6.4 6.4 3.5 0 6.4-2.9 6.4-6.4 0-.6-.1-1.2-.2-1.7 0 0 .1-.1.1-.1.3 0 .3.1.3-.2m-6.4-3.5c2.2 0 4 1.2 5 3-.8-.1-1.6-.1-2.1 0-.8.1-1.5.2-2 .5-.5.3-1.3.3-1.8 0-.5-.3-1.2-.5-2-.5-.5 0-1.3-.1-2.1 0 .9-1.8 2.8-3 5-3m0 11.3c-3.1 0-5.6-2.5-5.6-5.6 0 0 0-.1 0-.1.2.8.6 1.2 1.3 1.5.7.3 1.5.3 2.2 0 .4-.2.7-.4 1-.8.5-.7.3-1.1.6-1.7.2-.5.8-.5 1 0 .2.6.1 1 .6 1.7.3.4.6.6 1 .8.7.3 1.5.3 2.2 0 .7-.3 1.1-.7 1.3-1.5 0 0 0 .1 0 .1 0 3-2.5 5.6-5.6 5.6"/></g></svg>