<svg xmlns="http://www.w3.org/2000/svg" viewBox="0 0 64 64" enable-background="new 0 0 64 64"><path d="m33 16l-27.5 6.6c0 0-3.5 6.2-3.5 12.6 0 4.3.9 7.7 4.4 11.4 3.5 3.7 3.1 3.5 3.5 5.3.3 1.9 3.2 10.1 22.3 10.1 19.1 0 22.3-8.2 22.3-10.1 0-2.4 1.3-3 4.8-6.7l-26.3-29.2" fill="#8f6453"/><path d="m55.5 12.5c-2-1.2-.7-1.2-1.2-4.2-.5-2.9-5.8-6.3-22.1-6.3-16.2 0-21.6 3.3-22.1 6.2-.5 3 .7 2.9-1.2 4.2-1.9 1.4-6.1 10.5-4.1 12.3 2.3 2.1 5.5-3.2 10.1-3.2 3.2 0 3.6 6.6 6.2 6.6 2.6 0 11.2-6.6 13.2-6.6 7.4 0 5.8 13.4 12.3 13.4 5 0 9.6 16 12.9 12.1 5.2-6.2 1.5-31.1-4-34.5" fill="#ffce31"/><path d="m53.9 11.9c0 .5-9.4 5.1-21.7 5.1-12.3 0-21.7-4.5-21.7-5.1s9.4 3.4 21.7 3.4c12.3 0 21.7-4 21.7-3.4" fill="#e3a300"/><path d="m54.6 49.5c0 .5-8 6.3-22.4 6.3-14.4 0-22.4-5.8-22.4-6.3 0-.5 8 4.4 22.4 4.4 14.4 0 22.4-4.9 22.4-4.4" fill="#724e41"/><path d="m47.3 7.9c1.1-.4 1.7-.9 1.7-1.3 0-1.7-7.5-3.1-16.8-3.1s-16.8 1.4-16.8 3.1c0 .5.6.9 1.7 1.3 2.7-1 8.5-1.7 15.1-1.7s12.4.7 15.1 1.7" fill="#e3a300"/><path d="m47.3 7.9c-2.7-1-8.5-1.7-15.1-1.7-6.7 0-12.4.7-15.1 1.7 2.7 1 8.5 1.7 15.1 1.7s12.4-.7 15.1-1.7" fill="#bd8800"/></svg>