<?xml version="1.0" encoding="utf-8"?>
<!-- Generator: Adobe Illustrator 25.2.3, SVG Export Plug-In . SVG Version: 6.00 Build 0)  -->
<svg version="1.1" id="Layer_3" xmlns="http://www.w3.org/2000/svg" xmlns:xlink="http://www.w3.org/1999/xlink" x="0px" y="0px"
	 viewBox="0 0 128 128" style="enable-background:new 0 0 128 128;" xml:space="preserve">
<path style="fill:#50352F;" d="M9.15,43.27c0,0-2.61,1.43-3.65,2.61c-1.04,1.17-1.77,2.21-1.56,3.65
	c0.39,2.74,9.9,10.03,16.42,16.55c5.54,5.54,17.33,15.77,17.33,15.77l5.6-5.73l-9.64-12.38L9.15,43.27z"/>
<path style="fill:#865C50;" d="M79.9,37.54c0,0-10.04-10.47-16.3-16.95C58.98,15.81,49.78,5.47,48.81,4.82s-3.56-1.19-5.07,0.32
	C42.22,6.66,32.29,17.46,28.4,21.56S5.54,45.86,5.54,45.86s2.02-1.2,3.97,0.74c1.35,1.35,31.31,30.66,31.31,30.66l27.42-10.8
	L79.9,37.54z"/>
<g>
	<path style="fill:#50352F;" d="M46.65,73.75L17.71,46c-0.5-0.48-0.51-1.27-0.04-1.76l28.4-29.8c0.23-0.25,0.56-0.38,0.89-0.39
		c0.36,0.01,0.66,0.13,0.9,0.37L75.5,42.49l-1.78,1.75L46.99,17.09L20.34,45.06l28.04,26.88L46.65,73.75z"/>
</g>
<g>
	
		<rect x="45.49" y="24.89" transform="matrix(0.7057 -0.7085 0.7085 0.7057 -16.707 45.769)" style="fill:#50352F;" width="2.5" height="36.21"/>
</g>
<g>
	
		<rect x="22.77" y="39.11" transform="matrix(0.6863 -0.7273 0.7273 0.6863 -15.8262 44.0198)" style="fill:#50352F;" width="40.69" height="2.5"/>
</g>
<g>
	
		<rect x="33.44" y="49.61" transform="matrix(0.6779 -0.7351 0.7351 0.6779 -20.2507 55.4921)" style="fill:#50352F;" width="39.53" height="2.5"/>
</g>
<path style="fill:#DC0D28;" d="M48.44,80.65l-0.71,7.01c0,0,10.37,10.67,14.33,14.74c3.96,4.07,17.79,16.27,17.79,16.27
	s6.81-3.15,7.01-3.86c0.2-0.71,34.87-37.41,34.87-37.41s-12.71-12.81-17.28-17.38c-4.57-4.57-14.54-15.96-14.54-15.96L48.44,80.65z"
	/>
<path style="fill:#B0091B;" d="M90.22,52.59c0,0,2.95,5.29,3.46,6.4c0.51,1.12,1.29,3,0.01,3.52c-1.73,0.71-15.66,3.74-15.66,3.74
	s-0.3,14.19-1.78,15.66c-1.63,1.63-24.34,3.7-25.07,3.81c-1.42,0.2-0.2,1.42,0.61,2.34c0.81,0.91,29.68,28.57,29.68,28.57
	l-1.42,5.79l-2.95-2.44c0,0-8.7-8.45-17.95-17.5S41.83,85.22,41.83,85.22l43-36.09L90.22,52.59z"/>
<path style="fill:#B0B3AF;" d="M83.89,115.96l-2.85,0.3l-3.94,3.73c0,0,2.97,3.79,4.61,3.97s19.27-19.18,24.64-24.46
	c5.36-5.27,18.32-18.6,18.32-19.09c0-1.09-2.93-3.02-2.93-3.02L83.89,115.96z"/>
<path style="fill:#E4E0E8;" d="M83.58,118.72c0.27-0.64,39.83-40.04,39.83-40.04l-2.46-2.1l-39.91,39.68L83.58,118.72z"/>
<path style="fill:#E0E0E0;" d="M66,45.99l8.38-3.58c0,0,4.3-5.59,4.81-6.1c0.51-0.51,6.63-0.94,6.63-0.94l5.14,4.24
	c0,0,1.21,4.76,1.42,5.79c0.2,1.02,2.21,8.52,1.41,10.71c-0.73,2-16.05,5.48-17.62,5.92c-0.91,0.26-0.69,0.96-0.87,2.46
	c-0.11,0.92-0.46,11.75-1.38,12.87c-0.92,1.12-9.95,2.65-13.12,3.27c-1.78,0.35-13.36,2.3-13.36,2.3l-2.99,4.34
	c0,0,0.31,1.63-0.72,2.15c-1.02,0.51-3.8-0.82-4.31-1.43c-0.51-0.61-4.14-7.06-3.73-7.98c0.41-0.92,4.33-6.45,5.04-6.86
	c0.72-0.41,6.17-1.71,6.17-1.71s5.19-13.74,6.35-14.82c0.69-0.64,10.1-4.69,10.1-4.69L66,45.99z"/>
<path style="fill:#FFFFFF;" d="M68.25,48.8c-0.7,0.04-2.09,7.76-1.89,8.26c0.21,0.49,14.29,0.25,14.42-0.9
	C80.9,55,70.41,48.67,68.25,48.8z"/>
<path style="fill:#FFFFFF;" d="M88.68,42.79c0.33,0.9-3.04,3.98-3.29,4.03s-7.38-1.87-7.6-3.41c-0.21-1.44,4.05-1.23,5.86-1.23
	C85.47,42.17,88.48,42.24,88.68,42.79z"/>
<path style="fill:#FFFFFF;" d="M55,60.58c-1.45-0.69-4.65,8.24-5.09,9.37c-0.53,1.36,2.48,1.89,4.23,2.04
	c2.56,0.21,11.24,0.64,11.43-0.08C65.89,70.63,56.97,61.52,55,60.58z"/>
<path style="fill:#FFFFFF;" d="M41.81,75.9c-1.31,0.58,2.27,11.37,2.6,11.37s3.03-4.39,3.03-4.39S43.18,75.3,41.81,75.9z"/>
</svg>
