<?xml version="1.0" encoding="utf-8"?>
<!-- Generator: Adobe Illustrator 25.2.3, SVG Export Plug-In . SVG Version: 6.00 Build 0)  -->
<svg version="1.1" id="Layer_2" xmlns="http://www.w3.org/2000/svg" xmlns:xlink="http://www.w3.org/1999/xlink" x="0px" y="0px"
	 viewBox="0 0 128 128" style="enable-background:new 0 0 128 128;" xml:space="preserve">
<path style="fill:#F3C975;" d="M92.78,99.16l24.51,24.99c0,0,3.54,0.94,5.66-1.41c2.12-2.36,1.89-4.71,1.89-4.71L94.66,86.43
	L92.78,99.16z"/>
<path style="fill:#919F50;" d="M69.06,67.05c-8.9,8.57-13.84,21.41-4.12,33.11c8.83,10.63,26.11,6.63,33.85-1.77
	s11.95-19.65,2.93-30.8C92.39,56.08,77.05,59.35,69.06,67.05z"/>
<path style="fill:#FFFFFE;" d="M71.89,94.44c3.11-1.29,1.57-5.29,1.07-8.91c-0.49-3.62-0.03-6.87-2.67-6.7
	c-2.64,0.16-4.69,2.75-4.28,8.4C66.34,91.84,69.45,95.45,71.89,94.44z"/>
<path style="fill:#FFEBCC;" d="M41.29,38.64c-8.04,7.3-14.42,21.05-4.97,32.55c11.35,13.8,26.37,10.13,36.64-0.26
	s7.96-24.8-1.07-32.96S49.39,31.29,41.29,38.64z"/>
<path style="fill:#FFFFFE;" d="M42.07,49.95c-3.89,0.73-4.5,5.81-4.09,8.96c0.41,3.15,2.01,6.99,5.58,6.95s1.71-3.84,1.32-8.32
	S46.15,49.18,42.07,49.95z"/>
<path style="fill:#FFA8A7;" d="M44.75,44.33c5.94-6.56,13.22-20.11,0.94-32.09C33.77,0.6,19.73,7.25,12.47,14.39
	c-6.93,6.8-11.13,22.39-0.62,32.04S37.69,52.12,44.75,44.33z"/>
<path style="fill:#FFFFFF;" d="M14.87,21.73c-3.79,0.65-4.71,4.76-4.42,8.3c0.31,3.71,3.01,6.74,5.62,6.33
	c3.43-0.53,1.77-3.43,1.39-8.25C17.18,24.29,18.58,21.09,14.87,21.73z"/>
<path style="fill:#F8C972;" d="M4.05,4.25c-1.57,1.26,6.93,13.36,6.93,13.36s2.6-0.37,4.33-1.98s2.23-4.58,2.23-4.58
	S5.91,2.76,4.05,4.25z"/>
</svg>
