<?xml version="1.0" encoding="utf-8"?>
<!-- Generator: Adobe Illustrator 25.2.3, SVG Export Plug-In . SVG Version: 6.00 Build 0)  -->
<svg version="1.1" id="Layer_3" xmlns="http://www.w3.org/2000/svg" xmlns:xlink="http://www.w3.org/1999/xlink" x="0px" y="0px"
	 viewBox="0 0 128 128" style="enable-background:new 0 0 128 128;" xml:space="preserve">
<path style="opacity:0.5;fill:#FFFFFF;" d="M108.69,45.31c-5.59-3.45-12.96-2.82-16.36-2.24v-3.96c0,0,2.36-0.87,2.11-3.72
	c-0.25-2.85-6.82-3.1-6.82-3.1l-59.75-0.12c0,0-3.1,0.5-3.1,3.35S27,38.86,27,38.86s-0.74,58.51-0.99,60.12
	c-0.25,1.61-1.98,8.06-2.48,10.16c-0.5,2.11,0,3.47,1.61,4.83c1.61,1.36,11.78,9.67,33.72,10.29c21.44,0.61,31.36-7.56,33.34-9.3
	c1.22-1.06,1.98-3.1,1.61-4.59s-1.36-9.05-1.36-9.05l-0.1-4.32c1.64-0.13,3.69-0.41,5.55-1.01c6.2-1.98,13.55-7.5,15.99-14.01
	C117.25,73.08,119.61,52.06,108.69,45.31z M101.13,81.63c-3,3.06-6.59,3.6-8.8,3.7V54.54c2.26-0.43,6.58-1.02,9.17,0.07
	c2.36,0.99,3.72,2.6,4.46,6.2C106.4,62.88,107.21,75.43,101.13,81.63z"/>
<path style="opacity:0.7;fill:#E0E0E0;" d="M108.69,45.31c-5.59-3.45-12.96-2.82-16.36-2.24v-3.96c0,0,2.36-0.87,2.11-3.72
	c-0.25-2.85-6.82-3.1-6.82-3.1l-59.75-0.12c0,0-3.1,0.5-3.1,3.35S27,38.86,27,38.86s-0.74,58.51-0.99,60.12
	c-0.25,1.61-1.98,8.06-2.48,10.16c-0.5,2.11,0,3.47,1.61,4.83c1.61,1.36,11.78,9.67,33.72,10.29c21.44,0.61,31.36-7.56,33.34-9.3
	c1.22-1.06,1.98-3.1,1.61-4.59s-1.36-9.05-1.36-9.05l-0.1-4.32c1.64-0.13,3.69-0.41,5.55-1.01c6.2-1.98,13.55-7.5,15.99-14.01
	C117.25,73.08,119.61,52.06,108.69,45.31z M101.13,81.63c-3,3.06-6.59,3.6-8.8,3.7V54.54c2.26-0.43,6.58-1.02,9.17,0.07
	c2.36,0.99,3.72,2.6,4.46,6.2C106.4,62.88,107.21,75.43,101.13,81.63z"/>
<polygon style="fill:#FFFFFF;" points="28.84,94.82 28.38,107.77 34.74,114.13 36.79,115.49 36.87,103.98 32.62,100.35 "/>
<path style="fill:#D5D5D5;" d="M26.49,109.36c0.08,0.53,5.15,5.91,15.15,9.24s22.27,3.48,33.7,0.83s15.75-9.47,15.75-9.47
	s0.23-1.44-1.06-2.04s-4.39-0.68-6.44,1.44c-2.01,2.08-2.2,5.38-2.2,5.38s-2.2-4.24-7.5-3.18c-5.51,1.1-7.27,6.67-7.27,6.67
	s-2.27-4.77-7.73-4.85c-5.45-0.08-8.48,5.6-8.48,5.6s0.91-6.51-5.83-8.33c-6.38-1.72-8.94,3.56-8.94,3.56s-0.27-5.2-3.26-6.97
	C28.31,104.81,26.49,109.36,26.49,109.36z"/>
<polygon style="fill:#EBC990;" points="29.63,34.02 29.53,43.88 29.5,47.65 66.27,69.9 88.88,45.04 88.9,34.43 "/>
<path style="fill:#9D9D9C;" d="M29.95,92.34c0,0-1.93,0.11-1.48,2.63c0.27,1.46,5.84,16.94,31.02,16.71
	c24.26-0.22,29.69-15.34,29.87-16.71c0.34-2.63-2.98-1.72-2.98-1.72L29.95,92.34z"/>
<radialGradient id="SVGID_1_" cx="60.3293" cy="13.4613" r="96.2252" gradientTransform="matrix(-0.0172 0.9999 -0.7492 -0.0129 71.452 -46.6856)" gradientUnits="userSpaceOnUse">
	<stop  offset="0.5939" style="stop-color:#DB8116"/>
	<stop  offset="0.8962" style="stop-color:#FDB408"/>
</radialGradient>
<path style="fill:url(#SVGID_1_);" d="M58.92,50.57c-18.2,0.57-29.41-6.18-29.41-6.18s-0.31,43.57-0.23,46.24
	c0.11,3.89,4.92,19.46,29.76,19.23c24.84-0.23,29.99-15.68,29.99-19.69c0-2.18-0.11-45.78-0.11-45.78S81,49.87,58.92,50.57z"/>
<path style="fill:#FFFFFF;" d="M91.73,47.06c0.24,2.87,4.54,0.98,8.79,1.07c4.65,0.1,7.45,2.04,7.69-0.64
	c0.24-2.72-4.55-3.41-8.39-3.61C97.18,43.74,91.5,44.29,91.73,47.06z"/>
<path style="fill:#9E9E9E;" d="M92.1,52.42c-0.62,0.67-0.11,4.21,0.21,4.45c0.59,0.46,4.22-1.69,8.04-0.42
	c6.22,2.06,5.46,6.18,5.83,6.1c0.39-0.08,1.37-6.94-3.85-9.77C98.4,50.66,92.72,51.75,92.1,52.42z"/>
<path style="fill:#FFFFFF;" d="M92.66,87.07c-0.73,0.64-0.41,2.99,2,2.95c2.72-0.05,6.53-0.91,9.66-4.62
	c2.23-2.64,2.72-7.44,1.86-7.44s-2.45,4.9-6.85,7.21C95.29,87.29,93.43,86.39,92.66,87.07z"/>
<path style="fill:#9E9E9E;" d="M92.17,93.56l0.2,4.66c0,0,7.47,0.42,14.98-5.62c9.2-7.39,9.07-21.6,9.03-21.62
	c-0.1-0.05-2.95,12.44-10.98,18.22C98.92,93.87,92.17,93.56,92.17,93.56z"/>
<path style="fill:#FFE265;" d="M62.69,61.89c-1.03,1.64-0.59,3.25,0.23,3.72c1.01,0.58,2.55-0.09,3.29-1.62
	c0.65-1.34,0.65-2.81-0.57-3.38C64.68,60.16,63.59,60.45,62.69,61.89z"/>
<path style="fill:#FFE265;" d="M54.35,71.93c-1.07,0.85-0.65,2.16,0.06,3.09c0.76,1,2.21,1.42,3.01,0.71
	c0.77-0.69,0.71-2.13-0.11-3.18C56.62,71.68,55.32,71.16,54.35,71.93z"/>
<path style="fill:#FFE265;" d="M53.11,81.31c-1.99,0.06-2.21,2.01-2.07,2.84c0.1,0.57,0.62,1.81,2.5,1.76s2.1-2.04,1.99-2.75
	C55.4,82.45,54.87,81.26,53.11,81.31z"/>
<path style="fill:#FFE265;" d="M59.4,82.79c-0.97,0.03-1.88,0.92-1.62,2.35c0.26,1.39,1.19,1.73,1.99,1.62
	c0.76-0.11,1.56-0.85,1.45-2.13C61.1,83.36,60.25,82.76,59.4,82.79z"/>
<path style="fill:#FFE265;" d="M63.5,89.76c-1.18,0-1.95,1.26-1.91,2.68c0.04,1.42,0.92,3.16,2.64,2.96
	c1.22-0.14,1.87-2.15,1.58-3.33C65.53,90.89,64.72,89.76,63.5,89.76z"/>
<path style="fill:#FFE265;" d="M56.59,96.33c-1.34,0.4-0.91,2.7-0.73,3.25c0.24,0.73,0.89,2.11,2.36,1.79s1.18-2.27,0.65-3.49
	C58.45,96.91,57.81,95.97,56.59,96.33z"/>
<path style="fill:#FADFB1;" d="M29.79,22.76c-0.32,0.32-6.26,1.11-6.1,6.5c0.16,5.39,5.95,7.21,8.24,8.01
	c2.3,0.79,7.37,1.66,8.88,6.66c1.51,4.99,1.75,7.35,4.12,8.01c2.85,0.79,4.77-3.32,6.18-5.63c1.51-2.46,2.93-4.6,5.31-4.91
	s16.09,0,24.02-1.98c7.93-1.98,14.37-6.49,14.03-13.08C94,17.21,81.4,18.16,81.4,18.16S76.44,5.73,63.16,4.13
	c-16.41-1.98-20.13,8.32-20.13,8.32s-6.06-1.62-10.54,2.46C28.82,18.25,29.79,22.76,29.79,22.76z"/>
<path style="fill:#FFFFFF;" d="M44.69,17.13c-0.77,0.5-5.49-2.81-9.08,0.92c-3.03,3.16-0.75,6.13-1.7,7.32
	c-1.3,1.62-5.93,0.99-5.61,4.39c0.32,3.41,4.97,3.76,7.38,4.47c2.27,0.66,4.55,1.65,6.73,3.56c2.27,1.99,1.49,7.16,3.82,7.64
	c2.3,0.48,2.76-4.64,5.7-6.86c2.93-2.22,4.98-2.01,12.43-2.42c7.44-0.41,25.98-0.8,25.29-9.2c-0.55-6.74-8.48-4.2-10.86-5.39
	c-2.38-1.19-5.2-11.64-16.73-13.24C50.08,6.67,45.97,16.31,44.69,17.13z"/>
<path style="fill:#FFFFFF;" d="M32.5,42.64c-0.34,1.91-0.54,46.26-0.54,46.26s-0.2,3.46,2.79,3.87c2.79,0.39,3.8-2.25,3.87-4.03
	c0.08-1.78,0.46-41.53,0.39-43.31s-1.78-3.8-3.49-4.34S32.73,41.33,32.5,42.64z"/>
</svg>
