<?xml version="1.0" encoding="utf-8"?>
<!-- Generator: Adobe Illustrator 25.2.3, SVG Export Plug-In . SVG Version: 6.00 Build 0)  -->
<svg version="1.1" id="Layer_2" xmlns="http://www.w3.org/2000/svg" xmlns:xlink="http://www.w3.org/1999/xlink" x="0px" y="0px"
	 viewBox="0 0 128 128" style="enable-background:new 0 0 128 128;" xml:space="preserve">
<path style="fill:#BBCED4;" d="M64.17,30c0,0-7.92-1.56-13.58,1.98S37.71,44.43,32.62,48.96S7.43,60.56,5.02,72.31
	s2.34,22.43,12.59,33.25c10.19,10.75,25.05,15.99,34.53,13.16s14.58-16.56,22.5-24.2S88.69,82.21,92.31,74.8
	c4.35-8.91,1.73-14.66,1.73-14.66L64.17,30z"/>
<path style="fill:#F5F3E7;" d="M75.07,45.71c-2.12-2.12-6.64-9.94-10.04-10.65c-3.4-0.71-10.81,0.17-16.85,6.12
	c-4.92,4.85-10.05,10.47-14.86,14.01s-13.98,8.41-16.7,10.47c-1.98,1.51-6.57,5.04-6.97,12.14c-0.32,5.59,1.7,13.45,11.36,23.8
	c9.84,10.55,20.1,12.4,26.22,11.95c8.58-0.62,12.4-8.16,13.97-10.48c1.99-2.93,8.2-11.66,11.46-14.21
	c3.25-2.55,11.32-9.55,14.29-15.42C91.31,64.83,89.48,60,89.48,60L75.07,45.71z"/>
<path style="fill:#FFFFFF;" d="M40.94,58.72c1.27,1.79,4.15,1.95,7.82-1.14c3.66-3.09,7.41-5.94,9.93-7.33
	c2.52-1.38,7.74-4.64,4.07-9.12c-3.66-4.48-8.31-0.33-10.42,1.79c-2.12,2.12-4.7,6.21-7.17,9.12C42.89,54.73,39.15,56.2,40.94,58.72
	z"/>
<path style="fill:#37B4E5;" d="M70.31,20.37c-5.88,4.93-7.61,7.51-7.87,10.06c-0.25,2.55,2.04,10.71,11.05,20.73
	s18.1,15.04,21.84,14.45c3.74-0.59,6.18-3.38,9.62-6.89c1.43-1.46,5.64-6.11,5.81-8.41c0.17-2.29-1.49-11.17-10.03-20.95
	C90.52,17.65,82.4,15.88,80.29,15.73C76.53,15.46,73.46,17.74,70.31,20.37z"/>
<path style="fill:#1E88FE;" d="M78.08,20.3c-0.13,4.61,3.56,12.28,10.44,19.77c8.42,9.16,13.6,11.77,17.58,12.69
	c2.03,0.47,3.89-0.19,3.81-1.41c-0.08-1.22-1.15-0.66-5.42-2.22c-1.97-0.72-7.33-3.56-13.83-10.89c-6.5-7.34-9.12-12.99-9.51-16.87
	c-0.4-3.95,0.73-4.53-0.73-5.06C78.97,15.76,78.16,17.55,78.08,20.3z"/>
<path style="fill:#1E88FE;" d="M76.4,20.91c0.69,1.44-1.99,3.75-4.28,5.96c-2.76,2.67-4.73,4.56-5.66,3.29
	c-0.99-1.38,2.29-3.9,3.9-5.5C72.81,22.21,75.64,19.31,76.4,20.91z"/>
<path style="fill:#1E88FE;" d="M73.63,34.34c-3.53,3.23-5.14,4.29-3.94,5.59c1.21,1.3,4.18-1.84,5.46-3.06
	c1.29-1.23,5.46-4.37,4.42-5.75C78.26,29.38,75.72,32.42,73.63,34.34z"/>
<path style="fill:#1E88FE;" d="M80.55,43.67c-2.93,2.88-5.62,5.12-4.16,6.41c1.29,1.13,4.32-2.32,6.19-4.16
	c1.87-1.84,4.86-4.21,3.67-5.52C84.87,38.87,82.83,41.43,80.55,43.67z"/>
<path style="fill:#1E88FE;" d="M84.94,57.78c1.33,1.28,3.37-0.96,5.72-3.44c2.16-2.28,5.11-4.22,3.68-5.68
	c-1.33-1.36-3.85,1.42-5.88,3.36C86.11,54.27,83.68,56.59,84.94,57.78z"/>
<path style="fill:#1E88FE;" d="M97.73,57.62c-3.25,3.25-4.68,4.43-3.31,5.49s4.06-2.31,5.93-3.93s3.99-3.49,2.81-4.62
	C101.98,53.44,99.92,55.43,97.73,57.62z"/>
<path style="fill:#FFA828;" d="M121.48,19.8c2.53-2.45,4.34-7.76,0.33-11.31c-3.39-3.01-8.55-2.09-11.25,1.13
	c-2.67,3.2-2.4,5.82-5.37,6.39c-3.2,0.61-6.58-3.17-14.13-1.8c-2.71,0.49-5.23,2.56-7.07,4.54c0.31,1.28-0.18,7.47,8.52,17.44
	c7.52,8.62,14.97,11.2,16.95,10.76c2.04-1.89,4.54-4.91,5.25-8.73c1.54-8.27-2.49-11-1.15-13.27C115.31,21.97,118.18,23,121.48,19.8
	z"/>
<path style="fill:#FFCC8A;" d="M111.5,14.71c1.31,1.73,3.29,0.39,4.82-1.25c1.23-1.33,2.92-2.76,2.02-3.84
	c-1.28-1.54-3.51-0.87-4.89,0.19C112.06,10.87,110.53,13.43,111.5,14.71z"/>
<path style="fill:#FFCC8A;" d="M90.22,19.25c-0.54,2.81,3.33,3.26,4.93,3.46c1.6,0.2,5.25,0.34,5.39-2.2
	c0.13-2.33-2.54-3.33-4.86-3.59C93.35,16.66,90.62,17.19,90.22,19.25z"/>
</svg>
