<?xml version="1.0" encoding="utf-8"?>
<!-- Generator: Adobe Illustrator 25.2.3, SVG Export Plug-In . SVG Version: 6.00 Build 0)  -->
<svg version="1.1" id="Layer_2" xmlns="http://www.w3.org/2000/svg" xmlns:xlink="http://www.w3.org/1999/xlink" x="0px" y="0px"
	 viewBox="0 0 128 128" style="enable-background:new 0 0 128 128;" xml:space="preserve">
<path style="fill:#64696C;" d="M18.99,88.5l-13.46-7l-1.74,5.18c0,0,0.2,9.21,0.98,15.72c0.46,3.82,1.02,10.09,1.31,10.8
	c0.58,1.42,1.94,1.33,3.39,1.46s109.13-0.4,110.32-0.4c1.19,0,2.11-1.72,2.38-3.17s2.25-20.48,2.25-21.54c0-1.06-0.3-7.16-0.3-7.16
	l-6.04,4.52L18.99,88.5z"/>
<path style="fill:#505152;" d="M10.67,14.65c-3.17,0-3.96,1.72-4.36,4.89S3.67,84.67,3.8,86.52c0.13,1.85,1.19,4.49,5.15,4.49
	s109.13-0.66,111.38-0.66c2.25,0,4.1-1.19,3.96-4.62s-3.44-66.46-3.83-69.1s-1.45-2.91-3.83-3.04
	C114.21,13.46,12.92,14.65,10.67,14.65z"/>
<path style="fill:#A94230;" d="M51.76,19.27c0,0-34.35,0.53-36.07,0.4s-3.44,0.79-3.57,3.96c-0.13,3.17-1.45,56.55-1.45,58.13
	s-0.13,4.36,3.7,4.36s38.31-0.26,38.31-0.26L51.76,19.27z"/>
<polygon style="fill:#A94230;" points="56.53,56.15 84.28,55.78 84.93,85.56 56.35,85.84 "/>
<polygon style="fill:#A94230;" points="88.61,55.97 116.18,55.69 117.19,81.88 95.99,85.66 89.26,85.66 "/>
<path style="fill:#A94230;" d="M88.52,51.17l-0.37-32.45c0,0,23.05-0.46,24.06-0.46s3.23-0.09,3.32,2.58s0.54,29.99,0.54,29.99
	L88.52,51.17z"/>
<rect x="56.25" y="28.31" style="fill:#A94230;" width="28.12" height="17.61"/>
<path style="fill:#FEFFFE;" d="M23.41,23.77c-2.3,0.1-7.94-2.19-9.81,3.08c-1.46,4.13,0.12,7.08,0.86,10.03
	c0.74,2.95,0.5,7.06-0.15,9.62c-0.49,1.89-1.5,4.99-1.39,7.67c0.17,4.2,1.49,6.24,1.86,7.99c0.37,1.75,0.41,4.06-0.38,6.62
	c-0.81,2.6-0.83,8.85-0.28,11.06s1.66,3.96,6.55,4.06s21.85-0.09,24.43-0.28s5.61-1.11,5.9-8.02c0.42-9.82-2.3-11.06-1.75-14.66
	c0.55-3.6,2.12-5.99,2.21-10.05s-2.4-5.81-2.21-10.79s2.67-9.31,1.57-13.37s-4.37-4.09-6.12-4.09c-1.75,0-3.22,0.64-5.16,0.66
	c-3.85,0.03-3.46-0.98-7.35-1.14C28.39,22.02,28.04,23.57,23.41,23.77z"/>
<path style="fill:#EC5F32;" d="M32.62,47.05c-4.65,0.09-6.38,5.88-6.03,7.72c0.51,2.66,2.24,2.63,6.31,2.72
	c4.07,0.1,5.47-0.61,5.67-3.01C38.78,52.21,37.37,46.95,32.62,47.05z"/>
<path style="fill:#F8D4B5;" d="M89,51.16c0.05,0,26.6-0.32,26.6-0.32s0.67-0.72,0.63-1.49c-0.09-1.76-1.54-1.36-1.4-2.76
	c0.14-1.4,1.76-1.36,1.76-3.66c0-2.31-1.94-1.85-1.99-3.71c-0.05-1.67,1.85-1.22,1.58-3.8c-0.29-2.79-1.19-2.12-1.22-3.8
	c-0.05-2.4,1.63-2.21,1.54-4.11s-1.72-1.63-1.72-3.12c0-1.49,3.15-2.54,1.13-4.88c-1.99-2.31-3.8,0.59-4.88,0.54
	c-1.41-0.06-0.9-2.17-3.44-2.26c-2.94-0.1-2.89,2.7-4.66,2.62c-2.12-0.09-1.81-2.4-4.38-2.35c-2.89,0.05-2.84,2.21-4.34,2.26
	c-1.4,0.05-3.77-2.46-5.47-0.54c-1.72,1.94,0.55,3.57,0.55,4.97s-2.09,2.2-1.91,3.85c0.32,2.8,2.76,1.4,2.76,3.44
	c0,1.72-2.21,1.99-2.12,4.29c0.09,2.44,1.94,1.99,1.94,4.02c0,1.58-2.01,1.08-1.9,3.84c0.09,2.17,1.54,2.17,1.58,3.53
	C89.69,49.17,88.86,49.31,89,51.16z"/>
<path style="fill:#88B050;" d="M56.3,25.05c0,0-0.16-10.97,0.14-10.88c0.64,0.19,5.2,4.79,5.2,4.79s3.66-4.75,4.14-4.75
	s3.9,4.64,3.9,4.64s4.08-4.68,4.51-4.68s4.14,4.64,4.14,4.64s5.8-4.81,6.09-4.81c0.29,0-0.03,11.62-0.03,11.62l-14.13,1.22
	L56.3,25.05z"/>
<path style="fill:#4D3730;" d="M104.52,21.82c-7.37,0.21-9.14,6.62-9.01,9.42c0.14,2.8,2.73,9.21,8.33,9.14
	c5.81-0.07,9.83-3.05,9.83-9.55C113.67,24.82,109.23,21.68,104.52,21.82z"/>
<path style="fill:#EC5F32;" d="M92.58,44.2c0,0-0.61-5.12-0.82-8.33c-0.2-3.21-0.27-7.37-0.27-7.37l6.01-0.34l5.39,12.69l-2.12,3.41
	C100.77,44.27,93.12,44.47,92.58,44.2z"/>
<path style="fill:#FFFEFE;" d="M93.4,47.61c0.14,0.75,5.25,3.44,5.25,3.44l12.19-0.14c0,0,0.37-5.96,0.37-7.73
	c0-1.77,0.61-4.64-1.36-4.71c-1.98-0.07-9.55,0.14-10.03,0.14C99.33,38.6,93.26,46.86,93.4,47.61z"/>
<path style="fill:#A12422;" d="M60.24,28.29l-3.96,1.05l-0.02,2.19l1.55,0.58c0,0-0.28,0.12-0.84,0.44
	c-0.56,0.33-0.71,0.66-0.71,0.66l0.01,7.97c0,0,0.81,0.45,1.14,0.61c0.39,0.18,0.98,0.35,0.98,0.35s-0.9,0.5-1.33,0.75
	c-0.41,0.24-0.8,0.49-0.8,0.49l0.03,7.62l28.12-0.01l-0.04-6.87c0,0-0.16-0.64-0.78-1.18c-0.34-0.3-1.22-0.93-1.22-0.93
	s0.81-0.35,1.22-0.64c0.41-0.29,0.8-0.69,0.8-0.69l-0.04-7.19c0,0-0.2-0.56-0.87-0.98c-0.46-0.29-1.04-0.46-1.04-0.46
	s0.98-0.7,1.33-1.04c0.35-0.35,0.61-0.74,0.61-0.74l0.01-1.97L60.24,28.29z"/>
<path style="fill:#DD733F;" d="M56.29,29.34l0.02-4.3c0,0,1.39-2.3,13.49-2.24c12.11,0.06,13.63,1.49,14.07,1.91
	c0.5,0.48,0.52,0.87,0.52,0.87l-0.03,2.72c0,0-2.12,2.09-5.77,2.15c-3.65,0.06-12.86,0.7-17.49,0.23
	C58.03,30.37,56.29,29.34,56.29,29.34z"/>
<path style="fill:#DD733F;" d="M56.24,35.49v3.48c0,0,1.8,1.56,4.46,1.68c2.66,0.12,13.84,0.46,17.84,0.06s5.81-2.43,5.81-2.43
	l0-2.19c0,0-2.45-3.2-7.84-3.14c-5.39,0.06-12.63,0.09-15.29,0.17C57.52,33.23,56.24,35.49,56.24,35.49z"/>
<path style="fill:#DD733F;" d="M56.25,45.92c0,0,2.3-3.02,7.11-3.02s13.03-0.12,16.39,0.35c3.36,0.46,4.62,2.15,4.62,2.15l0.02,4.57
	l-28.1,0.08L56.25,45.92z"/>
<path style="fill:#A12422;" d="M68.42,22.02c-1.67-0.04-2.82,0.8-4.32,2.35c-1.33,1.36-2.88,4.79-1.78,5.04
	c0.83,0.19,1.86-2.06,3.94-3.94C67.85,24.03,71.11,22.08,68.42,22.02z"/>
<path style="fill:#A12422;" d="M77.3,22.4c-1.06-0.1-2.27,0.49-3.82,2.31c-1.55,1.82-2.61,4.47-1.74,4.66s2.37-2.12,3.9-3.75
	C77.26,23.89,79.86,22.63,77.3,22.4z"/>
<path style="fill:#A12422;" d="M63.28,39.89c0.55,0.14,1.97-3.03,3.14-4.39c1.17-1.36,2.84-2.54,2.54-2.88
	c-0.3-0.34-1.44-0.8-2.8,0.04c-1.36,0.83-2.58,2.54-3.03,3.86C62.67,37.85,62.52,39.7,63.28,39.89z"/>
<path style="fill:#A12422;" d="M75.09,32.81c-0.61,0.48-1.55,1.78-2.2,3.22s-0.64,3.52,0.04,3.6s1.51-2.54,2.76-3.98
	s2.8-2.31,2.84-2.88C78.58,32.21,76.87,31.41,75.09,32.81z"/>
<path style="fill:#A12422;" d="M66.72,41.3c-1.57,0.55-2.42,2.01-3.26,3.71c-0.82,1.68-0.76,4.2-0.19,4.2c0.87,0,1.25-2.35,2.46-4.2
	c1-1.52,3.41-2.88,3.07-3.37S67.36,41.07,66.72,41.3z"/>
<path style="fill:#A12422;" d="M73.08,45.1c-0.65,1.25-1.25,3.94-0.42,4.05c0.57,0.08,1.88-2.94,2.84-4.13
	c1.29-1.59,2.5-2.58,2.58-2.84c0.08-0.27,0.04-0.95-1.17-0.91c-1.21,0.04-1.46,0.66-2.12,1.29C74.18,43.13,73.61,44.08,73.08,45.1z"
	/>
<path style="fill:#F7CF92;" d="M73.65,50.03c-5.02-0.07-10.15,2.75-10.15,8.32c0,5.78,3.75,8.25,9.73,8.39
	c7.08,0.17,10.08-4.64,10.01-8.87C83.17,53.64,78.51,50.1,73.65,50.03z M71.26,59.38c-0.67,0.89-6.15-0.61-4.31-3.22
	C68.79,53.56,71.82,58.64,71.26,59.38z M73.91,57.83c-1.22,0.03-3.3-5.08-0.11-5.19C77.03,52.54,74.98,57.81,73.91,57.83z
	 M77.58,60.07c-0.83-0.49,0.54-5.61,2.9-3.96C82.66,57.63,78.88,60.85,77.58,60.07z"/>
<path style="fill:#737F3F;" d="M56.37,83.63c0,0,0.27,0.64,0.75,1.13c0.46,0.46,1.17,1.07,1.17,1.07l9.72-0.05
	c0,0,1.27-0.46,2.24-2.75c0.7-1.66,0.46-15.62,0.46-17.3c0-1.68-1.22-7.53-7.28-7.53s-6.97,4.99-6.97,4.99L56.37,83.63z"/>
<path style="fill:#E3DDA6;" d="M56.44,68.04c0,0,12.88,12.14,13.51,12.6c0.97,0.71,1.22,0.15,1.27-0.46
	c0.05-0.61-0.41-1.02-0.81-1.48C70,78.24,56.45,65.72,56.45,65.72L56.44,68.04z"/>
<path style="fill:#E3DDA6;" d="M61.95,58.2l0.72,27.57h1.58L63.69,58.1c0,0-0.49-0.06-0.85-0.04C62.49,58.08,61.95,58.2,61.95,58.2z
	"/>
<path style="fill:#E3DDA6;" d="M69.93,62.01L56.38,80.95l-0.01,2.68l14.21-19.73c0,0-0.11-0.45-0.24-0.82
	C70.22,62.71,69.93,62.01,69.93,62.01z"/>
<path style="fill:#E3DDA6;" d="M63.1,73.65l-2.15,0.44c0,0-2.56,1.33-2.97,1.13c-0.41-0.2-0.72-1.09-0.72-1.54s-0.03-1.3,0.58-1.4
	c0.61-0.1,4.64-0.14,4.64-0.14l2.08-0.72c0,0,2.46-1.67,3.07-1.4c0.61,0.27,0.72,1.09,0.75,1.5c0.03,0.44,0.1,1.43-0.2,1.78
	c-0.31,0.34-3.59,0.14-3.59,0.14L63.1,73.65z"/>
<path style="fill:#EAB554;" d="M84.52,66.04l0.1,6.22c0,0-1.74,5.36-8.27,4.68c-6.52-0.68-6.72-6.28-6.52-8.78
	c0.24-2.97,2.53-6.46,7.79-6.39C82.81,61.83,84.52,66.04,84.52,66.04z"/>
<path style="fill:#E38130;" d="M75.37,72.42c0,0,0.81-3.97,5.05-3.04c4.2,0.92,2.83,5.12,2.83,5.12s3.18-0.24,3.45,3.59
	c0.29,4-3.35,4.2-3.35,4.2s0.24,0.68,0,1.71c-0.24,1.02-0.82,1.54-0.82,1.54l-6.08,0.1c0,0-0.24-0.24-0.31-0.48
	c-0.07-0.24-0.14-0.61-0.14-0.61s-2.87,2.63-5.64-0.17c-2.77-2.8,0.55-5.81,0.55-5.81s-3.35-2.56-0.65-5.77
	C72.58,70.06,75.37,72.42,75.37,72.42z"/>
<path style="fill:#F2C548;" d="M94.28,70.54l-3.28-1l-2.1-1.08l-0.16-6.43c0,0,0.37-3.25,2.58-4.11c2.21-0.86,6.74-0.95,10.95-1.02
	c4.21-0.07,9.01-0.05,11.61,1.01c1.67,0.68,2.46,2.21,2.46,2.21l0.25,6.99c0,0-1.78,2.42-4.42,3.14
	C109.53,70.97,94.28,70.54,94.28,70.54z"/>
<path style="fill:#F2AB47;" d="M88.87,66.86c0,0,1.35,2.09,3.1,2.48c1.75,0.39,3.26,0.29,3.26,0.29s-3.11-0.9-3.75-3.41
	c-0.55-2.19-0.34-5.45,2.14-6.37c2.48-0.92,8.32-0.88,11.14-0.83c2.82,0.05,6.81-0.05,8.03,1.26s1.51,4.09-0.92,5.93
	c-2.43,1.85-11.67,1.85-14.2,0.97c-1.51-0.52-3.21-2.21-1.61-4.38c1.4-1.9,10.65-0.92,11.48-0.73c0.83,0.19,1.07,1.31-0.05,1.41
	c-1.12,0.1-8.68-0.29-9.85,0.24s0.08,1.76,0.66,2.03c1.15,0.53,4.18,0.6,7.2,0.3c3.02-0.29,6.23-0.88,6.32-3.02
	c0.1-2.14-2.33-2.48-7.73-2.53c-5.4-0.05-8.19,0.09-9.67,0.92c-0.82,0.46-1.81,2.2-1.18,4.09c0.63,1.9,4.18,3.7,5.45,3.75
	s10.75,0.18,13.09-0.29c3.64-0.74,4.77-3.83,4.77-3.83l0.11,3.05c0,0,0.03,2.63-2.84,3.7s-21.22,0.73-22.13,0.44
	c-1.07-0.34-1.61-0.88-2.09-1.36c-0.49-0.49-0.68-1.31-0.68-1.31L88.87,66.86z"/>
<path style="fill:#F2C548;" d="M113.81,84.18L92.6,84.62l-3.4-1.7l-0.18-7.9c0,0,0.3-1.9,2.12-2.56c1.75-0.63,4.67-0.63,11.14-0.78
	c6.47-0.15,8.51,0.1,10.99,0.83c2.48,0.73,3.65,2.89,3.65,2.89l0.27,6.48L113.81,84.18z"/>
<path style="fill:#F2AB47;" d="M117.15,80.52c0,0,0.04,1.77,0.09,2.34c0.04,0.57-0.53,2.74-2.21,2.91
	c-1.68,0.18-22.86-0.13-22.86-0.13s-1.36,0.11-2.26-0.63c-0.71-0.57-0.69-1.21-0.69-1.21l-0.04-1.85c0,0,0.84,1.05,1.44,1.35
	c0.79,0.4,1.55,0.31,1.55,0.31s-1.37-1.02-1.1-3.8c0.35-3.71,2.56-5.25,5.78-5.47c3.06-0.21,10.86,0.02,12.85,0.09
	c2.6,0.09,3.75,2.25,3.62,4.15c-0.13,1.9-1.37,2.96-4.33,3.31c-2.96,0.35-10.37,0.22-11.57,0.18c-1.19-0.04-2.44-0.75-2.34-2.56
	c0.09-1.63,1.5-1.77,2.87-1.81s8.74,0.04,9.49,0.09c0.75,0.04,1.1,1.28-0.35,1.32c-1.46,0.04-9.4,0.07-9.89,0.04
	c-0.88-0.04-0.93,1.32,0.04,1.41c0.62,0.06,11.48-0.13,12.23-0.26c0.75-0.13,2.33-0.53,2.3-2.03c-0.04-1.85-2.65-2.3-4.5-2.34
	c-1.85-0.04-9.27-0.18-10.24-0.09c-0.97,0.09-4.11,0.79-4.41,4.28c-0.21,2.38,1.37,3.44,1.37,3.44s17.88,0,19.03-0.13
	c1.15-0.13,1.99-0.4,2.56-0.88S117.15,80.52,117.15,80.52z"/>
</svg>
