<svg xmlns="http://www.w3.org/2000/svg" viewBox="0 0 64 64" enable-background="new 0 0 64 64"><path d="m15.1 22.1c.9 8 8.2 14.9 16.9 14.9 9.4 0 17.1-8 17.1-16.7 0-.1 0-.1 0-.2-9.8-1.3-22.1 5.8-34 2" fill="#961623"/><path d="m54 20.4c0-11.4-5.7-18.4-5.7-18.4h-32.6c0 0-5.7 7.1-5.7 18.4 0 10.8 9.3 20.9 20.9 21.5-.1 6.3-.7 12.8-2.2 15.1-2.2 3.2-9.8 1.6-9.8 5h26.2c0-3.4-7.6-1.8-9.8-5-1.5-2.3-2.1-8.8-2.2-15.1 11.6-.6 20.9-10.6 20.9-21.5m-22 18.9c-9.8 0-17.9-7.8-18.9-16.7-.1-.6-.1-1.3-.1-1.9 0-9.9 4.9-15.9 4.9-15.9h28.2c0 0 4.8 6 4.9 15.7 0 .1 0 .2 0 .2 0 9.6-8.5 18.6-19 18.6" opacity=".8" fill="#a1b8c7"/></svg>