<?xml version="1.0" encoding="utf-8"?>
<!-- Generator: Adobe Illustrator 25.2.3, SVG Export Plug-In . SVG Version: 6.00 Build 0)  -->
<svg version="1.1" id="Layer_3" xmlns="http://www.w3.org/2000/svg" xmlns:xlink="http://www.w3.org/1999/xlink" x="0px" y="0px"
	 viewBox="0 0 128 128" style="enable-background:new 0 0 128 128;" xml:space="preserve">
<path style="fill:#9C9C9C;" d="M87.86,3.74c0,0-0.54-0.99-2.8-0.59c-2.49,0.43-7.82,4.48-9.52,14.44s-3.36,40.77-2.21,42.79
	c2.13,3.74,6.51,6.73,6.61,8.85c0.07,1.58-0.41,38.27-0.76,40.88s-2.22,9.75-2.46,11.56c-0.24,1.79,0.82,3.17,1.93,3.28
	c1.82,0.17,7.28,0.22,7.28,0.22L87.86,3.74z"/>
<path style="fill:#9C9C9C;" d="M54.45,48.17c0,0-1.26-30.73-1.35-31.91c-0.05-0.72-0.41-1.76-1.31-1.72
	c-0.58,0.02-0.93,0.65-0.93,1.54c0,1.53-0.54,27.44-0.53,28.89c0.03,2.09-2.35,1.64-2.3,0.1c0.05-1.53-0.17-27.37-0.26-28.7
	c-0.07-1-0.28-1.65-1.11-1.65c-0.82,0-1.15,0.62-1.29,1.7c-0.31,2.3-0.56,27.35-0.61,28.73c-0.06,1.72-2.32,1.7-2.32-0.14
	c0-1.84,0.12-27.16,0.12-28.7c0-0.81-0.44-1.55-1.22-1.53c-0.66,0.02-1.13,0.76-1.18,1.43c-0.1,1.43-1,27.24-1.07,28.52
	c-0.11,2.02-2.58,2.07-2.58-0.13c0-2.2,0.88-26.71,0.93-28.24c0.03-0.96-0.5-1.65-0.93-1.65c-1,0-1.25,1.05-1.37,1.8
	c-0.26,1.64-2.1,16.09-2.54,21.47c-0.44,5.38-1.26,15.12,0.35,18.43c1.96,4.01,5.91,4.93,5.91,4.93s-0.66,44.62-1.06,47.54
	c-0.57,4.2-3.26,11.46-3,13.13s1.21,2.65,2.97,2.74s5.3,0.55,6.3,0.28c0.43-0.12,0.61-27.62,0.61-27.62l0.44-43.23L54.45,48.17z"/>
<path style="fill:#C8C8C8;" d="M35.12,50.76l19.25,2.31c0,0-0.39,3.85-1.98,5.87c-1.99,2.53-4.51,2.73-4.51,2.73
	s0.29,45.82,0.71,49.03c0.42,3.2,3.14,11.06,2.27,12.73c-0.77,1.49-2.65,1.85-6.72,1.72c-4.28-0.14-5.5-0.04-5.67-2.94
	c-0.17-2.9,2.44-8.23,2.56-11.92s0.59-50.68,0.59-50.68s-4.66-0.55-6.38-4.53C33.9,51.97,35.12,50.76,35.12,50.76z"/>
<path style="fill:#C8C8C8;" d="M84.93,64.34l-6.13-1.33c0,0,4.12,3.46,4.2,6.13c0.08,2.67,0.24,40.4-0.17,42.66
	s-3.64,10.93-2.16,12.5c1.01,1.06,4.34,0.84,6.2,0.84s3.4-0.08,4.2-1.21c0.81-1.13,0.44-4.16,0.01-6.43
	c-0.49-2.64-1.06-5.01-1.06-6.18c0-2.1-1.37-51.02-1.37-51.02L84.93,64.34z"/>
<path style="fill:#E0E0E0;" d="M87.22,3.49c-1.7,0.05-5.77,1.85-7.95,9.72c-1.7,6.15-2.09,13.53-2.51,26.63
	c-0.5,15.76,0.16,20.7,0.65,21.1s8.09,3.56,8.09,3.56l3.15-4.2c0,0-0.49-51.02-0.49-53.13S88.46,3.45,87.22,3.49z"/>
<path style="fill:#E0E0E0;" d="M34.58,48.29c0,0-0.05,3.71,0,4.06c0.05,0.35,7.9,1.01,10.98,1.06c3.08,0.05,8.83-0.31,8.83-0.31
	s0.1-1.24,0.1-2.67c0-1.24-0.04-2.28-0.04-2.28L34.58,48.29z"/>
<path style="fill:#FDFDFD;" d="M36.35,55.85c2.49,0.58,7.91-1.71,7.11-2.6c-0.86-0.97-8.78-1.75-8.88-1.01
	C34.48,52.98,35.03,55.54,36.35,55.85z"/>
<path style="fill:#FDFDFD;" d="M48.12,121.87c0.64-1.19,0.15-4.79-0.15-6.69c-0.3-1.9-0.55-3.37-1.37-3.25
	c-0.67,0.1-0.67,0.85-0.67,2.42c0,1.57,0.12,4.12-0.47,4.69c-0.6,0.57-2.77,1.8-2.55,2.97s1.77,1.12,2.9,1.07
	C46.53,123.07,47.6,122.85,48.12,121.87z"/>
<path style="fill:#FDFDFD;" d="M88.23,115.36c-0.72-0.05-0.77,1.22-0.77,2.57c0,1.35-0.4,2.35-1,2.75c-0.6,0.4-2.17,1.25-2.07,2.02
	c0.1,0.77,0.87,0.95,3.1,0.85c2.22-0.1,2.17-1.67,2.1-3.27C89.5,118.68,89.28,115.43,88.23,115.36z"/>
<path style="fill:#FDFDFD;" d="M77.4,60.52c-0.6,0.26,1.23,2.52,3.31,4.31c2.15,1.85,3.05,2.42,5.24,2.3
	c2.2-0.12,3.32-6.08,1.95-6.61c-1.37-0.52-1.77,1.66-3.55,1.96S78.49,60.04,77.4,60.52z"/>
</svg>
