<svg xmlns="http://www.w3.org/2000/svg" viewBox="0 0 64 64" enable-background="new 0 0 64 64"><g fill="#c94747"><path d="m15.3 13.1c0 0 .7 20.2-13.3 32.9h13v16c0 0 13.6-19.2 13.6-48.9h-13.3"/><path d="m48.7 13.1c0 0-.7 20.2 13.3 32.9h-13v16c0 0-13.6-19.2-13.6-48.9h13.3"/></g><path d="m30.7 14c0 5.1-5.7 10-12.6 11l-5.5.8c-6.9 1-11.6-1.3-10.4-5 1.2-3.7 1.2-9.8 0-13.5-1.2-3.7 3.4-6 10.4-5l5.5.7c6.9.9 12.6 5.9 12.6 11" fill="#ff5760"/><path d="m3.9 21.3c-.5.5.1 1.1.3 1.3.6.7 2.3 1.5 5.3 1.5.9 0 1.8-.1 2.8-.2l5.5-.8c3.9-.5 7.4-2.5 9.3-5 0 .1-16.8-3-23.2 3.2" fill="#c94747"/><path d="m33.3 14c0 5.1 5.7 10 12.6 11l5.5.8c6.9 1 11.6-1.3 10.4-5-1.2-3.7-1.2-9.8 0-13.5s-3.4-6-10.4-5l-5.5.7c-6.9.9-12.6 5.9-12.6 11" fill="#ff5760"/><g fill="#c94747"><path d="m60.1 21.3c.5.5-.1 1.1-.3 1.3-.6.7-2.3 1.5-5.3 1.5-.9 0-1.8-.1-2.8-.2l-5.5-.8c-3.9-.5-7.4-2.5-9.3-5 0 .1 16.8-3 23.2 3.2"/><path d="m31.2 12.5c0 0-1.7 1.4-5.8-2-4.7-3.9-11.5 1.3-2.4 3.6 4.9 1.3 8.2-1.6 8.2-1.6"/><path d="m32.8 12.5c0 0 1.7 1.4 5.8-2 4.7-3.9 11.5 1.3 2.4 3.6-4.9 1.3-8.2-1.6-8.2-1.6"/><path d="m32 20.9c-3.7 0-4.7 2.8-4.7-6.8 0-9.6.9-6.8 4.7-6.8s4.7-2.8 4.7 6.8c0 9.6-1 6.8-4.7 6.8"/></g><path d="m32 21.1c-3 0-3.8 2.8-3.8-7 0-9.9.7-7 3.8-7s3.8-2.8 3.8 7c0 9.8-.8 7-3.8 7" fill="#ff5760"/></svg>