<?xml version="1.0" encoding="utf-8"?>
<!-- Generator: Adobe Illustrator 25.2.3, SVG Export Plug-In . SVG Version: 6.00 Build 0)  -->
<svg version="1.1" id="Layer_2" xmlns="http://www.w3.org/2000/svg" xmlns:xlink="http://www.w3.org/1999/xlink" x="0px" y="0px"
	 viewBox="0 0 128 128" style="enable-background:new 0 0 128 128;" xml:space="preserve">
<path style="fill:#835D4E;" d="M57.86,106.24c0,0-0.49,3.99-1.4,7c-0.77,2.55-1.99,4.52-2.1,7.14c-0.09,2.16,1.61,3.84,9.59,3.99
	c6.78,0.12,9.13-2.01,8.92-4.95c-0.2-2.73-1.36-4.78-1.99-7.93c-0.45-2.27-0.77-4.97-0.77-4.97L57.86,106.24z"/>
<path style="fill:#0A7C1F;" d="M67.01,27.93l-17.47,6.48l-11.62,2c0,0-1.39,1.76,0.42,3.83c1.31,1.49,3.51,2.56,6.52,2.59
	c3.39,0.03,4.76-1.3,5.14-0.17c0.38,1.13-4.3,3.92-6.87,5.43c-2.57,1.51-10.97,4.11-11.34,7.87c-0.28,2.89,2.6,4.81,4.02,5.26
	c1.81,0.57,4.38,0.45,5.13,0.53c0.75,0.08,0.98,1.51-0.08,2.41c-1.06,0.91-3.92,1.89-5.88,2.64c-1.96,0.75-9.96,3.4-11.02,3.85
	c-1.06,0.45-2.26,2.34-1.36,5.13c0.91,2.79,4.15,4.9,7.09,5.96c2.94,1.06,3.77,0.6,3.77,0.6s-0.41,1.6-1.88,2.93
	c-1.47,1.33-6.12,6.28-6.12,6.28s-8.79,0.23-9.56,0.86c-0.77,0.63-1.26,2.17-0.91,3.64c0.35,1.47,1.47,5.18,8.47,7.21
	c7,2.03,11.69,0,11.69,0s-2.32,4.46,3.01,6.58c4.02,1.6,10.15-0.28,11.69-0.7c1.54-0.42,6.93-2.66,6.93-2.66s1.47,3.52,7.42,3.78
	c6.3,0.28,10.71-2.8,10.71-2.8s8.72,5.33,15.4,2.52c4.83-2.03,3.29-6.86,3.29-6.86s8.47,1.47,14.63-0.98
	c6.16-2.45,7.14-5.81,7.14-7.49s-2.45-3.1-3.57-3.03c-1.12,0.07-4.41-0.33-6.37-1.17s-4.6-2.21-4.6-2.21s-4.58-1.5-7.58-4.09
	c-1.25-1.07-1.12-2.17,0.7-2.24c1.82-0.07,7.34-0.02,10.5-2.31c3.32-2.41,3.32-4.56,3.15-5.53c-0.25-1.39-1.73-1.95-1.73-1.95
	s-12.68-4-12.96-4.35c-0.28-0.35-2.31-2.66-2.52-2.87c-0.21-0.21-3.78-1.54-3.01-2.59s4.82-1.08,7.14-3.5
	c2.71-2.83,1.96-5.39,1.05-6.37s-2.55-1.49-2.55-1.49s-3.08,0.91-4.13,0.42c-1.05-0.49-6.05-5.29-6.05-5.29s-4.25-2.37-4.2-3.09
	c0.07-0.98,4.36,0.03,7.91-1.12c3.19-1.03,3.07-3.23,2.87-4.06c-0.31-1.3-1.46-1.84-2.23-2.4C86.41,34.86,67.01,27.93,67.01,27.93z"
	/>
<path style="fill:#02AB48;" d="M59.89,15.19c0,0-2.75,5.72-7.42,10.92c-7.42,8.26-14.63,10.36-14.63,10.36s0.91,2.66,5.74,2.52
	c5.46-0.16,12.6-4.06,12.6-4.06s2.1,5.04,4.69,7.98c3.11,3.53,6.77,6.1,10.43,4.2c1.38-0.72,1.66-3.72,0-5.81
	c-4.08-5.14-1.45-4.76-1.16-4.5c0,0,3.19,2.47,9.06,2.4s7.98-3.78,7.98-3.78s-7.28-4.06-12.04-9.59
	c-4.76-5.53-8.68-10.29-8.68-10.29L59.89,15.19z"/>
<path style="fill:#02AB48;" d="M56.88,45.28c-0.01,0.01-3.4,2.19-7.21,1.89c-1.65-0.13-2.82-1.36-2.82-1.36s-3.78,2.22-5.65,3.18
	c-2.31,1.19-5.27,2.37-6.83,3.5c-0.77,0.56-1.85,1.75-1.85,1.75s0.56,2.59,5.46,2.59s8.19-0.63,11.2,0.21
	c3.01,0.84,7.7,5.53,10.99,5.53c3.29,0,5.6-4.41,8.75-4.41s3.99,1.61,8.82,2.1c4.83,0.49,12.46-2.31,14.21-3.99
	c2.37-2.28,1.08-5.32,1.08-5.32s-3.07-1.23-5.83-2.57c-2.39-1.16-4.34-2.26-4.34-2.26s-1.12,1.26-2.38,1.19
	c-1.26-0.07-3.07-0.79-4.54,0.33s-2.35,2.88-5.26,3.31C63.53,52,56.88,45.28,56.88,45.28z"/>
<path style="fill:#02AB48;" d="M23.92,70.69c0,0-1.02,3.4,3.68,5.51s13.53,0.24,13.94,0.65c0.41,0.41-7.24,4.55-3.24,7.94
	c4.78,4.05,17.1-8.02,17.91-8.02s1.22,9.97,6.16,11.75s9.8-5.51,12.8-6.4c3-0.89,5.19,1.78,9.07,1.94c5.12,0.21,7.62-1.13,7.94-3.24
	c0.32-2.11-4.21-5.91-3.24-6.72c0.97-0.81,2.67,2.19,9.48,1.7c6.81-0.49,7.49-3.68,7.49-3.68l-15.56-7.21c0,0-2.14,2.55-5.54,2.63
	c-3.4,0.08-11.99-1.38-15.39-0.41c-3.4,0.97-4.46,4.86-10.13,4.62c-5.67-0.24-9.48-4.05-13.37-2.19c-3.89,1.86-6.74,4.24-8.9,2.91
	c-1.24-0.77-1.11-1.87-1-3.58c0.08-1.3,0.58-2.67,0.58-2.67L23.92,70.69z"/>
<path style="fill:#02AB48;" d="M15.86,92.45c0,0,2.18,5.96,12.81,5.96c9.08,0,12.27-5.04,13.99-6.48c1.71-1.44,2.95-3.46,3.5-2.57
	c0.55,0.89-5.49,7.41-7.96,9.81c-1.38,1.34-3.09,3.91-0.48,5.56c2.61,1.65,8.71,0.89,13.65-1.23s6.38-6.52,6.38-6.52
	s-3.7-1.44-4.39-5.9c-0.69-4.46-0.89-6.35-2.33-6.55c-1.44-0.21-11.7,8.16-18.05,5.45c-3.02-1.29-1.45-4.66-1.45-4.66
	s-2.91,2.3-6.82,3.79C21.72,90.24,15.86,92.45,15.86,92.45z"/>
<path style="fill:#02AB48;" d="M59.75,97.32c0,0-1.28,4-1.02,4.98c0.49,1.87,2.32,3.8,6.92,3.45c4.6-0.34,7.13-2.06,7.07-3.57
	s-3.02-5.28-1.58-6.24c1.44-0.96,2.47,1.23,3.91,3.57s7.68,9.88,14.27,6.31c6.03-3.27-2.06-9.74-0.41-10.77s5.56,2.6,11.52,2.33
	c10.56-0.48,12-5.69,12-5.69s-4.05-1.03-6.38-1.65s-5.22-1.79-5.22-1.79s-4.73,2.41-11.31,2.2s-10.5-2.81-13.31-2.33
	c-2.81,0.48-4.94,4.45-8.44,6.72C62.9,98,59.75,97.32,59.75,97.32z"/>
<path style="fill:#FCC11A;" d="M67.4,17.53c-0.06,0.18-1.68,5.99-3.41,5.99c-1.74,0-4.61-6.23-4.61-6.23s-6.07-0.19-6.35-1.02
	c-0.36-1.08,4.01-5.69,4.01-5.69s-0.78-6.35-0.06-6.95c0.81-0.68,6.47,3.11,6.47,3.11s5.76-3.29,6.71-2.58
	c0.96,0.72-0.78,6.17-0.78,6.17s4.61,3.77,4.25,4.79C73.27,16.15,67.4,17.53,67.4,17.53z"/>
<path style="fill:#FEE56B;" d="M59.73,5.54C59.48,5.74,59.96,7,61.2,8.47s2.11,2.69,2.38,2.73c0.27,0.03,2.08-2.28,2.71-2.98
	c0.64-0.7,1.39-2.09,1.17-2.31c-0.4-0.4-3.95,2.08-3.95,2.08S60.15,5.21,59.73,5.54z"/>
<path style="fill:#FEE56B;" d="M53.76,15.57c0.29,0.21,7.37-2.45,7.47-2.81c0.11-0.42-2.11-1.37-2.78-1.57
	c-0.67-0.2-1.88,0.84-3.01,2.08C54.47,14.31,53.52,15.4,53.76,15.57z"/>
<path style="fill:#FF5F5E;" d="M65.45,25.97c-3.56,0.05-5.14,2.49-5.1,5.43s2.15,4.93,5.47,4.89s5.05-2.32,4.93-5.51
	C70.65,28,68.68,25.93,65.45,25.97z"/>
<path style="fill:#FCD81E;" d="M79.17,45.8c-3.56,0.05-5.63,2.69-5.59,5.63c0.04,2.94,2.28,5.22,5.84,5.18
	c3.65-0.04,5.47-2.65,5.34-5.84C84.66,48,82.4,45.76,79.17,45.8z"/>
<path style="fill:#DF0E2B;" d="M55.26,46.83c-3.73,0.05-5.72,2.63-5.68,5.76c0.04,3.13,2.54,5.35,6.01,5.3
	c3.47-0.04,5.39-2.53,5.26-5.92C60.74,49.01,58.64,46.79,55.26,46.83z"/>
<path style="fill:#FFD2B1;" d="M45.41,65.77c-3.77,0.04-5.63,2.82-5.59,6.09c0.05,3.27,2.33,5.43,6,5.38
	c3.67-0.05,5.6-2.58,5.47-6.13C51.17,68.03,48.99,65.73,45.41,65.77z"/>
<path style="fill:#FCD81E;" d="M66.44,71.46c-3.96,0.05-5.71,2.76-5.66,6.03c0.05,3.27,2.39,5.48,6.07,5.43
	c3.68-0.05,5.61-2.58,5.48-6.12C72.21,73.72,70.03,71.42,66.44,71.46z"/>
<path style="fill:#FF5F5D;" d="M85.44,65.81c-3.99,0.05-5.94,2.82-5.9,6.13c0.05,3.31,2.37,5.76,6.09,5.72
	c3.71-0.05,5.89-2.84,5.75-6.43C91.27,68.1,89.07,65.77,85.44,65.81z"/>
<path style="fill:#C9C9C9;" d="M87.49,94.01c0.18-3.65-1.98-5.57-4.98-5.75s-5.27,1.65-5.48,5.04c-0.21,3.39,1.84,5.66,5.1,5.77
	C84.97,99.17,87.32,97.5,87.49,94.01z"/>
<path style="fill:#FF5F5E;" d="M47.05,88.6c-3.71,0.05-5.35,2.55-5.31,5.56c0.04,3.01,2.24,5.05,5.69,5.01s5.26-2.38,5.13-5.64
	C52.46,90.67,50.42,88.55,47.05,88.6z"/>
<path style="fill:#F9FFFF;" d="M43.55,94.06c1.08,0.58,1.49-0.99,2.03-1.53c0.54-0.54,1.82-1.45,1.2-2.24
	c-0.62-0.79-2.2-0.34-2.94,0.5C42.84,91.91,42.67,93.59,43.55,94.06z"/>
<path style="fill:#F9FFFF;" d="M79.01,93.9c1.08,0.58,1.54-1,1.99-1.62c0.58-0.79,1.99-1.33,1.37-2.11
	c-0.62-0.79-2.12-0.29-2.86,0.54C78.51,91.83,78.13,93.42,79.01,93.9z"/>
<path style="fill:#F9FFFF;" d="M81.76,71.65c1.19,0.61,1.64-1.11,2.22-1.82c0.52-0.63,2.04-1.31,1.35-2.14
	c-0.69-0.83-2.31-0.39-3.13,0.48C81.1,69.35,80.79,71.15,81.76,71.65z"/>
<path style="fill:#F9FFFF;" d="M62.94,77.37c1.08,0.58,1.49-0.99,2.03-1.53c0.54-0.54,1.82-1.74,1.2-2.53
	c-0.62-0.79-2.15-0.29-2.94,0.79C62.35,75.31,62.06,76.9,62.94,77.37z"/>
<path style="fill:#F9FFFF;" d="M41.85,71.69c1.08,0.58,1.76-1.06,2.23-1.66c0.91-1.16,1.78-1.78,1.16-2.57s-2.28-0.12-3.1,0.95
	C41.24,69.61,40.98,71.22,41.85,71.69z"/>
<path style="fill:#F9FFFF;" d="M51.74,52.55c1.08,0.58,1.6-0.91,2.03-1.53c0.66-0.95,1.9-1.74,1.28-2.53s-2.11-0.37-3.02,0.79
	C51.11,50.45,50.86,52.07,51.74,52.55z"/>
<path style="fill:#F9FFFF;" d="M75.84,52.04c1.18,0.64,1.63-1.09,2.22-1.68c0.59-0.59,2-1.59,1.32-2.45
	c-0.68-0.86-2.41-0.37-3.22,0.54C75.06,49.68,74.87,51.53,75.84,52.04z"/>
<path style="fill:#F9FFFF;" d="M61.89,31.31c1.08,0.58,1.49-0.99,2.03-1.53s1.82-1.45,1.2-2.24c-0.62-0.79-1.87-0.37-2.78,0.7
	C61.38,29.39,61.01,30.84,61.89,31.31z"/>
<path style="fill:#F9C319;" d="M50.51,32.26c-1.54,0-2.24,0.66-2.36,2.03c-0.12,1.33,0.71,2.15,1.95,2.24
	c1.74,0.12,2.28-1.32,2.28-2.24C52.37,33.25,51.54,32.26,50.51,32.26z"/>
<path style="fill:#F9C319;" d="M57.12,38.13c-1.3-0.82-2.42-0.27-2.96,0.4c-0.77,0.95-0.65,2.4,0.43,2.99
	c1.41,0.77,2.54,0.18,3-0.51C58.29,39.97,58.08,38.74,57.12,38.13z"/>
<path style="fill:#F9C319;" d="M63.02,40.9c-1.33,0.25-1.95,1.32-1.69,2.67c0.2,1.06,1.37,1.81,2.57,1.52
	c1.7-0.4,1.78-1.95,1.5-2.82C65.1,41.29,64.04,40.72,63.02,40.9z"/>
<path style="fill:#F9C319;" d="M79.8,34.7c-1.21-0.95-2.45-0.59-3.08,0.2c-0.72,0.9-0.78,2.07,0.13,2.91
	c1.08,0.99,2.59,0.47,3.12-0.21C80.58,36.83,80.61,35.34,79.8,34.7z"/>
<path style="fill:#F9C319;" d="M72.92,40.21c-1.55,0-2.26,0.66-2.39,2.02c-0.12,1.32,0.76,2.18,2.01,2.27
	c1.76,0.12,2.26-1.36,2.26-2.27C74.81,41.2,73.97,40.21,72.92,40.21z"/>
<path style="fill:#F9C319;" d="M44.99,54.71c-1.58,0-2.3,0.67-2.43,2.05c-0.12,1.34,0.73,2.17,2,2.26c1.79,0.13,2.34-1.34,2.34-2.26
	C46.9,55.71,46.05,54.71,44.99,54.71z"/>
<path style="fill:#F9C319;" d="M52.11,60.16c-1.52-0.48-2.34-0.02-2.96,1.25c-0.5,1.03,0,2.4,1.22,2.81
	c1.76,0.58,2.66-0.58,2.94-1.48C53.64,61.72,53.13,60.48,52.11,60.16z"/>
<path style="fill:#F9C319;" d="M61.55,66.61c-0.04-1.6-0.78-2.31-2.25-2.4c-1.44-0.09-2.29,0.8-2.35,2.1
	c-0.08,1.82,1.49,2.34,2.47,2.31C60.54,68.58,61.58,67.69,61.55,66.61z"/>
<path style="fill:#F9C319;" d="M69.11,63.82c-1.65,0-2.4,0.7-2.54,2.15c-0.13,1.41,0.76,2.27,2.09,2.37
	c1.87,0.13,2.45-1.4,2.45-2.37C71.11,64.87,70.22,63.82,69.11,63.82z"/>
<path style="fill:#F9C319;" d="M78.41,60.96c-1.54,0-2.24,0.66-2.36,2.03c-0.12,1.33,0.71,2.15,1.95,2.24
	c1.74,0.12,2.28-1.32,2.28-2.24C80.27,61.96,79.44,60.96,78.41,60.96z"/>
<path style="fill:#F9C319;" d="M84.57,59.03c0.31,1.37,1.37,1.89,2.7,1.55c1.29-0.33,1.79-1.38,1.46-2.58
	c-0.46-1.68-2.01-1.71-2.87-1.4C84.89,56.94,84.35,58.02,84.57,59.03z"/>
<path style="fill:#F9C319;" d="M97.96,73.12c-1.46,0-2.13,0.64-2.25,1.95c-0.12,1.28,0.67,2.07,1.86,2.15
	c1.66,0.12,2.17-1.27,2.17-2.15C99.74,74.08,98.95,73.12,97.96,73.12z"/>
<path style="fill:#F9C319;" d="M93.39,80.86c0.15-1.69-0.5-2.52-1.98-2.79c-1.44-0.26-2.41,0.57-2.63,1.92
	c-0.31,1.9,1.22,2.63,2.22,2.72C92.13,82.81,93.29,82,93.39,80.86z"/>
<path style="fill:#F9C319;" d="M83.08,81.9c-1.62,0.07-2.5,1.18-2.4,2.78c0.1,1.56,1.23,2.35,2.7,2.22
	c2.06-0.18,2.43-1.95,2.26-3.01C85.45,82.7,84.31,81.84,83.08,81.9z"/>
<path style="fill:#F9C319;" d="M73.7,85.24c-1.65-0.21-2.64,0.76-2.79,2.34c-0.14,1.53,0.84,2.45,2.3,2.58
	c2.36,0.22,2.69-1.52,2.69-2.58C75.9,86.39,74.91,85.39,73.7,85.24z"/>
<path style="fill:#F9C319;" d="M61.97,86.52c-1.62,0.07-2.5,1.18-2.4,2.78c0.1,1.56,1.23,2.35,2.7,2.22
	c2.06-0.18,2.43-1.95,2.26-3.01C64.35,87.32,63.2,86.47,61.97,86.52z"/>
<path style="fill:#F9C319;" d="M51.75,83.38c-1.59,0.07-2.42,1.33-2.35,2.71c0.07,1.51,1.2,2.28,2.64,2.15
	c2.02-0.18,2.38-1.9,2.22-2.92C54.07,84.15,52.95,83.32,51.75,83.38z"/>
<path style="fill:#F9C319;" d="M42.16,79.51c-1.59,0.07-2.45,1.15-2.35,2.7c0.1,1.51,1.19,2.27,2.63,2.14
	c2.02-0.18,2.38-1.89,2.22-2.92C44.48,80.28,43.36,79.46,42.16,79.51z"/>
<path style="fill:#F9C319;" d="M36.16,71.92c-1.37,0.06-2.11,1-2.02,2.36c0.09,1.32,1.03,1.99,2.27,1.88
	c1.74-0.15,2.05-1.65,1.9-2.55C38.16,72.6,37.19,71.88,36.16,71.92z"/>
</svg>
