<svg xmlns="http://www.w3.org/2000/svg" viewBox="0 0 64 64" enable-background="new 0 0 64 64"><path d="m44.4 18h-2.3c0-1-.2-2-.5-3-1.3-4.3-5.2-7.1-9.7-7.1-4.5 0-8.3 2.9-9.7 7.1-.3 1-.5 2-.5 3h-2.3c0-1.3.2-2.5.6-3.7.8-2.5 2.3-4.7 4.4-6.2 2.2-1.6 4.7-2.5 7.4-2.5 2.7 0 5.3.9 7.4 2.5 2.1 1.6 3.7 3.8 4.4 6.2.6 1.2.8 2.5.8 3.7" fill="#d3976e"/><path d="m29.9 12.4c-2.5-5-7.4-8.4-13.1-8.4-8.2 0-14.8 7-14.8 15.7 0 4 1.4 7.7 3.8 10.4 0 0 6-15.7 24.1-17.7" fill="#ffdd7d"/><path d="m29.9 12.4c-18.1 2-24.1 17.8-24.1 17.8 11.1-1.1 20.4-8.2 24.1-17.8" fill="#594640"/><path d="m34.1 12.4c2.5-5 7.4-8.4 13.1-8.4 8.2 0 14.8 7 14.8 15.7 0 4-1.4 7.7-3.8 10.4 0 0-6-15.7-24.1-17.7" fill="#ffdd7d"/><path d="m34.1 12.4c18.1 2 24.1 17.8 24.1 17.8-11.1-1.1-20.4-8.2-24.1-17.8" fill="#594640"/><path d="m42.4 60l-3.4-1.6c1.3-3.1.7-4.2-.2-5.7-1-1.7-2.5-4.1-.5-8.8.6-1.4.3-1.8-.5-3.1-1-1.7-2.4-4-1.1-8.3 1.3-4.5-1.7-9.8-1.7-9.9l3.1-2c.2.3 3.9 6.9 2.1 13.1-.8 2.6-.1 3.6.7 5 .9 1.5 2.1 3.5.8 6.8-1.2 2.8-.6 3.7.3 5.2 1 1.8 2.5 4.3.4 9.3" fill="#42ade2"/><path d="m24.3 59.9c-2.2-5-.8-7.5.2-9.3.9-1.5 1.4-2.4.1-5.2-1.4-3.2-.3-5.3.6-6.8.8-1.4 1.4-2.5.6-5-2-6.2 1.6-12.9 1.8-13.1l3.2 2-1.6-1 1.6 1c0 .1-2.9 5.4-1.5 9.9 1.4 4.3 0 6.6-.9 8.3-.7 1.3-1 1.8-.4 3.1 2.1 4.7.7 7.1-.3 8.9-.9 1.5-1.5 2.6-.1 5.7l-3.3 1.5" fill="#ed4c5c"/><path d="m5.8 57.5c-.8-5.4 1.2-7.4 2.7-9 1.2-1.2 1.9-2 1.5-5-.6-3.5 1.1-5.2 2.3-6.4 1.2-1.2 2-2 1.9-4.7-.3-6.5 4.9-12 5.1-12.2l2.6 2.7-1.3-1.4 1.3 1.4c0 0-4.2 4.5-4 9.2.2 4.5-1.7 6.4-3 7.8-1 1.1-1.4 1.4-1.2 2.9.8 5-1.1 7-2.6 8.5-1.2 1.3-2.1 2.1-1.5 5.5l-3.8.7" fill="#c28fef"/><path d="m59.5 57.5c.8-5.4-1.2-7.4-2.7-9-1.2-1.2-1.9-2-1.5-5 .6-3.5-1.1-5.2-2.3-6.4-1.2-1.2-2-2-1.9-4.7.3-6.5-4.9-12-5.1-12.2l-2.6 2.7 1.3-1.4-1.3 1.4c0 0 4.2 4.5 4 9.2-.2 4.5 1.7 6.4 3 7.8 1 1.1 1.4 1.4 1.2 2.9-.8 5 1.2 7 2.6 8.5 1.2 1.3 2.1 2.1 1.5 5.5l3.8.7" fill="#83bf4f"/><g fill="#42ade2"><path transform="matrix(.7071-.7071.7071.7071-18.6201 25.4129)" d="m19.4 33.2h4v4h-4z"/><path transform="matrix(.7071-.7071.7071.7071-25.0871 51.3699)" d="m47.5 54h4v4h-4z"/></g><g fill="#83bf4f"><path transform="matrix(.7071-.7071.7071.7071-26.3413 26.4612)" d="m16.8 43h4v4h-4z"/><path transform="matrix(.7071-.7071.7071.7071-10.7864 31.5143)" d="m30.6 26.8h4v4h-4z"/></g><g fill="#ed4c5c"><path transform="matrix(.7071-.7071.7071.7071-34.9053 27.6654)" d="m13.9 54h4v4h-4z"/><path transform="matrix(.7071-.7071.7071.7071-18.4185 46.6152)" d="m45.1 43.5h4v4h-4z"/></g><g fill="#c28fef"><path transform="matrix(.7071-.7071.7071.7071-29.7046 39.3498)" d="m30.6 53.5h4v4h-4z"/><path transform="matrix(.7071-.7071.7071.7071-12.2172 41.704)" d="m42.2 33.6h4v4h-4z"/></g><path transform="matrix(.7071-.7071.7071.7071-20.6923 36.2035)" fill="#ed4c5c" d="m31.4 41.1h4v4h-4z"/></svg>