<?xml version="1.0" encoding="UTF-8" standalone="no"?><svg xmlns:dc="http://purl.org/dc/elements/1.1/" xmlns:cc="http://creativecommons.org/ns#" xmlns:rdf="http://www.w3.org/1999/02/22-rdf-syntax-ns#" xmlns:svg="http://www.w3.org/2000/svg" xmlns="http://www.w3.org/2000/svg" viewBox="0 0 45 45" style="enable-background:new 0 0 45 45;" xml:space="preserve" version="1.1" id="svg2"><metadata id="metadata8"><rdf:RDF><cc:Work rdf:about=""><dc:format>image/svg+xml</dc:format><dc:type rdf:resource="http://purl.org/dc/dcmitype/StillImage"/></cc:Work></rdf:RDF></metadata><defs id="defs6"><clipPath id="clipPath16" clipPathUnits="userSpaceOnUse"><path id="path18" d="M 0,36 36,36 36,0 0,0 0,36 Z"/></clipPath></defs><g transform="matrix(1.25,0,0,-1.25,0,45)" id="g10"><g id="g12"><g clip-path="url(#clipPath16)" id="g14"><g transform="translate(27.999,0)" id="g20"><path id="path22" style="fill:#fcab40;fill-opacity:1;fill-rule:nonzero;stroke:none" d="m 0,0 c -0.448,0 -0.855,0.303 -0.969,0.758 -0.036,0.136 -0.926,3.435 -4.272,4.272 -4.704,1.176 -4.758,7.693 -4.758,7.97 0,0.552 0.447,0.998 0.998,0.999 0.554,-0.034 1,-0.445 1.002,-0.997 0,-0.053 0.054,-5.234 3.242,-6.032 C -0.227,5.838 0.925,1.43 0.971,1.242 1.105,0.707 0.779,0.164 0.243,0.03 0.162,0.01 0.08,0 0,0"/></g><g transform="translate(18,11)" id="g24"><path id="path26" style="fill:#bb1a34;fill-opacity:1;fill-rule:nonzero;stroke:none" d="m 0,0 c -1.1,0 -1.598,0.805 -1.105,1.789 l 1.21,2.422 c 0.493,0.984 1.297,0.984 1.79,0 L 3.105,1.789 C 3.598,0.805 3.1,0 2,0 L 0,0 Z"/></g><g transform="translate(28,27)" id="g28"><path id="path30" style="fill:#bb1a34;fill-opacity:1;fill-rule:nonzero;stroke:none" d="m 0,0 c 0,-6 -7,-12 -9,-12 -2,0 -9,6 -9,12 0,5.799 4.581,9 9,9 4.418,0 9,-3.201 9,-9"/></g><g transform="translate(20,14)" id="g32"><path id="path34" style="fill:#fcab40;fill-opacity:1;fill-rule:nonzero;stroke:none" d="m 0,0 -2,0 c -0.552,0 -1,0.447 -1,1 0,0.553 0.448,1 1,1 L 0,2 C 0.553,2 1,1.553 1,1 1,0.447 0.553,0 0,0"/></g></g></g></g></svg>
