<svg xmlns="http://www.w3.org/2000/svg" viewBox="0 0 64 64" enable-background="new 0 0 64 64"><path d="m62 37.6c0 16-20.9 24.4-30 24.4-9.1 0-30-8.4-30-24.4 0-18.9 12.4-29 26.1-26.4 1.7.3 5.1.7 6.4.4 15.5-4.3 27.5 6.6 27.5 26" fill="#e9841a"/><g fill="#ba6b24"><path d="m18.2 37.9c0-13.2 4.8-19.2 9.2-25.8-10.1 2-19.8 6.5-19.8 24.9 0 14.3 12.2 22.6 20 24.5-5.4-5.8-9.4-13.7-9.4-23.6"/><path d="m45.6 37.9c0-13.2-6.4-18.8-10.7-25.4 9.8 2 20.8 6.1 20.8 24.5 0 14.3-11.8 22.6-19.3 24.5 5.3-5.8 9.2-13.7 9.2-23.6"/><path d="m37.2 35c0 20.1-5.2 27-5.2 27s-5.2-6.9-5.2-27 5.4-25 5.4-25 5 4.9 5 25"/></g><g fill="#ffce31"><path d="m25.7 28.7c1.1 5.3-4.4 9.6-5.8 9.2-4.5-1.4-10.6-10.5-10.6-12.3 0-1.5 11.1 3.6 12.2 4 1.6.5 3.9-2.2 4.2-.9"/><path d="m38.3 28.7c-1.1 5.3 4.4 9.6 5.8 9.2 4.5-1.4 10.6-10.5 10.6-12.3 0-1.5-11.1 3.6-12.2 4-1.6.5-3.9-2.2-4.2-.9"/></g><g fill="#fff"><path d="m25.7 28.7c1.1 5.3-4.4 9.6-5.8 9.2-4.5-1.4-7.4-8-7.4-9.8 0-1.5 7.9 1.1 9 1.4 1.6.6 3.9-2.1 4.2-.8"/><path d="m38.3 28.7c-1.1 5.3 4.4 9.6 5.8 9.2 4.5-1.4 7.4-8 7.4-9.8 0-1.5-7.9 1.1-9 1.4-1.6.6-3.9-2.1-4.2-.8"/></g><path d="m37.7 38.7c0 3.4-2.6.3-5.7.3-3.2 0-5.7 3-5.7-.3 0-3.4 4.5-5.4 5.7-5.4 1.2 0 5.7 2 5.7 5.4" fill="#ffce31"/><path d="m36.2 36.8c0 2.2-1.9.2-4.2.2-2.3 0-4.2 2-4.2-.2 0-2.2 3.3-3.6 4.2-3.6.9.1 4.2 1.4 4.2 3.6" fill="#fff"/><path fill="#ffce31" d="m6.8 35.5l3.1 12.8 4.8-2.1 3.7 6.5 6.3-2.4 4.2 4.8 3.8-4.5 7.4 5.3 2.9-6.8 3.6 3.6 2.3-5.7 3.4 2 6.4-13.5-7.3 8.4-3.3-3.4-2.8 5.2-4.6-2.5-3 4.3-4.9-3.7-4.1 5.6-4.3-5.8-5.2 3-2.9-5.6-4.7 2.5z"/><path fill="#fff" d="m17.9 48.4l6.2-.8 4.6 5 4.3-3.9 6.1 4.2 2.8-6.2 4.2 1.1 2-7.3-2.8 5.2-4.6-2.5-3 4.3-4.9-3.7-4.1 5.6-4.3-5.8-5.2 3-2.9-5.6z"/><path d="m24.1 12.9c0 0 1.6.9 1.4 2.2 0 0 5.5.8 9.6.4 0 0 1-3-.2-4.2-.4-.4.7-4.8 2.8-6 .7-.4-4.5-4.1-6-2.9-4.3 3.6-4.4 8.9-4.4 8.9-1.9.5-3.2 1.6-3.2 1.6" fill="#83bf4f"/><path d="m25.5 15.1c0 0 2.1-1.8 1.8-3.9 0 0-2.2.7-3.1 1.7-.1 0 1.3.8 1.3 2.2" fill="#699635"/><path d="m35.1 15.5c0 0-3.5-5.8.5-10.2.5-.6 2.5-.3 2.5-.3-1.8 1.6-3.3 5.3-2.4 6.1.9.9 2.9 1.9 3.5 2.4.6.4-2.7.6-4.1 2" fill="#75a843"/><path d="m37.9 5.3c-.7.4-2.6.1-4.3-.8-1.6-.9-2.4-1.9-1.7-2.3.7-.4 2.6-.1 4.3.8 1.6.8 2.4 1.9 1.7 2.3" fill="#adea73"/></svg>