<?xml version="1.0" encoding="utf-8"?>
<!-- Generator: Adobe Illustrator 25.2.3, SVG Export Plug-In . SVG Version: 6.00 Build 0)  -->
<svg version="1.1" id="Layer_2" xmlns="http://www.w3.org/2000/svg" xmlns:xlink="http://www.w3.org/1999/xlink" x="0px" y="0px"
	 viewBox="0 0 128 128" style="enable-background:new 0 0 128 128;" xml:space="preserve">
<radialGradient id="SVGID_1_" cx="65.9224" cy="65.1974" r="70.091" gradientTransform="matrix(0.0156 -0.9999 1.1028 0.0172 -7.0046 129.9884)" gradientUnits="userSpaceOnUse">
	<stop  offset="0.1637" style="stop-color:#EE5416"/>
	<stop  offset="0.2337" style="stop-color:#E95216"/>
	<stop  offset="0.3112" style="stop-color:#DC4D17"/>
	<stop  offset="0.3923" style="stop-color:#C64418"/>
	<stop  offset="0.4755" style="stop-color:#A7391A"/>
	<stop  offset="0.4969" style="stop-color:#9E351B"/>
	<stop  offset="0.5763" style="stop-color:#8D311B"/>
	<stop  offset="0.734" style="stop-color:#60281A"/>
	<stop  offset="0.9508" style="stop-color:#191919"/>
</radialGradient>
<path style="fill:url(#SVGID_1_);" d="M116.69,124.19H11.38c-4.15,0-7.52-3.37-7.52-7.52V11.37c0-4.15,3.37-7.52,7.52-7.52h105.3
	c4.15,0,7.52,3.37,7.52,7.52v105.3C124.21,120.83,120.84,124.19,116.69,124.19z"/>
<radialGradient id="SVGID_2_" cx="66.1051" cy="69.1262" r="35.7239" gradientUnits="userSpaceOnUse">
	<stop  offset="0.4147" style="stop-color:#F3A05C"/>
	<stop  offset="0.9987" style="stop-color:#AB5931"/>
</radialGradient>
<polygon style="fill:url(#SVGID_2_);" points="61.57,76.36 61.29,124.2 68.26,124.19 69.29,73.48 65.2,69.85 "/>
<path style="fill:#FFFFFF;" d="M69.2,58.22l21.5-30.56l4.43,0.38l-19.8,30.6c0,0,21.02-17.22,22.15-17.97
	c1.13-0.75,1.79-0.57,2.36,0s0.28,1.41-0.75,2.26S73.91,62.8,73.91,62.8l32.91-8.57l4.05,1.04l-4.24,2.45l-32.31,8.35l36.08,4.38
	c0,0,2.07,0.47,1.79,2.26c-0.28,1.79-1.79,1.6-2.64,1.6c-0.85,0-33.61-3.17-33.61-3.17s21.45,13.54,22.49,14.2
	c1.04,0.66,1.6,1.98,1.04,2.92c-0.57,0.94-1.79,0.75-3.11,0.19C95.04,87.89,74.21,74.8,74.21,74.8l24.12,34.48l-0.57,4.62
	c0,0-1.32-1.04-2.36-2.45c-1.04-1.41-28.13-36.76-29.64-36.85c-1.51-0.09-29.84,27.8-29.84,27.8l-6.03,0.38l3.02-5l22.69-24.3
	c0,0-37.2,13.28-38.9,13.65c-1.7,0.38-3.58,1.41-4.24-0.38s1.41-2.36,2.83-2.83s38.69-14.11,38.69-14.11l-25.96-1.92l-1.89-3.68
	l27.14,2.34L18.12,46.32l6.32-1.79L55.1,60.36c0,0-26.14-28.94-26.99-29.88c-0.85-0.94-1.57-2.2-0.47-3.2
	c1.13-1.04,2.73,0.38,3.39,1.23c0.66,0.85,28.82,30.99,28.54,30.33c-0.28-0.66-14.59-37.87-14.59-37.87l1.32-2.36l3.49,2.73
	l14.35,36.54l1.11-37.2l3.96,2.55L69.2,58.22z"/>
<path style="fill:#FFE268;" d="M46.05,14.31c0,0,4.91-4.89,5.67-5.47c1.08-0.81,2.5-0.2,1.69,1.42c-0.81,1.62-4.39,7.02-4.39,7.02
	s8.34,6.38,9.11,6.95c1.08,0.81,0.13,2.36-0.94,1.82c-1.08-0.54-10.06-5.67-10.06-5.67s-3.41,12.25-3.78,13.09
	c-0.74,1.69-2.09,1.55-2.23-0.13c-0.13-1.57,0.94-13.23,0.94-13.23s-11.14-1.08-13.23-1.35c-2.09-0.27-2.09-2.42,0.47-2.36
	c2.83,0.07,12.35,0.07,12.35,0.07s-0.94-5.26-1.21-7.09C40.17,7.56,41.6,7.17,42.4,8.5C43.21,9.85,46.05,14.31,46.05,14.31z"/>
<path style="fill:#FFE268;" d="M65.42,22.81c-1.01-0.47-7.76-6.82-8.37-7.56c-0.61-0.74-0.08-2.21,1.48-1.35
	c1.64,0.9,5.88,3.3,5.88,3.3s0.4-5.93,0.54-7.21c0.2-1.96,1.48-1.82,1.89,0s1.2,6.95,1.2,6.95s10.25-6.85,11.21-7.49
	c1.42-0.94,2.7,0.13,1.21,1.82c-1.48,1.69-10.65,9.88-10.44,10.01c0.2,0.13,5.04,2.51,6.12,3.22c1.75,1.15,1.15,2.63-0.88,1.96
	c-2.02-0.67-6.42-2.62-7.23-2.89C67.23,23.3,65.42,22.81,65.42,22.81z"/>
<path style="fill:#FFE268;" d="M93.63,29.36c-0.27-0.07-9.18-2.02-10.06-2.43c-0.88-0.4-0.81-1.82,0.67-1.42
	c1.48,0.4,6.34,1.21,6.34,1.21s-4.45-9.52-4.99-10.8c-0.54-1.28,0.4-1.96,1.35-1.08c0.94,0.88,4.93,5.47,4.93,5.47
	s0.47-5.6,0.81-7.22s1.75-1.21,2.09,0.13c0.23,0.94,1.32,8.35,1.32,8.35s10.82-3.91,12.24-4.37c1.89-0.61,2.5,0.54,0.88,1.69
	c-1.62,1.15-10.53,6.01-10.33,6.28c0.2,0.27,5.4,1.55,6.68,1.96c1.28,0.4,1.42,1.89-0.34,2.02C103.48,29.29,93.63,29.36,93.63,29.36
	z"/>
<path style="fill:#FFE268;" d="M109.55,52.44c0.13,0.07,4.32-8.5,5.2-9.72c0.88-1.21,1.75-0.34,1.69,0.61
	c-0.07,0.94-2.63,9.72-2.63,9.72s4.86,0.13,6.34,0.27c1.48,0.13,1.75,1.35,0.07,1.82c-1.69,0.47-6.34,1.69-6.34,1.69
	s2.29,3.64,3.44,5.53c0.78,1.28-0.13,2.5-1.48,1.48c-1.35-1.01-5.47-5.94-5.47-5.94s-5.4,7.29-6.41,8.5s-2.69,0.64-1.61-1.25
	c0.81-1.42,5.94-9.75,5.94-9.75s-10.68-3.43-11.8-3.85c-1.62-0.61-1.37-2.15,0.52-1.81C98.89,50.08,109.42,52.37,109.55,52.44z"/>
<path style="fill:#FFE268;" d="M110.96,72.74c0,0-3.45-5.1-3.83-5.92c-0.47-1.01,0.07-1.82,1.35-1.08s5.2,3.71,5.2,3.71
	s0.88-1.15,1.89-2.23c1.01-1.08,1.94-0.81,1.43,0.88c-0.41,1.38-1,3.32-1,3.32s3.02,0.91,4.1,1.31c0.92,0.35,1.35,1.23-0.27,1.7
	c-0.8,0.23-3.71,0.67-3.71,0.67s2.36,5.33,2.83,6.41c0.67,1.55-1.15,2.63-2.09,0.81c-0.64-1.23-3.17-5.74-3.17-5.74
	s-5.9,6.19-6.88,7.02c-1.28,1.08-2.29,0.88-1.75-0.81S110.96,72.74,110.96,72.74z"/>
<path style="fill:#FFE268;" d="M96.53,110.82c0,0,4.49-17.12,4.89-18.56c0.54-1.96,2.53-1.89,2.4,0.06
	c-0.14,2.02-2.23,18.41-2.23,18.41s8.57-1.63,10.26-2.1c1.69-0.47,3.04,0.29,1.15,1.51c-1.89,1.21-10.46,6.01-10.46,6.01
	s0.74,2.7,1.35,4.59c0.51,1.59-0.18,2.06-1.67,0.98c-1.05-0.76-3.57-2.94-3.57-2.94s-1.85,2.79-2.63,3.52
	c-0.84,0.79-1.72,1.07-1.51-0.68c0.14-1.22,0.93-5.1,0.93-5.1c0.01,0.06-11.64-2.23-13.4-2.68c-1.64-0.42-1.98-1.13-0.29-1.2
	S96.53,110.82,96.53,110.82z"/>
<path style="fill:#FFE268;" d="M33.29,100.97c0,0-0.15-7.82-0.27-9.79c-0.13-2.16-1.69-2.43-2.36-0.34
	c-0.59,1.84-2.23,8.03-2.23,8.03s-7.02-6.61-8.1-7.63s-2.29,0-1.69,1.21c0.61,1.21,5.82,11.88,5.82,11.88s-5.08,7.16-6.02,9.05
	c-0.94,1.89,0.34,2.43,1.75,1.89s8.09-5.11,8.09-5.11s7.29,7.61,8.17,8.35c0.88,0.74,2.16,0.2,1.69-1.35
	c-0.49-1.59-4.61-10.33-4.61-10.33s10.82-3.24,12.31-3.71c1.48-0.47,1.08-2.29-0.61-2.23S33.29,100.97,33.29,100.97z"/>
<path style="fill:#FFE268;" d="M26.54,62.43c0,0,5.67-2.77,6.68-3.31c1.01-0.54,2.02,0.61,1.01,1.62s-5.06,4.79-5.06,4.79
	s3.91,3.91,4.86,4.72c0.94,0.81,0.54,2.09-1.08,1.69c-1.62-0.4-6.41-2.9-6.41-2.9s-2.3,4.56-2.77,5.26
	c-0.67,1.01-1.96,0.81-2.02-0.67c-0.07-1.48,0.12-5.68,0.12-5.68s-6.85-1.39-10.18-2.29c-1.24-0.33-1.55-1.75,0.27-1.96
	s10.19-0.67,10.19-0.67s0.48-4.97,0.61-6.01c0.13-1.08,1.15-1.28,1.75-0.13C25.12,58.04,26.54,62.43,26.54,62.43z"/>
<path style="fill:#FFE268;" d="M21.55,46.91c0,0,0,7.36,0.07,8.23c0.07,0.88-1.21,1.48-1.69,0.13c-0.47-1.35-2.7-7.71-2.7-7.71
	s-4.59,4.47-5.6,5.35s-2.43,0.34-1.75-1.08c0.67-1.42,3.94-7.18,3.94-7.18s-5.15-4.16-6.3-5.17C5.82,38,6.7,36.78,8.18,37.25
	s7.97,3.06,7.97,3.06s3.73-7.03,4.11-7.79c0.81-1.62,1.82-1.21,1.75,0.54c-0.07,1.75-0.94,8.3-0.94,8.3s6.94-1.13,8.37-1.35
	c2.16-0.34,2.36,0.54,0.81,1.82C28.7,43.13,21.55,46.91,21.55,46.91z"/>
</svg>
