<?xml version="1.0" encoding="utf-8"?>
<!-- Generator: Adobe Illustrator 25.2.3, SVG Export Plug-In . SVG Version: 6.00 Build 0)  -->
<svg version="1.1" id="Layer_2" xmlns="http://www.w3.org/2000/svg" xmlns:xlink="http://www.w3.org/1999/xlink" x="0px" y="0px"
	 viewBox="0 0 128 128" style="enable-background:new 0 0 128 128;" xml:space="preserve">
<path style="fill:#AEB0B0;" d="M49.65,13.04c-0.37-1.01-1.99-2.13-3.74-0.98c-1.36,0.9-1.28,2.51-0.95,3.57s34.82,99.92,35.06,100.4
	c0.24,0.48,1.62,1.5,3.06,0.96s2.22-1.98,2.04-2.7C84.95,113.57,50.13,14.35,49.65,13.04z"/>
<g>
	<path style="fill:#C8C8C8;" d="M81.66,115.48c-0.41,0-0.8-0.26-0.94-0.67L45.67,14.44c-0.18-0.52,0.09-1.09,0.61-1.27
		c0.52-0.18,1.09,0.09,1.27,0.61l35.05,100.37c0.18,0.52-0.09,1.09-0.61,1.27C81.88,115.46,81.77,115.48,81.66,115.48z"/>
</g>
<path style="fill:#AEB0B0;" d="M81.55,15.23c0.4-0.98,0.5-2.69-1.57-3.49c-2.07-0.8-3.19,0.26-3.46,1
	c-0.27,0.73-34.75,99.52-35.12,100.58c-0.37,1.06,0.1,3.07,1.71,3.53c1.61,0.46,3.14-0.24,3.38-0.84
	C47.03,114.64,81.27,15.91,81.55,15.23z"/>
<g>
	<path style="fill:#C8C8C8;" d="M43.66,114.44c-0.11,0-0.22-0.02-0.33-0.06c-0.52-0.18-0.8-0.75-0.61-1.27l34.81-99.57
		c0.18-0.52,0.75-0.8,1.27-0.61s0.8,0.75,0.61,1.27l-34.81,99.57C44.46,114.19,44.08,114.44,43.66,114.44z"/>
</g>
<path style="fill:#9A9A9A;" d="M68.54,52.52c0,0,6.77-0.32,14.14,5.74c6.25,5.14,12.13,10.38,16.84,12.09
	c4.71,1.7,8.3,1.82,9.05,1.27c0.75-0.55,1-2.72,0.85-3.02S82.63,46.55,82.63,46.55l-12.99,2.91L68.54,52.52z"/>
<path style="fill:#9A9A9A;" d="M58.01,53.04c0,0-7.63-0.48-14.14,2.18c-7.83,3.19-11.08,8.12-17.05,11.68
	c-5.22,3.12-10.05,3.64-10.98,3.41c-0.6-0.15-1.14-1.04-1.25-1.61c-0.31-1.52,24.52-19.3,24.52-19.3l17.57-0.19L58.01,53.04z"/>
<path style="fill:#DADADA;" d="M69.49,49.81l12.23-35.1c0,0,7.82-1.7,17.45,4.81c6.86,4.64,8.72,8.12,13.64,10.78
	c5.4,2.92,10.98,2.96,11.68,3.96c0.55,0.78-3.06,6.72-6.87,15.59c-3.71,8.65-8.37,20.51-8.37,20.51s-4.85-0.07-9.33-2.26
	c-9.53-4.66-14.24-11.83-21.06-15.44C72.87,49.5,69.49,49.81,69.49,49.81z"/>
<path style="fill:#DADADA;" d="M57.1,50.4L44.91,15.4c0,0-5.5-2.14-13.48,0.72s-11.28,7.47-17,10.08S3.4,29.55,3.3,30.45
	c-0.1,0.9,1.02,3.86,2.47,8.07s3.9,14.98,5.05,19.56c1.51,6.01,3.76,10.63,3.76,10.63s5.52-0.2,10.13-3.11s11.07-9.87,17.2-12.34
	C49.88,50.06,57.1,50.4,57.1,50.4z"/>
<path style="fill:#FEFEFE;" d="M7.47,32.17c-0.16,0.33,3.8,11.84,4.78,16.64c1.99,9.72,4.59,16.57,4.59,16.57s4.84-0.89,8.39-3.59
	c4.27-3.24,10.39-8.74,16.05-11.25c6.91-3.05,12.79-3.1,12.79-3.1L43.62,17.53c0,0-5.96-1.69-12.29,1.62s-9.64,6.62-14.43,8.98
	C11.58,30.74,7.62,31.88,7.47,32.17z"/>
<path style="fill:#FEFEFE;" d="M82.92,17.82c-0.15,0.29-10.45,29.3-10.38,29.66c0.07,0.37,6.48,0.81,12.22,5.59
	c5.68,4.73,10.67,9.94,14.72,11.85c4.05,1.91,7.21,2.13,7.21,2.13s4.61-9.75,6.77-15.31c2.58-6.62,6.92-15.24,6.99-15.6
	c0.07-0.37-6.84-1.45-11.04-4.56c-4.56-3.39-6.04-6.85-14.13-11.11C86.84,16.02,82.92,17.82,82.92,17.82z"/>
<path style="fill:#DB0D27;" d="M101.91,31.22c-5.46-3.51-13.25-2.06-15.6,4.27s0.15,12.29,5.89,15.53
	c5.74,3.24,14.47,0.65,15.46-7.14C108.32,38.65,106.84,34.38,101.91,31.22z"/>
<path style="fill:#DB0D27;" d="M25.88,29.01c-8.17,3.68-7.02,12.19-5.37,15.68c1.91,4.05,6.74,7.77,15.02,4.56
	c8.54-3.31,8.07-11.25,6.11-15.16C39.27,29.38,33.98,25.36,25.88,29.01z"/>
</svg>
