<?xml version="1.0" encoding="UTF-8" standalone="no"?><svg xmlns:dc="http://purl.org/dc/elements/1.1/" xmlns:cc="http://creativecommons.org/ns#" xmlns:rdf="http://www.w3.org/1999/02/22-rdf-syntax-ns#" xmlns:svg="http://www.w3.org/2000/svg" xmlns="http://www.w3.org/2000/svg" viewBox="0 0 45 45" style="enable-background:new 0 0 45 45;" xml:space="preserve" version="1.1" id="svg2"><metadata id="metadata8"><rdf:RDF><cc:Work rdf:about=""><dc:format>image/svg+xml</dc:format><dc:type rdf:resource="http://purl.org/dc/dcmitype/StillImage"/></cc:Work></rdf:RDF></metadata><defs id="defs6"><clipPath id="clipPath16" clipPathUnits="userSpaceOnUse"><path id="path18" d="M 0,36 36,36 36,0 0,0 0,36 Z"/></clipPath></defs><g transform="matrix(1.25,0,0,-1.25,0,45)" id="g10"><g id="g12"><g clip-path="url(#clipPath16)" id="g14"><g transform="translate(36,11)" id="g20"><path id="path22" style="fill:#939598;fill-opacity:1;fill-rule:nonzero;stroke:none" d="m 0,0 c 0,-5.523 -8.059,-10 -18,-10 -9.941,0 -18,4.477 -18,10 0,5.523 8.059,10 18,10 C -8.059,10 0,5.523 0,0"/></g><g transform="translate(36,13)" id="g24"><path id="path26" style="fill:#f1f2f2;fill-opacity:1;fill-rule:nonzero;stroke:none" d="m 0,0 c 0,-5.523 -8.059,-10 -18,-10 -9.941,0 -18,4.477 -18,10 0,5.523 8.059,10 18,10 C -8.059,10 0,5.523 0,0"/></g><g transform="translate(32.7998,14)" id="g28"><path id="path30" style="fill:#ccd6dd;fill-opacity:1;fill-rule:nonzero;stroke:none" d="m 0,0 c 0,-4.54 -6.626,-8.223 -14.8,-8.223 -8.174,0 -14.8,3.683 -14.8,8.223 0,4.54 6.626,8.222 14.8,8.222 C -6.626,8.222 0,4.54 0,0"/></g><g transform="translate(29,14)" id="g32"><path id="path34" style="fill:#8a4b38;fill-opacity:1;fill-rule:nonzero;stroke:none" d="m 0,0 c 0,-3.068 -4.926,-5.556 -11,-5.556 -6.075,0 -11,2.488 -11,5.556 0,3.068 4.925,5.556 11,5.556 C -4.926,5.556 0,3.068 0,0"/></g><g transform="translate(31.4033,13.957)" id="g36"><path id="path38" style="fill:#ad5540;fill-opacity:1;fill-rule:nonzero;stroke:none" d="m 0,0 c 0,-3.891 -6.001,-7.044 -13.403,-7.044 -7.403,0 -13.404,3.153 -13.404,7.044 0,3.889 6.001,7.043 13.404,7.043 C -6.001,7.043 0,3.889 0,0"/></g><g transform="translate(31,15)" id="g40"><path id="path42" style="fill:#662113;fill-opacity:1;fill-rule:nonzero;stroke:none" d="M 0,0 C 0,-9 -26,-9 -26,0 L -26,8 0,8 0,0 Z"/></g><g transform="translate(31.4033,23.9565)" id="g44"><path id="path46" style="fill:#ad5540;fill-opacity:1;fill-rule:nonzero;stroke:none" d="m 0,0 c 0,-3.89 -6.001,-7.043 -13.403,-7.043 -7.403,0 -13.404,3.153 -13.404,7.043 0,3.89 6.001,7.044 13.404,7.044 C -6.001,7.044 0,3.89 0,0"/></g><g transform="translate(11,23)" id="g48"><path id="path50" style="fill:#88c9f9;fill-opacity:1;fill-rule:nonzero;stroke:none" d="m 0,0 c -0.552,0 -1,0.448 -1,1 l 0,7 C -1,8.552 -0.552,9 0,9 0.552,9 1,8.552 1,8 L 1,1 C 1,0.448 0.552,0 0,0"/></g><g transform="translate(18,20)" id="g52"><path id="path54" style="fill:#88c9f9;fill-opacity:1;fill-rule:nonzero;stroke:none" d="m 0,0 c -0.552,0 -1,0.448 -1,1 l 0,7 C -1,8.552 -0.552,9 0,9 0.552,9 1,8.552 1,8 L 1,1 C 1,0.448 0.552,0 0,0"/></g><g transform="translate(25,23)" id="g56"><path id="path58" style="fill:#88c9f9;fill-opacity:1;fill-rule:nonzero;stroke:none" d="m 0,0 c -0.553,0 -1,0.448 -1,1 l 0,7 C -1,8.552 -0.553,9 0,9 0.553,9 1,8.552 1,8 L 1,1 C 1,0.448 0.553,0 0,0"/></g><g transform="translate(25,29.5)" id="g60"><path id="path62" style="fill:#ffac33;fill-opacity:1;fill-rule:nonzero;stroke:none" d="m 0,0 c -1.061,0 -1.896,0.486 -2.233,1.299 -0.292,0.706 -0.438,2.238 1.879,4.555 0.196,0.195 0.512,0.195 0.708,0 C 2.671,3.537 2.525,2.005 2.233,1.299 1.896,0.486 1.062,0 0,0"/></g><g transform="translate(18,26.5)" id="g64"><path id="path66" style="fill:#ffac33;fill-opacity:1;fill-rule:nonzero;stroke:none" d="m 0,0 c -1.061,0 -1.896,0.486 -2.233,1.299 -0.293,0.706 -0.437,2.238 1.879,4.555 0.196,0.195 0.512,0.195 0.708,0 C 2.671,3.537 2.525,2.005 2.233,1.299 1.896,0.486 1.062,0 0,0"/></g><g transform="translate(11,29.5)" id="g68"><path id="path70" style="fill:#ffac33;fill-opacity:1;fill-rule:nonzero;stroke:none" d="m 0,0 c -1.062,0 -1.896,0.486 -2.233,1.299 -0.293,0.706 -0.437,2.238 1.879,4.555 0.196,0.195 0.512,0.195 0.708,0 C 2.67,3.537 2.526,2.005 2.233,1.299 1.896,0.486 1.061,0 0,0"/></g></g></g></g></svg>
