<svg xmlns="http://www.w3.org/2000/svg" viewBox="0 0 64 64" enable-background="new 0 0 64 64"><g fill="#5f6262"><path d="m40.7 10.9h4.1c-.3-14.5-20-14.5-20.3 0h4.1c.3-9.3 11.7-9.3 12.1 0"/><path d="m45.5 10.8v2.7c7.3 1.3 13.8 7.3 13.8 18.1v14.8c0 5-6.5 6-13.8 6v2.4c8.2 0 18.5-1.1 18.5-6.7v-16.6c0-13.6-9.2-20.5-18.5-20.7"/></g><path d="m34 6.3c-3.8 0-15 2.2-15 2.2s-9.4 11.4-9.4 24.1v21.1c0 6.1 6.1 8 14.2 8.4l.9 1.8c0 0 32.5.7 32.5-10.3v-21c0-17.2-11.1-26.3-23.2-26.3" fill="#428bc1"/><path d="M47.6,55.4c0,7.2-8.4,8.6-18.9,8.6h-9.9C8.4,64,0,62.6,0,55.4V34.3c0-35.1,47.6-35.1,47.6,0V55.4z" fill="#42ade2"/><path d="m47.6 45.2l-38 8.6c0 6.1 6.1 8 14.2 8.4l.9 1.8c0 0 32.5.7 32.5-10.3v-10.3l-9.6 1.8" fill="#5f6262"/><path d="M47.6,55.4c0,7.2-8.4,8.6-18.9,8.6h-9.9C8.4,64,0,62.6,0,55.4V45.2h47.6V55.4z" fill="#7e8484"/><path d="m44 52.4c0 2.9-2.4 5.3-5.3 5.3h-30.8c-2.9 0-5.3-2.4-5.3-5.3v-18.2c0-2.9 2.4-5.3 5.3-5.3h30.9c2.9 0 5.3 2.4 5.3 5.3v18.2z" fill="#428bc1"/><path d="m43 52c0 2.8-2.2 5.1-5 5.1h-29.4c-2.8 0-5-2.3-5-5.1v-17.4c0-2.8 2.2-5.1 5-5.1h29.4c2.8 0 5 2.3 5 5.1v17.4" fill="#42ade2"/><path fill="#428bc1" d="m43 43.3h-39.4v-4.7h39.4"/><path fill="#93ced6" d="m3.6 39.2h39.5v3.4h-39.5z"/><path fill="#42ade2" d="m3.6 39.9h39.5v2h-39.5z"/><g fill="#93ced6"><path d="m4.4 37.2h2.3v.7h-2.3z"/><path d="m7.6 37.2h2.3v.7h-2.3z"/><path d="m10.8 37.2h2.3v.7h-2.3z"/><path d="m14 37.2h2.3v.7h-2.3z"/><path d="m17.3 37.2h2.3v.7h-2.3z"/><path d="m20.5 37.2h2.3v.7h-2.3z"/><path d="m23.7 37.2h2.3v.7h-2.3z"/><path d="m27 37.2h2.3v.7h-2.3z"/><path d="m30.2 37.2h2.3v.7h-2.3z"/><path d="m33.4 37.2h2.3v.7h-2.3z"/><path d="m36.7 37.2h2.3v.7h-2.3z"/><path d="m39.9 37.2h2.3v.7h-2.3z"/><path d="m4.4 44h2.3v.7h-2.3z"/><path d="m7.6 44h2.3v.7h-2.3z"/><path d="m10.8 44h2.3v.7h-2.3z"/><path d="m14 44h2.3v.7h-2.3z"/><path d="m17.3 44h2.3v.7h-2.3z"/><path d="m20.5 44h2.3v.7h-2.3z"/><path d="m23.7 44h2.3v.7h-2.3z"/><path d="m27 44h2.3v.7h-2.3z"/><path d="m30.2 44h2.3v.7h-2.3z"/><path d="m33.4 44h2.3v.7h-2.3z"/><path d="m36.7 44h2.3v.7h-2.3z"/><path d="m39.9 44h2.3v.7h-2.3z"/></g><ellipse cx="33.1" cy="41.1" rx="2.3" ry="1.9" fill="#fff"/><g fill="#c9c9c9"><path d="m33.1 43.3c-1.4 0-2.6-1-2.6-2.2 0-1.2 1.2-2.2 2.6-2.2 1.4 0 2.6 1 2.6 2.2 0 1.3-1.2 2.2-2.6 2.2m0-3.7c-1.1 0-2 .7-2 1.5 0 .8.9 1.5 2 1.5s2-.7 2-1.5c0-.8-.9-1.5-2-1.5"/><path d="m32.6 40.3h2.8v1.6h-2.8z"/></g><path d="m35.2 47.4c.1.8-.2 1.6-.9 1.6h-1.3c-.6 0-1-.8-.9-1.6l.6-3.4c0-.3.3-.5.6-.5h.7c.3 0 .6.2.6.5l.6 3.4" fill="#fff"/><path d="m34.3 49.3h-1.3c-.3 0-.6-.2-.9-.4-.3-.4-.4-1-.3-1.6l.6-3.4c.1-.4.5-.8 1-.8h.6c.5 0 .9.3 1 .8l.6 3.4c.1.6 0 1.2-.3 1.6-.3.3-.6.4-1 .4m-1-5.5c-.2 0-.3.1-.3.2l-.6 3.4c-.1.4 0 .8.2 1 .1.1.2.2.4.2h1.3c.1 0 .3-.1.4-.2.2-.2.3-.6.2-1l-.6-3.4c0-.1-.1-.2-.3-.2h-.7" fill="#c9c9c9"/><path fill="#9b9596" d="m33.4 40.1h.6v4.1h-.6z"/><path transform="matrix(.707-.7072.7072.707.09814 35.132)" fill="#c9c9c9" d="m41.7 16h1.6v2.8h-1.6z"/><path d="m43.8 24.5c.1.8-.2 1.6-.9 1.6h-1.3c-.6 0-1-.8-.9-1.6l.6-3.4c0-.3.3-.5.6-.5h.6c.3 0 .6.2.6.5l.7 3.4" fill="#fff"/><path d="m42.9 26.5h-1.3c-.3 0-.6-.2-.9-.4-.3-.4-.4-1-.3-1.6l.6-3.4c.1-.4.5-.8 1-.8h.6c.5 0 .9.3 1 .8l.6 3.4c.1.6 0 1.2-.3 1.6-.4.2-.7.4-1 .4m-1-5.6c-.2 0-.3.1-.3.2l-.6 3.4c-.1.4 0 .8.2 1 .1.1.2.2.4.2h1.3c.1 0 .3-.1.4-.2.2-.2.3-.6.2-1l-.6-3.4c0-.1-.1-.2-.3-.2h-.7" fill="#c9c9c9"/><path fill="#9b9596" d="m41.9 17.2h.6v4.1h-.6z"/></svg>