<svg xmlns="http://www.w3.org/2000/svg" viewBox="0 0 64 64" enable-background="new 0 0 64 64"><path d="m33.9 31.8c0 1.1-.9 1.9-1.9 1.9s-1.9-.9-1.9-1.9h-.9c0 1.6 1.3 2.8 2.8 2.8s2.8-1.3 2.8-2.8c0 0-.9 0-.9 0" fill="#ffc200"/><g fill="#e68a00"><path d="m33 37.3h-2v-4c0-1.6 2-1.6 2 0v4"/><ellipse cx="32" cy="48.5" rx="13.5" ry="13.5"/></g><ellipse cx="32" cy="48.5" rx="12.5" ry="12.5" fill="#ffc200"/><g fill="#e68a00"><path d="m30.3 46.2l-1.8-2.4-7.8 1.2 5.7 1.8z"/><path d="m33.7 46.2l1.8-2.4-3.5-7v5.9z"/><path d="m34.8 49.5l2.8 1 5.7-5.5-5.7 1.8z"/><path d="m32 51.6v2.9l7 3.7-3.5-4.8z"/><path d="m29.2 49.5l-2.8 1-1.4 7.7 3.5-4.8z"/></g><g fill="#ffe394"><path d="m32 42.7v-5.9l-3.5 7 1.8 2.4z"/><path d="m37.6 46.8l5.7-1.8-7.8-1.2-1.8 2.4z"/><path d="m34.8 49.5l.7 3.9 3.5 4.8-1.4-7.7z"/><path d="m28.5 53.4l-3.5 4.8 7-3.7v-2.9z"/><path d="m26.4 46.8l-5.7-1.8 5.7 5.5 2.8-1z"/></g><g fill="#f3f7fa"><path d="m22 28.2l2.3 3.8h2.7v-30h-5z"/><path d="m37 2v30h2.7l2.3-3.8v-26.2z"/></g><g fill="#42ade2"><path d="m17 20l5 8.2v-26.2h-5z"/><path d="m27 2h10v30h-10z"/><path d="m42 2v26.2l5-8.2v-18z"/></g><path fill="#d3976e" d="m23 30.1h18v1h-18z"/><path fill="#89664c" d="m23 31.1h18v1h-18z"/></svg>