<?xml version="1.0" encoding="utf-8"?>
<!-- Generator: Adobe Illustrator 25.2.3, SVG Export Plug-In . SVG Version: 6.00 Build 0)  -->
<svg version="1.1" id="Layer_3" xmlns="http://www.w3.org/2000/svg" xmlns:xlink="http://www.w3.org/1999/xlink" x="0px" y="0px"
	 viewBox="0 0 128 128" style="enable-background:new 0 0 128 128;" xml:space="preserve">
<g>
	<path style="fill:#424242;" d="M99.06,91.42c0,0-15.11,14.18-35.09,14.18S28.89,91.42,28.89,91.42s-2.81-13.49,4.45-36.78
		c3.83-12.28,58.33-13.53,62.6-2.79C103.2,70.08,99.06,91.42,99.06,91.42z"/>
	<path style="fill:#212121;" d="M28.89,91.42l4.79,3.84c0,0-0.04-7.6,2.31-14.69c0.88-2.65,4.02-3.76,6.38-2.27l18.29,11.47
		c2.05,1.28,4.63,1.3,6.7,0.05C76.1,84.52,98.9,70.65,99.94,69.8c0,0,0-1.71-0.43-3.89L28.63,66L28.89,91.42z"/>
	<path style="fill:#424242;" d="M122.81,52.03l-56.8,33.83c-1.24,0.74-2.79,0.74-4.04,0L5.19,52.03c-1.58-0.94-1.58-3.23,0-4.17
		l56.8-33.83c1.24-0.74,2.79-0.74,4.04,0l56.8,33.83C124.4,48.8,124.4,51.09,122.81,52.03z"/>
	<path style="fill:#9E9E9E;" d="M64.04,83.38c-0.01,0-0.03,0.01-0.04,0.01c-0.16,0-0.32-0.04-0.46-0.13L4.18,49.04
		c0,0-0.29,0.55,0,1.54c0.3,0.99,0.76,1.31,1.01,1.46l56.8,33.83c0.62,0.37,1.32,0.56,2.02,0.56c0.01,0,0.03,0,0.04,0V83.38z"/>
	<path style="fill:#616161;" d="M64,83.38c0.01,0,0.03,0.01,0.04,0.01c0.16,0,0.32-0.04,0.46-0.13l59.36-34.22c0,0,0.29,0.55,0,1.54
		c-0.3,0.99-0.76,1.31-1.01,1.46l-56.8,33.83c-0.62,0.37-1.32,0.56-2.02,0.56c-0.01,0-0.03,0-0.04,0V83.38z"/>
	<path style="fill:#424242;" d="M35.45,70.06l0.32-2.81c0,0,24.51-13.33,26.93-14.73c2.42-1.4,4.96-2.96,6.09-4.21
		c2-2.2,0.56-3.58,0.56-3.58s-1.58,2.56-5.35,2.11c-2.16-0.26-4.97-2.01-5.44-2.83s-27.67,19.9-27.67,19.9l-0.19,3.33L35.45,70.06z"
		/>
	<path style="fill:#E2A610;" d="M69.35,44.74c-2.62,3.66-7.06,2.06-7.06,2.06s-13.91,6.67-14.43,5.66s11.49-7.19,11.49-7.19
		s-0.67-2.46-0.6-3.51c0,0-21.72,13.82-29.87,18.47c-4.27,2.44-5.18,4.74-5.17,7.98c0,1.42,0.02,6.03,0.04,8.78
		c0,0.51-0.22,0.99-0.61,1.31c-1.15,0.95-1.89,2.38-1.89,3.99c0,1.53,0.67,2.9,1.73,3.85c0.57,0.51,0.45,1.61,0.5,2.32
		c0.1,1.36,0,1.98-0.56,3.24c-0.55,1.23-1.06,2.49-1.41,3.79c-0.27,1-0.45,2.03-0.63,3.05c-1.19,6.83-1.73,14.13-4.88,20.41
		c-0.25,0.49-0.05,1.09,0.45,1.34c0.14,0.07,0.3,0.11,0.45,0.11c0.37,0,0.72-0.2,0.9-0.55c1.64-3.27,2.49-6.85,3.19-10.4
		c-0.04,3.21-0.06,6.45-0.17,9.95c-0.02,0.68-0.07,2.05,0.55,2.35c2.33,1.13,2.33-2.35,2.33-2.35s0.03,3.13,3.2,3.13
		s3.4-3.13,3.4-3.13s0.23,2.87,1.86,2.73c0.66-0.06,1.53-0.46,1.22-3.89c-0.31-3.42-1.08-15.68-1.41-19.56
		c-0.46-5.37-2.22-8.56-2.58-10.46c-0.13-0.72-0.14-1.47,0.43-1.94c1.15-0.95,1.89-2.38,1.89-3.99c0-1.55-0.68-2.94-1.76-3.89
		c-0.41-0.36-0.62-0.88-0.58-1.42c0.19-2.59,0.4-6.35,0.57-7.22c0.74-3.91,2.67-4.61,4.65-5.77c1.98-1.17,30.66-14.19,32.33-15.3
		C70.01,46.62,69.35,44.74,69.35,44.74z"/>
	<path style="fill:#FFCA28;" d="M69.35,44.74c-2.47,3.49-7.6,1.93-7.6,1.93s-13.11,5.81-12.24,4.76c0.86-1.05,9.84-6.16,9.84-6.16
		s-0.67-2.46-0.6-3.51c0,0-22.1,12.77-30.67,18.91c-2.21,1.59-4.95,4.19-2.72,6.78c1.03,1.19,3.02,1.44,4.29,0.5
		c0.77-0.56,1.37-1.38,2.05-2.03c0.84-0.82,1.86-1.34,2.86-1.93c1.98-1.17,30.66-14.19,32.33-15.3
		C70.01,46.62,69.35,44.74,69.35,44.74z"/>
	<path style="fill:#9E740B;" d="M26.11,91.86c-1.32,0-2.21-0.11-3.02-0.3c-0.3-0.07-0.5-0.34-0.48-0.65l0.26-3.82
		c0.03-0.39,0.4-0.66,0.78-0.55c0.9,0.26,2.7,0.52,5.64-0.1c0.36-0.08,0.72,0.17,0.76,0.54l0.4,3.8c0.03,0.31-0.17,0.6-0.47,0.67
		C28.45,91.8,27.34,91.86,26.11,91.86z"/>
	<path style="fill:#616161;" d="M99.06,91.42c0,0,1.77-9.24,1.06-19.07c-0.12-1.66-1.14-3.09-1.93,2.72
		c-0.45,3.33-1.43,13.3-3.1,19.53C97.64,92.76,99.06,91.42,99.06,91.42z"/>
	<path style="fill:#616161;" d="M65.73,36.79c0.73,0.23,1.4,0.79,1.59,1.54c0.25,1-0.38,2-1.06,2.78c-1.33,1.53-3.16,2.87-5.19,2.8
		c-0.67-0.02-1.39-0.24-1.8-0.77c-0.29-0.37-0.39-0.85-0.42-1.32C58.67,38.39,62.55,35.79,65.73,36.79z"/>
</g>
</svg>
