<?xml version="1.0" encoding="utf-8"?>
<!-- Generator: Adobe Illustrator 25.2.3, SVG Export Plug-In . SVG Version: 6.00 Build 0)  -->
<svg version="1.1" id="Layer_2" xmlns="http://www.w3.org/2000/svg" xmlns:xlink="http://www.w3.org/1999/xlink" x="0px" y="0px"
	 viewBox="0 0 128 128" style="enable-background:new 0 0 128 128;" xml:space="preserve">
<path style="fill:#176BC6;" d="M35.96,3.19c-0.46,0.28-0.2,24.41,0.09,24.9c0.36,0.61,5.11,5.04,9.34,8.73
	c3.31,2.88,6.23,0.86,6.78,0.86c1.25,0,22.25,0.23,22.88,0.23c0.26,0,3.98,2.17,7.11-0.49c4.45-3.8,9.8-8.57,9.89-9.27
	c0.09-0.68,0.1-24.66-0.23-24.87c-0.15-0.1-3.94-0.16-9.23-0.22c-4.5-0.05-13.67,2.26-19.52,2.24c-7.5-0.02-11.79-2.36-17.63-2.31
	C40.09,3.03,36.13,3.08,35.96,3.19z"/>
<path style="fill:#FFFFFF;" d="M45.42,2.96l-0.03,33.86c0,0,1.64,1.46,3.29,2.81c1.56,1.28,3.13,2.45,3.25,2.44
	c1.09-0.08,23.76,0.48,24.23,0.25c0.26-0.13,1.95-1.46,3.54-2.77c1.23-1.02,2.48-2.1,2.48-2.1l0.45-34.41c0,0-2.84-0.01-6.56-0.04
	c-0.02,0-9.26,1.08-12.76,1.09c-4.2,0.01-8.04-1.16-11.74-1.16C47.29,2.93,45.42,2.96,45.42,2.96z"/>
<path style="fill:#DB0D2A;" d="M51.82,42.1c-0.63-0.47-0.26-39.17-0.26-39.17s4.14-0.05,12.93-0.01c7.66,0.03,11.58,0.08,11.58,0.08
	s0.36,38.64-0.03,39.27c-0.39,0.63-6.8,3.83-11.18,3.9S52.13,42.34,51.82,42.1z"/>
<path style="fill:#FBC21F;" d="M64.25,52.54c2.08-0.12,12.26-9.96,12.07-10.28c-0.13-0.22-6.19-0.25-12.31-0.28
	s-12.27-0.16-12.3,0.06C51.66,42.47,61.69,52.69,64.25,52.54z"/>
<path style="fill:#FBC21F;" d="M63.99,50.82c-0.69,0-1.16,1.3-1.57,2.18S51.68,76.93,51.55,77.14c-0.14,0.2-23.35,0.41-24.44,0.55
	c-1.09,0.14-1.89,0.54-1.89,1.02s-0.15,1.46,0.46,1.93c0.61,0.48,19.42,16.04,19.42,16.38c0,0.34-6.14,24.95-6.07,25.5
	c0.07,0.55,0.42,1.13,0.83,1.47c0.41,0.34,0.69,0.33,1.38,0.18c1.29-0.28,21.63-12.77,21.91-12.7c0.27,0.07,21.18,12.36,21.72,12.43
	c0.55,0.07,1.16,0,1.56-0.28s0.81-1.35,0.6-2.1c-0.2-0.75-4.42-22.44-4.28-22.85c0.14-0.41,18.07-15.89,18.41-16.57
	c0.34-0.68-0.31-2.28-0.92-2.76c-0.61-0.48-23.64-2.12-24.12-2.39c-0.48-0.27-10.02-23.74-10.15-24.22S64.74,50.82,63.99,50.82z"/>
<path style="fill:#FDEFAA;" d="M54.45,77.27c0,0.52,6.48,13.43,6.89,13.43c0.41,0,2.86-1.02,2.86-1.02s0.07-33.2-0.14-32.86
	C63.86,57.16,54.45,76.18,54.45,77.27z"/>
<path style="fill:#FDEFAA;" d="M67.95,90.98c-0.26-0.32,6-10.43,6.82-10.77c0.82-0.34,22.84,0.95,22.77,1.43
	C97.47,82.11,68.22,91.32,67.95,90.98z"/>
<path style="fill:#FDEFAA;" d="M47.7,97.39c-0.33,0.29-5.18,20.66-4.91,21.13c0.27,0.48,18-20.93,17.93-21.34s0.07-4.23,0.07-4.23
	S48.24,96.91,47.7,97.39z"/>
<path style="fill:#F6922C;" d="M66.02,89.69c-0.07-0.21-0.66-2.94-0.8-3.67c-0.14-0.69-0.62-1.45-1.31-1.45
	c-0.66,0-1.16,0.71-1.38,1.66c-0.31,1.31-0.79,3.46-0.79,3.46s-2.56-0.22-3.14-0.24c-0.9-0.03-1.97,0.03-2.14,0.83
	c-0.11,0.49,0.05,1.14,1.38,1.97c1.11,0.69,2.42,1.45,2.42,1.45s-0.39,1.45-0.69,2.76c-0.17,0.76-0.59,2.18,0.14,2.56
	c0.72,0.38,1.56-0.24,2.38-1.04c0.53-0.51,1.76-1.69,1.76-1.69s1.54,1.17,2.12,1.64c0.7,0.57,1.8,0.93,2.35,0.45
	c0.59-0.52,0.46-1.38,0.14-2.32c-0.35-1-1.04-2.49-1.04-2.49s2.38-1.5,2.82-1.81c0.45-0.31,0.97-1.04,0.66-1.83
	c-0.21-0.54-1.11-0.73-1.87-0.59S66.02,89.69,66.02,89.69z"/>
<path style="fill:#F6922C;" d="M73.74,89.06c0.34,1.21,1.54,0.97,3.67,0.43c2.12-0.53,22.2-6.72,22.88-6.95
	c0.74-0.25,1.88-1.11,1.54-2.12c-0.34-1.02-1.4-1.26-2.61-0.97c-1.21,0.29-21.14,7-22.45,7.48C75.92,87.25,73.4,87.85,73.74,89.06z"
	/>
<path style="fill:#F6922C;" d="M64.04,81.11c1.25-0.14,1.16-2.8,1.33-4.98c0.17-2.18,0.47-23.49,0.47-24.21
	c0-0.78-0.47-2.03-1.54-2.03c-1.07,0-1.62,0.82-1.73,2.05c-0.11,1.24-0.01,22.47,0.07,23.85C62.78,77.99,62.85,81.25,64.04,81.11z"
	/>
<path style="fill:#F6922C;" d="M53.28,88.82c0.31-1.21-2.1-2.08-4.12-2.92c-2.02-0.85-21.03-7.6-21.72-7.83
	c-0.74-0.24-1.99-0.23-2.33,0.78c-0.34,1.02,0.19,1.83,1.33,2.33s20.05,6.95,21.39,7.31C49.96,89.05,52.96,90.07,53.28,88.82z"/>
<path style="fill:#F6922C;" d="M58.07,100.98c-1.07-0.66-2.64,1.04-4.12,2.66s-14.1,17.48-14.55,18.05
	c-0.48,0.62-0.96,1.97-0.11,2.62c0.84,0.66,1.86,0.27,2.71-0.64c0.85-0.91,13.21-16.67,13.99-17.82
	C57.23,104.04,59.09,101.61,58.07,100.98z"/>
<path style="fill:#F6922C;" d="M69.89,100.64c-0.94,0.83,0.48,2.53,1.6,4.41c1.12,1.88,12.16,17.66,12.58,18.25
	c0.45,0.64,1.6,1.49,2.48,0.87c0.88-0.62,0.8-1.7,0.18-2.77c-0.62-1.07-12.17-16.89-13.04-17.97
	C72.3,101.72,70.79,99.85,69.89,100.64z"/>
</svg>
