<svg xmlns="http://www.w3.org/2000/svg" viewBox="0 0 64 64" enable-background="new 0 0 64 64"><path d="M13.1,30.2V37c0,14,37.7,14,37.7,0v-6.8H13.1z" fill="#596066"/><path fill="#3e4347" d="M62 25.4 32 38.9 2 25.4 32 11.9z"/><g fill="#ffce31"><path d="m31.9 24.8c-4.6 2.1-14.6 6.6-15 6.8-.2.1-.4.3-.4.6 0 2.2 0 4.5 0 6.8 0 .8 1 .8 1 0 0-2.1 0-4.2 0-6.3 4.5-2 14.2-6.4 14.6-6.6.6-.3.4-1.5-.2-1.3"/><ellipse cx="17" cy="38.9" rx="1.9" ry="2.4"/><path d="m17 51.9c1 0 1.9-.5 1.9-1.2v-11.8h-3.8v11.8c0 .7.9 1.2 1.9 1.2"/></g><g fill="#594640"><path d="m18.3 39.2c-.1 0-.1.1-.2.1v12.4c.1 0 .1-.1.2-.1v-12.4"/><path d="m17.5 39.5c-.1 0-.1 0-.2 0v12.4c.1 0 .1 0 .2 0v-12.4"/><path d="m16.7 39.5c-.1 0-.1 0-.2 0v12.4c.1 0 .1 0 .2 0v-12.4"/><path d="m15.9 39.3c-.1 0-.1-.1-.2-.1v12.5c.1 0 .1.1.2.1v-12.5"/></g></svg>