<?xml version="1.0" encoding="UTF-8" standalone="no"?><svg xmlns:dc="http://purl.org/dc/elements/1.1/" xmlns:cc="http://creativecommons.org/ns#" xmlns:rdf="http://www.w3.org/1999/02/22-rdf-syntax-ns#" xmlns:svg="http://www.w3.org/2000/svg" xmlns="http://www.w3.org/2000/svg" viewBox="0 0 45 45" style="enable-background:new 0 0 45 45;" xml:space="preserve" version="1.1" id="svg2"><metadata id="metadata8"><rdf:RDF><cc:Work rdf:about=""><dc:format>image/svg+xml</dc:format><dc:type rdf:resource="http://purl.org/dc/dcmitype/StillImage"/></cc:Work></rdf:RDF></metadata><defs id="defs6"><clipPath id="clipPath16" clipPathUnits="userSpaceOnUse"><path id="path18" d="M 0,36 36,36 36,0 0,0 0,36 Z"/></clipPath><clipPath id="clipPath32" clipPathUnits="userSpaceOnUse"><path id="path34" d="m 4,32.666 c 0,-0.034 0.017,-0.067 0.022,-0.101 l 0,0 C 4.009,32.455 4,32.335 4,32.2 l 0,0 L 5.801,8.615 C 2.299,7.705 0,6.424 0,5 L 0,5 C 0,2.238 8.611,0 18,0 l 0,0 c 9.389,0 18,2.238 18,5 l 0,0 c 0,1.424 -2.298,2.705 -5.801,3.615 l 0,0 L 32,32.184 c 0,0.135 -0.008,0.263 -0.021,0.372 l 0,0 C 31.982,32.59 32,32.632 32,32.666 l 0,0 c 0,1.805 -6.269,3.267 -14,3.267 l 0,0 c -7.732,0 -14,-1.462 -14,-3.267"/></clipPath></defs><g transform="matrix(1.25,0,0,-1.25,0,45)" id="g10"><g id="g12"><g clip-path="url(#clipPath16)" id="g14"><g transform="translate(30.1982,8.6152)" id="g20"><path id="path22" style="fill:#292f33;fill-opacity:1;fill-rule:nonzero;stroke:none" d="m 0,0 1.802,23.568 c 0,0.136 -0.008,0.264 -0.022,0.373 0.004,0.034 0.022,0.076 0.022,0.11 0,1.804 -6.269,3.267 -14,3.267 -7.732,0 -14,-1.463 -14,-3.267 0,-0.034 0.017,-0.068 0.022,-0.102 -0.014,-0.109 -0.022,-0.229 -0.022,-0.364 L -24.396,0 c -3.504,-0.91 -5.802,-2.191 -5.802,-3.615 0,-2.762 8.611,-5 18,-5 9.389,0 18,2.238 18,5 C 5.802,-2.191 3.504,-0.91 0,0"/></g><g transform="translate(17.5356,29.4048)" id="g24"><path id="path26" style="fill:#66757f;fill-opacity:1;fill-rule:nonzero;stroke:none" d="m 0,0 c -4.89,0 -8.602,0.896 -10.852,1.646 -0.524,0.175 -0.807,0.742 -0.632,1.266 0.174,0.523 0.738,0.807 1.265,0.632 C -7.33,2.581 0.543,0.653 11.202,3.56 11.731,3.702 12.284,3.392 12.429,2.858 12.575,2.326 12.26,1.776 11.727,1.63 7.321,0.429 3.379,0 0,0"/></g></g></g><g id="g28"><g clip-path="url(#clipPath32)" id="g30"><g transform="translate(8.6045,5.208)" id="g36"><path id="path38" style="fill:#744eaa;fill-opacity:1;fill-rule:nonzero;stroke:none" d="m 0,0 c 4.458,-1.708 13.958,-1.646 18.807,-0.149 1.466,0.453 2.776,1.733 2.776,3.191 0,3.256 3.742,7.25 2.271,6.75 -8.271,-2.813 -19.771,-3 -28.25,0.208 -9.995,3.782 0.125,-2.625 0.792,-3.875 0.4,-0.751 0.833,-1.347 0.833,-2.73 C -2.771,1.645 -1.482,0.567 0,0"/></g></g></g></g></svg>
