<svg xmlns="http://www.w3.org/2000/svg" viewBox="0 0 64 64" enable-background="new 0 0 64 64"><path fill="#428bc1" d="m30.9 49.5v-.1z"/><path d="m43.6 6.9c-6.8 0-13-1.9-17.4-4.9-.8 3.6-1.3 7.6-1.3 11.8 0 17.6 18.6 31.9 18.6 31.9s18.5-14.3 18.5-31.9c0-4.1-.4-8-1.3-11.6-4.4 2.9-10.4 4.7-17.1 4.7" fill="#42ade2"/><g fill="#3e4347"><path d="m51.6 32.6c0-1.8-3.7-7.1-8.2-7.1-4.5 0-8.2 5.4-8.2 7.1 0 1.8 3.7-.8 8.2-.8 4.6 0 8.2 2.5 8.2.8"/><path d="m41.2 14.9c-1.2-.5-3.6-1.6-5.2-1.6-1.4 0-4 1-5.3 1.6-1.1.5-1.3.9-1 1.6.2.7 1 1.1 1.8.9 0 0 3.2-1.5 4.4-1.5 1.2 0 4.5 1.5 4.5 1.5.8.2 1.6-.2 1.8-.9.3-.6.1-1.1-1-1.6"/><path d="m56.7 14.9c-1.2-.5-3.6-1.6-5.2-1.6-1.4 0-4 1-5.3 1.6-1.1.5-1.3.9-1 1.6.2.7 1 1.1 1.8.9 0 0 3.2-1.5 4.4-1.5 1.2 0 4.5 1.5 4.5 1.5.8.2 1.6-.2 1.8-.9.3-.6.1-1.1-1-1.6"/></g><path d="m19.5 26.7c-6.2 2.3-12.5 2.6-17.5 1.3.4 3.6 1.3 7.4 2.7 11.1 5.8 16.1 27.4 22.9 27.4 22.9s12.1-19.1 6.3-35.1c-1.3-3.7-3-7.1-5-10.1-3 4.1-7.9 7.7-13.9 9.9" fill="#ff717f"/><g fill="#3e4347"><path d="m33.6 42.8c.6 1.6-1 7.7-5.1 9.2-4.1 1.5-9.2-2.2-9.8-3.8-.6-1.6 3.6-.5 7.7-2 4.1-1.5 6.6-5 7.2-3.4"/><path d="m19.3 35c-1.3-.1-3.8-.3-5.2.2-1.3.5-3.3 2.3-4.2 3.2-.9.8-.9 1.3-.5 1.8.4.6 1.3.7 2 .2 0 0 2.4-2.4 3.5-2.8 1.1-.4 4.6-.1 4.6-.1.8-.1 1.4-.7 1.4-1.4-.1-.7-.4-1.1-1.6-1.1"/><path d="m33.4 29.8c-1.3-.1-3.8-.3-5.2.2-1.3.5-3.3 2.3-4.2 3.2-.8.8-.8 1.3-.4 1.8.4.6 1.3.7 2 .2 0 0 2.4-2.4 3.5-2.8 1.1-.4 4.6-.1 4.6-.1.8-.1 1.4-.7 1.4-1.4-.2-.6-.5-1-1.7-1.1"/></g><path d="m25 13.8c-.2 1.8-.6 3.5-1.3 5.2-.3.8-.8 1.6-1.3 2.4-.6.8-1.3 1.5-2.3 1.9-1 .4-2.2.3-3-.1-.9-.4-1.6-.9-2.3-1.5-1.4-1.1-2.8-2.3-3.8-3.8-.5-.8-.9-1.7-1.1-2.6-.2-1-.2-1.9 0-2.9.3-1.9 1.3-3.7 2.5-5.1 1.3-1.4 2.9-2.5 4.6-3.1 1.7-.7 3.7-.9 5.4-.2v.2c-1.7 0-3.3.6-4.7 1.4-1.4.8-2.6 1.9-3.7 3.1-1 1.2-1.9 2.6-2.2 4.1-.4 1.5-.2 3.1.4 4.6.6 1.5 1.7 2.9 3.1 3.9.7.5 1.5.9 2.2 1 .8.1 1.5 0 2-.4 1.1-.8 2.1-2.2 2.9-3.6.9-1.5 1.6-3 2.5-4.5h.1" fill="#dbb046"/><path d="m24.8 13.9c-1.8-1.2-3.9-1.7-5.7-1.4-.9.1-1.7.5-2.1 1.1-.4.6-.5 1.5-.3 2.4.1.5.2.9.4 1.4.2.5.4 1.1.5 1.6.2 1.1.2 2.3 0 3.4-.5 2.2-2.1 4.2-4.4 4.9-1.1.4-2.4.4-3.6-.1-1.2-.5-2.1-1.4-2.8-2.4-.7-1-1.2-2.1-1.4-3.3-.3-1.2-.2-2.4-.1-3.5.3-2.3 1.1-4.3 1.6-6.3.3-1 .5-2 .2-2.9-.2-.8-1-1.6-1.9-2.1l.1-.2c.5.1 1.1.3 1.6.6.5.3 1 .8 1.2 1.3.6 1.2.5 2.4.4 3.5-.3 2.2-.9 4.3-1.1 6.3-.2 2 0 3.9 1 5.6.9 1.6 2.6 2.7 4.6 2.4.9-.2 1.9-.6 2.6-1.3.7-.7 1.2-1.7 1.4-2.7.2-1 0-2-.4-3-.2-.5-.4-.9-.7-1.4-.3-.5-.5-1-.7-1.6-.2-.6-.3-1.2-.2-1.9 0-.7.3-1.4.7-1.9.9-1.2 2.3-1.6 3.4-1.7 2.4-.1 4.7 1 6 2.8l-.3.4" fill="#ffce31"/><circle cx="24.9" cy="13.8" r="2.5" fill="#ffd86c"/><path d="m42.1 38.6c-1.1 1.5-1.9 3.1-2.6 4.9-.3.9-.5 1.9-.6 2.9-.1 1 0 2.1.6 3.2.5 1.1 1.6 1.9 2.6 2.3 1 .4 2 .5 3 .7 1.9.2 3.9.4 5.9 0 1-.2 1.9-.6 2.8-1.1.8-.6 1.6-1.3 2.1-2.2 1.1-1.7 1.6-3.8 1.5-5.8-.1-2-.6-4.1-1.6-5.9-.5-.9-1.1-1.8-1.8-2.6l-.7.9c.4.7.7 1.5 1 2.3.6 1.7.9 3.5.9 5.2 0 1.7-.3 3.4-1 4.8-.7 1.4-2 2.5-3.5 3.2-1.6.7-3.5.9-5.3.5-.9-.1-1.8-.5-2.6-1-.8-.5-1.2-1.2-1.4-1.9-.4-1.4-.2-3.2.1-5 .3-1.8.8-3.5 1.1-5.4h-.5" fill="#dbb046"/><path d="m40.9 37.9c2.2.8 4.2 2.3 5.3 4.1.6.9.8 1.9.6 2.6-.2.7-.8 1.4-1.7 1.8-.4.2-.9.4-1.4.6-.5.2-1.1.4-1.7.6-1 .6-2 1.4-2.6 2.4-1.4 1.9-1.8 4.6-.7 7.1.5 1.2 1.5 2.4 2.7 3.1 1.2.7 2.6 1 3.9.9 1.3-.1 2.5-.4 3.7-1 1.1-.6 2.1-1.4 2.9-2.2 1.6-1.8 2.7-3.8 3.9-5.6.6-.9 1.3-1.7 2.1-2.1.9-.4 2-.2 3.1.3l.1-.2c-.5-.4-1-.8-1.6-1-.6-.2-1.3-.3-2-.2-1.3.3-2.3 1.2-3.1 2-1.6 1.7-2.8 3.6-4.3 5.1-1.4 1.5-3.1 2.6-5.2 2.8-2 .3-4.1-.5-5.2-2.4-.6-.9-.9-2.1-.8-3.2 0-1.1.4-2.2 1.1-3 .7-.8 1.6-1.3 2.7-1.6.5-.1 1-.2 1.6-.3.6-.1 1.2-.2 1.8-.4.6-.2 1.2-.5 1.7-1 .5-.5.9-1.1 1.1-1.9.3-1.5-.3-3-1.2-4.1-1.7-2.2-4.3-3.4-6.6-3.4l-.2.2" fill="#ffce31"/><ellipse transform="matrix(.7695-.6386.6386.7695-14.7314 34.8373)" cx="40.9" cy="37.8" rx="2.5" ry="2.8" fill="#ffd86c"/></svg>