<svg xmlns="http://www.w3.org/2000/svg" viewBox="0 0 64 64" enable-background="new 0 0 64 64"><path fill="#686b6d" d="m16.1 31.2l-10.9-.7v-13.5z"/><g fill="#333"><path d="m4.9 11.7l6 9.8 5.4-.6-6.4-10.1z"/><path d="m3.2 22.3l2.7-.3-3.4-5.7z"/><path d="m15.3 9.8l7 10.4 6.5-.7-7.6-10.8z"/><path d="m27.7 7.5l8.3 11.2 7.9-.8-9-11.7z"/><path d="m59.3 16.2l-.6-4.4-7.1-8.7-8.8 1.6 9.9 12.2z"/></g><g fill="#fff"><path d="m21.2 8.7l7.6 10.8 7.2-.8-8.3-11.2z"/><path d="m9.9 10.8l6.4 10.1 6-.7-7-10.4z"/><path d="m42.8 4.7l-7.9 1.5 9 11.7 8.8-1z"/><path d="m2 12.2l.5 4.1 3.4 5.7 5-.5-6-9.8z"/><path d="m58.3 8.2l-.7-6.2-6 1.1 7.1 8.7z"/></g><path fill="#ebf2f2" d="m58.7 11.8l2.9 4.1-1.7-13.7-2.3-.2z"/><path fill="#686b6d" d="m59.3 16.2l-.6-4.4 2.9 4.1z"/><path fill="#333" d="m3 22.8v8.9l56.7 3.7v-12.6z"/><g fill="#fff"><path d="m22.8 33l6.5.4 7.1-10.6h-7.2z"/><path d="m11.3 32.3l5.5.3 5.9-9.8h-6z"/><path d="m36.6 33.9l8 .5 8.7-11.6h-8.9z"/><path d="m6.2 22.8l-3.2 6.1v2.8l3.2.2 5-9.1z"/><path d="m59.7 26.7l-6.3 8.3 6.3.4z"/></g><path fill="#ebf2f2" d="m59.7 26.7l2.3-3.9v12.2l-2.3.4z"/><path fill="#686b6d" d="m59.7 22.8v3.9l2.3-3.9z"/><path fill="#333" d="m3 31.7v18l56.7 12.3v-26.6z"/><g fill="#fff"><path d="m59.7 36.9l-56.7-4.2v-1.2l56.7 3.7z"/><path d="m59.7 53.1l-56.7-9.4v-1l56.7 8.9z"/><path d="m59.7 45.7l-56.7-7v-1l56.7 6.6z"/><path d="m13.8 45l-1-.2v-5.4l1 .1z"/></g><path fill="#181919" d="m13.4 32.4l-11-.7v-13.4z"/><g fill="#fff"><path d="m4.6 22.2c0 .6-.4 1-.9 1-.5 0-.8-.4-.8-1 0-.6.4-1 .8-1 .5 0 .9.5.9 1"/><path d="m4.6 29.9c0 .6-.4 1-.9 1-.5 0-.8-.5-.8-1 0-.6.4-1 .8-1 .5 0 .9.5.9 1"/><path d="m10.2 30.2c0 .6-.4 1-.9 1-.5 0-.9-.5-.9-1.1s.4-1 .9-1c.4 0 .9.5.9 1.1"/></g><path fill="#686b6d" d="m62 60.5l-2.3 1.5v-25.1l2.3-.4z"/><g fill="#ebf2f2"><path d="m62 35l-2.3.4v1.5l2.3-.4z"/><path d="m62 43.7l-2.3.6v1.4l2.3-.6z"/><path d="m62 50.7l-2.3 1v1.4l2.3-1z"/></g></svg>