<svg xmlns="http://www.w3.org/2000/svg" viewBox="0 0 64 64" enable-background="new 0 0 64 64"><path fill="#ed4c5c" d="m56.2 38h-24.2-24.2l-5.8 26h30 30z"/><path fill="#f2f2f2" d="m10.2 64h13.4l1.7-26h-11.6z"/><path d="m2 38c0 2.3 2.6 4.2 5.8 4.2s5.8-1.9 5.8-4.2c.1 0-11.6 0-11.6 0" fill="#c94747"/><path d="m13.7 38c0 2.3 2.6 4.2 5.8 4.2 3.2 0 5.8-1.9 5.8-4.2 0 0-11.6 0-11.6 0" fill="#d0d0d0"/><path fill="#f2f2f2" d="m53.8 64h-13.4l-1.7-26h11.6z"/><path d="m62 38c0 2.3-2.6 4.2-5.8 4.2s-5.8-1.9-5.8-4.2c-.1 0 11.6 0 11.6 0" fill="#c94747"/><path d="m50.3 38c0 2.3-2.6 4.2-5.8 4.2s-5.8-1.9-5.8-4.2c0 0 11.6 0 11.6 0" fill="#d0d0d0"/><path d="m32 12c-1.2 10.4-14.2 26-30 26h30 30c-15.8 0-28.8-15.6-30-26" fill="#ed4c5c"/><g fill="#fff"><path d="m13.7 38h11.6c0 0 6.7-7.9 6.7-26 0 0-6.7 26-18.3 26"/><path d="M32,12c0,18.1,6.7,26,6.7,26h11.6C38.7,38,32,12,32,12z"/></g><path d="m32 38h-6.7c0 2.3 3.4 4.2 6.7 4.2 3.2 0 6.7-1.9 6.7-4.2 0 0-6.7 0-6.7 0" fill="#c94747"/><path fill="#3e4347" d="m32 42.1l-10.6 21.9h21.3z"/><g fill="#c94747"><path d="m21.4 64c0 0-2.4 0-4.1-4.9 0 0 4.1-.5 14.7-16.9 0-.1-5.3 21.8-10.6 21.8"/><path d="m42.6 64c0 0 2.4 0 4.1-4.9 0 0-4.1-.5-14.7-16.9 0-.1 5.3 21.8 10.6 21.8"/></g><path fill="#94989b" d="m31.2 4.9h1.6v9.7h-1.6z"/><path fill="#d0d0d0" d="m31.6 4.9h.8v9.7h-.8z"/><ellipse cx="32" cy="5.4" rx="1.5" ry="1.4" fill="#ed4c5c"/><path d="m32 5.9c-.7 0-1.2-.4-1.5-.9-.1.1-.1.3-.1.4 0 .8.7 1.4 1.5 1.4s1.5-.6 1.5-1.4c0-.1 0-.3-.1-.4 0 .5-.6.9-1.3.9" fill="#c94747"/><ellipse cx="32.4" cy="4.9" rx=".4" ry=".4" fill="#ffc7ce"/><path d="m32.8 7.1c0 1.4 0 2.7 0 4.1 2.9-3.1 5.8 1.1 8.6-2-2.8 1.7-5.7-3.9-8.6-2.1" fill="#ed4c5c"/></svg>