<svg xmlns="http://www.w3.org/2000/svg" viewBox="0 0 64 64" enable-background="new 0 0 64 64"><g fill="#3e4347"><path d="m61.3 41.8c-3.2-7.5-15.3-1-29.3-1-14.1 0-26.1-6.5-29.3 1-3.7 7.2 7.8 20.1 29.3 20.1 21.5 0 33-12.9 29.3-20.1"/><path d="m32 1.9c-14 .1-24.1 6.2-22.7 9.6 3.8 12.5 5.2 23.8 4 36.3 12.6 3 24.9 2.8 37.4-.2-1.2-12.5.2-23.6 4-36.1 1.4-3.4-8.6-9.5-22.7-9.6"/></g><path d="m13.6 40.5c.2 2.5-1.1 7.3-1.1 7.3 11.6 11.1 27.4 11.1 39 0 0 0-1.1-4.7-1.1-7.3-11.8 10.7-25 10.7-36.8 0" fill="#ed4c5c"/><path d="m55 10.4c0 4.7-10.3 8.4-23 8.4-12.7 0-23-3.8-23-8.4 0-4.7 10.3-8.5 23-8.5 12.7 0 23 3.8 23 8.5" fill="#656d72"/></svg>