<svg xmlns="http://www.w3.org/2000/svg" viewBox="0 0 64 64" enable-background="new 0 0 64 64"><path d="m64 53.8c0 2.6-1.7 4.6-3.9 4.6h-56.2c-2.1 0-3.9-2.1-3.9-4.6v-40.3c0-2.5 1.7-4.6 3.9-4.6h56.3c2.1 0 3.9 2.1 3.9 4.6l-.1 40.3" fill="#333"/><path d="m3.9 55c5.7 0 11.3 0 17 0-1.8-13.8-1.8-28.7 0-42.5-5.7 0-11.3 0-17 0-4.5 13.8-4.5 28.6 0 42.5" fill="#b2b2b2"/><path d="m2.9 51.3c5.9 0 11.8 0 17.7 0-1.2-11.5-1.2-23.7 0-35.2-5.9 0-11.8 0-17.7 0-3.1 11.5-3.1 23.7 0 35.2" fill="#d0d0d0"/><path d="m2 47.6c6.1 0 12.1 0 18.2 0-.7-9.2-.7-18.6 0-27.7-6.1 0-12.1 0-18.2 0-1.9 9.1-1.9 18.5 0 27.7" fill="#fff"/><path d="m19.6 17c-5.4 0-10.7 0-16.1 0 .4-1.5.8-3.1 1.3-4.6 5.1 0 10.2 0 15.3 0-.2 1.6-.4 3.1-.5 4.6" fill="#4187b7"/><path d="m19.7 55c-.4-2.8-4-5.2-8.3-5.2-4.3 0-7.2 2.4-6.3 5.2 4.9 0 9.8 0 14.6 0" fill="#fbbf67"/><path d="m23.5 55c5.7 0 11.3 0 17 0 1.4-13.8 1.4-28.7 0-42.5-5.7 0-11.3 0-17 0-1.4 13.8-1.4 28.6 0 42.5" fill="#b2b2b2"/><path d="m23.2 51.3c5.9 0 11.8 0 17.7 0 .9-11.5.9-23.7 0-35.2-5.9 0-11.8 0-17.7 0-1 11.5-1 23.7 0 35.2" fill="#d0d0d0"/><path d="m22.9 47.6c6.1 0 12.1 0 18.2 0 .6-9.1.6-18.6 0-27.7-6.1 0-12.1 0-18.2 0-.6 9.1-.6 18.5 0 27.7" fill="#fff"/><path d="m40 17c-5.4 0-10.7 0-16.1 0 .1-1.5.2-3.1.4-4.6 5.1 0 10.2 0 15.3 0 .2 1.6.3 3.1.4 4.6" fill="#4187b7"/><path d="m39.3 55c.3-2.8-3-5.2-7.3-5.2-4.3 0-7.6 2.4-7.3 5.2 4.9 0 9.7 0 14.6 0" fill="#fbbf67"/><path d="m43 55c5.7 0 11.3 0 17 0 4.5-13.8 4.5-28.7 0-42.5-5.7 0-11.3 0-17 0 1.8 13.8 1.8 28.6 0 42.5" fill="#b2b2b2"/><path d="m43.5 51.3c5.9 0 11.8 0 17.7 0 3.1-11.5 3.1-23.7 0-35.2-5.9 0-11.8 0-17.7 0 1.2 11.5 1.2 23.7 0 35.2" fill="#d0d0d0"/><path d="m43.8 47.6c6.1 0 12.1 0 18.2 0 1.9-9.1 1.9-18.6 0-27.7-6.1 0-12.1 0-18.2 0 .8 9.1.8 18.5 0 27.7" fill="#fff"/><path d="m60.5 17c-5.4 0-10.7 0-16.1 0-.2-1.5-.4-3.1-.6-4.6 5.1 0 10.2 0 15.3 0 .6 1.6 1 3.1 1.4 4.6" fill="#4187b7"/><path d="m58.9 55c.9-2.8-2-5.2-6.3-5.2-4.3 0-8 2.4-8.3 5.2 4.8 0 9.7 0 14.6 0" fill="#fbbf67"/><path d="m49.5 40.8c-.1 0-.3-.1-.4-.2s-.1-.3-.1-.4c0-.2.7-4.3 4.2-7.3-.4-.1-.8-.1-1.3-.1-1.7 0-2.8.6-3.1 1.8-.1.2-.3.4-.5.4h-1.4c-.3 0-.5-.2-.5-.5v-5.7c0-.3.2-.5.5-.5h1.4c.3 0 .5.2.5.5.9-.4 2.5-1 4.2-1 .8 0 1.5.1 2.2.3 1.3.4 1.8.8 2.2 1.1.1.1.2.1.2.1 0 0 .4-.3.5-.3.1-.1.2-.1.3-.1h2.5c.2 0 .4.1.5.3.1.2 0 .4-.1.5 0 0-4.2 3.9-4.2 10.6 0 .3-.2.5-.5.5h-7.1" fill="#3390ff"/><path d="m53.1 28.2c.7 0 1.3.1 2 .3 1.9.6 2.1 1.2 2.5 1.2.2 0 .4-.1.8-.4h2.5c0 0-4.3 4-4.3 10.9h-7.1c0 0 .7-4.7 4.9-7.6 0 0-1.1-.3-2.5-.3-1.5 0-3.1.4-3.6 2.2h-1.4v-5.7h1.4v.8c0-.1 2.2-1.4 4.8-1.4m0-1c-1.6 0-3 .4-4 .8-.2-.2-.4-.3-.7-.3h-1.4c-.6 0-1 .4-1 1v5.7c0 .6.4 1 1 1h1.4c.4 0 .8-.3 1-.7.1-.4.4-1.4 2.7-1.4 0 0 .1 0 .1 0-3 3-3.5 6.6-3.6 6.8 0 .3 0 .6.2.8.2.2.5.3.8.3h7.1c.6 0 1-.4 1-1 0-6.2 3.7-9.9 4-10.2.2-.2.3-.5.3-.8 0-.6-.4-1-1-1h-2.5c-.2 0-.4.1-.6.2 0 0-.2.1-.3.2-.4-.2-1-.7-2.2-1.1-.7-.2-1.5-.3-2.3-.3z" fill="#161616"/><path d="m27.6 40.8c-.1 0-.3-.1-.4-.2-.1-.1-.1-.3-.1-.4 0-.2.7-4.3 4.2-7.3-.4-.1-.8-.1-1.3-.1-1.7 0-2.8.6-3.1 1.8-.1.2-.3.4-.5.4h-1.4c-.3 0-.5-.2-.5-.5v-5.7c0-.3.2-.5.5-.5h1.4c.3 0 .5.2.5.5.9-.4 2.5-1 4.2-1 .8 0 1.5.1 2.2.3 1.3.4 1.8.8 2.2 1.1.1.1.2.1.2.1 0 0 .4-.3.5-.3.1-.1.2-.1.3-.1h2.5c.2 0 .4.1.5.3.1.2 0 .4-.1.5 0 0-4.2 3.9-4.2 10.6 0 .3-.2.5-.5.5h-7.1" fill="#fff"/><path d="m31.1 28.2c.7 0 1.3.1 2 .3 1.9.6 2.1 1.2 2.5 1.2.2 0 .4-.1.8-.4h2.6c0 0-4.3 4-4.3 10.9h-7.1c0 0 .7-4.7 4.9-7.6 0 0-1.1-.3-2.5-.3-1.5 0-3.1.4-3.6 2.2h-1.4v-5.7h1.4v.8c0-.1 2.2-1.4 4.7-1.4m0-1c-1.6 0-3 .4-4 .8-.2-.2-.4-.3-.7-.3h-1.4c-.6 0-1 .4-1 1v5.7c0 .6.4 1 1 1h1.4c.4 0 .8-.3 1-.7.1-.4.4-1.4 2.7-1.4 0 0 .1 0 .1 0-3 3-3.5 6.6-3.6 6.8 0 .3 0 .6.2.8.2.2.5.3.8.3h7.1c.6 0 1-.4 1-1 0-6.2 3.7-9.9 4-10.2.2-.2.3-.5.3-.8 0-.6-.4-1-1-1h-2.5c-.2 0-.4.1-.6.2 0 0-.2.1-.3.2-.4-.2-1-.7-2.2-1.1-.6-.2-1.4-.3-2.3-.3z" fill="#161616"/><path d="m5.7 40.8c-.1 0-.3-.1-.4-.2-.1-.1-.1-.3-.1-.4 0-.2.7-4.3 4.2-7.3-.4-.1-.8-.1-1.3-.1-1.7 0-2.8.6-3.1 1.8 0 .2-.2.4-.5.4h-1.4c-.3 0-.5-.2-.5-.5v-5.7c0-.3.2-.5.5-.5h1.4c.3 0 .5.2.5.5.9-.4 2.5-1 4.2-1 .8 0 1.5.1 2.2.3 1.3.4 1.8.8 2.2 1.1.1.1.2.1.2.1 0 0 .4-.3.5-.3.1-.1.2-.1.3-.1h2.5c.2 0 .4.1.5.3.1.2 0 .4-.1.5 0 0-4.2 3.9-4.2 10.6 0 .3-.2.5-.5.5h-7.1" fill="#ed4c5c"/><path d="m9.2 28.2c.7 0 1.3.1 2 .3 1.9.6 2.1 1.2 2.5 1.2.2 0 .4-.1.8-.4h2.5c0 0-4.3 4-4.3 10.9h-7c0 0 .7-4.7 4.9-7.6 0 0-1.1-.3-2.5-.3-1.5 0-3.1.4-3.6 2.2h-1.4v-5.7h1.4v.8c0-.1 2.2-1.4 4.7-1.4m0-1c-1.6 0-3 .4-4 .8-.2-.2-.4-.3-.7-.3h-1.4c-.6 0-1 .4-1 1v5.7c0 .6.4 1 1 1h1.4c.4 0 .8-.3 1-.7.1-.4.4-1.4 2.7-1.4 0 0 .1 0 .1 0-3 3-3.5 6.6-3.6 6.8 0 .3 0 .6.2.8.2.2.5.3.8.3h7.1c.6 0 1-.4 1-1 0-6.2 3.7-9.9 4-10.2.2-.2.3-.5.3-.8 0-.6-.4-1-1-1h-2.5c-.2 0-.4.1-.6.2 0 0-.2.1-.3.2-.4-.2-1-.7-2.2-1.1-.7-.2-1.4-.3-2.3-.3z" fill="#161616"/></svg>