<?xml version="1.0" encoding="utf-8"?>
<!-- Generator: Adobe Illustrator 25.2.3, SVG Export Plug-In . SVG Version: 6.00 Build 0)  -->
<svg version="1.1" id="Layer_2" xmlns="http://www.w3.org/2000/svg" xmlns:xlink="http://www.w3.org/1999/xlink" x="0px" y="0px"
	 viewBox="0 0 128 128" style="enable-background:new 0 0 128 128;" xml:space="preserve">
<path style="fill:#024AB1;" d="M32.26,94.85c0,0,5.66-8.06,5.87-8.38s8.69-19.38,8.69-19.38l3.77,1.47l-0.7,1.58
	c0,0-0.93,0.66-1.77,2.55s-5.57,14.46-5.57,14.46l19.24-6.23l23.04-3.35c0,0,11.42-6.49,13.51-7.75
	c2.09-1.26,14.03-14.35,14.03-14.35l6.18-12.36l1.36-13.93l-1.91-12.51c0,0,7.99,7.35,5.43,23.28
	c-3.24,20.14-18.01,36.59-41.42,42.48c-10.95,2.76-24.08,3.65-35.38,8.3c-5.86,2.41-12.87,10.19-12.87,10.19L32.26,94.85z"/>
<path style="fill:#024AB1;" d="M51.2,40.7l-2.13,14.68L47.4,66.05l11.55,4.71c0,0-8.13-13.63-3.36-26.75
	c5.97-16.41,22.18-30.55,35.47-31.53c9.19-0.68,11.67,1.38,16.23,3.58c5.91,2.84,9.31,9.6,9.31,9.6s-1.34-8.91-1.67-9.32
	s-14.77-8.69-14.77-8.69S84.83,8.05,84.42,8.3s-13.37,6.32-13.62,6.97c-0.25,0.66-12.39,13.53-13.7,15.42
	C55.79,32.58,51.2,40.7,51.2,40.7z"/>
<g>
	<path style="fill:#B7CDD2;" d="M105.68,64.52c-0.38,0-0.76-0.14-1.05-0.43L66.02,26.45c-0.59-0.58-0.61-1.53-0.03-2.12
		c0.58-0.59,1.53-0.6,2.12-0.03l38.61,37.65c0.59,0.58,0.61,1.53,0.03,2.12C106.46,64.37,106.07,64.52,105.68,64.52z"/>
</g>
<g>
	<path style="fill:#B7CDD2;" d="M111.78,57.36c-0.38,0-0.77-0.15-1.06-0.44L73.17,19.48c-0.59-0.58-0.59-1.53,0-2.12
		s1.53-0.59,2.12,0l37.54,37.44c0.59,0.58,0.59,1.53,0,2.12C112.55,57.21,112.16,57.36,111.78,57.36z"/>
</g>
<g>
	<path style="fill:#B7CDD2;" d="M115.84,48.48c-0.39,0-0.78-0.15-1.07-0.45L82.25,14.65c-0.58-0.59-0.57-1.54,0.03-2.12
		c0.59-0.58,1.54-0.57,2.12,0.03l32.52,33.37c0.58,0.59,0.57,1.54-0.03,2.12C116.6,48.34,116.22,48.48,115.84,48.48z"/>
</g>
<g>
	<path style="fill:#B7CDD2;" d="M118.09,36.93c-0.38,0-0.76-0.14-1.05-0.43L93.18,12.96c-0.59-0.58-0.6-1.53-0.01-2.12
		c0.58-0.59,1.53-0.6,2.12-0.01l23.85,23.53c0.59,0.58,0.6,1.53,0.01,2.12C118.86,36.78,118.48,36.93,118.09,36.93z"/>
</g>
<g>
	<path style="fill:#B7CDD2;" d="M98.45,71.4c-0.38,0-0.76-0.14-1.05-0.43L59.81,34.14c-0.59-0.58-0.6-1.53-0.02-2.12
		c0.58-0.59,1.53-0.6,2.12-0.02L99.5,68.83c0.59,0.58,0.6,1.53,0.02,2.12C99.23,71.25,98.84,71.4,98.45,71.4z"/>
</g>
<g>
	<path style="fill:#B7CDD2;" d="M88.46,76.5c-0.39,0-0.78-0.15-1.07-0.45l-32.2-32.84c-0.58-0.59-0.57-1.54,0.02-2.12
		c0.59-0.58,1.54-0.57,2.12,0.02l32.2,32.84c0.58,0.59,0.57,1.54-0.02,2.12C89.22,76.36,88.84,76.5,88.46,76.5z"/>
</g>
<g>
	<path style="fill:#B7CDD2;" d="M78.19,78.86c-0.38,0-0.75-0.14-1.05-0.43L52.65,54.58c-0.59-0.58-0.61-1.53-0.03-2.12
		c0.58-0.59,1.53-0.61,2.12-0.03l24.5,23.85c0.59,0.58,0.61,1.53,0.03,2.12C78.97,78.71,78.58,78.86,78.19,78.86z"/>
</g>
<g>
	<path style="fill:#B7CDD2;" d="M56.58,67.09c-0.39,0-0.78-0.15-1.07-0.45c-0.58-0.59-0.57-1.54,0.02-2.12l50.17-49.31
		c0.59-0.58,1.54-0.57,2.12,0.02c0.58,0.59,0.57,1.54-0.02,2.12L57.63,66.66C57.34,66.95,56.96,67.09,56.58,67.09z"/>
</g>
<g>
	<path style="fill:#B7CDD2;" d="M54.02,58.21c-0.38,0-0.75-0.14-1.04-0.42c-0.6-0.58-0.61-1.53-0.03-2.12
		c16.57-17.11,41.58-43.03,42.94-44.72c0.41-0.62,1.23-0.85,1.92-0.51c0.74,0.37,1.04,1.27,0.67,2.01
		c-0.13,0.26-0.53,1.06-43.37,45.3C54.8,58.06,54.41,58.21,54.02,58.21z"/>
</g>
<g>
	<path style="fill:#B7CDD2;" d="M56.26,43.56c-0.37,0-0.74-0.14-1.03-0.41c-0.6-0.57-0.63-1.52-0.06-2.12l27-28.5
		c0.57-0.6,1.61-0.57,2.21,0c0.6,0.57,0.6,1.4,0.03,2L57.35,43.09C57.06,43.4,56.66,43.56,56.26,43.56z"/>
</g>
<g>
	<path style="fill:#B7CDD2;" d="M61.5,75.65c-0.38,0-0.76-0.14-1.05-0.43c-0.59-0.58-0.6-1.53-0.02-2.12l51.43-52.76
		c0.58-0.59,1.66-0.76,2.25-0.18c0.59,0.58,0.47,1.69-0.11,2.28L62.58,75.2C62.28,75.5,61.89,75.65,61.5,75.65z"/>
</g>
<g>
	<path style="fill:#B7CDD2;" d="M71.34,79.39c-0.38,0-0.76-0.14-1.05-0.43c-0.59-0.58-0.6-1.53-0.01-2.12l47.28-47.92
		c0.58-0.59,1.53-0.59,2.12-0.01c0.59,0.58,0.6,1.53,0.01,2.12L72.41,78.95C72.12,79.24,71.73,79.39,71.34,79.39z"/>
</g>
<g>
	<path style="fill:#B7CDD2;" d="M85.15,77.88c-0.35,0-0.7-0.12-0.98-0.36c-0.62-0.54-0.7-1.46-0.18-2.08
		c0.54-0.64,24.77-24.88,32.18-32.3c0.59-0.59,1.54-0.59,2.12,0c0.59,0.59,0.59,1.54,0,2.12c-8.64,8.64-31.23,31.25-32.02,32.12
		C85.97,77.71,85.56,77.88,85.15,77.88z"/>
</g>
<path style="fill:#1F87FF;" d="M40.09,86.67c0,0,5.86-16.62,7.45-17.15c0.75-0.25,1.68,1.75,4.6,4.6c3.18,3.1,5.02,4.18,4.77,5.44
	C56.51,81.56,40.09,86.67,40.09,86.67z M117.57,33.72c-0.69,16.58-13.25,34.16-29.97,40.59c-10.32,3.97-22.33,3.08-29.38-4.37
	c-6.81-7.19-7.63-14.55-5.86-23.03c3.08-14.69,16.57-30.97,28.98-35.33s20.8-2.3,28.31,3.3C115.5,19.26,117.84,27.27,117.57,33.72z
	 M117.7,16.23c-3.97-4.74-12.64-13.46-29.4-11.01C73.19,7.43,60.68,19.48,53.34,32.35c-5.84,10.26-6.42,18.34-8.16,26.72
	c-1.69,8.13-7.94,23.68-9.25,26.28c-3.17,6.27-6.31,7.31-6.73,8.22l2.42,7.82c0,0,2.14-3.83,7.22-8.9
	c5.07-5.07,16.49-7.53,21.35-8.52c5.56-1.14,14.39-1.07,28.73-6.26c16.53-5.98,32.15-25.28,32.81-41.83
	C122.11,26.12,121.81,21.14,117.7,16.23z"/>
<path style="fill:#5F6369;" d="M30.34,91.48c-1.49,0.25-16.69,16.65-16.69,16.65s-5.73,2.82-6.8,3.56s-1.18,2.67-0.11,3.85
	s7.49,7.49,8.34,8.24s3.18,0.7,3.74-0.96c0.48-1.41,2.72-5.38,2.72-5.38s16.65-17.24,16.65-18.1S30.98,91.38,30.34,91.48z"/>
<path style="fill:#858686;" d="M11.77,113.08c0.52,2.76,4.24,2.79,6.4,1.24c1.66-1.2,0.85-2.77,2.01-4.01
	c1.38-1.48,2.65-0.64,3.93-2.13c1.28-1.49,0.85-2.48,1.66-3.41c1.15-1.32,2.35-0.47,3.54-1.88c1.2-1.41,0.51-2.56,1.41-3.46
	s2.99-0.47,2.48-2.77c-0.51-2.3-3.63-2.01-5.04-0.9c-1.11,0.88-1.11,2.39-2.26,3.41c-1.02,0.9-2.18,0.6-3.54,1.84
	c-1.37,1.24-0.98,2.82-1.92,3.84c-0.94,1.02-2.22,0.26-3.67,1.88c-1.51,1.69-0.73,2.6-2.18,3.67
	C13.61,111.11,11.34,110.82,11.77,113.08z"/>
<path style="fill:#B6D401;" d="M12.53,9.35L4.12,22.87c0,0,0,10,9.09,15.11c9.35,5.26,21.84,1.55,26.36-7.84
	c4.43-9.2,0.23-20-4.32-23.52C30.1,2.63,12.53,9.35,12.53,9.35z"/>
<path style="fill:#D5F100;" d="M15.12,3.36C8.33,6.6,4.37,12.68,3.8,18.81c-0.19,2.07,0,3.88,0,3.88s2.8,9.69,15.13,10.5
	c13.26,0.88,19.43-7.38,19.82-16.44c0.31-7.19-3.69-10.5-3.69-10.5s-1.81-2.44-5.82-3.69C27.53,2.01,21.56,0.3,15.12,3.36z"/>
<path style="fill:#FFFFFF;" d="M7.55,18.93c4.39,5.27,12.14,9.85,13.51,14.94c1.19,4.44-0.69,6.5-0.69,6.5s0.56,0.31,1.19,0.38
	c0.63,0.06,1.31-0.25,1.31-0.25s1.38-1.69,0.88-6.5c-0.5-4.81-5.13-8.63-8.25-11.07c-2.59-2.02-5.68-4.48-6.82-6.44
	C6.87,13.37,6.93,9.8,6.93,9.8s-0.88,0.31-1.31,1.56C5.2,12.54,4.74,15.56,7.55,18.93z"/>
<path style="fill:#FFFFFF;" d="M26.44,1.67c0,0,0.56,1.25,2.94,4c2.23,2.58,5.53,6.21,7.82,10.38c1.75,3.19,3.69,10.69,3.69,10.69
	s0.75-2.63,0.75-4.38c0-0.94-1.56-5.19-2.94-7.82c-1.62-3.1-4.75-6.75-6.07-8.44c-0.81-1.05-3.25-3.94-3.25-3.94
	S26.56,1.36,26.44,1.67z"/>
</svg>
