<?xml version="1.0" encoding="UTF-8" standalone="no"?><svg xmlns:dc="http://purl.org/dc/elements/1.1/" xmlns:cc="http://creativecommons.org/ns#" xmlns:rdf="http://www.w3.org/1999/02/22-rdf-syntax-ns#" xmlns:svg="http://www.w3.org/2000/svg" xmlns="http://www.w3.org/2000/svg" viewBox="0 0 45 45" style="enable-background:new 0 0 45 45;" xml:space="preserve" version="1.1" id="svg2"><metadata id="metadata8"><rdf:RDF><cc:Work rdf:about=""><dc:format>image/svg+xml</dc:format><dc:type rdf:resource="http://purl.org/dc/dcmitype/StillImage"/></cc:Work></rdf:RDF></metadata><defs id="defs6"><clipPath id="clipPath16" clipPathUnits="userSpaceOnUse"><path id="path18" d="M 0,36 36,36 36,0 0,0 0,36 Z"/></clipPath></defs><g transform="matrix(1.25,0,0,-1.25,0,45)" id="g10"><g id="g12"><g clip-path="url(#clipPath16)" id="g14"><g transform="translate(5.6221,2.9492)" id="g20"><path id="path22" style="fill:#fcab40;fill-opacity:1;fill-rule:nonzero;stroke:none" d="m 0,0 -2.674,2.673 20.389,20.39 c 3.344,3.343 1.337,8.022 2.007,8.69 0.666,0.67 1.335,0.002 1.335,0.002 l 8.023,-8.024 c 0.668,-0.668 0,-1.336 0,-1.336 -0.669,-0.669 -5.778,0.909 -8.692,-2.005 L 0,0 Z"/></g><g transform="translate(5.457,2.1094)" id="g24"><path id="path26" style="fill:#ccd6dd;fill-opacity:1;fill-rule:nonzero;stroke:none" d="m 0,0 c 0.925,0.925 0.925,2.424 0,3.35 -0.924,0.923 -2.424,0.923 -3.349,0 l 0.087,-0.087 c -0.37,0.334 -0.938,0.331 -1.296,-0.028 -0.369,-0.368 -0.369,-0.967 0,-1.336 l 3.109,-3.109 c 0.369,-0.369 0.968,-0.369 1.337,0 0.355,0.356 0.36,0.919 0.032,1.29 L 0,0 Z"/></g><g transform="translate(24.0068,20.5498)" id="g28"><path id="path30" style="fill:#fcab40;fill-opacity:1;fill-rule:nonzero;stroke:none" d="M 0,0 C -0.506,0 -0.98,-0.197 -1.338,-0.554 L -12.033,-11.25 c -0.357,-0.357 -0.554,-0.832 -0.554,-1.337 0,-0.506 0.197,-0.979 0.553,-1.336 0.358,-0.357 0.832,-0.555 1.337,-0.555 0.506,0 0.981,0.198 1.338,0.555 L 1.337,-3.228 C 2.074,-2.491 2.073,-1.291 1.336,-0.553 0.979,-0.197 0.505,0 0,0 m -10.697,-18.259 0,0 c -1.515,0 -2.939,0.59 -4.011,1.661 -1.07,1.071 -1.66,2.495 -1.66,4.011 0,1.515 0.59,2.939 1.661,4.011 L -4.012,2.12 C -2.94,3.191 -1.516,3.781 0,3.781 c 1.515,0 2.939,-0.59 4.011,-1.661 2.211,-2.212 2.211,-5.81 0,-8.021 L -6.685,-16.597 c -1.071,-1.071 -2.496,-1.662 -4.012,-1.662"/></g><g transform="translate(25.3438,11.9736)" id="g32"><path id="path34" style="fill:#fcab40;fill-opacity:1;fill-rule:nonzero;stroke:none" d="m 0,0 c 0.736,-0.738 1.936,-0.738 2.674,0 0.738,0.739 0.738,1.937 0,2.674 l -8.023,8.023 c -0.739,0.739 -1.935,0.739 -2.673,0 -0.739,-0.739 -0.739,-1.936 0,-2.675 L 0,0 Z"/></g><g transform="translate(21.332,7.9629)" id="g36"><path id="path38" style="fill:#fcab40;fill-opacity:1;fill-rule:nonzero;stroke:none" d="m 0,0 c 0.738,-0.738 1.937,-0.738 2.674,0 0.738,0.739 0.738,1.936 0.002,2.674 l -8.023,8.022 c -0.739,0.739 -1.936,0.739 -2.675,0 C -8.76,9.959 -8.76,8.761 -8.021,8.022 L 0,0 Z"/></g><g transform="translate(17.3218,3.9521)" id="g40"><path id="path42" style="fill:#fcab40;fill-opacity:1;fill-rule:nonzero;stroke:none" d="m 0,0 c 0.738,-0.738 1.934,-0.738 2.673,0 0.739,0.738 0.739,1.937 0,2.674 l -8.021,8.021 c -0.739,0.739 -1.936,0.739 -2.675,0 -0.738,-0.737 -0.738,-1.934 0,-2.674 L 0,0 Z"/></g><g transform="translate(14.6475,22.6709)" id="g44"><path id="path46" style="fill:#ccd6dd;fill-opacity:1;fill-rule:nonzero;stroke:none" d="m 0,0 c 0.369,-0.369 0.968,-0.369 1.337,0 l 1.337,1.336 c 0.369,0.369 0.369,0.968 0,1.338 -0.369,0.369 -0.968,0.369 -1.337,0 L 0,1.336 C -0.369,0.967 -0.369,0.369 0,0"/></g><g transform="translate(10.6367,18.6592)" id="g48"><path id="path50" style="fill:#ccd6dd;fill-opacity:1;fill-rule:nonzero;stroke:none" d="m 0,0 c 0.37,-0.371 0.967,-0.37 1.337,0 l 1.336,1.337 c 0.371,0.37 0.371,0.967 10e-4,1.337 -0.369,0.37 -0.967,0.37 -1.337,0 L 0,1.337 C -0.37,0.967 -0.37,0.369 0,0"/></g><g transform="translate(6.6255,14.6475)" id="g52"><path id="path54" style="fill:#ccd6dd;fill-opacity:1;fill-rule:nonzero;stroke:none" d="m 0,0 c 0.37,-0.37 0.967,-0.37 1.337,0 l 1.337,1.338 c 0.369,0.369 0.37,0.967 0,1.337 -0.369,0.369 -0.967,0.369 -1.337,0 L 0,1.337 C -0.369,0.968 -0.369,0.369 0,0"/></g></g></g></g></svg>
