<?xml version="1.0" encoding="utf-8"?>
<!-- Generator: Adobe Illustrator 25.2.3, SVG Export Plug-In . SVG Version: 6.00 Build 0)  -->
<svg version="1.1" id="Layer_3" xmlns="http://www.w3.org/2000/svg" xmlns:xlink="http://www.w3.org/1999/xlink" x="0px" y="0px"
	 viewBox="0 0 128 128" style="enable-background:new 0 0 128 128;" xml:space="preserve">
<g>
	<g>
		<path style="fill:#546E7A;" d="M21.96,95.36V83.09h16.99c-0.43-1.3-0.74-2.63-0.91-4H21.96V63.5h19.25c0.68-1.33,1.46-2.66,2.35-4
			h-21.6V44.58h35.55c0.67-0.54,1.31-1.06,1.89-1.5l-0.52-2.5H21.96V25.66h33.83c-0.23-1.39-0.39-2.72-0.49-4H3.48v77.69h52.44
			c-2.81-0.97-5.41-2.33-7.72-4H21.96z"/>
		<path style="fill:#546E7A;" d="M81.65,99.36h42.87v-4H84.86c-1.09,0.94-2.24,1.77-3.44,2.46C81.49,98.27,81.57,98.79,81.65,99.36z
			"/>
		<path style="fill:#546E7A;" d="M87.95,25.66h36.57v-4H87.99C88.09,23.02,88.07,24.36,87.95,25.66z"/>
		<path style="fill:#546E7A;" d="M88.21,63.5h36.32v-4H83.54C85.29,60.52,86.85,61.85,88.21,63.5z"/>
		<path style="fill:#546E7A;" d="M124.52,44.58v-4H82.16c-0.95,1.41-1.96,2.75-2.99,4H124.52z"/>
		<path style="fill:#546E7A;" d="M124.52,83.09v-4h-31.4c-0.08,1.46-0.3,2.79-0.6,4H124.52z"/>
	</g>
	<g>
		<path style="fill:#546E7A;" d="M87.18,67.19c-4.49-7.14-11.23-7.45-16.23-6.99l-1.85-9.41c8.86-8.39,19.57-20.29,14.8-34.37
			c-4.07-12-10.39-12.14-13.55-12.14c-3.16,0-15.54,0.84-11.3,22.49l3.69,17.57C57.3,48.29,39.7,62.38,40.92,77.75
			c0.84,11.88,13.23,21.08,26.64,20.2c1.41-0.08,4.49-0.3,5.64-0.39c0,0,3.08,10.71-1.54,16.99c-2.84,3.86-7.59,5.05-11.72,3.61
			c2.74-1.37,4.51-4.19,4.51-7.3c-0.41-10.83-15.94-10.83-16.35,0c0,7.81,5.34,12.85,16.5,12.85c4.49,0,8.84-3.26,11.09-6.21
			c5.94-7.78,2.32-21.37,2.32-21.37C85.79,92.96,95.02,81.22,87.18,67.19z M71.43,12.75c4.02-1.71,10.35,1.44,8.96,8.84
			c-1.28,6.8-7.6,13.83-13.21,19.45l-2.23-11.36C63.41,20.19,66.39,14.89,71.43,12.75z M66.08,61.29
			c-7.06,2.29-10.8,8.55-9.55,16.06c1.27,7.59,5.38,9.85,8.82,10.96c0.06,0.02,2.44,0.68,2.67-0.81c0.12-0.74-0.74-1.17-1.53-1.67
			c-0.64-0.4-1.38-1.16-2.09-1.86c-3.95-3.91-3.69-11.35,3.23-14.37l4.63,23.14c-10.28,2.31-21.34-3.27-21.72-14.35
			c-0.63-10.83,5.76-17.09,14.3-24.38L66.08,61.29z M83.39,83.33c-0.8,2.58-2.54,5.53-6.37,7.71l-4.09-22.5
			C82.55,68.19,85.13,77.4,83.39,83.33z"/>
	</g>
</g>
</svg>
