<svg xmlns="http://www.w3.org/2000/svg" viewBox="0 0 64 64" enable-background="new 0 0 64 64"><g fill="#c5d4d8"><path d="m40.1 46.8c-2.1 3.8-4.1 7.9-6 12.1 4.1 1.4 8.2 2.4 12.2 3.1.5-3.7 1.3-7.3 2.2-10.6 1-3.5 2.2-6.7 3.5-9.9-1.9-1.6-3.8-3.4-5.7-5.3-2.1 3.4-4.2 6.9-6.2 10.6"/><path d="m60.8 16.9c-2.7 3-5.2 6.1-7.6 9.3-2.3 3.1-4.6 6.3-6.7 9.7 2 1.9 3.9 3.6 5.7 5.3 1.4-3.1 2.9-6.1 4.6-8.9 1.6-2.7 3.4-5.3 5.3-7.7-.5-2.6-.9-5.2-1.3-7.7"/></g><g fill="#eae7e4"><path d="m2 19.1c15.2 31.5 32.1 39.8 32.1 39.8 2-4.3 4-8.3 6-12.1 2-3.7 4-7.2 6.2-10.6-7.9-7.5-16.7-16.6-25.7-25.6-3.6 1.6-7.1 3.3-10.7 4.9-2.7 1.2-5.3 2.4-7.9 3.6"/><path d="m39.5 2c-2.6 1.2-5.2 2.3-7.8 3.5-3.6 1.6-7.1 3.3-10.7 4.9 9 8.9 17.7 18 25.5 25.5 2.1-3.4 4.4-6.6 6.7-9.7 2.4-3.2 5-6.3 7.6-9.3l-21.3-14.9"/></g><g fill="#333"><path d="m40.1 46.9c.1-.1.1-.2.2-.3-10.3-8.9-20-20.6-30.2-31.1-.1 0-.2.1-.3.1 10.2 10.6 19.9 22.4 30.3 31.3"/><path d="m48.6 51.2c0 .1-.1.2-.1.3-2.8-1.3-5.6-2.8-8.5-4.6.1-.1.1-.2.2-.3 2.9 1.8 5.7 3.3 8.4 4.6"/><path d="m53.3 26.1c-.1.1-.1.2-.2.3-6.1-6.6-13.8-13.5-21.5-20.8.1 0 .2-.1.3-.1 7.7 7.2 15.3 14 21.4 20.6"/><path d="m56.7 32.5c0-.1.1-.2.1-.2-1.1-2-2.3-4.1-3.5-6.1-.1.1-.1.2-.2.3 1.2 1.9 2.4 4 3.6 6"/><path d="m52.2 41.2c0 .1-.1.2-.1.3-9.6-8.5-21-20.5-32.6-32 .1-.1.3-.1.4-.2 11.5 11.5 22.8 23.4 32.3 31.9"/></g><g fill="#231f20"><path d="m46.2 23.5c1.3-1.4 2.5-2.7 3.8-4.1-6.6-4.1-14.7-9.5-24-15l1.1 3.1c6.6 5.8 13.5 10.9 19.1 16"/><path d="M38.3,31.8C39.5,30.4,25,15,15.7,9.5l1.5,2.7C23.7,17.9,32,27.1,38.3,31.8z"/></g><path d="m50.6 18.9c-1.5 1.5-2.9 3.1-4.4 4.7-1.5-1.7-3.1-6.8-3.1-6.8l5.1-4.3c0-.2 1.1 4.7 2.4 6.4" fill="#55646d"/><path d="m43.1 16.7l5.1-4.3-16.5-10.3c0 0-3.8 1.5-5.6 2.3 5.4 4.6 17 12.3 17 12.3" fill="#333"/><path d="m29.5 42.4c1.4-1.8 5-5.3 5-5.3-2.3-2.1-6-7.6-6-7.6l-7.7 7.4c0 0 4.9 4.6 8.7 5.5" fill="#55646d"/><path d="m28.6 29.5l-7.7 7.4c0 0-11.7-13.4-15.6-22.8l5.6-3.1 17.7 18.5" fill="#333"/><path d="m42.4 27.8c-1.4 1.6-4.2 4.1-4.2 4.1s-4.4-3.4-6.5-5.5c1.7-1.5 6.9-5.8 6.9-5.8s2.1 5.3 3.8 7.2" fill="#55646d"/><path d="m31.7 26.4c1.7-1.5 6.9-5.8 6.9-5.8l-17.3-14.2-5.6 3.1c0 0 10.7 11.3 16 16.9" fill="#333"/></svg>