<?xml version="1.0" encoding="utf-8"?>
<!-- Generator: Adobe Illustrator 25.2.3, SVG Export Plug-In . SVG Version: 6.00 Build 0)  -->
<svg version="1.1" id="Layer_2" xmlns="http://www.w3.org/2000/svg" xmlns:xlink="http://www.w3.org/1999/xlink" x="0px" y="0px"
	 viewBox="0 0 128 128" style="enable-background:new 0 0 128 128;" xml:space="preserve">
<path style="fill:#CECECE;" d="M33.09,16.55c0,0-11.5,4.75-14.2,6.7c-3.29,2.38-7.29,5.41-9.41,9.46
	c-2.03,3.87-2.84,6.83-2.99,11.79c-0.15,4.96,5.15,46.15,5.15,46.15s28.72,27.06,33.25,29.11s11.21,4.56,19.23,4.41
	c8.02-0.15,13.29-2.62,16.36-4.08c3.06-1.46,39.4-55.26,39.7-59.64s0.59-12.73,0.41-16.26c-0.19-3.62-0.93-6.51-2.83-10.16
	s-5.02-7.21-6.91-8.82c-1.9-1.6-25.75-12.31-32.97-13.93C57.02,6.63,33.09,16.55,33.09,16.55z"/>
<path style="fill:#EAEAEA;" d="M15.44,29.1c0.14,4.89,4.08,7.15,12.11,11.23S56,56.38,64.46,56.67c8.46,0.29,39.82-18.77,44.35-21.7
	c4.48-2.9,5.23-7.53,1.02-10.69C103.99,19.91,77.88,7.8,72.34,5.76C69.51,4.72,62.3,3.1,56.58,5.32
	c-4.52,1.75-33.19,15.02-35.96,16.77C17.85,23.84,15.37,26.37,15.44,29.1z"/>
<path style="fill:#FFFFFF;" d="M34.34,19.12c-1.78-2.01-14.31,4.55-14.31,10.14c0,5.42,11.37,12.32,14.22,9.76
	c2.05-1.84-5.21-7.58-4.26-10.9C30.93,24.8,35.86,20.82,34.34,19.12z"/>
<path style="fill:#FFFFFF;" d="M46.74,48.08c-1.97,2.85,10.62,8.98,18.3,8.98c7.23,0,19.04-7.06,17.52-9.11
	c-2.46-3.32-8.43-0.2-17.72,0C59.72,48.06,48.79,45.11,46.74,48.08z"/>
<path style="fill:#FFFFFF;" d="M92.41,39.04c2.46,1.61,16.49-5.5,16.77-9.76s-8.72-9.38-11.28-7.58c-2.56,1.8,0.76,3.13-0.09,6.25
	S89.46,37.11,92.41,39.04z"/>
<path style="fill:#DFDFDF;" d="M6.48,45.09C6.33,50.26,6.64,81.82,6.71,86.1c0.07,4.72,1.23,9.97,4.37,12.66
	s28.57,18.82,34.29,21.29c8.01,3.46,15.8-0.34,16.36-8.96c0.56-8.63,0.22-34.96,0.22-38.54S60.15,63.69,56.23,61
	c-3.92-2.69-34.92-20.47-38.1-22.3C13.65,36.13,6.71,37.36,6.48,45.09z"/>
<path style="fill:#B8B8B8;" d="M70.68,61.34c-3.36,2.66-4.71,6.5-4.71,10.64s-0.22,36.08-0.11,39.33
	c0.11,3.25,4.71,11.88,11.88,9.75c7.41-2.2,16.81-8.85,23.53-12.89c6.72-4.03,11.96-7.45,14.3-9.37c3-2.45,5.03-8.38,5.14-13.42
	c0.11-4.93-0.03-35.79-0.12-38.21c-0.22-5.68-2.52-10.37-8.68-9.03S75.5,57.53,70.68,61.34z"/>
<ellipse style="fill:#FE4E27;" cx="64.29" cy="29.27" rx="13.81" ry="9.93"/>
<path style="fill:#2F2F2F;" d="M26.49,55.55c1.8,5.02,1.26,10.22-2.59,11.6s-8.46-2.05-10.23-6.96c-1.81-5.02-1.36-10.23,2.59-11.6
	C20.13,47.26,24.69,50.53,26.49,55.55z"/>
<path style="fill:#2F2F2F;" d="M51.82,99.6c2.14,4.88,2.02,10.66-1.72,12.3c-3.74,1.64-8.81-1.77-10.92-6.55
	c-2.15-4.88-1.83-10.23,1.91-11.87C44.84,91.84,49.68,94.72,51.82,99.6z"/>
<path style="fill:#2F2F2F;" d="M101.96,66.96c3.27,1.86,8.53-0.45,11.24-5.19c2.71-4.75,2.25-10.1-1.01-11.97
	c-3.27-1.86-8.44,0.44-11.15,5.19C98.33,59.73,98.69,65.1,101.96,66.96z"/>
<path style="fill:#2F2F2F;" d="M89.04,88.7c3.32,1.94,8.72-0.37,11.54-5.2c2.82-4.82,2.42-10.31-0.9-12.25s-8.83,0.21-11.65,5.03
	C85.21,81.12,85.73,86.76,89.04,88.7z"/>
<path style="fill:#2F2F2F;" d="M76.21,110.92c3.21,1.96,8.54-0.2,11.39-4.86s2.55-10.03-0.66-11.99c-3.21-1.96-8.18-0.58-11.46,4.61
	C72.56,103.29,73,108.96,76.21,110.92z"/>
</svg>
