<svg xmlns="http://www.w3.org/2000/svg" viewBox="0 0 64 64" enable-background="new 0 0 64 64"><path d="m50.4 33.4c-.5-.5-2.4.2-3-.3-1-.7-.8-4-1.9-4.3-8.3-2.6-23.4 13.9-27.1 21.8-.5 1-.7 4.2.2 4.7l3.2-1.8-.5-.9 9.7-5.6.5.9 7.3-4.2-1.3-2.2 9.7-5.6 1.3 2.2 2-1.2c.4-.9.5-2.9-.1-3.5" fill="#287700"/><g fill="#3e4347"><path transform="matrix(.866-.5001.5001.866-21.5498 19.9433)" d="m20.8 49.6h11.3v1.1h-11.3z"/><path transform="matrix(.8662-.4997.4997.8662-14.076 26.8337)" d="m37.4 38.4h11.3v2.6h-11.3z"/></g><path d="m44.7 24.5c-2-2.6-4.8-5-6.9-5.3-4.1-.6-13.1 5.3-13.7 9.5-.6 4.2-4.5 9.9-6.8 14.2l7.8 7.2c3.9-3.2 8.3-8.2 11-10.1 1.6-1.1 5.1-2.3 6.8-3.6-.4-4-.2-8.6 1.8-11.9" fill="#79c600"/><g fill="#b6ef00"><path d="m16.5 44.4c-1.4 3-1.9 5.3-.8 6.6.8 1 3.4 2.1 4.7 1.8 1.4-.4 3-1.5 4.7-2.9l-7.8-7.2c-.3.6-.6 1.2-.8 1.7"/><path d="m47.1 29.3c-.2-1.3-1.2-3.1-2.5-4.8-2 3.4-2.1 7.9-1.7 11.7.2-.1.3-.2.4-.4 1.4-1.3 4.1-4.7 3.8-6.5"/><path d="m26.5 2.4c-2.1 11.2-9.5 10.7-9.5 10.7-2.1 1.1-4.9 2.1-4.9 3.7 0 1.6 9.1 12.5 11.2 13.7 1.4.8 12.1-1.3 13.7-2.9 1.6-1.5 2.7-6.3 2.4-8.5-.3-1.6-10.6-14.5-12.9-16.7"/></g><g fill="#3e4347"><path d="m26.1 2.1c-.5-.1-1.1 0-1.8.2-1.3.5-2.8 1.5-3.3 2.3-.7 1.1-.8 2.7-1.1 4.3-.2 1-.4 2-.9 2.7-.4.5-1.1 1-1.9 1.5 0 0 7.4.6 9.5-10.7-.3-.2-.4-.3-.5-.3"/><circle cx="34" cy="24.6" r="2.6"/><path d="m17 25.6l3.1 3.6 7.5-6-3-3.6z"/><path d="m12.5 20.3l3.1 3.6 7.4-6-2.9-3.6z"/></g><path d="m23.8 13.5l.8 1.1-2.5 2-.8-1.1 2.5-2m.1-1.1l-3.7 2.9 1.8 2.3 3.7-2.9-1.8-2.3z" fill="#287700"/><path d="m22.4 13.4l2.1 2.6-3.2 2.6-2.2-2.6 3.3-2.6m.1-1.1l-4.5 3.5 3.1 3.9 4.5-3.6-3.1-3.8z" fill="#60aa00"/><path d="m28.3 18.8l.8 1.1-2.5 2-.8-1.1 2.5-2m.1-1.1l-3.7 2.9 1.8 2.3 3.7-2.9-1.8-2.3z" fill="#287700"/><path d="m26.8 18.7l2.1 2.6-3.2 2.6-2.1-2.6 3.2-2.6m.2-1.1l-4.5 3.6 3.1 3.9 4.5-3.6-3.1-3.9z" fill="#60aa00"/><path fill="#287700" d="m19.5 36.5l7.5 5.1 2.2-3.3-7.4-5.2z"/><path d="m30 40.4l-.8 1.1-2.6-1.8.8-1.1 2.6 1.8m1.1-.2l-3.9-2.8-1.7 2.4 3.9 2.8 1.7-2.4z" fill="#b6ef00"/><path d="m29.7 39l-2 2.7-3.4-2.4 2-2.7 3.4 2.4m1.2-.2l-4.7-3.3-2.9 4 4.7 3.3 2.9-4z" fill="#3e4347"/><path fill="#287700" d="m16.2 41.5l6.8 4.6 1.9-3-6.6-4.6z"/><path d="m25.7 45.1l-.7 1-2.3-1.6.7-1 2.3 1.6m1-.2l-3.4-2.5-1.5 2.2 3.4 2.5 1.5-2.2z" fill="#b6ef00"/><path d="m25.4 43.8l-1.8 2.4-3-2.2 1.8-2.4 3 2.2m1-.2l-4.2-3-2.6 3.6 4.2 3 2.6-3.6z" fill="#3e4347"/><path d="m13.9 57.5c-4.5 2.6-8.2-.2-10.3-2.1.1.9.5 1.9 1 2.7 1.8 3.1 5.8 5.3 10.4 2.6 3.2-1.8 49-28.1 49-28.1v-3.8l-50.1 28.7" fill="#42ade2"/></svg>