<svg xmlns="http://www.w3.org/2000/svg" viewBox="0 0 64 64" enable-background="new 0 0 64 64"><path d="m29 31.4c.3.3.6.6.9.9.1.1.1.1.2.2 0 0 0 .1-.1.1-.7 1-1.7 2.6-1.5 4.6.2 2 .7 3.4 1.6 4.4.7.7 1.5 1 2.2 1.1-.1 0-.2.1-.3.1-1.8.7-4.2 1.7-5.1 4.5-.3 1-.5 2.2-.7 3.4-.4 2.4-.9 5.1-2.3 6.5-2 2-4.4 2.9-7.1 2.5-2.6-.4-5.5-1.9-7.9-4.4-2.5-2.5-4-5.3-4.4-7.9-.4-2.7.5-5.1 2.5-7.1 1.4-1.4 3.4-2.1 6.6-2.3 5.9-.4 7.3-3.9 8.2-6.1.7-1.8.9-2.4 2.7-2.5 1.7-.3 3 .5 4.5 2m1.5-1.6c-1.6-1.6-3.5-3.1-6.4-2.8-6.7.5-2.3 8.1-10.8 8.7-3.1.2-5.9.9-8 3-5.4 5.3-3.7 12.6 1.9 18.1 5.6 5.6 12.9 7.3 18.2 1.9 2.7-2.7 2.7-7.7 3.6-10.8 1.2-3.9 7.5-2.6 7.2-6.9 0-.4-.1-.7-.3-.8-.8-.8-3 1.1-4.3-.2-.5-.5-.8-1.4-1-3-.2-2.4 2.8-4.2 1.7-5.3-.6-.6-1.2-1.2-1.8-1.9z" fill="#e27c17"/><path d="m26.1 50.7c.2-1.2.4-2.3.7-3.4.9-2.8 3.3-3.8 5.1-4.5.1 0 .2-.1.3-.1-.7-.1-1.5-.4-2.2-1.1-.9-.9-1.4-2.3-1.6-4.4-.2-2 .9-3.5 1.5-4.6 0 0 0-.1.1-.1-.1-.1-.1-.1-.2-.2-.3-.3-.6-.6-.9-.9-1.5-1.5-2.7-2.3-4.7-2.2-1.7.1-2 .7-2.7 2.5-.9 2.3-2.2 5.7-8.2 6.1-3.2.2-5.2.9-6.6 2.3-2 2-2.9 4.4-2.5 7.1.4 2.6 1.9 5.5 4.4 7.9 2.5 2.5 5.3 4 7.9 4.4 2.7.4 5.1-.5 7.1-2.5 1.6-1.3 2.1-4 2.5-6.3" fill="#ff9d27"/><g fill="#3e4347"><path transform="matrix(.7069-.7073.7073.7069-21.7706 28.4867)" d="m21.8 37h3.5v7h-3.5z"/><path transform="matrix(.7072-.707.707.7072-26.5526 26.4877)" d="m17 41.8h3.5v7h-3.5z"/><path transform="matrix(.7072-.707.707.7072-30.6637 24.8381)" d="m13.7 46.7h2v5.5h-2z"/><path d="m28.8 39.7l-4.5-4.5 25.5-24.1 3.1 3.1z"/><circle cx="22.6" cy="53.7" r="2.3"/><circle cx="17.1" cy="56.5" r="1.8"/><path d="m52.6 19.2c-.7.7-1 1.3-.5 1.9.6.6 1.2.2 1.9-.5.7-.7 1-1.3.5-1.9-.5-.5-1.2-.1-1.9.5"/><path transform="matrix(.7071-.7071.7071.7071 1.9549 42.5188)" d="m51.8 17.8h1v2.2h-1z"/><path d="m56.1 15.8c-.7.7-1 1.3-.5 1.9.6.6 1.2.2 1.9-.5.7-.7 1-1.3.5-1.9-.6-.5-1.3-.1-1.9.5"/><path transform="matrix(.7071-.7071.7071.7071 5.3958 43.944)" d="m55.3 14.4h1v2.2h-1z"/><path d="m59.5 12.4c-.7.7-1 1.3-.5 1.9.6.6 1.2.2 1.9-.5.7-.7 1-1.3.5-1.9-.6-.6-1.2-.2-1.9.5"/><path transform="matrix(.7071-.7071.7071.7071 8.8357 45.3696)" d="m58.7 10.9h1v2.2h-1z"/><path d="m44.8 11.4c-.7.7-1.3 1-1.9.5-.6-.6-.2-1.2.5-1.9.7-.7 1.3-1 1.9-.5.5.5.1 1.2-.5 1.9"/><path transform="matrix(.708-.7062.7062.708 4.9065 35.2665)" d="m44.6 10.6h1v2.2h-1z"/><path d="m48.2 7.9c-.7.7-1.3 1-1.9.5-.6-.6-.2-1.2.5-1.9.7-.7 1.3-1 1.9-.5.5.6.1 1.3-.5 1.9"/><path transform="matrix(.7073-.7069.7069.7073 8.3722 36.7323)" d="m48.1 7.2h1v2.2h-1z"/><path d="m51.6 4.5c-.7.7-1.3 1.1-1.9.5-.6-.6-.2-1.2.5-1.9.7-.7 1.3-1.1 1.9-.5.6.6.2 1.2-.5 1.9"/><path transform="matrix(.7071-.7071.7071.7071 11.8187 38.1681)" d="m51.5 3.7h1v2.2h-1z"/><path d="m54.8 15.9c-5.4 5.4-6.9 6.8-10.2 3.5-3.3-3.3-1.9-4.8 3.5-10.2 7.2-7.2 7.1-9.3 11.6-4.9 4.4 4.5 2.3 4.4-4.9 11.6"/></g><g fill="#8a959b"><circle cx="53.8" cy="6.6" r="1.3"/><circle cx="50.3" cy="10.1" r="1.3"/><circle cx="46.9" cy="13.5" r="1.3"/><circle cx="57.4" cy="10.2" r="1.3"/><path d="m54.9 14.6c-.5.5-1.3.5-1.8 0-.5-.5-.5-1.3 0-1.8.5-.5 1.3-.5 1.8 0 .5.5.5 1.3 0 1.8"/><circle cx="50.5" cy="17.1" r="1.3"/></g></svg>