<?xml version="1.0" encoding="utf-8"?>
<!-- Generator: Adobe Illustrator 25.2.3, SVG Export Plug-In . SVG Version: 6.00 Build 0)  -->
<svg version="1.1" id="Layer_2" xmlns="http://www.w3.org/2000/svg" xmlns:xlink="http://www.w3.org/1999/xlink" x="0px" y="0px"
	 viewBox="0 0 128 128" style="enable-background:new 0 0 128 128;" xml:space="preserve">
<path style="fill:#D8CEC9;" d="M99.05,3.71c-9.68,0-10.04,10.11-9.54,14.57c0.58,5.14,2.57,12.35,2.57,19.56s-1.03,11.67-2.75,15.44
	c-1.72,3.77-6.01,10.15-6.6,22.84c-0.72,15.41,6.63,36.21,8.78,38c1.77,1.48,14.39,1.59,15.77,0.36c1.54-1.37,9.67-17.33,9.5-36.21
	c-0.17-18.87-11.29-24.91-10.93-40.87c0.2-8.78,1.91-13.42,2.69-20.43C109.27,10.52,107.38,3.71,99.05,3.71z"/>
<path style="fill:#D8CEC9;" d="M44.49,4.18c-10.32,0.06-10.04,10.11-9.54,14.57c0.58,5.14,2.57,12.35,2.57,19.56
	s-1.03,11.67-2.75,15.44c-1.72,3.77-6.01,10.15-6.6,22.84c-0.72,15.41,6.63,36.21,8.78,38c1.77,1.48,14.39,1.59,15.77,0.36
	c1.54-1.37,7.77-17.09,7.6-35.96c-0.17-18.87-9.24-25.29-8.42-41.23c0.36-6.99,2.7-11.86,2.76-20.22
	C54.71,11.06,52.82,4.13,44.49,4.18z"/>
<path style="fill:#F1EDED;" d="M99.22,7.08c-4.57,0-7.07,4.99-6.37,11.5c0.69,6.51,2.31,14.13,2.58,22.45
	c0.29,8.67-3.55,13.31-5.77,18.57s-3.46,9.98-3.46,9.98l2.36,30.35c0,0,1.66,4.85,3.74,4.99c2.08,0.14,12.19-2.08,18.71-12.75
	s0.97-26.33-2.36-33.12c-2.82-5.76-5.7-9.93-6.1-16.77c-0.66-11.44,2.22-18.15,2.49-24.39C105.27,12.76,104.62,7.08,99.22,7.08z"/>
<path style="fill:#EFEEEC;" d="M44.35,8.32c-4.16,0-7.07,3.19-5.96,12.06s2.33,11.97,2.47,19.87s-5.1,19.35-5.1,19.35l10.67,8.45
	l6.1-10.12c0,0-3.33-6.93-3.6-16.35c-0.2-6.94,1.94-17.32,2.08-22.17C51.14,14.56,50.44,8.32,44.35,8.32z"/>
<path style="fill:#D8CEC9;" d="M71.8,4.96c-9.5,0-9.67,10.37-9.5,15.06c0.18,4.84,2.69,12.91,2.69,20.43s-1.08,12.19-2.87,16.13
	c-1.79,3.94-6.63,10.58-7.17,23.84s8.6,38.32,10.04,39.61c1.79,1.61,14.51,1.1,15.95-0.18c1.61-1.43,9.86-18.46,9.68-38.18
	c-0.18-19.72-12.33-25.64-11.83-41.41c0.36-11.29,2.37-13.79,2.69-21.15C81.84,10.88,78.62,4.96,71.8,4.96z"/>
<path style="fill:#F1EDEC;" d="M72.06,8.46c-4.28-0.31-7.34,3.88-5.82,13.86s2.63,16.35,2.49,20.79c-0.14,4.43-1.66,9.28-2.63,11.92
	c-0.97,2.63-4.43,11.22-4.43,11.22s4.71-1.25,7.9,1.25c3.19,2.49,9.01,8.87,10.67,15.38c1.66,6.51,2.08,16.49,2.08,16.49
	s5.13-6.79,4.16-19.54s-6.79-21.34-8.59-25.63c-1.37-3.26-2.22-6.93-2.22-10.67c0-8.87,2.63-17.18,2.63-22.72S77.74,8.88,72.06,8.46
	z"/>
<path style="fill:#FFFFFF;" d="M97.77,8.29c-1.13-0.64-3.02,0.31-3.97,2.52c-0.94,2.2-0.88,5.29,0.88,5.79s3.34-1.7,3.84-4.03
	S99.09,9.04,97.77,8.29z"/>
<path style="fill:#FFFFFF;" d="M70.69,8.79c-1.08-0.3-3.02,0.57-3.84,3.02s-0.5,4.79,0.69,5.35c1.78,0.84,3.65-1.26,4.28-3.65
	C72.45,11.12,72.52,9.29,70.69,8.79z"/>
<path style="fill:#FFFFFF;" d="M44.17,9.36c1.2,1.14,0.63,3.59-0.76,5.1c-1.39,1.51-3.28,2.08-4.47,1.26
	c-1.2-0.82-0.81-3.47,0.63-5.23C41.28,8.41,42.91,8.16,44.17,9.36z"/>
<path style="fill:#FFFFFF;" d="M41.97,50.92c-0.77-0.43-2.14-0.38-3.15,1.83c-1.01,2.2-1.95,4.35-1.95,4.35l3.4,1.76
	c0,0,1.57-2.96,2.14-4.47S43.1,51.55,41.97,50.92z"/>
<path style="fill:#FFFFFF;" d="M63.95,63.77c0,0,1.83-5.23,2.58-7.31s2.14-5.29,3.78-4.41c1.64,0.88,0.44,4.66-0.25,6.55
	c-0.69,1.89-2.58,7.24-2.58,7.24L63.95,63.77z"/>
<path style="fill:#FFFFFF;" d="M97.39,49.29c-1.35-0.51-2.77,1.32-4.53,5.42s-1.89,4.72-2.27,5.73c-0.38,1.01-0.76,3.15,0.88,3.84
	c1.64,0.69,2.69-1.51,3.21-2.58c0.94-1.95,1.89-4.47,2.83-6.8S99.22,49.98,97.39,49.29z"/>
<path style="fill:#FC5027;" d="M91.41,29.87l15.05,0.02c0,0-0.2,1.42-0.29,2.51c-0.08,0.94-0.21,2.65-0.21,2.65l-13.98,0.01
	c0,0-0.07-1.26-0.26-2.77C91.61,31.36,91.41,29.87,91.41,29.87z"/>
<path style="fill:#FC5027;" d="M92.02,40.81l13.96,0.01c0,0,0.17,1.5,0.33,2.5s0.51,2.58,0.51,2.58l-15.29-0.04
	c0,0,0.21-1.4,0.32-2.56C91.96,42.12,92.02,40.81,92.02,40.81z"/>
<path style="fill:#FC5027;" d="M64.3,32.54l15.16,0.05c0,0-0.24,1.56-0.35,2.84c-0.12,1.32-0.21,2.66-0.21,2.66H64.91
	c0,0-0.14-1.44-0.25-2.72C64.55,34.09,64.3,32.54,64.3,32.54z"/>
<path style="fill:#FC5027;" d="M64.91,44.11l14.02,0.02c0,0,0.17,1.64,0.48,3.01c0.2,0.89,0.62,2.35,0.62,2.35l-15.72,0
	c0,0,0.25-1.7,0.36-2.59S64.91,44.11,64.91,44.11z"/>
<path style="fill:#FC5027;" d="M36.65,29.04l16.59-0.01c0,0-0.4,2.1-0.57,2.92c-0.23,1.12-0.49,2.62-0.49,2.62l-14.81-0.02
	c0,0-0.14-1.62-0.28-2.68C36.9,30.6,36.65,29.04,36.65,29.04z"/>
<path style="fill:#FC5027;" d="M37.51,39.93l14.35,0.02c0,0,0.06,1.91,0.11,2.63c0.06,0.72,0.33,2.93,0.33,2.93l-15.21,0
	c0,0,0.2-1.99,0.28-3.06C37.44,41.49,37.51,39.93,37.51,39.93z"/>
<path style="fill:#474C4F;" d="M16.55,109.93c11.42,17.31,39.44,19.54,53.33,3.77s10.71-41.86-6.59-52.51
	C46.45,50.83,5.16,92.67,16.55,109.93z"/>
<path style="fill:#5E6367;" d="M22.67,62.95c-11.02,8.08-16.66,26.71-8.35,43.14c0.65,1.29,1.33,2.62,2.23,3.83
	c2,2.71,28.14,7.06,41.44-7.42c14.22-15.48,9.89-37.09,5.3-41.32c-1.2-1.1-2.76-1.59-4.12-2.24C43.98,51.8,30.44,57.26,22.67,62.95z
	"/>
<path style="fill:#191919;" d="M41.47,87.01c-0.19,3.27,2.16,4.93,4.38,5.1c2.22,0.17,5.26-0.94,5.43-4.38
	c0.17-3.33-1.94-5.27-4.82-5.32C43.78,82.36,41.64,84.19,41.47,87.01z"/>
<path style="fill:#191919;" d="M31.98,74.25c-2.82,0.22-4.21,2.21-4.32,4.71c-0.11,2.38,1.39,4.99,5.1,4.93
	c3.33-0.05,4.95-2.55,4.59-5.24C36.94,75.58,34.86,74.03,31.98,74.25z"/>
<path style="fill:#191919;" d="M28.81,94.18c-2.99,0.11-4.21,2.22-4.27,4.38c-0.06,2.16,1.61,4.33,4.44,4.27
	c2.94-0.06,4.27-2,4.32-4.27S31.86,94.07,28.81,94.18z"/>
</svg>
