<?xml version="1.0" encoding="UTF-8" standalone="no"?><svg xmlns:dc="http://purl.org/dc/elements/1.1/" xmlns:cc="http://creativecommons.org/ns#" xmlns:rdf="http://www.w3.org/1999/02/22-rdf-syntax-ns#" xmlns:svg="http://www.w3.org/2000/svg" xmlns="http://www.w3.org/2000/svg" viewBox="0 0 45 45" style="enable-background:new 0 0 45 45;" xml:space="preserve" version="1.1" id="svg2"><metadata id="metadata8"><rdf:RDF><cc:Work rdf:about=""><dc:format>image/svg+xml</dc:format><dc:type rdf:resource="http://purl.org/dc/dcmitype/StillImage"/></cc:Work></rdf:RDF></metadata><defs id="defs6"><clipPath id="clipPath16" clipPathUnits="userSpaceOnUse"><path id="path18" d="M 0,36 36,36 36,0 0,0 0,36 Z"/></clipPath></defs><g transform="matrix(1.25,0,0,-1.25,0,45)" id="g10"><g id="g12"><g clip-path="url(#clipPath16)" id="g14"><g transform="translate(2,0)" id="g20"><path id="path22" style="fill:#292f33;fill-opacity:1;fill-rule:nonzero;stroke:none" d="m 0,0 c 0,0 -2,0 -2,2 l 0,32 c 0,0 0,2 2,2 l 32.031,0 C 34,36 34,34 34,34 L 34,2 C 34,2 34,0 32,0 L 0,0 Z"/></g><g transform="translate(19,3)" id="g24"><path id="path26" style="fill:#e1e8ed;fill-opacity:1;fill-rule:nonzero;stroke:none" d="m 0,0 c 0,0 0,-1 1,-1 l 5,0 c 1,0 1,1 1,1 L 7,28 0,28 0,0 Z"/></g><g transform="translate(28,31)" id="g28"><path id="path30" style="fill:#e1e8ed;fill-opacity:1;fill-rule:nonzero;stroke:none" d="m 0,0 0,-28 c 0,0 0,-1 1,-1 l 4,0 c 1,0 1,1 1,1 L 6,0 0,0 Z"/></g><g transform="translate(10,3)" id="g32"><path id="path34" style="fill:#e1e8ed;fill-opacity:1;fill-rule:nonzero;stroke:none" d="m 0,0 c 0,0 0,-1 1,-1 l 5,0 c 1,0 1,1 1,1 L 7,28 0,28 0,0 Z"/></g><g transform="translate(2,3)" id="g36"><path id="path38" style="fill:#e1e8ed;fill-opacity:1;fill-rule:nonzero;stroke:none" d="m 0,0 c 0,0 0,-1 1,-1 l 4,0 c 1,0 1,1 1,1 L 6,28 0,28 0,0 Z"/></g><g transform="translate(30,13)" id="g40"><path id="path42" style="fill:#292f33;fill-opacity:1;fill-rule:nonzero;stroke:none" d="m 0,0 c 0,0 0,-1 -1,-1 l -4,0 c -1,0 -1,1 -1,1 l 0,20 6,0 0,-20 z"/></g><g transform="translate(21,13)" id="g44"><path id="path46" style="fill:#292f33;fill-opacity:1;fill-rule:nonzero;stroke:none" d="m 0,0 c 0,0 0,-1 -1,-1 l -4,0 c -1,0 -1,1 -1,1 l 0,20 6,0 0,-20 z"/></g><g transform="translate(12,13)" id="g48"><path id="path50" style="fill:#292f33;fill-opacity:1;fill-rule:nonzero;stroke:none" d="m 0,0 c 0,0 0,-1 -1,-1 l -4,0 c -1,0 -1,1 -1,1 l 0,20 6,0 0,-20 z"/></g></g></g></g></svg>
