<svg xmlns="http://www.w3.org/2000/svg" viewBox="0 0 64 64" enable-background="new 0 0 64 64"><path fill="#428bc1" d="m47.8 2l-12.6 19h6.3l12.6-19z"/><path fill="#e8e8e8" d="m41.5 2l-12.7 19h6.4l12.6-19z"/><path fill="#ed4c5c" d="m35.2 2l-12.7 19h6.3l12.7-19z"/><path d="m20.4 16.8c-.6 0-1.1.5-1.1 1.1v9.5c0 .6.5 1.1 1.1 1.1h23.2c.6 0 1.1-.5 1.1-1.1v-9.5c0-.6-.5-1.1-1.1-1.1h-23.2m22.1 7.3c0 .6-.5 1.1-1.1 1.1h-19c-.6 0-1.1-.5-1.1-1.1v-4.2c0-.6.5-1.1 1.1-1.1h19c.6 0 1.1.5 1.1 1.1v4.2" fill="#ffc200"/><path fill="#ed4c5c" d="m22.5 21h6.3l-12.6-19h-6.3z"/><path fill="#e8e8e8" d="m28.8 21h6.4l-12.7-19h-6.3z"/><path opacity=".5" fill="#3e4347" d="m33.1 5.2l-3.2 4.7 7.4 11.1h4.2l1-1.6z"/><path fill="#428bc1" d="m35.2 21h6.3l-12.7-19h-6.3z"/><circle cx="32" cy="42.3" r="19.7" fill="#ffc200"/><path d="m32.3 24.4c-10.1 0-18.2 8.2-18.2 18.2 0 3 .7 5.8 2 8.3-.6-2-1-4.1-1-6.3 0-10.7 8.2-19.4 18.7-20.2-.5 0-1 0-1.5 0" fill="#e68a00"/><path d="m46 31c5.1 9 2.5 20.6-6.4 26.5-1.8 1.2-3.8 2.1-5.8 2.7 2.8-.3 5.5-1.3 8-3 8.4-5.6 10.6-16.8 5.1-25-.3-.4-.6-.8-.9-1.2" fill="#ffe394"/><path fill="#f2b200" d="m32 34.3v-6.4l-3.2 10 1.4 1.8z"/><path fill="#e68a00" d="m33.8 39.7l1.4-1.8-3.2-10v6.4z"/><path fill="#c47500" d="m34.8 43l2.4 1.1 8.5-6.2-6.3 1.8z"/><path fill="#ffe394" d="m39.4 39.7l6.3-1.8h-10.5l-1.4 1.8z"/><path fill="#ffd252" d="m30.2 39.7l-1.4-1.8h-10.5l6.3 1.8z"/><path fill="#ffdb75" d="m24.6 39.7l-6.3-1.8 8.4 6.2 2.5-1.1z"/><path fill="#e68a00" d="m34.8 43l1.8 5.4 3.9 5.7-3.3-10z"/><g fill="#f2b200"><path d="m32 45.1v2.8l8.5 6.2-3.9-5.7z"/><path d="m29.2 43l-2.5 1.1-3.2 10 3.9-5.7z"/></g><path fill="#e68a00" d="m27.4 48.4l-3.9 5.7 8.5-6.2v-2.8z"/><path fill="#ffce31" d="m33.8 39.7l-1.8-5.4-1.8 5.4h-5.6l4.6 3.3-1.8 5.4 4.6-3.3 4.6 3.3-1.8-5.4 4.6-3.3z"/></svg>