<?xml version="1.0" encoding="utf-8"?>
<!-- Generator: Adobe Illustrator 24.0.3, SVG Export Plug-In . SVG Version: 6.00 Build 0)  -->
<svg version="1.1" id="Layer_1" xmlns="http://www.w3.org/2000/svg" xmlns:xlink="http://www.w3.org/1999/xlink" x="0px" y="0px"
	 viewBox="0 0 128 128" style="enable-background:new 0 0 128 128;" xml:space="preserve">
<g>
	<path id="head" style="fill:#70534A;" d="M67.4,36.19c0,0,1.12,4.32-3.68,5.44c-4.2,0.99-5.08-3.25-5.08-3.25s-0.93-4.28-2.85-4.7
		c-0.73-0.16-0.89,0.02-2.98-0.29c-3.57-0.54-4.51-2.27-4.81-3.84c-0.1-0.48-0.14-0.95-0.17-1.36c-0.05-0.57-0.1-1.03-0.3-1.29
		c-0.16-0.21-2.38-1.06-2.08-2.13c0.4-1.42,3.02-2.55,2.91-3.87c0.01-0.34-0.21-1.45-0.24-1.6c-0.21-1.26-0.14-3.02,0.26-4.76
		c1.1-4.8,4.23-8.43,9.6-8.94c4.81-0.44,10.31,3.14,12.56,7.41c1.44,2.74-0.65,9.81-3.11,13.55C64.23,31.44,67.4,36.19,67.4,36.19z"
		/>
	<path id="mouth" style="fill:#1A1717;" d="M50.48,29.02c-0.76,0.49-1.62,0.63-2.48,0.53c-0.1-0.48-0.14-0.95-0.17-1.36
		c0.68,0.14,1.54,0.1,2.05-0.07C50.82,27.8,51.32,28.5,50.48,29.02z"/>
	
		<ellipse id="eye_2_" transform="matrix(0.0384 -0.9993 0.9993 0.0384 28.2839 73.1922)" style="fill:#1A1717;" cx="52.17" cy="21.9" rx="1.76" ry="1.14"/>
	<path id="eyebrow_2_" style="fill:#1A1717;" d="M51.54,19.45c-1.1,0.36-1.39-0.36-1.03-0.97c0.26-0.44,0.92-0.83,2.23-0.62
		c1.23,0.2,1.76,0.89,2.1,1.31s0.32,0.85,0.04,0.89C54.49,20.14,52.9,19.01,51.54,19.45z"/>
	<g id="pants_x5F_back_2_">
		<g id="pants_x5F_back_x5F_fill_2_">
			<path style="fill:#616161;" d="M98.86,82.64l-18.57,3.71l-5.17-17.87l-12.43,8.33l9.06,18.2l0.04-0.03
				c0.72,1.29,1.94,2.32,3.49,2.8c0.45,0.14,0.9,0.22,1.36,0.25l0,0.02l0.15-0.01c0.56,0.03,1.11-0.01,1.64-0.12l22.92-8.71
				L98.86,82.64z"/>
		</g>
	</g>
	<g id="shoe_x5F_back_2_">
		<path style="fill:#325599;" d="M102.84,78.83c-0.32-0.54-1.01-0.71-1.55-0.39l-2.37,1.42c-1.61,0.96-2.48,3.69-2.48,3.69
			l3.52,5.91l4.93,4.28c1.27,0.99,3.02,1.1,4.41,0.29l1.07-0.63c0.47-0.28,0.63-0.89,0.35-1.36L102.84,78.83z"/>
	</g>
	<g id="pants_x5F_front_2_">
		<g id="pants_x5F_fill_2_">
			<path style="fill:#7C7C7C;" d="M44.86,113.8L56.27,92c0,0,14.21-11.76,15.45-12.59c4.63-3.1,5.55-7.41,5.09-10.54
				c-0.36-2.43-1.97-5.66-1.97-5.66l-18.65,5.56l0.88,3.42c0,0-5.71,7.38-7.04,8.92c-1.33,1.54-3.61,3.69-5.38,9.76
				c-1.87,6.4-6.56,21.83-6.56,21.83L44.86,113.8z"/>
		</g>
	</g>
	<g id="shoe_x5F_left_2_">
		<path style="fill:#4568AD;" d="M44.85,120.59c0.62,0.1,1.2-0.32,1.3-0.93l0.44-2.73c0.31-1.85-1.22-4.27-1.22-4.27l-6.79-1.12
			l-6.45,1.01c-1.58,0.34-2.79,1.6-3.06,3.19l-0.21,1.23c-0.09,0.54,0.27,1.05,0.81,1.14L44.85,120.59z"/>
	</g>
	<g id="arm_3_">
		
			<linearGradient id="SVGID_1_" gradientUnits="userSpaceOnUse" x1="36.9427" y1="79.8359" x2="53.6869" y2="78.9056" gradientTransform="matrix(1 0 0 -1 0 128)">
			<stop  offset="0.5979" style="stop-color:#70534A"/>
			<stop  offset="1" style="stop-color:#5C4037"/>
		</linearGradient>
		<path style="fill:url(#SVGID_1_);" d="M50.06,49.02l-8.96-6.82l-4.36,4.66l9.04,8.76l0.01-0.01c1.77,1.85,5.92,3.11,9.37-0.03
			c3.28-2.99,7.33-9.36,7.33-9.36l-7.01-5.62L50.06,49.02z"/>
	</g>
	<g id="sleeve_x5F_left_2_">
		<g id="sleeve_x5F_fill_6_">
			<path style="fill:#ED6D23;" d="M50.27,44.94c2.57,7.19,8.87,7.41,8.87,7.41l5.02-8.6c1.35-2.31,0.57-5.29-1.74-6.64l-0.83-0.49
				c-2.31-1.35-4.27-0.69-7.38,3.85C51.42,44.56,50.27,44.94,50.27,44.94z"/>
		</g>
	</g>
	<g id="shirt_2_">
		<g id="shirt_x5F_fill_2_">
			
				<linearGradient id="SVGID_2_" gradientUnits="userSpaceOnUse" x1="5.4799" y1="-286.8376" x2="32.0632" y2="-286.8376" gradientTransform="matrix(0.9625 0.2714 0.2714 -0.9625 125.3515 -228.6859)">
				<stop  offset="0" style="stop-color:#F78C1F"/>
				<stop  offset="0.482" style="stop-color:#F47F12"/>
				<stop  offset="1" style="stop-color:#EF6C00"/>
			</linearGradient>
			<path style="fill:url(#SVGID_2_);" d="M56.19,68.76c-2.48-9.84-2.94-16.75-2.38-22.29c0.72-6.98,4.05-11.15,7.79-12.47
				c4.62-1.63,7.82,0.72,9.11,4.9c0.88,2.85,0.71,5.04,0.64,6.4c0,0-0.64,7.47,5.3,16.82c0,0-0.57,4.06-10.05,6.29
				C62.38,69.4,56.19,68.76,56.19,68.76z"/>
		</g>
	</g>
	<g id="fist_x5F_left_1_">
		<g id="tone_4_">
			<path style="fill:#4A2F27;" d="M71.46,59.61c0,0-4.34-2.16-4.39-2.18c-0.55-0.29-1.23-0.09-1.52,0.46l-0.93,1.74
				c-0.15,0.29-0.16,0.61-0.06,0.9c-0.5,0.29-1.73,1.05-1.99,1.56c-0.3,0.58,0.04,1.19,0.36,1.33c0.37,0.16,0.54,0.68,0.43,1.07
				c-0.12,0.4-0.11,0.81,0.08,1.14c0.19,0.33,0.43,0.46,0.89,0.55c0.22,0.04,0.45,0.32,0.45,0.54c-0.01,0.34-0.01,0.93,0.16,1.15
				c0.34,0.45,0.9,0.31,1.19,0.64c0.11,0.13,0.12,0.7,0.35,0.91c0.68,0.64,2.89-0.54,2.89-0.54l4.22-3.91L71.46,59.61z"/>
		</g>
		<g id="hand_3_">
			
				<linearGradient id="SVGID_3_" gradientUnits="userSpaceOnUse" x1="73.4472" y1="66.5063" x2="66.9356" y2="63.3436" gradientTransform="matrix(1 0 0 -1 0 128)">
				<stop  offset="0.5979" style="stop-color:#70534A"/>
				<stop  offset="1" style="stop-color:#5C4037"/>
			</linearGradient>
			<path style="fill:url(#SVGID_3_);" d="M70.06,58.93l2.67,0.75l1.83,5.05c0,0-5.71,5.62-6.68,4.05c-0.31-0.49,0.26-1.02-0.57-1.33
				c-0.59-0.22-1.03-0.5-0.86-1.41c0.07-0.34-0.2-0.76-0.44-0.79c-1.08-0.13-1.36-0.73-1.04-1.49c0.18-0.42,0.14-1.13-0.47-1.45
				c-0.22-0.12-0.53-0.61-0.39-1.31C64.34,59.91,70.06,58.93,70.06,58.93z"/>
		</g>
	</g>
	
		<linearGradient id="arm_1_" gradientUnits="userSpaceOnUse" x1="81.3073" y1="67.685" x2="73.1213" y2="76.6152" gradientTransform="matrix(1 0 0 -1 0 128)">
		<stop  offset="0.5979" style="stop-color:#70534A"/>
		<stop  offset="1" style="stop-color:#5C4037"/>
	</linearGradient>
	<path id="arm_2_" style="fill:url(#arm_1_);" d="M73.73,65.36l9.89-6.67l0-0.01c1.19-1.18,1.61-2,1.85-2.99
		c0.76-3.1-1.26-5.26-1.26-5.26L75.06,40.2l-5.64,5.83l8.04,8.04l-6.01,5.55L73.73,65.36z"/>
	<g id="sleeve_x5F_right_2_">
		<g id="sleeve_x5F_fill_1_">
			<path style="fill:#ED6D23;" d="M73.93,52.01c0,0,6.06-5.99,5.9-10.6c0,0-2.89-0.01-7.19-3.26c-2.71-2.04-6.31-2.21-7.76,0.17
				c-1.29,2.1-1.08,4.69,1.4,7.66C68.14,48.19,73.93,52.01,73.93,52.01z"/>
		</g>
	</g>
	<g id="hand_1_">
		<g id="finger_6_">
			
				<linearGradient id="SVGID_4_" gradientUnits="userSpaceOnUse" x1="1928.8405" y1="888.0734" x2="1931.6906" y2="888.0734" gradientTransform="matrix(-0.7037 0.7105 -0.7105 -0.7037 2023.7075 -704.4813)">
				<stop  offset="0.5" style="stop-color:#70534A"/>
				<stop  offset="1" style="stop-color:#5C4037"/>
			</linearGradient>
			<path style="fill:url(#SVGID_4_);" d="M36.29,43.39l-0.03,0.02c-0.43,0.54-1.17,0.69-1.65,0.32l-1.95-1.47
				c-0.48-0.36-0.52-1.1-0.09-1.64l0,0c0.43-0.54,1.17-0.69,1.65-0.32l1.95,1.47C36.66,42.14,36.73,42.85,36.29,43.39z"/>
		</g>
		
			<linearGradient id="SVGID_5_" gradientUnits="userSpaceOnUse" x1="769.9894" y1="881.7195" x2="779.394" y2="881.7195" gradientTransform="matrix(0.6649 -0.7469 -0.7469 -0.6649 180.7465 1207.8673)">
			<stop  offset="0" style="stop-color:#5C4037"/>
			<stop  offset="0.1375" style="stop-color:#70534A"/>
			<stop  offset="0.831" style="stop-color:#70534A"/>
		</linearGradient>
		<path style="fill:url(#SVGID_5_);" d="M37.93,37.24c0.03,0.02,0.04,0.04,0.04,0.04c0.89,0.95,1.68,1.74,2.02,1.95
			c0.9,0.57,1.74,1.29,2.26,2.3c0.97,1.89-0.27,3.75-1.72,5.12c-1.44,1.38-2.35,1.68-3.92,1.42c-1.28-0.21-3.99-3.08-3.99-3.08
			c-0.28-0.33-0.6-0.67-0.92-0.99c-0.12-0.12-0.25-0.24-0.37-0.37l-0.01-0.01c-0.37-0.36-0.42-0.84-0.01-1.34
			c0.54-0.66,1.07-0.32,1.13-0.27c0,0,0.01,0.01,0.01,0.01c0.25,0.23,0.52,0.54,0.72,0.69c0.58,0.43,0.9,0.51,0.9,0.51l2.74-3.48
			l-0.93-1.24c0,0-0.01-0.02-0.04-0.05c-0.1-0.16-0.49-0.73,0.25-1.4C36.91,36.35,37.76,37.08,37.93,37.24z"/>
		<g id="finger_5_">
			
				<linearGradient id="SVGID_6_" gradientUnits="userSpaceOnUse" x1="1945.1741" y1="847.0459" x2="1947.8921" y2="847.0459" gradientTransform="matrix(-0.7195 0.6945 -0.6945 -0.7195 2024.778 -702.1033)">
				<stop  offset="0.5" style="stop-color:#70534A"/>
				<stop  offset="1" style="stop-color:#5C4037"/>
			</linearGradient>
			<path style="fill:url(#SVGID_6_);" d="M37.84,41.96L37.84,41.96c-0.48,0.51-1.23,0.59-1.68,0.19l-2.07-1.85
				c-0.45-0.4-0.43-1.14,0.05-1.65l0,0c0.48-0.51,1.23-0.59,1.68-0.19l2.07,1.85C38.33,40.72,38.31,41.45,37.84,41.96z"/>
		</g>
		
			<linearGradient id="finger_2_" gradientUnits="userSpaceOnUse" x1="1927.8044" y1="886.9025" x2="1927.0012" y2="880.7198" gradientTransform="matrix(-0.7037 0.7105 -0.7105 -0.7037 2023.7075 -704.4813)">
			<stop  offset="0.5" style="stop-color:#70534A"/>
			<stop  offset="1" style="stop-color:#5C4037"/>
		</linearGradient>
		<path id="finger_1_" style="fill:url(#finger_2_);" d="M35.15,42.26c0.45-0.65,1-1.45,1.61-2.14c0.09-0.1,0.17-0.19,0.26-0.28
			c0.84-0.87,1.94-1.02,3.32-0.27c0,0,0,0,0,0c0.05,0.03,0.09,0.05,0.14,0.08c0.08,0.05,0.16,0.1,0.25,0.15c0,0,0.01,0.01,0.01,0.01
			c0.12,0.08,0.24,0.16,0.36,0.25c0.41,0.3,0.72,0.67,0.91,1.03c0.76,1.21,0.54,2.36,0.54,2.36s-0.88,2.68-2.18,2.21
			s-1.97-2.32-1.97-2.32L38.74,42c-0.39-0.04-0.73,0.13-1.19,0.65c-0.15,0.17-0.32,0.38-0.52,0.63c-0.02,0.03-0.27,0.34-0.29,0.36
			c-0.3,0.33-0.64,0.49-1.05,0.46c-0.53-0.03-0.98-0.54-1.23-0.74C34.65,43.12,34.9,42.61,35.15,42.26z"/>
		
			<radialGradient id="shadow_1_" cx="37.3351" cy="84.4602" r="3.1067" gradientTransform="matrix(1 0 0 -1 0 128)" gradientUnits="userSpaceOnUse">
			<stop  offset="0" style="stop-color:#5C4037"/>
			<stop  offset="1" style="stop-color:#70534A"/>
		</radialGradient>
		<polygon id="shadow" style="fill:url(#shadow_1_);" points="34.56,45.35 36.18,44.02 37.04,43.04 38.16,42.06 38.55,42.23 
			38.31,43.51 39.15,44.77 39.68,45.22 36.93,47.17 		"/>
		<path id="tone_5_" style="fill:#4A2F27;" d="M34.67,44.62c-0.03,0.62-0.63,0.96-0.59,0.97c0.17,0.07,1.01-0.14,1.94-1.18
			c0.72-0.81,1.41-1.86,2.25-2.11c-0.29,1.42,0.34,2.51,1.5,2.94c-0.89-0.83-1.61-2.23-0.8-3.35c-0.66-0.4-1.43,0.26-1.82,0.74
			c-0.45,0.54-0.85,1.38-1.68,1.27c-0.57-0.07-0.78-0.43-0.58-0.97c0.5-1.32,1.67-2.67,2.87-3.42c0.44-0.27,1.34-0.34,2.5-0.11
			c-0.85-0.66-2.3-0.45-2.85-0.19c-0.47,0.22-0.35,0.13-0.77-0.14c-0.21-0.14-0.42-0.28-0.62-0.41c0.17,0.28,0.47,0.62,0.52,0.95
			c0.06,0.41-0.33,0.76-0.57,1.05c-0.62,0.74-1.16,0.1-1.8-0.3c0.43,0.51,0.53,0.67,0.75,1.03c0.29,0.49-0.15,0.89-0.47,1.27
			c-0.65,0.78-1.99-0.81-2.08-0.71C32.27,42.07,34.7,43.94,34.67,44.62z"/>
	</g>
	<g id="hairGroup_2_">
		<path id="hair_4_" style="fill:#232020;" d="M73.59,12.82c-1.26-3.34-3.93-4.39-4.8-4.65c-0.39-1.21-2.38-5.8-9.93-4.7
			c-1.84,0.27-3.19,1.12-4.39,1.87c-0.51,0.32-1,0.63-1.45,0.83C52.65,6.34,52,6.49,51.47,6.3c-1.21-0.42-0.78-2.25-0.78-2.25
			s-4.46,0.8-2.62,5.13c-1.5,0.63-2.22,2.2-2.51,3.68c-0.4,2.02,0.56,3.98,2.49,4.88c0,0-0.33-3.27,4.38-2.99
			c1.46,0.09,2.98,0.34,4.35-0.18c0.52-0.2,1.01-0.52,1.52-0.76c0.12,0,0.18,0,0.18,0c1.77,0.99-0.66,5.15,1.28,7.65
			c0.38,0.49,0.72,0.32,0.72,0.32l0.82-1.15c0.62-0.79,1.18-1.48,1.93-1.3c2.21,0.53,1.74,4.48-0.91,5.31
			c-0.26,0.08,0.27,4.51,5.73,4.61c2.82,0.05,3.86-2.27,3.86-2.27s-1.21,0.28-1.45-0.75c-0.13-0.53,0.37-1.24,1.27-2.01
			c2.58-2.22,1.71-4.83,1.35-5.65C73.46,17.83,74.57,15.43,73.59,12.82z"/>
		<g id="hairHighlights_2_">
			
				<radialGradient id="SVGID_7_" cx="-2447.738" cy="339.8989" r="7.1292" gradientTransform="matrix(0.9316 0.3634 0.5233 -1.3417 2168.6738 1369.2035)" gradientUnits="userSpaceOnUse">
				<stop  offset="0.45" style="stop-color:#444140;stop-opacity:0"/>
				<stop  offset="1" style="stop-color:#444140"/>
			</radialGradient>
			<path style="fill:url(#SVGID_7_);" d="M73.06,18.58c0.05-0.09-0.82,1.99-4.42,1.58c-1.48-0.03-3.61,3.51-1.49,5.91
				c1.88,2.12,4.74,0.92,4.74,0.92s-0.39,0.11-0.96-0.1c-0.37-0.14-0.49-0.62-0.49-0.64c-0.13-0.53,0.37-1.24,1.27-2.01
				C74.29,22,73.42,19.39,73.06,18.58z"/>
			
				<radialGradient id="SVGID_8_" cx="-2446.8953" cy="347.0881" r="7.2264" gradientTransform="matrix(0.9932 -0.1163 -0.1467 -1.2533 2548.3518 166.9447)" gradientUnits="userSpaceOnUse">
				<stop  offset="0.45" style="stop-color:#444140;stop-opacity:0"/>
				<stop  offset="1" style="stop-color:#444140"/>
			</radialGradient>
			<path style="fill:url(#SVGID_8_);" d="M73.59,12.82c-0.66-1.76-1.91-3.25-3.57-4.13c-0.24-0.13-0.83-0.43-1.24-0.51
				c0.18,0.78,0.15,1.61-0.2,2.45c-0.01,0.03-0.41,1.29-1.52,2.29c0.77,1.11,1.15,2.45,1.5,3.77c0.31,1.15,0.6,2.41,0.08,3.48
				c0.69-0.03,1.79,0.18,3.01-0.34c1.17-0.5,1.8-1.83,2.11-3.02C74.09,15.49,74.07,14.1,73.59,12.82z"/>
			
				<radialGradient id="SVGID_9_" cx="-2454.9565" cy="349.5819" r="14.8733" gradientTransform="matrix(0.9908 -0.1353 -0.1017 -0.7447 2527.0454 -58.0492)" gradientUnits="userSpaceOnUse">
				<stop  offset="0.45" style="stop-color:#444140;stop-opacity:0"/>
				<stop  offset="1" style="stop-color:#444140"/>
			</radialGradient>
			<path style="fill:url(#SVGID_9_);" d="M68.57,10.63c0.91-2.22-0.28-4.3-2.11-5.71c-2.15-1.65-5.01-1.83-7.6-1.45
				c-1.84,0.27-3.19,1.12-4.39,1.87c-0.51,0.32-1,0.63-1.45,0.83C52.65,6.34,52,6.49,51.47,6.3c-1.21-0.42-0.78-2.25-0.78-2.25
				s-4.46,0.8-2.62,5.13c-1.5,0.63-2.22,2.2-2.51,3.68c-0.4,2.02,0.56,3.98,2.49,4.88c0,0-0.33-3.27,4.38-2.99
				c1.46,0.09,2.98,0.34,4.35-0.18c1.21-0.46,1.63-1.1,2.97-1c1.45,0.11,3.37,0.69,4.86,0.49C67.63,13.65,68.56,10.67,68.57,10.63z"
				/>
			
				<radialGradient id="SVGID_10_" cx="-2446.095" cy="339.0294" r="8.0069" gradientTransform="matrix(0.9645 0.2639 0.1697 -0.6201 2369.6274 880.356)" gradientUnits="userSpaceOnUse">
				<stop  offset="0.45" style="stop-color:#444140;stop-opacity:0"/>
				<stop  offset="1" style="stop-color:#444140"/>
			</radialGradient>
			<path style="fill:url(#SVGID_10_);" d="M67.15,26.07c-0.95-1.05-1.18-2.75-2.68-3.69c-0.3,0.98-1.03,1.91-2.16,2.26
				c-0.26,0.08,0.27,4.51,5.73,4.61c2.82,0.05,3.86-2.27,3.86-2.27S69.07,28.18,67.15,26.07z"/>
		</g>
	</g>
</g>
</svg>
