<svg xmlns="http://www.w3.org/2000/svg" viewBox="0 0 64 64" enable-background="new 0 0 64 64"><g fill="#f2b200"><path d="m12.7 31.7c-.5 0-1.1-.1-1.5-.4-1.3-.7-2.9-2.5-2.9-7.3 0-10-5.4-15.8-5.4-15.8l-.9-1 4.7-5.2.8 1.2c.1.1 2.6 3.7 6.5 2.7l.5 2.6c-3.9 1-6.7-1.1-8.1-2.6l-1 1.3c1.7 2.2 5.3 8 5.3 16.8 0 2.6.5 4.4 1.5 4.9.7.4 1.8 0 2.8-1 2.6-2.6 4.5-9 4.5-9l2.2.8c-.1.3-2.1 7.2-5.2 10.2-1.3 1.2-2.6 1.8-3.8 1.8"/><path d="m51.3 31.7c.5 0 1.1-.1 1.5-.4 1.3-.7 2.9-2.5 2.9-7.3 0-10.1 5.3-15.8 5.4-15.9l.9-.9-4.7-5.2-.8 1.2c-.1.1-2.6 3.7-6.5 2.7l-.5 2.6c3.9 1 6.7-1.1 8.1-2.6l1.2 1.3c-1.7 2.2-5.3 8-5.3 16.8 0 2.6-.5 4.4-1.5 4.9-.7.4-1.8 0-2.8-1-2.6-2.6-4.5-9-4.5-9l-2.2.8c.1.3 2.1 7.2 5.2 10.2 1.1 1.2 2.4 1.8 3.6 1.8"/><path d="m29 24.9h6.1v24.5h-6.1z"/></g><path fill="#ffce31" d="m30.2 24.9h3.6v24.5h-3.6z"/><path d="M11.8,2C13.5,17.4,21.9,29.7,32,29.7S50.5,17.4,52.2,2H11.8z" fill="#f2b200"/><path d="M15.7,2c1.4,15.6,8.2,28,16.3,28S46.9,17.6,48.3,2H15.7z" fill="#ffce31"/><path d="m47.6 54h-31.2c0 0 7-9 15.6-9 8.6 0 15.6 9 15.6 9" fill="#f2b200"/><path d="M43.9,54H20.1c0,0,5.3-9.2,11.9-9.2S43.9,54,43.9,54z" fill="#ffce31"/><path fill="#bc845e" d="m11.8 56h40.4v6h-40.4z"/><path fill="#916140" d="m16.4 54h31.3v2h-31.3z"/><path fill="#f2b200" d="m22 57.5h20v3h-20z"/><path fill="#ce9c7a" d="m11.8 56h2v6h-2z"/><path fill="#916140" d="m50.2 56h2v6h-2z"/><path fill="#ffce31" d="m23 57.5h18v3h-18z"/></svg>