<?xml version="1.0" encoding="UTF-8" standalone="no"?><svg xmlns:dc="http://purl.org/dc/elements/1.1/" xmlns:cc="http://creativecommons.org/ns#" xmlns:rdf="http://www.w3.org/1999/02/22-rdf-syntax-ns#" xmlns:svg="http://www.w3.org/2000/svg" xmlns="http://www.w3.org/2000/svg" viewBox="0 0 45 45" style="enable-background:new 0 0 45 45;" xml:space="preserve" version="1.1" id="svg2"><metadata id="metadata8"><rdf:RDF><cc:Work rdf:about=""><dc:format>image/svg+xml</dc:format><dc:type rdf:resource="http://purl.org/dc/dcmitype/StillImage"/></cc:Work></rdf:RDF></metadata><defs id="defs6"><clipPath id="clipPath16" clipPathUnits="userSpaceOnUse"><path id="path18" d="M 0,36 36,36 36,0 0,0 0,36 Z"/></clipPath></defs><g transform="matrix(1.25,0,0,-1.25,0,45)" id="g10"><g id="g12"><g clip-path="url(#clipPath16)" id="g14"><g transform="translate(14.3159,31.7393)" id="g20"><path id="path22" style="fill:#ffdc5d;fill-opacity:1;fill-rule:nonzero;stroke:none" d="m 0,0 c -1.207,-0.267 0,-2.138 -0.37,-3.348 -0.252,-0.837 1.474,-0.941 1.474,-0.941 0,0 1.207,0.267 1.003,-1.676 C 1.9,-7.905 4.579,-8.581 4.784,-6.638 4.988,-4.697 3.399,-3.65 4.273,-2.138 6.365,1.481 0,0 0,0"/></g><g transform="translate(27.001,18)" id="g24"><path id="path26" style="fill:#ffdc5d;fill-opacity:1;fill-rule:nonzero;stroke:none" d="m 0,0 c -0.367,0 -0.72,0.202 -0.896,0.553 -1.788,3.575 -7.366,5.48 -7.422,5.499 -0.523,0.176 -0.806,0.742 -0.631,1.265 0.175,0.523 0.735,0.809 1.264,0.632 C -7.424,7.862 -1.267,5.768 0.893,1.447 1.141,0.953 0.94,0.353 0.446,0.105 0.303,0.034 0.15,0 0,0"/></g><g transform="translate(12.0015,1.999)" id="g28"><path id="path30" style="fill:#2a6797;fill-opacity:1;fill-rule:nonzero;stroke:none" d="m 0,0 c -0.182,0 -0.367,0.025 -0.55,0.078 -1.062,0.304 -1.678,1.41 -1.374,2.473 l 2,7 c 0.124,0.434 0.392,0.814 0.76,1.077 l 7,5 c 0.897,0.642 2.148,0.435 2.79,-0.465 0.642,-0.898 0.434,-2.147 -0.465,-2.789 L 3.73,7.779 1.922,1.451 C 1.671,0.573 0.87,0.001 0,0"/></g><g transform="translate(26.998,5)" id="g32"><path id="path34" style="fill:#4289c1;fill-opacity:1;fill-rule:nonzero;stroke:none" d="m 0,0 c -0.3,0 -0.605,0.067 -0.893,0.211 l -6,3 C -7.57,3.55 -7.998,4.242 -7.998,5 l 0,5 c 0,1.105 0.896,2 2,2 1.105,0 2,-0.895 2,-2 l 0,-3.764 4.894,-2.447 C 1.885,3.295 2.285,2.094 1.791,1.105 1.441,0.404 0.734,0 0,0"/></g><g transform="translate(19.0142,30.215)" id="g36"><path id="path38" style="fill:#ffdc5d;fill-opacity:1;fill-rule:nonzero;stroke:none" d="m 0,0 c -0.424,-2.16 -2.354,-2.953 -4.272,-3.523 -1.83,-0.543 -3.045,2.679 -3.105,4.864 -0.06,2.201 2.625,3.654 4.589,3.268 C -0.824,4.224 0.424,2.16 0,0"/></g><g transform="translate(12.5171,34.3216)" id="g40"><path id="path42" style="fill:#ffac33;fill-opacity:1;fill-rule:nonzero;stroke:none" d="M 0,0 C 2.67,1.637 4.456,1.352 5.937,0.147 7.408,-1.049 7.461,-3.291 7.038,-4.716 6.615,-6.14 6.2,-6.059 6.2,-6.059 c 0,0 -1.976,-0.432 -2.109,1.399 -0.042,0.579 0.605,0.886 -0.089,1.741 C 3.555,-2.37 2.55,-2.634 2.539,-3.422 2.528,-4.21 2.127,-4.059 2.127,-4.059 l -1.168,2.096 c 0,0 -1.021,0.067 -1.596,-0.866 C -0.999,-3.415 -2.332,-1.43 0,0"/></g><g transform="translate(21.1487,25.3429)" id="g44"><path id="path46" style="fill:#77b255;fill-opacity:1;fill-rule:nonzero;stroke:none" d="m 0,0 c -0.89,1.522 -2.123,2.212 -3.398,1.564 -3.993,-2.029 -1.881,-5.138 0.258,-11.373 0,0 1,-0.927 3.359,-0.296 1.659,0.445 2.691,-0.706 2.976,-0.398 C 3.48,-10.194 2.143,-3.664 0,0"/></g><g transform="translate(16.1431,23.5146)" id="g48"><path id="path50" style="fill:#ffdc5d;fill-opacity:1;fill-rule:nonzero;stroke:none" d="m 0,0 c -0.028,-0.046 -2.825,-4.631 -7.339,-5.534 l 0.004,-0.02 c -0.457,-0.092 -0.808,-0.476 -0.808,-0.961 0,-0.552 0.448,-1 1,-1 0.069,0 0.128,0.026 0.193,0.04 l 0.004,-0.02 c 5.372,1.074 8.529,6.246 8.661,6.466 L 0,0 Z"/></g><g transform="translate(29.3946,7.7435)" id="g52"><path id="path54" style="fill:#292f33;fill-opacity:1;fill-rule:nonzero;stroke:none" d="m 0,0 c 0.103,0.369 -0.192,0.668 -0.574,0.756 -0.611,0.141 -0.867,0.17 -0.867,0.17 -0.305,0.021 -0.966,-0.064 -1.064,-0.415 -0.717,-2.543 -0.657,-5.568 -0.246,-6.403 0.242,-0.493 0.981,-0.429 1.127,0.094 C -1.192,-4.254 -0.374,-1.337 0,0"/></g><g transform="translate(12.6975,0.9245)" id="g56"><path id="path58" style="fill:#292f33;fill-opacity:1;fill-rule:nonzero;stroke:none" d="M 0,0 C 0.362,-0.125 0.678,0.152 0.789,0.528 0.965,1.129 1.01,1.384 1.01,1.384 1.049,1.687 1.003,2.351 0.659,2.471 -1.837,3.337 -4.861,3.457 -5.719,3.096 -6.225,2.884 -6.205,2.142 -5.691,1.965 -4.176,1.442 -1.312,0.453 0,0"/></g></g></g></g></svg>
