<svg xmlns="http://www.w3.org/2000/svg" viewBox="0 0 36 36"><path fill="#2A6797" d="M12.002 34.001c-.182 0-.367-.025-.55-.078-1.062-.304-1.677-1.41-1.374-2.473l2-7c.124-.435.392-.814.76-1.077l7-5c.896-.642 2.147-.435 2.789.465.642.898.434 2.147-.465 2.789l-6.431 4.595-1.808 6.328c-.251.878-1.051 1.45-1.921 1.451z"/><path fill="#4289C1" d="M26.998 31c-.3 0-.605-.067-.892-.211l-6-3C19.428 27.45 19 26.758 19 26v-5c0-1.104.896-2 2-2s2 .896 2 2v3.764l4.895 2.447c.988.494 1.389 1.695.895 2.684-.352.701-1.058 1.105-1.792 1.105z"/><path fill="#292F33" d="M29.395 28.257c.103-.369-.192-.668-.574-.756-.611-.141-.867-.17-.867-.17-.305-.022-.965.064-1.064.414-.717 2.543-.657 5.569-.246 6.404.242.493.981.429 1.128-.095l1.623-5.797zm-16.697 6.819c.362.125.678-.152.789-.528.177-.601.221-.856.221-.856.04-.303-.007-.967-.35-1.087-2.496-.867-5.52-.986-6.378-.626-.506.213-.486.954.027 1.131l5.691 1.966z"/><path fill="#AF7E57" d="M18.329 7.294c.321-.415.567-.904.685-1.509.424-2.16-.824-4.224-2.788-4.609-1.964-.386-4.649 1.068-4.589 3.268.06 2.185 1.274 5.408 3.104 4.864.483-.143.966-.301 1.426-.491.196.232.335.648.255 1.409-.207 1.94 2.472 2.616 2.677.672.162-1.537-.797-2.513-.77-3.604z"/><path fill="#60352A" d="M12.517 1.678c2.67-1.637 4.456-1.352 5.937-.147 1.471 1.196 1.524 3.438 1.101 4.863-.423 1.425-.838 1.343-.838 1.343s-1.977.433-2.109-1.399c-.042-.579.605-.886-.089-1.741-.446-.55-1.452-.285-1.463.503-.011.788-.412.637-.412.637l-1.168-2.096s-1.021-.067-1.596.866c-.362.586-1.695-1.399.637-2.829z"/><path fill="#AF7E57" d="M27.001 18c-.367 0-.72-.202-.896-.553-1.788-3.576-7.366-5.481-7.423-5.5-.523-.175-.806-.742-.63-1.265.174-.523.735-.809 1.264-.632.261.087 6.418 2.181 8.578 6.502.247.494.047 1.095-.447 1.342-.143.072-.296.106-.446.106z"/><path fill="#77B255" d="M21.149 10.657c-.89-1.522-2.123-2.212-3.398-1.564-3.992 2.029-1.881 5.138.259 11.373 0 0 1 .927 3.358.296 1.659-.444 2.691.706 2.976.398.285-.309-1.053-6.839-3.195-10.503z"/><path fill="#AF7E57" d="M16.143 12.485c-.028.046-2.825 4.631-7.339 5.534l.004.02C8.351 18.131 8 18.516 8 19c0 .553.448 1 1 1 .068 0 .128-.025.192-.039l.004.02c5.372-1.074 8.529-6.246 8.661-6.466l-1.714-1.03z"/></svg>