<?xml version="1.0" encoding="utf-8"?>
<!-- Generator: Adobe Illustrator 24.0.3, SVG Export Plug-In . SVG Version: 6.00 Build 0)  -->
<svg version="1.1" id="Layer_1" xmlns="http://www.w3.org/2000/svg" xmlns:xlink="http://www.w3.org/1999/xlink" x="0px" y="0px"
	 viewBox="0 0 128 128" style="enable-background:new 0 0 128 128;" xml:space="preserve">
<g id="tone">
	<path style="fill:#EDBD82;" d="M21.18,42.61l11.72-2.09c1.57-0.35,2.57-1.9,2.22-3.47l0,0c-0.35-1.57-1.9-2.57-3.47-2.22
		l-11.61,3.23c-1.57,0.35-2.63,1.38-2.29,2.95l0,0C18.1,42.58,19.61,42.96,21.18,42.61z"/>
</g>
<g id="body">
	
		<linearGradient id="SVGID_1_" gradientUnits="userSpaceOnUse" x1="4.707" y1="52.8905" x2="96.668" y2="52.8905" gradientTransform="matrix(1 0 0 -1 0 128)">
		<stop  offset="0" style="stop-color:#F9DDBD"/>
		<stop  offset="1" style="stop-color:#FFD29C"/>
	</linearGradient>
	<path style="fill:url(#SVGID_1_);" d="M89.08,71.67c-5.11-2.41-9.21-6.93-12.69-11.39L59.64,38.85c-1.01-1.66-2.6-2.81-4.49-3.26
		c-0.08-0.02-0.16-0.03-0.24-0.05l0.01-0.07l-34.28-2.99c-1.07-0.09-2.14,0.02-3.17,0.34l-5.32,1.66c-0.7,0.22-1.37,0.53-2,0.93
		c-1.24,0.79-3.47,2.26-4.5,3.16c-0.57,0.5-0.95,1.01-0.95,1.92c0,0.74,0.3,1.4,0.86,1.86c0.61,0.51,1.47,0.71,2.35,0.55
		c1.11-0.2,2.34-1.27,3.18-2.13c0.23-0.24,0.53-0.39,0.86-0.43l5.63-0.74c0.43-0.06,0.85-0.04,1.25,0.05
		c0.75,0.17,1.63,0.32,2.66,0.51c1.33,0.24,2.99,0.53,4.93,0.96c2.4,0.53,20.25,6.29,20.42,6.34c1.21,0.42,2.27,1.23,2.98,2.3
		l6.72,10.1c2.53,3.8,2.5,8.81-0.06,12.47l-0.1,0.14c-2.71,3.91-5.94,10.83-7.19,15.43c-2.69,9.87-1.06,16.29,4.87,19.09
		l22.85,10.79l19.77-41.85L89.08,71.67z"/>
</g>
<linearGradient id="suit_1_" gradientUnits="userSpaceOnUse" x1="31.6262" y1="52.3249" x2="116.3885" y2="52.3249" gradientTransform="matrix(1 0 0 -1 0 128)">
	<stop  offset="0" style="stop-color:#FFA000"/>
	<stop  offset="0.3413" style="stop-color:#FF9300"/>
	<stop  offset="0.9717" style="stop-color:#FF7100"/>
	<stop  offset="1" style="stop-color:#FF6F00"/>
</linearGradient>
<path id="suit" style="fill:url(#suit_1_);" d="M113.15,84.31L89.53,70.79c-5.11-2.41-9.65-6.04-13.14-10.5L59.64,38.85
	c-1.01-1.66-2.6-2.81-4.49-3.26c-0.19-0.04-0.37-0.08-0.55-0.11c-0.06-0.03-0.12-0.05-0.19-0.06l-19.2-1.67
	c-0.12-0.01-0.27,0.03-0.37,0.12c-2.05,1.77-3.28,4.79-3.21,7.87c0,0.2,0.02,0.4,0.04,0.6c0.02,0.2,0.16,0.36,0.35,0.42
	c6.06,1.87,14.74,4.67,14.82,4.7c1.21,0.42,2.27,1.23,2.98,2.3l6.72,10.1c2.26,3.4,0.81,12.06-1.97,16.3
	c-0.14,0.21-0.1,0.49,0.1,0.66c4.23,3.56,6.2,6.9,5.26,8.94c-0.93,2.03-4.64,2.67-10.17,1.77c-0.27-0.05-0.53,0.14-0.57,0.41
	c-0.05,0.29-0.19,1.01-0.35,1.87c-0.45,2.33-0.82,4.31-0.85,4.87c-0.01,0.2,0.09,0.38,0.26,0.47c3.98,2.11,28.35,22.46,28.43,22.46
	c0.19,0,18.57-7.61,18.65-7.79c0,0,19.64-17.92,21.05-23.22C116.63,85.62,114.39,84.96,113.15,84.31z"/>
<g id="neck">
	<path style="fill:#EDC391;" d="M61.14,87.92L61.14,87.92c1.89-2.85,1.11-6.69-1.74-8.58l-4.41-2.92l-6.83,10.32l4.41,2.92
		C55.41,91.55,59.25,90.77,61.14,87.92z"/>
</g>
<path id="hair" style="fill:#312D2D;" d="M19.95,60.96c0,0,0.13-0.21,0.19-0.3c0.06-0.09,0.2-0.3,0.2-0.3
	c8-10.58,15.78-8.85,20.52-6.69c5.14,2.33,8.71,4.42,8.71,4.42s-0.31,0.06-0.81,0.22c-0.52,0.18-0.95,0.47-0.95,0.47l3.54,3.19
	l-10.64-1.48c-0.07-0.01-0.13,0.02-0.16,0.08l-1.26,2.46c-1.27,2.47-2.68,4.87-4.2,7.19l0.01,0c-0.07,0.1-0.13,0.2-0.2,0.3
	c-0.07,0.1-0.13,0.2-0.2,0.3l-0.01,0c-1.54,2.31-3.2,4.54-4.98,6.68l-1.77,2.12c-0.04,0.05-0.05,0.12-0.01,0.18l5.52,9.22
	l-4.32-2.02c0,0-0.11,0.51-0.07,1.06c0.04,0.52,0.11,0.83,0.11,0.83s-3.68-2.35-7.62-6.39C17.82,78.67,13.5,72.14,19.95,60.96z"/>
<path id="ears" style="fill:#EDC391;" d="M52.1,58.71c-2.69-1.78-4.77,0.43-4.77,0.43l-0.76,1.15L30.06,85.22l-0.76,1.15
	c0,0-1.22,2.78,1.47,4.56c2.37,1.57,4.51,0.37,5.72-1.45L53,64.54C54.2,62.72,54.47,60.28,52.1,58.71z"/>
<g id="head">
	<path style="fill:#F9DDBD;" d="M20.71,61.1c7.12-10.76,17.33-8.05,29.04-0.29c12.15,8.04,10.12,17.93,6.3,23.7
		c-3.76,5.68-12.04,11.55-24.27,3.45C20.06,80.19,13.59,71.86,20.71,61.1z"/>
</g>
<g id="eyebrows_1_">
	<path style="fill:#454140;" d="M44.03,62.7L44.03,62.7c0,0-2.06-0.05-3.49,2.07c-1.43,2.13-0.6,4.01-0.6,4.01h0
		c0.05,0.14,0.15,0.28,0.29,0.37c0.35,0.23,0.82,0.14,1.05-0.21c0.05-0.07,0.11-0.28,0.12-0.31c0.33-1.63,0.99-2.63,0.99-2.63
		s0.67-0.99,2.05-1.91c0.02-0.01,0.19-0.15,0.24-0.22c0.23-0.35,0.14-0.82-0.21-1.05C44.34,62.73,44.19,62.69,44.03,62.7z"/>
	<path style="fill:#454140;" d="M35.16,75.92L35.16,75.92c0,0-2.06-0.05-3.48,2.07c-1.43,2.13-0.6,4.01-0.6,4.01h0
		c0.05,0.14,0.15,0.28,0.29,0.37c0.35,0.23,0.82,0.14,1.05-0.21c0.05-0.07,0.11-0.28,0.12-0.31c0.33-1.63,0.99-2.63,0.99-2.63
		s0.67-0.99,2.05-1.91c0.02-0.01,0.19-0.15,0.24-0.22c0.23-0.35,0.14-0.82-0.21-1.05C35.47,75.95,35.32,75.92,35.16,75.92z"/>
</g>
<g id="swimming_x5F_goggles">
	<g>
		<g>
			<path style="fill:#01579B;" d="M40.21,76.18c1.84,1.24,2.3,3.78,0.17,6.93c-2.1,3.11-4.66,3.68-6.5,2.44
				c-1.84-1.24-2.77-3.92-0.56-7.18C35.46,75.19,38.37,74.94,40.21,76.18z"/>
			<g>
				<g>
					
						<ellipse id="SVGID_2_" transform="matrix(0.5624 -0.8269 0.8269 0.5624 -50.6489 66.0249)" style="fill:#B3E5FC;" cx="37.05" cy="80.86" rx="3.94" ry="2.95"/>
				</g>
				<g>
					<defs>
						
							<ellipse id="SVGID_3_" transform="matrix(0.5624 -0.8269 0.8269 0.5624 -50.6489 66.0249)" cx="37.05" cy="80.86" rx="3.94" ry="2.95"/>
					</defs>
					<clipPath id="SVGID_5_">
						<use xlink:href="#SVGID_3_"  style="overflow:visible;"/>
					</clipPath>
					<polygon style="clip-path:url(#SVGID_5_);fill:#FFFFFF;" points="39.97,85.71 35.24,77.6 35.82,74.54 40.55,82.65 					"/>
				</g>
			</g>
		</g>
		<g>
			<path style="fill:#01579B;" d="M48.44,64.01c1.84,1.24,2.3,3.78,0.17,6.93c-2.1,3.11-4.66,3.68-6.5,2.44
				c-1.84-1.24-2.87-3.87-0.67-7.13C43.59,63.07,46.6,62.77,48.44,64.01z"/>
			<g>
				<g>
					
						<ellipse id="SVGID_4_" transform="matrix(0.5624 -0.8269 0.8269 0.5624 -36.9824 67.4982)" style="fill:#B3E5FC;" cx="45.28" cy="68.69" rx="3.94" ry="2.95"/>
				</g>
				<g>
					<defs>
						
							<ellipse id="SVGID_6_" transform="matrix(0.5624 -0.8269 0.8269 0.5624 -36.9824 67.4982)" cx="45.28" cy="68.69" rx="3.94" ry="2.95"/>
					</defs>
					<clipPath id="SVGID_7_">
						<use xlink:href="#SVGID_6_"  style="overflow:visible;"/>
					</clipPath>
					<polygon style="clip-path:url(#SVGID_7_);fill:#FFFFFF;" points="48.2,73.54 43.47,65.43 44.05,62.36 48.78,70.47 					"/>
				</g>
			</g>
		</g>
	</g>
	<polygon style="fill:#01579B;" points="43.49,73.6 40.94,77.37 39.06,76.1 41.61,72.33 	"/>
	<g>
		<path style="fill:#01579B;" d="M48.23,59.86c1.26,1.5,1.36,3.38,0.96,5.3l-1.88-1.26c0.71-1.56,0.57-3.33-0.96-5.3L48.23,59.86z"
			/>
		<path style="fill:#01579B;" d="M29.96,86.91c1.87,0.6,3.65-0.01,5.28-1.11l-1.88-1.26c-1.18,1.25-2.88,1.78-5.28,1.11L29.96,86.91
			z"/>
	</g>
</g>
<g id="swimming_x5F_cap">
	
		<linearGradient id="SVGID_8_" gradientUnits="userSpaceOnUse" x1="21.0165" y1="65.0851" x2="34.3917" y2="57.6833" gradientTransform="matrix(1 0 0 -1 0 128)">
		<stop  offset="2.100000e-03" style="stop-color:#FFA000"/>
		<stop  offset="0.9994" style="stop-color:#FF6F00"/>
	</linearGradient>
	<path style="fill:url(#SVGID_8_);" d="M18.1,59.1c0,0-0.15,0.21-0.21,0.3c-0.06,0.09-0.19,0.3-0.19,0.3
		c-7.01,11.69-1.42,20,2.69,23.45c4.56,3.83,8.65,5.67,8.65,5.67s-0.08-0.32-0.13-0.84c-0.06-0.56,0.04-1.07,0.04-1.07
		s-1.44-5.54-0.72-10.09c0.74-4.65,5.79-12.21,9.3-14.43c3.72-2.35,5.87-3.38,10.24-3.63c0,0,0.44-0.29,0.98-0.46
		c0.51-0.16,0.83-0.21,0.83-0.21s-3.4-2.83-8.64-5.68C36.96,50.25,26.61,47.98,18.1,59.1z"/>
</g>
<path id="nose" style="fill:#DBA689;" d="M46.61,76.09c-0.04,0.03-0.08,0.07-0.12,0.11l-1.84,2.9c-0.02,0.05-0.04,0.1-0.05,0.15
	c-0.06,0.33,0.12,0.65,0.49,0.71c0.37,0.06,1.55,0,2.29-1.17c0.74-1.16,0.29-2.26,0.08-2.57C47.25,75.92,46.88,75.89,46.61,76.09z"
	/>
<ellipse id="mouth" transform="matrix(0.6002 -0.7998 0.7998 0.6002 -44.5827 72.747)" style="fill:#444444;" cx="50.48" cy="80.97" rx="3.19" ry="1.93"/>
<path id="water_x5F_top" style="fill:#039BE5;" d="M112,81.98c-6.57,0-9.93,7.19-16,7.19c-6.06,0-9.43-7.19-16-7.19
	s-9.93,7.19-16,7.19s-9.43-7.19-16-7.19s-9.94,7.19-16,7.19s-9.43-7.19-16-7.19c-4.93,0-8.06,4.05-11.88,6.07v35.9h119.81V88.08
	C120.11,86.08,116.97,81.98,112,81.98z"/>
<path id="water_x5F_bottom" style="fill:#29B6F6;" d="M111.97,105.69c-6.57,0-9.93-7.19-16-7.19c-6.06,0-9.43,7.19-16,7.19
	s-9.93-7.19-16-7.19s-9.43,7.19-16,7.19s-9.94-7.19-16-7.19s-9.43,7.19-16,7.19c-4.92,0-8.04-4.03-11.85-6.06v24.32h119.81V99.56
	C120.1,101.56,116.95,105.69,111.97,105.69z"/>
</svg>
