<?xml version="1.0" encoding="utf-8"?>
<!-- Generator: Adobe Illustrator 25.2.3, SVG Export Plug-In . SVG Version: 6.00 Build 0)  -->
<svg version="1.1" id="Layer_1" xmlns="http://www.w3.org/2000/svg" xmlns:xlink="http://www.w3.org/1999/xlink" x="0px" y="0px"
	 viewBox="0 0 128 128" style="enable-background:new 0 0 128 128;" xml:space="preserve">
<path style="fill:#523730;" d="M15.73,37.17c0.12-0.17,0.52-3.25,4.42-7.09s7.32-2.96,9.24-2.62s4.82-0.06,6.74,0.06
	c1.92,0.12,6.28,3.89,7.96,5c1.69,1.1,5.06,3.02,6.22,5.06c1.16,2.03,2.56,9.24,2.56,9.24s-10.75,2.21-10.87,1.8
	C41.88,48.21,15.73,37.17,15.73,37.17z"/>
<path style="fill:#A95531;" d="M61.55,90.77c0,0,2.93,0.26,6.54,0.09c3.62-0.17,10.76-2.67,10.76-2.67s-0.17,6.97-0.26,8.35
	c-0.09,1.38-0.17,3.62-1.89,5.94c-1.72,2.32-3.7,4.56-5.17,5.68c-1.46,1.12-3.27,1.46-4.91,3.01c-1.64,1.55-2.54,4.42-2.54,4.42
	l7.7,1.3c0,0,1.47-1.02,2.76-2.22s2.84-4.97,5.16-7.72c2.32-2.75,5.94-6.71,6.89-9.73c0.95-3.01,1.89-6.2,3.36-8.35
	c1.46-2.15,12.83-12.14,12.83-12.14L85.74,66.5L58.28,80.62L61.55,90.77z"/>
<path style="fill:#A95531;" d="M40.82,68.81l-2.86,4.21l-0.23,8.04c0,0-1.87,0.18-4.4,0.71c-2.54,0.54-4.73,1.26-5.76,1.38
	c-1.59,0.19-2.97-0.71-4.66,0.56c-1.69,1.27-1.74,2.54-1.41,4.93c0.35,2.56,0.62,3.48,0.46,5.42c-0.17,1.99-2.34,4.92-1.65,8.72
	c0.69,3.8,1.96,4.88,1.96,4.88l5.22-2.88l0.38-2.69c0,0,0.56-0.64,0.47-3.02c-0.13-3.63-0.49-8.37-0.18-8.56s6.51,0.14,11.27,0.1
	c4.76-0.04,5.42-0.08,5.99-0.5c0.58-0.42,1.38-2.38,1.38-2.38s1.88,2.11,2.92,2.38c1.04,0.27,5.7-2.77,5.7-2.77l-6.03-16.73
	L40.82,68.81z"/>
<path style="fill:#523730;" d="M65.53,112.6l6.52,4.04c0,0,0.05,0.66,0,1.27c-0.07,0.79-0.3,1.6-0.3,1.6s-0.84,1.03-4.55,1.93
	c-3.36,0.82-5.1,0.23-5.28-0.38c-0.31-1.02,0.19-3.47,0.9-4.95C63.91,113.83,65.53,112.6,65.53,112.6z"/>
<path style="fill:#523730;" d="M21.22,106.14c0,0,2.41-0.45,3.68-1.41c1.55-1.16,3.05-2.72,3.05-2.72s0.81,0.45,1.22,0.81
	c0.41,0.36,0.86,0.64,0.86,2.13c0,1.5-0.68,3.77-1.5,5.45s-1.68,2.82-2.45,2.73c-0.77-0.09-1.82-1.5-2.82-2.68
	C21.6,108.49,21.22,106.14,21.22,106.14z"/>
<path style="fill:#523730;" d="M101.54,56.49c0,0,3-1.47,6.19,0.45s6.83,8.93,9.57,9.19c2.74,0.26,4.67-4.86,7.53-2.11
	c1.79,1.72-0.64,7.65-4.15,11.61c-2.96,3.34-5.93,5.49-9.57,3.51s-3.89-11.16-3.89-11.16L101.54,56.49z"/>
<path style="fill:#D17858;" d="M78.19,105.76c0,0,0.69-2.53,3.53-4.22s3.23-1,5.22-2.3c2-1.31,3.99-2.76,4.38-3.61
	c0.38-0.84,0.31-4.76-0.92-7.83c-1.23-3.07-1-14.74-1-14.74s-5.84,8.68-10.75,11.59s-8.14,2.61-10.98,1.54
	c-2.84-1.08-4.45-5.61-5.07-5.07c-0.61,0.54,0.38,4.61,0.46,6.83c0.08,2.23,0.46,3.99-2.61,5.45s-5.07,2.46-6.53,3.3
	c-1.46,0.84-4.99,3.38-4.99,3.38s2.3,0.84,3.92,0.61c1.61-0.23,3.38-0.61,3.38-0.61l4.99,1.84l-1.08,4.91c0,0-1.15,1.77-3.99,1.84
	c-2.84,0.08-3.53-1.23-6.22-1.84c-2.69-0.61-6.45-0.23-7.37-0.54c-0.92-0.31-2.25-1.96-2.38-2.99c-0.47-3.76-0.54-5.3,0.23-6.22
	c0.77-0.92,3.07-1.92,3.61-2.46c0.54-0.54,2.69-3.23,3.99-4.45c1.31-1.23,2.61-2.53,2.53-3.38c-0.08-0.84-8.45-15.36-10.37-15.2
	c-1.92,0.15,0.54,6.45,1.38,8.37c0.84,1.92,3.38,4.68,2.76,5.53c-0.61,0.84-3.61-0.31-6.14-3.3s-2-6.3-2-9.91s-0.15-4.3-0.69-5.84
	c-0.54-1.54-1.15-2.61-2.07-4.15c-0.92-1.54-4.61-8.22-4.61-8.22l-9.6,5.84l-1.08,2.46c0,0-1.54,2.76-2.92,3.61
	c-1.38,0.84-11.96-3.69-11.5-6.16c0.32-1.72,1.6-4.06,2.67-5.67s1.84-2.92,2.3-3.69c0.46-0.77,2.36-5.79,3.99-9.14
	c1.87-3.83,2.07-4.3,4.3-5.45s3.84-1.54,3.84-1.54l1.84-1.15c0,0,1.38-0.61,2.84-1s4.22-1.69,5.76-2.53
	c1.54-0.84,1.63-1.77,2.32-1.77c0.69,0,1.36,0.77,0.37,2.69c-1,1.92-3.29,3.86-3.29,3.86l0.49,0.92l2.57-0.1
	c0,0,3.15,1.31,5.38,3.07c2.23,1.77,3.99,3.23,3.99,3.23l5.84,7.91l12.82,2.07l7.68,7.22l16.66-1.92l1.38-4.3
	c0,0,6.12-1.34,9.29-0.84c4.39,0.68,11.59,7.22,11.67,16.89c0.08,9.68-3.99,14.51-4.76,15.82s-3.69,4.91-4.15,7.83
	c-0.46,2.92-0.23,5.45-0.46,6.68c-0.23,1.23-0.84,2.38-2.76,3.07c-1.92,0.69-4.57,1.14-6.37,2.23c-2.69,1.61-2.37,2.5-3.53,3.53
	c-1.31,1.15-2.3,1.54-2.3,1.54L78.19,105.76z"/>
<path style="fill:#A95531;" d="M33.43,62.3c0,0,0.1-4.82-0.42-9.55c-0.35-3.2-2.01-8.34-2.01-8.34s-2.14,6.8-4.32,8.08
	c-2.18,1.28-8.08,5.52-8.08,5.52s-0.68,1.54-0.64,2.52c0.04,0.98,0,2.14,0,2.14l2.61-2.27c0,0,7.08-3.8,7.95-3.46
	C30.18,57.58,33.43,62.3,33.43,62.3z"/>
<path style="fill:#A95531;" d="M27.83,35.09c0,0,3.34-1.92,3.93-2.35c0.6-0.43,2.2-2.15,2.2-2.15s-0.79,2.11-1.13,2.66
	c-0.34,0.56-0.64,1.45-0.04,1.71s0.94,0.31,0.94,0.31S33,35.94,31.08,35.9C29.16,35.86,27.83,35.09,27.83,35.09z"/>
<path style="fill:#523730;" d="M78.19,105.76c0,0-1.16,1.27-1.78,4.49c-0.58,2.98-0.4,4.79,0.21,5.03c1.35,0.52,4-0.88,5.34-1.7
	c1.35-0.82,2.96-2.26,3.2-2.65s0.19-1.42,0.19-1.42l-0.11-1.12c0,0-2.09-0.36-3.48-0.9C79.74,106.7,78.19,105.76,78.19,105.76z"/>
<path style="fill:#523730;" d="M56.23,100.08c0,0,1.48,1.85,2.27,3.33c0.79,1.48,1.65,3.43,1.65,3.43s2.11-0.43,4.01-1.84
	c1.14-0.85,2.41-1.96,2.45-2.55c0.03-0.59-2.1-2.17-3.93-3.27c-1.83-1.1-2.79-1.76-3.45-1.79c-0.65-0.03-1.69,1.03-2.07,1.41
	C56.78,99.17,56.23,100.08,56.23,100.08z"/>
<path style="fill:#37B5E1;" d="M87.96,52.16c-0.6-0.35-3.27,0.71-6.9,1.07C77.43,53.58,58.6,52.8,58.6,52.8s-0.5,5.69,0.71,11.66
	c1.21,5.97,2.56,9.88,4.98,10.1c2.42,0.21,7.96,0.85,14.01,0.36c6.04-0.5,10.66-2.35,12.16-5.12s1.33-7.17,0.57-10.17
	C89.73,54.58,88.81,52.66,87.96,52.16z"/>
<path style="fill:#0468A6;" d="M72.6,57.49c0,0,4.12,0.21,6.54-0.92c2.42-1.14,4.69-2.77,5.05-3.77c0.36-1,0.14-2.35-1.71-1.99
	s-5.12,1.85-7.39,2.13c-2.27,0.28-6.97,0.36-6.97,0.36l-3.41,11.23l-0.07,27.02c0,0,2.49,0.07,4.19-0.21
	c1.71-0.28,4.19-0.85,4.19-0.85L72.6,57.49z"/>
<radialGradient id="SVGID_1_" cx="8.7019" cy="62.4519" r="9.5034" gradientTransform="matrix(0.5105 -0.8599 0.9592 0.5694 -55.6429 34.3749)" gradientUnits="userSpaceOnUse">
	<stop  offset="0.6708" style="stop-color:#FFB169"/>
	<stop  offset="1" style="stop-color:#FFB169;stop-opacity:0"/>
</radialGradient>
<path style="fill:url(#SVGID_1_);" d="M8.7,50.48L6.79,53.6c0,0-3.42,4.85-3.13,7.01c0.37,2.79,1.78,3.76,2.88,4.64
	c1.75,1.39,4.07,0.93,4.07,0.93s0.1,0.98,1.6,1.03c1.49,0.05,3.14-0.98,4.07-2.06c0.93-1.08,1.86-2.76,1.86-2.76l2.42-1.98
	c0,0,3.6-7-1.81-10.56s-8.86-2.32-8.86-2.32S9.05,49.82,8.7,50.48z"/>
<path style="fill:#523730;" d="M8.15,57.54c-1.24-0.05-1.71,1.42-1.76,2.86c-0.05,1.44,0.46,2.73,1.34,2.83
	c0.88,0.1,1.8-0.9,1.75-3.04C9.44,58.65,9.01,57.58,8.15,57.54z"/>
<path style="fill:#523730;" d="M9.36,66.25c0,0,2.03-1.25,3.06-3.65c0.65-1.51,1.07-2.7,1.8-3.22c0.52-0.37,1.46-0.39,1.39,0.97
	c-0.07,1.29-1.34,3.35-1.87,4.31c-0.97,1.73-2.11,2.32-2.41,2.36s-0.69-0.52-0.91-0.63S9.36,66.25,9.36,66.25z"/>
<path style="fill:#2A2725;" d="M18.74,42.69c-0.78,0.84-0.58,2.47,0.44,3.34c1.02,0.88,2.45,0.64,3.14,0.06s0.74-2.31-0.3-3.25
	C21.04,41.94,19.34,42.04,18.74,42.69z"/>
<path style="fill:#2A2725;" d="M20.41,34.32c0,0,0.83-0.83,1.19-0.96c0.36-0.13,0.99-0.32,0.99-0.32l8.32,5.63l-1.38,1.96
	L20.41,34.32z"/>
<path style="fill:#2A2725;" d="M8.7,50.48c0,0,0.04-0.54,0.24-1.02c0.2-0.48,0.53-0.96,0.53-0.96s2.45-0.32,7.96,4.58
	c3.54,3.15,4.35,6.94,4.35,6.94s-0.14,0.65-0.74,1.02c-0.34,0.21-1.11,0.09-1.11,0.09s-1.26-3.14-3.98-5.97
	C12.57,51.63,8.7,50.48,8.7,50.48z"/>
<g id="hand_3_">
	<linearGradient id="SVGID_2_" gradientUnits="userSpaceOnUse" x1="46.4352" y1="48.0074" x2="36.1623" y2="47.0094">
		<stop  offset="0.7873" style="stop-color:#5C4037"/>
		<stop  offset="0.9521" style="stop-color:#5C4037"/>
	</linearGradient>
	<path style="fill:url(#SVGID_2_);" d="M46.72,45.07c0.03-0.22-5.74-2.48-6.87-2.62c-1.09-0.05-1.84,0.03-2.21,0.25
		c-0.35,0.19-0.6,0.52-0.7,0.91c-0.09,0.35-0.04,0.72,0.12,0.98c0.04,0.06,0,0.27-0.12,0.37c-0.42,0.34-0.66,0.79-0.7,1.26
		c-0.04,0.56,0.18,0.9,0.54,1.25c-0.42,0.38-0.62,0.6-0.61,1.2c0.04,0.75,0.6,1.14,0.61,1.11c-0.01,0.04-0.3,0.4-0.19,0.98
		c0.08,0.49,0.77,0.92,1.37,1.18c0.39,0.16,0.54,0.13,1.12,0.22c1.88,0.53,6.4-0.4,6.6-0.44c0.21-0.04,0.38-0.22,0.39-0.44
		L46.72,45.07z"/>
</g>
<g id="head_1_">
	<path style="fill:#70534A;" d="M52.16,12.12c-2.52-3.06-7.55-5.01-11.33-3.85c-4.24,1.3-6.15,4.74-6.23,8.79
		c-0.03,1.46,0.2,2.89,0.59,3.87c0.05,0.11,0.4,0.97,0.46,1.24c0.31,1.05-1.61,2.39-1.7,3.6c-0.06,0.91,1.87,1.23,2.04,1.36
		c0.84,0.7,0.41,4.99,5.55,4.68c1.97-0.12,2.28-0.64,2.9-0.71c3.26-0.36,5.81,1.67,5.81,1.67l5.17-6.11c0,0-3.32-2.45-3.19-2.81
		C53.44,20.4,53.79,14.09,52.16,12.12z"/>
</g>
<path id="mouth_1_" style="fill:#1A1717;" d="M36.8,29.18c0.71-0.05,1.38-0.32,1.91-0.84c0.59-0.57,0.07-1.05-0.63-0.63
	c-0.42,0.26-1.05,0.44-1.64,0.41L36.8,29.18z"/>
<ellipse id="eye_1_" transform="matrix(0.9862 -0.1656 0.1656 0.9862 -3.1625 6.7467)" style="fill:#1A1717;" cx="38.88" cy="22.34" rx="0.94" ry="1.44"/>
<path id="eyebrow_1_" style="fill:#1A1717;" d="M37.98,20.49c-0.82,0.48-1.18-0.04-1.01-0.58c0.13-0.4,0.59-0.83,1.68-0.9
	c1.03-0.07,1.57,0.4,1.92,0.67c0.35,0.27,0.41,0.63,0.19,0.71C40.47,20.5,38.99,19.89,37.98,20.49z"/>
<g id="hair_1_">
	<path style="fill:#232020;" d="M46.78,21.83l0.58-1.31c0.38-0.75,0.73-1.42,1.38-1.39c1.91,0.07,2.17,3.41,0.12,4.53
		c0,0,0.8,2.4,3.24,2.61c0.26,0.02,0.48,0.02,0.68,0.01c0.64-0.04,1.05-0.61,1.11-1.24c0.35-3.97,1.76-3.44,1.85-8.01
		c0.12-6.27-5.96-9.34-11.2-8.83c-2.04,0.2-4.07,0.86-5.78,2.01c-0.73,0.48-3.22,2.37-3.59,3.78c-0.48,1.79,0.74,3.04,0.74,3.04
		s5.33-1.3,7.89-1.18c0.34,0.02,0.73,0.06,0.92,0.34c0.09,0.12,0.26,0.94,0.3,1.09c0.43,1.86,0.46,3.08,1.22,4.17
		C46.36,21.63,46.78,21.83,46.78,21.83z"/>
</g>
<g id="leg_x5F_left_1_">
	<path style="fill:#C8C8C8;" d="M89.15,39.54c-0.35-2.47-1.59-5.93-3.99-7.86c-1.96-0.39-3.31,1.38-5.52,2.9
		c-0.1,0-0.2,0.03-0.29,0.09c0,0-10.86,6.29-18.44,12.83c-0.85,0.73-2,1.82-2.51,2.81c-0.55,1.04-1.21,2.35-0.34,4.03
		c0.87,1.68,6.02,8.06,6.02,8.06c0.04,0.24,8.72-0.15,8.74-0.4c0.05-0.62-0.02-2.05-1.9-7.9c3.18-1.53,13.83-4.99,17.33-9.51
		C89.23,43.03,89.49,41.22,89.15,39.54z"/>
	<path style="fill:#444444;" d="M77.36,64.43l-5.85-10.14c-0.08-0.11-0.19-0.2-0.32-0.22s-0.28,0-0.38,0.08l-8.87,6.52
		c-0.11,0.08-0.18,0.19-0.21,0.33s0.01,0.27,0.09,0.38l7.28,8.49l-2.33,3.3c-0.93,1.4-0.91,3.2,0.04,4.58c0,0,0.84,1.39,1.55,1.51
		c0.3,0.05,0.65,0.08,1.04-0.24L80.86,71l0,0c0.67-0.47,0.65-1.55-0.07-3.02C80.24,66.84,77.85,64.83,77.36,64.43z"/>
</g>
<g>
	<path style="fill:#2A2725;" d="M44.96,23.92c0.03,3.55-0.54,5.7-1.11,7.38c2.08-0.15,2.71-3.61,3.19-6.38
		c0.47-2.76,0.42-5.47,0.42-5.47l-3.31-0.56C44.16,18.9,44.96,22.05,44.96,23.92z"/>
</g>
<path style="fill:#5D6266;" d="M45.41,5.89c-0.34-0.01-1.22,0.02-1.54,0.06c-1.84,0.23-4.25,1.11-5.74,2.23
	c-2.13,1.61-3.89,3.63-5.36,5.74c-0.74,1.06-4.63,1.75-4.09,3.37c1.1,3.26,7.76,0.25,10.09,0.56c1.75,0.23,3.39,0.95,5.11,1.31
	c3.1,0.65,6.21,1.09,9.36,1.41c0.45,0.05,0.89,0.05,1.35,0.04c0.7-0.02,1.52,0.1,1.7-0.67c0.2-0.84,0.5-1.86,0.54-2.71
	C57.09,11.55,52.57,6.06,45.41,5.89z"/>
<g id="hand_2_">
	<path style="fill:#70534A;" d="M46.69,45.07c0.03-0.22-0.39-1.06-1.08-2.32c-0.63-1.15-0.9-1.57-2.7-1.95
		c-0.77-0.16-2.67-0.24-2.75,0.07c-0.31,1.17,0.93,1.55,0.87,1.59c-1.82-0.02-2.21,0.4-2.3,1.09c-0.14,1.04,0.46,1.05,0.39,1.38
		c-0.07,0.34-0.94,0.24-0.89,1.52c-0.02,0.82,0.65,0.84,0.63,1.37c-0.02,0.53-0.94,0.31-1,1.2c-0.06,0.89,0.85,0.9,0.86,1.27
		c0.02,0.37-1.03,0.74-0.64,1.61c0.1,0.2,0.73,0.2,1,0.24c2,0.59,6.4-0.4,6.6-0.44c0.21-0.04,0.38-0.22,0.39-0.44L46.69,45.07z"/>
</g>
<path style="fill:#FF8E00;" d="M85.22,31.65c0,0-9.59-7.84-18.65-8.71S54.8,22.58,53.84,23.8c-0.96,1.22-0.96,4.1-2.27,6.01
	c-1.31,1.92-2.88,2.09-2.88,2.09s0.17,3.31,0.52,6.36c0.35,3.05,1.22,5.66,1.22,5.66l-3.76,1.22c0,0-0.6,1.04-0.77,2.96
	s-0.25,3.68-0.25,3.68s0.25,0.77,3.48,0.77c3.22,0,8.56-0.37,9.43-1.85c2.27-3.86,1.55-11.49,1.55-11.49s3.83,0.96,6.01,1.22
	c2.18,0.26,3.79,0.67,5.75-0.87c1.16-0.92,6.97-4.62,8.63-5.49C82.17,33.22,85.22,31.65,85.22,31.65z"/>
<path style="fill:#2A2725;" d="M31.93,34.71c-0.61,0.52-4.27,6.94-7.03,10.93c-2.47,3.58-6.94,9.5-6.94,9.5l2.33,2.21
	c0,0,20.81-12.48,21.3-12.82c0.49-0.33,1.27-1.15,0.58-2.06c-0.65-0.86-1.62-0.45-2.31-0.03c-0.61,0.37-17.24,10.74-17.24,10.74
	s3.22-4.22,6.42-9.2c2.99-4.65,4.94-7.9,5.22-8.45c0.09-0.17-0.27-0.83-0.88-1C32.93,34.41,32.13,34.54,31.93,34.71z"/>
</svg>
