<svg xmlns="http://www.w3.org/2000/svg" viewBox="0 0 64 64" enable-background="new 0 0 64 64"><path d="m18.7 13c-3.7.5-7.1 1.8-10 4.6-1-2.7-2-5.4-3-8.1 2.9-2.8 6.3-4.1 10-4.6 1 2.7 2 5.4 3 8.1" fill="#333"/><path d="m30.3 12.9c-4-.2-8-.4-11.7.1-1-2.7-2-5.4-3-8.1 3.7-.5 7.7-.3 11.7-.1 1 2.7 2 5.4 3 8.1" fill="#fff"/><path d="m42 12.8c-3.7.5-7.7.3-11.7.1-1-2.7-2-5.4-3-8.1 4 .2 8 .4 11.7-.1 1 2.6 2 5.3 3 8.1" fill="#333"/><g fill="#fff"><path d="m52 8.1c-2.9 2.8-6.3 4.1-10 4.6-1-2.7-2-5.4-3-8.1 3.7-.5 7.1-1.8 10-4.6 1 2.7 2 5.4 3 8.1"/><path d="m21.7 21.1c-3.7.5-7.1 1.8-10 4.6-1-2.7-2-5.4-3-8.1 2.9-2.8 6.3-4.1 10-4.6 1 2.7 2 5.4 3 8.1"/></g><path d="m33.3 21c-4-.2-8-.4-11.7.1-1-2.7-2-5.4-3-8.1 3.7-.5 7.7-.3 11.7-.1 1 2.7 2 5.4 3 8.1" fill="#333"/><path d="m45 20.9c-3.7.5-7.7.3-11.7.1-1-2.7-2-5.4-3-8.1 4 .2 8 .4 11.7-.1 1 2.7 2 5.4 3 8.1" fill="#fff"/><g fill="#333"><path d="m55 16.3c-2.9 2.8-6.3 4.1-10 4.6-1-2.7-2-5.4-3-8.1 3.7-.5 7.1-1.8 10-4.6 1 2.6 2 5.3 3 8.1"/><path d="m24.7 29.3c-3.7.5-7.1 1.8-10 4.6-1-2.7-2-5.4-3-8.1 2.9-2.8 6.3-4.1 10-4.6 1 2.7 2 5.4 3 8.1"/></g><path d="m36.4 29.1c-4-.2-8-.4-11.7.1-1-2.7-2-5.4-3-8.1 3.7-.5 7.7-.3 11.7-.1.9 2.7 2 5.4 3 8.1" fill="#fff"/><path d="m48 29c-3.7.5-7.7.3-11.6.1-1-2.7-2-5.4-3-8.1 4 .2 8 .4 11.7-.1.9 2.7 1.9 5.4 2.9 8.1" fill="#333"/><g fill="#fff"><path d="m58 24.4c-2.9 2.8-6.3 4.1-10 4.6-1-2.7-2-5.4-3-8.1 3.7-.5 7.1-1.8 10-4.6 1 2.7 2 5.4 3 8.1"/><path d="m27.7 37.4c-3.7.5-7.1 1.8-10 4.6-1-2.7-2-5.4-3-8.1 2.9-2.8 6.3-4.1 10-4.6 1 2.7 2 5.4 3 8.1"/></g><path d="m39.4 37.3c-4-.2-8-.4-11.7.1-1-2.7-2-5.4-3-8.1 3.7-.5 7.7-.3 11.7-.1 1 2.7 2 5.4 3 8.1" fill="#333"/><path d="m51 37.1c-3.7.5-7.7.3-11.7.1-1-2.7-2-5.4-3-8.1 4 .2 8 .4 11.6-.1 1.1 2.7 2.1 5.4 3.1 8.1" fill="#fff"/><g fill="#333"><path d="m61 32.5c-2.9 2.8-6.3 4.1-10 4.6-1-2.7-2-5.4-3-8.1 3.7-.5 7.1-1.8 10-4.6 1 2.7 2 5.4 3 8.1"/><path d="M25.9 64 24 64 3 7.3 4.7 6.7z"/></g></svg>