<?xml version="1.0" encoding="utf-8"?>
<!-- Generator: Adobe Illustrator 25.2.3, SVG Export Plug-In . SVG Version: 6.00 Build 0)  -->
<svg version="1.1" id="Layer_2" xmlns="http://www.w3.org/2000/svg" xmlns:xlink="http://www.w3.org/1999/xlink" x="0px" y="0px"
	 viewBox="0 0 128 128" style="enable-background:new 0 0 128 128;" xml:space="preserve">
<path style="fill:#FFA828;" d="M65.78,80.6c0,0-6.29,8.38-7.69,10.08c-1.4,1.7-4.99,5.59-6.59,6.59c-1.6,1-2.2,2.79-19.46,2.79
	c-13.57,0-18.56-1.5-24.65-1.5c-4.74,0-3.59,8.28-2.99,10.18c0.6,1.9,4.18,8.23,11.08,9.48c6.35,1.16,13.3,0.4,23.16-1.2
	c8.18-1.33,15.15-3.1,18.35-5.2c3.06-2.01,6.51-8.18,8.3-10.97s9.08-14.17,9.08-14.17l-0.1-2.3L65.78,80.6z"/>
<path style="fill:#F08A34;" d="M68.73,80.83C68.56,81.24,56.47,96.77,55.42,98c-1.05,1.23-2.8,2.86-2.51,5.26
	c0.29,2.39,2.5,3.03,4.07,2.47c2.8-0.99,3.58-3.29,5.1-5.28c1.04-1.36,12.15-17.34,12.15-17.34L68.73,80.83z"/>
<polygon style="fill:#5D6365;" points="65.46,81.01 75.74,66.64 83.76,72.34 73.93,87.37 "/>
<polygon style="fill:#DFE0E0;" points="72.1,71.71 80.2,77.79 76.73,83.2 68.31,76.98 "/>
<polygon style="fill:#FC2929;" points="74.96,67.68 82.9,73.69 115.3,24.98 108.35,20.32 "/>
<path style="fill:#5E6367;" d="M114.79,7.67c-1.85,0.14-4.28,4.87-4.37,5.39c-0.18,1,1.71,1.86,1.71,1.86l-4.68,6.71l6.9,4.72
	l4.63-6.66c0,0,1.4,0.99,2.12,0.5c0.75-0.51,3.83-4.86,3.65-6.08C124.6,13.11,116.32,7.56,114.79,7.67z"/>
<path style="fill:#9A9A9A;" d="M94.07,103.65l-13.01,2.25c0,0-0.39,1.86-0.29,5.77c0.1,3.91,0.68,5.28,0.68,5.28
	s2.79,6.08,16.37,6.28c14.75,0.22,17.88-6.18,17.88-6.18s0.6-3.21,0.6-5.65c0-1.57-0.06-5.2-0.4-5.66
	C114.93,104.47,94.07,103.65,94.07,103.65z"/>
<path style="fill:#5E6367;" d="M98.01,97.84c-12.02-0.12-17.05,5.08-16.95,8.06c0.07,2.33,4.64,8.39,17.7,8.6
	c14.18,0.23,17.17-7.61,17.21-8.75C116,104.42,112.65,97.98,98.01,97.84z"/>
</svg>
