<svg xmlns="http://www.w3.org/2000/svg" viewBox="0 0 64 64" enable-background="new 0 0 64 64"><path fill="#b4d7ee" d="m0 0h64v64h-64z"/><path d="m64 27c0 0-11.9-3-16-3s-10.8 3-16 3c-4.3 0-11.7-4-16-4-4.8 0-16 1-16 1v25h64v-22" fill="#f9f3d9"/><path d="M0,34.7c0,0,16-5.7,32-5.7c8,0,32,7.5,32,7.5V64H0V34.7z" fill="#ffdd7d"/><path d="m0 47.8c0 0 6.9-2.8 11-2.8s16.9 6.9 21 6.6c4.3-.3 19.7-3.7 24-3.8 4.2-.1 8 .9 8 .9v15.3h-64v-16.2" fill="#dbb471"/><g fill="#699635"><path d="m21.2 35.5c0 1.1.9 1.9 1.9 1.9 1.1 0 1.9-.9 1.9-1.9v-7.7c0-1.1-.9-1.9-1.9-1.9-1.1 0-1.9.9-1.9 1.9v7.7"/><path d="m15.5 33.6c-1.1 0-1.9.9-1.9 1.9 0 1.1.9 1.9 1.9 1.9h7.7c1.1 0 1.9-.9 1.9-1.9 0-1.1-.9-1.9-1.9-1.9h-7.7"/></g><path d="m15.8 17c-1.6 0-2.9 1.3-2.9 2.9v32.2c0 2.9 1.3 2.9 2.9 2.9s2.9 0 2.9-2.9v-32.2c0-1.6-1.3-2.9-2.9-2.9" fill="#83bf4f"/><g fill="#699635"><path d="m10.1 42c0 .8-.6 1.4-1.4 1.4-.8 0-1.4-.6-1.4-1.4v-5.8c0-.8.6-1.4 1.4-1.4.8 0 1.4.6 1.4 1.4v5.8"/><path d="m14.4 40.6c.8 0 1.4.6 1.4 1.4 0 .8-.6 1.4-1.4 1.4h-5.7c-.8 0-1.4-.6-1.4-1.4 0-.8.6-1.4 1.4-1.4h5.7"/></g><path d="m3 52.5c0 1.1 1.3 1 3 1s3 .1 3-1-1.3-2-3-2-3 .9-3 2" fill="#f9f3d9"/><path d="m16.3 60.1c0 1.1 1.3 1 3 1s3 .1 3-1-1.3-2-3-2-3 .9-3 2" fill="#ffdd7d"/><g fill="#89664c"><path d="m26 56.5c0 1.1 1.3 1 3 1s3 .1 3-1-1.3-2-3-2-3 .9-3 2"/><path d="m57.3 52.3c-2.7.8-5.4.3-8.2.5-.2-.6-.4-1.2-.7-1.8-.3-.7-1.4-.4-1.1.3.2.5.4 1.1.6 1.6-.4.1-.9.1-1.3.3-1.4.4-2.9.8-4.3 1.3 1.3-1.3 2.7-2.5 4.3-3.5.9-.5 2-.8 3.2-.9 0 0 .1 0 .1 0 .6-.1 1.3-.1 1.9-.1.5.7 1 1.4 1.5 2.1.4.6 1.5 0 1-.6-.3-.5-.7-.9-1-1.4 1 0 1.9.1 2.7.1.8 0 .8-1.2 0-1.2-1.5 0-3.3-.2-5-.1.3-.5.7-1 1-1.4.4-.6-.6-1.3-1-.6-.5.7-1 1.4-1.5 2.2-1.1.1-2.2.4-3.1.8-1.8.9-3.4 2.3-4.9 3.8 1-2 2.2-3.9 3.9-5 3.3-2 6.7-3.1 10.4-2.4.7.1 1.1-1.1.3-1.2-3.7-.7-6.5.3-9.8 1.8.2-.4.5-.9.7-1.3.4-.7-.6-1.3-1-.6-.5 1-1.1 2-1.6 3-1.7 1.2-2.8 3.1-3.8 5 .3-2.1.7-4.2 1.9-5.6 1.6-2 3.4-3.2 5.4-3.9.7.5 1.5 1 2.2 1.5.6.4 1.2-.6.6-1.1-.4-.3-.9-.6-1.3-.9 1.1-.3 2.3-.4 3.6-.4.8 0 .8-1.2 0-1.2-1.6 0-3.4 0-4.9.5-2.3.7-4.2 2.5-5.9 4.2-2.4 2.4-2.7 6.4-3 9.8-.3.1-.5.2-.8.3-.7.2-.4 1.4.3 1.2.4-.1.8-.3 1.2-.4 2.7 2.2 4.6 2.7 8.1 2.4 3.6-.3 5.7-.9 8.4-3.4.6-.5-.3-1.4-.8-.9-1 1-2 1.6-3 2.1-.4-.6-.8-1.2-1.1-1.9-.4-.7-1.4 0-1 .6.3.5.7 1.1 1 1.7-1 .3-2.1.4-3.4.6-.6 0-1.2.1-1.9.1.4-.7.7-1.3 1.1-2 .4-.7-.6-1.3-1-.6-.5.9-.9 1.7-1.4 2.6-.6-.1-1.1-.2-1.6-.5-.7-.4-1.3-.8-1.9-1.3 1.9-.6 3.7-1.2 5.6-1.7 3.5-1 7.1.2 10.7-.8.6-.7.3-1.9-.4-1.7"/></g><path d="m46 11c0 3.3 2.7 6 6 6s6-2.7 6-6c0-3.3-2.7-6-6-6s-6 2.7-6 6" fill="#ffce31"/><g fill="#fff"><path d="m47.8 2.9c-2.5 1.4-4.2 3.6-4.5 6.6-.1.4.6.6.6.2.4-2.9 1.9-4.9 4.2-6.2.4-.2.1-.8-.3-.6"/><path d="m59.9 13.2c-.9 3.2-2.6 5.5-5.6 6.5-.4.1-.2.8.2.7 3.2-1 5.2-3.6 6.1-7 0-.4-.6-.6-.7-.2"/><path d="m44.2 13c.5 2.9 1.7 4.9 4.1 6.4.4.2.7-.4.3-.6-2.2-1.5-3.3-3.3-3.8-6-.1-.4-.7-.2-.6.2"/><path d="m58.6 6.1c-1-1.7-3-3.8-5.1-3.6-.4 0-.4.7 0 .7 1.8-.2 3.6 1.8 4.5 3.3.3.4.8 0 .6-.4"/></g><g fill="#d6eef0"><path d="m50.8 21.3c-2.4 0-4.5-.8-6.3-2.5-.3-.3-.8.2-.5.5 2 1.8 4.1 2.7 6.7 2.7.5 0 .5-.7.1-.7"/><path d="m60.4 16.7c-.6 1.5-1.7 3.5-3.2 4.2-.4.2-.2.8.2.7 1.7-.7 2.9-2.8 3.6-4.5.1-.4-.4-.8-.6-.4"/><path d="m43.2 4c-2.3 2.3-1.9 7-.7 9.8.2.4.7.1.6-.3-1.1-2.5-1.5-6.9.6-8.9.2-.4-.2-.9-.5-.6"/><path d="m58.2 2.6c1.8 1.8 2.6 3.9 2.7 6.5 0 .4.6.4.6 0 0-2.8-.9-5.1-2.9-7-.3-.3-.7.2-.4.5"/></g></svg>