<svg xmlns="http://www.w3.org/2000/svg" viewBox="0 0 64 64" enable-background="new 0 0 64 64" xmlns:xlink="http://www.w3.org/1999/xlink"><path d="m49.5 37.1c-6.9 0-12.5 5.6-12.5 12.5 0 6.9 5.6 12.5 12.5 12.5s12.5-5.7 12.5-12.6c0-6.8-5.6-12.4-12.5-12.4" fill="#ff8736" id="0"/><path d="m53.5 2l-34.9 39.8c-1.5 1.8-4.3 2-6.2.4s-2.2-4.3-.6-6.2c1.5-1.8 1.2-4.6-.6-6.2-1.9-1.6-4.6-1.4-6.2.4-4.6 5.5-3.7 13.8 1.9 18.5 5.5 4.7 13.6 4.2 18.3-1l36.8-45.7h-8.5" fill="#3e4347"/><path d="m38.3 31.4c0 0 .5-6.2 1.2-8.1 2.3-6.5 16.1-21.3 16.1-21.3h-2.9l-21.6 25.3c-.2 11.9-7.5 21.9-7.5 21.9 2.3-1.1 14.7-17.8 14.7-17.8" fill="#c7e755"/><use xlink:href="#0"/><path d="m31.1 27.3c0 0-1.9 2.3-3.4 4.1 2.5 6.6-4 17.8-4 17.8s10.6-14 7.4-21.9" fill="#83bf4f"/></svg>