<svg xmlns="http://www.w3.org/2000/svg" viewBox="0 0 64 64" enable-background="new 0 0 64 64"><path fill="#d6eef0" d="m0 0h64v64h-64z"/><circle cx="52" cy="12" r="7" fill="#ffe62e"/><g fill="#fff"><path d="m22 7c0 1.1-.9 2-2 2h-10c-1.1 0-2-.9-2-2 0-1.1.9-2 2-2h10c1.1 0 2 .9 2 2"/><path d="m26 9c0 1.1-.9 2-2 2h-4c-1.1 0-2-.9-2-2 0-1.1.9-2 2-2h4c1.1 0 2 .9 2 2"/><path d="m40 12c0 1.1-.9 2-2 2h-4c-1.1 0-2-.9-2-2 0-1.1.9-2 2-2h4c1.1 0 2 .9 2 2"/><path d="m19 19c0 1.1-.9 2-2 2h-4c-1.1 0-2-.9-2-2 0-1.1.9-2 2-2h4c1.1 0 2 .9 2 2"/></g><path fill="#42ade2" d="m0 32h64v32h-64z"/><path d="m55 51.2c-1.2 6.2-9.2 6.8-23 6.8-13.8 0-21.8-.5-23-6.8-1.3-6.7 9.2-11.2 23-11.2 13.8 0 24.3 4.5 23 11.2" fill="#428bc1"/><path d="m53 50.3c-1.4 5.1-9.4 4.7-21 4.7-11.6 0-19.6.4-21-4.7-1.6-5.9 9.4-12.3 21-12.3 11.6 0 22.6 6.4 21 12.3" fill="#ffdd7d"/><path d="m42 47.1c0 2-3.2.3-5 1-1.8.7-2.2 2.1-5 2.1-2.7 0-3.2-1.3-5-2.1-1.8-.7-5 .9-5-1 0-2.3 4.5-6.9 10-6.9 5.5 0 10 4.6 10 6.9" fill="#83bf4f"/><path d="m38 45c0 1.1-2.1 1-6 1-3.9 0-6 .1-6-1s2.1-3 6-3c3.9 0 6 1.9 6 3" fill="#75a843"/><path d="m30.5 44.2c0 0-2-10.3 6.2-19.4l1.8.9c0 0-5 3.2-5 18.5 0 0-1.5 1.3-3 0" fill="#dbb471"/><path d="m41.1 23.5c-1 0-1.9.2-2.7.7.3-.8.4-1.8.2-2.8-.5-2.8-3-4.6-5.6-4.2-.3.1-.6.1-.9.3 2.1.1 4.1 2.2 4.6 4.9.3 1.6.1 3.3-.6 4.5 1.1-.9 2.6-1.4 4.2-1.4 2.8 0 5.2 1.6 5.7 3.6.1-.3.1-.6.1-.9.1-2.6-2.1-4.7-5-4.7" fill="#699635"/><path d="m33.3 22.2c.2.1.5.2.7.3-.1-.1-.1-.1-.2-.2-2.6-2.2-6-2.6-8.1-1.1.2-.3.4-.7.6-1 2-2.4 5.8-2.6 8.4-.4 1.9 1.6 2.7 4.1 2.1 6.3 2-.9 4.6-.6 6.5 1 2.6 2.2 3.1 5.9 1 8.4-.3.3-.5.6-.8.8 1.1-2.3.2-5.6-2.4-7.8-.1-.1-.1-.1-.2-.2.2.2.3.4.4.6 1.3 2.4.7 5.3-1.5 6.6-.3.2-.6.3-.8.4 1.5-1.4 1.8-4.2.3-6.5-1.4-2.1-3.7-1.6-3.7-1.6s0-2.6-2.5-3.7c-2.7-1.2-5.2-.1-6.4 1.6 0-.3.1-.6.2-.9 1.1-2.3 3.9-3.5 6.4-2.6" fill="#83bf4f"/><g fill="#89664c"><path d="m30 40c0 0-.2 2 2 2 1.6 0 2-2 2-2h-4"/><path d="m30.6 36c0 0-.5 1.7 1.7 2 1.6.2 2.3-1.4 2.3-1.4l-4-.6"/><path d="m31.6 32c0 0-.5 1.7 1.7 2 1.6.2 2.3-1.4 2.3-1.4l-4-.6"/><path d="m33.2 28c0 0-.9 1.3 1.2 1.9 1.5.4 2.6-.9 2.6-.9l-3.8-1"/></g></svg>