<?xml version="1.0" encoding="utf-8"?>
<!-- Generator: Adobe Illustrator 25.2.3, SVG Export Plug-In . SVG Version: 6.00 Build 0)  -->
<svg version="1.1" id="Layer_2" xmlns="http://www.w3.org/2000/svg" xmlns:xlink="http://www.w3.org/1999/xlink" x="0px" y="0px"
	 viewBox="0 0 128 128" style="enable-background:new 0 0 128 128;" xml:space="preserve">
<path style="fill:#C5B3AF;" d="M97.83,94.32l-23.68,17.09l-32.93,1.25l-11.61,1.73c0,0,6.43,3.92,12.7,6.27
	c6.27,2.35,11.92,1.57,11.92,1.57s4.23,2.2,16.78,1.25c12.55-0.94,18.04-5.8,18.04-5.8l1.57,0.78c0,0,4.39-0.94,9.57-4.55
	c5.18-3.61,15.74-13.78,19.92-25.25c4.56-12.54,4.55-24.62,3.29-33.09c-0.1-0.66-0.03-2.89-0.38-2.92
	C118.86,52.25,98.26,94.03,97.83,94.32z"/>
<path style="fill:#D8CDC9;" d="M33.84,15.9l-14.59,7.84l-4.23,4.7l-9.1,19.6c0,0-0.63,1.25-0.63,2.67c0,1.41,0,3.61,0,3.61
	S4.28,65.97,3.89,67.66c-0.47,2.04-0.47,4.23,0.47,5.96c0.94,1.73,7.37,16.94,7.37,16.94l6.12,12.08c0,0,2.35,3.76,5.33,6.74
	s8.31,5.02,8.31,5.02s3.05,2.15,8,2.2c4.18,0.04,7.47-1.16,7.47-1.16s4.9,3.49,14.76,3.36c12.22-0.16,12.9-3.93,12.9-3.93
	s7.18,1.27,17.53-5.48c10.35-6.74,15.72-19.93,15.72-19.93s4.55-1.57,7.53-7.68s8-21.17,8-26.19c0-3.53-1-10.57-4.57-18.14
	c-1.35-2.86-3.02-5.1-5-7.42c-1.47-1.72-3.9-4.49-3.9-4.49s-2.06-3.51-3.16-4.77s-4.55-3.92-4.55-3.92l-16.78-9.1
	c0,0-4.23-2.35-6.59-2.98C76.5,4.14,33.84,15.9,33.84,15.9z"/>
<path style="fill:#F2EEEC;" d="M99.4,31.43c-3.81,1.61-12.89,6.42-12.57,13.48s3.48,8.95,4.73,23.53
	c1.25,14.59-1.41,23.68-0.47,24.94c0.94,1.25,7.71-1.32,11.9-7.09c3.92-5.41,6.77-16.9,6.77-16.9s4.7-1.57,8.64-8.93
	c3.04-5.69,3.81-9.78,3.63-13.65c-0.12-2.66-3.06-11.82-7.46-15.61C110.82,27.98,103.86,29.55,99.4,31.43z"/>
<path style="fill:#F1EDEC;" d="M5.93,48.06c0,0,11.76,5.33,27.92,9.25s32.78,6.9,36.23,7.53c3.45,0.63,5.96-0.63,6.74-2.35
	c0.78-1.73,0.91-11.37-1.72-14.83c-1.82-2.4-5.74-5.5-5.74-5.5l-28.31-5.08l-24.62-7.21l-1.41-1.41c0,0-3.76,3.61-6.12,8.47
	S5.93,48.06,5.93,48.06z"/>
<path style="fill:#F1EDEC;" d="M5.26,54.32c0.86,0.64,34.67,10.14,34.67,10.14s38.52,6.68,38.52,7.45c0,0.77-1.67,10.02-6.04,12.71
	c-4.37,2.7-25.98,0.54-33.51-1.03C17.33,79.11,3.85,68.58,3.85,68.58s-0.9-3.47-0.39-8.22C3.73,57.9,5.26,54.32,5.26,54.32z"/>
<path style="fill:#F1EDEC;" d="M6.03,76.28l13.23,8.09l27.09,7.06l29.28,0.26c0,0,1.8,2.44,1.41,4.24c-0.39,1.8-2.57,7.83-8.73,10.4
	c-5.59,2.33-25.03,4.77-40.96-1.03c-14.12-5.14-16.82-12.46-19.39-18.23C5.32,81.13,6.03,76.28,6.03,76.28z"/>
<path style="fill:#F1EDEC;" d="M53.25,29.74l12.76-12.91l18.02-7.81c0,0,4.65,0.15,5.86,0.45s4.35,1.2,9.01,4.05
	s7.87,7.24,7.87,7.24s-4.87-4.39-18.38,2.52S74.72,33.94,72.17,34.54c-2.55,0.6-7.92,0.15-11.71-0.75
	C54.15,32.29,53.25,29.74,53.25,29.74z"/>
<path style="fill:#F1EDEC;" d="M20.7,23.53c0,0,1.63,2.07,6.21,3.16c4.57,1.09,9.04,0.22,9.04,0.22s1.31,1.63,5.45,2.5
	c4.14,0.87,5.77-0.11,6.64-1.2c0.87-1.09,7.08-10.78,16.01-16.23s17.04-6.44,17.04-6.44s-5.26-2.62-12.77-2.19
	S54.46,6.22,54.46,6.22l-3.59,0.33c0,0-5.55-0.65-12.42,2.29s-14.27,9.69-14.27,9.69L20.7,23.53z"/>
<path style="fill:#C5B3AF;" d="M66.85,41.32c0,0,6.68-1.89,9.36-3.29c2.68-1.4,11.48-5.87,11.48-5.87s-3.44,6.13-3.7,9.82
	c-0.28,4,0.67,12.12,0.67,12.12l-1.91-1.08c0,0-4.67-4.45-6.45-5.86S66.85,41.32,66.85,41.32z"/>
<g>
	<path style="fill:#9B8D8B;" d="M86.49,74.5c-0.21-0.02-21.01-1.85-55.79-10.38c-20.37-5-25.62-8.34-25.95-8.55
		c0,0,0.26-0.59,0.4-1.86c0.13-1.27,0.15-2.56,0.15-2.56c0.08,0.05,6.79,4.19,26.38,8.99c34.44,8.45,54.96,10.26,55.16,10.28
		L86.49,74.5z"/>
</g>
<g>
	<path style="fill:#9B8D8B;" d="M61.73,94.28c-10.17,0-22.67-1.24-35.76-5.46C13.24,84.72,6.5,79.75,6,79.4c0,0,0.11-0.94-0.25-2.39
		c-0.36-1.45-1.24-3.16-1.24-3.16c0.12,0.08,10.58,7.15,22.72,11.06c29.9,9.64,57.46,2.94,57.73,2.87l1,3.98
		C85.28,91.94,75.7,94.28,61.73,94.28z"/>
</g>
<path style="fill:#9B8D8B;" d="M79.75,115.58c-3.27-1.87-5.8-4.61-5.83-4.64l-0.62-0.67l-0.91,0.12
	c-0.15,0.02-15.38,1.98-36.79-3.91c-10.21-2.81-19.12-7.4-20.84-8.58c0,0,0.72,3.96,3.59,5.47c2.24,1.18,4.96,2.45,7.92,3.64
	c0.23,0.85,0.99,3.56,2.46,6.12c2.28,3.96,8.08,5.15,8.08,5.15c-0.03-0.04-3.44-4.32-4.85-7.37c-0.36-0.79-0.62-1.49-0.82-2.11
	c1.16,0.38,2.33,0.74,3.51,1.07c2.36,0.65,4.64,1.2,6.83,1.68c0.8,1.55,2.46,4.36,5.23,7.1c1.14,1.13,2.71,2.58,4.53,3.37
	c4.07,1.76,7.74,1.36,7.74,1.36c-0.06-0.05-5.59-3.58-8.54-6.51c-1.11-1.1-2.92-3.29-3.64-4.3c13.09,2.26,22.32,1.66,25.15,1.38
	c1.04,1.03,3.28,3.08,6.04,4.66c1.61,0.92,3.06,1.75,4.66,2.1c3.18,0.69,5.29-1.58,5.29-1.58
	C87.92,119.11,83.36,117.63,79.75,115.58z"/>
<g>
	<path style="fill:#9B8D8B;" d="M73.8,113.75l-2.33-3.25l1.16,1.63l-1.17-1.62c0.12-0.09,12.24-9.19,13.33-33.16
		c1.08-23.98-8.09-33.19-8.19-33.28l2.76-2.89c0.43,0.41,10.6,10.36,9.42,36.36C87.61,103.57,74.37,113.34,73.8,113.75z"/>
</g>
<g>
	<path style="fill:#9B8D8B;" d="M84.22,120.83l-1.36-3.43c0.79-0.13,20.28-3.84,24.57-39.48c3.29-27.33-12.39-49.99-12.55-50.21
		l3.27-2.31c0.68,0.97,16.74,24.09,13.25,53C106.72,117.25,85.22,120.86,84.22,120.83z"/>
</g>
<path style="fill:#9B8D8B;" d="M94.47,25.4c-9.4,3.66-15.57,12.05-17.56,15.08c-3.41-0.26-13.69-1.18-25.77-3.56
	c2.28-4.06,7.95-12.95,16.74-18.76c11.68-7.71,21.47-8.73,21.7-8.79s-2.9-3.06-5.76-2.47c-5.12,1.06-11.71,3.69-18.14,7.93
	C55.2,21.76,49,32.36,47.05,36.08c-2.93-0.64-5.93-1.37-8.94-2.19c-0.95-0.26-1.87-0.52-2.77-0.77c1.41-3.49,4.55-10.58,8.43-15.35
	C51.39,8.43,60.43,4.53,60.53,4.49c0,0-5.79-1.63-10.85,2.07c-2.92,2.14-6.05,5.06-9,8.68c-4.4,5.4-7.8,13.23-9.2,16.77
	c-4.36-1.27-7.9-2.36-10.7-3.28c0.75-1.7,1.81-3.97,2.95-5.95c2.11-3.69,4.42-7.34,4.44-7.37c0,0-5.15,1.81-8.11,6.69
	c-1.35,2.21-1.82,3.72-2.61,5.53c-0.48-0.16-0.87-0.35-1.31-0.32c-2.37,0.13-3.26,3.59-3.26,3.59c0.29,0.13,4.79,1.62,24.16,6.95
	c20.38,5.6,40.65,6.82,40.85,6.83l1.26,0.07l0.63-1.09c0.06-0.1,6.22-10.54,16.19-14.42c8.4-3.27,15.4-1.99,15.47-1.98
	c0,0-0.26-0.99-0.92-2.08c-0.49-0.8-1.88-1.61-1.88-1.61C108.31,23.48,104.15,21.64,94.47,25.4z"/>
</svg>
