<?xml version="1.0" encoding="utf-8"?>
<!-- Generator: Adobe Illustrator 25.2.3, SVG Export Plug-In . SVG Version: 6.00 Build 0)  -->
<svg version="1.1" id="Layer_2" xmlns="http://www.w3.org/2000/svg" xmlns:xlink="http://www.w3.org/1999/xlink" x="0px" y="0px"
	 viewBox="0 0 128 128" style="enable-background:new 0 0 128 128;" xml:space="preserve">
<path style="fill:#88B154;" d="M65.03,92.69c0,0-60.23,18.39-60.36,19.72c-0.13,1.33,24.11,12.02,64.62,11.46
	c38.64-0.53,53.57-10.39,53.83-11.46S66.36,92.42,65.03,92.69z"/>
<path style="fill:#9EA2A3;" d="M62.26,42.15l-4.31-5.42c0,0-6.96,7.3-8.84,9.29c-1.88,1.99-3.33,3.14-4.23,5.01
	c-1.29,2.67-5.38,25.72-5.38,25.72L27.67,88.9c0,0-2.23-1.39-2.78-0.94S6.22,110.01,6.22,110.01l-1.56,2.39c0,0,3.6,0.8,4.71,0.69
	c0.54-0.05,3.2-0.66,6.21-0.97c3.17-0.33,7.22-0.06,7.67-0.11c0.51-0.05,2.27-0.57,2.27-0.57l15.74-9.39l12.5-0.48l12.26,2.58
	l23.21,1.11l12.71-19.01L74.31,49.66L62.26,42.15z"/>
<path style="fill:#717A7C;" d="M28.55,97.77c0,0-0.43-1.23-0.75-2.14c-0.32-0.91-0.13-6.73-0.13-6.73s7.21,4.26,8.01,4.96
	s7.94,5.15,7.94,5.15l4.3-0.11l0.87,1.93c0,0-6.19,2.94-8.23,3.59c-2.04,0.64-15.11,7.29-15.09,7.04c0.04-0.52,3.4-5.33,3.4-5.33
	L28.55,97.77z"/>
<path style="fill:#798082;" d="M80.73,103.46l-49.26,7.78c0,0-2.38,2.11-2.14,2.67c0.24,0.56,9.33,2.25,12.47,2.65
	c3.14,0.4,24.61,1.61,26.94,1.45c2.33-0.16,26.14-1.37,29.44-1.77c3.3-0.4,14.39-1.17,15.12-1.5c1.41-0.64,7.88-4.13,7.88-4.13
	s-7.24-11.42-8.69-14.16c-1.45-2.73-3.86-7.64-5.55-9.33s-2.9-2.41-2.9-2.41s-2.28-5.3-4.94-8.68c-2.65-3.38-6.28-8.85-7.13-9.69
	c-3.19-3.18-3.28-3.48-3.28-3.48l2,24.1c0,0-3.7,7.4-4.99,9.41C84.43,98.4,80.73,103.46,80.73,103.46z"/>
<path style="fill:#717A7C;" d="M63.03,27.62l-0.97,19.62l11.41,7.08c0,0,3.43,8.79,3.59,9.6c0.16,0.8-0.15,2.97,0.17,3.53
	c0.32,0.56,6.23,4.63,6.46,4.64c1.31,0.07,4.02-0.4,3.86-0.64s1.08-5.46,1.08-5.46s-7.84-12.71-9.53-16.25
	c-1.69-3.54-8.04-12.71-8.77-14.24s-4.18-6.6-4.91-7.4S63.52,27.06,63.03,27.62z"/>
<path style="fill:#C0C0C0;" d="M68.02,65.05c0,0,5.39-8.88,5.55-10.24s-4.34-9.65-5.47-12.63c-1.13-2.98-4.1-9.09-4.42-9.89
	c-0.32-0.8-0.64-4.66-0.64-4.66s-2.25,2.41-3.06,4.34c-0.8,1.93-3.83,6.68-3.83,6.68s1.9,11.02,2.63,15.76
	c0.72,4.75,1.26,10.98,1.15,11.21c-0.69,1.4-5.33,12.68-5.33,12.68s-0.6,5.47-0.04,6.03c0.56,0.56,3.81,1.3,4.06,0.92
	c0.49-0.73,0.48-3.5,0.48-3.5s9.02-12.18,9.31-12.78C68.52,68.74,68.02,65.05,68.02,65.05z"/>
<path style="fill:#C0C0C0;" d="M49.64,65.92c-0.03-1.21-1.8-6.95-2.12-8.24c-0.32-1.29-1-7.66-1.89-7.66
	c-0.88,0-4.96,11.22-5.37,12.27c-0.4,1.05-6.11,13.35-6.84,14.8c-0.72,1.45-4.02,7.72-4.66,8.77s-1.49,2.83-1.49,2.83l16.34,10.33
	l5.9-0.67c0,0-3.45-9.27-4.26-11.36s-1.77-5.47-1.77-5.47s1.87-4.48,3.09-7.7C47.8,70.58,49.68,67.12,49.64,65.92z"/>
<path style="fill:#C0C0C0;" d="M25.32,87.97c0.04,0.15,0.25,3.92,0.14,6.17c-0.11,2.26-0.55,4.52-0.55,4.52l-7.28,7.6l-0.23,1.71
	c0,0-11.06,3.91-11.78,4.13c-0.72,0.22-0.95,0.3-0.95,0.3s-1.5-0.91,2.99-5.81c5.8-6.33,13.22-15,14.16-16.09
	C23.49,88.57,25.21,87.52,25.32,87.97z"/>
<path style="fill:#33632C;" d="M106.71,99.82c-0.6-0.25-2.13,6.52-2.45,8.91c-0.32,2.39-1.17,6.93-0.95,7.38
	c0.64,1.27,7.46,0.43,8.12-0.66c0.19-0.31-0.77-5.4-1.46-7.55C109.03,104.96,108.26,100.47,106.71,99.82z"/>
<path style="fill:#33632C;" d="M118.66,91.29c-0.94,0.04-1.94,8.25-2.56,10.04c-0.7,2.03-3.04,11.64-2.07,12.74
	c0.97,1.1,4.68,0.23,6.06-0.17c1.33-0.38,2.48-1.02,2.8-1.73s-0.44-6.44-1.36-10.44C120.59,97.68,120.14,91.22,118.66,91.29z"/>
<path style="fill:#C0C0C0;" d="M31.47,111.25c0,0,2.59,0.98,11.46,1.53c8.87,0.55,13.23,0.5,13.23,0.5l20.26-2.96l4.6-7.28
	c0,0-6.12-0.23-9.37-0.34c-3.25-0.11-8.1-0.13-8.32-0.73c-0.22-0.61,5.47-4.74,7.07-5.56c1.6-0.83,5.46-1.27,6.34-2.2
	c0.88-0.94,12-7.21,13.37-7.26c1.38-0.06,5.68,2.59,6.5,2.31c0.83-0.28-2.86-10.04-3.35-11.87c-0.04-0.16-1.99-9.67-2.05-9.85
	c-0.46-1.41-1.87-5.07-2.76-4.63c-0.88,0.44-2.37,3.8-3.47,7.16s-1.76,5.13-2.31,5.95s-6.94,4.91-7.83,5.84
	c-0.88,0.94-3.53,2.92-5.13,3.58c-1.6,0.66-3.14,0.66-4.3,1.71c-1.16,1.05-2.59,2.87-4.19,4.57c-1.6,1.71-4.85,5.63-5.92,6.59
	s-2.03,1.89-2.03,1.89s-7.73,2.19-10.33,3.45C40.36,104.92,30.8,111.08,31.47,111.25z"/>
<path style="fill:#FFFFFF;" d="M111.79,52.02c-0.85,0.85-0.88,2.2,0.06,2.97c0.83,0.69,2.2,0.24,2.71-0.38
	c0.51-0.62,0.45-1.97-0.23-2.65S112.3,51.51,111.79,52.02z"/>
<path style="opacity:0.5;fill:#FFFFFF;" d="M112.07,64.67c-0.91,1-0.61,2.49,0.23,3.04c0.84,0.55,2.1,0.5,2.72-0.26
	c0.55-0.68,0.61-2.04-0.23-2.88C114.06,63.84,112.66,64.02,112.07,64.67z"/>
<path style="opacity:0.6;fill:#FFFFFF;" d="M86,32.06c-0.26,0.83,0.26,1.77,1.05,1.91c0.83,0.15,1.68-0.09,1.91-0.88
	c0.23-0.8-0.06-1.8-1.2-2C86.62,30.89,86.13,31.61,86,32.06z"/>
<path style="fill:#FFFFFF;" d="M94.54,46.11c0,0,0.74-2.72,1.28-2.81c0.54-0.09,1.62,2.92,1.62,2.92s2.69,0.09,2.78,0.51
	c0.09,0.43-1.9,2.04-1.9,2.04s0.74,2.52,0.43,2.84c-0.31,0.31-2.78-1.28-2.78-1.28s-2.21,1.87-2.72,1.53
	c-0.51-0.34,0.43-3.15,0.43-3.15s-2.1-1.5-2.13-2.01C91.51,46.19,94.54,46.11,94.54,46.11z"/>
<path style="fill:#FFFFFF;" d="M33.54,38.62c0,0,0.97-2.79,1.56-2.82c0.58-0.03,1.43,2.79,1.43,2.79s2.88,0.03,3.08,0.45
	c0.25,0.54-1.85,2.37-1.85,2.37s0.68,2.72,0.36,3.05c-0.36,0.36-2.85-1.07-2.85-1.07s-2.56,1.78-3.11,1.3
	c-0.48-0.42,0.52-3.31,0.52-3.31s-2.4-1.75-2.27-2.24C30.58,38.46,33.54,38.62,33.54,38.62z"/>
<path style="opacity:0.5;fill:#FFFFFF;" d="M11.86,46.11c-0.6-0.03-1.42,0.57-1.42,1.6c0,0.76,0.73,1.39,1.36,1.39
	c0.91,0,1.54-0.69,1.51-1.48C13.27,46.59,12.49,46.14,11.86,46.11z"/>
<path style="fill:#FFFFFF;" d="M18.47,61.03c0.06,1.14,0.63,2.11,2.11,2.07s2.7-2.31,1.29-3.64C20.46,58.13,18.39,59.5,18.47,61.03z
	"/>
<path style="fill:#FFFFFF;" d="M8.65,74.98c0.7,0.78,2.38,0.47,2.42-0.9c0.04-1.25-0.59-1.84-1.76-1.68
	C8.15,72.56,7.8,74.03,8.65,74.98z"/>
<path style="fill:#FFFFFF;" d="M28.46,90.36l-1.83-2.32l-3.57,1.64l-8.3,13.42l2.84,3.2c0,0,6.95-3.82,7.69-3.97
	c1.11-0.23,4.83-0.08,4.83-0.08L28.46,90.36z"/>
<path style="fill:#8CC2EA;" d="M28.73,102.23l5.62,0.1c0,0,6,1.87,8.6,1.32c2.6-0.55,5.54-2.95,5.54-2.95s2.27-0.92,1.14-2.23
	c-0.26-0.3-1.96-0.77-6.59-1.93s-5.23-2.06-5.23-2.06s-5.39-3.74-7.32-5.19c-1.93-1.45-3.84-1.47-3.84-1.47s1.24,4.58,1.52,7.33
	C28.44,97.9,28.73,102.23,28.73,102.23z"/>
<path style="fill:#C6E4F7;" d="M5.76,108.94c-0.7,0.85,4.39-0.68,6.34-1.15c2.49-0.6,5.52-1.51,5.52-1.51l0.8-6.08
	c0,0,5.21-9.36,5.89-10.14s3.32-2.09,3.32-2.09s-1.58-0.79-2.67-0.85c-1.85-0.1-5.38,4.01-7.22,6.42c-1.83,2.41-5.02,6.76-5.02,6.76
	s-1.49,0.4-3.01,2.54C7.42,106.08,5.76,108.94,5.76,108.94z"/>
<path style="fill:#33632C;" d="M39.8,90.59c-0.68-0.07-1.54,2.2-2,3.89c-0.33,1.19-2.46,7.22-2.71,8.39
	c-0.26,1.18-1.58,4.66-1.22,4.82c0.36,0.15,1.53,0.42,2.15,0.17c0.16-0.06,2.33-1.56,3.9-2.5c1.57-0.94,3.12-1.79,3.12-1.85
	c0-0.61-1.2-6.23-1.33-6.98C41.34,94.38,40.86,90.7,39.8,90.59z"/>
<path style="fill:#33632C;" d="M45.91,92.85c-0.59,0.2-1.32,2.48-2.01,4.84c-0.44,1.49-1.72,5.96-1.41,6.18
	c0.31,0.22,3.34,0.26,4.62-0.38c1.23-0.62,2.11-1.4,2.27-1.84c0.16-0.44-1.24-4.32-1.78-5.74C47.18,94.84,46.53,92.63,45.91,92.85z"
	/>
<path style="fill:#9EA2A3;" d="M46.59,70.45l-12.36,4.93l-0.99,2.13c0,0,1.92,2.15,3.26,3.6c1.16,1.25,4.26,2.91,4.81,4.03
	c1.08,2.2,5.31,4.46,7.42,5.52s2.2-0.18,2.2-0.18L46.59,70.45z"/>
<path style="fill:#9EA2A3;" d="M51.86,99.47l-2.46,1.79c0,0,2.65,1.77,4.61,2.36c1.96,0.59,5.1,1.76,8.43,2.35
	c3.33,0.59,6.47,0.2,8.62,0.39c2.16,0.2,6.56,2.38,6.56,2.38s0.93-1.91,1.86-3.23c0.93-1.31,1.24-2.04,1.24-2.04l-8.46-1.84
	L51.86,99.47z"/>
<path style="fill:#33632C;" d="M76.52,106.03c-0.72,0.06-1.73,5.46-2.09,6.66c-0.2,0.68-1.87,5.33-1.42,6.11
	c0.9,1.6,8.3,1.17,8.63,0.33c0.32-0.84-2.11-6.46-2.56-7.5C78.62,110.61,77.58,105.94,76.52,106.03z"/>
<path style="fill:#FFFFFF;" d="M45.93,49.43L35.02,76.17c0,0,0.68,1.06,1.64,2.22c0.97,1.16,4.54,4.05,5.7,4.92s1.26,1.64,2.7,2.61
	c1.45,0.97,6.66,3.48,8.5,4.44c1.83,0.97,4.92,2.61,4.92,2.61s-3.09,3.19-3.96,4.44c-0.87,1.26-1.61,2.48-1.61,2.48l15.99,2.44
	c0,0,27.88-12.48,27.7-13.09s-1.15-14.13-1.73-14.81c-0.58-0.68-6.47-10.14-6.47-10.14l-5.89-0.87l-9.27-17.57l-9.75-15.93
	l-6.66,10.33l-3.57,6.56L45.93,49.43z"/>
<path style="fill:#8CC2EA;" d="M58.58,87.17c-0.11,0.67,1.64,3.48,2.41,3.38c0.77-0.1,5.31-4.05,6.47-4.83
	c1.16-0.77,7.92-5.12,9.46-6.08c1.54-0.97,5.6-4.51,5.89-5.02c0.38-0.69,1.59-6.9,1.83-7.72c0.11-0.36,2.4-2.16,2.65-1.85
	c0.5,0.61,2.66,6.58,3.14,8.22c0.48,1.64,3.38,13.23,3.57,14c0.29,1.14,2.41,3.28,4.15,2.22c1.74-1.06,6.51-2.97,7.07-3.88
	c0.3-0.48-3.82-6.53-6.03-9.69s-4.26-6.48-6.3-9.31c-1.67-2.32-2.71-3.76-3.82-4.35c-1.12-0.59-2.07,0.78-2.07,0.78
	s-8.16-14.11-9.61-16.62c-1.45-2.51-9.12-14.56-11.03-17.33c-1.25-1.82-2.03-2.35-3.2-1.68c-1.17,0.66-0.54,5.59-0.54,5.59
	s10.93,20.92,10.43,22.3c-0.51,1.38-4.54,8.79-6.76,13.23C64.08,72.98,58.87,85.44,58.58,87.17z"/>
<path style="fill:#C6E4F7;" d="M46.93,51.59c0.8-1.2,7.69,14.34,9.43,14.53s2.9-11.87,2.7-14.58c-0.19-2.7,0-11.68,0.77-13.61
	c0.77-1.93,2.8-4.92,2.8-4.92s1.13-2.4,1.24-3.04c0.33-1.85-0.11-2.82-0.11-2.82s-1.13,0.26-2.2,1.71
	c-1.06,1.45-5.43,9.78-5.43,9.78s-5.48,5.48-7.02,6.54c-1.54,1.06-3.77,2.41-4.25,3.28c-0.48,0.87-4.25,11.35-6.08,15.54
	c-2.28,5.24-4.48,9.7-4.56,11.38c-0.02,0.33,1.8,2.22,1.8,2.22s1.53-2.94,3.36-7.76S46.14,52.79,46.93,51.59z"/>
<path style="fill:#C6E4F7;" d="M54.05,98.12c0,0-1.45,1.89-1.28,2.18c0.48,0.82,7.55,2.89,8.8,3.09s8.4,0.87,10.81,0.68
	c2.41-0.19,8.34-0.61,8.34-0.61s3.92-4.7,4.88-5.48c0.97-0.77,6.08-2.7,6.08-2.7l6.32-5.7c0,0-1.84-0.13-2.75-0.67
	s-1.25-1.65-1.25-1.65s-4.44,2.51-6.28,3.48c-1.83,0.97-8.88,3.28-10.91,4.44s-7.72,4.05-7.72,4.05s-10.04,0.77-11.01,0.48
	C57.13,99.44,54.05,98.12,54.05,98.12z"/>
<path style="opacity:0.5;fill:#FFFFFF;" d="M35.53,20.08c-0.91,1-0.61,2.49,0.23,3.04c0.84,0.55,2.1,0.5,2.72-0.26
	c0.55-0.68,0.61-2.04-0.23-2.88C37.52,19.26,36.11,19.44,35.53,20.08z"/>
</svg>
