<?xml version="1.0" encoding="utf-8"?>
<!-- Generator: Adobe Illustrator 25.2.3, SVG Export Plug-In . SVG Version: 6.00 Build 0)  -->
<svg version="1.1" id="Layer_3" xmlns="http://www.w3.org/2000/svg" xmlns:xlink="http://www.w3.org/1999/xlink" x="0px" y="0px"
	 viewBox="0 0 128 128" style="enable-background:new 0 0 128 128;" xml:space="preserve">
<polygon style="fill:#AB5832;" points="19.16,48.94 19.16,28.58 17.52,28.68 17.52,16.14 33.34,16.04 33.34,28.39 31.7,28.39 
	31.7,40.35 "/>
<polygon style="fill:#FFF3E1;" points="64.11,23.33 18.67,68.99 19.02,111.2 108.77,110.35 108.9,65.35 "/>
<path style="fill:#5F4E47;" d="M16.97,103.79l3.14-1.73V67.98l-2.92,1.95C17.18,69.93,17.51,103.79,16.97,103.79z"/>
<polygon style="fill:#5F4E47;" points="107.2,69.82 107.2,101.85 110.34,103.58 110.34,71.01 "/>
<polygon style="fill:#BCAA93;" points="64.42,28.21 17.18,72.42 17.18,61.27 64.47,16.48 110.34,63.98 110.34,73.39 "/>
<path style="fill:#AB5832;" d="M12.55,59.36l-2.77,5.11l7.43-0.11c0,0,46.35-45.08,47.35-45.12c1.21-0.05,45.76,45.91,45.76,45.91
	l6.59-0.1L67.47,11.79l-7.26-0.48L12.55,59.36z"/>
<path style="fill:#ED6C31;" d="M4,63.19c-0.78,0.95-0.01,1.45,0.62,1.45s7.89-0.21,7.89-0.21l50.04-48.69c0,0,1.15-1.18,1.97-1.14
	c0.89,0.04,2.04,1.17,2.04,1.17l50.28,49.29c0,0,5.73,0.02,6.64-0.21c0.99-0.24,0.49-1.18-0.73-2.49
	c-0.9-0.97-51.73-51.25-52.57-52.12c-2.5-2.58-3.72-4.08-6.08-3.98c-2.37,0.1-3.77,1.85-6.14,4.03C57.26,10.95,4.33,62.79,4,63.19z"
	/>
<g>
	<path style="fill:#A6CFD5;" d="M93.5,80.83h10.25V72.3c0-1.59-1.29-2.87-2.87-2.87H93.5V80.83z"/>
	<path style="fill:#A6CFD5;" d="M90.42,80.83V69.43h-8c-1.59,0-2.87,1.29-2.87,2.87v8.54H90.42z"/>
	<path style="fill:#A6CFD5;" d="M90.42,84.07H79.55v8c0,1.59,1.29,2.87,2.87,2.87h8V84.07z"/>
	<path style="fill:#A6CFD5;" d="M93.5,84.07v10.87h7.38c1.59,0,2.87-1.29,2.87-2.87v-8H93.5z"/>
</g>
<g>
	<path style="fill:#A6CFD5;" d="M36.75,80.83H47V72.3c0-1.59-1.29-2.87-2.87-2.87h-7.38V80.83z"/>
	<path style="fill:#A6CFD5;" d="M33.66,80.83V69.43h-8c-1.59,0-2.87,1.29-2.87,2.87v8.54H33.66z"/>
	<path style="fill:#A6CFD5;" d="M33.66,84.07H22.8v8c0,1.59,1.29,2.87,2.87,2.87h8V84.07z"/>
	<path style="fill:#A6CFD5;" d="M36.75,84.07v10.87h7.38c1.59,0,2.87-1.29,2.87-2.87v-8H36.75z"/>
</g>
<path style="fill:#D27857;" d="M50.34,106.73c0,0-0.15-24.74,0-30.99c0.15-6.24,6.01-11.64,12.8-11.41
	c8.4,0.29,12.72,5.01,13.03,11.1c0.31,6.09,0.31,31.68,0.31,31.68L50.34,106.73z"/>
<path style="fill:#AB5932;" d="M53.47,108.07c0,0-0.12-26.36,0-31.24c0.15-6.05,4.71-9.23,10.01-8.93c6.17,0.35,9.22,3.63,9.46,8.4
	c0.24,4.76,0.24,31.79,0.24,31.79L53.47,108.07z"/>
<g>
	<path style="fill:#D27857;" d="M69.99,86.58c-0.02-4.34-0.06-8.17-0.12-9.34c-0.16-3.15-2.4-5.6-6.75-5.75
		c-3.51-0.12-6.4,2.62-6.48,5.85c-0.03,1.19-0.02,4.93,0,9.19L69.99,86.58z"/>
	<path style="fill:#D27857;" d="M56.67,91.45c0.04,5.81,0.09,11.16,0.09,11.16l13.27,0.04c0,0,0-5.33-0.02-11.14L56.67,91.45z"/>
</g>
<path style="fill:#FFBA02;" d="M70.03,88.81c-0.05,1.41,0.52,2.55,2.19,2.55c1.67,0,2.28-0.78,2.4-2.29c0.1-1.35-0.83-2.55-2.4-2.45
	C70.66,86.73,70.07,87.82,70.03,88.81z"/>
<path style="fill:#728037;" d="M79.61,116.31c0,0,10.88,0.11,18.74-0.12c7.86-0.23,13.55,0.12,14.72-1.06
	c1.17-1.17,1.15-11.14-4.3-13.84c-5.01-2.48-8.25,0.04-9.97,0.21c-2.27,0.23-5.08-1.18-7.14-1.22c-8.51-0.18-11.49,6.51-11.49,6.51
	L79.61,116.31z"/>
<path style="fill:#728037;" d="M14.53,115.49c0.91,0.85,7.86,0.88,16.25,0.82c8.39-0.06,15.14,0.02,15.14,0.02l1.4-8.47l-1.7-1.41
	c0,0,0.19-4.24-5.16-5.69c-3.7-1-6.92,0.65-10.03,0.7c-3.11,0.06-5.98-1.35-9.44-0.53c-3.22,0.76-5.73,2.86-6.75,7.1
	C13.53,110.97,13.71,114.72,14.53,115.49z"/>
<path style="fill:#B0B0B0;" d="M44.92,125.17l0.07-8.85h0.65l-0.01-9.86h34.73l-0.12,9.86h0.76v8.62
	C80.99,124.93,44.92,125.22,44.92,125.17z"/>
<polygon style="fill:#9B9B9B;" points="80.99,121.3 80.99,124.93 44.91,125.17 44.94,121.27 "/>
<polygon style="fill:#9B9B9B;" points="45.62,112.48 80.27,112.49 80.27,116.31 45.62,116.31 "/>
</svg>
