<?xml version="1.0" encoding="UTF-8" standalone="no"?><svg xmlns:dc="http://purl.org/dc/elements/1.1/" xmlns:cc="http://creativecommons.org/ns#" xmlns:rdf="http://www.w3.org/1999/02/22-rdf-syntax-ns#" xmlns:svg="http://www.w3.org/2000/svg" xmlns="http://www.w3.org/2000/svg" viewBox="0 0 45 45" style="enable-background:new 0 0 45 45;" xml:space="preserve" version="1.1" id="svg2"><metadata id="metadata8"><rdf:RDF><cc:Work rdf:about=""><dc:format>image/svg+xml</dc:format><dc:type rdf:resource="http://purl.org/dc/dcmitype/StillImage"/></cc:Work></rdf:RDF></metadata><defs id="defs6"><clipPath id="clipPath18" clipPathUnits="userSpaceOnUse"><path id="path20" d="M 0,36 36,36 36,0 0,0 0,36 Z"/></clipPath></defs><g transform="matrix(1.25,0,0,-1.25,0,45)" id="g10"><path id="path12" style="fill:#66757f;fill-opacity:1;fill-rule:nonzero;stroke:none" d="M 33,20 3,20 3,2 33,2 33,20 Z"/><g id="g14"><g clip-path="url(#clipPath18)" id="g16"><g transform="translate(2,2)" id="g22"><path id="path24" style="fill:#ccd6dd;fill-opacity:1;fill-rule:nonzero;stroke:none" d="m 0,0 32,0 c 1.105,0 2,-0.895 2,-2 l -36,0 c 0,1.105 0.896,2 2,2"/></g><g transform="translate(18,13)" id="g26"><path id="path28" style="fill:#292f33;fill-opacity:1;fill-rule:nonzero;stroke:none" d="m 0,0 c -1.657,0 -3,-1.343 -3,-3 l 0,-6 6,0 0,6 C 3,-1.343 1.657,0 0,0"/></g><path id="path30" style="fill:#ccd6dd;fill-opacity:1;fill-rule:nonzero;stroke:none" d="M 7,15 3,15 3,4 7,4 7,15 Z"/><path id="path32" style="fill:#ccd6dd;fill-opacity:1;fill-rule:nonzero;stroke:none" d="M 13,15 9,15 9,4 13,4 13,15 Z"/><path id="path34" style="fill:#ccd6dd;fill-opacity:1;fill-rule:nonzero;stroke:none" d="m 33,15 -4,0 0,-11 4,0 0,11 z"/><path id="path36" style="fill:#ccd6dd;fill-opacity:1;fill-rule:nonzero;stroke:none" d="m 27,15 -4,0 0,-11 4,0 0,11 z"/><path id="path38" style="fill:#aab8c2;fill-opacity:1;fill-rule:nonzero;stroke:none" d="M 34,2 2,2 2,4 34,4 34,2 Z"/><g transform="translate(36,25)" id="g40"><path id="path42" style="fill:#66757f;fill-opacity:1;fill-rule:nonzero;stroke:none" d="M 0,0 -18,11 -36,0 0,0 Z"/></g><g transform="translate(18,33.5996)" id="g44"><path id="path46" style="fill:#ccd6dd;fill-opacity:1;fill-rule:nonzero;stroke:none" d="m 0,0 -16,-9.6 0,-4 32,0 0,4 L 0,0 Z"/></g><path id="path48" style="fill:#8899a6;fill-opacity:1;fill-rule:nonzero;stroke:none" d="m 7,15 -4,0 0,2 4,0 0,-2 z"/><path id="path50" style="fill:#8899a6;fill-opacity:1;fill-rule:nonzero;stroke:none" d="m 13,15 -4,0 0,2 4,0 0,-2 z"/><path id="path52" style="fill:#8899a6;fill-opacity:1;fill-rule:nonzero;stroke:none" d="m 27,15 -4,0 0,2 4,0 0,-2 z"/><path id="path54" style="fill:#8899a6;fill-opacity:1;fill-rule:nonzero;stroke:none" d="m 33,15 -4,0 0,2 4,0 0,-2 z"/><path id="path56" style="fill:#ccd6dd;fill-opacity:1;fill-rule:nonzero;stroke:none" d="m 35,19 -34,0 0,5 34,0 0,-5 z"/><g transform="translate(36,24)" id="g58"><path id="path60" style="fill:#aab8c2;fill-opacity:1;fill-rule:nonzero;stroke:none" d="m 0,0 c 0,-0.552 -0.447,-1 -1,-1 l -34,0 c -0.552,0 -1,0.448 -1,1 l 0,1 c 0,0.552 0.448,1 1,1 L -1,2 C -0.447,2 0,1.552 0,1 L 0,0 Z"/></g><g transform="translate(36,18)" id="g62"><path id="path64" style="fill:#aab8c2;fill-opacity:1;fill-rule:nonzero;stroke:none" d="m 0,0 c 0,-0.552 -0.447,-1 -1,-1 l -34,0 c -0.552,0 -1,0.448 -1,1 l 0,1 c 0,0.552 0.448,1 1,1 L -1,2 C -0.447,2 0,1.552 0,1 L 0,0 Z"/></g><path id="path66" style="fill:#e1e8ed;fill-opacity:1;fill-rule:nonzero;stroke:none" d="M 23,2 13,2 13,4 23,4 23,2 Z"/><path id="path68" style="fill:#f5f8fa;fill-opacity:1;fill-rule:nonzero;stroke:none" d="M 25,0 11,0 11,2 25,2 25,0 Z"/></g></g></g></svg>
