<svg xmlns="http://www.w3.org/2000/svg" viewBox="0 0 64 64" enable-background="new 0 0 64 64"><path fill="#d0d0d0" d="m32.4 4.3h3.4v6.5h-3.4z"/><path fill="#94989b" d="m35.8 4.3h2.3v6.5h-2.3z"/><path fill="#d0d0d0" d="m31.2 2h5.7v2.3h-5.7z"/><path fill="#94989b" d="m36.9 2h2.3v2.3h-2.3z"/><path fill="#ed4c5c" d="m24.2 2l-21.5 12.3h43.1z"/><path fill="#f9f3d9" d="m8.8 14.3h30.9v19h-30.9z"/><path fill="#d6eef0" d="m20.4 20h7.7v7.7h-7.7z"/><path d="m19.4 19v9.6h9.6v-9.6h-9.6m8.7 1v3.4h-3.4v-3.4h3.4m-4.3 0v3.4h-3.4v-3.4h3.4m-3.4 7.7v-3.4h3.4v3.4h-3.4m4.3 0v-3.4h3.4v3.4h-3.4" fill="#89664c"/><path fill="#f9f3d9" d="m6.4 40.9h45.6v19.3h-45.6z"/><path fill="#d6eef0" d="m36.9 46.6h7.7v7.7h-7.7z"/><g fill="#89664c"><path d="m35.9 45.7v9.6h9.6v-9.6h-9.6m8.7.9v3.4h-3.4v-3.4h3.4m-4.4 0v3.4h-3.4v-3.4h3.4m-3.3 7.7v-3.3h3.4v3.4h-3.4zm4.3 0v-3.3h3.4v3.4h-3.4z"/><path d="m18.4 48.3h8.4v11.8h-8.4z"/></g><path fill="#dbb471" d="m17.6 46.6h10.1v1.7h-10.1z"/><circle cx="25.4" cy="53.4" r=".6" fill="#f9f3d9"/><path fill="#83bf4f" d="m2 60.1h60v1.9h-60z"/><path fill="#ed4c5c" d="m49.6 33.4h-40.9l-6.7 7.5h54.4z"/><path d="m62 56.2c0-1.2-.9-2.1-2.1-2.1-.2 0-.5 0-.7.1-.3-.5-.8-.9-1.4-.9-.4 0-.7.1-1 .3 0-.1 0-.2 0-.3 0-.9-.7-1.6-1.6-1.6-.8 0-1.4.6-1.6 1.3-.2-.2-.4-.2-.7-.2-.6 0-1.1.5-1.1 1.1v6.3h8.4c.9 0 1.6-.7 1.6-1.6 0-.4-.2-.8-.4-1.1.4-.4.6-.8.6-1.3" fill="#83bf4f"/><g fill="#699635"><path d="m62 58.5c0-.4-.2-.8-.4-1.1.3-.4.4-.8.4-1.3 0-1.2-.9-2.1-2.1-2.1-.2 0-.5 0-.7.1-.2-.3-.4-.6-.8-.8-.6.2-.9.8-.9 1.4 0 .2 0 .3.1.4-.1-.1-.3-.1-.5-.1-.6 0-1.1.5-1.1 1.1 0 .4.2.7.6.9-.2.3-.4.7-.4 1.1 0 1 .8 1.8 1.8 1.8h2.4c.9.2 1.6-.5 1.6-1.4"/><path d="m55.8 58.8c0 .6-.5-.2-1.1-.2-.6 0-1.1.8-1.1.2 0-.6.5-1.1 1.1-1.1.6 0 1.1.5 1.1 1.1"/><path d="m53.5 57c0 .3-.2 0-.5 0-.3 0-.5.3-.5 0 0-.3.2-.5.5-.5.2-.1.5.2.5.5"/></g><g fill="#83bf4f"><path d="m54.4 55.4c0 .3-.2-.1-.5-.1s-.5.4-.5.1.2-.5.5-.5.5.2.5.5"/><path d="m58.8 58c0 .4-.3-.2-.7-.2-.4 0-.7.6-.7.2 0-.4.3-.7.7-.7.3 0 .7.3.7.7"/><path d="m60.8 56.1c0 .6-.5-.3-1.1-.3-.6 0-1.1.9-1.1.3s.5-1.1 1.1-1.1c.6 0 1.1.5 1.1 1.1"/><path d="m60.8 58.6c0 .3-.2 0-.5 0s-.5.3-.5 0c0-.3.2-.5.5-.5s.5.2.5.5"/><path d="m56.1 54.3c0 .4-.3-.2-.7-.2-.4 0-.7.6-.7.2s.3-.7.7-.7c.4 0 .7.3.7.7"/><path d="m12 56.2c0-1.2-.9-2.1-2.1-2.1-.2 0-.5 0-.7.1-.3-.5-.8-.9-1.4-.9-.4 0-.7.1-1 .3 0-.1 0-.2 0-.3 0-.9-.7-1.6-1.6-1.6-.8 0-1.4.6-1.5 1.3-.2-.2-.4-.2-.7-.2-.6 0-1 .5-1 1.1v6.3h8.4c.9 0 1.6-.7 1.6-1.6 0-.4-.2-.8-.4-1.1.2-.4.4-.8.4-1.3"/></g><g fill="#699635"><path d="m12 58.5c0-.4-.2-.8-.4-1.1.3-.4.4-.8.4-1.3 0-1.2-.9-2.1-2.1-2.1-.2 0-.5 0-.7.1-.2-.3-.4-.6-.8-.8-.6.2-.9.8-.9 1.4 0 .2 0 .3.1.4-.1-.1-.3-.1-.5-.1-.6 0-1.1.5-1.1 1.1 0 .4.2.7.6.9-.2.3-.4.7-.4 1.1 0 1 .8 1.8 1.8 1.8h2.4c.9.2 1.6-.5 1.6-1.4"/><path d="m5.8 58.8c0 .6-.5-.2-1.1-.2s-1.1.8-1.1.2c0-.6.5-1.1 1.1-1.1.6 0 1.1.5 1.1 1.1"/><path d="m3.5 57c0 .3-.2 0-.5 0s-.5.3-.5 0c0-.3.2-.5.5-.5.2-.1.5.2.5.5"/></g><g fill="#83bf4f"><path d="m4.4 55.4c0 .3-.2-.1-.5-.1-.3 0-.5.4-.5.1s.2-.5.5-.5c.2 0 .5.2.5.5"/><path d="m8.8 58c0 .4-.3-.2-.7-.2-.4 0-.7.6-.7.2 0-.4.3-.7.7-.7.3 0 .7.3.7.7"/><path d="m10.8 56.1c0 .6-.5-.3-1.1-.3-.6 0-1.1.9-1.1.3s.6-1.1 1.1-1.1c.6 0 1.1.5 1.1 1.1"/><path d="m10.8 58.6c0 .3-.2 0-.5 0-.3 0-.5.3-.5 0 0-.3.2-.5.5-.5.3-.1.5.2.5.5"/><path d="m6.1 54.3c0 .4-.3-.2-.7-.2-.4 0-.7.6-.7.2s.3-.7.7-.7c.4 0 .7.3.7.7"/></g></svg>