<?xml version="1.0" encoding="utf-8"?>
<!-- Generator: Adobe Illustrator 25.2.3, SVG Export Plug-In . SVG Version: 6.00 Build 0)  -->
<svg version="1.1" id="Layer_2" xmlns="http://www.w3.org/2000/svg" xmlns:xlink="http://www.w3.org/1999/xlink" x="0px" y="0px"
	 viewBox="0 0 128 128" style="enable-background:new 0 0 128 128;" xml:space="preserve">
<path style="fill:#546F7A;" d="M40.46,35.24c0,0-3.86-3.45-6.56-6.09c-4.12-4.03-4.95-5.41-4.86-6.25c0.09-0.84,7.76,1.19,7.76,1.19
	l16.5-8.44l23.06-0.75l17.16,8.91l4.65-0.93c0,0-0.71,1.96-3.33,4.77c-2.46,2.63-7.31,8.34-7.31,8.34L40.46,35.24z"/>
<path style="fill:#546F7A;" d="M63.64,45.3l-20.05,0.35L25.74,47.8c0,0-7.87-1.41-7.87-0.75c0,0.66,0.94,1.87,2.53,3.66
	c1.59,1.78,10.22,10.12,10.22,10.12l2.16,6.09l20.34,4.78l41.81-2.72l0.94-7.87c0,0,5.72-5.62,7.59-7.22s5.01-4.4,5.57-5.25
	c0.56-0.84,0.38-1.79,0.38-1.79l-11.29,1.41L65.7,45.58L63.64,45.3z"/>
<path style="fill:#546F7A;" d="M28.27,71.71L10.37,76.4l-7.59-0.47c0,0-0.02,1.42,1.83,3.25c2.72,2.69,8.86,8.28,9.8,9.03
	c0.94,0.75,1.41,1.12,2.44,1.12c1.03,0,92.69,2.21,93.25,2.02c0.56-0.19,5.12-4.37,7.94-6.86c1.56-1.38,6.3-5.05,6.45-6.5
	c0.12-1.15-0.22-1.42-0.22-1.42l-11.52,0.58l-33.37-4.41L28.27,71.71z"/>
<polygon style="fill:#73A0A2;" points="16.21,81.25 16.27,97.11 65.02,97.49 110.39,97.02 110.39,81.93 "/>
<polygon style="fill:#73A0A2;" points="30.15,66.93 30.24,52.96 96.14,52.86 96.33,66.93 59.49,70.49 "/>
<polygon style="fill:#73A0A2;" points="39.83,28.76 39.91,41.51 63.52,43.25 87.61,41.52 87.61,28.86 "/>
<path style="fill:#B9CED3;" d="M46.79,30.3l1.8-1.51c0,0,1.34,0.06,1.92-0.31c0.58-0.36,5.2-5.94,6.29-6.38
	c0.89-0.36,13.69-0.2,14.42,0.09c0.73,0.29,5.46,5.59,6.6,6.34c0.68,0.45,1.93,0.4,1.93,0.4l2.24,1.81L46.79,30.3z"/>
<polygon style="fill:#B9CED3;" points="34.21,55.11 64.39,58.01 92.61,54.81 92.64,52.87 34.22,52.94 "/>
<polygon style="fill:#FFFFFF;" points="20.31,81.27 20.31,96.98 106.42,97.62 106.31,81.91 "/>
<path style="fill:#BCCED2;" d="M15.29,97.94c0,0-0.21-1.18,0.85-1.5s92.77,0.37,93.53,0.41c1.82,0.11,1.44,1.62,1.44,1.62l-50,1.29
	L15.29,97.94z"/>
<polygon style="fill:#FFFFFF;" points="34.2,67.17 34.21,55.11 92.61,54.81 92.42,69.84 "/>
<polygon style="fill:#FFFFFF;" points="43.82,41.32 43.72,28.77 83.57,28.87 83.56,41.43 "/>
<path style="fill:#385661;" d="M29.39,23.59c0,0,4.7,2.56,7.26,2.78c2.56,0.21,10.47,0.43,11.75-0.21s5.56-6.3,7.05-7.05
	c1.5-0.75,15.28-0.63,16.95-0.01c1.36,0.5,6.13,6.53,7.3,6.96c1.18,0.43,12.93,0.22,14.42-0.21c2.06-0.6,3.25-1.54,3.89-2.68
	c0.53-0.96-0.26-1.7-1.22-1.59c-0.96,0.11-4.7,0.96-8.01-2.14c-3.31-3.1-6.2-9.61-6.2-9.61H44.14c0,0-1.71,6.94-3.63,8.97
	c-1.92,2.03-3.53,3.31-5.56,3.2c-1.82-0.1-2.59-0.49-3.53-0.75C29.5,20.7,28.47,22.88,29.39,23.59z"/>
<path style="fill:#385661;" d="M35.06,40.25c-0.48,0.4-3.25,4.51-8.12,5.46c-4.38,0.85-6.52-1.3-8.44-0.44
	c-0.98,0.43-0.63,1.78-0.63,1.78S20.48,49.7,26,50.1c1.63,0.12,32.34,0.73,37.79,0.52s39.89-0.12,41.28-0.31
	c1.98-0.27,3.91-2.58,4.23-2.9c0.32-0.32,0.19-1.48-1.41-1.9c-1.6-0.43-2.75,0.83-6.71,0.41c-4.82-0.52-6.84-5.56-7.37-5.56
	C93.28,40.36,35.7,39.72,35.06,40.25z"/>
<path style="fill:#546F7A;" d="M63.66,40.62c-2.07-0.11-9.34,10.56-15.67,15.87C40.72,62.58,34.2,67.17,34.2,67.17l31.41,4.17
	l29.27-3.85c0,0-10.9-6.84-16.45-11.86S66.32,40.77,63.66,40.62z"/>
<path style="fill:#FFFFFF;" d="M41.14,66.96c0,0,7.05-4.81,12.18-9.4s9.4-10.47,10.36-10.58s6.23,7.03,11.22,11.32
	C80.24,62.9,88.9,68.78,88.9,68.78l-25.85,2.14L41.14,66.96z"/>
<path style="fill:#B9CED3;" d="M46.68,67.36c0,0,3.37-1.86,7.83-6.08c2.79-2.64,5.99-5.43,5.99-5.43s1.35,1.69,3.07,1.69
	s3.19-1.64,3.19-1.64s4.84,4.44,7.41,6.55c2.93,2.41,8.19,5.86,8.19,5.86s-17.67,2.5-17.67,2.24S46.68,67.36,46.68,67.36z"/>
<path style="fill:#385661;" d="M18.3,66.06c-0.45,0.72-4.47,6.44-7.56,7.72s-5.72,0.26-6.8,0.56c-1.09,0.3-1.17,1.58-1.17,1.58
	s1.07,1.18,6.51,1.38c5.44,0.2,42.17,0.43,53.65,0.54s51.95,1.04,55.71,0.73c3.76-0.31,5.81-1.56,5.81-1.56s-0.23-1.58-1.9-1.58
	s-4.08,0.11-7.11-1.46c-3.03-1.56-6.71-6.78-8.28-7.3c-0.77-0.26-22.13,0.04-43.6-0.1C41.34,66.43,18.54,65.67,18.3,66.06z"/>
<path style="fill:#89837C;" d="M15.29,97.94c0,0-3.17,9.17-4.63,12.77c-1.77,4.38-5.42,11.89-5.42,11.89l3.96,1.36l103.59,0.83
	l10.22-3.03c0,0-4.69-6.68-8.03-13.56c-2.91-6-3.87-9.73-3.87-9.73L15.29,97.94z"/>
<polygon style="fill:#2F2F2F;" points="33.66,86.02 38.77,86.02 38.77,93.81 33.59,93.81 "/>
<path style="fill:#2F2F2F;" d="M42.1,86.02v7.86h4.65v-7.86C46.75,86.02,42.04,86.08,42.1,86.02z"/>
<polygon style="fill:#2F2F2F;" points="56.96,86.02 56.96,93.94 62.01,93.94 62.01,86.08 "/>
<rect x="65.08" y="86.02" style="fill:#2F2F2F;" width="4.71" height="7.92"/>
<rect x="80.53" y="86.08" style="fill:#2F2F2F;" width="4.84" height="7.79"/>
<polygon style="fill:#2F2F2F;" points="88.52,86.08 88.52,93.81 93.23,93.81 93.23,86.15 "/>
<path style="fill:#2F2F2F;" d="M57.69,60.35h2.64l-0.04,6.21l-2.66-0.03C57.63,66.53,57.74,60.29,57.69,60.35z"/>
<polygon style="fill:#2F2F2F;" points="62.27,60.35 62.28,66.59 65.03,66.59 65.02,60.4 "/>
<path style="fill:#2F2F2F;" d="M66.94,60.4h2.75l0.02,6.2h-2.75C66.96,66.6,67.05,60.51,66.94,60.4z"/>
<rect x="52.78" y="31.81" style="fill:#2F2F2F;" width="4.69" height="5.45"/>
<path style="fill:#2F2F2F;" d="M62.16,31.87h4.26v5.45h-4.32C62.11,37.31,62.27,31.87,62.16,31.87z"/>
<polygon style="fill:#2F2F2F;" points="70.96,31.87 75.16,31.87 75.16,37.26 70.85,37.26 "/>
<path style="fill:#FCC01E;" d="M79.34,9.81h1.74c0,0-0.24,1.1-0.5,1.73c-0.41,0.99-0.6,1.78-0.09,2.5c0.51,0.72,2.96,1.52,5.21-0.59
	c2.24-2.12,0.68-7.37,1.1-8.22s1.44-1.1,1.74-1.57s-0.42-2.58-2.58-2.63c-1.61-0.03-2.5,1.36-2.5,1.36s-1.2-1.59-2.46-1.4
	c-1.69,0.25-2.75,2.12-2.67,2.58s2.33,0.55,2.08,2.75C80.19,8.15,79.34,9.81,79.34,9.81z"/>
<path style="fill:#FCC01E;" d="M47.46,9.81h-1.82c0,0,0.04,2.46,0,3.43c-0.04,0.97-1.06,2.07-2.84,1.82
	c-2.16-0.3-2.92-2.29-2.8-5.12s1.2-3.74,0.72-4.87c-0.47-1.1-1.74-0.34-2.12-0.59c-0.57-0.38,0.21-3.08,2.63-3.25
	c2.09-0.15,2.71,1.43,2.71,1.43S45,1.07,46.91,1.42c2.24,0.42,2.67,2.8,2.33,3.13c-0.34,0.34-1.4-0.3-2.03,0.85
	C46.02,7.57,47.46,9.81,47.46,9.81z"/>
<path style="fill:#AFA59E;" d="M9.26,113.97c0,0,1.3,1.44,1.42,5.09c0.12,3.65-0.92,4.9-0.92,4.9s-3.81,0.08-4.72,0
	s-1.54-1.33-0.51-2.8C5.56,119.69,9.26,113.97,9.26,113.97z"/>
<path style="fill:#AFA59E;" d="M12.74,107.4c-0.33,0.77-0.2,2.22-0.08,3.25c0.12,1.03,0.08,2.18,1.03,2.93
	c0.95,0.75,2.3,0.87,4.84,0.79c2.54-0.08,3.13-0.2,3.61-1.03c0.48-0.83,0.36-4.56,0.44-5.27c0.08-0.71-2.8-2.89-3.29-3.05
	C18.69,104.82,13.41,105.81,12.74,107.4z"/>
<path style="fill:#AFA59E;" d="M12.83,104.9c0,0,5.74-1.11,5.82-2.1c0.1-1.19-1.39-1.86-2.02-2.46c-0.63-0.59-1.58-1.69-1.58-1.69
	L12.83,104.9z"/>
<path style="fill:#AFA59E;" d="M21.58,100.02c-0.56,0.52-0.95,2.42-0.04,4c0.9,1.57,1.94,2.42,3.49,2.46s1.9-3.01,2.18-4
	c0.28-0.99,0.51-1.76-1.19-2.26C23.88,99.59,22.01,99.63,21.58,100.02z"/>
<path style="fill:#AFA59E;" d="M16.67,97.93c0,0,0.87,1.43,2.3,1.47c1.43,0.04,2.46-1.43,2.46-1.43L16.67,97.93z"/>
<path style="fill:#AFA59E;" d="M28.97,98.01c0,0-0.17,1.22,0.39,2.06c0.56,0.83,0.36,1.98,2.18,2.14c1.82,0.16,5.95,0.36,6.82-0.12
	c0.56-0.31,0.54-4.02,0.54-4.02L28.97,98.01z"/>
<path style="fill:#AFA59E;" d="M34.27,103.2c-2.5,0.08-4.64,0.56-5.59,1.67c-0.95,1.11-1.47,2.42-2.46,3.89
	c-0.99,1.47-2.06,3.85-1.9,5.27c0.16,1.43,2.65,3.93,3.97,3.97c1.35,0.04,2.66-1.42,3.33-1.47c0.63-0.04,1.99,0.96,2.97,0.79
	c1.43-0.24,2.93-2.1,3.69-5.75c0.84-4.08,0.24-5.83,0.16-6.15C38.35,105.1,37.8,103.08,34.27,103.2z"/>
<path style="fill:#AFA59E;" d="M12.58,118.46c0.13,1.55,2.02,4.72,3.45,4.88c1.84,0.2,3.7-1.63,3.85-2.62
	c0.2-1.35-1.55-4.88-3.81-4.64C14.75,116.22,12.42,116.52,12.58,118.46z"/>
<path style="fill:#AFA59E;" d="M22.25,122.47c0.37,0.53,3.01-0.08,3.53-0.28c0.52-0.2,1.98-1.15,1.86-1.74s-2.22-2.34-3.37-2.22
	C23.13,118.34,21.7,121.67,22.25,122.47z"/>
<path style="fill:#AFA59E;" d="M28.78,124.11l9.3,0.08c0,0,1.27-0.46,1.42-1.53s-5.43-3.93-7.06-3.69
	c-1.63,0.24-2.66,1.23-3.09,2.46C28.92,122.67,28.78,124.11,28.78,124.11z"/>
<path style="fill:#AFA59E;" d="M38,118.03c-0.07,0.99,2.74,2.93,3.37,2.93s3.09-3.21,3.37-4.88c0.34-2.06-2.69-3.71-3.53-3.41
	C40.1,113.07,38.08,116.96,38,118.03z"/>
<path style="fill:#AFA59E;" d="M47.71,99.32c0,0.5-0.99,2.05-1.14,2.53c-0.16,0.48,0.59,3.97-0.36,4.44
	c-0.95,0.48-2.7-1.03-3.57-1.9c-0.87-0.87-2.26-2.26-2.34-2.78c-0.08-0.52,0.99-1.78,2.06-2.42c1.07-0.63,2.49-1.09,2.49-1.09
	L47,98.11C47,98.11,47.71,98.33,47.71,99.32z"/>
<path style="fill:#AFA59E;" d="M41.05,106.77c-0.49,0.34-0.67,2.54-0.36,3.33c0.32,0.79,1.78,1.82,2.46,1.74s2.06-1.74,2.02-2.97
	C45.13,107.64,41.8,106.25,41.05,106.77z"/>
<path style="fill:#AFA59E;" d="M44.97,112.16c0.04,0.75,1.51,2.82,1.98,2.93s2.14-0.91,2.62-1.11c0.48-0.2,2.7,0.16,3.29-0.59
	c0.59-0.75-0.71-3.25-1.11-3.93c-0.4-0.67-1.55-1.86-1.94-1.82s-2.22,0.75-2.93,1.39C46.16,109.66,44.94,111.44,44.97,112.16z"/>
<path style="fill:#AFA59E;" d="M52.67,98.24c-0.49-0.11-2.1,1.27-2.78,2.38s-1.55,2.18-1.31,3.01s4.54,3.19,6.26,0.99
	C57.62,101.1,53.18,98.36,52.67,98.24z"/>
<path style="fill:#AFA59E;" d="M56.93,98.18c0,0-0.3,0.42,0.3,1.17c0.59,0.75,1.7,3.45,3.33,3.37c1.63-0.08,3.09-1.67,3.81-2.54
	c0.71-0.87,0.79-1.97,0.79-1.97L56.93,98.18z"/>
<path style="fill:#AFA59E;" d="M53.78,108.35c-0.17,0.41,0.24,1.59,0.95,1.47c0.71-0.12,1.11-0.52,2.46-0.52
	c1.35,0,1.98,1.51,3.13,1.39c1.15-0.12,2.34-0.99,2.74-1.82c0.4-0.83,0.44-1.98,0.32-2.3s-2.1-1.63-4.2-1.51
	C57.07,105.18,54.33,107.04,53.78,108.35z"/>
<path style="fill:#AFA59E;" d="M56.16,112.12c-0.94,0.57-1.23,1.55-1.11,2.1c0.12,0.56-1.35,1.86-0.75,3.25
	c0.59,1.39,2.82,4.08,3.41,4.72c0.59,0.63,2.93,0.67,3.37,0.44c0.44-0.24,3.09-2.7,3.37-3.61c0.28-0.91-1.23-4-2.06-5.04
	C61.55,112.95,58.06,110.97,56.16,112.12z"/>
<path style="fill:#AFA59E;" d="M66.07,108.07c-0.94,0.47-2.42,2.78-2.54,3.57s0.52,2.74,1.82,2.26c1.31-0.48,2.58-2.34,2.97-2.7
	c0.4-0.36,2.5-1.77,2.5-2.62C70.83,107.48,66.55,107.84,66.07,108.07z"/>
<path style="fill:#AFA59E;" d="M68.09,99.19c-0.62,0.45-4.32,4.08-4.16,4.6c0.16,0.52,1.82,1.98,2.58,2.38
	c0.75,0.4,2.22,0.08,3.69,0.2c1.47,0.12,2.93,0.67,3.61,0.52c0.67-0.16,3.33-1.31,3.09-3.21c-0.24-1.9-3.93-3.81-5.71-4.24
	C69.4,98.99,68.53,98.87,68.09,99.19z"/>
<path style="fill:#AFA59E;" d="M73.67,98.26c0,0,1.01,1.36,2.63,2.47s3.13,1.39,4.16,0.71c1.03-0.67,2.54-3.13,2.54-3.13
	L73.67,98.26z"/>
<path style="fill:#AFA59E;" d="M81.3,102.48c-0.75,0-2.06,1.27-2.46,1.63c-0.4,0.36-0.79,0.91-0.52,1.35s2.62,0.63,3.13,0.12
	C81.97,105.06,82.09,102.48,81.3,102.48z"/>
<path style="fill:#AFA59E;" d="M83.24,103.79c0.26,1.14,3.89,3.13,5.08,2.82c1.19-0.32,3.17-2.82,3.21-3.53s-2.93-3.41-3.33-3.73
	c-0.4-0.32-3.25-0.4-3.49-0.04S82.96,102.6,83.24,103.79z"/>
<path style="fill:#AFA59E;" d="M75.66,109.38c-0.13,0.78,1.67,2.85,2.5,3.89s0.95,2.3,1.82,2.5c0.87,0.2,2.78-0.79,3.69-2.89
	c0.91-2.1,1.39-3.13,0.24-4.72c-1.15-1.59-3.57-1.19-4.48-0.99C78.52,107.36,75.86,108.23,75.66,109.38z"/>
<path style="fill:#AFA59E;" d="M92.56,99.83c-0.52,0.32-0.24,3.05,0.52,3.41c0.75,0.36,1.55,0.04,2.26-0.44
	c0.71-0.48,1.67-1.55,1.43-2.02C96.52,100.3,93.11,99.49,92.56,99.83z"/>
<path style="fill:#AFA59E;" d="M42.48,124.22c0,0,0.04-0.78,1.53-2.74s3.06-4.62,5.33-4.44s3.16,1.46,4.55,3.34
	c1.39,1.88,2.99,3.95,2.99,3.95L42.48,124.22z"/>
<path style="fill:#AFA59E;" d="M63.74,124.4c0,0,2.14-2.23,2.95-2.13c0.82,0.11,0.5,0.53,1.14,1c0.64,0.46,1.56,1.17,1.56,1.17
	L63.74,124.4z"/>
<path style="fill:#AFA59E;" d="M66.41,115.16c-0.77,0.69-0.81,3.05,0.21,4.48c1.32,1.85,3.88,3.73,5.08,4.27
	c1.21,0.53,2.49-1.35,2.42-2.42c-0.07-1.07-2.06-3.66-3.24-4.73S67.37,114.31,66.41,115.16z"/>
<path style="fill:#AFA59E;" d="M68.89,113.52c-0.01,0.44,3.03,2.97,3.82,3.82c0.8,0.85,2.97,2.68,4.25,2.5
	c1.27-0.19,1.86-1.43,1.59-2.63c-0.27-1.2-2.2-3.77-3.19-4.73c-0.98-0.96-2.34-1.62-3.05-1.59
	C71.6,110.92,68.92,112.51,68.89,113.52z"/>
<path style="fill:#AFA59E;" d="M82.78,116.84c-0.2,0.22-3.51,3.67-3.8,4.41c-0.29,0.74,0.03,2.68,0.16,2.95
	c0.13,0.27,0.28,0.33,0.28,0.33l1.41,0.01c0,0,1.58-2.11,2.43-3.17c0.85-1.06,1.33-2.26,1.25-2.6
	C84.43,118.41,83.02,116.58,82.78,116.84z"/>
<path style="fill:#AFA59E;" d="M85.68,121.28c-0.52-0.02-1.73,1.38-1.99,1.7c-0.27,0.32-1.06,1.57-1.06,1.57l5.41,0.04
	C88.03,124.59,86.53,121.3,85.68,121.28z"/>
<path style="fill:#AFA59E;" d="M85.07,114.37c-0.25,1.53,0.48,3.49,1.67,5.26c1.46,2.18,4.25,4.25,5.98,4.06
	c1.73-0.19,3.82-2.47,4.44-3.93c0.61-1.46,0.77-3.75-0.56-4.73c-1.33-0.98-2.5-0.61-3.24-1.06c-0.74-0.45-3.78-3.18-4.86-3.11
	C87.35,110.94,85.39,112.43,85.07,114.37z"/>
<path style="fill:#AFA59E;" d="M91.28,108.85c0.12,1.11,0.56,2.68,2.84,3.59c2.28,0.9,3.53,0.82,4.06,0.72
	c0.53-0.11,4.04-2.68,3.64-4.04c-0.4-1.35-0.82-1.89-2.9-1.97c-2.07-0.08-3.67-1.86-4.97-1.49
	C92.67,106.03,91.13,107.41,91.28,108.85z"/>
<path style="fill:#AFA59E;" d="M96.33,103.88c-0.09,1.25,1.57,1.23,2.76,1.22c1.13-0.01,3.27-1.98,3.48-3.69
	c0.08-0.61-1.44-1.29-2.26-1.41C99.41,99.87,96.38,103.14,96.33,103.88z"/>
<path style="fill:#AFA59E;" d="M102.75,98.42c0,0,0.76,1.15,2.32,1.87c1.57,0.72,2.36,1.43,3.37,0.98c1.01-0.45,1.86-2.82,1.86-2.82
	L102.75,98.42z"/>
<path style="fill:#AFA59E;" d="M102.81,104.92c0.11,1.38,1.12,3.16,1.49,3.43c0.37,0.27,3.16,0.37,3.67,0.21
	c0.5-0.16,1.73-2.71,1.91-3.05c0.19-0.35-0.21-1.89-0.58-2.07c-0.37-0.19-2.18-0.66-2.36-0.88c-0.19-0.21-1.59-0.64-1.94-0.45
	C104.65,102.29,102.71,103.64,102.81,104.92z"/>
<path style="fill:#AFA59E;" d="M113.14,104.12c0,0-1.17,2.15-2.26,3.42c-1.09,1.27-1.86,1.27-2.07,3s1.12,4.25,2.34,4.2
	s2.52-1.73,3.08-2.52c0.56-0.8,1.39-2.76,1.39-2.76s-1.02-2.05-1.31-2.69S113.14,104.12,113.14,104.12z"/>
<path style="fill:#AFA59E;" d="M101.06,112.88c-0.42,0.44-1.73,4.06-1.59,4.67c0.13,0.61,1.97,1.89,2.52,1.89s3.04-1.62,3.67-2.07
	c0.66-0.48,2.1-1.91,2.07-2.47c-0.03-0.56-1.2-4.46-2.39-4.62C104.14,110.12,101.7,112.22,101.06,112.88z"/>
<path style="fill:#AFA59E;" d="M101.47,124.7c0,0-1.25-2.76-2.9-2.84c-1.12-0.05-2.96,2.78-2.96,2.78L101.47,124.7z"/>
<path style="fill:#AFA59E;" d="M104,124.72c0,0-1.43-1.5-1.32-2.54c0.19-1.73,3.75-3.77,4.28-3.85c0.53-0.08,2.47,1.94,2.76,2.82
	c0.29,0.88,0.35,2.05-0.21,2.55c-0.56,0.5-1.35,1.06-1.35,1.06L104,124.72z"/>
<path style="fill:#AFA59E;" d="M110.2,117.66c0.13,0.76,0.9,2.39,2.34,2.66c1.43,0.27,3.82-0.37,5.23-0.77s2.75-1.56,2.75-1.56
	l-0.81-1.3c0,0-3.16-2.05-5.61-1.42C111.66,115.91,110.04,116.71,110.2,117.66z"/>
<path style="fill:#AFA59E;" d="M116.82,111.75c0,0-1.52,1.03-1.2,1.72c0.32,0.69,2.04,1.27,2.28,1.38s0.86,0.27,0.86,0.27
	L116.82,111.75z"/>
<path style="fill:#AFA59E;" d="M122.97,121.69c0,0-1.85-1.11-3.05-0.87c-1.2,0.24-4.83,1.41-5.76,1.94s-1.67,2.03-1.67,2.03
	s10.38,0.68,11.28-0.06C124.67,123.99,122.97,121.69,122.97,121.69z"/>
<path style="fill:#DCD2C7;" d="M13.63,108.75c0.15,0.81,1.38,0.96,2.69,1.7s1.88,1.52,3.26,1.38c1.38-0.14,1.42-1.91,1.35-2.83
	s-0.46-2.48-1.88-2.8C17.64,105.88,13.39,107.44,13.63,108.75z"/>
<path style="fill:#DCD2C7;" d="M26.99,109.53c-0.28,0.92,0.21,2.34,1.17,2.2s3.97-3.08,5.03-3.65c1.06-0.57,4.29-1.31,4.18-2.55
	s-3.7-1.73-4.85-1.31C31.34,104.64,27.53,107.76,26.99,109.53z"/>
<path style="fill:#DCD2C7;" d="M41.01,101.35c0.04,0.78,0.81,1.98,1.95,1.49s0.89-0.81,1.42-1.06c0.53-0.25,2.02-0.6,1.7-1.63
	s-2.13-1.03-3.22-0.57C41.75,100.04,40.98,100.64,41.01,101.35z"/>
<path style="fill:#DCD2C7;" d="M49.62,101.31c-0.28,1.14,1.42,1.28,2.27,1.17c0.85-0.11,2.59,0.18,2.44-1.06
	c-0.14-1.24-1.24-1.77-2.3-1.74C51.03,99.72,49.94,100,49.62,101.31z"/>
<path style="fill:#DCD2C7;" d="M46.22,112.08c0.37,0.58,1.31,0.6,3.08-0.67c1.77-1.28,2.51-1.59,1.81-2.51
	c-0.71-0.92-2.13-0.43-3.26,0.43C46.71,110.17,45.51,110.98,46.22,112.08z"/>
<path style="fill:#DCD2C7;" d="M57.2,106.91c-0.02,0.69,0.6,1.52,2.44,1.66s2.69-0.32,2.8-1.2s-0.89-1.42-2.3-1.63
	S57.23,105.85,57.2,106.91z"/>
<path style="fill:#DCD2C7;" d="M70.34,100.07c-0.67-0.03-3.19,1.81-3.75,2.48c-0.57,0.67-0.39,1.84,0.71,1.91
	c1.1,0.07,2.55,0.04,3.83,0.11c1.28,0.07,2.55,0.18,3.12,0.04c0.57-0.14,1.24-1.28,0.53-2.16
	C74.06,101.56,71.26,100.11,70.34,100.07z"/>
<path style="fill:#DCD2C7;" d="M56.84,112.79c-1.18,0.98-0.49,2.73,0.53,3.75c1.24,1.24,3.68,1.88,4.5,0.85
	c0.81-1.03,0.18-3.01-1.45-4.25C58.97,112.04,57.69,112.08,56.84,112.79z"/>
<path style="fill:#DCD2C7;" d="M70.05,113.11c0.1,0.74,0.5,1.38,2.2,1.31c1.7-0.07,2.13-1.1,1.95-1.84
	c-0.18-0.74-1.36-1.05-2.09-1.03C71.05,111.59,69.91,112.05,70.05,113.11z"/>
<path style="fill:#DCD2C7;" d="M77.28,110.1c0.77,0.77,1.81,0.74,2.41,1.1c0.6,0.35,0.43,1.42,1.84,1.06
	c1.42-0.35,2.41-1.13,2.16-2.34c-0.25-1.2-0.99-2.48-2.3-2.62c-1.31-0.14-3.54,0.46-3.97,1.03C77,108.89,76.92,109.74,77.28,110.1z"
	/>
<path style="fill:#DCD2C7;" d="M86.1,114.67c0.32,0.91,2.98,2.62,4.57,3.01s3.68,0.71,4.85,0.07c1.17-0.64,1.24-2.16,0.11-2.48
	c-1.13-0.32-2.69-0.11-3.19-0.46s-2.23-3.12-3.4-3.08C87.87,111.76,85.64,113.36,86.1,114.67z"/>
<path style="fill:#DCD2C7;" d="M93.15,107.94c-0.05,0.72,1.42,2.8,3.72,2.98c2.3,0.18,4.04-1.56,3.72-2.48
	c-0.32-0.92-2.3-0.92-3.36-1.1c-1.06-0.18-1.95-1.13-2.55-0.96S93.22,106.91,93.15,107.94z"/>
<path style="fill:#DCD2C7;" d="M84.96,100.43c-0.31,0.78-0.89,1.95,1.31,2.44c2.2,0.5,2.83,0.04,3.19-0.74s-0.71-1.45-1.98-2.02
	C86.2,99.54,85.18,99.9,84.96,100.43z"/>
<path style="fill:#DCD2C7;" d="M104.13,104.29c-0.09,1.09,1.06,1.74,2.3,1.74s1.88-0.67,1.95-1.49c0.07-0.81-0.89-1.56-2.02-1.59
	C105.22,102.91,104.23,103.05,104.13,104.29z"/>
</svg>
