<?xml version="1.0" encoding="utf-8"?>
<!-- Generator: Adobe Illustrator 25.2.3, SVG Export Plug-In . SVG Version: 6.00 Build 0)  -->
<svg version="1.1" id="Layer_2" xmlns="http://www.w3.org/2000/svg" xmlns:xlink="http://www.w3.org/1999/xlink" x="0px" y="0px"
	 viewBox="0 0 128 128" style="enable-background:new 0 0 128 128;" xml:space="preserve">
<path style="fill:#CDDFEE;" d="M64.64,3.84C62.97,4.04,10.92,38.94,10.62,40c-0.3,1.07-0.42,12.19-0.42,12.19l6.71,2.13l0.03,8.84
	l3.59,7.35v31.07l-2.68,5.85l-7.35,2.17v5.26l-5.76,1.75c0,0,0.08,4.51,0.08,5.26c0,0.75,0.25,2.34,3.26,2.34
	s112.87-0.51,113.98-0.51s2.26-0.22,2.32-2.21s-0.06-4.8-0.06-4.8l-5.58-2.76l-0.02-4.41l-9.08-2.8l-2.19-6.2l0.03-29.21l3.48-7.34
	l1.05-1.99v-7.9l5.85-2.21c0,0,0.11-11.43-0.06-11.76C117.65,39.79,66.02,3.68,64.64,3.84z"/>
<path style="fill:#94ADBC;" d="M15.33,42.32c-0.31,0.77-0.39,6.45-0.11,6.73c0.28,0.28,96.94,0.13,97.27-0.14
	c0.33-0.27,0.38-6.44,0.22-6.82S85.3,23.1,85.3,23.1l-42.13,0.21C43.16,23.31,15.51,41.86,15.33,42.32z"/>
<path style="fill:#94ADBC;" d="M4.74,116.63c-0.09-0.22,0-1.26,0-1.68s0.4-0.9,1.3-0.9s115.14-0.16,115.7-0.14
	c1.41,0.05,2.36,0.35,2.5,1.25c0.14,0.9,0.09,1.55,0.09,1.55L4.74,116.63z"/>
<path style="fill:#94ADBC;" d="M118.73,109.53l-108.22,0.08c0,0,0.04-1.11,0.04-1.49c0-0.38,0.2-1,1.49-1s103.92-0.39,104.8-0.39
	s1.84,0.41,1.96,1.02S118.73,109.53,118.73,109.53z"/>
<polygon style="fill:#94ADBC;" points="108.26,102.83 107.46,100.49 20.51,100.47 19.86,103.08 "/>
<polygon style="fill:#94ADBC;" points="19.51,68.38 108.77,68.69 107.49,71.31 20.54,71.64 "/>
<path style="fill:#94ADBC;" d="M17.56,64.7c0,0-0.79-0.57-0.92-1.32c-0.13-0.75,0.22-1.19,0.22-1.19l95.16-0.21
	c0,0,0.36,0.74,0.05,1.26c-0.31,0.53-1.19,1.01-1.19,1.01L17.56,64.7z"/>
<path style="fill:#94ADBC;" d="M10.2,52.19l107.67-0.32c0,0,0.07,1.03,0,1.46c-0.06,0.43-0.62,0.81-2.05,0.81c-1.43,0-1.43,0-1.43,0
	s-100.79,0.5-101.91,0.5s-1.92-0.62-2.11-1.12C10.26,53.19,10.2,52.19,10.2,52.19z"/>
<polygon style="fill:#657582;" points="18.01,45.03 40.66,29.74 42.18,45.33 "/>
<polygon style="fill:#657582;" points="87.55,29.23 110.23,45.23 86.94,45.23 "/>
<polygon style="fill:#54636E;" points="33.41,64.63 37.14,64.62 40.06,71.63 39.79,100.49 37.36,107.03 33.02,107.04 30.63,100.53 
	30.52,71.57 "/>
<polygon style="fill:#54636E;" points="53.27,64.53 49.56,71.47 49.84,100.49 52.04,106.98 76.27,106.88 78.45,100.49 78.51,71.41 
	75.68,64.42 "/>
<polygon style="fill:#54636E;" points="91.37,64.35 94.66,64.33 97.57,71.34 97.56,100.5 95.87,106.82 90.38,106.83 88.7,100.5 
	88.57,71.37 "/>
<polygon style="fill:#6BA4AE;" points="54.62,106.97 54.62,84.72 74.14,84.91 74.18,106.91 "/>
<polygon style="fill:#A5D0D7;" points="63.26,83.71 63.25,106.94 65.27,106.93 65.27,84.05 "/>
<path style="fill:#95ACBC;" d="M54.62,85.78V80.2h19.52v5.58C74.14,85.78,54.79,85.61,54.62,85.78z"/>
<path style="fill:#CCDEED;" d="M54.62,80.2h19.52c0,0,0.08-1.74-1.73-1.91s-15.11-0.03-16.23,0C54.51,78.34,54.62,80.2,54.62,80.2z"
	/>
<path style="fill:#CDDFEE;" d="M64.39,11.11C49.9,11.2,38.43,22.66,38.92,37.15S52.7,61.83,64.39,61.74
	c12.27-0.09,25.19-8.87,25.77-24.67C90.75,21.28,77.45,11.02,64.39,11.11z"/>
<path style="fill:#94ADBC;" d="M64.48,14.58c-12.13,0.08-21.84,10.03-21.43,22.65c0.4,12.62,11.08,20.62,20.87,20.71
	c11.29,0.1,21.68-7.28,22.16-21.03S75.41,14.51,64.48,14.58z"/>
<path style="fill:#024FAC;" d="M60.98,21.63c0,0-0.22-3.86,0.05-4.19c0.27-0.33,1.37-0.33,3.5-0.33c2.14,0,3.01,0,3.34,0.27
	s0.16,4.49,0.16,4.49s2.9,1.09,4.71,2.49c1.92,1.48,3.29,3.45,3.18,3.78c-0.11,0.33-3.94,3.67-4.49,3.56
	c-0.55-0.11-3.67-3.76-7.39-4c-5.91-0.38-5.86,4.22-2.19,5.48c3.67,1.26,15.24,2.26,14.79,11.47c-0.38,7.75-8.21,8.3-8.21,8.3
	s0.22,2.9,0,3.07s-7.12,0.27-7.34-0.05s-0.05-3.29-0.05-3.29s-3.07-0.6-5.59-2.3c-2.52-1.7-4.33-3.94-4.38-4.22
	c-0.05-0.27,4.44-4.05,4.76-4.16s4.89,4.39,9.2,4.76c4.38,0.38,6.24-3.94,0.16-5.8c-6.08-1.86-13.25-3.45-12.92-11.06
	C52.6,22.17,60.98,21.63,60.98,21.63z"/>
</svg>
