<svg xmlns="http://www.w3.org/2000/svg" viewBox="0 0 36 36"><path fill="#CCD6DD" d="M0 9v25a2 2 0 0 0 2 2h32a2 2 0 0 0 2-2V9H0Z"/><path fill="#99AAB5" d="M34 7H2a2 2 0 0 0-2 2h36a2 2 0 0 0-2-2Z"/><path fill="#55ACEE" d="M2 18h32v4H2v-4Zm0-6h32v4H2v-4Zm0 12h32v4H2v-4Z"/><path fill="#55ACEE" d="M34 24H2v4h32v-4Z"/><path fill="#E1E8ED" d="M8 2h20v34H8V2Z"/><path fill="#55ACEE" d="M10 20h16v4H10v-4Zm0-6h16v4H10v-4Zm0 12h16v4H10v-4Z"/><path fill="#3B88C3" d="M13 32h10v4H13v-4Z"/><path fill="#DD2E44" d="M22 6.5v3h-2.5V12h-3V9.5H14v-3h2.5V4h3v2.5H22Zm-4.5 1H15v1h2.5V11h1V8.5H21v-1h-2.5V5h-1v2.5Z"/><path fill="#99AAB5" d="M26 0H10a2 2 0 0 0-2 2h20a2 2 0 0 0-2-2Z"/></svg>