<svg xmlns="http://www.w3.org/2000/svg" viewBox="0 0 64 64" enable-background="new 0 0 64 64"><path d="m32 6.1c-11 0-20 4.6-20 10.4v31.1c0 5.7 9 10.4 20 10.4 11 0 20-4.6 20-10.4v-31.1c0-5.7-9-10.4-20-10.4" fill="#ba0028"/><path d="m32 6.1c-7.6 0-13.8 4.6-13.8 10.4v31.1c0 5.7 6.2 10.4 13.8 10.4s13.8-4.6 13.8-10.4v-31.1c0-5.7-6.2-10.4-13.8-10.4" fill="#ff2449"/><path d="m32 9c-2.9 0-5.3 4.1-5.3 9.2v27.6c0 5.1 2.4 9.2 5.3 9.2s5.3-4.1 5.3-9.2v-27.6c0-5.1-2.4-9.2-5.3-9.2" fill="#ff503e"/><g fill="#3e4347"><path d="m42 7.5v-4.1c-2.9-.9-6.4-1.4-10-1.4s-7.1.5-10 1.4v4.1c2.9-.9 6.4-1.4 10-1.4s7.1.5 10 1.4"/><path d="m22 56.5v4.1c2.9.9 6.4 1.4 10 1.4s7.1-.5 10-1.4v-4.1c-2.9.9-6.4 1.4-10 1.4s-7.1-.5-10-1.4"/></g><g fill="#ff7e27"><path d="m12 32c6.7-.6 13.3-.7 20-.8 6.7 0 13.3.2 20 .8-6.7.6-13.3.7-20 .8-6.7-.1-13.3-.2-20-.8"/><path d="m15.1 53c2.8.4 5.6.7 8.4.9 2.8.2 5.6.3 8.4.3 2.8 0 5.6-.1 8.4-.3 2.8-.2 5.6-.5 8.4-.9-2.7 1-5.5 1.7-8.3 2.1-2.8.4-5.7.6-8.6.7-2.9 0-5.7-.2-8.6-.6-2.6-.5-5.4-1.2-8.1-2.2"/><path d="m12.1 48.6c3.3.5 6.6.7 10 .9 3.3.2 6.6.3 10 .3 3.3 0 6.6-.1 10-.3 3.3-.2 6.6-.5 10-.9-3.2 1-6.5 1.7-9.8 2.1-3.3.4-6.7.6-10.1.7-3.4 0-6.7-.2-10.1-.6-3.5-.5-6.8-1.2-10-2.2"/><path d="m12.1 44.3c3.3.4 6.7.6 10 .7 3.3.2 6.6.3 9.9.2 3.3 0 6.6-.1 10-.2 3.3-.2 6.6-.4 10-.7-3.2.9-6.5 1.5-9.9 1.9-3.3.4-6.7.6-10 .6-3.4 0-6.7-.2-10-.6-3.5-.4-6.8-1-10-1.9"/><path d="m12.2 40.1c3.3.2 6.7.4 10 .5 3.3.1 6.6.2 9.9.2 3.3 0 6.6-.1 9.9-.2 3.3-.1 6.6-.3 10-.5-3.2.8-6.6 1.3-9.9 1.7-3.3.3-6.7.5-10 .5-3.4 0-6.7-.2-10-.5-3.4-.4-6.7-.9-9.9-1.7"/><path d="m12.1 35.9l10 .1c3.3 0 6.6.1 9.9 0 3.3 0 6.6 0 9.9-.1l10-.1c-3.3.6-6.6 1-9.9 1.3-3.3.3-6.7.4-10 .4-3.3 0-6.7-.1-10-.4-3.3-.1-6.6-.5-9.9-1.2"/><path d="m48.9 11c-2.8-.4-5.6-.7-8.4-.9-2.8-.2-5.6-.3-8.4-.3-2.8 0-5.6.1-8.4.3-2.8.2-5.6.5-8.4.9 2.7-1 5.5-1.7 8.3-2.1 2.8-.4 5.7-.6 8.6-.7 2.9 0 5.7.2 8.6.6 2.6.5 5.4 1.2 8.1 2.2"/><path d="m52 15.4c-3.3-.5-6.6-.7-10-.9-3.3-.2-6.6-.3-10-.3-3.3 0-6.6.1-10 .3-3.3.2-6.6.5-10 .9 3.2-1 6.5-1.7 9.8-2.1 3.3-.4 6.7-.6 10.1-.6 3.4 0 6.7.2 10.1.6 3.4.4 6.8 1.1 10 2.1"/><path d="m52 19.7c-3.3-.4-6.7-.6-10-.7-3.3-.2-6.6-.3-9.9-.2-3.3 0-6.6.1-10 .2-3.3.2-6.6.4-10 .7 3.2-.9 6.5-1.5 9.9-1.9 3.3-.4 6.7-.6 10-.6 3.4 0 6.7.2 10 .6 3.4.4 6.7 1 10 1.9"/><path d="m51.9 23.9c-3.3-.2-6.7-.4-10-.5-3.3-.1-6.6-.2-9.9-.2-3.3 0-6.6.1-9.9.2-3.3.1-6.6.3-10 .5 3.2-.8 6.6-1.3 9.9-1.7 3.3-.3 6.7-.5 10-.5 3.3 0 6.7.2 10 .5 3.3.4 6.6.9 9.9 1.7"/><path d="m52 28.1l-10-.1c-3.3 0-6.6-.1-9.9 0-3.3 0-6.6 0-9.9.1l-10 .1c3.3-.6 6.6-1 9.9-1.3 3.3-.3 6.7-.4 10-.4 3.3 0 6.7.1 10 .4 3.3.1 6.6.5 9.9 1.2"/></g></svg>