<?xml version="1.0" encoding="utf-8"?>
<!-- Generator: Adobe Illustrator 25.2.3, SVG Export Plug-In . SVG Version: 6.00 Build 0)  -->
<svg version="1.1" id="Layer_2" xmlns="http://www.w3.org/2000/svg" xmlns:xlink="http://www.w3.org/1999/xlink" x="0px" y="0px"
	 viewBox="0 0 128 128" style="enable-background:new 0 0 128 128;" xml:space="preserve">
<path style="fill:#C8C8C8;" d="M7.26,32.16c0,0-3.57-5.64-4.27-7.15c-0.9-1.94,0.09-2.41,3.45-2.43c2.15-0.01,22.8,0,22.8,0h18.68
	c0,0-0.14-6.72,0-7.08c0.14-0.35,31.57-0.07,31.71,0c0.14,0.07,0.07,7.08,0.07,7.08h18.6c0,0,23.46,0,24.45,0
	c0.99,0,2.02,0.91,1.15,2.64s-3.29,5.07-3.29,5.07l-0.27,87.63l-6.95,3.88l-100.77-0.4l-5.35-3.07L7.26,32.16z"/>
<polygon style="fill:#E1E1E1;" points="28.96,119.32 28.96,29.81 61.9,24.79 98.24,30.1 98.24,119.32 64.12,121.09 "/>
<polygon style="fill:#9A9A9A;" points="28.97,22.57 98.29,22.58 98.24,30.1 28.96,29.81 "/>
<path style="fill:#9A9A9A;" d="M7.27,118.33l39.99-0.27c0,0-0.05-30.91,0-32.15c0.03-0.9,0.25-1.64,1.4-1.72s27.82-0.08,28.81-0.08
	c0.98,0,1.72,0.57,1.72,1.97c0,1.4,0,31.93,0,31.93s41.17-0.38,41.15-0.07c-0.03,0.31,0.05,4.58,0.05,5.16c0,0.57-0.25,1.4-1.81,1.4
	s-109.32,0-109.98,0c-0.66,0-1.31-0.66-1.31-1.48S7.27,118.33,7.27,118.33z"/>
<rect x="54.73" y="32.93" style="fill:#6CA4AB;" width="17.96" height="10.64"/>
<rect x="54.64" y="50.21" style="fill:#6CA4AB;" width="18.14" height="10.22"/>
<rect x="54.47" y="67.5" style="fill:#6CA4AB;" width="18.31" height="10.98"/>
<path style="fill:#6CA4AB;" d="M81.72,33.27c-0.09,0.26,0,10.56,0,10.56l10.96-0.03c0,0,0.15-10.4-0.06-10.61
	S81.8,33.01,81.72,33.27z"/>
<polygon style="fill:#6CA4AB;" points="81.89,49.87 81.97,60.34 92.36,60.26 92.53,50.04 "/>
<path style="fill:#6CA4AB;" d="M82.4,67.58c0,0-0.26,10.13-0.09,10.39s10.05,0.26,10.39,0c0.34-0.26,0-10.3,0-10.3L82.4,67.58z"/>
<path style="fill:#6CA4AB;" d="M82.45,84.49l0.08,10.53c0,0,9.81,0.23,10.04,0s0.46-10.3,0.15-10.53
	C92.41,84.26,82.45,84.49,82.45,84.49z"/>
<path style="fill:#6CA4AB;" d="M82.73,101.64l0.14,10.46c0,0,9.67,0.08,9.88-0.07s0.22-10.01,0.08-10.31S82.73,101.64,82.73,101.64z
	"/>
<path style="fill:#6CA4AB;" d="M104.48,111.94c0.12,0.15,10.43,0.15,10.43,0.15s0.32-10.3-0.05-10.45
	c-0.27-0.12-10.47-0.27-10.61-0.15C103.93,101.78,104.39,111.83,104.48,111.94z"/>
<path style="fill:#6CA4AB;" d="M104.33,85.01c-0.16,0.4-0.3,10.53-0.08,10.61c0.23,0.08,10.08,0.15,10.38,0
	c0.3-0.15,0.53-10.23,0.23-10.46S104.48,84.64,104.33,85.01z"/>
<path style="fill:#6CA4AB;" d="M104.11,78.32c0.27,0.34,10,0.3,10.3,0.15c0.3-0.15,0.15-9.93-0.08-10.3s-10-0.15-10.23,0.08
	S103.81,77.94,104.11,78.32z"/>
<path style="fill:#6CA4AB;" d="M104.41,50.79c-0.19,0.38,0,9.78,0.15,10.08c0.15,0.3,9.93,0.3,10.08,0.08
	c0.15-0.23,0.23-9.85,0.08-10.08C114.56,50.64,104.56,50.49,104.41,50.79z"/>
<path style="fill:#6CA4AB;" d="M104.63,43.72c0.27,0.27,10.08,0.08,10.3,0c0.23-0.08,0.15-10,0.08-10.38
	c-0.08-0.38-10.15-0.15-10.46,0C104.26,33.49,104.26,43.34,104.63,43.72z"/>
<path style="fill:#6CA4AB;" d="M33.85,32.9c-0.09,0.26,0,10.56,0,10.56l10.9-0.17c0,0,0.21-10.26,0-10.47
	C44.54,32.6,33.94,32.64,33.85,32.9z"/>
<path style="fill:#6CA4AB;" d="M34.1,50.17c0,0-0.27,10.21,0.07,10.38c0.34,0.17,10.1,0.26,10.44,0c0.34-0.26,0.06-10.48,0.06-10.48
	L34.1,50.17z"/>
<path style="fill:#6CA4AB;" d="M34.27,67.6c-0.19,0.14-0.26,10.13-0.09,10.39c0.17,0.26,10.05,0.26,10.39,0
	c0.34-0.26,0.26-10.05,0-10.3S34.61,67.35,34.27,67.6z"/>
<path style="fill:#6CA4AB;" d="M33.93,84.64c-0.27,0.27-0.15,10.3,0.08,10.53s10.04,0,10.04,0l0.15-10.53
	C44.2,84.64,34.23,84.34,33.93,84.64z"/>
<polygon style="fill:#6CA4AB;" points="33.99,101.37 33.99,111.92 43.81,111.83 44.03,101.45 "/>
<path style="fill:#6CA4AB;" d="M12.86,111.83l10.3-0.08l0.07-10.48c0,0-10.38-0.27-10.6,0.11
	C12.41,101.75,12.86,111.83,12.86,111.83z"/>
<path style="fill:#6CA4AB;" d="M12.71,84.9c-0.16,0.4-0.3,10.53-0.08,10.61c0.23,0.08,10.08,0.15,10.38,0
	c0.3-0.15,0.53-10.23,0.23-10.46S12.86,84.52,12.71,84.9z"/>
<path style="fill:#6CA4AB;" d="M12.48,78.21c0.27,0.34,10,0.3,10.3,0.15c0.3-0.15,0.15-9.93-0.08-10.3
	c-0.23-0.38-10-0.15-10.23,0.08C12.26,68.35,12.18,77.83,12.48,78.21z"/>
<path style="fill:#6CA4AB;" d="M12.78,50.68c-0.19,0.38,0,9.78,0.15,10.08c0.15,0.3,9.93,0.3,10.08,0.08
	c0.15-0.23,0.23-9.85,0.08-10.08C22.94,50.53,12.93,50.38,12.78,50.68z"/>
<path style="fill:#6CA4AB;" d="M13.01,43.61c0.27,0.27,10.08,0.08,10.3,0c0.23-0.08,0.15-10,0.08-10.38s-10.15-0.15-10.46,0
	C12.63,33.38,12.63,43.23,13.01,43.61z"/>
<path style="fill:#E1E1E1;" d="M51.76,118.36c-0.07-0.07-0.21-19.97,0.07-20.33c0.29-0.36,22.84-0.14,23.05,0.07
	s0.14,20.12,0.07,20.26S51.76,118.36,51.76,118.36z"/>
<rect x="53.88" y="99.97" style="fill:#536F7B;" width="8.47" height="16.66"/>
<rect x="64.53" y="99.94" style="fill:#536F7B;" width="8.65" height="16.66"/>
</svg>
