<svg xmlns="http://www.w3.org/2000/svg" viewBox="0 0 64 64" enable-background="new 0 0 64 64"><path fill="#b2c1c0" d="m56 48h-48l-8 16h64z"/><g fill="#f9f3d9"><path d="m8 40h48v8h-48z"/><path d="m13 24h38v8h-38z"/><path d="m18 8h28v8h-28z"/></g><g fill="#d33b23"><path d="M18,16c0,2.2-4.7,4-8,4c-3,0-5-1-5-1c0,2.2,2.9,5,6.5,5H32v-8H18z"/><path d="M13,32c0,2.2-4.7,4-8,4c-3,0-5-1-5-1c0,2.2,2.9,5,6.5,5H32v-8H13z"/><path d="M51,32c0,2.2,4.7,4,8,4c3,0,5-1,5-1c0,2.2-2.9,5-6.5,5H32v-8H51z"/><path d="M46,16c0,2.2,4.7,4,8,4c3,0,5-1,5-1c0,2.2-2.9,5-6.5,5H32v-8H46z"/><path d="M41,0c0,2.2,4.7,4,8,4c3,0,5-1,5-1c0,2.2-2.9,5-6.5,5H32V0H41z"/><path d="M23,0c0,2.2-4.7,4-8,4c-3,0-5-1-5-1c0,2.2,2.9,5,6.5,5H32V0H23z"/></g><g fill="#3e4347"><path d="m24 26h1v4h-1z"/><path d="m27 26h1v4h-1z"/><path d="m36 26h1v4h-1z"/><path d="m30 26h1v4h-1z"/><path d="m33 26h1v4h-1z"/><path d="m25.5 42h1v4h-1z"/><path d="m19.5 42h1v4h-1z"/><path d="m22.5 42h1v4h-1z"/><path d="m28.5 42h1v4h-1z"/><path d="m26 10h2v4h-2z"/><path d="m36 10h2v4h-2z"/><path d="m31 10h2v4h-2z"/></g><g fill="#fed0ac"><path d="m8 40h8v8h-8z"/><path d="m48 40h8v8h-8z"/><path d="m13 24h8v8h-8z"/><path d="m43 24h8v8h-8z"/></g><g fill="#3e4347"><path d="m51 42h2v4h-2z"/><path d="m11 42h2v4h-2z"/></g><path fill="#f15744" d="m32 16l-11 8h22z"/><g fill="#d3976e"><path d="m18 8h28v2h-28z"/><path d="m21 24h22.1v2h-22.1z"/></g><g fill="#3e4347"><path d="m46 26h2v4h-2z"/><path d="m16 26h2v4h-2z"/></g><path fill="#d3976e" d="m16 40h32v2h-32z"/><g fill="#89664c"><path d="m8 40h8v2h-8z"/><path d="m48 40h8v2h-8z"/><path d="m13 24h8v2h-8z"/><path d="m43 24h8v2h-8z"/></g><path fill="#fed0ac" d="M40.1 24 32 18.1 23.9 24z"/><g fill="#3e4347"><path d="m26.5 24h11l-5.5-4z"/><path d="m37.5 42h1v4h-1z"/><path d="m31.5 42h1v4h-1z"/><path d="m34.5 42h1v4h-1z"/><path d="m40.5 42h1v4h-1z"/><path d="m43.5 42h1v4h-1z"/></g><path d="m41 36c-2.7-1.7-3.2-4-9-4-5.8 0-6.6 2.4-9 4-6.1 4-12.2 4-13 4h44c-.8 0-6.7 0-13-4" fill="#f15744"/><path d="m39.1 37c-1.9-1.3-2.9-3-7.1-3-4.2 0-5.3 1.8-7.1 3-4.4 3-8.3 3-8.9 3h32c-.6 0-4.3 0-8.9-3" fill="#fed0ac"/><g fill="#3e4347"><path d="m37.3 38c-1.2-.8-2.7-2-5.3-2-2.6 0-4.2 1.2-5.3 2-2.8 2-4.3 2-4.7 2h20c-.3 0-1.9 0-4.7-2"/><path d="m39 26h1v4h-1z"/></g><path d="m37.7 5c-1.7-1.3-2-3-5.7-3-3.7 0-4.2 1.8-5.7 3-3.9 3-7.8 3-8.3 3h28c-.5 0-4.3 0-8.3-3" fill="#f15744"/><path d="m36.5 5.8c-1.2-.9-1.8-2.2-4.5-2.2-2.7 0-3.4 1.4-4.5 2.2-2.9 2.2-5.3 2.2-5.7 2.2h20.4c-.4 0-2.8 0-5.7-2.2" fill="#fed0ac"/><path d="m35.3 6.5c-.5-.4-1.1-1.1-2-1.3-.4 0-1.3.2-1.3 1.3 0-1.2-1-1.3-1.4-1.3-.9.2-1.5.9-2 1.3-1.8 1.5-2.7 1.5-3 1.5h12.8c-.3 0-1.2 0-3.1-1.5" fill="#3e4347"/><g fill="#62727a"><path opacity=".5" d="m28.5 51.5h-7l-2-3.5h7z"/><path opacity=".5" d="m17.5 55.5h-6.7l-1-3h6.7z"/><path opacity=".5" d="m27.5 60.1h-4l-3-4.1h10z"/><path opacity=".5" d="m47 56h-6l-2-4.1h10z"/><path opacity=".5" d="m8.1 64h8.9l2.1-3.9h-8.9z"/><path opacity=".5" d="m43 64h-8.1l-1.9-3.9h8.1z"/><path opacity=".5" d="m54 60.1h8l-2-4.1h-8z"/></g><g fill="#e8e8e8"><path opacity=".5" d="m57.1 64h-7.8l1.5-4h8.5z"/><path opacity=".5" d="m16 60h-10.5l2.5-4h6z"/><path opacity=".5" d="m36 60h-8.5l2.5-4h8z"/><path opacity=".5" d="m43 52h-8.5l2.5-4h8z"/><path d="m53.2 59.5h-6.9l-1.6-3h6.9l1.6 3m-32.4-3l1.6 3h-6l-1.6-3h6m1 0h7.5l-1.6 3h-4.2l-1.7-3m8.4 0h7l-1.6 3h-7l1.6-3m8 0h5.5l1.6 3h-8.8l1.7-3m16.6-4l1.7 3h-9l1.7-3h5.6m-6.6 0l-1.7 3h-5l-1.7-3h8.4m-9.4 0l1.7 3h-6l-1.7-3h6m-7 0l1.7 3h-10l1.7-3h6.6m-7.6 0l-1.7 3h-4l-1.7-3h7.4m-14.4 0h6l1.7 3h-6l-1.7-3m-1.6 4h5.5l1.6 3h-8.7l1.6-3m54 4l-.5-1h-7.5l-1.6-3h7.6l-.5-1h-2.2l-1.7-3h2.5l-.5-1h-4.2l-2-3.5h-1l2 3.5h-9l2-3.5h-1l-2 3.5h-7l2-3.5h-1l-2 3.5h-5l-2-3.5h-1l2 3.5h-7l-2-3.5h-1l2 3.5h-9l2-3.5h-1l-2 3.5h-4.4l-.5 1h3l1.7 3h-6.2l-.5 1h3.5l-1.6 3h-3.4l-.5 1h7.6l-1.8 3.5h1l1.9-3.5h8l-1.9 3.5h1l1.9-3.5h5.2l1.9 3.5h1l-1.9-3.5h7l1.9 3.5h1l-1.9-3.5h7l1.9 3.5h1l-1.9-3.5h8.8l-1.9 3.5h1l1.9-3.5h7l-1.9 3.5h1l1.9-3.5h2.8"/></g></svg>