<svg xmlns="http://www.w3.org/2000/svg" viewBox="0 0 64 64" enable-background="new 0 0 64 64"><g fill="#d0d0d0"><circle cx="54.5" cy="13.2" r="3"/><circle cx="49.5" cy="11.2" r="4.2"/><circle cx="48" cy="7.8" r="4.8"/></g><g fill="#e8e8e8"><path d="m47.1 5c2.3 0 4.2 1.4 5 3.4 0-.1 0-.3 0-.4 0-2.2-1.8-3.9-3.9-3.9-1.1 0-2.2.5-2.9 1.3.5-.3 1.1-.4 1.8-.4"/><path d="m48.2 8.3c2.3 0 4.2 1.4 5 3.4 0-.1 0-.3 0-.4 0-2.2-1.8-3.9-3.9-3.9-1.1 0-2.2.5-2.9 1.3.6-.3 1.2-.4 1.8-.4"/><path d="m53.4 11.7c1.6 0 3 1 3.6 2.5 0-.1 0-.2 0-.3 0-1.6-1.3-2.8-2.8-2.8-.8 0-1.6.4-2.1.9.3-.2.8-.3 1.3-.3"/></g><path d="m63 60h-62c-.6 0-1 .5-1 1v2c0 .5.4 1 1 1h62c.5 0 1-.5 1-1v-2c0-.5-.5-1-1-1" fill="#62727a"/><path fill="#f15744" d="m39 40l-12-10v10l-12-10v10l-12-10v30h48v-20z"/><g fill="#d33b23"><path d="m51.8 43.2h8.4l-.4-8.4h-7.6z"/><path d="m59.4 26.4l-.4-8.4h-6l-.4 8.4z"/><path d="m51.4 51.6l-.4 8.4h10l-.4-8.4z"/></g><g fill="#d0d0d0"><path d="m59.4 26.4h-6.8l-.4 8.4h7.6z"/><path d="m51.4 51.6h9.2l-.4-8.4h-8.4z"/></g><path fill="#f9f3d9" d="m3 45h36v10h-36z"/><path fill="#b4d7ee" d="m3 46h35v8h-35z"/><path fill="#89664c" d="m42 50h6v10h-6z"/><path fill="#d33b23" d="m41 48h8v2h-8z"/><g fill="#f9f3d9"><path d="m3 49.5h35v1h-35z"/><path d="m14.5 45h1v10h-1z"/><path d="m26.5 45h1v10h-1z"/></g><circle cx="46.5" cy="54.5" r=".5" fill="#dbb471"/><path fill="#d0d0d0" d="m42 60h6v2h-6z"/><path fill="#e8e8e8" d="m41 62h8v2h-8z"/><g fill="#d0d0d0"><circle cx="56.5" cy="16" r="2"/><circle cx="42" cy="5.1" r="5.1"/><circle cx="33.9" cy="5.9" r="5.9"/><circle cx="26.5" cy="5" r="5"/><circle cx="18.4" cy="7" r="7"/><circle cx="10.6" cy="9.2" r="9.2"/></g><g fill="#e8e8e8"><path d="m8.1 3.3c4.7 0 8.6 2.9 10.2 7.1 0-.3.1-.6.1-.9 0-4.5-3.6-8.1-8.1-8.1-2.3 0-4.4 1-5.9 2.6 1.1-.5 2.4-.7 3.7-.7"/><path d="m16.5 2.9c3.7 0 6.8 2.3 8 5.6 0-.2 0-.5 0-.7 0-3.5-2.9-6.4-6.4-6.4-1.8 0-3.5.8-4.7 2 1.1-.3 2.1-.5 3.1-.5"/><path d="m25.2 2.1c2.6 0 4.9 1.7 5.8 4 0-.2 0-.3 0-.5 0-2.6-2.1-4.6-4.6-4.6-1.3 0-2.5.6-3.3 1.5.6-.3 1.3-.4 2.1-.4"/><path d="m32.2 2.4c3 0 5.6 1.9 6.6 4.6 0-.2 0-.4 0-.6 0-2.9-2.3-5.2-5.2-5.2-1.5 0-2.9.6-3.8 1.7.7-.3 1.6-.5 2.4-.5"/><path d="m40.8 2.1c2.6 0 4.8 1.6 5.6 3.9 0-.2 0-.3 0-.5 0-2.5-2-4.4-4.5-4.4-1.3 0-2.4.5-3.3 1.4.7-.3 1.4-.4 2.2-.4"/><path d="m55.7 14.9c1.1 0 2 .7 2.4 1.6 0-.1 0-.1 0-.2 0-1-.8-1.9-1.9-1.9-.5 0-1 .2-1.4.6.3-.1.6-.1.9-.1"/></g></svg>