<?xml version="1.0" encoding="UTF-8" standalone="no"?><svg xmlns:dc="http://purl.org/dc/elements/1.1/" xmlns:cc="http://creativecommons.org/ns#" xmlns:rdf="http://www.w3.org/1999/02/22-rdf-syntax-ns#" xmlns:svg="http://www.w3.org/2000/svg" xmlns="http://www.w3.org/2000/svg" viewBox="0 0 45 45" style="enable-background:new 0 0 45 45;" xml:space="preserve" version="1.1" id="svg2"><metadata id="metadata8"><rdf:RDF><cc:Work rdf:about=""><dc:format>image/svg+xml</dc:format><dc:type rdf:resource="http://purl.org/dc/dcmitype/StillImage"/></cc:Work></rdf:RDF></metadata><defs id="defs6"><clipPath id="clipPath16" clipPathUnits="userSpaceOnUse"><path id="path18" d="M 0,36 36,36 36,0 0,0 0,36 Z"/></clipPath></defs><g transform="matrix(1.25,0,0,-1.25,0,45)" id="g10"><g id="g12"><g clip-path="url(#clipPath16)" id="g14"><g transform="translate(29,2)" id="g20"><path id="path22" style="fill:#292f33;fill-opacity:1;fill-rule:nonzero;stroke:none" d="m 0,0 c 0,-1.105 -0.895,-2 -2,-2 l -18,0 c -1.104,0 -2,0.895 -2,2 l 0,32 c 0,1.104 0.896,2 2,2 l 18,0 c 1.105,0 2,-0.896 2,-2 L 0,0 Z"/></g><g transform="translate(6.6987,4)" id="g24"><path id="path26" style="fill:#be1931;fill-opacity:1;fill-rule:nonzero;stroke:none" d="m 0,0 22.602,0 c 4.082,3.3 5.699,8.342 5.699,14 0,5.658 -1.616,10.7 -5.698,14 L -0.001,28 C -4.083,24.7 -5.699,19.658 -5.699,14.001 -5.699,8.342 -4.083,3.3 0,0"/></g><g transform="translate(1.3008,14)" id="g28"><path id="path30" style="fill:#dd2e44;fill-opacity:1;fill-rule:nonzero;stroke:none" d="m 0,0 c 0.108,-0.682 0.245,-1.35 0.415,-2 l 32.568,0 c 0.17,0.65 0.307,1.318 0.415,2 L 0,0 Z"/></g><g transform="translate(1.0723,16)" id="g32"><path id="path34" style="fill:#dd2e44;fill-opacity:1;fill-rule:nonzero;stroke:none" d="m 0,0 33.855,0 c 0.048,0.657 0.073,1.324 0.073,2 l -34,0 C -0.072,1.324 -0.048,0.657 0,0"/></g><g transform="translate(32.6768,8)" id="g36"><path id="path38" style="fill:#dd2e44;fill-opacity:1;fill-rule:nonzero;stroke:none" d="M 0,0 C 0.363,0.64 0.684,1.306 0.956,2 L -30.31,2 c 0.272,-0.694 0.593,-1.36 0.955,-2 L 0,0 Z"/></g><g transform="translate(2.3662,26)" id="g40"><path id="path42" style="fill:#dd2e44;fill-opacity:1;fill-rule:nonzero;stroke:none" d="m 0,0 c -0.254,-0.646 -0.471,-1.313 -0.651,-2 l 32.569,0 c -0.18,0.687 -0.398,1.354 -0.651,2 L 0,0 Z"/></g><g transform="translate(1.3008,22)" id="g44"><path id="path46" style="fill:#dd2e44;fill-opacity:1;fill-rule:nonzero;stroke:none" d="m 0,0 c -0.104,-0.654 -0.179,-1.321 -0.229,-2 l 33.856,0 c -0.049,0.679 -0.125,1.346 -0.229,2 L 0,0 Z"/></g><g transform="translate(31.3145,6)" id="g48"><path id="path50" style="fill:#dd2e44;fill-opacity:1;fill-rule:nonzero;stroke:none" d="m 0,0 -26.629,0 c 0.591,-0.721 1.259,-1.391 2.013,-2 l 22.602,0 C -1.26,-1.391 -0.592,-0.721 0,0"/></g><g transform="translate(4.6846,30)" id="g52"><path id="path54" style="fill:#dd2e44;fill-opacity:1;fill-rule:nonzero;stroke:none" d="m 0,0 c -0.515,-0.627 -0.964,-1.298 -1.363,-2 l 29.356,0 c -0.398,0.702 -0.848,1.373 -1.362,2 L 0,0 Z"/></g></g></g></g></svg>
