<?xml version="1.0" encoding="utf-8"?>
<!-- Generator: Adobe Illustrator 24.0.3, SVG Export Plug-In . SVG Version: 6.00 Build 0)  -->
<svg version="1.1" id="Layer_1" xmlns="http://www.w3.org/2000/svg" xmlns:xlink="http://www.w3.org/1999/xlink" x="0px" y="0px"
	 viewBox="0 0 128 128" style="enable-background:new 0 0 128 128;" xml:space="preserve">
<path style="fill:#424242;" d="M124,107.2c-41.55,17.8-78.49-17.79-120,0V20.8c41.51-17.79,78.45,17.8,120,0V107.2z"/>
<linearGradient id="SVGID_1_" gradientUnits="userSpaceOnUse" x1="5.3708" y1="105.3417" x2="122.3705" y2="22.8407" gradientTransform="matrix(1 0 0 -1 0 128)">
	<stop  offset="0" style="stop-color:#FFFFFF;stop-opacity:0"/>
	<stop  offset="0.8012" style="stop-color:#090909;stop-opacity:0.9151"/>
	<stop  offset="1" style="stop-color:#000000"/>
</linearGradient>
<path style="opacity:0.3;fill:url(#SVGID_1_);enable-background:new    ;" d="M124,107.2c-41.55,17.8-78.49-17.79-120,0V20.8
	c41.51-17.79,78.45,17.8,120,0V107.2z"/>
<linearGradient id="SVGID_2_" gradientUnits="userSpaceOnUse" x1="4.8208" y1="64.0025" x2="120.1718" y2="64.0025">
	<stop  offset="1.200100e-03" style="stop-color:#BFBEBE"/>
	<stop  offset="0.2342" style="stop-color:#212121;stop-opacity:0"/>
	<stop  offset="0.8034" style="stop-color:#212121;stop-opacity:0"/>
	<stop  offset="1" style="stop-color:#BFBEBE"/>
</linearGradient>
<path style="opacity:0.2;fill:url(#SVGID_2_);" d="M124,107.2c-41.55,17.8-78.49-17.79-120,0V20.8c41.51-17.79,78.45,17.8,120,0
	V107.2z"/>
<linearGradient id="SVGID_3_" gradientUnits="userSpaceOnUse" x1="66.8368" y1="16.0106" x2="61.0349" y2="114.1588">
	<stop  offset="1.200100e-03" style="stop-color:#BFBEBE"/>
	<stop  offset="0.1974" style="stop-color:#212121;stop-opacity:0"/>
	<stop  offset="0.7498" style="stop-color:#212121;stop-opacity:0"/>
	<stop  offset="1" style="stop-color:#BFBEBE"/>
</linearGradient>
<path style="opacity:0.2;fill:url(#SVGID_3_);" d="M124,107.2c-41.55,17.8-78.49-17.79-120,0V20.8c41.51-17.79,78.45,17.8,120,0
	V107.2z"/>
<g>
	<path style="fill:#FFFFFF;" d="M37.44,68.83c1.68,0.78,3.51,0.18,4.08-1.41c4.45,2.28,6.67,3.58,11.12,6.28
		c3.1-0.21,4.64-0.27,7.74-0.38c-6.91-4.4-10.37-6.62-17.29-10.28c0.57-1.58-0.34-3.59-2.02-4.44s-3.51-0.18-4.08,1.43
		c-0.32,0.9-0.17,1.9,0.31,2.75c-0.86,0.23-1.57,0.85-1.88,1.76C34.85,66.16,35.76,68.05,37.44,68.83z"/>
	<path style="fill:#FFFFFF;" d="M88.56,86.68c-1.68-0.82-3.51-0.26-4.08,1.31c-4.45-2.37-6.67-3.71-11.12-6.45
		c-3.1,0.17-4.64,0.23-7.74,0.33c6.91,4.41,10.37,6.68,17.29,10.48c-0.57,1.56,0.34,3.59,2.02,4.48s3.51,0.27,4.08-1.33
		c0.32-0.89,0.17-1.9-0.31-2.75c0.86-0.21,1.57-0.81,1.88-1.71C91.15,89.42,90.24,87.5,88.56,86.68z"/>
	<path style="fill:#FFFFFF;" d="M84.48,78.74c0.57,1.8,2.39,3.05,4.08,2.73c1.68-0.31,2.59-2.04,2.02-3.8
		c-0.32-0.98-1.02-1.77-1.88-2.23c0.48-0.71,0.62-1.68,0.31-2.66c-0.57-1.77-2.39-2.96-4.08-2.71s-2.59,1.86-2.02,3.67
		c-13.78,1.45-27.65,0.98-41.39,2.94c-0.57-1.78-2.39-2.99-4.08-2.64c-1.68,0.36-2.59,2.11-2.02,3.85c0.32,0.97,1.02,1.74,1.88,2.18
		c-0.48,0.73-0.62,1.69-0.31,2.67c0.57,1.75,2.39,2.89,4.08,2.61s2.59-1.92,2.02-3.71C56.85,79.92,70.72,80.4,84.48,78.74z"/>
	<path style="fill:#FFFFFF;" d="M71.64,38.99c-5.39-4.43-11.89-6.49-17.29-5.11c-5.41,1.38-10.46,6.12-5.34,19.27
		c0,0-2.74,8.24,5.95,8.65c0,0,1.39,0.16,1.3,2.23v0.99c0,0.64,0.52,1.3,1.15,1.48c0.01,0,0.02,0.01,0.03,0.01
		c0.64,0.19,1.15-0.18,1.15-0.81v-0.96c0.56,0.16,0.83,0.25,1.39,0.41v0.96c0,0.64,0.52,1.3,1.15,1.5h0.01
		c0.64,0.19,1.15-0.17,1.15-0.8v-0.96c0.56,0.17,0.83,0.25,1.39,0.42v0.96c0,0.64,0.52,1.31,1.15,1.5c0.64,0.19,1.15-0.17,1.15-0.8
		v-0.96c0.56,0.17,0.83,0.25,1.39,0.42v0.96c0,0.64,0.52,1.31,1.15,1.49c0.01,0,0.02,0.01,0.03,0.01c0.64,0.19,1.15-0.18,1.15-0.81
		v-0.99c-0.09-2.12,1.3-1.48,1.3-1.48c8.7,4.57,5.95-5.42,5.95-5.42C82.1,50.57,77.05,43.43,71.64,38.99z M56.97,55.69
		c-2.4-0.7-4.35-3.17-4.35-5.58s1.95-3.83,4.35-3.13c2.41,0.7,4.35,3.24,4.35,5.64C61.33,55.03,59.38,56.39,56.97,55.69z
		 M64.45,62.59c-0.89-0.71-1.92-1.02-2.81-0.85c-0.35,0.07-0.57-0.11-0.57-1.1c0-0.64,0.02-1.19,0.06-1.66
		c0.1-1.1,0.93-1.7,1.91-1.41c0.99,0.3,1.81,1.4,1.91,2.56c0.04,0.49,0.06,1.06,0.06,1.7C65.01,62.81,64.8,62.87,64.45,62.59z
		 M69.16,59.33c-2.4-0.71-4.35-3.25-4.35-5.66s1.95-3.76,4.35-3.05s4.35,3.21,4.35,5.61C73.51,58.64,71.56,60.05,69.16,59.33z"/>
</g>
</svg>
