<?xml version="1.0" encoding="utf-8"?>
<!-- Generator: Adobe Illustrator 25.2.3, SVG Export Plug-In . SVG Version: 6.00 Build 0)  -->
<svg version="1.1" id="Layer_2" xmlns="http://www.w3.org/2000/svg" xmlns:xlink="http://www.w3.org/1999/xlink" x="0px" y="0px"
	 viewBox="0 0 128 128" style="enable-background:new 0 0 128 128;" xml:space="preserve">
<path style="fill:#B0B0B0;" d="M17.99,18.27c-0.18-1.27-0.39-6.82-5.23-6.33c-4.04,0.41-3.82,4.76-3.43,6.79
	c0.22,1.15,13,102.42,13.17,103.52c0.23,1.47,2.28,3,4.62,2.76c2.34-0.23,3.71-2.05,3.66-3.78C30.74,119.91,18.23,20,17.99,18.27z"
	/>
<g>
	<path style="fill:#C8C8C8;" d="M25.84,118.75c-0.62,0-1.16-0.46-1.24-1.09L11.5,16.54c-0.09-0.68,0.39-1.31,1.08-1.4
		c0.69-0.09,1.31,0.4,1.4,1.08l13.1,101.12c0.09,0.68-0.39,1.31-1.08,1.4C25.95,118.75,25.9,118.75,25.84,118.75z"/>
</g>
<path style="fill:#2F2F2F;" d="M18.08,19.17l8.1,65.02c0,0,2.69-3.5,10.2-3.35c5.22,0.11,13.2,1.22,23.61-2.27
	c13.82-4.63,21.48-12.51,36.58-15.15c11.39-1.99,21.78,0.14,22.04-0.49c0.21-0.49-0.32-3.87-0.37-3.86
	c-1,0.16-32.31-18.43-32.31-18.43L21.39,17.26c0,0-0.65,0.44-1.85,1.04C18.62,18.75,18.08,19.17,18.08,19.17z"/>
<path style="fill:#434343;" d="M21.36,17.23c0,0,2.56-2.03,8.82-2.46c10.97-0.76,15.94,2.46,25.84,0.29
	c10.91-2.4,18.23-9.99,29.66-11.47c13.03-1.69,21.33,2.35,21.33,2.35s3.77,12.03,6.2,25.53c2.25,12.53,5.03,27.61,5.03,27.61
	l-3.45-0.51l-92.8-36.38L21.36,17.23z"/>
<path style="fill:#434343;" d="M104.53,8.47c-1.11-0.87-12.38-4.09-22.66-1.24s-15.23,8.91-25.26,11.27s-17.83-0.8-23.4-0.35
	c-9.29,0.74-11.31,3.46-11.31,3.46l6.73,55.82c0,0,3.25-0.96,8.05-0.89c7.22,0.1,12.45,0.65,21-1.82s20.66-10.45,32.26-14.04
	c14.11-4.37,25.59-1.61,25.48-2.06c-0.11-0.46-2.97-15.48-5.7-29.71C107.01,14.66,104.53,8.47,104.53,8.47z"/>
<path style="fill:#787878;" d="M67.4,19.85c-0.4,2.42,1.36,21.45-0.89,30.04s-6.93,15.13-9.96,18.06s-4.59,4.59-4.1,5.17
	s7.71-2.05,15.32-6.54s10.74-7.03,11.52-8.2s3.22-9.56,4.29-18.54s2.06-21.06,2.54-24.3c0.39-2.64,1.37-5.37,0.78-5.56
	c-0.59-0.2-6.1,0.46-10.64,2.73C71.59,15.05,67.74,17.76,67.4,19.85z"/>
<path style="fill:#787878;" d="M26.69,23.25C26.4,25,27.96,41.01,28.84,49.21c0.88,8.2,2.85,22.63,4.32,22.48
	c2.7-0.27,4.46-25.95,9.64-36.34c3.93-7.89,7.81-11.22,7.71-11.91s-13.29-3.87-18.25-2.93C26.59,21.59,26.69,23.25,26.69,23.25z"/>
</svg>
