<?xml version="1.0" encoding="utf-8"?>
<!-- Generator: Adobe Illustrator 25.2.3, SVG Export Plug-In . SVG Version: 6.00 Build 0)  -->
<svg version="1.1" id="Layer_2" xmlns="http://www.w3.org/2000/svg" xmlns:xlink="http://www.w3.org/1999/xlink" x="0px" y="0px"
	 viewBox="0 0 128 128" style="enable-background:new 0 0 128 128;" xml:space="preserve">
<path style="fill:#168DFC;" d="M114.28,8.73c-21.16-12.76-45,8.14-51.29,24.34c-6.29,16.19,3.81,26.96,3.81,26.96
	S35.28,92.98,33.09,93.83l0.81,3.71l34.58-34.24c0,0,5.81,5.56,15.62,5.24c17.43-0.57,25.62-9.79,29.43-14
	c3.92-4.33,9.05-11.53,10.19-22.67C124.57,23.55,123.19,14.1,114.28,8.73z M107.05,55.74c-12.48,11.05-25.24,9.43-29.81,7.05
	c-4.57-2.38-5.62-4-7.33-5.91c-1.03-1.15-6.19-7-4.38-18.62c1.28-8.2,5.58-13.74,11.24-19.38c6.4-6.38,24.58-16.26,37.35-4.47
	C125.08,24.55,119.52,44.69,107.05,55.74z"/>
<path style="fill:#05BEF2;" d="M112.09,48.4c-10.42,14.16-29.81,20.19-40.48,10.19l-1.71-1.71c0,0-0.67,0.57-2.29,0.1
	c-1.62-0.48-4.76-4.91-5.14-10.67c-0.82-12.45,3.32-20.49,12.19-28.67C88.09,5.25,106.5,3.5,115.62,14.21
	C119.43,18.68,123.52,32.88,112.09,48.4z M122.67,20.83c-0.32-2.98-2.13-6.97-4.95-9.67C103.24-2.7,82.65,6.54,73.04,15.4
	c-10.48,9.67-12.76,17.95-13.41,26.79c-0.81,11.09,4.91,16.95,4.91,16.95l-33.42,33.4l0.57,4.62l36.67-36.48
	c0,0,4.93,5.25,15.81,5.71c8.86,0.38,17.81-4.06,24.19-9.72C116.28,49.69,124.38,37.07,122.67,20.83z"/>
<path style="fill:#62666A;" d="M58.62,62.51c-0.1,0.65,5.75,6.33,6.57,6.33c0.82,0,4.41-3.77,4.41-4.18s-5.73-6.66-6.63-6.58
	C62.07,58.15,58.79,61.44,58.62,62.51z"/>
<path style="fill:#62666A;" d="M27.93,92.64c0,0-0.2-1.04,0.86-2.07c1.26-1.23,2.52-0.63,5.56,2.64c3.1,3.33,4.02,4.38,2.85,5.85
	c-1.14,1.43-2.47,1.09-2.47,1.09l-20.48,20.3c0,0,0.29,1.92-1.07,2.85c-1,0.69-2.57,0.43-2.57,0.43l-6.63-6.84
	c0,0-0.43-1.57,0.64-2.71s2.64-0.71,2.64-0.71L27.93,92.64z"/>
<path style="fill:#858485;" d="M30.87,94.55c-0.62-0.35-1.83-0.05-2.54,0.86c-0.71,0.91-0.36,2.19-1.07,2.74
	c-0.71,0.56-2.24,0.46-3.76,1.98s-1.32,3.86-2.44,4.88c-1.12,1.02-3.23,1.09-4.37,2.24c-1.68,1.68-1.83,4.07-2.74,4.83
	c-0.91,0.76-2.69,0.46-3.61,1.32s-1.52,3.25,0.25,3.86s1.73-1.22,2.95-1.58c1.22-0.36,2.39-0.61,3.41-2.03
	c1.02-1.42,0.91-2.8,2.03-3.86c1.12-1.07,2.95-1.02,4.27-2.19c1.32-1.17,1.17-3.71,2.69-5.03c1.52-1.32,2.29-0.56,3.46-1.98
	c1.17-1.42,0.86-2.8,1.83-3.25C32.19,96.89,32.14,95.26,30.87,94.55z"/>
<g>
	<path style="fill:#B9CED4;" d="M104.41,56.25L71.54,23.48c-0.41-0.41-0.41-1.07,0-1.48c0.41-0.41,1.07-0.41,1.48,0l33.11,32.87
		c0,0-0.35,0.3-0.93,0.77C104.82,55.93,104.41,56.25,104.41,56.25z"/>
</g>
<g>
	<path style="fill:#B9CED4;" d="M111.11,49.66l-33.5-33.11c-0.41-0.41-0.41-1.07-0.01-1.48c0.41-0.41,1.07-0.41,1.48-0.01
		l33.32,32.89c0,0-0.18,0.33-0.62,0.88C111.59,49.07,111.11,49.66,111.11,49.66z"/>
</g>
<g>
	<path style="fill:#B9CED4;" d="M95.9,61.21L66.73,31.09c-0.4-0.41-0.39-1.08,0.02-1.48c0.41-0.4,1.07-0.39,1.48,0.02l29.73,30.65
		c0,0-0.5,0.24-1.01,0.49C96.47,61,95.9,61.21,95.9,61.21z"/>
</g>
<g>
	<path style="fill:#B9CED4;" d="M84.99,63.53l-20.7-21.9c-0.4-0.42-0.39-1.08,0.03-1.48c0.42-0.4,1.08-0.39,1.48,0.03
		c0,0,21.67,22.66,21.61,22.74c-0.04,0.05-0.27,0.5-1.12,0.52C85.89,63.45,84.99,63.53,84.99,63.53z"/>
</g>
<g>
	<path style="fill:#B9CED4;" d="M116.18,41.69L86.29,12.45c-0.41-0.4-0.42-1.07-0.02-1.48c0.41-0.41,1.07-0.42,1.48-0.02l29.32,28.7
		c0,0-0.18,0.43-0.38,0.89C116.5,41,116.18,41.69,116.18,41.69z"/>
</g>
<g>
	<path style="fill:#B9CED4;" d="M119.22,32L96.96,9.49c-0.41-0.41-0.4-1.07,0.01-1.48c0.41-0.41,1.07-0.4,1.48,0.01l21.09,21.12
		C119.54,29.14,119.41,30.83,119.22,32z"/>
</g>
<g>
	<path style="fill:#B9CED4;" d="M64.98,37.84c-0.26,0-0.53-0.1-0.73-0.3c-0.41-0.4-0.42-1.06-0.02-1.48L91.86,8.73
		c0.4-0.41,1.06-0.42,1.48-0.02c0.41,0.4,0.42,1.06,0.02,1.48L65.73,37.52C65.53,37.74,65.26,37.84,64.98,37.84z"/>
</g>
<g>
	<path style="fill:#B9CED4;" d="M65.28,49.1c-0.27,0-0.53-0.1-0.74-0.31c-0.41-0.41-0.41-1.07,0-1.48l39.11-39.05
		c0.41-0.41,1.07-0.41,1.48,0c0.41,0.41,0.41,1.07,0,1.48L66.01,48.79C65.81,48.99,65.54,49.1,65.28,49.1z"/>
</g>
<g>
	<path style="fill:#B9CED4;" d="M69.5,57.52c-0.27,0-0.53-0.1-0.73-0.3c-0.41-0.41-0.42-1.07-0.01-1.48l42.67-43.38
		c0.4-0.41,1.06-0.42,1.48-0.01c0.41,0.41,0.42,1.07,0.01,1.48L70.25,57.21C70.04,57.42,69.77,57.52,69.5,57.52z"/>
</g>
<g>
	<path style="fill:#B9CED4;" d="M75.23,61.22l42.38-42.53c0,0,0.16,0.02,0.47,0.59c0.28,0.51,0.49,1.44,0.49,1.44L77.23,62.17
		c0,0-0.48-0.15-1.02-0.42C75.61,61.45,75.23,61.22,75.23,61.22z"/>
</g>
<g>
	<path style="fill:#B9CED4;" d="M84.96,63.54l34.62-36.04c0.03,0.96-0.17,3.29-0.17,3.29L88.32,63.3
		C88.32,63.3,86.87,63.54,84.96,63.54z"/>
</g>
<path style="fill:#E1F7FE;" d="M35.42,14.36c-0.74-0.22-25.75-0.52-25.75-0.52s-2.3,0.15-3.34,2.45s-0.52,4.23-0.52,4.23
	s-2.37,1.26-2.23,5.34c0.09,2.53,1.93,4.38,1.93,4.38s-1.19,2.08,0.3,5.34c1.16,2.55,4.15,2.82,4.15,2.82s-0.16,2.5,1.26,4.08
	c1.93,2.15,4.6,1.41,4.6,1.41s0.74,2.3,3.56,3.04c2.82,0.74,5.12-1.93,5.12-1.93l15.81-17.14l-3.34-6.82L35.42,14.36z"/>
<path style="fill:#E1E1E1;" d="M36.76,13.48c0,0,2.9-1.29,5.85-1.01c2.87,0.27,4.31,1.74,5.43,4.23c1.25,2.77,1.53,4.92,0.07,7.32
	c-1.72,2.83-5.57,3.48-5.57,3.48s-3.19-0.61-4-1.67c-0.9-1.18-2.99-6.59-3.1-8.14C35.24,14.73,36.76,13.48,36.76,13.48z"/>
<path style="fill:#FFFFFF;" d="M44.75,14.84c-1.32-1.54-4.66-0.22-5.43,2.85s1.26,4.94,2.8,4.66c1.54-0.27,1.21-3.13,1.97-4.11
	C44.86,17.25,45.85,16.12,44.75,14.84z"/>
<g>
	<path style="fill:#AAE2F9;" d="M6.35,21.12c-0.19,0-0.29,0-0.3,0c-0.58-0.01-1.04-0.48-1.03-1.06c0.01-0.58,0.51-1.02,1.06-1.03
		c0.06,0,5.63-0.4,11.58-0.93c7.55-0.67,16.92-2.09,17.01-2.11c0.56-0.09,1.1,0.31,1.19,0.88c0.08,0.57-0.31,1.1-0.88,1.19
		c-0.09,0.01-9.58,1.26-17.14,2.06C11.98,20.75,7.62,21.12,6.35,21.12z"/>
</g>
<g>
	<path style="fill:#AAE2F9;" d="M5.52,30.75c0,0-0.93,0.25-1.24-0.72c-0.3-0.94,0.6-1.27,0.6-1.27c0,0,10.69-3.4,15.08-4.82
		c4.33-1.41,14.7-4.9,14.8-4.93c0.55-0.19,1.14,0.11,1.32,0.66c0.18,0.55-0.11,1.14-0.66,1.32c-0.1,0.04-10.48,3.53-14.82,4.94
		C16.22,27.35,5.52,30.75,5.52,30.75z"/>
</g>
<g>
	<path style="fill:#AAE2F9;" d="M9.85,38.93c-0.35,0-0.7-0.18-0.89-0.5c-0.3-0.49-0.15-1.14,0.35-1.44
		c0.07-0.04,6.69-4.12,13.87-8.15c6.99-3.92,12.6-6.74,12.66-6.77c0.52-0.26,1.14-0.05,1.4,0.46c0.26,0.52,0.05,1.14-0.46,1.4
		c-0.06,0.03-5.63,2.83-12.57,6.72c-7.14,4-13.73,8.06-13.8,8.11C10.23,38.88,10.04,38.93,9.85,38.93z"/>
</g>
<g>
	<path style="fill:#AAE2F9;" d="M16.53,44.96c-0.29,0-0.57-0.12-0.78-0.35c-0.38-0.43-0.35-1.09,0.08-1.48
		c0.08-0.07,6.67-5.77,10.74-9.2c4.11-3.45,10.63-9.04,10.63-9.04l1.36,1.59c0,0-6.53,5.6-10.65,9.06
		c-4.05,3.41-10.62,9.09-10.7,9.16C17.03,44.88,16.78,44.96,16.53,44.96z"/>
</g>
<path style="fill:#FD1B0D;" d="M37.04,13.35l-2.92,0.84c0,0-1.17,2.36,0.92,7.84c1.76,4.61,4.55,6.8,4.55,6.8l2.96-1.31
	c0,0-2.8-2.85-4.33-6.69C36.65,16.88,37.04,13.35,37.04,13.35z"/>
</svg>
