<svg xmlns="http://www.w3.org/2000/svg" viewBox="0 0 64 64" enable-background="new 0 0 64 64"><g fill="#d3976e"><path d="m14.3 20.4c-12.5 12.5-5.2 28-2.9 33 .4.9.6 1.7.7 2.4-.9-.1-2.1.3-3.2 1.2-1.6 1.3-.9 3.4 0 4.2.6.6 1.2.9 2.7.3 2.3-.9 7.5-4.3 4.9-10.1-7.5-16.6 3-26.8 3-26.8l-4.8-4.6-.4.4"/><path d="m57.1 8.9c-.9 1.1-1.3 2.3-1.2 3.2-.7-.1-1.5-.3-2.4-.7-5.1-2.3-20.5-9.6-33 2.9l-.5.4 4.8 4.8c0 0 10.3-10.5 26.8-3 5.7 2.6 9.1-2.7 10-4.9.7-1.6.4-2.1-.3-2.7-.8-.9-2.8-1.7-4.2 0"/></g><path transform="matrix(.7071-.7071.7071.7071-8.18 19.7517)" fill="#fed0ac" d="m16 16.4h7.4v6.7h-7.4z"/><g fill="#89664c"><path d="m22.9 21.4l-4.8-4.8.8-.8 4.8 4.8z"/><path d="m16.6 18.1l4.8 4.8-.8.8-4.8-4.8z"/><path d="m11.7 59.3c.8-.8.8-2.6.4-3.4-.4 0-.8 0-1.2.1 1.3-.2.2 3.6-.3 2.8-.6-.8-.6-.2-.6-.1.1.5.5 1.8 1.7.6"/><path d="m59.3 11.7c-.8.8-2.6.8-3.4.4 0-.4 0-.7.1-1.2-.2 1.3 3.6.2 2.8-.3-.8-.6-.2-.6-.1-.6.5.1 1.8.5.6 1.7"/></g><path fill="#b2c1c0" d="m10.2 8.7l-.2-3.2-8-3.5 3.5 8 3.2.2z"/><path d="m49.6 48.1l-39.4-39.3-1.5 1.5 39.3 39.3c.2.2.7 0 1.1-.4.5-.4.7-.9.5-1.1" fill="#d3976e"/><path d="m51.5 42.5c-.3-.3-2.2.4-2.2.4s1.6-.8 1.5-1.1c-.1-.3-.6-.9-.9-.9-.7-.1-3 .8-3 .8s2.3-.8 2.2-1.5c0-.3-.8-.8-.8-.8-2.5 1.2-6 1.5-6 1.5l6.4 6.4c0 0 5.9-1.6 5-2.5-.8-.8-1.3-1.3-2.2-2.3" fill="#ed4c5c"/><path d="m48 46.5c2.1-.6 4.2-1.4 5.4-2.1-.2-.2-.5-.5-.8-.8-1.1.6-3.3 1.4-5.5 2l.9.9" fill="#ffce31"/><path d="m45.5 40.2c-1.7.4-3.2.5-3.2.5l6.4 6.4c0 0 1.5-.4 2.9-.9-7.5-1.9-6.1-6-6.1-6" opacity=".5" fill="#3e4347"/><path d="m42.5 51.5c-.3-.3.4-2.2.4-2.2s-.8 1.6-1.1 1.5c-.3-.1-.9-.6-.9-.9-.1-.7.7-3 .7-3s-.8 2.3-1.5 2.2c-.3 0-.8-.8-.8-.8 1.2-2.5 1.5-6 1.5-6l6.4 6.4c0 0-1.5 6-2.5 5-.8-.7-1.3-1.3-2.2-2.2" fill="#ed4c5c"/><path d="m46.5 48c-.6 2.1-1.4 4.2-2.1 5.4-.2-.2-.5-.5-.8-.8.6-1.1 1.4-3.3 2-5.5l.9.9" fill="#ffce31"/><path d="m40.2 45.5c.4-1.7.5-3.2.5-3.2l6.4 6.4c0 0-.4 1.5-.9 2.9-1.9-7.5-6-6.1-6-6.1" opacity=".5" fill="#3e4347"/><path fill="#b2c1c0" d="m12.2 61.3l35.7-11.9-.9-.8-31.8 10.6z"/><path opacity=".5" fill="#3e4347" d="m46.9 49.7l1-.3-.9-.8-1 .3z"/><path fill="#b2c1c0" d="m61.3 12.2l-2.1 3-10.6 31.9.8.8z"/><g fill="#3e4347"><path opacity=".5" d="m48.9 46.1l-.3 1 .8.8.3-1z"/><path opacity=".5" d="m8.7 10.2l1.5-1.5v-1l-4.1.6-4.1-6.3 3.5 8z"/></g><path fill="#e8e8e8" d="m7.3 8.1l1.6.8-.8-1.6 1.4-.8-2.1.1-3.7-2.9 2.9 3.7-.1 2.1z"/></svg>