<svg xmlns="http://www.w3.org/2000/svg" viewBox="0 0 36 36"><path fill="#553788" d="M30.119 16.486c-3.347 3.346-7.677 2.927-10.604 0-2.927-2.93-3.347-7.257 0-10.604 3.347-3.347 9.847-3.788 12.119-1.516 2.272 2.273 1.831 8.773-1.515 12.12zM16.485 30.119c-3.347 3.346-9.847 3.786-12.12 1.515-2.272-2.272-1.831-8.772 1.516-12.119 3.346-3.346 7.675-2.928 10.604 0 2.928 2.927 3.347 7.257 0 10.604z"/><path fill="#553788" d="M19.515 30.119c-3.346-3.346-2.927-7.676.001-10.604 2.928-2.928 7.257-3.347 10.604-.001 3.347 3.348 3.787 9.847 1.516 12.119-2.275 2.273-8.774 1.833-12.121-1.514zM5.881 16.485c-3.347-3.347-3.788-9.847-1.515-12.12 2.272-2.272 8.773-1.831 12.12 1.516 3.347 3.346 2.928 7.675 0 10.604-2.929 2.928-7.259 3.347-10.605 0z"/><path fill="#55ACEE" d="M26.999 25C22.581 25 20 21.865 20 18c.001-3.866 2.581-7 7-7 4.418 0 9 3.999 9 7s-4.582 7-9.001 7zM9 25c-4.418 0-9-4.001-9-7s4.582-7 9-7 7 3.134 7 7c0 3.865-2.582 7-7 7z"/><path fill="#55ACEE" d="M11 27c0-4.418 3.134-6.999 7-6.999s7 2.581 7 6.999c0 4.419-4 9-7 9s-7-4.581-7-9zm0-18c0-4.418 4-9 7-9s7 4.582 7 9-3.134 7-7 7-7-2.582-7-7z"/><path fill="#88C9F9" d="M23.656 23.657c-3.124 3.124-8.19 3.124-11.313 0-3.125-3.125-3.125-8.19 0-11.314 3.125-3.124 8.189-3.124 11.313 0 3.124 3.124 3.124 8.189 0 11.314z"/><path fill="#BBDDF5" d="M21.656 21.657c-2.02 2.02-5.294 2.02-7.313 0-2.02-2.021-2.02-5.295 0-7.314 2.02-2.02 5.294-2.02 7.313 0 2.02 2.019 2.02 5.294 0 7.314z"/></svg>