<?xml version="1.0" encoding="utf-8"?>
<!-- Generator: Adobe Illustrator 24.1.2, SVG Export Plug-In . SVG Version: 6.00 Build 0)  -->
<svg version="1.1" id="Layer_2" xmlns="http://www.w3.org/2000/svg" xmlns:xlink="http://www.w3.org/1999/xlink" x="0px" y="0px"
	 viewBox="0 0 128 128" style="enable-background:new 0 0 128 128;" xml:space="preserve">
<path style="fill:#929394;" d="M108.34,48.93c1.29-0.36,4.43,4.75,7.11,6.9c2.46,1.97,4.03,3.15,5.35,3.38
	c0.82,0.14,3.8,0.92,2.25,3.87s-5.7,3.03-7.74,2.96c-2.04-0.07-11.61-9.92-11.61-9.92S103.83,50.2,108.34,48.93z"/>
<path style="fill:#B88658;" d="M37.88,16.62c0,0-4.24-2.44-12.46-1.27c-6.29,0.9-13.37,4.36-17.67,12.6
	c-4.93,9.43-4.6,18.61-1.06,25.06c4.19,7.63,11.76,12.18,11.76,12.18L37.88,16.62z"/>
<path style="fill:#6F4B41;" d="M21.13,30.35c0,0-2.67,0-5,3.1c-1.87,2.49-2.67,4.5-2.67,4.5s-5.82,0.94-5.98,4.36
	c-0.1,2.11,2.46,1.41,4.43,3.38s2.46,3.31,2.96,5.56c0.49,2.25,3.31,2.67,3.31,2.67s0.07-5.7-3.03-8.8s-5.28-2.32-5.14-3.1
	c0.14-0.77,2.46-2.37,5-2.32c3.94,0.07,5.56,4.65,5.56,4.65l2.6-11.54L21.13,30.35z"/>
<path style="fill:#5D6167;" d="M76.24,108.15c0,0-0.05,2.53,0.14,3.64c0.09,0.54,2.07,2.13,5.96,2.23c3.85,0.09,6.08-1.99,6.05-3.1
	c-0.02-0.94,0.28-4.97,0.28-4.97l-1.17-4.08l-9.36,2.67l-0.73,1.4L76.24,108.15z"/>
<path style="fill:#979899;" d="M79.83,108.34c0,0,1.57,0.39,4.48,0.09c2.82-0.28,4.32-1.5,4.32-1.5l1.06-7.11l-13.37,1.41l1.83,6.83
	L79.83,108.34z"/>
<path style="fill:#5D6268;" d="M95.06,107.49c0,0,0.2,5.34,0.52,5.96c0.33,0.66,1.87,2.2,5.68,2.35c4.79,0.19,5.96-1.6,6.1-2.82
	s0.84-5.23,0.28-6.71c-0.56-1.48-10.09-0.52-10.09-0.52L95.06,107.49z"/>
<path style="fill:#979899;" d="M108.74,91.91l-13.7,1.64c0,0-0.28,13.09,0,13.94c0.28,0.84,2.18,2.07,6.48,2.18
	c4.58,0.12,6.26-1.2,6.26-1.2l1.45-16.28L108.74,91.91z"/>
<path style="fill:#5D6164;" d="M51.63,115c0,0,0.19,5.63,0.75,6.34c0.56,0.7,1.71,2.91,6.43,2.77s6.31-2.89,6.45-3.59
	c0.14-0.7,0.16-4.67,0.16-4.67l-13.12-2.65L51.63,115z"/>
<path style="fill:#979899;" d="M65.61,106.3l-14.5,1.2c0,0,0.31,6.85,0.52,8.12c0.18,1.1,2.09,2.72,7.09,2.58
	c5-0.14,6.76-2.39,6.76-2.39L65.61,106.3z"/>
<path style="fill:#5F6467;" d="M30.44,112.66c0,0,2.72-2.84,6.59-2.98s6.45,4.76,6.45,4.76s0.12,2.65,0.12,3.47
	c0,1.27-2.95,3.28-6.26,3.24c-5.09-0.07-5.77-2.06-6.01-3.05C31.19,117.51,30.44,112.66,30.44,112.66z"/>
<path style="fill:#98999A;" d="M31.61,102.07l-2.89,0.96l1.76,9.95c0,0,2.11,2.96,6.83,2.96s6.19-1.41,6.19-1.41l-0.42-8.38
	L31.61,102.07z"/>
<path style="fill:#DEDEDE;" d="M59.49,20.21c0,0-2.4-7.11-12.25-7.46c-11.68-0.42-14.08,8.87-14.08,8.87s-5.77-3.1-11.12,2.53
	s-1.13,11.68-1.13,11.68s-3.14,2.26-2.67,6.34c0.42,3.66,2.53,4.79,2.53,4.79s-7.85,4.12-8.87,13.51
	c-1.13,10.42,3.52,14.08,3.52,14.08s-4.08,6.62,0.42,15.91c4.3,8.87,10.42,9.29,10.42,9.29s3.24,7.32,9.15,8.73
	s10.84-0.28,10.84-0.28s5.35,4.79,11.12,4.08c5.77-0.7,7.6-3.52,7.6-3.52s3.52,3.38,10.56,1.83s8.31-5.49,8.31-5.49
	s6.48,3.66,13.09,0.14c6.62-3.52,7.18-9.71,7.18-9.71s7.18-1.13,10.98-8.45c3.8-7.32,0.28-12.11,0.28-12.11s1.83-3.8-0.14-11.54
	c-1.97-7.74-7.88-8.59-7.88-8.59s4.36-7.88-1.55-13.8c-5.91-5.91-14.64-4.79-14.64-4.79l-22.52-7.88c0,0,2.88-4.09-1.97-7.32
	C62.87,18.52,59.49,20.21,59.49,20.21z"/>
<path style="fill:#979899;" d="M21.71,47.33c0,0,2.35,0.28,4.97-1.78c2.63-2.06,4.04-4.79,4.04-4.79s2.4,5.03,7.88,6.01
	c6.85,1.22,11.64-5.16,11.64-5.16s-0.75,3.66,3.1,6.66s8.45,1.78,8.45,1.78s-5.63,5.82-7.41,10.7s-2.72,13.14-7.32,17.18
	c-6.5,5.7-26.09,4.88-27.5-8.63c-0.6-5.74,2.44-5.82,2.82-13.51C22.64,50.24,21.71,47.33,21.71,47.33z"/>
<path style="fill:#2F2F2F;" d="M31.71,66.11c0.29,0.04,2.25-1.03,2.63-1.22c0.38-0.19,2.11-1.31,2.86-0.23
	c0.75,1.08,0.22,2.09-1.4,2.86c-1.18,0.56-2.5,1.2-2.5,1.2s-0.66,4.12,2.15,4.4c1.76,0.18,2.15-1,3.41,0.18
	c1.27,1.17-0.42,3.13-3.12,3c-1.52-0.07-2.44-0.43-3.28-1.22c-0.42-0.39-1.02-1.71-1.02-1.71s-0.67,2.13-3.48,2.32
	c-2.6,0.18-3.99-2.11-2.91-3.14c1.08-1.03,1.13,0.31,2.77,0.26c2.36-0.07,2.04-4.33,2.04-4.33s-1.62-1.84-2.09-2.31
	c-0.47-0.47-1.25-1.41-0.66-2.25c0.77-1.1,1.71-0.41,2.18-0.08C29.76,64.15,31.41,66.07,31.71,66.11z"/>
<path style="fill:#6F4B41;" d="M64.04,48.65l-1.22-13.14l21.4-4.22l6.01,12.11L86.38,61.6l-1.22,5.44l-6.1,6.85
	c0,0-4.33,2.51-10.04,0.84c-6.1-1.78-8.73-5.54-10.04-11.73C57,53.7,64.04,48.65,64.04,48.65z"/>
<path style="fill:#B68859;" d="M60.1,38.14c0,6.01,2.91,10.89,3.94,10.51c1.03-0.38,4.84-1.41,6.01-6.29
	c0.56-2.32,3.42-4.69,6.56-5.05c3.2-0.37,6.7,1.34,8.36,7.31c1.5,5.4-0.18,10.52-3.1,12.67c-2.92,2.15-6.89,1.68-7.88-1.22
	c-1.5-4.41,4.69-5.91,4.79-7.41s-7.6-4.79-12.86,0.38c-5.87,5.76-6.38,14.27-1.78,20.18s11.98,6.86,19.33,3
	c7.51-3.94,13.81-11.93,13.33-27.31c-0.56-18.02-14.64-27.38-25.43-24.96c-3.99,0.89-6.69,2.84-8.39,5.71
	C61.27,28.52,60.1,33.54,60.1,38.14z"/>
<ellipse style="fill:#2F2F2F;" cx="47.43" cy="51.49" rx="3.28" ry="3.96"/>
<ellipse style="fill:#2F2F2F;" cx="28.28" cy="49.47" rx="3.01" ry="3.57"/>
</svg>
