<?xml version="1.0" encoding="UTF-8" standalone="no"?><svg xmlns:dc="http://purl.org/dc/elements/1.1/" xmlns:cc="http://creativecommons.org/ns#" xmlns:rdf="http://www.w3.org/1999/02/22-rdf-syntax-ns#" xmlns:svg="http://www.w3.org/2000/svg" xmlns="http://www.w3.org/2000/svg" viewBox="0 0 45 45" style="enable-background:new 0 0 45 45;" xml:space="preserve" version="1.1" id="svg2"><metadata id="metadata8"><rdf:RDF><cc:Work rdf:about=""><dc:format>image/svg+xml</dc:format><dc:type rdf:resource="http://purl.org/dc/dcmitype/StillImage"/></cc:Work></rdf:RDF></metadata><defs id="defs6"><clipPath id="clipPath16" clipPathUnits="userSpaceOnUse"><path id="path18" d="M 0,36 36,36 36,0 0,0 0,36 Z"/></clipPath></defs><g transform="matrix(1.25,0,0,-1.25,0,45)" id="g10"><g id="g12"><g clip-path="url(#clipPath16)" id="g14"><g transform="translate(32.8555,19.5156)" id="g20"><path id="path22" style="fill:#ffcc4d;fill-opacity:1;fill-rule:nonzero;stroke:none" d="m 0,0 c -0.26,0.171 -0.544,0.329 -0.855,0.484 -2,1 -5,0 -9,0 -2,0 -4.902,3 -10,3 -0.802,0 -2.256,-0.634 -4.341,-0.89 -0.039,1.053 -0.615,1.89 -1.326,1.89 -0.737,0 -1.333,-0.895 -1.333,-2 0,-0.051 0.007,-0.099 0.01,-0.15 -2.82,-0.766 -6.01,-4.438 -6.01,-6.225 0,-2 2,-3.625 2,-3.625 0,0 0.999,0 3,2 1.581,1.582 5,1 5,1 l 1,-12 c 0,0 -1,-1 -2,-1 -1,0 -1,-2 -1,-2 l 6,0 1,9 3,0 c 2,0 7,1 7,1 2,-3 4,-4 4,-4 l 0,-3 -2,-1 c -2,-1 -1,-2 -1,-2 l 6,0 c 0,0 1,8 2,13 l 0,-5 c 0,-0.552 0.447,-1 1,-1 0.552,0 1,0.448 1,1 l 0,7 C 3.145,-1.85 1.787,-0.587 0,0"/></g><g transform="translate(5,19)" id="g24"><path id="path26" style="fill:#292f33;fill-opacity:1;fill-rule:nonzero;stroke:none" d="m 0,0 c 0,-0.553 -0.448,-1 -1,-1 -0.552,0 -1,0.447 -1,1 0,0.552 0.448,1 1,1 0.552,0 1,-0.448 1,-1"/></g><g transform="translate(0,16)" id="g28"><path id="path30" style="fill:#292f33;fill-opacity:1;fill-rule:nonzero;stroke:none" d="M 0,0 C 0,0 0,-2 1,-2 1,0 2,0 2,0 2,0 1,1 0,0"/></g><g transform="translate(12,19.5)" id="g32"><path id="path34" style="fill:#ffac33;fill-opacity:1;fill-rule:nonzero;stroke:none" d="M 0,0 C 0,-0.828 -0.672,-1.5 -1.5,-1.5 -2.329,-1.5 -3,-0.828 -3,0 -3,0.829 -2.329,1.5 -1.5,1.5 -0.672,1.5 0,0.829 0,0"/></g><g transform="translate(10.5,20.5)" id="g36"><path id="path38" style="fill:#f4900c;fill-opacity:1;fill-rule:nonzero;stroke:none" d="m 0,0 c -0.551,0 -1,-0.449 -1,-1 0,-0.551 0.449,-1 1,-1 0.551,0 1,0.449 1,1 0,0.551 -0.449,1 -1,1 m 0,-3 c -1.103,0 -2,0.897 -2,2 0,1.103 0.897,2 2,2 C 1.103,1 2,0.103 2,-1 2,-2.103 1.103,-3 0,-3"/></g><g transform="translate(19,19.5)" id="g40"><path id="path42" style="fill:#ffac33;fill-opacity:1;fill-rule:nonzero;stroke:none" d="M 0,0 C 0,-0.828 -0.672,-1.5 -1.5,-1.5 -2.329,-1.5 -3,-0.828 -3,0 -3,0.829 -2.329,1.5 -1.5,1.5 -0.672,1.5 0,0.829 0,0"/></g><g transform="translate(17.5,20.5)" id="g44"><path id="path46" style="fill:#f4900c;fill-opacity:1;fill-rule:nonzero;stroke:none" d="m 0,0 c -0.551,0 -1,-0.449 -1,-1 0,-0.551 0.449,-1 1,-1 0.552,0 1,0.449 1,1 0,0.551 -0.448,1 -1,1 m 0,-3 c -1.103,0 -2,0.897 -2,2 0,1.103 0.897,2 2,2 C 1.103,1 2,0.103 2,-1 2,-2.103 1.103,-3 0,-3"/></g><g transform="translate(16,14.5)" id="g48"><path id="path50" style="fill:#ffac33;fill-opacity:1;fill-rule:nonzero;stroke:none" d="M 0,0 C 0,-0.828 -0.672,-1.5 -1.5,-1.5 -2.329,-1.5 -3,-0.828 -3,0 -3,0.828 -2.329,1.5 -1.5,1.5 -0.672,1.5 0,0.828 0,0"/></g><g transform="translate(14.5,15.5)" id="g52"><path id="path54" style="fill:#f4900c;fill-opacity:1;fill-rule:nonzero;stroke:none" d="m 0,0 c -0.551,0 -1,-0.448 -1,-1 0,-0.552 0.449,-1 1,-1 0.551,0 1,0.448 1,1 0,0.552 -0.449,1 -1,1 m 0,-3 c -1.103,0 -2,0.898 -2,2 0,1.102 0.897,2 2,2 C 1.103,1 2,0.102 2,-1 2,-2.102 1.103,-3 0,-3"/></g><g transform="translate(23,12.5)" id="g56"><path id="path58" style="fill:#ffac33;fill-opacity:1;fill-rule:nonzero;stroke:none" d="M 0,0 C 0,-0.828 -0.672,-1.5 -1.5,-1.5 -2.328,-1.5 -3,-0.828 -3,0 -3,0.828 -2.328,1.5 -1.5,1.5 -0.672,1.5 0,0.828 0,0"/></g><g transform="translate(21.5,13.5)" id="g60"><path id="path62" style="fill:#f4900c;fill-opacity:1;fill-rule:nonzero;stroke:none" d="m 0,0 c -0.552,0 -1,-0.448 -1,-1 0,-0.552 0.448,-1 1,-1 0.552,0 1,0.448 1,1 0,0.552 -0.448,1 -1,1 m 0,-3 c -1.102,0 -2,0.898 -2,2 0,1.102 0.898,2 2,2 C 1.103,1 2,0.102 2,-1 2,-2.102 1.103,-3 0,-3"/></g><g transform="translate(26,17.5)" id="g64"><path id="path66" style="fill:#ffac33;fill-opacity:1;fill-rule:nonzero;stroke:none" d="M 0,0 C 0,-0.828 -0.672,-1.5 -1.5,-1.5 -2.328,-1.5 -3,-0.828 -3,0 -3,0.828 -2.328,1.5 -1.5,1.5 -0.672,1.5 0,0.828 0,0"/></g><g transform="translate(24.5,18.5)" id="g68"><path id="path70" style="fill:#f4900c;fill-opacity:1;fill-rule:nonzero;stroke:none" d="m 0,0 c -0.552,0 -1,-0.449 -1,-1 0,-0.552 0.448,-1 1,-1 0.552,0 1,0.448 1,1 0,0.551 -0.448,1 -1,1 m 0,-3 c -1.102,0 -2,0.898 -2,2 0,1.103 0.898,2 2,2 C 1.103,1 2,0.103 2,-1 2,-2.102 1.103,-3 0,-3"/></g><g transform="translate(30,12.5)" id="g72"><path id="path74" style="fill:#ffac33;fill-opacity:1;fill-rule:nonzero;stroke:none" d="M 0,0 C 0,-0.829 -0.671,-1.5 -1.5,-1.5 -2.329,-1.5 -3,-0.829 -3,0 -3,0.829 -2.329,1.5 -1.5,1.5 -0.671,1.5 0,0.829 0,0"/></g><g transform="translate(28.5,13.5)" id="g76"><path id="path78" style="fill:#f4900c;fill-opacity:1;fill-rule:nonzero;stroke:none" d="m 0,0 c -0.552,0 -1,-0.448 -1,-1 0,-0.552 0.448,-1 1,-1 0.552,0 1,0.448 1,1 0,0.552 -0.448,1 -1,1 m 0,-3 c -1.102,0 -2,0.898 -2,2 0,1.102 0.898,2 2,2 C 1.103,1 2,0.102 2,-1 2,-2.102 1.103,-3 0,-3"/></g><g transform="translate(33,17.5)" id="g80"><path id="path82" style="fill:#ffac33;fill-opacity:1;fill-rule:nonzero;stroke:none" d="M 0,0 C 0,-0.828 -0.672,-1.5 -1.5,-1.5 -2.328,-1.5 -3,-0.828 -3,0 -3,0.828 -2.328,1.5 -1.5,1.5 -0.672,1.5 0,0.828 0,0"/></g><g transform="translate(31.5,18.5)" id="g84"><path id="path86" style="fill:#f4900c;fill-opacity:1;fill-rule:nonzero;stroke:none" d="m 0,0 c -0.552,0 -1,-0.449 -1,-1 0,-0.552 0.448,-1 1,-1 0.552,0 1,0.448 1,1 0,0.551 -0.448,1 -1,1 m 0,-3 c -1.102,0 -2,0.898 -2,2 0,1.103 0.898,2 2,2 C 1.103,1 2,0.103 2,-1 2,-2.102 1.103,-3 0,-3"/></g></g></g></g></svg>
