<?xml version="1.0" encoding="utf-8"?>
<!-- Generator: Adobe Illustrator 24.1.2, SVG Export Plug-In . SVG Version: 6.00 Build 0)  -->
<svg version="1.1" id="Layer_2" xmlns="http://www.w3.org/2000/svg" xmlns:xlink="http://www.w3.org/1999/xlink" x="0px" y="0px"
	 viewBox="0 0 128 128" style="enable-background:new 0 0 128 128;" xml:space="preserve">
<path style="fill:#ECF0F2;" d="M93.84,81.17c0,0,5.21-5.21,10.7-3.66c5.49,1.55,9.01,4.36,9.43,10.14s-0.96,10.1-5.35,12.95
	c-5.63,3.66-12.39,1.27-12.39,1.27L93.84,81.17z"/>
<path style="fill:#A8A8A8;" d="M60.19,42.6c0,0,4.08-8.87,3.8-20.84c-0.28-11.97-2.96-18.3-8.96-18.07
	c-6.57,0.26-8.61,10.85-8.49,19.62c0.14,10.7,4.04,18.77,4.04,18.77L60.19,42.6z"/>
<path style="fill:#A8A8A8;" d="M46.68,77.74l-10.04,0.84c0,0,0.33,1.03,0.23,1.97c-0.09,0.94-0.33,3.28-0.33,3.28l12.67,9.95
	l24.12-13.42l-6.48-4.41L46.68,77.74z"/>
<g>
	<path style="fill:#8E9395;" d="M19.46,64.95c-0.49,0-0.92-0.36-0.99-0.86c-0.08-0.55,0.3-1.05,0.85-1.13
		c0.11-0.02,2.71-0.38,5.55-0.48c3.14-0.1,3.98-0.13,6.7,0.39c0.54,0.1,0.9,0.63,0.79,1.17c-0.11,0.54-0.63,0.89-1.17,0.79
		c-2.49-0.48-3.21-0.46-6.25-0.36c-2.73,0.09-5.31,0.46-5.34,0.46C19.55,64.94,19.51,64.95,19.46,64.95z"/>
</g>
<g>
	<path style="fill:#8E9395;" d="M18.43,71.89c-0.45,0-0.86-0.31-0.97-0.76c-0.13-0.54,0.2-1.08,0.74-1.21
		c0.14-0.04,3.52-0.86,5.6-1.23c2.07-0.38,5.81-0.83,5.97-0.85c0.55-0.08,1.05,0.32,1.11,0.87c0.07,0.55-0.32,1.05-0.87,1.11
		c-0.04,0-3.84,0.47-5.85,0.84c-2.01,0.37-5.45,1.2-5.48,1.21C18.58,71.88,18.51,71.89,18.43,71.89z"/>
</g>
<path style="fill:#A8A8A8;" d="M80.93,86.75L45.55,109c0,0-7.32,8.26-5.68,10c0.87,0.92,4.29,1.74,7.27,1.08
	c4.27-0.94,7.98-10,7.98-10s-1.88,12.86,1.03,13.42c2.91,0.56,7.13-0.14,9.01-3.61c1.88-3.47,2.53-7.7,4.22-9.48s3.19-3.1,3.19-3.1
	s0.94,1.13,1.5,1.88c0.56,0.75,1.6,1.78,1.6,1.78s-4.39,2.72-5.91,4.88c-1.55,2.21-1.23,4.82,1.03,5.73
	c3.28,1.31,17.46-4.41,17.46-4.41l-2.82-31.44L80.93,86.75z"/>
<path style="fill:#DFDFDF;" d="M75.49,65.54c0,0,0.47-3.38-0.19-6.48c-0.66-3.1-2.53-6.66-2.53-6.66s6.95-2.63,11.92-7.13
	c5.52-5,13.7-14.36,14.45-22.06s-3.85-14.64-15.96-7.32S62.26,41.33,62.26,41.33s-9.57-4.04-17.36,0.19S32.98,56.63,32.6,57.38
	c-0.38,0.75-5.2,2.94-5.82,9.57c-0.61,6.57,3.06,10.28,8.54,11.73c3.82,1.01,7.32,0.19,7.32,0.19s2.91,3.28,10.42,3.19
	c7.51-0.09,13.7-4.04,13.7-4.04s-1.41,5.35-8.17,8.26c-5.07,2.18-11.26,1.88-15.77-0.09s-6.1-4.22-6.1-4.22s-1.6,7.32,0,11.73
	s4.69,10.51,4.5,15.11s-3.14,7.98-1.69,9.85c0.81,1.05,4.15,1.93,6.76-0.84c4.41-4.69,4.24-10,5.82-10.23
	c3.28-0.47,1.69,9.1,1.6,11.07c-0.09,1.97-0.37,4.46,1.78,4.79c4.6,0.7,5.35-1.03,7.32-5.63c1.97-4.6,1.74-6.99,3.75-9.76
	c1.64-2.25,4.41-3.75,4.41-3.75s-0.52-6.24,1.55-9.53c2.06-3.28,6.15-5.87,9.15-4.74c3,1.13-3.61,1.92-5.77,6.62
	c-1.58,3.44-1.27,6.99,0.99,9.43c2.25,2.44,4.97,4.5,4.97,4.5s-10.76,3.88-11.73,7.84c-0.7,2.86,0.47,4.18,7.04,3.52
	s14.92-2.91,18.21-7.04c3.28-4.13,7.48-17.67,3.99-27.55c-2.82-7.98-4.83-11.5-12.06-16.66C80.09,65.54,75.49,65.54,75.49,65.54z"/>
<path style="fill:#FFB0B1;" d="M69.86,43.96c-1.76-1.82,1.31-8.26,8.26-15.67c6.95-7.41,11.73-9.76,14.08-8.07
	c2.35,1.69-1.03,8.92-7.7,15.96C78.98,42,72.77,46.96,69.86,43.96z"/>
<path style="fill:#FFFFFF;" d="M47.66,43.58c2.6,0.56,0.35,4.36-1.83,8.02s-3.8,5.56-3.31,7.32c0.49,1.76,4.29,5.14,4.08,9.15
	c-0.21,4.01-3.59,8.59-9.92,8.09s-8.87-5.35-7.81-10.63c0.84-4.18,5.14-6.12,6.26-8.17c1.13-2.04,2.99-5.47,4.93-8.31
	C42.81,45.06,45.05,43.02,47.66,43.58z"/>
<ellipse transform="matrix(0.0977 -0.9952 0.9952 0.0977 -7.3089 109.578)" style="fill:#2F3030;" cx="56.78" cy="58.82" rx="4.75" ry="3.48"/>
<path style="fill:#2F3030;" d="M34.62,63.24c0,0,3.14-2.58,4.36-1.31c1.22,1.27-3.71,4.32-3.71,4.32s-0.47,2.3,0.94,2.53
	s1.6-2.77,3.14-1.97c1.55,0.8,0.14,4.79-2.58,4.83c-1.62,0.03-2.58-1.17-2.58-1.17s-0.43,0.89-1.88,0.75
	c-2.39-0.23-3.52-5.08-1.74-5.02c1.41,0.05,0.56,2.3,1.88,2.3c1.5,0,0.89-2.67,0.89-2.67s-3.28-3.43-1.83-4.65
	C32.98,59.96,34.62,63.24,34.62,63.24z"/>
<g>
	<path style="fill:#8E9395;" d="M56.53,69.26c-0.12,0-0.23-0.02-0.35-0.06c-0.04-0.01-3.62-1.34-5.92-1.84l-5.44-1.17
		c-0.54-0.12-0.88-0.65-0.77-1.19s0.65-0.88,1.19-0.77l5.44,1.17c2.44,0.53,6.04,1.86,6.19,1.92c0.52,0.19,0.78,0.77,0.59,1.29
		C57.32,69.01,56.94,69.26,56.53,69.26z"/>
</g>
<g>
	<path style="fill:#8E9395;" d="M55.4,75.93c-0.18,0-0.36-0.05-0.53-0.15c-0.03-0.02-3.11-1.93-5.96-3.49
		c-2.82-1.55-5.45-2.61-5.48-2.62c-0.51-0.21-0.76-0.79-0.55-1.3c0.21-0.51,0.79-0.76,1.3-0.55c0.11,0.04,2.76,1.12,5.69,2.73
		c2.9,1.59,6.02,3.53,6.05,3.55c0.47,0.29,0.61,0.91,0.32,1.38C56.07,75.76,55.74,75.93,55.4,75.93z"/>
</g>
</svg>
