<svg xmlns="http://www.w3.org/2000/svg" viewBox="0 0 64 64" enable-background="new 0 0 64 64"><path d="m42.6 30.4c0 0 10.3-2.6 15.6-9.6" fill="none" stroke="#6f6f6d" stroke-width="1.5" stroke-miterlimit="10"/><path d="m54.9 24.1c-.1-2.7.3-4.9 1.1-6.2 1.2-.8 3.4-1.2 6-1.2.1 2.7-.3 4.9-1.1 6.2-1.3.9-3.4 1.3-6 1.2" fill="#6f6f6d"/><g fill="#f4a19a"><ellipse cx="42.2" cy="48" rx="5.2" ry="3.2"/><path d="m40.6 54.1c-.5 0-.9-.5-.9-1.2v-2.8c0-.7.4-1.2.9-1.2.5 0 .9.5.9 1.2v2.8c0 .7-.4 1.2-.9 1.2"/><path d="m43.8 54.1c-.5 0-.9-.5-.9-1.2v-2.8c0-.7.4-1.2.9-1.2.5 0 .9.5.9 1.2v2.8c0 .7-.4 1.2-.9 1.2"/></g><g fill="#cfdae8"><path d="m55.3 36.5c0 6.8-6 12.3-13.5 12.3h-23.9v-24.7h23.9c7.5 0 13.5 5.5 13.5 12.4"/><path d="m32.5 36.3c1.7 0 3.1.9 4 2.2-2.9.2-5.2 2.8-5.2 6 0 3.3 2.5 6.1 5.6 6.1.2 0 .3 0 .5 0v6.4c0 2.8-2.2 5-4.9 5-2.7 0-4.9-2.2-4.9-5v-15.7c0-2.8 2.2-5 4.9-5"/></g><path d="m31.3 44.5c0-3.2 2.3-5.8 5.2-6 .5.8.9 1.8.9 2.8v9.2c-.2 0-.3 0-.5 0-3.1 0-5.6-2.7-5.6-6" fill="#6f6f6d"/><path d="m32.5 62c2.7 0 4.9-2.2 4.9-5h-9.8c0 2.8 2.2 5 4.9 5" fill="#3e4347"/><path d="m16.5 51.2c0-2.2-2.1-4-4.9-4.3v-5.7c0-2.8 2.2-5 4.9-5 2.7 0 4.9 2.2 4.9 5v15.8c0 2.8-2.2 5-4.9 5-2.7 0-4.9-2.2-4.9-5v-1.6c2.7-.2 4.9-2 4.9-4.2" fill="#cfdae8"/><path d="m16.5 51.2c0 2.2-2.1 4-4.9 4.3v-8.5c2.7.2 4.9 2 4.9 4.2" fill="#6f6f6d"/><path d="m16.5 62c-2.7 0-4.9-2.2-4.9-5h9.8c0 2.8-2.2 5-4.9 5" fill="#3e4347"/><path d="m50.8 34.6c1.5 0 2.9.8 3.7 2-2.6.2-4.7 2.6-4.7 5.5 0 3 2.3 5.5 5.1 5.5.2 0 .3 0 .5 0v5.9c0 2.5-2 4.6-4.5 4.6-2.5 0-4.4-2-4.4-4.6v-14.3c-.1-2.5 1.9-4.6 4.3-4.6" fill="#cfdae8"/><path d="m49.8 42.1c0-2.9 2.1-5.3 4.7-5.5.5.7.8 1.6.8 2.6v8.4c-.2 0-.3 0-.5 0-2.8 0-5-2.5-5-5.5" fill="#6f6f6d"/><path d="m50.8 58.1c2.5 0 4.5-2 4.5-4.6h-8.9c0 2.5 2 4.6 4.4 4.6" fill="#3e4347"/><g fill="#f6c799"><path d="m16.6 6.5c-2.7-1.5-4.5-4.5-4.5-4.5-.7 7.9 2.1 9.8 3.7 9.8 2.2.1 3.9-3.7.8-5.3"/><path d="m32.4 6.5c2.7-1.5 4.4-4.5 4.4-4.5.8 7.9-2.1 9.8-3.7 9.8-2.1.1-3.9-3.7-.7-5.3"/></g><path d="m47 7.5c-4.2-.1-7.7.5-9.8 2-1.3 2.2-2 6.1-1.9 10.8 4.2.1 8.1-.1 9.8-2 1.7-1.9 2-6.1 1.9-10.8" fill="#6f6f6d"/><path d="m45.9 10.3c-3-.1-5.4.4-6.9 1.4-.9 1.6-1.4 4.2-1.3 7.6 3 .1 5.6-.1 6.9-1.4 1.2-1.3 1.4-4.3 1.3-7.6" fill="#f4a19a"/><path d="m2 7.5c4.2-.1 7.7.5 9.8 2 1.3 2.2 2 6.1 1.9 10.8-4.2.1-8.1-.1-9.8-2-1.7-1.9-2-6.1-1.9-10.8" fill="#6f6f6d"/><path d="m3.1 10.3c3-.1 5.4.4 6.9 1.4.9 1.6 1.4 4.2 1.3 7.6-3 .1-5.6-.1-6.9-1.4-1.2-1.3-1.4-4.3-1.3-7.6" fill="#f4a19a"/><path d="m40.3 29.2c0 10.6-15.7 16.5-15.7 16.5 0 0-15.7-5.9-15.7-16.5 0-15.6 6.1-23.7 15.7-23.7 9.5 0 15.7 5.8 15.7 23.7" fill="#dae5ef"/><g fill="#6f6f6d"><path d="m34.5 9c-5.3 5.7-8.9 13-3.6 19.7 3.5 4.4 6.3 4.4 8.9 3.7.3-1 .5-2 .5-3.1 0-10.5-1.6-16.8-5.8-20.3"/><path d="m18.1 28.7c5.2-6.6 1.8-13.7-3.3-19.3-4.5 3.8-6.1 10.5-6.1 19.9 0 1.1.2 2.2.5 3.1 2.6.7 5.4.7 8.9-3.7"/></g><path d="m30.1 23.9c0 0 1.8 3 5.1 2 3.3-1 3.5-4.5 3.5-4.5s-1.8-3-5.1-2c-3.4 1-3.5 4.5-3.5 4.5" fill="#fff"/><g fill="#3e4347"><ellipse cx="34.4" cy="22.7" rx="2.5" ry="2.9"/><path d="m30.1 23.9c0 0 2.8-4.4 7.3-2.6 2.8 1.1 3.8-.7 3.8-.7-1.5.2-2.1-.4-3.8-1.2-3.1-1.5-7.3-.7-7.3 4.5"/></g><path d="m18.9 23.9c0 0-1.8 3-5.1 2-3.3-1-3.5-4.5-3.5-4.5s1.8-3 5.1-2c3.4 1 3.5 4.5 3.5 4.5" fill="#fff"/><g fill="#3e4347"><ellipse cx="14.6" cy="22.7" rx="2.5" ry="2.9"/><path d="m18.9 23.9c0 0-2.8-4.4-7.3-2.6-2.8 1.1-3.8-.7-3.8-.7 1.5.2 2.1-.4 3.8-1.2 3.1-1.5 7.3-.7 7.3 4.5"/></g><path d="m11.6 36.7c0-6.1 3-3 12.9-3 9.9 0 12.9-3.1 12.9 3 0 8.7-6.1 10.3-12.9 10.3-6.8 0-12.9-1.7-12.9-10.3" fill="#f4a19a"/><g fill="#bc6464"><path d="m20.3 38.1c-.9-2.5-2.6-3.9-3.8-3.2-1.2.8-1.4 3.5-.6 6 .9 2.5 2.6 3.9 3.8 3.2 1.2-.8 1.5-3.5.6-6"/><path d="m32.5 34.9c-1.2-.8-2.9.6-3.8 3.2-.9 2.5-.6 5.2.5 6 1.2.8 2.9-.6 3.8-3.2.9-2.5.7-5.2-.5-6"/></g></svg>