<?xml version="1.0" encoding="utf-8"?>
<!-- Generator: Adobe Illustrator 24.1.2, SVG Export Plug-In . SVG Version: 6.00 Build 0)  -->
<svg version="1.1" id="Layer_3" xmlns="http://www.w3.org/2000/svg" xmlns:xlink="http://www.w3.org/1999/xlink" x="0px" y="0px"
	 viewBox="0 0 128 128" style="enable-background:new 0 0 128 128;" xml:space="preserve">
<path style="fill:#FEEED1;" d="M26.05,70.79c0,0,0.33,3.83,1.94,4.54c1.62,0.71,3.09,0.6,3.86-0.05c0.77-0.65,1.92-4.03,1.92-4.03
	L29.92,71L26.05,70.79z"/>
<g>
	<path style="fill:#A8A8A8;" d="M24.26,62.78c-0.12,0-0.25-0.02-0.37-0.07c-0.02-0.01-2.51-0.93-5.49-1.39
		c-2.84-0.44-5.25-0.39-5.27-0.39c-0.57,0.03-1.08-0.45-1.09-1.04c-0.01-0.59,0.45-1.08,1.04-1.09c0.11,0,2.61-0.05,5.64,0.41
		c3.2,0.49,5.8,1.46,5.91,1.5c0.55,0.21,0.83,0.82,0.63,1.38C25.1,62.51,24.69,62.78,24.26,62.78z"/>
</g>
<g>
	<path style="fill:#A8A8A8;" d="M12.54,68.15c-0.38,0-0.75-0.21-0.95-0.57c-0.28-0.52-0.08-1.17,0.44-1.45
		c0.11-0.06,2.72-1.44,5.55-2.1c2.8-0.66,5.71-0.75,5.83-0.75c0.58-0.02,1.08,0.45,1.1,1.04c0.02,0.59-0.45,1.08-1.04,1.1
		c-0.03,0-2.82,0.09-5.4,0.69c-2.56,0.6-5.02,1.9-5.04,1.91C12.88,68.11,12.71,68.15,12.54,68.15z"/>
</g>
<g>
	<path style="fill:#A8A8A8;" d="M14.79,74.17c-0.31,0-0.62-0.14-0.83-0.4c-0.37-0.46-0.3-1.13,0.16-1.5
		c0.09-0.07,2.15-1.73,4.41-3.26c2.27-1.54,5.65-3.35,5.79-3.43c0.52-0.28,1.17-0.08,1.45,0.44c0.28,0.52,0.08,1.17-0.44,1.45
		c-0.03,0.02-3.43,1.84-5.6,3.31c-2.18,1.48-4.24,3.14-4.26,3.16C15.26,74.1,15.03,74.17,14.79,74.17z"/>
</g>
<path style="fill:#A8A8A8;" d="M58.99,35.81c0,6.87-4.13,12.42-11.05,12.42s-13.58-3.74-13.77-11.98
	c-0.16-6.87,3.71-12.1,10.96-12.94C53.44,22.34,58.99,28.94,58.99,35.81z"/>
<path style="fill:#FEACAB;" d="M94.85,91.45c0,0,6.38,1.44,9.39,5.18c1.76,2.19,2.53,7.67-0.12,10.19
	c-2.65,2.53-6.26,4.37-17.1,4.13c-10.84-0.24-16.25-0.6-21.31-0.24c-3.09,0.22-8.19,0.84-11.44,5.06c-2,2.59-3.72,6.82-2.17,7.46
	c1.44,0.6,3.59-5.72,8.19-7.1c6.38-1.93,18.82,0.45,24.68,0.9c8.49,0.66,19.34,1.4,25.24-6.36c2.44-3.21,3.08-6.68,3.15-9.77
	c0.12-5.15-2.57-9.77-6.48-12.71c-6.26-4.7-9.63-4.58-9.63-4.58L94.85,91.45z"/>
<path style="fill:#FEACAB;" d="M78.56,98.83c0,0-6.38,0.6-8.79,1.69c-2.41,1.08-3.97,3.13-3.01,4.45c0.96,1.32,4.09-0.36,7.83-0.48
	c3.73-0.12,9.15,0.48,12.4-0.24c3.25-0.72,4.21-3.49,4.7-4.7C92.17,98.35,78.56,98.83,78.56,98.83z"/>
<path style="fill:#FEACAB;" d="M47.66,99.15l-2.29,0.96c0,0-1.83,0.4-2.69,2.01c-0.96,1.81,1.85,1.97,3.41,1.97s2.21-0.32,2.21-0.32
	s0.8,0.92,2.61,1.04c1.81,0.12,3.97-0.12,5.06-0.84c1.08-0.72,0.96-2.77,0.96-2.77L47.66,99.15z"/>
<path style="fill:#A9A9A9;" d="M48.14,82.3c0,0-2.77-2.05-2.77,0.24c0,2.29,1.57,9.39,1.57,10.59s-1.87,3.04-2.21,5.02
	c-0.32,1.89,0.44,3.01,2.81,3.09c2.29,0.08,4.09-1,4.09-1l3.85-11.68L48.14,82.3z"/>
<path style="fill:#DFDFDF;" d="M50.87,41.56c0,0,0.88-12.84,12.64-13.4c10.1-0.48,15.77,7.99,14.33,17.02
	c-1.44,9.03-9.87,10.47-9.87,10.47s6.5-0.06,9.81,0.3c3.55,0.39,14.03,1.99,18.84,9.93c4.82,7.95,5.66,16.49,2.89,23.72
	c-2.41,6.29-6.02,8.43-7.95,9.15c-1.93,0.72-7.22,1.69-9.51,1.69s-7.1-3.13-7.1-3.13l-11.32,0.6c0,0-4.08,3.15-5.41,3.75
	c-1.32,0.6-7.44,1.41-9.78-0.1c-1.34-0.86,0.14-2.57,0.62-5.58c0.48-3.01,0.68-3.61,0.6-4.78c-0.08-1.16-3.97-4.62-5.42-8.95
	c-0.89-2.66-1.93-6.74-1.93-6.74l-0.36-1.93l-7.22-1.93c0,0-3.13,1.2-5.78,0.6s-4.09-2.65-4.94-4.45c-0.84-1.81-1.03-5.29-0.9-6.43
	c0.17-1.43,3.52-6.56,8.82-11.51c4.32-4.03,8.53-6.3,12.62-7.26S50.87,41.56,50.87,41.56z"/>
<path style="fill:#FFA7A6;" d="M70.94,35.74c-2.77-2.89-8.67-3.37-12.4,0.96c-3.12,3.62-2.71,8.96,0,11.68
	c2.89,2.89,9.28,3.16,12.76-1.08C74.07,43.93,73.47,38.39,70.94,35.74z"/>
<path style="fill:#A9A9A9;" d="M62.83,96.38c0,0-1.99,1.92-3.45,2.85c-3.09,1.97-5.78,1.81-5.7,2.93c0.03,0.48,3.69,0.52,6.46-0.92
	c2.42-1.26,3.53-2.33,3.53-2.33l12.32-0.12c0,0,3.37,2.29,7.54,2.41c7.46,0.22,10.43-2.77,12.12-4.45c1.69-1.69,3.49-5.02,2.05-4.05
	c-1.44,0.96-6.43,5.33-11.24,5.58c-3.68,0.19-7.22-0.28-9.66-3.33c-1.46-1.83-1.71-4.65-0.9-8.31c1.24-5.58,5.79-7.63,8.07-7.1
	c4.13,0.96,4.13-1.61-0.04-3.05c-4.53-1.57-9.76,1.28-11.72,8.71C70.53,91.57,73.3,95.9,73.3,95.9S64.27,95.9,62.83,96.38z"/>
<path style="fill:#2A2A2A;" d="M45.77,58.98c-0.63,1.82-2.69,2.7-4.17,2.17c-1.49-0.53-2.04-2.55-1.39-4.37
	c0.65-1.82,2.38-2.86,3.87-2.32C45.57,54.99,46.66,56.41,45.77,58.98z"/>
<path style="fill:#FFA7A6;" d="M23.32,65.41l2.63-0.01l3.29-2.97c0,0-1.69-1.77-3.13-2.25c-1.44-0.48-2.36-0.34-2.36-0.34
	s-0.86,1.15-0.93,2.75C22.76,64.01,23.32,65.41,23.32,65.41z"/>
<path style="fill:#A9A9A9;" d="M48.26,72.12c4.45-0.54,8.67-2.53,10.51-5.12c1.35-1.9,2.49-3.85,3.69-3.05s-0.66,3.68-2.93,5.66
	c-2.19,1.91-6.34,4.68-11.52,4.78c-4.44,0.09-8.65-0.18-11.16-0.84c-2.29-0.6-4.82-1.73-4.82-1.73s-1.85,1.12-3.13,0.56
	c-1.28-0.56-4.09-1.57-4.82-3.61c-0.26-0.75-1.37-3.07-0.48-3.29c1.44-0.36,1.4,0.52,1.69,1.2c0.28,0.68,0.72,2.09,1.36,2.57
	c0.64,0.48,2.33,1.93,3.29,1.93c0.96,0,5.46-0.72,5.46-0.72S42.87,72.78,48.26,72.12z"/>
<path style="fill:#434B55;" d="M29.72,62.27c-0.8-0.52-1.57,0.32-2.57,1.08s-1.93,1.28-2.65,1.32c-0.72,0.04-2.05,0.04-1.93,1.16
	c0.12,1.12,1.28,1,2.13,0.92c0.84-0.08,2.69-0.76,3.53-1.44C29.08,64.64,31.03,63.12,29.72,62.27z"/>
<path style="fill:#434B55;" d="M24.74,68.53c-0.81,0.69-0.16,1.44,0.88,2.49c1.2,1.2,3.05,1.91,4.41,1.97
	c1.81,0.08,3.85-0.56,5.58-2.25c1.63-1.59-0.04-2.93-1.53-2.17s-3.41,1.89-4.09,1.85c-1-0.06-2.69-1.2-3.21-1.53
	C26.27,68.57,25.55,67.85,24.74,68.53z"/>
</svg>
