<?xml version="1.0" encoding="UTF-8" standalone="no"?><svg xmlns:dc="http://purl.org/dc/elements/1.1/" xmlns:cc="http://creativecommons.org/ns#" xmlns:rdf="http://www.w3.org/1999/02/22-rdf-syntax-ns#" xmlns:svg="http://www.w3.org/2000/svg" xmlns="http://www.w3.org/2000/svg" viewBox="0 0 45 45" style="enable-background:new 0 0 45 45;" xml:space="preserve" version="1.1" id="svg2"><metadata id="metadata8"><rdf:RDF><cc:Work rdf:about=""><dc:format>image/svg+xml</dc:format><dc:type rdf:resource="http://purl.org/dc/dcmitype/StillImage"/></cc:Work></rdf:RDF></metadata><defs id="defs6"><clipPath id="clipPath16" clipPathUnits="userSpaceOnUse"><path id="path18" d="M 0,36 36,36 36,0 0,0 0,36 Z"/></clipPath></defs><g transform="matrix(1.25,0,0,-1.25,0,45)" id="g10"><g id="g12"><g clip-path="url(#clipPath16)" id="g14"><g transform="translate(11.8403,28.3657)" id="g20"><path id="path22" style="fill:#dd2e44;fill-opacity:1;fill-rule:nonzero;stroke:none" d="m 0,0 c -0.719,0 -2.295,-2.243 -3.567,-1.029 -0.44,0.42 1.818,1.278 1.727,2.017 -0.075,0.608 -2.843,1.52 -1.876,2.099 0.967,0.578 2.418,-0.841 3.513,-0.866 C 2.179,2.166 4.009,3.074 4.035,3.087 4.576,3.361 5.23,3.139 5.499,2.591 5.769,2.044 5.55,1.378 5.011,1.105 4.881,1.039 2.786,0 0,0"/></g><g transform="translate(27.8184,0)" id="g24"><path id="path26" style="fill:#77b255;fill-opacity:1;fill-rule:nonzero;stroke:none" d="m 0,0 c -3.967,0 -8.182,2.912 -8.182,8.308 0,1.374 -0.889,1.661 -1.636,1.661 -0.746,0 -1.637,-0.287 -1.637,-1.661 0,-5.396 -4.216,-8.308 -8.182,-8.308 -3.966,0 -8.181,2.77 -8.181,8.308 0,13.292 14.181,15.127 14.181,13.292 0,-1.835 -7.636,1.108 -7.636,-12.185 0,-2.215 0.89,-2.769 1.636,-2.769 0.747,0 1.637,0.288 1.637,1.662 0,5.395 4.215,8.307 8.182,8.307 3.965,0 8.181,-2.912 8.181,-8.307 0,-1.374 0.89,-1.662 1.637,-1.662 0.747,0 1.636,0.288 1.636,1.662 l 0,16.615 c 0,3.855 -3.417,4.431 -5.454,4.431 0,0 -3.273,-1.108 -6.546,-1.108 -3.273,0 -4.364,2.596 -4.364,4.431 0,1.835 4.364,3.323 10.91,3.323 6.545,0 12,-4.451 12,-11.077 l 0,-16.615 C 8.182,2.912 3.966,0 0,0"/></g><g transform="translate(20,33)" id="g28"><path id="path30" style="fill:#292f33;fill-opacity:1;fill-rule:nonzero;stroke:none" d="m 0,0 c 0,-0.552 -0.447,-1 -1,-1 -0.553,0 -1,0.448 -1,1 0,0.552 0.447,1 1,1 0.553,0 1,-0.448 1,-1"/></g></g></g></g></svg>
