<?xml version="1.0" encoding="utf-8"?>
<!-- Generator: Adobe Illustrator 24.1.2, SVG Export Plug-In . SVG Version: 6.00 Build 0)  -->
<svg version="1.1" id="Layer_3" xmlns="http://www.w3.org/2000/svg" xmlns:xlink="http://www.w3.org/1999/xlink" x="0px" y="0px"
	 viewBox="0 0 128 128" style="enable-background:new 0 0 128 128;" xml:space="preserve">
<path style="fill:#A05D43;" d="M28.43,53.34c0,0,1.67-18.16,23.03-28.02c24.95-11.52,50.69,4.77,57.49,24.57
	c5.81,16.91-0.67,34.36-7.2,40.12s-15.16,20.54-42.23,19.39C32.46,108.24,23.05,67.93,28.43,53.34z"/>
<path style="fill:#D27856;" d="M49.93,102.48c3.95,4.1,15.93,7.1,26.68,3.65c10.75-3.45,11.32-6.72,11.32-6.72
	s-16.12,5.18-25.91,0.77c-9.79-4.41-15.36-23.03-15.36-23.03S39.75,91.92,49.93,102.48z"/>
<path style="fill:#E9BB91;" d="M22.67,50.61c-2.17,1.63-4.03,4.89-5.18,7.05c-1.15,2.16-1.44,4.46-5.18,6.77
	c-3.74,2.3-6.91,1.3-7.92,2.3s0.43,4.75,5.04,5.33c4.61,0.58,6.62-0.72,6.62-0.72s0.43,10.65,0.43,16.41s3.17,28.2,21.31,31.53
	c14.64,2.69,22.89-0.91,26.92-3.07c6.92-3.71,8.78-6.14,13.68-7.73c4.89-1.58,7.98,0.02,13.2-2.06c5.76-2.3,6.91-8.06,10.36-10.65
	c3.45-2.59,6.29-1.87,9.6-4.61c3.31-2.74,2.59-5.57,8.01-10.32c2.07-1.81,4.46-3.31,5.04-4.89c0.58-1.58-7.77-2.02-9.79-2.02
	c-2.02,0-4.82,0.07-4.82,0.07s-1.08,4.39-2.38,7.13c-1.3,2.74-10.51,15.12-13.39,16.41c-2.88,1.3-4.8,1.3-6.29,1.87
	c-1.49,0.58-9.41,4.61-12.72,5.04c-3.31,0.43-13.93,2.9-20.01-3.41c-5.09-5.28-6.33-12.28-6.62-16.17
	c-0.29-3.89-0.29-14.11-0.29-14.11s1.73,2.06,7.39,2.06c3.46,0,6.14-3.62,5.47-4.89c-0.86-1.63-4.77-1.13-6.62-2.21
	c-2.3-1.34-4.61-4.89-5.18-6.53c-0.54-1.52-1.87-5.33-4.22-7.49c-2.42-2.22-5.85-4.03-11.52-3.93
	C28.43,47.86,25.55,48.45,22.67,50.61z"/>
<path style="fill:#E9BB91;" d="M44.41,54.21c0,0,2.3-22.6,2.59-26.2c0.29-3.6,1.73-12.09,1.73-14.54s-0.72-6.62-5.04-7.05
	s-5.76,4.89-5.9,8.49c-0.14,3.6-1.73,34.55-1.73,34.55l-6.19-0.14c0,0,0.14-19.43,0.29-23.46c0.14-4.03,0.14-10.94,0.14-12.38
	s0-7.49-5.47-7.2c-5.47,0.29-4.89,6.62-5.04,8.64s0.86,16.55,1.01,19.43c0.14,2.88,1.44,18.86,1.44,18.86L44.41,54.21z"/>
<path style="fill:#D27856;" d="M33.23,60.35c0,0-1.82,3.93-4.41,3.93s-2.59-2.21-3.93-1.34c-1.34,0.86-0.58,4.8,2.88,5.47
	c3.45,0.67,5.47-1.25,5.47-1.25s2.07,1.44,4.03,1.44c2.5,0,5.28-3.65,4.22-5.28c-1.06-1.63-2.88,1.25-4.61,1.15
	C35.15,64.38,33.23,60.35,33.23,60.35z"/>
<path style="fill:#D27856;" d="M59.2,26.07c-4.65,1.4-6.52,3.35-7.92,4.67c-1.4,1.32-1.92,4.34-0.27,6.09
	c1.65,1.75,4.57,1.18,6.12,0.08c1.55-1.1,3.01-2.21,5.37-2.87c2.35-0.66,5.89-0.83,6.97-1.43c1.08-0.59,1.86-2.31,1.49-4.12
	c-0.37-1.82-1.36-2.86-4-3.32C65,24.83,62.28,25.14,59.2,26.07z"/>
<path style="fill:#D27856;" d="M74.21,28.68c0,1.34,0.38,2.4,2.88,2.69c2.79,0.32,3.84-1.06,3.74-2.5c-0.1-1.46-0.77-2.3-2.78-2.69
	C76.03,25.8,74.21,26.66,74.21,28.68z"/>
<path style="fill:#2E2C2F;" d="M46.66,16.39c-0.49,4.1-1.75,7.14-3.84,6.91c-3.02-0.34-2.98-3.74-2.98-7.87
	c0-3.87,1.14-6.9,4.13-6.57C46.83,9.17,47.12,12.55,46.66,16.39z"/>
<path style="fill:#2E2C2F;" d="M28.54,16.01c-0.12,4.13-1.36,6.85-3.29,7.01c-2.29,0.19-3.61-3.55-3.73-7.58
	c-0.11-3.87,0.71-6.39,3.53-6.57C28.36,8.64,28.65,12.14,28.54,16.01z"/>
<path style="fill:#4F352E;" d="M88.99,92.59c-5.94-0.33-14.78-5.95-15.07-22.55s6.15-23.86,13.24-22.65
	c6.72,1.15,7.87,10.17,7.1,16.41c-0.77,6.24-2.59,13.34-6.72,11.32c-4.13-2.02-1.92-9.69-1.06-11.52c0.86-1.82,2.11-3.93,0.86-5.18
	c-1.25-1.25-4.03,0.29-5.18,2.59c-1.15,2.3-3.55,7.77-1.25,15.07c2.3,7.29,11.8,8.16,15.55,0.77c3.74-7.39,4.61-21.21,1.34-27.64
	c-3.26-6.43-13.92-13.63-24.18-1.82c-9.92,11.41-6.24,31.57-3.84,37.52c2.4,5.95,7.49,13.15,17.56,14.4s18.62-10.65,19.29-11.71
	c0.67-1.06,3.26-4.51,0.96-6.48c-2.3-1.97-4.89,2.54-5.57,3.5C101.37,85.59,95.9,92.98,88.99,92.59z"/>
</svg>
