<?xml version="1.0" encoding="utf-8"?>
<!-- Generator: Adobe Illustrator 24.1.2, SVG Export Plug-In . SVG Version: 6.00 Build 0)  -->
<svg version="1.1" id="Layer_3" xmlns="http://www.w3.org/2000/svg" xmlns:xlink="http://www.w3.org/1999/xlink" x="0px" y="0px"
	 viewBox="0 0 128 128" style="enable-background:new 0 0 128 128;" xml:space="preserve">
<path style="fill:#FFD2B1;" d="M28.94,63.15c0,0-2.39,6.9-0.99,14.22c1.41,7.32,3.38,14.08,3.38,14.08s0.42,14.36,0,15.91
	c-0.42,1.55-3.66,3.52-3.66,6.34s1.03,6.38,6.24,7.23s9.43-0.89,11.17-3c2.51-3.05,2.02-5.21,2.02-7.46c0-2.25,0.14-15.2,0.7-17.18
	c0.56-1.97,1.41-3.1,2.96-2.96c1.55,0.14,3.24,2.53,3.38,7.04c0.14,4.5,0.28,12.39,0.14,13.94c-0.14,1.55-1.55,6.76-0.42,8.87
	c1.13,2.11,6.24,4.16,10.18,3.94c5.16-0.28,8.26-3.52,8.54-6.05c0.28-2.53-1.41-8.31-1.41-10c0-1.69,1.97-13.23,2.53-13.94
	c0.56-0.7,2.28-0.55,6.05-2.25c3.43-1.55,5.26-3.1,5.26-3.1s0.09,10-0.05,11.12c-0.14,1.13-3.52,4.65-2.96,7.32
	c0.56,2.67,3.86,4.23,6.8,4.5c4.97,0.47,9.81-3.38,11.07-6.76c1.27-3.38,0.7-7.6,0.42-9.85c-0.28-2.25-0.28-10.14,0-12.25
	c0.28-2.11,0.74-3.39,0.92-4.5c0.28-1.83,0.21-3.87,0.21-3.87s4.86,0,7.74-1.9s5.91-5.21,7.25-9.29c1.31-3.99,0.99-5.21-0.14-5.35
	c-1.13-0.14-6.19,6.96-10.49,7.18c-6.83,0.35-6.15-6.97-11.36-11.4c-5.87-5-15.02-5.63-15.02-5.63s1.58-5.91,1.6-10.28
	c0.07-19.08-9.22-25.55-9.22-25.55S60.61,3.95,47.94,4.51S25.98,15.14,25.98,15.14L19.01,45.9c0,0,1.76,5.91,4.58,10.21
	C26.55,60.61,28.94,63.15,28.94,63.15z"/>
<path style="fill:none;stroke:#6BA3AB;stroke-miterlimit:10;" d="M98.27,58.29"/>
<path style="fill:#865B52;" d="M20.14,8.32C9.79,8.53,4.32,17.35,4.16,22.75c-0.09,3.17-1.34,26.21,11.4,26.68
	c5.11,0.19,8.91-5.74,10.84-12.46c2.43-8.47,2.32-16.96,2.6-19.22c0.45-3.61,1.2-6.26,1.2-6.26S28.94,8.14,20.14,8.32z"/>
<path style="fill:#865B52;" d="M75.54,4.8c11.26,0.42,15.1,5.41,16.19,8.31c1.2,3.17,2.25,14.48,0.49,22.03
	c-1.43,6.16-3.59,9.29-8.66,9.08c-4.64-0.19-6.99-6.88-10.49-15.98c-3.38-8.8-5.97-16.68-6.41-17.81c-0.56-1.48-1.76-2.11-1.76-2.11
	S67.15,4.48,75.54,4.8z"/>
<path style="fill:#D27856;" d="M62.66,27.67c-5.56,0.35-8.22,6.53-7.04,12.74c1.27,6.69,5.66,9.86,11.19,9.15
	c6.05-0.77,7.88-7.67,7.11-12.88C73.21,31.94,70.53,27.17,62.66,27.67z"/>
<path style="fill:#060401;" d="M69.2,39c0,2.92-1.62,5.36-4.19,5.29c-3.49-0.1-4.4-3.19-4.33-5.79c0.08-3.04,1.9-4.48,4.5-4.41
	C67.5,34.14,69.2,36.08,69.2,39z"/>
<path style="fill:#060401;" d="M39.85,40.61c0,3.04-1.62,5.58-4.19,5.5c-3.49-0.1-4.4-3.32-4.33-6.03c0.08-3.17,2.25-4.52,4.29-4.37
	C37.93,35.88,39.85,37.57,39.85,40.61z"/>
<path style="fill:#060401;" d="M53.22,57.59c0,0,6.12-0.63,5.84-5.07c-0.28-4.43-4.43-4.72-7.67-4.65
	c-3.24,0.07-7.88,1.76-7.39,5.49c0.49,3.73,5.77,4.22,5.77,4.22s-0.01,2.76-1.83,2.96c-1.97,0.21-4.79-2.82-5.56-3.59
	c-0.77-0.77-1.97-0.49-2.39,0.14s-0.14,2.04,1.06,3.24s4.01,4.22,6.83,3.94c2.82-0.28,2.89-1.76,4.01-1.83
	c1.13-0.07,1.06,1.62,3.87,1.55c1.98-0.05,5.97-3.53,6.69-4.15c1.62-1.41,2.04-2.82,1.34-3.73s-2.67,0.42-3.73,1.2
	c-1.06,0.77-2.77,2.59-4.43,2.89C52.87,60.69,53.22,57.59,53.22,57.59z"/>
<path style="fill:#D27856;" d="M78.21,50.99c0,0-1.33,2.92-2.44,5.26c-1.34,2.82-3.26,5.28-3.26,5.28s2.17,14.84,15.08,13.56
	c4.62-0.46,8.12-4.08,8.45-7.92c0.56-6.48-1.9-9.51-5.72-12.47C84.13,49.92,78.21,50.99,78.21,50.99z"/>
<path style="fill:#D27856;" d="M69.27,74.2c-2.29,2.1-1.06,6.05,1.97,6.48c3.03,0.42,4.66-2.1,4.43-4.01
	C75.33,73.71,71.88,71.81,69.27,74.2z"/>
<path style="fill:#D27856;" d="M39.36,70.3c0,0-2.02,5.54,2.25,12.48c1.82,2.95,5.87,4.61,8.73,4.5c3.02-0.11,5.75-1.16,8.09-4.08
	c3.73-4.65,2.67-12.39,2.67-12.39s-5.91,2.43-11.33,2.25C44,72.88,39.36,70.3,39.36,70.3z"/>
<path style="fill:#D27856;" d="M31.99,112.7c-1.47-0.45-2.06,1.83-2.16,3.28s-0.09,3.33,1.22,3.8c1.31,0.47,1.05-2.32,1.17-3.24
	C32.46,114.77,33.54,113.17,31.99,112.7z"/>
<path style="fill:#D27856;" d="M37.76,113.55c-0.88-0.04-1.81,0.85-1.92,3.43c-0.09,2.16,0,3.94,1.22,4.04
	c1.64,0.13,1.18-1.97,1.27-3.71C38.37,116.32,39.59,113.64,37.76,113.55z"/>
<path style="fill:#D27856;" d="M60.15,116.36c-1.41,0-1.45,1.6-1.45,3.33c0,1.74-0.36,3.89,1.22,4.08c1.92,0.23,1.55-2.35,1.55-3.8
	C61.46,118.71,61.69,116.36,60.15,116.36z"/>
<path style="fill:#D27856;" d="M66.53,116.04c-1.13,0.23-1.03,1.78-0.99,3.66c0.05,1.88-0.23,3.87,1.36,3.71
	c1.36-0.14,1.27-2.35,1.22-4.04C68.08,117.91,68.27,115.67,66.53,116.04z"/>
<path style="fill:#D27856;" d="M85.86,103.81c-0.97-0.19-2.07,0.63-2.35,2.82c-0.23,1.88-0.14,3.53,1.5,3.89
	c0.84,0.19,0.99-1.97,1.03-3.52C86.09,105.66,87.08,104.05,85.86,103.81z"/>
<path style="fill:#D27856;" d="M91.16,104.95c-0.93-0.15-1.84,0.42-2.08,2.75c-0.14,1.36-0.64,3.8,1.05,3.89
	c1.31,0.06,1.21-2.09,1.33-3.21C91.65,106.61,92.69,105.21,91.16,104.95z"/>
</svg>
