<?xml version="1.0" encoding="utf-8"?>
<!-- Generator: Adobe Illustrator 24.1.2, SVG Export Plug-In . SVG Version: 6.00 Build 0)  -->
<svg version="1.1" id="Chicken" xmlns="http://www.w3.org/2000/svg" xmlns:xlink="http://www.w3.org/1999/xlink" x="0px" y="0px"
	 viewBox="0 0 128 128" style="enable-background:new 0 0 128 128;" xml:space="preserve">
<path style="fill:#B1B1B1;" d="M113.97,96.23L37.1,98.91c0,0-3,13.81-2.25,16.05c0.28,0.84,9.85-8.45,9.85-8.45
	s11.97,14.78,12.81,14.64c0.84-0.14,10-9.43,10-9.43s13.66,11.4,14.64,11.4s9.29-12.11,9.29-12.11s10.56,7.6,11.26,7.46
	c0.7-0.14,7.88-11.54,7.88-11.54s11.22,3.33,12.34,3.05C124.06,109.7,117.91,97.78,113.97,96.23z"/>
<path style="fill:#E0E0E0;" d="M33.16,54.98l-0.66-17.69l11.97-11.54l26.56,0.38c0,0,7.04,6.34,8.87,7.46
	c1.83,1.13,8.24,4.38,19.83,18.59c6.17,7.57,11.15,20.26,12.55,23.64s10.84,33.08,10.84,33.93s-11.54-9.43-12.25-8.87
	c-0.7,0.56-7.46,13.51-8.31,13.8c-0.84,0.28-10.28-9.15-11.26-8.73s-8.73,13.8-9.29,13.8S69.91,105.38,68.5,105.1
	c-1.41-0.28-10,11.68-11.12,11.68c-1.13,0-11.4-16.61-12.67-16.61s-9.2,13.05-9.9,13.61s-2.21-20.51-2.49-23.04
	S33.16,54.98,33.16,54.98z"/>
<g>
	<path style="fill:#FFFFFF;" d="M59.44,83.06c-1.07,0-2.06-0.69-2.39-1.77l-1.78-5.82c-0.4-1.32,0.34-2.72,1.66-3.12
		c1.32-0.4,2.72,0.34,3.12,1.66l1.78,5.82c0.4,1.32-0.34,2.72-1.66,3.12C59.93,83.02,59.68,83.06,59.44,83.06z"/>
</g>
<g>
	<path style="fill:#FFFFFF;" d="M79.81,89.63c-0.98,0-1.91-0.58-2.31-1.54l-2.82-6.76c-0.53-1.28,0.07-2.74,1.35-3.27
		c1.28-0.53,2.74,0.07,3.27,1.35l2.82,6.76c0.53,1.28-0.07,2.74-1.35,3.27C80.46,89.57,80.13,89.63,79.81,89.63z"/>
</g>
<g>
	<path style="fill:#FFFFFF;" d="M93.32,81.18c-0.94,0-1.83-0.53-2.26-1.43l-2.53-5.35c-0.59-1.25-0.06-2.74,1.19-3.33
		c1.25-0.59,2.74-0.06,3.33,1.19l2.53,5.35c0.59,1.25,0.06,2.74-1.19,3.33C94.05,81.1,93.68,81.18,93.32,81.18z"/>
</g>
<g>
	<path style="fill:#FFFFFF;" d="M77.18,63.91c-0.79,0-1.57-0.38-2.06-1.08l-4.6-6.66c-0.78-1.14-0.5-2.69,0.64-3.48
		c1.14-0.79,2.69-0.5,3.48,0.64l4.6,6.66c0.78,1.14,0.5,2.69-0.64,3.48C78.17,63.77,77.67,63.91,77.18,63.91z"/>
</g>
<path style="fill:#FF615E;" d="M44.43,69.48c3,0.23,29.14-4.04,19.8-24.68c-7.22-15.97-27.5-1.97-31.25,3.57
	c-0.68,1.01-1.92,16.89-1.92,16.89S22.04,78.21,25,85.39s11.74,8.54,17.03,2.39C46.4,82.72,44.85,71.88,44.43,69.48z"/>
<path style="fill:#FF615E;" d="M35.13,38.23c2.08-3.22,8.87-10,19.57-10.42c10.7-0.42,16.19,1.69,18.16,2.53
	c1.97,0.84,7.6,3.66,7.6,3.66s10.58-5,10.16-15.98S78.92,6.27,74.55,8.67s-5.07,5.91-8.31,6.05c-3.24,0.14-5.77-7.74-15.91-3.8
	c-8.63,3.36-5.85,11.63-9.01,13.66c-3.52,2.25-11.12-2.53-16.47,4.93s1.27,14.22,2.67,15.35c1.41,1.13,6.05,3.71,6.05,3.71
	S32.04,43.02,35.13,38.23z"/>
<path style="fill:#FBBB02;" d="M41.42,65.07c1.3-0.69,0.28-6.29-2.91-10.7s-5.63-6.29-5.63-6.29s-11.54,2.63-18.96,6.76
	c-4.14,2.31-9.24,7.37-8.68,9.24c0.56,1.88,11.19,1.39,20.13,1.13C34.85,64.93,39.83,65.92,41.42,65.07z"/>
<path style="fill:#FE5F12;" d="M5.19,63.34c0,0,10.75-0.75,15.58-1.41c4.83-0.66,7.96-1.11,9.81-1.55c1.97-0.47,6.19-1.69,6.19-1.69
	l0.28,1.97c0,0-10.23,2.3-16.14,2.82c-5.2,0.45-13.7,1.08-14.41,1.08s-1.13-0.33-1.31-0.56S5.19,63.34,5.19,63.34z"/>
<ellipse style="fill:#FE5F12;" cx="37.83" cy="59.51" rx="1.62" ry="1.67"/>
<path style="fill:#2C2B2C;" d="M56.15,54.6c-0.76,3.42-3.84,5.78-7.78,4.37c-2.93-1.05-4.01-4.6-2.9-7.92s4.29-4.85,7.34-4.23
	C55.88,47.43,56.91,51.18,56.15,54.6z"/>
</svg>
