<?xml version="1.0" encoding="utf-8"?>
<!-- Generator: Adobe Illustrator 24.1.2, SVG Export Plug-In . SVG Version: 6.00 Build 0)  -->
<svg version="1.1" id="Layer_2" xmlns="http://www.w3.org/2000/svg" xmlns:xlink="http://www.w3.org/1999/xlink" x="0px" y="0px"
	 viewBox="0 0 128 128" style="enable-background:new 0 0 128 128;" xml:space="preserve">
<path style="fill:#845A54;" d="M71.45,84.59l-9.39-16.99l-23.18,8.87c0,0-1.13,1.45-0.89,3.99c0.1,1.13,0.61,4.32,0.61,4.32
	l-4.32,0.66c0,0-6.19,5.16-4.22,13.23c1.5,6.13,3.1,9.39,3.1,9.39l-0.84,6.01c0,0,13.8,6,27.22,5.63
	c17.18-0.47,23.65-9.57,23.65-9.57l-4.69-21.21L71.45,84.59z"/>
<path style="fill:#B5885E;" d="M31.66,86.57c-1.99,1.87-2.32,4.83-2.16,5.87c0.38,2.44,4.13,9.15,8.26,8.87
	c4.13-0.28,2.16-8.54,0.84-11.54S34.85,83.56,31.66,86.57z"/>
<path style="fill:#B5885E;" d="M20.49,118.94c-0.14,2.05,2.16,1.97,6.48,1.97s14.73-0.75,14.73-0.75l-0.84-5.73
	c0,0-2.61,0.18-6.19-1.78c-1.45-0.8-1.92-1.83-1.92-1.83S20.77,114.82,20.49,118.94z"/>
<path style="fill:#FFCD88;" d="M51.61,80.46c0,0-4.6-0.18-8.03,3.81c-2.18,2.53-6.66,14.69-3.38,16.38
	c3.28,1.69,5.53-4.27,6.76-7.04c1.13-2.53,3.19-5.44,4.97-6.38c1.78-0.94,3.28-1.97,3.28-1.97L51.61,80.46z"/>
<path style="fill:#FFCD88;" d="M43.96,113.31c0,0-1.6,0-3.19,0.56c-1.6,0.56-10.51,4.88-10.42,7.23c0.09,2.35,5.54,2.35,12.29,2.25
	c6.76-0.09,8.54-1.41,9.1-1.97c0.56-0.56,2.72-3.47,1.97-3.85C52.97,117.16,43.96,113.31,43.96,113.31z"/>
<path style="fill:#B5885D;" d="M69.01,70.23c0,0,5.26-4.6,7.32-9.01c2.06-4.41,1.97-8.63,1.97-8.63s9.97-2.63,7.46-14.96
	c-2.12-10.44-10.56-8.22-10.56-8.22s-5.73-11.92-21.12-15.2s-28.87,4.32-34.54,12.01c-6.57,8.92-5.44,20.37-5.44,20.37
	s-5.07-0.47-7.41,4.04c-2.43,4.67-1.6,12.29,2.91,15.77c4.5,3.47,11.54,2.53,11.54,2.53s4.88,5.26,10.51,7.6
	c5.78,2.41,11.26,2.72,17.93,2.06s12.01-4.13,12.01-4.13s-0.28,1.88,0.94,4.32c0.76,1.51,3.38,4.41,3.38,4.41s-4.27-2.25-7.7-2.86
	c-3.72-0.66-6.1-0.42-7.51,0.42c-1.07,0.64,0.31,5.73,1.88,6.01c1.6,0.28,4.22-0.47,8.82,1.31c4.6,1.78,10.51,6.01,12.01,6.95
	c1.5,0.94,4.55,2.53,4.79,4.6c0.18,1.59-2.39,3.66-6.9-0.94c-4.32-4.41-8.49-8.63-13.19-9.2c-4.69-0.56-7.6,0.66-9.76,5.35
	c-2.77,6.03-5.07,13.33-5.54,15.2c-0.47,1.88-1.78,2.91-0.75,4.69c0.72,1.24,8.67,5.87,10.51,5.73c2.35-0.19,4.22-4.97,4.79-5.82
	c0.56-0.84,1.78-2.63,1.78-2.63s4.13,9.76,12.86,8.92s9.95-6.29,9.95-6.29s6.79,0.34,13.98-1.71c9.64-2.75,16.23-11.56,18.3-25.69
	c1.5-10.23-0.38-25.15-5.16-37.64c-1.76-4.58-3.83-10.01-5.16-13.8c-3.41-9.66-4.6-16.64,0.94-18.68c2.82-1.04,4.63,0.19,5.45,1.8
	c1.12,2.21,1.31,4.95,4.87,6.36c2.54,1,5.73,0.19,7.13-2.16c1.76-2.94,1.14-7.24-2.63-12.11c-6.48-8.35-17.27-7.56-23.18-3.1
	c-6.32,4.76-9.01,11.1-5.91,22.99c2.91,11.17,9.31,25.39,10.7,32.29c1.88,9.29,3.58,32.13-7.98,36.79
	c-5.35,2.16-9.29,1.31-9.29,1.31s-0.94-10.68-4.32-18.4C75.84,74.07,69.01,70.23,69.01,70.23z"/>
<path style="fill:#FFCF8C;" d="M71.36,35.28c-0.16,0.2,0.91,3.13,1.31,6.19c0.45,3.39,0.59,6.67,0.88,6.77
	c0.56,0.19,8.88-1.89,7.85-9.59S71.74,34.81,71.36,35.28z"/>
<path style="fill:#FFCF8C;" d="M14.58,51.28c-0.74-0.56-5.55,0.79-4.97,6.29c0.75,7.13,7.79,7.13,8.45,6.66
	c0.34-0.24-1-3.49-1.88-6.66C15.33,54.52,14.95,51.55,14.58,51.28z"/>
<path style="fill:#FFCF8C;" d="M41.23,36.35c-4.5,1.5-10.79-5.73-16.24,0c-6.67,7.01,1.26,13.31,1.88,18.21
	c0.38,3-1.31,5.26,0.38,10.32c1.41,4.22,9.24,10.5,23.48,7.61c13.33-2.71,16.46-11.15,16.11-16.46c-0.39-5.92-3.17-6.26-3.73-9.26
	s2.59-14.82-6.57-17.27C47.05,26.97,46.08,34.74,41.23,36.35z"/>
<path style="fill:#000504;" d="M56.88,43.58c0.56,3.38,0.21,5.63-2.18,6.19c-2.86,0.67-4.72-1.27-5.28-4.72
	c-0.69-4.21,0.16-6.19,2.35-6.6C54.47,37.95,56.18,39.33,56.88,43.58z"/>
<path style="fill:#000504;" d="M37.88,46.89c0.64,3.22,0.75,6.1-1.83,6.76c-2.47,0.63-4.52-0.95-5.42-4.43
	c-1.06-4.08-0.71-6.44,1.62-7.11C34.65,41.41,36.89,41.89,37.88,46.89z"/>
<path style="fill:#000504;" d="M41.26,52.53c0.06,1.62,2.81,3.58,4.42,3.33c1.74-0.28,3.38-3.72,2.81-4.74
	C47.75,49.8,41.21,51.05,41.26,52.53z"/>
<path style="fill:#FF6B19;" d="M34.68,62.87c0.28,2.25,5.07,5.65,13.8,3.94c9.01-1.76,10.35-7.25,10.21-8.59
	c-0.14-1.34-4.72-2.04-12.53-0.7C40.03,58.57,34.45,61.07,34.68,62.87z"/>
</svg>
