<svg xmlns="http://www.w3.org/2000/svg" viewBox="0 0 64 64" enable-background="new 0 0 64 64"><path d="m9.7 23.4c1.6 2.7 3.4 3 4.7 1.5 2-2.4-.2-5.5-2.5-6.3-3.9-1.5-7.3 3-7.3 3s3.7-.5 5.1 1.8" fill="#f29a2e"/><path d="m55.6 15c-9.1-5.5-19.8-1.2-21.9 9.3-.5 2.6-1.3 12.4 5.8 9.1.3.8 1 1.5 1.9 2.3 2.4 1.9 1.1 7 1.1 7s7.2-3.4 4.4-11.6c4.1 0 7 7.3 7 7.3s2.8-7 .8-13.3c3.7-.4 7.2 5 7.2 5s1.8-10.2-6.3-15.1" fill="#e24b4b"/><g fill="#f4bc58"><path d="m32.1 62h-13c0-1.1 7.6-1.3 7.9-8.8 1.3 8.4 5.1 7.7 5.1 8.8"/><path d="m19.3 58.1l-8-9.6c.6-.7 5.4 4.8 9.5.4-3.7 6.1-1 8.5-1.5 9.2"/></g><g fill="#947151"><path d="m41.4 33.4c0 10.4-7.1 18.8-16 18.8-8.8 0-16-8.4-16-18.8 0-6.9 1.3-22 6.2-22 15.3 0-3.9 19.9 9.7 19.9 9 0 16.1-8.3 16.1 2.1"/><path d="m32.7 50.1c0 2.2-3 6.8-5.6 6.8s-5.6-3.1-5.6-5.3c0-2.1 11.2-2.5 11.2-1.5"/></g><path d="m38.8 31.4c-.2 4.6-8.1 11.6-12.5 11.6-4.4 0-8-3.7-8-8.2 0-7.6 3.8-3.9 8.2-3.9 4.4 0 12.8-6.8 12.3.5" fill="#3e4347"/><path d="m8.7 28.9l.6 10.9 2.5-3.1 2.9 3.6.6-5 4.5 3.3-.8-4.8 5.4.6-2.5-3 3.7-2.5c0 0-4.5 1-4.4-1.8.1-2.8 3-11 1.1-13.4-1.9-2.4-10.1 0-10.1 0l-3.5 15.2" fill="#f4bc58"/><ellipse cx="8.7" cy="19.5" rx=".6" ry=".3" fill="#3e4347"/><ellipse cx="14.6" cy="19.9" rx="4.3" ry="4.2" fill="#e24b4b"/><ellipse cx="14.3" cy="19.5" rx="2.1" ry="1.6" fill="#3e4347"/><g fill="#e24b4b"><path d="m9.5 34.3c.3 3.9-2.5 5.7-4.6 5.5-3.4-.3-3.4-5.2-1.9-8.1 2.6-5 9-15.3 9-15.3s-2.8 14.4-2.5 17.9"/><path d="m23.2 13.1c0-.5 0-1.1 0-1.7-.2-3.4 3.4-6.5 3.4-6.5s-6-.9-8.6 4.2c-.3.6-.5 1.3-.7 2-.1-.5-.3-1-.5-1.6-1.1-3.1 1.5-7.5 1.5-7.5s-5.9 1.5-6.9 7.3c-.2 1.2-.2 2.5.1 3.7-.1-.1-.2-.2-.3-.3-1.9-1.8-1.4-6.2-1.4-6.2s-3.9 3.8-2.8 8.6c.6 2.8 3.1 5.5 5.2 3.2.6-.7 2.2-1.8 3.2-2.1.7-.2 2.5-.1 3.6.8 1 .9 1.8 2.4 3.3 2.4 6.4.3 7.6-8.9 7.6-8.9s-3.3 1.7-6.7 2.6"/></g></svg>