<?xml version="1.0" encoding="utf-8"?>
<!-- Generator: Adobe Illustrator 24.1.2, SVG Export Plug-In . SVG Version: 6.00 Build 0)  -->
<svg version="1.1" id="Layer_3" xmlns="http://www.w3.org/2000/svg" xmlns:xlink="http://www.w3.org/1999/xlink" x="0px" y="0px"
	 viewBox="0 0 128 128" style="enable-background:new 0 0 128 128;" xml:space="preserve">
<path style="fill:#FFEAC9;" d="M16.08,63.57l8.45-3.94c0,0-2.06-3.38-2.82-5.26c-0.75-1.88-2.06-6.19-4.32-6.19
	s-3.38,5.26-3.19,8.45C14.39,59.82,16.08,63.57,16.08,63.57z"/>
<path style="fill:#543731;" d="M108.13,56.67c0,0,2.82-0.77,5.7-0.28s7.18,2.25,8.09,1.9c0.92-0.35,1.27-1.9,0.35-2.82
	s-14.5-1.9-14.5-1.9L108.13,56.67z"/>
<path style="fill:#543731;" d="M108.62,71.41l1.81,3.64c0,0,4.08,26.4,4.79,26.4c0.7,0,2.43,0.03,2.79-1.64
	c0.75-3.47,0.66-9.39-0.66-15.39c-1-4.59-3.1-8.45-3.1-8.45s2.13,0.54,3.75,1.31c1.97,0.94,4.83,2.67,5.54,2.53
	c0.7-0.14-0.19-3.38-0.61-4.08C122.51,75.02,108.62,71.41,108.62,71.41z"/>
<path style="fill:#543731;" d="M94.45,89.05l0.68,7.98l5,14.36c0,0,0.58-0.07,1.6,0c1.92,0.14,1.17-5.02,0.33-9.53
	c-0.84-4.5-4.11-11.94-4.11-11.94L94.45,89.05z"/>
<path style="fill:#543731;" d="M79.9,101.53l-4.13,0.66l-2.63,17.69c0,0,1.5,0.82,2.49,0.19c0.99-0.63,2.39-3.66,3.05-8.63
	C79.43,105.81,79.9,101.53,79.9,101.53z"/>
<path style="fill:#865B52;" d="M69.77,26.59c0,0-10.92-1.8-18.21,1.69c-7.84,3.75-13.26,12.2-19.1,19.45
	c-5.3,6.58-10.18,10.96-13,11.71c-2.82,0.75-8.63,1.69-8.63,1.69l-1.5,19.9c0,0-0.19,4.5,1.69,5.63c1.88,1.13,5.82,3.19,7.13,3.19
	c1.31,0,5.63,0.56,5.63,0.56s0.19,2.44,3.94,3.94c3.75,1.5,12.01,3.19,15.96,5.44s14.64,9.2,17.64,11.83
	c3,2.63,10.75,9.18,12.95,8.45c1.13-0.38,2.21-16.66,3-17.08s8.56,4.32,13.51,6.01c5.09,1.74,9.39,2.93,9.95,2.44
	c0.82-0.72-0.19-6.57-1.5-10.32c-1.31-3.75-3.8-8.89-2.86-10.02s17.67,11.54,19.22,10.28c0.77-0.63,0.54-10.41-0.73-16.82
	c-1.41-7.11-3.99-10-3.5-10.84c0.43-0.73,4.86,0.38,7.3,1.6c1.94,0.97,4.39,2.7,4.79,2.16c0.56-0.75-3.4-8.59-6.03-12.34
	c-3.94-5.63-8.99-9.43-8.99-10c0-0.56,3.34-0.59,6.59-0.21c3.4,0.4,7.39,2.06,7.67,1.53c0.28-0.54-1.5-4.32-5.63-8.45
	c-4.13-4.13-13.33-7.7-13.33-7.7l-5.26-16.52c0,0,1.07-2.44,0.38-4.5c-0.73-2.16-2.48-2.67-2.63-3.19
	c-0.14-0.52,4.13-4.32,0.38-7.51s-14.83,4.32-18.96,8.26C73.52,20.77,69.77,26.59,69.77,26.59z"/>
<path style="fill:#543731;" d="M90.46,27.11c0,0,6.18-4.13,14.5-5.77c9.29-1.83,14.34-1.27,16.4-1.27c2.32,0,2.82,1.13,1.69,4.29
	s-3.33,9.75-6.76,14.92c-3.73,5.63-6.97,9.22-12.11,11.61c-5.14,2.39-16.15,5.15-16.82,1.9c-0.42-2.04,1.64-2.35,5.42-5.07
	c4.01-2.89,7.53-6.48,6.12-9.08s-6.97-0.92-12.11,2.53c-5,3.35-8.59,8.73-11.61,5.77c-3.03-2.96,1.9-8.73,3.66-10.77
	c1.76-2.04,6.34-5.7,6.34-5.7s-2.82-0.84-4.79-1.2c-1.97-0.35-6.76-1.69-6.76-1.69s5.98-1.2,10.07-1.06
	C87.79,26.69,90.46,27.11,90.46,27.11z"/>
<path style="fill:#FFEACA;" d="M38.44,89.4c0,0-2.25-6.41-1.76-12.32c0.49-5.91,2.11-10.14,4.79-9.85c2.67,0.28,4.01,5.98,4.72,8.52
	c0.7,2.53,1.41,4.15,1.83,4.65s2.89,3.03,2.89,3.03l-6.05,5L38.44,89.4z"/>
<path style="fill:#503430;" d="M51.75,83.21c0.96,1.23,0.34,3.18-2.04,5c-2.39,1.83-6.72,3.54-13.63,4.5
	c-5.37,0.75-9.17,0.33-11.03-0.05c-2.18-0.44-3.07-1.15-3.07-1.15s-3.68-0.54-6.87-1.95c-2.91-1.28-5.96-3.61-5.73-4.36
	c0.42-1.35,5.63,2.37,9.01,3.14s8.02,0.84,12.74,0.63c4.72-0.21,9.6-1.38,12.67-2.82C48.16,84.13,50.27,81.31,51.75,83.21z"/>
<path style="fill:#FFD3B0;" d="M10.43,60.26c-2.93-0.51-5.92,5.08-5.98,10.44c-0.07,5.58,1.27,8.42,1.97,10.32s2.21,5.02,4.88,5.02
	c2.52,0,10.36-5.02,10.61-11.22C22.18,67.72,16.48,61.32,10.43,60.26z"/>
<ellipse style="fill:#47302D;" cx="13.52" cy="72.09" rx="2.18" ry="4.15"/>
<path style="fill:#47302D;" d="M7.96,70.44c-0.11,2.29-1.07,4.35-2.11,4.3s-1.43-2.4-1.31-4.69c0.11-2.29,0.7-3.9,1.74-3.85
	S8.07,68.15,7.96,70.44z"/>
<ellipse transform="matrix(0.1501 -0.9887 0.9887 0.1501 -3.6453 109.3784)" style="fill:#090A0B;" cx="61.8" cy="56.81" rx="6.31" ry="4.3"/>
<ellipse transform="matrix(0.3961 -0.9182 0.9182 0.3961 -13.5193 87.7933)" style="fill:#FFFCFF;" cx="59.98" cy="54.17" rx="2.92" ry="1.69"/>
<path style="fill:#B79277;" d="M71.88,97.82c0.92,0.07,2.01-14.33-3.87-11.76C61.25,89.02,70.96,97.75,71.88,97.82z"/>
<path style="fill:#B79277;" d="M85.56,84.39c0.49-0.77-5.19-11.53-8.31-7.18C73.33,82.69,84.97,85.32,85.56,84.39z"/>
<path style="fill:#B79277;" d="M93.4,68.8c0.19-0.46-7.75-10.35-10.03-4.16C81.69,69.16,93.05,69.63,93.4,68.8z"/>
<path style="fill:#B79277;" d="M102.29,84.23c0.28-0.49-5.36-11.22-8.59-6.41C90.67,82.33,102,84.72,102.29,84.23z"/>
<path style="fill:#B79277;" d="M87.01,99.97c0.69-0.44-2.75-10.98-6.55-7.74C76.69,95.45,86.24,100.47,87.01,99.97z"/>
</svg>
