<?xml version="1.0" encoding="UTF-8" standalone="no"?><svg xmlns:dc="http://purl.org/dc/elements/1.1/" xmlns:cc="http://creativecommons.org/ns#" xmlns:rdf="http://www.w3.org/1999/02/22-rdf-syntax-ns#" xmlns:svg="http://www.w3.org/2000/svg" xmlns="http://www.w3.org/2000/svg" viewBox="0 0 45 45" style="enable-background:new 0 0 45 45;" xml:space="preserve" version="1.1" id="svg2"><metadata id="metadata8"><rdf:RDF><cc:Work rdf:about=""><dc:format>image/svg+xml</dc:format><dc:type rdf:resource="http://purl.org/dc/dcmitype/StillImage"/></cc:Work></rdf:RDF></metadata><defs id="defs6"><clipPath id="clipPath16" clipPathUnits="userSpaceOnUse"><path id="path18" d="M 0,36 36,36 36,0 0,0 0,36 Z"/></clipPath></defs><g transform="matrix(1.25,0,0,-1.25,0,45)" id="g10"><g id="g12"><g clip-path="url(#clipPath16)" id="g14"><g transform="translate(35,15)" id="g20"><path id="path22" style="fill:#292f33;fill-opacity:1;fill-rule:nonzero;stroke:none" d="m 0,0 -34,0 c -0.552,0 -1,0.447 -1,1 0,0.553 0.448,1 1,1 L 0,2 C 0.553,2 1,1.553 1,1 1,0.447 0.553,0 0,0"/></g><g transform="translate(12.8228,17)" id="g24"><path id="path26" style="fill:#292f33;fill-opacity:1;fill-rule:nonzero;stroke:none" d="m 0,0 c -0.023,0 -0.046,0.001 -0.069,0.002 -0.092,0.007 -9.214,0.714 -10.734,8.235 -0.109,0.542 0.241,1.069 0.782,1.178 0.543,0.113 1.069,-0.241 1.178,-0.781 C -7.622,2.59 -0.01,2.003 0.067,1.998 0.618,1.96 1.034,1.483 0.997,0.932 0.961,0.404 0.521,0 0,0"/></g><g transform="translate(2.9995,5)" id="g28"><path id="path30" style="fill:#292f33;fill-opacity:1;fill-rule:nonzero;stroke:none" d="m 0,0 c -0.142,0 -0.286,0.03 -0.423,0.094 -0.5,0.234 -0.716,0.829 -0.482,1.33 3.166,6.77 11.038,7.721 11.372,7.758 C 11.015,9.237 11.508,8.848 11.57,8.3 11.632,7.752 11.237,7.257 10.689,7.193 10.619,7.186 3.59,6.317 0.906,0.576 0.736,0.213 0.376,0 0,0"/></g><g transform="translate(22.7529,17)" id="g32"><path id="path34" style="fill:#292f33;fill-opacity:1;fill-rule:nonzero;stroke:none" d="m 0,0 c -0.522,0 -0.961,0.405 -0.996,0.934 -0.036,0.55 0.381,1.026 0.931,1.064 0.081,0.005 8.116,0.617 9.332,6.636 0.108,0.541 0.632,0.895 1.178,0.781 C 10.986,9.306 11.337,8.779 11.228,8.237 9.706,0.712 0.459,0.027 0.066,0.002 0.044,0.001 0.021,0 0,0"/></g><g transform="translate(33.001,5)" id="g36"><path id="path38" style="fill:#292f33;fill-opacity:1;fill-rule:nonzero;stroke:none" d="m 0,0 c -0.377,0 -0.737,0.213 -0.907,0.576 -2.695,5.763 -10.124,6.61 -10.198,6.617 -0.55,0.058 -0.949,0.55 -0.89,1.099 0.057,0.55 0.554,0.952 1.099,0.89 C -10.545,9.145 -2.263,8.198 0.905,1.424 1.139,0.923 0.923,0.328 0.423,0.094 0.285,0.03 0.142,0 0,0"/></g><g transform="translate(24.9893,28.2344)" id="g40"><path id="path42" style="fill:#292f33;fill-opacity:1;fill-rule:nonzero;stroke:none" d="m 0,0 c -0.069,2.626 -1.277,4.216 -3.095,5.04 0.067,0.226 0.106,0.469 0.106,0.726 0,1.105 -0.672,2 -1.5,2 -0.828,0 -1.5,-0.895 -1.5,-2 0,-0.015 0.003,-0.029 0.003,-0.043 -0.328,0.025 -0.662,0.043 -1.003,0.043 -0.342,0 -0.675,-0.018 -1.004,-0.043 0.001,0.014 0.004,0.028 0.004,0.043 0,1.105 -0.672,2 -1.5,2 -0.829,0 -1.5,-0.895 -1.5,-2 0,-0.257 0.039,-0.5 0.105,-0.726 -1.817,-0.824 -3.025,-2.414 -3.095,-5.04 -3.03,-1.785 -5.01,-4.896 -5.01,-9.234 0,-7.16 5.372,-16.923 12,-16.923 6.628,0 12,9.763 12,16.923 C 5.011,-4.896 3.03,-1.785 0,0"/></g><g transform="translate(16.001,1.041)" id="g44"><path id="path46" style="fill:#dd2e44;fill-opacity:1;fill-rule:nonzero;stroke:none" d="m 0,0 c -6.437,0.595 -11.501,6.895 -11.501,14.581 0,7.685 5.064,10.781 11.499,11.377 0.331,0.031 1.001,0.046 1.001,-2.294 l 0,-22.541 C 0.999,-0.047 0.33,-0.032 0,0"/></g><g transform="translate(19.999,1.041)" id="g48"><path id="path50" style="fill:#dd2e44;fill-opacity:1;fill-rule:nonzero;stroke:none" d="m 0,0 c 6.436,0.595 11.501,6.895 11.501,14.581 0,7.685 -5.065,10.781 -11.5,11.377 -0.33,0.031 -1,0.046 -1,-2.294 l 0,-22.541 C -0.999,-0.047 -0.329,-0.032 0,0"/></g><g transform="translate(15,21)" id="g52"><path id="path54" style="fill:#292f33;fill-opacity:1;fill-rule:nonzero;stroke:none" d="m 0,0 c 0,-1.104 -0.895,-2 -2,-2 -1.104,0 -2,0.896 -2,2 0,1.105 0.896,2 2,2 1.105,0 2,-0.895 2,-2"/></g><g transform="translate(13,14)" id="g56"><path id="path58" style="fill:#292f33;fill-opacity:1;fill-rule:nonzero;stroke:none" d="m 0,0 c 0,-1.657 -1.343,-3 -3,-3 -1.657,0 -3,1.343 -3,3 0,1.657 1.343,3 3,3 1.657,0 3,-1.343 3,-3"/></g><g transform="translate(15,7)" id="g60"><path id="path62" style="fill:#292f33;fill-opacity:1;fill-rule:nonzero;stroke:none" d="m 0,0 c 0,-1.104 -0.895,-2 -2,-2 -1.104,0 -2,0.896 -2,2 0,1.104 0.896,2 2,2 1.105,0 2,-0.896 2,-2"/></g><g transform="translate(27,21.5)" id="g64"><path id="path66" style="fill:#292f33;fill-opacity:1;fill-rule:nonzero;stroke:none" d="M 0,0 C 0,-1.381 -1.119,-2.5 -2.5,-2.5 -3.881,-2.5 -5,-1.381 -5,0 -5,1.381 -3.881,2.5 -2.5,2.5 -1.119,2.5 0,1.381 0,0"/></g><g transform="translate(24,15.5)" id="g68"><path id="path70" style="fill:#292f33;fill-opacity:1;fill-rule:nonzero;stroke:none" d="M 0,0 C 0,-0.828 -0.672,-1.5 -1.5,-1.5 -2.328,-1.5 -3,-0.828 -3,0 -3,0.828 -2.328,1.5 -1.5,1.5 -0.672,1.5 0,0.828 0,0"/></g><g transform="translate(30,13)" id="g72"><path id="path74" style="fill:#292f33;fill-opacity:1;fill-rule:nonzero;stroke:none" d="m 0,0 c 0,-1.104 -0.895,-2 -2,-2 -1.104,0 -2,0.896 -2,2 0,1.105 0.896,2 2,2 1.105,0 2,-0.895 2,-2"/></g><g transform="translate(27,7)" id="g76"><path id="path78" style="fill:#292f33;fill-opacity:1;fill-rule:nonzero;stroke:none" d="m 0,0 c 0,-1.657 -1.343,-3 -3,-3 -1.657,0 -3,1.343 -3,3 0,1.657 1.343,3 3,3 1.657,0 3,-1.343 3,-3"/></g></g></g></g></svg>
