<?xml version="1.0" encoding="utf-8"?>
<!-- Generator: Adobe Illustrator 24.1.2, SVG Export Plug-In . SVG Version: 6.00 Build 0)  -->
<svg version="1.1" id="Ladybug" xmlns="http://www.w3.org/2000/svg" xmlns:xlink="http://www.w3.org/1999/xlink" x="0px" y="0px"
	 viewBox="0 0 128 128" style="enable-background:new 0 0 128 128;" xml:space="preserve">
<path style="fill:#696E72;" d="M104.4,64.28c0,0,8.12-0.05,8.31,1.55c0.13,1.06-1.83,21.96-1.83,21.96s6.18,3.14,7.46,3.94
	c1.5,0.94,2.25,2.25,1.69,3.38c-0.56,1.13-1.69,1.41-3.24,0.7c-1.55-0.7-11.4-3.8-11.83-4.79s0.14-17.6,0.14-17.6L104.4,64.28z"/>
<path style="fill:#696E72;" d="M92.67,41.8c0,0,3.14-3.37,4.27-3.1c1.55,0.38,5.96,6.9,7.09,8.87c1.13,1.97,3.8,6.62,3.8,6.62
	s7.32-1.41,9.15-1.69s3.8,0.42,3.94,2.25c0.14,1.83-2.67,2.67-5.07,3.1c-2.39,0.42-9.57,2.11-10.28,1.55
	C104.87,58.83,92.67,41.8,92.67,41.8z"/>
<path style="fill:#696E72;" d="M33.02,85.39l1.97,6.19l-2.39,3.1c0,0,9.15,11.97,9.01,13.37c-0.14,1.41-9.71,11.26-10.56,11.97
	c-0.84,0.7-2.98,1.67-3.8,0.42c-1.08-1.64,0.28-3.52,1.41-4.79c1.13-1.27,6.76-7.6,6.76-7.6s-9.1-10.73-9.57-13.8
	C25.56,92.43,33.02,85.39,33.02,85.39z"/>
<path style="fill:#696E72;" d="M31.05,58.5c0,0-6.43-2.35-8.17-1.27c-1.99,1.23-1.08,25.39-1.08,25.39s-8.07,5.02-9.06,5.58
	s-1.69,1.83-0.99,2.96s2.39,0.84,4.5,0s8.65-3.52,9.71-4.5c1.78-1.64,1.08-21.02,1.08-21.02l3.14-0.66L31.05,58.5z"/>
<path style="fill:#696E72;" d="M57.1,49.07l25.2-16.47c0,0,5.35-12.67,5.35-13.8c0-1.13-7.6-9.43-7.6-9.43S83,6.13,81.31,5.01
	c-1.69-1.13-6.66,4.13-6.48,5.63c0.11,0.84,7.18,9.29,7.18,9.29l-5.49,10.98c0,0-6.62-0.42-7.6-1.13s-0.61-3.61-2.82-4.93
	c-1.74-1.04-3.66-1.27-3.66-1.27s-0.42-2.67,0.99-4.79s7.2-8.27,5.82-10.98c-1.6-3.14-4.06-1.96-4.55-0.47c-0.47,1.41,1.13,3,1.13,3
	s-4.79,5.49-5.91,8.02s-0.7,5.91-0.7,5.91s-6.76-1.45-10.56-0.33c-3.8,1.13-7.46,6.52-7.46,6.52s-3.1-3.38-5.07-4.36
	s-3.38-0.42-6.34-1.83s-3.66-2.53-3.66-2.53s0.29-1.36-0.28-2.39c-0.57-1.04-2.35-1.5-3.61-0.7c-1,0.63-1.1,2.41-0.6,3.47
	c0.56,1.18,2.11,1.32,2.11,1.32s2.06,2.53,5.02,3.52c3.14,1.05,3.85,0.84,5.96,1.69s3.1,3.1,3.1,3.1s-1.41,1.83-1.55,3.8
	c-0.13,1.87,0.42,7.6,0.42,7.6l-5.21,5.91c0,0-8.35-4.6-8.73-5.4c-0.38-0.8,1.22-12.15-0.14-13.47c-1.65-1.59-8.17-5.77-8.73-3.1
	c-0.56,2.67,4.79,5.07,4.79,5.07s-1.45,12.15-0.7,13.94c0.75,1.78,12.95,9.71,12.95,9.71L57.1,49.07z"/>
<path style="fill:#FE1D1E;" d="M57.52,42.74L29.92,52.87c0,0-5.21,12.81,0.84,32.38c5.41,17.48,26.15,35.29,52.09,27.73
	c26.89-7.84,27.03-49.7,18.58-63.35C93.32,36.51,82.29,32.6,82.29,32.6L57.52,42.74z"/>
<ellipse transform="matrix(0.0891 -0.996 0.996 0.0891 28.6002 83.3733)" style="fill:#2F2F2F;" cx="59.88" cy="26.05" rx="2.7" ry="3.43"/>
<ellipse transform="matrix(0.8052 -0.593 0.593 0.8052 -11.1495 30.7316)" style="fill:#2F2F2F;" cx="41.21" cy="32.34" rx="3.43" ry="2.7"/>
<path style="fill:#D62F34;" d="M59.91,53.25c0,0,10.89,26.8,11.92,29.85c1.02,3.01,9.06,26.8,9.48,28.06s0.66,2.25,2.06,1.78
	c1.55-0.52,0.89-1.92,0.47-3.05c-0.42-1.13-7.24-24.74-8.26-27.87c-2.21-6.76-11.17-31.39-11.17-31.39L59.91,53.25z"/>
<path style="fill:#2F2F2F;" d="M53.29,31.33c-8.31,2.82-13.09,9.01-14.22,11.12c-1.13,2.11-4.5,1.55-4.5,1.55s-2.11,1.74-3.47,4.22
	c-1.06,1.93-1.31,4.79-1.31,4.79s10.98-1.17,16.89-0.61s16.47,2.44,16.47,2.44s5.96-8.54,10.28-12.95c2.72-2.78,9.95-8.92,9.95-8.92
	s-2.86-2.11-4.97-2.53c-1.67-0.33-5.3-0.8-7.04,0.19C71.22,30.63,61.9,28.42,53.29,31.33z"/>
<path style="fill:#FFEBC1;" d="M40.11,45.83c2.22-2.29-0.66-6.76-2.91-6.66c-2.25,0.09-2.16,1.6-2.72,2.91
	c-0.56,1.31-1.51,1.84-1.31,3.28C33.35,46.77,36.73,49.31,40.11,45.83z"/>
<path style="fill:#FFEBC1;" d="M67.14,33.91c3.94,2.44,6.66-1.31,6.85-3.19s-2.91-2.16-3.85-2.72c-0.94-0.56-2.44-2.63-3.85-0.47
	C64.89,29.69,64.9,32.53,67.14,33.91z"/>
<ellipse style="fill:#2F2F2F;" cx="55.13" cy="73.18" rx="9.58" ry="9.32"/>
<ellipse style="fill:#2F2F2F;" cx="81.47" cy="65.29" rx="8.68" ry="8.75"/>
<ellipse transform="matrix(0.8258 -0.564 0.564 0.8258 -12.8549 60.4178)" style="fill:#2F2F2F;" cx="91.36" cy="51.02" rx="6.25" ry="6.99"/>
<ellipse style="fill:#2F2F2F;" cx="35.9" cy="67.71" rx="6.39" ry="7.19"/>
<ellipse transform="matrix(0.995 -0.1002 0.1002 0.995 -9.1578 6.4733)" style="fill:#2F2F2F;" cx="59.84" cy="94.37" rx="7.91" ry="8.33"/>
<ellipse transform="matrix(0.042 -0.9991 0.9991 0.042 1.1719 169.6922)" style="fill:#2F2F2F;" cx="89.07" cy="84.24" rx="8.02" ry="7.52"/>
</svg>
