<svg xmlns="http://www.w3.org/2000/svg" viewBox="0 0 36 36"><path fill="#3B88C3" d="M34.559 18c0-3.918-1.515-7.474-3.975-10.146.27-1.728 1.028-3.908 2.975-5.854.704-.704.25-2-1-2 0 0-6.061.007-9.893 3.327C21.663 3.115 20.625 3 19.559 3c-8 0-12 4-14 12-.444 1.778-.865 1.399-3 3-1.195.896-2.117 3 1 3 3 0 5 1 9 1 1.827 0 3.424-.352 4.849-.717.058 1.588.491 3.61 2.151 4.717 2.354 1.569 2.367 1.897 3 0 .814-2.443.288-3.574-1.01-5.525.71.004 1.377.146 2.01.525 2.697 1.618 2.191 4.108.685 6.374-2.904 3.396-5.938.541-8.685-.374-3-1-1 1 0 2s1.312 4 0 6 3 0 5-3l.032-.045C28.392 31.5 34.559 25.935 34.559 18z"/><circle fill="#292F33" cx="13.117" cy="14" r="2"/></svg>