<?xml version="1.0" encoding="utf-8"?>
<!-- Generator: Adobe Illustrator 24.1.2, SVG Export Plug-In . SVG Version: 6.00 Build 0)  -->
<svg version="1.1" id="Penguin" xmlns="http://www.w3.org/2000/svg" xmlns:xlink="http://www.w3.org/1999/xlink" x="0px" y="0px"
	 viewBox="0 0 128 128" style="enable-background:new 0 0 128 128;" xml:space="preserve">
<path style="fill:#ADADB7;" d="M69.77,112.75c0,0-6.69,4.63-7.32,5.44c-0.63,0.8-0.9,1.74,0.32,2.11s3.16-0.14,3.16-0.14
	s-0.97,1.44,1.31,1.97c1.53,0.35,4.5-1.2,4.5-1.2s-0.49,1.37,1.55,1.65c2.94,0.41,8.02-5.9,9.06-7.87s0.56-3.66,0.56-3.66
	L69.77,112.75z"/>
<path style="fill:#ADADB7;" d="M52.17,108.59c0,0-8.21,4.92-8.87,5.2c-0.66,0.28-3.22,1.71-2.25,3.28c0.75,1.22,3.66,0.28,3.66,0.28
	s-0.63,1.37,1.03,2.16c1.67,0.79,5.16-1.13,5.16-1.13s-0.39,1.71,1.88,1.97c2.91,0.34,9.39-8.54,9.39-8.54L52.17,108.59z"/>
<path style="fill:#4D4D4D;" d="M84.97,38.37c0,0,1.13-17.6-7.46-25.76S58.36,5.38,55.12,6.23c-3.24,0.84-8.88,2.88-12.86,8.63
	c-5.26,7.6-3.1,14.73-5.54,19.33c-1.92,3.63-7.23,14.03-8.07,21.49s-1.41,21.59-0.99,26.61c0.41,4.91,0.61,9.24,3.24,13.23
	c1.57,2.39,4.7,2.44,5.77,1.13c0.63-0.77,0.42-1.9,0.42-1.9s4.28,6.38,6.01,8.52c2.82,3.47,8.67,9.06,18.21,10.7
	c12.58,2.16,33.22-4.5,33.22-4.5s1.77,1.2,4.58,1.34c1.43,0.07,3.1-1.34,2.89-2.75c-0.21-1.41-1.83-3.38-2.18-4.15
	c-0.35-0.77,0.73-22.31-2.65-36.95S87.5,40.34,84.97,38.37z"/>
<linearGradient id="SVGID_1_" gradientUnits="userSpaceOnUse" x1="55.562" y1="105.7481" x2="69.4593" y2="34.2527">
	<stop  offset="0.3618" style="stop-color:#FFFFFF"/>
	<stop  offset="0.4122" style="stop-color:#FFFAEF"/>
	<stop  offset="0.5102" style="stop-color:#FFEDC7"/>
	<stop  offset="0.6459" style="stop-color:#FFD985"/>
	<stop  offset="0.7882" style="stop-color:#FFC139"/>
	<stop  offset="0.8168" style="stop-color:#FFB92E"/>
	<stop  offset="0.9438" style="stop-color:#FF9700"/>
</linearGradient>
<path style="fill:url(#SVGID_1_);" d="M39.78,38.37c0,0-6.1,6.34-6.66,15.06c-0.47,7.33-0.52,20.69,3.71,32.66
	s12.25,21.87,23.93,24.21c12.64,2.54,26.65-1.92,27.08-2.06c0.42-0.14-2.53-3.28-4.6-6.38c-1.57-2.36-3.61-7.6-3.61-7.6
	s0.14,4.04-2.46,4.36c-1.98,0.25-4.79-1.69-6.9-6.34c-2.11-4.65-4.98-17.27-5.77-27.66c-0.7-9.29,0.25-15.27,1.2-17.88
	c0.57-1.57,1.72-2.64,1.72-2.64s3.2,3.89,8.27,2.57c4.88-1.27,6.1-6.62,5.26-10.98c-1.01-5.21-3.1-10.84-10.18-9.29
	c-8.04,1.76-5.24,12.14-5.24,12.14s-5.74,4.68-13.76,3.84C43.72,41.54,39.78,38.37,39.78,38.37z"/>
<path style="fill:#ADADB7;" d="M47.1,18.15c0,0-0.97-3.62-3.43-4.08c-4.74-0.89-11.31,2.21-13.98,3.85
	c-2.16,1.33-5.12,4.22-4.22,5.63s5.77,0.05,9.95,0.75c2.89,0.49,6.9,1.69,8.59,1.64c1.35-0.04,3.1-2.35,3.33-3.43
	C47.57,21.43,47.57,19.51,47.1,18.15z"/>
<path style="fill:#4D4D4D;" d="M47.33,18.52c0,0-3.99,1.74-12.39,2.3c-3.56,0.24-9.57,1.97-9.57,1.97s-0.61,0.61,0.38,1.13
	c0.99,0.52,6.01-0.91,9.1-1.08c5.02-0.28,14.22-0.94,14.22-0.94L47.33,18.52z"/>
<path style="fill:#000409;" d="M63.76,22c0.09,2.15-2,3.99-3.88,3.68c-2.37-0.4-3.53-2.66-3.28-4.9s2.29-3.42,4.18-3.21
	C62.68,17.77,63.67,19.75,63.76,22z"/>
</svg>
