<?xml version="1.0" encoding="UTF-8" standalone="no"?><svg xmlns:dc="http://purl.org/dc/elements/1.1/" xmlns:cc="http://creativecommons.org/ns#" xmlns:rdf="http://www.w3.org/1999/02/22-rdf-syntax-ns#" xmlns:svg="http://www.w3.org/2000/svg" xmlns="http://www.w3.org/2000/svg" viewBox="0 0 45 45" style="enable-background:new 0 0 45 45;" xml:space="preserve" version="1.1" id="svg2"><metadata id="metadata8"><rdf:RDF><cc:Work rdf:about=""><dc:format>image/svg+xml</dc:format><dc:type rdf:resource="http://purl.org/dc/dcmitype/StillImage"/></cc:Work></rdf:RDF></metadata><defs id="defs6"><clipPath id="clipPath16" clipPathUnits="userSpaceOnUse"><path id="path18" d="M 0,36 36,36 36,0 0,0 0,36 Z"/></clipPath></defs><g transform="matrix(1.25,0,0,-1.25,0,45)" id="g10"><g id="g12"><g clip-path="url(#clipPath16)" id="g14"><g transform="translate(4,28)" id="g20"><path id="path22" style="fill:#99aab5;fill-opacity:1;fill-rule:nonzero;stroke:none" d="m 0,0 c 0,0 -4,-2 -4,-11 0,0 6,1 7,3 0,0 2,12.25 -3,8"/></g><g transform="translate(31.9951,27.9565)" id="g24"><path id="path26" style="fill:#99aab5;fill-opacity:1;fill-rule:nonzero;stroke:none" d="m 0,0 c 0,0 4,-2 4,-11 0,0 -6,1 -7,3 0,0 -2,12.25 3,8"/></g><g transform="translate(1,35)" id="g28"><path id="path30" style="fill:#ffe8b6;fill-opacity:1;fill-rule:nonzero;stroke:none" d="m 0,0 c -1.01,-0.99 1,-8 5,-9 4,-1 4,5 3,5 -4,0 -5.958,6 -8,4"/></g><g transform="translate(35.2969,35)" id="g32"><path id="path34" style="fill:#ffe8b6;fill-opacity:1;fill-rule:nonzero;stroke:none" d="m 0,0 c 1.011,-0.99 -1,-8 -5,-9 -4,-1 -4,5 -3,5 4,0 5.959,6 8,4"/></g><g transform="translate(21.9756,5)" id="g36"><path id="path38" style="fill:#ccd6dd;fill-opacity:1;fill-rule:nonzero;stroke:none" d="m 0,0 -7.951,0 c -5.536,0 -10.025,4.488 -10.025,10.024 l 0,8.951 c 0,5.537 4.489,10.025 10.025,10.025 L 0,29 c 5.536,0 10.024,-4.488 10.024,-10.025 l 0,-8.951 C 10.024,4.488 5.536,0 0,0"/></g><g transform="translate(35,8)" id="g40"><path id="path42" style="fill:#e6aaaa;fill-opacity:1;fill-rule:nonzero;stroke:none" d="m 0,0 c 0,-5.523 -4.477,-8 -10,-8 l -14,0 c -5.523,0 -10,2.477 -10,8 0,5.523 4.477,10 10,10 l 14,0 C -4.477,10 0,5.523 0,0"/></g><g transform="translate(11,10)" id="g44"><path id="path46" style="fill:#c1694f;fill-opacity:1;fill-rule:nonzero;stroke:none" d="M 0,0 C 0,-1.657 -0.671,-3 -1.5,-3 -2.329,-3 -3,-1.657 -3,0 -3,1.657 -2.329,3 -1.5,3 -0.671,3 0,1.657 0,0"/></g><g transform="translate(28,10)" id="g48"><path id="path50" style="fill:#c1694f;fill-opacity:1;fill-rule:nonzero;stroke:none" d="M 0,0 C 0,-1.657 -0.672,-3 -1.5,-3 -2.328,-3 -3,-1.657 -3,0 -3,1.657 -2.328,3 -1.5,3 -0.672,3 0,1.657 0,0"/></g><g transform="translate(11,24)" id="g52"><path id="path54" style="fill:#272b2b;fill-opacity:1;fill-rule:nonzero;stroke:none" d="M 0,0 C 0,0 0,2 2,2 4,2 4,0 4,0 l 0,-2 c 0,0 0,-2 -2,-2 -2,0 -2,2 -2,2 l 0,2 z"/></g><g transform="translate(21,24)" id="g56"><path id="path58" style="fill:#272b2b;fill-opacity:1;fill-rule:nonzero;stroke:none" d="M 0,0 C 0,0 0,2 2,2 4,2 4,0 4,0 l 0,-2 c 0,0 0,-2 -2,-2 -2,0 -2,2 -2,2 l 0,2 z"/></g></g></g></g></svg>
