<svg xmlns="http://www.w3.org/2000/svg" viewBox="0 0 36 36"><path fill="#CCD6DD" d="M6 23l-5-3 2 6-1 2 6 5 7 2 3-11zm24 0l5-3-2 6 1 2-6 5-7 2-3-11z"/><path fill="#66757F" d="M11 7c0 3.866-3.032 7-6.771 7S3.101 0 3.101 0 11 3.134 11 7z"/><circle fill="#66757F" cx="18" cy="30" r="6"/><circle fill="#DD2E44" cx="18" cy="30" r="4"/><path fill="#66757F" d="M31.771 14C28.031 14 25 10.866 25 7s7.899-7 7.899-7 2.611 14-1.128 14z"/><path fill="#E6AAAA" d="M9 8c0 2.209-1.791 4-4 4s0-8 0-8 4 1.791 4 4zm22 4c-2.209 0-4-1.791-4-4s4-4 4-4 2.209 8 0 8z"/><path fill="#66757F" d="M34 22c0 7-6.923 7-6.923 7H8.923S2 29 2 22C2 22 3.231 3 18 3c14.77 0 16 19 16 19z"/><path fill="#272B2B" d="M11 17s0-2 2-2 2 2 2 2v2s0 2-2 2-2-2-2-2v-2zm10 0s0-2 2-2 2 2 2 2v2s0 2-2 2-2-2-2-2v-2z"/><path fill="#CCD6DD" d="M32.715 24.162L33.944 21l-2.629 2.666c-.388-.1-.822-.19-1.315-.27V19l-2.519 4.121c-1.1-.076-2.35-.121-3.803-.121-3.482 0-1.003 4.451-5.762 4.949-4.759-.498-2.28-4.949-5.762-4.949-1.38 0-2.582.04-3.644.108L6 19v4.366c-.509.077-.947.169-1.349.267L2.056 21l1.203 3.093c-1.689.778-1.503 1.864-.427 2.907 5.999 5.818 9 6 9.322 6 2.46 0 4.602-.998 5.762-2.48 1.159 1.482 3.303 2.48 5.762 2.48.322 0 3.323-.182 9.322-6 1.044-1.013 1.247-2.065-.285-2.838z"/><path fill="#272B2B" d="M15 25c-1 1 0 4 3 4s4-3 3-4-5-1-6 0z"/></svg>