<svg xmlns="http://www.w3.org/2000/svg" viewBox="0 0 64 64" enable-background="new 0 0 64 64"><path d="m15.8 52.1c-6.8-4.4-9.5-21.5-7.3-29.2 1.6-5.8 7.8-14.3 13.4-16.5 4.7-1.9 15.5-1.9 20.1 0 5.6 2.2 11.8 10.7 13.4 16.5 2.2 7.8.5 24.8-6.2 29.2-14.2 9.2-19.2 9.2-33.4 0" fill="#f5d1ac"/><path d="m5.1 24.7c3.6 7.9 4.5 8.2 7.9-1.2 1.8-5 .5-8 2.7-11.2 1.2-1.8 3.9-4.8 3.9-4.8s-21.3 2.2-14.5 17.2" fill="#423223"/><path d="m14.2 7.2c-5.4 3.5-16.9 2.1-10.1 17 3.6 7.9 4.5 8.2 7.9-1.2 1.8-5 .5-8 2.7-11.2 1.2-1.8 4.9-4.3 4.9-4.3s-1.7-2.7-5.4-.3" fill="#947151"/><path d="m58.9 24.6c-3.6 7.9-4.5 8.2-7.9-1.2-1.8-5-.5-8-2.7-11.2-1.2-1.8-3.9-4.8-3.9-4.8s21.3 2.3 14.5 17.2" fill="#423223"/><path d="m49.8 7.2c5.4 3.5 16.9 2.1 10.1 17-3.6 7.9-4.5 8.2-7.9-1.2-1.8-5-.5-8-2.7-11.2-1.2-1.8-4.9-4.3-4.9-4.3s1.7-2.7 5.4-.3" fill="#947151"/><ellipse cx="17.7" cy="30.7" rx="6" ry="6" fill="#fff"/><ellipse cx="16.2" cy="30.7" rx="4.5" ry="4.5" fill="#3e4347"/><ellipse cx="46.3" cy="30.7" rx="6" ry="6" fill="#fff"/><ellipse cx="47.8" cy="30.7" rx="4.5" ry="4.5" fill="#3e4347"/><path d="m21.7 48.8l4.6 4.9c2.8 2.9 8.5 2.9 11.3 0l4.7-4.9-4.8-5h-11l-4.8 5" fill="#7d644b"/><path d="m32 39.6c0 0-4.9 7-4.3 10.3.8 4.8 7.7 4.8 8.6 0 .6-3.3-4.3-10.3-4.3-10.3" fill="#f15a61"/><path d="m32 51.7l1.1-6.7h-2.2l1.1 6.7" fill="#ba454b"/><path fill="#423223" d="m27 41.5h10v4.6h-10z"/><path d="m47.8 42.6l-7.1-7.5c-4.3-4.5-13.1-4.5-17.4 0l-7.1 7.5c-2 2.1-2 5.6 0 7.7 2 2.1 5.3 2.1 7.3 0l7.1-7.5c.7-.7 2-.7 2.7 0l7.1 7.5c2 2.1 5.3 2.1 7.3 0 2.2-2.1 2.2-5.6.1-7.7" fill="#947151"/><g fill="#3e4347"><path d="m26.1 35.7c0-2.6 2.6-3.1 5.9-3.1 3.3 0 5.9.5 5.9 3.1 0 2.1-4.7 3.9-5.9 3.9-1.2 0-5.9-1.9-5.9-3.9"/><path transform="matrix(.7061-.7081.7081.7061-20.4741 28.6792)" d="m23.6 38.3h1.4v1.4h-1.4z"/><path transform="matrix(.7061-.7081.7081.7061-23.1252 27.8024)" d="m21.2 41.1h1.4v1.4h-1.4z"/><path transform="matrix(.7061-.7081.7081.7061-22.9146 30.3141)" d="m24.4 42.1h1.4v1.4h-1.4z"/><path transform="matrix(.7081-.7061.7061.7081-15.9562 39.4061)" d="m39 38.3h1.4v1.4h-1.4z"/><path transform="matrix(.7081-.7061.7061.7081-17.2077 41.8912)" d="m41.4 41.1h1.4v1.4h-1.4z"/><path transform="matrix(.7081-.7061.7061.7081-18.8291 39.9731)" d="m38.2 42.1h1.4v1.4h-1.4z"/></g></svg>