<?xml version="1.0" encoding="UTF-8" standalone="no"?><svg xmlns:dc="http://purl.org/dc/elements/1.1/" xmlns:cc="http://creativecommons.org/ns#" xmlns:rdf="http://www.w3.org/1999/02/22-rdf-syntax-ns#" xmlns:svg="http://www.w3.org/2000/svg" xmlns="http://www.w3.org/2000/svg" viewBox="0 0 45 45" style="enable-background:new 0 0 45 45;" xml:space="preserve" version="1.1" id="svg2"><metadata id="metadata8"><rdf:RDF><cc:Work rdf:about=""><dc:format>image/svg+xml</dc:format><dc:type rdf:resource="http://purl.org/dc/dcmitype/StillImage"/></cc:Work></rdf:RDF></metadata><defs id="defs6"><clipPath id="clipPath16" clipPathUnits="userSpaceOnUse"><path id="path18" d="M 0,36 36,36 36,0 0,0 0,36 Z"/></clipPath></defs><g transform="matrix(1.25,0,0,-1.25,0,45)" id="g10"><g id="g12"><g clip-path="url(#clipPath16)" id="g14"><g transform="translate(23.2832,12.7246)" id="g20"><path id="path22" style="fill:#c1694f;fill-opacity:1;fill-rule:nonzero;stroke:none" d="m 0,0 c 0,0 1.374,-1.635 2.733,-10.047 0.143,-0.883 0.202,-1.775 0.217,-2.678 l 9.767,0 0,28.553 c -4.387,3.472 -10.4,4.188 -17.678,1.757 0,0 -5.408,3 -6.147,3.74 -0.719,0.719 -1.857,1.555 -1.235,-0.35 0.364,-1.113 0.764,-2.373 2.359,-4.862 -3.436,-2.036 -4.513,-4.68 -8.558,-13.342 -3.089,-6.616 -4.662,-8.764 -3.805,-11.292 1.13,-3.337 5.316,-5.595 8.844,-3.021 1.919,1.4 2.246,3.913 6.225,6.223 C -3.624,-5.255 0,-3.716 0,0"/></g><g transform="translate(36,29.9878)" id="g24"><path id="path26" style="fill:#292f33;fill-opacity:1;fill-rule:nonzero;stroke:none" d="M 0,0 C -8.335,5.711 -21.646,4.539 -20.091,-0.178 -10.49,1.684 -4.23,-1.719 0,-7.346 L 0,0 Z"/></g><g transform="translate(19.6631,30.2373)" id="g28"><path id="path30" style="fill:#292f33;fill-opacity:1;fill-rule:nonzero;stroke:none" d="m 0,0 c -2.878,-0.233 -7.157,-1.595 -9.296,-3.967 0,0 -0.129,5.147 3.566,5.613 C 0.441,2.425 0.078,1.284 0.078,1.284 L 0,0 Z"/></g><g transform="translate(16.3569,34.9438)" id="g32"><path id="path34" style="fill:#c1694f;fill-opacity:1;fill-rule:nonzero;stroke:none" d="M 0,0 C 0.558,-1.155 4.006,-1.79 5.056,-6.029 6.107,-10.269 1.922,-8.979 0.7,-6.884 -0.662,-4.551 -1.128,-2.723 -1.167,-1.206 -1.188,-0.404 -1.128,2.333 0,0"/></g><g transform="translate(16.5962,33.1616)" id="g36"><path id="path38" style="fill:#662113;fill-opacity:1;fill-rule:nonzero;stroke:none" d="M 0,0 C 1.103,-0.968 2.448,-2.472 2.65,-3.955 2.852,-5.438 1.525,-4.943 0.914,-3.583 0.302,-2.224 0.161,-0.804 -0.22,-0.35 -0.6,0.104 0,0 0,0"/></g><g transform="translate(16.9399,20.4746)" id="g40"><path id="path42" style="fill:#292f33;fill-opacity:1;fill-rule:nonzero;stroke:none" d="m 0,0 c 0,-0.687 -0.557,-1.244 -1.245,-1.244 -0.687,0 -1.244,0.557 -1.244,1.244 0,0.687 0.557,1.245 1.244,1.245 C -0.557,1.245 0,0.687 0,0"/></g><g transform="translate(4.2217,6.083)" id="g44"><path id="path46" style="fill:#662113;fill-opacity:1;fill-rule:nonzero;stroke:none" d="m 0,0 c 0,-0.881 -0.532,-1.594 -1.187,-1.594 -0.654,0 -1.186,0.713 -1.186,1.594 0,0.882 0.532,1.596 1.186,1.596 C -0.532,1.596 0,0.882 0,0"/></g><g transform="translate(10.3545,26.0757)" id="g48"><path id="path50" style="fill:#d99e82;fill-opacity:1;fill-rule:nonzero;stroke:none" d="m 0,0 c -0.033,0.018 -0.075,0.015 -0.111,0.024 -1.543,-2.032 -2.921,-5.102 -5.49,-10.604 -1.356,-2.903 -2.42,-4.946 -3.116,-6.538 1.628,-0.225 3.285,1.443 3.946,3.272 0.673,1.866 3.215,5.652 4.926,7.778 C 1.867,-3.941 1.716,-0.924 0,0"/></g></g></g></g></svg>
