<?xml version="1.0" encoding="utf-8"?>
<!-- Generator: Adobe Illustrator 24.1.2, SVG Export Plug-In . SVG Version: 6.00 Build 0)  -->
<svg version="1.1" id="Layer_3" xmlns="http://www.w3.org/2000/svg" xmlns:xlink="http://www.w3.org/1999/xlink" x="0px" y="0px"
	 viewBox="0 0 128 128" style="enable-background:new 0 0 128 128;" xml:space="preserve">
<path style="fill:#6BA4AE;" d="M57.52,49.63c0,0-3.1-2.11-6.62-1.97c-3.52,0.14-7.88,2.82-7.88,2.82s-6.05,0.28-10.7,0.14
	c-4.65-0.14-15.63-1.41-21.26,1.13c-5.63,2.53-7.04,7.32-6.19,11.12c0.84,3.8,1.74,9.8,20.55,20.55c8.24,4.71,17.26,6.44,25.05,7.05
	c0.35,1.43,1.2,11.61,2.83,17.02c2.11,7.04,5.1,7.32,6.19,7.6c4.36,1.13,2.52-4.63,2.39-9.01c-0.21-7.3,1.41-14.21,2.25-14.22
	c1.64-0.01,6.91,1.83,8.17,1.83c10.14,17.03,19.08,19.17,22.1,17.03c2.39-1.69-0.14-5.07-2.67-11.12c-1.58-3.78-2.6-5.56-0.95-5.69
	c13.53-1.08,29.35-6.38,31.64-26.97c1.53-13.81-6.72-24.35-7.46-26.33c0.42-2.04,3.42-7.55,4.72-11.58
	c2.18-6.79,2.53-9.82,1.48-9.96c-1.12-0.15-5.07,3.24-9.29,5.91c-3.51,2.23-4.82,8.31-4.82,8.31s-5.74-3.52-10.95-1.27
	c-6.19,2.68-9.43,3.24-9.57,4.22c-0.14,0.99,6.34,3.24,10.84,4.5c4.66,1.31,9.85,2.39,9.85,2.39s4.5,11.83-2.96,15.2
	c-7.46,3.38-12.95-0.99-19.99-4.5c-7.04-3.52-13.55-7.85-19.01-7.18C60.3,47.29,57.52,49.63,57.52,49.63z"/>
<path style="fill:#36B4E1;" d="M61.25,25.53c0,0-0.42-2.99,3.1-3.98c3.52-0.99,7.39-1.13,7.6-4.72c0.24-4.08-3.73-4.93-6.97-3.94
	c-4.36,1.33-7.6,6.19-7.6,6.19s-3.8-7.32-9.85-7.32c-4.96,0-5.48,3.69-5.07,5.42c0.63,2.67,3.69,3.91,6.93,4.26
	c3.55,0.39,3.91,3.84,3.91,3.84s-6.14-4.04-6.9,0c-0.77,4.15,6.19,3.24,7.74,7.04c0.93,2.28,1.2,14.22,3.8,14.08
	c2.67-0.14,1.55-13.51,3.38-15.06c1.83-1.55,7.74-3.38,6.62-6.05C66.23,21.22,61.25,25.53,61.25,25.53z"/>
<ellipse style="fill:#36B4E1;" cx="76.69" cy="11.81" rx="2.2" ry="2.23"/>
<ellipse style="fill:#36B4E1;" cx="76.62" cy="21.61" rx="1.55" ry="1.5"/>
<ellipse style="fill:#36B4E1;" cx="35.82" cy="11.63" rx="2.54" ry="2.57"/>
<ellipse style="fill:#36B4E1;" cx="33.92" cy="20.04" rx="1.91" ry="1.96"/>
<ellipse transform="matrix(0.8417 -0.54 0.54 0.8417 -9.9299 25.7328)" style="fill:#36B4E1;" cx="38.91" cy="29.8" rx="1.87" ry="1.83"/>
<path style="fill:#FDEACB;" d="M60.9,74.83c0.7,2.82-16.05,2.67-30.13,0.14S6.13,66.81,6.13,66.81c-0.02,0.23-1.47-3.34-1.55-5.91
	c-0.06-2.05,0.7-3.63,0.7-3.63s4.82,4.12,12.71,6.93c7.88,2.82,17.13,6.02,24.74,7.11C55.55,73.14,60.41,72.88,60.9,74.83z"/>
<ellipse transform="matrix(0.9883 -0.1525 0.1525 0.9883 -10.004 10.3307)" style="fill:#2C292A;" cx="62.33" cy="70.37" rx="3.52" ry="3.33"/>
<path style="fill:#A4CED5;" d="M117.77,80.82c0,0-5.35,5.7-17.74,5.56c-8.36-0.1-21.4-1.55-21.4-1.55s4.5,2.11,7.04,4.93
	c2.53,2.82,5.95,9.57,5.95,9.57s11.68-3.34,17.18-7.99C114.29,86.69,117.77,80.82,117.77,80.82z"/>
<path style="fill:#A4CED5;" d="M9.41,71.74c0,0,11.09,6.9,21.79,8.87s20.41,3.1,26.19,3.38s11.4,0.14,11.4,0.14
	s7.18,10.98,9.01,14.08c1.83,3.1,5.35,9.71,9.29,11.26c3.94,1.55,7.5,1.13,7.5,1.13s-5.21,3.94-11.16-0.14
	c-2.55-1.75-8.55-9.08-8.55-9.08s-7.32-0.07-11.83-0.53c-4.21-0.43-8.9-1.37-8.9-1.37s-0.27,4.59,0.07,6.97
	c0.35,2.46,2.04,6.81,5.91,7.74c0.88,0.21,1.96,0.17,1.9,0.28c-0.46,0.92-4.46,2.6-8.17-1.06c-4.82-4.76-3.8-14.43-3.8-14.43
	s-6.83-1.47-14.92-6.41c-4.61-2.82-14.04-8.73-18.37-12.85C13.35,76.48,9.41,71.74,9.41,71.74z"/>
<path style="fill:#D9EBF3;" d="M54.63,86.87c3.12,0.82,7.21-0.28,7.25,0.49c0.07,1.34-4.56,1.86-7.53,1.48
	c-3.8-0.49-6.37-3.17-6.34-4.01C48.09,83.28,50.76,85.85,54.63,86.87z"/>
<path style="fill:#D9EBF3;" d="M33.09,82.93c-0.5,0.86,2.75,3.17,4.86,3.73c2.11,0.56,4.01,1.06,5.49,1.97s3.1,4.65,6.55,5.7
	c3.45,1.06,6.55-1.34,10.28-1.2c3.73,0.14,6.05,0.07,5.56-0.49s-3.31-1.48-5.63-1.62c-2.32-0.14-6.76,1.69-9.64,0.77
	c-2.89-0.92-3.45-4.22-6.34-5.42c-2.89-1.2-5.28-1.13-6.62-1.62C36.26,84.27,33.59,82.08,33.09,82.93z"/>
<path style="fill:#D9EBF3;" d="M25,81.45c-0.69,0.15,0.53,3.41,4.89,5.88s7.92,2.93,9.82,4.05c2.75,1.62,3.26,4.51,7.6,6.19
	c5.63,2.18,10.28,0.7,14.08,0.63c3.8-0.07,10.14,1.62,10.35,0.63c0.27-1.26-6.05-2.67-10.56-2.75c-3.1-0.05-6.69,1.41-11.83,0.07
	c-5.14-1.34-5.07-4.58-9.08-6.69c-3.23-1.7-6.62-2.53-9.36-3.8C28.17,84.41,25.98,81.24,25,81.45z"/>
</svg>
