<?xml version="1.0" encoding="UTF-8" standalone="no"?><svg xmlns:dc="http://purl.org/dc/elements/1.1/" xmlns:cc="http://creativecommons.org/ns#" xmlns:rdf="http://www.w3.org/1999/02/22-rdf-syntax-ns#" xmlns:svg="http://www.w3.org/2000/svg" xmlns="http://www.w3.org/2000/svg" viewBox="0 0 45 45" style="enable-background:new 0 0 45 45;" xml:space="preserve" version="1.1" id="svg2"><metadata id="metadata8"><rdf:RDF><cc:Work rdf:about=""><dc:format>image/svg+xml</dc:format><dc:type rdf:resource="http://purl.org/dc/dcmitype/StillImage"/></cc:Work></rdf:RDF></metadata><defs id="defs6"><clipPath id="clipPath16" clipPathUnits="userSpaceOnUse"><path id="path18" d="M 0,36 36,36 36,0 0,0 0,36 Z"/></clipPath></defs><g transform="matrix(1.25,0,0,-1.25,0,45)" id="g10"><g id="g12"><g clip-path="url(#clipPath16)" id="g14"><g transform="translate(13,30)" id="g20"><path id="path22" style="fill:#c1694f;fill-opacity:1;fill-rule:nonzero;stroke:none" d="m 0,0 c 0,-3.313 -2.686,-6 -6,-6 -3.313,0 -6,2.687 -6,6 0,3.313 2.687,6 6,6 3.314,0 6,-2.687 6,-6"/></g><g transform="translate(35,30)" id="g24"><path id="path26" style="fill:#c1694f;fill-opacity:1;fill-rule:nonzero;stroke:none" d="m 0,0 c 0,-3.313 -2.686,-6 -6,-6 -3.313,0 -6,2.687 -6,6 0,3.313 2.687,6 6,6 3.314,0 6,-2.687 6,-6"/></g><g transform="translate(11,30)" id="g28"><path id="path30" style="fill:#e6aaaa;fill-opacity:1;fill-rule:nonzero;stroke:none" d="m 0,0 c 0,-2.209 -1.791,-4 -4,-4 -2.209,0 -4,1.791 -4,4 0,2.209 1.791,4 4,4 2.209,0 4,-1.791 4,-4"/></g><g transform="translate(33,30)" id="g32"><path id="path34" style="fill:#e6aaaa;fill-opacity:1;fill-rule:nonzero;stroke:none" d="m 0,0 c 0,-2.209 -1.791,-4 -4,-4 -2.209,0 -4,1.791 -4,4 0,2.209 1.791,4 4,4 2.209,0 4,-1.791 4,-4"/></g><g transform="translate(35,14)" id="g36"><path id="path38" style="fill:#c1694f;fill-opacity:1;fill-rule:nonzero;stroke:none" d="M 0,0 C 0,0 -1.308,22 -17,22 -32.692,22 -34,0 -34,0 c 0,-5.872 4.499,-10.323 12.216,-11.61 1.095,-1.45 2.828,-2.39 4.784,-2.39 1.956,0 3.689,0.94 4.784,2.39 C -4.499,-10.323 0,-5.872 0,0"/></g><g transform="translate(22,6)" id="g40"><path id="path42" style="fill:#dd2e44;fill-opacity:1;fill-rule:nonzero;stroke:none" d="m 0,0 c 0,-2.209 -1.791,-4 -4,-4 -2.209,0 -4,1.791 -4,4 0,2.209 1.791,4 4,4 2.209,0 4,-1.791 4,-4"/></g><g transform="translate(18,16)" id="g44"><path id="path46" style="fill:#d99e82;fill-opacity:1;fill-rule:nonzero;stroke:none" d="m 0,0 c 0,0 -11,-3.686 -11,-7 0,-3.314 2.687,-6 6,-6 2.088,0 3.925,1.067 5,2.686 C 1.074,-11.933 2.912,-13 5,-13 c 3.314,0 6,2.686 6,6 0,3.314 -11,7 -11,7"/></g><g transform="translate(11,19)" id="g48"><path id="path50" style="fill:#272b2b;fill-opacity:1;fill-rule:nonzero;stroke:none" d="M 0,0 C 0,0 0,2 2,2 4,2 4,0 4,0 l 0,-2 c 0,0 0,-2 -2,-2 -2,0 -2,2 -2,2 l 0,2 z"/></g><g transform="translate(21,19)" id="g52"><path id="path54" style="fill:#272b2b;fill-opacity:1;fill-rule:nonzero;stroke:none" d="M 0,0 C 0,0 0,2 2,2 4,2 4,0 4,0 l 0,-2 c 0,0 0,-2 -2,-2 -2,0 -2,2 -2,2 l 0,2 z"/></g><g transform="translate(13.1255,11)" id="g56"><path id="path58" style="fill:#272b2b;fill-opacity:1;fill-rule:nonzero;stroke:none" d="m 0,0 c -1.624,-1 3.249,-4 4.874,-4 1.625,0 6.5,3 4.875,4 C 8.124,1 1.625,1 0,0"/></g></g></g></g></svg>
