<?xml version="1.0" encoding="utf-8"?>
<!-- Generator: Adobe Illustrator 24.1.2, SVG Export Plug-In . SVG Version: 6.00 Build 0)  -->
<svg version="1.1" id="Layer_3" xmlns="http://www.w3.org/2000/svg" xmlns:xlink="http://www.w3.org/1999/xlink" x="0px" y="0px"
	 viewBox="0 0 128 128" style="enable-background:new 0 0 128 128;" xml:space="preserve">
<path style="fill:#B5C2C8;" d="M61.32,52.97c0,0,1.31-0.28,3.1-0.28s3.57,0.47,3.57,0.47s4.04-5.73,4.97-13.98s0.94-17.36,3.85-24.5
	c2.91-7.13,7.6-9.67,12.01-9.01s14.12,8.31,11.36,28.72C98.2,48.93,87.59,55.85,88.91,66.29c1.13,8.92,6.48,15.77,8.73,20.46
	c2.25,4.69,6.66,12.76-0.94,23.56c-7.8,11.07-24.59,13.33-32.29,13.14c-7.7-0.19-20.52-0.85-30.88-9.76
	c-4.69-4.04-7.6-9.48-7.32-17.64c0.28-8.17,6.85-16.52,9.1-20.65s4.97-7.13,4.88-11.26c-0.09-4.13-5.91-15.77-7.51-23.56
	c-1.6-7.79-7.32-32.66,13.05-36.13c11.16-1.9,8.63,18.21,10.98,31.07C59.07,48.37,61.32,52.97,61.32,52.97z"/>
<path style="fill:#FEACA9;" d="M78.68,54.47c4.42,2.92,7.39-3.7,8.45-6.38c1.6-4.04,5.16-11.26,5.35-19.99
	c0.15-7.14-0.28-13.23-5.44-13.05c-5.16,0.19-4.97,8.54-4.88,11.36c0.14,4.32-0.95,10.55-2.06,14.92
	C78.48,47.68,74.27,51.56,78.68,54.47z"/>
<path style="fill:#FEACA9;" d="M44.99,14.11c-4.5-0.56-7.13,6.1-6.57,12.95s2.82,17.36,5.35,22.15c2.53,4.79,3.85,5.91,6.95,5.07
	c3.1-0.84,0.94-6.38,0.66-8.26c-0.28-1.88-2.63-13.98-2.63-19.52S49.56,14.68,44.99,14.11z"/>
<path style="fill:#FFFFFF;" d="M64.98,60.19c4.51,0,2.32,8.85,3.45,13.73c1.13,4.88,5.35,9.2,8.66,12.67
	c4.15,4.36,9.1,13.63,8.17,19.36c-0.94,5.73-3.87,14.22-20.74,14.03c-14.59-0.16-20.93-4.6-21.21-15.09
	c-0.26-9.8,6.41-16.68,8.8-18.65s5.84-5.42,7.39-9.43c1.55-4.01,1.97-8.09,2.11-10.28C61.74,64.35,61.25,60.19,64.98,60.19z"/>
<path style="fill:#2F2F2D;" d="M52.45,75.68c0,3.75-0.77,6.76-4.36,6.76c-2.6,0-3.87-2.69-3.87-6.44s1.34-6.58,4.15-6.37
	C51.21,69.84,52.45,71.93,52.45,75.68z"/>
<path style="fill:#2F2F2D;" d="M84.05,76.45c0,3.75-0.63,6.55-4.22,6.55c-2.6,0-3.8-3.15-3.8-6.9s0.77-5.91,3.59-5.91
	C82.37,70.19,84.05,72.7,84.05,76.45z"/>
<path style="fill:#FFD792;" d="M64.93,107.19l-4.97,2.16c0,0,0.02,3.36,2.28,3.33c1.7-0.03,2.27-1.06,2.27-1.06s0.85,1.09,2.76,1.06
	c2.26-0.04,2.05-2.87,2.05-2.87L64.93,107.19z"/>
<path style="fill:#FEE2B3;" d="M69.25,102.47l-9.9,1.17c0,0,0.47,5.73,0.68,6.22s0.56,1.13,2.11,1.27c1.55,0.14,2.39-1.06,2.39-1.06
	s0.57,1.11,2.22,1.25c1.02,0.09,2.43-0.3,2.6-1.02c0.29-1.2,0.19-2.26,0.18-4.03C69.52,104.71,69.25,102.47,69.25,102.47z"/>
<path style="fill:#2C2C2C;" d="M64.32,92.85c0,0,4.67-5.86,6.29-3.85c1.9,2.36-4.88,7.13-4.88,7.13s0.24,3.7,0.55,3.97
	c2.75,2.36,5.07-0.32,5.35-0.6c0.28-0.28,1.9-1.51,2.96-0.18s-1.02,5.95-5.14,6.23c-4.12,0.28-5-2.04-5-2.04s-0.63,2.64-5.35,2.43
	s-5.31-5.35-4.26-6.12c1.06-0.77,1.42-0.71,3.59,1.13c1.37,1.16,3.87,0.18,4.01-1.09c0.07-0.6-0.04-3.77-0.04-3.77
	s-7.6-4.65-5.53-7.11C58.96,86.52,64.32,92.85,64.32,92.85z"/>
<g>
	<path style="fill:#838584;" d="M36.35,95.53c-0.19,0-0.38-0.04-0.57-0.11l0,0c-0.04-0.01-3.87-1.56-8.25-1.44
		c-4.76,0.14-7.21,0.83-7.23,0.83c-0.8,0.23-1.63-0.23-1.86-1.02c-0.23-0.79,0.22-1.62,1.02-1.86c0.11-0.03,2.78-0.8,7.98-0.95
		c5.05-0.16,9.31,1.59,9.49,1.66c0.77,0.32,1.13,1.19,0.81,1.96C37.5,95.18,36.94,95.53,36.35,95.53z"/>
</g>
<g>
	<path style="fill:#838584;" d="M20.17,105.71c-0.44,0-0.88-0.19-1.18-0.57c-0.52-0.65-0.41-1.59,0.24-2.11
		c0.14-0.11,3.49-2.75,7.84-3.85c4.27-1.08,9.14-0.76,9.34-0.75c0.83,0.06,1.45,0.77,1.39,1.6c-0.06,0.83-0.76,1.47-1.6,1.39
		c-0.04,0-4.61-0.3-8.4,0.66c-3.73,0.94-6.68,3.26-6.71,3.29C20.82,105.6,20.49,105.71,20.17,105.71z"/>
</g>
<g>
	<path style="fill:#838584;" d="M24.67,113.73c-0.38,0-0.77-0.15-1.06-0.44c-0.59-0.59-0.59-1.54,0-2.12
		c0.1-0.1,2.58-2.58,4.65-4.17c2.17-1.67,6.72-3.38,6.91-3.45c0.78-0.29,1.64,0.1,1.93,0.88c0.29,0.78-0.1,1.64-0.88,1.93
		c-1.2,0.45-4.63,1.87-6.14,3.02c-1.91,1.47-4.33,3.88-4.36,3.91C25.44,113.59,25.05,113.73,24.67,113.73z"/>
</g>
<g>
	<path style="fill:#838584;" d="M90.65,95.95c-0.66,0-1.27-0.44-1.45-1.11c-0.22-0.8,0.25-1.62,1.05-1.84
		c0.18-0.05,4.39-1.18,8.46-1.32c4.43-0.15,8.1,1.01,8.25,1.06c0.79,0.25,1.22,1.09,0.97,1.88c-0.25,0.79-1.1,1.22-1.88,0.97
		c-0.03-0.01-3.34-1.04-7.24-0.92c-3.71,0.12-7.74,1.21-7.78,1.22C90.91,95.93,90.78,95.95,90.65,95.95z"/>
</g>
<g>
	<path style="fill:#838584;" d="M106.04,104.26c-0.33,0-0.67-0.11-0.95-0.34c-0.01-0.01-1.96-1.54-5.91-2.47
		c-3.82-0.9-7.61-0.58-7.65-0.58c-0.81,0.07-1.55-0.54-1.62-1.36c-0.07-0.83,0.54-1.55,1.36-1.62c0.17-0.02,4.31-0.36,8.59,0.64
		c4.7,1.1,7.04,2.99,7.13,3.07c0.64,0.53,0.73,1.47,0.21,2.11C106.9,104.07,106.47,104.26,106.04,104.26z"/>
</g>
<g>
	<path style="fill:#838584;" d="M103.36,111.62c-0.35,0-0.7-0.12-0.98-0.37c-0.03-0.02-2.75-2.37-5.29-3.58
		c-2.43-1.15-5.96-1.22-5.99-1.22c-0.83-0.01-1.49-0.69-1.48-1.52c0.01-0.82,0.68-1.48,1.5-1.48c0.01,0,0.01,0,0.02,0
		c0.17,0,4.21,0.07,7.24,1.5c2.92,1.39,5.85,3.92,5.97,4.02c0.63,0.54,0.69,1.49,0.15,2.12
		C104.2,111.45,103.78,111.62,103.36,111.62z"/>
</g>
</svg>
