<?xml version="1.0" encoding="utf-8"?>
<!-- Generator: Adobe Illustrator 26.3.1, SVG Export Plug-In . SVG Version: 6.00 Build 0)  -->
<svg version="1.1" id="emoji_x5F_u1f44b" xmlns="http://www.w3.org/2000/svg" xmlns:xlink="http://www.w3.org/1999/xlink" x="0px"
	 y="0px" viewBox="0 0 128 128" style="enable-background:new 0 0 128 128;" xml:space="preserve">
<path style="fill:#E0BB95;" d="M17.57,62.68c-2.79-4.01-3.91-7.79-1.18-10.08c2.31-1.94,5.71-2.31,9.91,2.54
	c0,0,12.55,14.58,16.87,18.63c0.98,0.91,2.2,1.05,3.31-0.1c0.94-0.98,0.6-1.83-0.2-3c0,0-17.69-26.3-20.01-29.51
	c-3.87-5.37-2.38-8.84-0.59-10.49c2.49-2.31,6.87-2.77,10.94,2.81l21.42,28.67c0.65,0.69,1.7,0.79,2.47,0.25
	c0.1-0.07,0.2-0.14,0.3-0.21c0.79-0.56,1.02-1.63,0.54-2.47c-3.75-6.53-18.67-32.55-20.86-37.29c-2.52-5.47-1.44-8.25,1.23-9.86
	c3.17-1.91,6.15-1.77,9.71,3.52c3.86,5.76,18.85,30.01,22.66,36.53c0.5,0.85,1.57,1.17,2.45,0.74c0.01-0.01,0.03-0.01,0.04-0.02
	c0.84-0.41,1.6-1.24,1.25-2.42c-2.08-6.86-12.29-28.22-14.43-33.13c-2.93-6.71-1.5-8.99,1.53-10.53c3.18-1.61,6.49-0.34,8.74,4.14
	c1.52,3.04,28.21,51.61,28.21,51.61c-0.39-7.24,1.44-12.37,3-17.52c2.84-9.37,9.71-14.24,14.69-12.05c2.59,1.14,3.06,3.41,2.78,5.15
	c-0.56,3.38-2.94,13.85-3.4,22.05c-1.08,19.22,4.73,41.37-16.92,55.29c-14.49,9.32-30.02,7.68-40.28,0.51
	C49.31,107.75,19.85,65.96,17.57,62.68z"/>
<g>
	<path style="fill:#BA8F63;" d="M117.68,51.77c-1.81,7.61-2.05,16.95-1.99,20.93c0.24,15.51,0.16,28.93-15.39,41.19
		c-1.91,1.51-7.9,5.19-14.87,7.11c-2.24,0.61-1.39,1.33-0.01,1.17c7.61-0.88,13.38-4.16,16.59-6.23
		c21.64-13.92,16.32-35.92,17.4-55.14c0.46-8.2,2.96-21.1,2.92-22.21C122.28,37.48,119.49,44.16,117.68,51.77z"/>
	<path style="fill:#BA8F63;" d="M77.53,52.57c0,0-1.55,0.01-3.02-2.04C70.1,44.4,56.27,21.25,52.29,15.57
		c-4.54-6.48-8.77-4-9.73-3.48c0,0,3.48,0.12,5.4,2.97c3.92,5.81,18.78,31.85,23.47,37.44C74.46,56.11,77.53,52.57,77.53,52.57z"/>
	<path style="fill:#BA8F63;" d="M22.71,54.54c1.36,1.46,13.3,15.63,17.7,19.58c3.78,3.39,6.6-0.93,6.6-0.93s-1.39,0.19-3.29-1.24
		c-4.72-3.57-15.9-16.3-18.42-18.98c-3.74-3.98-7.22-1.49-7.96-1.04C17.35,51.93,19.49,51.1,22.71,54.54z"/>
	<path style="fill:#BA8F63;" d="M61.59,61.26c0,0-1.28,0.93-3.63-1.82c-1.71-2.01-21.34-25.96-21.34-25.96
		c-4.92-6.01-8.79-4.22-9.59-3.76c0,0,2.47-0.13,5.36,3.2c1.32,1.52,22.27,28.23,23.11,29.14C58.57,65.41,61.41,62.53,61.59,61.26z"
		/>
	<path style="fill:#BA8F63;" d="M101.8,57.83c0,0-26.01-43.61-27.67-46.58c-3.69-6.59-7.98-4.57-8.71-4.24c0,0,2.39-0.68,5.2,4.1
		c1.5,2.54,20.61,36.9,26.71,47.88c0.48,2.05,0.44,4.72-1.1,6.44c-5.52,6.19-12.56,12.51-10.49,28.18c0.52,3.97,1.99,7.73,3.08,9.54
		c1.38,2.27,2.97,1.41,2.27-0.29c-0.47-1.15-1.22-3.86-1.37-5.02c-0.7-5.4-3.06-14.84,7.52-26.16
		C99.03,69.79,103.58,64.08,101.8,57.83z"/>
</g>
<path style="fill:#B0BEC5;" d="M103.49,30.96c-1.39-4.93-3.55-9.45-6.35-13.37c-2.52-3.53-5.57-6.57-9.05-9.01
	c-0.44-0.31-1-1.27-0.52-2.2s1.52-0.81,1.91-0.65c4.35,1.79,7.91,4.88,10.85,9.12c3.49,5.04,5.22,9.79,6.11,15.1
	c0.1,0.58,0.08,1.8-1.16,2.12C104.05,32.39,103.63,31.44,103.49,30.96z"/>
<path style="fill:#B0BEC5;" d="M96.69,36.25c-1.39-4.93-3.55-9.45-6.35-13.37c-2.52-3.53-5.57-6.57-9.05-9.01
	c-0.44-0.31-1-1.27-0.52-2.2c0.48-0.94,1.52-0.81,1.91-0.65c4.35,1.79,7.91,4.88,10.85,9.12c3.49,5.04,5.22,9.79,6.11,15.1
	c0.1,0.58,0.08,1.8-1.16,2.12C97.26,37.68,96.83,36.74,96.69,36.25z"/>
<path style="fill:#B0BEC5;" d="M8.56,77.46c1.72,4.83,4.17,9.19,7.22,12.92c2.75,3.35,5.99,6.19,9.62,8.4
	c0.46,0.28,1.08,1.2,0.66,2.16c-0.42,0.97-1.46,0.91-1.87,0.78c-4.46-1.5-8.22-4.35-11.43-8.39c-3.81-4.8-5.86-9.42-7.1-14.66
	c-0.14-0.58-0.2-1.79,1.02-2.19C7.9,76.08,8.39,76.99,8.56,77.46z"/>
<path style="fill:#B0BEC5;" d="M14.99,71.73c1.72,4.83,4.17,9.19,7.22,12.92c2.75,3.35,5.99,6.19,9.62,8.4
	c0.46,0.28,1.08,1.2,0.66,2.16c-0.42,0.97-1.46,0.91-1.87,0.78c-4.46-1.5-8.22-4.35-11.43-8.39c-3.81-4.8-5.86-9.42-7.1-14.66
	c-0.14-0.58-0.2-1.79,1.02-2.19C14.33,70.34,14.82,71.26,14.99,71.73z"/>
</svg>
