<?xml version="1.0" encoding="utf-8"?>
<!-- Generator: Adobe Illustrator 26.3.1, SVG Export Plug-In . SVG Version: 6.00 Build 0)  -->
<svg version="1.1" id="emoji_x5F_u1f446" xmlns="http://www.w3.org/2000/svg" xmlns:xlink="http://www.w3.org/1999/xlink" x="0px"
	 y="0px" viewBox="0 0 128 128" style="enable-background:new 0 0 128 128;" xml:space="preserve">
<path style="fill:#A56C43;" d="M43.22,12.9c0,6.72,0.73,52.62,0.73,52.62c0,3.65,0.1,4.33-1.24,3.32
	c-1.34-1.01-2.66-4.87-12.18-7.43c-7.12-1.92-16.06,1.01-18.37,5.35c-1.03,1.93-1.2,5.91,2.13,7.39c3.19,1.42,9.61,1.57,14.97,5.64
	c6.56,4.98,6.81,9.11,11.03,16.8c3.36,6.14,11.6,10.87,13.37,14.27c1.29,2.46,1.23,5.62,1.09,8.78c-0.05,1.21,0.75,2.3,1.93,2.59
	c2.82,0.71,8.72,1.78,18.57,1.78c9.73,0,15.6-1.04,18.47-1.75c1.22-0.3,2.04-1.44,1.92-2.69c-0.31-3.34-0.76-6.9,0.22-9.43
	c1.34-3.48,5.77-8.32,9.38-14.42c8.45-14.28,7.51-29.28,6.79-37.88c-0.55-6.65-4.69-15.01-10.16-16.26
	c-2.8-0.64-4.77,0.08-6.82,1.78c-0.48,0.39-1.2,0.05-1.39-0.54c-0.82-2.54-2.56-6.46-7.75-6.8c-4.25-0.28-6.05,2.21-7.55,3.56
	c-0.45,0.4-0.92,0.07-1.12-0.5c-0.83-2.43-3.87-6.66-8.52-6.51c-5.37,0.17-7.4,4.26-8.35,7.26c-0.17,0.54-1.4-3.08-1.44-3.65
	c0,0-1.17-14.88-2.23-21.28c-1-6.07-2.61-11.73-8.5-10.7C45.73,4.6,43.22,6.17,43.22,12.9z"/>
<path style="fill:#995E32;" d="M59.04,52.97c1.57-2.26,4.25-6.51,9.05-6.74c4.63-0.22,6.3,3.52,8.64,3.93
	c3.19,0.55,3.56-1.72,7.99-1.48c4.25,0.23,5.08,3.1,8.08,3.51c1.91,0.26,3.6-1.8,8.22-1.43c1.92,0.15,5.91,2.08,7.39,5.68
	c1.08,2.64,3.13-2.15,2.73-3.55c-1.3-4.54-4.16-10.06-9.15-11.3c-0.05-0.01-0.09-0.02-0.14-0.03c-2.8-0.64-4.77,0.08-6.82,1.78
	c-0.48,0.39-1.2,0.05-1.39-0.54c-0.82-2.54-2.56-6.46-7.75-6.8c-4.25-0.28-6.05,2.21-7.55,3.56c-0.45,0.4-0.92,0.07-1.12-0.5
	c-0.83-2.43-3.87-6.66-8.52-6.51c-5.37,0.17-7.4,4.26-8.35,7.26C60.31,40.01,58.38,50.36,59.04,52.97z"/>
<g>
	<path style="fill:#875334;" d="M42.9,69.71c-1.56,0.37-2.86-1.08-3.68-1.81c-2.55-2.3-5.52-3.76-7.73-4.52
		c-8.08-2.77-14.23-0.23-17.68,1.3c0,0,7.33-7.72,19.34-4.76c4.05,1,6.92,2.87,9.49,5.28C44.79,67.21,44.35,69.37,42.9,69.71z"/>
	<path style="fill:#875334;" d="M112.03,57.82c-0.46-5.51-3.08-12-7.04-14.86c-0.4-0.29-0.89,0.21-0.57,0.59
		c1.7,2.04,3.91,6.01,4.35,13.23c1.04,17.08-0.43,27.84-6.09,37.4c-1.56,2.63-3.31,5.07-4.86,7.23c-2.07,2.88-3.32,4.73-4.11,7.04
		c-2.15,6.3,1.94,11.1,1.94,11.1c-0.31-3.34-0.76-6.9,0.22-9.43c1.34-3.48,5.77-8.32,9.38-14.42
		C113.7,81.43,112.75,66.43,112.03,57.82z"/>
	<path style="fill:#875334;" d="M61.24,45.14c0.35,5.89-2.15,8.52-2.15,8.52s-0.9-1.52-1.8-7.9c0,0-2.18-30.29-2.73-34.97
		c-0.69-5.92-5.09-6.75-5.09-6.75s6.83-1.1,8.18,7.25C58.67,17.52,60.89,39.25,61.24,45.14z"/>
	<path style="fill:#875334;" d="M90.97,48.54c-0.18,2.4,0.44,3.4,1.78,3.65c1.34,0.25,1.98-1.2,1.89-3.93
		c-0.21-6.9-3.07-11.62-7.41-12.03C87.23,36.23,91.7,38.73,90.97,48.54z"/>
	<path style="fill:#875334;" d="M74.68,46.56c-0.08,2.16,0.73,3.4,2.29,3.57s2.1-1.51,2.08-3.12c-0.09-6.93-3.6-14-9.04-14.38
		C70.01,32.63,75.12,35.28,74.68,46.56z"/>
</g>
</svg>
