<?xml version="1.0" encoding="utf-8"?>
<!-- Generator: Adobe Illustrator 26.3.1, SVG Export Plug-In . SVG Version: 6.00 Build 0)  -->
<svg version="1.1" id="f44e" xmlns="http://www.w3.org/2000/svg" xmlns:xlink="http://www.w3.org/1999/xlink" x="0px" y="0px"
	 viewBox="0 0 128 128" style="enable-background:new 0 0 128 128;" xml:space="preserve">
<path style="fill:#FFCA28;" d="M112.94,41.21c4.74,1.26,6.27,8.56,6.06,12.15c-0.24,3.96-2.78,10.33-6.5,10.91
	c1.36,1.25,2.95,4.82,2.02,10.42c-0.96,5.81-5.47,10.43-10.25,9.72c-0.6-0.09-10.65-1.16-17.85-2.3c-7.2-1.14-7.55-0.25-7.55-0.25
	c5.88,12.73,10.18,43.04-10.67,42.12c-5.18-1.06,2.41-17.18-8.11-31.32c-2.87-3.86-7.1-7.58-13.3-10.8
	c-3.29-2.09-6.41-5.06-8.22-7.53c-2.24-3.05-3-5.51-6.03-6.77c-7.63-3.16-14.74-2.35-18.06-1.66c-1.16,0.24-2.28-0.46-2.61-1.6
	c-5.98-20.51-1.1-37.47,0.78-42.77c0.35-1,1.37-1.6,2.42-1.46c5.08,0.69,9.08,0.71,15.26,0.12c5.94-0.56,9.25-4.99,13.71-7.93
	c10.07-7.4,24.76-6.86,38.54-6.51c2.97,0.07,5.85-0.36,8.64-0.72c1.41-0.36,2.91-0.65,4.54-0.87c6.25-0.85,9.23,1.49,10.81,5.51
	c1.38,3.52,0.81,7.27-2.28,10.66c0.66-0.15,1.27-0.28,1.79-0.37c6.05-1.1,9.57,4.13,10.42,9.6
	C117.21,34.13,115.76,39.45,112.94,41.21z"/>
<path style="fill:#FFB300;" d="M90.18,43.28c0,0-3.33,1.92-3.88,4.53s-0.64,3.91-0.72,5.88c-0.12,3.27,2.92,5.36,2.92,5.36
	l0.21,3.87c0,0-3.07,1.95-3.83,2.56c-1.18,0.95-1.88,4.49-1.71,6.3c0.12,1.27,1.61,3.69,1.61,3.69c-7.2-0.43-7.53-8.82-7.46-11.62
	c0.1-3.31-1.35-7.8-3.43-11.3c-2.68-4.5-12.12-10.49-12.6-10.75c5.5-2.26,8.81-8.81,10.09-13.74c0.63-2.42,3.34-13.7,5.14-15.44
	c0.47-0.67,4.97-3.63,8.03-4.12c0,0-2.94,3.22-1.39,8.46c1.23,4.16,5.15,5.13,5.15,5.13l1.74,2.97c0,0-2.49,2.31-3.04,4.52
	c-0.47,1.89-0.85,6.21,0.66,8.15c0.68,0.88,2.71,1.95,2.71,1.95L90.18,43.28z"/>
<g>
	<path style="fill:#EDA600;" d="M107.82,42.67c-13.6,0.35-24.98,1.05-24.98,1.05s-4.04,0.14-4.44,7.21
		c-0.31,5.5,3.57,7.03,5.61,7.46c4.25,0.37,17.86,2.43,22.19,3.1c4.55,0.71,6.31,2.76,6.31,2.76s-2.06,1.08-5.71,0.57
		c-3.66-0.51-14.32-1.5-21.23-2.19c-1.08-0.11-3.54,0.75-4.59,4.46c-0.99,3.47,0.65,6.15,1.59,6.97c1.63,1.41,10.41,5.25,17.17,7.02
		c8.03,2.11,12.87-1.45,12.87-1.45c-1.56,4.89-6.94,5.64-11.91,5.28c-3.7-0.26-19.71-2.95-21.73-3.16c-0.61-0.06-4.33-4.4-4.48-10.8
		c-0.08-3.3,0.97-6.92-1.14-12.72C69.36,47.29,60.98,43.42,60.77,43c-0.21-0.42-0.1-1.04,0.34-1.2c1.41-0.09,2.84,0.48,4.15,0.97
		c3.07,1.68,6.05,3.58,8.91,5.63c0.43-4.09,2.25-6.49,4.38-7.66c-2.89-3.63-2.39-13.72,1.08-16.2c-2.15-1.24-3.24-3.39-3.81-5.66
		c-1.14-4.56,0.21-6.6,2.02-8.71c0,0,2.81-2.25,5.79-3.63S93.04,4,94.51,4.4c0,0-11.18,3.99-13.68,6.93
		c-0.48,0.56-2.75,3.17-0.02,8.67c0.73,1.47,3.82,2.46,5.94,2.32c0.75-0.05,5.43-1.12,13.83-2.79c5.68-1.14,6.69-5.97,6.69-5.97
		s0.88,7.4-5.13,8.8c-5.71,1.33-13.92,3.16-16.18,3.74s-4.89,2.79-4.8,7.68c0.07,4.25,2.59,5.72,4.06,5.81s13.5-0.31,22.17-0.45
		c3.69,0,5.68,2.01,5.68,2.01S111.59,42.57,107.82,42.67z"/>
	<path style="fill:#EDA600;" d="M34.57,28.64c-0.02,0.59,0.64,1.13,1.34-0.36c1.5-3.2,4.34-8.21,8.65-11.86
		c6.93-5.86,12.23-7.49,17.08-9.18c0.62-0.22,0.36-1.16-0.29-1.09c-7,0.72-13.09,2.69-18.75,6.95
		C35.96,18.11,34.68,25.35,34.57,28.64z"/>
	<path style="fill:#EDA600;" d="M66.3,121.23c0.1,0.69,0.65,0.62,0.84-0.06c0.35-1.21,2.37-9.47,1.07-17.93
		c-0.71-4.61-2.76-9.38-5.23-12.7c-2.09-2.81-7.16-7.64-14.72-11.37c-5.51-2.72-7.25-8.05-9.14-10.47
		c-2.37-3.03-4.81-5.51-12.73-6.28c-5.12-0.5-9.49,1.21-11.65,2.48c-0.54,0.31-0.23,1.01,0.38,0.91c1.58-0.25,4.07-0.53,5.69-0.53
		c3.37,0,7.47,0.52,11.73,2.29c3.03,1.25,4.17,3.47,6.03,6.77c2.02,3.58,4.66,5.67,7.95,7.76c6.21,3.22,10.7,6.7,13.57,10.56
		C68.27,103.66,65.5,115.86,66.3,121.23z"/>
</g>
</svg>
