<?xml version="1.0" encoding="utf-8"?>
<!-- Generator: Adobe Illustrator 25.2.3, SVG Export Plug-In . SVG Version: 6.00 Build 0)  -->
<svg version="1.1" id="Layer_1" xmlns="http://www.w3.org/2000/svg" xmlns:xlink="http://www.w3.org/1999/xlink" x="0px" y="0px"
	 viewBox="0 0 128 128" style="enable-background:new 0 0 128 128;" xml:space="preserve">
<g>
	<g id="图层_3_1_">
		<g style="opacity:0.2;">
			<path style="fill:#FFFFFF;" d="M64.73,20C19.51,20,5,61.27,5,61.27s12.42,39.85,59.73,39.85c7.34,0.06,14.64-1.02,21.64-3.21
				c6,8.49,18.78,12.47,25.3,13.33h0.27c1.1-0.02,1.99-0.93,1.97-2.03c-0.01-0.38-0.12-0.75-0.33-1.07
				c-2.93-4.31-7.58-12-9.22-19.67c9.03-7.02,15.89-16.45,19.78-27.21C124.14,61.26,109.95,20,64.73,20z"/>
		</g>
		<path style="fill:#FFFFFF;" d="M104.36,88.48c9.03-7.02,15.89-16.45,19.78-27.21c0,0-14.19-41.27-59.41-41.27S5,61.27,5,61.27
			s12.42,39.85,59.73,39.85c7.34,0.06,14.64-1.02,21.64-3.21c6,8.49,18.78,12.47,25.3,13.33c1.1,0.13,2.09-0.65,2.23-1.74
			c0.06-0.47-0.05-0.95-0.32-1.35C110.65,103.84,106,96.12,104.36,88.48z"/>
	</g>
</g>
<circle style="fill:#3F474C;" cx="64.72" cy="60.54" r="28.76"/>
<circle style="fill:#231F20;" cx="64.72" cy="60.54" r="16.01"/>
<circle style="fill:#F5F8FA;" cx="81.92" cy="56.34" r="6.8"/>
<g>
	<g id="图层_3">
		<g style="opacity:0.2;">
			<path style="fill:none;" d="M64.73,20C19.51,20,5,61.27,5,61.27s12.42,39.85,59.73,39.85c7.34,0.06,14.64-1.02,21.64-3.21
				c6,8.49,18.78,12.47,25.3,13.33h0.27c1.1-0.02,1.99-0.93,1.97-2.03c-0.01-0.38-0.12-0.75-0.33-1.07
				c-2.93-4.31-7.58-12-9.22-19.67c9.03-7.02,15.89-16.45,19.78-27.21C124.14,61.26,109.95,20,64.73,20z"/>
		</g>
		<path style="fill:none;stroke:#000000;stroke-width:6;stroke-linejoin:round;" d="M104.36,88.48
			c9.03-7.02,15.89-16.45,19.78-27.21c0,0-14.19-41.27-59.41-41.27S5,61.27,5,61.27s12.42,39.85,59.73,39.85
			c7.34,0.06,14.64-1.02,21.64-3.21c6,8.49,18.78,12.47,25.3,13.33c1.1,0.13,2.09-0.65,2.23-1.74c0.06-0.47-0.05-0.95-0.32-1.35
			C110.65,103.84,106,96.12,104.36,88.48z"/>
	</g>
</g>
</svg>
