<?xml version="1.0" encoding="utf-8"?>
<!-- Generator: Adobe Illustrator 26.3.1, SVG Export Plug-In . SVG Version: 6.00 Build 0)  -->
<svg version="1.1" id="emoji_x5F_u1f446" xmlns="http://www.w3.org/2000/svg" xmlns:xlink="http://www.w3.org/1999/xlink" x="0px"
	 y="0px" viewBox="0 0 128 128" style="enable-background:new 0 0 128 128;" xml:space="preserve">
<g>
	<path style="fill:#BA8D68;" d="M12.9,45.22c6.72,0,52.62,0.73,52.62,0.73c3.65,0,4.33,0.1,3.32-1.24
		c-1.01-1.34-4.87-2.66-7.43-12.18c-1.92-7.12,1.01-16.06,5.35-18.37c1.93-1.03,5.91-1.2,7.39,2.13c1.42,3.19,1.57,9.61,5.64,14.97
		c4.98,6.56,9.11,6.81,16.8,11.03c6.14,3.36,10.87,11.6,14.27,13.37c2.46,1.29,5.62,1.23,8.78,1.09c1.21-0.05,2.3,0.75,2.59,1.93
		c0.71,2.82,1.78,8.72,1.78,18.57c0,9.73-1.04,15.6-1.75,18.47c-0.3,1.22-1.44,2.04-2.69,1.92c-3.34-0.31-6.9-0.76-9.43,0.22
		c-3.48,1.34-8.32,5.77-14.42,9.38c-14.28,8.45-29.28,7.51-37.88,6.79c-6.65-0.55-15.01-4.69-16.26-10.16
		c-0.64-2.8,0.08-4.77,1.78-6.82c0.39-0.48,0.05-1.2-0.54-1.39c-2.54-0.82-6.46-2.56-6.8-7.75c-0.28-4.25,2.21-6.05,3.56-7.55
		c0.4-0.45,0.07-0.92-0.5-1.12c-2.43-0.83-6.66-3.87-6.51-8.52c0.17-5.37,4.26-7.4,7.26-8.35c0.54-0.17-3.08-1.4-3.65-1.44
		c0,0-14.88-1.17-21.28-2.23c-6.07-1-11.73-2.61-10.7-8.5C4.6,47.73,6.17,45.22,12.9,45.22z"/>
	<path style="fill:#A47B62;" d="M52.97,61.04c-2.26,1.57-6.51,4.25-6.74,9.05c-0.22,4.63,3.52,6.3,3.93,8.64
		c0.55,3.19-1.72,3.56-1.48,7.99c0.23,4.25,3.1,5.08,3.51,8.08c0.26,1.91-1.8,3.6-1.43,8.22c0.15,1.92,2.08,5.91,5.68,7.39
		c2.64,1.08-2.15,3.13-3.55,2.73c-4.54-1.3-10.06-4.16-11.3-9.15c-0.01-0.05-0.02-0.09-0.03-0.14c-0.64-2.8,0.08-4.77,1.78-6.82
		c0.39-0.48,0.05-1.2-0.54-1.39c-2.54-0.82-6.46-2.56-6.8-7.75c-0.28-4.25,2.21-6.05,3.56-7.55c0.4-0.45,0.07-0.92-0.5-1.12
		c-2.43-0.83-6.66-3.87-6.51-8.52c0.17-5.37,4.26-7.4,7.26-8.35C40.01,62.31,50.36,60.38,52.97,61.04z"/>
	<g>
		<path style="fill:#91674D;" d="M69.71,44.9c0.37-1.56-1.08-2.86-1.81-3.68c-2.3-2.55-3.76-5.52-4.52-7.73
			c-2.77-8.08-0.23-14.23,1.3-17.68c0,0-7.72,7.33-4.76,19.34c1,4.05,2.87,6.92,5.28,9.49C67.21,46.79,69.37,46.35,69.71,44.9z"/>
		<path style="fill:#91674D;" d="M57.82,114.03c-5.51-0.46-12-3.08-14.86-7.04c-0.29-0.4,0.21-0.89,0.59-0.57
			c2.04,1.7,6.01,3.91,13.23,4.35c17.08,1.04,27.84-0.43,37.4-6.09c2.63-1.56,5.07-3.31,7.23-4.86c2.88-2.07,4.73-3.32,7.04-4.11
			c6.3-2.15,11.1,1.94,11.1,1.94c-3.34-0.31-6.9-0.76-9.43,0.22c-3.48,1.34-8.32,5.77-14.42,9.38
			C81.43,115.7,66.43,114.75,57.82,114.03z"/>
		<path style="fill:#91674D;" d="M45.14,63.24c5.89,0.35,8.52-2.15,8.52-2.15s-1.52-0.9-7.9-1.8c0,0-30.29-2.18-34.97-2.73
			c-5.92-0.69-6.75-5.09-6.75-5.09s-1.1,6.83,7.25,8.18C17.52,60.67,39.25,62.89,45.14,63.24z"/>
		<path style="fill:#91674D;" d="M48.54,92.97c2.4-0.18,3.4,0.44,3.65,1.78c0.25,1.34-1.2,1.98-3.93,1.89
			c-6.9-0.21-11.62-3.07-12.03-7.41C36.23,89.23,38.73,93.7,48.54,92.97z"/>
		<path style="fill:#91674D;" d="M46.56,76.68c2.16-0.08,3.4,0.73,3.57,2.29s-1.51,2.1-3.12,2.08c-6.93-0.09-14-3.6-14.38-9.04
			C32.63,72.01,35.28,77.12,46.56,76.68z"/>
	</g>
</g>
</svg>
