<?xml version="1.0" encoding="utf-8"?>
<!-- Generator: Adobe Illustrator 25.2.3, SVG Export Plug-In . SVG Version: 6.00 Build 0)  -->
<svg version="1.1" id="Layer_3" xmlns="http://www.w3.org/2000/svg" xmlns:xlink="http://www.w3.org/1999/xlink" x="0px" y="0px"
	 viewBox="0 0 128 128" style="enable-background:new 0 0 128 128;" xml:space="preserve">
<g>
	<path style="fill:#B7E4EA;" d="M122.9,34.04c0,0-16.33-14.01-25.99-18.59c-6.68-3.16-16.63-4.73-17.18-4.73
		c0,0-4.86,2.44-15.73,2.44s-15.73-2.44-15.73-2.44c-0.55,0-10.5,1.56-17.18,4.73C21.42,20.02,5.1,34.04,5.1,34.04
		c-0.56,0.44-0.78,1.17-0.56,1.85c1.05,3.26,4.55,13.43,14.75,21.3c0.62,0.48,1.5,0.45,2.11-0.05c2.54-2.14,10.42-7.01,10.42-7.01
		l-0.71,61.01c-0.09,0.75,0.29,1.49,0.96,1.83c2.89,1.49,13.06,5.01,31.94,5.01s29.05-3.53,31.94-5.01
		c0.67-0.35,1.05-1.08,0.96-1.83l-0.71-61.01c0,0,7.88,4.88,10.42,7.01c0.6,0.51,1.48,0.54,2.11,0.05
		c10.2-7.88,13.7-18.04,14.75-21.3C123.68,35.21,123.46,34.48,122.9,34.04z"/>
	<path style="fill:#75C6D3;" d="M47.54,12.42c0,0,2.47,13.36,16.05,13.35c16.7-0.01,17.78-13.98,17.78-13.98s-9.83,2.94-17.24,2.94
		S47.54,12.42,47.54,12.42z"/>
	<g>
		<g>
			<path style="fill:#0288D1;" d="M63.59,16.73c-4.92,0-10.11-0.97-13.47-1.75l-2.09-4.84c0.09,0.03,8.29,2.28,15.62,2.28
				c7.37,0,16.27-2.27,16.37-2.31l-1.61,4.72C74.86,15.61,68.87,16.73,63.59,16.73z"/>
		</g>
		<path style="fill:#01579B;" d="M51.7,11c-2.49-0.5-3.62-0.85-3.66-0.86l2.2,4.86c0.47,0.11,1.44,0.32,2.06,0.45
			C51.74,13.85,51.55,12.44,51.7,11z"/>
		<path style="fill:#01579B;" d="M75.05,15.51c1-0.19,2.25-0.45,3.27-0.67l1.7-4.73c-0.04,0.01-1.33,0.34-3.31,0.75
			C76.5,12.42,75.73,14.13,75.05,15.51z"/>
		<g>
			<path style="fill:#29B6F6;" d="M63.45,28.24c-11.86,0-18.23-9.92-19.84-16.37c0,0-0.24-0.52,0.45-0.75
				c0.51-0.17,2.6-0.87,3.52-1.06c0.33-0.07,0.65,0.12,0.76,0.45c0.87,2.51,4.99,12.76,15.97,12.76c11.11,0,14.64-10.09,15.35-12.73
				c0.09-0.36,0.43-0.57,0.78-0.5c0.95,0.2,2.98,0.94,3.47,1.12c0.61,0.23,0.47,0.67,0.47,0.67c-0.95,6.27-6.01,16.4-20.92,16.41
				C63.46,28.24,63.46,28.24,63.45,28.24z"/>
		</g>
	</g>
	<g>
		<g>
			<path style="fill:#29B6F6;" d="M120.52,31.92c-0.12-0.1-0.3-0.04-0.34,0.11c-0.32,1.31-1.81,6.49-6.29,12.95
				c-3.88,5.6-8.2,9.64-9.14,10.49c-0.1,0.09-0.09,0.24,0.02,0.32c0.46,0.36,1.56,1.22,1.87,1.44c0.4,0.27,0.63,0.37,1.02,0.37
				c0.36,0,0.76-0.12,1.06-0.35c10.2-7.88,13.76-18.06,14.81-21.32c0.1-0.31,0.19-0.94-0.18-1.5C123,33.92,121.2,32.47,120.52,31.92
				z"/>
		</g>
		<g>
			<path style="fill:#29B6F6;" d="M7.48,31.92c0.12-0.1,0.3-0.04,0.34,0.11c0.32,1.31,1.81,6.49,6.29,12.95
				c3.88,5.6,8.2,9.64,9.14,10.49c0.1,0.09,0.09,0.24-0.02,0.32c-0.46,0.36-1.56,1.22-1.87,1.44c-0.4,0.27-0.63,0.37-1.02,0.37
				c-0.36,0-0.76-0.12-1.06-0.35C9.08,49.38,5.52,39.19,4.47,35.93c-0.1-0.31-0.19-0.94,0.18-1.5C5,33.92,6.8,32.47,7.48,31.92z"/>
		</g>
	</g>
</g>
</svg>
