<?xml version="1.0" encoding="utf-8"?>
<!-- Generator: Adobe Illustrator 25.2.3, SVG Export Plug-In . SVG Version: 6.00 Build 0)  -->
<svg version="1.1" id="Layer_3" xmlns="http://www.w3.org/2000/svg" xmlns:xlink="http://www.w3.org/1999/xlink" x="0px" y="0px"
	 viewBox="0 0 128 128" style="enable-background:new 0 0 128 128;" xml:space="preserve">
<g>
	<g>
		<circle style="fill:#E2A610;" cx="72.11" cy="19.16" r="8.56"/>
		<path style="fill:#9E740B;" d="M65.19,24.18c-0.48-0.62-0.92-1.28-1.31-1.97c-0.04-0.07-0.08-0.14-0.09-0.21
			c-0.02-0.12,0.02-0.24,0.05-0.36c0.24-0.82,0.32-1.68,0.25-2.52c-0.06-0.65-0.21-1.29-0.21-1.94c0-0.43,0.23-1.91,0.79-1.54
			c0.48,0.32,0.83,1.41,1.02,1.93c0.49,1.36,0.61,2.86,0.34,4.28C65.88,22.66,65.6,23.45,65.19,24.18z"/>
		<path style="fill:#FFCA28;" d="M74.03,12.59c0.49,0.45,0.67,1.29,0.23,1.78c-0.27,0.3-0.79,0.52-1.44,0.47
			c-1.31-0.09-2.29,0.23-3,0.51c-1.63,0.64-2.47,0.27-2.54-0.39s0.12-1.87,2.63-2.65C72.42,11.54,73.69,12.28,74.03,12.59z"/>
		<g>
			<g>
				<path style="fill:#FFCA28;" d="M64.45,33.8c0,0,0.91-3.49,1.53-5.55c0.84-2.81,1.49-8,5.61-7.37c1.8,0.28,3.35,2.08,3.09,3.9
					l-2.57,9.01H64.45z"/>
			</g>
		</g>
		<circle style="fill:#FFCA28;" cx="55.89" cy="19.16" r="8.56"/>
		<path style="fill:#FFE36C;" d="M56.99,13.32c0.44,0.89,0,1.81-2.02,3.03c-2.09,1.26-2.38,2.41-3.24,3.31
			c-0.7,0.73-2.07,0.46-2.23-0.52c-0.38-2.3,0.73-4.11,1.78-5.2C52.88,12.27,56.05,11.44,56.99,13.32z"/>
		<path style="fill:#9E740B;" d="M62.77,24.24c0.3-0.41,0.73-1.09,0.9-1.53c0.05-0.12-0.34,0.03-0.69,0.36
			c-0.76,0.73-2.25,2.23-5.1,3.09c-3.71,1.12-6.32-0.24-6.7-0.12c-0.39,0.13,0.98,0.81,1.18,0.9c0.71,0.32,1.47,0.55,2.24,0.67
			l0.51,1.72l7.67,0l-1.15-3.82C62.03,25.15,62.42,24.72,62.77,24.24z"/>
	</g>
	<path style="fill:#FFCA28;" d="M101.46,29.34H26.54c-10.61,0-13.57,7.41-13.57,13.79v25.89h102.08V43.13
		C115.04,36.75,112.07,29.34,101.46,29.34z"/>
	<path style="fill:#E2A610;" d="M12.96,55.51c0,0,0.75,1.37,4.1,0.38c3.35-0.99,4.9-6.92,4.9-6.92l-0.42,20.05h-8.58V55.51z"/>
	<path style="fill:#E2A610;" d="M115.04,54.56c0,0-0.89,1.39-4.18,0.48c-3.3-0.92-4.61-7.54-4.61-7.54l0.26,21.53h8.53V54.56z"/>
	
		<radialGradient id="SVGID_1_" cx="68.7827" cy="54.6768" r="127.3763" gradientTransform="matrix(1 3.360053e-03 -1.858381e-03 0.5531 0.102 24.2052)" gradientUnits="userSpaceOnUse">
		<stop  offset="0.4439" style="stop-color:#FF689B"/>
		<stop  offset="1" style="stop-color:#D6336B"/>
	</radialGradient>
	<path style="fill:url(#SVGID_1_);" d="M112.28,63.93c-4.48-7.53-5.55-11.09-6.19-18.01c-0.42-4.54-1.72-8.05-6.17-8.05H28.08
		c-4.45,0-5.75,3.52-6.17,8.05c-0.64,6.91-1.71,10.48-6.19,18.01C8.82,75.53,3.1,85.88,4.12,93.14
		c1.95,13.9,14.39,29.79,24.29,29.79c3.63,0,67.54,0,71.18,0c9.91,0,22.34-15.89,24.29-29.79C124.9,85.88,119.18,75.53,112.28,63.93
		z"/>
	<g>
		<path style="fill:#D6336B;" d="M56.93,37.99c0,0-18.68,16.04-12.86,19.96C50.07,61.99,56.93,37.99,56.93,37.99L56.93,37.99z"/>
		<path style="fill:#D6336B;" d="M64.2,67.99c8.14,0-0.42-30.19-0.42-30.19S56.06,67.99,64.2,67.99z"/>
		<path style="fill:#D6336B;" d="M71.45,37.8c0,0,5.93,24.55,12.28,20.32S71.45,37.8,71.45,37.8L71.45,37.8z"/>
	</g>
</g>
</svg>
