<?xml version="1.0" encoding="UTF-8" standalone="no"?><svg xmlns:dc="http://purl.org/dc/elements/1.1/" xmlns:cc="http://creativecommons.org/ns#" xmlns:rdf="http://www.w3.org/1999/02/22-rdf-syntax-ns#" xmlns:svg="http://www.w3.org/2000/svg" xmlns="http://www.w3.org/2000/svg" viewBox="0 0 45 45" style="enable-background:new 0 0 45 45;" xml:space="preserve" version="1.1" id="svg2"><metadata id="metadata8"><rdf:RDF><cc:Work rdf:about=""><dc:format>image/svg+xml</dc:format><dc:type rdf:resource="http://purl.org/dc/dcmitype/StillImage"/></cc:Work></rdf:RDF></metadata><defs id="defs6"><clipPath id="clipPath16" clipPathUnits="userSpaceOnUse"><path id="path18" d="M 0,36 36,36 36,0 0,0 0,36 Z"/></clipPath></defs><g transform="matrix(1.25,0,0,-1.25,0,45)" id="g10"><g id="g12"><g clip-path="url(#clipPath16)" id="g14"><g transform="translate(13.375,19.4614)" id="g20"><path id="path22" style="fill:#ef9645;fill-opacity:1;fill-rule:nonzero;stroke:none" d="M 0,0 C 0,0 0.003,-0.022 0.009,-0.061 L -3.773,8.052 C -4.059,8.664 -4.921,8.867 -5.698,8.504 L -5.759,8.476 C -6.439,8.158 -6.83,7.512 -6.724,6.945 c 0,0 -1.275,1.147 -2.024,0.798 L -8.807,7.715 C -9.555,7.366 -9.929,6.579 -9.639,5.958 l 0.533,-1.192 c -0.301,0.644 -1.19,0.865 -1.985,0.494 L -11.154,5.23 C -11.949,4.86 -12.351,4.037 -12.05,3.393 l 5.131,-13.15 6.794,-0.212 2.031,6.25 L 0,0 Z"/></g><g transform="translate(33.8525,24.6919)" id="g24"><path id="path26" style="fill:#ef9645;fill-opacity:1;fill-rule:nonzero;stroke:none" d="m 0,0 -0.062,0.029 c -0.796,0.372 -1.685,0.15 -1.986,-0.494 l 0.533,1.193 c 0.29,0.621 -0.084,1.407 -0.832,1.757 l -0.059,0.027 c -0.749,0.35 -1.591,0.13 -1.882,-0.491 L -4.431,1.715 c 0.108,0.567 -0.283,1.213 -0.964,1.53 L -5.456,3.273 C -6.233,3.636 -7.095,3.434 -7.38,2.822 l -3.771,-8.089 c -0.02,0.066 -0.034,0.115 -0.034,0.115 l -2.021,-4.52 3.353,-6.395 6.196,4.463 4.553,9.766 C 1.197,-1.194 0.795,-0.371 0,0"/></g><g transform="translate(35.8086,20.3276)" id="g28"><path id="path30" style="fill:#ffdc5d;fill-opacity:1;fill-rule:nonzero;stroke:none" d="M 0,0 C 0,0 0.653,1.043 -0.454,1.558 -1.561,2.072 -1.937,0.9 -1.937,0.9 l -2.389,-5.142 c -0.141,0.164 -0.705,0.516 -0.866,0.671 l 3.315,7.136 c 0,0 0.653,1.044 -0.455,1.559 -1.107,0.514 -1.483,-0.658 -1.483,-0.658 l -3.119,-6.711 c -0.174,0.099 -0.63,0.327 -0.812,0.424 L -4.13,5.96 c 0,0 0.652,1.043 -0.455,1.557 C -5.691,8.032 -6.067,6.86 -6.067,6.86 l -3.619,-7.779 c -0.193,0.078 -0.796,0.334 -0.988,0.403 l 3.38,7.273 c 0,0 0.651,1.043 -0.455,1.557 -1.108,0.515 -1.483,-0.656 -1.483,-0.656 l -3.575,-7.689 -0.286,-0.617 -0.128,-0.276 c 3.323,-1.544 4.487,-5.617 3.2,-8.384 -0.257,-0.554 -1.176,-0.3 -1.176,-0.3 1.544,3.321 0.358,6.566 -2.964,8.109 l 0.143,4.546 c 0,0 0.134,1.213 -1.079,1.348 -1.215,0.134 -1.348,-1.08 -1.348,-1.08 l -0.509,-3.183 c -0.203,-1.262 -0.431,-2.525 -0.81,-3.746 -1.066,-3.447 0.552,-7.238 3.915,-8.803 3.669,-1.705 8.028,-0.112 9.733,3.556 0.09,0.195 0.257,0.556 0.257,0.556 L 0,0 Z"/></g><g transform="translate(0.1919,20.3276)" id="g32"><path id="path34" style="fill:#ffdc5d;fill-opacity:1;fill-rule:nonzero;stroke:none" d="M 0,0 C 0,0 -0.654,1.043 0.453,1.558 1.561,2.072 1.936,0.9 1.936,0.9 l 2.39,-5.142 c 0.14,0.164 0.705,0.516 0.866,0.671 L 1.877,3.565 c 0,0 -0.654,1.044 0.455,1.559 1.106,0.514 1.482,-0.658 1.482,-0.658 l 3.119,-6.711 c 0.175,0.099 0.63,0.327 0.813,0.424 L 4.129,5.96 c 0,0 -0.652,1.043 0.455,1.557 C 5.691,8.032 6.067,6.86 6.067,6.86 l 3.618,-7.779 c 0.193,0.078 0.797,0.334 0.988,0.403 l -3.38,7.273 c 0,0 -0.651,1.043 0.456,1.557 1.107,0.515 1.483,-0.656 1.483,-0.656 l 3.574,-7.689 0.286,-0.617 0.128,-0.276 c -3.323,-1.544 -4.486,-5.617 -3.2,-8.384 0.258,-0.554 1.177,-0.3 1.177,-0.3 -1.544,3.321 -0.359,6.566 2.963,8.109 l -0.142,4.546 c 0,0 -0.135,1.213 1.078,1.348 1.215,0.134 1.349,-1.08 1.349,-1.08 l 0.508,-3.183 c 0.203,-1.262 0.432,-2.525 0.811,-3.746 1.067,-3.447 -0.552,-7.238 -3.916,-8.803 -3.669,-1.705 -8.027,-0.112 -9.732,3.556 -0.09,0.195 -0.257,0.556 -0.257,0.556 L 0,0 Z"/></g></g></g></g></svg>
