<?xml version="1.0" encoding="utf-8"?>
<!-- Generator: Adobe Illustrator 25.2.3, SVG Export Plug-In . SVG Version: 6.00 Build 0)  -->
<svg version="1.1" id="Layer_4" xmlns="http://www.w3.org/2000/svg" xmlns:xlink="http://www.w3.org/1999/xlink" x="0px" y="0px"
	 viewBox="0 0 128 128" style="enable-background:new 0 0 128 128;" xml:space="preserve">
<g>
	<path style="fill:#FF5252;" d="M104.2,85.65l-78.53,3.87c0.23,5.9,0.81,7.74,0.81,7.74S56.95,123,57.98,123.56
		c1.56,0.86,13.44,0.35,14.84-0.7c1.12-0.85,31.74-30.13,31.74-30.13S104.56,87.4,104.2,85.65z"/>
	<path style="fill:#FF5252;" d="M44.46,27.78c0,0,15.82,25.03,16.96,37.45c0,0-20.95-0.79-38.55-6.8
		C22.87,58.43,27.35,36.35,44.46,27.78z"/>
	<path style="fill:#FF5252;" d="M95.33,35.18c-16.27,8.23-29.94,30.8-29.94,30.8c5.03,2.77,40.9,3.62,40.9,3.62
		C108.01,61.53,95.33,35.18,95.33,35.18z"/>
	<path style="fill:none;stroke:#D52B2B;stroke-width:3.5984;stroke-linecap:round;stroke-miterlimit:10;" d="M44.46,27.78
		c-2.32-6.23-0.23-11.21,4.56-13.44c7.07-3.28,12.59,1.85,15.19,2.75c8.06,2.77,17.15-2.66,25.27-0.07c1.42,0.45,2.8,1.17,3.83,2.26
		c1.53,1.62,2.19,3.9,2.5,6.13c0.44,3.19-0.87,9.19-1.23,10.7"/>
	<path style="fill:none;stroke:#D52B2B;stroke-width:3.5984;stroke-linecap:round;stroke-miterlimit:10;" d="M59.74,25.06
		c-0.67,1.26-1.16,2.68-1.01,4.1s1.08,2.83,2.44,3.17c2.05,0.52,3.9-1.44,4.81-3.39c2.8-6.03,1.39-13.33,3.71-19.57
		c1.04-2.79,3.34-5.56,6.25-5.36c0.8,0.06,1.62,0.37,2.1,1.03c1.15,1.56-0.2,3.72-1.54,5.11c-2.75,2.84-5.77,5.47-8.96,7.77
		C64.55,20.09,61.58,21.61,59.74,25.06z"/>
	<path style="fill:none;stroke:#D52B2B;stroke-width:3.5984;stroke-linecap:round;stroke-miterlimit:10;" d="M81.24,29.24
		c-1.35,0.06-2.66-0.43-3.86-1.04c-3.98-2.01-7.27-5.42-9.2-9.5"/>
	<g>
		<g>
			<ellipse style="fill:#FFADA6;" cx="37.53" cy="40" rx="3.57" ry="3.65"/>
			<ellipse style="fill:#FFADA6;" cx="47.8" cy="51.15" rx="3.57" ry="3.65"/>
			<ellipse style="fill:#FFADA6;" cx="58.07" cy="62.31" rx="3.57" ry="3.65"/>
			<ellipse style="fill:#FFADA6;" cx="89.52" cy="95.21" rx="3.57" ry="3.65"/>
			<path style="fill:#FFADA6;" d="M100.16,90.26c0.4-2.38,4.16-2.92,4.16-2.92c0.36,2.24,0.23,7.47,0.23,7.47
				C101.1,94.69,99.82,92.25,100.16,90.26z"/>
		</g>
		<g>
			<ellipse style="fill:#FFADA6;" cx="74.92" cy="55.9" rx="3.57" ry="3.65"/>
			<ellipse style="fill:#FFADA6;" cx="84.82" cy="66.59" rx="3.57" ry="3.65"/>
		</g>
		<g>
			<ellipse style="fill:#FFADA6;" cx="90.44" cy="51.98" rx="3.57" ry="3.65"/>
			<ellipse style="fill:#FFADA6;" cx="100.71" cy="63.14" rx="3.57" ry="3.65"/>
		</g>
		<g>
			<ellipse style="fill:#FFADA6;" cx="94.95" cy="39.76" rx="3.57" ry="3.65"/>
		</g>
		<g>
			<ellipse style="fill:#FFADA6;" cx="34.42" cy="56.46" rx="3.57" ry="3.65"/>
			<ellipse style="fill:#FFADA6;" cx="75.49" cy="99.76" rx="3.57" ry="3.65"/>
			<path style="fill:#FFADA6;" d="M81.31,108.06c0.36-1.98,2.23-3.29,4.16-2.92c1.94,0.37,2.86,1.57,2.49,3.56l-3.81,3.62
				C82.23,111.94,80.95,110.04,81.31,108.06z"/>
		</g>
		<g>
			<ellipse style="fill:#FFADA6;" cx="50.03" cy="93.26" rx="3.57" ry="3.65"/>
			<ellipse style="fill:#FFADA6;" cx="59.88" cy="103.4" rx="3.57" ry="3.65"/>
			<ellipse style="fill:#FFADA6;" cx="70.15" cy="115.06" rx="3.57" ry="3.65"/>
		</g>
		<g>
			<ellipse style="fill:#FFADA6;" cx="33.77" cy="95.71" rx="3.57" ry="3.65"/>
			<ellipse style="fill:#FFADA6;" cx="44.04" cy="106.86" rx="3.57" ry="3.65"/>
			<ellipse style="fill:#FFADA6;" cx="54.31" cy="118.01" rx="3.57" ry="3.65"/>
		</g>
	</g>
	<path style="fill:none;stroke:#D52B2B;stroke-width:3.4449;stroke-miterlimit:10;" d="M21.99,60.2
		c5.22-17.54,13.73-26.02,21.86-33.41c7.33,11.67,15.07,26.23,18.84,39.23"/>
	<path style="fill:none;stroke:#D52B2B;stroke-width:3.4449;stroke-miterlimit:10;" d="M64.67,65.26
		c8.27-11.78,18.5-22.29,30.22-31.08c5.82,10.95,9.39,18.91,12.34,34.57"/>
	<g>
		<path style="fill:#D52B2B;" d="M108.06,75.97c-35.59-0.08-64.25-3.79-88.39-10.91c-0.47-0.14-0.73-0.63-0.59-1.1l1.97-6.58
			c0.14-0.46,0.62-0.72,1.08-0.59c23.33,6.88,51.19,10.47,85.94,10.55c0.48,0,0.87,0.31,0.87,1.31v6.43
			C108.95,75.58,108.55,75.97,108.06,75.97z"/>
	</g>
	<g>
		<path style="fill:#D52B2B;" d="M51.33,121.47c-3.19-3.04-12.16-11.1-23.94-20.11c0,0-0.37-0.8-0.61-1.88
			c-0.23-1.08-0.3-2.22-0.3-2.22s14.88,7.1,32.13,26.5c0,0-1.92-0.09-3.54-0.43c-0.2-0.04-0.38-0.08-0.56-0.12
			C53.31,122.92,52.22,122.32,51.33,121.47z"/>
	</g>
	<g>
		<path style="fill:#D52B2B;" d="M78.8,120.24c-0.82,0.94-1.85,1.68-3.03,2.09c-0.01,0.01-0.03,0.01-0.04,0.02
			c-1.48,0.51-2.91,0.51-2.91,0.51s15.02-21.63,31.72-30.56c0,0,0.13,1.18,0.01,2.52s-0.39,1.99-0.39,1.99
			C95.05,102.07,82.1,116.48,78.8,120.24z"/>
	</g>
	<g>
		<path style="fill:#D52B2B;" d="M26.7,94.63c-0.56-0.05-0.99-0.53-0.99-1.1l-0.31-6.76c-0.01-0.67,0.56-1.19,1.22-1.13
			c6.02,0.61,33.25,2.18,75.81-4.92c0.63-0.11,1.23,0.33,1.31,0.96l0.81,6.73c0.07,0.59-0.34,1.14-0.93,1.24
			C79.16,93.93,48.22,96.41,26.7,94.63z"/>
	</g>
</g>
</svg>
