<svg xmlns="http://www.w3.org/2000/svg" viewBox="0 0 64 64" enable-background="new 0 0 64 64"><g fill="#ffe1bd"><path d="m2.9 26.8c-1 .8-1.2 2.3-.4 3.3l10.8 13.8 3.7-2.9-10.8-13.7c-.8-1.1-2.3-1.3-3.3-.5"/><path d="m25 34.8l3.9-3-12.3-15.8c-.8-1.1-2.4-1.3-3.5-.4-1.1.8-1.3 2.4-.4 3.5l12.3 15.7"/></g><path d="m13.1 15.6c-.1.1-.2.2-.3.3 1-.5 2.4-.3 3.1.6l12.3 15.7.7-.5-12.3-15.7c-.8-1-2.4-1.2-3.5-.4" fill="#e6b796"/><path d="m17 41.1l4-3.1-12.6-16.1c-.9-1.1-2.5-1.3-3.6-.5-1.1.9-1.3 2.5-.4 3.6l12.6 16.1" fill="#ffe1bd"/><path d="m4.8 21.4c-.1.1-.2.2-.3.3 1.1-.6 2.4-.3 3.2.7l7.8 10 1.5.5-8.6-11c-.8-1.2-2.5-1.4-3.6-.5" fill="#e6b796"/><path d="m20 36.6l4-3.1-12.6-16.1c-.9-1.1-2.5-1.3-3.6-.5-1.1.9-1.3 2.5-.4 3.6l12.6 16.1" fill="#ffe1bd"/><g fill="#e6b796"><path d="m7.8 17c-.1.1-.2.2-.3.3 1.1-.6 2.5-.3 3.2.7l8.9 11.3 1.5.5-9.6-12.3c-.9-1.2-2.6-1.4-3.7-.5"/><path d="m2.9 26.8c-.1.1-.2.2-.3.3 1-.5 2.2-.2 2.9.7l6.4 8.2 1.5.5-7.2-9.2c-.8-1.1-2.3-1.3-3.3-.5"/></g><path d="m32.3 18.5c-1.9-.9-4.2 1-4.5 5.6-.2 3.2-.1 4-1.8 5.3l-1.5-1.9c0 0-14.9 11.7-13.9 12.9 0 0 3.4 5.8 7.4 7.9 6 3.2 16.7-4 14.8-15.3-1.3-6.7 1.5-13.5-.5-14.5" fill="#ffe1bd"/><g fill="#e6b796"><path d="m32.3 18.5c-.4-.2-.7-.2-1.1-.2.1 0 .2.1.3.1 2 1 .9 4.5.5 7.5-.3 2.4-.5 4.9.1 7 2.6 9.6-6.1 16.4-12.4 15.9 6.3 1.2 15.9-5.7 13.2-15.7-.6-2.2-.4-4.5-.1-7 .4-3.1 1.5-6.6-.5-7.6"/><path d="m26.4 29c-3.5 1.2-7.8 7.6-2.7 12.5-4-5.1-.4-10 2.2-12 .3-.3.5-.5.5-.5"/></g><g fill="#ffe1bd"><path d="m61.1 26.7c1 .8 1.2 2.3.4 3.3l-10.8 13.8-3.7-2.8 10.8-13.8c.8-1.1 2.3-1.3 3.3-.5"/><path d="m39 34.7l-3.9-3 12.3-15.7c.8-1.1 2.4-1.3 3.5-.4 1.1.8 1.3 2.4.4 3.5l-12.3 15.6"/></g><path d="m50.9 15.5c.1.1.2.2.3.3-1-.5-2.4-.3-3.1.6l-12.3 15.8-.7-.5 12.3-15.7c.8-1.1 2.4-1.3 3.5-.5" fill="#e6b796"/><path d="m47 41l-4-3.1 12.6-16.1c.9-1.1 2.5-1.3 3.6-.5 1.1.9 1.3 2.5.4 3.6l-12.6 16.1" fill="#ffe1bd"/><path d="m59.2 21.3c.1.1.2.2.3.3-1.1-.6-2.4-.3-3.2.7l-7.8 10-1.5.5 8.6-11c.8-1.1 2.5-1.3 3.6-.5" fill="#e6b796"/><path d="m44 36.5l-4-3.1 12.6-16.1c.9-1.1 2.5-1.3 3.6-.5 1.1.9 1.3 2.5.4 3.6l-12.6 16.1" fill="#ffe1bd"/><g fill="#e6b796"><path d="m56.2 16.9c.1.1.2.2.3.3-1.1-.6-2.4-.3-3.2.7l-8.8 11.3-1.5.5 9.6-12.3c.8-1.2 2.5-1.4 3.6-.5"/><path d="m61.1 26.7c.1.1.2.2.3.3-1-.5-2.2-.2-2.9.7l-6.4 8.2-1.5.5 7.2-9.2c.8-1.1 2.3-1.3 3.3-.5"/></g><path d="m31.7 18.5c1.9-.9 4.2 1 4.5 5.6.2 3.2.1 4 1.8 5.3l1.5-1.9c0 0 14.9 11.7 13.9 12.9 0 0-3.4 5.8-7.4 7.9-6 3.2-16.7-4-14.8-15.3 1.3-6.8-1.5-13.6.5-14.5" fill="#ffe1bd"/><g fill="#e6b796"><path d="m31.7 18.5c.4-.2.7-.2 1.1-.2-.1 0-.2.1-.3.1-2 1-.9 4.5-.5 7.5.3 2.4.5 4.9-.1 7-2.6 9.6 6.1 16.4 12.4 15.9-6.3 1.2-15.9-5.8-13.2-15.8.6-2.2.4-4.5.1-7-.4-3.1-1.5-6.6.5-7.5"/><path d="m37.6 28.9c3.5 1.2 7.8 7.6 2.7 12.5 4-5.1.4-10-2.2-12-.3-.3-.5-.5-.5-.5"/></g></svg>