<?xml version="1.0" encoding="utf-8"?>
<!-- Generator: Adobe Illustrator 25.2.3, SVG Export Plug-In . SVG Version: 6.00 Build 0)  -->
<svg version="1.1" id="Layer_3" xmlns="http://www.w3.org/2000/svg" xmlns:xlink="http://www.w3.org/1999/xlink" x="0px" y="0px"
	 viewBox="0 0 128 128" style="enable-background:new 0 0 128 128;" xml:space="preserve">
<g>
	<path style="fill:#F19534;" d="M94.52,21.81c2.44-1.18,4.13-3.67,4.13-6.56c0-4.02-3.26-7.28-7.28-7.28
		c-4.02,0-7.28,3.26-7.28,7.28c0,2.93,1.73,5.44,4.22,6.6c-2.88,15.6-7.3,27.21-23.75,29.69c0,0,4.43,22.15,25.15,22.15
		s22.82-21.93,22.82-21.93C95.72,52.62,94.3,31.49,94.52,21.81z"/>
	<path style="fill:#F19534;" d="M34.74,21.81c-2.44-1.18-4.13-3.67-4.13-6.56c0-4.02,3.26-7.28,7.28-7.28
		c4.02,0,7.28,3.26,7.28,7.28c0,2.93-1.73,5.44-4.22,6.6c2.88,15.6,7.3,27.21,23.75,29.69c0,0-4.43,22.15-25.15,22.15
		S16.74,51.77,16.74,51.77C33.54,52.62,34.96,31.49,34.74,21.81z"/>
	<path style="fill:#FFCA28;" d="M89.43,73.69c0.09,0,0.18,0.01,0.27,0.01c5.71,0,10-1.67,13.22-4.08L89.43,73.69z"/>
	<path style="fill:#FFCA28;" d="M119.24,16.86c-3.33-0.45-6.51,2.72-7.09,7.06c-0.36,2.71,0.37,5.24,1.78,6.87l-2.4,9.95
		c0,0-3.67,23.51-22.21,28.15c-14.82,3.71-20.19-23.42-21.49-31.8c2.82-1.4,4.77-4.3,4.77-7.67c0-4.73-3.83-8.56-8.56-8.56
		s-8.56,3.83-8.56,8.56c0,3.39,1.98,6.32,4.85,7.7c-1.03,8.27-5.57,34.5-21.57,31.76C22.52,66.09,15.43,38.74,13.79,31.3
		c1.95-1.6,3.04-4.42,2.64-7.45c-0.58-4.35-4.02-7.47-7.68-6.98c-3.66,0.49-6.15,4.41-5.57,8.75c0.42,3.16,2.36,5.67,4.79,6.62
		l12.72,79.03c0,0,11.1,8.77,43.35,8.77s43.35-8.77,43.35-8.77l12.75-79.24c2.06-1.08,3.68-3.51,4.08-6.49
		C124.81,21.19,122.58,17.31,119.24,16.86z"/>
	<ellipse style="fill:#26A69A;" cx="64.44" cy="88.3" rx="9.74" ry="11.61"/>
	<path style="fill:#69F0AE;" d="M64.44,79.56c0.38,0.42,0.72,1.19,0,2.69c-0.72,1.5-4.6,3.53-5.31,3.94
		c-0.71,0.42-1.18,0.23-1.4,0.06c-1.05-0.84-0.65-2.74,0.03-3.9C59.22,79.84,62.31,77.25,64.44,79.56z"/>
	<path style="fill:#00796B;" d="M63.72,92.63c-1.1,0.53-4.71,2.14-3.52,4.05c0.7,1.13,2.15,1.61,3.48,1.67
		c1.33,0.06,2.64-0.36,3.82-0.97c5.6-2.9,6.05-10.52,4.96-11.1c-1.12-0.6-1.88,0.95-2.46,1.61C68.25,89.86,66.09,91.48,63.72,92.63z
		"/>
	<path style="fill:#26A69A;" d="M118.09,78.8c1.56-8.63-4.24-10.79-4.24-10.79s-3.74-0.68-5.5,9.03c-1.76,9.7,1.98,10.38,1.98,10.38
		S116.52,87.43,118.09,78.8z"/>
	<path style="fill:#69F0AE;" d="M115.51,70.96c1.36,1.82-0.25,4.51-2.86,6.3c-0.77,0.53-1.79,0.33-1.94-0.11
		c-0.42-1.26-0.24-2.69,0.32-3.9C112.69,69.62,114.82,70.04,115.51,70.96z"/>
	<path style="fill:#26A69A;" d="M9.76,79.06C8.19,70.44,14,68.27,14,68.27s3.74-0.68,5.5,9.03c1.76,9.7-1.98,10.38-1.98,10.38
		S11.32,87.69,9.76,79.06z"/>
	<path style="fill:#69F0AE;" d="M15.78,71.2c1.34,1,0.79,2.31-0.22,3.22c-1.15,1.05-2.03,2.2-3.01,3.39
		c-0.15,0.18-0.32,0.38-0.56,0.43c-0.46,0.1-0.83-0.37-0.98-0.82c-0.43-1.26-0.35-2.74,0.29-3.9C13.12,70.21,15.26,70.81,15.78,71.2
		z"/>
	<path style="fill:#F44336;" d="M99.99,87.16c-0.69,3.93-3.84,6.66-7.05,6.1c-3.21-0.56-3.65-3.91-2.96-7.84
		c0.69-3.93,2.24-6.94,5.44-6.38C98.63,79.6,100.68,83.24,99.99,87.16z"/>
	<path style="fill:#F44336;" d="M30.43,87.16c0.69,3.93,3.84,6.66,7.05,6.1s3.65-3.91,2.96-7.84c-0.69-3.93-2.24-6.94-5.44-6.38
		S29.75,83.24,30.43,87.16z"/>
	<path style="fill:#FFA8A4;" d="M35.08,84.54c-0.73,0.82-2.51,2.47-3.14,1.21c-0.86-1.72,0.33-4.32,1.69-5.18
		c1.36-0.86,2.47-0.18,2.66,0.59C36.52,82.14,35.73,83.8,35.08,84.54z"/>
	<path style="fill:#FFA8A4;" d="M91.98,87.05c-0.99-0.15-1.1-3.56,1.56-6.24c1.27-1.28,3.09,0.24,2.63,2.29
		C95.73,85.05,93.79,87.33,91.98,87.05z"/>
	<path style="fill:#FFCA28;" d="M109.15,98.21c-5.99,3-19.73,10.99-45.1,10.99s-39.11-7.99-45.1-10.99c0,0-2.15,1.15-2.15,2.35v9.21
		c0,1.23,0.65,2.36,1.71,2.99c4.68,2.76,18.94,9.28,45.55,9.28s40.87-6.52,45.55-9.28c1.06-0.63,1.71-1.76,1.71-2.99v-9.21
		C111.3,99.36,109.15,98.21,109.15,98.21z"/>
	<path style="fill:#FFF59D;" d="M39.6,110.84c2.8,0.55,3.65,0.79,3.46,2.35c-0.39,3.07-6.76,2.34-10.53,1.35
		c-7.79-2.05-9.37-4.21-9.37-6.14c0-1.77,1.36-1.98,3.46-1.24C29.13,108.05,33.01,109.55,39.6,110.84z"/>
	<path style="fill:none;stroke:#F19534;stroke-width:4;stroke-linecap:round;stroke-miterlimit:10;" d="M109.15,100.23
		c0,0-16.57,9.38-45.1,9.38s-45.1-9.38-45.1-9.38"/>
	<path style="fill:#FFCA28;" d="M26.97,49.57c5.32-3.8,8.18-10.61,8.43-21.45c0.02-0.98,0.3-1.27,0.83-1.33
		c0.85-0.09,0.99,0.68,0.98,1.23c-0.24,11.7-1.73,19.01-7.63,23.13c-0.29,0.2-2.36,1.46-3.24,0.59
		C25.29,50.72,26.63,49.81,26.97,49.57z"/>
	<path style="fill:#FFCA28;" d="M31.84,15.54c-0.17-1.81,0.25-5.07,5-6.55c1.39-0.43,2.25,0.25,2.41,0.78
		c0.4,1.32-0.76,1.84-1.29,2.01c-3.65,1.18-3.83,3-4.58,4.16S31.9,16.09,31.84,15.54z"/>
	<path style="fill:#FFCA28;" d="M78.22,47.17c4.81-4.27,8-9.04,10.1-19.9c0.19-0.96,0.47-1.22,0.99-1.2
		c0.85,0.02,0.89,0.81,0.8,1.35C88.33,39,86.64,42.3,80.71,48.87c-0.67,0.74-2.3,1.41-3.22,0.64
		C76.66,48.82,77.62,47.71,78.22,47.17z"/>
	<path style="fill:#FFCA28;" d="M85.3,15.63c-0.17-1.81,0.25-5.07,5-6.55c1.39-0.43,2.25,0.25,2.41,0.78
		c0.4,1.32-0.76,1.84-1.29,2.01c-3.65,1.18-3.83,3-4.58,4.16C86.1,17.19,85.36,16.18,85.3,15.63z"/>
	<path style="fill:#FFF59D;" d="M31.59,71.62C19.97,66.35,16.55,52.6,14.73,46.63c-0.24-0.79-0.12-1.54,0.67-1.78
		c0.79-0.24,1.26,0.27,1.51,1.06c1.32,4.33,6.45,18.79,17.04,22.9c0.77,0.3,1.97,1.03,1.32,2.28C34.84,71.9,33.46,72.47,31.59,71.62
		z"/>
	<path style="fill:#FFF59D;" d="M12.68,24.63c-0.56-1.16-0.79-2.26-3.84-3.53c-0.77-0.32-1.28-1.03-1.07-1.83s1.01-1.4,2.17-1.2
		c3.77,0.65,4.59,4.48,4.75,5.81C14.84,25.16,13.25,25.79,12.68,24.63z"/>
	<path style="fill:#FFF59D;" d="M96.87,71.62c11.62-5.27,15.04-19.02,16.86-24.99c0.24-0.79,0.12-1.54-0.67-1.78
		c-0.79-0.24-1.26,0.27-1.51,1.06c-1.32,4.33-6.45,18.79-17.04,22.9c-0.77,0.3-1.97,1.03-1.32,2.28C93.62,71.9,95,72.47,96.87,71.62
		z"/>
	<path style="fill:#FFF59D;" d="M115.78,24.63c0.56-1.16,0.79-2.26,3.84-3.53c0.77-0.32,1.28-1.03,1.07-1.83s-1.01-1.4-2.17-1.2
		c-3.77,0.65-4.59,4.48-4.75,5.81C113.62,25.16,115.22,25.79,115.78,24.63z"/>
	<path style="fill:#FFF59D;" d="M59.38,29.55c0.61-1.25,1.68-2.96,5.17-3.68c1.34-0.28,1.73-0.86,1.61-1.74
		c-0.24-1.83-2.52-1.7-3.75-1.41c-4.1,0.96-5.01,4.6-5.18,6.04C57.06,30.13,58.78,30.8,59.38,29.55z"/>
</g>
</svg>
