<?xml version="1.0" encoding="utf-8"?>
<!-- Generator: Adobe Illustrator 24.0.3, SVG Export Plug-In . SVG Version: 6.00 Build 0)  -->
<svg version="1.1" id="Layer_1" xmlns="http://www.w3.org/2000/svg" xmlns:xlink="http://www.w3.org/1999/xlink" x="0px" y="0px"
	 viewBox="0 0 128 128" style="enable-background:new 0 0 128 128;" xml:space="preserve">
<path id="ears" style="fill:#7A4C32;" d="M99.54,63.98h-71.1c-7.67,0-13.94,6.68-13.94,14.85s6.27,14.85,13.94,14.85h71.11
	c7.67,0,13.94-6.68,13.94-14.85S107.21,63.98,99.54,63.98z"/>
<path id="head" style="fill:#A56C43;" d="M64,12.39c-22.64,0-43.61,24.21-43.61,59.06c0,34.66,21.61,51.79,43.61,51.79
	s43.61-17.13,43.61-51.79C107.61,36.61,86.64,12.39,64,12.39z"/>
<g id="eyes_1_">
	<ellipse style="fill:#42312C;" cx="42.62" cy="74.51" rx="6.41" ry="6.64"/>
	<ellipse style="fill:#42312C;" cx="85.38" cy="74.51" rx="6.41" ry="6.64"/>
</g>
<path id="nose_1_" style="fill:#875334;" d="M69.02,86.53c-0.14-0.06-0.28-0.09-0.42-0.11h-9.2c-0.14,0.02-0.28,0.05-0.42,0.11
	c-0.83,0.34-1.29,1.2-0.9,2.12c0.4,0.92,2.23,3.5,5.92,3.5s5.52-2.58,5.92-3.5C70.31,87.74,69.85,86.87,69.02,86.53z"/>
<path id="mouth_1_" style="fill:#473530;" d="M74.95,96.95c-4.14,2.46-17.73,2.46-21.87,0c-2.38-1.42-4.81,0.75-3.82,2.91
	c0.97,2.13,8.38,7.06,14.79,7.06s13.73-4.93,14.7-7.06C79.73,97.7,77.33,95.54,74.95,96.95z"/>
<g id="hairGroup">
	<path id="hair_7_" style="fill:#3C2C23;" d="M64,4.6L64,4.6c-0.01,0-0.01,0-0.02,0s-0.01,0-0.02,0v0
		C6.52,4.91,18.29,70.51,18.29,70.51s2.58,6.77,3.75,9.75c0.17,0.43,0.79,0.38,0.89-0.07c1.23-5.49,5.64-24.94,7.87-30.85
		c1.31-3.49,4.93-5.51,8.59-4.85c5.63,1.02,14.6,2.28,24.49,2.28c0.04,0,0.07,0,0.11,0c0.03,0,0.07,0,0.11,0
		c9.89,0,18.86-1.26,24.49-2.28c3.66-0.66,7.28,1.36,8.59,4.85c2.22,5.89,6.6,25.23,7.84,30.8c0.1,0.45,0.73,0.5,0.9,0.07l3.77-9.69
		C109.68,70.51,121.45,4.91,64,4.6z"/>
	
		<radialGradient id="hairHighlights_1_" cx="63.9836" cy="68.9513" r="48.1562" gradientTransform="matrix(1 0 0 -1.1282 0 136.8382)" gradientUnits="userSpaceOnUse">
		<stop  offset="0.7945" style="stop-color:#554138;stop-opacity:0"/>
		<stop  offset="1" style="stop-color:#554138"/>
	</radialGradient>
	<path id="hairHighlights" style="fill:url(#hairHighlights_1_);" d="M109.68,70.51c0,0,11.77-65.61-45.68-65.91v0
		c-0.01,0-0.01,0-0.02,0h0c-0.01,0-0.01,0-0.02,0l0,0c-0.89,0.01-1.77,0.03-2.63,0.06c-1.71,0.07-3.36,0.2-4.95,0.39
		c-0.02,0-0.03,0-0.05,0.01C56.22,5.07,56.12,5.09,56,5.11C7.65,11.19,18.29,70.51,18.29,70.51l3.76,9.7
		c0.17,0.43,0.79,0.39,0.89-0.06c1.24-5.54,5.64-24.91,7.86-30.81c1.31-3.49,4.93-5.51,8.59-4.85c5.63,1.02,14.6,2.28,24.49,2.28
		c0.04,0,0.07,0,0.11,0c0.03,0,0.07,0,0.11,0c9.89,0,18.86-1.26,24.49-2.28c3.66-0.66,7.28,1.36,8.59,4.85
		c2.23,5.92,6.64,25.41,7.86,30.87c0.1,0.45,0.72,0.5,0.88,0.07C107.09,77.31,109.68,70.51,109.68,70.51z"/>
</g>
<g id="eyebrows">
	<path style="fill:#42312C;" d="M95.18,64.04L95.18,64.04c0.01-0.01-2.96-4.67-9.83-4.67c-6.87,0-9.84,4.66-9.84,4.66l0.01,0.01
		c-0.24,0.33-0.39,0.74-0.39,1.19c0,1.12,0.91,2.04,2.04,2.04c0.23,0,0.8-0.17,0.86-0.19c4.11-1.7,7.34-1.71,7.34-1.71
		s3.2,0.01,7.31,1.71c0.05,0.02,0.62,0.19,0.86,0.19c1.12,0,2.04-0.91,2.04-2.04C95.57,64.78,95.42,64.37,95.18,64.04z"/>
	<path style="fill:#42312C;" d="M52.47,64.04L52.47,64.04c0.01-0.01-2.96-4.67-9.83-4.67s-9.84,4.66-9.84,4.66l0.01,0.01
		c-0.24,0.33-0.39,0.74-0.39,1.19c0,1.12,0.91,2.04,2.04,2.04c0.23,0,0.8-0.17,0.85-0.19c4.12-1.7,7.34-1.71,7.34-1.71
		s3.2,0.01,7.31,1.71c0.05,0.02,0.62,0.19,0.85,0.19c1.12,0,2.04-0.91,2.04-2.04C52.86,64.78,52.71,64.37,52.47,64.04z"/>
</g>
</svg>
