<?xml version="1.0" encoding="utf-8"?>
<!-- Generator: Adobe Illustrator 24.0.3, SVG Export Plug-In . SVG Version: 6.00 Build 0)  -->
<svg version="1.1" id="Layer_1" xmlns="http://www.w3.org/2000/svg" xmlns:xlink="http://www.w3.org/1999/xlink" x="0px" y="0px"
	 viewBox="0 0 128 128" style="enable-background:new 0 0 128 128;" xml:space="preserve">
<g id="shirt">
	
		<linearGradient id="SVGID_1_" gradientUnits="userSpaceOnUse" x1="50.005" y1="32.3001" x2="50.005" y2="-3.1308" gradientTransform="matrix(1 0 0 -1 0 128)">
		<stop  offset="3.200000e-03" style="stop-color:#303F9F"/>
		<stop  offset="0.4718" style="stop-color:#273492"/>
		<stop  offset="1" style="stop-color:#1A237E"/>
	</linearGradient>
	<path style="fill:url(#SVGID_1_);" d="M96,120.76v3.2H4v-3.2c0-7.94,4.68-13.79,11.87-17.82c8.9-5,21.65-7.22,34.13-7.24
		s25.15,2.49,34.02,7.54C91.29,107.37,96,113.21,96,120.76z"/>
</g>
<g id="neck_1_">
	<path style="fill:#99674F;" d="M50,92.33h-9.08v9.98c0,4.51,3.7,8.17,8.26,8.17h1.65c4.56,0,8.26-3.66,8.26-8.17v-9.98
		C59.09,92.33,50,92.33,50,92.33z"/>
</g>
<path style="fill:#1B2B8F;" d="M104.2,104.61l-4.04,19.35h1.53h1.53h9.02h1.5h1.5v-3.2C115.25,114.01,110.98,108.62,104.2,104.61z"
	/>
<g id="lapels">
	<polygon id="undershirt" style="fill:#F5F5F5;" points="59.31,104.52 39.41,104.52 47.31,123.96 52.35,123.96 	"/>
	<g>
		
			<linearGradient id="SVGID_2_" gradientUnits="userSpaceOnUse" x1="30.6406" y1="28.7494" x2="41.2453" y2="2.796" gradientTransform="matrix(1 0 0 -1 0 128)">
			<stop  offset="0" style="stop-color:#5C6BC0"/>
			<stop  offset="1" style="stop-color:#3949AB"/>
		</linearGradient>
		<polygon style="fill:url(#SVGID_2_);" points="40.88,95.93 33.1,96.83 25.1,114.08 35.98,109.79 45.53,123.96 46.74,123.96 
			47.22,123.96 48.25,123.96 		"/>
	</g>
	<g>
		
			<linearGradient id="SVGID_3_" gradientUnits="userSpaceOnUse" x1="69.0202" y1="29.9726" x2="61.2063" y2="2.7633" gradientTransform="matrix(1 0 0 -1 0 128)">
			<stop  offset="0" style="stop-color:#5C6BC0"/>
			<stop  offset="1" style="stop-color:#3949AB"/>
		</linearGradient>
		<polygon style="fill:url(#SVGID_3_);" points="66.91,96.83 59.12,95.93 51.76,123.96 52.79,123.96 53.53,123.96 54.76,123.96 
			64.81,109.96 74.91,114.08 		"/>
	</g>
</g>
<linearGradient id="wrench_1_" gradientUnits="userSpaceOnUse" x1="110.1252" y1="75.4869" x2="98.8694" y2="4.9754" gradientTransform="matrix(1 0 0 -1 0 128)">
	<stop  offset="0" style="stop-color:#90A4AE"/>
	<stop  offset="0.2674" style="stop-color:#889DA8"/>
	<stop  offset="0.5844" style="stop-color:#78909C"/>
	<stop  offset="1" style="stop-color:#607D8B"/>
</linearGradient>
<path id="wrench" style="fill:url(#wrench_1_);" d="M121.82,56.71c-0.34-0.6-0.92-0.88-1.49-0.88c-0.76,0-1.5,0.49-1.67,1.38
	l-1.46,7.9c-0.1,0.53-0.44,0.99-0.93,1.22l-8.08,3.87c-0.23,0.11-0.48,0.17-0.73,0.17c-0.46,0-0.9-0.18-1.23-0.53l-6.16-6.5
	c-0.37-0.39-0.53-0.94-0.44-1.47l1.46-7.9c0.21-1.14-0.69-2-1.68-2c-0.37,0-0.75,0.12-1.09,0.4c-2.95,2.45-5.12,5.97-5.89,10.12
	c-1.09,5.9,0.91,11.61,4.82,15.33c1.76,1.68,2.6,4.1,2.16,6.49l-7.33,39.66h1.02h1.02h6.24h1.02h1.02l6.99-37.82
	c0.44-2.39,2.09-4.35,4.33-5.29c4.98-2.08,8.89-6.69,9.98-12.6C124.47,64.11,123.7,60.04,121.82,56.71z"/>
<g id="hand_1_">
	
		<linearGradient id="SVGID_4_" gradientUnits="userSpaceOnUse" x1="86.7116" y1="20.5441" x2="111.8949" y2="20.5441" gradientTransform="matrix(1 0 0 -1 0 128)">
		<stop  offset="0" style="stop-color:#A47B62"/>
		<stop  offset="0.5" style="stop-color:#BA8D68"/>
	</linearGradient>
	<path style="fill:url(#SVGID_4_);" d="M94.5,117.31l-1.9,2.15c0,0-5.68-1.21-5.01-4.5c0.16-0.78,1.56-2.44,1.56-2.44
		s-2.85-2.35-2.4-3.94c0.45-1.57,3.17-2.79,3.17-2.79s-2.11-1.26-1.28-3.63c0.57-1.62,3.53-2.16,3.53-2.16s-2.76-4.05,2.85-4.97
		c1.77-0.29,5.74,0.3,9.3,2.93s5.19,4.21,6.83,7.67c2.5,5.25-1.92,14.25-5.31,14.33C103.02,120.02,94.5,117.31,94.5,117.31z"/>
</g>
<g id="face_1_">
	<g id="ears_1_">
		<path style="fill:#99674F;" d="M77.27,50.23H69.9H29.98h-7.37c-5.89,0-10.71,5.13-10.71,11.41s4.82,11.41,10.71,11.41h7.37H69.9
			h7.37c5.89,0,10.71-5.14,10.71-11.41S83.16,50.23,77.27,50.23z"/>
	</g>
	<g id="head_1_">
		<path style="fill:#BA8D68;" d="M49.94,10.86L49.94,10.86L49.94,10.86c-17.4,0-33.52,18.61-33.52,45.4
			c0,26.64,16.61,39.81,33.52,39.81S83.46,82.9,83.46,56.26C83.46,29.47,67.34,10.86,49.94,10.86z"/>
	</g>
	<g id="eyes_1_">
		<ellipse style="fill:#49362E;" cx="34.13" cy="58.6" rx="4.93" ry="5.1"/>
		<ellipse style="fill:#49362E;" cx="65.28" cy="58.6" rx="4.93" ry="5.1"/>
	</g>
	<g id="eyebrows_1_">
		<path style="fill:#613E31;" d="M25.93,50.52c0,0,0.13-0.19,0.38-0.51c0.07-0.08,0.12-0.16,0.22-0.26
			c0.11-0.11,0.23-0.22,0.36-0.33c0.14-0.12,0.28-0.24,0.43-0.38c0.15-0.13,0.31-0.22,0.48-0.35c0.17-0.12,0.34-0.24,0.53-0.35
			c0.19-0.1,0.4-0.21,0.6-0.32c0.21-0.12,0.43-0.21,0.66-0.3c0.23-0.09,0.47-0.18,0.71-0.27c0.49-0.14,1-0.29,1.54-0.36
			c0.53-0.1,1.08-0.11,1.62-0.14c0.55,0.03,1.1,0.03,1.62,0.14c0.53,0.06,1.05,0.22,1.54,0.36c0.24,0.08,0.48,0.17,0.71,0.27
			c0.23,0.09,0.45,0.18,0.66,0.3c0.21,0.11,0.41,0.22,0.6,0.32c0.19,0.11,0.37,0.24,0.53,0.35c0.17,0.12,0.33,0.22,0.47,0.34
			c0.14,0.12,0.27,0.24,0.4,0.35c0.12,0.11,0.24,0.21,0.34,0.31c0.1,0.1,0.18,0.21,0.26,0.29c0.31,0.36,0.46,0.58,0.46,0.58
			c0.51,0.7,0.35,1.69-0.36,2.19c-0.43,0.31-0.96,0.37-1.43,0.21l-0.29-0.1c0,0-0.19-0.07-0.49-0.2c-0.08-0.03-0.15-0.07-0.25-0.11
			c-0.1-0.03-0.19-0.07-0.3-0.11c-0.21-0.08-0.44-0.17-0.7-0.24c-0.13-0.04-0.26-0.09-0.4-0.13c-0.14-0.03-0.28-0.07-0.43-0.11
			c-0.07-0.02-0.15-0.04-0.22-0.06c-0.08-0.01-0.15-0.03-0.23-0.04c-0.16-0.03-0.31-0.07-0.47-0.1c-0.33-0.04-0.66-0.11-1-0.12
			c-0.34-0.04-0.69-0.03-1.03-0.05c-0.35,0.02-0.69,0.01-1.03,0.05c-0.34,0.02-0.67,0.09-1,0.12c-0.16,0.03-0.32,0.07-0.47,0.1
			c-0.08,0.01-0.16,0.03-0.23,0.04c-0.07,0.02-0.15,0.04-0.22,0.06c-0.15,0.04-0.29,0.07-0.43,0.11c-0.14,0.04-0.27,0.09-0.4,0.13
			c-0.13,0.04-0.25,0.08-0.37,0.11c-0.1,0.04-0.2,0.07-0.29,0.1c-0.09,0.03-0.18,0.06-0.27,0.09c-0.1,0.04-0.2,0.1-0.29,0.14
			c-0.36,0.18-0.57,0.27-0.57,0.27c-0.83,0.34-1.77-0.05-2.11-0.87C25.56,51.53,25.64,50.96,25.93,50.52z"/>
		<path style="fill:#613E31;" d="M71.99,52.92c0,0-0.21-0.09-0.57-0.27c-0.09-0.04-0.19-0.1-0.29-0.14
			c-0.09-0.02-0.18-0.06-0.27-0.09c-0.09-0.03-0.19-0.07-0.29-0.1c-0.12-0.04-0.24-0.07-0.37-0.11c-0.13-0.04-0.26-0.09-0.39-0.13
			c-0.14-0.03-0.28-0.07-0.43-0.11c-0.07-0.02-0.15-0.04-0.22-0.06c-0.08-0.01-0.15-0.03-0.23-0.04c-0.16-0.03-0.31-0.07-0.47-0.1
			c-0.33-0.04-0.66-0.11-1-0.12c-0.34-0.04-0.69-0.03-1.03-0.05c-0.35,0.02-0.69,0.01-1.03,0.05c-0.34,0.02-0.67,0.09-1,0.12
			c-0.16,0.03-0.32,0.07-0.47,0.1c-0.08,0.01-0.16,0.03-0.23,0.04c-0.07,0.02-0.15,0.04-0.22,0.06c-0.15,0.04-0.29,0.08-0.43,0.11
			c-0.14,0.04-0.27,0.09-0.4,0.13c-0.26,0.07-0.49,0.16-0.7,0.24c-0.1,0.04-0.2,0.08-0.3,0.11c-0.09,0.04-0.17,0.08-0.25,0.11
			c-0.3,0.13-0.49,0.2-0.49,0.2l-0.28,0.1c-0.82,0.29-1.72-0.15-2-0.97c-0.17-0.5-0.08-1.03,0.21-1.44c0,0,0.15-0.22,0.46-0.58
			c0.08-0.09,0.16-0.19,0.26-0.29c0.1-0.1,0.22-0.2,0.34-0.31c0.12-0.11,0.26-0.23,0.4-0.35c0.14-0.12,0.31-0.22,0.47-0.34
			c0.17-0.12,0.34-0.24,0.53-0.35c0.19-0.1,0.4-0.21,0.6-0.32c0.21-0.12,0.43-0.21,0.66-0.3c0.23-0.09,0.47-0.18,0.71-0.27
			c0.49-0.14,1-0.29,1.54-0.36c0.53-0.1,1.08-0.11,1.62-0.14c0.55,0.03,1.1,0.03,1.62,0.14c0.54,0.06,1.05,0.22,1.54,0.36
			c0.24,0.08,0.48,0.17,0.71,0.27c0.23,0.09,0.45,0.18,0.66,0.3c0.21,0.11,0.41,0.22,0.6,0.32c0.19,0.11,0.36,0.24,0.53,0.35
			c0.17,0.12,0.32,0.22,0.48,0.35c0.15,0.13,0.3,0.26,0.43,0.38c0.13,0.12,0.26,0.23,0.36,0.33c0.09,0.1,0.15,0.18,0.22,0.26
			c0.25,0.31,0.38,0.51,0.38,0.51c0.5,0.74,0.31,1.74-0.43,2.25C73.06,53.08,72.48,53.12,71.99,52.92z"/>
	</g>
	<path id="nose_1_" style="fill:#99674F;" d="M53.8,67.85c-0.11-0.04-0.21-0.07-0.32-0.08H46.4c-0.11,0.01-0.22,0.04-0.32,0.08
		c-0.64,0.26-0.99,0.92-0.69,1.63c0.3,0.71,1.71,2.69,4.55,2.69s4.25-1.99,4.55-2.69C54.79,68.78,54.44,68.11,53.8,67.85z"/>
	<path id="mouth_1_" style="fill:#5D4037;" d="M58.47,75.94c-3.19,1.89-13.63,1.89-16.81,0c-1.83-1.09-3.7,0.58-2.94,2.24
		c0.75,1.63,6.44,5.42,11.37,5.42s10.55-3.79,11.3-5.42C62.14,76.51,60.3,74.85,58.47,75.94z"/>
</g>
<g id="hairGroup">
	<path id="hair_7_" style="fill:#543930;" d="M49.96,4.55L49.96,4.55c-0.01,0-0.01,0-0.02,0s-0.01,0-0.02,0v0
		C4.49,4.79,13.79,56.69,13.79,56.69s2.04,5.35,2.97,7.71c0.13,0.34,0.63,0.3,0.71-0.05c0.97-4.34,4.46-19.73,6.22-24.4
		c1.04-2.76,3.9-4.36,6.8-3.83c4.45,0.81,11.55,1.81,19.37,1.81c0.03,0,0.06,0,0.08,0s0.06,0,0.08,0c7.83,0,14.92-1,19.37-1.81
		c2.9-0.53,5.76,1.08,6.79,3.83c1.75,4.66,5.22,19.96,6.2,24.36c0.08,0.36,0.58,0.39,0.71,0.05l2.98-7.67
		C86.09,56.69,95.4,4.79,49.96,4.55z"/>
	
		<radialGradient id="hairHighlights_1_" cx="49.9415" cy="80.3828" r="38.0925" gradientTransform="matrix(1 0 0 -1.1282 0 138.304)" gradientUnits="userSpaceOnUse">
		<stop  offset="0.7945" style="stop-color:#6D4C41;stop-opacity:0"/>
		<stop  offset="1" style="stop-color:#6D4C41"/>
	</radialGradient>
	<path id="hairHighlights" style="fill:url(#hairHighlights_1_);" d="M86.09,56.69c0,0,9.31-51.9-36.13-52.14v0
		c-0.01,0-0.01,0-0.02,0h0c-0.01,0-0.01,0-0.02,0l0,0c-0.71,0-1.4,0.02-2.08,0.05c-1.35,0.06-2.66,0.16-3.92,0.31
		c-0.01,0-0.03,0-0.04,0c-0.09,0.01-0.17,0.03-0.26,0.04C5.38,9.76,13.79,56.69,13.79,56.69l2.98,7.68c0.13,0.34,0.62,0.31,0.7-0.05
		c0.98-4.39,4.46-19.71,6.22-24.37c1.04-2.76,3.9-4.36,6.8-3.83c4.45,0.81,11.55,1.81,19.37,1.81c0.03,0,0.06,0,0.08,0
		s0.06,0,0.08,0c7.83,0,14.92-1,19.37-1.81c2.9-0.53,5.76,1.08,6.79,3.83c1.76,4.68,5.25,20.1,6.21,24.42
		c0.08,0.36,0.57,0.39,0.7,0.05C84.04,62.06,86.09,56.69,86.09,56.69z"/>
</g>
<g id="mechanic_x5F_hat">
	
		<linearGradient id="SVGID_5_" gradientUnits="userSpaceOnUse" x1="49.9959" y1="89.1606" x2="49.9959" y2="129.3776" gradientTransform="matrix(1 0 0 -1 0 128)">
		<stop  offset="0" style="stop-color:#0068B5"/>
		<stop  offset="0.807" style="stop-color:#4C8EEA"/>
		<stop  offset="1" style="stop-color:#5E97F6"/>
	</linearGradient>
	<path style="fill:url(#SVGID_5_);" d="M49.73,4.55c22.8,0,36.44,13.09,37.27,40.22c0,0-9.75-8.02-36.77-8.02
		c-29.25,0-37.26,8.54-37.23,7.6c1.03-27.27,14.29-39.8,37.23-39.8L49.73,4.55z"/>
	
		<linearGradient id="SVGID_6_" gradientUnits="userSpaceOnUse" x1="49.725" y1="82.5772" x2="49.725" y2="108.3329" gradientTransform="matrix(1 0 0 -1 0 128)">
		<stop  offset="0" style="stop-color:#0068B5"/>
		<stop  offset="1" style="stop-color:#5E97F6"/>
	</linearGradient>
	<path style="fill:url(#SVGID_6_);" d="M26.93,34.41c0-18.74,8.97-28.81,22.8-28.81s22.8,10.47,22.8,28.81
		c0,14.9-10.78,3.17-22.8,3.17S26.93,49.32,26.93,34.41z"/>
	<path style="fill:#5E97F6;" d="M50.08,28.44c-21.77,0-32.21,11.89-32.21,11.89c-0.02,1.97,2.2,5.52,7.25,6.33
		c6.95,1.12,11.44-4.5,24.85-4.5c0.03,0,0.05,0,0.07,0v-0.03l0.04,0.03c0.03,0,0.05,0,0.07,0c13.41,0,17.89,5.61,24.85,4.5
		c5.05-0.81,6.89-3.85,6.87-5.81C81.87,40.85,72.11,28.44,50.08,28.44z"/>
</g>
</svg>
