<?xml version="1.0" encoding="utf-8"?>
<!-- Generator: Adobe Illustrator 24.0.3, SVG Export Plug-In . SVG Version: 6.00 Build 0)  -->
<svg version="1.1" id="Layer_1" xmlns="http://www.w3.org/2000/svg" xmlns:xlink="http://www.w3.org/1999/xlink" x="0px" y="0px"
	 viewBox="0 0 128 128" style="enable-background:new 0 0 128 128;" xml:space="preserve">
<path id="tone_2_" style="fill:#EDA600;" d="M75.84,75.4l2.33-2.38c0.17-0.12,1.1-0.14,1.29-0.08c0.06,0,0.45,0.69,0.51,0.7
	l0.9,0.16c0.38,0.09,0.63,0.48,0.54,0.87l-0.04,0.21c-0.08,0.39-0.46,0.64-0.84,0.55l-1.37-0.32l-2.38,1.68
	c-0.32,0.23-0.76,0.14-0.99-0.19l-0.12-0.18C75.44,76.07,75.52,75.62,75.84,75.4z"/>
<path id="shoe_3_" style="fill:#504F4F;" d="M120.72,113.17c-0.56-2.43-3.24-5.12-5.87-7.72c-1.7-1.68-4.76-1.33-6.43,0.38
	s-1.97,4.78-0.27,6.46c2.63,2.6,5.36,5.24,7.79,5.76c1.91,0.41,3.5-0.2,4.07-0.78C120.58,116.68,121.16,115.08,120.72,113.17z"/>
<linearGradient id="leg_4_" gradientUnits="userSpaceOnUse" x1="86.2994" y1="23.2915" x2="87.0436" y2="12.2217" gradientTransform="matrix(1 0 0 -1 0 128)">
	<stop  offset="0" style="stop-color:#FFB300"/>
	<stop  offset="0.4007" style="stop-color:#FFCA28"/>
</linearGradient>
<path id="leg_3_" style="fill:url(#leg_4_);" d="M91.18,123.82h-6.06l-3.28-19.28c0.65,1.7,2.3,2.91,4.24,2.91
	c2.5,0,4.53-2.02,4.54-4.51L91.18,123.82z"/>
<linearGradient id="leg_5_" gradientUnits="userSpaceOnUse" x1="107.7718" y1="30.4327" x2="108.8894" y2="13.8083" gradientTransform="matrix(1 0 0 -1 0 128)">
	<stop  offset="0" style="stop-color:#FFB300"/>
	<stop  offset="0.4007" style="stop-color:#FFCA28"/>
</linearGradient>
<path id="leg_2_" style="fill:url(#leg_5_);" d="M115.44,113.47c-1,0.56-2.24,0.49-3.17-0.19l-12.15-10.64
	c-0.11-0.1-0.22-0.2-0.32-0.31c0.84,0.83,1.99,1.35,3.27,1.35c2.57,0,4.65-2.08,4.65-4.65c0-0.5-0.08-0.99-0.23-1.44
	c0.01,0.01,0.02,0.03,0.03,0.04l8.55,11.16C117.46,110.17,117.15,112.51,115.44,113.47z"/>
<linearGradient id="legs_2_" gradientUnits="userSpaceOnUse" x1="90.6016" y1="37.5828" x2="96.09" y2="25.2107" gradientTransform="matrix(1 0 0 -1 0 128)">
	<stop  offset="0" style="stop-color:#FFB300"/>
	<stop  offset="0.4007" style="stop-color:#FFCA28"/>
</linearGradient>
<path id="legs_1_" style="fill:url(#legs_2_);" d="M107.72,99.03c0,2.57-2.08,4.65-4.65,4.65c-1.28,0-2.43-0.52-3.27-1.35
	c-0.13-0.13-0.25-0.26-0.36-0.4c-0.21-0.25-0.4-0.53-0.56-0.81l-6.83-12.65c-0.04-0.22-1.21-0.37-1.41-0.37s-0.37,0.16-0.41,0.37
	l0.39,14.34v0.11c0,0.01,0,0.01,0,0.02c-0.01,2.49-2.04,4.51-4.54,4.51c-1.94,0-3.59-1.21-4.24-2.91l-0.29-1.76l-3.43-20.16
	l11.34-8.03l12.7,8.02l4.67,13.7l0.1,0.29c0.14,0.35,0.32,0.69,0.56,0.99C107.64,98.04,107.72,98.53,107.72,99.03z"/>
<path id="tone_3_" style="fill:#EDA600;" d="M104.77,75.14l-2.64-2.22c-0.17-0.12-0.72,0.24-0.91,0.29c-0.06,0-0.52,0.15-0.58,0.16
	l-0.9,0.16c-0.38,0.09-0.63,0.48-0.54,0.87l0.04,0.21c0.08,0.39,0.46,0.64,0.84,0.55l1.37-0.32l2.38,1.68
	c0.32,0.23,0.76,0.14,0.99-0.19l0.12-0.18C105.17,75.82,105.09,75.37,104.77,75.14z"/>
<path id="shirt_4_" style="fill:#444444;" d="M108.65,60.34c0,0-2.07-7.41-19.04-7.41s-17.96,7.41-17.96,7.41L78,65.17h23.25
	L108.65,60.34z"/>
<linearGradient id="shirt_1_" gradientUnits="userSpaceOnUse" x1="90.124" y1="51.1393" x2="90.124" y2="97.7433" gradientTransform="matrix(1 0 0 1 0 0.7244)">
	<stop  offset="0" style="stop-color:#515151"/>
	<stop  offset="0.9439" style="stop-color:#313131"/>
</linearGradient>
<path id="shirt_3_" style="fill:url(#shirt_1_);" d="M109.62,60.34c0,0-3.07-7.41-20.04-7.41s-18.96,7.41-18.96,7.41l7.42,6.89
	v15.42l9.74,6.43c0.77,0.39,1.62,0.59,2.48,0.59c0.89,0,1.77-0.22,2.56-0.63l9.31-6.39V67.23L109.62,60.34z"/>
<linearGradient id="arm_1_" gradientUnits="userSpaceOnUse" x1="100.0685" y1="61.9259" x2="109.7429" y2="50.5771" gradientTransform="matrix(1 0 0 -1 0 128)">
	<stop  offset="0.1719" style="stop-color:#FFB300"/>
	<stop  offset="0.518" style="stop-color:#FFCA28"/>
</linearGradient>
<path id="arm_3_" style="fill:url(#arm_1_);" d="M115.59,69.01l-7.39-9.77l-6.18,4.36l7.42,6.95l-5.19,4.31
	c-0.54-0.02-1.47-0.16-2.66-0.16h-0.39l-0.02-0.01c0,0-1.67,0.12-2.11,0.46c-0.4,0.31-0.36,0.85-0.18,1.05
	c0.21,0.24,0.16,0.66-0.05,0.89c-0.21,0.24-0.34,0.53-0.32,0.83c0.02,0.29,0.15,0.46,0.44,0.68c0.14,0.1,0.21,0.38,0.14,0.53
	c-0.12,0.24-0.31,0.65-0.27,0.87c0.09,0.43,0.53,0.52,0.63,0.85c0.04,0.13-0.37,0.57,0.05,0.94c0.39,0.35,1.06,0.63,2.08,0.63
	c0.91,0,2.1-0.22,3.61-0.82c0.04-0.02,10.39-8.44,10.39-8.44C116.64,72.05,116.59,70.17,115.59,69.01z"/>
<linearGradient id="arm_6_" gradientUnits="userSpaceOnUse" x1="80.6117" y1="61.322" x2="70.1944" y2="50.9047" gradientTransform="matrix(1 0 0 -1 0 128)">
	<stop  offset="0.1719" style="stop-color:#FFB300"/>
	<stop  offset="0.518" style="stop-color:#FFCA28"/>
</linearGradient>
<path id="arm_2_" style="fill:url(#arm_6_);" d="M82.1,77.94c0.02-0.3-0.11-0.59-0.32-0.83c-0.21-0.24-0.26-0.66-0.05-0.89
	c0.18-0.2,0.21-0.75-0.18-1.05c-0.44-0.34-2.11-0.46-2.11-0.46l-0.02,0.01h-0.39c-1.19,0-2.12,0.13-2.66,0.16l-5.19-4.31l7.42-6.95
	l-6.19-4.38l-7.38,9.79c-1,1.15-1.05,3.04,0,4.15c0,0,10.35,8.42,10.39,8.44c1.51,0.59,2.7,0.82,3.61,0.82
	c1.01,0,1.69-0.28,2.08-0.63c0.42-0.38,0.01-0.81,0.05-0.94c0.1-0.33,0.53-0.42,0.63-0.85c0.05-0.21-0.15-0.63-0.27-0.87
	c-0.08-0.15,0-0.43,0.14-0.53C81.95,78.4,82.08,78.23,82.1,77.94z"/>
<linearGradient id="shirt_8_" gradientUnits="userSpaceOnUse" x1="90.154" y1="50.0841" x2="90.154" y2="96.6881" gradientTransform="matrix(1 0 0 1 0 0.7244)">
	<stop  offset="0" style="stop-color:#515151"/>
	<stop  offset="0.9439" style="stop-color:#313131"/>
</linearGradient>
<path id="shirt_2_" style="fill:url(#shirt_8_);" d="M109.65,60.34c0,0-3.07-7.41-20.04-7.41s-18.96,7.41-18.96,7.41L78,67.17h24.25
	L109.65,60.34z"/>
<linearGradient id="chest_3_" gradientUnits="userSpaceOnUse" x1="90.144" y1="75.1432" x2="90.144" y2="68.306" gradientTransform="matrix(1 0 0 -1 0 128)">
	<stop  offset="0" style="stop-color:#FFB300"/>
	<stop  offset="0.6846" style="stop-color:#FFCA28"/>
</linearGradient>
<path id="chest_1_" style="fill:url(#chest_3_);" d="M100.64,54.35c-0.09,3-3.82,7.22-10.5,7.22c-6.76,0-10.5-4.33-10.5-7.33
	c0-0.05,0-0.1,0.01-0.15c2.48-0.7,5.72-1.16,9.96-1.16C94.36,52.93,97.95,53.51,100.64,54.35z"/>
<path id="shoe_2_" style="fill:#504F4F;" d="M87.87,124h-4.38c-0.81-0.02-1.39-0.95-1.15-1.75c0.73-2.46,2.95-4.27,5.53-4.27
	c2.64,0,4.89,1.88,5.57,4.41c0.22,0.81-0.38,1.61-1.19,1.61H87.87z"/>
<path id="tone_1_" style="fill:#EDA600;" d="M19.99,75.4l2.33-2.38c0.17-0.12,1.1-0.14,1.29-0.08c0.06,0,0.45,0.69,0.51,0.7
	l0.9,0.16c0.38,0.09,0.63,0.48,0.54,0.87l-0.04,0.21c-0.08,0.39-0.46,0.64-0.84,0.55l-1.37-0.32l-2.38,1.68
	c-0.32,0.23-0.76,0.14-0.99-0.19l-0.12-0.18C19.59,76.07,19.67,75.62,19.99,75.4z"/>
<path id="shoe_5_" style="fill:#504F4F;" d="M64.87,113.17c-0.56-2.43-3.24-5.12-5.87-7.72c-1.7-1.68-4.76-1.33-6.43,0.38
	s-1.97,4.78-0.27,6.46c2.63,2.6,5.36,5.24,7.79,5.76c1.91,0.41,3.5-0.2,4.07-0.78C64.73,116.68,65.31,115.08,64.87,113.17z"/>
<linearGradient id="leg_6_" gradientUnits="userSpaceOnUse" x1="30.4494" y1="23.2915" x2="31.1936" y2="12.2217" gradientTransform="matrix(1 0 0 -1 0 128)">
	<stop  offset="0" style="stop-color:#FFB300"/>
	<stop  offset="0.4007" style="stop-color:#FFCA28"/>
</linearGradient>
<path id="leg_1_" style="fill:url(#leg_6_);" d="M35.33,123.82h-6.06l-3.28-19.28c0.65,1.7,2.3,2.91,4.24,2.91
	c2.5,0,4.53-2.02,4.54-4.51L35.33,123.82z"/>
<linearGradient id="leg_7_" gradientUnits="userSpaceOnUse" x1="51.9218" y1="30.4327" x2="53.0394" y2="13.8083" gradientTransform="matrix(1 0 0 -1 0 128)">
	<stop  offset="0" style="stop-color:#FFB300"/>
	<stop  offset="0.4007" style="stop-color:#FFCA28"/>
</linearGradient>
<path id="leg" style="fill:url(#leg_7_);" d="M59.59,113.47c-1,0.56-2.24,0.49-3.17-0.19l-12.15-10.64c-0.11-0.1-0.22-0.2-0.32-0.31
	c0.84,0.83,1.99,1.35,3.27,1.35c2.57,0,4.65-2.08,4.65-4.65c0-0.5-0.08-0.99-0.23-1.44c0.01,0.01,0.02,0.03,0.03,0.04l8.55,11.16
	C61.61,110.17,61.3,112.51,59.59,113.47z"/>
<linearGradient id="legs_3_" gradientUnits="userSpaceOnUse" x1="34.7516" y1="37.5828" x2="40.24" y2="25.2107" gradientTransform="matrix(1 0 0 -1 0 128)">
	<stop  offset="0" style="stop-color:#FFB300"/>
	<stop  offset="0.4007" style="stop-color:#FFCA28"/>
</linearGradient>
<path id="legs" style="fill:url(#legs_3_);" d="M51.87,99.03c0,2.57-2.08,4.65-4.65,4.65c-1.28,0-2.43-0.52-3.27-1.35
	c-0.13-0.13-0.25-0.26-0.36-0.4c-0.21-0.25-0.4-0.53-0.56-0.81L36.2,88.47c-0.04-0.22-1.21-0.37-1.41-0.37s-0.37,0.16-0.41,0.37
	l0.39,14.34v0.11c0,0.01,0,0.01,0,0.02c-0.01,2.49-2.04,4.51-4.54,4.51c-1.94,0-3.59-1.21-4.24-2.91l-0.29-1.76l-3.43-20.16
	l11.34-8.03l12.7,8.02l4.67,13.7l0.1,0.29c0.14,0.35,0.32,0.69,0.56,0.99C51.79,98.04,51.87,98.53,51.87,99.03z"/>
<path id="tone" style="fill:#EDA600;" d="M48.92,75.14l-2.64-2.22c-0.17-0.12-0.72,0.24-0.91,0.29c-0.06,0-0.52,0.15-0.58,0.16
	l-0.9,0.16c-0.38,0.09-0.63,0.48-0.54,0.87l0.04,0.21c0.08,0.39,0.46,0.64,0.84,0.55l1.37-0.32l2.38,1.68
	c0.32,0.23,0.76,0.14,0.99-0.19l0.12-0.18C49.32,75.82,49.24,75.37,48.92,75.14z"/>
<path id="shirt_7_" style="fill:#444444;" d="M52.8,60.34c0,0-2.07-7.41-19.04-7.41S15.8,60.34,15.8,60.34l6.35,4.83H45.4
	L52.8,60.34z"/>
<linearGradient id="shirt_9_" gradientUnits="userSpaceOnUse" x1="34.274" y1="51.1393" x2="34.274" y2="97.7433" gradientTransform="matrix(1 0 0 1 0 0.7244)">
	<stop  offset="0" style="stop-color:#515151"/>
	<stop  offset="0.9439" style="stop-color:#313131"/>
</linearGradient>
<path id="shirt_6_" style="fill:url(#shirt_9_);" d="M53.77,60.34c0,0-3.07-7.41-20.04-7.41s-18.96,7.41-18.96,7.41l7.42,6.89v15.42
	l9.74,6.43c0.77,0.39,1.62,0.59,2.48,0.59c0.89,0,1.77-0.22,2.56-0.63l9.31-6.39V67.23L53.77,60.34z"/>
<linearGradient id="arm_7_" gradientUnits="userSpaceOnUse" x1="44.2185" y1="61.9259" x2="53.8929" y2="50.5771" gradientTransform="matrix(1 0 0 -1 0 128)">
	<stop  offset="0.1719" style="stop-color:#FFB300"/>
	<stop  offset="0.518" style="stop-color:#FFCA28"/>
</linearGradient>
<path id="arm_5_" style="fill:url(#arm_7_);" d="M59.74,69.01l-7.39-9.77l-6.18,4.36l7.42,6.95l-5.19,4.31
	c-0.54-0.02-1.47-0.16-2.66-0.16h-0.39l-0.02-0.01c0,0-1.67,0.12-2.11,0.46c-0.4,0.31-0.36,0.85-0.18,1.05
	c0.21,0.24,0.16,0.66-0.05,0.89c-0.21,0.24-0.34,0.53-0.32,0.83c0.02,0.29,0.15,0.46,0.44,0.68c0.14,0.1,0.21,0.38,0.14,0.53
	c-0.12,0.24-0.31,0.65-0.27,0.87c0.09,0.43,0.53,0.52,0.63,0.85c0.04,0.13-0.37,0.57,0.05,0.94c0.39,0.35,1.06,0.63,2.08,0.63
	c0.91,0,2.1-0.22,3.61-0.82c0.04-0.02,10.39-8.44,10.39-8.44C60.79,72.05,60.74,70.17,59.74,69.01z"/>
<linearGradient id="arm_8_" gradientUnits="userSpaceOnUse" x1="24.7617" y1="61.322" x2="14.3444" y2="50.9047" gradientTransform="matrix(1 0 0 -1 0 128)">
	<stop  offset="0.1719" style="stop-color:#FFB300"/>
	<stop  offset="0.518" style="stop-color:#FFCA28"/>
</linearGradient>
<path id="arm_4_" style="fill:url(#arm_8_);" d="M26.25,77.94c0.02-0.3-0.11-0.59-0.32-0.83c-0.21-0.24-0.26-0.66-0.05-0.89
	c0.18-0.2,0.21-0.75-0.18-1.05c-0.44-0.34-2.11-0.46-2.11-0.46l-0.02,0.01h-0.39c-1.19,0-2.12,0.13-2.66,0.16l-5.19-4.31l7.42-6.95
	l-6.19-4.38l-7.38,9.79c-1,1.15-1.05,3.04,0,4.15c0,0,10.35,8.42,10.39,8.44c1.51,0.59,2.7,0.82,3.61,0.82
	c1.01,0,1.69-0.28,2.08-0.63c0.42-0.38,0.01-0.81,0.05-0.94c0.1-0.33,0.53-0.42,0.63-0.85c0.05-0.21-0.15-0.63-0.27-0.87
	c-0.08-0.15,0-0.43,0.14-0.53C26.1,78.4,26.23,78.23,26.25,77.94z"/>
<linearGradient id="shirt_10_" gradientUnits="userSpaceOnUse" x1="34.304" y1="50.0841" x2="34.304" y2="96.6881" gradientTransform="matrix(1 0 0 1 0 0.7244)">
	<stop  offset="0" style="stop-color:#515151"/>
	<stop  offset="0.9439" style="stop-color:#313131"/>
</linearGradient>
<path id="shirt_5_" style="fill:url(#shirt_10_);" d="M53.8,60.34c0,0-3.07-7.41-20.04-7.41S14.8,60.34,14.8,60.34l7.35,6.83H46.4
	L53.8,60.34z"/>
<linearGradient id="chest_4_" gradientUnits="userSpaceOnUse" x1="34.294" y1="75.1432" x2="34.294" y2="68.306" gradientTransform="matrix(1 0 0 -1 0 128)">
	<stop  offset="0" style="stop-color:#FFB300"/>
	<stop  offset="0.6846" style="stop-color:#FFCA28"/>
</linearGradient>
<path id="chest_2_" style="fill:url(#chest_4_);" d="M44.79,54.35c-0.09,3-3.82,7.22-10.5,7.22c-6.76,0-10.5-4.33-10.5-7.33
	c0-0.05,0-0.1,0.01-0.15c2.48-0.7,5.72-1.16,9.96-1.16C38.51,52.93,42.1,53.51,44.79,54.35z"/>
<path id="shoe_4_" style="fill:#504F4F;" d="M32.02,124h-4.38c-0.81-0.02-1.39-0.95-1.15-1.75c0.73-2.46,2.95-4.27,5.53-4.27
	c2.64,0,4.89,1.88,5.57,4.41c0.22,0.81-0.38,1.61-1.19,1.61H32.02z"/>
<path id="neck" style="fill:#E59600;" d="M33.85,57.3c-1.97,0-3.57-1.52-3.57-3.4v-4.26h7.96v4.26c0,1.87-1.6,3.4-3.57,3.4
	L33.85,57.3z"/>
<g id="face">
	<path id="ears_1_" style="fill:#E59600;" d="M44.98,34.37H23.53c-2.31,0-4.21,2.02-4.21,4.48s1.89,4.48,4.21,4.48h21.45
		c2.31,0,4.21-2.02,4.21-4.48S47.29,34.37,44.98,34.37z"/>
	<path id="head" style="fill:#FFCA28;" d="M34.21,18.53c-6.83,0-13.16,7.31-13.16,17.82c0,10.46,6.52,15.63,13.16,15.63
		s13.16-5.17,13.16-15.63C47.37,25.83,41.04,18.53,34.21,18.53z"/>
	<g id="eyebrows">
		<path style="fill:#6D4C41;" d="M24.83,34.49c0,0,0.05-0.08,0.15-0.2c0.03-0.03,0.05-0.06,0.08-0.1c0.04-0.04,0.09-0.08,0.14-0.13
			s0.11-0.1,0.17-0.15s0.12-0.09,0.19-0.14s0.14-0.09,0.21-0.14c0.08-0.04,0.16-0.08,0.24-0.13s0.17-0.08,0.26-0.12
			s0.18-0.07,0.28-0.1c0.19-0.05,0.39-0.11,0.6-0.14c0.21-0.04,0.42-0.04,0.64-0.05c0.21,0.01,0.43,0.01,0.64,0.05
			c0.21,0.03,0.41,0.09,0.6,0.14c0.1,0.03,0.19,0.07,0.28,0.1s0.18,0.07,0.26,0.12c0.08,0.04,0.16,0.09,0.24,0.13
			c0.07,0.04,0.14,0.09,0.21,0.14s0.13,0.09,0.19,0.13c0.05,0.05,0.11,0.09,0.16,0.14c0.05,0.04,0.09,0.08,0.13,0.12
			s0.07,0.08,0.1,0.12c0.12,0.14,0.18,0.23,0.18,0.23c0.2,0.28,0.14,0.66-0.14,0.86c-0.17,0.12-0.38,0.15-0.56,0.08l-0.11-0.04
			c0,0-0.08-0.03-0.19-0.08c-0.03-0.01-0.06-0.03-0.1-0.04s-0.08-0.03-0.12-0.04c-0.08-0.03-0.17-0.07-0.28-0.1
			c-0.05-0.02-0.1-0.04-0.16-0.05s-0.11-0.03-0.17-0.04c-0.03-0.01-0.06-0.02-0.09-0.02c-0.03-0.01-0.06-0.01-0.09-0.02
			c-0.06-0.01-0.12-0.03-0.19-0.04c-0.13-0.01-0.26-0.04-0.39-0.05c-0.13-0.02-0.27-0.01-0.41-0.02c-0.14,0.01-0.27,0-0.41,0.02
			c-0.14,0.01-0.26,0.03-0.39,0.05c-0.06,0.01-0.12,0.03-0.19,0.04c-0.03,0.01-0.06,0.01-0.09,0.02s-0.06,0.02-0.09,0.02
			c-0.06,0.01-0.11,0.03-0.17,0.04c-0.05,0.01-0.1,0.04-0.16,0.05c-0.05,0.02-0.1,0.03-0.14,0.04s-0.08,0.03-0.11,0.04
			c-0.04,0.01-0.07,0.03-0.11,0.03c-0.04,0.02-0.08,0.04-0.11,0.06l-0.22,0.11c-0.32,0.13-0.7-0.02-0.83-0.34
			C24.68,34.89,24.71,34.66,24.83,34.49z"/>
		<path style="fill:#6D4C41;" d="M42.91,35.43l-0.22-0.11c-0.03-0.02-0.08-0.04-0.11-0.06c-0.03-0.01-0.07-0.02-0.11-0.03
			s-0.07-0.03-0.11-0.04c-0.05-0.01-0.09-0.03-0.14-0.04c-0.05-0.02-0.1-0.04-0.16-0.05c-0.05-0.01-0.11-0.03-0.17-0.04
			c-0.03-0.01-0.06-0.02-0.09-0.02c-0.03-0.01-0.06-0.01-0.09-0.02c-0.06-0.01-0.12-0.03-0.19-0.04c-0.13-0.01-0.26-0.04-0.39-0.05
			c-0.13-0.02-0.27-0.01-0.41-0.02c-0.14,0.01-0.27,0-0.41,0.02c-0.14,0.01-0.26,0.03-0.39,0.05c-0.06,0.01-0.12,0.03-0.19,0.04
			c-0.03,0.01-0.06,0.01-0.09,0.02s-0.06,0.02-0.09,0.02c-0.06,0.01-0.11,0.03-0.17,0.04c-0.05,0.01-0.1,0.04-0.16,0.05
			c-0.1,0.03-0.19,0.06-0.28,0.1c-0.04,0.02-0.08,0.03-0.12,0.04s-0.07,0.03-0.1,0.04c-0.12,0.05-0.19,0.08-0.19,0.08l-0.11,0.04
			c-0.32,0.11-0.67-0.06-0.79-0.38c-0.07-0.2-0.03-0.41,0.08-0.56c0,0,0.06-0.08,0.18-0.23c0.03-0.03,0.06-0.08,0.1-0.12
			s0.08-0.08,0.13-0.12s0.1-0.09,0.16-0.14s0.12-0.09,0.19-0.13c0.07-0.05,0.14-0.09,0.21-0.14c0.08-0.04,0.16-0.08,0.24-0.13
			s0.17-0.08,0.26-0.12s0.18-0.07,0.28-0.1c0.19-0.05,0.39-0.11,0.6-0.14c0.21-0.04,0.42-0.04,0.64-0.05
			c0.21,0.01,0.43,0.01,0.64,0.05c0.21,0.03,0.41,0.09,0.6,0.14c0.1,0.03,0.19,0.07,0.28,0.1s0.18,0.07,0.26,0.12
			c0.08,0.04,0.16,0.09,0.24,0.13c0.07,0.04,0.14,0.09,0.21,0.14s0.13,0.09,0.19,0.14s0.12,0.1,0.17,0.15s0.1,0.09,0.14,0.13
			s0.06,0.07,0.08,0.1c0.1,0.12,0.15,0.2,0.15,0.2c0.2,0.29,0.12,0.68-0.17,0.88C43.33,35.5,43.1,35.51,42.91,35.43z"/>
	</g>
	<g id="eyes">
		<ellipse style="fill:#404040;" cx="27.8" cy="38.05" rx="1.93" ry="2"/>
		<ellipse style="fill:#404040;" cx="40.71" cy="38.05" rx="1.93" ry="2"/>
	</g>
	<path id="mouth" style="fill:#795548;" d="M37.47,45.21c-1.25,0.74-5.35,0.74-6.6,0c-0.72-0.43-1.45,0.23-1.15,0.88
		c0.29,0.64,2.53,2.13,4.46,2.13s4.14-1.49,4.43-2.13C38.91,45.43,38.19,44.78,37.47,45.21z"/>
	<path id="nose" style="fill:#E59600;" d="M35.5,41.6c-0.04-0.02-0.08-0.03-0.13-0.03H32.6c-0.04,0.01-0.08,0.02-0.13,0.03
		c-0.25,0.1-0.39,0.36-0.27,0.64s0.67,1.06,1.79,1.06c1.11,0,1.67-0.78,1.79-1.06C35.89,41.96,35.75,41.7,35.5,41.6z"/>
</g>
<g id="hairGroup">
	<path id="hair_7_" style="fill:#543930;" d="M34.26,16.16L34.26,16.16C34.26,16.16,34.26,16.16,34.26,16.16c-0.01,0-0.01,0-0.01,0
		l0,0c-17.78,0.09-14.14,20.41-14.14,20.41s0.8,2.1,1.16,3.02c0.05,0.13,0.25,0.12,0.28-0.02c0.38-1.7,1.75-7.72,2.43-9.55
		c0.41-1.08,1.52-1.71,2.66-1.5c1.74,0.32,4.52,0.71,7.58,0.71c0.01,0,0.02,0,0.03,0s0.02,0,0.03,0c3.06,0,5.84-0.39,7.58-0.71
		c1.13-0.21,2.25,0.42,2.66,1.5c0.69,1.82,2.04,7.81,2.43,9.53c0.03,0.14,0.23,0.15,0.28,0.02l1.17-3
		C48.4,36.57,52.04,16.25,34.26,16.16z"/>
	
		<radialGradient id="hairHighlights_2_" cx="34.2553" cy="94.9842" r="14.908" gradientTransform="matrix(1 0 0 -1.1282 0 140.1762)" gradientUnits="userSpaceOnUse">
		<stop  offset="0.7945" style="stop-color:#6D4C41;stop-opacity:0"/>
		<stop  offset="1" style="stop-color:#6D4C41"/>
	</radialGradient>
	<path id="hairHighlights" style="fill:url(#hairHighlights_2_);" d="M48.4,36.57c0,0,3.64-20.31-14.14-20.41l0,0c0,0,0,0-0.01,0h0
		c0,0,0,0-0.01,0l0,0c-0.28,0-0.55,0.01-0.81,0.02c-0.53,0.02-1.04,0.06-1.53,0.12c0,0-0.01,0-0.01,0c-0.03,0-0.07,0.01-0.1,0.01
		C16.82,18.2,20.11,36.57,20.11,36.57l1.17,3c0.05,0.13,0.24,0.12,0.27-0.02c0.38-1.72,1.75-7.71,2.43-9.54
		c0.41-1.08,1.52-1.71,2.66-1.5c1.74,0.32,4.52,0.71,7.58,0.71c0.01,0,0.02,0,0.03,0s0.02,0,0.03,0c3.06,0,5.84-0.39,7.58-0.71
		c1.13-0.21,2.25,0.42,2.66,1.5c0.69,1.83,2.06,7.86,2.43,9.56c0.03,0.14,0.22,0.15,0.27,0.02C47.6,38.67,48.4,36.57,48.4,36.57z"/>
</g>
<g id="bunny_x5F_ears">
	
		<linearGradient id="SVGID_1_" gradientUnits="userSpaceOnUse" x1="34.2553" y1="8.7398" x2="34.2553" y2="34.1173" gradientTransform="matrix(1 0 0 1 0 2)">
		<stop  offset="0" style="stop-color:#504F4F"/>
		<stop  offset="1" style="stop-color:#212121"/>
	</linearGradient>
	<path style="fill:url(#SVGID_1_);" d="M49.84,5.34c-0.17-1-1.2-1.59-2.14-1.24c-2.22,0.82-5.98,2.63-7.88,5.93
		c-1.43,2.48-2.03,6.16-2.27,9.18c-0.09,1.1-1.04,1.92-2.14,1.84c-0.37-0.03-1.94-0.03-2.31,0c-1.1,0.08-2.06-0.73-2.14-1.84
		c-0.24-3.02-0.84-6.7-2.27-9.18c-1.9-3.31-5.68-5.11-7.89-5.93c-0.94-0.35-1.95,0.24-2.12,1.23c-0.4,2.33-0.73,6.52,1.18,9.82
		c1.43,2.49,4.3,4.84,6.79,6.56c0.56,0.39,0.56,1.2,0.02,1.62C25.66,24.1,24.9,25,24.31,25.9c-0.58,0.9,0.45,1.99,1.35,1.41
		c1.78-1.15,4.49-2.09,8.59-2.09s6.81,0.94,8.59,2.09c0.9,0.58,1.94-0.51,1.35-1.41c-0.59-0.91-1.35-1.8-2.35-2.58
		c-0.54-0.42-0.54-1.23,0.02-1.62c2.48-1.72,5.35-4.07,6.79-6.56C50.56,11.85,50.24,7.68,49.84,5.34z"/>
	<path style="fill:#FF4081;" d="M42.16,11.77c-1.04,1.8-1.25,4.86-1.3,6.18c-0.01,0.29,0.29,0.47,0.54,0.31
		c1.12-0.7,3.65-2.41,4.69-4.22c0.91-1.58,0.83-3.54,0.68-4.63c-0.06-0.47-0.52-0.73-0.95-0.55C44.8,9.28,43.07,10.19,42.16,11.77z"
		/>
	<path style="fill:#FF4081;" d="M26.35,11.77c1.04,1.8,1.26,4.86,1.3,6.19c0.01,0.29-0.29,0.47-0.53,0.31
		c-1.12-0.7-3.65-2.41-4.69-4.22c-0.91-1.58-0.83-3.54-0.69-4.63c0.06-0.47,0.52-0.73,0.95-0.55C23.7,9.28,25.44,10.19,26.35,11.77z
		"/>
</g>
<path id="neck_1_" style="fill:#E59600;" d="M89.88,57.3c-1.97,0-3.57-1.52-3.57-3.4v-4.26h7.96v4.26c0,1.87-1.6,3.4-3.57,3.4
	L89.88,57.3z"/>
<g id="face_1_">
	<path id="ears_3_" style="fill:#E59600;" d="M101.02,34.37H79.57c-2.31,0-4.21,2.02-4.21,4.48s1.89,4.48,4.21,4.48h21.45
		c2.31,0,4.21-2.02,4.21-4.48S103.33,34.37,101.02,34.37z"/>
	<path id="head_1_" style="fill:#FFCA28;" d="M90.25,18.53c-6.83,0-13.16,7.31-13.16,17.82c0,10.46,6.52,15.63,13.16,15.63
		s13.16-5.17,13.16-15.63C103.41,25.83,97.08,18.53,90.25,18.53z"/>
	<g id="eyebrows_1_">
		<path style="fill:#6D4C41;" d="M80.87,34.49c0,0,0.05-0.08,0.15-0.2c0.03-0.03,0.05-0.06,0.08-0.1c0.04-0.04,0.09-0.08,0.14-0.13
			s0.11-0.1,0.17-0.15s0.12-0.09,0.19-0.14s0.14-0.09,0.21-0.14c0.08-0.04,0.16-0.08,0.24-0.13s0.17-0.08,0.26-0.12
			c0.09-0.04,0.18-0.07,0.28-0.1c0.19-0.05,0.39-0.11,0.6-0.14c0.21-0.04,0.42-0.04,0.64-0.05c0.21,0.01,0.43,0.01,0.64,0.05
			c0.21,0.03,0.41,0.09,0.6,0.14c0.1,0.03,0.19,0.07,0.28,0.1s0.18,0.07,0.26,0.12c0.08,0.04,0.16,0.09,0.24,0.13
			c0.07,0.04,0.14,0.09,0.21,0.14s0.13,0.09,0.19,0.13c0.05,0.05,0.11,0.09,0.16,0.14c0.05,0.04,0.09,0.08,0.13,0.12
			c0.04,0.04,0.07,0.08,0.1,0.12c0.12,0.14,0.18,0.23,0.18,0.23c0.2,0.28,0.14,0.66-0.14,0.86c-0.17,0.12-0.38,0.15-0.56,0.08
			l-0.11-0.04c0,0-0.08-0.03-0.19-0.08c-0.03-0.01-0.06-0.03-0.1-0.04s-0.08-0.03-0.12-0.04c-0.08-0.03-0.17-0.07-0.28-0.1
			c-0.05-0.02-0.1-0.04-0.16-0.05s-0.11-0.03-0.17-0.04c-0.03-0.01-0.06-0.02-0.09-0.02c-0.03-0.01-0.06-0.01-0.09-0.02
			c-0.06-0.01-0.12-0.03-0.19-0.04c-0.13-0.01-0.26-0.04-0.39-0.05c-0.13-0.02-0.27-0.01-0.41-0.02c-0.14,0.01-0.27,0-0.41,0.02
			c-0.14,0.01-0.26,0.03-0.39,0.05c-0.06,0.01-0.12,0.03-0.19,0.04c-0.03,0.01-0.06,0.01-0.09,0.02c-0.03,0.01-0.06,0.02-0.09,0.02
			c-0.06,0.01-0.11,0.03-0.17,0.04c-0.05,0.01-0.1,0.04-0.16,0.05c-0.05,0.02-0.1,0.03-0.14,0.04c-0.04,0.01-0.08,0.03-0.11,0.04
			c-0.04,0.01-0.07,0.03-0.11,0.03c-0.04,0.02-0.08,0.04-0.11,0.06l-0.22,0.11c-0.32,0.13-0.7-0.02-0.83-0.34
			C80.72,34.89,80.75,34.66,80.87,34.49z"/>
		<path style="fill:#6D4C41;" d="M98.95,35.43l-0.22-0.11c-0.03-0.02-0.08-0.04-0.11-0.06c-0.03-0.01-0.07-0.02-0.11-0.03
			s-0.07-0.03-0.11-0.04c-0.05-0.01-0.09-0.03-0.14-0.04c-0.05-0.02-0.1-0.04-0.16-0.05c-0.05-0.01-0.11-0.03-0.17-0.04
			c-0.03-0.01-0.06-0.02-0.09-0.02c-0.03-0.01-0.06-0.01-0.09-0.02c-0.06-0.01-0.12-0.03-0.19-0.04c-0.13-0.01-0.26-0.04-0.39-0.05
			c-0.13-0.02-0.27-0.01-0.41-0.02c-0.14,0.01-0.27,0-0.41,0.02c-0.14,0.01-0.26,0.03-0.39,0.05c-0.06,0.01-0.12,0.03-0.19,0.04
			c-0.03,0.01-0.06,0.01-0.09,0.02s-0.06,0.02-0.09,0.02c-0.06,0.01-0.11,0.03-0.17,0.04c-0.05,0.01-0.1,0.04-0.16,0.05
			c-0.1,0.03-0.19,0.06-0.28,0.1c-0.04,0.02-0.08,0.03-0.12,0.04c-0.04,0.01-0.07,0.03-0.1,0.04c-0.12,0.05-0.19,0.08-0.19,0.08
			l-0.11,0.04c-0.32,0.11-0.67-0.06-0.79-0.38c-0.07-0.2-0.03-0.41,0.08-0.56c0,0,0.06-0.08,0.18-0.23c0.03-0.03,0.06-0.08,0.1-0.12
			c0.04-0.04,0.08-0.08,0.13-0.12c0.05-0.04,0.1-0.09,0.16-0.14c0.06-0.05,0.12-0.09,0.19-0.13c0.07-0.05,0.14-0.09,0.21-0.14
			c0.08-0.04,0.16-0.08,0.24-0.13s0.17-0.08,0.26-0.12c0.09-0.04,0.18-0.07,0.28-0.1c0.19-0.05,0.39-0.11,0.6-0.14
			c0.21-0.04,0.42-0.04,0.64-0.05c0.21,0.01,0.43,0.01,0.64,0.05c0.21,0.03,0.41,0.09,0.6,0.14c0.1,0.03,0.19,0.07,0.28,0.1
			s0.18,0.07,0.26,0.12c0.08,0.04,0.16,0.09,0.24,0.13c0.07,0.04,0.14,0.09,0.21,0.14s0.13,0.09,0.19,0.14s0.12,0.1,0.17,0.15
			c0.05,0.05,0.1,0.09,0.14,0.13s0.06,0.07,0.08,0.1c0.1,0.12,0.15,0.2,0.15,0.2c0.2,0.29,0.12,0.68-0.17,0.88
			C99.37,35.5,99.14,35.51,98.95,35.43z"/>
	</g>
	<g id="eyes_1_">
		<ellipse style="fill:#404040;" cx="83.84" cy="38.05" rx="1.93" ry="2"/>
		<ellipse style="fill:#404040;" cx="96.75" cy="38.05" rx="1.93" ry="2"/>
	</g>
	<path id="mouth_1_" style="fill:#795548;" d="M93.51,45.21c-1.25,0.74-5.35,0.74-6.6,0c-0.72-0.43-1.45,0.23-1.15,0.88
		c0.29,0.64,2.53,2.13,4.46,2.13s4.14-1.49,4.43-2.13C94.95,45.43,94.23,44.78,93.51,45.21z"/>
	<path id="nose_1_" style="fill:#E59600;" d="M91.54,41.6c-0.04-0.02-0.08-0.03-0.13-0.03h-2.77c-0.04,0.01-0.08,0.02-0.13,0.03
		c-0.25,0.1-0.39,0.36-0.27,0.64s0.67,1.06,1.79,1.06c1.11,0,1.67-0.78,1.79-1.06C91.93,41.96,91.79,41.7,91.54,41.6z"/>
</g>
<g id="hairGroup_1_">
	<path id="hair_1_" style="fill:#543930;" d="M90.3,16.16L90.3,16.16C90.3,16.16,90.3,16.16,90.3,16.16c-0.01,0-0.01,0-0.01,0l0,0
		C72.5,16.25,76.15,36.57,76.15,36.57s0.8,2.1,1.16,3.02c0.05,0.13,0.25,0.12,0.28-0.02c0.38-1.7,1.75-7.72,2.43-9.55
		c0.41-1.08,1.53-1.71,2.66-1.5c1.74,0.32,4.52,0.71,7.58,0.71c0.01,0,0.02,0,0.03,0c0.01,0,0.02,0,0.03,0
		c3.06,0,5.84-0.39,7.58-0.71c1.13-0.21,2.25,0.42,2.66,1.5c0.69,1.82,2.04,7.81,2.43,9.53c0.03,0.14,0.23,0.15,0.28,0.02l1.17-3
		C104.44,36.57,108.08,16.25,90.3,16.16z"/>
	
		<radialGradient id="hairHighlights_3_" cx="90.2943" cy="94.9842" r="14.9079" gradientTransform="matrix(1 0 0 -1.1282 0 140.1762)" gradientUnits="userSpaceOnUse">
		<stop  offset="0.7945" style="stop-color:#6D4C41;stop-opacity:0"/>
		<stop  offset="1" style="stop-color:#6D4C41"/>
	</radialGradient>
	<path id="hairHighlights_1_" style="fill:url(#hairHighlights_3_);" d="M104.44,36.57c0,0,3.64-20.31-14.14-20.41l0,0
		c0,0,0,0-0.01,0h0c0,0,0,0-0.01,0l0,0c-0.28,0-0.55,0.01-0.81,0.02c-0.53,0.02-1.04,0.06-1.53,0.12c0,0-0.01,0-0.01,0
		c-0.04,0-0.07,0.01-0.1,0.01C72.86,18.2,76.15,36.57,76.15,36.57l1.17,3c0.05,0.13,0.24,0.12,0.28-0.02
		c0.38-1.72,1.75-7.71,2.43-9.54c0.41-1.08,1.53-1.71,2.66-1.5c1.74,0.32,4.52,0.71,7.58,0.71c0.01,0,0.02,0,0.03,0
		c0.01,0,0.02,0,0.03,0c3.06,0,5.84-0.39,7.58-0.71c1.13-0.21,2.25,0.42,2.66,1.5c0.69,1.83,2.06,7.86,2.43,9.56
		c0.03,0.14,0.22,0.15,0.27,0.02C103.64,38.67,104.44,36.57,104.44,36.57z"/>
</g>
<g id="bunny_x5F_ears_1_">
	
		<linearGradient id="SVGID_2_" gradientUnits="userSpaceOnUse" x1="90.2943" y1="9.5431" x2="90.2943" y2="34.9206" gradientTransform="matrix(1 0 0 1 0 2)">
		<stop  offset="0" style="stop-color:#504F4F"/>
		<stop  offset="1" style="stop-color:#212121"/>
	</linearGradient>
	<path style="fill:url(#SVGID_2_);" d="M105.88,5.34c-0.17-1-1.2-1.59-2.14-1.24c-2.22,0.82-5.98,2.63-7.88,5.93
		c-1.43,2.48-2.03,6.16-2.27,9.18c-0.09,1.1-1.04,1.92-2.14,1.84c-0.37-0.03-1.94-0.03-2.31,0c-1.1,0.08-2.06-0.73-2.14-1.84
		c-0.24-3.02-0.84-6.7-2.27-9.18c-1.9-3.31-5.68-5.11-7.89-5.93c-0.94-0.35-1.95,0.24-2.12,1.23c-0.4,2.33-0.73,6.52,1.18,9.82
		c1.43,2.49,4.3,4.84,6.79,6.56c0.56,0.39,0.56,1.2,0.02,1.62C81.7,24.1,80.94,25,80.35,25.9c-0.58,0.9,0.45,1.99,1.35,1.41
		c1.78-1.15,4.49-2.09,8.59-2.09s6.81,0.94,8.59,2.09c0.9,0.58,1.94-0.51,1.35-1.41c-0.59-0.91-1.35-1.8-2.35-2.58
		c-0.54-0.42-0.54-1.23,0.02-1.62c2.48-1.72,5.35-4.07,6.79-6.56C106.6,11.85,106.28,7.68,105.88,5.34z"/>
	<path style="fill:#FF4081;" d="M98.2,11.77c-1.04,1.8-1.25,4.86-1.3,6.18c-0.01,0.29,0.29,0.47,0.54,0.31
		c1.12-0.7,3.65-2.41,4.69-4.22c0.91-1.58,0.83-3.54,0.68-4.63c-0.06-0.47-0.52-0.73-0.95-0.55C100.84,9.28,99.11,10.19,98.2,11.77z
		"/>
	<path style="fill:#FF4081;" d="M82.39,11.77c1.04,1.8,1.26,4.86,1.3,6.19c0.01,0.29-0.29,0.47-0.53,0.31
		c-1.12-0.7-3.65-2.41-4.69-4.22c-0.91-1.58-0.83-3.54-0.69-4.63c0.06-0.47,0.52-0.73,0.95-0.55C79.74,9.28,81.48,10.19,82.39,11.77
		z"/>
</g>
</svg>
