<svg xmlns="http://www.w3.org/2000/svg" viewBox="0 0 36 36"><path fill="#FFDC5D" d="M8 35H5l1-9.712h3zm5.875-1.208l-1.834-1.333s3.167-3.012 2.531-3.994c-.636-.981-3.782-1.688-3.782-1.688l1.918-2.307s3.958 1.904 4.77 3.333c.827 1.452-3.603 5.989-3.603 5.989z"/><path fill="#292F33" d="M4 36v-1s0-1 2-1 2 1 2 1v1H4zm10.553-.517l.421-.908s.419-.907-1.396-1.747c-1.813-.841-2.233.066-2.233.066l-.42.907 3.628 1.682z"/><path fill="#FFDC5D" d="M5 26.288c-.256 0-.512-.098-.707-.293l-3-3c-.36-.36-.392-.934-.074-1.332l4-3.288c.345-.432.975-.501 1.405-.156.432.345.501.974.156 1.406l-3.44 2.589 2.367 2.367c.391.391.391 1.023 0 1.414-.195.195-.451.293-.707.293zm10 0c-.256 0-.512-.098-.707-.293-.391-.391-.391-1.023 0-1.414l2.367-2.367-3.441-2.589c-.345-.432-.275-1.06.156-1.406.43-.345 1.06-.276 1.405.156l4.001 3.288c.318.398.286.972-.074 1.332l-3 3c-.195.195-.451.293-.707.293z"/><path fill="#292F33" d="M16 19c0-1.104-.896-2-2-2H6c-1.104 0-2 .896-2 2v1h2v5.288l3 2h2l3-2V20h2v-1z"/><path fill="#FFAC33" d="M10.5 3c-1.187 0-2.282.379-3.181 1.018C5.473 4.114 4 5.629 4 7.5c0 1.542.007 3.484 2.038 4.207C7.036 13.094 8.66 14 10.5 14c3.037 0 5.5-2.462 5.5-5.499C16 5.463 13.537 3 10.5 3z"/><path fill="#FFDC5D" d="M8 15v3c0 1.104.896 2 2 2s2-.896 2-2v-3H8z"/><path fill="#292F33" d="M9 27l-.344 3.219-3.312-.344L6 25.288zm4.134-2.381l2.631 1.325-1.356 2.711L11 27.288z"/><path fill="#F9CA55" d="M12 14l-4 .019V18s2 1 4 0v-4z"/><path fill="#FFDC5D" d="M15 6H5v6c0 2.762 2.238 5 5 5s5-2.237 5-5V6z"/><path fill="#292F33" d="M14.875 1.188c-1.763-.147-2.846 1.201-3.142 2.519-.982-.51-2.456-.545-3.736.163-.216-1.384-1.32-2.9-3.185-2.745-.938 2.438 1.031 4.25 3 4.25 1.875-.875 3.25-.312 4.062.062 1.97.001 3.938-1.812 3.001-4.249z"/><path fill="#FFAC33" d="M8 6H5v4c2.333 0 2.85-2.412 2.965-3.488C8.004 7.588 8.779 10 15 10V6H8z"/><circle fill="#662113" cx="7.5" cy="11.5" r=".5"/><circle fill="#662113" cx="12.5" cy="11.5" r=".5"/><path fill="#C1694F" d="M9 13h2s0 1-1 1-1-1-1-1zm3 2H8s0 1 2 1 2-1 2-1z"/><path fill="#FFDC5D" d="M24 35h-3l1-9.712h3zm5.875-1.208l-1.833-1.333s3.167-3.012 2.531-3.994c-.636-.981-3.782-1.688-3.782-1.688l1.918-2.307s3.958 1.904 4.77 3.333c.826 1.452-3.604 5.989-3.604 5.989z"/><path fill="#292F33" d="M30.553 35.483l.422-.908s.418-.907-1.396-1.747c-1.812-.841-2.232.066-2.232.066l-.42.907 3.626 1.682zM20 36v-1s0-1 2-1 2 1 2 1v1h-4z"/><path fill="#FFDC5D" d="M21 26.288c-.256 0-.512-.098-.707-.293l-3-3c-.36-.36-.392-.934-.074-1.332l4-3.288c.346-.432.976-.501 1.406-.156.432.345.501.974.156 1.406l-3.441 2.589 2.367 2.367c.391.391.391 1.023 0 1.414-.195.195-.451.293-.707.293zm10 0c-.256 0-.512-.098-.707-.293-.391-.391-.391-1.023 0-1.414l2.367-2.367-3.441-2.589c-.345-.432-.275-1.06.156-1.406.431-.345 1.06-.276 1.406.156l4 3.288c.318.398.286.972-.074 1.332l-3 3c-.195.195-.451.293-.707.293z"/><path fill="#FFDC5D" d="M28 17v-3h-4v3h-1v1s0 3 3 3 3-3 3-3v-1h-1z"/><path fill="#292F33" d="M30 17h-8c-1.104 0-2 .896-2 2v1h2v5.288l3 2h2l3-2V20h2v-1c0-1.104-.896-2-2-2z"/><path fill="#292F33" d="M25 27l-.344 3.219-3.312-.344.656-4.587zm4.134-2.381l2.631 1.325-1.356 2.711L27 27.288z"/><path fill="#FFDC5D" d="M24 15v3c0 1.104.896 2 2 2s2-.896 2-2v-3h-4z"/><path fill="#F9CA55" d="M28 14l-4 .019V18s2 1 4 0v-4z"/><path fill="#FFAC33" d="M26.5 3c-1.187 0-2.282.379-3.181 1.018C21.473 4.114 20 5.629 20 7.5c0 1.542.007 3.484 2.038 4.207C23.036 13.094 24.66 14 26.5 14c3.037 0 5.5-2.462 5.5-5.499C32 5.463 29.537 3 26.5 3z"/><path fill="#FFDC5D" d="M31 6H21v6c0 2.762 2.238 5 5 5s5-2.237 5-5V6z"/><path fill="#292F33" d="M30.875 1.188c-1.763-.147-2.846 1.201-3.142 2.519-.982-.509-2.456-.544-3.736.164-.216-1.384-1.319-2.901-3.184-2.745-.938 2.438 1.031 4.25 3 4.25 1.875-.875 3.25-.312 4.062.062 1.969 0 3.937-1.813 3-4.25z"/><path fill="#FFAC33" d="M24 6h-3v4c2.333 0 2.85-2.412 2.965-3.488C24.004 7.588 24.779 10 31 10V6h-7z"/><circle fill="#662113" cx="23.5" cy="11.5" r=".5"/><circle fill="#662113" cx="28.5" cy="11.5" r=".5"/><path fill="#C1694F" d="M25 13h2s0 1-1 1-1-1-1-1zm3 2h-4s0 1 2 1 2-1 2-1z"/></svg>