<?xml version="1.0" encoding="UTF-8" standalone="no"?><svg xmlns:dc="http://purl.org/dc/elements/1.1/" xmlns:cc="http://creativecommons.org/ns#" xmlns:rdf="http://www.w3.org/1999/02/22-rdf-syntax-ns#" xmlns:svg="http://www.w3.org/2000/svg" xmlns="http://www.w3.org/2000/svg" viewBox="0 0 45 45" style="enable-background:new 0 0 45 45;" xml:space="preserve" version="1.1" id="svg2"><metadata id="metadata8"><rdf:RDF><cc:Work rdf:about=""><dc:format>image/svg+xml</dc:format><dc:type rdf:resource="http://purl.org/dc/dcmitype/StillImage"/></cc:Work></rdf:RDF></metadata><defs id="defs6"><clipPath id="clipPath16" clipPathUnits="userSpaceOnUse"><path id="path18" d="M 0,36 36,36 36,0 0,0 0,36 Z"/></clipPath></defs><g transform="matrix(1.25,0,0,-1.25,0,45)" id="g10"><g id="g12"><g clip-path="url(#clipPath16)" id="g14"><g transform="translate(31,0)" id="g20"><path id="path22" style="fill:#e1e8ed;fill-opacity:1;fill-rule:nonzero;stroke:none" d="M 0,0 0,3.5 C 0,6.814 -3.686,9 -7,9 l -12,0 c -3.313,0 -7,-2.186 -7,-5.5 L -26,0 0,0 Z"/></g><g transform="translate(30,28.5)" id="g24"><path id="path26" style="fill:#292f33;fill-opacity:1;fill-rule:nonzero;stroke:none" d="m 0,0 c 0,-4.142 -5.372,-7.5 -12,-7.5 -6.627,0 -12,3.358 -12,7.5 0,4.142 5.373,7.5 12,7.5 C -5.372,7.5 0,4.142 0,0"/></g><g transform="translate(17.9445,30.9311)" id="g28"><path id="path30" style="fill:#ffac33;fill-opacity:1;fill-rule:nonzero;stroke:none" d="m 0,0 c 4.105,0 10.948,-2.053 10.948,-10.948 0,-8.895 0,-10.948 -2.053,-10.948 -2.053,0 -4.79,2.053 -8.895,2.053 -4.105,0 -6.784,-2.053 -8.895,-2.053 -2.287,0 -2.053,8.211 -2.053,10.948 C -10.948,-2.053 -4.105,0 0,0"/></g><g transform="translate(14.3281,8.9801)" id="g32"><path id="path34" style="fill:#ffdc5d;fill-opacity:1;fill-rule:nonzero;stroke:none" d="m 0,0 c 1.466,-1.065 2.964,-1.98 3.672,-1.98 0.708,0 2.194,0.915 3.66,1.98 l 0,3.205 L 0,3.205 0,0 Z"/></g><g transform="translate(14.3214,10.8214)" id="g36"><path id="path38" style="fill:#f9ca55;fill-opacity:1;fill-rule:nonzero;stroke:none" d="m 0,0 c 1.023,-1.155 2.291,-1.468 3.669,-1.468 1.379,0 2.647,0.313 3.67,1.468 l 0,2.936 L 0,2.936 0,0 Z"/></g><g transform="translate(9.7338,20.2825)" id="g40"><path id="path42" style="fill:#ffdc5d;fill-opacity:1;fill-rule:nonzero;stroke:none" d="m 0,0 c 0,5.834 3.676,10.563 8.211,10.563 4.534,0 8.21,-4.729 8.21,-10.563 0,-5.833 -3.676,-10.285 -8.21,-10.285 C 3.676,-10.285 0,-5.833 0,0"/></g><g transform="translate(17.9445,12.4566)" id="g44"><path id="path46" style="fill:#df1f32;fill-opacity:1;fill-rule:nonzero;stroke:none" d="m 0,0 c -1.606,0 -2.446,0.794 -2.536,0.885 -0.268,0.267 -0.268,0.7 0,0.967 0.265,0.265 0.692,0.267 0.96,0.007 C -1.541,1.827 -1.024,1.368 0,1.368 1.039,1.368 1.556,1.84 1.577,1.86 1.85,2.116 2.28,2.108 2.54,1.84 2.8,1.572 2.8,1.149 2.536,0.885 2.446,0.794 1.606,0 0,0"/></g><g transform="translate(7.7252,17)" id="g48"><path id="path50" style="fill:#ffac33;fill-opacity:1;fill-rule:nonzero;stroke:none" d="m 0,0 c -0.021,1 -0.044,0.224 -0.044,0.465 0,3.422 2.053,-0.494 2.053,1.943 0,2.439 1.368,2.683 2.736,4.051 0.685,0.685 2.053,2.026 2.053,2.026 0,0 3.421,-2.067 6.158,-2.067 2.737,0 5.474,-1.375 5.474,-4.112 0,-2.737 2.053,1.584 2.053,-1.837 C 20.483,0.225 20.46,1 20.443,0 l 0.718,0 c 0.006,2 0.006,1.924 0.006,3.202 0,8.895 -6.842,12.207 -10.948,12.207 C 6.114,15.409 -0.728,12.152 -0.728,3.257 -0.728,2.464 -0.748,2 -0.72,0 L 0,0 Z"/></g><g transform="translate(14.6086,18.1136)" id="g52"><path id="path54" style="fill:#662113;fill-opacity:1;fill-rule:nonzero;stroke:none" d="m 0,0 0,0 c -0.465,0 -0.846,0.381 -0.846,0.846 l 0,0.845 c 0,0.465 0.381,0.846 0.846,0.846 l 0,0 c 0.465,0 0.846,-0.381 0.846,-0.846 l 0,-0.845 C 0.846,0.381 0.465,0 0,0"/></g><g transform="translate(21.3732,18.1136)" id="g56"><path id="path58" style="fill:#662113;fill-opacity:1;fill-rule:nonzero;stroke:none" d="m 0,0 0,0 c -0.465,0 -0.846,0.381 -0.846,0.846 l 0,0.845 c 0,0.465 0.381,0.846 0.846,0.846 0.465,0 0.846,-0.381 0.846,-0.846 l 0,-0.845 C 0.846,0.381 0.465,0 0,0"/></g><g transform="translate(18.8365,15.4996)" id="g60"><path id="path62" style="fill:#c1694f;fill-opacity:1;fill-rule:nonzero;stroke:none" d="m 0,0 -1.691,0 c -0.233,0 -0.423,0.19 -0.423,0.423 l 0,0.154 C -2.114,0.81 -1.924,1 -1.691,1 L 0,1 C 0.233,1 0.423,0.81 0.423,0.577 l 0,-0.154 C 0.423,0.19 0.233,0 0,0"/></g><g transform="translate(8.5,27)" id="g64"><path id="path66" style="fill:#292f33;fill-opacity:1;fill-rule:nonzero;stroke:none" d="M 0,0 C 0,1.105 4.253,2 9.5,2 14.747,2 19,1.105 19,0 19,-1.105 14.747,-2 9.5,-2 4.253,-2 0,-1.105 0,0"/></g><g transform="translate(27.5,28)" id="g68"><path id="path70" style="fill:#66757f;fill-opacity:1;fill-rule:nonzero;stroke:none" d="m 0,0 -19,0 0,3.446 C -19,3.446 -15.042,7 -9.5,7 -3.958,7 0,3.446 0,3.446 L 0,0 Z"/></g><g transform="translate(15,31)" id="g72"><path id="path74" style="fill:#ffac33;fill-opacity:1;fill-rule:nonzero;stroke:none" d="M 0,0 C 0,2.792 1.343,1 3,1 4.657,1 6,2.792 6,0 6,-1.657 4.657,-2 3,-2 1.343,-2 0,-1.657 0,0"/></g><g transform="translate(16,31)" id="g76"><path id="path78" style="fill:#fdcb58;fill-opacity:1;fill-rule:nonzero;stroke:none" d="M 0,0 C 0,1.105 0.895,2 2,2 3.105,2 4,1.105 4,0 4,-1.105 3.105,-2 2,-2 0.895,-2 0,-1.105 0,0"/></g><g transform="translate(27.5,27)" id="g80"><path id="path82" style="fill:#fdcb58;fill-opacity:1;fill-rule:nonzero;stroke:none" d="m 0,0 -19,0 c -0.275,0 -0.5,0.225 -0.5,0.5 0,0.275 0.225,0.5 0.5,0.5 L 0,1 C 0.275,1 0.5,0.775 0.5,0.5 0.5,0.225 0.275,0 0,0"/></g><g transform="translate(11.5782,6.9448)" id="g84"><path id="path86" style="fill:#292f33;fill-opacity:1;fill-rule:nonzero;stroke:none" d="m 0,0 -5.926,-0.939 c -0.272,-0.043 -0.529,0.144 -0.572,0.416 l -0.157,0.988 c -0.043,0.271 0.144,0.529 0.416,0.572 l 5.926,0.938 C -0.041,2.018 0.216,1.831 0.259,1.56 L 0.416,0.572 C 0.459,0.3 0.272,0.043 0,0"/></g><g transform="translate(7.1336,6.2408)" id="g88"><path id="path90" style="fill:#fdcb58;fill-opacity:1;fill-rule:nonzero;stroke:none" d="M 0,0 -0.988,-0.156 -1.301,1.819 -0.313,1.975 0,0 Z"/></g><g transform="translate(9.109,6.5537)" id="g92"><path id="path94" style="fill:#fdcb58;fill-opacity:1;fill-rule:nonzero;stroke:none" d="M 0,0 -0.988,-0.156 -1.301,1.819 -0.313,1.975 0,0 Z"/></g><g transform="translate(11.0844,6.8665)" id="g96"><path id="path98" style="fill:#fdcb58;fill-opacity:1;fill-rule:nonzero;stroke:none" d="M 0,0 -0.988,-0.156 -1.301,1.819 -0.313,1.975 0,0 Z"/></g><g transform="translate(30.3479,6.0062)" id="g100"><path id="path102" style="fill:#292f33;fill-opacity:1;fill-rule:nonzero;stroke:none" d="m 0,0 -5.926,0.939 c -0.272,0.043 -0.459,0.3 -0.416,0.572 l 0.157,0.987 c 0.043,0.272 0.3,0.459 0.572,0.416 L 0.313,1.975 C 0.584,1.932 0.772,1.675 0.729,1.403 L 0.572,0.416 C 0.529,0.144 0.272,-0.043 0,0"/></g><g transform="translate(25.9033,6.7101)" id="g104"><path id="path106" style="fill:#fdcb58;fill-opacity:1;fill-rule:nonzero;stroke:none" d="M 0,0 -0.988,0.156 -0.675,2.132 0.313,1.975 0,0 Z"/></g><g transform="translate(27.8787,6.3972)" id="g108"><path id="path110" style="fill:#fdcb58;fill-opacity:1;fill-rule:nonzero;stroke:none" d="M 0,0 -0.988,0.156 -0.675,2.132 0.313,1.975 0,0 Z"/></g><g transform="translate(29.8541,6.0844)" id="g112"><path id="path114" style="fill:#fdcb58;fill-opacity:1;fill-rule:nonzero;stroke:none" d="M 0,0 -0.988,0.156 -0.675,2.132 0.313,1.975 0,0 Z"/></g><g transform="translate(18.0008,5.1223)" id="g116"><path id="path118" style="fill:#99aab5;fill-opacity:1;fill-rule:nonzero;stroke:none" d="M 0,0 C 0,0 3.381,-2.494 4.093,-2.779 4.249,-2.841 3.727,0.878 3.727,0.878 l -7.454,0 c 0,0 -0.524,-3.782 -0.232,-3.625 C -3.32,-2.405 0,0 0,0"/></g><g transform="translate(19.3125,2.5625)" id="g120"><path id="path122" style="fill:#292f33;fill-opacity:1;fill-rule:nonzero;stroke:none" d="m 0,0 c 0,0 0.375,0.625 0.531,0.906 0.183,0.329 0.453,1.571 0.453,1.571 l -2.187,0.961 c 0,0.007 -0.16,-0.005 -0.16,-0.005 L -1.547,3.391 -1.719,3.328 C -1.937,3.258 -1.625,3.32 -1.625,3.313 L -3.599,2.477 c 0,0 0.287,-1.242 0.47,-1.571 C -2.973,0.625 -2.601,0 -2.601,0 c 0,0 -0.753,-0.562 -1.035,-2.563 l 2.324,0 0.02,0 2.323,0 C 0.75,-0.969 0,0 0,0"/></g><g transform="translate(13.2917,9.375)" id="g124"><path id="path126" style="fill:#f5f8fa;fill-opacity:1;fill-rule:nonzero;stroke:none" d="m 0,0 c 0.566,-0.566 4.709,-3.383 4.709,-3.383 0,0 -2.126,-1.242 -4.084,-3.534 -0.197,-0.23 -1.542,4.625 -1.583,5.709 C -0.97,-0.905 -0.271,0.271 0,0"/></g><g transform="translate(22.7301,9.375)" id="g128"><path id="path130" style="fill:#f5f8fa;fill-opacity:1;fill-rule:nonzero;stroke:none" d="m 0,0 c -0.566,-0.566 -4.709,-3.383 -4.709,-3.383 0,0 2.126,-1.242 4.084,-3.534 0.197,-0.23 1.542,4.625 1.583,5.709 C 0.97,-0.905 0.271,0.271 0,0"/></g><g transform="translate(18.0156,5.3125)" id="g132"><path id="path134" style="fill:#323a3f;fill-opacity:1;fill-rule:nonzero;stroke:none" d="M 0,0 C 0.39,0.022 1.543,-0.771 1.422,-1.25 0.961,-3.077 0.573,-2.641 0.031,-2.641 c -0.611,0 -0.964,-0.472 -1.39,1.313 C -1.452,-0.941 -0.562,-0.031 0,0"/></g><g transform="translate(20.0471,0)" id="g136"><path id="path138" style="fill:#323a3f;fill-opacity:1;fill-rule:nonzero;stroke:none" d="m 0,0 -4.024,0 c 0,0 0.542,2.167 2.019,2.167 C -0.529,2.167 0,0 0,0"/></g></g></g></g></svg>
