<?xml version="1.0" encoding="utf-8"?>
<!-- Generator: Adobe Illustrator 24.0.3, SVG Export Plug-In . SVG Version: 6.00 Build 0)  -->
<svg version="1.1" id="Layer_1" xmlns="http://www.w3.org/2000/svg" xmlns:xlink="http://www.w3.org/1999/xlink" x="0px" y="0px"
	 viewBox="0 0 128 128" style="enable-background:new 0 0 128 128;" xml:space="preserve">
<g id="shirt_2_">
	<g>
		
			<linearGradient id="SVGID_1_" gradientUnits="userSpaceOnUse" x1="64.001" y1="4.2258" x2="64.001" y2="58.8518" gradientTransform="matrix(1 0 0 -1 0 128)">
			<stop  offset="0" style="stop-color:#009E89"/>
			<stop  offset="1" style="stop-color:#00BFA5"/>
		</linearGradient>
		<path style="fill:url(#SVGID_1_);" d="M75.21,67.4c-1.83-0.43-6.52-0.65-11.21-0.65s-9.38,0.22-11.21,0.65
			c-11.23,2.67-20.86,9.43-20.86,25.43V124h1.5h1.5h58.14h1.5h1.5V92.83C96.07,76.83,86.44,70.07,75.21,67.4z"/>
	</g>
</g>
<g id="neck_1_">
	<path style="fill:#E59600;" d="M64,74.12L64,74.12c-3.87,0-7-3.13-7-7V60.7h14v6.42C71,70.99,67.87,74.12,64,74.12z"/>
</g>
<g id="arm_1_">
	
		<linearGradient id="SVGID_2_" gradientUnits="userSpaceOnUse" x1="36.929" y1="3.8537" x2="36.929" y2="30.9744" gradientTransform="matrix(1 0 0 -1 0 128)">
		<stop  offset="0.6057" style="stop-color:#FFCA28"/>
		<stop  offset="1" style="stop-color:#FFB300"/>
	</linearGradient>
	<polygon style="fill:url(#SVGID_2_);" points="31.93,96.82 31.93,124 32.93,124 33.93,124 39.93,124 40.93,124 41.93,124 
		41.93,96.82 	"/>
</g>
<g id="arm">
	
		<linearGradient id="SVGID_3_" gradientUnits="userSpaceOnUse" x1="91.071" y1="3.8537" x2="91.071" y2="30.9744" gradientTransform="matrix(1 0 0 -1 0 128)">
		<stop  offset="0.6057" style="stop-color:#FFCA28"/>
		<stop  offset="1" style="stop-color:#FFB300"/>
	</linearGradient>
	<polygon style="fill:url(#SVGID_3_);" points="86.07,96.82 86.07,124 87.07,124 88.07,124 94.07,124 95.07,124 96.07,124 
		96.07,96.82 	"/>
</g>
<g id="ears_1_">
	<path style="fill:#E59600;" d="M82.03,34.74H45.97c-3.89,0-7.07,3.39-7.07,7.53s3.18,7.53,7.07,7.53h36.05
		c3.89,0,7.07-3.39,7.07-7.53S85.91,34.74,82.03,34.74z"/>
</g>
<path id="head_4_" style="fill:#FFCA28;" d="M64,8.11L64,8.11L64,8.11c-11.48,0-22.11,12.28-22.11,29.94
	c0,17.57,10.95,26.26,22.11,26.26s22.11-8.69,22.11-26.26C86.11,20.39,75.48,8.11,64,8.11z"/>
<path id="mouth_1_" style="fill:#795548;" d="M69.55,51.54c-2.1,1.25-8.99,1.25-11.09,0c-1.21-0.72-2.44,0.38-1.94,1.48
	c0.49,1.08,4.25,3.58,7.5,3.58s6.96-2.5,7.45-3.58C71.98,51.92,70.76,50.82,69.55,51.54z"/>
<path id="nose_1_" style="fill:#E59600;" d="M66.54,46.2c-0.07-0.03-0.14-0.05-0.21-0.05h-4.67c-0.07,0.01-0.14,0.03-0.21,0.05
	c-0.42,0.17-0.66,0.61-0.46,1.08c0.2,0.47,1.13,1.78,3,1.78c1.87,0,2.8-1.31,3-1.78C67.2,46.81,66.97,46.37,66.54,46.2z"/>
<g id="eyes_1_">
	<ellipse style="fill:#404040;" cx="53.16" cy="40.17" rx="3.25" ry="3.37"/>
	<ellipse style="fill:#404040;" cx="74.84" cy="40.17" rx="3.25" ry="3.37"/>
</g>
<g id="eyebrows_1_">
	<path style="fill:#6D4C41;" d="M48.16,34.51c0,0,1.78-2.35,4.97-2.35s5.01,2.38,5.01,2.38c0.33,0.47,0.23,1.11-0.24,1.45
		c-0.28,0.2-0.63,0.24-0.94,0.14c0,0-0.97-0.44-1.88-0.66s-1.91-0.29-2.9-0.18c-1.5,0.17-2.73,0.81-2.73,0.81
		C48.5,36.49,47.58,35.37,48.16,34.51z"/>
	<path style="fill:#6D4C41;" d="M79.84,34.51c0,0-1.79-2.35-4.97-2.35s-5.01,2.38-5.01,2.38c-0.33,0.47-0.23,1.11,0.24,1.45
		c0.28,0.2,0.63,0.24,0.94,0.14c0,0,0.97-0.44,1.88-0.66c0.91-0.22,1.91-0.29,2.9-0.18c1.5,0.17,2.73,0.81,2.73,0.81
		C79.5,36.49,80.42,35.37,79.84,34.51z"/>
</g>
<g id="hairGroup">
	<path id="hair_7_" style="fill:#543930;" d="M64.08,4.2L64.08,4.2c0,0-0.01,0-0.01,0s-0.01,0-0.01,0v0
		C34.32,4.36,40.41,38.33,40.41,38.33s1.33,3.5,1.94,5.05c0.09,0.22,0.41,0.2,0.46-0.04c0.64-2.84,2.92-12.91,4.07-15.97
		c0.68-1.8,2.55-2.85,4.45-2.51c2.92,0.53,7.56,1.18,12.68,1.18c0.02,0,0.04,0,0.06,0s0.04,0,0.06,0c5.12,0,9.76-0.65,12.68-1.18
		c1.9-0.34,3.77,0.71,4.45,2.51c1.15,3.05,3.42,13.06,4.06,15.94c0.05,0.24,0.38,0.26,0.46,0.03l1.95-5.02
		C87.73,38.33,93.82,4.36,64.08,4.2z"/>
	
		<radialGradient id="hairHighlights_1_" cx="64.0699" cy="95.6115" r="24.934" gradientTransform="matrix(1 0 0 -1.1282 0 140.2567)" gradientUnits="userSpaceOnUse">
		<stop  offset="0.7945" style="stop-color:#6D4C41;stop-opacity:0"/>
		<stop  offset="1" style="stop-color:#6D4C41"/>
	</radialGradient>
	<path id="hairHighlights" style="fill:url(#hairHighlights_1_);" d="M87.73,38.33c0,0,6.09-33.97-23.65-34.13v0c0,0-0.01,0-0.01,0
		h0c0,0-0.01,0-0.01,0l0,0c-0.46,0-0.92,0.01-1.36,0.03c-0.89,0.04-1.74,0.11-2.56,0.2c-0.01,0-0.02,0-0.03,0
		C60.05,4.44,60,4.45,59.94,4.46C34.9,7.61,40.41,38.33,40.41,38.33l1.95,5.03c0.09,0.22,0.41,0.2,0.46-0.03
		c0.64-2.87,2.92-12.9,4.07-15.95c0.68-1.8,2.55-2.85,4.45-2.51c2.92,0.53,7.56,1.18,12.68,1.18c0.02,0,0.04,0,0.06,0s0.04,0,0.06,0
		c5.12,0,9.76-0.65,12.68-1.18c1.9-0.34,3.77,0.71,4.45,2.51c1.15,3.07,3.44,13.15,4.07,15.98c0.05,0.23,0.37,0.26,0.46,0.03
		C86.39,41.84,87.73,38.33,87.73,38.33z"/>
</g>
<g style="opacity:0.4;">
	
		<radialGradient id="SVGID_4_" cx="63.9337" cy="13.4145" r="38.5143" gradientTransform="matrix(1 0 0 -1 0 128)" gradientUnits="userSpaceOnUse">
		<stop  offset="0" style="stop-color:#212121"/>
		<stop  offset="0.5743" style="stop-color:#616161;stop-opacity:0.05"/>
	</radialGradient>
	<path style="fill:url(#SVGID_4_);" d="M75.21,67.4c-1.83-0.43-6.52-0.65-11.21-0.65s-9.38,0.22-11.21,0.65
		c-11.23,2.67-20.86,9.43-20.86,25.43V124h1.5h1.5h58.14h1.5h1.5V92.83C96.07,76.83,86.44,70.07,75.21,67.4z"/>
</g>
<g id="shirt_1_">
	<path style="fill:#B2EBF2;" d="M85.55,121.98c0-9.84-12.51-13.14-16.87-13.14h-9.38c-4.35,0-16.88,3.3-16.88,13.14
		c0,0-0.01,0.79-0.03,2.02h1.02h0.97h39.19h0.98h1.02C85.57,122.98,85.55,121.98,85.55,121.98z"/>
</g>
<g id="neck">
	<path style="fill:#E59600;" d="M63.99,116.3L63.99,116.3c-2.59,0-4.69-2.1-4.69-4.69v-3.6h9.39v3.6
		C68.68,114.2,66.58,116.3,63.99,116.3z"/>
</g>
<g id="ears">
	<path style="fill:#E59600;" d="M78.73,89.21h-3.97H53.22h-3.97c-3.18,0-5.78,2.5-5.78,5.56s2.6,5.56,5.78,5.56h3.97h21.53h3.97
		c3.18,0,5.78-2.5,5.78-5.56S81.91,89.21,78.73,89.21z"/>
</g>
<path id="head" style="fill:#FFCA28;" d="M63.99,66.27L63.99,66.27L63.99,66.27c-9.33,0-17.96,9.8-17.96,23.9
	c0,14.02,8.9,20.96,17.96,20.96s17.96-6.93,17.96-20.96C81.95,76.06,73.32,66.27,63.99,66.27z"/>
<path id="mouth_4_" style="fill:#795548;" d="M68.31,100.89c-1.64,0.97-7,0.97-8.64,0c-0.94-0.56-1.9,0.3-1.51,1.15
	c0.38,0.84,3.31,2.79,5.84,2.79s5.42-1.95,5.8-2.79C70.2,101.18,69.25,100.33,68.31,100.89z"/>
<path id="nose_4_" style="fill:#E59600;" d="M65.97,96.72c-0.05-0.02-0.11-0.04-0.17-0.04h-3.63c-0.06,0.01-0.11,0.02-0.17,0.04
	c-0.33,0.13-0.51,0.47-0.35,0.84c0.16,0.36,0.88,1.38,2.34,1.38c1.46,0,2.18-1.02,2.34-1.38C66.48,97.19,66.3,96.85,65.97,96.72z"/>
<g id="eyes_4_">
	<ellipse style="fill:#404040;" cx="55.45" cy="94.07" rx="2.53" ry="2.62"/>
	<ellipse style="fill:#404040;" cx="72.53" cy="94.07" rx="2.53" ry="2.62"/>
</g>
<g id="eyebrows_4_">
	<path style="fill:#6D4C41;" d="M51.49,89.41c0.1-0.13,0.13-0.21,0.31-0.39c0.4-0.42,1.18-0.92,1.94-1.18
		c0.73-0.25,1.07-0.25,1.62-0.25c0.85,0,1.37,0.18,1.62,0.25c0.35,0.12,0.68,0.28,1.01,0.46c0.55,0.33,1.74,1.14,1.38,1.87
		c-0.4,0.81-1.01,0.51-1.56,0.3c-0.24-0.07-1.32-0.5-2.46-0.5c-0.62,0-0.88,0.07-1.04,0.09c-0.73,0.12-1.28,0.35-1.38,0.38
		c-0.38,0.15-0.65,0.37-1.08,0.2C51.39,90.44,51.2,89.84,51.49,89.41z"/>
	<path style="fill:#6D4C41;" d="M76.49,89.41c-0.1-0.13-0.13-0.21-0.31-0.39c-0.39-0.42-1.18-0.92-1.94-1.18
		c-0.73-0.25-1.07-0.25-1.62-0.25c-0.85,0-1.37,0.18-1.62,0.25c-0.35,0.12-0.68,0.28-1.01,0.46c-0.55,0.33-1.74,1.14-1.38,1.87
		c0.4,0.81,1.01,0.51,1.56,0.3c0.24-0.07,1.32-0.5,2.46-0.5c0.62,0,0.88,0.07,1.04,0.09c0.73,0.12,1.28,0.35,1.38,0.38
		c0.38,0.15,0.65,0.37,1.07,0.2C76.59,90.44,76.78,89.84,76.49,89.41z"/>
</g>
<g id="hairGroup_3_">
	<path id="hair_1_" style="fill:#543930;" d="M64.1,64.16c-19.93,0-21.32,16.28-20.51,23.4c0.71,6.29,3.99,7.84,3.99,7.84
		s-0.65-5.49,0.4-9.47c0.83-3.16,2.8-5.5,2.8-5.5s3.6,3.12,10.3,5.15c3.23,0.98,7.37,0.49,7.37,0.49l-2.32-4.1
		c0,0,3.8,2.79,6.16,3.32c3.03,0.68,5.25,0.39,5.25,0.39l-1.11-4.33c0,0,1.93,1.26,3.37,4.71c1.44,3.45,0.55,9.34,0.55,9.34
		s3.46-1.54,4.02-7.84C85.06,79.67,83.94,64.16,64.1,64.16L64.1,64.16z"/>
	
		<radialGradient id="hairHighlights_2_" cx="16.493" cy="33.2604" r="23.0807" gradientTransform="matrix(1.110000e-13 1.1138 -0.9718 1.030000e-13 96.2343 67.6479)" gradientUnits="userSpaceOnUse">
		<stop  offset="0.7945" style="stop-color:#6D4C41;stop-opacity:0"/>
		<stop  offset="1" style="stop-color:#6D4C41"/>
	</radialGradient>
	<path id="hairHighlights_3_" style="fill:url(#hairHighlights_2_);" d="M64.1,64.16c-19.93,0-21.32,16.28-20.51,23.4
		c0.71,6.29,3.99,7.84,3.99,7.84s-0.65-5.49,0.4-9.47c0.83-3.16,2.8-5.5,2.8-5.5s3.6,3.12,10.3,5.15c3.23,0.98,7.37,0.49,7.37,0.49
		l-2.32-4.1c0,0,3.8,2.79,6.16,3.32c3.03,0.68,5.25,0.39,5.25,0.39l-1.11-4.33c0,0,1.93,1.26,3.37,4.71
		c1.44,3.45,0.55,9.34,0.55,9.34s3.46-1.54,4.02-7.84C85.06,79.67,83.94,64.16,64.1,64.16L64.1,64.16z"/>
</g>
</svg>
