<?xml version="1.0" encoding="utf-8"?>
<!-- Generator: Adobe Illustrator 24.1.2, SVG Export Plug-In . SVG Version: 6.00 Build 0)  -->
<svg version="1.1" id="Layer_1" xmlns="http://www.w3.org/2000/svg" xmlns:xlink="http://www.w3.org/1999/xlink" x="0px" y="0px"
	 viewBox="0 0 128 128" style="enable-background:new 0 0 128 128;" xml:space="preserve">
<g id="hairGroup_4_">
	<path id="hair_17_" style="fill:#543930;" d="M34.99,4.2C7.99,4.2,8.2,29.17,8.2,29.57c0,16.17,1.24,39.02,7.71,48.01
		c2.57,3.56,7.53,3.76,7.53,3.76l11.18-0.02l11.18,0.02c0,0,4.96-0.2,7.53-3.76c6.47-8.99,7.71-31.84,7.71-48.01
		C61.03,29.17,62,4.2,34.99,4.2z"/>
	
		<radialGradient id="hairHighlights_11_" cx="93.3796" cy="87.2088" r="31.3027" gradientTransform="matrix(1 0 0 -1.1901 -58.7604 144.5769)" gradientUnits="userSpaceOnUse">
		<stop  offset="0.7936" style="stop-color:#6D4C41;stop-opacity:0"/>
		<stop  offset="1" style="stop-color:#6D4C41"/>
	</radialGradient>
	<path id="hairHighlights_10_" style="fill:url(#hairHighlights_11_);" d="M34.99,4.2C7.99,4.2,8.2,29.17,8.2,29.57
		c0,16.17,1.24,39.02,7.71,48.01c2.57,3.56,7.53,3.76,7.53,3.76l11.18-0.02l11.18,0.02c0,0,4.96-0.2,7.53-3.76
		c6.47-8.99,7.71-31.84,7.71-48.01C61.03,29.17,62,4.2,34.99,4.2z"/>
</g>
<g>
	
		<linearGradient id="SVGID_1_" gradientUnits="userSpaceOnUse" x1="984" y1="4.7029" x2="984" y2="60.5691" gradientTransform="matrix(-1 0 0 -1 1018 128)">
		<stop  offset="0" style="stop-color:#530EEB"/>
		<stop  offset="1" style="stop-color:#651FFF"/>
	</linearGradient>
	<path style="fill:url(#SVGID_1_);" d="M4,77.03V124h60V88.4c0-12.19-9.05-19.62-20.8-21.73c-0.09-0.02-0.17-0.04-0.26-0.05
		c-0.5-0.09-1.01-0.16-1.51-0.23c-0.49-0.07-0.98-0.14-1.47-0.19c-0.49-0.06-0.98-0.11-1.47-0.15c-0.03,0-0.06,0-0.09-0.01
		c-0.46-0.03-0.93-0.06-1.4-0.09c-1.03-0.07-2.06-0.1-3.07-0.1c-4.53,0-8.92,0.57-13.07,1.55C14.05,69.02,7.84,72.23,4,77.03z"/>
</g>
<g id="neck_10_">
	<g id="neck_1_">
		<path style="fill:#E59600;" d="M34.62,74.16L34.62,74.16c-3.87,0-7-3.13-7-7v-6.42h14v6.42C41.62,71.03,38.49,74.16,34.62,74.16z"
			/>
	</g>
</g>
<g id="arm_2_">
	
		<linearGradient id="SVGID_2_" gradientUnits="userSpaceOnUse" x1="1010" y1="32.1641" x2="1010" y2="5.3932" gradientTransform="matrix(-1 0 0 -1 1018 128)">
		<stop  offset="0.6037" style="stop-color:#FFCA28"/>
		<stop  offset="1" style="stop-color:#FFB300"/>
	</linearGradient>
	<polygon style="fill:url(#SVGID_2_);" points="12,96 12,124 11,124 10.04,124 4,124 4,98 4,97 4,96 	"/>
</g>
<path id="head_6_" style="fill:#FFCA28;" d="M34.62,11.85L34.62,11.85L34.62,11.85c-11.36,0-21.88,8.45-21.88,26.36
	c0,14.39,8.91,22.9,16.67,25.64c1.85,0.65,3.63,0.98,5.22,0.98c1.57,0,3.35-0.33,5.19-0.97c7.76-2.73,16.7-11.25,16.7-25.65
	C56.5,20.29,45.98,11.85,34.62,11.85z"/>
<path id="mouth_7_" style="fill:#795548;" d="M40.11,51.54c-2.08,1.24-8.89,1.24-10.97,0c-1.19-0.71-2.41,0.38-1.92,1.46
	c0.49,1.07,4.21,3.54,7.42,3.54s6.88-2.47,7.37-3.54C42.51,51.91,41.31,50.83,40.11,51.54z"/>
<path id="nose_7_" style="fill:#E59600;" d="M37.14,46.2c-0.07-0.03-0.14-0.04-0.21-0.05h-4.62c-0.07,0.01-0.14,0.03-0.21,0.05
	c-0.42,0.17-0.65,0.6-0.45,1.06s1.12,1.76,2.97,1.76c1.85,0,2.77-1.3,2.97-1.76C37.79,46.8,37.56,46.37,37.14,46.2z"/>
<g id="eyes_7_">
	<ellipse style="fill:#404040;" cx="23.89" cy="40.13" rx="3.22" ry="3.33"/>
	<ellipse style="fill:#404040;" cx="45.35" cy="40.13" rx="3.22" ry="3.33"/>
</g>
<g id="eyebrows_7_">
	<path style="fill:#6D4C41;" d="M28.67,34.15c-0.61-0.81-2.03-1.99-4.78-1.99s-4.17,1.18-4.78,1.99c-0.27,0.36-0.2,0.77-0.01,1.02
		c0.17,0.23,0.69,0.45,1.26,0.26c0.57-0.19,1.68-0.77,3.54-0.78c1.86,0.01,2.97,0.59,3.54,0.78c0.57,0.19,1.08-0.02,1.26-0.26
		C28.87,34.93,28.94,34.51,28.67,34.15z"/>
	<path style="fill:#6D4C41;" d="M50.13,34.15c-0.61-0.81-2.03-1.99-4.78-1.99s-4.17,1.18-4.78,1.99c-0.27,0.36-0.2,0.77-0.01,1.02
		c0.17,0.23,0.69,0.45,1.26,0.26c0.57-0.19,1.68-0.77,3.54-0.78c1.86,0.01,2.97,0.59,3.54,0.78c0.57,0.19,1.08-0.02,1.26-0.26
		C50.33,34.93,50.4,34.51,50.13,34.15z"/>
</g>
<g id="hairGroup_3_">
	<g id="hair_12_">
		<path style="fill:#543930;" d="M34.99,4.2C7.99,4.2,8.2,29.17,8.2,29.57c0,5.11,0.12,10.88,0.5,16.68l7.76,15.53
			c0,0-1.34-12.17-1.49-20.42c-0.02-1.06-0.2-3.72,0.31-6.04c0.79-1.96,1.83-3.48,3.17-3.78C33.17,28.22,41.5,20.41,41.5,20.41
			c2.17,4.73,8.94,9.35,11.38,11.1c0.69,0.5,1.21,2.11,1.6,4.11c0.21,2.07,0.13,4.34,0.11,5.67l-2.01,20.44l7.95-15.48
			c0-0.03,0.01-0.07,0.02-0.1c0.37-5.76,0.49-11.5,0.49-16.58C61.03,29.17,62,4.2,34.99,4.2z"/>
	</g>
	
		<radialGradient id="hairHighlights_12_" cx="93.5997" cy="84.5584" r="32.7884" gradientTransform="matrix(1 0 0 -1.2135 -58.7604 146.0553)" gradientUnits="userSpaceOnUse">
		<stop  offset="0.7945" style="stop-color:#6D4C41;stop-opacity:0"/>
		<stop  offset="1" style="stop-color:#6D4C41"/>
	</radialGradient>
	<path id="hairHighlights_9_" style="fill:url(#hairHighlights_12_);" d="M34.99,4.2C7.99,4.2,8.2,29.17,8.2,29.57
		c0,5.11,0.12,10.88,0.5,16.68l4.42-0.01c-0.04-1.92,1.31-13.81,5.32-14.71C33.17,28.21,41.5,20.4,41.5,20.4
		c2.17,4.73,8.94,9.35,11.38,11.1c2,1.44,2.61,12.22,2.57,14.74h5.08c0-0.03,0.01-0.07,0.02-0.1c0.37-5.76,0.49-11.5,0.49-16.58
		C61.03,29.17,62,4.2,34.99,4.2z"/>
</g>
<g id="hairGroup_2_">
	<path id="hair_7_" style="fill:#543930;" d="M93.75,4.2c-27.01,0-26.79,24.97-26.79,25.37c0,16.17,1.24,39.02,7.71,48.01
		c2.57,3.56,7.53,3.76,7.53,3.76l11.18-0.02l11.18,0.02c0,0,4.96-0.2,7.53-3.76c6.47-8.99,7.71-31.84,7.71-48.01
		C119.79,29.17,120.76,4.2,93.75,4.2z"/>
	
		<radialGradient id="hairHighlights_13_" cx="93.3792" cy="87.2088" r="31.3029" gradientTransform="matrix(1 0 0 -1.1901 0 144.5769)" gradientUnits="userSpaceOnUse">
		<stop  offset="0.7936" style="stop-color:#6D4C41;stop-opacity:0"/>
		<stop  offset="1" style="stop-color:#6D4C41"/>
	</radialGradient>
	<path id="hairHighlights_2_" style="fill:url(#hairHighlights_13_);" d="M93.75,4.2c-27.01,0-26.79,24.97-26.79,25.37
		c0,16.17,1.24,39.02,7.71,48.01c2.57,3.56,7.53,3.76,7.53,3.76l11.18-0.02l11.18,0.02c0,0,4.96-0.2,7.53-3.76
		c6.47-8.99,7.71-31.84,7.71-48.01C119.79,29.17,120.76,4.2,93.75,4.2z"/>
</g>
<path style="fill:#AA00FF;" d="M124,77.03V124H64V88.4c0-12.19,9.05-19.62,20.8-21.73c0.09-0.02,0.17-0.04,0.26-0.05
	c0.5-0.09,1.01-0.16,1.51-0.23c0.49-0.07,0.98-0.14,1.47-0.19c0.49-0.06,0.98-0.11,1.47-0.15c0.03,0,0.06,0,0.09-0.01
	c0.46-0.03,0.93-0.06,1.4-0.09c1.03-0.07,2.06-0.1,3.07-0.1c4.53,0,8.92,0.57,13.07,1.55C113.95,69.02,120.16,72.23,124,77.03z"/>
<g id="neck_2_">
	<path style="fill:#E59600;" d="M93.38,74.16L93.38,74.16c-3.87,0-7-3.13-7-7v-6.42h14v6.42C100.38,71.03,97.25,74.16,93.38,74.16z"
		/>
</g>
<g id="arm_1_">
	
		<linearGradient id="SVGID_3_" gradientUnits="userSpaceOnUse" x1="120" y1="32.1641" x2="120" y2="5.3932" gradientTransform="matrix(1 0 0 -1 0 128)">
		<stop  offset="0.6037" style="stop-color:#FFCA28"/>
		<stop  offset="1" style="stop-color:#FFB300"/>
	</linearGradient>
	<polygon style="fill:url(#SVGID_3_);" points="116,96 116,124 117,124 117.96,124 124,124 124,98 124,97 124,96 	"/>
</g>
<path id="head_5_" style="fill:#FFCA28;" d="M93.38,11.85L93.38,11.85L93.38,11.85c-11.36,0-21.88,8.45-21.88,26.36
	c0,14.39,8.91,22.9,16.67,25.64c1.85,0.65,3.63,0.98,5.22,0.98c1.57,0,3.35-0.33,5.18-0.97c7.76-2.73,16.7-11.25,16.7-25.65
	C115.26,20.29,104.74,11.85,93.38,11.85z"/>
<path id="mouth_6_" style="fill:#795548;" d="M98.87,51.54c-2.08,1.24-8.89,1.24-10.97,0c-1.19-0.71-2.41,0.38-1.92,1.46
	c0.49,1.07,4.21,3.54,7.42,3.54s6.88-2.47,7.37-3.54C101.27,51.91,100.07,50.83,98.87,51.54z"/>
<path id="nose_6_" style="fill:#E59600;" d="M95.9,46.2c-0.07-0.03-0.14-0.04-0.21-0.05h-4.62c-0.07,0.01-0.14,0.03-0.21,0.05
	c-0.42,0.17-0.65,0.6-0.45,1.06c0.2,0.46,1.12,1.76,2.97,1.76c1.85,0,2.77-1.3,2.97-1.76C96.55,46.8,96.32,46.37,95.9,46.2z"/>
<g id="eyes_6_">
	<ellipse style="fill:#404040;" cx="82.65" cy="40.13" rx="3.21" ry="3.33"/>
	<ellipse style="fill:#404040;" cx="104.11" cy="40.13" rx="3.21" ry="3.33"/>
</g>
<g id="eyebrows_6_">
	<path style="fill:#6D4C41;" d="M87.43,34.15c-0.61-0.81-2.03-1.99-4.78-1.99s-4.17,1.18-4.78,1.99c-0.27,0.36-0.2,0.77-0.01,1.02
		c0.17,0.23,0.69,0.45,1.26,0.26c0.57-0.19,1.68-0.77,3.54-0.78c1.86,0.01,2.97,0.59,3.54,0.78c0.57,0.19,1.08-0.02,1.26-0.26
		C87.63,34.93,87.7,34.51,87.43,34.15z"/>
	<path style="fill:#6D4C41;" d="M108.89,34.15c-0.61-0.81-2.03-1.99-4.78-1.99s-4.17,1.18-4.78,1.99c-0.27,0.36-0.2,0.77-0.01,1.02
		c0.17,0.23,0.69,0.45,1.26,0.26c0.57-0.19,1.68-0.77,3.54-0.78c1.86,0.01,2.97,0.59,3.54,0.78c0.57,0.19,1.08-0.02,1.26-0.26
		C109.09,34.93,109.16,34.51,108.89,34.15z"/>
</g>
<g id="hairGroup_1_">
	<g id="hair">
		<path style="fill:#543930;" d="M93.75,4.2c-27.01,0-26.79,24.97-26.79,25.37c0,5.11,0.12,10.88,0.5,16.68l7.76,15.53
			c0,0-1.34-12.17-1.49-20.42c-0.02-1.06-0.2-3.72,0.31-6.04c0.79-1.96,1.83-3.48,3.17-3.78c14.72-3.31,23.06-11.12,23.06-11.12
			c2.17,4.73,8.94,9.35,11.38,11.1c0.69,0.5,1.21,2.11,1.6,4.11c0.21,2.07,0.13,4.34,0.11,5.67l-2.01,20.44l7.95-15.48
			c0-0.03,0.01-0.07,0.02-0.1c0.37-5.76,0.49-11.5,0.49-16.58C119.79,29.17,120.76,4.2,93.75,4.2z"/>
	</g>
	
		<radialGradient id="hairHighlights_14_" cx="93.5997" cy="84.5584" r="32.7884" gradientTransform="matrix(1 0 0 -1.2135 0 146.0553)" gradientUnits="userSpaceOnUse">
		<stop  offset="0.7945" style="stop-color:#6D4C41;stop-opacity:0"/>
		<stop  offset="1" style="stop-color:#6D4C41"/>
	</radialGradient>
	<path id="hairHighlights_1_" style="fill:url(#hairHighlights_14_);" d="M93.75,4.2c-27.01,0-26.79,24.97-26.79,25.37
		c0,5.11,0.12,10.88,0.5,16.68l4.42-0.01c-0.04-1.92,1.31-13.81,5.32-14.71c14.72-3.31,23.06-11.12,23.06-11.12
		c2.17,4.73,8.94,9.35,11.38,11.1c2,1.44,2.61,12.22,2.57,14.74h5.07c0-0.03,0.01-0.07,0.02-0.1c0.37-5.76,0.49-11.5,0.49-16.58
		C119.79,29.17,120.76,4.2,93.75,4.2z"/>
</g>
<radialGradient id="SVGID_4_" cx="64" cy="33.0238" r="27.1035" gradientTransform="matrix(1 0 0 -1.4568 0 143.084)" gradientUnits="userSpaceOnUse">
	<stop  offset="0.5941" style="stop-color:#212121"/>
	<stop  offset="1" style="stop-color:#616161;stop-opacity:0.05"/>
</radialGradient>
<path style="opacity:0.4;fill:url(#SVGID_4_);enable-background:new    ;" d="M91,65.95V124H37V65.98c0.22,0,0.45,0.01,0.67,0.01
	c1.75,0.12,3.5,0.33,5.27,0.63C54.82,68.67,64,76.12,64,88.4c0-12.19,9.05-19.62,20.8-21.73c0.1-0.02,0.2-0.03,0.3-0.05
	c0.49-0.08,0.98-0.16,1.47-0.23s0.98-0.14,1.47-0.19c0.49-0.06,0.98-0.11,1.47-0.15c0.03,0,0.06,0,0.09-0.01
	C90.06,66.01,90.53,65.98,91,65.95z"/>
<path id="shirt_4_" style="fill:#E1BEE7;" d="M67.08,121.98c0-9.84,12.51-13.14,16.87-13.14h9.38c4.35,0,16.88,3.3,16.88,13.14
	c0,0,0.01,0.79,0.03,2.02h-1.02h-0.97H69.05h-0.98h-1.02C67.07,122.98,67.08,121.98,67.08,121.98z"/>
<g id="neck_6_">
	<path style="fill:#E59600;" d="M88.64,116.3c2.61,0,4.57-1.92,4.57-4.29v-2.38h-9.53v2.38C83.68,114.38,86.04,116.3,88.64,116.3z"
		/>
</g>
<g id="hair_x5F_back_4_">
	<g id="hair_15_">
		<path style="fill:#543930;" d="M107.18,111.07l-0.62-2.92l5.39,1.35c0,0,0.38-5.2-4.26-8.2c-5.09-3.29-10.94,0.22-10.94,0.22
			s0.58,3.93,4.06,7.3C103.15,111.09,107.18,111.07,107.18,111.07z"/>
	</g>
	<g id="hair_13_">
		<path style="fill:#543930;" d="M70.08,111.07l0.62-2.92l-5.39,1.35c0,0-0.38-5.2,4.26-8.2c5.09-3.29,10.94,0.22,10.94,0.22
			s-0.58,3.93-4.06,7.3C74.1,111.09,70.08,111.07,70.08,111.07z"/>
	</g>
	
		<radialGradient id="hairHighlights_15_" cx="945.2735" cy="22.6285" r="9.8373" gradientTransform="matrix(-0.8651 0.5016 -0.3314 -0.5715 897.9752 -355.8601)" gradientUnits="userSpaceOnUse">
		<stop  offset="0.5255" style="stop-color:#6D4C41;stop-opacity:0"/>
		<stop  offset="1" style="stop-color:#6D4C41"/>
	</radialGradient>
	<path id="hairHighlights_8_" style="fill:url(#hairHighlights_15_);" d="M70.08,111.07l0.62-2.92l-5.39,1.35c0,0-0.38-5.2,4.26-8.2
		c5.09-3.29,10.94,0.22,10.94,0.22s-0.58,3.93-4.06,7.3C74.1,111.09,70.08,111.07,70.08,111.07z"/>
	
		<radialGradient id="hairHighlights_16_" cx="384.531" cy="22.6285" r="9.3424" gradientTransform="matrix(0.8651 0.5016 0.3314 -0.5715 -235.4831 -74.5837)" gradientUnits="userSpaceOnUse">
		<stop  offset="0.5255" style="stop-color:#6D4C41;stop-opacity:0"/>
		<stop  offset="1" style="stop-color:#6D4C41"/>
	</radialGradient>
	<path id="hairHighlights_7_" style="fill:url(#hairHighlights_16_);" d="M107.32,111.07l-0.62-2.92l5.39,1.35
		c0,0,0.38-5.2-4.26-8.2c-5.09-3.29-10.94,0.22-10.94,0.22s0.58,3.93,4.06,7.3C103.3,111.09,107.32,111.07,107.32,111.07z"/>
</g>
<g id="ears_5_">
	<path style="fill:#E59600;" d="M73.69,89.21h3.97H99.2h3.97c3.18,0,5.78,2.5,5.78,5.56s-2.6,5.56-5.78,5.56H99.2H77.67h-3.97
		c-3.18,0-5.39-2.5-5.39-5.56S70.51,89.21,73.69,89.21z"/>
</g>
<path id="head_8_" style="fill:#FFCA28;" d="M88.64,66.27L88.64,66.27L88.64,66.27c9.33,0,17.57,9.8,17.57,23.9
	c0,14.02-9.87,20.96-17.57,20.96s-17.57-6.93-17.57-20.96C71.07,76.06,79.32,66.27,88.64,66.27z"/>
<path id="mouth_5_" style="fill:#795548;" d="M84.3,101.05c1.64,0.97,7,0.97,8.64,0c0.94-0.56,1.9,0.3,1.51,1.15
	c-0.38,0.84-3.31,2.79-5.84,2.79s-5.42-1.95-5.8-2.79C82.42,101.35,83.36,100.49,84.3,101.05z"/>
<path id="nose_5_" style="fill:#E59600;" d="M86.65,96.72c0.05-0.02,0.11-0.04,0.17-0.04h3.63c0.06,0.01,0.11,0.02,0.17,0.04
	c0.33,0.13,0.51,0.47,0.36,0.84s-0.88,1.38-2.34,1.38s-2.18-1.02-2.34-1.38C86.14,97.19,86.32,96.85,86.65,96.72z"/>
<g id="eyes_5_">
	<ellipse style="fill:#404040;" cx="97.17" cy="94.07" rx="2.53" ry="2.62"/>
	<ellipse style="fill:#404040;" cx="80.09" cy="94.07" rx="2.53" ry="2.62"/>
</g>
<g id="eyebrows_5_">
	<path style="fill:#6D4C41;" d="M101.13,89.41c-0.1-0.13-0.13-0.21-0.31-0.39c-0.39-0.42-1.18-0.92-1.94-1.18
		c-0.73-0.25-1.07-0.25-1.62-0.25c-0.85,0-1.37,0.18-1.62,0.25c-0.35,0.12-0.68,0.28-1.01,0.46c-0.55,0.33-1.74,1.14-1.38,1.87
		c0.4,0.81,1.01,0.51,1.56,0.3c0.24-0.07,1.32-0.5,2.46-0.5c0.62,0,0.88,0.07,1.04,0.09c0.73,0.12,1.28,0.35,1.38,0.38
		c0.38,0.15,0.65,0.37,1.07,0.2C101.23,90.44,101.42,89.84,101.13,89.41z"/>
	<path style="fill:#6D4C41;" d="M76.13,89.41c0.1-0.13,0.13-0.21,0.31-0.39c0.39-0.42,1.18-0.92,1.94-1.18
		c0.73-0.25,1.07-0.25,1.62-0.25c0.85,0,1.37,0.18,1.62,0.25c0.35,0.12,0.68,0.28,1.01,0.46c0.55,0.33,1.74,1.14,1.38,1.87
		c-0.4,0.81-1.01,0.51-1.56,0.3c-0.24-0.07-1.32-0.5-2.46-0.5c-0.62,0-0.88,0.07-1.04,0.09c-0.73,0.12-1.28,0.35-1.38,0.38
		c-0.38,0.15-0.65,0.37-1.07,0.2C76.03,90.44,75.84,89.84,76.13,89.41z"/>
</g>
<g id="hair_x5F_front_5_">
	<g id="hair_2_">
		<path style="fill:#543930;" d="M73.07,69.91c2.33-2.43,4.56-3.32,4.78-3.35c2.71-1.24,6.2-2.25,10.72-2.25
			c19.88,0,21.23,16.2,20.43,23.33c-0.71,6.29-4.37,7.84-4.37,7.84l0.6-7.11c0,0-7.11-2.18-11.04-4.83
			c-3.87-2.61-5.48-4.39-5.48-4.39s-1.2,1.28-5.44,4.34c-4.4,3.18-11.04,4.92-11.04,4.92l0.51,7.07c0,0-3.85-1.54-4.4-7.84
			C67.64,79.75,68.58,75.03,73.07,69.91z"/>
	</g>
	
		<radialGradient id="hairHighlights_17_" cx="899.8552" cy="43.2146" r="23.4742" gradientTransform="matrix(-1.0432 0 0 -0.9174 1027.2029 124.4322)" gradientUnits="userSpaceOnUse">
		<stop  offset="0.6851" style="stop-color:#6D4C41;stop-opacity:0"/>
		<stop  offset="1" style="stop-color:#6D4C41"/>
	</radialGradient>
	<path id="hairHighlights_3_" style="fill:url(#hairHighlights_17_);" d="M73.07,69.91c2.33-2.43,4.56-3.32,4.78-3.35
		c2.71-1.24,6.2-2.25,10.72-2.25c19.88,0,21.23,16.2,20.43,23.33c-0.71,6.29-4.37,7.84-4.37,7.84l0.6-7.11c0,0-7.11-2.18-11.04-4.83
		c-3.87-2.61-5.48-4.39-5.48-4.39s-1.2,1.28-5.44,4.34c-4.4,3.18-11.04,4.92-11.04,4.92l0.51,7.07c0,0-3.85-1.54-4.4-7.84
		C67.64,79.75,68.58,75.03,73.07,69.91z"/>
</g>
<path id="shirt_8_" style="fill:#E1BEE7;" d="M60.92,121.98c0-9.84-12.51-13.14-16.87-13.14h-9.38c-4.35,0-16.88,3.3-16.88,13.14
	c0,0-0.01,0.79-0.03,2.02h1.02h0.98h39.19h0.98h1.02C60.93,122.98,60.92,121.98,60.92,121.98z"/>
<g id="neck_5_">
	<path style="fill:#E59600;" d="M39.35,116.3c-2.6,0-4.57-1.92-4.57-4.29v-2.38h9.53v2.38C44.32,114.38,41.96,116.3,39.35,116.3z"/>
</g>
<g id="hair_x5F_back_5_">
	<g id="hair_8_">
		<path style="fill:#543930;" d="M20.82,111.07l0.62-2.92l-5.39,1.35c0,0-0.38-5.2,4.26-8.2c5.09-3.29,10.94,0.22,10.94,0.22
			s-0.58,3.93-4.06,7.3C24.84,111.09,20.82,111.07,20.82,111.07z"/>
	</g>
	<g id="hair_6_">
		<path style="fill:#543930;" d="M57.92,111.07l-0.62-2.92l5.39,1.35c0,0,0.38-5.2-4.26-8.2c-5.09-3.29-10.94,0.22-10.94,0.22
			s0.58,3.93,4.06,7.3C53.9,111.09,57.92,111.07,57.92,111.07z"/>
	</g>
	
		<radialGradient id="hairHighlights_18_" cx="55.2735" cy="22.6285" r="9.8373" gradientTransform="matrix(0.8651 0.5016 0.3314 -0.5715 -0.0438 90.5765)" gradientUnits="userSpaceOnUse">
		<stop  offset="0.5255" style="stop-color:#6D4C41;stop-opacity:0"/>
		<stop  offset="1" style="stop-color:#6D4C41"/>
	</radialGradient>
	<path id="hairHighlights_6_" style="fill:url(#hairHighlights_18_);" d="M57.92,111.07l-0.62-2.92l5.39,1.35c0,0,0.38-5.2-4.26-8.2
		c-5.09-3.29-10.94,0.22-10.94,0.22s0.58,3.93,4.06,7.3C53.9,111.09,57.92,111.07,57.92,111.07z"/>
	
		<radialGradient id="hairHighlights_19_" cx="1274.531" cy="22.6285" r="9.3424" gradientTransform="matrix(-0.8651 0.5016 -0.3314 -0.5715 1133.4144 -521.0203)" gradientUnits="userSpaceOnUse">
		<stop  offset="0.5255" style="stop-color:#6D4C41;stop-opacity:0"/>
		<stop  offset="1" style="stop-color:#6D4C41"/>
	</radialGradient>
	<path id="hairHighlights_4_" style="fill:url(#hairHighlights_19_);" d="M20.68,111.07l0.62-2.92l-5.39,1.35c0,0-0.38-5.2,4.26-8.2
		c5.09-3.29,10.94,0.22,10.94,0.22s-0.58,3.93-4.06,7.3C24.7,111.09,20.68,111.07,20.68,111.07z"/>
</g>
<g id="ears_3_">
	<path style="fill:#E59600;" d="M54.31,89.21h-3.97H28.8h-3.98c-3.18,0-5.78,2.5-5.78,5.56s2.6,5.56,5.78,5.56h3.98h21.53h3.97
		c3.18,0,5.39-2.5,5.39-5.56S57.49,89.21,54.31,89.21z"/>
</g>
<path id="head_7_" style="fill:#FFCA28;" d="M39.36,66.27L39.36,66.27L39.36,66.27c-9.33,0-17.57,9.8-17.57,23.9
	c0,14.02,9.87,20.96,17.57,20.96s17.57-6.93,17.57-20.96C56.93,76.06,48.68,66.27,39.36,66.27z"/>
<path id="mouth_8_" style="fill:#795548;" d="M43.7,101.05c-1.64,0.97-7,0.97-8.64,0c-0.94-0.56-1.9,0.3-1.51,1.15
	c0.38,0.84,3.31,2.79,5.84,2.79s5.42-1.95,5.8-2.79C45.58,101.35,44.64,100.49,43.7,101.05z"/>
<path id="nose_8_" style="fill:#E59600;" d="M41.35,96.72c-0.05-0.02-0.11-0.04-0.17-0.04h-3.63c-0.06,0.01-0.11,0.02-0.17,0.04
	c-0.33,0.13-0.51,0.47-0.35,0.84c0.16,0.36,0.88,1.38,2.34,1.38s2.18-1.02,2.34-1.38C41.86,97.19,41.68,96.85,41.35,96.72z"/>
<g id="eyes_8_">
	<ellipse style="fill:#404040;" cx="30.83" cy="94.07" rx="2.53" ry="2.62"/>
	<ellipse style="fill:#404040;" cx="47.91" cy="94.07" rx="2.53" ry="2.62"/>
</g>
<g id="eyebrows_8_">
	<path style="fill:#6D4C41;" d="M26.87,89.41c0.1-0.13,0.13-0.21,0.31-0.39c0.4-0.42,1.18-0.92,1.94-1.18
		c0.73-0.25,1.07-0.25,1.62-0.25c0.85,0,1.37,0.18,1.62,0.25c0.35,0.12,0.68,0.28,1.01,0.46c0.55,0.33,1.74,1.14,1.38,1.87
		c-0.4,0.81-1.01,0.51-1.56,0.3c-0.24-0.07-1.32-0.5-2.46-0.5c-0.62,0-0.88,0.07-1.05,0.09c-0.73,0.12-1.28,0.35-1.38,0.38
		c-0.38,0.15-0.65,0.37-1.08,0.2C26.77,90.44,26.58,89.84,26.87,89.41z"/>
	<path style="fill:#6D4C41;" d="M51.87,89.41c-0.1-0.13-0.13-0.21-0.31-0.39c-0.4-0.42-1.18-0.92-1.94-1.18
		c-0.73-0.25-1.07-0.25-1.62-0.25c-0.85,0-1.37,0.18-1.62,0.25c-0.35,0.12-0.68,0.28-1.01,0.46c-0.55,0.33-1.74,1.14-1.38,1.87
		c0.4,0.81,1.01,0.51,1.56,0.3c0.24-0.07,1.32-0.5,2.46-0.5c0.62,0,0.88,0.07,1.04,0.09c0.73,0.12,1.28,0.35,1.38,0.38
		c0.38,0.15,0.65,0.37,1.08,0.2C51.97,90.44,52.16,89.84,51.87,89.41z"/>
</g>
<g id="hair_x5F_front_7_">
	<g id="hair_1_">
		<path style="fill:#543930;" d="M54.93,69.91c-2.33-2.43-4.56-3.32-4.78-3.35c-2.71-1.24-6.2-2.25-10.72-2.25
			c-19.88,0-21.23,16.2-20.43,23.33c0.7,6.29,4.37,7.84,4.37,7.84l-0.6-7.11c0,0,7.11-2.18,11.04-4.83
			c3.87-2.61,5.48-4.39,5.48-4.39s1.2,1.28,5.44,4.34c4.4,3.18,11.04,4.92,11.04,4.92l-0.51,7.07c0,0,3.85-1.54,4.4-7.84
			C60.36,79.75,59.42,75.03,54.93,69.91z"/>
	</g>
	
		<radialGradient id="hairHighlights_20_" cx="46.6954" cy="43.2146" r="23.4742" gradientTransform="matrix(1.0432 0 0 -0.9174 -9.2029 124.4322)" gradientUnits="userSpaceOnUse">
		<stop  offset="0.6851" style="stop-color:#6D4C41;stop-opacity:0"/>
		<stop  offset="1" style="stop-color:#6D4C41"/>
	</radialGradient>
	<path id="hairHighlights_5_" style="fill:url(#hairHighlights_20_);" d="M54.93,69.91c-2.33-2.43-4.56-3.32-4.78-3.35
		c-2.71-1.24-6.2-2.25-10.72-2.25c-19.88,0-21.23,16.2-20.43,23.33c0.7,6.29,4.37,7.84,4.37,7.84l-0.6-7.11
		c0,0,7.11-2.18,11.04-4.83c3.87-2.61,5.48-4.39,5.48-4.39s1.2,1.28,5.44,4.34c4.4,3.18,11.04,4.92,11.04,4.92l-0.51,7.07
		c0,0,3.85-1.54,4.4-7.84C60.36,79.75,59.42,75.03,54.93,69.91z"/>
</g>
</svg>
