<?xml version="1.0" encoding="utf-8"?>
<!-- Generator: Adobe Illustrator 24.0.3, SVG Export Plug-In . SVG Version: 6.00 Build 0)  -->
<svg version="1.1" id="Layer_1" xmlns="http://www.w3.org/2000/svg" xmlns:xlink="http://www.w3.org/1999/xlink" x="0px" y="0px"
	 viewBox="0 0 128 128" style="enable-background:new 0 0 128 128;" xml:space="preserve">
<g id="hairGroup_1_">
	<path id="hair_10_" style="fill:#AB872F;" d="M64.57,2.87c-41.01,0-40.68,37.92-40.68,38.52c0,24.56,1.88,59.25,11.71,72.9
		c3.9,5.41,11.43,5.71,11.43,5.71L64,119.98L80.97,120c0,0,7.54-0.3,11.43-5.71c9.83-13.65,11.71-48.34,11.71-72.9
		C104.1,40.79,105.58,2.87,64.57,2.87z"/>
	
		<radialGradient id="hairHighlights_2_" cx="64.0002" cy="69.5615" r="47.5315" gradientTransform="matrix(1 0 0 -1.1901 0 141.2215)" gradientUnits="userSpaceOnUse">
		<stop  offset="0.7936" style="stop-color:#BFA055;stop-opacity:0"/>
		<stop  offset="1" style="stop-color:#BFA055"/>
	</radialGradient>
	<path id="hairHighlights_1_" style="fill:url(#hairHighlights_2_);" d="M64.57,2.87c-41.01,0-40.68,37.92-40.68,38.52
		c0,24.56,1.88,59.25,11.71,72.9c3.9,5.41,11.43,5.71,11.43,5.71L64,119.98L80.97,120c0,0,7.54-0.3,11.43-5.71
		c9.83-13.65,11.71-48.34,11.71-72.9C104.1,40.79,105.58,2.87,64.57,2.87z"/>
</g>
<g id="shirt">
	<g id="XMLID_53_">
		
			<linearGradient id="SVGID_1_" gradientUnits="userSpaceOnUse" x1="64" y1="32.3935" x2="64" y2="5.6022" gradientTransform="matrix(1 0 0 -1 0 128)">
			<stop  offset="3.200000e-03" style="stop-color:#E3F2FD"/>
			<stop  offset="0.2252" style="stop-color:#D6ECFC"/>
			<stop  offset="0.6348" style="stop-color:#B4DBFB"/>
			<stop  offset="1" style="stop-color:#90CAF9"/>
		</linearGradient>
		<path style="fill:url(#SVGID_1_);" d="M64.14,96c-0.05,0-0.09,0-0.14,0c-25.65,0.03-52,7.1-52,24.99V124h1.5H15h98h1.5h1.5v-3.01
			C116,104.12,89.9,96,64.14,96z"/>
	</g>
	<g>
		
			<linearGradient id="SVGID_2_" gradientUnits="userSpaceOnUse" x1="64" y1="15.884" x2="64" y2="36.5426" gradientTransform="matrix(1 0 0 -1 0 128)">
			<stop  offset="0.5" style="stop-color:#F5F5F5"/>
			<stop  offset="1" style="stop-color:#DADADA"/>
		</linearGradient>
		<path style="fill:url(#SVGID_2_);" d="M75.65,90.8h-23.3l-6.97,7.53l8.2,12.71c0.9,1.39,2.89,1.5,3.93,0.21l6.48-8.01l6.48,8.01
			c1.04,1.29,3.04,1.18,3.93-0.21l8.2-12.71L75.65,90.8z"/>
		<g>
			<g>
				<circle style="fill:#64B5F6;" cx="64" cy="111.31" r="1.69"/>
				<circle style="fill:#64B5F6;" cx="64" cy="119.31" r="1.69"/>
			</g>
		</g>
	</g>
</g>
<g id="neck">
	<path style="fill:#C48E6A;" d="M64,84.33h-9.08v9.98c0,4.51,3.7,8.17,8.26,8.17h1.65c4.56,0,8.26-3.66,8.26-8.17v-9.98L64,84.33z"
		/>
</g>
<g id="head">
	<path style="fill:#E0BB95;" d="M64,16.04L64,16.04L64,16.04c-17.2,0-33.13,12.79-33.13,39.91c0,21.78,13.49,34.67,25.23,38.83
		c2.8,0.99,5.5,1.49,7.9,1.49c2.38,0,5.07-0.49,7.85-1.47c11.76-4.14,25.28-17.03,25.28-38.84C97.13,28.83,81.2,16.04,64,16.04z"/>
</g>
<path id="nose" style="fill:#C48E6A;" d="M67.81,68.06c-0.11-0.04-0.21-0.07-0.32-0.08H60.5c-0.11,0.01-0.21,0.04-0.32,0.08
	c-0.63,0.26-0.98,0.91-0.68,1.61c0.3,0.7,1.69,2.66,4.49,2.66c2.8,0,4.2-1.96,4.49-2.66C68.79,68.97,68.45,68.31,67.81,68.06z"/>
<g id="eyes">
	<ellipse style="fill:#5D4037;" cx="47.75" cy="58.87" rx="4.87" ry="5.04"/>
	<ellipse style="fill:#5D4037;" cx="80.25" cy="58.87" rx="4.87" ry="5.04"/>
</g>
<g id="eyebrows">
	<path style="fill:#AB872F;" d="M54.99,49.82c-0.93-1.23-3.07-3.01-7.23-3.01s-6.31,1.79-7.23,3.01c-0.41,0.54-0.31,1.17-0.02,1.55
		c0.26,0.35,1.04,0.68,1.9,0.39s2.54-1.16,5.35-1.18c2.81,0.02,4.49,0.89,5.35,1.18c0.86,0.29,1.64-0.03,1.9-0.39
		C55.29,50.99,55.39,50.36,54.99,49.82z"/>
	<path style="fill:#AB872F;" d="M87.48,49.82c-0.93-1.23-3.07-3.01-7.23-3.01s-6.31,1.79-7.23,3.01c-0.41,0.54-0.31,1.17-0.02,1.55
		c0.26,0.35,1.04,0.68,1.9,0.39s2.54-1.16,5.35-1.18c2.81,0.02,4.49,0.89,5.35,1.18c0.86,0.29,1.64-0.03,1.9-0.39
		C87.79,50.99,87.89,50.36,87.48,49.82z"/>
</g>
<path id="mouth" style="fill:#6D4C41;" d="M72.32,76.14c-3.15,1.87-13.47,1.87-16.61,0c-1.81-1.07-3.65,0.57-2.9,2.21
	c0.74,1.61,6.37,5.36,11.23,5.36s10.42-3.75,11.16-5.36C75.95,76.71,74.12,75.06,72.32,76.14z"/>
<g id="hairGroup">
	<path id="hair_5_" style="fill:#AB872F;" d="M64.57,2.87c-41.01,0-40.68,37.92-40.68,38.52c0,7.76,0.19,16.53,0.75,25.32l6.72-0.02
		c-0.06-2.92,1.99-20.97,8.08-22.34c22.36-5.03,35.01-16.89,35.01-16.89c3.29,7.18,13.58,14.19,17.27,16.86
		c3.03,2.19,4.27,18.55,4.21,22.38h7.4c0-0.05,0.02-0.1,0.02-0.16c0.56-8.75,0.74-17.46,0.74-25.17
		C104.1,40.79,105.58,2.87,64.57,2.87z"/>
	
		<radialGradient id="hairHighlights_3_" cx="64.3333" cy="65.537" r="49.788" gradientTransform="matrix(1 0 0 -1.2135 0 141.9952)" gradientUnits="userSpaceOnUse">
		<stop  offset="0.7945" style="stop-color:#BFA055;stop-opacity:0"/>
		<stop  offset="1" style="stop-color:#BFA055"/>
	</radialGradient>
	<path id="hairHighlights" style="fill:url(#hairHighlights_3_);" d="M64.57,2.87c-41.01,0-40.68,37.92-40.68,38.52
		c0,7.76,0.19,16.53,0.75,25.32l6.72-0.02c-0.06-2.92,1.99-20.97,8.08-22.34c22.36-5.03,35.01-16.89,35.01-16.89
		c3.29,7.18,13.58,14.19,17.27,16.86c3.03,2.19,4.27,18.55,4.21,22.38h7.4c0-0.05,0.02-0.1,0.02-0.16
		c0.56-8.75,0.74-17.46,0.74-25.17C104.1,40.79,105.58,2.87,64.57,2.87z"/>
</g>
</svg>
