<svg xmlns="http://www.w3.org/2000/svg" viewBox="0 0 64 64" enable-background="new 0 0 64 64"><path d="m32 54.8v7.2h30v-7.2c0-5.8-30-5.8-30 0" fill="#01579b"/><path d="m31.9 37.3l1.5 2.8h26.2l1.1-2.9c0-10.6-2.5-15-14.1-15.1-11.8-.2-14.7 4.5-14.7 15.2" fill="#ffb300"/><path d="m59.7 37.1c-.1.6-.2 1.2-.4 1.5-.3.6-.9.9-.9.9s.2-1.2.1-2.8c-.7-9.7-1.2-5.1-11.9-5.1-10.7 0-11.3-4.7-11.9 5-.1 1.7.1 2.8.1 2.8s-.6-.3-.9-.9c-.2-.3-.3-.9-.4-1.5-1-.3-2.3 0-2.3 2.9 0 1.8.7 3.3 2.9 3.5.8 6.1 8.9 10.1 12.6 10.1 3.6 0 11.8-4.1 12.6-10.1 2.2-.2 2.9-1.7 2.9-3.5-.2-2.8-1.5-3-2.5-2.8" fill="#ffdd67"/><g fill="#937237"><circle cx="41" cy="40.3" r="2.2"/><circle cx="52" cy="40.3" r="2.2"/><path d="m50.1 47.2c-2.3 1.8-4.9 1.8-7.2 0-.3-.2-.5.2-.3.5.7 1.3 2.1 2.4 3.9 2.4s3.2-1.1 3.9-2.4c.2-.4 0-.8-.3-.5"/></g><path d="m46.5 7.1c-3.2-8.5-13.5-4.7-14.5-.5-1.3-4.5-11.4-7.9-14.5.4-3.5 9.3 13.3 17.6 14.5 19 1.2-1.1 18-9.8 14.5-18.9" fill="#ff5a79"/><path d="M32,54.8V62H2v-7.2C2,49,32,49,32,54.8z" fill="#01579b"/><path d="m32.1 37.3l-1.5 2.8h-26.2l-1.1-2.9c0-10.6 2.5-15 14.1-15.1 11.8-.2 14.7 4.5 14.7 15.2" fill="#ffb300"/><path d="m4.3 37.1c.1.6.2 1.2.4 1.5.3.6.9.9.9.9s-.2-1.2-.1-2.8c.7-9.7 1.2-5.1 11.9-5.1 10.7 0 11.3-4.7 11.9 5 .1 1.7-.1 2.8-.1 2.8s.6-.3.9-.9c.2-.3.3-.9.4-1.5 1-.3 2.3 0 2.3 2.9 0 1.8-.7 3.3-2.9 3.5-.8 6.1-8.9 10.1-12.6 10.1-3.6 0-11.8-4.1-12.6-10.1-2-.1-2.7-1.6-2.7-3.4 0-2.9 1.3-3.1 2.3-2.9" fill="#ffdd67"/><g fill="#937237"><circle cx="23" cy="40.3" r="2.2"/><circle cx="12" cy="40.3" r="2.2"/><path d="m13.9 47.2c2.3 1.8 4.9 1.8 7.2 0 .3-.2.5.2.3.5-.7 1.3-2.1 2.4-3.9 2.4s-3.2-1.1-3.9-2.4c-.2-.4 0-.8.3-.5"/></g></svg>