<?xml version="1.0" encoding="utf-8"?>
<!-- Generator: Adobe Illustrator 24.0.3, SVG Export Plug-In . SVG Version: 6.00 Build 0)  -->
<svg version="1.1" id="Layer_1" xmlns="http://www.w3.org/2000/svg" xmlns:xlink="http://www.w3.org/1999/xlink" x="0px" y="0px"
	 viewBox="0 0 128 128" style="enable-background:new 0 0 128 128;" xml:space="preserve">
<g id="hairGroup_1_">
	<path id="hair_10_" style="fill:#232020;" d="M64.3,4.87c-41.01,0-40.68,35.92-40.68,36.52c0,24.56,1.88,59.25,11.71,72.9
		c3.9,5.41,11.43,5.71,11.43,5.71l16.97-0.03L80.7,120c0,0,7.38-0.41,11.43-5.71c11.42-14.94,11.71-48.34,11.71-72.9
		C103.83,40.79,105.31,4.87,64.3,4.87z"/>
	
		<radialGradient id="hairHighlights_2_" cx="63.7313" cy="57.6496" r="46.9637" gradientTransform="matrix(1 0 0 1.1901 0 -9.1211)" gradientUnits="userSpaceOnUse">
		<stop  offset="0.7936" style="stop-color:#444140;stop-opacity:0"/>
		<stop  offset="1" style="stop-color:#444140"/>
	</radialGradient>
	<path id="hairHighlights_1_" style="fill:url(#hairHighlights_2_);" d="M64.57,4.87c-41.01,0-40.95,37.21-40.95,37.81
		c0,23.56,1.91,58.42,11.74,72.07c3.9,5.41,11.67,5.25,11.67,5.25L64,119.98l16.97,0.03c0,0,7.47-0.35,11.43-5.71
		c11-14.89,11.43-48.35,11.43-72.91C103.83,40.79,105.58,4.87,64.57,4.87z"/>
</g>
<g id="neck_1_">
	<polygon style="fill:#3C2B24;" points="73.63,112.3 73.63,89.51 64,89.51 54.37,89.51 54.37,112.3 	"/>
</g>
<radialGradient id="suit_back_layer_2_" cx="64.6139" cy="121.182" r="52.4973" gradientTransform="matrix(1 0 0 0.5476 0 57.6522)" gradientUnits="userSpaceOnUse">
	<stop  offset="0.7824" style="stop-color:#212121"/>
	<stop  offset="1" style="stop-color:#616161"/>
</radialGradient>
<path id="suit_back_layer_1_" style="fill:url(#suit_back_layer_2_);" d="M116.52,123.96v-3.11c0-9.38-8.44-15.34-15.73-18.43
	c-6.45-2.74-14.28-5.1-23.99-5.8c0,0-2.92,19.52-12.65,19.38c-8.32-0.12-11.91-19.41-11.91-19.41
	c-20.55,1.94-40.75,9.46-40.75,24.26v3.11H116.52z"/>
<g id="suit_top_1_">
	<polygon style="fill:#E0E0E0;" points="71.91,123.96 75.34,106 52.66,106 56.5,123.96 	"/>
	<g>
		<polygon style="fill:#212121;" points="66.85,113.53 61.22,113.53 59.44,106.03 68.56,106.03 		"/>
		<polygon style="fill:#212121;" points="67.96,123.96 66.82,113.53 61.18,113.53 60.04,123.96 		"/>
	</g>
	<g>
		<path style="fill:#FAFAFA;" d="M63.98,106l-8.65,7.19l-1.62,1.35l-3.49-17.81c0.5-0.06,1-0.11,1.5-0.15
			c1.11-0.11,1.37-0.2,2.49-0.27c0,0,1.81,3.08,3.66,5.5C61.04,105.94,63.98,106,63.98,106z"/>
		<path style="fill:#FAFAFA;" d="M77.76,96.78l-3.48,17.76L63.99,106c0,0,2.96-0.06,6.13-4.19c1.92-2.5,3.67-5.48,3.67-5.48
			c1.12,0.08,1.38,0.17,2.49,0.28C76.78,96.66,77.27,96.71,77.76,96.78z"/>
	</g>
	<g>
		<g>
			<path style="fill:#424242;" d="M55.23,113.19l-3.61-16.61c-0.5,0.04-1,0.09-1.5,0.15c-3.16,0.34-8.08,1.18-8.08,1.18l-3.1,6.57
				l7.12,4.36l-4.75,6.11l9.25,9.01h6l0,0h1.01L55.23,113.19z"/>
		</g>
		<path style="fill:#424242;" d="M72.77,113.19l3.61-16.61c0.5,0.04,1,0.09,1.5,0.15c3.35,0.22,8.01,1.03,8.01,1.03l3.17,6.72
			l-7.12,4.36l4.75,6.11l-9.25,9.01h-6l0,0h-1.01L72.77,113.19z"/>
	</g>
</g>
<g id="emblem_1_">
	<path style="fill:#FFC107;" d="M92.2,119.78c-0.04,0.02-0.08,0.04-0.12,0.04h-4.12c-0.15,0-0.21,0.19-0.09,0.28
		c0.1,0.07,0.19,0.14,0.29,0.2c0.33,0.23,0.73,0.34,1.13,0.34h3.23C92.43,120.34,92.32,120.05,92.2,119.78z"/>
	<path style="fill:#FFC107;" d="M92,119.38c-0.22-0.42-0.43-0.74-0.59-0.96h-5.29c-0.11,0-0.17,0.14-0.08,0.22
		c0.05,0.05,0.1,0.09,0.15,0.14c0.45,0.4,1.03,0.61,1.62,0.61H92V119.38z"/>
	<path style="fill:#FFC107;" d="M92.65,121.1h-2.84c-0.09,0-0.12,0.12-0.04,0.16c1.72,0.86,2.69,0.8,2.69,0.8h0.33
		C92.77,121.73,92.72,121.4,92.65,121.1z"/>
	<path style="fill:#FFC107;" d="M102.04,119.82h-4.12c-0.05,0-0.09-0.02-0.12-0.04c-0.12,0.26-0.23,0.56-0.32,0.87h3.23
		c0.4,0,0.8-0.12,1.13-0.34c0.09-0.06,0.19-0.13,0.29-0.2C102.25,120.02,102.19,119.82,102.04,119.82z"/>
	<path style="fill:#FFC107;" d="M103.88,118.41h-5.29c-0.16,0.22-0.37,0.54-0.59,0.96h4.18c0.6,0,1.18-0.21,1.62-0.61
		c0.05-0.05,0.1-0.09,0.15-0.14C104.04,118.55,103.99,118.41,103.88,118.41z"/>
	<path style="fill:#FFC107;" d="M100.19,121.1h-2.84c-0.07,0.31-0.12,0.63-0.15,0.96h0.33c0,0,0.97,0.06,2.69-0.8
		C100.31,121.22,100.28,121.1,100.19,121.1z"/>
	<path style="fill:#FFC107;" d="M96.78,117.29c-0.32,0.15-0.7,0.24-1.04,0.29c-0.49,0.07-0.99,0.07-1.48,0
		c-0.35-0.05-0.72-0.14-1.04-0.29c-0.2-0.09-0.44,0.01-0.52,0.21l-0.33,0.83c-0.09,0.22-0.07,0.36,0.01,0.47
		c0.3,0.4,1,1.5,1.05,2.83c0.01,0.15,0.08,0.28,0.22,0.35c0.27,0.13,0.75,0.38,1.11,0.68c0.15,0.12,0.36,0.12,0.51,0
		c0.36-0.3,0.83-0.54,1.11-0.68c0.13-0.06,0.21-0.2,0.22-0.35c0.05-1.33,0.75-2.42,1.05-2.83c0.08-0.11,0.1-0.25,0.04-0.37
		c-0.09-0.23-0.25-0.62-0.37-0.92C97.22,117.3,96.98,117.2,96.78,117.29z"/>
</g>
<path id="head" style="fill:#70534A;" d="M64,16.04c-17.2,0-33.13,12.79-33.13,39.91c0,21.79,13.49,34.67,25.23,38.83
	c2.8,0.99,5.5,1.49,7.9,1.49c2.38,0,5.07-0.49,7.85-1.47c11.76-4.14,25.28-17.03,25.28-38.84C97.13,28.83,81.2,16.04,64,16.04z"/>
<path id="nose" style="fill:#33251F;" d="M67.81,68.05c-0.1-0.04-0.21-0.07-0.32-0.08H60.5c-0.11,0.01-0.21,0.04-0.32,0.08
	c-0.63,0.26-0.98,0.91-0.68,1.61s1.69,2.66,4.49,2.66c2.8,0,4.19-1.96,4.49-2.66C68.79,68.97,68.45,68.31,67.81,68.05z"/>
<g id="eyes">
	<ellipse style="fill:#1A1717;" cx="47.75" cy="58.87" rx="4.87" ry="5.04"/>
	<ellipse style="fill:#1A1717;" cx="80.25" cy="58.87" rx="4.87" ry="5.04"/>
</g>
<path id="mouth" style="fill:#1A1717;" d="M72.32,76.14c-3.15,1.87-13.46,1.87-16.61,0c-1.81-1.07-3.65,0.57-2.9,2.21
	c0.74,1.61,6.37,5.36,11.23,5.36s10.42-3.75,11.16-5.36C75.95,76.71,74.12,75.06,72.32,76.14z"/>
<g id="eyebrows">
	<path style="fill:#1A1717;" d="M54.98,49.82c-0.93-1.23-3.07-3.01-7.23-3.01s-6.31,1.79-7.23,3.01c-0.41,0.54-0.31,1.17-0.02,1.55
		c0.26,0.35,1.04,0.68,1.9,0.39s2.54-1.16,5.35-1.18c2.81,0.02,4.49,0.89,5.35,1.18s1.64-0.03,1.9-0.39
		C55.29,50.99,55.39,50.36,54.98,49.82z"/>
	<path style="fill:#1A1717;" d="M87.48,49.82c-0.93-1.23-3.07-3.01-7.23-3.01s-6.31,1.79-7.23,3.01c-0.41,0.54-0.31,1.17-0.02,1.55
		c0.26,0.35,1.04,0.68,1.9,0.39s2.54-1.16,5.35-1.18c2.81,0.02,4.49,0.89,5.35,1.18s1.64-0.03,1.9-0.39
		C87.79,50.99,87.89,50.36,87.48,49.82z"/>
</g>
<g id="hairGroup">
	<path id="hair_5_" style="fill:#232020;" d="M64.57,4.87c-41.01,0-40.68,35.92-40.68,36.52c0,7.76,0.19,16.53,0.75,25.32l6.72-0.02
		c-0.06-2.92,1.99-20.97,8.08-22.34c22.36-5.03,35.01-16.89,35.01-16.89c3.29,7.18,13.58,14.19,17.27,16.86
		c3.03,2.19,4.27,18.55,4.21,22.38h7.4c0-0.05,0.02-0.1,0.02-0.16c0.56-8.75,0.47-17.46,0.47-25.17
		C103.83,40.79,105.58,4.87,64.57,4.87z"/>
	
		<radialGradient id="hairHighlights_3_" cx="64.1982" cy="60.7722" r="49.6061" gradientTransform="matrix(1 0 0 1.2135 0 -11.1478)" gradientUnits="userSpaceOnUse">
		<stop  offset="0.7945" style="stop-color:#444140;stop-opacity:0"/>
		<stop  offset="1" style="stop-color:#444140"/>
	</radialGradient>
	<path id="hairHighlights" style="fill:url(#hairHighlights_3_);" d="M64.57,4.87c-41.01,0-40.68,35.92-40.68,36.52
		c0,7.76,0.19,16.53,0.75,25.32l6.72-0.02c-0.06-2.92,1.99-20.97,8.08-22.34c22.36-5.03,35.01-16.89,35.01-16.89
		c3.29,7.18,13.58,14.19,17.27,16.86c3.03,2.19,4.27,18.55,4.21,22.38h7.4c0-0.05,0.02-0.1,0.02-0.16
		c0.56-8.75,0.47-17.46,0.47-25.17C103.83,40.79,105.58,4.87,64.57,4.87z"/>
</g>
<g id="cap">
	<g>
		
			<linearGradient id="SVGID_1_" gradientUnits="userSpaceOnUse" x1="64.051" y1="25.8493" x2="64.051" y2="42.9818" gradientTransform="matrix(1 0 0 1 0 2)">
			<stop  offset="4.000000e-03" style="stop-color:#666666"/>
			<stop  offset="0.0797" style="stop-color:#606060"/>
			<stop  offset="0.5459" style="stop-color:#3F3F3F"/>
			<stop  offset="0.8021" style="stop-color:#333333"/>
		</linearGradient>
		<path style="fill:url(#SVGID_1_);" d="M63.79,24.17c-33.25,0-38.58,11.36-38.58,11.36s10.25,9.91,38.58,10.1
			C92.13,45.44,102.9,34.9,102.9,34.9S97.05,24.17,63.79,24.17z"/>
	</g>
	<path style="fill:#303030;" d="M20.41,34.44c1.69,6.19,3.31,8.74,3.31,8.74c1.72-1.99,11.93-11.38,40.21-11.38h0.12h0.04
		c28.28,0,38.03,9.43,39.74,11.43c0,0,2.04-2.76,3.74-8.95C111.5,19.96,92.04,3.92,64.04,3.92C36.12,3.93,16.5,20.14,20.41,34.44z"
		/>
	<g>
		<g>
			<g>
				<g>
					<defs>
						<path id="SVGID_2_" d="M20.41,34.44c1.69,6.19,3.31,8.74,3.31,8.74c1.72-1.99,11.93-11.38,40.21-11.38h0.12h0.04
							c28.28,0,38.03,9.43,39.74,11.43c0,0,2.04-2.76,3.74-8.95C111.5,19.96,92.04,3.92,64.04,3.92
							C36.12,3.93,16.5,20.14,20.41,34.44z"/>
					</defs>
					<clipPath id="SVGID_3_">
						<use xlink:href="#SVGID_2_"  style="overflow:visible;"/>
					</clipPath>
					<path style="clip-path:url(#SVGID_3_);fill:#212121;" d="M98.21,35.24c-0.2-1.08-0.79-2.04-1.66-2.7
						c-3.61-2.8-14.41-9.75-32.71-9.75c-18.77,0-29.28,6.94-32.76,9.74c-0.83,0.67-1.4,1.61-1.59,2.65l-0.01,0.06
						c-0.6,3.17,2.27,5.92,5.41,5.17c6.55-1.58,17.23-3.6,28.95-3.62c11.72,0.02,22.4,2.05,28.95,3.62
						C95.93,41.16,98.81,38.41,98.21,35.24z"/>
				</g>
			</g>
		</g>
	</g>
	<g>
		<path style="fill:#FFC107;" d="M57.31,20.28c-0.09,0.06-0.18,0.1-0.29,0.1h-9.84c-0.36,0-0.5,0.46-0.21,0.67
			c0.23,0.17,0.46,0.33,0.69,0.48c0.8,0.54,1.74,0.82,2.71,0.82h7.72C57.86,21.61,57.6,20.91,57.31,20.28z"/>
		<path style="fill:#FFC107;" d="M56.84,19.31c-0.52-1-1.03-1.78-1.4-2.3H42.8c-0.27,0-0.4,0.34-0.2,0.51
			c0.12,0.11,0.25,0.22,0.37,0.33c1.07,0.94,2.45,1.46,3.88,1.46H56.84z"/>
		<path style="fill:#FFC107;" d="M58.38,23.42h-6.79c-0.21,0-0.28,0.29-0.09,0.39c4.11,2.05,6.44,1.91,6.44,1.91h0.79
			C58.68,24.92,58.56,24.15,58.38,23.42z"/>
		<path style="fill:#FFC107;" d="M80.82,20.38h-9.84c-0.11,0-0.21-0.04-0.29-0.1c-0.29,0.63-0.55,1.33-0.78,2.07h7.72
			c0.96,0,1.91-0.28,2.71-0.82c0.23-0.15,0.45-0.31,0.69-0.48C81.32,20.84,81.18,20.38,80.82,20.38z"/>
		<path style="fill:#FFC107;" d="M85.21,17.01H72.57c-0.37,0.52-0.88,1.3-1.4,2.3h9.99c1.43,0,2.81-0.51,3.88-1.46
			c0.12-0.11,0.24-0.22,0.37-0.33C85.6,17.34,85.47,17.01,85.21,17.01z"/>
		<path style="fill:#FFC107;" d="M76.41,23.42h-6.79c-0.17,0.73-0.29,1.5-0.35,2.3h0.79c0,0,2.33,0.14,6.44-1.91
			C76.68,23.71,76.62,23.42,76.41,23.42z"/>
		<path style="fill:#FFC107;" d="M68.25,14.33c-0.76,0.35-1.66,0.56-2.49,0.69c-1.17,0.18-2.36,0.18-3.53,0
			c-0.83-0.13-1.73-0.34-2.49-0.69c-0.48-0.22-1.04,0.02-1.24,0.51l-0.8,1.98c-0.21,0.52-0.17,0.86,0.02,1.12
			c0.71,0.96,2.39,3.59,2.5,6.76c0.01,0.35,0.2,0.67,0.52,0.83c0.65,0.31,1.79,0.91,2.64,1.61c0.36,0.3,0.86,0.3,1.22,0
			c0.86-0.71,1.99-1.3,2.64-1.61c0.32-0.15,0.51-0.47,0.52-0.83c0.11-3.17,1.8-5.79,2.5-6.76c0.19-0.26,0.23-0.6,0.11-0.89
			c-0.23-0.56-0.6-1.49-0.89-2.21C69.3,14.35,68.73,14.11,68.25,14.33z"/>
	</g>
</g>
<radialGradient id="SVGID_4_" cx="64.3139" cy="34.022" r="52.0145" gradientTransform="matrix(1 0 0 0.6655 0 13.8845)" gradientUnits="userSpaceOnUse">
	<stop  offset="0.6313" style="stop-color:#212121;stop-opacity:0"/>
	<stop  offset="0.9176" style="stop-color:#BFBEBE"/>
</radialGradient>
<path style="opacity:0.3;fill:url(#SVGID_4_);enable-background:new    ;" d="M20.41,34.44c1.69,6.19,3.31,8.74,3.31,8.74
	c1.72-2,11.98-11.62,40.27-11.62c0.01,0,0.12,0,0.12,0l0,0c0,0,0,0,0.04,0c28.28,0,37.96,9.67,39.68,11.67c0,0,2.11-2.99,3.81-9.18
	c3.93-14.32-15.39-30.13-43.39-30.13C36.3,3.92,16.5,20.13,20.41,34.44z"/>
</svg>
