<?xml version="1.0" encoding="utf-8"?>
<!-- Generator: Adobe Illustrator 24.0.3, SVG Export Plug-In . SVG Version: 6.00 Build 0)  -->
<svg version="1.1" id="Layer_1" xmlns="http://www.w3.org/2000/svg" xmlns:xlink="http://www.w3.org/1999/xlink" x="0px" y="0px"
	 viewBox="0 0 128 128" style="enable-background:new 0 0 128 128;" xml:space="preserve">
<g id="hairGroup">
	<path id="hair" style="fill:#312D2D;" d="M97.15,27.25c0.26-7.36,4.54-11.81-0.17-17.5c-3.11-3.75-9.3-2.18-10.39-0.74
		c-2.11,2.79,1.49,5.3,2.32,6.69c1.22,2.05-1.03,10.41,2.66,16.39c5,8.08,10.12,6.82,10.12,6.82S96.9,34.33,97.15,27.25z"/>
	<g id="hairHighlights">
		
			<radialGradient id="SVGID_1_" cx="90.0763" cy="108.166" r="13.5031" gradientTransform="matrix(0.9937 -0.1118 -0.1352 -1.2015 15.0711 161.7806)" gradientUnits="userSpaceOnUse">
			<stop  offset="0.5264" style="stop-color:#454140;stop-opacity:0"/>
			<stop  offset="1" style="stop-color:#454140"/>
		</radialGradient>
		<path style="fill:url(#SVGID_1_);" d="M97.55,23.82c1.03-5.43,3.36-9.32-0.57-14.07c-3.11-3.75-9.3-2.18-10.39-0.74
			c-2.11,2.79,1.49,5.3,2.32,6.69C90.13,17.74,97.55,23.82,97.55,23.82z"/>
		
			<radialGradient id="SVGID_2_" cx="104.137" cy="95.7699" r="14.4403" gradientTransform="matrix(-0.9855 0.1697 0.2093 1.2158 184.9042 -101.8112)" gradientUnits="userSpaceOnUse">
			<stop  offset="0" style="stop-color:#454140"/>
			<stop  offset="0.5264" style="stop-color:#454140;stop-opacity:0"/>
		</radialGradient>
		<path style="fill:url(#SVGID_2_);" d="M97.15,27.25c0.07-1.84,0.4-3.64,0.84-5.43c0.39-1.58,0.79-2.93-0.23-4.39
			c-1.62-2.29-4.85-3.29-7.48-2.32c-0.79,0.29-1.28,0.7-1.17,1.51c0.08,0.59,0.2,1.12,0.21,1.73c0.02,1.38-0.03,2.75-0.01,4.13
			c0.06,3.3,0.49,6.73,2.25,9.59c5,8.08,10.12,6.82,10.12,6.82S96.9,34.33,97.15,27.25z"/>
		
			<radialGradient id="SVGID_3_" cx="97.9972" cy="104.8579" r="7.9187" gradientTransform="matrix(-0.9849 0.1729 0.5515 3.1415 134.8777 -322.5777)" gradientUnits="userSpaceOnUse">
			<stop  offset="0.5264" style="stop-color:#454140;stop-opacity:0"/>
			<stop  offset="1" style="stop-color:#454140"/>
		</radialGradient>
		<path style="fill:url(#SVGID_3_);" d="M96.94,37.78c0,0-5.82-3.48-7.14-10.29c-0.53-2.72-0.57-5.02-0.5-6.57
			c0.06-1.34,0.9-5.74-0.21-7.24"/>
	</g>
</g>
<g id="head">
	<path id="head_1_" style="fill:#F9DDBD;" d="M86.76,13.59c-2.51-4.06-8.2-7.22-12.91-6.44c-5.28,0.87-8.11,4.67-8.86,9.49
		c-0.27,1.75-0.22,3.49,0.08,4.72c0.04,0.15,0.33,1.22,0.35,1.56c0.2,1.3-2.32,2.59-2.61,4.02c-0.22,1.08,2.03,1.77,2.21,1.96
		c0.88,0.97-0.51,5.58,5.66,6.04c2.37,0.18,1.91,0.03,2.61,0.3c1.09,0.42,0.99,3.32,0.99,3.32s0.61,4.78,4.69,3.51
		c4.66-1.44,4.84-4.74,4.84-4.74s-1.73-4.6,1.05-9.38C87.07,24.12,88.38,16.19,86.76,13.59z"/>
</g>
<path id="mouth_1_" style="fill:#444444;" d="M65.64,31.48c0.86,0.05,1.7-0.15,2.43-0.69c0.79-0.59,0.25-1.24-0.66-0.86
	c-0.55,0.23-1.32,0.35-2.02,0.22L65.64,31.48z"/>
<ellipse id="eye_1_" transform="matrix(0.9995 -0.0315 0.0315 0.9995 -0.7101 2.1929)" style="fill:#312D2D;" cx="69.24" cy="23.63" rx="1.13" ry="1.74"/>
<path id="eyebrow_1_" style="fill:#454140;" d="M68.36,21.07c-1.12,0.26-1.34-0.48-0.94-1.04c0.29-0.42,0.98-0.74,2.25-0.42
	c1.2,0.3,1.66,1.03,1.97,1.47s0.24,0.86-0.04,0.89C71.22,21.99,69.75,20.74,68.36,21.07z"/>
<g id="hairGroup_1_">
	<path id="hair_1_" style="fill:#312D2D;" d="M87.27,10.44c-2.33-2.83-6.11-4.64-10.13-4.83c-3.49-0.17-8.28,0.69-11.22,3.6
		c-1.77,1.75-2.82,4.05-2.53,6.6c0.17,1.54,1.44,2.32,1.44,2.32s1.45-3.5,5.02-2.61c3.75,0.93,5.38,0.17,5.38,0.17
		c-1.26,2.98-0.15,4.61,0.83,5.54c0.56,0.53,1.08,1.16,1.37,1.53c0.15,0.19,0.28,0.18,0.34-0.02c0.15-0.48,0.42-1.35,0.63-1.75
		c0.69-1.37,1.81-0.88,1.81-0.88c1.51,0.53,2.05,3.64-0.43,5.47c-0.06,0.04-0.23,0.16-0.13,0.47c0.98,3.15,4.24,3.54,4.46,3.43
		c0,0,0.01,0,0.01-0.01c0.02-0.01,0.04-0.02,0.05-0.03c0.5-0.23,0.79-0.64,0.88-1.22c0.31-2.09,1.7-2.98,2.35-3.89
		c0.76-1.05,1.62-2.24,2.11-5.53C89.98,15.68,89.2,12.8,87.27,10.44z"/>
	
		<radialGradient id="hairhighlights_1_" cx="76.4952" cy="112.4614" r="12.5648" gradientTransform="matrix(1 0 0 -1 0 130)" gradientUnits="userSpaceOnUse">
		<stop  offset="0.5264" style="stop-color:#454140;stop-opacity:0"/>
		<stop  offset="1" style="stop-color:#454140"/>
	</radialGradient>
	<path id="hairhighlights" style="fill:url(#hairhighlights_1_);" d="M87.27,10.44c-2.33-2.83-6.11-4.64-10.13-4.83
		c-3.49-0.17-8.28,0.69-11.22,3.6c-1.77,1.75-2.82,4.05-2.53,6.6c0.17,1.54,1.44,2.32,1.44,2.32s1.45-3.5,5.02-2.61
		c3.75,0.93,5.38,0.17,5.38,0.17c-1.26,2.98-0.15,4.61,0.83,5.54c0.56,0.53,1.08,1.16,1.37,1.53c0.15,0.19,0.28,0.18,0.34-0.02
		c0.15-0.48,0.42-1.35,0.63-1.75c0.69-1.37,1.81-0.88,1.81-0.88c1.51,0.53,2.05,3.64-0.43,5.47c-0.06,0.04-0.23,0.16-0.13,0.47
		c0.98,3.15,4.24,3.54,4.46,3.43c0,0,0.01,0,0.01-0.01c0.02-0.01,0.04-0.02,0.05-0.03c0.5-0.23,0.79-0.64,0.88-1.22
		c0.31-2.09,1.7-2.98,2.35-3.89c0.76-1.05,1.62-2.24,2.11-5.53C89.98,15.68,89.2,12.8,87.27,10.44z"/>
</g>
<g id="cane">
	<g>
		
			<linearGradient id="SVGID_4_" gradientUnits="userSpaceOnUse" x1="52.4391" y1="40.7398" x2="31.491" y2="15.0242" gradientTransform="matrix(0.9991 0.0432 0.0432 -0.9991 3.7744 120.713)">
			<stop  offset="0.4697" style="stop-color:#E0E0E0"/>
			<stop  offset="0.9915" style="stop-color:#BDBDBD"/>
		</linearGradient>
		<polygon style="fill:url(#SVGID_4_);" points="23.68,121.23 21.55,119.19 57.34,81.65 67.22,71.39 69.35,73.42 54.03,89.42 		"/>
		
			<rect x="19.76" y="112.07" transform="matrix(0.69 -0.7239 0.7239 0.69 -73.2029 56.184)" style="fill:#FF3D00;" width="18.44" height="2.95"/>
		
			<linearGradient id="SVGID_5_" gradientUnits="userSpaceOnUse" x1="34.6211" y1="116.5502" x2="30.6055" y2="120.564" gradientTransform="matrix(0.9981 0.0607 -0.0607 0.9981 -3.057 0.3117)">
			<stop  offset="0.4697" style="stop-color:#E0E0E0"/>
			<stop  offset="0.9915" style="stop-color:#BDBDBD"/>
		</linearGradient>
		<circle style="fill:url(#SVGID_5_);" cx="21.81" cy="121.05" r="2.86"/>
	</g>
	<path style="fill:#636262;" d="M57.34,81.65l2.15,2.05l11.79-12.28c0.39-0.4,0.37-1.04-0.03-1.43l-0.68-0.65
		c-0.4-0.38-1.04-0.37-1.42,0.03L57.34,81.65z"/>
</g>
<g id="leg_x5F_right">
	<path style="fill:#646464;" d="M104.36,108.76l-14-15.97c-0.87-1-1.39-2.25-1.47-3.57l-1.37-22.35l-15.42,1.7l4.86,23.06
		c0.79,3.73,2.88,7.06,5.91,9.37l16.41,12.53L104.36,108.76z"/>
</g>
<g id="leg_x5F_left">
	<path style="fill:#7C7C7C;" d="M87.33,63.18l-17.49,1.6l-4.5,20.29c-0.83,3.74-1.12,7.59-0.85,11.42l1.63,23.12h6.64l2.94-24.9
		c0,0,4.98-13.26,5.14-13.33c3.26-1.54,7.38-3.89,7.38-9.64C88.22,70.92,87.33,63.18,87.33,63.18z"/>
</g>
<g id="shoe_x5F_left">
	<path style="fill:#4568AD;" d="M73.85,123.98c0.63,0,1.14-0.51,1.14-1.14l0-2.79c0-1.89-1.92-4.05-1.92-4.05h-6.94l-6.25,2.06
		c-1.51,0.59-2.51,2.05-2.53,3.68l0,1.26c0,0.55,0.44,1,1,1L73.85,123.98z"/>
</g>
<g id="shoe_x5F_right">
	<path style="fill:#325599;" d="M108.72,111.9c0.44-0.45,0.44-1.17,0-1.61l-1.97-1.97c-1.34-1.34-4.22-1.51-4.22-1.51l-4.91,4.91
		l-2.96,5.88c-0.65,1.49-0.33,3.23,0.81,4.39l0.89,0.89c0.39,0.39,1.02,0.39,1.41,0L108.72,111.9z"/>
</g>
<radialGradient id="SVGID_6_" cx="73.7035" cy="77.3572" r="21.1882" gradientTransform="matrix(1 0 0 -1 0 130)" gradientUnits="userSpaceOnUse">
	<stop  offset="0.3637" style="stop-color:#651FFF"/>
	<stop  offset="1" style="stop-color:#530EEB"/>
</radialGradient>
<path style="fill:url(#SVGID_6_);" d="M86.15,73.76h-13.9c-2.26,0-4.09-2.17-4.09-4.84l2.14-22.39c0.43-4.09,1.87-7.95,4.66-9.61
	c4.86-3.39,8.56-1.33,9.96,0.79c1,1.52,1.42,3.27,1.65,5.85l2.45,25.34C89.02,71.8,88.41,73.76,86.15,73.76z"/>
<g id="arm_2_">
	
		<linearGradient id="arm_1_" gradientUnits="userSpaceOnUse" x1="78.1824" y1="63.4697" x2="75.3916" y2="76.4929" gradientTransform="matrix(1 0 0 -1 0 130)">
		<stop  offset="0.5979" style="stop-color:#F9DDBD"/>
		<stop  offset="1" style="stop-color:#FFD29C"/>
	</linearGradient>
	<path id="arm" style="fill:url(#arm_1_);" d="M86.11,57.33l-1.8-9.96l-8,0.86l2.46,9.94l-9.36,9.69c-2.65,2.67,2.19,5.24,3.9,4.14
		l8.52-6.89C83.34,63.81,86.56,61.6,86.11,57.33z"/>
</g>
<g id="hand_1_">
	
		<linearGradient id="hand_2_" gradientUnits="userSpaceOnUse" x1="72.515" y1="61.3425" x2="64.1429" y2="53.9006" gradientTransform="matrix(1 0 0 -1 0 130)">
		<stop  offset="0.5979" style="stop-color:#F9DDBD"/>
		<stop  offset="1" style="stop-color:#FFD29C"/>
	</linearGradient>
	<path id="hand" style="fill:url(#hand_2_);" d="M70.57,68.37c0.16-0.12,0.24-0.34,0.18-0.55c-0.08-0.26-0.37-0.41-0.63-0.32
		c-0.02,0.01-2.85,0.93-4.49,1.58c-0.47,0.19-1.9,0.75-1.94,2.5c-0.03,1.33-0.04,3.58-0.04,3.58l2.31-2.4
		c-0.06,0.89-0.13,2.8-0.15,3.59c-0.04,1.33,0.98,1.86,2.35,1.12c2.06-1.11,3.26-1.39,4.19-2.88c0.29-0.48,0.78-3.59,0.96-4.24
		L70.57,68.37z"/>
</g>
<g id="arm_x5F_shirt">
	<path style="fill:#3615AF;" d="M75.64,53.35l10.84-1.97l-1.75-9.67c-0.54-2.98-3.39-4.96-6.37-4.42l-0.05,0.01
		c-2.98,0.54-4.96,3.39-4.42,6.37L75.64,53.35z"/>
</g>
<path id="cord_2_" style="fill:#504F4F;" d="M77.28,73.04c-1.11-3.09-4.96-6.54-8.13-6.25c-2.2,0-2.12,1.77-2.12,1.77l2.25-0.78
	c2.33-0.29,6.09,2.94,7.05,5.6c0.37,1.04,0.55,2.45-0.75,3.26c-0.18,0.11-0.36,0.13-0.56,0.06c-0.6-0.22-1.76-1.76-2.41-2.92
	c0,0-0.11,0.6-0.26,0.83C72.26,74.74,72,75.08,72,75.08c0.63,1.03,1.86,2.26,2.68,2.55c0.19,0.07,0.39,0.1,0.57,0.1
	c0.3,0,0.59-0.08,0.85-0.25C77.55,76.59,77.97,74.97,77.28,73.04z"/>
</svg>
