<?xml version="1.0" encoding="utf-8"?>
<!-- Generator: Adobe Illustrator 24.0.3, SVG Export Plug-In . SVG Version: 6.00 Build 0)  -->
<svg version="1.1" id="Layer_1" xmlns="http://www.w3.org/2000/svg" xmlns:xlink="http://www.w3.org/1999/xlink" x="0px" y="0px"
	 viewBox="0 0 128 128" style="enable-background:new 0 0 128 128;" xml:space="preserve">
<g>
	
		<linearGradient id="SVGID_1_" gradientUnits="userSpaceOnUse" x1="63.994" y1="119.4924" x2="63.994" y2="39.9295" gradientTransform="matrix(1 0 0 -1 0 128)">
		<stop  offset="3.200000e-03" style="stop-color:#424242"/>
		<stop  offset="0.2705" style="stop-color:#353535"/>
		<stop  offset="0.7639" style="stop-color:#131313"/>
		<stop  offset="1" style="stop-color:#000000"/>
	</linearGradient>
	<path style="fill:url(#SVGID_1_);" d="M119.99,88h-112c-2.21,0-4-1.79-4-4V12c0-2.21,1.79-4,4-4h112c2.21,0,4,1.79,4,4v72
		C123.99,86.21,122.2,88,119.99,88z"/>
</g>
<linearGradient id="SVGID_2_" gradientUnits="userSpaceOnUse" x1="63.994" y1="119.4924" x2="63.994" y2="39.9295" gradientTransform="matrix(1 0 0 -1 0 128)">
	<stop  offset="1.200000e-03" style="stop-color:#BFBEBE"/>
	<stop  offset="0.15" style="stop-color:#212121;stop-opacity:0"/>
	<stop  offset="0.7759" style="stop-color:#212121;stop-opacity:0"/>
	<stop  offset="1" style="stop-color:#BFBEBE"/>
</linearGradient>
<path style="opacity:0.3;fill:url(#SVGID_2_);enable-background:new    ;" d="M119.99,88h-112c-2.21,0-4-1.79-4-4V12
	c0-2.21,1.79-4,4-4h112c2.21,0,4,1.79,4,4v72C123.99,86.21,122.2,88,119.99,88z"/>
<linearGradient id="SVGID_3_" gradientUnits="userSpaceOnUse" x1="4.7706" y1="80.002" x2="124.1151" y2="80.002" gradientTransform="matrix(1 0 0 -1 0 128)">
	<stop  offset="1.200000e-03" style="stop-color:#BFBEBE"/>
	<stop  offset="0.1" style="stop-color:#212121;stop-opacity:0"/>
	<stop  offset="0.9" style="stop-color:#212121;stop-opacity:0"/>
	<stop  offset="1" style="stop-color:#BFBEBE"/>
</linearGradient>
<path style="opacity:0.3;fill:url(#SVGID_3_);enable-background:new    ;" d="M120.01,88h-112c-2.21,0-4-1.79-4-4V12
	c0-2.21,1.79-4,4-4h112c2.21,0,4,1.79,4,4v72C124.01,86.21,122.21,88,120.01,88z"/>
<g>
	<rect x="11.99" y="16" style="fill:#76FF03;" width="24" height="4"/>
	<rect x="85.99" y="16" style="fill:#76FF03;" width="16" height="4"/>
	<rect x="107.99" y="16" style="fill:#76FF03;" width="8" height="4"/>
	<rect x="19.99" y="28" style="fill:#76FF03;" width="8" height="4"/>
	<rect x="11.99" y="40" style="fill:#76FF03;" width="16" height="4"/>
	<rect x="11.99" y="52" style="fill:#76FF03;" width="8" height="4"/>
	<rect x="97.99" y="52" style="fill:#76FF03;" width="12" height="4"/>
	<rect x="103.99" y="40" style="fill:#76FF03;" width="12" height="4"/>
	<rect x="11.99" y="64" style="fill:#76FF03;" width="16" height="4"/>
	<rect x="95.99" y="64" style="fill:#76FF03;" width="20" height="4"/>
	<rect x="99.99" y="28" style="fill:#76FF03;" width="12" height="4"/>
</g>
<g id="sleeve_1_">
	
		<linearGradient id="SVGID_4_" gradientUnits="userSpaceOnUse" x1="5.619" y1="9.827" x2="22.461" y2="9.827" gradientTransform="matrix(1 0 0 -1 0 128)">
		<stop  offset="0" style="stop-color:#AA00FF"/>
		<stop  offset="0.9874" style="stop-color:#9500E0"/>
	</linearGradient>
	<path style="fill:url(#SVGID_4_);" d="M7.63,123.98h12.83c1.12-0.09,2.01-1.18,2.01-2.52v-0.65c0-3.58-1.61-6.71-4.02-8.45
		c0,0.15,0.01,0.3,0.01,0.45c0,4.1-1.98,7.42-4.41,7.42s-4.41-3.32-4.41-7.42c0-0.15,0.01-0.3,0.01-0.45
		c-2.41,1.75-4.02,4.87-4.02,8.45v0.65C5.62,122.81,6.51,123.89,7.63,123.98z"/>
	<path style="fill:#7600B3;" d="M14.04,120.24c9,0,4.41-3.32,4.41-7.42c0-0.15-0.01-0.3-0.01-0.45c-1.28-0.93-2.79-1.48-4.4-1.48
		s-3.12,0.55-4.4,1.48c-0.01,0.15-0.01,0.3-0.01,0.45C9.62,116.92,5,120.24,14.04,120.24z"/>
</g>
<g id="hand_3_">
	
		<linearGradient id="SVGID_5_" gradientUnits="userSpaceOnUse" x1="20.4217" y1="15.0852" x2="10.7409" y2="28.8618" gradientTransform="matrix(1 0 0 -1 0 128)">
		<stop  offset="0" style="stop-color:#CCA47A"/>
		<stop  offset="0.5" style="stop-color:#E0BB95"/>
	</linearGradient>
	<path style="fill:url(#SVGID_5_);" d="M27.98,106.79c-0.11-2.84-2.23-8.7-5-9.19c-0.17-0.03-0.32-0.11-0.41-0.25
		c-0.44-0.67-1.85-2.47-4.43-1.05c-0.96,0.53-1.3,1-1.14,1.68c-0.12,0.14-0.34,0.31-0.66,0.18c-1.04-1.16-2.32-1.4-3.81-0.24
		c-1.69,1.32-1.69,2.26-1.39,3.19l-0.01,0.01c0,0-0.07,0.65-0.56,0.6c-0.51-0.44-1.12-0.44-2.09,0.26c-2.6,1.88-1.53,3.66-1.09,4.71
		c-0.06,0.1-0.16,0.17-0.32,0.16c-0.34-0.18-0.77-0.18-1.35,0.15c-1.38,0.79-1.18,3.39-0.79,4.24c0.43,0.93,2.8,4.19,3.61,5.11
		c0.19,0.21,0.42,0.36,0.67,0.46c-0.03-0.01-0.06-0.02-0.08-0.03c0.71,0.44,1.95,0.97,3.16,0.22c0,0,0.77-0.56,0.84-1.15
		c1.31,0.73,3.12-0.63,3.12-0.63c0.85-0.65,1.07-1.38,1.04-2.01l0,0c0.43,0.26,0.9,0.36,1.35,0.37c1.36,0.04,2.61-0.76,2.61-0.76
		c1.95-1.11,2.34-2.27,2.33-3.04c1.01,0.63,2.26,0.16,2.26,0.16C28.05,108.94,27.98,106.79,27.98,106.79z"/>
</g>
<linearGradient id="SVGID_6_" gradientUnits="userSpaceOnUse" x1="99.1973" y1="9.1543" x2="120.7934" y2="9.1543" gradientTransform="matrix(1 0 0 -1 0 128)">
	<stop  offset="0" style="stop-color:#AA00FF"/>
	<stop  offset="0.9874" style="stop-color:#9500E0"/>
</linearGradient>
<path style="fill:url(#SVGID_6_);" d="M107.95,123.98h12.84c0,0,0.56-9.79-15.16-10.26C89.91,113.26,107.95,123.98,107.95,123.98z"
	/>
<g id="hand_2_">
	
		<linearGradient id="SVGID_7_" gradientUnits="userSpaceOnUse" x1="141.6284" y1="10.2423" x2="131.9475" y2="24.0188" gradientTransform="matrix(-1 0 0 -1 248.6394 128)">
		<stop  offset="0" style="stop-color:#CCA47A"/>
		<stop  offset="0.5" style="stop-color:#E0BB95"/>
	</linearGradient>
	<path style="fill:url(#SVGID_7_);" d="M99.46,111.64c0.11-2.84,2.23-8.7,5-9.19c0.17-0.03,0.32-0.11,0.41-0.25
		c0.44-0.67,1.85-2.47,4.43-1.05c0.96,0.53,1.3,1,1.14,1.68c0.12,0.14,0.34,0.31,0.66,0.18c1.04-1.16,2.32-1.4,3.81-0.24
		c1.69,1.32,1.69,2.26,1.39,3.19l0.01,0.01c0,0,0.07,0.65,0.56,0.6c0.51-0.44,1.12-0.44,2.09,0.26c2.6,1.88,1.53,3.66,1.09,4.71
		c0.06,0.1,0.15,0.17,0.32,0.16c0.34-0.18,0.77-0.18,1.35,0.15c1.38,0.79,1.18,3.39,0.79,4.24c-0.43,0.93-2.79,4.19-3.61,5.11
		c-0.19,0.21-0.42,0.36-0.67,0.46c0.03-0.01,0.06-0.02,0.08-0.03c-0.71,0.44-1.95,0.97-3.16,0.22c0,0-0.77-0.56-0.84-1.15
		c-1.31,0.73-3.12-0.63-3.12-0.63c-0.85-0.65-1.07-1.38-1.04-2.01l0,0c-0.43,0.26-0.9,0.36-1.35,0.37
		c-1.36,0.04-2.61-0.76-2.61-0.76c-1.95-1.11-2.34-2.27-2.33-3.04c-1.01,0.63-2.26,0.16-2.26,0.16
		C99.39,113.79,99.46,111.64,99.46,111.64z"/>
</g>
<path id="tone_1_" style="fill:#BA8F63;" d="M116.23,121.55c-0.17-0.09-0.33-0.19-0.48-0.32c-0.02-0.02-0.05-0.04-0.07-0.07
	c-0.28-0.31-0.36-0.81,0.37-1.81c2-2.65,2.79-4.63,2.79-4.63c0.55-1.39,0.35-1.62,0.35-1.62c-0.19-0.31-0.58,0.59-0.58,0.59
	c-1.98,3.57-3.34,5.13-3.93,5.71c-0.03,0.02-0.06,0.04-0.09,0.05c-0.11,0.07-0.23,0.14-0.36,0.19c-0.05,0.02-0.11,0.04-0.16,0.06
	c-0.11,0.04-0.23,0.06-0.35,0.08c-0.06,0.01-0.12,0.02-0.19,0.02c-0.13,0-0.26-0.01-0.4-0.04c-0.06-0.01-0.12-0.01-0.18-0.03
	c-0.2-0.06-0.41-0.13-0.62-0.26c-0.1-0.06-0.19-0.12-0.28-0.19c-0.04-0.04-0.09-0.08-0.13-0.12c-0.04-0.04-0.09-0.08-0.13-0.12
	c-0.05-0.06-0.1-0.13-0.15-0.19c-0.02-0.03-0.05-0.06-0.07-0.1c-0.05-0.08-0.09-0.16-0.13-0.25c-0.01-0.03-0.03-0.06-0.04-0.09
	c-0.04-0.09-0.06-0.19-0.08-0.29c-0.01-0.03-0.02-0.06-0.03-0.09c-0.02-0.1-0.02-0.21-0.03-0.31c0-0.04-0.01-0.07-0.01-0.1
	c0-0.11,0.02-0.22,0.04-0.33c0.01-0.04,0.01-0.08,0.02-0.13c0.02-0.11,0.07-0.22,0.11-0.34c0.02-0.05,0.03-0.1,0.05-0.14
	c2.28-3.22,3.46-6.03,3.46-6.03c0.38-0.78,0.52-1.6,0.52-1.6c-0.25-0.46-0.65,0.21-0.65,0.21c-2.6,4.84-4.14,6.78-4.14,6.78
	s-1.21,2.11-3.86,0.53c0,0-1.31-0.84-1.53-1.43c-0.19-0.49-0.31-1.36,0.36-2.6c0,0,1.59-3.25,4.21-7.34c0,0,0.17-0.64-0.42-0.28
	c-0.46,0.28-0.79,0.86-0.95,1.04c0,0-1.55,2.07-3.8,6.2c0,0-0.5,0.95-1.08,1.42c-0.57,0.24-1.29,0.15-2.08-0.44
	c-1.71-1.28-1.07-3.07-0.12-4.91c0.52-1,1.71-3.25,2.84-5.05c0.11-0.04,0.22-0.08,0.33-0.1c0.36-0.06,0.65-0.25,0.83-0.53
	c0.9-1.37,0.19-2.61-1.07-0.7c-3.16,0.54-5.4,6.72-5.51,9.77c0,0,0,0,0,0c0,0.11-0.05,2.59,2.51,3.73c0.08,0.03,1.01,0.37,2.01,0.14
	c0.25,0.83,0.93,1.8,2.52,2.71c0.03,0.02,1.42,0.87,2.94,0.85c0.28-0.01,0.56-0.04,0.82-0.11c0.16,0.52,0.5,1.09,1.18,1.61
	c0.08,0.06,1.64,1.23,3.14,0.93c0.29,0.46,0.71,0.78,0.82,0.86c0.46,0.29,0.95,0.44,1.45,0.48h0.45c0.64-0.04,1.31-0.26,1.97-0.67
	c0.01,0,0.01-0.01,0.02-0.01c1.55-1.06,3.78-5.49,3.78-5.94C122.43,116.2,119.06,122.04,116.23,121.55z"/>
<path id="tone" style="fill:#BA8F63;" d="M28.43,106.24C28.43,106.24,28.43,106.24,28.43,106.24c-0.12-3.05-2.36-9.23-5.51-9.77
	c-1.25-1.91-1.97-0.67-1.07,0.7c0.18,0.28,0.48,0.46,0.83,0.53c0.11,0.02,0.22,0.06,0.33,0.1c1.13,1.8,2.32,4.06,2.84,5.05
	c0.95,1.83,1.58,3.62-0.12,4.91c-0.79,0.59-1.5,0.68-2.08,0.44c-0.57-0.47-1.08-1.42-1.08-1.42c-2.25-4.13-3.8-6.2-3.8-6.2
	c-0.16-0.18-0.48-0.75-0.95-1.04c-0.59-0.36-0.42,0.28-0.42,0.28c2.62,4.08,4.21,7.34,4.21,7.34c0.68,1.24,0.56,2.11,0.36,2.6
	c-0.22,0.59-1.53,1.43-1.53,1.43c-2.64,1.58-3.86-0.53-3.86-0.53s-1.55-1.94-4.14-6.78c0,0-0.41-0.67-0.65-0.21
	c0,0,0.14,0.82,0.52,1.6c0,0,1.18,2.8,3.46,6.03c0.02,0.05,0.03,0.1,0.05,0.14c0.04,0.11,0.08,0.23,0.11,0.34
	c0.01,0.04,0.01,0.08,0.02,0.13c0.02,0.11,0.04,0.22,0.04,0.33c0,0.04-0.01,0.07-0.01,0.1c0,0.11-0.01,0.21-0.03,0.31
	c-0.01,0.03-0.02,0.06-0.02,0.09c-0.02,0.1-0.05,0.2-0.09,0.29c-0.01,0.03-0.03,0.06-0.04,0.09c-0.04,0.08-0.08,0.17-0.13,0.25
	c-0.02,0.03-0.05,0.06-0.07,0.1c-0.05,0.07-0.1,0.13-0.15,0.19c-0.04,0.04-0.09,0.08-0.13,0.12c-0.04,0.04-0.08,0.08-0.13,0.12
	c-0.09,0.07-0.19,0.14-0.28,0.19c-0.22,0.12-0.43,0.21-0.62,0.26c-0.06,0.02-0.12,0.02-0.19,0.03c-0.14,0.02-0.27,0.04-0.4,0.04
	c-0.06,0-0.13-0.01-0.19-0.02c-0.12-0.02-0.24-0.04-0.35-0.08c-0.05-0.02-0.11-0.04-0.16-0.06c-0.12-0.05-0.24-0.12-0.36-0.19
	c-0.03-0.02-0.06-0.03-0.09-0.05c-0.59-0.58-1.95-2.14-3.93-5.71c0,0-0.39-0.9-0.58-0.59c0,0-0.2,0.24,0.35,1.62
	c0,0,0.79,1.98,2.79,4.63c0.73,1,0.65,1.5,0.37,1.81c-0.02,0.02-0.05,0.04-0.07,0.07c-0.14,0.13-0.31,0.23-0.48,0.32
	c-2.83,0.49-6.2-5.36-6.2-5.36c0,0.46,2.23,4.89,3.78,5.94c0.01,0,0.01,0.01,0.02,0.01c0.66,0.41,1.32,0.63,1.97,0.67h0.45
	c0.51-0.04,1-0.19,1.45-0.48c0.11-0.08,0.53-0.41,0.82-0.86c1.5,0.3,3.07-0.87,3.14-0.93c0.68-0.52,1.02-1.09,1.18-1.61
	c0.26,0.07,0.53,0.11,0.82,0.11c1.52,0.03,2.91-0.83,2.94-0.85c1.59-0.9,2.27-1.88,2.52-2.71c1,0.22,1.93-0.11,2.01-0.14
	C28.48,108.83,28.43,106.34,28.43,106.24z"/>
<g id="hairGroup_1_">
	<path id="hair_10_" style="fill:#AB872F;" d="M64.57,2.87c-41.01,0-40.68,37.92-40.68,38.52c0,24.56,1.88,59.25,11.71,72.9
		c3.9,5.41,11.43,5.71,11.43,5.71L64,119.98L80.97,120c0,0,7.54-0.3,11.43-5.71c9.83-13.65,11.71-48.34,11.71-72.9
		C104.1,40.79,105.58,2.87,64.57,2.87z"/>
	
		<radialGradient id="hairHighlights_2_" cx="64.0002" cy="69.5615" r="47.5315" gradientTransform="matrix(1 0 0 -1.1901 0 141.2215)" gradientUnits="userSpaceOnUse">
		<stop  offset="0.7936" style="stop-color:#BFA055;stop-opacity:0"/>
		<stop  offset="1" style="stop-color:#BFA055"/>
	</radialGradient>
	<path id="hairHighlights_1_" style="fill:url(#hairHighlights_2_);" d="M64.57,2.87c-41.01,0-40.68,37.92-40.68,38.52
		c0,24.56,1.88,59.25,11.71,72.9c3.9,5.41,11.43,5.71,11.43,5.71L64,119.98L80.97,120c0,0,7.54-0.3,11.43-5.71
		c9.83-13.65,11.71-48.34,11.71-72.9C104.1,40.79,105.58,2.87,64.57,2.87z"/>
</g>
<g id="face">
	<path id="head" style="fill:#E0BB95;" d="M63.99,15.95c-17.2,0-33.13,12.79-33.13,39.91c0,21.79,13.49,34.67,25.23,38.83
		c2.8,0.99,5.5,1.49,7.9,1.49c2.38,0,5.07-0.49,7.85-1.47c11.76-4.14,25.28-17.03,25.28-38.84C97.12,28.73,81.19,15.95,63.99,15.95z
		"/>
	<path id="nose_1_" style="fill:#C48E6A;" d="M67.8,67.96c-0.1-0.04-0.21-0.07-0.32-0.08h-6.99c-0.11,0.01-0.21,0.04-0.32,0.08
		c-0.63,0.26-0.98,0.91-0.68,1.61s1.69,2.66,4.49,2.66c2.8,0,4.19-1.96,4.49-2.66C68.78,68.87,68.44,68.22,67.8,67.96z"/>
	<g id="eyes_1_">
		<ellipse style="fill:#5D4037;" cx="47.74" cy="58.78" rx="4.87" ry="5.04"/>
		<ellipse style="fill:#5D4037;" cx="80.24" cy="58.78" rx="4.87" ry="5.04"/>
	</g>
	<g id="eyebrows_1_">
		<path style="fill:#AB872F;" d="M54.97,49.72c-0.93-1.23-3.07-3.01-7.23-3.01s-6.31,1.79-7.23,3.01c-0.41,0.54-0.31,1.17-0.02,1.55
			c0.26,0.35,1.04,0.68,1.9,0.39s2.54-1.16,5.35-1.18c2.81,0.02,4.49,0.89,5.35,1.18s1.64-0.03,1.9-0.39
			C55.28,50.89,55.38,50.27,54.97,49.72z"/>
		<path style="fill:#AB872F;" d="M87.47,49.72c-0.93-1.23-3.07-3.01-7.23-3.01s-6.31,1.79-7.23,3.01c-0.41,0.54-0.31,1.17-0.02,1.55
			c0.26,0.35,1.04,0.68,1.9,0.39s2.54-1.16,5.35-1.18c2.81,0.02,4.49,0.89,5.35,1.18s1.64-0.03,1.9-0.39
			C87.78,50.89,87.88,50.27,87.47,49.72z"/>
	</g>
</g>
<g id="computerscreen">
	<g>
		
			<linearGradient id="SVGID_8_" gradientUnits="userSpaceOnUse" x1="63.994" y1="53.4767" x2="63.994" y2="-14.9365" gradientTransform="matrix(1 0 0 -1 0 128)">
			<stop  offset="0" style="stop-color:#4DD0E1"/>
			<stop  offset="1" style="stop-color:#00BCD4"/>
		</linearGradient>
		<path style="fill:url(#SVGID_8_);" d="M109.99,123.98V81.17c0-3.58-2.92-6.5-6.5-6.5h-79c-3.58,0-6.5,2.92-6.5,6.5v42.82H109.99z"
			/>
	</g>
	
		<linearGradient id="SVGID_9_" gradientUnits="userSpaceOnUse" x1="63.9935" y1="35.4064" x2="63.9935" y2="-3.8718" gradientTransform="matrix(1 0 0 -1 0 128)">
		<stop  offset="0" style="stop-color:#00BCD4"/>
		<stop  offset="1" style="stop-color:#0097A7"/>
	</linearGradient>
	<path style="fill:url(#SVGID_9_);" d="M78.99,123.98c-0.61-1.93-1.41-4.11-2.09-6.43c-1.37-4.66-1.94-12.44-2.18-17.87
		c-0.15-3.43-2.99-6.14-6.45-6.14h-8.55c-3.46,0-6.3,2.7-6.45,6.14c-0.24,5.43-0.81,13.21-2.18,17.87c-0.68,2.32-1.47,4.5-2.09,6.43
		H78.99z"/>
</g>
<g id="hairGroup">
	<path id="hair_5_" style="fill:#AB872F;" d="M64.57,2.87c-41.01,0-40.68,37.92-40.68,38.52c0,7.76,0.19,16.53,0.75,25.32l6.72-0.02
		c-0.06-2.92,1.99-20.97,8.08-22.34c22.36-5.03,35.01-16.89,35.01-16.89c3.29,7.18,13.58,14.19,17.27,16.86
		c3.03,2.19,4.24,18.55,4.19,22.38h7.42c0-0.05,0.02-0.1,0.02-0.16c0.56-8.75,0.74-17.46,0.74-25.17
		C104.1,40.79,105.58,2.87,64.57,2.87z"/>
	
		<radialGradient id="hairHighlights_3_" cx="64.3333" cy="65.537" r="49.788" gradientTransform="matrix(1 0 0 -1.2135 0 141.9952)" gradientUnits="userSpaceOnUse">
		<stop  offset="0.7945" style="stop-color:#BFA055;stop-opacity:0"/>
		<stop  offset="1" style="stop-color:#BFA055"/>
	</radialGradient>
	<path id="hairHighlights" style="fill:url(#hairHighlights_3_);" d="M64.57,2.87c-41.01,0-40.68,37.92-40.68,38.52
		c0,7.76,0.19,16.53,0.75,25.32l6.72-0.02c-0.06-2.92,1.99-20.97,8.08-22.34c22.36-5.03,35.01-16.89,35.01-16.89
		c3.29,7.18,13.58,14.19,17.27,16.86c3.03,2.19,4.24,18.55,4.19,22.38h7.42c0-0.05,0.02-0.1,0.02-0.16
		c0.56-8.75,0.74-17.46,0.74-25.17C104.1,40.79,105.58,2.87,64.57,2.87z"/>
</g>
</svg>
