<?xml version="1.0" encoding="utf-8"?>
<!-- Generator: Adobe Illustrator 24.0.3, SVG Export Plug-In . SVG Version: 6.00 Build 0)  -->
<svg version="1.1" id="Layer_1" xmlns="http://www.w3.org/2000/svg" xmlns:xlink="http://www.w3.org/1999/xlink" x="0px" y="0px"
	 viewBox="0 0 128 128" style="enable-background:new 0 0 128 128;" xml:space="preserve">
<g id="shirt">
	
		<linearGradient id="SVGID_1_" gradientUnits="userSpaceOnUse" x1="64.005" y1="32.8998" x2="64.005" y2="5.0042" gradientTransform="matrix(1 0 0 -1 0 128)">
		<stop  offset="0" style="stop-color:#00BFA5"/>
		<stop  offset="0.7047" style="stop-color:#00B29A"/>
		<stop  offset="1" style="stop-color:#00AB94"/>
	</linearGradient>
	<path style="fill:url(#SVGID_1_);" d="M64.13,94.68H64c-25.49,0.03-51.13,7.5-51.13,25.28v4h1.5h1.5h96.27h1.5h1.5v-4
		C115.13,103.2,89.73,94.68,64.13,94.68z"/>
</g>
<path id="neck" style="fill:#E59600;" d="M73.08,90.08H54.92v9.98c0,4.51,3.7,8.17,8.26,8.17h1.65c4.56,0,8.26-3.66,8.26-8.17v-9.98
	H73.08z"/>
<g id="face">
	<path id="ears" style="fill:#E59600;" d="M36.67,72.26c-5.36,0-9.71-4.67-9.71-10.41s4.36-10.41,9.71-10.41h54.65
		c5.36,0,9.71,4.67,9.71,10.41s-4.36,10.41-9.71,10.41H36.67z"/>
	<path id="head" style="fill:#FFCA28;" d="M64,11.07c-24,0-33.52,16.09-33.52,42.43c0,26.64,16.61,41.77,33.52,41.77
		S97.52,80.14,97.52,53.5C97.52,26.72,88,11.07,64,11.07z"/>
	<g id="eyebrows_1_">
		<path style="fill:#6D4C41;" d="M39.82,50.73c3.18-4.51,10.66-4.66,14.41-0.82c0.65,0.67,1.34,1.53,0.85,2.5
			c-0.54,1.07-1.65,0.9-2.56,0.53c-2.43-0.98-4.94-1.42-7.55-0.89c-1.13,0.23-2.1,0.7-3.17,1.08
			C40.36,53.62,38.89,52.12,39.82,50.73z"/>
		<path style="fill:#6D4C41;" d="M86.27,53.13c-2.23-0.97-4.49-1.53-6.95-1.25c-1.12,0.13-2.22,0.42-3.26,0.83
			c-0.83,0.33-1.72,0.86-2.58,0.28c-2.45-1.69,1.89-4.44,3.17-4.99c2.76-1.19,6.05-1.08,8.72,0.31c1.06,0.55,2.21,1.35,2.84,2.4
			C89,52.02,87.82,53.76,86.27,53.13z"/>
	</g>
	<g id="eyes">
		<ellipse style="fill:#404040;" cx="47.37" cy="58.81" rx="4.93" ry="5.1"/>
		<ellipse style="fill:#404040;" cx="80.63" cy="58.81" rx="4.93" ry="5.1"/>
	</g>
	<path id="nose" style="fill:#E59600;" d="M67.85,68.06c-0.11-0.04-0.21-0.07-0.32-0.08h-7.07c-0.11,0.01-0.22,0.04-0.32,0.08
		c-0.64,0.26-0.99,0.92-0.69,1.63s1.71,2.69,4.55,2.69c2.84,0,4.25-1.99,4.55-2.69C68.84,68.98,68.49,68.32,67.85,68.06z"/>
	<path id="mouth" style="fill:#795548;" d="M72.42,76.14c-3.19,1.89-13.63,1.89-16.81,0c-1.83-1.09-3.7,0.58-2.94,2.24
		c0.75,1.63,6.45,5.42,11.37,5.42s10.55-3.79,11.3-5.42C76.09,76.72,74.25,75.05,72.42,76.14z"/>
</g>
</svg>
