<?xml version="1.0" encoding="utf-8"?>
<!-- Generator: Adobe Illustrator 24.0.3, SVG Export Plug-In . SVG Version: 6.00 Build 0)  -->
<svg version="1.1" id="Layer_1" xmlns="http://www.w3.org/2000/svg" xmlns:xlink="http://www.w3.org/1999/xlink" x="0px" y="0px"
	 viewBox="0 0 128 128" style="enable-background:new 0 0 128 128;" xml:space="preserve">
<path id="hair_1_" style="fill:#232020;" d="M111.93,50.19c3.74-3.35,1.97-7.85-1.18-10.03c1.92-4.86,0.35-7.81-4.04-9.46
	c0.89-4.71-0.93-7.4-5.12-8.46c0.61-5.01-1.73-7.85-6.71-7.5c-0.45-4.87-3.17-7.01-7.81-5.65c-1.85-4.46-4.78-5.77-8.7-3.87
	c-2.62-3.32-5.94-3.49-9.1-0.69c0,0-1.64-2.63-5.26-2.63s-5.24,2.55-5.24,2.55c-3.16-2.8-6.5-2.54-9.12,0.77
	c-3.92-1.9-6.86-0.59-8.7,3.87c-4.64-1.36-7.36,0.78-7.81,5.65c-4.98-0.35-7.32,2.49-6.71,7.5c-4.19,1.06-6.02,3.74-5.12,8.46
	c-4.39,1.65-5.96,4.6-4.04,9.46c-3.15,2.18-4.91,6.68-1.18,10.03c-3.53,3.66-3.27,7.17,0.77,10.56c-2.15,3.59-1.24,6.75,2.74,9.47
	c-1.95,3.96-0.4,7.11,4.67,9.43c-1.05,2.81,0.51,8.35,7.16,8.51c0,0-0.6,7.58,8.92,6.27c0,0,1.43,6.01,9.84,4.06
	c0,0,4.9,6.93,13.78,7.12c0.02,0,0.03,0,0.05,0c0.02,0,0.03,0,0.05,0c8.88-0.19,13.78-7.12,13.78-7.12
	c8.41,1.95,9.84-4.06,9.84-4.06c9.53,1.3,8.92-6.27,8.92-6.27c6.64-0.16,8.21-5.7,7.15-8.51c5.07-2.32,6.62-5.47,4.67-9.43
	c3.98-2.73,4.89-5.89,2.74-9.47C115.2,57.37,115.46,53.85,111.93,50.19z"/>
<g id="shirt">
	
		<linearGradient id="SVGID_1_" gradientUnits="userSpaceOnUse" x1="64" y1="35.7586" x2="64" y2="7.9996" gradientTransform="matrix(1 0 0 -1 0 130)">
		<stop  offset="0" style="stop-color:#651FFF"/>
		<stop  offset="0.7047" style="stop-color:#5914F2"/>
		<stop  offset="1" style="stop-color:#530EEB"/>
	</linearGradient>
	<path style="fill:url(#SVGID_1_);" d="M114.39,119.89v4.07H13.61v-4.07c0-12.39,12.12-19.81,27.92-23.2
		c7.01-1.52,14.75-2.23,22.47-2.24h0.12c7.66,0,15.31,0.79,22.24,2.37C102.25,100.42,114.39,108.14,114.39,119.89z"/>
</g>
<path id="neck" style="fill:#3C2B24;" d="M72.89,90.08H55.1v9.98c0,4.51,3.62,8.17,8.09,8.17h1.62c4.46,0,8.09-3.66,8.09-8.17
	L72.89,90.08L72.89,90.08z"/>
<path id="head" style="fill:#70534A;" d="M64,16.69c-16.84,0-32.44,11.01-32.44,38.14c0,21.79,13.21,34.67,24.71,38.83
	c2.74,0.99,5.39,1.49,7.74,1.49c2.33,0,4.96-0.49,7.69-1.47c11.51-4.14,24.75-17.03,24.75-38.84C96.44,27.7,80.84,16.69,64,16.69z"
	/>
<g id="eyebrows">
	<path style="fill:#1A1717;" d="M54.99,49.82c-0.91-1.23-3.01-3.01-7.08-3.01s-6.18,1.79-7.08,3.01c-0.4,0.54-0.3,1.17-0.02,1.55
		c0.26,0.35,1.02,0.68,1.86,0.39s2.49-1.16,5.24-1.18c2.75,0.02,4.4,0.89,5.24,1.18s1.61-0.03,1.86-0.39
		C55.3,50.99,55.39,50.36,54.99,49.82z"/>
	<path style="fill:#1A1717;" d="M87.17,49.82c-0.91-1.23-3.01-3.01-7.08-3.01s-6.18,1.79-7.08,3.01c-0.4,0.54-0.3,1.17-0.02,1.55
		c0.25,0.35,1.02,0.68,1.86,0.39s2.49-1.16,5.24-1.18c2.75,0.02,4.4,0.89,5.24,1.18s1.61-0.03,1.86-0.39
		C87.46,50.99,87.57,50.36,87.17,49.82z"/>
</g>
<g id="eyes">
	<ellipse style="fill:#1A1717;" cx="47.91" cy="58.87" rx="4.77" ry="5.04"/>
	<ellipse style="fill:#1A1717;" cx="80.09" cy="58.87" rx="4.77" ry="5.04"/>
</g>
<path id="nose_6_" style="fill:#33251F;" d="M67.74,68.05c-0.1-0.04-0.21-0.07-0.31-0.08h-6.84c-0.11,0.01-0.21,0.04-0.31,0.08
	c-0.62,0.26-0.96,0.91-0.67,1.61s1.65,2.66,4.4,2.66c2.74,0,4.1-1.96,4.4-2.66C68.7,68.97,68.36,68.31,67.74,68.05z"/>
<path id="mouth_6_" style="fill:#1A1717;" d="M72.14,76.14c-3.08,1.87-13.18,1.87-16.26,0c-1.77-1.07-3.57,0.57-2.84,2.21
	c0.72,1.61,6.24,5.36,11,5.36c4.77,0,10.2-3.75,10.93-5.36C75.7,76.71,73.91,75.06,72.14,76.14z"/>
<path id="hair" style="fill:#232020;" d="M106.75,50.38c3.33-2.3,6.17-6.75-1.13-8.46c4.36-5.42,4.15-8.68-3.2-7.97
	c2.99-5.98,2-9.44-4.79-8.58c1.02-2.11,2.22-5.34,0.29-7s-5.94,0.17-5.94,0.17s0.56-5-1.41-6.39c-1.97-1.4-5.99,1.07-5.99,1.07
	s0.01-4.03-2.33-5.12c-2.34-1.09-4.62,2.21-4.62,2.21c-1.41-5.4-6.42-5.06-8.65-1.61c0,0-1.69-3.37-4.98-3.41
	c-3.28,0.04-4.89,3.39-4.89,3.39c-2.23-3.46-7.33-3.78-8.74,1.62c0,0-2.28-3.31-4.62-2.21c-2.34,1.09-2.33,5.12-2.33,5.12
	s-4.01-2.47-5.99-1.07c-1.97,1.4-1.41,6.39-1.41,6.39s-4.01-1.82-5.94-0.17s-0.73,4.89,0.29,7c-6.78-0.86-7.77,2.6-4.78,8.58
	c-7.35-0.71-7.55,2.55-3.2,7.97c-6.61,1.21-5.47,4.8-0.63,8.83c-0.06,0.04,0.83,4.06,1.81,6.06c1.81,3.66,7.52,10.18,7.52,10.18
	c1.46-1.49,2.55-3.85,2.73-5.43c0.31-2.69-0.37-5.42-0.37-5.42s4.55-3.39,2.58-9.35c2.74-0.35,5.06-2.78,5.29-5.53
	c0,0,1.83,1.55,5.03,1.72c2.68,0.14,5.04-1.4,6.42-3.52c0.96,0.55,2.07,0.87,3.25,0.87c2.97,0,5.48-1.97,6.37-4.7
	c1.23,1.5,3.07,2.45,5.14,2.45c0.87,0,2.53-0.33,3.29-0.64c0,0,0.38,3.47,5.28,4.07c4.7,0.57,6.79-4,6.79-4s0.5,5.42,8.31,6.79
	c0,0-0.98,1.84-0.22,4.56c0.43,1.54,3.26,3.46,3.26,3.46c-3.11,5.64,2.69,12.34,2.69,12.34C106.9,59.61,106.75,50.38,106.75,50.38z"
	/>
<radialGradient id="hairHighlights_1_" cx="63.798" cy="46.819" r="49.8363" gradientTransform="matrix(1 -1.897420e-03 1.897420e-03 1 -0.0955 0.1232)" gradientUnits="userSpaceOnUse">
	<stop  offset="0.7247" style="stop-color:#444140;stop-opacity:0"/>
	<stop  offset="1" style="stop-color:#444140"/>
</radialGradient>
<path id="hairHighlights" style="fill:url(#hairHighlights_1_);" d="M111.91,50.17c3.72-3.36,1.96-7.85-1.2-10.03
	c1.9-4.86,0.34-7.81-4.06-9.45c0.88-4.71-0.95-7.39-5.15-8.45c0.6-5-1.74-7.85-6.71-7.49c-0.47-4.86-3.18-6.99-7.83-5.63
	c-1.85-4.46-4.79-5.77-8.71-3.85c-2.63-3.31-5.95-3.48-9.1-0.67c0,0-1.65-2.64-5.27-2.63c-3.62,0.01-5.24,2.56-5.24,2.56
	c-3.18-2.79-6.5-2.53-9.12,0.8c-3.92-1.9-6.86-0.58-8.69,3.89c-4.65-1.35-7.36,0.79-7.8,5.65c-4.98-0.34-7.32,2.51-6.7,7.51
	c-4.19,1.08-6.01,3.76-5.11,8.47c-4.39,1.66-5.94,4.61-4.02,9.47c-3.15,2.19-4.9,6.69-1.16,10.03c-3.52,3.66-3.26,7.18,0.8,10.56
	c-2.15,3.59-1.24,6.74,2.75,9.46c-1.94,3.96-0.38,7.11,4.69,9.42c-1.04,2.82,0.53,8.35,7.17,8.51c0,0-0.59,7.57,8.94,6.25
	c0,0,0.26,1.08,1.2,2.18c4.3-0.94,8.88-1.58,13.57-1.94l0-1.58C44.13,88.72,32,76.32,31.59,55.85c-0.01-0.14,0-0.29-0.01-0.43
	c0-0.18-0.01-0.35-0.01-0.53c0,0,0-0.01,0-0.01c-0.01-0.33-0.02-0.66-0.02-0.99c-0.05-27.13,15.53-38.17,32.37-38.2
	c16.51-0.03,31.85,10.54,32.48,36.54c0.03,0.83,0.05,1.68,0.05,2.55C96.49,75.84,84.17,88.6,72.96,93.2l0,1.58
	c4.65,0.36,9.19,1.03,13.46,1.99c1.03-1.14,1.31-2.31,1.31-2.31c9.53,1.28,8.92-6.29,8.92-6.29c6.64-0.18,8.19-5.72,7.13-8.53
	c5.06-2.33,6.61-5.48,4.65-9.44c3.97-2.74,4.88-5.89,2.71-9.48C115.2,57.33,115.45,53.81,111.91,50.17z"/>
</svg>
