<?xml version="1.0" encoding="utf-8"?>
<!-- Generator: Adobe Illustrator 24.1.2, SVG Export Plug-In . SVG Version: 6.00 Build 0)  -->
<svg version="1.1" id="Layer_1" xmlns="http://www.w3.org/2000/svg" xmlns:xlink="http://www.w3.org/1999/xlink" x="0px" y="0px"
	 viewBox="0 0 128 128" style="enable-background:new 0 0 128 128;" xml:space="preserve">
<g>
	<g id="head_331_">
		<path style="fill:#BA8D68;" d="M102.27,34.74c-27.05,0-31.37,19.51-31.37,47.59c0,23.97,10.35,39.27,28.5,41.22
			c9.35,1,17.91-0.79,24.6-5.64V40.6C118.69,36.83,111.62,34.74,102.27,34.74z"/>
	</g>
	<g id="eyebrows_176_">
		<path style="fill:#613E31;" d="M72.9,77.19c3.34-4.73,11.18-4.89,15.1-0.86c0.68,0.7,1.4,1.61,0.89,2.62
			c-0.57,1.12-1.73,0.94-2.69,0.55c-2.55-1.03-5.17-1.49-7.91-0.93c-1.18,0.24-2.2,0.73-3.32,1.13
			C73.47,80.23,71.92,78.65,72.9,77.19z"/>
		<path style="fill:#613E31;" d="M120.13,79.71c-2.34-1.02-4.71-1.6-7.29-1.31c-1.17,0.13-2.32,0.44-3.42,0.87
			c-0.87,0.34-1.81,0.9-2.7,0.29c-2.57-1.77,1.99-4.65,3.32-5.23c2.9-1.25,6.35-1.14,9.15,0.32c1.11,0.58,2.32,1.42,2.98,2.52
			C122.99,78.54,121.75,80.37,120.13,79.71z"/>
	</g>
	<g id="eyes_173_">
		<path style="fill:#49362E;" d="M108.65,85.64c-0.67-0.79-1.07-0.16-1.2,0.36c-0.45,1.76,0.25,4.54,3.47,5.43
			c4.36,1.2,8.76-1.42,9.25-4.98c0.06-0.44-0.43-0.77-0.82-0.55c-1.31,0.72-2.93,2.23-6.3,1.88
			C109.77,87.45,109.37,86.49,108.65,85.64z"/>
		<path style="fill:#49362E;" d="M75.8,85.64c-0.67-0.79-1.07-0.16-1.2,0.36c-0.45,1.76,0.25,4.54,3.47,5.43
			c4.36,1.2,8.76-1.42,9.25-4.98c0.06-0.44-0.43-0.77-0.82-0.55c-1.31,0.72-2.93,2.23-6.3,1.88C76.92,87.45,76.52,86.49,75.8,85.64z
			"/>
	</g>
	<path id="mouth_95_" style="fill:#5D4037;" d="M91.65,114.85c-3.02,0.38-8.02-2.23-6.91-5.19c0.42-1.12,2.1-1.45,2.1-1.45
		s-2.76-3.12-1.34-4.76c1.91-2.21,5.07-0.59,7.43-1.27c0.48-0.14,0.99-0.36,1.46-0.2c-0.2,0.94-0.76,1.62-1.95,2.04
		c-1.34,0.47-2.8,0.2-3.54,0.83c-0.76,0.66-0.11,1.59,0.87,2.17c1.39,0.82,3.47,1.24,3.37,1.9c-0.11,0.72-2.49,0.8-3.02,0.95
		c-0.48,0.14-1.18,0.32-1.39,0.83c-0.38,0.89,0.93,1.85,1.6,2.25c0.74,0.44,2.61,0.93,2.68,0.99c0.14,0.12,0.11,0.37-0.02,0.51
		C92.86,114.6,91.94,114.81,91.65,114.85z"/>
	<path id="nose_180_" style="fill:#99674F;" d="M89.65,93.53c0.11-0.04,0.22-0.07,0.33-0.09h7.33c0.11,0.01,0.22,0.04,0.33,0.09
		c0.66,0.27,1.03,0.96,0.72,1.69c-0.31,0.73-1.77,2.79-4.71,2.79c-2.94,0-4.4-2.06-4.71-2.79C88.63,94.49,88.99,93.8,89.65,93.53z"
		/>
	<g id="hair_613_">
		<path id="hair_588_" style="fill:#543930;" d="M106.04,28.41L106.04,28.41c-0.01,0-0.01,0-0.02,0c-0.01,0-0.01,0-0.02,0v0
			c-47.64,0.25-37.88,54.66-37.88,54.66s0.61,3.94,1.53,5.65c1.1,2.06,1.85,2.81,1.92,1.64c0.07-1.16,0.01-19.44,1.85-24.35
			c1.09-2.89,4.08-4.56,7.12-4.02c7.58,1.35,9.78,1.28,14.5,1.32c8.41,0.07,18.46-0.98,23.13-1.83c2.2-0.4,4.38,0.39,5.82,1.94
			v-31.6C119.21,29.72,113.31,28.45,106.04,28.41z"/>
		
			<radialGradient id="hairHighlights_1_" cx="106.7042" cy="74.3587" r="39.6188" gradientTransform="matrix(0.9998 -0.0217 0.0243 1.1197 -1.7809 -6.5844)" gradientUnits="userSpaceOnUse">
			<stop  offset="0.6679" style="stop-color:#6D4C41;stop-opacity:0"/>
			<stop  offset="1" style="stop-color:#6D4C41"/>
		</radialGradient>
		<path id="hairHighlights_24_" style="fill:url(#hairHighlights_1_);" d="M106.04,28.41L106.04,28.41c-0.01,0-0.01,0-0.02,0
			c-0.01,0-0.01,0-0.02,0v0c-47.64,0.25-37.88,54.66-37.88,54.66s0.61,3.94,1.53,5.65c1.1,2.06,1.85,2.81,1.92,1.64
			c0.07-1.16,0.01-19.44,1.85-24.35c1.09-2.89,4.08-4.56,7.12-4.02c7.58,1.35,10.91,1.32,15.63,1.25
			c9.75-0.13,17.32-0.91,21.99-1.76c2.2-0.4,4.38,0.39,5.82,1.94v-31.6C119.21,29.72,113.31,28.45,106.04,28.41z"/>
	</g>
</g>
<g>
	<g id="head_340_">
		<path style="fill:#F9DDBD;" d="M25.73,34.74c27.05,0,31.37,19.51,31.37,47.59c0,23.97-10.35,39.27-28.5,41.22
			c-9.35,1-17.91-0.79-24.6-5.64V40.6C9.31,36.83,16.38,34.74,25.73,34.74z"/>
	</g>
	<g id="eyebrows_170_">
		<path style="fill:#454140;" d="M55.1,77.19c-3.34-4.73-11.18-4.89-15.1-0.86c-0.68,0.7-1.4,1.61-0.89,2.62
			c0.57,1.12,1.73,0.94,2.69,0.55c2.55-1.03,5.17-1.49,7.91-0.93c1.18,0.24,2.2,0.73,3.32,1.13C54.53,80.23,56.08,78.65,55.1,77.19z
			"/>
		<path style="fill:#454140;" d="M7.87,79.71c2.34-1.02,4.71-1.6,7.29-1.31c1.17,0.13,2.32,0.44,3.42,0.87
			c0.87,0.34,1.81,0.9,2.7,0.29c2.57-1.77-1.99-4.65-3.32-5.23c-2.9-1.25-6.35-1.14-9.15,0.32c-1.11,0.58-2.32,1.42-2.98,2.52
			C5.01,78.54,6.25,80.37,7.87,79.71z"/>
	</g>
	<g id="eyes_167_">
		<path style="fill:#312D2D;" d="M19.35,85.64c0.67-0.79,1.07-0.16,1.2,0.36c0.45,1.76-0.25,4.54-3.47,5.43
			c-4.36,1.2-8.76-1.42-9.25-4.98c-0.06-0.44,0.43-0.77,0.82-0.55c1.31,0.72,2.93,2.23,6.3,1.88
			C18.23,87.45,18.63,86.49,19.35,85.64z"/>
		<path style="fill:#312D2D;" d="M52.2,85.64c0.67-0.79,1.07-0.16,1.2,0.36c0.45,1.76-0.25,4.54-3.47,5.43
			c-4.36,1.2-8.76-1.42-9.25-4.98c-0.06-0.44,0.43-0.77,0.82-0.55c1.31,0.72,2.93,2.23,6.3,1.88C51.08,87.45,51.48,86.49,52.2,85.64
			z"/>
	</g>
	<path id="mouth_99_" style="fill:#444444;" d="M36.35,114.85c3.02,0.38,8.02-2.23,6.91-5.19c-0.42-1.12-2.1-1.45-2.1-1.45
		s2.76-3.12,1.34-4.76c-1.91-2.21-5.07-0.59-7.43-1.27c-0.48-0.14-0.99-0.36-1.46-0.2c0.2,0.94,0.76,1.62,1.95,2.04
		c1.34,0.47,2.8,0.2,3.54,0.83c0.76,0.66,0.11,1.59-0.87,2.17c-1.39,0.82-3.47,1.24-3.37,1.9c0.11,0.72,2.49,0.8,3.02,0.95
		c0.48,0.14,1.18,0.32,1.39,0.83c0.38,0.89-0.93,1.85-1.6,2.25c-0.74,0.44-2.61,0.93-2.68,0.99c-0.14,0.12-0.11,0.37,0.02,0.51
		C35.14,114.6,36.06,114.81,36.35,114.85z"/>
	<path id="nose_169_" style="fill:#DBA689;" d="M38.35,93.53c-0.11-0.04-0.22-0.07-0.33-0.09h-7.33c-0.11,0.01-0.22,0.04-0.33,0.09
		c-0.66,0.27-1.03,0.96-0.72,1.69c0.31,0.73,1.77,2.79,4.71,2.79c2.94,0,4.4-2.06,4.71-2.79C39.37,94.49,39.01,93.8,38.35,93.53z"/>
	<g id="hair_586_">
		<path id="hair_587_" style="fill:#312D2D;" d="M21.96,28.41L21.96,28.41c0.01,0,0.01,0,0.02,0c0.01,0,0.01,0,0.02,0v0
			c47.64,0.25,37.88,54.66,37.88,54.66s-0.61,3.94-1.53,5.65c-1.1,2.06-1.85,2.81-1.92,1.64c-0.07-1.16-0.01-19.44-1.85-24.35
			c-1.09-2.89-4.08-4.56-7.12-4.02c-7.58,1.35-9.78,1.28-14.5,1.32c-8.41,0.07-18.46-0.98-23.13-1.83c-2.2-0.4-4.38,0.39-5.82,1.94
			v-31.6C8.79,29.72,14.69,28.45,21.96,28.41z"/>
		
			<radialGradient id="hairHighlights_2_" cx="1218.2842" cy="71.2396" r="38.0829" gradientTransform="matrix(-0.9998 -0.0217 -0.0243 1.1197 1241.6937 17.8958)" gradientUnits="userSpaceOnUse">
			<stop  offset="0.6679" style="stop-color:#454140;stop-opacity:0"/>
			<stop  offset="1" style="stop-color:#454140"/>
		</radialGradient>
		<path id="hairHighlights_25_" style="fill:url(#hairHighlights_2_);" d="M21.96,28.41L21.96,28.41c0.01,0,0.01,0,0.02,0
			c0.01,0,0.01,0,0.02,0v0c47.64,0.25,37.88,54.66,37.88,54.66s-0.61,3.94-1.53,5.65c-1.1,2.06-1.85,2.81-1.92,1.64
			c-0.07-1.16-0.01-19.44-1.85-24.35c-1.09-2.89-4.08-4.56-7.12-4.02c-7.58,1.35-10.91,1.32-15.63,1.25
			c-9.75-0.13-17.32-0.91-21.99-1.76c-2.2-0.4-4.38,0.39-5.82,1.94v-31.6C8.79,29.72,14.69,28.45,21.96,28.41z"/>
	</g>
</g>
<g>
	<path style="fill:#EF5592;" d="M78.41,3.74C67.87,3.74,64,14.5,64,14.5S60.18,3.74,49.57,3.74c-7.97,0-17.07,6.32-13.71,20.68
		c3.36,14.36,28.16,32.26,28.16,32.26s24.72-17.9,28.08-32.26C95.46,10.06,87.02,3.74,78.41,3.74z"/>
	<g>
		<path style="fill:#DA2E75;" d="M47.94,4.81c8.27,0,12.38,8.89,13.71,12.5c0.19,0.51,0.91,0.53,1.12,0.03l1.21-2.83
			c-1.71-5.45-6.4-10.77-14.41-10.77c-3.32,0-6.82,1.1-9.55,3.41C42.42,5.56,45.25,4.81,47.94,4.81z"/>
		<path style="fill:#DA2E75;" d="M78.41,3.74c-2.55,0-4.7,0.74-6.51,1.85c1.27-0.49,2.68-0.78,4.23-0.78
			c7.8,0,14.77,5.91,11.62,19.58c-2.7,11.73-18.5,25.96-23.32,31.39c-0.31,0.35-0.41,0.91-0.41,0.91s24.72-17.9,28.08-32.26
			C95.46,10.06,86.38,3.74,78.41,3.74z"/>
	</g>
	<g>
		<g>
			<g>
				<path style="fill:#F386AB;" d="M41.4,11.36c1.8-2.25,5.03-4.11,7.76-1.97c1.48,1.16,0.83,3.54-0.49,4.54
					c-1.93,1.46-3.6,2.34-4.77,4.63c-0.7,1.38-1.13,2.88-1.34,4.42c-0.08,0.61-0.88,0.75-1.18,0.22
					C39.34,19.6,38.77,14.65,41.4,11.36z"/>
			</g>
		</g>
	</g>
	<path style="fill:#F386AB;" d="M70.31,16.09c-0.85,0-1.44-0.82-1.13-1.61c0.57-1.45,1.31-2.86,2.2-4.11
		c1.32-1.85,3.82-2.92,5.41-1.81c1.63,1.15,1.42,3.43,0.27,4.54C74.61,15.49,71.53,16.09,70.31,16.09z"/>
</g>
</svg>
