<?xml version="1.0" encoding="utf-8"?>
<!-- Generator: Adobe Illustrator 24.0.3, SVG Export Plug-In . SVG Version: 6.00 Build 0)  -->
<svg version="1.1" id="Layer_1" xmlns="http://www.w3.org/2000/svg" xmlns:xlink="http://www.w3.org/1999/xlink" x="0px" y="0px"
	 viewBox="0 0 128 128" style="enable-background:new 0 0 128 128;" xml:space="preserve">
<path id="hair" style="fill:#AB872F;" d="M85.74,25.38c-0.06-0.36-2.51-21.33-24.33-21.33c-1.64,0-3.39,0.12-5.25,0.37
	C32.57,7.64,33.74,29.39,33.7,33.56s2.16,38.32,6.03,45.82c1.52,2.93,5.52,3.69,9.26,3.69c4.02,0,7.74-0.88,7.74-0.88l11.01-1.75
	l8.59-1.34c0,0,4.67-0.81,6.64-4.72C87.96,64.54,88.25,41.31,85.74,25.38z"/>
<radialGradient id="hairHighlights_2_" cx="61.0778" cy="85.5582" r="42.127" gradientTransform="matrix(-0.0618 -0.9981 -0.8116 0.0503 134.2949 99.0981)" gradientUnits="userSpaceOnUse">
	<stop  offset="0.7582" style="stop-color:#BFA055;stop-opacity:0"/>
	<stop  offset="1" style="stop-color:#BFA055"/>
</radialGradient>
<path id="hairHighlights_1_" style="fill:url(#hairHighlights_2_);" d="M85.74,25.38c-0.06-0.36-2.51-21.33-24.33-21.33
	c-1.64,0-3.39,0.12-5.25,0.37C32.57,7.64,33.74,29.39,33.7,33.56s2.16,38.32,6.03,45.82c1.52,2.93,5.52,3.69,9.26,3.69
	c4.02,0,7.74-0.88,7.74-0.88l11.01-1.75l8.59-1.34c0,0,4.67-0.81,6.64-4.72C87.96,64.54,88.25,41.31,85.74,25.38z"/>
<g id="shirt_1_">
	
		<linearGradient id="SVGID_1_" gradientUnits="userSpaceOnUse" x1="62.2498" y1="50.2931" x2="62.2498" y2="8.7108" gradientTransform="matrix(1 0 0 -1 0 128)">
		<stop  offset="0" style="stop-color:#651FFF"/>
		<stop  offset="1" style="stop-color:#530EEB"/>
	</linearGradient>
	<path style="fill:url(#SVGID_1_);" d="M101.26,123.96c-4.33,0-40.46,0.04-45.29,0.04s-8.11-0.39-9.62-0.67
		c-7.08-1.29-14.76-2.53-20.62-6.58c-4.48-3.09-9.13-8.83-4.49-18.98c6.47-14.92,12.14-29.64,25.4-31.52
		c4.44-0.63,10.97-0.56,18.3-0.56s12.16,1.21,15.22,1.88c21.85,4.79,22.77,21.98,24.77,40.68
		C104.93,108.25,106.64,123.96,101.26,123.96z"/>
</g>
<path id="neck" style="fill:#C48E6A;" d="M64.74,59.51h-7.17v7.88c0,3.56,2.92,6.45,6.52,6.45h1.3c3.6,0,6.52-2.89,6.52-6.45v-7.88
	L64.74,59.51z"/>
<path id="head" style="fill:#E0BB95;" d="M82.1,33.76C78.93,18.1,69,11.54,58.99,11.99c-1.14,0.05-2.28,0.19-3.42,0.42
	c-11.07,2.25-19.65,12.56-16.1,30.02c2.85,14.02,13.22,20.55,21.31,21.69c1.14,0.16,2.22,0.21,3.24,0.17
	c0.72-0.03,1.4-0.11,2.03-0.24c1.54-0.31,3.2-0.98,4.86-1.98C77.93,57.87,84.95,47.8,82.1,33.76z"/>
<g id="eyebrows_1_">
	<path style="fill:#AB872F;" d="M54.31,35.04c-0.73-0.7-2.3-1.64-5-1.22c-2.7,0.42-3.91,1.8-4.38,2.69
		c-0.21,0.39-0.08,0.79,0.14,1.01c0.21,0.2,0.74,0.33,1.27,0.06s1.53-1.01,3.35-1.31c1.83-0.27,3.01,0.12,3.59,0.22
		s1.06-0.19,1.19-0.44C54.63,35.77,54.63,35.35,54.31,35.04z"/>
	<path style="fill:#AB872F;" d="M75.39,31.73c-0.73-0.7-2.3-1.64-5-1.22c-2.7,0.42-3.91,1.8-4.38,2.69
		c-0.21,0.39-0.08,0.79,0.14,1.01c0.21,0.2,0.75,0.33,1.27,0.06s1.53-1.01,3.35-1.31c1.83-0.27,3.01,0.12,3.59,0.22
		c0.59,0.1,1.06-0.19,1.19-0.44C75.71,32.45,75.71,32.04,75.39,31.73z"/>
</g>
<path id="mouth_1_" style="fill:#6D4C41;" d="M68.24,50.35c-1.85,1.53-8.54,2.59-10.78,1.69c-1.28-0.51-2.31,0.74-1.66,1.73
	c0.64,0.97,4.68,2.83,7.83,2.33c3.16-0.5,6.38-3.49,6.69-4.62C70.66,50.35,69.31,49.47,68.24,50.35z"/>
<path id="nose_1_" style="fill:#C48E6A;" d="M64.29,44.27c-0.07-0.02-0.14-0.02-0.21-0.02l-4.53,0.71c-0.07,0.02-0.13,0.05-0.2,0.08
	c-0.38,0.23-0.54,0.69-0.28,1.12s1.37,1.55,3.19,1.27c1.82-0.29,2.52-1.7,2.64-2.19C65.02,44.76,64.73,44.37,64.29,44.27z"/>
<g id="eyes_1_">
	<path style="fill:#5D4037;" d="M50.61,42.6c-1.33,0.21-2.58,0.07-3.49-0.31c-0.39-0.17-0.58,0-0.45,0.4
		c0.5,1.57,2.33,2.56,4.31,2.25c1.98-0.31,3.42-1.81,3.41-3.46c0-0.42-0.23-0.53-0.55-0.25C53.09,41.87,51.95,42.38,50.61,42.6z"/>
	<path style="fill:#5D4037;" d="M71.77,39.27c-1.33,0.21-2.58,0.07-3.49-0.31c-0.39-0.17-0.58,0-0.45,0.4
		c0.5,1.57,2.33,2.56,4.31,2.25c1.98-0.31,3.42-1.81,3.41-3.46c0-0.42-0.23-0.52-0.55-0.25C74.25,38.54,73.11,39.06,71.77,39.27z"/>
</g>
<linearGradient id="shadow_x5F_body_1_" gradientUnits="userSpaceOnUse" x1="78.1582" y1="-17.5629" x2="78.1582" y2="54.2652" gradientTransform="matrix(1 0 0 -1 0 128)">
	<stop  offset="0" style="stop-color:#212121;stop-opacity:0.8"/>
	<stop  offset="1" style="stop-color:#212121;stop-opacity:0"/>
</linearGradient>
<path id="shadow_x5F_body" style="fill:url(#shadow_x5F_body_1_);" d="M101.73,109.32c-6.13-10.97-7.86-12.56-8.72-14.48
	c-1.43-3.21-2.86-4.48-3.93-4.94c-0.12-1.22-0.42-2.69-0.83-4.48c0.63-0.43,1.12-1.03,1.41-1.75c0.37-0.94,0.35-1.97-0.05-2.9
	l-3.12-7.15c-0.4-0.93-32.52,12.8-32.52,12.8c-1.05,1.75-1.45,3.29-0.13,6.17c0.77,1.68,2.53,3.04,2.9,2.88l3.01-1.14h0
	c0.42,0.62,1.02,1.1,1.74,1.38c0.28,0.11,1.41,0.41,2.9-0.05l7.83-3.33c0,0,0,0,0,0c1.08,1.59,2.7,1.77,3.76,1.68
	c0,0,0.84,2.53,3.08,3.65c-1.05,1.65,0.71,4.72,1.7,6.68c1.53,3.02-1.87,14.28-0.67,19.65l21.19,0.1
	C102.94,120.72,104.67,114.57,101.73,109.32z"/>
<g id="bottle_2_">
	
		<linearGradient id="SVGID_2_" gradientUnits="userSpaceOnUse" x1="82.942" y1="50.7802" x2="57.0318" y2="38.4093" gradientTransform="matrix(1 0 0 -1 0 128)">
		<stop  offset="0" style="stop-color:#81D4FA"/>
		<stop  offset="1" style="stop-color:#0288D1"/>
	</linearGradient>
	<path style="fill:url(#SVGID_2_);" d="M92.84,77.56l-3.12-7.15c-0.4-0.93-1.15-1.64-2.09-2.01c-0.94-0.37-1.97-0.35-2.9,0.05
		l-23.27,9.9c-1.91,0.83-2.79,3.07-1.96,4.98l3.12,7.15c0.4,0.93,1.15,1.64,2.09,2.01c0.28,0.11,0.56,0.18,0.85,0.23
		c0.69,0.1,1.39,0,2.05-0.28l23.27-9.9l0,0c0.93-0.4,1.64-1.15,2.01-2.09C93.27,79.51,93.25,78.49,92.84,77.56z"/>
	<path style="fill:#FFFDE7;" d="M60.72,78.79c-1.3,0.61-1.93,2.72-1.31,4.13l3.57,8.2c0.62,1.41,3.2,2.03,4.61,1.41l23.29-9.99
		L60.72,78.79z"/>
	<path style="fill:#C53929;" d="M57.72,85.15c0.48-0.13,1.11-0.07,1.4,0.32c0.33,0.45,0.56,1.16,0.8,1.68
		c0.41,0.9,0.68,1.84,0.66,2.83c0,0.11-0.01,0.24-0.1,0.32c-0.06,0.06-0.15,0.08-0.24,0.1c-0.54,0.11-1.1,0.15-1.65,0.13
		c-1.1-0.04-1.68-1.01-2.02-1.96c-0.21-0.6-0.31-1.24-0.19-1.86c0.13-0.62,0.51-1.2,1.07-1.48C57.54,85.21,57.62,85.18,57.72,85.15z
		"/>
	<path style="fill:#E06055;" d="M62.98,91.12l-1.1,0.48c-0.74,0.32-1.66,0.14-2.2-0.46c-0.52-0.58-0.48-1.37-0.59-2.12
		c-0.14-0.98-0.49-1.87-1.14-2.49c-0.19-0.18-0.42-0.33-0.6-0.52c-0.81-0.87-0.12-2.44,0.84-2.86c0,0,1.1-0.48,1.1-0.48
		c1.05-0.46,2.97,0.43,4.11,3.2C64.54,88.62,64.03,90.66,62.98,91.12z"/>
</g>
<g id="baby">
	<g>
		<path style="fill:#C5E1A5;" d="M55.01,93.21c-0.61,5.16-4.88,9.56-9.81,10.89c-5.22,1.42-11.79-1.59-15.02-6.11
			c-6.03-8.42,0.41-15.43,1.79-17c3.44-3.9,8.52-3.83,12.54-3.58C52.75,77.92,55.85,86.18,55.01,93.21z"/>
	</g>
	<path style="fill:#FEF6E0;" d="M43.17,75.79c-2.08,0.02-5.26,0.21-7.51,1.53c-1.01,0.6-1.33,1.64-1.33,1.64
		c2.7-1.03,5.43-1.22,8.81,0.02c6.35,2.33,7.42,7.71,6.88,14.47c-0.39,4.89-3.63,8.85-7.57,10.11c-1.84,0.59-1.68,1.48,0.72,1.65
		c8.65,0.6,14.71-6.59,14.71-14.71C57.88,82.38,52.46,75.7,43.17,75.79z"/>
	<g>
		<path style="fill:#BDBDBD;" d="M58.52,96.25c12.38,1.19,15.96,8.12,15.96,8.12c12.41,2.75,15.66,11,14.67,14.74
			c0,0-5.68,3.34-9.22,3.41c-5.11,0.11-10.24,0.16-15.33-0.07c0,0,0.78-5.66-1.08-7.3c-1.13-0.99-3.08,0.01-4.96-1.1
			c-3.15-1.86-7.96-4.71-12-6.9c-4.02-2.18-7.55-3.17-7.55-3.17C42.6,99.8,49.03,95.34,58.52,96.25z"/>
	</g>
	
		<linearGradient id="SVGID_3_" gradientUnits="userSpaceOnUse" x1="57.8753" y1="5.8602" x2="57.8753" y2="47.7207" gradientTransform="matrix(1 0 0 -1 0 128)">
		<stop  offset="0.1003" style="stop-color:#212121;stop-opacity:0.4"/>
		<stop  offset="1" style="stop-color:#252525;stop-opacity:0"/>
	</linearGradient>
	<path style="fill:url(#SVGID_3_);" d="M28.66,86c0,0,0.94,6.67,7.23,7.94c8.62,1.74,14.32-2.39,14.32-2.39s0.6,1.05,2.22,0.66
		c1.3-0.31,4.01-1.01,4.6-2c0.79-1.31,0.65-2.45,0.65-2.45c-0.04,0.46,0.12,1.01,0.14,1.48c0.06,1.25,0.01,2.52-0.18,3.76
		c-0.19,1.26-0.83,3.12-0.83,3.12c-1.81,0.5-3.56,2.71-2.48,5.71c2.4,6.61,8.86,10.5,15.36,10.11c2.8-0.17,5.54-0.81,8.28-1.38
		c0.48-0.1,1.14-0.31,1.42,0.08c1.12,1.56-1.49,4.17-2.22,4.96c5.44,2.89,11.43,0.13,11.69,0.17s-3.04,3.68-9.12,3.68
		c-2.88,0-5.61-1.11-8.37-1.83c-2.7-0.71-5.98,0.09-7.61-2.19c-0.99-1.38-3.36-0.31-5.08-1.29c-3.38-1.94-11.33-6.85-15.13-8.44
		c-3.24-1.35-3.93-1.54-5.19-1.89c-4.09-1.14-7.83,1.72-10.95-2.49c-1.75-2.36,1.06-6.37,1.06-6.37C26.57,90.38,28.66,86,28.66,86z"
		/>
</g>
<linearGradient id="shirt_2_" gradientUnits="userSpaceOnUse" x1="93.0435" y1="22.8904" x2="107.4682" y2="2.8805" gradientTransform="matrix(1 0 0 -1 0 128)">
	<stop  offset="0" style="stop-color:#651FFF"/>
	<stop  offset="0.8168" style="stop-color:#530EEB"/>
</linearGradient>
<path id="shirt" style="fill:url(#shirt_2_);" d="M83.37,93.62c-2.92,1.13-0.58,5.14,0.62,7.51c1.76,3.46,3.04,13.41,5.37,17.38
	c3.18,5.42,11.6,6.95,15.25,4.34c3.02-2.16,4.05-10.16,0.37-16.75c-6.13-10.97-7.86-12.56-8.72-14.48
	c-2.84-6.38-5.69-5.08-5.69-5.08L83.37,93.62z"/>
<linearGradient id="hand_1_" gradientUnits="userSpaceOnUse" x1="62.512" y1="10.7608" x2="90.095" y2="10.7608" gradientTransform="matrix(1 0 0 -1 0 128)">
	<stop  offset="0" style="stop-color:#CCA47A"/>
	<stop  offset="0.5" style="stop-color:#E0BB95"/>
</linearGradient>
<path id="hand_4_" style="fill:url(#hand_1_);" d="M90.1,116.71c0-0.64-0.23-1.34-1.79-0.72c-3.95,1.57-7.07,2.7-11.52,0.94
	c0.47,0.41,5.95-4.21,2.75-6.51c-1.37-0.49-4.27,2.69-7.14,2.9c-2.88-0.11-6.39-0.17-8.88,2.38l-1,8.29c2.56,0,14.73,0.37,19.5-0.29
	l0,0C84.83,122.97,89.48,120.72,90.1,116.71z"/>
<g id="hand_2_">
	
		<linearGradient id="hand_x5F_fill_2_" gradientUnits="userSpaceOnUse" x1="97.1614" y1="-46.7966" x2="83.9639" y2="-30.6358" gradientTransform="matrix(0.9898 0.1426 0.1426 -0.9898 0.3788 34.9942)">
		<stop  offset="0" style="stop-color:#CCA47A"/>
		<stop  offset="0.5" style="stop-color:#E0BB95"/>
	</linearGradient>
	<path id="hand_x5F_fill_1_" style="fill:url(#hand_x5F_fill_2_);" d="M78.99,69.97c-0.89-0.13-2.54-0.08-2.86,0.75
		c-0.64,1.63,1.12,2.55,2.3,2.85c1.84,0.47,3.85,0.87,3.85,0.87L84,77.37c0,0-3.77-1.09-5.5-1.13c-2.2-0.05-4.91,1.11-6.55,1.79
		c-2.03,0.83-0.56,3.13,1.6,3.09c1.83-0.04,3.94-0.85,3.94-0.85l2.55,1c-1.08,0.07-4.01,0.28-4.62,2.03
		C74.75,85.23,76,86.84,76,86.84s-0.78,1.03,0,2.69c0.63,1.33,2.52,2.4,4.33,2.43c0.93,2.88,3.39,3.41,4.79,3.39
		c2.97-0.03,5.41-1.86,6.47-4c1.26-2.56,1.57-5.97-0.7-11.1c-1.33-3-3.63-7.71-5.63-8.66C82.79,70.42,82.49,70.5,78.99,69.97z"/>
	<path id="tone_2_" style="fill:#BA8F63;" d="M78.88,91.72c0.47,0.14,0.96,0.23,1.45,0.24c0.38,1.19,1.03,1.96,1.76,2.48
		c-0.28-0.31-0.78-1.22-0.83-1.42c-0.28-1.27-0.03-1.81,0.38-2.58c0.41-0.77,0.39-1.32,0.08-1.56c-0.37-0.29-2.04,0.26-2.43,0.29
		c0,0,1.1,1.06,0.63,1.86C79.68,91.41,79.26,91.62,78.88,91.72z"/>
	<path id="tone_1_" style="fill:#BA8F63;" d="M76,86.84c0,0,1.76-1.95,6.1-1.67c0,0-1.32-0.9-3.22-0.65
		C76.65,84.82,76,86.84,76,86.84z"/>
	<path id="tone" style="fill:#BA8F63;" d="M80.04,81.26l2.62-0.03c0,0-1.71-0.6-2.69-0.78c-0.98-0.17-2.48-0.19-2.48-0.19
		L80.04,81.26z"/>
</g>
<path id="hair_1_" style="fill:#AB872F;" d="M84.02,28.17C83.46,23.11,79.61,3.3,55.9,6.55c-22,3.02-20.2,25.08-19.92,30.02
	c0.21,3.7,0.71,10.99,1.22,15.06c0.53,4.28,4.98,5.2,4.98,5.2s-0.02-6.26-0.31-12.28c-0.26-5.34-0.21-9.75,2.21-10.65
	c14.11-5.23,20.99-14.53,20.99-14.53c2.87,4.33,10.26,7.82,12.93,9.17c2.19,1.11,2.84,7,3.19,9.49L80.5,55.82
	c0,0,4.35-2.65,4.65-7.04C85.44,44.75,84.58,33.23,84.02,28.17z"/>
<radialGradient id="hairHighlights_3_" cx="60.6626" cy="86.7476" r="43.1326" gradientTransform="matrix(-0.086 -0.9963 -0.8251 0.0712 137.4966 95.4567)" gradientUnits="userSpaceOnUse">
	<stop  offset="0.7007" style="stop-color:#BFA055;stop-opacity:0"/>
	<stop  offset="0.9905" style="stop-color:#BFA055"/>
</radialGradient>
<path id="hairHighlights" style="fill:url(#hairHighlights_3_);" d="M84.02,28.17C83.46,23.11,79.61,3.3,55.9,6.55
	c-22,3.02-20.2,25.08-19.92,30.02c0.21,3.7,0.71,10.99,1.22,15.06c0.53,4.28,4.98,5.2,4.98,5.2s-0.02-6.26-0.31-12.28
	c-0.26-5.34-0.21-9.75,2.21-10.65c14.11-5.23,20.99-14.53,20.99-14.53c2.87,4.33,10.26,7.82,12.93,9.17c2.19,1.11,2.84,7,3.19,9.49
	L80.5,55.82c0,0,4.35-2.65,4.65-7.04C85.44,44.75,84.58,33.23,84.02,28.17z"/>
</svg>
