<?xml version="1.0" encoding="utf-8"?>
<!-- Generator: Adobe Illustrator 24.1.2, SVG Export Plug-In . SVG Version: 6.00 Build 0)  -->
<svg version="1.1" id="Layer_1" xmlns="http://www.w3.org/2000/svg" xmlns:xlink="http://www.w3.org/1999/xlink" x="0px" y="0px"
	 viewBox="0 0 128 128" style="enable-background:new 0 0 128 128;" xml:space="preserve">
<g id="family_x5F_man_x5F_left">
	<g id="shirt">
		
			<linearGradient id="SVGID_1_" gradientUnits="userSpaceOnUse" x1="33.982" y1="4.6637" x2="33.982" y2="60.1945" gradientTransform="matrix(1 0 0 -1 0 128)">
			<stop  offset="0" style="stop-color:#009E89"/>
			<stop  offset="1" style="stop-color:#00BFA5"/>
		</linearGradient>
		<path style="fill:url(#SVGID_1_);" d="M63.98,88.44v35.6h-60V77.07c3.84-4.8,10.05-8.01,16.86-9.63
			c4.15-0.98,8.54-1.55,13.06-1.55c1.24,0,2.49,0.04,3.75,0.14c1.75,0.12,3.5,0.33,5.27,0.63C54.8,68.71,63.98,76.16,63.98,88.44z"
			/>
	</g>
	<g id="neck_11_">
		<path style="fill:#E59600;" d="M33.44,74.16L33.44,74.16c-3.87,0-7-3.13-7-7v-6.42h14v6.42C40.44,71.03,37.31,74.16,33.44,74.16z"
			/>
	</g>
	<g id="arm_6_">
		
			<linearGradient id="SVGID_2_" gradientUnits="userSpaceOnUse" x1="7.982" y1="4.6051" x2="7.982" y2="31.1167" gradientTransform="matrix(1 0 0 -1 0 128)">
			<stop  offset="0.6037" style="stop-color:#FFCA28"/>
			<stop  offset="1" style="stop-color:#FFB300"/>
		</linearGradient>
		<polygon style="fill:url(#SVGID_2_);" points="3.98,96.04 3.98,97.04 3.98,98.04 3.98,124.04 10.02,124.04 10.98,124.04 
			11.98,124.04 11.98,96.04 		"/>
	</g>
	<g id="ears_7_">
		<path style="fill:#E59600;" d="M51.47,34.78H15.41c-3.89,0-7.07,3.39-7.07,7.53s3.18,7.53,7.07,7.53h36.05
			c3.89,0,7.07-3.39,7.07-7.53S55.35,34.78,51.47,34.78z"/>
	</g>
	<path id="head_6_" style="fill:#FFCA28;" d="M33.44,8.15L33.44,8.15L33.44,8.15c-11.48,0-22.11,12.28-22.11,29.94
		c0,17.57,10.95,26.26,22.11,26.26s22.11-8.69,22.11-26.26C55.55,20.43,44.92,8.15,33.44,8.15z"/>
	<path id="mouth_7_" style="fill:#795548;" d="M38.99,51.58c-2.1,1.25-8.99,1.25-11.09,0c-1.21-0.72-2.44,0.38-1.94,1.48
		c0.49,1.08,4.25,3.58,7.5,3.58s6.96-2.5,7.45-3.58C41.42,51.96,40.2,50.86,38.99,51.58z"/>
	<path id="nose_7_" style="fill:#E59600;" d="M35.99,46.24c-0.07-0.03-0.14-0.05-0.21-0.05h-4.67c-0.07,0.01-0.14,0.03-0.21,0.05
		c-0.42,0.17-0.66,0.61-0.45,1.08c0.2,0.47,1.13,1.78,3,1.78c1.87,0,2.8-1.31,3-1.78C36.64,46.85,36.41,46.41,35.99,46.24z"/>
	<g id="eyes_7_">
		<ellipse style="fill:#404040;" cx="22.6" cy="40.21" rx="3.25" ry="3.37"/>
		<ellipse style="fill:#404040;" cx="44.28" cy="40.21" rx="3.25" ry="3.37"/>
	</g>
	<g id="eyebrows_7_">
		<path style="fill:#6D4C41;" d="M17.6,34.55c0,0,1.78-2.35,4.97-2.35s5.01,2.38,5.01,2.38c0.33,0.47,0.23,1.11-0.24,1.45
			c-0.28,0.2-0.63,0.24-0.94,0.14c0,0-0.97-0.44-1.88-0.66s-1.91-0.29-2.9-0.18c-1.5,0.17-2.73,0.81-2.73,0.81
			C17.94,36.53,17.02,35.41,17.6,34.55z"/>
		<path style="fill:#6D4C41;" d="M49.28,34.55c0,0-1.78-2.35-4.97-2.35s-5.01,2.38-5.01,2.38c-0.33,0.47-0.23,1.11,0.24,1.45
			c0.28,0.2,0.63,0.24,0.94,0.14c0,0,0.97-0.44,1.88-0.66s1.91-0.29,2.9-0.18c1.5,0.17,2.73,0.81,2.73,0.81
			C48.94,36.53,49.86,35.41,49.28,34.55z"/>
	</g>
	<g id="hairGroup_6_">
		<path id="hair_19_" style="fill:#543930;" d="M33.52,4.24L33.52,4.24c0,0-0.01,0-0.01,0s-0.01,0-0.01,0v0
			C3.76,4.4,9.85,38.37,9.85,38.37s1.33,3.5,1.94,5.05c0.09,0.22,0.41,0.2,0.46-0.04c0.64-2.84,2.92-12.91,4.07-15.97
			c0.68-1.8,2.55-2.85,4.45-2.51c2.92,0.53,7.56,1.18,12.68,1.18c0.02,0,0.04,0,0.06,0s0.04,0,0.06,0c5.12,0,9.76-0.65,12.68-1.18
			c1.9-0.34,3.77,0.71,4.45,2.51c1.15,3.05,3.42,13.06,4.06,15.94c0.05,0.24,0.38,0.26,0.47,0.03l1.95-5.02
			C57.17,38.37,63.26,4.4,33.52,4.24z"/>
		
			<radialGradient id="hairHighlights_1_" cx="33.5108" cy="95.5724" r="24.9338" gradientTransform="matrix(1 0 0 -1.1282 0 140.2516)" gradientUnits="userSpaceOnUse">
			<stop  offset="0.7945" style="stop-color:#6D4C41;stop-opacity:0"/>
			<stop  offset="1" style="stop-color:#6D4C41"/>
		</radialGradient>
		<path id="hairHighlights_12_" style="fill:url(#hairHighlights_1_);" d="M57.17,38.37c0,0,6.09-33.97-23.65-34.13v0
			c0,0-0.01,0-0.01,0h0c0,0-0.01,0-0.01,0l0,0c-0.46,0-0.92,0.01-1.36,0.03c-0.89,0.04-1.74,0.11-2.56,0.2c-0.01,0-0.02,0-0.02,0
			c-0.06,0.01-0.11,0.02-0.17,0.02C4.34,7.65,9.85,38.37,9.85,38.37l1.95,5.03c0.09,0.22,0.41,0.2,0.46-0.03
			c0.64-2.87,2.92-12.9,4.07-15.95c0.68-1.8,2.55-2.85,4.45-2.51c2.91,0.53,7.56,1.18,12.68,1.18c0.02,0,0.04,0,0.06,0
			s0.04,0,0.06,0c5.12,0,9.76-0.65,12.68-1.18c1.9-0.34,3.77,0.71,4.45,2.51c1.15,3.07,3.44,13.15,4.07,15.98
			c0.05,0.23,0.37,0.26,0.46,0.03C55.83,41.88,57.17,38.37,57.17,38.37z"/>
	</g>
</g>
<g id="family_x5F_wmn_x5F_right">
	<g id="hairGroup_5_">
		<path id="hair_18_" style="fill:#543930;" d="M93.74,4.24c-27.01,0-26.79,24.97-26.79,25.37c0,16.17,1.24,39.02,7.71,48.01
			c2.57,3.56,7.53,3.76,7.53,3.76l11.18-0.02l11.18,0.02c0,0,4.96-0.2,7.53-3.76c6.47-8.99,7.71-31.84,7.71-48.01
			C119.77,29.21,120.74,4.24,93.74,4.24z"/>
		
			<radialGradient id="hairHighlights_2_" cx="93.3622" cy="87.1697" r="31.3025" gradientTransform="matrix(1 0 0 -1.1901 0 144.5695)" gradientUnits="userSpaceOnUse">
			<stop  offset="0.7936" style="stop-color:#6D4C41;stop-opacity:0"/>
			<stop  offset="1" style="stop-color:#6D4C41"/>
		</radialGradient>
		<path id="hairHighlights_11_" style="fill:url(#hairHighlights_2_);" d="M93.74,4.24c-27.01,0-26.79,24.97-26.79,25.37
			c0,16.17,1.24,39.02,7.71,48.01c2.57,3.56,7.53,3.76,7.53,3.76l11.18-0.02l11.18,0.02c0,0,4.96-0.2,7.53-3.76
			c6.47-8.99,7.71-31.84,7.71-48.01C119.77,29.21,120.74,4.24,93.74,4.24z"/>
	</g>
	<g id="shirt_1_">
		
			<linearGradient id="SVGID_3_" gradientUnits="userSpaceOnUse" x1="93.982" y1="4.6637" x2="93.982" y2="60.53" gradientTransform="matrix(1 0 0 -1 0 128)">
			<stop  offset="0" style="stop-color:#530EEB"/>
			<stop  offset="1" style="stop-color:#651FFF"/>
		</linearGradient>
		<path style="fill:url(#SVGID_3_);" d="M123.98,77.07v46.97h-60v-35.6c0-12.19,9.05-19.62,20.8-21.73
			c0.09-0.02,0.17-0.04,0.26-0.05c0.5-0.09,1.01-0.16,1.51-0.23c0.49-0.07,0.98-0.14,1.47-0.19c0.49-0.06,0.98-0.11,1.47-0.15
			c0.03,0,0.06,0,0.09-0.01c0.46-0.03,0.93-0.06,1.4-0.09c1.03-0.07,2.06-0.1,3.07-0.1c4.53,0,8.92,0.57,13.07,1.55
			C113.93,69.06,120.14,72.27,123.98,77.07z"/>
	</g>
	<g id="neck_2_">
		<path style="fill:#E59600;" d="M93.38,74.16L93.38,74.16c-3.87,0-7-3.13-7-7v-6.42h14v6.42C100.38,71.03,97.25,74.16,93.38,74.16z
			"/>
	</g>
	<g id="arm_3_">
		
			<linearGradient id="SVGID_4_" gradientUnits="userSpaceOnUse" x1="119.982" y1="4.6051" x2="119.982" y2="31.1167" gradientTransform="matrix(1 0 0 -1 0 128)">
			<stop  offset="0.6037" style="stop-color:#FFCA28"/>
			<stop  offset="1" style="stop-color:#FFB300"/>
		</linearGradient>
		<polygon style="fill:url(#SVGID_4_);" points="115.98,96.04 115.98,124.04 116.98,124.04 117.94,124.04 123.98,124.04 
			123.98,98.04 123.98,97.04 123.98,96.04 		"/>
	</g>
	<path id="head_2_" style="fill:#FFCA28;" d="M93.36,11.89L93.36,11.89L93.36,11.89c-11.36,0-21.88,8.45-21.88,26.36
		c0,14.39,8.91,22.9,16.67,25.64c1.85,0.65,3.63,0.98,5.22,0.98c1.57,0,3.35-0.33,5.18-0.97c7.76-2.73,16.7-11.25,16.7-25.65
		C115.24,20.33,104.72,11.89,93.36,11.89z"/>
	<path id="mouth_2_" style="fill:#795548;" d="M98.86,51.58c-2.08,1.24-8.89,1.24-10.97,0c-1.19-0.71-2.41,0.38-1.92,1.46
		c0.49,1.07,4.21,3.54,7.42,3.54s6.88-2.47,7.37-3.54C101.25,51.95,100.05,50.87,98.86,51.58z"/>
	<path id="nose_2_" style="fill:#E59600;" d="M95.88,46.24c-0.07-0.03-0.14-0.04-0.21-0.05h-4.62c-0.07,0.01-0.14,0.03-0.21,0.05
		c-0.42,0.17-0.65,0.6-0.45,1.06c0.2,0.46,1.12,1.76,2.97,1.76c1.85,0,2.77-1.3,2.97-1.76C96.53,46.84,96.3,46.41,95.88,46.24z"/>
	<g id="eyes_2_">
		<ellipse style="fill:#404040;" cx="82.63" cy="40.17" rx="3.21" ry="3.33"/>
		<ellipse style="fill:#404040;" cx="104.09" cy="40.17" rx="3.21" ry="3.33"/>
	</g>
	<g id="eyebrows_2_">
		<path style="fill:#6D4C41;" d="M87.41,34.19c-0.61-0.81-2.03-1.99-4.78-1.99s-4.17,1.18-4.78,1.99c-0.27,0.36-0.2,0.77-0.01,1.02
			c0.17,0.23,0.69,0.45,1.26,0.26c0.57-0.19,1.68-0.77,3.54-0.78c1.86,0.01,2.97,0.59,3.54,0.78c0.57,0.19,1.08-0.02,1.26-0.26
			C87.61,34.97,87.68,34.55,87.41,34.19z"/>
		<path style="fill:#6D4C41;" d="M108.87,34.19c-0.61-0.81-2.03-1.99-4.78-1.99s-4.17,1.18-4.78,1.99c-0.27,0.36-0.2,0.77-0.01,1.02
			c0.17,0.23,0.69,0.45,1.26,0.26c0.57-0.19,1.68-0.77,3.54-0.78c1.86,0.01,2.97,0.59,3.54,0.78c0.57,0.19,1.08-0.02,1.26-0.26
			C109.07,34.97,109.14,34.55,108.87,34.19z"/>
	</g>
	<g id="hairGroup_4_">
		<g id="hair_14_">
			<path style="fill:#543930;" d="M93.74,4.24c-27.01,0-26.79,24.97-26.79,25.37c0,5.11,0.12,10.88,0.5,16.68l7.76,15.53
				c0,0-1.34-12.17-1.49-20.42c-0.02-1.06-0.2-3.72,0.31-6.04c0.79-1.96,1.83-3.48,3.17-3.78c14.72-3.31,23.06-11.12,23.06-11.12
				c2.17,4.73,8.94,9.35,11.38,11.1c0.69,0.5,1.21,2.11,1.6,4.11c0.21,2.07,0.13,4.34,0.11,5.67l-2.01,20.44l7.95-15.48
				c0-0.03,0.01-0.07,0.02-0.1c0.37-5.76,0.49-11.5,0.49-16.58C119.77,29.21,120.74,4.24,93.74,4.24z"/>
		</g>
		
			<radialGradient id="hairHighlights_3_" cx="93.5818" cy="84.5193" r="32.7884" gradientTransform="matrix(1 0 0 -1.2135 0 146.047)" gradientUnits="userSpaceOnUse">
			<stop  offset="0.7945" style="stop-color:#6D4C41;stop-opacity:0"/>
			<stop  offset="1" style="stop-color:#6D4C41"/>
		</radialGradient>
		<path id="hairHighlights_10_" style="fill:url(#hairHighlights_3_);" d="M93.74,4.24c-27.01,0-26.79,24.97-26.79,25.37
			c0,5.11,0.12,10.88,0.5,16.68l4.42-0.01c-0.04-1.92,1.31-13.81,5.32-14.71c14.72-3.31,23.06-11.12,23.06-11.12
			c2.17,4.73,8.94,9.35,11.38,11.1c2,1.44,2.61,12.22,2.57,14.74h5.07c0-0.03,0.01-0.07,0.02-0.1c0.37-5.76,0.49-11.5,0.49-16.58
			C119.77,29.21,120.74,4.24,93.74,4.24z"/>
	</g>
</g>
<g id="family_x5F_shadow">
	
		<radialGradient id="SVGID_5_" cx="63.982" cy="32.9847" r="27.1035" gradientTransform="matrix(1 0 0 -1.4568 0 143.0661)" gradientUnits="userSpaceOnUse">
		<stop  offset="0.5941" style="stop-color:#212121"/>
		<stop  offset="1" style="stop-color:#616161;stop-opacity:0.05"/>
	</radialGradient>
	<path style="opacity:0.4;fill:url(#SVGID_5_);enable-background:new    ;" d="M90.98,65.99v58.05h-54V66.02
		c0.22,0,0.45,0.01,0.67,0.01c1.75,0.12,3.5,0.33,5.27,0.63c11.88,2.05,21.06,9.5,21.06,21.78c0-12.19,9.05-19.62,20.8-21.73
		c0.1-0.02,0.2-0.03,0.3-0.05c0.49-0.08,0.98-0.16,1.47-0.23s0.98-0.14,1.47-0.19c0.49-0.06,0.98-0.11,1.47-0.15
		c0.03,0,0.06,0,0.09-0.01C90.04,66.05,90.51,66.02,90.98,65.99z"/>
</g>
<g id="family_x5F_girl_x5F_center">
	<path id="shirt_8_" style="fill:#E1BEE7;" d="M85.6,122.02c0-9.84-12.51-13.14-16.87-13.14h-9.38c-4.35,0-16.88,3.3-16.88,13.14
		c0,0-0.01,0.79-0.03,2.02h1.02h0.97h39.19h0.98h1.02C85.61,123.02,85.6,122.02,85.6,122.02z"/>
	<g id="neck_7_">
		<path style="fill:#E59600;" d="M64.04,116.34c-2.6,0-4.57-1.92-4.57-4.29v-2.38h9.54v2.38C69,114.42,66.64,116.34,64.04,116.34z"
			/>
	</g>
	<g id="hair_x5F_back_1_">
		<g id="hair_13_">
			<path style="fill:#543930;" d="M45.5,111.11l0.62-2.92l-5.39,1.35c0,0-0.38-5.2,4.26-8.2c5.09-3.29,10.94,0.22,10.94,0.22
				s-0.58,3.93-4.06,7.3C49.53,111.13,45.5,111.11,45.5,111.11z"/>
		</g>
		<g id="hair_12_">
			<path style="fill:#543930;" d="M82.6,111.11l-0.62-2.92l5.39,1.35c0,0,0.38-5.2-4.26-8.2c-5.09-3.29-10.94,0.22-10.94,0.22
				s0.58,3.93,4.06,7.3C78.58,111.13,82.6,111.11,82.6,111.11z"/>
		</g>
		
			<radialGradient id="hairHighlights_4_" cx="79.9548" cy="22.5894" r="9.8373" gradientTransform="matrix(0.8651 0.5016 0.3314 -0.5715 3.2989 78.2128)" gradientUnits="userSpaceOnUse">
			<stop  offset="0.5255" style="stop-color:#6D4C41;stop-opacity:0"/>
			<stop  offset="1" style="stop-color:#6D4C41"/>
		</radialGradient>
		<path id="hairHighlights_9_" style="fill:url(#hairHighlights_4_);" d="M82.6,111.11l-0.62-2.92l5.39,1.35c0,0,0.38-5.2-4.26-8.2
			c-5.09-3.29-10.94,0.22-10.94,0.22s0.58,3.93,4.06,7.3C78.58,111.13,82.6,111.11,82.6,111.11z"/>
		
			<radialGradient id="hairHighlights_5_" cx="1249.8497" cy="22.5894" r="9.3424" gradientTransform="matrix(-0.8651 0.5016 -0.3314 -0.5715 1136.7312 -508.623)" gradientUnits="userSpaceOnUse">
			<stop  offset="0.5255" style="stop-color:#6D4C41;stop-opacity:0"/>
			<stop  offset="1" style="stop-color:#6D4C41"/>
		</radialGradient>
		<path id="hairHighlights_8_" style="fill:url(#hairHighlights_5_);" d="M45.36,111.11l0.62-2.92l-5.39,1.35c0,0-0.38-5.2,4.26-8.2
			c5.09-3.29,10.94,0.22,10.94,0.22s-0.58,3.93-4.06,7.3C49.38,111.13,45.36,111.11,45.36,111.11z"/>
	</g>
	<g id="ears_5_">
		<path style="fill:#E59600;" d="M78.99,89.25h-3.97H53.48h-3.97c-3.18,0-5.78,2.5-5.78,5.56s2.6,5.56,5.78,5.56h3.97h21.53h3.97
			c3.18,0,5.39-2.5,5.39-5.56S82.17,89.25,78.99,89.25z"/>
	</g>
	<path id="head_7_" style="fill:#FFCA28;" d="M63.9,66.31L63.9,66.31L63.9,66.31c-9.33,0-17.57,9.8-17.57,23.9
		c0,14.02,9.87,20.96,17.57,20.96s17.57-6.93,17.57-20.96C81.47,76.1,73.23,66.31,63.9,66.31z"/>
	<path id="mouth_8_" style="fill:#795548;" d="M68.38,101.09c-1.64,0.97-7,0.97-8.64,0c-0.94-0.56-1.9,0.3-1.51,1.15
		c0.38,0.84,3.31,2.79,5.84,2.79s5.42-1.95,5.8-2.79C70.26,101.39,69.32,100.53,68.38,101.09z"/>
	<path id="nose_8_" style="fill:#E59600;" d="M66.03,96.76c-0.05-0.02-0.11-0.04-0.17-0.04h-3.63c-0.06,0.01-0.11,0.02-0.17,0.04
		c-0.33,0.13-0.51,0.47-0.35,0.84c0.16,0.36,0.88,1.38,2.34,1.38c1.46,0,2.18-1.02,2.34-1.38C66.54,97.23,66.36,96.89,66.03,96.76z"
		/>
	<g id="eyes_8_">
		<ellipse style="fill:#404040;" cx="55.51" cy="94.11" rx="2.53" ry="2.62"/>
		<ellipse style="fill:#404040;" cx="72.59" cy="94.11" rx="2.53" ry="2.62"/>
	</g>
	<g id="eyebrows_8_">
		<path style="fill:#6D4C41;" d="M51.56,89.45c0.1-0.13,0.13-0.21,0.31-0.39c0.4-0.42,1.18-0.92,1.94-1.18
			c0.73-0.25,1.07-0.25,1.62-0.25c0.85,0,1.37,0.18,1.62,0.25c0.35,0.12,0.68,0.28,1.01,0.46c0.55,0.33,1.74,1.14,1.38,1.87
			c-0.4,0.81-1.01,0.51-1.56,0.3c-0.24-0.07-1.32-0.5-2.46-0.5c-0.62,0-0.88,0.07-1.04,0.09c-0.73,0.12-1.28,0.35-1.38,0.38
			c-0.38,0.15-0.65,0.37-1.08,0.2C51.45,90.48,51.26,89.88,51.56,89.45z"/>
		<path style="fill:#6D4C41;" d="M76.55,89.45c-0.1-0.13-0.13-0.21-0.31-0.39c-0.39-0.42-1.18-0.92-1.94-1.18
			c-0.73-0.25-1.07-0.25-1.62-0.25c-0.85,0-1.37,0.18-1.62,0.25c-0.35,0.12-0.68,0.28-1.01,0.46c-0.55,0.33-1.74,1.14-1.38,1.87
			c0.4,0.81,1.01,0.51,1.56,0.3c0.24-0.07,1.32-0.5,2.46-0.5c0.62,0,0.88,0.07,1.04,0.09c0.73,0.12,1.28,0.35,1.38,0.38
			c0.38,0.15,0.65,0.37,1.07,0.2C76.65,90.48,76.84,89.88,76.55,89.45z"/>
	</g>
	<g id="hair_x5F_front_1_">
		<g id="hair_11_">
			<path style="fill:#543930;" d="M79.61,69.95c-2.33-2.43-4.56-3.32-4.78-3.35c-2.71-1.24-6.2-2.25-10.72-2.25
				c-19.88,0-21.23,16.2-20.43,23.33c0.71,6.29,4.37,7.84,4.37,7.84l-0.6-7.11c0,0,7.11-2.18,11.04-4.83
				c3.87-2.61,5.48-4.39,5.48-4.39s1.2,1.28,5.44,4.34c4.4,3.18,11.04,4.92,11.04,4.92l-0.51,7.07c0,0,3.85-1.54,4.4-7.84
				C85.04,79.79,84.1,75.06,79.61,69.95z"/>
		</g>
		
			<radialGradient id="hairHighlights_6_" cx="70.355" cy="43.1755" r="23.4742" gradientTransform="matrix(1.0432 0 0 -0.9174 -9.2029 124.4354)" gradientUnits="userSpaceOnUse">
			<stop  offset="0.6851" style="stop-color:#6D4C41;stop-opacity:0"/>
			<stop  offset="1" style="stop-color:#6D4C41"/>
		</radialGradient>
		<path id="hairHighlights_7_" style="fill:url(#hairHighlights_6_);" d="M79.61,69.95c-2.33-2.43-4.56-3.32-4.78-3.35
			c-2.71-1.24-6.2-2.25-10.72-2.25c-19.88,0-21.23,16.2-20.43,23.33c0.71,6.29,4.37,7.84,4.37,7.84l-0.6-7.11
			c0,0,7.11-2.18,11.04-4.83c3.87-2.61,5.48-4.39,5.48-4.39s1.2,1.28,5.44,4.34c4.4,3.18,11.04,4.92,11.04,4.92l-0.51,7.07
			c0,0,3.85-1.54,4.4-7.84C85.04,79.79,84.1,75.06,79.61,69.95z"/>
	</g>
</g>
</svg>
