<?xml version="1.0" encoding="utf-8"?>
<!-- Generator: Adobe Illustrator 24.0.3, SVG Export Plug-In . SVG Version: 6.00 Build 0)  -->
<svg version="1.1" id="Layer_1" xmlns="http://www.w3.org/2000/svg" xmlns:xlink="http://www.w3.org/1999/xlink" x="0px" y="0px"
	 viewBox="0 0 128 128" style="enable-background:new 0 0 128 128;" xml:space="preserve">
<g id="hairGroup">
	<path id="hair_x5F_white_1_" style="fill:#BDBDBD;" d="M98.9,79.85c-1.25-2.27,0.34-4.58,3.06-7.44c4.31-4.54,9-15.07,4.64-25.76
		c0.03-0.06-0.86-1.86-0.83-1.92l-1.79-0.09c-0.57-0.08-20.26-0.12-39.97-0.12c-19.71,0-36.06,0.07-36.06,0.07
		c-2.84,1.92-14.39,13.87-2.1,28.52c2.53,3.02,4.5,4.48,3.26,6.75c-1.21,2.21-4.81,2.53-4.81,2.53s0.83,2.26,2.83,3.48
		c1.85,1.13,4.13,1.39,5.7,1.43c0,0,6.15,8.51,22.23,8.51l8.95,0l8.95,0c16.08,0,22.23-8.51,22.23-8.51c1.57-0.04,3.85-0.3,5.7-1.43
		c2-1.22,2.83-3.48,2.83-3.48S100.11,82.06,98.9,79.85z"/>
	<g id="hairHighlights_x5F_white_1_" style="opacity:0.5;">
		
			<radialGradient id="SVGID_1_" cx="99.1438" cy="81.9413" r="23.419" gradientTransform="matrix(1 0 0 -0.4912 -20.0668 122.1905)" gradientUnits="userSpaceOnUse">
			<stop  offset="0.7315" style="stop-color:#D6D6D6;stop-opacity:0"/>
			<stop  offset="0.8065" style="stop-color:#E6E6E6;stop-opacity:0.2791"/>
			<stop  offset="0.9196" style="stop-color:#F8F8F8;stop-opacity:0.7007"/>
			<stop  offset="1" style="stop-color:#FFFFFF"/>
		</radialGradient>
		<path style="fill:url(#SVGID_1_);" d="M63.99,95.79v-9.44l28.57-2.26l2.6,3.2c0,0-6.15,8.51-22.23,8.51L63.99,95.79z"/>
		
			<radialGradient id="SVGID_2_" cx="76.5997" cy="78.652" r="8.0763" gradientTransform="matrix(-0.9057 0.4238 0.2547 0.5443 150.9696 3.3779)" gradientUnits="userSpaceOnUse">
			<stop  offset="0" style="stop-color:#FFFFFF"/>
			<stop  offset="0.2993" style="stop-color:#F8F8F8;stop-opacity:0.7007"/>
			<stop  offset="0.7209" style="stop-color:#E6E6E6;stop-opacity:0.2791"/>
			<stop  offset="1" style="stop-color:#D6D6D6;stop-opacity:0"/>
		</radialGradient>
		<path style="fill:url(#SVGID_2_);" d="M95.1,83.16c-4.28-6.5,5.21-8.93,5.21-8.93s0.01,0.01,0.01,0.01
			c-1.65,2.05-2.4,3.84-1.43,5.61c1.21,2.21,4.81,2.53,4.81,2.53S98.79,86.74,95.1,83.16z"/>
		
			<radialGradient id="SVGID_3_" cx="87.217" cy="57.1692" r="30.3992" gradientTransform="matrix(-0.0746 -0.9972 -0.6085 0.0455 132.2972 141.5401)" gradientUnits="userSpaceOnUse">
			<stop  offset="0.5919" style="stop-color:#D6D6D6;stop-opacity:0"/>
			<stop  offset="0.7058" style="stop-color:#E6E6E6;stop-opacity:0.2791"/>
			<stop  offset="0.8778" style="stop-color:#F8F8F8;stop-opacity:0.7007"/>
			<stop  offset="1" style="stop-color:#FFFFFF"/>
		</radialGradient>
		<path style="fill:url(#SVGID_3_);" d="M106.62,46.65c4.25,10.35-0.22,21.01-4.41,25.51c-0.58,0.62-3.01,3.01-3.57,4.92
			c0,0-9.54-13.31-12.39-21.13c-0.58-1.58-1.1-3.2-1.17-4.88c-0.05-1.26,0.14-2.76,0.87-3.82c0.89-1.31,20.16-1.7,20.16-1.7
			C106.11,45.55,106.62,46.65,106.62,46.65z"/>
		
			<radialGradient id="SVGID_4_" cx="141.0507" cy="81.9413" r="23.419" gradientTransform="matrix(-1 0 0 -0.4912 190.0179 122.1905)" gradientUnits="userSpaceOnUse">
			<stop  offset="0.7315" style="stop-color:#D6D6D6;stop-opacity:0"/>
			<stop  offset="0.8065" style="stop-color:#E6E6E6;stop-opacity:0.2791"/>
			<stop  offset="0.9196" style="stop-color:#F8F8F8;stop-opacity:0.7007"/>
			<stop  offset="1" style="stop-color:#FFFFFF"/>
		</radialGradient>
		<path style="fill:url(#SVGID_4_);" d="M64.06,95.79v-9.44l-28.57-2.26l-2.6,3.2c0,0,6.15,8.51,22.23,8.51L64.06,95.79z"/>
		
			<radialGradient id="SVGID_5_" cx="118.5065" cy="78.652" r="8.0763" gradientTransform="matrix(0.9057 0.4238 -0.2547 0.5443 -60.8825 -14.383)" gradientUnits="userSpaceOnUse">
			<stop  offset="0" style="stop-color:#FFFFFF"/>
			<stop  offset="0.2993" style="stop-color:#F8F8F8;stop-opacity:0.7007"/>
			<stop  offset="0.7209" style="stop-color:#E6E6E6;stop-opacity:0.2791"/>
			<stop  offset="1" style="stop-color:#D6D6D6;stop-opacity:0"/>
		</radialGradient>
		<path style="fill:url(#SVGID_5_);" d="M32.95,83.16c4.28-6.5-5.21-8.93-5.21-8.93s-0.01,0.01-0.01,0.01
			c1.65,2.05,2.4,3.84,1.43,5.61c-1.21,2.21-4.81,2.53-4.81,2.53S29.25,86.74,32.95,83.16z"/>
		
			<radialGradient id="SVGID_6_" cx="36.6464" cy="56.735" r="31.3424" gradientTransform="matrix(0.0746 -0.9972 0.5876 0.044 0.5755 90.7847)" gradientUnits="userSpaceOnUse">
			<stop  offset="0.5919" style="stop-color:#D6D6D6;stop-opacity:0"/>
			<stop  offset="0.7058" style="stop-color:#E6E6E6;stop-opacity:0.2791"/>
			<stop  offset="0.8778" style="stop-color:#F8F8F8;stop-opacity:0.7007"/>
			<stop  offset="1" style="stop-color:#FFFFFF"/>
		</radialGradient>
		<path style="fill:url(#SVGID_6_);" d="M25.84,73.1c1.41,1.68,2.64,2.87,3.24,3.99c0.62-0.88,9.6-13.53,12.35-21.08
			c0.58-1.58,1.1-3.2,1.17-4.88c0.04-0.92-0.58-4.38-1.19-6.6c-8.18,0.02-13.48,0.04-13.48,0.04C25.1,46.5,13.55,58.45,25.84,73.1z"
			/>
	</g>
</g>
<linearGradient id="robe_1_" gradientUnits="userSpaceOnUse" x1="64" y1="34.5049" x2="64" y2="1.8491" gradientTransform="matrix(1 0 0 -1 0 130)">
	<stop  offset="0" style="stop-color:#F44336"/>
	<stop  offset="0.3592" style="stop-color:#E73B32"/>
	<stop  offset="1" style="stop-color:#C62828"/>
</linearGradient>
<path id="robe" style="fill:url(#robe_1_);" d="M64.14,95.97c-0.05,0-0.09,0-0.14,0c-25.65,0.03-52,7.1-52,24.99V124h1.44h1.45
	h98.22h1.45H116v-3.04C116,104.1,89.9,95.97,64.14,95.97z"/>
<path id="ears" style="fill:#EDC391;" d="M90.76,49.55H37.19c-5.78,0-10.5,5.17-10.5,11.5s4.73,11.5,10.5,11.5h53.57
	c5.78,0,10.5-5.18,10.5-11.5S96.54,49.55,90.76,49.55z"/>
<path id="head" style="fill:#F9DDBD;" d="M63.59,10.47L63.59,10.47L63.59,10.47c-17.08,0-32.89,18.26-32.89,44.54
	c0,26.13,16.29,39.06,32.89,39.06s32.89-12.92,32.89-39.06C96.48,28.73,80.66,10.47,63.59,10.47z"/>
<g id="wrinkles">
	<path id="tone_4_" style="fill:#EDBD82;" d="M91.5,61.5c-0.12,0-0.25-0.02-0.37-0.07l-4.43-1.76c-0.33-0.13-0.57-0.43-0.62-0.79
		c-0.05-0.35,0.09-0.71,0.37-0.93l3.56-2.8c0.44-0.34,1.06-0.27,1.4,0.17c0.34,0.43,0.27,1.06-0.17,1.4l-2.19,1.73l2.82,1.12
		c0.51,0.2,0.76,0.79,0.56,1.3C92.27,61.26,91.9,61.5,91.5,61.5z"/>
	<path id="tone_2_" style="fill:#EDBD82;" d="M46.55,79.81c-0.26,0-0.51-0.1-0.71-0.29c-0.39-0.39-0.39-1.02,0-1.41L52.95,71
		c0.39-0.39,1.02-0.39,1.41,0s0.39,1.02,0,1.41l-7.11,7.11C47.06,79.72,46.8,79.81,46.55,79.81z"/>
	<path id="tone_1_" style="fill:#EDBD82;" d="M81.4,79.81c-0.26,0-0.51-0.1-0.71-0.29l-7.11-7.11c-0.39-0.39-0.39-1.02,0-1.41
		s1.02-0.39,1.41,0l7.11,7.11c0.39,0.39,0.39,1.02,0,1.41C81.91,79.72,81.66,79.81,81.4,79.81z"/>
	<path id="tone" style="fill:#EDBD82;" d="M36.5,61.5c-0.4,0-0.77-0.24-0.93-0.63c-0.2-0.51,0.05-1.1,0.56-1.3l2.82-1.12l-2.19-1.73
		c-0.43-0.34-0.51-0.97-0.17-1.4c0.34-0.43,0.97-0.51,1.4-0.17l3.55,2.8c0.28,0.22,0.42,0.58,0.37,0.93
		c-0.05,0.35-0.29,0.65-0.62,0.79l-4.43,1.76C36.75,61.48,36.62,61.5,36.5,61.5z"/>
	<path id="tone_3_" style="fill:#EDBD82;" d="M51.57,43.28c0,0.65,0.6,1.13,1.23,0.98c2.68-0.63,6.48-1.27,10.87-1.27
		c4.52,0,8.55,0.68,11.38,1.33c0.63,0.14,1.22-0.33,1.22-0.98v0c0-0.47-0.33-0.88-0.79-0.98c-2.93-0.67-7.08-1.36-11.81-1.36
		c-4.59,0-8.53,0.65-11.32,1.31C51.89,42.41,51.57,42.81,51.57,43.28L51.57,43.28z"/>
</g>
<path id="mouth_1_" style="fill:#444444;" d="M72.24,76.15c-3.12,1.86-13.37,1.86-16.5,0c-1.79-1.07-3.63,0.57-2.88,2.2
	c0.73,1.6,6.32,5.32,11.16,5.32s10.35-3.72,11.08-5.32C75.84,76.72,74.03,75.08,72.24,76.15z"/>
<g id="eyes_1_">
	<ellipse style="fill:#312D2D;" cx="47.69" cy="59.26" rx="4.83" ry="5.01"/>
	<ellipse style="fill:#312D2D;" cx="80.32" cy="59.26" rx="4.83" ry="5.01"/>
</g>
<g id="eyebrows_x5F_gray_1_">
	<path style="fill:#9E9E9E;" d="M54.8,49.82c-0.93-1.23-3.07-3.01-7.23-3.01s-6.31,1.79-7.23,3.01c-0.41,0.54-0.31,1.17-0.02,1.55
		c0.26,0.35,1.04,0.68,1.9,0.39c0.86-0.29,2.54-1.16,5.35-1.18c2.81,0.02,4.49,0.89,5.35,1.18c0.86,0.29,1.64-0.03,1.9-0.39
		C55.1,50.99,55.21,50.36,54.8,49.82z"/>
	<path style="fill:#9E9E9E;" d="M87.67,49.82c-0.93-1.23-3.07-3.01-7.23-3.01c-4.16,0-6.31,1.79-7.23,3.01
		c-0.41,0.54-0.31,1.17-0.02,1.55c0.26,0.35,1.04,0.68,1.9,0.39c0.86-0.29,2.54-1.16,5.35-1.18c2.81,0.02,4.49,0.89,5.35,1.18
		c0.86,0.29,1.64-0.03,1.9-0.39C87.97,50.99,88.08,50.36,87.67,49.82z"/>
</g>
<g id="hairGroup_1_">
	<path id="hair_x5F_white" style="fill:#BDBDBD;" d="M99.33,30.12c-2.39-6.49-53.02-18.6-69.58,3.72
		c-3.25,4.39-0.49,18.64-0.49,18.64c-0.46,8.01,1.03,12.94,1.82,14.94c0.14,0.35,0.63,0.32,0.72-0.04
		c0.99-3.96,4.37-17.8,4.03-20.21c0,0,11.35-2.25,22.17-10.22c2.2-1.62,4.59-3,7.13-4.02c13.59-5.41,16.44,3.82,16.44,3.82
		s9.42-1.81,12.26,11.27c1.07,4.9,1.8,12.75,2.4,18.24c0.04,0.39,0.57,0.47,0.73,0.11C97.91,64.2,105.1,45.75,99.33,30.12z"/>
</g>
<g id="hat_1_">
	
		<linearGradient id="SVGID_7_" gradientUnits="userSpaceOnUse" x1="27.61" y1="97.1075" x2="105.4818" y2="97.1075" gradientTransform="matrix(1 0 0 -1 0 130)">
		<stop  offset="0" style="stop-color:#F44336"/>
		<stop  offset="0.3592" style="stop-color:#E73B32"/>
		<stop  offset="1" style="stop-color:#C62828"/>
	</linearGradient>
	<path style="fill:url(#SVGID_7_);" d="M90.92,11.55C85.56,7.07,77.56,4.3,63.59,4.3c-25.64,0-35.98,16.53-35.98,36.87
		c0,0.08,2.42,0.25,2.91,0.29c0.06,0,0.11,0.01,0.17,0.01L64,32c0,0,30.06,9.38,30.31,10.22l5.69,17.51
		c0.31,1.04,1.26,1.75,2.35,1.75c1.29,0,2.36-1,2.45-2.29c0.18-2.87,0.48-8.01,0.62-12.9C105.62,38.86,106.28,24.38,90.92,11.55z"/>
	
		<radialGradient id="SVGID_8_" cx="98.5048" cy="62.3954" r="14.1888" gradientTransform="matrix(1 0 0 1.0094 0 -0.5847)" gradientUnits="userSpaceOnUse">
		<stop  offset="0.5391" style="stop-color:#F5F5F5"/>
		<stop  offset="1" style="stop-color:#BDBDBD"/>
	</radialGradient>
	<ellipse style="fill:url(#SVGID_8_);" cx="101.91" cy="63.86" rx="6.75" ry="6.75"/>
	<path style="fill:#F5F5F5;" d="M97.06,30.73c-0.97-0.7-15.42-8.72-34.98-8.72s-34.01,8.01-34.98,8.72
		c-4.02,2.91-4.34,7.49-1.86,11.86c1.42,2.52,4.76,1.98,5.32,1.4c0,0,13.49-5.51,31.53-5.51s31.52,5.51,31.52,5.51
		c0.56,0.58,3.89,1.12,5.32-1.4C101.4,38.22,101.08,33.64,97.06,30.73z"/>
</g>
<path id="nose_1_" style="fill:#DBA689;" d="M67.79,68.38c-0.1-0.04-0.21-0.07-0.32-0.08h-6.94c-0.11,0.01-0.21,0.04-0.32,0.08
	c-0.63,0.25-0.97,0.91-0.68,1.6s1.68,2.64,4.46,2.64c2.79,0,4.17-1.95,4.46-2.64C68.76,69.29,68.42,68.64,67.79,68.38z"/>
<g>
	
		<radialGradient id="SVGID_9_" cx="81.3625" cy="29.0313" r="11.7231" gradientTransform="matrix(0.8655 -0.5008 -0.9673 -1.6717 39.0208 190.2485)" gradientUnits="userSpaceOnUse">
		<stop  offset="0" style="stop-color:#E0E0E0"/>
		<stop  offset="0.6561" style="stop-color:#F5F5F5"/>
	</radialGradient>
	<path style="fill:url(#SVGID_9_);" d="M96.24,103c-0.8,1.87-5.27,4.58-10.09,6.49l-0.08-2.37c0-6.09-1.08-11.33-6.49-14.19
		c-1.14-0.53-2.61-1.17-3.75-1.34c1.57-0.79,4.13-2.27,5.82-3.25c0.51-0.3,1.04-0.43,1.57-0.43c3.59,0,7.33,6.1,8.8,7.8
		C93.58,97.49,96.93,101.36,96.24,103z"/>
	
		<linearGradient id="SVGID_10_" gradientUnits="userSpaceOnUse" x1="31.6716" y1="28.637" x2="74.3795" y2="28.637" gradientTransform="matrix(1 0 0 -1 0 130)">
		<stop  offset="0.6763" style="stop-color:#F5F5F5"/>
		<stop  offset="1" style="stop-color:#E0E0E0"/>
	</linearGradient>
	<path style="fill:url(#SVGID_10_);" d="M71.68,112.89c-1.83,0.18-4.65,0.34-6.5,0.34c-0.4,0-0.79-0.01-1.18-0.01
		c-0.4,0-0.78,0.01-1.19,0.01c-14.49,0-29.27-6.02-31.05-10.21c-0.69-1.64,2.66-5.52,4.22-7.3c1.47-1.69,5.29-6.22,9.11-6.22
		c0.56,0,1.12,0.1,1.67,0.31c6.5,2.55,8.73,4.57,18.28,3.48c0,0,5.94,7.26,6.22,10.71C71.4,105.77,71.7,109.14,71.68,112.89z"/>
	<g id="collar_1_">
		<g>
			<path style="fill:#FAFAFA;" d="M87.14,106.67c0-6.09-1.7-12.21-6.84-14.6c-1.86-0.86-3.77-1.19-5.6-1.19
				c-5.75,0-10.39,2.5-10.39,2.5s5.96,7.31,6.24,10.77c0.28,3.44,0.16,12.71,0.01,19.86h17.12L87.14,106.67z"/>
		</g>
	</g>
</g>
</svg>
