<?xml version="1.0" encoding="utf-8"?>
<!-- Generator: Adobe Illustrator 24.0.3, SVG Export Plug-In . SVG Version: 6.00 Build 0)  -->
<svg version="1.1" id="Layer_1" xmlns="http://www.w3.org/2000/svg" xmlns:xlink="http://www.w3.org/1999/xlink" x="0px" y="0px"
	 viewBox="0 0 128 128" style="enable-background:new 0 0 128 128;" xml:space="preserve">
<g id="hairGroup_1_">
	<path id="hair_10_" style="fill:#312D2D;" d="M57.15,2.83c-41.01,0-40.68,37.92-40.68,38.52c0,24.56,1.88,59.25,11.71,72.9
		c3.9,5.41,11.43,5.71,11.43,5.71l16.97-0.03l16.97,0.03c0,0,7.54-0.3,11.43-5.71c9.83-13.65,11.71-48.34,11.71-72.9
		C96.68,40.74,98.16,2.83,57.15,2.83z"/>
	
		<radialGradient id="hairHighlights_2_" cx="56.5793" cy="69.608" r="47.5316" gradientTransform="matrix(1 0 0 -1.1901 0 141.2304)" gradientUnits="userSpaceOnUse">
		<stop  offset="0.7936" style="stop-color:#454140;stop-opacity:0"/>
		<stop  offset="1" style="stop-color:#454140"/>
	</radialGradient>
	<path id="hairHighlights_1_" style="fill:url(#hairHighlights_2_);" d="M57.15,2.83c-41.01,0-40.68,37.92-40.68,38.52
		c0,24.56,1.88,59.25,11.71,72.9c3.9,5.41,11.43,5.71,11.43,5.71l16.97-0.03l16.97,0.03c0,0,7.54-0.3,11.43-5.71
		c9.83-13.65,11.71-48.34,11.71-72.9C96.68,40.74,98.16,2.83,57.15,2.83z"/>
</g>
<g id="shirt_1_">
	
		<linearGradient id="SVGID_1_" gradientUnits="userSpaceOnUse" x1="4.115" y1="18.201" x2="108.115" y2="18.201" gradientTransform="matrix(1 0 0 -1 0 128)">
		<stop  offset="5.160877e-04" style="stop-color:#E3E3E3"/>
		<stop  offset="1" style="stop-color:#C9C9C9"/>
	</linearGradient>
	<path style="fill:url(#SVGID_1_);" d="M56.25,95.68c-0.04,0-0.09,0-0.13,0c-25.49,0.03-52,7.28-52,25.06v3.18h1.5h1.5h98h1.5h1.5
		v-3.18C108.11,103.98,81.85,95.68,56.25,95.68z"/>
</g>
<path id="neck" style="fill:#EDC391;" d="M64.89,90.08H46.73v9.98c0,4.51,3.7,8.17,8.26,8.17h1.65c4.56,0,8.26-3.66,8.26-8.17v-9.98
	H64.89z"/>
<g id="scarf_1_">
	
		<linearGradient id="SVGID_2_" gradientUnits="userSpaceOnUse" x1="67.6066" y1="36.3734" x2="64.0823" y2="21.6888" gradientTransform="matrix(1 0 0 -1 0 128)">
		<stop  offset="0" style="stop-color:#0053AB"/>
		<stop  offset="0.3617" style="stop-color:#0068BF"/>
		<stop  offset="0.9995" style="stop-color:#008EE3"/>
	</linearGradient>
	<path style="fill:url(#SVGID_2_);" d="M71.54,95.16c1.45,2.18,1.64,7.04-2.61,11.15c-2.49,2.4-6.74,2.73-10.03,2.64
		c-0.67-0.02-1.44-0.16-1.76-0.81c-0.36-0.73,0.11-1.68,0.76-2.1c0.65-0.42,1.42-0.51,2.14-0.75c1.51-0.51,3.9-3.31,4.46-7.46
		c0.36-2.67,0.13-3.89,0.19-4.74C64.73,92.42,70.44,93.51,71.54,95.16z"/>
	
		<linearGradient id="SVGID_3_" gradientUnits="userSpaceOnUse" x1="38.4307" y1="31.6945" x2="59.1067" y2="17.7316" gradientTransform="matrix(1 0 0 -1 0 128)">
		<stop  offset="5.160877e-04" style="stop-color:#008EE3"/>
		<stop  offset="1" style="stop-color:#0053AB"/>
	</linearGradient>
	<path style="fill:url(#SVGID_3_);" d="M41.35,106.62c5.15,3.8,11.58,5.17,17.75,3.6c0.85-0.22,1.86-0.68,1.91-1.56
		c0.06-1.18-1.55-2.4-2.7-2.57c-2.95-0.44-6.33-1.94-8.23-4.25c-1.68-2.05-2.43-3.61-2.37-7.37c0.02-1.47-6.69-0.18-8.4,0.71
		C36.73,96.51,35.37,102.2,41.35,106.62z"/>
	
		<linearGradient id="SVGID_4_" gradientUnits="userSpaceOnUse" x1="-317.7988" y1="47.3262" x2="-317.7988" y2="32.5271" gradientTransform="matrix(0.812 -7.600000e-03 7.600000e-03 -0.8119 317.5721 146.4201)">
		<stop  offset="0" style="stop-color:#0053AB"/>
		<stop  offset="0.9995" style="stop-color:#008EE3"/>
	</linearGradient>
	<path style="fill:url(#SVGID_4_);" d="M56.89,113.5c0.19,4.44,2.5,5.89,1.14,9.45c2.23-1.42,3.77-3.82,4.41-6.39
		c0.64-2.57,0.41-5.3-0.38-7.8c-0.22-0.71-0.51-1.44-1.07-1.93C58.25,104.43,56.82,111.83,56.89,113.5z"/>
	
		<linearGradient id="SVGID_5_" gradientUnits="userSpaceOnUse" x1="62.84" y1="20.5205" x2="72.1136" y2="14.2037" gradientTransform="matrix(1 0 0 -1 0 128)">
		<stop  offset="0" style="stop-color:#0053AB"/>
		<stop  offset="0.9995" style="stop-color:#008EE3"/>
	</linearGradient>
	<path style="fill:url(#SVGID_5_);" d="M65.92,114.04c4.41,1.9,6.73,0.39,9.61,4.98c0.22-3.24-1.03-6.5-3.11-8.97
		s-4.96-4.2-8.02-5.19c-0.88-0.28-1.81-0.51-2.71-0.3C57.29,105.59,61.95,112.33,65.92,114.04z"/>
	
		<ellipse transform="matrix(0.9787 -0.2052 0.2052 0.9787 -20.7744 14.4761)" style="fill:#1565C0;" cx="59.41" cy="107.4" rx="5.3" ry="3.35"/>
</g>
<path id="head" style="fill:#F9DDBD;" d="M56.12,16.04c-17.2,0-33.13,12.79-33.13,39.91c0,21.79,13.49,34.67,25.23,38.83
	c2.8,0.99,5.5,1.49,7.9,1.49c2.38,0,5.07-0.49,7.85-1.47c11.76-4.14,25.28-17.03,25.28-38.84C89.25,28.83,73.32,16.04,56.12,16.04z"
	/>
<path id="nose" style="fill:#DBA689;" d="M60.17,68.05c-0.1-0.04-0.21-0.07-0.32-0.08h-6.99c-0.11,0.01-0.21,0.04-0.32,0.08
	c-0.63,0.26-0.98,0.91-0.68,1.61s1.69,2.66,4.49,2.66s4.19-1.96,4.49-2.66C61.15,68.97,60.81,68.31,60.17,68.05z"/>
<g id="eyes">
	<ellipse style="fill:#312D2D;" cx="40.12" cy="58.87" rx="4.87" ry="5.04"/>
	<ellipse style="fill:#312D2D;" cx="72.61" cy="58.87" rx="4.87" ry="5.04"/>
</g>
<g id="eyebrows">
	<path style="fill:#454140;" d="M47.35,49.82c-0.93-1.23-3.07-3.01-7.23-3.01s-6.31,1.79-7.23,3.01c-0.41,0.54-0.31,1.17-0.02,1.55
		c0.26,0.35,1.04,0.68,1.9,0.39s2.54-1.16,5.35-1.18c2.81,0.02,4.49,0.89,5.35,1.18s1.64-0.03,1.9-0.39
		C47.65,50.99,47.76,50.36,47.35,49.82z"/>
	<path style="fill:#454140;" d="M79.85,49.82c-0.93-1.23-3.07-3.01-7.23-3.01s-6.31,1.79-7.23,3.01c-0.41,0.54-0.31,1.17-0.02,1.55
		c0.26,0.35,1.04,0.68,1.9,0.39s2.54-1.16,5.35-1.18c2.81,0.02,4.49,0.89,5.35,1.18s1.64-0.03,1.9-0.39
		C80.14,50.99,80.25,50.36,79.85,49.82z"/>
</g>
<path id="mouth" style="fill:#444444;" d="M64.43,76.14c-3.15,1.87-13.46,1.87-16.61,0c-1.81-1.07-3.65,0.57-2.9,2.21
	c0.74,1.61,6.37,5.36,11.23,5.36s10.42-3.75,11.16-5.36C68.06,76.71,66.24,75.06,64.43,76.14z"/>
<g id="paint_x5F_gear">
	<path style="fill:#A7A9AC;" d="M109.33,66.8l-3.58,12.62l1.03,0.23c1.1,0.25,2.09,0.69,3.05,1.11c0.35,0.15,0.69,0.3,1.02,0.44
		l1.01,0.41l3.96-12.89L109.33,66.8z"/>
	<path style="fill:#603913;" d="M111.61,79.35c-0.32-0.13-0.64-0.27-0.97-0.42c-1-0.44-2.13-0.94-3.42-1.23l-0.93-0.21l-13.13,46.33
		h5.73l13.56-44.13L111.61,79.35z"/>
	<g>
		
			<linearGradient id="SVGID_6_" gradientUnits="userSpaceOnUse" x1="100.3403" y1="39.0083" x2="99.7822" y2="-6.48" gradientTransform="matrix(1 0 0 -1 0 128)">
			<stop  offset="1.800000e-03" style="stop-color:#FFDBB5"/>
			<stop  offset="1" style="stop-color:#A97C50"/>
		</linearGradient>
		<path style="fill:url(#SVGID_6_);" d="M105.54,89.1c-3.07,0-6.43,0.67-10.01,2.14c-7.87,3.25-13.02,10.14-16.36,17.53
			c-1.7,3.78-2.55,7.49-2.93,11.46c-0.12,1.22-0.14,2.42-0.03,3.7h0.98h0.98h38.76h1.18h1.14C129.62,107.2,121.53,89.1,105.54,89.1z
			"/>
	</g>
	<path style="fill:#00AEEF;" d="M98.95,99.02c-0.34-1.75-1.85-3.31-3.67-3.43c-2.08-0.14-3.15,1.66-3.67,3.41
		c-0.52,1.75-0.55,3.76,0.65,5.25c1.32,1.64,3.72,1.57,5.01-0.04c0.47-0.58,0.82-1.32,1.04-2.1
		C98.94,101.25,99.17,100.12,98.95,99.02z"/>
	<path style="fill:#00C853;" d="M110.32,93.93c-1.73-1.12-4.33-0.09-5.85,0.97c-1.71,1.18-2.96,3.48-2.02,5.54
		c0.93,2.02,3.41,2.62,5.36,1.83c1.71-0.7,3.65-2.57,3.6-4.54C111.9,96.35,111.76,94.85,110.32,93.93z"/>
	<path style="fill:#FFF200;" d="M115.48,103.22c-1.68-0.09-3.47,0.7-4.76,1.74c-1.41,1.13-2.4,2.84-1.49,4.61
		c0.84,1.61,2.79,2.18,4.48,1.99c1.59-0.17,3.12-1.09,4-2.43c0.32-0.48,0.54-1.05,0.59-1.62c0.12-0.31,0.22-0.64,0.26-1
		C118.8,104.61,117.26,103.32,115.48,103.22z"/>
	<path style="fill:#EF4136;" d="M111.88,116.54c-0.81-1.25-2.38-1.71-3.78-1.98c-1.61-0.31-3.49-0.16-4.75,1.03
		c-1.48,1.39-1.19,3.58,0.46,4.67c0.34,0.22,0.74,0.41,1.17,0.57c1.48,1.12,3.4,0.79,5.02,0.19c1.25-0.47,2.28-1.57,2.34-2.85
		c0-0.02,0.01-0.03,0.01-0.05C112.43,117.44,112.23,116.91,111.88,116.54z"/>
	<path style="fill:#00AEEF;" d="M119.5,68.21c-0.15,0.55-0.39,1.08-0.73,1.68c-0.16,0.28-0.34,0.55-0.53,0.8
		c-1.39,1.84-3.51,2.91-5.66,2.91c-0.68,0-1.35-0.1-2.01-0.32c-2.32-0.77-3.9-2.5-4.39-4.75c-0.09-0.37-0.14-0.75-0.16-1.15
		c-0.07-1.15,0.19-2.38,0.78-3.77c0.52-1.22,1.24-2.29,1.93-3.33c0.52-0.79,1.01-1.54,1.43-2.33c0.32-0.64,1.48-3.35,1.94-4.86
		c0.17-0.54,0.61-0.94,1.16-1.04c0.55-0.11,1.12,0.09,1.47,0.53l0.04,0.04C117.32,55.77,121.59,61.02,119.5,68.21z"/>
	<path style="fill:#D1D3D4;" d="M118.24,70.69c-1.39,1.84-3.51,2.91-5.66,2.91c-0.68,0-1.35-0.1-2.01-0.32
		c-2.32-0.77-3.9-2.5-4.39-4.75c4.21,2.72,4.77-5.36,9.23-5.3C119.28,63.28,115.44,69.8,118.24,70.69z"/>
</g>
<g id="hairGroup">
	<path id="hair_5_" style="fill:#312D2D;" d="M57.15,2.83c-41.01,0-40.68,37.92-40.68,38.52c0,7.76,0.19,16.53,0.75,25.32l6.72-0.02
		c-0.06-2.92,1.99-20.97,8.08-22.34c22.36-5.03,35.01-16.89,35.01-16.89c3.29,7.18,13.58,14.19,17.27,16.86
		c3.03,2.19,3.96,18.55,3.9,22.38h7.71c0-0.05,0.02-0.1,0.02-0.16c0.56-8.75,0.74-17.46,0.74-25.17
		C96.68,40.74,98.16,2.83,57.15,2.83z"/>
	
		<radialGradient id="hairHighlights_3_" cx="56.9126" cy="65.5835" r="49.788" gradientTransform="matrix(1 0 0 -1.2135 0 142.0051)" gradientUnits="userSpaceOnUse">
		<stop  offset="0.7945" style="stop-color:#454140;stop-opacity:0"/>
		<stop  offset="1" style="stop-color:#454140"/>
	</radialGradient>
	<path id="hairHighlights" style="fill:url(#hairHighlights_3_);" d="M57.15,2.83c-41.01,0-40.68,37.92-40.68,38.52
		c0,7.76,0.19,16.53,0.75,25.32l6.72-0.02c-0.06-2.92,1.99-20.97,8.08-22.34c22.36-5.03,35.01-16.89,35.01-16.89
		c3.29,7.18,13.58,14.19,17.27,16.86c3.03,2.19,3.96,18.55,3.9,22.38h7.71c0-0.05,0.02-0.1,0.02-0.16
		c0.56-8.75,0.74-17.46,0.74-25.17C96.68,40.74,98.16,2.83,57.15,2.83z"/>
</g>
</svg>
