<?xml version="1.0" encoding="utf-8"?>
<!-- Generator: Adobe Illustrator 24.0.3, SVG Export Plug-In . SVG Version: 6.00 Build 0)  -->
<svg version="1.1" id="Layer_1" xmlns="http://www.w3.org/2000/svg" xmlns:xlink="http://www.w3.org/1999/xlink" x="0px" y="0px"
	 viewBox="0 0 128 128" style="enable-background:new 0 0 128 128;" xml:space="preserve">
<g id="hairGroup_1_">
	<path id="hair_10_" style="fill:#543930;" d="M53.12,3.45c-41.01,0-40.68,37.92-40.68,38.52c0,24.56,1.88,59.25,11.71,72.9
		c3.9,5.41,11.43,5.71,11.43,5.71l16.97-0.03l16.97,0.03c0,0,7.54-0.3,11.43-5.71c9.83-13.65,11.71-48.34,11.71-72.9
		C92.66,41.37,94.13,3.45,53.12,3.45z"/>
	
		<radialGradient id="hairHighlights_2_" cx="52.5513" cy="68.9784" r="47.5316" gradientTransform="matrix(1 0 0 -1.1901 0 141.1106)" gradientUnits="userSpaceOnUse">
		<stop  offset="0.7936" style="stop-color:#6D4C41;stop-opacity:0"/>
		<stop  offset="1" style="stop-color:#6D4C41"/>
	</radialGradient>
	<path id="hairHighlights_1_" style="fill:url(#hairHighlights_2_);" d="M53.12,3.45c-41.01,0-40.68,37.92-40.68,38.52
		c0,24.56,1.88,59.25,11.71,72.9c3.9,5.41,11.43,5.71,11.43,5.71l16.97-0.03l16.97,0.03c0,0,7.54-0.3,11.43-5.71
		c9.83-13.65,11.71-48.34,11.71-72.9C92.66,41.37,94.13,3.45,53.12,3.45z"/>
</g>
<g id="coat_1_">
	
		<radialGradient id="SVGID_1_" cx="53.3278" cy="0.2822" r="68.2194" gradientTransform="matrix(1 0 0 -0.6035 0 127.888)" gradientUnits="userSpaceOnUse">
		<stop  offset="0.5595" style="stop-color:#F5F5F5"/>
		<stop  offset="1" style="stop-color:#C6C6C6"/>
	</radialGradient>
	<path style="fill:url(#SVGID_1_);" d="M51.92,96.45C28.3,96.52,3.81,103.78,3.81,121.5v3.04h96.23v-3.04
		C100.04,103.78,75.54,96.52,51.92,96.45z"/>
	
		<linearGradient id="SVGID_2_" gradientUnits="userSpaceOnUse" x1="87.9225" y1="13.0522" x2="102.3804" y2="11.1369" gradientTransform="matrix(1 0 0 -1 0 128)">
		<stop  offset="0" style="stop-color:#9E9E9E;stop-opacity:0"/>
		<stop  offset="0.788" style="stop-color:#9E9E9E"/>
	</linearGradient>
	<path style="fill:url(#SVGID_2_);" d="M90.03,105.14l-5.82,19.41h15.83v-3.04C100.04,114.46,96.17,109.08,90.03,105.14z"/>
</g>
<g id="neck">
	<path style="fill:#E59600;" d="M52,92.53h-9.08v9.98c0,4.51,3.7,8.17,8.26,8.17h1.65c4.56,0,8.26-3.66,8.26-8.17v-9.98H52z"/>
</g>
<g id="collar_1_">
	
		<linearGradient id="SVGID_3_" gradientUnits="userSpaceOnUse" x1="52.21" y1="22.296" x2="52.21" y2="3.267" gradientTransform="matrix(1 0 0 -1 0 128)">
		<stop  offset="3.200000e-03" style="stop-color:#80CBC4"/>
		<stop  offset="0.3326" style="stop-color:#73C6BE"/>
		<stop  offset="0.9409" style="stop-color:#51B8AE"/>
		<stop  offset="1" style="stop-color:#4DB6AC"/>
	</linearGradient>
	<polygon style="fill:url(#SVGID_3_);" points="62.78,105.7 41.64,105.7 44.06,124.55 60.62,124.55 	"/>
	
		<linearGradient id="SVGID_4_" gradientUnits="userSpaceOnUse" x1="38.665" y1="10.6571" x2="38.665" y2="30.8605" gradientTransform="matrix(1 0 0 -1 0 128)">
		<stop  offset="0.335" style="stop-color:#E0E0E0"/>
		<stop  offset="0.668" style="stop-color:#D0D0D0"/>
		<stop  offset="0.9874" style="stop-color:#BDBDBD"/>
	</linearGradient>
	<path style="fill:url(#SVGID_4_);" d="M43.05,96.77c-5.92,0.43-8.69,0.94-8.69,0.94l-3.13,7.3l5.25,4.39l-4.88,6.15l7.12,9h7.38
		L43.05,96.77z"/>
	
		<linearGradient id="SVGID_5_" gradientUnits="userSpaceOnUse" x1="38.5529" y1="10.6571" x2="38.5529" y2="30.8605" gradientTransform="matrix(-1 0 0 -1 104.1574 128)">
		<stop  offset="0.335" style="stop-color:#E0E0E0"/>
		<stop  offset="0.668" style="stop-color:#D0D0D0"/>
		<stop  offset="0.9874" style="stop-color:#BDBDBD"/>
	</linearGradient>
	<path style="fill:url(#SVGID_5_);" d="M61.22,96.77c5.92,0.43,8.69,0.94,8.69,0.94l3.13,7.3l-5.25,4.39l4.88,6.15l-7.12,9h-7.38
		L61.22,96.77z"/>
</g>
<g id="glove_1_">
	<g>
		<path style="fill:#80CBC4;" d="M122.32,74.01c1.14,7.79-0.11,16.87-0.11,16.87l-10.26-0.9c0,0-0.39-5.91,0-5.92L122.32,74.01z"/>
	</g>
	
		<linearGradient id="SVGID_6_" gradientUnits="userSpaceOnUse" x1="97.9733" y1="22.7848" x2="123.7165" y2="19.3744" gradientTransform="matrix(1 0 0 -1 0 128)">
		<stop  offset="0.4369" style="stop-color:#F5F5F5"/>
		<stop  offset="1" style="stop-color:#C6C6C6"/>
	</linearGradient>
	<path style="fill:url(#SVGID_6_);" d="M111.99,88.35c-6.66-0.81-9.59-1.6-9.59-1.6l-11.34,37.8h28.19l4.14-36.21
		C123.39,88.34,120.24,89.35,111.99,88.35z"/>
	
		<linearGradient id="SVGID_7_" gradientUnits="userSpaceOnUse" x1="118.5669" y1="75.4311" x2="96.0909" y2="22.72" gradientTransform="matrix(1 0 0 -1 0 128)">
		<stop  offset="0" style="stop-color:#B3E5FC;stop-opacity:0.8"/>
		<stop  offset="0.0826" style="stop-color:#AEE3FC;stop-opacity:0.8165"/>
		<stop  offset="0.6744" style="stop-color:#8DD8FA;stop-opacity:0.9349"/>
		<stop  offset="1" style="stop-color:#81D4FA"/>
	</linearGradient>
	<path style="opacity:0.86;fill:url(#SVGID_7_);enable-background:new    ;" d="M110.49,113.13c-2.27,1.4-9.11,0.12-15.75-2.25
		c-5.12-1.83-9.23-4.16-9.27-4.17c-0.53-0.25-5.5-2.95-5.5-5.74c0-2.32,1.96-3.89,2.44-4.43c0.07-0.07,0.1-0.1,0.1-0.1l17.46-17.59
		l13.14-31.8l0.02-0.01c0,0,2.36-0.81,5.67,0.49c3.31,1.3,5.01,3.46,5.01,3.46l-0.02,0.01l-11.85,32.62c0,0,0.03,23.38,0,25.39
		C111.9,111.73,111.58,112.46,110.49,113.13z"/>
	
		<radialGradient id="SVGID_8_" cx="112.4231" cy="39.8748" r="25.3664" gradientTransform="matrix(0.9732 0.2302 0.2302 -0.9732 -8.1274 102.8444)" gradientUnits="userSpaceOnUse">
		<stop  offset="0" style="stop-color:#CE93D8"/>
		<stop  offset="0.2054" style="stop-color:#CA8AD5"/>
		<stop  offset="0.5366" style="stop-color:#BF73CC"/>
		<stop  offset="0.9503" style="stop-color:#AD4CBE"/>
		<stop  offset="1" style="stop-color:#AB47BC"/>
	</radialGradient>
	<path style="opacity:0.8;fill:url(#SVGID_8_);enable-background:new    ;" d="M106.89,111.57c-5.64-2.2-17.38-6.85-23.03-9.14
		c-1.53-0.63-1.93-2.6-0.77-3.77l7.43-7.49l19.51-0.94l0,19.19C110.04,111.04,108.41,112.16,106.89,111.57z"/>
	
		<rect x="99.37" y="97.27" transform="matrix(0.3862 -0.9224 0.9224 0.3862 -31.2497 154.3743)" style="fill:#FFFFFF;" width="2" height="6.8"/>
	
		<rect x="101.39" y="91.82" transform="matrix(0.3862 -0.9224 0.9224 0.3862 -24.9876 152.898)" style="fill:#FFFFFF;" width="2" height="6.8"/>
	
		<rect x="103.42" y="86.39" transform="matrix(0.3862 -0.9224 0.9224 0.3862 -18.7294 151.4282)" style="fill:#FFFFFF;" width="2" height="6.8"/>
	
		<rect x="105.44" y="80.95" transform="matrix(0.3862 -0.9224 0.9224 0.3862 -12.4697 149.9556)" style="fill:#FFFFFF;" width="2" height="6.8"/>
	
		<rect x="107.46" y="75.5" transform="matrix(0.3862 -0.9224 0.9224 0.3862 -6.2081 148.4794)" style="fill:#FFFFFF;" width="2" height="6.8"/>
	
		<rect x="109.48" y="70.07" transform="matrix(0.3861 -0.9224 0.9224 0.3861 0.0518 147.0136)" style="fill:#FFFFFF;" width="2" height="6.8"/>
	
		<rect x="111.5" y="64.63" transform="matrix(0.3861 -0.9224 0.9224 0.3861 6.3133 145.5377)" style="fill:#FFFFFF;" width="2" height="6.8"/>
	
		<rect x="114.01" y="58.3" transform="matrix(0.3861 -0.9224 0.9224 0.3861 13.6879 143.9722)" style="fill:#FFFFFF;" width="2" height="6.8"/>
	
		<rect x="116.04" y="52.86" transform="matrix(0.3861 -0.9224 0.9224 0.3861 19.9471 142.5016)" style="fill:#FFFFFF;" width="2" height="6.8"/>
	<path style="fill:#80CBC4;" d="M98.74,80.1c0,0-2.53-2.14-2.52-4.09c0.01-1.56,1.89-3.04,1.89-3.04s-1.8-2.77-1.14-4.28
		c0.94-2.14,3.41-2.55,3.41-2.55s-1.12-2.79,0.65-4.43c1.26-1.17,4.9-0.68,4.9-0.68s0.36-4.58,4.82-3.43
		c1.74,0.45,7.91,3.99,10.21,11.46c1.44,4.67,2,6.06,1.54,13.06c-0.2,2.97-7.71,2.97-10.54,1.95c-7.05-2.54-9.05-5.64-10.02-5.62
		C100.96,78.46,98.74,80.1,98.74,80.1z"/>
	<g>
		<path style="fill:#26A69A;" d="M99.61,71.23c-0.72,0.13-1.28,0.71-1.44,1.43l-0.07,0.31l4.18-1.43
			C101.3,71.08,100.33,71.1,99.61,71.23z"/>
		<path style="fill:#26A69A;" d="M104.69,66.42c-0.57-0.63-1.23-0.99-1.82-1.2c-0.94-0.33-1.98,0.07-2.5,0.92l0,0L104.69,66.42z"/>
		<path style="fill:#26A69A;" d="M107.98,60.37c-0.73-0.29-1.6-0.07-2.04,0.58c-0.01,0.02-0.02,0.04-0.03,0.05
			c1.78,0.22,4.45,1.34,4.45,1.34C109.82,61.28,108.8,60.69,107.98,60.37z"/>
	</g>
	<g>
		
			<ellipse transform="matrix(0.3668 -0.9303 0.9303 0.3668 -37.5134 156.1842)" style="fill:#8F5D9B;" cx="95.98" cy="105.65" rx="3.35" ry="14.43"/>
	</g>
	
		<ellipse transform="matrix(0.3664 -0.9305 0.9305 0.3664 29.0836 141.4058)" style="fill:#81D4FA;" cx="118.37" cy="49.35" rx="3.09" ry="5.73"/>
</g>
<g id="head_1_">
	<path style="fill:#FFCA28;" d="M52.11,16.04L52.11,16.04L52.11,16.04c-17.2,0-33.13,12.79-33.13,39.91
		c0,21.78,13.49,34.67,25.23,38.83c2.8,0.99,5.5,1.49,7.9,1.49c2.38,0,5.07-0.49,7.85-1.47c11.76-4.14,25.28-17.03,25.28-38.84
		C85.24,28.83,69.31,16.04,52.11,16.04z"/>
</g>
<path id="nose" style="fill:#E59600;" d="M55.86,68.26c-0.11-0.04-0.21-0.07-0.32-0.08h-7.08c-0.11,0.01-0.22,0.04-0.32,0.08
	c-0.64,0.26-0.99,0.92-0.69,1.63c0.3,0.71,1.71,2.69,4.55,2.69s4.25-1.99,4.55-2.69C56.85,69.19,56.5,68.52,55.86,68.26z"/>
<path id="mouth" style="fill:#795548;" d="M60.53,76.35c-3.19,1.89-13.63,1.89-16.81,0c-1.83-1.09-3.7,0.58-2.94,2.24
	c0.75,1.63,6.44,5.42,11.37,5.42s10.55-3.79,11.3-5.42C64.2,76.92,62.36,75.26,60.53,76.35z"/>
<g id="eyebrows">
	<path style="fill:#6D4C41;" d="M43.77,49.97c-0.93-1.23-3.07-3.01-7.23-3.01s-6.31,1.79-7.23,3.01c-0.41,0.54-0.31,1.17-0.02,1.55
		c0.26,0.35,1.04,0.68,1.9,0.39s2.54-1.16,5.35-1.18c2.81,0.02,4.49,0.89,5.35,1.18c0.86,0.29,1.64-0.03,1.9-0.39
		C44.08,51.15,44.18,50.52,43.77,49.97z"/>
	<path style="fill:#6D4C41;" d="M74.92,49.97c-0.93-1.23-3.07-3.01-7.23-3.01s-6.31,1.79-7.23,3.01c-0.41,0.54-0.31,1.17-0.02,1.55
		c0.26,0.35,1.04,0.68,1.9,0.39s2.54-1.16,5.35-1.18c2.81,0.02,4.49,0.89,5.35,1.18c0.86,0.29,1.64-0.03,1.9-0.39
		C75.22,51.15,75.32,50.52,74.92,49.97z"/>
</g>
<g id="eyes">
	<ellipse style="fill:#404040;" cx="36.54" cy="59.02" rx="4.93" ry="5.1"/>
	<ellipse style="fill:#404040;" cx="67.68" cy="59.02" rx="4.93" ry="5.1"/>
</g>
<g id="goggles">
	
		<linearGradient id="SVGID_9_" gradientUnits="userSpaceOnUse" x1="51.6545" y1="83.691" x2="51.6545" y2="59.498" gradientTransform="matrix(1 0 0 -1 0 128)">
		<stop  offset="0.2028" style="stop-color:#B3E5FC;stop-opacity:0.5"/>
		<stop  offset="1" style="stop-color:#B3E5FC;stop-opacity:0.2"/>
	</linearGradient>
	<path style="fill:url(#SVGID_9_);" d="M31.1,44.31h42.65l5.79,5.1v15.03c0,0-3.94,5.5-13.44,3.19s-8.23-8.05-13.88-8.05
		s-8.25,9.17-20.62,8.92c0,0-6.38-0.56-7.56-4.56l-0.27-16.61L31.1,44.31z"/>
	<g>
		
			<linearGradient id="SVGID_10_" gradientUnits="userSpaceOnUse" x1="80.2091" y1="72.2195" x2="80.2091" y2="84.847" gradientTransform="matrix(1 0 0 -1 0 128)">
			<stop  offset="0" style="stop-color:#BDBDBD"/>
			<stop  offset="1" style="stop-color:#E0E0E0"/>
		</linearGradient>
		<path style="fill:url(#SVGID_10_);" d="M88.28,54.76c0.01,0.67-0.19,1.32-0.57,1.87l-5.47,8.05c-2.06,2.85-9.3,4.43-9.3,4.43
			l8.18-9.14l-1.56-11.5l-7.43-5.8c0,0,3.07,0.3,5.24,0.3s4.33,1.39,5.44,2.16l4.02,2.77c0.88,0.61,1.4,1.6,1.41,2.67L88.28,54.76z"
			/>
	</g>
	<g>
		
			<linearGradient id="SVGID_11_" gradientUnits="userSpaceOnUse" x1="24.0409" y1="72.3862" x2="24.0409" y2="84.5081" gradientTransform="matrix(1 0 0 -1 0 128)">
			<stop  offset="0" style="stop-color:#BDBDBD"/>
			<stop  offset="1" style="stop-color:#E0E0E0"/>
		</linearGradient>
		<path style="fill:url(#SVGID_11_);" d="M15.97,54.76c-0.01,0.67,0.19,1.32,0.57,1.87L22,64.68c2.06,2.85,9.3,4.43,9.3,4.43
			l-8.18-9.14l1.56-11.5l7.43-5.8c0,0-3.07,0.3-5.24,0.3s-4.33,1.39-5.44,2.16l-4.02,2.77c-0.88,0.61-1.4,1.6-1.41,2.67L15.97,54.76
			z"/>
	</g>
	<g>
		
			<radialGradient id="SVGID_12_" cx="52.1109" cy="71.87" r="22.8959" gradientTransform="matrix(1.030000e-13 1 1.4084 -1.450000e-13 -49.1107 4.0171)" gradientUnits="userSpaceOnUse">
			<stop  offset="0" style="stop-color:#F5F5F5"/>
			<stop  offset="0.6761" style="stop-color:#EEEEEE"/>
			<stop  offset="1" style="stop-color:#E0E0E0"/>
		</radialGradient>
		<path style="fill:url(#SVGID_12_);" d="M71.58,45.63c1.1,0,2.93,0.35,4.48,1.34c2.1,1.34,2.16,2.89,2.18,3.4
			c0.03,0.77,0.06,1.51,0.1,2.25c0.1,2.31,0.2,4.49,0.2,6.61c0,4.35-3.91,7.38-9.5,7.38c-3.95,0-8.42-3.33-10.46-5.57
			c-1.6-1.75-3.96-2.76-6.48-2.76c-2.52,0-4.88,1.01-6.48,2.76c-2.04,2.24-6.51,5.57-10.46,5.57c-5.59,0-9.5-3.03-9.5-7.38
			c0-2.13,0.1-4.31,0.2-6.61c0.03-0.74,0.07-1.49,0.1-2.25c0.02-0.51,0.08-2.06,2.18-3.4c1.55-0.99,3.38-1.34,4.48-1.34L71.58,45.63
			 M71.58,42.63H32.64c-3.58,0-9.44,2.3-9.66,7.62c-0.13,3.2-0.3,6.1-0.3,8.99c0,6,5.21,10.38,12.5,10.38c5,0,10.15-3.78,12.67-6.55
			c1.08-1.18,2.67-1.78,4.26-1.78s3.19,0.6,4.26,1.78c2.53,2.77,7.67,6.55,12.67,6.55c7.29,0,12.5-4.38,12.5-10.38
			c0-2.88-0.17-5.79-0.3-8.99C81.03,44.93,75.17,42.63,71.58,42.63L71.58,42.63z"/>
	</g>
</g>
<g id="hairGroup">
	<path id="hair_5_" style="fill:#543930;" d="M53.12,3.45c-41.01,0-40.68,37.92-40.68,38.52c0,7.76,0.19,16.53,0.75,25.32l6.72-0.02
		c-0.06-2.92,1.99-20.97,8.08-22.34c22.36-5.03,35.01-16.89,35.01-16.89c3.29,7.18,13.58,14.19,17.27,16.86
		c3.03,2.19,3.96,18.55,3.9,22.38h7.71c0-0.05,0.02-0.1,0.02-0.16c0.56-8.75,0.74-17.46,0.74-25.17
		C92.66,41.37,94.13,3.45,53.12,3.45z"/>
	
		<radialGradient id="hairHighlights_3_" cx="52.8846" cy="64.9539" r="49.788" gradientTransform="matrix(1 0 0 -1.2135 0 141.8707)" gradientUnits="userSpaceOnUse">
		<stop  offset="0.7945" style="stop-color:#6D4C41;stop-opacity:0"/>
		<stop  offset="1" style="stop-color:#6D4C41"/>
	</radialGradient>
	<path id="hairHighlights" style="fill:url(#hairHighlights_3_);" d="M53.12,3.45c-41.01,0-40.68,37.92-40.68,38.52
		c0,7.76,0.19,16.53,0.75,25.32l6.72-0.02c-0.06-2.92,1.99-20.97,8.08-22.34c22.36-5.03,35.01-16.89,35.01-16.89
		c3.29,7.18,13.58,14.19,17.27,16.86c3.03,2.19,3.96,18.55,3.9,22.38h7.71c0-0.05,0.02-0.1,0.02-0.16
		c0.56-8.75,0.74-17.46,0.74-25.17C92.66,41.37,94.13,3.45,53.12,3.45z"/>
</g>
</svg>
