<?xml version="1.0" encoding="utf-8"?>
<!-- Generator: Adobe Illustrator 24.1.2, SVG Export Plug-In . SVG Version: 6.00 Build 0)  -->
<svg version="1.1" id="Layer_1" xmlns="http://www.w3.org/2000/svg" xmlns:xlink="http://www.w3.org/1999/xlink" x="0px" y="0px"
	 viewBox="0 0 128 128" style="enable-background:new 0 0 128 128;" xml:space="preserve">
<g>
	<g id="hair_8_">
		<path id="hair_9_" style="fill:#312D2D;" d="M5.43,74.62c0.06-0.26,4.95-29.34,30.8-27.08c15.04,1.31,25.48,11.52,25.6,26.61
			c0.04,5.32,0.22,14.51-0.22,18.69c-1.83,17.58-7.74,28.43-8.53,28.63c-4.16,1.02-41.34,3.35-44.09-2.23
			C2.65,106.44,3.99,83.56,5.43,74.62z"/>
	</g>
	
		<linearGradient id="SVGID_1_" gradientUnits="userSpaceOnUse" x1="1210.7977" y1="123.5179" x2="1210.7977" y2="110.8654" gradientTransform="matrix(-1 0 0 1 1241.6432 0)">
		<stop  offset="0" style="stop-color:#530EEB"/>
		<stop  offset="1" style="stop-color:#651FFF"/>
	</linearGradient>
	<path style="fill:url(#SVGID_1_);" d="M27.08,111.11h3.76h3.76c8.69-0.66,21.56,3.24,24.47,12.89H30.85H2.61
		C5.52,114.36,18.39,110.45,27.08,111.11z"/>
	<path id="neck_2_" style="fill:#EDC391;" d="M30.61,117.83L30.61,117.83c-3.76,0-6.8-3.05-6.8-6.8v-4.54h13.61v4.54
		C37.41,114.79,34.36,117.83,30.61,117.83z"/>
	<g id="face_1_">
		<g id="head_1_">
			<path style="fill:#F9DDBD;" d="M37.51,55.63L37.51,55.63L37.51,55.63C25.36,54.14,13,61.79,10.64,80.95
				c-1.89,15.39,6.52,25.66,14.46,29.61c1.89,0.94,3.76,1.53,5.45,1.74c1.68,0.21,3.62,0.09,5.67-0.36
				c8.66-1.9,19.33-9.84,21.23-25.25C59.8,67.53,49.66,57.12,37.51,55.63z"/>
		</g>
		<path id="nose_1_" style="fill:#DBA689;" d="M36.63,94.22c-0.07-0.04-0.14-0.07-0.22-0.08l-4.94-0.61c-0.08,0-0.15,0.01-0.23,0.03
			c-0.47,0.13-0.77,0.56-0.62,1.08c0.15,0.52,0.96,2.03,2.94,2.27c1.98,0.24,3.13-1.02,3.41-1.49
			C37.25,94.95,37.06,94.46,36.63,94.22z"/>
		<g id="eyebrows_1_">
			<path style="fill:#454140;" d="M29.03,80.21c-0.55-0.95-1.91-2.4-4.85-2.76s-4.61,0.71-5.37,1.5c-0.34,0.35-0.32,0.8-0.15,1.09
				c0.16,0.27,0.68,0.57,1.31,0.44c0.63-0.13,1.89-0.6,3.88-0.37c1.99,0.26,3.1,1.02,3.68,1.3c0.58,0.28,1.16,0.12,1.38-0.11
				C29.14,81.06,29.27,80.63,29.03,80.21z"/>
			<path style="fill:#454140;" d="M52.23,83.06c-0.55-0.95-1.91-2.4-4.85-2.76s-4.61,0.71-5.37,1.5c-0.34,0.35-0.32,0.8-0.15,1.09
				c0.16,0.27,0.68,0.57,1.31,0.44c0.63-0.13,1.89-0.6,3.88-0.37c1.99,0.26,3.1,1.02,3.68,1.3c0.58,0.28,1.16,0.12,1.38-0.11
				C52.35,83.91,52.48,83.48,52.23,83.06z"/>
		</g>
		<g id="eyes_1_">
			
				<ellipse transform="matrix(0.1219 -0.9925 0.9925 0.1219 -47.4729 123.9972)" style="fill:#312D2D;" cx="46.34" cy="88.83" rx="3.59" ry="3.46"/>
			
				<ellipse transform="matrix(0.1219 -0.9925 0.9925 0.1219 -65.0243 98.4599)" style="fill:#312D2D;" cx="23.13" cy="85.98" rx="3.59" ry="3.46"/>
		</g>
		<path id="mouth_1_" style="fill:#444444;" d="M39.11,100.32c-2.39,1.05-9.67,0.15-11.73-1.44c-1.18-0.92-2.63,0.08-2.24,1.31
			c0.38,1.2,4.03,4.34,7.47,4.76c3.44,0.42,7.69-1.74,8.35-2.82C41.63,101.04,40.48,99.72,39.11,100.32z"/>
	</g>
	<path id="hair_7_" style="fill:#312D2D;" d="M36.22,47.55C10.37,45.29,5.49,74.36,5.43,74.62c-0.67,4.18-1.32,11.4-1.18,19.21
		l7.24,0.51c-0.22-3.96,2.88-19.14,9.42-19.61c16.27-1.19,23.71-8.59,23.71-8.59c1.7,5.36,8.36,11.2,10.74,13.41
		c1.95,1.81,0.84,11.69,0.47,14.4h5.66c0.04-0.36,0.08-0.72,0.12-1.09c0.43-4.18,0.26-13.37,0.22-18.69
		C61.7,59.06,51.26,48.86,36.22,47.55z"/>
	
		<radialGradient id="hairHighlights_1_" cx="33.6622" cy="88.578" r="30.7367" gradientTransform="matrix(0.9988 0.0497 -0.0666 1.3393 5.9395 -31.7222)" gradientUnits="userSpaceOnUse">
		<stop  offset="0.7651" style="stop-color:#454140;stop-opacity:0"/>
		<stop  offset="0.9659" style="stop-color:#454140"/>
	</radialGradient>
	<path id="hairHighlights" style="fill:url(#hairHighlights_1_);" d="M61.82,74.15c-0.12-15.09-10.56-25.29-25.6-26.61
		C10.37,45.29,5.49,74.36,5.43,74.62c-1.34,8.35-2.6,28.87,2.4,41.97c5.33-4.24,13.28-5.94,19.25-5.48h3.76h3.76
		c6.52-0.5,15.39,1.57,20.64,6.71c2.12-4.59,5.14-13.29,6.35-24.98C62.04,88.67,61.86,79.47,61.82,74.15z"/>
</g>
<g>
	<path style="fill:#EF5592;" d="M78.41,3.74C67.87,3.74,64,14.5,64,14.5S60.18,3.74,49.57,3.74c-7.97,0-17.07,6.32-13.71,20.68
		c3.36,14.36,28.16,32.26,28.16,32.26s24.72-17.9,28.08-32.26C95.46,10.06,87.02,3.74,78.41,3.74z"/>
	<g>
		<path style="fill:#DA2E75;" d="M47.94,4.81c8.27,0,12.38,8.89,13.71,12.5c0.19,0.51,0.91,0.53,1.12,0.03l1.21-2.83
			c-1.71-5.45-6.4-10.77-14.41-10.77c-3.32,0-6.82,1.1-9.55,3.41C42.42,5.56,45.25,4.81,47.94,4.81z"/>
		<path style="fill:#DA2E75;" d="M78.41,3.74c-2.55,0-4.7,0.74-6.51,1.85c1.27-0.49,2.68-0.78,4.23-0.78
			c7.8,0,14.77,5.91,11.62,19.58c-2.7,11.73-18.5,25.96-23.32,31.39c-0.31,0.35-0.41,0.91-0.41,0.91s24.72-17.9,28.08-32.26
			C95.46,10.06,86.38,3.74,78.41,3.74z"/>
	</g>
	<g>
		<g>
			<g>
				<path style="fill:#F386AB;" d="M41.4,11.36c1.8-2.25,5.03-4.11,7.76-1.97c1.48,1.16,0.83,3.54-0.49,4.54
					c-1.93,1.46-3.6,2.34-4.77,4.63c-0.7,1.38-1.13,2.88-1.34,4.42c-0.08,0.61-0.88,0.75-1.18,0.22
					C39.34,19.6,38.77,14.65,41.4,11.36z"/>
			</g>
		</g>
	</g>
	<path style="fill:#F386AB;" d="M70.31,16.09c-0.85,0-1.44-0.82-1.13-1.61c0.57-1.45,1.31-2.86,2.2-4.11
		c1.32-1.85,3.82-2.92,5.41-1.81c1.63,1.15,1.42,3.43,0.27,4.54C74.61,15.49,71.53,16.09,70.31,16.09z"/>
</g>
<g>
	<g id="hair_2_">
		<path id="hair_3_" style="fill:#3C2C23;" d="M122.57,74.62c-0.06-0.26-4.95-29.34-30.8-27.08c-15.04,1.31-25.48,11.52-25.6,26.61
			c-0.04,5.32-0.22,14.51,0.22,18.69c1.83,17.58,7.74,28.43,8.53,28.63c4.16,1.02,41.34,3.35,44.09-2.23
			C125.35,106.44,124.01,83.56,122.57,74.62z"/>
	</g>
	<linearGradient id="SVGID_2_" gradientUnits="userSpaceOnUse" x1="97.2363" y1="123.5179" x2="97.2363" y2="110.8654">
		<stop  offset="0" style="stop-color:#9900E6"/>
		<stop  offset="1" style="stop-color:#AA00FF"/>
	</linearGradient>
	<path style="fill:url(#SVGID_2_);" d="M101,111.11h-3.76h-3.76C84.78,110.45,71.91,114.36,69,124h28.23h28.23
		C122.57,114.36,109.69,110.45,101,111.11z"/>
	<path id="neck" style="fill:#7A4C32;" d="M97,117.83L97,117.83c-3.76,0-6.8-3.05-6.8-6.8v-4.54h13.61v4.54
		C103.8,114.79,100.75,117.83,97,117.83z"/>
	<g id="face_125_">
		<g id="head_349_">
			<path style="fill:#A56C43;" d="M90.49,55.63L90.49,55.63L90.49,55.63c12.15-1.49,24.51,6.16,26.86,25.32
				c1.89,15.39-6.52,25.66-14.46,29.61c-1.89,0.94-3.76,1.53-5.45,1.74c-1.68,0.21-3.62,0.09-5.67-0.36
				c-8.66-1.9-19.33-9.84-21.23-25.25C68.2,67.53,78.34,57.12,90.49,55.63z"/>
		</g>
		<path id="nose_177_" style="fill:#875334;" d="M91.37,94.22c0.07-0.04,0.14-0.07,0.22-0.08l4.94-0.61c0.08,0,0.15,0.01,0.23,0.03
			c0.47,0.13,0.77,0.56,0.62,1.08c-0.15,0.52-0.96,2.03-2.94,2.27c-1.98,0.24-3.13-1.02-3.41-1.49
			C90.75,94.95,90.94,94.46,91.37,94.22z"/>
		<g id="eyebrows_178_">
			<path style="fill:#42312C;" d="M98.97,80.21c0.55-0.95,1.91-2.4,4.85-2.76s4.61,0.71,5.37,1.5c0.34,0.35,0.32,0.8,0.15,1.09
				c-0.16,0.27-0.68,0.57-1.31,0.44c-0.63-0.13-1.89-0.6-3.88-0.37c-1.99,0.26-3.1,1.02-3.68,1.3c-0.58,0.28-1.16,0.12-1.38-0.11
				C98.86,81.06,98.73,80.63,98.97,80.21z"/>
			<path style="fill:#42312C;" d="M75.77,83.06c0.55-0.95,1.91-2.4,4.85-2.76s4.61,0.71,5.37,1.5c0.34,0.35,0.32,0.8,0.15,1.09
				c-0.16,0.27-0.68,0.57-1.31,0.44c-0.63-0.13-1.89-0.6-3.88-0.37c-1.99,0.26-3.1,1.02-3.68,1.3c-0.58,0.28-1.16,0.12-1.38-0.11
				C75.65,83.91,75.52,83.48,75.77,83.06z"/>
		</g>
		<g id="eyes_175_">
			
				<ellipse transform="matrix(0.9925 -0.1219 0.1219 0.9925 -10.2167 10.6139)" style="fill:#42312C;" cx="81.66" cy="88.83" rx="3.46" ry="3.59"/>
			
				<ellipse transform="matrix(0.9925 -0.1219 0.1219 0.9925 -9.6964 13.421)" style="fill:#42312C;" cx="104.87" cy="85.98" rx="3.46" ry="3.59"/>
		</g>
		<path id="mouth_103_" style="fill:#473530;" d="M88.89,100.32c2.39,1.05,9.67,0.15,11.73-1.44c1.18-0.92,2.63,0.08,2.24,1.31
			c-0.38,1.2-4.03,4.34-7.47,4.76c-3.44,0.42-7.69-1.74-8.35-2.82C86.37,101.04,87.52,99.72,88.89,100.32z"/>
	</g>
	<g id="hair_1_">
		<path id="hair" style="fill:#3C2C23;" d="M123.74,94.36c0.18-8.02-0.48-15.47-1.17-19.74c-0.06-0.26-4.95-29.34-30.8-27.08
			c-15.04,1.31-25.48,11.52-25.6,26.61c-0.04,5.32-0.22,14.51,0.22,18.69c0.04,0.37,0.08,0.73,0.12,1.09h5.43
			c-0.37-2.7-0.42-5.33-0.01-7.96c1.53-9.93,15.32-7.43,26.9-19.86c0,0,4.28,5.49,13.07,11.26c5.44,3.57,4.59,13,4.37,16.96
			L123.74,94.36z"/>
		
			<radialGradient id="hairHighlights_2_" cx="1153.7797" cy="88.5548" r="30.7367" gradientTransform="matrix(-0.9988 0.0497 0.0666 1.3393 1240.7985 -87.3355)" gradientUnits="userSpaceOnUse">
			<stop  offset="0.7651" style="stop-color:#554138;stop-opacity:0"/>
			<stop  offset="0.9659" style="stop-color:#554138"/>
		</radialGradient>
		<path id="hairHighlights_4_" style="fill:url(#hairHighlights_2_);" d="M66.18,74.13c0.12-15.09,10.56-25.29,25.6-26.61
			c25.85-2.26,30.74,26.82,30.8,27.08c1.34,8.35,2.6,28.87-2.4,41.97c-5.33-4.24-13.28-5.94-19.25-5.48h-3.76h-3.76
			c-6.52-0.5-15.39,1.57-20.64,6.71c-2.12-4.59-5.14-13.29-6.35-24.98C65.96,88.65,66.14,79.45,66.18,74.13z"/>
	</g>
</g>
</svg>
