<?xml version="1.0" encoding="utf-8"?>
<!-- Generator: Adobe Illustrator 24.0.3, SVG Export Plug-In . SVG Version: 6.00 Build 0)  -->
<svg version="1.1" id="Layer_1" xmlns="http://www.w3.org/2000/svg" xmlns:xlink="http://www.w3.org/1999/xlink" x="0px" y="0px"
	 viewBox="0 0 128 128" style="enable-background:new 0 0 128 128;" xml:space="preserve">
<g id="head">
	<path id="head_2_" style="fill:#A56C43;" d="M87,13.49c-2.54-4.1-8.28-7.29-13.04-6.5c-5.33,0.88-8.19,4.72-8.95,9.58
		c-0.27,1.76-0.22,3.52,0.08,4.77c0.04,0.15,0.33,1.23,0.35,1.58c0.2,1.31-2.34,2.62-2.64,4.06c-0.22,1.09,2.05,1.78,2.23,1.98
		c0.89,0.98-0.52,5.63,5.72,6.1c2.4,0.18,1.93,0.03,2.63,0.3c1.1,0.42,1,3.36,1,3.36s0.61,4.82,4.74,3.55
		c4.71-1.46,4.89-4.78,4.89-4.78s-1.75-4.65,1.06-9.48C87.31,24.13,88.63,16.12,87,13.49z"/>
</g>
<path id="mouth_2_" style="fill:#473530;" d="M65.66,31.55c0.86,0.05,1.72-0.15,2.45-0.69c0.8-0.59,0.25-1.25-0.66-0.86
	c-0.55,0.24-1.33,0.35-2.04,0.22L65.66,31.55z"/>
<ellipse id="eye_2_" transform="matrix(0.9995 -0.0315 0.0315 0.9995 -0.7101 2.1947)" style="fill:#42312C;" cx="69.3" cy="23.63" rx="1.14" ry="1.75"/>
<path id="eyebrow_2_" style="fill:#42312C;" d="M68.41,21.04c-1.13,0.26-1.35-0.48-0.95-1.05c0.3-0.42,0.99-0.75,2.28-0.42
	c1.21,0.31,1.68,1.04,1.99,1.49s0.24,0.87-0.04,0.89C71.3,21.97,69.81,20.71,68.41,21.04z"/>
<g id="hairGroup">
	<path id="hair" style="fill:#3C2C23;" d="M87.53,10.67c-2.32-2.85-6.57-4.7-10.61-4.88c-2.72-0.12-5.34,0.4-7.57,1.48
		c-0.04,0.02-3.95,2.36-4.89,4.43c-1.01,2.21-0.07,3.49,0.16,3.72c0.36,0.36,1.17,0.24,1.17,0.24c1.59-0.14,6.33-0.75,8.91-0.25
		c0.41,0.08,0.86,0.2,1.05,0.57c0.08,0.16,0.16,1.19,0.18,1.37c0.2,2.33,0.03,3.8,0.76,5.25c0.12,0.24,0.59,0.54,0.59,0.54
		l0.93-1.48c0.59-0.85,1.12-1.58,1.9-1.44c2.3,0.41,2.04,4.5-0.63,5.5c0,0,0.36,2.6,2.76,3.55c2.12,0.79,3.03,0.33,3.26-0.64
		c0.49-2.1,1.64-3.32,2.24-4.29c0.71-1.15,1.45-2.33,1.95-5.4C90.18,15.86,89.44,13.01,87.53,10.67z"/>
	
		<radialGradient id="hairHighlights_1_" cx="76.1361" cy="109.1028" r="16.3145" gradientTransform="matrix(0.9932 0.1161 0.1145 -0.9796 -11.7693 119.007)" gradientUnits="userSpaceOnUse">
		<stop  offset="0.5264" style="stop-color:#554138;stop-opacity:0"/>
		<stop  offset="1" style="stop-color:#554138"/>
	</radialGradient>
	<path id="hairHighlights" style="fill:url(#hairHighlights_1_);" d="M87.53,10.67c-2.32-2.85-6.57-4.7-10.61-4.88
		c-2.72-0.12-5.34,0.4-7.57,1.48c-0.04,0.02-4.1,2.37-4.89,4.43c-0.99,2.57-0.07,3.49,0.16,3.72c0.36,0.36,1.17,0.24,1.17,0.24
		c1.59-0.14,6.33-0.75,8.91-0.25c0.41,0.08,0.86,0.2,1.05,0.57c0.08,0.16,0.16,1.19,0.18,1.37c0.2,2.33,0.03,3.8,0.76,5.25
		c0.12,0.24,0.59,0.54,0.59,0.54l0.93-1.48c0.59-0.85,1.12-1.58,1.9-1.44c2.3,0.41,2.04,4.5-0.63,5.5c0,0,0.36,2.6,2.76,3.55
		c2.12,0.79,3.03,0.33,3.26-0.64c0.49-2.1,1.64-3.32,2.24-4.29c0.71-1.15,1.45-2.33,1.95-5.4C90.18,15.86,89.44,13.01,87.53,10.67z"
		/>
</g>
<g id="cane">
	<g>
		
			<linearGradient id="SVGID_1_" gradientUnits="userSpaceOnUse" x1="52.4392" y1="40.7399" x2="31.4911" y2="15.0243" gradientTransform="matrix(0.9991 0.0432 0.0432 -0.9991 3.7744 120.713)">
			<stop  offset="0.4697" style="stop-color:#E0E0E0"/>
			<stop  offset="0.9915" style="stop-color:#BDBDBD"/>
		</linearGradient>
		<polygon style="fill:url(#SVGID_1_);" points="23.68,121.23 21.55,119.19 57.34,81.65 67.22,71.39 69.35,73.42 54.03,89.42 		"/>
		
			<rect x="19.76" y="112.07" transform="matrix(0.69 -0.7239 0.7239 0.69 -73.2028 56.1841)" style="fill:#FF3D00;" width="18.44" height="2.95"/>
		
			<linearGradient id="SVGID_2_" gradientUnits="userSpaceOnUse" x1="34.6207" y1="116.5495" x2="30.6051" y2="120.5633" gradientTransform="matrix(0.9981 0.0607 -0.0607 0.9981 -3.057 0.3117)">
			<stop  offset="0.4697" style="stop-color:#E0E0E0"/>
			<stop  offset="0.9915" style="stop-color:#BDBDBD"/>
		</linearGradient>
		<circle style="fill:url(#SVGID_2_);" cx="21.81" cy="121.05" r="2.86"/>
	</g>
	<path style="fill:#636262;" d="M57.34,81.65l2.15,2.05l11.79-12.28c0.39-0.4,0.37-1.04-0.03-1.43l-0.68-0.65
		c-0.4-0.38-1.04-0.37-1.42,0.03L57.34,81.65z"/>
</g>
<g id="leg_x5F_right">
	<path style="fill:#646464;" d="M104.36,108.76l-14-15.97c-0.87-1-1.39-2.25-1.47-3.57l-1.37-22.35l-15.42,1.7l4.86,23.06
		c0.79,3.73,2.88,7.06,5.91,9.37l16.41,12.53L104.36,108.76z"/>
</g>
<g id="leg_x5F_left">
	<path style="fill:#7C7C7C;" d="M87.33,63.18l-17.49,1.6l-4.5,20.29c-0.83,3.74-1.12,7.59-0.85,11.42l1.63,23.12h6.64l2.94-24.9
		c0,0,4.98-13.26,5.14-13.33c3.26-1.54,7.38-3.89,7.38-9.64C88.22,70.92,87.33,63.18,87.33,63.18z"/>
</g>
<g id="shoe_x5F_left">
	<path style="fill:#4568AD;" d="M73.85,123.98c0.63,0,1.14-0.51,1.14-1.14l0-2.79c0-1.89-1.92-4.05-1.92-4.05h-6.94l-6.25,2.06
		c-1.51,0.59-2.51,2.05-2.53,3.68L57.35,123c0,0.55,0.44,1,1,1L73.85,123.98z"/>
</g>
<g id="shoe_x5F_right">
	<path style="fill:#325599;" d="M108.72,111.9c0.44-0.45,0.44-1.17,0-1.61l-1.97-1.97c-1.34-1.34-4.22-1.51-4.22-1.51l-4.91,4.91
		l-2.96,5.88c-0.65,1.49-0.33,3.23,0.81,4.39l0.89,0.89c0.39,0.39,1.02,0.39,1.41,0L108.72,111.9z"/>
</g>
<radialGradient id="SVGID_3_" cx="73.7035" cy="77.3572" r="21.1882" gradientTransform="matrix(1 0 0 -1 0 130)" gradientUnits="userSpaceOnUse">
	<stop  offset="0.3637" style="stop-color:#00BFA5"/>
	<stop  offset="0.8121" style="stop-color:#00B29A"/>
	<stop  offset="1" style="stop-color:#00AB94"/>
</radialGradient>
<path style="fill:url(#SVGID_3_);" d="M86.15,73.76h-13.9c-2.26,0-4.09-2.17-4.09-4.84l2.14-22.39c0.43-4.09,1.87-7.95,4.66-9.61
	c4.86-3.39,8.56-1.33,9.96,0.79c1,1.52,1.42,3.27,1.65,5.85l2.45,25.34C89.02,71.8,88.41,73.76,86.15,73.76z"/>
<g id="arm_2_">
	
		<linearGradient id="arm_1_" gradientUnits="userSpaceOnUse" x1="78.1825" y1="63.47" x2="75.3918" y2="76.4933" gradientTransform="matrix(1 0 0 -1 0 130)">
		<stop  offset="0.5979" style="stop-color:#A56C43"/>
		<stop  offset="1" style="stop-color:#8D5738"/>
	</linearGradient>
	<path id="arm" style="fill:url(#arm_1_);" d="M86.11,57.33l-1.8-9.96l-8,0.86l2.46,9.94l-9.36,9.69c-2.65,2.67,2.19,5.24,3.9,4.14
		l8.52-6.89C83.34,63.81,86.56,61.6,86.11,57.33z"/>
</g>
<g id="hand_1_">
	
		<linearGradient id="hand_2_" gradientUnits="userSpaceOnUse" x1="72.5151" y1="61.3426" x2="64.143" y2="53.9008" gradientTransform="matrix(1 0 0 -1 0 130)">
		<stop  offset="0.5979" style="stop-color:#A56C43"/>
		<stop  offset="1" style="stop-color:#8D5738"/>
	</linearGradient>
	<path id="hand" style="fill:url(#hand_2_);" d="M70.57,68.37c0.16-0.12,0.24-0.34,0.18-0.55c-0.08-0.26-0.37-0.41-0.63-0.32
		c-0.02,0.01-2.85,0.93-4.49,1.58c-0.47,0.19-1.9,0.75-1.94,2.5c-0.03,1.33-0.04,3.58-0.04,3.58l2.31-2.4
		c-0.06,0.89-0.13,2.8-0.15,3.59c-0.04,1.33,0.98,1.86,2.35,1.12c2.06-1.11,3.26-1.39,4.19-2.88c0.29-0.48,0.78-3.59,0.96-4.24
		L70.57,68.37z"/>
</g>
<g id="arm_x5F_shirt">
	<path style="fill:#04A287;" d="M75.64,53.35l10.84-1.97l-1.75-9.67c-0.54-2.98-3.39-4.96-6.37-4.42l-0.05,0.01
		c-2.98,0.54-4.96,3.39-4.42,6.37L75.64,53.35z"/>
</g>
<path id="cord_2_" style="fill:#504F4F;" d="M77.28,73.04c-1.11-3.09-4.96-6.54-8.13-6.25c-2.2,0-2.12,1.77-2.12,1.77l2.25-0.78
	c2.33-0.29,6.09,2.94,7.05,5.6c0.37,1.04,0.55,2.45-0.75,3.26c-0.18,0.11-0.36,0.13-0.56,0.06c-0.6-0.22-1.76-1.76-2.41-2.92
	c0,0-0.11,0.6-0.26,0.83C72.26,74.74,72,75.08,72,75.08c0.63,1.03,1.86,2.26,2.68,2.55c0.19,0.07,0.39,0.1,0.57,0.1
	c0.3,0,0.59-0.08,0.85-0.25C77.55,76.59,77.97,74.97,77.28,73.04z"/>
</svg>
