<?xml version="1.0" encoding="utf-8"?>
<!-- Generator: Adobe Illustrator 25.2.3, SVG Export Plug-In . SVG Version: 6.00 Build 0)  -->
<svg version="1.1" id="Layer_9" xmlns="http://www.w3.org/2000/svg" xmlns:xlink="http://www.w3.org/1999/xlink" x="0px" y="0px"
	 viewBox="0 0 128 128" style="enable-background:new 0 0 128 128;" xml:space="preserve">
<g>
	<g>
		<path style="fill:#37474F;" d="M42.04,114.98c3.78-3.56,7.55-7.12,11.33-10.68c-2.58-1.62-5.48-2.72-8.48-3.22
			c-1.25-0.21-2.58-0.3-3.73,0.21c-1.89,0.84-2.76,3.02-3.24,5.03c-0.52,2.19-0.79,4.45-0.8,6.7"/>
		<g>
			<path style="fill:#A65F3E;" d="M25.61,92.32l1.24,15c0.05,0.81,0.46,1.57,1.14,2.02c5.19,3.51,10.22,5.26,12.72,5.98
				c0.83,0.24,1.64-0.39,1.64-1.25V101.9L25.61,92.32z"/>
			<path style="fill:#DE7340;" d="M31.73,68.61c-0.93,6.07-8.31,15.7-4.8,25.07c1.91,5.1,14.83,8.85,22.42,13.99
				c5.48,3.71,16.03,12.89,23.46,14.91c7.68,2.1,11.85,1.67,24.23-1.02c12.4-2.69,12.55-10.77,12.55-10.77s-0.38-8.32-3.36-10.79
				c-5.04-4.19-10.42-3.58-14.59-5.78c-5.62-2.96-13.09-13.08-18.7-24.29s2.19-56.31,2.19-56.31L30.1,7.6
				C30.1,7.6,32.66,62.54,31.73,68.61z"/>
			<path style="fill:#A65F3E;" d="M109.59,110.8c0,0-4.45,4.59-13.4,6.81c0,0-12,3.88-22.31,1.07c-4.78-1.3-11.86-6.64-17.03-10.54
				c-2.01-1.51-3.74-2.82-5.22-3.82c-3.08-2.08-6.76-3.92-10.38-5.6c-14.62-6.81-15.17-9.95-15.25-10.92c0,0-1.44,1.94,0,5.72
				c1.93,5.09,15.77,9.01,23.37,14.15c5.48,3.71,16.2,12.36,23.46,14.91c8.38,2.95,19.63,0.55,23.18-0.48
				c11.66-3.38,13.96-6.05,14.57-8.74C111.01,111.35,109.59,110.8,109.59,110.8z"/>
		</g>
		<path style="fill:#F29657;" d="M40.06,77.44c-0.92,1.77-1.84,3.55-2.76,5.32c-0.38,0.73-0.78,1.49-1.38,2.01s-1.49,0.76-2.16,0.35
			c-0.82-0.5-1.03-1.68-1.04-2.71c-0.06-3.83,1.06-10.26,4.21-12.61c1.49-1.11,3.21-0.6,4.14,1.12
			C42.2,73.05,41.05,75.54,40.06,77.44z"/>
		<g>
			<path style="fill:#F29657;" d="M85.87,114.45c-4.8-1.19-3.33-4.89,0.36-5.72c3.15-0.71,5.65,0.56,11.21-1.21
				c3.39-1.08,4.84,1.78,2.83,3.26C95.75,114.1,88.9,115.2,85.87,114.45z"/>
		</g>
		<g>
			<path style="fill:#263238;" d="M31.09,6.33c1.5-2.35,10.13-2.73,22.34-0.99S73.61,9,74.41,12.44c0.88,3.78-8.3,3.7-19.28,3.05
				c-5.33-0.32-6.9,3.17-6.9,3.17s-1.25-4.37-3.59-4.87C35.8,11.9,29.28,9.17,31.09,6.33z"/>
		</g>
		<g>
			<path style="fill:#874D36;" d="M46.06,79.46l-1.65-0.53c-0.6-0.19-0.94-0.83-0.76-1.43c0.62-2.07,1.95-6.63,2.52-9.39
				c0.89-4.31,0.9-46.14,0.07-49.45l3.99,0c0.93,7.47,0.58,45.14-0.07,49.98c-0.38,2.84-1.93,7.87-2.65,10.08
				C47.32,79.32,46.67,79.65,46.06,79.46z"/>
		</g>
		<g>
			<g>
				<path style="fill:#FFB685;" d="M40.97,4c-4.65,0-8.89,0.56-10.55,2.4c-1.48,2.33,2.5,4.18,4.07,4.77
					c8.55,3.21,11.01,2.37,11.75,7.47c0.13,0.91,0.9,1.47,1.84,1.47c0.29,0,0.6-0.05,0.91-0.17c2.54-0.92,1.46-3.85,7.79-3.85
					c0.34,0,0.71,0.01,1.09,0.03c3.04,0.14,6.08,0.34,8.75,0.34c5,0,8.68-0.69,8.5-3.76c-0.27-4.81-9.1-5.99-21.7-7.78
					C50.17,4.51,45.39,4,40.97,4L40.97,4z M48.56,16.84c0,0-0.82-3.04-3.79-4.24c-1.89-0.76-10.09-3.6-11.09-4.54
					c-1.88-1.78,2.39-1.95,7.34-1.96c0.02,0,0.04,0,0.06,0c12.91,0,29.35,2.57,31.5,5.53c0.78,1.07-1.2,2.86-6.19,2.86
					c-0.43,0-0.88-0.01-1.36-0.04c-3.07-0.18-6.14-0.45-9.22-0.58c-0.28-0.01-0.55-0.02-0.8-0.02
					C49.11,13.86,48.56,16.84,48.56,16.84L48.56,16.84z"/>
			</g>
			<polygon style="fill:#F2AA7B;" points="39.92,4.26 39.92,4.26 39.92,4.26 			"/>
		</g>
		<g>
			<polygon style="fill:#3E2723;" points="46.65,25.02 46.56,22.62 50.27,19.08 50.44,21.31 			"/>
		</g>
		<path style="fill:#874D36;" d="M49.5,20.79l-4.14,3.79c-0.82,0.75-2.12,0.51-2.62-0.48l-1.5-2.98c-0.52-1.03,0.14-2.26,1.28-2.4
			l5.82-0.54c0.64-0.06,1.25,0.29,1.52,0.88l0,0C50.13,19.64,49.99,20.35,49.5,20.79z"/>
	</g>
</g>
</svg>
