<?xml version="1.0" encoding="UTF-8" standalone="no"?><svg xmlns:dc="http://purl.org/dc/elements/1.1/" xmlns:cc="http://creativecommons.org/ns#" xmlns:rdf="http://www.w3.org/1999/02/22-rdf-syntax-ns#" xmlns:svg="http://www.w3.org/2000/svg" xmlns="http://www.w3.org/2000/svg" viewBox="0 0 45 45" style="enable-background:new 0 0 45 45;" xml:space="preserve" version="1.1" id="svg2"><metadata id="metadata8"><rdf:RDF><cc:Work rdf:about=""><dc:format>image/svg+xml</dc:format><dc:type rdf:resource="http://purl.org/dc/dcmitype/StillImage"/></cc:Work></rdf:RDF></metadata><defs id="defs6"><clipPath id="clipPath16" clipPathUnits="userSpaceOnUse"><path id="path18" d="M 0,36 36,36 36,0 0,0 0,36 Z"/></clipPath></defs><g transform="matrix(1.25,0,0,-1.25,0,45)" id="g10"><g id="g12"><g clip-path="url(#clipPath16)" id="g14"><g transform="translate(35,0)" id="g20"><path id="path22" style="fill:#e1e8ed;fill-opacity:1;fill-rule:nonzero;stroke:none" d="M 0,0 0,3.5 C 0,6.814 -3.686,9 -7,9 l -12,0 c -3.313,0 -7,-2.186 -7,-5.5 L -26,0 0,0 Z"/></g><g transform="translate(18,9)" id="g24"><path id="path26" style="fill:#226699;fill-opacity:1;fill-rule:nonzero;stroke:none" d="M 0,0 8,0 4,-9 0,0 Z"/></g><g transform="translate(21.9453,30.9307)" id="g28"><path id="path30" style="fill:#ffe51e;fill-opacity:1;fill-rule:nonzero;stroke:none" d="m 0,0 c 4.105,0 10.947,-2.053 10.947,-10.947 0,-8.896 0,-10.948 -2.052,-10.948 -2.053,0 -4.79,2.052 -8.895,2.052 -4.105,0 -6.785,-2.052 -8.895,-2.052 -2.288,0 -2.054,8.21 -2.054,10.948 C -10.949,-2.053 -4.105,0 0,0"/></g><g transform="translate(18.3281,8.9824)" id="g32"><path id="path34" style="fill:#f3d2a2;fill-opacity:1;fill-rule:nonzero;stroke:none" d="m 0,0 c 1.466,-1.065 2.964,-0.98 3.672,-0.98 0.708,0 2.194,-0.085 3.66,0.98 l 0,3.203 L 0,3.203 0,0 Z"/></g><g transform="translate(18.3223,10.8213)" id="g36"><path id="path38" style="fill:#e2c196;fill-opacity:1;fill-rule:nonzero;stroke:none" d="m 0,0 c 1.022,-1.155 2.29,-1.468 3.668,-1.468 1.379,0 2.647,0.313 3.67,1.468 l 0,2.936 L 0,2.936 0,0 Z"/></g><g transform="translate(13.7339,20.2822)" id="g40"><path id="path42" style="fill:#f3d2a2;fill-opacity:1;fill-rule:nonzero;stroke:none" d="m 0,0 c 0,5.834 3.676,10.564 8.211,10.564 4.534,0 8.209,-4.73 8.209,-10.564 0,-5.833 -3.675,-10.285 -8.209,-10.285 C 3.676,-10.285 0,-5.833 0,0"/></g><g transform="translate(21.9453,12.457)" id="g44"><path id="path46" style="fill:#df1f32;fill-opacity:1;fill-rule:nonzero;stroke:none" d="m 0,0 c -1.606,0 -2.447,0.794 -2.537,0.885 -0.268,0.266 -0.268,0.7 0,0.967 0.266,0.264 0.692,0.266 0.961,0.006 C -1.541,1.826 -1.025,1.367 0,1.367 1.038,1.367 1.555,1.84 1.576,1.859 1.85,2.115 2.279,2.107 2.539,1.84 2.799,1.571 2.799,1.148 2.535,0.885 2.445,0.794 1.605,0 0,0"/></g><g transform="translate(11.7251,17)" id="g48"><path id="path50" style="fill:#ffe51e;fill-opacity:1;fill-rule:nonzero;stroke:none" d="m 0,0 c -0.021,1 -0.044,0.224 -0.044,0.465 0,3.422 2.053,-0.494 2.053,1.943 0,2.439 1.368,2.683 2.737,4.051 0.684,0.685 2.052,2.026 2.052,2.026 0,0 3.421,-2.067 6.158,-2.067 2.737,0 5.474,-1.375 5.474,-4.112 0,-2.737 2.053,1.584 2.053,-1.837 C 20.483,0.225 20.46,1 20.443,0 l 0.719,0 c 0.006,2 0.006,1.924 0.006,3.202 0,8.895 -6.842,10.729 -10.949,10.729 C 6.115,13.931 -0.728,12.152 -0.728,3.257 -0.728,2.464 -0.748,2 -0.72,0 L 0,0 Z"/></g><g transform="translate(18.6084,18.1133)" id="g52"><path id="path54" style="fill:#662113;fill-opacity:1;fill-rule:nonzero;stroke:none" d="m 0,0 0,0 c -0.465,0 -0.846,0.381 -0.846,0.847 l 0,0.844 c 0,0.465 0.381,0.846 0.846,0.846 0.466,0 0.847,-0.381 0.847,-0.846 l 0,-0.844 C 0.847,0.381 0.466,0 0,0"/></g><g transform="translate(25.373,18.1133)" id="g56"><path id="path58" style="fill:#662113;fill-opacity:1;fill-rule:nonzero;stroke:none" d="m 0,0 0,0 c -0.465,0 -0.846,0.381 -0.846,0.847 l 0,0.844 c 0,0.465 0.381,0.846 0.846,0.846 0.465,0 0.846,-0.381 0.846,-0.846 l 0,-0.844 C 0.846,0.381 0.465,0 0,0"/></g><g transform="translate(22.8359,15.5)" id="g60"><path id="path62" style="fill:#c1694f;fill-opacity:1;fill-rule:nonzero;stroke:none" d="m 0,0 -1.69,0 c -0.234,0 -0.423,0.189 -0.423,0.423 l 0,0.153 C -2.113,0.81 -1.924,1 -1.69,1 L 0,1 C 0.233,1 0.424,0.81 0.424,0.576 l 0,-0.153 C 0.424,0.189 0.233,0 0,0"/></g><g transform="translate(32.5,24)" id="g64"><path id="path66" style="fill:#ccd6dd;fill-opacity:1;fill-rule:nonzero;stroke:none" d="M 0,0 C 0,0 -3,-1 -10.5,-1 -18,-1 -21,0 -21,0 l 0,6 21,0 0,-6 z"/></g><g transform="translate(14,25)" id="g68"><path id="path70" style="fill:#99aab5;fill-opacity:1;fill-rule:nonzero;stroke:none" d="M 0,0 C 0,-0.276 -0.224,-0.5 -0.5,-0.5 -0.776,-0.5 -1,-0.276 -1,0 l 0,3 c 0,0.276 0.224,0.5 0.5,0.5 C -0.224,3.5 0,3.276 0,3 L 0,0 Z"/></g><g transform="translate(31,25)" id="g72"><path id="path74" style="fill:#99aab5;fill-opacity:1;fill-rule:nonzero;stroke:none" d="M 0,0 C 0,-0.276 -0.224,-0.5 -0.5,-0.5 -0.776,-0.5 -1,-0.276 -1,0 l 0,3 c 0,0.276 0.224,0.5 0.5,0.5 C -0.224,3.5 0,3.276 0,3 L 0,0 Z"/></g><g transform="translate(18,24.5)" id="g76"><path id="path78" style="fill:#99aab5;fill-opacity:1;fill-rule:nonzero;stroke:none" d="M 0,0 C 0,-0.276 -0.224,-0.5 -0.5,-0.5 -0.776,-0.5 -1,-0.276 -1,0 l 0,3 c 0,0.276 0.224,0.5 0.5,0.5 C -0.224,3.5 0,3.276 0,3 L 0,0 Z"/></g><g transform="translate(22.5,24.25)" id="g80"><path id="path82" style="fill:#99aab5;fill-opacity:1;fill-rule:nonzero;stroke:none" d="M 0,0 C 0,-0.276 -0.224,-0.5 -0.5,-0.5 -0.776,-0.5 -1,-0.276 -1,0 l 0,3 c 0,0.276 0.224,0.5 0.5,0.5 C -0.224,3.5 0,3.276 0,3 L 0,0 Z"/></g><g transform="translate(27,24.5)" id="g84"><path id="path86" style="fill:#99aab5;fill-opacity:1;fill-rule:nonzero;stroke:none" d="M 0,0 C 0,-0.276 -0.224,-0.5 -0.5,-0.5 -0.776,-0.5 -1,-0.276 -1,0 l 0,3 c 0,0.276 0.224,0.5 0.5,0.5 C -0.224,3.5 0,3.276 0,3 L 0,0 Z"/></g><g transform="translate(28.25,36)" id="g88"><path id="path90" style="fill:#e1e8ed;fill-opacity:1;fill-rule:nonzero;stroke:none" d="M 0,0 C -1.157,0 -2.237,-0.32 -3.167,-0.869 -4.097,-0.32 -5.177,0 -6.334,0 -7.456,0 -8.507,-0.3 -9.417,-0.818 -10.327,-0.3 -11.378,0 -12.5,0 c -3.452,0 -6.25,-2.798 -6.25,-6.25 0,-3.452 11.294,-3.25 12.416,-3.25 1.157,0 12.584,-0.202 12.584,3.25 C 6.25,-2.798 3.451,0 0,0"/></g><g transform="translate(10,11.25)" id="g92"><path id="path94" style="fill:#c1694f;fill-opacity:1;fill-rule:nonzero;stroke:none" d="M 0,0 C 0,-3.452 -2.015,-5.25 -4.5,-5.25 -6.985,-5.25 -9,-3.452 -9,0 -9,3.452 -6.985,7.25 -4.5,7.25 -2.015,7.25 0,3.452 0,0"/></g><path id="path96" style="fill:#c1694f;fill-opacity:1;fill-rule:nonzero;stroke:none" d="m 6.5,0 -2,0 0,8 2,0 0,-8 z"/><g transform="translate(15.4443,20.0645)" id="g98"><path id="path100" style="fill:#f3d2a2;fill-opacity:1;fill-rule:nonzero;stroke:none" d="m 0,0 c 0,-1.448 -0.734,-2.622 -1.639,-2.622 -0.905,0 -1.639,1.174 -1.639,2.622 0,1.448 0.734,2.623 1.639,2.623 C -0.734,2.623 0,1.448 0,0"/></g><g transform="translate(31.833,20.0645)" id="g102"><path id="path104" style="fill:#f3d2a2;fill-opacity:1;fill-rule:nonzero;stroke:none" d="m 0,0 c 0,-1.448 -0.733,-2.622 -1.639,-2.622 -0.905,0 -1.638,1.174 -1.638,2.622 0,1.448 0.733,2.623 1.638,2.623 C -0.733,2.623 0,1.448 0,0"/></g><g transform="translate(14.8945,31.5112)" id="g106"><path id="path108" style="fill:#ccd6dd;fill-opacity:1;fill-rule:nonzero;stroke:none" d="m 0,0 c 0.036,-0.008 0.071,-0.011 0.106,-0.011 0.231,0 0.438,0.16 0.488,0.394 0.032,0.145 0.335,1.441 1.32,2.212 0.76,0.596 1.748,0.987 2.007,1.084 C 3.524,3.904 3.097,4.08 2.653,4.214 2.23,4.005 1.739,3.728 1.297,3.382 0.062,2.415 -0.319,0.89 -0.383,0.594 -0.441,0.324 -0.27,0.058 0,0"/></g><g transform="translate(27.0508,34.0972)" id="g110"><path id="path112" style="fill:#ccd6dd;fill-opacity:1;fill-rule:nonzero;stroke:none" d="m 0,0 c 0.986,-0.772 1.289,-2.066 1.319,-2.212 0.051,-0.234 0.258,-0.394 0.49,-0.394 0.034,0 0.069,0.003 0.105,0.011 0.27,0.058 0.441,0.324 0.384,0.594 C 2.233,-1.706 1.855,-0.182 0.617,0.787 0.191,1.12 -0.279,1.389 -0.691,1.596 -1.125,1.456 -1.542,1.279 -1.929,1.054 -1.593,0.923 -0.703,0.55 0,0"/></g></g></g></g></svg>
