<?xml version="1.0" encoding="utf-8"?>
<!-- Generator: Adobe Illustrator 24.0.3, SVG Export Plug-In . SVG Version: 6.00 Build 0)  -->
<svg version="1.1" id="Layer_1" xmlns="http://www.w3.org/2000/svg" xmlns:xlink="http://www.w3.org/1999/xlink" x="0px" y="0px"
	 viewBox="0 0 128 128" style="enable-background:new 0 0 128 128;" xml:space="preserve">
<g>
	<path style="fill:#007689;" d="M64,88.4V124H4V77.03c3.84-4.8,10.05-8.01,16.86-9.63c4.15-0.98,8.54-1.55,13.06-1.55
		c1.24,0,2.49,0.04,3.75,0.14c1.75,0.12,3.5,0.33,5.27,0.63C54.82,68.67,64,76.12,64,88.4z"/>
</g>
<g id="neck_10_">
	<path style="fill:#E59600;" d="M33.46,74.12L33.46,74.12c-3.87,0-7-3.13-7-7V60.7h14v6.42C40.46,70.99,37.32,74.12,33.46,74.12z"/>
</g>
<g id="arm_1_">
	
		<linearGradient id="SVGID_1_" gradientUnits="userSpaceOnUse" x1="8" y1="4.8144" x2="8" y2="34.1286" gradientTransform="matrix(1 0 0 -1 0 128)">
		<stop  offset="0.6037" style="stop-color:#FFCA28"/>
		<stop  offset="1" style="stop-color:#FFB300"/>
	</linearGradient>
	<polygon style="fill:url(#SVGID_1_);" points="4,96 4,97 4,98 4,124 10.04,124 11,124 12,124 12,96 	"/>
</g>
<g id="ears_8_">
	<path style="fill:#E59600;" d="M51.48,34.74H15.43c-3.89,0-7.07,3.39-7.07,7.53s3.18,7.53,7.07,7.53h36.05
		c3.89,0,7.07-3.39,7.07-7.53S55.37,34.74,51.48,34.74z"/>
</g>
<path id="head_6_" style="fill:#FFCA28;" d="M33.46,8.11L33.46,8.11L33.46,8.11c-11.48,0-22.11,12.28-22.11,29.94
	c0,17.57,10.95,26.26,22.11,26.26s22.11-8.69,22.11-26.26C55.57,20.39,44.94,8.11,33.46,8.11z"/>
<path id="mouth_7_" style="fill:#795548;" d="M39.01,51.54c-2.1,1.25-8.99,1.25-11.09,0c-1.21-0.72-2.44,0.38-1.94,1.48
	c0.49,1.08,4.25,3.58,7.5,3.58s6.96-2.5,7.45-3.58C41.44,51.92,40.22,50.82,39.01,51.54z"/>
<path id="nose_7_" style="fill:#E59600;" d="M36,46.2c-0.07-0.03-0.14-0.05-0.21-0.05h-4.67c-0.07,0.01-0.14,0.03-0.21,0.05
	c-0.42,0.17-0.66,0.61-0.45,1.08c0.2,0.47,1.13,1.78,3,1.78c1.87,0,2.8-1.31,3-1.78C36.66,46.81,36.43,46.37,36,46.2z"/>
<g id="eyes_7_">
	<ellipse style="fill:#404040;" cx="22.62" cy="40.17" rx="3.25" ry="3.37"/>
	<ellipse style="fill:#404040;" cx="44.3" cy="40.17" rx="3.25" ry="3.37"/>
</g>
<g id="eyebrows_7_">
	<path style="fill:#6D4C41;" d="M17.62,34.51c0,0,1.78-2.35,4.97-2.35s5.01,2.38,5.01,2.38c0.33,0.47,0.23,1.11-0.24,1.45
		c-0.28,0.2-0.63,0.24-0.94,0.14c0,0-0.97-0.44-1.88-0.66s-1.91-0.29-2.9-0.18c-1.5,0.17-2.73,0.81-2.73,0.81
		C17.96,36.49,17.04,35.37,17.62,34.51z"/>
	<path style="fill:#6D4C41;" d="M49.3,34.51c0,0-1.78-2.35-4.97-2.35s-5.01,2.38-5.01,2.38c-0.33,0.47-0.23,1.11,0.24,1.45
		c0.28,0.2,0.63,0.24,0.94,0.14c0,0,0.97-0.44,1.88-0.66s1.91-0.29,2.9-0.18C46.78,35.45,48,36.1,48,36.1
		C48.96,36.49,49.87,35.37,49.3,34.51z"/>
</g>
<g id="hairGroup">
	<path id="hair_16_" style="fill:#543930;" d="M33.54,4.2L33.54,4.2c0,0-0.01,0-0.01,0s-0.01,0-0.01,0v0
		C3.78,4.36,9.87,38.33,9.87,38.33s1.33,3.5,1.94,5.05c0.09,0.22,0.41,0.2,0.46-0.04c0.64-2.84,2.92-12.91,4.07-15.97
		c0.68-1.8,2.55-2.85,4.45-2.51c2.91,0.53,7.56,1.18,12.68,1.18c0.02,0,0.04,0,0.06,0s0.04,0,0.06,0c5.12,0,9.76-0.65,12.68-1.18
		c1.9-0.34,3.77,0.71,4.45,2.51c1.15,3.05,3.42,13.06,4.06,15.94c0.05,0.24,0.38,0.26,0.47,0.03l1.95-5.02
		C57.19,38.33,63.28,4.36,33.54,4.2z"/>
	
		<radialGradient id="hairHighlights_1_" cx="33.5288" cy="95.6115" r="24.9338" gradientTransform="matrix(1 0 0 -1.1282 0 140.2567)" gradientUnits="userSpaceOnUse">
		<stop  offset="0.7945" style="stop-color:#6D4C41;stop-opacity:0"/>
		<stop  offset="1" style="stop-color:#6D4C41"/>
	</radialGradient>
	<path id="hairHighlights" style="fill:url(#hairHighlights_1_);" d="M57.19,38.33c0,0,6.09-33.97-23.65-34.13v0c0,0-0.01,0-0.01,0
		h0c0,0-0.01,0-0.01,0l0,0c-0.46,0-0.92,0.01-1.36,0.03c-0.89,0.04-1.74,0.11-2.56,0.2c-0.01,0-0.02,0-0.02,0
		c-0.06,0.01-0.11,0.02-0.17,0.02C4.36,7.61,9.87,38.33,9.87,38.33l1.95,5.03c0.09,0.22,0.41,0.2,0.46-0.03
		c0.64-2.87,2.92-12.9,4.07-15.95c0.68-1.8,2.55-2.85,4.45-2.51c2.91,0.53,7.56,1.18,12.68,1.18c0.02,0,0.04,0,0.06,0s0.04,0,0.06,0
		c5.12,0,9.76-0.65,12.68-1.18c1.9-0.34,3.77,0.71,4.45,2.51c1.15,3.07,3.44,13.15,4.07,15.98c0.05,0.23,0.37,0.26,0.46,0.03
		C55.85,41.84,57.19,38.33,57.19,38.33z"/>
</g>
<g>
	
		<linearGradient id="SVGID_2_" gradientUnits="userSpaceOnUse" x1="-374" y1="4.7029" x2="-374" y2="60.2336" gradientTransform="matrix(-1 0 0 -1 -280 128)">
		<stop  offset="0" style="stop-color:#009E89"/>
		<stop  offset="1" style="stop-color:#00BFA5"/>
	</linearGradient>
	<path style="fill:url(#SVGID_2_);" d="M64,88.4V124h60V77.03c-3.84-4.8-10.05-8.01-16.86-9.63c-4.15-0.98-8.54-1.55-13.06-1.55
		c-1.24,0-2.49,0.04-3.75,0.14c-1.75,0.12-3.5,0.33-5.27,0.63C73.18,68.67,64,76.12,64,88.4z"/>
</g>
<g id="neck_9_">
	<path style="fill:#E59600;" d="M94.54,74.12L94.54,74.12c3.87,0,7-3.13,7-7V60.7h-14v6.42C87.54,70.99,90.68,74.12,94.54,74.12z"/>
</g>
<g id="arm_2_">
	
		<linearGradient id="SVGID_3_" gradientUnits="userSpaceOnUse" x1="120" y1="4.8144" x2="120" y2="34.1286" gradientTransform="matrix(1 0 0 -1 0 128)">
		<stop  offset="0.6037" style="stop-color:#FFCA28"/>
		<stop  offset="1" style="stop-color:#FFB300"/>
	</linearGradient>
	<polygon style="fill:url(#SVGID_3_);" points="124,96 124,97 124,98 124,124 117.96,124 117,124 116,124 116,96 	"/>
</g>
<g id="ears_10_">
	<path style="fill:#E59600;" d="M76.52,34.74h36.05c3.89,0,7.07,3.39,7.07,7.53s-3.18,7.53-7.07,7.53H76.52
		c-3.89,0-7.07-3.39-7.07-7.53S72.63,34.74,76.52,34.74z"/>
</g>
<path id="head_5_" style="fill:#FFCA28;" d="M94.54,8.11L94.54,8.11L94.54,8.11c11.48,0,22.11,12.28,22.11,29.94
	c0,17.57-10.95,26.26-22.11,26.26s-22.11-8.69-22.11-26.26C72.43,20.39,83.06,8.11,94.54,8.11z"/>
<path id="mouth_6_" style="fill:#795548;" d="M88.99,51.54c2.1,1.25,8.99,1.25,11.09,0c1.21-0.72,2.44,0.38,1.94,1.48
	c-0.49,1.08-4.25,3.58-7.5,3.58s-6.96-2.5-7.45-3.58C86.57,51.92,87.78,50.82,88.99,51.54z"/>
<path id="nose_6_" style="fill:#E59600;" d="M92,46.2c0.07-0.03,0.14-0.05,0.21-0.05h4.67c0.07,0.01,0.14,0.03,0.21,0.05
	c0.42,0.17,0.66,0.61,0.46,1.08c-0.2,0.47-1.13,1.78-3,1.78c-1.87,0-2.8-1.31-3-1.78C91.34,46.81,91.57,46.37,92,46.2z"/>
<g id="eyes_6_">
	<ellipse style="fill:#404040;" cx="105.38" cy="40.17" rx="3.25" ry="3.37"/>
	<ellipse style="fill:#404040;" cx="83.7" cy="40.17" rx="3.25" ry="3.37"/>
</g>
<g id="eyebrows_6_">
	<path style="fill:#6D4C41;" d="M110.38,34.51c0,0-1.79-2.35-4.97-2.35s-5.01,2.38-5.01,2.38c-0.33,0.47-0.23,1.11,0.24,1.45
		c0.28,0.2,0.63,0.24,0.94,0.14c0,0,0.97-0.44,1.88-0.66c0.91-0.22,1.91-0.29,2.9-0.18c1.5,0.17,2.73,0.81,2.73,0.81
		C110.04,36.49,110.96,35.37,110.38,34.51z"/>
	<path style="fill:#6D4C41;" d="M78.7,34.51c0,0,1.79-2.35,4.97-2.35s5.01,2.38,5.01,2.38c0.33,0.47,0.23,1.11-0.24,1.45
		c-0.28,0.2-0.63,0.24-0.94,0.14c0,0-0.97-0.44-1.88-0.66c-0.91-0.22-1.91-0.29-2.9-0.18C81.22,35.45,80,36.1,80,36.1
		C79.04,36.49,78.13,35.37,78.7,34.51z"/>
</g>
<g id="hairGroup_1_">
	<path id="hair_20_" style="fill:#543930;" d="M94.46,4.2L94.46,4.2c0,0,0.01,0,0.01,0s0.01,0,0.01,0v0
		c29.74,0.16,23.65,34.13,23.65,34.13s-1.33,3.5-1.94,5.05c-0.09,0.22-0.41,0.2-0.46-0.04c-0.64-2.84-2.92-12.91-4.07-15.97
		c-0.68-1.8-2.55-2.85-4.45-2.51c-2.92,0.53-7.56,1.18-12.68,1.18c-0.02,0-0.04,0-0.06,0s-0.04,0-0.06,0
		c-5.12,0-9.76-0.65-12.68-1.18c-1.9-0.34-3.77,0.71-4.45,2.51c-1.15,3.05-3.42,13.06-4.06,15.94c-0.05,0.24-0.38,0.26-0.46,0.03
		l-1.95-5.02C70.81,38.33,64.72,4.36,94.46,4.2z"/>
	
		<radialGradient id="hairHighlights_2_" cx="-374.4711" cy="95.6115" r="24.9337" gradientTransform="matrix(-1 0 0 -1.1282 -280 140.2567)" gradientUnits="userSpaceOnUse">
		<stop  offset="0.7945" style="stop-color:#6D4C41;stop-opacity:0"/>
		<stop  offset="1" style="stop-color:#6D4C41"/>
	</radialGradient>
	<path id="hairHighlights_10_" style="fill:url(#hairHighlights_2_);" d="M70.81,38.33c0,0-6.09-33.97,23.65-34.13v0
		c0,0,0.01,0,0.01,0h0c0,0,0.01,0,0.01,0l0,0c0.46,0,0.92,0.01,1.36,0.03c0.89,0.04,1.74,0.11,2.56,0.2c0.01,0,0.02,0,0.03,0
		c0.06,0.01,0.11,0.02,0.17,0.02c25.04,3.15,19.53,33.87,19.53,33.87l-1.95,5.03c-0.09,0.22-0.41,0.2-0.46-0.03
		c-0.64-2.87-2.92-12.9-4.07-15.95c-0.68-1.8-2.55-2.85-4.45-2.51c-2.92,0.53-7.56,1.18-12.68,1.18c-0.02,0-0.04,0-0.06,0
		s-0.04,0-0.06,0c-5.12,0-9.76-0.65-12.68-1.18c-1.9-0.34-3.77,0.71-4.45,2.51c-1.15,3.07-3.44,13.15-4.07,15.98
		c-0.05,0.23-0.37,0.26-0.46,0.03C72.15,41.84,70.81,38.33,70.81,38.33z"/>
</g>
<radialGradient id="SVGID_4_" cx="64" cy="33.0238" r="27.1035" gradientTransform="matrix(1 0 0 -1.4568 0 143.084)" gradientUnits="userSpaceOnUse">
	<stop  offset="0.5941" style="stop-color:#212121"/>
	<stop  offset="1" style="stop-color:#616161;stop-opacity:0.05"/>
</radialGradient>
<path style="opacity:0.4;fill:url(#SVGID_4_);enable-background:new    ;" d="M91,65.95V124H37V65.98c0.22,0,0.45,0.01,0.67,0.01
	c1.75,0.12,3.5,0.33,5.27,0.63C54.82,68.67,64,76.12,64,88.4c0-12.19,9.05-19.62,20.8-21.73c0.1-0.02,0.2-0.03,0.3-0.05
	c0.49-0.08,0.98-0.16,1.47-0.23s0.98-0.14,1.47-0.19c0.49-0.06,0.98-0.11,1.47-0.15c0.03,0,0.06,0,0.09-0.01
	C90.06,66.01,90.53,65.98,91,65.95z"/>
<path id="shirt_4_" style="fill:#E1BEE7;" d="M60.92,121.98c0-9.84-12.51-13.14-16.87-13.14h-9.38c-4.35,0-16.88,3.3-16.88,13.14
	c0,0-0.01,0.79-0.03,2.02h1.02h0.98h39.19h0.98h1.02C60.93,122.98,60.92,121.98,60.92,121.98z"/>
<g id="neck_4_">
	<path style="fill:#E59600;" d="M39.35,116.3c-2.6,0-4.57-1.92-4.57-4.29v-2.38h9.53v2.38C44.32,114.38,41.96,116.3,39.35,116.3z"/>
</g>
<g id="hair_x5F_back_3_">
	<g id="hair_18_">
		<path style="fill:#543930;" d="M20.82,111.07l0.62-2.92l-5.39,1.35c0,0-0.38-5.2,4.26-8.2c5.09-3.29,10.94,0.22,10.94,0.22
			s-0.58,3.93-4.06,7.3C24.84,111.09,20.82,111.07,20.82,111.07z"/>
	</g>
	<g id="hair_14_">
		<path style="fill:#543930;" d="M57.92,111.07l-0.62-2.92l5.39,1.35c0,0,0.38-5.2-4.26-8.2c-5.09-3.29-10.94,0.22-10.94,0.22
			s0.58,3.93,4.06,7.3C53.9,111.09,57.92,111.07,57.92,111.07z"/>
	</g>
	
		<radialGradient id="hairHighlights_4_" cx="55.2735" cy="22.6285" r="9.8373" gradientTransform="matrix(0.8651 0.5016 0.3314 -0.5715 -0.0438 90.5765)" gradientUnits="userSpaceOnUse">
		<stop  offset="0.5255" style="stop-color:#6D4C41;stop-opacity:0"/>
		<stop  offset="1" style="stop-color:#6D4C41"/>
	</radialGradient>
	<path id="hairHighlights_9_" style="fill:url(#hairHighlights_4_);" d="M57.92,111.07l-0.62-2.92l5.39,1.35c0,0,0.38-5.2-4.26-8.2
		c-5.09-3.29-10.94,0.22-10.94,0.22s0.58,3.93,4.06,7.3C53.9,111.09,57.92,111.07,57.92,111.07z"/>
	
		<radialGradient id="hairHighlights_11_" cx="1274.531" cy="22.6285" r="9.3424" gradientTransform="matrix(-0.8651 0.5016 -0.3314 -0.5715 1133.4144 -521.0203)" gradientUnits="userSpaceOnUse">
		<stop  offset="0.5255" style="stop-color:#6D4C41;stop-opacity:0"/>
		<stop  offset="1" style="stop-color:#6D4C41"/>
	</radialGradient>
	<path id="hairHighlights_6_" style="fill:url(#hairHighlights_11_);" d="M20.68,111.07l0.62-2.92l-5.39,1.35c0,0-0.38-5.2,4.26-8.2
		c5.09-3.29,10.94,0.22,10.94,0.22s-0.58,3.93-4.06,7.3C24.7,111.09,20.68,111.07,20.68,111.07z"/>
</g>
<g id="ears_3_">
	<path style="fill:#E59600;" d="M54.31,89.21h-3.97H28.8h-3.98c-3.18,0-5.78,2.5-5.78,5.56s2.6,5.56,5.78,5.56h3.98h21.53h3.97
		c3.18,0,5.39-2.5,5.39-5.56S57.49,89.21,54.31,89.21z"/>
</g>
<path id="head_4_" style="fill:#FFCA28;" d="M39.36,66.27L39.36,66.27L39.36,66.27c-9.33,0-17.57,9.8-17.57,23.9
	c0,14.02,9.87,20.96,17.57,20.96s17.57-6.93,17.57-20.96C56.93,76.06,48.68,66.27,39.36,66.27z"/>
<path id="mouth_5_" style="fill:#795548;" d="M43.7,101.05c-1.64,0.97-7,0.97-8.64,0c-0.94-0.56-1.9,0.3-1.51,1.15
	c0.38,0.84,3.31,2.79,5.84,2.79s5.42-1.95,5.8-2.79C45.58,101.35,44.64,100.49,43.7,101.05z"/>
<path id="nose_5_" style="fill:#E59600;" d="M41.35,96.72c-0.05-0.02-0.11-0.04-0.17-0.04h-3.63c-0.06,0.01-0.11,0.02-0.17,0.04
	c-0.33,0.13-0.51,0.47-0.35,0.84c0.16,0.36,0.88,1.38,2.34,1.38s2.18-1.02,2.34-1.38C41.86,97.19,41.68,96.85,41.35,96.72z"/>
<g id="eyes_5_">
	<ellipse style="fill:#404040;" cx="30.83" cy="94.07" rx="2.53" ry="2.62"/>
	<ellipse style="fill:#404040;" cx="47.91" cy="94.07" rx="2.53" ry="2.62"/>
</g>
<g id="eyebrows_5_">
	<path style="fill:#6D4C41;" d="M26.87,89.41c0.1-0.13,0.13-0.21,0.31-0.39c0.4-0.42,1.18-0.92,1.94-1.18
		c0.73-0.25,1.07-0.25,1.62-0.25c0.85,0,1.37,0.18,1.62,0.25c0.35,0.12,0.68,0.28,1.01,0.46c0.55,0.33,1.74,1.14,1.38,1.87
		c-0.4,0.81-1.01,0.51-1.56,0.3c-0.24-0.07-1.32-0.5-2.46-0.5c-0.62,0-0.88,0.07-1.05,0.09c-0.73,0.12-1.28,0.35-1.38,0.38
		c-0.38,0.15-0.65,0.37-1.08,0.2C26.77,90.44,26.58,89.84,26.87,89.41z"/>
	<path style="fill:#6D4C41;" d="M51.87,89.41c-0.1-0.13-0.13-0.21-0.31-0.39c-0.4-0.42-1.18-0.92-1.94-1.18
		c-0.73-0.25-1.07-0.25-1.62-0.25c-0.85,0-1.37,0.18-1.62,0.25c-0.35,0.12-0.68,0.28-1.01,0.46c-0.55,0.33-1.74,1.14-1.38,1.87
		c0.4,0.81,1.01,0.51,1.56,0.3c0.24-0.07,1.32-0.5,2.46-0.5c0.62,0,0.88,0.07,1.04,0.09c0.73,0.12,1.28,0.35,1.38,0.38
		c0.38,0.15,0.65,0.37,1.08,0.2C51.97,90.44,52.16,89.84,51.87,89.41z"/>
</g>
<g id="hair_x5F_front_3_">
	<g id="hair_11_">
		<path style="fill:#543930;" d="M54.93,69.91c-2.33-2.43-4.56-3.32-4.78-3.35c-2.71-1.24-6.2-2.25-10.72-2.25
			c-19.88,0-21.23,16.2-20.43,23.33c0.7,6.29,4.37,7.84,4.37,7.84l-0.6-7.11c0,0,7.11-2.18,11.04-4.83
			c3.87-2.61,5.48-4.39,5.48-4.39s1.2,1.28,5.44,4.34c4.4,3.18,11.04,4.92,11.04,4.92l-0.51,7.07c0,0,3.85-1.54,4.4-7.84
			C60.36,79.75,59.42,75.03,54.93,69.91z"/>
	</g>
	
		<radialGradient id="hairHighlights_12_" cx="46.6954" cy="43.2146" r="23.4742" gradientTransform="matrix(1.0432 0 0 -0.9174 -9.2029 124.4322)" gradientUnits="userSpaceOnUse">
		<stop  offset="0.6851" style="stop-color:#6D4C41;stop-opacity:0"/>
		<stop  offset="1" style="stop-color:#6D4C41"/>
	</radialGradient>
	<path id="hairHighlights_5_" style="fill:url(#hairHighlights_12_);" d="M54.93,69.91c-2.33-2.43-4.56-3.32-4.78-3.35
		c-2.71-1.24-6.2-2.25-10.72-2.25c-19.88,0-21.23,16.2-20.43,23.33c0.7,6.29,4.37,7.84,4.37,7.84l-0.6-7.11
		c0,0,7.11-2.18,11.04-4.83c3.87-2.61,5.48-4.39,5.48-4.39s1.2,1.28,5.44,4.34c4.4,3.18,11.04,4.92,11.04,4.92l-0.51,7.07
		c0,0,3.85-1.54,4.4-7.84C60.36,79.75,59.42,75.03,54.93,69.91z"/>
</g>
<path id="shirt_3_" style="fill:#E1BEE7;" d="M67.08,121.98c0-9.84,12.51-13.14,16.87-13.14h9.38c4.35,0,16.88,3.3,16.88,13.14
	c0,0,0.01,0.79,0.03,2.02h-1.02h-0.97H69.05h-0.98h-1.02C67.07,122.98,67.08,121.98,67.08,121.98z"/>
<g id="neck_6_">
	<path style="fill:#E59600;" d="M88.64,116.3c2.61,0,4.57-1.92,4.57-4.29v-2.38h-9.53v2.38C83.68,114.38,86.04,116.3,88.64,116.3z"
		/>
</g>
<g id="hair_x5F_back_4_">
	<g id="hair_15_">
		<path style="fill:#543930;" d="M107.18,111.07l-0.62-2.92l5.39,1.35c0,0,0.38-5.2-4.26-8.2c-5.09-3.29-10.94,0.22-10.94,0.22
			s0.58,3.93,4.06,7.3C103.15,111.09,107.18,111.07,107.18,111.07z"/>
	</g>
	<g id="hair_13_">
		<path style="fill:#543930;" d="M70.08,111.07l0.62-2.92l-5.39,1.35c0,0-0.38-5.2,4.26-8.2c5.09-3.29,10.94,0.22,10.94,0.22
			s-0.58,3.93-4.06,7.3C74.1,111.09,70.08,111.07,70.08,111.07z"/>
	</g>
	
		<radialGradient id="hairHighlights_13_" cx="945.2735" cy="22.6285" r="9.8373" gradientTransform="matrix(-0.8651 0.5016 -0.3314 -0.5715 897.9752 -355.8601)" gradientUnits="userSpaceOnUse">
		<stop  offset="0.5255" style="stop-color:#6D4C41;stop-opacity:0"/>
		<stop  offset="1" style="stop-color:#6D4C41"/>
	</radialGradient>
	<path id="hairHighlights_8_" style="fill:url(#hairHighlights_13_);" d="M70.08,111.07l0.62-2.92l-5.39,1.35c0,0-0.38-5.2,4.26-8.2
		c5.09-3.29,10.94,0.22,10.94,0.22s-0.58,3.93-4.06,7.3C74.1,111.09,70.08,111.07,70.08,111.07z"/>
	
		<radialGradient id="hairHighlights_14_" cx="384.531" cy="22.6285" r="9.3424" gradientTransform="matrix(0.8651 0.5016 0.3314 -0.5715 -235.4831 -74.5837)" gradientUnits="userSpaceOnUse">
		<stop  offset="0.5255" style="stop-color:#6D4C41;stop-opacity:0"/>
		<stop  offset="1" style="stop-color:#6D4C41"/>
	</radialGradient>
	<path id="hairHighlights_7_" style="fill:url(#hairHighlights_14_);" d="M107.32,111.07l-0.62-2.92l5.39,1.35
		c0,0,0.38-5.2-4.26-8.2c-5.09-3.29-10.94,0.22-10.94,0.22s0.58,3.93,4.06,7.3C103.3,111.09,107.32,111.07,107.32,111.07z"/>
</g>
<g id="ears_5_">
	<path style="fill:#E59600;" d="M73.69,89.21h3.97H99.2h3.97c3.18,0,5.78,2.5,5.78,5.56s-2.6,5.56-5.78,5.56H99.2H77.67h-3.97
		c-3.18,0-5.39-2.5-5.39-5.56S70.51,89.21,73.69,89.21z"/>
</g>
<path id="head_8_" style="fill:#FFCA28;" d="M88.64,66.27L88.64,66.27L88.64,66.27c9.33,0,17.57,9.8,17.57,23.9
	c0,14.02-9.87,20.96-17.57,20.96s-17.57-6.93-17.57-20.96C71.07,76.06,79.32,66.27,88.64,66.27z"/>
<path id="mouth_4_" style="fill:#795548;" d="M84.3,101.05c1.64,0.97,7,0.97,8.64,0c0.94-0.56,1.9,0.3,1.51,1.15
	c-0.38,0.84-3.31,2.79-5.84,2.79s-5.42-1.95-5.8-2.79C82.42,101.35,83.36,100.49,84.3,101.05z"/>
<path id="nose_4_" style="fill:#E59600;" d="M86.65,96.72c0.05-0.02,0.11-0.04,0.17-0.04h3.63c0.06,0.01,0.11,0.02,0.17,0.04
	c0.33,0.13,0.51,0.47,0.36,0.84s-0.88,1.38-2.34,1.38s-2.18-1.02-2.34-1.38C86.14,97.19,86.32,96.85,86.65,96.72z"/>
<g id="eyes_4_">
	<ellipse style="fill:#404040;" cx="97.17" cy="94.07" rx="2.53" ry="2.62"/>
	<ellipse style="fill:#404040;" cx="80.09" cy="94.07" rx="2.53" ry="2.62"/>
</g>
<g id="eyebrows_4_">
	<path style="fill:#6D4C41;" d="M101.13,89.41c-0.1-0.13-0.13-0.21-0.31-0.39c-0.39-0.42-1.18-0.92-1.94-1.18
		c-0.73-0.25-1.07-0.25-1.62-0.25c-0.85,0-1.37,0.18-1.62,0.25c-0.35,0.12-0.68,0.28-1.01,0.46c-0.55,0.33-1.74,1.14-1.38,1.87
		c0.4,0.81,1.01,0.51,1.56,0.3c0.24-0.07,1.32-0.5,2.46-0.5c0.62,0,0.88,0.07,1.04,0.09c0.73,0.12,1.28,0.35,1.38,0.38
		c0.38,0.15,0.65,0.37,1.07,0.2C101.23,90.44,101.42,89.84,101.13,89.41z"/>
	<path style="fill:#6D4C41;" d="M76.13,89.41c0.1-0.13,0.13-0.21,0.31-0.39c0.39-0.42,1.18-0.92,1.94-1.18
		c0.73-0.25,1.07-0.25,1.62-0.25c0.85,0,1.37,0.18,1.62,0.25c0.35,0.12,0.68,0.28,1.01,0.46c0.55,0.33,1.74,1.14,1.38,1.87
		c-0.4,0.81-1.01,0.51-1.56,0.3c-0.24-0.07-1.32-0.5-2.46-0.5c-0.62,0-0.88,0.07-1.04,0.09c-0.73,0.12-1.28,0.35-1.38,0.38
		c-0.38,0.15-0.65,0.37-1.07,0.2C76.03,90.44,75.84,89.84,76.13,89.41z"/>
</g>
<g id="hair_x5F_front_5_">
	<g id="hair_3_">
		<path style="fill:#543930;" d="M73.07,69.91c2.33-2.43,4.56-3.32,4.78-3.35c2.71-1.24,6.2-2.25,10.72-2.25
			c19.88,0,21.23,16.2,20.43,23.33c-0.71,6.29-4.37,7.84-4.37,7.84l0.6-7.11c0,0-7.11-2.18-11.04-4.83
			c-3.87-2.61-5.48-4.39-5.48-4.39s-1.2,1.28-5.44,4.34c-4.4,3.18-11.04,4.92-11.04,4.92l0.51,7.07c0,0-3.85-1.54-4.4-7.84
			C67.64,79.75,68.58,75.03,73.07,69.91z"/>
	</g>
	
		<radialGradient id="hairHighlights_15_" cx="899.8552" cy="43.2146" r="23.4742" gradientTransform="matrix(-1.0432 0 0 -0.9174 1027.2029 124.4322)" gradientUnits="userSpaceOnUse">
		<stop  offset="0.6851" style="stop-color:#6D4C41;stop-opacity:0"/>
		<stop  offset="1" style="stop-color:#6D4C41"/>
	</radialGradient>
	<path id="hairHighlights_3_" style="fill:url(#hairHighlights_15_);" d="M73.07,69.91c2.33-2.43,4.56-3.32,4.78-3.35
		c2.71-1.24,6.2-2.25,10.72-2.25c19.88,0,21.23,16.2,20.43,23.33c-0.71,6.29-4.37,7.84-4.37,7.84l0.6-7.11c0,0-7.11-2.18-11.04-4.83
		c-3.87-2.61-5.48-4.39-5.48-4.39s-1.2,1.28-5.44,4.34c-4.4,3.18-11.04,4.92-11.04,4.92l0.51,7.07c0,0-3.85-1.54-4.4-7.84
		C67.64,79.75,68.58,75.03,73.07,69.91z"/>
</g>
</svg>
