<?xml version="1.0" encoding="utf-8"?>
<!-- Generator: Adobe Illustrator 24.0.3, SVG Export Plug-In . SVG Version: 6.00 Build 0)  -->
<svg version="1.1" id="Layer_1" xmlns="http://www.w3.org/2000/svg" xmlns:xlink="http://www.w3.org/1999/xlink" x="0px" y="0px"
	 viewBox="0 0 128 128" style="enable-background:new 0 0 128 128;" xml:space="preserve">
<linearGradient id="shirt_1_" gradientUnits="userSpaceOnUse" x1="64" y1="35.7786" x2="64" y2="8.0196" gradientTransform="matrix(1 0 0 -1 0 130)">
	<stop  offset="0" style="stop-color:#00BFA5"/>
	<stop  offset="0.7047" style="stop-color:#00B29A"/>
	<stop  offset="1" style="stop-color:#00AB94"/>
</linearGradient>
<path id="shirt" style="fill:url(#shirt_1_);" d="M114.39,119.87v4.07H13.61v-4.07c0-12.39,12.12-19.81,27.92-23.2
	c7.01-1.52,14.75-2.23,22.47-2.24h0.12c7.66,0,15.31,0.79,22.24,2.37C102.25,100.4,114.39,108.12,114.39,119.87z"/>
<path id="neck_1_" style="fill:#E59600;" d="M72.89,90.06H55.1v9.98c0,4.51,3.62,8.17,8.09,8.17h1.62c4.46,0,8.09-3.66,8.09-8.17
	L72.89,90.06L72.89,90.06z"/>
<g id="face">
	<path id="ears" style="fill:#E59600;" d="M91.34,50.42H36.69c-5.89,0-10.71,5.14-10.71,11.41c0,6.28,4.82,11.41,10.71,11.41h54.65
		c5.89,0,10.71-5.14,10.71-11.41C102.05,55.55,97.23,50.42,91.34,50.42z"/>
	<path id="head" style="fill:#FFCA28;" d="M64.02,10.05c-17.4,0-33.52,18.61-33.52,45.39c0,26.64,16.61,39.81,33.52,39.81
		s33.52-13.17,33.52-39.81C97.54,28.66,81.42,10.05,64.02,10.05z"/>
	<g id="eyebrows_1_">
		<path style="fill:#6D4C41;" d="M39.84,50.73c3.18-4.51,10.66-4.66,14.41-0.82c0.65,0.67,1.34,1.53,0.85,2.5
			c-0.54,1.07-1.65,0.9-2.56,0.53c-2.43-0.98-4.94-1.42-7.55-0.89c-1.13,0.23-2.1,0.7-3.17,1.08
			C40.38,53.62,38.91,52.12,39.84,50.73z"/>
		<path style="fill:#6D4C41;" d="M86.29,53.13c-2.23-0.97-4.49-1.53-6.95-1.25c-1.12,0.13-2.22,0.42-3.26,0.83
			c-0.83,0.33-1.72,0.86-2.58,0.28c-2.45-1.69,1.89-4.44,3.17-4.99c2.76-1.19,6.05-1.08,8.72,0.31c1.06,0.55,2.21,1.35,2.84,2.4
			C89.02,52.02,87.84,53.76,86.29,53.13z"/>
	</g>
	<g id="eyes">
		<ellipse style="fill:#404040;" cx="47.39" cy="58.8" rx="4.93" ry="5.1"/>
		<ellipse style="fill:#404040;" cx="80.65" cy="58.8" rx="4.93" ry="5.1"/>
	</g>
	<path id="nose" style="fill:#E59600;" d="M67.87,68.04c-0.11-0.04-0.21-0.07-0.32-0.08h-7.07c-0.11,0.01-0.22,0.04-0.32,0.08
		c-0.64,0.26-0.99,0.92-0.69,1.63s1.71,2.69,4.55,2.69c2.84,0,4.25-1.99,4.55-2.69C68.87,68.96,68.51,68.3,67.87,68.04z"/>
	<path id="mouth" style="fill:#795548;" d="M72.44,76.13c-3.19,1.89-13.63,1.89-16.81,0c-1.83-1.09-3.7,0.58-2.94,2.24
		c0.75,1.63,6.45,5.42,11.37,5.42S74.6,80,75.35,78.37C76.11,76.7,74.26,75.04,72.44,76.13z"/>
</g>
<path id="hair" style="fill:#543930;" d="M102.02,42.16c0.79-1.08,1.06-2.81,0.67-4.38c-0.31-1.26-1-2.21-1.95-2.7
	c0.33-0.46,0.93-1.5,0.94-2.96c0.03-2.33-0.94-4.03-2.97-5.19c0.71-3.29-1.28-6.77-4.45-7.77c-0.04-1.71-0.78-3.4-2.06-4.65
	c-1.21-1.18-2.74-1.84-4.33-1.85c-0.5-1.6-1.65-2.99-3.18-3.83c-1.47-0.8-3.11-1.01-4.63-0.59c-1.75-2.79-5.49-3.81-8.36-2.28
	c-1.73-1.77-4.41-2.39-6.73-1.53l0,0c-0.25,0.1-0.67,0.32-0.97,0.49c-0.3-0.17-0.71-0.39-0.97-0.49l0,0c-2.32-0.86-5-0.24-6.73,1.53
	c-2.87-1.53-6.61-0.51-8.36,2.28c-1.53-0.42-3.16-0.22-4.63,0.59c-1.53,0.84-2.68,2.22-3.18,3.83c-1.59,0.01-3.12,0.66-4.33,1.85
	c-1.27,1.25-2.02,2.93-2.06,4.65c-3.16,1-5.16,4.48-4.45,7.77c-2.02,1.16-3,2.86-2.97,5.19c0.02,1.45,0.62,2.5,0.94,2.96
	c-0.95,0.5-1.64,1.45-1.95,2.7c-0.39,1.57-0.12,3.3,0.67,4.38c-1.88,2.29-1.73,5.55,0.4,8.05c-0.74,1.34-0.98,2.89-0.43,4.84
	c0.79,2.51,2.84,2.88,2.84,2.88c-1.21,2.79,0.93,6.79,2.6,7.36c0,0,1.67-23.26,7.2-30.22c0.59,0.59,1.7,1.67,3.86,1.23
	c1.88-0.38,2.65-1.02,3.19-2.09c0.18,0.94,0.7,1.81,1.54,2.4c1.71,1.2,4.1,0.79,5.31-0.92c0.13-0.18,0.23-0.38,0.32-0.57
	c0.46,1.57,1.54,2.81,3.27,3.05c1.71,0.23,3.32-0.59,4.2-1.95c0.4,0.67,1.57,2.34,3.7,2.34c2.14,0,3.38-1.67,3.78-2.34
	c0.88,1.36,2.49,2.19,4.2,1.95c1.73-0.24,2.74-1.48,3.2-3.05c0.09,0.2,0.19,0.39,0.32,0.57c1.21,1.71,3.6,2.12,5.31,0.92
	c0.84-0.59,1.36-1.46,1.54-2.4c0.53,1.06,1.48,2.26,4.15,1.95c2.09-0.24,2.9-1.67,2.9-1.67c4.66,5.61,7.26,30.8,7.26,30.8
	c1.35-0.49,3.09-3.94,3.14-6.99c1.4-0.83,2.35-2.06,2.67-3.9c0.33-1.84-0.11-2.85-0.85-4.19C103.75,47.71,103.9,44.45,102.02,42.16z
	"/>
<radialGradient id="hairHighlights_2_" cx="64.5344" cy="43.7707" r="40.5079" gradientUnits="userSpaceOnUse">
	<stop  offset="0.7247" style="stop-color:#6D4C41;stop-opacity:0"/>
	<stop  offset="1" style="stop-color:#6D4C41"/>
</radialGradient>
<path id="hairHighlights_1_" style="fill:url(#hairHighlights_2_);" d="M102.02,42.16c0.79-1.08,1.06-2.81,0.67-4.38
	c-0.31-1.26-1-2.21-1.95-2.7c0.33-0.46,0.93-1.5,0.94-2.96c0.03-2.33-0.94-4.03-2.97-5.19c0.71-3.29-1.28-6.77-4.45-7.77
	c-0.04-1.71-0.78-3.4-2.06-4.65c-1.21-1.18-2.74-1.84-4.33-1.85c-0.5-1.6-1.65-2.99-3.18-3.83c-1.47-0.8-3.11-1.01-4.63-0.59
	c-1.75-2.79-5.49-3.81-8.36-2.28c-1.73-1.77-4.41-2.39-6.73-1.53l0,0c-0.25,0.1-0.67,0.32-0.97,0.49c-0.3-0.17-0.71-0.39-0.97-0.49
	l0,0c-2.32-0.86-5-0.24-6.73,1.53c-2.87-1.53-6.61-0.51-8.36,2.28c-1.53-0.42-3.16-0.22-4.63,0.59c-1.53,0.84-2.68,2.22-3.18,3.83
	c-1.59,0.01-3.12,0.66-4.33,1.85c-1.27,1.25-2.02,2.93-2.06,4.65c-3.16,1-5.16,4.48-4.45,7.77c-2.02,1.16-3,2.86-2.97,5.19
	c0.02,1.45,0.62,2.5,0.94,2.96c-0.95,0.5-1.64,1.45-1.95,2.7c-0.39,1.57-0.12,3.3,0.67,4.38c-1.88,2.29-1.73,5.55,0.4,8.05
	c-0.74,1.34-0.98,2.89-0.43,4.84c0.79,2.51,2.84,2.88,2.84,2.88c-1.21,2.79,0.93,6.79,2.6,7.36c0,0,1.67-23.26,7.2-30.22
	c0.59,0.59,1.7,1.67,3.86,1.23c1.88-0.38,2.65-1.02,3.19-2.09c0.18,0.94,0.7,1.81,1.54,2.4c1.71,1.2,4.1,0.79,5.31-0.92
	c0.13-0.18,0.23-0.38,0.32-0.57c0.46,1.57,1.54,2.81,3.27,3.05c1.71,0.23,3.32-0.59,4.2-1.95c0.4,0.67,1.57,2.34,3.7,2.34
	c2.14,0,3.38-1.67,3.78-2.34c0.88,1.36,2.49,2.19,4.2,1.95c1.73-0.24,2.74-1.48,3.2-3.05c0.09,0.2,0.19,0.39,0.32,0.57
	c1.21,1.71,3.6,2.12,5.31,0.92c0.84-0.59,1.36-1.46,1.54-2.4c0.53,1.06,1.48,2.26,4.15,1.95c2.09-0.24,2.9-1.67,2.9-1.67
	c4.66,5.61,7.26,30.8,7.26,30.8c1.35-0.49,3.09-3.94,3.14-6.99c1.4-0.83,2.35-2.06,2.67-3.9c0.33-1.84-0.11-2.85-0.85-4.19
	C103.75,47.71,103.9,44.45,102.02,42.16z"/>
</svg>
