<?xml version="1.0" encoding="utf-8"?>
<!-- Generator: Adobe Illustrator 24.1.2, SVG Export Plug-In . SVG Version: 6.00 Build 0)  -->
<svg version="1.1" id="Layer_1" xmlns="http://www.w3.org/2000/svg" xmlns:xlink="http://www.w3.org/1999/xlink" x="0px" y="0px"
	 viewBox="0 0 128 128" style="enable-background:new 0 0 128 128;" xml:space="preserve">
<g>
	<g id="facial_expressions">
		<g id="ghost">
			<path style="fill:none;" d="M103.13,28c2.27,8.6,0.12,47.26-17.67,65.57c-13.88,14.28-43,19.77-47.33,17.13"/>
			<path style="fill:#E0E0E0;" d="M111.29,109.36c-0.87-1.81-2.85-2.8-4.82-2.41l-1,0.11h-0.26c-3.78,0-5.44-1-6.59-3.81
				c-1.75-4.27-0.31-10.54,1.15-15.52c3-10.24,7.1-24.25,7-38c-0.01-2.55-0.16-5.09-0.47-7.62c-0.49-4.03-1.44-8-2.82-11.82
				C103.85,49.49,100.23,74,83.7,91c-13.2,13.58-35.7,21.49-44.77,20c10.5,11.21,25.57,16.98,40.87,15.64
				c13.58-1.1,29.43-6.61,31.69-12.81C112.03,112.37,111.95,110.76,111.29,109.36z"/>
		</g>
		<g id="ghost-2">
			<path style="fill:#E0E0E0;" d="M27.63,43.86c-5.81-0.68-11.83-3.43-14-8.93c-1.71-4.27-3.17-10.64-8.16-9.88
				c-6.2,0.95-4.75,13.44-3.3,18.26C8.06,62.91,27.25,66,27.56,65.53S29.07,43.84,27.63,43.86z"/>
			<path style="fill:#CCCCCC;" d="M27.63,43.86c-3.16-0.33-6.2-1.35-8.91-3c0.67,2.58,0.39,5.31-0.8,7.7
				c-2.21,5-8.32,7.68-8.32,7.68c7.78,8.13,17.74,9.64,18,9.3C28,65,29.07,43.84,27.63,43.86z"/>
			<path style="fill:#E0E0E0;" d="M100.37,43.86c5.81-0.68,11.83-3.43,14-8.93c1.71-4.27,3.17-10.64,8.16-9.88
				c6.17,0.94,4.72,13.44,3.27,18.26c-5.89,19.6-25.08,22.7-25.39,22.22S98.93,43.84,100.37,43.86z"/>
			<path style="fill:#CCCCCC;" d="M120.11,48.06c-3.78,4.17-12.44,8.15-20.38,8.73c0.03,2.92,0.25,5.84,0.64,8.74
				c0.32,0.47,19.5-2.62,25.39-22.22c1.02-3.65,1.42-7.44,1.17-11.22C126.36,37.99,123.97,43.57,120.11,48.06z"/>
			<path style="fill:#E0E0E0;" d="M106.82,49.7c-0.01-2.55-0.16-5.09-0.47-7.62c-2-16.35-11.24-30.55-24.12-37.08
				C76.4,1.98,69.83,0.71,63.3,1.35c-13.57,1.44-25.68,9.14-32.73,20.82c-17.74,29.67-6.38,65.56-3.38,71.66
				c15.34,31.17,40.12,33.83,52.62,32.82c13.58-1.1,29.43-6.61,31.69-12.81c0.53-1.46,0.46-3.07-0.2-4.48
				c-0.87-1.81-2.85-2.8-4.82-2.41l-1,0.11h-0.26c-3.78,0-5.44-1-6.59-3.81c-1.75-4.27-0.31-10.54,1.15-15.52
				C102.78,77.51,106.89,63.5,106.82,49.7z"/>
			<path style="fill:none;" d="M103.13,28c2.27,8.6,0.12,47.26-17.67,65.57c-13.88,14.28-43,19.77-47.33,17.13"/>
			<path style="fill:#CCCCCC;" d="M111.29,109.36c-0.87-1.81-2.85-2.8-4.82-2.41l-1,0.11h-0.26c-3.78,0-5.44-1-6.59-3.81
				c-1.75-4.27-0.31-10.54,1.15-15.52c3-10.24,7.1-24.25,7-38c-0.01-2.55-0.16-5.09-0.47-7.62c-0.49-4.03-1.44-8-2.82-11.82
				C103.85,49.49,100.23,74,83.7,91c-13.2,13.58-35.7,21.49-44.77,20c10.5,11.21,25.57,16.98,40.87,15.64
				c13.58-1.1,29.43-6.61,31.69-12.81C112.03,112.37,111.95,110.76,111.29,109.36z"/>
		</g>
		<g id="ghost-face">
			<g id="mouth">
				<g>
					<defs>
						<path id="SVGID_1_" d="M61.67,53.88c-8.51,0.05-17.01-0.67-25.39-2.14c-1.42-0.24-2.76,0.71-3,2.13
							c-0.05,0.29-0.05,0.58,0,0.87C35.7,66.58,47.35,76.3,61.7,76.3c15.69,0,26.26-10,28.45-21.6c0.25-1.41-0.69-2.75-2.1-3
							c-0.3-0.05-0.6-0.05-0.9,0C78.74,53.19,70.21,53.92,61.67,53.88z"/>
					</defs>
					<clipPath id="SVGID_2_">
						<use xlink:href="#SVGID_1_"  style="overflow:visible;"/>
					</clipPath>
					<g style="clip-path:url(#SVGID_2_);">
						
							<linearGradient id="SVGID_3_" gradientUnits="userSpaceOnUse" x1="61.7164" y1="53.65" x2="61.7164" y2="78.2893" gradientTransform="matrix(1 0 0 -1 0 130)">
							<stop  offset="0" style="stop-color:#404040"/>
							<stop  offset="0.12" style="stop-color:#3E3A35"/>
							<stop  offset="0.44" style="stop-color:#392D1E"/>
							<stop  offset="0.74" style="stop-color:#362510"/>
							<stop  offset="1" style="stop-color:#35220B"/>
						</linearGradient>
						<path style="fill:url(#SVGID_3_);" d="M61.67,53.88c-8.51,0.05-17.01-0.67-25.39-2.14c-1.42-0.24-2.76,0.71-3,2.13
							c-0.05,0.29-0.05,0.58,0,0.87C35.7,66.58,47.35,76.3,61.7,76.3c15.69,0,26.26-10,28.45-21.6c0.25-1.41-0.69-2.75-2.1-3
							c-0.3-0.05-0.6-0.05-0.9,0C78.74,53.19,70.21,53.92,61.67,53.88z"/>
					</g>
				</g>
				
					<linearGradient id="SVGID_4_" gradientUnits="userSpaceOnUse" x1="62.22" y1="42.38" x2="62.22" y2="73.37" gradientTransform="matrix(1 0 0 -1 0 130)">
					<stop  offset="0" style="stop-color:#FF4081"/>
					<stop  offset="0.28" style="stop-color:#FB3D80"/>
					<stop  offset="0.55" style="stop-color:#EF337D"/>
					<stop  offset="0.82" style="stop-color:#DB2378"/>
					<stop  offset="1" style="stop-color:#CA1573"/>
				</linearGradient>
				<path style="fill:url(#SVGID_4_);" d="M63.68,57.26h-2h-0.93c-4.25,0-8.42-0.21-12.44-0.54v18.2
					c0.01,7.01,5.68,12.69,12.69,12.7h2.42c7.02,0,12.7-5.68,12.71-12.7V56.63C72.11,57,67.93,57.21,63.68,57.26z"/>
				<path style="opacity:0.3;fill:#AB3F2E;enable-background:new    ;" d="M62.2,73c0.81,0.01,1.47-0.65,1.48-1.46
					c0,0,0-0.01,0-0.01V57.26h-2h-0.93v14.25C60.74,72.32,61.39,72.99,62.2,73C62.2,73,62.2,73,62.2,73z"/>
			</g>
			<g id="eyes">
				<g id="right-eye">
					<circle id="right-sclera" style="fill:#FFFFFF;" cx="75.18" cy="33.95" r="11.65"/>
					<ellipse id="right-pupil" style="fill:#422B0D;" cx="75.68" cy="33.95" rx="5" ry="5.08"/>
				</g>
				<path id="left-eye" style="fill:#422B0D;" d="M55.13,36l-0.1-0.16c-0.11-0.18-0.23-0.36-0.36-0.53
					c-0.44-0.58-0.92-1.13-1.44-1.64c-0.7-0.67-1.45-1.3-2.23-1.87c-0.43-0.31-0.88-0.64-1.35-0.94s-0.94-0.58-1.46-0.89
					s-1-0.53-1.48-0.78s-1-0.46-1.5-0.68c-0.91-0.4-1.84-0.73-2.8-1c-0.7-0.19-1.42-0.32-2.14-0.4h-0.64H39.4
					c-0.91-0.03-1.66,0.68-1.7,1.58c-0.03,0.73,0.44,1.39,1.14,1.62l0.18,0.06l0.58,0.19c0.38,0.13,0.93,0.33,1.61,0.62
					s1.46,0.65,2.3,1.06l1.29,0.67c0.44,0.23,0.86,0.46,1.34,0.74l0.27,0.16l-0.9,0.09c-0.35,0.06-0.51,0.08-0.84,0.15
					s-0.61,0.12-0.88,0.19c-0.56,0.14-1.1,0.32-1.64,0.52c-0.97,0.36-1.89,0.84-2.74,1.42c-0.35,0.24-0.68,0.51-1,0.79
					c-0.25,0.22-0.49,0.46-0.71,0.71c-0.19,0.21-0.32,0.39-0.42,0.51l-0.14,0.19c-0.54,0.73-0.39,1.75,0.34,2.29
					c0.58,0.43,1.38,0.43,1.96,0l0.18-0.13l0.12-0.09l0.33-0.24c0.42-0.28,0.86-0.54,1.32-0.76c0.68-0.32,1.39-0.59,2.11-0.81
					c0.4-0.12,0.83-0.22,1.27-0.32c0.22-0.06,0.43-0.09,0.63-0.13s0.54-0.08,0.71-0.11c0.88-0.12,1.77-0.18,2.66-0.18
					c0.75,0.01,1.51,0.08,2.25,0.21c0.32,0.06,0.61,0.11,0.85,0.18c0.21,0.05,0.41,0.11,0.61,0.18l0.2,0.05l0.21,0.09l0.17,0.08
					c0.68,0.29,1.47,0.1,1.94-0.47c0.23-0.28,0.36-0.64,0.36-1C55.44,36.8,55.36,36.36,55.13,36z"/>
			</g>
		</g>
	</g>
</g>
</svg>
