<?xml version="1.0" encoding="utf-8"?>
<!-- Generator: Adobe Illustrator 24.0.3, SVG Export Plug-In . SVG Version: 6.00 Build 0)  -->
<svg version="1.1" id="Layer_1" xmlns="http://www.w3.org/2000/svg" xmlns:xlink="http://www.w3.org/1999/xlink" x="0px" y="0px"
	 viewBox="0 0 128 128" style="enable-background:new 0 0 128 128;" xml:space="preserve">
<g id="shirt_1_">
	
		<linearGradient id="SVGID_1_" gradientUnits="userSpaceOnUse" x1="64" y1="34.0401" x2="64" y2="-7.7768" gradientTransform="matrix(1 0 0 -1 0 130)">
		<stop  offset="3.200000e-03" style="stop-color:#448AFF"/>
		<stop  offset="0.4042" style="stop-color:#3B7DFF"/>
		<stop  offset="1" style="stop-color:#2962FF"/>
	</linearGradient>
	<path style="fill:url(#SVGID_1_);" d="M116,124.14v-3.12c0-16.78-26.35-25.09-52-25.06c-25.49,0.03-52,7.28-52,25.06v3.12H116z"/>
</g>
<g id="helmet_x5F_back_1_">
	<path style="fill:#FFEA00;" d="M18,52.31c0,9.34,20.6,16.92,46,16.92s46-7.58,46-16.92S18,42.96,18,52.31z"/>
	<path style="fill:#EDBF00;" d="M105.38,52.29c-8.12-5.31-19.54-9.71-41.38-9.72c-21.85,0.01-33.27,4.4-41.38,9.72
		c-0.62,0.41-0.78,1.21-0.33,1.8C26.75,59.93,45.76,65.67,64,65.68c18.24-0.02,38-6.62,41.71-11.58
		C106.15,53.5,106.01,52.7,105.38,52.29z"/>
</g>
<g id="hair">
	<path id="hair_2_" style="fill:#232020;" d="M104.11,45.38c0,17.47-0.95,40.07-5.04,56.57c-9.73-4.01-22.48-6-35.07-5.99
		c-12.56,0.02-25.37,1.79-35.14,5.71c-4.03-16.48-4.97-38.92-4.97-56.29c0-0.61-0.33-35.53,40.68-35.53
		C105.58,9.85,104.11,44.77,104.11,45.38z"/>
</g>
<g id="neck">
	<path id="neck_1_" style="fill:#3C2B24;" d="M64,90.11h-9.08v9.98c0,4.51,3.7,8.17,8.26,8.17h1.65c4.56,0,8.26-3.66,8.26-8.17
		v-9.98C73.08,90.11,64,90.11,64,90.11z"/>
</g>
<path id="head_1_" style="fill:#70534A;" d="M64,15.77c-17.2,0-33.13,12.79-33.13,39.91c0,21.79,13.49,34.67,25.23,38.83
	C58.9,95.5,61.6,96,64,96c2.38,0,5.07-0.49,7.85-1.47c11.76-4.14,25.28-17.03,25.28-38.84C97.13,28.56,81.2,15.77,64,15.77z"/>
<g id="face">
	<g id="hair_1_">
		<path id="hair_3_" style="fill:#232020;" d="M101.89,45.38c0,0,1.02-35.57-37.81-35.57S26.11,45.38,26.11,45.38
			s0.33,31.34,3.2,37.26s7.19,5.71,7.19,5.71s-2.03-12.4-2.26-24.9c-0.06-2.92-0.94-15.73,5.16-17.09
			c22.36-5.02,35.01-14.88,35.01-14.88c3.29,7.19,13.58,14.19,17.27,16.86c3.03,2.19,2.61,11.2,2.55,15.03l-3.05,24.92
			c0,0,4.68,0.37,7.65-5.64C101.8,76.62,101.89,45.38,101.89,45.38z"/>
	</g>
	<g id="eyes_3_">
		<ellipse style="fill:#1A1717;" cx="48.4" cy="58.81" rx="4.93" ry="5.1"/>
		<ellipse style="fill:#1A1717;" cx="79.6" cy="58.81" rx="4.93" ry="5.1"/>
	</g>
	<g id="eyebrow_1_">
		<path style="fill:#1A1717;" d="M55.64,49.82c-0.93-1.23-3.07-3.01-7.23-3.01s-6.31,1.79-7.23,3.01c-0.41,0.54-0.31,1.17-0.02,1.55
			c0.26,0.35,1.04,0.68,1.9,0.39s2.54-1.16,5.35-1.18c2.81,0.02,4.49,0.89,5.35,1.18c0.86,0.29,1.64-0.03,1.9-0.39
			C55.94,50.99,56.05,50.36,55.64,49.82z"/>
		<path style="fill:#1A1717;" d="M86.83,49.82c-0.93-1.23-3.07-3.01-7.23-3.01c-4.16,0-6.31,1.79-7.23,3.01
			c-0.41,0.54-0.31,1.17-0.02,1.55c0.26,0.35,1.04,0.68,1.9,0.39s2.54-1.16,5.35-1.18c2.81,0.02,4.49,0.89,5.35,1.18
			c0.86,0.29,1.64-0.03,1.9-0.39C87.13,50.99,87.24,50.36,86.83,49.82z"/>
	</g>
	<path id="nose" style="fill:#33251F;" d="M67.81,68.15c-0.11-0.04-0.21-0.07-0.32-0.08h-6.99c-0.11,0.01-0.21,0.04-0.32,0.08
		c-0.63,0.26-0.98,0.91-0.68,1.61c0.3,0.7,1.69,2.66,4.49,2.66s4.2-1.96,4.5-2.66C68.79,69.06,68.45,68.41,67.81,68.15z"/>
	<path id="mouth" style="fill:#1A1717;" d="M72.32,76.23c-3.15,1.87-13.47,1.87-16.61,0c-1.81-1.07-3.65,0.57-2.9,2.21
		c0.74,1.61,6.37,5.36,11.23,5.36s10.42-3.75,11.16-5.36C75.95,76.8,74.13,75.16,72.32,76.23z"/>
</g>
<radialGradient id="hairHighlights_1_" cx="64.187" cy="60.0382" r="57.3918" gradientTransform="matrix(1.030000e-13 1 0.7605 -7.800000e-14 18.5261 3.4599)" gradientUnits="userSpaceOnUse">
	<stop  offset="0.8436" style="stop-color:#444140;stop-opacity:0"/>
	<stop  offset="1" style="stop-color:#444140"/>
</radialGradient>
<path id="hairHighlights" style="fill:url(#hairHighlights_1_);" d="M104.12,42.7c0,18.35-0.67,42.05-5.05,59.25
	c-9.58-3.79-22.59-5.9-34.91-5.9h-0.14c-12.34,0.02-25.5,1.91-35.16,5.62c-4.32-17.06-4.95-40.73-4.95-58.97
	c0-0.61-0.33-29.53,40.68-29.53S104.12,42.09,104.12,42.7z"/>
<g id="safety_x5F_jacket_1_">
	<g>
		<g>
			<g>
				
					<linearGradient id="SVGID_2_" gradientUnits="userSpaceOnUse" x1="44.025" y1="31.669" x2="44.025" y2="-6.0499" gradientTransform="matrix(1 0 0 -1 0 130)">
					<stop  offset="3.200000e-03" style="stop-color:#FF9100"/>
					<stop  offset="0.4399" style="stop-color:#FF8400"/>
					<stop  offset="1" style="stop-color:#FF6D00"/>
				</linearGradient>
				<path style="fill:url(#SVGID_2_);" d="M58.5,124.14H29.55V101.4c1.79-0.7,3.68-1.32,5.64-1.86c2.89-0.82,5.94-1.49,9.1-2.01
					c2.14-0.36,4.33-0.65,6.55-0.88L58.5,124.14z"/>
			</g>
		</g>
		
			<linearGradient id="SVGID_3_" gradientUnits="userSpaceOnUse" x1="43.075" y1="31.8769" x2="43.075" y2="-6.8342" gradientTransform="matrix(1 0 0 -1 0 130)">
			<stop  offset="3.200000e-03" style="stop-color:#FFFF00"/>
			<stop  offset="0.6783" style="stop-color:#FFF200"/>
			<stop  offset="1" style="stop-color:#FFEA00"/>
		</linearGradient>
		<path style="fill:url(#SVGID_3_);" d="M50.96,124.14H36.29l-1.1-24.6c2.89-0.82,5.94-1.49,9.1-2.01L50.96,124.14z"/>
	</g>
	<g>
		<g>
			<g>
				
					<linearGradient id="SVGID_4_" gradientUnits="userSpaceOnUse" x1="83.975" y1="31.6314" x2="83.975" y2="-6.0326" gradientTransform="matrix(1 0 0 -1 0 130)">
					<stop  offset="3.200000e-03" style="stop-color:#FF9100"/>
					<stop  offset="0.4399" style="stop-color:#FF8400"/>
					<stop  offset="1" style="stop-color:#FF6D00"/>
				</linearGradient>
				<path style="fill:url(#SVGID_4_);" d="M98.45,101.7v22.44H69.5l7.65-27.45c2.21,0.24,4.4,0.56,6.53,0.94
					c3.17,0.57,6.23,1.27,9.12,2.13C94.77,100.34,96.66,100.99,98.45,101.7z"/>
			</g>
		</g>
		
			<linearGradient id="SVGID_5_" gradientUnits="userSpaceOnUse" x1="84.92" y1="31.7791" x2="84.92" y2="-6.7864" gradientTransform="matrix(1 0 0 -1 0 130)">
			<stop  offset="3.200000e-03" style="stop-color:#FFFF00"/>
			<stop  offset="0.6783" style="stop-color:#FFF200"/>
			<stop  offset="1" style="stop-color:#FFEA00"/>
		</linearGradient>
		<path style="fill:url(#SVGID_5_);" d="M92.8,99.76l-1.09,24.38H77.04l6.64-26.51C86.85,98.2,89.91,98.9,92.8,99.76z"/>
	</g>
</g>
<g id="helmet">
	
		<radialGradient id="XMLID_2_" cx="64" cy="98.1613" r="34.638" gradientTransform="matrix(1 0 0 -0.9806 0 127.575)" gradientUnits="userSpaceOnUse">
		<stop  offset="0" style="stop-color:#FFFF00"/>
		<stop  offset="0.325" style="stop-color:#FFF600"/>
		<stop  offset="0.8535" style="stop-color:#FFDE00"/>
		<stop  offset="0.9978" style="stop-color:#FFD600"/>
	</radialGradient>
	<path id="XMLID_4_" style="fill:url(#XMLID_2_);" d="M64.41,8.1c-46.76,0-43.24,46.43-43.24,46.43s12.21-10.8,43.5-10.8
		s42.1,9.8,42.1,9.8S111.17,8.1,64.41,8.1z"/>
	
		<linearGradient id="SVGID_6_" gradientUnits="userSpaceOnUse" x1="64.3215" y1="125.0854" x2="64.3215" y2="88.0479" gradientTransform="matrix(1 0 0 -1 0 130)">
		<stop  offset="0" style="stop-color:#FFFF00"/>
		<stop  offset="0.4462" style="stop-color:#FFF900"/>
		<stop  offset="1" style="stop-color:#FFEA00"/>
	</linearGradient>
	<path style="fill:url(#SVGID_6_);" d="M74.72,42.33h-20.8V9.23c0-2.79,2.26-5.05,5.05-5.05h10.7c2.79,0,5.05,2.26,5.05,5.05V42.33z
		"/>
	<g>
		<g>
			<defs>
				<path id="SVGID_7_" d="M64.41,8.1c-46.76,0-43.24,46.43-43.24,46.43s12.21-10.8,43.5-10.8s42.1,9.8,42.1,9.8
					S111.17,8.1,64.41,8.1z"/>
			</defs>
			<clipPath id="SVGID_8_">
				<use xlink:href="#SVGID_7_"  style="overflow:visible;"/>
			</clipPath>
			<path id="XMLID_3_" style="opacity:0.5;clip-path:url(#SVGID_8_);fill:#EDBF00;enable-background:new    ;" d="M47.12,10.4
				l6.95-2.3v23.29C52.66,21.33,50.64,14.05,47.12,10.4z"/>
		</g>
		<g>
			<defs>
				<path id="SVGID_9_" d="M64.41,8.1c-46.76,0-43.24,46.43-43.24,46.43s12.21-10.8,43.5-10.8s42.1,9.8,42.1,9.8
					S111.17,8.1,64.41,8.1z"/>
			</defs>
			<clipPath id="SVGID_10_">
				<use xlink:href="#SVGID_9_"  style="overflow:visible;"/>
			</clipPath>
			<path style="opacity:0.5;clip-path:url(#SVGID_10_);fill:#EDBF00;enable-background:new    ;" d="M81.71,10.4l-6.95-2.3v23.29
				C76.17,21.33,78.19,14.05,81.71,10.4z"/>
		</g>
	</g>
	<path style="fill:#FFEA00;" d="M109.53,51.17c-0.25-0.42-0.64-0.74-1.07-0.99C90.36,39.76,64,40.1,64,40.1s-26.36-0.34-44.46,10.07
		c-0.44,0.25-0.82,0.57-1.07,0.99c-0.53,0.9-0.97,2.61,0.75,5.08c0,0,10.95-10.85,44.78-11.53c33.82,0.69,44.78,11.53,44.78,11.53
		C110.5,53.78,110.06,52.07,109.53,51.17z"/>
</g>
</svg>
