<svg xmlns="http://www.w3.org/2000/svg" viewBox="0 0 64 64" enable-background="new 0 0 64 64"><path d="m6.7 23h51l-.1 23.2c0 10.2-20.5 15.8-25.6 15.8-4.1 0-25.3-4.1-25.3-15.8v-23.2" fill="#ffe1bd"/><path d="m57.5 47.3c3.3-16.4 1-37.2-25.4-45.3 0 0-17.7 11.5 10.9 27 11 6 14.5 18.3 14.5 18.3" fill="#467591"/><path d="m21.7 9.4c0-4.6 4.8-7.4 10.4-7.4 28.1 0 35.3 32.5 26.1 40.6-1.8-16.8-12.9-31.9-36.5-33.2" fill="#3a81ad"/><path d="M6.7,47.3C0,25,23.1,2.6,51.9,9.3c9,2.1-1.1,10.1-29,19.6C11.1,32.9,6.7,47.3,6.7,47.3z" fill="#428bc1"/><path d="M51.9,9.3C52.2,4,37.7,2,32.1,2C4,2-3.7,33.5,6,43.3C9.8,15.2,28.3,10.6,51.9,9.3z" fill="#57a1ce"/><path d="m20.2 35.8c-5 0-7 1.8-7 3.6s0 4.4 6.6 4.4c6.4 0 7.4-.8 7.4-3.5 0-1.8-2-4.5-7-4.5" fill="#f5f5f5"/><circle cx="20.7" cy="38.8" r="4.5" fill="#664e27"/><path d="m22.2 38.8c0 .8-.7 1.5-1.5 1.5-.8 0-1.5-.7-1.5-1.5 0-.8.7-1.5 1.5-1.5.8 0 1.5.7 1.5 1.5" fill="#231f20"/><path d="m13.2 39.3c0-7 14-7 14 1-2-6-12-6-14-1" fill="#664e27"/><path d="m44.2 35.8c5 0 7 1.8 7 3.6s0 4.4-6.6 4.4c-6.4 0-7.4-.8-7.4-3.5 0-1.8 2-4.5 7-4.5" fill="#f5f5f5"/><circle cx="43.7" cy="38.8" r="4.5" fill="#664e27"/><path d="m42.2 38.8c0 .8.7 1.5 1.5 1.5.8 0 1.5-.7 1.5-1.5 0-.8-.7-1.5-1.5-1.5-.9 0-1.5.7-1.5 1.5" fill="#231f20"/><g fill="#664e27"><path d="m51.2 39.3c0-7-14-7-14 1 2-6 12-6 14-1"/><path d="m41.2 50.9c0 3.4-4.5 5.1-9 5.1s-9-1.7-9-5.1c0 0 0-.9.9-.9 4 0 12.1 0 16.2 0 .9 0 .9.9.9.9"/></g></svg>