<?xml version="1.0" encoding="utf-8"?>
<!-- Generator: Adobe Illustrator 24.0.3, SVG Export Plug-In . SVG Version: 6.00 Build 0)  -->
<svg version="1.1" id="Layer_1" xmlns="http://www.w3.org/2000/svg" xmlns:xlink="http://www.w3.org/1999/xlink" x="0px" y="0px"
	 viewBox="0 0 128 128" style="enable-background:new 0 0 128 128;" xml:space="preserve">
<g id="hairGroup">
	<path id="hair_3_" style="fill:#312D2D;" d="M98.9,79.85c-1.25-2.27,0.34-4.58,3.06-7.44c4.31-4.54,4.65-7.69,2.3-14.72
		c-10.92-22.46-76.97-19.86-80.61,0c-2.59,5.44-1.9,10.18,2.41,14.72c2.71,2.86,4.3,5.17,3.06,7.44c-1.21,2.21-4.81,2.53-4.81,2.53
		s0.83,2.26,2.83,3.48c1.85,1.13,4.13,1.39,5.7,1.43c0,0,6.15,8.51,22.23,8.51l8.94,0l8.95,0c16.08,0,22.23-8.51,22.23-8.51
		c1.57-0.04,3.85-0.3,5.7-1.43c2-1.22,2.83-3.48,2.83-3.48S100.11,82.06,98.9,79.85z"/>
	<g id="hairHighlights_1_">
		
			<radialGradient id="SVGID_1_" cx="99.638" cy="45.8498" r="23.419" gradientTransform="matrix(1 0 0 0.4912 -21.0551 59.6285)" gradientUnits="userSpaceOnUse">
			<stop  offset="0.7275" style="stop-color:#454140;stop-opacity:0"/>
			<stop  offset="1" style="stop-color:#454140"/>
		</radialGradient>
		<path style="fill:url(#SVGID_1_);" d="M63.99,95.79v-9.44l28.57-2.26l2.6,3.2c0,0-6.15,8.51-22.23,8.51L63.99,95.79z"/>
		
			<radialGradient id="SVGID_2_" cx="76.5728" cy="49.3316" r="6.9209" gradientTransform="matrix(-0.9057 0.4238 -0.3144 -0.6719 186.5131 79.3597)" gradientUnits="userSpaceOnUse">
			<stop  offset="0.6628" style="stop-color:#454140"/>
			<stop  offset="1" style="stop-color:#454140;stop-opacity:0"/>
		</radialGradient>
		<path style="fill:url(#SVGID_2_);" d="M95.1,83.16c-4.28-6.5,5.21-8.93,5.21-8.93s0.01,0.01,0.01,0.01
			c-1.65,2.05-2.4,3.84-1.43,5.61c1.21,2.21,4.81,2.53,4.81,2.53S98.79,86.74,95.1,83.16z"/>
		
			<radialGradient id="SVGID_3_" cx="91.9529" cy="61.0367" r="29.4445" gradientTransform="matrix(-0.0746 -0.8535 0.8311 -0.0532 42.4031 150.0553)" gradientUnits="userSpaceOnUse">
			<stop  offset="0.7247" style="stop-color:#454140;stop-opacity:0"/>
			<stop  offset="1" style="stop-color:#454140"/>
		</radialGradient>
		<path style="fill:url(#SVGID_3_);" d="M104.22,58.1c2.86,6.35,1.35,10.9-1.75,13.75c-0.43,0.39-3.54,3.89-3.95,5.1
			c0,0-7.07-8.44-9.18-13.4c-0.43-1-0.81-2.03-0.87-3.1c-0.04-0.8,0.11-1.75,0.64-2.43c0.66-0.83,11.47-7.25,11.47-7.25
			C100.58,50.78,104.22,58.1,104.22,58.1z"/>
		
			<radialGradient id="SVGID_4_" cx="33.4714" cy="66.9002" r="23.9417" gradientTransform="matrix(0.0617 -0.7148 -0.6874 -0.0446 79.0497 92.535)" gradientUnits="userSpaceOnUse">
			<stop  offset="0.7247" style="stop-color:#454140;stop-opacity:0"/>
			<stop  offset="1" style="stop-color:#454140"/>
		</radialGradient>
		<path style="fill:url(#SVGID_4_);" d="M23.64,57.68c-2.9,6.07-1.34,10.64,2.18,14.49c0.44,0.48,2.9,3.01,3.35,4.38
			c0,0,8.04-9.43,10.39-15.04c0.48-1.13,0.91-2.3,0.97-3.5c0.04-0.9-0.12-1.98-0.72-2.74c-0.74-0.94-5.17-7.64-6.42-7.64
			C31.02,47.63,23.64,57.68,23.64,57.68z"/>
		
			<radialGradient id="SVGID_5_" cx="49.4392" cy="45.8498" r="23.419" gradientTransform="matrix(-1 0 0 0.4912 98.8783 59.6285)" gradientUnits="userSpaceOnUse">
			<stop  offset="0.7275" style="stop-color:#454140;stop-opacity:0"/>
			<stop  offset="1" style="stop-color:#454140"/>
		</radialGradient>
		<path style="fill:url(#SVGID_5_);" d="M64.03,95.79v-9.44l-28.57-2.26l-2.6,3.2c0,0,6.15,8.51,22.23,8.51L64.03,95.79z"/>
		
			<radialGradient id="SVGID_6_" cx="26.3739" cy="49.3316" r="6.9209" gradientTransform="matrix(0.9057 0.4238 0.3144 -0.6719 -13.0236 100.6348)" gradientUnits="userSpaceOnUse">
			<stop  offset="0.6628" style="stop-color:#454140"/>
			<stop  offset="1" style="stop-color:#454140;stop-opacity:0"/>
		</radialGradient>
		<path style="fill:url(#SVGID_6_);" d="M32.92,83.16c4.28-6.5-5.21-8.93-5.21-8.93s-0.01,0.01-0.01,0.01
			c1.65,2.05,2.4,3.84,1.43,5.61c-1.21,2.21-4.81,2.53-4.81,2.53S29.23,86.74,32.92,83.16z"/>
	</g>
</g>
<g id="suit">
	
		<linearGradient id="SVGID_7_" gradientUnits="userSpaceOnUse" x1="64" y1="4.2599" x2="64" y2="31.0468" gradientTransform="matrix(1 0 0 -1 0 128)">
		<stop  offset="5.160900e-04" style="stop-color:#E3E3E3"/>
		<stop  offset="1" style="stop-color:#C9C9C9"/>
	</linearGradient>
	<path style="fill:url(#SVGID_7_);" d="M116,120.99V124H12v-3.01c0-14.66,17.69-22.05,38.2-24.25c4.52-0.5,9.17-0.73,13.8-0.74h0.14
		c4.59,0,9.2,0.26,13.66,0.78C98.38,99.18,116,107.14,116,120.99z"/>
	<path style="fill:#B9BBBD;" d="M77.8,96.78v7.12c0,5.47-5.61,9.91-12.54,9.91h-2.51c-6.93,0-12.55-4.44-12.55-9.92v-7.15
		c4.52-0.5,9.17-0.73,13.8-0.74h0.14C68.73,96,73.34,96.26,77.8,96.78z"/>
	<rect x="61.78" y="111.5" style="fill:#B9BBBD;" width="4.54" height="12.5"/>
</g>
<path id="neck" style="fill:#EDC391;" d="M73.08,90.08H54.92v9.98c0,4.51,3.7,8.17,8.26,8.17h1.65c4.56,0,8.26-3.66,8.26-8.17v-9.98
	H73.08z"/>
<path id="ears" style="fill:#EDC391;" d="M91.33,50.43H36.67c-5.89,0-10.71,5.14-10.71,11.41s4.82,11.41,10.71,11.41h54.65
	c5.89,0,10.71-5.14,10.71-11.41S97.22,50.43,91.33,50.43z"/>
<path id="head" style="fill:#F9DDBD;" d="M64,11.07c-17.4,0-33.52,18.61-33.52,45.39c0,26.64,16.61,39.81,33.52,39.81
	S97.52,83.1,97.52,56.46C97.52,29.68,81.4,11.07,64,11.07z"/>
<g id="eyes">
	<ellipse style="fill:#312D2D;" cx="47.56" cy="58.81" rx="4.93" ry="5.1"/>
	<ellipse style="fill:#312D2D;" cx="80.44" cy="58.81" rx="4.93" ry="5.1"/>
</g>
<g id="eyebrows">
	<path style="fill:#454140;" d="M54.98,49.82c-0.93-1.23-3.07-3.01-7.23-3.01s-6.31,1.79-7.23,3.01c-0.41,0.54-0.31,1.17-0.02,1.55
		c0.26,0.35,1.04,0.68,1.9,0.39s2.54-1.16,5.35-1.18c2.81,0.02,4.49,0.89,5.35,1.18s1.64-0.03,1.9-0.39
		C55.29,50.99,55.39,50.36,54.98,49.82z"/>
	<path style="fill:#454140;" d="M87.48,49.82c-0.93-1.23-3.07-3.01-7.23-3.01s-6.31,1.79-7.23,3.01c-0.41,0.54-0.31,1.17-0.02,1.55
		c0.26,0.35,1.04,0.68,1.9,0.39s2.54-1.16,5.35-1.18c2.81,0.02,4.49,0.89,5.35,1.18s1.64-0.03,1.9-0.39
		C87.79,50.99,87.89,50.36,87.48,49.82z"/>
</g>
<path id="nose" style="fill:#DBA689;" d="M67.86,68.06c-0.11-0.04-0.21-0.07-0.32-0.08h-7.07c-0.11,0.01-0.22,0.04-0.32,0.08
	c-0.64,0.26-0.99,0.92-0.69,1.63s1.71,2.69,4.55,2.69c2.84,0,4.25-1.99,4.55-2.69C68.85,68.98,68.5,68.32,67.86,68.06z"/>
<path id="mouth" style="fill:#444444;" d="M72.42,76.14c-3.19,1.89-13.63,1.89-16.81,0c-1.83-1.09-3.7,0.58-2.94,2.24
	c0.75,1.63,6.45,5.42,11.37,5.42s10.55-3.79,11.3-5.42C76.09,76.72,74.25,75.05,72.42,76.14z"/>
<g id="hairGroup_1_">
	<path id="hair" style="fill:#312D2D;" d="M104.07,25.11c-2.44-3.69-7.91-8.64-12.82-8.97c-0.79-4.72-59.9-8.23-56.99,0.82
		c-2.93,0.12-6.77,1.36-8.8,5.47c-2.42,4.9-1.56,8.99-0.86,10.95c-2.52,2.14-5.69,6.69-3.52,12.6c1.64,4.45,8.17,6.5,8.17,6.5
		c-0.46,8.01,1.03,12.94,1.82,14.93c0.14,0.35,0.63,0.32,0.72-0.04c0.99-3.97,4.36-17.8,4.03-20.21c0,0,11.35-2.25,22.17-10.22
		c2.2-1.62,4.59-3,7.13-4.01c13.59-5.41,16.43,3.82,16.43,3.82s9.42-1.81,12.26,11.27c1.07,4.9,1.79,12.75,2.4,18.24
		c0.04,0.39,0.57,0.47,0.72,0.11c0.95-2.18,2.85-6.5,3.3-10.91c0.16-1.55,4.34-3.6,6.14-10.26
		C108.79,36.32,105.84,27.78,104.07,25.11z"/>
</g>
<g id="turban">
	<path style="fill:#B9BBBD;" d="M107.67,43.89c0,0-6.08-8.44-32.83-16.69C53.68,20.67,33,20.89,24.41,22.01c0,0-0.27,0.23-0.97,1.25
		c0,0,25.34-2.79,53.64,7.57c10.4,3.81,24.27,8.57,30.01,16.47L107.67,43.89z"/>
	<path style="fill:none;" d="M64.98,39.18c-24.5-5.1-39.73-6.41-44.54-1.87c-0.65-6.69,1.14-11.28,3.04-13.89
		c2.18-3.01,6.41-7.14,9.49-9.25C43.88,6.67,53.2,4,64.02,4c10.59,0,23.57,6.24,33.19,12.73c3.09,2.09,5.18,3.69,7.36,6.69
		c8.29,11.42-0.32,34.26-0.32,34.26S93.65,45.14,64.98,39.18z"/>
	
		<linearGradient id="SVGID_8_" gradientUnits="userSpaceOnUse" x1="64.0412" y1="3.5728" x2="64.0412" y2="55.3328" gradientTransform="matrix(1 0 0 1 0 0.6771)">
		<stop  offset="0.0167" style="stop-color:#EEEEEE"/>
		<stop  offset="0.3279" style="stop-color:#E3E3E3"/>
		<stop  offset="0.8795" style="stop-color:#C5C5C5"/>
		<stop  offset="1" style="stop-color:#BDBDBD"/>
	</linearGradient>
	<path style="fill:url(#SVGID_8_);" d="M60.58,40.53c24.61-4.54,39.81-7.4,47.59-3.08c0.65-6.69-1.56-11.53-3.6-14.03
		C95.88,12.75,74.69,4,63.87,4c-10.59,0-30.5,5.09-40.55,19.42c-8.11,11.55,0.32,34.26,0.32,34.26S31.83,45.83,60.58,40.53z"/>
	<path style="fill:#B9BBBD;" d="M20.23,43.89c0,0,6.08-8.44,32.83-16.69c21.15-6.52,41.84-6.31,50.42-5.19c0,0,0.27,0.23,0.97,1.25
		c0,0-25.34-2.79-53.64,7.57C40.41,34.64,26.54,39.4,20.8,47.3L20.23,43.89z"/>
	<g>
		<path style="fill:#C4C6C7;" d="M108.17,36.73c0,0.24,0,0.48-0.01,0.72c-0.01,1.87-0.16,3.74-0.39,5.55
			c-0.14,1.17-0.32,2.3-0.52,3.4c-1.16,6.39-3,11.28-3,11.28S93.99,45.55,66.37,39.47c-0.46-0.09-0.92-0.19-1.39-0.29
			c-1.56-0.33-3.09-0.64-4.58-0.93c-0.85-0.17-1.69-0.33-2.52-0.49c-20.35-3.88-33.11-4.53-37.44-0.45
			c-0.65-6.69,1.14-11.28,3.04-13.89c0.11-0.15,0.22-0.3,0.34-0.45c0.33-0.44,0.7-0.89,1.1-1.36c2.3-2.69,5.55-5.73,8.05-7.44
			c6.82-4.69,13.01-7.49,19.34-8.93h0.01c2.96-0.67,5.95-1.05,9.04-1.18c0.42-0.02,0.85-0.03,1.26-0.04C63.04,4,63.46,4,63.87,4
			c0.33,0,0.67,0.01,1.01,0.02c1.72,0.05,3.5,0.26,5.31,0.6c0.35,0.06,0.71,0.13,1.07,0.21c8.87,1.91,18.43,6.83,25.95,11.9
			c1.55,1.05,2.84,1.97,4.02,3c0.08,0.06,0.15,0.13,0.22,0.2c1.09,0.99,2.1,2.08,3.12,3.49c2.1,2.89,3.12,6.53,3.46,10.34
			C108.12,34.74,108.16,35.74,108.17,36.73z"/>
	</g>
	<path style="fill:#B9BBBD;" d="M107.77,43c-0.14,1.17-0.32,2.3-0.52,3.4c-6.5-7.26-19.69-11.8-29.75-15.49
		c-24.85-9.09-47.48-8.37-53.68-7.94c0.33-0.44,0.7-0.89,1.1-1.36c9.72-0.95,29.78-0.76,50.27,5.56
		C96.14,33.63,104.81,40.2,107.77,43z"/>
	
		<linearGradient id="SVGID_9_" gradientUnits="userSpaceOnUse" x1="64.0678" y1="123.7168" x2="64.0678" y2="74.0354" gradientTransform="matrix(1 0 0 -1 0 128)">
		<stop  offset="0.0167" style="stop-color:#EEEEEE"/>
		<stop  offset="0.3279" style="stop-color:#E3E3E3"/>
		<stop  offset="0.8795" style="stop-color:#C5C5C5"/>
		<stop  offset="1" style="stop-color:#BDBDBD"/>
	</linearGradient>
	<path style="fill:url(#SVGID_9_);" d="M108.23,36.76c-0.02-0.01-0.04-0.02-0.06-0.03c-6.53-3.23-38.64-0.76-47.77,1.52
		c-0.23,0.06-0.45,0.11-0.65,0.17c-34.91,9.97-36.07,18.75-36.11,19.24c0,0.01,0,0.02,0,0.02s0,0-0.01-0.01
		c-0.05-0.16-0.58-1.61-1.22-3.88c-0.57-1.97-1.22-4.55-1.73-7.44c-0.19-1.09-0.36-2.23-0.51-3.4c-0.41-3.46-0.55-7.15-0.06-10.63
		c0.17-1.28,0.43-2.53,0.79-3.73v-0.01c0.55-1.87,1.34-3.61,2.42-5.16C30.61,13.03,41.73,7.5,52.31,5.24h0.01
		C55,4.67,57.66,4.3,60.21,4.12c0.38-0.02,0.77-0.04,1.15-0.06c0.42-0.02,0.85-0.03,1.26-0.04C63.04,4,63.46,4,63.87,4
		c0.33,0,0.67,0.01,1.01,0.02c0.42,0.02,0.86,0.04,1.3,0.07c1.28,0.11,2.62,0.28,4.01,0.53c0.35,0.06,0.71,0.13,1.07,0.21
		c3.64,0.73,7.56,1.94,11.42,3.51c0.96,0.39,1.9,0.8,2.85,1.24h0.01c5.93,2.7,11.56,6.21,15.69,10.15c0.08,0.06,0.15,0.13,0.22,0.2
		c0.58,0.55,1.12,1.12,1.64,1.69c0.4,0.45,0.78,0.9,1.13,1.35c0.12,0.15,0.24,0.3,0.35,0.45c1.64,2.17,3.57,5.4,3.75,10.37
		C108.36,34.72,108.33,35.71,108.23,36.76z"/>
	<path style="fill:#B9BBBD;" d="M104.22,22.97c-5.99-0.42-28.79-1.23-53.83,7.94c-10.04,3.68-23.19,8.21-29.71,15.44
		c-0.19-1.09-0.36-2.23-0.51-3.4c3-2.81,11.69-9.35,32.54-15.78c20.56-6.34,40.71-6.51,50.38-5.55
		C103.49,22.07,103.87,22.52,104.22,22.97z"/>
	<path style="fill:#B9BBBD;" d="M108.23,36.76c-0.02-0.01-0.04-0.02-0.06-0.03c0,0.24,0,0.48-0.01,0.72
		c-4.9-0.34-22.72-1.09-41.79,2.02c-4.33,0.71-8.72,1.62-13.04,2.77C43.01,45,30.16,50.44,23.64,57.66l-0.01,0.01
		c-0.05-0.16-0.58-1.61-1.22-3.88c3.88-3.19,14.31-10.76,29.55-14.67c1.92-0.49,3.9-0.95,5.92-1.36c20.39-4.18,44.69-4.44,50.15-4
		c0.1,0.01,0.2,0.02,0.29,0.03C108.36,34.72,108.33,35.71,108.23,36.76z"/>
	<path style="fill:#B9BBBD;" d="M85.53,9.58c-8.88,0.07-25.34,1.72-39.92,7.78c-7.18,2.99-20.88,10.43-25.5,14.96
		c0.17-1.28,0.43-2.53,0.79-3.73v-0.01c2.46-2.3,9.23-7.75,22.97-13.12c14.92-5.83,31.1-7.53,38.81-7.12
		C83.64,8.73,84.58,9.14,85.53,9.58z"/>
</g>
</svg>
