<svg xmlns="http://www.w3.org/2000/svg" viewBox="0 0 64 64" enable-background="new 0 0 64 64"><path d="m58 21.2c3.9-2.6 4-6.4 4-6.4-3.9-.2-3.8-4.2-7.4-7.8-6.9-7-20.5-4.7-22.6-1.5-2.1-3.2-15.7-5.5-22.6 1.5-3.6 3.7-3.5 7.7-7.4 7.8 0 0 .1 3.8 4 6.4 0 0-4.1 5.9-3.4 14.1 0 0 1.6-4 5.5-4.7-4.5 3.8-.9 14.4-4.2 18.2 0 0 4.6-2 6.5-3.3-.7 5.9.9 8.2.9 11.1 4.1-1.3 5.7-7.4 5.7-7.4 0 7.5 2.6 7.2 2.6 11.2 0 0 5.5-2.7 7.4-6.5.7 3.5 3.3 5.9 5.2 8.1 1.9-2.2 4.4-4.6 5.2-8.1 1.9 3.7 7.4 6.5 7.4 6.5 0-4 2.6-3.7 2.6-11.2 0 0 1.6 6 5.7 7.4 0-2.9 1.6-5.2.9-11.1 1.9 1.3 6.5 3.3 6.5 3.3-3.3-3.9.3-14.5-4.2-18.2 3.8.8 5.5 4.7 5.5 4.7.3-8.3-3.8-14.1-3.8-14.1" fill="#454749"/><path d="m52.1 31.9c0 5.5-5.5 8.6-5.5 15.1 0 9-9.9 1.5-14.5 1.5-4.8 0-14.8 7.4-14.8-1.7 0-6.3-5.3-9.5-5.3-14.9 0-2.5 2.7-5.7 2.8-7.8.2-3.8-2.3-7.8-2.1-10.2.8-12.9 19.3 6.1 19.3 6.1s18.5-19 19.4-5.9c.2 2.3-2.3 6.4-2.2 10.1.2 2 2.9 5.2 2.9 7.7" fill="#f46767"/><g fill="#ffce31"><path d="m23.1 9.3c-3.9-2.1-6.5-7.3-6.5-7.3s-4.3 14.8 5.4 15c3.2 0 5.7-5.3 1.1-7.7"/><path d="m40.9 9.3c3.9-2.1 6.5-7.3 6.5-7.3s4.3 14.8-5.5 15c-3.1 0-5.6-5.3-1-7.7"/></g><path d="m15.2 31.9c-3 5.2 3.1 7.5 3.1 11.8 0 9.6 6.1 2.7 13.7 2.7 7.6 0 13.7 7 13.7-2.7 0-4.4 6.2-6.5 3.1-11.8-2.7-4.8-1.9 5.8-16.8 5.8-15 0-14-10.6-16.8-5.8" fill="#454749"/><g fill="#fff"><path d="m17.4 32.8c-.3 0-.6.1-.9.2l-.2.1c-5.9 3.2-7 3.8-6.7 4.7.1.6.9.6 1.3.6 1.2 0 3.5-.4 7-.9 1.1-.2 1.8-1.1 1.7-2.3-.3-1.2-1.1-2.4-2.2-2.4"/><path d="m47.7 33.2l-.2-.1c-.3-.2-.6-.2-.9-.2-1.2 0-1.9 1.2-2 2.3-.1 1.2.5 2.1 1.7 2.3 3.5.6 5.8.9 7 .9.4 0 1.1 0 1.2-.6.2-.8-.9-1.4-6.8-4.6"/><path d="m42 44.9c-2 1.2.8 4.6 2.4 2.8 7.4-8.6 6.3-7.9-2.4-2.8"/><path d="m19.6 47.7c1.6 1.9 4.5-1.6 2.4-2.8-8.7-5.1-9.7-5.8-2.4 2.8"/><path d="m24.6 38.8c1.5-1.3-2.4-3-3.2-1.3-4 7.7-3.2 7 3.2 1.3"/><path d="m42.6 37.5c-.9-1.7-4.7 0-3.2 1.3 6.4 5.7 7.2 6.4 3.2-1.3"/><path d="m40.4 46.2c-.6.4-2.6.4-3.2 0-.6-.4-.5-2 0-2.5.6-.5 2.6-.5 3.2 0 .5.4.6 2.1 0 2.5"/><path d="m26.8 46.2c-.6.4-2.6.4-3.2 0-.6-.4-.5-2 0-2.5.6-.5 2.6-.5 3.2 0 .5.4.6 2.1 0 2.5"/></g><path d="m35.7 45.3c-1.3.8-6 .8-7.4 0-.7-.4 0-1.9.6-2.3 1.3-.8 4.9-.8 6.3 0 .6.4 1.2 1.9.5 2.3" fill="#bc2e2e"/><g fill="#fff"><path d="m26.3 37.9c2.2.9 9 1 11.4 0 1.2-.2 1 1.3 0 2-1.9 1.9-9.5 1.9-11.3 0-1.1-.7-1.2-2.1-.1-2"/><path d="m28 25c0 4.8-10.6 4.8-10.6 0 0-6.5 10.6-6.5 10.6 0"/></g><path d="m24.9 25c0 2.9-4.4 2.9-4.4 0 0-2.9 4.4-2.9 4.4 0" fill="#454749"/><path d="m46.6 25c0 4.8-10.6 4.8-10.6 0 0-6.5 10.6-6.5 10.6 0" fill="#fff"/><g fill="#454749"><path d="m43.5 25c0 2.9-4.4 2.9-4.4 0 0-2.9 4.4-2.9 4.4 0"/><path d="m11.7 17.5c0 0 5.8 2.2 10.7 5.9 5.7 4.3 8.5 1.4 6-1.6-1.8-2.4-7.5-6.2-16.7-4.3"/><path d="m35.6 21.7c-2.5 3.1.4 5.9 6 1.6 4.9-3.7 10.7-5.9 10.7-5.9-9.2-1.8-14.9 2-16.7 4.3"/></g><path d="m35.9 31.4c-.3-1.3-1.2-6.1-1.2-7.2.2-3.8-5.6-3.8-5.4 0 .1 1.1-.9 5.9-1.2 7.2-3.3-.3-5.1 3.9-.3 3.9 1.9 0 2.3 1.7 4.2 1.7s2.3-1.7 4.2-1.7c4.7 0 2.9-4.2-.3-3.9" fill="#bc2e2e"/></svg>