<svg xmlns="http://www.w3.org/2000/svg" viewBox="0 0 64 64" enable-background="new 0 0 64 64"><path d="m57 27c0-17-12-25-25-25-13 0-25 8-25 25-3.5 0-5 2.5-5 5s1.5 5 5 5c0 6.7 7 16 25 16s25-9.3 25-16c3.5 0 5-2.5 5-5 0-2.5-1.5-5-5-5" fill="#8a6859"/><path d="m33 15c-4-3-2-7-2-7s8 5 15 3c0 0-4-1-5-4 0 0 4 1 7 0-4-3-9-5-16-5-7 0-12 2-16 5 4 5 8 8 17 8" fill="#231f20"/><g fill="#ff717f"><path d="m56 37.4c-.4-2.4-3.3-3.9-6.6-3.2-3.3.6-5.7 3.1-5.3 5.5.4 2.4 3.3 3.9 6.6 3.2 3.2-.7 5.6-3.1 5.3-5.5" opacity=".5"/><path d="m14.6 34.1c-3.2-.6-6.2.9-6.6 3.3-.4 2.4 2 4.9 5.3 5.5 3.3.6 6.3-.8 6.6-3.2.4-2.5-2-4.9-5.3-5.6" opacity=".5"/></g><path d="m26 27.5c0 3.6-2.9 6.5-6.5 6.5-3.6 0-6.5-2.9-6.5-6.5 0-3.6 2.9-6.5 6.5-6.5 3.6 0 6.5 2.9 6.5 6.5" fill="#fff"/><circle cx="19.5" cy="27.5" r="4.5" fill="#664e27"/><path d="m21 27.5c0 .8-.7 1.5-1.5 1.5-.8 0-1.5-.7-1.5-1.5 0-.8.7-1.5 1.5-1.5.8 0 1.5.7 1.5 1.5" fill="#231f20"/><path d="m51 27.5c0 3.6-2.9 6.5-6.5 6.5-3.6 0-6.5-2.9-6.5-6.5 0-3.6 2.9-6.5 6.5-6.5 3.6 0 6.5 2.9 6.5 6.5" fill="#fff"/><circle cx="44.5" cy="27.5" r="4.5" fill="#664e27"/><circle cx="44.5" cy="27.5" r="1.5" fill="#231f20"/><path d="m47 43.8c0 8.3-6.7 12.2-15 12.2-8.3 0-15-3.9-15-12.2 0-8.4 6.8-4.8 15-4.8 8.3 0 15-3.6 15 4.8" fill="#61c2ff"/><ellipse cx="32" cy="47" rx="6" ry="5" fill="#6235a8"/><path d="m32 46c-6.1 0-11-.7-11 5.2 0 6 4.9 10.8 11 10.8 6.1 0 11-4.8 11-10.7 0-6-4.9-5.3-11-5.3m0 12.4c-4.3 0-8.3-2.9-8.3-7.1 0-4.2 4-3.2 8.3-3.2s8.3-1 8.3 3.2c0 4.2-4 7.1-8.3 7.1" fill="#fbbf67"/><path d="m36 48.8c0 .6-.5 1.2-1.1 1.2h-5.8c-.6 0-1.1-.5-1.1-1.2v-2.7c0-.6.5-1.2 1.1-1.2h5.8c.6 0 1.1.5 1.1 1.2v2.7" fill="#42ade2"/><path d="m32 38c-4.2 0-6.3-3-4.2-3s6.3 0 8.4 0c2.1 0 0 3-4.2 3" fill="#705041"/></svg>