<svg xmlns="http://www.w3.org/2000/svg" viewBox="0 0 64 64" enable-background="new 0 0 64 64"><path d="m0 38.8l11.6 5.3c0 0 2.3 4.6 6.3 7.7 4.4 3.4 9.9 4.5 9.9 4.5l-1.1 5.6c0 0-1.4-2.9-5.3-2.9-3.7 0-6.4 5-6.4 5s-1.4-7.3-4-9.5c-2.6-2.2-11-.9-11-.9 0 0 2.7-5.5 2.7-9.4 0-3.6-2.7-5.4-2.7-5.4" fill="#d35454"/><g fill="#ad4040"><path d="m0 38.8c2.1.5 4.1 1.2 6.1 1.9 1 .3 2 .7 3 1.1 1 .4 2 .7 3 1.1l.3.1.3.5c.8 1.3 1.8 2.8 2.9 4 1.1 1.3 2.2 2.4 3.5 3.4 1.3 1 2.7 1.9 4.2 2.6.7.4 1.5.8 2.3 1.1.8.4 1.6.7 2.3.9l.8.3-.2.6c-.6 1.8-1.1 3.7-1.8 5.5 0-1.9.2-3.8.3-5.8l.6.9c-1.8-.2-3.6-.6-5.3-1.2-1.7-.6-3.4-1.4-4.9-2.5-1.5-1.1-2.9-2.4-4-3.8-1.2-1.5-2.1-3-2.9-4.7l.6.6c-.9-.5-1.9-1-2.8-1.5-.9-.5-1.9-1-2.8-1.6-1.9-1.2-3.7-2.3-5.5-3.5"/><path d="m0 53.5l10.6-10.6 1.9 2.3z"/><path d="m15 64l2.9-11.8 2.8 1.1z"/></g><path d="m64 38.8l-11.6 5.3c0 0-2.3 4.6-6.3 7.7-4.4 3.4-9.9 4.5-9.9 4.5l1.1 5.6c0 0 1.4-2.9 5.3-2.9 3.7 0 6.4 5 6.4 5s1.4-7.3 4-9.5c2.6-2.2 11-.9 11-.9 0 0-2.7-5.5-2.7-9.4 0-3.6 2.7-5.4 2.7-5.4" fill="#d35454"/><g fill="#ad4040"><path d="m64 38.8c-1.8 1.2-3.6 2.4-5.4 3.4-.9.5-1.8 1.1-2.8 1.6-.9.5-1.9 1-2.8 1.5l.6-.6c-.8 1.8-1.8 3.3-2.9 4.7-1.2 1.4-2.5 2.8-4 3.8-1.6 1.1-3.2 1.9-4.9 2.5-1.7.6-3.5 1-5.3 1.2l.6-.9c.2 1.9.3 3.8.4 5.8-.7-1.8-1.2-3.7-1.8-5.5l-.2-.6.8-.3c.8-.3 1.6-.6 2.3-.9.8-.3 1.5-.7 2.3-1.1 1.5-.8 2.9-1.7 4.2-2.6 1.3-1 2.4-2.1 3.5-3.4 1.1-1.2 2.1-2.6 2.9-4l.3-.5.3-.1c1-.4 2-.8 3-1.1 1-.4 2-.7 3-1.1 1.8-.7 3.8-1.3 5.9-1.8"/><path d="m64 53.5l-12.5-8.3 1.9-2.3z"/><path d="m49 64l-5.7-10.7 2.8-1.1z"/></g><circle cx="32" cy="29" r="27" fill="#f46767"/><path d="m46.2 37.4c0 6-4.7 13-14.2 13-9.5 0-14.2-7-14.2-13 0 0 4.7 0 14.2 0 9.5 0 14.2 0 14.2 0" fill="#493b30"/><path d="m34 39.9c-.6 0-1.6.6-1.2 2.1.2.8 1.3 1.7 1.3 2.9 0 2.5-4.1 2.5-4.1 0 0-1.2 1.1-2.1 1.3-2.9.4-1.5-.6-2.1-1.2-2.1-1.7 0-4.5 1.8-4.5 4.8 0 3.4 2.9 6.1 6.6 6.1s6.6-2.7 6.6-6.1c-.2-3-3.1-4.8-4.8-4.8" fill="#302822"/><path d="m38.8 49.1c-1.8-1.1-4.1-1.7-6.8-1.7s-5 .7-6.8 1.7c1.8 1.1 4.1 1.7 6.8 1.7s5-.6 6.8-1.7" fill="#ff717f"/><g fill="#fff"><path d="m32 37.8l2.3 4.2 2.2-4.2z"/><path d="m36.5 37.8l2.3 4.2 2.2-4.2z"/><path d="m41 37.8l2.3 4.2 2.3-4.2z"/><path d="m23 37.8l2.2 4.2 2.3-4.2z"/><path d="m18.4 37.8l2.3 4.2 2.3-4.2z"/><path d="m27.5 37.8l2.2 4.2 2.3-4.2z"/></g><path d="m32 51.2c-9.7 0-14.9-7.1-14.9-13.8v-.7h29.9v.7c-.1 6.7-5.3 13.8-15 13.8m-13.4-13c.4 5.7 5 11.5 13.4 11.5 8.4 0 13-5.8 13.4-11.5h-26.8" fill="#493b30"/><path d="m51 22c1.9 4 .1 8.8-3.9 10.7-4 1.9-8.8.1-10.7-3.9-1.4-3 13.2-9.8 14.6-6.8" fill="#fff"/><g fill="#493b30"><path d="m48.6 23.1c1.3 2.7.1 6-2.6 7.2-2.7 1.3-6 .1-7.2-2.6-.9-1.7 9-6.3 9.8-4.6"/><path d="m52.5 22.4c-1.7.2-3.3.4-4.8.8-1.5.4-2.9.9-4.3 1.6-1.4.6-2.7 1.4-4 2.3s-2.5 1.9-3.7 3.2c.2-1.8 1.1-3.4 2.2-4.8 1.2-1.4 2.7-2.5 4.3-3.2 1.6-.8 3.4-1.2 5.2-1.2 1.8-.1 3.6.3 5.1 1.3"/></g><path d="m13 22c-1.9 4-.1 8.8 3.9 10.7 4 1.9 8.8.1 10.7-3.9 1.4-3-13.2-9.8-14.6-6.8" fill="#fff"/><g fill="#493b30"><path d="m15.4 23.1c-1.3 2.7-.1 6 2.6 7.2 2.7 1.3 6 .1 7.2-2.6.9-1.7-9-6.3-9.8-4.6"/><path d="m11.5 22.4c1.5-1 3.3-1.4 5.1-1.4 1.8 0 3.6.4 5.2 1.2 1.6.7 3.1 1.9 4.3 3.2 1.2 1.4 2 3 2.2 4.8-1.2-1.2-2.4-2.3-3.7-3.2-1.3-.9-2.6-1.6-4-2.3-1.4-.6-2.8-1.2-4.3-1.6-1.5-.3-3-.6-4.8-.7"/></g><g fill="#ffdd67"><path d="m55.7 0c0 0-1.9 6-6.4 9.8-5.1 4.4-.2 10 3.9 8.8 3.1-.9 7.6-5.5 2.5-18.6"/><path d="m14.7 9.8c-4.5-3.8-6.4-9.8-6.4-9.8-5 13.1-.5 17.7 2.5 18.6 4 1.2 9-4.3 3.9-8.8"/></g></svg>