<?xml version="1.0" encoding="UTF-8" standalone="no"?><svg xmlns:dc="http://purl.org/dc/elements/1.1/" xmlns:cc="http://creativecommons.org/ns#" xmlns:rdf="http://www.w3.org/1999/02/22-rdf-syntax-ns#" xmlns:svg="http://www.w3.org/2000/svg" xmlns="http://www.w3.org/2000/svg" viewBox="0 0 45 45" style="enable-background:new 0 0 45 45;" xml:space="preserve" version="1.1" id="svg2"><metadata id="metadata8"><rdf:RDF><cc:Work rdf:about=""><dc:format>image/svg+xml</dc:format><dc:type rdf:resource="http://purl.org/dc/dcmitype/StillImage"/></cc:Work></rdf:RDF></metadata><defs id="defs6"><clipPath id="clipPath16" clipPathUnits="userSpaceOnUse"><path id="path18" d="M 0,36 36,36 36,0 0,0 0,36 Z"/></clipPath></defs><g transform="matrix(1.25,0,0,-1.25,0,45)" id="g10"><g id="g12"><g clip-path="url(#clipPath16)" id="g14"><g transform="translate(36,9)" id="g20"><path id="path22" style="fill:#ccd6dd;fill-opacity:1;fill-rule:nonzero;stroke:none" d="m 0,0 c 0,-2.209 -1.791,-4 -4,-4 l -28,0 c -2.209,0 -4,1.791 -4,4 l 0,18 c 0,2.209 1.791,4 4,4 l 28,0 c 2.209,0 4,-1.791 4,-4 L 0,0 Z"/></g><g transform="translate(11.9492,18.3643)" id="g24"><path id="path26" style="fill:#99aab5;fill-opacity:1;fill-rule:nonzero;stroke:none" d="m 0,0 -11.312,-11.313 c -0.027,-0.028 -0.038,-0.063 -0.061,-0.091 0.34,-0.571 0.814,-1.043 1.385,-1.384 0.029,0.023 0.063,0.033 0.09,0.059 L 1.416,-1.414 c 0.39,0.391 0.39,1.022 0,1.414 C 1.023,0.391 0.392,0.391 0,0"/></g><g transform="translate(35.4229,6.96)" id="g28"><path id="path30" style="fill:#99aab5;fill-opacity:1;fill-rule:nonzero;stroke:none" d="m 0,0 c -0.021,0.028 -0.033,0.063 -0.06,0.09 l -11.312,11.314 c -0.392,0.391 -1.024,0.391 -1.415,0 -0.391,-0.391 -0.391,-1.023 0,-1.414 L -1.474,-1.324 c 0.027,-0.027 0.062,-0.037 0.09,-0.06 C -0.812,-1.044 -0.34,-0.57 0,0"/></g><g transform="translate(32,31)" id="g32"><path id="path34" style="fill:#99aab5;fill-opacity:1;fill-rule:nonzero;stroke:none" d="m 0,0 -28,0 c -2.209,0 -4,-1.791 -4,-4 l 0,-1.03 14.527,-14.495 c 1.895,-1.894 4.989,-1.894 6.885,0 L 4,-5.009 4,-4 C 4,-1.791 2.209,0 0,0"/></g><g transform="translate(32,31)" id="g36"><path id="path38" style="fill:#e1e8ed;fill-opacity:1;fill-rule:nonzero;stroke:none" d="m 0,0 -28,0 c -1.588,0 -2.949,-0.934 -3.595,-2.275 l 14.766,-14.767 c 1.561,-1.562 4.096,-1.562 5.657,0 L 3.595,-2.275 C 2.949,-0.934 1.589,0 0,0"/></g><g transform="translate(27,19.2202)" id="g40"><path id="path42" style="fill:#e75a70;fill-opacity:1;fill-rule:nonzero;stroke:none" d="m 0,0 c 0,2.754 -2.232,4.987 -4.986,4.987 -1.672,0 -3.148,-0.826 -4.053,-2.087 -0.906,1.261 -2.381,2.087 -4.051,2.087 -2.754,0 -4.987,-2.233 -4.987,-4.987 0,-0.391 0.05,-0.769 0.134,-1.133 0.693,-4.302 5.476,-8.841 8.904,-10.087 3.428,1.246 8.212,5.785 8.904,10.086 C -0.05,-0.769 0,-0.391 0,0"/></g></g></g></g></svg>
