<?xml version="1.0" encoding="UTF-8" standalone="no"?><svg xmlns:dc="http://purl.org/dc/elements/1.1/" xmlns:cc="http://creativecommons.org/ns#" xmlns:rdf="http://www.w3.org/1999/02/22-rdf-syntax-ns#" xmlns:svg="http://www.w3.org/2000/svg" xmlns="http://www.w3.org/2000/svg" viewBox="0 0 45 45" style="enable-background:new 0 0 45 45;" xml:space="preserve" version="1.1" id="svg2"><metadata id="metadata8"><rdf:RDF><cc:Work rdf:about=""><dc:format>image/svg+xml</dc:format><dc:type rdf:resource="http://purl.org/dc/dcmitype/StillImage"/></cc:Work></rdf:RDF></metadata><defs id="defs6"/><g transform="matrix(1.25,0,0,-1.25,0,45)" id="g10"><g transform="translate(7.0002,33.0003)" id="g12"><path id="path14" style="fill:#bdddf4;fill-opacity:1;fill-rule:nonzero;stroke:none" d="M 0,0 -7,-9 3,-9 5.999,0 0,0 Z"/></g><g transform="translate(23.0004,33.0003)" id="g16"><path id="path18" style="fill:#5dadec;fill-opacity:1;fill-rule:nonzero;stroke:none" d="M 0,0 3,-9 13,-9 5.999,0 0,0 Z"/></g><g transform="translate(26.0001,24.0003)" id="g20"><path id="path22" style="fill:#4289c1;fill-opacity:1;fill-rule:nonzero;stroke:none" d="M 0,0 -8,-21.001 10,0 0,0 Z"/></g><g transform="translate(0,24.0003)" id="g24"><path id="path26" style="fill:#8ccaf7;fill-opacity:1;fill-rule:nonzero;stroke:none" d="M 0,0 18,-21.001 10,0 0,0 Z"/></g><g transform="translate(13,33)" id="g28"><path id="path30" style="fill:#8ccaf7;fill-opacity:1;fill-rule:nonzero;stroke:none" d="M 0,0 -3,-9 13,-9 10,0 0,0 Z"/></g><g transform="translate(18,3)" id="g32"><path id="path34" style="fill:#5dadec;fill-opacity:1;fill-rule:nonzero;stroke:none" d="M 0,0 -8,21 8,21 0,0 Z"/></g></g></svg>
