<?xml version="1.0" encoding="utf-8"?>
<!-- Generator: Adobe Illustrator 24.0.3, SVG Export Plug-In . SVG Version: 6.00 Build 0)  -->
<svg version="1.1" id="Layer_1" xmlns="http://www.w3.org/2000/svg" xmlns:xlink="http://www.w3.org/1999/xlink" x="0px" y="0px"
	 viewBox="0 0 128 128" style="enable-background:new 0 0 128 128;" xml:space="preserve">
<g id="hairGroup">
	<path id="hair_3_" style="fill:#543930;" d="M83.15,79.85c-1.25-2.27,0.34-4.58,3.06-7.44c4.31-4.54,9-15.07,4.64-25.76
		c0.03-0.06-0.86-1.86-0.83-1.92l-1.79-0.09c-0.57-0.08-20.26-0.12-39.97-0.12s-39.4,0.04-39.97,0.12c0,0-2.65,1.95-2.63,2.01
		C1.3,57.34,5.99,67.86,10.3,72.4c2.71,2.86,4.3,5.17,3.06,7.44c-1.21,2.21-4.81,2.53-4.81,2.53s0.83,2.26,2.83,3.48
		c1.85,1.13,4.13,1.39,5.7,1.43c0,0,6.15,8.51,22.23,8.51l8.95,0l8.95,0c16.08,0,22.23-8.51,22.23-8.51c1.57-0.04,3.85-0.3,5.7-1.43
		c2-1.22,2.83-3.48,2.83-3.48S84.36,82.06,83.15,79.85z"/>
	<g id="hairHighlights_1_">
		
			<radialGradient id="SVGID_1_" cx="115.3845" cy="45.8498" r="23.419" gradientTransform="matrix(1 0 0 0.4912 -52.548 59.6285)" gradientUnits="userSpaceOnUse">
			<stop  offset="0.7275" style="stop-color:#6D4C41;stop-opacity:0"/>
			<stop  offset="1" style="stop-color:#6D4C41"/>
		</radialGradient>
		<path style="fill:url(#SVGID_1_);" d="M48.24,95.79v-9.44l28.57-2.26l2.6,3.2c0,0-6.15,8.51-22.23,8.51L48.24,95.79z"/>
		
			<radialGradient id="SVGID_2_" cx="92.3192" cy="49.3316" r="6.9209" gradientTransform="matrix(-0.9057 0.4238 -0.3144 -0.6719 185.029 72.686)" gradientUnits="userSpaceOnUse">
			<stop  offset="0.6628" style="stop-color:#6D4C41"/>
			<stop  offset="1" style="stop-color:#6D4C41;stop-opacity:0"/>
		</radialGradient>
		<path style="fill:url(#SVGID_2_);" d="M79.35,83.16c-4.28-6.5,5.21-8.93,5.21-8.93s0.01,0.01,0.01,0.01
			c-1.65,2.05-2.4,3.84-1.43,5.61c1.21,2.21,4.81,2.53,4.81,2.53S83.05,86.74,79.35,83.16z"/>
		
			<radialGradient id="SVGID_3_" cx="110.2555" cy="68.9103" r="30.3992" gradientTransform="matrix(-0.0746 -0.9972 0.8311 -0.0622 18.9224 173.3244)" gradientUnits="userSpaceOnUse">
			<stop  offset="0.7247" style="stop-color:#6D4C41;stop-opacity:0"/>
			<stop  offset="1" style="stop-color:#6D4C41"/>
		</radialGradient>
		<path style="fill:url(#SVGID_3_);" d="M90.87,46.65c4.25,10.35-0.22,21.01-4.41,25.51c-0.57,0.62-3.01,3.01-3.57,4.92
			c0,0-9.54-13.31-12.39-21.13c-0.57-1.58-1.1-3.2-1.17-4.88c-0.05-1.26,0.14-2.76,0.87-3.83c0.89-1.31,20.16-1.7,20.16-1.7
			C90.36,45.55,90.87,46.65,90.87,46.65z"/>
		
			<radialGradient id="SVGID_4_" cx="28.5638" cy="68.9103" r="30.3992" gradientTransform="matrix(0.0746 -0.9972 -0.8311 -0.0622 83.7029 91.8605)" gradientUnits="userSpaceOnUse">
			<stop  offset="0.7247" style="stop-color:#6D4C41;stop-opacity:0"/>
			<stop  offset="1" style="stop-color:#6D4C41"/>
		</radialGradient>
		<path style="fill:url(#SVGID_4_);" d="M5.66,46.65C1.41,57,5.88,67.66,10.07,72.15c0.57,0.62,3.01,3.01,3.57,4.92
			c0,0,9.54-13.31,12.39-21.13c0.58-1.58,1.1-3.2,1.17-4.88c0.05-1.26-0.14-2.76-0.87-3.83c-0.89-1.31-1.93-0.96-3.44-0.96
			c-2.88,0-15.49-0.74-16.47-0.74C6.43,45.55,5.66,46.65,5.66,46.65z"/>
		
			<radialGradient id="SVGID_5_" cx="33.6927" cy="45.8498" r="23.419" gradientTransform="matrix(-1 0 0 0.4912 67.3855 59.6285)" gradientUnits="userSpaceOnUse">
			<stop  offset="0.7275" style="stop-color:#6D4C41;stop-opacity:0"/>
			<stop  offset="1" style="stop-color:#6D4C41"/>
		</radialGradient>
		<path style="fill:url(#SVGID_5_);" d="M48.29,95.79v-9.44l-28.57-2.26l-2.6,3.2c0,0,6.15,8.51,22.23,8.51L48.29,95.79z"/>
		
			<radialGradient id="SVGID_6_" cx="10.6275" cy="49.3316" r="6.9209" gradientTransform="matrix(0.9057 0.4238 0.3144 -0.6719 -14.5077 107.3085)" gradientUnits="userSpaceOnUse">
			<stop  offset="0.6628" style="stop-color:#6D4C41"/>
			<stop  offset="1" style="stop-color:#6D4C41;stop-opacity:0"/>
		</radialGradient>
		<path style="fill:url(#SVGID_6_);" d="M17.18,83.16c4.28-6.5-5.21-8.93-5.21-8.93s-0.01,0.01-0.01,0.01
			c1.65,2.05,2.4,3.84,1.43,5.61c-1.21,2.21-4.81,2.53-4.81,2.53S13.48,86.74,17.18,83.16z"/>
	</g>
</g>
<g id="shirt">
	
		<linearGradient id="shirt_x5F_fill_1_" gradientUnits="userSpaceOnUse" x1="50.127" y1="32.0001" x2="50.127" y2="4" gradientTransform="matrix(1 0 0 -1 0 128)">
		<stop  offset="0" style="stop-color:#F78C1F"/>
		<stop  offset="0.4801" style="stop-color:#F37F12"/>
		<stop  offset="1" style="stop-color:#EF6C00"/>
	</linearGradient>
	<path id="shirt_x5F_fill" style="fill:url(#shirt_x5F_fill_1_);" d="M96.25,124v-2.88c0-16.68-23.56-25.15-47.63-25.12
		c-18.3,0.02-36.88,4.38-44.62,14.32V124H96.25z"/>
</g>
<g id="neck">
	<path style="fill:#99674F;" d="M38.93,88.95v9.98c0,4.51,3.7,8.17,8.26,8.17h1.65c4.56,0,8.26-3.66,8.26-8.17v-9.98
		C57.1,88.95,38.93,88.95,38.93,88.95z"/>
</g>
<g id="ears">
	<path style="fill:#99674F;" d="M75.58,50.43H20.93c-5.89,0-10.71,5.14-10.71,11.41s4.82,11.41,10.71,11.41h54.65
		c5.89,0,10.71-5.14,10.71-11.41S81.47,50.43,75.58,50.43z"/>
</g>
<path id="head" style="fill:#BA8D68;" d="M48.25,11.07L48.25,11.07L48.25,11.07c-17.4,0-33.52,18.61-33.52,45.4
	c0,26.64,16.61,39.81,33.52,39.81S81.77,83.1,81.77,56.46C81.77,29.68,65.66,11.07,48.25,11.07z"/>
<g id="eyes">
	<ellipse style="fill:#49362E;" cx="31.82" cy="58.81" rx="4.93" ry="5.1"/>
	<ellipse style="fill:#49362E;" cx="64.69" cy="58.81" rx="4.93" ry="5.1"/>
</g>
<g id="eyebrows">
	<path style="fill:#613E31;" d="M39.24,49.82c-0.93-1.23-3.07-3.01-7.23-3.01s-6.31,1.79-7.23,3.01c-0.41,0.54-0.31,1.17-0.02,1.55
		c0.26,0.35,1.04,0.68,1.9,0.39s2.54-1.16,5.35-1.18c2.81,0.02,4.49,0.89,5.35,1.18c0.86,0.29,1.64-0.03,1.9-0.39
		C39.54,50.99,39.65,50.36,39.24,49.82z"/>
	<path style="fill:#613E31;" d="M71.73,49.82c-0.93-1.23-3.07-3.01-7.23-3.01s-6.31,1.79-7.23,3.01c-0.41,0.54-0.31,1.17-0.02,1.55
		c0.26,0.35,1.04,0.68,1.9,0.39s2.54-1.16,5.35-1.18c2.81,0.02,4.49,0.89,5.35,1.18c0.86,0.29,1.64-0.03,1.9-0.39
		C72.04,50.99,72.14,50.36,71.73,49.82z"/>
</g>
<path id="mouth" style="fill:#5D4037;" d="M56.67,76.14c-3.19,1.89-13.63,1.89-16.81,0c-1.83-1.09-3.7,0.58-2.94,2.24
	c0.75,1.63,6.44,5.42,11.37,5.42s10.55-3.79,11.3-5.42C60.35,76.72,58.5,75.05,56.67,76.14z"/>
<path id="nose" style="fill:#99674F;" d="M52.11,68.06c-0.11-0.04-0.21-0.07-0.32-0.08h-7.08c-0.11,0.01-0.22,0.04-0.32,0.08
	c-0.64,0.26-0.99,0.92-0.69,1.63c0.3,0.71,1.71,2.69,4.55,2.69s4.25-1.99,4.55-2.69C53.11,68.98,52.75,68.32,52.11,68.06z"/>
<g id="shadow_x5F_shirt" style="opacity:0.28;">
	
		<linearGradient id="SVGID_7_" gradientUnits="userSpaceOnUse" x1="79.3152" y1="14.5343" x2="71.6077" y2="16.1769" gradientTransform="matrix(1 0 0 -1 0 128)">
		<stop  offset="0.2651" style="stop-color:#262626"/>
		<stop  offset="1" style="stop-color:#262626;stop-opacity:0"/>
	</linearGradient>
	<path style="fill:url(#SVGID_7_);" d="M81.54,102.67c-1.62-1.42-7.23-3.04-7.23-3.04L68.83,124h9.5L81.54,102.67z"/>
</g>
<linearGradient id="hand_1_" gradientUnits="userSpaceOnUse" x1="108.1645" y1="64.1345" x2="100.1645" y2="52.8845" gradientTransform="matrix(1 0 0 -1 0 128)">
	<stop  offset="0.5" style="stop-color:#BA8D68"/>
	<stop  offset="1" style="stop-color:#A47B62"/>
</linearGradient>
<path id="hand" style="fill:url(#hand_1_);" d="M91.32,74.16c2.6,0.2,6.29,0.95,8.14,0.64c1.64-0.27,2-1.82,3.71-2.21
	c3.62-0.82,18.26-4.12,19.78-4.49c2.14-0.53,2.89-4.53-1.67-5.28C116.76,62.07,107.4,64,107.4,64s0.5-1.43,0.15-2.38
	c-0.88-2.29-3.87-1.52-5.65-1.1l-10.56,2.99C85.9,65.38,86.16,73.9,91.32,74.16z"/>
<g id="shirt_x5F_sleeve_x5F_right">
	
		<linearGradient id="sleeve_x5F_fill_1_" gradientUnits="userSpaceOnUse" x1="90.0475" y1="55.8966" x2="90.0475" y2="10.657" gradientTransform="matrix(1 0 0 -1 0 128)">
		<stop  offset="0" style="stop-color:#F78C1F"/>
		<stop  offset="0.4801" style="stop-color:#F37F12"/>
		<stop  offset="1" style="stop-color:#EF6C00"/>
	</linearGradient>
	<path id="sleeve_x5F_fill" style="fill:url(#sleeve_x5F_fill_1_);" d="M102.6,73.69c-0.03-0.9-0.73-1.63-1.63-1.69l-12.72-0.76
		c-0.93-0.07-1.75,0.61-1.86,1.54L75.58,124h28.93L102.6,73.69z"/>
</g>
<g id="hairGroup_1_">
	<path id="hair" style="fill:#543930;" d="M88.33,25.11c-2.44-3.69-7.91-8.64-12.82-8.97c-0.79-4.72-5.84-8.72-10.73-10.27
		C51.55,1.68,42.94,6.38,38.31,8.9c-0.96,0.52-7.17,3.97-11.51,1.5c-2.72-1.55-2.67-5.74-2.67-5.74s-8.52,3.25-5.61,12.3
		c-2.93,0.12-6.77,1.36-8.8,5.47c-2.42,4.9-1.56,8.99-0.86,10.95c-2.52,2.14-5.69,6.69-3.52,12.6c1.64,4.45,8.17,6.5,8.17,6.5
		c-0.46,8.01,1.03,12.94,1.82,14.93c0.14,0.35,0.63,0.32,0.72-0.04c0.99-3.97,4.36-17.8,4.03-20.21c0,0,11.34-2.25,22.17-10.22
		c2.2-1.62,4.59-3,7.13-4.01c13.59-5.41,16.43,3.82,16.43,3.82s9.42-1.81,12.26,11.27c1.07,4.9,1.79,12.75,2.4,18.24
		c0.04,0.39,0.57,0.47,0.72,0.11c0.95-2.18,2.85-6.5,3.3-10.91c0.16-1.55,4.34-3.6,6.14-10.26C93.05,36.32,90.09,27.78,88.33,25.11z
		"/>
	<g id="hairHighlights">
		
			<radialGradient id="SVGID_8_" cx="66.2725" cy="84.9462" r="35.6328" gradientTransform="matrix(0.3076 0.9515 0.706 -0.2282 -14.0864 -0.6217)" gradientUnits="userSpaceOnUse">
			<stop  offset="0.6985" style="stop-color:#6D4C41;stop-opacity:0"/>
			<stop  offset="1" style="stop-color:#6D4C41"/>
		</radialGradient>
		<path style="fill:url(#SVGID_8_);" d="M84.47,55.5c0.16-1.55,4.34-3.6,6.14-10.26c0.19-0.71,0.35-1.43,0.5-2.15
			c1.46-8.09-1.16-15.52-2.79-17.98c-2.26-3.41-7.1-7.89-11.69-8.81c-0.4-0.05-0.79-0.1-1.16-0.12c0,0,0.33,2.15-0.54,3.86
			c-1.12,2.22-3.41,2.75-3.41,2.75C83.5,34.77,82.64,44.79,84.47,55.5z"/>
		
			<radialGradient id="SVGID_9_" cx="31.5336" cy="123.7996" r="9.3426" gradientTransform="matrix(0.8813 0.4726 0.5603 -1.045 -65.6214 118.6691)" gradientUnits="userSpaceOnUse">
			<stop  offset="0.58" style="stop-color:#6D4C41"/>
			<stop  offset="1" style="stop-color:#6D4C41;stop-opacity:0"/>
		</radialGradient>
		<path style="fill:url(#SVGID_9_);" d="M41.21,7.39c-1.1,0.53-2.06,1.06-2.9,1.51c-0.96,0.52-7.17,3.97-11.51,1.5
			c-2.67-1.52-2.67-5.58-2.67-5.72c-1.23,1.57-4.95,12.78,5.93,13.53c4.69,0.32,7.58-3.77,9.3-7.23
			C39.97,9.72,40.94,7.88,41.21,7.39z"/>
		
			<radialGradient id="SVGID_10_" cx="166.1726" cy="48.759" r="28.7211" gradientTransform="matrix(-0.9378 -0.3944 -0.2182 0.5285 218.8906 60.9376)" gradientUnits="userSpaceOnUse">
			<stop  offset="0.6985" style="stop-color:#6D4C41;stop-opacity:0"/>
			<stop  offset="1" style="stop-color:#6D4C41"/>
		</radialGradient>
		<path style="fill:url(#SVGID_10_);" d="M63.41,5.47c7.32,1.98,10.89,5.71,12.08,10.68c0.35,1.46,0.77,15.08-25.23-0.4
			c-9.67-5.76-7.03-9.36-5.9-9.77C48.78,4.38,55.21,3.25,63.41,5.47z"/>
		
			<radialGradient id="SVGID_11_" cx="27.7824" cy="115.2758" r="8.5755" gradientTransform="matrix(1 0 0 -1.2233 0 153.7415)" gradientUnits="userSpaceOnUse">
			<stop  offset="0.7016" style="stop-color:#6D4C41;stop-opacity:0"/>
			<stop  offset="1" style="stop-color:#6D4C41"/>
		</radialGradient>
		<path style="fill:url(#SVGID_11_);" d="M24.1,4.68c-0.01,0.01-0.03,0.01-0.06,0.03c0,0,0,0,0,0c-0.93,0.39-8.24,3.78-5.51,12.25
			l7.78,1.25c-6.89-6.98-2.17-13.55-2.17-13.55S24.11,4.67,24.1,4.68z"/>
		
			<radialGradient id="SVGID_12_" cx="26.6026" cy="100.139" r="16.0834" gradientTransform="matrix(-0.9657 -0.2598 -0.2432 0.9037 76.6464 -55.7229)" gradientUnits="userSpaceOnUse">
			<stop  offset="0.6605" style="stop-color:#6D4C41;stop-opacity:0"/>
			<stop  offset="1" style="stop-color:#6D4C41"/>
		</radialGradient>
		<path style="fill:url(#SVGID_12_);" d="M23.33,17.73l-4.81-0.77c-0.19,0-0.83,0.06-1.18,0.11c-2.71,0.38-5.9,1.78-7.63,5.36
			c-1.86,3.86-1.81,7.17-1.3,9.38c0.15,0.74,0.45,1.58,0.45,1.58s2.38-2.26,8.05-2.41L23.33,17.73z"/>
		
			<radialGradient id="SVGID_13_" cx="22.787" cy="84.6091" r="16.8856" gradientTransform="matrix(0.9907 0.1363 0.1915 -1.3921 -15.9884 158.0689)" gradientUnits="userSpaceOnUse">
			<stop  offset="0.5981" style="stop-color:#6D4C41;stop-opacity:0"/>
			<stop  offset="1" style="stop-color:#6D4C41"/>
		</radialGradient>
		<path style="fill:url(#SVGID_13_);" d="M8.63,33.58c-2.37,2.1-5.56,6.79-3.21,12.61c1.78,4.39,8.09,6.29,8.09,6.29
			c0,0.02,1.26,0.4,1.91,0.4l1.48-21.9c-3.03,0-5.94,0.91-7.82,2.22C9.1,33.23,8.61,33.55,8.63,33.58z"/>
	</g>
</g>
</svg>
