<?xml version="1.0" encoding="utf-8"?>
<!-- Generator: Adobe Illustrator 25.2.3, SVG Export Plug-In . SVG Version: 6.00 Build 0)  -->
<svg version="1.1" id="Layer_1" xmlns="http://www.w3.org/2000/svg" xmlns:xlink="http://www.w3.org/1999/xlink" x="0px" y="0px"
	 viewBox="0 0 128 128" style="enable-background:new 0 0 128 128;" xml:space="preserve">
<g>
	<g>
		<g>
			<path style="fill:#82AEC0;" d="M82.86,69.35l25.34-30.91l-2.95-7.23c-3.14,1.8-9.96,5.71-10.99,6.24
				c-0.27,0.14-0.49,0.36-0.64,0.63c0,0-10.12,20.43-11.57,23.42c-1.58,3.25-1.72,4.6-1.47,5.64C80.8,68.05,82.86,69.35,82.86,69.35
				z"/>
		</g>
	</g>
	<path style="fill:#DE3E31;" d="M122.27,17.79c-4.37-2.45-10.19-0.38-12.99,4.62c-1.12,2-1.34,4.4-1.41,5.3
		c-0.09,1.24-2.16,2.88-2.81,3.37c-0.11,0.08-0.15,0.24-0.09,0.36l3.17,6.81c0.08,0.18,0.31,0.23,0.46,0.11l0.81-0.65
		c2.2-1.42,4.1-1.15,4.83-0.99c3.98,0.92,8.5-1.22,10.87-5.44C127.91,26.28,126.64,20.24,122.27,17.79z M114.14,32.28
		c-2.62-1.47-3.38-5.1-1.7-8.1s5.17-4.24,7.8-2.77c2.62,1.47,3.38,5.1,1.7,8.1S116.76,33.75,114.14,32.28z"/>
	<circle style="fill:#B9E4EA;" cx="98.5" cy="41.31" r="2.03"/>
	<circle style="fill:#B9E4EA;" cx="98.5" cy="41.31" r="2.03"/>
</g>
<path style="fill:#2F7889;" d="M94.94,39.29c-0.02,0.05-2.34,0.92-2.34,0.92l-0.49,1.1l0.54,8.47l2.92,1.05L94.94,39.29z"/>
<polygon style="fill:#2F7889;" points="99.75,34.31 100.93,33.67 105.66,39.23 105.69,41.45 101.98,45.61 "/>
<g id="hairGroup_11_">
	<path id="hair_17_" style="fill:#3C2C23;" d="M104.68,57.14c-2.33,2.51-10.15,6.48-14.93,5.64l-4.46-13.52l4.32-4.52
		c0,0,4.28,6.71,10.08,6.62c5.8-0.1,7.75-2.38,7.75-2.38S107.63,53.97,104.68,57.14z"/>
	
		<radialGradient id="SVGID_1_" cx="-254.0759" cy="159.9805" r="7.454" gradientTransform="matrix(-0.427 1.2847 -1.2947 -0.3273 197.1228 426.4656)" gradientUnits="userSpaceOnUse">
		<stop  offset="0.6628" style="stop-color:#554138"/>
		<stop  offset="1" style="stop-color:#554138;stop-opacity:0"/>
	</radialGradient>
	<path style="fill:url(#SVGID_1_);" d="M98.08,58.28c-14.84,0.72-8.69-13.87-8.69-13.87s3.26,5.4,8.28,6.41
		c6.83,1.37,9.79-1.84,9.79-1.84S107.25,58.05,98.08,58.28z"/>
	<path id="hair_16_" style="fill:#3C2C23;" d="M82.15,80.28c-1.25-2.27,0.34-4.58,3.06-7.44c4.31-4.54,9-15.07,4.64-25.76
		c0.03-0.06-0.86-1.86-0.83-1.92l-1.79-0.09c-0.57-0.08-20.26-0.12-39.97-0.12s-39.4,0.04-39.97,0.12c0,0-2.65,1.95-2.63,2.01
		C0.3,57.77,4.99,68.3,9.3,72.84c2.71,2.86,4.3,5.17,3.06,7.44c-1.21,2.21-4.81,2.53-4.81,2.53s0.83,2.26,2.83,3.48
		c1.85,1.13,4.13,1.39,5.7,1.43c0,0,6.15,8.51,22.23,8.51l8.95,0l8.95,0c16.08,0,22.23-8.51,22.23-8.51c1.57-0.04,3.85-0.3,5.7-1.43
		c2-1.22,2.83-3.48,2.83-3.48S83.36,82.49,82.15,80.28z"/>
	<g id="hairHighlights_11_">
		
			<radialGradient id="SVGID_2_" cx="116.388" cy="44.3792" r="23.419" gradientTransform="matrix(1 0 0 0.4912 -54.5551 60.7855)" gradientUnits="userSpaceOnUse">
			<stop  offset="0.7275" style="stop-color:#554138;stop-opacity:0"/>
			<stop  offset="1" style="stop-color:#554138"/>
		</radialGradient>
		<path style="fill:url(#SVGID_2_);" d="M47.24,96.23v-9.44l28.57-2.26l2.6,3.2c0,0-6.15,8.51-22.23,8.51L47.24,96.23z"/>
		
			<radialGradient id="SVGID_3_" cx="94.8047" cy="51.6892" r="6.9209" gradientTransform="matrix(-0.9057 0.4238 -0.3144 -0.6719 187.0178 73.6514)" gradientUnits="userSpaceOnUse">
			<stop  offset="0.6628" style="stop-color:#554138"/>
			<stop  offset="1" style="stop-color:#554138;stop-opacity:0"/>
		</radialGradient>
		<path style="fill:url(#SVGID_3_);" d="M78.35,83.6c-4.28-6.5,5.21-8.93,5.21-8.93s0.01,0.01,0.01,0.01
			c-1.65,2.05-2.4,3.84-1.43,5.61c1.21,2.21,4.81,2.53,4.81,2.53S82.04,87.17,78.35,83.6z"/>
		
			<radialGradient id="SVGID_4_" cx="113.331" cy="68.3686" r="30.3992" gradientTransform="matrix(-0.0746 -0.9972 0.8311 -0.0622 18.5985 176.7923)" gradientUnits="userSpaceOnUse">
			<stop  offset="0.7247" style="stop-color:#554138;stop-opacity:0"/>
			<stop  offset="1" style="stop-color:#554138"/>
		</radialGradient>
		<path style="fill:url(#SVGID_4_);" d="M89.87,47.08c4.25,10.35-0.22,21.01-4.41,25.51c-0.57,0.62-3.01,3.01-3.57,4.92
			c0,0-9.54-13.31-12.39-21.13c-0.57-1.58-1.1-3.2-1.17-4.88c-0.05-1.26,0.14-2.76,0.87-3.83c0.89-1.31,20.16-1.7,20.16-1.7
			C89.36,45.99,89.87,47.08,89.87,47.08z"/>
		
			<radialGradient id="SVGID_5_" cx="29.4829" cy="70.7616" r="30.3992" gradientTransform="matrix(0.0746 -0.9972 -0.8311 -0.0622 84.1694 93.3268)" gradientUnits="userSpaceOnUse">
			<stop  offset="0.7247" style="stop-color:#554138;stop-opacity:0"/>
			<stop  offset="1" style="stop-color:#554138"/>
		</radialGradient>
		<path style="fill:url(#SVGID_5_);" d="M4.65,47.08C0.41,57.44,4.88,68.09,9.06,72.59c0.57,0.62,3.01,3.01,3.57,4.92
			c0,0,9.54-13.31,12.39-21.13c0.58-1.58,1.1-3.2,1.17-4.88c0.05-1.26-0.14-2.76-0.87-3.83c-0.89-1.31-1.93-0.96-3.44-0.96
			c-2.88,0-15.49-0.74-16.47-0.74C5.42,45.99,4.65,47.08,4.65,47.08z"/>
		
			<radialGradient id="SVGID_6_" cx="34.6892" cy="44.3792" r="23.419" gradientTransform="matrix(-1 0 0 0.4912 67.3783 60.7855)" gradientUnits="userSpaceOnUse">
			<stop  offset="0.7275" style="stop-color:#554138;stop-opacity:0"/>
			<stop  offset="1" style="stop-color:#554138"/>
		</radialGradient>
		<path style="fill:url(#SVGID_6_);" d="M47.28,96.23v-9.44l-28.57-2.26l-2.6,3.2c0,0,6.15,8.51,22.23,8.51L47.28,96.23z"/>
		
			<radialGradient id="SVGID_7_" cx="9.2943" cy="50.5465" r="6.9209" gradientTransform="matrix(0.9057 0.4238 0.3144 -0.6719 -14.6857 109.1245)" gradientUnits="userSpaceOnUse">
			<stop  offset="0.6628" style="stop-color:#554138"/>
			<stop  offset="1" style="stop-color:#554138;stop-opacity:0"/>
		</radialGradient>
		<path style="fill:url(#SVGID_7_);" d="M16.17,83.6c4.28-6.5-5.21-8.93-5.21-8.93s-0.01,0.01-0.01,0.01
			c1.65,2.05,2.4,3.84,1.43,5.61c-1.21,2.21-4.81,2.53-4.81,2.53S12.48,87.17,16.17,83.6z"/>
	</g>
</g>
<g id="shirt_5_">
	
		<linearGradient id="SVGID_8_" gradientUnits="userSpaceOnUse" x1="51.567" y1="34.482" x2="51.567" y2="2.8049" gradientTransform="matrix(1 0 0 -1 0 130)">
		<stop  offset="0" style="stop-color:#F78C1F"/>
		<stop  offset="0.482" style="stop-color:#F47F12"/>
		<stop  offset="1" style="stop-color:#EF6C00"/>
	</linearGradient>
	<path style="fill:url(#SVGID_8_);" d="M47.27,96c-0.04,0-0.09,0-0.13,0c-16.4,0.02-33.22,3.04-43.13,9.92v1.94v1.84V124h92.13h1.5
		h1.5v-2.94C99.13,104.3,72.87,96,47.27,96z"/>
</g>
<path id="neck" style="fill:#7A4C32;" d="M38.05,90.08v9.98c0,4.51,3.72,8.17,9.08,8.17s9.08-3.66,9.08-8.17v-9.98L38.05,90.08z"/>
<path id="ears" style="fill:#7A4C32;" d="M74.58,50.43H19.92c-5.89,0-10.71,5.14-10.71,11.41s4.82,11.41,10.71,11.41h54.65
	c5.89,0,10.71-5.14,10.71-11.41S80.47,50.43,74.58,50.43z"/>
<path id="head_5_" style="fill:#A56C43;" d="M47.25,11.07L47.25,11.07L47.25,11.07c-17.4,0-33.52,18.61-33.52,45.4
	c0,26.64,16.61,39.81,33.52,39.81S80.77,83.1,80.77,56.46C80.77,29.68,64.65,11.07,47.25,11.07z"/>
<path id="mouth_5_" style="fill:#473530;" d="M55.67,76.14c-3.19,1.89-13.63,1.89-16.81,0c-1.83-1.09-3.7,0.58-2.94,2.24
	c0.75,1.63,6.44,5.42,11.37,5.42s10.55-3.79,11.3-5.42C59.34,76.72,57.5,75.05,55.67,76.14z"/>
<path id="nose_5_" style="fill:#875334;" d="M51.11,68.06c-0.11-0.04-0.21-0.07-0.32-0.08h-7.08c-0.11,0.01-0.22,0.04-0.32,0.08
	c-0.64,0.26-0.99,0.92-0.69,1.63c0.3,0.71,1.71,2.69,4.55,2.69s4.25-1.99,4.55-2.69C52.1,68.98,51.75,68.32,51.11,68.06z"/>
<g id="eyes_5_">
	<ellipse style="fill:#42312C;" cx="30.81" cy="58.81" rx="4.93" ry="5.1"/>
	<ellipse style="fill:#42312C;" cx="63.69" cy="58.81" rx="4.93" ry="5.1"/>
</g>
<g id="eyebrows_5_">
	<path style="fill:#42312C;" d="M38.24,49.82c-0.93-1.23-3.07-3.01-7.23-3.01s-6.31,1.79-7.23,3.01c-0.41,0.54-0.31,1.17-0.02,1.55
		c0.26,0.35,1.04,0.68,1.9,0.39c0.86-0.29,2.54-1.16,5.35-1.18c2.81,0.02,4.49,0.89,5.35,1.18c0.86,0.29,1.64-0.03,1.9-0.39
		C38.54,50.99,38.64,50.36,38.24,49.82z"/>
	<path style="fill:#42312C;" d="M70.73,49.82c-0.93-1.23-3.07-3.01-7.23-3.01s-6.31,1.79-7.23,3.01c-0.41,0.54-0.31,1.17-0.02,1.55
		c0.26,0.35,1.04,0.68,1.9,0.39s2.54-1.16,5.35-1.18c2.81,0.02,4.49,0.89,5.35,1.18c0.86,0.29,1.64-0.03,1.9-0.39
		C71.04,50.99,71.14,50.36,70.73,49.82z"/>
</g>
<g id="hairGroup_10_">
	<path id="hair_15_" style="fill:#3C2C23;" d="M87.32,25.55c-2.44-3.69-7.91-8.64-12.82-8.97c-0.79-4.72-5.84-8.72-10.73-10.27
		C50.54,2.12,41.93,6.81,37.31,9.34c-0.96,0.52-7.17,3.97-11.51,1.5c-2.72-1.55-2.67-5.74-2.67-5.74s-8.52,3.25-5.61,12.3
		c-2.93,0.12-6.77,1.36-8.8,5.47c-2.42,4.9-1.56,8.99-0.86,10.95c-2.52,2.14-5.69,6.69-3.52,12.6c1.64,4.45,8.17,6.5,8.17,6.5
		c-0.46,8.01,1.03,12.94,1.82,14.94c0.14,0.35,0.63,0.32,0.72-0.04c0.99-3.97,4.36-17.8,4.03-20.21c0,0,11.34-2.25,22.17-10.22
		c2.2-1.62,4.59-3,7.13-4.01c13.59-5.41,16.43,3.82,16.43,3.82s9.42-1.81,12.26,11.27c1.07,4.9,1.79,12.75,2.4,18.24
		c0.04,0.39,0.57,0.47,0.72,0.11c0.95-2.18,2.85-6.5,3.3-10.91c0.16-1.55,4.34-3.6,6.14-10.26C92.04,36.75,89.09,28.22,87.32,25.55z
		"/>
	<g id="hairHighlights_10_">
		
			<radialGradient id="SVGID_9_" cx="65.0098" cy="84.6436" r="35.6328" gradientTransform="matrix(0.3076 0.9515 0.706 -0.2282 -14.4879 0.9455)" gradientUnits="userSpaceOnUse">
			<stop  offset="0.6985" style="stop-color:#554138;stop-opacity:0"/>
			<stop  offset="1" style="stop-color:#554138"/>
		</radialGradient>
		<path style="fill:url(#SVGID_9_);" d="M83.47,55.94c0.16-1.55,4.34-3.6,6.14-10.26c0.19-0.71,0.35-1.43,0.5-2.15
			c1.46-8.09-1.16-15.52-2.79-17.98c-2.26-3.41-7.1-7.89-11.69-8.81c-0.4-0.05-0.79-0.1-1.16-0.12c0,0,0.33,2.15-0.54,3.86
			c-1.12,2.22-3.41,2.75-3.41,2.75C82.49,35.2,81.64,45.22,83.47,55.94z"/>
		
			<radialGradient id="SVGID_10_" cx="30.1762" cy="124.7096" r="9.3426" gradientTransform="matrix(0.8813 0.4726 0.5603 -1.045 -65.9385 120.6962)" gradientUnits="userSpaceOnUse">
			<stop  offset="0.58" style="stop-color:#554138"/>
			<stop  offset="1" style="stop-color:#554138;stop-opacity:0"/>
		</radialGradient>
		<path style="fill:url(#SVGID_10_);" d="M40.2,7.83c-1.1,0.53-2.06,1.06-2.9,1.51c-0.96,0.52-7.17,3.97-11.51,1.5
			c-2.67-1.52-2.67-5.58-2.67-5.72c-1.23,1.57-4.95,12.78,5.93,13.53c4.69,0.32,7.58-3.77,9.3-7.23
			C38.97,10.15,39.94,8.32,40.2,7.83z"/>
		
			<radialGradient id="SVGID_11_" cx="169.3448" cy="48.1019" r="28.7211" gradientTransform="matrix(-0.9378 -0.3944 -0.2182 0.5285 220.7185 62.9707)" gradientUnits="userSpaceOnUse">
			<stop  offset="0.6985" style="stop-color:#554138;stop-opacity:0"/>
			<stop  offset="1" style="stop-color:#554138"/>
		</radialGradient>
		<path style="fill:url(#SVGID_11_);" d="M62.41,5.9c7.32,1.98,10.89,5.71,12.08,10.68c0.35,1.46,0.77,15.08-25.23-0.4
			c-9.67-5.76-7.03-9.36-5.9-9.77C47.78,4.82,54.21,3.68,62.41,5.9z"/>
		
			<radialGradient id="SVGID_12_" cx="26.7788" cy="116.6585" r="8.5755" gradientTransform="matrix(1 0 0 -1.2233 0 155.8677)" gradientUnits="userSpaceOnUse">
			<stop  offset="0.7016" style="stop-color:#554138;stop-opacity:0"/>
			<stop  offset="1" style="stop-color:#554138"/>
		</radialGradient>
		<path style="fill:url(#SVGID_12_);" d="M23.09,5.11c-0.01,0.01-0.03,0.01-0.06,0.03c0,0,0,0,0,0c-0.93,0.39-8.24,3.78-5.51,12.26
			l7.78,1.25C18.41,11.66,23.12,5.1,23.12,5.1S23.1,5.11,23.09,5.11z"/>
		
			<radialGradient id="SVGID_13_" cx="27.8245" cy="99.9499" r="16.0834" gradientTransform="matrix(-0.9657 -0.2598 -0.2432 0.9037 76.7769 -54.8)" gradientUnits="userSpaceOnUse">
			<stop  offset="0.6605" style="stop-color:#554138;stop-opacity:0"/>
			<stop  offset="1" style="stop-color:#554138"/>
		</radialGradient>
		<path style="fill:url(#SVGID_13_);" d="M22.32,18.17l-4.81-0.77c-0.19,0-0.83,0.06-1.18,0.11c-2.71,0.38-5.9,1.78-7.63,5.36
			c-1.86,3.86-1.81,7.17-1.3,9.38c0.14,0.74,0.45,1.58,0.45,1.58s2.38-2.26,8.05-2.41L22.32,18.17z"/>
		
			<radialGradient id="SVGID_14_" cx="21.6565" cy="85.7824" r="16.8856" gradientTransform="matrix(0.9907 0.1363 0.1915 -1.3921 -16.0967 160.2911)" gradientUnits="userSpaceOnUse">
			<stop  offset="0.5981" style="stop-color:#554138;stop-opacity:0"/>
			<stop  offset="1" style="stop-color:#554138"/>
		</radialGradient>
		<path style="fill:url(#SVGID_14_);" d="M7.62,34.01c-2.37,2.1-5.56,6.79-3.21,12.61c1.78,4.39,8.09,6.29,8.09,6.29
			c0,0.02,1.26,0.4,1.91,0.4l1.48-21.9c-3.03,0-5.94,0.91-7.82,2.22C8.1,33.67,7.61,33.98,7.62,34.01z"/>
	</g>
</g>
<g>
	<g>
		<g>
			<g>
				<path style="fill:#82AEC0;" d="M98.4,73.08l-6.96-39.03l6.03-4.99c1.82,3.05,5.97,9.96,6.62,10.94
					c0.17,0.26,0.25,0.56,0.25,0.86c0,0-1.21,20.45-1.4,23.76c-0.21,3.61-0.75,6.86-1.47,7.64C100.83,72.95,98.4,73.08,98.4,73.08z"
					/>
			</g>
		</g>
		<circle style="fill:#B9E4EA;" cx="98.5" cy="41.29" r="2.03"/>
		<path style="fill:#DE3E31;" d="M80.19,19.56c0,4.85,2.91,8.92,6.83,10.06c0.72,0.21,2.51,0.91,3.73,3.22l0.39,0.96
			c0.07,0.18,0.29,0.24,0.45,0.13l6.09-4.39c0.11-0.08,0.16-0.23,0.1-0.36c-0.33-0.74-1.34-3.18-0.81-4.31
			c0.38-0.82,1.36-3.02,1.36-5.32c-0.01-5.74-4.07-10.38-9.08-10.38C84.24,9.16,80.18,13.82,80.19,19.56z M83.82,19.55
			c0-3.44,2.43-6.23,5.44-6.24c3.01,0,5.44,2.78,5.45,6.23s-2.43,6.23-5.44,6.24C86.26,25.78,83.82,23,83.82,19.55z"/>
	</g>
</g>
</svg>
