<?xml version="1.0" encoding="utf-8"?>
<!-- Generator: Adobe Illustrator 24.1.2, SVG Export Plug-In . SVG Version: 6.00 Build 0)  -->
<svg version="1.1" id="Layer_1" xmlns="http://www.w3.org/2000/svg" xmlns:xlink="http://www.w3.org/1999/xlink" x="0px" y="0px"
	 viewBox="0 0 128 128" style="enable-background:new 0 0 128 128;" xml:space="preserve">
<g>
	<g id="head_354_">
		<path style="fill:#BA8D68;" d="M25.73,34.74c27.05,0,31.37,19.51,31.37,47.59c0,23.97-10.35,39.27-28.5,41.22
			c-9.35,1-17.91-0.79-24.6-5.64V40.6C9.31,36.83,16.38,34.74,25.73,34.74z"/>
	</g>
	<g id="eyebrows_179_">
		<path style="fill:#613E31;" d="M21.35,77.36c-0.97-1.29-3.22-3.16-7.58-3.16s-6.61,1.87-7.58,3.16c-0.43,0.57-0.32,1.23-0.02,1.62
			c0.28,0.37,1.09,0.71,1.99,0.41c0.9-0.31,2.66-1.22,5.61-1.24c2.95,0.02,4.71,0.93,5.61,1.24c0.9,0.31,1.72-0.04,1.99-0.41
			C21.67,78.59,21.78,77.93,21.35,77.36z"/>
		<path style="fill:#613E31;" d="M54.33,77.36c-0.97-1.29-3.22-3.16-7.58-3.16s-6.61,1.87-7.58,3.16c-0.43,0.57-0.32,1.23-0.02,1.62
			c0.28,0.37,1.09,0.71,1.99,0.41c0.9-0.31,2.66-1.22,5.61-1.24c2.95,0.02,4.71,0.93,5.61,1.24c0.9,0.31,1.72-0.04,1.99-0.41
			C54.65,78.59,54.76,77.93,54.33,77.36z"/>
	</g>
	<g id="eyes_176_">
		<path style="fill:#49362E;" d="M19.35,85.64c0.67-0.79,1.07-0.16,1.2,0.36c0.45,1.76-0.25,4.54-3.47,5.43
			c-4.36,1.2-8.76-1.42-9.25-4.98c-0.06-0.44,0.43-0.77,0.82-0.55c1.31,0.72,2.93,2.23,6.3,1.88
			C18.23,87.45,18.63,86.49,19.35,85.64z"/>
		<path style="fill:#49362E;" d="M52.2,85.64c0.67-0.79,1.07-0.16,1.2,0.36c0.45,1.76-0.25,4.54-3.47,5.43
			c-4.36,1.2-8.76-1.42-9.25-4.98c-0.06-0.44,0.43-0.77,0.82-0.55c1.31,0.72,2.93,2.23,6.3,1.88C51.08,87.45,51.48,86.49,52.2,85.64
			z"/>
	</g>
	<path id="mouth_104_" style="fill:#5D4037;" d="M36.35,114.85c3.02,0.38,8.02-2.23,6.91-5.19c-0.42-1.12-2.1-1.45-2.1-1.45
		s2.76-3.12,1.34-4.76c-1.91-2.21-5.07-0.59-7.43-1.27c-0.48-0.14-0.99-0.36-1.46-0.2c0.2,0.94,0.76,1.62,1.95,2.04
		c1.34,0.47,2.8,0.2,3.54,0.83c0.76,0.66,0.11,1.59-0.87,2.17c-1.39,0.82-3.47,1.24-3.37,1.9c0.11,0.72,2.49,0.8,3.02,0.95
		c0.48,0.14,1.18,0.32,1.39,0.83c0.38,0.89-0.93,1.85-1.6,2.25c-0.74,0.44-2.61,0.93-2.68,0.99c-0.14,0.12-0.11,0.37,0.02,0.51
		C35.14,114.6,36.06,114.81,36.35,114.85z"/>
	<path id="nose_177_" style="fill:#99674F;" d="M38.35,93.53c-0.11-0.04-0.22-0.07-0.33-0.09h-7.33c-0.11,0.01-0.22,0.04-0.33,0.09
		c-0.66,0.27-1.03,0.96-0.72,1.69c0.31,0.73,1.77,2.79,4.71,2.79c2.94,0,4.4-2.06,4.71-2.79C39.37,94.49,39.01,93.8,38.35,93.53z"/>
	<path id="hair_604_" style="fill:#543930;" d="M62.52,55.44c-1.44-5.5-3.51-16.65-11.47-22.57c-11.22-8.35-18.1-2.25-20.55-3.78
		c-2.51-1.56-2.46-5.44-0.84-7.92c0,0-10.1-0.63-10.27,9.57C13.84,28.07,7.37,29.97,4,32.58v38.48
		c17.28-0.69,27.89-13.08,36.67-14.16c3.4-0.42,7.01,6.28,8.35,6.27c1.11-0.01,5.86-3.42,6.89,1c0.97,4.17,1.19,15.34,1.19,15.34
		C62.18,73.52,65.28,66.01,62.52,55.44z"/>
	<g id="hairHighlights_29_">
		
			<radialGradient id="SVGID_1_" cx="33.7231" cy="27.0522" r="11.7799" gradientTransform="matrix(0.9378 0.3473 -0.3751 1.0129 12.247 -12.0618)" gradientUnits="userSpaceOnUse">
			<stop  offset="0.2059" style="stop-color:#6D4C41"/>
			<stop  offset="0.6463" style="stop-color:#6D4C41;stop-opacity:0"/>
		</radialGradient>
		<path style="fill:url(#SVGID_1_);" d="M37.38,28.49c0,0-1.37,0.18-2.58,0.42c-1.83,0.36-3.86,0.74-4.71-0.04
			c-2.02-1.86-2.05-5.22-0.43-7.7c-0.02,0.02-2.83,1.04-4.23,5.09c-0.71,2.07-1.24,8.83,3.53,11.02c6.27,2.88,13.74,1.1,15.53-1.02
			C46.78,33.57,39.88,27.92,37.38,28.49z"/>
		
			<radialGradient id="SVGID_2_" cx="28.4082" cy="31.3451" r="9.0336" gradientTransform="matrix(0.9051 0.4252 -0.6155 1.3102 21.987 -21.8025)" gradientUnits="userSpaceOnUse">
			<stop  offset="0.598" style="stop-color:#6D4C41;stop-opacity:0"/>
			<stop  offset="1" style="stop-color:#6D4C41"/>
		</radialGradient>
		<path style="fill:url(#SVGID_2_);" d="M30.5,29.09c-2.51-1.56-2.46-5.44-0.84-7.92c-0.08,0.12-1.8,0.08-1.99,0.11
			c-1.48,0.2-2.94,0.66-4.22,1.44c-1.67,1.03-2.88,2.6-3.5,4.46c-0.45,1.33-0.61,2.57-0.52,3.78c0,0,2.19,1.39,2.53,4.7
			C22.01,36.3,31.75,29.86,30.5,29.09z"/>
		
			<radialGradient id="SVGID_3_" cx="30.9113" cy="54.0339" r="36.3112" gradientTransform="matrix(0.9554 -0.2952 0.2576 0.8338 -12.5431 18.1055)" gradientUnits="userSpaceOnUse">
			<stop  offset="0.6022" style="stop-color:#6D4C41;stop-opacity:0"/>
			<stop  offset="1" style="stop-color:#6D4C41"/>
		</radialGradient>
		<path style="fill:url(#SVGID_3_);" d="M18.26,49.03c1.55-2.59,3.29-8.22,3.64-11.22c0.14-1.22,0.08-2.29-0.15-3.21
			c-0.47-1.88-1.48-3.18-2.8-4.03C10.48,27.39,4.28,32.37,4,32.58V64C4.27,64.05,11.84,59.77,18.26,49.03z"/>
		
			<radialGradient id="SVGID_4_" cx="49.402" cy="51.2433" r="18.5519" gradientTransform="matrix(1 0 0 1.5527 0 -28.3221)" gradientUnits="userSpaceOnUse">
			<stop  offset="0.4751" style="stop-color:#6D4C41;stop-opacity:0"/>
			<stop  offset="0.8446" style="stop-color:#6D4C41"/>
		</radialGradient>
		<path style="fill:url(#SVGID_4_);" d="M62.52,55.44c-1.44-5.5-3.51-16.65-11.47-22.57c-1.52-1.13-2.95-1.99-4.31-2.64l2.28,32.94
			c1.11-0.01,5.86-3.42,6.89,1c0.97,4.17,1.19,15.34,1.19,15.34C62.18,73.52,65.28,66.01,62.52,55.44z"/>
	</g>
</g>
<g>
	<g id="head_351_">
		<path style="fill:#BA8D68;" d="M102.27,34.74c-27.05,0-31.37,19.51-31.37,47.59c0,23.97,10.35,39.27,28.5,41.22
			c9.35,1,17.91-0.79,24.6-5.64V40.6C118.69,36.83,111.62,34.74,102.27,34.74z"/>
	</g>
	<g id="eyebrows_175_">
		<path style="fill:#613E31;" d="M106.65,77.36c0.97-1.29,3.22-3.16,7.58-3.16c4.36,0,6.61,1.87,7.58,3.16
			c0.43,0.57,0.32,1.23,0.02,1.62c-0.28,0.37-1.09,0.71-1.99,0.41c-0.9-0.31-2.66-1.22-5.61-1.24c-2.95,0.02-4.71,0.93-5.61,1.24
			c-0.9,0.31-1.72-0.04-1.99-0.41C106.33,78.59,106.22,77.93,106.65,77.36z"/>
		<path style="fill:#613E31;" d="M73.67,77.36c0.97-1.29,3.22-3.16,7.58-3.16c4.36,0,6.61,1.87,7.58,3.16
			c0.43,0.57,0.32,1.23,0.02,1.62c-0.28,0.37-1.09,0.71-1.99,0.41c-0.9-0.31-2.66-1.22-5.61-1.24c-2.95,0.02-4.71,0.93-5.61,1.24
			c-0.9,0.31-1.72-0.04-1.99-0.41C73.35,78.59,73.24,77.93,73.67,77.36z"/>
	</g>
	<g id="eyes_172_">
		<path style="fill:#49362E;" d="M108.65,85.64c-0.67-0.79-1.07-0.16-1.2,0.36c-0.45,1.76,0.25,4.54,3.47,5.43
			c4.36,1.2,8.76-1.42,9.25-4.98c0.06-0.44-0.43-0.77-0.82-0.55c-1.31,0.72-2.93,2.23-6.3,1.88
			C109.76,87.45,109.37,86.49,108.65,85.64z"/>
		<path style="fill:#49362E;" d="M75.8,85.64c-0.67-0.79-1.07-0.16-1.2,0.36c-0.45,1.76,0.25,4.54,3.47,5.43
			c4.36,1.2,8.76-1.42,9.25-4.98c0.06-0.44-0.43-0.77-0.82-0.55c-1.31,0.72-2.93,2.23-6.3,1.88C76.92,87.45,76.52,86.49,75.8,85.64z
			"/>
	</g>
	<path id="mouth_101_" style="fill:#5D4037;" d="M91.65,114.85c-3.02,0.38-8.02-2.23-6.91-5.19c0.42-1.12,2.1-1.45,2.1-1.45
		s-2.76-3.12-1.34-4.76c1.91-2.21,5.07-0.59,7.43-1.27c0.48-0.14,0.99-0.36,1.46-0.2c-0.2,0.94-0.76,1.62-1.95,2.04
		c-1.34,0.47-2.8,0.2-3.54,0.83c-0.76,0.66-0.11,1.59,0.87,2.17c1.39,0.82,3.47,1.24,3.37,1.9c-0.11,0.72-2.49,0.8-3.02,0.95
		c-0.48,0.14-1.18,0.32-1.39,0.83c-0.38,0.89,0.93,1.85,1.6,2.25c0.74,0.44,2.61,0.93,2.68,0.99c0.14,0.12,0.11,0.37-0.02,0.51
		C92.86,114.6,91.94,114.81,91.65,114.85z"/>
	<path id="nose_174_" style="fill:#99674F;" d="M89.65,93.53c0.11-0.04,0.22-0.07,0.33-0.09h7.33c0.11,0.01,0.22,0.04,0.33,0.09
		c0.66,0.27,1.03,0.96,0.72,1.69c-0.31,0.73-1.77,2.79-4.71,2.79c-2.94,0-4.4-2.06-4.71-2.79C88.62,94.49,88.99,93.8,89.65,93.53z"
		/>
	<path id="hair_609_" style="fill:#543930;" d="M124,27.87c0,0-2.95-2.12-9.37-0.63c-2.82,0.65-5.76,3.38-8.22,1.85
		c-2.51-1.56-2.46-5.44-0.84-7.92c0,0-10.1-0.63-10.27,9.57c-5.58-2.7-12.1-0.75-15.45,1.89c-6.14,4.84-5.36,12.19-5.36,12.19
		s-15.59,4.76-7.71,24.74c0,0-1.73,2.4-1.16,8.61c0.39,4.26,2.47,8.19,5.46,9.39c0,0,0.5-20.15,1.61-19.88
		c5.06,1.23,9.25,0.04,11.15-0.61c10.89-3.71,15.57-10.67,23.03-10.13c2.7,0.19,4.62,6.26,5.96,6.25c1.11-0.01,6.25-4.18,8.6-0.29
		c0.95,1.58,1.73,2.92,2.58,4.1V27.87z"/>
	<g id="hairHighlights_34_">
		
			<radialGradient id="SVGID_5_" cx="106.8273" cy="26.9505" r="11.5639" gradientTransform="matrix(0.9378 0.3473 -0.3621 0.9777 16.4069 -36.4981)" gradientUnits="userSpaceOnUse">
			<stop  offset="0.1767" style="stop-color:#6D4C41"/>
			<stop  offset="0.6628" style="stop-color:#6D4C41;stop-opacity:0"/>
		</radialGradient>
		<path style="fill:url(#SVGID_5_);" d="M124,27.87c0,0-2.95-2.12-9.37-0.63c-2.82,0.65-5.76,3.38-8.22,1.85
			c-2.51-1.56-2.46-5.44-0.84-7.92c-0.02,0.02-3.72,1.14-5.12,4.44c-2.82,6.61-1.29,18.29,23.57,21.54
			C123.91,47.15,124,30.05,124,27.87z"/>
		
			<radialGradient id="SVGID_6_" cx="97.6958" cy="57.3115" r="33.7526" gradientTransform="matrix(0.81 0.5864 -0.7067 0.9762 59.058 -55.9239)" gradientUnits="userSpaceOnUse">
			<stop  offset="0.6022" style="stop-color:#6D4C41;stop-opacity:0"/>
			<stop  offset="1" style="stop-color:#6D4C41"/>
		</radialGradient>
		<path style="fill:url(#SVGID_6_);" d="M124,27.87c0,0-2.95-2.12-9.37-0.63c-2.82,0.65-5.76,3.38-8.22,1.85
			c-2.51-1.56-7.26,25.42,17.6,28.66C123.91,57.75,124,30.05,124,27.87z"/>
		
			<radialGradient id="SVGID_7_" cx="84.2217" cy="50.5814" r="20.8505" gradientTransform="matrix(1 0 0 1.3502 0 -3.3807)" gradientUnits="userSpaceOnUse">
			<stop  offset="0.6022" style="stop-color:#6D4C41;stop-opacity:0"/>
			<stop  offset="1" style="stop-color:#6D4C41"/>
		</radialGradient>
		<path style="fill:url(#SVGID_7_);" d="M83.56,48.67c-6.8,0.91-9.09-3.84-9.09-3.84c-9.46,3.93-9.79,10.72-9.83,15.18
			c-0.03,3.3,0.83,6.51,2.12,9.56c0,0-1.82,2.9-1.26,8.66c0.28,2.86,2,7.81,5.55,9.34c0,0,0.19-7.83,0.32-10.25
			c0.03-0.6,0.65-9.77,1.29-9.63C77.74,68.82,90.47,54.36,83.56,48.67z"/>
		
			<radialGradient id="SVGID_8_" cx="92.5006" cy="47.092" r="19.5522" gradientTransform="matrix(0.9554 -0.2952 0.2576 0.8338 -8.0098 35.1336)" gradientUnits="userSpaceOnUse">
			<stop  offset="0.6022" style="stop-color:#6D4C41;stop-opacity:0"/>
			<stop  offset="1" style="stop-color:#6D4C41"/>
		</radialGradient>
		<path style="fill:url(#SVGID_8_);" d="M97.66,34.59c-1.73-6.9-12.84-5.88-17.82-1.96c-2.79,2.2-5.36,5.86-5.36,12.19
			c0,0,0.92,1.33,1.7,2.03c1.26,1.13,2.86,1.8,4.54,2.03c4.42,0.6,9.07-0.69,12.55-3.5c2.35-1.9,4.21-4.57,4.55-7.58
			C97.96,36.58,97.9,35.52,97.66,34.59z"/>
		
			<radialGradient id="SVGID_9_" cx="104.3228" cy="31.3451" r="9.0336" gradientTransform="matrix(0.9051 0.4252 -0.6155 1.3102 29.19 -54.0784)" gradientUnits="userSpaceOnUse">
			<stop  offset="0.598" style="stop-color:#6D4C41;stop-opacity:0"/>
			<stop  offset="1" style="stop-color:#6D4C41"/>
		</radialGradient>
		<path style="fill:url(#SVGID_9_);" d="M106.41,29.09c-2.51-1.56-2.46-5.44-0.84-7.92c-0.08,0.12-1.8,0.08-1.99,0.11
			c-1.48,0.2-2.94,0.66-4.22,1.44c-1.67,1.03-2.88,2.6-3.5,4.46c-0.45,1.33-0.61,2.57-0.52,3.78c0,0,2.19,1.39,2.53,4.7
			C97.93,36.3,107.66,29.86,106.41,29.09z"/>
	</g>
</g>
<g>
	<path style="fill:#EF5592;" d="M78.41,3.74C67.87,3.74,64,14.5,64,14.5S60.18,3.74,49.57,3.74c-7.97,0-17.07,6.32-13.71,20.68
		c3.36,14.36,28.16,32.26,28.16,32.26s24.72-17.9,28.08-32.26C95.46,10.06,87.02,3.74,78.41,3.74z"/>
	<g>
		<path style="fill:#DA2E75;" d="M47.94,4.81c8.27,0,12.38,8.89,13.71,12.5c0.19,0.51,0.91,0.53,1.12,0.03l1.21-2.83
			c-1.71-5.45-6.4-10.77-14.41-10.77c-3.32,0-6.82,1.1-9.55,3.41C42.42,5.56,45.25,4.81,47.94,4.81z"/>
		<path style="fill:#DA2E75;" d="M78.41,3.74c-2.55,0-4.7,0.74-6.51,1.85c1.27-0.49,2.68-0.78,4.23-0.78
			c7.8,0,14.77,5.91,11.62,19.58c-2.7,11.73-18.5,25.96-23.32,31.39c-0.31,0.35-0.41,0.91-0.41,0.91s24.72-17.9,28.08-32.26
			C95.46,10.06,86.38,3.74,78.41,3.74z"/>
	</g>
	<g>
		<g>
			<g>
				<path style="fill:#F386AB;" d="M41.4,11.36c1.8-2.25,5.03-4.11,7.76-1.97c1.48,1.16,0.83,3.54-0.49,4.54
					c-1.93,1.46-3.6,2.34-4.77,4.63c-0.7,1.38-1.13,2.88-1.34,4.42c-0.08,0.61-0.88,0.75-1.18,0.22
					C39.34,19.6,38.77,14.65,41.4,11.36z"/>
			</g>
		</g>
	</g>
	<path style="fill:#F386AB;" d="M70.31,16.09c-0.85,0-1.44-0.82-1.13-1.61c0.57-1.45,1.31-2.86,2.2-4.11
		c1.32-1.85,3.82-2.92,5.41-1.81c1.63,1.15,1.42,3.43,0.27,4.54C74.61,15.49,71.53,16.09,70.31,16.09z"/>
</g>
</svg>
