<svg xmlns="http://www.w3.org/2000/svg" viewBox="0 0 64 64" enable-background="new 0 0 64 64"><g fill="#ed4c5c"><path d="M20.8 6.4 40.9 26.5 29.7 37.7 2.2 10.2z"/><path d="m10.6 5.8c-5.2.9-9 2.7-8.6 4.1.5 1.4 5.1 1.8 10.4.9 5.2-1 9.1-2.8 8.6-4.2-.5-1.4-5.2-1.7-10.4-.8"/></g><path d="m10.8 5.8c-4.9.8-8.5 2.6-8 3.9.5 1.3 4.8 1.6 9.7.8 4.9-.8 8.5-2.6 8-3.8-.5-1.4-4.8-1.8-9.7-.9" fill="#ff8080"/><path transform="matrix(.7071-.7071.7071.7071-10.7928 30.6765)" fill="#e8e8e8" d="m22.6 16.5h18.2v23.8h-18.2z"/><path transform="matrix(.707-.7072.7072.707-19.7271 52.2523)" fill="#555b61" d="m43.7 47h19v5.9h-19z"/><path transform="matrix(.7069-.7073.7073.7069-12.8952 35.7644)" fill="#b2c1c0" d="m27.2 30.7h19v5.5h-19z"/><path transform="matrix(.7071-.7071.7071.7071-16.45 44.3334)" fill="#3e4347" d="m34.8 29.8h21v24.4h-21z"/></svg>