<?xml version="1.0" encoding="utf-8"?>
<!-- Generator: Adobe Illustrator 24.0.3, SVG Export Plug-In . SVG Version: 6.00 Build 0)  -->
<svg version="1.1" id="Layer_1" xmlns="http://www.w3.org/2000/svg" xmlns:xlink="http://www.w3.org/1999/xlink" x="0px" y="0px"
	 viewBox="0 0 128 128" style="enable-background:new 0 0 128 128;" xml:space="preserve">
<g id="hat_x5F_back">
	<path style="fill:#424242;" d="M101.07,22.55C97.22,6.15,74.51,4.54,64.8,4.38V4.36h-1.08h-1.08v0.02
		c-9.71,0.16-31.88,1.77-35.73,18.17c-2.38,10.12-3.27,38.11-2.79,43.63c0.97,11.11,5.6,14.64,20.28,19.04
		c10.72,3.21,16.08,4.28,18.24,4.61v0.09c0,0,0.19,0.08,1.08,0.02c0.89,0.06,1.08-0.02,1.08-0.02v-0.09c2.16-0.33,8-1.4,18.72-4.61
		c14.68-4.4,19.5-7.93,20.47-19.04C104.47,60.65,103.45,32.67,101.07,22.55z"/>
</g>
<g id="hairGroup">
	<path id="hair_3_" style="fill:#3C2C23;" d="M96.6,77.52c-1.46-2.41-0.29-4.82,1.8-7.73c3.22-4.5,5.73-14.32,0.59-23.52
		c0.01-0.05-0.93-1.53-0.92-1.58l-1.47-0.07c-0.48-0.07-16.53-0.1-32.59-0.1s-32.11,0.03-32.59,0.1c0,0-2.41,1.6-2.4,1.65
		c-5.14,9.21-2.63,19.03,0.59,23.52c2.09,2.92,3.25,5.32,1.8,7.73c-1.44,2.38-4.89,2.74-4.89,2.74s0.43,2.49,2.16,3.86
		c1.61,1.27,3.77,1.57,5.28,1.62c0,0,5.02,10.07,21.1,10.07l8.94,0l8.95,0c16.08,0,21.1-10.07,21.1-10.07
		c1.51-0.04,3.67-0.34,5.28-1.62c1.73-1.36,2.16-3.86,2.16-3.86S98.04,79.9,96.6,77.52z"/>
	<g id="hairHighlights_1_">
		
			<radialGradient id="SVGID_1_" cx="100.1678" cy="47.0864" r="24.8976" gradientTransform="matrix(1 0 0 0.4912 -22.1147 56.7486)" gradientUnits="userSpaceOnUse">
			<stop  offset="0.7275" style="stop-color:#554138;stop-opacity:0"/>
			<stop  offset="1" style="stop-color:#554138"/>
		</radialGradient>
		<path style="fill:url(#SVGID_1_);" d="M63.99,95.79V84.67l27.17-2.53l2.88,3.59c0,0-5.02,10.07-21.1,10.07L63.99,95.79z"/>
		
			<radialGradient id="SVGID_2_" cx="80.2281" cy="54.4084" r="6.9949" gradientTransform="matrix(-0.9057 0.4238 -0.3144 -0.6719 189.2466 78.9372)" gradientUnits="userSpaceOnUse">
			<stop  offset="0.6628" style="stop-color:#554138"/>
			<stop  offset="1" style="stop-color:#554138;stop-opacity:0"/>
		</radialGradient>
		<path style="fill:url(#SVGID_2_);" d="M93.45,81.11c-4.73-6.96,3.7-9.47,3.7-9.47s0.01,0.01,0.01,0.01
			c-1.24,2.11-1.7,3.99-0.57,5.87c1.44,2.38,4.89,2.74,4.89,2.74S97.45,85.11,93.45,81.11z"/>
		
			<radialGradient id="SVGID_3_" cx="51.9686" cy="47.0864" r="24.8979" gradientTransform="matrix(-1 0 0 0.4912 101.9371 56.7486)" gradientUnits="userSpaceOnUse">
			<stop  offset="0.7275" style="stop-color:#554138;stop-opacity:0"/>
			<stop  offset="1" style="stop-color:#554138"/>
		</radialGradient>
		<path style="fill:url(#SVGID_3_);" d="M64.03,95.79l0-11.12l-27.17-2.53l-2.88,3.59c0,0,5.02,10.07,21.1,10.07L64.03,95.79z"/>
		
			<radialGradient id="SVGID_4_" cx="28.2164" cy="53.2657" r="6.9948" gradientTransform="matrix(0.9057 0.4238 0.3144 -0.6719 -13.7572 100.2129)" gradientUnits="userSpaceOnUse">
			<stop  offset="0.6628" style="stop-color:#554138"/>
			<stop  offset="1" style="stop-color:#554138;stop-opacity:0"/>
		</radialGradient>
		<path style="fill:url(#SVGID_4_);" d="M34.57,81.11c4.73-6.96-3.7-9.47-3.7-9.47s-0.01,0.01-0.01,0.01
			c1.24,2.11,1.7,3.99,0.57,5.87c-1.44,2.38-4.89,2.74-4.89,2.74S30.57,85.11,34.57,81.11z"/>
	</g>
</g>
<g id="suit">
	<g>
		
			<linearGradient id="SVGID_5_" gradientUnits="userSpaceOnUse" x1="64" y1="38.003" x2="64" y2="3.7659" gradientTransform="matrix(1 0 0 -1 0 130)">
			<stop  offset="0" style="stop-color:#F44336"/>
			<stop  offset="0.3592" style="stop-color:#E73B32"/>
			<stop  offset="1" style="stop-color:#C62828"/>
		</linearGradient>
		<path style="fill:url(#SVGID_5_);" d="M64.14,96H64c-25.65,0.03-52,7.1-52,24.99V124h1.45h1.44h98.22h1.46H116v-3.01
			C116,104.13,89.9,96,64.14,96z"/>
		<path style="fill:#FFFFFF;" d="M66,124v-17.2c0-0.55-0.9-1-2-1s-2,0.45-2,1V124C62,124,66,124,66,124z"/>
		<circle style="fill:#FFFFFF;" cx="74.1" cy="118.24" r="3"/>
	</g>
	<path style="fill:#404040;" d="M46.73,90.78L46.73,90.78L46.73,90.78c-0.74,0-1.52,0.09-2.34,0.3c-5.12,1.28-15.45,3.34-20.11,3.34
		c-0.19,0-0.38,0-0.55-0.01s-0.34-0.01-0.51-0.01c-7.42,0-9.52,7.12-7.32,10.51c1.86,2.87,4.86,3.93,8.36,3.93
		c8.08,0,18.81-5.72,24.14-8.1C55.39,97.62,52.94,90.78,46.73,90.78z"/>
	<path style="fill:#404040;" d="M104.79,94.41c-0.17,0-0.34,0-0.51,0.01c-0.17,0.01-0.36,0.01-0.55,0.01
		c-4.66,0-14.99-2.06-20.11-3.34c-0.83-0.21-1.61-0.31-2.35-0.31c-6.22,0-8.66,6.84-1.66,9.97c5.34,2.38,16.06,8.1,24.14,8.1
		c3.49,0,6.5-1.07,8.36-3.93C114.31,101.53,112.21,94.41,104.79,94.41z"/>
	<path style="fill:#383535;" d="M76.27,92.14c-0.51,0-1.2,0.73-1.92,1.01c-2.29,0.89-5.6,1.82-7.69,2.23
		c-1.29,0.25-2.32,1.54-2.66,3c-0.34-1.47-1.36-2.75-2.66-3c-2.09-0.4-5.36-1.65-7.7-2.35c-0.48-0.14-0.97-0.32-1.41-0.32
		c-0.76,0-1.34,0.53-1.34,2.68v9.21c0,0.77,0.39,1.49,1.03,1.87c1.16,0.68,6.61,1.03,12.06,1.03s10.91-0.34,12.06-1.03
		c0.65-0.38,1.03-1.1,1.03-1.87v-9.21C77.1,92.85,76.77,92.14,76.27,92.14z"/>
</g>
<path id="ears" style="fill:#7A4C32;" d="M90.53,50.43H37.46c-5.72,0-10.4,5.14-10.4,11.41c0,6.28,4.68,11.41,10.4,11.41h53.06
	c5.72,0,10.4-5.14,10.4-11.41C100.93,55.57,96.25,50.43,90.53,50.43z"/>
<path id="head" style="fill:#A56C43;" d="M64,16.04c-17.2,0-33.13,12.79-33.13,39.91c0,21.79,13.49,34.67,25.23,38.83
	c2.8,0.99,5.5,1.49,7.9,1.49c2.38,0,5.07-0.49,7.85-1.47c11.76-4.14,25.28-17.03,25.28-38.84C97.13,28.83,81.2,16.04,64,16.04z"/>
<path id="nose" style="fill:#875334;" d="M67.81,74.05c-0.1-0.04-0.21-0.07-0.32-0.08H60.5c-0.11,0.01-0.21,0.04-0.32,0.08
	c-0.63,0.26-0.98,0.91-0.68,1.61s1.69,2.66,4.49,2.66c2.8,0,4.19-1.96,4.49-2.66C68.79,74.97,68.45,74.31,67.81,74.05z"/>
<path id="mouth" style="fill:#473530;" d="M72.32,81.14c-3.15,1.87-13.46,1.87-16.61,0c-1.81-1.07-3.65,0.57-2.9,2.21
	c0.74,1.61,6.37,5.36,11.23,5.36s10.42-3.75,11.16-5.36C75.95,81.71,74.12,80.06,72.32,81.14z"/>
<g id="eyes">
	<ellipse style="fill:#42312C;" cx="47.62" cy="64.33" rx="4.93" ry="5.1"/>
	<ellipse style="fill:#42312C;" cx="80.49" cy="64.33" rx="4.93" ry="5.1"/>
</g>
<g id="hat_x5F_front">
	<path style="fill:none;stroke:#4E342E;stroke-width:3;stroke-linecap:round;stroke-linejoin:round;stroke-miterlimit:10;" d="
		M92.11,64.14c0,0-7.36,29.23-28.11,29.23S35.89,64.14,35.89,64.14"/>
	
		<radialGradient id="SVGID_6_" cx="63.593" cy="55.9487" r="42.5603" gradientTransform="matrix(1 9.353784e-03 -0.0119 1.2671 0.6659 -15.5413)" gradientUnits="userSpaceOnUse">
		<stop  offset="0.6328" style="stop-color:#424242"/>
		<stop  offset="1" style="stop-color:#616161"/>
	</radialGradient>
	<path style="fill:url(#SVGID_6_);" d="M103.99,66.18c0.48-5.53-0.54-33.51-2.92-43.63C97.22,6.15,74.51,4.54,64.8,4.38V4.36h-1.08
		h-1.08v0.02c-9.71,0.16-31.88,1.77-35.73,18.17c-2.38,10.12-3.27,38.11-2.79,43.63c0.04,0.47,0.09,0.91,0.14,1.35
		c1.9,0.66,4.36,0.95,5.95,0.72c11.02-1.67,22.21-3.95,33.41-3.95c11.41,0,22.82,2.29,34.06,3.95c1.48,0.22,4.01-0.01,6.14-0.56
		C103.89,67.2,103.94,66.7,103.99,66.18z"/>
</g>
</svg>
