<?xml version="1.0" encoding="utf-8"?>
<!-- Generator: Adobe Illustrator 26.3.1, SVG Export Plug-In . SVG Version: 6.00 Build 0)  -->
<svg version="1.1" id="emoji_x5F_u1f485" xmlns="http://www.w3.org/2000/svg" xmlns:xlink="http://www.w3.org/1999/xlink" x="0px"
	 y="0px" viewBox="0 0 128 128" style="enable-background:new 0 0 128 128;" xml:space="preserve">
<g>
	<path style="fill:#BA8F63;" d="M76.11,99.04c8.25-11.67,2.65-17.16,0.84-19.12S42.76,92.44,42.76,92.44S58.39,80.8,65.6,73.42
		c8-8.19,4.8-13.08,4.38-14.8C65.12,38.87,19.81,71.1,19.81,71.1s3.84-2.85,8.62-6.15c6.06-4.18,13.12-10.69,9.3-18.98
		C36.66,43.64,20.96,44.41,4,52.16V124h50.85C63.45,114.41,73.3,103.02,76.11,99.04z"/>
	<path style="fill:#E0BB95;" d="M59.05,109.76c0,0,7.45-6.79,4.26-6.91c-5.28-0.2-10.89-5.31-10.52-8.99
		c0.53-5.22,15.08,0.17,16.63-1.8c2.33-2.95,4.51-6.03,6.51-9.21c0.23-0.36,0.46-0.74,0.52-1.17c0.13-0.9-0.8-1.79-1.38-2.35
		c-5.08-4.98-9.54-5.62-20.21,2.55C47.18,87.77,19.11,111.12,4,123.73V124h40.66L59.05,109.76z"/>
	<path style="fill:#E0BB95;" d="M36.37,43.11c-0.1-0.33-0.54-0.7-0.76-0.97c-0.49-0.59-1.03-1.14-1.62-1.64
		c-1.21-1.02-1.63-5.27-8.04-4.37C22.99,36.54,13.41,41.35,4,46.37v26.15c9.99-6.18,13.24-8.14,15.58-10.17
		c2.79-2.42-7.74-1.31-6.91-12.3c0.28-3.66,19.39-3.16,22.98-5.89c0.26-0.2,0.71-0.51,0.75-0.87C36.4,43.23,36.39,43.17,36.37,43.11
		z"/>
	<path style="fill:#E0BB95;" d="M64.72,55.22c-0.31-0.48-0.64-0.95-0.98-1.41c-0.72-0.95-1.55-1.82-2.48-2.56
		c-1.54-1.23-2.46-0.86-4.12-1.91c-2.21-1.41-8.32,2.73-22.37,11.08C26.55,65.3,14.59,73.14,4,80.24v32.61
		C23.88,97.5,50.04,77.39,52.14,75.37c2.01-1.94-11.08-1.88-9.28-12.02c0.26-1.47,12.72,5.01,13.37,3.66
		c1.24-2.57,2.76-5.01,4.54-7.23c0.69-0.86,1.45-1.71,2.44-2.18c0.55-0.26,1.18-0.42,1.57-0.87C65.18,56.26,65.01,55.68,64.72,55.22
		z"/>
	<path style="fill:#F44336;" d="M42.2,35.28c2.88,4.09,2.01,8.62-5.12,14.98c-5.21,4.65-8.7,6.5-13.79,7.56
		c-4.52,0.94-7.6-1.53-10.33-6.49c-2.18-3.97-0.72-6.15,0.28-7.47c3.02-3.99,10.63-7.43,14.72-8.95
		C34.48,32.49,40.15,32.36,42.2,35.28z"/>
	<path style="fill:#F44336;" d="M69.84,62.32c-3.46,3.2-8.88,7.62-13.62,8.94c-2.22,0.62-6.77,1.05-11.3-4.42
		c-4.48-5.4-1.61-8.89-0.56-10.23c3.28-4.19,8.81-7.27,13.67-9.51c6.02-2.77,11.85-3.8,14.95-1.19
		C77.08,49.35,76.43,56.24,69.84,62.32z"/>
	<path style="fill:#F44336;" d="M79.23,74.07c5.02,3.35,2.01,11.09-0.84,14.88c-3.07,4.09-7.22,8.85-10.79,10.44
		c-2.51,1.12-6.56,2.16-12.07-2.44c-4.55-3.81-3.05-9.05-1.51-11.63c2.43-4.07,6.87-7.05,11.91-10.05
		C71.51,71.96,76.27,72.09,79.23,74.07z"/>
	<path style="fill:#C62828;" d="M78.39,88.95c2.14-2.86,4.38-7.95,3.21-11.73c-2.07,2.48-14.36,17.07-20,19.31
		c-2.43,0.97-5,1.23-5,1.23c0,0-0.01,0.01-0.01,0.01c4.97,3.64,8.66,2.66,11.01,1.62C71.17,97.81,75.32,93.04,78.39,88.95z"/>
	<path style="fill:#C62828;" d="M75.52,52.16c-4.27,3.28-19.7,14.8-24.66,15.93c-2.16,0.49-3.39,0.66-4.2,0.54
		c3.73,3.36,7.57,3.18,9.56,2.63c4.74-1.33,10.16-5.75,13.62-8.94C73.51,58.93,75.33,55.3,75.52,52.16z"/>
	<path style="fill:#C62828;" d="M19.15,55.23c-1.38,0.21-2.39,0.33-3.14,0.33c2.02,2.02,4.35,2.86,7.29,2.25
		c5.09-1.06,8.58-2.91,13.79-7.56c3.64-3.25,5.64-6.01,6.35-8.49C36.9,46.03,23.48,54.56,19.15,55.23z"/>
	<path style="fill:#FF7555;" d="M18.02,44.54c2.34-2.69,7.62-6.89,14.27-8.82c3-0.87,3.89,2.11,1.88,2.93
		c-4.27,1.75-12.69,6.43-13.83,7.08C17.98,47.05,16.39,46.41,18.02,44.54z"/>
	<path style="fill:#FF7555;" d="M48.5,57.95c3.67-4.23,6.83-6.47,13.16-9.67c1.39-0.7,3.33-0.82,4.14-0.33
		c1.63,0.98,1.74,2.33-0.28,3.36c-8.91,4.56-11.21,6.51-14.98,8.51C48.36,60.98,47.3,59.34,48.5,57.95z"/>
	<path style="fill:#FF7555;" d="M64.52,80.37c4.29-3.74,7.04-4.83,7.92-4.16c1.57,1.19,0.37,2.67-1.15,3.84s-9.59,7.64-10.81,8.58
		c-1.22,0.94-3,1.36-2.27-0.59C58.82,86.41,61.2,83.26,64.52,80.37z"/>
	<path style="fill:#546E7A;" d="M81.15,28.99c-1.54,4.53,5.16,10.91,14.98,14.26c9.82,3.35,19.03,2.39,20.57-2.14
		C117.47,38.84,123.58,4,123.58,4H94.12C89.65,12.6,82.16,26.01,81.15,28.99z"/>
	
		<ellipse transform="matrix(0.3227 -0.9465 0.9465 0.3227 32.9058 117.6079)" style="fill:#202020;" cx="98.62" cy="35.81" rx="5.34" ry="15.54"/>
	<path style="fill:#546E7A;" d="M90.47,67.03c0.23-0.42,1.02-2.3,1.22-2.57c0.87-1.14,1.58-1.25,2.25-2.97
		c0.57-1.45,8.48-23.91,8.48-23.91s0.53-2.44-2.88-3.6c-3.4-1.16-4.48,1.1-4.48,1.1s-7.46,21.08-8.28,23.48
		c-0.69,2.04,0.04,2.6-0.44,3.89c-0.08,0.23-0.93,1.75-1.11,2.03L90.47,67.03z"/>
	<path style="fill:#F44336;" d="M87.81,61.34c-0.58,0.02-1.13-0.07-1.97,0.9c-1.58,1.79-3.89,3.76-7.51,5.14
		c-1.13,0.43-2.66,1.18-2.6,2.39c0.13,2.67,5.1,6.17,8.81,5.18c3.3-0.88,6.29-6.55,6.52-7.69c0.23-1.14,0.64-2.59,0.34-3.48
		C90.94,62.42,89.24,61.3,87.81,61.34z"/>
	<path style="fill:#C62828;" d="M78.76,71c0.5,0.18,0.98-0.26,1.47-0.48c0.72-0.33,1.57-0.14,2.3,0.17c0.73,0.31,1.42,0.73,2.2,0.89
		c1.16,0.24,2.39-0.17,3.35-0.88c0.95-0.71,2.8-5.6,3.39-6.63c0.06,0.29,0.14,0.74,0.07,1.27c-0.54,4.21-4.03,9.12-6.83,9.82
		c-1.09,0.27-2.74,0.31-3.84,0.09c-1.11-0.22-2.41-0.83-3.34-1.48c-0.93-0.65-1.58-1.48-2.09-2.5c-0.25-0.5-0.16-1.26,0.13-1.78
		c0.2-0.37,0.6-0.59,1.01-0.62c0.48-0.04,0.99,0.19,1.27,0.59c0.29,0.41,0.29,0.98,0.64,1.35C78.55,70.89,78.65,70.96,78.76,71z"/>
	<path style="fill:#FF7555;" d="M83.54,69.81c-2.94,2.21-4.3,1.68-4.86,1.43c-0.57-0.25-0.99-0.9-0.82-1.5
		c0.18-0.64,0.87-0.95,1.48-1.21c1.4-0.59,3.25-1.2,4.53-2.03c4.53-2.91,3.58-4.43,4.47-4.16s-0.24,2.74-1.48,4.38
		C85.91,67.96,84.47,69.11,83.54,69.81z"/>
	<path style="fill:#78909C;" d="M87.77,26.04c1.57-0.2,4.33-0.07,6.41,0.22c0.73,0.1,1.44-0.28,1.74-0.95
		c1.98-4.31,6.02-13.71,6.78-15.92c0.74-2.17-6.41-3.19-8.04-0.49c-1.95,3.24-7.57,14.79-7.57,14.79
		C86.22,25.09,86.44,26.22,87.77,26.04z"/>
	<path style="fill:#78909C;" d="M87.55,59.75c-0.56-0.2-0.88-0.86-0.69-1.46c1.32-4.08,6.62-19.09,7.47-20.98
		c1-2.2,3.71-1.69,3.17,0c-0.46,1.44-6.82,17.48-8.42,21.76C88.86,59.69,88.11,59.95,87.55,59.75z"/>
</g>
</svg>
