<svg xmlns="http://www.w3.org/2000/svg" viewBox="0 0 36 36"><path fill="#FFE51E" d="M16 1c.203-.378.538-.985 1.806-.602C19.722.978 18 2 18 2s2 1 2 4-1 1.838-1 5c0 2-2 0-2 0l-3 3c-4 4-6-1-5-3s0-2 0-4 2-2 2-4 2-3 3-3 2 1 2 1z"/><ellipse fill="#F3D2A2" cx="14.625" cy="5" rx="2.625" ry="3"/><path fill="#FFE51E" d="M14.5 1c-.927 0-1.727.306-2.158.755C11.239 1.548 11.864 3.272 11 5c-1 2 1 4 1 3s0-4 2-4h.5c1.381 0 2.5-.671 2.5-1.5S15.881 1 14.5 1z"/><path fill="#F3D2A2" d="M22.707 10.293c-.373-.373-1.806-1.217-7.027-1.286l-.432-3.883c-.061-.549-.562-.948-1.104-.883-.549.061-.944.555-.883 1.104L13.667 9H9.083l-5.918-.986c-.55-.091-1.06.278-1.151.822-.091.544.277 1.06.821 1.15l6 1c.055.01.11.014.165.014h2.749c.009.262.086.588.251 1 1 2.5 3 8 3 8 2.209 0 3-5.015 3-7.5 0-.604-.048-1.06-.15-1.407 1.206.087 2.027.223 2.567.351L18.2 14.4c-.331.442-.242 1.069.2 1.4.18.135.391.2.599.2.305 0 .604-.138.801-.4l3-4c.299-.398.259-.955-.093-1.307zM15.998 33c-.489 0-.917-.359-.988-.858l-1-7c-.078-.547.302-1.054.848-1.132.548-.073 1.054.302 1.131.849l1 7c.078.547-.302 1.054-.848 1.132-.048.006-.095.009-.143.009z"/><path fill="#F3D2A2" d="M15.999 21c-.472 0-.892-.335-.982-.815-.102-.543.256-1.066.799-1.167l15.999-3c.552-.102 1.066.256 1.167.799.103.542-.255 1.065-.798 1.167l-16.001 3c-.061.01-.123.016-.184.016z"/><path fill="#DD2E44" d="M12 13s1 1 1 3 0 3-2 6-4 3-5 5 0 2 2 1 1 4 4 4 2-3 4-3 3 3 5 3 2.581-2.419 1-4c-1-1 2-3 3-2 1.581 1.581 3.236-.764 1-3-1-1-1.789-2.105 0-3 2-1 2.5-5 0-4-3.344 1.338-8 3.161-8 0v-4s-2 0-2-3c0 0-1.25 4-3.25 0 0 0 1.25 3-.75 4z"/><path fill="#DD2E44" d="M16 36c-.552 0-1-.447-1-1v-3c0-.553.448-1 1-1s1 .447 1 1v3c0 .553-.448 1-1 1zm16.429-17.37c-.22 0-.441-.072-.626-.221-.431-.347-.498-.976-.151-1.406l1.781-2.211c.346-.428.975-.498 1.405-.151.431.347.498.976.151 1.406l-1.781 2.211c-.197.245-.486.372-.779.372z"/></svg>