<?xml version="1.0" encoding="utf-8"?>
<!-- Generator: Adobe Illustrator 24.1.2, SVG Export Plug-In . SVG Version: 6.00 Build 0)  -->
<svg version="1.1" id="Layer_4" xmlns="http://www.w3.org/2000/svg" xmlns:xlink="http://www.w3.org/1999/xlink" x="0px" y="0px"
	 viewBox="0 0 128 128" style="enable-background:new 0 0 128 128;" xml:space="preserve">
<g>
	<linearGradient id="SVGID_1_" gradientUnits="userSpaceOnUse" x1="76.9964" y1="74.7883" x2="120.0655" y2="94.105">
		<stop  offset="0.1093" style="stop-color:#FFBFD6;stop-opacity:0.0378"/>
		<stop  offset="0.6002" style="stop-color:#FFBFD6"/>
	</linearGradient>
	<path style="fill:url(#SVGID_1_);" d="M117.99,47.08c-3.02,9.38-5.29,29.06-36.93,35.58l-24.61,30.85
		c64.67-2.57,65.79-47.27,64.49-66.05C120.81,45.78,118.51,45.47,117.99,47.08z"/>
	<linearGradient id="SVGID_2_" gradientUnits="userSpaceOnUse" x1="75.8326" y1="24.6545" x2="8.2228" y2="32.6362">
		<stop  offset="0.1178" style="stop-color:#FFBFD6;stop-opacity:0.0378"/>
		<stop  offset="0.5329" style="stop-color:#FFBFD6"/>
	</linearGradient>
	<path style="fill:url(#SVGID_2_);" d="M77.1,12.12c0,0-15.99-7.03-41.05,4.02c-15.9,7.01-23.19,20.3-24.93,31.72
		c-0.17,1.1,0.91,1.46,2.03,0c5.79-7.53,12.4-14.5,29.04-18.04c22.47-5.31,34.91,3.04,34.91,3.04V12.12z"/>
	<g>
		<path style="fill:#EF5592;" d="M65.19,49.14c-15.05,0-20.58,15.38-20.58,15.38s-5.46-15.38-20.62-15.38
			c-11.39,0-24.38,9.03-19.58,29.55c4.8,20.52,40.23,46.09,40.23,46.09s35.31-25.57,40.11-46.09
			C89.55,58.17,77.49,49.14,65.19,49.14z"/>
		<g>
			<path style="fill:#DA2E75;" d="M21.66,50.67c11.82,0,17.69,12.7,19.58,17.85c0.27,0.73,1.29,0.76,1.6,0.04l1.73-4.04
				c-2.44-7.79-9.14-15.38-20.59-15.38c-4.74,0-9.75,1.57-13.64,4.87C13.78,51.75,17.82,50.67,21.66,50.67z"/>
			<path style="fill:#DA2E75;" d="M65.19,49.14c-3.64,0-6.71,1.06-9.29,2.65c1.81-0.7,3.82-1.12,6.05-1.12
				c11.14,0,21.1,8.44,16.61,27.96c-3.86,16.76-26.43,37.09-33.32,44.85c-0.44,0.49-0.59,1.29-0.59,1.29s35.31-25.57,40.11-46.09
				C89.55,58.17,76.58,49.14,65.19,49.14z"/>
		</g>
		<g>
			<g>
				<g>
					<path style="fill:#F386AB;" d="M12.31,60.04c2.58-3.22,7.18-5.87,11.08-2.81c2.11,1.65,1.19,5.05-0.7,6.48
						c-2.75,2.09-5.14,3.35-6.81,6.62c-1.01,1.97-1.61,4.11-1.92,6.31c-0.12,0.86-1.26,1.08-1.68,0.32
						C9.38,71.81,8.56,64.73,12.31,60.04z"/>
				</g>
			</g>
		</g>
		<path style="fill:#F386AB;" d="M53.62,66.8c-1.21,0-2.06-1.17-1.62-2.29c0.82-2.07,1.88-4.08,3.15-5.87
			c1.88-2.64,5.46-4.18,7.73-2.58c2.32,1.64,2.02,4.91,0.39,6.49C59.77,65.93,55.36,66.8,53.62,66.8z"/>
	</g>
	<g>
		<path style="fill:#EF5592;" d="M109.21,5.22c-11.23,0-15.36,11.48-15.36,11.48S89.78,5.22,78.47,5.22
			c-8.5,0-18.2,6.74-14.61,22.05c3.58,15.31,30.03,34.4,30.03,34.4s26.35-19.08,29.93-34.39C127.4,11.96,118.4,5.22,109.21,5.22z"/>
		<g>
			<path style="fill:#DA2E75;" d="M76.73,6.37c8.82,0,13.2,9.48,14.61,13.32c0.2,0.55,0.97,0.57,1.2,0.03l1.29-3.02
				c-1.82-5.82-6.82-11.48-15.37-11.48c-3.54,0-7.27,1.17-10.18,3.63C70.85,7.17,73.86,6.37,76.73,6.37z"/>
			<path style="fill:#DA2E75;" d="M109.21,5.22c-2.71,0-5.01,0.79-6.94,1.98c1.35-0.52,2.85-0.83,4.51-0.83
				c8.31,0,15.75,6.3,12.39,20.87C116.3,39.74,99.46,54.92,94.32,60.7c-0.33,0.37-0.44,0.97-0.44,0.97s26.35-19.08,29.93-34.39
				C127.4,11.96,117.71,5.22,109.21,5.22z"/>
		</g>
		<g>
			<g>
				<g>
					<path style="fill:#F386AB;" d="M69.76,13.35c1.92-2.4,5.36-4.38,8.27-2.1c1.57,1.24,0.89,3.77-0.52,4.84
						c-2.05,1.56-3.84,2.5-5.08,4.94c-0.75,1.47-1.2,3.07-1.43,4.71c-0.09,0.65-0.94,0.8-1.26,0.24
						C67.57,22.13,66.95,16.85,69.76,13.35z"/>
				</g>
			</g>
		</g>
		<path style="fill:#F386AB;" d="M100.58,18.4c-0.9,0-1.54-0.87-1.21-1.71c0.61-1.55,1.4-3.05,2.35-4.38
			c1.4-1.97,4.08-3.12,5.77-1.93c1.73,1.22,1.51,3.66,0.29,4.84C105.17,17.75,101.88,18.4,100.58,18.4z"/>
	</g>
</g>
</svg>
