<?xml version="1.0" encoding="utf-8"?>
<!-- Generator: Adobe Illustrator 24.1.2, SVG Export Plug-In . SVG Version: 6.00 Build 0)  -->
<svg version="1.1" id="Layer_5" xmlns="http://www.w3.org/2000/svg" xmlns:xlink="http://www.w3.org/1999/xlink" x="0px" y="0px"
	 viewBox="0 0 128 128" style="enable-background:new 0 0 128 128;" xml:space="preserve">
<g>
	<g>
		<path style="fill:#F44336;" d="M93.96,8.96c-10.01,0-17.79,6.18-22.76,13.12c-5.57,7.77-11.05,20.8-13.12,25.96
			c-0.54,1.35-0.28,2.88,0.67,3.98l13.65,15.85c0.43,0.5,0.49,1.21,0.17,1.78L61.17,89.34c-0.43,0.75-0.54,1.63-0.31,2.46
			l6.26,22.43c0.28,0.99,1.46,1.38,2.27,0.75c13.33-10.44,47.44-39.08,53.04-63.02C129.41,22.1,111.87,8.96,93.96,8.96z"/>
		<path style="fill:#F44336;" d="M63.55,68.35L48.94,51.37l10.93-23.2c0.79-1.68,0.65-3.67-0.42-5.19
			C54.97,16.62,46.9,8.96,33.99,8.96c-16.58,0-35.48,13.14-28.5,43.01c5.39,23.06,37.71,51.36,52.02,62.68
			c0.36,0.29,0.9,0.05,0.93-0.42l0.61-7.11l-6.09-17.57l10.83-18.74C64.24,70.03,64.15,69.04,63.55,68.35z"/>
	</g>
	<path style="fill:#CC3333;" d="M93.96,8.96c-6.63,0-12.27,2.72-16.77,6.56c0,0,0,0,0,0c0.81-0.59,6.11-4.33,12.05-4.33
		c16.21,0,30.72,12.29,24.17,40.7c-5.24,22.72-34.09,49.96-46.12,62.7c0.43,0.71,1.41,0.94,2.11,0.39
		c13.33-10.44,47.44-39.08,53.04-63.02C129.41,22.1,111.87,8.96,93.96,8.96z"/>
	<path style="fill:#FF8A80;" d="M77.13,34.65c-1.76,0-3-1.7-2.36-3.34c1.19-3.02,2.73-5.94,4.58-8.54
		c2.74-3.84,7.95-6.08,11.25-3.75c3.38,2.38,2.94,7.14,0.57,9.44C86.07,33.39,79.66,34.65,77.13,34.65z"/>
	<path style="fill:#FF8A80;" d="M17,24.82c3.75-4.68,10.45-8.55,16.13-4.09c3.07,2.41,1.73,7.35-1.02,9.43
		c-4,3.04-7.48,4.87-9.92,9.63c-1.46,2.86-2.34,5.99-2.79,9.18c-0.18,1.26-1.83,1.57-2.45,0.46C12.73,41.94,11.53,31.64,17,24.82z"
		/>
	<path style="fill:#CC3333;" d="M52.96,89.55l10.83-18.74c0.46-0.79,0.36-1.78-0.23-2.47L48.94,51.37L60.59,27.1
		c0.79-1.68,0.65-3.67-0.42-5.19C55.69,15.55,46.9,8.96,33.99,8.96c-10.02,0-20.89,4.81-26.38,15.22
		c5.92-7.45,15.06-10.94,23.59-10.94c12.91,0,20.98,7.66,25.46,14.02c1.07,1.52,1.21,3.51,0.42,5.19l-10.93,23.2l14.62,16.98
		c0.59,0.69,0.69,1.68,0.23,2.47L50.17,93.83c0,0,5.91,15.8,8.1,20.7c0,0,0.17,0,0.3-0.85c0,0,0.88-6.25,0.4-7.74
		C58.52,104.52,52.96,89.55,52.96,89.55z"/>
</g>
</svg>
