<svg xmlns="http://www.w3.org/2000/svg" viewBox="0 0 64 64" enable-background="new 0 0 64 64"><path d="m58.1 32.2c3.1-2.8 3.8-5.8 3.9-7.8 0-.5-.2-1-.6-1.3-.4-.3-.9-.4-1.4-.3-1 .2-2.2-.3-2.6-1.3-.5-1.1-.2-2.3.6-3.1.4-.3.6-.8.6-1.3 0-.5-.2-.9-.6-1.2-1-.8-2.1-1.3-3.4-1.6.1-1.8-.3-3.5-1.1-5-.2-.4-.7-.8-1.2-.9-.5-.1-1 .1-1.4.4-.8.7-2 .8-2.9.2-.9-.6-1.3-1.9-.9-2.9.2-.5.1-1-.1-1.4-.3-.4-.7-.7-1.2-.7-2-.3-4 .2-6 1.2-.9-1.2-2-2.2-3.3-2.9-.4-.2-1-.3-1.4-.1-.5.2-.8.6-.9 1.1-.2 1.1-1.1 1.8-2.2 1.8-1.1 0-2-.8-2.3-1.9-.1-.5-.5-.9-.9-1.1-.5-.2-1-.2-1.4.1-1.3.7-2.4 1.7-3.3 2.9-1.9-1.1-3.9-1.5-5.9-1.2-.5.1-.9.3-1.2.8-.3.3-.4.9-.2 1.3.4 1.1 0 2.3-.9 2.9-.8.6-2.1.5-2.9-.2-.4-.3-.9-.5-1.4-.4-.5.1-.9.4-1.2.9-.8 1.5-1.1 3.2-1.1 5-1.1.4-2.3.9-3.3 1.7-.4.3-.6.7-.6 1.2 0 .5.2.9.6 1.3.9.7 1.1 2 .6 3.1-.4.9-1.6 1.5-2.6 1.2-.5-.1-1 0-1.4.3-.4.4-.6.9-.6 1.4.1 2 .8 5 3.9 7.8-3.1 2.8-3.8 5.7-3.9 7.7 0 .5.2 1 .6 1.3.4.3.9.4 1.4.3 1-.2 2.2.3 2.6 1.3.5 1 .2 2.3-.6 3-.4.3-.6.8-.6 1.3 0 .5.2.9.6 1.2 1 .7 2.1 1.3 3.4 1.6-.2 2 .2 3.8 1 5.5.2.5.7.8 1.2.9.5.1 1-.1 1.4-.4.8-.7 2-.8 2.9-.2.9.7 1.3 1.9.9 3-.2.5-.1 1 .1 1.4.3.4.7.7 1.2.8.4 0 .8.1 1.1.1 1.7 0 3.5-.5 5.2-1.5.8 1 1.8 1.8 2.9 2.4.4.2 1 .3 1.4.1.5-.2.8-.6.9-1.1.3-1.1 1.2-1.9 2.3-1.9 1.1 0 2 .8 2.3 1.9.1.5.5.9.9 1.1.2.1.4.1.7.1.3 0 .5-.1.8-.2 1.1-.6 2.1-1.4 2.9-2.4 1.7 1 3.4 1.5 5.2 1.5.4 0 .8 0 1.1-.1.5-.1.9-.3 1.2-.8.3-.4.3-.9.1-1.4-.4-1.1 0-2.3.9-3 .8-.6 2.1-.5 2.9.2.4.3.9.5 1.4.4.5-.1.9-.4 1.2-.9.8-1.7 1.2-3.5 1-5.5 1.3-.3 2.4-.8 3.4-1.6.4-.3.6-.7.6-1.2 0-.5-.2-.9-.6-1.3-.9-.7-1.1-2-.6-3 .5-1 1.6-1.5 2.6-1.3.1 0 .2 0 .4 0 .4 0 .7-.1 1-.4.4-.3.6-.8.6-1.3 0-1.9-.7-4.8-3.8-7.6m-14.3-25.1c0 1.8.9 3.4 2.4 4.5 1.5 1 3.3 1.3 5 .7.1.5.1 1.1.1 1.7-2.3.1-4.7.8-7.3 2.1-.5.3-1.1.6-1.6 1 .1-.7.1-1.3.1-2 0-2.7-.4-5.1-1.1-7.1.8-.5 1.6-.8 2.4-.9m-31 5.2c1.6.5 3.6.3 5-.7 1.5-1 2.4-2.7 2.4-4.5.8.1 1.6.4 2.4.9-.7 2-1.1 4.4-1.1 7.1 0 .6 0 1.3.1 2-.5-.4-1.1-.7-1.6-1-2.6-1.3-5-2-7.3-2.1 0-.6 0-1.2.1-1.7m-2.7 34.5c-.2-.1-.4-.1-.6-.2.8-1.6.9-3.5.1-5.1-.8-1.6-2.3-2.8-4-3.1.4-1.5 1.5-2.9 3-4.2.7.4 1.4.8 2.1 1.2 1.8.9 3.9 1.5 6.3 1.7-1.8 1.4-3.2 2.8-4.3 4.4-1.1 1.8-2 3.5-2.6 5.3m26.4 11.2c-1.1-1.4-2.7-2.3-4.5-2.3-1.8 0-3.5.9-4.5 2.3-.2-.2-.3-.4-.5-.5 1.1-1 2.1-2.3 3.1-3.8.7-1.1 1.4-2.3 1.9-3.8.5 1.4 1.1 2.7 1.9 3.8 1 1.5 2 2.7 3.1 3.8-.1.1-.3.3-.5.5m14.7-5.7c-1.7-.5-3.6-.3-5 .7-1.5 1.1-2.4 2.7-2.4 4.5-2.5-.4-4.9-2.4-7.2-5.7-1.5-2.3-2.5-5.6-3-9.9-.1-.8-.8-1.5-1.6-1.5-.8 0-1.5.6-1.6 1.5-.4 4.3-1.4 7.6-3 9.8-2.3 3.3-4.7 5.3-7.2 5.7 0-1.8-.9-3.5-2.4-4.5-1.5-1-3.4-1.3-5-.7-.5-2.5.4-5.7 2.7-9 1.5-2.2 4.1-4.3 7.8-6.2.7-.3 1-1.1.8-1.9-.2-.7-.8-1.2-1.6-1.2h-.1c-4.3.3-7.8-.2-10.3-1.5-3.6-1.8-5.9-4.1-6.6-6.6 1.8-.3 3.3-1.5 4-3.1.8-1.7.7-3.6-.1-5.2 2.3-.9 5.5-.4 9 1.3 1.6.8 3.2 2.1 4.8 4 .5.6 1.4.7 2.1.3.7-.4 1-1.2.7-2-.9-2.3-1.4-4.4-1.4-6.2 0-4.1.9-7.2 2.8-8.9 1.1 1.4 2.7 2.3 4.5 2.3 1.8 0 3.5-.9 4.5-2.3 1.8 1.8 2.8 4.9 2.8 8.9 0 1.8-.5 3.9-1.4 6.2-.3.7 0 1.6.7 2 .7.4 1.6.2 2.1-.3 1.6-1.8 3.3-3.2 4.8-4 3.6-1.8 6.7-2.2 9-1.3-.8 1.6-.9 3.5-.1 5.2.8 1.7 2.3 2.8 4 3.1-.7 2.5-3 4.8-6.6 6.6-2.5 1.2-6 1.7-10.3 1.5h-.1c-.7 0-1.4.5-1.6 1.2-.2.7.1 1.5.8 1.9 3.7 1.9 6.3 4 7.8 6.3 2.5 3.3 3.4 6.5 2.9 9m3.2-10.9c-.8 1.6-.7 3.5.1 5.1-.2.1-.4.1-.6.2-.6-1.7-1.5-3.5-2.7-5.3-1-1.5-2.5-3-4.3-4.4 2.5-.3 4.6-.8 6.3-1.7.8-.4 1.5-.8 2.1-1.2 1.6 1.3 2.6 2.7 3 4.2-1.6.4-3.1 1.5-3.9 3.1" fill="#ff5a79"/></svg>