<?xml version="1.0" encoding="utf-8"?>
<!-- Generator: Adobe Illustrator 25.2.3, SVG Export Plug-In . SVG Version: 6.00 Build 0)  -->
<svg version="1.1" id="Layer_3" xmlns="http://www.w3.org/2000/svg" xmlns:xlink="http://www.w3.org/1999/xlink" x="0px" y="0px"
	 viewBox="0 0 128 128" style="enable-background:new 0 0 128 128;" xml:space="preserve">
<g>
	<g>
		<ellipse style="fill:#424242;" cx="64" cy="116.87" rx="12.09" ry="7.13"/>
		<path style="fill:#FFD600;" d="M64,4C42.92,4,25.82,19.67,25.82,38.99c0,5.04,1.52,10.43,3.75,15.18
			c3.13,6.68,6.54,11.62,7.54,13.44c2.78,5.06,2.38,10.39,3.15,13.73c1.45,6.24,5.79,8.5,23.73,8.5s21.8-2.15,23.41-7.9
			c1.1-3.91,0.03-8.18,2.8-13.23c1-1.82,5.07-7.85,8.21-14.54c2.23-4.75,3.75-10.14,3.75-15.18C102.18,19.67,85.08,4,64,4z"/>
		<ellipse style="fill:#B26500;" cx="64" cy="86.13" rx="21.94" ry="4.46"/>
		<ellipse style="fill:#B26500;" cx="64" cy="86.13" rx="21.94" ry="4.46"/>
		<ellipse style="fill:#FFA000;" cx="64" cy="86.13" rx="15.99" ry="2.06"/>
		<g>
			<path style="fill:none;stroke:#B26500;stroke-width:2;stroke-miterlimit:10;" d="M53.3,56.77c-0.62,1.56-2.23,4.77-1.39,6.21
				c1.95,3.35,6.6,4.55,6.6,7.63c0,4.7-3.42,19.93-3.42,19.93"/>
			<path style="fill:none;stroke:#B26500;stroke-width:2;stroke-miterlimit:10;" d="M74.03,56.21c0,0,2.24,4.8,1.29,6.95
				c-0.71,1.6-4.98,4.18-5.53,4.61c-2.55,2,0.84,22.78,0.84,22.78"/>
			<path style="fill:none;stroke:#FFFFFF;stroke-width:2;stroke-miterlimit:10;" d="M53.3,56.77c3.44-6.8,5.21-22.32,0.84-21.53
				c-7.37,1.33,1.71,26.83,6.18,23.9s10.01-23.85,3.21-23.93c-6.8-0.08,0.46,26.66,5.08,23.69c3.65-2.35,12.56-23.66,5.24-23.66
				c-6.23,0,0.19,20.97,0.19,20.97"/>
		</g>
		<path style="fill:#82AEC0;" d="M85.89,87.06c0,0-5.76,2.78-21.89,2.78s-21.89-2.78-21.89-2.78s-0.36,5.14,0.83,7.47
			c1.43,2.8,2.53,3.77,2.53,3.77l0.6,2.85l-0.24,0.75c-0.31,0.98-0.09,2.06,0.6,2.83l0.52,0.58l0.58,2.74l-0.2,0.55
			c-0.38,1.05-0.12,2.22,0.66,3.02l0.38,0.39l0.47,2.24c0,0,2.38,5.08,15.16,5.08s15.16-5.08,15.16-5.08l0.04-0.19l0.26-0.26
			c0.52-0.51,0.69-1.27,0.44-1.95l-0.15-0.39l0.62-2.96l1.09-1.15c0.54-0.57,0.66-1.41,0.31-2.11l-0.5-0.99l0.63-2.97l0.4-0.31
			c0.59-0.65,0.6-1.63,0.34-2.3c-0.2-0.53-0.04-1.13,0.37-1.52c0.63-0.6,1.44-1.51,2.04-2.64C86.28,92.22,85.89,87.06,85.89,87.06z"
			/>
		<g>
			<g>
				<path style="fill:#2F7889;" d="M45.47,98.3l0.54,2.87c5.82-0.03,13.59,0.26,28.5-2.11c2.69-0.61,5.92-1.82,2.35-1.32
					C76.86,97.73,63.17,99.04,45.47,98.3z"/>
			</g>
			<g>
				<path style="fill:#2F7889;" d="M47.47,108.07c6.44-0.11,19.6-0.75,33.74-3.82l0.63-2.97c-14.79,3.36-28.7,3.96-34.95,4.04
					L47.47,108.07z"/>
			</g>
		</g>
		<path style="fill:#2F7889;" d="M80.31,108.49c-13.09,2.84-25.34,3.57-31.97,3.73l0.43,2.04c0,0,0.21,6.33,15.16,6.33
			s15.16-6.33,15.16-6.33s-6.38,1.82-14.23,0.93c-0.8-0.09-0.81-1.16-0.01-1.26c4.69-0.62,10.29-1.54,14.84-2.48L80.31,108.49z"/>
		<path style="fill:none;stroke:#82AEC0;stroke-width:3.9971;stroke-linecap:round;stroke-miterlimit:10;" d="M42.18,87.06
			c0,0,6.46,2.78,21.76,2.78s21.88-2.78,21.88-2.78"/>
		<path style="fill:#FFFF8D;" d="M49.88,10.32c3.91-0.96,8-0.48,10.8,2.92c0.79,0.96,1.4,2.1,1.54,3.34
			c0.28,2.39-1.2,4.65-2.96,6.31c-5.02,4.74-12.15,7.04-15.39,13.58c-0.76,1.53-1.36,3.18-2.52,4.43c-1.16,1.25-3.09,2.01-4.6,1.21
			c-0.8-0.42-1.35-1.21-1.8-2c-2.84-5.06-2.63-11.51-0.13-16.75C37.57,17.62,43.6,11.86,49.88,10.32z"/>
		<path style="fill:#FFD600;" d="M46.45,91.93c-0.88-0.4-0.53-1.72,0.43-1.65c3.22,0.25,8.7,0.56,15.95,0.56
			c7.64,0,14.36-0.57,18.28-0.99c0.97-0.1,1.34,1.23,0.45,1.64c-3.02,1.42-8.55,3.04-18.03,3.04
			C54.28,94.53,49.18,93.16,46.45,91.93z"/>
		<path style="fill:#94D1E0;" d="M51.94,102.03c-0.67,0.24-1.36,0.57-1.7,1.19c-0.12,0.23-0.19,0.49-0.14,0.75
			c0.08,0.38,0.43,0.65,0.78,0.82c0.7,0.34,1.49,0.43,2.26,0.44c1.59,0.02,3.17-0.28,4.74-0.58c0.47-0.09,0.95-0.18,1.37-0.41
			c0.42-0.23,0.78-0.62,0.85-1.09c0.1-0.63-0.35-1.24-0.9-1.54C57.3,100.56,53.86,101.34,51.94,102.03z"/>
		<path style="fill:#94D1E0;" d="M53.43,108.62c-0.67,0.24-1.36,0.57-1.7,1.19c-0.12,0.23-0.19,0.49-0.14,0.75
			c0.08,0.38,0.43,0.65,0.78,0.82c0.7,0.34,1.49,0.43,2.26,0.44c1.59,0.02,3.17-0.28,4.74-0.58c0.47-0.09,0.95-0.18,1.37-0.41
			c0.42-0.23,0.78-0.62,0.85-1.09c0.1-0.63-0.35-1.24-0.9-1.54C58.79,107.16,55.34,107.94,53.43,108.62z"/>
		<path style="fill:#FFFF8D;" d="M50.01,84.2c0.91,0.09,1.87,0.01,2.64-0.48c0.77-0.49,1.26-1.49,0.95-2.35
			c-0.16-0.45-0.51-0.81-0.85-1.15C52,79.48,51.25,78.74,50.51,78c-0.83-0.83-1.66-1.65-2.56-2.4c-1.39-1.16-3.26-2.25-5.09-1.4
			c-1.56,0.72-1.93,2.14-1.24,3.63C43.09,80.96,46.51,83.84,50.01,84.2z"/>
	</g>
</g>
</svg>
