<?xml version="1.0" encoding="utf-8"?>
<!-- Generator: Adobe Illustrator 25.2.3, SVG Export Plug-In . SVG Version: 6.00 Build 0)  -->
<svg version="1.1" id="Layer_3" xmlns="http://www.w3.org/2000/svg" xmlns:xlink="http://www.w3.org/1999/xlink" x="0px" y="0px"
	 viewBox="0 0 128 128" style="enable-background:new 0 0 128 128;" xml:space="preserve">
<polygon style="fill:#FFFFFF;" points="12.2,64.08 7.83,72.24 16.57,78.8 13.36,87.83 22.69,91.77 22.54,104.59 34.78,104.3 
	37.99,116.83 49.21,113.63 54.31,119.75 63.05,112.46 71.65,119.6 76.31,114.06 88.26,116.83 92.49,104.15 105.89,104.59 
	104.87,91.33 114.34,87.4 109.68,78.8 120.03,72.24 115.66,63.21 121.05,55.63 111.28,50.09 115.36,38.29 102.98,33.48 
	103.71,23.28 91.9,25.76 89.43,12.64 80.25,16.29 73.11,8.85 64.51,16.29 53.58,9.87 48.04,17.31 39.3,13.81 35.8,24.45 
	23.42,22.55 24.87,32.9 11.91,37.71 17.15,49.36 7.24,56.65 "/>
<path style="fill:#FF99B7;" d="M77.91,14.54c0,0,5.49-2.81,7.7-3.63c2.33-0.87,4.99-1.84,5.64-1.35c0.65,0.49,1.35,4.88,1.73,8.24
	c0.35,3.08,0.76,5.15,0.76,5.15s2.76-0.49,5.85-0.98c3.09-0.49,6.12-1.03,6.5-0.81c0.38,0.22,0.43,4.54,0.43,6.56
	c0,2.33-0.22,8.56-0.22,8.56l-4.77-1.3c0,0,0.44-4.06,0.49-5.47c0.05-1.68,0-2.76,0-2.76s-11.49,2.11-11.87,1.79
	c-0.38-0.33-2.28-13.17-2.28-13.17s-6.12,2.71-6.67,2.93C80.77,18.46,77.91,14.54,77.91,14.54z"/>
<path style="fill:#FF99B7;" d="M117.69,63.86l-3.2,3.09l3.25,4.88c0,0-10.67,5.65-10.96,6.37c-0.36,0.89,4.19,8.53,4.19,8.53
	l-5.96,2.87l1.14,4.28c0,0,5.26-1.95,6.34-2.44c1.08-0.49,4.44-1.68,4.77-2.55c0.33-0.87-4.23-9.32-4.23-9.32s10.03-5.64,10.19-6.18
	c0.16-0.54-1.86-3.88-3.03-5.69C118.99,65.86,117.69,63.86,117.69,63.86z"/>
<path style="fill:#FF99B7;" d="M47.29,115.18c0,0,2.49,2.87,3.69,4.06c1.19,1.19,3.75,3.63,4.35,3.63c0.6,0,8.13-7.28,8.13-7.28
	s7.3,6.9,8.27,6.79c0.98-0.11,7.91-8.35,7.91-8.35l-4.01-2.28l-4.28,5.58c0,0-7.65-7.28-8.08-7.17c-0.43,0.11-8.23,7.28-8.23,7.28
	l-4.23-4.61L47.29,115.18z"/>
<path style="fill:#FF99B7;" d="M10.76,62.88c0,0-6.18,8.72-6.18,9.32c0,0.7,9.59,7.15,9.59,7.15s-4.44,9-4.17,10.03
	s11.27,4.44,11.27,4.44l1.3-4.23l-7.05-2.44c0,0,4.12-8.45,4.01-9c-0.11-0.54-8.94-6.56-8.94-6.56s4.23-5.96,4.06-6.07
	S10.76,62.88,10.76,62.88z"/>
<path style="fill:#FF99B7;" d="M22.47,33.67c0.11-0.49-1.65-12.22-0.65-13.01c1.3-1.03,12.78,1.53,12.78,1.53s2.57-10.42,3.71-11.13
	c1.14-0.7,11.96,4.99,11.96,4.99l-1.52,4.06l-7.83-3.6c0,0-2.59,10.64-2.97,10.85c-0.38,0.22-11.5-2.21-11.5-2.21l0.84,8.53
	L22.47,33.67z"/>
<path style="fill:#FF99B7;" d="M49.98,50.72c-2.37,0-4.78,1.74-4.69,5.14s3.08,4.42,4.65,4.42c1.97,0,4.87-0.85,4.91-4.74
	C54.9,51.52,51.73,50.72,49.98,50.72z"/>
<path style="fill:#FF99B7;" d="M59.27,55.3c0.05,2.9,1.87,5.05,5.23,5c3.04-0.04,4.56-2.32,4.69-4.74c0.13-2.41-1.83-5.32-5.09-5.27
	C60.83,50.34,59.22,52.94,59.27,55.3z"/>
<path style="fill:#FF99B7;" d="M72.98,54.95c0.13,2.86,2.19,4.47,4.96,4.51c2.77,0.04,4.56-2.32,4.65-4.56
	c0.09-2.23-1.83-4.78-4.78-4.82C74.72,50.03,72.87,52.44,72.98,54.95z"/>
<path style="fill:#FF99B7;" d="M73.47,68.84c-0.09,3.13,2.32,4.82,4.96,4.74c2.64-0.09,4.38-2.23,4.29-5
	c-0.09-2.68-2.06-4.56-4.56-4.6C76.06,63.93,73.57,65.57,73.47,68.84z"/>
<path style="fill:#FF99B7;" d="M64.32,64.73c-2.9-0.13-4.91,2.28-4.78,5.09c0.13,2.81,2.23,4.42,4.69,4.47
	c2.46,0.04,4.65-1.34,4.74-4.47C69.05,66.7,66.95,64.85,64.32,64.73z"/>
<path style="fill:#FF99B7;" d="M50.12,64.03c-2.68,0-4.74,2.55-4.6,5.09c0.13,2.55,1.65,4.78,4.69,4.87
	c3.04,0.09,5.05-1.92,5.09-4.96C55.35,66,53.07,64.03,50.12,64.03z"/>
<path style="fill:#FF99B7;" d="M63.78,79.29c-2.41-0.04-4.64,2.01-4.56,4.87c0.09,3.22,2.77,4.38,4.56,4.38
	c2.19,0,4.64-1.34,4.6-4.29C68.34,80.9,66.33,79.34,63.78,79.29z"/>
<path style="fill:#FF99B7;" d="M113.19,48.94c0,0,5.7-9.46,5.53-10.59c-0.18-1.13-7.01-4.51-14.37-6.29
	c-7.36-1.78-16.75,0.06-16.75,0.06s-1.07-5.17-4.04-13.24C80.6,10.8,74.19,5.69,73.47,5.69c-0.71,0-2.91,1.84-4.33,3.03
	c-1.43,1.19-4.69,4.33-4.69,4.33s-2.67-2.49-3.74-3.44s-4.75-4.04-6.12-3.86c-1.37,0.18-6.12,6.06-9.14,12.47
	c-3.03,6.41-3.98,14.49-3.98,14.49s-9.09-1.66-16.45-1.01c-7.36,0.65-16.09,5.23-16.21,5.82s1.07,3.03,2.02,4.93
	c0.95,1.9,3.38,5.82,3.38,5.82s-3.07,1.75-4.73,2.76c-1.66,1.01-5.54,3.59-5.6,4.37c-0.06,0.77,1.48,5.94,8.43,12.47
	s15.9,8.77,15.9,8.77s-5.93,5.6-7.71,13.44c-1.78,7.84-0.48,17.58,0.06,17.99c0.53,0.42,3.38,0.18,6.06-0.18
	c2.67-0.36,7.24-1.78,7.24-1.78s0.24,4.39,0.48,6.47c0.24,2.08,1.72,7.24,2.67,7.54c0.95,0.3,7.6-1.01,14.19-4.81
	c6.59-3.8,11.46-10.93,11.46-10.93s4.1,5.28,10.75,9.44c6.65,4.16,16.75,5.76,17.46,5.4c0.71-0.36,2.02-4.04,2.38-5.82
	c0.36-1.78,0.95-6.41,0.95-6.41s4.69,0.53,6.59,0.59c1.9,0.06,5.82,0.06,6.35-0.53s1.07-9.92,0.24-15.8
	c-0.83-5.88-5.94-14.49-5.94-14.49s7.13-3.68,13.06-8.31c5.94-4.63,9.62-10.87,9.62-12.71S113.19,48.94,113.19,48.94z M106.55,67.39
	c-7.78,4.51-13.66,6.53-13.66,6.53s5.28,5.7,8.02,14.13c2.73,8.43,1.96,14.67,1.96,14.67s-5.28-0.36-6.77-0.59
	c-1.48-0.24-6.18-0.89-6.18-0.89s-0.83,5.46-1.19,7.3c-0.36,1.84-0.95,5.34-1.48,5.64s-8.91-1.84-15.08-6.83
	c-6.18-4.99-9.29-11.5-9.29-11.5s-5.2,7.7-11.08,11.97c-5.88,4.28-11.1,6.23-11.7,6.06c-0.59-0.18-1.14-12.45-1.68-12.92
	s-12.58,2-13.23,1.52c-0.65-0.48-0.06-9.98,2.85-15.5c2.91-5.52,9.28-12.02,9.28-12.02s-10.05-2.23-17.06-6.98
	C13.26,63.23,9.52,57.18,9.52,57.18s11.44-6.45,11.49-6.81c0.06-0.36-6.21-10.77-6.21-10.77s6.77-3.5,15.8-3.03
	c9.03,0.48,16.33,3.38,16.33,3.38s0.65-10.39,2.97-16.51c2.32-6.12,5.44-10.69,5.44-10.69s2.32,1.69,4.57,3.77
	c2.26,2.08,4.94,4.72,4.94,4.72s3.04-3.51,4.94-5.35c1.9-1.84,3.92-3.44,3.92-3.44s3.92,3.86,6.71,12.47
	c2.79,8.61,3.15,12.59,3.15,12.59s8.37-1.84,15.85-0.65c7.48,1.19,12.71,3.74,12.71,3.74s-1.6,3.42-2.67,5.15
	c-1.07,1.72-3.56,6.02-3.56,6.02s3.56,1.25,6.47,2.55c2.91,1.31,5.46,2.49,5.46,2.49S114.33,62.88,106.55,67.39z"/>
</svg>
