<?xml version="1.0" encoding="utf-8"?>
<!-- Generator: Adobe Illustrator 24.1.2, SVG Export Plug-In . SVG Version: 6.00 Build 0)  -->
<svg version="1.1" id="_x31_" xmlns="http://www.w3.org/2000/svg" xmlns:xlink="http://www.w3.org/1999/xlink" x="0px" y="0px"
	 viewBox="0 0 128 128" style="enable-background:new 0 0 128 128;" xml:space="preserve">
<g>
	<g>
		<path style="fill:#F44336;" d="M27.12,90.29c10.82-3.11,38.94-12.05,75.93-9.98c1.17,0.07,1.3,1.75,0.16,1.98
			c-17.17,3.53-60.46,12.67-72.57,17.43c-1.93,0.76-4.11-0.07-5.04-1.93c-0.3-0.61-0.62-1.25-0.94-1.88
			C23.53,93.68,24.71,90.98,27.12,90.29z"/>
		<path style="fill:#F44336;stroke:#F44336;stroke-miterlimit:10;" d="M6.96,113.3c17.01-4.24,88.4-22.13,116.04-21.84
			c1.2,0.01,1.38,1.72,0.21,1.98c-21.5,4.65-95.62,21.85-112.61,30.17c-2.17,1.06-4.77-0.07-5.53-2.36l-0.8-2.39
			C3.4,116.23,4.7,113.86,6.96,113.3z"/>
		<path style="fill:#F44336;stroke:#F44336;stroke-miterlimit:10;" d="M6.5,27.33c-3.5,1.48-2.99-5.45-0.57-7.33
			C12.94,14.55,30.08,8.14,40,4.18c2.04-0.81,4.04,1.28,3.15,3.29C37.75,19.68,21.88,55.25,12,86.72c-0.51,1.62-3.83,1.71-4,0.01
			c-0.9-9.2,5.5-34.57,19.11-64.23c0.49-1.06-0.58-2.2-1.72-1.94C21.4,21.5,15.28,23.63,6.5,27.33z"/>
		<path style="fill:#F44336;stroke:#F44336;stroke-miterlimit:10;" d="M111.8,8.7c-0.19-0.05-1.39-0.37-1.84-0.39
			c-29.98-1.04-43.97,8.48-44.47,8.88c-1.72,1.39-1.99,3.91-0.6,5.62c1.11,1.37,2.24,1.54,2.84,1.53c0.25-0.01,0.47,0.15,0.54,0.4
			c1.23,4.91,1.44,11.94-0.75,20.18C63.73,59.14,55.46,67,51.19,67c-0.24,0-0.47-0.03-0.68-0.09c-1.74-0.46-3.52-3.21-4.53-7
			c-1.51-5.71-1.26-13.19,0.69-20.53c2.65-9.98,7.52-16.82,11.66-20.01c1.9-1.46,3.42-3.36,4.53-5.49c0.01-0.01,0.01-0.03,0.02-0.04
			c0.5-0.96,2.83-5.48,0.11-5.54c-9.83,0-20.56,12.01-25.01,28.76c-4.91,18.48-0.33,35.73,10.23,38.54c0.98,0.26,1.98,0.39,3,0.39
			c9.83,0,20.56-12.01,25.01-28.76c2.48-9.32,2.53-18.32,0.62-25.31c-0.23-0.83,0.23-1.69,1.05-1.97c2.99-1.03,8.76-2.08,13.8-2.8
			c0.79-0.11,1.33,0.79,0.84,1.42c-3.7,4.88-6.8,11.24-8.73,18.5c-4.91,18.48-0.33,35.73,10.23,38.54c0.98,0.26,1.98,0.39,3,0.39
			c9.83,0,20.56-12.01,25.01-28.76C126.94,28.76,122.36,11.5,111.8,8.7z M113.33,44.92C109.55,59.14,101.29,67,97.02,67
			c-0.24,0-0.47-0.03-0.68-0.09c-1.74-0.46-3.52-3.21-4.53-7c-1.51-5.71-1.26-13.19,0.69-20.53c3.78-14.21,12.04-22.08,16.32-22.08
			c0.24,0,0.46,0.03,0.68,0.09C113.16,18.37,117.41,29.57,113.33,44.92z"/>
	</g>
</g>
</svg>
