<svg xmlns="http://www.w3.org/2000/svg" viewBox="0 0 64 64" enable-background="new 0 0 64 64"><g fill="#4fd1d9"><path d="m18.7 47.9c-3.3-1.1-6.6.3-7.4 3.1-.8 2.7 1.1 5.8 4.4 6.9s6.6-.3 7.4-3.1c.8-2.8-1.1-5.9-4.4-6.9"/><path d="m6.7 56.8c-1.1.9-1.2 2.6-.3 3.9 1 1.3 2.6 1.6 3.8.8 1.1-.9 1.2-2.6.3-3.9s-2.7-1.6-3.8-.8"/><path d="m62 22.7c0-2.7-1.3-5.1-3.2-6.6 0-.2 0-.4 0-.6 0-4.2-3.3-7.7-7.4-7.7-.3 0-.5 0-.8 0-1.6-2.7-4.4-4.6-7.7-4.6-2 0-3.8.6-5.2 1.7-1.9-1.7-4.5-2.9-7.3-2.9-4.6 0-8.5 3.1-9.8 7.4-1.5-1.1-3.4-1.7-5.4-1.7-5.3 0-9.6 4.4-9.6 9.8 0 1.6.4 3.1 1 4.5-2.8 2-4.6 5.3-4.6 9.1 0 6.2 4.9 11.2 10.9 11.2 2.2 0 4.3-.7 6-1.8.9 4.7 5 8.3 9.9 8.3 3.6 0 6.8-2 8.6-4.9 1.2 1.2 2.9 2 4.8 2 3.5 0 6.4-2.8 6.7-6.3.8.3 1.7.5 2.6.5 4.3 0 7.8-3.6 7.8-8 0-.9-.2-1.8-.4-2.6 1.8-1.7 3.1-4.1 3.1-6.8"/></g></svg>