<svg xmlns="http://www.w3.org/2000/svg" viewBox="0 0 36 36"><path fill="#9AAAB4" d="M11 27c0 1.104-.896 2-2 2s-2-.896-2-2V16c0-1.104.896-2 2-2s2 .896 2 2v11zm20 0c0 1.104-.896 2-2 2s-2-.896-2-2V16c0-1.104.896-2 2-2s2 .896 2 2v11z"/><path fill="#67757F" d="M29 34c0 1.104-.896 2-2 2s-2-.896-2-2v-6c0-1.104.896-2 2-2s2 .896 2 2v6zm-16 0c0 1.104-.896 2-2 2s-2-.896-2-2v-6c0-1.104.896-2 2-2s2 .896 2 2v6z"/><path fill="#4289C1" d="M29 18c0 2.209-1.791 4-4 4H13c-2.209 0-4-1.791-4-4V4c0-2.209 1.791-4 4-4h12c2.209 0 4 1.791 4 4v14z"/><path fill="#E1E8ED" d="M15 0h8v8h-8z"/><path fill="#CCD6DD" d="M11 15c0 1.104-.896 2-2 2H7c-1.104 0-2-.896-2-2s.896-2 2-2h2c1.104 0 2 .896 2 2zm22 0c0 1.104-.896 2-2 2h-2c-1.104 0-2-.896-2-2s.896-2 2-2h2c1.104 0 2 .896 2 2z"/><path fill="#5DADEC" d="M29 23c0 1.657-1.343 3-3 3H12c-1.657 0-3-1.343-3-3s1.343-3 3-3h14c1.657 0 3 1.343 3 3z"/><path fill="#2A6797" d="M9 23h20v6H9z"/></svg>