<svg xmlns="http://www.w3.org/2000/svg" viewBox="0 0 64 64" enable-background="new 0 0 64 64"><path d="m54.5 32c.2 2.2-1.3 4-3.4 4h-38.2c-2.1 0-3.6-1.8-3.4-4l2.1-22.2c.2-2.2 2.1-4 4.2-4h32.4c2.1 0 4 1.8 4.2 4l2.1 22.2" fill="#b4d7ee"/><g fill="#3e4347"><path d="m8.9 30.5h6v8h-6z"/><path d="m49.1 30.5h6v8h-6z"/><path d="m14.6 50.9h6v10.1h-6z"/><path d="m43.4 50.9h6v10.1h-6z"/></g><path d="m41.4 25c-.3 2.6-2.4 4.8-4.5 4.8h-9.8c-2.2 0-4.2-2.1-4.5-4.8l-1.8-14.6c-.3-2.6 1.2-4.8 3.3-4.8h15.7c2.2 0 3.7 2.2 3.3 4.8l-1.7 14.6" fill="#428bc1"/><g fill="#94989b"><path d="m23 58.9c-.2-.5-.8-1-1.3-1h-8c-.6 0-1.1.4-1.3 1l-1.5 4.1c-.2.5.1 1 .7 1h12c.6 0 .9-.4.7-1l-1.3-4.1"/><path d="m53.1 63l-1.4-4.1c-.2-.5-.8-1-1.3-1h-8c-.6 0-1.1.4-1.3 1l-1.4 4.1c-.2.5.1 1 .7 1h12c.5 0 .8-.4.7-1"/></g><g fill="#29abe2"><path d="m46.2 6c0 2.2-1.7 4-3.8 4h-20.9c-2.1 0-3.8-1.8-3.8-4v-2c0-2.2 1.7-4 3.8-4h20.9c2.1 0 3.8 1.8 3.8 4 0 0 0 2 0 2"/><path d="m15.5 29.2l-.3-2.1c-.2-1.1-1.1-2-2.1-2h-2.7c-1 0-1.9.9-2.1 2l-.3 2.1c-.2 1.1.5 2 1.5 2h4.5c1 0 1.7-.9 1.5-2"/><path d="m55.8 29.2l-.3-2.1c-.2-1.1-1.1-2-2.1-2h-2.7c-1 0-1.9.9-2.1 2l-.3 2.1c-.2 1.1.5 2 1.5 2h4.5c1 0 1.6-.9 1.5-2"/><path d="m51.5 36h-39c-3.1 0-5 3-4.4 6.7l.4 2.6c.6 3.7 3.7 6.7 6.7 6.7h33.4c3.1 0 6.1-3 6.7-6.7l.5-2.6c.7-3.6-1.3-6.7-4.3-6.7"/></g></svg>