<?xml version="1.0" encoding="UTF-8" standalone="no"?><svg xmlns:dc="http://purl.org/dc/elements/1.1/" xmlns:cc="http://creativecommons.org/ns#" xmlns:rdf="http://www.w3.org/1999/02/22-rdf-syntax-ns#" xmlns:svg="http://www.w3.org/2000/svg" xmlns="http://www.w3.org/2000/svg" viewBox="0 0 45 45" style="enable-background:new 0 0 45 45;" xml:space="preserve" version="1.1" id="svg2"><metadata id="metadata8"><rdf:RDF><cc:Work rdf:about=""><dc:format>image/svg+xml</dc:format><dc:type rdf:resource="http://purl.org/dc/dcmitype/StillImage"/></cc:Work></rdf:RDF></metadata><defs id="defs6"><clipPath id="clipPath16" clipPathUnits="userSpaceOnUse"><path id="path18" d="M 0,36 36,36 36,0 0,0 0,36 Z"/></clipPath></defs><g transform="matrix(1.25,0,0,-1.25,0,45)" id="g10"><g id="g12"><g clip-path="url(#clipPath16)" id="g14"><g transform="translate(32,23)" id="g20"><path id="path22" style="fill:#292f33;fill-opacity:1;fill-rule:nonzero;stroke:none" d="m 0,0 -28,0 c -2.209,0 -4,-1.791 -4,-4 l 0,-2 c 0,-2.209 1.791,-4 4,-4 l 0,-9 c 0,-2.209 1.791,-4 4,-4 l 20,0 c 2.209,0 4,1.791 4,4 l 0,9 c 2.209,0 4,1.791 4,4 l 0,2 C 4,-1.791 2.209,0 0,0"/></g><g transform="translate(30,21)" id="g24"><path id="path26" style="fill:#ccd6dd;fill-opacity:1;fill-rule:nonzero;stroke:none" d="m 0,0 c 0,-1.104 -0.895,-2 -2,-2 l -20,0 c -1.104,0 -2,0.896 -2,2 l 0,13 c 0,1.105 0.896,2 2,2 l 20,0 c 1.105,0 2,-0.895 2,-2 L 0,0 Z"/></g><g transform="translate(18,23)" id="g28"><path id="path30" style="fill:#55acee;fill-opacity:1;fill-rule:nonzero;stroke:none" d="m 0,0 c 0,-0.552 -0.447,-1 -1,-1 l -8,0 c -0.552,0 -1,0.448 -1,1 l 0,10 c 0,0.552 0.448,1 1,1 l 8,0 c 0.553,0 1,-0.448 1,-1 L 0,0 Z"/></g><g transform="translate(30,4)" id="g32"><path id="path34" style="fill:#ccd6dd;fill-opacity:1;fill-rule:nonzero;stroke:none" d="m 0,0 c 0,-1.104 -0.895,-2 -2,-2 l -20,0 c -1.104,0 -2,0.896 -2,2 l 0,11 c 0,1.105 0.896,2 2,2 l 20,0 c 1.105,0 2,-0.895 2,-2 L 0,0 Z"/></g><g transform="translate(28,32)" id="g36"><path id="path38" style="fill:#66757f;fill-opacity:1;fill-rule:nonzero;stroke:none" d="m 0,0 c 0,-0.552 -0.447,-1 -1,-1 l -6,0 c -0.553,0 -1,0.448 -1,1 0,0.552 0.447,1 1,1 l 6,0 C -0.447,1 0,0.552 0,0"/></g><g transform="translate(28,28)" id="g40"><path id="path42" style="fill:#66757f;fill-opacity:1;fill-rule:nonzero;stroke:none" d="m 0,0 c 0,-0.552 -0.447,-1 -1,-1 l -6,0 c -0.553,0 -1,0.448 -1,1 0,0.552 0.447,1 1,1 l 6,0 C -0.447,1 0,0.552 0,0"/></g><g transform="translate(28,24)" id="g44"><path id="path46" style="fill:#66757f;fill-opacity:1;fill-rule:nonzero;stroke:none" d="m 0,0 c 0,-0.552 -0.447,-1 -1,-1 l -6,0 c -0.553,0 -1,0.448 -1,1 0,0.552 0.447,1 1,1 l 6,0 C -0.447,1 0,0.552 0,0"/></g><g transform="translate(14,16)" id="g48"><path id="path50" style="fill:#99aab5;fill-opacity:1;fill-rule:nonzero;stroke:none" d="m 0,0 c 0,-0.553 -0.448,-1 -1,-1 -0.552,0 -1,0.447 -1,1 l 0,4 c 0,0.553 0.448,1 1,1 0.552,0 1,-0.447 1,-1 L 0,0 Z"/></g><g transform="translate(24,16)" id="g52"><path id="path54" style="fill:#99aab5;fill-opacity:1;fill-rule:nonzero;stroke:none" d="m 0,0 c 0,-0.553 -0.447,-1 -1,-1 -0.553,0 -1,0.447 -1,1 l 0,4 c 0,0.553 0.447,1 1,1 0.553,0 1,-0.447 1,-1 L 0,0 Z"/></g></g></g></g></svg>
