<?xml version="1.0" encoding="UTF-8" standalone="no"?><svg xmlns:dc="http://purl.org/dc/elements/1.1/" xmlns:cc="http://creativecommons.org/ns#" xmlns:rdf="http://www.w3.org/1999/02/22-rdf-syntax-ns#" xmlns:svg="http://www.w3.org/2000/svg" xmlns="http://www.w3.org/2000/svg" viewBox="0 0 45 45" style="enable-background:new 0 0 45 45;" xml:space="preserve" version="1.1" id="svg2"><metadata id="metadata8"><rdf:RDF><cc:Work rdf:about=""><dc:format>image/svg+xml</dc:format><dc:type rdf:resource="http://purl.org/dc/dcmitype/StillImage"/></cc:Work></rdf:RDF></metadata><defs id="defs6"><clipPath id="clipPath16" clipPathUnits="userSpaceOnUse"><path id="path18" d="M 0,36 36,36 36,0 0,0 0,36 Z"/></clipPath></defs><g transform="matrix(1.25,0,0,-1.25,0,45)" id="g10"><g id="g12"><g clip-path="url(#clipPath16)" id="g14"><g transform="translate(30.0205,1.7363)" id="g20"><path id="path22" style="fill:#ffcc4d;fill-opacity:1;fill-rule:nonzero;stroke:none" d="m 0,0 c -1.564,-1.563 -4.095,-1.562 -5.656,0 l -22.628,22.627 c -1.562,1.562 -1.563,4.094 0,5.658 l 4.242,4.242 c 1.563,1.562 4.096,1.562 5.658,0 L 4.242,9.899 C 5.805,8.337 5.805,5.804 4.243,4.243 L 0,0 Z"/></g><g transform="translate(9.5146,29.3135)" id="g24"><path id="path26" style="fill:#292f33;fill-opacity:1;fill-rule:nonzero;stroke:none" d="m 0,0 c -0.391,-0.39 -1.023,-0.39 -1.414,0 -0.39,0.391 -0.39,1.024 0,1.414 L 2.122,4.95 C 2.607,4.464 3.049,4.022 3.536,3.536 L 0,0 Z"/></g><g transform="translate(15.1714,27.8994)" id="g28"><path id="path30" style="fill:#292f33;fill-opacity:1;fill-rule:nonzero;stroke:none" d="m 0,0 c -0.39,-0.391 -1.023,-0.391 -1.414,0 -0.391,0.391 -0.391,1.024 0,1.414 L 0.001,2.829 C 0.486,2.342 0.928,1.9 1.415,1.414 L 0,0 Z"/></g><g transform="translate(16.5859,22.2427)" id="g32"><path id="path34" style="fill:#292f33;fill-opacity:1;fill-rule:nonzero;stroke:none" d="m 0,0 c -0.391,-0.391 -1.024,-0.391 -1.415,0 -0.39,0.391 -0.39,1.024 0,1.414 L 2.121,4.95 C 2.607,4.463 3.05,4.021 3.535,3.535 L 0,0 Z"/></g><g transform="translate(22.2422,20.8286)" id="g36"><path id="path38" style="fill:#292f33;fill-opacity:1;fill-rule:nonzero;stroke:none" d="m 0,0 c -0.39,-0.391 -1.023,-0.391 -1.413,0 -0.392,0.391 -0.391,1.024 0,1.414 L 0.001,2.829 C 0.486,2.342 0.929,1.9 1.415,1.414 L 0,0 Z"/></g><g transform="translate(23.6572,15.1719)" id="g40"><path id="path42" style="fill:#292f33;fill-opacity:1;fill-rule:nonzero;stroke:none" d="M 0,0 C -0.391,-0.391 -1.023,-0.392 -1.414,0 -1.805,0.391 -1.805,1.023 -1.415,1.414 L 2.121,4.949 C 2.607,4.463 3.05,4.021 3.535,3.535 L 0,0 Z"/></g><g transform="translate(30.7275,8.1006)" id="g44"><path id="path46" style="fill:#292f33;fill-opacity:1;fill-rule:nonzero;stroke:none" d="M 0,0 C -0.39,-0.391 -1.023,-0.391 -1.413,0 -1.805,0.391 -1.805,1.023 -1.414,1.414 L 2.122,4.949 C 2.607,4.464 3.05,4.022 3.536,3.535 L 0,0 Z"/></g><g transform="translate(29.3135,13.7578)" id="g48"><path id="path50" style="fill:#292f33;fill-opacity:1;fill-rule:nonzero;stroke:none" d="m 0,0 c -0.391,-0.391 -1.023,-0.391 -1.414,-0.001 -0.391,0.391 -0.39,1.024 0,1.414 L 0.001,2.827 C 0.486,2.342 0.929,1.899 1.414,1.414 L 0,0 Z"/></g></g></g></g></svg>
