<svg xmlns="http://www.w3.org/2000/svg" viewBox="0 0 64 64" enable-background="new 0 0 64 64"><path d="m58.4 2.5c-2.5-3.5-22.7 11.8-20.2 15.3 2 2.7 4.5 4.6 7.1 5.8-2.7 2.7-5.8 5.4-9.2 8-3.5 2.6-6.9 4.8-10.2 6.7-.4-2.9-1.5-5.9-3.5-8.5-2.5-3.6-22.7 11.7-20.2 15.1 3.6 4.9 8.9 7.4 13.7 7 6.4-.4 16.4-4.9 26.2-12.3 11.3-8.5 18.9-18.3 19.7-24.5.7-4-.5-8.6-3.4-12.6" fill="#676e72"/><g fill="#373e42"><path d="m8 47.2c.1 0 .1 0 0 0"/><path d="m8 47.2c-1.8-1.3-4.4-2.7-3.8-5.1-4.3 4.3 7.1 9.2 10.2 8.3-2.2-.8-4.3-1.8-6.4-3.2"/><path d="m47.1 21.8c-2.3-1.2-7.6-3.7-6.8-7-4.3 4.3 7.1 9.2 10.2 8.3-1.2-.3-2.3-.7-3.4-1.3"/><path d="m51.8 42.5c.6-.8 1.5-1.6 2.5-2.3.4-.3.5-.9.3-1.3-.3-.4-.9-.5-1.3-.3-1.4.9-2.5 2-3.3 3.1-.5-.2-1.1-.3-1.7-.3-1.5-.1-2.8.5-3.9 1.6-.6.6-1.1 1.6-1.4 2.6-1.3 0-2.6.5-3.6 1.4-.9.8-1.4 1.8-1.7 2.9-1.8-.1-3.4.8-4.1 1.4-.4-.3-.9-.6-1.3-.9-1.3-.6-2.8-.6-4.2 0-.8.3-1.6 1-2.3 1.9-1.2-.5-2.6-.5-3.8-.1-1.1.4-2 1.1-2.7 2-2.4-1.1-5.6-1.4-8.7-.6-2.8.7-6-.9-6.6-2.7-.5-1.4 1.2-2.5 2.3-3 .5-.2.7-.8.5-1.2s-.8-.7-1.2-.5c-3.9 1.8-3.6 4.3-3.3 5.2.9 2.8 5.2 4.7 8.7 3.9 2.6-.6 5.3-.4 7.3.4-.6 1.1-.9 2.3-.9 2.9 0 1.8.9 2.6 1.5 2.9.3.2.7.3 1 .3.7.1 1.4 0 2-.4.8-.5 1.3-1.3 1.3-2.2 0-1.6-.8-3-2.2-4.1.5-.5 1.1-1 1.7-1.2.8-.3 1.6-.2 2.2-.1-.8 1.6-1.1 3.4-.5 4.9.5 1.3 1.8 2 3.2 1.7 1.4-.3 2.3-1.5 2.3-2.9-.1-1.6-.9-3.3-2.3-4.4.4-.5.9-.9 1.4-1.1 1-.4 1.8-.4 2.7 0 .3.1.5.3.8.5-.3.3-.5.6-.7.9-.7 1.2-.8 2.6-.4 3.9.6 1.7 2.1 2.1 3.2 1.8 1.4-.5 2.5-2.2 1.8-4.2-.2-.6-.6-1.4-1.2-2.2l-.1-.1c.6-.4 1.5-.9 2.5-.9-.1 1.3 0 2.4.3 3 .7 1.6 1.9 2 2.5 2.1.4 0 .7 0 1.1-.1.7-.2 1.3-.6 1.7-1.2.6-.8.7-1.7.3-2.5-.7-1.5-1.9-2.5-3.6-2.9.2-.7.6-1.3 1.1-1.8.7-.6 1.4-.8 2-.9-.1 1.8.3 3.6 1.4 4.7 1 1 2.5 1.1 3.6.3 1.2-.8 1.6-2.3 1-3.5-.7-1.5-2.2-2.6-3.9-3.1.2-.6.5-1.2.8-1.6.7-.7 1.5-1.1 2.5-1.1.3 0 .6.1.9.1-.1.4-.2.8-.3 1.1-.2 1.4.2 2.7 1.2 3.7 1.2 1.4 2.7 1.2 3.6.4 1.1-1 1.4-3 0-4.6-.4-.2-1.1-.8-2-1.3m-30.6 16.9c0 .3-.2.5-.4.6-.4.2-.9.2-1.2 0-.4-.3-.5-.8-.5-1.3 0-.3.2-1.1.7-2 .9.8 1.4 1.7 1.4 2.7m6.7-1.6c0 .8-.7.9-.8 1s-.9.1-1.1-.6c-.4-.9-.1-2.2.4-3.3.9.7 1.5 1.8 1.5 2.9m6-.3c-.5.2-.7-.3-.9-.6-.3-.8-.2-1.6.3-2.3.1-.2.2-.4.4-.5.5.6.8 1.3.9 1.6.2 1-.3 1.7-.7 1.8m7.7-3.5c.1.3 0 .5-.1.7-.3.3-.7.6-1.1.5-.5-.1-.8-.6-1-1-.1-.3-.2-1.1-.1-2.1 1.1.3 1.9.9 2.3 1.9m5.6-4.2c.3.7-.3 1.1-.4 1.2s-.8.5-1.3 0c-.7-.7-1-2-.9-3.2 1.1.3 2.1 1.1 2.6 2m5.3-2.5c-.4.3-.8.1-1-.2-.5-.6-.8-1.4-.7-2.2 0-.2.1-.4.1-.7.7.4 1.2.9 1.4 1.1.8.9.5 1.7.2 2"/></g></svg>