<?xml version="1.0" encoding="utf-8"?>
<!-- Generator: Adobe Illustrator 25.2.3, SVG Export Plug-In . SVG Version: 6.00 Build 0)  -->
<svg version="1.1" id="Layer_1" xmlns="http://www.w3.org/2000/svg" xmlns:xlink="http://www.w3.org/1999/xlink" x="0px" y="0px"
	 viewBox="0 0 128 128" style="enable-background:new 0 0 128 128;" xml:space="preserve">
<path style="fill:#F44336;" d="M118.9,69.9c0-35.7-13.2-52.5-20.9-62.8c-1-1.5-4-2.1-5.3,0.5c-3.68,7.59-6.52,13.01-8.74,17.12
	c-0.58,1.11-1.11,2.1-1.56,2.98c-0.24,0.44-0.58,0.77-0.95,1.02c-0.03,0.02-0.05,0.04-0.08,0.06c-0.04,0.02-0.07,0.05-0.1,0.07
	c-2.62,1.95-7.02,0.46-7.97-1.25c-3.8-6.5-5.7-15-8.1-19.7c-1.14-1.99-3.81-2.81-5.36-0.33c-2.35,5.13-5.48,14.3-8.94,20.23
	c-0.36,0.6-0.87,0.98-1.44,1.21c-2.9,1.95-6.51,0.61-7.46-1.11C39.7,23.4,36.4,17,31.8,7.5c-1.3-2.7-3.9-2.7-5.1-0.1
	c-0.65,0.86-1.4,1.78-2.21,2.73C16.19,21.44,4,40.85,4,72c0,0-0.24,31.94,29.17,45.76c7.04,2.51,15.51,4.06,25.73,4.14
	C119.2,121.4,118.9,69.9,118.9,69.9z"/>
<path style="fill:#F1F2F2;" d="M104,56c2.2,0,4,1.8,4,4v24c0,2.2-1.8,4-4,4H24c-2.2,0-4-1.8-4-4V60c0-2.2,1.8-4,4-4H104"/>
<path style="fill:#FF8A80;" d="M95.03,12.14c1.78-1.54,4.7-0.12,6.72,2.76c1.62,2.32,2.38,5.9-0.1,7.09
	c-2.57,1.23-3.36-2.51-4.73-4.73C95.55,15.03,93.37,13.55,95.03,12.14z"/>
<path style="fill:#FF8A80;" d="M64.86,11.37c-1.74-1.02-3.98,0.62-5.24,3.36c-1.01,2.21-1.1,5.35,1.17,5.97
	c2.35,0.64,2.45-2.63,3.26-4.72C64.85,13.89,66.48,12.31,64.86,11.37z"/>
<g>
	<path style="fill:#CC3332;" d="M65.2,7.9c2.4,4.7,4.3,13.2,8.1,19.7c0.94,1.72,5.34,3.2,7.97,1.25c-1.33,0.76-3.17,0.44-4.07-1.05
		c-3.8-6.5-7.2-16.9-9.6-21.6c-1.5-2.9-5.7-2.9-7.1,0c-0.21,0.41-0.43,0.88-0.66,1.37C61.39,5.09,64.06,5.91,65.2,7.9z"/>
	<path style="fill:#891349;" d="M81.37,28.78c0.03-0.02,0.05-0.04,0.08-0.06C81.42,28.74,81.4,28.76,81.37,28.78z"/>
	<path style="fill:#CC3332;" d="M31.8,7.5C36.4,17,39.7,23.4,42,27.9c0.95,1.72,4.56,3.06,7.46,1.11c-1.34,0.54-2.99,0.09-3.76-1.31
		c-2.4-4.4-6.3-11.9-11-21.4c-1.3-2.7-5-3-6.8-0.7c-1.01,1.34-2.17,2.85-3.41,4.53c0.81-0.96,1.55-1.87,2.21-2.73
		C27.9,4.8,30.5,4.8,31.8,7.5z"/>
	<path style="fill:#CC3332;" d="M124,72c0-35.8-16.1-56.1-23.9-66.4c-1.8-2.4-5.5-2-6.8,0.7c-3.69,7.62-6.99,13.95-9.34,18.42
		c2.22-4.12,5.06-9.53,8.74-17.12C94,5,97,5.6,98,7.1c7.7,10.3,20.9,27.1,20.9,62.8c0,0,0.3,51.5-60,52
		c-10.22-0.08-18.7-1.63-25.73-4.14c7.93,3.72,18.01,6.14,30.83,6.24C124.4,123.5,124,72,124,72z"/>
	<path style="fill:#F44336;" d="M81.27,28.85c0.04-0.02,0.07-0.05,0.1-0.07C81.34,28.81,81.3,28.83,81.27,28.85z"/>
	<path style="fill:#F44336;" d="M82.4,27.7c0.46-0.87,0.98-1.87,1.56-2.98c-0.56,1.04-1.08,1.99-1.56,2.88
		c-0.27,0.45-0.59,0.82-0.95,1.12C81.82,28.47,82.16,28.14,82.4,27.7z"/>
	<path style="fill:#F44336;" d="M50.9,27.8c3.47-5.93,6.6-15.09,8.94-20.23C59.76,7.71,59.68,7.85,59.6,8c-2.4,4.7-5,13.3-8.8,19.8
		c-0.42,0.5-0.87,0.9-1.34,1.21C50.03,28.78,50.54,28.4,50.9,27.8z"/>
</g>
<path style="fill:#FF8A80;" d="M32.67,105.37c-0.03-0.01-3-1.27-6.64-5.03c-3.38-3.49-8.06-9.9-11.12-20.64
	c-4.53-15.91-0.07-30.53,2.58-37.79l0.26-0.71c0.81-2.22,1.33-3.44,1.93-4.87c0.38-0.9,0.79-1.86,1.31-3.16l0.35-0.88
	c1.11-2.8,6.72-12.51,7.52-13.68c1.47-2.17,3.72-3.54,2.13-5.02c-1.71-1.62-5.07-0.6-6.84,2.45C15.77,30.4,13.29,39.39,13.29,39.39
	c-2.48,8.75-8.17,24.21-3.2,41.68c6.56,23.05,20.13,28.71,20.7,28.94c0.3,0.12,0.62,0.18,0.92,0.18c0.98,0,1.92-0.59,2.31-1.56
	C34.55,107.35,33.93,105.9,32.67,105.37z"/>
</svg>
