<?xml version="1.0" encoding="utf-8"?>
<!-- Generator: Adobe Illustrator 25.2.3, SVG Export Plug-In . SVG Version: 6.00 Build 0)  -->
<svg version="1.1" id="bookmarktabs" xmlns="http://www.w3.org/2000/svg" xmlns:xlink="http://www.w3.org/1999/xlink" x="0px"
	 y="0px" viewBox="0 0 128 128" style="enable-background:new 0 0 128 128;" xml:space="preserve">
<g>
	<path style="fill:#FFFFFF;" d="M106.75,123.88H32.94c-2.21,0-4-1.79-4-4V14.79c0-2.21,1.79-4,4-4h73.82c2.21,0,4,1.79,4,4v105.09
		C110.75,122.09,108.96,123.88,106.75,123.88z"/>
	<g>
		<path style="fill:#6FBFF0;" d="M106.75,10.79h-6.89v3h6.89c0.55,0,1,0.45,1,1v105.09c0,0.55-0.45,1-1,1H32.94c-0.55,0-1-0.45-1-1
			v-5.75h-3v5.75c0,2.21,1.79,4,4,4h73.82c2.21,0,4-1.79,4-4V14.79C110.75,12.59,108.96,10.79,106.75,10.79L106.75,10.79z"/>
	</g>
	<path style="fill:#FFFFFF;" d="M95.86,114.13H18.05c-2.21,0-4-1.79-4-4V8c0-2.21,1.79-4,4-4h77.81c2.21,0,4,1.79,4,4v102.13
		C99.86,112.34,98.07,114.13,95.86,114.13z"/>
	<path style="fill:#FFD54F;" d="M117.95,52.62c0,0.63-0.38,1.18-0.93,1.33c-1.39,0.37-4.25,0.98-8,0.98H96.84
		c-0.48,0-0.95-0.19-1.32-0.55l-4.07-3.89c-0.96-0.92-0.96-2.59,0-3.51l4.07-3.89c0.37-0.35,0.84-0.55,1.32-0.55h15.53
		c1.58,0,3.06-0.3,4.1-0.57c0.76-0.2,1.49,0.45,1.49,1.33V52.62z"/>
	<path style="fill:#F3AB47;" d="M117.35,42.11c-0.1-0.07-0.21-0.13-0.33-0.16c-0.01,2.02-0.07,4.04-0.07,6.06c0,1.53,0,3.06,0,4.6
		c0,0.2-0.11,0.34-0.18,0.36c-1.33,0.36-4.11,0.95-7.75,0.95H96.84c-0.22,0-0.45-0.1-0.63-0.27c-1.16-1.11-2.32-2.22-3.48-3.33
		c-0.52-0.5-1.06-0.94-1.37-1.62c-0.19-0.43-0.28-0.91-0.22-1.38c-0.01,0.11-0.16,0.26-0.2,0.37c-0.05,0.12-0.08,0.26-0.12,0.38
		c-0.07,0.27-0.1,0.56-0.08,0.84c0.04,0.58,0.28,1.15,0.71,1.56l4.07,3.89c0.37,0.35,0.84,0.55,1.32,0.55h12.18
		c3.75,0,6.61-0.61,8-0.98c0.55-0.15,0.93-0.7,0.93-1.33v-9.33C117.95,42.85,117.72,42.37,117.35,42.11z"/>
	<path style="fill:#0091EA;" d="M117.95,95.16c0,0.63-0.38,1.18-0.93,1.33c-1.39,0.37-4.25,0.98-8,0.98H96.84
		c-0.48,0-0.95-0.19-1.32-0.55l-4.07-3.89c-0.96-0.92-0.96-2.59,0-3.51l4.07-3.89c0.37-0.35,0.84-0.55,1.32-0.55h15.53
		c1.58,0,3.06-0.3,4.1-0.57c0.76-0.2,1.49,0.45,1.49,1.33V95.16z"/>
	<path style="fill:#01579B;" d="M117.35,84.64c-0.1-0.07-0.21-0.13-0.33-0.16c-0.01,2.02-0.07,4.04-0.07,6.06c0,1.53,0,3.06,0,4.6
		c0,0.2-0.11,0.34-0.18,0.36c-1.33,0.36-4.11,0.95-7.75,0.95H96.84c-0.22,0-0.45-0.1-0.63-0.27c-1.16-1.11-2.32-2.22-3.48-3.33
		c-0.52-0.5-1.06-0.94-1.37-1.62c-0.19-0.43-0.28-0.91-0.22-1.38c-0.01,0.11-0.16,0.26-0.2,0.37c-0.05,0.12-0.08,0.26-0.12,0.38
		c-0.07,0.27-0.1,0.56-0.08,0.84c0.04,0.58,0.28,1.15,0.71,1.56l4.07,3.89c0.37,0.35,0.84,0.55,1.32,0.55h12.18
		c3.75,0,6.61-0.61,8-0.98c0.55-0.15,0.93-0.7,0.93-1.33c0,0,0-9.33,0-9.33C117.95,85.38,117.72,84.91,117.35,84.64z"/>
	<path style="opacity:0.25;fill:#212121;" d="M17.13,10.79c-0.01,0.09,11.05,0.17,11.05,0.26l0.76,27.79v78.34h69.98
		c2.21,0,4-1.79,4-4V11.05c0-0.09-0.02-0.17-0.03-0.26H17.13z"/>
	<path style="fill:#FFFFFF;" d="M95.86,114.13H18.05c-2.21,0-4-1.79-4-4V8c0-2.21,1.79-4,4-4h77.81c2.21,0,4,1.79,4,4v102.13
		C99.86,112.34,98.07,114.13,95.86,114.13z"/>
	<g>
		<path style="fill:#6FBFF0;" d="M95.86,7c0.55,0,1,0.45,1,1v102.13c0,0.55-0.45,1-1,1H18.05c-0.55,0-1-0.45-1-1V8
			c0-0.55,0.45-1,1-1H95.86 M95.86,4H18.05c-2.21,0-4,1.79-4,4v102.13c0,2.21,1.79,4,4,4h77.81c2.21,0,4-1.79,4-4V8
			C99.86,5.79,98.07,4,95.86,4L95.86,4z"/>
	</g>
	<g>
		<g>
			
				<line style="fill:none;stroke:#B0BEC5;stroke-width:3.8648;stroke-linecap:round;stroke-miterlimit:10;" x1="27.11" y1="30.48" x2="84.22" y2="30.48"/>
			
				<line style="fill:none;stroke:#B0BEC5;stroke-width:3.8648;stroke-linecap:round;stroke-miterlimit:10;" x1="27.11" y1="44.25" x2="84.22" y2="44.25"/>
			
				<line style="fill:none;stroke:#B0BEC5;stroke-width:3.8648;stroke-linecap:round;stroke-miterlimit:10;" x1="27.11" y1="58.03" x2="84.22" y2="58.03"/>
			
				<line style="fill:none;stroke:#B0BEC5;stroke-width:3.8648;stroke-linecap:round;stroke-miterlimit:10;" x1="27.11" y1="71.81" x2="84.22" y2="71.81"/>
			
				<line style="fill:none;stroke:#B0BEC5;stroke-width:3.8648;stroke-linecap:round;stroke-miterlimit:10;" x1="27.11" y1="85.58" x2="51.54" y2="85.58"/>
		</g>
	</g>
	<path style="fill:#F44336;" d="M116.09,33.46c0,0.63-0.38,1.18-0.93,1.33c-1.39,0.37-4.25,0.98-8,0.98H94.98
		c-0.48,0-0.95-0.19-1.32-0.55l-4.07-3.89c-0.96-0.92-0.96-2.59,0-3.51l4.07-3.89c0.37-0.35,0.84-0.55,1.32-0.55h15.53
		c1.58,0,3.06-0.3,4.1-0.57c0.76-0.2,1.49,0.45,1.49,1.33V33.46z"/>
	<path style="fill:#9CCC65;" d="M116.09,76c0,0.63-0.38,1.18-0.93,1.33c-1.39,0.37-4.25,0.98-8,0.98H94.98
		c-0.48,0-0.95-0.19-1.32-0.55l-4.07-3.89c-0.96-0.92-0.96-2.59,0-3.51l4.07-3.89c0.37-0.35,0.84-0.55,1.32-0.55h15.53
		c1.58,0,3.06-0.3,4.1-0.57c0.76-0.2,1.49,0.45,1.49,1.33V76z"/>
	<path style="fill:#C62828;" d="M115.5,22.96c-0.1-0.07-0.21-0.13-0.33-0.16c-0.01,2.02-0.07,4.04-0.07,6.06c0,1.53,0,3.06,0,4.6
		c0,0.2-0.11,0.34-0.18,0.36c-1.33,0.36-4.11,0.95-7.75,0.95H94.98c-0.22,0-0.45-0.1-0.63-0.27c-1.16-1.11-2.32-2.22-3.48-3.33
		c-0.52-0.5-1.06-0.94-1.37-1.62c-0.19-0.43-0.28-0.91-0.22-1.38c-0.01,0.11-0.16,0.26-0.2,0.37c-0.05,0.12-0.08,0.26-0.12,0.38
		c-0.07,0.27-0.1,0.56-0.08,0.84c0.04,0.58,0.28,1.15,0.71,1.56l4.07,3.89c0.37,0.35,0.84,0.55,1.32,0.55h12.18
		c3.75,0,6.61-0.61,8-0.98c0.55-0.15,0.93-0.7,0.93-1.33c0,0,0-9.33,0-9.33C116.09,23.7,115.86,23.22,115.5,22.96z"/>
	<path style="fill:#7CB342;" d="M115.5,65.48c-0.1-0.07-0.21-0.13-0.33-0.16c-0.01,2.02-0.07,4.04-0.07,6.06c0,1.53,0,3.06,0,4.6
		c0,0.2-0.11,0.34-0.18,0.36c-1.33,0.36-4.11,0.95-7.75,0.95H94.98c-0.22,0-0.45-0.1-0.63-0.27c-1.16-1.11-2.32-2.22-3.48-3.33
		c-0.52-0.5-1.06-0.94-1.37-1.62c-0.19-0.43-0.28-0.91-0.22-1.38c-0.01,0.11-0.16,0.26-0.2,0.37c-0.05,0.12-0.08,0.26-0.12,0.38
		c-0.07,0.27-0.1,0.56-0.08,0.84c0.04,0.58,0.28,1.15,0.71,1.56l4.07,3.89c0.37,0.35,0.84,0.55,1.32,0.55h12.18
		c3.75,0,6.61-0.61,8-0.98c0.55-0.15,0.93-0.7,0.93-1.33v-9.33C116.09,66.22,115.86,65.74,115.5,65.48z"/>
</g>
</svg>
