<?xml version="1.0" encoding="utf-8"?>
<!-- Generator: Adobe Illustrator 25.2.3, SVG Export Plug-In . SVG Version: 6.00 Build 0)  -->
<svg version="1.1" id="Layer_4" xmlns="http://www.w3.org/2000/svg" xmlns:xlink="http://www.w3.org/1999/xlink" x="0px" y="0px"
	 viewBox="0 0 128 128" style="enable-background:new 0 0 128 128;" xml:space="preserve">
<g>
	<path style="fill:#C62828;" d="M70.24,100.79l48.55,4.62c4.57,0.44,5.74-2.11,5.74-4.27l-0.05-2.62L64.77,90.1
		C64.77,93.09,67.2,100.79,70.24,100.79z"/>
	<path style="fill:#F44336;" d="M72.01,98.51l7.64,0.67l40.91,3.95c2.2,0,3.97-1.75,3.97-3.91l-2.17-66.26
		c0-2.16-1.78-3.91-3.97-3.91l-46.38-4.38c-3.04,0-5.51,2.43-5.51,5.42v63C66.5,96.08,68.96,98.51,72.01,98.51z"/>
	<path style="fill:#C62828;" d="M57.76,100.79l-48.55,4.62c-4.57,0.44-5.74-2.11-5.74-4.27l0.05-2.62l59.71-8.43
		C63.23,93.09,60.8,100.79,57.76,100.79z"/>
	<path style="fill:#F44336;" d="M55.99,98.51l-7.58,0.67l-40.97,3.96c-2.2,0-3.97-1.75-3.97-3.91l2.17-66.26
		c0-2.16,1.78-3.91,3.97-3.91l46.38-4.38c3.04,0,5.51,2.43,5.51,5.42v63C61.5,96.08,59.04,98.51,55.99,98.51z"/>
	<path style="fill:#424242;" d="M78.75,83.68H49.27l-0.9,15.53l9.2,0.86c0,0,1.97,4.92,6.43,4.92s6.43-4.92,6.43-4.92l9.2-0.86
		L78.75,83.68z"/>
	<g>
		<line style="fill:none;stroke:#616161;stroke-width:2.5;stroke-miterlimit:10;" x1="79.54" y1="100.43" x2="70.97" y2="99.69"/>
	</g>
	<g>
		<line style="fill:none;stroke:#616161;stroke-width:2.5;stroke-miterlimit:10;" x1="48.46" y1="100.43" x2="57.03" y2="99.69"/>
	</g>
	<path style="fill:#94C6D6;" d="M119.65,32.82l-4-5.5L64,86.02l-51.65-58.7l-4,5.5L7.79,98.17c0,0,10.62,1.33,24.81-0.11
		c12.36-1.25,18.18-4.45,22.31-3.62c4.96,1,5.86,4.05,6.02,4.57c0.45,1.44,1.34,2.56,3.07,2.56s2.5-0.6,3.03-2.38
		c0.16-0.52,1.1-3.74,6.06-4.74c4.13-0.83,9.95,2.37,22.31,3.62c14.19,1.44,24.81,0.11,24.81,0.11L119.65,32.82z"/>
	
		<linearGradient id="SVGID_1_" gradientUnits="userSpaceOnUse" x1="50.8847" y1="88.2008" x2="50.6375" y2="70.8982" gradientTransform="matrix(-1 0 0 1 168.1284 0)">
		<stop  offset="0.2665" style="stop-color:#82AEC0"/>
		<stop  offset="1" style="stop-color:#82AEC0;stop-opacity:0"/>
	</linearGradient>
	<path style="fill:url(#SVGID_1_);" d="M114.3,91.87l0.16-26.39h5.47l0.28,32.69C120.21,98.17,115.86,96.48,114.3,91.87z"/>
	
		<linearGradient id="SVGID_2_" gradientUnits="userSpaceOnUse" x1="98.2114" y1="84.601" x2="55.3995" y2="84.601" gradientTransform="matrix(-1 0 0 1 168.1284 0)">
		<stop  offset="0" style="stop-color:#2F7889"/>
		<stop  offset="1" style="stop-color:#82AEC0"/>
	</linearGradient>
	<path style="fill:url(#SVGID_2_);" d="M114.55,76.49l-0.25,15.39c0,0-11.96-0.62-31.01-3.92C70.83,85.8,64,92.72,64,92.72
		l-0.11-16.23H114.55z"/>
	<linearGradient id="SVGID_3_" gradientUnits="userSpaceOnUse" x1="57.9793" y1="84.601" x2="15.2634" y2="84.601">
		<stop  offset="0" style="stop-color:#2F7889"/>
		<stop  offset="1" style="stop-color:#82AEC0"/>
	</linearGradient>
	<path style="fill:url(#SVGID_3_);" d="M13.45,76.49l0.25,15.39c0,0,11.96-0.62,31.01-3.92C57.17,85.8,64,92.72,64,92.72
		l-0.11-16.23H13.45z"/>
	<linearGradient id="SVGID_4_" gradientUnits="userSpaceOnUse" x1="10.7527" y1="88.2008" x2="10.5055" y2="70.8981">
		<stop  offset="0.2665" style="stop-color:#82AEC0"/>
		<stop  offset="1" style="stop-color:#82AEC0;stop-opacity:0"/>
	</linearGradient>
	<path style="fill:url(#SVGID_4_);" d="M13.7,91.87l-0.16-26.39H8.06L7.79,98.17C7.79,98.17,12.13,96.48,13.7,91.87z"/>
	<path style="fill:#F5F5F5;" d="M115.65,27.32c0,0-26.54-4.99-38.19-5.64c-10.96-0.61-13.21,4.97-13.43,5.64h-0.04
		c-0.23-0.67-2.48-6.24-13.44-5.64c-11.65,0.65-38.19,5.64-38.19,5.64l-1.18,64.4c0,0,31.6-6.62,39.25-5.76S64,92.72,64,92.72
		S64,92.71,64,92.71v0.01c0,0,5.93-5.9,13.58-6.76c7.65-0.86,39.25,5.76,39.25,5.76L115.65,27.32z"/>
	<path style="opacity:0.26;fill:#94C6D6;" d="M53.62,21.69l-5.4,64.2c0.85-0.02,1.6,0,2.2,0.07C58.06,86.81,64,92.72,64,92.72
		l-0.17-65.4C63.83,27.32,62.53,22.2,53.62,21.69z"/>
	<g style="opacity:0.5;">
		<path style="fill:#757575;" d="M25.31,30.18c-2.7,0.47-4.91,0.87-6.17,1.09c0,0.62,0,1.3-0.01,2.03c1.11-0.2,3.37-0.61,6.18-1.1
			V30.18z"/>
		<g>
			<path style="fill:#757575;" d="M49.65,26.96v1.99c5.33-0.01,8.28,1.33,9.25,1.87c0-0.83,0.01-1.57,0.01-2.22
				C57.26,27.86,54.24,26.95,49.65,26.96z"/>
			<path style="fill:#757575;" d="M45.31,27.21c-4.33,0.44-10.36,1.36-15.66,2.24v2.03c5.26-0.87,11.3-1.8,15.66-2.26V27.21z"/>
		</g>
		<g>
			<path style="fill:#757575;" d="M34.66,35.84c-6.46,1-12.94,2.16-15.54,2.63c0,0.66,0,1.34,0,2.03c2.26-0.41,8.89-1.61,15.54-2.64
				V35.84z"/>
			<path style="fill:#757575;" d="M46.69,34.28c-2.11,0.17-4.8,0.51-7.69,0.91v2.02c2.95-0.42,5.71-0.76,7.85-0.94
				c7.18-0.59,10.97,1.17,12.03,1.77c0-0.77,0-1.51,0-2.23C56.92,34.94,52.99,33.76,46.69,34.28z"/>
		</g>
		<g>
			<path style="fill:#757575;" d="M26.38,44.39c-3.16,0.54-5.8,1.01-7.26,1.28c0,0.67,0,1.35,0,2.03c1.31-0.24,3.99-0.72,7.26-1.28
				V44.39z"/>
			<path style="fill:#757575;" d="M58.88,43.04c-1.95-0.88-5.89-2.08-12.25-1.55c-4.07,0.33-10.3,1.26-15.91,2.18v2.03
				c5.66-0.93,11.98-1.87,16.08-2.21c7.3-0.6,11.1,1.23,12.08,1.8C58.88,44.52,58.88,43.78,58.88,43.04z"/>
		</g>
		<g>
			<path style="fill:#757575;" d="M58.89,50.27c-1.93-0.88-5.89-2.11-12.3-1.58c-0.65,0.05-1.35,0.12-2.09,0.2v2.01
				c0.81-0.09,1.56-0.16,2.26-0.22c7.44-0.61,11.24,1.3,12.14,1.84C58.89,51.77,58.89,51.02,58.89,50.27z"/>
			<path style="fill:#757575;" d="M40.15,49.43c-7.82,1.07-17.56,2.8-21.02,3.43c0,0.68,0,1.35,0,2.03
				c3.05-0.56,13.02-2.35,21.02-3.45V49.43z"/>
		</g>
		<g>
			<path style="fill:#757575;" d="M28.25,58.47c-3.93,0.66-7.33,1.27-9.12,1.59c0,0.68,0,1.36,0,2.03c1.62-0.3,5.07-0.92,9.12-1.6
				V58.47z"/>
			<path style="fill:#757575;" d="M58.9,57.51c-1.91-0.88-5.89-2.14-12.36-1.61c-3.6,0.3-8.88,1.05-13.94,1.86v2.02
				c5.11-0.82,10.48-1.59,14.1-1.89c7.63-0.63,11.44,1.41,12.2,1.87C58.9,59.01,58.9,58.26,58.9,57.51z"/>
		</g>
		<path style="fill:#757575;" d="M58.92,71.98c-1.82-0.87-5.76-2.18-12.26-1.69v2.01c8.29-0.67,12.05,1.81,12.26,1.96
			C58.92,73.52,58.92,72.76,58.92,71.98z"/>
		<g>
			<path style="fill:#757575;" d="M26.38,73.18c-3.08,0.53-5.7,0.99-7.23,1.27c0,0.7,0,1.37,0,2.03c1.41-0.26,4.05-0.73,7.23-1.28
				V73.18z"/>
			<path style="fill:#757575;" d="M30.72,72.46v2.03c3.88-0.63,8.05-1.27,11.6-1.72v-2.02C38.79,71.19,34.62,71.82,30.72,72.46z"/>
		</g>
		<g>
			<path style="fill:#757575;" d="M37.67,78.58c-7.16,1.04-15.21,2.47-18.51,3.07c0,0.74,0,1.42,0,2.03
				c2.99-0.55,11.19-2.01,18.51-3.08V78.58z"/>
			<path style="fill:#757575;" d="M58.93,79.22c-1.81-0.88-5.84-2.25-12.56-1.7c-1.27,0.1-2.75,0.27-4.36,0.47V80
				c1.67-0.21,3.21-0.38,4.52-0.49c8.56-0.71,12.32,1.95,12.36,1.97l0.05-0.06C58.94,80.73,58.94,80,58.93,79.22z"/>
		</g>
		<g>
			<path style="fill:#757575;" d="M36.18,64.4c-6.82,1.02-14.05,2.31-17.04,2.86c0,0.69,0,1.36,0,2.03
				c2.68-0.49,10.05-1.81,17.04-2.87V64.4z"/>
			<path style="fill:#757575;" d="M58.91,64.74c-1.88-0.88-5.87-2.18-12.43-1.64c-1.68,0.14-3.73,0.38-5.95,0.68v2.02
				c2.29-0.31,4.4-0.56,6.12-0.7c7.88-0.65,11.69,1.54,12.27,1.91C58.91,66.27,58.91,65.51,58.91,64.74z"/>
		</g>
	</g>
	<g style="opacity:0.5;">
		<g>
			<path style="fill:#757575;" d="M88.41,29.71c8.28,1.1,19.1,3.06,22.04,3.59c0-0.74,0-1.41-0.01-2.03
				c-3.44-0.63-13.97-2.51-22.04-3.58V29.71z"/>
			<path style="fill:#757575;" d="M84.06,27.19c-0.43-0.04-0.84-0.08-1.23-0.11c-6.27-0.52-10.19,0.65-12.16,1.52
				c0,0.65,0.01,1.4,0.01,2.22c1.12-0.62,4.91-2.33,11.99-1.75c0.44,0.04,0.91,0.08,1.39,0.13V27.19z"/>
		</g>
		<g>
			<path style="fill:#757575;" d="M102.36,39.08c3.67,0.63,6.71,1.17,8.1,1.43c0-0.7,0-1.37,0-2.03c-1.57-0.29-4.55-0.82-8.1-1.42
				V39.08z"/>
			<path style="fill:#757575;" d="M98.02,36.33c-5.41-0.87-11.25-1.73-15.13-2.05c-6.3-0.52-10.23,0.66-12.2,1.53
				c0,0.72,0,1.46,0,2.23c1.06-0.6,4.85-2.36,12.03-1.77c3.91,0.32,9.84,1.2,15.29,2.08V36.33z"/>
		</g>
		<path style="fill:#757575;" d="M97.18,43.39v2.02c5.81,0.93,11.22,1.91,13.28,2.29c0-0.69,0-1.36,0-2.03
			C108.13,45.25,102.82,44.3,97.18,43.39z"/>
		<g>
			<path style="fill:#757575;" d="M88.4,49.3c-2.01-0.26-3.87-0.48-5.41-0.6c-6.41-0.53-10.37,0.7-12.3,1.58c0,0.75,0,1.5,0,2.25
				c0.9-0.53,4.71-2.45,12.14-1.84c1.58,0.13,3.5,0.35,5.57,0.63V49.3z"/>
			<path style="fill:#757575;" d="M92.75,49.91v2.02c7.25,1.08,15.06,2.49,17.7,2.97c0-0.68,0-1.36,0-2.03
				C107.47,52.32,99.82,50.96,92.75,49.91z"/>
		</g>
		<g>
			<path style="fill:#757575;" d="M93.63,57.24c-3.95-0.6-7.78-1.11-10.58-1.34c-6.48-0.53-10.46,0.73-12.36,1.61
				c0,0.75,0,1.51,0,2.26c0.76-0.47,4.57-2.5,12.2-1.87c2.83,0.23,6.74,0.76,10.75,1.37V57.24z"/>
			<path style="fill:#757575;" d="M97.97,57.92v2.03c5.44,0.88,10.42,1.78,12.47,2.15c0-0.67,0-1.35,0-2.03
				C108.16,59.65,103.26,58.77,97.97,57.92z"/>
		</g>
		<path style="fill:#757575;" d="M105.04,66.3v2.03c2.36,0.41,4.29,0.76,5.39,0.96c0-0.67,0-1.35,0-2.03
			C109.23,67.04,107.33,66.7,105.04,66.3z"/>
		<g>
			<path style="fill:#757575;" d="M89.29,71.01c-2.29-0.31-4.41-0.56-6.13-0.7c-6.64-0.55-10.65,0.79-12.49,1.67
				c0,0.78,0,1.54,0,2.28c0.21-0.15,3.99-2.65,12.34-1.96c1.76,0.14,3.94,0.4,6.3,0.72V71.01z"/>
			<path style="fill:#757575;" d="M93.63,71.63v2.02c6.88,1.04,14.1,2.34,16.8,2.83c0-0.66,0-1.34,0-2.03
				C107.43,73.91,100.35,72.65,93.63,71.63z"/>
		</g>
		<g>
			<path style="fill:#757575;" d="M97.18,79.38c-5.07-0.81-10.37-1.57-13.97-1.87c-6.73-0.55-10.75,0.83-12.56,1.7
				c0,0.78,0,1.51,0,2.2l0.05,0.06c0.03-0.02,3.79-2.68,12.36-1.97c3.63,0.3,9.02,1.08,14.14,1.9V79.38z"/>
			<path style="fill:#757575;" d="M101.53,80.1v2.03c3.89,0.65,7.21,1.25,8.89,1.56c0-0.61,0-1.29,0-2.03
				C108.59,81.32,105.31,80.73,101.53,80.1z"/>
		</g>
		<g>
			<path style="fill:#757575;" d="M82.93,63.09c-6.46-0.51-10.4,0.78-12.26,1.65c0,0.76,0,1.52,0,2.27
				c0.58-0.37,4.38-2.56,12.26-1.91V63.09z"/>
			<path style="fill:#757575;" d="M87.28,63.55v2.01c4.12,0.52,9.07,1.3,13.42,2.02v-2.03C96.32,64.83,91.37,64.06,87.28,63.55z"/>
		</g>
		<g>
			<path style="fill:#757575;" d="M79.72,41.37c-4.48,0.03-7.43,0.95-9.02,1.67c0,0.74,0,1.48,0,2.24c0.84-0.48,3.71-1.87,9.02-1.92
				V41.37z"/>
			<path style="fill:#757575;" d="M84.06,41.59v2.01c2.49,0.25,5.58,0.67,8.77,1.14v-2.02C89.63,42.24,86.55,41.83,84.06,41.59z"/>
		</g>
	</g>
	<path style="fill:#616161;" d="M71.16,98.45c-1.12-0.1-2.15,0.59-2.51,1.66c-0.54,1.63-1.8,3.76-4.65,3.76
		c-2.88,0-4.15-2.14-4.7-3.77c-0.36-1.05-1.37-1.73-2.48-1.64l-0.39,0.03l0.01,0.32c0,4.17,3.38,7.55,7.55,7.55
		c4.17,0,7.55-3.38,7.55-7.55c0-0.1-0.01-0.33-0.01-0.33L71.16,98.45z"/>
</g>
</svg>
