<svg xmlns="http://www.w3.org/2000/svg" viewBox="0 0 64 64" enable-background="new 0 0 64 64"><path d="M55,35.1l7.5,7.4L29.2,58.4c0,0-4.4,2-6.5-1.2C14.5,44.4,55,35.1,55,35.1z" fill="#547725"/><path d="m28.4 49.1c0 0-6.4 2.2-5.2 6.5 1.2 4.4 6.3 1.7 6.3 1.7l31.6-14.7c0 0-1.8-4.7 1.4-7.8l-34.1 14.3" fill="#d9e3e8"/><path fill="#83bf4f" d="m33.7 5l30.3 29.5-35.8 14-23-35.8z"/><path fill="#fff" d="m34.6 11.7l5.8 6.2-21.7 7.8-5.1-7.9z"/><g fill="#94989b"><path d="m61 38l-21.1 8.6 20.8-9.5z"/><path d="m60.7 40.6l-22.5 9.3 22.1-10.3z"/><path d="M60.9 42 32.2 54.5 60.5 41.1z"/></g><path d="m22.7 57.2c-3.5-7.3 5.5-8.6 5.5-8.6l-23-35.9c0 0-5.2-.1-5.2 5.3 0 2.2 1 3.9 1 3.9l21.7 35.3" fill="#699635"/></svg>