<svg xmlns="http://www.w3.org/2000/svg" viewBox="0 0 64 64" enable-background="new 0 0 64 64"><path d="m.7 61.8c-1.2 1.2-.8 2.2.9 2.2h59.3c1.7 0 3.1-1.4 3.1-3.1v-59.3c0-1.7-1-2.1-2.2-.9l-61.1 61.1m49.1-15c0 1.7-1.4 3.1-3.1 3.1h-11c-1.7 0-2.1-1-.9-2.2l12.8-12.8c1.2-1.2 2.2-.8 2.2.9v11" fill="#ffce31"/><g fill="#89664c"><path d="m2.4 61.3h1v2.7h-1z"/><path d="m5.3 61.3h1v2.7h-1z"/><path d="m8.3 61.3h1v2.7h-1z"/><path d="m11.3 59h1v5h-1z"/><path d="m14.4 61.3h1v2.7h-1z"/><path d="m17.4 61.3h1v2.7h-1z"/><path d="m20.4 61.3h1v2.7h-1z"/><path d="m23.4 59h1v5h-1z"/><path d="m26.5 61.3h1v2.7h-1z"/><path d="m29.5 61.3h1v2.7h-1z"/><path d="m32.5 61.3h1v2.7h-1z"/><path d="m35.4 59h1v5h-1z"/><path d="m38.6 61.3h1v2.7h-1z"/><path d="m41.5 61.3h1v2.7h-1z"/><path d="m44.5 61.3h1v2.7h-1z"/><path d="m47.5 59h1v5h-1z"/><path d="m50.6 61.3h1v2.7h-1z"/><path d="m53.6 61.3h1v2.7h-1z"/><path d="m56.6 61.3h1v2.7h-1z"/><path d="m59.6 59h1v5h-1z"/></g></svg>