<?xml version="1.0" encoding="utf-8"?>
<!-- Generator: Adobe Illustrator 25.2.3, SVG Export Plug-In . SVG Version: 6.00 Build 0)  -->
<svg version="1.1" id="Layer_4" xmlns="http://www.w3.org/2000/svg" xmlns:xlink="http://www.w3.org/1999/xlink" x="0px" y="0px"
	 viewBox="0 0 128 128" style="enable-background:new 0 0 128 128;" xml:space="preserve">
<g>
	<polygon style="fill:#A15D38;" points="118.53,102.36 9.47,102.36 21.47,68.15 106.53,68.15 	"/>
	<polygon style="fill:#4E342E;" points="122.12,120.29 122.12,89.46 106.92,47.88 21.08,47.88 5.88,89.46 5.88,120.29 23.46,70.08 
		104.54,70.08 	"/>
	<path style="fill:#F29657;" d="M99.5,86.45c-6.33,0-4.93,11.47-17.1,11.47H43.3c-8.36,0-9.73-11.47-14.41-11.47
		c-3.69,0-23.89,0-23.89,0v35.09C5,122.9,6.1,124,7.46,124h113.07c1.36,0,2.47-1.1,2.47-2.47V86.45
		C123,86.45,102.73,86.45,99.5,86.45z"/>
	<path style="fill:#FFCC80;" d="M122.87,85.94l-13.76-38.7c-0.34-1.02-1.3-1.7-2.37-1.7H21.26c-1.07,0-2.03,0.68-2.37,1.7
		L5.13,85.94c-0.41,1.21,0.49,2.47,1.77,2.47h20.92c1.51,0,2.88,0.85,3.56,2.2c1.68,3.33,5.67,9.27,12.88,9.27
		c4.95,0,34.55,0,39.5,0c7.2,0,11.2-5.94,12.88-9.27c0.68-1.35,2.05-2.2,3.56-2.2h20.92C122.38,88.41,123.28,87.15,122.87,85.94z
		 M115.48,84.43h-15.3c-3.02,0-5.75,1.68-7.11,4.4c-1.33,2.64-4.31,7.08-9.32,7.08h-39.5c-5.01,0-7.99-4.43-9.32-7.08
		c-1.36-2.71-4.09-4.4-7.11-4.4h-15.3c-1.31,0-2.23-1.29-1.81-2.53l11.08-30.76c0.33-0.96,1.23-1.61,2.24-1.61h79.95
		c1.02,0,1.92,0.65,2.24,1.61L117.3,81.9C117.72,83.14,116.79,84.43,115.48,84.43z"/>
	<path style="fill:#F44336;" d="M76.63,28.62V4.9c0-0.5-0.4-0.9-0.9-0.9H64H52.27c-0.5,0-0.9,0.4-0.9,0.9v23.72
		c0,0.5-0.4,0.9-0.9,0.9l-12.11-0.03c-0.76,0-1.18,0.89-0.69,1.48l25.64,30.74c0.36,0.43,1.02,0.43,1.38,0l25.64-30.74
		c0.49-0.59,0.07-1.48-0.69-1.48l-12.11,0.03C77.04,29.52,76.63,29.12,76.63,28.62z"/>
</g>
</svg>
