<svg xmlns="http://www.w3.org/2000/svg" viewBox="0 0 64 64" enable-background="new 0 0 64 64"><path fill="#b0bdc6" d="m38 64l-8.8-1.2v-49h8.8z"/><path fill="#7d8b91" d="m44.3 13.8h-6.3v50.2l6.3-6.1z"/><path d="M46.8,0c-8.2,0-35.6,9.5-35.6,9.5l24.6,40.4l28.3-17V17C64,6.3,57.6,0,46.8,0z" fill="#333"/><path d="M17.2,8.5C6.4,8.5,0,16,0,26.8v17l35.7,6.1V29.2C35.7,18.4,28.1,8.5,17.2,8.5z" fill="#697277"/><path fill="#94989b" d="M35.7 49.9 0 43.8 35.7 27.4z"/><path fill="#ed4c5c" d="m62.7 14.2l-26 12.4v3.3l19.2-9.6v9.9l6.8-3.8z"/></svg>