<svg xmlns="http://www.w3.org/2000/svg" viewBox="0 0 64 64" enable-background="new 0 0 64 64"><path fill="#89664c" d="m24.9 39v12.4l-24.9 12.6v-16.5z"/><path fill="#b77e58" d="m24.9 39h39.1v12.3h-39.1z"/><path fill="#f2bc97" d="M24.9 51.4 0 64 53.5 64 64 51.4z"/><path d="M35.4,47.5c0,0-0.3,7-1.7,8.3c-2.7,2.6-11.1,2.6-13.9,0c-1.4-1.3-1.7-8.3-1.7-8.3H0V64h53.5V47.5H35.4z" fill="#d3976e"/><path fill="#89664c" d="M64 51.4 53.5 64 53.5 47.5 64 39z"/><path d="m37.9 0l2.4 5.5c0 0-9.1 5.3-11 17.5-1.7 11.3 2.5 19 2.5 19l1.2.8c0 0-1.4-8.9 3.5-16.8 3-4.8 7.1-7.9 8.5-8.8l2 4.7 1.5 1.5 11.5-19.4-1.5-1.5-20.6-2.5" fill="#881a0e"/><path d="m33.2 42.9c0 0-.1-7 4-15.4 3.4-6.9 9.1-9.7 9.1-9.7l2.5 5.7 11.2-19.5-20.6-2.5 2.4 5.5c0 0-9.1 5.3-11 17.5-1.6 11.3 2.4 18.4 2.4 18.4" fill="#ed4c5c"/></svg>