<?xml version="1.0" encoding="utf-8"?>
<!-- Generator: Adobe Illustrator 25.2.3, SVG Export Plug-In . SVG Version: 6.00 Build 0)  -->
<svg version="1.1" id="Layer_4" xmlns="http://www.w3.org/2000/svg" xmlns:xlink="http://www.w3.org/1999/xlink" x="0px" y="0px"
	 viewBox="0 0 128 128" style="enable-background:new 0 0 128 128;" xml:space="preserve">
<g>
	<g>
		<rect x="63.13" y="84.17" style="fill:#C87D5E;" width="18.31" height="39.83"/>
		<path style="fill:#874D36;" d="M81.45,94.23c-1.64-2.66-3.81-4.93-6.55-6.41c-1.7-0.92-3.58-1.45-5.49-1.64h-3.19
			c-1.04,0.1-2.08,0.3-3.08,0.6v20.13c0.89-1.36,2.37-2.34,3.97-2.72c2.79-0.65,5.75,0.42,8.01,2.17c2.26,1.75,3.95,4.13,5.6,6.46
			c0.25,0.35,0.49,0.69,0.74,1.04V94.23z"/>
		<g>
			<path style="fill:#1976D2;" d="M97.55,25.09H28.94c0,0,23.58,2.89,23.58,22.78l0.12,50.48h66.52c2.67,0,4.83-2.16,4.83-4.83
				V51.54C124,36.93,112.16,25.09,97.55,25.09z"/>
		</g>
		<ellipse style="fill:#0D47A1;" cx="74.21" cy="54.06" rx="8.14" ry="9.16"/>
		<path style="fill:#0D47A1;" d="M107.81,50.04l-37.63,0.03v8.17h28.25v14.08c0,3.25,1.41,3.63,7.55,3.63
			c6.14,0,7.94-0.38,7.94-3.63V56.15C113.91,52.78,111.18,50.04,107.81,50.04z"/>
		<path style="fill:#C62828;" d="M110.44,46.87L72.81,46.9v8.17h28.25v14.08c0,3.25,1.41,3.63,7.55,3.63c6.14,0,7.94-0.38,7.94-3.63
			V52.98C116.55,49.61,113.81,46.87,110.44,46.87z"/>
		<path style="fill:#F44336;" d="M112.76,46.87L71.2,46.9v8.17h32.18v14.08c0,3.25,1.41,3.63,7.55,3.63c6.14,0,7.94-0.38,7.94-3.63
			V52.98C118.86,49.61,116.13,46.87,112.76,46.87z"/>
		<path style="fill:#FF7555;" d="M111.98,52.15c-1.99-0.07-20.01-1.37-23.39-1.6c-4.09-0.28-4.51-2.64-0.79-2.64h24.37
			C116.1,47.91,116.31,52.3,111.98,52.15z"/>
		<path style="fill:#82AEC0;" d="M72.81,42.44l0.07,18.31c0,0-1.36,0-3.55,0c-4.05,0-7.33-4.1-7.33-9.16s3.28-9.16,7.33-9.16
			C73.37,42.44,72.81,42.44,72.81,42.44z"/>
		<ellipse style="fill:#E0E0E0;" cx="73.4" cy="51.59" rx="7.33" ry="9.16"/>
		<path style="fill:#FFFFFF;" d="M69.02,51.86c0.44,0.22,0.97-0.02,1.35-0.34c1.16-0.97,1.6-2.57,2.67-3.63
			c0.94-0.94,2.37-1.86,1.25-3.25c-0.81-1-2.2-0.88-3.25-0.37C68.55,45.46,66.79,50.74,69.02,51.86z"/>
		<path style="fill:#4FC3F7;" d="M26.17,25.09L25.7,98.33l28.51,0.01c1.17,0,2.13-0.95,2.13-2.13V47.86
			c0-12.29-7.66-22.3-21.15-22.76C34.87,25.09,26.5,25.09,26.17,25.09z"/>
		<g>
			<path style="fill:#1976D2;" d="M26.12,25.09C10.35,25.09,4,34.8,4,47.86v47.89c0,1.42,1.15,2.58,2.58,2.58l42.57,0.01
				c1.17,0,2.13-0.95,2.13-2.13V47.86C51.27,34.8,41.89,25.09,26.12,25.09z"/>
		</g>
		<path style="fill:#0D47A1;" d="M33.19,46.01H22.31c-1.16,0-2.09-0.94-2.09-2.09v-6.65h15.07v6.65
			C35.28,45.07,34.35,46.01,33.19,46.01z"/>
		<path style="fill:#4FC3F7;" d="M34.54,36.05H18.82c-1.04,0-2.51,0.6-2.51,2.44v3.02c0,1.04,0.85,1.89,1.89,1.89h11.13
			c1.04,0,1.89-0.85,1.89-1.89v-0.75c0-1.01,0.82-1.83,1.83-1.83h1.5c0.46,0,0.83-0.37,0.83-0.83v-1.22
			C35.38,36.43,35,36.05,34.54,36.05z"/>
		<path style="opacity:0.57;fill:#FFFFFF;" d="M30.38,37.77c-0.17,0.29-0.47,0.49-0.8,0.49H17.33c0,0,0.09-1.63,1.47-1.63h12.48
			c0.11,0,0.15,0.15,0.06,0.21C30.81,37.2,30.53,37.52,30.38,37.77z"/>
	</g>
</g>
</svg>
