<svg xmlns="http://www.w3.org/2000/svg" viewBox="0 0 64 64" enable-background="new 0 0 64 64"><path d="m56.7 0h-47c0 0-.1 0-.1 0-4.7 0-9.6 7-9.6 26v32 6h4.3v-6h38.4v6h4.3l3.1-1.4v-6l6.7-3.1v3.9h4.3l3.1-1.4v-6-.1-29.9c-.2-10.9-2.9-19.8-7.5-20" fill="#c94747"/><path fill="#ed4c5c" d="m9.7 0h46.9v32h-46.9z"/><path fill="#881a0e" d="m56.7 50.8h4.3v6.6h-4.3z"/><g fill="#ed4c5c"><path d="M17.1,20L0,26C0,7,4.9,0,9.6,0S17.1,9,17.1,20z"/><path d="M17.1 50 0 58 0 26 17.1 20z"/></g><g fill="#c94747"><path d="m64 50l-17.1 8v-32l17.1-6z"/><path d="m50 62.6l-3.1 1.4v-6l3.1-1.4z"/><path d="m64 55.9l-3.1 1.5v-6l3.1-1.5z"/></g><path fill="#ed4c5c" d="m0 26v32 6h4.3v-6h38.4v6h4.2v-6-32z"/><path d="m42.7 32.9c0-2.2-1.9-4-4.3-4h-29.9c-2.3 0-4.3 1.8-4.3 4v18.2c0 2.2 1.9 4 4.3 4h29.9c2.3 0 4.3-1.8 4.3-4v-18.2" fill="#c94747"/><path d="m41.4 34.2c0-2.2-1.9-4-4.3-4h-27.4c-2.3 0-4.3 1.8-4.3 4v15.6c0 2.2 1.9 4 4.3 4h27.4c2.3 0 4.3-1.8 4.3-4v-15.6" fill="#ed4c5c"/><g fill="#fff"><path d="m14.6 37.7h2.8v8.6h-1.8v-5.8c0-.2 0-.4 0-.7s0-.5 0-.7l-1.7 7.2h-1.9l-1.7-7.2c0 .2 0 .4 0 .7s0 .5 0 .7v5.8h-1.8v-8.6h2.8l1.7 6.8 1.6-6.8"/><path d="m21.8 37.7h2.2l3.3 8.6h-2.1l-.6-1.8h-3.4l-.6 1.8h-2l3.2-8.6m-.1 5.4h2.3l-1.2-3.4-1.1 3.4"/><path d="m30.1 46.3h-1.9v-8.6h1.9v8.6"/><path d="M32,37.7h1.9v7.1h4.6v1.6H32V37.7z"/></g><path fill="#881a0e" d="m43.7 19.1h-25.3l-12.5 3.4h37.8z"/><path fill="#af2b2b" d="m12.9 3.5h39.5v15.6h-39.5z"/><path d="m59.7 20l-17.1 6c0-19 4.9-26 9.6-26s7.5 9 7.5 20" fill="#ed4c5c"/><g fill="#c94747"><path d="m18.4 19.1l-12.5 3.4c0-13.9 3.6-19 7-19 3.5 0 5.5 7.5 5.5 15.6"/><path d="M64,20l-17.1,6c0-19,4.9-26,9.6-26S64,9,64,20z"/></g></svg>