<?xml version="1.0" encoding="utf-8"?>
<!-- Generator: Adobe Illustrator 24.0.3, SVG Export Plug-In . SVG Version: 6.00 Build 0)  -->
<svg version="1.1" id="Layer_1" xmlns="http://www.w3.org/2000/svg" xmlns:xlink="http://www.w3.org/1999/xlink" x="0px" y="0px"
	 viewBox="0 0 128 128" style="enable-background:new 0 0 128 128;" xml:space="preserve">
<g>
	
		<rect x="93.21" y="51.05" transform="matrix(0.1065 -0.9943 0.9943 0.1065 44.1743 153.2492)" style="fill:#504F4F;" width="28.28" height="2"/>
</g>
<circle style="fill:#504F4F;" cx="41.84" cy="64" r="21.84"/>
<radialGradient id="SVGID_1_" cx="88" cy="75.167" r="21.412" gradientTransform="matrix(-1 0 0 -1 129.8368 128)" gradientUnits="userSpaceOnUse">
	<stop  offset="0" style="stop-color:#EEEEEE"/>
	<stop  offset="1" style="stop-color:#BDBDBD"/>
</radialGradient>
<circle style="fill:url(#SVGID_1_);" cx="41.84" cy="64" r="10"/>
<circle style="opacity:0.2;fill:none;stroke:#EEEEEE;stroke-width:0.9412;stroke-miterlimit:10;enable-background:new    ;" cx="41.84" cy="64" r="18"/>
<circle style="opacity:0.2;fill:none;stroke:#EEEEEE;stroke-miterlimit:10;enable-background:new    ;" cx="41.84" cy="64" r="14.62"/>
<circle style="fill:#504F4F;" cx="89.84" cy="64" r="17.15"/>
<radialGradient id="SVGID_2_" cx="39.667" cy="74.667" r="21.006" gradientTransform="matrix(-1 0 0 -1 129.8368 128)" gradientUnits="userSpaceOnUse">
	<stop  offset="0" style="stop-color:#EEEEEE"/>
	<stop  offset="1" style="stop-color:#BDBDBD"/>
</radialGradient>
<circle style="fill:url(#SVGID_2_);" cx="89.84" cy="64" r="10"/>
<circle style="opacity:0.2;fill:none;stroke:#EEEEEE;stroke-miterlimit:10;enable-background:new    ;" cx="89.84" cy="64" r="13.53"/>
<path style="fill:#595858;" d="M4,32v64c0,2.21,1.79,4,4,4h112c2.21,0,4-1.79,4-4V32c0-2.21-1.79-4-4-4H8C5.79,28,4,29.79,4,32z
	 M40,78c0,1.1-0.9,2-2,2H20c-2.21,0-8-7.16-8-16s5.79-16,8-16h18c1.1,0,2,0.9,2,2V78z M108,80H90c-1.1,0-2-0.9-2-2V50
	c0-1.1,0.9-2,2-2h18c2.21,0,8,7.16,8,16S110.21,80,108,80z"/>
<rect x="11.85" y="38.15" style="fill:#787676;" width="104" height="2"/>
<rect x="11.85" y="42.15" style="fill:#787676;" width="104" height="2"/>
<rect x="12" y="88" style="fill:#787676;" width="104" height="2"/>
<rect x="12" y="92" style="fill:#787676;" width="104" height="2"/>
<rect x="12" y="84" style="fill:#787676;" width="104" height="2"/>
<g style="opacity:0.2;">
	<path style="fill:#424242;" d="M82,48c1.1,0,2,0.9,2,2v28c0,1.1-0.9,2-2,2H46c-1.1,0-2-0.9-2-2V50c0-1.1,0.9-2,2-2H82 M82,46H46
		c-2.21,0-4,1.79-4,4v28c0,2.21,1.79,4,4,4h36c2.21,0,4-1.79,4-4V50C86,47.79,84.21,46,82,46z"/>
</g>
<radialGradient id="SVGID_3_" cx="63.5" cy="79.5" r="21.844" gradientTransform="matrix(1 0 0 -1 0 128)" gradientUnits="userSpaceOnUse">
	<stop  offset="0" style="stop-color:#EF5350"/>
	<stop  offset="1" style="stop-color:#E53935"/>
</radialGradient>
<path style="fill:url(#SVGID_3_);" d="M84,50c0-1.1-0.9-2-2-2H46c-1.1,0-2,0.9-2,2v6h40V50z"/>
<radialGradient id="SVGID_4_" cx="63.333" cy="72.833" r="28.404" gradientTransform="matrix(1 0 0 -1 0 128)" gradientUnits="userSpaceOnUse">
	<stop  offset="0" style="stop-color:#FAFAFA"/>
	<stop  offset="1" style="stop-color:#EEEEEE"/>
</radialGradient>
<path style="fill:url(#SVGID_4_);" d="M44,56v22c0,1.1,0.9,2,2,2h36c1.1,0,2-0.9,2-2V56H44z"/>
<path style="fill:#BDBDBD;" d="M77,66H51c-0.55,0-1-0.45-1-1v-2c0-0.55,0.45-1,1-1h26c0.55,0,1,0.45,1,1v2C78,65.55,77.55,66,77,66z
	"/>
<path style="fill:#BDBDBD;" d="M77,74H51c-0.55,0-1-0.45-1-1v-2c0-0.55,0.45-1,1-1h26c0.55,0,1,0.45,1,1v2C78,73.55,77.55,74,77,74z
	"/>
<path style="fill:#424242;" d="M64,28H7.89C5.74,28,4,29.74,4,31.89v12.26h4.73l0.06-8h110.54l-0.06,8H124V31.88
	c0-2.14-1.74-3.88-3.88-3.88H64z"/>
</svg>
