<?xml version="1.0" encoding="utf-8"?>
<!-- Generator: Adobe Illustrator 25.2.3, SVG Export Plug-In . SVG Version: 6.00 Build 0)  -->
<svg version="1.1" id="Layer_2" xmlns="http://www.w3.org/2000/svg" xmlns:xlink="http://www.w3.org/1999/xlink" x="0px" y="0px"
	 viewBox="0 0 128 128" style="enable-background:new 0 0 128 128;" xml:space="preserve">
<path style="fill:#F17900;" d="M78.42,43.31l-30.7,0.08l-5,19.62l5,2.54c0,0-0.24-4.42,1.98-8.66c2.22-4.24,6.63-8.37,14.36-8.25
	c15.08,0.23,15.68,17.13,15.68,17.13s9.99-6.6,8.53-8.45C86.8,55.47,78.42,43.31,78.42,43.31z"/>
<path style="fill:#F17900;" d="M35.25,61.01c0,0-1.32,9.52,3.92,18.39c3.85,6.51,11.08,13.3,24.08,13.54
	c12.16,0.23,20.89-6.15,24.93-13.47c4.71-8.54,3.85-17.93,3.85-17.93S81.42,74.4,80.65,75.32c-0.77,0.92-16.16,8.77-16.16,8.77
	s-12.77-0.38-13.7-2.69C49.87,79.09,35.25,61.01,35.25,61.01z"/>
<path style="fill:#FFA624;" d="M64.05,35.46C42.51,35.35,34.87,52.8,35.09,63.32c0.25,11.88,8.04,26.74,28.35,26.74
	c20.18,0,28.47-15.97,28.72-27.98C92.3,54.9,86.95,35.59,64.05,35.46z M79.65,65.17c-0.5,9.66-8.42,14.98-16.34,14.98
	c-7.8,0-15.47-6.19-15.6-16.34c-0.14-11.27,6.81-17.74,16.34-17.45C76.31,46.73,80.11,56.27,79.65,65.17z"/>
<path style="fill:#F17900;" d="M58.03,20.71c0,0-1.22,8.08,6.17,8.16c7.21,0.07,6.44-7.11,6.44-7.11l-3.75-7.66L58.03,20.71z"/>
<path style="fill:#F17900;" d="M109.14,21.09c0,0,3.29,4.34-1.35,9.09c-3.22,3.29-9.16,8.77-10.51,9.98
	c-2.13,1.9-5.92,2.07-8.56-0.27c-3.49-3.09-1.11-7.68-1.11-7.68L109.14,21.09z"/>
<path style="fill:#F17900;" d="M99.5,63.19c-0.14,2.26,0.26,7,4.89,7.31c4.53,0.31,14.45,0.45,16.41,0.23s4.08-2.27,4.31-5.22
	c0.21-2.79-1.08-5.06-1.38-5.14C123.43,60.29,99.5,63.19,99.5,63.19z"/>
<path style="fill:#F17900;" d="M89.16,89.48c0,0-2.89,1.9-2.84,5.32c0.05,2.94,2.41,4.9,6.87,9.28c4.46,4.39,6.43,5.82,9.53,5.98
	c3.18,0.16,5.52-2.45,5.82-4.76c0.43-3.36-0.85-4.62-0.85-4.62L89.16,89.48z"/>
<path style="fill:#F17900;" d="M57.42,118.15c0,0-0.75,7.14,5.75,7.25c6.88,0.11,6.35-7.32,6.35-7.32l-6.73-3.03L57.42,118.15z"/>
<path style="fill:#F17900;" d="M17.96,104.07c0,0-0.25,2.58,2.02,4.62c1.59,1.43,4.33,2.11,7.2,0.68c3.19-1.6,6.87-6.07,8.83-8.19
	c1.97-2.12,5.21-5.73,3.63-9.21c-1.37-3.02-2.86-2.99-2.86-2.99L17.96,104.07z"/>
<path style="fill:#F17900;" d="M2.74,62.32c0,0-1.02,7.39,3.96,7.96c5.3,0.6,14.66,0.51,17.22,0.3c3.78-0.3,4.85-4.05,4.64-8.4
	c-0.16-3.28-13.26-0.68-13.26-0.68L2.74,62.32z"/>
<path style="fill:#F17900;" d="M21.77,18.87c0,0-5.71,2.96-2.67,8.53C21.61,32,29.43,39.59,31.67,40.84
	c3.11,1.73,6.32,0.49,7.8-1.23c2.34-2.72,1.08-6.36,1.08-6.36L21.77,18.87z"/>
<radialGradient id="SVGID_1_" cx="66.6062" cy="-1.3203" r="27.9062" gradientUnits="userSpaceOnUse">
	<stop  offset="0.426" style="stop-color:#FFA624"/>
	<stop  offset="0.8158" style="stop-color:#FF8C0C"/>
</radialGradient>
<path style="fill:url(#SVGID_1_);" d="M64.38,1.75c-3.31,0-6.05,2.27-6.28,5.37c-0.23,3.1-0.16,12.72-0.11,14.17
	c0.05,1.45,2.05,4.08,6.12,4.18c5.05,0.12,6.59-3.24,6.59-3.24S70.58,9.31,70.58,7.42S69.45,1.75,64.38,1.75z"/>
<radialGradient id="SVGID_2_" cx="105.9678" cy="17.5618" r="23.984" gradientUnits="userSpaceOnUse">
	<stop  offset="0.426" style="stop-color:#FFA624"/>
	<stop  offset="0.8158" style="stop-color:#FF8C0C"/>
</radialGradient>
<path style="fill:url(#SVGID_2_);" d="M99.3,21.03c-2.24,1.89-9.64,8.01-11.42,10.63c-1.11,1.63-1.4,4.4,0.97,6.28
	c1.7,1.36,5.67,1.53,8.08-0.45s9.31-8.47,11.19-10.77c1.5-1.83,2.77-4.37-0.06-6.88C105.24,17.33,101.75,18.96,99.3,21.03z"/>
<radialGradient id="SVGID_3_" cx="122.2816" cy="63.3408" r="21.1241" gradientUnits="userSpaceOnUse">
	<stop  offset="0.3162" style="stop-color:#FFA624"/>
	<stop  offset="0.8158" style="stop-color:#FF8C0C"/>
</radialGradient>
<path style="fill:url(#SVGID_3_);" d="M104.51,58.22c-2.51,0.25-5.02,2.2-5.02,5.02s1.88,4.5,6.06,4.71c4.18,0.21,12.23,0.1,14.74,0
	c2.61-0.1,4.38-2.5,4.29-5.33c-0.1-3.35-3.24-4.29-5.96-4.39C115.9,58.11,106.6,58.01,104.51,58.22z"/>
<radialGradient id="SVGID_4_" cx="103.9149" cy="105.0651" r="18.6905" gradientUnits="userSpaceOnUse">
	<stop  offset="0.426" style="stop-color:#FFA624"/>
	<stop  offset="0.8158" style="stop-color:#FF8C0C"/>
</radialGradient>
<path style="fill:url(#SVGID_4_);" d="M89.06,89.53c-1.7,1.53-3,4.57,1.17,8.59c4.18,4.02,7.58,7.63,11.12,9.08
	c2.3,0.94,3.93,0.79,5.9-1.25c1.31-1.36,1.6-3.78,0.26-5.59c-2.66-3.6-9.51-9.83-12.32-11.33C92.73,87.73,90.67,88.07,89.06,89.53z"
	/>
<radialGradient id="SVGID_5_" cx="63.375" cy="119.8728" r="17.4903" gradientUnits="userSpaceOnUse">
	<stop  offset="0.426" style="stop-color:#FFA624"/>
	<stop  offset="0.8158" style="stop-color:#FF8C0C"/>
</radialGradient>
<path style="fill:url(#SVGID_5_);" d="M63.49,100c-3.35,0-6.02,2.55-6.13,6.53s-0.05,10.09,0,11.69c0.05,1.6,2.8,4.01,5.92,4.05
	c4.46,0.06,6.25-2.86,6.24-4.19c-0.01-1.27-0.04-9.83-0.01-11.42C69.57,103.45,67.35,100,63.49,100z"/>
<radialGradient id="SVGID_6_" cx="19.9281" cy="105.5338" r="20.7204" gradientUnits="userSpaceOnUse">
	<stop  offset="0.426" style="stop-color:#FFA624"/>
	<stop  offset="0.8158" style="stop-color:#FF8C0C"/>
</radialGradient>
<path style="fill:url(#SVGID_6_);" d="M37.65,89.34c-2.07-1.51-5.39-1.81-8.88,1.46c-3.49,3.27-8.32,8.1-9.39,9.61
	c-1.08,1.51-2.25,4.36-0.6,6.2c1.72,1.94,5.73,1.62,8.36-0.66c2.63-2.28,9.56-9.63,11.21-12.09C39.72,91.79,39.46,90.66,37.65,89.34
	z"/>
<radialGradient id="SVGID_7_" cx="2.1884" cy="63.1368" r="25.214" gradientUnits="userSpaceOnUse">
	<stop  offset="0.426" style="stop-color:#FFA624"/>
	<stop  offset="0.8158" style="stop-color:#FF8C0C"/>
</radialGradient>
<path style="fill:url(#SVGID_7_);" d="M8.4,57.82c-2.82,0.08-5.74,1.8-5.78,5.2c-0.04,3.4,2.6,4.7,5.35,4.85s13.24,0.39,15.84,0.18
	c2.6-0.22,4.46-2.06,4.75-5.02s-2.24-4.62-4.91-4.91C20.98,57.82,11,57.75,8.4,57.82z"/>
<radialGradient id="SVGID_8_" cx="24.0086" cy="21.3721" r="20.7601" gradientUnits="userSpaceOnUse">
	<stop  offset="0.426" style="stop-color:#FFA624"/>
	<stop  offset="0.8158" style="stop-color:#FF8C0C"/>
</radialGradient>
<path style="fill:url(#SVGID_8_);" d="M21.48,19.09c-1.81,1.61-2.48,4.55,0.05,7.87c3.27,4.3,8.63,9.3,10.53,10.77
	c2.24,1.73,5.42,1.74,7.41-0.65c1.6-1.92,1.81-3.9-0.94-7.3c-2.75-3.4-8.46-9.18-9.9-10.48C26.77,17.62,23.43,17.35,21.48,19.09z"/>
</svg>
