<?xml version="1.0" encoding="UTF-8" standalone="no"?><svg xmlns:dc="http://purl.org/dc/elements/1.1/" xmlns:cc="http://creativecommons.org/ns#" xmlns:rdf="http://www.w3.org/1999/02/22-rdf-syntax-ns#" xmlns:svg="http://www.w3.org/2000/svg" xmlns="http://www.w3.org/2000/svg" viewBox="0 0 45 45" style="enable-background:new 0 0 45 45;" xml:space="preserve" version="1.1" id="svg2"><metadata id="metadata8"><rdf:RDF><cc:Work rdf:about=""><dc:format>image/svg+xml</dc:format><dc:type rdf:resource="http://purl.org/dc/dcmitype/StillImage"/></cc:Work></rdf:RDF></metadata><defs id="defs6"><clipPath id="clipPath16" clipPathUnits="userSpaceOnUse"><path id="path18" d="M 0,36 36,36 36,0 0,0 0,36 Z"/></clipPath></defs><g transform="matrix(1.25,0,0,-1.25,0,45)" id="g10"><g id="g12"><g clip-path="url(#clipPath16)" id="g14"><g transform="translate(4,0)" id="g20"><path id="path22" style="fill:#3b88c3;fill-opacity:1;fill-rule:nonzero;stroke:none" d="m 0,0 c -2.209,0 -4,1.791 -4,4 l 0,28 c 0,2.209 1.791,4 4,4 l 28,0 c 2.209,0 4,-1.791 4,-4 L 32,4 C 32,1.791 30.209,0 28,0 L 0,0 Z"/></g><g transform="translate(26,5.7998)" id="g24"><path id="path26" style="fill:#ffffff;fill-opacity:1;fill-rule:nonzero;stroke:none" d="m 0,0 6,7.2 -4,0 0,8 c 0,5.523 -4.477,10 -10,10 -1.414,0 -2.758,-0.297 -3.977,-0.827 l 2.75,-3.3 c 0.396,0.083 0.806,0.127 1.227,0.127 3.314,0 6,-2.686 6,-6 l 0,-8 -4,0 L 0,0 Z"/></g><g transform="translate(21.9766,5.8262)" id="g28"><path id="path30" style="fill:#ffffff;fill-opacity:1;fill-rule:nonzero;stroke:none" d="M 0,0 -2.749,3.301 C -3.146,3.218 -3.556,3.174 -3.977,3.174 c -3.313,0 -6,2.686 -6,6 l 0,8 4,0 -6,7.2 -6,-7.2 4,0 0,-8 c 0,-5.523 4.478,-10 10,-10 1.414,0 2.758,0.297 3.977,0.826"/></g></g></g></g></svg>
