<?xml version="1.0" encoding="utf-8"?>
<!-- Generator: Adobe Illustrator 25.2.3, SVG Export Plug-In . SVG Version: 6.00 Build 0)  -->
<svg version="1.1" id="Layer_2" xmlns="http://www.w3.org/2000/svg" xmlns:xlink="http://www.w3.org/1999/xlink" x="0px" y="0px"
	 viewBox="0 0 128 128" style="enable-background:new 0 0 128 128;" xml:space="preserve">
<g>
	<path style="fill:#9E740B;" d="M107.77,15.16c-14.5-11.48-35.93-6.24-46.72,3.2c-12.08,10.56-12.42,27.25-6.13,40.88l-43.58,42.77
		c-1.77,1.74-3.59,14.19-3.5,16.64l5.9,4.12c0,0,9.99,2.99,14.34-0.41s8.17-9.56,7.72-12.33c-0.26-1.59,0.08-3.07,1.11-4.08
		c1.28-1.26,3.32-1.47,5.39-0.78c1.59,0.53,3.36,0.08,4.55-1.09l0.42-0.41c1.69-1.58,1.88-3.42,1.55-4.96
		c-0.51-2.39,0.36-4.37,1.7-6.12c1.16-1.52,3.36-2.16,5.28-2.19c3.46-0.05,5.7-0.79,8.15-3.19l6.38-6.24
		c14.36,6.4,31.97,3.51,43.4-8.68C128.39,56.65,124.64,28.52,107.77,15.16z M99.13,48.51c-4,3.92-10.48,3.92-14.48,0
		c-4-3.92-4-10.29,0-14.21c4-3.92,10.48-3.92,14.48,0C103.13,38.22,103.13,44.59,99.13,48.51z"/>
	<path style="fill:#FFCA28;" d="M107.77,15.16c-14.88-14.88-39-14.88-53.88,0c-11.39,11.39-14.05,28.18-8.01,42.11L7.83,95.08
		c-1.79,1.79-2.76,4.24-2.67,6.76l0.44,11.75c2.17,1.22,2.24,5.07,2.24,5.07l9.9,0.76c2.53,0.08,4.98-0.89,6.76-2.67l3.14-3.14
		c1.96-1.96,3.07-4.73,2.58-7.45c-0.31-1.69,0.03-3.27,1.1-4.34c1.26-1.26,3.23-1.5,5.26-0.87c1.69,0.53,3.53,0.19,4.79-1.06
		l0.43-0.43c1.71-1.63,1.9-3.52,1.57-5.1c-0.51-2.46,0.37-4.49,1.71-6.29c1.17-1.57,3.4-2.22,5.33-2.25
		c3.49-0.05,5.76-0.81,8.23-3.28l5.98-5.95c14.13,6.65,31.49,4.14,43.17-7.54C122.65,54.16,122.65,30.04,107.77,15.16z M94.17,43.38
		c-4.04,4.04-10.59,4.04-14.62,0c-4.04-4.04-4.04-10.59,0-14.62c4.04-4.04,10.59-4.04,14.62,0C98.21,32.79,98.21,39.34,94.17,43.38z
		"/>
	<path style="fill:#DBA010;" d="M5.6,113.59c0,0,1.24,0.84,2.24,5.07l47.48-48.27c1.55-1.7-5.4-0.82-7.48,1.25L5.6,113.59z"/>
	<path style="fill:#FFF59D;" d="M60.43,19.92c-3.9,2.12-8.3,7.8-9.51,16c-1.1,7.44-0.63,12.61,1.87,16.96
		c2.83,4.91,6.68,2.31,5.13-2.47c-1.02-3.15-1.28-4.34-1.42-7.68c-0.11-2.61,0.16-5.24,0.9-7.74c1.84-6.2,6.11-10.27,7.36-12.28
		C66.35,20.14,63.84,18.05,60.43,19.92z"/>
	<path style="fill:#FFF59D;" d="M33.05,79.72c-2.84,2.42,0.1-5.11,2.28-7.65c2.87-3.36,9.67-10.49,10.87-11.1
		c1.64-0.83,1.54,3.75,0.87,4.59C44.69,68.5,35.9,77.3,33.05,79.72z"/>
</g>
</svg>
