<?xml version="1.0" encoding="utf-8"?>
<!-- Generator: Adobe Illustrator 25.2.3, SVG Export Plug-In . SVG Version: 6.00 Build 0)  -->
<svg version="1.1" id="Layer_1" xmlns="http://www.w3.org/2000/svg" xmlns:xlink="http://www.w3.org/1999/xlink" x="0px" y="0px"
	 viewBox="0 0 128 128" style="enable-background:new 0 0 128 128;" xml:space="preserve">
<g>
	<path style="fill:#CC3333;" d="M64,4C30.86,4,4,30.86,4,64s26.86,60,60,60s60-26.86,60-60S97.14,4,64,4z M114,64
		c0.04,11.53-3.96,22.71-11.3,31.6L32.4,25.3C41.29,17.96,52.47,13.96,64,14C91.61,14,114,36.39,114,64z M14,64
		c-0.04-11.53,3.96-22.71,11.3-31.6l70.3,70.3c-8.89,7.34-20.07,11.34-31.6,11.3C36.39,114,14,91.61,14,64z"/>
	<circle style="fill:#F44336;" cx="60.1" cy="63.1" r="56.1"/>
	<path style="fill:#FFFFFF;" d="M95.6,102.7c-8.89,7.34-20.07,11.34-31.6,11.3c-27.61,0-50-22.39-50-50
		c-0.04-11.53,3.96-22.71,11.3-31.6l7.1-7.1C41.29,17.96,52.47,13.96,64,14c27.61,0,50,22.39,50,50c0.04,11.53-3.96,22.71-11.3,31.6
		"/>
	<path style="fill:#231F20;" d="M95.6,102.7c-8.89,7.34-20.07,11.34-31.6,11.3c-27.61,0-50-22.39-50-50
		c-0.04-11.53,3.96-22.71,11.3-31.6l7.1-7.1C41.29,17.96,52.47,13.96,64,14c27.61,0,50,22.39,50,50c0.04,11.53-3.96,22.71-11.3,31.6
		"/>
	<path style="fill:#414042;" d="M96.4,103.2c-20.49,16.74-50.66,13.7-67.4-6.79C14.59,78.78,14.59,53.44,29,35.8l6.8-6.8
		c8.53-7.03,19.25-10.85,30.3-10.8c26.45,0,47.9,21.44,47.9,47.9c0,11.04-3.82,21.75-10.8,30.3"/>
	<path style="fill:#FAFAFA;" d="M93,58.3c0.04,2.74-0.77,5.43-2.3,7.7c-1.55,2.29-3.69,4.13-6.2,5.3c2.88,1.2,5.37,3.18,7.2,5.7
		c1.79,2.47,2.74,5.45,2.7,8.5c0.19,4.56-1.68,8.97-5.1,12c-3.4,3-7.9,4.5-13.4,4.5s-10.1-1.5-13.4-4.5c-3.42-3.03-5.29-7.44-5.1-12
		c-0.01-3.03,0.89-5.99,2.6-8.5c1.79-2.55,4.25-4.55,7.1-5.8c-2.48-1.18-4.59-3.01-6.1-5.3c-1.49-2.29-2.26-4.97-2.2-7.7
		c0-4.9,1.6-8.8,4.7-11.7c3.1-2.9,7.3-4.3,12.4-4.3s9.2,1.4,12.4,4.3C91.46,49.59,93.17,53.88,93,58.3z M86.9,85.4
		c0.13-2.98-1-5.88-3.1-8c-2.18-2.07-5.1-3.18-8.1-3.1c-5.69-0.39-10.61,3.91-11,9.59c-0.03,0.47-0.03,0.94,0,1.41
		c-0.14,2.89,0.91,5.71,2.9,7.8c1.9,1.9,4.7,2.8,8.2,2.8S82,95,83.9,93C85.9,91.3,86.9,88.7,86.9,85.4z M75.8,48.4
		c-2.61-0.13-5.15,0.85-7,2.7c-1.87,1.96-2.85,4.6-2.7,7.3c-0.11,2.67,0.87,5.26,2.7,7.2c1.89,1.85,4.46,2.83,7.1,2.7
		c2.64,0.13,5.21-0.85,7.1-2.7c1.85-1.93,2.83-4.53,2.7-7.2c0.14-2.69-0.88-5.31-2.8-7.2C80.99,49.37,78.44,48.36,75.8,48.4z"/>
	<path style="fill:#FAFAFA;" d="M49.1,43l-14.3,5.4c-0.68,0.23-1.13,0.88-1.1,1.6v3.2c0,0.94,0.77,1.71,1.71,1.71
		c0.2,0,0.4-0.04,0.59-0.11l4.9-1.8c0.89-0.33,1.87,0.13,2.19,1.01c0.07,0.19,0.1,0.39,0.11,0.59v45.1c0.03,0.93,0.77,1.67,1.7,1.7
		H49c0.93-0.03,1.67-0.77,1.7-1.7V44.1c0-0.67-0.55-1.22-1.23-1.21c-0.06,0-0.12,0-0.17,0.01L49.1,43z"/>
	<path style="fill:#FAFAFA;" d="M84.6,34.7h-1.1c-0.38-0.01-0.69,0.28-0.7,0.66c0,0.01,0,0.03,0,0.04v3
		c0.01,0.38-0.28,0.69-0.66,0.7c-0.01,0-0.03,0-0.04,0h-0.5c-0.38,0.01-0.69-0.28-0.7-0.66c0-0.01,0-0.03,0-0.04V28.3
		c-0.01-0.38,0.28-0.69,0.66-0.7c0.01,0,0.03,0,0.04,0h3.3c1.11-0.07,2.2,0.25,3.1,0.9c0.74,0.66,1.14,1.61,1.1,2.6
		c0.02,0.71-0.19,1.41-0.6,2c-0.26,0.38-0.6,0.68-1,0.9c-0.3,0.24-0.42,0.64-0.3,1l2.3,4.2v0.1h-1.7c-0.28-0.03-0.53-0.17-0.7-0.4
		l-1.9-3.7C85.1,34.8,84.9,34.7,84.6,34.7z M82.8,32.3c-0.01,0.38,0.28,0.69,0.66,0.7c0.01,0,0.03,0,0.04,0h1.3
		c0.57,0.02,1.14-0.16,1.6-0.5c0.41-0.34,0.64-0.86,0.6-1.4c0.02-0.51-0.16-1.01-0.5-1.4c-0.46-0.34-1.03-0.52-1.6-0.5h-1.4
		c-0.38-0.01-0.69,0.28-0.7,0.66c0,0.01,0,0.03,0,0.04L82.8,32.3z"/>
	<path style="fill:#FAFAFA;" d="M77.3,34h-3.9c-0.21,0.01-0.39,0.19-0.4,0.4v2.7c0.01,0.21,0.19,0.39,0.4,0.4H78
		c0.21,0.01,0.39,0.19,0.4,0.4v0.8c-0.01,0.21-0.19,0.39-0.4,0.4h-6.6c-0.21-0.01-0.39-0.19-0.4-0.4V28.1
		c0.01-0.21,0.19-0.39,0.4-0.4H78c0.21,0.01,0.39,0.19,0.4,0.4v0.8c-0.01,0.21-0.19,0.39-0.4,0.4h-4.6c-0.21,0.01-0.39,0.19-0.4,0.4
		V32c0.01,0.21,0.19,0.39,0.4,0.4h3.9c0.21,0.01,0.39,0.19,0.4,0.4v0.8c0.02,0.2-0.13,0.38-0.34,0.4C77.34,34,77.32,34,77.3,34z"/>
	<path style="fill:#FAFAFA;" d="M60.5,38.7V28.1c0.01-0.21,0.19-0.39,0.4-0.4h2.9c0.95-0.03,1.88,0.22,2.7,0.7
		c0.79,0.42,1.42,1.09,1.8,1.9c0.41,0.88,0.61,1.83,0.6,2.8v0.6c0.03,0.97-0.18,1.93-0.6,2.8c-0.41,0.79-1.03,1.45-1.8,1.9
		c-0.83,0.44-1.76,0.68-2.7,0.7h-2.9C60.69,39.09,60.51,38.91,60.5,38.7z M62.5,29.7v7.4c0.01,0.21,0.19,0.39,0.4,0.4h0.9
		c0.91,0.05,1.79-0.32,2.4-1c0.62-0.8,0.9-1.8,0.8-2.8v-0.6c0.05-1-0.23-1.98-0.8-2.8c-0.58-0.66-1.42-1.03-2.3-1h-1
		C62.69,29.31,62.51,29.49,62.5,29.7z"/>
	<path style="fill:#FAFAFA;" d="M46.5,27.7c0.21,0.01,0.39,0.19,0.4,0.4v7.2c0.05,1.1-0.39,2.16-1.2,2.9
		c-0.86,0.74-1.96,1.14-3.1,1.1c-1.12,0.07-2.23-0.29-3.1-1c-0.78-0.75-1.19-1.82-1.1-2.9v-7.2c0.01-0.21,0.19-0.39,0.4-0.4H40
		c0.21,0.01,0.39,0.19,0.4,0.4v7.2c-0.05,0.63,0.17,1.25,0.6,1.7c0.46,0.42,1.08,0.63,1.7,0.6c1.15,0.13,2.18-0.69,2.31-1.84
		c0.02-0.19,0.02-0.37-0.01-0.56v-7.1c0.01-0.21,0.19-0.39,0.4-0.4C45.4,27.7,46.5,27.7,46.5,27.7z"/>
	<path style="fill:#FAFAFA;" d="M57.5,39.1h-1.3c-0.1,0-0.3-0.1-0.3-0.2l-4.2-6.7c-0.2-0.3-0.8-0.2-0.8,0.2v6.2
		c-0.01,0.21-0.19,0.39-0.4,0.4h-1.2c-0.21-0.01-0.39-0.19-0.4-0.4V28.1c0.01-0.21,0.19-0.39,0.4-0.4h1.3c0.1,0,0.3,0.1,0.3,0.2
		l4.2,6.7c0.2,0.3,0.8,0.2,0.8-0.2v-6.3c0.01-0.21,0.19-0.39,0.4-0.4h1.1c0.21,0.01,0.39,0.19,0.4,0.4v10.5
		c0.08,0.17,0.01,0.38-0.17,0.47C57.59,39.09,57.55,39.1,57.5,39.1z"/>
	<polyline style="opacity:0.8;fill:#231F20;enable-background:new    ;" points="23.4,35.6 95,102.1 97,100.2 30.6,33.4 	"/>
	<path style="fill:#F44336;" d="M103.9,96.8L25.3,18.9L18.2,26l78.6,77.9"/>
	<path style="fill:#FF8A80;" d="M45,10.9c1.7-0.4,4.2-1.6,5.9-1.1c1.09,0.3,1.75,1.4,1.5,2.5c-0.37,0.81-1.12,1.37-2,1.5
		c-3.9,0.97-7.68,2.35-11.3,4.1c-7.18,3.78-13.38,9.19-18.1,15.8c-1.9,2.7-3.4,5.5-5.8,7.8c-0.21,0.23-0.49,0.37-0.8,0.4
		c-0.17,0.03-0.35-0.01-0.5-0.1c-1.2-0.5-1.4-1.1-1.2-2.3c0.18-1.01,0.52-1.99,1-2.9c1.01-1.76,2.11-3.46,3.3-5.1
		c1.89-2.91,4.11-5.59,6.6-8C30.4,17.2,39.2,12.4,45,10.9z"/>
	<polygon style="fill:#CC3333;" points="32.4,25.3 30.4,27.3 101.5,98.4 103.3,96.2 	"/>
</g>
</svg>
