<?xml version="1.0" encoding="utf-8"?>
<!-- Generator: Adobe Illustrator 25.2.3, SVG Export Plug-In . SVG Version: 6.00 Build 0)  -->
<svg version="1.1" id="Layer_1" xmlns="http://www.w3.org/2000/svg" xmlns:xlink="http://www.w3.org/1999/xlink" x="0px" y="0px"
	 viewBox="0 0 128 128" style="enable-background:new 0 0 128 128;" xml:space="preserve">
<g>
	<g>
		<path style="fill:#427687;" d="M116,4H12c-4.4,0-8,3.6-8,8v104c0,4.4,3.6,8,8,8h104c4.4,0,8-3.6,8-8V12C124,7.6,120.4,4,116,4z"/>
	</g>
	<g>
		<g>
			<path style="fill:#8CAFBF;" d="M109.7,4H11.5C7.4,4,4,7.4,4,11.5v97.9c0,4.2,3.4,7.5,7.5,7.5h98.1c4.2,0,7.5-3.4,7.5-7.5V11.5
				C117.3,7.4,113.8,4,109.7,4z"/>
		</g>
	</g>
</g>
<g>
	<path style="opacity:0.5;fill:#B4E1ED;enable-background:new    ;" d="M39.7,12.9c0-2.3-1.6-3-10.8-2.7c-7.7,0.3-11.5,1.2-13.8,4
		s-2.9,8.5-3,15.3c0,4.8,0,9.3,2.5,9.3c3.4,0,3.4-7.9,6.2-12.3C26.2,17.8,39.7,15.9,39.7,12.9z"/>
</g>
<path style="fill:#FAFAFA;" d="M47.4,71l-24-24c-1.8-1.6-1.8-4.4,0-6l24-24c2.6-2.3,6.6-0.4,6.6,3v14c0,1.1,0.9,2,2,2h46
	c2.2,0,4,1.8,4,4v8c0,2.2-1.8,4-4,4H56c-1.1,0-2,0.9-2,2v14C54,71.4,50,73.3,47.4,71z"/>
<g>
	<path style="fill:#FAFAFA;" d="M14,110.9V85.4c0-0.6,0.5-1,1-1h8.4c3.1,0,5.5,0.6,7.1,1.9c1.6,1.2,2.4,3.1,2.4,5.6
		c0,1.3-0.3,2.4-1,3.4s-1.7,1.8-3,2.3c1.5,0.4,2.6,1.2,3.4,2.3c0.8,1.1,1.2,2.4,1.2,4c0,2.6-0.8,4.6-2.5,6s-4,2.1-7.1,2.1h-9
		C14.4,111.9,14,111.5,14,110.9z M18.8,95c0,0.6,0.5,1,1,1h3.7c1.5,0,2.6-0.3,3.5-1s1.3-1.6,1.3-2.9c0-1.4-0.4-2.3-1.2-2.9
		s-2-0.9-3.6-0.9h-3.6c-0.6,0-1,0.4-1,1L18.8,95L18.8,95z M18.8,100.5v6.6c0,0.6,0.5,1,1,1h4.3c1.5,0,2.7-0.4,3.5-1.1
		s1.3-1.8,1.3-3.1c0-2.8-1.5-4.3-4.4-4.4h-4.7C19.2,99.5,18.8,99.9,18.8,100.5z"/>
	<path style="fill:#FAFAFA;" d="M53.1,105.5h-9.2c-0.4,0-0.8,0.3-1,0.7l-1.8,5.1c-0.1,0.4-0.5,0.7-1,0.7h-2.8
		c-0.7,0-1.2-0.7-0.9-1.4L46.1,85c0.2-0.4,0.5-0.7,0.9-0.7h3c0.4,0,0.8,0.3,0.9,0.7l9.6,25.5c0.2,0.7-0.2,1.4-0.9,1.4h-2.8
		c-0.4,0-0.8-0.3-1-0.7l-1.8-5.1C53.9,105.8,53.5,105.5,53.1,105.5z M45.9,101.6H51c0.7,0,1.2-0.7,1-1.3L49.5,93
		c-0.3-0.9-1.6-0.9-1.9,0l-2.6,7.3C44.7,101,45.2,101.6,45.9,101.6z"/>
	<path style="fill:#FAFAFA;" d="M83.6,102.9c0.6,0,1.1,0.6,1,1.2c-0.4,2.4-1.5,4.2-3.1,5.7c-1.9,1.7-4.4,2.5-7.5,2.5
		c-2.2,0-4.1-0.5-5.8-1.6s-3-2.5-3.9-4.4s-1.4-4.1-1.4-6.7V97c0-2.6,0.5-4.9,1.4-6.9s2.2-3.5,4-4.6c1.7-1.1,3.7-1.6,6-1.6
		c3,0,5.5,0.8,7.3,2.5c1.6,1.4,2.6,3.3,3.1,5.8c0.1,0.6-0.4,1.2-1,1.2H81c-0.5,0-0.9-0.3-1-0.8c-0.3-1.6-0.8-2.7-1.6-3.5
		c-0.9-0.9-2.3-1.3-4.1-1.3c-2.1,0-3.7,0.8-4.8,2.3c-1.1,1.5-1.7,3.8-1.7,6.7v2.4c0,3,0.5,5.2,1.6,6.8c1.1,1.6,2.6,2.3,4.7,2.3
		c1.9,0,3.3-0.4,4.2-1.3c0.8-0.7,1.4-1.9,1.7-3.4c0.1-0.5,0.5-0.8,1-0.8C80.9,102.9,83.6,102.9,83.6,102.9z"/>
	<path style="fill:#FAFAFA;" d="M96.1,100.9l-2,2.1c-0.2,0.2-0.3,0.4-0.3,0.7v7.2c0,0.6-0.4,1-1,1H90c-0.6,0-1-0.4-1-1V85.4
		c0-0.6,0.4-1,1-1h2.8c0.6,0,1,0.4,1,1v9.1c0,0.9,1.2,1.4,1.8,0.6l0.8-1.1l7.8-9.3c0.2-0.2,0.5-0.4,0.8-0.4h3.2c0.9,0,1.3,1,0.8,1.7
		l-8.3,9.9c-0.3,0.3-0.3,0.9-0.1,1.2l9.2,13.1c0.5,0.7,0,1.6-0.8,1.6h-3.2c-0.3,0-0.6-0.2-0.8-0.4L97.7,101
		C97.3,100.5,96.6,100.5,96.1,100.9z"/>
</g>
</svg>
