<svg xmlns="http://www.w3.org/2000/svg" viewBox="0 0 64 64" enable-background="new 0 0 64 64"><path d="m43.7 23.7c-5.5-3.4-7.5-8.1-9.3-11.5-3.9-7-10.1-9.1-16.6-7.5-1.3-2.3-3.6-3.4-6-1.9-2.5 1.5-2.7 4.1-1.4 6.4-4.6 5-6 11.8-2.2 18.8 1.9 3.4 4.7 7.6 4.8 14.3.1 4.8-3.7 8 2 18.3l42.7-26c-5.6-10.3-10.1-8.5-14-10.9" fill="#b0bdc6"/><path d="m40.7 25.5c-4.9-3.8-7-8.4-8.9-11.8-3.9-7-9.4-9.6-14.7-8.7-1.3-2.3-3.3-3.6-5.3-2.4-2 1.2-2 3.7-.7 6-3.5 4.5-4.1 10.8-.3 17.9 1.9 3.4 4.6 7.6 5.3 14 .4 4.5-2.5 7.2 3.2 17.6l34.2-20.8c-5.7-10.4-9.3-9.1-12.8-11.8" fill="#d9e3e8"/><path d="m57.7 34.7c1.8 3.3-6.2 11.9-18 19-11.8 7.2-22.8 10.3-24.7 7-1.8-3.3 6.2-11.9 18-19 11.9-7.2 22.9-10.3 24.7-7" fill="#7d888e"/><path d="m56.6 35.7c1.7 3-6 10.9-17.1 17.7-11.1 6.7-21.4 9.8-23.1 6.7-1.7-3 6-10.9 17.1-17.7 11.1-6.7 21.5-9.7 23.1-6.7" fill="#5a666b"/><path d="m17.7 55.7c4.4-.5 11.5-3.3 18.9-7.8s13.3-9.6 15.9-13.3c-4.4.4-11.5 3.3-19 7.8-7.4 4.5-13.3 9.6-15.8 13.3" fill="#383f42"/><g fill="#b0bdc6"><path d="m23.8 49.3c-.7.6-1.3 1.1-1.9 1.7 1.6 3.5 5.2 5.6 9 4.9-3 .6-6-2.3-7.1-6.6"/><path d="m35.6 41.2c-.5.3-1 .6-1.5.9 0 0 0 .1.1.1.7 1.3 1.2 2.7 1.5 4.1.3 1.5.3 3-.1 4.4-.3 1.4-1.1 2.8-2.1 3.7-.7.8-1.5 1.3-2.5 1.5 4.5-.9 7.6-5.4 6.7-10.2-.3-1.8-1.1-3.3-2.1-4.5"/></g><path d="m35.6 46.3c-.3-1.5-.8-2.9-1.5-4.1 0 0 0-.1-.1-.1 0 0-.1 0-.1.1-.1.1-.2.1-.4.2 0 0-.1.1-.1.1-3.6 2.2-6.9 4.6-9.6 6.8 1.1 4.3 4.1 7.1 7.1 6.6 1-.2 1.8-.7 2.5-1.5 1-.9 1.8-2.3 2.1-3.7.4-1.4.4-2.9.1-4.4" fill="#d9e3e8"/></svg>