<?xml version="1.0" encoding="utf-8"?>
<!-- Generator: Adobe Illustrator 25.2.3, SVG Export Plug-In . SVG Version: 6.00 Build 0)  -->
<svg version="1.1" id="Layer_2" xmlns="http://www.w3.org/2000/svg" xmlns:xlink="http://www.w3.org/1999/xlink" x="0px" y="0px"
	 viewBox="0 0 128 128" style="enable-background:new 0 0 128 128;" xml:space="preserve">
<g>
	<path style="fill:#427687;" d="M116,4H12c-4.42,0-8,3.58-8,8v104c0,4.42,3.58,8,8,8h104c4.42,0,8-3.58,8-8V12
		C124,7.58,120.42,4,116,4z"/>
	<path style="fill:#8CAFBF;" d="M109.7,4H11.5C7.37,4.03,4.03,7.37,4,11.5v97.9c-0.01,4.14,3.34,7.49,7.48,7.5c0.01,0,0.01,0,0.02,0
		h98.1c4.14,0.01,7.49-3.34,7.5-7.48c0-0.01,0-0.01,0-0.02V11.5c0.09-4.05-3.13-7.41-7.18-7.5C109.85,4,109.77,4,109.7,4z"/>
	<path style="fill:#FAFAFA;" d="M91,41.4l-24-24c-1.46-1.66-3.99-1.82-5.65-0.35c-0.13,0.11-0.24,0.23-0.35,0.35l-24,24
		c-1.44,1.68-1.24,4.2,0.44,5.64c0.71,0.61,1.62,0.95,2.56,0.96h14c1.1,0,2,0.9,2,2v22c0,2.21,1.79,4,4,4h8c2.21,0,4-1.79,4-4V50
		c0-1.1,0.9-2,2-2h14c2.21-0.02,3.98-1.83,3.96-4.04C91.95,43.02,91.61,42.11,91,41.4z"/>
	<path style="opacity:0.5;fill:#B4E1ED;enable-background:new    ;" d="M39.7,12.9c0-2.3-1.6-3-10.8-2.7c-7.7,0.3-11.5,1.2-13.8,4
		s-2.9,8.5-3,15.3c0,4.8,0,9.3,2.5,9.3c3.4,0,3.4-7.9,6.2-12.3C26.2,17.8,39.7,15.9,39.7,12.9z"/>
</g>
<g>
	<path style="fill:#FAFAFA;" d="M37.37,111.67h-5.9V88.74H23.9v-4.91h21.02v4.91h-7.56V111.67z"/>
	<path style="fill:#FAFAFA;" d="M76.05,97.71c0,4.61-1.14,8.15-3.43,10.63s-5.56,3.71-9.83,3.71s-7.54-1.24-9.83-3.71
		s-3.43-6.03-3.43-10.66s1.15-8.17,3.44-10.62c2.29-2.44,5.58-3.67,9.85-3.67s7.55,1.23,9.82,3.69
		C74.92,89.55,76.05,93.09,76.05,97.71z M55.73,97.71c0,3.11,0.59,5.45,1.77,7.03s2.95,2.36,5.29,2.36c4.71,0,7.07-3.13,7.07-9.39
		c0-6.27-2.34-9.41-7.03-9.41c-2.35,0-4.12,0.79-5.31,2.37C56.33,92.26,55.73,94.6,55.73,97.71z"/>
	<path style="fill:#FAFAFA;" d="M102.03,92.51c0,3-0.94,5.29-2.81,6.88c-1.87,1.59-4.54,2.38-7.99,2.38H88.7v9.9h-5.9V83.83h8.89
		c3.38,0,5.95,0.73,7.7,2.18C101.15,87.46,102.03,89.63,102.03,92.51z M88.7,96.93h1.94c1.82,0,3.17-0.36,4.08-1.08
		c0.9-0.72,1.35-1.76,1.35-3.13c0-1.38-0.38-2.41-1.13-3.07C94.18,89,93,88.67,91.38,88.67H88.7V96.93z"/>
</g>
</svg>
