<?xml version="1.0" encoding="utf-8"?>
<!-- Generator: Adobe Illustrator 25.2.3, SVG Export Plug-In . SVG Version: 6.00 Build 0)  -->
<svg version="1.1" id="Layer_2" xmlns="http://www.w3.org/2000/svg" xmlns:xlink="http://www.w3.org/1999/xlink" x="0px" y="0px"
	 viewBox="0 0 128 128" style="enable-background:new 0 0 128 128;" xml:space="preserve">
<path style="fill:#868686;" d="M63.87,4.1C23.86,5.15,2.21,34.84,4.22,67.67C6.08,98.01,31.27,124.21,65,123.64
	c36.88-0.63,57.52-29.12,58.6-59.18C124.8,31.29,96.46,3.24,63.87,4.1z"/>
<path style="fill:#434C4E;" d="M64.26,17.53c-30.33,0.81-47.14,24.29-45.94,49.65c1.08,22.95,21.04,43.71,46.59,42.59
	c26.09-1.14,43.26-21.54,44.43-45.68C110.57,38.5,88.96,16.87,64.26,17.53z"/>
<path style="fill:#B1B1B1;" d="M63.74,24.38c-25.97,0.68-39.71,19.97-38.62,41.93c0.95,19.3,18,36.2,39.9,35.83
	c23.94-0.41,37.15-17.76,38.04-38.42C103.98,42.18,84.9,23.82,63.74,24.38z"/>
<path style="fill:#DEDEDE;" d="M32.06,58.16c2.5,0.81,4.18-7.65,12.9-14.67c8.71-7.01,18.22-7.42,17.98-11.37s-10.27-3.22-16.37,0.4
	c-5.97,3.55-11.21,8.14-14.11,15.32C30.78,51.99,30.19,57.56,32.06,58.16z"/>
<path style="fill:#B2B2B2;" d="M39.96,14.78c-1.25-1.7-6.61-0.32-12.74,5.16c-5.15,4.61-7.74,10.48-5.81,12.17
	c1.94,1.69,6.05-3.63,10.32-7.5S42.21,17.85,39.96,14.78z"/>
<path style="fill:#B2B2B2;" d="M110.51,84.37c-3.32-1.18-4.51,4.22-6.05,6.69c-6.93,11.13-16.53,16.46-22.17,18.95
	c-3.47,1.53-6.61,1.61-5.56,5c0.81,2.61,6.45,0.41,8.39-0.4c3.47-1.45,10.16-5.17,15.4-9.92c5.08-4.6,8.42-9.26,10.16-13.87
	C111.07,89.74,113,85.25,110.51,84.37z"/>
</svg>
