<?xml version="1.0" encoding="utf-8"?>
<!-- Generator: Adobe Illustrator 25.2.3, SVG Export Plug-In . SVG Version: 6.00 Build 0)  -->
<svg version="1.1" id="Layer_1" xmlns="http://www.w3.org/2000/svg" xmlns:xlink="http://www.w3.org/1999/xlink" x="0px" y="0px"
	 viewBox="0 0 128 128" style="enable-background:new 0 0 128 128;" xml:space="preserve">
<g>
	<g>
		<path style="fill:#427687;" d="M116,4H12c-4.4,0-8,3.6-8,8v104c0,4.4,3.6,8,8,8h104c4.4,0,8-3.6,8-8V12C124,7.6,120.4,4,116,4z"/>
	</g>
	<g>
		<g>
			<path style="fill:#8CAFBF;" d="M109.7,4H11.5C7.4,4,4,7.4,4,11.5v97.9c0,4.2,3.4,7.5,7.5,7.5h98.1c4.2,0,7.5-3.4,7.5-7.5V11.5
				C117.3,7.4,113.8,4,109.7,4z"/>
		</g>
	</g>
</g>
<g>
	<path style="opacity:0.5;fill:#B4E1ED;enable-background:new    ;" d="M39.7,12.9c0-2.3-1.6-3-10.8-2.7c-7.7,0.3-11.5,1.2-13.8,4
		s-2.9,8.5-3,15.3c0,4.8,0,9.3,2.5,9.3c3.4,0,3.4-7.9,6.2-12.3C26.2,17.8,39.7,15.9,39.7,12.9z"/>
</g>
<g>
	<path style="fill:#FAFAFA;" d="M59.48,104.41h-8.62l-2.63-2.58c-2.91,2.03-6.2,3.04-9.88,3.04c-3.72,0-6.67-0.85-8.85-2.56
		c-2.18-1.71-3.27-4.02-3.27-6.93c0-2.09,0.46-3.87,1.38-5.34c0.92-1.47,2.5-2.85,4.74-4.13c-1.14-1.31-1.97-2.56-2.49-3.76
		c-0.52-1.2-0.78-2.5-0.78-3.92c0-2.32,0.89-4.18,2.66-5.6c1.78-1.42,4.15-2.13,7.12-2.13c2.84,0,5.1,0.66,6.8,1.98
		c1.7,1.32,2.55,3.08,2.55,5.29c0,1.81-0.53,3.47-1.58,4.97c-1.05,1.5-2.75,2.93-5.1,4.29l6.49,6.33c1.08-1.78,2.02-4.08,2.81-6.88
		h7.27c-0.55,2.06-1.3,4.07-2.26,6.03c-0.96,1.96-2.05,3.69-3.27,5.2L59.48,104.41z M33.57,94.71c0,1.31,0.49,2.35,1.48,3.13
		c0.98,0.78,2.24,1.17,3.78,1.17c1.92,0,3.65-0.46,5.19-1.4l-7.59-7.54c-0.88,0.67-1.58,1.37-2.09,2.1
		C33.83,92.91,33.57,93.75,33.57,94.71z M41.78,78.5c0-0.81-0.27-1.44-0.82-1.91c-0.55-0.47-1.26-0.7-2.13-0.7
		c-1.02,0-1.83,0.24-2.41,0.73c-0.59,0.49-0.88,1.18-0.88,2.08c0,1.34,0.72,2.82,2.17,4.44c1.31-0.73,2.32-1.45,3.02-2.16
		C41.43,80.27,41.78,79.45,41.78,78.5z"/>
</g>
<path style="fill:#FAFAFA;" d="M74.32,85.7c-1.32-0.75-2.36-1.76-3.11-3.04c-0.75-1.27-1.13-2.68-1.13-4.22
	c0-1.54,0.38-2.94,1.13-4.22c0.75-1.27,1.79-2.29,3.11-3.04c1.32-0.75,2.8-1.13,4.44-1.13c1.6,0,3.06,0.38,4.39,1.13
	c1.32,0.75,2.36,1.77,3.11,3.04c0.75,1.28,1.13,2.68,1.13,4.22c0,1.54-0.38,2.94-1.13,4.22c-0.75,1.28-1.79,2.29-3.11,3.04
	c-1.32,0.75-2.79,1.13-4.39,1.13C77.12,86.83,75.64,86.46,74.32,85.7z M81.18,81.04c0.64-0.65,0.96-1.52,0.96-2.6
	c0-1.08-0.32-1.94-0.96-2.6c-0.64-0.65-1.45-0.98-2.43-0.98c-0.95,0-1.75,0.33-2.4,1c-0.65,0.67-0.98,1.53-0.98,2.57
	c0,1.05,0.33,1.91,0.98,2.57c0.65,0.67,1.46,1.01,2.4,1.01C79.74,82.03,80.55,81.7,81.18,81.04z M75.31,102.57l21.77-32.51l3.87,2.6
	l-21.77,32.51L75.31,102.57z M93.11,104.04c-1.32-0.75-2.36-1.77-3.11-3.04c-0.75-1.27-1.13-2.68-1.13-4.22
	c0-1.54,0.38-2.94,1.13-4.22c0.75-1.27,1.79-2.29,3.11-3.04c1.32-0.75,2.8-1.13,4.44-1.13c1.6,0,3.07,0.38,4.39,1.13
	c1.32,0.75,2.36,1.77,3.11,3.04c0.75,1.28,1.13,2.68,1.13,4.22c0,1.54-0.38,2.94-1.13,4.22c-0.75,1.28-1.79,2.29-3.11,3.04
	c-1.32,0.75-2.79,1.13-4.39,1.13C95.91,105.17,94.43,104.79,93.11,104.04z M99.98,99.38c0.64-0.65,0.96-1.52,0.96-2.6
	c0-1.08-0.32-1.94-0.96-2.6c-0.64-0.65-1.45-0.98-2.43-0.98c-0.95,0-1.75,0.33-2.4,1c-0.65,0.67-0.98,1.53-0.98,2.57
	c0,1.05,0.33,1.91,0.98,2.57c0.65,0.67,1.45,1.01,2.4,1.01C98.53,100.36,99.34,100.04,99.98,99.38z"/>
<g>
	<rect x="27.67" y="23.31" style="fill:#FAFAFA;" width="24.41" height="5.81"/>
	<polygon style="fill:#FAFAFA;" points="27.67,39.12 36.97,39.12 36.97,56.42 42.78,56.42 42.78,39.12 52.07,39.12 52.07,33.31 
		27.67,33.31 	"/>
</g>
<path style="fill:#FAFAFA;" d="M84.38,24.18v22.56c-0.83-0.28-1.75-0.45-2.72-0.45c-3.76,0-6.8,2.37-6.8,5.29
	c0,2.92,3.04,5.29,6.8,5.29c3.69,0,6.67-2.29,6.78-5.14h0.02V30.62l8.15-2.6V20.6L84.38,24.18z"/>
</svg>
