<?xml version="1.0" encoding="utf-8"?>
<!-- Generator: Adobe Illustrator 25.2.3, SVG Export Plug-In . SVG Version: 6.00 Build 0)  -->
<svg version="1.1" id="Layer_1" xmlns="http://www.w3.org/2000/svg" xmlns:xlink="http://www.w3.org/1999/xlink" x="0px" y="0px"
	 viewBox="0 0 128 128" style="enable-background:new 0 0 128 128;" xml:space="preserve">
<g>
	<g>
		<path style="fill:#427687;" d="M116,4H12c-4.4,0-8,3.6-8,8v104c0,4.4,3.6,8,8,8h104c4.4,0,8-3.6,8-8V12C124,7.6,120.4,4,116,4z"/>
	</g>
	<g>
		<g>
			<path style="fill:#8CAFBF;" d="M109.7,4H11.5C7.4,4,4,7.4,4,11.5v97.9c0,4.2,3.4,7.5,7.5,7.5h98.1c4.2,0,7.5-3.4,7.5-7.5V11.5
				C117.3,7.4,113.8,4,109.7,4z"/>
		</g>
	</g>
</g>
<g>
	<path style="opacity:0.5;fill:#B4E1ED;enable-background:new    ;" d="M39.7,12.9c0-2.3-1.6-3-10.8-2.7c-7.7,0.3-11.5,1.2-13.8,4
		s-2.9,8.5-3,15.3c0,4.8,0,9.3,2.5,9.3c3.4,0,3.4-7.9,6.2-12.3C26.2,17.8,39.7,15.9,39.7,12.9z"/>
</g>
<g>
	<path style="fill:#FAFAFA;" d="M38.02,30.78l-5.4,3.93l-3.46-5.29l10.53-7.59h5.19v35.83h-6.86V30.78z"/>
</g>
<g>
	<path style="fill:#FAFAFA;" d="M74.02,51.42c7.26-7.19,11.61-11.58,13.04-13.15c1.26-1.36,2.12-2.5,2.59-3.4
		c0.47-0.91,0.71-1.94,0.71-3.09c0-1.22-0.45-2.25-1.36-3.09c-0.91-0.84-2.11-1.26-3.61-1.26c-1.47,0-2.65,0.42-3.56,1.26
		c-0.91,0.84-1.55,1.89-1.94,3.14l-6.18-2.57c0.38-1.36,1.09-2.68,2.12-3.95c1.03-1.27,2.37-2.31,4.01-3.12
		c1.64-0.8,3.53-1.2,5.66-1.2c2.37,0,4.45,0.46,6.23,1.39c1.78,0.93,3.16,2.18,4.14,3.77c0.98,1.59,1.47,3.36,1.47,5.32
		c0,3.88-1.89,7.67-5.66,11.37c-1.54,1.5-4.38,4.33-8.54,8.49l0.16,0.31H97.8v6.02H74.02V51.42z"/>
</g>
<g>
	<path style="fill:#FAFAFA;" d="M33.65,103.91c-2.32-1.61-3.92-3.95-4.79-7.02l6.5-2.57c0.42,1.71,1.17,3.03,2.25,3.96
		c1.08,0.93,2.44,1.39,4.09,1.39c1.5,0,2.8-0.45,3.9-1.36c1.1-0.91,1.65-2.06,1.65-3.46c0-1.5-0.58-2.7-1.75-3.59
		c-1.17-0.89-2.75-1.34-4.74-1.34h-3.09v-6.23h2.83c1.54,0,2.84-0.38,3.9-1.15c1.06-0.77,1.6-1.89,1.6-3.35
		c0-1.19-0.44-2.16-1.31-2.93c-0.87-0.77-1.99-1.15-3.35-1.15c-1.43,0-2.58,0.38-3.46,1.15c-0.87,0.77-1.48,1.73-1.83,2.88
		l-6.23-2.57c0.73-2.1,2.09-3.91,4.06-5.45c1.97-1.54,4.48-2.3,7.52-2.3c2.23,0,4.23,0.42,6,1.26c1.76,0.84,3.13,1.98,4.11,3.43
		c0.98,1.45,1.47,3.08,1.47,4.9c0,1.92-0.45,3.56-1.34,4.92c-0.89,1.36-1.96,2.36-3.22,2.99v0.42c1.75,0.7,3.16,1.8,4.24,3.3
		c1.08,1.5,1.62,3.32,1.62,5.45c0,2.06-0.52,3.91-1.57,5.55c-1.05,1.64-2.52,2.93-4.43,3.88c-1.9,0.94-4.09,1.41-6.57,1.41
		C38.65,106.32,35.97,105.51,33.65,103.91z"/>
</g>
<g>
	<path style="fill:#FAFAFA;" d="M90.21,98.88h-16.5v-5.55l15.92-23.67h7.44v22.84h4.45v6.39h-4.45v6.6h-6.86V98.88z M90.21,92.49
		V79.87h-0.42L81.3,92.49H90.21z"/>
</g>
</svg>
