<?xml version="1.0" encoding="UTF-8" standalone="no"?><svg xmlns:dc="http://purl.org/dc/elements/1.1/" xmlns:cc="http://creativecommons.org/ns#" xmlns:rdf="http://www.w3.org/1999/02/22-rdf-syntax-ns#" xmlns:svg="http://www.w3.org/2000/svg" xmlns="http://www.w3.org/2000/svg" viewBox="0 0 45 45" style="enable-background:new 0 0 45 45;" xml:space="preserve" version="1.1" id="svg2"><metadata id="metadata8"><rdf:RDF><cc:Work rdf:about=""><dc:format>image/svg+xml</dc:format><dc:type rdf:resource="http://purl.org/dc/dcmitype/StillImage"/></cc:Work></rdf:RDF></metadata><defs id="defs6"><clipPath id="clipPath16" clipPathUnits="userSpaceOnUse"><path id="path18" d="M 0,36 36,36 36,0 0,0 0,36 Z"/></clipPath><clipPath id="clipPath28" clipPathUnits="userSpaceOnUse"><path id="path30" d="m 17.583,26.833 c -2.957,-0.231 -5.666,2.542 -4.666,7.042 l 0,0 c -3.238,-2.386 -3.333,-6.402 -2.334,-9 l 0,0 C 11.625,22.166 10.542,19.916 8,19.667 l 0,0 C 5.161,19.387 3.584,22.709 5.038,28 l 0,0 C 2.519,25.035 1,21.195 1,17 l 0,0 C 1,7.611 8.611,0 18,0 l 0,0 c 9.389,0 17,7.611 17,17 l 0,0 c 0,2.063 -0.367,4.039 -1.04,5.868 l 0,0 C 33.5,17.48 30.627,14.71 27.625,16 l 0,0 c -2.813,1.208 -0.917,5.917 -0.777,8.164 l 0,0 c 0.236,3.809 -0.012,8.169 -6.931,11.795 l 0,0 c 2.875,-5.5 0.333,-8.918 -2.334,-9.126"/></clipPath></defs><g transform="matrix(1.25,0,0,-1.25,0,45)" id="g10"><g id="g12"><g clip-path="url(#clipPath16)" id="g14"><g transform="translate(35,17)" id="g20"><path id="path22" style="fill:#f4900c;fill-opacity:1;fill-rule:nonzero;stroke:none" d="M 0,0 C 0,2.063 -0.367,4.039 -1.04,5.868 -1.5,0.48 -4.373,-2.289 -7.375,-1 c -2.813,1.208 -0.917,5.917 -0.777,8.164 0.236,3.809 -0.012,8.169 -6.931,11.794 2.875,-5.5 0.333,-8.916 -2.334,-9.125 -2.957,-0.23 -5.666,2.542 -4.666,7.042 -3.238,-2.386 -3.333,-6.402 -2.334,-9 C -23.375,5.167 -24.458,2.917 -27,2.667 -29.839,2.387 -31.417,5.708 -29.962,11 -32.48,8.035 -34,4.195 -34,0 c 0,-9.389 7.611,-17 17,-17 9.389,0 17,7.611 17,17"/></g></g></g><g id="g24"><g clip-path="url(#clipPath28)" id="g26"><g transform="translate(30,6)" id="g32"><path id="path34" style="fill:#ffcc4d;fill-opacity:1;fill-rule:nonzero;stroke:none" d="m 0,0 c 0,2.186 -0.584,4.236 -1.605,6.001 0.147,-3.084 -2.562,-4.293 -4.02,-3.709 -2.105,0.843 -1.541,2.291 -2.083,5.291 -0.542,3 -2.625,5.084 -5.709,6 2.25,-6.333 -1.247,-8.667 -3.08,-9.084 C -18.369,4.073 -20.25,4.5 -20.465,8.506 -22.648,6.332 -24,3.324 -24,0 c 0,-6.627 5.373,-12 12,-12 6.627,0 12,5.373 12,12"/></g></g></g></g></svg>
