<?xml version="1.0" encoding="utf-8"?>
<!-- Generator: Adobe Illustrator 25.2.3, SVG Export Plug-In . SVG Version: 6.00 Build 0)  -->
<svg version="1.1" id="Layer_2" xmlns="http://www.w3.org/2000/svg" xmlns:xlink="http://www.w3.org/1999/xlink" x="0px" y="0px"
	 viewBox="0 0 128 128" style="enable-background:new 0 0 128 128;" xml:space="preserve">
<path style="fill:#B0B0B0;" d="M52.96,41.07l-8.81,10.54c0,0,1.04,0.66,2.76,2.39c1.72,1.72,2.61,4.71,2.61,4.71
	s15.6-1.32,15.6-1.62s-5.15-10.12-5.15-10.12l-6.26-5.89L52.96,41.07z"/>
<path style="fill:#B0B0B0;" d="M45.87,70.25l-3.9,0.69c0,0-3.14,2.61-2.68,4.07c0.39,1.25,9.95,10.87,16.62,16.62
	c8.11,6.99,23.81,18.34,38.6,24.62c13.98,5.94,22.93,7.04,26.27,6.92c3.02-0.11,4.26-2,3.15-2.71
	c-1.11-0.71-36.51-28.12-36.51-28.12L45.87,70.25z"/>
<path style="fill:#E0E0E0;" d="M59.96,46.96L49.11,57.39c0,0,0.81,3.34-1.42,6.59c-2.23,3.24-5.77,6.99-5.77,6.99
	s11.53,13.25,25.23,23.5c19.35,14.49,33.15,21.24,42.65,24.01c8.78,2.56,14.42,2.26,14.42,2.26s-9.21-14.01-19.08-25.97
	c-6.28-7.6-25.91-28.96-32.3-35.34C66.46,53.05,59.96,46.96,59.96,46.96z"/>
<path style="fill:#474C4F;" d="M10.18,13.81L7.5,11.47c0,0-5.06,6-4.12,8.91c0.82,2.53,12.1,11.49,22.19,19.76
	c8.16,6.68,14.64,12.2,16.42,12.6c2.09,0.48,3.41-1.27,3.41-1.27L10.18,13.81z"/>
<path style="fill:#5E6367;" d="M17.33,4.73c-2.81-0.65-8.61,4.49-10.86,8.24s-0.04,6.15,3.18,8.99
	c1.49,1.31,35.68,29.59,35.68,29.59s3.33-3.09,5.25-5.02c2.29-2.33,4.82-4.57,4.78-5.52c-0.07-1.42-15.57-15.39-21.29-21.28
	C27.32,12.79,19.76,5.3,17.33,4.73z"/>
<path style="fill:#B0B0B0;" d="M18.88,13.71c-0.85-0.79-2.17-0.79-3.36,0.13c-1.18,0.92-1.38,2.83-0.13,3.82s3.03,0.66,3.82-0.39
	C20,16.21,19.87,14.63,18.88,13.71z"/>
<path style="fill:#B0B0B0;" d="M46.65,39.36c-1.2-0.96-2.76-0.4-3.42,0.53c-0.66,0.92-0.79,2.5,0.26,3.36
	c1.05,0.86,2.62,0.4,3.34-0.45C47.68,41.79,47.64,40.15,46.65,39.36z"/>
</svg>
