<?xml version="1.0" encoding="UTF-8" standalone="no"?><svg xmlns:dc="http://purl.org/dc/elements/1.1/" xmlns:cc="http://creativecommons.org/ns#" xmlns:rdf="http://www.w3.org/1999/02/22-rdf-syntax-ns#" xmlns:svg="http://www.w3.org/2000/svg" xmlns="http://www.w3.org/2000/svg" viewBox="0 0 45 45" style="enable-background:new 0 0 45 45;" xml:space="preserve" version="1.1" id="svg2"><metadata id="metadata8"><rdf:RDF><cc:Work rdf:about=""><dc:format>image/svg+xml</dc:format><dc:type rdf:resource="http://purl.org/dc/dcmitype/StillImage"/></cc:Work></rdf:RDF></metadata><defs id="defs6"><clipPath id="clipPath16" clipPathUnits="userSpaceOnUse"><path id="path18" d="M 0,36 36,36 36,0 0,0 0,36 Z"/></clipPath></defs><g transform="matrix(1.25,0,0,-1.25,0,45)" id="g10"><g id="g12"><g clip-path="url(#clipPath16)" id="g14"><g transform="translate(29.8789,2.1211)" id="g20"><path id="path22" style="fill:#f4900c;fill-opacity:1;fill-rule:nonzero;stroke:none" d="M 0,0 C 1.166,-1.166 3.021,-1.221 4.121,-0.121 5.221,0.979 5.166,2.834 4,4 l -21.758,21.758 c -1.166,1.166 -3.021,1.221 -4.121,0.121 -1.1,-1.1 -1.045,-2.955 0.121,-4.121 L 0,0 Z"/></g><g transform="translate(22,33)" id="g24"><path id="path26" style="fill:#66757f;fill-opacity:1;fill-rule:nonzero;stroke:none" d="m 0,0 c 0,0 -6,3 -11,-2 l -7,-7 c 0,0 -1,1 -2,0 l -1,-1 c 0,0 -1,-1 0,-2 l 4,-4 c 0,0 1,-1 2,0 l 1,1 c 0,0 1,1 0,2 -0.023,0.023 -0.053,0.053 -0.078,0.078 0.77,0.743 1.923,1.5 3.078,0.922 l 4,4 c 0,0 -1,3 1,5 2,2 3,2 5,2 2,0 1,1 1,1"/></g></g></g></g></svg>
