<?xml version="1.0" encoding="utf-8"?>
<!-- Generator: Adobe Illustrator 25.2.3, SVG Export Plug-In . SVG Version: 6.00 Build 0)  -->
<svg version="1.1" id="Layer_2" xmlns="http://www.w3.org/2000/svg" xmlns:xlink="http://www.w3.org/1999/xlink" x="0px" y="0px"
	 viewBox="0 0 128 128" style="enable-background:new 0 0 128 128;" xml:space="preserve">
<g>
	<path style="fill:#8E24AA;" d="M116,4H12c-4.42,0-8,3.58-8,8v104c0,4.42,3.58,8,8,8h104c4.42,0,8-3.58,8-8V12
		C124,7.58,120.42,4,116,4z"/>
	<path style="fill:#AB47BC;" d="M109.7,4H11.5C7.37,4.03,4.03,7.37,4,11.5v97.9c-0.01,4.14,3.34,7.49,7.48,7.5c0.01,0,0.01,0,0.02,0
		h98.1c4.14,0.01,7.49-3.34,7.5-7.48c0-0.01,0-0.01,0-0.02V11.5c0.09-4.05-3.13-7.41-7.18-7.5C109.85,4,109.77,4,109.7,4z"/>
	<path style="opacity:0.3;fill:#FAFAFA;enable-background:new    ;" d="M39.7,12.9c0-2.3-1.6-3-10.8-2.7c-7.7,0.3-11.5,1.2-13.8,4
		s-2.9,8.5-3,15.3c0,4.8,0,9.3,2.5,9.3c3.4,0,3.4-7.9,6.2-12.3C26.2,17.8,39.7,15.9,39.7,12.9z"/>
	<circle style="fill:#FAFAFA;" cx="64" cy="64" r="6"/>
	<path style="fill:#FAFAFA;" d="M93.3,64L107,41.5c0.28-0.48,0.11-1.09-0.36-1.37c-0.13-0.08-0.28-0.12-0.44-0.13H78.7L64.8,16.5
		c-0.29-0.47-0.91-0.61-1.38-0.32c-0.13,0.08-0.24,0.19-0.32,0.32L49.3,40H21.8c-0.55-0.02-1.01,0.41-1.03,0.97
		c-0.01,0.19,0.04,0.37,0.13,0.53L34.7,64L20.9,86.5c-0.28,0.48-0.11,1.09,0.37,1.37c0.16,0.09,0.35,0.14,0.53,0.13h27.6l13.8,23.5
		c0.29,0.47,0.91,0.61,1.38,0.32c0.13-0.08,0.24-0.19,0.32-0.32L78.7,88h27.6c0.52,0.03,0.96-0.37,0.98-0.89
		c0.01-0.22-0.05-0.43-0.18-0.61L93.3,64z M97.3,46l-7.5,12.2L82.3,46H97.3z M86.3,64l-11,18H52.7l-11-18l11-18h22.6L86.3,64z
		 M64,26.6L71.6,40H56.4L64,26.6z M30.7,46h15l-7.5,12.2L30.7,46z M30.7,82l7.5-12.2L45.7,82H30.7z M64,101.4L56.4,88h15.3L64,101.4
		z M89.8,69.8L97.3,82h-15L89.8,69.8z"/>
</g>
</svg>
