<?xml version="1.0" encoding="utf-8"?>
<!-- Generator: Adobe Illustrator 25.2.3, SVG Export Plug-In . SVG Version: 6.00 Build 0)  -->
<svg version="1.1" id="Layer_1" xmlns="http://www.w3.org/2000/svg" xmlns:xlink="http://www.w3.org/1999/xlink" x="0px" y="0px"
	 viewBox="0 0 128 128" style="enable-background:new 0 0 128 128;" xml:space="preserve">
<g>
	<g>
		<path style="fill:#427687;" d="M116,4H12c-4.4,0-8,3.6-8,8v104c0,4.4,3.6,8,8,8h104c4.4,0,8-3.6,8-8V12C124,7.6,120.4,4,116,4z"/>
	</g>
	<g>
		<g>
			<path style="fill:#8CAFBF;" d="M109.7,4H11.5C7.4,4,4,7.4,4,11.5v97.9c0,4.2,3.4,7.5,7.5,7.5h98.1c4.2,0,7.5-3.4,7.5-7.5V11.5
				C117.3,7.4,113.8,4,109.7,4z"/>
		</g>
	</g>
</g>
<g>
	<path style="opacity:0.5;fill:#B4E1ED;enable-background:new    ;" d="M39.7,12.9c0-2.3-1.6-3-10.8-2.7c-7.7,0.3-11.5,1.2-13.8,4
		s-2.9,8.5-3,15.3c0,4.8,0,9.3,2.5,9.3c3.4,0,3.4-7.9,6.2-12.3C26.2,17.8,39.7,15.9,39.7,12.9z"/>
</g>
<g>
	<path style="fill:#FFFFFF;" d="M36.73,23.08h6.99l12.12,32.27h-6.72l-2.7-7.71H34.07l-2.7,7.71h-6.72L36.73,23.08z M44.44,42.05
		l-2.84-8.11l-1.17-3.88h-0.36l-1.17,3.88l-2.88,8.11H44.44z"/>
	<path style="fill:#FFFFFF;" d="M33.39,101.92c-2.58-1.49-4.62-3.52-6.11-6.08c-1.49-2.57-2.23-5.42-2.23-8.54s0.74-5.97,2.23-8.54
		s3.52-4.6,6.11-6.09c2.58-1.49,5.44-2.23,8.56-2.23c4.87,0,8.89,1.76,12.08,5.27l-4.28,4.15c-2.07-2.43-4.66-3.65-7.75-3.65
		c-2.01,0-3.85,0.46-5.5,1.37c-1.65,0.92-2.95,2.22-3.9,3.9s-1.42,3.62-1.42,5.81c0,2.19,0.47,4.13,1.42,5.81s2.25,2.98,3.9,3.9
		s3.49,1.37,5.5,1.37c3.4,0,6.23-1.41,8.52-4.24l4.33,4.1c-1.59,1.92-3.48,3.39-5.66,4.39c-2.18,1.01-4.59,1.51-7.23,1.51
		C38.83,104.16,35.97,103.41,33.39,101.92z"/>
</g>
<path style="fill:#FFFFFF;" d="M73.76,23.08h12.62c1.8,0,3.46,0.38,4.98,1.13c1.52,0.75,2.71,1.77,3.58,3.07
	c0.87,1.29,1.31,2.7,1.31,4.24c0,1.62-0.4,3.03-1.19,4.21c-0.8,1.19-1.84,2.1-3.13,2.73v0.36c1.68,0.6,3.02,1.56,4.01,2.86
	c0.99,1.31,1.49,2.88,1.49,4.71c0,1.77-0.47,3.34-1.42,4.71s-2.22,2.42-3.83,3.15c-1.61,0.74-3.39,1.1-5.34,1.1H73.76V23.08z
	 M85.93,36.24c1.32,0,2.38-0.37,3.18-1.1c0.8-0.74,1.19-1.66,1.19-2.77c0-1.08-0.38-1.99-1.15-2.73c-0.77-0.74-1.78-1.1-3.04-1.1
	h-6.26v7.71h6.08V36.24z M86.61,49.81c1.47,0,2.62-0.38,3.45-1.15c0.83-0.77,1.24-1.77,1.24-3s-0.42-2.24-1.26-3.02
	c-0.84-0.78-2.04-1.17-3.61-1.17h-6.58v8.34H86.61z"/>
<path style="fill:#FFFFFF;" d="M74.02,71.16h10.91c3.36,0,6.29,0.68,8.79,2.03c2.49,1.35,4.42,3.24,5.77,5.68
	c1.35,2.43,2.03,5.24,2.03,8.43s-0.68,6-2.03,8.43s-3.28,4.33-5.77,5.68s-5.42,2.03-8.79,2.03H74.02V71.16z M84.66,97.66
	c3.49,0,6.14-0.92,7.98-2.77c1.83-1.85,2.75-4.38,2.75-7.6c0-3.21-0.92-5.75-2.75-7.59c-1.83-1.85-4.49-2.77-7.98-2.77h-4.55v20.73
	L84.66,97.66L84.66,97.66z"/>
</svg>
