<?xml version="1.0" encoding="UTF-8" standalone="no"?><svg xmlns:dc="http://purl.org/dc/elements/1.1/" xmlns:cc="http://creativecommons.org/ns#" xmlns:rdf="http://www.w3.org/1999/02/22-rdf-syntax-ns#" xmlns:svg="http://www.w3.org/2000/svg" xmlns="http://www.w3.org/2000/svg" viewBox="0 0 45 45" style="enable-background:new 0 0 45 45;" xml:space="preserve" version="1.1" id="svg2"><metadata id="metadata8"><rdf:RDF><cc:Work rdf:about=""><dc:format>image/svg+xml</dc:format><dc:type rdf:resource="http://purl.org/dc/dcmitype/StillImage"/></cc:Work></rdf:RDF></metadata><defs id="defs6"><clipPath id="clipPath16" clipPathUnits="userSpaceOnUse"><path id="path18" d="M 0,36 36,36 36,0 0,0 0,36 Z"/></clipPath></defs><g transform="matrix(1.25,0,0,-1.25,0,45)" id="g10"><g id="g12"><g clip-path="url(#clipPath16)" id="g14"><g transform="translate(36,4)" id="g20"><path id="path22" style="fill:#3b88c3;fill-opacity:1;fill-rule:nonzero;stroke:none" d="m 0,0 c 0,-2.209 -1.791,-4 -4,-4 l -28,0 c -2.209,0 -4,1.791 -4,4 l 0,28 c 0,2.209 1.791,4 4,4 l 28,0 c 2.209,0 4,-1.791 4,-4 L 0,0 Z"/></g><g transform="translate(9.6128,29.9043)" id="g24"><path id="path26" style="fill:#ffffff;fill-opacity:1;fill-rule:nonzero;stroke:none" d="m 0,0 -1.121,0 c -0.912,0 -1.292,0.665 -1.292,1.311 0,0.665 0.475,1.311 1.292,1.311 l 2.698,0 c 0.817,0 1.273,-0.589 1.273,-1.349 l 0,-10.81 c 0,-0.949 -0.608,-1.481 -1.425,-1.481 C 0.608,-11.018 0,-10.486 0,-9.537 L 0,0 Z"/></g><g transform="translate(14.7417,13.2773)" id="g28"><path id="path30" style="fill:#ffffff;fill-opacity:1;fill-rule:nonzero;stroke:none" d="m 0,0 c 0,-1.196 -0.513,-2.241 -1.558,-2.906 1.368,-0.627 2.318,-1.901 2.318,-3.401 0,-2.28 -2.09,-4.198 -4.788,-4.198 -2.811,0 -4.559,2.071 -4.559,3.571 0,0.741 0.779,1.273 1.463,1.273 1.291,0 0.988,-2.223 3.134,-2.223 0.988,0 1.786,0.76 1.786,1.767 0,2.66 -3.23,0.703 -3.23,2.944 0,1.995 2.698,0.647 2.698,2.755 0,0.722 -0.513,1.273 -1.368,1.273 -1.804,0 -1.557,-1.862 -2.849,-1.862 -0.779,0 -1.235,0.703 -1.235,1.407 0,1.481 2.033,3.077 4.142,3.077 C -1.311,3.477 0,1.482 0,0"/></g><g transform="translate(28.1152,21.5078)" id="g32"><path id="path34" style="fill:#ffffff;fill-opacity:1;fill-rule:nonzero;stroke:none" d="m 0,0 c 0.836,0 1.48,-0.38 1.48,-1.254 0,-0.874 -0.644,-1.254 -1.367,-1.254 l -6.345,0 c -0.835,0 -1.481,0.38 -1.481,1.254 0,0.399 0.246,0.741 0.437,0.969 1.577,1.881 3.286,3.59 4.729,5.68 0.343,0.494 0.666,1.083 0.666,1.767 0,0.778 -0.59,1.463 -1.368,1.463 -2.185,0 -1.14,-3.078 -2.964,-3.078 -0.912,0 -1.387,0.646 -1.387,1.387 0,2.394 2.128,4.312 4.465,4.312 2.336,0 4.217,-1.538 4.217,-3.951 C 1.082,4.654 -1.862,2.033 -3.477,0 L 0,0 Z"/></g><g transform="translate(25.7588,13.79)" id="g36"><path id="path38" style="fill:#ffffff;fill-opacity:1;fill-rule:nonzero;stroke:none" d="M 0,0 -0.038,0 -2.603,-5.3 0,-5.3 0,0 Z m -4.578,-7.808 c -0.931,0 -1.33,0.627 -1.33,1.122 0,0.418 0.152,0.645 0.266,0.836 l 4.255,7.712 c 0.418,0.76 0.95,1.102 1.939,1.102 1.101,0 2.183,-0.703 2.183,-2.432 l 0,-5.832 0.324,0 c 0.741,0 1.33,-0.494 1.33,-1.254 0,-0.759 -0.589,-1.254 -1.33,-1.254 l -0.324,0 0,-1.614 c 0,-1.007 -0.398,-1.482 -1.367,-1.482 -0.969,0 -1.368,0.475 -1.368,1.482 l 0,1.614 -4.578,0 z"/></g></g></g></g></svg>
