<svg xmlns="http://www.w3.org/2000/svg" viewBox="0 0 64 64" enable-background="new 0 0 64 64"><path d="m30.6 24.3c0 0 24 21.9 31.4 37.7 0 0-20.1.6-43.3-22.5 0 0 7.6-8.1 6.1-9.6l5.8-5.6" fill="#d6dfe3"/><path d="M20.9,37c-1.2,1.4-2.2,2.5-2.2,2.5C41.9,62.6,62,62,62,62c-0.5-1-1-2-1.6-3.1C53.7,58,38.2,54.1,20.9,37z" fill="#aebabf"/><path d="m30.8 23.5l-21.6-21.5-7 6.9c0 0-.5.5-.1.9.9.9 1.5.5 2.4.7 1.1.3 2.4 1.5 2.4 1.5l18 17.9 5.9-5.9c.2-.1.2-.3 0-.5" fill="#333"/><path d="m9.1 8.1c-.3.3-.9.3-1.2 0-.3-.3-.3-.9 0-1.2.3-.3.9-.3 1.2 0 .3.3.3.8 0 1.2" fill="#d0d0d0"/></svg>