<svg xmlns="http://www.w3.org/2000/svg" viewBox="0 0 64 64" enable-background="new 0 0 64 64"><path d="m53.4 24.7c0 0 1-5.1 3.9-1.2h1c0 0-.3-3-2.1-3.2-3.7-.4-2.8 2.9-5.8.7-3-2.2 3 3.7 3 3.7" fill="#dff4f4"/><path d="m54.4 24.7c0 0 1-5.1 3.9-1.2l.6-1.1c0 0-1.3-2.5-3.1-2.1-1.8.3-1.3 2.8-4.4.7-3-2.2 3 3.7 3 3.7" fill="#87989b"/><path fill="#abc2c6" d="m54.4 28.6l.9-3.9-4.6-5.2-1.1 5.9z"/><path d="m6.3 7l.4-1.9.9-.7c1.2.4 4.8 1.5 5.9 2.6h-7.2" fill="#dff4f4"/><g fill="#5a6a6d"><path d="m7.7 7v-2.6c0 0 4.4-.3 7.3 2.6h-7.3"/><path d="m47.3 13.3v-1.6c0 0 1.6-.3 1.6 2.1 0 2.4-1.6-.5-1.6-.5"/></g><g fill="#dff4f4"><path d="m46 12.1l1.3-.4v1.6l-1.4-.1z"/><path d="m9.8 24.2l4.1 4 10.7.1 3.1 2.6v2.9h6.3c0 0 5.2-4.5 9.3 1.9 2.1 3.3 9.3 0 8.6-5h2.8v-1.5c0 0-6.2-1-6.6-3.7-.4-2.7.3-10.3.3-10.3s-10-8.8-41.7-8.6l-3.1 1.1v1.9l6.2 14.6"/></g><path d="m54.8 30.3h-10.4v12.4c0 0 5 .3 6 7.4.8 5.4-2.8 5.8-2.8 5.8v3.6h11c0 0 3.5-1 3.5-5.8 0-3.3 0-8.9-6.1-15.6-1.9-1.9-1.2-7.8-1.2-7.8" fill="#87989b"/><path d="m56.7 29.3h-10.4v13.5c0 0 5 .3 6 7.4.8 5.4-2.8 5.8-2.8 5.8v3.6h11c0 0 3.5-1 3.5-5.8 0-3.3 0-8.9-6.1-15.6-1.9-2-1.2-8.9-1.2-8.9" fill="#293030"/><path d="m36.1 32.1l-.6 1.9c6.2 3.4 1.1 8.2 1.1 8.2 1.9 0 1.9 0 1.9 0s2.6-1.7 7-7.4c1.3-1.7-4.4-5.7-9.4-2.7" fill="#dff4f4"/><path d="m37.9 32.1l-.5 1.9c6.2 3.4 1.1 8.2 1.1 8.2 5 0 3.3-5.8 8.9-7.4 2.3-.6-4.4-5.7-9.5-2.7" fill="#475152"/><path d="m29.7 33.7c0 0-.1 3 .8 6.5 1 3.4 3.7 4.6 7.2 4.6 4.2 0 7.4-4.1 8.1-6.3h-1.4c0 0-2.2 4.9-6.6 4.9-4.2 0-7.3-2.7-4.6-9.7-.1 0-3.5 0-3.5 0" fill="#dff4f4"/><path d="m31.1 33.7c0 0-.2 3 .8 6.5 1 3.4 3.7 4.6 7.2 4.6 4.2 0 5.7-2.7 6.7-3.9v-2.4c0 0-2.2 4.9-6.6 4.9-4.2 0-7.3-2.7-4.6-9.7h-3.5" fill="#475152"/><path d="m12.9 24.2l4.1 4 10.7.1 3.1 2.6v2.9h6.3c0 0 5.2-4.5 9.3 1.9 2.1 3.3 9.3 0 8.6-5h2.8v-1.5c0 0-6.2-1-6.6-3.7-.4-2.7.3-10.3.3-10.3s-10.9-9.4-44.8-8.6v3l6.2 14.6" fill="#87989b"/><path d="m50.6 17c-5-2.3-11.5-3.9-18-5 2 .4 3.4 3.1 3.2 6.2-.2 3-3.5 11.5-3.5 11.5 6.6-.2 13.6 1.5 13.6 1.5 11.8-6.7 4.7-14.2 4.7-14.2" fill="#abc2c6"/><path d="m52 19.3c-5-1.2-8.7-2.1-15.2-2.7 0 0-.3 5.8-.5 7.4l11.8 2.5c2.1.6.8 2.5.8 2.5 6.3-4.8 3.1-9.7 3.1-9.7" fill="#5a6a6d"/><path fill="#dff4f4" d="m33 28.9l2.2-1.9 2-4.5.3-3.7-1.2-4.7-.4-1.8-3.3-.3-.4 17.7z"/><g fill="#293030"><path d="m35.7 24.5c-.4 1.2-1.5 1.9-2.4 1.7-.9-.2-1.2-1.4-.8-2.5.4-1.2 1.5-1.9 2.4-1.7s1.2 1.3.8 2.5"/><path d="m36.4 16.5c.1 1.2-.5 2.2-1.4 2.3-.8 0-1.6-.9-1.7-2.1-.1-1.2.5-2.2 1.4-2.3s1.6.9 1.7 2.1"/></g><g fill="#abc2c6"><path d="m32.6 12c0 0-.1 0-.1 0-.1 0-.2 0-.3 0 .1 0 .2 0 .3 0-14.7-2.5-29.6-2.3-29.6-2.3l.6 3c6.7.1 18.9.3 31.4 1.2-.6-1.1-1.4-1.8-2.3-1.9"/><path d="m5.4 22.3l.6 3.3c0 0 25.5-1.6 26.2-1.5 1-.3 2-1.2 2.6-2.5-5.2-.1-18.6-.4-29.4.7"/></g><g fill="#87989b"><path d="m35.2 14.6c-.1-.3-.2-.5-.3-.7-12.5-.9-24.7-1.2-31.4-1.3l.2 1.2c6.9.1 19.1.2 31.5.8"/><path d="m4.8 19.3l.6 3c10.8-1.1 24.2-.9 29.5-.7.4-.8.7-1.7.8-2.7-4.7-.1-19.4-.3-30.9.4"/></g><path d="m35.2 14.6c-12.4-.6-24.6-.7-31.5-.7l1.1 5.5c11.5-.7 26.1-.5 30.9-.4 0-.2.1-.5.1-.8 0-1.4-.2-2.6-.6-3.6" fill="#5a6a6d"/><path d="m8.2 17.2c.8 4.4-.3 8.2-2.4 8.5-2.2.3-4.6-3.1-5.4-7.5-.8-4.4.3-8.2 2.4-8.5 2.1-.3 4.5 3.1 5.4 7.5" fill="#dff4f4"/><path d="m7 17.3c.6 3.1-.2 5.8-1.7 6-1.5.2-3.2-2.2-3.8-5.3-.6-3.1.2-5.8 1.7-6 1.5-.1 3.2 2.2 3.8 5.3" fill="#293030"/><path d="m33 28.9c-.3-.6-.3-2.6 2.2-1.9l9.4.8-2 2-9.6-.9" fill="#5a6a6d"/><path d="m37.2 22.5c-1.3 0-1.8-3.4.3-3.7l9.7 1.8-.6 3.7-9.4-1.8" fill="#87989b"/><path d="m36.3 14.1c-1.4.7-.9-1.3-.5-1.8l9 2.4 1.5 1.9-10-2.5" fill="#5a6a6d"/><path d="m52.4 32.8c-.3 1.1-1.4 1.9-2.5 1.8-1.1-.1-1.7-1-1.4-2.1s1.4-1.9 2.5-1.8c1.1.1 1.7 1 1.4 2.1" fill="#dff4f4"/><path fill="#87989b" d="m52.9 34.1l-.4.3-4.6-3.2.4-.3z"/></svg>