<?xml version="1.0" encoding="utf-8"?>
<!-- Generator: Adobe Illustrator 25.2.3, SVG Export Plug-In . SVG Version: 6.00 Build 0)  -->
<svg version="1.1" id="Layer_1" xmlns="http://www.w3.org/2000/svg" xmlns:xlink="http://www.w3.org/1999/xlink" x="0px" y="0px"
	 viewBox="0 0 128 128" style="enable-background:new 0 0 128 128;" xml:space="preserve">
<path style="fill:#F77E00;" d="M65.72,44.04l18.5,18.4c1.05,1.07,1.03,2.8-0.04,3.85c-0.02,0.02-0.04,0.04-0.06,0.05l-18.4,18.6
	c-1.11,1.1-2.89,1.1-4,0l-18.4-18.5c-1.08-1.06-1.12-2.78-0.1-3.9l18.5-18.4c1.01-1.13,2.75-1.23,3.88-0.21
	C65.65,43.96,65.68,44,65.72,44.04z"/>
<path style="fill:#FF9800;" d="M62.72,46.64l16.1,16.1c0.91,0.95,0.88,2.45-0.06,3.37c-0.01,0.01-0.02,0.02-0.04,0.03l-16,16.2
	c-0.92,0.97-2.45,1-3.42,0.08c-0.03-0.03-0.05-0.05-0.08-0.08l-16.1-16.1c-0.97-0.9-1.02-2.41-0.12-3.38
	c0.01-0.01,0.01-0.01,0.02-0.02l16.2-16.1C60.17,45.76,61.72,45.72,62.72,46.64z"/>
<path style="fill:#FFBD52;" d="M59.82,48.04c-0.5,0.4-11.7,11.5-11.7,11.5c-0.5,0.42-0.62,1.14-0.3,1.7c0.6,0.8,1.5,0.4,2,0
	s10.5-10.3,10.9-10.8c0.41-0.55,0.48-1.28,0.2-1.9c-0.04-0.38-0.38-0.66-0.77-0.62C60.03,47.92,59.92,47.97,59.82,48.04z"/>
<circle style="fill:#FFBD52;" cx="46.62" cy="63.24" r="1.2"/>
</svg>
