<svg xmlns="http://www.w3.org/2000/svg" viewBox="0 0 64 64" enable-background="new 0 0 64 64"><g fill="#b2c1c0"><path d="m49 19h8v45h-8z"/><path d="m57 31h-8l-2-2h12z"/></g><path d="m55 23.3c0-.6-.4-1.2-.9-1.5-.7-.4-1.1-.8-1.1-.8s-.4.4-1.1.8c-.5.3-.9.9-.9 1.5 0 .4.2.8.5 1.1v2.6h3v-2.6c.3-.3.5-.7.5-1.1" fill="#3e4347"/><path fill="#e8e8e8" d="m47 27h12v2h-12z"/><g fill="#d3976e"><path d="m53.2 1.6c-.4 0-.8-.4-.8-.8 0-.4.3-.7.7-.8 0 0-.1 0-.1 0-.6 0-1 .4-1 1 0 .6.4 1 1 1 .6 0 1-.4 1-1 0 0 0-.1 0-.1-.1.4-.4.7-.8.7"/><path d="m52.5 1.8h1v5.2h-1z"/></g><path fill="#e8e8e8" d="m53 5l-4 14h8z"/><circle cx="53" cy="3.2" r="1" fill="#d3976e"/><g fill="#b2c1c0"><path d="m7 19h8v45h-8z"/><path d="m15 31h-8l-2-2h12z"/></g><path d="m13 23.3c0-.6-.4-1.2-.9-1.5-.7-.4-1.1-.8-1.1-.8s-.4.4-1.1.8c-.5.3-.9.9-.9 1.5 0 .4.2.8.5 1.1v2.6h3v-2.6c.3-.3.5-.7.5-1.1" fill="#3e4347"/><path fill="#e8e8e8" d="m5 27h12v2h-12z"/><g fill="#d3976e"><path d="m11.2 1.6c-.4 0-.8-.4-.8-.8 0-.4.3-.7.7-.8 0 0-.1 0-.1 0-.6 0-1 .4-1 1 0 .6.4 1 1 1 .6 0 1-.4 1-1 0 0 0-.1 0-.1-.1.4-.4.7-.8.7"/><path d="m10.5 1.8h1v5.2h-1z"/></g><path fill="#e8e8e8" d="m11 5l-4 14h8z"/><g fill="#d3976e"><circle cx="11" cy="3.2" r="1"/><path d="m31.5 13h1v9h-1z"/></g><g fill="#fbbf67"><path d="m41.5 26.6c-6.4-3.1-9.5-5.6-9.5-5.6s-3.1 2.5-9.5 5.6c-4.3 2.1-7.5 6.2-7.5 10.4 0 6.6 7.6 12 17 12 9.4 0 17-5.4 17-12 0-4.2-3.2-8.3-7.5-10.4"/><circle cx="32" cy="18" r="2"/></g><g fill="#d3976e"><path d="m33 12c-2.2 0-4-1.8-4-4 0-2 1.5-3.7 3.5-3.9-.2-.1-.3-.1-.5-.1-2.8 0-5 2.2-5 5s2.2 5 5 5 5-2.2 5-5c0-.2 0-.3-.1-.5-.2 2-1.9 3.5-3.9 3.5"/><path d="m32 19c-.9 0-1.7-.6-1.9-1.5 0 .2-.1.3-.1.5 0 1.1.9 2 2 2 1.1 0 2-.9 2-2 0-.2 0-.3-.1-.5-.2.9-1 1.5-1.9 1.5"/><path d="m31.5 19.5h1v1h-1z"/><path d="m32 40c-7.7 0-14.1-1.6-16.3-6.5-.4 1.1-.7 2.3-.7 3.5 0 6.6 7.6 12 17 12 9.4 0 17-5.4 17-12 0-1.2-.3-2.4-.7-3.5-2.2 4.9-8.6 6.5-16.3 6.5"/></g><path d="m48 42h-32c-.6 0-1 .5-1 1v20c0 .5.4 1 1 1h32c.5 0 1-.5 1-1v-20c0-.5-.5-1-1-1" fill="#e8e8e8"/><path d="m24.5 54h-7v-3.9c-.3-.5-.5-1.2-.5-1.8 0-1.3.7-2.5 1.9-3.2.5-.3.8-.5.8-.5l1.4-1.3 1.4 1.3c0 0 .3.2.7.5 1.1.7 1.9 1.9 1.9 3.2 0 .6-.2 1.2-.5 1.8v3.9z" fill="#b2c1c0"/><path d="m36 56.6c0-1.2-.7-2.4-1.8-3-1.5-.9-2.2-1.6-2.2-1.6s-.7.7-2.2 1.6c-1 .6-1.8 1.8-1.8 3 0 .9.4 1.6 1 2.2v5.2h6v-5.2c.6-.6 1-1.4 1-2.2" fill="#3e4347"/><path d="m27 64h2v-5.2c-.6-.6-1-1.4-1-2.2 0-1.2.7-2.4 1.8-3 1.5-.9 2.2-1.6 2.2-1.6s.7.7 2.2 1.6c1 .6 1.8 1.8 1.8 3 0 .9-.4 1.6-1 2.2v5.2h2v-4.4c.7-.9 1-1.9 1-3 0-1.9-1.1-3.7-2.8-4.7-1.2-.7-1.9-1.3-1.9-1.3l-1.3-1.4-1.4 1.3c0 0-.6.6-1.9 1.3-1.7 1-2.7 2.8-2.7 4.7 0 1.1.4 2.1 1 3v4.5" fill="#b2c1c0"/><path d="m23 48.3c0-.6-.4-1.2-.9-1.5-.7-.4-1.1-.8-1.1-.8s-.4.4-1.1.8c-.5.3-.9.9-.9 1.5 0 .4.2.8.5 1.1v2.6h3v-2.6c.3-.3.5-.7.5-1.1" fill="#3e4347"/><path d="m46.5 54h-7v-3.9c-.3-.5-.5-1.2-.5-1.8 0-1.3.7-2.5 1.9-3.2.5-.3.8-.5.8-.5l1.4-1.3 1.4 1.3c0 0 .3.2.7.5 1.1.7 1.9 1.9 1.9 3.2 0 .6-.2 1.2-.5 1.8v3.9z" fill="#b2c1c0"/><path d="m45 48.3c0-.6-.4-1.2-.9-1.5-.7-.4-1.1-.8-1.1-.8s-.4.4-1.1.8c-.5.3-.9.9-.9 1.5 0 .4.2.8.5 1.1v2.6h3v-2.6c.3-.3.5-.7.5-1.1" fill="#3e4347"/></svg>