<?xml version="1.0" encoding="UTF-8" standalone="no"?><svg xmlns:dc="http://purl.org/dc/elements/1.1/" xmlns:cc="http://creativecommons.org/ns#" xmlns:rdf="http://www.w3.org/1999/02/22-rdf-syntax-ns#" xmlns:svg="http://www.w3.org/2000/svg" xmlns="http://www.w3.org/2000/svg" viewBox="0 0 45 45" style="enable-background:new 0 0 45 45;" xml:space="preserve" version="1.1" id="svg2"><metadata id="metadata8"><rdf:RDF><cc:Work rdf:about=""><dc:format>image/svg+xml</dc:format><dc:type rdf:resource="http://purl.org/dc/dcmitype/StillImage"/></cc:Work></rdf:RDF></metadata><defs id="defs6"><clipPath id="clipPath16" clipPathUnits="userSpaceOnUse"><path id="path18" d="M 0,36 36,36 36,0 0,0 0,36 Z"/></clipPath></defs><g transform="matrix(1.25,0,0,-1.25,0,45)" id="g10"><g id="g12"><g clip-path="url(#clipPath16)" id="g14"><g transform="translate(23,31.6743)" id="g20"><path id="path22" style="fill:#f4900c;fill-opacity:1;fill-rule:nonzero;stroke:none" d="m 0,0 c 0,-4.368 -9.837,-6.652 -9.837,-13.206 0,-2.184 1.085,-4.468 2.177,-4.468 l 7.66,0 7.631,0 c 1.093,0 2.192,2.284 2.192,4.468 C 9.823,-6.652 0,-4.368 0,0"/></g><g transform="translate(35,2.1846)" id="g24"><path id="path26" style="fill:#ffd983;fill-opacity:1;fill-rule:nonzero;stroke:none" d="m 0,0 c 0,-1.207 -0.289,-2.185 -2.185,-2.185 l -19.659,0 C -23.74,-2.185 -24,-1.207 -24,0 l 0,10.922 c 0,1.206 0.26,1.893 2.156,1.893 l 19.659,0 C -0.289,12.815 0,12.128 0,10.922 L 0,0 Z"/></g><g transform="translate(23,2)" id="g28"><path id="path30" style="fill:#ffd983;fill-opacity:1;fill-rule:nonzero;stroke:none" d="m 0,0 c 0,-1.105 -0.895,-2 -2,-2 l -18,0 c -1.104,0 -2,0.895 -2,2 l 0,1 c 0,1.105 0.896,2 2,2 L -2,3 C -0.895,3 0,2.105 0,1 L 0,0 Z"/></g><g transform="translate(26,7)" id="g32"><path id="path34" style="fill:#662113;fill-opacity:1;fill-rule:nonzero;stroke:none" d="M 0,0 C 0,3 -1.895,5 -3,5 -4.104,5 -6,3 -6,0 l 0,-7 2,0 2,0 2,0 0,7 z"/></g><g transform="translate(18,4.667)" id="g36"><path id="path38" style="fill:#662113;fill-opacity:1;fill-rule:nonzero;stroke:none" d="M 0,0 C 0,2 -1.264,3.333 -2,3.333 -2.736,3.333 -4,2 -4,0 l 0,-4.667 1.333,0 1.334,0 1.333,0 L 0,0 Z"/></g><g transform="translate(32,4.667)" id="g40"><path id="path42" style="fill:#662113;fill-opacity:1;fill-rule:nonzero;stroke:none" d="M 0,0 C 0,2 -1.264,3.333 -2,3.333 -2.736,3.333 -4,2 -4,0 l 0,-4.667 1.334,0 1.332,0 1.334,0 L 0,0 Z"/></g><g transform="translate(9,2)" id="g44"><path id="path46" style="fill:#ffd983;fill-opacity:1;fill-rule:nonzero;stroke:none" d="m 0,0 c 0,-1.105 -0.896,-2 -2,-2 l -2,0 c -1.104,0 -2,0.895 -2,2 l 0,26 c 0,1.104 0.896,2 2,2 l 2,0 c 1.104,0 2,-0.896 2,-2 L 0,0 Z"/></g><g transform="translate(5.9951,35.6743)" id="g48"><path id="path50" style="fill:#f4900c;fill-opacity:1;fill-rule:nonzero;stroke:none" d="m 0,0 c 0,-1.837 -2.832,-2.918 -2.832,-5.675 0,-0.919 0.312,-1.999 0.627,-1.999 l 2.205,0 2.197,0 c 0.314,0 0.631,1.08 0.631,1.999 C 2.828,-2.918 0,-1.837 0,0"/></g><g transform="translate(10,24)" id="g52"><path id="path54" style="fill:#ffac33;fill-opacity:1;fill-rule:nonzero;stroke:none" d="m 0,0 c 0,-0.552 -0.448,-1 -1,-1 l -6,0 c -0.552,0 -1,0.448 -1,1 0,0.552 0.448,1 1,1 l 6,0 C -0.448,1 0,0.552 0,0"/></g><g transform="translate(10,28)" id="g56"><path id="path58" style="fill:#ffac33;fill-opacity:1;fill-rule:nonzero;stroke:none" d="m 0,0 c 0,-0.552 -0.448,-1 -1,-1 l -6,0 c -0.552,0 -1,0.448 -1,1 0,0.552 0.448,1 1,1 l 6,0 C -0.448,1 0,0.552 0,0"/></g></g></g></g></svg>
