<?xml version="1.0" encoding="UTF-8" standalone="no"?><svg xmlns:dc="http://purl.org/dc/elements/1.1/" xmlns:cc="http://creativecommons.org/ns#" xmlns:rdf="http://www.w3.org/1999/02/22-rdf-syntax-ns#" xmlns:svg="http://www.w3.org/2000/svg" xmlns="http://www.w3.org/2000/svg" viewBox="0 0 45 45" style="enable-background:new 0 0 45 45;" xml:space="preserve" version="1.1" id="svg2"><metadata id="metadata8"><rdf:RDF><cc:Work rdf:about=""><dc:format>image/svg+xml</dc:format><dc:type rdf:resource="http://purl.org/dc/dcmitype/StillImage"/></cc:Work></rdf:RDF></metadata><defs id="defs6"><clipPath id="clipPath16" clipPathUnits="userSpaceOnUse"><path id="path18" d="M 0,36 36,36 36,0 0,0 0,36 Z"/></clipPath></defs><g transform="matrix(1.25,0,0,-1.25,0,45)" id="g10"><g id="g12"><g clip-path="url(#clipPath16)" id="g14"><g transform="translate(36,18)" id="g20"><path id="path22" style="fill:#99aab5;fill-opacity:1;fill-rule:nonzero;stroke:none" d="m 0,0 c 0,-9.94 -8.059,-18 -18,-18 -9.941,0 -18,8.06 -18,18 0,9.941 8.059,18 18,18 C -8.059,18 0,9.941 0,0"/></g><g transform="translate(32,18)" id="g24"><path id="path26" style="fill:#e1e8ed;fill-opacity:1;fill-rule:nonzero;stroke:none" d="m 0,0 c 0,-7.731 -6.268,-14 -14,-14 -7.732,0 -14,6.269 -14,14 0,7.732 6.268,14 14,14 C -6.268,14 0,7.732 0,0"/></g><g transform="translate(19,18)" id="g28"><path id="path30" style="fill:#66757f;fill-opacity:1;fill-rule:nonzero;stroke:none" d="m 0,0 c 0,-0.553 -0.447,-1 -1,-1 -0.552,0 -1,0.447 -1,1 l 0,11 c 0,0.552 0.448,1 1,1 0.553,0 1,-0.448 1,-1 L 0,0 Z"/></g><g transform="translate(23.25,26.7627)" id="g32"><path id="path34" style="fill:#66757f;fill-opacity:1;fill-rule:nonzero;stroke:none" d="m 0,0 c 0.479,-0.276 0.643,-0.888 0.367,-1.366 l -4.5,-7.795 c -0.276,-0.478 -0.888,-0.642 -1.367,-0.365 -0.477,0.276 -0.642,0.887 -0.365,1.365 l 4.5,7.795 C -1.089,0.112 -0.477,0.276 0,0"/></g></g></g></g></svg>
