<?xml version="1.0" encoding="utf-8"?>
<!-- Generator: Adobe Illustrator 25.2.3, SVG Export Plug-In . SVG Version: 6.00 Build 0)  -->
<svg version="1.1" id="_x31_" xmlns="http://www.w3.org/2000/svg" xmlns:xlink="http://www.w3.org/1999/xlink" x="0px" y="0px"
	 viewBox="0 0 128 128" style="enable-background:new 0 0 128 128;" xml:space="preserve">
<radialGradient id="SVGID_1_" cx="64.939" cy="25.4126" r="39.3905" gradientTransform="matrix(0.6861 0 0 0.6604 19.2439 9.3232)" gradientUnits="userSpaceOnUse">
	<stop  offset="0.0882" style="stop-color:#FFE265;stop-opacity:0.7"/>
	<stop  offset="0.3977" style="stop-color:#FFEC99;stop-opacity:0.4484"/>
	<stop  offset="0.9493" style="stop-color:#FFFFFF;stop-opacity:0"/>
</radialGradient>
<path style="fill:url(#SVGID_1_);" d="M90.91,26.63c0,13.56-9.16,25.96-27.18,25.58C41.56,51.73,36.69,39.45,36.69,25.9
	S46.34,0,66.05,0C83.91,0,90.91,13.07,90.91,26.63z"/>
<g>
	<g>
		<linearGradient id="SVGID_2_" gradientUnits="userSpaceOnUse" x1="63.8478" y1="66.1915" x2="63.8478" y2="132.5352">
			<stop  offset="0" style="stop-color:#E0E0E0"/>
			<stop  offset="1" style="stop-color:#B0BEC5"/>
		</linearGradient>
		<path style="fill:url(#SVGID_2_);" d="M45,56.23v60.64c0,3.94,8.44,7.13,18.85,7.13s18.85-3.19,18.85-7.13V56.23H45z"/>
		<path style="fill:#EEEEEE;" d="M84.18,66c-1.4-3.1-0.06-4.96-0.49-8.24c-0.16-1.21-0.07-3.18-3.1-4.77c0,0,0,0-0.01,0
			c-0.24-0.13-0.5-0.25-0.77-0.37c-0.94-0.41-2.04-0.78-2.91-0.87c0,0,0,0-0.01,0c-5.71-1.28-15.06-1.76-23.73-4.04
			c-4.19-1.1-6.52-0.77-7.43-0.24c0,0-0.01,0-0.01,0c-2.19,1.14-1.99,5.79-1.64,9.35c0.35,3.56,0.72,7.37-1,10.5
			c-0.45,0.83-1.05,1.59-1.33,2.49c-0.58,1.86,0.47,4.07,2.28,4.79c-1,2.18-1.91,4.49-1.77,6.88c0.13,2.39,1.58,4.86,3.89,5.48
			c0.59,0.16,1.25,0.18,1.79-0.1c1.46-0.77,1.79-2.57,1.81-3.75c0.13-8.88-1.83-17.15-1.45-26.02c0.01-0.21,0.03-0.44,0.16-0.61
			c0.15-0.19,0.42-0.24,0.66-0.25c1.42-0.09,2.85,0.7,3.54,1.94c0.63,1.14,0.64,2.52,1.18,3.71c0.85,1.86,3.11,2.95,5.1,2.47
			c1.11-0.27,2.07-0.95,3.1-1.43c1.04-0.48,2.78-1.17,3.29-0.14c2.28,4.63,5.18,4.44,5.32,5.22c0,0,1.1,8.1,0.93,13.66
			c-0.2,6.52-1.27,12.75-0.37,14.96c1.02,2.51,2.98,2.17,3.74,1.67c3.37-2.21,0.72-10.5,0.96-12.13c0,0,2.53,0.96,3.23-1.83
			c0.72-2.89-2.33-9.22-2.19-14.45c0.09-3.2,1.54-4.44,3.23-3.04c0.22,0.19,1.27,0.59,1.68,2.89c0.42,2.38,0.05,6.13,0.81,7.89
			c0.76,1.76,3.77-0.22,3.77-4.04C86.42,71.59,85,67.82,84.18,66z"/>
		<g>
			
				<radialGradient id="SVGID_3_" cx="64.3632" cy="49.5036" r="22.6272" gradientTransform="matrix(0.9846 0.1746 -0.0561 0.3163 3.7652 22.6085)" gradientUnits="userSpaceOnUse">
				<stop  offset="0" style="stop-color:#FFF176"/>
				<stop  offset="1" style="stop-color:#FFF176;stop-opacity:0"/>
			</radialGradient>
			<path style="fill:url(#SVGID_3_);" d="M53.16,47.73c-5.52-1.45-7.82-0.41-7.88,0.29c-0.31,3.9,18.46,8.43,26.41,9.4
				c7.48,0.92,11.01,0.03,10.6-2.43C81.54,50.47,66.54,51.25,53.16,47.73z"/>
		</g>
		<radialGradient id="SVGID_4_" cx="62.8714" cy="40.6681" r="31.1556" gradientUnits="userSpaceOnUse">
			<stop  offset="0.1702" style="stop-color:#FF9616"/>
			<stop  offset="0.6539" style="stop-color:#FFD429"/>
		</radialGradient>
		<path style="fill:url(#SVGID_4_);" d="M70.19,42.93c-3.95,2.5-9.05,2.63-13.17,0.42c-4.55-2.44-9.34-8.95-5.21-20.63
			c3.99-11.3,11.34-16.7,14.55-18.61c0.54-0.32,1.18,0.16,1.05,0.76c-0.59,2.7-0.84,8.73,4.96,17.43
			C77.92,30.62,76.84,38.72,70.19,42.93z"/>
		<path style="fill:#546E7A;" d="M62.28,50.13c0,0-1.34-3.08-0.94-7.46c0.22-2.42,1.02-4.31,1.44-6.03
			c0.54-2.16,0.57-3.85,0.57-3.85c0.79,0.2,1.83,1.73,1.59,4.58c-0.18,2.13-0.83,5.42-0.79,6.31c0.11,2.42,0.58,4.82,1.33,7.13
			c0.01,0.03,0.02,0.05,0.02,0.08C65.75,51.66,62.45,50.81,62.28,50.13z"/>
		<linearGradient id="SVGID_5_" gradientUnits="userSpaceOnUse" x1="63.9832" y1="34.0041" x2="61.4832" y2="52.7536">
			<stop  offset="0" style="stop-color:#FFA726"/>
			<stop  offset="0.5982" style="stop-color:#FFA726;stop-opacity:0"/>
		</linearGradient>
		<path style="fill:url(#SVGID_5_);" d="M61.35,42.66c0.22-2.42,1.02-4.31,1.44-6.03c0.54-2.16,0.57-3.85,0.57-3.85
			c0.79,0.2,1.83,1.73,1.59,4.58c-0.18,2.13-0.83,5.42-0.79,6.31C64.25,46.09,60.95,47.05,61.35,42.66z"/>
	</g>
	<path style="fill:#FFFDE7;" d="M49.13,48.59c1.97,0.92,3.55,2.49,5.43,3.58c1.35,0.78,2.85,1.3,4.39,1.52
		c0.97,0.14,2,0.18,2.84,0.68c0.51,0.31,0.95,1,0.6,1.49c-0.16,0.23-0.44,0.33-0.71,0.38c-1.02,0.19-2.05-0.23-3.09-0.32
		c-1.56-0.13-3.24,0.47-4.66-0.22c-1.26-0.61-1.92-2.08-3.17-2.71c-0.7-0.36-1.51-0.41-2.3-0.44c-1.5-0.07-4.2-0.65-3.94-2.74
		C44.81,47.63,47.74,47.95,49.13,48.59z"/>
	<path style="fill:#FFFDE7;" d="M72.03,59.47c2.65,0.87,5.74,0.79,8.01-0.83c0.88-0.63,1.65-1.56,1.71-2.64
		c0.07-1.08-0.82-2.24-1.9-2.15c-0.7,0.06-1.26,0.56-1.84,0.94c-2.57,1.66-5.17,0.65-7.94,0.96C65.72,56.23,70.35,58.92,72.03,59.47
		z"/>
	<path style="fill:#FFFFFF;" d="M73.36,92.57c0.05,0.92,0.08,1.87-0.17,2.76c-0.06,0.21-0.71,1.2-1.55,0.53
		c-0.77-0.61-0.65-1.78-0.6-2.76c0.15-3.09,0.34-5.73,0.81-8.76c0.2-1.3,0.87-0.15,0.95,0.65c0.08,0.8,0.11,1.76,0.17,2.36
		C73.16,89.08,73.27,90.82,73.36,92.57z"/>
	<path style="fill:#FFFFFF;" d="M45.96,73.76c-0.2,0.06-0.41,0.1-0.61,0.04c-0.35-0.09-0.59-0.43-0.66-0.78
		c-0.07-0.35,0-0.71,0.08-1.06c0.36-1.42,1.07-2.73,1.76-4.03c0.96-1.77,1.51,1.4,1.48,2.13C47.96,71.48,47.47,73.28,45.96,73.76z"
		/>
</g>
</svg>
