<svg xmlns="http://www.w3.org/2000/svg" viewBox="0 0 64 64" enable-background="new 0 0 64 64"><g fill="#222526"><path d="m3.6 32.6c4-13.4 8.3-19.6 10.1-19.6 1 0 1.3.7 1.7 2.2.9 3.7.1 4.9-.5 5.4-.7.7-1.8.1-1.8-3.8-.9 2.3-5.3 10.4-7.6 19l-1.9-3.2"/><path d="m60.4 32.6c-4-13.4-8.3-19.6-10.1-19.6-1 0-1.3.7-1.7 2.2-.9 3.7-.1 4.9.5 5.4.7.7 1.8.1 1.8-3.8.9 2.3 5.3 10.4 7.6 19l1.9-3.2"/></g><path d="m36.1 33.3c-2.4 1.2-5.9 1.2-8.2 0-2.5-1.3-5.6-2.2-9.3-2.5-3.6-.3-11.2-.3-15 1.1-.4.2-.9.4-1.3.6-.2.1-.3.1-.3.6v.6c0 1.1-.1.7.6 1.1 1.5.9 2.4 3.2 2.8 6.4.6 4.6 2.9 7.5 6.5 8.9 3.3 1.3 7.1 1.2 10.4-.1 1.8-.7 3.4-1.9 4.7-3.8 2.2-3.3 1.6-5.4 2.7-8.3 1-2.5 3.8-2.5 4.8 0 1.1 2.9.5 4.9 2.7 8.3 1.3 1.9 2.9 3.1 4.7 3.8 3.3 1.4 7 1.4 10.4.1 3.6-1.4 5.8-4.3 6.5-8.9.4-3.2 1.3-5.5 2.8-6.4.8-.5.6 0 .6-1.1v-.6c0-.4 0-.5-.3-.7-.4-.2-.8-.4-1.3-.6-3.8-1.4-11.4-1.4-15-1.1-3.9.4-7 1.3-9.5 2.6" fill="#363b3d"/><g fill="#5f6566"><path d="m26.2 35.1c-.8-.6-2.4-1.1-4.2-1.4-1-.2-2.2-.3-3.4-.4-2.7-.2-5.6-.2-7.5.2-1.2.2-2.1.5-2.4.9-1.4 1.6-1.1 6.1.3 9.3.4.8.9 1.6 1.4 2.2.9 1 2.1 1.6 3.5 2 .9.3 1.8.4 2.8.5 1.6.1 3.2-.1 4.7-.5.3-.1.5-.2.7-.3 4.3-1.9 5.4-9.1 4.7-11.7-.1-.3-.3-.6-.6-.8"/><path d="m55.7 34.5c-.1-.1-.1-.2-.2-.3-.6-.8-3.5-1.1-6.7-1.1-1.2 0-2.4.1-3.6.2-1.3.1-2.6.3-3.7.5-2.2.5-3.8 1.2-4 2.1-.4 1.6-.2 4.8 1 7.6.5 1.1 1.1 2.2 2 3 .7.7 1.5 1.2 2.5 1.4.2 0 .3.1.5.1 3 .7 6.5.5 9-1 .5-.3 1-.7 1.5-1.1 2.3-2.6 3.2-9 1.7-11.4"/></g></svg>