<?xml version="1.0" encoding="utf-8"?>
<!-- Generator: Adobe Illustrator 24.0.3, SVG Export Plug-In . SVG Version: 6.00 Build 0)  -->
<svg version="1.1" id="Layer_1" xmlns="http://www.w3.org/2000/svg" xmlns:xlink="http://www.w3.org/1999/xlink" x="0px" y="0px"
	 viewBox="0 0 128 128" style="enable-background:new 0 0 128 128;" xml:space="preserve">
<linearGradient id="suit_2_" gradientUnits="userSpaceOnUse" x1="53" y1="34.7402" x2="53" y2="-4.3297" gradientTransform="matrix(1 0 0 -1 0 130)">
	<stop  offset="0.1609" style="stop-color:#606060"/>
	<stop  offset="0.2878" style="stop-color:#606060"/>
	<stop  offset="0.449" style="stop-color:#595959"/>
	<stop  offset="0.6836" style="stop-color:#464646"/>
	<stop  offset="0.962" style="stop-color:#262626"/>
	<stop  offset="1" style="stop-color:#212121"/>
</linearGradient>
<path id="suit_3_" style="fill:url(#suit_2_);" d="M50.1,95.4H50c-18.1,0-36.8,3.7-46,12.2v2.3v2.1v11.9h95h1.5h1.5v-3.4
	C102,103.7,75.7,95.4,50.1,95.4z"/>
<g id="hairGroup_4_">
	<path id="hair_3_" style="fill:#AB872F;" d="M87.8,40.38c0.29,2.92,0.57,6.04,0.83,9.31c0.03,0.42,0.06,0.83,0.1,1.25
		c0.04,0.54,0.08,1.09,0.12,1.64c0.05,0.73,0.11,1.45,0.15,2.19c0.18,2.63,0.33,5.34,0.46,8.09c0.08,1.76,0.14,3.52,0.21,5.3
		c0,0.09,0.01,0.17,0,0.26c0.02,0.94,0.05,1.89,0.07,2.84c0,0.26,0.01,0.53,0.02,0.81c0.03,1.67,0.04,3.34,0.05,5.02
		c0,1.65-0.01,3.3-0.03,4.94c-0.01,0.66-0.02,1.33-0.04,2c0,0.64-0.03,1.25-0.05,1.88c-0.02,0.49-0.04,0.99-0.05,1.47
		c-0.02,0.49-0.04,0.98-0.07,1.47c-0.04,0.77-0.11,2.17-0.19,3.77c-0.08,1.19-0.17,2.36-0.26,3.52c-0.05,0.61-0.11,1.22-0.16,1.82
		c-0.05,0.53-0.03,1.89-0.05,2.72c0,0.03,0.01,0.06,0,0.09c0,0.1-0.02,0.18-0.02,0.25c0,0.06,0,0.11-0.01,0.14L11.24,99.9
		c-0.07-0.64-0.14-1.29-0.2-1.94c-0.06-0.6-0.11-1.21-0.16-1.82c-0.19-2.38-0.35-4.83-0.45-7.29c-0.03-0.49-0.05-0.98-0.06-1.47
		c-0.02-0.49-0.03-0.99-0.05-1.47c-0.02-0.63-0.04-1.24-0.05-1.88c-0.02-0.67-0.03-1.33-0.04-2c-0.02-1.64-0.03-3.29-0.03-4.94
		c0.01-1.67,0.02-3.35,0.05-5.02c0.01-0.28,0.01-0.54,0.02-0.81c0.02-0.95,0.05-1.9,0.07-2.84c0-0.09,0.01-0.17,0.01-0.26
		c0.06-1.79,0.12-3.55,0.21-5.3c0.13-2.75,0.28-5.46,0.46-8.09c0.04-0.73,0.1-1.46,0.15-2.19c0.05-0.55,0.08-1.1,0.12-1.64
		c0.03-0.42,0.06-0.84,0.1-1.25c0.26-3.27,0.54-6.39,0.83-9.31c0.01-0.12,0.18-2,0.87-4.81L43.54,7.6c1.93-0.25,4.01-0.39,6.22-0.42
		l36.93,26.75C87.62,37.62,87.79,40.23,87.8,40.38z"/>
	
		<radialGradient id="hairHighlights_1_" cx="50.3863" cy="64.3388" r="42.3755" gradientTransform="matrix(1 0 0 -1.1901 0 142.0687)" gradientUnits="userSpaceOnUse">
		<stop  offset="0.7936" style="stop-color:#BFA055;stop-opacity:0"/>
		<stop  offset="1" style="stop-color:#BFA055"/>
	</radialGradient>
	<path id="hairHighlights_3_" style="fill:url(#hairHighlights_1_);" d="M87.8,40.38c0.29,2.92,0.57,6.04,0.83,9.31
		c0.03,0.42,0.06,0.83,0.1,1.25c0.04,0.54,0.08,1.09,0.12,1.64c0.05,0.73,0.11,1.45,0.15,2.19c0.18,2.63,0.33,5.34,0.46,8.09
		c0.08,1.76,0.14,3.52,0.21,5.3c0,0.09,0.01,0.17,0,0.26c0.02,0.94,0.05,1.89,0.07,2.84c0,0.26,0.01,0.53,0.02,0.81
		c0.03,1.67,0.04,3.34,0.05,5.02c0.01,1.64,0,3.3-0.03,4.94c-0.01,0.66-0.02,1.33-0.04,2c0,0.64-0.03,1.25-0.05,1.88
		c-0.02,0.49-0.04,0.99-0.05,1.47c-0.02,0.49-0.04,0.98-0.07,1.47c-0.04,0.77-0.11,2.17-0.19,3.77c-0.17,3.01-0.38,6.71-0.48,8.07
		c0,0.03,0.01,0.06,0,0.09c0,0.1-0.02,0.18-0.02,0.25c0,0.06,0,0.11-0.01,0.14L11.24,99.9c-0.07-0.64-0.14-1.29-0.2-1.94
		c-0.06-0.6-0.11-1.21-0.16-1.82c-0.19-2.38-0.35-4.83-0.45-7.29c-0.03-0.49-0.05-0.98-0.06-1.47c-0.02-0.49-0.03-0.99-0.05-1.47
		c-0.02-0.63-0.04-1.24-0.05-1.88c-0.02-0.67-0.03-1.33-0.04-2c-0.02-1.64-0.03-3.29-0.03-4.94c0.01-1.67,0.02-3.35,0.05-5.02
		c0.01-0.28,0.01-0.54,0.02-0.81c0.02-0.95,0.05-1.9,0.07-2.84c0-0.09,0.01-0.17,0.01-0.26c0.06-1.79,0.12-3.55,0.21-5.3
		c0.13-2.75,0.28-5.46,0.46-8.09c0.04-0.73,0.1-1.46,0.15-2.19c0.05-0.55,0.08-1.1,0.12-1.64c0.03-0.42,0.06-0.84,0.1-1.25
		c0.26-3.27,0.54-6.39,0.83-9.31c0.01-0.12,0.18-2,0.87-4.81L43.54,7.6c1.93-0.25,4.01-0.39,6.22-0.42l36.93,26.75
		C87.62,37.62,87.79,40.23,87.8,40.38z"/>
</g>
<path id="collar_1_" style="fill:#404042;" d="M33.48,96.33c4.06,0.85,7.46,22.1,12.28,27.57h5.95c8.4-5.57,16.9-27.57,21.53-29.56
	c3.59-1.51,5.76-3.4,5.76-5.38c0-5-12.94-8.97-28.9-8.97s-28.99,4.06-28.99,8.97C21.11,92.08,26.02,94.72,33.48,96.33z"/>
<path id="neck_1_" style="fill:#C48E6A;" d="M49.07,110.53c-4.47,0-8.12-3.6-8.12-8.02V92.46h18.08v10.05
	c0,4.43-3.65,8.02-8.12,8.02L49.07,110.53L49.07,110.53z"/>
<g id="face_1_">
	<path id="head_3_" style="fill:#E0BB95;" d="M50.03,95.68c-2.36,0-5.06-0.51-7.77-1.47c-11.65-4.12-25.25-16.79-25.25-38.93
		c0-29.52,17.79-39.99,33.02-39.99s33.02,10.47,33.02,39.99c0,22.18-13.63,34.84-25.29,38.95C55.05,95.18,52.37,95.68,50.03,95.68z"
		/>
	<g id="eyes_2_">
		<ellipse style="fill:#5D4037;" cx="34.2" cy="58.7" rx="4.9" ry="5.1"/>
		<ellipse style="fill:#5D4037;" cx="65.8" cy="60" rx="6" ry="6.2"/>
	</g>
	<path id="nose_2_" style="fill:#C48E6A;" d="M53.9,67.9c-0.1,0-0.2-0.1-0.3-0.1h-7.1c-0.1,0-0.2,0-0.3,0.1c-0.6,0.3-1,0.9-0.7,1.6
		s1.7,2.7,4.5,2.7s4.2-2,4.5-2.7C54.9,68.8,54.5,68.2,53.9,67.9z"/>
	<path id="mouth_2_" style="fill:#6D4C41;" d="M58.5,76c-3.2,1.9-13.6,1.9-16.8,0c-1.8-1.1-3.7,0.6-2.9,2.2s6.5,5.4,11.4,5.4
		s10.5-3.8,11.3-5.4C62.2,76.6,60.4,74.9,58.5,76z"/>
	<g id="eyebrows_3_">
		<path style="fill:#AB872F;" d="M41.43,50.83c-0.93-1.23-3.07-3.01-7.23-3.01s-6.31,1.79-7.23,3.01c-0.41,0.54-0.31,1.17-0.02,1.55
			c0.26,0.35,1.04,0.68,1.9,0.39s2.54-1.16,5.35-1.18c2.81,0.02,4.49,0.89,5.35,1.18s1.64-0.03,1.9-0.39
			C41.74,52,41.84,51.38,41.43,50.83z"/>
		<path style="fill:#AB872F;" d="M75.48,50.59c-1.11-1.47-3.68-3.61-8.67-3.61s-7.56,2.14-8.67,3.61c-0.49,0.65-0.37,1.4-0.03,1.86
			c0.32,0.42,1.25,0.81,2.28,0.46s3.05-1.39,6.42-1.42c3.37,0.02,5.39,1.07,6.42,1.42s1.96-0.04,2.28-0.46
			C75.84,51.99,75.97,51.24,75.48,50.59z"/>
	</g>
</g>
<g id="hairGroup_3_">
	<path id="hair_2_" style="fill:#AB872F;" d="M87.8,40.38c0.74,7.43,1.42,16.18,1.78,25.36c0,0.05-0.01,0.12-0.01,0.17h-7.7
		c-0.27-4.09-2.49-20.63-5.54-22.74c-3.65-2.53-13.58-9.05-16.8-15.5c0,0-11.58,10.77-32.84,15.53c-5.89,1.32-9.31,19.57-9.51,22.69
		l-6.76,0.01c0.34-9.24,1.03-18.05,1.77-25.53c0.01-0.13,0.19-2.1,0.92-5.03l33.9-28.07c1.11-0.07,2.27-0.1,3.47-0.1
		c1.2,0,2.37,0.03,3.48,0.1l32.68,26.56C87.62,37.58,87.79,40.23,87.8,40.38z"/>
	
		<radialGradient id="hairHighlights_4_" cx="50.3312" cy="67.8241" r="41.2825" gradientTransform="matrix(1 0 0 -1.2135 0 144.3075)" gradientUnits="userSpaceOnUse">
		<stop  offset="0.7945" style="stop-color:#BFA055;stop-opacity:0"/>
		<stop  offset="1" style="stop-color:#BFA055"/>
	</radialGradient>
	<path id="hairHighlights_2_" style="fill:url(#hairHighlights_4_);" d="M87.8,40.38c0.74,7.43,1.42,16.18,1.78,25.36
		c0,0.05-0.01,0.12-0.01,0.17h-7.7c-0.27-4.09-2.49-20.63-5.54-22.74c-3.65-2.53-13.58-9.05-16.8-15.5c0,0-11.58,10.77-32.84,15.53
		c-5.89,1.32-9.31,19.57-9.51,22.69l-6.76,0.01c0.34-9.24,1.03-18.05,1.77-25.53c0.01-0.13,0.19-2.1,0.92-5.03l33.9-28.07
		c1.11-0.07,2.27-0.1,3.47-0.1c1.2,0,2.37,0.03,3.48,0.1l32.68,26.56C87.62,37.58,87.79,40.23,87.8,40.38z"/>
</g>
<polygon id="shirt_2_" style="fill:#BDBDBD;" points="58.4,124 60.6,105 39.4,105 41.9,124 "/>
<g id="suit_1_">
	<g>
		<g>
			<g>
				<defs>
					<rect id="SVGID_1_" x="4" y="4" width="120" height="120"/>
				</defs>
				<clipPath id="SVGID_2_">
					<use xlink:href="#SVGID_1_"  style="overflow:visible;"/>
				</clipPath>
				<g style="clip-path:url(#SVGID_2_);">
					<path style="fill:#616161;" d="M116.9,124l-2.1-11.6l-9.9-2.5c-3.3-0.8-6.5,1.3-7,4.7c0,0-0.8,2.9-2.3,9.4H116.9z"/>
				</g>
			</g>
		</g>
	</g>
	<g>
		<g>
			<g>
				<defs>
					<rect id="SVGID_3_" x="4" y="4" width="120" height="120"/>
				</defs>
				<clipPath id="SVGID_4_">
					<use xlink:href="#SVGID_3_"  style="overflow:visible;"/>
				</clipPath>
				<ellipse style="clip-path:url(#SVGID_4_);fill:#404042;" cx="106.5" cy="114.4" rx="8.7" ry="8"/>
			</g>
		</g>
	</g>
	<g>
		<g>
			<g>
				<defs>
					<rect id="SVGID_5_" x="4" y="4" width="120" height="120"/>
				</defs>
				<clipPath id="SVGID_6_">
					<use xlink:href="#SVGID_5_"  style="overflow:visible;"/>
				</clipPath>
				<g style="clip-path:url(#SVGID_6_);">
					<path style="fill:#808080;" d="M24.55,97.46l-0.3-0.15c-0.59-0.29-12.34-1.25-18.81,6.56c-0.87,1.04-0.96,2.32-0.2,3.38
						l3.1,3.7c0.71,0.85,1.69,1.51,2.61,1.51c0.36,0,0.72-0.1,1.04-0.33c8.17-5.79,12.84-6.06,15.32-5.26l2.25,0.72L24.55,97.46z"/>
					<circle style="fill:#757575;stroke:#9E9E9E;stroke-miterlimit:10;" cx="11.3" cy="105.5" r="2.7"/>
					<g>
						<circle style="fill:#424242;" cx="12.2" cy="105.6" r="0.6"/>
						<circle style="fill:#424242;" cx="10.4" cy="105.3" r="0.6"/>
					</g>
				</g>
			</g>
		</g>
	</g>
	<g>
		<g>
			<g>
				<defs>
					<rect id="SVGID_7_" x="4" y="4" width="120" height="120"/>
				</defs>
				<clipPath id="SVGID_8_">
					<use xlink:href="#SVGID_7_"  style="overflow:visible;"/>
				</clipPath>
				<g style="clip-path:url(#SVGID_8_);">
					<path style="fill:#808080;" d="M92.67,103.86L92.67,103.86c-6.57-7.8-18.24-6.85-18.82-6.55l-0.3,0.15l-4.99,10.12l2.25-0.72
						c2.48-0.8,7.15-0.53,15.25,5.22c0.32,0.27,0.68,0.38,1.05,0.38c1,0,2.07-0.81,2.65-1.5l3.15-3.76
						C93.63,106.18,93.54,104.9,92.67,103.86z"/>
					<circle style="fill:#757575;stroke:#9E9E9E;stroke-miterlimit:10;" cx="86.7" cy="105.5" r="2.7"/>
					<g>
						<circle style="fill:#424242;" cx="85.8" cy="105.6" r="0.6"/>
						<circle style="fill:#424242;" cx="87.7" cy="105.3" r="0.6"/>
					</g>
				</g>
			</g>
		</g>
	</g>
	<g>
		<g>
			<g>
				<defs>
					<rect id="SVGID_9_" x="4" y="4" width="120" height="120"/>
				</defs>
				<clipPath id="SVGID_10_">
					<use xlink:href="#SVGID_9_"  style="overflow:visible;"/>
				</clipPath>
				<g style="clip-path:url(#SVGID_10_);">
					
						<linearGradient id="SVGID_11_" gradientUnits="userSpaceOnUse" x1="33.95" y1="-1252.816" x2="33.95" y2="-1294.17" gradientTransform="matrix(1 0 0 -1 0 -1158.0001)">
						<stop  offset="0.1252" style="stop-color:#757575"/>
						<stop  offset="0.2997" style="stop-color:#707070"/>
						<stop  offset="0.5018" style="stop-color:#626262"/>
						<stop  offset="0.7177" style="stop-color:#4B4B4B"/>
						<stop  offset="0.9419" style="stop-color:#2B2B2B"/>
						<stop  offset="1" style="stop-color:#212121"/>
					</linearGradient>
					<path style="fill:url(#SVGID_11_);" d="M46.6,124l-3.2-27.5c-0.2-0.8-0.8-1.4-1.5-1.4l0,0c-0.8,0.1-1.6,0.1-2.3,0.1
						c-7.8,0-14.8-3.2-18.3-5.2l11.4,34H46.6z"/>
					
						<linearGradient id="SVGID_12_" gradientUnits="userSpaceOnUse" x1="66.05" y1="-1252.7891" x2="66.05" y2="-1294.17" gradientTransform="matrix(1 0 0 -1 0 -1158.0001)">
						<stop  offset="0.1252" style="stop-color:#757575"/>
						<stop  offset="0.2997" style="stop-color:#707070"/>
						<stop  offset="0.5018" style="stop-color:#626262"/>
						<stop  offset="0.7177" style="stop-color:#4B4B4B"/>
						<stop  offset="0.9419" style="stop-color:#2B2B2B"/>
						<stop  offset="1" style="stop-color:#212121"/>
					</linearGradient>
					<path style="fill:url(#SVGID_12_);" d="M67.4,124l11.4-34c-3.5,2-10.6,5.2-18,5.2c-0.9,0-1.8,0-2.6-0.2h-0.1
						c-0.6,0-1.2,0.6-1.4,1.4L53.3,124H67.4z"/>
				</g>
			</g>
		</g>
	</g>
</g>
<g id="hat_2_">
	
		<radialGradient id="SVGID_13_" cx="117.2041" cy="-1548.2715" r="61.7378" gradientTransform="matrix(0.9182 0 0 -0.7823 -57.6668 -1176.2109)" gradientUnits="userSpaceOnUse">
		<stop  offset="3.200000e-03" style="stop-color:#757575"/>
		<stop  offset="0.3326" style="stop-color:#686868"/>
		<stop  offset="0.9409" style="stop-color:#464646"/>
		<stop  offset="1" style="stop-color:#424242"/>
	</radialGradient>
	<path style="fill:url(#SVGID_13_);" d="M83.5,26.76c-4.5-1.14-10.9-2.08-17-2.7c-5.1-0.52-10.7,0.52-16.5,0.52
		s-11.4-1.04-16.5-0.52c-6.1,0.52-13.7,2.7-18.2,3.84C7.5,29.88,4,31.95,4,34.86s4.1,4.26,12,6.23c4.5,1.14,8,3.74,15.9,4.67
		c5.1,0.62,13.6-1.25,19.3-1.25c5.8,0,13.4,1.87,18.5,1.35c6.1-0.52,9.7-3.01,14.2-4.15c7.9-1.97,12-4.05,12-6.96
		S91.4,28.73,83.5,26.76z"/>
	
		<radialGradient id="SVGID_14_" cx="140.2542" cy="998.9203" r="33.4313" gradientTransform="matrix(9.800000e-14 0.9331 1.4131 -1.420000e-13 -1362.2303 -123.9102)" gradientUnits="userSpaceOnUse">
		<stop  offset="3.200000e-03" style="stop-color:#757575"/>
		<stop  offset="0.3326" style="stop-color:#686868"/>
		<stop  offset="0.9409" style="stop-color:#464646"/>
		<stop  offset="1" style="stop-color:#424242"/>
	</radialGradient>
	<path style="fill:url(#SVGID_14_);" d="M64.6,4.44c-2.8-0.73-7.4-0.41-10.2,0c-7.1,1.25-6.1,0.52-12.8-0.1
		c-2.7-0.31-6.3-0.52-8.9,0.31c-10,3.12-11.2,11.94-17.5,25.44c0.1,12.36,70,12.25,69.9,0C79,17.21,75,7.24,64.6,4.44z"/>
	<path style="opacity:0.2;fill:#EEEEEE;enable-background:new    ;" d="M38.8,10.35c3.2,2.28,7.1,3.43,11,2.91
		c3.5-0.41,6.9-1.77,10.1-3.32c0.5-0.31,1.1,0.31,0.9,0.94c-0.5,1.35-5.5,6.44-11.4,6.44c-5.5,0-9.2-2.39-11.1-5.82
		C37.9,10.98,38.1,9.84,38.8,10.35z"/>
	<path style="fill:#404042;" d="M82.1,23.44c-11.6,6.85-52.3,6.85-63.8-0.1c-1,2.18-2,4.47-3,6.75c0.1,12.36,70,12.25,69.9,0
		C84.1,27.9,83.1,25.62,82.1,23.44z"/>
</g>
<g id="magnifier_2_">
	<g style="opacity:0.6;">
		
			<radialGradient id="SVGID_15_" cx="191.292" cy="-1029.1685" r="41.908" gradientTransform="matrix(0.9938 0.1109 0.1109 -0.9938 -14.8125 -1002.5296)" gradientUnits="userSpaceOnUse">
			<stop  offset="0" style="stop-color:#FAFAFA"/>
			<stop  offset="1" style="stop-color:#EEEEEE"/>
		</radialGradient>
		<path style="fill:url(#SVGID_15_);" d="M90.17,43.4c7.3,9.2,5.8,22.7-3.3,30.1s-22.6,5.8-30-3.4s-5.8-22.7,3.4-30.1
			S82.77,34.2,90.17,43.4z"/>
	</g>
	<polygon style="fill:#C7C7C7;" points="101.16,85.78 95.48,90.3 82.84,74.52 88.52,70 	"/>
	
		<radialGradient id="SVGID_16_" cx="42.4873" cy="-1219.8276" r="48.964" gradientTransform="matrix(0.9997 -0.0234 -0.0234 -0.9997 1.0401 -1186.1471)" gradientUnits="userSpaceOnUse">
		<stop  offset="0" style="stop-color:#E0E0E0"/>
		<stop  offset="0.2274" style="stop-color:#DBDBDB"/>
		<stop  offset="0.4939" style="stop-color:#CDCDCD"/>
		<stop  offset="0.7789" style="stop-color:#B5B5B5"/>
		<stop  offset="1" style="stop-color:#9E9E9E"/>
	</radialGradient>
	<path style="fill:url(#SVGID_16_);" d="M92.5,41.3C84.1,30.7,68.8,29,58.3,37.5s-12.2,23.9-3.8,34.4s23.7,12.3,34.2,3.8
		S100.9,51.8,92.5,41.3z M85.14,71.17c-8.04,6.43-19.78,5.2-26.21-2.93s-5.11-19.87,2.93-26.4s19.78-5.2,26.21,2.93
		C94.51,52.9,93.18,64.73,85.14,71.17z"/>
	
		<radialGradient id="SVGID_17_" cx="93.1976" cy="48.4152" r="13.6102" gradientTransform="matrix(1 0 0 -1 0 130)" gradientUnits="userSpaceOnUse">
		<stop  offset="0" style="stop-color:#FFA726"/>
		<stop  offset="0.0404" style="stop-color:#FFA623"/>
		<stop  offset="0.5168" style="stop-color:#FF9800"/>
		<stop  offset="1" style="stop-color:#FB8C00"/>
	</radialGradient>
	<path style="fill:url(#SVGID_17_);" d="M113.1,100.6l-0.4-0.5c-0.4-3.4-2.4-7.9-5.8-12.2c-3-3.8-6.4-6.6-9.4-7.9
		c-0.8-0.4-1.5-1-2.1-1.7l-0.8-1l-6.2,5l0.8,1c0.6,0.7,1,1.5,1.2,2.4C91,89,93,93,96,96.7c3.4,4.3,7.3,7.3,10.5,8.4l0.4,0.5
		c0.4,0.5,1,0.8,1.7,0.8c0.5,0,0.9-0.2,1.3-0.5l0.9-0.7c0.2-0.1,0.4-0.2,0.6-0.4c0.2-0.1,0.3-0.3,0.5-0.5l0.9-0.7
		C113.7,102.9,113.9,101.5,113.1,100.6z"/>
	<path style="fill:#ABABAB;" d="M96.6,80.4L90.8,85c-0.7,0.5-1.6,0.4-2.1-0.2l-0.4-0.6c-0.5-0.7-0.4-1.6,0.2-2.1l5.8-4.7
		c0.7-0.5,1.6-0.4,2.1,0.2l0.4,0.6C97.4,78.9,97.3,79.8,96.6,80.4z"/>
</g>
<g id="hand_1_">
	
		<radialGradient id="palm_2_" cx="-14.4023" cy="165.9153" r="21.6846" gradientTransform="matrix(-0.635 -0.7725 -0.8167 0.6714 227.4518 -7.6063)" gradientUnits="userSpaceOnUse">
		<stop  offset="0.3074" style="stop-color:#E0BB95"/>
		<stop  offset="1" style="stop-color:#CCA47A"/>
	</radialGradient>
	<path id="palm_1_" style="fill:url(#palm_2_);" d="M101.53,97.62c-0.82,0.87-1.56,1.81-2.12,2.86c-0.81,1.5-8.06,4.3-4.06,10.29
		c1.17,1.61,4.82,6.69,8.02,8.1c6.69,2.95,16.21-6.33,17.1-6.82c5.6-3.05-8.94-17.41-13.34-17.3c-0.53,0.04-1.32,0.19-2.03,0.3
		C103.73,95.29,102.39,96.72,101.53,97.62z"/>
	
		<radialGradient id="finger_4_" cx="75.2149" cy="-22.3479" r="15.8888" gradientTransform="matrix(0.5293 -0.8484 -0.8484 -0.5293 59.3647 147.1015)" gradientUnits="userSpaceOnUse">
		<stop  offset="0" style="stop-color:#CCA47A"/>
		<stop  offset="1" style="stop-color:#E0BB95"/>
	</radialGradient>
	<path id="finger_10_" style="fill:url(#finger_4_);" d="M119.9,107.09l-5.74,4.2c-0.75,0.52-0.98,1.47-0.58,2.23l0,0
		c0.42,0.84,1.49,1.12,2.37,0.68l6.22-3.44c1.01-0.53,1.41-1.77,0.84-2.71l-0.29-0.48C122.12,106.61,120.83,106.39,119.9,107.09z"/>
	
		<radialGradient id="finger_6_" cx="94.5887" cy="-24.9644" r="15.8727" gradientTransform="matrix(0.9078 -0.4835 -0.4667 -0.8846 12.2787 114.8262)" gradientUnits="userSpaceOnUse">
		<stop  offset="0" style="stop-color:#CCA47A"/>
		<stop  offset="1" style="stop-color:#E0BB95"/>
	</radialGradient>
	<path id="finger_5_" style="fill:url(#finger_6_);" d="M98.35,114.61c0,0,1.74-0.08,4.02-0.72c6.9-1.96,2.59-8.93,1.94-10.03
		c-3.31-5.64,2.14-7.99,5.8-11.2c0.76-0.67,3.18-3.19,2.54-5.57c-1.53-3.61-4.58-1.2-11.4,3.39c-1.86,1.25-3.6,2.63-5.17,4.23
		C88.58,102.3,95.11,110.96,98.35,114.61z"/>
	
		<radialGradient id="finger_7_" cx="89.4019" cy="-31.4644" r="18.06" gradientTransform="matrix(0.7524 -0.6587 -0.6587 -0.7524 34.0669 128.7977)" gradientUnits="userSpaceOnUse">
		<stop  offset="0" style="stop-color:#CCA47A"/>
		<stop  offset="1" style="stop-color:#E0BB95"/>
	</radialGradient>
	<path id="finger_3_" style="fill:url(#finger_7_);" d="M114.64,96.58l-7.56,6.87c-1.02,0.91-0.41,1.75,0.32,2.82l0,0
		c0.78,1.18,1.64,2.04,2.88,1.21l8.41-5.83c1.42-0.98,1.79-2.91,0.77-4.21l-0.52-0.66C117.88,95.46,115.92,95.36,114.64,96.58z"/>
	
		<radialGradient id="finger_8_" cx="97.0415" cy="-34.2785" r="17.2586" gradientTransform="matrix(0.8382 -0.5454 -0.5454 -0.8382 21.8559 118.5421)" gradientUnits="userSpaceOnUse">
		<stop  offset="0" style="stop-color:#CCA47A"/>
		<stop  offset="1" style="stop-color:#E0BB95"/>
	</radialGradient>
	<path id="finger_2_" style="fill:url(#finger_8_);" d="M110.88,91.9l-6.19,6.28c-0.93,0.92-1.03,2.33-0.28,3.32l0,0
		c0.8,1.09,2.4,1.23,3.54,0.38l7.06-5.32c1.31-1,1.57-2.87,0.53-4.07l-0.53-0.61C113.93,90.67,112.04,90.67,110.88,91.9z"/>
	
		<radialGradient id="finger_9_" cx="80.9732" cy="-26.3028" r="17.2647" gradientTransform="matrix(0.6377 -0.7703 -0.7703 -0.6377 48.0684 139.4478)" gradientUnits="userSpaceOnUse">
		<stop  offset="0" style="stop-color:#CCA47A"/>
		<stop  offset="1" style="stop-color:#E0BB95"/>
	</radialGradient>
	<path id="finger_1_" style="fill:url(#finger_9_);" d="M117.65,102.04l-6.13,5.25c-0.93,0.76-1.13,2.04-0.52,3l0,0
		c0.64,1.06,2.08,1.32,3.19,0.63l6.85-4.31c1.28-0.81,1.67-2.49,0.81-3.67l-0.43-0.6C120.53,101.17,118.81,101.02,117.65,102.04z"/>
	<path id="tone_2_" style="fill:#BA8F63;" d="M118.86,101.51c-0.6-0.97-7.14,5.5-8.6,5.44c-1.67-0.07-2.82-1.81-2.01-3.33
		c0.92-1.71,7.58-7.21,7.28-7.59c-0.56-0.71-7.88,8.24-10.39,5.07c-1.56-1.96,0.55-3.56,1.77-4.9c0.72-0.79,4.2-3.9,4-4.16
		c-0.2-0.25-1.04,0.52-1.15,0.59c-0.72,0.45-4.77,4.08-5.72,5.24c-1.57,1.92-1.21,3.35-0.61,4.21c0.7,1.01,1.43,2.5,1.83,3.66
		c0.84,2.47-0.16,6.13-0.03,6.45c0.14,0.34,1.12-1.69,1.31-3.51c0.11-1.07,1.15-1.4,1.99-0.72c0.51,0.42,0.96,0.82,1.12,1.04
		c0.34,0.46,2.36,3.15,2.91,4.18c0.21,0.4,0.4,0.7,0.81,1.01c0.3,0.23,0.64,0.4,1.01,0.5c1.64,0.45,3.17-0.58,4.41-1.44
		c0.74-0.52,3.86-2.4,4.23-3.3c-1.61,1.2-7.11,5.64-8.55,3.28c-0.78-1.34,0.6-1.85,1.48-2.41c1-0.63,2.77-1.95,3.63-2.76
		c0.24-0.23,1.63-1.25,1.48-1.45c-0.23-0.29-3.13,1.87-3.46,2.11c-1.19,0.85-3.49,2.91-5.08,1.94c-0.58-0.36-0.99-1.04-0.99-1.73
		C111.53,107.27,119.17,102.01,118.86,101.51z"/>
</g>
</svg>
