<?xml version="1.0" encoding="UTF-8" standalone="no"?><svg xmlns:dc="http://purl.org/dc/elements/1.1/" xmlns:cc="http://creativecommons.org/ns#" xmlns:rdf="http://www.w3.org/1999/02/22-rdf-syntax-ns#" xmlns:svg="http://www.w3.org/2000/svg" xmlns="http://www.w3.org/2000/svg" viewBox="0 0 45 45" style="enable-background:new 0 0 45 45;" xml:space="preserve" version="1.1" id="svg2"><metadata id="metadata8"><rdf:RDF><cc:Work rdf:about=""><dc:format>image/svg+xml</dc:format><dc:type rdf:resource="http://purl.org/dc/dcmitype/StillImage"/></cc:Work></rdf:RDF></metadata><defs id="defs6"><clipPath id="clipPath16" clipPathUnits="userSpaceOnUse"><path id="path18" d="M 0,36 36,36 36,0 0,0 0,36 Z"/></clipPath></defs><g transform="matrix(1.25,0,0,-1.25,0,45)" id="g10"><g id="g12"><g clip-path="url(#clipPath16)" id="g14"><g transform="translate(14,14)" id="g20"><path id="path22" style="fill:#ffdc5d;fill-opacity:1;fill-rule:nonzero;stroke:none" d="m 0,0 c 0,-0.553 -0.448,-1 -1,-1 -0.552,0 -1,0.447 -1,1 l 0,8 c 0,0.552 0.448,1 1,1 0.552,0 1,-0.448 1,-1 L 0,0 Z"/></g><g transform="translate(24,14)" id="g24"><path id="path26" style="fill:#ffdc5d;fill-opacity:1;fill-rule:nonzero;stroke:none" d="m 0,0 c 0,-0.553 -0.447,-1 -1,-1 -0.553,0 -1,0.447 -1,1 l 0,8 c 0,0.552 0.447,1 1,1 0.553,0 1,-0.448 1,-1 L 0,0 Z"/></g><g transform="translate(19,17)" id="g28"><path id="path30" style="fill:#66757f;fill-opacity:1;fill-rule:nonzero;stroke:none" d="m 0,0 -2,0 -3,0 1,-11 3,0 0,7 0,-7 3,0 1,11 -3,0 z"/></g><g transform="translate(18,13)" id="g32"><path id="path34" style="fill:#546170;fill-opacity:1;fill-rule:nonzero;stroke:none" d="m 0,0 0,0 c -0.552,0 -1,-7 -1,-7 0,-0.553 0.448,0 1,0 0.553,0 1,-0.553 1,0 0,0 -0.447,7 -1,7"/></g><g transform="translate(22,25)" id="g36"><path id="path38" style="fill:#292f33;fill-opacity:1;fill-rule:nonzero;stroke:none" d="m 0,0 -2,0 -4,0 -2,0 c -1.104,0 -2,-0.895 -2,-2 l 0,-8 2,0 0,-1 2,0 2,1 2,-1 2,0 0,1 2,0 0,8 C 2,-0.895 1.105,0 0,0"/></g><g transform="translate(16.6396,6.5205)" id="g40"><path id="path42" style="fill:#292f33;fill-opacity:1;fill-rule:nonzero;stroke:none" d="M 0,0 C 1.105,0 1.346,-0.159 1.359,-0.521 1.411,-1.896 -0.427,-4 -1.781,-3.5 c -0.86,0.317 -0.422,1.901 0.14,2.979 C -1.41,-0.079 -0.679,0 0,0"/></g><g transform="translate(19.3604,6.5205)" id="g44"><path id="path46" style="fill:#292f33;fill-opacity:1;fill-rule:nonzero;stroke:none" d="M 0,0 C -1.105,0 -1.346,-0.159 -1.359,-0.521 -1.41,-1.896 0.428,-4 1.781,-3.5 2.642,-3.183 2.203,-1.599 1.641,-0.521 1.41,-0.079 0.68,0 0,0"/></g><g transform="translate(18,18)" id="g48"><path id="path50" style="fill:#e1e8ed;fill-opacity:1;fill-rule:nonzero;stroke:none" d="M 0,0 0,0 -2,7 2,7 0,0 Z"/></g><path id="path52" style="fill:#292f33;fill-opacity:1;fill-rule:nonzero;stroke:none" d="m 18.375,17.617 -0.75,0 0,6 0.75,0 0,-6 z"/><g transform="translate(16.799,26)" id="g54"><path id="path56" style="fill:#ffdc5d;fill-opacity:1;fill-rule:nonzero;stroke:none" d="M 0,0 0,-1.592 1.201,-2 2.402,-1.592 2.402,0 0,0 Z"/></g><g transform="translate(15.3042,29.1811)" id="g58"><path id="path60" style="fill:#ffdc5d;fill-opacity:1;fill-rule:nonzero;stroke:none" d="m 0,0 c 0,-0.592 -0.3,-1.071 -0.67,-1.071 -0.369,0 -0.669,0.479 -0.669,1.071 0,0.592 0.3,1.071 0.669,1.071 C -0.3,1.071 0,0.592 0,0"/></g><g transform="translate(22,29.1811)" id="g62"><path id="path64" style="fill:#ffdc5d;fill-opacity:1;fill-rule:nonzero;stroke:none" d="m 0,0 c 0,-0.592 -0.3,-1.071 -0.67,-1.071 -0.369,0 -0.669,0.479 -0.669,1.071 0,0.592 0.3,1.071 0.669,1.071 C -0.3,1.071 0,0.592 0,0"/></g><g transform="translate(18,25.0937)" id="g66"><path id="path68" style="fill:#ffdc5d;fill-opacity:1;fill-rule:nonzero;stroke:none" d="M 0,0 C -1.923,0 -3.482,1.851 -3.482,4.135 -3.482,6.418 -1.923,8.27 0,8.27 1.923,8.27 3.482,6.418 3.482,4.135 3.482,1.851 1.923,0 0,0"/></g><g transform="translate(19.3049,26.9037)" id="g70"><path id="path72" style="fill:#c1694f;fill-opacity:1;fill-rule:nonzero;stroke:none" d="m 0,0 c -0.015,0.025 -0.043,0.041 -0.073,0.041 l -2.454,0 C -2.557,0.041 -2.584,0.025 -2.6,0 c -0.015,-0.026 -0.017,-0.057 -0.003,-0.084 0.015,-0.029 0.372,-0.704 1.303,-0.704 0.931,0 1.288,0.675 1.303,0.704 C 0.017,-0.057 0.015,-0.026 0,0"/></g><g transform="translate(18.0077,28.0636)" id="g74"><path id="path76" style="fill:#c1694f;fill-opacity:1;fill-rule:nonzero;stroke:none" d="m 0,0 c -0.269,0 -0.478,0.048 -0.646,0.122 0.056,-0.198 0.21,-0.474 0.646,-0.474 0.436,0 0.59,0.276 0.646,0.474 C 0.478,0.048 0.269,0 0,0"/></g><g transform="translate(14.8272,29.6042)" id="g78"><path id="path80" style="fill:#ffac33;fill-opacity:1;fill-rule:nonzero;stroke:none" d="m 0,0 c 0.06,0.296 0.148,0.546 0.246,0.771 l -0.777,0 C -0.41,-0.104 -0.066,-0.324 0,0"/></g><g transform="translate(21.1727,29.7292)" id="g82"><path id="path84" style="fill:#ffac33;fill-opacity:1;fill-rule:nonzero;stroke:none" d="m 0,0 c 0.239,-0.47 0.475,-0.152 0.55,0.771 l -0.942,0 C -0.284,0.559 -0.142,0.28 0,0"/></g><g transform="translate(16,25)" id="g86"><path id="path88" style="fill:#66757f;fill-opacity:1;fill-rule:nonzero;stroke:none" d="M 0,0 -1,-3 0.25,-3.344 -0.437,-4.469 2,-7 0,0 Z"/></g><g transform="translate(20,25)" id="g90"><path id="path92" style="fill:#66757f;fill-opacity:1;fill-rule:nonzero;stroke:none" d="M 0,0 1,-3 -0.25,-3.344 0.437,-4.469 -2,-7 0,0 Z"/></g><g transform="translate(17,24)" id="g94"><path id="path96" style="fill:#292f33;fill-opacity:1;fill-rule:nonzero;stroke:none" d="M 0,0 1,-1 2,0 1,0.417 0,0 Z"/></g><g transform="translate(16.5625,25.4375)" id="g98"><path id="path100" style="fill:#f5f8fa;fill-opacity:1;fill-rule:nonzero;stroke:none" d="M 0,0 1.437,-1.021 0.5,-2.016 -0.562,-0.437 0,0 Z"/></g><g transform="translate(19.4375,25.4375)" id="g102"><path id="path104" style="fill:#f5f8fa;fill-opacity:1;fill-rule:nonzero;stroke:none" d="M 0,0 -1.437,-1.021 -0.5,-2.016 0.562,-0.437 0,0 Z"/></g><g transform="translate(24,1)" id="g106"><path id="path108" style="fill:#99aab5;fill-opacity:1;fill-rule:nonzero;stroke:none" d="m 0,0 c 0,-0.553 -2.686,-1 -6,-1 -3.314,0 -6,0.447 -6,1 0,0.553 2.686,1 6,1 3.314,0 6,-0.447 6,-1"/></g><g transform="translate(23.227,31.1667)" id="g110"><path id="path112" style="fill:#292f33;fill-opacity:1;fill-rule:nonzero;stroke:none" d="m 0,0 c 0,-0.66 -2.337,-1.333 -5.219,-1.333 -2.882,0 -5.219,0.673 -5.219,1.333 0,0.66 1.196,0.896 5.219,0.896 C -1.196,0.896 0,0.66 0,0"/></g><g transform="translate(20.1907,31.9843)" id="g114"><path id="path116" style="fill:#292f33;fill-opacity:1;fill-rule:nonzero;stroke:none" d="m 0,0 c 0.678,0.163 1.224,0.45 1.224,0.45 0,0 -0.141,0.578 -0.284,0.95 C 0.498,2.553 -0.235,3.129 -0.909,2.958 -1.928,2.699 -2.405,2.848 -3.621,2.992 -4.835,3.136 -5.394,1.31 -5.588,0.45 c 0,0 0.321,-0.274 0.901,-0.403 C -3.464,-0.226 -0.925,-0.222 0,0"/></g><g transform="translate(21.5832,31.7749)" id="g118"><path id="path120" style="fill:#66757f;fill-opacity:1;fill-rule:nonzero;stroke:none" d="m 0,0 c -0.012,0.069 -0.027,0.145 -0.043,0.22 -0.048,0.225 -0.126,0.439 -0.126,0.439 0,0 -1.101,-0.429 -3.406,-0.429 -2.305,0 -3.406,0.429 -3.406,0.429 0,0 -0.078,-0.214 -0.126,-0.439 C -7.123,0.145 -7.138,0.069 -7.15,0 c -0.048,-0.273 0.081,-0.461 0.967,-0.649 0.599,-0.127 1.582,-0.241 2.608,-0.22 1.026,-0.021 2.009,0.093 2.609,0.22 C -0.081,-0.461 0.048,-0.273 0,0"/></g><g transform="translate(21.4922,30.1025)" id="g122"><path id="path124" style="fill:#292f33;fill-opacity:1;fill-rule:nonzero;stroke:none" d="m 0,0 -0.958,-0.316 c -0.337,0.047 -1.039,0.065 -1.78,-0.016 -0.197,-0.021 -0.272,-0.077 -0.738,-0.077 -0.467,0 -0.542,0.056 -0.739,0.077 -0.741,0.081 -1.442,0.063 -1.779,0.016 L -6.952,0 c -0.093,0.033 -0.191,-0.019 -0.221,-0.111 -0.03,-0.092 0.02,-0.191 0.111,-0.221 l 0.894,-0.295 c 0.066,-0.051 0.209,-0.148 0.242,-0.248 0.039,-0.116 0.117,-0.861 0.35,-1.055 0.241,-0.2 1.148,-0.126 1.322,-0.039 0.389,0.194 0.437,0.82 0.506,1.094 0.038,0.155 0.272,0.155 0.272,0.155 0,0 0.233,0 0.272,-0.155 0.069,-0.274 0.117,-0.902 0.505,-1.096 0.174,-0.086 1.081,-0.161 1.322,0.039 0.233,0.194 0.311,0.941 0.35,1.057 0.033,0.1 0.175,0.197 0.241,0.247 l 0.895,0.296 c 0.092,0.03 0.142,0.129 0.112,0.221 C 0.189,-0.019 0.087,0.033 0,0"/></g></g></g></g></svg>
