<?xml version="1.0" encoding="utf-8"?>
<!-- Generator: Adobe Illustrator 25.2.3, SVG Export Plug-In . SVG Version: 6.00 Build 0)  -->
<svg version="1.1" id="Layer_4_copy" xmlns="http://www.w3.org/2000/svg" xmlns:xlink="http://www.w3.org/1999/xlink" x="0px"
	 y="0px" viewBox="0 0 128 128" style="enable-background:new 0 0 128 128;" xml:space="preserve">
<g>
	<g>
		<path d="M52.44,53.27c-1.03-1.71-3.17-5.28-18.55-5.69c-10.54-0.36-16.68,0.93-18.81,3.97c-0.93,1.46-1.85,5-0.95,13.57
			c1.56,14.33,8.76,14.71,17.89,15.18l0.69,0.04c0.99,0.05,1.92,0.08,2.8,0.08c12.94,0,15.2-5.65,16.86-13.48
			C53.85,60.27,53.88,55.68,52.44,53.27z"/>
		<path d="M112.7,51.51c-2.1-3.01-8.24-4.29-18.78-3.93C78.53,48,76.39,51.56,75.36,53.27v0c-1.44,2.41-1.42,7,0.08,13.64
			c1.67,7.85,3.92,13.49,16.86,13.49c0.88,0,1.82-0.03,2.8-0.08l0.69-0.04c9.12-0.47,16.33-0.85,17.89-15.18
			C114.57,56.55,113.65,53.01,112.7,51.51z"/>
	</g>
	<path style="fill:#616161;" d="M123.8,47.84c0,0-1-1.7-19.03-3.41c-18.93-1.8-28.35,2-32.25,4.41c-0.7,0.3-1.9,0.6-3.31,0.5h-0.3
		c-1.9-0.1-3.61-0.2-5.61-0.2h-0.1c-1.1,0-3.51,0.1-5.21,0.2c-0.8,0.1-1.5,0-2.1-0.2c-3.61-2.4-13.02-6.61-32.75-4.71
		C5.1,46.14,4.1,47.84,4.1,47.84L4,54.65c0,0,2.7,0.8,4.41,2.9c1.7,2.1,2.5,14.12,5.41,19.73C18.22,86,39.96,83.8,39.96,83.8
		s8.91,0.7,13.22-6.81c3.71-6.41,5.21-15.43,5.61-17.63c0.9-0.9,2.6-2,5.11-2.1c2.8,0,4.61,1.4,5.41,2.4
		c0.4,2.7,1.9,11.22,5.51,17.33c4.31,7.51,13.22,6.81,13.22,6.81s21.74,2.2,26.14-6.51c2.8-5.61,3.61-17.63,5.41-19.73
		c1.7-2.2,4.41-2.9,4.41-2.9L123.8,47.84z M51.38,66.71c-1.7,8.01-3.91,13.42-18.63,12.62c-9.52-0.5-16.13-0.5-17.63-14.32
		c-0.9-8.61,0.1-11.82,0.8-12.92c0.7-1,3.21-4.01,17.93-3.51c14.72,0.4,16.83,3.71,17.73,5.21C52.48,55.29,53.18,58.7,51.38,66.71z
		 M112.68,65.01c-1.5,13.82-8.11,13.82-17.63,14.32c-14.72,0.8-16.93-4.61-18.63-12.62c-1.8-8.01-1.1-11.42-0.2-12.92
		c0.9-1.5,3.01-4.81,17.73-5.21c14.72-0.5,17.23,2.5,17.93,3.51C112.58,53.19,113.58,56.39,112.68,65.01z"/>
	<path style="opacity:0.75;fill:#82AEC0;" d="M26.82,52.22c4.33-0.84,5.79,1.26,5.37,3.14c-0.77,3.47-4.11,1.62-9,4.6
		c-2.06,1.26-2.9,2.16-3.66,2.13c-0.73-0.03-1.36-0.78-1.01-2.2C19.15,57.31,20.2,53.5,26.82,52.22z"/>
	<path style="opacity:0.75;fill:#82AEC0;" d="M83.66,53.21c1.77-0.99,6.74-1.88,7.27,0.73c0.54,2.69-1.99,3.43-3.78,4.04
		c-4.23,1.44-4.93,3.49-5.81,4.05c-0.59,0.37-2.33,1.21-2.14-1.34C79.42,57.45,80.48,55,83.66,53.21z"/>
</g>
</svg>
