<?xml version="1.0" encoding="UTF-8" standalone="no"?><svg xmlns:dc="http://purl.org/dc/elements/1.1/" xmlns:cc="http://creativecommons.org/ns#" xmlns:rdf="http://www.w3.org/1999/02/22-rdf-syntax-ns#" xmlns:svg="http://www.w3.org/2000/svg" xmlns="http://www.w3.org/2000/svg" viewBox="0 0 45 45" style="enable-background:new 0 0 45 45;" xml:space="preserve" version="1.1" id="svg2"><metadata id="metadata8"><rdf:RDF><cc:Work rdf:about=""><dc:format>image/svg+xml</dc:format><dc:type rdf:resource="http://purl.org/dc/dcmitype/StillImage"/></cc:Work></rdf:RDF></metadata><defs id="defs6"><clipPath id="clipPath16" clipPathUnits="userSpaceOnUse"><path id="path18" d="M 0,36 36,36 36,0 0,0 0,36 Z"/></clipPath></defs><g transform="matrix(1.25,0,0,-1.25,0,45)" id="g10"><g id="g12"><g clip-path="url(#clipPath16)" id="g14"><g transform="translate(18,24.999)" id="g20"><path id="path22" style="fill:#292f33;fill-opacity:1;fill-rule:nonzero;stroke:none" d="m 0,0 c -9.389,0 -17,-3.358 -17,-7.5 0,-4.142 7.611,-7.5 17,-7.5 9.389,0 17,3.358 17,7.5 C 17,-3.358 9.389,0 0,0"/></g><g transform="translate(33.8708,16.7162)" id="g24"><path id="path26" style="fill:#7d8b93;fill-opacity:1;fill-rule:nonzero;stroke:none" d="m 0,0 c 0.079,0.255 0.129,0.516 0.129,0.783 0,1.418 -1.16,2.676 -3,3.699 l 0,-2.778 C -1.788,1.194 -0.821,0.623 0,0"/></g><g transform="translate(5,21.1982)" id="g28"><path id="path30" style="fill:#7d8b93;fill-opacity:1;fill-rule:nonzero;stroke:none" d="m 0,0 c -1.84,-1.023 -3,-2.281 -3,-3.699 0,-0.267 0.05,-0.528 0.129,-0.783 0.821,0.623 1.788,1.194 2.871,1.704 L 0,0 Z"/></g><g transform="translate(18,23.999)" id="g32"><path id="path34" style="fill:#ccd6dd;fill-opacity:1;fill-rule:nonzero;stroke:none" d="m 0,0 c -4.766,0 -9.87,-1.06 -13,-2.801 l 0,-2.778 C -9.602,-3.981 -5.033,-3 0,-3 5.033,-3 9.602,-3.981 13,-5.579 l 0,2.778 C 9.87,-1.06 4.766,0 0,0"/></g></g></g></g></svg>
