<svg xmlns="http://www.w3.org/2000/svg" viewBox="0 0 64 64" enable-background="new 0 0 64 64"><g fill="#3e4347"><path d="m21.5 58.9c0 0-1 1.5 0 3.1h2.9v-1.1c0 0 .5 1.1 4.9 1.1 1.5 0 1.7-1.5.1-1.6-1.6-.1-1.4-1.2-2.9-3.1l-5 1.6"/><path d="m38.7 58.9c0 0-1 1.5 0 3.1h2.9v-1.1c0 0 .5 1.1 4.9 1.1 1.5 0 1.7-1.5.1-1.6-1.6-.1-1.4-1.2-2.9-3.1l-5 1.6"/></g><path d="m41.9 48.2c-.5-2.5-4.3-4.2-6.7-9.1 0 0-4.1-1.2-10-1.2 0 0-2.6 1.3-1.2 7.3.9 3.6-1 9.7-3.8 14.2 0 0 4.2 1.6 8.6 0 0 0-1.3-3.1.9-9.1.7-1.9-1-3.9.7-8.1 0 0 .8 1.8 6.9 7.3 0 0-1.2 5.6.2 10 0 0 .9.4 4.2.4 3.1 0 4.6-.4 4.6-.4s-2.8-3-4.4-11.3" fill="#c28fef"/><path d="m29.1 38.8c-2.1-1-3.4-1.1-4.2-.8-.3.3-.9 1-1.2 2.3 1.8 1 4.6.8 4.6.8.8-1.5.8-2.3.8-2.3" fill="#9450e0"/><g fill="#c28fef"><path d="m32.9 21.5c0 0 7.2-2.2 10.3-8.1 0 0 .5 2.3 4.2 4.5 0 0-5.4 4.1-9.2 5.8 0 0-.2 7.4 2.7 14.9 0 0-.3.9-7.1.9 0 0 3.5-6.3-.9-18"/><path d="m27.9 21.9c0 0-3.4-2-5-.7-8.9 7-9.4 8.7-8.4 14.2 0 0 1.8-1.3 5 .2 0 0-1.4-5.5 5-8.4 0 0 .2 4.2-2.1 11.2 0 0 1.4 1.9 5.5 1.9 0 0 4.3-9.1 0-18.4"/></g><path d="m44.1 12.4c0 0 3.9 2.1 3.9 5.4h-2.2c0 0-.2-1.8-1.2-2.5-1-.7-.5-2.9-.5-2.9" fill="#9450e0"/><path d="m44.1 12.4c0 0-1.7 1.4-2.8 2.7 0 0 .2 1.2 1.1 2.2l2.5-1.3-1.9 2.3c0 0 .7 1.1 2.1 1.6 0 0 1.8-1 2.9-2.1 0 0-3.2-1.8-3.9-5.4" fill="#ffc7ce"/><path d="m48 12.6c0 0 1.9-1.6 1.4-2.1-.5-.5-.9-.6-1.4 0-.2.2-.6.6-1.3 1.3-.7-.6-1 0-1.2.2-.3.3-.6 1.6-.6 1.6.5 1.4 1.4 2.5 2.7 3.3 1-.6 2.4-1.6 2.4-2 0-1-2-2.3-2-2.3" fill="#d6a57c"/><path d="m45.5 13.2c0 0 .9-.2 1.3.2l-.2.1c0 0-.3-.2-1.1-.3" fill="#b58360"/><path d="m14.4 36.5c0 0 1.6 1.1 5.7.2 0-.1-2.1-1.8-5.7-.2" fill="#9450e0"/><path d="m15.4 35.4c0 0-1.1 2.2.7 4.6.5.6 1.8 1.2 3.3.5 1.4-.6.2-1.1-.4-2.3.3-.4.7-.7.5-1.1-.3-.6-1.2-1-1.2-1s.5-.9-2.9-.7" fill="#d6a57c"/><path d="m19.6 37.2c0-.1-.1-.1-.1-.2.1.3-.3.8-.5.6-.4-.4-.9-.8-.9-.8.6.7 1 1.5 1 1.5.3-.4.7-.7.5-1.1" fill="#b58360"/><path d="m14 33.1c0 0 .5 2 .4 3.4 0 0 2.3-.9 5.7.2 0 0-.6-2 .1-3.5 0 0-.4-.9-2.1-1.1l-.7 2.9-.7-2.8c.1-.1-1.5-.6-2.7.9" fill="#ffc7ce"/><g fill="#b58360"><path d="m48.6 15.6c-.3.3-.9.8-1.7-.1-.9-.9-.3-1.5.1-2 .2-.2.4-.4.4-.9 0-.4-.9-.8-.5-.5 0 0 .6.3-.2 1.4-.3.5-.7 1-.3 1.7.5.7 1.1 1.5 2.1.9.9-.7.6-1 .1-.5"/><path d="m32.9 21.2h-4.3l3.5 5.6z"/></g><path d="m35.9 22.1c-.5-.6-1.7-.3-1.7-.3l1.4-1.9c-1.1.8-2.9 1-2.9 1-1 2-.6 5.8-.6 5.8s-.8-3.9-3.5-5.8c0 0-1.4-.2-3.3.2l2.6 1.3-2 .8c0 0 1.3.2 2.9 1.1 0 0 1.6 6.4-.4 14.4l5.5.3c0 0 2.9-5.6-.2-15 1.1-1.2 2.2-1.9 2.2-1.9" fill="#ffc7ce"/><path d="m33.8 39.5c0 0 5.7-2.1 7.1-.9 0 0-.1.9-7.1.9" fill="#9450e0"/><path d="m32.1 27.2c0 0 1.3 4.7-.8 10.5 0 0 2.9-5.2.8-10.5" fill="#c28fef"/><path d="m28.6 7.9c-7.9 0-6.9-2-6.9 7.9 0 4.7 4.2 6.1 8.6 6 4.4-.1 6.9-1.1 6.9-5.8 0-7.8-2.1-8.1-8.6-8.1" fill="#d6a57c"/><path d="m25 21.3c-.1.7-.1 2-3 1.6 0 0 .4-4.8-1.8-7.5-2.2-2.7-2.6-5.1-.9-7 0 0-2-4.4 7.1-5.6 4.6-.6 8.7 1.1 12.9-.8 0 0 3.8 7.5-3.4 8.4-7.2.9-7.2-1.6-11.4-1 0 0 .5 4.2 1.7 7.1 0 0 .2.8-.8 1.3 0 0-.9-3.9-2.3-4.8-1.4-.9-1.4 1.3-.7 2.5.7 1.2 1.2 1 1.2 1s1.7 2.5 1.4 4.8" fill="#594640"/><g fill="#664e27"><circle cx="27.9" cy="13.4" r="1.5"/><circle cx="35" cy="13.4" r="1.5"/><path d="m33.7 17.8c-1.5 1.2-3.2 1.2-4.6 0-.2-.1-.3.1-.2.3.5.8 1.4 1.6 2.5 1.6 1.2 0 2.1-.7 2.5-1.6.2-.2 0-.4-.2-.3"/></g></svg>