<?xml version="1.0" encoding="UTF-8" standalone="no"?><svg xmlns:dc="http://purl.org/dc/elements/1.1/" xmlns:cc="http://creativecommons.org/ns#" xmlns:rdf="http://www.w3.org/1999/02/22-rdf-syntax-ns#" xmlns:svg="http://www.w3.org/2000/svg" xmlns="http://www.w3.org/2000/svg" viewBox="0 0 45 45" style="enable-background:new 0 0 45 45;" xml:space="preserve" version="1.1" id="svg2"><metadata id="metadata8"><rdf:RDF><cc:Work rdf:about=""><dc:format>image/svg+xml</dc:format><dc:type rdf:resource="http://purl.org/dc/dcmitype/StillImage"/></cc:Work></rdf:RDF></metadata><defs id="defs6"><clipPath id="clipPath16" clipPathUnits="userSpaceOnUse"><path id="path18" d="M 0,36 36,36 36,0 0,0 0,36 Z"/></clipPath></defs><g transform="matrix(1.25,0,0,-1.25,0,45)" id="g10"><g id="g12"><g clip-path="url(#clipPath16)" id="g14"><g transform="translate(3.9678,2.5537)" id="g20"><path id="path22" style="fill:#c1694f;fill-opacity:1;fill-rule:nonzero;stroke:none" d="m 0,0 c -1.757,-1.758 -3.498,-2.866 -3.889,-2.475 -0.391,0.391 0.718,2.132 2.475,3.889 C 0.343,3.172 2.084,4.28 2.475,3.889 2.866,3.498 1.757,1.758 0,0"/></g><g transform="translate(6.4429,6.4424)" id="g24"><path id="path26" style="fill:#ffcc4d;fill-opacity:1;fill-rule:nonzero;stroke:none" d="m 0,0 -2.122,2.122 c 0,0 -1.082,-1.392 -2.284,-3.63 -0.9,-1.676 -1.251,-2.734 -1.251,-2.734 l 0.707,-0.707 0.707,-0.707 c 0,0 1.059,0.351 2.735,1.251 2.237,1.201 3.629,2.284 3.629,2.284 L 0,0 Z"/></g><g transform="translate(34.0195,34.0195)" id="g28"><path id="path30" style="fill:#292f33;fill-opacity:1;fill-rule:nonzero;stroke:none" d="m 0,0 c -3.535,3.536 -18.163,-10.297 -18.871,-11.004 -0.707,-0.707 -1.303,-1.349 -0.928,-1.724 -0.445,-0.445 -1.121,-1.122 -2.12,-2.121 -2.122,-2.122 -8.486,-9.899 -7.779,-10.606 0.707,-0.707 2.121,-2.122 2.121,-2.122 0,0 1.414,-1.414 2.121,-2.121 0.707,-0.707 8.486,5.657 10.607,7.778 0.999,0.999 1.676,1.676 2.122,2.121 0.375,-0.376 1.016,0.222 1.723,0.929 C -10.297,-18.163 3.536,-3.536 0,0"/></g><g transform="translate(23.0156,15.1494)" id="g32"><path id="path34" style="fill:#ffcc4d;fill-opacity:1;fill-rule:nonzero;stroke:none" d="M 0,0 C 0.085,0.084 0.362,0.375 0.774,0.817 L -7.049,8.639 C -7.492,8.228 -7.782,7.951 -7.867,7.866 -8.574,7.159 -9.17,6.518 -8.795,6.142 -8.088,5.435 -5.26,2.607 -5.26,2.607 c 0,0 2.829,-2.828 3.536,-3.536 C -1.348,-1.305 -0.707,-0.707 0,0"/></g><g transform="translate(31.2119,33.9985)" id="g36"><path id="path38" style="fill:#ffac33;fill-opacity:1;fill-rule:nonzero;stroke:none" d="m 0,0 c -0.927,0.927 -2.164,1.899 -3.932,1.015 -1.767,-0.884 -7.313,-4.441 -9.877,-7.005 -1.322,-1.322 -1.247,-2.101 -0.752,-2.165 0.821,-0.106 1.371,-0.088 2.123,0.663 0.75,0.751 0.882,2.033 0.882,2.033 0,0 3.05,2.342 5.458,3.778 2.41,1.437 3.269,1.682 4.111,0.84 C -1.145,-1.683 0,0 0,0"/></g><g transform="translate(28.8701,33.5127)" id="g40"><path id="path42" style="fill:#ffac33;fill-opacity:1;fill-rule:nonzero;stroke:none" d="m 0,0 4.643,-4.643 c 0.352,0.709 0.63,1.384 0.818,2.011 L 2.011,0.817 C 1.384,0.63 0.71,0.352 0,0"/></g></g></g></g></svg>
