<svg xmlns="http://www.w3.org/2000/svg" viewBox="0 0 64 64" enable-background="new 0 0 64 64"><path d="m20.5 54.6c.9-9.9 5.4-9.7 3-12-2.3-2.3.3-.3-12.3 3.3-4.5 1.3-6.4 5.3-6.7 8.8-.1 1-.8 5.6-4.5 7 0 0 7.8.8 11.7 0 4-.3 8.4-2.3 8.8-7.1" fill="#3e4347"/><path d="m11.6 45.7c0 0 2.8.3 2.4 2.4-.4 2.1 2.2.1 2.3 1.7.1 1.7 2.9.6 2.8 2.2-.1 1.7 1.8 1 1.5 2.5-.3 1.5-.7 3.2-1.9 4.2-1.1 1 .4-4.8-.9-3.6-1.3 1.2-1-2.9-2.8-2.1-1.9.8-.3-3.3-2.4-2.4-2.1.9-1.4-3-2.7-2.7-1.3.4-1.1-.9-1.1-.9s1.1-.8 2.8-1.3" fill="#94989b"/><path d="m4.6 53.8c0 0-.7 6.3-4.6 7.8 0 0 8.4 1.1 12.4-.1 0 0 2-.7-.2-1.8-2.2-1.1-.4-2-1.6-1.8-1.2.1 1.2-1.7-.7-1.5-1.9.2-.4-2.5-1.7-1.9-1.3.7-.9-2-1.6-1.1-.6.8-.4-.9-1-.7s-.8.2-1 1.1" fill="#ed4c5c"/><path d="m10.8 59.9c0 0-.4.3-1.1.6-.3.1-.7.3-1.2.4-.4 0-.8.1-1.3.1-.5 0-.9 0-1.4-.1-.4-.1-.9-.2-1.2-.3-.7-.2-1.1-.4-1.1-.4s.5-.2 1.2-.3c.7-.1 1.6-.2 2.5-.3.9 0 1.8 0 2.5.1.6.1 1.1.2 1.1.2" fill="#ffc7ce"/><path d="m21.2 51.1l-6.4-6.4c0 0 27.8-30.8 37.4-40.7 2.6-2.7 7-2.7 9.7 0 2.7 2.7 2.7 7.1 0 9.7-9.9 9.5-40.7 37.4-40.7 37.4" fill="#89664c"/><path d="m20.2 50l-4.3-4.3c0 0 27.5-29.4 36.8-39.1 2.6-2.6 6.2-3.3 8-1.4 1.8 1.8 1.2 5.4-1.4 8-9.7 9.4-39.1 36.8-39.1 36.8" fill="#d3976e"/><path transform="matrix(.7071-.7071.7071.7071-27.4714 27.231)" fill="#c7d3d8" d="m16.7 41.8h4.9v10h-4.9z"/><path transform="matrix(.7072-.707.707.7072-27.4685 27.2231)" fill="#fff" d="m16.7 43.6h4.9v6.4h-4.9z"/></svg>