<svg xmlns="http://www.w3.org/2000/svg" viewBox="0 0 64 64" enable-background="new 0 0 64 64"><path d="m12.3 43.8l7.9 7.9-6.1 10.1c0 0-6.4-.7-12.5 2.2l10-10c.5 0 .9-.1 1.3-.5.7-.7.7-1.7 0-2.4-.7-.7-1.7-.7-2.4 0-.4.4-.5.9-.5 1.3l-10 10c2.9-6.2 2.2-12.5 2.2-12.5l10.1-6.1" fill="#94989b"/><path d="M61.5,2.5c3.3,3.3,3.3,8.6,0,11.9L56.9,19c0,0-1.8,5-10.9,14.1C36.8,42.2,31.8,44,31.8,44l-9.7,9.7L10.3,41.8
		l9.7-9.7c0,0,1.8-5,10.9-14.1S45,7.1,45,7.1l4.7-4.7C53-0.8,58.3-0.8,61.5,2.5z" fill="#3e4347"/><g fill="#94989b"><path transform="matrix(.7071-.7071.7071.7071 6.4709 40.1706)" d="m50.6 3.9h2.2v16.8h-2.2z"/><path transform="matrix(.7065-.7078.7078.7065-20.1404 29.1912)" d="m24 30.5h2.2v16.8h-2.2z"/></g></svg>