<?xml version="1.0" encoding="utf-8"?>
<!-- Generator: Adobe Illustrator 26.3.1, SVG Export Plug-In . SVG Version: 6.00 Build 0)  -->
<svg version="1.1" id="emoji_x5F_u1f596" xmlns="http://www.w3.org/2000/svg" xmlns:xlink="http://www.w3.org/1999/xlink" x="0px"
	 y="0px" viewBox="0 0 128 128" style="enable-background:new 0 0 128 128;" xml:space="preserve">
<path style="fill:#F9DDBD;" d="M20.8,91.67c-1.26-7.24-6.61-45.68-7.29-52.2c-0.81-7.76,2.41-9.72,5.05-10.19
	c3.91-0.7,6.06,3.94,6.06,3.94l1.11-0.39c-0.31-1.71-0.63-4.15-0.92-6.57c-0.56-4.56,1.1-7.59,4.03-8.47
	c2.32-0.69,6.3-1.12,9.42,7.02c2.74,7.17,10.96,31.74,11.32,32.7c0.36,0.96,1.27,2.21,2.44,2.21c1.27,0,1.55-1.29,1.68-2.19
	c0.12-0.9,4.22-31.29,7.11-43.3c1.9-7.9,5.08-10.75,9.2-10.14c3.77,0.56,4.98,2.52,5.59,10.35l0,0c0,0,2.01-3.64,6.57-2.43
	c3.75,0.99,5.26,5.4,5.26,12.29c0,4.58-1.02,47-0.99,48.4c0.08,3.28,1.99,1.15,1.99,1.15c5.83-9.11,15.54-11.34,19.69-11.52
	c4.17-0.17,9.67,2.13,8.28,6.46c-0.82,2.54-8.35,6.14-13.34,11.13c-4.28,4.28-9.5,11.82-13.86,21.47
	c-3.68,8.14-9.59,21.81-32.31,22.22C31.92,124.04,23.27,105.85,20.8,91.67z"/>
<g>
	<path style="fill:#EDBD82;" d="M57.72,93.07c2.89-9.3,10.21-15.58,17.04-18.46c6.4-2.71,11.62-3.43,11.62-3.43
		c0,2.41,2.34,2.34,2.34,2.34c-1.02,1.72-4.28,2.62-5.7,3.03c-17.18,4.92-22.21,16.5-23.74,21.33c-0.97,3.03-2.25,7.43-2.25,7.43
		S55,101.83,57.72,93.07z"/>
	<path style="fill:#EDBD82;" d="M28.96,111.32c0.5,0.48,14.11,12.34,33.29,8.8c15.85-2.92,21.42-14.08,24.77-20.23
		c3.35-6.14,6.45-14.9,13.58-20.87c4.02-3.37,8.36-5.4,10.78-7.02c4.43-2.97,5.21-4.82,5.21-4.82s0.69,2.3-4.06,6.32
		c-3.31,2.8-9.17,6.63-11.97,10c-4.66,5.59-6.93,12.48-14.5,24.61c-6.31,10.12-14.5,13.98-23.86,15.37
		C38.34,127.02,28.96,111.32,28.96,111.32z"/>
	<g>
		<path style="fill:#EDBD82;" d="M32.53,67.69c-1.26,0.19-1.74-0.14-1.55-0.96c0.19-0.82,0.74-3.03,0.45-4.06
			c-1.91-6.65-6.38-22.27-7.63-26.77c-1.59-5.72-4.34-6.68-4.34-6.68c4.07-0.63,6.33,3.1,6.96,5.17c0.46,1.52,6.49,19.69,8.96,27.2
			c0.37,1.12,0.9,1.65,1.67,2.2c0.44,0.31,0.81,1.08-0.12,1.95C36.23,66.41,33.22,67.59,32.53,67.69z"/>
	</g>
	<g>
		<path style="fill:#EDBD82;" d="M68.48,62.54c-1.4-0.48-2.55-1.33-1.96-2.54c0.31-0.64,1.18-1.43,1.31-2.46
			c1.22-9.74,5-40.03,5.33-45.54c0.28-4.66-1.66-7.56-1.66-7.56s4.38,0.88,4.1,9.05c-0.1,2.98-2.58,35.18-3.33,45.17
			c-0.07,0.95,1.07,2.17,0.96,3.5C73.15,63.15,71.56,63.59,68.48,62.54z"/>
	</g>
	<g>
		<path style="fill:#EDBD82;" d="M88.73,73.57l-4,0.51c0,0,0.92-47.95,0.68-54.2S82.15,12,82.15,12s5.68,0,6.38,7.77
			C88.94,24.37,88.73,73.57,88.73,73.57z"/>
	</g>
</g>
</svg>
