<svg xmlns="http://www.w3.org/2000/svg" viewBox="0 0 64 64" enable-background="new 0 0 64 64"><path d="m34 42.3l7.8 1.5 6.4-32.9c.4-2.2-1-4.4-3.1-4.8-2.2-.4-4.3 1.1-4.7 3.3l-6.4 32.9" fill="#ffdd67"/><path d="m45.2 6.1c-.3-.1-.5-.1-.8-.1 1.8.7 2.8 2.6 2.4 4.6l-6.4 32.9 1.4.3 6.4-32.9c.5-2.3-.9-4.4-3-4.8" fill="#eba352"/><path d="m26 43.3h9.4v-36.3c0-2.7-2.1-5-4.7-5-2.5 0-4.7 2.2-4.7 5v36.3" fill="#ffdd67"/><path d="m30.8 2c-.2 0-.5 0-.7.1 2.3.4 4 2.4 4 4.9v36.4h1.4v-36.4c0-2.8-2.1-5-4.7-5" fill="#eba352"/><path d="m21 43.2l8-2.1-8.7-33.1c-.6-2.3-2.9-3.7-5.1-3.2-2.2.6-3.5 2.9-2.9 5.2l8.7 33.2" fill="#ffdd67"/><path d="m15.2 4.8c-.2.1-.4.2-.6.3 2-.1 3.8 1.2 4.4 3.3l8.7 33.1 1.4-.4-8.8-33.1c-.6-2.3-2.9-3.7-5.1-3.2" fill="#eba352"/><path d="m4 13.4c-1.9.9-2.5 3.3-1.5 5.3l13.2 26.3 6.7-3.4-13.2-26.3c-1-2-3.3-2.8-5.2-1.9" fill="#ffdd67"/><path d="m4 13.4c-.2.1-.4.2-.6.4 1.7-.5 3.6.4 4.5 2.2l13.2 26.3 1.3-.6-13.2-26.4c-1-2-3.3-2.8-5.2-1.9" fill="#eba352"/><path d="m61.7 29.3c-1.6-3.1-6.6-2.9-11.7 2.7-3.6 3.9-4.3 5.2-7.9 5.1v-4.1c0 0-7.7-5.7-23-3.1 0 0-8.7 1.2-8.7 5.8 0 0-1.5 11.1 1.6 18.1 4.6 10.4 28.2 13.1 35.6-4.6 1.5-3.5 4.5-6.1 7.2-9.4 3.1-4 8.6-7.2 6.9-10.5" fill="#ffdd67"/><g fill="#eba352"><path d="m61.7 29.3c-.3-.6-.7-1-1.2-1.4.1.1.2.2.2.4 1.7 3.4-3.8 6.5-7.1 10.5-2.7 3.3-5.7 5.9-7.2 9.4-6.4 15.3-25 15.3-32.8 8.3 7.1 8 27.1 8.8 33.8-7.3 1.5-3.5 4.5-6.1 7.2-9.4 3.3-4 8.8-7.2 7.1-10.5"/><path d="m43.1 37.1c-6.5-2.4-18.1 2-16.5 13.7 0-10.9 9.9-13.6 15.3-13.6.8-.1 1.2-.1 1.2-.1"/></g></svg>