<?xml version="1.0" encoding="utf-8"?>
<!-- Generator: Adobe Illustrator 26.3.1, SVG Export Plug-In . SVG Version: 6.00 Build 0)  -->
<svg version="1.1" id="emoji_x5F_u1f590" xmlns="http://www.w3.org/2000/svg" xmlns:xlink="http://www.w3.org/1999/xlink" x="0px"
	 y="0px" viewBox="0 0 128 128" style="enable-background:new 0 0 128 128;" xml:space="preserve">
<path style="fill:#F9DDBD;" d="M20.52,69.41c-0.5-7.06-6.99-28.77-7.83-32.13c-1.02-4.1-1.08-8,2.23-9.31
	c3.54-1.4,6.56-0.33,8.66,5.4c0,0,7.82,18.99,10.11,24.55c0.36,0.87,1.24,1.96,2.81,1.54c1.33-0.36,1.57-1.72,1.4-2.72
	c-1.19-6.88-5.18-30.66-5.52-34.67c-0.56-6.7,1.12-9.01,4.42-9.48c3.91-0.56,6.43,1.66,7.45,6.97l7.75,36.21
	c0.2,0.94,1.06,1.58,2.02,1.51c0.12-0.01,0.25-0.02,0.37-0.03c0.98-0.08,1.74-0.88,1.76-1.87c0.15-7.65,0.79-38.13,1.37-43.4
	c0.67-6.09,3.07-7.94,6.23-7.94c3.76,0,5.94,1.71,6.61,8.15c0.66,6.36,0.69,36.01,0.6,43.68c-0.01,1,0.75,1.84,1.75,1.93
	c0.02,0,0.03,0,0.05,0c0.95,0.08,2.14-0.52,2.35-1.45c1.53-6.6,6-31.95,7.53-37.18c1.77-6.05,4.77-6.72,8.15-6
	c3.45,0.73,4.33,4.6,3.49,9.63c-0.48,2.87-3.86,30.76-4.18,38.32c-0.29,6.94,1.3,16.48,1.3,16.48
	c7.36-13.08,22.64-19.43,28.03-11.73c0.76,1.08,1.03,4.23-2.32,7.57c-2.47,2.46-6.6,6.02-11.29,12.93
	C94.83,102.54,91.21,124,59.76,124c-17.51,0-27.8-7.39-32.98-19.01C20.52,90.91,21.02,76.47,20.52,69.41z"/>
<g>
	<path style="fill:#EDBD82;" d="M114.47,72.4c-2.89,2.4-7.48,5.82-12.22,12.79c-2.38,3.49-4.13,6.12-6.1,9.7
		c-7.4,13.48-11.02,22.33-31.96,27.07c-3.47,0.79-7.32,1.97-7.32,1.97c0.94,0.05,1.9,0.08,2.89,0.08
		c31.45,0,35.06-21.46,46.07-37.64c4.7-6.9,8.83-10.47,11.29-12.93c2.23-2.23,2.85-4.36,2.79-5.86
		C118.89,69.75,117.36,70,114.47,72.4z"/>
	<path style="fill:#EDBD82;" d="M60.14,95.29c6.52-18.99,21.46-17.55,29.42-20.2l1.96,2.51c-1.72,2.47-5.22,2.5-9.5,3.82
		c-15.36,4.75-18.26,14.29-20.48,19.36c-0.48,1.09-0.85,3.35-1.21,4.56c-0.25,0.83-2.14,2.05-2.14-0.19
		C58.18,103.01,58.82,99.13,60.14,95.29z"/>
	<path style="fill:#EDBD82;" d="M92.01,18.89c-0.16,1.47-4.14,37.6-4.28,42.49c-0.16,5.46,0.55,15.1,0.61,15.58
		c0,0,0.74,2.18,1.79,1.86c1.92-0.58,2.98-3.84,2.98-3.84s-1.38-0.32-1.57-1.67c-0.14-1.02-0.39-2.82-0.39-12.16
		s3.49-36.13,3.78-39.56c0.42-4.98-0.78-7.67-4.14-8.36C90.8,13.22,92.43,15.01,92.01,18.89z"/>
	<path style="fill:#EDBD82;" d="M19.82,30.27c0.91,2.2,9.8,24.33,11.28,27.55c1.61,3.51,5.25,1.68,5.25,1.68s-0.78,0.45-1.65-1.58
		c-2.37-5.53-11.94-27.57-11.94-27.57c-1.56-4.27-6.05-3.05-6.95-2.7C15.81,27.64,18.92,28.07,19.82,30.27z"/>
	<path style="fill:#EDBD82;" d="M67.27,8.28c0.31,2.43,1.28,37.46,1.06,45.91c-0.13,5.03,5.07,3.58,5.07,3.58s-1.38-0.34-1.51-2.21
		c-0.5-7.66,0.05-38.62-0.76-44.96c-0.67-5.25-3.55-6.89-7.28-6.56C63.86,4.04,66.81,4.72,67.27,8.28z"/>
	<path style="fill:#EDBD82;" d="M40.84,15.57c0.88,3.04,8.03,39.14,8.03,39.14c0.87,3.74,5.12,2.57,5.12,2.57s-0.76-0.27-1.35-2.33
		c-0.36-1.26-7.58-35.89-7.58-35.89c-0.92-4.78-2.79-6.35-5.8-6.6c-1.19-0.1-2.22,0.08-2.22,0.08S40.11,13.02,40.84,15.57z"/>
</g>
</svg>
