<svg xmlns="http://www.w3.org/2000/svg" viewBox="0 0 64 64" enable-background="new 0 0 64 64"><g fill="#fed0ac"><path d="m31.1 43.5l7.7 1.8 7.6-32.7c.5-2.2-.8-4.4-2.9-4.9-2.1-.5-4.2.9-4.8 3.2l-7.6 32.6"/><path d="m22.1 41.3l9 2.2 8.3-35.5c.6-2.6-.9-5.3-3.4-5.9-2.5-.6-5 1.1-5.7 3.8l-8.2 35.4"/><path d="m20.3 42.8l8.4-2.2-9.8-33c-.7-2.3-3.1-3.7-5.5-3.1-2.3.6-3.7 3-3 5.3l9.9 33"/><path d="m6.9 11.5c-2.2.6-3.3 2.7-2.7 4.9l8.4 28.4 7.7-2-8.4-28.4c-.7-2.1-2.9-3.4-5-2.9"/></g><g fill="#e0a372"><path d="m43.5 7.7c-.2-.1-.5-.1-.7-.1 1.7.8 2.7 2.7 2.2 4.7l-7.6 32.7 1.4.3 7.6-32.7c.5-2.2-.8-4.4-2.9-4.9"/><path d="m36 2.1c-.2 0-.5-.1-.7-.1 2.1.9 3.3 3.3 2.7 5.7l-4.7 20.1.9 2.5 5.2-22.3c.6-2.6-.9-5.3-3.4-5.9"/><path d="m13.5 4.5c-.3.1-.5.2-.7.3 2.1-.2 4.1 1.1 4.7 3.2l5.7 19.3 2.1 1.9-6.4-21.6c-.6-2.3-3.1-3.7-5.4-3.1"/><path d="m6.9 11.5c-.3.1-.5.2-.7.3 1.9-.1 3.7 1.1 4.3 3l4 13.6 2.1 1.7-4.6-15.6c-.8-2.2-3-3.5-5.1-3"/></g><path d="m59.7 29.2c-1.5-3.1-6.5-2.9-11.6 2.7-3.5 3.9-5.1 5.3-8.6 5.3l.8-4.5-30.9 1.2c0 0-1.8 12.8 1.2 19.8 4.5 10.4 27.8 13.2 35.1-4.6 1.5-3.5 4.4-6.1 7.1-9.4 3.1-4 8.6-7.1 6.9-10.5" fill="#fed0ac"/><g fill="#e0a372"><path d="m59.7 29.2c-.3-.6-.7-1-1.2-1.4.1.1.2.2.2.4 1.7 3.4-3.8 6.5-7 10.5-2.6 3.3-5.6 5.9-7.1 9.4-6.3 15.4-24.6 15.4-32.3 8.3 7 8 26.7 8.8 33.4-7.3 1.5-3.5 4.4-6.1 7.1-9.4 3.1-4 8.6-7.1 6.9-10.5"/><path d="m40.7 37.1c-6.5-2.4-18 2.1-16.4 13.7 0-10.9 10.1-13.6 15.5-13.6.7 0 .9-.1.9-.1"/></g></svg>