<?xml version="1.0" encoding="utf-8"?>
<!-- Generator: Adobe Illustrator 24.1.2, SVG Export Plug-In . SVG Version: 6.00 Build 0)  -->
<svg version="1.1" id="Layer_3" xmlns="http://www.w3.org/2000/svg" xmlns:xlink="http://www.w3.org/1999/xlink" x="0px" y="0px"
	 viewBox="0 0 128 128" style="enable-background:new 0 0 128 128;" xml:space="preserve">
<g>
	<path style="fill:#424242;" d="M93.99,8.97c-21.91,0-29.96,22.39-29.96,22.39S56.09,8.97,34.03,8.97
		c-16.58,0-35.48,13.14-28.5,43.01c6.98,29.87,58.56,67.08,58.56,67.08s51.39-37.21,58.38-67.08
		C129.45,22.11,111.91,8.97,93.99,8.97z"/>
	<g>
		<path style="fill:#575757;" d="M30.65,11.2c17.2,0,25.74,18.49,28.5,25.98c0.39,1.07,1.88,1.1,2.33,0.06L64,31.35
			C60.45,20.01,50.69,8.97,34.03,8.97c-6.9,0-14.19,2.28-19.86,7.09C19.18,12.77,25.05,11.2,30.65,11.2z"/>
		<path style="fill:#575757;" d="M93.99,8.97c-5.29,0-9.77,1.54-13.53,3.85c2.64-1.02,5.56-1.62,8.8-1.62
			c16.21,0,30.72,12.29,24.17,40.7c-5.62,24.39-38.46,53.98-48.49,65.27c-0.64,0.72-0.86,1.88-0.86,1.88s51.39-37.21,58.38-67.08
			C129.45,22.11,110.57,8.97,93.99,8.97z"/>
	</g>
	<g>
		<g>
			<g>
				<path style="fill:#787878;" d="M17.04,24.82c3.75-4.68,10.45-8.55,16.13-4.09c3.07,2.41,1.73,7.35-1.02,9.43
					c-4,3.04-7.48,4.87-9.92,9.63c-1.46,2.86-2.34,5.99-2.79,9.18c-0.18,1.26-1.83,1.57-2.45,0.46
					C12.77,41.95,11.57,31.65,17.04,24.82z"/>
			</g>
		</g>
	</g>
	<path style="fill:#787878;" d="M77.16,34.66c-1.76,0-3-1.7-2.36-3.34c1.19-3.02,2.73-5.94,4.58-8.54
		c2.74-3.84,7.95-6.08,11.25-3.75c3.38,2.38,2.94,7.14,0.57,9.44C86.11,33.4,79.69,34.66,77.16,34.66z"/>
</g>
</svg>
