<?xml version="1.0" encoding="UTF-8" standalone="no"?><svg xmlns:dc="http://purl.org/dc/elements/1.1/" xmlns:cc="http://creativecommons.org/ns#" xmlns:rdf="http://www.w3.org/1999/02/22-rdf-syntax-ns#" xmlns:svg="http://www.w3.org/2000/svg" xmlns="http://www.w3.org/2000/svg" viewBox="0 0 45 45" style="enable-background:new 0 0 45 45;" xml:space="preserve" version="1.1" id="svg2"><metadata id="metadata8"><rdf:RDF><cc:Work rdf:about=""><dc:format>image/svg+xml</dc:format><dc:type rdf:resource="http://purl.org/dc/dcmitype/StillImage"/></cc:Work></rdf:RDF></metadata><defs id="defs6"><clipPath id="clipPath16" clipPathUnits="userSpaceOnUse"><path id="path18" d="M 0,36 36,36 36,0 0,0 0,36 Z"/></clipPath><clipPath id="clipPath28" clipPathUnits="userSpaceOnUse"><path id="path30" d="M 3,32 C 1.895,32 1,31.105 1,30 L 1,30 1,6 C 1,4.895 1.895,4 3,4 l 0,0 30,0 c 1.105,0 2,0.895 2,2 l 0,0 0,24 c 0,1.105 -0.895,2 -2,2 l 0,0 -30,0 z"/></clipPath><clipPath id="clipPath40" clipPathUnits="userSpaceOnUse"><path id="path42" d="M 0,36 36,36 36,0 0,0 0,36 Z"/></clipPath><clipPath id="clipPath52" clipPathUnits="userSpaceOnUse"><path id="path54" d="M 6,28 C 5.448,28 5,27.553 5,27 L 5,27 5,9 C 5,8.447 5.448,8 6,8 l 0,0 24,0 c 0.552,0 1,0.447 1,1 l 0,0 0,18 c 0,0.553 -0.448,1 -1,1 l 0,0 -24,0 z"/></clipPath><clipPath id="clipPath70" clipPathUnits="userSpaceOnUse"><path id="path72" d="M 0,36 36,36 36,0 0,0 0,36 Z"/></clipPath></defs><g transform="matrix(1.25,0,0,-1.25,0,45)" id="g10"><g id="g12"><g clip-path="url(#clipPath16)" id="g14"><g transform="translate(35,6)" id="g20"><path id="path22" style="fill:#d79e84;fill-opacity:1;fill-rule:nonzero;stroke:none" d="m 0,0 c 0,-1.104 -0.895,-2 -2,-2 l -30,0 c -1.104,0 -2,0.896 -2,2 l 0,24 c 0,1.105 0.896,2 2,2 l 30,0 c 1.105,0 2,-0.895 2,-2 L 0,0 Z"/></g></g></g><g id="g24"><g clip-path="url(#clipPath28)" id="g26"><g transform="translate(0,3.917)" id="g32"><path id="path34" style="fill:#bf6952;fill-opacity:1;fill-rule:nonzero;stroke:none" d="M 0,0 37,29.083 -1,28.875 0,0 Z"/></g></g></g><g id="g36"><g clip-path="url(#clipPath40)" id="g38"><g transform="translate(31,9)" id="g44"><path id="path46" style="fill:#8ccaf7;fill-opacity:1;fill-rule:nonzero;stroke:none" d="m 0,0 c 0,-0.553 -0.447,-1 -1,-1 l -24,0 c -0.552,0 -1,0.447 -1,1 l 0,18 c 0,0.552 0.448,1 1,1 l 24,0 c 0.553,0 1,-0.448 1,-1 L 0,0 Z"/></g></g></g><g id="g48"><g clip-path="url(#clipPath52)" id="g50"><path id="path56" style="fill:#5dadec;fill-opacity:1;fill-rule:nonzero;stroke:none" d="M 23,7 3,7 3,15 23,15 23,7 Z"/><g transform="translate(14,11)" id="g58"><path id="path60" style="fill:#67757f;fill-opacity:1;fill-rule:nonzero;stroke:none" d="m 0,0 c 1,0 1,3 3,3 2,0 2,3 3,3 l 12,0 0,-10 c 0,0 -22,-2 -22,-1 0,1 2,5 4,5"/></g><g transform="translate(19,8)" id="g62"><path id="path64" style="fill:#292f33;fill-opacity:1;fill-rule:nonzero;stroke:none" d="m 0,0 c 1,2 2,4 5,4 3,0 3.105,1.553 4,2 2,1 3,0 4,0 1,0 6,-6 -1,-7 C 5,-2 1,-3 0,-2 -1,-1 0,0 0,0"/></g></g></g><g id="g66"><g clip-path="url(#clipPath70)" id="g68"><g transform="translate(10.375,21.8755)" id="g74"><path id="path76" style="fill:#ffffff;fill-opacity:1;fill-rule:nonzero;stroke:none" d="m 0,0 c 0,-1.036 -0.839,-1.876 -1.875,-1.876 -1.036,0 -1.875,0.84 -1.875,1.876 0,1.036 0.839,1.875 1.875,1.875 C -0.839,1.875 0,1.036 0,0"/></g><g transform="translate(17.2188,21.8755)" id="g78"><path id="path80" style="fill:#ffffff;fill-opacity:1;fill-rule:nonzero;stroke:none" d="m 0,0 c 0,-1.036 -0.839,-1.876 -1.875,-1.876 -1.035,0 -1.875,0.84 -1.875,1.876 0,1.036 0.84,1.875 1.875,1.875 C -0.839,1.875 0,1.036 0,0"/></g><g transform="translate(15.1563,24.1255)" id="g82"><path id="path84" style="fill:#ffffff;fill-opacity:1;fill-rule:nonzero;stroke:none" d="m 0,0 c 0,-1.036 -0.839,-1.875 -1.875,-1.875 -1.036,0 -1.875,0.839 -1.875,1.875 0,1.036 0.839,1.875 1.875,1.875 C -0.839,1.875 0,1.036 0,0"/></g><g transform="translate(12.9063,23.3755)" id="g86"><path id="path88" style="fill:#ffffff;fill-opacity:1;fill-rule:nonzero;stroke:none" d="m 0,0 c 0,-1.036 -0.839,-1.876 -1.875,-1.876 -1.036,0 -1.875,0.84 -1.875,1.876 0,1.036 0.839,1.875 1.875,1.875 C -0.839,1.875 0,1.036 0,0"/></g><path id="path90" style="fill:#e75a70;fill-opacity:1;fill-rule:nonzero;stroke:none" d="m 29,17 -8,0 0,5 8,0 0,-5 z"/><g transform="translate(21,21)" id="g92"><path id="path94" style="fill:#e75a70;fill-opacity:1;fill-rule:nonzero;stroke:#292f33;stroke-width:2;stroke-linecap:round;stroke-linejoin:round;stroke-miterlimit:10;stroke-dasharray:none;stroke-opacity:1" d="M 0,0 4,4 8,0"/></g><path id="path96" style="fill:#bb1a34;fill-opacity:1;fill-rule:nonzero;stroke:none" d="m 25,17 -2,0 0,3 2,0 0,-3 z"/><g transform="translate(15,23)" id="g98"><path id="path100" style="fill:#ffffff;fill-opacity:1;fill-rule:nonzero;stroke:none" d="m 0,0 -7.375,0 1,-3 6.75,0 L 0,0 Z"/></g></g></g></g></svg>
