<svg xmlns="http://www.w3.org/2000/svg" viewBox="0 0 64 64" enable-background="new 0 0 64 64"><path d="m63.2 5.6l-28.7-5.6-22.9 7.5 7.4 13.4 44.9-14.7c-.2-.3-.4-.5-.7-.6" fill="#b9b9bf"/><path d="m63.9 6.2l-44.9 14.7 15.3 27.8 6.8 12.3 22-7.4c0 0 .8-.2.8-.7v-46.2c.1-.2 0-.3 0-.5" fill="#898a90"/><path d="m41.5 60.3c0 .5-.4.8-.8.7l-28.7-5.7c-.5-.1-.9-.5-.9-1v-46.1c0-.5.4-.8.9-.7l28.6 5.6c.5.1.8.5.8 1v46.2z" fill="#9fa1a6"/><g fill="#3e4347"><path d="m14.2 34.2c0-.5.4-.8.8-.7l22.6 4.5c.5.1.8.5.8 1v17.4c0 .5-.4.8-.8.7l-22.6-4.5c-.5-.1-.8-.5-.8-1 0 .1 0-17.4 0-17.4"/><path d="m38.5 34.9c0 .4-.4.7-.8.6l-22.6-4.5c-.5-.1-.8-.5-.8-1s.4-.7.8-.6l22.6 4.5c.4.1.8.6.8 1"/></g><path d="m14.2 11.8c0-.5.4-.8.8-.7l22.6 4.5c.5.1.8.5.8 1v17.4c0 .5-.4.8-.8.7l-22.6-4.5c-.5-.1-.8-.5-.8-1v-17.4" fill="#d0d0d0"/><path d="m23.3 26.3v.8c0 .4.4.9.8 1l4.4.9c.5.1.9-.2.9-.6v-.8l-6.1-1.3" fill="#3e4347"/><path d="m29.4 27.5c0 .5-.4.8-.9.7l-4.4-.9c-.5-.1-.8-.5-.8-1v-3.1c0-.5.4-.8.8-.7l4.4.9c.5.1.9.5.9 1 0 0 0 3.1 0 3.1" fill="#94989b"/><path d="m28.8 25.3c0 .2-.2.4-.4.3l-.8-.2c-.2 0-.4-.3-.4-.5v-.8c0-.2.2-.4.4-.3l.8.2c.2 0 .4.3.4.5v.8" fill="#d0d0d0"/><path fill="#42ade2" d="m11.9 33.1l22.9 2.5-.7 21.6-21.3-4.8z"/><path fill="#ffce31" d="m16.1 31.3l18 14.3-8.7 6.8-18.1-4z"/><path fill="#83bf4f" d="m7 33.8l21.8 7.3-2.5 11.3h-21.8z"/><path fill="#ed4c5c" d="m2.7 41.3l23-.4 4.7 16.3-23.1 2z"/><path fill="#898a90" d="m38.5 56.5l-14.5 6.5v-6.1l14.5-6.5z"/><path d="m24.3 63.3c0 .4-.4.7-.9.6l-22.6-4.4c-.4-.1-.8-.5-.8-.9s.4-.7.8-.6l22.6 4.5c.5 0 .9.4.9.8" fill="#3e4347"/><path d="m0 40.3c0-.5.4-.8.8-.7l22.6 4.4c.5.1.9.5.9 1v17.4c0 .5-.4.8-.9.7l-22.6-4.4c-.5-.1-.8-.5-.8-1v-17.4" fill="#d0d0d0"/><path d="m15.2 55.9l-6.1-1.2v.8c0 .4.4.8.8.9l4.4.9c.5.1.8-.2.8-.6l.1-.8" fill="#3e4347"/><path d="m15.2 55.9c0 .5-.4.8-.8.7l-4.4-.9c-.5-.1-.9-.5-.9-1v-3.1c0-.5.4-.8.9-.7l4.4.9c.5.1.8.5.8 1 0 0 0 3.1 0 3.1" fill="#94989b"/><path d="m14.6 53.8c0 .2-.2.4-.4.3l-.8-.1c-.2 0-.4-.3-.4-.5v-.8c0-.2.2-.4.4-.3l.8.2c.2 0 .4.3.4.5v.7" fill="#d0d0d0"/></svg>