<svg xmlns="http://www.w3.org/2000/svg" viewBox="0 0 64 64" enable-background="new 0 0 64 64"><path fill="#d0d0d0" d="m39.2 56.8h20.1v2.1h-20.1z"/><path fill="#3e4347" d="m46.5 44.8h5.5v4.5h-5.5z"/><g fill="#94989b"><path d="m18.9 9.2c3 0 5.9 0 8.9 0 2.4 0 4.9 0 7.3 0 2 2.2 4 4.3 5.9 6.5.1.2.3.3.4.5.7.7 1.5 1.1 2.5 1.1.5 0 1.1 0 1.6 0 2.1 0 4.1 0 6.2 0 1 0 2.1 0 3.1 0 1.8 0 3.3-1.6 3.3-3.6s-1.6-3.7-3.4-3.7c-3.2 0-6.4 0-9.6 0-2-2.2-4-4.3-5.9-6.5-.1-.2-.3-.3-.4-.5-.7-.6-1.5-1-2.4-1-.4 0-17.4 0-17.5 0-1.8 0-3.3 1.6-3.3 3.6 0 2 1.5 3.6 3.3 3.6"/><path d="m54.7 37.6c-3.3 0-6.6 0-9.9 0-1 0-1.9-.1-2.7.5-.6.4-1 1-1.5 1.5-1.4 1.6-2.9 3.1-4.3 4.7-.4.5-.9.9-1.3 1.4-2.5 0-5 0-7.5 0-2.9 0-5.8 0-8.7 0-1.8 0-3.3 1.6-3.3 3.6s1.5 3.6 3.3 3.6c3 0 5.9 0 8.9 0 2 0 4 0 6 0 .7 0 1.3 0 2 0 1.1 0 2.1-.1 3-1.1 2.1-2.3 4.3-4.6 6.4-7 2.8 0 5.7 0 8.5 0 .4 0 .7 0 1.1 0 1.8 0 3.3-1.6 3.3-3.6 0-2-1.5-3.6-3.3-3.6"/></g><path fill="#d0d0d0" d="m43.8 17.3h11v20.3h-11z"/><g fill="#3e4347"><path d="m54.7 20.6l-10.9 3.4v-3.4l10.9-3.3z"/><path d="m54.7 27.4l-10.9 3.4v-3.4l10.9-3.4z"/><path d="m54.7 34.2l-10.9 3.4v-3.4l10.9-3.4z"/></g><path d="m54.7 60.6c0 .8-.6 1.4-1.3 1.4h-8.3c-.7 0-1.3-.6-1.3-1.4v-5.3c0-.8.6-1.4 1.3-1.4h8.3c.7 0 1.3.6 1.3 1.4v5.3" fill="#94989b"/><g fill="#d0d0d0"><path d="m46.5 53.8h2.7v8.2h-2.7z"/><path d="m50.6 53.8h1.4v8.2h-1.4z"/></g><ellipse cx="39.2" cy="57.9" rx="2.7" ry="2.9" fill="#94989b"/><ellipse cx="40" cy="56.8" rx=".8" ry=".9" fill="#d0d0d0"/><ellipse cx="59.3" cy="57.9" rx="2.7" ry="2.9" fill="#94989b"/><ellipse cx="60.3" cy="56.8" rx=".8" ry=".9" fill="#d0d0d0"/><path fill="#94989b" d="m46.5 49.3h5.5v4.5h-5.5z"/><path d="m34.4 21.3v-12.2c0 0-18.4-2.2-25 0-2 .6-5.5 4-5.5 6.1s3.6 5.5 5.5 6.1c6.6 2.2 25 0 25 0" fill="#428bc1"/><path d="m34.4 20.1v-9.7c0 0-17-1.7-23.2 0-1.8.5-5.1 3.2-5.1 4.8s3.3 4.3 5.1 4.8c6.2 1.8 23.2.1 23.2.1" fill="#ddeaf2"/><path d="m37.2 33.6v-12.4c0 0-23.1-2.1-29.7.1-2 .6-5.5 4-5.5 6.1 0 2.1 3.6 5.5 5.5 6.1 6.6 2.2 29.7.1 29.7.1" fill="#ed4c5c"/><path d="m37.2 32.1v-9.4c0 0-21.7-1.6-27.8.1-1.8.5-5.2 3.1-5.2 4.6 0 1.6 3.3 4.1 5.2 4.6 6.2 1.7 27.8.1 27.8.1" fill="#ddeaf2"/><path d="m35.1 45.6v-11.9c0 0-16.3-2.3-22.9-.1-2 .6-5.5 4-5.5 6.1s3.6 5.5 5.5 6.1c6.6 2.1 22.9-.2 22.9-.2" fill="#ffce31"/><path d="m35.1 44.2v-9.2c0 0-14.9-1.8-21-.1-1.8.5-5 3.1-5 4.7 0 1.6 3.3 4.2 5 4.7 6.1 1.7 21-.1 21-.1" fill="#ddeaf2"/><g fill="#94989b"><path d="m34.4 13.3l-18.1-.9h18.1z"/><path d="m34.4 17.1l-13.1.2 13.1-1.1z"/><path d="m37.2 25.4l-9.4-.5 9.4-.5z"/><path d="m37.2 28.5l-19.3 1.2 19.3-2.1z"/><path d="m35.1 39.2l-11.1-2 11.1 1.1z"/><path d="m35.1 41.6l-17.8.7 17.8-1.6z"/></g></svg>