<svg xmlns="http://www.w3.org/2000/svg" viewBox="0 0 64 64" enable-background="new 0 0 64 64"><path fill="#595959" d="m13.3 56.3l-1.7-1.8 4.1-4.1-2.1-2.1 4.1-4 2.1 2.1 4.2-4.2 1.8 1.8-1.1 1.1 1.6 1.5 1.1-1.1.9 1 3.3 3.3-3 2.9-3.3-3.2-2.1 2 3.2 3.2-2.3 2.2-3.1-3.2-2.1 2.1 3.2 3.2-3 3-3.2-3.2-.1-.1-.9-.9 1.1-1-1.6-1.6z"/><path d="m55.2 13.9c1.8-1 3-2.9 3-5.2 0-3.3-2.7-5.9-6-5.9-2.2 0-4.2 1.2-5.2 2.9-1.3-2.2-3.7-3.7-6.5-3.7-4.2 0-7.5 3.3-7.5 7.4 0 4.1 3.4 7.4 7.5 7.4.4 0 .7 0 1-.1l-1.1 1h-2.3v2.2l-.6.6-.2-.2c-.5-.5-1.4-.5-1.9 0l-.1.1c-.5.5-.5 1.3 0 1.8l.2.2-27.8 27.7.5.5-.7.7c-.7-.3-1.6-.3-2.1.2-.7.7-.5 2 .4 2.9.9.9 2.3 1.1 3 .4.5-.5.5-1.3.2-2.1l.7-.7.5.5 27.8-27.5.2.2c.5.5 1.4.5 1.9 0l.1-.1c.5-.5.5-1.3 0-1.8l-.2-.2.6-.6h2.3v-2.2l1.1-1c0 .3-.1.7-.1 1 0 4.1 3.4 7.4 7.5 7.4s7.5-3.3 7.5-7.4c.1-2.8-1.4-5.2-3.7-6.4m-3.7 11.3c-2.8 0-5-2.2-5-5 0-1.1.3-2.1.9-2.9l-1.2-1.2.5-.5c.8.4 1.6.3 2.1-.2.7-.7.5-2-.4-2.9-.9-.9-2.3-1.1-3-.4-.5.5-.5 1.3-.2 2.1l-.5.5-1.2-1.2c-.8.6-1.9 1-3 1-2.8 0-5-2.2-5-5s2.2-5 5-5c2.8 0 5 2.2 5 5h3.1c0-.2-.1-.4-.1-.6 0-2.1 1.7-3.7 3.7-3.7 2.1 0 3.7 1.7 3.7 3.7s-1.7 3.7-3.7 3.7c-.2 0-.5 0-.7-.1v2.8c0 0 0 0 0 0 2.8 0 5 2.2 5 5s-2.2 4.9-5 4.9" fill="#333"/></svg>