<svg xmlns="http://www.w3.org/2000/svg" viewBox="0 0 36 36"><path fill="#CCD6DD" d="M34.5 24.995c0 2.209-1.791 2-4 2h-25c-2.209 0-4 .209-4-2L3.5 11c.293-1.75 1-2 2-2h25c1 0 1.791.208 2 2l2 13.995z"/><path fill="#67757F" d="M13.5 16zm0 0zm0 12z"/><path fill="#292F33" d="M28.5 16.5c0 .829-.672 1.5-1.5 1.5H9c-.829 0-1.5-.671-1.5-1.5S8.172 15 9 15h18c.828 0 1.5.671 1.5 1.5z"/><path fill="#5DADEC" d="M26.5 17V3c0-1.105-.895-2-2-2h-13c-1.104 0-2 .895-2 2v14h17z"/><path fill="#9AAAB4" d="M34.5 25c0-1.104-.896-2-2-2h-29c-1.104 0-2 .896-2 2v8c0 1.104.896 2 2 2h29c1.104 0 2-.896 2-2v-8z"/><path fill="#5DADEC" d="M18.5 22zm0 0z"/><path fill="#67757F" d="M13.5 23v6c0 1.104.896 2 2 2h5c1.105 0 2-.896 2-2v-6h-9z"/><path fill="#9AAAB4" d="M22.5 23v-1c0-1.104-.895-2-2-2h-5c-1.104 0-2 .896-2 2v1h9zm-3 4.5c0 .828-.672 1.5-1.5 1.5-.829 0-1.5-.672-1.5-1.5v-1c0-.828.671-1.5 1.5-1.5.828 0 1.5.672 1.5 1.5v1z"/><path fill="#FFF" d="M18.806 8.997l2.778-2.778c.222-.222.222-.581 0-.803-.222-.222-.581-.222-.803 0l-2.778 2.778-2.778-2.778c-.221-.222-.581-.222-.803 0-.222.222-.222.581 0 .803L17.2 8.997l-2.784 2.784c-.222.222-.222.581 0 .803.111.111.256.166.401.166.145 0 .291-.056.401-.166L18.002 9.8l2.778 2.778c.111.111.256.166.401.166.145 0 .29-.055.401-.166.222-.222.222-.581 0-.803l-2.776-2.778z"/></svg>