<?xml version="1.0" encoding="utf-8"?>
<!-- Generator: Adobe Illustrator 25.2.3, SVG Export Plug-In . SVG Version: 6.00 Build 0)  -->
<svg version="1.1" id="Layer_3" xmlns="http://www.w3.org/2000/svg" xmlns:xlink="http://www.w3.org/1999/xlink" x="0px" y="0px"
	 viewBox="0 0 128 128" style="enable-background:new 0 0 128 128;" xml:space="preserve">
<g>
	<g>
		<path style="fill:#1976D2;" d="M66.13,68.34l56.04-29.23c0,0,0.02-0.74,0-1.26L59.86,10.83c-0.25-0.11-0.54-0.1-0.79,0.03
			L4.89,39.52c-0.21,0.11-0.33,0.32-0.33,0.55l0,52.95c0,0.62,0.35,1.19,0.89,1.47c0.56,0.29,1.12,0.58,1.68,0.87
			c1.52,0.78,55.95,29.27,57.75,28.62c0.53-0.19,0.93-0.55,1.25-0.98V68.34z"/>
	</g>
	<g>
		<path style="fill:#039BE5;" d="M64.7,67.32c6.65-3.21,57.55-27.78,57.47-29.47L59.82,10.81c-0.23-0.1-0.49-0.09-0.72,0.03
			L4.87,39.53c-0.13,0.07-0.13,0.26,0.01,0.32l58.38,27.47C63.72,67.53,64.24,67.53,64.7,67.32z"/>
		<g>
			<g>
				<path style="fill:#0D47A1;" d="M122.72,94.41l-56.76,29.26c-0.9,0.46-1.96-0.19-1.96-1.2V68.93c0-1.27,0.85-1.73,1.3-1.96
					L121.48,38c0.9-0.46,1.96-0.15,1.96,1.2v54.02C123.45,93.72,123.17,94.18,122.72,94.41z"/>
			</g>
			<g>
				<polygon style="fill:#212121;" points="74.89,46.1 42.64,29.99 48.69,26.98 80.94,43.09 				"/>
			</g>
			<path style="fill:#0D47A1;" d="M78.23,41.74L54.42,29.84c0,0,5.34-4.95,17.4-11.33c0.45-0.24,2.67-1.53,3.15-1.28l28.27,12.3
				C91.74,30.99,78.23,41.74,78.23,41.74z"/>
			<polygon style="fill:#0D47A1;" points="48.69,28.78 79.13,43.98 80.94,43.09 48.69,26.98 42.64,29.99 44.44,30.89 			"/>
			<path style="fill:#DFECF5;" d="M98.96,17.94c-11.65,7.11-26.53,26.93-26.53,26.93l-24.8-12.39c0,0,13.15-21.54,28.52-28.33
				c0.46-0.2,1.01-0.22,1.49,0.04l21.18,11.2C99.9,15.96,99.94,17.34,98.96,17.94z"/>
		</g>
		<polygon style="opacity:0.7;fill:#0D47A1;" points="63.98,74.86 4.55,46.9 4.55,49.09 63.98,77.05 64.41,76.85 		"/>
		<polygon style="fill:#0A3160;" points="64,74.85 64,77.04 123.45,46.54 123.45,44.31 		"/>
	</g>
	<path style="fill:#616161;" d="M39.24,48.13c0-3.48,2.07-4.14,4.63-4.14s4.63,0.81,4.63,4.14c0,1.54-2.07,2.78-4.63,2.78
		S39.24,49.67,39.24,48.13z"/>
	<ellipse style="fill:#E0E0E0;" cx="43.87" cy="46.65" rx="4.42" ry="2.78"/>
</g>
</svg>
