<svg xmlns="http://www.w3.org/2000/svg" viewBox="0 0 64 64" enable-background="new 0 0 64 64"><g fill="#428bc1"><path d="m26 23.5h16v13.9h-16z"/><path d="m23.3 27c0 0-6.9.2-5.5 11.2l4 12.9 7.6-16.7-6.1-7.4"/></g><g fill="#42ade2"><path d="m12.7 18.6l7.1 15.4c0 0 3.1-.7 3.1-5.2l-6.9-12.1-3.3 1.9"/><path d="m40.4 34.6c-2.5-2.2-10.3-2.2-12.7 0-7.3 6.7-7.5 27.4-7.5 27.4h27.7c0 0-.2-20.7-7.5-27.4"/></g><path fill="#428bc1" d="m42 20.2l-.9-.7.5-6.6-3.4 5.4-2-.7-2.2-7.7-2.1 7.7-2 .7-3.4-5.4.5 6.6-1 .7-6.9-1.2 7.4 5.5h7.5 7.6l7.4-5.5z"/><path d="m41.2 24c0 5.7-5.3 8.4-7.2 8.4-2 0-7.2-2.7-7.2-8.4 0 0 14.4-4.3 14.4 0" fill="#42ade2"/><path fill="#428bc1" d="m44.1 54.9l-8.1-8 10.9-10.8 8.1 8z"/><g fill="#42ade2"><path d="m53 49.3c-.4.4-1 .4-1.4 0l-2-2c-.4-.4-.4-1 0-1.4.4-.4 1-.4 1.4 0l2 2c.4.4.4 1 0 1.4"/><path d="m51.9 50.9c-.4.4-1.1.3-1.5-.1l-2.4-2.3c-.4-.4-.5-1.1-.1-1.5.4-.4 1.1-.3 1.5.1l2.4 2.3c.5.4.5 1.1.1 1.5"/><path d="m50.6 52.2c-.4.4-1.1.3-1.5-.1l-2.4-2.3c-.4-.4-.5-1.1-.1-1.5.4-.4 1.1-.3 1.5.1l2.4 2.3c.4.4.5 1.1.1 1.5"/><path d="m49 52.8c-.3.3-.9.3-1.2 0l-1.8-1.7c-.3-.3-.3-.9 0-1.2.3-.3.9-.3 1.2 0l1.8 1.7c.3.3.3.8 0 1.2"/></g><g fill="#428bc1"><path d="m38.6 38.3c0 0-7.2 10.7-3.6 23.7h-5.5c0 0-1.7-14.9 9.1-23.7"/><path d="m38 50.4c0 0-3.5 5.2-1.8 11.6h-2.7c.1 0-.8-7.2 4.5-11.6"/><path d="m32.1 35.6c0 0-8 11.9-4 26.4h-6.1c-.1 0-2-16.5 10.1-26.4"/></g><path d="m23.8 27.7l2.9 3.5c0 0 1.6 5.6-2.9 10.2 0 0 2.1-7.2 0-13.7" fill="#42ade2"/><g fill="#428bc1"><path d="m35.9 28.6c0 .2-.8.6-1.8.6-1 0-1.8-.4-1.8-.6-.1-.2 3.6-.2 3.6 0"/><path d="m35.2 30.4c0 .2-.5.4-1.2.4s-1.2-.3-1.2-.4c0-.1 2.4-.1 2.4 0"/><path d="m39.5 25.1c0 .6-.8 1.4-1.8 1.4-1 0-1.8-.9-1.8-1.4 0-.3 3.6-.3 3.6 0"/><path d="m32.1 25.1c0 .6-.8 1.4-1.8 1.4-1 0-1.8-.9-1.8-1.4.1-.3 3.6-.3 3.6 0"/></g><path d="m11.7 11.8c0 0-2.1-1.4-1.9-4 .3-3 2.7-4.1 2.7-4.1s-.6 2.5 0 2.9c.4.2 1.8 0 1.9-2.3.1-.8-.9-2.3-.9-2.3s2.3.8 3.1 2.7c.6 1.5 0 4 0 4s1.1-.3 1.6-1.7c0 0 .6 3.3-2 4.7h-4.5z" fill="#ff9d27"/><path d="m16 22c0 1-.8 1.9-1.8 1.9h-.5c-1 0-1.8-.8-1.8-1.9v-8.1h4.1v8.1" fill="#428bc1"/><g fill="#42ade2"><path d="m9.7 15.9c0 .5.4 1 1 1h2.9c.5 0 1-.4 1-1 0-.5-.4-1-1-1h-2.9c-.5 0-1 .4-1 1"/><path d="m9.4 17.8c0 .5.5 1 1.1 1h3.3c.6 0 1.1-.4 1.1-1 0-.5-.5-1-1.1-1h-3.3c-.6-.1-1.1.4-1.1 1"/><path d="m9.4 19.6c0 .5.5 1 1.1 1h3.3c.6 0 1.1-.4 1.1-1 0-.5-.5-1-1.1-1h-3.3c-.6 0-1.1.4-1.1 1"/><path d="m10.1 21.1c0 .5.4.8.8.8h2.5c.5 0 .8-.4.8-.8 0-.5-.4-.8-.8-.8h-2.5c-.4 0-.8.3-.8.8"/><ellipse cx="16" cy="16" rx="1.2" ry="1.2"/><path d="m18.2 12v.9h-.9v-.9h-.9v.9h-1v-.9h-.9v.9h-.9v-.9h-.9v.9h-.9v-.9h-1v.9h-.9v-.9h-.9v.9 1.5h10.1v-1.5-.9z"/></g></svg>