<svg xmlns="http://www.w3.org/2000/svg" viewBox="0 0 64 64" enable-background="new 0 0 64 64"><path fill="#dae3ea" d="m38.7 47.5h-13.4l-1.3-3.5h16z"/><path d="m38.7 48.2h-13.4c-1.7 6.2-4.1 10.8-9.3 15.8h7.7c0 0 2.7-9.5 8.3-9.5s8.3 9.5 8.3 9.5h7.7c-5.2-5-7.6-9.6-9.3-15.8" fill="#ed4c5c"/><g fill="#dae3ea"><path d="m18 25.7c0 .9-.7 1.7-1.7 1.7h-14.6c-.9 0-1.7-.7-1.7-1.7 0-1 .7-1.7 1.7-1.7h14.7c.9 0 1.6.7 1.6 1.7"/><path d="m24.5 22.3c0 .9-.7 1.7-1.7 1.7h-14.6c-.9 0-1.7-.7-1.7-1.7 0-.9.7-1.7 1.7-1.7h14.7c.9.1 1.6.8 1.6 1.7"/><path d="m64 40.7c0 .9-.7 1.7-1.7 1.7h-14.6c-.9 0-1.7-.7-1.7-1.7 0-.9.7-1.7 1.7-1.7h14.7c.9 0 1.6.8 1.6 1.7"/><path d="m60.2 37.4c0 .9-.7 1.7-1.7 1.7h-14.7c-.9 0-1.7-.7-1.7-1.7 0-.9.7-1.7 1.7-1.7h14.7c.9 0 1.7.7 1.7 1.7"/></g><path fill="#ed4c5c" d="m37.5 43.3h-11l1.6-5.6h7.8z"/><path fill="#dae3ea" d="m35.9 37h-7.8l.8-7h6z"/><path fill="#ed4c5c" d="m35 30h-6l.8-6.8h4.4z"/><g fill="#dae3ea"><path d="m28.4 19.6h7.2v2.9h-7.2z"/><path d="m28.4 15h7.2v1.8h-7.2z"/></g><path fill="#ed4c5c" d="m28.4 13.6h7.2v1.4h-7.2z"/><path fill="#c94747" d="m30.7 8.2h2.6v5.4h-2.6z"/><path fill="#dae3ea" d="m30.7 1.5h2.6v6.8h-2.6z"/><path fill="#ed4c5c" d="m30.7 0h2.6v1.5h-2.6z"/><g fill="#c5d0d8"><path d="m30 16.8h4v2.9h-4z"/><path d="m28.3 30h7.5v.7h-7.5z"/></g><g fill="#b2c1c0"><path d="m30.7 7.5h2.6v.7h-2.6z"/><path d="m28.4 21.8h7.2v.7h-7.2z"/><path d="m28.3 30.7h7.5v.7h-7.5z"/><path d="m28.1 32.8h7.9v.7h-7.9z"/><path d="m27.7 34.9h8.6v.7h-8.6z"/></g><g fill="#c5d0d8"><path d="m28.1 32.1h7.9v.7h-7.9z"/><path d="m27.7 34.2h8.6v.7h-8.6z"/><path d="m27.4 36.3h9.3v.7h-9.3z"/></g><g fill="#c94747"><path d="m25.3 47.5h13.3v.7h-13.3z"/><path d="m29.8 22.5h4.3v.7h-4.3z"/><path d="m29.6 43.5h-1.3v-3.3c0-.4.3-.6.6-.6.4 0 .6.3.6.6l.1 3.3"/><path d="m31.6 43.5h-1.3v-3.3c0-.4.3-.6.6-.6.4 0 .6.3.6.6l.1 3.3"/><path d="m33.7 43.5h-1.3v-3.3c0-.4.3-.6.6-.6.4 0 .6.3.6.6l.1 3.3"/><path d="m35.7 43.5h-1.3v-3.3c0-.4.3-.6.6-.6.4 0 .6.3.6.6l.1 3.3"/><path d="m31.6 30h-1.3v-3.3c0-.4.3-.6.6-.6.4 0 .6.3.6.6l.1 3.3"/><path d="m33.7 30h-1.3v-3.3c0-.4.3-.6.6-.6.4 0 .6.3.6.6l.1 3.3"/></g><path fill="#b2c1c0" d="m24 43.3h16v.7h-16z"/></svg>