<svg xmlns="http://www.w3.org/2000/svg" viewBox="0 0 64 64" enable-background="new 0 0 64 64"><path fill="#ed4c5c" d="M61.3 54.7 10.3 64 7.9 20.7 64 18.3z"/><path fill="#c94747" d="M10.3 64 2.6 49.4 0 15.5 7.9 20.7z"/><path fill="#881a0e" d="M64 18.3 7.9 20.7 0 15.5 42.1 14.4z"/><g fill="#fff"><path d="m24 30.1l2.8-.1-4.8 18.2-2.6.3-4.3-17.9 3.1-.2 2.7 13.6 3.1-13.9"/><path d="m37.5 44.8c-.9 1.4-2.2 2.2-4 2.5-1.7.2-3.1-.3-4-1.5-1.2-1.5-1.8-3.9-1.8-7 .1-3.2.8-5.7 2.1-7.4 1-1.4 2.3-2.1 4.1-2.2 1.7-.1 3 .5 3.9 1.8 1.1 1.5 1.7 3.7 1.6 6.8-.1 2.9-.7 5.3-1.9 7m-1.5-2.4c.6-1.1.9-2.6.9-4.5 0-1.9-.2-3.3-.8-4.3-.6-1-1.3-1.5-2.3-1.4-1 .1-1.8.6-2.4 1.7-.6 1.1-1 2.6-1 4.6 0 2 .2 3.4.8 4.4.6 1 1.4 1.4 2.4 1.3 1-.1 1.8-.7 2.4-1.8"/><path d="m49.3 28.8v2.8l-3.2.2-.2 13.4-2.3.3.2-13.5-3.4.2.1-3 8.8-.4"/><path d="m58.1 31.1l-5.3.3-.1 3.4 4.9-.4v2.7l-4.9.4-.1 4.1 5.6-.6v2.8l-7.7.9.3-16 7.5-.4-.2 2.8"/></g><path d="m44.2 0c-11.3.2-22.7.4-34 .6 2.3 10 .1 18.2.1 18.2l34-1.6c0 .1 2.2-7.1-.1-17.2" fill="#dfe9ef"/><g fill="#83bf4f"><path d="m40.8 6.8c-5.8.1-11.5.2-17.3.4 0-.5 0-.9 0-1.4 5.8-.2 11.5-.3 17.3-.4 0 .5 0 .9 0 1.4"/><path d="m18.5 8.7c-.1.2-.3.2-.5.1-.8-.7-1.7-1.3-2.5-2-.2-.1-.2-.3 0-.5.1-.1.2-.2.3-.2.2-.1.4-.1.6 0 .5.3.9.7 1.4 1 .2.1.4.1.5-.1.6-.9 1.1-1.8 1.6-2.7.1-.2.3-.2.6-.2.1 0 .3.1.4.1.1.2.2.4.1.6-.8 1.3-1.6 2.6-2.5 3.9"/></g><g fill="#93a2aa"><path d="m40.2 15.1c-5.8.1-11.6.3-17.4.4.1-.5.1-.9.2-1.4 5.8-.1 11.6-.2 17.4-.4-.1.5-.2.9-.2 1.4"/><path d="m20.1 17.2c-1.9 0-3.8.1-5.7.1.2-1.6.4-3.1.6-4.7 1.9 0 3.8-.1 5.7-.1-.2 1.5-.4 3.1-.6 4.7"/></g></svg>