<?xml version="1.0" encoding="utf-8"?>
<!-- Generator: Adobe Illustrator 24.1.2, SVG Export Plug-In . SVG Version: 6.00 Build 0)  -->
<svg version="1.1" id="Layer_1" xmlns="http://www.w3.org/2000/svg" xmlns:xlink="http://www.w3.org/1999/xlink" x="0px" y="0px"
	 viewBox="0 0 128 128" style="enable-background:new 0 0 128 128;" xml:space="preserve">
<g id="gold">
	
		<radialGradient id="face_1_" cx="63.6" cy="1104.9" r="56.9597" gradientTransform="matrix(1 0 0 1 0 -1042)" gradientUnits="userSpaceOnUse">
		<stop  offset="0.5" style="stop-color:#FDE030"/>
		<stop  offset="0.92" style="stop-color:#F7C02B"/>
		<stop  offset="1" style="stop-color:#F4A223"/>
	</radialGradient>
	<path id="face" style="fill:url(#face_1_);" d="M63.6,118.8c-27.9,0-58-17.5-58-55.9S35.7,7,63.6,7c15.5,0,29.8,5.1,40.4,14.4
		c11.5,10.2,17.6,24.6,17.6,41.5s-6.1,31.2-17.6,41.4C93.4,113.6,79,118.8,63.6,118.8z"/>
	<path style="fill:#EB8F00;" d="M111.49,29.67c5.33,8.6,8.11,18.84,8.11,30.23c0,16.9-6.1,31.2-17.6,41.4
		c-10.6,9.3-25,14.5-40.4,14.5c-18.06,0-37-7.35-48.18-22.94c10.76,17.66,31,25.94,50.18,25.94c15.4,0,29.8-5.2,40.4-14.5
		c11.5-10.2,17.6-24.5,17.6-41.4C121.6,50.16,118.13,38.84,111.49,29.67z"/>
</g>
<g id="facial_expressions">
	<g id="relieved-face">
		<path id="mouth" style="fill:#422B0D;" d="M64,101c-8.54,0-14.63-6.29-16.47-9.78c-0.7-1.18-0.83-2.62-0.37-3.91
			c0.28-0.77,1.02-1.29,1.84-1.31c0.28,0.01,0.55,0.06,0.81,0.16c4.3,1.69,8.07,4.14,14.24,4.14s10-2.45,14.24-4.14
			c0.26-0.1,0.53-0.16,0.81-0.16c0.81,0.04,1.51,0.55,1.79,1.31c0.46,1.29,0.33,2.73-0.37,3.91C78.63,94.71,72.54,101,64,101z"/>
		<g id="eyes">
			<g id="peepers">
				<path style="fill:#422B0D;" d="M49.51,54.37l-0.2,0.2c-0.16,0.18-0.33,0.35-0.51,0.5l-0.69,0.57c-0.29,0.22-0.62,0.46-1,0.7
					s-0.77,0.47-1.2,0.69c-0.44,0.22-0.9,0.41-1.37,0.57c-0.49,0.15-0.99,0.27-1.5,0.37c-0.52,0.08-1.04,0.12-1.57,0.12H41
					c-0.26,0-0.31,0-0.41,0L39.89,58c-0.51-0.1-1.01-0.22-1.5-0.37C37.91,57.45,37.45,57.24,37,57c-0.43-0.22-0.83-0.46-1.2-0.69
					c-0.59-0.39-1.14-0.83-1.66-1.31l-0.63-0.58l-0.25-0.25C31.98,53,30.05,52.93,28.69,54c-0.99,0.76-1.32,2.12-0.78,3.25l0.15,0.3
					c0.13,0.29,0.28,0.57,0.44,0.84c1.03,1.72,2.43,3.19,4.09,4.32c0.79,0.55,1.63,1.02,2.51,1.4c0.97,0.43,1.97,0.76,3,1
					c0.55,0.1,1.06,0.2,1.73,0.26c0.31,0,0.67,0.06,0.83,0.06h0.78c1.12-0.02,2.23-0.13,3.33-0.35c1.03-0.24,2.03-0.57,3-1
					c0.88-0.38,1.72-0.85,2.51-1.4c1.24-0.84,2.34-1.88,3.25-3.07l0.48-0.67l0.4-0.63c0.15-0.24,0.28-0.5,0.39-0.77l0.11-0.25
					c0.6-1.43-0.08-3.08-1.51-3.68c-0.1-0.04-0.2-0.08-0.3-0.1C51.84,53.11,50.45,53.44,49.51,54.37z"/>
				<path style="fill:#422B0D;" d="M94.51,54.37l-0.2,0.2c-0.16,0.18-0.33,0.35-0.51,0.5l-0.69,0.57c-0.29,0.22-0.62,0.46-1,0.7
					s-0.77,0.47-1.2,0.69c-0.44,0.22-0.9,0.41-1.37,0.57c-0.49,0.15-0.99,0.27-1.5,0.37c-0.52,0.08-1.04,0.12-1.57,0.12H86
					c-0.26,0-0.31,0-0.41,0L84.89,58c-0.51-0.1-1.01-0.22-1.5-0.37C82.91,57.45,82.45,57.24,82,57c-0.43-0.22-0.83-0.46-1.2-0.69
					c-0.59-0.39-1.14-0.83-1.66-1.31l-0.63-0.58l-0.25-0.25C76.98,53,75.05,52.93,73.69,54c-0.99,0.76-1.32,2.12-0.78,3.25l0.15,0.3
					c0.13,0.29,0.28,0.57,0.44,0.84c1.03,1.72,2.43,3.19,4.09,4.32c0.79,0.55,1.63,1.02,2.51,1.4c0.98,0.43,2,0.77,3.05,1
					c0.55,0.1,1.06,0.2,1.73,0.26c0.31,0,0.67,0.06,0.83,0.06h0.78c1.12-0.02,2.23-0.13,3.33-0.35c1.05-0.23,2.07-0.57,3.05-1
					c0.88-0.38,1.72-0.85,2.51-1.4c1.24-0.84,2.34-1.88,3.25-3.07l0.48-0.67l0.4-0.63c0.15-0.24,0.28-0.5,0.39-0.77l0.11-0.25
					c0.6-1.43-0.08-3.08-1.51-3.68c-0.1-0.04-0.2-0.08-0.3-0.1C96.91,53.06,95.47,53.4,94.51,54.37z"/>
			</g>
		</g>
	</g>
	<g id="eyebrows">
		<path style="fill:#422B0D;" d="M28.42,43.28c-0.7,0.73-1.87,0.76-2.6,0.05c-0.66-0.63-0.75-1.66-0.22-2.4
			c1.12-1.6,2.49-3.01,4.07-4.17c4.19-3.23,9.44-4.76,14.71-4.27c2.48,0.31,2,3.48-0.21,3.69C38.25,36.65,32.69,39.16,28.42,43.28
			L28.42,43.28"/>
	</g>
	<g id="eyebrows-2">
		<path style="fill:#422B0D;" d="M98.49,43.28c0.7,0.73,1.87,0.76,2.6,0.05c0.66-0.63,0.75-1.66,0.22-2.4
			c-1.12-1.6-2.49-3.01-4.07-4.17c-4.19-3.23-9.44-4.76-14.71-4.27c-2.48,0.31-2,3.48,0.21,3.69
			C88.66,36.65,94.22,39.16,98.49,43.28L98.49,43.28"/>
	</g>
</g>
</svg>
