<?xml version="1.0" encoding="utf-8"?>
<!-- Generator: Adobe Illustrator 24.1.2, SVG Export Plug-In . SVG Version: 6.00 Build 0)  -->
<svg version="1.1" id="Layer_1" xmlns="http://www.w3.org/2000/svg" xmlns:xlink="http://www.w3.org/1999/xlink" x="0px" y="0px"
	 viewBox="0 0 128 128" style="enable-background:new 0 0 128 128;" xml:space="preserve">
<g id="gold">
	
		<radialGradient id="face_1_" cx="63.6" cy="1104.9" r="56.9597" gradientTransform="matrix(1 0 0 1 0 -1042)" gradientUnits="userSpaceOnUse">
		<stop  offset="0.5" style="stop-color:#FDE030"/>
		<stop  offset="0.92" style="stop-color:#F7C02B"/>
		<stop  offset="1" style="stop-color:#F4A223"/>
	</radialGradient>
	<path id="face" style="fill:url(#face_1_);" d="M63.6,118.8c-27.9,0-58-17.5-58-55.9S35.7,7,63.6,7c15.5,0,29.8,5.1,40.4,14.4
		c11.5,10.2,17.6,24.6,17.6,41.5s-6.1,31.2-17.6,41.4C93.4,113.6,79,118.8,63.6,118.8z"/>
</g>
<g id="facial_expressions">
	<g id="unamused-face">
		<g id="eyes">
			<g id="eyebrows">
				<path style="fill:#422B0D;" d="M39.37,42.45c1.01,0,1.83-0.82,1.83-1.83c0-1.01-0.82-1.83-1.83-1.83
					c-1.95-0.2-3.91-0.06-5.81,0.4c-5.17,1.11-9.73,4.14-12.77,8.47c-1.37,2.09,1.35,3.78,2.95,2.22c4.18-4.21,9.7-6.84,15.6-7.43
					l0,0"/>
			</g>
		</g>
	</g>
	<g id="smirking-face">
		<g id="mouth">
			<path style="fill:#35220B;" d="M46.63,94.31c3.92-0.51,7.74-0.67,11.47-0.88s7.4-0.42,10.85-1c3.2-0.34,6.31-1.24,9.19-2.66
				c2.42-1.29,4.18-3.54,4.86-6.19v-0.13c0.51-1.8,2.38-2.84,4.18-2.33c1.48,0.42,2.49,1.79,2.45,3.33c-0.05,2.45-0.69,4.85-1.87,7
				c-1.23,2.21-2.95,4.11-5.03,5.55c-4,2.75-8.39,3.76-12.48,4.42c-3.98,0.52-7.99,0.7-12,0.53c-3.92-0.12-7.76-0.46-11.5-0.89l0,0
				c-1.85-0.23-3.17-1.91-2.94-3.77c0.19-1.54,1.4-2.76,2.94-2.94L46.63,94.31z"/>
		</g>
		<g id="eyes-2">
			<g id="peepers">
				<path style="fill:#422B0D;" d="M48.16,55.81c-6.05-1.58-12.44-1.34-18.36,0.69c-1.06,0.41-1.59,1.59-1.18,2.65
					c0.38,0.99,1.44,1.52,2.46,1.24c2.37-0.46,4.79-0.59,7.2-0.4c0,0.06,0,0.39,0,0.39c0,4.89,3.17,7.85,6.67,7.85
					c1.79-0.02,3.5-0.76,4.74-2.06c2.08-2.21,2.51-5.51,1.05-8.17C50.19,56.97,49.27,56.18,48.16,55.81z"/>
				<path style="fill:#422B0D;" d="M96,55.81c-6.05-1.58-12.44-1.34-18.36,0.69c-1.07,0.38-1.64,1.55-1.26,2.62s1.55,1.64,2.62,1.26
					l0,0c2.37-0.46,4.79-0.59,7.19-0.4c0,0.06,0,0.39,0,0.39c0,4.89,3.18,7.85,6.67,7.85c1.8-0.02,3.51-0.76,4.75-2.06
					c2.05-2.21,2.45-5.49,1-8.13C98.06,56.99,97.12,56.19,96,55.81z"/>
			</g>
		</g>
	</g>
	<g id="peepers-2">
		<path style="fill:#896024;" d="M45.06,59.18L45.06,59.18c1.42-0.68,3.13-0.08,3.82,1.34c0.53,1.11,0.29,2.44-0.6,3.3l0,0
			c-1.42,0.68-3.13,0.08-3.82-1.34C43.93,61.37,44.17,60.04,45.06,59.18z"/>
	</g>
	<g id="peepers-3">
		<path style="fill:#896024;" d="M93.06,59.18L93.06,59.18c1.43-0.67,3.13-0.06,3.81,1.37c0.52,1.11,0.28,2.42-0.6,3.27l0,0
			c-1.43,0.67-3.13,0.06-3.81-1.37C91.94,61.35,92.18,60.03,93.06,59.18z"/>
	</g>
	<path style="fill:#EB8F00;" d="M111.49,29.67c5.33,8.6,8.11,18.84,8.11,30.23c0,16.9-6.1,31.2-17.6,41.4
		c-10.6,9.3-25,14.5-40.4,14.5c-18.06,0-37-7.35-48.18-22.94c10.76,17.66,31,25.94,50.18,25.94c15.4,0,29.8-5.2,40.4-14.5
		c11.5-10.2,17.6-24.5,17.6-41.4C121.6,50.16,118.13,38.84,111.49,29.67z"/>
	<path style="fill:#422B0D;" d="M88.22,42.45c-1.01,0-1.83-0.82-1.83-1.83c0-1.01,0.82-1.83,1.83-1.83c1.95-0.2,3.91-0.06,5.81,0.4
		c5.17,1.11,9.74,4.13,12.77,8.47c1.37,2.09-1.35,3.78-3,2.22c-4.18-4.21-9.69-6.84-15.6-7.43l0,0"/>
</g>
</svg>
