<svg xmlns="http://www.w3.org/2000/svg" viewBox="0 0 64 64" enable-background="new 0 0 64 64"><circle cx="32" cy="32" r="30" fill="#ffdd67"/><path d="m49.7 34.4c-.4-.5-1.1-.4-1.9-.4-15.8 0-15.8 0-31.6 0-.8 0-1.5-.1-1.9.4-3.9 5 .7 19.6 17.7 19.6 17 0 21.6-14.6 17.7-19.6" fill="#664e27"/><path d="m33.8 41.7c-.6 0-1.5.5-1.1 2 .2.7 1.2 1.6 1.2 2.8 0 2.4-3.8 2.4-3.8 0 0-1.2 1-2 1.2-2.8.3-1.4-.6-2-1.1-2-1.6 0-4.1 1.7-4.1 4.6 0 3.2 2.7 5.8 6 5.8 3.3 0 6-2.6 6-5.8-.1-2.8-2.7-4.5-4.3-4.6" fill="#4c3526"/><path d="m24.3 50.7c2.2 1 4.8 1.5 7.7 1.5 2.9 0 5.5-.6 7.7-1.5-2.1-1.1-4.7-1.7-7.7-1.7s-5.6.6-7.7 1.7" fill="#ff717f"/><path d="m47 36c-15 0-15 0-29.9 0-2.1 0-2.1 4-.1 4 10.4 0 19.6 0 30 0 2 0 2-4 0-4" fill="#fff"/><g fill="#65b1ef"><path d="m59.4 36.9c7.3 7.7-2.6 18.1-9.9 10.4-5.3-5.6-5.6-16.3-5.6-16.3s10.2.3 15.5 5.9"/><path d="m14.5 47.3c-7.3 7.7-17.2-2.7-9.9-10.4 5.3-5.6 15.5-5.9 15.5-5.9s-.3 10.7-5.6 16.3"/></g><g fill="#664e27"><path d="m28.5 28.7c-1.9-5.1-4.7-7.7-7.5-7.7s-5.6 2.6-7.5 7.7c-.2.5.8 1.4 1.3.9 1.8-1.9 4-2.7 6.2-2.7 2.2 0 4.4.8 6.2 2.7.6.5 1.5-.4 1.3-.9"/><path d="m50.4 28.7c-1.9-5.1-4.7-7.7-7.5-7.7s-5.6 2.6-7.5 7.7c-.2.5.8 1.4 1.3.9 1.8-1.9 4-2.7 6.2-2.7s4.4.8 6.2 2.7c.5.5 1.5-.4 1.3-.9"/></g></svg>