<svg xmlns="http://www.w3.org/2000/svg" viewBox="0 0 64 64" enable-background="new 0 0 64 64"><path d="M62,32c0,16.6-13.4,30-30,30C15.4,62,2,48.6,2,32C2,15.4,15.4,2,32,2C48.6,2,62,15.4,62,32z" fill="#ffdd67"/><path d="m42 47.9c-5-5-2.8-2.8 2.5-8.1 5.3-5.3 3.1-7.6 8.1-2.5 5 5 5.2 9.9 2.2 12.9-2.9 2.9-7.8 2.7-12.8-2.3" fill="#ff717f"/><path fill="#e2596c" d="m45.6 38.7l6.8 9-8.9-6.8z"/><g fill="#664e27"><path d="m28.5 24.9c-1.9-5.1-4.7-7.7-7.5-7.7s-5.6 2.6-7.5 7.7c-.2.5.8 1.4 1.3.9 1.8-1.9 4-2.7 6.2-2.7s4.4.8 6.2 2.7c.6.5 1.5-.4 1.3-.9"/><path d="m50.4 24.9c-1.9-5.1-4.7-7.7-7.5-7.7s-5.6 2.6-7.5 7.7c-.2.5.8 1.4 1.3.9 1.8-1.9 4-2.7 6.2-2.7s4.4.8 6.2 2.7c.5.5 1.5-.4 1.3-.9"/><path d="m48.1 33c-4.3 6.1-9.5 7.6-16.1 7.6s-11.8-1.5-16.1-7.6c-.6-.8-2.2-.3-1.8.9 2.3 8 10 12.7 18 12.7s15.7-4.7 18-12.7c.2-1.2-1.4-1.7-2-.9"/></g></svg>