<svg xmlns="http://www.w3.org/2000/svg" viewBox="0 0 64 64" enable-background="new 0 0 64 64" xmlns:xlink="http://www.w3.org/1999/xlink"><path d="M62,32c0,16.6-13.4,30-30,30C15.4,62,2,48.6,2,32C2,15.4,15.4,2,32,2C48.6,2,62,15.4,62,32z" fill="#ffdd67" id="0"/><path d="m49 38c0-.8-.5-1.8-1.8-2.1-3.5-.7-8.6-1.3-15.2-1.3-6.6 0-11.7.7-15.2 1.3-1.3.3-1.8 1.3-1.8 2.1 0 7.3 5.6 14.6 17 14.6 11.4 0 17-7.3 17-14.6" fill="#664e27" id="1"/><path d="m28.5 26.9c-1.9-5.1-4.7-7.7-7.5-7.7s-5.6 2.6-7.5 7.7c-.2.5.8 1.4 1.3.9 1.8-1.9 4-2.7 6.2-2.7 2.2 0 4.4.8 6.2 2.7.6.5 1.5-.4 1.3-.9" fill="#664e27" id="2"/><path d="m50.4 26.9c-1.9-5.1-4.7-7.7-7.5-7.7-2.8 0-5.6 2.6-7.5 7.7-.2.5.8 1.4 1.3.9 1.8-1.9 4-2.7 6.2-2.7 2.3 0 4.4.8 6.2 2.7.5.5 1.5-.4 1.3-.9" fill="#664e27" id="3"/><path d="m44.7 38.3c-2.2-.4-6.8-1-12.7-1-5.9 0-10.5.6-12.7 1-1.3.2-1.4.7-1.3 1.5.1.4.1 1 .3 1.6.1.6.3.9 1.3.8 1.9-.2 23-.2 24.9 0 1 .1 1.1-.2 1.3-.8.1-.6.2-1.1.3-1.6 0-.8-.1-1.3-1.4-1.5" fill="#fff"/><use xlink:href="#0"/><use xlink:href="#1"/><use xlink:href="#2"/><use xlink:href="#3"/><path d="m44.7 38.3c-2.2-.4-6.8-1-12.7-1-5.9 0-10.5.6-12.7 1-1.3.2-1.4.7-1.3 1.5.1.4.1 1 .3 1.6.1.6.3.8 1.3.8 12.4 0 12.4 0 24.9 0 1 0 1.1-.2 1.3-.8.1-.6.2-1.1.3-1.6 0-.8-.1-1.3-1.4-1.5" fill="#fff"/></svg>