<?xml version="1.0" encoding="UTF-8" standalone="no"?><svg xmlns:dc="http://purl.org/dc/elements/1.1/" xmlns:cc="http://creativecommons.org/ns#" xmlns:rdf="http://www.w3.org/1999/02/22-rdf-syntax-ns#" xmlns:svg="http://www.w3.org/2000/svg" xmlns="http://www.w3.org/2000/svg" viewBox="0 0 45 45" style="enable-background:new 0 0 45 45;" xml:space="preserve" version="1.1" id="svg2"><metadata id="metadata8"><rdf:RDF><cc:Work rdf:about=""><dc:format>image/svg+xml</dc:format><dc:type rdf:resource="http://purl.org/dc/dcmitype/StillImage"/></cc:Work></rdf:RDF></metadata><defs id="defs6"><clipPath id="clipPath16" clipPathUnits="userSpaceOnUse"><path id="path18" d="M 0,36 36,36 36,0 0,0 0,36 Z"/></clipPath></defs><g transform="matrix(1.25,0,0,-1.25,0,45)" id="g10"><g id="g12"><g clip-path="url(#clipPath16)" id="g14"><g transform="translate(36,18)" id="g20"><path id="path22" style="fill:#ffcc4d;fill-opacity:1;fill-rule:nonzero;stroke:none" d="m 0,0 c 0,-9.941 -8.059,-18 -18,-18 -9.94,0 -18,8.059 -18,18 0,9.94 8.06,18 18,18 C -8.059,18 0,9.94 0,0"/></g><g transform="translate(6,23)" id="g24"><path id="path26" style="fill:#664500;fill-opacity:1;fill-rule:nonzero;stroke:none" d="m 0,0 c -0.552,0 -1,0.448 -1,1 0,0.551 0.445,0.998 0.996,1 C 0.151,2.002 3.564,2.086 6.2,5.6 6.531,6.04 7.158,6.132 7.6,5.8 8.042,5.469 8.131,4.842 7.8,4.4 4.538,0.05 0.184,0 0,0"/></g><g transform="translate(30,23)" id="g28"><path id="path30" style="fill:#664500;fill-opacity:1;fill-rule:nonzero;stroke:none" d="m 0,0 c -0.184,0 -4.537,0.05 -7.8,4.4 -0.332,0.442 -0.242,1.069 0.2,1.4 0.442,0.333 1.068,0.242 1.4,-0.2 C -3.56,2.079 -0.139,2.001 0.006,2 0.556,1.994 1,1.544 0.997,0.995 0.994,0.444 0.55,0 0,0"/></g><g transform="translate(30.5996,15.7998)" id="g32"><path id="path34" style="fill:#664500;fill-opacity:1;fill-rule:nonzero;stroke:none" d="M 0,0 C -0.114,0.086 -1.931,1.426 -4.646,2.344 -4.619,2.459 -4.6,2.577 -4.6,2.7 -4.6,3.069 -4.738,3.403 -4.959,3.664 -3.156,4.185 -1.625,4.2 -1.598,4.2 -1.047,4.202 -0.6,4.65 -0.601,5.202 -0.602,5.753 -1.048,6.2 -1.6,6.2 -1.82,6.2 -7.051,6.163 -10.307,2.907 -10.593,2.621 -10.679,2.191 -10.523,1.817 -10.369,1.443 -10.004,1.2 -9.6,1.2 c 4.59,0 8.364,-2.772 8.402,-2.801 0.18,-0.133 0.389,-0.198 0.597,-0.198 0.305,0 0.606,0.139 0.802,0.401 C 0.531,-0.956 0.441,-0.331 0,0"/></g><g transform="translate(15.707,18.707)" id="g36"><path id="path38" style="fill:#664500;fill-opacity:1;fill-rule:nonzero;stroke:none" d="m 0,0 c -3.255,3.255 -8.486,3.293 -8.707,3.293 -0.552,0 -0.999,-0.447 -0.999,-0.999 -0.001,-0.551 0.446,-1 0.998,-1.001 0.026,0 1.558,-0.016 3.36,-0.536 -0.22,-0.261 -0.359,-0.595 -0.359,-0.964 0,-0.123 0.019,-0.241 0.047,-0.356 -2.716,-0.918 -4.533,-2.258 -4.647,-2.344 -0.442,-0.331 -0.531,-0.958 -0.2,-1.4 0.196,-0.262 0.497,-0.4 0.801,-0.4 0.208,0 0.419,0.065 0.599,0.2 0.037,0.027 3.787,2.8 8.4,2.8 0.404,0 0.769,0.243 0.924,0.617 C 0.372,-0.716 0.286,-0.286 0,0"/></g><g transform="translate(18,6)" id="g40"><path id="path42" style="fill:#664500;fill-opacity:1;fill-rule:nonzero;stroke:none" d="M 0,0 C -0.304,0 -0.591,0.138 -0.781,0.375 L -3.975,4.367 -6.2,1.4 C -6.374,1.168 -6.64,1.023 -6.929,1.003 -7.219,0.981 -7.503,1.088 -7.707,1.293 l -1,1 c -0.391,0.391 -0.391,1.023 0,1.414 0.391,0.391 1.023,0.391 1.414,0 L -7.108,3.523 -4.8,6.6 c 0.186,0.248 0.475,0.395 0.784,0.4 0.296,0.01 0.603,-0.133 0.797,-0.375 L 0,2.601 3.219,6.625 C 3.412,6.866 3.703,7 4.016,7 4.325,6.995 4.614,6.848 4.8,6.6 L 7.108,3.523 7.293,3.707 c 0.391,0.391 1.023,0.391 1.414,0 0.391,-0.391 0.391,-1.023 0,-1.414 l -1,-1 C 7.502,1.088 7.229,0.979 6.929,1.003 6.64,1.023 6.374,1.168 6.2,1.4 L 3.975,4.367 0.781,0.375 C 0.591,0.138 0.304,0 0,0"/></g></g></g></g></svg>
