<?xml version="1.0" encoding="utf-8"?>
<!-- Generator: Adobe Illustrator 24.1.2, SVG Export Plug-In . SVG Version: 6.00 Build 0)  -->
<svg version="1.1" id="Layer_1" xmlns="http://www.w3.org/2000/svg" xmlns:xlink="http://www.w3.org/1999/xlink" x="0px" y="0px"
	 viewBox="0 0 128 128" style="enable-background:new 0 0 128 128;" xml:space="preserve">
<g id="facial_expressions">
	<g id="gold-2">
		
			<radialGradient id="face_1_" cx="63.6" cy="-678.9" r="56.9597" gradientTransform="matrix(1 0 0 -1 0 -616)" gradientUnits="userSpaceOnUse">
			<stop  offset="0.5" style="stop-color:#FDE030"/>
			<stop  offset="0.92" style="stop-color:#F7C02B"/>
			<stop  offset="1" style="stop-color:#F4A223"/>
		</radialGradient>
		<path id="face" style="fill:url(#face_1_);" d="M63.6,118.8c-27.9,0-58-17.5-58-55.9S35.7,7,63.6,7c15.5,0,29.8,5.1,40.4,14.4
			c11.5,10.2,17.6,24.6,17.6,41.5s-6.1,31.2-17.6,41.4C93.4,113.6,79,118.8,63.6,118.8z"/>
		<path style="fill:#EB8F00;" d="M111.49,29.67c5.33,8.6,8.11,18.84,8.11,30.23c0,16.9-6.1,31.2-17.6,41.4
			c-10.6,9.3-25,14.5-40.4,14.5c-18.06,0-37-7.35-48.18-22.94c10.76,17.66,31,25.94,50.18,25.94c15.4,0,29.8-5.2,40.4-14.5
			c11.5-10.2,17.6-24.5,17.6-41.4C121.6,50.16,118.13,38.84,111.49,29.67z"/>
	</g>
	<g id="facial_expressions-2">
		<g id="squinting-face-with-tongue">
			<g id="eyes">
				<path style="fill:#422B0D;" d="M31.53,60.38L43.7,58l-12.55-5.18l-0.42-0.23c-2.04-1.09-2.82-3.62-1.73-5.67c0,0,0,0,0,0
					c0.24-0.49,0.58-0.92,1-1.27c2-1.54,4.75-1.66,6.88-0.3l21.27,13c0.52,0.19,0.78,0.76,0.59,1.28c-0.13,0.35-0.44,0.6-0.81,0.65
					L35,68.93c-0.16,0.03-0.33,0.08-0.48,0.15c-3,0.84-6.33-0.88-6.79-3.78C27.4,63.1,29.1,61.05,31.53,60.38z"/>
				<path style="fill:#422B0D;" d="M96.47,60.13L84.3,57.78l12.55-5.21l0.42-0.23c2.04-1.09,2.82-3.62,1.73-5.67c0,0,0,0,0,0
					c-0.24-0.49-0.58-0.92-1-1.27c-2-1.54-4.75-1.66-6.88-0.3l-21.27,13c-0.52,0.19-0.78,0.76-0.59,1.28
					c0.13,0.35,0.44,0.6,0.81,0.65L93,68.68c0.16,0.03,0.33,0.08,0.48,0.15c3,0.84,6.33-0.88,6.79-3.78
					C100.6,62.85,98.9,60.8,96.47,60.13z"/>
			</g>
		</g>
		<g id="mouth">
			<path style="fill:#422B0D;" d="M62.82,80.43c-11.5,0.06-22.98-0.9-34.31-2.89c-1.9-0.36-3.74,0.89-4.1,2.79
				c-0.09,0.44-0.09,0.9,0,1.34c3.26,16,19,29.13,38.4,29.13c21.21,0,35.48-13.57,38.45-29.19c0.34-1.91-0.92-3.73-2.83-4.08
				c-0.42-0.07-0.86-0.07-1.28,0C85.82,79.52,74.33,80.49,62.82,80.43z"/>
			<g>
				<defs>
					<path id="SVGID_1_" d="M62.82,80.43c-11.5,0.06-22.98-0.9-34.31-2.89c-1.9-0.36-3.74,0.89-4.1,2.79c-0.09,0.44-0.09,0.9,0,1.34
						c3.26,16,19,29.13,38.4,29.13c21.21,0,35.48-13.57,38.45-29.19c0.34-1.91-0.92-3.73-2.83-4.08c-0.42-0.07-0.86-0.07-1.28,0
						C85.82,79.52,74.33,80.49,62.82,80.43z"/>
				</defs>
				<clipPath id="SVGID_2_">
					<use xlink:href="#SVGID_1_"  style="overflow:visible;"/>
				</clipPath>
				<g style="clip-path:url(#SVGID_2_);">
					<path style="fill:#422B0D;" d="M62.82,80.43c-11.5,0.06-22.98-0.9-34.31-2.89c-1.9-0.36-3.74,0.89-4.1,2.79
						c-0.09,0.44-0.09,0.9,0,1.34c3.26,16,19,29.13,38.4,29.13c21.21,0,35.48-13.57,38.45-29.19c0.34-1.91-0.92-3.73-2.83-4.08
						c-0.42-0.07-0.86-0.07-1.28,0C85.82,79.52,74.33,80.49,62.82,80.43z"/>
				</g>
			</g>
		</g>
		<path style="fill:#FF4081;" d="M44.74,87.83v21c0.01,9.48,7.69,17.16,17.17,17.17h3.27c9.48,0,17.17-7.69,17.17-17.17V87.61
			C63.54,91.31,49.48,88.9,44.74,87.83z"/>
		<path style="fill:#FF4081;" d="M65.54,85h-4c-5.73,0-11.38-0.27-16.81-0.72v3.55c4.74,1.07,18.8,3.48,37.61-0.22v-3.46
			C76.93,84.64,71.29,84.93,65.54,85z"/>
		<path style="opacity:0.3;fill:#AB3F2E;enable-background:new    ;" d="M65.54,85h-4c-5.73,0-11.38-0.27-16.81-0.72v3.55
			c4.74,1.07,18.8,3.48,37.61-0.22v-3.46C76.93,84.64,71.29,84.93,65.54,85z"/>
	</g>
	<path style="opacity:0.3;fill:#AB3F2E;enable-background:new    ;" d="M63.55,106.25c1.1,0,2-0.9,2-2c0,0,0,0,0,0l0,0V85h-4v19.24
		c0,1.1,0.9,2,2,2L63.55,106.25z"/>
</g>
</svg>
