<?xml version="1.0" encoding="utf-8"?>
<!-- Generator: Adobe Illustrator 24.1.2, SVG Export Plug-In . SVG Version: 6.00 Build 0)  -->
<svg version="1.1" id="Layer_1" xmlns="http://www.w3.org/2000/svg" xmlns:xlink="http://www.w3.org/1999/xlink" x="0px" y="0px"
	 viewBox="0 0 128 128" style="enable-background:new 0 0 128 128;" xml:space="preserve">
<g id="gold">
	
		<radialGradient id="face_1_" cx="63.6" cy="1104.9" r="56.9597" gradientTransform="matrix(1 0 0 1 0 -1042)" gradientUnits="userSpaceOnUse">
		<stop  offset="0.5" style="stop-color:#FDE030"/>
		<stop  offset="0.92" style="stop-color:#F7C02B"/>
		<stop  offset="1" style="stop-color:#F4A223"/>
	</radialGradient>
	<path id="face" style="fill:url(#face_1_);" d="M63.6,118.8c-27.9,0-58-17.5-58-55.9S35.7,7,63.6,7c15.5,0,29.8,5.1,40.4,14.4
		c11.5,10.2,17.6,24.6,17.6,41.5s-6.1,31.2-17.6,41.4C93.4,113.6,79,118.8,63.6,118.8z"/>
	<path style="fill:#EB8F00;" d="M111.49,29.67c5.33,8.6,8.11,18.84,8.11,30.23c0,16.9-6.1,31.2-17.6,41.4
		c-10.6,9.3-25,14.5-40.4,14.5c-18.06,0-37-7.35-48.18-22.94c10.76,17.66,31,25.94,50.18,25.94c15.4,0,29.8-5.2,40.4-14.5
		c11.5-10.2,17.6-24.5,17.6-41.4C121.6,50.16,118.13,38.84,111.49,29.67z"/>
</g>
<g id="facial_expressions">
	<g id="pensive-face">
		
			<line id="mouth" style="fill:none;stroke:#35220B;stroke-width:8;stroke-linecap:round;stroke-linejoin:round;" x1="53" y1="95" x2="75" y2="95"/>
		<g id="eyes">
			<g id="peepers">
				<path style="fill:#422B0D;" d="M49.6,64l-0.2,0.2l-0.5,0.5c-0.2,0.2-0.4,0.3-0.7,0.6c-0.32,0.26-0.65,0.49-1,0.7
					c-0.4,0.2-0.8,0.5-1.2,0.7s-0.9,0.4-1.4,0.6c-0.49,0.18-0.99,0.31-1.5,0.4c-0.53,0.09-1.06,0.12-1.6,0.1h-0.9
					c-0.2,0-0.5-0.1-0.7-0.1c-0.51-0.09-1.01-0.22-1.5-0.4c-0.49-0.14-0.96-0.34-1.4-0.6c-0.42-0.2-0.82-0.43-1.2-0.7
					c-0.7-0.5-1.3-1-1.7-1.3l-0.6-0.6l-0.2-0.2c-1.29-1.16-3.22-1.24-4.6-0.2c-0.97,0.76-1.3,2.08-0.8,3.2l0.1,0.3
					c0.11,0.28,0.25,0.54,0.4,0.8c0.61,1.03,1.35,1.97,2.2,2.8c0.59,0.58,1.23,1.12,1.9,1.6c0.79,0.55,1.62,1.02,2.5,1.4
					c0.96,0.44,1.97,0.77,3,1c0.5,0.1,1.1,0.2,1.7,0.3c0.3,0,0.7,0.1,0.8,0.1h0.8c1.11,0,2.21-0.1,3.3-0.3c1.04-0.21,2.04-0.55,3-1
					c0.88-0.38,1.71-0.85,2.5-1.4c0.72-0.43,1.36-0.97,1.9-1.6c0.49-0.45,0.93-0.95,1.3-1.5c0.2-0.2,0.3-0.5,0.5-0.7
					s0.3-0.4,0.4-0.6c0.17-0.24,0.31-0.51,0.4-0.8l0.1-0.2c0.62-1.4-0.02-3.05-1.42-3.67c-0.12-0.05-0.25-0.1-0.38-0.13
					C51.76,62.83,50.45,63.11,49.6,64z"/>
				<path style="fill:#422B0D;" d="M94.51,64.37l-0.2,0.2c-0.16,0.18-0.33,0.35-0.51,0.5l-0.69,0.57c-0.29,0.22-0.62,0.46-1,0.7
					s-0.77,0.47-1.2,0.69c-0.44,0.22-0.9,0.41-1.37,0.57c-0.49,0.15-0.99,0.27-1.5,0.37c-0.52,0.08-1.04,0.12-1.57,0.12H86
					c-0.26,0-0.31,0-0.41,0L84.89,68c-0.51-0.1-1.01-0.22-1.5-0.37C82.91,67.45,82.45,67.24,82,67c-0.43-0.22-0.83-0.46-1.2-0.69
					c-0.59-0.39-1.14-0.83-1.66-1.31l-0.63-0.58l-0.25-0.25C76.98,63,75.05,62.93,73.69,64c-0.99,0.76-1.32,2.12-0.78,3.25l0.15,0.3
					c0.13,0.29,0.28,0.57,0.44,0.84c1.03,1.72,2.43,3.19,4.09,4.32c0.79,0.55,1.63,1.02,2.51,1.4c0.98,0.43,2,0.77,3.05,1
					c0.55,0.1,1.06,0.2,1.73,0.26c0.31,0,0.67,0.06,0.83,0.06h0.78c1.12-0.02,2.23-0.13,3.33-0.35c1.05-0.23,2.07-0.57,3.05-1
					c0.88-0.38,1.72-0.85,2.51-1.4c1.24-0.84,2.34-1.88,3.25-3.07l0.48-0.67l0.4-0.63c0.15-0.24,0.28-0.5,0.39-0.77l0.11-0.25
					c0.6-1.43-0.08-3.08-1.51-3.68c-0.1-0.04-0.2-0.08-0.3-0.1C96.91,63.06,95.47,63.4,94.51,64.37z"/>
			</g>
		</g>
	</g>
	<g id="eyebrows">
		<path style="fill:#422B0D;" d="M23.4,46.8c-2.2,0.4-2.3,3.6,0.1,3.7c5.3,0.07,10.42-1.9,14.3-5.5c1.48-1.28,2.73-2.8,3.7-4.5
			c0.58-0.83,0.38-1.97-0.45-2.55s-1.97-0.38-2.55,0.45l-0.1,0.1C34.48,42.88,29.19,45.81,23.4,46.8z"/>
		<path style="fill:#422B0D;" d="M89.5,38.4c-0.58-0.83-1.72-1.03-2.55-0.45c-0.83,0.58-1.03,1.72-0.45,2.55
			c0.97,1.7,2.22,3.22,3.7,4.5c3.9,3.57,9.01,5.54,14.3,5.5c2.5-0.1,2.3-3.3,0.1-3.7C98.74,45.84,93.41,42.87,89.5,38.4L89.5,38.4"
			/>
	</g>
</g>
</svg>
