<?xml version="1.0" encoding="UTF-8" standalone="no"?><svg xmlns:dc="http://purl.org/dc/elements/1.1/" xmlns:cc="http://creativecommons.org/ns#" xmlns:rdf="http://www.w3.org/1999/02/22-rdf-syntax-ns#" xmlns:svg="http://www.w3.org/2000/svg" xmlns="http://www.w3.org/2000/svg" viewBox="0 0 45 45" style="enable-background:new 0 0 45 45;" xml:space="preserve" version="1.1" id="svg2"><metadata id="metadata8"><rdf:RDF><cc:Work rdf:about=""><dc:format>image/svg+xml</dc:format><dc:type rdf:resource="http://purl.org/dc/dcmitype/StillImage"/></cc:Work></rdf:RDF></metadata><defs id="defs6"><clipPath id="clipPath16" clipPathUnits="userSpaceOnUse"><path id="path18" d="M 0,36 36,36 36,0 0,0 0,36 Z"/></clipPath></defs><g transform="matrix(1.25,0,0,-1.25,0,45)" id="g10"><g id="g12"><g clip-path="url(#clipPath16)" id="g14"><g transform="translate(36,18)" id="g20"><path id="path22" style="fill:#ffcc4d;fill-opacity:1;fill-rule:nonzero;stroke:none" d="m 0,0 c 0,-9.941 -8.059,-18 -18,-18 -9.941,0 -18,8.059 -18,18 0,9.941 8.059,18 18,18 C -8.059,18 0,9.941 0,0"/></g><g transform="translate(23.4854,7.1211)" id="g24"><path id="path26" style="fill:#664500;fill-opacity:1;fill-rule:nonzero;stroke:none" d="m 0,0 c -0.012,0.044 -1.146,4.379 -5.485,4.379 -4.341,0 -5.475,-4.335 -5.485,-4.379 -0.053,-0.213 0.043,-0.431 0.231,-0.544 0.188,-0.112 0.433,-0.086 0.596,0.06 0.01,0.007 1.014,0.863 4.658,0.863 3.589,0 4.617,-0.83 4.656,-0.863 0.095,-0.09 0.219,-0.137 0.344,-0.137 0.084,0 0.169,0.021 0.246,0.064 C -0.043,-0.445 0.055,-0.218 0,0"/></g><g transform="translate(25.7803,20.3594)" id="g28"><path id="path30" style="fill:#664500;fill-opacity:1;fill-rule:nonzero;stroke:none" d="m 0,0 c -0.341,0.093 -0.692,0.14 -1.043,0.14 -2.345,0 -4.053,-2.06 -4.125,-2.147 -0.143,-0.176 -0.148,-0.426 -0.017,-0.609 0.134,-0.184 0.374,-0.253 0.586,-0.174 0.005,0.002 0.573,0.215 1.565,0.215 0.714,0 1.468,-0.108 2.244,-0.32 2.342,-0.637 3.313,-1.818 3.334,-1.843 0.098,-0.124 0.243,-0.192 0.394,-0.192 0.066,0 0.133,0.014 0.197,0.041 0.209,0.09 0.331,0.31 0.297,0.534 C 3.409,-4.208 2.854,-0.778 0,0"/></g><g transform="translate(11.2261,20.4878)" id="g32"><path id="path34" style="fill:#664500;fill-opacity:1;fill-rule:nonzero;stroke:none" d="m 0,0 c -0.317,0 -0.636,-0.039 -0.947,-0.116 -2.87,-0.707 -3.513,-4.121 -3.539,-4.266 -0.04,-0.223 0.076,-0.444 0.281,-0.54 0.068,-0.032 0.14,-0.047 0.211,-0.047 0.145,0 0.287,0.063 0.385,0.179 0.01,0.012 1.01,1.178 3.379,1.761 0.715,0.176 1.413,0.265 2.073,0.265 1.104,0 1.732,-0.253 1.735,-0.254 0.067,-0.028 0.131,-0.04 0.207,-0.04 0.272,-0.012 0.509,0.221 0.509,0.5 0,0.165 -0.08,0.311 -0.203,0.402 C 3.724,-1.721 2.138,0 0,0"/></g></g></g></g></svg>
