<?xml version="1.0" encoding="UTF-8" standalone="no"?><svg xmlns:dc="http://purl.org/dc/elements/1.1/" xmlns:cc="http://creativecommons.org/ns#" xmlns:rdf="http://www.w3.org/1999/02/22-rdf-syntax-ns#" xmlns:svg="http://www.w3.org/2000/svg" xmlns="http://www.w3.org/2000/svg" viewBox="0 0 45 45" style="enable-background:new 0 0 45 45;" xml:space="preserve" version="1.1" id="svg2"><metadata id="metadata8"><rdf:RDF><cc:Work rdf:about=""><dc:format>image/svg+xml</dc:format><dc:type rdf:resource="http://purl.org/dc/dcmitype/StillImage"/></cc:Work></rdf:RDF></metadata><defs id="defs6"><clipPath id="clipPath16" clipPathUnits="userSpaceOnUse"><path id="path18" d="M 0,36 36,36 36,0 0,0 0,36 Z"/></clipPath></defs><g transform="matrix(1.25,0,0,-1.25,0,45)" id="g10"><g id="g12"><g clip-path="url(#clipPath16)" id="g14"><g transform="translate(36,18)" id="g20"><path id="path22" style="fill:#ffcc4d;fill-opacity:1;fill-rule:nonzero;stroke:none" d="m 0,0 c 0,-9.941 -8.059,-18 -18,-18 -9.941,0 -18,8.059 -18,18 0,9.941 8.059,18 18,18 C -8.059,18 0,9.941 0,0"/></g><g transform="translate(12,15)" id="g24"><path id="path26" style="fill:#ff7892;fill-opacity:1;fill-rule:nonzero;stroke:none" d="m 0,0 c 0,-2.762 -2.239,-5 -5,-5 -2.761,0 -5,2.238 -5,5 0,2.762 2.239,5 5,5 2.761,0 5,-2.238 5,-5"/></g><g transform="translate(34,15)" id="g28"><path id="path30" style="fill:#ff7892;fill-opacity:1;fill-rule:nonzero;stroke:none" d="m 0,0 c 0,-2.762 -2.238,-5 -5,-5 -2.762,0 -5,2.238 -5,5 0,2.762 2.238,5 5,5 2.762,0 5,-2.238 5,-5"/></g><g transform="translate(28.416,18.2773)" id="g32"><path id="path34" style="fill:#664500;fill-opacity:1;fill-rule:nonzero;stroke:none" d="m 0,0 c -0.061,0.091 -1.515,2.223 -4.416,2.223 -2.9,0 -4.355,-2.132 -4.416,-2.223 -0.135,-0.202 -0.104,-0.47 0.071,-0.638 0.174,-0.167 0.447,-0.184 0.643,-0.041 0.012,0.009 1.262,0.902 3.702,0.902 2.426,0 3.674,-0.882 3.702,-0.902 0.089,-0.066 0.194,-0.098 0.298,-0.098 0.124,0 0.248,0.046 0.344,0.136 C 0.105,-0.473 0.135,-0.203 0,0"/></g><g transform="translate(12,20.5)" id="g36"><path id="path38" style="fill:#664500;fill-opacity:1;fill-rule:nonzero;stroke:none" d="M 0,0 C -2.9,0 -4.355,-2.132 -4.416,-2.223 -4.55,-2.424 -4.52,-2.692 -4.345,-2.86 -4.169,-3.027 -3.898,-3.045 -3.703,-2.902 -3.69,-2.893 -2.441,-2 0,-2 2.426,-2 3.674,-2.881 3.702,-2.901 3.791,-2.967 3.896,-3 4,-3 c 0.124,0 0.248,0.046 0.344,0.137 0.177,0.167 0.207,0.438 0.072,0.64 C 4.355,-2.132 2.901,0 0,0"/></g><g transform="translate(21.8711,9)" id="g40"><path id="path42" style="fill:#664500;fill-opacity:1;fill-rule:nonzero;stroke:none" d="m 0,0 c 1.335,0.412 2.629,1.156 2.629,2.5 0,2.619 -4.912,2.968 -5.473,2.999 C -3.121,5.535 -3.354,5.305 -3.37,5.031 -3.387,4.758 -3.18,4.521 -2.906,4.501 -2.871,4.499 0.629,4.202 0.629,2.5 0.629,0.798 -2.871,0.501 -2.906,0.499 -2.916,0.498 -2.923,0.493 -2.933,0.492 -3.057,0.484 -3.163,0.427 -3.242,0.333 -3.247,0.327 -3.251,0.319 -3.257,0.312 -3.286,0.273 -3.311,0.234 -3.33,0.187 -3.341,0.16 -3.346,0.131 -3.352,0.102 -3.356,0.078 -3.368,0.056 -3.37,0.031 -3.371,0.021 -3.366,0.011 -3.366,0 c 0,-0.011 -0.005,-0.021 -0.004,-0.031 0.002,-0.026 0.013,-0.046 0.018,-0.071 0.006,-0.029 0.011,-0.058 0.023,-0.086 0.013,-0.033 0.032,-0.06 0.051,-0.088 0.016,-0.024 0.03,-0.047 0.049,-0.068 0.024,-0.024 0.052,-0.043 0.082,-0.062 0.023,-0.017 0.045,-0.033 0.071,-0.046 0.031,-0.015 0.065,-0.021 0.1,-0.027 0.024,-0.006 0.044,-0.018 0.07,-0.02 0.035,-0.002 3.535,-0.299 3.535,-2.001 0,-1.702 -3.5,-1.999 -3.535,-2.001 -0.274,-0.02 -0.481,-0.257 -0.464,-0.53 0.016,-0.265 0.236,-0.469 0.499,-0.469 0.009,0 0.019,0 0.027,0.001 0.561,0.031 5.473,0.38 5.473,2.999 0,1.344 -1.294,2.088 -2.629,2.5"/></g><g transform="translate(31.001,20)" id="g44"><path id="path46" style="fill:#664500;fill-opacity:1;fill-rule:nonzero;stroke:none" d="M 0,0 C -0.305,0 -0.605,0.138 -0.801,0.4 -3.441,3.921 -6.862,3.999 -7.007,4 -7.557,4.006 -8.001,4.456 -7.998,5.005 -7.995,5.556 -7.551,6 -7.001,6 -6.817,6 -2.464,5.95 0.799,1.6 1.131,1.158 1.041,0.531 0.599,0.2 0.419,0.065 0.209,0 0,0"/></g><g transform="translate(4.999,20)" id="g48"><path id="path50" style="fill:#664500;fill-opacity:1;fill-rule:nonzero;stroke:none" d="m 0,0 c -0.208,0 -0.419,0.065 -0.599,0.2 -0.442,0.331 -0.531,0.958 -0.2,1.4 3.262,4.35 7.616,4.4 7.8,4.4 0.552,0 1,-0.448 1,-1 C 8.001,4.449 7.556,4.002 7.005,4 6.85,3.998 3.437,3.914 0.801,0.4 0.604,0.138 0.304,0 0,0"/></g></g></g></g></svg>
