<?xml version="1.0" encoding="utf-8"?>
<!-- Generator: Adobe Illustrator 24.1.2, SVG Export Plug-In . SVG Version: 6.00 Build 0)  -->
<svg version="1.1" id="Layer_1" xmlns="http://www.w3.org/2000/svg" xmlns:xlink="http://www.w3.org/1999/xlink" x="0px" y="0px"
	 viewBox="0 0 128 128" style="enable-background:new 0 0 128 128;" xml:space="preserve">
<g id="gold">
	
		<radialGradient id="face_1_" cx="63.6" cy="512.9" r="56.9597" gradientTransform="matrix(1 0 0 1 0 -450)" gradientUnits="userSpaceOnUse">
		<stop  offset="0.5" style="stop-color:#FDE030"/>
		<stop  offset="0.92" style="stop-color:#F7C02B"/>
		<stop  offset="1" style="stop-color:#F4A223"/>
	</radialGradient>
	<path id="face" style="fill:url(#face_1_);" d="M63.6,118.8c-27.9,0-58-17.5-58-55.9S35.7,7,63.6,7c15.5,0,29.8,5.1,40.4,14.4
		c11.5,10.2,17.6,24.6,17.6,41.5s-6.1,31.2-17.6,41.4C93.4,113.6,79,118.8,63.6,118.8z"/>
</g>
<g id="facial_expressions">
	<path style="fill:#422B0D;" d="M72.86,84.93c1.71-1.51,2.78-3.6,3-5.87c0.19-3.6-0.73-4.84-1.91-6.41
		c-2.71-3.65-10.4-2.78-10.4-2.78c-2,0.08-4.44,1.06-4.15,3.44c0.39,1.35,1.49,2.38,2.87,2.69c3,0.73,7.37,0,7.49,3.09
		c0.14,3.46-5.18,2-5.6,5.7s5.6,3.19,5.6,5.71c0,1.93-2,2.26-4.07,2.7c-1.79,0.37-5.23,0.93-5.51,3s0.91,4.57,5.75,3.84
		c7.61-1.15,10.17-5.32,10.17-7.88C76.15,89.39,74.96,86.74,72.86,84.93z"/>
	<g id="smiling-eyes-grinning-face">
		<g id="eyes">
			<path style="fill:#422B0D;" d="M49,56.89l-0.15-0.2l-0.43-0.55l-0.53-0.57c-0.22-0.25-0.48-0.49-0.73-0.75s-0.56-0.51-0.84-0.72
				c-0.26-0.2-0.54-0.39-0.84-0.54c-0.2-0.11-0.42-0.2-0.65-0.25c-0.07-0.01-0.14-0.01-0.21,0c0,0-0.06,0-0.09,0h-0.08
				c0.12,0-0.27,0,0.27,0h-0.55c-0.15,0-0.05,0,0,0h0.08c0.08,0,0,0,0,0h-0.11c-0.23,0.05-0.45,0.13-0.66,0.25
				c-0.29,0.16-0.58,0.34-0.84,0.54c-0.29,0.22-0.57,0.46-0.83,0.72c-0.53,0.51-1,1-1.3,1.39l-0.52,0.6l-0.23,0.27
				c-1.44,1.61-3.87,1.87-5.62,0.61c-1.12-0.78-1.69-2.13-1.47-3.48c0,0,0.07-0.4,0.26-1.11c0.3-1.01,0.72-1.99,1.25-2.91
				c0.85-1.5,2-2.81,3.38-3.85c0.91-0.7,1.92-1.26,3-1.65c0.3-0.12,0.61-0.21,0.92-0.29c0.33-0.1,0.66-0.17,1-0.23l0.61-0.09
				l0.51-0.06h0.55h0.79h0.51c0.34,0,0.67,0.09,1,0.14c0.64,0.11,1.28,0.28,1.89,0.51c1.08,0.39,2.09,0.95,3,1.65
				c1.38,1.04,2.53,2.35,3.38,3.85c0.31,0.52,0.58,1.07,0.8,1.63c0.19,0.45,0.35,0.9,0.48,1.37c0.07,0.24,0.13,0.48,0.16,0.72v0.25
				c0.3,2.04-1.12,3.94-3.16,4.24c-0.05,0.01-0.1,0.01-0.15,0.02C51.39,58.61,49.93,58.03,49,56.89z"/>
			<path style="fill:#422B0D;" d="M88.46,56.89l-0.16-0.2l-0.43-0.55l-0.53-0.57c-0.22-0.25-0.48-0.49-0.73-0.75
				s-0.56-0.51-0.84-0.72c-0.26-0.2-0.54-0.39-0.84-0.54c-0.2-0.11-0.42-0.2-0.65-0.25c-0.07-0.01-0.14-0.01-0.21,0
				c0,0-0.06,0-0.09,0H83.9c0.12,0-0.27,0,0.27,0h-0.55c-0.15,0-0.05,0,0,0h0.08c0.08,0,0,0,0,0h-0.11
				c-0.23,0.05-0.45,0.13-0.66,0.25c-0.29,0.15-0.57,0.34-0.83,0.54c-0.3,0.22-0.58,0.46-0.84,0.72c-0.53,0.51-1,1-1.3,1.39
				l-0.52,0.6l-0.22,0.27c-1.45,1.61-3.87,1.87-5.63,0.61c-1.12-0.78-1.69-2.13-1.47-3.48c0,0,0.07-0.4,0.27-1.11
				c0.3-1.02,0.71-2,1.25-2.91c0.85-1.5,1.99-2.81,3.37-3.85c0.91-0.7,1.92-1.26,3-1.65c0.3-0.12,0.61-0.21,0.92-0.29
				c0.33-0.1,0.66-0.17,1-0.23l0.62-0.09l0.5-0.06h0.55h0.79h0.51c0.34,0,0.67,0.09,1,0.14c0.65,0.11,1.28,0.28,1.89,0.51
				c1.08,0.39,2.09,0.95,3,1.65c1.38,1.04,2.53,2.35,3.38,3.85c0.31,0.52,0.58,1.07,0.8,1.63c0.19,0.44,0.35,0.89,0.48,1.35
				c0.07,0.24,0.13,0.48,0.16,0.72v0.25c0.32,2.04-1.08,3.95-3.12,4.27c-0.03,0-0.06,0.01-0.09,0.01
				C90.91,58.65,89.4,58.07,88.46,56.89z"/>
		</g>
	</g>
	<path style="fill:#EB8F00;" d="M111.49,29.67c5.33,8.6,8.11,18.84,8.11,30.23c0,16.9-6.1,31.2-17.6,41.4
		c-10.6,9.3-25,14.5-40.4,14.5c-18.06,0-37-7.35-48.18-22.94c10.76,17.66,31,25.94,50.18,25.94c15.4,0,29.8-5.2,40.4-14.5
		c11.5-10.2,17.6-24.5,17.6-41.4C121.6,50.16,118.13,38.84,111.49,29.67z"/>
</g>
</svg>
