<svg xmlns="http://www.w3.org/2000/svg" viewBox="0 0 64 64" enable-background="new 0 0 64 64"><circle cx="32" cy="32" r="30" fill="#ffdd67"/><g fill="#664e27"><circle cx="20" cy="27" r="5"/><circle cx="44" cy="27" r="5"/></g><g fill="#917524"><path d="m50.2 17c-3.2-2.7-7.5-3.9-11.7-3.1-.6.1-1.1-2-.4-2.2 4.8-.9 9.8.5 13.5 3.6.6.5-1 2.1-1.4 1.7"/><path d="m25.5 13.8c-4.2-.7-8.5.4-11.7 3.1-.4.4-2-1.2-1.4-1.7 3.7-3.2 8.7-4.5 13.5-3.6.7.1.2 2.3-.4 2.2"/></g><circle cx="32" cy="48" r="5" fill="#664e27"/></svg>