<svg xmlns="http://www.w3.org/2000/svg" viewBox="0 0 64 64" enable-background="new 0 0 64 64"><circle cx="32" cy="32" r="30" fill="#ffdd67"/><path d="m43.8 48.3c0 6.3-5.3 8.4-11.8 8.4s-11.8-2.1-11.8-8.4c0-8.3 5.3-13.7 11.8-13.7 6.5 0 11.8 5.4 11.8 13.7" fill="#664e27"/><path d="m34.7 39c-.8 0-2.1.8-1.7 2.9.2 1.1 1.7 2.4 1.7 4.1 0 3.5-5.5 3.5-5.5 0 0-1.7 1.5-3 1.7-4.1.5-2.1-.8-2.9-1.7-2.9-2.3.1-6.1 2.6-6.1 6.8 0 4.8 3.9 8.7 8.8 8.7s8.8-3.9 8.8-8.7c.1-4.2-3.7-6.8-6-6.8" fill="#4c3526"/><path d="m32 50.7c-6.4 0-8.3 2-8.3 2 1.6 2.8 8.3 2.6 8.3 2.6s6.6.2 8.3-2.6c0 0-1.9-2-8.3-2" fill="#ff717f"/><path d="m30.1 26.8c-1.3-.7-4.1 7.9-8.5 8.7-.4-.5-.9-1-1.4-1.4-4.2-3.5-10.7-2.8-14.5 1.8-3.8 4.5-3.4 11.1.8 14.6 4.2 3.6 10.7 2.8 14.5-1.8 4.9-5.8 10.8-21 9.1-21.9" fill="#52e8b6"/><g fill="#664e27"><path d="m35.9 20.5c4.2 8 12.7 8 16.9 0 .2-.4-.3-.6-1-1-4.2 3.3-11.1 3-14.9 0-.6.5-1.2.6-1 1"/><path d="m11.2 20.5c4.2 8 12.7 8 16.9 0 .2-.4-.3-.6-1-1-4.2 3.3-11.1 3-14.9 0-.7.5-1.2.6-1 1"/></g></svg>