<?xml version="1.0" encoding="UTF-8" standalone="no"?><svg xmlns:dc="http://purl.org/dc/elements/1.1/" xmlns:cc="http://creativecommons.org/ns#" xmlns:rdf="http://www.w3.org/1999/02/22-rdf-syntax-ns#" xmlns:svg="http://www.w3.org/2000/svg" xmlns="http://www.w3.org/2000/svg" viewBox="0 0 45 45" style="enable-background:new 0 0 45 45;" xml:space="preserve" version="1.1" id="svg2"><metadata id="metadata8"><rdf:RDF><cc:Work rdf:about=""><dc:format>image/svg+xml</dc:format><dc:type rdf:resource="http://purl.org/dc/dcmitype/StillImage"/></cc:Work></rdf:RDF></metadata><defs id="defs6"><clipPath id="clipPath16" clipPathUnits="userSpaceOnUse"><path id="path18" d="M 0,36 36,36 36,0 0,0 0,36 Z"/></clipPath></defs><g transform="matrix(1.25,0,0,-1.25,0,45)" id="g10"><g id="g12"><g clip-path="url(#clipPath16)" id="g14"><g transform="translate(36,18)" id="g20"><path id="path22" style="fill:#ffcc4d;fill-opacity:1;fill-rule:nonzero;stroke:none" d="m 0,0 c 0,-9.941 -8.059,-18 -18,-18 -9.94,0 -18,8.059 -18,18 0,9.94 8.06,18 18,18 C -8.059,18 0,9.94 0,0"/></g><g transform="translate(25.4854,6.1211)" id="g24"><path id="path26" style="fill:#664500;fill-opacity:1;fill-rule:nonzero;stroke:none" d="m 0,0 c -0.045,0.179 -1.168,4.379 -7.485,4.379 -6.318,0 -7.441,-4.2 -7.485,-4.379 -0.055,-0.217 0.043,-0.442 0.237,-0.554 0.195,-0.109 0.439,-0.079 0.599,0.077 0.019,0.019 1.954,1.856 6.649,1.856 4.694,0 6.63,-1.837 6.648,-1.856 0.096,-0.094 0.224,-0.144 0.352,-0.144 0.084,0 0.169,0.021 0.246,0.064 C -0.043,-0.445 0.055,-0.218 0,0"/></g><g transform="translate(15.707,18.707)" id="g28"><path id="path30" style="fill:#664500;fill-opacity:1;fill-rule:nonzero;stroke:none" d="m 0,0 c -3.255,3.255 -8.486,3.293 -8.707,3.293 -0.552,0 -0.999,-0.447 -0.999,-0.999 -0.001,-0.551 0.446,-1 0.998,-1.001 0.029,0 1.925,-0.022 3.983,-0.737 -0.593,-0.64 -0.982,-1.634 -0.982,-2.763 0,-1.934 1.119,-3.5 2.5,-3.5 1.381,0 2.5,1.566 2.5,3.5 0,0.174 -0.019,0.34 -0.037,0.507 0.013,0 0.025,-0.007 0.037,-0.007 0.256,0 0.512,0.098 0.707,0.293 0.391,0.391 0.391,1.023 0,1.414"/></g><g transform="translate(29,22)" id="g32"><path id="path34" style="fill:#664500;fill-opacity:1;fill-rule:nonzero;stroke:none" d="m 0,0 c -0.221,0 -5.451,-0.038 -8.707,-3.293 -0.391,-0.391 -0.391,-1.023 0,-1.414 C -8.512,-4.902 -8.256,-5 -8,-5 c 0.013,0 0.024,0.007 0.036,0.007 C -7.98,-5.16 -8,-5.326 -8,-5.5 -8,-7.434 -6.881,-9 -5.5,-9 c 1.381,0 2.5,1.566 2.5,3.5 0,1.129 -0.389,2.123 -0.982,2.763 C -1.924,-2.022 -0.028,-2 0.002,-2 0.553,-1.999 1,-1.55 0.999,-0.999 0.998,-0.447 0.552,0 0,0"/></g></g></g></g></svg>
