<svg xmlns="http://www.w3.org/2000/svg" viewBox="0 0 64 64" enable-background="new 0 0 64 64"><circle cx="32" cy="32" r="30" fill="#ffdd67"/><g fill="#917524"><path d="m38.4 11.2c3.2 2.7 7.5 3.9 11.7 3.1.6-.1 1.1 2 .4 2.2-4.8.9-9.8-.5-13.5-3.6-.5-.5 1-2 1.4-1.7"/><path d="m13.9 14.2c4.2.7 8.5-.4 11.7-3.1.4-.4 2 1.2 1.4 1.7-3.7 3.2-8.7 4.5-13.5 3.6-.7-.2-.2-2.3.4-2.2"/></g><path d="m32 32c-8.8-.1-15.9 5.4-16 12.3 0 3.8 1.3 9.5 5.6 9.5 3.1 0 6.5-3.8 10.4-3.8 3.9 0 7.1 4 10.2 4 3.8 0 5.8-5.7 5.8-9.5.1-6.8-7.2-12.4-16-12.5" fill="#664e27"/><path d="m39 43.2c0-3.1-3-4.9-4.8-4.9-.7 0-1.7.6-1.3 2.1.2.8 1.4 1.7 1.4 3 0 2.5-4.4 2.5-4.4 0 0-1.3 1.2-2.2 1.4-3 .4-1.5-.7-2.1-1.3-2.1-1.8 0-4.8 1.9-4.8 4.9 0 1.9 1 3.4 2.5 4.6h9c1.3-1.2 2.3-2.7 2.3-4.6" fill="#4c3526"/><path d="m32 46c-6 0-8 5-8 5s4-3 8-3 8 3 8 3-2-5-8-5" fill="#ff717f"/><path d="m41.8 37c-2.5-1.9-5.7-3-9.8-3-4.1 0-7.3 1.2-9.8 3-.4.3-.4 1 .3 1 2.4 0 9.4 0 9.4 0s7.1 0 9.4 0c.8 0 .8-.7.5-1" fill="#fff"/><g fill="#664e27"><path d="m51.7 21.1c.6.3.3 1-.2 1.1-2.7.4-5.5.9-8.3 2.4 4 .7 7.2 2.7 9 4.8.4.5-.1 1.1-.5 1-4.8-1.7-9.7-2.7-15.8-2-.5 0-.9-.2-.8-.7 1.6-7.3 10.9-10 16.6-6.6"/><path d="m12.3 21.1c-.6.3-.3 1 .2 1.1 2.7.4 5.5.9 8.3 2.4-4 .7-7.2 2.7-9 4.8-.4.5.1 1.1.5 1 4.8-1.7 9.7-2.7 15.8-2 .5 0 .9-.2.8-.7-1.6-7.3-10.9-10-16.6-6.6"/></g></svg>