<?xml version="1.0" encoding="utf-8"?>
<!-- Generator: Adobe Illustrator 25.2.3, SVG Export Plug-In . SVG Version: 6.00 Build 0)  -->
<svg version="1.1" id="Layer_1" xmlns="http://www.w3.org/2000/svg" xmlns:xlink="http://www.w3.org/1999/xlink" x="0px" y="0px"
	 viewBox="0 0 128 128" style="enable-background:new 0 0 128 128;" xml:space="preserve">
<radialGradient id="face_1_" cx="63.6" cy="-2088.8999" r="56.9597" gradientTransform="matrix(1 0 0 -1 0 -2026)" gradientUnits="userSpaceOnUse">
	<stop  offset="0.5" style="stop-color:#FDE030"/>
	<stop  offset="0.9188" style="stop-color:#F7C02B"/>
	<stop  offset="1" style="stop-color:#F4A223"/>
</radialGradient>
<path id="face_41_" style="fill:url(#face_1_);" d="M63.6,118.8c-27.9,0-58-17.5-58-55.9S35.7,7,63.6,7c15.5,0,29.8,5.1,40.4,14.4
	c11.5,10.2,17.6,24.6,17.6,41.5s-6.1,31.2-17.6,41.4C93.4,113.6,79,118.8,63.6,118.8z"/>
<path style="fill:#EB8F00;" d="M111.49,29.67c5.33,8.6,8.11,18.84,8.11,30.23c0,16.9-6.1,31.2-17.6,41.4
	c-10.6,9.3-25,14.5-40.4,14.5c-18.06,0-37.04-7.35-48.18-22.94c10.76,17.66,30.99,25.94,50.18,25.94c15.4,0,29.8-5.2,40.4-14.5
	c11.5-10.2,17.6-24.5,17.6-41.4C121.6,50.16,118.13,38.84,111.49,29.67z"/>
<g>
	<path style="fill:#422B0D;" d="M44.04,40.94L44.04,40.94c-4.19,0-8,3.54-8,9.42s3.81,9.42,8,9.42l0,0c4.19,0,8-3.54,8-9.42
		S48.24,40.94,44.04,40.94z"/>
	<g>
		<g id="peepers_146_">
			<path style="fill:#896024;" d="M43.65,44.87L43.65,44.87c-1.03-0.72-2.58-0.49-3.58,0.95c-1,1.45-0.67,2.97,0.36,3.69l0,0
				c1.03,0.72,2.58,0.49,3.58-0.95S44.69,45.59,43.65,44.87z"/>
		</g>
	</g>
	<path style="fill:#422B0D;" d="M82.4,40.94L82.4,40.94c-4.19,0-8,3.54-8,9.42s3.81,9.42,8,9.42l0,0c4.19,0,8-3.54,8-9.42
		S86.59,40.94,82.4,40.94z"/>
	<g>
		<g id="peepers_145_">
			<path style="fill:#896024;" d="M82.01,44.87L82.01,44.87c-1.03-0.72-2.58-0.49-3.58,0.95c-1,1.45-0.67,2.97,0.36,3.69l0,0
				c1.03,0.72,2.58,0.49,3.58-0.95C83.38,47.11,83.04,45.59,82.01,44.87z"/>
		</g>
	</g>
</g>
<g>
	<path style="fill:#FFFFFF;" d="M39.38,93.99h50.09c6.32,0,11.44-5.12,11.44-11.44v0c0-6.32-5.12-11.44-11.44-11.44H39.38
		c-6.32,0-11.44,5.12-11.44,11.44v0C27.93,88.87,33.06,93.99,39.38,93.99z"/>
	<g>
		<path style="fill:#B3B3B3;" d="M100.74,80.67H28.1c-0.1,0.61-0.17,1.24-0.17,1.88c0,0.73,0.07,1.43,0.2,2.12h72.57
			c0.13-0.69,0.2-1.39,0.2-2.12C100.91,81.9,100.84,81.28,100.74,80.67z"/>
	</g>
	<g>
		<path style="fill:#B3B3B3;" d="M89.46,71.1h-0.55v22.89h0.55c0.91,0,1.8-0.12,2.65-0.32V71.42C91.26,71.22,90.38,71.1,89.46,71.1z
			"/>
		<rect x="62.58" y="71.1" style="fill:#B3B3B3;" width="3.2" height="22.89"/>
		<path style="fill:#B3B3B3;" d="M39.38,71.1c-1.09,0-2.14,0.16-3.14,0.45v21.99c1,0.29,2.05,0.45,3.14,0.45h0.06V71.1H39.38z"/>
		<rect x="49.41" y="71.1" style="fill:#B3B3B3;" width="3.2" height="22.89"/>
		<rect x="75.74" y="71.1" style="fill:#B3B3B3;" width="3.2" height="22.89"/>
	</g>
	<path style="fill:#DE7321;" d="M100.91,82.55c-0.34-3.59-2.27-6.84-5.13-8.64c-1.4-0.93-3-1.51-4.63-1.68
		c-1.56-0.16-3.43,0.01-5.21,0.04c-3.58,0.14-7.17,0.17-10.75,0.25L64.42,72.6l-10.75-0.08c-3.58-0.08-7.17-0.11-10.75-0.25
		c-1.78-0.03-3.65-0.2-5.21-0.04c-1.63,0.17-3.24,0.74-4.63,1.68c-2.86,1.8-4.8,5.05-5.14,8.64c-0.34-3.59,1.27-7.44,4.27-9.83
		c1.48-1.21,3.28-2.05,5.19-2.43l0.72-0.14l0.73-0.06c0.5-0.05,0.94-0.05,1.39-0.07l2.69-0.09c3.58-0.14,7.17-0.17,10.75-0.25
		l10.75-0.08l10.75,0.08c3.58,0.08,7.17,0.11,10.75,0.25l2.69,0.09c0.45,0.02,0.88,0.02,1.39,0.07l0.73,0.06l0.72,0.14
		c1.91,0.38,3.71,1.22,5.19,2.43C99.64,75.11,101.25,78.95,100.91,82.55z"/>
</g>
</svg>
