<?xml version="1.0" encoding="utf-8"?>
<!-- Generator: Adobe Illustrator 24.1.2, SVG Export Plug-In . SVG Version: 6.00 Build 0)  -->
<svg version="1.1" id="Layer_1" xmlns="http://www.w3.org/2000/svg" xmlns:xlink="http://www.w3.org/1999/xlink" x="0px" y="0px"
	 viewBox="0 0 128 128" style="enable-background:new 0 0 128 128;" xml:space="preserve">
<g id="gold">
	
		<radialGradient id="face_1_" cx="63.6" cy="2880.8999" r="56.9597" gradientTransform="matrix(1 0 0 1 0 -2818)" gradientUnits="userSpaceOnUse">
		<stop  offset="0.5" style="stop-color:#FDE030"/>
		<stop  offset="0.92" style="stop-color:#F7C02B"/>
		<stop  offset="1" style="stop-color:#F4A223"/>
	</radialGradient>
	<path id="face" style="fill:url(#face_1_);" d="M63.6,118.8c-27.9,0-58-17.5-58-55.9S35.7,7,63.6,7c15.5,0,29.8,5.1,40.4,14.4
		c11.5,10.2,17.6,24.6,17.6,41.5s-6.1,31.2-17.6,41.4C93.4,113.6,79,118.8,63.6,118.8z"/>
</g>
<g id="facial_expressions">
	<path style="fill:#EB8F00;" d="M111.49,29.67c5.33,8.6,8.11,18.84,8.11,30.23c0,16.9-6.1,31.2-17.6,41.4
		c-10.6,9.3-25,14.5-40.4,14.5c-18.06,0-37-7.35-48.18-22.94c10.76,17.66,31,25.94,50.18,25.94c15.4,0,29.8-5.2,40.4-14.5
		c11.5-10.2,17.6-24.5,17.6-41.4C121.6,50.16,118.13,38.84,111.49,29.67z"/>
	<g id="sleeping-face">
		<g id="eyes">
			<path style="fill:#422B0D;" d="M48.6,54.7l-0.2,0.2l-0.5,0.5c-0.2,0.2-0.4,0.3-0.7,0.6c-0.32,0.26-0.65,0.49-1,0.7
				c-0.4,0.2-0.8,0.5-1.2,0.7s-0.9,0.4-1.4,0.6c-0.49,0.18-0.99,0.31-1.5,0.4c-0.53,0.09-1.06,0.12-1.6,0.1h-0.9
				c-0.24,0.02-0.48-0.02-0.7-0.1c-0.51-0.09-1.01-0.22-1.5-0.4c-0.48-0.16-0.95-0.36-1.4-0.6c-0.4-0.2-0.8-0.5-1.2-0.7
				c-0.7-0.5-1.3-1-1.7-1.3l-0.6-0.6l-0.2-0.2c-1.29-1.16-3.22-1.24-4.6-0.2c-0.97,0.76-1.3,2.08-0.8,3.2l0.2,0.3
				c0.11,0.28,0.25,0.54,0.4,0.8c0.61,1.03,1.35,1.97,2.2,2.8c0.59,0.58,1.23,1.12,1.9,1.6c0.79,0.55,1.62,1.02,2.5,1.4
				c0.96,0.44,1.97,0.77,3,1l1.7,0.3c0.3,0,0.7,0.1,0.8,0.1h0.8c1.11,0,2.21-0.1,3.3-0.3c1.04-0.21,2.04-0.55,3-1
				c0.88-0.38,1.71-0.85,2.5-1.4c0.7-0.45,1.34-0.99,1.9-1.6c0.49-0.45,0.93-0.95,1.3-1.5c0.2-0.2,0.3-0.5,0.5-0.7s0.3-0.4,0.4-0.6
				c0.17-0.24,0.31-0.51,0.4-0.8l0.1-0.2c0.62-1.4-0.02-3.05-1.42-3.67c-0.12-0.05-0.25-0.1-0.38-0.13
				C50.83,53.49,49.47,53.77,48.6,54.7z"/>
			<path style="fill:#422B0D;" d="M93.5,54.7l-0.2,0.2l-0.5,0.5c-0.2,0.2-0.4,0.3-0.7,0.6c-0.32,0.26-0.65,0.49-1,0.7
				c-0.4,0.2-0.8,0.5-1.2,0.7S89,57.8,88.5,58c-0.49,0.18-0.99,0.31-1.5,0.4c-0.53,0.09-1.06,0.12-1.6,0.1h-0.9
				c-0.24,0.01-0.47-0.03-0.7-0.1c-0.51-0.09-1.01-0.22-1.5-0.4c-0.48-0.16-0.95-0.36-1.4-0.6c-0.4-0.2-0.8-0.5-1.2-0.7
				c-0.7-0.5-1.3-1-1.7-1.3l-0.6-0.6l-0.2-0.2c-1.29-1.16-3.22-1.24-4.6-0.2c-0.97,0.76-1.3,2.08-0.8,3.2l0.2,0.3
				c0.11,0.28,0.25,0.54,0.4,0.8c0.61,1.03,1.35,1.97,2.2,2.8c0.59,0.58,1.23,1.12,1.9,1.6c0.79,0.55,1.62,1.02,2.5,1.4
				c0.96,0.44,1.97,0.77,3,1l1.7,0.3c0.3,0,0.7,0.1,0.8,0.1h0.8c1.11,0,2.21-0.1,3.3-0.3c1.04-0.21,2.04-0.55,3-1
				c0.88-0.38,1.71-0.85,2.5-1.4c0.72-0.43,1.36-0.97,1.9-1.6c0.49-0.45,0.93-0.95,1.3-1.5c0.2-0.2,0.3-0.5,0.5-0.7s0.3-0.4,0.4-0.6
				c0.17-0.24,0.31-0.51,0.4-0.8l0.1-0.2c0.62-1.4-0.02-3.05-1.42-3.67c-0.12-0.05-0.25-0.1-0.38-0.13
				C95.73,53.49,94.37,53.77,93.5,54.7z"/>
		</g>
		<g id="prop">
			<path style="fill:#5F7AFF;" d="M77.2,21.6c-0.34-0.19-0.71-0.33-1.1-0.4c-0.4-0.2-0.9-0.3-1.3-0.5l-2.1-0.6
				c-0.8-0.3-1.7-0.5-2.5-0.8c-1.6-0.5-3.6-1.8-4.6,0.5c-0.27,0.49-0.41,1.04-0.4,1.6c0,0.8,0.6,1.2,1.3,1.5
				c0.74,0.33,1.51,0.59,2.3,0.8c0.25,0.13,0.52,0.19,0.8,0.2c0.2,0,0.4,0.1,0.4,0.3s-0.2,0.2-0.3,0.3s-0.4,0.3-0.6,0.4l-0.3,0.2
				c-0.54,0.4-1.11,0.77-1.7,1.1c-0.4,0.3-0.9,0.6-1.3,0.9c-0.22,0.1-0.42,0.23-0.6,0.4c-0.59,0.4-1.16,0.84-1.7,1.3L63.3,29
				c-0.54,0.43-0.93,1.03-1.1,1.7c-0.1,0.9,0.6,1.3,1.4,1.7l0.9,0.3l0,0c1.05,0.39,2.12,0.73,3.2,1c0.8,0.3,1.7,0.5,2.5,0.8
				c1.6,0.5,3.6,1.8,4.6-0.5c0.27-0.49,0.41-1.04,0.4-1.6c-0.1-0.71-0.61-1.3-1.3-1.5c-0.74-0.33-1.51-0.59-2.3-0.8
				c-0.2,0-0.3-0.1-0.5-0.2s-0.3-0.1-0.4-0.1c-0.2-0.2,0.2-0.4,0.3-0.5c0.42-0.23,0.82-0.5,1.2-0.8c0.42-0.27,0.82-0.57,1.2-0.9
				c0.2-0.1,0.4-0.3,0.6-0.4c0.4-0.3,0.9-0.6,1.3-0.9c1.1-0.9,3.6-2,2.8-3.7C77.89,22.2,77.58,21.85,77.2,21.6z"/>
			<path style="fill:#5F7AFF;" d="M97.1,12.1c-0.38-0.18-0.79-0.31-1.2-0.4c-0.5-0.1-1-0.3-1.5-0.4c-0.8-0.2-1.6-0.3-2.3-0.5
				c-0.9-0.2-1.9-0.5-2.8-0.7c-1.8-0.4-4.1-1.6-5,1c-0.24,0.57-0.35,1.18-0.3,1.8c0.1,0.9,0.8,1.3,1.6,1.5
				c0.82,0.28,1.65,0.51,2.5,0.7c0.3,0.1,0.6,0.1,0.9,0.2s0.4,0.1,0.4,0.3s-0.2,0.3-0.3,0.4s-0.4,0.3-0.6,0.5s-0.2,0.1-0.3,0.2
				c-0.6,0.5-1.2,0.9-1.8,1.4L85,19.2c-0.2,0.1-0.4,0.3-0.6,0.4c-0.6,0.5-1.2,1-1.7,1.5c-0.1,0.1-0.2,0.1-0.2,0.2
				c-0.61,0.5-1,1.22-1.1,2c0,1,0.8,1.4,1.7,1.8l1,0.3l0,0c1.15,0.36,2.32,0.66,3.5,0.9c0.9,0.2,1.9,0.5,2.8,0.7
				c1.8,0.4,4.1,1.6,5-1c0.24-0.57,0.35-1.18,0.3-1.8c-0.1-0.9-0.8-1.3-1.6-1.5c-0.85-0.29-1.72-0.53-2.6-0.7
				c-0.2,0-0.4-0.1-0.6-0.1s-0.4,0-0.5-0.1s0.2-0.4,0.3-0.5c0.4-0.3,0.8-0.6,1.3-1l1.3-1c0.22-0.19,0.45-0.36,0.7-0.5
				c0.49-0.34,0.95-0.71,1.4-1.1c1.1-1.1,3.8-2.4,2.7-4.3C97.97,12.84,97.6,12.37,97.1,12.1z"/>
			<path style="fill:#5F7AFF;" d="M123.6,9c-0.38-0.64-0.93-1.17-1.6-1.5c-0.52-0.21-1.05-0.38-1.6-0.5c-0.65-0.21-1.32-0.38-2-0.5
				c-1-0.3-2.1-0.5-3.1-0.7c-1.2-0.3-2.5-0.7-3.7-1c-2.4-0.6-5.4-2.2-6.7,1.3c-0.33,0.76-0.46,1.58-0.4,2.4
				c0.18,1.06,1.04,1.87,2.1,2c1.12,0.36,2.25,0.66,3.4,0.9c0.4,0.1,0.8,0.2,1.1,0.3s0.6,0.1,0.6,0.4c-0.04,0.22-0.19,0.41-0.4,0.5
				c-0.3,0.2-0.5,0.4-0.8,0.6c-0.11,0.12-0.25,0.23-0.4,0.3c-0.8,0.6-1.6,1.2-2.3,1.8l-1.8,1.5c-0.25,0.22-0.52,0.42-0.8,0.6
				c-0.8,0.6-1.5,1.3-2.3,2l-0.3,0.3c-0.8,0.64-1.31,1.58-1.4,2.6c0,1.3,1.1,1.9,2.3,2.4c0.42,0.18,0.85,0.31,1.3,0.4h0.1
				c1.5,0.5,3.1,0.8,4.7,1.2l3.7,0.9c2.4,0.6,5.5,2.2,6.7-1.3c0.33-0.76,0.46-1.58,0.4-2.4c-0.18-1.06-1.04-1.87-2.1-2
				c-1.1-0.42-2.24-0.76-3.4-1c-0.3-0.1-0.5-0.1-0.8-0.2c-0.22,0-0.42-0.07-0.6-0.2c-0.3-0.3,0.2-0.6,0.4-0.7
				c0.59-0.4,1.16-0.84,1.7-1.3c0.6-0.5,1.2-0.9,1.7-1.4c0.32-0.2,0.63-0.44,0.9-0.7c0.64-0.44,1.25-0.95,1.8-1.5
				C121.5,13.2,125,11.4,123.6,9z"/>
		</g>
	</g>
	<path id="mouth" style="fill:#422B0D;" d="M55.7,99.3c-3.83-0.07-6.88-3.24-6.81-7.07c0.02-1.29,0.41-2.55,1.11-3.63
		c3.1-4.8,8-7.3,14-7.3s10.9,2.5,14,7.3c1.39,2.1,1.5,4.79,0.3,7c-1.19,2.22-3.48,3.64-6,3.7c-0.79,0.02-1.57-0.11-2.3-0.4
		c-1.93-0.67-3.96-1.01-6-1c-2.04-0.02-4.07,0.32-6,1C57.26,99.17,56.48,99.31,55.7,99.3z"/>
</g>
</svg>
