<?xml version="1.0" encoding="UTF-8" standalone="no"?><svg xmlns:dc="http://purl.org/dc/elements/1.1/" xmlns:cc="http://creativecommons.org/ns#" xmlns:rdf="http://www.w3.org/1999/02/22-rdf-syntax-ns#" xmlns:svg="http://www.w3.org/2000/svg" xmlns="http://www.w3.org/2000/svg" viewBox="0 0 45 45" style="enable-background:new 0 0 45 45;" xml:space="preserve" version="1.1" id="svg2"><metadata id="metadata8"><rdf:RDF><cc:Work rdf:about=""><dc:format>image/svg+xml</dc:format><dc:type rdf:resource="http://purl.org/dc/dcmitype/StillImage"/></cc:Work></rdf:RDF></metadata><defs id="defs6"><clipPath id="clipPath16" clipPathUnits="userSpaceOnUse"><path id="path18" d="M 0,36 36,36 36,0 0,0 0,36 Z"/></clipPath></defs><g transform="matrix(1.25,0,0,-1.25,0,45)" id="g10"><g id="g12"><g clip-path="url(#clipPath16)" id="g14"><g transform="translate(36,18)" id="g20"><path id="path22" style="fill:#ffcc4d;fill-opacity:1;fill-rule:nonzero;stroke:none" d="m 0,0 c 0,-9.941 -8.059,-18 -18,-18 -9.94,0 -18,8.059 -18,18 0,9.94 8.06,18 18,18 C -8.059,18 0,9.94 0,0"/></g><g transform="translate(23,9)" id="g24"><path id="path26" style="fill:#664500;fill-opacity:1;fill-rule:nonzero;stroke:none" d="m 0,0 c 0,-3.314 -2.238,-6 -5,-6 -2.762,0 -5,2.686 -5,6 0,3.313 2.238,6 5,6 2.762,0 5,-2.687 5,-6"/></g><g transform="translate(5.999,25)" id="g28"><path id="path30" style="fill:#664500;fill-opacity:1;fill-rule:nonzero;stroke:none" d="m 0,0 c -0.208,0 -0.419,0.065 -0.599,0.2 -0.442,0.331 -0.531,0.958 -0.2,1.4 3.262,4.35 7.616,4.4 7.8,4.4 0.552,0 1,-0.448 1,-1 C 8.001,4.449 7.556,4.002 7.005,4 6.85,3.998 3.436,3.914 0.801,0.4 0.604,0.138 0.304,0 0,0"/></g><g transform="translate(30.001,25)" id="g32"><path id="path34" style="fill:#664500;fill-opacity:1;fill-rule:nonzero;stroke:none" d="M 0,0 C -0.305,0 -0.605,0.138 -0.801,0.4 -3.441,3.921 -6.862,3.999 -7.007,4 -7.557,4.006 -8.001,4.456 -7.998,5.005 -7.995,5.556 -7.551,6 -7.001,6 -6.817,6 -2.464,5.95 0.799,1.6 1.131,1.158 1.041,0.531 0.599,0.2 0.419,0.065 0.209,0 0,0"/></g><g transform="translate(18,13)" id="g36"><path id="path38" style="fill:#f5f8fa;fill-opacity:1;fill-rule:nonzero;stroke:none" d="m 0,0 c -1.657,0 -3,-1.79 -3,-4 l 6,0 C 3,-1.79 1.657,0 0,0"/></g><g transform="translate(14.5,21.5)" id="g40"><path id="path42" style="fill:#664500;fill-opacity:1;fill-rule:nonzero;stroke:none" d="M 0,0 C 0,-1.934 -1.119,-3.5 -2.5,-3.5 -3.881,-3.5 -5,-1.934 -5,0 -5,1.933 -3.881,3.5 -2.5,3.5 -1.119,3.5 0,1.933 0,0"/></g><g transform="translate(26.5,21.5)" id="g44"><path id="path46" style="fill:#664500;fill-opacity:1;fill-rule:nonzero;stroke:none" d="M 0,0 C 0,-1.934 -1.119,-3.5 -2.5,-3.5 -3.881,-3.5 -5,-1.934 -5,0 -5,1.933 -3.881,3.5 -2.5,3.5 -1.119,3.5 0,1.933 0,0"/></g></g></g></g></svg>
