<?xml version="1.0" encoding="utf-8"?>
<!-- Generator: Adobe Illustrator 24.1.2, SVG Export Plug-In . SVG Version: 6.00 Build 0)  -->
<svg version="1.1" id="Layer_1" xmlns="http://www.w3.org/2000/svg" xmlns:xlink="http://www.w3.org/1999/xlink" x="0px" y="0px"
	 viewBox="0 0 128 128" style="enable-background:new 0 0 128 128;" xml:space="preserve">
<g id="gold">
	
		<radialGradient id="face_1_" cx="63.6" cy="1696.9" r="56.9597" gradientTransform="matrix(1 0 0 1 0 -1634)" gradientUnits="userSpaceOnUse">
		<stop  offset="0.5" style="stop-color:#FDE030"/>
		<stop  offset="0.92" style="stop-color:#F7C02B"/>
		<stop  offset="1" style="stop-color:#F4A223"/>
	</radialGradient>
	<path id="face" style="fill:url(#face_1_);" d="M63.6,118.8c-27.9,0-58-17.5-58-55.9S35.7,7,63.6,7c15.5,0,29.8,5.1,40.4,14.4
		c11.5,10.2,17.6,24.6,17.6,41.5s-6.1,31.2-17.6,41.4C93.4,113.6,79,118.8,63.6,118.8z"/>
	<path style="fill:#EB8F00;" d="M111.49,29.67c5.33,8.6,8.11,18.84,8.11,30.23c0,16.9-6.1,31.2-17.6,41.4
		c-10.6,9.3-25,14.5-40.4,14.5c-18.06,0-37-7.35-48.18-22.94c10.76,17.66,31,25.94,50.18,25.94c15.4,0,29.8-5.2,40.4-14.5
		c11.5-10.2,17.6-24.5,17.6-41.4C121.6,50.16,118.13,38.84,111.49,29.67z"/>
</g>
<g id="facial_expressions">
	<g id="flushed-face">
		<g id="blush">
			
				<radialGradient id="SVGID_1_" cx="78.3084" cy="-948.814" r="19.44" gradientTransform="matrix(0.98 0 0 -0.93 -49.42 -800.35)" gradientUnits="userSpaceOnUse">
				<stop  offset="0" style="stop-color:#ED7770"/>
				<stop  offset="0.9" style="stop-color:#ED7770;stop-opacity:0"/>
			</radialGradient>
			<circle style="opacity:0.8;fill:url(#SVGID_1_);enable-background:new    ;" cx="27.2" cy="82.2" r="17.5"/>
			
				<radialGradient id="SVGID_2_" cx="147.368" cy="-948.814" r="19.44" gradientTransform="matrix(0.98 0 0 -0.93 -49.42 -800.35)" gradientUnits="userSpaceOnUse">
				<stop  offset="0" style="stop-color:#ED7770"/>
				<stop  offset="0.9" style="stop-color:#ED7770;stop-opacity:0"/>
			</radialGradient>
			<circle style="opacity:0.8;fill:url(#SVGID_2_);enable-background:new    ;" cx="94.88" cy="82.2" r="17.5"/>
			
				<radialGradient id="SVGID_3_" cx="147.43" cy="-923.9" r="19.44" gradientTransform="matrix(1 0 0 -1 0 130)" gradientUnits="userSpaceOnUse">
				<stop  offset="0" style="stop-color:#ED7770"/>
				<stop  offset="0.9" style="stop-color:#ED7770;stop-opacity:0"/>
			</radialGradient>
			<circle style="opacity:0.8;fill:url(#SVGID_3_);enable-background:new    ;" cx="99.8" cy="82.2" r="17.5"/>
		</g>
		
			<line id="mouth" style="fill:none;stroke:#35220B;stroke-width:8;stroke-linecap:round;stroke-linejoin:round;" x1="56" y1="96" x2="71" y2="96"/>
		<g id="eyes">
			<g id="peepers">
				<path style="fill:#FFFFFF;" d="M89.2,41.8c9.61,0,17.4,7.79,17.4,17.4c0,9.61-7.79,17.4-17.4,17.4s-17.4-7.79-17.4-17.4v0
					C71.81,49.59,79.59,41.81,89.2,41.8"/>
				<ellipse style="fill:#422B0D;" cx="89.2" cy="59.2" rx="7.5" ry="7.6"/>
				<path style="fill:#FFFFFF;" d="M38.7,41.7c9.61,0,17.4,7.79,17.4,17.4s-7.79,17.4-17.4,17.4s-17.4-7.79-17.4-17.4
					C21.31,49.49,29.09,41.71,38.7,41.7"/>
				<ellipse style="fill:#422B0D;" cx="38.7" cy="59.1" rx="7.5" ry="7.6"/>
			</g>
			<g id="eyebrows">
				<path style="fill:#422B0D;" d="M46.56,27.27h0.1c0.95,0.35,2-0.14,2.35-1.09c0.35-0.95-0.14-2-1.09-2.35
					c-1.79-0.8-3.69-1.31-5.64-1.5c-5.25-0.63-10.55,0.77-14.8,3.92c-2,1.51,0.07,4.06,2.05,3.06
					C34.82,26.74,40.82,26.02,46.56,27.27z"/>
				<path style="fill:#422B0D;" d="M80.86,27.27h-0.1c-0.95,0.35-2-0.14-2.35-1.09c-0.35-0.95,0.14-2,1.09-2.35
					c1.79-0.8,3.69-1.31,5.64-1.5c5.25-0.63,10.55,0.77,14.8,3.92c2,1.51-0.07,4.06-2,3.06C92.64,26.73,86.62,26.01,80.86,27.27z"/>
			</g>
		</g>
	</g>
</g>
</svg>
