<?xml version="1.0" encoding="utf-8"?>
<!-- Generator: Adobe Illustrator 24.1.2, SVG Export Plug-In . SVG Version: 6.00 Build 0)  -->
<svg version="1.1" id="Layer_11" xmlns="http://www.w3.org/2000/svg" xmlns:xlink="http://www.w3.org/1999/xlink" x="0px" y="0px"
	 viewBox="0 0 128 128" style="enable-background:new 0 0 128 128;" xml:space="preserve">
<g>
	<g>
		<radialGradient id="SVGID_1_" cx="65.1292" cy="61.9064" r="53.2369" gradientUnits="userSpaceOnUse">
			<stop  offset="0.5" style="stop-color:#FDE030"/>
			<stop  offset="0.9188" style="stop-color:#F7C02B"/>
			<stop  offset="1" style="stop-color:#F4A223"/>
		</radialGradient>
		<path style="fill:url(#SVGID_1_);" d="M97.92,32.95c-0.39-0.91-0.73-1.89-1.46-2.54c-0.98-0.87-2.4-1.2-3.7-1.06
			c-4.15,0.46-10.53-0.14-14.65-3.04c-4.09-2.87-6.99-6.77-8.82-10.56c-0.02-0.04-0.06-0.07-0.08-0.1
			c-5.32,5.68-14.38,7.23-21.41,4.03c-0.77,6.97-8.73,12.15-15.42,10.04c-1.52,6.62-5.8,13.02-12.07,15.65
			c-3.34,1.4-6.11,2.05-8.38,2.23c-0.3,0.07-0.61,0.13-0.92,0.15C10.08,51.83,9.57,56.24,9.57,61c0,1.49,0.15,3.99,0.29,5.83
			c4.34,0.87,9.7,3.6,13.99,11.04c3.68,6.39,6.65,4.32,12.89,2.88c7.9-1.82,16.43-1.19,23.63,3.08c1.26,0.74,2.41,1.61,3.47,2.57
			c2.08-2.69,4.63-5.24,11.16-7.42c9.31-3.1,16.29,1.49,16.29,1.49c3-6.33,7.04-12.33,12.66-16.5c3.59-2.66,9.58-4.24,14.32-4.59
			c0.04,0,0.08-0.01,0.12-0.01c-0.17-5.27-1.01-10.7-2.44-15.36C110.18,44.99,102.62,43.72,97.92,32.95z"/>
		<path style="fill:#EB8F00;" d="M116.55,58.18c0,0.32-0.02,1.07-0.02,1.38c0.62-0.09,1.24-0.16,1.86-0.2
			c-0.17-5.28-1-10.72-2.44-15.39c-0.35,0.06-0.71,0.11-1.06,0.14C115.99,48.54,116.55,53.25,116.55,58.18z"/>
		<ellipse style="fill:#422B0D;" cx="44.22" cy="59.35" rx="7.04" ry="11.5"/>
		<path style="fill:#422B0D;" d="M83.76,70.85c3.69,0,7.04-4.33,7.04-11.5c0-7.17-3.35-11.5-7.04-11.5c-3.69,0-7.04,4.33-7.04,11.5
			C76.72,66.52,80.08,70.85,83.76,70.85z"/>
	</g>
	<path style="opacity:0.8;fill:#D5EBF5;" d="M60.37,83.83c-7.2-4.27-15.73-4.9-23.63-3.08c-6.24,1.44-9.21,3.5-12.89-2.88
		C17.94,67.6,9.96,66.28,5.48,66.48c-1.13,0.05-1.55,1.5-0.61,2.13c3.95,2.6,10.95,8.5,13.44,18.83c0,0-6.2,7.06-6.64,13.16
		c-0.07,0.94,1.07,1.44,1.74,0.79c5.25-5.08,21.24-14.47,32.18-10.03c13.88,5.63,16.44,17.59,16.86,23.11
		c0.11,1.39,1.46,2.31,2.79,1.91c2.93-0.88,7.91-1.87,13.44-0.82c8.79,1.67,15.34,8.51,15.34,8.51c0-10.6-7.81-16.84-17.3-17.86
		c-1-0.11-4.34,0.53-5.25-5.32C70.37,93.85,66.5,87.46,60.37,83.83z"/>
	<path style="opacity:0.8;fill:#92CBEB;" d="M119.91,59.29c-4.91,0-11.94,1.69-15.96,4.67c-5.63,4.17-9.66,10.18-12.66,16.5
		c0,0-6.97-4.59-16.29-1.49c-6.53,2.17-9.09,4.72-11.16,7.42c2.62,2.36,4.63,5.31,5.98,8.58c4.71-5.07,12.15-6.44,20.19-5.96
		c11.43,0.69,20.11,8.17,20.11,8.17s-1.94-8.74-11.75-13.99c4.56-10.14,11.69-18.55,23.15-19.53c1.48-0.13,3.77-0.16,3.77-1.47
		C125.28,61.22,123.12,59.29,119.91,59.29z"/>
	<path style="opacity:0.8;fill:#D5EBF5;" d="M108.01,11.59c0.39-0.49,1.19-0.26,1.25,0.36c0.7,8.3-6.19,14.39-6.48,14.96
		c-0.71,1.4,1.39,4.79,2.17,5.99c1.35,2.06,3.21,3.74,5.18,5.2c3.6,2.67,8.73,3.05,11.62,3.02c0.54-0.01,0.7,0.72,0.21,0.95
		c-4.86,2.27-17.36,6.21-24.05-9.13c-0.39-0.91-0.73-1.89-1.46-2.54c-0.98-0.87-2.4-1.2-3.7-1.06c-4.15,0.46-10.53-0.14-14.65-3.04
		C68.25,19.39,65.31,6.57,67.52,3.44c1.04-1.48,2.53,10.84,15.08,14.61C97.53,22.54,103.82,16.93,108.01,11.59z"/>
	<g>
		<path style="opacity:0.7;fill:#92CBEB;" d="M67.25,9.55c-4.14,4.27-12.35,7.7-18.04,5.83c1.66-7.98-4.07-11.05-4.07-11.05
			c0,0,3.8,11.43-7.12,17.83s-20.14-3.46-20.14-3.46c-1.35,7.89,6.37,11.06,6.37,11.06s0.47,10.42-21.49,14.78
			c0,0,4.23,6.42,17.53,0.84c6.27-2.63,10.55-9.02,12.07-15.65c6.68,2.12,14.65-3.07,15.42-10.04c7.04,3.2,16.11,1.64,21.42-4.05
			C69.21,15.64,67.89,13.33,67.25,9.55z"/>
	</g>
</g>
</svg>
