<svg xmlns="http://www.w3.org/2000/svg" viewBox="0 0 36 36"><circle cx="16" cy="20" r="16" fill="#FFCC4D"/><path fill="#664500" d="M21.85 17.97a.524.524 0 0 0-.54-.01c-.01.01-1.12.66-3.29.66s-3.28-.65-3.28-.66c-.16-.1-.39-.1-.54.01-.16.1-.21.28-.13.43.05.1 1.33 2.4 3.96 2.4s3.9-2.3 3.96-2.4c.07-.15.01-.33-.14-.43Zm-12.58-.01c-.01.01-1.12.66-3.29.66s-3.28-.65-3.28-.66c-.16-.1-.39-.1-.54.01-.16.1-.22.28-.14.43.05.1 1.33 2.4 3.96 2.4s3.9-2.3 3.96-2.4c.08-.15.03-.33-.13-.43a.524.524 0 0 0-.54-.01ZM6.4 24.53c.03.14.89 3.33 5.69 3.33 4.81 0 5.66-3.19 5.69-3.33a.37.37 0 0 0-.18-.42.395.395 0 0 0-.46.06c-.01.01-1.49 1.41-5.06 1.41-3.57 0-5.04-1.4-5.06-1.41a.386.386 0 0 0-.46-.06c-.13.08-.2.25-.16.42Z"/><path fill="#5DADEC" d="M25.23 25.88c.03.53.47.95 1 .95h.04c1.84-.09 6.4-.48 8.94-2.18.46-.3.59-.92.28-1.38a.987.987 0 0 0-1.38-.28c-2.19 1.46-6.62 1.78-7.93 1.84-.55.03-.98.5-.95 1.05Zm8.65-10.5c-.4-.16-.83-.25-1.27-.25h-1.2c-.1 0-.19.03-.27.06.2.63.36 1.28.48 1.94h.99c.18 0 .35.03.52.1.65.26.88.85.87 1.32 0 .22-.07.95-.87 1.25-.39.15-.81.28-1.24.4-2.19.61-4.97.93-8.31.93-.55 0-1 .45-1 1s.45 1 1 1c3.17 0 5.9-.27 8.14-.81.76-.18 1.47-.4 2.12-.64a3.32 3.32 0 0 0 2.16-3.1c.02-1.42-.82-2.67-2.12-3.2Z"/></svg>