<svg xmlns="http://www.w3.org/2000/svg" viewBox="0 0 64 64" enable-background="new 0 0 64 64"><ellipse cx="53.8" cy="33" rx="8.2" ry="8.2" fill="#89664c"/><ellipse cx="53.8" cy="33" rx="5.4" ry="5.4" fill="#ffc5d3"/><ellipse cx="10.2" cy="33" rx="8.2" ry="8.2" fill="#89664c"/><ellipse cx="10.2" cy="33" rx="5.4" ry="5.4" fill="#ffc5d3"/><g fill="#89664c"><path d="m43.4 10.8c1.1-.6 1.9-.9 1.9-.9-3.2-1.1-6-1.8-8.5-2.1 1.3-1 2.1-1.3 2.1-1.3-20.4-2.9-30.1 9-30.1 19.5h46.4c-.7-7.4-4.8-12.4-11.8-15.2"/><path d="m55.3 27.6c0-9.7-10.4-17.6-23.3-17.6-12.9 0-23.3 7.9-23.3 17.6 0 2.3.6 4.4 1.6 6.4-1 2-1.6 4.2-1.6 6.4 0 9.7 10.4 17.6 23.3 17.6 12.9 0 23.3-7.9 23.3-17.6 0-2.3-.6-4.4-1.6-6.4 1-2 1.6-4.2 1.6-6.4"/></g><path d="m52 28.2c0-16.9-20-6.1-20-6.1s-20-10.8-20 6.1c0 4.7 2.9 9 7.5 11.7-1.3 1.7-2.1 3.6-2.1 5.7 0 6.1 6.6 11 14.7 11 8.1 0 14.7-4.9 14.7-11 0-2.1-.8-4-2.1-5.7 4.4-2.7 7.3-7 7.3-11.7" fill="#e0ac7e"/><g fill="#3b302a"><path d="m35.1 38.7c0 1.1-.4 2.1-1 2.1s-1-.9-1-2.1c0-1.1.4-2.1 1-2.1s1 1 1 2.1"/><path d="m30.9 38.7c0 1.1-.4 2.1-1 2.1s-1-.9-1-2.1c0-1.1.4-2.1 1-2.1s1 1 1 2.1"/><ellipse transform="matrix(.9608-.2772.2772.9608-11.8674 12.1398)" cx="37" cy="48" rx="4.5" ry="2.7"/></g><path d="M9.3,32.6L2,62h11.9c-1.6-7.7,4-21,4-21L9.3,32.6z" fill="#89664c"/><path d="m15.7 24.9c0 0 4.9-4.5 9.5-3.9 2.3.3-7.1 7.6-7.1 7.6s9.7-8.2 11.7-5.6c1.8 2.3-8.9 9.8-8.9 9.8s10-8.1 9.6-4.6c-.3 3.8-7.9 12.8-12.5 13.8-6.6 1.3-11.8-2.9-8.3-17.5 1.8-7.4 3.5.8 6 .4" fill="#ffd6bb"/><path d="M54.7,32.6L62,62H50.1c1.6-7.7-4-21-4-21L54.7,32.6z" fill="#89664c"/><path d="m48.3 24.9c0 0-4.9-4.5-9.5-3.9-2.3.3 7.1 7.6 7.1 7.6s-9.7-8.2-11.7-5.6c-1.8 2.3 8.9 9.8 8.9 9.8s-10-8.1-9.7-4.6c.4 3.8 8 12.8 12.6 13.8 6.6 1.3 11.8-2.9 8.3-17.5-1.8-7.4-3.5.8-6 .4" fill="#ffd6bb"/></svg>