<?xml version="1.0" encoding="UTF-8" standalone="no"?><svg xmlns:dc="http://purl.org/dc/elements/1.1/" xmlns:cc="http://creativecommons.org/ns#" xmlns:rdf="http://www.w3.org/1999/02/22-rdf-syntax-ns#" xmlns:svg="http://www.w3.org/2000/svg" xmlns="http://www.w3.org/2000/svg" viewBox="0 0 45 45" style="enable-background:new 0 0 45 45;" xml:space="preserve" version="1.1" id="svg2"><metadata id="metadata8"><rdf:RDF><cc:Work rdf:about=""><dc:format>image/svg+xml</dc:format><dc:type rdf:resource="http://purl.org/dc/dcmitype/StillImage"/></cc:Work></rdf:RDF></metadata><defs id="defs6"><clipPath id="clipPath16" clipPathUnits="userSpaceOnUse"><path id="path18" d="M 0,36 36,36 36,0 0,0 0,36 Z"/></clipPath></defs><g transform="matrix(1.25,0,0,-1.25,0,45)" id="g10"><g id="g12"><g clip-path="url(#clipPath16)" id="g14"><g transform="translate(19,32)" id="g20"><path id="path22" style="fill:#60352a;fill-opacity:1;fill-rule:nonzero;stroke:none" d="M 0,0 C -1.721,0 -3.343,-0.406 -4.794,-1.111 -5.186,-1.042 -5.588,-1 -6,-1 c -3.866,0 -7,-3.134 -7,-7 l 0,-12 0.018,0 c 0.183,-6.467 5.471,-11.656 11.982,-11.656 6.511,0 11.799,5.189 11.982,11.656 l 0.018,0 0,9 C 11,-4.925 6.075,0 0,0"/></g><g transform="translate(27,14)" id="g24"><path id="path26" style="fill:#9268ca;fill-opacity:1;fill-rule:nonzero;stroke:none" d="m 0,0 -1,0 -16,0 -1,0 c 0,0 -9,0 -9,-7 0,-3.156 4,-7 4,-7 l 1,0 1,0 4,0 16,0 4,0 1,0 1,0 c 0,0 4,3.844 4,7 0,7 -9,7 -9,7"/></g><g transform="translate(21,8)" id="g28"><path id="path30" style="fill:#9b6a49;fill-opacity:1;fill-rule:nonzero;stroke:none" d="m 0,0 c 0,-1.657 -1.343,-3 -3,-3 -1.657,0 -3,1.343 -3,3 0,1.657 1.343,3 3,3 1.657,0 3,-1.343 3,-3"/></g><g transform="translate(14,25)" id="g32"><path id="path34" style="fill:#af7e57;fill-opacity:1;fill-rule:nonzero;stroke:none" d="M 0,0 C 0,0 -0.003,-5.308 -5,-5.936 L -5,-10 c 0,-4.971 4.029,-9 9,-9 4.971,0 9,4.029 9,9 l 0,3.019 C 1.89,-6.605 0,0 0,0"/></g><g transform="translate(17,2)" id="g36"><path id="path38" style="fill:#af7e57;fill-opacity:1;fill-rule:nonzero;stroke:none" d="m 0,0 -5,1 -2,1 -3,0 -1,-4 5,0 6,0 c 1,0 1,1 1,1 0,0.553 -1,1 -1,1"/></g><g transform="translate(26,4)" id="g40"><path id="path42" style="fill:#af7e57;fill-opacity:1;fill-rule:nonzero;stroke:none" d="m 0,0 -2,-1 -5,-1 c 0,0 -1,-0.447 -1,-1 0,0 0,-1 1,-1 l 6,0 5,0 -1,4 -3,0 z"/></g><g transform="translate(22,14)" id="g44"><path id="path46" style="fill:#60352a;fill-opacity:1;fill-rule:nonzero;stroke:none" d="m 0,0 c -0.553,0 -1,0.447 -1,1 l 0,1 C -1,2.553 -0.553,3 0,3 0.553,3 1,2.553 1,2 L 1,1 C 1,0.447 0.553,0 0,0"/></g><g transform="translate(14,14)" id="g48"><path id="path50" style="fill:#60352a;fill-opacity:1;fill-rule:nonzero;stroke:none" d="m 0,0 c -0.552,0 -1,0.447 -1,1 l 0,1 C -1,2.553 -0.552,3 0,3 0.552,3 1,2.553 1,2 L 1,1 C 1,0.447 0.552,0 0,0"/></g><g transform="translate(19,9.5)" id="g52"><path id="path54" style="fill:#915a34;fill-opacity:1;fill-rule:nonzero;stroke:none" d="M 0,0 -2,0 C -2.276,0 -2.5,0.224 -2.5,0.5 -2.5,0.776 -2.276,1 -2,1 L 0,1 C 0.276,1 0.5,0.776 0.5,0.5 0.5,0.224 0.276,0 0,0"/></g><g transform="translate(5.4989,28)" id="g56"><path id="path58" style="fill:#5dadec;fill-opacity:1;fill-rule:nonzero;stroke:none" d="m 0,0 c -0.208,0 -0.419,0.065 -0.599,0.2 l -4,3 c -0.442,0.331 -0.531,0.958 -0.2,1.4 0.332,0.442 0.958,0.531 1.4,0.2 l 4,-3 C 1.043,1.469 1.132,0.842 0.801,0.4 0.605,0.138 0.304,0 0,0"/></g><g transform="translate(8.5009,31)" id="g60"><path id="path62" style="fill:#5dadec;fill-opacity:1;fill-rule:nonzero;stroke:none" d="m 0,0 c -0.323,0 -0.64,0.156 -0.833,0.445 l -2,3 c -0.306,0.46 -0.182,1.081 0.277,1.387 0.46,0.307 1.08,0.182 1.387,-0.277 l 2,-3 C 1.137,1.095 1.013,0.474 0.554,0.168 0.383,0.054 0.19,0 0,0"/></g><g transform="translate(30.5009,28)" id="g64"><path id="path66" style="fill:#5dadec;fill-opacity:1;fill-rule:nonzero;stroke:none" d="m 0,0 c -0.305,0 -0.604,0.138 -0.801,0.4 -0.332,0.442 -0.242,1.069 0.2,1.4 l 4,3 C 3.84,5.133 4.468,5.042 4.799,4.6 5.131,4.158 5.041,3.531 4.599,3.2 l -4,-3 C 0.419,0.065 0.209,0 0,0"/></g><g transform="translate(27.4989,31)" id="g68"><path id="path70" style="fill:#5dadec;fill-opacity:1;fill-rule:nonzero;stroke:none" d="m 0,0 c -0.19,0 -0.383,0.054 -0.554,0.168 -0.46,0.306 -0.584,0.927 -0.277,1.387 l 2,3 C 1.475,5.014 2.094,5.139 2.556,4.832 3.016,4.526 3.14,3.905 2.833,3.445 l -2,-3 C 0.641,0.156 0.323,0 0,0"/></g></g></g></g></svg>
