<svg xmlns="http://www.w3.org/2000/svg" viewBox="0 0 64 64" enable-background="new 0 0 64 64"><path d="M21.4,29c-3.8,14.7-5.5,27.7,2.8,27.7c8.8,0,7.9-13,7.9-28S32.5,2,28,2C23.1,2,25.1,14.7,21.4,29z" fill="#cc996e"/><path d="m21.5 47.3c9.6 0 9.9-4.7 9.9-19.6 0-11.6.3-21.4-1.9-25.1 3.3 2.5 2.8 13.2 2.8 26.2 0 14.9 3.5 28-6.1 28-2.1-.1-6.2-9.5-4.7-9.5" fill="#b58360"/><path d="M36,2c-4.6,0-4.2,11.9-4.2,26.8s-0.8,28,7.9,28c8.3,0,6.6-13.1,2.8-27.7C38.9,14.7,40.9,2,36,2z" fill="#cc996e"/><path d="m37.8 56.7c-9.6 0-6.1-13.1-6.1-28 0-13-.4-23.7 2.9-26.2-2.2 3.7-1.9 13.5-1.9 25.1 0 14.9.2 19.6 9.9 19.6 1.4.1-2.7 9.5-4.8 9.5" fill="#b58360"/><path d="m13.1 47.7l7.6 13.3 8.6-4.5-10.3-16.5c0 0-2.6 6.4-5.9 7.7" fill="#cc996e"/><path d="m20.9 38.2c-1 1.6-1.4 8.9-6.1 10.8l5.5 11.2c0 0 6.1-1.5 8.5-3 6.7-4.1-.9-9 3-18.1 2.2-5.1-1.8-17.1-6.6-17.1-4.8 0-2.6 6.9-3 8.7-.6 2.1-.4 4.8-1.3 7.5" fill="#d6a57c"/><path d="m28.5 56.4c6.7-4.1-1.6-9 2.3-18 1.7-4-.5-12.5-3.8-15.8 3.9 2.5 6.9 11.9 4.9 16.5-4 9 4.5 13.8-2.4 18-.5.3-4.3 2-8.7 3.9l-.7-1.3c4.8-1.4 8-3.1 8.4-3.3" fill="#b58360"/><path d="M45,40L34.7,56.5l8.6,4.5l7.6-13.2C47.6,46.4,45,40,45,40z" fill="#cc996e"/><path d="m41.9 30.6c-.5-1.8 1.8-8.7-3-8.7-4.8 0-8.8 12-6.6 17.1 3.9 9.1-3.7 14 3 18.1 2.4 1.5 8.5 3 8.5 3l5.4-11.1c-4.7-2-5.1-9.2-6.1-10.8-.9-2.7-.7-5.4-1.2-7.6" fill="#d6a57c"/><path d="m43.9 59.7l-.6 1.3c-4.4-1.9-8.2-3.6-8.7-3.9-6.9-4.3 1.6-9-2.4-18-2-4.6 1-14.1 4.9-16.5-3.4 3.3-5.6 11.7-3.8 15.8 3.9 9.1-4.4 13.9 2.3 18 .3.2 3.5 1.9 8.3 3.3" fill="#b58360"/><g fill="#47b892"><path d="M2,55.3V62h22.2c2.5-4.8-11.6-15.6-11.6-15.6L2,55.3z"/><path d="M51.4,46.4c0,0-14.1,10.8-11.6,15.6H62v-6.7L51.4,46.4z"/></g></svg>