<?xml version="1.0" encoding="UTF-8" standalone="no"?><svg xmlns:dc="http://purl.org/dc/elements/1.1/" xmlns:cc="http://creativecommons.org/ns#" xmlns:rdf="http://www.w3.org/1999/02/22-rdf-syntax-ns#" xmlns:svg="http://www.w3.org/2000/svg" xmlns="http://www.w3.org/2000/svg" viewBox="0 0 45 45" style="enable-background:new 0 0 45 45;" xml:space="preserve" version="1.1" id="svg2"><metadata id="metadata8"><rdf:RDF><cc:Work rdf:about=""><dc:format>image/svg+xml</dc:format><dc:type rdf:resource="http://purl.org/dc/dcmitype/StillImage"/></cc:Work></rdf:RDF></metadata><defs id="defs6"><clipPath id="clipPath16" clipPathUnits="userSpaceOnUse"><path id="path18" d="M 0,36 36,36 36,0 0,0 0,36 Z"/></clipPath></defs><g transform="matrix(1.25,0,0,-1.25,0,45)" id="g10"><g id="g12"><g clip-path="url(#clipPath16)" id="g14"><g transform="translate(34.9639,24.0449)" id="g20"><path id="path22" style="fill:#ffcc4d;fill-opacity:1;fill-rule:nonzero;stroke:none" d="m 0,0 0.036,-0.045 c 0,0 1,10 0,11 -0.91,0.91 -6.771,-0.66 -7.822,-0.951 -2.426,1.234 -5.443,1.951 -9.178,1.951 -3.729,0 -6.742,-0.719 -9.165,-1.954 -1.02,0.283 -6.922,1.867 -7.835,0.954 -1,-1 0,-11 0,-11 l 0.047,0.059 c -0.739,-2.553 -1.047,-5.31 -1.047,-8.059 0,-5.506 3.376,-9.818 7.577,-12.572 0.081,6.417 -2.257,13.572 -6.173,13.572 -0.464,0 -0.839,-0.066 -1.152,-0.183 0.302,0.757 0.96,1.183 2.189,1.183 4.245,0 6.638,-8.411 6.102,-15.174 3.145,-1.836 6.628,-2.826 9.457,-2.826 2.83,0 6.315,0.982 9.461,2.812 -0.546,6.79 1.848,15.188 6.1,15.188 1.233,0 1.891,-0.426 2.192,-1.183 -0.313,0.117 -0.69,0.183 -1.157,0.183 -3.924,0 -6.264,-7.151 -6.171,-13.592 4.199,2.745 7.575,7.054 7.575,12.592 C 1.036,-5.293 0.73,-2.543 0,0"/></g><g transform="translate(18,15)" id="g24"><path id="path26" style="fill:#292f33;fill-opacity:1;fill-rule:nonzero;stroke:none" d="m 0,0 c -2.209,0 -4,-1.791 -4,-4 l 0,-6 c 0,-2.209 1.791,-4 4,-4 2.209,0 4,1.791 4,4 l 0,6 C 4,-1.791 2.209,0 0,0"/></g><g transform="translate(17.9995,21)" id="g28"><path id="path30" style="fill:#67757f;fill-opacity:1;fill-rule:nonzero;stroke:none" d="m 0,0 c 3.001,0 3.001,-0.5 3.001,-1.5 0,-1 -1.5,-3 -3.001,-3 -1.5,0 -3,2 -3,3 0,1 -10e-4,1.5 3,1.5"/></g><g transform="translate(29.9238,15.4941)" id="g32"><path id="path34" style="fill:#9aaab4;fill-opacity:1;fill-rule:nonzero;stroke:none" d="m 0,0 -5.021,-1.004 c -0.272,-0.054 -0.448,-0.317 -0.393,-0.588 0.048,-0.238 0.256,-0.402 0.489,-0.402 0.033,0 0.067,0.003 0.099,0.01 l 4.197,0.839 C -0.433,-0.735 -0.223,-0.352 0,0"/></g><g transform="translate(33.5605,18)" id="g36"><path id="path38" style="fill:#9aaab4;fill-opacity:1;fill-rule:nonzero;stroke:none" d="M 0,0 C 0.006,0 0.01,-0.001 0.016,-0.001 L 1.598,0.526 C 1.859,0.613 2.001,0.896 1.914,1.158 1.826,1.42 1.545,1.562 1.281,1.474 l -9,-2.999 c -0.261,-0.088 -0.403,-0.371 -0.316,-0.633 0.07,-0.209 0.265,-0.342 0.474,-0.342 0.053,0 0.106,0.008 0.159,0.025 l 5.43,1.811 C -1.369,-0.241 -0.711,0 0,0"/></g><g transform="translate(11.0981,14.4902)" id="g40"><path id="path42" style="fill:#9aaab4;fill-opacity:1;fill-rule:nonzero;stroke:none" d="M 0,0 -5.028,1.006 C -4.805,0.652 -4.595,0.27 -4.399,-0.14 l 4.203,-0.84 c 0.033,-0.007 0.066,-0.01 0.098,-0.01 0.234,0 0.443,0.164 0.49,0.402 C 0.446,-0.317 0.271,-0.054 0,0"/></g><g transform="translate(10.1582,16.4746)" id="g44"><path id="path46" style="fill:#9aaab4;fill-opacity:1;fill-rule:nonzero;stroke:none" d="M 0,0 -9,3 C -9.264,3.087 -9.545,2.945 -9.632,2.684 -9.72,2.421 -9.578,2.138 -9.316,2.051 l 1.583,-0.528 c 0.005,0 0.009,0.002 0.015,0.002 0.708,0 1.363,-0.24 1.963,-0.661 l 5.439,-1.813 c 0.052,-0.018 0.106,-0.026 0.158,-0.026 0.209,0 0.404,0.133 0.474,0.342 C 0.403,-0.371 0.262,-0.088 0,0"/></g><g transform="translate(7.3472,25.3345)" id="g48"><path id="path50" style="fill:#f5f8fa;fill-opacity:1;fill-rule:nonzero;stroke:none" d="M 0,0 C -0.946,-3.176 0.107,-6.293 2.352,-6.962 4.598,-7.632 7.186,-5.6 8.131,-2.424 9.079,0.751 8.026,3.869 5.782,4.538 3.536,5.207 0.947,3.175 0,0"/></g><g transform="translate(28.6523,25.3345)" id="g52"><path id="path54" style="fill:#f5f8fa;fill-opacity:1;fill-rule:nonzero;stroke:none" d="m 0,0 c 0.946,-3.176 -0.107,-6.293 -2.352,-6.962 -2.247,-0.67 -4.834,1.362 -5.78,4.538 -0.946,3.175 0.107,6.293 2.351,6.962 C -3.535,5.207 -0.947,3.175 0,0"/></g><g transform="translate(35.7529,16.8174)" id="g56"><path id="path58" style="fill:#fcab40;fill-opacity:1;fill-rule:nonzero;stroke:none" d="m 0,0 c -0.313,0.116 -0.69,0.183 -1.157,0.183 -4.641,0 -7.066,-10.002 -5.873,-17 l 6.46,0 C -2.476,-9.772 1.086,-2.729 0,0"/></g><g transform="translate(1.4043,17)" id="g60"><path id="path62" style="fill:#fcab40;fill-opacity:1;fill-rule:nonzero;stroke:none" d="m 0,0 c -0.464,0 -0.84,-0.066 -1.153,-0.183 0.072,0.179 0.167,0.336 0.281,0.477 C -2.734,-1.998 1.444,-9.54 -0.586,-17 l 6.461,0 C 7.063,-10.04 4.639,0 0,0"/></g></g></g></g></svg>
