<?xml version="1.0" encoding="utf-8"?>
<!-- Generator: Adobe Illustrator 24.1.2, SVG Export Plug-In . SVG Version: 6.00 Build 0)  -->
<svg version="1.1" id="Layer_3" xmlns="http://www.w3.org/2000/svg" xmlns:xlink="http://www.w3.org/1999/xlink" x="0px" y="0px"
	 viewBox="0 0 128 128" style="enable-background:new 0 0 128 128;" xml:space="preserve">
<g>
	<path style="fill:#FFC022;" d="M114.11,70.76C112.31,44.78,94.44,26.3,64,26.3S15.69,44.78,13.89,70.76
		c-1.05,15.14,5.05,28.01,17.09,36.21c0,0,12.21,9.88,33.02,10.14c20.81-0.26,33.02-10.14,33.02-10.14
		C109.05,98.77,115.16,85.9,114.11,70.76z"/>
	<path style="opacity:0.47;fill:#FF7043;" d="M54.12,45.02c1.13,0.96,3.42,0.82,4.75-0.72c1.61-1.87,3.29-8.17,2.24-17.91
		c-4.67,0.17-9.09,0.84-13.21,1.97C51.23,33.82,52.03,43.24,54.12,45.02z"/>
	<path style="opacity:0.47;fill:#FF7043;" d="M73.88,45.02c-1.13,0.96-3.42,0.82-4.75-0.72c-1.61-1.87-3.29-8.17-2.24-17.91
		c4.67,0.17,9.09,0.84,13.21,1.97C76.77,33.82,75.97,43.24,73.88,45.02z"/>
	<g>
		<g>
			<path style="fill:#FFC022;" d="M16.38,60.19c-5.26-36.84,8.59-52.2,15.33-55.51c2.13-1.04,4.36-0.91,6.1,0.6
				c3.19,2.77,1.55,11.99,9.96,23.09"/>
			<path style="fill:#FFD1D1;" d="M25.37,44.52c-1.13,1.34-2.29,0.17-2.36-1.58c-0.49-12.24,3.45-21.32,6.7-25.58
				c1.13-1.48,3.48-0.96,3.86,0.87c0.73,3.54,2.17,8.62,4.88,12.86c0.56,0.87,0.33,2.03-0.53,2.6c-1.89,1.27-5.1,3.51-7.64,5.71
				C28.52,40.91,26.77,42.85,25.37,44.52z"/>
		</g>
		<g>
			<path style="fill:#FFC022;" d="M111.62,60.19c5.26-36.84-8.59-52.2-15.33-55.51c-2.13-1.04-4.36-0.91-6.1,0.6
				c-3.19,2.77-1.55,11.99-9.96,23.09"/>
			<path style="fill:#FFD1D1;" d="M102.63,44.52c1.13,1.34,2.29,0.17,2.36-1.58c0.49-12.24-3.45-21.32-6.7-25.58
				c-1.13-1.48-3.48-0.96-3.86,0.87c-0.73,3.54-2.17,8.62-4.88,12.86c-0.56,0.87-0.33,2.03,0.53,2.6c1.89,1.27,5.1,3.51,7.64,5.71
				C99.48,40.91,101.23,42.85,102.63,44.52z"/>
		</g>
	</g>
	<path d="M55.96,68.97c-0.05-2.86,4.06-4.24,7.95-4.3s8.07,1.2,8.12,4.06c0.05,2.86-4.86,6.64-7.95,6.64
		C61,75.37,56.01,71.83,55.96,68.97z"/>
	<g>
		<g>
			<path style="fill:#FFFDE7;" d="M86.82,68.76c-5.2,0-9.65-3.87-10.59-9.21c-0.51-2.92,0.1-5.85,1.73-8.26
				c1.62-2.39,4.04-3.97,6.82-4.46c0.59-0.1,1.18-0.15,1.77-0.15c5.2,0,9.65,3.87,10.59,9.21c0.51,2.92-0.1,5.85-1.73,8.26
				c-1.62,2.39-4.04,3.97-6.82,4.46C88.01,68.71,87.42,68.76,86.82,68.76L86.82,68.76z"/>
			<path style="fill:#EF6C00;" d="M86.56,48.18c4.47,0,8.3,3.35,9.11,7.97c0.44,2.53-0.09,5.07-1.5,7.16
				c-1.39,2.05-3.46,3.41-5.84,3.82c-0.5,0.09-1.01,0.13-1.51,0.13c-4.47,0-8.3-3.35-9.11-7.97c-0.44-2.53,0.09-5.07,1.5-7.16
				c1.39-2.05,3.46-3.41,5.84-3.82C85.55,48.23,86.06,48.18,86.56,48.18 M86.56,45.18c-0.67,0-1.35,0.06-2.03,0.18
				c-6.59,1.15-10.97,7.62-9.77,14.45c1.07,6.12,6.25,10.45,12.06,10.45c0.67,0,1.35-0.06,2.03-0.18
				c6.59-1.15,10.97-7.62,9.77-14.45C97.56,49.51,92.37,45.18,86.56,45.18L86.56,45.18z"/>
		</g>
	</g>
	<g>
		<g>
			<path style="fill:#FFFDE7;" d="M40.62,68.76c-0.59,0-1.19-0.05-1.77-0.15c-2.78-0.49-5.21-2.07-6.82-4.46
				c-1.63-2.41-2.24-5.34-1.73-8.26c0.93-5.34,5.39-9.21,10.59-9.21c0.59,0,1.19,0.05,1.77,0.15c5.77,1.01,9.6,6.71,8.55,12.72
				C50.27,64.89,45.82,68.76,40.62,68.76z"/>
			<path style="fill:#EF6C00;" d="M40.88,48.18L40.88,48.18c0.5,0,1.01,0.04,1.51,0.13c2.38,0.42,4.45,1.77,5.84,3.82
				c1.41,2.08,1.94,4.62,1.5,7.16c-0.81,4.62-4.64,7.97-9.11,7.97c-0.5,0-1.01-0.04-1.51-0.13c-4.95-0.87-8.24-5.79-7.33-10.98
				C32.58,51.53,36.41,48.18,40.88,48.18 M40.88,45.18c-5.81,0-10.99,4.33-12.06,10.45c-1.19,6.83,3.18,13.3,9.77,14.45
				c0.68,0.12,1.36,0.18,2.03,0.18c5.81,0,10.99-4.33,12.06-10.45c1.19-6.83-3.18-13.3-9.77-14.45
				C42.23,45.24,41.55,45.18,40.88,45.18L40.88,45.18z"/>
		</g>
	</g>
	<path d="M65.98,80.55l-3.95,0.03c0,2.82-1.22,4.86-3.23,7c-2.84,3.02-5.48,6.59-5.48,12c0,7.96,4.79,12.59,10.68,12.59
		s10.68-4.63,10.68-12.59c0-5.42-2.61-8.84-5.5-12.01C67.35,85.56,65.98,83.38,65.98,80.55z"/>
	
		<line style="fill:none;stroke:#000000;stroke-width:4;stroke-linecap:round;stroke-miterlimit:10;" x1="64" y1="70.02" x2="64" y2="89.84"/>
	<g>
		
			<line style="fill:none;stroke:#9E9E9E;stroke-width:3;stroke-linecap:round;stroke-miterlimit:10;" x1="108.72" y1="83.22" x2="123.2" y2="84.89"/>
		
			<line style="fill:none;stroke:#9E9E9E;stroke-width:3;stroke-linecap:round;stroke-miterlimit:10;" x1="105.54" y1="69.26" x2="119.62" y2="54.75"/>
		
			<line style="fill:none;stroke:#9E9E9E;stroke-width:3;stroke-linecap:round;stroke-miterlimit:10;" x1="108.02" y1="75.37" x2="124.5" y2="69.26"/>
		
			<line style="fill:none;stroke:#9E9E9E;stroke-width:3;stroke-linecap:round;stroke-miterlimit:10;" x1="19.28" y1="83.22" x2="4.8" y2="84.89"/>
		
			<line style="fill:none;stroke:#9E9E9E;stroke-width:3;stroke-linecap:round;stroke-miterlimit:10;" x1="22.46" y1="69.26" x2="8.38" y2="54.75"/>
		
			<line style="fill:none;stroke:#9E9E9E;stroke-width:3;stroke-linecap:round;stroke-miterlimit:10;" x1="19.98" y1="75.37" x2="3.5" y2="69.26"/>
	</g>
	<g>
		<g>
			<g>
				<path style="fill:#FF9B17;" d="M105.06,87.29c-0.08,1.08-0.24,2.15-0.46,3.2c-1.63,7.66-2.96,13.88-0.47,21.49
					c1.36,4.16,3.19,8.31,5.53,12.02l-25.29,0c0,0-6.18-26.67-7.56-33.66c-2.38-12.09,14.16-23.38,24.04-14.94
					C104.4,78.44,105.39,82.9,105.06,87.29z"/>
			</g>
			<g>
				<path style="fill:#EF6C00;" d="M81.11,91.67c-2.36-11.16,8.34-18.79,19.01-15.12c0.84,0.29,2.14,0.91,2.31,0.83
					c0.35-0.16-0.71-1.24-1.58-1.97c-9.88-8.45-26.43,2.84-24.04,14.94c1.38,6.98,7.56,33.66,7.56,33.66l4.38,0
					C87.48,118.76,82.39,97.74,81.11,91.67z"/>
			</g>
		</g>
		<g>
			<g>
				<path style="fill:#FF9B17;" d="M22.94,87.29c0.08,1.08,0.24,2.15,0.46,3.2c1.63,7.66,2.96,13.88,0.47,21.49
					c-1.36,4.16-3.19,8.31-5.53,12.02l25.29,0c0,0,6.18-26.67,7.56-33.66c2.38-12.09-14.16-23.38-24.04-14.94
					C23.6,78.44,22.61,82.9,22.94,87.29z"/>
			</g>
			<g>
				<path style="fill:#EF6C00;" d="M46.89,91.67c2.36-11.16-8.34-18.79-19.01-15.12c-0.84,0.29-2.14,0.91-2.31,0.83
					c-0.35-0.16,0.71-1.24,1.58-1.97c9.88-8.45,26.43,2.84,24.04,14.94C49.82,97.33,43.63,124,43.63,124l-4.38,0
					C40.52,118.76,45.61,97.74,46.89,91.67z"/>
			</g>
		</g>
	</g>
</g>
</svg>
