<svg xmlns="http://www.w3.org/2000/svg" viewBox="0 0 64 64" enable-background="new 0 0 64 64"><path fill="#94989b" d="m2 56.2h60v5.8h-60z"/><path d="m49.5 51.5c0 3.4 2.5 6.1 5.6 6.1 3.1 0 5.6-2.8 5.6-6.1h-11.2" fill="#3e4347"/><path d="m57 51.5c0 1.1-.8 2-1.9 2-1 0-1.9-.9-1.9-2h-1.9c0 2.3 1.7 4.1 3.8 4.1 2.1 0 3.8-1.8 3.8-4.1h-1.9" fill="#94989b"/><path d="m37.5 51.5c0 3.4 2.5 6.1 5.6 6.1s5.6-2.8 5.6-6.1h-11.2" fill="#3e4347"/><path d="m45 51.5c0 1.1-.8 2-1.9 2-1 0-1.9-.9-1.9-2h-1.9c0 2.3 1.7 4.1 3.8 4.1 2.1 0 3.8-1.8 3.8-4.1h-1.9" fill="#94989b"/><path d="m25.5 51.5c0 3.4 2.5 6.1 5.6 6.1s5.6-2.8 5.6-6.1h-11.2" fill="#3e4347"/><path d="m33 51.5c0 1.1-.8 2-1.9 2-1 0-1.9-.9-1.9-2h-1.9c0 2.3 1.7 4.1 3.8 4.1 2.1 0 3.8-1.8 3.8-4.1h-1.9" fill="#94989b"/><path fill="#52575b" d="m26.9 52.2h35.1v-5.3l-33-.8z"/><path d="m8.6 50.7l-2.8 9.5c0 0 8.6 0 14.2 0 7.2 0 14.1-11.8 14.1-11.8l-25.5 2.3" fill="#42ade2"/><path d="m32.9 12.3l-7.7 11.5c0 0-17.8 6.9-20 16.1-1.4 5.8 3.7 9.5 8.2 11.8 7.9.2 20.6-3.3 20.6-3.3h28v-34.5c0 0-19.2-2.9-29.1-1.6" fill="#c5d0d8"/><path d="m5.3 39.9c2.2-9.2 43.3-23.2 51.4-22.8 0 0-5.5-2.3-13.6-3.8l-18.5 6.3c-.3.5-.4.9-.4.9s-19.8 10.3-22 18.7c-.3 1.1-.3 3.6 0 4.6 1 3 5.1 6.4 7.1 7.2 1.1.4 2.5.6 4.2.7-4.6-2.3-9.6-6-8.2-11.8" fill="#dfecf4"/><path d="m43 13.4c0 0-.1 0 0 0l-6.1-.8c-1.7-.1-3.4-.2-5.2-.2-.7.1-1.2.2-1.6.4-2.5 1-4.8 5.2-5.7 7l18.6-1.7v-4.7" fill="#3e4347"/><path d="M62,42H32.9c0-11.8,16.6-11.8,16.6-11.8H62V42z" fill="#42ade2"/><path d="m20.9 40.2c0 .8-.4 1.5-.9 1.5h-9.3c-.5 0-.9-.7-.9-1.5 0-.8.4-1.5.9-1.5h9.3c.5 0 .9.7.9 1.5" fill="#aab5bc"/><path d="m20.9 51.7c-1.3.2-2.4 1.7-2.4 3.6 0 1.9 1.1 3.4 2.4 3.6v-7.2" fill="#3e4347"/><g fill="#fff"><path d="m20.9 53.1c-.8.1-1.4 1-1.4 2.2 0 1.1.6 2 1.4 2.2v-4.4"/><path d="m20.1 39c-.4.1-.8.6-.8 1.2 0 .6.4 1.1.8 1.2v-2.4"/></g><path d="m14.4 52.8c-1.1.1-1.9 1.3-1.9 2.8 0 1.5.8 2.7 1.9 2.8v-5.6" fill="#3e4347"/><path d="m14.4 53.9c-.6.1-1.1.8-1.1 1.7 0 .9.5 1.6 1.1 1.7v-3.4" fill="#fff"/><path d="m9.8 53.2c-.8.1-1.3 1-1.3 2 0 1.1.6 1.9 1.3 2v-4" fill="#3e4347"/><path d="m9.8 54.1c-.5 0-.8.5-.8 1.2 0 .6.4 1.1.8 1.2v-2.4" fill="#fff"/><path d="m43.7 13.5v4.5l12.3-1.2c0 0-6.7-2.5-12.3-3.3" fill="#3e4347"/><path d="m5.1 41c-.1-1.4.6-2.7 1.4-3.8.8-1.1 1.8-2 2.8-2.9 2.1-1.7 4.4-3.2 6.7-4.5 4.7-2.6 9.7-4.7 14.7-6.6 5-1.8 10.2-3.4 15.4-4.7 2.6-.6 5.2-1.2 7.9-1.6 2.6-.4 5.3-.8 8-.5-2.7.1-5.3.8-7.8 1.4-2.6.6-5.1 1.4-7.7 2.1-5.1 1.6-10.1 3.2-15.1 5.1-5 1.8-9.9 3.8-14.7 6.1-2.4 1.2-4.7 2.4-6.9 3.9-1.1.7-2.1 1.6-3 2.5-.8 1-1.6 2.1-1.7 3.5" fill="#fff"/></svg>