<?xml version="1.0" encoding="UTF-8" standalone="no"?><svg xmlns:dc="http://purl.org/dc/elements/1.1/" xmlns:cc="http://creativecommons.org/ns#" xmlns:rdf="http://www.w3.org/1999/02/22-rdf-syntax-ns#" xmlns:svg="http://www.w3.org/2000/svg" xmlns="http://www.w3.org/2000/svg" viewBox="0 0 45 45" style="enable-background:new 0 0 45 45;" xml:space="preserve" version="1.1" id="svg2"><metadata id="metadata8"><rdf:RDF><cc:Work rdf:about=""><dc:format>image/svg+xml</dc:format><dc:type rdf:resource="http://purl.org/dc/dcmitype/StillImage"/></cc:Work></rdf:RDF></metadata><defs id="defs6"><clipPath id="clipPath28" clipPathUnits="userSpaceOnUse"><path id="path30" d="M 0,36 36,36 36,0 0,0 0,36 Z"/></clipPath></defs><g transform="matrix(1.25,0,0,-1.25,0,45)" id="g10"><g transform="translate(12.9996,17.0001)" id="g12"><path id="path14" style="fill:#a7a9ac;fill-opacity:1;fill-rule:nonzero;stroke:none" d="m 0,0 -11,-17 32.001,0 -11,17 L 0,0 Z"/></g><g transform="translate(15.0003,17.0001)" id="g16"><path id="path18" style="fill:#58595b;fill-opacity:1;fill-rule:nonzero;stroke:none" d="m 0,0 -10,-17 25.999,0 -10,17 L 0,0 Z"/></g><g transform="translate(17.0001,17.0001)" id="g20"><path id="path22" style="fill:#808285;fill-opacity:1;fill-rule:nonzero;stroke:none" d="M 0,0 -9,-17 11,-17 2,0 0,0 Z"/></g><g id="g24"><g clip-path="url(#clipPath28)" id="g26"><g transform="translate(28,1)" id="g32"><path id="path34" style="fill:#a7a9ac;fill-opacity:1;fill-rule:nonzero;stroke:none" d="m 0,0 c 0,-0.553 -0.447,-1 -1,-1 l -18,0 c -0.552,0 -1,0.447 -1,1 0,0.553 0.448,1 1,1 L -1,1 C -0.447,1 0,0.553 0,0"/></g><g transform="translate(26,5)" id="g36"><path id="path38" style="fill:#a7a9ac;fill-opacity:1;fill-rule:nonzero;stroke:none" d="m 0,0 c 0,-0.553 -0.447,-1 -1,-1 l -14,0 c -0.552,0 -1,0.447 -1,1 0,0.553 0.448,1 1,1 L -1,1 C -0.447,1 0,0.553 0,0"/></g><g transform="translate(24,9)" id="g40"><path id="path42" style="fill:#a7a9ac;fill-opacity:1;fill-rule:nonzero;stroke:none" d="m 0,0 c 0,-0.553 -0.447,-1 -1,-1 l -10,0 c -0.552,0 -1,0.447 -1,1 0,0.553 0.448,1 1,1 L -1,1 C -0.447,1 0,0.553 0,0"/></g><g transform="translate(9.8813,12.1797)" id="g44"><path id="path46" style="fill:#58595b;fill-opacity:1;fill-rule:nonzero;stroke:none" d="m 0,0 c 1.125,-1.226 2.617,-2.18 4.119,-2.18 l 8,0 c 1.501,0 2.994,0.955 4.119,2.18 L 13.689,3.938 C 12.33,3.841 10.541,3.82 8.119,3.82 5.653,3.82 3.845,3.797 2.477,3.828 L 0,0 Z"/></g><g transform="translate(19,34)" id="g48"><path id="path50" style="fill:#414042;fill-opacity:1;fill-rule:nonzero;stroke:none" d="m 0,0 c 0,-0.552 -0.448,-1 -1,-1 -0.552,0 -1,0.448 -1,1 l 0,1 c 0,0.552 0.448,1 1,1 0.552,0 1,-0.448 1,-1 L 0,0 Z"/></g><g transform="translate(22,32)" id="g52"><path id="path54" style="fill:#6d6e71;fill-opacity:1;fill-rule:nonzero;stroke:none" d="m 0,0 c 0,-1.104 -0.895,-2 -2,-2 l -4,0 c -1.104,0 -2,0.896 -2,2 0,1.104 0.896,2 2,2 l 4,0 C -0.895,2 0,1.104 0,0"/></g><g transform="translate(28,18)" id="g56"><path id="path58" style="fill:#d1d3d4;fill-opacity:1;fill-rule:nonzero;stroke:none" d="m 0,0 c 0,-2.209 -3.791,-5 -6,-5 l -8,0 c -2.209,0 -6,2.791 -6,5 l 0,11 c 0,2.209 1.791,4 4,4 l 12,0 c 2.209,0 4,-1.791 4,-4 L 0,0 Z"/></g><g transform="translate(25,20)" id="g60"><path id="path62" style="fill:#808285;fill-opacity:1;fill-rule:nonzero;stroke:none" d="m 0,0 c 0,-2.209 -1.791,-4 -4,-4 l -6,0 c -2.209,0 -4,1.791 -4,4 l 0,5 c 0,2.209 1.791,4 4,4 l 6,0 C -1.791,9 0,7.209 0,5 L 0,0 Z"/></g><g transform="translate(15,21)" id="g64"><path id="path66" style="fill:#55acee;fill-opacity:1;fill-rule:nonzero;stroke:none" d="m 0,0 6,0 c 2.209,0 4,1.791 4,4 L 10,6 -4,6 -4,4 C -4,1.791 -2.209,0 0,0"/></g><g transform="translate(18,16)" id="g68"><path id="path70" style="fill:#5c913b;fill-opacity:1;fill-rule:nonzero;stroke:none" d="M 0,0 C -7.001,0 -8.754,1.801 -10,3.242 L -10,2 c 0,-2.209 2.999,-6 6,-6 l 8,0 c 3,0 6,3.791 6,6 l 0,1.891 C 8.754,2.161 7,0 0,0"/></g><g transform="translate(15,18.5)" id="g72"><path id="path74" style="fill:#ffd983;fill-opacity:1;fill-rule:nonzero;stroke:none" d="m 0,0 c 0,-0.828 -0.672,-1.5 -1.5,-1.5 -0.829,0 -1.501,0.672 -1.501,1.5 0,0.829 0.672,1.501 1.501,1.501 C -0.672,1.501 0,0.829 0,0"/></g><g transform="translate(24,18.5)" id="g76"><path id="path78" style="fill:#ffd983;fill-opacity:1;fill-rule:nonzero;stroke:none" d="M 0,0 C 0,-0.828 -0.672,-1.5 -1.5,-1.5 -2.328,-1.5 -3,-0.828 -3,0 -3,0.829 -2.328,1.501 -1.5,1.501 -0.672,1.501 0,0.829 0,0"/></g><g transform="translate(25,27)" id="g80"><path id="path82" style="fill:#292f33;fill-opacity:1;fill-rule:nonzero;stroke:none" d="m 0,0 0,2 c 0,1.104 -0.895,2 -2,2 l -10,0 c -1.104,0 -2,-0.896 -2,-2 l 0,-2 14,0 z"/></g><g transform="translate(21,29)" id="g84"><path id="path86" style="fill:#6d6e71;fill-opacity:1;fill-rule:nonzero;stroke:none" d="m 0,0 c 0,-0.552 -0.447,-1 -1,-1 l -4,0 c -0.552,0 -1,0.448 -1,1 0,0.552 0.448,1 1,1 l 4,0 C -0.447,1 0,0.552 0,0"/></g></g></g></g></svg>
