<?xml version="1.0" encoding="UTF-8" standalone="no"?><svg xmlns:dc="http://purl.org/dc/elements/1.1/" xmlns:cc="http://creativecommons.org/ns#" xmlns:rdf="http://www.w3.org/1999/02/22-rdf-syntax-ns#" xmlns:svg="http://www.w3.org/2000/svg" xmlns="http://www.w3.org/2000/svg" viewBox="0 0 45 45" style="enable-background:new 0 0 45 45;" xml:space="preserve" version="1.1" id="svg2"><metadata id="metadata8"><rdf:RDF><cc:Work rdf:about=""><dc:format>image/svg+xml</dc:format><dc:type rdf:resource="http://purl.org/dc/dcmitype/StillImage"/></cc:Work></rdf:RDF></metadata><defs id="defs6"><clipPath id="clipPath16" clipPathUnits="userSpaceOnUse"><path id="path18" d="M 0,36 36,36 36,0 0,0 0,36 Z"/></clipPath></defs><g transform="matrix(1.25,0,0,-1.25,0,45)" id="g10"><g id="g12"><g clip-path="url(#clipPath16)" id="g14"><g transform="translate(1.0005,19)" id="g20"><path id="path22" style="fill:#a0041e;fill-opacity:1;fill-rule:nonzero;stroke:none" d="m 0,0 8,7 16,-1 1,-16 -7,-8 c 0,0 0.001,5.999 -6,12 C 5.999,0.001 0,0 0,0"/></g><g transform="translate(0.9727,1)" id="g24"><path id="path26" style="fill:#ffac33;fill-opacity:1;fill-rule:nonzero;stroke:none" d="m 0,0 c 0,0 -0.036,7.98 2.985,11 3.021,3.021 11.042,2.814 11.042,2.814 C 14.027,13.814 14.026,6 11.026,3 8.026,0 0,0 0,0"/></g><g transform="translate(4.999,9)" id="g28"><path id="path30" style="fill:#ffcc4d;fill-opacity:1;fill-rule:nonzero;stroke:none" d="M 0,0 C 0,2.209 1.791,4 4,4 6.209,4 8,2.209 8,0 8,-2.209 6.209,-4 4,-4 1.791,-4 0,-2.209 0,0"/></g><g transform="translate(35.999,36.0005)" id="g32"><path id="path34" style="fill:#55acee;fill-opacity:1;fill-rule:nonzero;stroke:none" d="m 0,0 c 0,0 -10,0 -22,-10 -6,-5 -6,-14 -4,-16 2,-2 11,-2 16,4 C 0,-10 0,0 0,0"/></g><g transform="translate(26.999,31.0005)" id="g36"><path id="path38" style="fill:#000000;fill-opacity:1;fill-rule:nonzero;stroke:none" d="M 0,0 C -1.623,0 -3.013,-0.971 -3.641,-2.36 -3.139,-2.133 -2.586,-2 -2,-2 0.209,-2 2,-3.791 2,-6 2,-6.586 1.867,-7.139 1.641,-7.64 3.029,-7.013 4,-5.623 4,-4 4,-1.791 2.209,0 0,0"/></g><g transform="translate(8,8)" id="g40"><path id="path42" style="fill:#a0041e;fill-opacity:1;fill-rule:nonzero;stroke:none" d="M 0,0 C 0,0 0,4 1,5 2,6 14.001,15.999 15,15 15.999,14.001 5.999,2 4.999,1 3.999,0 0,0 0,0"/></g></g></g></g></svg>
