<svg xmlns="http://www.w3.org/2000/svg" viewBox="0 0 64 64" enable-background="new 0 0 64 64"><path fill="#ffce31" d="m2 38.4h60v16.5h-60z"/><g fill="#3e4347"><path d="m2 54.9h60v1.8h-60z"/><path d="m13.8 44.1h48.2v1h-48.2z"/><path d="m13.8 38.8h48.2v1h-48.2z"/></g><g fill="#63686b"><path d="m49.6 46.8c-4.6 0-8.3 3.6-8.3 8.1 0 .6.1 1.2.2 1.8h16.2c.1-.6.2-1.2.2-1.8 0-4.5-3.7-8.1-8.3-8.1"/><path d="m18.6 46.8c-4.6 0-8.3 3.6-8.3 8.1 0 .6.1 1.2.2 1.8h16.2c.1-.6.2-1.2.2-1.8-.1-4.5-3.8-8.1-8.3-8.1"/></g><path d="m59.9 16h-55.6c-1.1 0-2 .9-2.3 2v20.3h60v-20.3c0-1.1-.9-2-2.1-2" fill="#ffce31"/><ellipse cx="49.6" cy="54.9" rx="7.2" ry="7.1" fill="#3e4347"/><ellipse cx="49.6" cy="54.9" rx="3.6" ry="3.6" fill="#94989b"/><ellipse cx="18.6" cy="54.9" rx="7.2" ry="7.1" fill="#3e4347"/><path d="m18.6 51.3c-2 0-3.6 1.6-3.6 3.6 0 2 1.6 3.6 3.6 3.6 2 0 3.6-1.6 3.6-3.6 0-2-1.7-3.6-3.6-3.6" fill="#94989b"/><path fill="#3e4347" d="m2 20.9h3.1v17.4h-3.1z"/><path d="m4.7 53.7c-.3.2-1.5.8-1.5.8v-3.6c0 0 1.2.5 1.5.8.8.5.8 1.4 0 2" fill="#f5f5f5"/><path d="m4.1 41.8c-.2.2-1 .6-1 .6v-2.7c0 0 .8.4 1 .6.5.3.5 1 0 1.5" fill="#ed4c5c"/><path fill="#63686b" d="m14.9 20.9h7.5v4.5h-7.5z"/><path fill="#3e4347" d="m14.9 27.3h7.5v4.5h-7.5z"/><path fill="#63686b" d="m24.1 20.9h7.5v4.5h-7.5z"/><path fill="#3e4347" d="m24.1 27.3h7.5v4.5h-7.5z"/><path fill="#63686b" d="m33.5 20.9h7.5v4.5h-7.5z"/><path fill="#3e4347" d="m33.5 27.3h7.5v4.5h-7.5z"/><path fill="#63686b" d="m42.9 20.9h7.5v4.5h-7.5z"/><path fill="#3e4347" d="m42.9 27.3h7.5v4.5h-7.5z"/><path fill="#63686b" d="m51.7 20.9h7.5v4.5h-7.5z"/><g fill="#3e4347"><path d="m51.7 27.3h7.5v4.5h-7.5z"/><path d="m2 33.6h60v1h-60z"/></g><path fill="#f5f5f5" d="m18.5 43.8l-3.3-3.2v-4.5l3.3-3.2h4.7l3.3 3.2v4.5l-3.3 3.2z"/><path fill="#ed4c5c" d="m19.1 42.4l-2.5-2.3v-3.4l2.5-2.4h3.5l2.5 2.4v3.4l-2.5 2.3z"/><g fill="#94989b"><path d="m13.3 36.5h1.9v3.8h-1.9z"/><path d="m4 23.5h2.7v12.3h-2.7z"/></g><g fill="#3e4347"><path d="m6.7 20.9h6.3v10.9h-6.3z"/><path d="m2 43.6h4.7v6.4h-4.7z"/></g><g fill="#63686b"><path d="m2 44.5h3.8v.9h-3.8z"/><path d="m2 46.3h3.8v.9h-3.8z"/><path d="m2 48.2h3.8v.9h-3.8z"/></g></svg>