<svg xmlns="http://www.w3.org/2000/svg" viewBox="0 0 64 64" enable-background="new 0 0 64 64"><path fill="#94989b" d="m2 56.5h60v5.5h-60z"/><path fill="#62696d" d="m2 56.5h60v1.8h-60z"/><path d="M25.3,14C14.5,14,2,37.4,2,50.6c0,3.2,2.5,5.8,5.7,5.9h0H62V14C62,14,48.9,14,25.3,14z" fill="#dfecf4"/><g fill="#3e4347"><path d="m15.1 19.9c-6.8 7.4-12.5 20.2-13 29.2h10.2c0 0 13.2 0 13.2-7.3 0-5.5 0-22 0-22s-10.4.1-10.4.1"/><path d="m41.5 19.9c-7.3 0-7.3 1.5-7.3 15.4v13.9h27.8v-29.3c0 0-18.6 0-20.5 0"/></g><path d="m2.1 49.1c0 .5-.1 1-.1 1.5 0 3.2 2.5 5.8 5.7 5.9h54.3v-7.3l-59.9-.1" fill="#3baacf"/><path d="M11.5,56.5c0,0,7.3-7.3,22-7.3H62v7.3H11.5z" fill="#fdf516"/><g fill="#62696d"><path d="m47.4 34.5c-.8 0-1.3.7-1.5 1.5l-1.3 10.2h-4.6c-1.4 0-1.4.9-1.4 2v1h10.3v-14.7h-1.5"/><path d="m60.5 34.5c-.8 0-1.3.7-1.5 1.5l-1.3 10.2h-4.7c-1.4 0-1.4.9-1.4 2v1h10.4v-14.7h-1.5"/></g><ellipse cx="6.4" cy="52.8" rx=".7" ry="2.2" fill="#fff"/><path d="m25.4 56.5c0 0 11.3-7.3 24.6-7.3 0 0 11.9 0 11.9-11.1v18.4h-36.5" fill="#3baacf"/></svg>