<?xml version="1.0" encoding="utf-8"?>
<!-- Generator: Adobe Illustrator 25.2.3, SVG Export Plug-In . SVG Version: 6.00 Build 0)  -->
<svg version="1.1" id="Layer_2" xmlns="http://www.w3.org/2000/svg" xmlns:xlink="http://www.w3.org/1999/xlink" x="0px" y="0px"
	 viewBox="0 0 128 128" style="enable-background:new 0 0 128 128;" xml:space="preserve">
<path style="fill:#FEB804;" d="M82.02,119.67c-0.33-0.05-5.51-0.07-12.62-0.07l-4.69-15.5l-4.27,1.11l4.02,14.39
	c-8.29,0-18.04,0-25.81-0.01l4.72-14.23H38.3l-4.64,14.22c-4.98-0.01-8.42-0.03-8.88-0.07c-1.9-0.16-4.19-1.58-5.14-2.13
	c-0.95-0.55-2.69-2.77-4.35-0.95c-1.66,1.82,1.2,4.05,3.16,5.3c2.85,1.82,6.09,1.98,7.99,1.98c1.9,0,55.03,0.08,55.74,0
	s1.66-1.19,1.66-1.98S83.27,119.85,82.02,119.67z"/>
<path style="fill:#5E6367;" d="M103.92,47.96c-0.71-0.08-42.77-0.71-42.77-0.71s-0.97-1.51-3.6-2.23c2.13-0.1,3.75-0.26,3.84-0.45
	c0.63-1.42-2.45-3.79-7.27-3.87c-4.51-0.07-7.75,2.29-7.35,4.03c0.06,0.26,2.02,0.38,4.49,0.41c-2.55,0.79-3.7,2.28-3.7,2.28
	S6.28,49.07,5.09,49.15s-2.13,0.47-2.13,1.42c0,0.95,0.55,1.74,1.58,1.74s40-1.42,40-1.42s-17.95,5.06-19.05,5.38
	c-1.11,0.32-2.53,0.71-2.37,1.66c0.16,0.95,1.58,0.87,2.45,0.63s25.77-6.4,25.77-6.4v6.87c-2.12-0.01-3.86,0.05-4.11,0.24
	c-0.75,0.58-1.49,3.31-1.82,5.69c-0.4,2.85-0.47,5.85-0.47,5.85l10.91,0.63l4.27-12.18c0,0-1.04-0.05-2.53-0.1v-6.54
	c0,0,26.64,6.8,27.35,6.96c0.71,0.16,1.9,0.08,1.98-0.63c0.08-0.71-0.08-1.34-1.03-1.74s-21.5-6.25-21.5-6.25s37.24,0,38.9-0.08
	c1.66-0.08,2.13-0.55,2.13-1.5C105.42,48.44,104.63,48.04,103.92,47.96z"/>
<path style="fill:#FFA62D;" d="M16.64,89.07l-2.21,2.06l-3,4.27c0,0-1.5,3.95,3.32,6.96c4.82,3,10.91,5.3,31.94,4.82
	c21.03-0.47,30.2-4.51,34.15-9.41c3.95-4.9,4.27-9.17,4.27-9.17l6.56-6.32l14.31,0.24c0,0,5.38,14.71,5.53,15.02
	c0.16,0.32,3.87,0.32,3.87,0.32l2.77-7.83c0,0-0.4-8.78-0.16-9.72c0.24-0.95,7.27-22.93,7.12-23.72s-0.31-0.83-0.86-0.86
	c-0.55-0.04-1.98,0.04-1.98,0.04L107.87,71.1l-1.14,2.61l-2.87,0.47l-20.98-1.74c0,0,0-1.8-0.53-3.41c-0.53-1.6-1.94-4.28-1.94-4.28
	l-29.35,1.91l-2.05,3.17l-9.82,5.08L16.64,89.07z"/>
<path style="fill:#FFD61C;" d="M114.24,55.7c-0.2,0.34-6.36,15.4-6.36,15.4l7.72,19.95c0,0-0.1,0.74-0.93,0.92s-2.56-1.07-2.56-1.07
	l2.69,6.94c0,0,6.6,0,6.66-0.24s-4.53-21-4.53-21.47s6.01-20.6,6.01-20.6S114.41,55.4,114.24,55.7z"/>
<path style="fill:#FFD61C;" d="M76.55,74.82c0,0,2.98,1.85,4.76,3.99c1.57,1.88,3.57,5.06,3.57,5.06l6.61-5.24l15.6,0.71
	c0,0-0.16-3.01-0.3-3.69c-0.18-0.89-0.6-2.02-0.6-2.02l-23.34-1.61L76.55,74.82z"/>
<path style="fill:#FFD61C;" d="M51.06,66.66c0,0,4.94,0.69,13.4,1.19c7.09,0.42,12.33,0.77,14.53-0.36
	c1.52-0.78,1.97-1.61,1.97-1.61s-2.2-4.7-3.1-5.24c-0.89-0.54-12.02-1.88-17.74-1.37C55.35,59.69,51.06,66.66,51.06,66.66z"/>
<path style="fill:#FFD61C;" d="M81.69,83.76c0,0-9.03-14.33-31.76-13.91c-22.72,0.43-26.78,17.49-26.78,17.49l8.1,2.49
	c0,0,0.43,2.27-0.75,2.56c-1.17,0.29-11.38,0.23-12.9,0.18c-2.68-0.1-2.82-1.96-2.82-1.96s-1.46,1.11-2.22,2.32
	c-0.76,1.21-1.15,2.46-1.15,2.46s0.74,2.19,4.63,3.85c3.89,1.67,14.97,3.9,30.66,3.8c15.69-0.1,29.01-3.75,32.76-9.77
	C83.22,87.27,81.69,83.76,81.69,83.76z M47,92.38c-0.82,0.65-8.23,0.92-9.4-0.14c-0.94-0.85,0.07-2.66,0.07-2.66l3.28-2.05
	c0,0,6.72,0.78,6.75,1.88C47.72,90.35,47.58,91.92,47,92.38z M63.48,92.75c-1.29,0.41-6.69,0.53-7.86,0.41
	c-1.17-0.12-2.11-0.09-2.7-1.15c-0.59-1.06-0.23-2.84-0.23-2.84l12.92-2.44c0,0,0.01,2.08-0.12,3.44
	C65.37,91.35,64.55,92.41,63.48,92.75z"/>
<path style="fill:#5E6367;" d="M41.55,75.6c-0.91,0.77-4.45,13.73-3.88,13.98c0.56,0.25,9.49,0.31,10.03-0.18s1.74-13.64,1.34-14.04
	C48.64,74.97,42.29,74.97,41.55,75.6z"/>
<path style="fill:#5E6367;" d="M53.84,75.88c-0.46,0.34-1.33,13.48-1.14,14c0.24,0.66,2.63,0.51,6.12,0.51s6.63-0.69,6.86-2.86
	c0.26-2.45,0.11-6.4,0-8.06s-1.83-3.03-4.29-3.49C59.53,75.65,54.45,75.42,53.84,75.88z"/>
<path style="fill:#5E6367;" d="M30,94.46c-0.48-0.56-6.98-0.24-7.26,4.63c-0.17,2.97,3.49,4.74,4.29,4.69s1.37-1.89,2.17-4.46
	C29.88,97.12,30.34,94.86,30,94.46z"/>
<path style="fill:#868686;" d="M16.22,89.66c0.23,0.91,14.35,0.75,15.03,0.34c0.57-0.34,5.83-17.09,5.6-17.43s-5.49,0.4-13.2,6.86
	C18.9,83.41,16,88.75,16.22,89.66z"/>
<path style="fill:#C9C7C4;" d="M42,81.66c0.99,0.29,1.89-1.71,2.8-2.17s2.33-1.14,2.29-2c-0.06-1.03-2.92-1.83-4.06-0.91
	S40.46,81.2,42,81.66z"/>
<path style="fill:#C9C7C4;" d="M55.44,77.66c-0.8,0.86-1.03,4.46,0.17,4.69c1.2,0.23,1.77-1.37,2.8-2.12
	c1.03-0.74,2.59-1.21,2.52-2.52C60.87,76.69,56.87,76.11,55.44,77.66z"/>
<path style="fill:#C8C8C8;" d="M32.97,75.66c-0.78-0.71-5.08,1.89-8.12,4.74C22,83.09,19.2,86.65,20,87.72
	c1.31,1.77,4.12-2.86,7.26-5.66C28.77,80.71,34.29,76.86,32.97,75.66z"/>
<path style="fill:#999A9D;" d="M107.58,63.24c-1.45,0.31,0,6.77,0.5,8.91c0.5,2.15,1.93,5.23,1.93,5.23l2.97-1.38
	c0,0-0.94-4.84-1.93-7.65S108.84,62.96,107.58,63.24z"/>
<path style="fill:#999A9D;" d="M110.71,79.92c0,0-0.04,2.31,1.15,5.79c1.15,3.4,2.68,6.35,4.02,5.93c1.24-0.39,0.38-5.52-0.23-7.71
	c-0.61-2.19-1.96-4.98-1.96-4.98L110.71,79.92z"/>
<path style="fill:#5E6367;" d="M110.93,75.38c-2.31,0.87-2.17,2.75-1.66,3.96c0.37,0.88,1.89,2.12,3.67,1.32
	c1.38-0.62,2.24-1.84,1.55-3.73C114.05,75.7,112.76,74.69,110.93,75.38z"/>
</svg>
