<svg xmlns="http://www.w3.org/2000/svg" viewBox="0 0 64 64" enable-background="new 0 0 64 64"><path fill="#83bf4f" d="m4.8 22.6h54.4v20.6h-54.4z"/><path fill="#ffce31" d="m4.8 43.2h54.4v3.8h-54.4z"/><g fill="#3e4347"><path d="m55.4 18.9h-46.8c-2.1 0-3.8 1.7-3.8 3.8h54.4c0-2.1-1.7-3.8-3.8-3.8"/><path d="m25.4 15.1h13.1v3.8h-13.1z"/><path d="m2 2h60v1.9h-60z"/><path d="m23.6 39.8h-9.4v-11.3c0-3.3 9.4-3.3 9.4 0v11.3"/></g><path d="m21.7 30.1c0-2.3-5.6-2.3-5.6 0v7.5h5.6v-7.5" fill="#b4d7ee"/><path d="m12.3 41.7h-7.5v-16.6c0 0 7.5.2 7.5 4.3v12.3" fill="#3e4347"/><path d="M10.4,31c0-3.7-5.6-3.6-5.6-3.6v12.1h5.6V31z" fill="#b4d7ee"/><path d="m34.8 39.8h-9.4v-11.3c0-3.3 9.4-3.3 9.4 0v11.3" fill="#3e4347"/><path d="m32.9 30.1c0-2.3-5.6-2.3-5.6 0v7.5h5.6v-7.5" fill="#b4d7ee"/><path d="m46.1 39.8h-9.4v-11.3c0-3.3 9.4-3.3 9.4 0v11.3" fill="#3e4347"/><path d="m44.2 30.1c0-2.3-5.6-2.3-5.6 0v7.5h5.6v-7.5" fill="#b4d7ee"/><path d="m57.3 39.8h-9.4v-11.3c0-3.3 9.4-3.3 9.4 0v11.3" fill="#3e4347"/><path d="m55.4 30.1c0-2.3-5.6-2.3-5.6 0v7.5h5.6v-7.5" fill="#b4d7ee"/><g fill="#3e4347"><path d="m5.8 15.5h3.2v5.6h-3.2z"/><path d="m13.5 17.5h9.1v3.7h-9.1z"/><path d="m43.9 17h9.1v3.7h-9.1z"/></g><path fill="#94989b" d="m2 56.4h60v5.6h-60z"/><path fill="#e6e6e6" d="m2 57.3h60v.9h-60z"/><g fill="#3e4347"><path transform="matrix(.5237-.8519.8519.5237 5.7151 33.7073)" d="m27.9 11.3h10.3v.9h-10.3z"/><path transform="matrix(.5242-.8516.8516.5242 7.2242 39.3621)" d="m33.7 12.4h10.3v1.7h-10.3z"/><path transform="matrix(.7881-.6155.6155.7881 2.7438 23.6407)" d="m35.3 2h.9v11.8h-.9z"/><path transform="matrix(.7877-.6161.6161.7877 4.3475 25.2263)" d="m37.9 1.8h1.8v9h-1.8z"/></g><path d="M4.8,47c0,0-1.9,0-1.9,2.8v0.9v2.8h1.9h54.4V47H4.8z" fill="#699635"/><path fill="#3e4347" d="m2.9 52h56.3v1.6h-56.3z"/><path fill="#63686b" d="m18.9 49.8h-9.4l-2.8 3.8h15z"/><circle cx="10.9" cy="53.6" r="2.8" fill="#3e4347"/><circle cx="10.9" cy="53.6" r=".9" fill="#94989b"/><circle cx="17.5" cy="53.6" r="2.8" fill="#3e4347"/><circle cx="17.5" cy="53.6" r=".9" fill="#94989b"/><path fill="#63686b" d="m54.5 49.8h-9.4l-2.8 3.8h15z"/><g fill="#3e4347"><circle cx="46.5" cy="53.6" r="2.8"/><circle cx="53.1" cy="53.6" r="2.8"/></g><g fill="#94989b"><circle cx="46.5" cy="53.6" r=".9"/><circle cx="53.1" cy="53.6" r=".9"/></g></svg>