<?xml version="1.0" encoding="UTF-8" standalone="no"?><svg xmlns:dc="http://purl.org/dc/elements/1.1/" xmlns:cc="http://creativecommons.org/ns#" xmlns:rdf="http://www.w3.org/1999/02/22-rdf-syntax-ns#" xmlns:svg="http://www.w3.org/2000/svg" xmlns="http://www.w3.org/2000/svg" viewBox="0 0 45 45" style="enable-background:new 0 0 45 45;" xml:space="preserve" version="1.1" id="svg2"><metadata id="metadata8"><rdf:RDF><cc:Work rdf:about=""><dc:format>image/svg+xml</dc:format><dc:type rdf:resource="http://purl.org/dc/dcmitype/StillImage"/></cc:Work></rdf:RDF></metadata><defs id="defs6"><clipPath id="clipPath16" clipPathUnits="userSpaceOnUse"><path id="path18" d="M 0,36 36,36 36,0 0,0 0,36 Z"/></clipPath></defs><g transform="matrix(1.25,0,0,-1.25,0,45)" id="g10"><g id="g12"><g clip-path="url(#clipPath16)" id="g14"><g transform="translate(36,18)" id="g20"><path id="path22" style="fill:#292f33;fill-opacity:1;fill-rule:nonzero;stroke:none" d="m 0,0 c 0,-9.941 -8.059,-18 -18,-18 -9.941,0 -18,8.059 -18,18 0,9.941 8.059,18 18,18 C -8.059,18 0,9.941 0,0"/></g><g transform="translate(8.8955,2.4912)" id="g24"><path id="path26" style="fill:#808285;fill-opacity:1;fill-rule:nonzero;stroke:none" d="m 0,0 c 0.7,-0.412 1.421,-0.79 2.178,-1.106 l 6.576,14.615 -1.419,0 L 0,0 Z"/></g><g transform="translate(19.7695,16)" id="g28"><path id="path30" style="fill:#808285;fill-opacity:1;fill-rule:nonzero;stroke:none" d="m 0,0 -1.42,0 6.577,-14.615 c 0.756,0.316 1.478,0.694 2.178,1.106 L 0,0 Z"/></g><path id="path32" style="fill:#58595b;fill-opacity:1;fill-rule:nonzero;stroke:none" d="m 13.999,10 -2,0 0,-2 2,0 0,2 z"/><path id="path34" style="fill:#58595b;fill-opacity:1;fill-rule:nonzero;stroke:none" d="m 24,10 -2,0 0,-2 2,0 0,2 z"/><g transform="translate(26,11)" id="g36"><path id="path38" style="fill:#a7a9ac;fill-opacity:1;fill-rule:nonzero;stroke:none" d="m 0,0 c 0,-1.104 -0.895,-2 -2,-2 l -12,0 c -1.104,0 -2,0.896 -2,2 l 0,2 c 0,1.105 0.896,2 2,2 L -2,4 C -0.895,4 0,3.105 0,2 L 0,0 Z"/></g><g transform="translate(24.3633,30)" id="g40"><path id="path42" style="fill:#d1d3d4;fill-opacity:1;fill-rule:nonzero;stroke:none" d="m 0,0 -12.727,0 c -2.008,0 -3.636,-1.628 -3.636,-3.636 l 0,-9.364 0,-3 0,-1 c 0,-1.104 0.895,-2 2,-2 l 16,0 c 1.104,0 2,0.896 2,2 l 0,1 0,3 0,9.364 C 3.637,-1.628 2.009,0 0,0"/></g><g transform="translate(8,17)" id="g44"><path id="path46" style="fill:#dd2e44;fill-opacity:1;fill-rule:nonzero;stroke:none" d="m 0,0 0,-3 0,-1 c 0,-1.104 0.896,-2 2,-2 l 16,0 c 1.105,0 2,0.896 2,2 l 0,1 0,3 0,4 L 0,4 0,0 Z"/></g><g transform="translate(26,19)" id="g48"><path id="path50" style="fill:#58595b;fill-opacity:1;fill-rule:nonzero;stroke:none" d="m 0,0 c 0,-1.104 -0.895,-2 -2,-2 l -12,0 c -1.104,0 -2,0.896 -2,2 l 0,7 c 0,1.104 0.896,2 2,2 L -2,9 C -0.895,9 0,8.104 0,7 L 0,0 Z"/></g><g transform="translate(24,20)" id="g52"><path id="path54" style="fill:#55acee;fill-opacity:1;fill-rule:nonzero;stroke:none" d="m 0,0 c 0,-0.552 -0.447,-1 -1,-1 l -10,0 c -0.552,0 -1,0.448 -1,1 l 0,5 c 0,0.552 0.448,1 1,1 L -1,6 C -0.447,6 0,5.552 0,5 L 0,0 Z"/></g><path id="path56" style="fill:#ffd983;fill-opacity:1;fill-rule:nonzero;stroke:none" d="m 14,13 -4,0 0,2 4,0 0,-2 z"/><path id="path58" style="fill:#ffd983;fill-opacity:1;fill-rule:nonzero;stroke:none" d="m 26,13 -4,0 0,2 4,0 0,-2 z"/><g transform="translate(20,27)" id="g60"><path id="path62" style="fill:#808285;fill-opacity:1;fill-rule:nonzero;stroke:none" d="m 0,0 c 0,-0.552 -0.447,-1 -1,-1 l -2,0 c -0.552,0 -1,0.448 -1,1 0,0.552 0.448,1 1,1 l 2,0 C -0.447,1 0,0.552 0,0"/></g></g></g></g></svg>
