<?xml version="1.0" encoding="UTF-8" standalone="no"?><svg xmlns:dc="http://purl.org/dc/elements/1.1/" xmlns:cc="http://creativecommons.org/ns#" xmlns:rdf="http://www.w3.org/1999/02/22-rdf-syntax-ns#" xmlns:svg="http://www.w3.org/2000/svg" xmlns="http://www.w3.org/2000/svg" viewBox="0 0 45 45" style="enable-background:new 0 0 45 45;" xml:space="preserve" version="1.1" id="svg2"><metadata id="metadata8"><rdf:RDF><cc:Work rdf:about=""><dc:format>image/svg+xml</dc:format><dc:type rdf:resource="http://purl.org/dc/dcmitype/StillImage"/></cc:Work></rdf:RDF></metadata><defs id="defs6"><clipPath id="clipPath16" clipPathUnits="userSpaceOnUse"><path id="path18" d="M 0,36 36,36 36,0 0,0 0,36 Z"/></clipPath></defs><g transform="matrix(1.25,0,0,-1.25,0,45)" id="g10"><g id="g12"><g clip-path="url(#clipPath16)" id="g14"><g transform="translate(34,3)" id="g20"><path id="path22" style="fill:#292f33;fill-opacity:1;fill-rule:nonzero;stroke:none" d="m 0,0 c 0,-1.105 -0.895,-2 -2,-2 l -3,0 c -1.104,0 -2,0.895 -2,2 l 0,8 c 0,1.105 0.896,2 2,2 l 3,0 C -0.895,10 0,9.105 0,8 L 0,0 Z"/></g><g transform="translate(9,3)" id="g24"><path id="path26" style="fill:#292f33;fill-opacity:1;fill-rule:nonzero;stroke:none" d="m 0,0 c 0,-1.105 -0.896,-2 -2,-2 l -3,0 c -1.104,0 -2,0.895 -2,2 l 0,8 c 0,1.105 0.896,2 2,2 l 3,0 C -0.896,10 0,9.105 0,8 L 0,0 Z"/></g><g transform="translate(9,31)" id="g28"><path id="path30" style="fill:#ffcc4d;fill-opacity:1;fill-rule:nonzero;stroke:none" d="m 0,0 c 4,1 14,1 18,0 3.881,-0.97 5,-11 5,-11 0,0 2,0 2,-4 l 0,-8 c 0,0 0.123,-4 -4,-4 l -24,0 c -4.123,0 -4,4 -4,4 l 0,8 c 0,0 0,4 2,4 0,0 1.12,10.03 5,11"/></g><g transform="translate(18,21)" id="g32"><path id="path34" style="fill:#55acee;fill-opacity:1;fill-rule:nonzero;stroke:none" d="M 0,0 C 3.905,0 8.623,-0.2 12,-0.561 L 11,5 C 10,8 4,8 0,8 -4,8 -10,8 -11,5 l -1,-5.561 C -8.623,-0.2 -3.905,0 0,0"/></g><g transform="translate(5,20.5)" id="g36"><path id="path38" style="fill:#ffcc4d;fill-opacity:1;fill-rule:nonzero;stroke:none" d="m 0,0 c 0,-0.829 -0.671,-1.5 -1.5,-1.5 l -2,0 c -0.829,0 -1.5,0.671 -1.5,1.5 0,0.829 0.671,1.5 1.5,1.5 l 2,0 C -0.671,1.5 0,0.829 0,0"/></g><g transform="translate(31,20.5)" id="g40"><path id="path42" style="fill:#ffcc4d;fill-opacity:1;fill-rule:nonzero;stroke:none" d="m 0,0 c 0,-0.829 0.672,-1.5 1.5,-1.5 l 2,0 C 4.328,-1.5 5,-0.829 5,0 5,0.829 4.328,1.5 3.5,1.5 l -2,0 C 0.672,1.5 0,0.829 0,0"/></g><g transform="translate(11,13)" id="g44"><path id="path46" style="fill:#ffcc4d;fill-opacity:1;fill-rule:nonzero;stroke:none" d="m 0,0 c 0,-1.657 -1.343,-3 -3,-3 l -1,0 c -1.657,0 -3,1.343 -3,3 0,1.657 1.343,3 3,3 l 1,0 C -1.343,3 0,1.657 0,0"/></g><g transform="translate(32,13)" id="g48"><path id="path50" style="fill:#ffcc4d;fill-opacity:1;fill-rule:nonzero;stroke:none" d="m 0,0 c 0,-1.657 -1.344,-3 -3,-3 l -1,0 c -1.656,0 -3,1.343 -3,3 0,1.657 1.344,3 3,3 l 1,0 C -1.344,3 0,1.657 0,0"/></g><g transform="translate(25,14)" id="g52"><path id="path54" style="fill:#ffac33;fill-opacity:1;fill-rule:nonzero;stroke:none" d="m 0,0 -14,0 c -2.456,0 -4.486,3.336 -4.868,4.004 -0.274,0.479 -0.108,1.09 0.371,1.364 0.478,0.275 1.09,0.108 1.365,-0.37 C -16.438,3.789 -14.963,2 -14,2 L 0,2 C 0.983,2 2.46,3.655 3.148,4.773 3.438,5.244 4.052,5.391 4.524,5.101 4.994,4.812 5.141,4.196 4.852,3.726 4.617,3.344 2.487,0 0,0"/></g><path id="path56" style="fill:#f4900c;fill-opacity:1;fill-rule:nonzero;stroke:none" d="M 6,8 2,8 2,12 6,12 6,8 Z"/><path id="path58" style="fill:#f4900c;fill-opacity:1;fill-rule:nonzero;stroke:none" d="m 34,8 -4,0 0,4 4,0 0,-4 z"/><g transform="translate(10,10)" id="g60"><path id="path62" style="fill:#ffffff;fill-opacity:1;fill-rule:nonzero;stroke:none" d="m 0,0 c 0,-1.104 -0.896,-2 -2,-2 l -2,0 c -1.104,0 -2,0.896 -2,2 0,1.105 0.896,2 2,2 l 2,0 C -0.896,2 0,1.105 0,0"/></g><g transform="translate(32,10)" id="g64"><path id="path66" style="fill:#ffffff;fill-opacity:1;fill-rule:nonzero;stroke:none" d="m 0,0 c 0,1.105 -0.895,2 -2,2 l -2,0 c -1.104,0 -2,-0.895 -2,-2 0,-1.104 0.896,-2 2,-2 l 2,0 c 1.105,0 2,0.896 2,2"/></g><g transform="translate(25,10)" id="g68"><path id="path70" style="fill:#66757f;fill-opacity:1;fill-rule:nonzero;stroke:none" d="m 0,0 c 0,-1.104 -0.895,-2 -2,-2 l -10,0 c -1.104,0 -2,0.896 -2,2 0,1.105 0.896,2 2,2 L -2,2 C -0.895,2 0,1.105 0,0"/></g><g transform="translate(22,34)" id="g72"><path id="path74" style="fill:#ffe8b6;fill-opacity:1;fill-rule:nonzero;stroke:none" d="m 0,0 -8,0 c -1.657,0 -3,-1.343 -3,-3 L 3,-3 C 3,-1.343 1.657,0 0,0"/></g><path id="path76" style="fill:#ccd6dd;fill-opacity:1;fill-rule:nonzero;stroke:none" d="m 22,31 -8,0 0,2 8,0 0,-2 z"/><path id="path78" style="fill:#99aab5;fill-opacity:1;fill-rule:nonzero;stroke:none" d="m 20,31 -4,0 0,1 4,0 0,-1 z"/></g></g></g></svg>
