<?xml version="1.0" encoding="utf-8"?>
<!-- Generator: Adobe Illustrator 25.2.3, SVG Export Plug-In . SVG Version: 6.00 Build 0)  -->
<svg version="1.1" id="Layer_2" xmlns="http://www.w3.org/2000/svg" xmlns:xlink="http://www.w3.org/1999/xlink" x="0px" y="0px"
	 viewBox="0 0 128 128" style="enable-background:new 0 0 128 128;" xml:space="preserve">
<path style="fill:#31322E;" d="M114.19,74.5c0,0,0.52-1.29,2.13-1.95c1.51-0.62,5.04-0.7,6.56,1.15c1.6,1.95,1.55,4.79,2.07,9.82
	c0.41,3.88,0.77,8.21,0.14,10.19c-0.47,1.49-1.85,2.95-5.05,3.04c-3.19,0.09-4.7-1.95-4.7-1.95L114.19,74.5z"/>
<path style="fill:#489DF6;" d="M4.39,82.44c0,0-0.46-2.67,1.97-5.1s4.06-2.67,7.18-2.9s14.6-0.58,14.6-0.58s25.15-27.81,25.38-28.04
	c0.23-0.23,51.68-0.58,53.54-0.58s4.98,1.51,5.45,4.17c0.46,2.67,3,29.08,3,29.08L64.99,91.01L4.39,82.44z"/>
<path style="fill:#506D71;" d="M58.46,93.15l-34.04-7.58L4.61,101.66c0,0-2.66-0.27-2.66,2.39s-0.27,7.31,0.27,7.71
	s94.27,0.8,94.27,0.8s22.2-0.13,22.87-0.53s0.74-0.87,0.93-5.05c0.11-2.39,0.62-4.59-2.04-4.86c-0.25-0.02-0.78-0.04-1-0.08
	c-2.1-0.4-2.55-1.44-2.55-1.44l-8.91-14.23l-32.04,2.66L58.46,93.15z"/>
<path style="fill:#4C443F;" d="M28.09,96.99c-8.02-0.13-13.97,5.55-13.97,13.71c0,6.85,4.66,12.84,13.06,13.19
	c9.18,0.39,14.22-6.71,14.35-12.67C41.66,105.26,37.4,97.14,28.09,96.99z"/>
<path style="fill:#C8C8C8;" d="M27.57,103.06c-4.39,0.21-7.24,3.36-7.11,7.24c0.13,3.88,3.1,7.5,7.5,7.37
	c4.4-0.13,7.11-3.23,7.24-6.98C35.32,107.07,33,102.8,27.57,103.06z"/>
<path style="fill:#4C443F;" d="M102.12,98.71c-6.77-4.29-14.81-2.55-19.07,4.41c-3.58,5.85-2.76,13.45,4.26,18.07
	c6.85,4.51,15.4,1.51,18.62-3.51C109.15,112.67,109.98,103.69,102.12,98.71z"/>
<path style="fill:#C8C8C8;" d="M98.38,103.41c-3.86-2.11-8.09-0.43-9.85,2.47c-2.01,3.32-1.27,8.02,2.55,10.2
	c3.82,2.18,7.67,0.9,9.82-2.18C102.57,111.51,103.15,106.02,98.38,103.41z"/>
<path style="fill:#1D86FB;" d="M4.02,101.68c0.8,0.08,7.39-0.05,7.39-0.05s1.86-5.18,7.1-8.01c6.47-3.49,14.74-3.1,20.17,0.78
	c5.9,4.22,6.59,8.71,6.59,8.71l32.07-0.18c0,0,1.81-6.85,8.02-10.73c5.81-3.63,14.7-3.12,19.79,0.65c6.47,4.78,7.11,9.18,7.11,9.18
	s4.48,0.02,5.02,0.02c0.23,0-0.49-11.27-0.49-11.27l-1.29-12.29c0,0-14.22-0.13-22.63,2.2c-8.41,2.33-16.04,2.59-27.29,2.46
	c-11.25-0.13-19.14-1.16-24.7-2.2c-5.56-1.03-13.32-1.81-20.17,0.13c-6.85,1.94-8.79,4.78-8.79,4.78s-7.76,4.01-8.02,4.78
	S4.02,101.68,4.02,101.68z"/>
<path style="fill:#FF2A23;" d="M110.7,80.21c-0.32,0.66-0.11,3.66-0.07,6.67c0.03,2.48-0.08,4.52,0.33,4.77
	c0.39,0.25,5.98-0.06,5.98-0.06l-0.97-10.81l-0.21-0.77C115.75,80.01,110.85,79.92,110.7,80.21z"/>
<path style="fill:#FFFFFF;" d="M6.68,81.12c0,0,8.71-0.32,9.24,0.26c0.53,0.58,0,2-1.06,4.01s-2.95,4.96-3.32,5.28
	c-0.37,0.32-5.03,0.21-5.03,0.21L4.62,83.7L6.68,81.12z"/>
<path style="fill:#D7CCC5;" d="M4.04,81.17c0,0-0.53,2.05-0.58,4.75c-0.05,2.69,0.42,4.96,0.42,4.96h2.64c0,0-0.31-2.27-0.26-4.81
	c0.05-2.64,0.63-4.95,0.63-4.95L4.04,81.17z"/>
<path style="fill:#506D73;" d="M56.12,51.19c-1.7,0.92-6.58,7.28-9.08,10.31c-2.5,3.03-9.09,10.83-9.55,11.74
	c-0.45,0.91-0.3,2.05,1.14,2.12c1.44,0.08,39.17,0.45,39.7,0.38c0.53-0.08,0.76-0.91,0.68-1.67c-0.08-0.76,0.38-20.68,0.23-21.59
	s-1.21-1.74-3.03-1.74C74.61,50.75,57.03,50.7,56.12,51.19z"/>
<path style="fill:#AFE3FB;" d="M57.51,53.37c-0.76,0.45-14.95,17.64-15.31,18.11c-0.53,0.68-0.54,1.24,0.36,1.24
	s32.12,0.08,32.88,0.08s1.21-0.53,1.14-1.36c-0.08-0.83,0.38-16.97,0.23-17.42c-0.15-0.45-0.53-0.98-1.36-0.98
	S58.16,52.99,57.51,53.37z"/>
<path style="fill:#506D73;" d="M86.81,50.75c-0.61,0-1.82,0.53-1.82,1.67c0,1.14,0.15,21.82,0.15,22.5s0.45,0.76,1.59,0.76
	s20.91-0.23,21.74-0.23s0.83-1.06,0.76-1.82c-0.08-0.76-2.5-19.85-2.65-21.06c-0.15-1.21-1.06-1.97-2.27-2.05
	C103.1,50.44,86.81,50.75,86.81,50.75z"/>
<path style="fill:#0250AC;" d="M44.01,75.26c0,0,1.52,2.35,2.63,3.44c1.04,1.02,2.53,1.85,3.96,1.73c1.43-0.11,2.33-1.45,2.57-5.69
	c0.27-4.69-0.78-5.78-2.57-5.83c-1.83-0.06-2.01,0.63-3.15,1.72C46.83,71.22,44.01,75.26,44.01,75.26z"/>
<path style="fill:#489DF6;" d="M48.4,75.65c1.17-0.14,2.03-0.83,2.78-2.61c0.75-1.78,0.08-2.96-0.67-3.4
	c-0.84-0.5-1.67-0.33-1.87-0.23c-0.16,0.08-0.82,0.71-1.48,1.51c-0.9,1.08-1.66,2.24-1.66,2.24S46.75,75.85,48.4,75.65z"/>
<path style="fill:#AFE3FB;" d="M87.87,53.32c-0.29,0.29,0,19.39,0.23,19.55c0.23,0.15,17.95,0.23,18.18,0
	c0.23-0.23-2.27-19.62-2.58-19.85C103.4,52.79,88.17,53.02,87.87,53.32z"/>
</svg>
