<?xml version="1.0" encoding="utf-8"?>
<!-- Generator: Adobe Illustrator 25.2.3, SVG Export Plug-In . SVG Version: 6.00 Build 0)  -->
<svg version="1.1" id="Layer_2" xmlns="http://www.w3.org/2000/svg" xmlns:xlink="http://www.w3.org/1999/xlink" x="0px" y="0px"
	 viewBox="0 0 128 128" style="enable-background:new 0 0 128 128;" xml:space="preserve">
<path style="fill:#E1E1E1;" d="M47.95,111.51l37.52,0.05l39.77-16.2c0,0,0.26-12.59-0.51-25.62c-0.77-13.03-4.38-32.84-4.38-32.84
	s0.22-3.62-0.22-5.58c-0.42-1.86-1.54-3.37-4.65-3.55c-2.85-0.17-67.12,0-68.87,0.22c-1.75,0.22-12.3,12.97-12.3,12.97
	S19.43,65.58,19,66.13c-0.44,0.55-10.16,7.1-11.71,9.09c-1.62,2.08-1.51,3.78-1.51,3.78l0.06,16.83L47.95,111.51z"/>
<path style="fill:#516C73;" d="M125.25,95.35c0,0-21.72-0.2-26.21,0.74s-7.51,3.62-10.05,7.71c-2.55,4.09-3.55,7.78-3.55,7.78
	s35.46-0.07,36.66,0s2.82-1.81,2.95-4.36C125.19,104.67,125.25,95.35,125.25,95.35z"/>
<path style="fill:#516C73;" d="M47.97,111.5c0,0-3.08-7.37-6.3-10.66s-7.91-5.5-13.54-5.7c-5.63-0.2-22.27-0.33-22.27-0.33
	s-3.74,3.08-4.01,7.43c-0.27,4.36,0,8.51,3.49,8.78S47.97,111.5,47.97,111.5z"/>
<path style="fill:#4E433D;" d="M15.48,112.45c0.08,4.73,3.85,11.55,12.07,11.6s12.48-6.24,12.22-12.69
	c-0.26-6.56-5.36-11.18-12.69-10.98C20.21,100.58,15.37,105.9,15.48,112.45z"/>
<path style="fill:#C8C8C8;" d="M21.35,112.17c0.04,2.5,2.02,6.09,6.34,6.12c4.32,0.03,6.42-3.1,6.28-6.5
	c-0.14-3.46-2.9-6.03-6.53-5.98C23.84,105.86,21.3,108.72,21.35,112.17z"/>
<path style="fill:#4E433D;" d="M93.93,111.89c0.08,4.73,3.85,11.55,12.07,11.6s12.48-6.24,12.22-12.69
	c-0.26-6.56-5.36-11.18-12.69-10.98C98.67,100.01,93.83,105.33,93.93,111.89z"/>
<path style="fill:#C8C8C8;" d="M99.81,111.61c0.04,2.5,2.02,6.09,6.34,6.12c4.32,0.03,6.42-3.1,6.28-6.5
	c-0.14-3.46-2.9-6.03-6.53-5.98C102.3,105.3,99.75,108.15,99.81,111.61z"/>
<path style="fill:#D70617;" d="M5.82,90.86l119.47,0.47c0,0,0.02-2.12,0.02-4.92c0-2.76-0.1-4.83-0.1-4.83L5.74,81.55L5.82,90.86z"
	/>
<path style="fill:#FFE365;" d="M5.76,78.97c0,0,12.17-0.05,12.83-0.05s1.18,0.51,1.18,1.38c0,0.87,0.36,4.09-2.25,6.49
	c-1.12,1.03-3.54,1.25-5.83,1.28c-3.43,0.04-5.62,0.06-5.9,0.06c0,0-0.15-6.81-0.13-7.64C5.7,79.52,5.76,78.97,5.76,78.97z"/>
<path style="fill:#C9C9C9;" d="M34.05,41.4l87.09-0.02c0,0-0.12-0.77-0.35-2.26c-0.2-1.29-0.43-2.21-0.43-2.21L46.53,37l0.09-9.02
	c0,0-1.79-0.21-2.73,0.67c-1.33,1.25-3.72,3.76-6.03,6.79C36.05,37.81,34.05,41.4,34.05,41.4z"/>
<path style="fill:#FA2B23;" d="M37.32,31.86c-2.3,2.57-1.65,6.79-1.65,6.79s7.48,0.24,7.74-0.18c0.26-0.41,0.15-9.46,0.15-9.46
	S40.43,28.37,37.32,31.86z"/>
<path style="fill:#DD0F26;" d="M46.62,28.01c0.41-0.05,23.78-0.2,23.78-0.2s0-4.01-0.04-5.46c-0.05-1.97-1.61-3.47-4.45-3.57
	c-1.99-0.07-13.31-0.16-15.12-0.05c-1.81,0.1-3.88,1.61-3.99,3.88S46.62,28.01,46.62,28.01z"/>
<path style="fill:#FF5B5E;" d="M55.42,23.2l1.32,2.88l-3.16-0.05c0,0-2.43-2.33-2.43-2.85c0-0.52,2.69-2.54,2.69-2.54l3.33-0.04
	L55.42,23.2z"/>
<path style="fill:#FF5B5E;" d="M61.07,23.26l-1.17,2.9l2.63-0.02c0,0,2.7-2.32,2.73-2.77c0.04-0.65-2.71-2.76-2.71-2.76l-2.95-0.01
	L61.07,23.26z"/>
<path style="fill:#1E86FE;" d="M90.78,44.69c-0.21,1.68-0.35,16.27-0.35,16.27L90.5,75.9l7.47-0.14l0.42-15.29l-0.28-15.64
	L90.78,44.69z"/>
<polygon style="fill:#1E86FE;" points="79.77,65.24 92.33,56.65 105.32,48.41 109.37,54.41 96.52,63.35 83.54,71.38 "/>
<polygon style="fill:#1E86FE;" points="83.12,48.69 79.21,54.55 91.63,63.7 104.48,71.66 108.6,65.79 95.61,56.65 "/>
<path style="fill:#557077;" d="M38.09,45.76c-1.39,0.13-2.72,0.56-3.77,2.16c-1.05,1.61-10.12,18.01-11.03,19.55
	c-0.49,0.83-1.07,2.12-0.85,3.13c0.19,0.85,1.07,1.49,2.03,1.55c2.09,0.14,28.76-0.07,30.23-0.07c1.47,0,2.72-1.26,2.79-3.49
	s0.18-18.44,0-20.18c-0.21-2.02-1.54-2.65-3.21-2.72C52.74,45.62,39.55,45.62,38.09,45.76z"/>
<path style="fill:#AFE3FB;" d="M39.7,50.04c-1.37,0.02-2.43,0.47-3.48,2.22c-0.61,1.02-7.89,14.24-8.1,14.87
	c-0.21,0.63,0.28,1.19,1.33,1.19s21.22-0.14,22.48-0.14c1.26,0,1.89-0.91,1.95-2.79c0.07-1.89,0-12.36,0-13.47s-0.56-1.89-2.02-1.89
	C50.4,50.02,40.96,50.01,39.7,50.04z"/>
</svg>
