<?xml version="1.0" encoding="UTF-8" standalone="no"?><svg xmlns:dc="http://purl.org/dc/elements/1.1/" xmlns:cc="http://creativecommons.org/ns#" xmlns:rdf="http://www.w3.org/1999/02/22-rdf-syntax-ns#" xmlns:svg="http://www.w3.org/2000/svg" xmlns="http://www.w3.org/2000/svg" viewBox="0 0 45 45" style="enable-background:new 0 0 45 45;" xml:space="preserve" version="1.1" id="svg2"><metadata id="metadata8"><rdf:RDF><cc:Work rdf:about=""><dc:format>image/svg+xml</dc:format><dc:type rdf:resource="http://purl.org/dc/dcmitype/StillImage"/></cc:Work></rdf:RDF></metadata><defs id="defs6"><clipPath id="clipPath16" clipPathUnits="userSpaceOnUse"><path id="path18" d="M 0,36 36,36 36,0 0,0 0,36 Z"/></clipPath></defs><g transform="matrix(1.25,0,0,-1.25,0,45)" id="g10"><g id="g12"><g clip-path="url(#clipPath16)" id="g14"><g transform="translate(35,24)" id="g20"><path id="path22" style="fill:#ccd6dd;fill-opacity:1;fill-rule:nonzero;stroke:none" d="M 0,0 C 0,1 -1,4 -4,4 L -17.494,4 -20,4 -25.599,4 c -1.377,0 -3.289,-1.791 -4.302,-4 L -33,-5 c -1.453,-0.599 -2,-2.331 -2,-4 l 0,-6 c 0,-2.209 1.791,-4 4,-4 l 28,0 c 2.209,0 4,1.791 4,4 l 0,7.999 C 1,-5.973 0,0 0,0"/></g><g transform="translate(9.0005,11)" id="g24"><path id="path26" style="fill:#e1e8ed;fill-opacity:1;fill-rule:nonzero;stroke:none" d="M 0,0 C -3.267,0 -5.918,-2.612 -5.993,-5.861 -5.674,-5.942 -5.345,-6 -5,-6 L 6,-6 C 6,-2.686 3.314,0 0,0"/></g><g transform="translate(32.9932,5.1396)" id="g28"><path id="path30" style="fill:#e1e8ed;fill-opacity:1;fill-rule:nonzero;stroke:none" d="m 0,0 c -0.075,3.248 -2.726,5.86 -5.993,5.86 -3.313,0 -6,-2.686 -6,-6 l 11,0 c 0.345,0 0.674,0.058 0.993,0.14"/></g><g transform="translate(13,5)" id="g32"><path id="path34" style="fill:#292f33;fill-opacity:1;fill-rule:nonzero;stroke:none" d="m 0,0 c 0,-2.209 -1.791,-4 -4,-4 -2.209,0 -4,1.791 -4,4 0,2.209 1.791,4 4,4 2.209,0 4,-1.791 4,-4"/></g><g transform="translate(11,5)" id="g36"><path id="path38" style="fill:#99aab5;fill-opacity:1;fill-rule:nonzero;stroke:none" d="m 0,0 c 0,-1.105 -0.895,-2 -2,-2 -1.104,0 -2,0.895 -2,2 0,1.105 0.896,2 2,2 1.105,0 2,-0.895 2,-2"/></g><g transform="translate(31,5)" id="g40"><path id="path42" style="fill:#292f33;fill-opacity:1;fill-rule:nonzero;stroke:none" d="m 0,0 c 0,-2.209 -1.791,-4 -4,-4 -2.209,0 -4,1.791 -4,4 0,2.209 1.791,4 4,4 2.209,0 4,-1.791 4,-4"/></g><g transform="translate(29,5)" id="g44"><path id="path46" style="fill:#99aab5;fill-opacity:1;fill-rule:nonzero;stroke:none" d="m 0,0 c 0,-1.105 -0.895,-2 -2,-2 -1.104,0 -2,0.895 -2,2 0,1.105 0.896,2 2,2 1.105,0 2,-0.895 2,-2"/></g><path id="path48" style="fill:#dd2e44;fill-opacity:1;fill-rule:nonzero;stroke:none" d="m 36,12 -36,0 0,3 36,0 0,-3 z"/><g transform="translate(31,23)" id="g50"><path id="path52" style="fill:#dd2e44;fill-opacity:1;fill-rule:nonzero;stroke:none" d="m 0,0 -3,0 0,3 -2,0 0,-3 -3,0 0,-2 3,0 0,-3 2,0 0,3 3,0 0,2 z"/></g><g transform="translate(8,26)" id="g54"><path id="path56" style="fill:#55acee;fill-opacity:1;fill-rule:nonzero;stroke:none" d="m 0,0 5,0 0,-7 -9,0 4,7 z"/></g><g transform="translate(15,29.5)" id="g58"><path id="path60" style="fill:#dd2e44;fill-opacity:1;fill-rule:nonzero;stroke:none" d="m 0,0 c 0,-0.829 -0.671,-1.5 -1.5,-1.5 l -2,0 c -0.829,0 -1.5,0.671 -1.5,1.5 0,0.829 0.671,1.5 1.5,1.5 l 2,0 C -0.671,1.5 0,0.829 0,0"/></g><g transform="translate(18,29.5)" id="g62"><path id="path64" style="fill:#55acee;fill-opacity:1;fill-rule:nonzero;stroke:none" d="m 0,0 c 0,-0.829 -0.671,-1.5 -1.5,-1.5 l -2,0 c -0.829,0 -1.5,0.671 -1.5,1.5 0,0.829 0.671,1.5 1.5,1.5 l 2,0 C -0.671,1.5 0,0.829 0,0"/></g></g></g></g></svg>
