<svg xmlns="http://www.w3.org/2000/svg" viewBox="0 0 64 64" enable-background="new 0 0 64 64"><path fill="#b3bdc4" d="m29.2 12.8h9.4v4.7h-9.4z"/><path d="m4.6 34.4c-.5.6-.7 3.2-.7 3.2v15h54.9c0 0 3.3-9.4 3.3-30 0-7.3-4.6-7.5-20.6-7.5s-20 1.5-23.4 4.7c-3.3 2.9-9.8 10.2-13.5 14.6" fill="#e1e8ed"/><path d="m19.5 20.8l-11.7 12.1h19.5v-15.3c-3.6 0-6.4 1.7-7.8 3.2" fill="#3e4347"/><path d="m62 54.5c0 1-.8 1.9-1.9 1.9h-56.2c-1 0-1.9-.8-1.9-1.9 0-1 .8-1.9 1.9-1.9h56.2c1.1 0 1.9.9 1.9 1.9" fill="#b3bdc4"/><path d="m33.9 6.7c-1.6 0-2.6 1.3-2.8 2.8-.1.8-.9 3.3-.9 3.3h7.5c0 0-.8-2.4-.9-3.3-.3-1.5-1.4-2.8-2.9-2.8" fill="#f15744"/><path d="m32 9.5c0 1 .8 1.9 1.9 1.9v-3.8c-1.1 0-1.9.9-1.9 1.9" fill="#ffc7ce"/><g fill="#f15744"><path d="m40 2l-2.8 4.7 4.6-3.3z"/><path d="m27.7 2l2.9 4.7-4.7-3.3z"/><path d="m38.6 8.6l4.6-1.9 1 1.9z"/><path d="m29.2 8.6l-4.7-1.9-.9 1.9z"/></g><path d="m6.4 46.7v-7.2c0-1-.8-1.9-1.9-1.9h-.6v3.8 7.2h.6c1 0 1.9-.9 1.9-1.9" fill="#62727a"/><g fill="#f15744"><path d="m61.4 36.6h-28.5l-3.8 3.8h-22.7v3.8h24.7l3.7-3.7h26.2c.2-1.2.3-2.5.4-3.9"/><path d="m52.6 25.9c0-.5-.4-.9-.9-.9h-3.3c-.5 0-.9-.4-.9-.9v-3.3c0-.5-.4-.9-.9-.9h-.9c-.5 0-.9.4-.9.9v3.2c0 .5-.4.9-.9.9h-3.3c-.5 0-.9.4-.9.9v.9c0 .5.4.9.9.9h3.3c.5 0 .9.4.9.9v3.5c0 .5.4.9.9.9h.9c.5 0 .9-.4.9-.9v-3.3c0-.5.4-.9.9-.9h3.3c.5 0 .9-.4.9-.9v-1"/></g><path d="m56.4 54.5c0-4.1-3.4-7.5-7.5-7.5-4.1 0-7.5 3.4-7.5 7.5 0 4.1 3.4 7.5 7.5 7.5 4.1 0 7.5-3.4 7.5-7.5" fill="#3e4347"/><path d="m48.9 50.2c2.4 0 4.3 1.9 4.3 4.3 0 2.4-1.9 4.3-4.3 4.3-2.4 0-4.3-1.9-4.3-4.3 0-2.4 1.9-4.3 4.3-4.3" fill="#dae3ea"/><g fill="#3e4347"><circle cx="48.9" cy="50.2" r="1.1"/><circle cx="45.2" cy="52.4" r="1.1"/><circle cx="45.2" cy="56.6" r="1.1"/><circle cx="48.9" cy="58.8" r="1.1"/><circle cx="52.6" cy="56.6" r="1.1"/><path d="m53.1 53.3c-.5.3-1.2.1-1.5-.4-.3-.5-.1-1.2.4-1.5.5-.3 1.2-.1 1.5.4s.1 1.2-.4 1.5"/></g><circle cx="48.9" cy="54.5" r="2.1" fill="#62727a"/><path d="m22.6 54.5c0-4.1-3.4-7.5-7.5-7.5-4.1 0-7.5 3.4-7.5 7.5 0 4.1 3.4 7.5 7.5 7.5 4.2 0 7.5-3.4 7.5-7.5" fill="#3e4347"/><path d="m19.4 54.5c0-2.4-1.9-4.3-4.3-4.3-2.4 0-4.3 1.9-4.3 4.3 0 2.4 1.9 4.3 4.3 4.3 2.4 0 4.3-1.9 4.3-4.3" fill="#dae3ea"/><g fill="#3e4347"><circle cx="15.1" cy="50.2" r="1.1"/><circle cx="11.4" cy="52.4" r="1.1"/><path d="m10.9 55.7c.5-.3 1.2-.1 1.5.4.3.5.1 1.2-.4 1.5-.5.3-1.2.1-1.5-.4-.3-.5-.1-1.2.4-1.5"/><circle cx="15.1" cy="58.8" r="1.1"/><circle cx="18.8" cy="56.6" r="1.1"/><circle cx="18.8" cy="52.4" r="1.1"/></g><circle cx="15.1" cy="54.5" r="2.1" fill="#62727a"/></svg>