<svg xmlns="http://www.w3.org/2000/svg" viewBox="0 0 64 64" enable-background="new 0 0 64 64"><g fill="#42ade2"><path d="m36.6 8.3l3.1-6.3-.8 7z"/><path d="M45.2 11.3 49.6 8 47 12.9z"/><path d="m27.8 8.3l-3.1-6.3.8 7z"/><path d="m19.2 11.3l-4.5-3.3 2.6 4.9z"/></g><path fill="#62696d" d="m16.7 19.2h30.6v2.4h-30.6z"/><path fill="#f15744" d="m13.6 16.4h12.2v3.6h-12.2z"/><path fill="#badede" d="m25.9 16.4h12.2v3.6h-12.2z"/><path fill="#42ade2" d="m38.1 16.4h12.2v3.6h-12.2z"/><g fill="#62696d"><path d="m12.2 35.2c0 0-6.2.6-8-.9-1.2-1-2-3.5-.9-4.6 1.3-1.3 5.7-.5 6.9.6 1.3 1.2 2 4.9 2 4.9"/><path d="m51.8 35.2c0 0 6.2.6 8-.9 1.2-1 2-3.5.9-4.6-1.3-1.3-5.7-.5-6.9.6-1.3 1.2-2 4.9-2 4.9"/></g><path d="m60.2 56.7h-56.4c0 0-1.3-14.6 0-15.5 10.7-7.3 8.9-19.6 11-19.6 0 0 6.7-.6 17.1-.6 10.4 0 17.1.6 17.1.6 2.4 0 .1 11.4 11 19.6 1.5 1 .2 15.5.2 15.5" fill="#3e4347"/><path d="m45.1 45.6c0-.7-.5-1.3-1.1-1.3h-23.9c-.6 0-1.1.6-1.1 1.3v7.1h26.1v-7.1" fill="#62696d"/><path d="m16.8 48.7c0 .7-.5 1.2-1.2 1.2l-8.8-.9c-.7 0-1.2-.5-1.2-1.2v-3.6c0-.7.5-1.2 1.2-1.2l8.8.9c.7 0 1.2.5 1.2 1.2v3.6" fill="#fff"/><path d="m8.7 49.2l-1.9-.2c-.7 0-1.2-.5-1.2-1.2v-3.6c0-.7.5-1.2 1.2-1.2l1.8.2v6z" fill="#ffce31"/><path d="m47.2 48.7c0 .7.5 1.2 1.2 1.2l8.8-.9c.7 0 1.2-.5 1.2-1.2v-3.6c0-.7-.5-1.2-1.2-1.2l-8.8 1c-.7 0-1.2.5-1.2 1.2v3.5" fill="#fff"/><path d="m55.3 49.2l1.8-.2c.7 0 1.2-.5 1.2-1.2v-3.6c0-.7-.5-1.2-1.2-1.2l-1.8.2v6" fill="#ffce31"/><g fill="#62696d"><path d="m11.7 34.4c0 0 5.1 2.9 7.5 7.2l-3.5 1.2c0 0-.5-3-4-8.4"/><path d="m52.3 34.4c0 0-5.1 2.9-7.5 7.2l3.5 1.2c0 0 .5-3 4-8.4"/></g><g fill="#3e4347"><path d="m16.9 60.6c0 .8-.5 1.4-1.2 1.4h-8.6c-.7 0-1.2-.6-1.2-1.4v-2.7h11v2.7"/><path d="m58.1 60.6c0 .8-.5 1.4-1.2 1.4h-8.6c-.7 0-1.2-.6-1.2-1.4v-2.7h11v2.7"/></g><path d="m62 57.3c0 .5-.5.8-1.2.8 0 0-12.2.8-28.8.8s-28.8-.7-28.8-.7c-.7 0-1.2-.4-1.2-.8v-4.9c0-.5.5-.8 1.2-.8 0 0 12.2.8 28.8.8s28.8-.8 28.8-.8c.7 0 1.2.4 1.2.8 0-.1 0 4.8 0 4.8" fill="#c5d0d8"/><g fill="#f15744"><ellipse cx="11.4" cy="55.3" rx="1.9" ry="1.9"/><ellipse cx="52.6" cy="55.3" rx="1.9" ry="1.9"/></g><path d="m49.8 33.4c0 0-8.4-.4-17.8-.4-9.3 0-17.8.4-17.8.4l2.5-9.5c0 0 6.6-.4 15.3-.4 8.7 0 15.3.4 15.3.4l2.5 9.5" fill="#b4d7ee"/><path fill="#ffce31" d="m24.5 54.4h15v5.6h-15z"/><g fill="#3e4347"><path d="m22.2 59.2c0 2-4 2-4 0v-8.8c0-2 4-2 4 0v8.8"/><path d="m45.8 59.2c0 2-4 2-4 0v-8.8c0-2 4-2 4 0v8.8"/></g><circle cx="43.8" cy="54.1" r="3.3" fill="#62696d"/><circle cx="43.8" cy="54.1" r="2.3" fill="#fff"/><circle cx="20.2" cy="54.1" r="3.3" fill="#62696d"/><circle cx="20.2" cy="54" r="2.3" fill="#fff"/><g fill="#c5d0d8"><circle cx="13.3" cy="46.7" r="2.6"/><circle cx="50.7" cy="46.7" r="2.6"/></g></svg>