<?xml version="1.0" encoding="UTF-8" standalone="no"?><svg xmlns:dc="http://purl.org/dc/elements/1.1/" xmlns:cc="http://creativecommons.org/ns#" xmlns:rdf="http://www.w3.org/1999/02/22-rdf-syntax-ns#" xmlns:svg="http://www.w3.org/2000/svg" xmlns="http://www.w3.org/2000/svg" viewBox="0 0 45 45" style="enable-background:new 0 0 45 45;" xml:space="preserve" version="1.1" id="svg2"><metadata id="metadata8"><rdf:RDF><cc:Work rdf:about=""><dc:format>image/svg+xml</dc:format><dc:type rdf:resource="http://purl.org/dc/dcmitype/StillImage"/></cc:Work></rdf:RDF></metadata><defs id="defs6"><clipPath id="clipPath16" clipPathUnits="userSpaceOnUse"><path id="path18" d="M 0,36 36,36 36,0 0,0 0,36 Z"/></clipPath></defs><g transform="matrix(1.25,0,0,-1.25,0,45)" id="g10"><g id="g12"><g clip-path="url(#clipPath16)" id="g14"><g transform="translate(30,20)" id="g20"><path id="path22" style="fill:#58595b;fill-opacity:1;fill-rule:nonzero;stroke:none" d="m 0,0 c 0,-1.104 -0.895,-2 -2,-2 l -10,0 c -1.104,0 -2,0.896 -2,2 l 0,2 c 0,1.105 0.896,2 2,2 L -2,4 C -0.895,4 0,3.105 0,2 L 0,0 Z"/></g><g transform="translate(4,22)" id="g24"><path id="path26" style="fill:#f4900c;fill-opacity:1;fill-rule:nonzero;stroke:none" d="m 0,0 c -2.209,0 -4,-1.791 -4,-4 l 0,-10 c 0,-4.418 3.582,-8 8,-8 l 28,0 0,22 -32,0 z"/></g><g transform="translate(0.5869,5)" id="g28"><path id="path30" style="fill:#ffd983;fill-opacity:1;fill-rule:nonzero;stroke:none" d="m 0,0 35.413,0 0,2 -35.931,0 C -0.431,1.302 -0.255,0.631 0,0"/></g><path id="path32" style="fill:#808285;fill-opacity:1;fill-rule:nonzero;stroke:none" d="m 36,28 -36,0 0,6 36,0 0,-6 z"/><path id="path34" style="fill:#414042;fill-opacity:1;fill-rule:nonzero;stroke:none" d="m 36,30 -36,0 0,2 36,0 0,-2 z"/><g transform="translate(28,36)" id="g36"><path id="path38" style="fill:#a7a9ac;fill-opacity:1;fill-rule:nonzero;stroke:none" d="m 0,0 -10,0 c -1.657,0 -3,-1.343 -3,-3 0,-1.657 1.343,-3 3,-3 l 3,0 0,-4 -2,-2 8,0 -2,2 0,4 3,0 c 1.657,0 3,1.343 3,3 0,1.657 -1.343,3 -3,3"/></g><path id="path40" style="fill:#3b88c3;fill-opacity:1;fill-rule:nonzero;stroke:none" d="M 14,7 36,7 36,22 14,22 14,7 Z"/><g transform="translate(12,11)" id="g42"><path id="path44" style="fill:#58595b;fill-opacity:1;fill-rule:nonzero;stroke:none" d="m 0,0 c 0,-1.104 -0.895,-2 -2,-2 l -4,0 c -1.104,0 -2,0.896 -2,2 l 0,6 c 0,1.105 0.896,2 2,2 l 4,0 C -0.895,8 0,7.105 0,6 L 0,0 Z"/></g><g transform="translate(24,13)" id="g46"><path id="path48" style="fill:#414042;fill-opacity:1;fill-rule:nonzero;stroke:none" d="m 0,0 c 0,-1.104 -0.895,-2 -2,-2 l -4,0 c -1.104,0 -2,0.896 -2,2 l 0,4 c 0,1.105 0.896,2 2,2 l 4,0 C -0.895,6 0,5.105 0,4 L 0,0 Z"/></g><g transform="translate(34,13)" id="g50"><path id="path52" style="fill:#414042;fill-opacity:1;fill-rule:nonzero;stroke:none" d="m 0,0 c 0,-1.104 -0.895,-2 -2,-2 l -4,0 c -1.104,0 -2,0.896 -2,2 l 0,4 c 0,1.105 0.896,2 2,2 l 4,0 C -0.895,6 0,5.105 0,4 L 0,0 Z"/></g><g transform="translate(0,19)" id="g54"><path id="path56" style="fill:#58595b;fill-opacity:1;fill-rule:nonzero;stroke:none" d="m 0,0 0,-10 c 1.104,0 2,0.896 2,2 l 0,6 C 2,-0.895 1.104,0 0,0"/></g></g></g></g></svg>
