<?xml version="1.0" encoding="UTF-8" standalone="no"?><svg xmlns:dc="http://purl.org/dc/elements/1.1/" xmlns:cc="http://creativecommons.org/ns#" xmlns:rdf="http://www.w3.org/1999/02/22-rdf-syntax-ns#" xmlns:svg="http://www.w3.org/2000/svg" xmlns="http://www.w3.org/2000/svg" viewBox="0 0 45 45" style="enable-background:new 0 0 45 45;" xml:space="preserve" version="1.1" id="svg2"><metadata id="metadata8"><rdf:RDF><cc:Work rdf:about=""><dc:format>image/svg+xml</dc:format><dc:type rdf:resource="http://purl.org/dc/dcmitype/StillImage"/></cc:Work></rdf:RDF></metadata><defs id="defs6"><clipPath id="clipPath16" clipPathUnits="userSpaceOnUse"><path id="path18" d="M 0,36 36,36 36,0 0,0 0,36 Z"/></clipPath></defs><g transform="matrix(1.25,0,0,-1.25,0,45)" id="g10"><g id="g12"><g clip-path="url(#clipPath16)" id="g14"><g transform="translate(34,3)" id="g20"><path id="path22" style="fill:#66757f;fill-opacity:1;fill-rule:nonzero;stroke:none" d="m 0,0 c 0,-1.105 -0.895,-2 -2,-2 l -3,0 c -1.104,0 -2,0.895 -2,2 l 0,8 c 0,1.105 0.896,2 2,2 l 3,0 C -0.895,10 0,9.105 0,8 L 0,0 Z"/></g><g transform="translate(9,3)" id="g24"><path id="path26" style="fill:#66757f;fill-opacity:1;fill-rule:nonzero;stroke:none" d="m 0,0 c 0,-1.105 -0.896,-2 -2,-2 l -3,0 c -1.104,0 -2,0.895 -2,2 l 0,8 c 0,1.105 0.896,2 2,2 l 3,0 C -0.896,10 0,9.105 0,8 L 0,0 Z"/></g><g transform="translate(5,20.5)" id="g28"><path id="path30" style="fill:#66757f;fill-opacity:1;fill-rule:nonzero;stroke:none" d="m 0,0 c 0,-0.829 -0.671,-1.5 -1.5,-1.5 l -2,0 c -0.829,0 -1.5,0.671 -1.5,1.5 0,0.829 0.671,1.5 1.5,1.5 l 2,0 C -0.671,1.5 0,0.829 0,0"/></g><g transform="translate(31,20.5)" id="g32"><path id="path34" style="fill:#66757f;fill-opacity:1;fill-rule:nonzero;stroke:none" d="m 0,0 c 0,-0.829 0.672,-1.5 1.5,-1.5 l 2,0 C 4.328,-1.5 5,-0.829 5,0 5,0.829 4.328,1.5 3.5,1.5 l -2,0 C 0.672,1.5 0,0.829 0,0"/></g><g transform="translate(9,31)" id="g36"><path id="path38" style="fill:#ccd6dd;fill-opacity:1;fill-rule:nonzero;stroke:none" d="m 0,0 c 4,1 14,1 18,0 3.881,-0.97 5,-11 5,-11 0,0 2,0 2,-4 l 0,-8 c 0,0 0,-3 -3,-4 -3.911,-1.304 -8,-1 -13,-1 -5,0 -9.088,-0.304 -13,1 -3,1 -3,4 -3,4 l 0,8 c 0,0 0,4 2,4 0,0 1.12,10.03 5,11"/></g><g transform="translate(18,15)" id="g40"><path id="path42" style="fill:#292f33;fill-opacity:1;fill-rule:nonzero;stroke:none" d="M 0,0 C -5.718,0 -11.136,0.101 -16,0.279 L -16,-7 c 0,0 0,-3 3,-4 3.912,-1.304 8,-1 13,-1 5,0 9.089,-0.304 13,1 3,1 3,4 3,4 l 0,7.279 C 11.136,0.101 5.718,0 0,0"/></g><g transform="translate(18,21)" id="g44"><path id="path46" style="fill:#55acee;fill-opacity:1;fill-rule:nonzero;stroke:none" d="M 0,0 C 3.905,0 8.623,-0.2 12,-0.561 L 11,5 C 10,8 4,8 0,8 -4,8 -10,8 -11,5 l -1,-5.561 C -8.623,-0.2 -3.905,0 0,0"/></g><g transform="translate(12,12)" id="g48"><path id="path50" style="fill:#ccd6dd;fill-opacity:1;fill-rule:nonzero;stroke:none" d="m 0,0 c 0,-1.104 -0.895,-2 -2,-2 l -4,0 c -1.104,0 -2,0.896 -2,2 0,1.105 0.896,2 2,2 l 4,0 C -0.895,2 0,1.105 0,0"/></g><g transform="translate(24,12)" id="g52"><path id="path54" style="fill:#ccd6dd;fill-opacity:1;fill-rule:nonzero;stroke:none" d="m 0,0 c 0,-1.104 0.896,-2 2,-2 l 4,0 C 7.105,-2 8,-1.104 8,0 8,1.105 7.105,2 6,2 L 2,2 C 0.896,2 0,1.105 0,0"/></g><g transform="translate(29,7.5)" id="g56"><path id="path58" style="fill:#66757f;fill-opacity:1;fill-rule:nonzero;stroke:none" d="m 0,0 c 0,-0.828 -0.672,-1.5 -1.5,-1.5 l -19,0 c -0.829,0 -1.5,0.672 -1.5,1.5 0,0.828 0.671,1.5 1.5,1.5 l 19,0 C -0.672,1.5 0,0.828 0,0"/></g><g transform="translate(11.999,15)" id="g60"><path id="path62" style="fill:#99aab5;fill-opacity:1;fill-rule:nonzero;stroke:none" d="m 0,0 c -0.15,0 -0.303,0.034 -0.446,0.105 l -6,3 c -0.494,0.248 -0.695,0.848 -0.448,1.342 0.247,0.494 0.847,0.696 1.342,0.448 l 6,-3 C 0.942,1.648 1.143,1.047 0.896,0.553 0.72,0.202 0.367,0 0,0"/></g><g transform="translate(24.001,15)" id="g64"><path id="path66" style="fill:#99aab5;fill-opacity:1;fill-rule:nonzero;stroke:none" d="m 0,0 c -0.367,0 -0.72,0.202 -0.896,0.553 -0.247,0.494 -0.046,1.095 0.448,1.342 l 6,3 C 6.046,5.141 6.645,4.941 6.893,4.447 7.141,3.953 6.94,3.353 6.446,3.105 l -6,-3 C 0.303,0.034 0.15,0 0,0"/></g><g transform="translate(18,32.5)" id="g68"><path id="path70" style="fill:#dd2e44;fill-opacity:1;fill-rule:nonzero;stroke:none" d="m 0,0 c 0,-0.829 -0.671,-1.5 -1.5,-1.5 l -7,0 c -0.829,0 -1.5,0.671 -1.5,1.5 0,0.829 0.671,1.5 1.5,1.5 l 7,0 C -0.671,1.5 0,0.829 0,0"/></g><g transform="translate(28,32.5)" id="g72"><path id="path74" style="fill:#55acee;fill-opacity:1;fill-rule:nonzero;stroke:none" d="m 0,0 c 0,-0.829 -0.672,-1.5 -1.5,-1.5 l -7,0 c -0.829,0 -1.5,0.671 -1.5,1.5 0,0.829 0.671,1.5 1.5,1.5 l 7,0 C -0.672,1.5 0,0.829 0,0"/></g><path id="path76" style="fill:#f5f8fa;fill-opacity:1;fill-rule:nonzero;stroke:none" d="m 20,31 -4,0 0,3 4,0 0,-3 z"/></g></g></g></svg>
