<svg xmlns="http://www.w3.org/2000/svg" viewBox="0 0 36 36"><path fill="#CCD6DD" d="M35 12c0-1-1-4-4-4H9.401c-1.377 0-3.29 1.791-4.302 4L2 17c-1.453.599-2 2.331-2 4v6a4 4 0 0 0 4 4h28a4 4 0 0 0 4-4v-8c0-1.027-1-7-1-7z"/><path fill="#E1E8ED" d="M9 25a5.997 5.997 0 0 0-5.993 5.861c.32.081.648.139.993.139h11a6 6 0 0 0-6-6zm23.993 5.86A5.996 5.996 0 0 0 27 25c-3.312 0-6 2.687-6 6h11c.345 0 .674-.058.993-.14z"/><circle cx="9" cy="31" r="4" fill="#292F33"/><circle cx="9" cy="31" r="2" fill="#99AAB5"/><circle cx="27" cy="31" r="4" fill="#292F33"/><circle cx="27" cy="31" r="2" fill="#99AAB5"/><path fill="#DD2E44" d="M0 21h36v3H0v-3Z"/><path fill="#55ACEE" d="M8 10h5v7H4z"/><path fill="#DD2E44" d="M17 6.5A1.5 1.5 0 0 1 15.5 8h-4a1.5 1.5 0 1 1 0-3h4A1.5 1.5 0 0 1 17 6.5Z"/><path fill="#BE1931" d="M18 6.5A1.5 1.5 0 0 1 16.5 8h-1a1.5 1.5 0 1 1 0-3h1A1.5 1.5 0 0 1 18 6.5Z"/><path fill="#3B88C3" d="M26 10v2.27l-1.965-1.135-1 1.73L25.002 14l-1.967 1.135 1 1.73L26 15.731V18h2v-2.27l1.965 1.135 1-1.73L28.998 14l1.967-1.135-1-1.73L28 12.27V10h-2Z"/></svg>