<?xml version="1.0" encoding="utf-8"?>
<!-- Generator: Adobe Illustrator 25.2.3, SVG Export Plug-In . SVG Version: 6.00 Build 0)  -->
<svg version="1.1" id="Layer_2" xmlns="http://www.w3.org/2000/svg" xmlns:xlink="http://www.w3.org/1999/xlink" x="0px" y="0px"
	 viewBox="0 0 128 128" style="enable-background:new 0 0 128 128;" xml:space="preserve">
<g>
	<path style="fill:#F4511E;" d="M92.46,65.95H42.29l-7.8,5.78l0.14,35.77c0,8.51,8.41,12.14,9.72,12.72h46.08
		c1.31-0.58,9.72-4.2,9.72-12.72l0.14-35.77L92.46,65.95z"/>
	<path style="fill:#C62828;" d="M44.12,120.09c0,0,4.44,3.41,11.11,3.41c3.54,0,20.75,0,24.29,0c6.67,0,11.11-3.41,11.11-3.41H44.12
		z"/>
	<path style="fill:#E0E0E0;" d="M100.27,82.99c0,0-0.02-10.3-0.02-11.33c0-2.14-6.86-5.79-8.67-5.79H43.22
		c-1.81,0-8.73,3.87-8.73,6.01c0,1.02,0.03,11.1,0.03,11.1H100.27z"/>
	<path style="fill:#607D8B;" d="M79.14,64.56H55.69c-1.62,0-2.93-1.31-2.93-2.93v0c0-1.62,1.31-2.93,2.93-2.93h23.45
		c1.62,0,2.93,1.31,2.93,2.93v0C82.07,63.25,80.76,64.56,79.14,64.56z"/>
	<path style="fill:#82AEC0;" d="M48.6,62.42c3.83,0,32.97,0,37.04,0c4.08,0,6.6,3.41,6.6,3.41H42.51
		C42.51,65.83,44.77,62.42,48.6,62.42z"/>
	<g>
		<path style="fill:#F4511E;stroke:#C62828;stroke-width:2;stroke-miterlimit:10;" d="M59.69,120.99h16.5c1.83,0,3.3-1.48,3.3-3.3
			V77.76c0-2.2-1.78-3.97-3.97-3.97H59.69c-1.9,0-3.45,1.54-3.45,3.45v40.31C56.24,119.45,57.78,120.99,59.69,120.99z"/>
	</g>
	<g>
		<polygon style="fill:#9E9E9E;" points="4,4.66 4,8.74 124,34.88 124,30.79 		"/>
		<path style="fill:#607D8B;" d="M92.16,15.46L34.1,3.97c-1.12-0.23-2.2,0.58-2.26,1.73c-0.13,2.46-1.09,5.97,4.88,7.19
			c6.71,1.37,13.96,3.35,13.96,3.35c3.43,0.7,5.83,3.62,6.02,6.96c0.06,1.16,0.89,2.14,2.03,2.37l4.15,0.85
			c1.14,0.23,2.28-0.34,2.8-1.39c1.48-3,4.84-4.74,8.26-4.04c0,0,7.45,1.01,14.15,2.38c5.98,1.22,7.98,1.44,7.98,1.44
			S97.7,16.82,92.16,15.46z"/>
		<circle style="fill:#37474F;" cx="50.53" cy="13.37" r="5.32"/>
		<circle style="fill:#37474F;" cx="38.92" cy="11" r="5.32"/>
		<circle style="fill:#37474F;" cx="87.12" cy="20.83" r="5.32"/>
		<circle style="fill:#37474F;" cx="75.51" cy="18.46" r="5.32"/>
		<circle style="fill:#82AEC0;" cx="50.06" cy="15.65" r="5.32"/>
		<circle style="fill:#82AEC0;" cx="38.45" cy="13.28" r="5.32"/>
		<circle style="fill:#82AEC0;" cx="87" cy="23.19" r="5.32"/>
		<circle style="fill:#82AEC0;" cx="75.39" cy="20.82" r="5.32"/>
		<path style="fill:none;stroke:#94D1E0;stroke-width:2;stroke-miterlimit:10;" d="M35.15,12.29c0.25-0.74,0.77-1.39,1.44-1.8
			c0.67-0.41,1.49-0.57,2.26-0.44"/>
		<path style="fill:none;stroke:#94D1E0;stroke-width:2;stroke-miterlimit:10;" d="M46.73,14.47c0.82-1.23,2.32-1.98,3.8-1.91"/>
		<path style="fill:none;stroke:#94D1E0;stroke-width:2;stroke-miterlimit:10;" d="M72.05,19.08c0.58-1.45,2.19-2.41,3.75-2.24"/>
		<path style="fill:none;stroke:#94D1E0;stroke-width:2;stroke-miterlimit:10;" d="M83.89,21.5c0.68-1.41,2.49-2.17,3.98-1.67"/>
	</g>
	<path style="fill:#FFFFFF;" d="M41.52,68.85c1.51-2.23,3.45-2,4.68-2h11.1c0.63,0,0.94,1.13,0.5,1.78l-0.15,0.22
		c-1,1.49-2.37,2.3-3.79,2.26l-9.33-0.32C44.14,70.78,40.02,71.08,41.52,68.85z"/>
	<path style="fill:#607D8B;" d="M69.82,60.94c-3.53-0.09-8.81-1.49-11.91-6.79c-2.36-4.05-3.95-8.49-3.07-16.09
		s4.6-15.81,4.07-22.65h7c-0.19,11.21-3.7,17.72-4.17,24.84c-0.48,7.12,1.76,12.23,9.48,15.34c3.57,1.44,3.35,3.69,3.35,3.69
		L69.82,60.94z"/>
	<path style="fill:#37474F;" d="M62.66,58.8h11.91c0,0-0.47-2.23-5.49-2.79C64.05,55.45,62.66,58.8,62.66,58.8z"/>
	<path style="fill:#37474F;" d="M82.68,104.65V79.92c0-1.58,1.28-2.85,2.85-2.85h14.74l-0.18,30.43H85.53
		C83.96,107.5,82.68,106.22,82.68,104.65z"/>
	<g>
		<path style="fill:#BAE2FD;" d="M84.34,102.57V81.76c0-1.19,0.95-2.15,2.13-2.15l13.78-0.09l-0.15,25.2H86.47
			C85.29,104.71,84.34,103.75,84.34,102.57z"/>
	</g>
	<path style="fill:#37474F;" d="M52.08,104.65V79.92c0-1.58-1.28-2.85-2.85-2.85H34.49l0.18,30.43h14.55
		C50.8,107.5,52.08,106.22,52.08,104.65z"/>
	<g>
		<path style="fill:#BAE2FD;" d="M50.41,102.57V81.76c0-1.19-0.95-2.15-2.13-2.15l-13.78-0.09l0.15,25.2h13.63
			C49.46,104.71,50.41,103.75,50.41,102.57z"/>
	</g>
	<path style="fill:#37474F;" d="M73.48,77.03h-11.9c-1.47,0-2.66,1.19-2.66,2.66v25.01c0,1.47,1.19,2.66,2.66,2.66h11.9
		c1.47,0,2.66-1.19,2.66-2.66V79.69C76.13,78.22,74.94,77.03,73.48,77.03z"/>
	<g>
		<path style="fill:#BAE2FD;" d="M72.36,79.64h-9.67c-1.1,0-2,0.9-2,2v21.1c0,1.1,0.9,2,2,2h9.67c1.1,0,2-0.9,2-2v-21.1
			C74.36,80.54,73.47,79.64,72.36,79.64z"/>
	</g>
</g>
</svg>
