<?xml version="1.0" encoding="UTF-8" standalone="no"?><svg xmlns:dc="http://purl.org/dc/elements/1.1/" xmlns:cc="http://creativecommons.org/ns#" xmlns:rdf="http://www.w3.org/1999/02/22-rdf-syntax-ns#" xmlns:svg="http://www.w3.org/2000/svg" xmlns="http://www.w3.org/2000/svg" viewBox="0 0 45 45" style="enable-background:new 0 0 45 45;" xml:space="preserve" version="1.1" id="svg2"><metadata id="metadata8"><rdf:RDF><cc:Work rdf:about=""><dc:format>image/svg+xml</dc:format><dc:type rdf:resource="http://purl.org/dc/dcmitype/StillImage"/></cc:Work></rdf:RDF></metadata><defs id="defs6"><clipPath id="clipPath20" clipPathUnits="userSpaceOnUse"><path id="path22" d="M 0,36 36,36 36,0 0,0 0,36 Z"/></clipPath></defs><g transform="matrix(1.25,0,0,-1.25,0,45)" id="g10"><g transform="translate(33,9)" id="g12"><path id="path14" style="fill:#5c913b;fill-opacity:1;fill-rule:nonzero;stroke:none" d="M 0,0 -2,0 -1,8 1,8 0,0 Z"/></g><g id="g16"><g clip-path="url(#clipPath20)" id="g18"><g transform="translate(1,21.9995)" id="g24"><path id="path26" style="fill:#dd2e44;fill-opacity:1;fill-rule:nonzero;stroke:none" d="m 0,0 c 9.055,-0.053 11,-1 17,-2 2.959,-0.493 7,-0.999 11,-0.999 2,0 4,-1 4,-4 0,-2 0.534,-3.187 -5.433,-3.815 C 22.59,-11.233 12,-8.999 8,-6.999 2,-4 -1,0.006 0,0"/></g><path id="path28" style="fill:#55acee;fill-opacity:1;fill-rule:nonzero;stroke:none" d="M 36,12 0,12 0,0 36,0 36,12 Z"/><g transform="translate(5,22.9995)" id="g30"><path id="path32" style="fill:#ffcc4d;fill-opacity:1;fill-rule:nonzero;stroke:none" d="m 0,0 c 4,0 11,0 18,-1 7,-1 10,-0.999 10,-2.999 l 0,-3 c 0,-1.415 -6.869,-0.448 -10,0 -7,1 -14,3 -18,3.999 -4.047,1.011 -7,3 0,3"/></g><g transform="translate(30.5918,11.6777)" id="g34"><path id="path36" style="fill:#a0041e;fill-opacity:1;fill-rule:nonzero;stroke:none" d="M 0,0 C 2.122,0.539 2.403,1.307 2.418,2.361 1.155,1.742 -1.281,2.041 -3.468,2.314 c -7.96,0.996 -16.481,2.936 -24.721,5.609 1.043,-1.04 2.584,-2.29 4.568,-3.484 C -16.915,2.538 -10.137,1.133 -3.716,0.33 -2.458,0.173 -1.186,0.019 0,0"/></g><g transform="translate(12,12)" id="g38"><path id="path40" style="fill:#55acee;fill-opacity:1;fill-rule:nonzero;stroke:none" d="M 0,0 C 3,2 7,5 6,3 5,1 4.999,0 7,1 c 2,1 5,2 4,0 -1,-2 2,-1 3,0 1,1 4,0 3,-1 C 16,-1 8,-2 5,-2 2,-2 0,0 0,0"/></g><g transform="translate(34,20)" id="g42"><path id="path44" style="fill:#5c913b;fill-opacity:1;fill-rule:nonzero;stroke:none" d="m 0,0 -1,0 c -1.104,0 -2,-0.895 -2,-2 l 1,0 c 0.553,0 1,-0.447 1,-1 l 0,-1 1,0 c 1.105,0 2,-0.104 2,1 0,1.105 -0.895,3 -2,3"/></g><g transform="translate(30,19.9995)" id="g46"><path id="path48" style="fill:#c1694f;fill-opacity:1;fill-rule:nonzero;stroke:none" d="M 0,0 C 0.97,-0.243 0,-1.999 -1,-2.999 -2,-3.999 -11,-2 -11,-2 l 2,3 c 0,0 5,0 9,-1"/></g><g transform="translate(29,17)" id="g50"><path id="path52" style="fill:#a0041e;fill-opacity:1;fill-rule:nonzero;stroke:none" d="M 0,0 C 0.328,0.328 0.645,0.737 0.899,1.148 -0.575,1.911 -2.73,2.533 -5.18,2.812 -6.429,2.954 -7.621,2.99 -8.707,2.939 L -10,0.999 C -10,0.999 -1,-1 0,0"/></g><g transform="translate(21,21)" id="g54"><path id="path56" style="fill:#55acee;fill-opacity:1;fill-rule:nonzero;stroke:none" d="m 0,0 0,1 -4,-1.001 -2,-2 4,-1 L 0,0 Z"/></g><g transform="translate(23,21.9995)" id="g58"><path id="path60" style="fill:#292f33;fill-opacity:1;fill-rule:nonzero;stroke:none" d="m 0,0 c -0.553,0 -1,-1.343 -1,-2.999 0,-0.613 0.062,-1.182 0.167,-1.656 0.502,-0.128 1.035,-0.221 1.592,-0.278 C 0.907,-4.41 1,-3.74 1,-2.999 1,-1.343 0.553,0 0,0"/></g></g></g></g></svg>
