<svg xmlns="http://www.w3.org/2000/svg" viewBox="0 0 64 64" enable-background="new 0 0 64 64"><path d="m58.2 35.8c0 8-6.5 14.5-14.5 14.5v-14.5h14.5" fill="#9e958f"/><path d="m59.3 3.3h-9.8c-.8 0-1.5.7-1.5 1.3v29.9c0 .6.7 1.6 1.5 1.6h9.8c.8 0 1.5-1 1.5-1.6v-29.9c0-.5-.7-1.3-1.5-1.3" fill="#e2d8c7"/><g fill="#c6bbb3"><path d="m60.3 0h-11.8c-1 0-1.8.9-1.8 1.6v1.9c0 .7.8 1.9 1.8 1.9h11.9c1 0 1.8-1.3 1.8-1.9v-1.9c0-.7-.9-1.6-1.9-1.6"/><path d="m44 52c0-2.5.6-4.8 1.8-6.9h-35.3c1.1 2 1.8 4.4 1.8 6.9 0 4.7-2.3 7.9-5.8 10.5h43.4c-3.7-2.6-5.9-5.8-5.9-10.5"/></g><g fill="#e2d8c7"><path d="m51 62.5c0 .8-.7 1.5-1.5 1.5h-42.7c-.8 0-1.5-.7-1.5-1.5 0-.8.7-1.5 1.5-1.5h42.7c.8 0 1.5.7 1.5 1.5"/><path d="m28.1 53.8c12.6 0 22.9-8 22.9-18h-45.8c0 10 10.3 18 22.9 18"/></g><path d="m48.7 35.1c0 1-.7 1.8-1.5 1.8h-43.8c-.8 0-1.5-.8-1.5-1.8 0-1 .7-1.8 1.5-1.8h43.8c.8 0 1.5.8 1.5 1.8" fill="#c6bbb3"/><path d="m48.7 31.4c0 1-.7 1.8-1.5 1.8h-43.8c-.8 0-1.5-.8-1.5-1.8 0-1 .7-1.8 1.5-1.8h43.8c.8 0 1.5.8 1.5 1.8" fill="#42ade2"/><g fill="#636a6b"><circle cx="48" cy="33.5" r="3"/><path d="m58 7.4c0 2-1.6 3.6-3.6 3.6s-3.6-1.6-3.6-3.6h7.2"/></g></svg>