<?xml version="1.0" encoding="utf-8"?>
<!-- Generator: Adobe Illustrator 25.2.3, SVG Export Plug-In . SVG Version: 6.00 Build 0)  -->
<svg version="1.1" id="Layer_1" xmlns="http://www.w3.org/2000/svg" xmlns:xlink="http://www.w3.org/1999/xlink" x="0px" y="0px"
	 viewBox="0 0 128 128" style="enable-background:new 0 0 128 128;" xml:space="preserve">
<g>
	<path style="fill:#CC3333;" d="M64,4C30.86,4,4,30.86,4,64s26.86,60,60,60s60-26.86,60-60S97.14,4,64,4z M114,64
		c0.04,11.53-3.96,22.71-11.3,31.6L32.4,25.3C41.29,17.96,52.47,13.96,64,14C91.61,14,114,36.39,114,64z M14,64
		c-0.04-11.53,3.96-22.71,11.3-31.6l70.3,70.3c-8.89,7.34-20.07,11.34-31.6,11.3C36.39,114,14,91.61,14,64z"/>
	<circle style="fill:#F44336;" cx="60.1" cy="63.1" r="56.1"/>
	<path style="fill:#FFFFFF;" d="M95.6,102.7c-8.89,7.34-20.07,11.34-31.6,11.3c-27.61,0-50-22.39-50-50
		c-0.04-11.53,3.96-22.71,11.3-31.6l7.1-7.1C41.29,17.96,52.47,13.96,64,14c27.61,0,50,22.39,50,50c0.04,11.53-3.96,22.71-11.3,31.6
		"/>
	<path style="fill:#231F20;" d="M95.6,102.7c-8.89,7.34-20.07,11.34-31.6,11.3c-27.61,0-50-22.39-50-50
		c-0.04-11.53,3.96-22.71,11.3-31.6l7.1-7.1C41.29,17.96,52.47,13.96,64,14c27.61,0,50,22.39,50,50c0.04,11.53-3.96,22.71-11.3,31.6
		"/>
	<path style="fill:#414042;" d="M96.4,103.2c-20.49,16.74-50.66,13.7-67.4-6.79C14.59,78.78,14.59,53.44,29,35.8l6.8-6.8
		c8.53-7.03,19.25-10.85,30.3-10.8c26.45,0,47.9,21.44,47.9,47.9c0,11.04-3.82,21.75-10.8,30.3"/>
	<path style="fill:#FAFAFA;" d="M101.3,63.1c-3.28-3.62-7.91-5.72-12.8-5.8L86,48.4c-0.23-0.81-0.96-1.38-1.8-1.4h-3.5
		c-0.2,0-0.3-0.1-0.3-0.2s-0.1-0.2,0-0.4l1.5-3.3c0.1-0.1,0.2-0.2,0.3-0.2c0.61-0.12,1.18-0.36,1.7-0.7l4.9-3.3h0.1
		c0.63-0.72,0.78-1.73,0.4-2.6c-0.37-0.88-1.25-1.43-2.2-1.4H73.4c-1.03-0.03-1.96,0.62-2.3,1.6c-0.31,0.98,0.01,2.05,0.8,2.7h0.2
		l5.7,2.3c0.11,0.01,0.19,0.09,0.2,0.2V42l-2.1,4.7c-0.1,0.2-0.2,0.2-0.4,0.2H57.9c0,0-6.5-0.3-6.5-5.6s9.3-5.6,9.4-5.6
		c1.06-0.01,1.91-0.88,1.9-1.94c0-0.02,0-0.04,0-0.06c0.03-1.02-0.76-1.87-1.78-1.9c-0.04,0-0.08,0-0.12,0l0,0
		c-2.1,0.1-4.19,0.47-6.2,1.1c-5.7,2-6.9,5.6-6.9,8.3c-0.03,1.86,0.61,3.67,1.8,5.1l-4.8,11.1c-0.1,0.2-0.2,0.2-0.4,0.2h-0.1
		c-1.43-0.4-2.91-0.6-4.4-0.6c-0.84,0.02-1.67,0.08-2.5,0.2c-7.94,1.17-14.05,7.61-14.8,15.6c-0.47,4.87,1.17,9.71,4.5,13.3
		c3.29,3.6,7.93,5.66,12.8,5.7c0.6,0.02,1.2-0.02,1.8-0.1c9.54-1.02,16.45-9.58,15.43-19.13c-0.59-5.5-3.76-10.39-8.53-13.17
		c-0.19-0.07-0.28-0.29-0.21-0.48c0-0.01,0.01-0.01,0.01-0.02l4.2-9.8c0.1-0.2,0.2-0.3,0.4-0.3h0.2c0.9,0.4,2.2,0.9,3.1,1.2
		c0.1,0,0.2,0.1,0.2,0.3l7.3,25.2c0.13,0.32,0.3,0.62,0.5,0.9c0.1,0.1,0.2,0.2,0.3,0.2c0.06,0,0.1,0.04,0.1,0.1
		c0.08,0.08,0.19,0.11,0.3,0.1h6.3c1.18,8.6,8.52,15,17.2,15c0.47,0.02,0.94-0.02,1.4-0.1c9.46-0.7,16.55-8.94,15.85-18.39
		C105.37,69.52,103.84,65.93,101.3,63.1z M75.2,77.2c0.1-0.1,0.2-0.2,0.3-0.2h16.1c1.1-0.07,1.93-1.03,1.86-2.13
		c-0.01-0.12-0.03-0.25-0.06-0.37l-3.7-12.8c-0.1-0.2,0-0.3,0.1-0.4s0.2-0.2,0.3-0.2h0.1c7.39,1.06,12.53,7.91,11.47,15.3
		c-0.94,6.54-6.46,11.45-13.07,11.6h-0.3c-6.32-0.06-11.78-4.44-13.2-10.6C75.11,77.32,75.14,77.25,75.2,77.2z M88.8,73
		c-0.1,0.1-0.2,0.2-0.3,0.2H75.4c-0.11,0-0.22-0.03-0.3-0.1c-0.07-0.12-0.1-0.26-0.1-0.4c0.83-5.52,4.96-9.96,10.4-11.2h0.1
		c0.2,0,0.3,0.1,0.4,0.3L89,72.7C89,72.8,88.9,72.9,88.8,73z M84.2,57.8c-7.12,1.69-12.38,7.72-13.1,15
		c-0.01,0.21-0.19,0.39-0.4,0.4c-0.53,0.02-1.03-0.25-1.3-0.7c-0.28-0.42-0.32-0.95-0.1-1.4l8.9-20c0.1-0.2,0.2-0.2,0.4-0.2h3.8
		c0.2,0,0.3,0.1,0.4,0.3l1.8,6.1v0.3C84.4,57.7,84.3,57.8,84.2,57.8z M73.8,51.4l-7.6,17.1c-0.08,0.14-0.24,0.22-0.4,0.2
		c-0.2,0-0.3-0.1-0.4-0.3l-5-17.1c-0.01-0.14,0.02-0.28,0.1-0.4c0.1-0.1,0.2-0.2,0.3-0.2h12.5c0.2,0,0.3,0.1,0.3,0.2
		S73.9,51.2,73.8,51.4z M42.7,62l-5.3,12.4c-0.42,0.94,0,2.05,0.94,2.47c0.02,0.01,0.04,0.02,0.06,0.03c0.26,0.08,0.53,0.11,0.8,0.1
		c0.78-0.01,1.49-0.48,1.8-1.2l5.3-12.4c0.1-0.2,0.2-0.3,0.4-0.3s0.2,0,0.2,0.1c6.3,3.97,8.19,12.31,4.21,18.61
		c-2.47,3.92-6.78,6.29-11.41,6.29H39c-6.95-0.4-12.5-5.95-12.9-12.9c-0.22-3.7,1.13-7.33,3.7-10c2.56-2.68,6.1-4.2,9.8-4.2
		c0.94,0,1.88,0.1,2.8,0.3c0.2,0,0.2,0.2,0.3,0.2C42.8,61.65,42.81,61.85,42.7,62z"/>
	<polyline style="opacity:0.8;fill:#231F20;enable-background:new    ;" points="23.4,35.6 95,102.1 97,100.2 30.6,33.4 	"/>
	<path style="fill:#F44336;" d="M103.9,96.8L25.3,18.9L18.2,26l78.6,77.9"/>
	<path style="fill:#FF8A80;" d="M45,10.9c1.7-0.4,4.2-1.6,5.9-1.1c1.09,0.3,1.75,1.4,1.5,2.5c-0.37,0.81-1.12,1.37-2,1.5
		c-3.9,0.97-7.68,2.35-11.3,4.1c-7.18,3.78-13.38,9.19-18.1,15.8c-1.9,2.7-3.4,5.5-5.8,7.8c-0.21,0.23-0.49,0.37-0.8,0.4
		c-0.17,0.03-0.35-0.01-0.5-0.1c-1.2-0.5-1.4-1.1-1.2-2.3c0.18-1.01,0.52-1.99,1-2.9c1.01-1.76,2.11-3.46,3.3-5.1
		c1.89-2.91,4.11-5.59,6.6-8C30.4,17.2,39.2,12.4,45,10.9z"/>
	<polygon style="fill:#CC3333;" points="32.4,25.3 30.4,27.3 101.5,98.4 103.3,96.2 	"/>
</g>
</svg>
