<svg xmlns="http://www.w3.org/2000/svg" viewBox="0 0 36 36"><path fill="#292F33" d="m17.989 34.975.052.016a1.5 1.5 0 0 1-.042-.383c0-.303.156-.869.199-.95s.09-.139.194-.11c.079.022.685.326 1.072.341.719.027 1.066-.618 1.066-.618s.399.228.716.413c.318.185.687.462.959.627.232.141.497.208.771.243s.497.023.563.029.621-.061.641.488l-.003.127.054-.026s.048.17.052.202c.004.033.024.052-.046.096s-.378.176-.77.274-1.028.243-1.519.243-.909-.098-1.151-.156c-.243-.058-.763-.169-.813-.146s-.116.191-.173.243c-.058.052-1.61-.081-1.721-.104a.18.18 0 0 1-.146-.162v-.649c-.002-.027.021-.045.045-.038M7.042 31.223l.504-.429a.038.038 0 0 1 .059.012l.022.051c.041-.059.12-.158.269-.285.235-.2.777-.454.868-.473.091-.02.167-.022.213.077.035.076.199.746.444 1.056.454.575 1.184.418 1.184.418l.153.828c.067.368.096.838.148 1.158.044.273.167.523.322.758.154.236.31.4.35.456s.457.441.045.82l-.101.081.055.025s-.1.149-.122.174-.025.053-.104.028-.386-.177-.721-.416c-.336-.24-.868-.637-1.192-1.018-.325-.381-.524-.77-.64-.996s-.373-.703-.424-.727-.224.036-.303.026-1.001-1.302-1.057-1.403-.005-.193.028-.221"/><path fill="#9B6A49" d="M16.7 12.243c-.927.96-3.062 2.89-3.109 3.121-.251 1.223-.614 2.606-.52 3.454.068.615-.376 1.298-.551 1.583-.218.354-.781.898-1.141.86-.224-.023-.567-.43-.384-.636.357-.4.298-1.009.522-1.559.449-1.105.045-3.194.661-4.563.256-.567.733-1.693 2.824-3.626.511.462 1.698 1.366 1.698 1.366"/><path fill="#2A6797" d="M19.938 34.203c1.266.109 1.853-.233 1.721-.416-.165-.228-.128-.397-.13-.536-.028-2.441.471-5.991.471-5.991 0-.348-.003-.813-.312-1.562-.778-1.883-3.951-7.69-3.951-7.69a2 2 0 0 0-2.729-.744c-.959.548-1.122 1.405-.744 2.729.715 2.508 2.965 5.602 3.903 7.477-.224 2.121.174 3.853-.035 5.857-.03.288.54.767 1.806.876"/><path fill="#4289C1" d="M9.203 31.931c.364.553.97.942 1.598.838 1.269-1.924 4.955-5.321 4.955-5.321.241-.25.562-.587.86-1.341.748-1.895 2.498-8.277 2.498-8.277a2 2 0 0 0-1.446-2.43c-1.07-.272-1.783.232-2.43 1.446-1.227 2.301-1.757 6.09-2.384 8.09-1.87 1.568-2.383 3.603-4.275 5.151.065.857.26 1.291.624 1.844"/><path fill="#AF7E57" d="M17.396 1.418c1.616-.481 3.893.53 4.11 2.372.303 2.57-1.323 4.585-2.901 4.276-1.654-.324-2.648-.782-3.177-2.559s.352-3.608 1.968-4.089"/><path fill="#AF7E57" d="M15.835 5.988c-2.045-2.867 3.411-2.136 3.411-2.136 1.034.127.172 1.793.579 2.778.279.682-1.16.907-1.16.907s-.646-.065-.748.716l-.001.007c-.025.199-.024.438.042.763.329 1.61-1.862 2.392-2.19.779-.13-.638-.012-1.18.124-1.677l.013-.045c.205-.74.435-1.383-.07-2.092"/><path fill="#60352A" d="M15.384 1.791c.861-.977 3.527-1.676 5.056-.215 1.154-.1 1.497 1.019 1.347 1.633-.12.49-1.352.514-1.739 1.431-.193-.255-.207-.744-.139-.999-.421.341-.336 1.339-1.92 1.85-1.532.494-1.382 1.822-1.382 1.822s-.747-.435-1.235-1.109c-.934-1.286-.937-3.336.012-4.413"/><path fill="#FA743E" d="M13 20s0 1 2 1h4.898c-1-4.578.094-5.84-.241-8.581-.361-2.954-2.287-4.771-3.475-4.34-1.822.661-2.693 2.641-2.932 5.858S13 20 13 20"/><path fill="#AF7E57" d="M18.25 11.792c.167 1.399.322 4.433.479 4.625.833 1.021 1.722 2.24 2.479 2.729.549.354.811 1.174.927 1.507.144.414.213 1.238-.057 1.507-.169.168-.73.177-.776-.11-.09-.559-.626-.917-.927-1.467-.604-1.104-2.583-2.167-3.292-3.584-.294-.588-.896-1.729-1.083-4.729.72-.11 2.25-.478 2.25-.478"/></svg>