<?xml version="1.0" encoding="utf-8"?>
<!-- Generator: Adobe Illustrator 25.2.3, SVG Export Plug-In . SVG Version: 6.00 Build 0)  -->
<svg version="1.1" id="Layer_2" xmlns="http://www.w3.org/2000/svg" xmlns:xlink="http://www.w3.org/1999/xlink" x="0px" y="0px"
	 viewBox="0 0 128 128" style="enable-background:new 0 0 128 128;" xml:space="preserve">
<g>
	<path style="fill:#194FA5;" d="M116,4H12c-4.42,0-8,3.58-8,8v104c0,4.42,3.58,8,8,8h104c4.42,0,8-3.58,8-8V12
		C124,7.58,120.42,4,116,4z"/>
	<path style="fill:#2262DD;" d="M109.7,4H11.5C7.37,4.03,4.03,7.37,4,11.5v97.9c-0.01,4.14,3.34,7.49,7.48,7.5c0.01,0,0.01,0,0.02,0
		h98.1c4.14,0.01,7.49-3.34,7.5-7.48c0-0.01,0-0.01,0-0.02V11.5c0.09-4.05-3.13-7.41-7.18-7.5C109.85,4,109.77,4,109.7,4z"/>
	<path style="fill:#68ABE6;" d="M39.7,12.9c0-2.3-1.6-3-10.8-2.7c-7.7,0.3-11.5,1.2-13.8,4c-1.9,2.3-2.3,5.6-2.6,8.4
		c-0.2,2.2-2.2,14.9,3.5,11.2c0.68-0.45,1.23-1.07,1.6-1.8c1.2-2.1,1.9-3.5,3.3-5.6C26.2,17.8,39.7,15.9,39.7,12.9z"/>
	<g>
		<circle style="fill:#FFFFFF;" cx="61.99" cy="28" r="15"/>
		<path style="fill:#FFFFFF;" d="M103.3,48.15c-1.87-2.08-5.1-2.23-7.34-0.56l-6.6,4.9c-0.77,0.57-1.78,0.69-2.65,0.31
			c-4.31-1.88-10.86-4.72-14.4-6.19c-0.21-0.08-0.54-0.19-0.75-0.27c-2.51-0.74-5.79-1.11-8.45-1.29C62.74,45.01,62.37,45,62,45
			s-0.74,0.01-1.11,0.04c-2.66,0.18-5.95,0.55-8.45,1.29c-0.21,0.08-0.54,0.19-0.75,0.27c-3.53,1.47-10.08,4.31-14.39,6.19
			c-0.88,0.38-1.89,0.27-2.66-0.31c-1.64-1.22-4.57-3.39-6.6-4.9c-2.25-1.67-5.46-1.51-7.34,0.57c-2.15,2.38-1.74,6.03,0.77,7.9
			L31.9,63.8c0.94,0.7,2.04,1.05,3.13,1.05c2.54,0,9.72-2.72,9.72-2.72c0.58-0.19,1.17,0.24,1.17,0.85v5.16c0,0.55,0.45,1,1,1h30.15
			c0.55,0,1-0.45,1-1v-5.16c0-0.61,0.59-1.04,1.17-0.85c0,0,7.18,2.72,9.72,2.72c1.09,0,2.19-0.35,3.13-1.05l10.43-7.74
			C105.05,54.18,105.45,50.54,103.3,48.15z"/>
		<path style="fill:#FFFFFF;" d="M78.78,77.99l0.56-0.77c0.32-0.44,0.49-0.96,0.49-1.5v-1.66c0-0.88-0.6-1.61-1.4-1.79H45.57
			c-0.8,0.18-1.4,0.91-1.4,1.79v1.66c0,0.39,0.09,0.76,0.26,1.11l9.37,12.96c0.67,0.93,1.73,1.47,2.85,1.47h10.7
			c1.12,0,2.18-0.55,2.85-1.47l8.6-11.78L78.78,77.99L78.78,77.99z"/>
		<path style="fill:#FFFFFF;" d="M35.99,84.99c-3.32,3.34-3.32,8.73,0.01,12.06l10.07,10.07c2.55,2.55,6.7,2.5,9.19-0.14
			c2.4-2.55,2.15-6.62-0.33-9.1l-6.74-6.8l0.77-1c0.35-0.35,0.4-0.9,0.11-1.3l-6.39-8.74c-0.36-0.5-1.08-0.56-1.52-0.12
			C41.16,79.92,35.99,84.99,35.99,84.99z"/>
		<path style="fill:#FFFFFF;" d="M88.01,84.99c3.32,3.34,3.32,8.73-0.01,12.06l-10.07,10.07c-2.55,2.55-6.7,2.5-9.19-0.14
			c-2.4-2.55-2.15-6.62,0.33-9.1l6.74-6.8l-0.77-1c-0.35-0.35-0.4-0.9-0.11-1.3l6.39-8.74c0.36-0.5,1.08-0.56,1.52-0.12
			C82.84,79.92,88.01,84.99,88.01,84.99z"/>
	</g>
</g>
</svg>
