<?xml version="1.0" encoding="utf-8"?>
<!-- Generator: Adobe Illustrator 25.2.3, SVG Export Plug-In . SVG Version: 6.00 Build 0)  -->
<svg version="1.1" id="Layer_2" xmlns="http://www.w3.org/2000/svg" xmlns:xlink="http://www.w3.org/1999/xlink" x="0px" y="0px"
	 viewBox="0 0 128 128" style="enable-background:new 0 0 128 128;" xml:space="preserve">
<g>
	<path style="fill:#194FA5;" d="M116,4H12c-4.42,0-8,3.58-8,8v104c0,4.42,3.58,8,8,8h104c4.42,0,8-3.58,8-8V12
		C124,7.58,120.42,4,116,4z"/>
	<path style="fill:#2262DD;" d="M109.7,4H11.5C7.37,4.03,4.03,7.37,4,11.5v97.9c-0.01,4.14,3.34,7.49,7.48,7.5c0.01,0,0.01,0,0.02,0
		h98.1c4.14,0.01,7.49-3.34,7.5-7.48c0-0.01,0-0.01,0-0.02V11.5c0.09-4.05-3.13-7.41-7.18-7.5C109.85,4,109.77,4,109.7,4z"/>
	<path style="opacity:0.3;fill:#68ABE6;enable-background:new    ;" d="M39.7,12.9c0-2.3-1.6-3-10.8-2.7c-7.7,0.3-11.5,1.2-13.8,4
		c-1.9,2.3-2.3,5.6-2.6,8.4c-0.2,2.2-2.2,14.9,3.5,11.2c0.68-0.45,1.23-1.07,1.6-1.8c1.2-2.1,1.9-3.5,3.3-5.6
		C26.2,17.8,39.7,15.9,39.7,12.9z"/>
	<path style="opacity:0.65;fill:#68ABE6;enable-background:new    ;" d="M39.7,12.9c0-2.3-1.6-3-10.8-2.7c-7.7,0.3-11.5,1.2-13.8,4
		c-1.9,2.3-2.3,5.6-2.6,8.4c-0.2,2.2-2.2,14.9,3.5,11.2c0.68-0.45,1.23-1.07,1.6-1.8c1.2-2.1,1.9-3.5,3.3-5.6
		C26.2,17.8,39.7,15.9,39.7,12.9z"/>
</g>
<circle style="fill:#FFFFFF;" cx="62.15" cy="25.47" r="9.35"/>
<path style="fill:#FFFFFF;" d="M81.52,72.35c1.68-0.61,2.56-2.52,1.98-4.27l-8.67-25.25c-1.13-3.49-6.4-6.13-12.74-6.13
	c-6.32,0-11.58,2.63-12.74,6.1l-8.56,25.29c-0.59,1.75,0.3,3.66,1.98,4.27c1.68,0.61,3.52-0.31,4.1-2.06l5.15-16.47
	c0.09-0.28,0.5-0.22,0.5,0.08v47.79c0,2.31,1.8,4.19,4.03,4.19s4.03-1.88,4.03-4.19V71.78c0-0.93,0.72-1.67,1.61-1.67
	s1.61,0.75,1.61,1.67v29.91c0,2.31,1.8,4.19,4.03,4.19s4.03-1.88,4.03-4.19V53.93c0-0.3,0.4-0.36,0.5-0.08l5.07,16.45
	C78,72.04,79.85,72.96,81.52,72.35L81.52,72.35z"/>
</svg>
