<svg xmlns="http://www.w3.org/2000/svg" viewBox="0 0 64 64" enable-background="new 0 0 64 64"><g fill="#62727a"><path d="m27.5 51c0-3 2.3-5.5 5-5.5.2 0 .4 0 .6 0l19 2c2 .3 3.4 1.7 3.4 3.5 0 1.8-1.4 3.2-3.4 3.5l-19 2c-.2 0-.4 0-.6 0-2.7 0-5-2.5-5-5.5m1 0c0 2.4 1.9 4.5 4 4.5.1 0 .3 0 .5 0l19-2c1.3-.2 2.6-1 2.6-2.5s-1.3-2.3-2.6-2.5l-19-2c-.1 0-.3 0-.4 0-2.2 0-4.1 2.1-4.1 4.5"/><path d="m40 51c0-6.6 5.4-12 12-12s12 5.4 12 12-5.4 12-12 12-12-5.4-12-12m2 0c0 5.5 4.5 10 10 10s10-4.5 10-10-4.5-10-10-10-10 4.5-10 10"/><path d="m0 51c0-6.6 5.4-12 12-12s12 5.4 12 12-5.4 12-12 12-12-5.4-12-12m2 0c0 5.5 4.5 10 10 10s10-4.5 10-10-4.5-10-10-10-10 4.5-10 10"/></g><g fill="#42ade2"><path d="m42 51c0-5.5 4.5-10 10-10s10 4.5 10 10-4.5 10-10 10-10-4.5-10-10m2 0c0 4.4 3.6 8 8 8s8-3.6 8-8c0-4.4-3.6-8-8-8s-8 3.6-8 8"/><path d="m2 51c0-5.5 4.5-10 10-10s10 4.5 10 10-4.5 10-10 10-10-4.5-10-10m2 0c0 4.4 3.6 8 8 8s8-3.6 8-8c0-4.4-3.6-8-8-8s-8 3.6-8 8"/></g><g fill="#ff9d27"><path d="m61.3 41.7c-8.3-8-21.9-2.3-22.3 9.3 0 1.3-2 1.3-2 0 .4-13.4 16.1-19.9 25.7-10.7.9.9-.5 2.3-1.4 1.4"/><path d="m2.7 41.7c8.3-8 21.9-2.3 22.3 9.3 0 1.3 2 1.3 2 0-.4-13.4-16.1-19.9-25.7-10.7-.9.9.5 2.3 1.4 1.4"/></g><path d="m51 50c-.7-5.8-4.2-10.7-9.5-13.2-1.2-.6-.1-2.3 1-1.7 6 2.9 9.7 8.4 10.5 14.9.2 1.3-1.8 1.3-2 0" fill="#42ade2"/><path d="m15.5 22.1c2.2-1.5 5.2-2 7.8-2 1.3 0 1.3 2 0 2-1.9 0-3.9.3-5.7 1.1.7.7 1.4 1.4 2.1 2.1.2.2.4.6.3 1-.5 1.3-1 2.7-1.5 4-.4 1.2-2.4.7-1.9-.5.4-1.2.9-2.3 1.3-3.5-.9-.9-1.7-1.7-2.5-2.5-.6-.6-.4-1.3.1-1.7" fill="#b2c1c0"/><g fill="#42ade2"><path transform="matrix(.3162-.9487.9487.3162-13.1788 65.7207)" d="m29.5 41h19v2h-19z"/><path d="m12.6 51.8c4.8-4 3.5-11.2 3.1-12.8l2.4-7.9c3 .4 14.1 2.6 19.6 12.4l1.7-1c-6.7-12.3-21.2-13.5-21.8-13.5l-.8-.1-3.1 10 .1.3c0 .1 1.8 7.5-2.4 11l1.2 1.6"/></g><g fill="#62727a"><path d="m28 20.1h-4.5v2h4.5c.3 0 .5-.2.5-.5v-1c0-.3-.2-.5-.5-.5"/><circle cx="12" cy="51" r="1"/></g><path d="m16.5 31.1c2.8 1.4 5 4 6.8 6.8 2.9 4.4 5.1 11.2 11.3 11.9h17.5c1.3 0 1.3 2 0 2-5.7 0-12 0-17.3 0-10.1 0-11-14.3-18.2-18.6l-.1-2.1" fill="#42ade2"/><circle cx="52" cy="51" r="2" fill="#62727a"/><path transform="matrix(.3162-.9487.9487.3162.943 61.3081)" fill="#b2c1c0" d="m39.8 29h6.3v2h-6.3z"/><g fill="#62727a"><path d="m40.6 26.1c3.8 0 3.8-2.1 7.1-2.1.8 0 2 1 2.2 1.8.3.8-.8 2.4-1.3 3.1-.7.9-1.7 1.4-2.6.9-1.3-.8-2.6-1.7-6.1 0-.8.4-2.1-.6-2-2.9.1-.7 1.1-.8 2.7-.8"/><path d="m36 51.8h2.6c.5 0 1 .4 1 1s-.5 1-1 1h-2.6c-.5 0-1-.4-1-1s.4-1 1-1"/></g><circle cx="33" cy="51" r="4" fill="#b2c1c0"/><path d="m32.7 52c-1.7-.7-3.3-1.3-5-2-1.2-.5-.7-2.4.5-1.9 1.7.7 3.3 1.3 5 2 1.2.4.7 2.3-.5 1.9" fill="#e8e8e8"/><g fill="#62727a"><path d="m26.8 48h2.5c.6 0 1 .4 1 1s-.4 1-1 1h-2.5c-.6 0-1-.4-1-1s.4-1 1-1"/><path d="m24.5 22.5c0 .3-.2.5-.5.5-.3 0-.5-.2-.5-.5v-3c0-.3.2-.5.5-.5.3 0 .5.2.5.5v3"/></g></svg>