<?xml version="1.0" encoding="utf-8"?>
<!-- Generator: Adobe Illustrator 25.2.3, SVG Export Plug-In . SVG Version: 6.00 Build 0)  -->
<svg version="1.1" id="Layer_1" xmlns="http://www.w3.org/2000/svg" xmlns:xlink="http://www.w3.org/1999/xlink" x="0px" y="0px"
	 viewBox="0 0 128 128" style="enable-background:new 0 0 128 128;" xml:space="preserve">
<g>
	<path style="fill:#F2A600;" d="M69.61,6.36l52.2,52c2.99,3.13,2.9,8.08-0.2,11.1l-52,52.2c-3.12,3.12-8.18,3.12-11.3,0l-52-52.2
		c-3.04-3.04-3.13-7.95-0.2-11.1l52.2-52C61.43,3.25,66.49,3.25,69.61,6.36z"/>
	<path style="fill:#FFCC32;" d="M64.71,10.46l48.5,48.4c2.79,2.89,2.71,7.49-0.18,10.28c-0.01,0.01-0.01,0.01-0.02,0.02l-48.4,48.5
		c-2.9,2.9-7.59,2.9-10.49,0.01c0,0,0,0-0.01-0.01l-48.3-48.5c-2.9-2.79-2.99-7.39-0.21-10.29c0,0,0,0,0.01-0.01l48.6-48.4
		C57.11,7.56,61.81,7.56,64.71,10.46C64.71,10.46,64.71,10.46,64.71,10.46z"/>
	<g style="opacity:0.2;">
		<path style="fill:#424242;" d="M71.61,25.96c3.59,0,6.5,2.91,6.5,6.5c0,3.59-2.91,6.5-6.5,6.5s-6.5-2.91-6.5-6.5
			c-0.01-3.58,2.9-6.49,6.48-6.5C71.6,25.96,71.61,25.96,71.61,25.96"/>
		<path style="fill:#424242;" d="M72.51,39.66c1.15,0,2.3,0.17,3.4,0.5c1.48,0.47,2.7,1.51,3.4,2.9l4.5,8.2c0.2,0.3,0.4,0.5,0.6,0.8
			l8.8,7.1c1.01,0.85,1.19,2.34,0.4,3.4c-0.47,0.57-1.16,0.9-1.9,0.9c-0.54-0.01-1.06-0.19-1.5-0.5l-9.5-7.7
			c-0.16-0.14-0.3-0.31-0.4-0.5c-0.1-0.1-0.1-0.2-0.2-0.3l-1.2-2.2v10.5c0.01,0.99,0.18,1.97,0.5,2.9l8.5,22.2
			c0.6,1.6-0.2,3.39-1.8,4c-0.36,0.11-0.73,0.18-1.1,0.2c-1.28-0.04-2.41-0.82-2.9-2l-8.5-22.3c-0.23-0.62-0.84-1.02-1.5-1
			c-0.87-0.01-1.59,0.69-1.6,1.56c0,0.01,0,0.03,0,0.04l-0.1,7.4c-0.02,0.34-0.09,0.68-0.2,1c-0.01,0.39-0.11,0.76-0.3,1.1
			l-6.4,12.6c-0.59,0.98-1.65,1.59-2.8,1.6c-0.48,0.01-0.96-0.1-1.4-0.3c-1.51-0.81-2.09-2.68-1.3-4.2l6.3-12.2l0.2-9.7v-1.8
			c-0.2,0.19-0.44,0.33-0.7,0.4c-0.29,0.11-0.59,0.18-0.9,0.2c-0.99,0-1.89-0.59-2.3-1.5l-3.7-9.4c-0.4-0.95-0.12-2.06,0.7-2.7
			l7.7-8.4C66.91,40.56,69.81,39.66,72.51,39.66 M64.41,59.46v-8.4c0-0.2-0.1-0.2-0.2-0.2s-0.1,0-0.2,0.1l-1.7,1.9
			c-0.21,0.21-0.29,0.52-0.2,0.8L64.41,59.46"/>
		<path style="fill:#424242;" d="M45.31,38.76c3.59,0,6.5,2.91,6.5,6.5s-2.91,6.5-6.5,6.5s-6.5-2.91-6.5-6.5l0,0
			c-0.01-3.58,2.9-6.49,6.48-6.5C45.3,38.76,45.31,38.76,45.31,38.76"/>
		<path style="fill:#424242;" d="M45.51,52.56c1.54,0.01,3.07,0.31,4.5,0.9c1.7,0.7,4.1,5,5.1,6.5c0.18,0.26,0.48,0.42,0.8,0.4h0.2
			l5.8-1.2h0.5c1.34-0.04,2.45,1.02,2.49,2.35c0.03,1.19-0.81,2.23-1.99,2.45l-8,1.6h-1c-0.6-0.1-1.13-0.42-1.5-0.9l-1.3-1.7v9
			c0,0.1,0.1,0.1,0.1,0.2l6.1,16.7c0.46,1.23-0.16,2.6-1.39,3.06c-0.03,0.01-0.07,0.03-0.11,0.04c-0.26,0.08-0.53,0.12-0.8,0.1
			c-1.02,0-1.94-0.64-2.3-1.6l-5.1-14.1c-0.26-0.71-0.94-1.19-1.7-1.2c-0.99-0.01-1.79,0.79-1.8,1.78c0,0.01,0,0.01,0,0.02v3.2
			c0.12,0.63-0.02,1.28-0.4,1.8l-6.5,9c-0.45,0.65-1.21,1.03-2,1c-0.49-0.03-0.97-0.16-1.4-0.4c-1.07-0.8-1.33-2.29-0.6-3.4l5.8-8.1
			c0.11-0.18,0.18-0.39,0.2-0.6l-0.1-7.1c-0.02-0.21,0.02-0.41,0.1-0.6v-9.4c0-0.55-0.45-1-1-1c-0.21,0.02-0.42,0.09-0.6,0.2l-1.3,1
			c-0.12,0.11-0.23,0.25-0.3,0.4l-3,6.7c-0.39,0.86-1.25,1.41-2.2,1.4c-0.56,0-1.09-0.22-1.5-0.6c-0.87-0.69-1.13-1.92-0.6-2.9
			l3.3-7.3l0,0c0.1-0.1,0.1-0.3,0.2-0.4l0,0l0.3-0.3l0,0l0.1-0.1c0,0,6.9-5.3,7.2-5.5C41.57,53.04,43.53,52.56,45.51,52.56"/>
	</g>
	
		<linearGradient id="SVGID_1_" gradientUnits="userSpaceOnUse" x1="75.2721" y1="-1800.9038" x2="75.2721" y2="-1869.7938" gradientTransform="matrix(1 0 0 -1 -3.66 -1776.0901)">
		<stop  offset="0" style="stop-color:#424242"/>
		<stop  offset="1" style="stop-color:#212121"/>
	</linearGradient>
	<circle style="fill:url(#SVGID_1_);" cx="71.61" cy="32.47" r="6.5"/>
	
		<linearGradient id="SVGID_2_" gradientUnits="userSpaceOnUse" x1="79.1502" y1="-1800.9038" x2="79.1502" y2="-1869.7938" gradientTransform="matrix(1 0 0 -1 -3.66 -1776.0902)">
		<stop  offset="0" style="stop-color:#424242"/>
		<stop  offset="1" style="stop-color:#212121"/>
	</linearGradient>
	<path style="fill:url(#SVGID_2_);" d="M93.31,59.06l-8.7-7c-0.28-0.19-0.49-0.47-0.6-0.8l-4.6-8.2c-0.75-1.34-1.96-2.37-3.4-2.9
		c-3.4-1-8.3-0.4-10.7,2.2l-7.7,8.4c-0.81,0.65-1.09,1.74-0.7,2.7l3.7,9.4c0.48,1.23,1.86,1.85,3.1,1.4c0.26-0.07,0.5-0.21,0.7-0.4
		v1.8l-0.2,9.7l-6.3,12.2c-0.76,1.54-0.13,3.41,1.41,4.16c1.48,0.73,3.28,0.18,4.09-1.26l6.5-12.7c0.2-0.33,0.31-0.71,0.3-1.1
		c0.12-0.32,0.19-0.66,0.2-1l0.1-7.4c-0.01-0.87,0.69-1.59,1.56-1.6c0.01,0,0.03,0,0.04,0c0.66-0.02,1.27,0.38,1.5,1l8.6,22.4
		c0.61,1.6,2.4,2.41,4,1.8s2.41-2.4,1.8-4l-8.5-22.3c-0.32-0.93-0.49-1.91-0.5-2.9v-10.4l1.2,2.2c0.1,0.1,0.1,0.2,0.2,0.3
		s0.3,0.3,0.4,0.5l9.5,7.7c1.03,0.83,2.54,0.67,3.37-0.37c0.01-0.01,0.02-0.02,0.03-0.03C94.55,61.48,94.37,59.93,93.31,59.06z
		 M62.21,52.86l1.7-1.9c0.2-0.2,0.4-0.1,0.4,0.2v8.4l-2.3-5.8C62.01,53.36,62.01,53.06,62.21,52.86z"/>
	
		<linearGradient id="SVGID_3_" gradientUnits="userSpaceOnUse" x1="48.9721" y1="-1800.9038" x2="48.9721" y2="-1869.7938" gradientTransform="matrix(1 0 0 -1 -3.66 -1776.0901)">
		<stop  offset="0" style="stop-color:#424242"/>
		<stop  offset="1" style="stop-color:#212121"/>
	</linearGradient>
	<circle style="fill:url(#SVGID_3_);" cx="45.31" cy="45.26" r="6.5"/>
	
		<linearGradient id="SVGID_4_" gradientUnits="userSpaceOnUse" x1="50.5016" y1="-1800.9038" x2="50.5016" y2="-1869.7938" gradientTransform="matrix(1 0 0 -1 -3.66 -1776.0902)">
		<stop  offset="0" style="stop-color:#424242"/>
		<stop  offset="1" style="stop-color:#212121"/>
	</linearGradient>
	<path style="fill:url(#SVGID_4_);" d="M64.61,60.46c-0.49-1-1.63-1.51-2.7-1.2l-5.8,1.2c-0.38,0.07-0.77-0.08-1-0.4
		c-1.1-1.5-3.4-5.9-5.1-6.5c-3.21-1.34-6.85-1.16-9.9,0.5c-0.3,0-7.2,5.4-7.2,5.4l-0.1,0.1l0,0l-0.3,0.3l0,0
		c-0.11,0.11-0.17,0.25-0.2,0.4l0,0l-3.3,7.3c-0.48,0.99-0.23,2.18,0.6,2.9c1.01,0.87,2.53,0.76,3.4-0.25
		c0.17-0.19,0.3-0.41,0.4-0.65l3-6.7c0.07-0.15,0.18-0.29,0.3-0.4l1.3-1c0.44-0.33,1.07-0.24,1.4,0.2c0.13,0.17,0.2,0.38,0.2,0.6
		v9.4c0,0.2-0.1,0.4-0.1,0.6l0.1,7.1c-0.02,0.21-0.09,0.42-0.2,0.6l-5.8,8.1c-0.77,1.1-0.5,2.63,0.6,3.4c1.1,0.77,2.63,0.5,3.4-0.6
		l0,0l6.5-9c0.38-0.52,0.52-1.17,0.4-1.8v-3.2c-0.01-0.99,0.79-1.79,1.78-1.8c0.01,0,0.01,0,0.02,0c0.76,0.01,1.44,0.49,1.7,1.2
		l5.1,14.1c0.49,1.23,1.83,1.88,3.1,1.5c1.25-0.47,1.9-1.83,1.5-3.1l-6.4-16.7c0-0.1-0.1-0.1-0.1-0.2v-9l1.3,1.7
		c0.37,0.48,0.9,0.8,1.5,0.9h1l8-1.6c1.25-0.22,2.09-1.41,1.86-2.67C64.83,60.94,64.74,60.69,64.61,60.46z"/>
	<path style="fill:#FFF170;" d="M52.91,17.66c-1.6,1.1-33.1,32.3-33.1,32.3s-2.6,2.3-0.8,4.7c1.7,2.2,4.3,1.1,5.6-0.1
		s29.7-29,30.9-30.4c1.19-1.59,1.42-3.69,0.6-5.5C55.31,17.06,54.01,16.86,52.91,17.66z"/>
	<circle style="fill:#FFF170;" cx="15.51" cy="60.47" r="3.3"/>
</g>
</svg>
