<svg xmlns="http://www.w3.org/2000/svg" viewBox="0 0 36 36"><path fill="#FFDC5D" d="M15.012 3.254c-1.207.267 1.054 1.529.684 2.739-.252.838.225 0 1 0 0 0 .627 1.283.423 3.226-.207 1.94 2.472 2.616 2.677.673.204-1.941-1.385-2.988-.511-4.5 2.092-3.619-4.273-2.138-4.273-2.138"/><path fill="#FFDC5D" d="M20.567 5.975c.929-1.996.212-4.298-1.602-5.143-1.814-.845-4.769-.077-5.238 2.073-.466 2.136-.03 5.389 1.877 5.299.527-.025 1.057-.067 1.571-.149.067.25.052.761-.043 1.246-.369 1.864 2.171 2.751 2.539.883.214-1.093-.195-1.942-.373-2.737.516-.343.96-.808 1.269-1.472z"/><path fill="#FFAC33" d="M21.043 1.71C19.894.186 18.228-.519 15.243.431c-2.607.829-1.788 3.076-1.297 2.594.782-.768 1.757-.458 1.757-.458l.632 2.315s.353.242.553-.52c.199-.762 1.239-.778 1.541-.137.469.996-.233 1.139-.331 1.711-.31 1.81 1.713 1.864 1.713 1.864s.383.178 1.135-1.103c.753-1.283 1.238-3.473.097-4.987z"/><path fill="#F9CA55" d="M23.696 20.993c-.553 0-1-.447-1-1 0-4.52-4.661-9.247-4.707-9.294-.39-.391-.389-1.024.001-1.414.391-.39 1.023-.389 1.413.001.216.216 5.293 5.355 5.293 10.708 0 .552-.447.999-1 .999z"/><path fill="#2A6797" d="M15.696 34.993c-1.104 0-2-.896-2-2v-7c0-.348.091-.69.264-.992l4-7c.548-.958 1.771-1.293 2.729-.744.959.548 1.292 1.77.744 2.729l-3.736 6.539v6.469c-.001 1.104-.897 1.999-2.001 1.999z"/><path fill="#4289C1" d="M24.697 31.993c-.587 0-1.168-.257-1.562-.751l-4-5c-.2-.249-.337-.543-.399-.856l-1-5c-.217-1.083.485-2.137 1.568-2.354 1.088-.219 2.138.486 2.354 1.568l.905 4.524 3.695 4.62c.691.862.551 2.121-.312 2.811-.369.295-.811.438-1.249.438z"/><path fill="#77B255" d="M22.696 18.993s0 1-2 1h-4c-2-6-.359-12 2-12 3 0 3 4 4 9"/><path fill="#FFDC5D" d="M17.696 11.991c0 .045-.066 4.552-3.6 7.203l.01.014c-.243.183-.41.459-.41.786 0 .553.448 1 1 1 .225 0 .423-.088.59-.214l.01.014c4.35-3.262 4.4-8.575 4.4-8.8l-2-.003z"/><path fill="#292F33" d="M27.878 31.049c.271-.271.16-.676-.129-.94-.463-.422-.672-.574-.672-.574-.255-.168-.873-.418-1.13-.161-1.872 1.865-3.304 4.53-3.356 5.459-.031.548.645.855 1.029.471 1.132-1.133 3.276-3.275 4.258-4.255zm-10.266 4.854c.383.003.594-.361.578-.753-.025-.626-.064-.882-.064-.882-.059-.3-.316-.915-.68-.918-2.642-.023-5.545.83-6.243 1.446-.412.363-.156 1.06.388 1.063 1.603.013 4.633.034 6.021.044z"/></svg>