<?xml version="1.0" encoding="utf-8"?>
<!-- Generator: Adobe Illustrator 25.2.3, SVG Export Plug-In . SVG Version: 6.00 Build 0)  -->
<svg version="1.1" id="Layer_2" xmlns="http://www.w3.org/2000/svg" xmlns:xlink="http://www.w3.org/1999/xlink" x="0px" y="0px"
	 viewBox="0 0 128 128" style="enable-background:new 0 0 128 128;" xml:space="preserve">
<g>
	<path style="fill:#194FA5;" d="M116,4H12c-4.42,0-8,3.58-8,8v104c0,4.42,3.58,8,8,8h104c4.42,0,8-3.58,8-8V12
		C124,7.58,120.42,4,116,4z"/>
	<path style="fill:#2262DD;" d="M109.7,4H11.5C7.37,4.03,4.03,7.37,4,11.5v97.9c-0.01,4.14,3.34,7.49,7.48,7.5c0.01,0,0.01,0,0.02,0
		h98.1c4.14,0.01,7.49-3.34,7.5-7.48c0-0.01,0-0.01,0-0.02V11.5c0.09-4.05-3.13-7.41-7.18-7.5C109.85,4,109.77,4,109.7,4z"/>
	<path style="fill:#68ABE6;" d="M39.7,12.9c0-2.3-1.6-3-10.8-2.7c-7.7,0.3-11.5,1.2-13.8,4c-1.9,2.3-2.3,5.6-2.6,8.4
		c-0.2,2.2-2.2,14.9,3.5,11.2c0.68-0.45,1.23-1.07,1.6-1.8c1.2-2.1,1.9-3.5,3.3-5.6C26.2,17.8,39.7,15.9,39.7,12.9z"/>
	<path style="fill:#FAFAFA;" d="M53.7,68.6c-0.22,0.13-0.37,0.35-0.4,0.6l-1,4.5c-0.1,0.47-0.52,0.81-1,0.8H19.7
		c-0.48,0.01-0.9-0.33-1-0.8l-1-4.5c-0.1-0.2-0.2-0.5-0.4-0.6C14.8,67,12.6,69,13,71l7.3,32.9c0.67,2.99,3.33,5.11,6.4,5.1h17.6
		c3.05,0.04,5.7-2.1,6.3-5.1L57.9,71C58.4,69,56.2,67,53.7,68.6z M21.3,79.5h28.4c0.58,0.03,1.04,0.52,1.01,1.11
		c0,0.03,0,0.06-0.01,0.09L49,88.2c-0.12,0.46-0.53,0.78-1,0.8H23c-0.48,0.01-0.9-0.33-1-0.8l-1.7-7.5
		c-0.08-0.58,0.33-1.11,0.91-1.19C21.24,79.5,21.27,79.5,21.3,79.5z"/>
	<path style="fill:#FFFFFF;" d="M106.1,31.2l-2.9,1.5c-1.36,0.68-2.21,2.08-2.2,3.6V37c0,1.1-0.9,2-2,2H88.1
		c-0.77,0.03-1.48-0.4-1.8-1.1c-1.49-3.32-4.07-6.03-7.3-7.7V26c0-0.55,0.45-1,1-1h9l1.1,0.5c0.99,0.5,2.19,0.1,2.69-0.89
		c0.14-0.28,0.22-0.6,0.21-0.91v-5.5c0.01-1.1-0.88-2.01-1.99-2.01c-0.32,0-0.63,0.07-0.91,0.21L89,17h-9c-0.55,0-1-0.45-1-1
		c0-1.66-1.34-3-3-3h-6c-1.66,0-3,1.34-3,3c0,0.55-0.45,1-1,1h-9l-1.1-0.6c-0.99-0.5-2.19-0.1-2.69,0.89
		C53.07,17.57,53,17.88,53,18.2v5.5c-0.01,1.1,0.88,2.01,1.99,2.01c0.32,0,0.63-0.07,0.91-0.21L57,25h9c0.55,0,1,0.45,1,1v4.2
		c-3.21,1.7-5.78,4.4-7.3,7.7c-0.32,0.7-1.03,1.13-1.8,1.1h-8.7C38.08,38.97,29.03,47.96,29,59.08c0,0.04,0,0.08,0,0.12V62
		c0,1.66,1.34,3,3,3h6c1.66,0,3-1.34,3-3v-2.8c0.02-4.52,3.68-8.18,8.2-8.2h8.1c0.84,0,1.59,0.52,1.9,1.3
		c2.3,6.1,7.6,10.4,13.8,10.4s11.6-4.3,13.8-10.4c0.31-0.78,1.06-1.3,1.9-1.3H99c1.1,0,2,0.9,2,2v2.3c0.03,1.51,0.87,2.89,2.2,3.6
		l2.9,1.5c0.99,0.5,2.19,0.1,2.69-0.89c0.14-0.28,0.22-0.6,0.21-0.91V33c0.01-1.1-0.88-2.01-1.99-2.01
		C106.7,30.98,106.38,31.06,106.1,31.2z"/>
</g>
</svg>
