<?xml version="1.0" encoding="utf-8"?>
<!-- Generator: Adobe Illustrator 25.2.3, SVG Export Plug-In . SVG Version: 6.00 Build 0)  -->
<svg version="1.1" id="Layer_1" xmlns="http://www.w3.org/2000/svg" xmlns:xlink="http://www.w3.org/1999/xlink" x="0px" y="0px"
	 viewBox="0 0 128 128" style="enable-background:new 0 0 128 128;" xml:space="preserve">
<g>
	<path style="fill:#CC3333;" d="M64,4C30.86,4,4,30.86,4,64s26.86,60,60,60s60-26.86,60-60S97.14,4,64,4z M114,64
		c0.04,11.53-3.96,22.71-11.3,31.6L32.4,25.3C41.29,17.96,52.47,13.96,64,14C91.61,14,114,36.39,114,64z M14,64
		c-0.04-11.53,3.96-22.71,11.3-31.6l70.3,70.3c-8.89,7.34-20.07,11.34-31.6,11.3C36.39,114,14,91.61,14,64z"/>
	<circle style="fill:#F44336;" cx="60.1" cy="63.1" r="56.1"/>
	<path style="fill:#FFFFFF;" d="M95.6,102.7c-8.89,7.34-20.07,11.34-31.6,11.3c-27.61,0-50-22.39-50-50
		c-0.04-11.53,3.96-22.71,11.3-31.6l7.1-7.1C41.29,17.96,52.47,13.96,64,14c27.61,0,50,22.39,50,50c0.04,11.53-3.96,22.71-11.3,31.6
		"/>
	<path style="fill:#231F20;" d="M95.6,102.7c-8.89,7.34-20.07,11.34-31.6,11.3c-27.61,0-50-22.39-50-50
		c-0.04-11.53,3.96-22.71,11.3-31.6l7.1-7.1C41.29,17.96,52.47,13.96,64,14c27.61,0,50,22.39,50,50c0.04,11.53-3.96,22.71-11.3,31.6
		"/>
	<path style="fill:#414042;" d="M96.4,103.2c-20.49,16.74-50.66,13.7-67.4-6.79C14.59,78.78,14.59,53.44,29,35.8l6.8-6.8
		c8.53-7.03,19.25-10.85,30.3-10.8c26.45,0,47.9,21.44,47.9,47.9c0,11.04-3.82,21.75-10.8,30.3"/>
	<circle style="fill:#FAFAFA;" cx="63.9" cy="33.8" r="7.8"/>
	<path style="fill:#FAFAFA;" d="M77.7,65.7c1.37,0.37,2.81-0.36,3.3-1.7l3.2-10.5c0.59-1.55-0.05-3.3-1.5-4.1c0,0-8.9-6.5-18.9-6.6
		c-3.3,0-6.2,0.9-7.5,2.3c-1.1,1.2-5.5,9.5-7,12.3c-0.33,0.63-0.91,1.1-1.6,1.3l-9.6,2.7c-1.13,0.32-1.93,1.33-2,2.5
		c-0.02,1.42,1.11,2.59,2.53,2.61c0.26,0,0.52-0.03,0.77-0.11L51.3,63l0,0c0.08-0.01,0.15-0.05,0.2-0.1c0,0,0.2,0,0.2-0.1
		c0.1-0.12,0.24-0.2,0.4-0.2h0.1c0.31-0.23,0.55-0.54,0.7-0.9L56,55c0.3-0.6,0.9-0.7,0.9,0l-0.2,14.7c-0.01,0.54-0.19,1.06-0.5,1.5
		l-7,8.5c-0.75,0.93-0.94,2.19-0.5,3.3l3.9,15.7c0.4,1.74,2.14,2.83,3.89,2.43c0.04-0.01,0.08-0.02,0.11-0.03
		c1.77-0.43,2.86-2.21,2.43-3.98C59.02,97.08,59.01,97.04,59,97l-3.4-13.7c-0.11-0.49,0-1,0.3-1.4l6.5-8c0.23-0.32,0.61-0.5,1-0.5h1
		c0.68-0.03,1.27,0.49,1.3,1.18c0,0.01,0,0.01,0,0.02c-0.01,2.82,0.26,5.63,0.8,8.4c0.18,0.63,0.45,1.24,0.8,1.8l10.9,15.7
		c1,1.5,3.03,1.91,4.53,0.91c0.29-0.19,0.55-0.43,0.77-0.71c0.98-1.18,1.02-2.87,0.1-4.1l-10-14.5c-0.38-0.61-0.62-1.29-0.7-2
		l-0.5-7.6l0,0V51.6c-0.01-0.35,0.27-0.65,0.62-0.66c0.09,0,0.19,0.02,0.28,0.06l4.9,2c0.31,0.13,0.49,0.47,0.4,0.8L76,62.4
		c-0.46,1.35,0.26,2.81,1.61,3.27C77.64,65.68,77.67,65.69,77.7,65.7z"/>
	<polyline style="opacity:0.8;fill:#231F20;enable-background:new    ;" points="23.4,35.6 95,102.1 97,100.2 30.6,33.4 	"/>
	<path style="fill:#F44336;" d="M103.9,96.8L25.3,18.9L18.2,26l78.6,77.9"/>
	<path style="fill:#FF8A80;" d="M45,10.9c1.7-0.4,4.2-1.6,5.9-1.1c1.09,0.3,1.75,1.4,1.5,2.5c-0.37,0.81-1.12,1.37-2,1.5
		c-3.9,0.97-7.68,2.35-11.3,4.1c-7.18,3.78-13.38,9.19-18.1,15.8c-1.9,2.7-3.4,5.5-5.8,7.8c-0.21,0.23-0.49,0.37-0.8,0.4
		c-0.17,0.03-0.35-0.01-0.5-0.1c-1.2-0.5-1.4-1.1-1.2-2.3c0.18-1.01,0.52-1.99,1-2.9c1.01-1.76,2.11-3.46,3.3-5.1
		c1.89-2.91,4.11-5.59,6.6-8C30.4,17.2,39.2,12.4,45,10.9z"/>
	<polygon style="fill:#CC3333;" points="32.4,25.3 30.4,27.3 101.5,98.4 103.3,96.2 	"/>
</g>
</svg>
