<?xml version="1.0" encoding="UTF-8" standalone="no"?><svg xmlns:dc="http://purl.org/dc/elements/1.1/" xmlns:cc="http://creativecommons.org/ns#" xmlns:rdf="http://www.w3.org/1999/02/22-rdf-syntax-ns#" xmlns:svg="http://www.w3.org/2000/svg" xmlns="http://www.w3.org/2000/svg" viewBox="0 0 45 45" style="enable-background:new 0 0 45 45;" xml:space="preserve" version="1.1" id="svg2"><metadata id="metadata8"><rdf:RDF><cc:Work rdf:about=""><dc:format>image/svg+xml</dc:format><dc:type rdf:resource="http://purl.org/dc/dcmitype/StillImage"/></cc:Work></rdf:RDF></metadata><defs id="defs6"><clipPath id="clipPath16" clipPathUnits="userSpaceOnUse"><path id="path18" d="M 0,36 36,36 36,0 0,0 0,36 Z"/></clipPath></defs><g transform="matrix(1.25,0,0,-1.25,0,45)" id="g10"><g id="g12"><g clip-path="url(#clipPath16)" id="g14"><g transform="translate(15.3159,32.7393)" id="g20"><path id="path22" style="fill:#ffdc5d;fill-opacity:1;fill-rule:nonzero;stroke:none" d="m 0,0 c -1.207,-0.267 1.054,-1.529 0.684,-2.739 -0.252,-0.838 0.225,0 1,0 0,0 0.627,-1.283 0.423,-3.226 C 1.9,-7.905 4.579,-8.581 4.784,-6.638 4.988,-4.697 3.399,-3.65 4.273,-2.138 6.365,1.481 0,0 0,0"/></g><g transform="translate(22,32)" id="g24"><path id="path26" style="fill:#ffdc5d;fill-opacity:1;fill-rule:nonzero;stroke:none" d="m 0,0 c 0,-2.209 -1.791,-4 -4,-4 -2.209,0 -4,1.791 -4,4 0,2.209 1.791,4 4,4 2.209,0 4,-1.791 4,-4"/></g><g transform="translate(26.2079,31.2339)" id="g28"><path id="path30" style="fill:#ffac33;fill-opacity:1;fill-rule:nonzero;stroke:none" d="m 0,0 c -1.037,0.051 -2.041,0.169 -3.756,2.378 -1.14,1.47 -2.205,2.412 -4.84,2.388 -2.798,-0.027 -5.141,-2.407 -3.346,-3.598 0.783,-0.519 1.44,-0.273 2.697,-0.625 C -7.27,-0.01 -6.97,-2.111 -5.186,-2.583 -1.693,-3.505 1.038,-0.051 0,0"/></g><g transform="translate(23.696,15.0069)" id="g32"><path id="path34" style="fill:#f9ca55;fill-opacity:1;fill-rule:nonzero;stroke:none" d="m 0,0 c -0.553,0 -1,0.447 -1,1 0,4.52 -4.661,9.247 -4.708,9.294 -0.389,0.391 -0.389,1.024 0.002,1.414 0.391,0.39 1.023,0.389 1.413,-10e-4 C -4.077,11.491 1,6.352 1,1 1,0.447 0.553,0 0,0"/></g><g transform="translate(15.696,1.0069)" id="g36"><path id="path38" style="fill:#2a6797;fill-opacity:1;fill-rule:nonzero;stroke:none" d="m 0,0 c -1.105,0 -2,0.896 -2,2 l 0,7 c 0,0.348 0.091,0.69 0.264,0.992 l 4,7 c 0.547,0.959 1.77,1.294 2.728,0.744 0.959,-0.548 1.292,-1.769 0.744,-2.728 L 2,8.469 2,2 C 2,0.896 1.104,0 0,0"/></g><g transform="translate(24.697,4.0069)" id="g40"><path id="path42" style="fill:#4289c1;fill-opacity:1;fill-rule:nonzero;stroke:none" d="m 0,0 c -0.587,0 -1.168,0.257 -1.562,0.751 l -4,5 C -5.763,6 -5.899,6.294 -5.962,6.607 l -1,5 c -0.217,1.083 0.485,2.138 1.568,2.354 1.088,0.219 2.138,-0.486 2.354,-1.568 L -2.135,7.869 1.561,3.249 C 2.251,2.387 2.111,1.128 1.248,0.438 0.88,0.144 0.439,0 0,0"/></g><g transform="translate(22.696,17.0069)" id="g44"><path id="path46" style="fill:#9268ca;fill-opacity:1;fill-rule:nonzero;stroke:none" d="m 0,0 c 0,0 0,-1 -2,-1 l -4,0 c -2,6 -0.359,12 2,12 3,0 3,-4 4,-9"/></g><g transform="translate(17.696,24.0098)" id="g48"><path id="path50" style="fill:#ffdc5d;fill-opacity:1;fill-rule:nonzero;stroke:none" d="m 0,0 c -0.001,-0.045 -0.066,-4.552 -3.6,-7.203 l 0.01,-0.014 C -3.833,-7.399 -4,-7.676 -4,-8.003 c 0,-0.553 0.448,-1 1,-1 0.225,0 0.423,0.088 0.59,0.214 L -2.4,-8.803 C 1.95,-5.54 2,-0.228 2,-0.003 L 0,0 Z"/></g><g transform="translate(27.8778,4.9519)" id="g52"><path id="path54" style="fill:#292f33;fill-opacity:1;fill-rule:nonzero;stroke:none" d="M 0,0 C 0.271,0.271 0.16,0.676 -0.129,0.94 -0.592,1.363 -0.802,1.514 -0.802,1.514 -1.057,1.682 -1.675,1.931 -1.932,1.675 -3.805,-0.19 -5.236,-2.856 -5.288,-3.785 -5.319,-4.333 -4.643,-4.64 -4.259,-4.256 -3.126,-3.123 -0.982,-0.981 0,0"/></g><g transform="translate(17.6118,0.097)" id="g56"><path id="path58" style="fill:#292f33;fill-opacity:1;fill-rule:nonzero;stroke:none" d="M 0,0 C 0.383,-0.003 0.594,0.361 0.578,0.753 0.554,1.379 0.514,1.634 0.514,1.634 0.455,1.934 0.199,2.549 -0.165,2.552 -2.807,2.575 -5.711,1.721 -6.408,1.106 -6.82,0.742 -6.564,0.046 -6.021,0.042 -4.418,0.032 -1.388,0.01 0,0"/></g></g></g></g></svg>
