<?xml version="1.0" encoding="UTF-8" standalone="no"?><svg xmlns:dc="http://purl.org/dc/elements/1.1/" xmlns:cc="http://creativecommons.org/ns#" xmlns:rdf="http://www.w3.org/1999/02/22-rdf-syntax-ns#" xmlns:svg="http://www.w3.org/2000/svg" xmlns="http://www.w3.org/2000/svg" viewBox="0 0 45 45" style="enable-background:new 0 0 45 45;" xml:space="preserve" version="1.1" id="svg2"><metadata id="metadata8"><rdf:RDF><cc:Work rdf:about=""><dc:format>image/svg+xml</dc:format><dc:type rdf:resource="http://purl.org/dc/dcmitype/StillImage"/></cc:Work></rdf:RDF></metadata><defs id="defs6"><clipPath id="clipPath16" clipPathUnits="userSpaceOnUse"><path id="path18" d="M 0,36 36,36 36,0 0,0 0,36 Z"/></clipPath></defs><g transform="matrix(1.25,0,0,-1.25,0,45)" id="g10"><g id="g12"><g clip-path="url(#clipPath16)" id="g14"><g transform="translate(11,36)" id="g20"><path id="path22" style="fill:#f4900c;fill-opacity:1;fill-rule:nonzero;stroke:none" d="m 0,0 c -4.418,0 -8,-3.581 -8,-8 l 0,-8 2,0 0,8 c 0,3.314 2.687,6 6,6 3.314,0 6,-2.686 6,-6 l 0,-8 2,0 0,8 C 8,-3.581 4.418,0 0,0"/></g><g transform="translate(1,28)" id="g24"><path id="path26" style="fill:#dd2e44;fill-opacity:1;fill-rule:nonzero;stroke:none" d="m 0,0 2,-2 2,2 2,-2 2,2 2,-2 2,2 2,-2 2,2 2,-2 2,2 0,-23 -20,0 0,23 z"/></g><g transform="translate(25,31)" id="g28"><path id="path30" style="fill:#ffcc4d;fill-opacity:1;fill-rule:nonzero;stroke:none" d="m 0,0 c -4.418,0 -7.999,-3.581 -7.999,-8 l 0,-8 1.999,0 0,8 c 0,3.314 2.687,6 6,6 3.314,0 6,-2.686 6,-6 l 0,-8 2,0 0,8 C 8,-3.581 4.418,0 0,0"/></g><g transform="translate(15,23)" id="g32"><path id="path34" style="fill:#744eaa;fill-opacity:1;fill-rule:nonzero;stroke:none" d="M 0,0 2.001,-2 4,0 l 2,-2 2,2 2,-2 2,2 2,-2 2,2 2,-2 2,2 0,-23 L 0.001,-23 0,0 Z"/></g></g></g></g></svg>
