<?xml version="1.0" encoding="UTF-8" standalone="no"?><svg xmlns:dc="http://purl.org/dc/elements/1.1/" xmlns:cc="http://creativecommons.org/ns#" xmlns:rdf="http://www.w3.org/1999/02/22-rdf-syntax-ns#" xmlns:svg="http://www.w3.org/2000/svg" xmlns="http://www.w3.org/2000/svg" viewBox="0 0 45 45" style="enable-background:new 0 0 45 45;" xml:space="preserve" version="1.1" id="svg2"><metadata id="metadata8"><rdf:RDF><cc:Work rdf:about=""><dc:format>image/svg+xml</dc:format><dc:type rdf:resource="http://purl.org/dc/dcmitype/StillImage"/></cc:Work></rdf:RDF></metadata><defs id="defs6"><clipPath id="clipPath18" clipPathUnits="userSpaceOnUse"><path id="path20" d="M 0,36 36,36 36,0 0,0 0,36 Z"/></clipPath></defs><g transform="matrix(1.25,0,0,-1.25,0,45)" id="g10"><path id="path12" style="fill:#c1694f;fill-opacity:1;fill-rule:nonzero;stroke:none" d="M 1,8 35,8 35,3 1,3 1,8 Z"/><g id="g14"><g clip-path="url(#clipPath18)" id="g16"><g transform="translate(36,1)" id="g22"><path id="path24" style="fill:#c1694f;fill-opacity:1;fill-rule:nonzero;stroke:none" d="m 0,0 c 0,-0.553 -0.447,-1 -1,-1 -0.553,0 -1,0.447 -1,1 l 0,14 c 0,0.553 0.447,1 1,1 0.553,0 1,-0.447 1,-1 L 0,0 Z"/></g><g transform="translate(0,1)" id="g26"><path id="path28" style="fill:#c1694f;fill-opacity:1;fill-rule:nonzero;stroke:none" d="m 0,0 c 0,-0.553 0.447,-1 1,-1 0.553,0 1,0.447 1,1 L 2,22 C 2,22.552 1.553,23 1,23 0.447,23 0,22.552 0,22 L 0,0 Z"/></g><g transform="translate(32,13)" id="g30"><path id="path32" style="fill:#226699;fill-opacity:1;fill-rule:nonzero;stroke:none" d="m 0,0 -28,0 c -1.104,0 -2,-0.895 -2,-2 l 0,-4 32,0 0,4 C 2,-0.895 1.105,0 0,0"/></g><g transform="translate(32,13)" id="g34"><path id="path36" style="fill:#55acee;fill-opacity:1;fill-rule:nonzero;stroke:none" d="m 0,0 -28,0 c -1.104,0 -2,-0.895 -2,-2 l 0,-4 32,0 0,4 C 2,-0.895 1.105,0 0,0"/></g><g transform="translate(2.126,16.0625)" id="g38"><path id="path40" style="fill:#5c913b;fill-opacity:1;fill-rule:nonzero;stroke:none" d="M 0,0 C -0.261,-1.073 1.485,-2.419 3.9,-3.006 6.315,-3.593 8.484,-3.198 8.746,-2.125 9.007,-1.052 7.261,0.294 4.846,0.882 2.431,1.468 0.261,1.074 0,0"/></g></g></g></g></svg>
