<?xml version="1.0" encoding="utf-8"?>
<!-- Generator: Adobe Illustrator 25.2.3, SVG Export Plug-In . SVG Version: 6.00 Build 0)  -->
<svg version="1.1" id="Layer_1" xmlns="http://www.w3.org/2000/svg" xmlns:xlink="http://www.w3.org/1999/xlink" x="0px" y="0px"
	 viewBox="0 0 128 128" style="enable-background:new 0 0 128 128;" xml:space="preserve">
<g>
	<path style="fill:#A65F3E;" d="M27.85,105.5h-19V54.94c5.08,0,14.99,4.12,14.99,4.12c2.41,0.89,4.01,3.18,4.01,5.75V105.5z"/>
	<path style="fill:#784D30;" d="M26.38,95.5V83.06c-2.16,0.11-9.13,0.76-10.88,2.02C12.12,87.5,13,91.82,12.98,95.5H26.38z"/>
	<path style="fill:#C87D5E;" d="M121.91,105.43H12.98V58.99c0-2.24-1.82-4.06-4.06-4.06s-4.06,1.82-4.06,4.06v64.9h6l4.8-9.58h96.7
		l4.8,9.58h6v-17.22C123.15,105.99,122.6,105.43,121.91,105.43z"/>
	<path style="fill:#784D30;" d="M120.46,108.37l-104.17,0.1c-1.49,0-2.91-0.78-2.91-2.32c0,0,106.53-0.77,107.74-0.77
		c1.21,0,2.02,0.05,2.02,1.17C123.14,107.65,122.98,108.37,120.46,108.37z"/>
	<path style="fill:#E0F7FA;" d="M110.47,106.94l-95.61,0.1c-1.49,0-1.88-1.45-1.88-3.11v-7.91c0-1.15,0.84-2.09,1.87-2.09h94.73
		c1.98,0,3.59,1.79,3.59,4v6C113.16,105.59,111.96,106.94,110.47,106.94z"/>
	<path style="fill:#784D30;" d="M59.5,108.42c0,0,21.48,5.89,35.34,5.89c10.98,0,17.51,0,17.51,0l-0.39-7.75L59.5,108.42z"/>
	<polygon style="fill:#784D30;" points="112.35,114.31 117.15,114.31 117.15,121.66 117.15,123.89 	"/>
	<polygon style="fill:#784D30;" points="15.65,114.31 10.85,114.31 10.85,121.66 10.85,123.89 	"/>
	<path style="fill:#E0F7FA;" d="M27.33,93.95c-11.36,0-13.38-5.96-13.38-5.96s3.55-6.57,13.11-6.57s14.52,5.88,14.81,7.84
		C42.49,93.48,38.69,93.95,27.33,93.95z"/>
	<path style="fill:#94D1E0;" d="M13.95,87.99c0.8,1.92,3.81,5.96,13.38,5.96c4.65,0,10.53,0,10.53,0l0.48-5.53
		c0,0-2.91,1.47-11.28,1.71C21.38,90.29,16.46,89.37,13.95,87.99z"/>
</g>
<path id="head" style="fill:#BA8D68;" d="M34.17,71.4c5.86-2.47,11.63,1.3,13.58,5.58c0,0-4.93,4.15-6.14,4.6L34.17,71.4z"/>
<g id="hairGroup">
	<path id="hair" style="fill:#543930;" d="M39.61,86.98c2.79-6.05,7.07-9.02,7.07-9.02l0.24-0.03c-0.35-0.15-0.71-0.25-1.08-0.28
		c-1.09-0.09-2.16,0.34-3.25,0.5s-2.39-0.08-2.9-1.05c-0.34-0.64-0.2-1.49,0.32-1.99c0.52-0.5,1.37-0.61,2-0.25
		c-0.4-1.41-1.84-4.66-6.36-4.39c-3.86,0.24-6.56,2.74-7.72,5.77c-0.9,2.35-0.42,6.6,0.98,7.35c0.29,0.15,0.64,0.23,1.01,0.29
		c0.53,0.08,1.09,0.11,1.55,0.22c1.06,0.25,2.1,0.56,3.13,0.92c1.7,0.59,3.34,1.33,4.92,2.18C39.56,87.13,39.58,87.06,39.61,86.98z"
		/>
	
		<radialGradient id="hairHighlights_1_" cx="38.8553" cy="80.3434" r="12.4282" gradientTransform="matrix(0.9999 -0.0112 9.966101e-03 0.8922 -0.7983 9.0978)" gradientUnits="userSpaceOnUse">
		<stop  offset="0.6407" style="stop-color:#6D4C41;stop-opacity:0"/>
		<stop  offset="1" style="stop-color:#6D4C41"/>
	</radialGradient>
	<path id="hairHighlights" style="fill:url(#hairHighlights_1_);" d="M39.61,86.98c2.79-6.05,7.07-9.02,7.07-9.02l0.24-0.03
		c-0.35-0.15-0.71-0.25-1.08-0.28c-1.09-0.09-2.16,0.34-3.25,0.5s-2.39-0.08-2.9-1.05c-0.34-0.64-0.2-1.49,0.32-1.99
		c0.52-0.5,1.37-0.61,2-0.25c-0.4-1.41-1.84-4.66-6.36-4.39c-3.86,0.24-6.56,2.74-7.72,5.77c-0.9,2.35-0.42,6.6,0.98,7.35
		c0.29,0.15,0.64,0.23,1.01,0.29c0.53,0.08,1.09,0.11,1.55,0.22c1.06,0.25,2.1,0.56,3.13,0.92c1.7,0.59,3.34,1.33,4.92,2.18
		C39.56,87.13,39.58,87.06,39.61,86.98z"/>
</g>
<g>
	<path style="fill:#3DAAE0;" d="M45.75,83.81c0.59-1.09,3.74-5.09,10.05-7.01c8.28-2.52,13.48-2.79,27.07,0.93
		c7.83,2.14,20.4,6.19,28.29,7.87c5.83,1.24,13.2,5.94,12,12.84L45.75,83.81z"/>
	<path style="fill:#188AD6;" d="M51.12,82.94c0.48-0.88,8.88-2.07,18.15,0.1c6.88,1.61,21.71,4.65,32.56,5.6
		c5.56,0.49,17.05,1.7,19.7,4.37c3.89,3.93,3.35,8.88,0.09,16.86c-1.21,2.97-4.48,5.71-4.48,5.71
		c-25.69-2.95-65.26-7.31-72.26-11.07C44.89,104.52,44.8,94.66,51.12,82.94z"/>
	<path style="fill:#B0E0FF;" d="M49.17,88.83c0,0,2.24-3.54,3.09-5.03c3.53-6.24,6.49-7.04,6.49-7.86s-8.89-0.26-11.05,1.09
		c0,0-5.71,1.79-8.1,8.73C39.15,87.06,49.17,88.83,49.17,88.83z"/>
	<path style="fill:#7DBBE3;" d="M41.92,81.42c0,0,2.26-0.57,6.06-0.54c2.84,0.02,5.19,1.41,5.19,1.41
		c-5.47,9.58-6.41,19.56-6.59,22.17c-0.09,1.3-0.48,1.31-1.71,0.91l-7.2-2.05c-1.43-0.6-1.67-1.54-1.67-2.62
		C36,89,41.92,81.42,41.92,81.42z"/>
</g>
</svg>
