<svg xmlns="http://www.w3.org/2000/svg" viewBox="0 0 64 64" enable-background="new 0 0 64 64"><path d="m50.9 36.4c2.2 3.7-4.2 6.6-7.8 6.6-3.6 0-12.4-1.3-10.6-5.2 1.8-4.1 8.9-11.4 12.5-11.4 3.6-.1 3.8 6.4 5.9 10" fill="#fed0ac"/><g fill="#e0a372"><path d="M45.4,31.9C45,33,44,37.6,43,37.8"/><path d="m21.6 32.6l-11.8-.2c0 0 3.5 3.3 4.8 8l7-3.6c-.9-1.6 0-4.2 0-4.2"/></g><path d="m4 31.4c-3.5-5.9-1.2-8.2-1.2-8.2.5-4.4 9.2-7.9 12.6-7.2 7 1.4 6.3 7.6 5.4 8l-8.5 7.3c0 0 2.6 6.6 7 6.3l-8.5 5.1-6.8-11.3" fill="#dbb471"/><path d="m20.2 34.4c-3.1 1-3.7 2.4-8.4-3.7l2.1-1.2c0 0 1.7-.5.1-6.4-.7-2.7.9-6 2.4-4.9 3 2.3 2.2 4 3 4.6 1.5 1.2 2.5 0 3 1 .3.6-.7 1.2-.6 1.4.1.4.6.4 1.2.5.7 0 0 .9.7 1.7.8.9 1.1 1.2 1.1 1.2-.2.5-.8.8-.3 1.4 1 1.3 1.6 2.5-4.3 4.4" fill="#fed0ac"/><path d="m18.6 23.4c-.2-.2-.3-.4-.4-.7-.1-.3-.2-.5-.3-.8-.2-.3-.4-.6-.8-.7-.3-.1-.6-.1-.9 0 .3.1.5.2.7.4.2.1.3.3.4.6.1.2.3.5.4.8.3.1.6.4.9.4" fill="#e0a372"/><path d="m9.8 31.9c1.3 1.3 3 1.6 3.9.7.9-.9.6-2.8-.6-4.1-1.3-1.3-3-1.6-3.9-.7-.9.9-.6 2.7.6 4.1" fill="#fed0ac"/><path d="m10 28.5c.3-.2.7-.2 1.1-.2.4.1.7.3 1 .5.2.2.4.5.5.8.1-.1.2-.2.4-.2-.1.2-.1.3-.1.5 0 .1 0 .3.1.4 0 .1.1.3.2.4.1.1.2.2.4.4-.2.1-.4.1-.6-.1-.2-.1-.3-.4-.4-.6-.1-.2-.1-.5 0-.7 0 0 0-.1.1-.1-.5-.4-1-.7-1.5-.8-.3 0-.6 0-.8 0-.3.1-.6.2-.9.3 0-.2.2-.5.5-.6" fill="#574137"/><path d="m22.8 27.3c.1-.3.3-.6.3-.8.1-.3.1-.5-.3-.8.2 0 .4 0 .6.2.2.2.3.4.3.7 0 .2 0 .4 0 .6.2.1.4.2.6.3.2.2.3.4.4.6.1.2.1.4.1.6-.3-.2-.6-.5-.8-.6-.1 0-.2-.1-.3-.1-.1 0-.3 0-.4 0h-.8l.3-.7" fill="#c94747"/><path d="m15.3 24.1c.4-.1.7 0 1 .1.3.1.7.1 1.1.1.4 0 .8-.1 1.1-.3.3-.2.6-.6.5-1-.6.5-1.1.5-1.8.5-.3 0-.7 0-1 .1-.3-.1-.7.1-.9.5" fill="#574137"/><g fill="#c6bbb3"><path d="m13.1 57.5c0 2.5-.9 4.5-2.9 4.5-2 0-3.4-2.2-2.5-4.5 1.3-3.6 4.5-5.5 6.5-5.5 1.9 0-1.1 3-1.1 5.5"/><path d="m50.9 57.5c0 2.5.9 4.5 2.9 4.5s3.4-2.2 2.5-4.5c-1.3-3.6-4.5-5.5-6.5-5.5-1.9 0 1.1 3 1.1 5.5"/></g><path d="m59.1 40.1c0 18.4-12 18.8-26.9 18.8s-26.8-.4-26.8-18.8h53.7" fill="#e2d8c7"/><path fill="#c6bbb3" d="m5.4 41h53.7v1.2h-53.7z"/><path d="m59.4 41.4h-54.3c-4.1 0-4.1-4.8 0-4.8h54.3c3.5 0 3.5 4.8 0 4.8" fill="#ddd3ca"/><g opacity=".6" fill="#a6aeb0"><path d="m40.3 11.4c-3.6-3.8-1.2-9.4-1.2-9.4s-7.8 7.4-2.9 12.5c5.7 5.9 2.9 9.5 2.9 9.5s7-6.6 1.2-12.6"/><path d="m29.3 14.8c-2.8-2.7-.9-6.8-.9-6.8s-5.8 5.4-2.1 9.1c4.3 4.3 2.1 6.9 2.1 6.9s5.2-4.8.9-9.2"/><path d="m51.3 14.8c-2.8-2.7-.9-6.8-.9-6.8s-5.8 5.4-2.1 9.1c4.3 4.3 2.1 6.9 2.1 6.9s5.2-4.8.9-9.2"/></g></svg>