<?xml version="1.0" encoding="utf-8"?>
<!-- Generator: Adobe Illustrator 25.2.3, SVG Export Plug-In . SVG Version: 6.00 Build 0)  -->
<svg version="1.1" id="Layer_4" xmlns="http://www.w3.org/2000/svg" xmlns:xlink="http://www.w3.org/1999/xlink" x="0px" y="0px"
	 viewBox="0 0 128 128" style="enable-background:new 0 0 128 128;" xml:space="preserve">
<g>
	<path style="fill:#78909C;" d="M49.24,24.95l1.7-8.53c1.13-5.59,1.8-9.5,4.9-11.32c2.04-1.19,4.35-1.42,6.69-0.66
		c5.91,1.91,6.42,13.03,7,27.86l-4.34-3.14c-0.3-10.78-0.4-19.57-3.95-20.72c-1.21-0.39-2.28-0.29-3.28,0.29
		c-2.01,1.18-2.03,4.2-2.9,8.52l-1.7,8.52L49.24,24.95z"/>
	<path style="fill:#78909C;" d="M116.92,115.53c0,0-0.33,1.06-2.1,1.06s-2.1-1.06-2.1-1.06v-11.55l4.2,2.09V115.53z"/>
	<path style="fill:#78909C;" d="M64.74,113.86c0,0-0.55,1.24-2.1,1.24s-2.1-1.24-2.1-1.24V94.01l4.2,5.88V113.86z"/>
	<path style="fill:#82AEC0;" d="M89.84,113.55l28.06-7.03c0,0-0.78-2.15-2.21-2.55l-28.93,7.57L89.84,113.55z"/>
	<path style="fill:#78909C;" d="M87.49,122.94c0,0-0.33,1.06-2.1,1.06c-1.77,0-2.1-1.06-2.1-1.06v-11.02l4.2,2.09V122.94z"/>
	<path style="fill:#82AEC0;" d="M119.23,106.15l-0.33-8.49c0-1.99-1.08-3-2.33-3.71c-1.25-0.71-4.04-1.4-4.04-1.4
		c-8.35-2.89-12.76-7.83-15.66-16.48c-2.21-6.59-10.53-29.47-15.37-41.51c-2.35-5.86-6.52-10.19-11.75-12.21
		c-4-1.54-14.15-3.07-15.28-3.31l-4.12,0.33l-1.59,7.98c3.98,0.82,15.06,3.05,17.52,4c2.7,1.04,4.92,3.46,6.27,6.8
		c4.78,11.9,13,34.48,15.17,40.98c3.94,11.76,11.76,19.33,23.29,22.51l5.02,1.82l0.08,3.57L119.23,106.15z"/>
	<path style="fill:#2F7889;" d="M116.77,98.63c-0.1-1.9-1.39-3.53-3.22-4.06l-2.95-1c-8.35-2.89-12.76-7.78-15.66-16.43
		c-2.21-6.59-10.53-29.47-15.37-41.51c-2.35-5.86-6.52-10.19-11.75-12.21c-4-1.54-16.34-3.82-17.48-4.06l-1.82,9.16
		c3.98,0.82,13.37,2.95,15.83,3.89c2.7,1.04,4.92,3.46,6.27,6.8c4.78,11.9,13,34.48,15.17,40.98c3.94,11.76,11.76,19.33,23.29,22.51
		l7.83,1.27L116.77,98.63z"/>
	<g>
		<path style="fill:#546E7A;" d="M60.54,94.01v6.48c1.24,1.95,2.64,3.71,4.2,5.3v-5.9L60.54,94.01z"/>
		<polygon style="fill:#546E7A;" points="83.29,111.92 83.29,115.28 87.49,116.34 87.49,114.02 		"/>
	</g>
	<path style="fill:#B9E4EA;" d="M73.72,105.52c0.22-0.33,21.96-6.37,21.96-6.37c1.29-0.3,2.63-0.13,3.8,0.5
		c1.66,0.89,5.09,2.04,9.25,3.29c0.69,0.21,0.67,1.19-0.02,1.38l-22.72,6.45L73.72,105.52z"/>
	<path style="fill:#78909C;" d="M41.23,86.23c0,0-0.24,0.98-1.92,1.1c-1.91,0.14-2.4-0.88-2.25-1.64l11.4-58.14l4.12,0.82
		L41.23,86.23z"/>
	<g>
		<path style="fill:#78909C;" d="M46.96,39.69L20.3,46.32l-0.59,2.98l26.53-6.6c0,0,1.65-0.25,1.85-1.52
			C48.26,40.05,47.56,39.52,46.96,39.69z"/>
		<path style="fill:#78909C;" d="M44.72,51.66l-26.78,6.66l-0.59,2.98l26.65-6.63c0,0,1.65-0.25,1.85-1.52
			C46.03,52.02,45.32,51.5,44.72,51.66z"/>
		<path style="fill:#78909C;" d="M42.49,63.63l-26.9,6.68L15,73.29l26.77-6.66c0,0,1.65-0.25,1.85-1.52
			C43.79,63.99,43.09,63.47,42.49,63.63z"/>
		<path style="fill:#78909C;" d="M40.25,75.6l-27.03,6.71l-0.59,2.98l26.9-6.68c0,0,1.65-0.25,1.85-1.52
			C41.56,75.97,40.85,75.44,40.25,75.6z"/>
	</g>
	<path style="fill:#546E7A;" d="M46.04,39.92l-17.5,4.41c1.43,0.38,2.63,0.73,3.35,1.01c0.52,0.2,1.04,0.4,1.54,0.6l12.02-3.05
		l-1.77,9.03l-4.09,1.02c0.31,0.83,0.63,1.69,0.96,2.59l2.54-0.64l-0.83,4.28c0.89,2.44,1.82,5.05,2.76,7.72l7.55-38.51l-4.12-0.82
		L46.04,39.92z"/>
	<path style="fill:#94D1E0;" d="M87.5,111.65c0,0-9.71,0.37-18.28-8.2c-9.87-9.87-26.48-58.15-31.39-60.92
		c-7.69-4.34-14.32-8.7-14.32-8.7l24.69-6.28c0,0,10.45,1.55,16.42,4.07c1.49,0.63,4.37,2.02,6.87,8.44
		c4.11,10.58,10.03,28.12,15.23,40.16c3,6.95,5.48,11.39,7.98,13.32c11.12,8.56,22.06,10.44,22.06,10.44L87.5,111.65z"/>
	<path style="fill:#66B7C4;" d="M97.13,95.33c-0.35-0.26-1.93-1.51-2.28-1.78c-2.5-1.92-4.97-6.37-7.98-13.32
		c-5.2-12.03-11.12-29.58-15.23-40.16c-0.72-1.86-1.61-3.25-2.36-4.37l-25.04,6.34l22.46,58.08c0.7,1.02,1.37,1.9,2.03,2.64
		L97.13,95.33z"/>
	<path style="fill:#B0F2F7;" d="M90.14,113.44l-0.32-8.49c-0.06-1.71-1.28-3.17-2.95-3.54l-2.28-0.51
		c-8.31-2.29-13.76-6.64-16.66-15.29c-2.21-6.6-10.53-29.48-15.37-41.51c-2.35-5.86-6.52-10.19-11.75-12.21
		c-4-1.54-14-3.62-15.25-3.88l-3.37,0.52l0.33,8.69c4.43,0.92,12.37,2.72,14.82,3.67c2.7,1.04,4.92,3.46,6.27,6.8
		c4.78,11.89,13,34.47,15.17,40.98c3.94,11.76,11.76,19.33,23.29,22.5l5.39,0.86l0.08,2.17L90.14,113.44z"/>
	<path style="fill:#94D1E0;" d="M87.25,107.27c-0.08-1.96-1.43-3.65-3.33-4.15l-1.62-0.43c-8.31-2.29-13.76-7.61-16.66-16.26
		c-2.21-6.6-10.53-29.48-15.37-41.51c-2.35-5.86-6.52-10.19-11.75-12.21c-4-1.54-15.08-3.86-16.34-4.12l-1.96,9.44
		c4.43,0.92,12.37,2.72,14.82,3.67c2.7,1.04,5.28,1.95,6.05,3.91c4.72,11.91,13.21,37.37,15.39,43.87
		c3.94,11.76,11.76,19.33,23.29,22.5l7.76,2.2L87.25,107.27z"/>
	<path style="fill:#78909C;" d="M12.98,93.47c0,0-0.28,1.07-2.13,1.2c-0.55,0.04-0.98-0.05-1.3-0.19c-0.58-0.24-0.87-0.9-0.75-1.51
		l13.17-67.41c1.13-5.59,1.8-9.5,4.9-11.32c2.04-1.19,4.35-1.42,6.69-0.66c6.16,1.99,6.6,16.53,7.23,32.41c0,0-1.51,0.37-2.69-0.23
		s-1.19-1.89-1.19-1.89c-0.49-11.84-0.53-24.96-4.64-26.29c-1.21-0.39-2.28-0.29-3.28,0.29c-2.01,1.18-2.03,4.2-2.9,8.52
		L12.98,93.47z"/>
	<polygon style="fill:#546E7A;" points="112.79,107.81 112.79,109.66 116.92,108.77 116.92,106.8 	"/>
	<path style="fill:#CFD8DC;" d="M25.45,18.79c-0.48-0.24-0.48-1.01-0.24-1.47c0.86-1.63,2.6-2.68,4.43-2.86
		c0.9-0.09,1.05,0.1,1.17,0.43c0.17,0.48-0.35,0.82-0.85,0.95c-1.47,0.41-2.55,1.28-3.1,2.35C26.49,18.92,25.93,19.03,25.45,18.79z"
		/>
</g>
</svg>
