<?xml version="1.0" encoding="utf-8"?>
<!-- Generator: Adobe Illustrator 25.2.3, SVG Export Plug-In . SVG Version: 6.00 Build 0)  -->
<svg version="1.1" id="Layer_2" xmlns="http://www.w3.org/2000/svg" xmlns:xlink="http://www.w3.org/1999/xlink" x="0px" y="0px"
	 viewBox="0 0 128 128" style="enable-background:new 0 0 128 128;" xml:space="preserve">
<g>
	<path style="fill:#DD2C00;" d="M64.03,9.51c-33.19,0-58,27.24-58,58.71s24.99,55.26,58,55.26c34.01,0,58.09-23.64,58.09-55.11
		S104.26,9.51,64.03,9.51z M63.87,90.86c-14.79,0-26.77-11.99-26.77-26.77s11.99-26.77,26.77-26.77s26.77,11.99,26.77,26.77
		S78.65,90.86,63.87,90.86z"/>
	<path style="fill:#FF3D00;" d="M64.08,4.92C30.85,4.92,6,30.72,7.04,61.97c1.05,31.49,21.79,57.05,57.05,57.05
		c36.52,0,57.05-25.54,57.05-57.05S99.84,4.92,64.08,4.92z M63.87,92.43c-16.74,0-30.31-13.57-30.31-30.31s13.57-30.31,30.31-30.31
		s30.31,13.57,30.31,30.31S80.61,92.43,63.87,92.43z"/>
	<g style="opacity:0.88;">
		<path style="fill:#FF9E80;" d="M19.13,39.97c-1.34-0.5-1.26-2.81-0.67-4.34c4.45-11.55,12.19-18.15,24.61-22.56
			c2.54-0.9,3.84-0.45,4.31,1.18c0.45,1.58-0.68,2.65-2.2,3.3c-9.46,4.06-17.58,11.64-22.3,20.79
			C22.36,39.35,20.81,40.59,19.13,39.97z"/>
	</g>
	<path style="fill:#E0E0E0;" d="M74.35,6.1c-0.2-0.69-0.47-1.12-1.16-1.3C71.85,4.46,69.1,4,64.07,4c-5.03,0-7.78,0.46-9.12,0.8
		c-0.69,0.18-0.88,0.49-1.08,1.18c-0.54,1.84-1.55,4.91-1.34,12.93c0.2,7.74,2.71,15.7,2.71,15.7c0.17,0.36,4.34,0.51,8.83,0.51
		c4.49,0.01,8.66-0.15,8.83-0.51c0,0,2.21-7.78,2.21-15.63C75.11,12.06,74.89,7.94,74.35,6.1z"/>
	<path style="fill:#E0E0E0;" d="M73.17,91.19c-0.33-0.69-0.86-1.32-1.73-1.59c-0.39-0.12-0.8-0.11-1.19,0.01
		c-1.02,0.34-2.47,0.77-6.18,0.77c-3.71,0-5.15-0.43-6.18-0.77c-0.39-0.13-0.8-0.13-1.19-0.01c-0.87,0.26-1.4,0.9-1.73,1.59
		c0,0-2.02,2.93-2.02,14.49c0,5.8,0.44,10.33,0.75,12.74c0.16,1.25,0.73,2.25,0.73,2.25s4.9,0.76,9.65,0.7
		c4.75,0.06,9.37-0.87,9.37-0.87s0.7-0.79,0.87-1.96c0.35-2.38,0.88-6.96,0.88-12.86C75.19,94.11,73.17,91.19,73.17,91.19z"/>
	<path style="fill:#9E9E9E;" d="M74.15,119.63c0.15-0.69-0.34-0.7-1.06-0.6c-1.55,0.21-4.62,0.79-9.28,0.79
		c-4.53,0-7.24-0.56-8.76-0.77c-0.75-0.1-1.25,0.12-1.04,0.83c0.35,1.19,1.02,3.17,2.04,3.51c0,0,3.44,0.62,7.95,0.62
		c6,0,8.33-0.63,8.33-0.63C73.12,123.12,73.87,120.97,74.15,119.63z"/>
	<path style="fill:#9E9E9E;" d="M55.08,34.79c0.41,1.44,1.8,3.29,1.8,3.29c0.38,0.48,0.77,0.51,1.56,0.35
		c1.26-0.25,3.13-0.74,5.65-0.74c2.53,0,4.32,0.47,5.62,0.73c0.8,0.16,1.1,0.03,1.44-0.3c0,0,1.52-2.32,1.88-3.28
		c0.18-0.49,0.1-0.89-1.15-1.36c-1.44-0.54-3.69-1.2-7.85-1.2c-4.12,0-6.29,0.62-7.71,1.09C55.29,33.7,54.89,34.12,55.08,34.79z"/>
	<path style="fill:#E0E0E0;" d="M8.38,53.11c-0.7,0.16-1.24,0.63-1.43,1.25c-0.37,1.19-0.66,2.52-0.8,7.02
		c-0.13,4.51,0.28,8.42,0.58,9.63c0.08,0.31,0.1,1.04,0.61,0.86c0.83-0.29,2.42-1.35,13.16-1.89c5.97-0.3,12.63,0.35,14.55,0.47
		c1.16,0.07,2.32-0.3,2.32-0.3c0.36-0.14-0.9-3.85-0.79-7.87c0.13-4.02,0.81-7.34,0.81-7.34s-0.63-0.77-2.2-1.35
		c-1.24-0.46-6.21-1.99-12.97-2.15C11.73,51.2,8.38,53.11,8.38,53.11z"/>
	<path style="fill:#9E9E9E;" d="M35.18,54.5c0.16-0.47,0.81-0.63,1.23-0.32c0,0,1.35,0.88,1.82,1.51c0.47,0.64,0.58,0.76,0.45,1.21
		c-0.25,0.88-1,3.33-1,6.36c0,2.93,0.59,5.11,0.67,6.29c0.03,0.44-0.23,0.59-1.34,0.75c-0.39,0.06-1.57,0.39-1.92-0.77
		c-0.37-1.26-1-3.9-1.01-7.31C34.07,58.49,34.74,55.78,35.18,54.5z"/>
	<path style="fill:#E0E0E0;" d="M119.62,52.69c0.7,0.17,1.24,0.66,1.43,1.31c0.37,1.25,0.66,2.64,0.8,7.36
		c0.13,4.72-0.28,8.82-0.58,10.09c-0.08,0.33-0.28,0.73-0.82,0.71s-3.47-1.8-14.21-2.23c-10.01-0.41-14.87,1.18-14.87,1.18
		c-0.36-0.15,0.16-4.59,0.05-8.81c-0.13-4.21-0.81-7.69-0.81-7.69s0.63-0.8,2.2-1.41c1.24-0.48,6.21-2.09,12.97-2.25
		C116.27,50.69,119.62,52.69,119.62,52.69z"/>
	<path style="fill:#BDBDBD;" d="M92.82,54.15c-0.16-0.49-0.81-0.66-1.23-0.33c0,0-1.35,0.92-1.82,1.59
		c-0.47,0.67-0.58,0.8-0.45,1.27c0.25,0.92,1,3.49,1,6.67c0,3.07-0.79,6.43-0.86,7.67c-0.03,0.46,0.8,0.11,1.92,0.1
		c0.55,0,1.19,0.01,1.53-1.2c0.37-1.32,1-4.09,1.01-7.66C93.94,58.33,93.27,55.49,92.82,54.15z"/>
	<path style="fill:#BDBDBD;" d="M71.5,89.62c-0.36-0.12-0.96-0.1-1.32,0.02c-1.02,0.34-2.48,0.75-6.11,0.75
		c-3.61,0-5.08-0.41-6.1-0.75c-0.38-0.13-0.79-0.17-1.18-0.07c-0.65,0.18-1.31,0.59-1.79,1.39c-0.31,0.53-0.02,1.22,0.57,1.38
		c1.77,0.48,4.51,0.94,8.45,0.87c3.74-0.07,6.56-0.49,8.5-0.91c0.61-0.13,0.93-0.85,0.6-1.39C72.7,90.22,72.09,89.81,71.5,89.62z"/>
	<g>
		<path style="fill:#BDBDBD;" d="M6.12,72.17c-1.39-5.94-1.01-11.82,0.24-16.98c0.26-1.07,0.83-1.76,1.29-1.76
			c0,0-0.02,0.25-0.14,0.75c-1.25,5.33-0.86,11.5,0.12,16.94c0.09,0.51-0.12,0.68-0.45,0.86c-0.17,0.1-0.35,0.21-0.49,0.3
			C6.2,72.62,6.12,72.17,6.12,72.17z"/>
	</g>
	<g>
		<path style="fill:#9E9E9E;" d="M121.88,72.66c1.39-6.23,1.01-12.38-0.24-17.79c-0.26-1.12-0.83-1.84-1.29-1.84
			c0,0,0.02,0.26,0.14,0.78c1.25,5.59,0.86,12.05-0.12,17.75c-0.09,0.54,0.12,0.71,0.45,0.9c0.17,0.1,0.35,0.22,0.49,0.31
			C121.8,73.13,121.88,72.66,121.88,72.66z"/>
	</g>
</g>
</svg>
