<?xml version="1.0" encoding="utf-8"?>
<!-- Generator: Adobe Illustrator 25.2.3, SVG Export Plug-In . SVG Version: 6.00 Build 0)  -->
<svg version="1.1" id="Layer_2" xmlns="http://www.w3.org/2000/svg" xmlns:xlink="http://www.w3.org/1999/xlink" x="0px" y="0px"
	 viewBox="0 0 128 128" style="enable-background:new 0 0 128 128;" xml:space="preserve">
<path style="fill:#FFA72B;" d="M66.87,22.9c0,0,1.77-1.09,1.79-3.5c0.02-2.64-2.09-3.43-2.09-3.43s1.31-0.54,1.33-2.17
	c0.02-1.74-2.25-2.17-2.25-2.17s1.12-1.35,1.04-3.61c-0.08-2.33-1.94-4.99-2.57-5.05c-0.31-0.03-0.22,9-0.22,9l-0.44,10.49l3.1,3.69
	L66.87,22.9z"/>
<path style="fill:#FFC020;" d="M61.31,22.77c0,0-2.06-1.25-1.92-3.55c0.17-2.74,2.66-3.32,2.66-3.32s-1.81-0.59-1.7-2.14
	c0.15-1.99,2.44-2.22,2.44-2.22s-1.1-1.18-0.96-3.4c0.22-3.62,2.29-5.17,2.29-5.17l0.08,20.76L61.31,22.77z"/>
<path style="fill:#8C1B0D;" d="M50.94,28.54c0,0,2.7-7.05,12.95-7c11.34,0.06,13.18,7.34,13.18,7.34l-16.84,3.13L50.94,28.54z"/>
<polygon style="fill:#513630;" points="51.72,33.3 51.67,37.83 64.6,39.06 76.35,38.71 76.39,33.44 "/>
<path style="fill:#D35113;" d="M47.61,31.38c-0.01,2.11,1.64,2.97,3.65,3.02c2.02,0.06,24.49-0.21,26.6-0.25
	c2.11-0.04,2.43-1.87,2.45-3.05c0.02-1.57-1.04-2.73-2.66-2.8c-1.62-0.06-25.87,0.09-27.15,0.12
	C49.22,28.44,47.61,29.46,47.61,31.38z"/>
<polygon style="fill:#A62714;" points="24.88,116.41 25.08,96.8 27.49,96.39 27.39,86.02 30.1,85.76 30.1,76.88 32.05,75.27 
	31.97,67.82 33.83,67.14 33.91,59.35 39.67,58.84 38.23,118.37 "/>
<polygon style="fill:#A62714;" points="89.46,60.87 93.61,61.38 93.52,67.65 95.39,69 95.3,76.96 97.08,78.23 97.08,86.28 
	99.03,88.14 99.11,96.44 101.06,98.13 100.97,117.27 87.75,117.61 "/>
<path style="fill:#503730;" d="M89.87,62.41l3.84,0.1c0,0,2.34-1.1,2.26-3.5c-0.14-3.93-4.85-5.95-4.85-5.95s1.1-0.38,1.01-2.16
	c-0.08-1.39-1.1-2.02-2.21-2.06c-1.1-0.05-2.06,0.91-2.06,1.87S89.87,62.41,89.87,62.41z"/>
<path style="fill:#503730;" d="M39.92,53.39l-0.69-1.12c0,0,0.62-0.41,0.62-2.02c0-0.82-0.66-1.94-2.1-1.94
	c-1.44,0-2.19,1.05-2.19,2.16c0,1.2,1,2,1,2s-5.02,2.28-4.94,5.85c0.05,2.21,2.06,2.54,2.06,2.54l5.28,0.14L39.92,53.39z"/>
<path style="fill:#503730;" d="M37.65,65.64c0,0-5.52-0.16-6-0.11s-1.36,0.78-1.32,1.81c0.05,1.03,0.71,1.57,1.57,1.63
	s5.95,0.16,5.95,0.16L37.65,65.64z"/>
<path style="fill:#503730;" d="M37.02,74.2l-7.6-0.27c0,0-1.5,0.1-1.53,1.83c-0.03,1.74,1.68,1.72,1.68,1.72l7.82,0.28L37.02,74.2z"
	/>
<path style="fill:#503730;" d="M36.85,84.11c0,0-9.79-0.28-10.75-0.28s-1.49,0.72-1.49,1.72c0,1,0.62,1.72,1.68,1.77
	c1.06,0.06,10.51,0.28,10.51,0.28L36.85,84.11z"/>
<path style="fill:#503730;" d="M36.99,95.41c0,0-12.38-0.27-12.96-0.27s-1.44,0.44-1.54,1.7s0.53,1.81,1.63,1.87
	c0.73,0.04,13.48,0.38,13.48,0.38L36.99,95.41z"/>
<path style="fill:#503730;" d="M90.2,66.92c0,0,4.29,0.05,5.27,0.15c0.98,0.1,1.67,0.81,1.67,1.58c0,0.77-0.64,1.84-1.8,1.84
	c-1.16,0-6.47,0.1-6.47-0.05S90.2,66.92,90.2,66.92z"/>
<path style="fill:#503730;" d="M90.03,75.33c0,0,6.35,0.17,7.38,0.23c1.3,0.08,1.85,0.84,1.85,1.7s-0.75,1.77-1.95,1.72
	c-1.21-0.05-9.02-0.09-9.02-0.09L90.03,75.33z"/>
<path style="fill:#503730;" d="M89.96,85.08c0,0,8.41,0.02,8.94,0.06c0.54,0.04,2.41,0.28,2.4,1.77c-0.01,1.43-1.34,1.79-2.28,1.79
	s-9.64-0.04-9.64-0.04L89.96,85.08z"/>
<path style="fill:#503730;" d="M89.81,95.85c0,0,11.46,0,12.49,0.06c1.34,0.08,1.77,0.92,1.75,1.68c-0.02,0.65-0.27,1.56-1.92,1.61
	c-1.65,0.04-13.21,0-13.21,0L89.81,95.85z"/>
<path style="fill:#D55113;" d="M51.36,37.65c0.19-0.01,24.68,0.1,24.68,0.1s5.42,1.77,11.08,11.13c4.76,7.88,3.98,17.96,3.98,29.61
	s-0.45,37.5-0.45,37.5l-26.84,3.95l-27.49-3.66c0,0-0.13-26.05-0.13-38.16s1.89-24.33,5.91-30.61
	C46.66,40.36,51.36,37.65,51.36,37.65z"/>
<g>
	<path style="fill:#FA8960;" d="M77.68,40.12c-0.01,0-0.01,0-0.02,0l-5.18-0.08c-0.72-0.01-1.3-0.61-1.29-1.33
		c0.01-0.72,0.59-1.29,1.31-1.29c0.01,0,0.01,0,0.02,0l5.18,0.08c0.72,0.01,1.3,0.61,1.29,1.33C78.98,39.54,78.4,40.12,77.68,40.12z
		"/>
</g>
<g>
	<path style="fill:#FA8960;" d="M56.42,39.67h-5.48c-0.72,0-1.31-0.59-1.31-1.31c0-0.72,0.59-1.31,1.31-1.31h5.48
		c0.72,0,1.31,0.59,1.31,1.31C57.73,39.08,57.15,39.67,56.42,39.67z"/>
</g>
<g>
	<path style="fill:#FA8960;" d="M49.59,46.65c-0.01,0-0.01,0-0.02,0l-5.33-0.07c-0.72-0.01-1.3-0.61-1.29-1.33
		c0.01-0.72,0.63-1.31,1.33-1.29l4.13,0.06l0.11-1.13c0.07-0.68,0.6-1.2,1.33-1.18l7.74,0.15c0.72,0.01,1.3,0.61,1.28,1.34
		c-0.01,0.72-0.58,1.31-1.34,1.28L51,44.35l-0.11,1.12C50.83,46.14,50.26,46.65,49.59,46.65z"/>
</g>
<g>
	<path style="fill:#FA8960;" d="M84.52,46.8c-0.01,0-0.01,0-0.02,0l-5.97-0.07c-0.67-0.01-1.23-0.52-1.29-1.19l-0.08-0.93
		l-6.64-0.13c-0.72-0.01-1.3-0.61-1.28-1.34c0.01-0.72,0.6-1.33,1.34-1.28l7.81,0.15c0.67,0.01,1.22,0.53,1.28,1.19l0.08,0.92
		l4.79,0.06c0.72,0.01,1.3,0.6,1.29,1.33C85.82,46.23,85.23,46.8,84.52,46.8z"/>
</g>
<g>
	<path style="fill:#FA8960;" d="M69.65,42.72c0,0-0.01,0-0.01,0l-10.9-0.12c-0.72-0.01-1.3-0.6-1.3-1.33
		c0.01-0.72,0.6-1.31,1.33-1.3l10.89,0.12c0.72,0.01,1.3,0.6,1.3,1.33C70.95,42.14,70.37,42.72,69.65,42.72z"/>
</g>
<g>
	<path style="fill:#FA8960;" d="M45.91,54.09c-0.01,0-0.02,0-0.04,0l-5.48-0.15c-0.72-0.02-1.29-0.62-1.27-1.35
		c0.02-0.72,0.61-1.28,1.35-1.27l4.18,0.11l0.03-1.03c0.02-0.72,0.62-1.28,1.35-1.27l8.04,0.23c0.72,0.02,1.29,0.62,1.27,1.35
		c-0.02,0.72-0.63,1.28-1.35,1.27l-6.73-0.19l-0.03,1.02C47.2,53.53,46.61,54.09,45.91,54.09z"/>
</g>
<g>
	<path style="fill:#FA8960;" d="M43.28,62.5c-0.01,0-0.02,0-0.04,0l-5.63-0.15c-0.72-0.02-1.29-0.62-1.27-1.35
		c0.02-0.72,0.64-1.27,1.35-1.27l4.34,0.12l0.03-0.73c0.03-0.72,0.59-1.27,1.35-1.26l7.89,0.23c0.72,0.02,1.29,0.62,1.27,1.35
		c-0.02,0.72-0.62,1.28-1.35,1.27l-6.59-0.19l-0.03,0.73C44.56,61.95,43.98,62.5,43.28,62.5z"/>
</g>
<g>
	<path style="fill:#FA8960;" d="M41.85,71.44h-5.11c-0.72,0-1.31-0.59-1.31-1.31s0.59-1.31,1.31-1.31h3.8v-1.09
		c0-0.72,0.59-1.31,1.31-1.31h8.26c0.72,0,1.31,0.59,1.31,1.31c0,0.72-0.59,1.31-1.31,1.31h-6.95v1.09
		C43.16,70.85,42.58,71.44,41.85,71.44z"/>
</g>
<g>
	<path style="fill:#FA8960;" d="M41.93,80.38c0,0-0.01,0-0.01,0l-5.67-0.06c-0.72-0.01-1.3-0.6-1.3-1.32
		c0.01-0.73,0.59-1.3,1.33-1.3l4.34,0.05v-1c0-0.35,0.14-0.69,0.39-0.93c0.25-0.25,0.58-0.36,0.94-0.38l11.87,0.15
		c0.72,0.01,1.3,0.6,1.29,1.33c-0.01,0.72-0.59,1.29-1.31,1.29c-0.01,0-0.01,0-0.02,0l-10.54-0.13v1c0,0.35-0.14,0.69-0.39,0.93
		C42.6,80.24,42.27,80.38,41.93,80.38z"/>
</g>
<g>
	<path style="fill:#FA8960;" d="M82.95,54.6c-0.72,0-1.3-0.58-1.31-1.29l-0.01-1.05l-7.28-0.1c-0.72-0.01-1.3-0.6-1.29-1.33
		c0.01-0.72,0.59-1.29,1.31-1.29c0.01,0,0.01,0,0.02,0l8.56,0.12c0.71,0.01,1.28,0.58,1.29,1.29l0.01,1.03l4.18-0.03
		c0,0,0.01,0,0.01,0c0.72,0,1.3,0.58,1.31,1.3c0.01,0.72-0.58,1.31-1.3,1.32l-5.49,0.04C82.96,54.6,82.96,54.6,82.95,54.6z"/>
</g>
<g>
	<path style="fill:#FA8960;" d="M90.22,62.96c-0.01,0-0.01,0-0.02,0l-5.63-0.07c-0.72-0.01-1.29-0.6-1.29-1.31l0-0.73l-6.59-0.07
		c-0.72-0.01-1.3-0.6-1.3-1.32c0.01-0.72,0.59-1.3,1.31-1.3c0,0,0.01,0,0.01,0l7.89,0.09c0.72,0.01,1.3,0.59,1.3,1.31l0,0.73
		l4.34,0.06c0.72,0.01,1.3,0.6,1.29,1.33C91.52,62.38,90.94,62.96,90.22,62.96z"/>
</g>
<g>
	<path style="fill:#FA8960;" d="M90.45,71.9c-0.01,0-0.03,0-0.04,0l-5.11-0.15c-0.72-0.02-1.29-0.62-1.27-1.35l0.03-1.09l-6.95-0.2
		c-0.72-0.02-1.29-0.62-1.27-1.35c0.02-0.71,0.6-1.27,1.31-1.27c0.01,0,0.03,0,0.04,0l8.26,0.24c0.72,0.02,1.29,0.62,1.27,1.35
		l-0.03,1.09l3.8,0.11c0.72,0.02,1.29,0.62,1.27,1.35C91.74,71.34,91.16,71.9,90.45,71.9z"/>
</g>
<g>
	<path style="fill:#FA8960;" d="M90.92,80.99c-0.01,0-0.02,0-0.04,0l-5.56-0.15c-0.72-0.02-1.28-0.61-1.27-1.33l0.01-1l-10.54-0.02
		c-0.72,0-1.31-0.59-1.31-1.31c0-0.72,0.59-1.31,1.31-1.31c0,0,0,0,0,0l11.87,0.02c0.35,0,0.69,0.14,0.93,0.39
		c0.25,0.25,0.38,0.59,0.38,0.94l-0.01,1.04l4.26,0.12c0.72,0.02,1.29,0.62,1.27,1.35C92.21,80.43,91.63,80.99,90.92,80.99z"/>
</g>
<g>
	<path style="fill:#FA8960;" d="M73.55,50.11c-0.01,0-0.02,0-0.03,0L54.9,49.73c-0.72-0.01-1.3-0.61-1.28-1.34
		c0.01-0.72,0.62-1.33,1.34-1.28l18.63,0.38c0.72,0.01,1.3,0.61,1.28,1.34C74.85,49.54,74.26,50.11,73.55,50.11z"/>
</g>
<g>
	<path style="fill:#FA8960;" d="M76.85,67.61c-0.01,0-0.02,0-0.02,0l-26.44-0.45c-0.72-0.01-1.3-0.61-1.29-1.33
		c0.01-0.72,0.6-1.29,1.31-1.29c0.01,0,0.02,0,0.02,0l26.44,0.45c0.72,0.01,1.3,0.61,1.29,1.33C78.15,67.04,77.57,67.61,76.85,67.61
		z"/>
</g>
<g>
	<path style="fill:#FA8960;" d="M90.45,104.12c-0.01,0-0.01,0-0.02,0l-53.97-0.69c-0.72-0.01-1.3-0.6-1.29-1.33
		c0.01-0.72,0.58-1.34,1.33-1.29l53.97,0.69c0.72,0.01,1.3,0.6,1.29,1.33C91.76,103.55,91.17,104.12,90.45,104.12z"/>
</g>
<g>
	<path style="fill:#FA8960;" d="M90.07,115.37C90.07,115.37,90.07,115.37,90.07,115.37l-54.45-0.35c-0.72,0-1.31-0.59-1.3-1.32
		c0-0.72,0.59-1.3,1.31-1.3c0,0,0.01,0,0.01,0l54.44,0.35c0.72,0,1.31,0.59,1.3,1.32C91.38,114.79,90.79,115.37,90.07,115.37z"/>
</g>
<path style="fill:#EE6D33;" d="M61.22,59.74c-0.16,0.24-15.15,29.11-15.15,29.11l-0.58,28.41l35.54,0.46l0.61-26.2L66.97,59.74
	H61.22z"/>
<path style="fill:#FDBBA0;" d="M58.75,63.08c-0.29,0.08-3.33,5-3.08,5.42c0.12,0.21,3.93,0.26,8.03,0.26c4.23,0,8.22,0.13,8.29,0
	c0.13-0.26-2.35-5.38-2.61-5.51C69.13,63.13,59.05,63,58.75,63.08z"/>
<path style="fill:#FDBBA0;" d="M53.88,71.28c-0.38,0.21-4.74,7.73-4.48,8.07c0.23,0.31,6.89,0.25,13.67,0.34
	c7.09,0.1,14.3,0.34,14.44,0.21c0.26-0.26-3.76-8.11-4.19-8.33c-0.21-0.1-4.81-0.18-9.44-0.26C59,71.25,54.08,71.18,53.88,71.28z"/>
<polygon style="fill:#8B200D;" points="44.91,91.15 44.53,116.29 46.96,116.17 47.33,90.03 "/>
<polygon style="fill:#8B200D;" points="80.13,91.84 80.13,116.91 82.8,116.23 82.8,91.21 "/>
<path style="fill:#FDBBA0;" d="M47.65,82.82c-0.63,0.4-4.87,8.41-4.57,8.8c0.15,0.19,10.07,0.23,20.16,0.34
	c10.43,0.12,21.03,0.3,21.14,0.17c0.21-0.26-4.83-8.58-5.17-8.8C78.87,83.11,47.99,82.6,47.65,82.82z"/>
<path style="fill:#EE6D33;" d="M15.75,114.91c-0.92,0.46-1.01,8.71-0.57,9.44c0.44,0.73,94.4,0.63,95.12,0.34s0.28-8.71-0.15-9.29
	c-0.11-0.15-23.97-0.07-47.73-0.18C39.14,115.1,15.97,114.8,15.75,114.91z"/>
<path style="fill:#51362F;" d="M53.02,97.23c-0.14,0.24-0.38,18.84-0.38,18.84l21.34-0.01c0,0,0.39-18.14,0.26-18.45
	C74.11,97.29,53.21,96.91,53.02,97.23z"/>
<path style="fill:#FA8960;" d="M51.83,115.87c-0.06,0.62,0,3.87,0,3.87s-1.19-0.06-1.25,0.11c-0.14,0.38-0.01,3.35-0.01,3.35
	l24.91,1.16c0,0,0.11-4.08-0.1-4.25c-0.15-0.12-0.99-0.1-0.99-0.1s0.17-4-0.14-4c-0.85,0.01-6.04,0.02-11.62-0.07
	C57.08,115.87,51.84,115.77,51.83,115.87z"/>
<polygon style="fill:#D05314;" points="50.6,124.88 75.48,125.02 75.51,122.51 50.53,122.32 "/>
<polygon style="fill:#D05314;" points="51.78,117.86 74.45,118.07 74.4,120.02 51.82,119.75 "/>
<g>
	<path style="fill:#FA8960;" d="M76.43,58.82c-0.01,0-0.02,0-0.03,0l-25.3-0.48c-0.72-0.01-1.3-0.61-1.28-1.34
		c0.01-0.72,0.62-1.33,1.34-1.28l25.3,0.48c0.72,0.01,1.3,0.61,1.29,1.34C77.72,58.25,77.14,58.82,76.43,58.82z"/>
</g>
<path style="fill:#FDBBA0;" d="M59.84,58.35c0,0,1.12-2.65,4.22-2.69c3.33-0.04,4.66,2.85,4.66,2.85s1.52,0.39,1.77,1.49
	c0.16,0.72-0.21,1.28-1.56,1.27c-0.94-0.01-2.33-0.01-4.79-0.06c-2.21-0.05-3.8-0.07-4.74-0.09c-1.17-0.02-1.82-0.51-1.6-1.43
	C58.08,58.44,59.84,58.35,59.84,58.35z"/>
<path style="fill:#FDBBA0;" d="M64.22,51.81c-1.45,0-2.01,1.04-2.01,2.17s0.76,2.01,2.13,2.01c1.37,0,1.97-0.96,2.01-2.13
	C66.37,52.97,65.42,51.81,64.22,51.81z"/>
</svg>
