<?xml version="1.0" encoding="utf-8"?>
<!-- Generator: Adobe Illustrator 25.2.3, SVG Export Plug-In . SVG Version: 6.00 Build 0)  -->
<svg version="1.1" id="Layer_4" xmlns="http://www.w3.org/2000/svg" xmlns:xlink="http://www.w3.org/1999/xlink" x="0px" y="0px"
	 viewBox="0 0 128 128" style="enable-background:new 0 0 128 128;" xml:space="preserve">
<g>
	<g>
		<path style="fill:#B0BEC5;" d="M16.77,19.75c-1,0-1.7,0.8-1.7,1.8v0.1c-1.5,25.91,3.03,59.27,24.01,83.52
			c12.1,14.7,23.91,18.53,24.51,18.73c0,0,0.28,0.09,0.54,0.09s0.57-0.1,0.57-0.1c0.5-0.2,12.48-4.02,24.49-18.72
			c19.91-24.21,24.01-58.82,24.01-83.52v-0.1c0-1-0.8-1.8-1.7-1.8c-0.3,0-29.11-1-46.01-15.3l0,0c-0.7-0.6-1.7-0.6-2.4,0
			C45.98,18.65,17.07,19.65,16.77,19.75z"/>
		<path style="fill:#84B0C1;" d="M111.49,19.75c-0.3,0-29.11-1-46.01-15.3C65.08,4.1,64.65,4,64.24,4c-0.03,0-0.07,0-0.11,0v120
			c0.27-0.01,0.62-0.11,0.62-0.12c0.6-0.25,12.44-4,24.44-18.7c19.91-24.21,24.01-58.82,24.01-83.52v-0.1
			C113.2,20.55,112.4,19.75,111.49,19.75z"/>
		<path style="fill:#2F7889;" d="M26.33,28.31c-0.82,0-1.02,1.02-1.02,1.74v0.1c0,19.72,3.06,47.4,19,66.71
			c9.6,11.75,19,14.81,19.41,14.91l0.41,0.1l0.41-0.1c0.41-0.1,9.81-3.17,19.41-14.91c15.94-19.31,19-46.89,19-66.71v-0.1
			c0-0.82-0.41-1.43-1.23-1.43h0.1c-0.2,0-23.19-0.82-36.67-12.16l0,0c-1.19-0.98-1.94-0.2-1.94-0.2
			C49.63,27.6,26.64,28.31,26.33,28.31L26.33,28.31z"/>
		<path style="fill:#C9E3E6;" d="M29.18,30.07c-0.76,0-0.94,0.96-0.94,1.64v0.1c0,18.57,2.83,44.65,17.57,62.84
			c8.88,11.07,17.57,13.95,17.95,14.05l0.38,0.1l0.38-0.1c0.38-0.1,9.07-2.98,17.95-14.05c14.73-18.19,17.57-44.17,17.57-62.84v-0.1
			c0-0.77-0.38-1.35-1.13-1.35h0.09c-0.19,0-21.44-0.77-33.91-11.45l0,0c-0.94-0.95-1.79-0.19-1.79-0.19
			C50.72,29.4,29.47,30.07,29.18,30.07L29.18,30.07z"/>
		<path style="fill:#B0BEC5;" d="M98.89,30.36h0.09c-0.19,0-21.44-0.77-33.91-11.45c-0.34-0.34-0.66-0.46-0.94-0.47v90.35l0.38-0.1
			c0.38-0.1,9.07-2.98,17.95-14.05c14.73-18.19,17.57-44.17,17.57-62.84v-0.1C100.02,30.94,99.65,30.36,98.89,30.36z"/>
	</g>
	<g>
		<circle style="fill:#37474F;" cx="70.63" cy="14.44" r="1.93"/>
		<circle style="fill:#37474F;" cx="82.21" cy="19.67" r="1.93"/>
		<circle style="fill:#37474F;" cx="95.01" cy="23.21" r="1.93"/>
		<circle style="fill:#37474F;" cx="108.15" cy="25.14" r="1.93"/>
		<circle style="fill:#37474F;" cx="108.57" cy="36.94" r="1.93"/>
		<circle style="fill:#37474F;" cx="107.02" cy="50.76" r="1.93"/>
		<circle style="fill:#37474F;" cx="64.08" cy="118.11" r="1.93"/>
		<circle style="fill:#37474F;" cx="75.4" cy="112.71" r="1.93"/>
		<circle style="fill:#37474F;" cx="85.74" cy="102.71" r="1.93"/>
		<circle style="fill:#37474F;" cx="93.81" cy="91.27" r="1.93"/>
		<circle style="fill:#37474F;" cx="99.67" cy="79" r="1.93"/>
		<circle style="fill:#37474F;" cx="104.27" cy="64.65" r="1.93"/>
		<circle style="fill:#B9E4EA;" cx="70.15" cy="13.8" r="1.93"/>
		<circle style="fill:#B9E4EA;" cx="81.73" cy="19.03" r="1.93"/>
		<circle style="fill:#B9E4EA;" cx="94.53" cy="22.57" r="1.93"/>
		<circle style="fill:#B9E4EA;" cx="107.66" cy="24.5" r="1.93"/>
		<circle style="fill:#B9E4EA;" cx="108.09" cy="36.3" r="1.93"/>
		<circle style="fill:#B9E4EA;" cx="106.53" cy="50.12" r="1.93"/>
		<circle style="fill:#EEEEEE;" cx="63.6" cy="117.47" r="1.93"/>
		<circle style="fill:#B9E4EA;" cx="74.92" cy="112.07" r="1.93"/>
		<circle style="fill:#B9E4EA;" cx="85.26" cy="102.07" r="1.93"/>
		<circle style="fill:#B9E4EA;" cx="93.33" cy="90.63" r="1.93"/>
		<circle style="fill:#B9E4EA;" cx="99.19" cy="78.36" r="1.93"/>
		<circle style="fill:#B9E4EA;" cx="103.79" cy="64.01" r="1.93"/>
		<circle style="fill:#2F7889;" cx="57.97" cy="14.44" r="1.93"/>
		<circle style="fill:#2F7889;" cx="46.39" cy="19.67" r="1.93"/>
		<circle style="fill:#2F7889;" cx="33.59" cy="23.21" r="1.93"/>
		<circle style="fill:#2F7889;" cx="20.45" cy="25.14" r="1.93"/>
		<circle style="fill:#2F7889;" cx="20.02" cy="36.94" r="1.93"/>
		<circle style="fill:#2F7889;" cx="21.58" cy="50.76" r="1.93"/>
		<circle style="fill:#2F7889;" cx="53.19" cy="112.71" r="1.93"/>
		<circle style="fill:#2F7889;" cx="42.86" cy="102.71" r="1.93"/>
		<circle style="fill:#2F7889;" cx="34.79" cy="91.27" r="1.93"/>
		<circle style="fill:#2F7889;" cx="28.92" cy="79" r="1.93"/>
		<circle style="fill:#2F7889;" cx="24.33" cy="64.65" r="1.93"/>
		<circle style="fill:#EEEEEE;" cx="57.54" cy="13.8" r="1.93"/>
		<circle style="fill:#EEEEEE;" cx="45.95" cy="19.03" r="1.93"/>
		<circle style="fill:#EEEEEE;" cx="33.16" cy="22.57" r="1.93"/>
		<circle style="fill:#EEEEEE;" cx="20.02" cy="24.5" r="1.93"/>
		<circle style="fill:#EEEEEE;" cx="19.59" cy="36.3" r="1.93"/>
		<circle style="fill:#EEEEEE;" cx="21.15" cy="50.12" r="1.93"/>
		<circle style="fill:#EEEEEE;" cx="52.76" cy="112.07" r="1.93"/>
		<circle style="fill:#EEEEEE;" cx="42.42" cy="102.07" r="1.93"/>
		<circle style="fill:#EEEEEE;" cx="34.36" cy="90.63" r="1.93"/>
		<circle style="fill:#EEEEEE;" cx="28.49" cy="78.36" r="1.93"/>
		<circle style="fill:#EEEEEE;" cx="23.89" cy="64.01" r="1.93"/>
	</g>
</g>
</svg>
