<?xml version="1.0" encoding="UTF-8" standalone="no"?><svg xmlns:dc="http://purl.org/dc/elements/1.1/" xmlns:cc="http://creativecommons.org/ns#" xmlns:rdf="http://www.w3.org/1999/02/22-rdf-syntax-ns#" xmlns:svg="http://www.w3.org/2000/svg" xmlns="http://www.w3.org/2000/svg" viewBox="0 0 45 45" style="enable-background:new 0 0 45 45;" xml:space="preserve" version="1.1" id="svg2"><metadata id="metadata8"><rdf:RDF><cc:Work rdf:about=""><dc:format>image/svg+xml</dc:format><dc:type rdf:resource="http://purl.org/dc/dcmitype/StillImage"/></cc:Work></rdf:RDF></metadata><defs id="defs6"><clipPath id="clipPath16" clipPathUnits="userSpaceOnUse"><path id="path18" d="M 0,36 36,36 36,0 0,0 0,36 Z"/></clipPath></defs><g transform="matrix(1.25,0,0,-1.25,0,45)" id="g10"><g id="g12"><g clip-path="url(#clipPath16)" id="g14"><g transform="translate(34.2471,29.6758)" id="g20"><path id="path22" style="fill:#8899a6;fill-opacity:1;fill-rule:nonzero;stroke:none" d="m 0,0 -2.742,-2.743 c 0,0 -1.829,-0.914 -3.657,0.915 C -8.229,0 -7.314,1.829 -7.314,1.829 l 2.743,2.743 c 0.915,0.914 -0.184,1.752 -1.009,1.752 -4.051,0 -7.334,-3.283 -7.334,-7.333 0,-0.57 0.072,-1.121 0.194,-1.654 l -6.199,-6.199 5.485,-5.485 6.2,6.199 c 0.533,-0.123 1.084,-0.194 1.654,-0.194 4.05,0 7.333,3.283 7.333,7.333 C 1.753,-0.179 0.914,0.915 0,0"/></g><g transform="translate(5.7627,4.1621)" id="g24"><path id="path26" style="fill:#8899a6;fill-opacity:1;fill-rule:nonzero;stroke:none" d="m 0,0 c -0.819,0 -1.482,0.664 -1.482,1.482 0,0.819 0.663,1.483 1.482,1.483 0.819,0 1.482,-0.664 1.482,-1.483 C 1.482,0.664 0.819,0 0,0 M 9.457,16.474 -2.731,4.286 c -1.496,-1.496 -1.496,-3.921 0,-5.417 1.496,-1.495 3.92,-1.495 5.417,0 l 12.187,12.188 -5.416,5.417 z"/></g><g transform="translate(30.8301,2.7207)" id="g28"><path id="path30" style="fill:#f4900c;fill-opacity:1;fill-rule:nonzero;stroke:none" d="M 0,0 C 1.166,-1.166 3.022,-1.221 4.121,-0.121 5.221,0.979 5.166,2.834 4,4 l -23.265,23.266 c -1.166,1.166 -3.021,1.221 -4.121,0.121 -1.1,-1.1 -1.045,-2.955 0.121,-4.121 L 0,0 Z"/></g><g transform="translate(21.4443,35.1074)" id="g32"><path id="path34" style="fill:#66757f;fill-opacity:1;fill-rule:nonzero;stroke:none" d="m 0,0 c 0,0 -6,3 -11,-2 -4.5,-4.5 -7,-7 -7,-7 0,0 -1,1 -2,0 l -1,-1 c 0,0 -1,-1 0,-2 1,-1 4,-4 4,-4 0,0 1,-1 2,0 l 1,1 c 0,0 1,1 0,2 -0.023,0.023 -0.053,0.053 -0.078,0.078 0.77,0.743 1.923,1.5 3.078,0.922 l 4,4 c 0,0 -1,3 1,5 2,2 3,2 5,2 2,0 1,1 1,1"/></g></g></g></g></svg>
