<?xml version="1.0" encoding="UTF-8" standalone="no"?><svg xmlns:dc="http://purl.org/dc/elements/1.1/" xmlns:cc="http://creativecommons.org/ns#" xmlns:rdf="http://www.w3.org/1999/02/22-rdf-syntax-ns#" xmlns:svg="http://www.w3.org/2000/svg" xmlns="http://www.w3.org/2000/svg" viewBox="0 0 45 45" style="enable-background:new 0 0 45 45;" xml:space="preserve" version="1.1" id="svg2"><metadata id="metadata8"><rdf:RDF><cc:Work rdf:about=""><dc:format>image/svg+xml</dc:format><dc:type rdf:resource="http://purl.org/dc/dcmitype/StillImage"/></cc:Work></rdf:RDF></metadata><defs id="defs6"><clipPath id="clipPath16" clipPathUnits="userSpaceOnUse"><path id="path18" d="M 0,36 36,36 36,0 0,0 0,36 Z"/></clipPath></defs><g transform="matrix(1.25,0,0,-1.25,0,45)" id="g10"><g id="g12"><g clip-path="url(#clipPath16)" id="g14"><g transform="translate(9,4.5)" id="g20"><path id="path22" style="fill:#292f33;fill-opacity:1;fill-rule:nonzero;stroke:none" d="M 0,0 C 0,-2.485 -2.015,-4.5 -4.5,-4.5 -6.985,-4.5 -9,-2.485 -9,0 -9,2.485 -6.985,4.5 -4.5,4.5 -2.015,4.5 0,2.485 0,0"/></g><g transform="translate(1.5,4.5)" id="g24"><path id="path26" style="fill:#dd2e44;fill-opacity:1;fill-rule:nonzero;stroke:none" d="M 0,0 C 0,1.657 1.343,3 3,3 4.657,3 6,1.657 6,0 6,-1.657 4.657,-3 3,-3 1.343,-3 0,-1.657 0,0"/></g><g transform="translate(36,4.5)" id="g28"><path id="path30" style="fill:#292f33;fill-opacity:1;fill-rule:nonzero;stroke:none" d="M 0,0 C 0,-2.485 -2.015,-4.5 -4.5,-4.5 -6.985,-4.5 -9,-2.485 -9,0 -9,2.485 -6.985,4.5 -4.5,4.5 -2.015,4.5 0,2.485 0,0"/></g><g transform="translate(28.5,4.5)" id="g32"><path id="path34" style="fill:#dd2e44;fill-opacity:1;fill-rule:nonzero;stroke:none" d="M 0,0 C 0,1.657 1.343,3 3,3 4.657,3 6,1.657 6,0 6,-1.657 4.657,-3 3,-3 1.343,-3 0,-1.657 0,0"/></g><g transform="translate(31.5,3)" id="g36"><path id="path38" style="fill:#55acee;fill-opacity:1;fill-rule:nonzero;stroke:none" d="m 0,0 -20,0 c -0.825,0 -1.5,0.675 -1.5,1.5 0,0.825 0.675,1.5 1.5,1.5 L 0,3 C 0.825,3 1.5,2.325 1.5,1.5 1.5,0.675 0.825,0 0,0"/></g><g transform="translate(26.0124,4.2539)" id="g40"><path id="path42" style="fill:#55acee;fill-opacity:1;fill-rule:nonzero;stroke:none" d="m 0,0 c -0.004,0.082 -0.012,0.163 -0.012,0.246 0,3.038 2.462,5.5 5.5,5.5 1.21,0 2.325,-0.396 3.234,-1.058 l 0.89,1.205 C 8.454,6.74 7.032,7.246 5.488,7.246 c -3.866,0 -7,-3.134 -7,-7 0,-0.102 0.01,-0.201 0.015,-0.302 C -1,-0.038 -0.497,-0.019 0,0"/></g><g transform="translate(5.6287,9.8831)" id="g44"><path id="path46" style="fill:#55acee;fill-opacity:1;fill-rule:nonzero;stroke:none" d="m 0,0 c 2.495,-0.52 4.369,-2.73 4.371,-5.378 l 3.5,-0.004 c 0,4.341 -3.074,7.962 -7.163,8.81 C 0.476,2.298 0.232,1.119 0,0"/></g><g transform="translate(4.3951,4.0023)" id="g48"><path id="path50" style="fill:#99aab5;fill-opacity:1;fill-rule:nonzero;stroke:none" d="M 0,0 0,0 C -0.269,0.057 -0.442,0.324 -0.385,0.593 L 5.617,28.831 C 5.674,29.1 5.941,29.273 6.21,29.216 6.479,29.159 6.652,28.892 6.595,28.623 L 0.593,0.385 C 0.536,0.116 0.269,-0.057 0,0"/></g><g transform="translate(6.1235,9.7393)" id="g52"><path id="path54" style="fill:#55acee;fill-opacity:1;fill-rule:nonzero;stroke:none" d="m 0,0 -0.978,0.208 c -0.538,0.114 -0.885,0.648 -0.77,1.186 l 1.247,5.869 c 0.114,0.538 0.648,0.884 1.186,0.77 L 1.663,7.825 C 2.201,7.711 2.548,7.177 2.434,6.639 L 1.186,0.77 C 1.072,0.232 0.538,-0.114 0,0"/></g><g transform="translate(9.2995,31.6764)" id="g56"><path id="path58" style="fill:#dd2e44;fill-opacity:1;fill-rule:nonzero;stroke:none" d="M 0,0 -1.956,0.416 C -2.763,0.587 -3.283,1.388 -3.112,2.195 -2.94,3.002 -2.14,3.522 -1.333,3.35 L 0.624,2.934 C 1.431,2.763 1.951,1.962 1.779,1.155 1.608,0.348 0.807,-0.172 0,0"/></g><g transform="translate(10.8404,34.3248)" id="g60"><path id="path62" style="fill:#55acee;fill-opacity:1;fill-rule:nonzero;stroke:none" d="m 0,0 c -0.807,0.172 -1.608,-0.348 -1.779,-1.155 l -1.352,-6.358 c -0.114,-0.538 0.233,-1.072 0.771,-1.186 l 0.978,-0.208 c 0.538,-0.115 1.072,0.232 1.186,0.77 l 1.351,6.358 C 1.327,-0.972 0.807,-0.172 0,0"/></g><g transform="translate(14.1053,30.6549)" id="g64"><path id="path66" style="fill:#dd2e44;fill-opacity:1;fill-rule:nonzero;stroke:none" d="M 0,0 -2.934,0.624 C -3.741,0.795 -4.261,1.596 -4.09,2.403 -3.918,3.21 -3.118,3.73 -2.311,3.558 L 0.624,2.934 C 1.431,2.763 1.951,1.962 1.779,1.155 1.608,0.348 0.807,-0.172 0,0"/></g><g transform="translate(15.9034,31.8062)" id="g68"><path id="path70" style="fill:#ea596e;fill-opacity:1;fill-rule:nonzero;stroke:none" d="m 0,0 c -0.172,-0.81 -0.969,-1.328 -1.779,-1.155 -0.81,0.172 -1.328,0.968 -1.155,1.779 0.172,0.81 0.968,1.327 1.779,1.155 C -0.345,1.607 0.172,0.81 0,0"/></g><g transform="translate(35.93,9.5397)" id="g72"><path id="path74" style="fill:#55acee;fill-opacity:1;fill-rule:nonzero;stroke:none" d="m 0,0 c 0,-0.409 -0.331,-0.74 -0.74,-0.74 -0.409,0 -0.74,0.331 -0.74,0.74 0,0.409 0.331,0.74 0.74,0.74 C -0.331,0.74 0,0.409 0,0"/></g></g></g></g></svg>
