<?xml version="1.0" encoding="utf-8"?>
<!-- Generator: Adobe Illustrator 25.2.3, SVG Export Plug-In . SVG Version: 6.00 Build 0)  -->
<svg version="1.1" id="Layer_2" xmlns="http://www.w3.org/2000/svg" xmlns:xlink="http://www.w3.org/1999/xlink" x="0px" y="0px"
	 viewBox="0 0 128 128" style="enable-background:new 0 0 128 128;" xml:space="preserve">
<path style="fill:#DB0D2A;" d="M40.03,51.95c0.1,0.61-1.11,21.3-1.11,21.3s-7.77,7.17-10.2,9.19c-2.42,2.02-6.76,6.06-11.71,0.91
	c-2.14-2.23-3.63-5.96-3.63-5.96l-6.56,3.33c0,0,2.43,6.45,9.49,10.3c8.02,4.38,15.25-3.23,18.17-5.75
	c2.71-2.34,25.24-23.83,25.24-23.83l-9.59,0.2l-4.85,5.15l1.11-13.43L40.03,51.95z"/>
<path style="fill:#AF0A1B;" d="M40.08,52.04l-0.59,11.23c0,0,0.99,1.26,3.04,1.24c2.35-0.02,3.07-1.71,3.07-1.71l0.79-9.43
	L40.08,52.04z"/>
<path style="fill:#DB0D2A;" d="M106.9,39.03c0.2,0.4,7.34,14.2,7.34,14.2s3.94-4.67,4.44-5.22s2.83-0.1,4.04,1.41
	s1.23,2.41,0.76,3.05s-39.94,42.99-47.7,50.76c-5.45,5.46-12.92,9.09-21.91,2.83c-5.91-4.12-8.08-9.29-8.08-9.29l6.97-2.83
	c0,0,4.61,8.56,10.2,7.88c3.79-0.47,9-4.51,12.37-8c3.16-3.26,5.21-5.46,5.21-5.46l-5.56-24.1l5.66-4.2l5.76,22.14l22.97-24.31
	l-9.08-18.39L106.9,39.03z"/>
<path style="fill:#AF0A1B;" d="M75.78,68.01l1.21,5.05c0,0,1.3,1.87,4.04,0.91c2.53-0.89,2.24-3.73,2.24-3.73l-2.24-8.59
	L75.78,68.01z"/>
<path style="fill:#AF0A1B;" d="M101.92,42.87l2.27,4.61c0,0,2.01,0.83,3.7-0.2c2.03-1.24,1.8-2.79,1.8-2.79l-3.34-6.64L101.92,42.87
	z"/>
<path style="fill:#D2712A;" d="M14.59,71.24l2.94,2.63l23.21-19.79c0,0,1.84,6.47,10.19,9.28c11.11,3.74,21.52-0.01,21.52-0.01
	l3.82-1.41L51.65,86.68l4.54,1.92c0,0,58.17-56.03,58.36-56.65c0.19-0.62,0.45-2.78,0.05-2.98c-0.02-0.01-5.75-0.21-5.75-0.21
	l-0.96-0.16c0,0-0.31-0.88-0.56-0.94c-0.6-0.13-6.51-0.24-6.51-0.24s-0.79-1.16-0.8-1.16c-0.64-0.14-5.99-0.49-5.99-0.49
	s-0.05-0.73-0.64-0.92c-0.7-0.23-5.97-0.71-5.97-0.71s-0.3-0.85-0.8-0.98c-0.92-0.23-5.13-0.68-5.13-0.68s-0.38-0.79-0.78-0.87
	c-0.68-0.14-4.02-0.85-4.02-0.85s-0.47-1.28-0.52-1.29C75.26,19.35,29.94,57,29.94,57L14.59,71.24z"/>
<path style="fill:#F0A358;" d="M12.98,68.61c0,0,57.85-49.88,58.66-50.18c0.81-0.3,3.9,0.23,4.53,1.02
	c0.48,0.61-61.27,52.89-61.27,52.89L12.98,68.61z"/>
<path style="fill:#F0A358;" d="M41.55,51.35l35.13-30.59c0,0,4.01,0.81,4.03,0.85c0.13,0.26-37.41,33.61-37.41,33.61
	s-0.93-1.08-1.29-2.14C41.75,52.32,41.55,51.35,41.55,51.35z"/>
<path style="fill:#F0A358;" d="M43.86,56.13l37.98-34.1l4.79,1.13L47.81,59.51c0,0-1.06-0.56-2.25-1.62S43.86,56.13,43.86,56.13z"/>
<path style="fill:#F0A358;" d="M48.97,60L87.9,23.65l5.5,1.2L55.28,61.91c0,0-2.33-0.29-3.66-0.71C50.27,60.78,48.97,60,48.97,60z"
	/>
<path style="fill:#F0A358;" d="M56.73,62.14l38.14-36.8l5.14,0.92L63.59,62.4c0,0-1.76,0.21-3.8,0.07
	C58.36,62.37,56.73,62.14,56.73,62.14z"/>
<path style="fill:#F0A358;" d="M65.42,62.26l36.08-35.58l5.85,0.99L74.02,60.13c0,0-1.57,0.82-3.9,1.32
	C67.39,62.04,65.42,62.26,65.42,62.26z"/>
<path style="fill:#F0A358;" d="M108.9,27.73L50.25,84.32l4.69,1.63c0,0,59.84-56.35,59.66-56.98
	C114.43,28.34,108.9,27.73,108.9,27.73z"/>
<path style="fill:#5E6268;" d="M6.91,81.87c1.06,1.19,3.18,1.42,4.84,0.91c2.44-0.75,3.14-2.89,3.14-2.89l-0.5-2.88l3.52-3.13
	c0,0,0-2.71-1-3.83c-1.21-1.35-4.07-1.45-4.07-1.45l-1.39,1.06c0,0-1.56-0.72-2.8-0.88c-1.33-0.18-4.28,0.6-4.72,3.1
	C3.16,76.26,6.91,81.87,6.91,81.87z"/>
<path style="fill:#9B9B9B;" d="M7.42,78.14c1.75,0.25,0.31-3.01,1.19-4.01s2.03-1.58,1.72-2.71c-0.31-1.13-3.91-1.68-4.66,0.45
	S6.1,77.95,7.42,78.14z"/>
<path style="fill:#5E6268;" d="M48.82,85.26l2.6-2.3c0,0,3.36,1.06,4.11,2.5c0.75,1.44,0.75,3.63,0.75,3.63l-3.01,3.07
	c0,0,0.21,1.15,0.5,2.38c0.25,1.04-1.13,3.57-3.44,4.38c-2.32,0.81-4.76-0.56-4.76-0.56s-4.69-6.1-4.51-9.46
	c0.25-4.51,3.96-4.94,5.2-4.76C47.99,84.41,48.82,85.26,48.82,85.26z"/>
<path style="fill:#9A9A9B;" d="M47.38,86.9c1,1.5-1.57,2.38-1.82,3.51c-0.25,1.13,0.56,3.19-0.44,3.69s-2.6-2.58-2.32-4.88
	C43.13,86.65,46.45,85.5,47.38,86.9z"/>
</svg>
