<?xml version="1.0" encoding="utf-8"?>
<!-- Generator: Adobe Illustrator 25.2.3, SVG Export Plug-In . SVG Version: 6.00 Build 0)  -->
<svg version="1.1" id="Layer_3" xmlns="http://www.w3.org/2000/svg" xmlns:xlink="http://www.w3.org/1999/xlink" x="0px" y="0px"
	 viewBox="0 0 128 128" style="enable-background:new 0 0 128 128;" xml:space="preserve">
<g>
	<g>
		<path style="fill:#F3AB47;" d="M117.14,64.48c0,0-7.12,4.14-16.96,5.96c-8.1,1.5-24.81,3.1-36.45,3.1s-30.2-1.1-37.44-2.39
			c-8.89-1.58-15.95-6.43-15.95-6.43S6.91,77.18,25.58,81.02c16.74,3.44,47.16,6.51,74.67,0C123.34,75.55,117.14,64.48,117.14,64.48
			z"/>
	</g>
	<path style="fill:#A65F3E;" d="M123.91,79.16c-1.12-5.65-6.4-14.43-6.4-14.43s-3.49,8.24-17.86,12.15
		c-5.61,1.52-20.78,3.29-35.76,3.53c-14.98-0.24-29.37-1.38-34.98-2.9C14.53,73.6,10.35,64.73,10.35,64.73s-5.42,8.77-6.5,14.43
		c-2.25,11.77,3.59,18.31,22.09,22.88c8.87,2.19,24.2,3.34,39.5,3.37c15.3-0.02,30.63-1.18,39.5-3.37
		C123.46,97.46,126.21,90.78,123.91,79.16z"/>
	<path style="fill:#F29657;" d="M16.28,78.37c0.18,0.64-0.08,1.3-0.31,1.92c-1.2,3.32-1.64,7.46-0.74,10.88
		c0.19,0.71,0.52,1.61,0.86,2.4c0.28,0.66-0.35,1.28-1.04,1.09c-1.35-0.38-4.25-2.19-6.27-6.31c-1.58-3.21-1.27-6.92-0.55-10.32
		c0.33-1.59,1.6-5.31,3.62-3.85C12.4,74.58,16.12,77.83,16.28,78.37z"/>
	<path style="fill:#874D36;" d="M76.05,81.02c0,0,1.95,9.84,0.47,16.54c-1.63,7.33-3.16,7.72-3.16,7.72s10.96-0.15,13.8-0.69
		l-7.4-23.82L76.05,81.02z"/>
	<path style="fill:#874D36;" d="M63.74,75.54c-28.01,0.21-40.62-3.3-41.03-3.38l-2.79,2.05c0,0,10.84,6.05,44.14,6.05
		c33.3,0,45.47-6.98,45.47-6.98l-4.4-2.02C104.53,71.38,88.77,75.35,63.74,75.54z"/>
	<g>
		<path style="fill:#F3AB47;" d="M100.33,123.51l9.02-5.13c1.59-1.01,1.35-2.31,0.78-3.51c-2.46-5.13-9.29-15.41-13.27-21.07
			c-4.01-5.69-14.59-14.18-14.59-14.18l-3.22,1.79c0,0,3.56,13.66,5.27,18.98c2.84,8.8,9.29,17.78,12.61,22.61
			C97.73,124.17,98.98,124.27,100.33,123.51z"/>
		<line style="fill:none;stroke:#F3AB47;stroke-width:4;stroke-miterlimit:10;" x1="59.76" y1="44.12" x2="102.63" y2="118.71"/>
		<path style="fill:#BDBDBD;" d="M62.79,45.4l-3.43,2.02c-1.17-1.9-2.4-2.47-3.75-2.73c-0.74-0.14-1.44-0.79-1.63-1.6
			c-0.19-0.81,0.16-1.58,1.07-2.11l3.96-2.36c0.86-0.51,1.79-0.57,2.51-0.02c0.63,0.48,0.88,1.51,0.57,2.54
			C61.68,42.57,62.07,43.59,62.79,45.4z"/>
	</g>
	<path style="fill:#F3AB47;" d="M117.51,64.73c-0.28-0.45-0.63-0.09-0.63-0.09c-0.03,0.09-3.08,8.68-18.22,11.89
		c-5.72,1.21-19.86,2.63-34.76,2.88c-13.9-0.23-28.84-1.46-34.77-2.87c-13.57-3.24-18.61-11.72-18.78-11.8c0,0-0.65,0.25-0.05,1.77
		s5.51,8.92,18.36,11.98c6.15,1.46,20.95,2.69,35.23,2.93c15.06-0.25,29.4-1.54,35.18-2.92c14-3.35,17.58-10.56,18-11.35
		S117.78,65.18,117.51,64.73z"/>
	<g>
		<polygon style="fill:#F3AB47;" points="65.72,79.6 62.56,79.6 63.12,75.14 65.26,75.14 		"/>
		<polygon style="fill:#F3AB47;" points="40.8,78.78 30.43,77.78 35.03,73.61 45.16,74.4 		"/>
		<polygon style="fill:#F3AB47;" points="87.9,78.6 97.57,76.87 93.35,72.82 83.41,73.8 		"/>
	</g>
</g>
</svg>
