<?xml version="1.0" encoding="UTF-8" standalone="no"?><svg xmlns:dc="http://purl.org/dc/elements/1.1/" xmlns:cc="http://creativecommons.org/ns#" xmlns:rdf="http://www.w3.org/1999/02/22-rdf-syntax-ns#" xmlns:svg="http://www.w3.org/2000/svg" xmlns="http://www.w3.org/2000/svg" viewBox="0 0 45 45" style="enable-background:new 0 0 45 45;" xml:space="preserve" version="1.1" id="svg2"><metadata id="metadata8"><rdf:RDF><cc:Work rdf:about=""><dc:format>image/svg+xml</dc:format><dc:type rdf:resource="http://purl.org/dc/dcmitype/StillImage"/></cc:Work></rdf:RDF></metadata><defs id="defs6"><clipPath id="clipPath16" clipPathUnits="userSpaceOnUse"><path id="path18" d="M 0,36 36,36 36,0 0,0 0,36 Z"/></clipPath></defs><g transform="matrix(1.25,0,0,-1.25,0,45)" id="g10"><g id="g12"><g clip-path="url(#clipPath16)" id="g14"><g transform="translate(32.8311,15.5751)" id="g20"><path id="path22" style="fill:#ffd983;fill-opacity:1;fill-rule:nonzero;stroke:none" d="m 0,0 c -0.689,-3.241 -9.21,-6.221 -17.314,-4.499 -8.103,1.723 -14.676,7.911 -13.987,11.152 0.689,3.241 8.587,3.287 16.69,1.564 C -6.508,6.495 0.689,3.241 0,0"/></g><g transform="translate(27,0)" id="g24"><path id="path26" style="fill:#ffd983;fill-opacity:1;fill-rule:nonzero;stroke:none" d="M 0,0 -2,14 -19,19 -27,0 0,0 Z"/></g><g transform="translate(34.1095,16.78)" id="g28"><path id="path30" style="fill:#67757f;fill-opacity:1;fill-rule:nonzero;stroke:none" d="m 0,0 c -0.868,-4.082 -9.016,-5.808 -18.199,-3.856 -9.184,1.952 -15.926,6.843 -15.058,10.925 0.868,4.082 9.016,5.808 18.199,3.856 C -5.874,8.973 0.868,4.082 0,0"/></g><g transform="translate(0.4142,25.023)" id="g32"><path id="path34" style="fill:#67757f;fill-opacity:1;fill-rule:nonzero;stroke:none" d="M 0,0 0.414,-2.315 33.28,-9.301 34.692,-7.175 0,0 Z"/></g><g transform="translate(35.619,19.0718)" id="g36"><path id="path38" style="fill:#9aaab4;fill-opacity:1;fill-rule:nonzero;stroke:none" d="m 0,0 c -0.919,-4.322 -9.546,-6.15 -19.27,-4.083 -9.724,2.067 -16.862,7.246 -15.943,11.568 0.918,4.322 9.546,6.149 19.27,4.083 C -6.219,9.501 0.919,4.322 0,0"/></g><g transform="translate(33.1004,21.6519)" id="g40"><path id="path42" style="fill:#ccd6dd;fill-opacity:1;fill-rule:nonzero;stroke:none" d="m 0,0 c -0.689,-3.241 -7.816,-4.473 -15.92,-2.75 -8.103,1.722 -14.113,5.746 -13.424,8.987 0.689,3.242 7.816,4.473 15.919,2.751 C -5.322,7.265 0.689,3.241 0,0"/></g><g transform="translate(10.0407,28.5981)" id="g44"><path id="path46" style="fill:#e1e8ed;fill-opacity:1;fill-rule:nonzero;stroke:none" d="M 0,0 C 0.344,1.621 4.565,2.097 9.427,1.063 14.289,0.03 17.951,-2.122 17.607,-3.742 17.262,-5.363 13.042,-5.839 8.18,-4.806 3.318,-3.772 -0.344,-1.621 0,0"/></g><g transform="translate(10.0407,28.5981)" id="g48"><path id="path50" style="fill:#5dadec;fill-opacity:1;fill-rule:nonzero;stroke:none" d="M 0,0 C 0.344,1.621 2.996,4.475 9.843,3.02 16.69,1.564 17.951,-2.122 17.607,-3.742 17.262,-5.363 13.042,-5.839 8.18,-4.806 3.318,-3.772 -0.344,-1.621 0,0"/></g><g transform="translate(15.7867,17.1533)" id="g52"><path id="path54" style="fill:#8ccaf7;fill-opacity:1;fill-rule:nonzero;stroke:none" d="M 0,0 C 0.115,0.54 0.646,0.885 1.186,0.77 1.726,0.655 2.071,0.124 1.956,-0.416 1.841,-0.956 1.31,-1.301 0.77,-1.186 0.23,-1.071 -0.115,-0.54 0,0"/></g><g transform="translate(23.8198,16.4681)" id="g56"><path id="path58" style="fill:#8ccaf7;fill-opacity:1;fill-rule:nonzero;stroke:none" d="M 0,0 C 0.115,0.54 0.646,0.885 1.186,0.77 1.726,0.655 2.071,0.124 1.956,-0.416 1.841,-0.956 1.31,-1.301 0.77,-1.186 0.23,-1.071 -0.115,-0.54 0,0"/></g><g transform="translate(31.2906,17.9472)" id="g60"><path id="path62" style="fill:#8ccaf7;fill-opacity:1;fill-rule:nonzero;stroke:none" d="M 0,0 C 0.115,0.54 0.646,0.885 1.186,0.77 1.726,0.655 2.071,0.124 1.956,-0.416 1.841,-0.956 1.31,-1.301 0.77,-1.186 0.23,-1.071 -0.115,-0.54 0,0"/></g><g transform="translate(33.4074,22.5649)" id="g64"><path id="path66" style="fill:#8ccaf7;fill-opacity:1;fill-rule:nonzero;stroke:none" d="M 0,0 C 0.174,0.214 0.663,0.105 1.091,-0.244 1.519,-0.593 1.725,-1.05 1.55,-1.264 1.376,-1.478 0.887,-1.368 0.459,-1.019 0.031,-0.67 -0.174,-0.214 0,0"/></g><g transform="translate(3.7672,28.8651)" id="g68"><path id="path70" style="fill:#8ccaf7;fill-opacity:1;fill-rule:nonzero;stroke:none" d="M 0,0 C -0.072,0.267 -0.563,0.365 -1.096,0.221 -1.629,0.076 -2.002,-0.257 -1.93,-0.524 -1.858,-0.79 -1.367,-0.889 -0.834,-0.745 -0.301,-0.6 0.072,-0.266 0,0"/></g><g transform="translate(1.9462,24.1845)" id="g72"><path id="path74" style="fill:#8ccaf7;fill-opacity:1;fill-rule:nonzero;stroke:none" d="M 0,0 C 0.115,0.54 0.646,0.885 1.186,0.77 1.726,0.655 2.071,0.124 1.956,-0.416 1.841,-0.956 1.31,-1.301 0.77,-1.186 0.23,-1.071 -0.115,-0.54 0,0"/></g><g transform="translate(8.1695,19.7947)" id="g76"><path id="path78" style="fill:#8ccaf7;fill-opacity:1;fill-rule:nonzero;stroke:none" d="M 0,0 C 0.115,0.54 0.646,0.885 1.186,0.77 1.726,0.655 2.071,0.124 1.956,-0.416 1.841,-0.956 1.31,-1.301 0.77,-1.186 0.23,-1.071 -0.115,-0.54 0,0"/></g><g transform="translate(14.681,31.1899)" id="g80"><path id="path82" style="fill:#8ccaf7;fill-opacity:1;fill-rule:nonzero;stroke:none" d="M 0,0 C 0.172,0.81 2.502,1.002 5.203,0.428 7.904,-0.146 9.954,-1.269 9.781,-2.079 9.609,-2.889 7.28,-3.081 4.579,-2.507 1.878,-1.933 -0.172,-0.81 0,0"/></g></g></g></g></svg>
