<?xml version="1.0" encoding="utf-8"?>
<!-- Generator: Adobe Illustrator 25.2.3, SVG Export Plug-In . SVG Version: 6.00 Build 0)  -->
<svg version="1.1" id="Layer_2" xmlns="http://www.w3.org/2000/svg" xmlns:xlink="http://www.w3.org/1999/xlink" x="0px" y="0px"
	 viewBox="0 0 128 128" style="enable-background:new 0 0 128 128;" xml:space="preserve">
<path style="fill:#FF5117;" d="M3.16,76.23c0,0-0.28-3.98,1.58-5.85c2.1-2.1,4-1.69,8.31-1.8c6.69-0.18,12.34-0.17,12.34-0.17
	s8.96-16.99,10.85-19.9c1.89-2.9,5.42-7.2,11.23-7.81c5.81-0.61,18.78,0,20.47,0.07c1.69,0.07,2.84,1.01,2.84,2.9s0,26.07,0,26.07
	s47.08,0,48.57,0s2.22,1.7,2.63,2.7c0.37,0.9,0.88,2.97,0.88,2.97l-7.77,7.16L3.16,76.23z"/>
<polygon style="fill:#EE3E23;" points="3.8,99.74 3.2,87.98 3.14,75.52 122.86,75.42 122.85,100.25 123.31,107.48 39.67,108.07 "/>
<path style="fill:#B22519;" d="M10.1,104.14c0.35-0.13,6.96-5.12,6.96-5.12s1.6-3.07,2.39-3.85c0.79-0.79,1.44-0.92,2.63-0.92
	c1.18,0,13.45,0.13,14.68,0.13c1.23,0,2.41,1.18,3.15,2.32c0.74,1.14,6,9.8,6,9.8l41.05,0.08c0,0,3.55-9.05,4.03-10.15
	s0.88-1.79,2.28-1.84c1.4-0.04,17.51,0.09,18.52,0.09c1.01,0,1.62,0.61,2.06,1.4c0.44,0.79,3.88,10.34,3.88,10.34l3.98-0.05
	l-1.04,4.03H10.47L10.1,104.14z"/>
<path style="fill:#4E433D;" d="M15.66,110.48c0.09,5.52,4.18,13.43,13.58,13.5c9.4,0.06,14.28-7.28,13.99-14.8
	c-0.3-7.64-6.13-13.04-14.52-12.8C20.86,96.61,15.54,102.84,15.66,110.48z"/>
<path style="fill:#4E433D;" d="M88.44,110.46c0.09,5.52,4.4,13.46,13.81,13.52c9.4,0.06,14.28-7.28,13.99-14.8
	c-0.3-7.64-6.13-13.04-14.52-12.8C93.86,96.61,88.32,102.81,88.44,110.46z"/>
<path style="fill:#C8C8C8;" d="M21.85,109.99c0.05,2.91,2.41,7.1,7.56,7.13s7.64-3.62,7.48-7.58c-0.17-4.03-3.46-7.03-7.78-6.97
	C24.82,102.64,21.79,105.97,21.85,109.99z"/>
<path style="fill:#C8C8C8;" d="M94.85,109.99c0.05,2.91,2.41,7.1,7.56,7.13s7.64-3.62,7.48-7.58c-0.17-4.03-3.46-7.03-7.78-6.97
	C97.82,102.64,94.79,105.97,94.85,109.99z"/>
<path style="fill:#B0B0B1;" d="M3.11,100.35c0.01,0.56,0.28,7.85,0.28,8.77c0,0.93,0.63,1.76,2.1,1.81c1.47,0.05,6.36,0,6.36,0
	s1.12-2.91,2.4-5.8c1.47-3.32,3.14-6.54,3.14-6.62c0-0.04-10.79-0.11-11.87-0.11S3.07,98.65,3.11,100.35z"/>
<path style="fill:#B0B0B1;" d="M120.29,98.31l-0.09,12.17c0,0,4.31,0,5.05,0c0.75,0,1.45-1.19,1.41-1.98s-0.09-7.95-0.13-8.74
	s-0.97-1.45-1.93-1.45S120.25,98.17,120.29,98.31z"/>
<path style="fill:#D50916;" d="M118.92,75.67c-0.55,0.55-0.24,15.32,0.06,15.8c0.24,0.38,4.46,0.15,4.46,0.15s0.11-4.39,0.18-7.51
	c0.09-4.17-0.75-8.66-0.75-8.66S119.27,75.32,118.92,75.67z"/>
<path style="fill:#8A1E0C;" d="M53.91,76.47c-1.54,0-2.32,1.19-2.28,2.46c0.04,1.45,1.19,2.11,2.42,2.15c1.23,0.04,5.05,0,6.02-0.04
	c0.97-0.04,2.02-0.88,1.98-2.42c-0.03-1.14-0.97-2.07-1.89-2.11C59.23,76.47,54.71,76.47,53.91,76.47z"/>
<path style="fill:#8A1E0C;" d="M68.75,70.29c0-0.99,0.41-1.49,1.17-1.44c0.63,0.04,1.22,0.27,1.22,1.58c0,1.31,0,39.47,0,40.05
	s-0.45,1.04-1.04,1.08c-0.59,0.04-1.22-0.45-1.26-1.13C68.8,109.76,68.75,70.78,68.75,70.29z"/>
<path style="fill:#FDFEFE;" d="M4.96,76.44c0,0,1.83,0.11,2.43,0.68c0.78,0.74,2.01,4.12,2.04,4.73c0.04,0.77,0.12,8.42-0.12,8.81
	c-0.08,0.14-4.06,0.18-4.08,0.17c-0.03-0.02-0.97-6.11-0.99-7.52C4.19,79.25,4.85,76.53,4.96,76.44z"/>
<path style="fill:#DBCDC7;" d="M3.34,90.82c0,0-0.27-2.9-0.31-7.9C3,79.23,3.15,76.29,3.15,76.29l2.04,0.18c0,0,0.09,2.94,0.09,6.84
	c0,3.19,0.28,7.53,0.28,7.53L3.34,90.82z"/>
<path style="fill:#546F79;" d="M47.87,44.55c-3.66,0.34-5.6,2.45-7.58,5.04c-1.98,2.59-9.32,17.23-9.51,18.21
	c-0.23,1.22,1.69,0.89,4.19,0.89c2.21,0,28.24,0.14,29.32,0.09c1.08-0.05,2.07-0.99,2.12-3.53c0.05-2.54,0-16-0.05-17.56
	s-0.8-2.87-3.01-3.01C61.7,44.59,50.02,44.35,47.87,44.55z"/>
<path style="fill:#AFE3FB;" d="M36.05,65.4c-0.4-0.35,5.05-10.58,5.69-11.72c1.36-2.4,2.82-3.91,4.19-4.71
	c1.36-0.8,2.64-0.92,4.42-0.99c2.49-0.09,12-0.24,12.33,0.16c0.33,0.4,0.24,13.35,0.14,14.66c-0.09,1.32-0.22,2.4-1.65,2.49
	c-2.94,0.19-8.35,0.02-13.37,0.05C41.76,65.39,36.26,65.58,36.05,65.4z"/>
<path style="fill:#B52213;" d="M37.98,68.09c0,1.15,2.38,3.83,5.96,3.79c4.03-0.04,5.15-3.08,5.12-4.94
	c-0.05-3.22-2.47-4.41-2.47-4.41l-7.46,2.91C39.14,65.44,37.98,66.75,37.98,68.09z"/>
<path style="fill:#EE3E23;" d="M42.38,62.72c-1.72,0.73-3.24,2.71-3.24,2.71s0.08,2.65,4.29,2.49c4.21-0.16,3.25-5.35,3.25-5.35
	S45.25,61.51,42.38,62.72z"/>
</svg>
