<?xml version="1.0" encoding="utf-8"?>
<!-- Generator: Adobe Illustrator 25.2.3, SVG Export Plug-In . SVG Version: 6.00 Build 0)  -->
<svg version="1.1" xmlns="http://www.w3.org/2000/svg" xmlns:xlink="http://www.w3.org/1999/xlink" x="0px" y="0px"
	 viewBox="0 0 128 128" style="enable-background:new 0 0 128 128;" xml:space="preserve">
<g id="Layer_1" style="display:none;">
	<path style="display:inline;fill:#464C4F;" d="M50,57.21H8c-2.2,0-4-1.8-4-4v-16c0-2.2,1.8-4,4-4h42h28h42c2.2,0,4,1.8,4,4v16
		c0,2.2-1.8,4-4,4H78H50z"/>
	<path style="display:inline;fill:#464C4F;" d="M50,103.11H8c-2.2,0-4-1.8-4-4v-16c0-2.2,1.8-4,4-4h42h28h42c2.2,0,4,1.8,4,4v16
		c0,2.2-1.8,4-4,4H78H50z"/>
	<rect x="-196" y="-41" style="display:inline;fill:#FFFFFF;" width="187" height="237"/>
	<path style="display:inline;fill:#606265;" d="M50,53H8c-2.2,0-4-1.8-4-4V33c0-2.2,1.8-4,4-4h42h28h42c2.2,0,4,1.8,4,4v16
		c0,2.2-1.8,4-4,4H78H50z"/>
	<path style="display:inline;fill:#606265;" d="M50,98.9H8c-2.2,0-4-1.8-4-4v-16c0-2.2,1.8-4,4-4h42h28h42c2.2,0,4,1.8,4,4v16
		c0,2.2-1.8,4-4,4H78H50z"/>
	<path style="display:inline;fill:#464C4F;" d="M-136.17,63.3c0,0-2.87,20.96,9.33,39.44c10,15.14,25.92,25.31,48.06,25.78
		c20.96,0.44,36.4-6.84,48.23-21.29C-14.62,87.78-17.1,66.31-17.1,63.59c0-4.66-8.62,21.02-8.62,21.02L-50,116.21l-35.59,6.49
		c0,0-28.44-12.47-28.61-13.14C-114.36,108.89-136.17,63.3-136.17,63.3z"/>
	<path style="display:inline;fill:#464C4F;" d="M-97.18,95.07c0,0-0.08,4.51,0.08,4.93c0.17,0.42,3.51,0.5,6.1,0.5
		c2.76,0,6.39,0.14,6.47-0.61c0.12-1.08,0.07-5.01,0.07-5.01l-7.63-4.66L-97.18,95.07z"/>
	<path style="display:inline;fill:#464C4F;" d="M-86.98,74.09l1.5,4.26c0,0,10.75,1.56,17.94-1.12s11.81-6.5,14.04-12.36
		c3-7.86-0.28-16.1-0.28-16.1l-10.3,16.7l-18.39,6.77L-86.98,74.09z"/>
	<path style="display:inline;fill:#464C4F;" d="M-76.53,40.16c-0.84,0.17-11.87,0.59-11.87,0.59l1.42,6.6c0,0,1.42-0.25,2.84-0.33
		c1.42-0.08,9.82-0.94,13.46,1.25c5.27,3.18,5.52,8.11,5.52,8.11s8.19-3.26,7.19-5.02c-1-1.76-6.6-9.7-6.6-9.7L-76.53,40.16z"/>
	<path style="display:inline;fill:#464C4F;" d="M-65.3,94.42c0,0,2.8,4.55,3.36,4.71c0.56,0.16,7.15,0.14,9.23,0.18
		c4.25,0.09,4.35-1.7,2.92-4.33c-1.66-3.07-3.34-4.98-3.34-4.98L-65.3,94.42z"/>
	<path style="display:inline;fill:#606265;" d="M-75.87,9.3c-38.5-0.23-61.41,30.48-60.3,58.52c1.11,28.04,22.92,57.63,59.63,57.19
		c36.71-0.45,58.63-31.05,59.46-58.03S-39.37,9.53-75.87,9.3z M-75.42,114.77c-21.58,0.89-48.73-16.24-48.06-45.62
		c0.67-29.37,22.93-45.92,45.62-46.51c17.13-0.45,47.62,11.79,47.62,47.17C-30.25,98.32-55.16,113.94-75.42,114.77z"/>
	<path style="display:inline;fill:#606265;" d="M-50.54,93.73c-0.8-1.14-14.31-21.06-14.31-21.06s11.33-5.84,11.91-16.6
		c0.16-2.97,0-12.13-8.81-17.86c-8.81-5.72-27.29-3.71-31.32-3.48c-4.03,0.23-4.11,2.01-4.26,3.64c-0.15,1.63,0.16,57.81,0.16,57.81
		s3.03,0.2,6.35,0.18c3.55-0.02,6.35-0.02,6.35-0.02l-0.06-20.7l6.53,0.11l13.39,19.69c0,0,12.02-0.11,13.28,0
		C-50.08,95.56-49.74,94.87-50.54,93.73z M-76.64,65c-4.16,0.07-8.13-0.11-8.13-0.11l-0.11-20.83c0,0,4.24-0.24,8.84,0.03
		c5.58,0.32,10.91,3.31,10.73,10.62C-65.5,62.61-70.23,64.88-76.64,65z"/>
	<path style="display:inline;fill:#9A9A9A;" d="M-93.55,38.52c-1.31,1.13-1.48,8.55,0.26,8.89c1.74,0.35,3.49-3.84,4.88-4.88
		S-82.89,40-83,38.69C-83.18,36.58-91.63,36.86-93.55,38.52z"/>
	<path style="display:inline;fill:#9A9A9A;" d="M-61.46,57.27c-1.66-0.17-2.96,4.36-4.36,5.84s-4.82,2.93-4.45,4.62
		c0.5,2.25,6.81,1.65,8.89-0.78C-58.76,63.9-58.3,57.6-61.46,57.27z"/>
	<path style="display:inline;fill:#9A9A9A;" d="M-130.61,50.38c-0.4,1.69-0.61,3.49,1.05,4.1c1.66,0.61,2.53-1.83,3.05-3.4
		c0.52-1.57,6.8-15.09,16.31-22.85c10.33-8.44,23.2-11.34,25.03-11.86s3-1.78,2.7-2.88c-0.35-1.31-2.18-1.4-3.75-1.05
		c-1.24,0.28-14.08,1.39-27.35,12.22C-126.39,35.13-130.18,48.55-130.61,50.38z"/>
	<path style="display:inline;fill:#9A9A9A;" d="M41.08,37.6L11.2,38.49c-1.46,0-3-0.75-2.64-2.64c0.36-1.89,2.73-2.64,4.19-2.64
		c0,0,26.51,0,29.02,0s4.88,0.33,4.88,1.81C46.66,36.51,44.22,37.53,41.08,37.6z"/>
	<path style="display:inline;fill:#9A9A9A;" d="M34.18,83.5l-23.55,0.89c-1.15,0-2.36-0.75-2.08-2.64s2.16-2.64,3.31-2.64
		c0,0,20.9,0,22.88,0c1.98,0,3.85,0.33,3.85,1.81C38.58,82.41,36.65,83.43,34.18,83.5z"/>
</g>
<g id="Layer_2">
	<g>
		<g>
			<path style="fill:#464C4F;" d="M4.04,46.79c0,0,0.08,5.37,0.08,6.43s0.37,2.67,2.98,2.67s112,0.23,113.73,0.16
				c2.38-0.1,2.94-2.39,3.01-4.37c0.06-1.98,0.03-5.42,0.03-5.42l-27.16-5.91l-78.76,4.09L4.04,46.79z"/>
			<path style="fill:#616266;" d="M7.84,25.58c-2.48-0.06-3.52,0.86-3.71,3.03S3.99,45.77,4.06,47.32c0.06,1.55,1.05,3.78,4.09,3.78
				s110.82,0.25,112.44,0.19s3.16-1.55,3.29-4.47c0.12-2.91,0.06-16.35,0.12-18.02s-0.68-3.04-3.78-3.1
				C117.11,25.64,10.38,25.64,7.84,25.58z"/>
			<path style="fill:#9A9A9A;" d="M10.84,42.08c2.42,0.19,4.06-3.24,7.84-5.66s8.42-1.93,8.51-4.74s-13.3-3.39-16.16-0.44
				S8,41.85,10.84,42.08z"/>
		</g>
		<g>
			<path style="fill:#464C4F;" d="M4.04,93.16c0,0,0.08,5.37,0.08,6.43s0.37,2.67,2.98,2.67s112,0.23,113.73,0.16
				c2.38-0.1,2.94-2.39,3.01-4.37c0.06-1.98,0.03-5.42,0.03-5.42l-27.16-5.91L17.95,90.8L4.04,93.16z"/>
			<path style="fill:#616266;" d="M7.84,71.95c-2.48-0.06-3.52,0.86-3.71,3.03c-0.19,2.17-0.14,17.17-0.07,18.72
				c0.06,1.55,1.05,3.78,4.09,3.78s110.82,0.25,112.44,0.19s3.16-1.55,3.29-4.47c0.12-2.91,0.06-16.35,0.12-18.02
				c0.06-1.67-0.68-3.04-3.78-3.1C117.11,72.01,10.38,72.01,7.84,71.95z"/>
			<path style="fill:#9A9A9A;" d="M10.84,88.45c2.42,0.19,4.06-3.24,7.84-5.66c3.77-2.42,8.42-1.93,8.51-4.74
				c0.1-2.81-13.3-3.39-16.16-0.44C8.18,80.57,8,88.22,10.84,88.45z"/>
		</g>
	</g>
	<g>
		<path style="fill:#464C4F;" d="M-183.23,94.1c0,0,0.08,5.37,0.08,6.43s0.37,2.67,2.98,2.67c2.6,0,112,0.23,113.73,0.16
			c2.38-0.1,2.94-2.39,3.01-4.37c0.06-1.98,0.03-5.42,0.03-5.42l-27.16-8.91l-78.76,4.09L-183.23,94.1z"/>
		<path style="fill:#616266;" d="M-179.43,69.89c-2.48-0.06-3.52,0.86-3.71,3.03c-0.19,2.17-0.14,20.17-0.07,21.72
			c0.06,1.55,1.05,3.78,4.09,3.78s110.82,0.25,112.44,0.19c1.61-0.06,3.16-1.55,3.29-4.47c0.12-2.91,0.06-19.35,0.12-21.02
			c0.06-1.67-0.68-3.04-3.78-3.1C-70.15,69.95-176.88,69.95-179.43,69.89z"/>
		<path style="fill:#9A9A9A;" d="M-176.42,86.39c2.42,0.19,4.06-3.24,7.84-5.66c3.77-2.42,8.42-1.93,8.51-4.74
			c0.1-2.81-13.3-3.39-16.16-0.44S-179.27,86.16-176.42,86.39z"/>
	</g>
</g>
</svg>
