<?xml version="1.0" encoding="utf-8"?>
<!-- Generator: Adobe Illustrator 24.1.2, SVG Export Plug-In . SVG Version: 6.00 Build 0)  -->
<svg version="1.1" id="Layer_5" xmlns="http://www.w3.org/2000/svg" xmlns:xlink="http://www.w3.org/1999/xlink" x="0px" y="0px"
	 viewBox="0 0 128 128" style="enable-background:new 0 0 128 128;" xml:space="preserve">
<g>
	<path style="fill:#E0E0E0;" d="M93.96,8.97C72.05,8.97,64,31.35,64,31.35S56.06,8.97,33.99,8.97c-16.58,0-35.48,13.14-28.5,43.01
		c6.98,29.87,58.56,67.08,58.56,67.08s51.39-37.21,58.38-67.08C129.41,22.11,111.87,8.97,93.96,8.97z"/>
	<g>
		<path style="fill:#BDBDBD;" d="M30.61,11.2c17.2,0,25.74,18.49,28.5,25.98c0.39,1.07,1.88,1.1,2.33,0.06l2.52-5.88
			C60.41,20.01,50.65,8.97,33.99,8.97c-6.9,0-14.19,2.28-19.86,7.09C19.14,12.77,25.01,11.2,30.61,11.2z"/>
		<path style="fill:#BDBDBD;" d="M93.96,8.97c-5.29,0-9.77,1.54-13.53,3.85c2.64-1.02,5.56-1.62,8.8-1.62
			c16.21,0,30.72,12.29,24.17,40.7c-5.62,24.39-38.46,53.98-48.49,65.27c-0.64,0.72-0.86,1.88-0.86,1.88s51.39-37.21,58.38-67.08
			C129.41,22.11,110.53,8.97,93.96,8.97z"/>
	</g>
	<g>
		<g>
			<g>
				<path style="fill:#FFFFFF;" d="M17,24.82c3.75-4.68,10.45-8.55,16.13-4.09c3.07,2.41,1.73,7.35-1.02,9.43
					c-4,3.04-7.48,4.87-9.92,9.63c-1.46,2.86-2.34,5.99-2.79,9.18c-0.18,1.26-1.83,1.57-2.45,0.46C12.73,41.95,11.53,31.65,17,24.82
					z"/>
			</g>
		</g>
	</g>
	<path style="fill:#FFFFFF;" d="M77.13,34.66c-1.76,0-3-1.7-2.36-3.34c1.19-3.02,2.73-5.94,4.58-8.54
		c2.74-3.84,7.95-6.08,11.25-3.75c3.38,2.38,2.94,7.14,0.57,9.44C86.07,33.4,79.66,34.66,77.13,34.66z"/>
</g>
</svg>
