<?xml version="1.0" encoding="utf-8"?>
<!-- Generator: Adobe Illustrator 26.3.1, SVG Export Plug-In . SVG Version: 6.00 Build 0)  -->
<svg version="1.1" id="emoji_x5F_u1f90f" xmlns="http://www.w3.org/2000/svg" xmlns:xlink="http://www.w3.org/1999/xlink" x="0px"
	 y="0px" viewBox="0 0 128 128" style="enable-background:new 0 0 128 128;" xml:space="preserve">
<path style="fill:#70534A;" d="M118.88,43.13c-6.13-13.22-24.44-24.9-45.03-31.8C58.49,6.18,55.82,16.4,55.82,16.4l-1.33,5.91
	c-4.78,0.33-9.71,0.99-14.89,2.08C28.14,26.81,9.51,38.58,4.38,43.88c-2.65,2.74-0.89,8.92,6.76,9.5c8.91,0.67,19.1-5.56,28.65-8.4
	c3.47-1.03,7.41-1.73,11.32-2.19c0,0-0.33,3.18,1.27,5.55s5.54,2.71,5.54,2.71c4.83,10.88-5.6,14.92-11.92,14.92
	c-6.4,0-17.56-9.26-29.66-9.26c-5.12,0-11.4,1.72-10.57,9.39c0.44,4.1,9.17,6.64,9.17,6.64c22.69,7.67,21.1,16.01,29.06,26.49
	c10.98,14.46,34.14,21.3,53.24,13.03c8.4-3.64,18.38-11.78,23.16-21.25C127.07,77.75,125.1,56.53,118.88,43.13z"/>
<path style="fill:#5C4037;" d="M82.02,67.6c-0.22-0.79-1.33-2.48-1.97-2.99c-0.73-0.58-5.66,1.7-11.05-2.58
	c-3.65-2.91-4.01-8.95-5.05-9.18c-0.61-0.14-4.63-0.9-5.61-1.11c3.47,9.57-4.97,13.67-10.75,14.15c0.14,0.14,12.73,5.13,15.43,8.61
	c2.9,3.74,2.83,8.91,4.65,13.28c0.98,2.35,3.52,5.57,6.05,5.3c1.64-0.17,2.71-1.57,3.81-2.79c3.84-4.23,7.92-9.27,11.75-13.5
	c0.96-1.06,1.93-2.13,2.65-3.37C87.82,74.43,83.15,71.69,82.02,67.6z"/>
<g>
	<path style="fill:#4A2F27;" d="M69.71,25.08c1.67-1.4,4.28-1.45,7.68-1.21c9.28,0.66,24.22,5.46,24.22,5.46l-0.87-1.13
		c-0.1-0.13-2.47-3.13-10.96-5.76C86.1,21.3,82,20.49,78.13,19.8c-4.59-0.83-8.42-0.1-11.07,2.11c-2.51,2.09-3.83,5.39-3.83,9.52
		c0,0-0.01,21.72,0.72,25.31c0.77,3.76,3.32,7.13,6.84,9.01c1.3,0.7,6.84,1.84,12.07-0.5c0,0-2.03-4.35-2.2-4.29
		c-2.29,0.9-4.84,0.98-7.28,0.68c-4.9-0.6-5.79-8.04-5.87-11.49l-0.15-18.71C67.37,29.42,67.78,26.7,69.71,25.08z"/>
	<path style="fill:#4A2F27;" d="M54.84,15.11c-1.05,1.83-3.4,11.21-3.65,12.27c-0.25,1.06-2.67,12.43-2.74,14.26
		c-0.24,6.63,4.17,11.91,10.5,12.56l8.42,0.81l-0.02-0.57c-0.05-1.52-0.29-3.03-0.71-4.49l-0.11-0.38c0,0-7.81,1.21-11.62-1.54
		c-1.78-1.28-2.4-3.81-2.31-6.23c0.05-1.42,2.8-15.12,3.27-17.07c1.81-7.58,2.8-9.75,4.32-11.63C61.5,11.49,64.1,10,64.1,10
		s-2.3,0.27-4.48,1.19C57.7,11.98,55.89,13.29,54.84,15.11z"/>
	<path style="fill:#4A2F27;" d="M108.32,60.05c-2.02-1.62-8.6-6.59-9.79-6.52c-0.57,0.03-1.07,0.32-1.5,0.86
		c-0.17,0.21-2.18,6.39-2.18,6.39s3.9-0.93,6.82,1.9c1.33,1.29,2.3,2.86,2.3,4.73c0,2.67-3.29,2.82-3.29,2.82
		c-5.71,0.63-14.34,1.58-15.53-1.41c-2.27-5.71-2.71-13.63-3.07-20c-0.28-4.92,2.92-7.6,7.93-8.61c5.42-1.09,20.59-1.46,20.59-1.46
		l-1.2-0.66c-5.49-3.03-11.19-2.62-17.23-2.18c-0.8,0.06-1.61,0.12-2.42,0.17c-7.36,0.45-12.21,5.79-11.81,12.98
		c0.25,4.48,0.8,8.94,1.59,13.35c0.39,2.17,1.53,7.63,1.71,8.16c0.5,1.48,1.58,2.78,2.94,3.54c1.45,0.82,3.08,0.97,4.69,1.24
		c-0.46,0.06-3.2,2.52-3.92,3.14c-1.45,1.25-8.83,9.95-10.16,13.51c-0.01,0.04-0.03,0.07-0.04,0.11c-0.08,0.22-0.16,0.47-0.07,0.69
		c0.25,0.59,1.14,0.18,1.57-0.29c7.36-7.86,16.5-14.76,27.15-16.38c0.86-0.13,1.78-0.24,2.48-0.76c0.77-0.57,0.68-1.38,0.84-2.23
		c1.41-7.86,2.5-8.97,2.91-10.41C110.01,61.39,109.2,60.76,108.32,60.05z"/>
	<path style="fill:#4A2F27;" d="M62.29,71.09c-3.23-3.51-7.29-5.37-11.74-5.37c-0.16,0-5.21,0.71-11.98-1.97
		c-0.14,0.5,1.27,2.74,8.38,4.31c4.07,0.9,7.68,0.43,13.94,7.99c2.25,2.71,4.65,7.63,5.74,10.44c0.11,0.29,0.37,0.47,0.67,0.47
		c0.03,0,0.07,0,0.1-0.01c0.35-0.05,0.62-0.34,0.65-0.7C68.42,82.23,66.57,75.73,62.29,71.09z"/>
	<path style="fill:#4A2F27;" d="M80.34,118.12c-20.92-0.85-33.17-15.25-33.17-15.25s24.64,19.93,53.19,4.98
		c28.19-14.76,22.5-52.34,18.51-64.73c0,0,3.12,4.59,4.73,12.62c1.07,5.34,6.58,40.88-20.77,56.46
		C95.1,116.61,87.34,118.12,80.34,118.12z"/>
	<path style="fill:#4A2F27;" d="M37.34,42.36c8.73-2.41,13.3-1.85,13.3-1.85l-0.86,4.09c0,0-5.8-0.6-15.57,2.74
		c-5.3,1.82-8.86,3.49-13.57,4.75C18.07,52.79,30.89,44.14,37.34,42.36z"/>
</g>
</svg>
