<svg xmlns="http://www.w3.org/2000/svg" viewBox="0 0 64 64" enable-background="new 0 0 64 64"><path d="m24.4 7.8c-2.7 1.7-6.2 5.5-10.4 7.2-3.9 1.5-12 2.3-12 2.3v31c0 0 14.8-1 19.6 2.9l2.8-43.4" fill="#b47d56"/><path d="m21.3 48.3c0 0-10.2-2.8-19.3-2.8v2.7c6.6 0 19.6 2.9 19.6 2.9l-.3-2.8" fill="#935e3e"/><path d="m46.1 14.1c0 0-6.5-6.5-9.4-7.9-10.6-5.3-20.2 7.6-19.9 18.5.2 6.3 1.1 15.9 2.5 22 2.1 9 14.9 9.3 20.5 8.7l6.3-41.3" fill="#b47d56"/><path d="m39.8 54.2c-10.9 0-18.1-3.3-21.5-8.4.5 6.8 9.8 11 21.5 10v-1.6" fill="#935e3e"/><path d="M33.8,6.2C51.8,4,58.9,13.5,60.9,17c1.8,3.1,1.1,6.1-0.7,8c-2,2.1-12.2,4.8-12.2,4.8S27,7,33.8,6.2z" fill="#b47d56"/><path d="m27 36c6.9-.6 9.5-6 10.6-8.5l.9 4c0 0-1.7 5.2-8.4 5.4-1.7.1-3.3-.2-4.7-.9.5.1 1.1.1 1.6 0" fill="#935e3e"/><path d="m49.4 46.2l-3.2 3.1-4.2-.4c-4.9-.4-5.5 8.9-.6 9.3l5.9.6c1.1.1 1.9-.1 2.8-1.1l4.5-4.4c3.9-3.7-1.4-10.8-5.2-7.1" fill="#b47d56"/><path d="m54.8 52.1l-4.5 4.4c-.9.9-1.7 1.1-2.8 1.1l-6-.6c-2.2-.2-3.3-2.1-3.4-4.2-.3 2.4.8 5.3 3.4 5.6l6 .6c1.1.1 1.8-.3 2.7-1.3l4.5-4.4c1-1 1.4-2.3 1.3-3.5-.2.8-.5 1.6-1.2 2.3" fill="#935e3e"/><path d="m51 36.5l-3.7 3.7-4.9-.5c-5.8-.5-6.5 10.5-.7 11l7 .7c1.3.1 2.2-.2 3.3-1.3l5.3-5.2c4.3-4.4-1.9-12.8-6.3-8.4" fill="#b47d56"/><path d="m57.3 43.4l-5.3 5.2c-1.1 1.1-2 1.3-3.3 1.3l-7-.7c-2.6-.2-3.9-2.5-4-4.9-.4 2.9.9 6.1 3.9 6.4l7 .7c1.3.1 2.2-.2 3.3-1.3l5.3-5.2c1.2-1.2 1.6-2.7 1.5-4.1-.2.9-.6 1.8-1.4 2.6" fill="#935e3e"/><path d="m51.3 25.3l-4.3 4.3-5.8-.6c-6.8-.6-7.6 12.2-.8 12.8l8.2.8c1.5.1 2.6-.2 3.8-1.5l6.2-6.1c5.2-5.1-2.1-14.8-7.3-9.7" fill="#b47d56"/><g fill="#935e3e"><path d="m58.7 33.4l-6.2 6.1c-1.3 1.3-2.3 1.6-3.8 1.5l-8.2-.8c-3-.3-4.5-2.9-4.7-5.7-.4 3.4 1 7.1 4.6 7.4l8.2.8c1.5.1 2.6-.2 3.8-1.5l6.2-6.1c1.4-1.4 1.9-3.1 1.7-4.8-.2 1.1-.7 2.1-1.6 3.1"/><path d="m49.6 20.2c0 0 .8-2.4 3.5-4.2-2.6.4-4.4 3-4.4 3l.9 1.2"/><path d="m60.3 23.7l-6.2 6.1c-1.3 1.3-2.3 1.5-3.8 1.5l-.1 1.7c1.5.1 2.6-.2 3.8-1.5l6.2-6.1c1.4-1.4 1.9-3.1 1.7-4.8-.1 1-.6 2.1-1.6 3.1"/></g><path d="m33.2 21.6l5.1 3.8 1.1 6.9c1.3 8.1 12.9 5.1 11.6-3l-1.7-9.8c-.3-1.8-.5-3-2-4.1l-7.3-5.3c-6-4.5-12.8 7.1-6.8 11.5" fill="#b47d56"/><g fill="#935e3e"><path d="m45.4 37.1c3.9-.1 7-3.6 6-7.8-2-8.4-1.7-10.8-2.5-12.3-2-3.4-12.1-10.6-12.8-11.1.3.4 10.7 9.6 11.6 11.7 1 2.2 1.1 5.7 2 9.8 1.4 6.2-.8 7.8-4.3 9.7"/><path d="m38.3 25.6c0 0-2-.7-4.5-3.3 1.6 3.8 3.3 4.1 3.3 4.1s1.3 10.9 7 10.8c-4.5-1.6-5.8-11.6-5.8-11.6"/></g></svg>