<?xml version="1.0" encoding="utf-8"?>
<!-- Generator: Adobe Illustrator 26.3.1, SVG Export Plug-In . SVG Version: 6.00 Build 0)  -->
<svg version="1.1" id="emoji_x5F_u1f44b" xmlns="http://www.w3.org/2000/svg" xmlns:xlink="http://www.w3.org/1999/xlink" x="0px"
	 y="0px" viewBox="0 0 128 128" style="enable-background:new 0 0 128 128;" xml:space="preserve">
<g>
	<path style="fill:#A56C43;" d="M109.4,63.15c-1.14-9.18-3.73-27.36-4.6-30.71c-1.34-5.2-3.36-7.88-6.93-7.95
		c-4.16-0.07-5.49,2.97-5.2,7.67c0,0,2.31,27.29,2.31,27.29c-1.14-0.19-1.09-0.62-2.36-0.8c0.09-0.6,0.07-1.24-0.01-1.83
		c0,0-2.89-36.41-2.89-36.41c-0.97-6.16-3.32-8.48-7.8-7.66c-3.06,0.56-4.68,4.02-4.78,9l0.71,35.63c-0.81-0.05-1.62-0.1-2.43-0.14
		c0.31-1.99,0.05-40.81-0.62-46.34C74.21,5.86,71.92,4,69.09,4c-3.76,0-6.54,2-7.1,8.17c-0.66,7.26-1.8,43.21-1.45,43.23
		c-0.1,0.67-0.12,1.4,0,2.07c-0.91,0.02-1.79,0.04-2.65,0.07l1.52-34.83c0.13-6.54-1.85-9.42-5.34-9.68
		c-3.69-0.27-5.88,1.35-6.93,7.44C44.62,35.1,42.5,61.81,41.7,74.86c-0.08,3.49-1.72,2.27-1.72,2.27
		C32.62,64.05,19.01,58.4,13.62,66.1c-0.76,1.08-1.03,4.23,2.32,7.57c2.47,2.46,5.58,5.8,10.28,12.7
		c11,16.17,14.62,37.63,46.06,37.63c17.51,0,28-7.3,32.97-19.01C111.49,90.29,110.67,73.43,109.4,63.15z"/>
	<g>
		<path style="fill:#875334;" d="M57.8,22.02c-0.13,4.14-1.32,33.53-1.57,35.32c-0.25,1.79-1.92,3.14-1.22,4.69
			c0.49,1.09,3.29-0.47,4.33-1.36c0.98-0.84,1.29-1.75,1.29-3.18s0.75-34.54,0.75-34.54c0-8.04-3.09-9.91-7.2-9.94
			C56.08,13.73,57.96,16.77,57.8,22.02z"/>
		<path style="fill:#875334;" d="M73.92,12.19c0.47,5.25-0.02,43.78-0.19,45.09c-0.16,1.31-1.05,2.25,0.05,3.47
			c0.84,0.93,2.65,0.88,3.81,0.47c1.62-0.58,0.2-3.22,0.21-5.07c0-1.85,0.13-38.14-0.49-43.68c-0.78-6.88-4.45-8.4-7.28-8.4
			C70.02,4.06,73.31,5.36,73.92,12.19z"/>
		<path style="fill:#875334;" d="M88.1,19.16c0,0,2.76,41.61,2.74,41.7c0,0-0.45,2.26,3.23,3.44c0.92,0.3,2.3,0.54,2.4-0.76
			c0.05-0.73-1.27-2.5-1.35-3.1l-3.51-40.09c-0.72-5.44-3.53-8.02-7.93-7.78C83.69,12.57,87.11,13.08,88.1,19.16z"/>
		<path style="fill:#875334;" d="M109.33,63.13c-1.14-9.18-3.92-27.31-4.6-30.71c-1.27-6.42-3.61-8.12-6.93-7.95
			c-0.05,0,2.76,0.8,3.81,6.69c0.59,3.33,2.81,20.1,4.21,31.04c1.99,15.53,1.12,28.73-4.33,41.2c-3.87,8.86-10.28,14.32-19.21,17.48
			c-5.52,1.96-10.08,3.09-10.08,3.09c17.51,0,28-7.3,32.97-19.01C111.42,90.26,110.6,73.41,109.33,63.13z"/>
		<path style="fill:#875334;" d="M35.5,77.46c2.7,3.45,4.79,3.94,5.94,1.13c0.98-2.38-0.51-1.27-0.92-1.27
			c-0.33,0-0.61-0.21-0.61-0.21c-5.08-9.03-13.14-14.52-19.42-14.52c-1.25,0-2.43,0.23-3.5,0.69C28.36,63.98,32.8,74.01,35.5,77.46z
			"/>
		<path style="fill:#875334;" d="M52.32,75.07c-0.69,0.99-2.02,1.21-2.21-0.39c-0.24-1.96-0.06-4.54,0.17-5.61
			c0.2-0.92,0.78-1.41,1.67-0.47C52.53,69.21,53.58,73.25,52.32,75.07z"/>
		<path style="fill:#875334;" d="M85,75.3c-0.84,0.89-2.06,0.91-2.12-0.75c-0.08-2.17,0.34-4.5,0.73-5.69c0.3-0.91,1-1.3,1.72-0.21
			C85.81,69.37,86.54,73.66,85,75.3z"/>
		<path style="fill:#875334;" d="M101.18,76.83c-0.9,0.88-2.25,0.82-2.07-0.88c0.21-2.08,0.38-3.51,0.59-4.48
			c0.2-0.97,1.03-1.44,1.69-0.27C101.81,71.96,102.82,75.22,101.18,76.83z"/>
		<path style="fill:#875334;" d="M69.16,74.9c-0.86,1.06-2.28,1.18-2.46-0.64c-0.24-2.35-0.09-5,0.31-6.35
			c0.3-1.02,1.01-1.52,1.93-0.38C69.54,68.28,70.75,72.96,69.16,74.9z"/>
	</g>
</g>
</svg>
