<?xml version="1.0" encoding="utf-8"?>
<!-- Generator: Adobe Illustrator 26.3.1, SVG Export Plug-In . SVG Version: 6.00 Build 0)  -->
<svg version="1.1" id="emoji_x5F_u1f919" xmlns="http://www.w3.org/2000/svg" xmlns:xlink="http://www.w3.org/1999/xlink" x="0px"
	 y="0px" viewBox="0 0 128 128" style="enable-background:new 0 0 128 128;" xml:space="preserve">
<path style="fill:#F9DDBD;" d="M115.61,123.26c4.57,0,5.41-3.57,4.48-6.25c-0.9-2.6-3.6-4.7-8.89-6.86
	c-10.27-4.18-24.73-7.85-24.73-9.13s6.2-0.34,14.29-1.77c6.14-1.09,6.72-3.29,7.5-7.11c0.93-4.52-2.24-7.94-2.24-7.94
	s5.45-2,5.45-8.22c0-6.22-6.28-9.01-6.28-9.01s2.57-1.57,3.23-5.23c0.82-4.51-2.47-8.51-6.94-11.5c-3.77-2.52-8.55-4.78-12.1-6.15
	c-3.05-1.18-5.34-2.01-12.83-1.92c-6.03,0.07-8.98-0.11-9.44-2.04c-0.35-1.44,0.9-2.93,2.15-6.55c1.55-4.46,5.53-15.96-1.7-26.22
	c-2.78-3.94-9.98-3.88-11.44-2.51c-2.78,2.61,0.84,7.83-1.09,17.18c-1.33,6.45-2.93,10.85-9.48,15.82
	c-3.78,2.87-12.16,7.64-18.63,15.64c-2.4,2.96-9.88,2.4-14.06,1.82c-1.67-0.23-3.24,0.88-3.57,2.54
	c-3.32,16.54-1.07,33.83,0.05,40.5c0.27,1.62,1.73,2.77,3.37,2.65c3.73-0.26,10.05-0.66,12.01-0.44c3.95,0.44,12.08,6.36,23.22,9.51
	c9.89,2.8,23.96,5.39,30.25,5.74S111.14,123.26,115.61,123.26z"/>
<path style="fill:#FFD29C;" d="M79.8,42.19l0,0.16c3.83,0.01,7.28,3.6,7.14,7.43c-0.17,4.46-6.4,6.29-4.03,12.6
	c0.48,1.29,6.31,3.42,4.88,9.83c-1.17,5.25-5.54,4.88-5.54,7.51c0,4.46,5.21,7.44,5.58,12.52s-2.24,5.89-2.06,7.65
	c0.13,1.3,0.7,1.77,0.7,1.12c0-1.28,6.2-0.34,14.29-1.77c6.14-1.09,6.72-3.29,7.5-7.11c0.93-4.52-2.24-7.94-2.24-7.94
	s5.45-2,5.45-8.22c0-6.22-6.28-9.01-6.28-9.01s2.57-1.57,3.23-5.23c0.82-4.51-2.47-8.51-6.94-11.5c-3.77-2.52-8.55-4.78-12.1-6.15
	C86.83,43.09,84.79,42.35,79.8,42.19z"/>
<g>
	<path style="fill:#EDBD82;" d="M82.05,81.07c-0.09-2.11,0.05-2.69,1.16-2.97c1.11-0.28,3.14,0.51,3.14,0.51
		c8.18-0.69,17.01,1.05,19.68,5.58c0,0-13-0.95-17.88-0.69C84.32,83.71,82.16,83.75,82.05,81.07z"/>
	<path style="fill:#EDBD82;" d="M105.2,66.97c-7.99-2.79-17.33-3.29-20.09-3.29c-3.92,0-3.17-5.96-1.5-7.08
		c1.15-0.47,2.51,1.18,3.58,1.57C90.37,59.34,103.81,60.08,105.2,66.97z"/>
	<path style="fill:#EDBD82;" d="M105.71,122.93c-14.67-2.6-34.22-7.76-49.74-9.76c-11.42-1.47-17.81-5.89-22.62-8.37
		c-2.71-1.4-4.85-2.51-7-3.05c-5.69-1.44-10.07-0.63-13.62-0.76c-3.55-0.13,4.27-5.12,14.59-3.09c2.62,0.51,5.03,1.91,7.85,3.37
		c4.86,2.51,10.8,6.25,21.65,8.02c6.08,1,15.31,2.02,23.98,4.2c6.84,1.71,25.86,7.77,32.48,8.58c3.39,0.42,6.38-0.5,6.39-0.5
		c0,0-0.57,1.36-2.88,2.05C114.33,124.36,111.44,123.95,105.71,122.93z"/>
	<g>
		<path style="fill:#EDBD82;" d="M71.53,42.1c-2.08,0.3-6.6-1.05-4.72-5.59c3.2-7.72,3.46-10.39,3.33-18.15
			c-0.1-5.56-1.82-9.31-3.11-11.58c0,0,10.38,7,5.13,28.87C71.39,38.83,71.53,42.1,71.53,42.1z"/>
	</g>
	<path style="fill:#EDBD82;" d="M105.15,97.83c0,0-2.36,1.45-5.54,2.56c-3.19,1.11-8.49,2.04-10.59,2.05s-4.6-2.21-2.8-3.04
		C88.01,98.58,105.15,97.83,105.15,97.83z"/>
</g>
</svg>
