<svg xmlns="http://www.w3.org/2000/svg" viewBox="0 0 64 64" enable-background="new 0 0 64 64"><path d="m29.3 40.9h-8.1v-31.6c0-2.1 1.8-3.9 4-3.9 2.2 0 4 1.8 4 3.9l.1 31.6" fill="#fed0ac"/><path d="m25.3 5.5c.3 0 .5 0 .7.1-1.9.3-3.3 1.9-3.3 3.8v31.6h-1.4v-31.7c-.1-2.1 1.7-3.8 4-3.8" fill="#e0a372"/><path d="m38.4 40.9h-9v-34.2c0-2.6 2-4.7 4.5-4.7 2.5 0 4.5 2.1 4.5 4.7v34.2" fill="#fed0ac"/><path d="m33.8 2c.2 0 .5 0 .7.1-2.2.3-3.8 2.3-3.8 4.6v34.2h-1.4v-34.2c0-2.6 2-4.7 4.5-4.7" fill="#e0a372"/><path d="m46.2 40.9h-7.9v-32.2c0-2.2 1.8-4.1 3.9-4.1 2.2 0 3.9 1.8 3.9 4.1l.1 32.2" fill="#fed0ac"/><path d="m42.3 4.6c.2 0 .5 0 .7.1-1.8.3-3.3 2-3.3 4v32.2h-1.4v-32.2c.1-2.3 1.8-4.1 4-4.1" fill="#e0a372"/><path d="m49.8 9.4c2 0 3.6 1.7 3.6 3.8v27.7h-7.2v-27.7c0-2.1 1.6-3.8 3.6-3.8" fill="#fed0ac"/><path d="m49.8 9.4c.2 0 .5 0 .7.1-1.7.3-2.9 1.9-2.9 3.7v27.7h-1.4v-27.7c0-2.1 1.6-3.8 3.6-3.8" fill="#e0a372"/><path d="m13.5 30.2c4.3.4 5.7 3.7 6.2 5.4l.2.8c0 0 .5.5 1.1 1.4.1 0 .1 0 .2 0 0 0 1.9-3 1.8-9.2l6.3.5 1.4 1 7.7-.1 1.3 1.4 6.6-.4 1.4 1.3c0 0 5.7 0 5.8.6.5 2.1 1 5 0 13.5-2.4 20.5-28.8 16.8-34.2 7.7-1-1.7-4.9-6.5-4.9-6.5-.6-.5-1-1.3-1.1-2.3-.3-2.9-1-6.5-3-10.7-.8-1.8.2-4.7 3.2-4.4" fill="#fed0ac"/><g fill="#e0a372"><path d="m11 31c-.2.7-.1 1.4.1 1.9 2 4.2 2.7 7.8 3 10.7.1 1 .5 2.1 1.1 2.7 2.9 3 7.2 14.4 17.5 14.4 11.4 0 16.9-5.2 18.6-7.4-1.3 3.2-6.7 8.6-18.7 8.6-11.2 0-14.2-10.1-18.2-14.6-.7-.9-1-1.3-1.1-2.3-.3-2.9-1-6.5-3-10.7-.5-.9-.3-2.4.7-3.3"/><path d="m20.1 41.8c0 0-1.3-4.1-1.8-6-.4-1.6-1.9-4.5-4.5-5.6 4 .5 5.4 3.8 5.9 5.4l.2.8c0 0 .7.5 1.3 1.4 0 0-1.3 1.8-1.1 4"/><path d="m28.9 26.9c.2.5.5 1 .8 1.4.3.4.6.9.9 1.4.3.5.5 1.1.5 1.7 0 .6-.2 1.2-.5 1.7 0-.6-.1-1.1-.2-1.6-.1-.5-.3-.9-.6-1.4-.2-.5-.5-.9-.7-1.5-.3-.5-.4-1.1-.2-1.7"/><path d="m38 27.6c.2.5.5 1 .8 1.4.3.4.6.9.9 1.4.3.5.5 1.1.5 1.7 0 .6-.2 1.2-.5 1.7 0-.6-.1-1.1-.2-1.6-.1-.5-.3-.9-.6-1.4-.2-.5-.5-.9-.7-1.5-.3-.5-.4-1.2-.2-1.7"/><path d="m45.8 28.6c.2.5.5 1 .8 1.4.3.4.6.9.9 1.4.3.5.5 1.1.5 1.7 0 .6-.2 1.2-.5 1.7 0-.6-.1-1.1-.2-1.6-.1-.5-.3-.9-.6-1.4-.2-.5-.5-.9-.7-1.5-.3-.5-.4-1.2-.2-1.7"/></g></svg>