<svg xmlns="http://www.w3.org/2000/svg" viewBox="0 0 36 36"><path fill="#E0AA94" d="M26 4.965C26 3.604 24.896 2.5 23.535 2.5h-.07C22.104 2.5 21 3.604 21 4.965v-2.16C21 1.532 19.968.5 18.695.5h-.391C17.032.5 16 1.532 16 2.805V4c0-1.381-1.119-2.5-2.5-2.5S11 2.619 11 4v9.347c0-1.02-.827-1.847-1.846-1.847h-.308C7.827 11.5 7 12.327 7 13.347v9.807C7 24.173 7.827 25 8.846 25H9v1h2.15c.695 3.424 3.721 6 7.35 6 4.143 0 7.5-3.357 7.5-7.5v-6c0-.217-.015-.431-.032-.643.013-.107.032-.211.032-.322V4.965z"/><path fill="#F7DECE" d="M30 8s0-2-2-2-2 2-2 2v9.286c0-.147-1-.281-1-.398V4s0-2-2-2-2 2-2 2v12.122c0-.028-1-.052-1-.069V2s0-2-2-2-2 2-2 2v14.052c0 .017-1 .053-1 .082V3s0-2-2-2-2 2-2 2v18h-1v-8s0-2-2-2-2 2-2 2v11c0 6.627 5.373 12 12 12s12-5.373 12-12V8z"/></svg>