<?xml version="1.0" encoding="utf-8"?>
<!-- Generator: Adobe Illustrator 26.3.1, SVG Export Plug-In . SVG Version: 6.00 Build 0)  -->
<svg version="1.1" id="emoji_x5F_u1f91c" xmlns="http://www.w3.org/2000/svg" xmlns:xlink="http://www.w3.org/1999/xlink" x="0px"
	 y="0px" viewBox="0 0 128 128" style="enable-background:new 0 0 128 128;" xml:space="preserve">
<path style="fill:#F9DDBD;" d="M23.96,92.59c0,0-1.45,7.08,3.48,14.63c0,0,1.1,1.06,5.03,1.58c3.19,0.43,17.78-3.19,25.26-5.55
	c13.34-4.21,20.49-9.71,27.73-17.91c10.33-11.71,26.42-8.96,26.42-8.96c7.66-2.83,20.19-47.26,4.86-48.79
	C60.44,21.95,16.66,25.75,11.2,34.16c-5.95,9.16-6.04,27.17-6.8,39.47c-0.23,3.67-1.21,12.69,1.15,15.25
	C9.95,93.67,23.96,92.59,23.96,92.59z"/>
<path style="fill:#FFD29C;" d="M39.26,91.49c-2.81,0.37-12.57,1.69-14.17,2.95c-2.71,2.13,0.55,11.23,1.68,12.24
	c3.69,3.31,10.21,2.55,15.06,1.51c1.89-0.4,8.24-2.09,8.24-2.09s-8.94-2.17-11.06-5.42C35.39,95.11,39.62,92.26,39.26,91.49z"/>
<g>
	<path style="fill:#EDBD82;" d="M12.86,80.33c-0.42,2.42,9.06-5.15,10.5-6.11c1.44-0.96,4.94-1.2,6.83-0.57
		c1.87,0.62,3.61,3.03,4.29,3.92c2.3,3.02,5.27,4.04,3.41,0.5c-4.27-8.1-6.36-11.62-0.99-17.93c0,0,12.95,6.27,12.55,11.02
		c-0.4,4.75-4.33,9.41-8.26,14.27c-3.94,4.86-15.21,6.85-19.78,7.27c-0.18,4.58,2.2,11.65,6.04,14.53c0,0-1.16-10.9,0.22-11.64
		c4.89-2.59,10-1.42,13.91-3.84c3.91-2.42,14.37-16.57,16.57-26.06c1.13-4.88,1.37-10.2-0.19-7.18c-1.55,3.01-4.1,7.95-4.1,7.95
		c-8.38-11.92-20.31-13.08-30.51-20.82c-4.41-3.34-1.74,2.67,3.52,7.91c0.71,0.71,2.16,1.42,1.87,3.95
		c-0.29,2.54-1.31,6.93-3.82,10.1C22.4,70.77,13.28,77.91,12.86,80.33z"/>
	<path style="fill:#EDBD82;" d="M34.72,109.06c8.03,0,29.28-6.04,37.32-11.25c2.97-1.92,8.61-6.31,12.58-10.22
		c3.42-3.37,5.22-6.2,10.17-8.25c3.68-1.52,17.1-2.96,17.1-2.96c-3.58-0.23-15.79-4.14-21.5-0.5c-2.82,1.8-6.38,5.31-10.15,9.03
		c-3.59,3.55-7.46,6.98-9.83,8.77C62,100.04,34.72,109.06,34.72,109.06z"/>
</g>
</svg>
