<?xml version="1.0" encoding="utf-8"?>
<!-- Generator: Adobe Illustrator 24.1.2, SVG Export Plug-In . SVG Version: 6.00 Build 0)  -->
<svg version="1.1" id="Layer_1" xmlns="http://www.w3.org/2000/svg" xmlns:xlink="http://www.w3.org/1999/xlink" x="0px" y="0px"
	 viewBox="0 0 128 128" style="enable-background:new 0 0 128 128;" xml:space="preserve">
<g>
	<g>
		<path style="fill:#F15A24;" d="M103.06,60.5c7.19-3.2,21.36-9.27,21.36-9.27s-13.29-5.46-20.26-8.47
			c3.03-2.47,17.55-9.52,17.55-9.52l-22.15,1.83l12.22-29.53c0,0-19.24,14.61-26.71,16.48c0.03-3.43,0.1-12.51,0.1-12.51
			s-6.81,7.46-10.19,9.97C71.05,13.65,63.54,4.72,63.54,4.72s-6.71,8.21-10.41,13.87C50.09,16.13,41.94,4.58,41.94,4.58
			s1.88,14.07,1.72,17.74c-7.8-1.87-22.21-8.37-22.21-8.37S27.69,25.79,30,31.86c-4.23-0.03-18.39-0.8-23.45-1.11
			c4.09,3.1,21.17,15.44,21.17,15.44L3.58,50.87c0,0,17.17,4.15,24.14,7.16c-1.7,1.38-6.13,4.93-9.69,7.77h91.4
			C107.12,63.97,104.99,62.21,103.06,60.5z"/>
	</g>
	<linearGradient id="SVGID_1_" gradientUnits="userSpaceOnUse" x1="64.1172" y1="60.7056" x2="64.1172" y2="67.8342">
		<stop  offset="0" style="stop-color:#78C0E8"/>
		<stop  offset="1" style="stop-color:#31A0D6"/>
	</linearGradient>
	<rect x="48.28" y="45.33" style="fill:url(#SVGID_1_);" width="31.67" height="20.48"/>
	<g>
		<path style="fill:#FFEA5C;" d="M120.13,54.86c0.19-0.5,0.3-1.03,0.3-1.59c0-2.5-2.03-4.53-4.53-4.53c-2.07,0-3.8,1.4-4.34,3.3
			c-1.74,0.63-2.99,2.28-2.99,4.24c0,2.5,2.03,4.53,4.53,4.53c0.29,0,0.57-0.03,0.85-0.09c0.62,0.32,1.31,0.52,2.06,0.52
			c2.5,0,4.53-2.03,4.53-4.53C120.54,56.06,120.38,55.43,120.13,54.86z"/>
		<g>
			<path style="fill:#5C5CFF;" d="M103.31,6.31c-2.17,0.82-3.27,3.25-2.44,5.42c0.49,1.29,1.54,2.18,2.77,2.54
				c0.87,2.09,3.23,3.13,5.36,2.33c2.17-0.82,3.27-3.25,2.44-5.42c-0.49-1.29-1.54-2.18-2.77-2.54
				C107.8,6.55,105.44,5.5,103.31,6.31z"/>
		</g>
		<path style="fill:#45F9FF;" d="M19.42,49.18c0.04-0.21,0.06-0.43,0.06-0.65c0-1.9-1.54-3.45-3.45-3.45c-1.9,0-3.45,1.54-3.45,3.45
			c0,0.52,0.12,1,0.32,1.44c-2,0.1-3.64,1.69-3.76,3.74c-0.13,2.19,1.55,4.07,3.74,4.2c1.35,0.08,2.58-0.53,3.36-1.52
			c0.53,0.32,1.15,0.52,1.81,0.56c2.19,0.13,4.07-1.55,4.2-3.74C22.36,51.34,21.15,49.69,19.42,49.18z"/>
		<ellipse style="fill:#4BFF17;" cx="14.87" cy="17" rx="5" ry="4.5"/>
		<ellipse style="fill:#FF17C8;" cx="113.28" cy="24.83" rx="5" ry="4.5"/>
	</g>
	<path style="fill:#D2EDF7;" d="M99.74,31.65c-0.86-0.48-1.11-1.62-0.76-2.54c0.53-1.38,0.86-2.85,0.94-4.37
		c0.46-8.78-7.23-15.98-17.13-15.88c-3.49,0.03-6.74,0.99-9.49,2.59c-2.29-4.48-7.2-7.56-12.89-7.5c-5.9,0.07-10.88,3.5-12.94,8.28
		c-1.49-0.48-3.07-0.74-4.7-0.73c-8.02,0.07-13.82,4.78-13.24,13.57c0.1,1.49,1.28,4.3,1.28,4.3s-2.41,0.59-4.39,3.93
		c-1.61,2.71-1.78,7.08-0.38,9.96c2.19,4.51,8.27,6.63,12.79,4.46c0.64-0.31,1.37-0.7,2.03-0.43c0.33,0.14,1.71,5.2,14.13,7.78
		c7.16,1.49,15.56-3.76,16.03-3.77c0.54-0.01,1.02,0.32,1.47,0.62c0,0,3.32,3.81,10.75,2.03c7.01-1.67,7.69-6.43,8.29-6.62
		c0.48-0.15,8.7,2.43,12.17-5.44C105.22,38.37,102.63,33.26,99.74,31.65z"/>
	<path style="fill:#92CBEB;" d="M29.45,24.11c0.06,1.25,0.35,4.6,1.88,5.54c1.03,0.63,1.95,0.93,2.76,1.03
		c1.57,0.19,2.52-1.75,1.46-2.92c-1.16-1.27-2.41-3.45-2.89-7.1c-0.69-5.15,3.36-7.74,3.36-7.74S29.06,15.74,29.45,24.11z"/>
	<path style="fill:#78C0E8;" d="M103.66,41.91c1-2.26,0.66-5.45-1.16-7.49c0,0,1.11,2.89-0.29,5.76c-1.42,2.91-4.43,5.63-7.57,4.88
		c-1.96-0.47-0.04-3.69-2.8-8.43c0.14,4.47,0.05,14.6-13.07,15.44c-2.4,0.15-8.15-1.92-8.49-5.4c-0.76-7.58,6.44-6.53,7.47-6.37
		c2.47,0.37,5.17-0.7,5.58-2.65c0.37-1.77-0.49-2.47-1.3-3.17c-2.32-1.98-5.97-1.61-8.55,0.03c-3.92,2.5-5.73,9.12-8.84,12.33
		c-3.63,3.74-9.51,4.64-14.52,3.2c-8.58-2.47-11.26-13.41-11.26-13.41c-1.12,2.86-0.13,6.62,0.56,8.3
		c-8.55,1.77-12.82-2.68-14.14-3.98c0.14,0.8,0.37,1.59,0.73,2.33c2.19,4.51,8.27,6.63,12.79,4.46c0.64-0.31,1.37-0.7,2.03-0.43
		c0.33,0.14,1.71,5.2,14.13,7.78c7.16,1.49,15.56-3.76,16.03-3.77c0.54-0.01,1.02,0.32,1.47,0.62c0,0,3.32,3.81,10.75,2.03
		c7.01-1.67,7.69-6.43,8.29-6.62C91.98,47.19,100.2,49.77,103.66,41.91z"/>
	<path style="fill:#92CBEB;" d="M67.06,5.42c0,0,1.33,1.9,1.6,2.89c1.05,3.87-0.93,6.44-1.5,7.49c-0.3,0.56-0.57,1.21-0.36,1.8
		c0.23,0.64,0.93,0.98,1.59,1.08c1.78,0.29,3.63-0.69,4.62-2.19C73.98,14.99,75.75,8.97,67.06,5.42z"/>
	<path style="fill:#92CBEB;" d="M98.98,29.11c0.53-1.38,0.86-2.85,0.94-4.37c0.18-3.38-0.86-6.51-2.76-9.1
		c0.95,1.73,1.19,3.88,0.79,5.84c-0.55,2.67-2.26,5-4.24,6.87c-2.41,2.27-0.7,3.32,0.69,3.32C97.75,31.66,98.79,29.6,98.98,29.11z"
		/>
	<path style="fill:#039BE5;" d="M70.5,65.8v-6.72c0-1.26-1.12-2.28-2.5-2.28s-2.5,1.02-2.5,2.28v6.72H70.5z"/>
	<path style="fill:#039BE5;" d="M60.62,65.8V55.56c0-0.83-0.67-1.5-1.5-1.5s-1.5,0.67-1.5,1.5V65.8H60.62z"/>
	
		<radialGradient id="SVGID_2_" cx="63.7199" cy="-2088.8999" r="56.957" gradientTransform="matrix(1 0 0 -1 0 -2026)" gradientUnits="userSpaceOnUse">
		<stop  offset="0.5" style="stop-color:#FDE030"/>
		<stop  offset="0.9188" style="stop-color:#F7C02B"/>
		<stop  offset="1" style="stop-color:#F4A223"/>
	</radialGradient>
	<path style="fill:url(#SVGID_2_);" d="M63.72,118.8c15.4,0,29.8-5.2,40.4-14.5c10.83-9.61,16.87-22.86,17.53-38.5H5.79
		C7.27,102.18,36.53,118.8,63.72,118.8z"/>
	<g>
		<path style="fill:#EB8F00;" d="M13.54,92.86c0.15,0.25,0.33,0.48,0.49,0.73c-0.1-0.17-0.21-0.34-0.31-0.5
			C13.66,93.01,13.59,92.94,13.54,92.86z"/>
		<path style="fill:#EB8F00;" d="M119.45,65.8c-1.27,14.33-7.2,26.51-17.34,35.5c-10.6,9.3-25,14.5-40.4,14.5
			c-17.97,0-36.84-7.28-48-22.71c0.1,0.17,0.2,0.34,0.31,0.5c0.35,0.55,0.7,1.08,1.07,1.61c0.27,0.39,0.53,0.78,0.81,1.16
			c0.59,0.8,1.2,1.58,1.83,2.34c0.3,0.36,0.61,0.7,0.91,1.05c0.43,0.49,0.87,0.97,1.31,1.44c0.32,0.34,0.64,0.67,0.97,1
			c0.63,0.63,1.28,1.25,1.95,1.84c0.33,0.3,0.67,0.58,1,0.87c0.57,0.48,1.14,0.95,1.72,1.41c0.34,0.27,0.69,0.53,1.04,0.79
			c0.59,0.44,1.2,0.86,1.81,1.28c0.28,0.19,0.56,0.39,0.84,0.58c0.85,0.55,1.71,1.08,2.59,1.58c0.33,0.19,0.67,0.37,1,0.55
			c0.65,0.36,1.31,0.7,1.97,1.04c0.32,0.16,0.65,0.33,0.97,0.48c0.93,0.45,1.87,0.87,2.83,1.27c0.25,0.1,0.5,0.19,0.74,0.29
			c0.77,0.31,1.55,0.6,2.34,0.88c0.33,0.12,0.67,0.23,1,0.35c0.87,0.29,1.75,0.57,2.63,0.82c0.16,0.05,0.32,0.1,0.47,0.14
			c1.03,0.29,2.06,0.54,3.1,0.78c0.31,0.07,0.61,0.13,0.92,0.2c0.83,0.18,1.66,0.33,2.49,0.48c0.27,0.05,0.53,0.1,0.79,0.14
			c1.06,0.17,2.12,0.31,3.18,0.43c0.23,0.03,0.46,0.04,0.68,0.07c0.87,0.09,1.74,0.16,2.61,0.21c0.3,0.02,0.6,0.04,0.89,0.05
			c1.07,0.05,2.15,0.09,3.22,0.09c15.4,0,29.8-5.2,40.4-14.5c0.7-0.62,1.38-1.26,2.03-1.9c0.22-0.22,0.44-0.45,0.66-0.68
			c0.42-0.43,0.85-0.87,1.26-1.31c0.26-0.28,0.5-0.57,0.75-0.86c0.35-0.4,0.7-0.8,1.04-1.22c0.26-0.32,0.51-0.65,0.76-0.97
			c0.31-0.39,0.61-0.78,0.91-1.19c0.25-0.35,0.5-0.71,0.74-1.06c0.27-0.39,0.54-0.78,0.8-1.18c0.24-0.38,0.48-0.76,0.71-1.14
			c0.24-0.39,0.48-0.78,0.71-1.18c0.23-0.4,0.45-0.81,0.67-1.21c0.21-0.39,0.42-0.78,0.62-1.18c0.22-0.42,0.42-0.85,0.63-1.29
			c0.18-0.39,0.36-0.78,0.54-1.18c0.2-0.45,0.39-0.9,0.58-1.36c0.16-0.39,0.31-0.78,0.46-1.17c0.18-0.47,0.36-0.95,0.52-1.43
			c0.13-0.38,0.26-0.77,0.39-1.16c0.16-0.5,0.32-1,0.47-1.51c0.11-0.38,0.21-0.76,0.32-1.15c0.14-0.53,0.28-1.06,0.41-1.59
			c0.09-0.37,0.17-0.74,0.25-1.12c0.12-0.56,0.24-1.12,0.35-1.69c0.07-0.35,0.12-0.71,0.18-1.06c0.1-0.6,0.2-1.2,0.28-1.81
			c0.04-0.32,0.08-0.64,0.11-0.97c0.08-0.65,0.16-1.3,0.22-1.96c0.02-0.25,0.03-0.5,0.05-0.75c0.06-0.74,0.1-1.49,0.14-2.24H119.45z
			"/>
		<path style="fill:#EB8F00;" d="M119.45,65.8c-1.27,14.33-7.2,26.51-17.34,35.5c-10.6,9.3-25,14.5-40.4,14.5
			c-17.97,0-36.84-7.28-48-22.71c0.1,0.17,0.2,0.34,0.31,0.5c0.35,0.55,0.7,1.08,1.07,1.61c0.27,0.39,0.53,0.78,0.81,1.16
			c0.59,0.8,1.2,1.58,1.83,2.34c0.3,0.36,0.61,0.7,0.91,1.05c0.43,0.49,0.87,0.97,1.31,1.44c0.32,0.34,0.64,0.67,0.97,1
			c0.63,0.63,1.28,1.25,1.95,1.84c0.33,0.3,0.67,0.58,1,0.87c0.57,0.48,1.14,0.95,1.72,1.41c0.34,0.27,0.69,0.53,1.04,0.79
			c0.59,0.44,1.2,0.86,1.81,1.28c0.28,0.19,0.56,0.39,0.84,0.58c0.85,0.55,1.71,1.08,2.59,1.58c0.33,0.19,0.67,0.37,1,0.55
			c0.65,0.36,1.31,0.7,1.97,1.04c0.32,0.16,0.65,0.33,0.97,0.48c0.93,0.45,1.87,0.87,2.83,1.27c0.25,0.1,0.5,0.19,0.74,0.29
			c0.77,0.31,1.55,0.6,2.34,0.88c0.33,0.12,0.67,0.23,1,0.35c0.87,0.29,1.75,0.57,2.63,0.82c0.16,0.05,0.32,0.1,0.47,0.14
			c1.03,0.29,2.06,0.54,3.1,0.78c0.31,0.07,0.61,0.13,0.92,0.2c0.83,0.18,1.66,0.33,2.49,0.48c0.27,0.05,0.53,0.1,0.79,0.14
			c1.06,0.17,2.12,0.31,3.18,0.43c0.23,0.03,0.46,0.04,0.68,0.07c0.87,0.09,1.74,0.16,2.61,0.21c0.3,0.02,0.6,0.04,0.89,0.05
			c1.07,0.05,2.15,0.09,3.22,0.09c15.4,0,29.8-5.2,40.4-14.5c0.7-0.62,1.38-1.26,2.03-1.9c0.22-0.22,0.44-0.45,0.66-0.68
			c0.42-0.43,0.85-0.87,1.26-1.31c0.26-0.28,0.5-0.57,0.75-0.86c0.35-0.4,0.7-0.8,1.04-1.22c0.26-0.32,0.51-0.65,0.76-0.97
			c0.31-0.39,0.61-0.78,0.91-1.19c0.25-0.35,0.5-0.71,0.74-1.06c0.27-0.39,0.54-0.78,0.8-1.18c0.24-0.38,0.48-0.76,0.71-1.14
			c0.24-0.39,0.48-0.78,0.71-1.18c0.23-0.4,0.45-0.81,0.67-1.21c0.21-0.39,0.42-0.78,0.62-1.18c0.22-0.42,0.42-0.85,0.63-1.29
			c0.18-0.39,0.36-0.78,0.54-1.18c0.2-0.45,0.39-0.9,0.58-1.36c0.16-0.39,0.31-0.78,0.46-1.17c0.18-0.47,0.36-0.95,0.52-1.43
			c0.13-0.38,0.26-0.77,0.39-1.16c0.16-0.5,0.32-1,0.47-1.51c0.11-0.38,0.21-0.76,0.32-1.15c0.14-0.53,0.28-1.06,0.41-1.59
			c0.09-0.37,0.17-0.74,0.25-1.12c0.12-0.56,0.24-1.12,0.35-1.69c0.07-0.35,0.12-0.71,0.18-1.06c0.1-0.6,0.2-1.2,0.28-1.81
			c0.04-0.32,0.08-0.64,0.11-0.97c0.08-0.65,0.16-1.3,0.22-1.96c0.02-0.25,0.03-0.5,0.05-0.75c0.06-0.74,0.1-1.49,0.14-2.24H119.45z
			"/>
		<path style="fill:#EB8F00;" d="M121.51,68.04c0.06-0.74,0.11-1.49,0.14-2.24h-0.01C121.61,66.55,121.56,67.3,121.51,68.04z"/>
		
			<radialGradient id="SVGID_3_" cx="63.7198" cy="-2088.8999" r="56.9571" gradientTransform="matrix(1 0 0 -1 0 -2026)" gradientUnits="userSpaceOnUse">
			<stop  offset="0.5" style="stop-color:#FDE030"/>
			<stop  offset="0.9188" style="stop-color:#F7C02B"/>
			<stop  offset="1" style="stop-color:#F4A223"/>
		</radialGradient>
		<path style="fill:url(#SVGID_3_);" d="M121.51,68.04c0.06-0.74,0.11-1.49,0.14-2.24h-0.01C121.61,66.55,121.56,67.3,121.51,68.04z
			"/>
	</g>
	<g id="exploding-head-face_2_">
		<path id="mouth_36_" style="fill:#422B0D;" d="M77.93,104.94c0,5.6-6.19,8.89-13.82,8.89s-13.82-3.29-13.82-8.89
			s6.19-11.69,13.82-11.69S77.93,99.34,77.93,104.94z"/>
		<g id="eyes_35_">
			<g>
				<circle style="fill:#FFFFFF;" cx="41.6" cy="75.13" r="15.51"/>
				<ellipse style="fill:#422B0D;" cx="41.6" cy="75.13" rx="6.67" ry="6.77"/>
			</g>
			<g>
				<circle style="fill:#FFFFFF;" cx="86.6" cy="75.13" r="15.51"/>
				<ellipse style="fill:#422B0D;" cx="86.62" cy="75.21" rx="6.67" ry="6.77"/>
			</g>
		</g>
	</g>
</g>
</svg>
