<?xml version="1.0" encoding="utf-8"?>
<!-- Generator: Adobe Illustrator 24.1.2, SVG Export Plug-In . SVG Version: 6.00 Build 0)  -->
<svg version="1.1" id="Layer_1" xmlns="http://www.w3.org/2000/svg" xmlns:xlink="http://www.w3.org/1999/xlink" x="0px" y="0px"
	 viewBox="0 0 128 128" style="enable-background:new 0 0 128 128;" xml:space="preserve">
<g id="gold">
	
		<radialGradient id="face_1_" cx="-240.7803" cy="288.7169" r="56.96" gradientTransform="matrix(0.71 -0.71 0.71 0.71 28.09 -314.89)" gradientUnits="userSpaceOnUse">
		<stop  offset="0.5" style="stop-color:#FDE030"/>
		<stop  offset="0.92" style="stop-color:#F7C02B"/>
		<stop  offset="1" style="stop-color:#F4A223"/>
	</radialGradient>
	<path id="face" style="fill:url(#face_1_);" d="M103.13,102.43c-19.73,19.73-53.39,28.64-80.54,1.48S4.34,43.1,24.07,23.37
		C35,12.41,48.75,5.91,62.82,5c15.35-0.92,29.84,4.95,41.79,16.9s17.75,26.37,16.83,41.72C120.52,77.68,114,91.54,103.13,102.43z"/>
	<path style="fill:#EB8F00;" d="M74,5.54c9.84,2.31,19,7.59,27.11,15.64c12,12,17.75,26.38,16.83,41.72
		C117,77,110.48,90.83,99.59,101.72c-12.77,12.77-31.38,21-50.29,17.85c20.1,4.88,40.26-3.57,53.83-17.14
		c10.87-10.89,17.39-24.75,18.31-38.82c0.92-15.35-4.88-29.77-16.83-41.72C95.6,12.88,85.14,7.33,74,5.54z"/>
	<path style="fill:#422B0D;" d="M96.71,39.56c-2.77-0.8-5.71,0.57-6.88,3.21c-5.15,9.37-11.62,17.94-19.21,25.47
		c-7.52,7.59-16.1,14.06-25.47,19.2c-2.63,1.18-3.99,4.11-3.21,6.88c0.82,2.75,3.57,4.1,6.16,5.07
		c14.51,5.43,30.48,1.39,42.75-10.81l0.12-0.11c12.19-12.27,16.23-28.24,10.8-42.76C100.81,43.13,99.45,40.37,96.71,39.56z"/>
	<path style="fill:#422B0D;" d="M90.08,87.58l-0.06,0.06v0.06L90.08,87.58z"/>
	<path style="fill:#422B0D;" d="M71.61,69l-0.11,0.1l-0.1,0.11L71.61,69z"/>
	<path style="fill:#422B0D;" d="M71.61,69l-0.11,0.1l-0.1,0.11L71.61,69z"/>
	<path style="fill:#422B0D;" d="M90.08,87.58l-0.06,0.06v0.06L90.08,87.58z"/>
	<path style="fill:none;" d="M97.92,74.49c4.34-8.69,4.88-18.79,1.51-27.9C98.37,43.74,97.34,42.35,96,42
		c-1.63-0.44-3.33,0.42-3.95,2c-5.23,9.56-11.8,18.31-19.52,26l0,0l-0.2,0.21l0,0c-7.7,7.7-16.46,14.25-26.02,19.45
		c-0.42,0.21-0.81,0.49-1.14,0.82c-0.87,0.79-1.2,2.01-0.84,3.13C44.74,95,46.12,96,49,97.05c8.93,3.3,18.83,2.84,27.41-1.29
		c0.64-5.57,3.2-10.75,7.24-14.63C87.41,77.22,92.5,74.85,97.92,74.49z"/>
	<path style="fill:#ED7770;" d="M99.4,74.38c-0.51,0-1,0.07-1.48,0.11c-5.43,0.35-10.53,2.72-14.3,6.64
		c-4.04,3.88-6.6,9.06-7.24,14.63c-0.06,0.49-0.12,1-0.15,1.48s0.08,0.88,0.14,1.28c5.41-2.38,10.32-5.75,14.48-9.94l0.12-0.11
		c4.01-3.99,7.27-8.67,9.62-13.81C100.2,74.54,99.8,74.45,99.4,74.38z"/>
	<path style="fill:#FFFFFF;" d="M89.83,42.77c-5.15,9.37-11.62,17.94-19.21,25.47c-7.52,7.59-16.1,14.06-25.47,19.2
		c-2.63,1.18-3.99,4.11-3.21,6.88c0.13,0.41,0.3,0.8,0.52,1.17c0.41-0.14,0.8-0.3,1.19-0.49C56.42,90.76,68,83.54,77.41,73.92
		C86.64,64.89,93.68,53.88,98,41.71c0.17-0.41,0.32-0.83,0.45-1.26c-0.52-0.4-1.11-0.71-1.74-0.89C93.94,38.76,91,40.13,89.83,42.77
		z"/>
	<path style="fill:#EB8F00;" d="M71.4,69.74L71.4,69.74c5.87-5.68,9.71-11.26,14.33-18.06c1.15-1.7,2.24-3.44,3.29-5.23l0.76-1.35
		c0.2-0.35,0.42-0.69,0.68-1c0.46-0.57,1.05-1.01,1.73-1.29c1.58-0.58,3.31-0.61,4.91-0.08c3.25,1.56,6.08,7.12,5.72,6.08
		c0,0-0.59-2.33-0.61-2.36c-0.8-2-1.62-4.26-3.69-6c-2.22-1.69-5.18-2.03-7.72-0.88c-1.19,0.54-2.22,1.37-3,2.41
		c-0.38,0.48-0.72,1-1,1.55l-0.67,1.32c-0.93,1.75-1.92,3.48-3,5.17c-3.84,6.41-8.37,12.38-13.51,17.8l0,0l-0.16,0.16l0,0
		C64.15,73.06,58.3,77.53,52,81.31c-1.7,1-3.42,2-5.17,3L45.47,85c-0.55,0.28-1.07,0.61-1.55,1c-1.05,0.78-1.88,1.81-2.42,3
		c-1.07,2.52-0.69,5.43,1,7.59c2.69,3.51,8.83,4,8.86,4c1,0.36-5.06-2.22-6.62-5.47c-0.55-1.54-0.55-3.23,0-4.77
		c0.26-0.7,0.69-1.32,1.26-1.8c0.31-0.26,0.65-0.48,1-0.67l1.35-0.76c1.78-1,3.52-2.15,5.23-3.3c6.79-4.62,12-8,17.65-13.92"/>
</g>
<g id="facial_expressions">
	
		<radialGradient id="SVGID_1_" cx="-641.5851" cy="-742.5024" r="31.6" gradientTransform="matrix(-0.13 -0.99 -1.53 0.21 -1141.95 -448.74)" gradientUnits="userSpaceOnUse">
		<stop  offset="0.46" style="stop-color:#29B6F6"/>
		<stop  offset="1" style="stop-color:#1E88E5"/>
	</radialGradient>
	<path style="fill:url(#SVGID_1_);" d="M115.13,31.34c1.2,7.64-5.82,14.88-12.19,15.74c-4.48,0.6-9.48-0.43-17-2.3
		c-1.11-0.21-2.24-0.54-3.48-0.85c-4.58-1.27-9.08-2.8-13.49-4.58c-0.87-0.32-1.35-1.24-1.13-2.13c0.13-0.38,0.39-0.71,0.72-0.93
		c3.37-3.46,7.17-6.48,11.29-9c10.41-6.44,14.37-7.31,18.85-7.91C104.88,18.37,113.83,23,115.13,31.34z"/>
	<path style="fill:#81D4FA;" d="M105.52,24.19c2.91,1.38,2.93,5.37-1.51,6c-2.85,0.38-17.52,1.76-15.81-0.95
		C91,24.79,101.41,22.24,105.52,24.19z"/>
	<path style="fill:#422B0D;" d="M72.65,31.1l-9.23,8.28l3.42-13.15c0.03-0.16,0.06-0.31,0.07-0.47c0.38-2.28-1.17-4.44-3.45-4.81
		c-0.54-0.09-1.1-0.07-1.64,0.05c-2.43,0.67-4.19,2.79-4.39,5.3c-0.57,5.81-1.91,19.5-2.43,24.83c-0.16,0.53,0.14,1.09,0.67,1.25
		c0.35,0.11,0.73,0.01,0.99-0.25l20.69-13.08l0.41-0.29c2.5-1.92,3.11-5.58,1.09-7.7C77.31,29.44,74.65,29.57,72.65,31.1z"/>
	
		<radialGradient id="SVGID_2_" cx="-764.2186" cy="-690.2555" r="30.26" gradientTransform="matrix(-1 0.08 -0.13 -1.53 -814.51 -921.26)" gradientUnits="userSpaceOnUse">
		<stop  offset="0.46" style="stop-color:#29B6F6"/>
		<stop  offset="1" style="stop-color:#1E88E5"/>
	</radialGradient>
	<path style="fill:url(#SVGID_2_);" d="M25.9,104c-0.36-4.31-0.37-8.19,3.52-19.26c1.52-4.38,3.58-8.55,6.13-12.42
		c0.14-0.36,0.4-0.66,0.73-0.86c0.79-0.4,1.75-0.13,2.23,0.61c2.57,3.76,4.92,7.66,7.06,11.68c0.54,1.1,1.08,2.08,1.51,3.08
		c3.3,6.69,5.29,11.16,5.65,15.47c0.51,6.13-4.82,14.19-12.21,14.65C32.47,117.41,26.28,110,25.9,104z"/>
	<path style="fill:#81D4FA;" d="M33,92.17c2.17-2.17,3.9,11.83,4.13,14.58c0.35,4.28-3.39,5.08-5.27,2.65
		C29.18,106,29.43,95.69,33,92.17z"/>
	<g id="eyes">
		<path style="fill:#422B0D;" d="M30.17,78.76l6.66-10.47l-12.41,5.54L24,74c-2.19,0.74-4.57-0.43-5.32-2.62
			c-0.18-0.52-0.25-1.07-0.21-1.62c0.26-2.51,2.06-4.59,4.51-5.2L47,58.05c0.5-0.24,1.1-0.03,1.34,0.47
			c0.16,0.33,0.13,0.72-0.09,1.01l-9.47,22.55c-0.06,0.16-0.13,0.31-0.21,0.46c-1.48,2.78-5,4-7.42,2.34
			C29.3,83.62,29,81,30.17,78.76z"/>
	</g>
</g>
</svg>
