<?xml version="1.0" encoding="utf-8"?>
<!-- Generator: Adobe Illustrator 24.1.2, SVG Export Plug-In . SVG Version: 6.00 Build 0)  -->
<svg version="1.1" id="Layer_1" xmlns="http://www.w3.org/2000/svg" xmlns:xlink="http://www.w3.org/1999/xlink" x="0px" y="0px"
	 viewBox="0 0 128 128" style="enable-background:new 0 0 128 128;" xml:space="preserve">
<g id="gold">
	
		<radialGradient id="face_1_" cx="63.59" cy="2893.0901" r="50.6587" gradientTransform="matrix(1 0 0 1 0 -2818)" gradientUnits="userSpaceOnUse">
		<stop  offset="0.5" style="stop-color:#FDE030"/>
		<stop  offset="0.92" style="stop-color:#F7C02B"/>
		<stop  offset="1" style="stop-color:#F4A223"/>
	</radialGradient>
	<path id="face" style="fill:url(#face_1_);" d="M63.6,124.8c-24.81,0-51.6-15.56-51.6-49.71s26.79-49.71,51.6-49.71
		c13.78,0,26.5,4.53,35.93,12.8c10.22,9.08,15.65,21.88,15.65,36.91s-5.43,27.75-15.65,36.82C90.1,120.18,77.29,124.8,63.6,124.8z"
		/>
	<path style="fill:#EB8F00;" d="M106.19,45.54c4.88,8.1,7.38,17.42,7.21,26.88c0,15-5.43,27.75-15.65,36.82
		c-9.43,8.27-22.23,12.89-35.93,12.89c-16.06,0-32.93-6.53-42.84-20.4c9.57,15.71,27.56,23.07,44.62,23.07
		c13.69,0,26.5-4.62,35.93-12.89c10.22-9.08,15.65-21.79,15.65-36.82C115.18,63.76,112.09,53.69,106.19,45.54z"/>
</g>
<g id="faces">
	<g id="cowboy-face">
		<g id="prop">
			<path style="fill:#4A251A;" d="M34.25,33.47C13.9,25.4,0,13.55,0,22.8C0,41.22,4.83,56,12.6,67.31
				C14.71,51.37,23.19,40.22,34.25,33.47z"/>
			<path style="fill:#4A251A;" d="M114.71,68.3C122.88,56.92,128,41.76,128,22.8c0-9.7-14.17,2.63-34.84,10.81
				c2.23,1.39,4.34,2.95,6.32,4.68C108.1,45.94,113.29,56.25,114.71,68.3z"/>
			<path style="fill:#826156;" d="M94.2,19.2c-4.5-9.7-12.3-19.1-19.5-19C66.9,0.3,68.3,3.6,64,3.6c-4.5,0-2.8-3.4-10.1-3.4
				s-15.4,9.1-20.2,19c9.92,2.4,20.1,3.54,30.3,3.4C77.7,22.6,87.6,21,94.2,19.2z"/>
			<path style="fill:#A1887F;" d="M96.46,25c-0.64-1.98-1.39-3.91-2.26-5.8C87.6,21,77.7,22.6,64,22.6c-10.2,0.14-20.38-1-30.3-3.4
				c-0.89,1.9-1.66,3.86-2.32,5.85C42.17,26.84,53.07,27.82,64,28C74.88,27.82,85.73,26.82,96.46,25z"/>
			<path style="fill:#7A5549;" d="M96.46,25C85.73,26.82,74.88,27.82,64,28c-10.93-0.18-21.83-1.16-32.62-2.95
				C15.58,22.6,3,19.5,3,19.5s17.3,34.3,61,34.3s60.1-34.3,60.1-34.3S111.93,22.58,96.46,25z"/>
		</g>
	</g>
</g>
<g id="facial_expressions">
	<g id="face-with-cowboy-hat">
		<g id="eyes">
			<path style="fill:#422B0D;" d="M82.3,57.4c3.5,0,6.7,4.1,6.7,10.9s-3.2,10.9-6.7,10.9s-6.7-4.1-6.7-10.9S78.8,57.4,82.3,57.4z"/>
			<path style="fill:#422B0D;" d="M45.7,57.4c-3.5,0-6.7,4.1-6.7,10.9s3.2,10.9,6.7,10.9s6.7-4.1,6.7-10.9S49.2,57.4,45.7,57.4z"/>
		</g>
	</g>
	<g id="peepers">
		<path style="fill:#896024;" d="M45.11,61.31L45.11,61.31c-1.28-0.59-2.79-0.03-3.38,1.25c-0.45,0.98-0.24,2.13,0.52,2.88l0,0
			c1.28,0.59,2.79,0.03,3.38-1.25C46.08,63.22,45.87,62.06,45.11,61.31z"/>
	</g>
	<g id="peepers-2">
		<path style="fill:#896024;" d="M82,61.31L82,61.31c-1.28-0.59-2.79-0.03-3.38,1.25c-0.45,0.98-0.24,2.13,0.52,2.88l0,0
			c1.28,0.59,2.79,0.03,3.38-1.25C82.97,63.22,82.76,62.06,82,61.31z"/>
	</g>
	<path style="fill:#422B0D;" d="M95.57,88.78c-1.17-2.09-3.7-3.01-5.94-2.16c-8.54,2.49-17.39,3.73-26.28,3.69
		c-8.9,0.04-17.75-1.2-26.29-3.69c-2.24-0.84-4.76,0.07-5.93,2.16c-1.13,2.1-0.31,4.52,0.64,6.61
		c5.35,11.73,17.12,18.74,31.51,18.79h0.13c14.4-0.05,26.17-7.06,31.51-18.79C95.87,93.3,96.7,90.88,95.57,88.78z"/>
	<path style="fill:#422B0D;" d="M63.41,113.14"/>
	<path style="fill:#422B0D;" d="M63.47,91.35"/>
	<path style="fill:#422B0D;" d="M63.47,91.35"/>
	<path style="fill:#422B0D;" d="M63.41,113.14"/>
	<path style="fill:#ED7770;" d="M76.66,110.85c-0.31-0.28-0.62-0.54-0.94-0.81c-3.4-2.98-7.79-4.59-12.31-4.5
		c-4.67-0.1-9.22,1.44-12.87,4.35c-0.32,0.25-0.65,0.5-1,0.78s-0.47,0.56-0.67,0.83c4.58,1.79,9.45,2.7,14.37,2.68h0.13
		c4.71,0.01,9.38-0.82,13.79-2.46C77.01,111.42,76.84,111.13,76.66,110.85z"/>
	<path style="fill:#FFFFFF;" d="M89.63,86.62c-8.54,2.49-17.39,3.73-26.28,3.69c-8.9,0.04-17.75-1.2-26.29-3.69
		c-2.24-0.84-4.76,0.07-5.93,2.16c-0.17,0.32-0.29,0.65-0.38,1c0.28,0.14,0.59,0.28,1,0.43c10,5.01,21.06,7.56,32.25,7.43
		c10.74,0.12,21.36-2.22,31.06-6.83c0.39-0.16,0.71-0.32,1-0.47c-0.07-0.55-0.23-1.07-0.49-1.56C94.4,86.69,91.87,85.77,89.63,86.62
		z"/>
	<path style="fill:#EB8F00;" d="M95.6,88.79c-1.19-2.1-3.74-3.02-6-2.17c-8.54,2.49-17.39,3.73-26.28,3.69
		c-8.89,0.04-17.74-1.2-26.28-3.69c-2.24-0.84-4.76,0.07-5.93,2.16c-1.13,2.1-0.31,4.52,0.64,6.61c0.43,0.94,0.91,1.86,1.42,2.75
		c0,0-1.77-6.49-0.23-8.37c0.52-0.79,1.38-1.29,2.33-1.35c0.39,0,0.78,0.07,1.15,0.19c8.7,2.53,17.72,3.81,26.78,3.78h0.29
		c9.05,0.03,18.06-1.25,26.75-3.78c0.37-0.12,0.76-0.19,1.15-0.19c0.95,0.05,1.82,0.55,2.34,1.35c1.53,1.88-0.23,8.38-0.23,8.38
		c0.51-0.89,1-1.81,1.46-2.75C95.91,93.31,96.73,90.89,95.6,88.79z"/>
</g>
</svg>
