<?xml version="1.0" encoding="UTF-8" standalone="no"?><svg xmlns:dc="http://purl.org/dc/elements/1.1/" xmlns:cc="http://creativecommons.org/ns#" xmlns:rdf="http://www.w3.org/1999/02/22-rdf-syntax-ns#" xmlns:svg="http://www.w3.org/2000/svg" xmlns="http://www.w3.org/2000/svg" viewBox="0 0 45 45" style="enable-background:new 0 0 45 45;" xml:space="preserve" version="1.1" id="svg2"><metadata id="metadata8"><rdf:RDF><cc:Work rdf:about=""><dc:format>image/svg+xml</dc:format><dc:type rdf:resource="http://purl.org/dc/dcmitype/StillImage"/></cc:Work></rdf:RDF></metadata><defs id="defs6"><clipPath id="clipPath16" clipPathUnits="userSpaceOnUse"><path id="path18" d="M 0,36 36,36 36,0 0,0 0,36 Z"/></clipPath></defs><g transform="matrix(1.25,0,0,-1.25,0,45)" id="g10"><g id="g12"><g clip-path="url(#clipPath16)" id="g14"><g transform="translate(35,19)" id="g20"><path id="path22" style="fill:#ffcc4d;fill-opacity:1;fill-rule:nonzero;stroke:none" d="m 0,0 c 0,-9.389 -7.611,-17 -17,-17 -9.388,0 -17,7.611 -17,17 0,9.388 7.612,17 17,17 C -7.611,17 0,9.388 0,0"/></g><g transform="translate(28.457,21.7031)" id="g24"><path id="path26" style="fill:#664500;fill-opacity:1;fill-rule:nonzero;stroke:none" d="m 0,0 c -0.059,0.135 -1.499,3.297 -4.457,3.297 -2.957,0 -4.397,-3.162 -4.457,-3.297 -0.092,-0.207 -0.032,-0.449 0.144,-0.591 0.175,-0.142 0.426,-0.147 0.611,-0.014 0.012,0.009 1.262,0.902 3.702,0.902 2.426,0 3.674,-0.881 3.702,-0.901 0.088,-0.066 0.194,-0.099 0.298,-0.099 0.11,0 0.221,0.037 0.312,0.109 C 0.032,-0.452 0.093,-0.208 0,0"/></g><g transform="translate(16.457,21.7031)" id="g28"><path id="path30" style="fill:#664500;fill-opacity:1;fill-rule:nonzero;stroke:none" d="m 0,0 c -0.06,0.135 -1.499,3.297 -4.457,3.297 -2.957,0 -4.397,-3.162 -4.457,-3.297 -0.092,-0.207 -0.032,-0.449 0.144,-0.591 0.176,-0.142 0.427,-0.147 0.61,-0.014 0.013,0.009 1.262,0.902 3.703,0.902 2.426,0 3.674,-0.881 3.702,-0.901 0.088,-0.066 0.194,-0.099 0.298,-0.099 0.11,0 0.221,0.037 0.312,0.109 C 0.033,-0.452 0.092,-0.208 0,0"/></g><g transform="translate(26.5035,8.6293)" id="g32"><path id="path34" style="fill:#f4900c;fill-opacity:1;fill-rule:nonzero;stroke:none" d="M 0,0 C 0,0 0.998,0.721 0.165,1.614 -0.667,2.507 -1.456,1.562 -1.456,1.562 l -4.148,-3.866 c -0.068,0.205 -0.459,0.743 -0.55,0.947 l 5.755,5.367 c 0,0 0.998,0.721 0.165,1.614 C -1.066,6.517 -1.856,5.573 -1.856,5.573 L -7.269,0.527 c -0.124,0.158 -0.461,0.54 -0.593,0.698 l 6.276,5.85 c 0,0 0.997,0.722 0.164,1.614 C -2.254,9.583 -3.043,8.638 -3.043,8.638 L -9.321,2.79 c -0.149,0.145 -0.612,0.609 -0.763,0.745 l 5.866,5.469 c 0,0 0.996,0.721 0.164,1.614 -0.833,0.893 -1.622,-0.051 -1.622,-0.051 l -6.203,-5.781 -0.497,-0.464 -0.222,-0.208 c 0,0 -0.538,-0.743 -1.087,-0.178 l 1.842,4.158 c 0,0 0.58,1.074 -0.493,1.655 -1.076,0.581 -1.656,-0.494 -1.656,-0.494 L -15.66,6.497 c -0.663,-1.093 -1.349,-2.177 -2.159,-3.167 -2.284,-2.793 -2.211,-6.914 0.318,-9.629 2.759,-2.959 7.396,-3.122 10.355,-0.364 0.157,0.147 0.447,0.418 0.447,0.418 L 0,0 Z"/></g></g></g></g></svg>
