<?xml version="1.0" encoding="utf-8"?>
<!-- Generator: Adobe Illustrator 24.1.2, SVG Export Plug-In . SVG Version: 6.00 Build 0)  -->
<svg version="1.1" id="Layer_1" xmlns="http://www.w3.org/2000/svg" xmlns:xlink="http://www.w3.org/1999/xlink" x="0px" y="0px"
	 viewBox="0 0 128 128" style="enable-background:new 0 0 128 128;" xml:space="preserve">
<g id="gold">
	
		<radialGradient id="face_1_" cx="63.6" cy="2880.8999" r="56.9597" gradientTransform="matrix(1 0 0 1 0 -2818)" gradientUnits="userSpaceOnUse">
		<stop  offset="0.5" style="stop-color:#FDE030"/>
		<stop  offset="0.92" style="stop-color:#F7C02B"/>
		<stop  offset="1" style="stop-color:#F4A223"/>
	</radialGradient>
	<path id="face" style="fill:url(#face_1_);" d="M63.6,118.8c-27.9,0-58-17.5-58-55.9S35.7,7,63.6,7c15.5,0,29.8,5.1,40.4,14.4
		c11.5,10.2,17.6,24.6,17.6,41.5s-6.1,31.2-17.6,41.4C93.4,113.6,79,118.8,63.6,118.8z"/>
	<path style="fill:#EB8F00;" d="M111.49,29.67c5.33,8.6,8.11,18.84,8.11,30.23c0,16.9-6.1,31.2-17.6,41.4
		c-10.6,9.3-25,14.5-40.4,14.5c-18.06,0-37-7.35-48.18-22.94c10.76,17.66,31,25.94,50.18,25.94c15.4,0,29.8-5.2,40.4-14.5
		c11.5-10.2,17.6-24.5,17.6-41.4C121.6,50.16,118.13,38.84,111.49,29.67z"/>
</g>
<g id="facial_expressions">
	<g id="drooling-face">
		<g id="mouth">
			<path id="mouth-2" style="fill:#422B0D;" d="M64,97.31c-13.25,0-22.71-7.81-25.55-12.14c-1.07-1.39-1.3-3.26-0.58-4.86
				c0.55-1.02,1.62-1.65,2.78-1.62c0.42,0,0.85,0.07,1.25,0.2C48.58,81,54.42,84,64,84s15.44-3,22.1-5.13
				c0.4-0.13,0.83-0.2,1.25-0.2c1.16-0.03,2.23,0.6,2.78,1.62c0.72,1.6,0.49,3.47-0.58,4.86C86.71,89.5,77.25,97.31,64,97.31z"/>
			
				<linearGradient id="SVGID_1_" gradientUnits="userSpaceOnUse" x1="69.745" y1="5.8201" x2="69.745" y2="39.7859" gradientTransform="matrix(1 0 0 -1 0 130)">
				<stop  offset="0.46" style="stop-color:#29B6F6"/>
				<stop  offset="1" style="stop-color:#1E88E5"/>
			</linearGradient>
			<path style="fill:url(#SVGID_1_);" d="M82.34,110.1c-1-4.64-2.58-9.06-2.2-12c0.74-5.7,4.17-7.67,4.17-7.67
				c-1.77-0.43-3.63-0.22-5.26,0.6c-3.28,1.5-1.86,2.26-6.91,3.3c-4.25,0.88-6.7-1.31-11.55-0.47c-4.33,0.76-5.41,2.22-5.41,2.22
				c2.38,0.75,4.84,1.26,7.32,1.53c8,0.95,7,8,6.43,11c-1.14,5.81-2.68,15.93,6.87,15.56C82.73,123.93,83.71,116.72,82.34,110.1z"/>
		</g>
		<g id="eyes">
			<g id="peepers">
				<path style="fill:#422B0D;" d="M29.91,58.48L29.91,58.48c-1.36-1.29-1.42-3.44-0.13-4.81c0.19-0.2,0.4-0.38,0.63-0.52
					c2.93-2.15,6.2-3.78,9.68-4.81c3.52-0.88,7.16-1.15,10.77-0.79c1.88,0.08,3.35,1.66,3.27,3.54c-0.01,0.27-0.05,0.54-0.13,0.81
					l0,0c-0.57,1.73-2.26,2.84-4.07,2.67c-2.68-0.29-5.38-0.11-8,0.52c-2.57,0.79-5,2.02-7.16,3.62
					C33.3,59.78,31.28,59.69,29.91,58.48z"/>
				<path style="fill:#422B0D;" d="M98.09,58.48L98.09,58.48c1.36-1.29,1.42-3.44,0.13-4.81c-0.19-0.2-0.4-0.38-0.63-0.52
					c-2.93-2.15-6.2-3.78-9.68-4.81c-3.52-0.88-7.16-1.15-10.77-0.79c-1.88,0.08-3.35,1.66-3.27,3.54c0.01,0.27,0.05,0.54,0.13,0.81
					l0,0c0.57,1.73,2.26,2.84,4.07,2.67c2.68-0.29,5.38-0.11,8,0.52c2.57,0.79,5,2.02,7.16,3.62C94.7,59.78,96.72,59.69,98.09,58.48
					z"/>
			</g>
		</g>
	</g>
	<path style="fill:#81D4FA;" d="M79.88,118.61c-1.07,1.66-3.49,1.34-3.49-1.4c0-1.76,0.36-10.77,1.86-9.51
		C80.71,109.75,81.41,116.28,79.88,118.61z"/>
	<g id="eyebrows">
		<path style="fill:#422B0D;" d="M30.32,40.57c-1.34,1.79-4.25,0.46-3.27-1.73c2.28-4.78,6.32-8.5,11.27-10.38
			c1.81-0.76,3.73-1.2,5.68-1.32c1-0.15,1.93,0.54,2.08,1.53s-0.54,1.93-1.53,2.08h-0.13C38.74,32.34,33.77,35.8,30.32,40.57z"/>
	</g>
	<g id="eyebrows-2">
		<path style="fill:#422B0D;" d="M97.15,33.44c1.44,1.71,4.27,0.22,3.17-1.91c-2.55-4.64-6.79-8.13-11.84-9.73
			c-1.84-0.65-3.78-0.99-5.74-1c-1.02-0.01-1.84,0.81-1.85,1.83c0,0.89,0.63,1.66,1.51,1.82h0.13
			C88.28,25.71,93.43,28.87,97.15,33.44z"/>
	</g>
</g>
</svg>
