<?xml version="1.0" encoding="utf-8"?>
<!-- Generator: Adobe Illustrator 24.0.3, SVG Export Plug-In . SVG Version: 6.00 Build 0)  -->
<svg version="1.1" id="Layer_1" xmlns="http://www.w3.org/2000/svg" xmlns:xlink="http://www.w3.org/1999/xlink" x="0px" y="0px"
	 viewBox="0 0 128 128" style="enable-background:new 0 0 128 128;" xml:space="preserve">
<g id="hairGroup_1_">
	<path id="hair_10_" style="fill:#543930;" d="M64.67,5.43c-41.01,0-40.68,37.92-40.68,38.52c0,24.56,1.88,59.25,11.71,72.9
		c3.9,5.41,11.43,5.71,11.43,5.71l16.97-0.03l16.97,0.03c0,0,7.53-0.3,11.43-5.71c9.83-13.65,11.71-48.34,11.71-72.9
		C104.2,43.35,105.67,5.43,64.67,5.43z"/>
	
		<radialGradient id="hairHighlights_2_" cx="64.0963" cy="67" r="47.5316" gradientTransform="matrix(1 0 0 -1.1901 0 140.7345)" gradientUnits="userSpaceOnUse">
		<stop  offset="0.7936" style="stop-color:#6D4C41;stop-opacity:0"/>
		<stop  offset="1" style="stop-color:#6D4C41"/>
	</radialGradient>
	<path id="hairHighlights_1_" style="fill:url(#hairHighlights_2_);" d="M64.67,5.43c-41.01,0-40.68,37.92-40.68,38.52
		c0,24.56,1.88,59.25,11.71,72.9c3.9,5.41,11.43,5.71,11.43,5.71l16.97-0.03l16.97,0.03c0,0,7.53-0.3,11.43-5.71
		c9.83-13.65,11.71-48.34,11.71-72.9C104.2,43.35,105.67,5.43,64.67,5.43z"/>
</g>
<g id="shirt">
	
		<linearGradient id="SVGID_1_" gradientUnits="userSpaceOnUse" x1="64" y1="32.0709" x2="64" y2="-3.4371" gradientTransform="matrix(1 0 0 -1 0 128)">
		<stop  offset="0" style="stop-color:#651FFF"/>
		<stop  offset="0.7047" style="stop-color:#5914F2"/>
		<stop  offset="1" style="stop-color:#530EEB"/>
	</linearGradient>
	<path style="fill:url(#SVGID_1_);" d="M64.13,96c-0.04,0-0.09,0-0.13,0c-25.49,0.03-52,7.28-52,25.06V124h1.5H15h98h1.5h1.5v-2.94
		C116,104.3,89.74,96,64.13,96z"/>
</g>
<g id="neck">
	<path style="fill:#E59600;" d="M54.92,90.08v9.98c0,4.51,3.7,8.17,8.26,8.17h1.65c4.56,0,8.26-3.66,8.26-8.17v-9.98L54.92,90.08z"
		/>
</g>
<path id="head" style="fill:#FFCA28;" d="M64.02,11.07L64.02,11.07L64.02,11.07c-17.4-0.01-33.53,18.6-33.54,45.38
	c-0.01,26.64,16.59,39.82,33.5,39.83s33.53-13.15,33.54-39.79C97.53,29.69,81.42,11.07,64.02,11.07z"/>
<g id="eyebrows">
	<path style="fill:#6D4C41;" d="M54.99,51.82c-0.93-1.23-3.07-3.01-7.23-3.01s-6.31,1.79-7.23,3.01c-0.41,0.54-0.31,1.17-0.02,1.55
		c0.26,0.35,1.04,0.68,1.9,0.39s2.54-1.16,5.35-1.18c2.81,0.02,4.49,0.89,5.35,1.18c0.86,0.29,1.64-0.03,1.9-0.39
		C55.29,52.99,55.39,52.36,54.99,51.82z"/>
	<path style="fill:#6D4C41;" d="M87.48,51.82c-0.93-1.23-3.07-3.01-7.23-3.01s-6.31,1.79-7.23,3.01c-0.41,0.54-0.31,1.17-0.02,1.55
		c0.26,0.35,1.04,0.68,1.9,0.39s2.54-1.16,5.35-1.18c2.81,0.02,4.49,0.89,5.35,1.18c0.86,0.29,1.64-0.03,1.9-0.39
		C87.79,52.99,87.89,52.36,87.48,51.82z"/>
</g>
<path id="nose" style="fill:#E59600;" d="M67.81,68.06c-0.11-0.04-0.21-0.07-0.32-0.08H60.5c-0.11,0.01-0.21,0.04-0.32,0.08
	c-0.63,0.26-0.98,0.91-0.68,1.61c0.3,0.7,1.69,2.66,4.49,2.66c2.8,0,4.2-1.96,4.49-2.66C68.79,68.97,68.45,68.31,67.81,68.06z"/>
<g id="eyes">
	<path style="fill:#404040;" d="M47.69,60.3c-2.06,0-3.9-0.5-5.18-1.29c-0.55-0.34-0.87-0.14-0.77,0.5c0.37,2.48,2.9,4.4,5.95,4.4
		c3.06,0,5.58-1.92,5.95-4.4c0.1-0.64-0.22-0.84-0.77-0.5C51.59,59.8,49.75,60.3,47.69,60.3z"/>
	<path style="fill:#404040;" d="M80.31,60.3c-2.06,0-3.9-0.5-5.18-1.29c-0.55-0.34-0.87-0.14-0.77,0.5c0.38,2.48,2.9,4.4,5.95,4.4
		s5.58-1.92,5.95-4.4c0.1-0.64-0.22-0.84-0.77-0.5C84.21,59.8,82.36,60.3,80.31,60.3z"/>
</g>
<path id="mouth" style="fill:#795548;" d="M73.95,81.76c0,1.01-4.46,1.22-9.95,1.22s-9.95-0.23-9.95-1.22
	c0-1.04,4.46-1.68,9.95-1.68S73.95,80.7,73.95,81.76z"/>
<g id="hairGroup">
	<path id="hair_5_" style="fill:#543930;" d="M64.67,5.43c-41.01,0-40.68,37.92-40.68,38.52c0,7.76,0.19,16.53,0.75,25.32l6.72-0.02
		c-0.06-2.92,1.99-20.97,8.08-22.34C61.9,41.9,74.55,30.04,74.55,30.04c3.29,7.18,13.58,14.19,17.27,16.86
		c3.03,2.19,4.29,18.55,4.24,22.38h7.37c0-0.05,0.02-0.1,0.02-0.16c0.56-8.75,0.74-17.46,0.74-25.17
		C104.2,43.35,105.67,5.43,64.67,5.43z"/>
	
		<radialGradient id="hairHighlights_3_" cx="64.4296" cy="62.9755" r="49.788" gradientTransform="matrix(1 0 0 -1.2135 0 141.4484)" gradientUnits="userSpaceOnUse">
		<stop  offset="0.7945" style="stop-color:#6D4C41;stop-opacity:0"/>
		<stop  offset="1" style="stop-color:#6D4C41"/>
	</radialGradient>
	<path id="hairHighlights" style="fill:url(#hairHighlights_3_);" d="M64.67,5.43c-41.01,0-40.68,37.92-40.68,38.52
		c0,7.76,0.19,16.53,0.75,25.32l6.72-0.02c-0.06-2.92,1.99-20.97,8.08-22.34C61.9,41.9,74.55,30.04,74.55,30.04
		c3.29,7.18,13.58,14.19,17.27,16.86c3.03,2.19,4.29,18.55,4.24,22.38h7.37c0-0.05,0.02-0.1,0.02-0.16
		c0.56-8.75,0.74-17.46,0.74-25.17C104.2,43.35,105.67,5.43,64.67,5.43z"/>
</g>
<linearGradient id="SVGID_2_" gradientUnits="userSpaceOnUse" x1="69.9853" y1="42.7123" x2="57.4682" y2="36.8181" gradientTransform="matrix(1 0 0 -1 0 128)">
	<stop  offset="0.5089" style="stop-color:#000000"/>
	<stop  offset="1" style="stop-color:#000000;stop-opacity:0"/>
</linearGradient>
<path style="opacity:0.2;fill:url(#SVGID_2_);enable-background:new    ;" d="M81.84,74.24c1.75-4.43,1.44-6.57,0.16-10.63
	c-0.33-1.05-0.53-3.34-0.6-4.12c-0.26-2.98,0.76-6.75,1.41-7.5c1.19-1.37,1.53-2.85,1.38-4.38c-0.22-2.22-3.89-5.01-7.91-0.84
	c-1.62,1.69-2.31,4.38-2.31,4.38c-1.81-4.31-4.98-11.93-5.39-12.9l-0.06-0.15c-0.65-1.63-1.88-2.88-3.35-3.4
	c-1.33-0.48-2.76-0.35-4.04,0.35c-0.88,0.48-1.57,1.22-2,2.1c-1.38-1.3-3.16-1.76-4.93-1.16c-1.39,0.47-2.45,1.46-2.98,2.78
	c-0.35,0.88-0.45,1.85-0.3,2.83c-1.09-0.2-2.22,0-3.24,0.6c-0.94,0.56-3.81,2.71-1.49,7.17c0.05,0.1,0.12,0.23,0.21,0.38
	c-0.88,0.04-1.59,0.33-2.05,0.59c-1.3,0.72-2.19,1.87-2.49,3.25c-0.33,1.48,0.06,3.1,1.04,4.43l6.18,9.06c0,0,3.87,5.86,5.46,8.3
	c1.27,1.94,2.69,3.53,4.25,4.73c-0.34,0.99-0.28,2.05,0.14,2.92L73.88,124h34.46C108.34,124,81.85,74.25,81.84,74.24z"/>
<linearGradient id="hand_1_" gradientUnits="userSpaceOnUse" x1="57.7601" y1="91.6249" x2="74.5043" y2="53.2994" gradientTransform="matrix(1 0 0 -1 0 128)">
	<stop  offset="0.5" style="stop-color:#FFCA28"/>
	<stop  offset="1" style="stop-color:#FFB300"/>
</linearGradient>
<path id="hand" style="fill:url(#hand_1_);" d="M81.19,45.85c-1.08-0.41-2.83-0.01-4.37,1.86s-1.01,4.46-1.65,6.08
	c-0.21,0.52-0.94,0.52-1.15,0c-1.4-3.44-6.7-16.01-6.7-16.01c-0.68-1.71-2.29-2.66-3.87-1.79c-1.26,0.69-1.49,2.26-0.91,3.69
	l4.29,11.51c0.06,0.15,0,0.32-0.13,0.38l0,0c-0.14,0.07-0.32,0.01-0.4-0.15l-6.88-12.5c-0.71-1.36-1.94-2.27-3.3-1.81
	c-1.69,0.57-2.06,2.41-1.21,4.05l6.22,12.72c0.16,0.31,0.06,0.67-0.21,0.84c0,0-0.01,0-0.01,0.01c-0.28,0.17-0.66,0.06-0.84-0.25
	c0,0-5.46-8.63-6.22-9.89s-2.22-2.41-3.78-1.49s-1.31,2.42-0.55,3.87c0.65,1.24,4.61,7.94,5.76,9.87c0.17,0.29,0.08,0.66-0.2,0.84
	l0,0c-0.26,0.17-0.61,0.11-0.81-0.13l-4.17-5.05c-1.03-1.25-2.17-1.91-3.42-1.22c-1.56,0.86-1.69,2.59-0.6,4.08l6.2,9.09
	c0,0,3.88,5.87,5.47,8.31c4.19,6.42,8.62,6.24,9.52,6.26c2.34,0.05,7.24-2.01,8.82-2.77c8.83-4.24,4.41-11.94,4.01-16.53
	c-0.25-2.83,0.83-8.11,2.23-9.95C83.69,47.93,82.11,46.19,81.19,45.85z"/>
<linearGradient id="shirt_x5F_fill_2_" gradientUnits="userSpaceOnUse" x1="67.0938" y1="19.1137" x2="83.6101" y2="25.6022" gradientTransform="matrix(1 0 0 -1 0 128)">
	<stop  offset="0" style="stop-color:#651FFF"/>
	<stop  offset="0.7047" style="stop-color:#5914F2"/>
	<stop  offset="1" style="stop-color:#530EEB"/>
</linearGradient>
<path id="shirt_x5F_fill_1_" style="fill:url(#shirt_x5F_fill_2_);" d="M78.12,124L62.37,80.9c-0.02-0.04-0.03-0.09-0.06-0.13
	c-0.18-0.37-0.2-0.79-0.05-1.17s0.43-0.69,0.8-0.85l16.58-7.29c0.19-0.08,0.4-0.13,0.6-0.13c0.56,0,1.07,0.31,1.33,0.8L111.36,124
	H78.12z"/>
</svg>
