<?xml version="1.0" encoding="UTF-8" standalone="no"?><svg xmlns:dc="http://purl.org/dc/elements/1.1/" xmlns:cc="http://creativecommons.org/ns#" xmlns:rdf="http://www.w3.org/1999/02/22-rdf-syntax-ns#" xmlns:svg="http://www.w3.org/2000/svg" xmlns="http://www.w3.org/2000/svg" viewBox="0 0 45 45" style="enable-background:new 0 0 45 45;" xml:space="preserve" version="1.1" id="svg2"><metadata id="metadata8"><rdf:RDF><cc:Work rdf:about=""><dc:format>image/svg+xml</dc:format><dc:type rdf:resource="http://purl.org/dc/dcmitype/StillImage"/></cc:Work></rdf:RDF></metadata><defs id="defs6"><clipPath id="clipPath16" clipPathUnits="userSpaceOnUse"><path id="path18" d="M 0,36 36,36 36,0 0,0 0,36 Z"/></clipPath></defs><g transform="matrix(1.25,0,0,-1.25,0,45)" id="g10"><g id="g12"><g clip-path="url(#clipPath16)" id="g14"><g transform="translate(31,33)" id="g20"><path id="path22" style="fill:#4289c1;fill-opacity:1;fill-rule:nonzero;stroke:none" d="m 0,0 c 0,-1.104 -0.895,-2 -2,-2 -1.104,0 -2,0.896 -2,2 0,1.105 0.896,2 2,2 1.105,0 2,-0.895 2,-2"/></g><g transform="translate(36,28)" id="g24"><path id="path26" style="fill:#4289c1;fill-opacity:1;fill-rule:nonzero;stroke:none" d="m 0,0 c 0,-1.656 -1.343,-3 -3,-3 -1.657,0 -3,1.344 -3,3 0,1.656 1.343,3 3,3 1.657,0 3,-1.344 3,-3"/></g><g transform="translate(36,32)" id="g28"><path id="path30" style="fill:#4289c1;fill-opacity:1;fill-rule:nonzero;stroke:none" d="m 0,0 c 0,-1.656 -1.343,-3 -3,-3 -1.657,0 -3,1.344 -3,3 0,1.656 1.343,3 3,3 1.657,0 3,-1.344 3,-3"/></g><g transform="translate(5,33)" id="g32"><path id="path34" style="fill:#4289c1;fill-opacity:1;fill-rule:nonzero;stroke:none" d="M 0,0 C 0,-1.104 0.896,-2 2,-2 3.104,-2 4,-1.104 4,0 4,1.105 3.104,2 2,2 0.896,2 0,1.105 0,0"/></g><g transform="translate(0,28)" id="g36"><path id="path38" style="fill:#4289c1;fill-opacity:1;fill-rule:nonzero;stroke:none" d="M 0,0 C 0,-1.656 1.343,-3 3,-3 4.657,-3 6,-1.656 6,0 6,1.656 4.657,3 3,3 1.343,3 0,1.656 0,0"/></g><g transform="translate(0,32)" id="g40"><path id="path42" style="fill:#4289c1;fill-opacity:1;fill-rule:nonzero;stroke:none" d="M 0,0 C 0,-1.656 1.343,-3 3,-3 4.657,-3 6,-1.656 6,0 6,1.656 4.657,3 3,3 1.343,3 0,1.656 0,0"/></g><g transform="translate(36,18)" id="g44"><path id="path46" style="fill:#fee7b8;fill-opacity:1;fill-rule:nonzero;stroke:none" d="m 0,0 c 0,-9.941 -8.059,-18 -18,-18 -9.941,0 -18,8.059 -18,18 0,9.941 8.059,18 18,18 C -8.059,18 0,9.941 0,0"/></g><g transform="translate(33,31.5)" id="g48"><path id="path50" style="fill:#4289c1;fill-opacity:1;fill-rule:nonzero;stroke:none" d="M 0,0 C 0,-1.381 -1.12,-2.5 -2.5,-2.5 -3.88,-2.5 -5,-1.381 -5,0 -5,1.381 -3.88,2.5 -2.5,2.5 -1.12,2.5 0,1.381 0,0"/></g><g transform="translate(34,29)" id="g52"><path id="path54" style="fill:#4289c1;fill-opacity:1;fill-rule:nonzero;stroke:none" d="m 0,0 c 0,-1.104 -0.896,-2 -2,-2 -1.104,0 -2,0.896 -2,2 0,1.105 0.896,2 2,2 1.104,0 2,-0.895 2,-2"/></g><g transform="translate(3,31.5)" id="g56"><path id="path58" style="fill:#4289c1;fill-opacity:1;fill-rule:nonzero;stroke:none" d="M 0,0 C 0,-1.381 1.12,-2.5 2.5,-2.5 3.88,-2.5 5,-1.381 5,0 5,1.381 3.88,2.5 2.5,2.5 1.12,2.5 0,1.381 0,0"/></g><g transform="translate(2,29)" id="g60"><path id="path62" style="fill:#4289c1;fill-opacity:1;fill-rule:nonzero;stroke:none" d="M 0,0 C 0,-1.104 0.896,-2 2,-2 3.104,-2 4,-1.104 4,0 4,1.105 3.104,2 2,2 0.896,2 0,1.105 0,0"/></g><g transform="translate(10.9297,15)" id="g64"><path id="path66" style="fill:#ff7892;fill-opacity:1;fill-rule:nonzero;stroke:none" d="m 0,0 c 0,-2.209 -1.791,-4 -4,-4 -2.209,0 -4,1.791 -4,4 0,2.209 1.791,4 4,4 2.209,0 4,-1.791 4,-4"/></g><g transform="translate(32.9297,15)" id="g68"><path id="path70" style="fill:#ff7892;fill-opacity:1;fill-rule:nonzero;stroke:none" d="m 0,0 c 0,-2.209 -1.791,-4 -4,-4 -2.209,0 -4,1.791 -4,4 0,2.209 1.791,4 4,4 2.209,0 4,-1.791 4,-4"/></g><g transform="translate(27.335,12.3711)" id="g72"><path id="path74" style="fill:#da2f47;fill-opacity:1;fill-rule:nonzero;stroke:none" d="m 0,0 c -0.178,0.161 -0.444,0.171 -0.635,0.029 -0.039,-0.029 -3.922,-2.9 -8.7,-2.9 -4.766,0 -8.662,2.871 -8.7,2.9 -0.191,0.142 -0.457,0.13 -0.635,-0.029 -0.177,-0.16 -0.217,-0.424 -0.094,-0.628 0.129,-0.215 3.217,-6.743 9.429,-6.743 6.212,0 9.301,6.528 9.429,6.743 C 0.217,-0.423 0.178,-0.16 0,0"/></g><g transform="translate(14,24.5)" id="g76"><path id="path78" style="fill:#664500;fill-opacity:1;fill-rule:nonzero;stroke:none" d="M 0,0 C 0,-1.934 -1.119,-3.5 -2.5,-3.5 -3.881,-3.5 -5,-1.934 -5,0 -5,1.933 -3.881,3.5 -2.5,3.5 -1.119,3.5 0,1.933 0,0"/></g><g transform="translate(28,24.5)" id="g80"><path id="path82" style="fill:#664500;fill-opacity:1;fill-rule:nonzero;stroke:none" d="M 0,0 C 0,-1.934 -1.119,-3.5 -2.5,-3.5 -3.881,-3.5 -5,-1.934 -5,0 -5,1.933 -3.881,3.5 -2.5,3.5 -1.119,3.5 0,1.933 0,0"/></g><g transform="translate(22,16.5)" id="g84"><path id="path86" style="fill:#bb1a34;fill-opacity:1;fill-rule:nonzero;stroke:none" d="M 0,0 C 0,-1.933 -1.566,-3.5 -3.5,-3.5 -5.433,-3.5 -7,-1.933 -7,0 -7,1.933 -5.433,3.5 -3.5,3.5 -1.566,3.5 0,1.933 0,0"/></g></g></g></g></svg>
