<?xml version="1.0" encoding="utf-8"?>
<!-- Generator: Adobe Illustrator 24.1.2, SVG Export Plug-In . SVG Version: 6.00 Build 0)  -->
<svg version="1.1" id="Layer_1" xmlns="http://www.w3.org/2000/svg" xmlns:xlink="http://www.w3.org/1999/xlink" x="0px" y="0px"
	 viewBox="0 0 128 128" style="enable-background:new 0 0 128 128;" xml:space="preserve">
<linearGradient id="leg_2_" gradientUnits="userSpaceOnUse" x1="82.794" y1="20.0706" x2="60.7654" y2="38.0185" gradientTransform="matrix(0.9962 0.0876 0.0876 -0.9962 6.6333 123.4366)">
	<stop  offset="0.5979" style="stop-color:#70534A"/>
	<stop  offset="1" style="stop-color:#5C4037"/>
</linearGradient>
<path id="leg_1_" style="fill:url(#leg_2_);" d="M78.33,95.99l-4.01-15.41l-12.48,5.05c0,0,2.82,8.25,3.93,12.02
	c0.92,3.12,2.47,6.31,7.53,8.79l22.24,9.26l0.6-7.71L78.33,95.99z"/>
<g id="sock_1_">
	<path style="fill:#E0E0E0;" d="M90.17,103.96c-3.13,4.29-2.36,8.54-2.36,8.54l8.51,3.8l1.06-8.25L90.17,103.96z"/>
</g>
<g id="shoe_x5F_back_1_">
	<path style="fill:#4568AD;" d="M101.75,105.24c-0.22-0.64-1.33-1.24-2.64-0.94l-2.24,0.64c-1.53,0.79-1.89,1.75-1.89,1.75
		c-0.44,5.15,0.57,9,0.57,9l4.58,5.32c1.13,1.33,2.96,1.84,4.62,1.29l1.28-0.43c0.56-0.19,1.15-1.18,0.87-2.29L101.75,105.24z"/>
</g>
<g id="pants_x5F_back_1_">
	<path style="fill:#616161;" d="M60.78,83.29C60.54,84.91,65,95.13,65,95.13c7.18-0.54,14.7-7.33,14.7-7.33s-3.92-4.44-3.56-12.59
		L60.78,83.29z"/>
</g>
<linearGradient id="leg_3_" gradientUnits="userSpaceOnUse" x1="40.1253" y1="28.6214" x2="56.1253" y2="45.2464" gradientTransform="matrix(1 0 0 -1 0 130)">
	<stop  offset="0.5979" style="stop-color:#70534A"/>
	<stop  offset="1" style="stop-color:#5C4037"/>
</linearGradient>
<path id="leg" style="fill:url(#leg_3_);" d="M44.11,108.6l8.51-0.07c0,0-2.84-15.54-3.59-18.37l19.8-6.54l-4.35-13.53L41.74,80.37
	c-2.88,1.3-5.77,4.87-4.17,10.85C38.5,94.65,44.11,108.6,44.11,108.6z"/>
<g id="sock_x5F_front_1_">
	<path style="fill:#E0E0E0;" d="M51.46,101.64c-5.59-0.47-9.09,2.58-9.09,2.58l3,9l7.75-2.82L51.46,101.64z"/>
</g>
<g id="shoe_x5F_front_1_">
	<g>
		<path style="fill:#4568AD;" d="M53.92,115.37c0.64-0.21,1.26-1.31,0.97-2.62l-0.62-2.25c-0.52-1.64-2.17-3.11-2.17-3.11
			c-5.18-0.53-8.62,2.96-8.62,2.96l-5.31,3.2c-1.35,1.12-1.88,2.94-1.34,4.61l0.42,1.29c0.18,0.56,1.17,1.16,2.28,0.9L53.92,115.37z
			"/>
	</g>
	<g>
		<path style="fill:#294B7C;" d="M47.17,115.09c-4.39,1.71-7.46,3.03-8.73,4.03c-1.33,0.91-0.17,1.54,1.13,1.18l12.3-3.7
			c2.33-0.79,3.18-1.8,3.08-2.92C54.85,112.57,51.29,113.48,47.17,115.09z"/>
	</g>
</g>
<g id="pants_x5F_front_1_">
	<path style="fill:#7C7C7C;" d="M46.54,78.19c5.26,1.05,11.65,11.62,11.65,11.62s10.21-4.63,13.86-6.79
		c6.72-3.97,4.87-11.79,2.72-15.62l-2.73-5.96l-19.36,4.93l-0.26,4.18l0.8,4.18L46.54,78.19z"/>
</g>
<path id="shadow_x5F_shirt" style="opacity:0.2;enable-background:new    ;" d="M53.23,74.74c10.04-7.05,22.57-5.08,22.57-5.08
	c-1.54-4.2-4.48-9.59-4.48-9.59s-18.82,4.97-19.18,7.55C51.77,70.2,53.23,74.74,53.23,74.74z"/>
<linearGradient id="arm_2_" gradientUnits="userSpaceOnUse" x1="32.3996" y1="66.2963" x2="50.6496" y2="71.1296" gradientTransform="matrix(1 0 0 -1 0 130)">
	<stop  offset="0.5979" style="stop-color:#70534A"/>
	<stop  offset="1" style="stop-color:#5C4037"/>
</linearGradient>
<path id="arm_1_" style="fill:url(#arm_2_);" d="M58.47,54.82L53.7,47.7L33.12,69.57c0,0,0,1.54,1.78,2.59
	c1.78,1.05,3.54,0.28,3.54,0.28L58.47,54.82z"/>
<path id="tone" style="fill:#4A2F27;" d="M33.03,72c0,0-1.54,2.53-2.06,5.75c-0.21,1.33,0.25,2.52,0.42,2.74
	c0.55,0.71,1.53,0.87,1.85,0.28c0.27-0.51-0.41-1.36-0.41-1.86c0.01-0.6,0.35-1.08,0.35-1.08c0.21,0.62,1.64,1.93,2.11,1.8
	c1.33-0.38-0.73-2.04-0.64-3.14c0.24-2.86,1.33-4.73,1.33-4.73L33.03,72z"/>
<linearGradient id="hand_2_" gradientUnits="userSpaceOnUse" x1="31.0074" y1="56.0733" x2="35.8356" y2="51.1158" gradientTransform="matrix(1 0 0 -1 0 130)">
	<stop  offset="0.5979" style="stop-color:#70534A"/>
	<stop  offset="1" style="stop-color:#5C4037"/>
</linearGradient>
<path id="hand_1_" style="fill:url(#hand_2_);" d="M39.37,70.45c0.2,1.81-0.16,1.64-0.53,3.93c-0.22,1.41,0.49,1.95,0.45,2.96
	c-0.02,0.6-0.7,1.26-1.39,0.86c-1.53-0.89-0.84-4.5-3.72-3.68c-2.11,0.6-3.07,5.24-4.84,6.72c-1.73,1.45-3.17,0.26-2.73-0.28
	c0,0,0.94-1.7,2.05-3.53c1.33-2.2,1.8-6.28,5.62-8.84L39.37,70.45z"/>
<path id="shirt_1_" style="fill:#DB5200;" d="M60.91,40.05c-7.7,6.38-12.72,12.76-12.72,12.76c4.27,0.28,8.09,6.48,8.09,6.48
	S66.7,35.25,60.91,40.05z"/>
<path id="head_1_" style="fill:#70534A;" d="M69.35,15.85c-2.18-4.7-9.46-7.14-14.49-5.92c-5.63,1.37-8.4,5.71-8.82,10.98
	c-0.15,1.91,0.05,3.79,0.47,5.1c0.05,0.16,0.45,1.3,0.5,1.66c0.32,1.39-2.3,2.99-2.5,4.57c-0.15,1.18,2.34,1.74,2.55,1.94
	c1.03,0.97-0.1,5.89,6.62,6.07c2.34,0.06,2.79-0.22,2.79-0.22l0.47,7.63l11.18-8.24c0,0-2.07-3.28-0.43-6.58
	C69.81,28.54,72.13,21.84,69.35,15.85z"/>
<path id="mouth_1_" style="fill:#1A1717;" d="M47.95,36.91c0.93-0.02,1.83-0.3,2.57-0.94c0.81-0.7,0.17-1.37-0.78-0.87
	c-0.57,0.3-1.4,0.49-2.17,0.4L47.95,36.91z"/>
<ellipse id="eye_1_" transform="matrix(0.9943 -0.1063 0.1063 0.9943 -2.7013 5.6031)" style="fill:#1A1717;" cx="51.21" cy="28.14" rx="1.23" ry="1.88"/>
<path id="eyebrow_1_" style="fill:#1A1717;" d="M50.04,25.53c-1.12,0.55-1.53-0.17-1.25-0.87c0.21-0.51,0.86-1.02,2.28-1
	c1.34,0.03,2.01,0.68,2.44,1.07s0.47,0.85,0.18,0.94C53.28,25.81,51.42,24.85,50.04,25.53z"/>
<g id="handball_1_">
	
		<radialGradient id="SVGID_1_" cx="80.9043" cy="113.6813" r="11.6795" gradientTransform="matrix(0.987 0.161 0.161 -0.987 -7.2759 109.7164)" gradientUnits="userSpaceOnUse">
		<stop  offset="0" style="stop-color:#CED7DB"/>
		<stop  offset="0.3026" style="stop-color:#BFCBD0"/>
		<stop  offset="0.8798" style="stop-color:#99ABB4"/>
		<stop  offset="1" style="stop-color:#90A4AE"/>
	</radialGradient>
	<circle style="fill:url(#SVGID_1_);" cx="93.55" cy="15.09" r="11.66"/>
</g>
<linearGradient id="arm_3_" gradientUnits="userSpaceOnUse" x1="88.876" y1="99.9157" x2="63.0156" y2="76.3809" gradientTransform="matrix(0.9858 0.1678 0.1678 -0.9858 -0.7438 108.4153)">
	<stop  offset="0.5979" style="stop-color:#70534A"/>
	<stop  offset="1" style="stop-color:#5C4037"/>
</linearGradient>
<path id="arm" style="fill:url(#arm_3_);" d="M68.48,38.87c-5.57,2.65-0.62,9.18-0.62,9.18s10.75-1.8,15.12-2.83
	c6.21-1.44,7.15-3.58,8.66-5.46c1.21-1.51,7.22-10.4,7.22-10.4l-0.34-3.15l-5.51,1.2l-9.28,8.52
	C83.73,35.92,73.35,36.56,68.48,38.87z"/>
<linearGradient id="hand_3_" gradientUnits="userSpaceOnUse" x1="117.6109" y1="114.1102" x2="91.7504" y2="90.5754" gradientTransform="matrix(0.9964 -0.0843 -0.0843 -0.9964 -3.2763 139.4733)">
	<stop  offset="0.5979" style="stop-color:#70534A"/>
	<stop  offset="1" style="stop-color:#5C4037"/>
</linearGradient>
<path id="hand" style="fill:url(#hand_3_);" d="M93.18,27.87c-0.14-2.83,3.46-4.27,3.46-4.27s-1.21-3.01-1.68-3.96
	c-0.46-0.95-0.14-1.61,0.04-1.71c0.58-0.33,1.17-0.01,1.35,0.2c0.77,0.93,1.93,2.55,1.93,2.55c0.5-0.2-0.28-2.8-0.67-4.55
	c-0.23-1.03,0.99-2.15,1.87-0.32c0.73,1.51,1.67,4.35,1.67,4.35c0.17-1.16-0.04-2.98-0.27-5.27c-0.11-1.07,0.33-1.55,1.03-1.61
	c0.52-0.05,0.97,0.09,1.33,2.23c0.11,0.64,0.29,4.25,0.29,4.25c1.01-0.52,1.26-3.31,1.34-5.11c0.05-1.27,1.73-1.59,1.95,0.32
	c0.45,3.88-1.56,7.19-2.48,8.74c-0.48,0.81-5.78,5.83-5.78,5.83L93.18,27.87z"/>
<g id="shirt">
	
		<radialGradient id="SVGID_2_" cx="9.8716" cy="66.8589" r="19.4216" gradientTransform="matrix(0.9427 0.3337 0.3337 -0.9427 27.617 107.3878)" gradientUnits="userSpaceOnUse">
		<stop  offset="0" style="stop-color:#F78C1F"/>
		<stop  offset="1" style="stop-color:#ED6D23"/>
	</radialGradient>
	<path style="fill:url(#SVGID_2_);" d="M79,65.63c-8.76-8.29-4.64-15.43-4.64-15.43s0.08-1.22,4.63-2.14c0,0-0.64-5.25,1.98-12.23
		c0,0-10.01,0.1-14.15,1.46c-2.48,0.81-6.49,1.36-10.26,5.56c-2.16,2.4-3.65,4.7-5.17,12.14c-1.69,8.29,1.85,19.76,1.85,19.76
		C60.88,66.05,79,65.63,79,65.63z"/>
</g>
<g id="hairGroup">
	<path id="hair_2_" style="fill:#232020;" d="M73.15,16c-1.58-3.47-4.51-4.4-5.46-4.61c-0.5-1.27-2.96-6.02-10.93-4.3
		c-1.94,0.42-3.32,1.42-4.55,2.31c-0.53,0.38-1.02,0.74-1.49,0.99c-0.38,0.2-1.06,0.41-1.64,0.25c-1.32-0.37-1-2.35-1-2.35
		s-4.7,1.17-2.43,5.66c-1.56,0.78-2.21,2.51-2.42,4.11c-0.28,2.19,0.88,4.2,3.01,5.03c0,0-0.59-3.47,4.46-3.51
		c1.56-0.01,3.21,0.15,4.63-0.5c0.54-0.25,1.04-0.63,1.56-0.92c0.12-0.01,0.2-0.01,0.2-0.01c1.96,0.93-0.33,5.54,1.92,8.07
		c0.45,0.5,0.79,0.29,0.79,0.29l0.79-1.29c0.6-0.89,1.15-1.66,1.96-1.52c2.4,0.4,2.18,4.66-0.59,5.73c-0.27,0.11,0.61,4.8,6.44,4.51
		c3.01-0.15,3.95-2.7,3.95-2.7s-1.27,0.38-1.6-0.69c-0.17-0.56,0.31-1.35,1.21-2.24c2.6-2.55,1.48-5.28,1.04-6.13
		C73.38,21.36,74.39,18.71,73.15,16z"/>
	<g id="hairHighlights">
		
			<radialGradient id="SVGID_3_" cx="66.8993" cy="103.7952" r="7.6264" gradientTransform="matrix(0.954 0.2999 0.4319 -1.3738 -42.6491 150.6297)" gradientUnits="userSpaceOnUse">
			<stop  offset="0.45" style="stop-color:#444140;stop-opacity:0"/>
			<stop  offset="1" style="stop-color:#444140"/>
		</radialGradient>
		<path style="fill:url(#SVGID_3_);" d="M73,22.18c0.04-0.1-0.73,2.19-4.61,2.01c-1.58,0.08-3.6,4-1.16,6.41
			c2.16,2.13,5.12,0.64,5.12,0.64s-0.41,0.14-1.03-0.04c-0.4-0.12-0.57-0.63-0.57-0.65c-0.17-0.56,0.31-1.35,1.21-2.24
			C74.56,25.75,73.44,23.02,73,22.18z"/>
		
			<radialGradient id="SVGID_4_" cx="66.3611" cy="108.1961" r="7.7303" gradientTransform="matrix(0.9831 -0.1828 -0.2307 -1.2406 26.2403 166.7358)" gradientUnits="userSpaceOnUse">
			<stop  offset="0.45" style="stop-color:#444140;stop-opacity:0"/>
			<stop  offset="1" style="stop-color:#444140"/>
		</radialGradient>
		<path style="fill:url(#SVGID_4_);" d="M73.15,16c-0.83-1.83-2.27-3.33-4.11-4.15c-0.27-0.12-0.92-0.4-1.36-0.46
			c0.25,0.82,0.27,1.7-0.04,2.63c-0.01,0.03-0.35,1.41-1.46,2.55c0.91,1.13,1.4,2.54,1.87,3.91c0.41,1.2,0.82,2.53,0.34,3.7
			c0.74-0.08,1.92,0.07,3.19-0.58c1.21-0.62,1.79-2.08,2.03-3.38C73.88,18.81,73.76,17.32,73.15,16z"/>
		
			<radialGradient id="SVGID_5_" cx="57.6841" cy="108.4535" r="15.9104" gradientTransform="matrix(0.9795 -0.2016 -0.1516 -0.7362 17.7206 109.6093)" gradientUnits="userSpaceOnUse">
			<stop  offset="0.45" style="stop-color:#444140;stop-opacity:0"/>
			<stop  offset="1" style="stop-color:#444140"/>
		</radialGradient>
		<path style="fill:url(#SVGID_5_);" d="M67.64,14.02c0.81-2.44-0.61-4.57-2.66-5.94c-2.41-1.6-5.48-1.59-8.22-1
			c-1.94,0.42-3.32,1.42-4.55,2.31c-0.53,0.38-1.02,0.74-1.49,0.99c-0.38,0.2-1.06,0.41-1.64,0.25c-1.32-0.37-1-2.35-1-2.35
			s-4.7,1.17-2.43,5.66c-1.56,0.78-2.21,2.51-2.42,4.11c-0.28,2.19,0.88,4.2,3.01,5.03c0,0-0.59-3.47,4.46-3.51
			c1.56-0.01,3.21,0.15,4.63-0.5c1.26-0.58,1.66-1.29,3.1-1.29c1.55,0.01,3.65,0.5,5.23,0.18C66.85,17.31,67.63,14.07,67.64,14.02z"
			/>
		
			<radialGradient id="SVGID_6_" cx="68.5076" cy="100.5632" r="8.5653" gradientTransform="matrix(0.9801 0.1985 0.1276 -0.6301 -12.1777 78.7125)" gradientUnits="userSpaceOnUse">
			<stop  offset="0.45" style="stop-color:#444140;stop-opacity:0"/>
			<stop  offset="1" style="stop-color:#444140"/>
		</radialGradient>
		<path style="fill:url(#SVGID_6_);" d="M67.23,30.6c-1.09-1.05-1.46-2.85-3.13-3.74c-0.25,1.07-0.96,2.11-2.14,2.57
			c-0.27,0.11,0.61,4.8,6.44,4.51c3.01-0.15,3.95-2.7,3.95-2.7S69.43,32.71,67.23,30.6z"/>
	</g>
</g>
</svg>
