<?xml version="1.0" encoding="utf-8"?>
<!-- Generator: Adobe Illustrator 24.0.3, SVG Export Plug-In . SVG Version: 6.00 Build 0)  -->
<svg version="1.1" id="Layer_1" xmlns="http://www.w3.org/2000/svg" xmlns:xlink="http://www.w3.org/1999/xlink" x="0px" y="0px"
	 viewBox="0 0 128 128" style="enable-background:new 0 0 128 128;" xml:space="preserve">
<g id="XMLID_1_">
	
		<linearGradient id="SVGID_1_" gradientUnits="userSpaceOnUse" x1="64" y1="32.1553" x2="64" y2="-2.3633" gradientTransform="matrix(1 0 0 -1 0 128)">
		<stop  offset="3.200000e-03" style="stop-color:#616161"/>
		<stop  offset="0.2772" style="stop-color:#545454"/>
		<stop  offset="0.7831" style="stop-color:#323232"/>
		<stop  offset="1" style="stop-color:#212121"/>
	</linearGradient>
	<path style="fill:url(#SVGID_1_);" d="M64.14,96c-0.05,0-0.09,0-0.14,0c-25.65,0.03-52,7.1-52,24.99V124h1.5H15h98h1.5h1.5v-3.01
		C116,104.12,89.9,96,64.14,96z"/>
</g>
<g id="neck">
	<path style="fill:#EDC391;" d="M64,90.08h-9.08v9.98c0,4.51,3.7,8.17,8.26,8.17h1.65c4.56,0,8.26-3.66,8.26-8.17v-9.98L64,90.08z"
		/>
</g>
<g id="bowtie_1_">
	<polygon style="fill:#E0E0E0;" points="52.66,106 56.51,124 64.22,124 64.66,124 71.9,124 75.34,106 	"/>
	<g>
		<path style="fill:#FFFFFF;" d="M53.75,114.54L64.01,106c0,0-2.94-0.06-6.11-4.19c-1.86-2.42-3.12-6.03-3.12-6.03l-3.14,0.79
			L53.75,114.54z"/>
	</g>
	<g>
		<path style="fill:#FFFFFF;" d="M74.27,114.54L64,106c0,0,2.94-0.06,6.11-4.19c1.86-2.42,3.12-6.03,3.12-6.03l3.14,0.79
			L74.27,114.54z"/>
	</g>
	<g>
		<path style="fill:#9E9E9E;" d="M51.72,96.57c-0.03,0-0.07,0.01-0.1,0.01l0-0.01c-0.11,0.02-0.22,0.03-0.33,0.05
			c-3.52,0.35-6.96,0.84-10.26,1.5l-3.98,6.36l7.12,4.36l-4.75,6.11l9.3,9.05h2.87h4.07h2.04h0.01L51.72,96.57z"/>
		<path style="fill:#9E9E9E;" d="M90.96,104.48l-3.87-6.18c-3.47-0.74-7.1-1.3-10.82-1.68L70.31,124h0h2.05h4.07h2.87l9.3-9.05
			l-4.75-6.11L90.96,104.48z"/>
	</g>
	<g>
		<path style="fill:#212121;" d="M64.77,115.14h-1.4c-1.53,0-2.85-1.05-3.21-2.54l-0.53-2.25c-0.49-2.07,1.08-4.06,3.21-4.06h2.45
			c2.12,0,3.68,1.97,3.21,4.03l-0.51,2.25C67.64,114.08,66.3,115.14,64.77,115.14z"/>
		<path style="fill:#212121;" d="M48.79,117.09v-12.07c0-1.5,1.63-2.45,2.95-1.71l10.69,5.94c1.34,0.74,1.35,2.65,0.02,3.42
			l-10.69,6.13C50.44,119.54,48.79,118.6,48.79,117.09z"/>
		<path style="fill:#212121;" d="M78.79,117.09v-12.07c0-1.5-1.63-2.45-2.95-1.71l-10.69,5.94c-1.34,0.74-1.35,2.65-0.02,3.42
			l10.69,6.13C77.14,119.54,78.79,118.6,78.79,117.09z"/>
	</g>
	<circle style="fill:#212121;" cx="63.75" cy="120" r="2"/>
</g>
<g id="ears_2_">
	<path style="fill:#EDC391;" d="M91.33,50.43H36.67c-5.89,0-10.71,5.14-10.71,11.41s4.82,11.41,10.71,11.41h54.65
		c5.89,0,10.71-5.14,10.71-11.41S97.22,50.43,91.33,50.43z"/>
</g>
<g id="head_1_">
	<path style="fill:#F9DDBD;" d="M64,11.07L64,11.07L64,11.07c-17.4,0-33.52,18.61-33.52,45.4c0,26.64,16.61,39.81,33.52,39.81
		S97.52,83.1,97.52,56.46C97.52,29.68,81.4,11.07,64,11.07z"/>
</g>
<g id="eyebrows">
	<path style="fill:#454140;" d="M39.98,50.73c2.99-4.23,9.78-4.63,13.67-1.48c0.62,0.5,1.44,1.2,1.68,1.98
		c0.4,1.27-0.82,2.26-2.01,1.96c-0.76-0.19-1.47-0.6-2.22-0.83c-1.37-0.43-2.36-0.55-3.59-0.55c-1.82-0.01-2.99,0.22-4.72,0.92
		c-0.71,0.29-1.29,0.75-2.1,0.41C39.77,52.75,39.42,51.56,39.98,50.73z"/>
	<path style="fill:#454140;" d="M86.04,53.13c-0.29-0.13-0.57-0.29-0.86-0.41c-1.78-0.74-2.79-0.93-4.72-0.92
		c-1.7,0.01-2.71,0.24-4.04,0.69c-0.81,0.28-1.84,0.98-2.74,0.71c-1.32-0.4-1.28-1.84-0.56-2.76c0.86-1.08,2.04-1.9,3.29-2.44
		c2.9-1.26,6.44-1.08,9.17,0.55c0.89,0.53,1.86,1.26,2.4,2.18C88.77,52.03,87.58,53.76,86.04,53.13z"/>
</g>
<g id="eyes_2_">
	<ellipse style="fill:#312D2D;" cx="47.56" cy="58.81" rx="4.93" ry="5.1"/>
	<ellipse style="fill:#312D2D;" cx="80.44" cy="58.81" rx="4.93" ry="5.1"/>
</g>
<path id="mouth_2_" style="fill:#444444;" d="M72.42,76.14c-3.18,1.89-13.63,1.89-16.81,0c-1.83-1.09-3.7,0.58-2.94,2.24
	c0.75,1.63,6.44,5.42,11.37,5.42s10.55-3.79,11.3-5.42C76.09,76.72,74.25,75.05,72.42,76.14z"/>
<path id="nose_2_" style="fill:#DBA689;" d="M67.86,68.06c-0.11-0.04-0.21-0.07-0.32-0.08h-7.08c-0.11,0.01-0.22,0.04-0.32,0.08
	c-0.64,0.26-0.99,0.92-0.69,1.63c0.3,0.71,1.71,2.69,4.55,2.69s4.25-1.99,4.55-2.69C68.85,68.98,68.5,68.32,67.86,68.06z"/>
<g id="hairGroup">
	<path id="hair_7_" style="fill:#312D2D;" d="M64.07,4.03L64.07,4.03c-0.01,0-0.01,0-0.02,0s-0.01,0-0.02,0l0,0
		C18.6,4.27,27.91,56.17,27.91,56.17s2.04,5.35,2.97,7.71c0.13,0.34,0.63,0.3,0.71-0.05c0.97-4.34,4.46-19.73,6.22-24.41
		c1.04-2.76,3.9-4.36,6.79-3.83c4.45,0.81,11.55,1.81,19.37,1.81c0.03,0,0.06,0,0.08,0s0.06,0,0.08,0c7.82,0,14.92-1,19.37-1.81
		c2.9-0.53,5.76,1.08,6.79,3.83c1.75,4.66,5.22,19.96,6.2,24.36c0.08,0.36,0.58,0.39,0.71,0.05l2.98-7.67
		C100.2,56.17,109.51,4.27,64.07,4.03z"/>
	
		<radialGradient id="hairHighlights_1_" cx="64.0551" cy="80.9011" r="38.0923" gradientTransform="matrix(1 0 0 -1.1282 0 138.3704)" gradientUnits="userSpaceOnUse">
		<stop  offset="0.7945" style="stop-color:#454140;stop-opacity:0"/>
		<stop  offset="1" style="stop-color:#454140"/>
	</radialGradient>
	<path id="hairHighlights" style="fill:url(#hairHighlights_1_);" d="M100.2,56.17c0,0,9.31-51.9-36.13-52.14v0
		c-0.01,0-0.01,0-0.02,0h0c0,0-0.01,0-0.02,0l0,0c-0.71,0-1.4,0.02-2.08,0.05c-1.35,0.06-2.66,0.16-3.92,0.31c-0.01,0-0.03,0-0.04,0
		c-0.09,0.01-0.17,0.03-0.26,0.04C19.5,9.24,27.91,56.17,27.91,56.17l2.98,7.68c0.13,0.34,0.62,0.31,0.7-0.05
		c0.98-4.39,4.46-19.71,6.22-24.37c1.04-2.76,3.9-4.36,6.79-3.83c4.45,0.81,11.55,1.81,19.37,1.81c0.03,0,0.06,0,0.08,0
		s0.06,0,0.08,0c7.82,0,14.92-1,19.37-1.81c2.9-0.53,5.76,1.08,6.79,3.83c1.76,4.68,5.25,20.1,6.21,24.42
		c0.08,0.36,0.57,0.39,0.7,0.05C98.15,61.54,100.2,56.17,100.2,56.17z"/>
</g>
</svg>
