<?xml version="1.0" encoding="utf-8"?>
<!-- Generator: Adobe Illustrator 26.3.1, SVG Export Plug-In . SVG Version: 6.00 Build 0)  -->
<svg version="1.1" id="emoji_x5F_u1f932" xmlns="http://www.w3.org/2000/svg" xmlns:xlink="http://www.w3.org/1999/xlink" x="0px"
	 y="0px" viewBox="0 0 128 128" style="enable-background:new 0 0 128 128;" xml:space="preserve">
<path style="fill:#FFCA28;" d="M123.98,73.78c-0.5-10.49-3.21-15.25-5.5-20.4c-0.61-1.37-2.05-6.9-2.78-8.14
	c-1.54-2.62-6.05,0.05-6.05,0.05s-3.56-13.5-12.86-25.52c-2.43-3.13-4.57-3.26-6.77-1.9c-2.35,1.45-2.3,4.88-2.3,4.88
	s-3.01-5.55-6.15-6.1c-2.71-0.47-6.35,2.42-4.74,7.59c0.37,1.2,1.22,3.46,1.22,3.46s-1.29-2.24-4.2-2.71
	c-1.92-0.31-5.35,1.42-4.47,6.25c0.41,2.21,1.98,5.52,1.98,5.52s-2.05-2.01-4.63-0.86c-1.75,0.78-2.62,2.28-2.78,4.35h-0.04
	c-0.12-2.06-0.86-3.56-2.61-4.35c-2.57-1.15-4.63,0.86-4.63,0.86s1.57-3.3,1.98-5.52c0.89-4.83-2.55-6.56-4.47-6.25
	c-2.91,0.47-4.2,2.71-4.2,2.71s0.85-2.26,1.22-3.46c1.61-5.17-2.03-8.06-4.74-7.59c-3.14,0.55-6.15,6.1-6.15,6.1s0.05-3.43-2.3-4.88
	c-2.21-1.36-4.35-1.24-6.77,1.9c-9.3,12.01-12.86,25.52-12.86,25.52s-4.52-2.66-6.05-0.05c-0.73,1.24-2.17,6.78-2.78,8.14
	c-2.29,5.15-5,9.91-5.5,20.4c-0.22,4.62,1.06,13.3,5.41,20.7c2.8,4.77,12.99,17.78,31.96,16.6c13.61-0.84,20.18-9.79,21.63-18.1
	c0.21-1.21,0.37-2.31,0.49-3.35h0.53c0.12,0.97,0.27,1.98,0.46,3.1c1.45,8.31,8.5,17.51,22.12,18.36
	c18.97,1.17,29.16-11.84,31.96-16.6C122.92,87.08,124.2,78.4,123.98,73.78z"/>
<g>
	<path style="fill:#EDA600;" d="M18.19,45.22c0,0,5.35,4.6,0.4,14.9c-2.57,5.35-2.64,10.29-1.25,12.84c1.39,2.55,4.84,5.25,7.9,7.42
		c3.91,2.79,8,6.26,9.95,18.55c0,0,0,1.23,0.59,1.23c0.67,0,0.66-0.98,0.66-0.98c-0.56-18.44-10.72-21.84-14.38-26.34
		c-2.95-3.64-2.76-5.6-1.04-10.84C22.74,56.76,23.68,48.85,18.19,45.22z"/>
	<path style="fill:#EDA600;" d="M57.01,68.88c-0.92-0.8-2.51-1.64-4.75-2.8c0.7-11.41,2.08-17.78,3.94-24.42
		c1.13-4.02,0.51-5.07,0.51-5.07c-4.18,6.58-6.19,14.06-7.06,28.16c-2.17-1.07-4.59-2.11-7.25-3.04c0.11-3.82,1.75-14.05,2.92-17.96
		c0.52-1.74,1.77-5.11,3.48-9c2.14-4.84,1.54-8.22,1.54-8.22s-1.53,3.06-3.71,7.42c-1.88,3.74-3.5,6.98-4.1,8.97
		c-1.1,3.69-2.7,13.1-3,17.86c-1.36-0.41-2.78-0.78-4.26-1.11c-1.52-0.34-2.85-0.61-4.01-0.78c1-9.93,3.69-20.1,6.8-26.45
		c3.21-6.55,2.3-9.89,2.3-9.89s-1.42,3.69-3.38,7.09l-0.46,0.84c-5.93,11.03-7.24,18.12-8.19,28.25c-1.39,0.1-2.4,0.55-3.1,1.49
		c0,0,4.59,0.62,8.13,1.49c15.11,3.73,25,9.21,25,9.21S58.29,69.99,57.01,68.88z"/>
	<path style="fill:#EDA600;" d="M109.81,45.22c0,0-5.35,4.6-0.4,14.9c2.57,5.35,2.64,10.29,1.25,12.84
		c-1.39,2.55-4.84,5.25-7.9,7.42c-3.91,2.79-8,6.26-9.95,18.55c0,0,0,1.23-0.59,1.23c-0.67,0-0.66-0.98-0.66-0.98
		c0.56-18.44,10.72-21.84,14.38-26.34c2.95-3.64,2.76-5.6,1.04-10.84C105.26,56.76,104.32,48.85,109.81,45.22z"/>
	<path style="fill:#EDA600;" d="M99.66,58.72c-0.95-10.13-2.25-17.22-8.19-28.25l-0.46-0.84c-1.96-3.4-3.38-7.09-3.38-7.09
		s-0.9,3.34,2.3,9.89c3.11,6.35,5.8,16.52,6.8,26.45c-1.17,0.17-2.49,0.44-4.01,0.78c-1.48,0.33-2.9,0.71-4.26,1.11
		c-0.29-4.76-1.9-14.17-3-17.86c-0.59-1.99-2.22-5.22-4.1-8.97c-2.19-4.36-3.71-7.42-3.71-7.42s-0.6,3.38,1.54,8.22
		c1.72,3.88,2.96,7.25,3.48,9c1.16,3.91,2.8,14.14,2.92,17.96c-2.66,0.93-5.08,1.97-7.25,3.04c-0.88-14.1-2.88-21.57-7.06-28.16
		c0,0-0.62,1.05,0.51,5.07c1.86,6.64,3.24,13,3.94,24.42c-2.24,1.16-3.83,2-4.75,2.8c-1.28,1.11-1.35,2.03-1.35,2.03
		s9.89-5.49,25-9.21c3.54-0.87,8.13-1.49,8.13-1.49C102.06,59.27,101.05,58.82,99.66,58.72z"/>
	<g>
		<path style="fill:#EDA600;" d="M72.42,102.82c-5.44-5.76-7.64-11.88-8.18-15.06c-0.05-0.28-0.44-0.28-0.49,0
			c-0.53,3.17-2.73,9.29-8.18,15.06c-7.73,8.19-22.77,7.78-22.77,7.78s10.26,3.28,21.75-3.43c6.48-3.78,8.84-11.37,9.33-16.5
			c0.01-0.13,0.2-0.13,0.21,0c0.49,5.13,2.85,12.72,9.33,16.5c11.5,6.7,21.75,3.43,21.75,3.43S80.15,111.01,72.42,102.82z"/>
	</g>
	<path style="fill:#EDA600;" d="M63.45,79.99c0.06,0.53,0.83,0.52,0.88,0c0.32-3.1,0.8-7.37,1.25-10.56
		c1.82-12.82-0.51-23.84-1.3-27.04c-0.06-0.25-0.42-0.25-0.48,0c-0.74,3.18-2.95,14.02-1.67,26.07
		C62.4,70.93,63.01,76.25,63.45,79.99z"/>
</g>
</svg>
