<?xml version="1.0" encoding="utf-8"?>
<!-- Generator: Adobe Illustrator 24.0.3, SVG Export Plug-In . SVG Version: 6.00 Build 0)  -->
<svg version="1.1" id="Layer_1" xmlns="http://www.w3.org/2000/svg" xmlns:xlink="http://www.w3.org/1999/xlink" x="0px" y="0px"
	 viewBox="0 0 128 128" style="enable-background:new 0 0 128 128;" xml:space="preserve">
<path id="hair" style="fill:#232020;" d="M84.89,62.87L84.89,62.87c-0.6-1.16-0.1-2.33,1.82-4.31c2.27-2.35,5.06-8.71,3.04-14.83
	c-0.25-0.8-0.6-1.59-1.03-2.37l-0.1-0.18l-0.14-0.25l-0.49-0.07c-0.46-0.07-3.17-0.05-9.08,0.01c-1.82,0.01-3.43,0.03-4.25,0.03
	H53.12c-0.82,0-2.43-0.02-4.25-0.03c-5.01-0.05-7.72-0.07-8.71-0.03c-0.18,0-0.3,0.01-0.37,0.02l-0.49,0.07l-0.24,0.43
	c-0.16,0.3-0.32,0.59-0.45,0.89c-3.05,6.55,0,13.77,2.46,16.31c1.92,1.98,2.42,3.15,1.82,4.3c-0.35,0.69-0.87,1.1-1.53,1.23
	l-1.45,0.28l0.8,1.24c0.27,0.43,0.63,0.77,1.02,1c1.12,0.67,2.51,0.85,3.48,0.87c0.04,0,0.15,0.05,0.42,0.35
	c3.7,4.11,6.43,4.83,18.27,4.83s14.57-0.72,18.27-4.83c0.21-0.23,0.35-0.35,0.43-0.35c0.95-0.02,2.33-0.2,3.47-0.87
	c0.41-0.25,0.76-0.6,1.02-1l0.79-1.23l-1.43-0.29C85.74,63.95,85.24,63.56,84.89,62.87z"/>
<g id="hairHighlights_1_">
	
		<radialGradient id="SVGID_1_" cx="101.782" cy="62.1287" r="13.6861" gradientTransform="matrix(-1.0016 -0.1091 -0.0186 0.6473 154.4984 33.2882)" gradientUnits="userSpaceOnUse">
		<stop  offset="0.7275" style="stop-color:#444140;stop-opacity:0"/>
		<stop  offset="1" style="stop-color:#444140"/>
	</radialGradient>
	<path style="fill:url(#SVGID_1_);" d="M58.62,72.57l5.42-7.11l-17.22-0.44l-1.15,2.87c0,0,1.27,1.31,1.95,1.87
		c1.13,0.93,3.16,2.34,8.14,2.67L58.62,72.57z"/>
	
		<radialGradient id="SVGID_2_" cx="91.9958" cy="62.6603" r="3.9688" gradientTransform="matrix(0.9057 0.5612 0.3144 -0.8897 -60.9168 66.2128)" gradientUnits="userSpaceOnUse">
		<stop  offset="0.3031" style="stop-color:#444140"/>
		<stop  offset="1" style="stop-color:#444140;stop-opacity:0"/>
	</radialGradient>
	<path style="fill:url(#SVGID_2_);" d="M46.23,65.05c3.72-6.64-5.81-7.18-5.87-7.34c0.28,0.31,0.46,0.59,0.72,0.85
		c1.43,1.45,2.1,2.61,2.07,3.21c-0.11,1.79-1.26,2.29-2.28,2.41c-0.54,0.07-0.94,0.18-0.94,0.18S43.6,68.43,46.23,65.05z"/>
	
		<radialGradient id="SVGID_3_" cx="98.003" cy="70.2697" r="13.7624" gradientTransform="matrix(0.0746 -1.3204 -0.8311 -0.0824 99.2025 187.2151)" gradientUnits="userSpaceOnUse">
		<stop  offset="0.7247" style="stop-color:#444140;stop-opacity:0"/>
		<stop  offset="1" style="stop-color:#444140"/>
	</radialGradient>
	<path style="fill:url(#SVGID_3_);" d="M40.19,57.4c0.35,0.48,10.49-4.6,12.2-10.81c0.35-1.25,0.66-2.54,0.7-3.88
		c0.03-1-0.09-2.19-0.52-3.04c-0.53-1.04-11.85-0.67-11.85-0.67C35.54,44.94,37.1,53.17,40.19,57.4z"/>
</g>
<g id="hairHighlights_2_">
	
		<radialGradient id="SVGID_4_" cx="104.0016" cy="61.996" r="13.6861" gradientTransform="matrix(1.0016 -0.1091 0.0186 0.6473 -28.9458 33.6162)" gradientUnits="userSpaceOnUse">
		<stop  offset="0.7275" style="stop-color:#444140;stop-opacity:0"/>
		<stop  offset="1" style="stop-color:#444140"/>
	</radialGradient>
	<path style="fill:url(#SVGID_4_);" d="M69.16,72.57l-5.42-7.11l17.22-0.44l1.15,2.87c0,0-1.27,1.31-1.95,1.87
		c-1.13,0.93-3.16,2.34-8.14,2.67L69.16,72.57z"/>
	
		<radialGradient id="SVGID_5_" cx="94.2058" cy="62.6528" r="3.9688" gradientTransform="matrix(-0.9057 0.5612 -0.3144 -0.8897 190.7061 64.9758)" gradientUnits="userSpaceOnUse">
		<stop  offset="0.3031" style="stop-color:#444140"/>
		<stop  offset="1" style="stop-color:#444140;stop-opacity:0"/>
	</radialGradient>
	<path style="fill:url(#SVGID_5_);" d="M81.56,65.06c-3.72-6.64,5.82-7.18,5.87-7.34c-0.28,0.31-0.46,0.59-0.71,0.85
		c-1.43,1.45-2.11,2.61-2.07,3.21c0.11,1.79,1.26,2.29,2.29,2.41c0.54,0.07,0.94,0.18,0.94,0.18S84.19,68.44,81.56,65.06z"/>
	
		<radialGradient id="SVGID_6_" cx="100.2127" cy="70.2697" r="13.7624" gradientTransform="matrix(-0.0746 -1.3204 0.8311 -0.0824 28.7527 190.133)" gradientUnits="userSpaceOnUse">
		<stop  offset="0.7247" style="stop-color:#444140;stop-opacity:0"/>
		<stop  offset="1" style="stop-color:#444140"/>
	</radialGradient>
	<path style="fill:url(#SVGID_6_);" d="M87.6,57.4c-0.35,0.48-10.5-4.6-12.2-10.81c-0.35-1.25-0.66-2.54-0.7-3.88
		c-0.03-1,0.09-2.19,0.52-3.04c0.53-1.04,11.85-0.67,11.85-0.67C92.25,44.94,90.69,53.17,87.6,57.4z"/>
</g>
<linearGradient id="shirt_1_" gradientUnits="userSpaceOnUse" x1="65.9067" y1="54.4351" x2="65.9067" y2="15.7025" gradientTransform="matrix(1 0 0 -1 0 128)">
	<stop  offset="1.300000e-03" style="stop-color:#FF7507"/>
	<stop  offset="0.3875" style="stop-color:#FD6806"/>
	<stop  offset="1" style="stop-color:#F94B04"/>
</linearGradient>
<path id="shirt" style="fill:url(#shirt_1_);" d="M114.41,89.14c-0.06,0.14-0.13,0.3-0.21,0.47c-1.84,4.26-6.73,16.14-8.98,19.6
	c-1.69,2.59-4.5,3.59-7.24,3.59s-5.39-1.01-6.75-2.43c-2.88-3.01-4.73-5.32-4.73-5.32v18.45H40.93l0.06-11.82l0.06-10.38
	c0,0-4.03,1.09-8.69,2.21c-0.62,0.15-1.24,0.22-1.87,0.22c-4.42,0-8.92-3.53-10.13-8.59c-2.04-8.54-3.02-18.39-3.02-18.39
	c0-0.12,0-0.23,0.01-0.34c0-0.31,0.03-0.56,0.06-0.78c0.05-0.32,0.13-0.55,0.23-0.73c0.33-0.59,0.91-0.53,1.6-0.74l4.83-1.12
	c0.46-0.14,0.93-0.37,1.39-0.37c0.45,0,0.9,0.22,1.32,0.96c0.12,0.21,0.24,0.46,0.35,0.76c0.02,0.04,0.03,0.08,0.05,0.12l0.22,0.68
	l3.92,12.35L37.64,82c2.16-1.62,4.22-3.77,8.24-5.48c0.02-0.01,0.05-0.02,0.08-0.03c0.09-0.03,0.18-0.07,0.27-0.11
	c0.37-0.15,0.77-0.3,1.18-0.44c0.19-0.06,0.38-0.13,0.58-0.19c1.14-0.37,2.41-0.7,3.85-0.98c1.82-0.36,3.91-0.63,6.32-0.8
	c0.16-0.01,0.33-0.02,0.49-0.03s0.32-0.02,0.49-0.02c1.38-0.08,2.85-0.12,4.44-0.12h0.26c1.43,0,2.78,0.04,4.06,0.1
	c0.17,0.01,0.34,0.02,0.5,0.03c0.18,0.01,0.35,0.02,0.52,0.04c2.43,0.17,4.58,0.46,6.5,0.87c0.03,0.01,0.05,0.01,0.08,0.02
	l1.13,0.26c0.39,0.09,0.77,0.19,1.14,0.3c1.25,0.36,2.39,0.78,3.42,1.24c0.07,0.03,0.14,0.06,0.2,0.09
	c0.03,0.01,0.05,0.03,0.08,0.04c4.99,2.31,7.7,5.8,10.04,9.81c3.22,5.51,5.03,9.01,5.03,9.01l5.74-8.66l0.35-0.53
	c0.05-0.05,0.12-0.1,0.21-0.15c0.18-0.1,0.42-0.19,0.71-0.28c0.97-0.28,2.41-0.47,3.31-0.47c0.26,0,0.48,0.02,0.62,0.05l5.38,1.5
	c0.43,0.11,0.95,0.48,1.28,0.92c0.16,0.22,0.27,0.45,0.31,0.67C114.49,88.83,114.48,88.99,114.41,89.14z"/>
<path id="neck" style="fill:#3C2B24;" d="M58.36,69.88v5.91c0,0.07,0,0.14,0.01,0.21c0.02,0.61,0.16,1.2,0.4,1.73
	c0.12,0.27,0.27,0.53,0.44,0.78c0.32,0.47,0.73,0.89,1.2,1.21c0.25,0.18,0.51,0.34,0.79,0.46c0.02,0.01,0.04,0.02,0.07,0.03
	c0.38,0.18,0.8,0.3,1.23,0.36c0.24,0.04,0.5,0.06,0.75,0.06h0.98c0.28,0,0.56-0.02,0.83-0.07c0.44-0.07,0.85-0.2,1.24-0.39
	c0.01-0.01,0.01-0.01,0.01-0.01h0.01c0.27-0.12,0.52-0.27,0.76-0.45c0.46-0.32,0.87-0.73,1.19-1.19c0.17-0.25,0.31-0.5,0.44-0.78
	c0.23-0.54,0.38-1.13,0.4-1.75c0.01-0.06,0.01-0.13,0.01-0.2v-5.91C69.12,69.88,58.36,69.88,58.36,69.88z"/>
<g id="tie">
	<path style="fill:#212121;" d="M65.04,77.76c1.21-0.83,2.35-1.43,3.5-2.17c0.93-0.59,2.5-1.69,3.97-1.13
		c1.25,0.48,0.8,2.18,0.8,4.41c0,2.62,0.44,4.14-0.55,4.58c-1.33,0.59-3.09-0.45-4.55-1.09C67.38,82,65,80.91,64.6,80.28
		C64.19,79.65,64.21,78.17,65.04,77.76L65.04,77.76z"/>
	
		<ellipse transform="matrix(0.9793 -0.2024 0.2024 0.9793 -14.4056 15.4213)" style="fill:#616161;" cx="68.2" cy="78.15" rx="3.07" ry="0.34"/>
	
		<ellipse transform="matrix(0.1425 -0.9898 0.9898 0.1425 -20.9055 136.2806)" style="fill:#616161;" cx="68.2" cy="80.21" rx="0.34" ry="3.06"/>
	<path style="fill:#212121;" d="M62.12,77.76c-1.21-0.83-2.35-1.43-3.5-2.17c-0.93-0.59-2.5-1.69-3.97-1.13
		c-1.25,0.48-0.8,2.18-0.8,4.41c0,2.62-0.44,4.14,0.55,4.58c1.33,0.59,3.09-0.45,4.55-1.09c0.83-0.36,3.22-1.45,3.62-2.08
		S62.95,78.17,62.12,77.76L62.12,77.76z"/>
	
		<ellipse transform="matrix(0.2024 -0.9793 0.9793 0.2024 -29.5126 120.08)" style="fill:#616161;" cx="58.96" cy="78.16" rx="0.34" ry="3.07"/>
	
		<ellipse transform="matrix(0.9898 -0.1425 0.1425 0.9898 -10.8282 9.2207)" style="fill:#616161;" cx="58.96" cy="80.21" rx="3.06" ry="0.34"/>
	<path style="fill:#212121;" d="M66.24,79.34c0,1.52-1.19,2.39-2.66,2.39s-2.66-0.87-2.66-2.39s0.67-2.74,2.66-2.74
		C65.5,76.6,66.24,77.83,66.24,79.34z"/>
</g>
<g id="glove_1_">
	<path style="fill:#DBDBDB;" d="M21.52,76.4c-3.09,0-6.14-1.3-8.36-3.57c-1.84-1.88-2.88-4.44-3.08-7.61c-0.06-1-0.13-4.37,1.6-5.47
		c0.36-0.23,0.74-0.34,1.13-0.34c0.49,0,0.91,0.18,1.24,0.41c0.46-0.97,1.27-1.92,2.53-1.92c0.09,0,0.19,0,0.29,0.02
		c0.63,0.07,1.1,0.29,1.42,0.51c0.34-0.25,0.82-0.48,1.41-0.48h0.13c1.01,0.06,1.53,0.53,1.79,0.92c0.26,0.38,0.35,0.82,0.36,1.22
		c0.26-0.14,0.59-0.25,0.98-0.25c0.33,0,0.66,0.08,0.99,0.24c1.54,0.75,1.28,2.13,1.1,3.04c-0.04,0.23-0.09,0.47-0.11,0.7
		c-0.15,1.64,0.61,2.95,0.78,3.21c0.17,0.17,0.34,0.33,0.5,0.49c1.41,1.36,2.62,2.53,1.79,5.36C27.4,74.98,24.78,76.4,21.52,76.4z"
		/>
	<g>
		<path style="fill:#999898;" d="M21.75,60.43c-0.01,1.31-0.27,2.47-0.3,3.66c-0.03,1.17,0.16,2.34,0.74,3.29l0,0.01
			c0.13,0.21,0.06,0.49-0.15,0.62c-0.2,0.12-0.46,0.07-0.59-0.11c-0.86-1.12-1.05-2.56-0.97-3.85c0.03-0.65,0.15-1.3,0.36-1.91
			C21.03,61.52,21.31,60.93,21.75,60.43z"/>
	</g>
	<g>
		<path style="fill:#999898;" d="M18.26,58.83c-0.21,0.81-0.39,1.56-0.52,2.32c-0.11,0.76-0.17,1.52-0.16,2.29
			c0.04,1.53,0.42,3.04,1.04,4.45c0.1,0.23,0,0.5-0.23,0.6c-0.22,0.1-0.47,0.01-0.58-0.2c-0.8-1.47-1.21-3.16-1.21-4.84
			c-0.01-0.84,0.1-1.69,0.37-2.49C17.23,60.16,17.65,59.4,18.26,58.83z"/>
	</g>
	<g>
		<path style="fill:#999898;" d="M14.59,59.48c-0.24,1.6-0.48,3.05-0.43,4.56c0.06,1.49,0.42,2.97,1.19,4.21l0,0.01
			c0.13,0.21,0.06,0.49-0.15,0.62c-0.2,0.12-0.46,0.07-0.6-0.12c-1.01-1.37-1.4-3.07-1.42-4.7c-0.01-0.82,0.08-1.64,0.31-2.42
			C13.7,60.85,14.05,60.09,14.59,59.48z"/>
	</g>
</g>
<g id="glove">
	<path style="fill:#DBDBDB;" d="M109.37,89.87c-3.27,0-5.88-1.42-6.51-3.54c-0.83-2.83,0.38-4,1.79-5.36
		c0.16-0.16,0.33-0.32,0.5-0.49c0.16-0.25,0.92-1.57,0.78-3.2c-0.02-0.23-0.07-0.47-0.11-0.7c-0.18-0.92-0.44-2.3,1.1-3.04
		c0.33-0.16,0.66-0.24,0.99-0.24c0.39,0,0.72,0.11,0.98,0.25c0.01-0.4,0.1-0.83,0.36-1.22c0.26-0.38,0.77-0.85,1.79-0.92h0.13
		c0.59,0,1.07,0.23,1.41,0.48c0.33-0.23,0.79-0.44,1.42-0.51c0.1-0.01,0.2-0.02,0.29-0.02c1.26,0,2.07,0.95,2.53,1.92
		c0.34-0.23,0.76-0.41,1.24-0.41c0.39,0,0.77,0.12,1.13,0.34c1.73,1.1,1.67,4.46,1.6,5.47c-0.2,3.17-1.23,5.73-3.08,7.61
		C115.51,88.57,112.46,89.87,109.37,89.87z"/>
	<g>
		<path style="fill:#999898;" d="M109.14,73.9c0.44,0.5,0.72,1.09,0.92,1.7c0.21,0.61,0.32,1.26,0.36,1.91
			c0.08,1.29-0.12,2.72-0.97,3.85c-0.15,0.2-0.44,0.24-0.64,0.08c-0.18-0.14-0.23-0.4-0.11-0.59l0.01-0.01
			c0.57-0.95,0.77-2.11,0.74-3.29C109.41,76.37,109.15,75.21,109.14,73.9z"/>
	</g>
	<g>
		<path style="fill:#999898;" d="M112.63,72.29c0.61,0.57,1.03,1.33,1.29,2.13c0.27,0.8,0.38,1.65,0.37,2.49
			c0,1.68-0.41,3.37-1.21,4.84c-0.12,0.22-0.39,0.3-0.61,0.18c-0.21-0.11-0.29-0.37-0.2-0.58c0.62-1.41,1-2.92,1.04-4.45
			c0.01-0.76-0.04-1.53-0.16-2.29C113.02,73.85,112.84,73.1,112.63,72.29z"/>
	</g>
	<g>
		<path style="fill:#999898;" d="M116.3,72.95c0.54,0.61,0.89,1.37,1.11,2.15c0.23,0.78,0.32,1.61,0.31,2.43
			c-0.02,1.63-0.41,3.33-1.42,4.7c-0.15,0.2-0.43,0.24-0.63,0.09c-0.19-0.14-0.24-0.4-0.12-0.6l0-0.01
			c0.76-1.24,1.13-2.71,1.19-4.21C116.79,76,116.54,74.54,116.3,72.95z"/>
	</g>
</g>
<path id="ears" style="fill:#3C2B24;" d="M46.92,57.55c-3.41,0-6.19-2.98-6.19-6.63s2.78-6.63,6.19-6.63h34.17
	c3.41,0,6.19,2.98,6.19,6.63s-2.78,6.63-6.19,6.63H46.92z"/>
<path id="head" style="fill:#70534A;" d="M84.73,46.47c0-0.23-0.01-0.46-0.02-0.69c-0.01-0.22-0.02-0.44-0.04-0.66
	c-0.06-1.08-0.17-2.13-0.32-3.15c0-0.05-0.01-0.09-0.02-0.14c-0.1-0.71-0.23-1.41-0.37-2.09c0-0.01-0.01-0.03-0.01-0.04
	c-0.18-0.85-0.38-1.68-0.62-2.48c-0.53-1.87-1.22-3.62-2.02-5.24c-0.51-1.05-1.08-2.05-1.71-2.98c0.01-0.01,0-0.02-0.02-0.03
	c-3.9-5.96-9.62-9.48-15.58-9.48c-5.97,0-11.7,3.54-15.62,9.53c-0.01,0.01-0.01,0.01-0.01,0.02c-0.63,0.96-1.21,1.97-1.73,3.05
	c-0.78,1.58-1.44,3.29-1.96,5.11c-0.24,0.79-0.44,1.61-0.61,2.44c-0.01,0.01-0.01,0.03-0.01,0.04c-0.15,0.7-0.28,1.42-0.39,2.15
	c-0.01,0.04-0.01,0.07-0.01,0.11c-0.16,1.04-0.27,2.1-0.33,3.19c-0.02,0.21-0.03,0.43-0.04,0.65c-0.01,0.23-0.02,0.46-0.02,0.7
	c-0.01,0.37-0.02,0.74-0.02,1.11c0,3.19,0.38,6.07,1.09,8.63c0.05,0.23,0.11,0.44,0.18,0.66c0.06,0.22,0.13,0.43,0.2,0.64
	c2.42,7.44,7.57,12.04,13.44,13.85c0.16,0.05,0.32,0.09,0.49,0.13c0.11,0.04,0.23,0.07,0.34,0.1c0.01,0,0.01,0.01,0.02,0
	c0.05,0.02,0.09,0.03,0.13,0.04c1.59,0.4,3.22,0.6,4.86,0.6c1.31,0,2.62-0.13,3.9-0.38c0.17-0.04,0.33-0.07,0.5-0.11
	s0.35-0.08,0.52-0.13c0.04,0,0.08-0.01,0.12-0.03c6.2-1.61,11.71-6.29,14.24-14.07c0.07-0.21,0.14-0.42,0.2-0.64
	c0.07-0.21,0.13-0.43,0.18-0.65c0.7-2.56,1.09-5.45,1.09-8.64C84.75,47.21,84.74,46.84,84.73,46.47z"/>
<g id="eyebrows">
	<path style="fill:#1A1717;" d="M57.86,44.42c-0.57-0.75-1.88-1.85-4.43-1.85s-3.86,1.1-4.43,1.85c-0.25,0.33-0.19,0.72-0.01,0.95
		c0.16,0.22,0.64,0.42,1.16,0.24c0.53-0.18,1.56-0.71,3.28-0.73c1.72,0.01,2.75,0.55,3.28,0.73s1-0.02,1.16-0.24
		C58.05,45.14,58.11,44.75,57.86,44.42z"/>
	<path style="fill:#1A1717;" d="M78.55,44.42c-0.57-0.75-1.88-1.85-4.43-1.85s-3.86,1.1-4.43,1.85c-0.25,0.33-0.19,0.72-0.01,0.95
		c0.16,0.22,0.64,0.42,1.16,0.24c0.53-0.18,1.56-0.71,3.28-0.73c1.72,0.01,2.75,0.55,3.28,0.73s1-0.02,1.16-0.24
		C78.74,45.14,78.8,44.75,78.55,44.42z"/>
</g>
<g id="eyes">
	<ellipse style="fill:#1A1717;" cx="53.82" cy="49.04" rx="3.05" ry="3.16"/>
	<ellipse style="fill:#1A1717;" cx="74.18" cy="49.04" rx="3.05" ry="3.16"/>
</g>
<path id="nose" style="fill:#33251F;" d="M66.39,54.77c-0.07-0.03-0.13-0.04-0.2-0.05h-4.38c-0.07,0.01-0.13,0.02-0.2,0.05
	c-0.4,0.16-0.62,0.57-0.43,1.01s1.06,1.67,2.82,1.67c1.76,0,2.63-1.23,2.82-1.67S66.79,54.93,66.39,54.77z"/>
<path id="mouth" style="fill:#1A1717;" d="M69.21,59.77c-1.97,1.17-8.44,1.17-10.41,0c-1.13-0.67-2.29,0.36-1.82,1.39
	c0.46,1.01,3.99,3.36,7.04,3.36s6.53-2.35,6.99-3.36C71.49,60.13,70.35,59.1,69.21,59.77z"/>
<path id="hair_1_" style="fill:#232020;" d="M89.75,34.61c-2.11-4.83-51.21,2.51-51.4,3.24c-0.33,1.19-0.36,2.59,0.16,4.15
	c0.03,0.08,0.08,0.17,0.09,0.25c0.42,3.63,4.07,3.3,4.07,3.3c-0.38,6.57,1.69,9.75,1.69,9.75s2.57-11.28,2.33-13
	c0,0,1.96-0.39,4.79-1.48c1.57-0.61,28.23-3.2,28.94-2.21c0.71,1,1.33,2.36,1.73,4.21c0.72,3.29,1.02,8.79,1.41,12.13
	c-0.03-0.29,2.23-4.12,2.61-7.79c0.07-0.71,2.34-0.45,3.24-2.7c0.12-0.25,0.23-0.5,0.33-0.73c0.52-1.16,0.86-2.08,1.06-2.87
	C91.5,38.13,89.75,34.61,89.75,34.61z"/>
<g id="bal_2_">
	
		<radialGradient id="SVGID_7_" cx="23.095" cy="41.392" r="8.118" gradientTransform="matrix(1 0 0 1 0 2)" gradientUnits="userSpaceOnUse">
		<stop  offset="7.900000e-03" style="stop-color:#FF3D00"/>
		<stop  offset="0.9993" style="stop-color:#DD2C00"/>
	</radialGradient>
	<circle style="fill:url(#SVGID_7_);" cx="24.61" cy="45.74" r="8.12"/>
	<circle style="fill:#FFFFFF;" cx="22.19" cy="43.16" r="2.43"/>
</g>
<g id="bal_1_">
	
		<radialGradient id="SVGID_8_" cx="103.84" cy="50.966" r="8.118" gradientTransform="matrix(1 0 0 1 0 2)" gradientUnits="userSpaceOnUse">
		<stop  offset="9.200000e-03" style="stop-color:#00B0FF"/>
		<stop  offset="0.9993" style="stop-color:#0091EA"/>
	</radialGradient>
	<circle style="fill:url(#SVGID_8_);" cx="105.77" cy="55.59" r="8.12"/>
	<circle style="fill:#FFFFFF;" cx="103.35" cy="53.01" r="2.43"/>
</g>
<g id="hat">
	<path style="fill:#212121;" d="M36.17,33.3c0-3.08,12.48-3.79,27.85-3.79s27.83,0.71,27.83,3.79s-12.46,6.26-27.84,6.26
		S36.17,36.39,36.17,33.3z"/>
	<g>
		
			<radialGradient id="SVGID_9_" cx="64.0468" cy="114.1122" r="32.6136" gradientTransform="matrix(-1 0 0 0.6829 128.0937 -64.0396)" gradientUnits="userSpaceOnUse">
			<stop  offset="0" style="stop-color:#787676"/>
			<stop  offset="0.8605" style="stop-color:#3F3F3F"/>
		</radialGradient>
		<path style="fill:url(#SVGID_9_);" d="M84.07,28.49c-0.45-7.39-2.98-11.94-11-15.41c-2.91-1.26-6.23-1.82-9.27-1.87v0
			c-0.01,0-0.02,0-0.03,0c-0.01,0-0.02,0-0.03,0v0c-3.04,0.05-6.36,0.61-9.27,1.87c-8.02,3.47-10.55,8.02-11,15.41l-0.7,11.65h20.97
			h0.05h20.97L84.07,28.49z"/>
		<path style="fill:#595858;" d="M90.84,31.21c-1.49-0.7-5.51-1.01-6.82-0.92c0,0,6.19,1.5,5.89,2.57
			c-0.45,1.6-6.31,4.15-26.14,4.21c-19.83-0.07-25.69-2.62-26.14-4.21c-0.3-1.07,5.89-2.57,5.89-2.57c-1.31-0.1-5.32,0.22-6.82,0.92
			c-1.27,0.59-2.12,0.99-2.12,2.6c0,4.26,5.59,5.68,7.36,6.26c6.03,1.97,21.8,2.49,21.8,2.49c0.01,0,15.81-0.52,21.85-2.49
			c1.77-0.58,7.36-2,7.36-6.26C92.96,32.19,92.11,31.8,90.84,31.21z"/>
	</g>
</g>
<path id="pants" style="fill:#7C7C7C;" d="M86.55,111.68v11.82H40.93v-11.82h4.95V76.52c0.02-0.01,0.05-0.02,0.08-0.03
	c0.09-0.03,0.18-0.07,0.27-0.11c0.37-0.15,0.77-0.3,1.18-0.44c0.19-0.06,0.38-0.13,0.58-0.19c1.14-0.37,2.41-0.7,3.85-0.98v36.91
	h23.58V74.84c0.03,0.01,0.05,0.01,0.08,0.02l1.13,0.26c0.39,0.09,0.77,0.19,1.14,0.3c1.25,0.36,2.39,0.78,3.42,1.24
	c0.07,0.03,0.14,0.06,0.2,0.09v34.93C81.39,111.68,86.55,111.68,86.55,111.68z"/>
<g id="bal">
	
		<radialGradient id="SVGID_10_" cx="76.911" cy="7.3624" r="8.118" gradientTransform="matrix(1 0 0 1 0 2)" gradientUnits="userSpaceOnUse">
		<stop  offset="0.0144" style="stop-color:#00E676"/>
		<stop  offset="1" style="stop-color:#00C853"/>
	</radialGradient>
	<circle style="fill:url(#SVGID_10_);" cx="78.7" cy="12.12" r="8.12"/>
	<circle style="fill:#FFFFFF;" cx="76.28" cy="9.55" r="2.43"/>
</g>
</svg>
