<?xml version="1.0" encoding="utf-8"?>
<!-- Generator: Adobe Illustrator 24.0.3, SVG Export Plug-In . SVG Version: 6.00 Build 0)  -->
<svg version="1.1" id="Layer_1" xmlns="http://www.w3.org/2000/svg" xmlns:xlink="http://www.w3.org/1999/xlink" x="0px" y="0px"
	 viewBox="0 0 128 128" style="enable-background:new 0 0 128 128;" xml:space="preserve">
<g id="hairGroup_1_">
	<path id="hair_10_" style="fill:#543930;" d="M53.42,4.88c-37.22,6.89-30.56,41.25-30.46,41.8c4.12,22.29,11.65,53.47,22.87,64.21
		c4.44,4.26,11.33,3.26,11.33,3.26l15.4-2.87l15.41-2.83c0,0,6.79-1.54,9.42-7.1c6.63-14.04,2.51-45.85-1.62-68.14
		C95.68,32.66,90.65-2.01,53.42,4.88z"/>
	
		<radialGradient id="hairHighlights_2_" cx="65.0712" cy="101.9394" r="43.8769" gradientTransform="matrix(0.9833 -0.1819 -0.2165 -1.1703 20.3229 186.5522)" gradientUnits="userSpaceOnUse">
		<stop  offset="0.7936" style="stop-color:#6D4C41;stop-opacity:0"/>
		<stop  offset="1" style="stop-color:#6D4C41"/>
	</radialGradient>
	<path id="hairHighlights_1_" style="fill:url(#hairHighlights_2_);" d="M53.42,4.88c-37.22,6.89-30.56,41.25-30.46,41.8
		c4.12,22.29,11.65,53.47,22.87,64.21c4.44,4.26,11.33,3.26,11.33,3.26l15.4-2.87l15.41-2.83c0,0,6.79-1.54,9.42-7.1
		c6.63-14.04,2.51-45.85-1.62-68.14C95.68,32.66,90.65-2.01,53.42,4.88z"/>
</g>
<linearGradient id="hand_2_" gradientUnits="userSpaceOnUse" x1="16.3982" y1="59.3723" x2="16.3982" y2="82.2598" gradientTransform="matrix(1 0 0 -1 0 128)">
	<stop  offset="0.5" style="stop-color:#BA8D68"/>
	<stop  offset="1" style="stop-color:#A47B62"/>
</linearGradient>
<path id="hand_1_" style="fill:url(#hand_2_);" d="M26.28,62.35c-2.18-1.62-4.22-3.51-6.08-5.66c-0.95-1.05-2.83-2.78-4.69-2.62
	c-0.38,0.03-0.87,0.16-1.34,0.51c-1.27-1.64-4.2-6.04-5.66-9.92c-0.59-1.23-1.62-1.43-2.33-1.23C4.92,43.8,4.11,45.4,4.3,47.17
	c0.62,5.9,5.24,13.09,6.97,14.78l-0.03,0.02c3.4,4.14,3.72,10.18,3.72,10.24c0.02,0.47,0.37,0.86,0.83,0.94l9.51,1.59
	c0.06,0.01,0.11,0.01,0.17,0.01c0.42,0,0.81-0.27,0.94-0.68c0.63-1.85,2.09-6.25,2.11-7.25C28.58,63.9,26.73,62.62,26.28,62.35z"/>
<linearGradient id="hand_3_" gradientUnits="userSpaceOnUse" x1="111.8223" y1="59.3723" x2="111.8223" y2="82.2598" gradientTransform="matrix(1 0 0 -1 0 128)">
	<stop  offset="0.5" style="stop-color:#BA8D68"/>
	<stop  offset="1" style="stop-color:#A47B62"/>
</linearGradient>
<path id="hand" style="fill:url(#hand_3_);" d="M122.08,43.45c-0.71-0.22-1.77-0.02-2.41,1.31c-1.43,3.8-4.36,8.19-5.63,9.83
	c-0.47-0.35-0.96-0.47-1.34-0.51c-1.86-0.16-3.74,1.57-4.7,2.63c-1.85,2.13-3.89,4.03-6.07,5.64c-0.45,0.27-2.3,1.54-2.24,4.48
	c0.02,1,1.48,5.41,2.11,7.25c0.14,0.41,0.52,0.68,0.94,0.68c0.06,0,0.11,0,0.17-0.01l9.51-1.59c0.51-0.08,0.87-0.54,0.83-1.06
	c0-0.05-0.34-5.39,3.71-10.11l-0.03-0.02c1.73-1.68,6.2-9.03,6.98-14.77C124.15,45.45,123.36,43.83,122.08,43.45z"/>
<g id="shirt">
	
		<linearGradient id="SVGID_1_" gradientUnits="userSpaceOnUse" x1="64.0675" y1="45.9769" x2="64.0675" y2="0.9071" gradientTransform="matrix(1 0 0 -1 0 128)">
		<stop  offset="0" style="stop-color:#651FFF"/>
		<stop  offset="0.7047" style="stop-color:#5914F2"/>
		<stop  offset="1" style="stop-color:#530EEB"/>
	</linearGradient>
	<path style="fill:url(#SVGID_1_);" d="M115.64,70.51c-0.02-0.8-0.65-1.45-1.45-1.51l-12.81-0.75c-0.04,0-0.07,0-0.11,0
		c-0.78,0-1.45,0.59-1.54,1.38L97.05,88.6c-4.18-3.58-9.95-6.21-17.88-6.21c-2.61,0-27.58-0.12-30.2-0.12
		c-7.93,0-13.7,2.63-17.88,6.21l-2.67-18.97c-0.09-0.79-0.76-1.38-1.55-1.38c-0.04,0-0.07,0-0.11,0l-12.81,0.75
		c-0.8,0.06-1.42,0.71-1.45,1.51l-0.11,40.54c-0.14,7.11,5.58,12.94,12.69,12.94c4.92,0,8.86-3.69,9.46-8.31l0.03,0.02l0,8.41h1.5
		h1.5h52.98h1.5h1.5l0-8.29l0.04-0.02c0.6,4.62,4.54,8.31,9.46,8.31c7.11,0,12.83-5.84,12.69-12.94L115.64,70.51z"/>
	<path style="fill:#4A00ED;" d="M99.03,123.12c-0.59-0.26-1.14-0.58-1.65-0.97c-0.71-0.53-1.35-1.16-1.89-1.86
		c-1.02-1.31-1.69-2.89-1.91-4.59l-0.02,0.01l-0.38-10.68C93.18,105.03,93.81,114.18,99.03,123.12z"/>
	<path style="fill:#4A00ED;" d="M34.9,105.03l-0.38,10.59v0.01c-0.43,3.23-2.5,6-5.39,7.36C34.27,114.09,34.9,105.03,34.9,105.03z"
		/>
</g>
<g id="neck">
	<path style="fill:#99674F;" d="M54.92,78.33v9.98c0,4.51,3.62,8.17,9.08,8.17s9.08-3.66,9.08-8.17v-9.98L54.92,78.33z"/>
</g>
<path id="head" style="fill:#BA8D68;" d="M55.53,15.03L55.53,15.03L55.53,15.03c-15.76,2.74-28.32,17-23.99,41.86
	c3.48,19.96,17.89,29.62,29.32,31.55c2.72,0.46,5.28,0.49,7.47,0.11c2.18-0.38,4.56-1.26,6.96-2.6
	c10.11-5.67,20.45-19.64,16.97-39.63C87.93,21.46,71.29,12.29,55.53,15.03z"/>
<path id="mouth" style="fill:#5D4037;" d="M71.05,75.72c0.22,2.78-2.21,3.55-5.27,3.79c-3.06,0.24-5.58-0.21-5.8-2.92
	c-0.22-2.86,2.12-4.82,5.17-5.06C68.21,71.29,70.82,72.81,71.05,75.72z"/>
<path id="nose" style="fill:#99674F;" d="M67.1,62.41c-0.1-0.03-0.2-0.04-0.3-0.04l-6.44,0.78c-0.1,0.02-0.19,0.06-0.28,0.11
	c-0.56,0.31-0.8,0.95-0.45,1.56c0.35,0.61,1.85,2.26,4.44,1.95c2.58-0.31,3.64-2.28,3.84-2.95C68.1,63.14,67.71,62.58,67.1,62.41z"
	/>
<g id="eyes">
	
		<ellipse transform="matrix(0.9929 -0.1193 0.1193 0.9929 -6.3943 6.075)" style="fill:#49362E;" cx="47.55" cy="56.45" rx="4.49" ry="4.65"/>
	
		<ellipse transform="matrix(0.9929 -0.1193 0.1193 0.9929 -5.7549 9.6015)" style="fill:#49362E;" cx="77.32" cy="52.87" rx="4.49" ry="4.65"/>
</g>
<g id="eyebrows">
	<path style="fill:#613E31;" d="M53.17,47.35c-0.98-1.02-3.15-2.42-6.96-1.97c-3.81,0.46-5.58,2.33-6.3,3.56
		c-0.32,0.54-0.15,1.1,0.15,1.42c0.28,0.29,1.03,0.51,1.78,0.15s2.2-1.34,4.78-1.67c2.58-0.29,4.22,0.32,5.03,0.49
		c0.82,0.17,1.5-0.21,1.7-0.56C53.58,48.39,53.61,47.8,53.17,47.35z"/>
	<path style="fill:#613E31;" d="M82.95,43.77c-0.98-1.02-3.15-2.42-6.96-1.97c-3.81,0.46-5.58,2.33-6.29,3.56
		c-0.32,0.54-0.15,1.1,0.15,1.42c0.28,0.29,1.03,0.51,1.79,0.15c0.76-0.36,2.2-1.34,4.78-1.67c2.58-0.29,4.22,0.32,5.03,0.49
		c0.82,0.17,1.5-0.21,1.7-0.56C83.36,44.81,83.38,44.22,82.95,43.77z"/>
</g>
<g id="hairGroup">
	<path id="hair_5_" style="fill:#543930;" d="M53.42,4.88c-37.22,6.89-30.56,41.25-30.46,41.8c1.3,7.04,2.95,14.97,4.94,22.86
		L34,68.4c-0.54-2.64-1.72-19.37,3.58-21.63c19.45-8.32,28.94-21.21,28.94-21.21c4.19,5.97,14.71,10.6,18.51,12.4
		c3.12,1.48,7.16,16.09,7.75,19.58l6.54-1.21c0-0.05,0-0.1,0-0.15c-0.96-8.03-2.26-15.97-3.55-22.97
		C95.68,32.66,90.65-2.01,53.42,4.88z"/>
	
		<radialGradient id="hairHighlights_3_" cx="65.3783" cy="98.2243" r="45.9601" gradientTransform="matrix(0.9833 -0.1819 -0.2208 -1.1932 20.6185 188.1062)" gradientUnits="userSpaceOnUse">
		<stop  offset="0.7945" style="stop-color:#6D4C41;stop-opacity:0"/>
		<stop  offset="1" style="stop-color:#6D4C41"/>
	</radialGradient>
	<path id="hairHighlights" style="fill:url(#hairHighlights_3_);" d="M53.42,4.88c-37.22,6.89-30.56,41.25-30.46,41.8
		c1.3,7.04,2.95,14.97,4.94,22.86L34,68.4c-0.54-2.64-1.72-19.37,3.58-21.63c19.45-8.32,28.94-21.21,28.94-21.21
		c4.19,5.97,14.71,10.6,18.51,12.4c3.12,1.48,7.16,16.09,7.75,19.58l6.54-1.21c0-0.05,0-0.1,0-0.15
		c-0.96-8.03-2.26-15.97-3.55-22.97C95.68,32.66,90.65-2.01,53.42,4.88z"/>
</g>
</svg>
