<svg xmlns="http://www.w3.org/2000/svg" viewBox="0 0 64 64" enable-background="new 0 0 64 64"><path d="m8.3 38.3h47.3c0-25.5-3.6-31-23.7-31-19.9.1-23.6 5.5-23.6 31" fill="#231f20"/><path d="m53.7 32.7c-.2 1-.4 1.9-.6 2.4-.5.9-1.5 1.5-1.5 1.5s.3-1.9.2-4.6c-1.1-15.8-2-11.4-19.7-11.4-17.6 0-18.6-4.3-19.7 11.4-.1 2.7.2 4.6.2 4.6s-1-.5-1.6-1.5c-.3-.5-.5-1.4-.6-2.4-1.7-.4-3.8-.1-3.8 4.7 0 2.9 1.1 5.4 4.8 5.6 1.2 9.3 6.6 14.1 15.7 18.1 2.5 1.1 7.6 1.1 10 0 9.1-4.1 14.5-8.8 15.7-18.1 3.7-.3 4.8-2.7 4.8-5.6-.1-4.7-2.3-5.1-3.9-4.7" fill="#8a6859"/><path d="m40.2 50.9c0 3.4-4.1 5.1-8.2 5.1-4.1 0-8.2-1.7-8.2-5.1 0 0 0-.9.8-.9 3.7 0 11.1 0 14.7 0 .9 0 .9.9.9.9" fill="#574137"/><path d="m21.1 31.5c-4.5 0-6.4 1.7-6.4 3.3 0 1.6 0 4 6 4 5.8 0 6.7-.7 6.7-3.2.1-1.6-1.8-4.1-6.3-4.1" fill="#f5f5f5"/><path d="m25.6 34.3c0 2.3-1.8 4.1-4.1 4.1-2.3 0-4.1-1.8-4.1-4.1 0-2.3 1.8-4.1 4.1-4.1 2.3 0 4.1 1.9 4.1 4.1" fill="#574137"/><path d="m22.9 34.3c0 .8-.6 1.4-1.4 1.4-.8 0-1.4-.6-1.4-1.4 0-.8.6-1.4 1.4-1.4.8.1 1.4.7 1.4 1.4" fill="#231f20"/><path d="m14.7 34.8c0-6.4 12.8-6.4 12.8.9-1.9-5.5-11-5.5-12.8-.9" fill="#574137"/><path d="m42.9 31.5c4.6 0 6.4 1.7 6.4 3.3 0 1.6 0 4-6 4-5.8 0-6.7-.7-6.7-3.2 0-1.6 1.8-4.1 6.3-4.1" fill="#f5f5f5"/><path d="m38.4 34.3c0 2.3 1.8 4.1 4.1 4.1 2.3 0 4.1-1.8 4.1-4.1 0-2.3-1.8-4.1-4.1-4.1-2.3 0-4.1 1.9-4.1 4.1" fill="#574137"/><path d="m41.1 34.3c0 .8.6 1.4 1.4 1.4.8 0 1.4-.6 1.4-1.4 0-.8-.6-1.4-1.4-1.4-.8.1-1.4.7-1.4 1.4" fill="#231f20"/><path d="m49.3 34.8c0-6.4-12.8-6.4-12.8.9 1.9-5.5 11-5.5 12.8-.9" fill="#574137"/><path d="m32 47c-3.3 0-5-3-3.3-3 1.7 0 5 0 6.7 0 1.6 0-.1 3-3.4 3" fill="#705041"/><g fill="#d9a000"><path d="m22 8l-4-4-4 4h2v4h6z"/><path d="m50 8l-4-4-4 4v4h6v-4z"/></g><path d="m54 16h-44c0-13.3 44-13.3 44 0" fill="#9450e0"/><path d="m48 16h-36c0-10.7 36-10.7 36 0" fill="#7e44bf"/><path fill="#d9a000" d="m8 20h48v6h-48z"/><path fill="#ffce31" d="m50 10l2 2v2h-16v-2l2-2-6-8-6 8 2 2v2h-16v-2l2-2-8-6.1 2 20.1h48l2-20.1z"/><path fill="#66caf2" d="m32 22v-3.1h2z"/><g fill="#428bc1"><path d="m32 22l-2-3.1h2z"/><path d="m34 18.9h-2v-2.9z"/></g><g fill="#66caf2"><path d="m32 16v2.9h-2z"/><path d="m14.8 22v-3.1h1.9z"/></g><g fill="#428bc1"><path d="m14.8 22l-2.1-3.1h2.1z"/><path d="m16.7 18.9h-1.9v-2.9z"/></g><g fill="#66caf2"><path d="m14.8 16v2.9h-2.1z"/><path d="m23.4 22v-3.1h2z"/></g><g fill="#428bc1"><path d="m23.4 22l-2-3.1h2z"/><path d="m25.4 18.9h-2v-2.9z"/></g><g fill="#66caf2"><path d="m23.4 16v2.9h-2z"/><path d="m40.7 22v-3.1h2z"/></g><g fill="#428bc1"><path d="m40.7 22l-2-3.1h2z"/><path d="m42.7 18.9h-2v-2.9z"/></g><g fill="#66caf2"><path d="m40.7 16v2.9h-2z"/><path d="m49.3 22v-3.1h2z"/></g><g fill="#428bc1"><path d="m49.3 22l-2-3.1h2z"/><path d="m51.3 18.9h-2v-2.9z"/></g><path fill="#66caf2" d="m49.3 16v2.9h-2z"/><path fill="#428bc1" d="m8 22l-2-3.1h2z"/><g fill="#66caf2"><path d="m8 16v2.9h-2z"/><path d="m56 22v-3.1h2z"/></g><path fill="#428bc1" d="m58 18.9h-2v-2.9z"/></svg>