<?xml version="1.0" encoding="utf-8"?>
<!-- Generator: Adobe Illustrator 24.0.3, SVG Export Plug-In . SVG Version: 6.00 Build 0)  -->
<svg version="1.1" id="Layer_1" xmlns="http://www.w3.org/2000/svg" xmlns:xlink="http://www.w3.org/1999/xlink" x="0px" y="0px"
	 viewBox="0 0 128 128" style="enable-background:new 0 0 128 128;" xml:space="preserve">
<polygon style="fill:#FFB300;" points="41.3,48 4.5,43.7 4.5,44.4 41,50 "/>
<path style="fill:#E69200;" d="M41,50.5C40.9,50.5,40.9,50.5,41,50.5L4.4,44.9c-0.2,0-0.4-0.2-0.4-0.5v-0.7c0-0.1,0.1-0.3,0.2-0.4
	c0.1-0.1,0.2-0.1,0.4-0.1l36.8,4.2c0.1,0,0.3,0.1,0.3,0.2s0.1,0.2,0.1,0.4l-0.3,2C41.4,50.3,41.2,50.5,41,50.5z M12.3,45.1l28.3,4.3
	l0.2-1C40.7,48.4,12.3,45.1,12.3,45.1z"/>
<path style="fill:#FFB300;" d="M35.7,48c-0.4,3.2,0.1,5.9,1.2,6.1s2.4-2.3,2.8-5.5c0.4-3.2-0.1-5.9-1.2-6.1
	C37.4,42.3,36.2,44.8,35.7,48z"/>
<path style="fill:#E69200;" d="M37.1,54.6c-0.1,0-0.1,0-0.2,0c-0.5-0.1-1.3-0.5-1.6-2.3c-0.2-1.2-0.3-2.8,0-4.3
	c0.4-3.1,1.7-6.2,3.4-6s2.1,3.5,1.7,6.6c-0.2,1.6-0.6,3.1-1.2,4.2C38.4,54.2,37.6,54.6,37.1,54.6z M36.2,48.1c-0.2,1.5-0.2,2.9,0,4
	c0.2,1,0.5,1.5,0.8,1.5c0.2,0,0.7-0.3,1.1-1.2c0.5-1,0.9-2.4,1.1-3.9C39.7,45,39,43,38.5,43l0,0C37.9,43,36.7,44.7,36.2,48.1z"/>
<linearGradient id="SVGID_1_" gradientUnits="userSpaceOnUse" x1="93.8171" y1="781.9841" x2="98.6631" y2="829.7321" gradientTransform="matrix(1 0 0 1 0 -713.8898)">
	<stop  offset="0" style="stop-color:#ECEFF1"/>
	<stop  offset="1" style="stop-color:#B0BEC5"/>
</linearGradient>
<polygon style="fill:url(#SVGID_1_);" points="96.7,119.6 102.8,119.6 101.9,95.8 91.5,97.2 "/>
<linearGradient id="SVGID_2_" gradientUnits="userSpaceOnUse" x1="75.1962" y1="790.3672" x2="57.6492" y2="830.7972" gradientTransform="matrix(1 0 0 1 0 -713.8898)">
	<stop  offset="0" style="stop-color:#ECEFF1"/>
	<stop  offset="1" style="stop-color:#B0BEC5"/>
</linearGradient>
<polygon style="fill:url(#SVGID_2_);" points="67.2,121.3 60.9,121.3 55.7,95 66.8,94.8 "/>
<linearGradient id="SVGID_3_" gradientUnits="userSpaceOnUse" x1="72.7622" y1="756.8748" x2="63.6282" y2="772.9218" gradientTransform="matrix(1 0 0 1 0 -713.8898)">
	<stop  offset="0" style="stop-color:#ECEFF1"/>
	<stop  offset="1" style="stop-color:#B0BEC5"/>
</linearGradient>
<polygon style="fill:url(#SVGID_3_);" points="59.3,57.5 65.2,61.7 77.1,44.5 69.8,39.5 "/>
<linearGradient id="SVGID_4_" gradientUnits="userSpaceOnUse" x1="50.6093" y1="766.1914" x2="66.0703" y2="777.7174" gradientTransform="matrix(1 0 0 1 0 -713.8898)">
	<stop  offset="0" style="stop-color:#ECEFF1"/>
	<stop  offset="1" style="stop-color:#B0BEC5"/>
</linearGradient>
<path style="fill:url(#SVGID_4_);" d="M64.3,57.1L64.3,57.1L64.3,57.1c-0.4-0.4-0.8-0.6-1.3-0.8l-15.9-9l-3.4,5.3l15.8,10
	c0.3,0.2,0.6,0.4,0.9,0.6h0.1l0,0c0.4,0.2,0.8,0.3,1.2,0.3c2,0.1,3.8-1.5,3.9-3.5C65.6,58.8,65.1,57.8,64.3,57.1z"/>
<path style="fill:#90A4AE;" d="M61.9,64.5c-0.1,0-0.2,0-0.2,0c-0.5,0-0.9-0.1-1.4-0.3c-0.1,0-0.2-0.1-0.3-0.1
	c-0.3-0.1-0.7-0.4-1-0.6l-15.7-10c-0.2-0.1-0.4-0.4-0.4-0.6s0-0.5,0.1-0.8l3.4-5.3c0.3-0.4,0.9-0.6,1.3-0.3l12.7,7.2L68.9,39
	c0.1-0.2,0.4-0.4,0.6-0.5s0.6,0,0.8,0.2l7.4,5c0.2,0.2,0.4,0.4,0.4,0.7c0.1,0.3,0,0.5-0.2,0.8L66,62.2c-0.1,0.1-0.2,0.3-0.4,0.3
	C64.7,63.8,63.4,64.5,61.9,64.5z M60.8,62.2C60.8,62.2,60.8,62.3,60.8,62.2c0.4,0.2,0.7,0.2,1,0.2c1,0.1,2-0.5,2.5-1.4
	c0.1-0.2,0.3-0.3,0.5-0.4l11.1-15.9l-5.7-3.8l-8.5,14.6c-0.3,0.5-0.9,0.6-1.4,0.4l-12.8-7.2l-2.3,3.7L60,61.8c0,0,0.1,0,0.1,0.1
	C60.3,62,60.5,62.1,60.8,62.2L60.8,62.2z"/>
<linearGradient id="SVGID_5_" gradientUnits="userSpaceOnUse" x1="187.9011" y1="675.5913" x2="204.6921" y2="680.9613" gradientTransform="matrix(0.9595 0.2818 -0.2818 0.9595 106.461 -659.8873)">
	<stop  offset="0" style="stop-color:#ECEFF1"/>
	<stop  offset="1" style="stop-color:#B0BEC5"/>
</linearGradient>
<polygon style="fill:url(#SVGID_5_);" points="110.4,55.9 114.1,49.2 98.6,37.2 94.9,45.9 "/>
<linearGradient id="SVGID_6_" gradientUnits="userSpaceOnUse" x1="116.8637" y1="746.1719" x2="111.5437" y2="767.1799" gradientTransform="matrix(1 0 0 1 0 -713.8898)">
	<stop  offset="0" style="stop-color:#B0BEC5"/>
	<stop  offset="0.5212" style="stop-color:#CFD8DC"/>
	<stop  offset="1" style="stop-color:#B0BEC5"/>
</linearGradient>
<path style="fill:url(#SVGID_6_);" d="M115.5,52.5l4.3-19.2l-6.2-0.7l-5.1,18.1c-0.1,0.2-0.2,0.5-0.3,0.7c-0.1,0.3-0.2,0.7-0.2,1
	l0,0l0,0c0,1.6,0.9,3.1,2.5,3.6c1.8,0.6,3.6-0.3,4.4-1.9l0,0V54c0.1-0.1,0.1-0.2,0.2-0.4C115.5,53.2,115.5,52.8,115.5,52.5z"/>
<path style="fill:#90A4AE;" d="M111.8,57.1c-0.5,0-0.9-0.1-1.4-0.2l0,0c-0.2,0-0.3,0-0.5-0.1l-0.4-0.2c-0.1,0-0.2-0.1-0.3-0.2
	l-14.9-9.6c-0.4-0.3-0.6-0.8-0.4-1.2l3.7-8.7c0.1-0.3,0.4-0.5,0.7-0.6s0.6,0,0.9,0.2l10.2,8l3.6-12.9c0.1-0.5,0.6-0.8,1.1-0.7
	l6.1,0.7c0.3,0,0.5,0.2,0.7,0.4c0.2,0.2,0.2,0.5,0.2,0.8l-4.5,19.9c0,0.5-0.1,0.9-0.2,1.3c-0.1,0.1-0.1,0.3-0.2,0.4
	c0,0.2-0.1,0.3-0.2,0.4C115.1,56.2,113.5,57.1,111.8,57.1z M110.7,54.8c0.1,0,0.1,0,0.2,0s0.1,0,0.2,0.1c1.2,0.4,2.6-0.2,3.2-1.4
	l0,0l0.1-0.2c0,0,0.1-0.1,0.1-0.2c0.1-0.2,0.1-0.5,0.1-0.8c0-0.1,0-0.1,0-0.2l4.3-18.9l-4.2-0.5L111,46.2c-0.1,0.3-0.3,0.6-0.7,0.7
	c-0.3,0.1-0.7,0-0.9-0.2l-10.4-8l-2.9,6.8l14.2,9.1c0.1,0.1,0.2,0.1,0.3,0.2H110.7z"/>
<linearGradient id="SVGID_7_" gradientUnits="userSpaceOnUse" x1="86.0709" y1="725.8478" x2="86.0709" y2="748.1238" gradientTransform="matrix(1 0 0 1 0 -713.8898)">
	<stop  offset="0.5453" style="stop-color:#FFCA28"/>
	<stop  offset="0.834" style="stop-color:#FFB300"/>
	<stop  offset="0.9947" style="stop-color:#E59600"/>
</linearGradient>
<path style="fill:url(#SVGID_7_);" d="M97.6,13.1c-1.7-4.3-6.9-7-11.5-7c-6.4,0-11.8,3.9-11.8,10.7l0.3,3c0.3,2.3-0.3,3.1-0.7,4.6
	c-0.4,1.2-0.3,3.4,1,5.1c1.1,1.4,3.8,3.3,5.3,3.3c2.1,0,2.8,0.3,3.1,1.9l0.5,4.2h7.4l0.4-6.1c0.2-2.4,1.5-4.5,3.6-5.8
	C98,25.4,99.5,18,97.6,13.1L97.6,13.1z"/>
<linearGradient id="SVGID_8_" gradientUnits="userSpaceOnUse" x1="73.5925" y1="736.3898" x2="98.4138" y2="736.3898" gradientTransform="matrix(1 0 0 1 0 -713.8898)">
	<stop  offset="0" style="stop-color:#EDA600"/>
	<stop  offset="0.8708" style="stop-color:#D18900"/>
</linearGradient>
<path style="fill:url(#SVGID_8_);" d="M86.1,7.1c4.5,0,9.1,2.7,10.5,6.4c1.8,4.6,0.4,11.4-2,12.8c-2.3,1.4-3.8,3.9-4.1,6.5L90.2,38
	h-5.6l-0.4-3.3v-0.1c-0.5-2.5-2.2-2.7-4.1-2.7c-1,0-3.5-1.6-4.5-2.9c-1.1-1.4-1.2-3.2-0.9-4.2c0.1-0.3,0.2-0.6,0.3-0.9
	c0.4-1.1,0.8-2.1,0.5-4.2l-0.3-2.9C75.2,10.2,80.8,7.1,86.1,7.1L86.1,7.1 M86.1,6.1L86.1,6.1c-6.4,0-11.9,3.9-11.9,10.7l0.3,3
	c0.3,2.3-0.3,3.1-0.7,4.6c-0.4,1.2-0.3,3.4,1,5.1c1.1,1.4,3.8,3.3,5.3,3.3c2.1,0,2.8,0.3,3.1,1.9l0.5,4.2h7.4l0.4-6.1
	c0.2-2.4,1.5-4.5,3.6-5.8c2.9-1.8,4.4-9.2,2.4-14.1C95.9,8.9,90.7,6.1,86.1,6.1L86.1,6.1z"/>
<radialGradient id="SVGID_9_" cx="83.7" cy="725.3798" r="12.764" gradientTransform="matrix(1 0 0 1 0 -713.8898)" gradientUnits="userSpaceOnUse">
	<stop  offset="0" style="stop-color:#6D4C41"/>
	<stop  offset="1" style="stop-color:#543930"/>
</radialGradient>
<path style="fill:url(#SVGID_9_);" d="M85.7,22.6c0.1,0.7,0.1,2,1.6,2.8l2.3-4.4c0,0,0,0,0.1,0.1c1.5,1,1.9,2.9,1.1,4.5l-0.4,0.7
	c-0.6,1.7,0.1,4.7,1.8,5h0.2c1.2-3.3,5-2.9,6.7-11.5c1.3-6.4-1.6-12-9.8-13.7C81.5,4.5,74.5,7.8,74,15.5l6.6,2.5
	c1.4,0.3,2.7,1.1,3.6,2.2C85,20.9,85.6,21.8,85.7,22.6z"/>
<ellipse style="fill:#404040;" cx="81.6" cy="24.2" rx="1.3" ry="2"/>
<path style="fill:#402821;" d="M98.2,11.6c-0.8-1.5-2.1-2.7-3.8-3.7c-1.4-0.8-3-1.5-5-1.9c-0.3-0.1-0.6-0.1-0.9-0.1
	c-1-0.2-2-0.2-2.9-0.2c-0.4,0-0.8,0-1.1,0c-0.4,0-0.8,0.1-1.1,0.1C82.7,5.9,82,6,81.3,6.3c-0.3,0.1-0.7,0.2-1,0.3S79.7,6.9,79.4,7
	l0,0c-0.3,0.2-0.6,0.3-0.9,0.5S78,7.9,77.7,8.1c-0.8,0.6-1.4,1.3-2,2.2c-0.2,0.3-0.3,0.6-0.5,0.9c-0.2,0.5-0.4,0.9-0.6,1.5
	c-0.3,0.8-0.5,1.8-0.5,2.8l0,0l0.4,0.2l1.3,0.5l0.4-1.9l0.1-0.3c1-4,4.3-6.2,9.3-6.2c1.1,0,2.2,0.1,3.4,0.4
	c6.5,1.3,9.5,5.5,8.3,11.4c-1,4.9-2.6,6.4-4.1,7.8c-0.3,0.3-0.6,0.5-0.9,0.8l-0.1,0.2l-1.3,2c0.4,0.5,0.8,0.9,1.4,1h0.2
	c1.2-3.3,5-2.9,6.7-11.5C99.8,16.7,99.5,13.9,98.2,11.6z"/>
<path style="fill:#6D4C41;" d="M81.1,21.4c-1.1-0.2-1.8-0.5-1.4-1.1c0.6-0.9,2.2-0.5,2.8-0.3c1.4,0.5,1.8,1.5,1.9,1.9
	s0.1,0.9-0.2,0.8C84,22.6,83.3,21.8,81.1,21.4z"/>
<path style="fill:#404040;" d="M76.8,22.4c0,1.1-0.3,1.9-0.8,1.9s-0.5-3.9,0-3.9S76.8,21.3,76.8,22.4z"/>
<path style="fill:#6D4C41;" d="M75.5,18c0.5,0,0.9,0.2,1.1,0.4c0.6,0.4,0.8,0.8,0.8,1.1c0.1,0.3,0.1,0.8-0.2,0.7
	c-0.2,0,0.2,0-1.5-0.5C75.5,19.7,74.9,18,75.5,18z"/>
<linearGradient id="SVGID_10_" gradientUnits="userSpaceOnUse" x1="71.1501" y1="780.9138" x2="71.1501" y2="829.9797" gradientTransform="matrix(1 0 0 1 0 -713.8898)">
	<stop  offset="0" style="stop-color:#ECEFF1"/>
	<stop  offset="1" style="stop-color:#B0BEC5"/>
</linearGradient>
<path style="fill:url(#SVGID_10_);" d="M86.7,74.8L75.2,63.5l-18,26.9c-1.9,2-2.2,5.1-0.4,7.4c1.9,2.4,5.4,2.9,7.9,0.9
	c1.2-1,1.9-2.3,2.1-3.8L86.7,74.8z"/>
<linearGradient id="SVGID_11_" gradientUnits="userSpaceOnUse" x1="91.1089" y1="786.2755" x2="95.2569" y2="827.1415" gradientTransform="matrix(1 0 0 1 0 -713.8898)">
	<stop  offset="0" style="stop-color:#ECEFF1"/>
	<stop  offset="1" style="stop-color:#B0BEC5"/>
</linearGradient>
<polygon style="fill:url(#SVGID_11_);" points="91.5,97.2 101.9,95.8 95.7,63 82.3,68.5 "/>
<linearGradient id="SVGID_12_" gradientUnits="userSpaceOnUse" x1="84.1436" y1="741.2664" x2="85.1316" y2="781.0144" gradientTransform="matrix(1 0 0 1 0 -713.8898)">
	<stop  offset="0" style="stop-color:#ECEFF1"/>
	<stop  offset="1" style="stop-color:#B0BEC5"/>
</linearGradient>
<path style="fill:url(#SVGID_12_);" d="M71.6,38.2l4.5-1.3l15.6-1.4l5.5,1c2,0.4,3.3,2.2,3.1,4.2l-3.6,27.7L86.4,78
	c-1.1,1-2.8,0.9-3.8-0.1L72.5,67.4l-3.8-24.7C68.4,40.8,69.6,38.8,71.6,38.2z"/>
<path style="fill:#CFD8DC;" d="M38,49v0.3c-0.2,2.5,1.7,4.6,4.2,4.8l1.1,0.1c2.5,0.2,4.6-1.7,4.8-4.2v-0.3c0.2-2.5-1.7-4.6-4.2-4.8
	l-1.1-0.1C40.3,44.6,38.2,46.5,38,49z"/>
<path style="fill:#B0BEC5;" d="M48,50.2v-0.6c0.2-2.4-1.6-4.5-4-4.6l-1.4-0.1c-0.8-0.1-1.5,0.1-2.2,0.4c0.1,0,1.2-0.3,2,0.4
	c0.7,0.6,0,0.8,0.7,1.6c0.5,0.5,1-0.3,2.1,0.3c0.5,0.3,0.4,0.8,0.5,1.5c0,0.5,0.9,0.3,0.7,1.4c-0.1,0.8-0.8,2-0.8,2s0.4,0.5,1.1,0.2
	C47.5,51.9,47.9,51.3,48,50.2z"/>
<path style="fill:#90A4AE;" d="M67.2,122.3h-6.3c-0.5,0-0.9-0.3-1-0.8L55,96.3c-0.8-2.3-0.2-4.8,1.5-6.6l15-22.4l-3.7-24.4
	c-0.4-2.5,1.1-4.9,3.5-5.7l4.5-1.3c0.1,0,0.1,0,0.2,0l15.6-1.4c0.1,0,0.2,0,0.3,0l5.5,1c2.5,0.5,4.2,2.8,3.9,5.3l-3.5,27.4l5.2,27.3
	c0,0.1,0,0.1,0,0.2l0.9,23.8c0,0.3-0.1,0.5-0.3,0.7s-0.4,0.3-0.7,0.3h-6.2c-0.5,0-0.9-0.3-1-0.8l-5.2-22.4l-5.7-17.8
	c-0.5,0-0.9,0-1.4-0.2l-15.6,16l0.3,26c0,0.3-0.1,0.5-0.3,0.7S67.4,122.3,67.2,122.3L67.2,122.3z M61.7,120.3h4.4l-0.3-25.4
	c0-0.3,0.1-0.5,0.3-0.7l16.4-16.6c0.3-0.3,0.8-0.4,1.2-0.2c0.4,0.2,1,0.3,1.4,0.1c0.2-0.1,0.5-0.1,0.8,0s0.4,0.3,0.5,0.6l6,18.7
	l5,21.7h4.3l-0.8-22.7l-5.2-27.4c0-0.1,0-0.2,0-0.3l3.5-27.5c0.2-1.4-0.8-2.8-2.2-3.1l-5.4-1l-15.4,1.4l-4.4,1.2
	c-1.5,0.5-2.4,1.9-2.1,3.5l3.7,24.5c0.1,0.3,0.1,0.7-0.1,0.9L58.1,90.9C58,91,58,91,58,91.1c-1.2,1.2-1.6,3-1.1,4.7v0.1
	C56.9,95.9,61.7,120.3,61.7,120.3z"/>
<linearGradient id="SVGID_13_" gradientUnits="userSpaceOnUse" x1="58.8026" y1="828.7397" x2="58.8026" y2="836.1498" gradientTransform="matrix(1 0 0 1 0 -713.8898)">
	<stop  offset="0" style="stop-color:#CFD8DC"/>
	<stop  offset="1" style="stop-color:#90A4AE"/>
</linearGradient>
<path style="fill:url(#SVGID_13_);" d="M59.9,116.6l-7.3,1.9c-0.9,0.3-1.7,1-2,1.9c-0.4,1.2,0.5,2.5,1.8,2.5h14.7v-6.4
	C67.2,116.6,59.9,116.6,59.9,116.6z"/>
<linearGradient id="SVGID_14_" gradientUnits="userSpaceOnUse" x1="100.785" y1="827.5098" x2="100.785" y2="835.9197" gradientTransform="matrix(1 0 0 1 0 -713.8898)">
	<stop  offset="0" style="stop-color:#CFD8DC"/>
	<stop  offset="1" style="stop-color:#90A4AE"/>
</linearGradient>
<path style="fill:url(#SVGID_14_);" d="M102.7,114.8l4,4.5c0.3,0.3,0.4,0.7,0.4,1.1v0.3c0,0.7-0.5,2.2-1.2,2.2h-9
	c-1.8,0-2.6-2.9-2.4-4v-0.2c0.2-1.3,1.2-4,1.2-4L102.7,114.8L102.7,114.8z"/>
<path style="opacity:0.87;fill:#37474F;enable-background:new    ;" d="M82.7,5.6c0,0-7,0.3-9.4,7.3c-2.1,6.4-3.4,17.7,5.2,19.4
	c0,0,5.6-1,8.1-11.9C89.5,7.7,82.7,5.6,82.7,5.6z"/>
<path style="fill:#CFD8DC;" d="M85.9,25c0,0-2.3,6.4-6.4,7.3c-1.3,0.3-3.2-0.6-3.2-0.6l0.3,5l-1.9,0.7L77,38
	c1.9,0.5,3.8,1.4,5.2,2.8c1,0.9,2.3,1.4,3.7,1.3c1.7-0.2,4-1,5.5-4c2.6-5.3,1.8-13,1.8-13L85.9,25L85.9,25z"/>
<path style="fill:#B0BEC5;" d="M87.3,20.6h9.2c0,0-0.4,4.1-2.1,7.3c-0.8,1.6-2.5,2.4-4,2.4h-6L87.3,20.6z"/>
<path style="fill:#B0BEC5;" d="M76.4,35c0,0,3,0.8,5.8,0.5c2.9-0.3,5.6-3.6,6.9-10.4H85c0,0-2.2,6.5-5.4,6.9c-2.6,0.2-3.4,0-3.4,0
	L76.4,35z"/>
<path style="fill:#78909C;" d="M85.8,12.8c0.1,3-0.1,5.5-0.5,7.8h11.2C98.1,9.7,94.4,7,89.6,6c-3.6-0.8-7.1-0.3-7.1-0.3
	S85.6,7.4,85.8,12.8z"/>
<g>
	<g>
		<defs>
			<path id="SVGID_15_" d="M119.3,22c-4.4-0.9-8.7-0.4-8.5,1.9c0,0-2.1,1.5-1.9,2.5c0.1,0.5,0.9,5.2,0.9,5.2s1.9,3,2.6,3.6
				c0.2,0.2,1.5,0.4,1.5,0.4l0.2-1.2l4.4,0.7l-0.2,1.1c0,0,1.1,0.7,1.4,0.5c1.3-0.7,2.3-2.4,2.8-3.4C122.7,32.6,127.1,23.5,119.3,22
				z"/>
		</defs>
		<clipPath id="SVGID_16_">
			<use xlink:href="#SVGID_15_"  style="overflow:visible;"/>
		</clipPath>
		<g style="clip-path:url(#SVGID_16_);">
			
				<radialGradient id="SVGID_17_" cx="179.3287" cy="746.2899" r="10.97" gradientTransform="matrix(0.9823 0.1874 -0.1591 0.8341 59.1512 -628.2396)" gradientUnits="userSpaceOnUse">
				<stop  offset="2.929700e-03" style="stop-color:#90A4AE"/>
				<stop  offset="0.4219" style="stop-color:#B0BEC5"/>
				<stop  offset="0.8419" style="stop-color:#ECEFF1"/>
			</radialGradient>
			
				<path style="fill:url(#SVGID_17_);stroke:#95A9B3;stroke-width:2;stroke-linecap:round;stroke-linejoin:round;stroke-miterlimit:10;" d="
				M122,27.8c-3-1.5-7.8-1.3-7.8-1.3s-0.2,1.5-0.8,2.6c-0.1,0.1-0.1,0.2-0.2,0.3c-0.2-0.2-0.3-0.6-0.3-1.2c-0.1-0.6-0.6-1.1-1.1-1.4
				c-0.6-0.4-1.9-0.3-1.7,0.7c0.1,0.5,0.3,3.4,0.3,3.4s1.9,3,2.6,3.6s3.8,1.8,5.5,1.4c2.1-0.5,2.3-2.1,2.8-3.2
				C121.7,31.5,122.6,27.5,122,27.8z"/>
			
				<linearGradient id="SVGID_18_" gradientUnits="userSpaceOnUse" x1="-463.7018" y1="621.5789" x2="-464.5717" y2="626.4769" gradientTransform="matrix(-0.9242 -0.382 -0.382 0.9242 -73.7067 -728.5365)">
				<stop  offset="0" style="stop-color:#ECEFF1"/>
				<stop  offset="0.9354" style="stop-color:#B0BEC5"/>
			</linearGradient>
			<path style="fill:url(#SVGID_18_);stroke:#95A9B3;stroke-linecap:round;stroke-linejoin:round;stroke-miterlimit:10;" d="
				M112.4,23.6c0.4-0.1,1.2-0.1,1.4,0.5c0.3-0.7,0.8-1.1,1.5-1c0.8,0.1,1.2,0.9,1.2,0.9c0.6-0.7,1.1-0.9,1.8-0.7
				c1.2,0.4,1.6,1.3,1.6,1.3c0.6-0.6,1.4-0.4,1.9,0.1c0.7,0.6,0.7,1.3,0.4,2l-1.3,2.1c-0.6,0.5-1.3,0.8-1.9,0.4
				c-0.3-0.2-0.4-0.5-0.5-0.8c-0.4,0.3-0.8,0.4-1.3,0.3c-0.8-0.2-1.4-0.6-1.2-1.4c0,0-0.5,0.4-1.1,0.2s-0.8-0.5-0.9-1.1
				c-0.2,0.4-0.8,0.6-1.2,0.5c-0.7-0.1-1.1-0.6-1.2-1.3l-0.1-0.4C111.2,24.4,111.7,23.9,112.4,23.6L112.4,23.6z"/>
		</g>
	</g>
</g>
<g>
	<g>
		<defs>
			<path id="SVGID_19_" d="M119.3,22c-4.4-0.9-8.7-0.4-8.5,1.9c0,0-2.1,1.5-1.9,2.5c0.1,0.5,0.9,5.2,0.9,5.2s1.9,3,2.6,3.6
				c0.2,0.2,1.5,0.4,1.5,0.4l0.2-1.2l4.4,0.7l-0.2,1.1c0,0,1.1,0.7,1.4,0.5c1.3-0.7,2.3-2.4,2.8-3.4C122.7,32.6,127.1,23.5,119.3,22
				z"/>
		</defs>
		<clipPath id="SVGID_20_">
			<use xlink:href="#SVGID_19_"  style="overflow:visible;"/>
		</clipPath>
		
			<path style="clip-path:url(#SVGID_20_);fill:none;stroke:#95A9B3;stroke-linecap:round;stroke-linejoin:round;stroke-miterlimit:10;" d="
			M113.2,29.5c0.7,0.1,1.2,0.3,1.6,0.6s0.7,1.3,0.7,1.9"/>
	</g>
</g>
<path style="fill:#8698A1;" d="M67.2,124H52.4c-1,0-1.8-0.4-2.4-1.2c-0.5-0.8-0.7-1.7-0.4-2.6c0.4-1.2,1.4-2.2,2.7-2.6l7.4-1.9
	c0.1,0,0.2,0,0.2,0h7.2c0.6,0,1,0.4,1,1v6.4C68.2,123.6,67.7,124,67.2,124z M60.1,117.6l-7.2,1.9c-0.6,0.2-1.1,0.7-1.3,1.3
	c-0.1,0.3,0,0.6,0.1,0.8c0.2,0.2,0.5,0.4,0.8,0.4h13.7v-4.4C66.2,117.6,60.1,117.6,60.1,117.6z"/>
<path style="fill:#8698A1;" d="M105.8,124h-9c-0.8,0-1.5-0.4-2.1-1.1c-1-1.1-1.4-3-1.3-4.1v-0.2c0.2-1.4,1.2-4.1,1.2-4.2
	c0.1-0.4,0.5-0.7,0.9-0.7h7.1c0.3,0,0.6,0.1,0.8,0.3l4,4.5c0.4,0.5,0.7,1.2,0.7,1.8v0.3C108.1,121.7,107.4,124,105.8,124z
	 M96.3,115.8c-0.3,0.9-0.8,2.4-0.9,3.2v0.2c-0.1,0.4,0.2,1.8,0.8,2.5c0.3,0.4,0.6,0.4,0.6,0.4h8.8c0.2-0.2,0.4-0.9,0.4-1.2v-0.3
	c0-0.2-0.1-0.3-0.2-0.5l-3.7-4.2C102.2,115.8,96.3,115.8,96.3,115.8z"/>
<path style="fill:none;" d="M115.1,29.3l-2.8,13.2l-14.7-5.8l-1.1,9.4l16.6,4.9c0.3,0.2,0.6,0.3,0.9,0.4c1.8,0.5,3.6-0.5,4.3-2.2
	l0,0v-0.1c0.1-0.1,0.1-0.3,0.1-0.4c0.1-0.4,0.1-0.7,0.1-1.1l2.8-18L115.1,29.3L115.1,29.3z"/>
<path style="fill:#607C8A;" d="M85.1,6.5c1.6,0,3,0.2,4.3,0.4c3.7,0.8,7.4,2.6,6.2,12.7H86c0.3-2.5,0.6-6.2-0.1-8.9
	c-0.5-2-1.1-3.3-1.6-4.2C84.6,6.5,84.9,6.5,85.1,6.5 M85.1,5.5c-1.5,0-2.6,0.1-2.6,0.1S84,6.8,85,11c0.7,2.6,0.4,6.4-0.1,9.6h11.6
	C98.1,9.7,94.4,7,89.7,6C88,5.6,86.4,5.5,85.1,5.5z"/>
<path style="fill:#CFD8DC;" d="M82.4,5.7c0,0,1.1-0.2,1.9-0.2c0,0,1.7,0.5,2.7,3c1,2.6,1.5,6,0.3,12.1c-1.2,6.2-2.9,9-5.1,11
	S76.3,33,76.3,33l-0.7-1.8c0,0,2.2,0.3,3.7-0.5c1.6-0.8,4.8-5.3,5.6-10.3c0.6-3.2,0.7-7.1,0-10.2S82.4,5.7,82.4,5.7z"/>
<path style="fill:#90A4AE;" d="M85.5,43c-1.4,0-2.8-0.5-3.9-1.5c-1.4-1.2-3-2.1-4.8-2.5l-2.3-0.6c-0.4-0.1-0.7-0.5-0.7-0.9
	s0.3-0.8,0.7-1l1.2-0.4v-0.7c0-0.1,0-0.2-0.1-0.3l-0.1-1.9L75,31.9c-5.3-3.7-4.7-12.6-2.5-19.2c2.5-7.6,10.2-8,10.3-8h0.1
	c0.5-0.1,1.1-0.1,1.6-0.1c0.1,0,0.2,0,0.2,0c1.3,0,3.3,0,5.3,0.5c4.7,1.1,9.3,3.7,7.7,15.6v0.1c0,0.2-0.4,4.3-2.2,7.7
	c-0.3,0.5-0.7,1-1.1,1.5l-0.1,0.1c-0.2,3.4-0.8,6.3-1.9,8.5c-1.7,3.4-4.3,4.3-6.3,4.5C85.8,43,85.6,43,85.5,43L85.5,43z M77.5,37.1
	c2,0.5,3.8,1.5,5.3,2.9c0.8,0.8,1.9,1.1,2.9,1c2.1-0.2,3.7-1.3,4.7-3.4c1-2,1.6-4.8,1.8-8c0-0.2,0.1-0.4,0.2-0.5l0.1-0.2
	c0.1-0.1,0.1-0.1,0.2-0.2s0.1-0.1,0.2-0.2c0.3-0.3,0.6-0.6,0.8-1c1.4-2.7,1.8-6.1,1.9-6.8c0-0.1,0-0.1,0-0.2
	C97.2,9.7,93.3,7.9,89.5,7c-1.9-0.4-3.7-0.5-4.9-0.4c-0.1,0-0.2,0-0.2,0c-0.5,0-1.1,0.1-1.4,0.1c-0.1,0-0.2,0-0.2,0
	c-0.9,0.1-6.4,0.7-8.3,6.6c-1.6,4.9-3,13.9,1.9,17.1c0.2,0.1,0.3,0.3,0.4,0.6l0.7,1.6c0,0.1,0.1,0.2,0.1,0.3l0.1,1.8
	c0,0.1,0,0.2,0.1,0.2l0.1,1.7C77.6,36.8,77.6,36.9,77.5,37.1z"/>
<path style="fill:#95A9B3;" d="M43.7,54.3c-0.1,0-0.3,0-0.4,0l-1.2-0.1c-3-0.2-5.3-2.9-5.1-5.9v-0.4c0.1-1.5,0.8-2.8,1.9-3.8
	c1.1-1,2.5-1.4,4-1.3l1.2,0.1c3,0.2,5.3,2.9,5.1,5.9v0.4c-0.1,1.5-0.8,2.8-1.9,3.8C46.3,53.8,45,54.3,43.7,54.3z M39.1,48v0.4
	c-0.1,1.9,1.3,3.6,3.2,3.7l1.2,0.1c1.9,0.1,3.6-1.3,3.7-3.2v-0.4c0.1-1.9-1.3-3.6-3.2-3.7l-1.2-0.1c-0.9-0.1-1.8,0.2-2.5,0.8
	C39.6,46.3,39.1,47.1,39.1,48z"/>
<path style="fill:#FFB300;" d="M46.3,48.4c0.2-0.9,0.8-1.1,1.4-0.9l3.5,0.4c0.7,0.2,1.2,1,1,1.9s-0.9,1.4-1.6,1.2l-3.4-1
	C46.7,49.9,46.1,49.3,46.3,48.4z"/>
<path style="fill:none;stroke:#E69200;stroke-miterlimit:10;" d="M46.5,48.6c0.1-0.7,0.7-1.2,1.3-1.1l3.5,0.4c0.7,0.2,1.2,1,1,1.9
	s-0.9,1.4-1.6,1.2l-3.5-0.8C46.7,49.9,46.3,49.2,46.5,48.6z"/>
</svg>
