<?xml version="1.0" encoding="UTF-8" standalone="no"?><svg xmlns:dc="http://purl.org/dc/elements/1.1/" xmlns:cc="http://creativecommons.org/ns#" xmlns:rdf="http://www.w3.org/1999/02/22-rdf-syntax-ns#" xmlns:svg="http://www.w3.org/2000/svg" xmlns="http://www.w3.org/2000/svg" viewBox="0 0 45 45" style="enable-background:new 0 0 45 45;" xml:space="preserve" version="1.1" id="svg2"><metadata id="metadata8"><rdf:RDF><cc:Work rdf:about=""><dc:format>image/svg+xml</dc:format><dc:type rdf:resource="http://purl.org/dc/dcmitype/StillImage"/></cc:Work></rdf:RDF></metadata><defs id="defs6"><clipPath id="clipPath16" clipPathUnits="userSpaceOnUse"><path id="path18" d="M 0,36 36,36 36,0 0,0 0,36 Z"/></clipPath></defs><g transform="matrix(1.25,0,0,-1.25,0,45)" id="g10"><g id="g12"><g clip-path="url(#clipPath16)" id="g14"><g transform="translate(21.25,31)" id="g20"><path id="path22" style="fill:#f7dece;fill-opacity:1;fill-rule:nonzero;stroke:none" d="M 0,0 C 0,1.657 -1.175,3 -2.625,3 -4.074,3 -5.25,1.657 -5.25,0 c 0,-1.657 0.984,-3 2.719,-3 0.661,0 1.736,0.132 2.198,0.594 C 0.217,-1.856 0,-0.901 0,0"/></g><g transform="translate(17.9671,2.645)" id="g24"><path id="path26" style="fill:#2a6797;fill-opacity:1;fill-rule:nonzero;stroke:none" d="m 0,0 c -0.552,0 -1,0.447 -1,1 l 0,3 C -1,4.553 -0.552,5 0,5 0.552,5 1,4.553 1,4 L 1,1 C 1,0.447 0.552,0 0,0"/></g><g transform="translate(8.5357,1.5688)" id="g28"><path id="path30" style="fill:#2a6797;fill-opacity:1;fill-rule:nonzero;stroke:none" d="m 0,0 c -0.199,-0.094 -0.43,-0.123 -0.661,-0.067 -0.537,0.131 -0.866,0.671 -0.736,1.208 l 0.67,2.76 C -0.597,4.436 -0.058,4.767 0.48,4.636 1.017,4.506 1.346,3.965 1.216,3.429 L 0.546,0.669 C 0.472,0.363 0.265,0.125 0,0"/></g><g transform="translate(19.7297,26.8932)" id="g32"><path id="path34" style="fill:#f7dece;fill-opacity:1;fill-rule:nonzero;stroke:none" d="M 0,0 -0.457,3.933 C -0.517,4.483 -1.031,4.906 -1.574,4.842 -2.122,4.781 -2.524,4.299 -2.463,3.75 l 0.4,-3.643 -4.584,0 L -12.502,3 c -0.55,0.091 -1.06,-0.277 -1.151,-0.821 -0.091,-0.545 0.278,-1.06 0.822,-1.151 l 5.389,-2.788 c 0.055,-0.009 0.657,-0.133 0.712,-0.133 l 2.749,0 c 0.009,-0.262 0.086,-0.588 0.251,-1 1,-2.5 3,-8 3,-8 2.209,0 2.625,4.723 2.625,7.208 0,0.604 0.299,0.754 0.197,1.101 1.171,0.151 1.334,-0.36 1.874,-0.488 0,0 -1.799,3.261 -3.966,3.072"/></g><g transform="translate(14.1767,9.8777)" id="g36"><path id="path38" style="fill:#f7dece;fill-opacity:1;fill-rule:nonzero;stroke:none" d="M 0,0 C -0.456,0.402 -0.56,1.088 -0.216,1.612 L 4.6,8.959 C 4.976,9.533 5.747,9.694 6.32,9.318 6.891,8.936 7.055,8.171 6.678,7.598 L 1.862,0.25 C 1.485,-0.324 0.715,-0.484 0.141,-0.108 0.091,-0.075 0.044,-0.039 0,0"/></g><g transform="translate(8.6281,4.9205)" id="g40"><path id="path42" style="fill:#f7dece;fill-opacity:1;fill-rule:nonzero;stroke:none" d="M 0,0 C -0.308,0.458 -0.268,1.066 0.116,1.42 L 5.498,6.391 C 5.919,6.78 6.593,6.716 7.003,6.249 7.411,5.779 7.407,5.089 6.986,4.701 L 1.603,-0.27 C 1.183,-0.659 0.509,-0.595 0.098,-0.128 0.062,-0.087 0.03,-0.044 0,0"/></g><g transform="translate(17.4887,6.6699)" id="g44"><path id="path46" style="fill:#f7dece;fill-opacity:1;fill-rule:nonzero;stroke:none" d="M 0,0 C -0.184,0.479 -0.029,1.019 0.384,1.257 L 6.17,4.605 C 6.623,4.867 7.212,4.666 7.486,4.158 7.756,3.647 7.617,3.025 7.164,2.764 L 1.378,-0.584 C 0.926,-0.845 0.337,-0.645 0.062,-0.137 0.038,-0.092 0.018,-0.047 0,0"/></g><g transform="translate(24.304,9.3631)" id="g48"><path id="path50" style="fill:#f7dece;fill-opacity:1;fill-rule:nonzero;stroke:none" d="m 0,0 c -0.533,-0.186 -1.136,0.044 -1.403,0.561 l -3.745,7.25 c -0.292,0.566 -0.07,1.263 0.496,1.555 0.569,0.288 1.262,0.071 1.554,-0.496 L 0.647,1.62 C 0.94,1.054 0.718,0.357 0.152,0.065 0.102,0.039 0.052,0.018 0,0"/></g><g transform="translate(24.3041,22.9738)" id="g52"><path id="path54" style="fill:#f7dece;fill-opacity:1;fill-rule:nonzero;stroke:none" d="m 0,0 -3.85,2.008 c -0.457,0.238 -0.635,0.807 -0.397,1.264 0.238,0.457 0.807,0.636 1.264,0.398 L 0.867,1.662 C 1.324,1.423 1.502,0.854 1.264,0.397 1.026,-0.059 0.457,-0.238 0,0"/></g><g transform="translate(30.07,22.1199)" id="g56"><path id="path58" style="fill:#f7dece;fill-opacity:1;fill-rule:nonzero;stroke:none" d="m 0,0 -5.302,0.783 c -0.51,0.075 -0.866,0.554 -0.79,1.064 0.075,0.509 0.554,0.865 1.063,0.79 L 0.274,1.854 C 0.784,1.779 1.139,1.3 1.064,0.79 0.989,0.28 0.51,-0.075 0,0"/></g><g transform="translate(16.5004,18.043)" id="g60"><path id="path62" style="fill:#2a6797;fill-opacity:1;fill-rule:nonzero;stroke:none" d="m 0,0 c 0,0 -0.803,-2.027 -1.071,-2.869 -0.268,-0.842 -0.825,-1.799 -0.825,-1.799 0,0 1.694,-1.477 2.995,-1.439 l 1.885,2.74 1.674,-2.359 c 0,0 1.708,1.23 2.883,1.433 0,0 -1.497,3.069 -1.841,3.719 C 5.356,0.077 4.514,0.918 4.514,0.918 L 0,0 Z"/></g><g transform="translate(15.5487,27.1949)" id="g64"><path id="path66" style="fill:#4289c1;fill-opacity:1;fill-rule:nonzero;stroke:none" d="m 0,0 c 0,0 1.274,-0.075 1.799,-0.112 0,0 0.075,-0.825 1.349,-0.863 1.275,-0.037 1.612,0.638 1.612,0.638 0,0 0.975,-0.075 1.687,-0.525 0.712,-0.45 1.799,-0.975 1.799,-0.975 0,0 -1.012,-0.862 -0.637,-1.799 l -1.012,0.483 c 0,0 0.136,-0.417 0.198,-1.198 0.094,-1.174 -0.202,-4.902 -0.052,-5.24 0,0 -1.292,0.334 -3.188,0.125 -1.16,-0.127 -3.322,-0.958 -3.322,-0.958 0.302,1.26 0.483,3.152 0.531,4.229 0.094,2.115 -0.389,3.609 -1.026,3.759 -0.638,0.15 -1.125,0.187 -1.125,0.187 0,0 0.15,0.675 0,1.2 -0.15,0.524 -0.225,0.899 -0.225,0.899 0,0 1.162,0.075 1.612,0.15"/></g><g transform="translate(7,28)" id="g68"><path id="path70" style="fill:#226699;fill-opacity:1;fill-rule:nonzero;stroke:none" d="m 0,0 c 0,1.105 -0.895,2 -2,2 -1.105,0 -2,-0.895 -2,-2 0,-1.105 0.895,-2 2,-2 1.105,0 2,0.895 2,2"/></g><g transform="translate(20.2917,34.8125)" id="g72"><path id="path74" style="fill:#292f33;fill-opacity:1;fill-rule:nonzero;stroke:none" d="m 0,0 c -0.699,0.487 -2.461,0.66 -3.656,0.029 -1.349,-0.713 -1.687,-2.024 -1.462,-3.374 0.207,-1.24 0.803,-1.754 0.803,-1.754 0.229,-0.246 0.837,0.403 0.488,0.951 -0.409,0.642 -0.293,1.401 0.169,1.448 0.327,0.034 0.678,-0.158 0.584,-0.451 -0.113,-0.353 0.032,-0.498 0.032,-0.498 0,0 0.269,-0.192 0.54,0.627 0.142,0.429 1.157,0.362 2.648,1.038 0.176,0.079 0.625,-0.422 0.752,-1.539 0.027,-0.242 0.477,0.502 0.539,1.044 C 1.541,-1.581 0.895,-0.624 0,0"/></g></g></g></g></svg>
