<?xml version="1.0" encoding="utf-8"?>
<!-- Generator: Adobe Illustrator 24.1.2, SVG Export Plug-In . SVG Version: 6.00 Build 0)  -->
<svg version="1.1" id="Layer_1" xmlns="http://www.w3.org/2000/svg" xmlns:xlink="http://www.w3.org/1999/xlink" x="0px" y="0px"
	 viewBox="0 0 128 128" style="enable-background:new 0 0 128 128;" xml:space="preserve">
<linearGradient id="leg_2_" gradientUnits="userSpaceOnUse" x1="82.794" y1="20.0706" x2="60.7654" y2="38.0185" gradientTransform="matrix(0.9962 0.0876 0.0876 -0.9962 6.6333 123.4366)">
	<stop  offset="0.5979" style="stop-color:#A56C43"/>
	<stop  offset="1" style="stop-color:#8D5738"/>
</linearGradient>
<path id="leg_1_" style="fill:url(#leg_2_);" d="M78.33,95.99l-4.01-15.41l-12.48,5.05c0,0,2.82,8.25,3.93,12.02
	c0.92,3.12,2.47,6.31,7.53,8.79l22.24,9.26l0.6-7.71L78.33,95.99z"/>
<g id="sock_1_">
	<path style="fill:#E0E0E0;" d="M90.17,103.96c-3.13,4.29-2.36,8.54-2.36,8.54l8.51,3.8l1.06-8.25L90.17,103.96z"/>
</g>
<g id="shoe_x5F_back_1_">
	<path style="fill:#4568AD;" d="M101.75,105.24c-0.22-0.64-1.33-1.24-2.64-0.94l-2.24,0.64c-1.53,0.79-1.89,1.75-1.89,1.75
		c-0.44,5.15,0.57,9,0.57,9l4.58,5.32c1.13,1.33,2.96,1.84,4.62,1.29l1.28-0.43c0.56-0.19,1.15-1.18,0.87-2.29L101.75,105.24z"/>
</g>
<g id="pants_x5F_back_1_">
	<path style="fill:#616161;" d="M60.78,83.29C60.54,84.91,65,95.13,65,95.13c7.18-0.54,14.7-7.33,14.7-7.33s-3.92-4.44-3.56-12.59
		L60.78,83.29z"/>
</g>
<linearGradient id="leg_3_" gradientUnits="userSpaceOnUse" x1="40.1253" y1="28.6214" x2="56.1253" y2="45.2464" gradientTransform="matrix(1 0 0 -1 0 130)">
	<stop  offset="0.5979" style="stop-color:#A56C43"/>
	<stop  offset="1" style="stop-color:#8D5738"/>
</linearGradient>
<path id="leg" style="fill:url(#leg_3_);" d="M44.11,108.6l8.51-0.07c0,0-2.84-15.54-3.59-18.37l19.8-6.54l-4.35-13.53L41.74,80.37
	c-2.88,1.3-5.77,4.87-4.17,10.85C38.5,94.65,44.11,108.6,44.11,108.6z"/>
<g id="sock_x5F_front_1_">
	<path style="fill:#E0E0E0;" d="M51.46,101.64c-5.59-0.47-9.09,2.58-9.09,2.58l3,9l7.75-2.82L51.46,101.64z"/>
</g>
<g id="shoe_x5F_front_1_">
	<g>
		<path style="fill:#4568AD;" d="M53.92,115.37c0.64-0.21,1.26-1.31,0.97-2.62l-0.62-2.25c-0.52-1.64-2.17-3.11-2.17-3.11
			c-5.18-0.53-8.62,2.96-8.62,2.96l-5.31,3.2c-1.35,1.12-1.88,2.94-1.34,4.61l0.42,1.29c0.18,0.56,1.17,1.16,2.28,0.9L53.92,115.37z
			"/>
	</g>
	<g>
		<path style="fill:#294B7C;" d="M47.17,115.09c-4.39,1.71-7.46,3.03-8.73,4.03c-1.33,0.91-0.17,1.54,1.13,1.18l12.3-3.7
			c2.33-0.79,3.18-1.8,3.08-2.92C54.85,112.57,51.29,113.48,47.17,115.09z"/>
	</g>
</g>
<g id="pants_x5F_front_1_">
	<path style="fill:#7C7C7C;" d="M46.54,78.19c5.26,1.05,11.65,11.62,11.65,11.62s10.21-4.63,13.86-6.79
		c6.72-3.97,4.87-11.79,2.72-15.62l-2.73-5.96l-19.36,4.93l-0.26,4.18l0.8,4.18L46.54,78.19z"/>
</g>
<path id="shadow_x5F_shirt" style="opacity:0.2;enable-background:new    ;" d="M53.23,74.74c10.04-7.05,22.57-5.08,22.57-5.08
	c-1.54-4.2-4.48-9.59-4.48-9.59s-18.82,4.97-19.18,7.55C51.77,70.2,53.23,74.74,53.23,74.74z"/>
<linearGradient id="arm_2_" gradientUnits="userSpaceOnUse" x1="32.3996" y1="66.2963" x2="50.6496" y2="71.1296" gradientTransform="matrix(1 0 0 -1 0 130)">
	<stop  offset="0.5979" style="stop-color:#A56C43"/>
	<stop  offset="1" style="stop-color:#8D5738"/>
</linearGradient>
<path id="arm_1_" style="fill:url(#arm_2_);" d="M58.47,54.82L53.7,47.7L33.12,69.57c0,0,0,1.54,1.78,2.59
	c1.78,1.05,3.54,0.28,3.54,0.28L58.47,54.82z"/>
<path id="tone" style="fill:#875334;" d="M33.03,72c0,0-1.54,2.53-2.06,5.75c-0.21,1.33,0.25,2.52,0.42,2.74
	c0.55,0.71,1.53,0.87,1.85,0.28c0.27-0.51-0.41-1.36-0.41-1.86c0.01-0.6,0.35-1.08,0.35-1.08c0.21,0.62,1.64,1.93,2.11,1.8
	c1.33-0.38-0.73-2.04-0.64-3.14c0.24-2.86,1.33-4.73,1.33-4.73L33.03,72z"/>
<linearGradient id="hand_2_" gradientUnits="userSpaceOnUse" x1="31.0074" y1="56.0733" x2="35.8356" y2="51.1158" gradientTransform="matrix(1 0 0 -1 0 130)">
	<stop  offset="0.5979" style="stop-color:#A56C43"/>
	<stop  offset="1" style="stop-color:#8D5738"/>
</linearGradient>
<path id="hand_1_" style="fill:url(#hand_2_);" d="M39.37,70.45c0.2,1.81-0.16,1.64-0.53,3.93c-0.22,1.41,0.49,1.95,0.45,2.96
	c-0.02,0.6-0.7,1.26-1.39,0.86c-1.53-0.89-0.84-4.5-3.72-3.68c-2.11,0.6-3.07,5.24-4.84,6.72c-1.73,1.45-3.17,0.26-2.73-0.28
	c0,0,0.94-1.7,2.05-3.53c1.33-2.2,1.8-6.28,5.62-8.84L39.37,70.45z"/>
<path id="shirt_1_" style="fill:#008F76;" d="M60.91,40.05c-7.7,6.38-12.72,12.76-12.72,12.76c4.27,0.28,8.09,6.48,8.09,6.48
	S66.7,35.25,60.91,40.05z"/>
<path id="head_1_" style="fill:#A56C43;" d="M69.35,15.85c-2.18-4.7-9.46-7.14-14.49-5.92c-5.63,1.37-8.4,5.71-8.82,10.98
	c-0.15,1.91,0.05,3.79,0.47,5.1c0.05,0.16,0.45,1.3,0.5,1.66c0.32,1.39-2.3,2.99-2.5,4.57c-0.15,1.18,2.34,1.74,2.55,1.94
	c1.03,0.97-0.1,5.89,6.62,6.07c2.34,0.06,2.79-0.22,2.79-0.22l0.47,7.63l11.18-8.24c0,0-2.07-3.28-0.43-6.58
	C69.81,28.54,72.13,21.84,69.35,15.85z"/>
<path id="mouth_1_" style="fill:#473530;" d="M47.95,36.91c0.93-0.02,1.83-0.3,2.57-0.94c0.81-0.7,0.17-1.37-0.78-0.87
	c-0.57,0.3-1.4,0.49-2.17,0.4L47.95,36.91z"/>
<ellipse id="eye_1_" transform="matrix(0.9943 -0.1063 0.1063 0.9943 -2.7013 5.6031)" style="fill:#42312C;" cx="51.21" cy="28.14" rx="1.23" ry="1.88"/>
<path id="eyebrow_1_" style="fill:#42312C;" d="M50.04,25.53c-1.12,0.55-1.53-0.17-1.25-0.87c0.21-0.51,0.86-1.02,2.28-1
	c1.34,0.03,2.01,0.68,2.44,1.07s0.47,0.85,0.18,0.94C53.28,25.81,51.42,24.85,50.04,25.53z"/>
<g id="handball_1_">
	
		<radialGradient id="SVGID_1_" cx="80.9043" cy="113.6813" r="11.6795" gradientTransform="matrix(0.987 0.161 0.161 -0.987 -7.2759 109.7164)" gradientUnits="userSpaceOnUse">
		<stop  offset="0" style="stop-color:#CED7DB"/>
		<stop  offset="0.3026" style="stop-color:#BFCBD0"/>
		<stop  offset="0.8798" style="stop-color:#99ABB4"/>
		<stop  offset="1" style="stop-color:#90A4AE"/>
	</radialGradient>
	<circle style="fill:url(#SVGID_1_);" cx="93.55" cy="15.09" r="11.66"/>
</g>
<linearGradient id="arm_3_" gradientUnits="userSpaceOnUse" x1="88.876" y1="99.9157" x2="63.0156" y2="76.3809" gradientTransform="matrix(0.9858 0.1678 0.1678 -0.9858 -0.7438 108.4153)">
	<stop  offset="0.5979" style="stop-color:#A56C43"/>
	<stop  offset="1" style="stop-color:#8D5738"/>
</linearGradient>
<path id="arm" style="fill:url(#arm_3_);" d="M68.48,38.87c-5.57,2.65-0.62,9.18-0.62,9.18s10.75-1.8,15.12-2.83
	c6.21-1.44,7.15-3.58,8.66-5.46c1.21-1.51,7.22-10.4,7.22-10.4l-0.34-3.15l-5.51,1.2l-9.28,8.52
	C83.73,35.92,73.35,36.56,68.48,38.87z"/>
<linearGradient id="hand_3_" gradientUnits="userSpaceOnUse" x1="117.6109" y1="114.1102" x2="91.7504" y2="90.5754" gradientTransform="matrix(0.9964 -0.0843 -0.0843 -0.9964 -3.2763 139.4733)">
	<stop  offset="0.5979" style="stop-color:#A56C43"/>
	<stop  offset="1" style="stop-color:#8D5738"/>
</linearGradient>
<path id="hand" style="fill:url(#hand_3_);" d="M93.18,27.87c-0.14-2.83,3.46-4.27,3.46-4.27s-1.21-3.01-1.68-3.96
	c-0.46-0.95-0.14-1.61,0.04-1.71c0.58-0.33,1.17-0.01,1.35,0.2c0.77,0.93,1.93,2.55,1.93,2.55c0.5-0.2-0.28-2.8-0.67-4.55
	c-0.23-1.03,0.99-2.15,1.87-0.32c0.73,1.51,1.67,4.35,1.67,4.35c0.17-1.16-0.04-2.98-0.27-5.27c-0.11-1.07,0.33-1.55,1.03-1.61
	c0.52-0.05,0.97,0.09,1.33,2.23c0.11,0.64,0.29,4.25,0.29,4.25c1.01-0.52,1.26-3.31,1.34-5.11c0.05-1.27,1.73-1.59,1.95,0.32
	c0.45,3.88-1.56,7.19-2.48,8.74c-0.48,0.81-5.78,5.83-5.78,5.83L93.18,27.87z"/>
<g id="shirt">
	
		<radialGradient id="SVGID_2_" cx="9.8716" cy="66.8589" r="19.4216" gradientTransform="matrix(0.9427 0.3337 0.3337 -0.9427 27.617 107.3878)" gradientUnits="userSpaceOnUse">
		<stop  offset="0" style="stop-color:#00BFA5"/>
		<stop  offset="1" style="stop-color:#009E89"/>
	</radialGradient>
	<path style="fill:url(#SVGID_2_);" d="M79,65.63c-8.76-8.29-4.64-15.43-4.64-15.43s0.08-1.22,4.63-2.14c0,0-0.64-5.25,1.98-12.23
		c0,0-10.01,0.1-14.15,1.46c-2.48,0.81-6.49,1.36-10.26,5.56c-2.16,2.4-3.65,4.7-5.17,12.14c-1.69,8.29,1.85,19.76,1.85,19.76
		C60.88,66.05,79,65.63,79,65.63z"/>
</g>
<g id="hairGroup_1_">
	<path id="hair_1_" style="fill:#3C2C23;" d="M69.46,13.64c-2.62-2.83-7.19-4.5-11.45-4.42c-2.86,0.06-5.57,0.77-7.84,2.05
		c-0.04,0.02-4.36,2.52-5.21,4.74c-0.91,2.38,0.16,3.66,0.41,3.89c0.2,0.18,0.47,0.23,0.71,0.24c0,0,0.01,0.02,0.01,0.02
		s0.04-0.01,0.11-0.02c0.23-0.01,0.41-0.06,0.41-0.06c1.66-0.25,6.96-0.98,9.69-0.63c0.43,0.06,0.92,0.15,1.14,0.53
		c0.1,0.16,0.25,1.24,0.27,1.43c0.36,2.43,0.28,3.98,1.14,5.46c0.14,0.24,0.66,0.53,0.66,0.53l0.88-1.62
		c0.56-0.93,1.08-1.73,1.9-1.63c2.44,0.28,2.43,4.58-0.3,5.81c0,0,0.78,3.15,3.87,3.66c0.32,0.05,0.61,0.08,0.86,0.08
		c0.11,0,0.22-0.01,0.33-0.04c1.08-0.04,1.85-0.36,2.02-1.4c0.38-2.24,0.91-3.24,1.48-4.3c0.67-1.25,1.37-2.54,1.69-5.79
		C72.59,18.92,71.62,15.97,69.46,13.64z"/>
	<radialGradient id="hairHighlights_1_" cx="58.468" cy="21.4556" r="13.0716" gradientUnits="userSpaceOnUse">
		<stop  offset="0.5264" style="stop-color:#554138;stop-opacity:0"/>
		<stop  offset="1" style="stop-color:#554138"/>
	</radialGradient>
	<path id="hairHighlights_2_" style="fill:url(#hairHighlights_1_);" d="M69.46,13.64c-2.62-2.83-7.19-4.5-11.45-4.42
		c-2.86,0.06-5.57,0.77-7.84,2.05c-0.04,0.02-4.36,2.52-5.21,4.74c-0.91,2.38,0.16,3.66,0.41,3.89c0.2,0.18,0.47,0.23,0.71,0.24
		c0,0,0.01,0.02,0.01,0.02s0.04-0.01,0.11-0.02c0.23-0.01,0.41-0.06,0.41-0.06c1.66-0.25,6.96-0.98,9.69-0.63
		c0.43,0.06,0.92,0.15,1.14,0.53c0.1,0.16,0.25,1.24,0.27,1.43c0.36,2.43,0.28,3.98,1.14,5.46c0.14,0.24,0.66,0.53,0.66,0.53
		l0.88-1.62c0.56-0.93,1.08-1.73,1.9-1.63c2.44,0.28,2.43,4.58-0.3,5.81c0,0,0.78,3.15,3.87,3.66c0.32,0.05,0.61,0.08,0.86,0.08
		c0.11,0,0.22-0.01,0.33-0.04c1.08-0.04,1.85-0.36,2.02-1.4c0.38-2.24,0.91-3.24,1.48-4.3c0.67-1.25,1.37-2.54,1.69-5.79
		C72.59,18.92,71.62,15.97,69.46,13.64z"/>
</g>
</svg>
