<?xml version="1.0" encoding="UTF-8" standalone="no"?><svg xmlns:dc="http://purl.org/dc/elements/1.1/" xmlns:cc="http://creativecommons.org/ns#" xmlns:rdf="http://www.w3.org/1999/02/22-rdf-syntax-ns#" xmlns:svg="http://www.w3.org/2000/svg" xmlns="http://www.w3.org/2000/svg" viewBox="0 0 45 45" style="enable-background:new 0 0 45 45;" xml:space="preserve" version="1.1" id="svg2"><metadata id="metadata8"><rdf:RDF><cc:Work rdf:about=""><dc:format>image/svg+xml</dc:format><dc:type rdf:resource="http://purl.org/dc/dcmitype/StillImage"/></cc:Work></rdf:RDF></metadata><defs id="defs6"><clipPath id="clipPath16" clipPathUnits="userSpaceOnUse"><path id="path18" d="M 0,36 36,36 36,0 0,0 0,36 Z"/></clipPath></defs><g transform="matrix(1.25,0,0,-1.25,0,45)" id="g10"><g id="g12"><g clip-path="url(#clipPath16)" id="g14"><g transform="translate(30,0)" id="g20"><path id="path22" style="fill:#292f33;fill-opacity:1;fill-rule:nonzero;stroke:none" d="m 0,0 0,11 c 0,2.209 -1.791,4 -4,4 l -4,0 -8,0 -4,0 c -2.209,0 -4,-1.791 -4,-4 L -24,0 0,0 Z"/></g><g transform="translate(18,1)" id="g24"><path id="path26" style="fill:#e1e8ed;fill-opacity:1;fill-rule:nonzero;stroke:none" d="M 0,0 0,0 -4,14 4,14 0,0 Z"/></g><g transform="translate(15.125,20.1876)" id="g28"><path id="path30" style="fill:#d5ab88;fill-opacity:1;fill-rule:nonzero;stroke:none" d="M 0,0 0,-5.48 2.875,-6.355 5.75,-5.48 5.75,0 0,0 Z"/></g><g transform="translate(14,15)" id="g32"><path id="path34" style="fill:#66757f;fill-opacity:1;fill-rule:nonzero;stroke:none" d="M 0,0 -2,-6 0.5,-6.687 -0.875,-8.937 4,-14 0,0 Z"/></g><g transform="translate(22,15)" id="g36"><path id="path38" style="fill:#66757f;fill-opacity:1;fill-rule:nonzero;stroke:none" d="M 0,0 2,-6 -0.5,-6.687 0.875,-8.937 -4,-14 0,0 Z"/></g><g transform="translate(15.125,15.875)" id="g40"><path id="path42" style="fill:#f5f8fa;fill-opacity:1;fill-rule:nonzero;stroke:none" d="M 0,0 2.875,-2.042 1,-4.031 -1.125,-0.875 0,0 Z"/></g><g transform="translate(20.875,15.875)" id="g44"><path id="path46" style="fill:#f5f8fa;fill-opacity:1;fill-rule:nonzero;stroke:none" d="M 0,0 -2.875,-2.042 -1,-4.031 1.125,-0.875 0,0 Z"/></g><g transform="translate(17.9993,13.2497)" id="g48"><path id="path50" style="fill:#292f33;fill-opacity:1;fill-rule:nonzero;stroke:none" d="m 0,0 2.066,-1.136 0,2.272 L 0,0 Z"/></g><g transform="translate(17.9993,13.2497)" id="g52"><path id="path54" style="fill:none;stroke:#292f33;stroke-width:0.46599999;stroke-linecap:round;stroke-linejoin:round;stroke-miterlimit:10;stroke-dasharray:none;stroke-opacity:1" d="m 0,0 2.066,-1.136 0,2.272 L 0,0 Z"/></g><g transform="translate(17.9993,13.2497)" id="g56"><path id="path58" style="fill:#292f33;fill-opacity:1;fill-rule:nonzero;stroke:none" d="m 0,0 -2.066,-1.136 0,2.272 L 0,0 Z"/></g><g transform="translate(17.9993,13.2497)" id="g60"><path id="path62" style="fill:none;stroke:#292f33;stroke-width:0.46599999;stroke-linecap:round;stroke-linejoin:round;stroke-miterlimit:10;stroke-dasharray:none;stroke-opacity:1" d="m 0,0 -2.066,-1.136 0,2.272 L 0,0 Z"/></g><g transform="translate(18.493,10.8618)" id="g64"><path id="path66" style="fill:#292f33;fill-opacity:1;fill-rule:nonzero;stroke:none" d="m 0,0 c 0,-0.273 -0.221,-0.494 -0.494,-0.494 -0.272,0 -0.493,0.221 -0.493,0.494 0,0.273 0.221,0.493 0.493,0.493 C -0.221,0.493 0,0.273 0,0"/></g><g transform="translate(18.493,8.8447)" id="g68"><path id="path70" style="fill:#292f33;fill-opacity:1;fill-rule:nonzero;stroke:none" d="m 0,0 c 0,-0.273 -0.221,-0.494 -0.494,-0.494 -0.272,0 -0.493,0.221 -0.493,0.494 0,0.273 0.221,0.493 0.493,0.493 C -0.221,0.493 0,0.273 0,0"/></g><g transform="translate(18.493,6.8275)" id="g72"><path id="path74" style="fill:#292f33;fill-opacity:1;fill-rule:nonzero;stroke:none" d="m 0,0 c 0,-0.273 -0.221,-0.494 -0.494,-0.494 -0.272,0 -0.493,0.221 -0.493,0.494 0,0.273 0.221,0.493 0.493,0.493 C -0.221,0.493 0,0.273 0,0"/></g><g transform="translate(12.25,24.4251)" id="g76"><path id="path78" style="fill:#d5ab88;fill-opacity:1;fill-rule:nonzero;stroke:none" d="m 0,0 c 0,-1.27 -0.644,-2.3 -1.437,-2.3 -0.794,0 -1.438,1.03 -1.438,2.3 0,1.27 0.644,2.3 1.438,2.3 C -0.644,2.3 0,1.27 0,0"/></g><g transform="translate(26.625,24.4251)" id="g80"><path id="path82" style="fill:#d5ab88;fill-opacity:1;fill-rule:nonzero;stroke:none" d="m 0,0 c 0,-1.27 -0.643,-2.3 -1.437,-2.3 -0.795,0 -1.438,1.03 -1.438,2.3 0,1.27 0.643,2.3 1.438,2.3 C -0.643,2.3 0,1.27 0,0"/></g><g transform="translate(10.525,24.5266)" id="g84"><path id="path86" style="fill:#d5ab88;fill-opacity:1;fill-rule:nonzero;stroke:none" d="M 0,0 C 0,4.902 3.347,8.877 7.475,8.877 11.603,8.877 14.95,4.902 14.95,0 14.95,-4.902 11.603,-8.877 7.475,-8.877 3.347,-8.877 0,-4.902 0,0"/></g><g transform="translate(18,35.3505)" id="g88"><path id="path90" style="fill:#963b22;fill-opacity:1;fill-rule:nonzero;stroke:none" d="m 0,0 c 4.954,0 8.05,-3.656 8.05,-6.702 0,-3.047 -0.619,-4.266 -1.239,-3.047 -0.619,1.219 -1.238,2.437 -1.238,2.437 0,0 -3.715,0 -4.954,1.219 0,0 1.858,-3.656 -1.857,0 0,0 0.619,-2.437 -3.097,0.609 0,0 -1.857,-1.218 -2.477,-4.265 -0.171,-0.845 -1.238,0 -1.238,3.047 C -8.05,-3.656 -5.573,0 0,0"/></g><g transform="translate(20.8389,19.7529)" id="g92"><path id="path94" style="fill:#c1694f;fill-opacity:1;fill-rule:nonzero;stroke:none" d="m 0,0 c -0.033,0.055 -0.093,0.088 -0.157,0.088 l -5.267,0 c -0.064,0 -0.123,-0.033 -0.157,-0.088 -0.033,-0.055 -0.036,-0.123 -0.006,-0.18 0.031,-0.062 0.799,-1.512 2.796,-1.512 1.999,0 2.766,1.45 2.798,1.512 C 0.036,-0.123 0.033,-0.055 0,0"/></g><g transform="translate(18.1249,22.0259)" id="g96"><path id="path98" style="fill:#c1694f;fill-opacity:1;fill-rule:nonzero;stroke:none" d="m 0,0 c -0.57,0 -1.014,0.104 -1.369,0.262 0.117,-0.425 0.444,-1.017 1.369,-1.017 0.925,0 1.252,0.592 1.37,1.017 C 1.014,0.104 0.57,0 0,0"/></g><g transform="translate(20.5714,23.5625)" id="g100"><path id="path102" style="fill:#662113;fill-opacity:1;fill-rule:nonzero;stroke:none" d="m 0,0 -0.009,0 c -0.309,0 -0.562,0.253 -0.562,0.562 l 0,0.875 C -0.571,1.747 -0.318,2 -0.009,2 L 0,2 C 0.309,2 0.562,1.747 0.562,1.437 l 0,-0.875 C 0.562,0.253 0.309,0 0,0"/></g><g transform="translate(15.4375,23.5625)" id="g104"><path id="path106" style="fill:#662113;fill-opacity:1;fill-rule:nonzero;stroke:none" d="m 0,0 -0.009,0 c -0.309,0 -0.562,0.253 -0.562,0.562 l 0,0.875 C -0.571,1.747 -0.318,2 -0.009,2 L 0,2 C 0.309,2 0.562,1.747 0.562,1.437 l 0,-0.875 C 0.562,0.253 0.309,0 0,0"/></g></g></g></g></svg>
