<?xml version="1.0" encoding="utf-8"?>
<!-- Generator: Adobe Illustrator 24.0.3, SVG Export Plug-In . SVG Version: 6.00 Build 0)  -->
<svg version="1.1" id="Layer_1" xmlns="http://www.w3.org/2000/svg" xmlns:xlink="http://www.w3.org/1999/xlink" x="0px" y="0px"
	 viewBox="0 0 128 128" style="enable-background:new 0 0 128 128;" xml:space="preserve">
<linearGradient id="leg_3_" gradientUnits="userSpaceOnUse" x1="25.87" y1="43.359" x2="53.21" y2="43.359" gradientTransform="matrix(1 0 0 -1 0 128)">
	<stop  offset="0" style="stop-color:#FFB300"/>
	<stop  offset="1" style="stop-color:#FFCA28"/>
</linearGradient>
<path id="leg_2_" style="fill:url(#leg_3_);" d="M47.57,74.98c-2.33-1.16-19.01-7.95-19.01-7.95l-2.69,11.38
	c0,0,11.93,4.07,16.12,5.74c0.72,0.29,1.25,0.92,1.4,1.68l3.24,16.41l6.28,0.01c0,0,0.3-12.28,0.3-17.28
	C53.21,78.47,50.52,76.44,47.57,74.98z"/>
<path id="pants" style="fill:#C62828;" d="M29.54,66.22c-0.85-0.31-1.71-0.45-2.56-0.45c-3.01,0-5.84,1.85-6.94,4.84
	c-1.41,3.83,0.55,8.08,4.39,9.49l9.22,3.39l5.11-13.88L29.54,66.22z"/>
<linearGradient id="arm_5_" gradientUnits="userSpaceOnUse" x1="10.42" y1="42.584" x2="36.0708" y2="42.584" gradientTransform="matrix(1 0 0 -1 0 128)">
	<stop  offset="0" style="stop-color:#FFB300"/>
	<stop  offset="1" style="stop-color:#FFCA28"/>
</linearGradient>
<path id="arm_4_" style="fill:url(#arm_5_);" d="M35.55,83.27l-4.92-12.05l-10.87,4.37l4.22,8.73c0.45,0.75,0.19,1.71-0.57,2.13
	L10.42,93.3l3.09,6.31l18.15-7.21C35.27,90.97,37.02,86.87,35.55,83.27z"/>
<path id="darkTone" style="fill:#E59600;" d="M75.06,48.64l-3.08-0.18c-0.78,0.1-4.72,0.64-5.49,1.98
	c-0.19,0.32-0.21,0.68-0.09,0.93c0.18,0.81,0.84,1.37,1.56,1.37c0.1,0,0.19-0.01,0.29-0.03c0,0,0,0,0.01,0l6.94-1.6
	c1.17-0.41,1.39-1.12,1.41-1.21c0.02-0.06,0.02-0.13,0.01-0.19C76.53,48.97,75.69,48.78,75.06,48.64z"/>
<g id="face">
	<path id="head_3_" style="fill:#FFCA28;" d="M48.29,35.97c-0.51,1.21,1.61,3.08,1.56,4.53c-0.05,1.1-2.4,1.22-2.62,1.37
		c-0.26,0.18-0.45,0.59-0.66,1.11c-0.16,0.37-0.33,0.78-0.56,1.2c-0.76,1.4-2.16,2.79-5.73,2.17c-2.35-0.4-2.55-0.53-3.29-0.64
		c-1.47-0.22-2.7,1.98-2.7,1.98s-2.87,5.18-6.52,2.96c-4.18-2.53-2.12-5.76-2.12-5.76s3.84-5.24,2.7-9.75
		c-1.09-4.31-0.71-11.27,1.48-13.41c3.43-3.33,9.71-5.01,14.09-3.12c4.91,2.13,6.74,6.51,6.3,11.36c-0.16,1.75-0.64,3.43-1.22,4.56
		C48.93,34.67,48.38,35.64,48.29,35.97z"/>
	<path id="mouth_3_" style="fill:#795548;" d="M46.57,42.98c-0.16,0.37-0.33,0.78-0.56,1.2c-0.81-0.17-1.67-0.56-2.22-1.22
		c-0.62-0.76,0.07-1.27,0.85-0.67C45.08,42.63,45.88,42.92,46.57,42.98z"/>
	
		<ellipse id="eye_1_" transform="matrix(0.2731 -0.962 0.962 0.2731 -2.1005 68.686)" style="fill:#404040;" cx="44.4" cy="35.73" rx="1.74" ry="1.13"/>
	<path id="eyebrow_1_" style="fill:#6D4C41;" d="M42.38,33.08c-0.24-0.14-0.11-0.55,0.35-0.81c0.46-0.27,1.2-0.72,2.41-0.48
		c1.29,0.27,1.77,0.85,1.85,1.36c0.12,0.69-0.4,1.25-1.3,0.53C44.59,32.78,42.72,33.27,42.38,33.08z"/>
	<g id="hairGroup_7_">
		<path id="hair_8_" style="fill:#543930;" d="M15.02,37.05c2.32-7.3-1.1-13.69,6.42-16.98c4.97-2.16,11.65,2.35,12.41,4.28
			c1.47,3.73-3.63,4.45-5.09,5.4c-2.16,1.41-2.5,10.65-8.94,14.69c-8.72,5.47-14.26,1.77-14.26,1.77S12.79,44.07,15.02,37.05z"/>
		<g id="hairHighlights_7_">
			
				<radialGradient id="SVGID_1_" cx="-36.5528" cy="-76.9075" r="18.2539" gradientTransform="matrix(-0.8297 -0.4344 0.4332 -0.8181 28.3607 -43.64)" gradientUnits="userSpaceOnUse">
				<stop  offset="0.5264" style="stop-color:#6D4C41;stop-opacity:0"/>
				<stop  offset="1" style="stop-color:#6D4C41"/>
			</radialGradient>
			<path style="fill:url(#SVGID_1_);" d="M15.77,33.52c0.73-5.79-0.61-10.7,5.67-13.44c4.97-2.17,11.65,2.35,12.41,4.28
				c1.47,3.73-3.63,4.45-5.09,5.4C26.6,31.17,15.77,33.52,15.77,33.52z"/>
			
				<radialGradient id="SVGID_2_" cx="-19.8401" cy="-91.163" r="19.5209" gradientTransform="matrix(0.8074 0.4732 -0.501 0.802 -22.4868 121.9787)" gradientUnits="userSpaceOnUse">
				<stop  offset="0" style="stop-color:#6D4C41"/>
				<stop  offset="0.5264" style="stop-color:#6D4C41;stop-opacity:0"/>
			</radialGradient>
			<path style="fill:url(#SVGID_2_);" d="M15.02,37.05c0.58-1.82,0.82-3.75,0.95-5.69c0.11-1.73,0.11-3.24,1.83-4.16
				c2.71-1.46,6.84-0.88,9.56,1.34c0.82,0.67,1.25,1.3,0.83,2.04c-0.3,0.53-0.63,1-0.86,1.59c-0.51,1.33-0.94,2.7-1.46,4.03
				c-1.24,3.19-2.96,6.33-6.05,8.26c-8.72,5.47-14.26,1.77-14.26,1.77S12.79,44.07,15.02,37.05z"/>
			
				<radialGradient id="SVGID_3_" cx="-28.2632" cy="-78.8671" r="11.1519" gradientTransform="matrix(0.806 0.4753 -1.3039 2.0685 -62.3535 210.1741)" gradientUnits="userSpaceOnUse">
				<stop  offset="0.5264" style="stop-color:#6D4C41;stop-opacity:0"/>
				<stop  offset="1" style="stop-color:#6D4C41"/>
			</radialGradient>
			<path style="fill:url(#SVGID_3_);" d="M11.51,47.41c0,0,8.03-0.59,12.01-6.59c1.59-2.4,2.46-4.62,2.92-6.16
				c0.4-1.34,2.49-6.53,4.32-7.45C30.76,27.21,17.6,33.45,11.51,47.41z"/>
		</g>
	</g>
	<g id="hairGroup_6_">
		<path id="hair_7_" style="fill:#543930;" d="M29.57,18.29c2.87-2.36,6.94-3.36,10.9-2.68c3.44,0.6,7.92,2.52,10.17,6.13
			c1.35,2.17,1.88,4.74,1.06,7.27c-0.5,1.52-1.9,2.04-1.9,2.04s-0.67-3.87-4.33-3.76c-3.85,0.12-5.28-1.01-5.28-1.01
			c0.59,3.3-0.83,4.71-1.99,5.45c-0.66,0.42-1.3,0.94-1.66,1.25c-0.19,0.16-0.31,0.12-0.33-0.1c-0.04-0.52-0.12-1.46-0.24-1.92
			c-0.38-1.54-1.57-1.29-1.58-1.29c-1.59,0.21-2.77,3.25-0.75,5.65c0.05,0.06,0.19,0.21,0.03,0.5c-1.63,2.99-5.29,2.28-5.48,2.11
			c0,0-0.01-0.01-0.01-0.01c-0.02-0.01-0.03-0.03-0.05-0.04c-0.43-0.34-0.63-0.83-0.59-1.43c0.14-2.2-0.62-3.01-1.06-4.08
			c-0.52-1.23-1.1-2.63-0.88-6.08C25.81,23.02,27.18,20.26,29.57,18.29z"/>
		
			<radialGradient id="hairHighlights_1_" cx="62.6594" cy="67.9739" r="15.9104" gradientTransform="matrix(-0.7655 -0.1731 0.1676 -0.7982 75.1568 92.8419)" gradientUnits="userSpaceOnUse">
			<stop  offset="0.5264" style="stop-color:#6D4C41;stop-opacity:0"/>
			<stop  offset="1" style="stop-color:#6D4C41"/>
		</radialGradient>
		<path id="hairHighlights_6_" style="fill:url(#hairHighlights_1_);" d="M29.57,18.29c2.87-2.36,6.94-3.36,10.9-2.68
			c3.44,0.6,7.92,2.52,10.17,6.13c1.35,2.17,1.88,4.74,1.06,7.27c-0.5,1.52-1.9,2.04-1.9,2.04s-0.67-3.87-4.33-3.76
			c-3.85,0.12-5.28-1.01-5.28-1.01c0.59,3.3-0.83,4.71-1.99,5.45c-0.66,0.42-1.3,0.94-1.66,1.25c-0.19,0.16-0.31,0.12-0.33-0.1
			c-0.04-0.52-0.12-1.46-0.24-1.92c-0.38-1.54-1.57-1.29-1.58-1.29c-1.59,0.21-2.77,3.25-0.75,5.65c0.05,0.06,0.19,0.21,0.03,0.5
			c-1.63,2.99-5.29,2.28-5.48,2.11c0,0-0.01-0.01-0.01-0.01c-0.02-0.01-0.03-0.03-0.05-0.04c-0.43-0.34-0.63-0.83-0.59-1.43
			c0.14-2.2-0.62-3.01-1.06-4.08c-0.52-1.23-1.1-2.63-0.88-6.08C25.81,23.02,27.18,20.26,29.57,18.29z"/>
	</g>
</g>
<g id="face_3_">
	<path id="head_4_" style="fill:#FFCA28;" d="M66.85,35.52c0.48,1.22-1.68,3.04-1.66,4.49c0.03,1.1,2.37,1.27,2.59,1.43
		c0.26,0.19,0.44,0.6,0.64,1.12c0.15,0.37,0.31,0.79,0.53,1.21c0.73,1.42,2.1,2.84,5.68,2.3c2.36-0.35,2.56-0.47,3.3-0.57
		c1.47-0.19,2.65,2.04,2.65,2.04s2.75,5.24,6.45,3.1c4.24-2.44,3.29-4.16,3.29-4.16s-4.77-6.87-3.53-11.35
		c1.18-4.28,0.96-11.26-1.18-13.44c-3.36-3.41-9.6-5.22-14.02-3.43c-4.96,2.02-6.88,6.36-6.55,11.22c0.12,1.75,0.56,3.44,1.12,4.59
		C66.24,34.21,66.76,35.19,66.85,35.52z"/>
	<path id="mouth_4_" style="fill:#795548;" d="M68.41,42.57c0.15,0.37,0.31,0.79,0.53,1.21c0.81-0.15,1.68-0.52,2.25-1.17
		c0.64-0.75-0.04-1.27-0.83-0.69C69.91,42.25,69.1,42.53,68.41,42.57z"/>
	
		<ellipse id="eye_3_" transform="matrix(0.9678 -0.2517 0.2517 0.9678 -6.6247 18.9454)" style="fill:#404040;" cx="70.75" cy="35.37" rx="1.13" ry="1.74"/>
	<path id="eyebrow_3_" style="fill:#6D4C41;" d="M72.82,32.76c0.25-0.14,0.12-0.54-0.33-0.82s-1.18-0.75-2.4-0.53
		c-1.29,0.24-1.79,0.81-1.88,1.32c-0.13,0.68,0.38,1.26,1.29,0.56C70.62,32.41,72.48,32.95,72.82,32.76z"/>
	<g id="hairGroup_5_">
		<path id="hair_5_" style="fill:#543930;" d="M100.09,37.34c-2.15-7.35,1.41-13.67-6.04-17.11c-4.92-2.27-11.7,2.09-12.5,4
			c-1.55,3.69,3.53,4.53,4.97,5.51c2.13,1.45,2.26,10.7,8.61,14.88c8.6,5.66,14.22,2.09,14.22,2.09S102.16,44.41,100.09,37.34z"/>
		<g id="hairHighlights_5_">
			
				<radialGradient id="SVGID_4_" cx="-49.4121" cy="-70.5306" r="18.2539" gradientTransform="matrix(0.8392 -0.4159 -0.4149 -0.8275 101.9672 -43.6997)" gradientUnits="userSpaceOnUse">
				<stop  offset="0.5264" style="stop-color:#6D4C41;stop-opacity:0"/>
				<stop  offset="1" style="stop-color:#6D4C41"/>
			</radialGradient>
			<path style="fill:url(#SVGID_4_);" d="M99.42,33.79c-0.6-5.81,0.85-10.69-5.37-13.56c-4.92-2.27-11.7,2.09-12.5,4.01
				c-1.55,3.69,3.53,4.53,4.97,5.51C88.64,31.2,99.42,33.79,99.42,33.79z"/>
			
				<radialGradient id="SVGID_5_" cx="-32.6994" cy="-84.7861" r="19.5209" gradientTransform="matrix(-0.8177 0.4552 0.4831 0.8129 122.1075 123.7467)" gradientUnits="userSpaceOnUse">
				<stop  offset="0" style="stop-color:#6D4C41"/>
				<stop  offset="0.5264" style="stop-color:#6D4C41;stop-opacity:0"/>
			</radialGradient>
			<path style="fill:url(#SVGID_5_);" d="M100.09,37.34c-0.54-1.83-0.74-3.76-0.82-5.71c-0.07-1.73-0.04-3.24-1.74-4.2
				c-2.67-1.52-6.81-1.03-9.59,1.13c-0.84,0.65-1.28,1.27-0.88,2.02c0.29,0.54,0.61,1.01,0.83,1.61c0.48,1.34,0.88,2.72,1.37,4.06
				c1.17,3.21,2.82,6.39,5.86,8.39c8.6,5.66,14.22,2.09,14.22,2.09S102.16,44.41,100.09,37.34z"/>
			
				<radialGradient id="SVGID_6_" cx="-41.1225" cy="-72.4902" r="11.1519" gradientTransform="matrix(-0.8164 0.4573 1.2577 2.0968 155.0916 204.6549)" gradientUnits="userSpaceOnUse">
				<stop  offset="0.5264" style="stop-color:#6D4C41;stop-opacity:0"/>
				<stop  offset="1" style="stop-color:#6D4C41"/>
			</radialGradient>
			<path style="fill:url(#SVGID_6_);" d="M103.37,47.77c0,0-8.02-0.77-11.86-6.86c-1.54-2.43-2.36-4.67-2.79-6.22
				c-0.38-1.35-2.35-6.59-4.16-7.55C84.57,27.15,97.59,33.69,103.37,47.77z"/>
		</g>
	</g>
	<g id="hairGroup_4_">
		<path id="hair_4_" style="fill:#543930;" d="M85.96,18.26c-2.82-2.43-6.87-3.52-10.84-2.92c-3.45,0.52-7.97,2.35-10.3,5.9
			c-1.4,2.14-1.99,4.7-1.22,7.24c0.46,1.53,1.85,2.08,1.85,2.08s0.75-3.86,4.41-3.66c3.84,0.2,5.3-0.89,5.3-0.89
			c-0.67,3.29,0.73,4.73,1.87,5.49c0.65,0.43,1.28,0.97,1.63,1.29c0.19,0.17,0.31,0.13,0.33-0.09c0.05-0.52,0.16-1.46,0.28-1.92
			c0.42-1.53,1.6-1.26,1.61-1.26c1.58,0.24,2.7,3.31,0.62,5.66c-0.05,0.06-0.19,0.21-0.04,0.5c1.56,3.02,5.24,2.4,5.43,2.23
			c0,0,0.01-0.01,0.01-0.01c0.02-0.01,0.03-0.03,0.05-0.04c0.44-0.33,0.65-0.81,0.63-1.42c-0.09-2.2,0.68-3,1.15-4.06
			c0.54-1.22,1.16-2.61,1.01-6.06C89.61,23.07,88.3,20.28,85.96,18.26z"/>
		
			<radialGradient id="hairHighlights_2_" cx="46.7011" cy="71.4561" r="15.9104" gradientTransform="matrix(0.7692 -0.1561 -0.1499 -0.8017 51.526 92.0833)" gradientUnits="userSpaceOnUse">
			<stop  offset="0.5264" style="stop-color:#6D4C41;stop-opacity:0"/>
			<stop  offset="1" style="stop-color:#6D4C41"/>
		</radialGradient>
		<path id="hairHighlights_4_" style="fill:url(#hairHighlights_2_);" d="M85.96,18.26c-2.82-2.43-6.87-3.52-10.84-2.92
			c-3.45,0.52-7.97,2.35-10.3,5.9c-1.4,2.14-1.99,4.7-1.22,7.24c0.46,1.53,1.85,2.08,1.85,2.08s0.75-3.86,4.41-3.66
			c3.84,0.2,5.3-0.89,5.3-0.89c-0.67,3.29,0.73,4.73,1.87,5.49c0.65,0.43,1.28,0.97,1.63,1.29c0.19,0.17,0.31,0.13,0.33-0.09
			c0.05-0.52,0.16-1.46,0.28-1.92c0.42-1.53,1.6-1.26,1.61-1.26c1.58,0.24,2.7,3.31,0.62,5.66c-0.05,0.06-0.19,0.21-0.04,0.5
			c1.56,3.02,5.24,2.4,5.43,2.23c0,0,0.01-0.01,0.01-0.01c0.02-0.01,0.03-0.03,0.05-0.04c0.44-0.33,0.65-0.81,0.63-1.42
			c-0.09-2.2,0.68-3,1.15-4.06c0.54-1.22,1.16-2.61,1.01-6.06C89.61,23.07,88.3,20.28,85.96,18.26z"/>
	</g>
</g>
<path id="tone_4_" style="fill:#EDA600;" d="M56.45,51.65c0.03-0.38-0.1-0.71-0.37-0.96c-1.15-1.04-5.06-0.33-5.92-0.14l-2.85,1.14
	c-0.4,0.23-1.25,0.71-1.08,1.49c0.01,0.06,0.04,0.12,0.07,0.17c0.04,0.07,0.48,0.68,1.76,0.71l7.04-0.64c0.01,0,0.01,0,0.01,0
	C55.96,53.3,56.55,52.49,56.45,51.65z"/>
<linearGradient id="arm_6_" gradientUnits="userSpaceOnUse" x1="31.51" y1="74.029" x2="68.7147" y2="74.029" gradientTransform="matrix(1 0 0 -1 0 128)">
	<stop  offset="0.5993" style="stop-color:#FFCA28"/>
	<stop  offset="1" style="stop-color:#FFB300"/>
</linearGradient>
<path id="arm_3_" style="fill:url(#arm_6_);" d="M68.63,52.09c-0.31,0.84-2.39,1.99-5.2,3.14c-0.15,0.06-0.3,0.12-0.45,0.18
	c-0.81,0.32-1.68,0.65-2.57,0.96c-0.31,0.11-0.63,0.22-0.94,0.33c-4.78,1.6-10.16,2.91-12.87,2.95h-0.01
	c-0.08,0-0.16-0.03-0.23-0.05c-0.16,0-0.31,0-0.47-0.02c-0.15-0.02-0.29-0.07-0.44-0.11v0.01l-0.39-0.08l-6.2-1.24l-7.35-1.47
	l2.65-8.21l0.06-0.19l8.27,2.94l4.28,1.52c2.14-0.29,12.86-1.76,14.54-2.13c0.77-0.16,2.31-0.36,3.78-0.36
	C67.19,50.26,69.15,50.66,68.63,52.09z"/>
<linearGradient id="shadow_2_" gradientUnits="userSpaceOnUse" x1="56.5201" y1="71.4741" x2="58.4736" y2="73.4275" gradientTransform="matrix(1 0 0 -1 0 128)">
	<stop  offset="0" style="stop-color:#FFCA28;stop-opacity:0"/>
	<stop  offset="1" style="stop-color:#FFB300"/>
</linearGradient>
<path id="shadow_1_" style="fill:url(#shadow_2_);" d="M62.98,55.41c-0.81,0.32-4.9,1.73-5.22,1.84c-1.84-0.94-4.03-3.28-4.03-3.28
	l3.5-2.13L62.98,55.41z"/>
<linearGradient id="shadow_3_" gradientUnits="userSpaceOnUse" x1="43.9078" y1="75.7688" x2="38.745" y2="73.8154" gradientTransform="matrix(1 0 0 -1 0 128)">
	<stop  offset="0" style="stop-color:#FFCA28;stop-opacity:0"/>
	<stop  offset="1" style="stop-color:#FFB300"/>
</linearGradient>
<polygon id="shadow" style="fill:url(#shadow_3_);" points="45.06,59.4 38.86,58.16 34.16,48.48 34.22,48.29 42.49,51.23 "/>
<linearGradient id="arm_7_" gradientUnits="userSpaceOnUse" x1="86.5881" y1="75.6799" x2="51.9655" y2="75.6799" gradientTransform="matrix(1 0 0 -1 0 128)">
	<stop  offset="0" style="stop-color:#FFB300"/>
	<stop  offset="0.5993" style="stop-color:#FFCA28"/>
	<stop  offset="1" style="stop-color:#FFB300"/>
</linearGradient>
<path id="arm_2_" style="fill:url(#arm_7_);" d="M85.62,47.82c-1.23-1.32-3.06-1.85-4.81-1.41c-0.05,0-0.1,0.01-0.15,0.03
	l-0.07,0.03c-0.06,0.01-0.12,0.04-0.24,0.08l-12.1,4.3c-1.85-0.3-7.42-1.17-10.33-1.07c-1.09,0.04-4.26,0.4-4.39,0.42
	c-0.1,0.01-0.2,0.06-0.28,0.13l-3.38,3.13c-0.66,0.54-0.82,1.39-0.39,1.98c0.28,0.39,0.67,0.92,6.14-1.89
	c0.46-0.23,1.01-0.24,1.48-0.01l8.13,3.97c1.18,0.58,2.45,0.87,3.73,0.87c0.51,0,1.03-0.04,1.55-0.13l11.85-2.19
	c0.45-0.03,0.88-0.12,1.26-0.25c0.06-0.01,0.12-0.04,0.17-0.07c1.13-0.44,2.02-1.23,2.58-2.3C87.33,51.62,87.02,49.31,85.62,47.82z"
	/>
<path id="tone_3_" style="fill:#EDA600;" d="M72.71,50.16c0,0-6.31-1.84-8.36,0.12l5.92,2.11c0,0,2.84,1.32,3.71-0.68
	C74.35,50.87,73.21,50.37,72.71,50.16z"/>
<linearGradient id="leg_4_" gradientUnits="userSpaceOnUse" x1="65.4529" y1="42.114" x2="94.17" y2="42.114" gradientTransform="matrix(1 0 0 -1 0 128)">
	<stop  offset="0" style="stop-color:#FFB300"/>
	<stop  offset="1" style="stop-color:#FFCA28"/>
</linearGradient>
<path id="leg_1_" style="fill:url(#leg_4_);" d="M94.17,79.23l-4.7-11.01L69.19,79.23c-3.12,1.67-4.71,5.33-3.1,9.26
	c1.73,4.23,7.14,15.06,7.14,15.06l6.64-1.26l-4.4-14.8L94.17,79.23z"/>
<path id="pants_1_" style="fill:#4300D9;" d="M93.38,72.79c-1.21-2.33-3.58-3.67-6.04-3.67c-1.05,0-2.12,0.25-3.13,0.77l-9.24,4.79
	l6.26,12.07l9.24-4.79C93.8,80.23,95.11,76.13,93.38,72.79z"/>
<linearGradient id="leg_5_" gradientUnits="userSpaceOnUse" x1="107.702" y1="34.3912" x2="89.6323" y2="53.3679" gradientTransform="matrix(1 0 0 -1 0 128)">
	<stop  offset="0" style="stop-color:#FFB300"/>
	<stop  offset="1" style="stop-color:#FFCA28"/>
</linearGradient>
<path id="leg" style="fill:url(#leg_5_);" d="M100.08,85.29l-5.61-20.68L82.29,69l8.53,21.36l0.05,0.1
	c0.26,0.64,0.64,1.25,1.15,1.78c0.67,0.69,1.48,1.15,2.34,1.42l-0.01,0.02l0.21,0.04c0.26,0.07,0.53,0.12,0.8,0.15l20.35,2.81
	l2.15-5.19L100.08,85.29z"/>
<radialGradient id="shirt_2_" cx="90.5294" cy="70.8231" r="16.5281" gradientTransform="matrix(1 0 0 -1 0 128)" gradientUnits="userSpaceOnUse">
	<stop  offset="0" style="stop-color:#651FFF"/>
	<stop  offset="0.7047" style="stop-color:#5914F2"/>
	<stop  offset="1" style="stop-color:#530EEB"/>
</radialGradient>
<path id="shirt" style="fill:url(#shirt_2_);" d="M97.47,71.74c0.28-0.83,0.4-1.76,0.44-2.83c0.21-5.88-1.03-11.99-3.72-17.79
	c-0.89-2.03-3.12-6.77-8.22-6.77c-0.25,0-0.51,0.01-0.77,0.03c-6.58,0.59-7.5,6.44-6.5,11.14c1.43,6.7,2.4,10.31,2.74,16.6
	c0.12,2.13,0.88,4.46,2.49,5.38c0.69,2.49,2.26,6,3.9,8.35c4.07-1.48,8.1-3.1,12.05-4.86C99.06,78.09,97.47,71.74,97.47,71.74z"/>
<radialGradient id="shirt_3_" cx="24.923" cy="69.7555" r="16.2998" gradientTransform="matrix(1 0 0 -1 0 128)" gradientUnits="userSpaceOnUse">
	<stop  offset="0" style="stop-color:#EF5350"/>
	<stop  offset="0.5451" style="stop-color:#EA4643"/>
	<stop  offset="0.987" style="stop-color:#E53935"/>
</radialGradient>
<path id="shirt_1_" style="fill:url(#shirt_3_);" d="M36.05,55.11c1.91-4.41,1.07-7.58-0.14-8.72c-2.02-1.91-3.98-2.07-4.96-2.35
	c-0.41-0.07-0.79-0.09-1.16-0.09c-3.74,0-6.6,2.83-8.67,7.18c-2.76,5.77-4.35,12.79-4.35,18.67c0,5.42,5.19,12.9,6.51,15.49
	c4-1.65,7.95-3.45,11.83-5.39c-0.41-1.08-1.09-2.74-1.86-4.41c0.3-0.76,0.48-1.65,0.55-2.57C34.24,67.44,33.83,61.04,36.05,55.11z"
	/>
<linearGradient id="arm_8_" gradientUnits="userSpaceOnUse" x1="31.6891" y1="82.7823" x2="51.6891" y2="61.573" gradientTransform="matrix(1 0 0 -1 0 128)">
	<stop  offset="0.5993" style="stop-color:#FFCA28"/>
	<stop  offset="1" style="stop-color:#FFB300"/>
</linearGradient>
<path id="arm_1_" style="fill:url(#arm_8_);" d="M67.14,67.44c-0.21-0.22-0.56-0.31-1.14-0.32c0.16-0.11,0.28-0.25,0.37-0.4
	c0.15-0.25,0.18-0.53,0.08-0.82c-0.28-0.85-1.73-0.67-3.55-0.43c-0.72,0.09-1.45,0.19-1.86,0.15c-0.32,0.02-1.1,0.02-1.79-0.12
	c0.03-0.01,0.07-0.03,0.1-0.04c0.77-0.34,1.65-0.73,2.02-1.3c0.38-0.56,0.14-0.95,0.02-1.09c-0.63-0.74-2.77-0.24-4.07,0.36
	c-0.74,0.33-2.71,0.58-3.43,0.54c-0.07-0.01-0.15,0-0.28,0l-9.86-3.34c-1.16-0.39-2.11-1.2-2.68-2.29l-4.86-9.27
	c-0.03-0.06-0.06-0.12-0.07-0.13l-0.05-0.09c-0.02-0.04-0.05-0.08-0.09-0.11c-0.98-1.5-2.69-2.36-4.49-2.24
	c-2.03,0.14-3.83,1.63-4.38,3.62c-0.32,1.17-0.19,2.38,0.36,3.49c0.01,0.03,0.02,0.07,0.04,0.1c0.18,0.35,0.43,0.7,0.71,0.99
	l5.93,9.24c1.12,1.75,2.85,3.03,4.85,3.59l14.58,4.09c0.06,0.02,0.12,0.02,0.18,0c0.67,0.29,1.49,0.51,2.43,0.75l0.58,0.15
	c1.65,0.45,3.74,0.77,5.46,0.77c1.65,0,2.94-0.3,3.17-1.06c0.04-0.14,0.01-0.37-0.07-0.49c-0.15-0.24-0.44-0.38-1.06-0.5
	c1.08-0.13,1.96-0.45,2.06-1.26c0.02-0.19-0.03-0.37-0.16-0.52c-0.09-0.11-0.21-0.19-0.38-0.25c0.78-0.21,1.36-0.57,1.47-1.21
	c0,0,0,0,0,0C67.34,67.78,67.28,67.58,67.14,67.44z"/>
<linearGradient id="arm_9_" gradientUnits="userSpaceOnUse" x1="61.2495" y1="59.2181" x2="84.0383" y2="76.798" gradientTransform="matrix(1 0 0 -1 0 128)">
	<stop  offset="0.5993" style="stop-color:#FFCA28"/>
	<stop  offset="1" style="stop-color:#FFB300"/>
</linearGradient>
<path id="arm" style="fill:url(#arm_9_);" d="M89.35,51.09c-0.11-1.31-0.72-2.5-1.73-3.35c-1-0.85-2.27-1.25-3.58-1.15
	c-1.5,0.13-2.87,0.95-3.7,2.22c-0.03,0.03-0.06,0.07-0.09,0.11l-0.03,0.06c-0.03,0.05-0.06,0.11-0.13,0.25l-5.7,10.87l-11.67,3.95
	c-0.09-0.01-0.18-0.02-0.25-0.01c-0.72,0.05-2.7-0.2-3.44-0.53c-1.31-0.6-3.44-1.11-4.08-0.37c-0.12,0.15-0.35,0.53,0.02,1.1
	c0.38,0.57,1.26,0.96,2.03,1.3c0.03,0.01,0.06,0.03,0.09,0.04c-0.69,0.14-1.48,0.14-1.87,0.12c-0.32,0.04-1.06-0.05-1.77-0.15
	c-1.83-0.23-3.27-0.42-3.56,0.44c-0.09,0.28-0.06,0.56,0.09,0.81c0.09,0.15,0.21,0.28,0.37,0.4c-0.2,0-0.37,0.01-0.51,0.03
	c-0.29,0.05-0.49,0.13-0.63,0.28s-0.2,0.35-0.16,0.55v0.01c0.11,0.63,0.69,0.99,1.45,1.2c0,0,0.01,0.01,0.02,0.01
	c-0.07,0.03-0.14,0.06-0.2,0.09c-0.08,0.06-0.14,0.11-0.2,0.17c-0.12,0.15-0.18,0.34-0.16,0.52c0.11,0.78,0.9,1.1,1.92,1.24
	c0.05,0.01,0.1,0.01,0.15,0.02c-0.09,0.02-0.18,0.04-0.26,0.06c-0.44,0.11-0.67,0.24-0.8,0.45c-0.08,0.12-0.11,0.35-0.07,0.48
	c0.23,0.77,1.53,1.07,3.18,1.07c1.72,0,3.8-0.32,5.45-0.77l0.58-0.15c0.92-0.24,1.73-0.45,2.4-0.74c0.07,0.01,0.14,0.01,0.21-0.01
	l15.19-4.57c0.09-0.02,0.17-0.04,0.28-0.08l0.36-0.11c0.03-0.01,0.07-0.03,0.1-0.05c0.03-0.01,0.08-0.03,0.09-0.03
	c0.81-0.36,1.49-1.01,1.87-1.77l7.42-10.24c0.33-0.36,0.58-0.71,0.78-1.08c0.02-0.05,0.04-0.09,0.05-0.14
	C89.25,52.83,89.42,51.96,89.35,51.09z"/>
<path id="tone_2_" style="fill:#EDA600;" d="M55.44,67.64c0,0.14-0.11,0.25-0.25,0.26c0,0-3.78-0.24-5.35-0.67
	c0.14-0.02,0.31-0.03,0.51-0.03c1.52,0.23,3.41,0.21,4.84,0.2C55.32,67.39,55.44,67.5,55.44,67.64z"/>
<path id="tone_1_" style="fill:#EDA600;" d="M50.32,69.37c1.57,0.36,3.43,0.5,5.02,0.57c0,0,0.01,0,0.02,0
	c0.14,0,0.24-0.12,0.24-0.26c-0.01-0.14-0.12-0.24-0.26-0.24c-1.51,0.06-3.29,0.04-4.82-0.16c-0.01,0-0.02-0.01-0.02-0.01
	L50.32,69.37z"/>
<path id="tone" style="fill:#EDA600;" d="M55.85,71.53c0.02,0.13-0.08,0.26-0.22,0.28H55.6c-1.16,0.02-2.69-0.15-3.83-0.43
	c0.08-0.02,0.17-0.04,0.26-0.06c1.13,0.11,2.51,0.13,3.53-0.01C55.7,71.29,55.83,71.39,55.85,71.53z"/>
<polygon id="sock" style="fill:#E0E0E0;" points="45.1,96.86 46.41,103.79 53.33,103.79 53.72,96.04 "/>
<path id="shoe" style="fill:#E53935;" d="M59.63,104.37l-6.38-2.12l-7.08-0.01c0,0-1.96,2.2-1.97,4.13l-0.01,2.85
	c0,0.64,0.52,1.17,1.16,1.17l15.83,0.05c0.56,0,1.02-0.46,1.02-1.02v-1.29C62.19,106.47,61.17,104.98,59.63,104.37z"/>
<polygon id="sock_1_" style="fill:#E0E0E0;" points="78.68,96.67 69.98,98.56 73.28,104.44 80.67,103.77 "/>
<linearGradient id="shoe_4_" gradientUnits="userSpaceOnUse" x1="64.24" y1="21.609" x2="82.25" y2="21.609" gradientTransform="matrix(1 0 0 -1 0 128)">
	<stop  offset="0" style="stop-color:#651FFF"/>
	<stop  offset="0.7047" style="stop-color:#5914F2"/>
	<stop  offset="1" style="stop-color:#530EEB"/>
</linearGradient>
<path id="shoe_1_" style="fill:url(#shoe_4_);" d="M82.24,106.42c0.01-1.93-1.96-4.13-1.96-4.13l-7.09,0.01l-6.38,2.12
	c-1.54,0.61-2.56,2.1-2.57,3.76v1.29c0,0.56,0.45,1.02,1.02,1.02l15.83-0.05c0.64,0,1.16-0.53,1.16-1.17L82.24,106.42z"/>
<polygon id="sock_2_" style="fill:#E0E0E0;" points="16.72,89.01 9.1,93.16 11.64,101.12 20.22,97.73 "/>
<path id="shoe_2_" style="fill:#E53935;" d="M11.76,91.97c0,0-0.51-0.05-1.24-0.05c-0.85,0-2,0.07-2.98,0.38l-2.72,0.85
	C4.21,93.34,3.86,94,4.06,94.61l4.73,15.11c0.14,0.43,0.54,0.71,0.97,0.71c0.1,0,0.21-0.02,0.31-0.05l1.22-0.39
	c1.58-0.51,2.69-1.93,2.81-3.59l0.1-6.72L11.76,91.97z"/>
<polygon id="sock_3_" style="fill:#E0E0E0;" points="110.8,88.08 107.5,96.3 116.74,98.25 118.91,91.34 "/>
<linearGradient id="shoe_5_" gradientUnits="userSpaceOnUse" x1="114.42" y1="29.279" x2="124.6127" y2="29.279" gradientTransform="matrix(1 0 0 -1 0 128)">
	<stop  offset="0" style="stop-color:#651FFF"/>
	<stop  offset="0.7047" style="stop-color:#5914F2"/>
	<stop  offset="1" style="stop-color:#530EEB"/>
</linearGradient>
<path id="shoe_3_" style="fill:url(#shoe_5_);" d="M123.8,90.7l-2.72-0.85c-0.98-0.32-2.13-0.39-2.98-0.39
	c-0.73,0-1.25,0.05-1.25,0.05l-2.43,7.72l0.1,6.72c0.12,1.66,1.23,3.08,2.81,3.59l1.22,0.39c0.1,0.03,0.21,0.05,0.31,0.05
	c0.43,0,0.83-0.28,0.97-0.71l4.73-15.11C124.75,91.55,124.41,90.89,123.8,90.7z"/>
</svg>
