<?xml version="1.0" encoding="UTF-8" standalone="no"?><svg xmlns:dc="http://purl.org/dc/elements/1.1/" xmlns:cc="http://creativecommons.org/ns#" xmlns:rdf="http://www.w3.org/1999/02/22-rdf-syntax-ns#" xmlns:svg="http://www.w3.org/2000/svg" xmlns="http://www.w3.org/2000/svg" viewBox="0 0 45 45" style="enable-background:new 0 0 45 45;" xml:space="preserve" version="1.1" id="svg2"><metadata id="metadata8"><rdf:RDF><cc:Work rdf:about=""><dc:format>image/svg+xml</dc:format><dc:type rdf:resource="http://purl.org/dc/dcmitype/StillImage"/></cc:Work></rdf:RDF></metadata><defs id="defs6"><clipPath id="clipPath16" clipPathUnits="userSpaceOnUse"><path id="path18" d="M 0,36 36,36 36,0 0,0 0,36 Z"/></clipPath></defs><g transform="matrix(1.25,0,0,-1.25,0,45)" id="g10"><g id="g12"><g clip-path="url(#clipPath16)" id="g14"><g transform="translate(32.4237,8.1878)" id="g20"><path id="path22" style="fill:#3e721d;fill-opacity:1;fill-rule:nonzero;stroke:none" d="m 0,0 c 0,0 0.59,-1.186 1.777,-0.594 1.186,0.591 0.293,-2.075 0.293,-2.075 0,0 -2.887,-0.123 -4.931,-0.019 -1.872,0.095 -0.698,0.915 0.488,1.506 C -1.186,-0.591 0,0 0,0"/></g><g transform="translate(26.5058,22.6408)" id="g24"><path id="path26" style="fill:#f9ca55;fill-opacity:1;fill-rule:nonzero;stroke:none" d="m 0,0 c -0.655,-1.039 -1.508,-2.081 -2.078,-2.228 -0.428,-0.111 -1.28,-0.318 -1.848,-0.663 -0.567,-0.346 -0.482,-0.7 0.255,-1.063 0.737,-0.364 1.703,-0.21 2.208,0.352 0.505,0.562 1.834,1.453 2.656,1.981 C 2.014,-1.094 0.492,0.781 0,0"/></g><g transform="translate(26.2588,22.137)" id="g28"><path id="path30" style="fill:#f9ca55;fill-opacity:1;fill-rule:nonzero;stroke:none" d="M 0,0 C 0.287,0.48 0.958,1.044 0.958,1.044 L 0.572,3.517 3.601,3.397 c 0,0 -0.422,-2.559 -0.549,-3.138 C 2.925,-0.32 1.747,-1.073 0.965,-1.406 0.184,-1.74 -0.321,-0.537 0,0"/></g><g transform="translate(31.5,12.1875)" id="g32"><path id="path34" style="fill:#f9ca55;fill-opacity:1;fill-rule:nonzero;stroke:none" d="m 0,0 c 0,0 -3.501,1.299 -3.501,0.375 0,-0.923 3.251,-2.563 4.438,-4.562 0.48,-0.808 2.23,-1.372 1.876,0.374 C 2.126,-0.433 0,0 0,0"/></g><g transform="translate(28.9903,12.5529)" id="g36"><path id="path38" style="fill:#f9ca55;fill-opacity:1;fill-rule:nonzero;stroke:none" d="m 0,0 c 0,0 1.303,-1.516 2.135,-1.115 0.831,0.401 2.445,3.768 2.875,5 C 5.44,5.117 4.519,7.621 3.258,5.988 1.997,4.355 0,0 0,0"/></g><g transform="translate(35.1014,18.3768)" id="g40"><path id="path42" style="fill:#3e721d;fill-opacity:1;fill-rule:nonzero;stroke:none" d="M 0,0 -6.101,-2.376 -2.246,-4.456 0,0 Z"/></g><g transform="translate(27.999,16.0005)" id="g44"><path id="path46" style="fill:#ffdc5d;fill-opacity:1;fill-rule:nonzero;stroke:none" d="m 0,0 c 0,0 -2,-3.001 -2,-4.001 0,-1 1,-4 1,-7 0,-3 2,-3 2,-2 0,1 1.581,5.419 0,7 C 0,-5.001 3,-2 3,-2 L 0,0 Z"/></g><g transform="translate(29.999,20.0005)" id="g48"><path id="path50" style="fill:#77b255;fill-opacity:1;fill-rule:nonzero;stroke:none" d="m 0,0 -2.624,-5.001 3,-1.937 c 0,0 5.56,5.017 5.56,7.017 0,2.797 -2.498,3.733 -2.498,3.733 L 0,0 Z"/></g><g transform="translate(26.9949,30.9462)" id="g52"><path id="path54" style="fill:#ffdc5d;fill-opacity:1;fill-rule:nonzero;stroke:none" d="M 0,0 1.014,-2.162 -1.548,-3.198 -2.605,-1.427 0,0 Z"/></g><g transform="translate(27.4743,31.1442)" id="g56"><path id="path58" style="fill:#ffdc5d;fill-opacity:1;fill-rule:nonzero;stroke:none" d="m 0,0 c -0.178,-1.588 -1.526,-2.277 -2.88,-2.804 -1.291,-0.502 -2.363,1.756 -2.536,3.334 -0.175,1.588 1.68,2.799 3.124,2.638 C -0.848,3.006 0.178,1.588 0,0"/></g><g transform="translate(22.5,22.5625)" id="g60"><path id="path62" style="fill:#ffdc5d;fill-opacity:1;fill-rule:nonzero;stroke:none" d="m 0,0 c -1.312,-0.875 -2.813,-2.5 -3.625,-2.625 -0.988,-0.152 -1.687,0.938 -2.59,-0.366 -0.57,-0.822 0.34,-1.696 2.215,-1.696 1.079,0 4.091,1.626 5.25,2.437 1.25,0.875 1.529,1.867 1.982,3.061 0.143,0.376 0.518,-0.561 1.393,-0.998 1.45,-0.726 2.437,-1.438 3,-2.313 2.688,1.438 4.438,3 4.438,3 C 10.5,2.25 9.595,4.168 8,5.375 5.479,7.283 4.411,6.128 2.618,5.241 1.35,4.614 0.75,2.875 0,0"/></g><g transform="translate(30.0625,19.8125)" id="g64"><path id="path66" style="fill:#77b255;fill-opacity:1;fill-rule:nonzero;stroke:none" d="M 0,0 C 2.688,1.437 4.5,3.25 4.5,3.25 2.938,5 2.033,6.918 0.437,8.125 0.084,8.392 -0.238,8.594 -0.541,8.75 -0.415,8.521 -0.435,8.28 -0.875,8.125 -1.827,7.789 -2.931,8.402 -4.094,8.443 -4.299,8.331 -4.51,8.215 -4.731,8.101 -3.752,7.98 -2.649,6.778 -2.438,5.562 -2.224,4.334 -2.65,3.202 -3.169,2.702 -3.095,2.653 -3.02,2.604 -2.938,2.563 -1.487,1.837 -0.562,0.875 0,0"/></g><g transform="translate(26.9282,4.2269)" id="g68"><path id="path70" style="fill:#77b255;fill-opacity:1;fill-rule:nonzero;stroke:none" d="m 0,0 c 0,0 0.705,-1.226 1.931,-0.52 1.225,0.705 0.445,-2.192 0.445,-2.192 0,0 -3.417,-1.15 -5.348,-0.63 -1.931,0.521 -0.705,1.226 0.52,1.931 C -1.226,-0.705 0,0 0,0"/></g><g transform="translate(22.5291,33.7269)" id="g72"><path id="path74" style="fill:#ffac33;fill-opacity:1;fill-rule:nonzero;stroke:none" d="M 0,0 C 1.834,1.344 3.143,1.244 4.286,0.461 5.422,-0.316 5.594,-1.935 5.373,-2.991 5.152,-4.047 4.847,-4.013 4.847,-4.013 c 0,0 -1.404,-0.431 -1.609,0.886 -0.065,0.417 0.384,0.678 -0.169,1.254 -0.356,0.371 -1.067,0.12 -1.028,-0.451 0.039,-0.57 -0.26,-0.485 -0.26,-0.485 l -0.97,1.446 c 0,0 -0.743,-0.012 -1.103,-0.722 C -0.518,-2.53 -1.602,-1.173 0,0"/></g><g transform="translate(10.0886,7.8718)" id="g76"><path id="path78" style="fill:#2a6797;fill-opacity:1;fill-rule:nonzero;stroke:none" d="m 0,0 c 0,0 -0.736,-1.102 -1.838,-0.365 -1.102,0.737 -0.553,-2.021 -0.553,-2.021 0,0 2.849,-0.486 4.89,-0.642 1.868,-0.142 0.807,0.82 -0.294,1.555 C 1.102,-0.736 0,0 0,0"/></g><g transform="translate(3.8522,4.7004)" id="g80"><path id="path82" style="fill:#4289c1;fill-opacity:1;fill-rule:nonzero;stroke:none" d="m 0,0 c 0,0 -0.924,-1.07 -1.994,-0.146 -1.07,0.925 -0.852,-2.067 -0.852,-2.067 0,0 3.137,-1.776 5.132,-1.631 1.995,0.146 0.924,1.07 -0.146,1.995 C 1.07,-0.925 0,0 0,0"/></g><g transform="translate(7.75,28.1875)" id="g84"><path id="path86" style="fill:#4289c1;fill-opacity:1;fill-rule:nonzero;stroke:none" d="m 0,0 c 2.732,0.311 3.272,-0.58 3.692,-1.405 0.978,-1.92 -0.87,-3.333 -1.341,-4.022 -0.471,-0.688 -2.862,-2.717 -3.152,-3.84 -0.29,-1.123 0.145,-1.123 0.906,-1.667 0.761,-0.543 3.413,-1.863 3.812,-2.733 0.398,-0.869 0.268,-1.457 -0.167,-2.146 -0.435,-0.688 -1.574,-3.875 -1.502,-4.709 0,0 -0.978,-0.833 -1.884,-0.072 0,0 0.073,2.681 0.254,3.695 0.181,1.015 0.569,1.805 0.569,1.805 l -2.531,0.844 c 0,0 0.507,-1.394 0.471,-2.046 -0.036,-0.652 -0.874,-1.908 -1.232,-2.355 -0.58,-0.725 -1.774,-3.331 -1.793,-4.836 0,0 -0.89,-1.214 -1.994,-0.146 0,0 -0.017,2.482 0.128,3.46 0.144,0.978 1.268,3.08 1.521,3.551 0.254,0.471 -0.373,0.881 -0.663,1.497 -0.29,0.616 -2.018,2.959 -2.018,4.264 0,1.304 0.652,3.297 1.16,4.021 0.507,0.725 1.53,3.522 1.775,4.312 C -3.518,-1.006 -1.921,-0.218 0,0"/></g><g transform="translate(6.2187,14.4375)" id="g88"><path id="path90" style="fill:#ffdc5d;fill-opacity:1;fill-rule:nonzero;stroke:none" d="m 0,0 c 0,0 -2.293,-0.614 -3.344,-1.43 0.266,-0.626 0.649,-1.389 0.395,-1.86 -0.253,-0.471 -1.139,-2.155 -1.284,-3.133 -0.145,-0.978 -0.128,-3.46 -0.128,-3.46 1.105,-1.068 1.994,0.146 1.994,0.146 0.019,1.505 1.213,4.111 1.793,4.836 0.358,0.447 1.196,1.703 1.232,2.355 0.036,0.652 -0.398,1.92 -0.398,1.92 L 0,0 Z"/></g><g transform="translate(11.6667,14.5209)" id="g92"><path id="path94" style="fill:#f9ca55;fill-opacity:1;fill-rule:nonzero;stroke:none" d="M 0,0 C -0.245,0.534 -1.337,1.236 -2.321,1.825 -3.185,1.196 -3.975,-0.582 -4.135,-0.958 l 1.343,-0.563 c 0,0 -0.326,-0.696 -0.507,-1.711 -0.181,-1.014 -0.254,-3.696 -0.254,-3.696 0.906,-0.76 1.884,0.073 1.884,0.073 -0.072,0.833 1.067,4.021 1.502,4.709 C 0.268,-1.458 0.398,-0.87 0,0"/></g><g transform="translate(3.4062,24.7187)" id="g96"><path id="path98" style="fill:#ffdc5d;fill-opacity:1;fill-rule:nonzero;stroke:none" d="M 0,0 C -0.156,-1.156 1,-1.469 2,-1.062 3,-0.656 3.813,0.031 4,1.094 4.121,1.782 3.781,3.375 2.75,3.156 1.362,2.862 0.243,1.798 0,0"/></g><g transform="translate(9.8125,28.1563)" id="g100"><path id="path102" style="fill:#f9ca55;fill-opacity:1;fill-rule:nonzero;stroke:none" d="M 0,0 C 0.969,-0.125 1.687,-0.594 2,-1.531 2.313,-2.469 2.732,-5.24 2.844,-5.5 c 0.094,-0.219 0.281,-0.469 0.625,-0.313 0.344,0.157 1.5,0.375 2.093,0.438 0.594,0.062 0.594,0.875 1.375,1.156 0.782,0.281 1.657,-0.25 1.688,-1.031 C 8.656,-6.031 8.438,-6.375 7.437,-6.563 6.437,-6.75 5.812,-7.031 5.5,-7.188 5.187,-7.344 2.375,-8.188 1.969,-8.094 1.562,-8 0.289,-5.395 0.289,-5.395 l 0.773,1.051 c 0,0 -0.496,0.58 -0.218,1.344 C 1.344,-1.625 0,0 0,0"/></g><g transform="translate(3.5312,24.875)" id="g104"><path id="path106" style="fill:#ffdc5d;fill-opacity:1;fill-rule:nonzero;stroke:none" d="M 0,0 C -0.036,-0.844 0.344,-4 0.375,-4.5 0.406,-5 4.344,-6.75 4.719,-6.906 5.094,-7.062 5.812,-8 6.375,-8.031 6.938,-8.063 8.531,-7.781 8,-6.906 7.469,-6.031 6.563,-5.5 5.875,-5.562 5.187,-5.625 3.344,-3.844 2.938,-3.688 2.531,-3.531 2.375,-3.313 2.531,-2.844 2.688,-2.375 3.281,-0.219 3.344,0.469 3.406,1.156 0.062,1.469 0,0"/></g><g transform="translate(7.5312,13.5625)" id="g108"><path id="path110" style="fill:#2a6797;fill-opacity:1;fill-rule:nonzero;stroke:none" d="M 0,0 C -0.094,-0.031 -1.125,0.375 -1.125,0.375 L -1.969,2.531 0.437,1.125 c 0,0 -0.125,-0.313 -0.25,-0.563 C 0.062,0.312 0,0 0,0"/></g><g transform="translate(9.0312,28.2813)" id="g112"><path id="path114" style="fill:#ffdc5d;fill-opacity:1;fill-rule:nonzero;stroke:none" d="m 0,0 c 0.281,-0.031 0.793,-1.064 0.844,-1.5 0.093,-0.813 -0.906,-1.156 -1.469,-0.187 -0.562,0.968 -0.812,1.406 -1.281,1.5 0,0 0.5,0.125 0.969,0.156 C -0.469,0 0,0 0,0"/></g><g transform="translate(8.3395,30.1962)" id="g116"><path id="path118" style="fill:#ffdc5d;fill-opacity:1;fill-rule:nonzero;stroke:none" d="m 0,0 -0.965,-2.102 2.094,-1.313 1,1.875 L 0,0 Z"/></g><g transform="translate(7.8601,30.3942)" id="g120"><path id="path122" style="fill:#ffdc5d;fill-opacity:1;fill-rule:nonzero;stroke:none" d="M 0,0 C 0.178,-1.588 1.719,-2.737 3.015,-2.863 4.461,-3.004 5.228,-1.065 5.409,0.566 5.586,2.154 3.736,3.329 2.292,3.168 0.848,3.006 -0.178,1.588 0,0"/></g><g transform="translate(13.0241,32.9769)" id="g124"><path id="path126" style="fill:#ffac33;fill-opacity:1;fill-rule:nonzero;stroke:none" d="m 0,0 c -1.524,1.273 -3.143,1.244 -4.286,0.461 -1.136,-0.777 -1.308,-2.396 -1.087,-3.452 0.221,-1.056 0.38,-0.892 0.38,-0.892 0,0 0.344,0.125 0.438,0.562 0.088,0.413 -0.21,0.768 0.343,1.344 0.356,0.371 0.571,-0.273 0.532,-0.844 -0.039,-0.57 0.312,-0.25 0.312,-0.25 l 0.625,1.219 c 0,0 0.622,-0.584 1.813,-0.187 0.843,0.281 1.187,0.281 1.125,-0.5 C 0.851,-1.414 0.54,-0.451 0,0"/></g></g></g></g></svg>
