<?xml version="1.0" encoding="UTF-8" standalone="no"?><svg xmlns:dc="http://purl.org/dc/elements/1.1/" xmlns:cc="http://creativecommons.org/ns#" xmlns:rdf="http://www.w3.org/1999/02/22-rdf-syntax-ns#" xmlns:svg="http://www.w3.org/2000/svg" xmlns="http://www.w3.org/2000/svg" viewBox="0 0 45 45" style="enable-background:new 0 0 45 45;" xml:space="preserve" version="1.1" id="svg2"><metadata id="metadata8"><rdf:RDF><cc:Work rdf:about=""><dc:format>image/svg+xml</dc:format><dc:type rdf:resource="http://purl.org/dc/dcmitype/StillImage"/></cc:Work></rdf:RDF></metadata><defs id="defs6"><clipPath id="clipPath16" clipPathUnits="userSpaceOnUse"><path id="path18" d="M 0,36 36,36 36,0 0,0 0,36 Z"/></clipPath></defs><g transform="matrix(1.25,0,0,-1.25,0,45)" id="g10"><g id="g12"><g clip-path="url(#clipPath16)" id="g14"><g transform="translate(10,11)" id="g20"><path id="path22" style="fill:#d1d3d4;fill-opacity:1;fill-rule:nonzero;stroke:none" d="m 0,0 c 0,2.209 -0.896,4 -2,4 -1.104,0 -2,2 -2,-3 0,-2.209 1,-5 3,-5 1.105,0 1,0 1,4"/></g><g transform="translate(26.0029,11)" id="g24"><path id="path26" style="fill:#d1d3d4;fill-opacity:1;fill-rule:nonzero;stroke:none" d="M 0,0 C 0,2.209 0.896,4 2,4 3.105,4 4,6 4,1 4,-1.209 3,-4 1,-4 -0.104,-4 0,-4 0,0"/></g><g transform="translate(6,17.4375)" id="g28"><path id="path30" style="fill:#af7e57;fill-opacity:1;fill-rule:nonzero;stroke:none" d="M 0,0 C 0,8.526 5.373,15.438 12,15.438 18.627,15.438 24,8.526 24,0 24,-9.438 17,-15.438 12,-15.438 7,-15.438 0,-9.438 0,0"/></g><g transform="translate(5,22)" id="g32"><path id="path34" style="fill:#d1d3d4;fill-opacity:1;fill-rule:nonzero;stroke:none" d="M 0,0 C 0,2.209 0.896,4 2,4 3.104,4 4,2.209 4,0 4,-2.209 3.104,-4 2,-4 0.896,-4 0,-8 0,0"/></g><g transform="translate(8,15)" id="g36"><path id="path38" style="fill:#af7e57;fill-opacity:1;fill-rule:nonzero;stroke:none" d="M 0,0 C 0,-2.209 -1.119,-4 -2.5,-4 -3.881,-4 -5,-2.209 -5,0 -5,2.21 -3.881,4.001 -2.5,4.001 -1.119,4.001 0,2.21 0,0"/></g><g transform="translate(27,22)" id="g40"><path id="path42" style="fill:#d1d3d4;fill-opacity:1;fill-rule:nonzero;stroke:none" d="M 0,0 C 0,2.209 0.896,4 2,4 3.105,4 4,2.209 4,0 4,-4 3.105,-4 2,-4 0.896,-4 0,-2.209 0,0"/></g><g transform="translate(33,15)" id="g44"><path id="path46" style="fill:#af7e57;fill-opacity:1;fill-rule:nonzero;stroke:none" d="M 0,0 C 0,-2.209 -1.119,-4 -2.5,-4 -3.881,-4 -5,-2.209 -5,0 -5,2.21 -3.881,4.001 -2.5,4.001 -1.119,4.001 0,2.21 0,0"/></g><g transform="translate(30.9609,26)" id="g48"><path id="path50" style="fill:#dd2e44;fill-opacity:1;fill-rule:nonzero;stroke:none" d="m 0,0 c 0.016,0.185 0.039,0.368 0.039,0.556 0,5.215 -5.825,9.444 -13.011,9.444 -7.186,0 -13.011,-4.229 -13.011,-9.444 0,-0.188 0.024,-0.371 0.038,-0.556 L 0,0 Z"/></g><g transform="translate(18,5.3486)" id="g52"><path id="path54" style="fill:#dd2e44;fill-opacity:1;fill-rule:nonzero;stroke:none" d="M 0,0 C -2.42,0 -4.274,0.687 -4.352,0.715 -4.869,0.909 -5.13,1.486 -4.936,2.003 -4.742,2.52 -4.167,2.782 -3.65,2.588 -3.634,2.582 -2.04,2 0,2 2.041,2 3.635,2.582 3.65,2.588 4.166,2.782 4.744,2.517 4.936,2.001 5.129,1.484 4.868,0.909 4.352,0.715 4.274,0.687 2.421,0 0,0"/></g><g transform="translate(19,10)" id="g56"><path id="path58" style="fill:#915a34;fill-opacity:1;fill-rule:nonzero;stroke:none" d="m 0,0 -2,0 c -0.553,0 -1,0.447 -1,1 0,0.553 0.447,1 1,1 L 0,2 C 0.553,2 1,1.553 1,1 1,0.447 0.553,0 0,0"/></g><g transform="translate(12,13)" id="g60"><path id="path62" style="fill:#60352a;fill-opacity:1;fill-rule:nonzero;stroke:none" d="m 0,0 c -0.552,0 -1,0.447 -1,1 l 0,2 C -1,3.553 -0.552,4 0,4 0.552,4 1,3.553 1,3 L 1,1 C 1,0.447 0.552,0 0,0"/></g><g transform="translate(24,13)" id="g64"><path id="path66" style="fill:#60352a;fill-opacity:1;fill-rule:nonzero;stroke:none" d="m 0,0 c -0.553,0 -1,0.447 -1,1 l 0,2 C -1,3.553 -0.553,4 0,4 0.553,4 1,3.553 1,3 L 1,1 C 1,0.447 0.553,0 0,0"/></g><g transform="translate(22,25)" id="g68"><path id="path70" style="fill:#f1f2f2;fill-opacity:1;fill-rule:nonzero;stroke:none" d="m 0,0 c 0,-2.21 -1.79,-4 -4,-4 -2.21,0 -4,1.79 -4,4 0,2.209 1.79,4 4,4 2.21,0 4,-1.791 4,-4"/></g><g transform="translate(15,24.5)" id="g72"><path id="path74" style="fill:#f1f2f2;fill-opacity:1;fill-rule:nonzero;stroke:none" d="M 0,0 C 0,-1.934 -1.566,-3.5 -3.5,-3.5 -5.434,-3.5 -7,-1.934 -7,0 -7,1.934 -5.434,3.5 -3.5,3.5 -1.566,3.5 0,1.934 0,0"/></g><g transform="translate(9,24)" id="g76"><path id="path78" style="fill:#f1f2f2;fill-opacity:1;fill-rule:nonzero;stroke:none" d="m 0,0 c 0,-1.657 -1.343,-3 -3,-3 -1.657,0 -3,1.343 -3,3 0,1.657 1.343,3 3,3 1.657,0 3,-1.343 3,-3"/></g><g transform="translate(28,24.5)" id="g80"><path id="path82" style="fill:#f1f2f2;fill-opacity:1;fill-rule:nonzero;stroke:none" d="M 0,0 C 0,-1.934 -1.566,-3.5 -3.5,-3.5 -5.434,-3.5 -7,-1.934 -7,0 -7,1.934 -5.434,3.5 -3.5,3.5 -1.566,3.5 0,1.934 0,0"/></g><g transform="translate(33,24)" id="g84"><path id="path86" style="fill:#f1f2f2;fill-opacity:1;fill-rule:nonzero;stroke:none" d="m 0,0 c 0,-1.657 -1.343,-3 -3,-3 -1.657,0 -3,1.343 -3,3 0,1.657 1.343,3 3,3 1.657,0 3,-1.343 3,-3"/></g><g transform="translate(27,12)" id="g88"><path id="path90" style="fill:#d1d3d4;fill-opacity:1;fill-rule:nonzero;stroke:none" d="M 0,0 C 0,-1.104 -1.567,-2 -3.5,-2 -5.433,-2 -7,-1.104 -7,0 -7,1.105 -5.433,2 -3.5,2 -1.567,2 0,1.105 0,0"/></g><g transform="translate(16,12)" id="g92"><path id="path94" style="fill:#d1d3d4;fill-opacity:1;fill-rule:nonzero;stroke:none" d="M 0,0 C 0,-1.104 -1.567,-2 -3.5,-2 -5.433,-2 -7,-1.104 -7,0 -7,1.105 -5.433,2 -3.5,2 -1.567,2 0,1.105 0,0"/></g><g transform="translate(33,24)" id="g96"><path id="path98" style="fill:#f1f2f2;fill-opacity:1;fill-rule:nonzero;stroke:none" d="m 0,0 c 0,1.657 -30,1.657 -30,0 0,-1.657 1.343,-3 3,-3 l 24,0 c 1.657,0 3,1.343 3,3"/></g></g></g></g></svg>
