<?xml version="1.0" encoding="UTF-8" standalone="no"?><svg xmlns:dc="http://purl.org/dc/elements/1.1/" xmlns:cc="http://creativecommons.org/ns#" xmlns:rdf="http://www.w3.org/1999/02/22-rdf-syntax-ns#" xmlns:svg="http://www.w3.org/2000/svg" xmlns="http://www.w3.org/2000/svg" viewBox="0 0 45 45" style="enable-background:new 0 0 45 45;" xml:space="preserve" version="1.1" id="svg2"><metadata id="metadata8"><rdf:RDF><cc:Work rdf:about=""><dc:format>image/svg+xml</dc:format><dc:type rdf:resource="http://purl.org/dc/dcmitype/StillImage"/></cc:Work></rdf:RDF></metadata><defs id="defs6"><clipPath id="clipPath16" clipPathUnits="userSpaceOnUse"><path id="path18" d="M 0,36 36,36 36,0 0,0 0,36 Z"/></clipPath></defs><g transform="matrix(1.25,0,0,-1.25,0,45)" id="g10"><g id="g12"><g clip-path="url(#clipPath16)" id="g14"><g transform="translate(19.5982,35.6744)" id="g20"><path id="path22" style="fill:#be1931;fill-opacity:1;fill-rule:nonzero;stroke:none" d="m 0,0 c 9.613,0 12.243,-1.697 12.243,-11.312 0,-5.506 -1.167,-8.488 -1.167,-13.488 0,-2.958 -4.551,-3 -8.659,-3 -4.218,0 -9.142,-0.199 -11.341,2 -6,6 -10.545,16.449 -2,19 C -10.469,-0.288 -9.614,0 0,0"/></g><g transform="translate(26.7359,10)" id="g24"><path id="path26" style="fill:#99aab5;fill-opacity:1;fill-rule:nonzero;stroke:none" d="m 0,0 c 2.23,0 4.264,-0.858 4.264,-2.903 l 0,-3.519 C 4.264,-8.467 2.23,-10 0,-10 l -11.736,0 0,10 L 0,0 Z"/></g><g transform="translate(22.3414,10)" id="g28"><path id="path30" style="fill:#ccd6dd;fill-opacity:1;fill-rule:nonzero;stroke:none" d="m 0,0 c 2.454,0 4.659,-0.858 4.659,-2.903 l 0,-3.519 C 4.659,-8.467 2.454,-10 0,-10 l -7.333,0 c -2.455,0 -4.008,1.533 -4.008,3.578 l 0,3.519 c 0,2.045 1.553,2.903 4.008,2.903 L 0,0 Z"/></g><g transform="translate(4.2916,25.0523)" id="g32"><path id="path34" style="fill:#a0041e;fill-opacity:1;fill-rule:nonzero;stroke:none" d="m 0,0 c 0.715,0.575 1.862,1.424 2.383,-1.178 1,-5 3.794,-9.384 3,-7 -1,3 -1,12 -1,12 C 1.947,3.095 0.578,1.725 0,0"/></g><g transform="translate(21.6744,8)" id="g36"><path id="path38" style="fill:#e1e8ed;fill-opacity:1;fill-rule:nonzero;stroke:none" d="m 0,0 c 1.104,0 2.326,-0.538 2.326,-1.459 l 0,-3.333 C 2.326,-5.712 1.104,-6 0,-6 l -5,0 c -1.105,0 -1.674,0.288 -1.674,1.208 l 0,3.333 C -6.674,-0.538 -6.105,0 -5,0 l 5,0 z"/></g></g></g></g></svg>
