<svg xmlns="http://www.w3.org/2000/svg" viewBox="0 0 64 64" enable-background="new 0 0 64 64"><path d="m57 58.3c-.2 2.1-2.1 3.7-4.1 3.7h-41.8c-2.1 0-4-1.7-4.1-3.7l-5-52.6c-.2-2 1.4-3.7 3.5-3.7h53.1c2.1 0 3.6 1.7 3.4 3.7l-5 52.6" fill="#e8e8e8"/><path d="m54.1 46.1c-6.3 0-12.2 3.8-12.2 3.8s11.4-1.8 10.3-.9c-8.5 6.4-34 6.2-39 .5-2.7-3.1 17.2 4.3 21.1-3.3h-24.4c-1 0-1.8.8-1.6 1.9l1.3 9.4c.1 1 1.1 1.9 2.1 1.9h40.4c1 0 2-.8 2.1-1.9l1.3-9.4c.3-1.2.2-2-1.4-2" fill="#b2c1c0"/><path d="m56.9 31.1c.1-1-.7-1.9-1.7-1.9h-46.4c-1 0-1.8.8-1.7 1.9l1.1 11.3c.1 1 1 1.9 2.1 1.9h43.6c1 0 2-.8 2.1-1.9l.9-11.3" fill="#89664c"/><g fill="#e8e8e8"><path d="m18.5 55.3c-3.6-.7-7.4-4.1-7.2-1.2.4 5 1.6 3 12.7 3s-4.3-1.5-5.5-1.8"/><path d="m46.1 55.3c3.6-.7 7.4-4.1 7.2-1.2-.4 5-1.6 3-12.7 3s4.3-1.5 5.5-1.8"/></g><path d="m53.6 41.4c0-.5 0-.9-21.6-.9-21.7 0-21.6.4-21.6.9s-.1.9 21.6.9c21.6 0 21.6-.4 21.6-.9" opacity=".67" fill="#594640"/><path d="m51.7 40.4c1 .2 2-.5 2.1-1.5l.7-5.9c.1-1.1-.7-1.9-1.7-1.9h-42.5c-1.1 0-1.1.3 0 .5 0 0 5.7.3 11.3 1.4 3.9.8 5.3 2.1 9.9 3.1 4.4.9 6.6.5 10.7 1.3 5 1.1 9.5 3 9.5 3" opacity=".67" fill="#ff8736"/><path d="m45.1 40.4c0 1 .8 1.9 1.7 1.9h5.5c1 0 1.9-.8 2-1.9 1-8 2.9-25.8 3.9-33.8.1-1-.6-1.9-1.6-1.9h-9.1c-1 0-1.8.8-1.8 1.9-.1 8.1-.4 25.9-.6 33.8" opacity=".5" fill="#fff"/><path d="m31.9 27.7c.3-1.1 0-2.9-.6-3.9l-3.7-6.4c-.6-1-1.9-1.6-3-1.3l-7.3 1.9c-1.1.3-2.4 1.4-2.8 2.4l-2.8 6.1c-.3.7-.4 1.7-.1 2.6h20l.3-1.4" opacity=".5" fill="#b2c1c0"/><path d="m16.5 37.2c.6 1 2 1.5 3.1 1.2l8.4-2.2c1.1-.3 2.2-1.4 2.5-2.6l1.1-4.6h-20c.1.4.2.8.4 1.1l4.5 7.1" opacity=".5" fill="#ff8736"/><path d="m14.1 31.7c1.3 2.3 3.1 6 4.8 5.5 1.7-.5 6.5-1.7 7.4-2 .9-.2 1.2-1.8-3.5-.5-4.8 1.3-6-.8-7.7-3.5-1.7-2.6-2.3-1.7-1 .5" opacity=".67" fill="#89664c"/><path d="m51 27.7l-4.7-4.9c-.7-.7-2.1-1.2-3.1-1.1l-5.9.6c-1 .1-2.2 1-2.7 1.9l-2.4 5h19.5c-.1-.6-.3-1.1-.7-1.5" opacity=".5" fill="#b2c1c0"/><path d="m31.7 34l5.4 5.6c.7.7 2.1 1.1 3 .8l5.2-1.6c1-.3 2.2-1.3 2.7-2.2l3.3-5.8c.2-.4.3-1 .3-1.5h-19.4l-.9 1.7c-.4.9-.3 2.3.4 3" opacity=".5" fill="#ff8736"/><path d="m34.4 26.6c-1.2 2.1-3.2 5.1-2.1 6.3 1.1 1.2 4.2 4.3 4.8 4.9.6.6 1.9.2-1.2-3-3.1-3.2-2-5-.7-7.6 1.4-2.6.4-2.7-.8-.6" opacity=".67" fill="#89664c"/><path d="m42.9 31.9c0 1.9-5.5 7.3-3.8 7.5 1.2.1 3.3-5.1 5.4-6.7 1.3-1 3.4-1.3 5.1-2.1 2.1-1.1.5-1.5-2.2-.4-1.5.6-2.9-.2-4-1h-1.8c.8.9 1.3 1.8 1.3 2.7" opacity=".5" fill="#ffce31"/><path d="m42.1 27.9c0 0-3.8-5-4.7-4.1-.8.8 2.3 3.1 4.2 5.4h1.8c-.8-.7-1.3-1.3-1.3-1.3" fill="#fff"/><path d="m29 34.3c.5-.7-.8-2.8-1.9-5.1h-1.2c1.2 2.7 2.3 6.1 3.1 5.1" opacity=".5" fill="#ffce31"/><path d="m26.5 19.2c.2-2.7-1.1-1.3-1.6 1.9-.5 3.2-5.2 3.9-5.2 3.9s-6.9.9-6.6 2.3c.5 1.8 8-2.5 10.9-.9.6.3 1.2 1.5 1.8 2.8h1.2c-.7-1.4-1.3-2.8-1.4-3.9-.2-1.8.7-4 .9-6.1" fill="#fff"/><g opacity=".5"><path d="m11.1 42.5c1.2 0 .7-8.4-.2-18.9-.8-10.4-2.2-18.9-3-18.9-1.4 0-.7 8.4.2 18.9.8 10.4 2.2 18.9 3 18.9" fill="#fff"/></g></svg>