<svg xmlns="http://www.w3.org/2000/svg" viewBox="0 0 64 64" enable-background="new 0 0 64 64"><path fill="#ed4c5c" d="m60.1 52.1l-28.1 6.4-28.1-6.4v-17.9h56.2z"/><path d="m32 37.7c0 0-23.4-.6-30-10.4v5.7c0 0 3.2 8.5 30 8.5 26.8 0 30-8.5 30-8.5v-5.7c-6.6 9.8-30 10.4-30 10.4" fill="#b2c1c0"/><path d="m32 16.9c-16.6 0-30 4.7-30 10.4s13.4 10.4 30 10.4c16.6 0 30-4.7 30-10.4s-13.4-10.4-30-10.4" fill="#e8e8e8"/><path d="m32 56.6c0 0-23.4-.6-30-10.4v5.7c0 0 3.2 8.5 30 8.5 26.8 0 30-8.5 30-8.5v-5.7c-6.6 9.8-30 10.4-30 10.4" fill="#b2c1c0"/><path d="m60.1 42.6c0 0 0 0 0 3.6 0 5.2-12.6 9.5-28.1 9.5-15.5 0-28.1-4.2-28.1-9.5v-3.6c-1.2 1.1-1.9 2.3-1.9 3.6 0 5.7 13.4 10.4 30 10.4 16.6 0 30-4.7 30-10.4 0-1.3-.7-2.5-1.9-3.6" fill="#e8e8e8"/><path d="m25.2 38.5c0 0 0 0 0 0" opacity=".5" fill="#3e4347"/><path d="m32 21.6c13.7 0 25.1 3.3 27.6 7.6.4-.6.6-1.3.6-1.9 0-5.2-12.1-9.5-28.2-9.5s-28.1 4.4-28.1 9.5c0 .6.2 1.3.5 1.9 2.6-4.3 14-7.6 27.6-7.6" fill="#b2c1c0"/><path d="m32 36.4c14 0 25-3 27.6-7.1-2.5-4.4-13.9-7.6-27.6-7.6-13.6 0-25 3.3-27.6 7.6 2.5 4.1 13.5 7.1 27.6 7.1" fill="#fff"/><path d="m46.5 23.4c-.6-.3-1.2-.5-1.7-.5l-36.2-20.9c-.5-.2-1.9 2.1-1.4 2.4l36.7 20.2c.2.4.7.9 1.2 1.2 3.5 2 4.9-.4 1.4-2.4" fill="#d3976e"/><path fill="#89664c" d="m33.7 19l2.2-1.2-1.7-1-2.2 1.3z"/><path d="m55.4 2l-36.2 20.9c-.5 0-1.1.1-1.7.5-3.5 2-2.1 4.4 1.4 2.4.6-.3 1-.8 1.2-1.2l36.7-20.2c.5-.3-.9-2.6-1.4-2.4" fill="#d3976e"/><path d="m3.9 53.3v3.8c0 1.5 5.6 1.5 5.6 0v-3.8h-5.6" fill="#b2c1c0"/><ellipse cx="6.7" cy="53.3" rx="2.8" ry=".9" fill="#e8e8e8"/><path d="m5.8 38.6v14.6c0 .3.4.5.9.5s.9-.2.9-.5v-14.6h-1.8" fill="#8a8e91"/><path d="m3.9 34.4v3.8c0 1.5 5.6 1.5 5.6 0v-3.8h-5.6" fill="#b2c1c0"/><ellipse cx="6.7" cy="34.4" rx="2.8" ry=".9" fill="#e8e8e8"/><path d="m54.5 53.3v3.8c0 1.5 5.6 1.5 5.6 0v-3.8h-5.6" fill="#b2c1c0"/><ellipse cx="57.3" cy="53.3" rx="2.8" ry=".9" fill="#e8e8e8"/><path d="m56.4 38.6v14.6c0 .3.4.5.9.5s.9-.2.9-.5v-14.6h-1.8" fill="#8a8e91"/><path d="m54.5 34.4v3.8c0 1.5 5.6 1.5 5.6 0v-3.8h-5.6" fill="#b2c1c0"/><ellipse cx="57.3" cy="34.4" rx="2.8" ry=".9" fill="#e8e8e8"/><path d="m38.6 57.1v3.8c0 1.5 5.6 1.5 5.6 0v-3.8h-5.6" fill="#b2c1c0"/><ellipse cx="41.4" cy="57.1" rx="2.8" ry=".9" fill="#e8e8e8"/><path d="m40.4 42.4v14.6c0 .3.4.5.9.5s.9-.2.9-.5v-14.6h-1.8" fill="#8a8e91"/><path d="m38.6 38.2v3.8c0 1.5 5.6 1.5 5.6 0v-3.8h-5.6" fill="#b2c1c0"/><ellipse cx="41.4" cy="38.2" rx="2.8" ry=".9" fill="#e8e8e8"/><path d="m19.8 57.1v3.8c0 1.5 5.6 1.5 5.6 0v-3.8h-5.6" fill="#b2c1c0"/><ellipse cx="22.6" cy="57.1" rx="2.8" ry=".9" fill="#e8e8e8"/><path d="m21.7 42.4v14.6c0 .3.4.5.9.5s.9-.2.9-.5v-14.6h-1.8" fill="#8a8e91"/><path d="m19.8 38.2v3.8c0 1.5 5.6 1.5 5.6 0v-3.8h-5.6" fill="#b2c1c0"/><ellipse cx="22.6" cy="38.2" rx="2.8" ry=".9" fill="#e8e8e8"/></svg>