<?xml version="1.0" encoding="utf-8"?>
<!-- Generator: Adobe Illustrator 25.2.3, SVG Export Plug-In . SVG Version: 6.00 Build 0)  -->
<svg version="1.1" id="Layer_2" xmlns="http://www.w3.org/2000/svg" xmlns:xlink="http://www.w3.org/1999/xlink" x="0px" y="0px"
	 viewBox="0 0 128 128" style="enable-background:new 0 0 128 128;" xml:space="preserve">
<path style="fill:#B6D401;" d="M77.01,40.42l-57.03,62.12c0,0,17.97,21.81,47.09,20.48c20.04-0.91,32.16-9.18,42-20.48
	c12.02-13.81,14.73-34.07,14.03-43.36c-0.91-12.02-9.11-27.69-15.49-32.43S77.01,40.42,77.01,40.42z"/>
<path style="fill:#D5F100;" d="M25.09,20.93C6.13,37.8-6.78,76.98,19.69,102.24c13.16,12.56,60.55,16,82.97-14.35
	c10.05-13.6,17.45-34.95,11.88-51.66c-2.19-6.56-8.07-11.27-13.3-15.67C76.1-0.57,48.23,0.34,25.09,20.93z"/>
<g>
	<path style="fill:#738613;" d="M69.67,124.09l-3.89-0.32c0.08-0.37,8.18-36.77-15.5-60.63c-10.52-10.6-20.21-15.5-28.81-14.55
		c-8.96,0.98-14.92,9.28-14.96,9.36l-1.84-3.73c0.23-0.36,5.51-8.41,16.37-9.6c9.88-1.07,20.67,4.21,32.09,15.71
		C78.37,85.78,70.03,122.51,69.67,124.09z"/>
</g>
<g>
	<path style="fill:#738613;" d="M122,60.81c-0.27-0.18-26.56-18.79-40.13-30.37C69.67,20.04,53.5,5.51,53.35,5.36l2.81-1.76
		c0.15,0.14,15.72,13.95,27.88,24.32c13.45,11.47,38.66,29.54,38.93,29.72L122,60.81z"/>
</g>
<path style="fill:#DA0A23;" d="M68.35,16.25c-0.5,0.53-1.79,4.39-2.29,6.54c-0.29,1.23-0.11,3.14,1.43,3.39
	c1.72,0.29,2.37-0.7,2.9-2.17c0.53-1.47,1.47-4.13,1.47-4.13s2.74-0.91,4.09-1.31c1.8-0.53,2.33-1.27,2.37-2.21
	c0.04-0.94-0.94-2.7-3.97-2C72.48,14.8,69.08,15.47,68.35,16.25z"/>
<path style="fill:#DA0A23;" d="M59.51,8.79c-0.43,0.35-2.49,5.36-2.82,5.99c-0.34,0.63-0.55,2.24,0.63,2.92
	c1.18,0.68,2.47-0.49,2.92-1.49c0.44-1,1.73-3.97,1.73-3.97s3.15-0.17,4.28-0.33c1.38-0.19,2.43-0.57,2.35-2.16
	c-0.08-1.59-2.65-1.47-5.3-1.3C61.63,8.55,59.8,8.55,59.51,8.79z"/>
<path style="fill:#DA0A23;" d="M53.34,3.01c-0.72,0.33-3.52,3.19-3.89,3.68c-0.37,0.49-0.65,1.55,0.29,2.29s2.25,0.12,2.94-0.37
	c0.7-0.49,2-2.09,2-2.09s2.7,0.04,3.48,0.08c0.78,0.04,1.8-0.57,1.8-1.8s-1.43-1.72-2.62-1.76C56.16,3.01,53.79,2.8,53.34,3.01z"/>
<path style="fill:#DA0A23;" d="M79.9,26.02c-0.66,0.52-2.28,6.33-2.62,7.5c-0.34,1.17-0.89,3.67,0.84,4.21
	c1.82,0.57,3.04-0.24,3.58-2.3c0.5-1.9,1.64-5.87,1.64-5.87s4.37-1.61,5.33-1.98s2.07-1.59,1.4-3.09c-0.67-1.5-2.58-1.31-3.52-0.97
	C86.56,23.52,80.54,25.51,79.9,26.02z"/>
<path style="fill:#DA0A23;" d="M90.94,35.34c-0.46,0.6-2,5.97-2.25,7.08c-0.25,1.1-0.24,2.86,1.51,3.31
	c1.43,0.37,2.58-0.37,2.9-1.72c0.54-2.24,1.72-5.48,1.72-5.48s3.11-1.76,4.29-2.37c1.19-0.61,1.72-2.29,0.98-3.48
	c-0.74-1.19-2.41-1.02-4.05-0.45C94.41,32.81,91.35,34.81,90.94,35.34z"/>
<path style="fill:#DA0A23;" d="M102.48,44.25c-0.58,0.87-0.74,6.01-0.74,6.79c0,0.78,0.57,2.82,2.41,2.82
	c1.64,0,2.33-1.76,2.33-2.66s0.2-4.38,0.2-4.38s2.11-1.12,2.86-1.64c1.02-0.7,2.17-2,1.43-3.39s-2.7-0.98-3.97-0.45
	C106.11,41.73,102.89,43.64,102.48,44.25z"/>
<path style="fill:#DA0A23;" d="M112.37,52.09c-0.36,0.87-0.38,5.72-0.3,7.03c0.08,1.31,1.19,2.45,2.62,2.41s2.09-1.39,2.04-2.45
	s0.08-4.54,0.08-4.54s1.9-1.32,2.41-1.68c0.78-0.53,0.94-1.8,0.25-2.78c-0.7-0.98-2.13-1.27-3.48-0.49
	C114.64,50.37,112.51,51.74,112.37,52.09z"/>
<path style="fill:#DA0A23;" d="M119.96,57.52c-0.65,1.12-0.04,6.22-0.04,6.71c0,0.49,0.16,2.17,1.84,2.17c1.47,0,1.96-0.9,2-1.72
	c0.04-0.82-0.08-5.44-0.08-5.44s1.43-0.45,0.82-2.33C123.89,55.04,120.64,56.36,119.96,57.52z"/>
<path style="fill:#DA0A23;" d="M62.64,121.41c-0.56,0.99-0.44,2.29,1.67,3.35c2.12,1.06,2.55,1.12,3,1.15
	c0.79,0.04,2.6-0.57,3.79-1.23c0.95-0.53,2.12-1.32,1.28-2.86c-0.78-1.44-5.02,0.26-5.02,0.26S63.61,119.7,62.64,121.41z"/>
<path style="fill:#DA0A23;" d="M62.37,112.38c-1.17,1.08-0.4,2.69,1.98,4.23c2.12,1.37,3.31,2.38,4.23,2.38s4.39-1.75,5.29-2.25
	c1.37-0.75,1.81-2.25,0.75-3.31s-2.56,0.04-3.31,0.44s-2.47,1.23-2.47,1.23s-2.25-1.63-3-2.16S63.52,111.32,62.37,112.38z"/>
<path style="fill:#DA0A23;" d="M61.23,101.3c-0.96,1.44-0.4,2.95,1.89,4.23c2.29,1.28,5.16,2.42,6.08,2.56s4.54-3,5.24-3.66
	s2.64-2.73,1.41-4.14c-1.47-1.68-3.04-0.4-4.45,0.57c-1.08,0.74-2.34,1.67-2.34,1.67s-2.42-0.66-3.83-1.32
	C63.83,100.55,62.11,99.98,61.23,101.3z"/>
<path style="fill:#DA0A23;" d="M66.94,89.55c0,0,2.51-2.6,3.44-3.48s2.51-1.76,3.7-0.35s-0.04,3.53-1.15,4.54s-3.92,4.32-4.72,4.45
	s-6.65-0.93-8.33-1.81c-0.99-0.52-2.56-1.5-1.67-3.48c0.73-1.64,2.38-1.45,3.61-1.19S66.94,89.55,66.94,89.55z"/>
<path style="fill:#DA0A23;" d="M60.96,75.41c0,0,2.12-4.32,2.82-5.86c0.71-1.54,1.59-2.95,3.57-2.25s1.38,2.57,0.71,4.36
	c-0.79,2.12-3,7.71-3.97,8.2c-1.18,0.59-7.4,0.79-9.56,0.75c-0.97-0.02-2.07-0.71-2.03-2.03s0.86-2.24,3-2.6
	C56.82,75.76,60.96,75.41,60.96,75.41z"/>
<path style="fill:#DA0A23;" d="M51.18,61.13c-0.22,0.13-4.77,1.96-5.91,2.29c-1.67,0.48-2.25,2.16-1.89,3.35s1.98,1.81,3.88,1.23
	c1.89-0.57,7.62-2.03,8.15-2.86s1.41-6.74,1.59-8.28s0.22-3.48-1.81-3.79s-2.86,1.06-3.04,2.51C52.04,56.47,51.18,61.13,51.18,61.13
	z"/>
<path style="fill:#DA0A23;" d="M38.92,51.24c0,0,0.35-4.01,0.48-5.2s0.57-2.78,2.64-2.64s1.85,2.82,1.85,4.54s-0.4,6.21-0.66,6.43
	s-3.04,2.38-4.49,3.35s-3.79,1.62-4.67,0.3c-0.88-1.32,0.4-3.38,1.81-4.44S38.92,51.24,38.92,51.24z"/>
<path style="fill:#DA0A23;" d="M26.25,37.75c-2.04,0.51-1.94,2.64-1.32,4.8s0.97,3.92,0.97,3.92s-1.45,2.25-2.07,3.04
	s-2.56,3.13-0.53,4.8s4.01-1.28,4.76-2.16c0.73-0.85,3.13-4.05,3.13-4.49c0-1.28-1.32-5.99-1.63-7.01S28.54,37.18,26.25,37.75z"/>
<path style="fill:#DA0A23;" d="M11.61,41.12c-0.91,0.62-1.37,2.51-0.22,4.14c0.94,1.34,1.63,2.73,1.63,2.73s-1.23,3.57-1.72,4.72
	s-1.06,3.66,0.97,4.45s3.44-1.41,3.97-3.04c0.53-1.63,1.94-5.29,1.98-6.39c0.03-0.73-1.89-4.32-2.73-5.55
	C14.65,40.95,12.98,40.2,11.61,41.12z"/>
<path style="fill:#DA0A23;" d="M8.26,53.68c0.23,1.05-0.35,4.01-0.93,6.52c-0.17,0.74-0.42,2.4-2.51,1.89
	c-1.81-0.44-1.06-2.73-0.84-3.88c0.13-0.68,0.66-2.86,0.66-2.86s-0.96-0.52-0.93-1.63c0.04-1.45,0.79-1.94,1.98-2.03
	S8.08,52.89,8.26,53.68z"/>
</svg>
