<?xml version="1.0" encoding="utf-8"?>
<!-- Generator: Adobe Illustrator 25.2.3, SVG Export Plug-In . SVG Version: 6.00 Build 0)  -->
<svg version="1.1" id="Layer_2" xmlns="http://www.w3.org/2000/svg" xmlns:xlink="http://www.w3.org/1999/xlink" x="0px" y="0px"
	 viewBox="0 0 128 128" style="enable-background:new 0 0 128 128;" xml:space="preserve">
<g>
	<path style="fill:#B7CBD3;" d="M35.89,98.57c-0.01-0.14-1.02-14.31-1.02-23.58c0-8.68,0.13-28.31,0.14-30.84
		c-0.45-0.79-2-3.47-3.33-5.39c-1.62-2.36-4.75-8.47-4.88-8.72l1.78-0.91c0.03,0.06,3.2,6.25,4.75,8.5
		c1.61,2.35,3.47,5.63,3.55,5.77l0.13,0.23l0,0.27c0,0.22-0.15,21.86-0.15,31.09c0,9.2,1.01,23.29,1.02,23.43L35.89,98.57z"/>
</g>
<g>
	<path style="fill:#B7CBD3;" d="M48.84,99.58l-2-0.14c0-0.02,0.15-2.2-0.15-6.58l-0.24-3.55c-0.49-7.18-0.96-13.96-1.08-23.95
		c-0.14-11.56,0.11-20.44,0.14-21.54c-0.1-0.48-0.61-2.78-2.11-6.26c-1.8-4.2-2.11-8.61-2.12-8.8l2-0.13c0,0.04,0.31,4.27,1.97,8.14
		c1.78,4.15,2.24,6.68,2.26,6.79l0.02,0.1l0,0.1c0,0.09-0.29,9.32-0.15,21.56c0.12,9.94,0.58,16.69,1.07,23.84l0.24,3.55
		C48.99,97.27,48.84,99.49,48.84,99.58z"/>
</g>
<g>
	<path style="fill:#B7CBD3;" d="M57.35,98.07c-0.01-0.36-0.59-36.56-0.73-42.48c-0.13-5.46-0.02-11.35,0-12.32
		c-0.2-0.8-1.18-4.81-1.45-8.06c-0.2-2.36-0.01-6.52,0-6.7l2,0.09c0,0.04-0.19,4.21,0,6.44c0.28,3.38,1.42,7.82,1.43,7.86l0.03,0.13
		l0,0.14c0,0.06-0.14,6.47,0,12.36c0.14,5.92,0.72,42.13,0.73,42.49L57.35,98.07z"/>
</g>
<g>
	<path style="fill:#B7CBD3;" d="M69.47,98.07l-0.58-53.93l0.01-0.06c0.02-0.17,0.45-4.16,1.03-7.23c0.37-1.92,0.57-4.65,0.57-7.7h2
		c0,3.21-0.21,6-0.6,8.07c-0.53,2.79-0.95,6.51-1,7.02l0.58,53.81L69.47,98.07z"/>
</g>
<g>
	<path style="fill:#B7CBD3;" d="M82.86,98.64h-2c0-0.1,0-9.83-0.15-27.29c-0.14-17.47-0.15-26.92-0.15-27.02v-0.18l0.06-0.17
		c0.01-0.03,1.01-2.76,1.72-5.59c0.73-2.92,2.19-9.04,2.19-9.04l1.95,0.46c0,0-1.46,6.14-2.19,9.06c-0.64,2.56-1.49,4.97-1.72,5.63
		c0,1.37,0.01,10.67,0.15,26.83C82.86,88.8,82.86,98.54,82.86,98.64z"/>
</g>
<g>
	<path style="fill:#B7CBD3;" d="M91.66,97.33l-0.44-52.51l0.11-0.22c0,0,3.07-5.99,4.68-9.06c1.61-3.07,4.03-6.79,4.14-6.94
		l1.67,1.09c-0.02,0.04-2.47,3.79-4.04,6.78c-1.42,2.72-3.99,7.72-4.56,8.83l0.44,52.02L91.66,97.33z"/>
</g>
<g>
	<path style="fill:#B7CBD3;" d="M17.65,104.02l-1.81-0.84c0.5-1.08,1.81-4.27,1.81-6c0-0.79-0.02-3.89-0.04-7.99
		c-0.04-7.9-0.11-19.84-0.11-25.73c0-8.81,0.29-25.69,0.29-25.86l2,0.03c0,0.17-0.29,17.03-0.29,25.82c0,5.89,0.06,17.82,0.11,25.72
		c0.02,4.11,0.04,7.21,0.04,8C19.64,99.71,17.73,103.85,17.65,104.02z"/>
</g>
<g>
	<path style="fill:#B7CBD3;" d="M108.16,101.13c0-0.18-0.14-17.93,0-27.03c0.03-2.14,0.09-5.12,0.16-8.47
		c0.2-10.42,0.5-26.17,0.29-28.35l1.99-0.2c0.23,2.3-0.05,16.88-0.28,28.59c-0.06,3.35-0.12,6.33-0.16,8.46
		c-0.14,9.08,0,26.81,0,26.99L108.16,101.13z"/>
</g>
<g>
	<path style="fill:#B7CBD3;" d="M60.05,55.42c-24.91,0-34.43-2.86-34.84-2.98l-0.21-0.09c-0.03-0.02-3.19-1.88-6.72-3.29
		c-3.72-1.49-8.07-4.66-8.25-4.79l1.18-1.61c0.04,0.03,4.32,3.16,7.81,4.55c3.34,1.34,6.28,3.01,6.89,3.36
		c1.14,0.32,11.93,3.12,37.7,2.85c25.41-0.27,37.92-2.4,39.62-2.72l11.65-8.2l1.15,1.64l-12,8.44l-0.21,0.04
		c-0.12,0.03-12.68,2.5-40.19,2.79C62.39,55.41,61.2,55.42,60.05,55.42z"/>
</g>
<g>
	<path style="fill:#B7CBD3;" d="M64.63,64.02c-28.68,0-38.21-2.95-39.73-3.5c-0.89,0.03-4.44,0.14-6.26,0.14
		c-2.03,0-7.53-0.14-7.76-0.15l0.05-2c0.06,0,5.7,0.15,7.71,0.15c2,0,6.35-0.14,6.39-0.15l0.22-0.01l0.2,0.08
		c0.08,0.03,8.81,3.43,39.18,3.43c30.46,0,38.5-1.99,38.58-2.01l13.57-3.65l0.52,1.93l-13.58,3.65
		C103.4,62.02,95.5,64.02,64.63,64.02z"/>
</g>
<g>
	<path style="fill:#B7CBD3;" d="M59.32,73.67c-25.32,0-32.21-2.06-33.94-2.87c-0.9,0.23-3.34,0.86-6.64,1.66
		c-4.28,1.03-8.21,1.19-8.37,1.2l-0.07-2c0.04,0,3.9-0.16,7.98-1.14c4.17-1.01,6.96-1.74,6.99-1.75l0.49-0.13l0.39,0.32
		c0.14,0.09,4.97,2.97,37.46,2.7c33.05-0.28,38.79-2.59,39.02-2.69l0.27-0.12l0.31,0.04c0.02,0,2.45,0.42,5.96,0.42
		c3.62,0,8.74,0.14,8.79,0.15l-0.06,2c-0.05,0-5.14-0.15-8.73-0.15c-3.04,0-5.28-0.3-6.03-0.41c-1.57,0.52-9.45,2.49-39.51,2.75
		C62.13,73.66,60.69,73.67,59.32,73.67z"/>
</g>
<g>
	<path style="fill:#B7CBD3;" d="M11.76,84.45l-0.26-1.98c0.03,0,3.35-0.44,6.75-1.29c3.4-0.85,7.15-2.29,7.18-2.3l0.28-0.11
		l0.29,0.07c0.11,0.02,11.35,2.45,38.16,1.87c26.92-0.58,38.73-2.45,38.84-2.47l0.28-0.04l0.26,0.11c0.02,0.01,1.76,0.72,5.98,1.7
		c4.34,1.01,8.31,2.04,8.35,2.05l-0.5,1.94c-0.04-0.01-3.98-1.03-8.3-2.04c-3.5-0.82-5.36-1.45-6.02-1.7
		c-1.92,0.28-14.03,1.92-38.85,2.45c-25.01,0.54-36.37-1.47-38.34-1.86c-0.95,0.36-4.12,1.51-7.14,2.27
		C15.22,83.99,11.9,84.43,11.76,84.45z"/>
</g>
<g>
	<path style="fill:#B7CBD3;" d="M116.93,96.78c0,0-5.26-2.34-8.48-3.8c-2.22-1.01-3.83-2.15-4.69-2.81l-0.64,0.55l-0.34,0.02
		c-0.14,0.01-14.17,0.74-38.29,1.17c-22.53,0.4-37.41-0.7-39.43-0.86l-12.78,5.03l-0.73-1.86l13.21-5.2L25,89.03
		c0.15,0.01,15.42,1.31,39.46,0.87c22.02-0.39,35.6-1.04,37.88-1.15l1.44-1.23l0.65,0.6c0.02,0.02,1.84,1.67,4.85,3.04
		c3.21,1.46,8.46,3.79,8.46,3.79L116.93,96.78z"/>
</g>
<g>
	<path style="fill:#B7CBD3;" d="M70.2,35.57c-2.1,0-4.3-0.01-6.6-0.03c-35.84-0.29-46.56-1.31-46.66-1.32l0.2-1.99
		c0.1,0.01,10.78,1.02,46.48,1.31c35.61,0.29,47.58-1.86,47.7-1.88l0.37,1.97C111.23,33.72,100.94,35.57,70.2,35.57z"/>
</g>
<g>
	<path style="fill:#B7CBD3;" d="M70.8,40.38c-2.22,0-4.56,0-7.05-0.01C27.12,40.22,21,38.93,20.76,38.88l0.43-1.95
		c0.25,0.05,6.46,1.29,42.57,1.44c36.24,0.14,43.14-0.85,43.2-0.86l0.31,1.98C107.02,39.51,101.22,40.38,70.8,40.38z"/>
</g>
<path style="fill:#9A9A9A;" d="M104.52,96.46l0.37-50.94l11.58-12.58l-2.62-4.36l-12.95,14.32l-74.47-0.75L11.99,26.48l-3.74,3.49
	l15.5,16.12l0.19,51.75l-11.58,4.61l-0.37,5.48l14.7-6.1l76.84-0.75l12.7,6.48l-0.12-4.86L104.52,96.46z M100.66,95.84
	c-0.62,0.37-72.23,0.75-72.6,0.5s-1.06-48.38-0.25-49.19c0.62-0.62,71.73-0.25,73.1,0.37c0.68,0.31,0.51,10.98,0.37,22.79
	C101.12,82.42,100.97,95.65,100.66,95.84z"/>
<path style="fill:#DF0A2B;" d="M5.93,105.72l3.01,3.25c0,0,0.9-0.01,2.11-0.25c1.24-0.24,2.08-0.86,2.3-1.74
	c0.31-1.24-0.33-72.02-0.33-72.02c0.09-1.61-0.09-3.32,2.15-3.41c2.24-0.09,95.96-0.09,97.03-0.09s2.69,0.36,2.69,2.78
	s-0.45,71.83-0.36,72.46c0.09,0.63,0.69,1.5,2.44,1.87c1.85,0.39,4.2,0.11,4.2,0.11l1.25-11.04l-1.39-71.55L9.19,25.04l-3.92,6.19
	L5.93,105.72z"/>
<path style="fill:#FF180A;" d="M5.62,24.69c-2.24,2.99-1.7,6.14-1.7,15.02s-0.13,64.25,0,65.82c0.13,1.57,0.33,2.62,2.25,3.17
	c1.39,0.39,2.75,0.27,2.75,0.27s0.22-76.83,0.22-78.01s-0.26-3.26,1.96-3.53s103.04,0.26,104.21,0.13s3.13,1.04,3.13,2.48
	s0.76,78.74,0.76,78.74s3.57,0.26,4.33-1.3c0.77-1.57,0.52-77.31,0.26-79.4s-1.96-4.57-5.35-5.35S12.8,21.94,10.98,22.07
	S6.8,23.12,5.62,24.69z"/>
</svg>
