<?xml version="1.0" encoding="utf-8"?>
<!-- Generator: Adobe Illustrator 25.2.3, SVG Export Plug-In . SVG Version: 6.00 Build 0)  -->
<svg version="1.1" id="Layer_2" xmlns="http://www.w3.org/2000/svg" xmlns:xlink="http://www.w3.org/1999/xlink" x="0px" y="0px"
	 viewBox="0 0 128 128" style="enable-background:new 0 0 128 128;" xml:space="preserve">
<path style="fill:#FFE5B2;" d="M11.7,110.26c6.03,4.72,17.15-0.33,17.15-0.33l12.74-4.41l66.47-42.3l8.98-11.6
	c0,0,7.75-6.97,7.68-13.07c-0.07-6.06-3.27-8.98-8.33-9.47c-5.06-0.49-13.88,1.47-13.88,1.47s-2.57-8.3-7.49-11.78
	c-0.13-0.09-0.12-0.72-0.25-0.8c-1.22-0.78-2.4-1.15-4.04-1.02c-1.65,0.13-3.14,0.46-4.4,0.89c-1.09,0.37-2.03,1.52-2.85,2.01
	c-3.06,1.81-4.33,3.35-4.33,3.35l-14.05-3.43l-5.87-4.67c0,0-2.36-0.86-5.36-0.08c-2.69,0.7-4.14,1.89-4.84,2.46
	c-0.3,0.25-3.52,13.72-3.52,13.72l-22.54,3.1c0,0-1.96,0.82-3.59,3.43c-1.63,2.61-2.21,7.1-2.21,7.1l2.7,15.76L7.86,67.28
	c0,0-1.59,1.55-2.74,4.65c-1.14,3.1-0.97,5.6-0.9,6.94c0.06,1.03,9.11,9.5,9.11,9.5l-5.55,14.05
	C7.78,102.43,7.94,107.33,11.7,110.26z"/>
<path style="fill:#FACE90;" d="M55.18,50.94C38.11,61.26,36.23,77.4,36.89,88.01s3.43,18.13,3.43,18.13s20.25-3.27,40.51-17.31
	s27.28-25.64,27.28-25.64s-8.21-10.04-20.09-15.84C74.84,40.91,62.2,46.69,55.18,50.94z"/>
<path style="fill:#FACE90;" d="M94.81,17.94c0,0-5.41,16.68,4.44,20.98c12.84,5.61,17.17-9.87,17.17-9.87s-5.87-0.73-9.32-2.42
	C101.02,23.65,94.81,17.94,94.81,17.94z"/>
<path style="fill:#FACE90;" d="M59.04,15.08c0,0,0.25,15.53,13.54,17.39c13.29,1.86,13.79-14.66,13.79-14.66s-4.09,1.99-11.05,1.99
	c-5.84,0-7.95-2.24-10.68-3.35C61.11,15.01,59.04,15.08,59.04,15.08z"/>
<path style="fill:#FACE90;" d="M23.05,34.21c0,0,10.84,13.83,23.49,5.15c10.68-7.33,2.52-21.85,2.52-21.85s-6.87,8.86-10.46,10.8
	C31.79,31.98,23.05,34.21,23.05,34.21z"/>
<path style="fill:#FACE90;" d="M17.31,44.02c0,0,15.66,9.98,9.95,20.05c-5.71,10.06-19.39,3.18-19.39,3.18s7.45-5.09,8.94-8.69
	S16.07,48.49,17.31,44.02z"/>
<path style="fill:#FACE90;" d="M19.84,88.13c0.41,6.35-9.21,12.54-12,14.27c-0.62-3.99,1.39-8.32,0.89-12.54
	c-0.51-4.26-4.79-7.5-4.46-11.02C8.01,79.02,19.3,79.81,19.84,88.13z"/>
<path style="fill:#FFFFFF;" d="M61.08,41.61c0.56,1.55,2.63,1.4,5.3,0.73c2.56-0.64,4.02-1.01,4.02-2.56c0-2.02-3.02-2.47-4.93-2.01
	C63.55,38.23,60.35,39.6,61.08,41.61z"/>
<path style="fill:#FFFFFF;" d="M57.34,43.62c0.55,2.47-9.5,5.89-15.72,14.25c-9.78,13.16-7.4,22.84-10.05,23.39
	c-2.51,0.52-3.23-9.8,0.15-17.56s9.23-14.04,13.65-17.16C50.66,42.8,56.79,41.17,57.34,43.62z"/>
</svg>
