<?xml version="1.0" encoding="utf-8"?>
<!-- Generator: Adobe Illustrator 25.2.3, SVG Export Plug-In . SVG Version: 6.00 Build 0)  -->
<svg version="1.1" id="Layer_2" xmlns="http://www.w3.org/2000/svg" xmlns:xlink="http://www.w3.org/1999/xlink" x="0px" y="0px"
	 viewBox="0 0 128 128" style="enable-background:new 0 0 128 128;" xml:space="preserve">
<path style="fill:#757E40;" d="M55.88,32.41c0,0-38.48,10.7-41.48,14.83S6.23,59.02,5.76,75.4c-0.38,13.14,6.95,46.93,42.98,48.05
	c36.79,1.15,50.49-23.09,57.06-38.1c5.92-13.54,5.82-29.09,9.57-36.23s7.13-13.33,6.95-21.4s-3.19-15.02-8.45-18.4
	c-5.26-3.38-9.76-2.82-12.01-3.38C99.61,5.38,55.88,32.41,55.88,32.41z"/>
<path style="fill:#AFB42A;" d="M62.63,18.9c-15.96,6.57-37.17,12.76-47.3,27.03C6.18,58.81,3.13,74.83,15.52,93.6
	c11.31,17.14,41.46,24.45,64.01,8.26c20.65-14.83,22.52-36.6,28.72-51.06s19.24-33.46,3.57-42.8C95.11-1.94,75.24,13.71,62.63,18.9z
	"/>
<path style="fill:#FFF69D;" d="M108.25,12.14c-7.59-4.38-17.27-2.44-27.97,2.82s-18.96,9.2-22.71,10.51
	C53.81,26.78,21.87,38.48,15.71,54c-5.07,12.76-3.75,29.47,9.57,41.67s46.93,11.45,59.88-6.95s13.51-33.22,16.33-39.79
	s8.96-16.19,10.7-21.4C114.25,21.34,113.13,14.96,108.25,12.14z"/>
<path style="fill:#855C52;" d="M71.45,47.8c-6.01-7.13-28.91-4.88-36.79,6.38s-4.6,20.41-0.75,25.34
	c4.69,6.01,17.46,11.45,29.09,3.38S78.04,55.62,71.45,47.8z"/>
<path style="fill:#D67659;" d="M47.32,60.62c-2.96,4.34-1.48,11.34-6.57,11.67s-8.05-7.84-4.44-14.68
	c3.9-7.38,13.14-10.67,15.77-7.17C54.72,53.95,50.13,56.5,47.32,60.62z"/>
</svg>
