<?xml version="1.0" encoding="utf-8"?>
<!-- Generator: Adobe Illustrator 25.2.3, SVG Export Plug-In . SVG Version: 6.00 Build 0)  -->
<svg version="1.1" id="Layer_2" xmlns="http://www.w3.org/2000/svg" xmlns:xlink="http://www.w3.org/1999/xlink" x="0px" y="0px"
	 viewBox="0 0 128 128" style="enable-background:new 0 0 128 128;" xml:space="preserve">
<path style="opacity:0.5;fill:#FFFFFF;" d="M72.9,72.09c0.37,0.37,21.81-17.86,21.81-17.86l2.22-30.53l-18.51,7.97l-31.24-1.23
	l-15.68-7.11l2.45,29.96C33.94,53.29,72.54,71.73,72.9,72.09z"/>
<path style="opacity:0.7;fill:#E0E0E0;" d="M62.69,5.93L46.82,7.46l-11.97,4.32l-6.68,6.96l7.24,84.08l-0.14,10.58
	c0,0,8.49,11,28.54,11s29.79-10.02,29.79-10.02l-0.14-10.86L100,19.57l-4.73-6.82L77.31,7.04L62.69,5.93z"/>
<path style="fill:#C0C0C0;" d="M33.88,53.25c0,2.73,3.48,50.39,5.01,52.9c1.53,2.51,9.54,10.35,25.13,10.07s25.12-7.15,25.95-9.52
	c0.84-2.37,4.73-52.48,4.73-52.48s-0.42-5.43-11.69-9.19s-25.34-2.97-32.43-1.53C41.67,45.32,33.88,50.19,33.88,53.25z"/>
<path style="fill:#FCF9E9;" d="M38.95,62.63l-3.04-5.98c0,0-0.06-1.77,0.18-2.83c0.24-1.06,2.05-6.04,13.87-8.4
	c9.38-1.88,21.29-1.71,29.94,0.65c5.86,1.6,11.6,4.71,12.39,7.8c0.9,3.51-0.65,5.01-0.65,5.01l-5.87,9.38l-42.91-0.57L38.95,62.63z"
	/>
<path style="fill:#F0E7BA;" d="M40.75,104.8c0.38,1.29,6.44,8.81,22.92,8.81s23.82-6.12,23.98-7.51s4.81-49.03,4.81-49.03
	s-6.77,8.81-28.31,8.4s-28.23-8.86-28.23-8.86S40.34,103.42,40.75,104.8z"/>
<path style="fill:#FFFFFF;" d="M42.13,38.15c-2.36,0.15-3.59,1.96-3.1,5.71c0.33,2.52,0.98,5.22,4.32,4.89
	c3.38-0.33,3.48-3.86,3.1-5.87C45.89,39.87,44.75,37.99,42.13,38.15z"/>
<path style="fill:#FFFFFF;" d="M43.28,50.23c-2.28,0.18-3.02,1.55-2.69,5.63c0.43,5.39,3.18,39.24,3.43,42.18
	c0.24,2.94,1.55,4,3.34,4c1.79,0,3.26-1.79,3.18-3.83c-0.08-2.04-3.18-40.55-3.43-42.75C46.87,53.25,46.46,49.98,43.28,50.23z"/>
<path style="fill:#FFFFFF;" d="M38.46,109c-0.68,1.77,1.68,5.39,6.37,7.8c5.23,2.69,11.08,2.28,11.18,0.08
	c0.1-2.32-3.51-1.7-8.97-4.32C42.52,110.39,39.52,106.22,38.46,109z"/>
<path style="fill:#D5D5D5;" d="M66.18,119.49c-0.21,1.74,8.75,1.14,15.61-1.22c7.8-2.69,10.09-6.5,9.19-7.81
	c-0.9-1.31-2.71,2.08-10.42,4.59C69.88,118.5,66.49,116.85,66.18,119.49z"/>
<g>
	<path style="fill:#C8C8C8;" d="M65.13,34.26c-0.24,0-0.48,0-0.71,0c-22.48-0.14-30.9-6.03-33.92-9.68
		c-1.96-2.38-2.6-4.97-2.13-7.49v-0.08c2.26-6.75,15-12.75,35.7-12.83c23.33-0.09,35.29,8.14,35.87,13.75
		c0.18,1.8-0.15,4.95-2.83,7.77C92.23,30.81,80.68,34.26,65.13,34.26z M33.13,17.91c-0.31,1.65-0.39,3,1.02,4.7
		c2.16,2.61,8.2,7.98,30.25,8.12c0.25,0,0.49,0,0.74,0c19.76,0,26.07-4.35,28.71-7.26c1.48-1.63,2.06-3.07,1.89-4.79
		C95.35,14.99,85.6,7.93,64.32,8.05c-22.66,0.12-30.35,5.86-31.08,9.74L33.13,17.91z"/>
</g>
<path style="fill:#FFFFFF;" d="M35.86,13.87c-0.45-0.48-2.07-0.17-3.39,1.36c-1.17,1.36-2.73,4.16-0.43,7.33
	c2.32,3.19,9.55,9.12,33.21,9.43c21.38,0.28,31.61-7.02,31.91-11.95s-2.77-4.81-2.77-4.13s0.64,2.05,0.43,3.7
	C94.57,21.51,89.83,29.64,65,29.7c-23.78,0.06-31.56-7.64-31.48-10.1C33.64,15.78,36.85,14.92,35.86,13.87z"/>
</svg>
