<?xml version="1.0" encoding="utf-8"?>
<!-- Generator: Adobe Illustrator 25.2.3, SVG Export Plug-In . SVG Version: 6.00 Build 0)  -->
<svg version="1.1" id="Layer_3" xmlns="http://www.w3.org/2000/svg" xmlns:xlink="http://www.w3.org/1999/xlink" x="0px" y="0px"
	 viewBox="0 0 128 128" style="enable-background:new 0 0 128 128;" xml:space="preserve">
<path style="fill:#2E7E30;" d="M75.57,49.03L4.53,103.66c0,0,2.03,7.95,9.47,12.35c6.19,3.66,12.85,3.72,21.31,0.85
	c8.46-2.88,13.36-7.1,13.36-7.1s3.39,1.08,5.92-0.85c2.32-1.76,2.01-4.55,2.03-4.57c0.81-0.76,13.56-10.48,19.48-16.06
	c5.92-5.58,23.65-23.86,23.65-23.86s3.31,0.3,5.25-1.91c1.81-2.06,0.84-4.01,0.84-4.01s18.13-15.73,18.44-28.41
	c0.34-14.04-10.82-18.77-12.69-19.28C109.73,10.3,75.57,49.03,75.57,49.03z"/>
<path style="fill:#559833;" d="M73.03,29.58c0,0-4.57,5.07-5.92,6.77c-1.35,1.69-5.07,5.58-5.07,5.58s-2.74-1.19-5.07,1.35
	c-2.07,2.25-1.52,5.41-1.52,5.41S42.25,60.36,30.75,68.31c-11.5,7.95-23.8,16.07-26.38,25.71c-1.44,5.38,0.17,9.64,0.17,9.64
	s2.88,0.68,5.41,2.54s4.19,3.96,4.19,3.96s10.02,0.94,18.82-3.62S65.76,83.7,71.68,78.29c5.92-5.41,28.45-27.96,34-35.01
	c5.95-7.56,10.49-17.25,9.13-24.86c-1.35-7.61-3.21-7.61-3.21-7.61s-9.98-4.06-18.94,0.51c-8.4,4.28-13.36,10.99-13.36,10.99
	s-2.85-1-4.85,1.3C72.08,26.32,73.03,29.58,73.03,29.58z"/>
<path style="fill:#2E7E30;" d="M109.38,26.66c-1.43-0.84-3.7,0.12-4.68,1.97s-0.49,4.07,1.11,4.81c1.6,0.74,3.45,0.12,4.68-1.73
	C111.37,30.38,111.47,27.89,109.38,26.66z"/>
<path style="fill:#2E7E30;" d="M66.98,73.73c-1.99-1.46-4.31-0.37-5.55,1.6c-1.23,1.97-1.23,3.82,0.25,5.18
	c1.48,1.36,3.94,0.62,5.42-1.48C68.41,77.18,68.83,75.09,66.98,73.73z"/>
<path style="fill:#2E7E30;" d="M66.73,65.85c0.74,1.88,14.05-10.11,21.57-18.98s20.27-24.36,16.88-25.88
	c-3.57-1.6-11.4,11.32-17.38,18.98C79.06,51.18,65.62,63.01,66.73,65.85z"/>
<path style="fill:#2E7E30;" d="M57.01,74.3c0.44,2.61-10.57,12.33-15.5,16.03c-2.79,2.09-18.94,10.9-20.12,8.01
	c-0.78-1.92,11.14-7.55,15.77-10.71c5.23-3.57,9.23-6.97,12.37-9.49C51.31,76.69,56.69,72.42,57.01,74.3z"/>
<path style="fill:#2E7E30;" d="M105.78,14.03c0.05,1.31-1.92,2.44-4.88,3.22c-2.96,0.78-8.71,6.36-12.46,10.37
	c-3.75,4.01-12.8,15.5-14.28,17.42s-9.41,8.97-11.58,11.15S47.51,68.47,44.12,71.08c-3.4,2.61-16.3,11.22-19.35,13.39
	c-2.81,2.01-7.36,5.47-9.74,9.78c-1.86,3.34-3.22,7.14-4.44,6.79s-1.22-5.92,1.48-10.71c2.7-4.79,8.71-8.54,11.93-10.71
	s18.29-12.11,18.29-12.11S52.74,58.8,55.18,56.8c2.44-2,13.67-11.85,17.07-16.29s10.63-13.76,15.07-18.47
	c4.44-4.7,9.49-7.66,12.11-8.45C102.04,12.81,105.7,11.94,105.78,14.03z"/>
<path style="fill:#7FBA42;" d="M20.25,91.72c0.65,1.51,3.14,1.57,6.18-0.17c3.05-1.74,9.23-6.1,12.63-8.54
	c4.01-2.87,8.19-6.18,9.49-7.49c2.09-2.09,2.7-3.82,2.18-5.05c-0.52-1.23-2.53-0.87-4.44,0.52c-4.18,3.05-6.97,4.7-14.2,9.58
	c-2.9,1.96-7.49,5.23-9.23,6.62C21.12,88.59,19.47,89.89,20.25,91.72z"/>
<path style="fill:#7FBA42;" d="M90.8,16.55c0.65,1.3,2.53,0.61,4.96-0.96s2.96-2.61,2.18-3.83c-0.78-1.22-3.25-0.85-4.7,0.09
	C91.76,12.81,89.93,14.81,90.8,16.55z"/>
<path style="fill:#7FBA42;" d="M92.89,27.54c1.27,1.68,3.89-0.56,5.71-2.36c1.72-1.69,3.8-3.38,4.58-4.3
	c0.61-0.72,1.99-3.97-1.23-3.88c-2.6,0.07-6.08,3.28-7.63,4.88C93.2,23.03,91.57,25.8,92.89,27.54z"/>
</svg>
