<?xml version="1.0" encoding="UTF-8" standalone="no"?><svg xmlns:dc="http://purl.org/dc/elements/1.1/" xmlns:cc="http://creativecommons.org/ns#" xmlns:rdf="http://www.w3.org/1999/02/22-rdf-syntax-ns#" xmlns:svg="http://www.w3.org/2000/svg" xmlns="http://www.w3.org/2000/svg" viewBox="0 0 45 45" style="enable-background:new 0 0 45 45;" xml:space="preserve" version="1.1" id="svg2"><metadata id="metadata8"><rdf:RDF><cc:Work rdf:about=""><dc:format>image/svg+xml</dc:format><dc:type rdf:resource="http://purl.org/dc/dcmitype/StillImage"/></cc:Work></rdf:RDF></metadata><defs id="defs6"><clipPath id="clipPath16" clipPathUnits="userSpaceOnUse"><path id="path18" d="M 0,36 36,36 36,0 0,0 0,36 Z"/></clipPath></defs><g transform="matrix(1.25,0,0,-1.25,0,45)" id="g10"><g id="g12"><g clip-path="url(#clipPath16)" id="g14"><g transform="translate(25.9404,20.8125)" id="g20"><path id="path22" style="fill:#c1694f;fill-opacity:1;fill-rule:nonzero;stroke:none" d="m 0,0 c 2.045,-8.239 -1.643,-16.246 -8.235,-17.881 -6.592,-1.637 -13.593,3.719 -15.638,11.957 -2.044,8.241 1.642,16.247 8.235,17.882 C -9.048,13.594 -2.045,8.24 0,0"/></g><g transform="translate(34.1465,22.8486)" id="g24"><path id="path26" style="fill:#c1694f;fill-opacity:1;fill-rule:nonzero;stroke:none" d="m 0,0 c 2.391,-9.635 -6.295,-17.402 -14.948,-19.548 -8.653,-2.145 -14.34,3.532 -16.385,11.774 -2.044,8.239 0.328,15.92 8.979,18.066 C -13.701,12.439 -2.553,10.287 0,0"/></g><g transform="translate(15.1343,5.0381)" id="g28"><path id="path30" style="fill:#77b255;fill-opacity:1;fill-rule:nonzero;stroke:none" d="m 0,0 c -4.939,0 -9.603,4.349 -11.09,10.341 -1.72,6.931 1.349,13.679 6.841,15.041 0.648,0.161 1.316,0.243 1.986,0.243 4.939,0 9.604,-4.35 11.092,-10.342 C 9.666,11.906 9.405,8.476 8.09,5.622 6.794,2.809 4.627,0.897 1.989,0.243 1.339,0.082 0.67,0 0,0"/></g><g transform="translate(12.8711,31.1631)" id="g32"><path id="path34" style="fill:#a6d388;fill-opacity:1;fill-rule:nonzero;stroke:none" d="m 0,0 c -0.702,-0.001 -1.407,-0.084 -2.106,-0.257 -5.769,-1.432 -8.995,-8.437 -7.206,-15.647 1.572,-6.335 6.492,-10.721 11.575,-10.721 0.703,0 1.409,0.084 2.11,0.258 5.766,1.43 8.993,8.435 7.204,15.646 C 10.004,-4.386 5.083,0 0,0 m 0,-1 0,0 c 4.713,0 9.174,-4.19 10.606,-9.962 0.811,-3.268 0.56,-6.581 -0.707,-9.331 -1.231,-2.674 -3.279,-4.486 -5.768,-5.103 -0.61,-0.152 -1.238,-0.229 -1.868,-0.229 -4.712,0 -9.172,4.189 -10.604,9.962 C -9.995,-9 -7.089,-2.524 -1.865,-1.228 -1.256,-1.077 -0.629,-1.001 0,-1"/></g><g transform="translate(18.9736,17.4824)" id="g36"><path id="path38" style="fill:#a6d388;fill-opacity:1;fill-rule:nonzero;stroke:none" d="m 0,0 -2.799,-1.312 1.656,-4.152 -2.955,2.326 -0.697,-4.171 -1.377,4.099 -2.652,-1.745 1.006,3.975 -3.042,1.702 2.799,1.315 -1.657,4.149 2.958,-2.116 0.696,4.172 1.379,-4.31 2.645,1.746 -1,-3.974 L 0,0 Z"/></g><g transform="translate(18.9736,17.4824)" id="g40"><path id="path42" style="fill:none;stroke:#a6d388;stroke-width:2;stroke-linecap:round;stroke-linejoin:round;stroke-miterlimit:10;stroke-dasharray:none;stroke-opacity:1" d="m 0,0 -2.799,-1.312 1.656,-4.152 -2.955,2.326 -0.697,-4.171 -1.377,4.099 -2.652,-1.745 1.006,3.975 -3.042,1.702 2.799,1.315 -1.657,4.149 2.958,-2.116 0.696,4.172 1.379,-4.31 2.645,1.746 -1,-3.974 L 0,0 Z"/></g><g transform="translate(16.7881,17.9814)" id="g44"><path id="path46" style="fill:#c6e5b3;fill-opacity:1;fill-rule:nonzero;stroke:none" d="m 0,0 -1.71,-0.812 1.077,-2.538 -1.846,1.287 -0.378,-2.555 -0.911,2.634 -1.605,-1.077 0.566,2.437 -1.903,1.033 1.707,0.814 -1.078,2.539 1.851,-1.287 0.373,2.557 0.912,-2.637 1.61,1.078 L -1.902,1.035 0,0 Z"/></g><g transform="translate(16.7881,17.9814)" id="g48"><path id="path50" style="fill:none;stroke:#c6e5b3;stroke-width:1;stroke-linecap:round;stroke-linejoin:round;stroke-miterlimit:10;stroke-dasharray:none;stroke-opacity:1" d="m 0,0 -1.71,-0.812 1.077,-2.538 -1.846,1.287 -0.378,-2.555 -0.911,2.634 -1.605,-1.077 0.566,2.437 -1.903,1.033 1.707,0.814 -1.078,2.539 1.851,-1.287 0.373,2.557 0.912,-2.637 1.61,1.078 L -1.902,1.035 0,0 Z"/></g><g transform="translate(9.3057,21.043)" id="g52"><path id="path54" style="fill:#292f33;fill-opacity:1;fill-rule:nonzero;stroke:none" d="M 0,0 C 0.23,-0.497 0.147,-1.024 -0.185,-1.178 -0.517,-1.331 -0.971,-1.051 -1.201,-0.554 -1.43,-0.057 -1.348,0.47 -1.016,0.624 -0.685,0.777 -0.229,0.497 0,0"/></g><g transform="translate(16.0044,23.9795)" id="g56"><path id="path58" style="fill:#292f33;fill-opacity:1;fill-rule:nonzero;stroke:none" d="m 0,0 c -0.129,-0.532 -0.52,-0.894 -0.875,-0.809 -0.357,0.087 -0.539,0.589 -0.41,1.121 0.13,0.532 0.521,0.894 0.877,0.807 C -0.054,1.033 0.129,0.533 0,0"/></g><g transform="translate(13.3604,14.0645)" id="g60"><path id="path62" style="fill:#292f33;fill-opacity:1;fill-rule:nonzero;stroke:none" d="m 0,0 c -0.129,-0.532 -0.52,-0.894 -0.876,-0.809 -0.356,0.087 -0.538,0.588 -0.409,1.121 0.129,0.531 0.521,0.894 0.877,0.807 C -0.055,1.033 0.129,0.532 0,0"/></g><g transform="translate(16.5762,11.8867)" id="g64"><path id="path66" style="fill:#292f33;fill-opacity:1;fill-rule:nonzero;stroke:none" d="M 0,0 C 0.229,-0.497 0.147,-1.023 -0.185,-1.179 -0.516,-1.33 -0.971,-1.051 -1.201,-0.554 -1.429,-0.058 -1.348,0.47 -1.016,0.624 -0.685,0.776 -0.23,0.497 0,0"/></g><g transform="translate(17.6973,19.5698)" id="g68"><path id="path70" style="fill:#292f33;fill-opacity:1;fill-rule:nonzero;stroke:none" d="m 0,0 c -0.304,-0.291 -0.68,-0.391 -0.843,-0.225 -0.161,0.169 -0.046,0.542 0.258,0.834 0.303,0.292 0.681,0.393 0.843,0.225 C 0.42,0.665 0.305,0.292 0,0"/></g><g transform="translate(12.4229,21.9351)" id="g72"><path id="path74" style="fill:#292f33;fill-opacity:1;fill-rule:nonzero;stroke:none" d="m 0,0 c 0.181,-0.38 0.158,-0.768 -0.053,-0.871 -0.212,-0.098 -0.53,0.129 -0.71,0.51 -0.179,0.38 -0.156,0.769 0.056,0.87 C -0.497,0.61 -0.179,0.381 0,0"/></g><g transform="translate(8.4429,14.8408)" id="g76"><path id="path78" style="fill:#292f33;fill-opacity:1;fill-rule:nonzero;stroke:none" d="m 0,0 c -0.304,-0.292 -0.679,-0.392 -0.843,-0.225 -0.16,0.169 -0.046,0.542 0.258,0.834 C -0.282,0.9 0.095,1.002 0.258,0.834 0.42,0.665 0.305,0.292 0,0"/></g><g transform="translate(19.0654,15.7686)" id="g80"><path id="path82" style="fill:#292f33;fill-opacity:1;fill-rule:nonzero;stroke:none" d="M 0,0 C 0.329,-0.355 0.382,-0.842 0.116,-1.093 -0.151,-1.339 -0.636,-1.252 -0.966,-0.898 -1.295,-0.542 -1.35,-0.055 -1.081,0.196 -0.815,0.444 -0.331,0.356 0,0"/></g></g></g></g></svg>
