<?xml version="1.0" encoding="utf-8"?>
<!-- Generator: Adobe Illustrator 25.2.3, SVG Export Plug-In . SVG Version: 6.00 Build 0)  -->
<svg version="1.1" id="Layer_2" xmlns="http://www.w3.org/2000/svg" xmlns:xlink="http://www.w3.org/1999/xlink" x="0px" y="0px"
	 viewBox="0 0 128 128" style="enable-background:new 0 0 128 128;" xml:space="preserve">
<path style="fill:#598B15;" d="M30.94,78.75c0-0.94-0.31-14.43-1.57-19.29s-3.61-7.06-4.24-14.12s3.47-12.98,5.34-15.19
	c3.45-4.07,8.46-5.98,8.46-5.98s-1.17-7.17,4.39-10.51C49.6,9.89,54.31,16,55.25,16.47S75.33,6.44,75.33,6.44s3.45-2.61,10.2-2.51
	c9.32,0.13,13.15,5.79,14.9,7.84c2.67,3.14,4.92,10.73,4.77,15.28s-1.23,6.71-0.71,7.79s3.37,0.55,5.93,3.62
	c2.35,2.82,5.5,7.29,5.66,15.6c0.15,8.05-7.72,18.69-9.6,20.41c-1.88,1.73-4.09,3.48-5.66,5.84c-1.57,2.35-3.53,7.09-7.6,10.23
	c-4.08,3.14-10.34,4.36-14.42,4.83c-4.08,0.47-8.2-0.34-11.04,1.53c-2.94,1.93-6.42,10.17-12.08,14.59c-3.32,2.6-6.13,3.6-9.31,3.77
	c-4.88,0.27-7.01-0.91-8.98-1.47C34.08,112.85,30.94,78.75,30.94,78.75z"/>
<path style="fill:#85BB41;" d="M22.43,102.03c0,0-6.64-4.85-4.8-14.03c1.64-8.2,6.44-11.65,8.62-19.27
	c2.16-7.56,0.88-10.87,0.33-14.45c-0.6-3.91-0.92-4.21-0.47-4.41c0.47-0.21,4.83,11.78,4.83,12.05c0.09,3.47,1.08,9.31,0.35,12.85
	c-0.73,3.54-7.63,8.62-8.08,12.07c-0.45,3.45-1.82,11.17-1,13.25c0.82,2.09,4.81,2.83,4.81,2.83L22.43,102.03z"/>
<radialGradient id="SVGID_1_" cx="102.0328" cy="18.288" r="125.7932" gradientUnits="userSpaceOnUse">
	<stop  offset="0.5544" style="stop-color:#85BB41"/>
	<stop  offset="0.6141" style="stop-color:#A2C65F"/>
	<stop  offset="0.706" style="stop-color:#C9D487"/>
	<stop  offset="0.7788" style="stop-color:#E1DDA0"/>
	<stop  offset="0.8231" style="stop-color:#EAE0A9"/>
</radialGradient>
<path style="fill:url(#SVGID_1_);" d="M22.94,101.02c-0.36,0.48-1.81,2.29-3.38,3.62c-1.57,1.33-5.07,2.17-4.95,3.02
	c0.12,0.84,10.13,9.89,10.13,9.89l8.3,5.97c0,0,2.44-2.87,3.98-5.66c0.84-1.52,1.84-3.57,1.84-3.57s2.66,1.22,6.77,0.56
	c6.15-0.98,11.71-8.11,14.11-12.38c1.52-2.7,4.33-8.09,8.79-10.62c4.46-2.53,9.81-2.96,14.88-5.73c3.97-2.18,9.37-6.94,11.54-10.43
	c2.17-3.5,2.05-4.8,2.05-4.8s11.7-13.54,7.72-28.5s-7.96-13.27-10.74-17.13c-2.77-3.86-3.14-13.63-12.79-17.61
	S61.9,7.63,56.92,11.69c-4.79,3.9-12.74,10.26-17.13,24.94c-2.27,7.61-0.01,20.15-0.3,23.44c-0.48,5.4-6.9,12.61-6.9,12.61
	s-7.24,8.2-7.6,9.17c-0.36,0.97-3.02,12.91-3.02,12.91L22.94,101.02z"/>
<path style="fill:#598B15;" d="M41.65,101.91c0.91,0.09,8.08-0.91,12.98-7.35c4.9-6.44,4.81-14.07,4.72-13.8s-12.62,1.63-12.8,5.9
	C46.37,90.92,41.65,101.91,41.65,101.91z"/>
<path style="fill:#E9E7D7;" d="M26.28,104.73c0,0-6.9-2.26-6.28-11.74c0.6-9.25,8.07-13.44,9.43-23.83
	c0.66-5.03-0.74-8.95-1.98-13.16c-1.35-4.59-2.45-9.03-1.7-7.54c1.17,2.33,2.03,3.85,4.75,10.41c1.63,3.93,2.94,8.67,2.33,13.46
	c-0.99,7.79-8.34,14.15-8.97,20.58c-0.74,7.54,3.05,10.77,3.05,10.77L26.28,104.73z"/>
<path style="fill:#E9E7D7;" d="M30.04,111.83c-2.32-2.05-5.57-6.43-3.96-12.12c2.1-7.42,6.68-9.77,11.25-16.7s5.32-13.45,5.41-20.39
	c0.12-9.28,0.65-16.72,2.26-17.21c1.61-0.49,0.78,9.26,1.15,17.3c0.26,5.56,0.95,14.11,0.95,14.11s4.91-4.12,6.09-9.69
	c2.1-9.89-1.86-20.6-1.02-31.74c0.63-8.29,4.56-16.34,8.53-20.65c2.84-3.09,5.69-5.44,6.55-4.95s-4.95,6.43-7.54,13.36
	S56.51,36.88,57.5,44.3s2.38,14.78,3.25,14.53c0.87-0.25,6.16-10.77,7.81-18.86c1.61-7.92,2.43-13.23,6.26-18.55
	c3.83-5.32,8.29-8.41,9.03-7.67c1.31,1.31-3.56,3.7-6.77,11.61c-1.92,4.72-1.88,7.97-3.54,16.15c-0.85,4.21-4.01,13.63-3.89,14.01
	s4.46-1.82,7.55-4.04s8.51-6.34,13.33-12.65c2.73-3.58,4.57-6.53,5.81-5.67c1.24,0.87-4.3,11.54-9.42,16.31
	c-7.3,6.8-16.68,11.89-16.68,12.87s8.94,0.19,17.85-2.27c7.17-1.98,14.8-7.5,15.67-6.14c0.87,1.36-8.04,6.41-13.84,8.66
	c-9.28,3.59-17.08,3.22-22.4,6.43c-5.32,3.22-8.5,8.54-9.03,9.52c-0.19,0.35,8.9-2.1,17.56-3.34c8.66-1.24,20.53-5.44,20.9-4.08
	c0.37,1.36-4.33,4.08-14.72,6.55c-10.39,2.47-18.3,4.82-23.99,8.41S48.97,94.02,46,99.21c-2.97,5.19-3.02,13.37-7.35,15.23
	C35.8,115.66,32.15,113.68,30.04,111.83z"/>
<path style="fill:#B5CF17;" d="M14.75,107.1c-1.28,0.64-0.77,2.53-0.01,3.68c1.15,1.77,3.1,3.78,7.77,7.43
	c3.63,2.83,5.45,4.12,7.55,5.03c1.64,0.71,3.29,0.75,3.56-0.35c0.07-0.28-5.89-4.15-9.64-7.13
	C17.52,110.64,15.03,106.96,14.75,107.1z"/>
</svg>
