<?xml version="1.0" encoding="utf-8"?>
<!-- Generator: Adobe Illustrator 25.2.3, SVG Export Plug-In . SVG Version: 6.00 Build 0)  -->
<svg version="1.1" id="Layer_3" xmlns="http://www.w3.org/2000/svg" xmlns:xlink="http://www.w3.org/1999/xlink" x="0px" y="0px"
	 viewBox="0 0 128 128" style="enable-background:new 0 0 128 128;" xml:space="preserve">
<path style="fill:#DC7E13;" d="M3.98,42.07c-0.88,3.92-0.53,7.38,0.44,10.36c1.12,3.41,2.97,6.07,2.97,6.07l4.34,39.36
	c0,0,1.55,2.01,3.56,2.79c2.01,0.77,17.2,14.41,17.2,14.41l4.18-0.31l23.37,7.6l3.65-1.25l2.98,1.35l21.14-5.38l5-2.4
	c0,0,0.96,0.19,2.11,0.1c1.15-0.1,6.05-2.21,6.05-2.21l12.4-12.3c0,0,0.73-0.35,1.54-0.79c1.1-0.59,1.54-1.14,1.54-1.14l1.92-8.74
	c0,0,5.46-36.16,5.74-38.47c0.29-2.31,1.66-7.85-2.09-13.33s-7.98-5.19-7.98-5.19s1.29-10.33-7.1-16.52
	c-8.4-6.2-15.58-3.75-15.58-3.75s-4.04-7.11-13.26-8.26S63.51,7.62,63.51,7.62s-5.48-3.56-13.74-2.59s-12.68,7.4-12.68,7.4
	s-8.64-1.97-15.63,4.59c-6.85,6.44-5.7,13.28-5.7,13.28S6.14,32.41,3.98,42.07z"/>
<radialGradient id="SVGID_1_" cx="91.2761" cy="80.8196" r="31.4553" gradientUnits="userSpaceOnUse">
	<stop  offset="0.5722" style="stop-color:#F5B03E"/>
	<stop  offset="0.6712" style="stop-color:#F0A736"/>
	<stop  offset="0.8332" style="stop-color:#E38E21"/>
	<stop  offset="0.9118" style="stop-color:#DC8015"/>
</radialGradient>
<path style="fill:url(#SVGID_1_);" d="M98.58,77.13c0,0,5.19,0.25,10.01-2.1c3.79-1.85,6.92-5.56,6.92-5.56s0,8.65-0.99,18.28
	c-0.89,8.65-1.14,12.5-1.14,12.5s-0.78,8.12-6.77,11.71c-6.63,3.98-11.68,2.8-11.68,2.8s1.8-13.3,2.41-21.58
	S98.58,77.13,98.58,77.13z"/>
<radialGradient id="SVGID_2_" cx="74.2239" cy="85.8359" r="33.8867" gradientUnits="userSpaceOnUse">
	<stop  offset="0.6031" style="stop-color:#F5B03E"/>
	<stop  offset="0.7002" style="stop-color:#F0A736"/>
	<stop  offset="0.8592" style="stop-color:#E38E21"/>
	<stop  offset="0.9363" style="stop-color:#DC8015"/>
</radialGradient>
<path style="fill:url(#SVGID_2_);" d="M66.7,87.13c0,0,6.68,4.6,14.11,3.56c7.43-1.04,13.07-7.72,13.07-7.72s-0.15,18.27-0.45,21.83
	s-0.62,9.86-0.62,9.86s-2.2,7.07-12.3,9s-15.51-1.97-15.51-1.97s0.8-17.34,1.1-21.65C66.41,95.74,66.7,87.13,66.7,87.13z"/>
<radialGradient id="SVGID_3_" cx="98.883" cy="64.8042" r="36.3639" gradientUnits="userSpaceOnUse">
	<stop  offset="0.4886" style="stop-color:#F5B03E"/>
	<stop  offset="0.6104" style="stop-color:#F0A736"/>
	<stop  offset="0.8097" style="stop-color:#E38E21"/>
	<stop  offset="0.9065" style="stop-color:#DC8015"/>
</radialGradient>
<path style="fill:url(#SVGID_3_);" d="M119.28,56.98c0,0,2.23-2.08,3.27-3.86c1.04-1.78,1.93-4.6,1.93-4.6s-0.3,14.09-1.19,25.39
	c-0.58,7.44-1.57,15.54-2.55,18.38c-1.32,3.81-4.73,6.47-4.73,6.47s2.13-19.91,2.65-27.82S119.28,56.98,119.28,56.98z"/>
<radialGradient id="SVGID_4_" cx="57.0044" cy="81.8197" r="37.3898" gradientUnits="userSpaceOnUse">
	<stop  offset="0.5635" style="stop-color:#F5B03E"/>
	<stop  offset="0.6722" style="stop-color:#F0A736"/>
	<stop  offset="0.85" style="stop-color:#E38E21"/>
	<stop  offset="0.9363" style="stop-color:#DC8015"/>
</radialGradient>
<path style="fill:url(#SVGID_4_);" d="M35.52,83.13c0,0,6.77,7.4,15.62,7.6s12.29-3.44,12.29-3.44s-0.73,25.21-0.83,27.81
	c-0.1,2.6-0.35,6.49-0.35,6.49s-8.35,4.38-16.63,1.78c-9.9-3.11-9.59-8.55-9.59-8.55s-0.62-18.89-0.62-22.12
	C35.42,89.48,35.52,83.13,35.52,83.13z"/>
<radialGradient id="SVGID_5_" cx="36.4113" cy="80.8881" r="30.5282" gradientUnits="userSpaceOnUse">
	<stop  offset="0.4748" style="stop-color:#F5B03E"/>
	<stop  offset="0.6094" style="stop-color:#F0A736"/>
	<stop  offset="0.8295" style="stop-color:#E38E21"/>
	<stop  offset="0.9363" style="stop-color:#DC8015"/>
</radialGradient>
<path style="fill:url(#SVGID_5_);" d="M14.69,72.92c0,0,2.81,3.23,6.25,4.69s10.62,1.77,10.62,1.77s0.73,17.92,1.04,22.19
	c0.31,4.27,0.65,13.43,0.65,13.43s-6.79,1.45-13.05-4.16c-5-4.48-4.92-10.19-4.92-10.19L14.69,72.92z"/>
<radialGradient id="SVGID_6_" cx="10.4651" cy="52.3015" r="40.466" gradientUnits="userSpaceOnUse">
	<stop  offset="0.522" style="stop-color:#F5B03E"/>
	<stop  offset="0.8416" style="stop-color:#E28C1F"/>
	<stop  offset="0.9363" style="stop-color:#DC8015"/>
</radialGradient>
<path style="fill:url(#SVGID_6_);" d="M10.53,58.13l1.2,39.73c0,0-3.18-1.08-4.64-5.46c-1.46-4.37-3.44-43.23-3.44-43.23
	s1.17,3.62,2.81,5.62C8.34,57.09,10.53,58.13,10.53,58.13z"/>
<path style="fill:#891E0C;" d="M11.71,39.65c0,0-3.85-0.83-4.56,3.62c-0.58,3.61,2.26,5.1,3.91,5.1s4.57-0.87,4.33-4.42
	C15.23,41.43,13.13,39.73,11.71,39.65z"/>
<path style="fill:#B85500;" d="M11.42,39c-1.54,0-3.79,0.71-3.97,3.32s1.84,3.73,3.73,3.85c1.9,0.12,4.09-1.42,4.03-3.73
	S13.25,39,11.42,39z"/>
<path style="fill:#FED386;" d="M8.75,44.45c1.34,0.47,2.55-1.9,2.73-2.9c0.18-1.01-1.36-2.13-2.43-1.01
	C7.68,41.96,7.57,44.03,8.75,44.45z"/>
<path style="fill:#891E0C;" d="M114.66,42.6c0,0-1.17,1.43-0.72,4.09c0.29,1.7,1.97,2.68,3.67,2.66c3.17-0.03,4.06-3.2,3.32-5.29
	S114.66,42.6,114.66,42.6z"/>
<path style="fill:#B65500;" d="M117.62,40.56c-2.52,0.09-3.48,1.76-3.48,3.35s1.24,3.12,3.35,3.23c2.42,0.12,3.83-1.34,3.73-3.56
	C121.12,41.36,119.31,40.5,117.62,40.56z"/>
<path style="fill:#FFD288;" d="M117.26,41.54c-0.87-0.41-1.53,0.02-2.06,0.69c-0.84,1.05-0.76,2.55,0.15,2.9
	c1.17,0.45,1.91-0.66,2.24-1.34C117.86,43.22,118.16,41.96,117.26,41.54z"/>
<path style="fill:#891E0C;" d="M109.07,54.75c0,0,4.15-1.91,3.89-9.93c-0.22-6.85-5.46-6.75-5.46-6.75s5.5-9.76-1.92-16.99
	c-7.42-7.23-18.83,0.46-18.83,0.46s-1.62-5.04-10.27-6.18c-8.65-1.14-12.17,3.61-12.17,3.61s-1.81-3.04-9.6-2.95
	c-7.8,0.1-11.41,5.32-11.41,5.32S30,17.37,23.77,24.16C17.2,31.31,24,37.7,24,37.7s-4.99,0.32-5.46,5.83
	c-0.57,6.65,4.92,10.05,4.92,10.05s-9.28,3.31-5.72,14.2c3.42,10.45,16.18,9.63,17.88,9.03c0.36-0.13,4.62,7.39,13.56,8.98
	c9.6,1.71,15.99-3.81,15.99-3.81s4.12,4.52,14.58,3.74c9.73-0.72,13.21-9.46,13.21-9.46s14.05,2.28,19.95-7.9
	C117.23,60.85,109.07,54.75,109.07,54.75z M106.46,46.85c-0.48,4.76-6.98,4.6-6.98,4.6s1.34,1-1.21,0.51
	c-2.17-0.42-4.04-0.5-4.9-0.51c0.19-1.1,0.33-2.23,0.39-3.39c0.04-0.7,0.39-1.99,0.35-2.66c0.84-0.09,2.92,0.13,5.15-0.64
	c3.27-1.12,4.89-2.6,4.89-2.6S106.81,43.38,106.46,46.85z M91.17,26.33c4.48-2.02,8.82-2.7,11.27-0.31
	c2.93,2.86,3.14,10.58-5.41,14.11c-1.84,0.76-3.64,1.22-5.33,1.48c-0.49-1.44-1.76-3.75-2.59-5c1.15-0.1,3.38-0.02,5.64-1.4
	c4.48-2.73,5.73-7.09,3.29-9.65c-1.25-1.31-4.34,2.32-7.37,3.95c-2.02,1.09-3.73,3.08-4.49,4.04c-1.11-0.99-1.13-1.48-1.2-1.89
	C86.24,30.08,88.73,27.44,91.17,26.33z M45.42,50.86c1.12,0.49,1.75,0.56,1.75,0.56s-1.89,10.18,7.42,10.37
	c1.14,0.02,3-1.56,3.07-1.63c0.02,0,0.7,3.59,6.92,3.84c3.42,0.14,8.04-0.77,8.25-5.03c2.31,2.52,6.83,1.47,8.53-0.21
	c3.01-2.98,2.87-6.22,1.33-8.95c2.87-0.63,3.86-2.04,4.4-2.59c0.76,9.57-6.92,19.72-21.99,19.15c-15.81-0.6-21.54-9.93-22.11-17.4
	C43.71,49.55,44.63,50.52,45.42,50.86z M55.02,21.21c3.55,0,6.8,1.71,9.36,1.77c2.97,0.07,7.48-4.28,12.11-3.47
	c5.73,1,6.38,5.43,6.38,5.43s-2.51,0.59-3.25,1.65c-0.4,0.57-0.89,1.29-1.39,2.05c-4.29-1.79-9.04-2.73-13.53-2.73
	c-4.19,0-8.38,0.88-12.17,2.47c-0.57-0.93-1.3-2.04-1.82-2.61c-0.99-1.07-1.34-1.37-1.34-1.37S51.32,21.21,55.02,21.21z
	 M29.13,27.47c2.14-2.55,5.91-3.44,11.9-1.96c4.02,0.99,5.9,3.64,6.77,5.36c-0.42,0.28-0.84,0.57-1.24,0.86
	c-0.98-1.19-6.03-4.53-9.22-5.07c-4.7-0.8-5.16,0.83-5.35,2.15c-0.23,1.57,0.36,3.9,4.54,5.7c1.53,0.66,5.18,1.28,6.4,1.4
	c-0.55,0.69-2.19,1.75-2.65,2.49c-1.65,0.04-4.15-0.12-7.37-0.98C26.74,35.78,27.18,29.79,29.13,27.47z M26.62,44.29
	c-0.21-1.75,1.23-2.91,1.23-2.91s0.87,0.97,3.91,1.71c1.85,0.45,3.09,0.53,4.73,0.53c-0.38,1.33-0.16,3.02-0.01,3.5
	c0.3,0.98,0.76,2.59,0.87,3.61c-1.36-0.06-2.76-0.24-3.79-0.16c-2.14,0.16-3.15-0.86-3.15-0.86S27.03,47.72,26.62,44.29z
	 M36.76,70.19c-5.17,2.05-9.3-0.37-11.93-4.84c-0.56-0.94-1.55-5.16,5.39-8.68c3.57-1.81,6.41-1.27,8.55-1.05
	c0.19,0.5,0.41,1,0.65,1.49c-1.4,0.18-5.66-1.32-7.88-0.21c-3.11,1.56-3.07,3.88-2.43,6.15c0.83,2.98,5.59,3.29,8.63,1.81
	c2.33-1.14,3.76-2.47,4.49-3.27c0.61,0.77,1.27,1.52,1.98,2.23C43.61,65.66,41.81,68.18,36.76,70.19z M77.9,80.62
	c-7.47,0.82-11.17-5.67-12.56-5.75c-1.4-0.08-4.28,5.03-11.33,5.5c-7.39,0.49-12.48-5.91-12.48-5.91s2.79-1.31,5.09-3.45
	c1.01-0.94,2.55-2.34,3.08-3.48c4.49,2.8,9.33,4.4,15.44,4.32c5.65-0.07,10.56-1.18,14.67-3.34c0.86,1.11,1.72,2.16,2.28,2.66
	c1.48,1.31,4.68,3.28,4.68,3.28S83.56,80,77.9,80.62z M104.19,67.85c-3.3,5.03-7.58,3.7-13.48,1.44c-3.14-1.21-6.62-3.33-7.82-4.57
	c1.09-0.94,2.33-1.12,3.22-2.24c1.51,1.16,3.75,2.79,6.05,3.47c4.15,1.22,8.64,0.83,9.93-1.99c1.11-2.42,0.76-5.29-3.55-6.98
	c-2.5-0.98-6.76,0.83-8.33,0.75c0.27-0.57,0.52-1.15,0.75-1.75c2.41,0.08,5.66,0.44,8.86,1.57
	C107.55,60.25,105.75,65.46,104.19,67.85z"/>
<radialGradient id="SVGID_7_" cx="65.1744" cy="47.0207" r="42.5429" gradientTransform="matrix(-5.025062e-03 -1 1.7181 -8.633691e-03 -15.2847 112.6002)" gradientUnits="userSpaceOnUse">
	<stop  offset="0.3332" style="stop-color:#E37406"/>
	<stop  offset="0.528" style="stop-color:#D05F06"/>
	<stop  offset="0.9299" style="stop-color:#9F2806"/>
	<stop  offset="0.9363" style="stop-color:#9E2706"/>
</radialGradient>
<path style="fill:url(#SVGID_7_);" d="M107.94,52.66c0,0,5.3-1.85,4.96-8.01c-0.38-6.85-6.08-9.89-6.08-9.89s5.98-7.23-1.44-14.46
	c-7.42-7.23-18.72-2.18-18.72-2.18s-1.51-5.33-10.17-6.47c-8.65-1.14-12.33,3.63-12.33,3.63s-1.87-2.85-9.66-2.75
	c-7.8,0.1-11.29,5.41-11.29,5.41s-12.26-3.52-18.92,2.85c-6.66,6.37-0.38,13.5-0.38,13.5s-4.94,2.09-5.42,7.61
	c-0.57,6.65,5.04,9.03,5.04,9.03s-9.13,4.94-6.37,14.36c3.45,11.78,20.16,8.18,20.16,7.8s4.28,7.61,13.22,9.22
	s14.83-4.37,14.83-4.37s2.09,4.85,12.55,4.09c10.46-0.76,13.79-9.22,13.79-9.22s14.93,3.8,20.82-6.37
	C116.87,58.91,107.94,52.66,107.94,52.66z M108.61,45.01c-0.41,4.76-4.11,5.42-4.11,5.42s-3.78-1.4-6.32-1.89
	c-2.17-0.42-5.22-0.48-6.08-0.49c0.19-1.1,0.33-2.23,0.39-3.39c0.04-0.7,0.02-1.38-0.02-2.05c0.84-0.09,3.97-0.53,6.53-1.63
	c2.19-0.94,4.76-2.87,4.76-2.87S109.02,40.25,108.61,45.01z M89.22,22.26c4.6-1.72,10.35-1.97,13.39,1.23
	c2.82,2.97,2.87,9.69-5.67,13.22c-1.84,0.76-3.64,1.22-5.33,1.48c-0.49-1.44-1.18-2.78-2-4.03c1.15-0.1,3-0.64,5.18-2.15
	c3.58-2.49,4.28-5.47,3.27-6.54c-1.25-1.32-4.44-1.01-7.47,0.62c-2.02,1.09-3.73,3.08-4.49,4.04c-1.11-0.99-2.31-1.9-3.61-2.7
	C83.74,25.85,86.13,23.42,89.22,22.26z M43,43.71c0.76-9.1,10.14-16.72,21.61-16.49c14.22,0.28,21.7,8.08,22.37,16.59
	c0.76,9.57-6.99,19.08-22.06,18.52C47.18,61.66,42.34,51.65,43,43.71z M56.62,17.09c5.5,0.57,6.41,2.96,7.72,3.04
	c1.31,0.08,5.58-5.01,11.33-4.11c5.75,0.9,6.98,3.86,6.98,3.86s-2.38,2.23-3.12,3.28c-0.4,0.57-0.89,1.29-1.39,2.05
	c-4.29-1.79-9.04-2.73-13.53-2.73c-4.19,0-8.38,0.88-12.17,2.47c-0.57-0.93-1.3-2.04-1.82-2.61c-0.99-1.07-2.87-2.38-2.87-2.38
	S51.12,16.51,56.62,17.09z M28.29,24.48c2.14-2.55,6.65-3.86,12.65-2.38c4.02,0.99,5.9,3.64,6.77,5.36
	c-0.42,0.28-0.84,0.57-1.24,0.86c-0.98-1.19-2.82-2.53-6.02-3.08c-4.7-0.8-6.62,0.31-7.08,1.4c-0.35,0.82-0.13,3.33,4.05,5.14
	c1.53,0.66,3.05,0.95,4.28,1.06c-0.55,0.69-1.05,1.4-1.51,2.14c-1.65,0.04-3.37-0.05-6.51-1.17C27.44,31.6,26.35,26.79,28.29,24.48z
	 M23.12,41.97c0.35-3.44,4.27-4.68,4.27-4.68s1.64,1.31,4.68,2.05c1.85,0.45,4.3,0.53,5.94,0.53c-0.38,1.35-0.63,2.76-0.69,4.22
	c-0.05,1.03,0,2.05,0.12,3.06c-1.36-0.06-2.94-0.09-3.97-0.01c-2.14,0.16-5.09,1.31-5.09,1.31S22.62,46.82,23.12,41.97z
	 M36.67,66.77c-5.17,2.05-12.81,0.41-13.14-4.11c-0.08-1.09-0.87-5.27,6.08-8.79c3.57-1.81,6.93-1.9,9.07-1.68
	c0.19,0.5,0.41,1,0.65,1.49c-1.4,0.18-3.97,0.65-6.2,1.76c-3.11,1.56-4.67,3.43-3.97,5.68c0.7,2.26,5.45,1.79,8.49,0.31
	c2.33-1.14,3.76-2.47,4.49-3.27c0.61,0.77,1.27,1.52,1.98,2.23C43.51,62.25,41.71,64.77,36.67,66.77z M77.81,77.2
	c-7.47,0.82-11.17-5.67-12.56-5.75c-1.4-0.08-4.28,5.03-11.33,5.5c-7.39,0.49-12.48-5.91-12.48-5.91s2.79-1.31,5.09-3.45
	c1.01-0.94,1.8-2.32,2.33-3.45c4.49,2.8,10.03,4.48,16.15,4.41c5.65-0.07,10.61-1.29,14.72-3.45c0.86,1.11,1.72,2.16,2.28,2.66
	c1.48,1.31,4.68,3.28,4.68,3.28S83.46,76.58,77.81,77.2z M106.56,63.18c-2.28,4.69-8.96,4.7-14.86,2.43
	c-3.14-1.21-5.44-2.84-6.64-4.08c0.79-0.66,1.35-1.53,2.24-2.64c0.83,1.11,2.45,2.85,5,3.95c3.97,1.71,9.03,1.56,9.73-1.01
	c0.7-2.57-0.69-4.85-5-6.55c-2.5-0.98-5.34-0.9-6.9-0.98c0.27-0.57,0.52-1.15,0.75-1.75c2.41,0.08,5.67,0.41,8.86,1.57
	C106.95,56.73,107.74,60.75,106.56,63.18z"/>
<path style="fill:#E47702;" d="M60.03,42.75c-0.26,2.64,1.61,4.96,4.96,5.03c3.36,0.07,5.52-1.47,5.45-5.24
	c-0.06-3.01-2.8-4.26-5.59-4.12C62.62,38.53,60.31,39.89,60.03,42.75z"/>
<path style="fill:#E27406;" d="M60.77,39.52c1.06-1.21-0.76-4.85-2.34-6.94c-1.81-2.39-4.95-2.95-6.66-1.03s-1.03,4.26,0.62,5.57
	C54.52,38.81,59.81,40.62,60.77,39.52z"/>
<path style="fill:#E27406;" d="M60.17,31.12c0,2.31,2.31,6.59,4.78,6.7c0.84,0.04,4.03-3.59,4.1-6.32c0.07-2.73-1.79-4.08-4.1-4.01
	C62.64,27.56,60.17,28.39,60.17,31.12z"/>
<path style="fill:#E57702;" d="M68.87,39.02c1.08,0.81,5.1-0.87,6.83-1.74c1.74-0.87,6.18-3.09,1.9-6.29
	c-3.4-2.54-5.8-0.38-7.32,2.5C69.37,35.22,68.32,38.6,68.87,39.02z"/>
<path style="fill:#E27406;" d="M71.53,42.7c-0.24,1.61,5.34,3.69,9.12,3.53c3.77-0.16,5.92-2.36,5.24-5.4
	c-0.68-3.04-2.98-4.22-7.4-2.84C74.7,39.18,71.73,41.35,71.53,42.7z"/>
<path style="fill:#E27406;" d="M58.42,42.94c-0.05,1.1-4.98,4.17-9.5,4.33c-3.71,0.13-5.36-1.65-5.08-4.7
	c0.27-2.93,2.65-4.39,5.54-4.18C51.62,38.55,58.51,40.98,58.42,42.94z"/>
<path style="fill:#E27406;" d="M60.02,46.69c-0.54-0.47-7.92,0.74-10.37,3.8c-1.74,2.18-0.65,5.31,0.89,6.48s5.04,2.25,7.06-1.16
	S60.77,47.33,60.02,46.69z"/>
<path style="fill:#E27406;" d="M65.33,48.7c-1.48-0.11-4.83,6.92-4.94,8.9c-0.11,1.98,0.22,3.9,4.23,4.12
	c4.01,0.22,5.11-1.87,5-4.01C69.53,55.94,66.76,48.81,65.33,48.7z"/>
<path style="fill:#E27406;" d="M70.06,47.1c-0.66,0.49-0.16,5.44,3.19,8.68c3.35,3.24,7.05,1.49,7.97-0.22
	c1.54-2.86,0.27-5.22-2.97-6.98C75,46.83,71.02,46.38,70.06,47.1z"/>
<path style="fill:#FED287;" d="M74.84,42.32c0.16,1.15,1.6,1.78,3.79,0.88c1.85-0.76,2.85-2.22,2.09-3.19
	c-0.82-1.04-2.58-0.55-3.63-0.16C76.05,40.23,74.68,41.22,74.84,42.32z"/>
<path style="fill:#FED287;" d="M70.88,37.27c0.95,0.28,1.98-0.88,2.25-1.81c0.27-0.93,0.6-2.14-0.44-2.47
	c-0.8-0.25-1.48,0.16-2.14,1.59C70.26,35.22,69.78,36.94,70.88,37.27z"/>
<path style="fill:#FED287;" d="M61.51,30.32c-0.64,1.5-0.1,4.37,1.03,4.53c1.33,0.19,0.98-1.27,1.76-2.79
	c0.59-1.15,2.2-2.69,0.78-3.48C63.93,27.94,62.39,28.26,61.51,30.32z"/>
<path style="fill:#FED287;" d="M54.28,31.14c-1.54-0.27-2.5,1.09-2.25,3.08c0.44,3.57,4.78,3.85,5.05,2.64
	c0.3-1.32-1.48-1.59-1.48-2.97S55.81,31.41,54.28,31.14z"/>
<path style="fill:#FFD285;" d="M64.72,39.13c-1.18-0.22-3.85,0.59-3.78,3.84s4.13,4.25,4.56,2.18c0.42-2.07-0.8-2.43-0.74-3.32
	C64.82,40.79,65.7,39.31,64.72,39.13z"/>
<path style="fill:#FFD285;" d="M46.45,45.44c2.28,0.55,2.25-1.66,3.49-2.84c1.24-1.18,2.52-1.18,2.4-2.39s-3.82-1.62-5.54-0.63
	C44.51,40.91,44.21,44.9,46.45,45.44z"/>
<path style="fill:#FFD285;" d="M52.69,56.22c2.18-0.6,0.68-3.01,1.12-4.05c0.44-1.04,1.76-2.92,1.04-3.37
	c-0.72-0.44-4.17,0.08-4.85,3.53C49.58,54.51,50.81,56.74,52.69,56.22z"/>
<path style="fill:#FFD285;" d="M64.39,54.14c-0.76-0.25-2.16,0.12-2.76,2.64c-0.54,2.29,0.33,3.09,0.88,3.33
	c1.04,0.44,2.24-1.28,2.6-2.64C65.47,56.1,65.59,54.54,64.39,54.14z"/>
<path style="fill:#FFD285;" d="M71.2,48.41c-0.71,0.66-0.88,1.87,0.68,3.89c1.48,1.92,2.84,2.72,3.89,1.68
	c1.04-1.04-0.28-3.29-1.12-4.45C73.81,48.37,72.21,47.48,71.2,48.41z"/>
<path style="fill:#FED287;" d="M87.58,30.64c0.13,1.11,1.49,1.67,3.04,1.22s2.25-1.52,1.76-2.67c-0.49-1.15-1.79-1.43-2.89-1.06
	C88.41,28.49,87.43,29.34,87.58,30.64z"/>
<path style="fill:#FED287;" d="M79.27,25.45c0.52,0.48,1.51,0,2.72-1.04c0.86-0.74,2.68-2.04,3.78-2.77
	c1.1-0.73,3.17-2.03,5.34-2.84c1.64-0.62,1.26-2.2-0.98-1.82c-1.88,0.33-3.43,0.78-5.79,2.29c-2.15,1.38-3.47,2.98-4.14,3.79
	C79.54,23.87,78.84,25.06,79.27,25.45z"/>
<path style="fill:#FED287;" d="M64.33,17.51c0.58,0.79,2.6-1.32,5.18-2.2c3.28-1.12,6.52-0.73,6.44-2.12
	c-0.06-0.95-3.71-1.34-7.3,0.13C65.41,14.64,63.72,16.69,64.33,17.51z"/>
<path style="fill:#FED287;" d="M46.6,16.99c0.55,0.79,1.47-0.22,4.19-0.99c2.72-0.78,4.23-0.78,4.1-1.9
	c-0.13-1.14-2.59-1.08-5.27-0.17C48.11,14.44,45.9,16,46.6,16.99z"/>
<path style="fill:#FED287;" d="M34.3,26.88c-0.6,0.69,0.27,1.89,1.17,2.59c1.17,0.91,2.51,0.99,2.98,0.39
	c0.48-0.6-0.11-2.16-1.25-2.85C35.99,26.27,34.87,26.23,34.3,26.88z"/>
<path style="fill:#FED287;" d="M41.39,18.97c-0.06,0.91-1.47,0.8-3.28,0.71c-1.81-0.09-7.51-0.48-10.26,2.52
	c-3.65,3.97-2.48,6.96-2,8.22c0.48,1.25,1.21,2.33,0.52,2.68c-0.69,0.35-1.99-0.71-2.59-1.88c-0.62-1.2-3.13-6.07,2.33-10.73
	C31.64,15.74,41.47,17.64,41.39,18.97z"/>
<path style="fill:#FED287;" d="M25.26,35.55c0.62,0.58-1.01,1.54-2.15,2.92c-1.68,2.05-1.76,4.73-0.39,7.15
	c0.6,1.06,2.84,2.29,2.04,2.97c-0.8,0.68-2.63-0.03-3.75-1.84c-0.35-0.57-1.44-2.83-1.2-5.15c0.36-3.57,2-4.75,2.69-5.4
	C23.18,35.56,24.58,34.9,25.26,35.55z"/>
<path style="fill:#FED287;" d="M34.53,56.21c-1.14-0.61-2.93,0.28-3.73,1.4c-0.56,0.79-1.48,2.85-0.12,3.65
	c1.48,0.87,1.88-1.16,3.21-2.25C35.21,57.94,35.57,56.77,34.53,56.21z"/>
<path style="fill:#FED287;" d="M32.5,48.99c0.63,0.82-2.85,2.27-5.07,3.45c-2.3,1.23-6.25,5.26-5.39,10.31
	c0.78,4.6,2.74,5.69,1.61,6.55c-1.13,0.86-5.53-1.99-5.26-8.59c0.23-5.65,4.62-9.57,8.05-10.88C28.8,48.93,31.75,48.02,32.5,48.99z"
	/>
<path style="fill:#FED287;" d="M40.1,72.3c-0.69,0.44-0.46,2.4,3.09,5.21c3.09,2.45,5.32,2.04,5.57,1.28
	c0.36-1.11-1.9-1.63-4.51-3.66C42.86,74.06,41.03,71.71,40.1,72.3z"/>
<path style="fill:#FED287;" d="M65.89,74.39c-0.92,0.55-0.05,4.15,4.66,5.83c5.13,1.84,9.36,0.28,8.99-1.22
	c-0.27-1.07-3.48,0.52-8.14-1.65C68.74,76.12,67.16,73.63,65.89,74.39z"/>
<path style="fill:#FED287;" d="M90.12,58.2c-1.05,0.64-0.28,1.88,1.51,3.06c1.79,1.18,3.53,0.94,3.91,0.38s0.24-1.69-1.84-3.01
	C92.53,57.88,91.21,57.54,90.12,58.2z"/>
<path style="fill:#FED287;" d="M81.84,30.63c-0.52,1.41,1.18,2.21,2.68,3.72s2.87,4.38,3.29,6.73c0.44,2.42,0.52,4.38,0.24,6.68
	c-0.16,1.34-1.08,2.92-0.05,3.58c1.04,0.66,2.26-0.99,2.73-3.01c0.47-2.02,1.22-4.42-0.38-9.98c-0.92-3.2-3.95-5.88-4.85-6.73
	C84.62,30.77,82.32,29.31,81.84,30.63z"/>
<path style="fill:#FED287;" d="M41.8,54.44c0.65-0.16,0.38-1.69,0.28-3.39s-1.73-13.52,5.9-19.76c6.91-5.65,13.47-5.45,15.02-5.57
	c1.11-0.09,1.65-0.56,1.6-1.13c-0.05-0.56-0.61-1.22-2.12-1.13c-1.51,0.09-10.47-0.22-17.81,6.94c-4.25,4.14-5.21,8.28-5.65,11.76
	c-0.59,4.68,0.51,8.49,0.75,9.27C40.2,52.79,40.44,54.76,41.8,54.44z"/>
</svg>
