<?xml version="1.0" encoding="utf-8"?>
<!-- Generator: Adobe Illustrator 25.2.3, SVG Export Plug-In . SVG Version: 6.00 Build 0)  -->
<svg version="1.1" id="Layer_2" xmlns="http://www.w3.org/2000/svg" xmlns:xlink="http://www.w3.org/1999/xlink" x="0px" y="0px"
	 viewBox="0 0 128 128" style="enable-background:new 0 0 128 128;" xml:space="preserve">
<path style="fill:#FEB502;" d="M57.64,20.92l-29.45,5.37c0,0,0.35,29.12,0.04,42.77c-0.31,13.65-0.42,33-0.2,35.45
	c0.19,2.13,6.75,8.9,6.75,8.9l22.09,7.98l21.47-0.77l18.71-8.74c0,0,2.79-3.75,3.32-5.02c0.41-0.97,0.03-28.13,0.03-41.06
	c0-10.89,0.55-40.46,0.55-40.46L57.64,20.92z"/>
<path style="fill:#B0B0B0;" d="M28.3,109.44c0.34,1.48,12.21,14.85,36.18,14.85s35.46-11.73,35.68-12.94
	c0.22-1.21,0.26-4.66,0.26-4.66s-11.64,12.65-35.61,12.76c-24.31,0.11-36.8-15.08-36.8-15.08S27.96,107.96,28.3,109.44z"/>
<path style="fill:#E0E0E0;" d="M38.42,10.35l-10.27,7.7c0,0-0.3,3.29-0.29,4.84c0.02,2.3,0.33,3.41,0.33,3.41s6.9,11.2,36.68,12
	c26.91,0.72,36.02-9.46,36.02-9.46s1.15-2.41,1.4-4.15c0.42-2.87-0.08-5.31-0.08-5.31L38.42,10.35z"/>
<path style="fill:#B0B0B0;" d="M65.37,3.86C47.56,3.21,28.19,9.25,28.08,18.7c-0.11,9.79,24.53,15.53,36.73,15.62
	c15.15,0.11,37.17-5.28,37.5-14.08C102.65,11.45,84.85,4.57,65.37,3.86z"/>
<path style="fill:#858585;" d="M65.37,16.72c0,0-28.81,5.5-30.46,4.07c-1.65-1.43-2.97-2.64,0.77-5.94s14.06-7.74,30.57-7.04
	c17.32,0.74,30.22,6.61,31.05,11.27c0.15,0.82-0.08,2.32-1.02,2.84c-0.21,0.12-5.47,2.66-5.47,2.66S64.6,16.61,65.37,16.72z"/>
<path style="fill:#E0E0E0;" d="M83.18,13.23c-11.17-3.16-29.44-3.98-39.12,0.31s-9.08,7.3-9.08,7.3s8.32,7.84,30.06,8.1
	c23.21,0.28,31.23-7.04,31.23-7.04S95.61,16.75,83.18,13.23z"/>
<path style="fill:#719921;" d="M40.62,46.75c-0.71,0.35-0.77,1.65-0.88,3.3c-0.11,1.65-0.44,49.16-0.22,49.6s7.81,8.58,25.08,8.25
	c16.61-0.32,24.74-6.21,24.74-6.21s0.22-29.99,0.33-37.03c0.11-7.04,0.91-15.29,0-16.12c-1.51-1.38-8.58,0.51-24.96,0.29
	S41.94,46.09,40.62,46.75z"/>
<path style="fill:#E5DDA0;" d="M44.14,51.92c-0.78,1.16-0.47,22.56-0.47,26.85c0,4.29-0.04,17.88-0.04,17.88s6.69,6.32,19.86,6.3
	c13.36-0.02,21.63-4.4,21.63-4.4s0.37-18.15,0.48-26.28S85.92,54.49,85.94,53c0.02-1.25-12.5,0.77-22.39,0.33
	C51.02,52.79,44.8,50.93,44.14,51.92z"/>
<path style="fill:#749B22;" d="M50.17,59.93c-0.67,0.33-1.07,0.68-1.2,1.84c-0.17,1.5,0.49,2.44,1.24,2.86
	c0.75,0.42,6.8,0.73,14.39,0.77c7.95,0.05,14.71-0.19,14.71-0.19s0.83-0.92,0.83-2.58c0-1.34-0.38-1.94-0.83-2.25
	c-0.46-0.31-9.32,0.1-15.07,0.06C57.75,60.39,50.83,59.6,50.17,59.93z"/>
<path style="fill:#FF5119;" d="M50.26,82.35c0,8.01,5.17,14.26,14.67,14.17s13.53-8.74,13.26-13.76
	c-0.33-6.17-3.84-13.42-13.84-13.42S50.26,76.52,50.26,82.35z"/>
</svg>
