<?xml version="1.0" encoding="utf-8"?>
<!-- Generator: Adobe Illustrator 25.2.3, SVG Export Plug-In . SVG Version: 6.00 Build 0)  -->
<svg version="1.1" id="Layer_2" xmlns="http://www.w3.org/2000/svg" xmlns:xlink="http://www.w3.org/1999/xlink" x="0px" y="0px"
	 viewBox="0 0 128 128" style="enable-background:new 0 0 128 128;" xml:space="preserve">
<path style="fill:#E0E0E0;" d="M72.47,80.6c0,0,48.46-53.8,47.83-54.85c-0.63-1.05-19.78-9.21-20.69-9.37
	c-0.91-0.17-5.85-0.58-6.26-0.49c-0.41,0.08-6.92-2.86-6.92-2.86s0.1-1.86-0.65-2.28S72.22,4.37,68.74,4.28
	C64.22,4.18,10.44,21.82,8.84,22.4c-2.75,0.99-0.65,8.23,0.31,14.5s9.41,63.7,11.34,66.36s37.88,21.23,41.02,21.23
	c0.53,0,2.23,0.26,2.94-1.82C67.94,112.35,71.95,80.22,72.47,80.6z"/>
<path style="fill:#FFFFFF;" d="M12.48,25.46c6.85-1.75,39.28-12.32,43.9-13.93c4.95-1.72,8.79-3.42,14.02-2.61
	c1.65,0.25,5.93,1.98,12.02,4.56c0.93,0.4-1.48,1.87-0.5,2.29c1.15,0.49,5.68-0.06,6.86,0.45c12.06,5.28,25.21,11.38,25.21,11.38
	L63.37,50.43l-2.01-0.54L19.06,30.42L12.48,25.46z"/>
<path style="fill:#B0B0B0;" d="M64.2,48.58c0,0-13.8-7.69-14.63-8.38c-1.48-1.25-3.06-8.19-2.89-8.59
	c0.53-1.24,34.23-13.95,34.23-13.95s17.19,0.22,18.27,0.19c2.61-0.08,2.74-1.6-1.53-1.92c-4.27-0.32-13.18-1.02-13.67-1.35
	c-0.53-0.35,1.65-1.96,2.18-3.06c0.38-0.8-0.93-1.58-3.19,0.15c-1.58,1.21-4.64,3.2-4.64,3.2s-6.17,1.83-14.86,5.34
	c-9.73,3.92-19.92,8.33-20.99,8.52c-2.04,0.36-13.02,1.82-15.18,1.7s-16.85-6.79-17.74-7.08c-1.61-0.54-2.57,0.9-1.19,1.98
	c1.38,1.08,15.4,8.73,18.1,9.03c2.7,0.3,15.8-1.05,15.8-1.05s1.83,8.79,3.09,9.69s16.25,7.75,16.56,8.5
	c0.67,1.6-0.19,72.04,0.48,72.63s2.81-0.34,7.76-2.92s29.95-15.8,31.81-17.04c1.86-1.24,2.68-2.89,3.3-5.78s15.18-67.02,15.49-68.67
	c0.31-1.65,0.62-4.75-2.07-4.23c-2.68,0.52-34.49,14.25-34.49,14.25L64.2,48.58z"/>
<path style="fill:#858585;" d="M82.66,56.87c0.12-1.61,17.51-20.91,18.75-21.69c1.24-0.78,15.75-8.26,16.59-8.78
	c0.85-0.52,1.3-1.76-0.91-1.17c-2.21,0.59-18.23,7.98-18.94,8.56s-5.78,5.75-5.78,5.75s-4.17-1.39-4.66-1.35
	c-1.23,0.1-22.34,9.35-23.19,9.68c-0.85,0.33-1.63,2.02,0.78,1.5c2.41-0.52,21.21-7.74,21.93-7.87c0.72-0.13,3.46,1.07,3.46,1.07
	S79.29,55.14,79.35,56.91c0.1,2.7,9.15,20.24,8.89,21.47c-0.26,1.24-23.36,39.81-25.76,43.9c-1.11,1.89,0.68,3.03,2.04,1.34
	s24.96-39.34,26.23-39.51c1.27-0.16,10.87,18.4,11.39,19.02c0.52,0.61,2.42-0.47,1.65-1.88c-1.05-1.92-8.01-15.31-11.44-22.44
	C85.68,64.96,82.49,59.15,82.66,56.87z"/>
<path style="fill:#FE2A28;" d="M24.7,89.71c0.26,0.79,28.02,13.19,28.74,12.93c0.72-0.26,0.1-3.01-0.6-4.13
	c-0.86-1.37-2.61-2.43-2.61-2.43l-0.06-4.96c0,0,2.65,2.08,4.09,2.21c1.44,0.13,1.97-1.61,1.04-2.25c-0.83-0.58-1.53-0.25-1.53-0.25
	s-1.59-1.13-2.96-2.36s-2.46-2.87-2.46-2.87l-0.11-5.07c0,0,2.25,1.84,3.56,1.97c1.31,0.13,2.23-1.57,0.98-2.36
	c-0.72-0.46-1.47,0.03-1.47,0.03s-1.41-0.81-2.45-1.99c-1.24-1.4-1.96-3.11-1.96-3.11l-0.09-3.58c0,0,1.79,1.37,3.1,1.57
	c1.31,0.2,1.64-1.14,0.91-1.8c-0.72-0.66-1.32-0.11-1.32-0.11s-3.84-3.87-6.82-7.87C40.53,60.4,39,58.49,39,58.49l-0.07-4.64
	c0,0,0.06-1.21-1.05-1.47c-1.12-0.26-0.98,0.98-0.98,0.98v4.79c0,0-4.13,3.67-6.36,4s-2.56,0-2.56,0s-0.22-1.37-1.45-0.92
	c-0.98,0.36-0.68,1.91,0.2,2.5c1.89,1.26,4.26,0.66,4.26,0.66v4.13c0,0-1.97,1.84-3.08,1.71c-1.12-0.13-1.12-0.13-1.12-0.13
	s-0.1-1.35-1.38-0.85c-1.22,0.48-0.23,2.73,1.77,2.95c1.71,0.19,2.36,0.07,2.36,0.07v5.45c0,0-1.44,0.79-2.43,0.85
	c-0.98,0.07-1.84-0.33-1.84-0.33s-0.57-1.58-1.57-0.66c-0.94,0.86,0.13,2.36,1.57,2.95c1.44,0.59,2.95,0.26,2.95,0.26v6.5
	c0,0-1.77-0.07-2.69,0.72C24.63,88.79,24.7,89.71,24.7,89.71z"/>
<path style="fill:#E0E0E0;" d="M34.94,88.92l8.2,3.54c0,0-0.41-5.63-4.22-6.55C35.12,85,34.94,88.92,34.94,88.92z"/>
<path style="fill:#E0E0E0;" d="M35.26,78.59l6.34,2.46c0,0-0.23-4.45-3.19-5.16C35.46,75.18,35.26,78.59,35.26,78.59z"/>
<path style="fill:#E0E0E0;" d="M35.77,69.29l5.25,2.1c0,0,0.26-4.07-2.82-4.72C35.6,66.11,35.77,69.29,35.77,69.29z"/>
</svg>
