<?xml version="1.0" encoding="utf-8"?>
<!-- Generator: Adobe Illustrator 25.2.3, SVG Export Plug-In . SVG Version: 6.00 Build 0)  -->
<svg version="1.1" id="Layer_3" xmlns="http://www.w3.org/2000/svg" xmlns:xlink="http://www.w3.org/1999/xlink" x="0px" y="0px"
	 viewBox="0 0 128 128" style="enable-background:new 0 0 128 128;" xml:space="preserve">
<path style="fill:#2F7C31;" d="M21.74,24.77L8.57,41.04c0,0-3.95,4.95-2.93,9.84c1.15,5.46,4.05,5.79,4.05,5.79
	s-0.19,4.24,2.31,7.85s3.69,5.32,12.77,8.07s25.46,5.84,25.46,5.84l4.22,16.38c0,0,1.13,4.05,6.16,6.16s8.96,1.56,8.96,1.56
	s2.08,5.75,8.99,7.35c5.98,1.39,10.75-1.62,10.75-1.62s5.03,3.08,11.51,1.62c7.52-1.69,9.24-6.32,9.24-6.32s6.16-0.65,10.21-6.49
	s1.13-12.48,1.13-12.48s3.59-5.32,2.59-11.35c-0.9-5.46-3.07-7.32-3.07-7.32l-12.98-9.06c0,0,5.51-2.27,7.46-12
	s-2.92-14.59-2.92-14.59s1.91-5.49-1.3-10.38c-3.08-4.7-7.46-2.43-9.57-4.54c-2.6-2.6-17.35-4.22-17.35-4.22L67.25,25.26
	L21.74,24.77z"/>
<path style="fill:#709921;" d="M28,8.45c0,0,5.09-5.58,11.92-5.09s8.07,4.61,8.07,4.61s4.19-0.69,6.82,0.48
	c5.38,2.4,4.81,5.19,6.44,5s1.63-7.11,9.23-9.52s11.73,1.25,13.36,1.15s3.65-2.03,9.42-0.19c5.19,1.66,6.3,5.1,6.54,6.15
	c0.28,1.27,0.28,2.69,1.82,4.32s-0.11,7.54-2.32,9.94s-6.52,2.65-6.52,2.65s1.01,8.3-5.89,12.86c-4.85,3.2-10.07,1.94-10.07,1.94
	S71.25,47.57,65,45.55c-6.25-2.02-6.92-4.61-3.46-7.5c3.46-2.88,5-8.46,0.87-9.52c-4.13-1.06-8.36,0.96-9.8,5.48
	c-1.44,4.52-1.54,8.46-6.25,11.82c-4.71,3.36-8.17,2.31-12.88,3.56c-4.71,1.25-7.88,5.29-11.82,5.38c-3.94,0.1-7.02-2.79-9.04-2.5
	c-2.02,0.29-6.15,1.25-6.15,1.25s-1.83-3.46-0.67-7.69s2.78-4.8,2.78-4.8s-9.37-9.06-0.76-22.88C15.6,5.66,28,8.45,28,8.45z"/>
<path style="fill:#709921;" d="M79.71,73.23c0,0,3.65-1.54,6.06-5.67c2.4-4.13,3.65-7.21,7.5-9.23c3.84-2.02,8.17-1.83,13.75-1.54
	c5.58,0.29,6.99,1.99,8.36,3.36c2.69,2.69,5.58,5.77,5.58,5.77s-4.71,0.38-7.21,4.23s-4.04,9.13-4.04,9.13s-3.36,1.25-6.92,3.17
	c-3.56,1.92-11.44,7.02-16.63,5.67c-5.19-1.35-7.88-7.31-7.88-7.98C78.27,79.48,79.71,73.23,79.71,73.23z"/>
<path style="fill:#9FB525;" d="M35.34,81.83c-0.24,0.72-25.28,28.89-25.28,28.89s3.01,4.57,5.66,6.74s6.95,5.41,9.68,6.15
	c2.96,0.8,5.24,1.68,7.89-1.81c2.65-3.49,4.69-8.06,11.92-15.77s12.4-12.4,18.17-15.17s14.08-4.69,16.25-4.93
	c2.17-0.24,4.93-0.48,4.93-0.48s1.63-3.29,1.08-5.9c-0.61-2.91-4.69-4.21-4.69-4.21l-20.7,3.01l2.45-0.82c0,0-0.97-1.43,0.32-3.28
	c1.12-1.61,6.26-7.83,7.95-10.12c1.69-2.29,5.12-6.73,5.05-7.45c-0.12-1.32-3.25-3.01-4.21-3.61c-0.96-0.6-3.01-1.44-3.01-1.44
	L46.65,74.6l-1.2-1.08c0,0-1.44-0.07-2.29-2.29c-0.6-1.56-0.84-6.26-1.32-10.35c-0.3-2.56-0.48-5.54-0.48-5.54s-3.49-1.56-5.78-1.32
	s-4.93,2.77-4.93,2.77L35.34,81.83z"/>
<path style="fill:#B7D118;" d="M26.91,57.51c-0.36,0.96,0.24,5.3,0.24,11.07s-0.33,11.12-3.13,14.56
	c-3.61,4.45-9.75,10.71-14.44,14.92c-2.03,1.82-3.37,2.53-3.49,3.01s0.87,4.86,1.81,6.74c1.7,3.4,4.82,6.49,4.82,6.49
	s12.51-14.07,17.81-19.49c5.3-5.42,8.18-9.03,9.39-7.82c1.2,1.2-2.79,5.89-5.66,9.15c-4.33,4.93-16.47,22.92-16.47,22.92
	s0.67,0.7,2.03,1.63c1.2,0.83,2.14,1.26,2.14,1.26s6.4-10.41,15.31-19.8s13.96-13.72,20.1-15.77s28.28-6.86,28.28-6.86
	s-0.96-3.37-1.56-4.81s-1.93-3.13-1.93-3.13s-11.07,2.89-13,3.49c-1.93,0.6-12.88,1.93-13.36,0.72c-0.48-1.2,7.34-10.95,9.63-13.96
	c2.29-3.01,6.43-8.79,6.43-8.79s-2.45-1.68-5.46-2.4c-3.01-0.72-4.09-0.12-4.09-0.12s-7.34,9.87-9.51,12.76
	c-2.17,2.89-6.38,9.15-10.23,10.23c-3.85,1.08-4.81,0.12-5.3-2.77c-0.48-2.89-1.69-16.73-1.69-16.73s-3.85,0.24-5.3,0.96
	S27.27,56.55,26.91,57.51z"/>
<path style="fill:#2F7C31;" d="M102.96,75.13c0,0,2.24-4.05,4.17-2.36c1.94,1.69-1.75,7.02-2.54,7.2c-0.79,0.18-6.95-1.87-6.05-4.17
	C99.46,73.5,102.96,75.13,102.96,75.13z"/>
<path style="fill:#2F7C31;" d="M44.78,34.49c2.3-0.08,7.13-4.8,5.09-7.25c-1.65-1.98-5.09,1.86-5.09,1.86s-3.64-3.75-5.08-1.94
	C37.65,29.78,43.09,34.55,44.78,34.49z"/>
<path style="fill:#2F7C31;" d="M31.96,39.21c0,0,2-4.11,4.29-2.36c2.3,1.75-1.69,7.68-2.9,8.04c-1.21,0.36-7.71-3.36-5.99-5.99
	C28.76,36.79,31.96,39.21,31.96,39.21z"/>
<path style="fill:#2F7C31;" d="M14.36,35.46c0.72,0.12,5.87-2.78,4.41-5.32s-4.41,0.67-4.41,0.67s-2.79-2.47-3.99-0.97
	C8.44,32.26,13.28,35.28,14.36,35.46z"/>
<path style="fill:#2F7C31;" d="M15.27,43.81c0,0,1.94-3.99,3.99-2.48c2.06,1.51-1.51,7.56-2.06,7.8c-0.54,0.24-7.81-1.81-6.23-4.72
	C12.07,42.42,15.27,43.81,15.27,43.81z"/>
<path style="fill:#2F7C31;" d="M79.21,39.31c1.59-0.69,4.25-6.07,1.76-7.16c-2.01-0.88-3.06,2.4-3.06,2.4s-2.23-1.96-3.76-0.35
	C71.8,36.67,78.25,39.73,79.21,39.31z"/>
<path style="fill:#2F7C31;" d="M90.51,18.38c0,0,0.13-2.34,1.93-2.22c1.98,0.14,1.72,5.02,0.21,5.94c-1.51,0.92-6.49-1.72-5.36-3.56
	C88.01,17.37,90.64,18.17,90.51,18.38z"/>
</svg>
