<?xml version="1.0" encoding="UTF-8" standalone="no"?><svg xmlns:dc="http://purl.org/dc/elements/1.1/" xmlns:cc="http://creativecommons.org/ns#" xmlns:rdf="http://www.w3.org/1999/02/22-rdf-syntax-ns#" xmlns:svg="http://www.w3.org/2000/svg" xmlns="http://www.w3.org/2000/svg" viewBox="0 0 45 45" style="enable-background:new 0 0 45 45;" xml:space="preserve" version="1.1" id="svg2"><metadata id="metadata8"><rdf:RDF><cc:Work rdf:about=""><dc:format>image/svg+xml</dc:format><dc:type rdf:resource="http://purl.org/dc/dcmitype/StillImage"/></cc:Work></rdf:RDF></metadata><defs id="defs6"><clipPath id="clipPath16" clipPathUnits="userSpaceOnUse"><path id="path18" d="M 0,36 36,36 36,0 0,0 0,36 Z"/></clipPath></defs><g transform="matrix(1.25,0,0,-1.25,0,45)" id="g10"><g id="g12"><g clip-path="url(#clipPath16)" id="g14"><g transform="translate(26.8637,28)" id="g20"><path id="path22" style="fill:#8899a6;fill-opacity:1;fill-rule:nonzero;stroke:none" d="m 0,0 -7.513,0 -1.351,0 0,-28 c 6,0 10,1 11.393,7.015 0.774,3.342 1.663,12.335 1.663,17.841 C 4.192,-1.279 2.759,0 0,0"/></g><g transform="translate(8.8918,28)" id="g24"><path id="path26" style="fill:#8899a6;fill-opacity:1;fill-rule:nonzero;stroke:none" d="m 0,0 7.513,0 1.595,0 0,-28 c -6,0 -10,1 -11.515,7.015 -0.838,3.327 -1.724,12.335 -1.724,17.841 C -4.131,-1.279 -2.759,0 0,0"/></g><g transform="translate(31.0525,25.5)" id="g28"><path id="path30" style="fill:#ccd6dd;fill-opacity:1;fill-rule:nonzero;stroke:none" d="m 0,0 c 0,-2.071 -3.131,-3.75 -13.057,-3.75 -9.927,0 -13.057,1.679 -13.057,3.75 0,2.072 3.13,3.75 13.057,3.75 C -3.131,3.75 0,2.072 0,0"/></g><g transform="translate(18.0246,23.0026)" id="g32"><path id="path34" style="fill:#ccd6dd;fill-opacity:1;fill-rule:nonzero;stroke:none" d="m 0,0 -11.509,0.997 c 0,-7 1.104,-14.382 1.681,-16.572 0.662,-2.509 2.803,-2.408 9.803,-2.426 l 0,-0.002 0.025,0 -0.025,0 0,0.002 c 7,0.018 9.166,-0.083 9.828,2.426 0.577,2.19 1.692,9.572 1.692,16.572 L 0,0 Z"/></g><g transform="translate(18,15)" id="g36"><path id="path38" style="fill:#55acee;fill-opacity:1;fill-rule:nonzero;stroke:none" d="m 0,0 0,-13 c 7,0 9,1 9.857,5.428 0.24,1.243 0.807,4.075 1.173,7.572 L 0,0 Z"/></g><g transform="translate(7.0189,15)" id="g40"><path id="path42" style="fill:#55acee;fill-opacity:1;fill-rule:nonzero;stroke:none" d="M 0,0 C 0.366,-3.497 0.915,-6.327 1.149,-7.572 1.981,-12 3.981,-13 10.981,-13 l 0,13 L 0,0 Z"/></g><g transform="translate(18,5.8399)" id="g44"><path id="path46" style="fill:#3b88c3;fill-opacity:1;fill-rule:nonzero;stroke:none" d="m 0,0 c -4.556,0 -8.249,-0.895 -8.249,-2 0,-0.009 0.005,-0.018 0.006,-0.028 1.397,-1.41 3.821,-1.812 8.243,-1.812 4.413,0 6.836,0.4 8.241,1.803 0.001,0.012 0.008,0.025 0.008,0.037 0,1.105 -3.693,2 -8.249,2"/></g><g transform="translate(29.0109,15)" id="g48"><path id="path50" style="fill:#88c9f9;fill-opacity:1;fill-rule:nonzero;stroke:none" d="m 0,0 c 0,-1.105 -4.932,-2 -11.016,-2 -6.083,0 -11.015,0.895 -11.015,2 0,1.105 4.932,2 11.015,2 C -4.932,2 0,1.105 0,0"/></g><g transform="translate(33.9579,35.0638)" id="g52"><path id="path54" style="fill:#e1e8ed;fill-opacity:1;fill-rule:nonzero;stroke:none" d="m 0,0 c 0,0 -6.62,-1.646 -6.824,-1.697 -0.751,-0.187 -1.565,-0.577 -2.44,-1.239 -1.643,-1.243 -1.978,-2.93 -2.246,-3.861 l -4.107,-14.267 3.121,0 3.869,13.437 c 0.264,0.916 0.526,1.702 1.129,2.249 0.534,0.484 1.417,0.769 2.244,0.983 l 5.977,1.483 c 0.8,0.199 1.293,1.017 1.094,1.817 C 1.618,-0.294 0.801,0.199 0,0"/></g><g transform="translate(18.3404,14)" id="g56"><path id="path58" style="fill:#88c9f9;fill-opacity:1;fill-rule:nonzero;stroke:none" d="m 0,0 -2.671,-9.277 c -0.228,-0.793 0.234,-1.628 1.026,-1.857 0.793,-0.228 1.629,0.234 1.857,1.027 L 3.122,0 0,0 Z"/></g><g transform="translate(18.6412,13.3235)" id="g60"><path id="path62" style="fill:#744eaa;fill-opacity:1;fill-rule:nonzero;stroke:none" d="M 0,0 -0.589,-0.323 -0.861,-1.27 1.204,-4.939 1.981,-2.242 0.72,-0.002 0,0 Z"/></g><g transform="translate(27.9056,33.5588)" id="g64"><path id="path66" style="fill:#dd2e44;fill-opacity:1;fill-rule:nonzero;stroke:none" d="m 0,0 -1.128,-3.647 c 0.531,0.347 1.242,0.58 1.926,0.757 l 0.434,0.108 1.035,3.346 C 1.403,0.349 0.575,0.143 0,0"/></g><g transform="translate(17.045,9.5007)" id="g68"><path id="path70" style="fill:#744eaa;fill-opacity:1;fill-rule:nonzero;stroke:none" d="m 0,0 -0.777,-2.697 1.963,-3.485 c 0.143,0.161 0.258,0.353 0.321,0.574 L 2.066,-3.669 0,0 Z"/></g><g transform="translate(20.0483,19.9319)" id="g72"><path id="path74" style="fill:#dd2e44;fill-opacity:1;fill-rule:nonzero;stroke:none" d="M 0,0 -0.777,-2.698 0.604,-5.15 1.075,-5.255 1.702,-4.932 2.065,-3.67 0,0 Z"/></g><g transform="translate(34.4946,35.0926)" id="g76"><path id="path78" style="fill:#dd2e44;fill-opacity:1;fill-rule:nonzero;stroke:none" d="m 0,0 c -0.175,0.021 -0.356,0.016 -0.537,-0.029 0,0 -0.724,-0.18 -1.695,-0.421 L -3.268,-3.798 -1.001,-3.235 0,0 Z"/></g><g transform="translate(20.7912,22.5124)" id="g80"><path id="path82" style="fill:#dd2e44;fill-opacity:1;fill-rule:nonzero;stroke:none" d="M 0,0 2.066,-3.669 2.842,-0.972 0.776,2.697 0,0 Z"/></g><g transform="translate(24.6526,32.0914)" id="g84"><path id="path86" style="fill:#dd2e44;fill-opacity:1;fill-rule:nonzero;stroke:none" d="m 0,0 c -0.798,-0.617 -1.285,-1.338 -1.602,-2.022 l 1.32,-5.968 0.96,3.335 c 0.066,0.23 0.133,0.452 0.204,0.664 L 0,0 Z"/></g><g transform="translate(18.6625,15.1187)" id="g88"><path id="path90" style="fill:#55acee;fill-opacity:1;fill-rule:nonzero;stroke:none" d="m 0,0 -0.61,-2.118 c 1.094,10e-4 2.15,0.031 3.147,0.086 L 3.122,0 C 2.185,-0.483 0.228,-0.182 0,0"/></g><g transform="translate(29.6152,24.691)" id="g92"><path id="path94" style="fill:#ffffff;fill-opacity:1;fill-rule:nonzero;stroke:none" d="M 0,0 C -0.242,0.65 -0.954,0.975 -1.584,0.724 -5.19,-0.692 -8.628,-1.184 -11.62,-1.213 l 0,-2.492 c 3.333,0.034 7.089,0.577 10.913,2.08 C -0.074,-1.377 0.243,-0.649 0,0"/></g><g transform="translate(6.3754,24.691)" id="g96"><path id="path98" style="fill:#ffffff;fill-opacity:1;fill-rule:nonzero;stroke:none" d="M 0,0 C 0.242,0.65 0.954,0.975 1.584,0.724 5.19,-0.692 8.628,-1.184 11.62,-1.213 l 0,-2.492 C 8.287,-3.671 4.531,-3.128 0.707,-1.625 0.074,-1.377 -0.243,-0.649 0,0"/></g></g></g></g></svg>
