<?xml version="1.0" encoding="utf-8"?>
<!-- Generator: Adobe Illustrator 25.2.3, SVG Export Plug-In . SVG Version: 6.00 Build 0)  -->
<svg version="1.1" id="Layer_3" xmlns="http://www.w3.org/2000/svg" xmlns:xlink="http://www.w3.org/1999/xlink" x="0px" y="0px"
	 viewBox="0 0 128 128" style="enable-background:new 0 0 128 128;" xml:space="preserve">
<path style="fill:#D61029;" d="M86.69,14.12L3.91,103.43c0,0-0.67,0.51-0.67,1.37c0,1.04,3.1,3.83,4,3.87
	c0.9,0.04,1.63-0.78,1.63-0.78l77.02-78.47L86.69,14.12z"/>
<path style="fill:#D61029;" d="M102.1,42.41l-85.07,74.88c0,0-0.84,0.75-0.63,1.76c0.17,0.87,2.49,3.42,3.27,3.48
	c1.03,0.08,1.67-0.52,1.67-0.52l85.89-71.02L102.1,42.41z"/>
<path style="fill:#474C4F;" d="M117.49,29.36c-1.19,0.24-22.25,19.09-22.25,19.09l6.23,7.31c0,0,22.09-17.8,22.5-18.81
	c0.41-1.02-0.47-2.07-2.77-4.51S118.16,29.22,117.49,29.36z"/>
<path style="fill:#474C4F;" d="M94.55,6.47c-1.15,0-18.34,18.95-18.34,18.95l6.87,6.87c0,0,18.18-18.19,18.31-19.2
	c0.14-1.01-0.88-2.01-3.18-4.16C96.33,7.18,95.5,6.47,94.55,6.47z"/>
</svg>
