<svg xmlns="http://www.w3.org/2000/svg" viewBox="0 0 36 36"><path fill="#FFAC33" d="M26.785 9.606c-.071 3.25 1.712 8.071 4.491 14.867-1.01.423-6.747 2.074-8.961-.596s4.47-14.271 4.47-14.271z"/><path fill="#5C913B" d="M27.08 9.151c-.071 3.25 1.042 7.553 3.821 14.35-1.01.423-5.943 1.906-8.157-.764C20.53 20.066 27.08 9.151 27.08 9.151z"/><path fill="#FFAC33" d="M26.261 13.896c-.071 3.25 1.379 8.063 4.159 14.859-1.01.423-6.747 2.074-8.961-.596-2.215-2.67 4.802-14.263 4.802-14.263z"/><path fill="#77B255" d="M26.268 13.366c.34 2.964 1.042 7.553 3.821 14.35-1.01.423-5.943 1.906-8.157-.765-1.516-1.829-.556-11.372 1.23-14.78.821-1.567 3.106 1.195 3.106 1.195z"/><path fill="#9266CC" d="M26.916 15l4.389-1.379c.892-.28 1.355-1.257 1.005-2.124C30.977 8.198 27.541 1 22.916 1H13C8.374 1 4.936 8.203 3.605 11.501c-.349.865.113 1.84 1.003 2.119L9 15l1.726-.844C10.469 19.918 9.97 29.37 9 33.736c8 3 10 3 18 0-.968-4.355-1.467-13.785-1.724-19.538l1.64.802z"/><path fill="#553788" d="M25.271 14.182L24.916 7l2 8z"/><path fill="#FFAC33" d="M24.677 10.865C23.521 21.85 9.899 27.186 9.899 27.186s.531-7.102.754-11.469c10-5 12.39-14.685 12.39-14.685s.861-.149 1.381.252c.371 1.383.737 4.971.253 9.581z"/><path fill="#77B255" d="M24.201 6.587c0 11.851-14.166 18.754-14.166 18.754l.518-7.812s2.939-.973 7.322-4.823C22.65 8.512 23.34 1.063 23.34 1.063s.357-.104.683.074c.254.799.178 3.131.178 5.45z"/><path fill="#553788" d="M10.716 14.211L11 7l-2 8zM18 5.088c2.257 0 4.087-1.83 4.087-4.088h-8.175c.001 2.257 1.831 4.088 4.088 4.088z"/><path fill="#FFAC33" d="M3.843 10.926c-.085.2-.166.396-.238.575-.349.865.112 1.84 1.003 2.12L9 15l.046-.022c.121-.561.245-1.071.319-1.403-4.053-.952-5.396-1.267-5.522-2.649zm22.749 2.649c.075.335.201.855.324 1.425l4.362-1.37c.906-.285 1.377-1.277 1.021-2.158L32.103 11c-.168 1.318-1.534 1.641-5.511 2.575zM9.253 32.404c-.081.478-.164.932-.253 1.332 8 3 10 3 18 0-.094-.422-.182-.904-.267-1.414-7.803 3.829-14.327 1.451-17.48.082z"/></svg>