<?xml version="1.0" encoding="utf-8"?>
<!-- Generator: Adobe Illustrator 25.2.3, SVG Export Plug-In . SVG Version: 6.00 Build 0)  -->
<svg version="1.1" id="Layer_3" xmlns="http://www.w3.org/2000/svg" xmlns:xlink="http://www.w3.org/1999/xlink" x="0px" y="0px"
	 viewBox="0 0 128 128" style="enable-background:new 0 0 128 128;" xml:space="preserve">
<g>
	<path style="opacity:0.76;fill:#94D1E0;" d="M97.12,62.1H64.5H31.88c-9.89,0-17.9,8.2-17.9,18.32v4.67c0,7.18,6.58,23,22.65,23
		c16.07,0,18.72-9.46,21.37-13.88c2.65-4.43,2.48-5.03,6.5-5.03s3.84,0.6,6.5,5.03c2.65,4.43,5.31,13.88,21.37,13.88
		c16.07,0,22.65-15.82,22.65-23v-4.67C115.02,70.31,107,62.1,97.12,62.1z"/>
	<path style="fill:none;stroke:#37474F;stroke-width:8.734;stroke-miterlimit:10;" d="M15.46,35.14c2.83-3.47,6.95-4.6,12.79-5.75
		c12.08-2.37,25.04,2.1,37.32,1.86c6.92-0.13,13.47-3.12,20.08-5.33s16.41-1.47,27.45,6.36"/>
	<path style="fill:#2F7889;" d="M99.36,21.2c0,0,9.5,8.8,13.59,20.28c2.58,7.24,2.43,19.14,2.43,19.14s4.35,6.01,4.35,5.81
		c0-0.2,5.48-17.56,0-31.7C115.46,23.7,99.36,21.2,99.36,21.2z"/>
	<path style="fill:#2F7889;" d="M35.61,24.38c0,0-13.6,5.94-18.49,17.1c-4.69,10.69-6.03,21.88-6.03,21.88s-3.66,2.27-3.66,2.07
		S1.95,49.88,9.12,36.51C16.68,22.4,35.61,24.38,35.61,24.38z"/>
	<path style="fill:#BDBDBD;" d="M116.91,58.14c-3.02-8.29-12.17-13.82-20.9-12.53c-0.19,0.02-19.44,2.32-31.5,2.32
		c-12.07,0-31.31-2.3-31.49-2.32c-8.8-1.28-17.81,4.17-20.94,12.52H7.99c-1.13,0-2.04,0.91-2.04,2.04v9.61
		c0,1.13,0.91,2.04,2.04,2.04h3.12c0.55,4.51,2.87,10.52,2.87,10.52c-0.63,8.92,5.25,25.27,22.65,25.74
		c16.07,0,18.72-9.46,21.37-13.88c2.65-4.43,2.48-5.03,6.5-5.03c4.02,0,3.84,0.6,6.5,5.03c2.65,4.43,5.31,13.88,21.37,13.88
		c14.32,0,21.1-12.57,22.41-20.38c1.82-4.7,3.33-10.29,3.78-15.88h1.18c1.13,0,2.04-0.91,2.04-2.04v-9.61
		c0-1.13-0.91-2.04-2.04-2.04H116.91z M110.54,87.48c-1.19,6.2-6.69,16.29-18.17,16.29c-11.52,0-14.23-5.17-16.62-9.73
		c-0.6-1.19-1.31-2.37-1.94-3.44c-2.38-4.08-3.89-5.74-9.3-5.74c-5.41,0-6.92,1.66-9.3,5.74c-0.63,1.08-1.35,2.26-1.94,3.44
		c-2.39,4.56-5.1,9.73-16.62,9.73c-11.48,0-16.98-10.09-18.17-16.29c-0.34-1.58-0.17-5.41-0.21-7.05c0-7.72,6.13-14,13.67-14H64.5
		h32.58c7.54,0,13.67,6.28,13.67,14C110.75,80.43,111.17,84.75,110.54,87.48z"/>
	<g>
		<path style="fill:#C9E3E6;" d="M97.12,66.57c7.41,0,13.43,6.22,13.43,13.86v4.67c0,5.45-5.23,18.53-18.18,18.53
			c-11.35,0-14.03-5.11-16.39-9.61c-0.39-0.74-0.75-1.43-1.15-2.1c-0.3-0.5-0.56-0.95-0.8-1.35c-2.43-4.16-3.97-5.85-9.53-5.85
			c-5.56,0-7.11,1.69-9.53,5.85c-0.24,0.4-0.5,0.85-0.8,1.35c-0.4,0.66-0.76,1.36-1.15,2.1c-2.36,4.51-5.04,9.61-16.39,9.61
			c-12.95,0-18.18-13.07-18.18-18.53v-4.67c0-7.64,6.02-13.86,13.43-13.86H64.5H97.12 M97.12,62.1H64.5H31.88
			c-9.89,0-17.9,8.2-17.9,18.32v4.67c0,7.18,6.58,23,22.65,23c16.07,0,18.72-9.46,21.37-13.88c2.65-4.43,2.48-5.03,6.5-5.03
			c4.02,0,3.84,0.6,6.5,5.03c2.65,4.43,5.31,13.88,21.37,13.88c16.07,0,22.65-15.82,22.65-23v-4.67
			C115.02,70.31,107,62.1,97.12,62.1L97.12,62.1z"/>
	</g>
	<g>
		<path style="fill:#C9E3E6;" d="M97.12,66.57c7.41,0,13.43,6.22,13.43,13.86v4.67c0,5.45-5.23,18.53-18.18,18.53
			c-11.35,0-14.03-5.11-16.39-9.61c-0.39-0.74-0.75-1.43-1.15-2.1c-0.3-0.5-0.56-0.95-0.8-1.35c-2.43-4.16-3.97-5.85-9.53-5.85
			c-5.56,0-7.11,1.69-9.53,5.85c-0.24,0.4-0.5,0.85-0.8,1.35c-0.4,0.66-0.76,1.36-1.15,2.1c-2.36,4.51-5.04,9.61-16.39,9.61
			c-12.95,0-18.18-13.07-18.18-18.53v-4.67c0-7.64,6.02-13.86,13.43-13.86H64.5H97.12 M97.12,62.1H64.5H31.88
			c-9.89,0-17.9,8.2-17.9,18.32v4.67c0,7.18,6.58,23,22.65,23c16.07,0,18.72-9.46,21.37-13.88c2.65-4.43,2.48-5.03,6.5-5.03
			c4.02,0,3.84,0.6,6.5,5.03c2.65,4.43,5.31,13.88,21.37,13.88c16.07,0,22.65-15.82,22.65-23v-4.67
			C115.02,70.31,107,62.1,97.12,62.1L97.12,62.1z"/>
	</g>
	<path style="opacity:0.61;fill:#FFFFFF;" d="M22.82,61.4c2.64-1.49,6.01-2.07,8.28-2.07c1.29,0,1.15-1.33,0.78-2.45l-1.71-5.02
		c-0.71-1.8-1.74-1.43-2.31-1.36c-3.38,0.42-5.09,1.52-6.33,2.43c-0.43,0.32-1.32,0.49-1.32,2.49c0,2,0.13,3.99,0.31,5.34
		C20.69,62.1,21.37,62.22,22.82,61.4z"/>
	<path style="opacity:0.56;fill:none;stroke:#FFFFFF;stroke-width:2;stroke-linecap:round;stroke-miterlimit:10;" d="M20.91,50.93
		c0.17-0.21,0.38-0.36,0.6-0.51c1.66-1.13,3.59-1.87,5.58-2.14"/>
	<g>
		<g>
			<path style="fill:#757575;" d="M114.87,81.24c0.58-2.84,0.76-5.73,0.82-8.59c0.01-1.44-0.03-2.87-0.13-4.3
				c-0.04-0.7-0.12-1.44-0.18-2.13c-0.07-0.69-0.19-1.35-0.34-2.01c-1.22-5.25-4.9-9.85-9.66-11.92c-2.36-1.07-4.95-1.48-7.47-1.27
				c-1.19,0.09-2.74,0.34-4.17,0.51l-4.35,0.54c-5.8,0.72-11.63,1.23-17.5,1.57c-2.93,0.15-5.9,0.29-8.88,0.22
				c-2.97-0.06-5.91-0.21-8.84-0.41c-5.86-0.38-11.67-1.01-17.47-1.75l-4.35-0.57c-1.27-0.17-2.53-0.24-3.8-0.13
				c-2.53,0.21-5.03,1.08-7.21,2.53c-4.41,2.86-7.37,7.95-7.78,13.37l-0.01-0.11c0.1,2.4,0.29,4.83,0.58,7.23
				c0.15,1.2,0.33,2.4,0.53,3.58c0.23,1.18,0.47,2.38,1.02,3.43l-0.25,0.17c-0.67-1.07-1.01-2.27-1.34-3.44
				c-0.32-1.18-0.57-2.38-0.79-3.59c-0.44-2.41-0.77-4.83-1.03-7.26l0-0.01l0-0.01c-0.01-5.9,3.06-11.64,7.85-15.06
				c2.38-1.73,5.2-2.86,8.12-3.23c1.46-0.19,2.94-0.2,4.41-0.02l4.33,0.47c5.78,0.6,11.57,1.11,17.37,1.47
				c5.8,0.36,11.6,0.47,17.4,0.16c5.8-0.29,11.59-0.76,17.38-1.33l4.34-0.45c1.45-0.14,2.88-0.36,4.35-0.43
				c2.94-0.12,5.92,0.51,8.55,1.83c5.29,2.61,9.16,7.84,10.14,13.64c0.27,1.45,0.25,2.92,0.28,4.38c0.01,1.46-0.04,2.92-0.14,4.37
				c-0.21,2.91-0.64,5.81-1.46,8.62L114.87,81.24z"/>
		</g>
	</g>
	<path style="fill:#37474F;" d="M118.53,61.4c0,0,5.47,1.31,5.47,1.72s-2.23,12.69-2.23,12.69s-3.28-1.39-3.25-2.68
		S118.53,61.4,118.53,61.4z"/>
	<path style="fill:#37474F;" d="M11.14,61.48l-2.8-0.51L4,67.29l4.27,9.05l3.54-0.97c0,0-0.67-5.62-0.74-8.35
		C11.01,64.28,11.14,61.48,11.14,61.48z"/>
	<path style="fill:#455A64;" d="M115.02,82.79v-4.67c0-0.78-0.06-1.55-0.16-2.31c-1.07,7.76-6.83,22.33-21.49,22.33
		c-16.07,0-18.5-8.95-21.15-13.38c-2.65-4.43-3.7-5.33-7.72-5.33s-5.25,0.54-7.91,4.97c-2.65,4.43-5.13,13.94-21.2,13.94
		c-6.63,0-11.47-4.6-15.66-9.84c-1.76-2.2-3.17-4.71-4.18-7.36c-0.4-1.05-0.66-3.6-1.47-4.89c-0.06,0.61-0.09,1.24-0.09,1.87v4.67
		c0,7.18,6.58,23,22.65,23c16.07,0,17.54-9.49,20.19-13.92c2.65-4.43,3.66-5,7.68-5s4.83,0.57,7.49,5
		c2.65,4.43,4.31,13.92,20.38,13.92C108.43,105.78,115.02,89.96,115.02,82.79z"/>
	<linearGradient id="SVGID_1_" gradientUnits="userSpaceOnUse" x1="64.4965" y1="91.1479" x2="64.4965" y2="54.0362">
		<stop  offset="0" style="stop-color:#D6D6D6"/>
		<stop  offset="1" style="stop-color:#FFFFFF"/>
	</linearGradient>
	<path style="fill:url(#SVGID_1_);" d="M97.12,66.43c7.54,0,13.67,6.28,13.67,14v4.67c0,5.49-5.3,18.67-18.43,18.67
		c-11.52,0-14.23-5.17-16.62-9.73c-0.39-0.74-1.71-3.04-1.94-3.44c-2.38-4.08-3.89-5.74-9.3-5.74c-5.41,0-6.92,1.66-9.3,5.74
		c-0.24,0.4-1.56,2.71-1.94,3.44c-2.39,4.56-5.1,9.73-16.62,9.73c-13.12,0-18.43-13.18-18.43-18.67v-4.67c0-7.72,6.13-14,13.67-14
		H64.5H97.12 M98.11,61.4H64.5H30.88c-10.19,0-18.45,8.45-18.45,18.88v4.81c0,7.4,6.79,23.7,23.34,23.7
		c16.56,0,19.29-9.75,22.03-14.31c2.73-4.56,2.55-5.18,6.69-5.18c4.14,0,3.96,0.62,6.69,5.18c2.73,4.56,5.47,14.31,22.03,14.31
		c16.56,0,23.34-16.3,23.34-23.7v-4.81C116.56,69.86,108.3,61.4,98.11,61.4L98.11,61.4z"/>
</g>
</svg>
