<?xml version="1.0" encoding="utf-8"?>
<!-- Generator: Adobe Illustrator 24.1.2, SVG Export Plug-In . SVG Version: 6.00 Build 0)  -->
<svg version="1.1" id="Layer_1" xmlns="http://www.w3.org/2000/svg" xmlns:xlink="http://www.w3.org/1999/xlink" x="0px" y="0px"
	 viewBox="0 0 128 128" style="enable-background:new 0 0 128 128;" xml:space="preserve">
<g id="facial_expressions">
	
		<radialGradient id="face_1_" cx="63.6" cy="-62.06" r="56.9597" gradientTransform="matrix(1 0 0 1 0 124.96)" gradientUnits="userSpaceOnUse">
		<stop  offset="0.5" style="stop-color:#FDE030"/>
		<stop  offset="0.92" style="stop-color:#F7C02B"/>
		<stop  offset="1" style="stop-color:#F4A223"/>
	</radialGradient>
	<path id="face" style="fill:url(#face_1_);" d="M63.6,118.8c-27.9,0-58-17.5-58-55.9S35.7,7,63.6,7c15.5,0,29.8,5.1,40.4,14.4
		c11.5,10.2,17.6,24.6,17.6,41.5s-6.1,31.2-17.6,41.4C93.4,113.6,79,118.8,63.6,118.8z"/>
	<path id="mouth" style="fill:#422B0D;" d="M63,91.61c-9.07,0.07-17.73-3.74-23.8-10.48c-0.46-0.53-0.57-1.28-0.28-1.92
		c0.29-0.65,0.93-1.07,1.64-1.08l0,0c0.32,0,0.64,0.09,0.92,0.25c4.82,2.77,12.88,6.21,21.52,6.21h0.14c8.63,0,16.7-3.44,21.51-6.21
		c0.28-0.16,0.6-0.25,0.92-0.25l0,0c0.71,0.01,1.35,0.43,1.64,1.08c0.3,0.64,0.19,1.39-0.28,1.92
		c-6.07,6.74-14.75,10.56-23.82,10.48"/>
	<path style="fill:#422B0D;" d="M44,40.94L44,40.94c-4.19,0-8,3.54-8,9.42s3.81,9.41,8,9.41l0,0c4.2,0,8-3.54,8-9.41
		S48.24,40.94,44,40.94z"/>
	<g id="peepers">
		<path style="fill:#896024;" d="M43.65,44.87L43.65,44.87c-1.42-0.68-3.13-0.08-3.82,1.34c-0.53,1.11-0.29,2.44,0.6,3.3l0,0
			c1.42,0.68,3.13,0.08,3.82-1.34C44.78,47.06,44.54,45.73,43.65,44.87z"/>
	</g>
	<path style="fill:#422B0D;" d="M82.4,40.94L82.4,40.94c-4.19,0-8,3.54-8,9.42s3.81,9.41,8,9.41l0,0c4.19,0,8-3.54,8-9.41
		S86.59,40.94,82.4,40.94z"/>
	<g id="peepers-2">
		<path style="fill:#896024;" d="M82,44.87L82,44.87c-1.42-0.68-3.13-0.08-3.82,1.34c-0.53,1.11-0.29,2.44,0.6,3.3l0,0
			c1.42,0.68,3.13,0.08,3.82-1.34C83.13,47.06,82.89,45.73,82,44.87z"/>
	</g>
	
		<radialGradient id="SVGID_1_" cx="37.82" cy="-769.175" r="26.42" gradientTransform="matrix(1 0 0 -1.54 0 -1115.13)" gradientUnits="userSpaceOnUse">
		<stop  offset="0.46" style="stop-color:#29B6F6"/>
		<stop  offset="1" style="stop-color:#1E88E5"/>
	</radialGradient>
	<path style="fill:url(#SVGID_1_);" d="M37,104.5c-6.5,0-11.5-6.3-11.5-11.7c0-3.8,1.7-8.2,4.1-14.3c0.3-0.9,0.7-1.8,1.1-2.8
		c1.4-3.62,3-7.16,4.8-10.6c0.36-0.69,1.18-0.99,1.9-0.7c0.3,0.15,0.55,0.4,0.7,0.7c1.5,3.1,3.2,6.9,4.9,10.8
		c4.2,9.4,5.4,13.2,5.4,17C48.5,98.2,43.4,104.5,37,104.5z"/>
	<path style="fill:#81D4FA;" d="M44,97.29c-1.47,2.27-4.8,1.84-4.8-1.93c0-2.41,0.49-14.79,2.56-13.06
		C45.16,85.12,46.12,94.08,44,97.29z"/>
	<path style="fill:#EB8F00;" d="M111.49,29.67c5.33,8.6,8.11,18.84,8.11,30.23c0,16.9-6.1,31.2-17.6,41.4
		c-10.6,9.3-25,14.5-40.4,14.5c-18.06,0-37-7.35-48.18-22.94c10.76,17.66,31,25.94,50.18,25.94c15.4,0,29.8-5.2,40.4-14.5
		c11.5-10.2,17.6-24.5,17.6-41.4C121.6,50.16,118.13,38.84,111.49,29.67z"/>
</g>
</svg>
