<?xml version="1.0" encoding="utf-8"?>
<!-- Generator: Adobe Illustrator 25.2.3, SVG Export Plug-In . SVG Version: 6.00 Build 0)  -->
<svg version="1.1" id="Layer_1" xmlns="http://www.w3.org/2000/svg" xmlns:xlink="http://www.w3.org/1999/xlink" x="0px" y="0px"
	 viewBox="0 0 128 128" style="enable-background:new 0 0 128 128;" xml:space="preserve">
<g>
	
		<radialGradient id="face_1_" cx="64" cy="2880.8999" r="56.9597" gradientTransform="matrix(1 0 0 1 0 -2818)" gradientUnits="userSpaceOnUse">
		<stop  offset="0.5" style="stop-color:#FDE030"/>
		<stop  offset="0.92" style="stop-color:#F7C02B"/>
		<stop  offset="1" style="stop-color:#F4A223"/>
	</radialGradient>
	<path id="face_2_" style="fill:url(#face_1_);" d="M64,118.8c-27.9,0-58-17.5-58-55.9S36.1,7,64,7c15.5,0,29.8,5.1,40.4,14.4
		C115.9,31.6,122,46,122,62.9s-6.1,31.2-17.6,41.4C93.8,113.6,79.4,118.8,64,118.8z"/>
	
		<linearGradient id="face-2_1_" gradientUnits="userSpaceOnUse" x1="64" y1="2936.8" x2="64" y2="2825" gradientTransform="matrix(1 0 0 1 0 -2818)">
		<stop  offset="0.16" style="stop-color:#F4A223"/>
		<stop  offset="0.33" style="stop-color:#F7C02B"/>
		<stop  offset="0.81" style="stop-color:#FDE030;stop-opacity:0"/>
	</linearGradient>
	<path id="face-2_2_" style="fill:url(#face-2_1_);" d="M64,118.8c-27.9,0-58-17.5-58-55.9S36.1,7,64,7c15.5,0,29.8,5.1,40.4,14.4
		C115.9,31.6,122,46,122,62.9s-6.1,31.2-17.6,41.4C93.8,113.6,79.4,118.8,64,118.8z"/>
	<path style="fill:#EB8F00;" d="M111.89,29.67c5.33,8.6,8.11,18.84,8.11,30.23c0,16.9-6.1,31.2-17.6,41.4
		c-10.6,9.3-25,14.5-40.4,14.5c-18.06,0-37-7.35-48.18-22.94c10.76,17.66,31,25.94,50.18,25.94c15.4,0,29.8-5.2,40.4-14.5
		C115.9,94.1,122,79.8,122,62.9C122,50.16,118.53,38.84,111.89,29.67z"/>
	<ellipse id="mouth_2_" style="fill:#422B0D;" cx="63.3" cy="85.31" rx="28.24" ry="24.73"/>
	<path style="fill:none;stroke:#35220B;stroke-width:6;stroke-linecap:round;stroke-miterlimit:10;" d="M96.21,49.07
		c0,0-6.21-11.07-19.05-8.71"/>
	<path style="fill:none;stroke:#35220B;stroke-width:6;stroke-linecap:round;stroke-miterlimit:10;" d="M32.16,49.07
		c0,0,6.24-11.07,19.05-8.71"/>
	
		<radialGradient id="prop-2_1_" cx="50.1401" cy="49.2498" r="65.06" gradientTransform="matrix(1 0 0 -1 0 130)" gradientUnits="userSpaceOnUse">
		<stop  offset="0.27" style="stop-color:#FFF176"/>
		<stop  offset="1" style="stop-color:#FFC400"/>
	</radialGradient>
	<path id="prop-2_3_" style="fill:url(#prop-2_1_);" d="M81.88,85.66c-2.22-3.18-8,0.07-8,0.07s3-2.61,5.5-5c1.6-1.53,3-4.79,1.69-7
		s-5.12-2.07-6.99-0.92l-7.33,4.5c0,0,2.75-1.2,3.58-5.92c0.52-1.91-0.6-3.88-2.51-4.4c-0.36-0.1-0.73-0.14-1.1-0.12
		c-1.73,0.15-3.38,0.79-4.77,1.84c-5.3,3.76-19.45,13.35-22.62,13.1c-1.23-0.1-1.34-0.29,1.25-5.83c1.74-3.32,1.9-7.25,0.44-10.7
		c-0.85-2-4.77-2.55-6-0.62c-0.93,1.42-1.6,4.9-3.22,8.4c-2.72,5.75-8.99,13.47-9.5,14.23c-3.73,5.52-10.68,15.81-3.4,27.35
		c6.44,10.22,21.14,10.7,28.67,8c14.39-5.1,27.64-14.9,27.89-15.1c2.62-2.08,5-5.13,3.92-7.91c-1.33-3.44-5.74-1.4-5.74-1.4
		c2.55-1.55,4.84-3.5,6.77-5.78C82.24,90.09,83.37,87.81,81.88,85.66z"/>
	<path style="fill:#EB8F00;" d="M81.6,93.37c1.18-1.52,3.94-5.07,1.52-8.56c-0.87-1.23-2.08-2-3.49-2.24
		c2.37-1.97,4.91-6.57,2.2-10.35c-1.01-1.41-2.94-2.51-6.01-1.8c-2.21,0.51-4.19,2.14-4.19,2.14c0.07-0.27,1.81-5.18-4.2-6.4
		c-2.42-0.49-5.17,1.11-6.75,2.3c-9.13,6.48-20.98,12.64-20.58,11.79c3.85-4.67,4.63-11.58,2.26-15.68
		c-0.84-1.99-5.96-3.48-7.63-0.74c-1.37,2.25-2.28,7.63-4.84,11.91c-1.98,3.31-11.02,14.7-12.65,20.34c0,0,2.21-3.29,5.7-7.94
		c3.71-4.96,8.75-11.38,10.24-14.45c1.35-2.73,1.98-6,3.12-8.22c0.56-0.93,2.83-1.81,4.29,1.05c1.47,2.86,0.76,6.32-1.26,10.19
		c-2.08,4.44-3,4.61-2.06,5.59c3.18,3.27,21.53-9.82,25.6-12.38c1.16-0.88,2.54-1.41,3.93-1.54c2.74-0.39,2.6,3.45,2.6,3.45
		c-0.77,3.15-1.26,3.15-4.4,5.79c-2.23,1.87-10.12,7.61-15.24,10.19c0,0,0.09,1.17,2.46,0.5c2.38-0.67,11.71-6.54,16.74-10.57
		c0,0,6.52-5.57,9.3-4.79c2.82,0.8,2.57,2.76,1.68,4.62s-3.19,4.1-6.85,6.89c-6.58,5-16.77,11.82-16.77,11.82s0.21,1,2.19,0.43
		c4.03-1.17,16.61-10.49,16.61-10.49c0.98-0.76,4.26-1.81,5.54,0.34c0.69,1.01,0.53,2.66-1.89,5.52
		c-2.88,3.43-11.67,9.41-19.31,13.75c0,0,0.58,0.98,2.69,0.26c2.1-0.72,10.83-6.03,12.21-6.49c1.38-0.46,2.76-0.9,3.68,0.73
		c1.09,2.25-0.37,4.03-3.26,6.33c-0.12,0.09-13.88,10.85-28.19,15.69c-7.56,2.56-16.01,1.24-25.7-5.09
		c5.88,7.1,18.72,10.27,27.43,7.09c14.65-5.36,28.21-15.25,28.32-15.34c2.1-1.67,6.47-5.13,4.06-10.08
		c-0.63-1.11-1.47-1.8-2.39-2.19C79.47,95.69,80.57,94.58,81.6,93.37z"/>
	<path style="fill:#EB8F00;" d="M59.15,118.59c4.36,0.22,8.45,0.12,8.45,0.12c6.42-3.58,12.32-12.12,13-13.99
		C81.28,102.85,56.3,118.44,59.15,118.59z"/>
</g>
</svg>
