<?xml version="1.0" encoding="utf-8"?>
<!-- Generator: Adobe Illustrator 24.0.3, SVG Export Plug-In . SVG Version: 6.00 Build 0)  -->
<svg version="1.1" id="Layer_2_copy" xmlns="http://www.w3.org/2000/svg" xmlns:xlink="http://www.w3.org/1999/xlink" x="0px"
	 y="0px" viewBox="0 0 128 128" style="enable-background:new 0 0 128 128;" xml:space="preserve">
<g>
	
		<radialGradient id="face_1_" cx="64" cy="-1730.6666" r="58.8348" gradientTransform="matrix(1 0 0 -1 0 -1666.6666)" gradientUnits="userSpaceOnUse">
		<stop  offset="0.5" style="stop-color:#FDE030"/>
		<stop  offset="0.9188" style="stop-color:#F7C02B"/>
		<stop  offset="1" style="stop-color:#F4A223"/>
	</radialGradient>
	<path id="face_2_" style="fill:url(#face_1_);" d="M64,6.25c-31.1,0-59.9,20.7-59.9,57.7c0,37.3,28.8,57.8,59.9,57.8
		s59.9-20,59.9-57.8C123.8,26.45,95,6.25,64,6.25z"/>
	<path style="fill:none;stroke:#FFFFFF;stroke-width:0.9183;stroke-miterlimit:10;" d="M52.59,54.25"/>
	<path style="fill:none;stroke:#FFFFFF;stroke-width:0.9183;stroke-miterlimit:10;" d="M22.35,54.25"/>
	<g>
		<circle style="fill:#4FC3F7;" cx="34.56" cy="51.99" r="22.96"/>
	</g>
	<g>
		<circle style="fill:#4FC3F7;" cx="93.39" cy="51.99" r="22.96"/>
	</g>
	<g>
		<g>
			<g>
				
					<rect x="36.17" y="28.65" transform="matrix(0.7501 -0.6614 0.6614 0.7501 -22.1729 37.0771)" style="fill:#E1F5FE;" width="3.59" height="38.44"/>
				<polygon style="fill:#E1F5FE;" points="21.66,36.63 15.42,42.45 40.84,71.29 47.08,65.46 				"/>
			</g>
		</g>
		<g>
			<g>
				
					<rect x="96.73" y="28.65" transform="matrix(0.7501 -0.6614 0.6614 0.7501 -7.0385 77.1248)" style="fill:#E1F5FE;" width="3.59" height="38.44"/>
				<polygon style="fill:#E1F5FE;" points="82.21,36.63 75.97,42.45 101.39,71.29 107.64,65.46 				"/>
			</g>
		</g>
	</g>
	
		<radialGradient id="SVGID_1_" cx="63.9723" cy="88.4087" r="33.8219" gradientTransform="matrix(1 0 0 0.4617 0 47.5867)" gradientUnits="userSpaceOnUse">
		<stop  offset="0.0323" style="stop-color:#000000"/>
		<stop  offset="1" style="stop-color:#424242"/>
	</radialGradient>
	<path style="fill:url(#SVGID_1_);" d="M96.68,86.83c0.33-2.58-0.58-5.39-2.1-7.43c-0.2-0.27-0.63-0.14-0.64,0.19
		c-0.07,1.71-0.68,5.16-4.37,6.44c-6.97,2.42-10.42-9.38-20.51-8.43c-2.19,0.21-3.86,1.18-5.07,2.62c-0.01-0.01-0.02-0.02-0.02-0.02
		c-0.01,0.01-0.02,0.02-0.02,0.02c-1.21-1.44-2.88-2.42-5.07-2.62c-10.1-0.95-13.55,10.85-20.51,8.43c-3.69-1.28-4.3-4.73-4.37-6.44
		c-0.01-0.33-0.44-0.46-0.64-0.19c-1.52,2.04-2.44,4.85-2.1,7.43c0.65,5,5.47,6.48,5.47,6.48c-1.34,1.26-2.63,1.59-4.18,1.47
		c-0.5-0.04-0.82,0.56-0.51,0.95c3.63,4.68,10.3,6.15,15.17,3.1c-0.29,0.94-0.75,1.82-1.34,2.56c-0.24,0.31-0.13,0.77,0.24,0.92
		c6.22,2.51,12.68,1.36,17.87-3.68c5.18,5.04,11.65,6.19,17.87,3.68c0.36-0.15,0.48-0.61,0.24-0.92c-0.59-0.74-1.05-1.62-1.34-2.56
		c4.86,3.05,11.54,1.58,15.17-3.1c0.31-0.4-0.01-0.99-0.51-0.95c-1.56,0.12-2.84-0.21-4.18-1.47
		C91.21,93.31,96.04,91.83,96.68,86.83z"/>
	<g>
		<g>
			
				<radialGradient id="SVGID_2_" cx="36.0776" cy="33.3191" r="22.067" gradientTransform="matrix(1 6.261508e-03 -4.252246e-03 0.6791 1.6669 10.585)" gradientUnits="userSpaceOnUse">
				<stop  offset="0.0323" style="stop-color:#000000"/>
				<stop  offset="0.9664" style="stop-color:#424242"/>
			</radialGradient>
			<path style="fill:url(#SVGID_2_);" d="M27.46,19.97c2.16,1.26,3.25,3.82,3.25,3.82s-3.09-2.29-8.14,1.07
				c-2.7,1.79-2.8,3.18-6.01,4.34c-0.36,0.13-0.47,0.61-0.18,0.87c1.76,1.56,3.74,2.87,5.95,3.68c3.7,1.36,7.47-0.63,11.29-0.75
				c5.12-0.17,11.75,1.28,16.3,3.86c1.29-3.68,1.23-7.81-0.16-11.45c-1.26-3.29-3.59-6.15-6.54-8.07c-0.38-0.25-0.87,0.06-0.81,0.51
				l0.8,5.42c-2.3-3.49-5.91-5.59-10.12-5.45c-1.72,0.06-3.95,0.39-5.62,1.23C27.11,19.24,27.11,19.76,27.46,19.97z"/>
		</g>
		
			<radialGradient id="SVGID_3_" cx="58.82" cy="37.6176" r="20.4487" gradientTransform="matrix(-1 6.261508e-03 3.251007e-03 0.5192 149.7971 13.0701)" gradientUnits="userSpaceOnUse">
			<stop  offset="0.0323" style="stop-color:#000000"/>
			<stop  offset="1" style="stop-color:#424242"/>
		</radialGradient>
		<path style="fill:url(#SVGID_3_);" d="M100.54,19.97c-2.16,1.26-3.25,3.82-3.25,3.82s3.09-2.29,8.14,1.07
			c2.7,1.79,2.8,3.18,6.01,4.34c0.36,0.13,0.47,0.61,0.18,0.87c-1.76,1.56-3.74,2.87-5.95,3.68c-3.7,1.36-7.47-0.63-11.29-0.75
			c-5.12-0.17-11.75,1.28-16.3,3.86c-1.29-3.68-1.23-7.81,0.16-11.45c1.26-3.29,3.59-6.15,6.54-8.07c0.38-0.25,0.87,0.06,0.81,0.51
			l-0.8,5.42c2.3-3.49,5.91-5.59,10.12-5.45c1.72,0.06,3.95,0.39,5.62,1.23C100.89,19.24,100.89,19.76,100.54,19.97z"/>
	</g>
	<g>
		<g>
			<path style="fill:#212121;" d="M34.56,34.37c9.71,0,17.62,7.9,17.62,17.62s-7.9,17.62-17.62,17.62s-17.62-7.9-17.62-17.62
				S24.84,34.37,34.56,34.37 M34.56,29.03c-12.68,0-22.96,10.28-22.96,22.96s10.28,22.96,22.96,22.96s22.96-10.28,22.96-22.96
				S47.24,29.03,34.56,29.03L34.56,29.03z"/>
		</g>
		<g>
			<g>
				<path style="fill:#212121;" d="M93.39,34.37c9.71,0,17.62,7.9,17.62,17.62s-7.9,17.62-17.62,17.62s-17.62-7.9-17.62-17.62
					S83.68,34.37,93.39,34.37 M93.39,29.03c-12.68,0-22.96,10.28-22.96,22.96s10.28,22.96,22.96,22.96s22.96-10.28,22.96-22.96
					S106.07,29.03,93.39,29.03L93.39,29.03z"/>
			</g>
		</g>
		<g>
			<linearGradient id="SVGID_4_" gradientUnits="userSpaceOnUse" x1="113.6633" y1="52.1947" x2="123.8348" y2="52.1947">
				<stop  offset="0.4463" style="stop-color:#212121"/>
				<stop  offset="0.7484" style="stop-color:#323232"/>
				<stop  offset="0.9664" style="stop-color:#424242"/>
			</linearGradient>
			<path style="fill:url(#SVGID_4_);" d="M115.17,59.44c1.02-2.91,5.68-4.38,7.92-4.93c0.71-0.17,1.22-0.81,1.22-1.54v-3.15
				c0-0.85-0.66-1.54-1.51-1.58c-2.26-0.11-6.39-0.68-7.5-3.32C113.73,41.22,113.82,63.31,115.17,59.44z"/>
		</g>
		<g>
			<path style="fill:#212121;" d="M72.39,42.8c-0.01,0-0.34,1.31-2.17,1.31c-1.79,0-2.63-1.48-6.22-1.48s-4.43,1.48-6.22,1.48
				c-1.83,0-2.17-1.3-2.17-1.31c-0.56-0.34-0.25,6.07-0.25,6.07c0.19,0.63,1.26,6.87,1.85,6.95c0,0,2.45-4.31,6.79-4.36c0,0,0,0,0,0
				s0,0,0,0c4.33,0.05,6.79,4.36,6.79,4.36c0.59-0.08,1.66-6.32,1.85-6.95C72.64,48.87,72.94,42.46,72.39,42.8z"/>
		</g>
		<g>
			
				<linearGradient id="SVGID_5_" gradientUnits="userSpaceOnUse" x1="-17.1292" y1="52.1947" x2="-6.9577" y2="52.1947" gradientTransform="matrix(-1 0 0 1 -2.7925 0)">
				<stop  offset="0.4463" style="stop-color:#212121"/>
				<stop  offset="0.7484" style="stop-color:#323232"/>
				<stop  offset="0.9664" style="stop-color:#424242"/>
			</linearGradient>
			<path style="fill:url(#SVGID_5_);" d="M12.83,59.44c-1.02-2.91-5.68-4.38-7.92-4.93c-0.71-0.17-1.22-0.81-1.22-1.54v-3.15
				c0-0.85,0.66-1.54,1.51-1.58c2.26-0.11,6.39-0.68,7.5-3.32C14.27,41.22,14.18,63.31,12.83,59.44z"/>
		</g>
	</g>
	<g>
		<linearGradient id="SVGID_6_" gradientUnits="userSpaceOnUse" x1="64" y1="20.8333" x2="64" y2="56.8888">
			<stop  offset="0.5" style="stop-color:#FDE030"/>
			<stop  offset="1" style="stop-color:#F7C02B"/>
		</linearGradient>
		<path style="fill:url(#SVGID_6_);" d="M72.57,61.58c-2.32-7.75-3.55-12.34-8.55-12.36c-0.01,0-0.02,0-0.03,0
			c-0.01,0-0.02,0-0.03,0c-4.99,0.01-6.22,4.61-8.55,12.36c-2.8,9.32-12.15,16.01-7.48,22.32c1.68,2.26,4.01,2.22,5.43,2.58
			c1.4,0.36,4.18,6.84,10.6,6.84c0.01,0,0.02,0,0.03,0s0.02,0,0.03,0c6.42,0,9.2-6.47,10.6-6.84c1.42-0.37,3.75-0.32,5.43-2.58
			C84.72,77.58,75.37,70.9,72.57,61.58z"/>
		
			<radialGradient id="SVGID_7_" cx="58.3417" cy="82.8501" r="11.5074" gradientTransform="matrix(0.9622 0.2722 -0.3237 1.1443 29.0193 -27.8346)" gradientUnits="userSpaceOnUse">
			<stop  offset="1.982868e-04" style="stop-color:#B36E00"/>
			<stop  offset="0.7126" style="stop-color:#C77B00;stop-opacity:0.2874"/>
			<stop  offset="1" style="stop-color:#D18100;stop-opacity:0"/>
		</radialGradient>
		<path style="fill:url(#SVGID_7_);" d="M57.25,68.5c1.75-3.71,2.21-10.29,2.21-10.29s-1.63,1.81-4.95,6.62
			c-0.67,0.98-1.98,3.08-2.75,4.37c-3.06,5.17-7.09,10.27-3.81,14.69c1.68,2.26,4.01,2.22,5.43,2.58c0.43,0.11,0.99,0.79,1.73,1.68
			l0,0c0,0-2.19-3.91-1.73-7.91S55.5,72.21,57.25,68.5z"/>
		
			<radialGradient id="SVGID_8_" cx="69.8381" cy="82.8501" r="11.5074" gradientTransform="matrix(-0.9622 0.2722 0.3237 1.1443 110.0701 -30.9638)" gradientUnits="userSpaceOnUse">
			<stop  offset="1.982868e-04" style="stop-color:#B36E00"/>
			<stop  offset="0.7126" style="stop-color:#C77B00;stop-opacity:0.2874"/>
			<stop  offset="1" style="stop-color:#D18100;stop-opacity:0"/>
		</radialGradient>
		<path style="fill:url(#SVGID_8_);" d="M70.78,68.5c-1.75-3.71-2.21-10.29-2.21-10.29s1.63,1.81,4.95,6.62
			c0.67,0.98,1.98,3.08,2.75,4.37c3.06,5.17,7.09,10.27,3.81,14.69c-1.68,2.26-4.01,2.22-5.43,2.58c-0.43,0.11-0.99,0.79-1.73,1.68
			l0,0c0,0,2.19-3.91,1.73-7.91S72.53,72.21,70.78,68.5z"/>
	</g>
</g>
</svg>
