<svg xmlns="http://www.w3.org/2000/svg" viewBox="0 0 64 64" enable-background="new 0 0 64 64"><g fill="#c7e755"><ellipse cx="32" cy="33.5" rx="22.3" ry="25.9"/><path d="m52 43.5h-40l20-27.4z"/></g><g fill="#a3bf2c"><path d="m47.1 51l-3.8 4.2-3.8-4.2 3.8-4.3z"/><path d="m32 51l-3.8 4.2-3.7-4.2 3.7-4.3z"/><path d="m24.5 51l-3.8 4.2-3.8-4.2 3.8-4.3z"/><path d="m39.5 51l-3.7 4.2-3.8-4.2 3.8-4.3z"/></g><g fill="#c7e755"><path d="m43.3 46.7l-3.8 4.3-3.7-4.3 3.7-4.3z"/><path d="m50.8 46.7l-3.7 4.3-3.8-4.3 3.8-4.3z"/><path d="m28.2 46.7l-3.7 4.3-3.8-4.3 3.8-4.3z"/><path d="m20.7 46.7l-3.8 4.3-3.7-4.3 3.7-4.3z"/><path d="M35.8 46.7 32 51 28.2 46.7 32 42.4z"/></g><g fill="#a3bf2c"><path d="m47.1 42.4l-3.8 4.3-3.8-4.3 3.8-4.2z"/><path d="m32 42.4l-3.8 4.3-3.7-4.3 3.7-4.2z"/><path d="m24.5 42.4l-3.8 4.3-3.8-4.3 3.8-4.2z"/><path d="m39.5 42.4l-3.7 4.3-3.8-4.3 3.8-4.2z"/></g><g fill="#c28fef"><path d="M7,30c0,0-1.5,17,11.1,24.5c4.1,2.4-2.5-3.6-0.8-18.4L7,30z"/><path d="m57 30c0 0 1.5 17-11.1 24.5-4.1 2.4 2.5-3.6.8-18.4l10.3-6.1"/></g><g fill="#9450e0"><path d="m32 2c-7.1 7-15 .9-15 .9 4.9 8.8 15 10.4 15 10.4s10.1-1.6 15-10.4c0 0-7.9 6.1-15-.9"/><path d="M18.8,39.4C9.5,39.4,2,31.9,2,22.6S9.5,5.9,18.8,5.9s16.8,7.5,16.8,16.8S28,39.4,18.8,39.4z"/><path d="M45.2,39.4c-9.2,0-16.8-7.5-16.8-16.8S36,5.9,45.2,5.9S62,13.4,62,22.6S54.5,39.4,45.2,39.4z"/></g><circle cx="45.1" cy="22.6" r="13.1" fill="#c7e755"/><circle cx="45.1" cy="22.6" r="9.4" fill="#fff"/><circle cx="45.1" cy="22.6" r="5.6" fill="#3e4347"/><g fill="#c7e755"><path d="m32.5 9.5c0 3.1-.5 5.6-.5 5.6s-.5-2.5-.5-5.6.5-5.6.5-5.6.5 2.5.5 5.6"/><path d="m29.7 10.3c1 2.1 1.3 3.9 1.3 3.9s-1.4-1.5-2.4-3.6c-1-2.1-1.3-3.9-1.3-3.9s1.4 1.5 2.4 3.6"/><path d="m34.3 10.3c-1 2.1-1.3 3.9-1.3 3.9s1.4-1.5 2.4-3.6c1-2.1 1.3-3.9 1.3-3.9s-1.4 1.5-2.4 3.6"/><circle cx="18.9" cy="22.6" r="13.1"/></g><circle cx="18.9" cy="22.6" r="9.4" fill="#fff"/><circle cx="18.9" cy="22.6" r="5.6" fill="#3e4347"/><path d="m28.2 31.1c0 3.2 1.5 6.1 3.8 8 2.3-1.9 3.8-4.8 3.8-8s-1.5-6.1-3.8-8c-2.3 1.9-3.8 4.7-3.8 8" fill="#ffce31"/><g fill="#f2b200"><path d="m32 23.1v16c2.3-1.9 3.8-4.8 3.8-8s-1.5-6.1-3.8-8"/><path d="m18.8 54.9c0 2.5-2 6.1-2 6.1s-2-3.7-2-6.1c0-2.5 4-2.5 4 0"/><path d="m25.4 54.9c0 2.5-2 6.1-2 6.1s-2-3.7-2-6.1c0-2.5 4-2.5 4 0"/><path d="m22.1 54.3c0 3.1-2 7.7-2 7.7s-2-4.6-2-7.7 4-3.1 4 0"/><path d="m42.6 54.9c0 2.5-2 6.1-2 6.1s-2-3.7-2-6.1c0-2.5 4-2.5 4 0"/><path d="m49.2 54.9c0 2.5-2 6.1-2 6.1s-2-3.7-2-6.1c0-2.5 4-2.5 4 0"/><path d="m45.9 54.3c0 3.1-2 7.7-2 7.7s-2-4.6-2-7.7 4-3.1 4 0"/></g></svg>