<?xml version="1.0" encoding="utf-8"?>
<!-- Generator: Adobe Illustrator 24.1.2, SVG Export Plug-In . SVG Version: 6.00 Build 0)  -->
<svg version="1.1" id="Layer_3" xmlns="http://www.w3.org/2000/svg" xmlns:xlink="http://www.w3.org/1999/xlink" x="0px" y="0px"
	 viewBox="0 0 128 128" style="enable-background:new 0 0 128 128;" xml:space="preserve">
<radialGradient id="SVGID_1_" cx="63.483" cy="38.467" r="70.7328" gradientTransform="matrix(-0.0349 0.9994 -1.8874 -0.0659 138.3001 -22.4421)" gradientUnits="userSpaceOnUse">
	<stop  offset="0.401" style="stop-color:#7F5950"/>
	<stop  offset="0.5119" style="stop-color:#745147"/>
	<stop  offset="0.6813" style="stop-color:#5B3F33"/>
</radialGradient>
<path style="fill:url(#SVGID_1_);" d="M1.63,84.97c0.26,0.38,6.19-3.1,11.68-1.16c2.85,1.01,5.06,5.46,5.56,5.56
	c0.5,0.1,5.05-7.29,12.41-5.96c8.74,1.59,9.26,10.44,9.93,10.62c0.41,0.11,1.49-4.86,7.74-4.37c3.49,0.28,6.35,4.27,8.84,8.44
	s6.7,10.97,7.35,11.02c0.89,0.07,6.35-8.54,8.04-11.72c1.69-3.18,5.76-9.33,9.63-9.43c3.87-0.1,5.68,5.94,6.55,5.76
	c0.72-0.15,1.06-7.88,7.45-8.84c6.65-0.99,8.43,6.46,9.33,6.35c0.82-0.1,1.44-6.85,9.53-6.95c8.04-0.1,9.58,5.81,10.62,5.66
	c1.31-0.19,1.24-23.18-6.95-35.4c-5.66-8.44-13.75-12.89-17.53-14.48c-3.13-1.32-5.76-1.49-5.66-3.18c0.1-1.69,3.67-0.3,4.47-2.58
	c0.79-2.28-4.47-3.97-7.15-1.79s-1.09,6.16-1.09,6.16s-0.58,11.62-4.41,17.36c-3,4.5-6.22,5.5-9.95,6.66
	c-4.28,1.33-8.67,1.48-14.18,0.98c-4.67-0.42-9.09-0.42-12.85-1.83c-4.26-1.6-7.98-6.57-9.01-9.29c-1.57-4.15-1.5-7.13-1.5-10.79
	c0-4.25,0-6.85,0-6.85s2.58-3.38,0.1-6.06s-6.16-1.19-5.86,1.09c0.3,2.28,2.98,0.99,2.68,2.88c-0.3,1.89-5.2,2.39-9.59,4.81
	c-6.85,3.77-11.56,6.83-16.89,15.02C3.04,64.79,0.6,83.46,1.63,84.97z"/>
<path style="fill:#885B50;" d="M54.61,57.45c0,0,1.56,2.38,0.89,3.72s-2.38,9.16-2.83,16.23c-0.5,7.97,3.43,11.69,3.43,11.69
	l-0.67,5.36l3.62,5.78c0,0,4.19-7.87,5.46-7.79c1.27,0.07,6.75,8.29,6.75,8.29l3.03-5.21l-1.07-6.95c0,0,3.13-4.1,3.13-11.32
	c0-7.22-2.31-15.27-2.38-16.38c-0.07-1.12,1.49-3.18,1.49-3.18s3.42,1.32,5.96-1.64c3.23-3.77,3.44-13.26,0.65-18.72
	c-2.13-4.17-4.17-6.21-4.91-6.35c-0.74-0.15-3.77,4.37-5.16,8.14C70.6,42.91,70,46.28,70,46.28s-1.54-1.06-4.42-1.39
	c-2.18-0.25-3.92,0.25-3.92,0.25s0.15-4.22-0.4-7.25c-0.55-3.03-1.59-7.4-2.98-7.79c-1.39-0.4-6.27,5.43-7.74,7.55
	c-1.94,2.78-6.83,10.15-1.37,16.75C51.82,57.6,54.61,57.45,54.61,57.45z"/>
<path style="fill:#B68E74;" d="M64.07,91.33c1.86-0.3,7.97-3.57,8.44-10.47c0.53-7.68-3.97-16.38-8.19-16.53
	c-4.37-0.15-8.71,9.93-8.19,16.03C56.82,88.5,64.07,91.33,64.07,91.33z"/>
<path style="fill:#FFD2AD;" d="M72.33,47.67c0,0,0.6-3.92,2.38-7.6c0.92-1.9,1.99-3.82,3.47-3.72c1.49,0.1,3.57,4.86,3.57,10.08
	s-0.69,7.4-2.88,8.59c-1.99,1.08-3.08,0.4-3.08,0.4s-0.3-3.23-1.09-4.67C73.92,49.31,72.33,47.67,72.33,47.67z"/>
<path style="fill:#FFD2AD;" d="M57.44,34.47c-1.02-0.2-5.24,4.15-6.8,7.15c-1.79,3.43-2.8,7.27-0.35,10.55
	c1.54,2.05,3.97,1.37,3.97,1.37s0.35-2.53,1.89-4.62c1.5-2.03,3.13-2.78,3.13-2.78S59.72,34.91,57.44,34.47z"/>
<path style="fill:#FEFEFE;" d="M62.24,58.61c0,0-2.57-0.89-2.35,0.41c0.22,1.3,0.78,3.31,1.68,3.2S62.24,58.61,62.24,58.61z"/>
<path style="fill:#FEFEFE;" d="M65.63,58.42c0,0-0.11,3.43,0.78,3.91c0.89,0.48,1.97-3.61,1.75-4.28S65.63,58.42,65.63,58.42z"/>
<path style="fill:#020308;" d="M63.92,56.52c-0.89,0.02-1.19,1.95-2.57,1.19c-1.05-0.58,0.16-1.77-1.03-1.92
	c-1.05-0.13-1.2,0.84-0.94,1.81c0.26,0.97,0.52,1.9,2.27,2.05c1.75,0.15,2.35-0.89,2.35-0.89s0.84,1,2.06,0.98
	c1.86-0.02,2.29-1.66,2.63-2.17c0.52-0.78-0.62-2-1.34-0.82c-0.72,1.18-1.69,1.15-2.23,0.67C64.77,57.11,64.59,56.51,63.92,56.52z"
	/>
<path style="fill:#B68E74;" d="M63.29,53.17c-0.63-0.18-1.27,0.48-1.53,1.27c-0.26,0.78-0.26,1.5,0.26,1.86
	c0.71,0.48,1.49-0.56,1.68-1.08S64.18,53.43,63.29,53.17z"/>
<path style="fill:#B68E74;" d="M65.97,53.1c-0.71,0-1.04,0.56-1.04,1.68c0,1.12,0.22,1.41,0.93,1.56c0.71,0.15,1.01-1.15,1.01-1.79
	S66.75,53.1,65.97,53.1z"/>
<ellipse style="fill:#020204;" cx="71.24" cy="54.15" rx="2" ry="2.12"/>
<ellipse style="fill:#020204;" cx="58.09" cy="53.48" rx="2" ry="2.12"/>
</svg>
