<?xml version="1.0" encoding="utf-8"?>
<!-- Generator: Adobe Illustrator 24.1.2, SVG Export Plug-In . SVG Version: 6.00 Build 0)  -->
<svg version="1.1" id="Layer_3" xmlns="http://www.w3.org/2000/svg" xmlns:xlink="http://www.w3.org/1999/xlink" x="0px" y="0px"
	 viewBox="0 0 128 128" style="enable-background:new 0 0 128 128;" xml:space="preserve">
<path style="fill:#BA8855;" d="M73.52,51.41c-4.5-0.15-13.81,2.7-13.81,2.7s-2.4-6.23-4.2-8.03c-1.8-1.8-8.26-2.78-8.71-1.43
	c-0.45,1.35,4.2,2.85,6.01,5.56s4.05,6.16,3.15,7.06s-2.18-1.2-6.31-3.6c-4.18-2.43-4.95-2.1-5.86-1.95
	c-0.9,0.15-7.13,3.98-9.38,4.58c-2.25,0.6-9.91,0.3-9.83,1.58c0.06,1.06,4.31,2.7,8.11,2.55c3.83-0.15,8.11-3.3,11.71-2.85
	c3.6,0.45,7.36,4.2,6.16,4.95c-1.2,0.75-3.53-2.03-5.33-2.33s-6.83,2.63-9.53,2.93c-2.7,0.3-9.91-0.45-10.06,0.6
	c-0.15,1.05,4.5,3,9.76,2.85c5.25-0.15,7.66-1.58,9.61-1.28c1.95,0.3,4.95,4.43,4.95,4.43l0.15,4.2l-3,0.3c0,0-1.5-2.85-4.65-3.3
	c-3.15-0.45-5.1,0.75-5.1,0.75s-3.3-3.3-7.21-3.6c-3.9-0.3-8.41,1.2-9.61,3.15s-5.25,31.53-5.25,31.53s9.16,13.14,10.06,13.44
	c0.9,0.3,2.36-0.1,2.63-1.13c0.38-1.43-1.73-5.25-2.03-7.81c-0.3-2.55-1.05-10.06-1.05-10.06l-3.6-10.81l9.01-1.65
	c0,0,2.91,0.06,4.65-0.45c1.8-0.53,3.6-2.4,3.6-2.4s2.7,2.55,6.16,3.45S54,84.59,54,84.59l12.76,3.3c0,0,9.23,2.48,13.51,1.65
	c2.29-0.44,4.05-1.5,4.05-1.5s0.45,3,2.1,4.2c1.65,1.2,0.45,20.42,0.45,20.42s-1.35,4.65-4.35,6.46c-3,1.8-7.19,4.12-6.76,5.56
	c0.53,1.73,3.38,0.9,3.38,0.9l14.34-6.61l8.56-26.42c0,0,0.75-5.4-2.55-8.71s-6.76-2.25-6.76-2.25s-0.08-1.28-0.53-1.88
	c-0.45-0.6-1.88-1.13-1.88-1.13s4.5-2.25,5.48-2.4c3.12-0.48,8.05,5.56,10.88,7.36c2.85,1.8,9.12,5.11,8.71,2.55
	c-0.38-2.33-1.8-1.8-6.61-6.01s-9.91-10.06-11.56-10.21c-1.65-0.15-9.76,4.95-10.06,3.15c-0.3-1.8,1.88-3.38,3.9-5.56
	c2.03-2.18,3.6-4.2,4.95-4.05c1.35,0.15,6.01,4.95,8.11,6.31c2.1,1.35,10.81,6.31,9.91,2.7c-0.55-2.19-4.2-2.1-8.86-6.61
	c-4.65-4.5-8.26-9.31-10.21-9.46c-1.95-0.15-8.18,7.66-8.18,7.66s3.6-6.31,4.65-7.51s2.93-3.6,2.93-3.6s3.75,1.5,5.86,1.2
	c2.1-0.3,4.95-1.2,4.95-2.25c0-1.05-3.75-1.05-5.25-1.35c-1.5-0.3-5.25-2.4-6.16-2.4s-3.11,2.3-3.9,3.3
	c-1.13,1.43-5.48,6.23-5.48,6.23L73.52,51.41z"/>
<path style="fill:#F2A159;" d="M29.38,72.08c-3.51-3.08-13.71-2.6-17.42,11.01s0.65,22.12,4.5,27.17c3.3,4.33,8.21,6.66,9.91,5.96
	c1.37-0.56-3.8-6.81-5-9.81c-0.99-2.48-1.2-8.12-0.3-8.01c1.6,0.2,4.9,8.11,8.31,10.21c2.08,1.28,3.5,1.9,4.2,1.8
	c1.05-0.15-1.9-5.81-4.5-10.31s-4.1-6.86-3.9-7.26c0.2-0.4,4.99-5.38,5.71-6.61C31.93,84.44,35.18,77.19,29.38,72.08z"/>
<path style="fill:#F2A159;" d="M38.99,73.41c-1.73,1.5-0.83,4.5,0.38,5.78s3.68,2.93,5.18,1.58c1.5-1.35,0.98-3.98-0.98-6.08
	C42.19,73.21,40.13,72.41,38.99,73.41z"/>
<path style="fill:#F2A159;" d="M94.54,87.22c-4.49-0.37-7.66,2.18-9.31,7.13s-0.23,10.21-0.45,10.81c-0.23,0.6-4.04,3.17-5.56,4.2
	c-2.4,1.65-6.01,4.35-4.5,5.56c2.36,1.89,6.86,0.17,8.56-0.45c3.9-1.43,5.52-3.29,7.06-2.7c3.15,1.2-1.73,6.23-4.05,7.88
	c-2.19,1.56-10.43,4.5-9.98,5.56c0.45,1.05,2.63,0.98,5.1,0.68c2.48-0.3,12.39-3.75,16.74-8.86c3.98-4.67,5.56-10.96,5.25-16.67
	C103.15,95.77,102.8,87.9,94.54,87.22z"/>
<path style="fill:#F2A159;" d="M84.85,80.32c1.28,0,3,0.29,3.23,1.88c0.3,2.1-2.03,3-3.3,3c-0.75,0-3.45-0.15-3.45-2.25
	C81.33,80.84,83.58,80.32,84.85,80.32z"/>
<path style="fill:#F2A159;" d="M58.58,57.49c-1.55,2.01-9.77,9.65-11.04,15.84c-1.28,6.23,0.25,13.79,13.21,18.11
	c10.98,3.66,19.15-2.25,21.4-7.04c3.2-6.79,2.4-13.93,2.85-16.18c0.45-2.25,3.75-11.99,3.75-19.37c0-8.41-2.85-9.68-2.85-9.68
	s4.73-3.15,5.48-7.06s-0.3-7.36-0.3-7.36s2.58-2.97,1.2-9.16c-1.2-5.4-6.23-6.31-6.23-6.31s-1.23-5.04-6.08-6.38
	c-4.88-1.35-8.93,0.6-8.93,0.6s-0.68-2.33-4.2-2.55c-3.53-0.23-7.06,1.58-8.86,3.23c-2.43,2.22-4.95,7.36-4.95,7.36
	s-4.8,3.53-4.2,9.16c0.6,5.63,3.38,7.58,5.33,8.71c1.95,1.13,3.68,0.68,6.08,1.35s3.15,3.3,4.43,3.15s1.89-5.15,0.75-8.63
	c-1.05-3.23-4.2-6.76-4.2-6.76s1.73-0.45,3.9-1.65c1.39-0.76,3.75-2.85,3.75-2.85s0.96,1.29,3.38,2.4c3.9,1.8,8.33,0.6,8.33,0.6
	s-1.05,0.98-0.9,3.08c0.12,1.63,0.98,3.68,0.98,3.68s-2.67,1.78-3.23,4.65c-0.6,3.08,1.13,6.91,1.13,6.91s-5.1-0.9-8.41,1.2
	C64.8,39.95,61.58,53.59,58.58,57.49z"/>
<path style="fill:#372D2B;" d="M54.3,72.86c-0.06,1.6,0.75,3.72,3.38,3.8s3.6-1.74,3.53-3.33s-0.83-3.4-3.45-3.56
	C55.88,69.66,54.38,70.88,54.3,72.86z"/>
<path style="fill:#372D2B;" d="M70.89,73.41c-2.56-0.1-3.68,2.06-3.6,3.72c0.08,1.66,1.05,3.17,3.23,3.33
	c2.4,0.17,3.62-1.43,3.75-3.09C74.42,75.47,72.99,73.49,70.89,73.41z"/>
<path style="fill:#372D2B;" d="M55.28,79.75c-1.07,0.54-0.08,2.3,1.05,3.64c1.13,1.35,2.63,1.35,3.3,1.11
	c0.68-0.24,1.73-0.87,1.73-0.87s0.84,2.45,3.55,2.67c2.3,0.18,3.5-0.92,4.18-1.48s1.35-1.9,0.53-2.45
	c-0.83-0.55-1.83,0.54-2.18,1.11c-0.68,1.11-2.2,1.08-3,0.63c-1.28-0.71-1.13-2.93-1.2-3.64c-0.13-1.29-1.35-1.19-1.88-0.48
	c-0.53,0.71-1.9,2.4-2.9,2.3C57.51,82.18,56.65,79.06,55.28,79.75z"/>
<path style="fill:#BA8855;" d="M51.75,65c0,0,3.6-3.53,8.93-4.88c3.17-0.8,9.71-1.19,14.71,1.73c7.36,4.28,9.46,11.71,9.46,11.71
	s0.4-2.83,0-4.13s-3.33-7.11-10.06-10.13c-4.33-1.95-8.86-2.18-13.59-1.03c-2.73,0.66-5.76,2.63-7.06,3.73
	C53.14,62.85,51.55,64.2,51.75,65z"/>
<path style="fill:#BA8855;" d="M59.46,55.87c0,0,6.21-4.45,13.91-3.65C80.47,52.95,86.96,62,86.96,62s0.43-1.43,0.38-2.13
	c-0.05-0.7-1.31-2.66-2.18-3.58c-1.45-1.55-5.71-5.86-11.19-6.43c-6.26-0.65-12.36,2.45-13.06,3.05
	C60.21,53.52,59.16,55.07,59.46,55.87z"/>
<path style="fill:#BA8855;" d="M63.01,47.74c0,0,5.15-3.38,9.01-3.53c3.56-0.14,6.79,0.57,9.11,1.8c5.08,2.7,7.41,7.51,7.41,7.51
	s0.63-2.4-0.23-3.6c-0.37-0.52-3.9-7.88-13.99-7.91c-7.41-0.02-10.08,3.11-10.51,3.58C62.93,46.53,63.01,47.74,63.01,47.74z"/>
<path style="fill:#B38354;" d="M77.47,31.45c0,0,2.22,1.86,3.8,2.35c2.55,0.8,6.31,1.53,5.76,3.28c-0.57,1.81-5.03,0.53-5.66,0.23
	c-0.79-0.38-2.9-1.5-3.5-3C77.56,33.5,77.47,31.45,77.47,31.45z"/>
<path style="fill:#B38354;" d="M80.01,22.05c0,0,3.13,0.51,4.54,0.5c1.41-0.01,6-1.01,6.32,1.07c0.27,1.78-2.96,2.46-4.98,2.22
	c-2.24-0.27-4.32-1.2-5.05-1.78C80.13,23.49,80.01,22.05,80.01,22.05z"/>
<path style="fill:#B38354;" d="M80.67,17.36c0.75-0.22,1.74-1.03,2.81-2.12c1.29-1.31,2.18-3.32,2.44-4.4
	c0.26-1.08,0.1-2.51-1.01-2.99c-1.91-0.84-1.84,2.91-2.64,4.65c-0.81,1.73-2.41,3.69-2.56,4.4C79.58,17.56,80.2,17.5,80.67,17.36z"
	/>
<path style="fill:#B38354;" d="M71.27,3.37c1.79-0.24,2.4,1.8,1.65,5.05c-0.98,4.25-2.98,5.26-3.53,5.68
	c-0.65,0.5-1.69,1.06-1.8,0.6c-0.25-1.05,1.3-2.58,1.95-5.18C70.19,6.92,69.37,3.62,71.27,3.37z"/>
<path style="fill:#B38354;" d="M62.63,17.78c0.55-0.58,0.3-4.5-3.13-6.71c-4.01-2.58-6.31-0.45-7.06,0.6
	c-0.75,1.05-1.23,1.81-0.95,1.6c0.93-0.68,4.35-0.83,6.33,0.23c3.53,1.88,2.88,5.03,3.38,5.03S62.08,18.36,62.63,17.78z"/>
</svg>
