<?xml version="1.0" encoding="utf-8"?>
<!-- Generator: Adobe Illustrator 24.1.2, SVG Export Plug-In . SVG Version: 6.00 Build 0)  -->
<svg version="1.1" id="Butterfly" xmlns="http://www.w3.org/2000/svg" xmlns:xlink="http://www.w3.org/1999/xlink" x="0px" y="0px"
	 viewBox="0 0 128 128" style="enable-background:new 0 0 128 128;" xml:space="preserve">
<polygon style="fill:#41484A;" points="71.08,63.95 75.77,54.56 86.28,41.05 99.8,31.1 113.31,24.9 120.59,24.72 122.42,27.53 
	119.32,41.75 114.39,62.73 111.3,67.79 103.98,71.88 96.51,73 104.12,76.52 109.75,80.89 112.98,85.39 112.98,91.45 110.17,99.33 
	101.72,106.09 96.51,108.06 88.35,106.09 86.52,103.98 82.62,97.78 79.9,88.49 74.41,85.67 69.11,88.58 71.03,101.02 70.61,104.96 
	69.91,107.78 67.94,111.72 62.87,114.67 55.69,114.82 46.4,112.28 40.91,108.06 37.53,102.43 38.37,94.97 47.94,82.72 39.92,85.67 
	29.64,85.96 21.2,76.8 8.24,55.83 5.01,46.54 7.68,43.72 15.42,43.72 32.04,46.4 50.2,53.58 63.29,61.04 "/>
<path style="fill:#676F72;" d="M67.02,46.26c0,0,1.23-11.63,2.53-16.19c1.83-6.41,7.04-11.47,11.4-11.97
	c4.36-0.49,3.8,2.89,1.13,4.29c-2.57,1.35-5.35,0.56-5.35,0.56s-3.59,2.62-4.79,8.02c-1.41,6.34-2.53,16.19-2.53,16.19L67.02,46.26z
	"/>
<path style="fill:#676F72;" d="M63.15,47.03c0,0-4.77-9.69-9.92-15.84c-5.14-6.12-11.68-6.34-12.6-6.41
	c-0.92-0.07-4.79,0.56-4.79,2.39c0,2.46,3.4,2.9,5.35,2.53c2.25-0.42,3.31-1.76,3.31-1.76s4.18,1.66,6.97,5
	c3.24,3.87,9.22,15.56,9.22,15.56l0.42,1.55L63.15,47.03z"/>
<path style="fill:#FF8B03;" d="M54.84,93.7c-1.75-0.87-7.04,4.08-7.04,6.48c0,1.57,1.13,4.22,3.52,3.52
	C53.72,102.99,57.1,94.82,54.84,93.7z"/>
<path style="fill:#FF8B03;" d="M45.41,93.7c2.25,1.97,5.97-1.95,7.6-4.5c1.97-3.1,2.96-10.84,2.39-10.56
	c-0.56,0.28-7.6,5.35-7.6,5.35S42.46,91.12,45.41,93.7z"/>
<path style="fill:#FF8B03;" d="M56.11,103.27c0,2.46,2.67,4.22,5.35,3.8c1.4-0.22,3.91-1.52,3.66-3.8
	c-0.28-2.53-1.41-6.34-4.08-6.76C58.36,96.09,56.11,99.19,56.11,103.27z"/>
<path style="fill:#FF8B03;" d="M71.01,83.91c0,0-3.69,7.75-4.49,9.64c-1.13,2.67-1.17,9.34,1.83,10.42
	c2.14,0.77,2.67-2.96,2.67-2.96s0.37-7.64,0.37-10.17C71.4,88.31,71.01,83.91,71.01,83.91z"/>
<path style="fill:#FF8B03;" d="M73.85,75.12c0,0,7.04,8.17,9.15,9.71c2.11,1.55,5.77,5.91,10.56,2.67
	c4.79-3.24-8.17-14.08-9.29-14.92C83.14,71.74,73,71.6,73,71.6L73.85,75.12z"/>
<path style="fill:#FF8B03;" d="M76.38,83c0,0,4.92,4.49,5.91,5.49c2.11,2.11,4.5,4.07,5.49,7.04c0.56,1.69,1.41,4.22-0.42,5.21
	c-1.51,0.81-3.4-1.39-4.08-2.11c-0.69-0.72-3.33-6.53-4.87-9.84C77.77,87.43,76.38,83,76.38,83z"/>
<path style="fill:#FF8B03;" d="M90.74,91.45c-1.13,1.52,0.32,6.76,1.83,7.74c2.82,1.83,6.19-1.41,6.19-2.96
	C98.77,94.68,93.13,88.21,90.74,91.45z"/>
<path style="fill:#FF8B03;" d="M88.91,72.02c0,0,6.19,9.71,9.57,11.68s6.04,1.75,7.04,0c2.25-3.94-7.46-9.29-7.46-9.29L88.91,72.02z
	"/>
<path style="fill:#FF8B03;" d="M96.65,87.22c-0.84,1.83,2.67,7.18,5.07,7.18s3.26-3.39,3.1-4.5C104.54,87.93,98.09,84.1,96.65,87.22
	z"/>
<path style="fill:#FF8B03;" d="M61.6,75.4c0,0-6.49,10.66-4.5,15.91c1.55,4.08,5.77,3.38,9.43-3.52c3.66-6.9,4.36-11.26,4.36-11.26
	l-1.13-3.94L61.6,75.4z"/>
<path style="fill:#676F72;" d="M63.99,60.33c0,0-5.77-5.21-17.46-10.14s-22.1-8.02-31.39-7.88s-10.7,2.25-11.12,3.94
	c-0.42,1.69,1.24,7.02,3.1,10.28c2.25,3.94,10.7,17.6,13.66,21.82c2.55,3.65,4.31,7.7,9.85,9.01c6.15,1.45,13.66-1.69,13.66-1.69
	s-7.18,6.48-7.6,13.37c-0.42,6.9,3.24,11.83,10.84,14.5s18.7,4.72,22.24-3.66c1.03-2.44,0.84-4.93,0.84-4.93s-2.56,7.31-6.48,8.02
	c-3.1,0.56-2.67-1.27-5.49-1.55c-2.82-0.28-2.39,1.83-5.35,1.83c-2.27,0-1.55-1.83-3.94-3.1s-3.75,0.78-5.21-0.42
	c-2.39-1.97-0.14-2.96-1.13-4.5c-0.99-1.55-3.26-2.02-3.8-3.94c-0.99-3.52,0.99-6.19,3.1-9.29c2.11-3.1,5.91-7.6,8.87-9.71
	c2.96-2.11,17.53-9.06,17.53-9.06s0.77-2.62-0.35-2.48C67.23,70.89,54,77.93,51.6,79.48c-2.39,1.55-12.74,6.91-20.27,5.21
	C26.97,83.7,19.1,69.82,15.92,65.5c-3.18-4.32-8.68-14.92-8.24-17.98c0.41-2.82,5.21-3.38,12.53-2.53c7.32,0.84,13.8,3.1,22.95,6.9
	s19.57,10.84,20.84,10.84C65.26,62.73,63.99,60.33,63.99,60.33z"/>
<path style="fill:#676F72;" d="M72.58,62.02c0,0-1.13-2.72,0.84-6.1s8.31-12.9,14.78-18.68c6.48-5.77,28.3-17.74,33.22-14.22
	c4.93,3.52-0.42,17.36-1.55,22.1c-0.98,4.13-2.25,17.41-7.04,22.95c-3.72,4.31-11.68,5.77-11.68,5.77s12.94,6.21,13.51,14.36
	c0.7,10-10.98,21.42-19.71,21.12c-6.71-0.23-8.45-5.35-8.45-5.35s6.19,3.52,8.73,2.82c2.53-0.7,0.7-3.1,3.1-4.5s4.36,2.25,6.19,0.56
	c1.83-1.69,0.42-3.24,1.69-4.93c1.27-1.69,3.1,0,4.22-1.55c1.13-1.55,0-3.66,0.56-5.07c0.56-1.41,1.69-1.69,1.55-3.8
	c-0.14-2.11-4.08-7.04-9.01-9.43s-10.28-3.52-14.64-4.36c-4.36-0.84-15.63-1.6-15.63-1.6s-0.99-2.3-0.42-2.21
	c1.13,0.19,3.94,0.42,8.17,0.56c8.54,0.28,22.24,2.25,28.3-2.53s7.04-18.3,7.6-21.82s5.91-19.01,2.82-20.55
	c-3.1-1.55-18.34,4.61-26.7,11.07S78.63,52.03,76.8,55.69C74.97,59.35,72.58,62.02,72.58,62.02z"/>
<path style="fill:#41484A;" d="M72.41,58.68c0.77-1.06,1.95-1.89,1.44-7.07c-0.56-5.7-5.46-7.14-9.33-6.3
	c-3.14,0.68-7.57,3.63-5.17,10.73c2.12,6.31,9.29,4.36,9.29,4.36S71.63,59.73,72.41,58.68z"/>
<ellipse transform="matrix(0.8317 -0.5552 0.5552 0.8317 -5.2206 59.2386)" style="fill:#FCFDFA;" cx="95.11" cy="38.23" rx="2.75" ry="2.18"/>
<path style="fill:#FCFDFA;" d="M117.21,41.47c-0.63-1.03-2.01-1.26-3.17-0.28c-0.79,0.66-1.44,2.24-0.77,3.24
	c0.67,1,2.14,1.12,3.1,0.35C117.55,43.83,117.78,42.41,117.21,41.47z"/>
<path style="fill:#FCFDFA;" d="M104.33,35.13c-0.67-1-2.47-1.12-3.73-0.28s-2.21,2.41-1.2,3.94c0.7,1.06,2.31,1.04,3.87,0.14
	C104.75,38.09,105,36.14,104.33,35.13z"/>
<path style="fill:#FCFDFA;" d="M121.22,26.05c0,1.09-0.7,2.18-2.18,1.97c-1.35-0.19-1.97-0.7-1.97-2.18c0-1.09,1.04-1.76,2.15-1.76
	S121.22,24.96,121.22,26.05z"/>
<path style="fill:#FCFDFA;" d="M119.53,34.64c0,1.09-1.08,2.04-2.18,1.97c-1.06-0.07-1.97-0.7-1.97-2.18c0-1.09,1.07-1.9,2.18-1.9
	C118.67,32.53,119.53,33.55,119.53,34.64z"/>
<circle style="fill:#FCFDFA;" cx="113.79" cy="53.68" r="2.15"/>
<ellipse style="fill:#FCFDFA;" cx="20.74" cy="72.3" rx="1.87" ry="1.9"/>
<path style="fill:#FCFDFA;" d="M10,45.97c0.83,1.11,0.18,2.35-0.86,3.2C8.11,50.02,6.69,50,5.98,49.13
	c-0.71-0.87-0.45-2.27,0.59-3.12C7.61,45.16,9.19,44.87,10,45.97z"/>
<path style="fill:#FCFDFA;" d="M16.74,60.88c1.42,0.28,1.81,1.53,1.62,2.74c-0.19,1.22-1.28,2.06-2.44,1.88
	c-1.16-0.18-1.95-1.31-1.77-2.53S15.34,60.61,16.74,60.88z"/>
<path style="fill:#FCFDFA;" d="M12.46,53.78c1.03,1.02,0.66,2.27-0.17,3.18c-0.83,0.91-2.2,1.01-3.07,0.21
	c-0.87-0.79-0.9-2.17-0.07-3.08C9.98,53.18,11.45,52.77,12.46,53.78z"/>
<path style="fill:#FCFDFA;" d="M29.77,49.61c1.04,0.82,0.74,2.14-0.02,3.2s-2.08,1.42-2.96,0.8s-0.97-1.99-0.21-3.06
	C27.34,49.49,28.74,48.8,29.77,49.61z"/>
<path style="fill:#FCFDFA;" d="M26.55,48.97c-0.04,1.36-1.31,1.92-2.64,1.93c-1.33,0.02-2.42-0.87-2.43-1.97
	c-0.01-1.11,1.05-2.02,2.38-2.03C25.19,46.88,26.59,47.62,26.55,48.97z"/>
<path style="fill:#FCFDFA;" d="M43.86,99.19c0,1.23-0.78,2.22-2.01,2.22s-2.22-1-2.22-2.24c0-1.23,0.99-2.24,2.22-2.24
	S43.86,97.95,43.86,99.19z"/>
<path style="fill:#FCFDFA;" d="M47.59,107.07c-0.8,0.95-2.44,0.81-3.28,0.11c-0.83-0.7-0.86-2.04-0.06-2.99s2.12-1.16,2.96-0.46
	C48.04,104.43,48.39,106.12,47.59,107.07z"/>
<ellipse transform="matrix(0.8293 -0.5588 0.5588 0.8293 -34.0558 76.0622)" style="fill:#FCFDFA;" cx="107.46" cy="93.77" rx="2.08" ry="1.76"/>
<ellipse transform="matrix(0.8293 -0.5588 0.5588 0.8293 -29.9572 76.2266)" style="fill:#FCFDFA;" cx="109.78" cy="87.14" rx="2.08" ry="2"/>
<path style="fill:#FF8B03;" d="M95.2,43.49c-3.49-1.45-7.13,0.47-11.26,6.38c-4.13,5.91-6.38,10.04-4.6,11.54s10-6.16,11.73-7.51
	C93.6,51.93,99.05,45.08,95.2,43.49z"/>
<path style="fill:#FF8B03;" d="M88.16,60c2.32-1.32,9.1-0.75,12.76-0.94c2.44-0.13,6.01,0.25,6.1,1.5c0.19,2.53-0.75,4.13-3.94,5.26
	c-3.19,1.13-10.7,1.31-15.49,1.41c-2.82,0.06-5.41,0.34-5.73-0.94C81.68,65.54,84.03,62.35,88.16,60z"/>
<path style="fill:#FF8B03;" d="M99.24,48.93c2.16,0.38,9.1,0.19,11.07-1.31c1.2-0.92,1.88-4.79,0-5.63
	c-1.88-0.84-7.23-0.66-9.29,0.94C99.75,43.9,97.4,48.61,99.24,48.93z"/>
<path style="fill:#FF8B03;" d="M109.47,31.29c-0.36,2.21,3.19,2.16,4.79,1.69c1.6-0.47,3.75-3,2.72-4.32
	C115.94,27.34,109.93,28.38,109.47,31.29z"/>
<path style="fill:#FF8B03;" d="M106.93,36.73c0,1.6,1.31,2.16,3.19,2.16c1.88,0,3.1-1.19,3.1-2.44c0-1.69-1.6-2.35-3.66-1.97
	C107.99,34.76,106.93,35.42,106.93,36.73z"/>
<path style="fill:#FF8B03;" d="M94.36,56.16c0,1.2,3.38,0.84,8.26,0.84c4.88,0,6.01-0.75,6.57-2.63c0.56-1.88,0.38-3.1-2.53-3.19
	c-2.91-0.09-8.63,0.19-10.32,1.41C95.57,53.14,94.36,55.22,94.36,56.16z"/>
<path style="fill:#FF8B03;" d="M29.13,75.58c-0.2,2.15,1.69,4.88,7.32,4.41s12.3-3.79,14.08-4.6c3.28-1.5,6.29-2.72,6.29-4.22
	c0-1.69-3.75-2.25-8.82-2.72c-5.07-0.47-8.82,0.47-13.05,2.82C31.42,73.23,29.22,74.55,29.13,75.58z"/>
<path style="fill:#FF8B03;" d="M23.59,68.17c-0.17,1.3,1.97,4.41,3.38,4.5c1.41,0.09,8.82-3.85,9.01-5.16
	c0.19-1.31-1.69-3.38-3.19-3.75C31.29,63.38,23.78,66.76,23.59,68.17z"/>
<path style="fill:#FF8B03;" d="M32.79,53.81c-2.26,2.26,0.38,6.48,5.26,8.92c4.88,2.44,12.67,3.1,15.77,3.57
	c3.1,0.47,5.35,0.56,5.82-0.38c1.01-2.01-6.48-5.73-13.42-9.01C41.89,54.86,34.57,52.03,32.79,53.81z"/>
<path style="fill:#FF8B03;" d="M10.73,49.21c0.28,2.82,7.79,2.1,7.88-0.66C18.71,45.83,10.45,46.4,10.73,49.21z"/>
<path style="fill:#FF8B03;" d="M15.61,55.78c1.17,1.95,6.01,0.19,4.41-2.35C18.5,51.02,13.92,52.97,15.61,55.78z"/>
<path style="fill:#FF8B03;" d="M20.87,63.57c0.77,1.31,3.33,1.22,5.73,0.09c1.6-0.75,3.7-2.29,3.28-4.13
	c-0.47-2.06-4.32-2.35-6.85-1.13C21.24,59.27,19.27,60.85,20.87,63.57z"/>
<path style="fill:#676F72;" d="M74.06,71.24L67.79,73c0,0,1.94,8.4,2.67,11.54c0.77,3.31,5.7,27.17,9.57,26.54
	c3.99-0.65-2.67-25.34-3.31-28.02C76.12,80.49,74.06,71.24,74.06,71.24z"/>
<path style="fill:#41484A;" d="M73.43,82.51c1.85-0.4,2.87-1.51,2.87-1.51l1.23,5.3c0,0-0.93,0.86-2.76,1.28
	c-2.02,0.47-3.59,0.11-3.59,0.11l-1.21-5.26C69.96,82.42,71.45,82.93,73.43,82.51z"/>
<path style="fill:#41484A;" d="M67.79,73l6.26-1.76l0.93,4.22c0,0-1.65,0.83-2.99,1.11c-1.34,0.28-3.31,0.3-3.31,0.3L67.79,73z"/>
<path style="fill:#41484A;" d="M72.3,92.5c0,0,1.78,0.21,3.4-0.14c1.62-0.35,2.97-1.39,2.97-1.39l1.04,4.66c0,0-1.54,1.09-2.95,1.35
	c-1.45,0.27-3.28,0.11-3.26,0.11L72.3,92.5z"/>
<path style="fill:#303031;" d="M67.23,56.67c-2.19,0.61-3.83,1.97-3.94,4.36c-0.14,3.1,0.56,4.93,1.41,7.88
	c0.54,1.89,1.17,6.22,6.9,4.79c3.94-0.99,3.52-4.65,3.38-7.32c-0.14-2.69-0.7-6.19-1.69-7.74C72.37,57.2,69.77,55.97,67.23,56.67z"
	/>
<path style="fill:#303031;" d="M72.54,47.42c0.87,1.29,0.9,3.07-0.24,3.83c-1.13,0.76-3,0.22-3.87-1.07
	c-0.87-1.29-0.65-2.95,0.48-3.72C70.05,45.7,71.67,46.13,72.54,47.42z"/>
<path style="fill:#303031;" d="M63.3,51.58c-0.42,1.5-1.86,2.58-3.17,2.21c-1.32-0.37-2.01-2.03-1.6-3.53
	c0.42-1.5,1.82-2.42,3.14-2.05S63.71,50.08,63.3,51.58z"/>
</svg>
