<?xml version="1.0" encoding="utf-8"?>
<!-- Generator: Adobe Illustrator 24.1.2, SVG Export Plug-In . SVG Version: 6.00 Build 0)  -->
<svg version="1.1" id="Layer_3" xmlns="http://www.w3.org/2000/svg" xmlns:xlink="http://www.w3.org/1999/xlink" x="0px" y="0px"
	 viewBox="0 0 128 128" style="enable-background:new 0 0 128 128;" xml:space="preserve">
<path style="fill:#957155;" d="M94.82,52.36c0,0,4.39-4.31,9.48-4.13c5.44,0.19,9.43,3.14,10.75,7.65c1.31,4.5,1.45,6.24,2.44,7.7
	c0.99,1.45,2.25,2.49,2.25,3.28s-0.94,1.83-2.21,2.35s-3.47-0.09-3.47-0.09s-0.56,2.82-2.63,3.47c-2.06,0.66-3.94,0.42-3.94,0.42
	l-2.63-10.18c0,0,1.84-2.79,0.38-4.74c-1.97-2.62-5.46-0.18-5.46-0.18L94.82,52.36z"/>
<path style="fill:#957155;" d="M68.43,93.82c0,0-0.75,5.02-1.69,6.66c-0.94,1.64-1.36,1.97-1.36,1.97s-0.05,8.26-0.05,10.56
	c0,1.79,0.46,4.41-0.56,5.21c-1.27,0.99-6.29,1.03-6.99,0s1.88-3.33,1.97-4.04c0.09-0.7-0.28-7.7-0.33-9.06
	c-0.05-1.36-2.36-10.3-2.36-10.3L68.43,93.82z"/>
<path style="fill:#957155;" d="M98.8,100.53c0.38,0.59,0.88,7.23,0.97,9.29c0.09,2.06,0.09,5.4-0.05,5.91
	c-0.14,0.52-3.24,3.05-2.11,3.99c1.13,0.94,7.09,0.38,7.56-0.47c0.47-0.84,0.42-18.11,0.42-19.52c0-1.08-1.84-5.5-2.51-6.5
	C102.43,92.25,98.43,99.94,98.8,100.53z"/>
<path style="fill:#DB7C60;" d="M20.63,16.9c0,0-1.19-1.94-2.5-3.7c-1.51-2.02-3.17-3.8-3.1-4.47c0.08-0.76,1.3-0.49,1.3-0.49
	l4.5,3.45l3.66,5.07L20.63,16.9z"/>
<path style="fill:#DB7C60;" d="M24.61,5.39c-0.25,1.06,1.96,3.61,3.63,7.71c0.68,1.67,1.27,6.12,1.27,6.12l2.67,1.27
	c0,0-1.06-6.05-2.11-8.8S25.28,2.51,24.61,5.39z"/>
<path style="fill:#FFD3B2;" d="M24.22,15.07c0,0-2.82-5.07-5.07-6.26c-2.25-1.2-3.94-0.74-3.77-0.32c0.31,0.74,3.1,1.9,4.43,3.94
	s3.55,5.53,3.55,5.53L24.22,15.07z"/>
<path style="fill:#FFD3B2;" d="M24.86,4.94c-0.09-1.41,4.01,0.28,6.34,3.45s2.89,5.21,3.03,8.8s-2.6,3.45-2.6,3.24
	s-0.2-4.43-2.04-9.22C28.34,8,24.93,6.06,24.86,4.94z"/>
<path style="fill:#FFD3B2;" d="M19.79,19.6c0,0-2.58,1.55-5.07,2.49c-2.03,0.76-6.44,2.28-6.09,4.25c0.14,0.79-0.88,1.75-0.39,3.2
	c0.43,1.28,1.25,1.38,1.55,1.55c0.49,0.28,1.51,2.25,3.8,2.45c2.57,0.22,4.08-0.75,4.08-0.75L23.73,38l8.59-8.12l0.61-8.96
	l-6.19-2.35L19.79,19.6z"/>
<path style="fill:#7B5B52;" d="M11.69,28.59c0,0,2.04-1.23,2.89-1.65c0.84-0.42,0.77-2.15-0.84-1.51c-1.62,0.63-2.78,1.37-2.78,1.37
	s-1.3-1.02-1.76-1.48S7.86,25.84,8.74,27C9.62,28.17,10,28.52,10,28.52s0,0.77-0.04,1.06s-1.9-1.23-1.87-0.25
	c0.04,0.99,0.25,1.48,1.34,1.62c1.09,0.14,1.55,0.21,1.55,0.21s1.76,0.7,3.34,0.67s3.8-1.87,3.13-2.53
	c-0.67-0.67-2.29,0.7-3.73,0.67c-1.44-0.04-1.9-0.25-1.9-0.25L11.69,28.59z"/>
<path style="fill:#2B2A32;" d="M23.17,22.85c0,0,1.16-1.2,2.43-0.49c1.27,0.7,0.99,2.82-0.32,3.13c-1.23,0.3-2.15-0.56-2.15-0.56
	s-2.57,0.35-2.46-0.99C20.76,22.78,23.17,22.85,23.17,22.85z"/>
<path style="fill:#AE957F;" d="M28.52,13.95c0,0-4.65-0.31-7.6,1.67s-3.94,3.28-3.43,4.18s1.88,0.89,3.61,0.75
	c1.74-0.14,3.66-0.38,5.49-0.23c1.83,0.14,2.91,0.56,3.57,0.94c0.66,0.38,1.64,1.22,1.64,1.22s-1.92,2.62-3.43,4.97
	c-1.5,2.35-2.39,3.89-3.19,5.73c-0.58,1.34-1.36,3.24-1.36,3.24s-2.3-2.16-2.86-2.53c-0.56-0.38-2.58-1.5-2.58-1.5l-0.99,0.61
	c0,0-0.14,3.99,1.45,8.45s3.99,8.31,3.99,8.31s-0.47,7.09,3.33,13.7c2,3.49,6.38,5.87,6.38,5.87s-0.28,4.74,2.49,7.84
	c2.77,3.1,5.12,3.1,5.12,3.1s0.28,2.11,1.88,5.49c1.64,3.47,3.71,4.5,3.71,4.5s-0.56,3,0.38,7.98c0.85,4.49,3.38,6.8,3.38,6.8
	s0.33,12.06,0,12.81c-0.33,0.75-3.1,3.71-2.53,4.69c0.56,0.99,3.1,1.08,4.36,1.08s3.33-0.42,3.89-0.94c0.56-0.52,0.7-8.59,0.7-10.09
	c0-1.5,0.33-6.99,0.33-6.99s3.47-1.55,4.69-4.18c1.22-2.63,1.08-4.74,1.08-4.74s4.18,0.52,9.29-0.89
	c5.12-1.41,10.28-6.05,10.28-6.05s2.86,5.12,4.22,7.51s3.89,5.77,3.89,5.77s0.05,13.66-0.23,14.22c-0.28,0.56-3.66,4.5-2.96,5.26
	c0.7,0.75,2.44,0.84,4.36,0.8c1.92-0.05,3.89-0.14,4.27-1.27c0.38-1.13,0-3.61,0.09-5.49c0.09-1.88,0.42-12.06,0.42-12.06
	s5.48-3.06,7.98-9.43c2.07-5.28,2.02-10.79,2.02-10.79s1.55-5.07,1.83-6.95c0.28-1.88,0.84-5.58-1.36-11.87s-7.18-13.56-14.59-16.61
	c-7.41-3.05-14.88-3.24-21.3-3.19c-6.43,0.05-17.69,1.5-19.52,0.94c-1.83-0.56-5.4-5.77-6.76-11.22c-1.36-5.44-3-11.36-5.3-14.12
	s-4.41-3.66-4.41-3.66s-1.13,3.43-3.24,1.97c-1.68-1.16-1.78-2.55-1.92-3.48C28.94,15.08,28.52,13.95,28.52,13.95z"/>
<path style="fill:#F8F9FC;" d="M93.3,101.32c0.91,0.28,3.71-1.45,4.97-2.63c1.55-1.44,2.39-3.94,2.25-4.79
	c-0.14-0.84-2.21,1.69-2.82,0.8c-0.61-0.89,2.26-2.98,3.28-4.65c1.4-2.28,1.79-4.19,1.18-4.56s-2.86,2.68-3.53,1.65
	c-0.83-1.27,0.67-2.47,2.23-3.84c1.44-1.27,3.03-2.36,3.78-6.02s0.49-9.03-0.82-12.04c-1.31-3-5.33-9.31-12.83-13.68
	c-7.51-4.36-18.96-3.85-23.56-3.71c-4.6,0.14-15.96,2.16-17.83,1.22c-1.88-0.94-5.26-3-7.41-10.09c-2.16-7.09-2.06-10.77-4.32-14.5
	c-1.13-1.87-2.93-3.07-2.93-3.07s-2.51,4.53-4.15,7.06s-4.46,7.27-5.4,14.08c-0.94,6.8,0.39,12.75,0.96,15.23
	c1.18,5.16,5.8,8.19,5.8,8.19s0.84-3.34,1.08-4.36c0.35-1.5,1.13-3.38,2.16-2.72c1.03,0.66-1,8.93-0.26,12.93
	c0.94,5.09,5.04,5.23,5.04,5.23s0.38-2.58,1.31-3.75c0.94-1.17,1.41-1.22,1.78-0.75c0.38,0.47-0.82,4.28-0.19,8.12
	c0.92,5.56,4.61,8.47,4.89,9.08s-1.09,13.48,6.04,13.59c6.15,0.09,4.88-6.66,4.88-6.66s2.49-0.89,3-4.46s-0.52-7.67-1.03-9.01
	c-1.03-2.67,0.66-3.05,1.45-1.17c0.8,1.88,1.38,3.5,1.74,5.63c0.36,2.18-0.14,4.83,0.42,5.11c0.92,0.46,4.97,0.47,8.63-1.36
	s6.85-5.82,6.85-5.82s-2.35-5.91-1.92-11.73s2.25-9.24,3.1-8.54c0.84,0.7-0.38,5.35,0.52,10.89c0.89,5.54,2.16,10.75,5.73,16.66
	C90.95,98.79,92.22,101,93.3,101.32z"/>
</svg>
