<?xml version="1.0" encoding="utf-8"?>
<!-- Generator: Adobe Illustrator 24.1.2, SVG Export Plug-In . SVG Version: 6.00 Build 0)  -->
<svg version="1.1" id="Layer_2" xmlns="http://www.w3.org/2000/svg" xmlns:xlink="http://www.w3.org/1999/xlink" x="0px" y="0px"
	 viewBox="0 0 128 128" style="enable-background:new 0 0 128 128;" xml:space="preserve">
<path style="fill:#6D4A37;" d="M45.69,90.46l16.05,9.57c0,0,27.17,9.85,30.69,9.57c3.52-0.28,18.93-1.62,19.22-2.89
	c0.32-1.43-4.01-6.69-4.01-6.69s11.68-6.33,11.54-7.88c-0.21-2.39-4.5-4.5-4.5-4.5s8.22-11.33,7.81-12.39
	c-0.99-2.53-6.69-2.46-6.69-2.46s8.02-8.62,7.74-10.07c-0.56-2.89-11.54-3.94-11.54-3.94s5.7-5.49,4.72-7.53
	c-1.04-2.16-14.57-3.17-14.57-3.17s5.51-8.05,4.79-9.01c-1.97-2.6-18.86-1.27-18.86-1.27s2.32-7.25,1.06-7.88
	c-0.92-0.46-14.43,5.49-14.43,5.49s-0.14-6.76-2.25-6.34c-2.11,0.42-13.09,12.46-13.09,12.46s-5.28-7.81-6.26-7.81
	s-7.25,7.88-7.25,7.88s-3.66-8.45-5.49-8.45c-1.83,0-7.74,13.23-7.74,13.23s-6.41-7.18-7.39-6.62c-0.99,0.56-2.25,5.84-2.53,8.66
	c-0.28,2.82-0.77,6.97-0.77,6.97s-5.14-1.48-5.84-2.04c-0.7-0.56-3.31-2.53-4.29-1.76c-0.67,0.53,1.27,5.77,2.67,8.45
	c1.81,3.44,5.77,8.31,5.77,8.31L45.69,90.46z"/>
<path style="fill:#F7BB86;" d="M43.96,77.74L30.28,96.09c0,0-0.68,5.09-1.34,6.41c-0.66,1.31-6.29,6.78-3.85,8.56
	c2.44,1.78,8.31,1.22,10.23-1.31c2.14-2.82,4.69-8.17,4.69-8.17s6.38-2.25,8.17-4.97c1.78-2.72,2.35-5.26,2.35-6.48
	s0.38-4.5,0.28-5.91s-1.41-7.04-1.41-7.04L43.96,77.74z"/>
<path style="fill:#865B52;" d="M17.96,59.77c0,0,8.31-3.38,13.66-2.39s14.5,7.32,19.01,13.94s8.59,13.8,15.06,18.86
	c6.48,5.07,11.54,10,19.29,13.09c7.74,3.1,15.06,2.32,17.6,2.18s8.45,0.07,8.45-0.63c0-0.7-4.5-8.17-4.5-8.17s11.54-4.65,11.97-5.63
	s-5.21-5.91-5.21-5.91s8.45-10.28,8.17-10.98c-0.28-0.7-8.73-3.38-8.73-3.38s9.57-7.6,9.57-9.15c0-1.55-10.98-3.1-11.83-4.5
	c-0.84-1.41,5.49-5.49,5.49-6.48s-16.61-3.52-16.89-4.36c-0.28-0.84,6.9-6.9,6.48-7.88c-0.42-0.99-12.25-1.69-15.06-1.69
	c-2.82,0-6.05,0.7-6.76,0c-0.7-0.7,4.65-5.21,5.35-6.48c0.7-1.27-6.05,1.13-9.71,2.11c-3.66,0.99-7.04,3.38-7.88,2.39
	c-0.84-0.99,2.67-5.49,0.99-5.63c-1.69-0.14-7.18,4.08-8.87,5.91c-1.69,1.83-4.93,5.21-4.93,5.21s-3.66-5.26-4.08-4.79
	c-0.56,0.63-3.94,6.48-4.93,6.76c-0.99,0.28-7.04-7.74-7.74-7.74s-7.32,12.25-7.32,12.25s-6.48-5.35-7.46-5.77
	c-0.87-0.37-2.67,13.8-2.67,13.8s-4.5-0.42-6.48-1.13s-5.91-3.24-6.19-1.97s1.83,4.22,3.1,5.63S17.96,59.77,17.96,59.77z"/>
<path style="fill:#FED3B4;" d="M42.45,72.3c0,0-4.2-8.38-13.02-9.5s-13.44,8.09-15.88,9.31s-7.79,0.66-8.54,5.07
	s1.78,9.39,6.76,13.05c4.97,3.66,10.79,6.29,20.08,6.38c9.29,0.09,14.29-7.71,15.11-12.86c0.38-2.35,0.38-5.16,0.38-5.16
	s6.66-1.78,8.73-9.85c2.06-8.07-5.64-8.6-9.39-4.13C43.3,68.64,42.45,72.3,42.45,72.3z"/>
<path style="fill:#F6BA84;" d="M56.11,102.78c0,0-18.3,10.98-16.54,11.9c1.76,0.92,3.1,1.83,7.39,0c4.29-1.83,11.97-7.18,11.97-7.18
	s5.28,1.55,10.42,1.76s14.29,0.63,14.29,0.63l4.43-5.49l-27.38-6.26L56.11,102.78z"/>
<path style="fill:#FFD1B7;" d="M59.49,90.81c5.84,1.13,12.39,3.24,17.39,5.35c5,2.11,15.79,7.09,15.98,11.97
	c0.14,3.66-2.53,5.98-4.58,6.69c-2.34,0.81-10.14,1.9-13.09,0.35c-2.96-1.55-3.73-4.22,0-6.19c3.73-1.97,8.87-1.83,8.52-3.66
	c-0.35-1.83-7.39,0.28-13.44-0.28c-5.33-0.5-12.46-1.06-12.46-1.06s-4.61,4.21-7.46,6.76c-3.31,2.96-6.16,5.76-10.35,4.5
	c-3.52-1.06-4.79-3.24-3.31-4.65c1.48-1.41,3.45-2.89,4.01-3.59c0.56-0.7,1.41-2.6,1.41-2.6s-1.06-1.13-1.9-2.18
	c-0.84-1.06-1.2-1.9-1.2-1.9s5.28-2.89,7.25-4.86c1.97-1.97,3.8-5.42,3.8-5.7S53.87,89.73,59.49,90.81z"/>
<path style="fill:#000304;" d="M30.7,75.4c0.12,2.05,0.92,4.29,3.66,4.29c2.75,0,3.17-2.53,2.96-4.79s-1.34-4.22-3.45-4.15
	C31.75,70.82,30.56,73,30.7,75.4z"/>
<path style="fill:#F27CB6;" d="M45.2,74.34c1.23,1.81,3.8,0.56,5.42-1.27s2.47-3.88,1.2-5.28c-1.48-1.62-3.94,0.14-5.07,1.41
	C45.62,70.47,44.14,72.79,45.2,74.34z"/>
<path style="fill:#4B4C4D;" d="M10.5,82.15c0,0,2.96-2.67,3.1-4.08c0.14-1.41-1.41-2.39-4.08-3.1c-2.67-0.7-4.58-0.99-4.86,1.97
	c-0.28,2.96,1.76,4.08,1.76,4.08s-0.49,0.84-0.84,1.06s-0.5,0.95-0.35,1.27c0.49,1.06,1.2,0.63,1.62,0.49
	c0.42-0.14,0.99-0.77,0.99-0.77s1.34,4.36,4.5,5.42c3.26,1.09,5.98-1.27,6.69-1.97c0.7-0.7,0.35-2.75-1.62-1.83
	c-1.68,0.78-1.48,1.69-3.94,1.27S10.5,82.15,10.5,82.15z"/>
<path style="fill:#F47DAD;" d="M27.06,106.98c0.76,0.53,0.05,2.3-0.38,2.67c-0.42,0.38-1.45,1.78-2.53,1.03
	c-1.08-0.75-0.28-2.49,0.38-3.1S26.12,106.32,27.06,106.98z"/>
<path style="fill:#F47DAD;" d="M40.62,110.08c0.94,0.69,0.47,2.16-0.42,2.86c-0.89,0.7-2.45,1.94-3.43,0.89
	c-1.13-1.22,0.94-2.91,1.41-3.28C38.65,110.17,39.73,109.42,40.62,110.08z"/>
<path style="fill:#F47DAD;" d="M44.43,111.72c0.86,0.74,0.29,1.82-0.52,2.63c-0.89,0.89-2.39,1.69-3.28,0.94
	c-0.89-0.75,0.66-2.44,1.27-2.91S43.44,110.87,44.43,111.72z"/>
<path style="fill:#F47DAD;" d="M74.69,111.15c-0.71,0.55-2.11,1.97-0.99,3c1.13,1.03,2.82-0.42,3.33-0.99
	c0.52-0.56,1.41-1.6,0.56-2.53C76.76,109.7,75.54,110.5,74.69,111.15z"/>
<path style="fill:#F47DAD;" d="M77.13,115.61c0.73,0.82,2.11,0.05,3-0.84c0.42-0.42,1.22-1.64,0.33-2.44
	c-0.59-0.53-1.88-0.14-2.86,0.84S76.43,114.82,77.13,115.61z"/>
<path style="fill:#9D6C5B;" d="M37.03,50.34c-1.48,3.52,2.25,5.07,3.73,2.04c1.48-3.03,2.89-6.34,3.66-9.15
	c0.63-2.28-1.06-3.17-2.53-0.84C40.41,44.71,38.08,47.84,37.03,50.34z"/>
<path style="fill:#C5886F;" d="M56.81,47.52c-1.93,1.6-6.51,6.85-7.88,8.73c-2.32,3.17,1.69,5.84,3.73,3.03
	c2.04-2.82,5.28-8.31,6.34-9.92C60.05,47.73,58.5,46.11,56.81,47.52z"/>
<path style="fill:#6F4B3B;" d="M60.33,42.45c-1.33,1.27,0.14,4.08,2.6,2.25c2.46-1.83,3.8-2.96,5.07-4.29
	c1.27-1.34,0.35-2.82-1.62-1.9S61.81,41.05,60.33,42.45z"/>
<path style="fill:#9D6C5B;" d="M64.56,48.16c-2.96,2.38,0.42,5.91,3.03,3.8c2.6-2.11,7.46-6.83,9.29-8.73s0.71-4.01-1.97-2.25
	C72.65,42.45,67.44,45.83,64.56,48.16z"/>
<path style="fill:#C5886F;" d="M62.23,63.08c-3.03,2.39-0.09,6.15,3.31,3.31c3.45-2.89,8.31-7.04,10.56-9.36
	c1.98-2.04,0.07-3.94-2.53-2.11C71.29,56.51,65.99,60.11,62.23,63.08z"/>
<path style="fill:#9D6C5B;" d="M84.83,55.19c-3.66,2.04-1.2,5.21,1.62,3.66c2.21-1.21,9.08-5.7,10.07-6.62s0.39-2.56-1.27-1.97
	C93.28,50.97,87.15,53.9,84.83,55.19z"/>
<path style="fill:#6F4B3B;" d="M81.73,45.9c-2.89,2.18-0.21,5.56,2.32,3.66c1.93-1.44,7.32-7.18,8.17-8.17s0.07-2.39-1.48-1.34
	C89.4,40.97,84.23,44.02,81.73,45.9z"/>
<path style="fill:#C5886F;" d="M93.49,59.49c-2.36,1.32-21.07,11.58-23.65,13.3c-3.38,2.25-0.56,6.97,2.75,4.79
	c2.71-1.78,21.21-14.46,22.67-15.42C97.71,60.54,96.37,57.87,93.49,59.49z"/>
<path style="fill:#C5886F;" d="M83.35,79.06c-3.66,1.55-1.76,5.42,1.41,4.22c3.17-1.2,12.88-5.21,15.13-6.55
	c2.25-1.34,1.2-3.73-0.84-3.03C97.01,74.41,87.26,77.4,83.35,79.06z"/>
<path style="fill:#6F4B3B;" d="M100.39,63.99c-2.53,1.48-0.63,4.01,1.62,3.03c1.68-0.73,4.5-2.18,5.49-2.89
	c0.99-0.7,0.63-2.75-1.41-2.11C104.68,62.46,102.32,62.87,100.39,63.99z"/>
<path style="fill:#C5886F;" d="M92.15,87.29c-2.8,0.54-2.09,4.84,0.84,4.36c3.94-0.63,11.17-2.98,12.53-3.31
	c1.76-0.42,2.18-3.31-1.34-2.82C101.02,85.98,95.46,86.66,92.15,87.29z"/>
<path style="fill:#C5886F;" d="M98.06,95.67c-2.82-0.14-2.96,3.73,0.28,3.73c2.18,0,3.66-0.14,5.14-0.42
	c1.82-0.35,1.9-2.53-0.35-2.82C101.66,95.98,99.83,95.76,98.06,95.67z"/>
<path style="fill:#9D6C5B;" d="M105.45,76.95c-2.04,0.84-1.06,3.66,1.13,2.96c1.79-0.58,3.59-1.41,5.14-2.25
	c1.29-0.7,0.7-2.67-0.92-2.32C109.18,75.68,106.94,76.33,105.45,76.95z"/>
</svg>
