<?xml version="1.0" encoding="utf-8"?>
<!-- Generator: Adobe Illustrator 24.1.2, SVG Export Plug-In . SVG Version: 6.00 Build 0)  -->
<svg version="1.1" id="Layer_3" xmlns="http://www.w3.org/2000/svg" xmlns:xlink="http://www.w3.org/1999/xlink" x="0px" y="0px"
	 viewBox="0 0 128 128" style="enable-background:new 0 0 128 128;" xml:space="preserve">
<path style="fill:#B0B1B0;" d="M56.44,99.99l5.73,1.41c0,0,2.35,5.63,2.82,7.51c0.47,1.88,2.44,5.91,1.69,7.23
	c-0.75,1.31-3.94,2.72-5.54,3.1c-1.6,0.38-4.41,1.22-4.69,0.09c-0.28-1.13,0.66-2.06,2.44-2.82s3.47-1.22,3.47-2.35
	s-1.41-4.41-2.53-6.48c-0.6-1.11-2.25-3.85-2.82-4.88S56.44,99.99,56.44,99.99z"/>
<path style="fill:#B0B1B0;" d="M68.83,101.11c0,0,0.75,1.6,0.47,2.06c-0.28,0.47-3.57,0.56-3.75,2.25
	c-0.19,1.69,0.94,5.35,1.13,6.19c0.19,0.84,0.83,2.18,1.69,2.06c1.41-0.19,1.41-1.78,1.31-3.47c-0.06-1.04,0.47-1.78,1.22-2.16
	c0.75-0.38,2.72-1.03,2.82-1.97c0.09-0.94-0.38-5.73-0.38-5.73L68.83,101.11z"/>
<radialGradient id="SVGID_1_" cx="62.9362" cy="80.7001" r="72.6782" gradientUnits="userSpaceOnUse">
	<stop  offset="0.2206" style="stop-color:#7CD086"/>
	<stop  offset="0.3483" style="stop-color:#78CF84"/>
	<stop  offset="0.4719" style="stop-color:#6CCB7D"/>
	<stop  offset="0.5939" style="stop-color:#59C572"/>
	<stop  offset="0.7148" style="stop-color:#3EBC62"/>
	<stop  offset="0.8339" style="stop-color:#1BB14E"/>
	<stop  offset="0.9082" style="stop-color:#01A93F"/>
</radialGradient>
<path style="fill:url(#SVGID_1_);" d="M62.87,87.36c0,0-17.74,7.32-21.68,8.73s-19.43,4.65-28.44-8.87s-3.38-37.45,6.62-46.6
	s26.33-29,61.52-20.84s46.18,51.95,39,66.59s-15.2,16.75-26.89,14.36S62.87,87.36,62.87,87.36z"/>
<path style="fill:#B6D115;" d="M76.66,90.88c0,0,0.28-5.21,2.53-13.37s8.31-24.21,3.24-29.56c-5.07-5.35-13.37-4.93-18.44-5.07
	c-5.07-0.14-13.51,0.7-13.94,11.26c-0.42,10.56,2.25,29.99,2.25,29.99L76.66,90.88z"/>
<path style="fill:#06AC48;" d="M73.64,30.82c0.77,0.23,3.01-1.97,4.58-3.85c2.46-2.96,3.26-4.46,3.31-6.34
	c0.09-3.38-2.14-5.7-5.98-5.98c-3.85-0.28-7.04,1.97-6.76,5.35s1.06,4.15,1.97,6.12C71.33,27.38,73,30.63,73.64,30.82z"/>
<path style="fill:#06AC48;" d="M90.6,38.32c0.57,0.33,4.34-0.33,6.12-0.8s3.88-0.69,5.56-3.73c1.74-3.14,0.56-5.98-1.5-7.53
	c-2.71-2.03-6.9-1.74-8.68,0.7s-1.57,4.72-1.64,5.84C90.32,35.16,90.32,38.16,90.6,38.32z"/>
<path style="fill:#06AC48;" d="M77.79,44c0.56,0.56,6.26-1.34,8.21-3.89c1.75-2.3,2.82-5.91-0.84-8.45s-8.77-0.56-8.82,5.63
	C76.31,40.2,77.23,43.44,77.79,44z"/>
<path style="fill:#06AC48;" d="M54.66,31.19c0.72-0.36,3.5-6.01,3.5-8.73s-1.06-7.98-7.44-6.85s-5.18,6.72-4.04,8.96
	C48.11,27.37,53.9,31.57,54.66,31.19z"/>
<path style="fill:#06AC48;" d="M37.39,38.89c0.58-0.35,0.47-8.35-1.22-10.7c-1.69-2.35-5.63-4.04-9.1-0.94s-2.72,7.13,1.5,9.67
	S36.92,39.17,37.39,38.89z"/>
<path style="fill:#06AC48;" d="M43.16,51.38c0.35-1.07-3.66-5.62-5.8-7.43c-2.1-1.78-8.09-3.92-9.77,2.16
	c-1.51,5.48,4.19,6.88,6.46,6.9C36.33,53.04,42.84,52.37,43.16,51.38z"/>
<path style="fill:#06AC48;" d="M25.35,52.1c0.33-0.49-2.16-8.07-4.97-10.04c-2.82-1.97-6.38-0.94-7.79,2.53
	c-1.14,2.81-0.01,8.52,5.07,8.26C21.31,52.66,25.07,52.52,25.35,52.1z"/>
<path style="fill:#06AC48;" d="M52.5,44.43c0.75-0.56,0.21-8.17-1.38-10.7s-5.28-4.69-9.13-1.5c-2.95,2.44-2.06,7.32,1.78,9.76
	C47.62,44.43,51.75,44.99,52.5,44.43z"/>
<path style="fill:#06AC48;" d="M63.95,40.86c0,0,5.26-3.94,5.49-7.74c0.15-2.44-0.89-6.24-5.49-6.34c-3.57-0.07-6.38,2.72-5.91,6.19
	C58.5,36.45,62.73,40.86,63.95,40.86z"/>
<path style="fill:#06AC48;" d="M48.55,60.66c0,0-2.44-3.19-5.54-4.55c-2.39-1.06-8.35-1.17-8.45,4.74
	c-0.09,5.91,4.88,6.05,7.88,5.07C45.76,64.84,48.55,60.66,48.55,60.66z"/>
<path style="fill:#06AC48;" d="M44.33,69.3c-0.21-0.6-3.64-1.22-7.98-1.13c-1.97,0.04-6.56,2.25-4.32,7.23
	c1.97,4.36,6.68,3.22,8.52,1.06C42.52,74.13,44.5,69.77,44.33,69.3z"/>
<path style="fill:#06AC48;" d="M33.91,63.29c0-0.76-3.78-4.22-7.41-6.01c-3.52-1.73-7.53,1.31-7.6,5.07
	c-0.09,5.16,3.94,8.07,8.45,5.91C31.51,66.27,33.91,63.76,33.91,63.29z"/>
<path style="fill:#06AC48;" d="M18.15,64.23c0-0.66-4.79-5.44-8.26-5.63s-5.73,3-5.54,6.1c0.13,2.07,2.58,6.05,6.43,5.21
	C14.51,69.09,18.15,65.17,18.15,64.23z"/>
<path style="fill:#06AC48;" d="M31.05,75.82c0,0-4.58-3.59-9.71-1.95c-2.76,0.88-2.75,4.41-1.88,6.38c0.83,1.89,3.33,4.6,6.24,2.82
	S31.05,75.82,31.05,75.82z"/>
<path style="fill:#06AC48;" d="M18.8,80.46c0,0-6.19-3.38-9.1-2.35S6.79,83,7.63,85.16s2.82,4.41,5.91,3.19S18.8,80.46,18.8,80.46z"
	/>
<path style="fill:#06AC48;" d="M29.88,89.38c0,0-6.97-1.83-10.23,0.28c-3.19,2.06-2.25,5.54-1.13,7.13c1.13,1.6,4.04,3.44,7.04,1.06
	C27.84,96.04,30.07,89.85,29.88,89.38z"/>
<path style="fill:#06AC48;" d="M42.41,82.51c0,0-7.18-0.7-9.24,1.27c-2.06,1.97-2.1,5.5-0.8,7.18c1.6,2.06,6.1,2.72,8.26,0.19
	C42.78,88.61,42.41,82.51,42.41,82.51z"/>
<path style="fill:#06AC48;" d="M85.81,51.22c0,0,2.82-8.09,5.78-9.66c2.15-1.14,6.34-1.87,8.55,1.88c2.31,3.9-0.41,7.25-2.75,8.14
	C93.6,53,86.21,51.76,85.81,51.22z"/>
<path style="fill:#06AC48;" d="M93.46,59.49c-0.16-0.54,5.91-6.1,9.39-6.29c3.47-0.19,6.19,2.35,6.19,5.35c0,3-2.16,5.54-5.54,5.35
	C100.13,63.71,93.75,60.43,93.46,59.49z"/>
<path style="fill:#06AC48;" d="M83.75,63.95c0,0,7.04-1.6,9.76-0.56c2.72,1.03,3.75,4.88,2.25,6.95c-1.5,2.06-5.82,2.63-7.79,0.66
	S83.56,65.07,83.75,63.95z"/>
<path style="fill:#06AC48;" d="M81.78,73.52c0.41-0.34,6.66,2.06,8.26,3.19c1.6,1.13,2.91,4.79,0.28,6.76
	c-2.63,1.97-5.58-0.23-6.48-1.88C83.14,80.29,81.22,73.99,81.78,73.52z"/>
<path style="fill:none;stroke:#06AC48;stroke-miterlimit:10;" d="M29.03,37.2"/>
<path style="fill:#06AC48;" d="M96.66,71.06c0.16-0.6,4.15-1.37,6.37-1.82c2.97-0.61,9.66-0.61,8.39,6.18
	c-1.06,5.64-7.11,4.26-8.71,2.94C101.12,77.04,96.45,71.87,96.66,71.06z"/>
<path style="fill:#06AC48;" d="M107.6,66.29c-0.36-0.69,5.13-5.1,6.09-5.78c2.4-1.72,7.69-3.23,8.81,2.41s-2.82,7.35-4.83,7.48
	S108.14,67.34,107.6,66.29z"/>
<path style="fill:#06AC48;" d="M93.09,81.64c0,0,7.03-0.66,9.19,0.94c2.16,1.6,3.31,5,1.32,7.32c-1.21,1.41-5.4,2.67-7.7-0.28
	C94.36,87.62,92.9,82.3,93.09,81.64z"/>
<path style="fill:#06AC48;" d="M107.36,81.47c0,0,6.52-1.97,9.99-0.65c3.47,1.32,4.56,3.29,3.52,6.84s-5.53,3.9-7.79,2.33
	C110.31,88.06,106.8,82.38,107.36,81.47z"/>
<path style="fill:#06AC48;" d="M102.76,91.96c0.76-0.65,6.95,0.47,9.01,2.63c2.06,2.16,1.29,4.74-0.28,6.19
	c-1.87,1.74-5.73,2.35-7.6-0.09C102.01,98.25,102.1,92.53,102.76,91.96z"/>
<path style="fill:#06AC48;" d="M83.8,88.58c0.61-0.52,4.32,1.6,6.29,2.63c1.97,1.03,7.62,5.96,2.83,9.52
	c-4.28,3.19-7.6-2.14-8.17-4.01C84.2,94.85,83.3,89.02,83.8,88.58z"/>
<path style="fill:#06AC48;" d="M101.75,49.64c-0.15-0.45,3.14-7.18,7.23-8.73c2.99-1.13,6.1,0.44,7.03,3.17
	c0.94,2.72,0.84,6.59-2.53,7.53S101.93,50.2,101.75,49.64z"/>
<path style="fill:#E9DCA7;" d="M53.29,51.32c0,0.8,0.52,0.8,1.83,0.89c1.36,0.09,2.49,0,2.49-0.84c0-1.18-0.38-1.83-2.16-1.83
	C53.67,49.54,53.29,50.57,53.29,51.32z"/>
<path style="fill:#E9DCA7;" d="M73.05,49.96c-1.92-0.52-2.72,0.47-2.82,1.31c-0.09,0.84,1.03,0.89,2.02,1.13s2.3,1.08,2.63-0.05
	C75.21,51.23,74.74,50.42,73.05,49.96z"/>
<path style="fill:#E9DCA7;" d="M67.37,59.11c0.04,0.95,1.03,1.03,2.25,1.13s2.39,0.23,2.72-0.61c0.33-0.84-0.52-2.3-2.35-2.44
	C68.35,57.06,67.33,58.08,67.37,59.11z"/>
<path style="fill:#E9DCA7;" d="M77.98,53.79c-0.17,0.81,0.66,1.36,1.36,1.74c0.7,0.38,1.5,0.75,1.97,0.19
	c0.47-0.56,0.75-1.55-0.8-2.49C78.96,52.29,78.12,53.13,77.98,53.79z"/>
<path style="fill:#E9DCA7;" d="M76.95,62.05c-0.33,0.93,0.56,1.45,1.13,1.97c0.56,0.52,1.78,0.84,2.35,0.28s0.23-2.02-0.75-2.63
	C78.68,61.06,77.27,61.11,76.95,62.05z"/>
<path style="fill:#E9DCA7;" d="M69.34,66.79c0,0.97,1.5,1.08,2.25,1.6c0.75,0.52,1.97,1.55,2.53,0.66c0.71-1.12,0.19-2.25-1.31-3.1
	C71.08,64.96,69.34,65.66,69.34,66.79z"/>
<path style="fill:#E9DCA7;" d="M67.02,72.65c0.28-0.99,1.78-0.89,2.82-0.14s1.5,1.97,1.08,2.67c-0.42,0.7-2.02,0.33-2.72-0.38
	C67.49,74.11,66.8,73.41,67.02,72.65z"/>
<path style="fill:#B6D016;" d="M55.88,21.2c0,1.92-1.22,3.89-4.04,3.8c-2.49-0.08-3.61-1.7-3.61-3.61s1.75-3.75,3.8-3.75
	S55.88,19.28,55.88,21.2z"/>
<path style="fill:#B6D016;" d="M78.92,21.17c-0.57,1.83-2.36,3.58-5.02,2.66c-2.35-0.82-2.91-2.92-2.33-4.76
	c0.57-1.83,2.79-3.06,4.75-2.45C78.26,17.23,79.49,19.34,78.92,21.17z"/>
<path style="fill:#B6D016;" d="M34.48,30.47c0,1.91-1.17,3.87-3.86,3.78c-2.38-0.08-3.46-1.68-3.46-3.59c0-1.91,1.68-3.73,3.64-3.73
	S34.48,28.56,34.48,30.47z"/>
<path style="fill:#B6D016;" d="M36.18,47.4c-0.24,1.73-1.57,3.36-4.08,2.93c-2.21-0.38-3.02-1.97-2.78-3.7
	c0.24-1.73,2.03-3.17,3.86-2.92C35.01,43.96,36.42,45.67,36.18,47.4z"/>
<path style="fill:#B6D016;" d="M20.35,46.62c0,1.75-1.1,3.55-3.64,3.46c-2.24-0.08-3.26-1.54-3.26-3.29s1.58-3.42,3.43-3.42
	S20.35,44.87,20.35,46.62z"/>
<path style="fill:#B6D016;" d="M12.42,63.96c0,1.75-1.1,3.55-3.64,3.46c-2.24-0.08-3.26-1.54-3.26-3.29c0-1.75,1.58-3.42,3.43-3.42
	S12.42,62.21,12.42,63.96z"/>
<path style="fill:#B6D016;" d="M27.67,62.23c0,1.93-1.18,3.92-3.91,3.82c-2.41-0.08-3.5-1.71-3.5-3.63c0-1.93,1.7-3.78,3.68-3.78
	S27.67,60.3,27.67,62.23z"/>
<path style="fill:#0847B0;" d="M25.28,62.35c0,1.49-0.98,2.89-2.82,2.82c-1.62-0.06-2.67-1.17-2.58-2.96
	c0.11-2.06,1.53-2.82,2.86-2.82C24.08,59.39,25.28,60.86,25.28,62.35z"/>
<path style="fill:#B6D016;" d="M42.97,60.73c0,1.9-1.18,3.87-3.91,3.78c-2.41-0.08-3.5-1.68-3.5-3.59s1.7-3.73,3.68-3.73
	S42.97,58.83,42.97,60.73z"/>
<path style="fill:#B6D016;" d="M39.59,72.92c0,1.7-1.08,3.45-3.57,3.36c-2.2-0.07-3.19-1.5-3.19-3.2c0-1.7,1.55-3.32,3.36-3.32
	S39.59,71.22,39.59,72.92z"/>
<path style="fill:#B6D016;" d="M27.02,77.78c0,1.64-0.97,3.32-3.19,3.24c-1.97-0.07-2.86-1.45-2.86-3.08s1.39-3.2,3.01-3.2
	S27.02,76.15,27.02,77.78z"/>
<path style="fill:#B6D016;" d="M24.22,91.1c1.29,1,2.08,2.84,0.6,4.51c-1.09,1.23-2.9,1.37-4.19,0.37c-1.29-1-1.68-3.06-0.69-4.34
	C20.94,90.36,22.92,90.1,24.22,91.1z"/>
<path style="fill:#B6D016;" d="M13.64,80.37c1.83,0.94,2.14,3.17,0.66,4.83c-1.09,1.23-3.17,1.55-4.46,0.55
	c-1.29-1-1.69-3.45-0.7-4.73C10.13,79.75,12.19,79.62,13.64,80.37z"/>
<path style="fill:#B6D016;" d="M38.37,89.96c-1.31,0.98-3.24,1.22-4.51-0.61c-1.12-1.62-0.56-3.16,0.75-4.14
	c1.31-0.98,3.39-0.81,4.37,0.49C39.95,86.99,39.68,88.98,38.37,89.96z"/>
<path style="fill:#B6D016;" d="M49.77,35.72c0,1.91-1.17,3.87-3.86,3.78c-2.38-0.08-3.46-1.68-3.46-3.59c0-1.91,1.68-3.73,3.64-3.73
	C48.05,32.18,49.77,33.82,49.77,35.72z"/>
<path style="fill:#B6D016;" d="M67.09,31.87c0,1.88-1.22,3.54-3.57,3.36c-2.31-0.18-3.33-1.48-3.33-3.36s1.54-3.4,3.45-3.4
	C65.55,28.47,67.09,29.99,67.09,31.87z"/>
<path style="fill:#B6D016;" d="M84.88,36.14c0,1.7-1.09,3.2-3.18,3.03c-2.06-0.17-2.97-1.33-2.97-3.03c0-1.7,1.38-3.07,3.07-3.07
	C83.5,33.07,84.88,34.44,84.88,36.14z"/>
<path style="fill:#B6D016;" d="M97.78,46c0.11,1.82-0.93,3.5-3.14,3.45c-2.17-0.05-3.21-1.24-3.32-3.06
	c-0.11-1.82,1.25-3.38,3.03-3.49S97.67,44.18,97.78,46z"/>
<path style="fill:#B6D016;" d="M100.69,30.79c0,1.95-1.24,3.68-3.61,3.49c-2.34-0.19-3.38-1.53-3.38-3.49s1.57-3.54,3.5-3.54
	C99.12,27.25,100.69,28.83,100.69,30.79z"/>
<path style="fill:#B6D016;" d="M113.81,46.25c0,1.65-0.98,3.55-3,3.39c-1.99-0.16-2.96-1.73-2.96-3.39s1.33-2.99,2.98-2.99
	C112.47,43.25,113.81,44.59,113.81,46.25z"/>
<path style="fill:#B6D016;" d="M94.54,67.64c0,1.65-1.02,3.12-2.98,2.95c-1.93-0.16-2.79-1.3-2.79-2.95s1.29-2.99,2.89-2.99
	S94.54,65.99,94.54,67.64z"/>
<path style="fill:#B6D016;" d="M108.17,74c0,1.65-1.02,3.12-2.98,2.95c-1.93-0.16-2.79-1.3-2.79-2.95s1.29-2.99,2.89-2.99
	S108.17,72.35,108.17,74z"/>
<path style="fill:#B6D016;" d="M89.66,79.75c0,1.34-0.85,2.53-2.5,2.4c-1.62-0.13-2.33-1.05-2.33-2.4s1.08-2.43,2.42-2.43
	S89.66,78.41,89.66,79.75z"/>
<path style="fill:#B6D016;" d="M102.43,86.63c0,1.59-1.04,3-3.03,2.84c-1.96-0.16-2.83-1.25-2.83-2.84s1.31-2.88,2.93-2.88
	S102.43,85.04,102.43,86.63z"/>
<path style="fill:#B6D016;" d="M92.9,96.81c0,1.59-1.04,3-3.03,2.84c-1.96-0.16-2.83-1.25-2.83-2.84s1.31-2.88,2.93-2.88
	C91.59,93.93,92.9,95.22,92.9,96.81z"/>
<path style="fill:#B6D016;" d="M110.83,97.28c0,1.74-1.14,3.29-3.32,3.12c-2.15-0.17-3.11-1.37-3.11-3.12
	c0-1.74,1.44-3.16,3.21-3.16C109.39,94.12,110.83,95.53,110.83,97.28z"/>
<path style="fill:#B6D016;" d="M118.66,84.98c0,1.72-1.13,3.24-3.3,3.07c-2.14-0.17-3.08-1.35-3.08-3.07c0-1.72,1.43-3.11,3.19-3.11
	C117.23,81.87,118.66,83.27,118.66,84.98z"/>
<path style="fill:#B6D016;" d="M107.17,58.75c0,1.98-1.3,3.84-3.71,3.64c-2.37-0.19-3.66-1.82-3.66-3.8s1.87-3.43,3.82-3.43
	C105.58,55.17,107.17,56.78,107.17,58.75z"/>
<path style="fill:#B6D016;" d="M120.68,64.53c0,1.91-1.24,3.72-3.54,3.53c-2.27-0.19-3.5-1.76-3.5-3.68s1.78-3.31,3.65-3.31
	C119.17,61.06,120.68,62.61,120.68,64.53z"/>
<path style="fill:#0847B0;" d="M40.5,61.66c-0.23,1.51-1.32,2.82-3.13,2.54c-1.6-0.25-2.52-1.5-2.21-3.31
	c0.35-2.09,1.86-2.69,3.18-2.53C39.66,58.51,40.76,59.91,40.5,61.66z"/>
<path style="fill:#0847B0;" d="M10.61,64.28c-0.23,1.51-1.32,2.82-3.13,2.54c-1.6-0.25-2.52-1.5-2.21-3.31
	c0.35-2.09,1.86-2.69,3.18-2.53S10.87,62.54,10.61,64.28z"/>
<path style="fill:#0847B0;" d="M34.38,47.2c-0.43,1.46-1.69,2.62-3.45,2.09c-1.55-0.47-2.29-1.83-1.74-3.58
	c0.63-2.02,2.2-2.41,3.49-2.08C33.97,43.96,34.88,45.5,34.38,47.2z"/>
<path style="fill:#0847B0;" d="M18.06,47.27c-0.71,1.35-2.11,2.27-3.55,1.48c-1.28-0.7-1.63-2.15-0.75-3.75
	c1.02-1.86,2.52-1.99,3.59-1.46C18.43,44.06,18.88,45.7,18.06,47.27z"/>
<path style="fill:#0847B0;" d="M31.4,31.37c-1.18,0.98-2.81,1.3-3.85,0.02c-0.92-1.14-0.69-2.6,0.73-3.76
	c1.65-1.33,3.08-0.89,3.88,0.01C32.96,28.54,32.76,30.23,31.4,31.37z"/>
<path style="fill:#0847B0;" d="M46.53,36.49c-1.05,0.87-2.56,1.11-3.57-0.14c-0.9-1.1-0.75-2.47,0.53-3.49
	c1.48-1.18,2.82-0.7,3.6,0.17C47.86,33.91,47.74,35.48,46.53,36.49z"/>
<path style="fill:#0847B0;" d="M52.15,22.66c-1.54,0.27-3.16-0.34-3.45-2.11c-0.25-1.57,0.68-2.82,2.53-3.11
	c2.14-0.33,3.2,0.88,3.46,2.16C54.95,20.88,53.93,22.35,52.15,22.66z"/>
<path style="fill:#0847B0;" d="M75.03,21.7c-1.62-0.22-3.05-1.39-2.76-3.35c0.25-1.73,1.59-2.74,3.52-2.43
	c2.24,0.35,2.91,1.97,2.76,3.4C78.4,20.75,76.9,21.96,75.03,21.7z"/>
<path style="fill:#0847B0;" d="M96.8,31.76c-1.55-0.87-2.56-2.53-1.57-4.25c0.88-1.52,2.57-1.92,4.41-0.85
	c2.13,1.24,2.21,3.02,1.55,4.29C100.52,32.23,98.59,32.76,96.8,31.76z"/>
<path style="fill:#0847B0;" d="M81.54,36.74c-1.21-0.68-2.01-1.96-1.26-3.26c0.67-1.15,1.98-1.44,3.42-0.61
	c1.66,0.97,1.74,2.32,1.24,3.29C84.43,37.14,82.94,37.52,81.54,36.74z"/>
<path style="fill:#0847B0;" d="M93.57,46.44c-0.45-1.31-0.15-2.82,1.37-3.33c1.34-0.45,2.58,0.19,3.09,1.77
	c0.6,1.83-0.32,2.93-1.41,3.35C95.53,48.65,94.1,47.96,93.57,46.44z"/>
<path style="fill:#0847B0;" d="M102.53,58.29c0.01-1.48,0.87-2.89,2.65-2.87c1.57,0.02,2.85,1.18,2.81,2.95
	c-0.05,2.05-0.88,3.26-2.91,3.05C103.79,61.28,102.52,60,102.53,58.29z"/>
<path style="fill:#0847B0;" d="M91.54,67.33c0.67-0.97,1.92-1.5,3.13-0.65c1.07,0.75,1.37,2.15,0.6,3.27
	c-0.93,1.36-2.19,1.41-3.39,0.64C90.97,70.02,90.76,68.46,91.54,67.33z"/>
<path style="fill:#0847B0;" d="M87.19,79.31c0.95-0.71,2.29-0.82,3.18,0.37c0.78,1.05,0.63,2.47-0.46,3.3
	c-1.31,1-2.52,0.65-3.42-0.46C85.8,81.68,86.09,80.13,87.19,79.31z"/>
<path style="fill:#0847B0;" d="M100.28,86.11c0.95-0.71,2.29-0.82,3.18,0.37c0.78,1.05,0.63,2.47-0.46,3.3
	c-1.31,1-2.52,0.65-3.42-0.46C98.89,88.48,99.18,86.93,100.28,86.11z"/>
<path style="fill:#0847B0;" d="M105.12,73.69c0.41-1.22,1.48-2.15,2.89-1.66c1.24,0.43,1.88,1.77,1.42,3.17
	c-0.56,1.69-1.77,2.14-3.14,1.74C105.25,76.64,104.65,75.1,105.12,73.69z"/>
<path style="fill:#0847B0;" d="M117.5,64.64c0.02-1.28,0.76-2.5,2.24-2.46c1.31,0.03,2.33,1.11,2.32,2.59
	c-0.01,1.78-1.03,2.58-2.46,2.61C118.52,67.41,117.48,66.13,117.5,64.64z"/>
<path style="fill:#0847B0;" d="M115.95,84.96c0.59-1.14,1.8-1.9,3.11-1.2c1.16,0.62,1.59,2.04,0.91,3.35
	c-0.81,1.58-2.08,1.84-3.37,1.23C115.62,87.89,115.26,86.28,115.95,84.96z"/>
<path style="fill:#0847B0;" d="M90.5,96.73c1-0.55,2.25-0.55,2.84,0.55c0.52,0.97,0.11,2.19-1.04,2.84
	c-1.38,0.78-2.42,0.38-3.04-0.64C88.78,98.7,89.34,97.37,90.5,96.73z"/>
<path style="fill:#0847B0;" d="M108.47,97.72c1-0.55,2.25-0.55,2.84,0.55c0.52,0.97,0.11,2.19-1.04,2.84
	c-1.38,0.78-2.42,0.38-3.04-0.64C106.76,99.68,107.31,98.36,108.47,97.72z"/>
<path style="fill:#0847B0;" d="M109.79,46.36c-0.39-1.42,0.1-3.03,1.9-3.52c1.59-0.43,2.94,0.3,3.38,2.02
	c0.51,1.99-0.65,3.13-1.94,3.53C111.83,48.8,110.24,48.01,109.79,46.36z"/>
<path style="fill:#0847B0;" d="M24.65,78.21c0.23,1.39-0.43,2.84-2.06,3.04c-1.44,0.17-2.54-0.71-2.73-2.39
	c-0.22-1.94,0.92-2.85,2.1-3.04C23.14,75.62,24.42,76.82,24.65,78.21z"/>
<path style="fill:#0847B0;" d="M37.43,73.05c0.24,1.44-0.46,2.95-2.18,3.15c-1.52,0.18-2.68-0.73-2.87-2.47
	c-0.22-2.01,0.98-2.96,2.22-3.16C35.84,70.37,37.2,71.61,37.43,73.05z"/>
<path style="fill:#0847B0;" d="M12.98,83.25c0.32,1.42-0.3,2.97-2.04,3.29c-1.54,0.28-2.77-0.55-3.07-2.28
	c-0.34-2,0.83-3.02,2.09-3.3C11.21,80.68,12.66,81.82,12.98,83.25z"/>
<path style="fill:#0847B0;" d="M22.91,93.36c0.78,1.05,0.87,2.51-0.35,3.34c-1.08,0.73-2.35,0.46-3.22-0.84
	c-1.01-1.5-0.48-2.72,0.38-3.36S22.13,92.31,22.91,93.36z"/>
<path style="fill:#0847B0;" d="M36.66,87.37c0.75,1.01,0.82,2.44-0.4,3.27c-1.08,0.74-2.33,0.49-3.17-0.77
	c-0.97-1.46-0.43-2.65,0.43-3.3C34.39,85.93,35.91,86.35,36.66,87.37z"/>
<path style="fill:#E3EDFC;" d="M45.62,43.79c0.19,0.9,3.29,0.46,4.86,0.7c1.83,0.28,5.14,1.34,5.14,1.34l5.91,3.59
	c0,0,5.21-0.28,5-0.56c-0.21-0.28-1.55-8.09-1.55-8.09l-5.56-2.32l-4.22,1.83c0,0-2.36-0.49-4.5-0.07
	C48.55,40.62,45.2,41.82,45.62,43.79z"/>
<path style="fill:#010100;" d="M59,41.82c-1.02-0.18-1.62,0.92-0.84,2.75c0.77,1.83,3.41,1.58,4.29,0.67
	c0.88-0.92,0.83-2.09,0.39-2.29c-1.02-0.46-1.48,1.02-2.5,0.7C59.31,43.33,60.1,42.01,59,41.82z"/>
<path style="fill:#010100;" d="M63.4,38.86l0.07-7.04l1.65-0.11l0.11,5.37c0,0,0,0.72,0.09,0.76c0.17,0.07,0.61-0.53,0.61-0.53
	l3.52-4.2l1.21,1.03L67.39,38c0,0-0.47,0.5-0.4,0.63c0.09,0.19,1.08-0.04,1.72-0.14c1.36-0.21,2.71-0.39,2.71-0.39l0.14,1.53
	l-5.28,0.56L63.4,38.86z"/>
<path style="fill:#010100;" d="M73.09,32.81c0,1.15-0.8,1.95-1.94,1.95c-1.13,0-2.31-0.81-2.31-1.95c0-1.3,0.97-2.16,2.1-2.16
	C72.09,30.65,73.09,31.66,73.09,32.81z"/>
<path style="fill:#010100;" d="M66.38,29.84c0.42,1.07-0.03,2.11-1.08,2.53c-1.05,0.42-2.44,0.1-2.86-0.97
	c-0.48-1.21,0.11-2.37,1.16-2.79C64.65,28.2,65.96,28.78,66.38,29.84z"/>
<path style="fill:#010100;" d="M74.46,37.79c0.39,1,0.04,2.08-0.96,2.48c-1.01,0.4-2.41,0.01-2.8-0.99
	c-0.45-1.14,0.12-2.23,1.12-2.62C72.82,36.26,74.07,36.79,74.46,37.79z"/>
<linearGradient id="SVGID_2_" gradientUnits="userSpaceOnUse" x1="62.5204" y1="40.8023" x2="62.9165" y2="100.7997">
	<stop  offset="0.5251" style="stop-color:#004DAF"/>
	<stop  offset="0.7028" style="stop-color:#0054AF"/>
	<stop  offset="0.9617" style="stop-color:#0267B1"/>
	<stop  offset="1" style="stop-color:#026BB1"/>
</linearGradient>
<path style="fill:url(#SVGID_2_);" d="M65.14,38.48c2.76,1.43,5.05,3.27,3.6,9.66c-1.45,6.38-5.82,9.01-5.77,17.5
	c0.05,8.49,6.1,13.98,10.51,18.21c4.41,4.22,7.41,10.14,5.82,13.94c-1.28,3.06-7.56,6.34-18.63,4.41
	c-11.07-1.92-13.98-10.58-14.55-16.31s0.4-11.88,2.04-16.26c2.37-6.31,6.41-11.53,8.34-14.55c1.26-1.96,3.55-6.52,3.55-6.52
	s4.5-0.66,4.13-5.07s-6.45-4.62-7.81-1.28c-1.03,2.54-0.05,4.05-0.05,4.05l-3.1-1.07c0,0,0.04-4.15,2.41-6.16
	C58.52,36.59,62.23,36.98,65.14,38.48z"/>
</svg>
