<?xml version="1.0" encoding="utf-8"?>
<!-- Generator: Adobe Illustrator 24.1.2, SVG Export Plug-In . SVG Version: 6.00 Build 0)  -->
<svg version="1.1" id="Layer_2" xmlns="http://www.w3.org/2000/svg" xmlns:xlink="http://www.w3.org/1999/xlink" x="0px" y="0px"
	 viewBox="0 0 128 128" style="enable-background:new 0 0 128 128;" xml:space="preserve">
<g>
	<path style="fill:#7ADC8A;" d="M65.82,31.35c-0.49,0-0.97-0.2-1.32-0.6c-0.64-0.73-0.57-1.83,0.16-2.47l9.2-8.07
		c0.73-0.64,1.83-0.56,2.47,0.16c0.64,0.73,0.57,1.83-0.16,2.47l-9.2,8.07C66.65,31.2,66.23,31.35,65.82,31.35z"/>
</g>
<g>
	<path style="fill:#7ADC8A;" d="M47.62,17.83c-0.06,0-0.12,0-0.18-0.01c-0.96-0.1-1.66-0.96-1.56-1.92l0.94-9.2
		c0.1-0.96,0.95-1.66,1.92-1.56c0.96,0.1,1.66,0.96,1.56,1.92l-0.94,9.2C49.27,17.16,48.5,17.83,47.62,17.83z"/>
</g>
<g>
	<path style="fill:#7ADC8A;" d="M29.93,22.76c-0.52,0-1.04-0.23-1.39-0.68l-6.94-9.01c-0.59-0.77-0.45-1.86,0.32-2.45
		s1.86-0.45,2.45,0.32l6.94,9.01c0.59,0.77,0.45,1.86-0.32,2.45C30.67,22.64,30.3,22.76,29.93,22.76z"/>
</g>
<g>
	<path style="fill:#7ADC8A;" d="M17.96,36.79c-0.13,0-0.26-0.01-0.39-0.04l-10.7-2.44c-0.94-0.21-1.53-1.15-1.32-2.1
		c0.22-0.94,1.15-1.53,2.1-1.32l10.7,2.44c0.94,0.21,1.53,1.15,1.32,2.1C19.48,36.24,18.76,36.79,17.96,36.79z"/>
</g>
<g>
	<path style="fill:#7ADC8A;" d="M12.14,64.76c-0.62,0-1.23-0.34-1.54-0.93c-0.46-0.85-0.13-1.91,0.72-2.37l10.89-5.82
		c0.85-0.46,1.91-0.13,2.37,0.72c0.46,0.85,0.13,1.91-0.72,2.37l-10.89,5.82C12.7,64.69,12.42,64.76,12.14,64.76z"/>
</g>
<g>
	<path style="fill:#7ADC8A;" d="M37.67,82.97c-0.39,0-0.78-0.13-1.1-0.39c-0.75-0.61-0.87-1.71-0.26-2.46l8.07-9.95
		c0.61-0.75,1.71-0.86,2.46-0.26c0.75,0.61,0.87,1.71,0.26,2.46l-8.07,9.95C38.68,82.75,38.18,82.97,37.67,82.97z"/>
</g>
<g>
	<path style="fill:#7ADC8A;" d="M53.81,99.48c-0.61,0-1.21-0.32-1.53-0.9c-0.47-0.84-0.17-1.91,0.67-2.38l11.07-6.19
		c0.84-0.47,1.91-0.17,2.38,0.67c0.47,0.84,0.17,1.91-0.67,2.38l-11.07,6.19C54.39,99.41,54.1,99.48,53.81,99.48z"/>
</g>
<g>
	<path style="fill:#7ADC8A;" d="M69.2,119.76c-0.3,0-0.61-0.08-0.9-0.25c-0.83-0.5-1.1-1.57-0.61-2.4l7.51-12.58
		c0.5-0.83,1.57-1.1,2.4-0.61c0.83,0.5,1.1,1.57,0.61,2.4l-7.51,12.58C70.38,119.45,69.8,119.76,69.2,119.76z"/>
</g>
<g>
	<path style="fill:#7ADC8A;" d="M93.6,123.51c-0.81,0-1.54-0.57-1.71-1.39l-2.82-13.51c-0.2-0.95,0.41-1.87,1.36-2.07
		c0.94-0.2,1.87,0.41,2.07,1.36l2.82,13.51c0.2,0.95-0.41,1.87-1.36,2.07C93.84,123.5,93.72,123.51,93.6,123.51z"/>
</g>
<g>
	<path style="fill:#7ADC8A;" d="M115,112.62c-0.45,0-0.91-0.17-1.25-0.52l-9.39-9.57c-0.68-0.69-0.67-1.8,0.02-2.48
		s1.8-0.67,2.48,0.02l9.39,9.57c0.68,0.69,0.67,1.8-0.02,2.48C115.89,112.46,115.45,112.62,115,112.62z"/>
</g>
<g>
	<path style="fill:#7ADC8A;" d="M111.06,87.85c-0.85,0-1.59-0.62-1.73-1.48c-0.15-0.96,0.51-1.85,1.46-2l10.89-1.69
		c0.96-0.14,1.85,0.51,2,1.46c0.15,0.96-0.51,1.85-1.46,2l-10.89,1.69C111.24,87.84,111.15,87.85,111.06,87.85z"/>
</g>
<g>
	<path style="fill:#7ADC8A;" d="M99.42,72.45c-0.4,0-0.8-0.14-1.13-0.41c-0.74-0.62-0.83-1.73-0.21-2.47l9.2-10.89
		c0.62-0.74,1.73-0.83,2.47-0.21c0.74,0.62,0.83,1.73,0.21,2.47l-9.2,10.89C100.41,72.24,99.92,72.45,99.42,72.45z"/>
</g>
<g>
	<path style="fill:#7ADC8A;" d="M81.03,55c-0.4,0-0.8-0.14-1.13-0.42c-0.74-0.62-0.83-1.73-0.2-2.47l9.38-11.07
		c0.62-0.74,1.73-0.83,2.47-0.2c0.74,0.62,0.83,1.73,0.2,2.47l-9.38,11.07C82.02,54.79,81.52,55,81.03,55z"/>
</g>
<g>
	<path style="fill:#01AB46;" d="M57.19,22.9c-0.3,0-0.6-0.08-0.88-0.24c-0.84-0.49-1.12-1.56-0.63-2.39L63,7.69
		c0.49-0.83,1.56-1.12,2.39-0.63c0.83,0.49,1.12,1.56,0.63,2.39L58.7,22.03C58.38,22.59,57.79,22.9,57.19,22.9z"/>
</g>
<g>
	<path style="fill:#01AB46;" d="M72.58,43.36c-0.54,0-1.07-0.25-1.41-0.72c-0.57-0.78-0.4-1.87,0.38-2.45l11.26-8.26
		c0.78-0.57,1.87-0.4,2.45,0.38c0.57,0.78,0.4,1.87-0.38,2.45l-11.26,8.26C73.3,43.25,72.94,43.36,72.58,43.36z"/>
</g>
<g>
	<path style="fill:#01AB46;" d="M90.6,64.76c-0.3,0-0.61-0.08-0.89-0.24c-0.83-0.49-1.11-1.56-0.62-2.4l7.51-12.76
		c0.49-0.83,1.56-1.11,2.4-0.62c0.83,0.49,1.11,1.56,0.62,2.4L92.11,63.9C91.78,64.45,91.2,64.76,90.6,64.76z"/>
</g>
<g>
	<path style="fill:#01AB46;" d="M105.62,79.4c-0.56,0-1.11-0.27-1.45-0.76c-0.55-0.8-0.34-1.89,0.45-2.43l10.14-6.95
		c0.8-0.55,1.89-0.34,2.43,0.45c0.55,0.8,0.34,1.89-0.45,2.43l-10.14,6.95C106.3,79.3,105.96,79.4,105.62,79.4z"/>
</g>
<g>
	<path style="fill:#01AB46;" d="M103.55,118.82c-0.63,0-1.24-0.34-1.55-0.94L96,106.43c-0.45-0.86-0.12-1.91,0.74-2.36
		c0.86-0.45,1.91-0.12,2.36,0.74l6.01,11.45c0.45,0.86,0.12,1.91-0.74,2.36C104.11,118.75,103.83,118.82,103.55,118.82z"/>
</g>
<g>
	<path style="fill:#01AB46;" d="M81.41,123.51c-0.11,0-0.23-0.01-0.34-0.03c-0.95-0.19-1.56-1.11-1.37-2.06l2.63-13.14
		c0.19-0.95,1.12-1.57,2.06-1.37c0.95,0.19,1.56,1.11,1.37,2.06l-2.63,13.14C82.95,122.93,82.22,123.51,81.41,123.51z"/>
</g>
<g>
	<path style="fill:#01AB46;" d="M59.25,109.43c-0.52,0-1.03-0.23-1.37-0.66c-0.6-0.76-0.47-1.86,0.28-2.46l9.95-7.88
		c0.76-0.6,1.86-0.47,2.46,0.28c0.6,0.76,0.47,1.86-0.28,2.46l-9.95,7.88C60.02,109.31,59.64,109.43,59.25,109.43z"/>
</g>
<g>
	<path style="fill:#01AB46;" d="M47.99,90.1c-0.49,0-0.99-0.21-1.33-0.61c-0.63-0.73-0.54-1.84,0.19-2.47l10.32-8.82
		c0.73-0.63,1.84-0.54,2.47,0.19c0.63,0.73,0.54,1.84-0.19,2.47l-10.32,8.82C48.8,89.96,48.39,90.1,47.99,90.1z"/>
</g>
<g>
	<path style="fill:#01AB46;" d="M22.65,75.83c-0.36,0-0.73-0.11-1.04-0.34c-0.78-0.58-0.94-1.67-0.36-2.45l7.51-10.14
		c0.57-0.78,1.67-0.94,2.45-0.36c0.78,0.58,0.94,1.67,0.36,2.45l-7.51,10.14C23.71,75.59,23.19,75.83,22.65,75.83z"/>
</g>
<g>
	<path style="fill:#01AB46;" d="M24.15,29.09c-0.34,0-0.68-0.1-0.98-0.3L12.1,21.28c-0.8-0.54-1.01-1.63-0.47-2.43
		c0.54-0.8,1.63-1.01,2.43-0.47l11.07,7.51c0.8,0.54,1.01,1.63,0.47,2.43C25.26,28.82,24.71,29.09,24.15,29.09z"/>
</g>
<g>
	<path style="fill:#01AB46;" d="M35.6,19.15c-0.84,0-1.58-0.6-1.72-1.46L32,6.61c-0.16-0.95,0.48-1.86,1.43-2.02
		c0.96-0.16,1.86,0.48,2.02,1.43l1.88,11.07c0.16,0.95-0.48,1.86-1.43,2.02C35.8,19.14,35.7,19.15,35.6,19.15z"/>
</g>
<path style="fill:#02AB47;" d="M23.4,21.9c-13.89,14.83-9.01,32.07,1.88,41.3c13.51,11.45,26.56,11.26,32.19,18.58
	s5.91,18.02,18.3,26.28c8.68,5.79,21.51,4.88,29.47-3.66c8.13-8.72,10.89-23.86,0.14-31.96c-10.84-8.17-13.09-8.68-22.67-19.57
	S69.58,25.84,58.13,18.33S32.03,12.69,23.4,21.9z"/>
<path style="fill:#7CDB8D;" d="M27.91,26.59c-9.76,10.51-8.46,25.75,6.19,34.91c12.01,7.51,17.68,6.44,27.22,16.42
	c8.07,8.45,8.86,17.72,14.83,22.81c8.82,7.51,18.97,4.93,24.87-0.42c6.05-5.49,9.1-17.79-4.79-27.92S78.12,56.45,75.21,52.12
	c-5.82-8.63-10.14-18.4-18.96-26.28C47.82,18.31,35.77,18.13,27.91,26.59z"/>
<path style="fill:#00AA46;" d="M81.59,84.13c1.35,2.33,0.47,4.88-0.84,5.82c-2.15,1.54-4.94,0.83-6.29-1.5
	c-1.35-2.33-0.84-5.15,1.5-6.38C77.74,81.12,80.24,81.79,81.59,84.13z"/>
<path style="fill:#00AA46;" d="M96.33,90.69c0.23,2.17-1.03,4.13-3.38,4.32c-2.81,0.23-4.13-2.05-4.13-4.22s1.41-4.04,3.85-3.94
	C94.79,86.93,96.14,88.91,96.33,90.69z"/>
<path style="fill:#00AA46;" d="M80.75,68.55c0.47,3.19-1.13,5.82-4.88,6.01c-2.93,0.15-5.86-2.78-5.84-5.63
	c0.02-3.47,2.16-5.35,5.09-5.35C78.05,63.57,80.33,65.72,80.75,68.55z"/>
<path style="fill:#FBC219;" d="M52.17,36.4c5.76,5.34,8.7,14.03,4.46,17.88c-4.04,3.66-13.14,1.78-19.15-3.85
	c-6.2-5.81-5.12-12.35-1.49-16.01C39.64,30.72,47.08,31.68,52.17,36.4z"/>
<path style="fill:#00AA46;" d="M69.42,54.71c0.63,1.98,0.1,3.97-1.63,4.68c-2.06,0.84-4.04-0.28-4.97-2.82
	c-0.72-1.94,0.47-3.86,2.25-4.42C66.84,51.59,68.79,52.74,69.42,54.71z"/>
<path style="fill:#00AA46;" d="M60.85,62.4c0.93,1.27,0.97,3.13-0.2,3.98c-1.17,0.86-3.12,0.39-4.05-0.88s-0.73-3,0.44-3.85
	C58.22,60.79,59.93,61.13,60.85,62.4z"/>
<g>
	<path style="fill:#01AB46;" d="M6.88,48.99c-0.9,0-1.66-0.69-1.74-1.6c-0.08-0.96,0.63-1.81,1.6-1.89l11.07-0.94
		c0.96-0.09,1.81,0.63,1.89,1.6c0.08,0.96-0.63,1.81-1.6,1.89L7.03,48.98C6.98,48.99,6.93,48.99,6.88,48.99z"/>
</g>
<g>
	<path style="fill:#01AB46;" d="M120.26,101.17c-0.31,0-0.62-0.08-0.9-0.25l-11.26-6.76c-0.83-0.5-1.1-1.57-0.6-2.4
		c0.5-0.83,1.57-1.1,2.4-0.6l11.26,6.76c0.83,0.5,1.1,1.57,0.6,2.4C121.43,100.87,120.85,101.17,120.26,101.17z"/>
</g>
</svg>
