<?xml version="1.0" encoding="utf-8"?>
<!-- Generator: Adobe Illustrator 24.1.2, SVG Export Plug-In . SVG Version: 6.00 Build 0)  -->
<svg version="1.1" id="Swan" xmlns="http://www.w3.org/2000/svg" xmlns:xlink="http://www.w3.org/1999/xlink" x="0px" y="0px"
	 viewBox="0 0 128 128" style="enable-background:new 0 0 128 128;" xml:space="preserve">
<path style="fill:#DCEDF5;" d="M36.54,12.89c9.1,2.82,11.26,12.01,10.7,18.96c-0.56,6.95-5.3,13.33-8.45,18.21
	c-3.1,4.81-8.67,12.74-10.42,15.86c-3.33,5.96-2.63,8.82-2.63,8.82s8.63-4.97,26.37-12.01C65,57.61,85.16,57.38,96.7,59.35
	c11.54,1.97,18.68,4.69,19.43,5.63s-3.75,4.88-1.6,5.73c2.16,0.84,6.95-4.27,8.17-3.66c2.12,1.06-0.19,20.37-7.6,32.1
	s-22.57,18.4-50.77,18.58c-28.07,0.19-46.15,0.35-56.22-17.27c-7.13-12.48-0.66-28.25,5.16-38.01C19.4,52.16,36.36,35.4,30.63,32.6
	c-3.85-1.88-9.1,2.53-9.1,2.53l-7.6-7.79c0,0-0.72-3.49,1.13-6.95C17.25,16.27,25.13,9.36,36.54,12.89z"/>
<path style="fill:#FEA6A4;" d="M13.03,28.94c0,0-0.84,6.34-4.93,9.01c-3.69,2.42-3.81,3.61-3.1,4.93c0.99,1.83,5.63,1.55,8.59-0.28
	c2.96-1.83,7.46-6.76,7.46-6.76l-3.1-7.04L13.03,28.94z"/>
<path style="fill:#464B4E;" d="M20.4,29.41c0.99,1.6,2.77,3.8,1.64,6.15c-0.74,1.53-3.57-0.94-6.62-3.94
	c-1.1-1.08-4.69-3.99-2.63-5.49c2.25-1.64,4.97,0.66,4.97,0.66s0.66-2.63,2.06-3.66c1.41-1.03,3.33-1.03,4.22-0.09
	c1.33,1.4,0.66,3.47-0.56,4.5C22.48,28.39,20.4,29.41,20.4,29.41z"/>
<g>
	<path style="fill:#68A4AF;" d="M60.78,92.35c-9.79,0-21.31-3.05-24.12-5.21c-0.53-0.4-0.62-1.16-0.22-1.68
		c0.4-0.52,1.16-0.62,1.68-0.22c2.58,1.98,17.77,5.92,27.82,4.36c3.47-0.54,5.81-1.67,6.97-3.34c1.46-2.11-1.73-4.44-1.87-4.53
		c-0.45-0.32-0.62-0.9-0.42-1.41s0.72-0.83,1.26-0.75c0.07,0.01,6.98,0.76,8.29-2.88c0.78-2.15-0.95-3.03-1.31-3.18
		c-0.54-0.23-0.83-0.82-0.7-1.39c0.14-0.57,0.66-0.96,1.24-0.92c0.08,0,8.07,0.43,8.49-3.17c0.24-2.07-1.34-2.5-1.52-2.54
		c-0.65-0.15-1.05-0.8-0.9-1.44c0.15-0.65,0.79-1.05,1.44-0.9c1.33,0.31,3.76,1.79,3.36,5.16c-0.46,3.89-4.9,4.96-8,5.23
		c0.54,1.01,0.74,2.33,0.15,3.96c-1.25,3.45-5.06,4.34-7.81,4.51c1.08,1.57,1.65,3.61,0.26,5.62c-1.55,2.23-4.43,3.69-8.58,4.34
		C64.58,92.23,62.72,92.35,60.78,92.35z"/>
</g>
<g>
	<path style="fill:#68A4AF;" d="M65.67,104.67c-0.26,0-0.53,0-0.8-0.01c-18.97-0.28-36.61-14.68-37.35-15.29
		c-0.51-0.42-0.58-1.18-0.16-1.69c0.42-0.51,1.18-0.58,1.69-0.16c0.18,0.14,17.74,14.47,35.86,14.74
		c13.8,0.24,21.32-5.23,22.31-8.19c0.5-1.5-0.2-2.35-0.23-2.39c-0.32-0.38-0.38-0.92-0.15-1.35c0.23-0.43,0.7-0.69,1.19-0.64
		c0.08,0.01,8.15,0.88,10.23-3.54c1.69-3.59-0.76-5.16-0.86-5.23c-0.5-0.31-0.7-0.94-0.47-1.48c0.23-0.54,0.81-0.84,1.39-0.7
		c0.06,0.01,6.26,1.45,8.43-2.42c0.55-0.97,0.67-1.81,0.39-2.56c-0.5-1.31-2.22-2.17-2.84-2.39c-0.62-0.22-0.95-0.9-0.74-1.53
		c0.22-0.62,0.89-0.96,1.52-0.74c0.13,0.05,3.29,1.16,4.29,3.79c0.55,1.43,0.37,2.98-0.54,4.59c-1.87,3.34-5.45,3.96-8.07,3.93
		c0.62,1.44,0.78,3.39-0.33,5.76c-2.05,4.38-7.67,5-10.7,5c0.13,0.75,0.1,1.66-0.23,2.66C88.11,98.96,79.82,104.67,65.67,104.67z"/>
</g>
</svg>
