<?xml version="1.0" encoding="utf-8"?>
<!-- Generator: Adobe Illustrator 24.0.3, SVG Export Plug-In . SVG Version: 6.00 Build 0)  -->
<svg version="1.1" id="Layer_9" xmlns="http://www.w3.org/2000/svg" xmlns:xlink="http://www.w3.org/1999/xlink" x="0px" y="0px"
	 viewBox="0 0 128 128" style="enable-background:new 0 0 128 128;" xml:space="preserve">
<path style="fill:#F7CC93;" d="M14.18,41.9c1.17-0.1,1.26-0.41,1.26-5.2c0-3.78-0.41-4.88-0.41-4.88s-3.36-0.68-3.98-4.79
	c-0.53-3.53,2.35-8.34,1.85-9.35c-0.52-1.05-1.39-1.55-4.82,1.96c-3.41,3.48-5.13,8.75-3.29,14.96
	C7.02,42.13,13.24,41.98,14.18,41.9z"/>
<linearGradient id="SVGID_1_" gradientUnits="userSpaceOnUse" x1="90.042" y1="76.7846" x2="84.8327" y2="95.8543">
	<stop  offset="9.566327e-04" style="stop-color:#6A463E"/>
	<stop  offset="1" style="stop-color:#8C685C"/>
</linearGradient>
<path style="fill:url(#SVGID_1_);" d="M86.39,69.93c2.2-0.76,4.78-0.48,6.61,0.95c2.44,1.92,3.12,5.3,3.31,8.4
	c0.09,1.56-0.48,6.66-0.77,7.74c-0.75,2.76-0.91,5.76-1.5,8.56c-0.72,3.41-3.24,9.63-4,11.76c-0.18,0.51-0.56,0.91-1.05,1.14
	c-1.04,0.48-2.97,1.17-5,0.84c-1.15-0.19-1.98-0.51-2.57-0.83c-0.8-0.44-1.17-1.37-0.93-2.24c0.58-2.08,1.77-6.4,2.39-9.06
	c0.79-3.42,1.05-6.91,0.63-9.14c-0.73-3.89-3.26-6.82-2.61-11.04c0.42-2.7,2-5.27,4.39-6.59C85.63,70.23,86,70.06,86.39,69.93z"/>
<linearGradient id="SVGID_2_" gradientUnits="userSpaceOnUse" x1="73.3128" y1="85.1829" x2="74.15" y2="100.6712">
	<stop  offset="9.566327e-04" style="stop-color:#6A463E"/>
	<stop  offset="1" style="stop-color:#8C685C"/>
</linearGradient>
<path style="fill:url(#SVGID_2_);" d="M72.27,22.88c0,0,6.11,0.97,18.28,9.86c4.44,3.24,12.73,4.65,15.49,5.35
	c7.75,1.95,12.28,7.81,13.12,14.37c0.84,6.56,0.28,17.3-1.26,23.02c-1.53,5.72-2.5,10.88-2.65,13.12
	c-0.28,4.19,0.26,9.42-0.42,13.53c-0.69,4.23-1.95,9.07-2.51,11.13c-0.23,0.85-0.79,1.58-1.58,1.98c-0.96,0.49-2.5,0.92-4.77,0.63
	c-0.82-0.1-1.5-0.25-2.06-0.42c-1.61-0.48-2.54-2.14-2.16-3.77c0.92-3.96,2.91-12.99,2.48-15.69c-0.56-3.49-6-9.35-6.74-15.4
	c0,0-4.16,1.26-14.79,5.45c-3.02,1.19-5.29,2.42-6.93,7.72c-2.34,7.6-3.2,23.06-3.43,27.43c-0.06,1.1-0.76,2.05-1.79,2.42
	c-0.89,0.32-2.22,0.57-4.2,0.57c-2.14,0-3.56-0.3-4.48-0.65c-1.02-0.39-1.67-1.38-1.69-2.47c-0.12-5.88-0.68-29.84-2.27-34
	c-1.81-4.74-10.12-1.63-11.58,2.37c-0.7,1.92-0.61,2.86-0.42,4.65c0.27,2.53,1.81,12.56,1.26,17.72c-0.47,4.37-1.13,8.2-1.45,9.28
	c-0.06,0.21-0.18,0.4-0.35,0.54c-0.78,0.69-3.35,2.6-7.42,2.2c-2.25-0.22-3.56-1.07-4.24-1.71c-0.39-0.36-0.49-0.94-0.23-1.4
	c0.88-1.6,2.93-5.79,2.38-9.1c-0.7-4.19-10.54-31.72-10.54-31.72l16.82-37.49L72.27,22.88z"/>
<path style="fill:#8C685C;" d="M72.27,22.88c0,0,6.11,0.97,18.28,9.86c4.44,3.24,12.73,4.65,15.49,5.35
	c7.75,1.95,12.28,7.81,13.12,14.37c0.84,6.56,0.28,17.3-1.26,23.02c-1.53,5.72-2.5,10.88-2.65,13.12
	c-0.28,4.19,0.26,9.42-0.42,13.53c-0.69,4.23-1.95,9.07-2.51,11.13c-0.23,0.85-0.79,1.58-1.58,1.98c-0.96,0.49-2.5,0.92-4.77,0.63
	c-0.82-0.1-1.5-0.25-2.06-0.42c-1.61-0.48-2.54-2.14-2.16-3.77c0.92-3.96,2.91-12.99,2.48-15.69c-0.56-3.49-6-9.35-6.74-15.4
	c0,0-4.16,1.26-14.79,5.45c-3.02,1.19-5.29,2.42-6.93,7.72c-2.34,7.6-3.2,23.06-3.43,27.43c-0.06,1.1-0.76,2.05-1.79,2.42
	c-0.89,0.32-2.22,0.57-4.2,0.57c-2.14,0-3.56-0.3-4.48-0.65c-1.02-0.39-1.67-1.38-1.69-2.47c-0.12-5.88-0.68-29.84-2.27-34
	c-1.81-4.74-11.12-1.86-11.58,2.37l-4.19-47.02L72.27,22.88z"/>
<path style="fill:#6A463E;" d="M83.4,48.09c0.44-3.5,2.3-2.77,2.57-6.22c0.28-3.49-2.09-3.47-2.16-6.14
	c-0.05-2.09,2.07-3.97,0.88-6.6c-1.37-3.02-3.36-2.33-4.86-3.56c-2.15-1.76-0.35-3.91-2.51-6.07c-2.14-2.14-4.15-0.87-5.86-1.91
	c-1.53-0.93-0.71-2.92-3.5-4.24c-2.83-1.34-3.71,0.86-6.97-0.93c-1.26-0.69-2.82-2.89-6.11-2.51c-3.3,0.38-3.5,2.39-6.3,2.81
	c-2.79,0.42-3.42-1.45-7.19-0.7c-4.69,0.94-7,6.15-8.38,10.2c-3.02,8.87-7.24,44.16-7.16,46.17c0.15,4.05,4.41,9.3,6.8,12.49
	c2.05,2.73,5.73,4.74,7.97,7.26c2.24,2.52,6.76,2.75,9.45,0.98c0.72-0.48,1.94-2.62,5.21-1.77c4.79,1.26,7.7,0.18,9.29-4.08
	c0.23-0.61,0.72-2.58,5.57-3.22c2.49-0.33,4.58-3.4,3.65-6.85c-0.45-1.69,1.49-4,3.53-4.59c2.74-0.79,3.77-3.35,3.4-5.76
	c-0.2-1.31,0.64-3.66,2.3-4.76c2.11-1.4,2.77-3.82,1.74-6.14C84.14,50.58,83.21,49.59,83.4,48.09z"/>
<g>
	<g>
		<path style="fill:#AF7464;" d="M83.7,35.73c-0.18-1.64,0.74-3.15,0.76-4.51c0.02-0.68-0.14-1.3-0.49-1.86
			c-0.35-0.61-0.79-1.1-1.28-1.4c-0.5-0.31-1.07-0.45-1.89-0.68c-0.4-0.12-0.86-0.28-1.31-0.54c-0.45-0.29-0.83-0.58-1.18-1.01
			c-0.75-0.83-0.95-2.03-1.04-2.78c-0.1-0.8-0.2-1.34-0.45-1.73c-0.22-0.39-0.66-0.79-1.1-1.07c-0.44-0.26-0.84-0.38-1.47-0.42
			c-0.61-0.06-1.48,0.03-2.61-0.27c-0.56-0.17-1.12-0.42-1.66-0.9c-0.53-0.48-0.86-1.08-1.05-1.5c-0.39-0.88-0.52-1.22-0.81-1.51
			c-0.26-0.28-0.77-0.58-1.26-0.75c-0.49-0.14-0.77-0.18-1.43-0.07c-0.62,0.1-1.74,0.34-2.83,0.15c-0.54-0.08-1.04-0.25-1.5-0.43
			c-0.24-0.09-0.45-0.2-0.66-0.31l-0.32-0.16l-0.37-0.23c-0.84-0.59-1.3-1.05-1.83-1.39c-1.01-0.69-1.96-0.86-3.16-0.71
			c-0.6,0.08-1.08,0.23-1.58,0.52c-0.51,0.27-1.09,0.79-1.96,1.28c-0.86,0.5-1.9,0.77-2.85,0.83c-0.98,0.08-2.07-0.17-2.84-0.47
			c-0.79-0.3-1.32-0.51-1.93-0.61c-0.6-0.09-1.25-0.07-1.93,0.01c-1.28,0.18-2.52,0.73-3.58,1.66c-1.1,0.89-2.02,2.07-2.82,3.34
			c-0.4,0.64-0.77,1.31-1.12,1.99c-0.37,0.67-0.71,1.37-1.04,2.07l-0.19-0.06c0.5-1.46,1.05-2.91,1.76-4.29
			c0.7-1.38,1.55-2.7,2.67-3.79c2.16-2.25,5.78-3.09,8.66-1.81c1.42,0.52,3.04,0.39,4.33-0.37c0.65-0.37,1.22-0.9,1.9-1.31
			c0.67-0.42,1.44-0.69,2.21-0.82c1.55-0.3,3.24,0.03,4.54,0.93c0.67,0.42,1.25,0.96,1.86,1.38c0.63,0.37,1.34,0.69,2.06,0.8
			c0.73,0.14,1.46-0.01,2.24-0.13c0.77-0.14,1.62-0.09,2.37,0.19c0.74,0.28,1.45,0.68,2.01,1.27c0.57,0.59,0.85,1.38,1.13,2.07
			c0.15,0.34,0.33,0.66,0.59,0.9c0.26,0.24,0.59,0.41,0.93,0.52c0.7,0.21,1.48,0.18,2.26,0.26c1.6,0.1,3.08,1.1,3.81,2.53
			c0.76,1.46,0.19,3.2,1.15,4.39c0.22,0.3,0.51,0.54,0.8,0.75c0.31,0.2,0.66,0.35,1.02,0.48c0.72,0.25,1.49,0.48,2.13,0.97
			c0.63,0.49,1.09,1.17,1.41,1.87c0.35,0.71,0.48,1.53,0.37,2.31c-0.19,1.58-1.22,2.9-1.22,4.42L83.7,35.73z"/>
	</g>
</g>
<path style="fill:#8C685C;" d="M15.62,42.14c0,0-1.31,3.5-0.74,10.51c0.47,5.77,3.02,10.65,2.6,14.42s-1.73,8.14,1.21,12.05
	c1.32,1.76,3.24,2.9,5.31,3.55c1.65,0.52,5.12,0.47,5.12,0.47s0.92,4.28,1.75,5.8c1.15,2.08,3.5,3.8,6.09,5.82
	c-0.93-1.89,0.2-5.31,1.49-6.98c4.29-5.55,1.82-8.14,3.09-9.02c11.9-8.29,16.78-25.31,16.78-25.31s6.49,0.56,8.44,0
	c1.95-0.56,3.91-2.51,1.4-5.3c-2.51-2.79-9.56-6.7-10.26-8.93c-0.7-2.23-30-4.19-30-4.19L15.62,42.14z"/>
<path style="fill:#8C685C;" d="M119.22,53.42c0.94,8.17,1.92,16.49,5.3,23.98c0.43,0.96,0.91,2.24,0.13,2.94
	c-1.11,1-2.99-0.5-3.43-1.01c-4.37-5.04-6.71-12.62-7.43-14.06"/>
<ellipse cx="20.9" cy="54.18" rx="2.68" ry="3.3"/>
<ellipse cx="40.52" cy="54.18" rx="2.68" ry="3.3"/>
<linearGradient id="SVGID_3_" gradientUnits="userSpaceOnUse" x1="27.9581" y1="84.2115" x2="27.9581" y2="67.9242">
	<stop  offset="0.1386" style="stop-color:#BF967C"/>
	<stop  offset="0.9901" style="stop-color:#BF967C;stop-opacity:0.0115"/>
	<stop  offset="1" style="stop-color:#BF967C;stop-opacity:0"/>
</linearGradient>
<path style="fill:url(#SVGID_3_);" d="M22.12,69.56c-1.22,1.09-2.56,4.04-2.45,7.23c0.08,2.51,0.85,4.14,3.04,5.43
	c3.23,1.37,6.62,1.63,11.15-0.1c5.29-3.47,0.35-10.66-1.01-12.16C30.78,67.71,24.23,67.66,22.12,69.56z"/>
<path style="fill:#212121;" d="M31.06,72.69c-1.07-1.05-2.63,0.27-5.05,0.27c-2.46,0-3.42-1.29-4.4,0
	c-0.48,0.63-0.25,1.49,0.15,2.05s1.22,1.02,2.18,1.75c0.43,0.33-0.29,1.01-0.63,1.34c-0.39,0.36-1.15,1.43-0.42,2
	c0.46,0.36,0.75,0.11,1.73-0.36c0.67-0.32,1.25-0.38,2.03-0.33c0.8,0.06,1.95,0.57,2.55,0.88c0.26,0.13,0.52,0.27,0.8,0.31
	c0.29,0.04,0.61-0.03,0.79-0.25c0.31-0.38,0.08-0.96-0.21-1.36c-0.43-0.6-1.17-1.1-1.88-1.51c-0.32-0.19-0.53-0.48-0.23-0.7
	c0.85-0.62,1.76-1.09,2.48-1.95C31.49,74.18,31.65,73.27,31.06,72.69z"/>
<path style="fill:#BF967C;" d="M91.69,102.91c-4.85,0.9-8.31,0.41-10.17-0.26c-0.03,0.12-0.09,0.24-0.15,0.36
	c-0.34,1.27-0.66,2.43-0.89,3.24c-0.24,0.87,0.13,1.8,0.93,2.24c0.59,0.32,1.42,0.65,2.57,0.83c2.03,0.33,3.96-0.36,5-0.84
	c0.49-0.23,0.87-0.63,1.05-1.14C90.36,106.43,91,104.77,91.69,102.91z"/>
<path style="fill:#BF967C;" d="M102.38,108.88c-0.23,1.07-0.46,2.04-0.64,2.81c-0.38,1.63,0.56,3.29,2.16,3.77
	c0.56,0.17,1.24,0.31,2.06,0.42c2.26,0.29,3.8-0.15,4.77-0.63c0.79-0.4,1.35-1.13,1.58-1.98c0.25-0.91,0.63-2.35,1.04-4.04
	c0.02-0.14,0.07-0.29,0.1-0.43C107.55,110.19,104.45,109.57,102.38,108.88z"/>
<path style="fill:#BF967C;" d="M72.63,116.1c-5.23,2.04-10.01,1.22-12.57,0.46c0,0.01,0,0.02,0,0.03c0.05,1.89,0.08,3.45,0.1,4.47
	c0.02,1.09,0.68,2.08,1.69,2.47c0.93,0.35,2.34,0.65,4.48,0.65c1.98,0,3.31-0.25,4.2-0.57c1.03-0.37,1.73-1.32,1.79-2.42
	C72.38,120.1,72.48,118.3,72.63,116.1z"/>
<path style="fill:#BF967C;" d="M35.46,115.93c-0.55,1.58-1.57,4.02-2,4.79c-0.26,0.46-0.15,1.04,0.23,1.4
	c0.68,0.64,1.99,1.49,4.24,1.71c4.07,0.4,6.63-1.51,7.42-2.2c0.17-0.15,0.28-0.33,0.35-0.54c0.19-0.66,0.51-2.35,0.84-4.56
	c0.03-0.25,0.05-0.5,0.09-0.74C42.18,117.74,37.55,116.96,35.46,115.93z"/>
<path style="fill:#6A463E;" d="M45.2,17.76c0,0-15.26-5.77-24.84,1.02s-9.49,14.05-9.77,17.3c-0.28,3.26,0.93,7.91,0,10.23
	c-0.93,2.33-0.88,6.58,2.79,8.28c4.84,2.23,7.52-2.14,7.52-2.14s4.3,3.92,11,3.47c6.7-0.45,7.91-4.68,7.91-4.68s4.12,4.94,9.21,3.07
	c7.07-2.6,7.07-12.28,7.07-12.28l-10.6-23.26L45.2,17.76z"/>
<g>
	<path style="fill:#AF7464;" d="M48.02,20.8c-1.14-1.07-2.43-1.81-3.79-2.41c-1.34-0.63-2.75-1.06-4.16-1.44
		c-1.42-0.33-2.84-0.65-4.29-0.77c-1.43-0.17-2.87-0.23-4.3-0.14c-2.85,0.09-5.65,0.74-8.29,1.89c-1.31,0.59-2.6,1.29-3.83,2.14
		c-1.24,0.84-2.39,1.83-3.6,2.87l-0.16-0.12c0.91-1.27,1.92-2.46,3.05-3.53c1.15-1.06,2.42-1.98,3.78-2.74
		c2.72-1.54,5.83-2.36,8.95-2.51c3.13-0.13,6.26,0.37,9.2,1.42c1.47,0.53,2.89,1.19,4.2,2.04c1.3,0.85,2.54,1.87,3.39,3.2
		L48.02,20.8z"/>
</g>
<path style="fill:#FADCB2;" d="M56.7,43.56c-1.01-0.07-3.89-0.54-4.32-5.61c-0.28-3.32,1.84-5.02,1.84-5.02s2.79-2.23,1.86-6.14
	c-0.93-3.91-2.98-7.8-2.6-8.93c0.44-1.35,2.02-1.77,5.67,1.95c3.63,3.7,6.52,9.3,4.56,15.91C61.48,43.22,57.95,43.65,56.7,43.56z"/>
<g>
	<path style="fill:#AF7464;" d="M12.53,27.77c-0.7,2.72-0.79,5.26-0.58,7.82c0.13,1.28,0.27,2.55,0.51,3.85l0.29,2.03
		c0.05,0.35,0.09,0.72,0.12,1.14c0.01,0.21,0.03,0.43,0.01,0.7c0,0.23-0.09,0.67-0.13,0.82c-0.21,0.8-0.44,1.41-0.64,2.06
		c-0.2,0.63-0.38,1.24-0.55,1.8c-0.3,1.02-0.31,2.22-0.11,3.21c0.23,1,0.8,1.93,1.75,2.62c0.94,0.71,2.19,1.18,3.55,1.28l0.04,0.2
		c-1.37,0.28-2.8,0.05-4.05-0.55c-1.25-0.6-2.28-1.7-2.75-3.02c-0.48-1.32-0.53-2.75-0.26-4.11c0.27-1.35,0.75-2.65,1.08-3.95
		c0.14-0.61,0.05-1.29-0.02-1.96l-0.24-2.03c-0.15-1.36-0.25-2.73-0.23-4.1c0.05-2.73,0.63-5.51,2.02-7.89L12.53,27.77z"/>
</g>
<g>
	<path style="fill:#AF7464;" d="M19.76,43.2c0.07,1.71,0.31,3.18,0.74,4.46c0.24,0.63,0.47,1.23,0.83,1.77
		c0.32,0.55,0.69,1.11,1.12,1.58c0.19,0.26,0.43,0.48,0.64,0.73l0.73,0.65c0.49,0.46,1.07,0.82,1.66,1.23
		c1.21,0.76,2.58,1.45,4.13,2.18l0,0.2c-1.62-0.01-3.23-0.33-4.73-0.93c-1.49-0.61-2.91-1.52-3.96-2.78
		c-1.02-1.27-1.77-2.79-1.98-4.41c-0.21-1.62,0.01-3.27,0.63-4.78L19.76,43.2z"/>
</g>
<path style="fill:#3B2622;" d="M56.5,49.78c0.28,3.2,1.84,3.85,1.84,3.85c-0.55,1.85-1.95,5.5-2.95,7.13
	c-3.96,6.48-8.02,13.09-13.81,18.01c-0.18,0.15-0.37,0.32-0.47,0.53c-0.08,0.19-0.09,0.4-0.09,0.61c-0.01,1.32,0.03,2.65-0.38,3.92
	c-0.57,1.75-1.87,3.14-2.76,4.75c-0.98,1.76-1.48,3.78-1.41,5.8c0.85-4.47,5.47-6.31,7.1-10.28c0.73-1.78,0.88-4,2.46-5.11
	c0.82-0.57,1.86-0.71,2.83-0.93c1.79-0.41,3.54-1.71,4.12-3.51c0.52-1.61,0.2-3.53,1.24-4.86c1.36-1.75,4.4-1.62,5.47-3.55
	c0.83-1.49-0.01-3.33,0.06-5.04c0.06-1.69,1.11-3.3,2.62-4.05c1.18-0.58,2.57-0.56,3.83-0.96c3.15-1,3.49-3.3,2.96-4.52
	c-0.81,1.14-2.27,1.75-3.63,1.83C60.23,53.68,58,51.46,56.5,49.78z"/>
</svg>
