<?xml version="1.0" encoding="utf-8"?>
<!-- Generator: Adobe Illustrator 24.1.2, SVG Export Plug-In . SVG Version: 6.00 Build 0)  -->
<svg version="1.1" id="Layer_2" xmlns="http://www.w3.org/2000/svg" xmlns:xlink="http://www.w3.org/1999/xlink" x="0px" y="0px"
	 viewBox="0 0 128 128" style="enable-background:new 0 0 128 128;" xml:space="preserve">
<path style="fill:#AFAFAF;" d="M29.39,61.37c0,0,0.26-4.98-4.23-4.57c-4.52,0.41-2.88,6.55-2.88,6.55L29.39,61.37z"/>
<path style="fill:#171717;" d="M48.56,93.79l-5.99,0.7c0,0,0.3,12.08-0.5,13.38c-0.8,1.3-5.99,4.59-5.99,4.59s-0.5,1.8,2.3,2.8
	c2.8,1,8.29,0.6,8.29,0.6l7.89-19.28L48.56,93.79z"/>
<path style="fill:#171717;" d="M91.91,94.69c-0.6,0.1-8.39,2.8-8.39,2.8s2.8,10.29,1.1,11.98s-4.79,3.1-2.9,4.39
	c1.9,1.3,9.29,1.1,11.29-1s2.2-3.8,2.3-5.89c0.1-2.1-0.2-12.68-0.2-12.68L91.91,94.69z"/>
<path style="fill:#575A5B;" d="M46.84,100.06c0,0,0.82,9.89-0.22,11.24c-1.05,1.35-5.47,4.19-5.62,4.72
	c-0.15,0.52-0.07,3.9,5.77,3.82s9.74-0.79,12.28-3.86c2.55-3.07,2.25-12.32,2.25-12.32s10.71-0.3,14.08-0.67s7.57-0.67,7.57-0.67
	s1.12,4.64,0.52,6.37c-0.6,1.72-2.77,3.22-2.17,3.82c0.6,0.6,3.52-0.22,4.34-2.47c0.82-2.25,0.15-8.16,0.15-8.16
	s4.72-0.67,7.64-1.27c2.92-0.6,4.42-0.82,4.42-0.82s1.2,6.89,0.75,9.06c-0.45,2.17-5.84,7.19-3.9,7.64c1.95,0.45,5.58,1.16,9.14,0.3
	c2.81-0.68,5.33-3.36,5.58-5.02c0.11-0.75,0.2-2.24,0.22-3.63c0.04-2.1-0.41-17.19-0.41-17.19l-53.71-23l-7.72-1.27
	c0,0-2.4-1.05-4.19-1.87c-1.8-0.82-3.97-1.42-3.97-1.42s0-5.02-2.4-5.24c-2.4-0.22-3.97,2.85-3.97,2.85l-6.44,1.27L16.05,67.4
	l-4.49,8.16l-4.34,0.52c0,0-5.84,0.94-6.52,3.67c-0.61,2.49,0.97,3.3,0.97,3.3s0.11,1.61,0.79,2.66s1.84,1.24,1.84,1.24
	s1.07,1.74,2.4,2.32c2.92,1.27,5.18,0.67,8.24,0.45c3.15-0.22,6.97-0.52,6.97-0.52s6.89,3,11.09,4.72s8.69,3.82,8.69,3.82
	s0.07,7.72-0.52,9.89c-0.6,2.17-5.84,3.67-5.69,4.79c0.15,1.12,2.85-0.07,4.49-0.97s2.77-2.25,3.15-3.52
	c0.37-1.27,0.45-9.66,0.45-9.66L46.84,100.06z"/>
<path style="fill:#DFDFDF;" d="M113.28,88.55l-2,5.37c0,0,1.37,2.8,3.65,4.94c2,1.89,3.29,2.73,5.39,2.7
	c3.1-0.05,8.24-3.82,6.97-5.32c-1.04-1.22-4.94-4.54-4.94-4.54L113.28,88.55z"/>
<path style="fill:#AFAFAF;" d="M81.15,56.77c15.43,0.75,24.42,7.72,27.57,14.31c3.15,6.59,4.27,9.89,5.32,11.54
	s9.44,10.04,9.44,10.04s-1.91,1.89-5.92,2.55c-3.22,0.52-5.62-0.15-5.62-0.15s-0.62-0.84-1.12-1.6c-0.35-0.52-0.9-1.25-1.87-0.6
	c-1.26,0.84-4.19,5.34-9.21,5.64c-6.03,0.36-11.76-1.8-11.76-1.8s0.22,2.77-0.37,2.92c-0.6,0.15-4.83-1.39-6.59-2.36
	c-1.45-0.8-4.87-3.18-4.87-3.18s1.65,5.24,1.2,5.77c-0.45,0.52-3.71-0.45-5.92-2.25c-1.49-1.21-7.42-6.37-7.42-6.37
	s1.8,5.47,1.35,6.07c-0.45,0.6-4.51-1.2-7.34-4.72c-3.07-3.82-4.79-7.79-5.99-13.63c-1.12-5.48-1.57-7.42-2.25-9.36
	s-1.95-2.92-1.95-2.92s3.45,0.15,4.72-0.52C53.8,65.46,67.36,56.09,81.15,56.77z"/>
<path style="fill:#DFDFDF;" d="M49.31,84.78c-0.07,0.6-12.16,0.52-15.46,0.67c-3.3,0.15-10.76,2.02-13.83,2.4
	c-3.07,0.37-8.16,1.35-10.56,0.97c-2.4-0.37-2.62-0.97-2.55-1.35c0.07-0.37,2.92,0.04,3.52-0.82c0.6-0.86-0.04-1.8-0.9-1.31
	s-2.72,0.79-3.92,0.64s-1.92-1.2-1.92-1.84s1.8-0.84,2.52-1.56c0.96-0.96,1.52-2.2,1.37-4.32c-0.1-1.4-0.55-2.05-0.27-2.2
	c0.4-0.22,1.45-0.3,2.37-2.67c0.75-1.92,2.27-5.48,5.12-7.62c3.21-2.41,5.94-3.94,11.14-4.72c5.09-0.76,5.51-0.36,5.51-0.36
	s1.65-4.72,6.22-3.9s3.11,6.88,3.11,6.88l-2.05-0.32c0,0,0.59-3.07-1.59-3.45c-2.17-0.37-3.11,2.51-3.11,2.51s-8.01,0.79-11.27,2.73
	c-3.6,2.15-11.24,8.54-9.14,13.15s11.87,0.07,13.56-1.05c1.69-1.12,6.69-4.7,9.7-3.96c3,0.74,3.98,3.07,6.77,5.52
	C45.3,80.27,49.42,83.81,49.31,84.78z"/>
<path style="fill:#191919;" d="M24.07,74.78c-0.64,1.69-2.1,2.43-3.9,1.98c-1.55-0.39-2.4-3.07-1.35-5.02
	c0.94-1.75,2.77-1.84,4.12-1.35C24.44,70.94,24.76,72.96,24.07,74.78z"/>
<path style="fill:#E1E1E1;" d="M21.43,73.24C21,74.03,20,74.58,19.31,73.96c-0.49-0.44-0.28-1.52,0.34-2.47
	c0.62-0.95,1.69-1.17,2.06-0.7C22.19,71.41,21.84,72.5,21.43,73.24z"/>
<path style="fill:#DFDFDF;" d="M33.73,113.02c0.09,0.9,3.33,1.31,3.18-0.45C36.76,110.81,33.62,111.93,33.73,113.02z"/>
<path style="fill:#DFDFDF;" d="M35.64,115.83c0.44,0.86,4.04,0.04,3.18-1.72C37.96,112.35,35.04,114.67,35.64,115.83z"/>
<path style="fill:#DFDFDF;" d="M39.09,118.04c0.36,0.87,4.42-0.49,3.67-1.8S38.41,116.43,39.09,118.04z"/>
<path style="fill:#DFDFDF;" d="M40.81,120.17c0.61,1.03,4.79-0.71,3.56-2.1S40.17,119.09,40.81,120.17z"/>
<path style="fill:#E0E0E0;" d="M79.46,113.66c0.29,0.79,3.33,0.04,3-1.05S79.16,112.83,79.46,113.66z"/>
<path style="fill:#E0E0E0;" d="M82.04,115.53c0.59,0.44,3.41-1.35,2.1-2.06C82.83,112.76,81.15,114.86,82.04,115.53z"/>
<path style="fill:#E0E0E0;" d="M85.04,116.05c1.22,0.37,3.41-1.91,1.87-2.36C85.38,113.24,84.18,115.79,85.04,116.05z"/>
<path style="fill:#E0E0E0;" d="M95.9,114.97c-0.87-0.73-3.6,0.86-2.77,1.95C93.95,118,97.06,115.94,95.9,114.97z"/>
<path style="fill:#E0E0E0;" d="M95.85,118.65c1.29,0.7,3.79-2.54,2.35-2.97C96.76,115.26,94.82,118.09,95.85,118.65z"/>
<path style="fill:#E0E0E0;" d="M101.11,116.02c-1.6-0.23-3.52,2.73-1.8,2.85S102.64,116.24,101.11,116.02z"/>
<g>
	<path style="fill:#999999;" d="M65.79,84.95c-0.31,0-0.63-0.14-0.84-0.41l-2.25-2.85c-0.36-0.46-0.29-1.13,0.18-1.49
		c0.46-0.36,1.13-0.28,1.49,0.18l2.25,2.85c0.36,0.46,0.28,1.13-0.18,1.49C66.25,84.87,66.02,84.95,65.79,84.95z"/>
</g>
<g>
	<path style="fill:#999999;" d="M77.77,86.22c-0.24,0-0.48-0.08-0.67-0.24l-3.75-3.07c-0.46-0.37-0.52-1.04-0.15-1.5
		c0.37-0.45,1.04-0.52,1.5-0.15l3.75,3.07c0.46,0.37,0.52,1.04,0.15,1.5C78.39,86.09,78.08,86.22,77.77,86.22z"/>
</g>
<g>
	<path style="fill:#999999;" d="M82.12,76.78c-0.21,0-0.42-0.06-0.61-0.19l-3.75-2.62c-0.48-0.34-0.6-1-0.26-1.48
		c0.34-0.48,1-0.6,1.48-0.26l3.75,2.62c0.48,0.34,0.6,1,0.26,1.48C82.78,76.62,82.45,76.78,82.12,76.78z"/>
</g>
<g>
	<path style="fill:#999999;" d="M93.5,73.61c-0.22,0-0.44-0.07-0.62-0.2l-3.82-2.77c-0.48-0.35-0.58-1.01-0.24-1.49
		c0.34-0.48,1.01-0.58,1.49-0.24l3.82,2.77c0.48,0.35,0.58,1.01,0.24,1.49C94.16,73.46,93.83,73.61,93.5,73.61z"/>
</g>
<g>
	<path style="fill:#999999;" d="M95.6,83.22c-0.17,0-0.34-0.04-0.5-0.12l-3.37-1.8c-0.52-0.28-0.71-0.92-0.44-1.44
		c0.28-0.52,0.92-0.71,1.44-0.44l3.37,1.8c0.52,0.28,0.71,0.92,0.44,1.44C96.35,83.02,95.98,83.22,95.6,83.22z"/>
</g>
<g>
	<path style="fill:#999999;" d="M105.02,76.66c-0.17-0.02-0.33-0.08-0.48-0.19l-3.11-2.21c-0.48-0.34-0.59-1.01-0.25-1.48
		c0.34-0.48,1-0.59,1.48-0.25l3.11,2.21c0.48,0.34,0.59,1.01,0.25,1.48C105.79,76.55,105.4,76.71,105.02,76.66z"/>
</g>
</svg>
