<?xml version="1.0" encoding="utf-8"?>
<!-- Generator: Adobe Illustrator 24.1.2, SVG Export Plug-In . SVG Version: 6.00 Build 0)  -->
<svg version="1.1" id="Layer_4" xmlns="http://www.w3.org/2000/svg" xmlns:xlink="http://www.w3.org/1999/xlink" x="0px" y="0px"
	 viewBox="0 0 128 128" style="enable-background:new 0 0 128 128;" xml:space="preserve">
<g>
	<path style="fill:#D3CAC3;" d="M69.19,71.88c-19.34-0.75-25.48,11.45-32.74,16.57c-5.57,3.93-14.76,3.28-14.76,3.28
		c-6.98,1.2-11.57,5.04-11.57,11.94c0,6.55,3.53,12.91,12.93,12.91l63.22-2.2C86.27,114.38,88.85,72.64,69.19,71.88z"/>
	<g>
		<path style="fill:#90A4AE;" d="M9.96,84.32l19.91-50.01l13.81,5.3c0,0-4.6,24.51-5.13,30.6c-0.53,6.09,5.13,20.37,3.95,32.98
			c-1.32,14.13-6.89,17.83-17.52,19.04c-7.44,0.85-15.83-2.52-18.16-6.79C3.38,109.14,2.39,101.26,9.96,84.32z"/>
		<path style="fill:#466B7D;" d="M28.43,37.83c0.77-0.05,1.92-0.37,3.97,2.11c1.52,1.84,4.92,4.98,8.9,5.19
			c0.69-3.36,1.19-5.71,1.19-5.71l-12.63-5.1L28.43,37.83z"/>
	</g>
	<g>
		<linearGradient id="SVGID_1_" gradientUnits="userSpaceOnUse" x1="42.2342" y1="41.4291" x2="-3.6563" y2="163.1163">
			<stop  offset="0.3085" style="stop-color:#D3CAC3"/>
			<stop  offset="0.7444" style="stop-color:#6D94A5"/>
		</linearGradient>
		<path style="fill:url(#SVGID_1_);" d="M14.13,98.73c0,0,15.13-45.62,21.08-62.25l-5.35-2.16L9.96,84.32
			c-7.57,16.94-6.58,24.81-3.14,31.12c2.33,4.28,9.16,7.86,16.6,7.01c1.84-0.21,3.48-0.57,4.97-1.07
			C23.09,112.75,14.13,98.73,14.13,98.73z"/>
		<path style="fill:#466B7D;" d="M28.43,37.83c0.77-0.05,1.92-0.37,3.97,2.11c1.52,1.84,6.11,5.86,10.09,6.07
			c0.69-3.36,1.18-6.39,1.18-6.39l-13.81-5.3L28.43,37.83z"/>
		<path style="fill:#466B7D;" d="M39.09,76.07c0,0,0.06,5.87-4.94,10.17c-7.74,6.66-23.47,2.86-26.26,21.28
			c-0.74,4.87-2.74,4.06-2.74,4.06s2.6,11.75,17.94,10.9c0,0,0,0,0,0c11.31-1.01,17.63-9.15,19.07-18.43
			C43.67,94.4,39.09,76.07,39.09,76.07z"/>
	</g>
	<linearGradient id="SVGID_2_" gradientUnits="userSpaceOnUse" x1="53.6493" y1="100.495" x2="53.6493" y2="122.0381">
		<stop  offset="0.2923" style="stop-color:#D3CAC3"/>
		<stop  offset="0.9998" style="stop-color:#6D94A5"/>
	</linearGradient>
	<path style="fill:url(#SVGID_2_);" d="M81.58,71.13c-25.26,0-32.72,7.64-38.7,13.78c-2.92,3-5.23,5.37-9.31,6.43
		c-3.6,0.94-9.18,2.09-10.8,2.42c-0.02,0-0.04,0.01-0.06,0.01c-7.86,1.36-12.54,6.85-12.54,14.68c0,3.93,1.31,7.35,3.79,9.87
		c1.95,1.99,5.64,4.35,12.1,4.35h0.05l0.05,0l68.95-2.27c0,0,6.21-33.08-3.09-44.41C89.4,72.81,85.79,71.13,81.58,71.13L81.58,71.13
		z"/>
	<path style="fill:#90A4AE;" d="M76.08,80.35C58.7,77.27,51.93,86.21,42.5,93.56c-4.28,3.34-15.86,4.56-15.86,4.56
		c-6.98,1.2-11.57,5.04-11.57,11.94c0,7.18,3.53,12.56,12.93,12.56l63.22-2.2C91.22,120.43,95.45,83.78,76.08,80.35z"/>
	<path style="fill:#466B7D;" d="M70.82,88.15c0.03-4.01-0.08-7.17-0.16-9.47l0-0.12c-0.1-2.86-0.46-5.05-0.93-6.75
		c-0.2,0.03-0.41,0.05-0.61,0.08c-4.25-0.27-8.48,0.6-8.48,0.6s4.87,1.23,5.41,9.04c0.18,2.59,0.25,3.26,0.19,7.5
		c-0.47,34.51,27.89,31.43,27.89,31.43l0.31-1.71C77.52,115.67,70.68,106.81,70.82,88.15z"/>
	<g>
		<circle style="fill:#466B7D;" cx="28.27" cy="110.96" r="7.42"/>
		<circle style="fill:#A38E7A;" cx="28.45" cy="109.74" r="6.55"/>
		<radialGradient id="SVGID_3_" cx="26.6683" cy="105.7215" r="10.0236" gradientUnits="userSpaceOnUse">
			<stop  offset="0" style="stop-color:#FFFFFF"/>
			<stop  offset="0.921" style="stop-color:#CDD7DB;stop-opacity:0"/>
		</radialGradient>
		<circle style="fill:url(#SVGID_3_);" cx="28.45" cy="109.74" r="6.55"/>
		<circle style="fill:#C6B3A1;" cx="29.39" cy="110.16" r="5.39"/>
	</g>
	<path style="fill:#90A4AE;" d="M121.79,88.89l0.02,0c0.01-17.13-14.62-28.3-31.06-27.66C75.56,61.83,67.48,71.9,67.48,71.9
		s4.67,4.46,2.5,16.15c0.01,0.01,0.01,0.01,0.02,0.02c-0.08,0.32-0.15,0.65-0.22,0.98c-2.83,14.38,6.53,28.33,20.9,31.16
		c14.37,2.83,28.31-6.54,31.13-20.92C122.51,95.74,122.47,92.22,121.79,88.89z"/>
	<linearGradient id="SVGID_4_" gradientUnits="userSpaceOnUse" x1="67.4783" y1="90.9669" x2="123.5049" y2="90.9669">
		<stop  offset="0.2923" style="stop-color:#D3CAC3"/>
		<stop  offset="0.9998" style="stop-color:#6D94A5"/>
	</linearGradient>
	<path style="fill:url(#SVGID_4_);" d="M121.79,88.89l1.71,0.17c-0.45-16.8-16.31-28.47-32.75-27.83
		C75.56,61.83,67.48,71.9,67.48,71.9s0.83,0.66,1.19,7.76c0.12,2.37,0.19,5.45,0.16,9.47c-0.12,16.06,7.49,28.25,21.86,31.08
		c14.37,2.83,29.3-6.08,32.12-20.46C123.5,96.2,122.47,92.22,121.79,88.89z"/>
	<circle style="fill:#90A4AE;" cx="98.03" cy="92.75" r="25.74"/>
	<g>
		<circle style="fill:#466B7D;" cx="100.55" cy="94.98" r="15.37"/>
		<circle style="fill:#A38E7A;" cx="101.06" cy="92.86" r="14.25"/>
		<radialGradient id="SVGID_5_" cx="95.8207" cy="81.8918" r="20.2565" gradientUnits="userSpaceOnUse">
			<stop  offset="0" style="stop-color:#FFFFFF"/>
			<stop  offset="0.921" style="stop-color:#CDD7DB;stop-opacity:0"/>
		</radialGradient>
		<circle style="fill:url(#SVGID_5_);" cx="101.06" cy="92.86" r="14.25"/>
		<circle style="fill:#C6B3A1;" cx="102.82" cy="93.28" r="12.5"/>
	</g>
	<g>
		<path style="fill:#212121;" d="M68.35,20.1l-8.67-4.53l-7.93,8.47l-0.25,6.79l12.76,4.65c0,0,6.56-3.38,6.83-3.51
			s-0.11-5.54-0.11-5.54L68.35,20.1z"/>
		<path style="fill:#466B7D;" d="M57.25,22.24c1.38-3.39,2.68-3.27,4.19-2.84c1.54,0.44,2.57,2.24,1.38,4.89l-2.05,6.11l6.88-2.1
			l2.88,2.99l1.65,3.62c0,0-6.4,2.36-10.42,2.52s-6.23-3.14-6.23-3.14l-2.82-1.3C52.72,32.99,56.83,23.29,57.25,22.24z"/>
		<path style="fill:#6D94A5;" d="M64.23,13.41c0.12-2.62,0.26-5.99,0.26-6.06l-0.06-0.02c-0.4-0.08-3.03-0.59-6.42-0.98
			c-3.92-0.45-6.04,0.24-7.96,2.45L38.9,20.09c-3.13,3.9-0.64,9.19-0.64,9.19l14.1,2.44c0,0,8.82-11.54,11.13-14.57
			C63.62,16.52,63.91,15.04,64.23,13.41z"/>
		<path style="fill:#D3CAC3;" d="M38.26,29.28c0,0-2.48-5.29,0.64-9.19L50.06,8.79c1.91-2.21,4.04-2.9,7.96-2.45
			c3.68,0.43,6.47,0.99,6.47,0.99s-0.35,8.92-0.45,9.08c-0.11,0.16-11.68,15.3-11.68,15.3L38.26,29.28z"/>
		<polygon style="fill:#90A4AE;" points="45.97,22.63 60.56,7.93 62.21,19.27 53.41,30.4 48.49,25.64 		"/>
		<path style="fill:#90A4AE;" d="M68.4,11.42c-0.81-2.65-1.68-3.47-3.91-4.08c-4.32-1.19-7.45,3.49-4.81,8.23
			c2.87,5.16,7,13.66,7,13.66l6.36,5.09c0.92-0.34,1.97-1.95,1.19-4.57L68.4,11.42z"/>
		<path style="fill:#466B7D;" d="M67.33,9.54c-0.12-0.11-0.03-0.76-0.95-1.42c-0.56-0.4-1.24-0.61-1.9-0.79
			c-4.32-1.19-7.45,3.49-4.81,8.23c2.34,4.21,6.89,13.56,6.89,13.56s0.68,2.4,1.12,2.52c0.54,0.14,1.11-0.2,1.39-0.68
			c0.28-0.48,0.08-0.95,0.05-1.5c0,0-6.37-13.02-7-14.21S66.34,8.64,67.33,9.54z"/>
		<g>
			<circle style="fill:#466B7D;" cx="64.55" cy="12.72" r="4.6"/>
			<circle style="fill:#A38E7A;" cx="64.94" cy="12.22" r="4.29"/>
			
				<radialGradient id="SVGID_6_" cx="61.144" cy="5.6809" r="6.5677" gradientTransform="matrix(0.9775 0.2108 -0.2108 0.9775 5.7795 -9.0382)" gradientUnits="userSpaceOnUse">
				<stop  offset="0" style="stop-color:#FFFFFF"/>
				<stop  offset="0.921" style="stop-color:#CDD7DB;stop-opacity:0"/>
			</radialGradient>
			<circle style="fill:url(#SVGID_6_);" cx="64.94" cy="12.22" r="4.29"/>
			<circle style="fill:#C6B3A1;" cx="65.7" cy="12.25" r="3.46"/>
		</g>
		<g>
			<circle style="fill:#466B7D;" cx="70.66" cy="31.29" r="3.96"/>
			<circle style="fill:#A38E7A;" cx="70.86" cy="31.11" r="3.52"/>
			
				<radialGradient id="SVGID_7_" cx="71.1254" cy="23.3634" r="5.3865" gradientTransform="matrix(0.9775 0.2108 -0.2108 0.9775 5.7795 -9.0382)" gradientUnits="userSpaceOnUse">
				<stop  offset="0" style="stop-color:#FFFFFF"/>
				<stop  offset="0.921" style="stop-color:#CDD7DB;stop-opacity:0"/>
			</radialGradient>
			<circle style="fill:url(#SVGID_7_);" cx="70.86" cy="31.11" r="3.52"/>
			<circle style="fill:#C6B3A1;" cx="71.58" cy="31.3" r="2.84"/>
		</g>
		<path style="fill:#D9C6B6;" d="M27.73,27.46c1.25-6.16,6.84-8.05,12.21-7.55c4.69,0.43,7.59,1.15,7.59,1.15
			c-0.57,2.14-0.59,17.32-1.83,19.16c-1.38,2.03-8.15,0.61-12.48-2.65c-2.57-1.93-4.07-1.47-4.07-1.47S26.96,31.22,27.73,27.46z"/>
		
			<ellipse transform="matrix(0.2576 -0.9662 0.9662 0.2576 2.6603 64.8204)" style="fill:#90A4AE;" cx="43.51" cy="30.68" rx="10.44" ry="9.86"/>
		<path style="fill:#466B7D;" d="M38.13,29.42c0.8-3.18,4.02-5.63,8.01-4.38c3.17,0.99,18.86,6.8,18.86,6.8l0.36,7.67
			c0,0-18.16-0.72-19.9-0.92C37.93,37.72,37.32,32.64,38.13,29.42z"/>
		<path style="fill:#90A4AE;" d="M67.91,36.95c0.39-1.8-0.69-3.56-2.42-4.08l0-0.03c0,0-14.51-5.46-17.76-6.17
			c-3.25-0.7-6.45,1.36-7.15,4.61c-0.7,3.25,1.36,6.45,4.61,7.15c1.59,0.34,16.94,1.16,19.15,1.28c0.04,0,0.09,0.01,0.13,0.01
			c0.09,0,0.14,0.01,0.14,0.01l0-0.02C66.19,39.63,67.56,38.54,67.91,36.95z"/>
		<g>
			<circle style="fill:#466B7D;" cx="47.29" cy="33.09" r="4.6"/>
			<circle style="fill:#A38E7A;" cx="47.68" cy="32.6" r="4.29"/>
			
				<radialGradient id="SVGID_8_" cx="48.5663" cy="29.2326" r="6.5677" gradientTransform="matrix(0.9775 0.2108 -0.2108 0.9775 5.7795 -9.0382)" gradientUnits="userSpaceOnUse">
				<stop  offset="0" style="stop-color:#FFFFFF"/>
				<stop  offset="0.921" style="stop-color:#CDD7DB;stop-opacity:0"/>
			</radialGradient>
			<circle style="fill:url(#SVGID_8_);" cx="47.68" cy="32.6" r="4.29"/>
			<circle style="fill:#C6B3A1;" cx="48.42" cy="32.86" r="3.46"/>
		</g>
	</g>
</g>
</svg>
