<?xml version="1.0" encoding="utf-8"?>
<!-- Generator: Adobe Illustrator 24.0.3, SVG Export Plug-In . SVG Version: 6.00 Build 0)  -->
<svg version="1.1" id="Layer_1" xmlns="http://www.w3.org/2000/svg" xmlns:xlink="http://www.w3.org/1999/xlink" x="0px" y="0px"
	 viewBox="0 0 128 128" style="enable-background:new 0 0 128 128;" xml:space="preserve">
<g id="hairGroup_2_">
	<path id="hair_2_" style="fill:#AB872F;" d="M85.16,13.43c-2.25-3.73-6.52-5.88-11.13-5.61c-4.61,0.27-8.6,2.92-10.39,6.9
		c-1.1,2.42-1.55,5.36-1.38,8.98c0.16,3.42-0.03,4.3-2.4,5.91c-3.5,2.39-5.02,5.82-3.98,8.94c0.99,2.98,4.04,4.88,7.93,5.04
		c0.38,0.02,0.76,0.01,1.16,0c8.24-0.38,14.41-3.86,18.35-10.35c0.1-0.17,0.18-0.29,0.24-0.38C86.98,27.83,88.71,19.31,85.16,13.43z
		"/>
	
		<radialGradient id="hairHighlights_2_" cx="73.497" cy="106.8062" r="16.7746" gradientTransform="matrix(-0.4968 0.8679 0.6936 0.397 35.9588 -79.8809)" gradientUnits="userSpaceOnUse">
		<stop  offset="0.7816" style="stop-color:#BFA055;stop-opacity:0"/>
		<stop  offset="1" style="stop-color:#BFA055"/>
	</radialGradient>
	<path id="hairHighlights_1_" style="fill:url(#hairHighlights_2_);" d="M86.74,24.95c-0.42,3.2-2.33,6.67-3.18,7.9
		c-0.06,0.09-0.13,0.22-0.24,0.38c-3.94,6.49-10.11,9.98-18.35,10.36c-0.39,0.02-0.77,0.02-1.15,0.01
		c-3.89-0.16-7.06-2.03-7.93-5.05c-1.18-4.11,1.52-7.24,3.14-8.32c2.49-1.66,3.49-2.47,3.29-5.92c1.42,13.1,23.73,3.91,24.32,1.22
		C86.67,25.34,86.71,25.15,86.74,24.95z"/>
</g>
<g id="cape_1_">
	<g>
		
			<linearGradient id="SVGID_1_" gradientUnits="userSpaceOnUse" x1="79.5671" y1="78.7964" x2="51.0857" y2="40.6486" gradientTransform="matrix(1 0 0 -1 0 128)">
			<stop  offset="0" style="stop-color:#A52714"/>
			<stop  offset="0.529" style="stop-color:#D23F31"/>
			<stop  offset="1" style="stop-color:#ED4132"/>
		</linearGradient>
		<path style="fill:url(#SVGID_1_);" d="M88.03,32.22c0.6-0.37,1.38-0.22,1.78,0.36c2.1,3.04,7.69,13.17,5.57,32.47
			c-1.38,12.53-8.48,30.62-10.89,36.48c-0.35,0.86-1.44,1.09-2.12,0.47c-2.42-2.21-8.33-5.94-19.09-3.44
			c-3.41,0.79-14.05,11.45-22.6,1.85C35.4,94.48,39.25,91,39.3,82.47c0.05-10.98-11-14.35-14.61-16.15
			c-0.92-0.46-0.99-1.73-0.13-2.29c4.19-2.72,10.07-4,17.46-9.88c9.38-7.45,9.46-14.43,11.38-16.85c0.97-1.22,8.61-4.65,8.61-4.65
			s5.34,1.42,5.6,1.52l9.53,4.21c0.38,0.14,0.81,0.1,1.16-0.12L88.03,32.22z"/>
	</g>
	
		<radialGradient id="SVGID_2_" cx="74.8782" cy="64.4645" r="18.579" gradientTransform="matrix(0.9362 0.3515 0.6811 -1.8142 -39.1322 154.1688)" gradientUnits="userSpaceOnUse">
		<stop  offset="0" style="stop-color:#212121"/>
		<stop  offset="0.999" style="stop-color:#212121;stop-opacity:0"/>
	</radialGradient>
	<path style="fill:url(#SVGID_2_);" d="M90.44,73.86c5.41-16.75,1.49-30.51,1.49-30.51s-15.88,5.61-15.92,6.26
		S65.69,74.72,65.69,74.72S58.2,94.97,48.7,104.4c6.81-0.74,12.32-5.31,14.58-5.83c7.09-1.65,12.06-0.59,15.33,0.96
		C80.4,96.68,86.64,85.63,90.44,73.86z"/>
	
		<linearGradient id="SVGID_3_" gradientUnits="userSpaceOnUse" x1="44.4064" y1="72.7328" x2="59.0996" y2="47.3651" gradientTransform="matrix(1 0 0 -1 0 128)">
		<stop  offset="0" style="stop-color:#212121"/>
		<stop  offset="0.999" style="stop-color:#212121;stop-opacity:0"/>
	</linearGradient>
	<path style="fill:url(#SVGID_3_);" d="M67.97,43.79l-5.07-2.3c0,0-8.04,18.35-12.11,24.68c-4.08,6.33-11.5,16.3-11.5,16.3
		c0.01,8.53-3.9,12.02,1.39,17.95c0.35,0.4,0.72,0.75,1.08,1.08c3.39-4.07,8.99-12.02,13.19-17.98
		C66.3,67.41,67.97,43.79,67.97,43.79z"/>
</g>
<g id="shirt_1_">
	
		<linearGradient id="SVGID_4_" gradientUnits="userSpaceOnUse" x1="76.0072" y1="86.4147" x2="75.8346" y2="66.7366" gradientTransform="matrix(1 0 0 -1 0 128)">
		<stop  offset="0" style="stop-color:#42A5F5"/>
		<stop  offset="1" style="stop-color:#1E88E5"/>
	</linearGradient>
	<path style="fill:url(#SVGID_4_);" d="M103.54,24.53c-1.01-2.75-5.95-10.64-5.95-10.64l-5.74,2.75l2.28,9.86l-10.27,8.55
		c-4.83-1.12-9.26-1.06-12.95-0.52c-2.94-0.22-11.3-0.12-14.46,7.57l-4.58,10.9l-3.71,1.29c-1.03,2.15,2.35,4.09,4.5,5.11
		c2.15,1.03,4,0.23,5.76-2.04c1.05-1.36,3.49-5.17,5.27-8c0.4,3.03,0.68,6.73,0.7,11.23l8.33,4.01l10.14,0.43
		c3.7-8.37,5.61-14.74,6.58-19.25c3.35-3.78,12.03-13.6,13.15-15.16C103.97,28.7,104.55,27.28,103.54,24.53z"/>
	<g style="opacity:0.29;">
		<path style="fill:none;" d="M103.54,24.53c-1.01-2.75-5.95-10.64-5.95-10.64l-5.74,2.75l2.28,9.86l-10.27,8.55
			c-4.83-1.12-9.26-1.06-12.95-0.52c-2.94-0.22-11.3-0.12-14.46,7.57l-4.58,10.9l-3.71,1.29c-1.03,2.15,2.35,4.09,4.5,5.11
			c2.15,1.03,4,0.23,5.76-2.04c1.05-1.36,3.49-5.17,5.27-8c0.4,3.03,0.68,6.73,0.7,11.23l8.33,4.01l10.14,0.43
			c3.7-8.37,5.61-14.74,6.58-19.25c3.35-3.78,12.03-13.6,13.15-15.16C103.97,28.7,104.55,27.28,103.54,24.53z"/>
	</g>
</g>
<g id="hand_x5F_right">
	<g>
		
			<linearGradient id="SVGID_5_" gradientUnits="userSpaceOnUse" x1="50.3664" y1="75.2091" x2="43.8083" y2="89.4417" gradientTransform="matrix(1 0 0 -1 0 128)">
			<stop  offset="0" style="stop-color:#A52714"/>
			<stop  offset="0.529" style="stop-color:#D23F31"/>
			<stop  offset="1" style="stop-color:#DB4437"/>
		</linearGradient>
		<path style="fill:url(#SVGID_5_);" d="M41.61,38.79c0.59-1.08,2.44-1.82,3.77-2.23c0.81-0.25,1.67,0.17,1.99,0.94l1.97,4.72
			c0.24,0.58,0.13,1.25-0.29,1.73l-1.85,2.08c0.68,0.92,1.53,1.66,2.51,2.25c1.67,1.01,3.34,0.97,3.51,1.11
			c2.12,1.71,3.7,3.71,2.46,6.99c-1.23,3.26-5.47,2.26-5.47,2.26s-4.35-3.06-7.15-9.7C42.15,46.81,40.38,41.02,41.61,38.79z"/>
	</g>
	<g style="opacity:0.29;">
		<path style="fill:none;" d="M41.61,38.79c0.59-1.08,2.44-1.82,3.77-2.23c0.81-0.25,1.67,0.17,1.99,0.94l1.97,4.72
			c0.24,0.58,0.13,1.25-0.29,1.73l-1.85,2.08c0.68,0.92,1.53,1.66,2.51,2.25c1.67,1.01,3.34,0.97,3.51,1.11
			c2.12,1.71,3.7,3.71,2.46,6.99c-1.23,3.26-5.47,2.26-5.47,2.26s-4.35-3.06-7.15-9.7C42.15,46.81,40.38,41.02,41.61,38.79z"/>
	</g>
</g>
<linearGradient id="boot_1_" gradientUnits="userSpaceOnUse" x1="55.1292" y1="43.8074" x2="50.1291" y2="36.0574" gradientTransform="matrix(1 0 0 -1 0 128)">
	<stop  offset="7.612179e-04" style="stop-color:#851F10"/>
	<stop  offset="0.8407" style="stop-color:#A52714"/>
</linearGradient>
<path id="boot" style="fill:url(#boot_1_);" d="M52.68,83.01c0,0-5.54,5.15-5.95,7.46c-0.68,3.83,2.56,7.37,4.24,6
	c3.65-2.96,4.64-6.63,6.45-9.29C59.22,84.52,55.08,80.58,52.68,83.01z"/>
<g id="pants_1_">
	
		<linearGradient id="SVGID_6_" gradientUnits="userSpaceOnUse" x1="69.7895" y1="55.7622" x2="60.6409" y2="35.2211" gradientTransform="matrix(1 0 0 -1 0 128)">
		<stop  offset="0" style="stop-color:#42A5F5"/>
		<stop  offset="1" style="stop-color:#1E88E5"/>
	</linearGradient>
	<path style="fill:url(#SVGID_6_);" d="M71.4,66.93l-0.25,0.68c-0.45-1.66-1.51-3.18-2.95-3.95c0,0-5.78-1.91-7.23,0.78
		c0,0-6.93,10.92-8.03,13.96c-1.11,3.04-1.07,5.52,1.53,7.13c2.1,1.29,4.92,0.67,7.5-2.26c1.16-1.32,3.84-5.35,5.88-8.48
		c0.32-0.5,1.09-0.11,0.88,0.45l-12.12,31.91l5.41,3.44c0,0,16.1-25.73,18.47-30.65C82.86,75,83.7,67.79,83.7,67.79L71.4,66.93z"/>
</g>
<g id="belt_1_">
	<g style="opacity:0.4;">
		<path style="fill:#212121;" d="M61.24,64.05l2-3.26c0.28-0.63,1-0.89,1.58-0.56c6.62,3.79,10.14,4.78,17.67,4.34
			c0.69-0.04,1.26,0.58,1.21,1.33l-0.26,3.51c0,0-2.76,1.56-11.19-0.23C66.27,67.92,61.24,64.05,61.24,64.05z"/>
	</g>
	<g>
		<g>
			
				<linearGradient id="SVGID_7_" gradientUnits="userSpaceOnUse" x1="62.7009" y1="65.385" x2="84.3208" y2="60.6596" gradientTransform="matrix(1 0 0 -1 0 128)">
				<stop  offset="0" style="stop-color:#D32F2F"/>
				<stop  offset="0.2297" style="stop-color:#F44336"/>
				<stop  offset="0.7416" style="stop-color:#F44336"/>
				<stop  offset="1" style="stop-color:#D32F2F"/>
			</linearGradient>
			<path style="fill:url(#SVGID_7_);" d="M83.08,69.11c-8.48,0.45-13.79-1.08-21.19-5.01c-0.58-0.31-0.81-1.02-0.53-1.62l1.19-2.52
				c0.3-0.63,1.07-0.89,1.69-0.56c7.09,3.78,10.86,4.78,18.94,4.34c0.74-0.04,1.36,0.59,1.29,1.33l-0.23,2.9
				C84.19,68.59,83.69,69.08,83.08,69.11z"/>
		</g>
	</g>
	<g>
		<path style="fill:#FDD835;" d="M75.57,67.15l-2.31,1.53c-0.46,0.3-1.07,0.18-1.37-0.28l-1.53-2.31c-0.3-0.46-0.18-1.07,0.28-1.37
			l2.31-1.53c0.46-0.3,1.07-0.18,1.37,0.28l1.53,2.31C76.15,66.23,76.03,66.85,75.57,67.15z"/>
	</g>
</g>
<g id="emblem_2_">
	<g>
		<path style="fill:#E53935;" d="M70.48,45.19c1.28-0.56,3.66-1.34,7.09-1.47c0.22-0.01,0.43-0.01,0.63-0.01
			c3.09,0,4.98,0.84,5.95,1.44l-6.94,7.46L70.48,45.19z"/>
		<path style="fill:#FDD835;" d="M78.21,44.74L78.21,44.74c1.89,0,3.28,0.34,4.25,0.71l-5.23,5.62l-4.95-5.45
			c1.27-0.4,3.06-0.79,5.33-0.87C77.82,44.75,78.01,44.74,78.21,44.74 M78.21,42.67c-0.22,0-0.44,0-0.67,0.01
			c-5.77,0.21-8.73,2.2-8.73,2.2l8.4,9.25l8.48-9.12C85.68,45.02,83.5,42.67,78.21,42.67L78.21,42.67z"/>
	</g>
	
		<linearGradient id="SVGID_8_" gradientUnits="userSpaceOnUse" x1="77.247" y1="83.0924" x2="77.247" y2="73.2365" gradientTransform="matrix(1 0 0 -1 0 128)">
		<stop  offset="0" style="stop-color:#0D47A1;stop-opacity:0"/>
		<stop  offset="1" style="stop-color:#0D47A1"/>
	</linearGradient>
	<path style="opacity:0.42;fill:url(#SVGID_8_);enable-background:new    ;" d="M68.81,44.88c0,0,2.96-1.99,8.73-2.2
		c5.77-0.21,8.15,2.33,8.15,2.33l-8.48,9.12L68.81,44.88z"/>
</g>
<g id="shoe_x5F_left_1_">
	<g>
		
			<linearGradient id="SVGID_9_" gradientUnits="userSpaceOnUse" x1="66.0982" y1="27.458" x2="43.7842" y2="5.144" gradientTransform="matrix(1 0 0 -1 0 128)">
			<stop  offset="0" style="stop-color:#A52714"/>
			<stop  offset="0.529" style="stop-color:#D23F31"/>
			<stop  offset="1" style="stop-color:#ED4132"/>
		</linearGradient>
		<path style="fill:url(#SVGID_9_);" d="M57.86,97.77c0,0-1.61,9.66-5.58,15.98c-1.94,2.57-5.1,4.68-6.74,9.09
			c-0.75,2.03,3.63,3.96,7.04,2.09c2.05-1.13,5.15-8.03,5.15-8.03c2.74-4.98,10.9-12.92,10.9-12.92
			C67.06,96.68,57.86,97.77,57.86,97.77z"/>
	</g>
</g>
<g id="cape_x5F_top_1_">
	<g>
		<path style="fill:#ED4132;" d="M53.4,37.29c0,0,5.69-7.18,15.85-5.13c7.55,1.52,5.96,6.37,5.96,6.37s-3.81,0.03-7.24-0.76
			c-3.47-0.8-6.56-2.41-8.4-2.22L53.4,37.29z"/>
	</g>
	<g>
		<path style="fill:#ED4132;" d="M75.21,38.53c0,0,0.47-4.91,3.79-6.1s10.76-2.29,10.76-2.29s-2.33,4.56-4.13,6
			C81.83,39.18,75.21,38.53,75.21,38.53z"/>
	</g>
	<path style="opacity:0.4;fill:#212121;enable-background:new    ;" d="M57.13,40.69c0,0,3.26-2.94,8.22-1.75
		c7.14,1.71,9.86-0.41,9.86-0.41s5.25,1.89,10.22-0.5c3.41-1.64,4.34-7.89,4.34-7.89l-1.17,1.32c0,0-4.38,4.77-8.74,6.06
		c-3.19,0.95-4.64,1.01-4.64,1.01s-11.76-4.03-14.44-2.91C58.08,36.74,57.13,40.69,57.13,40.69z"/>
</g>
<g id="face_1_">
	<g id="neck_3_">
		<path style="fill:#C48E6A;" d="M75.01,31.25l-3.3,0.09l0.1,2.56c0,3.23,3.45,4.61,3.45,4.61s3.15-1.69,3.15-4.66l-0.1-2.69
			L75.01,31.25z"/>
	</g>
	<g id="head_1_">
		<path style="fill:#E0BB95;" d="M75.03,34.35L75.03,34.35L75.03,34.35c4.91-0.13,9.31-5.51,9.1-13.06
			c-0.21-7.51-4.99-11.1-9.76-10.97c-4.77,0.13-9.35,3.97-9.15,11.48C65.43,29.36,70.12,34.48,75.03,34.35z"/>
	</g>
	<g id="eyes_1_">
		
			<ellipse transform="matrix(0.9996 -0.0273 0.0273 0.9996 -0.6418 1.9244)" style="fill:#5D4037;" cx="70.15" cy="24.47" rx="1.39" ry="1.44"/>
		
			<ellipse transform="matrix(0.9996 -0.0273 0.0273 0.9996 -0.6315 2.1774)" style="fill:#5D4037;" cx="79.42" cy="24.21" rx="1.39" ry="1.44"/>
	</g>
	<path id="mouth_1_" style="fill:#6D4C41;" d="M77.24,29.42c-0.88,0.56-3.83,0.64-4.74,0.13c-0.52-0.29-1.04,0.19-0.81,0.65
		c0.22,0.45,1.86,1.48,3.25,1.44c1.39-0.04,2.95-1.15,3.14-1.62C78.28,29.56,77.75,29.1,77.24,29.42z"/>
	<path id="nose_1_" style="fill:#C48E6A;" d="M75.76,26.87c-0.03-0.01-0.06-0.02-0.09-0.02l-2,0.06c-0.03,0-0.06,0.01-0.09,0.03
		c-0.18,0.08-0.27,0.27-0.18,0.47s0.5,0.75,1.3,0.72c0.8-0.02,1.18-0.59,1.26-0.79C76.04,27.12,75.94,26.93,75.76,26.87z"/>
	<g id="eyebrows_2_">
		<path style="fill:#AB872F;" d="M72.21,21.79c-0.27-0.34-0.9-0.84-2.09-0.81s-1.79,0.56-2.04,0.92c-0.11,0.16-0.08,0.34,0.01,0.44
			c0.08,0.1,0.3,0.19,0.55,0.1s0.72-0.35,1.52-0.38c0.8-0.02,1.29,0.22,1.54,0.3c0.25,0.08,0.47-0.02,0.54-0.13
			C72.31,22.12,72.33,21.94,72.21,21.79z"/>
		<path style="fill:#AB872F;" d="M81.49,21.54c-0.27-0.34-0.9-0.84-2.09-0.81c-1.19,0.03-1.79,0.56-2.04,0.92
			c-0.11,0.16-0.08,0.34,0.01,0.44c0.08,0.1,0.3,0.19,0.55,0.1s0.72-0.35,1.52-0.38c0.8-0.02,1.29,0.22,1.54,0.3
			c0.25,0.08,0.47-0.02,0.54-0.13C81.58,21.87,81.61,21.69,81.49,21.54z"/>
	</g>
</g>
<g id="hairGroup_1_">
	<path id="hair" style="fill:#AB872F;" d="M62.1,27.48c0.16-3.78,0.09-6.4,0.28-8.01c0.16-1.37,1.76-11.19,11.65-11.65
		c11.3-0.52,12.92,10.81,12.92,10.81l0.07,4.4c0,0-0.25,2.15-1.33,4.77c-1.1,2.63-2.86,3.33-2.54,2c0.35-1.47,0.7-3.48,0.61-5.42
		c-0.04-0.85,0.09-4.01-1.71-4.32c-6.57-1.16-10.41-4.45-10.41-4.45c-0.86,2.13-3.76,4.32-4.8,5.13c-0.86,0.68-0.61,3.29-0.54,4.41
		l0.63,5.08C65.83,29.6,62.72,28.63,62.1,27.48z"/>
</g>
<g id="hand_x5F_left">
	<g>
		
			<linearGradient id="SVGID_10_" gradientUnits="userSpaceOnUse" x1="98.3682" y1="103.9186" x2="84.5591" y2="124.805" gradientTransform="matrix(1 0 0 -1 0 128)">
			<stop  offset="0" style="stop-color:#A52714"/>
			<stop  offset="0.529" style="stop-color:#D23F31"/>
			<stop  offset="1" style="stop-color:#DB4437"/>
		</linearGradient>
		<path style="fill:url(#SVGID_10_);" d="M92.68,25.08c-0.14-0.93-1.91-15.14-5.23-15.88c0,0-1.76,0.02-3.56,0.18
			c-1.41,0.05-2.35-0.32-2.62-1.22c-0.33-0.68,0.01-2.2,0.58-3.9c0.57-1.71,1.59-1.92,2.4-1.94c1.57-0.04,4.25,1.55,7.93,4.73
			c7.08,6.12,10.95,15.35,10.95,15.35C102.99,22.41,98.43,28.64,92.68,25.08z"/>
	</g>
	<g style="opacity:0.29;">
		<path style="fill:none;" d="M92.68,25.08c-0.14-0.93-1.91-15.14-5.23-15.88c0,0-1.76,0.02-3.56,0.18
			c-1.41,0.05-2.35-0.32-2.62-1.22c-0.33-0.68,0.01-2.2,0.58-3.9c0.57-1.71,1.59-1.92,2.4-1.94c1.57-0.04,4.25,1.55,7.93,4.73
			c7.08,6.12,10.95,15.35,10.95,15.35C102.99,22.41,98.43,28.64,92.68,25.08z"/>
	</g>
</g>
</svg>
