<svg enable-background="new 0 0 128 128" viewBox="0 0 128 128" xmlns="http://www.w3.org/2000/svg" xmlns:xlink="http://www.w3.org/1999/xlink"><linearGradient id="g" x1="64" x2="64" y1="34.333" y2="110.86" gradientUnits="userSpaceOnUse"><stop stop-color="#691B66" offset="0"/><stop stop-color="#C735C1" offset="1"/></linearGradient><path d="M48.75,31.83L31.5,108.17 c5.32,1.53,10.92,3.01,16.42,3.6c8.01,0.87,15.75-3.36,23.76-1.92c5.83,1.05,9.46,2.13,15.28,0.37c3.26-0.98,6.47-2.24,9.54-3.71 L76,31.83H48.75z" fill="url(#g)" stroke="#611A5E" stroke-miterlimit="10" stroke-width="2"/><g stroke="#0E2B52" stroke-miterlimit="10"><linearGradient id="f" x1="58.569" x2="58.569" y1="17.695" y2="39.902" gradientTransform="matrix(1.0651 -.1281 .1293 1.0755 -16.28 -1.3869)" gradientUnits="userSpaceOnUse"><stop stop-color="#0063B2" offset=".0028045"/><stop stop-color="#0160AC" offset=".1363"/><stop stop-color="#03569C" offset=".3109"/><stop stop-color="#084681" offset=".5082"/><stop stop-color="#0E305B" offset=".7223"/><stop stop-color="#15142B" offset=".9475"/><stop stop-color="#170D1F" offset="1"/></linearGradient><polygon points="35.75 14.48 48.3 10.05 64.31 33.01 57.56 33.55 47.69 13.62" fill="url(#f)" stroke-width="1.3676"/><linearGradient id="e" x1="62.767" x2="62.767" y1="27.316" y2="46.182" gradientTransform="matrix(.9919 -.2786 .2895 1.0307 -24.035 6.9353)" gradientUnits="userSpaceOnUse"><stop stop-color="#0063B2" offset=".0028045"/><stop stop-color="#0160AC" offset=".1363"/><stop stop-color="#03569C" offset=".3109"/><stop stop-color="#084681" offset=".5082"/><stop stop-color="#0E305B" offset=".7223"/><stop stop-color="#15142B" offset=".9475"/><stop stop-color="#170D1F" offset="1"/></linearGradient><polygon points="36.73 21.49 47.07 17.25 61.44 34.77 55.62 36.14 46.46 20.63" fill="url(#e)" stroke-width="1.2251"/><linearGradient id="d" x1="66.786" x2="66.786" y1="29.593" y2="47.655" gradientTransform="matrix(.909 -.4169 .4169 .909 -28.426 25.462)" gradientUnits="userSpaceOnUse"><stop stop-color="#0063B2" offset=".0028045"/><stop stop-color="#0160AC" offset=".1363"/><stop stop-color="#03569C" offset=".3109"/><stop stop-color="#084681" offset=".5082"/><stop stop-color="#0E305B" offset=".7223"/><stop stop-color="#15142B" offset=".9475"/><stop stop-color="#170D1F" offset="1"/></linearGradient><polygon points="36.92 29.34 44.58 24.45 60.51 37.56 55.14 39.77 44.39 28.05" fill="url(#d)" stroke-width="1.1665"/><linearGradient id="c" x1="133.39" x2="133.39" y1="26.606" y2="48.812" gradientTransform="matrix(-1.0651 -.1281 -.1293 1.0755 225.13 -1.3869)" gradientUnits="userSpaceOnUse"><stop stop-color="#0063B2" offset=".0028045"/><stop stop-color="#0160AC" offset=".1363"/><stop stop-color="#03569C" offset=".3109"/><stop stop-color="#084681" offset=".5082"/><stop stop-color="#0E305B" offset=".7223"/><stop stop-color="#15142B" offset=".9475"/><stop stop-color="#170D1F" offset="1"/></linearGradient><polygon points="92.25 14.48 79.7 10.05 63.69 33.01 70.44 33.55 80.31 13.62" fill="url(#c)" stroke-width="1.3676"/><linearGradient id="b" x1="138.32" x2="138.32" y1="47.737" y2="66.602" gradientTransform="matrix(-.9919 -.2786 -.2895 1.0307 232.88 6.9353)" gradientUnits="userSpaceOnUse"><stop stop-color="#0063B2" offset=".0028045"/><stop stop-color="#0160AC" offset=".1363"/><stop stop-color="#03569C" offset=".3109"/><stop stop-color="#084681" offset=".5082"/><stop stop-color="#0E305B" offset=".7223"/><stop stop-color="#15142B" offset=".9475"/><stop stop-color="#170D1F" offset="1"/></linearGradient><polygon points="91.27 21.49 80.93 17.25 66.56 34.77 72.38 36.14 81.54 20.63" fill="url(#b)" stroke-width="1.2251"/><linearGradient id="a" x1="140.28" x2="140.28" y1="63.296" y2="81.358" gradientTransform="matrix(-.909 -.4169 -.4169 .909 237.28 25.462)" gradientUnits="userSpaceOnUse"><stop stop-color="#0063B2" offset=".0028045"/><stop stop-color="#0160AC" offset=".1363"/><stop stop-color="#03569C" offset=".3109"/><stop stop-color="#084681" offset=".5082"/><stop stop-color="#0E305B" offset=".7223"/><stop stop-color="#15142B" offset=".9475"/><stop stop-color="#170D1F" offset="1"/></linearGradient><polygon points="91.08 29.34 83.42 24.45 67.49 37.56 72.86 39.77 83.61 28.05" fill="url(#a)" stroke-width="1.1665"/></g><path d="m59.27 33.84s-1.9-0.1-2.85-1.42c-2.06-2.86-3.19-10-3.19-20.11 0-0.46 0.07-4.58 2.98-7.49 1.88-1.89 4.56-2.85 7.96-2.85 3.37 0 6.01 0.94 7.83 2.8 2.74 2.8 2.8 6.74 2.79 7.51 0 10.14-1.13 17.28-3.19 20.13-0.93 1.29-2.74 1.41-2.86 1.42l-4.73-0.01-4.74 0.02z" fill="#1C1E1E"/><path d="m64.17 2.4c3.26 0 5.79 0.9 7.53 2.68 2.68 2.73 2.68 6.76 2.67 7.24 0 10.02-1.1 17.08-3.11 19.86-0.83 1.15-2.53 1.25-2.51 1.25l-4.74-0.01-4.7 0.01c-0.02 0-1.72-0.1-2.55-1.25-2.01-2.79-3.11-9.84-3.11-19.87 0-0.18 0.02-4.35 2.85-7.19 1.81-1.81 4.39-2.72 7.67-2.72m0-0.84c-11.45 0-11.36 10.59-11.36 10.76 0 6.86 0.52 16.54 3.27 20.35 1.09 1.51 3.19 1.59 3.19 1.59l4.74-0.01 4.74 0.01s2.1-0.08 3.19-1.59c2.74-3.81 3.27-13.5 3.27-20.35 0-0.17 0.41-10.76-11.04-10.76z"/><linearGradient id="u" x1="78.815" x2="84.271" y1="49.594" y2="36.305" gradientUnits="userSpaceOnUse"><stop stop-color="#0063B2" offset=".0028045"/><stop stop-color="#170D1F" offset="1"/></linearGradient><path d="m86.34 52.95c-0.67 0-1.3-0.25-1.76-0.72l-14.14-14.14c-0.97-0.97-0.97-2.56 0-3.54l1.95-1.94c0.31-0.31 0.99-0.49 1.87-0.49 1.44 0 3.04 0.47 3.64 1.07l9.84 13.81 3.19-4.09c0.38-0.32 0.96-0.53 1.56-0.53 0.73 0 1.42 0.32 1.9 0.87l0.22 0.25c0.43 0.5 0.64 1.15 0.59 1.82s-0.35 1.27-0.86 1.71l-6.19 5.33c-0.45 0.38-1.01 0.59-1.63 0.59h-0.18z" fill="url(#u)"/><path d="m74.26 32.62c1.36 0 2.74 0.45 3.24 0.88l9.44 13.25 0.78 1.09 0.82-1.06 2.71-3.48c0.35-0.27 0.78-0.42 1.23-0.42 0.59 0 1.14 0.25 1.52 0.69l0.22 0.25c0.72 0.84 0.63 2.1-0.21 2.82l-6.19 5.33c-0.45 0.39-0.96 0.47-1.31 0.47h-0.03-0.03-0.12c-0.54 0-1.04-0.2-1.41-0.57l-14.12-14.14c-0.78-0.78-0.78-2.05 0-2.83l1.94-1.94c0.17-0.17 0.71-0.34 1.52-0.34m0-1c-0.94 0-1.78 0.19-2.23 0.64l-1.94 1.94c-1.17 1.17-1.17 3.08 0 4.24l14.14 14.14c0.58 0.58 1.35 0.86 2.12 0.86h0.17 0.01c0.69 0 1.39-0.22 1.95-0.71l6.19-5.33c1.25-1.08 1.39-2.98 0.32-4.23l-0.22-0.25c-0.59-0.69-1.43-1.04-2.28-1.04-0.69 0-1.39 0.24-1.95 0.72l-2.78 3.56-9.5-13.33c-0.73-0.72-2.49-1.21-4-1.21z" fill="#0E2B52"/><linearGradient id="t" x1="63.177" x2="63.177" y1="56.031" y2="91.612" gradientUnits="userSpaceOnUse"><stop stop-color="#170D1F" offset="0"/><stop stop-color="#0063B2" offset=".9972"/></linearGradient><path d="m83.17 89.36c-1.68-2.64-9.48-11.79-14.32-16.87-0.82-0.86-1.93-1.34-3.12-1.34-1.14 0-2.22 0.45-3.02 1.25-6.19 6.2-13.52 13.79-15.4 15.89-3.62-0.65-8.31-2.38-9.86-2.97 1.12-2.11 5.6-10.49 9.47-16.72 0.03-0.05 0.45-0.68 1.08-1.63 5.25-7.88 6.92-10.42 7.46-11.28 0.99 0.35 3.94 1.48 8.28 3.93 0.76 0.43 1.54 0.65 2.31 0.65 2.25 0 3.81-1.83 4.5-2.82 0.22 0.24 0.54 0.58 1 1.06 0.47 0.5 1.12 1.17 1.23 1.32 0.88 1.9 12.22 17.48 16.1 22.78-0.7 1.08-3.34 4.98-5.71 6.75z" fill="url(#t)"/><path d="m55.68 56.29c1.23 0.46 3.97 1.58 7.83 3.76 0.84 0.47 1.7 0.71 2.55 0.71 2.12 0 3.68-1.46 4.54-2.55 0.17 0.18 0.37 0.39 0.6 0.63 0.45 0.47 1.07 1.12 1.18 1.27-0.01-0.01-0.1-0.14-0.14-0.33 0.22 1.04 8.74 12.85 16.03 22.82-0.84 1.26-2.99 4.33-5 6.02-2.36-3.43-10.13-12.34-14.07-16.49-0.92-0.96-2.15-1.5-3.48-1.5-1.28 0-2.48 0.5-3.38 1.4-6 6.01-13.08 13.34-15.23 15.7-3.19-0.61-7.12-2.01-8.97-2.7 1.44-2.71 5.58-10.38 9.18-16.18 0.04-0.07 0.45-0.68 1.07-1.61 4.65-6.93 6.52-9.75 7.29-10.95m-0.43-1.21c-0.04 0.2-8.65 13.1-8.75 13.25-4.5 7.25-9.75 17.25-9.75 17.25s6.25 2.5 10.75 3.25c1.53-1.75 9.16-9.66 15.57-16.08 0.74-0.74 1.7-1.11 2.67-1.11 1 0 2.01 0.4 2.76 1.18 5.55 5.86 14.17 16.09 14.5 17.26 2.97-1.89 6.5-7.5 6.5-7.5s-16.04-21.93-16.27-23c-0.04-0.18-2.69-2.8-2.73-3 0 0-1.69 3.18-4.44 3.18-0.63 0-1.32-0.17-2.06-0.58-5.5-3.1-8.75-4.1-8.75-4.1z" fill="#0E2B52"/><linearGradient id="s" x1="63.681" x2="63.681" y1="23.984" y2="64.169" gradientUnits="userSpaceOnUse"><stop stop-color="#0063B2" offset=".0028045"/><stop stop-color="#170D1F" offset="1"/></linearGradient><path d="m66.19 63.89c-0.97 0-1.89-0.37-2.59-1.04l-7.1-6.78c-0.63-0.6-1.03-1.4-1.13-2.26-0.17-1.42-0.55-3.75-1.38-6.86-1.4-5.21-3.1-9.75-4.22-12.76-0.41-1.1-0.73-1.96-0.91-2.52-0.75-2.32-0.7-4.08 0.13-5.22 0.85-1.17 2.58-1.77 5.12-1.77 4.58 0 10.17 1.97 10.23 1.99 1.08 0.41 2.26 0.78 3.51 1.17 5.56 1.75 11.87 3.73 11.13 10.02-0.02 0.21-0.08 0.44-0.15 0.69-0.8 2.51-4.81 15.26-5.76 19.22-0.17 0.7-0.52 1.33-1.01 1.82-0.83 0.82-2.06 2.05-3.21 3.2-0.72 0.71-1.66 1.1-2.66 1.1z" fill="url(#s)"/><path d="m54.11 25.19c4.49 0 10.01 1.94 10.04 1.95 1.1 0.42 2.29 0.79 3.55 1.18 5.64 1.77 11.48 3.61 10.79 9.48-0.02 0.18-0.07 0.38-0.13 0.6-0.8 2.52-4.82 15.28-5.77 19.26-0.15 0.61-0.45 1.15-0.88 1.58-0.83 0.82-2.07 2.05-3.22 3.2-0.61 0.61-1.43 0.95-2.3 0.95-0.84 0-1.64-0.32-2.25-0.9l-7.1-6.78c-0.54-0.52-0.89-1.21-0.98-1.96-0.17-1.43-0.55-3.79-1.4-6.93-1.41-5.23-3.11-9.79-4.23-12.8-0.41-1.09-0.73-1.95-0.9-2.49-0.7-2.16-0.68-3.77 0.06-4.77 0.75-1.04 2.34-1.57 4.72-1.57m0-1c-4.21 0-7.67 1.6-5.73 7.64 0.66 2.06 3.2 8.1 5.12 15.25 0.83 3.1 1.2 5.41 1.37 6.79 0.12 0.98 0.57 1.88 1.28 2.56l7.1 6.78c0.82 0.79 1.88 1.18 2.94 1.18 1.09 0 2.17-0.41 3-1.24 1.15-1.15 2.39-2.38 3.21-3.2 0.57-0.56 0.96-1.27 1.15-2.05 0.95-3.96 5-16.83 5.75-19.19 0.08-0.25 0.14-0.52 0.17-0.78 0.95-8.14-8.9-9.42-14.97-11.72 0 0-5.67-2.02-10.39-2.02z" fill="#0E2B52"/><path d="m64.08 30.48c-1.42 0-2.58-1.14-2.58-2.54v-3.19h5.74v3.19c0 1.4-1.16 2.54-2.58 2.54h-0.58z" fill="#C9C9C9"/><path d="m66.89 25.1v2.83c0 1.21-1 2.19-2.22 2.19h-0.59c-1.22 0-2.22-0.98-2.22-2.19v-2.83h5.03m0.71-0.71h-6.44v3.54c0 1.6 1.31 2.9 2.93 2.9h0.59c1.62 0 2.93-1.3 2.93-2.9v-3.54h-0.01z" fill="#A3A3A3"/><linearGradient id="r" x1="63.985" x2="63.985" y1="26.32" y2="4.9603" gradientUnits="userSpaceOnUse"><stop stop-color="#D1D1D1" offset="0"/><stop stop-color="#E0E0E0" offset=".1549"/><stop stop-color="#F1F1F1" offset=".4077"/><stop stop-color="#FCFCFC" offset=".6793"/><stop stop-color="#fff" offset="1"/></linearGradient><path d="m63.99 26.5c-4.09 0-8.5-3.17-8.5-10.14 0-5.58 3.25-11.6 8.5-11.6s8.5 6.02 8.5 11.6c-0.01 6.96-4.41 10.14-8.5 10.14z" fill="url(#r)"/><path d="m63.99 5.02c5.09 0 8.23 5.88 8.23 11.34 0 4.76-2.58 9.88-8.23 9.88s-8.23-5.12-8.23-9.88c-0.01-5.45 3.14-11.34 8.23-11.34m0-0.52c-4.55 0-8.76 4.86-8.76 11.86 0 6.96 4.34 10.4 8.76 10.4s8.76-3.44 8.76-10.4c-0.01-7-4.22-11.86-8.76-11.86z" fill="#BDBDBD"/><path d="m62.78 19.74c0.08 0.19 1.21 1.21 1.21 1.21s1.13-1.02 1.21-1.21c0.07-0.19-2.5-0.19-2.42 0z" fill="#828282"/><linearGradient id="q" x1="63.985" x2="63.985" y1="20.759" y2="24.191" gradientUnits="userSpaceOnUse"><stop stop-color="#4D4D4D" offset="0"/><stop stop-color="#2F2F2F" offset=".2554"/><stop stop-color="#151515" offset=".5415"/><stop stop-color="#060606" offset=".7987"/><stop offset="1"/></linearGradient><path d="m68.92 20.75c-3.13 1.71-6.4 1.71-9.87 0-0.24-0.12 1.1 3.43 4.94 3.43s5.17-3.56 4.93-3.43z" fill="url(#q)"/><path d="m62.48 16.5c-0.24 0-0.48-0.02-0.71-0.05l-0.34-0.05-0.33-0.07c-0.22-0.04-0.43-0.11-0.65-0.17s-0.42-0.13-0.63-0.2c-0.82-0.31-1.61-0.69-2.35-1.17l-0.51-0.33 0.13-0.43c0.06-0.19 0.12-0.37 0.2-0.55l0.11-0.28 0.13-0.27c0.08-0.18 0.18-0.36 0.28-0.54s0.22-0.35 0.35-0.53l0.09 0.02c-0.06 0.38-0.12 0.77-0.18 1.15l-0.2 1.15-0.04-0.08 1.17 0.55 1.18 0.58 1.18 0.59c0.39 0.19 0.78 0.4 1.17 0.6l-0.05 0.08z"/><radialGradient id="p" cx="60.467" cy="17.09" r="3.3759" gradientTransform="matrix(.9263 .3768 -.1497 .368 6.8678 -11.944)" gradientUnits="userSpaceOnUse"><stop stop-color="#f00" offset=".0026442"/><stop stop-color="#F50000" offset=".0722"/><stop stop-color="#980000" offset=".7116"/><stop stop-color="#730000" offset="1"/></radialGradient><path d="m60.63 18.05c-0.42 0-0.89-0.11-1.3-0.31-1.13-0.54-1.95-1.51-1.99-1.55l-0.34-0.41 0.52-0.06s0.36-0.04 0.85-0.04c0.63 0 1.17 0.07 1.6 0.21s1.46 0.52 1.75 1.09c0.08 0.17 0.1 0.34 0.05 0.5-0.11 0.35-0.54 0.57-1.14 0.57z" fill="url(#p)"/><path d="m58.38 15.96c0.46 0 1.03 0.04 1.51 0.19 0.97 0.31 1.75 0.81 1.62 1.23-0.08 0.24-0.42 0.38-0.87 0.38-0.35 0-0.77-0.09-1.18-0.28-1.1-0.52-1.9-1.48-1.9-1.48s0.35-0.04 0.82-0.04m0-0.57c-0.5 0-0.87 0.04-0.89 0.05l-1.05 0.12 0.68 0.81c0.04 0.04 0.9 1.06 2.08 1.63 0.45 0.22 0.96 0.34 1.43 0.34 0.73 0 1.26-0.29 1.41-0.77 0.24-0.75-0.48-1.46-1.98-1.95-0.45-0.16-1.02-0.23-1.68-0.23z"/><path d="m65.49 16.5c0.24 0 0.48-0.02 0.71-0.05l0.34-0.05 0.33-0.07c0.22-0.04 0.43-0.11 0.65-0.17s0.42-0.13 0.63-0.2c0.82-0.31 1.61-0.69 2.35-1.17l0.51-0.33-0.13-0.43c-0.06-0.19-0.12-0.37-0.2-0.55l-0.11-0.28-0.13-0.27c-0.08-0.18-0.18-0.36-0.28-0.54s-0.22-0.35-0.35-0.53l-0.09 0.02c0.06 0.38 0.12 0.77 0.18 1.15l0.2 1.15 0.04-0.08-1.18 0.57-1.18 0.58-1.18 0.59c-0.39 0.19-0.78 0.4-1.17 0.6l0.06 0.06z"/><radialGradient id="o" cx="128.53" cy="17.39" r="3.3754" gradientTransform="matrix(-.9263 .3768 .1497 .368 184.11 -37.705)" gradientUnits="userSpaceOnUse"><stop stop-color="#f00" offset=".0026442"/><stop stop-color="#F50000" offset=".0722"/><stop stop-color="#980000" offset=".7116"/><stop stop-color="#730000" offset="1"/></radialGradient><path d="m67.34 18.05c-0.6 0-1.03-0.21-1.14-0.57-0.05-0.16-0.03-0.33 0.05-0.5 0.29-0.57 1.32-0.96 1.75-1.09 0.43-0.14 0.96-0.21 1.6-0.21 0.49 0 0.85 0.04 0.85 0.04l0.52 0.06-0.34 0.4c-0.04 0.04-0.86 1.01-1.99 1.55-0.41 0.2-0.88 0.32-1.3 0.32z" fill="url(#o)"/><path d="m69.59 15.96c0.47 0 0.82 0.04 0.82 0.04s-0.81 0.96-1.89 1.48c-0.41 0.19-0.83 0.28-1.18 0.28-0.45 0-0.8-0.14-0.87-0.38-0.14-0.42 0.64-0.92 1.62-1.23 0.47-0.15 1.04-0.19 1.5-0.19m0-0.57c-0.66 0-1.23 0.07-1.68 0.22-1.5 0.48-2.23 1.2-1.98 1.95 0.16 0.48 0.68 0.77 1.41 0.77 0.47 0 0.97-0.12 1.43-0.34 1.19-0.57 2.05-1.58 2.08-1.63l0.68-0.81-1.05-0.12c-0.02 0-0.39-0.04-0.89-0.04z"/><path d="m62.8 13.7s0.45 1.69-0.13 2.63" fill="none" stroke="#B3B3B3" stroke-miterlimit="10" stroke-width=".522"/><path d="m65.14 13.7s-0.45 1.69 0.13 2.63" fill="none" stroke="#B3B3B3" stroke-miterlimit="10" stroke-width=".522"/><radialGradient id="n" cx="59.684" cy="34.333" r="3.8409" gradientTransform="matrix(.9649 -.0175 .0701 1.0351 6.3852 3.1926)" gradientUnits="userSpaceOnUse"><stop stop-color="#f00" offset=".0026442"/><stop stop-color="#F50000" offset=".0722"/><stop stop-color="#980000" offset=".7116"/><stop stop-color="#730000" offset="1"/></radialGradient><polygon points="64.33 36.39 66 32.47 68.26 36.29 66.69 42.89" fill="url(#n)"/><path d="m66.04 33.18 1.88 3.16-1.29 5.44-1.96-5.38 1.37-3.22m-0.09-1.41-0.5 1.16-1.37 3.22-0.1 0.23 0.09 0.24 1.95 5.38 0.73 2.01 0.49-2.08 1.29-5.44 0.06-0.25-0.13-0.22-1.88-3.16-0.63-1.09z"/><linearGradient id="m" x1="29.486" x2="55.539" y1="31.867" y2="27.85" gradientUnits="userSpaceOnUse"><stop stop-color="#0063B2" offset=".0028045"/><stop stop-color="#170D1F" offset="1"/></linearGradient><path d="m33.55 40c-1.67 0-3.2-1.04-3.8-2.59l-4.12-10.63c-0.4-1.03 0.11-2.2 1.15-2.6l2.74-1.06c0.23-0.09 0.47-0.14 0.72-0.14 0.83 0 1.58 0.52 1.88 1.28l2.82 7.26 16.09-4.28c0.33-0.09 0.67-0.13 1.02-0.13 1.81 0 3.39 1.22 3.85 2.96 0.56 2.12-0.7 4.3-2.82 4.87l-18 4.79c-0.56 0.18-1.04 0.27-1.53 0.27z" fill="url(#m)"/><path d="m30.23 23.37c0.67 0 1.28 0.41 1.51 1.03l2.69 6.93 0.26 0.66 0.68-0.18 15.75-4.19c0.3-0.08 0.61-0.12 0.91-0.12 1.63 0 3.06 1.1 3.47 2.66 0.24 0.92 0.11 1.89-0.37 2.72s-1.25 1.42-2.18 1.67l-17.96 4.77h-0.04l-0.1 0.02-0.04 0.02c-0.41 0.16-0.85 0.24-1.29 0.24-1.51 0-2.89-0.94-3.44-2.34l-4.12-10.63c-0.32-0.83 0.09-1.77 0.92-2.09l2.74-1.06c0.22-0.08 0.41-0.11 0.61-0.11m0-0.79c-0.29 0-0.58 0.05-0.86 0.16l-2.74 1.06c-1.23 0.48-1.85 1.88-1.37 3.11l4.12 10.63c0.68 1.76 2.38 2.85 4.17 2.85 0.52 0 1.05-0.09 1.57-0.29 0.02 0 0.04 0 0.06-0.01l18-4.79c2.33-0.62 3.72-3.03 3.1-5.35-0.52-1.95-2.3-3.25-4.23-3.25-0.37 0-0.74 0.05-1.12 0.15l-15.75 4.19-2.69-6.93c-0.38-0.95-1.29-1.53-2.26-1.53z" fill="#0E2B52"/><path d="m40.97 123.2c-5.94 0-9.07-1.2-10.64-2.2-0.28-0.18-0.25-0.45-0.24-0.53 0.02-0.1 0.09-0.34 0.4-0.4 17.72-3.73 18.31-5.13 18.53-5.66 0.12-0.28 0.09-0.58-0.07-0.84-3.9-6.06-12.39-21.7-15.86-28.14-0.12-0.22-0.05-0.41 0.01-0.5 0.07-0.12 0.23-0.25 0.43-0.25 0.05 0 0.1 0.01 0.15 0.02l13.13 3.78c0.17 0.05 0.29 0.17 0.35 0.34l9.65 31c0.06 0.29 0.01 0.56-0.17 0.81-0.9 1.26-4.5 1.63-6.43 1.84-0.42 0.04-0.8 0.08-1.1 0.12-2.96 0.4-5.7 0.61-8.14 0.61 0.01 0 0.01 0 0 0z" fill="#0E2B52"/><path d="m33.8 85.39 12.78 3.68 9.61 30.88c0.03 0.17-0.01 0.24-0.06 0.31-0.73 1.02-4.41 1.41-5.99 1.58-0.43 0.05-0.81 0.09-1.12 0.13-2.94 0.4-5.65 0.6-8.05 0.6-5.47 0-8.46-1.02-10.04-1.94 17.75-3.75 18.35-5.19 18.68-5.97 0.2-0.48 0.15-0.99-0.12-1.42-3.84-5.98-12.14-21.26-15.69-27.85m-0.26-1.35c-0.82 0-1.43 0.9-1 1.69 3.27 6.08 11.94 22.05 15.88 28.19 0.89 1.39-12.71 4.41-18.06 5.53-1.01 0.21-1.24 1.54-0.37 2.09 1.7 1.08 4.96 2.3 10.98 2.3 2.31 0 5.03-0.18 8.23-0.61 2.28-0.31 8.91-0.54 8.22-3.6l-9.65-31c-0.11-0.37-0.41-0.65-0.78-0.76l-13.13-3.78c-0.11-0.04-0.22-0.05-0.32-0.05z"/><path d="m101.45 118.52c-0.75 0-1.53-0.02-2.33-0.07-6.89-0.39-9.03-1.91-9.62-3.11l-8.55-23.94c-0.04-0.12-0.02-0.25 0.07-0.34l8.83-9.88c0.07-0.08 0.15-0.12 0.25-0.12 0.15 0 0.32 0.09 0.34 0.3 0.75 6.56 2.59 22.44 3.39 28.19 0.07 0.51 0.24 1.71 15.39 7.56 0.21 0.08 0.22 0.27 0.22 0.35-0.01 0.08-0.04 0.25-0.26 0.3-1.69 0.34-4.39 0.76-7.73 0.76z" fill="#0E2B52"/><path d="m89.94 81.89c0.64 5.6 2.52 21.89 3.34 27.74 0.11 0.79 0.28 1.99 15.06 7.73-1.66 0.3-4.04 0.61-6.9 0.61-0.76 0-1.54-0.02-2.3-0.07-7.08-0.4-8.75-2.02-9.14-2.76l-8.5-23.81 8.44-9.44m0.15-1.38c-0.24 0-0.47 0.09-0.66 0.3l-8.83 9.88c-0.22 0.24-0.28 0.58-0.17 0.89l8.57 24c1.41 2.89 8.08 3.3 10.08 3.42 0.82 0.05 1.61 0.07 2.36 0.07 3.3 0 5.99-0.39 7.83-0.77 0.87-0.18 0.96-1.38 0.13-1.7-4.86-1.88-14.87-5.89-15.05-7.12-0.83-5.94-2.74-22.48-3.39-28.18-0.04-0.49-0.45-0.79-0.87-0.79z"/><linearGradient id="l" x1="23.415" x2="35.025" y1="4.2672" y2="30.012" gradientUnits="userSpaceOnUse"><stop stop-color="#17CB1F" offset="0"/><stop stop-color="#0BB42E" offset=".356"/><stop stop-color="#03A438" offset=".7189"/><stop stop-color="#009E3C" offset=".9972"/></linearGradient><path d="m34.24 9.14c0.36 0.36 0.96 0.36 1.33 0 0.36-0.36 0.36-0.96 0-1.33l-1.27-1.57c-1.32-1.57-2.54-0.82-2.54-0.82 0.03-0.16 0.03-0.32-0.03-0.48-0.18-0.48-0.72-0.73-1.2-0.55 0 0-1.58 0.26-1.68 0.13-0.32-0.4-0.92-0.46-1.32-0.14l-2.23 1.82c-0.25 0.2-2.31 4.39-2.71 7.97-0.67 6 0.7 13.92 4.17 21 0 0 1.39-3.67 3.04-5.4 1.18-1.26 3.18-2.39 5.26-2.43 0 0-0.53-2.46-4.36-8.13-1.65-2.44-2.19-4.07-2.13-5.37h2.87c0.52 0 0.94-0.42 0.94-0.94s-0.42-0.94-0.94-0.94h-1.63c-2.12-1.19 0.04-3.15 1.15-3.92 0.67-0.46 1.35-0.21 1.35-0.21l1.93 1.31z" fill="url(#l)" stroke="#009245" stroke-linecap="round" stroke-linejoin="round" stroke-miterlimit="10"/><linearGradient id="k" x1="90.522" x2="101.4" y1="24.083" y2="48.207" gradientUnits="userSpaceOnUse"><stop stop-color="#17CB1F" offset="0"/><stop stop-color="#0BB42E" offset=".356"/><stop stop-color="#03A438" offset=".7189"/><stop stop-color="#009E3C" offset=".9972"/></linearGradient><path d="m103.92 24.67-2.92-2.59c-0.92-0.42-0.78-0.55-1.42 0-1.17 1 1.17 2.5 1.17 2.5-0.07 0.09-2.78-1.57-2.78-1.57-0.38-0.28-0.91-0.19-1.19 0.19l-0.03 0.04c-0.28 0.38-0.19 0.91 0.19 1.19l1.82 1.33c0.11 0.08-2.85-0.89-2.85-0.89-0.45-0.14-0.93 0.1-1.07 0.55l-0.02 0.05c-0.15 0.45 0.1 0.93 0.55 1.07l1.85 0.6c0 0.01 0 0.01 0.01 0.02 0 0 0.33 0.82 0.67 1.71 0.43 1.12 0.39 2.46-0.81 2.54l-1.33-0.08c-0.81-0.06-2.25 1.5 0.08 1.92l3.28 0.45c-0.2 1.44-1.16 2.86-4.27 4.78-5.51 3.42-6.97 5.3-6.97 5.3 1.7 0.76 2.87 2.4 3.33 3.87 0.64 2.03-0.22 6.58-0.22 6.58 5.79-4.73 10.22-13.04 11.86-17.59v0c1.28-3.55 0.76-7.55 0.84-7.96 0 0 0.43-3.71 0.23-4.01z" fill="url(#k)" stroke="#009245" stroke-linecap="round" stroke-linejoin="round" stroke-miterlimit="10"/><defs><path id="j" d="m55.01 24.3-0.4-13.82c0-4.55 4.24-8.02 8.79-8.02h1.32c4.55 0 8.74 3.47 8.74 8.02l-0.4 13.75-18.05 0.07z"/></defs><clipPath id="i"><use xlink:href="#j"/></clipPath><g clip-path="url(#i)"><radialGradient id="h" cx="240.81" cy="-23.604" r="12.949" gradientTransform="matrix(.796 6.8205e-5 -6.8205e-5 .796 -127.66 19.098)" gradientUnits="userSpaceOnUse"><stop stop-color="#656464" offset=".0037861"/><stop stop-color="#1C1E1E" offset="1"/></radialGradient><path d="m74.21 11.89s0.27-9.56-10.16-9.56-10.2 9.56-10.2 9.56 0.09 12.22 0.86 13.81 1.93 1.53 1.93 1.53-0.54-7.13-0.61-10.49c-0.01-0.78-0.25-3.69 1.39-4.05 6.01-1.35 9.41-4.53 9.41-4.53 0.88 1.93 3.65 3.81 4.64 4.53 0.81 0.59 0.7 3.01 0.69 4.04l-0.82 10.49s1.26 0.1 2.05-1.52 0.82-13.81 0.82-13.81z" fill="url(#h)"/></g></svg>
