<svg enable-background="new 0 0 128 128" viewBox="0 0 128 128" xmlns="http://www.w3.org/2000/svg" xmlns:xlink="http://www.w3.org/1999/xlink"><linearGradient id="l" x1="63.988" x2="63.988" y1="97.18" y2="20.778" gradientTransform="matrix(1 0 0 -1 0 131.43)" gradientUnits="userSpaceOnUse"><stop stop-color="#691B66" offset="0"/><stop stop-color="#C735C1" offset="1"/></linearGradient><path d="m48.76 31.75-17.22 76.21c5.31 1.53 10.9 3.01 16.39 3.59 8 0.87 15.72-3.35 23.72-1.92 5.82 1.05 9.44 2.13 15.25 0.37 3.25-0.98 6.46-2.24 9.52-3.7l-20.45-74.55h-27.21z" fill="url(#l)" stroke="#611A5E" stroke-miterlimit="10" stroke-width="2"/><g stroke="#0E2B52" stroke-miterlimit="10"><linearGradient id="g" x1="4.0756" x2="4.0756" y1="87.093" y2="64.923" gradientTransform="matrix(1.0651 -.1281 -.1293 -1.0755 55.328 104.29)" gradientUnits="userSpaceOnUse"><stop stop-color="#0063B2" offset=".0028045"/><stop stop-color="#0160AC" offset=".1363"/><stop stop-color="#03569C" offset=".3109"/><stop stop-color="#084681" offset=".5082"/><stop stop-color="#0E305B" offset=".7223"/><stop stop-color="#15142B" offset=".9475"/><stop stop-color="#170D1F" offset="1"/></linearGradient><polygon points="35.78 14.43 48.31 10.01 64.3 32.93 57.56 33.47 47.7 13.57" fill="url(#g)" stroke-width="1.3676"/><linearGradient id="f" x1="-20.977" x2="-20.977" y1="23.338" y2="4.5029" gradientTransform="matrix(.9919 -.2786 -.2895 -1.0307 73.709 35.757)" gradientUnits="userSpaceOnUse"><stop stop-color="#0063B2" offset=".0028045"/><stop stop-color="#0160AC" offset=".1363"/><stop stop-color="#03569C" offset=".3109"/><stop stop-color="#084681" offset=".5082"/><stop stop-color="#0E305B" offset=".7223"/><stop stop-color="#15142B" offset=".9475"/><stop stop-color="#170D1F" offset="1"/></linearGradient><polygon points="36.76 21.43 47.09 17.19 61.43 34.68 55.62 36.05 46.48 20.57" fill="url(#f)" stroke-width="1.2251"/><linearGradient id="e" x1="-60.917" x2="-60.917" y1="-47.854" y2="-65.886" gradientTransform="matrix(.909 -.4169 -.4169 -.909 80.062 -44.444)" gradientUnits="userSpaceOnUse"><stop stop-color="#0063B2" offset=".0028045"/><stop stop-color="#0160AC" offset=".1363"/><stop stop-color="#03569C" offset=".3109"/><stop stop-color="#084681" offset=".5082"/><stop stop-color="#0E305B" offset=".7223"/><stop stop-color="#15142B" offset=".9475"/><stop stop-color="#170D1F" offset="1"/></linearGradient><polygon points="36.95 29.26 44.6 24.38 60.5 37.47 55.14 39.68 44.41 27.98" fill="url(#e)" stroke-width="1.1665"/><linearGradient id="d" x1="-673.97" x2="-673.97" y1="167.85" y2="145.68" gradientTransform="matrix(-1.0651 -.1281 .1293 -1.0755 -659.98 104.29)" gradientUnits="userSpaceOnUse"><stop stop-color="#0063B2" offset=".0028045"/><stop stop-color="#0160AC" offset=".1363"/><stop stop-color="#03569C" offset=".3109"/><stop stop-color="#084681" offset=".5082"/><stop stop-color="#0E305B" offset=".7223"/><stop stop-color="#15142B" offset=".9475"/><stop stop-color="#170D1F" offset="1"/></linearGradient><polygon points="92.19 14.43 79.66 10.01 63.68 32.93 70.42 33.47 80.27 13.57" fill="url(#d)" stroke-width="1.3676"/><linearGradient id="c" x1="-705.59" x2="-705.59" y1="208.39" y2="189.55" gradientTransform="matrix(-.9919 -.2786 .2895 -1.0307 -678.37 35.757)" gradientUnits="userSpaceOnUse"><stop stop-color="#0063B2" offset=".0028045"/><stop stop-color="#0160AC" offset=".1363"/><stop stop-color="#03569C" offset=".3109"/><stop stop-color="#084681" offset=".5082"/><stop stop-color="#0E305B" offset=".7223"/><stop stop-color="#15142B" offset=".9475"/><stop stop-color="#170D1F" offset="1"/></linearGradient><polygon points="91.21 21.43 80.89 17.19 66.54 34.68 72.35 36.05 81.5 20.57" fill="url(#c)" stroke-width="1.2251"/><linearGradient id="b" x1="-726.82" x2="-726.82" y1="257.55" y2="239.52" gradientTransform="matrix(-.909 -.4169 .4169 -.909 -684.72 -44.444)" gradientUnits="userSpaceOnUse"><stop stop-color="#0063B2" offset=".0028045"/><stop stop-color="#0160AC" offset=".1363"/><stop stop-color="#03569C" offset=".3109"/><stop stop-color="#084681" offset=".5082"/><stop stop-color="#0E305B" offset=".7223"/><stop stop-color="#15142B" offset=".9475"/><stop stop-color="#170D1F" offset="1"/></linearGradient><polygon points="91.02 29.26 83.38 24.38 67.47 37.47 72.83 39.68 83.57 27.98" fill="url(#b)" stroke-width="1.1665"/></g><linearGradient id="a" x1="78.786" x2="84.232" y1="81.941" y2="95.208" gradientTransform="matrix(1 0 0 -1 0 131.43)" gradientUnits="userSpaceOnUse"><stop stop-color="#0063B2" offset=".0028045"/><stop stop-color="#170D1F" offset="1"/></linearGradient><path d="M86.29,52.84c-0.67,0-1.3-0.25-1.76-0.72L70.42,38c-0.97-0.97-0.97-2.56,0-3.53l1.94-1.94 c0.31-0.31,0.99-0.49,1.87-0.49c1.44,0,3.04,0.47,3.63,1.07l9.83,13.79l3.18-4.08c0.38-0.32,0.96-0.53,1.56-0.53 c0.73,0,1.42,0.32,1.9,0.87l0.22,0.25c0.9,1.04,0.78,2.63-0.26,3.52l-6.18,5.32c-0.45,0.39-1.01,0.59-1.62,0.59H86.29z" fill="url(#a)"/><path d="m74.23 32.54c1.36 0 2.74 0.45 3.23 0.88l9.42 13.23 0.78 1.09 0.82-1.06 2.71-3.47c0.35-0.27 0.78-0.42 1.23-0.42 0.59 0 1.14 0.25 1.52 0.69l0.22 0.25c0.72 0.84 0.63 2.1-0.21 2.82l-6.18 5.32c-0.45 0.39-0.96 0.47-1.31 0.47h-0.18c-0.54 0-1.04-0.2-1.41-0.57l-14.1-14.12c-0.78-0.78-0.78-2.05 0-2.83l1.94-1.94c0.17-0.17 0.71-0.34 1.52-0.34m0-1c-0.94 0-1.78 0.19-2.23 0.64l-1.94 1.94c-1.17 1.17-1.17 3.07 0 4.23l14.12 14.12c0.58 0.58 1.35 0.86 2.12 0.86h0.18c0.69 0 1.39-0.22 1.95-0.71l6.18-5.32c1.25-1.08 1.39-2.98 0.32-4.22l-0.22-0.25c-0.59-0.69-1.43-1.04-2.28-1.04-0.69 0-1.39 0.24-1.95 0.72l-2.78 3.55-9.48-13.31c-0.72-0.72-2.48-1.21-3.99-1.21z" fill="#0E2B52"/><linearGradient id="v" x1="63.164" x2="63.164" y1="75.518" y2="39.995" gradientTransform="matrix(1 0 0 -1 0 131.43)" gradientUnits="userSpaceOnUse"><stop stop-color="#170D1F" offset="0"/><stop stop-color="#0063B2" offset=".9972"/></linearGradient><path d="m83.13 89.19c-1.68-2.64-9.46-11.77-14.3-16.84-0.82-0.86-1.93-1.34-3.11-1.34-1.14 0-2.22 0.45-3.02 1.25-6.18 6.19-13.5 13.77-15.37 15.86-3.61-0.65-8.3-2.38-9.84-2.97 1.12-2.11 5.59-10.47 9.45-16.69 0.03-0.05 0.45-0.67 1.08-1.62 5.24-7.87 6.91-10.4 7.45-11.27 0.99 0.35 3.93 1.48 8.27 3.92 0.76 0.43 1.54 0.65 2.31 0.65 2.25 0 3.8-1.83 4.49-2.82 0.23 0.24 0.55 0.58 1.01 1.07 0.47 0.49 1.1 1.15 1.22 1.31 0.87 1.87 12.21 17.43 16.09 22.73-0.73 1.09-3.37 4.99-5.73 6.76z" fill="url(#v)"/><path d="m55.68 56.17c1.23 0.46 3.96 1.58 7.82 3.75 0.84 0.47 1.7 0.71 2.55 0.71 2.12 0 3.67-1.46 4.53-2.55 0.17 0.18 0.37 0.39 0.6 0.63 0.45 0.47 1.07 1.12 1.18 1.27-0.01-0.01-0.1-0.14-0.14-0.33 0.22 1.04 8.73 12.83 16 22.78-0.84 1.26-2.99 4.32-4.99 6.01-2.36-3.42-10.11-12.32-14.05-16.46-0.92-0.96-2.15-1.5-3.47-1.5-1.28 0-2.48 0.5-3.37 1.4-5.99 6-13.06 13.32-15.21 15.67-3.18-0.61-7.11-2.01-8.96-2.7 1.44-2.71 5.57-10.36 9.16-16.15 0.04-0.07 0.45-0.68 1.07-1.6 4.65-6.91 6.51-9.73 7.28-10.93m-0.43-1.21c-0.04 0.2-8.64 13.08-8.74 13.23-4.49 7.24-9.73 17.22-9.73 17.22s6.24 2.5 10.73 3.24c1.53-1.75 9.14-9.64 15.54-16.05 0.74-0.74 1.7-1.11 2.67-1.11 1 0 2.01 0.4 2.76 1.18 5.54 5.85 14.15 16.06 14.48 17.23 2.97-1.89 6.49-7.49 6.49-7.49s-16.02-21.89-16.25-22.96c-0.04-0.18-2.69-2.8-2.73-3 0 0-1.69 3.17-4.43 3.17-0.63 0-1.32-0.17-2.06-0.58-5.48-3.08-8.73-4.08-8.73-4.08z" fill="#0E2B52"/><linearGradient id="u" x1="63.684" x2="63.684" y1="107.51" y2="67.393" gradientTransform="matrix(1 0 0 -1 0 131.43)" gradientUnits="userSpaceOnUse"><stop stop-color="#0063B2" offset=".0028045"/><stop stop-color="#170D1F" offset="1"/></linearGradient><path d="m66.17 63.76c-0.97 0-1.89-0.37-2.59-1.04l-7.08-6.77c-0.63-0.6-1.03-1.4-1.13-2.26-0.17-1.42-0.55-3.74-1.38-6.85-1.4-5.2-3.09-9.73-4.21-12.74-0.41-1.1-0.73-1.96-0.91-2.52-0.75-2.32-0.7-4.07 0.13-5.21 0.85-1.17 2.58-1.77 5.11-1.77 4.57 0 10.15 1.97 10.21 1.99 1.08 0.41 2.26 0.78 3.5 1.17 5.55 1.75 11.85 3.72 11.11 10-0.02 0.21-0.07 0.43-0.15 0.69-0.8 2.51-4.8 15.23-5.75 19.19-0.17 0.7-0.52 1.33-1.01 1.82-0.83 0.82-2.06 2.05-3.2 3.19-0.71 0.72-1.65 1.11-2.65 1.11z" fill="url(#u)"/><path d="m54.11 25.12c4.48 0 9.99 1.94 10.02 1.95 1.1 0.42 2.29 0.79 3.54 1.18 5.63 1.77 11.46 3.6 10.77 9.46-0.02 0.18-0.07 0.38-0.13 0.6-0.8 2.52-4.81 15.25-5.76 19.23-0.15 0.61-0.45 1.15-0.88 1.58-0.83 0.82-2.07 2.05-3.21 3.19-0.61 0.61-1.43 0.95-2.3 0.95-0.84 0-1.64-0.32-2.25-0.9l-7.09-6.77c-0.54-0.52-0.89-1.21-0.98-1.96-0.17-1.43-0.55-3.78-1.4-6.92-1.41-5.22-3.1-9.77-4.23-12.78-0.41-1.09-0.73-1.95-0.9-2.49-0.7-2.16-0.68-3.76 0.06-4.76 0.78-1.03 2.37-1.56 4.74-1.56m0-1c-4.2 0-7.66 1.6-5.72 7.63 0.66 2.06 3.19 8.09 5.11 15.22 0.83 3.09 1.2 5.4 1.37 6.78 0.12 0.98 0.57 1.88 1.28 2.56l7.09 6.77c0.82 0.79 1.88 1.18 2.94 1.18 1.09 0 2.17-0.41 3-1.24 1.15-1.15 2.39-2.38 3.2-3.19 0.57-0.56 0.96-1.27 1.15-2.05 0.95-3.95 4.99-16.8 5.74-19.16 0.08-0.25 0.14-0.52 0.17-0.78 0.95-8.13-8.89-9.4-14.95-11.7 0 0-5.66-2.02-10.38-2.02z" fill="#0E2B52"/><radialGradient id="t" cx="63.897" cy="19.318" r="8.9368" gradientUnits="userSpaceOnUse"><stop stop-color="#454140" offset="0"/><stop stop-color="#312D2D" offset="1"/></radialGradient><path d="m72.1 22.69c-0.37-0.81 0.11-1.53 0.91-2.32 0.9-0.89 2.44-4.27 1-7.12-0.29-0.05-4.46 0.15-5.52 0.12-1.28-0.04-3.23-0.1-4.51-0.15-1.28-0.04-3.23-0.1-4.51-0.15-1.06-0.03-5.23-0.51-5.52-0.47-1.62 2.76-0.28 6.23 0.56 7.17 0.74 0.84 1.18 1.59 0.76 2.37-0.28 0.52-0.67 0.67-0.96 0.72 0.07 0.12 0.17 0.23 0.28 0.3 0.4 0.26 0.91 0.33 1.24 0.35 0.2 0.01 0.34 0.15 0.47 0.31 1.35 1.65 2.32 2.01 7.27 2.17s5.94-0.14 7.4-1.69c0.14-0.15 0.29-0.28 0.49-0.28 0.33 0 0.84-0.04 1.26-0.27 0.12-0.07 0.22-0.17 0.3-0.28-0.29-0.06-0.67-0.25-0.92-0.78z" fill="url(#t)"/><path d="m72.1 22.69c-0.37-0.81 0.11-1.53 0.91-2.32 0.9-0.89 2.68-3.98 0.72-7.39-0.29-0.05-19.49-0.14-19.78-0.1-1.82 3.05-0.28 5.95 0.56 6.9 0.74 0.84 1.18 1.59 0.76 2.37-0.28 0.52-0.67 0.67-0.96 0.72 0.07 0.12 0.17 0.23 0.28 0.3 0.4 0.26 0.91 0.33 1.24 0.35 0.2 0.01 0.34 0.15 0.47 0.31 1.35 1.65 2.32 2.01 7.27 2.17s5.94-0.14 7.4-1.69c0.14-0.15 0.29-0.28 0.49-0.28 0.33 0 0.84-0.04 1.26-0.27 0.12-0.07 0.22-0.17 0.3-0.28-0.29-0.07-0.67-0.26-0.92-0.79z" fill="none" stroke="#1F1A1A" stroke-miterlimit="10"/><path d="m64.07 30.4c-1.42 0-2.58-1.14-2.58-2.54v-3.18h5.73v3.18c0 1.4-1.16 2.54-2.57 2.54h-0.58z" fill="#EDC391"/><path d="m66.87 25.03v2.83c0 1.21-1 2.19-2.22 2.19h-0.59c-1.22 0-2.22-0.98-2.22-2.19v-2.83h5.03m0.71-0.71h-6.43v3.53c0 1.6 1.31 2.9 2.93 2.9h0.59c1.62 0 2.93-1.3 2.93-2.9l-0.02-3.53z" fill="#D9AC77"/><path d="m56.85 20.43c-1.4 0-2.54-1.22-2.54-2.72s1.14-2.72 2.54-2.72h14.26c1.4 0 2.54 1.22 2.54 2.72s-1.14 2.72-2.54 2.72h-14.26z" fill="#EDC391"/><path d="m71.1 15.26c1.26 0 2.28 1.1 2.28 2.46s-1.02 2.46-2.28 2.46h-14.25c-1.26 0-2.28-1.1-2.28-2.46s1.02-2.46 2.28-2.46h14.25m0-0.53h-14.25c-1.54 0-2.8 1.34-2.8 2.98s1.26 2.98 2.8 2.98h14.26c1.54 0 2.8-1.34 2.8-2.98s-1.28-2.98-2.81-2.98z" fill="#D9AC77"/><linearGradient id="s" x1="63.978" x2="63.978" y1="105.18" y2="126.5" gradientTransform="matrix(1 0 0 -1 0 131.43)" gradientUnits="userSpaceOnUse"><stop stop-color="#FFD29C" offset="0"/><stop stop-color="#FFD39E" offset=".0237"/><stop stop-color="#FCD8AF" offset=".3158"/><stop stop-color="#FADCBA" offset=".6295"/><stop stop-color="#F9DDBD" offset="1"/></linearGradient><path d="m63.98 26.43c-4.08 0-8.49-3.16-8.49-10.12 0-5.57 3.24-11.58 8.49-11.58s8.49 6.01 8.49 11.58c-0.02 6.94-4.41 10.12-8.49 10.12z" fill="url(#s)"/><path d="m63.98 4.98c5.08 0 8.22 5.87 8.22 11.32 0 4.75-2.58 9.86-8.22 9.86-5.65 0-8.22-5.11-8.22-9.86-0.01-5.44 3.14-11.32 8.22-11.32m0-0.52c-4.54 0-8.75 4.85-8.75 11.84 0 6.95 4.33 10.38 8.75 10.38s8.75-3.43 8.75-10.38c-0.02-6.98-4.22-11.84-8.75-11.84z" fill="#EDBD82"/><path d="m62.77 19.68c0.08 0.19 1.21 1.21 1.21 1.21s1.13-1.02 1.21-1.21c0.07-0.19-2.5-0.19-2.42 0z" fill="#DBA689"/><linearGradient id="r" x1="63.973" x2="63.973" y1="110.73" y2="107.3" gradientTransform="matrix(1 0 0 -1 0 131.43)" gradientUnits="userSpaceOnUse"><stop stop-color="#4D4D4D" offset="0"/><stop stop-color="#2F2F2F" offset=".2554"/><stop stop-color="#151515" offset=".5415"/><stop stop-color="#060606" offset=".7987"/><stop offset="1"/></linearGradient><path d="m68.9 20.69c-3.12 1.71-6.39 1.71-9.85 0-0.24-0.12 1.1 3.42 4.93 3.42s5.16-3.55 4.92-3.42z" fill="url(#r)"/><radialGradient id="q" cx="63.664" cy="10.892" r="9.4011" gradientUnits="userSpaceOnUse"><stop stop-color="#454140" offset="0"/><stop stop-color="#312D2D" offset="1"/></radialGradient><path d="m60.56 4.24c-3.07 1.17-3.43-0.76-3.43-0.76-1.66 0.88-0.51 2.65-0.51 2.65s-1.71-0.08-2.4 1.41c-0.73 1.56-0.02 2.73-0.02 2.73s-1.61 1.08-0.92 2.96c0.46 1.25 1.75 1.72 1.75 1.72-0.09 2.72 0.8 4.01 0.8 4.01s0.2-3.25 0.48-5.22 0.63-3.07 2.57-3.83c1.61-0.63 5.22 1.18 5.22 1.18s1.81-1.39 3.49-1.6 3.45 0.13 4.08 3.58c0.25 1.37 0.35 5.36 0.35 5.36-0.02-0.12 0.84-1.64 0.96-3.16 0.04-0.57 0.86-1.96 1.1-2.99 0.5-2.24-0.27-3.97-0.63-4.49-0.66-0.94-2.2-2.22-3.33-2 0.03-1.21-0.95-2.31-2.11-2.67-3.19-0.98-6.53 0.77-7.45 1.12z" fill="url(#q)"/><defs><polygon id="p" points="55.62 1.99 52.66 7.37 52.35 13.85 53.73 14.7 54.46 12.59 66.57 6.65 72.03 10.27 73.64 13.73 75.04 12.49 74.25 1.53"/></defs><clipPath id="o"><use xlink:href="#p"/></clipPath><g clip-path="url(#o)"><path d="m60.56 4.24c-3.07 1.17-3.43-0.76-3.43-0.76-1.66 0.88-0.51 2.65-0.51 2.65s-1.71-0.08-2.4 1.41c-0.73 1.56-0.02 2.73-0.02 2.73s-1.61 1.08-0.92 2.96c0.46 1.25 1.75 1.72 1.75 1.72-0.09 2.72 0.8 4.01 0.8 4.01s0.95-4.69 0.83-5.4c0 0 1.95-0.44 4.14-1.76 1.48-0.9 2.48-1.93 4.16-2.35 2.56-0.64 3.18 1.21 3.18 1.21s2.37-0.52 3.17 2.77c0.33 1.35 0.51 3.62 0.71 5-0.02-0.12 0.84-1.64 0.96-3.16 0.04-0.57 0.86-1.96 1.1-2.99 0.5-2.24-0.27-3.97-0.63-4.49-0.66-0.94-2.2-2.22-3.33-2 0.03-1.21-0.95-2.31-2.11-2.67-3.19-0.98-6.53 0.77-7.45 1.12z" fill="none" stroke="#1F1A1A" stroke-miterlimit="10"/></g><path d="m62.47 16.44c-0.24 0-0.48-0.02-0.71-0.05l-0.34-0.05-0.33-0.07c-0.22-0.04-0.43-0.11-0.65-0.17s-0.42-0.13-0.63-0.2c-0.82-0.31-1.61-0.69-2.35-1.17l-0.51-0.33 0.13-0.43c0.06-0.19 0.12-0.37 0.2-0.55l0.11-0.28 0.13-0.27c0.08-0.18 0.18-0.36 0.28-0.54s0.22-0.35 0.35-0.53l0.09 0.02c-0.06 0.38-0.12 0.77-0.18 1.15l-0.2 1.15-0.04-0.08 1.18 0.56 1.18 0.58 1.18 0.59c0.39 0.19 0.78 0.4 1.17 0.6l-0.06 0.07z"/><radialGradient id="n" cx="114.11" cy="189.56" r="3.3699" gradientTransform="matrix(.9263 .3768 .1497 -.368 -73.765 43.835)" gradientUnits="userSpaceOnUse"><stop stop-color="#f00" offset=".0026442"/><stop stop-color="#F50000" offset=".0722"/><stop stop-color="#980000" offset=".7116"/><stop stop-color="#730000" offset="1"/></radialGradient><path d="m60.62 17.98c-0.42 0-0.89-0.11-1.3-0.31-1.13-0.54-1.95-1.51-1.99-1.55l-0.33-0.39 0.52-0.06s0.36-0.04 0.85-0.04c0.63 0 1.17 0.07 1.6 0.21s1.46 0.52 1.75 1.09c0.08 0.17 0.1 0.34 0.05 0.5-0.12 0.34-0.55 0.55-1.15 0.55z" fill="url(#n)"/><path d="m58.38 15.91c0.46 0 1.03 0.04 1.51 0.19 0.97 0.31 1.75 0.81 1.62 1.23-0.08 0.24-0.42 0.38-0.87 0.38-0.35 0-0.77-0.09-1.18-0.28-1.1-0.52-1.9-1.48-1.9-1.48s0.35-0.04 0.82-0.04m0-0.57c-0.5 0-0.87 0.04-0.89 0.05l-1.05 0.12 0.68 0.81c0.04 0.04 0.9 1.06 2.08 1.63 0.45 0.22 0.96 0.34 1.43 0.34 0.73 0 1.26-0.29 1.41-0.77 0.24-0.75-0.48-1.46-1.98-1.95-0.45-0.16-1.02-0.23-1.68-0.23z"/><path d="m65.48 16.44c0.24 0 0.48-0.02 0.71-0.05l0.34-0.05 0.33-0.07c0.22-0.04 0.43-0.11 0.65-0.17s0.42-0.13 0.63-0.2c0.82-0.31 1.61-0.69 2.35-1.17l0.51-0.33-0.13-0.43c-0.06-0.19-0.12-0.37-0.2-0.55l-0.11-0.28-0.13-0.27c-0.08-0.18-0.18-0.36-0.28-0.54s-0.22-0.35-0.35-0.53l-0.09 0.02c0.06 0.38 0.12 0.77 0.18 1.15l0.2 1.15 0.04-0.08-1.18 0.57-1.18 0.58-1.18 0.59c-0.39 0.19-0.78 0.4-1.17 0.6l0.06 0.06z"/><radialGradient id="m" cx="-574.54" cy="-540.82" r="3.3699" gradientTransform="matrix(-.9263 .3768 -.1497 -.368 -545.53 34.54)" gradientUnits="userSpaceOnUse"><stop stop-color="#f00" offset=".0026442"/><stop stop-color="#F50000" offset=".0722"/><stop stop-color="#980000" offset=".7116"/><stop stop-color="#730000" offset="1"/></radialGradient><path d="m67.32 17.98c-0.6 0-1.03-0.21-1.14-0.57-0.05-0.16-0.03-0.33 0.05-0.5 0.29-0.57 1.32-0.96 1.75-1.09 0.43-0.14 0.96-0.21 1.6-0.21 0.49 0 0.85 0.04 0.85 0.04l0.52 0.06-0.34 0.4c-0.04 0.04-0.86 1.01-1.99 1.55-0.41 0.22-0.88 0.32-1.3 0.32z" fill="url(#m)"/><path d="m69.57 15.91c0.47 0 0.82 0.04 0.82 0.04s-0.81 0.96-1.89 1.48c-0.41 0.19-0.83 0.28-1.18 0.28-0.45 0-0.8-0.14-0.87-0.38-0.14-0.42 0.64-0.92 1.62-1.23 0.47-0.15 1.04-0.19 1.5-0.19m0-0.57c-0.66 0-1.23 0.07-1.68 0.22-1.5 0.48-2.22 1.2-1.98 1.95 0.16 0.48 0.68 0.77 1.41 0.77 0.47 0 0.97-0.12 1.43-0.34 1.19-0.57 2.05-1.58 2.08-1.63l0.68-0.81-1.05-0.12c-0.02 0-0.39-0.04-0.89-0.04z"/><path d="m62.88 16.41-0.45-0.28c0.51-0.83 0.1-2.4 0.1-2.42l0.51-0.14c0.02 0.08 0.48 1.82-0.16 2.84z" fill="#D9AC77"/><path d="m65.03 16.41c-0.63-1.02-0.18-2.76-0.16-2.83l0.51 0.14c0 0.02-0.41 1.59 0.1 2.42l-0.45 0.27z" fill="#D9AC77"/><radialGradient id="k" cx="58.699" cy="97.706" r="3.8303" gradientTransform="matrix(.9649 -.0175 -.0701 -1.0351 16.575 139.75)" gradientUnits="userSpaceOnUse"><stop stop-color="#f00" offset=".0026442"/><stop stop-color="#F50000" offset=".0722"/><stop stop-color="#980000" offset=".7116"/><stop stop-color="#730000" offset="1"/></radialGradient><polygon points="64.32 36.3 65.98 32.39 68.24 36.2 66.67 42.79" fill="url(#k)"/><path d="m66.02 33.1 1.88 3.15-1.29 5.43-1.96-5.37 1.37-3.21m-0.09-1.41-0.5 1.16-1.37 3.21-0.1 0.23 0.09 0.24 1.95 5.37 0.73 2.01 0.49-2.08 1.29-5.43 0.06-0.25-0.13-0.22-1.88-3.15-0.63-1.09z"/><linearGradient id="j" x1="29.531" x2="55.541" y1="99.64" y2="103.65" gradientTransform="matrix(1 0 0 -1 0 131.43)" gradientUnits="userSpaceOnUse"><stop stop-color="#0063B2" offset=".0028045"/><stop stop-color="#170D1F" offset="1"/></linearGradient><path d="m33.59 39.91c-1.67 0-3.19-1.04-3.79-2.59l-4.11-10.61c-0.19-0.5-0.18-1.04 0.04-1.54 0.22-0.49 0.61-0.87 1.11-1.06l2.74-1.07c0.23-0.09 0.47-0.14 0.72-0.14 0.83 0 1.58 0.52 1.88 1.28l2.82 7.25 16.06-4.27c0.33-0.09 0.67-0.13 1.02-0.13 1.81 0 3.38 1.22 3.84 2.96 0.27 1.02 0.13 2.09-0.41 3.02-0.54 0.92-1.39 1.58-2.42 1.85l-17.97 4.78c-0.56 0.18-1.04 0.27-1.53 0.27z" fill="url(#j)"/><path d="m30.27 23.3c0.67 0 1.28 0.41 1.51 1.03l2.69 6.92 0.26 0.66 0.68-0.18 15.72-4.18c0.3-0.08 0.61-0.12 0.91-0.12 1.63 0 3.05 1.1 3.46 2.66 0.24 0.92 0.11 1.89-0.37 2.72s-1.25 1.42-2.18 1.67l-17.93 4.76h-0.04l-0.1 0.02-0.04 0.02c-0.41 0.16-0.85 0.24-1.29 0.24-1.51 0-2.89-0.94-3.43-2.34l-4.11-10.61c-0.32-0.83 0.09-1.77 0.92-2.09l2.74-1.06c0.21-0.09 0.4-0.12 0.6-0.12m0-0.79c-0.29 0-0.58 0.05-0.86 0.16l-2.74 1.06c-1.23 0.48-1.85 1.88-1.37 3.1l4.11 10.61c0.68 1.76 2.38 2.85 4.16 2.85 0.52 0 1.05-0.09 1.57-0.29 0.02 0 0.04 0 0.06-0.01l17.97-4.78c2.33-0.62 3.71-3.03 3.09-5.34-0.52-1.95-2.3-3.24-4.22-3.24-0.37 0-0.74 0.05-1.12 0.15l-15.72 4.18-2.69-6.92c-0.36-0.95-1.27-1.53-2.24-1.53z" fill="#0E2B52"/><path d="m41 122.97c-5.93 0-9.05-1.2-10.62-2.2-0.28-0.18-0.25-0.45-0.24-0.53 0.02-0.1 0.09-0.34 0.4-0.4 17.69-3.72 18.28-5.12 18.5-5.65 0.12-0.28 0.09-0.58-0.07-0.84-3.89-6.05-12.37-21.66-15.83-28.09-0.12-0.22-0.05-0.41 0.01-0.5 0.07-0.12 0.23-0.25 0.43-0.25 0.05 0 0.1 0.01 0.15 0.02l13.11 3.77c0.17 0.05 0.29 0.17 0.35 0.34l9.63 30.95c0.06 0.29 0.01 0.56-0.17 0.81-0.9 1.25-4.49 1.63-6.42 1.84-0.42 0.04-0.8 0.08-1.1 0.12-2.96 0.4-5.7 0.61-8.13 0.61z" fill="#0E2B52"/><path d="m33.84 85.22 12.76 3.68 9.59 30.83c0.03 0.17-0.01 0.24-0.06 0.31-0.73 1.02-4.4 1.41-5.98 1.58-0.43 0.05-0.81 0.09-1.12 0.13-2.94 0.4-5.64 0.6-8.04 0.6-5.46 0-8.45-1.02-10.02-1.94 17.72-3.74 18.32-5.18 18.65-5.96 0.2-0.48 0.15-0.99-0.12-1.42-3.83-5.97-12.12-21.23-15.66-27.81m-0.26-1.35c-0.82 0-1.43 0.9-1 1.69 3.26 6.07 11.92 22.01 15.85 28.14 0.89 1.39-12.69 4.4-18.03 5.52-1.01 0.21-1.24 1.54-0.37 2.09 1.7 1.08 4.95 2.3 10.96 2.3 2.31 0 5.02-0.18 8.22-0.61 2.28-0.31 8.9-0.54 8.21-3.59l-9.63-30.95c-0.11-0.37-0.41-0.65-0.78-0.76l-13.11-3.78c-0.11-0.04-0.22-0.05-0.32-0.05z"/><path d="m101.38 118.3c-0.75 0-1.53-0.02-2.33-0.07-6.88-0.39-9.02-1.91-9.6-3.1l-8.54-23.9c-0.04-0.12-0.02-0.25 0.07-0.34l8.82-9.86c0.07-0.08 0.15-0.12 0.25-0.12 0.15 0 0.32 0.09 0.34 0.3 0.75 6.55 2.59 22.39 3.38 28.14 0.07 0.51 0.24 1.7 15.36 7.55 0.21 0.08 0.22 0.27 0.22 0.35-0.01 0.08-0.04 0.25-0.26 0.3-1.67 0.33-4.38 0.75-7.71 0.75z" fill="#0E2B52"/><path d="m89.89 81.73c0.78 6.78 2.54 21.99 3.33 27.69 0.11 0.79 0.28 1.99 15.04 7.72-1.66 0.3-4.03 0.61-6.89 0.61-0.76 0-1.54-0.02-2.3-0.07-7.07-0.4-8.74-2.02-9.13-2.76l-8.49-23.77 8.44-9.42m0.15-1.38c-0.24 0-0.47 0.09-0.66 0.3l-8.82 9.86c-0.22 0.24-0.28 0.58-0.17 0.89l8.56 23.96c1.41 2.89 8.07 3.29 10.06 3.41 0.82 0.05 1.61 0.07 2.36 0.07 3.29 0 5.98-0.39 7.82-0.77 0.87-0.18 0.96-1.38 0.13-1.7-4.85-1.88-14.85-5.88-15.03-7.11-0.83-5.93-2.74-22.44-3.38-28.13-0.05-0.48-0.46-0.78-0.87-0.78z"/><linearGradient id="i" x1="23.472" x2="35.063" y1="127.2" y2="101.49" gradientTransform="matrix(1 0 0 -1 0 131.43)" gradientUnits="userSpaceOnUse"><stop stop-color="#17CB1F" offset="0"/><stop stop-color="#0BB42E" offset=".356"/><stop stop-color="#03A438" offset=".7189"/><stop stop-color="#009E3C" offset=".9972"/></linearGradient><path d="m34.28 9.1c0.36 0.36 0.96 0.36 1.33 0 0.36-0.36 0.36-0.96 0-1.33l-1.27-1.57c-1.32-1.57-2.54-0.82-2.54-0.82 0.03-0.16 0.03-0.32-0.03-0.48-0.18-0.48-0.72-0.73-1.2-0.55 0 0-1.58 0.26-1.68 0.13-0.32-0.4-0.92-0.46-1.32-0.14l-2.23 1.82c-0.25 0.2-2.31 4.38-2.71 7.96-0.67 5.99 0.7 13.9 4.16 20.97 0 0 1.39-3.66 3.04-5.39 1.18-1.26 3.17-2.39 5.25-2.43 0 0-0.53-2.46-4.35-8.12-1.65-2.44-2.19-4.06-2.13-5.36h2.87c0.52 0 0.94-0.42 0.94-0.94s-0.42-0.94-0.94-0.94h-1.63c-2.1-1.19 0.05-3.14 1.16-3.91 0.67-0.46 1.35-0.21 1.35-0.21l1.93 1.31z" fill="url(#i)" stroke="#009245" stroke-linecap="round" stroke-linejoin="round" stroke-miterlimit="10"/><linearGradient id="h" x1="90.47" x2="101.33" y1="107.41" y2="83.33" gradientTransform="matrix(1 0 0 -1 0 131.43)" gradientUnits="userSpaceOnUse"><stop stop-color="#17CB1F" offset="0"/><stop stop-color="#0BB42E" offset=".356"/><stop stop-color="#03A438" offset=".7189"/><stop stop-color="#009E3C" offset=".9972"/></linearGradient><path d="m103.84 24.6-2.92-2.59c-0.92-0.42-0.78-0.55-1.42 0-1.17 1 1.17 2.5 1.17 2.5-0.07 0.09-2.78-1.57-2.78-1.57-0.38-0.28-0.91-0.19-1.19 0.19l-0.03 0.04c-0.28 0.38-0.19 0.91 0.19 1.19l1.82 1.33c0.11 0.08-2.85-0.89-2.85-0.89-0.45-0.14-0.93 0.1-1.07 0.55l-0.02 0.05c-0.15 0.45 0.1 0.93 0.55 1.07l1.85 0.6c0 0.01 0 0.01 0.01 0.02 0 0 0.33 0.82 0.67 1.71 0.43 1.12 0.39 2.46-0.81 2.54l-1.33-0.08c-0.81-0.06-2.25 1.5 0.08 1.92l3.27 0.45c-0.2 1.44-1.16 2.86-4.26 4.77-5.5 3.41-6.96 5.29-6.96 5.29 1.7 0.76 2.87 2.4 3.32 3.86 0.64 2.03-0.22 6.57-0.22 6.57 5.78-4.72 10.2-13.02 11.84-17.56v0c1.28-3.54 0.76-7.54 0.84-7.95 0.02-0.01 0.45-3.71 0.25-4.01v0z" fill="url(#h)" stroke="#009245" stroke-linecap="round" stroke-linejoin="round" stroke-miterlimit="10"/></svg>
