<?xml version="1.0" encoding="utf-8"?>
<!-- Generator: Adobe Illustrator 25.2.3, SVG Export Plug-In . SVG Version: 6.00 Build 0)  -->
<svg version="1.1" id="Layer_3" xmlns="http://www.w3.org/2000/svg" xmlns:xlink="http://www.w3.org/1999/xlink" x="0px" y="0px"
	 viewBox="0 0 128 128" style="enable-background:new 0 0 128 128;" xml:space="preserve">
<g>
	<rect x="84.13" y="76.18" style="fill:#C62828;" width="6.07" height="10.83"/>
	<path style="fill:#424242;" d="M31.79,117.21l-26.41-8.58c-1.16-0.38-1.8-1.63-1.42-2.79l0.71-2.18c0.38-1.16,1.63-1.8,2.79-1.42
		l26.41,8.58c1.16,0.38,1.8,1.63,1.42,2.79l-0.71,2.18C34.21,116.95,32.96,117.59,31.79,117.21z"/>
	<path style="fill:#78909C;" d="M40.27,104.19c-5.47,0-9.91,4.44-9.91,9.91c0,5.47,4.44,9.91,9.91,9.91s9.91-4.44,9.91-9.91
		C50.18,108.62,45.74,104.19,40.27,104.19z"/>
	<path style="fill:#F44336;" d="M107.11,25.7c-2.74,0-2.74,2.95-2.74,3.92l-0.38,44.29l-49.54-2.68c-14.19,0-20.71,5.43-25.83,21.5
		l-7.25,21.03c-0.26,0.77-0.21,1.59,0.14,2.32c0.35,0.73,0.97,1.27,1.74,1.54c0.32,0.11,0.65,0.17,0.99,0.17
		c1.29,0,2.45-0.82,2.87-2.04l5.38-15.6c2.8,0.91,4.77,3.57,4.77,6.55v7.41c0,1.67,1.36,3.03,3.03,3.03c1.67,0,3.03-1.36,3.03-3.03
		v-7.41c0-5.59-3.61-10.53-8.86-12.28c4.31-13.42,8.62-17.11,19.83-17.11l49.81,2.9c1.89,0,2.92-0.21,3.98-1.46
		c1.2-1.43,1.21-3.74,1.21-3.76l0.58-45.79C109.85,26.15,108.13,25.7,107.11,25.7z"/>
	<path style="fill:#424242;" d="M40.23,117.37L40.23,117.37c-1.5,0-2.73-1-2.98-2.5l-0.5-5.09c-0.12-0.8,0.56-1.52,1.44-1.52h3.85
		c0.86,0,1.53,0.68,1.45,1.47l-0.18,5.14C43.32,116.25,41.73,117.37,40.23,117.37z"/>
	<path style="fill:#424242;" d="M99.83,61.82L48.18,60.3c-2.62,0-4.84,0.95-5.72,6.21c0,0-0.17,0.67,0.14,3.21
		c0.31,2.54,1.99,3.7,4.19,3.81l58.89,2.85L99.83,61.82z"/>
	<path style="fill:#424242;" d="M93.54,29.77c-1.13,4.05-3.3,25.43-1.62,31.34s13.83,15.19,13.83,15.19l0.37-46.1
		c0-3.74-2.04-4.33-5.39-4.33h-2.48C94.75,25.91,94.17,27.49,93.54,29.77z"/>
	<path style="fill:#757575;" d="M93.54,29.77c-0.53,1.9-0.74,3.93-0.98,5.88c-0.2,1.61-0.98,9.49-0.98,9.49
		c0.4-0.05,0.8-0.14,1.19-0.23c0.84-0.19,1.66-0.4,2.49-0.63c0.23-0.06,0.44-0.13,0.67-0.13c0.17,0,0.31,0.01,0.47-0.06
		c0.42-0.19,0.74-0.58,0.94-0.98c0.26-0.53,0.36-1.12,0.43-1.7c0.26-2.1,0.26-4.22,0.52-6.32c0.27-2.1,0.83-4.22,2.1-5.91
		c0.44-0.59,0.98-1.16,1.12-1.89c0.09-0.45-0.07-0.98-0.42-1.29c-0.16-0.14-0.39-0.27-0.61-0.25c-0.16,0.02-0.29,0.06-0.47,0.07
		c-0.59,0.01-1.19,0.05-1.78,0.05C94.75,25.91,94.17,27.49,93.54,29.77z"/>
	<path style="fill:#212121;" d="M72.48,74.65c3.36-4.39,8.6-6.91,15.2-6.6c7.64,0.35,12.35,5.02,14.77,8.19l5.16,0.11
		c0.1-5.9,0.4-21.08,0.4-21.08c-3.86-6.46-45.1-17.62-58.93,18.31L72.48,74.65z"/>
	<path style="fill:#F44336;" d="M105.65,77.37l2.75-0.85c0-3.17-0.4-24.12-0.4-24.12c-4.04-6.77-48.48-19.15-60.77,23.83l7.95-0.03
		l12.69,0.74c3.07-6.88,11.25-11.62,19.99-11.21C100.89,66.34,105.65,77.37,105.65,77.37z"/>
	<g>
		
			<radialGradient id="SVGID_1_" cx="83.1621" cy="87.0132" r="1.9363" gradientTransform="matrix(1 0 0 1 4 0)" gradientUnits="userSpaceOnUse">
			<stop  offset="0" style="stop-color:#78909C"/>
			<stop  offset="0.5619" style="stop-color:#617A86"/>
			<stop  offset="1" style="stop-color:#546E7A"/>
		</radialGradient>
		<path style="fill:url(#SVGID_1_);" d="M87.16,88.95c-1.07,0-1.94-0.87-1.94-1.94s0.87-1.94,1.94-1.94s1.94,0.87,1.94,1.94
			S88.23,88.95,87.16,88.95z"/>
		<path style="fill:#82AEC0;" d="M87.16,85.58c0.79,0,1.44,0.64,1.44,1.44c0,0.79-0.64,1.44-1.44,1.44c-0.79,0-1.44-0.64-1.44-1.44
			C85.73,86.22,86.37,85.58,87.16,85.58 M87.16,84.58c-1.35,0-2.44,1.09-2.44,2.44s1.09,2.44,2.44,2.44s2.44-1.09,2.44-2.44
			S88.51,84.58,87.16,84.58L87.16,84.58z"/>
	</g>
	
		<line style="fill:none;stroke:#82AEC0;stroke-width:2;stroke-linecap:round;stroke-miterlimit:10;" x1="87.16" y1="55.61" x2="87.16" y2="118.42"/>
	
		<line style="fill:none;stroke:#82AEC0;stroke-width:2;stroke-linecap:round;stroke-miterlimit:10;" x1="109.37" y1="64.81" x2="64.96" y2="109.22"/>
	
		<line style="fill:none;stroke:#82AEC0;stroke-width:2;stroke-linecap:round;stroke-miterlimit:10;" x1="109.37" y1="109.22" x2="64.96" y2="64.81"/>
	
		<line style="fill:none;stroke:#82AEC0;stroke-width:2;stroke-linecap:round;stroke-miterlimit:10;" x1="55.76" y1="87.01" x2="118.57" y2="87.01"/>
	<path style="fill:#78909C;" d="M87.16,50.03c-20.43,0-36.99,16.56-36.99,36.99S66.73,124,87.16,124s36.99-16.56,36.99-36.99
		S107.59,50.03,87.16,50.03z M87.16,116.95c-16.53,0-29.94-13.4-29.94-29.94c0-16.53,13.4-29.94,29.94-29.94
		c16.53,0,29.94,13.4,29.94,29.94C117.1,103.55,103.7,116.95,87.16,116.95z"/>
	<g>
		<path style="fill:#546E7A;" d="M87.16,62.13c13.72,0,24.88,11.16,24.88,24.88s-11.16,24.88-24.88,24.88s-24.88-11.16-24.88-24.88
			S73.44,62.13,87.16,62.13 M87.16,60.13c-14.85,0-26.88,12.04-26.88,26.88c0,14.85,12.04,26.88,26.88,26.88
			c14.85,0,26.88-12.04,26.88-26.88C114.04,72.17,102.01,60.13,87.16,60.13L87.16,60.13z"/>
	</g>
	<circle style="fill:#757575;" cx="87.16" cy="87.01" r="6.23"/>
	<path style="opacity:0.8;fill:none;stroke:#94D1E0;stroke-width:2;stroke-linecap:round;stroke-miterlimit:10;" d="M57.72,70.79
		c4.51-9.01,13.37-15.72,23.27-17.62"/>
	<path style="fill:#757575;" d="M43.53,65c1.17-0.36,2.45-0.26,3.68-0.29c0.83-0.02,1.69-0.12,2.46-0.45
		c0.38-0.16,0.73-0.37,1.03-0.66c0.14-0.14,0.2-0.27,0.3-0.43c0.13-0.24,0.3-0.46,0.45-0.68c0.4-0.62,0.79-1.24,1.16-1.88
		c0.03-0.05,0.06-0.11,0.09-0.16c0,0-3.81-0.42-5.92-0.16c-1.11,0.14-2.36,0.73-2.97,1.7c-0.19,0.3-0.39,0.58-0.54,0.91
		c-0.3,0.64-0.49,1.33-0.54,2.03c0,0.07-0.01,0.14,0.03,0.19c0.08,0.11,0.26,0.07,0.38,0.01C43.27,65.08,43.4,65.04,43.53,65z"/>
	
		<line style="fill:none;stroke:#757575;stroke-linecap:round;stroke-miterlimit:10;" x1="7.33" y1="103.12" x2="21.65" y2="107.74"/>
	<path style="fill:#C62828;" d="M105.95,50.48c0,0,2.27,1,3.56,2.75l0.11-5.32c-1.45-1.45-3.63-1.78-3.63-1.78L105.95,50.48z"/>
	<path style="fill:#C62828;" d="M48.08,73.53l-1.04,4.48c0,0-1.94,0.18-3.39-1.01c-2.49-2.05-2.2-3.21-2.2-3.21
		c0.69-0.53,2.63-1.18,2.63-1.18s1.09,0.53,2.1,0.74S48.08,73.53,48.08,73.53z"/>
</g>
</svg>
