<?xml version="1.0" encoding="utf-8"?>
<!-- Generator: Adobe Illustrator 24.0.3, SVG Export Plug-In . SVG Version: 6.00 Build 0)  -->
<svg version="1.1" id="Layer_1" xmlns="http://www.w3.org/2000/svg" xmlns:xlink="http://www.w3.org/1999/xlink" x="0px" y="0px"
	 viewBox="0 0 128 128" style="enable-background:new 0 0 128 128;" xml:space="preserve">
<path id="hair" style="fill:#232020;" d="M124,5.53c-2.12-0.03-4.25-0.05-6.39-0.08c-33.49-0.4-66.95-0.73-67.93-0.61
	c0,0-4.55,3.26-4.51,3.36c-7.62,18.08,0.14,36.06,7.36,43.87c4.55,4.92,7.21,8.88,5.04,12.71c-2.1,3.73-8.23,4.2-8.23,4.2
	s1.37,3.86,4.74,5.97c3.13,1.95,6.99,2.45,9.66,2.54c0,0,10.28,14.59,37.6,14.92l15.2,0.18l7.43,0.09V5.53z"/>
<g id="hairHighlights">
	
		<radialGradient id="SVGID_1_" cx="84.5307" cy="95.7185" r="51.6667" gradientTransform="matrix(0.0866 -0.9962 -0.8303 -0.0722 156.8835 120.9469)" gradientUnits="userSpaceOnUse">
		<stop  offset="0.7247" style="stop-color:#444140;stop-opacity:0"/>
		<stop  offset="1" style="stop-color:#444140"/>
	</radialGradient>
	<path style="fill:url(#SVGID_1_);" d="M45.18,8.21c-7.43,17.51-0.05,35.72,6.97,43.44c0.97,1.06,5.06,5.18,5.96,8.44
		c0,0,16.49-22.42,21.49-35.65c1.01-2.67,1.93-5.42,2.09-8.27c0.11-2.14-0.19-4.69-1.4-6.52c-1.48-2.25-3.26-1.68-5.82-1.71
		c-4.9-0.06-26.3-1.57-27.97-1.59C46.51,6.37,45.18,8.21,45.18,8.21z"/>
	
		<radialGradient id="SVGID_2_" cx="92.3729" cy="56.5141" r="39.8031" gradientTransform="matrix(-0.9999 -0.012 -5.900000e-03 0.4912 184.799 42.4647)" gradientUnits="userSpaceOnUse">
		<stop  offset="0.7275" style="stop-color:#444140;stop-opacity:0"/>
		<stop  offset="1" style="stop-color:#444140"/>
	</radialGradient>
	<path style="fill:url(#SVGID_2_);" d="M116.62,92.6l0.19-16.05L68.3,72.12l-4.48,5.38c0,0,10.28,14.59,37.6,14.92L116.62,92.6z"/>
	
		<radialGradient id="SVGID_3_" cx="53.1711" cy="62.4319" r="11.7628" gradientTransform="matrix(0.9006 0.4347 0.3225 -0.6681 -15.0513 81.3287)" gradientUnits="userSpaceOnUse">
		<stop  offset="0.6628" style="stop-color:#444140"/>
		<stop  offset="1" style="stop-color:#444140;stop-opacity:0"/>
	</radialGradient>
	<path style="fill:url(#SVGID_3_);" d="M64.01,70.5c7.41-10.96-8.68-15.28-8.68-15.28s-0.01,0.01-0.01,0.01
		c2.77,3.52,4,6.58,2.32,9.56c-2.1,3.73-8.23,4.2-8.23,4.2S57.66,76.5,64.01,70.5z"/>
</g>
<radialGradient id="SVGID_4_" cx="123.3921" cy="3.6958" r="57.183" gradientTransform="matrix(1 0 0 -0.433 0 125.907)" gradientUnits="userSpaceOnUse">
	<stop  offset="0.388" style="stop-color:#ED6D23"/>
	<stop  offset="1" style="stop-color:#F78C1F"/>
</radialGradient>
<path style="fill:url(#SVGID_4_);" d="M121.39,95.11c-19.84,0-59.38,10.01-74.61,28.89h1.9h2.12H124V98.14v-1.51v-1.5
	C123.13,95.12,122.26,95.11,121.39,95.11z"/>
<g id="neck">
	<path style="fill:#3C2B24;" d="M104.38,75.85v18.58c0,8.24,6.67,14.94,14.86,14.94c0,0,4.27-0.03,4.75-0.08V75.85H104.38z"/>
</g>
<g id="ears">
	<path style="fill:#3C2B24;" d="M120.88,11.1H83.94H70.82c-10.49,0-19.08,9.15-19.08,20.32s8.59,20.32,19.08,20.32h13.12h36.94V11.1
		z"/>
</g>
<path id="head" style="fill:#70534A;" d="M61.29,11.85c0.66,22.24,7.37,42.68,18.9,57.54c10.77,13.89,25.09,21.85,39.3,21.85
	c1.51,0,3.01-0.1,4.51-0.27V4H61.36C61.23,6.56,61.21,9.18,61.29,11.85z"/>
<path id="mouth_1_" style="fill:#1A1717;" d="M104.54,59.65c-3.26-1.94-6.59,1.03-5.24,3.99c1.33,2.91,11.48,9.66,20.25,9.66
	c1.46,0,2.96-0.2,4.45-0.53V62.02C116.67,62.55,108.08,61.76,104.54,59.65z"/>
<path id="nose_1_" style="fill:#33251F;" d="M113.19,45.1c-0.19,0.02-0.39,0.07-0.57,0.15c-1.14,0.46-1.77,1.65-1.23,2.91
	c0.54,1.26,3.05,4.8,8.1,4.8c1.83,0,3.32-0.47,4.51-1.12V45.1L113.19,45.1L113.19,45.1z"/>
<ellipse id="eye_1_" style="fill:#1A1717;" cx="90.21" cy="28.78" rx="8.78" ry="9.09"/>
<path id="eyebrow_1_" style="fill:#1A1717;" d="M103.43,12.77c-1.65-2.19-5.47-5.37-12.88-5.37c-7.41,0-11.23,3.18-12.88,5.37
	c-0.73,0.97-0.54,2.08-0.04,2.76c0.47,0.63,1.85,1.21,3.39,0.69c1.53-0.52,4.52-2.07,9.53-2.1c5.01,0.04,8,1.58,9.53,2.1
	c1.53,0.52,2.92-0.06,3.39-0.69C103.97,14.85,104.16,13.73,103.43,12.77z"/>
<g id="hairGroup">
	<path id="hair_1_" style="fill:#232020;" d="M42.12,4c-0.06,2.09,0.28,4.35,1.16,6.75C46.58,19.69,58.83,21,58.83,21
		c1.71,13.08,4.62,18.08,7.27,22.25c0.25,0.39,0.82,0.33,0.94-0.11c1.61-6.06,1.89-27.32,1.35-31.24c0,0,9.52-1.64,21.64-7.91
		L42.12,4z"/>
	
		<radialGradient id="hairHighlights_2_" cx="63.1554" cy="115.3792" r="19.0775" gradientTransform="matrix(0.9907 0.1363 0.1079 -0.7844 -11.8597 94.5157)" gradientUnits="userSpaceOnUse">
		<stop  offset="0.5981" style="stop-color:#444140;stop-opacity:0"/>
		<stop  offset="1" style="stop-color:#444140"/>
	</radialGradient>
	<path id="hairHighlights_1_" style="fill:url(#hairHighlights_2_);" d="M43.28,10.75C46.58,19.69,58.83,21,58.83,21
		c0.01,0.04,0.01,0.08,0.02,0.12c1.79-0.05,4.01-0.12,4.61-0.12l-0.8-17H42.12C42.06,6.09,42.39,8.35,43.28,10.75z"/>
</g>
<linearGradient id="shadow_x5F_shirt_2_" gradientUnits="userSpaceOnUse" x1="75.2228" y1="16.3885" x2="88.2075" y2="10.3533" gradientTransform="matrix(1 0 0 -1 0 128)">
	<stop  offset="0.1968" style="stop-color:#262626"/>
	<stop  offset="1" style="stop-color:#262626;stop-opacity:0"/>
</linearGradient>
<path id="shadow_x5F_shirt_1_" style="opacity:0.35;fill:url(#shadow_x5F_shirt_2_);enable-background:new    ;" d="M95.92,98.57
	c-14.56,4.01-28.72,7.54-39.97,16.58c-1.02,3.15-2.06,6.36-2.85,8.85h29.32L95.92,98.57z"/>
<linearGradient id="shadow_x5F_face_2_" gradientUnits="userSpaceOnUse" x1="90.5907" y1="52.2087" x2="97.3638" y2="54.662" gradientTransform="matrix(1 0 0 -1 0 128)">
	<stop  offset="0.1968" style="stop-color:#262626"/>
	<stop  offset="1" style="stop-color:#262626;stop-opacity:0"/>
</linearGradient>
<path id="shadow_x5F_face_1_" style="opacity:0.35;fill:url(#shadow_x5F_face_2_);enable-background:new    ;" d="M94.94,69.13
	c-3.31-5.56-7.46-3.8-9.82-2.62c-2.35,1.18-1.84,6.85-1.84,6.85c4.25,4.67,8.92,8.53,13.85,11.46C94.43,76.5,97.31,73.1,94.94,69.13
	z"/>
<linearGradient id="SVGID_5_" gradientUnits="userSpaceOnUse" x1="25.382" y1="12.4835" x2="59.0484" y2="12.4835" gradientTransform="matrix(1 0 0 -1 0 128)">
	<stop  offset="0.388" style="stop-color:#ED6D23"/>
	<stop  offset="1" style="stop-color:#F78C1F"/>
</linearGradient>
<path style="fill:url(#SVGID_5_);" d="M66.76,116.69c-3.4-3.06-25.54-9.18-25.54-9.18c-0.83-0.33-1.62-0.48-2.36-0.48
	c-3.24,0-5.57,2.82-7.18,5.07l-6.3,11.9h1.7h1.7h35.78h1.6h1.57C68.56,121.22,69.07,118.77,66.76,116.69z"/>
<g id="hand_x5F_left_1_">
	
		<linearGradient id="hand_1_" gradientUnits="userSpaceOnUse" x1="90.2359" y1="58.1968" x2="44.4685" y2="14.941" gradientTransform="matrix(1 0 0 -1 0 128)">
		<stop  offset="0.5" style="stop-color:#70534A"/>
		<stop  offset="1" style="stop-color:#5C4037"/>
	</linearGradient>
	<path id="hand" style="fill:url(#hand_1_);" d="M56.12,119.35c14.59,0.56,19.9-10,20.99-19.97c0.63-5.76-0.32-11.23-0.32-11.23
		s7.37-3.97,12.69-13.62c1.19-2.17,1.7-5.73-0.4-7.87c-2.2-2.24-6.29-2.95-9.98,1.2c-4.42,4.64-6.63,6.89-14.72,10.97
		c-6.59,3.33-15.88,4.24-22.13,10.24C29.98,100.84,40.57,118.76,56.12,119.35z"/>
	<path id="tone_2_" style="fill:#4A2F27;" d="M58.6,96.6c-1.12-4.98-3.83-7.91-7.89-9.08c-3-0.86-4.99-0.82-1.44,0.92
		c3.84,1.88,6.05,4.97,6.89,8.71c0.99,4.39-1.1,7.37-3.6,8.37c-1.42,0.57-3.5,0.63-4.53-1.17c-1.82-3.17,1.59-4.96,1.6-4.96
		c0.63-0.28,0.92-1.02,0.64-1.65s-1.01-0.92-1.65-0.64c-0.11,0.05-2.49,1.31-3.52,3.74c-1.02,2.4,0.17,7.54,5.71,7.54
		c0.87,0,1.8-0.12,2.68-0.54C60.05,104.78,59.07,98.64,58.6,96.6z"/>
	<path id="tone_1_" style="fill:#4A2F27;" d="M68.86,94.03c-1.12-4.98-3.83-7.91-7.89-9.08c-3-0.86-4.99-0.82-1.44,0.92
		c3.84,1.88,6.05,4.97,6.89,8.71c0.99,4.39-1.1,7.37-3.6,8.37c-1.42,0.57-3.5,0.63-4.53-1.17c-0.03-0.05-0.05-0.1-0.08-0.15
		l-1.6,2.48c0.97,1,2.41,1.7,4.45,1.7c0.87,0,1.8-0.12,2.68-0.54C70.3,102.21,69.32,96.07,68.86,94.03z"/>
	<path id="tone" style="fill:#4A2F27;" d="M77.52,90.72c-1.12-4.98-3.83-7.91-7.89-9.08c-3-0.86-5-0.82-1.44,0.92
		c3.84,1.88,6.05,4.97,6.89,8.71c0.99,4.39-1.1,7.37-3.6,8.37c-1.14,0.46-2.69,0.57-3.8-0.33c-0.33,0.64-0.81,1.57-1.22,2.4
		c0.86,0.49,1.94,0.79,3.27,0.79c0.87,0,1.8-0.12,2.68-0.54C78.97,98.9,77.98,92.76,77.52,90.72z"/>
</g>
<g id="thumb_x5F_left_1_">
	<g id="finger">
		
			<linearGradient id="SVGID_6_" gradientUnits="userSpaceOnUse" x1="64.6205" y1="25.6018" x2="79.0941" y2="25.6018" gradientTransform="matrix(1 0 0 -1 0 128)">
			<stop  offset="0.5" style="stop-color:#70534A"/>
			<stop  offset="1" style="stop-color:#5C4037"/>
		</linearGradient>
		<path style="fill:url(#SVGID_6_);" d="M78.22,98.5c1.88,2.95,0.79,7.36-3.92,9.35c-4.03,1.71-7.22,0.86-8.68-1.27
			c-1.97-2.89-1.04-7.18,2.8-9.27C72.27,95.22,76.46,95.74,78.22,98.5z"/>
	</g>
	<path id="tone_3_" style="fill:#4A2F27;" d="M78.89,102.8c-0.48,2.07-1.74,4.07-3.63,5.39c-0.94,0.66-2.02,1.13-3.16,1.42
		c-1.14,0.26-2.34,0.31-3.55,0.13c-1.19-0.22-2.44-0.67-3.44-1.74c-0.24-0.26-0.48-0.61-0.63-0.91c-0.12-0.26-0.25-0.52-0.36-0.79
		c-0.21-0.55-0.41-1.11-0.5-1.71c-0.22-1.18-0.11-2.5,0.42-3.6c0.52-1.11,1.41-1.93,2.4-2.41c-0.45,1.02-0.8,1.97-0.88,2.88
		c-0.09,0.9,0.04,1.76,0.32,2.6c0.14,0.42,0.31,0.84,0.5,1.26c0.09,0.21,0.21,0.42,0.31,0.63c0.08,0.17,0.15,0.25,0.25,0.39
		c0.43,0.48,1.22,0.88,2.06,1.07c0.85,0.21,1.79,0.26,2.7,0.13c0.93-0.09,1.84-0.36,2.7-0.77C76.18,105.97,77.68,104.55,78.89,102.8
		z"/>
</g>
<g id="arrow_1_">
	<path style="fill:none;stroke:#B0BEC5;stroke-width:4;stroke-linejoin:round;stroke-miterlimit:10;" d="M19.2,33.14
		c0,32.01,19.62,42.4,19.62,42.4"/>
	<polygon style="fill:#B0BEC5;" points="41.14,66.27 30.91,77.86 44.45,80.83 	"/>
</g>
</svg>
