<?xml version="1.0" encoding="utf-8"?>
<!-- Generator: Adobe Illustrator 24.0.3, SVG Export Plug-In . SVG Version: 6.00 Build 0)  -->
<svg version="1.1" id="Layer_1" xmlns="http://www.w3.org/2000/svg" xmlns:xlink="http://www.w3.org/1999/xlink" x="0px" y="0px"
	 viewBox="0 0 128 128" style="enable-background:new 0 0 128 128;" xml:space="preserve">
<path id="shoe_1_" style="fill:#4568AC;" d="M102.66,116.59c0,0-4.03-1.6-6.04-3.14c-1.88-1.44-3.58-3.4-4.75-4.44
	c-0.76-0.69-1.43-1-2.02-1c-0.6,0-1.13,0.31-1.58,0.86l-2.58,3.24c-1.08,1.78-0.16,4.11-0.16,4.11s-2.7,2.86,1.8,3.84
	c4.61,1.01,10.13,1.56,10.13,1.56c0.29,0.05,0.64,0.08,1.02,0.08c1.9,0,4.6-0.69,5.46-2.66
	C103.94,119.04,105.23,117.61,102.66,116.59z"/>
<path id="pants_1_" style="fill:#616161;" d="M85.26,111.53l-15.18-1.84c-0.01,0,5.13-15.82,6.64-23.31c0,0-12.54,3.72-18.98,3.72
	c0,0-0.78,13.4-1.05,19.78c-0.36,8.44,2.25,10.91,6.28,11.81c0.92,0.21,2.01,0.3,3.21,0.3c5.32,0,12.92-1.74,19.04-2.46
	C87.57,119.25,86.94,112.62,85.26,111.53z"/>
<path id="shoe" style="fill:#4568AC;" d="M47.09,119.62c-0.01-2.07-2.12-4.43-2.12-4.43l-7.62,0.01l-6.85,2.28
	c-1.66,0.66-2.75,2.25-2.76,4.04v1.38c0,0.6,0.49,1.09,1.09,1.09l17.02-0.05c0.69,0,1.25-0.56,1.25-1.26L47.09,119.62z"/>
<path id="pants" style="fill:#7C7C7C;" d="M77.43,77.58c-0.03-0.27-0.24-0.47-0.53-0.44l-18.07,1.23
	c-0.1,0.01-10.31,1.42-16.59,1.96c-7.44,0.64-8.14,8.01-7.84,15.13c0.25,5.96,1.91,19.67,1.93,19.81c0.02,0.15,0.11,0.29,0.24,0.37
	c0.07,0.04,1.82,1.06,4.94,1.06c3.14,0,4.71-1.05,4.76-1.1c0.11-0.08,0.19-0.21,0.21-0.35l2.57-20.71c1.31-0.06,5.43-0.25,8.76-0.12
	c6.45,0.26,12.94-0.08,16.78-4.26C77.16,87.37,78.12,83.13,77.43,77.58z"/>
<path id="head" style="fill:#E0BB95;" d="M68.93,28.98c1.09-3.72,1.69-8.33,1.19-11.1c-0.11-0.62-0.27-1.16-0.49-1.57
	c-0.63-1.11-1.47-2.18-2.46-3.14c-0.02-0.02-0.04-0.04-0.06-0.05c-0.22-0.22-0.45-0.43-0.69-0.63c-0.04-0.03-0.08-0.07-0.12-0.1
	c-0.22-0.19-0.44-0.37-0.67-0.54c-0.05-0.04-0.11-0.08-0.16-0.12c-0.22-0.17-0.45-0.33-0.68-0.48c-0.06-0.04-0.12-0.08-0.18-0.12
	c-0.23-0.15-0.47-0.3-0.71-0.44c-0.06-0.04-0.12-0.07-0.18-0.11c-0.25-0.14-0.5-0.27-0.75-0.4c-0.05-0.03-0.11-0.06-0.16-0.08
	c-0.27-0.13-0.55-0.26-0.83-0.38c-0.03-0.01-0.07-0.03-0.1-0.04c-1.55-0.63-3.17-1-4.74-1c-0.04,0-0.08,0.01-0.11,0.01
	c-0.35,0-0.69,0.02-1.03,0.06c-5.74,0.68-8.99,4.65-10.04,9.81c-0.38,1.87-0.41,3.76-0.15,5.1c0.03,0.16,0.29,1.34,0.3,1.7
	c0.15,1.41-2.63,2.68-3.02,4.22c-0.29,1.15,2.11,2.01,2.29,2.22c0.91,1.09-0.83,6,5.82,6.8c2.56,0.31,2.8,0.24,3.6,0.35
	c1.59,0.23,1.12,6.68,1.12,6.68l0.01,0v0l11.52-2.31c0,0-1.53-7.45,0.12-10.7C68.06,31.62,68.53,30.36,68.93,28.98z"/>
<path id="mouth" style="fill:#6D4C41;" d="M45.93,34.63c0.92,0.09,1.85-0.08,2.66-0.62c0.88-0.6,0.33-1.33-0.67-0.96
	c-0.6,0.23-1.44,0.31-2.2,0.13L45.93,34.63z"/>
<ellipse id="eye" transform="matrix(0.0138 -0.9999 0.9999 0.0138 23.1885 76.1685)" style="fill:#5D4037;" cx="50.21" cy="26.33" rx="1.88" ry="1.22"/>
<path id="eyebrow" style="fill:#AB872F;" d="M49.38,23.51c-1.22,0.23-1.42-0.58-0.96-1.17c0.34-0.44,1.1-0.75,2.46-0.34
	c1.28,0.39,1.75,1.19,2.05,1.69s0.22,0.95-0.09,0.95C52.42,24.65,50.89,23.23,49.38,23.51z"/>
<radialGradient id="shirt_2_" cx="62.0194" cy="72.2346" r="17.0361" gradientTransform="matrix(1 0 0 -1 0 128)" gradientUnits="userSpaceOnUse">
	<stop  offset="0.3666" style="stop-color:#F58B21"/>
	<stop  offset="0.6967" style="stop-color:#F17E22"/>
	<stop  offset="1" style="stop-color:#EC6E24"/>
</radialGradient>
<path id="shirt_1_" style="fill:url(#shirt_2_);" d="M71.27,48.75c-1.86-6.37-5.03-8-7.8-8c-2.88,0-5.32,1.78-5.32,1.78
	c-4.9,3.37-4.91,8.51-5.36,15.42C52.33,64.86,52,78.94,52,78.94s5.44,2.25,13.71,2.25h0.65C75,81.07,78.2,78.08,78.2,78.08
	S73.6,56.71,71.27,48.75z"/>
<linearGradient id="arm_1_" gradientUnits="userSpaceOnUse" x1="53.1412" y1="47.947" x2="51.0162" y2="62.322" gradientTransform="matrix(1 0 0 -1 0 128)">
	<stop  offset="0.5" style="stop-color:#E0BB95"/>
	<stop  offset="1" style="stop-color:#CCA47A"/>
</linearGradient>
<path id="arm" style="fill:url(#arm_1_);" d="M71.43,66.86c-0.48-3.02-2.76-14.41-2.78-14.52c-0.05-0.25-0.28-0.42-0.54-0.4
	l-10.25,0.98c-0.14,0.01-0.27,0.09-0.36,0.21c-0.08,0.12-0.11,0.26-0.08,0.4l3.56,15.21c-1.75,1.05-10.38,6.15-12.85,6.67
	c-1.67,0.35-4.53,0.75-7.83,1.19c-2.64,0.36-5.28,3.82-6.62,5.85c-0.4,0.61-0.36,1.4,0.08,1.96c0.33,0.43,0.83,0.65,1.33,0.65
	c0.33,0,0.66-0.1,0.94-0.3l3.57-2.12c0.51,0.07,2.01,0.25,4.05,0.16c2.52-0.11,4.97-1.19,5.05-1.23c0.91-0.35,5.26-1.12,9.47-1.87
	c3.14-0.56,6.38-1.13,8.57-1.59C73,76.81,71.86,69.58,71.43,66.86z"/>
<path id="shirt" style="fill:#EC6E24;" d="M69.68,52.87c-0.5-2.91-2.88-6.55-6.78-6.55c-0.34,0-0.7,0.03-1.07,0.09
	c-4.53,0.74-5.87,5.57-5.32,8.73l1.92,9.63L71.6,62.5L69.68,52.87z"/>
<g id="hairGroup">
	<path id="hair_1_" style="fill:#AB872F;" d="M73.58,16.58c-1.3-3.65-4.17-4.84-5.11-5.14c-0.4-1.32-2.46-6.34-10.67-5.3
		c-2,0.25-3.49,1.15-4.8,1.93c-0.56,0.34-1.1,0.66-1.6,0.87c-0.4,0.17-1.11,0.32-1.68,0.1c-1.3-0.48-0.81-2.46-0.81-2.46
		s-4.85,0.77-2.95,5.51c-1.64,0.65-2.46,2.34-2.81,3.94c-0.48,2.19,0.52,4.32,2.6,5.35c0,0-0.29-3.55,4.81-3.16
		c1.58,0.12,3.23,0.43,4.72-0.1c0.57-0.21,1.11-0.54,1.66-0.79c0.12,0,0.2,0,0.2,0c1.9,1.11-0.82,5.58,1.24,8.33
		c0.41,0.54,0.77,0.36,0.77,0.36l0.91-1.24c0.69-0.84,1.31-1.58,2.12-1.37c2.39,0.62,1.79,4.9-1.1,5.74
		c-0.29,0.08,0.19,4.9,6.11,5.12c3.06,0.12,4.23-2.39,4.23-2.39s-1.32,0.28-1.56-0.84c-0.13-0.58,0.43-1.34,1.42-2.15
		c2.85-2.35,1.96-5.21,1.58-6.1C73.34,22.01,74.6,19.43,73.58,16.58z"/>
	<g id="hairHighlights">
		
			<radialGradient id="SVGID_1_" cx="65.61" cy="100.1051" r="7.7369" gradientTransform="matrix(0.9245 0.3813 0.5491 -1.3313 -50.3281 136.4369)" gradientUnits="userSpaceOnUse">
			<stop  offset="0.45" style="stop-color:#BFA055;stop-opacity:0"/>
			<stop  offset="1" style="stop-color:#BFA055"/>
		</radialGradient>
		<path style="fill:url(#SVGID_1_);" d="M72.89,22.81c0.05-0.09-0.93,2.15-4.83,1.63c-1.61-0.06-3.99,3.73-1.74,6.38
			c2,2.34,5.12,1.09,5.12,1.09s-0.43,0.11-1.04-0.13c-0.39-0.16-0.52-0.69-0.52-0.71c-0.13-0.58,0.43-1.34,1.42-2.15
			C74.15,26.56,73.26,23.7,72.89,22.81z"/>
		
			<radialGradient id="SVGID_2_" cx="66.5245" cy="107.9071" r="7.8424" gradientTransform="matrix(0.9953 -0.0971 -0.1226 -1.2559 13.52 162.4038)" gradientUnits="userSpaceOnUse">
			<stop  offset="0.45" style="stop-color:#BFA055;stop-opacity:0"/>
			<stop  offset="1" style="stop-color:#BFA055"/>
		</radialGradient>
		<path style="fill:url(#SVGID_2_);" d="M73.58,16.58c-0.68-1.92-2-3.57-3.79-4.56c-0.26-0.15-0.89-0.48-1.34-0.58
			c0.18,0.85,0.12,1.74-0.27,2.66c-0.01,0.03-0.47,1.39-1.7,2.45c0.82,1.22,1.2,2.69,1.55,4.12c0.31,1.25,0.6,2.63,0.01,3.77
			c0.75-0.02,1.93,0.24,3.27-0.3c1.28-0.52,1.99-1.94,2.35-3.24C74.07,19.48,74.08,17.97,73.58,16.58z"/>
		
			<radialGradient id="SVGID_3_" cx="57.7759" cy="110.6135" r="16.1412" gradientTransform="matrix(0.9932 -0.1162 -0.0874 -0.7466 10.143 106.6882)" gradientUnits="userSpaceOnUse">
			<stop  offset="0.45" style="stop-color:#BFA055;stop-opacity:0"/>
			<stop  offset="1" style="stop-color:#BFA055"/>
		</radialGradient>
		<path style="fill:url(#SVGID_3_);" d="M68.19,14.1c1.03-2.39-0.21-4.67-2.17-6.24c-2.3-1.83-5.4-2.09-8.22-1.73
			c-2,0.25-3.49,1.15-4.8,1.93c-0.56,0.34-1.1,0.66-1.6,0.87c-0.4,0.17-1.11,0.32-1.68,0.1c-1.3-0.48-0.81-2.46-0.81-2.46
			s-4.85,0.77-2.95,5.51c-1.64,0.65-2.46,2.34-2.81,3.94c-0.48,2.19,0.52,4.32,2.6,5.35c0,0-0.29-3.55,4.81-3.16
			c1.58,0.12,3.23,0.43,4.72-0.1c1.32-0.48,1.79-1.16,3.24-1.03c1.57,0.15,3.64,0.82,5.27,0.64C67.1,17.35,68.17,14.14,68.19,14.1z"
			/>
		
			<radialGradient id="SVGID_4_" cx="67.3929" cy="99.1615" r="8.6894" gradientTransform="matrix(0.9593 0.2825 0.1816 -0.6167 -15.6172 71.3105)" gradientUnits="userSpaceOnUse">
			<stop  offset="0.45" style="stop-color:#BFA055;stop-opacity:0"/>
			<stop  offset="1" style="stop-color:#BFA055"/>
		</radialGradient>
		<path style="fill:url(#SVGID_4_);" d="M66.32,30.81c-1.01-1.16-1.22-3.01-2.84-4.06c-0.34,1.06-1.16,2.05-2.39,2.41
			c-0.29,0.08,0.19,4.9,6.11,5.12c3.06,0.12,4.23-2.39,4.23-2.39S68.36,33.14,66.32,30.81z"/>
	</g>
</g>
</svg>
