<?xml version="1.0" encoding="utf-8"?>
<!-- Generator: Adobe Illustrator 24.0.3, SVG Export Plug-In . SVG Version: 6.00 Build 0)  -->
<svg version="1.1" id="Layer_1" xmlns="http://www.w3.org/2000/svg" xmlns:xlink="http://www.w3.org/1999/xlink" x="0px" y="0px"
	 viewBox="0 0 128 128" style="enable-background:new 0 0 128 128;" xml:space="preserve">
<linearGradient id="arm_1_" gradientUnits="userSpaceOnUse" x1="82.2091" y1="49.9331" x2="82.2091" y2="88.4592" gradientTransform="matrix(1 0 0 1 0 2)">
	<stop  offset="0.5993" style="stop-color:#BA8D68"/>
	<stop  offset="1" style="stop-color:#A47B62"/>
</linearGradient>
<path id="arm_3_" style="fill:url(#arm_1_);" d="M86.56,90.88c-0.18,0-0.34-0.05-0.46-0.14c-0.53-0.4-0.44-2.61-0.41-3.34
	c0.04-1-0.53-2.23-1.08-2.81c-0.28-0.29-0.58-0.44-0.88-0.44h-0.04l-0.11,0.01l-0.13,0.04c-0.67,0.15-0.68,0.98-0.69,1.79
	c-0.01,0.56-0.02,1.18-0.2,1.71c-0.1,0.3-0.47,0.31-0.54,0.31c-0.44,0-0.92-0.28-0.94-0.9c0-0.08-0.02-0.18-0.06-0.33
	c-0.07-0.35-0.23-1.07-0.15-2.54c0.1-1.76,0.31-3.77,1.11-5.38l0.1-0.19l-5.36-19.3l-2.1-6.87c0.76-0.4,2.6-1.25,4.45-1.25
	c2.15,0,3.66,1.14,4.5,3.38c1.38,3.6,2.23,7.95,2.68,13.7c0.35,4.42,0.94,8.1,1.21,8.96c0.08,0.25,0.24,0.76,0.24,0.76
	c0.31,1.01,0.43,1.39,1.72,4.1c0.68,1.43,0.41,2.87,0.09,4.54c-0.11,0.56-0.21,1.12-0.29,1.7C89.03,89.66,87.55,90.88,86.56,90.88z"
	/>
<linearGradient id="arm_4_" gradientUnits="userSpaceOnUse" x1="45.7918" y1="49.9331" x2="45.7918" y2="88.4592" gradientTransform="matrix(1 0 0 1 0 2)">
	<stop  offset="0.5993" style="stop-color:#BA8D68"/>
	<stop  offset="1" style="stop-color:#A47B62"/>
</linearGradient>
<path id="arm_2_" style="fill:url(#arm_4_);" d="M41.44,90.88c-0.99,0-2.47-1.23-2.64-2.48c-0.08-0.59-0.19-1.16-0.29-1.7
	c-0.32-1.67-0.59-3.12,0.08-4.55c1.28-2.69,1.41-3.1,1.71-4.07c0.07-0.22,0.14-0.47,0.25-0.78c0.27-0.81,0.86-4.47,1.22-8.96
	c0.46-5.76,1.31-10.11,2.67-13.69c0.85-2.24,2.37-3.37,4.51-3.37c1.86,0,3.7,0.85,4.45,1.24l-2.1,6.85l-5.36,19.31l0.1,0.19
	c0.81,1.61,1.01,3.62,1.11,5.38c0.07,1.47-0.08,2.19-0.16,2.54c-0.03,0.15-0.05,0.25-0.05,0.33c-0.03,0.62-0.51,0.9-0.94,0.9
	c-0.28,0-0.48-0.11-0.54-0.31c-0.18-0.52-0.19-1.15-0.2-1.7c-0.01-0.81-0.03-1.65-0.77-1.82c0,0-0.18-0.02-0.18-0.02
	c-0.33,0-0.62,0.15-0.91,0.44c-0.55,0.57-1.12,1.81-1.08,2.8c0.03,0.73,0.12,2.94-0.42,3.35C41.78,90.84,41.62,90.88,41.44,90.88z"
	/>
<path style="fill:#7C7C7C;" d="M70.72,121.41l-5.15-35.06c-0.15-0.76-0.81-1.27-1.56-1.27s-1.41,0.51-1.55,1.22l-5.17,35.11
	l-6.2,0.24l-1.03-46.03h27.88l-1.02,46.03L70.72,121.41z"/>
<g id="shoes_1_">
	<path style="fill:#424242;" d="M74.02,124h4.45c0.82-0.02,1.41-0.96,1.17-1.78c-0.74-2.49-2.99-4.32-5.62-4.32
		c-2.68,0-4.96,1.9-5.66,4.46c-0.22,0.82,0.39,1.63,1.21,1.63h4.45L74.02,124z"/>
	<path style="fill:#424242;" d="M53.98,124h-4.45c-0.82-0.02-1.41-0.96-1.17-1.78c0.74-2.49,2.99-4.32,5.62-4.32
		c2.68,0,4.96,1.9,5.66,4.46c0.22,0.82-0.39,1.63-1.21,1.63h-4.45V124z"/>
</g>
<linearGradient id="shirt_1_" gradientUnits="userSpaceOnUse" x1="64.015" y1="41.571" x2="64.015" y2="74.9683" gradientTransform="matrix(1 0 0 1 0 2)">
	<stop  offset="0" style="stop-color:#00BFA5"/>
	<stop  offset="0.7047" style="stop-color:#00B29A"/>
	<stop  offset="1" style="stop-color:#00AB94"/>
</linearGradient>
<path id="shirt_2_" style="fill:url(#shirt_1_);" d="M73.67,44.87c-2.41-0.64-5.58-1.06-9.54-1.06h-0.08h-0.08
	c-3.96,0-7.18,0.42-9.57,1.06c-7.55,2.01-9.46,6.56-11.71,12.65l7.37,3.2V78h28V60.72l7.28-3.2C83.09,51.43,81.22,46.88,73.67,44.87
	z"/>
<path id="neck_4_" style="fill:#99674F;" d="M64,40.72h-5v5.3c0,2.4,2.03,4.34,4.54,4.34h0.91c2.51,0,4.54-1.94,4.54-4.34v-5.3H64z"
	/>
<path id="ears" style="fill:#99674F;" d="M75.97,24.34h-3.23H55.26h-3.23c-2.58,0-4.69,2.25-4.69,5s2.11,5,4.69,5h3.23h17.49h3.23
	c2.58,0,4.69-2.25,4.69-5S78.56,24.34,75.97,24.34z"/>
<path id="head" style="fill:#BA8D68;" d="M64,6.66L64,6.66L64,6.66c-7.62,0-14.69,8.15-14.69,19.89c0,11.67,7.28,17.44,14.69,17.44
	s14.69-5.77,14.69-17.44C78.69,14.81,71.62,6.66,64,6.66z"/>
<g id="hairGroup_3_">
	<path id="hair_5_" style="fill:#543930;" d="M64.01,4.01L64.01,4.01C64.01,4.01,64,4.01,64.01,4.01c-0.01,0-0.01,0-0.01,0l0,0
		c-19.47,0.1-15.48,22.34-15.48,22.34s1.05,3.85,1.05,3.77c0,0,2.31-8.61,3.19-10.95c0.44-1.18,1.67-1.87,2.91-1.64
		c1.91,0.34,4.95,0.77,8.3,0.77c0.01,0,0.02,0,0.04,0c0.01,0,0.02,0,0.04,0c3.35,0,6.39-0.43,8.3-0.77
		c1.24-0.23,2.47,0.46,2.91,1.64c0.88,2.34,3.18,10.95,3.18,10.95c0,0.08,1.06-3.77,1.06-3.77S83.48,4.11,64.01,4.01z"/>
	
		<radialGradient id="hairHighlights_1_" cx="64.0008" cy="20.887" r="16.3617" gradientTransform="matrix(1 0 0 1.1282 0 -0.8431)" gradientUnits="userSpaceOnUse">
		<stop  offset="0.7945" style="stop-color:#6D4C41;stop-opacity:0"/>
		<stop  offset="1" style="stop-color:#6D4C41"/>
	</radialGradient>
	<path id="hairHighlights" style="fill:url(#hairHighlights_1_);" d="M79.49,26.35c0,0,3.99-22.24-15.48-22.34l0,0c0,0,0,0-0.01,0h0
		c0,0,0,0-0.01,0l0,0c-0.3,0-0.6,0.01-0.89,0.02c-0.58,0.03-1.14,0.07-1.68,0.13c-0.01,0-0.01,0-0.02,0
		c-0.04,0.01-0.08,0.01-0.11,0.01C44.91,6.24,48.51,26.35,48.51,26.35s1.05,3.85,1.05,3.77c0,0,2.31-8.61,3.19-10.95
		c0.44-1.18,1.67-1.87,2.91-1.64c1.91,0.34,4.95,0.77,8.3,0.77c0.01,0,0.02,0,0.04,0c0.01,0,0.02,0,0.04,0
		c3.35,0,6.39-0.43,8.3-0.77c1.24-0.23,2.47,0.46,2.91,1.64c0.88,2.34,3.18,10.95,3.18,10.95C78.42,30.2,79.49,26.35,79.49,26.35z"
		/>
</g>
<path id="mouth_4_" style="fill:#5D4037;" d="M67.69,35.99c-1.4,0.83-5.97,0.83-7.37,0c-0.8-0.48-1.62,0.25-1.29,0.98
	c0.33,0.72,2.82,2.38,4.98,2.38c2.16,0,4.62-1.66,4.95-2.38C69.3,36.24,68.49,35.51,67.69,35.99z"/>
<path id="nose_4_" style="fill:#99674F;" d="M65.69,32.4c-0.05-0.02-0.09-0.03-0.14-0.04h-3.1c-0.05,0.01-0.1,0.02-0.14,0.04
	c-0.28,0.11-0.44,0.4-0.3,0.72S62.76,34.3,64,34.3c1.24,0,1.86-0.87,1.99-1.18C66.13,32.81,65.97,32.52,65.69,32.4z"/>
<g id="eyes_4_">
	<ellipse style="fill:#49362E;" cx="56.8" cy="28.33" rx="2.16" ry="2.24"/>
	<ellipse style="fill:#49362E;" cx="71.2" cy="28.33" rx="2.16" ry="2.24"/>
</g>
<g id="eyebrows_4_">
	<path style="fill:#613E31;" d="M68,24.32c0.41-0.54,1.36-1.34,3.21-1.34s2.8,0.79,3.21,1.34c0.18,0.24,0.14,0.52,0.01,0.69
		c-0.12,0.16-0.46,0.3-0.84,0.17c-0.38-0.13-1.13-0.51-2.37-0.52c-1.25,0.01-1.99,0.39-2.37,0.52c-0.38,0.13-0.73-0.01-0.84-0.17
		C67.86,24.83,67.82,24.56,68,24.32z"/>
	<path style="fill:#613E31;" d="M53.59,24.32c0.41-0.54,1.36-1.34,3.21-1.34s2.8,0.79,3.21,1.34c0.18,0.24,0.14,0.52,0.01,0.69
		c-0.12,0.16-0.46,0.3-0.84,0.17c-0.38-0.13-1.13-0.51-2.37-0.52c-1.25,0.01-1.99,0.39-2.37,0.52c-0.38,0.13-0.73-0.01-0.84-0.17
		C53.45,24.83,53.41,24.56,53.59,24.32z"/>
</g>
</svg>
