<?xml version="1.0" encoding="utf-8"?>
<!-- Generator: Adobe Illustrator 25.2.3, SVG Export Plug-In . SVG Version: 6.00 Build 0)  -->
<svg version="1.1" id="Layer_3" xmlns="http://www.w3.org/2000/svg" xmlns:xlink="http://www.w3.org/1999/xlink" x="0px" y="0px"
	 viewBox="0 0 128 128" style="enable-background:new 0 0 128 128;" xml:space="preserve">
<path style="fill:#6CA4AE;" d="M51.87,55.06c0,0-22.76,8.59-28.21,10.49c-4.19,1.47-14.04,5.32-16.49,6.54s-3.3,2.17-3.57,4.08
	c-0.27,1.91-0.11,4.37,0.85,5.59s6.54,6.95,14.04,12.4s15.26,11.58,22.35,11.72c7.09,0.14,27.67-10.36,47.7-19.49
	s29.98-13.76,31.35-14.58s4.67-2.29,4.56-6.78c-0.09-3.68-7.99-6.93-7.99-6.93l-27.64-13L51.87,55.06z"/>
<path style="fill:#A8CFD7;" d="M55.96,62.56c0,0-8.72,3.41-11.86,5.04c-3.13,1.64-27.39,10.63-27.39,10.63s-6.13,2.45-6.81,3.27
	s0.55,2.73,1.36,3.82c0.82,1.09,11.74,9.26,15.81,11.72c4.35,2.64,8.99,4.91,10.63,5.04c1.64,0.14,9.81-1.5,9.81-1.5l35.98-14.62
	c4.03-1.73,16.46-7.68,22.22-10.33c5.76-2.65,11.2-5.53,13.14-6.77c1.89-1.2,4.07-2.59,4.01-5.35c-0.05-2.11-1.84-2.99-4.14-4.38
	c-2.3-1.38-11.28-5.41-11.28-5.41L55.96,62.56z"/>
<path style="fill:#6BA3AC;" d="M97.55,58.87L49.4,66.09c0,0-2.22,0.7-1.7,2.16s3.06,2.55,5.99,4.33
	c2.93,1.78,21.28,12.72,23.89,12.76c0.82,0.01,3.51-1.29,5.86-2.27c5.46-2.26,13.63-6.25,17.97-8.39c6.31-3.12,13.71-5.65,13.5-7.95
	c-0.21-2.3-4.61-3.77-4.61-3.77L97.55,58.87z"/>
<path style="fill:#6BA3AC;" d="M51.82,78.34c3.69,1.01,9.88,3.1,9.88,3.1l11.73,6.11l-13.99,7.87l-7.96,2.26
	c0,0-5.36,1.17-8.63,1.26c-3.27,0.08-7.87-1.93-7.87-1.93L51.82,78.34z"/>
<path style="fill:#DCEDF6;" d="M5.98,72.24c0,0-1.53,0.7-2.16,2.26c-0.94,2.32,0.81,3.9,1.43,4.79c1.28,1.83,7.04,7.03,7.04,7.03
	s-2.11-2.34-2.07-4.02c0.02-0.69,0.43-1.83,0.43-1.83s-2.84-3.16-3.33-3.9s-1.38-2.02-0.84-2.91c0.54-0.89,1.84-1.51,1.58-1.95
	C7.93,71.47,6.77,71.89,5.98,72.24z"/>
<path style="fill:#DCEDF6;" d="M37.28,101.6c-0.65,0.45,3.05,1.35,8.29,0.69c5.76-0.72,40.35-17.41,40.35-17.41
	s-0.24-0.94-0.84-1.41c-0.69-0.54-1.65-0.39-1.65-0.39s-28.62,12.54-32.1,14.04c-1.96,0.84-7.1,2.86-8.41,3.27
	C40.83,101.03,37.56,101.41,37.28,101.6z"/>
<path style="fill:#FFE265;" d="M53.23,48.43c0,0-4.62-12.14-3.49-13.05c1.13-0.9,12.09-5.65,20.38-8.44s13.19-4.15,14.55-4.07
	c1.36,0.08,6.86,1.81,11.91,3.54c5.05,1.73,16.21,6.33,16.28,9.05c0.08,2.71-17.26,22.99-17.26,22.99L53.23,48.43z"/>
<path style="fill:#FEB502;" d="M77.95,47.96c0.74-1.24,8.71-4.17,18.61-7.89c9.41-3.53,15.34-5.59,16.14-5.1
	c1.23,0.76,1.02,6.46,0.91,16.2c-0.08,7.1-0.27,12.73-1.32,13.87c-0.99,1.07-11.06,5.61-16.76,8.34c-5.7,2.72-16.31,7.83-18.18,8.06
	c-2.33,0.29-4.83-1.07-4.83-1.07L77.95,47.96z"/>
<path style="fill:#FFEBC9;" d="M48.81,66.37c0.92,2.02,6.89,5.21,11.97,8.01c5.7,3.14,13.46,7.92,15.68,6.93
	c1.56-0.69,1.49-15.27,1.49-21.13s0.21-11.85-0.08-12.26c-0.57-0.81-10.57-5.16-13.95-6.81c-3.38-1.65-13.2-6.88-14.28-5.61
	c-1.08,1.27-0.74,8.75-0.83,17.33S47.98,64.56,48.81,66.37z"/>
<path style="fill:#FFE265;" d="M36.36,89.08L12.81,74.24c0,0-1.81-0.39-2.03,1.01c-0.22,1.4-0.7,5.78-0.25,6.59
	c0.44,0.81,6.5,5.83,9.67,8.12s12.69,9.44,13.58,9.44c0.89,0,7.17-6.48,7.17-6.48L36.36,89.08z"/>
<path style="fill:#FEB502;" d="M33.85,91l7.68-7.9l20.18-1.66c0,0,1.75,0.25,1.75,1.8s0.37,5.09-0.52,5.83s-8.11,2.92-13.73,4.87
	c-6.79,2.36-14.56,5.65-15.5,5.46C33.33,99.34,33.85,91,33.85,91z"/>
<path style="fill:#FFEBC9;" d="M37.84,67.96c-2.58-0.11-11.48,3.06-15.2,3.83c-3.89,0.81-10.27,1.86-11.08,2.59s2.11,2.85,4.2,4.37
	c2.49,1.81,14.28,9.99,15.61,11.03c1.33,1.03,2.51,1.7,4.36,0.96c1.85-0.74,7.64-3.01,13.84-4.71c6.2-1.7,13.66-3.69,13.36-4.06
	c-0.3-0.37-8.99-5.44-14.15-8.47C45.23,71.43,41.23,68.11,37.84,67.96z"/>
</svg>
