<?xml version="1.0" encoding="utf-8"?>
<!-- Generator: Adobe Illustrator 24.0.3, SVG Export Plug-In . SVG Version: 6.00 Build 0)  -->
<svg version="1.1" id="Layer_1" xmlns="http://www.w3.org/2000/svg" xmlns:xlink="http://www.w3.org/1999/xlink" x="0px" y="0px"
	 viewBox="0 0 128 128" style="enable-background:new 0 0 128 128;" xml:space="preserve">
<g id="hairGroup">
	<path id="hair_3_" style="fill:#3C2C23;" d="M91.12,79.85c-1.25-2.27,0.34-4.58,3.06-7.44c4.31-4.54,9-15.07,4.64-25.76
		c0.03-0.06-0.86-1.86-0.83-1.92l-1.79-0.09c-0.57-0.08-20.26-0.12-39.97-0.12s-39.4,0.04-39.97,0.12c0,0-2.65,1.95-2.63,2.01
		c-4.35,10.69,0.34,21.21,4.64,25.76c2.71,2.86,4.3,5.17,3.06,7.44c-1.21,2.21-4.81,2.53-4.81,2.53s0.83,2.26,2.83,3.48
		c1.85,1.13,4.13,1.39,5.7,1.43c0,0,6.15,8.51,22.23,8.51l8.95,0l8.95,0c16.08,0,22.23-8.51,22.23-8.51c1.57-0.04,3.85-0.3,5.7-1.43
		c2-1.22,2.83-3.48,2.83-3.48S92.33,82.06,91.12,79.85z"/>
	<g id="hairHighlights_1_">
		
			<radialGradient id="SVGID_1_" cx="107.4158" cy="45.8498" r="23.419" gradientTransform="matrix(1 0 0 0.4912 -36.6107 59.6285)" gradientUnits="userSpaceOnUse">
			<stop  offset="0.7275" style="stop-color:#554138;stop-opacity:0"/>
			<stop  offset="1" style="stop-color:#554138"/>
		</radialGradient>
		<path style="fill:url(#SVGID_1_);" d="M56.21,95.79v-9.44l28.57-2.26l2.6,3.2c0,0-6.15,8.51-22.23,8.51L56.21,95.79z"/>
		
			<radialGradient id="SVGID_2_" cx="84.3505" cy="49.3316" r="6.9209" gradientTransform="matrix(-0.9057 0.4238 -0.3144 -0.6719 185.7801 76.0633)" gradientUnits="userSpaceOnUse">
			<stop  offset="0.6628" style="stop-color:#554138"/>
			<stop  offset="1" style="stop-color:#554138;stop-opacity:0"/>
		</radialGradient>
		<path style="fill:url(#SVGID_2_);" d="M87.32,83.16c-4.28-6.5,5.21-8.93,5.21-8.93s0.01,0.01,0.01,0.01
			c-1.65,2.05-2.4,3.84-1.43,5.61c1.21,2.21,4.81,2.53,4.81,2.53S91.01,86.74,87.32,83.16z"/>
		
			<radialGradient id="SVGID_3_" cx="102.2869" cy="68.9103" r="30.3992" gradientTransform="matrix(-0.0746 -0.9972 0.8311 -0.0622 26.2964 165.378)" gradientUnits="userSpaceOnUse">
			<stop  offset="0.7247" style="stop-color:#554138;stop-opacity:0"/>
			<stop  offset="1" style="stop-color:#554138"/>
		</radialGradient>
		<path style="fill:url(#SVGID_3_);" d="M98.84,46.65c4.25,10.35-0.22,21.01-4.41,25.51c-0.57,0.62-3.01,3.01-3.57,4.92
			c0,0-9.54-13.31-12.39-21.13c-0.57-1.58-1.1-3.2-1.17-4.88c-0.05-1.26,0.14-2.76,0.87-3.83c0.89-1.31,20.16-1.7,20.16-1.7
			C98.33,45.55,98.84,46.65,98.84,46.65z"/>
		
			<radialGradient id="SVGID_4_" cx="36.5325" cy="68.9103" r="30.3992" gradientTransform="matrix(0.0746 -0.9972 -0.8311 -0.0622 91.0769 99.8069)" gradientUnits="userSpaceOnUse">
			<stop  offset="0.7247" style="stop-color:#554138;stop-opacity:0"/>
			<stop  offset="1" style="stop-color:#554138"/>
		</radialGradient>
		<path style="fill:url(#SVGID_4_);" d="M13.62,46.65C9.38,57,13.85,67.66,18.03,72.15c0.58,0.62,3.01,3.01,3.57,4.92
			c0,0,9.54-13.31,12.39-21.13c0.58-1.58,1.1-3.2,1.17-4.88c0.05-1.26-0.14-2.76-0.87-3.83c-0.89-1.31-1.93-0.96-3.44-0.96
			c-2.88,0-15.49-0.74-16.47-0.74C14.39,45.55,13.62,46.65,13.62,46.65z"/>
		
			<radialGradient id="SVGID_5_" cx="41.6614" cy="45.8498" r="23.419" gradientTransform="matrix(-1 0 0 0.4912 83.3228 59.6285)" gradientUnits="userSpaceOnUse">
			<stop  offset="0.7275" style="stop-color:#554138;stop-opacity:0"/>
			<stop  offset="1" style="stop-color:#554138"/>
		</radialGradient>
		<path style="fill:url(#SVGID_5_);" d="M56.26,95.79v-9.44l-28.57-2.26l-2.6,3.2c0,0,6.15,8.51,22.23,8.51L56.26,95.79z"/>
		
			<radialGradient id="SVGID_6_" cx="18.5961" cy="49.3316" r="6.9209" gradientTransform="matrix(0.9057 0.4238 0.3144 -0.6719 -13.7567 103.9312)" gradientUnits="userSpaceOnUse">
			<stop  offset="0.6628" style="stop-color:#554138"/>
			<stop  offset="1" style="stop-color:#554138;stop-opacity:0"/>
		</radialGradient>
		<path style="fill:url(#SVGID_6_);" d="M25.15,83.16c4.28-6.5-5.21-8.93-5.21-8.93s-0.01,0.01-0.01,0.01
			c1.65,2.05,2.4,3.84,1.43,5.61c-1.21,2.21-4.81,2.53-4.81,2.53S21.45,86.74,25.15,83.16z"/>
	</g>
</g>
<g id="shirt">
	
		<linearGradient id="SVGID_7_" gradientUnits="userSpaceOnUse" x1="4.222" y1="18.184" x2="108.222" y2="18.184" gradientTransform="matrix(1 0 0 -1 0 128)">
		<stop  offset="5.160877e-04" style="stop-color:#E3E3E3"/>
		<stop  offset="1" style="stop-color:#C9C9C9"/>
	</linearGradient>
	<path style="fill:url(#SVGID_7_);" d="M56.35,95.7c-0.04,0-0.09,0-0.13,0c-25.49,0.03-52,7.28-52,25.06v3.18h1.5h1.5h98h1.5h1.5
		v-3.18C108.22,104,81.96,95.7,56.35,95.7z"/>
</g>
<g id="neck">
	<path style="fill:#7A4C32;" d="M56.22,90.08h-9.08v9.98c0,4.51,3.7,8.17,8.26,8.17h1.65c4.56,0,8.26-3.66,8.26-8.17v-9.98
		L56.22,90.08z"/>
</g>
<g id="scarf">
	
		<linearGradient id="SVGID_8_" gradientUnits="userSpaceOnUse" x1="67.7136" y1="36.3563" x2="64.1893" y2="21.6717" gradientTransform="matrix(1 0 0 -1 0 128)">
		<stop  offset="0" style="stop-color:#0053AB"/>
		<stop  offset="0.3617" style="stop-color:#0068BF"/>
		<stop  offset="0.9995" style="stop-color:#008EE3"/>
	</linearGradient>
	<path style="fill:url(#SVGID_8_);" d="M71.64,95.18c1.45,2.18,1.64,7.04-2.61,11.15c-2.49,2.4-6.74,2.73-10.03,2.64
		c-0.67-0.02-1.44-0.16-1.76-0.81c-0.36-0.73,0.11-1.68,0.76-2.1c0.65-0.42,1.42-0.51,2.14-0.75c1.51-0.51,3.9-3.31,4.46-7.46
		c0.36-2.67,0.13-3.89,0.19-4.74C64.84,92.44,70.54,93.53,71.64,95.18z"/>
	
		<linearGradient id="SVGID_9_" gradientUnits="userSpaceOnUse" x1="38.5377" y1="31.6776" x2="59.2137" y2="17.7146" gradientTransform="matrix(1 0 0 -1 0 128)">
		<stop  offset="5.160877e-04" style="stop-color:#008EE3"/>
		<stop  offset="1" style="stop-color:#0053AB"/>
	</linearGradient>
	<path style="fill:url(#SVGID_9_);" d="M41.46,106.63c5.15,3.8,11.58,5.17,17.75,3.6c0.85-0.22,1.86-0.68,1.91-1.56
		c0.06-1.18-1.55-2.4-2.7-2.57c-2.95-0.44-6.33-1.94-8.23-4.25c-1.68-2.05-2.43-3.61-2.37-7.37c0.02-1.47-6.69-0.18-8.4,0.71
		C36.84,96.53,35.48,102.22,41.46,106.63z"/>
	
		<linearGradient id="SVGID_10_" gradientUnits="userSpaceOnUse" x1="-317.6668" y1="47.3039" x2="-317.6668" y2="32.5048" gradientTransform="matrix(0.812 -7.600000e-03 7.600000e-03 -0.8119 317.5721 146.4201)">
		<stop  offset="0" style="stop-color:#0053AB"/>
		<stop  offset="0.9995" style="stop-color:#008EE3"/>
	</linearGradient>
	<path style="fill:url(#SVGID_10_);" d="M57,113.52c0.19,4.44,2.5,5.89,1.14,9.45c2.23-1.42,3.77-3.82,4.41-6.39s0.41-5.3-0.38-7.8
		c-0.22-0.71-0.51-1.44-1.07-1.93C58.36,104.45,56.92,111.85,57,113.52z"/>
	
		<linearGradient id="SVGID_11_" gradientUnits="userSpaceOnUse" x1="62.9469" y1="20.5035" x2="72.2205" y2="14.1867" gradientTransform="matrix(1 0 0 -1 0 128)">
		<stop  offset="0" style="stop-color:#0053AB"/>
		<stop  offset="0.9995" style="stop-color:#008EE3"/>
	</linearGradient>
	<path style="fill:url(#SVGID_11_);" d="M66.02,114.06c4.41,1.9,6.73,0.39,9.61,4.98c0.22-3.24-1.03-6.5-3.11-8.97
		s-4.96-4.2-8.02-5.19c-0.88-0.28-1.81-0.51-2.71-0.3C57.4,105.6,62.06,112.35,66.02,114.06z"/>
	
		<ellipse transform="matrix(0.9787 -0.2052 0.2052 0.9787 -20.7756 14.4984)" style="fill:#1565C0;" cx="59.51" cy="107.42" rx="5.3" ry="3.35"/>
</g>
<g id="face">
	<g id="ears">
		<path style="fill:#7A4C32;" d="M83.55,50.43h-7.37H36.26H28.9c-5.89,0-10.71,5.14-10.71,11.41S23,73.26,28.9,73.26h7.37h39.91
			h7.37c5.89,0,10.71-5.14,10.71-11.41S89.44,50.43,83.55,50.43z"/>
	</g>
	<g id="head">
		<path style="fill:#A56C43;" d="M56.22,11.07L56.22,11.07L56.22,11.07c-17.4,0-33.52,18.61-33.52,45.4
			c0,26.64,16.61,39.81,33.52,39.81S89.74,83.1,89.74,56.46C89.74,29.68,73.63,11.07,56.22,11.07z"/>
	</g>
	<g id="eyebrows">
		<path style="fill:#42312C;" d="M47.02,50.15c-0.93-1.23-3.07-3.01-7.23-3.01s-6.31,1.79-7.23,3.01c-0.41,0.54-0.31,1.17-0.02,1.55
			c0.26,0.35,1.04,0.68,1.9,0.39s2.54-1.16,5.35-1.18c2.81,0.02,4.49,0.89,5.35,1.18c0.86,0.29,1.64-0.03,1.9-0.39
			C47.32,51.32,47.43,50.69,47.02,50.15z"/>
		<path style="fill:#42312C;" d="M79.89,50.15c-0.93-1.23-3.07-3.01-7.23-3.01s-6.31,1.79-7.23,3.01c-0.41,0.54-0.31,1.17-0.02,1.55
			c0.26,0.35,1.04,0.68,1.9,0.39s2.54-1.16,5.35-1.18c2.81,0.02,4.49,0.89,5.35,1.18c0.86,0.29,1.64-0.03,1.9-0.39
			C80.2,51.32,80.3,50.69,79.89,50.15z"/>
	</g>
	<g id="eyes">
		<ellipse style="fill:#42312C;" cx="72.66" cy="58.81" rx="4.93" ry="5.1"/>
		<ellipse style="fill:#42312C;" cx="39.79" cy="58.81" rx="4.93" ry="5.1"/>
	</g>
	<path id="nose" style="fill:#875334;" d="M60.08,68.06c-0.11-0.04-0.21-0.07-0.32-0.08h-7.08c-0.11,0.01-0.22,0.04-0.32,0.08
		c-0.64,0.26-0.99,0.92-0.69,1.63c0.3,0.71,1.71,2.69,4.55,2.69s4.25-1.99,4.55-2.69C61.08,68.98,60.72,68.32,60.08,68.06z"/>
	<path id="mouth" style="fill:#473530;" d="M64.64,76.14c-3.19,1.89-13.63,1.89-16.81,0c-1.83-1.09-3.7,0.58-2.94,2.24
		c0.75,1.63,6.44,5.42,11.37,5.42s10.55-3.79,11.3-5.42C68.31,76.72,66.47,75.05,64.64,76.14z"/>
</g>
<g id="paint_x5F_gear">
	<path style="fill:#A7A9AC;" d="M109.44,66.82l-3.58,12.62l1.03,0.23c1.1,0.25,2.09,0.69,3.05,1.11c0.35,0.15,0.69,0.3,1.02,0.44
		l1.01,0.41l3.96-12.89L109.44,66.82z"/>
	<path style="fill:#603913;" d="M111.71,79.36c-0.32-0.13-0.64-0.27-0.97-0.42c-1-0.44-2.13-0.94-3.42-1.23l-0.93-0.21l-13.13,46.33
		H99l13.56-44.13L111.71,79.36z"/>
	<g>
		
			<linearGradient id="SVGID_12_" gradientUnits="userSpaceOnUse" x1="100.4473" y1="38.9912" x2="99.8892" y2="-6.4971" gradientTransform="matrix(1 0 0 -1 0 128)">
			<stop  offset="1.800000e-03" style="stop-color:#FFDBB5"/>
			<stop  offset="1" style="stop-color:#A97C50"/>
		</linearGradient>
		<path style="fill:url(#SVGID_12_);" d="M105.65,89.11c-3.07,0-6.43,0.67-10.01,2.14c-7.87,3.25-13.02,10.14-16.36,17.53
			c-1.7,3.78-2.55,7.49-2.93,11.46c-0.12,1.22-0.14,2.42-0.03,3.7h0.98h0.98h38.76h1.18h1.14
			C129.73,107.22,121.63,89.11,105.65,89.11z"/>
	</g>
	<path style="fill:#00AEEF;" d="M99.06,99.04c-0.34-1.75-1.85-3.31-3.67-3.43c-2.08-0.14-3.15,1.66-3.67,3.41
		c-0.52,1.75-0.55,3.76,0.65,5.25c1.32,1.64,3.72,1.57,5.01-0.04c0.47-0.58,0.82-1.32,1.04-2.1
		C99.05,101.27,99.27,100.14,99.06,99.04z"/>
	<path style="fill:#00C853;" d="M110.43,93.94c-1.73-1.12-4.33-0.09-5.85,0.97c-1.71,1.18-2.96,3.48-2.02,5.54
		c0.93,2.02,3.41,2.62,5.36,1.83c1.71-0.7,3.65-2.57,3.6-4.54C112.01,96.37,111.87,94.87,110.43,93.94z"/>
	<path style="fill:#FFF200;" d="M115.59,103.24c-1.68-0.09-3.47,0.7-4.76,1.74c-1.41,1.13-2.4,2.84-1.49,4.61
		c0.84,1.61,2.79,2.18,4.48,1.99c1.59-0.17,3.12-1.09,4-2.43c0.32-0.48,0.54-1.05,0.59-1.62c0.12-0.31,0.22-0.64,0.26-1
		C118.9,104.63,117.36,103.33,115.59,103.24z"/>
	<path style="fill:#EF4136;" d="M111.98,116.56c-0.81-1.25-2.38-1.71-3.78-1.98c-1.61-0.31-3.49-0.16-4.75,1.03
		c-1.48,1.39-1.19,3.58,0.46,4.67c0.34,0.22,0.74,0.41,1.17,0.57c1.48,1.12,3.4,0.79,5.02,0.19c1.25-0.47,2.28-1.57,2.34-2.85
		c0-0.02,0.01-0.03,0.01-0.05C112.54,117.45,112.34,116.93,111.98,116.56z"/>
	<path style="fill:#00AEEF;" d="M119.61,68.23c-0.15,0.55-0.39,1.08-0.73,1.68c-0.16,0.28-0.34,0.55-0.53,0.8
		c-1.39,1.84-3.51,2.91-5.66,2.91c-0.68,0-1.35-0.1-2.01-0.32c-2.32-0.77-3.9-2.5-4.39-4.75c-0.09-0.37-0.14-0.75-0.16-1.15
		c-0.07-1.15,0.19-2.38,0.78-3.77c0.52-1.22,1.24-2.29,1.93-3.33c0.52-0.79,1.01-1.54,1.43-2.33c0.32-0.64,1.48-3.35,1.94-4.86
		c0.17-0.54,0.61-0.94,1.16-1.04c0.55-0.11,1.12,0.09,1.47,0.53l0.04,0.04C117.43,55.79,121.7,61.04,119.61,68.23z"/>
	<path style="fill:#D1D3D4;" d="M118.35,70.71c-1.39,1.84-3.51,2.91-5.66,2.91c-0.68,0-1.35-0.1-2.01-0.32
		c-2.32-0.77-3.9-2.5-4.39-4.75c4.21,2.72,4.77-5.36,9.23-5.3C119.39,63.3,115.55,69.82,118.35,70.71z"/>
</g>
<g id="hairGroup_1_">
	<path id="hair" style="fill:#3C2C23;" d="M96.29,25.11c-2.44-3.69-7.91-8.64-12.82-8.97c-0.79-4.72-5.84-8.72-10.73-10.27
		C59.51,1.68,50.9,6.38,46.28,8.9c-0.96,0.52-7.17,3.97-11.51,1.5c-2.72-1.55-2.67-5.74-2.67-5.74s-8.52,3.25-5.61,12.3
		c-2.93,0.12-6.77,1.36-8.8,5.47c-2.42,4.9-1.56,8.99-0.86,10.95c-2.52,2.14-5.69,6.69-3.52,12.6c1.64,4.45,8.17,6.5,8.17,6.5
		c-0.46,8.01,1.03,12.94,1.82,14.93c0.14,0.35,0.63,0.32,0.72-0.04c0.99-3.97,4.36-17.8,4.03-20.21c0,0,11.34-2.25,22.17-10.22
		c2.2-1.62,4.59-3,7.13-4.01c13.59-5.41,16.43,3.82,16.43,3.82s9.42-1.81,12.26,11.27c1.07,4.9,1.79,12.75,2.4,18.24
		c0.04,0.39,0.57,0.47,0.72,0.11c0.95-2.18,2.85-6.5,3.3-10.91c0.16-1.55,4.34-3.6,6.14-10.26C101.01,36.32,98.06,27.78,96.29,25.11
		z"/>
	<g id="hairHighlights">
		
			<radialGradient id="SVGID_13_" cx="74.2411" cy="84.9462" r="35.6328" gradientTransform="matrix(0.3076 0.9515 0.706 -0.2282 -8.5689 -8.204)" gradientUnits="userSpaceOnUse">
			<stop  offset="0.6985" style="stop-color:#554138;stop-opacity:0"/>
			<stop  offset="1" style="stop-color:#554138"/>
		</radialGradient>
		<path style="fill:url(#SVGID_13_);" d="M92.44,55.5c0.16-1.55,4.34-3.6,6.14-10.26c0.19-0.71,0.35-1.43,0.5-2.15
			c1.46-8.09-1.16-15.52-2.79-17.98c-2.26-3.41-7.1-7.89-11.69-8.81c-0.4-0.05-0.79-0.1-1.16-0.12c0,0,0.33,2.15-0.54,3.86
			c-1.12,2.22-3.41,2.75-3.41,2.75C91.46,34.77,90.61,44.79,92.44,55.5z"/>
		
			<radialGradient id="SVGID_14_" cx="39.5022" cy="123.7996" r="9.3426" gradientTransform="matrix(0.8813 0.4726 0.5603 -1.045 -64.6754 114.9033)" gradientUnits="userSpaceOnUse">
			<stop  offset="0.58" style="stop-color:#554138"/>
			<stop  offset="1" style="stop-color:#554138;stop-opacity:0"/>
		</radialGradient>
		<path style="fill:url(#SVGID_14_);" d="M49.17,7.39c-1.09,0.53-2.06,1.06-2.9,1.51c-0.96,0.52-7.17,3.97-11.51,1.5
			c-2.67-1.52-2.67-5.58-2.67-5.72c-1.23,1.57-4.95,12.78,5.93,13.53c4.69,0.32,7.58-3.77,9.3-7.23
			C47.94,9.72,48.91,7.88,49.17,7.39z"/>
		
			<radialGradient id="SVGID_15_" cx="162.5707" cy="55.8961" r="28.7211" gradientTransform="matrix(-0.9378 -0.3944 -0.2182 0.5285 225.0386 55.7454)" gradientUnits="userSpaceOnUse">
			<stop  offset="0.6985" style="stop-color:#554138;stop-opacity:0"/>
			<stop  offset="1" style="stop-color:#554138"/>
		</radialGradient>
		<path style="fill:url(#SVGID_15_);" d="M71.38,5.47c7.32,1.98,10.89,5.71,12.08,10.68c0.35,1.46,0.77,15.08-25.23-0.4
			c-9.67-5.76-7.03-9.36-5.9-9.77C56.75,4.38,63.18,3.25,71.38,5.47z"/>
		
			<radialGradient id="SVGID_16_" cx="35.751" cy="115.2758" r="8.5755" gradientTransform="matrix(1 0 0 -1.2233 0 153.7415)" gradientUnits="userSpaceOnUse">
			<stop  offset="0.7016" style="stop-color:#554138;stop-opacity:0"/>
			<stop  offset="1" style="stop-color:#554138"/>
		</radialGradient>
		<path style="fill:url(#SVGID_16_);" d="M32.06,4.68C32.05,4.68,32.03,4.69,32,4.7c0,0,0,0,0,0c-0.93,0.39-8.25,3.78-5.51,12.25
			l7.78,1.25C27.39,11.23,32.1,4.66,32.1,4.66S32.08,4.67,32.06,4.68z"/>
		
			<radialGradient id="SVGID_17_" cx="34.5712" cy="100.139" r="16.0834" gradientTransform="matrix(-0.9657 -0.2598 -0.2432 0.9037 92.3099 -53.6524)" gradientUnits="userSpaceOnUse">
			<stop  offset="0.6605" style="stop-color:#554138;stop-opacity:0"/>
			<stop  offset="1" style="stop-color:#554138"/>
		</radialGradient>
		<path style="fill:url(#SVGID_17_);" d="M31.3,17.73l-4.81-0.77c-0.19,0-0.83,0.06-1.18,0.11c-2.71,0.38-5.9,1.78-7.63,5.36
			c-1.86,3.86-1.81,7.17-1.3,9.38c0.15,0.74,0.45,1.58,0.45,1.58s2.38-2.26,8.05-2.41L31.3,17.73z"/>
		
			<radialGradient id="SVGID_18_" cx="30.7556" cy="84.6091" r="16.8856" gradientTransform="matrix(0.9907 0.1363 0.1915 -1.3921 -15.9141 156.9828)" gradientUnits="userSpaceOnUse">
			<stop  offset="0.5981" style="stop-color:#554138;stop-opacity:0"/>
			<stop  offset="1" style="stop-color:#554138"/>
		</radialGradient>
		<path style="fill:url(#SVGID_18_);" d="M16.6,33.58c-2.37,2.1-5.56,6.79-3.21,12.61c1.77,4.39,8.09,6.29,8.09,6.29
			c0,0.02,1.26,0.4,1.91,0.4l1.48-21.9c-3.03,0-5.94,0.91-7.82,2.22C17.07,33.23,16.58,33.55,16.6,33.58z"/>
	</g>
</g>
</svg>
