<?xml version="1.0" encoding="utf-8"?>
<!-- Generator: Adobe Illustrator 24.0.3, SVG Export Plug-In . SVG Version: 6.00 Build 0)  -->
<svg version="1.1" id="Layer_1" xmlns="http://www.w3.org/2000/svg" xmlns:xlink="http://www.w3.org/1999/xlink" x="0px" y="0px"
	 viewBox="0 0 128 128" style="enable-background:new 0 0 128 128;" xml:space="preserve">
<path id="steam_x5F_back_x5F_right_2_" style="opacity:0.45;fill:#3BBCF7;enable-background:new    ;" d="M103.04,23.41
	c4.24,11.31,3,25-8,32s-22,12-31,21c-4.28,4.28-19.36,20.49-19.38,47.5h57.91c0.16-0.17,0.3-0.34,0.46-0.5
	c6.9-4.47,14.13-8.6,20.96-13.21V3.91H87.52C92.12,9.03,99.74,14.6,103.04,23.41z"/>
<path id="steam_x5F_back_x5F_left_1_" style="opacity:0.45;fill:#83D3F7;enable-background:new    ;" d="M4,46.58v77.33h13.54
	c-3.61-5.52-6.13-11.42-4.5-18.5c2-10,12.01-13.98,20-18c22.56-11.36,27.25-29.5,28-50c0.46-12.69-4.17-24.66-12.88-33.5H12.17
	C31.29,27.91,5.32,45.83,4,46.58z"/>
<radialGradient id="SVGID_1_" cx="63.8676" cy="7.7958" r="55.1025" gradientTransform="matrix(1 0 0 -0.4628 0 123.8097)" gradientUnits="userSpaceOnUse">
	<stop  offset="0.8771" style="stop-color:#ECEFF1"/>
	<stop  offset="1" style="stop-color:#B0BEC5"/>
</radialGradient>
<path style="fill:url(#SVGID_1_);" d="M64.13,95.91c-0.04,0-0.09,0-0.13,0c-25.49,0.03-52,7.28-52,25.06v2.94h1h1h100h1h1v-2.94
	C116,104.22,89.74,95.91,64.13,95.91z"/>
<linearGradient id="body_3_" gradientUnits="userSpaceOnUse" x1="64.3222" y1="31.5647" x2="64.3222" y2="1.2109" gradientTransform="matrix(1 0 0 -1 0 128)">
	<stop  offset="0.5" style="stop-color:#E0BB95"/>
	<stop  offset="1" style="stop-color:#CCA47A"/>
</linearGradient>
<path id="body_2_" style="fill:url(#body_3_);" d="M64.04,95.75c-29.63,0-21.57,19.55-16.57,28.17h34.32
	C86.42,115.3,93.66,95.75,64.04,95.75z"/>
<g id="robe_x5F_lapels_3_">
	<path style="fill:#ECEFF1;" d="M50.04,103.91c1.92-6.37,13.37-6.54,12.51-6.36c0.53-0.07,2.11-0.07,2.64,0
		c-0.85-0.19,10.59-0.01,12.51,6.36c1.92,6.35-2.16,13.62-5.7,20h13.92c4.07-8.93,7.49-20.18,3.7-25.58
		c-4.48-6.39-11.34-8.67-25.63-8.67c-14.29,0-21.39,2.28-25.88,8.67c-3.79,5.4-0.37,16.66,3.7,25.58h13.92
		C52.2,117.54,48.13,110.26,50.04,103.91z"/>
</g>
<g id="robe_x5F_lapels_1_">
	
		<radialGradient id="SVGID_2_" cx="84.4229" cy="20.398" r="9.3039" gradientTransform="matrix(0.9946 0.1042 0.2204 -2.1033 -4.0405 141.7052)" gradientUnits="userSpaceOnUse">
		<stop  offset="0.6681" style="stop-color:#B0BEC5"/>
		<stop  offset="1" style="stop-color:#ECEFF1;stop-opacity:0"/>
	</radialGradient>
	<path style="fill:url(#SVGID_2_);" d="M89.36,123.84h-3.28c3.92-8.6,7.24-19.36,4.09-24.96c1.24,0.31,2.46,0.65,3.64,1.02
		C95.74,106.62,92.74,116.16,89.36,123.84z"/>
</g>
<g id="robe_x5F_lapels_2_">
	
		<radialGradient id="SVGID_3_" cx="753.091" cy="20.398" r="9.3039" gradientTransform="matrix(-0.9946 0.1042 -0.2204 -2.1033 796.8164 72.0322)" gradientUnits="userSpaceOnUse">
		<stop  offset="0.6681" style="stop-color:#B0BEC5"/>
		<stop  offset="1" style="stop-color:#ECEFF1;stop-opacity:0"/>
	</radialGradient>
	<path style="fill:url(#SVGID_3_);" d="M38.39,123.84h3.28c-3.92-8.6-7.24-19.36-4.09-24.96c-1.24,0.31-2.46,0.65-3.64,1.02
		C32.01,106.62,35.01,116.16,38.39,123.84z"/>
</g>
<linearGradient id="body_4_" gradientUnits="userSpaceOnUse" x1="64.0005" y1="20.5859" x2="64.0005" y2="38.503" gradientTransform="matrix(1 0 0 -1 0 128)">
	<stop  offset="0.5" style="stop-color:#E0BB95"/>
	<stop  offset="1" style="stop-color:#CCA47A"/>
</linearGradient>
<path id="body_1_" style="fill:url(#body_4_);" d="M54.92,89.99v9.98c0,4.51,3.7,8.17,8.26,8.17h1.65c4.56,0,8.26-3.66,8.26-8.17
	v-9.98H54.92z"/>
<path id="tone_1_" style="fill:#BA8F63;" d="M54.94,104.73c-0.27-0.96-0.38-1.93-0.45-2.89l-0.23-2.89
	c-0.14-1.93-0.26-3.85-0.33-5.78c-0.02-0.55,0.41-1.02,0.97-1.04s1.02,0.41,1.03,0.96c0,0.02,0,0.05,0,0.07
	c-0.07,1.93-0.19,3.85-0.33,5.78l-0.23,2.89C55.32,102.8,55.21,103.76,54.94,104.73z"/>
<path id="tone" style="fill:#BA8F63;" d="M73.06,104.73c-0.27-0.96-0.38-1.93-0.45-2.89l-0.23-2.89c-0.14-1.93-0.26-3.85-0.32-5.78
	c-0.02-0.55,0.41-1.02,0.96-1.04s1.02,0.41,1.04,0.96c0,0.02,0,0.05,0,0.07c-0.07,1.93-0.19,3.85-0.32,5.78l-0.23,2.89
	C73.44,102.8,73.34,103.76,73.06,104.73z"/>
<g id="ears">
	<path style="fill:#C48E6A;" d="M91.2,50.43H36.55c-5.89,0-10.71,5.14-10.71,11.41s4.82,11.41,10.71,11.41H91.2
		c5.89,0,10.71-5.14,10.71-11.41S97.1,50.43,91.2,50.43z"/>
</g>
<path id="head" style="fill:#E0BB95;" d="M63.88,11.07L63.88,11.07L63.88,11.07c-17.4,0-33.52,18.61-33.52,45.4
	c0,26.64,16.61,39.81,33.52,39.81S97.4,83.1,97.4,56.46C97.4,29.68,81.28,11.07,63.88,11.07z"/>
<path id="mouth" style="fill:#6D4C41;" d="M72.3,76.14c-3.18,1.89-13.63,1.89-16.81,0c-1.83-1.09-3.7,0.58-2.94,2.24
	c0.75,1.63,6.44,5.42,11.37,5.42s10.55-3.79,11.3-5.42C75.97,76.72,74.13,75.05,72.3,76.14z"/>
<path id="nose" style="fill:#C48E6A;" d="M67.74,68.06c-0.11-0.04-0.21-0.07-0.32-0.08h-7.08c-0.11,0.01-0.22,0.04-0.32,0.08
	c-0.64,0.26-0.99,0.92-0.69,1.63c0.3,0.71,1.71,2.69,4.55,2.69s4.25-1.99,4.55-2.69C68.73,68.98,68.38,68.32,67.74,68.06z"/>
<g id="eyes">
	<path style="fill:#5D4037;" d="M47.51,60.3c-2.06,0-3.9-0.5-5.18-1.29c-0.55-0.34-0.87-0.14-0.77,0.5c0.37,2.48,2.9,4.4,5.95,4.4
		c3.06,0,5.58-1.92,5.95-4.4c0.1-0.64-0.22-0.84-0.77-0.5C51.41,59.8,49.57,60.3,47.51,60.3z"/>
	<path style="fill:#5D4037;" d="M80.12,60.3c-2.06,0-3.9-0.5-5.18-1.29c-0.55-0.34-0.87-0.14-0.77,0.5c0.38,2.48,2.9,4.4,5.95,4.4
		s5.58-1.92,5.95-4.4c0.1-0.64-0.22-0.84-0.77-0.5C84.03,59.8,82.18,60.3,80.12,60.3z"/>
</g>
<g id="eyebrows_1_">
	<path style="fill:#AB872F;" d="M39.9,50.73c3.18-4.51,10.66-4.66,14.41-0.82c0.65,0.67,1.34,1.53,0.85,2.5
		c-0.54,1.07-1.65,0.9-2.56,0.53c-2.43-0.98-4.94-1.42-7.55-0.89c-1.13,0.23-2.1,0.7-3.17,1.08C40.44,53.62,38.97,52.12,39.9,50.73z
		"/>
	<path style="fill:#AB872F;" d="M85.96,53.13c-2.23-0.97-4.49-1.53-6.95-1.25c-1.12,0.13-2.22,0.42-3.26,0.83
		c-0.83,0.33-1.72,0.86-2.58,0.28c-2.45-1.69,1.89-4.44,3.17-4.99c2.76-1.19,6.05-1.08,8.72,0.31c1.06,0.55,2.21,1.35,2.84,2.4
		C88.69,52.02,87.51,53.76,85.96,53.13z"/>
</g>
<g id="hairGroup">
	<path id="hair_7_" style="fill:#AB872F;" d="M63.9,3.91L63.9,3.91c-0.01,0-0.01,0-0.02,0s-0.01,0-0.02,0v0
		C18.42,4.16,27.73,56.06,27.73,56.06s2.04,5.35,2.97,7.71c0.13,0.34,0.63,0.3,0.71-0.05c0.97-4.34,4.46-19.73,6.22-24.41
		c1.04-2.76,3.9-4.36,6.8-3.83c4.45,0.81,11.55,1.81,19.37,1.81c0.03,0,0.06,0,0.08,0s0.06,0,0.08,0c7.82,0,14.92-1,19.37-1.81
		c2.9-0.53,5.76,1.08,6.79,3.83c1.75,4.66,5.22,19.96,6.2,24.36c0.08,0.36,0.58,0.39,0.71,0.05l2.98-7.67
		C100.03,56.05,109.33,4.16,63.9,3.91z"/>
	
		<radialGradient id="hairHighlights_1_" cx="63.8785" cy="81.0166" r="38.0923" gradientTransform="matrix(1 0 0 -1.1282 0 138.3853)" gradientUnits="userSpaceOnUse">
		<stop  offset="0.7945" style="stop-color:#BFA055;stop-opacity:0"/>
		<stop  offset="1" style="stop-color:#BFA055"/>
	</radialGradient>
	<path id="hairHighlights" style="fill:url(#hairHighlights_1_);" d="M100.03,56.05c0,0,9.31-51.9-36.13-52.14v0
		c-0.01,0-0.01,0-0.02,0h0c-0.01,0-0.01,0-0.02,0l0,0c-0.71,0-1.4,0.02-2.08,0.05c-1.35,0.06-2.66,0.16-3.92,0.31
		c-0.01,0-0.03,0-0.04,0c-0.09,0.01-0.17,0.03-0.26,0.04C19.32,9.13,27.73,56.05,27.73,56.05l2.98,7.68
		c0.13,0.34,0.62,0.31,0.7-0.05c0.98-4.39,4.46-19.71,6.22-24.37c1.04-2.76,3.9-4.36,6.8-3.83c4.45,0.81,11.55,1.81,19.37,1.81
		c0.03,0,0.06,0,0.08,0s0.06,0,0.08,0c7.82,0,14.92-1,19.37-1.81c2.9-0.53,5.76,1.08,6.79,3.83c1.76,4.68,5.25,20.1,6.21,24.42
		c0.08,0.36,0.57,0.39,0.7,0.05C97.97,61.43,100.03,56.05,100.03,56.05z"/>
</g>
<path id="steam_x5F_front_x5F_left_1_" style="opacity:0.45;fill:#FFFFFF;enable-background:new    ;" d="M48.04,60.66
	c-6-5-16.19-7.77-20.88-5.77c-2.11,0.9-3.1,2.56-1.06,5.95c3.94,6.56,9.81,13.44,3.44,20.94C21.04,92.04,9.42,90.16,4,104.31v19.6
	h26.63c1.25-27.5,24.29-23.94,25.5-42.79C56.82,70.43,53.04,64.66,48.04,60.66z"/>
<path id="steam_x5F_front_x5F_right_1_" style="opacity:0.35;fill:#FFFFFF;enable-background:new    ;" d="M124,42.8
	c-16.29-24.22-42.01-20.4-39.29-16.68c2.16,2.96,8.5,7.79,12.37,15.88c2.58,5.39,4.54,11.94,2.07,17.38
	c-7.45,16.36-21.45,19.36-28.78,25.86c-4.96,4.39-14.41,14.66-11,38.67h21.58c0,0,2.23-13.06,25.49-21.37
	C119.88,97.75,124,87.32,124,87.32V42.8z"/>
</svg>
