<?xml version="1.0" encoding="utf-8"?>
<!-- Generator: Adobe Illustrator 24.0.3, SVG Export Plug-In . SVG Version: 6.00 Build 0)  -->
<svg version="1.1" id="Layer_1" xmlns="http://www.w3.org/2000/svg" xmlns:xlink="http://www.w3.org/1999/xlink" x="0px" y="0px"
	 viewBox="0 0 128 128" style="enable-background:new 0 0 128 128;" xml:space="preserve">
<g id="hairGroup_7_">
	<path id="hair_7_" style="fill:#543930;" d="M88.95,79.85c-1.25-2.27-0.2-5.22,3.06-7.44c10.73-7.31,1.25-19.75-0.48-24.6
		c0.03-0.06-0.86-1.86-0.83-1.92L88.9,45.8c-0.57-0.08-15.14-1.28-34.84-1.29c-19.71,0-34.7,1.2-35.28,1.29c0,0-2.65,1.95-2.63,2.01
		c-1.01,4.06-9.76,13.97-0.05,24.6c2.66,2.91,4.3,5.17,3.06,7.44c-1.21,2.21-4.81,2.53-4.81,2.53s0.83,2.26,2.83,3.48
		c1.85,1.13,4.13,1.39,5.7,1.43c0,0,6.15,8.51,22.23,8.51l8.95,0l8.95,0c16.08,0,22.23-8.51,22.23-8.51c1.57-0.04,3.85-0.3,5.7-1.43
		c2-1.22,2.83-3.48,2.83-3.48S90.16,82.06,88.95,79.85z"/>
	<g id="hairHighlights_4_">
		
			<radialGradient id="SVGID_1_" cx="109.5832" cy="45.8498" r="23.419" gradientTransform="matrix(1 0 0 0.4912 -40.9456 59.6285)" gradientUnits="userSpaceOnUse">
			<stop  offset="0.7275" style="stop-color:#6D4C41;stop-opacity:0"/>
			<stop  offset="1" style="stop-color:#6D4C41"/>
		</radialGradient>
		<path style="fill:url(#SVGID_1_);" d="M54.04,95.79v-9.44l28.57-2.26l2.6,3.2c0,0-6.15,8.51-22.23,8.51L54.04,95.79z"/>
		
			<radialGradient id="SVGID_2_" cx="86.518" cy="49.3316" r="6.9209" gradientTransform="matrix(-0.9057 0.4238 -0.3144 -0.6719 185.5758 75.1447)" gradientUnits="userSpaceOnUse">
			<stop  offset="0.6628" style="stop-color:#6D4C41"/>
			<stop  offset="1" style="stop-color:#6D4C41;stop-opacity:0"/>
		</radialGradient>
		<path style="fill:url(#SVGID_2_);" d="M85.15,83.16c-4.28-6.5,5.21-8.93,5.21-8.93s0.01,0.01,0.01,0.01
			c-1.65,2.05-2.4,3.84-1.43,5.61c1.21,2.21,4.81,2.53,4.81,2.53S88.85,86.74,85.15,83.16z"/>
		
			<radialGradient id="SVGID_3_" cx="104.3485" cy="68.3775" r="29.4905" gradientTransform="matrix(-0.0746 -0.9972 0.8311 -0.0622 24.8315 167.9336)" gradientUnits="userSpaceOnUse">
			<stop  offset="0.7247" style="stop-color:#6D4C41;stop-opacity:0"/>
			<stop  offset="1" style="stop-color:#6D4C41"/>
		</radialGradient>
		<path style="fill:url(#SVGID_3_);" d="M91.55,47.81c0.01,4.06,10.83,11.77,0.72,24.35c-0.53,0.66-3.01,3.01-3.57,4.92
			c0,0-9.54-13.31-12.39-21.13c-0.57-1.58-1.1-3.2-1.17-4.88c-0.05-1.26,0.14-2.76,0.87-3.83c0.89-1.31,15.04-0.54,15.04-0.54
			C91.04,46.72,91.55,47.81,91.55,47.81z"/>
		
			<radialGradient id="SVGID_4_" cx="34.2592" cy="68.5146" r="29.721" gradientTransform="matrix(0.0746 -0.9972 -0.8311 -0.0622 88.6443 97.9111)" gradientUnits="userSpaceOnUse">
			<stop  offset="0.7247" style="stop-color:#6D4C41;stop-opacity:0"/>
			<stop  offset="1" style="stop-color:#6D4C41"/>
		</radialGradient>
		<path style="fill:url(#SVGID_4_);" d="M16.15,47.81c-1.01,4.06-9.65,13.85-0.28,24.35c0.56,0.63,3.01,3.01,3.57,4.92
			c0,0,9.54-13.31,12.39-21.13c0.58-1.58,1.1-3.2,1.17-4.88c0.05-1.26-0.14-2.76-0.87-3.83c-0.89-1.31-1.93-0.96-3.44-0.96
			c-2.88,0-10.79,0.42-11.77,0.42C16.92,46.72,16.15,47.81,16.15,47.81z"/>
		
			<radialGradient id="SVGID_5_" cx="39.494" cy="45.8498" r="23.419" gradientTransform="matrix(-1 0 0 0.4912 78.9879 59.6285)" gradientUnits="userSpaceOnUse">
			<stop  offset="0.7275" style="stop-color:#6D4C41;stop-opacity:0"/>
			<stop  offset="1" style="stop-color:#6D4C41"/>
		</radialGradient>
		<path style="fill:url(#SVGID_5_);" d="M54.09,95.79v-9.44l-28.57-2.26l-2.6,3.2c0,0,6.15,8.51,22.23,8.51L54.09,95.79z"/>
		
			<radialGradient id="SVGID_6_" cx="16.4287" cy="49.3316" r="6.9209" gradientTransform="matrix(0.9057 0.4238 0.3144 -0.6719 -13.9609 104.8498)" gradientUnits="userSpaceOnUse">
			<stop  offset="0.6628" style="stop-color:#6D4C41"/>
			<stop  offset="1" style="stop-color:#6D4C41;stop-opacity:0"/>
		</radialGradient>
		<path style="fill:url(#SVGID_6_);" d="M22.98,83.16c4.28-6.5-5.21-8.93-5.21-8.93s-0.01,0.01-0.01,0.01
			c1.65,2.05,2.4,3.84,1.43,5.61c-1.21,2.21-4.81,2.53-4.81,2.53S19.28,86.74,22.98,83.16z"/>
	</g>
</g>
<radialGradient id="SVGID_7_" cx="54.771" cy="2.1544" r="67.3502" gradientTransform="matrix(1 0 0 -0.5864 0 127.1043)" gradientUnits="userSpaceOnUse">
	<stop  offset="0.5595" style="stop-color:#F8F8F7"/>
	<stop  offset="1" style="stop-color:#C6C6C6"/>
</radialGradient>
<path style="fill:url(#SVGID_7_);" d="M103.03,120.57c0-12.02-14.29-19.93-32.22-22.7v-3.24c-0.6,0-8.81,1.69-8.81,1.69H46.44
	l-8.94-1.86l0.01,3.79c-17.63,2.7-31.99,9.89-31.99,22.32V124h97.5V120.57z"/>
<g id="neck_6_">
	<path style="fill:#99674F;" d="M54.25,89.08h-9.08v7.02c0,0,7.99,0.92,7.99,11.14h2.7c0.3-11.24,7.48-11.24,7.48-11.24v-6.91
		L54.25,89.08L54.25,89.08z"/>
</g>
<g id="collar_3_">
	<path style="fill:#F8F8F7;" d="M53.94,108.06c-0.04-0.36-0.31-3.22-0.36-3.69c-0.54-4.86-3.3-7.83-6.61-8.58l-9.75-2.48
		c-0.63,0-1.15,0.66-1.15,1.47l1.5,11.89l13.57,3.57L53.94,108.06z"/>
	<circle style="fill:#9E9E9E;" cx="44.56" cy="119.5" r="2.27"/>
	<circle style="fill:#9E9E9E;" cx="71.01" cy="119.5" r="2.27"/>
	<path style="fill:#F8F8F7;" d="M54.4,108.02c0.04-0.36,0.31-3.22,0.36-3.69c0.54-4.86,3.3-7.83,6.61-8.58l9.75-2.48
		c0.63,0,1.14,0.66,1.14,1.47l-1.5,11.89l-13.57,3.57L54.4,108.02z"/>
	
		<radialGradient id="SVGID_8_" cx="49.0613" cy="8.9091" r="19.9493" gradientTransform="matrix(0.9631 -0.2692 -0.2034 -0.7275 3.6282 138.7867)" gradientUnits="userSpaceOnUse">
		<stop  offset="0.1531" style="stop-color:#BDBDBD"/>
		<stop  offset="1" style="stop-color:#BDBDBD;stop-opacity:0"/>
	</radialGradient>
	<path style="fill:url(#SVGID_8_);" d="M56.11,104.36c-2.19-0.08-6.2-0.82-10.48-0.02c-10.97,2.07-17.55,10.46-16.09,17.72
		c0.14,0.68,0.37,1.32,0.65,1.94h5.67l1.21-9.93c1.4-1.52,19.16-5.74,19.16-5.74L56.11,104.36z"/>
	
		<linearGradient id="SVGID_9_" gradientUnits="userSpaceOnUse" x1="48.6175" y1="4.0399" x2="48.6175" y2="26.0973" gradientTransform="matrix(1 0 0 -1 0 128)">
		<stop  offset="0.2987" style="stop-color:#BDBDBD"/>
		<stop  offset="0.6566" style="stop-color:#CDCDCD"/>
		<stop  offset="1" style="stop-color:#E0E0E0"/>
	</linearGradient>
	<path style="fill:url(#SVGID_9_);" d="M54.76,104.33c-0.05,0.43-0.19,1.99-0.24,2.48l0.09,0.94l-16.03,4.59
		c-1.63,0.6-2.72,2.15-2.72,3.89V124h1.03c0,0,1.19-7.26,1.37-8.23s0.95-1.14,1.4-1.31l17.47-5.23c0-12.62,4.25-13.48,4.25-13.48
		C58.06,96.5,55.3,99.47,54.76,104.33z"/>
</g>
<g id="ears_6_">
	<path style="fill:#99674F;" d="M81.27,50.48H73.9H33.99h-7.37c-5.89,0-10.71,5.13-10.71,11.41S20.73,73.3,26.62,73.3h7.37H73.9
		h7.37c5.89,0,10.71-5.14,10.71-11.41S87.16,50.48,81.27,50.48z"/>
</g>
<g id="head_6_">
	<path style="fill:#BA8D68;" d="M53.94,11.11L53.94,11.11L53.94,11.11c-17.4,0-33.52,18.61-33.52,45.4
		c0,26.64,16.61,39.81,33.52,39.81s33.52-13.17,33.52-39.81C87.46,29.72,71.35,11.11,53.94,11.11z"/>
</g>
<g id="hairGroup_6_">
	<path id="hair_6_" style="fill:#543930;" d="M16.19,47.88c0.41,3.99,3.13,4.6,3.13,4.6c-0.46,8.01,1.03,12.94,1.82,14.94
		c0.14,0.35,0.63,0.32,0.72-0.04c0.99-3.97,4.36-17.8,4.03-20.21c0,0,11.34-2.25,22.17-10.22c2.2-1.62,4.59-3,7.13-4.01
		c13.59-5.41,16.43,3.82,16.43,3.82s9.42-1.81,12.26,11.27c1.07,4.9,1.79,12.75,2.4,18.24c0.04,0.39,0.57,0.47,0.72,0.11
		c0.95-2.18,2.85-6.5,3.3-10.91c0.16-1.55,2.29-3.6,1.12-8.09c-1.33-5.13-6.7-29.56-37.61-29.56S15.55,41.61,16.19,47.88z"/>
</g>
<g id="eyes_3_">
	<ellipse style="fill:#49362E;" cx="38.37" cy="58.86" rx="4.93" ry="5.1"/>
	<ellipse style="fill:#49362E;" cx="69.52" cy="58.86" rx="4.93" ry="5.1"/>
</g>
<path id="mouth_3_" style="fill:#5D4037;" d="M62.47,76.19c-3.19,1.89-13.63,1.89-16.81,0c-1.83-1.09-3.7,0.58-2.94,2.24
	c0.75,1.63,6.44,5.42,11.37,5.42s10.55-3.79,11.3-5.42C66.15,76.76,64.3,75.1,62.47,76.19z"/>
<g id="eyebrows_3_">
	<path style="fill:#613E31;" d="M45.69,49.82c-0.93-1.23-3.07-3.01-7.23-3.01s-6.31,1.79-7.23,3.01c-0.41,0.54-0.31,1.17-0.02,1.55
		c0.26,0.35,1.04,0.68,1.9,0.39s2.54-1.16,5.35-1.18c2.81,0.02,4.49,0.89,5.35,1.18c0.86,0.29,1.64-0.03,1.9-0.39
		C45.99,50.99,46.1,50.36,45.69,49.82z"/>
	<path style="fill:#613E31;" d="M76.66,49.82c-0.93-1.23-3.07-3.01-7.23-3.01s-6.31,1.79-7.23,3.01c-0.41,0.54-0.31,1.17-0.02,1.55
		c0.26,0.35,1.04,0.68,1.9,0.39s2.54-1.16,5.35-1.18c2.81,0.02,4.49,0.89,5.35,1.18c0.86,0.29,1.64-0.03,1.9-0.39
		C76.97,50.99,77.07,50.36,76.66,49.82z"/>
</g>
<path id="nose_3_" style="fill:#99674F;" d="M57.8,68.1c-0.11-0.04-0.21-0.07-0.32-0.08h-7.08c-0.11,0.01-0.22,0.04-0.32,0.08
	c-0.64,0.26-0.99,0.92-0.69,1.63c0.3,0.71,1.71,2.69,4.55,2.69s4.25-1.99,4.55-2.69C58.8,69.03,58.44,68.36,57.8,68.1z"/>
<g id="pan_3_">
	<g>
		
			<linearGradient id="SVGID_10_" gradientUnits="userSpaceOnUse" x1="106.8509" y1="74.4712" x2="102.5564" y2="28.8225" gradientTransform="matrix(1 0 0 -1 0 128)">
			<stop  offset="0.1194" style="stop-color:#757575"/>
			<stop  offset="0.2256" style="stop-color:#7A7A7A"/>
			<stop  offset="0.3593" style="stop-color:#8A8A8A"/>
			<stop  offset="0.4788" style="stop-color:#9E9E9E"/>
			<stop  offset="0.488" style="stop-color:#969696"/>
			<stop  offset="0.5244" style="stop-color:#7B7B7B"/>
			<stop  offset="0.5662" style="stop-color:#656565"/>
			<stop  offset="0.6151" style="stop-color:#545454"/>
			<stop  offset="0.6756" style="stop-color:#494949"/>
			<stop  offset="0.7604" style="stop-color:#424242"/>
			<stop  offset="0.9959" style="stop-color:#404040"/>
		</linearGradient>
		<path style="fill:url(#SVGID_10_);" d="M106.59,53.62c-10.25-0.82-19.23,6.82-20.05,17.07c-0.75,9.28,5.46,17.5,14.25,19.58
			l-1.25,9.78c0.01,0,7.07,0.8,7.16,0.82l0.81-10.23c8.54-1.11,15.44-8.05,16.15-16.97C124.48,63.42,116.84,54.44,106.59,53.62z"/>
	</g>
	
		<linearGradient id="SVGID_11_" gradientUnits="userSpaceOnUse" x1="102.9177" y1="41.9365" x2="108.4163" y2="71.6282" gradientTransform="matrix(1 0 0 -1 0 128)">
		<stop  offset="0" style="stop-color:#212121"/>
		<stop  offset="0.9959" style="stop-color:#404040"/>
	</linearGradient>
	<circle style="fill:url(#SVGID_11_);" cx="105.28" cy="73.3" r="15.3"/>
	<path style="fill:#FFFFFF;" d="M116.12,71.99c2.1,7.47-3.29,15.26-10.41,10.57s-13.41-3.51-11.15-10.2
		c2.26-6.69,4.04-12.57,9.29-11.38C109.11,62.16,114.02,64.52,116.12,71.99z"/>
	
		<linearGradient id="SVGID_12_" gradientUnits="userSpaceOnUse" x1="122.1316" y1="76.9798" x2="122.1316" y2="67.4214" gradientTransform="matrix(0.9982 -0.0594 -0.0594 -0.9982 -12.5668 150.8044)">
		<stop  offset="0" style="stop-color:#FFCA28"/>
		<stop  offset="0.3408" style="stop-color:#FFC825"/>
		<stop  offset="0.6293" style="stop-color:#FFC21A"/>
		<stop  offset="0.898" style="stop-color:#FFB809"/>
		<stop  offset="1" style="stop-color:#FFB300"/>
	</linearGradient>
	<circle style="fill:url(#SVGID_12_);" cx="105.08" cy="71.81" r="5.16"/>
	<g>
		<path style="fill:#F7CB4D;" d="M116.12,71.99c0.99,2.92,0.9,6.35-0.76,9.15c-0.81,1.39-2.13,2.57-3.75,3.06
			c-1.62,0.5-3.37,0.2-4.85-0.47c-1.47-0.79-2.65-1.63-4.03-2.32c-1.35-0.71-2.77-1.28-4.18-1.91c-1.39-0.64-2.93-1.23-3.99-2.54
			c-0.47-0.69-0.65-1.53-0.59-2.32c0.04-0.39,0.12-0.78,0.2-1.16l0.39-1.1l-0.24,1.13c-0.04,0.38-0.09,0.76-0.09,1.14
			c0.02,0.75,0.26,1.47,0.71,2.02c0.98,1.07,2.47,1.59,3.9,2.13c1.45,0.53,2.9,1.1,4.32,1.78c1.4,0.67,2.77,1.61,4.03,2.26
			c1.32,0.61,2.79,0.86,4.16,0.47c1.37-0.36,2.54-1.35,3.37-2.56c0.83-1.22,1.33-2.68,1.54-4.18
			C116.49,75.06,116.41,73.51,116.12,71.99z"/>
	</g>
	<path style="fill:#757575;" d="M99.2,101.62c0-0.37,1.59-11.35,1.59-11.35l0.21-0.11c1.94-0.97,4.24-0.89,6.1,0.23l0.4,0.24
		l-0.81,11.86L99.2,101.62z"/>
</g>
<g id="hat_3_">
	
		<radialGradient id="SVGID_13_" cx="54.316" cy="106.5109" r="54.7102" gradientTransform="matrix(1 0 0 -0.422 0 66.4373)" gradientUnits="userSpaceOnUse">
		<stop  offset="0.462" style="stop-color:#FAFAFA"/>
		<stop  offset="0.6345" style="stop-color:#EAEAEA"/>
		<stop  offset="0.9693" style="stop-color:#C1C1C1"/>
		<stop  offset="1" style="stop-color:#BDBDBD"/>
	</radialGradient>
	<path style="fill:url(#SVGID_13_);" d="M94.79,14.5C85.14,8.1,70.31,4.01,53.94,4.01S22.51,8.1,12.86,14.5
		c-6.07,4.02-8.66,9.79-7.2,15.18C6.76,33.69,15.9,40.22,15.9,40.22c11.16,5.24,12.22-3.69,37.92-3.72
		c25.7,0.03,26.76,8.96,37.92,3.72c0,0,9.15-6.53,10.24-10.55C103.44,24.29,100.86,18.52,94.79,14.5z"/>
	
		<radialGradient id="SVGID_14_" cx="53.9095" cy="94.3781" r="40.6535" gradientTransform="matrix(1 6.500000e-03 6.400000e-03 -0.9763 -0.6037 125.4108)" gradientUnits="userSpaceOnUse">
		<stop  offset="0.3031" style="stop-color:#F8F8F7"/>
		<stop  offset="0.5045" style="stop-color:#E8E8E7"/>
		<stop  offset="0.8953" style="stop-color:#BFBFBF"/>
		<stop  offset="1" style="stop-color:#B3B3B3"/>
	</radialGradient>
	<path style="fill:url(#SVGID_14_);" d="M16.19,47.88l-1.05-8.22c0,0,6.93-11.29,39.26-11.29S92.6,39.59,92.6,39.59l-1.16,7.78
		C66.75,41.91,40.81,42.42,16.19,47.88z"/>
	
		<linearGradient id="SVGID_15_" gradientUnits="userSpaceOnUse" x1="29.2791" y1="118.8603" x2="36.7791" y2="97.3603" gradientTransform="matrix(1 0 0 -1 0 128)">
		<stop  offset="0" style="stop-color:#757575;stop-opacity:0"/>
		<stop  offset="1" style="stop-color:#757575;stop-opacity:0.9"/>
	</linearGradient>
	<path style="fill:url(#SVGID_15_);" d="M31.6,10.53c0,0,2.55,9.74,8.7,18.82C28.95,28.99,26.66,16.75,31.6,10.53z"/>
	
		<linearGradient id="SVGID_16_" gradientUnits="userSpaceOnUse" x1="10.905" y1="110.2416" x2="25.405" y2="95.1166" gradientTransform="matrix(1 0 0 -1 0 128)">
		<stop  offset="0" style="stop-color:#757575;stop-opacity:0"/>
		<stop  offset="1" style="stop-color:#757575;stop-opacity:0.9"/>
	</linearGradient>
	<path style="fill:url(#SVGID_16_);" d="M17,15.59c0.54,5.17,0.1,10.5,9.44,16.93C13.77,36.34,8.52,24.42,17,15.59z"/>
	
		<linearGradient id="SVGID_17_" gradientUnits="userSpaceOnUse" x1="273.1397" y1="118.8603" x2="280.6397" y2="97.3603" gradientTransform="matrix(-1 0 0 -1 351.9712 128)">
		<stop  offset="0" style="stop-color:#757575;stop-opacity:0"/>
		<stop  offset="1" style="stop-color:#757575;stop-opacity:0.9"/>
	</linearGradient>
	<path style="fill:url(#SVGID_17_);" d="M76.51,10.53c0,0-2.55,9.74-8.7,18.82C79.16,28.99,81.45,16.75,76.51,10.53z"/>
	
		<linearGradient id="SVGID_18_" gradientUnits="userSpaceOnUse" x1="254.7655" y1="110.2413" x2="269.2654" y2="95.1163" gradientTransform="matrix(-1 0 0 -1 351.9712 128)">
		<stop  offset="0" style="stop-color:#757575;stop-opacity:0"/>
		<stop  offset="1" style="stop-color:#757575;stop-opacity:0.9"/>
	</linearGradient>
	<path style="fill:url(#SVGID_18_);" d="M91.12,15.59c-0.54,5.17-0.1,10.5-9.44,16.93C94.35,36.34,99.6,24.42,91.12,15.59z"/>
	<g>
		
			<linearGradient id="SVGID_19_" gradientUnits="userSpaceOnUse" x1="54.056" y1="120.573" x2="54.056" y2="99.801" gradientTransform="matrix(1 0 0 -1 0 128)">
			<stop  offset="0" style="stop-color:#757575;stop-opacity:0"/>
			<stop  offset="1" style="stop-color:#757575;stop-opacity:0.9"/>
		</linearGradient>
		<path style="fill:url(#SVGID_19_);" d="M54.06,7.43c1.45,1.73,2.2,3.46,2.74,5.19c0.53,1.73,0.75,3.46,0.76,5.19
			c0,1.73-0.22,3.46-0.75,5.19c-0.54,1.73-1.29,3.46-2.75,5.19c-1.46-1.73-2.21-3.46-2.75-5.19c-0.53-1.73-0.75-3.46-0.75-5.19
			c0.01-1.73,0.23-3.46,0.76-5.19C51.85,10.89,52.6,9.16,54.06,7.43z"/>
	</g>
</g>
<g id="hand_3_">
	
		<radialGradient id="palm_1_" cx="34.0637" cy="139.6591" r="20.2396" gradientTransform="matrix(-0.0247 -0.9997 -1.0569 0.0261 235.1399 145.2806)" gradientUnits="userSpaceOnUse">
		<stop  offset="0.3074" style="stop-color:#BA8D68"/>
		<stop  offset="1" style="stop-color:#A47B62"/>
	</radialGradient>
	<path id="palm_7_" style="fill:url(#palm_1_);" d="M96.95,102.41c-1.11,0.17-2.19,0.44-3.2,0.89c-1.46,0.64-8.4-1.47-8.9,5.23
		c-0.06,1.85-0.29,7.69,1.25,10.57c3.22,6.01,15.56,4.66,16.49,4.82c5.87,0.97,3.43-17.95,0.14-20.39
		c-0.41-0.27-1.08-0.62-1.67-0.95C99.91,101.95,98.1,102.24,96.95,102.41z"/>
	
		<radialGradient id="finger_1_" cx="113.5908" cy="15.2699" r="14.83" gradientTransform="matrix(0.9395 -0.3426 -0.3426 -0.9395 9.1238 163.3696)" gradientUnits="userSpaceOnUse">
		<stop  offset="0" style="stop-color:#A47B62"/>
		<stop  offset="1" style="stop-color:#BA8D68"/>
	</radialGradient>
	<path id="finger_19_" style="fill:url(#finger_1_);" d="M105.02,119.92l-6.64-0.21c-0.85-0.05-1.56,0.52-1.71,1.31l0,0
		c-0.18,0.86,0.45,1.68,1.36,1.86l6.56,1.04c1.05,0.19,2.06-0.49,2.18-1.51l0.06-0.52C106.93,120.85,106.11,119.95,105.02,119.92z"
		/>
	
		<radialGradient id="palm_2_" cx="99.4857" cy="18.4436" r="13.5436" gradientTransform="matrix(1 -4.700000e-03 -4.700000e-03 -1 0.0244 128.5079)" gradientUnits="userSpaceOnUse">
		<stop  offset="0" style="stop-color:#A47B62"/>
		<stop  offset="1" style="stop-color:#BA8D68"/>
	</radialGradient>
	<path id="palm_6_" style="fill:url(#palm_2_);" d="M96.56,105.25c-0.17,0-10.05,8.14-10.05,8.14s0.22,3.98,4.04,7.23
		c1.08,0.91,4.19,2.21,5.65,2.26C106.18,123.25,104.95,105.21,96.56,105.25z"/>
	
		<radialGradient id="finger_2_" cx="108.116" cy="26.6675" r="14.8167" gradientTransform="matrix(1.013 0.178 0.177 -0.9844 -7.5176 109.4192)" gradientUnits="userSpaceOnUse">
		<stop  offset="0" style="stop-color:#A47B62"/>
		<stop  offset="1" style="stop-color:#BA8D68"/>
	</radialGradient>
	<path id="finger_18_" style="fill:url(#finger_2_);" d="M84.81,112.94c0,0,1.37,1.08,3.41,1.91c6.2,2.53,7.04-5.08,7.19-6.26
		c0.81-6.05,6.16-4.65,10.7-4.9c0.94-0.05,4.17-0.51,5.07-2.63c0.95-3.53-2.68-3.52-10.33-4.06c-2.08-0.15-4.16-0.13-6.23,0.14
		C84.74,98.41,84.51,108.39,84.81,112.94z"/>
	
		<radialGradient id="finger_3_" cx="114.6393" cy="15.9985" r="16.8566" gradientTransform="matrix(0.9984 -0.0557 -0.0557 -0.9984 0.8011 133.5883)" gradientUnits="userSpaceOnUse">
		<stop  offset="0" style="stop-color:#A47B62"/>
		<stop  offset="1" style="stop-color:#BA8D68"/>
	</radialGradient>
	<path id="finger_17_" style="fill:url(#finger_3_);" d="M107.19,109.17l-9.5,0.71c-1.28,0.08-1.31,1.05-1.39,2.26l0,0
		c-0.11,1.31,0.04,2.44,1.43,2.54l9.54,0.55c1.61,0.1,2.99-1.11,2.99-2.66l0-0.79C110.22,110.21,108.83,109.01,107.19,109.17z"/>
	
		<radialGradient id="finger_4_" cx="115.1803" cy="16.4513" r="16.1085" gradientTransform="matrix(0.9963 0.0864 0.0864 -0.9963 -2.3646 118.1407)" gradientUnits="userSpaceOnUse">
		<stop  offset="0" style="stop-color:#A47B62"/>
		<stop  offset="1" style="stop-color:#BA8D68"/>
	</radialGradient>
	<path id="finger_16_" style="fill:url(#finger_4_);" d="M107.12,103.57l-8.16,1.06c-1.22,0.14-2.09,1.12-2.11,2.28l0,0
		c-0.04,1.26,1.06,2.28,2.39,2.31l8.25,0.15c1.54,0.02,2.81-1.21,2.73-2.69l-0.04-0.75C110.07,104.42,108.68,103.33,107.12,103.57z"
		/>
	
		<radialGradient id="finger_5_" cx="113.706" cy="16.2601" r="16.1142" gradientTransform="matrix(0.9768 -0.2142 -0.2142 -0.9768 5.0871 150.4715)" gradientUnits="userSpaceOnUse">
		<stop  offset="0" style="stop-color:#A47B62"/>
		<stop  offset="1" style="stop-color:#BA8D68"/>
	</radialGradient>
	<path id="finger_15_" style="fill:url(#finger_5_);" d="M106.27,114.92l-7.53,0.34c-1.12,0.03-2,0.85-2.11,1.9l0,0
		c-0.14,1.14,0.78,2.17,1.99,2.3l7.51,0.76c1.4,0.14,2.66-0.88,2.7-2.23l0.02-0.69C108.88,115.93,107.71,114.83,106.27,114.92z"/>
	<path id="tone_3_" style="fill:#91674D;" d="M107.55,115.24c0.12-1.07-8.51-0.06-9.56-0.95c-1.2-1.02-1.05-2.99,0.44-3.64
		c1.68-0.74,9.83-0.95,9.82-1.41c0-0.85-10.99,1.2-10.68-2.27c0.21-2.35,2.48-2.33,4.16-2.61c1-0.17,5.39-0.46,5.39-0.77
		c0-0.31-1.08-0.22-1.2-0.23c-0.8-0.08-5.95,0.16-7.3,0.57c-1.77,0.54-3.21,2.11-2.71,4.11c0.08,0.34,0.23,0.64,0.41,0.93
		c0.35,0.54-0.44,2.01-0.54,2.77c-0.25,1.96,0.82,3.01,0.8,3.72c-0.01,0.54-0.54,0.92-0.69,1.75c-0.16,0.92,0.61,1.96,0.42,3.05
		c-0.07,0.37-0.1,0.67-0.03,1.05c0.11,0.57,0.4,1.07,0.81,1.48c0.95,0.96,2.26,1.08,3.54,1.15c0.86,0.05,4.39,0.26,5.19-0.19
		c-1.89-0.04-7.62-0.18-8.39-2.34c-0.05-1.47,1.52-1.03,2.5-0.93c1.11,0.11,3.19,0.16,4.31,0.06c0.31-0.03,1.61-0.17,1.61-0.4
		c0-0.35-3.08-0.24-3.46-0.26c-1.38-0.06-4.29,0.14-4.91-1.51c-0.23-0.6-0.13-1.35,0.28-1.86
		C98.74,115.26,107.48,115.79,107.55,115.24z"/>
</g>
</svg>
