<?xml version="1.0" encoding="utf-8"?>
<!-- Generator: Adobe Illustrator 24.1.2, SVG Export Plug-In . SVG Version: 6.00 Build 0)  -->
<svg version="1.1" id="Layer_1_copy" xmlns="http://www.w3.org/2000/svg" xmlns:xlink="http://www.w3.org/1999/xlink" x="0px"
	 y="0px" viewBox="0 0 128 128" style="enable-background:new 0 0 128 128;" xml:space="preserve">
<radialGradient id="SVGID_1_" cx="31.8455" cy="116.7174" r="62.3384" gradientTransform="matrix(1.028679e-13 -1 1.0982 1.129720e-13 -96.3364 148.5629)" gradientUnits="userSpaceOnUse">
	<stop  offset="0.1444" style="stop-color:#29B6F6"/>
	<stop  offset="0.9451" style="stop-color:#0277BD"/>
</radialGradient>
<path style="fill:url(#SVGID_1_);" d="M111.17,87.23c-1.61,1.17-13.65,3.19-6.15-1.04c4.93-2.78,7.47-12.01-3.68-14.8
	C89.93,68.56,77.74,88.46,76,92.63c-4.13,9.89-9.85,18.2-21.58,24.17c-10.49,5.35-20.28,5.85-32.53-0.08
	c-9.98-4.83-13.16-13.96-11.79-25.88c0.17-1.51,0.36-2.83,0.56-3.99c0.14-0.82,0.28-1.56,0.42-2.24c1.39-6.75,2.75-7.67,0.64-16.95
	l18.23-2.03l3.12-0.35l25.61-2.86c0,6.72-0.77,11.82-10.54,21.28c-3.88,3.76-10.54,6.96-11.9,11.89c-0.45,1.65-0.75,3.41,0.72,5.6
	c1.68,2.52,13.54,8.51,24.79-7.46c1.15-1.63,7.52-11.3,9.25-13.91c4.26-6.43,8.9-12.1,16-15.64C112,51.7,123.92,77.96,111.17,87.23z
	"/>
<linearGradient id="SVGID_2_" gradientUnits="userSpaceOnUse" x1="47.8866" y1="46.0871" x2="22.5485" y2="18.3835" gradientTransform="matrix(1 0 0 -1 0 128)">
	<stop  offset="0" style="stop-color:#005584;stop-opacity:0"/>
	<stop  offset="0.8412" style="stop-color:#005584"/>
</linearGradient>
<path style="fill:url(#SVGID_2_);" d="M37.79,79.63c-3.48,3.22-7.56,5.71-11.37,8.54s-7.45,6.11-9.57,10.35s-2.46,9.63,0.15,13.59
	c1.16,1.76,4.5,5.43,13.12,7.74c0,0-13.46-6.56-5.76-17.6c2.44-3.5,12.48-9.35,15.72-12.12s2.52-1.64,5.48-4.71
	c3.37-3.49,7.68-8.67,9.43-13.19c1.23-3.18,2.97-8.37-2.41-8.37S40.87,76.79,37.79,79.63z"/>
<linearGradient id="SVGID_3_" gradientUnits="userSpaceOnUse" x1="88.4855" y1="39.3734" x2="116.42" y2="39.3734" gradientTransform="matrix(1 0 0 -1 0 128)">
	<stop  offset="0" style="stop-color:#FFD54F"/>
	<stop  offset="0.0951" style="stop-color:#FEC846"/>
	<stop  offset="0.2707" style="stop-color:#FAA630"/>
	<stop  offset="0.3849" style="stop-color:#F78C1F"/>
	<stop  offset="0.6891" style="stop-color:#F37F21"/>
	<stop  offset="1" style="stop-color:#ED6D23"/>
</linearGradient>
<path style="fill:url(#SVGID_3_);" d="M91.05,103.88c-0.61-0.2-1.31-0.42-1.49-0.78c-2.36-4.79-0.74-10.09,3.95-12.9
	c1.65-0.98,4.67-1.87,6.88-2.51c0.53-0.15,1.02-0.3,1.45-0.43c6.59-2.02,10.95-5.1,12.95-9.16c0.94-1.91,1.14-3.36,1.13-4.78
	c0.25,1.08,0.5,2.27,0.5,4.46c0,6.35-3.71,9.17-7.73,11.26c-2.2,1.15-4.47,1.58-6.87,2.03c-2.35,0.45-4.79,0.91-7.11,2.11
	c-2.33,1.21-3.8,2.77-4.35,4.66c-0.52,1.76-0.24,3.8,0.82,6.09C91.13,103.91,91.09,103.9,91.05,103.88z"/>
<linearGradient id="SVGID_4_" gradientUnits="userSpaceOnUse" x1="78.6181" y1="57.1888" x2="63.8231" y2="19.8083" gradientTransform="matrix(1 0 0 -1 0 128)">
	<stop  offset="0.3666" style="stop-color:#F78C1F"/>
	<stop  offset="0.6798" style="stop-color:#F37F21"/>
	<stop  offset="1" style="stop-color:#ED6D23"/>
</linearGradient>
<path style="fill:url(#SVGID_4_);" d="M49.23,119.06c3.15-3.02,10.55-10.57,13.37-18.86c6.64-19.59,9.45-22.73,13.71-27.5l0.07-0.08
	c4.77-5.57,10.3-9.01,16.02-10.62c-5.02,3.77-8.31,10.41-11.19,18.28c-2.86,7.84-6.11,16.74-12.89,26.01
	C64.04,112.14,56.66,116.93,49.23,119.06z"/>
<path style="fill:#FFD54F;" d="M49.24,118.98C64,109,71,92,76.82,76.67c1.04-2.59,2.27-5.09,3.66-7.49c1.39-2.4,2.94-4.71,4.59-6.94
	c0.86-1.15,1.84-2.23,2.91-3.22c1.09-0.97,2.28-1.85,3.56-2.58c2.58-1.44,5.53-2.26,8.49-2.29c2.97-0.02,5.9,0.75,8.49,2.12
	c2.57,1.39,4.91,3.38,6.36,6.04c0.74,1.32,1.18,2.83,1.37,4.25c0.21,1.44,0.23,2.9,0.09,4.33c-0.32,2.86-1.28,5.63-2.9,7.99
	c-0.81,1.17-1.82,2.22-2.87,3.11c-1.05,0.91-2.15,1.73-3.29,2.5c-2.28,1.52-4.68,2.92-7.29,3.71c1.26-0.52,2.43-1.21,3.55-1.96
	c1.13-0.74,2.22-1.55,3.26-2.4c2.05-1.72,4.16-3.49,5.4-5.75c1.29-2.24,1.98-4.81,2.08-7.36c0.11-2.53-0.31-5.18-1.54-7.2
	c-1.26-2.08-3.24-3.75-5.47-4.87s-4.74-1.68-7.21-1.63C97.59,57.07,95.16,57.77,93,59c-1.07,0.63-2.07,1.38-3.01,2.22
	c-0.91,0.87-1.77,1.8-2.55,2.81c-1.6,2.12-3.1,4.32-4.47,6.6c-0.01,0.02-0.03,0.05-0.04,0.07c-1.94,3.24-3.49,6.71-4.75,10.27
	c-5.26,14.93-12.97,27.91-27.06,37.11C50.54,118.46,49.93,118.83,49.24,118.98z"/>
<path style="fill:#039BE5;" d="M63.98,68.72l-6.28-0.11l-18.93-0.33l-1.24-0.03h-0.18l-2.04-0.04l-1.04-0.01l-1.22-0.02l-1.36-0.03
	H31.2l-1.3-0.03l-1.21-0.02l-14.5-0.26l-4.09-0.07c1.22-6.53,4.09-9.41,7.27-11c2.73-1.37,5.69-1.79,8.01-2.75
	c0.32-0.12,0.62-0.26,0.91-0.42c0.42-0.22,0.81-0.47,1.17-0.76c0.12-0.1,0.24-0.21,0.36-0.33c0.01,0,0.01,0,0.01,0
	c0-0.01,0.01-0.02,0.01-0.02c1.04-1.02,1.7-2.49,1.77-4.77l11.74-0.62c-0.14,2.65,0.73,4.3,2.2,5.44c0.07,0.06,0.14,0.11,0.21,0.16
	c0.17,0.12,0.35,0.24,0.53,0.35c0.45,0.26,0.93,0.5,1.45,0.72c0.31,0.12,0.62,0.24,0.95,0.35c0.27,0.1,0.55,0.19,0.84,0.27
	c0.04,0.02,0.08,0.03,0.12,0.04c0.15,0.05,0.3,0.09,0.45,0.14c0.08,0.02,0.16,0.04,0.25,0.06c1.62,0.46,3.37,0.85,5.1,1.38
	c0.25,0.08,0.52,0.17,0.81,0.27c0.62,0.2,1.24,0.44,1.85,0.7c0.21,0.1,0.4,0.18,0.57,0.26c0.06,0.02,0.12,0.05,0.18,0.08
	C60.5,59.1,63.48,62.19,63.98,68.72z"/>
<path style="opacity:0.35;fill:#212121;enable-background:new    ;" d="M46.87,87.3c-0.51,0.74-1.12,0.97-1.66,1
	c-0.63,0.03-1.16-0.23-1.28-0.3c-0.01,0-0.01-0.01-0.02-0.01c0,0-11.78-7.36-9.64-19.79c0.78-4.57,3.45-9.83,9.28-15.66
	c0.07,0.06,0.14,0.11,0.21,0.16c0.17,0.12,0.35,0.24,0.53,0.35c0.45,0.26,0.93,0.5,1.45,0.72c-0.28,0.34-0.96,1.14-1.78,2.2
	c-3.15,3.99-5.66,8.04-6.43,12.28c-0.31,1.69-0.34,3.41-0.02,5.18c1.03,5.62,4.83,9.49,7.06,11.91
	C45.51,86.27,46.87,87.28,46.87,87.3z"/>
<radialGradient id="SVGID_5_" cx="47.5065" cy="71.13" r="14.7183" gradientUnits="userSpaceOnUse">
	<stop  offset="0.3666" style="stop-color:#F78C1F"/>
	<stop  offset="0.6798" style="stop-color:#F37F21"/>
	<stop  offset="1" style="stop-color:#ED6D23"/>
</radialGradient>
<path style="fill:url(#SVGID_5_);" d="M57.7,68.61c-0.12,1.38-0.34,2.69-0.7,3.81c-0.12,0.39-0.26,0.75-0.42,1.09
	c-0.67,1.43-1.63,2.87-2.6,4.26c-0.17,0.24-0.33,0.48-0.5,0.72l-0.32,0.46c-1.27,1.81-3.74,5.49-5.44,8.03l-1.25,1.86l-0.25,0.37
	c-0.25-0.21-0.59-0.52-1.01-0.91c-2.38-2.3-7.02-7.64-7.88-15.08c0-0.01,0-0.01,0-0.02c-0.16-1.37-0.18-2.74-0.06-4.13
	c0.02-0.27,0.05-0.54,0.08-0.82c0.57-5.01,2.89-10.11,6.94-15.2c0.45,0.26,0.93,0.5,1.45,0.72c0.31,0.12,0.62,0.24,0.95,0.35
	c0.27,0.1,0.55,0.19,0.84,0.27c0.04,0.02,0.08,0.03,0.12,0.04c0.14,0.05,0.29,0.1,0.45,0.14c0.08,0.02,0.16,0.04,0.25,0.06
	c1.62,0.46,3.37,0.85,5.1,1.38c0.25,0.08,0.52,0.17,0.81,0.27c0.75,0.25,1.36,0.5,1.85,0.7c0.21,0.1,0.4,0.18,0.57,0.26
	c0.06,0.02,0.12,0.05,0.17,0.07l0.01,0.01C57.3,58.18,58.13,63.78,57.7,68.61z"/>
<path style="fill:#FCB316;" d="M47.72,86.98l-1.25,1.86l-0.25,0.37l-0.3,0.44c-0.42-0.31-1.13-0.87-1.99-1.65
	c-0.01,0-0.01-0.01-0.02-0.01c-3.6-3.26-9.8-10.36-8.6-19.78c0.6-4.67,3.01-9.89,8.45-15.51c0.17,0.12,0.35,0.24,0.53,0.35
	c0.45,0.26,0.93,0.5,1.45,0.72c0.31,0.12,0.62,0.24,0.95,0.35c-0.34,0.41-0.87,1.06-1.49,1.85c-3.15,4-5.67,8.06-6.43,12.31
	c-0.31,1.68-0.34,3.39-0.02,5.15c1.03,5.62,4.83,9.49,7.06,11.91C46.44,85.96,47.25,86.61,47.72,86.98z"/>
<path style="opacity:0.35;fill:#212121;enable-background:new    ;" d="M33.05,68.18c-0.12,1.18-0.39,2.47-0.87,3.88
	c-1.88,5.47-5.07,14.59-21.52,14.79c0.01-0.09,0.03-0.17,0.04-0.25c0.03-0.17,0.06-0.34,0.09-0.5c0.1-0.53,0.19-1.02,0.29-1.49
	c0.42-0.48,1.03-0.87,1.89-0.94c10.99-1.15,14.41-6.8,16.12-11.8c0.45-1.31,0.7-2.56,0.81-3.75c0.09-0.87,0.1-1.71,0.05-2.49
	c-0.08-1.53-0.37-2.86-0.69-3.93c-0.06-0.21-0.14-0.51-0.24-0.87c-0.58-2.15-1.37-4.39-1.68-5.05c-0.35-0.74-0.78-1.62-1.05-2.18
	c0.42-0.22,0.81-0.47,1.17-0.76c0.12-0.1,0.24-0.21,0.36-0.33c0.01,0,0.01,0,0.01,0c0.01,0.01,0.03,0.02,0.04,0.04
	c2.44,2.08,3.83,6.86,4.26,8.29c0.37,1.24,0.79,2.7,0.94,4.44C33.15,66.17,33.16,67.13,33.05,68.18z"/>
<radialGradient id="SVGID_6_" cx="19.2048" cy="69.53" r="14.5663" gradientUnits="userSpaceOnUse">
	<stop  offset="0.3666" style="stop-color:#F78C1F"/>
	<stop  offset="0.6798" style="stop-color:#F37F21"/>
	<stop  offset="1" style="stop-color:#ED6D23"/>
</radialGradient>
<path style="fill:url(#SVGID_6_);" d="M31.2,68.15c-0.02,0.28-0.06,0.57-0.1,0.86c-0.16,1.13-0.42,2.3-0.84,3.51
	c-0.3,0.89-0.67,1.82-1.12,2.76c-2.33,4.86-7.01,10-18.35,10.82c-1.04,0.08-2.13,0.12-3.29,0.12c-0.12-0.01-0.25-0.01-0.37-0.01
	c0.51-0.65,1.13-1.58,1.78-2.7h0.01c1.04-1.79,2.19-4.07,3.1-6.42c0.72-1.86,1.3-3.78,1.57-5.53l0.02-0.14l0.03-0.16
	c0.18-1.16,0.35-2.3,0.55-3.42c0.51-2.99,1.16-5.89,2.35-8.79c0.03-0.08,0.09-0.26,0.18-0.51c0.12-0.35,0.4-1.19,0.65-1.77
	c2.73-1.37,5.69-1.79,8.01-2.75c0.32-0.12,0.62-0.26,0.91-0.42c0.42-0.22,0.81-0.47,1.17-0.76c1.42,2.13,2.34,5.54,2.78,7.18
	c0.09,0.33,0.16,0.6,0.22,0.8C31.01,62.66,31.47,65.21,31.2,68.15z"/>
<path style="fill:#FCB316;" d="M31.69,68.15c-0.12,1.41-0.42,2.93-0.96,4.52C28.97,77.83,25.01,85.6,10.7,86.6
	c-1.01,0.07-2.08,0.11-3.2,0.11c-0.29,0-0.57,0-0.86-0.01c0.19-0.21,1.62-2.03,2.27-3.19h0.01c0.55,0,1.44,0.11,2.85-0.01
	c10.99-1.15,14.41-6.8,16.12-11.8c0.43-1.25,0.68-2.46,0.8-3.6c0.28-2.63-0.13-4.92-0.63-6.57c-0.06-0.21-0.14-0.51-0.24-0.87
	c-0.58-2.15-1.37-4.39-1.68-5.05c-0.24-0.51-0.52-1.09-0.76-1.59c0.32-0.12,0.62-0.26,0.91-0.42c0.42-0.22,0.81-0.47,1.17-0.76
	c0.12-0.1,0.24-0.21,0.36-0.33c0.01,0,0.01,0,0.01,0c0-0.01,0.01-0.02,0.01-0.02c0.01,0.02,0.02,0.04,0.03,0.06
	c1.74,2.59,2.7,6.91,3.06,8.11C31.46,62.44,31.99,65.05,31.69,68.15z"/>
<path style="opacity:0.35;fill:#212121;enable-background:new    ;" d="M57,72.42c-0.12,0.39-0.26,0.75-0.42,1.09
	c-0.67,1.43-1.63,2.87-2.6,4.26c-5.95-0.09-12.27-1.93-16-4.27l-0.65-0.28l-0.99-0.43c-1.64,0.55-4.2,1.55-7.2,2.49
	c-5.2,1.63-11.74,3.09-17.12,1.81c0.72-1.86,1.3-3.78,1.57-5.53l0.02-0.14c2.37-1.75,12.59-2.45,13.01-2.45
	c0.13,0,1.93,0.02,4.48,0.04c1.79,0.02,3.95,0.04,6.17,0.06c6.14,0.06,12.67,0.13,12.67,0.13L57,72.42z"/>
<path style="fill:#4FC3F7;" d="M63.07,63.87c0.38,0.45,2.66,2.58,2.64,4.76c-0.02,1.79-0.76,4.07-3.25,5.28
	c-6.59,3.22-18.85,0.65-24.47-2.9c-6.99-4.4-11.74-6.99-11.74-6.99c-6.14,1.3-11.25-1.74-11.25-1.74s-6.67,1.28-7.78,1.25
	c-1.75-0.04-2.18-2.4-0.73-2.9c2.86-0.99,9.7-5.02,12.36-4.87c1.45,0.08,16.13,2.9,20.35,4.1c1.36,0.39,9.53,1.85,9.53,1.85"/>
<path style="fill:#4FC3F7;" d="M39.49,59.94c0,0,12.81-4.24,15.7-3.6c7.22,1.6,10.66,7.25,10.77,8.28c-0.4,1.21-2.99,1.99-5.55,1.36
	c-3.42-0.84-7.29-3.35-11.7-4.27C48.71,61.71,39.69,60.12,39.49,59.94z"/>
<g>
	<path style="fill:#0277BD;" d="M65.96,64.62c-0.11,0.61-0.65,1.09-1.19,1.4c-0.55,0.32-1.16,0.51-1.78,0.64
		c-1.25,0.22-2.56,0.18-3.83-0.28c-1.29-0.43-2.3-1.33-3.2-2.05c-0.89-0.76-1.68-1.29-2.53-1.32L53.09,63l-0.46,0
		c-0.31,0-0.63,0.01-0.93,0c-0.62-0.02-1.23-0.05-1.84-0.12c-1.21-0.16-2.4-0.33-3.57-0.61c-2.34-0.55-4.66-1.21-6.8-2.34
		c2.37,0.32,4.72,0.55,7.05,0.8c1.17,0.09,2.32,0.22,3.48,0.26c0.57,0.02,1.15,0.06,1.71,0.05c0.29,0.01,0.56-0.01,0.84-0.02
		L53,61.01l0.56,0c0.75,0.06,1.5,0.32,2.1,0.69c0.61,0.37,1.11,0.79,1.55,1.2c0.87,0.84,1.64,1.56,2.57,2.04
		c0.91,0.46,2.03,0.72,3.13,0.74c0.56,0.02,1.12-0.04,1.66-0.17C65.08,65.36,65.65,65.14,65.96,64.62z"/>
</g>
<path style="fill:#4FC3F7;" d="M36.73,70.23c-1.46,1.08-15.26,6.36-24.71,4.24c-2.19-0.49-5.15-1.1-5.84-3.69
	c-0.84-3.18,2.91-7.44,2.91-7.44l5.9-1.04l3.51,1.32c1.06,0.4,2.18,0.58,3.31,0.55l4.43-0.14C26.24,64.02,37.25,70.23,36.73,70.23z"
	/>
<path style="fill:#039BE5;" d="M20.8,40.67c-1.06-0.23-2.92-0.81-4.21-2.16c-2.36-2.49-3.08-7.49-3.26-9.31
	c1.31,0.12,4.28,0.58,5.81,2.39L20.8,40.67z"/>
<path style="fill:#FCB316;" d="M18.04,38.42c-0.14,1.64-0.96,3.01-2.2,3.03c-1.24,0.03-2.27-1.3-2.3-2.95
	c-0.02-1.25,0.53-2.33,1.34-2.79l0.47,0.97c-0.41,0.28-0.76,0.95-0.74,1.81c0.02,1.14,0.65,1.92,1.21,1.91
	c0.56-0.01,1.16-0.81,1.15-1.95c-0.01-0.94-0.14-1.23-0.38-1.75c-0.39-0.88,0.26-1.56,0.88-0.7C17.47,36,18.17,36.84,18.04,38.42z"
	/>
<path style="fill:#039BE5;" d="M51.28,31.59c1.53-1.82,4.5-2.27,5.81-2.39c-0.18,1.82-0.9,6.82-3.26,9.31
	c-1.29,1.36-3.15,1.94-4.21,2.16L51.28,31.59z"/>
<path style="fill:#4FC3F7;" d="M33.68,52.13l1.22,0.08h1.62c9.01-0.6,15.04-8.94,15.23-22.14c0.19-13.13-7.9-19.75-16.23-19.87
	s-16.62,6.25-16.81,19.38C18.51,42.8,25.13,51.44,33.68,52.13z"/>
<g>
	<path style="fill:#01579B;" d="M30.76,29.8c-0.31,0.28-0.79,0.09-1.23-0.08c-0.98-0.37-1.44-0.66-2.53-0.87
		c-0.91-0.17-2.05-0.22-2.94,0.05c-0.81,0.24-0.72-0.05-0.17-0.52c1.15-0.98,2.14-1.15,3.63-1.09C29.71,27.39,31.8,28.86,30.76,29.8
		z"/>
	<path style="fill:#01579B;" d="M39.7,29.8c0.31,0.28,0.79,0.09,1.23-0.08c0.98-0.37,1.44-0.66,2.53-0.87
		c0.91-0.17,2.05-0.22,2.94,0.05c0.81,0.24,0.72-0.05,0.17-0.52c-1.15-0.98-2.14-1.15-3.63-1.09C40.76,27.39,38.67,28.86,39.7,29.8z
		"/>
</g>
<path style="fill:#0277BD;" d="M37.11,38.19c-0.05-0.02-0.1-0.03-0.15-0.04l-3.42-0.05c-0.05,0.01-0.1,0.02-0.16,0.04
	c-0.31,0.12-0.49,0.44-0.35,0.78s0.81,1.31,2.18,1.33s2.07-0.93,2.22-1.27S37.41,38.32,37.11,38.19z"/>
<path style="fill:#4E342E;" d="M39.31,42.13c-1.55,0.89-6.6,0.82-8.12-0.12c-0.88-0.54-1.79,0.25-1.44,1.06
	c0.35,0.79,3.08,2.67,5.46,2.7s5.13-1.76,5.5-2.54C41.08,42.43,40.2,41.62,39.31,42.13z"/>
<path style="fill:#FCB316;" d="M52.95,36c0.62-0.86,1.27-0.18,0.88,0.7c-0.24,0.52-0.37,0.81-0.38,1.75
	c-0.01,1.14,0.59,1.94,1.15,1.95s1.19-0.77,1.21-1.91c0.02-0.86-0.33-1.53-0.74-1.81l0.47-0.97c0.81,0.46,1.36,1.54,1.34,2.79
	c-0.03,1.65-1.06,2.98-2.3,2.95c-1.24-0.02-2.06-1.39-2.2-3.03C52.25,36.84,52.95,36,52.95,36z"/>
<g>
	<circle style="fill:#212121;" cx="27.29" cy="33.6" r="2.38"/>
	<circle style="fill:#212121;" cx="43.17" cy="33.6" r="2.38"/>
</g>
<linearGradient id="SVGID_7_" gradientUnits="userSpaceOnUse" x1="106.0931" y1="16.9589" x2="102.1031" y2="5.2189" gradientTransform="matrix(1 0 0 -1 0 128)">
	<stop  offset="0" style="stop-color:#EA6100"/>
	<stop  offset="1" style="stop-color:#ED6D23"/>
</linearGradient>
<path style="fill:url(#SVGID_7_);" d="M116.24,113.57c-5.58-0.89-5.1-2.6-5.63-4.19l-5.33-1.56c-1.22,1.05-2.38,3.23-6.97,0.99
	c-1.41-0.69-6.17-4.72-6.17-4.72l-3.59-0.91c0.46,0.42,4.37,5.45,7.7,9.66c4.16,5.27,6.65,6.25,8.48,6.78
	c2.74,0.8,5.92,0.4,5.92,0.4s5.34,0.58,9-0.76c3.8-1.39,5.53-4.9,5.53-4.9S118.76,113.81,116.24,113.57z M119.05,117.63
	c-1.38,0.5-3.06,0.7-4.54,0.76c1.28-0.93,2.13-2.06,2.66-2.98c1.02,0.09,2.51,0.23,4.71,0.42
	C121.16,116.52,120.22,117.21,119.05,117.63z"/>
<radialGradient id="SVGID_8_" cx="109.97" cy="15.13" r="8.6992" gradientTransform="matrix(0.9726 -0.2326 -0.2175 -0.9094 5.95 153.6492)" gradientUnits="userSpaceOnUse">
	<stop  offset="0.2716" style="stop-color:#FEBC12"/>
	<stop  offset="0.4999" style="stop-color:#FEA709"/>
	<stop  offset="0.809" style="stop-color:#FF9000"/>
</radialGradient>
<path style="fill:url(#SVGID_8_);" d="M121.88,115.84c-0.72,0.69-1.66,1.37-2.83,1.8c-1.38,0.5-3.06,0.7-4.54,0.76
	c1.08-0.79,2.13-2.16,2.66-2.98c-3,0.16-6.87-0.14-10.79-1.29c-7.36-2.16-13.58-8.93-14.64-10.14l-3.19-0.81
	c0.46,0.42,4.37,5.45,7.7,9.66c2.81,3.55,4.85,5.15,6.45,5.98c-3.41-0.11-5.44,1.97-5.44,1.97l13.17,3.86c0,0-0.59-2.87-3.56-4.62
	c2.03,0.22,3.78,0,3.78,0s5.34,0.58,9-0.76c3.8-1.39,5.53-4.9,5.53-4.9L121.88,115.84L121.88,115.84z"/>
<radialGradient id="SVGID_9_" cx="106.87" cy="27.3" r="3.7747" gradientTransform="matrix(0.9596 0.2812 0.2812 -0.9596 -0.1786 97.9058)" gradientUnits="userSpaceOnUse">
	<stop  offset="0" style="stop-color:#FEBC12"/>
	<stop  offset="1" style="stop-color:#FF8F00"/>
</radialGradient>
<path style="fill:url(#SVGID_9_);" d="M108.34,104.94l-3.27,3.12l5.65,1.66l-1.5-4.48l1.16-0.95c0.33-0.27,0.5-0.68,0.46-1.1
	l-0.21-2.42c-0.04-0.48-0.64-0.68-0.96-0.31l-1.61,1.85c-0.31,0.35-0.4,0.85-0.23,1.29C107.83,103.6,108.34,104.94,108.34,104.94z"
	/>
<radialGradient id="SVGID_10_" cx="106.8233" cy="6.94" r="4.3859" gradientTransform="matrix(0.9596 0.2812 0.2812 -0.9596 -0.1786 97.9058)" gradientUnits="userSpaceOnUse">
	<stop  offset="0" style="stop-color:#FEF59F"/>
	<stop  offset="0.9044" style="stop-color:#FAC537"/>
	<stop  offset="1" style="stop-color:#F9BF2C"/>
</radialGradient>
<polygon style="fill:url(#SVGID_10_);" points="110.04,123.59 98.19,120.11 99.67,119.33 109.18,122.12 "/>
<path style="fill:#0F3B7C;" d="M46.04,22.63c-3.84,0-7.52-1.38-10.94-4.11c-3.87-3.09-6.95-3.74-8.84-3.74
	c-1.03,0-1.86,0.18-2.49,0.4c0.38-3.46,2.4-6.75,5.31-8.54c2.31-1.43,4.89-2.15,7.68-2.15c2.19,0,4.02,0.47,4.92,0.87
	c3.22,1.44,5.28,2,7.34,2c1.34,0,2.72-0.25,4.37-0.79c-0.36,1.47-1.36,2.8-2.7,3.5l-1.08,0.57L50.79,11
	c0.61,0.18,1.27,0.27,1.95,0.27c4.05,0,8.14-3.21,9.79-4.68c0.18,3.19-0.29,13.06-12.46,15.57C49.28,22.33,47.81,22.63,46.04,22.63z
	"/>
<radialGradient id="SVGID_11_" cx="48.6143" cy="7.8484" r="25.9054" gradientTransform="matrix(0.9023 -0.4311 -0.3198 -0.6695 -1.6052 35.2139)" gradientUnits="userSpaceOnUse">
	<stop  offset="0.6107" style="stop-color:#00838F;stop-opacity:0"/>
	<stop  offset="1" style="stop-color:#00838F"/>
</radialGradient>
<path style="fill:url(#SVGID_11_);" d="M62.53,6.59c-0.07,1.06,1.16,12.6-12.42,15.54c-8.95,1.94-13.99-2.8-14.17-2.97
	c0,0,5.39,0.1,5.81-1.08c0.54-1.52-0.23-2.83-0.23-2.83C52.79,15.43,58.55,9.85,62.53,6.59z"/>
<radialGradient id="SVGID_12_" cx="18.1627" cy="-14.4217" r="20.4547" gradientTransform="matrix(-0.9674 0.2534 0.188 0.7177 61.917 22.9396)" gradientUnits="userSpaceOnUse">
	<stop  offset="0.6107" style="stop-color:#00838F;stop-opacity:0"/>
	<stop  offset="1" style="stop-color:#00838F"/>
</radialGradient>
<path style="fill:url(#SVGID_12_);" d="M23.77,15.18c0.21-0.8,0.68-8.61,10.38-10.47c0.64-0.12,1.43-0.17,2.15-0.23
	c2.21-0.16,4.38,0.48,5.78,1.05c1.57,0.64,2.57,1.07,4.21,1.49c2.48,0.64-0.49,3.37-3.29,3.68c-1.29,0.14-2.53,0.23-3.21,0.16
	c-0.56-0.06-6.38,6.05-9.55,4.74C27.26,14.38,24.43,14.82,23.77,15.18z"/>
<radialGradient id="SVGID_13_" cx="-21.355" cy="-68.1857" r="13.6886" gradientTransform="matrix(0.9811 0.1935 0.1435 -0.7279 72.3077 -42.1382)" gradientUnits="userSpaceOnUse">
	<stop  offset="0.6107" style="stop-color:#00838F;stop-opacity:0"/>
	<stop  offset="1" style="stop-color:#00838F"/>
</radialGradient>
<path style="fill:url(#SVGID_13_);" d="M53.39,6.57c-0.37,1.54-1.23,2.95-3.78,4.07c-1.51,0.66-4.28,0.94-5.35,0.61
	c-5.96-1.82-2-5.45,0.96-4.52C48.21,7.67,50.22,7.56,53.39,6.57z"/>
<g>
	<path style="fill:#0277BD;" d="M62.45,73.91c-2.87,1.63-6.32,2.06-9.61,2c-3.32-0.07-6.62-0.63-9.81-1.62
		c-1.59-0.51-3.17-1.11-4.67-1.93c-0.77-0.42-1.45-0.85-2.14-1.28l-2.08-1.26c-2.75-1.71-5.56-3.37-8.34-5l0.62,0.09
		c-1.01,0.17-2.03,0.3-3.05,0.28c-1.02-0.01-2.03-0.12-3.02-0.31c-0.99-0.19-1.97-0.45-2.9-0.82c-0.94-0.36-1.83-0.77-2.72-1.32
		l0.36,0.06c-1.31,0.18-2.61,0.34-3.93,0.49l-1.97,0.19c-0.66,0.04-1.32,0.1-1.98,0.06c0.65-0.07,1.29-0.24,1.93-0.38l1.92-0.45
		l3.83-0.92l0.16-0.04l0.21,0.1c0.8,0.4,1.71,0.73,2.6,0.98c0.9,0.25,1.81,0.45,2.73,0.56c0.92,0.12,1.84,0.16,2.76,0.11
		c0.92-0.01,1.82-0.17,2.71-0.35l0.32-0.06l0.3,0.15c2.92,1.52,5.72,3.19,8.52,4.87l2.08,1.3c0.69,0.44,1.38,0.88,2.04,1.25
		c1.36,0.74,2.81,1.38,4.3,1.92c1.5,0.52,3.03,0.96,4.59,1.33c1.56,0.34,3.14,0.63,4.73,0.8C56.09,75.02,59.36,75.02,62.45,73.91z"
		/>
</g>
</svg>
