<?xml version="1.0" encoding="utf-8"?>
<!-- Generator: Adobe Illustrator 24.0.3, SVG Export Plug-In . SVG Version: 6.00 Build 0)  -->
<svg version="1.1" id="Layer_1" xmlns="http://www.w3.org/2000/svg" xmlns:xlink="http://www.w3.org/1999/xlink" x="0px" y="0px"
	 viewBox="0 0 128 128" style="enable-background:new 0 0 128 128;" xml:space="preserve">
<g id="collar">
	<g>
		
			<linearGradient id="SVGID_1_" gradientUnits="userSpaceOnUse" x1="64" y1="125.0974" x2="64" y2="65.5615" gradientTransform="matrix(1 0 0 1 0 2)">
			<stop  offset="3.200000e-03" style="stop-color:#4E4E4E"/>
			<stop  offset="0.1517" style="stop-color:#484848"/>
			<stop  offset="0.427" style="stop-color:#373838"/>
			<stop  offset="0.7959" style="stop-color:#1C1D1D"/>
			<stop  offset="1" style="stop-color:#010101"/>
		</linearGradient>
		<path style="fill:url(#SVGID_1_);" d="M4,74.82c0,0,23.95-9.01,60-8.84c17.58,0.08,37.33,3.02,60,8.84c0,0-23.39,45.35-60,45.35
			S7.92,83.79,4,74.82z"/>
	</g>
	<g>
		<g>
			
				<linearGradient id="SVGID_2_" gradientUnits="userSpaceOnUse" x1="63" y1="64.442" x2="63" y2="18.2552" gradientTransform="matrix(1 0 0 -1 0 130)">
				<stop  offset="3.200000e-03" style="stop-color:#E51E25"/>
				<stop  offset="0.2992" style="stop-color:#DF1E25"/>
				<stop  offset="0.5651" style="stop-color:#D01E25"/>
				<stop  offset="0.8186" style="stop-color:#BA1E23"/>
				<stop  offset="1" style="stop-color:#A51E22"/>
			</linearGradient>
			<polygon style="fill:url(#SVGID_2_);" points="63,65.97 63,65.98 63,65.98 			"/>
			
				<linearGradient id="SVGID_3_" gradientUnits="userSpaceOnUse" x1="64" y1="64.442" x2="64" y2="18.2552" gradientTransform="matrix(1 0 0 -1 0 130)">
				<stop  offset="3.200000e-03" style="stop-color:#F70000"/>
				<stop  offset="0.2347" style="stop-color:#F30000"/>
				<stop  offset="0.4427" style="stop-color:#E90000"/>
				<stop  offset="0.6417" style="stop-color:#D60000"/>
				<stop  offset="0.834" style="stop-color:#BD0000"/>
				<stop  offset="1" style="stop-color:#A00000"/>
			</linearGradient>
			<path style="fill:url(#SVGID_3_);" d="M63,65.98V66V65.98c-0.01,0-0.03,0-0.04,0C27.41,65.98,4,74.82,4,74.82
				c3.92,7.81,23.23,37.01,59.83,37.01S124,74.82,124,74.82C101.57,68.19,80.77,65.98,63,65.98z"/>
		</g>
	</g>
</g>
<radialGradient id="robe_1_" cx="65.1119" cy="6.2497" r="60.4477" gradientTransform="matrix(1 0 0 -0.5085 0 126.9283)" gradientUnits="userSpaceOnUse">
	<stop  offset="0.5681" style="stop-color:#212121"/>
	<stop  offset="1" style="stop-color:#616161"/>
</radialGradient>
<path id="robe" style="fill:url(#robe_1_);" d="M64.14,96H64c-25.65,0.03-52,7.1-52,24.99v2.97h1.5H15h98h1.5h1.5v-2.97
	C116,104.13,89.9,96,64.14,96z"/>
<path id="neck" style="fill:#99674F;" d="M73.08,90.08H54.92v9.98c0,4.51,3.7,8.17,8.26,8.17h1.65c4.56,0,8.26-3.66,8.26-8.17v-9.98
	H73.08z"/>
<linearGradient id="shirt_2_" gradientUnits="userSpaceOnUse" x1="63.8495" y1="23.9419" x2="63.8495" y2="6.8122" gradientTransform="matrix(1 0 0 -1 0 130)">
	<stop  offset="0.7824" style="stop-color:#FFFFFF"/>
	<stop  offset="1" style="stop-color:#E1E1E1"/>
</linearGradient>
<polygon id="shirt_1_" style="fill:url(#shirt_2_);" points="78.93,124.24 73,106 55,106 48.77,124.24 "/>
<path id="ears" style="fill:#99674F;" d="M91.33,50.43H36.67c-5.89,0-10.71,5.14-10.71,11.41c0,6.28,4.82,11.41,10.71,11.41h54.65
	c5.89,0,10.71-5.14,10.71-11.41C102.04,55.57,97.22,50.43,91.33,50.43z"/>
<path id="head" style="fill:#BA8D68;" d="M64,11.07c-17.4,0-33.52,18.61-33.52,45.39c0,26.64,16.61,39.81,33.52,39.81
	S97.52,83.1,97.52,56.46C97.52,29.68,81.4,11.07,64,11.07z"/>
<g id="eyes">
	<ellipse style="fill:#49362E;" cx="47.56" cy="58.81" rx="4.93" ry="5.1"/>
	<ellipse style="fill:#49362E;" cx="80.44" cy="58.81" rx="4.93" ry="5.1"/>
</g>
<path id="nose" style="fill:#99674F;" d="M67.86,68.06c-0.11-0.04-0.21-0.07-0.32-0.08h-7.07c-0.11,0.01-0.22,0.04-0.32,0.08
	c-0.64,0.26-0.99,0.92-0.69,1.63s1.71,2.69,4.55,2.69c2.84,0,4.25-1.99,4.55-2.69C68.85,68.98,68.5,68.32,67.86,68.06z"/>
<path id="mouth" style="fill:#5D4037;" d="M72.42,76.14c-3.19,1.89-13.63,1.89-16.81,0c-1.83-1.09-3.7,0.58-2.94,2.24
	c0.75,1.63,6.45,5.42,11.37,5.42s10.55-3.79,11.3-5.42C76.09,76.72,74.25,75.05,72.42,76.14z"/>
<g id="hair">
	<path id="hair_1_" style="fill:#543930;" d="M64.02,4.03H64c0,0-0.01,0-0.02,0c-33.49,0.18-37.24,28.96-36.9,44.08
		c0,0.18,0.01,0.35,0.01,0.52c0,0.09,0,0.18,0.01,0.27c0.1,3.33,0.4,5.91,0.59,7.25c0.01,0.04,0.01,0.08,0.02,0.12c0,0,0,0,0,0
		c0.08,0.56,0.13,0.87,0.13,0.87s0,0,0,0.01c0,0.01,0,0.02,0,0.02s2.23,3.93,3.74,6.54c0.76,1.31,1.34,2.3,1.37,2.3
		c-0.01-0.37-0.02-0.84-0.03-1.36c-0.01-1.25-0.01-2.79,0.04-4.53c0.01-0.15,0.02-0.31,0.03-0.45c0-0.01-0.01-0.03-0.02-0.04
		c0.37-10.23,2.54-26.55,13.07-29.18c8.02-2.01,16.51,6.46,17.77,7.78c1.26-1.32,9.75-9.79,17.77-7.78
		c13.25,3.31,13.27,28.29,13.11,35.54c0,0.18,5.1-8.81,5.1-8.81s0.03-0.19,0.09-0.55c0.16-0.28,0.25-0.44,0.25-0.44
		S109.45,4.27,64.02,4.03z"/>
	
		<radialGradient id="hairHighlights_1_" cx="64.3229" cy="88.3461" r="38.3899" gradientTransform="matrix(1 0 0 -1 0 130)" gradientUnits="userSpaceOnUse">
		<stop  offset="0.7945" style="stop-color:#6D4C41;stop-opacity:0"/>
		<stop  offset="1" style="stop-color:#6D4C41"/>
	</radialGradient>
	<path id="hairHighlights" style="fill:url(#hairHighlights_1_);" d="M64.02,4.03H64c0,0-0.01,0-0.02,0
		c-33.49,0.18-37.24,28.96-36.9,44.08c0,0.18,0.01,0.35,0.01,0.52c0,0.09,0,0.18,0.01,0.27c0.1,3.33,0.4,5.91,0.59,7.25
		c0.01,0.04,0.01,0.08,0.02,0.12c0,0,0,0,0,0c0.08,0.56,0.13,0.87,0.13,0.87s0,0,0,0.01c0,0.01,0,0.02,0,0.02s2.23,3.93,3.74,6.54
		c0.76,1.31,1.34,2.3,1.37,2.3c-0.01-0.37-0.02-0.84-0.03-1.36c-0.01-1.25-0.01-2.79,0.04-4.53c0.01-0.15,0.02-0.31,0.03-0.45
		c0-0.01-0.01-0.03-0.02-0.04c0.37-10.23,2.54-26.55,13.07-29.18c8.02-2.01,16.51,6.46,17.77,7.78c1.26-1.32,9.75-9.79,17.77-7.78
		c13.25,3.31,13.27,28.29,13.11,35.54c0,0.18,5.1-8.81,5.1-8.81s0.03-0.19,0.09-0.55c0.16-0.28,0.25-0.44,0.25-0.44
		S109.45,4.27,64.02,4.03z"/>
</g>
<g id="teeth">
	<g>
		<g>
			<defs>
				<path id="SVGID_4_" d="M72.42,76.14c-3.19,1.89-13.63,1.89-16.81,0c-1.83-1.09-3.7,0.58-2.94,2.24
					c0.75,1.63,6.45,5.42,11.37,5.42s10.55-3.79,11.3-5.42C76.09,76.72,74.25,75.05,72.42,76.14z"/>
			</defs>
			<clipPath id="SVGID_5_">
				<use xlink:href="#SVGID_4_"  style="overflow:visible;"/>
			</clipPath>
			<g style="clip-path:url(#SVGID_5_);">
				<polygon style="fill:#FFFFFF;" points="55.33,75.66 56.33,80.65 58.67,76.71 				"/>
				<polygon style="fill:#FFFFFF;" points="72.67,75.66 71.67,80.65 69.33,76.71 				"/>
			</g>
		</g>
	</g>
</g>
<g id="bow_x5F_ty">
	
		<linearGradient id="SVGID_6_" gradientUnits="userSpaceOnUse" x1="63.995" y1="100" x2="63.995" y2="110.51" gradientTransform="matrix(1 0 0 1 0 2)">
		<stop  offset="3.200000e-03" style="stop-color:#E51E25"/>
		<stop  offset="0.4439" style="stop-color:#E11E25"/>
		<stop  offset="0.652" style="stop-color:#D71E25"/>
		<stop  offset="0.8113" style="stop-color:#C61E24"/>
		<stop  offset="0.9449" style="stop-color:#B11E23"/>
		<stop  offset="1" style="stop-color:#A51E22"/>
	</linearGradient>
	<path style="fill:url(#SVGID_6_);" d="M77.78,106.06c0-2.26-0.48-4.71-1.29-6.62c-0.13-0.32-0.48-0.48-0.84-0.45
		c-3.71,0.58-7.36,2.23-9.49,4.36c-0.16,0.16-0.36,0.23-0.55,0.23h-3.2c-0.23,0-0.42-0.1-0.55-0.23c-2.16-2.13-5.78-3.74-9.52-4.36
		c-0.36-0.03-0.71,0.13-0.84,0.45c-0.81,1.9-1.29,4.36-1.29,6.62h0.13v0.06v-0.06h-0.13c0,2.58,0.48,4.78,1.29,6.71
		c0.13,0.32,0.48,0.52,0.84,0.48c3.74-0.58,7.36-2.2,9.49-4.33c0.16-0.16,0.36-0.23,0.55-0.23h3.23c0.23,0,0.42,0.1,0.55,0.23
		c2.13,2.13,5.75,3.74,9.49,4.33c0.36,0.06,0.68-0.16,0.84-0.48C77.3,110.84,77.78,108.64,77.78,106.06v0.06V106.06z"/>
	<path style="fill:#E51E25;" d="M64.82,109.69h-1.64c-1.01,0-1.84-0.83-1.84-1.84v-3.69c0-1.01,0.83-1.84,1.84-1.84h1.64
		c1.01,0,1.84,0.83,1.84,1.84v3.69C66.66,108.86,65.83,109.69,64.82,109.69z"/>
</g>
<g id="eyebrows_2_">
	<path style="fill:#613E31;" d="M87.98,50.77L87.98,50.77c0-0.01-2.27-3.7-7.55-3.7s-7.56,3.69-7.56,3.69l0,0.01
		c-0.19,0.27-0.3,0.59-0.3,0.94c0,0.89,0.7,1.62,1.57,1.62c0.18,0,0.62-0.13,0.66-0.15c3.16-1.35,5.64-1.35,5.64-1.35
		s2.46,0.01,5.62,1.36c0.04,0.02,0.48,0.15,0.66,0.15c0.86,0,1.57-0.72,1.57-1.62C88.28,51.36,88.17,51.04,87.98,50.77z"/>
	<path style="fill:#613E31;" d="M55.15,50.76L55.15,50.76c0.01-0.01-2.27-3.7-7.55-3.7s-7.56,3.69-7.56,3.69l0.01,0.01
		c-0.19,0.27-0.3,0.59-0.3,0.94c0,0.89,0.7,1.62,1.57,1.62c0.18,0,0.62-0.13,0.66-0.15c3.16-1.35,5.64-1.35,5.64-1.35
		s2.46,0.01,5.62,1.36c0.04,0.02,0.48,0.15,0.66,0.15c0.87,0,1.57-0.72,1.57-1.62C55.45,51.35,55.33,51.03,55.15,50.76z"/>
</g>
</svg>
