<?xml version="1.0" encoding="utf-8"?>
<!-- Generator: Adobe Illustrator 24.1.2, SVG Export Plug-In . SVG Version: 6.00 Build 0)  -->
<svg version="1.1" id="Layer_1" xmlns="http://www.w3.org/2000/svg" xmlns:xlink="http://www.w3.org/1999/xlink" x="0px" y="0px"
	 viewBox="0 0 128 128" style="enable-background:new 0 0 128 128;" xml:space="preserve">
<g>
	<path id="hair_603_" style="fill:#312D2D;" d="M52.79,104.01c-0.65-1.61,0.6-3.01,2.65-4.69c3.25-2.66,7.25-9.26,5.19-16.72
		c0.02-0.04-0.42-1.31-0.4-1.34l-1.2-0.21c-0.38-0.1-13.57-1.77-26.78-3.4C19.04,76,5.84,74.39,5.45,74.4c0,0-1.94,1.07-1.92,1.12
		c-3.78,6.74-1.49,14.12,1.03,17.49c1.59,2.12,2.47,3.79,1.45,5.2c-0.99,1.37-3.43,1.28-3.43,1.28s0.37,1.57,1.62,2.54
		c1.15,0.9,2.66,1.27,3.71,1.42c0,0,3.44,6.16,14.21,7.5l6,0.74l6,0.75c10.77,1.34,15.58-3.81,15.58-3.81
		c1.06,0.11,2.6,0.12,3.94-0.47c1.44-0.64,2.18-2.07,2.18-2.07S53.42,105.57,52.79,104.01z"/>
	<g id="hairHighlights_1_">
		
			<radialGradient id="SVGID_1_" cx="151.3972" cy="171.1714" r="16.0966" gradientTransform="matrix(0.9751 0.1209 0.0577 -0.4746 -118.5184 166.7806)" gradientUnits="userSpaceOnUse">
			<stop  offset="0.7275" style="stop-color:#454140;stop-opacity:0"/>
			<stop  offset="1" style="stop-color:#454140"/>
		</radialGradient>
		<path style="fill:url(#SVGID_1_);" d="M28.1,111.69l0.76-6.27l19.33,0.87l1.48,2.34c0,0-4.81,5.14-15.58,3.81L28.1,111.69z"/>
		
			<radialGradient id="SVGID_2_" cx="135.5438" cy="168.7783" r="4.7569" gradientTransform="matrix(-0.933 0.3 0.2276 0.6872 142.7622 -53.2004)" gradientUnits="userSpaceOnUse">
			<stop  offset="0.6628" style="stop-color:#454140"/>
			<stop  offset="1" style="stop-color:#454140;stop-opacity:0"/>
		</radialGradient>
		<path style="fill:url(#SVGID_2_);" d="M49.97,105.89c-2.35-4.67,4.22-5.49,4.22-5.49s0,0,0.01,0.01c-1.27,1.23-1.92,2.35-1.41,3.6
			c0.63,1.57,3.02,2.08,3.02,2.08S52.16,108.57,49.97,105.89z"/>
		
			<radialGradient id="SVGID_3_" cx="147.872" cy="155.3212" r="20.8943" gradientTransform="matrix(0.0444 -0.9725 -0.8177 -0.0404 164.7301 239.0388)" gradientUnits="userSpaceOnUse">
			<stop  offset="0.7247" style="stop-color:#454140;stop-opacity:0"/>
			<stop  offset="1" style="stop-color:#454140"/>
		</radialGradient>
		<path style="fill:url(#SVGID_3_);" d="M60.64,82.6c2.01,7.23-1.85,13.94-5.02,16.57c-0.44,0.36-2.26,1.75-2.79,2.97
			c0,0-5.32-9.63-6.6-15.06c-0.26-1.1-0.48-2.22-0.39-3.34c0.07-0.84,0.32-1.82,0.89-2.47c0.7-0.8,13.65,0.55,13.65,0.55
			C60.39,81.83,60.64,82.6,60.64,82.6z"/>
		
			<radialGradient id="SVGID_4_" cx="3.2671" cy="155.3212" r="20.8943" gradientTransform="matrix(0.1899 -0.9545 0.8031 0.1606 -107.483 63.8635)" gradientUnits="userSpaceOnUse">
			<stop  offset="0.7247" style="stop-color:#454140;stop-opacity:0"/>
			<stop  offset="1" style="stop-color:#454140"/>
		</radialGradient>
		<path style="fill:url(#SVGID_4_);" d="M3.53,75.52c-3.68,6.52-1.55,13.97,0.9,17.31c0.34,0.46,1.77,2.25,1.99,3.57
			c0,0,7.47-8.04,10.01-13c0.51-1,1-2.04,1.18-3.15c0.14-0.83,0.13-1.84-0.27-2.61c-0.49-0.95-1.21-0.8-2.23-0.92
			c-1.93-0.24-10.32-1.78-10.98-1.86C4.13,74.86,3.53,75.52,3.53,75.52z"/>
		
			<radialGradient id="SVGID_5_" cx="6.7924" cy="171.1714" r="16.0966" gradientTransform="matrix(-0.9751 -0.1209 0.0577 -0.4746 16.1984 183.4821)" gradientUnits="userSpaceOnUse">
			<stop  offset="0.7275" style="stop-color:#454140;stop-opacity:0"/>
			<stop  offset="1" style="stop-color:#454140"/>
		</radialGradient>
		<path style="fill:url(#SVGID_5_);" d="M28.13,111.7l0.76-6.27l-18.97-3.88l-2,1.91c0,0,3.44,6.16,14.21,7.5L28.13,111.7z"/>
		
			<radialGradient id="SVGID_6_" cx="-9.0611" cy="168.7783" r="4.7569" gradientTransform="matrix(0.8334 0.519 -0.3855 0.6112 76.8917 -1.2595)" gradientUnits="userSpaceOnUse">
			<stop  offset="0.6628" style="stop-color:#454140"/>
			<stop  offset="1" style="stop-color:#454140;stop-opacity:0"/>
		</radialGradient>
		<path style="fill:url(#SVGID_6_);" d="M8.3,100.72c3.4-3.96-2.77-6.36-2.77-6.36s-0.01,0-0.01,0c0.94,1.5,1.3,2.75,0.51,3.84
			c-0.99,1.37-3.43,1.28-3.43,1.28S5.54,102.79,8.3,100.72z"/>
	</g>
	<g id="ears_174_">
		<path style="fill:#EDC391;" d="M51.07,83.19l-38.28-4.7c-4.13-0.51-7.95,2.68-8.49,7.07s2.4,8.41,6.52,8.91l38.28,4.7
			c4.13,0.51,7.95-2.68,8.49-7.07C58.13,87.71,55.2,83.7,51.07,83.19z"/>
	</g>
	
		<linearGradient id="shirt_1_" gradientUnits="userSpaceOnUse" x1="1211.7977" y1="123.5179" x2="1211.7977" y2="110.8654" gradientTransform="matrix(-1 0 0 1 1241.6432 0)">
		<stop  offset="0" style="stop-color:#4D7D23"/>
		<stop  offset="1" style="stop-color:#67B730"/>
	</linearGradient>
	<path id="shirt" style="fill:url(#shirt_1_);" d="M26.08,111.11h3.76h3.76c8.69-0.66,21.56,3.24,24.47,12.89H29.85H1.61
		C4.52,114.36,17.39,110.45,26.08,111.11z"/>
	<path id="neck" style="fill:#EDC391;" d="M29.61,117.83L29.61,117.83c-3.76,0-6.8-3.05-6.8-6.8v-4.54h13.61v4.54
		C36.41,114.79,33.36,117.83,29.61,117.83z"/>
	<g id="head_349_">
		<path style="fill:#F9DDBD;" d="M35.32,53.27L35.32,53.27L35.32,53.27c-12.19-1.5-25.08,10.15-27.38,28.91
			c-2.29,18.66,8.21,29.31,20.05,30.77s24.61-6.34,26.9-25C57.2,69.19,47.51,54.77,35.32,53.27z"/>
	</g>
	<g id="eyebrows">
		<path style="fill:#454140;" d="M25.49,79.59c-0.55-0.95-1.91-2.4-4.85-2.76s-4.61,0.71-5.37,1.5c-0.34,0.35-0.32,0.8-0.15,1.09
			c0.16,0.27,0.68,0.57,1.31,0.44c0.63-0.13,1.89-0.6,3.88-0.37c1.99,0.26,3.1,1.02,3.68,1.3c0.58,0.28,1.16,0.12,1.38-0.11
			C25.6,80.44,25.73,80.01,25.49,79.59z"/>
		<path style="fill:#454140;" d="M48.71,82.44c-0.55-0.95-1.91-2.4-4.85-2.76s-4.61,0.71-5.37,1.5c-0.34,0.35-0.32,0.8-0.15,1.09
			c0.16,0.27,0.68,0.57,1.31,0.44c0.63-0.13,1.89-0.6,3.88-0.37c1.99,0.26,3.1,1.02,3.68,1.3c0.58,0.28,1.16,0.12,1.38-0.11
			C48.82,83.3,48.95,82.86,48.71,82.44z"/>
	</g>
	<g id="eyes">
		
			<ellipse transform="matrix(0.1219 -0.9925 0.9925 0.1219 -67.4715 94.3719)" style="fill:#312D2D;" cx="19.6" cy="85.32" rx="3.63" ry="3.51"/>
		
			<ellipse transform="matrix(0.1219 -0.9925 0.9925 0.1219 -49.9114 119.9219)" style="fill:#312D2D;" cx="42.82" cy="88.17" rx="3.63" ry="3.51"/>
	</g>
	<path id="mouth_103_" style="fill:#444444;" d="M35.65,99.71c-2.41,1.06-9.79,0.16-11.88-1.46c-1.2-0.93-2.66,0.09-2.27,1.33
		c0.39,1.22,4.08,4.39,7.56,4.82s7.78-1.76,8.45-2.85C38.2,100.44,37.04,99.11,35.65,99.71z"/>
	<path id="nose_177_" style="fill:#DBA689;" d="M33.13,93.61c-0.07-0.04-0.15-0.07-0.22-0.09l-5-0.61c-0.08,0-0.16,0.01-0.23,0.03
		c-0.48,0.13-0.78,0.57-0.63,1.09c0.15,0.53,0.97,2.05,2.98,2.3c2.01,0.25,3.17-1.03,3.45-1.51C33.75,94.35,33.56,93.85,33.13,93.61
		z"/>
	<path id="hair_1_" style="fill:#312D2D;" d="M61.54,66.33c-1.35-2.78-4.65-6.68-7.98-7.31c-0.12-3.36-3.23-6.56-6.44-8.05
		c-8.68-4.01-14.97-1.44-18.36-0.06c-0.7,0.29-5.25,2.18-8,0.1c-1.72-1.3-1.32-4.22-1.32-4.22s-6.11,1.57-4.91,8.12
		c-2.01-0.16-4.75,0.39-6.5,3.09c-2.08,3.22-1.85,6.15-1.55,7.57c-1.91,1.28-4.48,4.2-3.51,8.51C3.71,77.33,8,79.29,8,79.29
		c-1.02,5.55-0.75,9.16-0.38,10.61c0.06,0.25,0.41,0.27,0.5,0.03c1.02-2.69,4.87-12.1,4.85-13.81c0,0,7.95-0.64,16.05-5.31
		c1.65-0.95,3.4-1.72,5.22-2.22c9.76-2.66,10.9,4.01,10.9,4.01s6.6-0.49,7.4,8.87c0.3,3.51,0.75,9.02,0.68,12.9
		c0,0.27,0.35,0.37,0.49,0.14c0.84-1.44,1.88-4.28,2.58-7.32c0.25-1.07,3.28-2.16,5.09-6.66C63.78,74.54,62.51,68.34,61.54,66.33z"
		/>
	<g id="hairHighlights">
		
			<radialGradient id="SVGID_7_" cx="26.3053" cy="143.8255" r="25.0715" gradientTransform="matrix(0.1804 0.9797 -0.7143 0.144 142.8775 30.5582)" gradientUnits="userSpaceOnUse">
			<stop  offset="0.6985" style="stop-color:#454140;stop-opacity:0"/>
			<stop  offset="1" style="stop-color:#454140"/>
		</radialGradient>
		<path style="fill:url(#SVGID_7_);" d="M56.24,87.23c0.25-1.07,3.28-2.16,5.09-6.66c0.19-0.48,0.37-0.97,0.53-1.46
			c1.71-5.53,0.56-10.93-0.33-12.77c-1.24-2.57-4.16-6.09-7.22-7.11c-0.27-0.07-0.53-0.13-0.78-0.18c0,0,0.04,1.52-0.71,2.65
			c-0.96,1.46-2.57,1.64-2.57,1.64C57.39,72.67,55.93,79.6,56.24,87.23z"/>
		
			<radialGradient id="SVGID_8_" cx="1.8628" cy="116.488" r="6.5735" gradientTransform="matrix(0.7974 0.5715 -0.6744 0.9711 101.626 -67.1123)" gradientUnits="userSpaceOnUse">
			<stop  offset="0.58" style="stop-color:#454140"/>
			<stop  offset="1" style="stop-color:#454140;stop-opacity:0"/>
		</radialGradient>
		<path style="fill:url(#SVGID_8_);" d="M30.88,50.1c-0.8,0.28-1.5,0.57-2.11,0.82c-0.7,0.29-5.25,2.18-8,0.1
			c-1.69-1.28-1.34-4.11-1.32-4.21c-0.98,0.99-4.5,8.51,2.87,9.93c3.18,0.61,5.51-2.01,6.99-4.29
			C29.83,51.62,30.66,50.42,30.88,50.1z"/>
		
			<radialGradient id="SVGID_9_" cx="289.6792" cy="67.9528" r="20.2084" gradientTransform="matrix(-0.8621 -0.5006 0.2778 -0.4987 268.1768 239.5342)" gradientUnits="userSpaceOnUse">
			<stop  offset="0.6985" style="stop-color:#454140;stop-opacity:0"/>
			<stop  offset="1" style="stop-color:#454140"/>
		</radialGradient>
		<path style="fill:url(#SVGID_9_);" d="M46.23,50.58c4.83,1.98,6.94,4.88,7.32,8.45c0.11,1.05-0.8,10.59-17.21-2.35
			c-6.11-4.81-3.99-7.11-3.18-7.3C36.32,48.62,40.82,48.36,46.23,50.58z"/>
		
			<radialGradient id="SVGID_10_" cx="-0.7766" cy="122.4855" r="6.0338" gradientTransform="matrix(0.9715 0.1166 -0.1522 1.2134 40.638 -95.8096)" gradientUnits="userSpaceOnUse">
			<stop  offset="0.7016" style="stop-color:#454140;stop-opacity:0"/>
			<stop  offset="1" style="stop-color:#454140"/>
		</radialGradient>
		<path style="fill:url(#SVGID_10_);" d="M19.42,46.8c-0.01,0-0.02,0.01-0.04,0.01c0,0,0,0,0,0c-0.67,0.2-5.97,1.96-4.84,8.1
			l5.21,1.51c-4.1-5.44-0.3-9.63-0.3-9.63S19.43,46.8,19.42,46.8z"/>
		
			<radialGradient id="SVGID_11_" cx="-1.6067" cy="133.1358" r="11.3164" gradientTransform="matrix(-0.9058 -0.3704 0.3487 -0.868 -28.7747 178.1533)" gradientUnits="userSpaceOnUse">
			<stop  offset="0.6605" style="stop-color:#454140;stop-opacity:0"/>
			<stop  offset="1" style="stop-color:#454140"/>
		</radialGradient>
		<path style="fill:url(#SVGID_11_);" d="M17.75,55.85l-3.22-0.94c-0.13-0.02-0.57-0.03-0.81-0.02c-1.88,0.04-4.19,0.76-5.68,3.12
			c-1.61,2.54-1.86,4.86-1.71,6.44c0.03,0.53,0.17,1.14,0.17,1.14s1.83-1.38,5.71-1.02L17.75,55.85z"/>
		
			<radialGradient id="SVGID_12_" cx="-4.2914" cy="144.0627" r="11.8808" gradientTransform="matrix(0.9455 0.2507 -0.3593 1.3585 70.9607 -120.9208)" gradientUnits="userSpaceOnUse">
			<stop  offset="0.5981" style="stop-color:#454140;stop-opacity:0"/>
			<stop  offset="1" style="stop-color:#454140"/>
		</radialGradient>
		<path style="fill:url(#SVGID_12_);" d="M6.32,65.7c-1.8,1.27-4.4,4.28-3.3,8.54C3.85,77.45,8,79.29,8,79.29
			c0,0.01,0.83,0.38,1.27,0.43l2.93-15.16c-2.07-0.25-4.14,0.15-5.54,0.91C6.67,65.5,6.31,65.68,6.32,65.7z"/>
	</g>
</g>
<g>
	<path style="fill:#EF5592;" d="M78.41,3.74C67.87,3.74,64,14.5,64,14.5S60.18,3.74,49.57,3.74c-7.97,0-17.07,6.32-13.71,20.68
		c3.36,14.36,28.16,32.26,28.16,32.26s24.72-17.9,28.08-32.26C95.46,10.06,87.02,3.74,78.41,3.74z"/>
	<g>
		<path style="fill:#DA2E75;" d="M47.94,4.81c8.27,0,12.38,8.89,13.71,12.5c0.19,0.51,0.91,0.53,1.12,0.03l1.21-2.83
			c-1.71-5.45-6.4-10.77-14.41-10.77c-3.32,0-6.82,1.1-9.55,3.41C42.42,5.56,45.25,4.81,47.94,4.81z"/>
		<path style="fill:#DA2E75;" d="M78.41,3.74c-2.55,0-4.7,0.74-6.51,1.85c1.27-0.49,2.68-0.78,4.23-0.78
			c7.8,0,14.77,5.91,11.62,19.58c-2.7,11.73-18.5,25.96-23.32,31.39c-0.31,0.35-0.41,0.91-0.41,0.91s24.72-17.9,28.08-32.26
			C95.46,10.06,86.38,3.74,78.41,3.74z"/>
	</g>
	<g>
		<g>
			<g>
				<path style="fill:#F386AB;" d="M41.4,11.36c1.8-2.25,5.03-4.11,7.76-1.97c1.48,1.16,0.83,3.54-0.49,4.54
					c-1.93,1.46-3.6,2.34-4.77,4.63c-0.7,1.38-1.13,2.88-1.34,4.42c-0.08,0.61-0.88,0.75-1.18,0.22
					C39.34,19.6,38.77,14.65,41.4,11.36z"/>
			</g>
		</g>
	</g>
	<path style="fill:#F386AB;" d="M70.31,16.09c-0.85,0-1.44-0.82-1.13-1.61c0.57-1.45,1.31-2.86,2.2-4.11
		c1.32-1.85,3.82-2.92,5.41-1.81c1.63,1.15,1.42,3.43,0.27,4.54C74.61,15.49,71.53,16.09,70.31,16.09z"/>
</g>
<g>
	<path id="hair_607_" style="fill:#232020;" d="M120.89,98.25c-1.02-1.41-0.15-3.07,1.44-5.19c2.51-3.37,4.79-10.74,0.99-17.48
		c0.01-0.04-0.73-1.17-0.72-1.21l-1.21,0.09c-0.39-0.01-13.59,1.57-26.81,3.18c-13.21,1.61-26.41,3.24-26.79,3.34
		c0,0-1.62,1.51-1.6,1.55c-2.04,7.45,1.97,14.06,5.23,16.72c2.05,1.68,3.31,3.08,2.66,4.69c-0.63,1.56-3.02,2.07-3.02,2.07
		s0.74,1.43,2.19,2.08c1.34,0.6,2.88,0.59,3.94,0.48c0,0,4.82,5.15,15.6,3.84l6-0.73l6-0.73c10.78-1.31,14.2-7.46,14.2-7.46
		c1.05-0.15,2.56-0.51,3.71-1.41c1.24-0.97,1.61-2.54,1.61-2.54S121.88,99.61,120.89,98.25z"/>
	<g id="hairHighlights_3_">
		
			<radialGradient id="SVGID_13_" cx="47.6099" cy="33.7084" r="16.0966" gradientTransform="matrix(0.9754 -0.1186 -0.0588 -0.4745 63.0033 123.0691)" gradientUnits="userSpaceOnUse">
			<stop  offset="0.7275" style="stop-color:#444140;stop-opacity:0"/>
			<stop  offset="1" style="stop-color:#444140"/>
		</radialGradient>
		<path style="fill:url(#SVGID_13_);" d="M98.8,111.68l-0.78-6.27l18.97-3.83l2.01,1.91c0,0-3.42,6.15-14.2,7.46L98.8,111.68z"/>
		
			<radialGradient id="SVGID_14_" cx="31.7565" cy="31.3152" r="4.7569" gradientTransform="matrix(-0.8327 0.5168 0.3871 0.6117 136.9541 61.6695)" gradientUnits="userSpaceOnUse">
			<stop  offset="0.6628" style="stop-color:#444140"/>
			<stop  offset="1" style="stop-color:#444140;stop-opacity:0"/>
		</radialGradient>
		<path style="fill:url(#SVGID_14_);" d="M118.61,100.75c-3.41-3.97,2.76-6.35,2.76-6.35s0.01,0,0.01,0
			c-0.94,1.5-1.29,2.75-0.5,3.84c0.99,1.37,3.43,1.29,3.43,1.29S121.38,102.83,118.61,100.75z"/>
		
			<radialGradient id="SVGID_15_" cx="44.0847" cy="17.8582" r="20.8943" gradientTransform="matrix(-0.1922 -0.9544 -0.8032 0.1586 131.8151 124.9416)" gradientUnits="userSpaceOnUse">
			<stop  offset="0.7247" style="stop-color:#444140;stop-opacity:0"/>
			<stop  offset="1" style="stop-color:#444140"/>
		</radialGradient>
		<path style="fill:url(#SVGID_15_);" d="M123.33,75.57c3.7,6.53,1.58,13.97-0.86,17.29c-0.33,0.46-1.77,2.24-1.99,3.56
			c0,0-7.49-8.06-10.05-13.02c-0.52-1-1-2.04-1.19-3.15c-0.14-0.83-0.13-1.84,0.27-2.61c0.49-0.94,13.38-2.77,13.38-2.77
			C122.9,74.89,123.33,75.57,123.33,75.57z"/>
		
			<radialGradient id="SVGID_16_" cx="107.0544" cy="17.8582" r="20.8943" gradientTransform="matrix(-0.0466 -0.9721 0.8181 -0.0385 72.9667 193.6657)" gradientUnits="userSpaceOnUse">
			<stop  offset="0.7247" style="stop-color:#444140;stop-opacity:0"/>
			<stop  offset="1" style="stop-color:#444140"/>
		</radialGradient>
		<path style="fill:url(#SVGID_16_);" d="M66.2,82.52c-1.99,7.22,1.88,13.93,5.06,16.58c0.44,0.36,2.27,1.75,2.8,2.98
			c0,0,5.3-9.61,6.57-15.04c0.26-1.1,0.47-2.22,0.38-3.34c-0.07-0.84-0.32-1.82-0.9-2.47c-0.7-0.8-1.37-0.48-2.38-0.36
			c-1.93,0.23-10.44,0.77-11.1,0.85C66.63,81.73,66.2,82.52,66.2,82.52z"/>
		
			<radialGradient id="SVGID_17_" cx="110.5797" cy="33.7084" r="16.0966" gradientTransform="matrix(-0.9754 0.1186 -0.0588 -0.4745 197.7589 106.6835)" gradientUnits="userSpaceOnUse">
			<stop  offset="0.7275" style="stop-color:#444140;stop-opacity:0"/>
			<stop  offset="1" style="stop-color:#444140"/>
		</radialGradient>
		<path style="fill:url(#SVGID_17_);" d="M98.83,111.67l-0.78-6.27l-19.34,0.83l-1.48,2.33c0,0,4.82,5.15,15.6,3.84L98.83,111.67z"
			/>
		
			<radialGradient id="SVGID_18_" cx="94.7262" cy="31.3152" r="4.7569" gradientTransform="matrix(0.9342 0.302 -0.2262 0.6863 -9.2396 53.2791)" gradientUnits="userSpaceOnUse">
			<stop  offset="0.6628" style="stop-color:#444140"/>
			<stop  offset="1" style="stop-color:#444140;stop-opacity:0"/>
		</radialGradient>
		<path style="fill:url(#SVGID_18_);" d="M76.93,105.82c2.34-4.66-4.23-5.5-4.23-5.5s0,0-0.01,0.01c1.28,1.23,1.93,2.35,1.42,3.61
			C73.49,105.5,71.1,106,71.1,106S74.75,108.5,76.93,105.82z"/>
	</g>
	<linearGradient id="SVGID_19_" gradientUnits="userSpaceOnUse" x1="98.2363" y1="123.5179" x2="98.2363" y2="110.8654">
		<stop  offset="0" style="stop-color:#ED6D23"/>
		<stop  offset="1" style="stop-color:#F78C1F"/>
	</linearGradient>
	<path style="fill:url(#SVGID_19_);" d="M102,111.11h-3.76h-3.76C85.78,110.45,72.91,114.36,70,124h28.23h28.23
		C123.57,114.36,110.69,110.45,102,111.11z"/>
	<path id="neck_1_" style="fill:#3C2B24;" d="M98,117.83L98,117.83c-3.76,0-6.8-3.05-6.8-6.8v-4.54h13.61v4.54
		C104.8,114.79,101.75,117.83,98,117.83z"/>
	<g id="ears_175_">
		<path style="fill:#3C2B24;" d="M114.19,78.47l-38.28,4.7c-4.13,0.51-7.06,4.52-6.52,8.91c0.54,4.4,4.36,7.58,8.49,7.07l38.28-4.7
			c4.13-0.51,7.06-4.52,6.52-8.91C122.14,81.14,118.32,77.96,114.19,78.47z"/>
	</g>
	<g id="head_350_">
		<path style="fill:#70534A;" d="M91.67,53.24L91.67,53.24L91.67,53.24c-12.19,1.5-21.88,15.92-19.57,34.68
			c2.29,18.66,15.05,26.45,26.9,25c11.85-1.45,22.34-12.11,20.05-30.77C116.74,63.4,103.85,51.75,91.67,53.24z"/>
	</g>
	<g id="eyebrows_1_">
		<path style="fill:#1A1717;" d="M88.49,81.16c-0.76-0.79-2.43-1.86-5.37-1.5s-4.3,1.81-4.85,2.76c-0.24,0.42-0.11,0.85,0.12,1.1
			c0.22,0.23,0.79,0.39,1.38,0.11c0.58-0.28,1.69-1.04,3.68-1.3c1.99-0.23,3.25,0.24,3.88,0.37c0.63,0.13,1.15-0.17,1.31-0.44
			C88.81,81.96,88.83,81.51,88.49,81.16z"/>
		<path style="fill:#1A1717;" d="M111.71,78.31c-0.76-0.79-2.43-1.86-5.37-1.5s-4.3,1.81-4.85,2.76c-0.24,0.42-0.11,0.85,0.12,1.1
			c0.22,0.23,0.79,0.39,1.38,0.11c0.58-0.28,1.69-1.04,3.68-1.3c1.99-0.23,3.25,0.24,3.88,0.37c0.63,0.13,1.15-0.17,1.31-0.44
			C112.03,79.11,112.05,78.66,111.71,78.31z"/>
	</g>
	<g id="eyes_1_">
		
			<ellipse transform="matrix(0.9925 -0.1219 0.1219 0.9925 -10.1144 10.9141)" style="fill:#1A1717;" cx="84.16" cy="88.14" rx="3.51" ry="3.63"/>
		
			<ellipse transform="matrix(0.9925 -0.1219 0.1219 0.9925 -9.5938 13.7226)" style="fill:#1A1717;" cx="107.38" cy="85.29" rx="3.51" ry="3.63"/>
	</g>
	<path id="mouth_104_" style="fill:#1A1717;" d="M103.22,98.23c-2.09,1.61-9.46,2.52-11.88,1.46c-1.39-0.61-2.56,0.73-1.88,1.84
		c0.67,1.09,5.02,3.27,8.5,2.85s7.12-3.59,7.51-4.81C105.87,98.32,104.42,97.3,103.22,98.23z"/>
	<path id="nose_178_" style="fill:#33251F;" d="M99.3,92.91c-0.08-0.02-0.16-0.03-0.23-0.03l-5,0.61c-0.08,0.02-0.15,0.05-0.22,0.09
		c-0.43,0.24-0.62,0.74-0.35,1.21c0.28,0.47,1.44,1.75,3.45,1.51c2.01-0.25,2.83-1.77,2.98-2.3C100.08,93.48,99.78,93.04,99.3,92.91
		z"/>
	<path id="hair_3_" style="fill:#232020;" d="M120.27,59.57c-1.98-2.37-6.13-5.36-9.51-5.16c-0.93-3.23-4.72-5.59-8.19-6.25
		c-9.39-1.79-14.88,2.23-17.83,4.39c-0.61,0.45-4.56,3.38-7.74,2.03c-1.99-0.85-2.31-3.78-2.31-3.78s-5.55,3-2.8,9.07
		c-1.99,0.34-4.51,1.53-5.56,4.57c-1.24,3.63-0.31,6.41,0.33,7.72c-1.54,1.71-3.33,5.16-1.35,9.1c1.49,2.97,6.13,3.84,6.13,3.84
		c0.36,5.63,1.49,9.07,2.19,10.39c0.12,0.23,0.46,0.17,0.49-0.09c0.34-2.85,1.79-12.92,1.36-14.57c0,0,7.56-2.54,14.29-9.04
		c1.37-1.32,2.88-2.49,4.53-3.42c8.83-4.94,11.55,1.26,11.55,1.26s6.28-2.07,9.32,6.82c1.14,3.33,2.91,8.57,3.78,12.36
		c0.06,0.27,0.43,0.28,0.5,0.02c0.47-1.6,0.79-4.61,0.73-7.72c-0.02-1.1,2.66-2.89,3.33-7.69C124.43,67,121.7,61.29,120.27,59.57z"
		/>
	<g id="hairHighlights_2_">
		
			<radialGradient id="SVGID_20_" cx="129.9999" cy="10.3808" r="25.0715" gradientTransform="matrix(0.4121 0.9069 -0.6582 0.3126 59.9688 -47.1504)" gradientUnits="userSpaceOnUse">
			<stop  offset="0.6985" style="stop-color:#444140;stop-opacity:0"/>
			<stop  offset="1" style="stop-color:#444140"/>
		</radialGradient>
		<path style="fill:url(#SVGID_20_);" d="M120.18,81.13c-0.02-1.1,2.66-2.89,3.33-7.69c0.07-0.51,0.12-1.03,0.16-1.55
			c0.32-5.78-2.1-10.74-3.41-12.31c-1.83-2.19-5.51-4.9-8.73-5.15c-0.28,0-0.55,0-0.8,0.01c0,0,0.4,1.47-0.05,2.74
			c-0.58,1.65-2.1,2.21-2.1,2.21C117.78,66.73,118.03,73.8,120.18,81.13z"/>
		
			<radialGradient id="SVGID_21_" cx="105.5574" cy="-16.9567" r="6.5735" gradientTransform="matrix(0.912 0.3617 -0.4195 1.1055 -23.6622 30.4103)" gradientUnits="userSpaceOnUse">
			<stop  offset="0.58" style="stop-color:#444140"/>
			<stop  offset="1" style="stop-color:#444140;stop-opacity:0"/>
		</radialGradient>
		<path style="fill:url(#SVGID_21_);" d="M86.59,51.24c-0.7,0.46-1.32,0.91-1.85,1.3c-0.61,0.45-4.56,3.38-7.74,2.03
			c-1.95-0.83-2.29-3.67-2.3-3.77c-0.71,1.2-2.31,9.35,5.18,8.94c3.23-0.18,4.86-3.28,5.74-5.85
			C85.94,52.97,86.45,51.61,86.59,51.24z"/>
		
			<radialGradient id="SVGID_22_" cx="109.3126" cy="29.0813" r="20.2084" gradientTransform="matrix(-0.9575 -0.2772 0.1489 -0.5511 195.7445 106.2278)" gradientUnits="userSpaceOnUse">
			<stop  offset="0.6985" style="stop-color:#444140;stop-opacity:0"/>
			<stop  offset="1" style="stop-color:#444140"/>
		</radialGradient>
		<path style="fill:url(#SVGID_22_);" d="M101.6,47.99c5.17,0.76,7.92,3.05,9.15,6.42c0.36,0.99,1.79,10.47-17.27,1.89
			c-7.09-3.19-5.59-5.94-4.85-6.32C91.52,48.49,95.81,47.15,101.6,47.99z"/>
		
			<radialGradient id="SVGID_23_" cx="102.918" cy="-10.9592" r="6.0338" gradientTransform="matrix(0.9709 -0.1219 0.1458 1.2142 -20.4558 81.9639)" gradientUnits="userSpaceOnUse">
			<stop  offset="0.7016" style="stop-color:#444140;stop-opacity:0"/>
			<stop  offset="1" style="stop-color:#444140"/>
		</radialGradient>
		<path style="fill:url(#SVGID_23_);" d="M74.68,50.81c-0.01,0.01-0.02,0.01-0.04,0.02c0,0,0,0,0,0c-0.6,0.35-5.32,3.34-2.74,9.03
			l5.42,0.21c-5.29-4.29-2.62-9.28-2.62-9.28S74.68,50.81,74.68,50.81z"/>
		
			<radialGradient id="SVGID_24_" cx="102.0879" cy="-0.3089" r="11.3164" gradientTransform="matrix(-0.9685 -0.1402 0.1284 -0.9266 177.2464 80.8153)" gradientUnits="userSpaceOnUse">
			<stop  offset="0.6605" style="stop-color:#444140;stop-opacity:0"/>
			<stop  offset="1" style="stop-color:#444140"/>
		</radialGradient>
		<path style="fill:url(#SVGID_24_);" d="M75.24,60l-3.35-0.13c-0.13,0.02-0.56,0.11-0.8,0.18c-1.82,0.5-3.88,1.75-4.76,4.4
			c-0.95,2.85-0.63,5.16-0.1,6.66c0.16,0.51,0.44,1.06,0.44,1.06s1.44-1.78,5.3-2.37L75.24,60z"/>
		
			<radialGradient id="SVGID_25_" cx="99.4032" cy="10.618" r="11.8808" gradientTransform="matrix(0.9781 0.0146 -0.02 1.4051 -19.9838 61.594)" gradientUnits="userSpaceOnUse">
			<stop  offset="0.5981" style="stop-color:#444140;stop-opacity:0"/>
			<stop  offset="1" style="stop-color:#444140"/>
		</radialGradient>
		<path style="fill:url(#SVGID_25_);" d="M66.53,72.32c-1.44,1.67-3.23,5.22-1.13,9.08c1.58,2.91,6.06,3.7,6.06,3.7
			c0,0.01,0.9,0.17,1.34,0.11L71.97,69.8c-2.07,0.26-3.98,1.14-5.15,2.22C66.83,72.04,66.52,72.3,66.53,72.32z"/>
	</g>
</g>
</svg>
