<?xml version="1.0" encoding="UTF-8" standalone="no"?><svg xmlns:dc="http://purl.org/dc/elements/1.1/" xmlns:cc="http://creativecommons.org/ns#" xmlns:rdf="http://www.w3.org/1999/02/22-rdf-syntax-ns#" xmlns:svg="http://www.w3.org/2000/svg" xmlns="http://www.w3.org/2000/svg" viewBox="0 0 45 45" style="enable-background:new 0 0 45 45;" xml:space="preserve" version="1.1" id="svg2"><metadata id="metadata8"><rdf:RDF><cc:Work rdf:about=""><dc:format>image/svg+xml</dc:format><dc:type rdf:resource="http://purl.org/dc/dcmitype/StillImage"/></cc:Work></rdf:RDF></metadata><defs id="defs6"><clipPath id="clipPath16" clipPathUnits="userSpaceOnUse"><path id="path18" d="M 0,36 36,36 36,0 0,0 0,36 Z"/></clipPath><clipPath id="clipPath36" clipPathUnits="userSpaceOnUse"><path id="path38" d="M 4,36 C 1.791,36 0,34.209 0,32 L 0,32 0,4 C 0,1.791 1.791,0 4,0 l 0,0 28,0 c 2.209,0 4,1.791 4,4 l 0,0 0,28 c 0,2.209 -1.791,4 -4,4 l 0,0 -28,0 z"/></clipPath><clipPath id="clipPath44" clipPathUnits="userSpaceOnUse"><path id="path46" d="m -6,20 23,0 0,-20.6875 -23,0 L -6,20 Z"/></clipPath><clipPath id="clipPath80" clipPathUnits="userSpaceOnUse"><path id="path82" d="M 19.8262,22 39,22 l 0,-22.564026 -19.1738,0 0,22.564026 z"/></clipPath><clipPath id="clipPath116" clipPathUnits="userSpaceOnUse"><path id="path118" d="M 0,36 36,36 36,0 0,0 0,36 Z"/></clipPath><clipPath id="clipPath198" clipPathUnits="userSpaceOnUse"><path id="path200" d="M 4,36 C 1.791,36 0,34.209 0,32 L 0,32 0,4 C 0,1.791 1.791,0 4,0 l 0,0 28,0 c 2.209,0 4,1.791 4,4 l 0,0 0,28 c 0,2.209 -1.791,4 -4,4 l 0,0 -28,0 z"/></clipPath><clipPath id="clipPath206" clipPathUnits="userSpaceOnUse"><path id="path208" d="m -3,13 20,0 0,-15 -20,0 0,15 z"/></clipPath><clipPath id="clipPath242" clipPathUnits="userSpaceOnUse"><path id="path244" d="m 19,12 18,0 0,-16 -18,0 0,16 z"/></clipPath></defs><g transform="matrix(1.25,0,0,-1.25,0,45)" id="g10"><g id="g12"><g clip-path="url(#clipPath16)" id="g14"><g transform="translate(36,4)" id="g20"><path id="path22" style="fill:#c1694f;fill-opacity:1;fill-rule:nonzero;stroke:none" d="m 0,0 c 0,-2.209 -1.791,-4 -4,-4 l -28,0 c -2.209,0 -4,1.791 -4,4 l 0,28 c 0,2.209 1.791,4 4,4 l 28,0 c 2.209,0 4,-1.791 4,-4 L 0,0 Z"/></g><path id="path24" style="fill:#d99e82;fill-opacity:1;fill-rule:nonzero;stroke:none" d="m 36,28 -36,0 0,4 36,0 0,-4 z"/><path id="path26" style="fill:#d99e82;fill-opacity:1;fill-rule:nonzero;stroke:none" d="m 36,20 -36,0 0,4 36,0 0,-4 z"/><path id="path28" style="fill:#d99e82;fill-opacity:1;fill-rule:nonzero;stroke:none" d="m 36,12 -36,0 0,4 36,0 0,-4 z"/><path id="path30" style="fill:#d99e82;fill-opacity:1;fill-rule:nonzero;stroke:none" d="M 36,4 0,4 0,8 36,8 36,4 Z"/></g></g><g id="g32"><g clip-path="url(#clipPath36)" id="g34"><g id="g40"><g id="g42"/><g id="g48"><g style="opacity:0.75" id="g50" clip-path="url(#clipPath44)"><g id="g52" transform="translate(8,11)"><path id="path54" style="fill:#e1e8ed;fill-opacity:1;fill-rule:nonzero;stroke:none" d="M 0,0 C 0,1.657 1.343,3 3,3 4.657,3 6,1.657 6,0 6,-1.657 4.657,-3 3,-3 1.343,-3 0,-1.657 0,0"/></g><g id="g56" transform="translate(4,13)"><path id="path58" style="fill:#e1e8ed;fill-opacity:1;fill-rule:nonzero;stroke:none" d="M 0,0 C 0,1.657 1.343,3 3,3 4.657,3 6,1.657 6,0 6,-1.657 4.657,-3 3,-3 1.343,-3 0,-1.657 0,0"/></g><g id="g60" transform="translate(2,16)"><path id="path62" style="fill:#e1e8ed;fill-opacity:1;fill-rule:nonzero;stroke:none" d="M 0,0 C 0,1.657 1.343,3 3,3 4.657,3 6,1.657 6,0 6,-1.657 4.657,-3 3,-3 1.343,-3 0,-1.657 0,0"/></g><g id="g64" transform="translate(-2,17)"><path id="path66" style="fill:#e1e8ed;fill-opacity:1;fill-rule:nonzero;stroke:none" d="M 0,0 C 0,1.657 1.343,3 3,3 4.657,3 6,1.657 6,0 6,-1.657 4.657,-3 3,-3 1.343,-3 0,-1.657 0,0"/></g><g id="g68" transform="translate(-6,16)"><path id="path70" style="fill:#e1e8ed;fill-opacity:1;fill-rule:nonzero;stroke:none" d="M 0,0 C 0,1.657 1.343,3 3,3 4.657,3 6,1.657 6,0 6,-1.657 4.657,-3 3,-3 1.343,-3 0,-1.657 0,0"/></g><g id="g72" transform="translate(-5,17)"><path id="path74" style="fill:#e1e8ed;fill-opacity:1;fill-rule:nonzero;stroke:none" d="m 0,0 11,0 9,-10 2,-7.687 L 0,-17.625 0,0 Z"/></g></g></g></g><g id="g76"><g id="g78"/><g id="g84"><g style="opacity:0.75" id="g86" clip-path="url(#clipPath80)"><g id="g88" transform="translate(27,11)"><path id="path90" style="fill:#e1e8ed;fill-opacity:1;fill-rule:nonzero;stroke:none" d="m 0,0 c 0,1.657 -1.343,3 -3,3 -1.657,0 -3,-1.343 -3,-3 0,-1.657 1.343,-3 3,-3 1.657,0 3,1.343 3,3"/></g><g id="g92" transform="translate(30,13)"><path id="path94" style="fill:#e1e8ed;fill-opacity:1;fill-rule:nonzero;stroke:none" d="m 0,0 c 0,1.657 -1.343,3 -3,3 -1.657,0 -3,-1.343 -3,-3 0,-1.657 1.343,-3 3,-3 1.657,0 3,1.343 3,3"/></g><g id="g96" transform="translate(33,15)"><path id="path98" style="fill:#e1e8ed;fill-opacity:1;fill-rule:nonzero;stroke:none" d="m 0,0 c 0,1.657 -1.343,3 -3,3 -1.657,0 -3,-1.343 -3,-3 0,-1.657 1.343,-3 3,-3 1.657,0 3,1.343 3,3"/></g><g id="g100" transform="translate(35,18)"><path id="path102" style="fill:#e1e8ed;fill-opacity:1;fill-rule:nonzero;stroke:none" d="m 0,0 c 0,1.657 -1.343,3 -3,3 -1.657,0 -3,-1.343 -3,-3 0,-1.657 1.343,-3 3,-3 1.657,0 3,1.343 3,3"/></g><g id="g104" transform="translate(39,19)"><path id="path106" style="fill:#e1e8ed;fill-opacity:1;fill-rule:nonzero;stroke:none" d="m 0,0 c 0,1.657 -1.343,3 -3,3 -1.657,0 -3,-1.343 -3,-3 0,-1.657 1.343,-3 3,-3 1.657,0 3,1.343 3,3"/></g><g id="g108" transform="translate(37,18)"><path id="path110" style="fill:#e1e8ed;fill-opacity:1;fill-rule:nonzero;stroke:none" d="M 0,0 -8,-2 -16,-8 -17.174,-18.564 0,-18.562 0,0 Z"/></g></g></g></g></g></g><g id="g112"><g clip-path="url(#clipPath116)" id="g114"><g transform="translate(13.5429,1)" id="g120"><path id="path122" style="fill:#af7e57;fill-opacity:1;fill-rule:nonzero;stroke:none" d="m 0,0 8.914,0 0,1.571 3.543,-0.571 0,12 c 0,2 -1.531,3 -3,3 l -10,0 c -1.469,0 -3,-1 -3,-3 l 0,-12 L 0,1.571 0,0 Z"/></g><g transform="translate(12.2286,1.8857)" id="g124"><path id="path126" style="fill:#af7e57;fill-opacity:1;fill-rule:nonzero;stroke:none" d="m 0,0 c 0,-0.615 -0.499,-1.114 -1.114,-1.114 -0.616,0 -1.115,0.499 -1.115,1.114 0,0.615 0.499,1.114 1.115,1.114 C -0.499,1.114 0,0.615 0,0"/></g><g transform="translate(26,1.8857)" id="g128"><path id="path130" style="fill:#af7e57;fill-opacity:1;fill-rule:nonzero;stroke:none" d="m 0,0 c 0,-0.615 -0.499,-1.114 -1.114,-1.114 -0.616,0 -1.115,0.499 -1.115,1.114 0,0.615 0.499,1.114 1.115,1.114 C -0.499,1.114 0,0.615 0,0"/></g><g transform="translate(12.5,4)" id="g132"><path id="path134" style="fill:#9b6a49;fill-opacity:1;fill-rule:nonzero;stroke:none" d="m 0,0 0,0 c -0.275,0 -0.5,0.225 -0.5,0.5 l 0,8 C -0.5,8.775 -0.275,9 0,9 L 0,9 C 0.275,9 0.5,8.775 0.5,8.5 l 0,-8 C 0.5,0.225 0.275,0 0,0"/></g><g transform="translate(23.5,4)" id="g136"><path id="path138" style="fill:#9b6a49;fill-opacity:1;fill-rule:nonzero;stroke:none" d="m 0,0 0,0 c -0.275,0 -0.5,0.225 -0.5,0.5 l 0,8 C -0.5,8.775 -0.275,9 0,9 0.275,9 0.5,8.775 0.5,8.5 l 0,-8 C 0.5,0.225 0.275,0 0,0"/></g><path id="path140" style="fill:#77b255;fill-opacity:1;fill-rule:nonzero;stroke:none" d="M 24,0 12,0 12,7 24,7 24,0 Z"/><g transform="translate(18,7)" id="g142"><path id="path144" style="fill:#5c913b;fill-opacity:1;fill-rule:nonzero;stroke:none" d="m 0,0 -6,0 0,-1 7.121,0 C 0.844,-0.598 0.481,-0.24 0,0"/></g><g transform="translate(23,0)" id="g146"><path id="path148" style="fill:#a6d388;fill-opacity:1;fill-rule:nonzero;stroke:none" d="m 0,0 -4,0 0,3 c 0,0 0,3 -2,4 L 0,7 0,0 Z"/></g><g transform="translate(24,0)" id="g150"><path id="path152" style="fill:#5c913b;fill-opacity:1;fill-rule:nonzero;stroke:none" d="m 0,0 -4,0 0,3 c 0,0 0,3 -2,4 L 0,7 0,0 Z"/></g><g transform="translate(18.1212,6)" id="g154"><path id="path156" style="fill:#77b255;fill-opacity:1;fill-rule:nonzero;stroke:none" d="M 0,0 1,0 C 0.723,0.402 0.36,0.76 -0.121,1 l -1,0 C -0.64,0.76 -0.277,0.402 0,0"/></g><g transform="translate(18,7)" id="g158"><path id="path160" style="fill:#3e721d;fill-opacity:1;fill-rule:nonzero;stroke:none" d="M 0,0 C 0.481,-0.24 0.844,-0.598 1.121,-1 L 6,-1 6,0 0,0 Z"/></g><g transform="translate(15.096,21.894)" id="g162"><path id="path164" style="fill:#af7e57;fill-opacity:1;fill-rule:nonzero;stroke:none" d="m 0,0 0,-5.929 c 0,-1.638 1.327,-2.965 2.965,-2.965 1.637,0 2.964,1.327 2.964,2.965 L 5.929,0 0,0 Z"/></g><g transform="translate(21.0253,23.3763)" id="g166"><path id="path168" style="fill:#9b6a49;fill-opacity:1;fill-rule:nonzero;stroke:none" d="m 0,0 -5.929,-0.028 0,-5.901 c 0,0 2.964,-1.483 5.929,0 L 0,0 Z"/></g><g transform="translate(24.3558,29)" id="g170"><path id="path172" style="fill:#af7e57;fill-opacity:1;fill-rule:nonzero;stroke:none" d="m 0,0 -12.59,1.757 0,-6.903 0,-0.001 c 0,-3.478 2.818,-6.294 6.295,-6.294 3.477,0 6.295,2.816 6.295,6.294 L 0,-5.146 0,0 Z"/></g><g transform="translate(20.5787,20.0767)" id="g174"><path id="path176" style="fill:#915a34;fill-opacity:1;fill-rule:nonzero;stroke:none" d="m 0,0 -2.518,0 -2.518,0 c 0,0 0,-1.259 2.518,-1.259 C 0,-1.259 0,0 0,0"/></g><g transform="translate(15.5425,24.4834)" id="g178"><path id="path180" style="fill:#662113;fill-opacity:1;fill-rule:nonzero;stroke:none" d="m 0,0 c 0,-0.348 -0.282,-0.629 -0.629,-0.629 -0.348,0 -0.63,0.281 -0.63,0.629 0,0.348 0.282,0.629 0.63,0.629 C -0.282,0.629 0,0.348 0,0"/></g><g transform="translate(21.8377,24.4834)" id="g182"><path id="path184" style="fill:#662113;fill-opacity:1;fill-rule:nonzero;stroke:none" d="m 0,0 c 0,-0.348 -0.281,-0.629 -0.629,-0.629 -0.348,0 -0.63,0.281 -0.63,0.629 0,0.348 0.282,0.629 0.63,0.629 C -0.281,0.629 0,0.348 0,0"/></g><g transform="translate(16.8015,22.5948)" id="g186"><path id="path188" style="fill:#915a34;fill-opacity:1;fill-rule:nonzero;stroke:none" d="m 0,0 1.259,0 1.259,0 c 0,0 0,-1.259 -1.259,-1.259 C 0,-1.259 0,0 0,0"/></g><g transform="translate(18.0002,34)" id="g190"><path id="path192" style="fill:#60352a;fill-opacity:1;fill-rule:nonzero;stroke:none" d="m 0,0 c 4.328,0 7.033,-3.221 7.033,-5.905 0,-2.683 -0.541,-3.758 -1.082,-2.683 -0.541,1.073 -1.082,2.146 -1.082,2.146 0,0 -3.246,0 -4.328,1.075 0,0 1.623,-3.221 -1.623,0 0,0 0.541,-2.148 -2.705,0.536 0,0 -1.623,-1.074 -2.164,-3.757 -0.15,-0.745 -1.082,0 -1.082,2.683 C -7.033,-3.221 -4.869,0 0,0"/></g></g></g><g id="g194"><g clip-path="url(#clipPath198)" id="g196"><g id="g202"><g id="g204"/><g id="g210"><g style="opacity:0.85000598" id="g212" clip-path="url(#clipPath206)"><g id="g214" transform="translate(11,1)"><path id="path216" style="fill:#f5f8fa;fill-opacity:1;fill-rule:nonzero;stroke:none" d="M 0,0 C 0,1.657 1.343,3 3,3 4.657,3 6,1.657 6,0 6,-1.657 4.657,-3 3,-3 1.343,-3 0,-1.657 0,0"/></g><g id="g218" transform="translate(7,4)"><path id="path220" style="fill:#f5f8fa;fill-opacity:1;fill-rule:nonzero;stroke:none" d="M 0,0 C 0,1.657 1.343,3 3,3 4.657,3 6,1.657 6,0 6,-1.657 4.657,-3 3,-3 1.343,-3 0,-1.657 0,0"/></g><g id="g222" transform="translate(6,8)"><path id="path224" style="fill:#f5f8fa;fill-opacity:1;fill-rule:nonzero;stroke:none" d="M 0,0 C 0,1.657 1.343,3 3,3 4.657,3 6,1.657 6,0 6,-1.657 4.657,-3 3,-3 1.343,-3 0,-1.657 0,0"/></g><g id="g226" transform="translate(1,10)"><path id="path228" style="fill:#f5f8fa;fill-opacity:1;fill-rule:nonzero;stroke:none" d="M 0,0 C 0,1.657 1.343,3 3,3 4.657,3 6,1.657 6,0 6,-1.657 4.657,-3 3,-3 1.343,-3 0,-1.657 0,0"/></g><g id="g230" transform="translate(-3,8)"><path id="path232" style="fill:#f5f8fa;fill-opacity:1;fill-rule:nonzero;stroke:none" d="M 0,0 C 0,1.657 1.343,3 3,3 4.657,3 6,1.657 6,0 6,-1.657 4.657,-3 3,-3 1.343,-3 0,-1.657 0,0"/></g><g id="g234" transform="translate(-1,9)"><path id="path236" style="fill:#f5f8fa;fill-opacity:1;fill-rule:nonzero;stroke:none" d="m 0,0 11,0 4,-8 0,-3 -15,0 0,11 z"/></g></g></g></g><g id="g238"><g id="g240"/><g id="g246"><g style="opacity:0.85000598" id="g248" clip-path="url(#clipPath242)"><g id="g250" transform="translate(25,-1)"><path id="path252" style="fill:#f5f8fa;fill-opacity:1;fill-rule:nonzero;stroke:none" d="m 0,0 c 0,1.657 -1.343,3 -3,3 -1.657,0 -3,-1.343 -3,-3 0,-1.657 1.343,-3 3,-3 1.657,0 3,1.343 3,3"/></g><g id="g254" transform="translate(28,2)"><path id="path256" style="fill:#f5f8fa;fill-opacity:1;fill-rule:nonzero;stroke:none" d="m 0,0 c 0,1.657 -1.343,3 -3,3 -1.657,0 -3,-1.343 -3,-3 0,-1.657 1.343,-3 3,-3 1.657,0 3,1.343 3,3"/></g><g id="g258" transform="translate(29,6)"><path id="path260" style="fill:#f5f8fa;fill-opacity:1;fill-rule:nonzero;stroke:none" d="m 0,0 c 0,1.657 -1.343,3 -3,3 -1.657,0 -3,-1.343 -3,-3 0,-1.657 1.343,-3 3,-3 1.657,0 3,1.343 3,3"/></g><g id="g262" transform="translate(32,9)"><path id="path264" style="fill:#f5f8fa;fill-opacity:1;fill-rule:nonzero;stroke:none" d="m 0,0 c 0,1.657 -1.343,3 -3,3 -1.657,0 -3,-1.343 -3,-3 0,-1.657 1.343,-3 3,-3 1.657,0 3,1.343 3,3"/></g><g id="g266" transform="translate(37,8)"><path id="path268" style="fill:#f5f8fa;fill-opacity:1;fill-rule:nonzero;stroke:none" d="m 0,0 c 0,1.657 -1.343,3 -3,3 -1.657,0 -3,-1.343 -3,-3 0,-1.657 1.343,-3 3,-3 1.657,0 3,1.343 3,3"/></g><g id="g270" transform="translate(37,9)"><path id="path272" style="fill:#f5f8fa;fill-opacity:1;fill-rule:nonzero;stroke:none" d="m 0,0 -11,0 -4,-8 0,-3 15,0 0,11 z"/></g></g></g></g></g></g></g></svg>
