<?xml version="1.0" encoding="UTF-8" standalone="no"?><svg xmlns:dc="http://purl.org/dc/elements/1.1/" xmlns:cc="http://creativecommons.org/ns#" xmlns:rdf="http://www.w3.org/1999/02/22-rdf-syntax-ns#" xmlns:svg="http://www.w3.org/2000/svg" xmlns="http://www.w3.org/2000/svg" viewBox="0 0 45 45" style="enable-background:new 0 0 45 45;" xml:space="preserve" version="1.1" id="svg2"><metadata id="metadata8"><rdf:RDF><cc:Work rdf:about=""><dc:format>image/svg+xml</dc:format><dc:type rdf:resource="http://purl.org/dc/dcmitype/StillImage"/></cc:Work></rdf:RDF></metadata><defs id="defs6"><clipPath id="clipPath16" clipPathUnits="userSpaceOnUse"><path id="path18" d="M 0,36 36,36 36,0 0,0 0,36 Z"/></clipPath></defs><g transform="matrix(1.25,0,0,-1.25,0,45)" id="g10"><g id="g12"><g clip-path="url(#clipPath16)" id="g14"><g transform="translate(35,19)" id="g20"><path id="path22" style="fill:#ffcc4d;fill-opacity:1;fill-rule:nonzero;stroke:none" d="m 0,0 c 0,-9.389 -7.611,-17 -17,-17 -9.388,0 -17,7.611 -17,17 0,9.388 7.612,17 17,17 C -7.611,17 0,9.388 0,0"/></g><g transform="translate(15,22.107)" id="g24"><path id="path26" style="fill:#664500;fill-opacity:1;fill-rule:nonzero;stroke:none" d="M 0,0 C 0,-1.934 -1.119,-3.5 -2.5,-3.5 -3.881,-3.5 -5,-1.934 -5,0 -5,1.933 -3.881,3.5 -2.5,3.5 -1.119,3.5 0,1.933 0,0"/></g><g transform="translate(31,22.5)" id="g28"><path id="path30" style="fill:#f5f8fa;fill-opacity:1;fill-rule:nonzero;stroke:none" d="m 0,0 c 0,-3.59 -2.91,-6.5 -6.5,-6.5 -3.59,0 -6.5,2.91 -6.5,6.5 0,3.59 2.91,6.5 6.5,6.5 C -2.91,6.5 0,3.59 0,0"/></g><g transform="translate(24.5,28)" id="g32"><path id="path34" style="fill:#67757f;fill-opacity:1;fill-rule:nonzero;stroke:none" d="m 0,0 c -3.032,0 -5.5,-2.467 -5.5,-5.5 0,-3.033 2.468,-5.5 5.5,-5.5 3.032,0 5.5,2.467 5.5,5.5 C 5.5,-2.467 3.032,0 0,0 m 0,-13 c -4.136,0 -7.5,3.364 -7.5,7.5 C -7.5,-1.364 -4.136,2 0,2 4.136,2 7.5,-1.364 7.5,-5.5 7.5,-9.636 4.136,-13 0,-13"/></g><g transform="translate(15.001,26.6069)" id="g36"><path id="path38" style="fill:#664500;fill-opacity:1;fill-rule:nonzero;stroke:none" d="m 0,0 c -0.304,0 -0.604,0.138 -0.801,0.4 -0.935,1.247 -1.915,1.916 -2.911,1.987 -1.313,0.089 -2.383,-0.895 -2.582,-1.094 -0.391,-0.391 -1.023,-0.391 -1.414,0 -0.391,0.391 -0.391,1.023 0,1.414 0.431,0.431 2.011,1.828 4.137,1.674 C -1.97,4.268 -0.5,3.332 0.799,1.6 1.13,1.158 1.041,0.531 0.599,0.2 0.419,0.065 0.208,0 0,0"/></g><g transform="translate(32,1)" id="g40"><path id="path42" style="fill:#292f33;fill-opacity:1;fill-rule:nonzero;stroke:none" d="m 0,0 c -0.553,0 -1,0.447 -1,1 l 0,20 c 0,0.552 0.447,1 1,1 0.553,0 1,-0.448 1,-1 L 1,1 C 1,0.447 0.553,0 0,0"/></g><g transform="translate(34,22)" id="g44"><path id="path46" style="fill:#67757f;fill-opacity:1;fill-rule:nonzero;stroke:none" d="m 0,0 c 0,-1.105 -0.895,-2 -2,-2 -1.105,0 -2,0.895 -2,2 0,1.105 0.895,2 2,2 1.105,0 2,-0.895 2,-2"/></g><g transform="translate(20.999,9)" id="g48"><path id="path50" style="fill:#664500;fill-opacity:1;fill-rule:nonzero;stroke:none" d="m 0,0 c -0.15,0 -0.303,0.034 -0.446,0.105 -1.718,0.86 -3.388,0.86 -5.106,0 -0.494,-0.246 -1.095,-0.046 -1.342,0.448 -0.247,0.494 -0.046,1.094 0.448,1.342 2.286,1.142 4.606,1.142 6.894,0 C 0.942,1.647 1.143,1.047 0.896,0.553 0.72,0.202 0.367,0 0,0"/></g><g transform="translate(27.4907,27.112)" id="g52"><path id="path54" style="fill:#bdddf4;fill-opacity:1;fill-rule:nonzero;stroke:none" d="m 0,0 c -0.861,0.56 -1.887,0.888 -2.991,0.888 -3.037,0 -5.5,-2.462 -5.5,-5.5 0,-1.104 0.329,-2.129 0.888,-2.991 L 0,0 Z"/></g><g transform="translate(22.153,17.5316)" id="g56"><path id="path58" style="fill:#bdddf4;fill-opacity:1;fill-rule:nonzero;stroke:none" d="m 0,0 c 0.713,-0.337 1.506,-0.532 2.347,-0.532 3.038,0 5.5,2.463 5.5,5.5 0,0.841 -0.194,1.635 -0.532,2.347 L 0,0 Z"/></g></g></g></g></svg>
