<?xml version="1.0" encoding="utf-8"?>
<!-- Generator: Adobe Illustrator 24.0.3, SVG Export Plug-In . SVG Version: 6.00 Build 0)  -->
<svg version="1.1" id="Layer_1" xmlns="http://www.w3.org/2000/svg" xmlns:xlink="http://www.w3.org/1999/xlink" x="0px" y="0px"
	 viewBox="0 0 128 128" style="enable-background:new 0 0 128 128;" xml:space="preserve">
<g id="hairGroup_3_">
	<path id="hair_4_" style="fill:#232020;" d="M85.59,49.74c-1.03-1.32-0.26-2.96,1.17-5.06c2.27-3.34,4.16-10.54,0.28-16.9
		c0.01-0.04-0.74-1.1-0.73-1.14l-1.15,0.13c-0.38,0.01-12.93,2.03-25.48,4.08s-25.1,4.13-25.46,4.24c0,0-1.49,1.52-1.47,1.55
		c-1.66,7.27,2.42,13.48,5.64,15.93c2.03,1.54,3.28,2.85,2.72,4.42c-0.54,1.53-2.8,2.11-2.8,2.11s0.76,1.35,2.17,1.92
		c1.3,0.52,2.78,0.46,3.78,0.32c0,0,4.81,4.78,15.05,3.11l5.7-0.93l5.7-0.93c10.24-1.67,13.28-7.74,13.28-7.74
		c1-0.19,2.42-0.59,3.49-1.5c1.15-0.98,1.44-2.51,1.44-2.51S86.59,51.02,85.59,49.74z"/>
	<g id="hairHighlights_3_">
		
			<radialGradient id="SVGID_1_" cx="106.9199" cy="92.3385" r="15.1203" gradientTransform="matrix(0.9869 -0.1613 0.0792 0.4848 -39.944 25.8015)" gradientUnits="userSpaceOnUse">
			<stop  offset="0.7275" style="stop-color:#444140;stop-opacity:0"/>
			<stop  offset="1" style="stop-color:#444140"/>
		</radialGradient>
		<path style="fill:url(#SVGID_1_);" d="M65.01,63.54l-0.98-6.02L82,53.1l1.99,1.77c0,0-3.03,6.06-13.28,7.74L65.01,63.54z"/>
		
			<radialGradient id="SVGID_2_" cx="92.028" cy="94.5865" r="4.4684" gradientTransform="matrix(-0.8255 0.5644 -0.4187 -0.6124 202.8 54.6917)" gradientUnits="userSpaceOnUse">
			<stop  offset="0.6628" style="stop-color:#444140"/>
			<stop  offset="1" style="stop-color:#444140;stop-opacity:0"/>
		</radialGradient>
		<path style="fill:url(#SVGID_2_);" d="M83.52,52.25c-3.41-3.7,2.39-6.23,2.39-6.23s0,0,0.01,0c-0.84,1.48-1.13,2.7-0.33,3.72
			c1,1.28,3.33,1.11,3.33,1.11S86.24,54.14,83.52,52.25z"/>
		
			<radialGradient id="SVGID_3_" cx="103.6085" cy="107.2274" r="19.6271" gradientTransform="matrix(-0.2345 -0.9721 0.8102 -0.1954 11.1738 159.7677)" gradientUnits="userSpaceOnUse">
			<stop  offset="0.7247" style="stop-color:#444140;stop-opacity:0"/>
			<stop  offset="1" style="stop-color:#444140"/>
		</radialGradient>
		<path style="fill:url(#SVGID_3_);" d="M87.06,27.78c3.78,6.16,2.04,13.41-0.15,16.71c-0.3,0.45-1.61,2.23-1.76,3.51
			c0,0-7.47-7.49-10.1-12.17c-0.53-0.95-1.03-1.93-1.25-2.99c-0.16-0.8-0.19-1.77,0.15-2.53c0.43-0.93,12.67-3.18,12.67-3.18
			C86.62,27.14,87.06,27.78,87.06,27.78z"/>
		
			<radialGradient id="SVGID_4_" cx="49.1731" cy="107.2274" r="19.6271" gradientTransform="matrix(-0.0872 -0.9962 -0.8303 0.0727 141.9679 83.3886)" gradientUnits="userSpaceOnUse">
			<stop  offset="0.7247" style="stop-color:#444140;stop-opacity:0"/>
			<stop  offset="1" style="stop-color:#444140"/>
		</radialGradient>
		<path style="fill:url(#SVGID_4_);" d="M32.76,36.65c-1.63,7.04,2.33,13.37,5.47,15.79c0.43,0.33,2.23,1.6,2.78,2.76
			c0,0,4.69-9.47,5.7-14.75c0.2-1.07,0.37-2.16,0.24-3.23c-0.1-0.81-0.38-1.74-0.95-2.35c-0.7-0.74-1.33-0.41-2.29-0.26
			c-1.84,0.3-9.94,1.14-10.57,1.25C33.13,35.88,32.76,36.65,32.76,36.65z"/>
		
			<radialGradient id="SVGID_5_" cx="52.4845" cy="92.3385" r="15.1203" gradientTransform="matrix(-0.9869 0.1613 0.0792 0.4848 98.8034 3.127)" gradientUnits="userSpaceOnUse">
			<stop  offset="0.7275" style="stop-color:#444140;stop-opacity:0"/>
			<stop  offset="1" style="stop-color:#444140"/>
		</radialGradient>
		<path style="fill:url(#SVGID_5_);" d="M65.04,63.53l-0.98-6.02l-18.44,1.53l-1.32,2.31c0,0,4.81,4.78,15.05,3.11L65.04,63.53z"/>
		
			<radialGradient id="SVGID_6_" cx="37.5926" cy="94.5865" r="4.4684" gradientTransform="matrix(0.9622 0.2722 0.2019 -0.7138 -16.0107 113.8245)" gradientUnits="userSpaceOnUse">
			<stop  offset="0.6628" style="stop-color:#444140"/>
			<stop  offset="1" style="stop-color:#444140;stop-opacity:0"/>
		</radialGradient>
		<path style="fill:url(#SVGID_6_);" d="M43.9,58.72c2.05-4.59-4.25-5.14-4.25-5.14s0,0-0.01,0.01c1.27,1.13,1.93,2.2,1.5,3.42
			c-0.54,1.53-2.8,2.11-2.8,2.11S41.92,61.39,43.9,58.72z"/>
	</g>
</g>
<g id="shirt_6_">
	
		<linearGradient id="SVGID_7_" gradientUnits="userSpaceOnUse" x1="62.2498" y1="50.2931" x2="62.2498" y2="8.7108" gradientTransform="matrix(1 0 0 -1 0 128)">
		<stop  offset="0" style="stop-color:#F78C1F"/>
		<stop  offset="1" style="stop-color:#ED6D23"/>
	</linearGradient>
	<path style="fill:url(#SVGID_7_);" d="M101.26,123.96c-4.33,0-40.46,0.04-45.29,0.04s-8.11-0.39-9.62-0.67
		c-7.08-1.29-14.76-2.53-20.62-6.58c-4.48-3.09-9.13-8.83-4.49-18.98c6.47-14.92,12.14-29.64,25.4-31.52
		c4.44-0.63,10.97-0.56,18.3-0.56s12.16,1.21,15.22,1.88c21.85,4.79,22.77,21.98,24.77,40.68
		C104.93,108.25,106.64,123.96,101.26,123.96z"/>
</g>
<g id="neck_1_">
	<path style="fill:#3C2B24;" d="M64.74,59.63h-7.17v7.88c0,3.56,2.92,6.45,6.52,6.45h1.3c3.6,0,6.52-2.89,6.52-6.45v-7.88
		C71.91,59.63,64.74,59.63,64.74,59.63z"/>
</g>
<linearGradient id="shadow_x5F_body_2_" gradientUnits="userSpaceOnUse" x1="78.1582" y1="-17.5629" x2="78.1582" y2="54.2652" gradientTransform="matrix(1 0 0 -1 0 128)">
	<stop  offset="0" style="stop-color:#212121;stop-opacity:0.8"/>
	<stop  offset="1" style="stop-color:#212121;stop-opacity:0"/>
</linearGradient>
<path id="shadow_x5F_body_1_" style="fill:url(#shadow_x5F_body_2_);" d="M101.73,109.32c-6.13-10.97-7.86-12.56-8.72-14.48
	c-1.43-3.21-2.86-4.48-3.93-4.94c-0.12-1.22-0.42-2.69-0.83-4.48c0.63-0.43,1.12-1.03,1.41-1.75c0.37-0.94,0.35-1.97-0.05-2.9
	l-3.12-7.15c-0.4-0.93-32.52,12.8-32.52,12.8c-1.05,1.75-1.45,3.29-0.13,6.17c0.77,1.68,2.53,3.04,2.9,2.88l3.01-1.14h0
	c0.42,0.62,1.02,1.1,1.74,1.38c0.28,0.11,1.41,0.41,2.9-0.05l7.83-3.33c0,0,0,0,0,0c1.08,1.59,2.7,1.77,3.76,1.68
	c0,0,0.84,2.53,3.08,3.65c-1.05,1.65,0.71,4.72,1.7,6.68c1.53,3.02-1.87,14.28-0.67,19.65l21.19,0.1
	C102.94,120.72,104.67,114.57,101.73,109.32z"/>
<g id="bottle_2_">
	
		<linearGradient id="SVGID_8_" gradientUnits="userSpaceOnUse" x1="82.942" y1="50.7802" x2="57.0318" y2="38.4093" gradientTransform="matrix(1 0 0 -1 0 128)">
		<stop  offset="0" style="stop-color:#81D4FA"/>
		<stop  offset="1" style="stop-color:#0288D1"/>
	</linearGradient>
	<path style="fill:url(#SVGID_8_);" d="M92.84,77.56l-3.12-7.15c-0.4-0.93-1.15-1.64-2.09-2.01c-0.94-0.37-1.97-0.35-2.9,0.05
		l-23.27,9.9c-1.91,0.83-2.79,3.07-1.96,4.98l3.12,7.15c0.4,0.93,1.15,1.64,2.09,2.01c0.28,0.11,0.56,0.18,0.85,0.23
		c0.69,0.1,1.39,0,2.05-0.28l23.27-9.9l0,0c0.93-0.4,1.64-1.15,2.01-2.09C93.27,79.51,93.25,78.49,92.84,77.56z"/>
	<path style="fill:#FFFDE7;" d="M60.72,78.79c-1.3,0.61-1.93,2.72-1.31,4.13l3.57,8.2c0.62,1.41,3.2,2.03,4.61,1.41l23.29-9.99
		L60.72,78.79z"/>
	<path style="fill:#C53929;" d="M57.72,85.15c0.48-0.13,1.11-0.07,1.4,0.32c0.33,0.45,0.56,1.16,0.8,1.68
		c0.41,0.9,0.68,1.84,0.66,2.83c0,0.11-0.01,0.24-0.1,0.32c-0.06,0.06-0.15,0.08-0.24,0.1c-0.54,0.11-1.1,0.15-1.65,0.13
		c-1.1-0.04-1.68-1.01-2.02-1.96c-0.21-0.6-0.31-1.24-0.19-1.86c0.13-0.62,0.51-1.2,1.07-1.48C57.54,85.21,57.62,85.18,57.72,85.15z
		"/>
	<path style="fill:#E06055;" d="M62.98,91.12l-1.1,0.48c-0.74,0.32-1.66,0.14-2.2-0.46c-0.52-0.58-0.48-1.37-0.59-2.12
		c-0.14-0.98-0.49-1.87-1.14-2.49c-0.19-0.18-0.42-0.33-0.6-0.52c-0.81-0.87-0.12-2.44,0.84-2.86c0,0,1.1-0.48,1.1-0.48
		c1.05-0.46,2.97,0.43,4.11,3.2C64.54,88.62,64.03,90.66,62.98,91.12z"/>
</g>
<g id="baby_1_">
	<g>
		<path style="fill:#C5E1A5;" d="M55.01,93.21c-0.61,5.16-4.88,9.56-9.81,10.89c-5.22,1.42-11.79-1.59-15.02-6.11
			c-6.03-8.42,0.41-15.43,1.79-17c3.44-3.9,8.52-3.83,12.54-3.58C52.75,77.92,55.85,86.18,55.01,93.21z"/>
	</g>
	<path style="fill:#FEF6E0;" d="M43.17,75.79c-2.08,0.02-5.26,0.21-7.51,1.53c-1.01,0.6-1.33,1.64-1.33,1.64
		c2.7-1.03,5.43-1.22,8.81,0.02c6.35,2.33,7.42,7.71,6.88,14.47c-0.39,4.89-3.63,8.85-7.57,10.11c-1.84,0.59-1.68,1.48,0.72,1.65
		c8.65,0.6,14.71-6.59,14.71-14.71C57.88,82.38,52.46,75.7,43.17,75.79z"/>
	<g>
		<path style="fill:#BDBDBD;" d="M58.52,96.25c12.38,1.19,15.96,8.12,15.96,8.12c12.41,2.75,15.66,11,14.67,14.74
			c0,0-5.68,3.34-9.22,3.41c-5.11,0.11-10.24,0.16-15.33-0.07c0,0,0.78-5.66-1.08-7.3c-1.13-0.99-3.08,0.01-4.96-1.1
			c-3.15-1.86-7.96-4.71-12-6.9c-4.02-2.18-7.55-3.17-7.55-3.17C42.6,99.8,49.03,95.34,58.52,96.25z"/>
	</g>
	
		<linearGradient id="SVGID_9_" gradientUnits="userSpaceOnUse" x1="57.8753" y1="5.8602" x2="57.8753" y2="47.7207" gradientTransform="matrix(1 0 0 -1 0 128)">
		<stop  offset="0.1003" style="stop-color:#212121;stop-opacity:0.4"/>
		<stop  offset="1" style="stop-color:#252525;stop-opacity:0"/>
	</linearGradient>
	<path style="fill:url(#SVGID_9_);" d="M28.66,86c0,0,0.94,6.67,7.23,7.94c8.62,1.74,14.32-2.39,14.32-2.39s0.6,1.05,2.22,0.66
		c1.3-0.31,4.01-1.01,4.6-2c0.79-1.31,0.65-2.45,0.65-2.45c-0.04,0.46,0.12,1.01,0.14,1.48c0.06,1.25,0.01,2.52-0.18,3.76
		c-0.19,1.26-0.83,3.12-0.83,3.12c-1.81,0.5-3.56,2.71-2.48,5.71c2.4,6.61,8.86,10.5,15.36,10.11c2.8-0.17,5.54-0.81,8.28-1.38
		c0.48-0.1,1.14-0.31,1.42,0.08c1.12,1.56-1.49,4.17-2.22,4.96c5.44,2.89,11.43,0.13,11.69,0.17s-3.04,3.68-9.12,3.68
		c-2.88,0-5.61-1.11-8.37-1.83c-2.7-0.71-5.98,0.09-7.61-2.19c-0.99-1.38-3.36-0.31-5.08-1.29c-3.38-1.94-11.33-6.85-15.13-8.44
		c-3.24-1.35-3.93-1.54-5.19-1.89c-4.09-1.14-7.83,1.72-10.95-2.49c-1.75-2.36,1.06-6.37,1.06-6.37C26.57,90.38,28.66,86,28.66,86z"
		/>
</g>
<g id="shirt_2_">
	
		<linearGradient id="SVGID_10_" gradientUnits="userSpaceOnUse" x1="91.6947" y1="29.1126" x2="101.028" y2="6.2793" gradientTransform="matrix(1 0 0 -1 0 128)">
		<stop  offset="0" style="stop-color:#F78C1F"/>
		<stop  offset="1" style="stop-color:#ED6D23"/>
	</linearGradient>
	<path style="fill:url(#SVGID_10_);" d="M83.37,93.62c-2.92,1.13-0.58,5.14,0.62,7.51c1.76,3.46,3.04,13.41,5.37,17.38
		c3.18,5.42,11.6,6.95,15.25,4.34c3.02-2.16,4.05-10.16,0.37-16.75c-6.13-10.97-7.86-12.56-8.72-14.48
		c-2.84-6.38-5.69-5.08-5.69-5.08L83.37,93.62z"/>
</g>
<linearGradient id="hand_1_" gradientUnits="userSpaceOnUse" x1="62.512" y1="10.7608" x2="90.095" y2="10.7608" gradientTransform="matrix(1 0 0 -1 0 128)">
	<stop  offset="0" style="stop-color:#5C4037"/>
	<stop  offset="0.5" style="stop-color:#70534A"/>
</linearGradient>
<path id="hand_3_" style="fill:url(#hand_1_);" d="M90.1,116.71c0-0.64-0.23-1.34-1.79-0.72c-3.95,1.57-7.07,2.7-11.52,0.94
	c0.47,0.41,5.95-4.21,2.75-6.51c-1.37-0.49-4.27,2.69-7.14,2.9c-2.88-0.11-6.39-0.17-8.88,2.38l-1,8.29c2.56,0,14.73,0.37,19.5-0.29
	l0,0C84.83,122.97,89.48,120.72,90.1,116.71z"/>
<g id="hand_2_">
	
		<linearGradient id="hand_x5F_fill_2_" gradientUnits="userSpaceOnUse" x1="97.1614" y1="-46.7966" x2="83.9639" y2="-30.6358" gradientTransform="matrix(0.9898 0.1426 0.1426 -0.9898 0.3788 34.9942)">
		<stop  offset="0" style="stop-color:#5C4037"/>
		<stop  offset="0.5" style="stop-color:#70534A"/>
	</linearGradient>
	<path id="hand_x5F_fill_1_" style="fill:url(#hand_x5F_fill_2_);" d="M78.99,69.97c-0.89-0.13-2.54-0.08-2.86,0.75
		c-0.64,1.63,1.12,2.55,2.3,2.85c1.84,0.47,3.85,0.87,3.85,0.87L84,77.37c0,0-3.77-1.09-5.5-1.13c-2.2-0.05-4.91,1.11-6.55,1.79
		c-2.03,0.83-0.56,3.13,1.6,3.09c1.83-0.04,3.94-0.85,3.94-0.85l2.55,1c-1.08,0.07-4.01,0.28-4.62,2.03
		C74.75,85.23,76,86.84,76,86.84s-0.78,1.03,0,2.69c0.63,1.33,2.52,2.4,4.33,2.43c0.93,2.88,3.39,3.41,4.79,3.39
		c2.97-0.03,5.41-1.86,6.47-4c1.26-2.56,1.57-5.97-0.7-11.1c-1.33-3-3.63-7.71-5.63-8.66C82.79,70.42,82.49,70.5,78.99,69.97z"/>
	<path id="tone_2_" style="fill:#4A2F27;" d="M78.88,91.72c0.47,0.14,0.96,0.23,1.45,0.24c0.38,1.19,1.03,1.96,1.76,2.48
		c-0.28-0.31-0.78-1.22-0.83-1.42c-0.28-1.27-0.03-1.81,0.38-2.58c0.41-0.77,0.39-1.32,0.08-1.56c-0.37-0.29-2.04,0.26-2.43,0.29
		c0,0,1.1,1.06,0.63,1.86C79.68,91.41,79.26,91.62,78.88,91.72z"/>
	<path id="tone_1_" style="fill:#4A2F27;" d="M76,86.84c0,0,1.76-1.95,6.1-1.67c0,0-1.32-0.9-3.22-0.65
		C76.65,84.82,76,86.84,76,86.84z"/>
	<path id="tone" style="fill:#4A2F27;" d="M80.04,81.26l2.62-0.03c0,0-1.71-0.6-2.69-0.78c-0.98-0.17-2.48-0.19-2.48-0.19
		L80.04,81.26z"/>
</g>
<g id="ears_1_">
	<path style="fill:#3C2B24;" d="M77.36,32.28L72.77,33l-24.83,3.92l-4.58,0.72c-3.67,0.58-6.16,4.25-5.54,8.15s4.12,6.63,7.79,6.05
		l4.58-0.72l24.83-3.92l4.58-0.72c3.67-0.58,6.16-4.25,5.54-8.15S81.03,31.7,77.36,32.28z"/>
</g>
<path id="head_1_" style="fill:#70534A;" d="M82,34.02C79.16,20,68.79,13.47,60.69,12.34c-1.14-0.16-2.22-0.21-3.24-0.17
	c-0.72,0.03-1.4,0.11-2.03,0.24c-1.54,0.31-3.2,0.98-4.86,1.98c-7.02,4.2-14.04,14.27-11.19,28.31
	c3.17,15.67,13.1,22.22,23.11,21.78c1.14-0.05,2.28-0.19,3.43-0.42C76.97,61.79,85.55,51.48,82,34.02z"/>
<g id="eyebrows_1_">
	<path style="fill:#1A1717;" d="M54.32,35.15c-0.73-0.7-2.3-1.64-5-1.22c-2.7,0.42-3.91,1.8-4.38,2.69
		c-0.21,0.39-0.08,0.79,0.14,1.01c0.21,0.2,0.74,0.33,1.27,0.06s1.53-1.01,3.35-1.31c1.83-0.27,3.01,0.12,3.59,0.22
		s1.06-0.19,1.19-0.44C54.63,35.88,54.64,35.47,54.32,35.15z"/>
	<path style="fill:#1A1717;" d="M75.4,31.84c-0.73-0.7-2.3-1.64-5-1.22c-2.7,0.42-3.91,1.8-4.38,2.69
		c-0.21,0.39-0.08,0.79,0.14,1.01c0.21,0.2,0.75,0.33,1.27,0.06s1.53-1.01,3.35-1.31c1.83-0.27,3.01,0.12,3.59,0.22
		c0.59,0.1,1.06-0.19,1.19-0.44C75.72,32.57,75.72,32.15,75.4,31.84z"/>
</g>
<path id="mouth_1_" style="fill:#1A1717;" d="M68.25,50.46C66.4,52,59.7,53.05,57.47,52.16c-1.28-0.51-2.31,0.74-1.66,1.73
	c0.64,0.97,4.68,2.83,7.83,2.33c3.16-0.5,6.38-3.49,6.69-4.62C70.66,50.46,69.31,49.58,68.25,50.46z"/>
<path id="nose_1_" style="fill:#33251F;" d="M64.3,44.38c-0.07-0.02-0.14-0.02-0.21-0.02l-4.53,0.71c-0.07,0.02-0.13,0.05-0.2,0.08
	c-0.38,0.23-0.54,0.69-0.28,1.12s1.37,1.55,3.19,1.27c1.82-0.29,2.52-1.7,2.64-2.19C65.03,44.87,64.73,44.48,64.3,44.38z"/>
<g id="eyes_1_">
	<path style="fill:#1A1717;" d="M50.62,42.71c-1.33,0.21-2.58,0.07-3.49-0.31c-0.39-0.17-0.58,0-0.45,0.4
		c0.5,1.57,2.33,2.56,4.31,2.25c1.98-0.31,3.42-1.81,3.41-3.46c0-0.42-0.23-0.53-0.55-0.25C53.1,41.99,51.95,42.5,50.62,42.71z"/>
	<path style="fill:#1A1717;" d="M71.78,39.38c-1.33,0.21-2.58,0.07-3.49-0.31c-0.39-0.17-0.58,0-0.45,0.4
		c0.5,1.57,2.33,2.56,4.31,2.25c1.98-0.31,3.42-1.81,3.41-3.46c0-0.42-0.23-0.53-0.55-0.25C74.25,38.66,73.11,39.17,71.78,39.38z"/>
</g>
<g id="hairGroup_2_">
	<path id="hair_1_" style="fill:#232020;" d="M83.19,14.32c-1.94-2.1-5.94-4.68-9.1-4.38C73.1,7.02,69.46,5,66.18,4.52
		c-8.87-1.29-13.86,2.6-16.55,4.69c-0.56,0.44-4.15,3.27-7.18,2.15c-1.9-0.7-2.3-3.38-2.3-3.38s-5.09,2.96-2.29,8.42
		c-1.85,0.38-4.17,1.57-5.04,4.4c-1.03,3.37-0.06,5.89,0.59,7.07c-1.38,1.62-2.93,4.86-0.93,8.4c1.51,2.67,5.88,3.29,5.88,3.29
		c0.54,5.15,2.01,8.14,2.72,9.33c0.12,0.21,0.44,0.14,0.46-0.1c0.22-2.63,0.93-11.79,0.46-13.3c0,0,6.99-2.62,13.06-8.82
		c1.24-1.26,2.61-2.39,4.12-3.3c8.09-4.86,10.87,0.72,10.87,0.72s5.81-2.13,8.99,5.91c1.19,3.01,2.47,7.94,3.43,11.37
		c0.07,0.24,0.41,0.24,0.47-0.01c0.38-1.49,1.14-4.44,0.97-7.3c-0.06-1.01,2.39-2.75,2.84-7.18C87.37,20.97,84.59,15.84,83.19,14.32
		z"/>
	<g id="hairHighlights_2_">
		
			<radialGradient id="SVGID_11_" cx="73.5194" cy="117.5808" r="23.0061" gradientTransform="matrix(0.457 0.8894 0.6599 -0.3391 -40.1858 2.5344)" gradientUnits="userSpaceOnUse">
			<stop  offset="0.6985" style="stop-color:#444140;stop-opacity:0"/>
			<stop  offset="1" style="stop-color:#444140"/>
		</radialGradient>
		<path style="fill:url(#SVGID_11_);" d="M83.9,34.09c-0.06-1.01,2.39-2.75,2.84-7.18c0.05-0.47,0.08-0.95,0.1-1.42
			c0.09-5.31-2.36-9.77-3.65-11.16c-1.79-1.94-5.35-4.29-8.37-4.4c-0.26,0.01-0.51,0.02-0.75,0.04c0,0,0.43,1.33,0.06,2.52
			c-0.48,1.53-1.89,2.11-1.89,2.11C81.12,20.98,81.61,27.45,83.9,34.09z"/>
		
			<radialGradient id="SVGID_12_" cx="51.0905" cy="142.6663" r="6.032" gradientTransform="matrix(0.946 0.3243 0.3845 -1.1216 -58.3593 150.3636)" gradientUnits="userSpaceOnUse">
			<stop  offset="0.58" style="stop-color:#444140"/>
			<stop  offset="1" style="stop-color:#444140;stop-opacity:0"/>
		</radialGradient>
		<path style="fill:url(#SVGID_12_);" d="M51.32,7.94c-0.64,0.45-1.2,0.89-1.69,1.26c-0.56,0.44-4.15,3.27-7.18,2.15
			c-1.86-0.69-2.28-3.28-2.3-3.37c-0.62,1.13-1.83,8.66,5.19,8c3.02-0.28,4.44-3.19,5.17-5.58C50.78,9.55,51.21,8.28,51.32,7.94z"/>
		
			<radialGradient id="SVGID_13_" cx="135.7859" cy="49.5803" r="18.5436" gradientTransform="matrix(-0.9892 -0.238 -0.1301 0.5567 200.6585 20.2698)" gradientUnits="userSpaceOnUse">
			<stop  offset="0.6985" style="stop-color:#444140;stop-opacity:0"/>
			<stop  offset="1" style="stop-color:#444140"/>
		</radialGradient>
		<path style="fill:url(#SVGID_13_);" d="M65.27,4.4c4.87,0.5,7.53,2.5,8.81,5.55c0.38,0.89,2.06,9.53-16.12,2.37
			c-6.76-2.66-5.45-5.23-4.78-5.61C55.84,5.23,59.81,3.84,65.27,4.4z"/>
		
			<radialGradient id="SVGID_14_" cx="48.6686" cy="137.1629" r="5.5367" gradientTransform="matrix(0.9869 -0.1613 -0.1973 -1.2073 22.3537 186.1824)" gradientUnits="userSpaceOnUse">
			<stop  offset="0.7016" style="stop-color:#444140;stop-opacity:0"/>
			<stop  offset="1" style="stop-color:#444140"/>
		</radialGradient>
		<path style="fill:url(#SVGID_14_);" d="M40.14,7.99C40.13,8,40.12,8.01,40.1,8.02c0,0,0,0,0,0c-0.55,0.35-4.86,3.27-2.24,8.38
			l5.09-0.01c-5.11-3.73-2.8-8.41-2.8-8.41S40.14,7.99,40.14,7.99z"/>
		
			<radialGradient id="SVGID_15_" cx="47.9068" cy="127.3899" r="10.3842" gradientTransform="matrix(-0.9949 -0.1007 -0.0942 0.9311 103.8109 -91.2845)" gradientUnits="userSpaceOnUse">
			<stop  offset="0.6605" style="stop-color:#444140;stop-opacity:0"/>
			<stop  offset="1" style="stop-color:#444140"/>
		</radialGradient>
		<path style="fill:url(#SVGID_15_);" d="M41.01,16.39l-3.14,0.01c-0.12,0.02-0.52,0.12-0.74,0.19c-1.69,0.52-3.57,1.75-4.3,4.21
			c-0.78,2.65-0.4,4.76,0.15,6.11c0.17,0.46,0.45,0.96,0.45,0.96s1.28-1.69,4.88-2.37L41.01,16.39z"/>
		
			<radialGradient id="SVGID_16_" cx="45.4433" cy="117.3632" r="10.9021" gradientTransform="matrix(0.9997 -0.0253 -0.0355 -1.4048 2.0709 198.8173)" gradientUnits="userSpaceOnUse">
			<stop  offset="0.5981" style="stop-color:#444140;stop-opacity:0"/>
			<stop  offset="1" style="stop-color:#444140"/>
		</radialGradient>
		<path style="fill:url(#SVGID_16_);" d="M33.29,28.02c-1.29,1.59-2.84,4.91-0.73,8.37c1.59,2.61,5.81,3.17,5.81,3.17
			c0,0.01,0.85,0.12,1.26,0.05L38.29,25.5c-1.93,0.32-3.69,1.2-4.75,2.23C33.55,27.75,33.28,28,33.29,28.02z"/>
	</g>
</g>
</svg>
