<?xml version="1.0" encoding="UTF-8" standalone="no"?><svg xmlns:dc="http://purl.org/dc/elements/1.1/" xmlns:cc="http://creativecommons.org/ns#" xmlns:rdf="http://www.w3.org/1999/02/22-rdf-syntax-ns#" xmlns:svg="http://www.w3.org/2000/svg" xmlns="http://www.w3.org/2000/svg" viewBox="0 0 45 45" style="enable-background:new 0 0 45 45;" xml:space="preserve" version="1.1" id="svg2"><metadata id="metadata8"><rdf:RDF><cc:Work rdf:about=""><dc:format>image/svg+xml</dc:format><dc:type rdf:resource="http://purl.org/dc/dcmitype/StillImage"/></cc:Work></rdf:RDF></metadata><defs id="defs6"><clipPath id="clipPath16" clipPathUnits="userSpaceOnUse"><path id="path18" d="M 0,36 36,36 36,0 0,0 0,36 Z"/></clipPath></defs><g transform="matrix(1.25,0,0,-1.25,0,45)" id="g10"><g id="g12"><g clip-path="url(#clipPath16)" id="g14"><g transform="translate(32.75,0)" id="g20"><path id="path22" style="fill:#66757f;fill-opacity:1;fill-rule:nonzero;stroke:none" d="m 0,0 -28.75,0 c -2.209,0 -4,1.791 -4,4 l 0,28 c 0,2.209 1.791,4 4,4 l 15.042,0 c 0,0 4.849,-0.569 4.541,-2 -0.351,-1.634 -2.454,-6.896 -2.541,-7.708 -0.174,-1.62 4.734,-4.394 4.5,-6.292 -0.734,-5.934 -3.5,-8.25 -2.505,-11.305 C -9.587,8.308 -6.034,7.977 -5.125,7.5 0.25,4.682 0.208,0 0,0"/></g><g transform="translate(30,0)" id="g24"><path id="path26" style="fill:#99aab5;fill-opacity:1;fill-rule:nonzero;stroke:none" d="m 0,0 -26,0 c -2.209,0 -4,1.791 -4,4 l 0,28 c 0,2.209 1.791,4 4,4 l 7.167,0 c 0,0 8.955,-0.862 8.843,-2.062 -0.174,-1.852 -3.64,-7.717 -2.51,-8.813 1.13,-1.096 4.432,-3.794 4.571,-5.542 C -7.75,17.339 -12.213,11.284 -9.846,6.28 -9.091,4.681 -4.785,5.323 -3.518,4.427 -0.356,2.193 0.304,0 0,0"/></g><g transform="translate(29.759,6.1815)" id="g28"><path id="path30" style="fill:#292f33;fill-opacity:1;fill-rule:nonzero;stroke:none" d="M 0,0 C 0,0 0.404,-0.278 1.516,-0.666 1.959,-0.82 1.472,-2.506 1.211,-2.746 0.951,-2.986 -0.976,-3.373 -2.716,-2.844 -4.31,-2.36 -3.121,-1.906 -1.972,-1.651 -0.822,-1.396 0,0 0,0"/></g><g transform="translate(28.3129,21.6835)" id="g32"><path id="path34" style="fill:#e2c196;fill-opacity:1;fill-rule:nonzero;stroke:none" d="m 0,0 c -1.108,-0.471 -2.32,-0.982 -2.873,-0.817 -0.416,0.124 -1.235,0.382 -1.887,0.379 -0.651,-0.002 -0.759,-0.342 -0.325,-1.021 0.435,-0.679 1.324,-1.039 2.032,-0.823 0.708,0.216 2.276,0.291 3.233,0.317 C 1.137,-1.939 1.873,0.796 0,0"/></g><g transform="translate(27.8503,21.3858)" id="g36"><path id="path38" style="fill:#e2c196;fill-opacity:1;fill-rule:nonzero;stroke:none" d="M 0,0 C 0.484,0.258 1.333,0.391 1.333,0.391 L 2.262,2.662 4.743,1.026 c 0,0 -1.65,-1.933 -2.05,-2.355 C 2.293,-1.75 0.9,-1.746 -0.204,-1.7 -1.037,-1.664 -0.541,-0.288 0,0"/></g><g transform="translate(29.8218,9.8285)" id="g40"><path id="path42" style="fill:#e2c196;fill-opacity:1;fill-rule:nonzero;stroke:none" d="M 0,0 C 0,0 -2.739,1.872 -2.937,1.076 -3.136,0.28 -0.685,-1.832 -0.091,-3.812 0.149,-4.611 1.588,-5.475 1.606,-3.891 1.636,-1.156 0,0 0,0"/></g><g transform="translate(27.1622,10.4994)" id="g44"><path id="path46" style="fill:#e2c196;fill-opacity:1;fill-rule:nonzero;stroke:none" d="M 0,0 C 0,0 0.88,-1.752 1.766,-1.567 2.652,-1.383 4.985,1.438 5.687,2.508 6.388,3.578 6.105,6.179 4.519,4.925 2.932,3.67 0,0 0,0"/></g><g transform="translate(34.2248,14.0637)" id="g48"><path id="path50" style="fill:#2a6797;fill-opacity:1;fill-rule:nonzero;stroke:none" d="M 0,0 -6.368,-0.814 -3.193,-3.707 0,0 Z"/></g><g transform="translate(27.6224,13.8682)" id="g52"><path id="path54" style="fill:#f3d2a2;fill-opacity:1;fill-rule:nonzero;stroke:none" d="m 0,0 c 0,0 -2.369,-2.157 -2.583,-3.02 -0.215,-0.862 0.003,-3.663 -0.642,-6.25 -0.644,-2.586 1.08,-3.016 1.294,-2.154 0.215,0.862 2.652,4.022 1.857,5.917 -0.385,0.916 2.231,3.138 2.231,3.138 L 0,0 Z"/></g><g transform="translate(29.8073,16.7344)" id="g56"><path id="path58" style="fill:#357baa;fill-opacity:1;fill-rule:nonzero;stroke:none" d="m 0,0 c -1.291,-0.84 -1.944,-2.066 -3.733,-4.052 0.355,-0.378 2.395,-2.554 2.395,-2.554 0,0 6.032,2.286 6.952,5.358 C 6.408,1.401 4.123,2.895 4.123,2.895 4.123,2.895 1.233,0.802 0,0"/></g><g transform="translate(32.9316,28.4067)" id="g60"><path id="path62" style="fill:#f3d2a2;fill-opacity:1;fill-rule:nonzero;stroke:none" d="M 0,0 -0.245,-2.329 -2.919,-1.9 -2.91,0.122 0,0 Z"/></g><g transform="translate(33.4343,28.33)" id="g64"><path id="path66" style="fill:#f3d2a2;fill-opacity:1;fill-rule:nonzero;stroke:none" d="m 0,0 c -0.954,-1.243 -2.435,-1.138 -3.838,-0.894 -1.338,0.233 -1.093,2.671 -0.44,4.083 0.658,1.422 2.83,1.498 3.959,0.631 C 0.811,2.953 0.954,1.243 0,0"/></g><g transform="translate(25.1458,28.1667)" id="g68"><path id="path70" style="fill:#f3d2a2;fill-opacity:1;fill-rule:nonzero;stroke:none" d="M 0,0 C -0.942,1.226 -2.325,2.46 -2.501,3.247 -2.715,4.203 -2.665,5.201 -4,5.998 -4.841,6.501 -4.277,5.116 -4.154,3.282 c 0.071,-1.056 1.664,-4.103 2.633,-5.094 0.623,-0.638 3.588,-1.519 4.57,-3.639 0.166,-0.358 0.605,-1.03 1.118,-1.841 0.849,-1.343 1.341,-2.469 0.658,-4.033 2.984,-0.155 5.318,1.114 5.318,1.114 -0.883,2.313 -0.212,4.329 -0.94,6.15 -1.149,2.879 -2.429,2.989 -4.35,2.598 0,0 -0.402,0.732 -2.142,0.546 C 1.871,-0.586 1.075,-0.303 0,0"/></g><g transform="translate(29.7794,16.8587)" id="g72"><path id="path74" style="fill:#4289c1;fill-opacity:1;fill-rule:nonzero;stroke:none" d="M 0,0 C 2.984,-0.155 5.625,0.824 5.625,0.824 5.396,2.788 5.297,5.426 4.57,7.247 4.409,7.65 4.24,7.983 4.066,8.267 4.055,8.012 3.916,7.819 3.468,7.912 2.499,8.112 1.883,9.185 0.928,9.81 0.699,9.82 0.463,9.829 0.219,9.845 0.98,9.248 1.297,7.68 0.858,6.553 0.415,5.413 -0.474,5.159 -1.443,5.519 -1.406,5.44 -1.066,4.599 -0.721,3.71 -0.245,2.481 -0.029,1.019 0,0"/></g><g transform="translate(24.3,4.0152)" id="g76"><path id="path78" style="fill:#292f33;fill-opacity:1;fill-rule:nonzero;stroke:none" d="M 0,0 C 0,0 0.371,-1.007 1.62,-0.869 1.897,-0.839 1.541,-2.033 1.23,-2.33 0.919,-2.626 -2.175,-4.049 -3.729,-3.185 -5.282,-2.322 -4.073,-1.977 -2.865,-1.632 -1.657,-1.287 0,0 0,0"/></g><g transform="translate(30.9375,33.1875)" id="g80"><path id="path82" style="fill:#ffe51e;fill-opacity:1;fill-rule:nonzero;stroke:none" d="m 0,0 c 1.992,0.206 3.292,-0.989 3.449,-2.102 0.239,-1.69 -1.15,-2.966 -1.455,-3.627 -0.307,-0.667 -2.387,0.338 -2.494,1.979 -0.037,0.562 -0.269,1.191 -0.2,1.644 0.062,0.409 -0.732,0.441 -1.05,0.585 C -2.196,-1.319 -1.383,-0.143 0,0"/></g><g transform="translate(6.3333,33.5833)" id="g84"><path id="path86" style="fill:#66757f;fill-opacity:1;fill-rule:nonzero;stroke:none" d="M 0,0 4.708,0 C 5.5,0 2.5,-3.156 1.417,-3.156 0.333,-3.156 -1.417,0 0,0"/></g><g transform="translate(10.6667,27.375)" id="g88"><path id="path90" style="fill:#66757f;fill-opacity:1;fill-rule:nonzero;stroke:none" d="M 0,0 4.458,0 C 5.208,0 2,-2.949 1,-2.949 0,-2.949 -1.292,0 0,0"/></g><g transform="translate(8.875,18.2574)" id="g92"><path id="path94" style="fill:#66757f;fill-opacity:1;fill-rule:nonzero;stroke:none" d="M 0,0 9.125,0 C 10.417,0 3.583,-5.098 2.458,-5.098 1.333,-5.098 -2.458,0 0,0"/></g><g transform="translate(3.1667,6.9476)" id="g96"><path id="path98" style="fill:#66757f;fill-opacity:1;fill-rule:nonzero;stroke:none" d="M 0,0 8.071,0 C 9.958,0 4.79,-4.531 2.957,-4.531 1.125,-4.531 -1.833,0 0,0"/></g><g transform="translate(29.7794,17.5)" id="g100"><path id="path102" style="fill:#2a6797;fill-opacity:1;fill-rule:nonzero;stroke:none" d="m 0,0 c 0.01,0.046 1.158,-0.125 2.814,0.125 1.298,0.196 2.811,0.54 2.811,0.54 L 5.721,0.016 c 0,0 -1.918,-0.496 -3.07,-0.629 C 1.499,-0.747 0.028,-0.766 0.028,-0.766 0.028,-0.766 -0.084,-0.41 0,0"/></g><g transform="translate(30.3125,30.3958)" id="g104"><path id="path106" style="fill:#f3d2a2;fill-opacity:1;fill-rule:nonzero;stroke:none" d="M 0,0 C 0.261,0.309 0.937,0.208 0.917,-0.271 0.896,-0.75 0.729,-1.208 0.167,-1.167 -0.396,-1.125 -0.229,-0.271 0,0"/></g></g></g></g></svg>
