<?xml version="1.0" encoding="utf-8"?>
<!-- Generator: Adobe Illustrator 24.0.3, SVG Export Plug-In . SVG Version: 6.00 Build 0)  -->
<svg version="1.1" id="Layer_1" xmlns="http://www.w3.org/2000/svg" xmlns:xlink="http://www.w3.org/1999/xlink" x="0px" y="0px"
	 viewBox="0 0 128 128" style="enable-background:new 0 0 128 128;" xml:space="preserve">
<g id="helmet_x5F_back">
	<g>
		<path style="fill:#EF5350;" d="M110.97,59.11c0,0,0-0.02,0-0.04c0.01,0.02,0.04,0.06,0.04,0.06s2.39,14.4,2.39,17.32
			c0,17.6-23.26,24.66-48.67,24.67V45.78c19.26,0.12,30.09,4.58,37.26,8.29C105.35,55.81,110.97,59.11,110.97,59.11z"/>
		<path style="fill:#EF5350;" d="M17.03,59.11c0,0,0-0.02,0-0.04c-0.01,0.02-0.04,0.06-0.04,0.06s-2.39,14.4-2.39,17.32
			c0,17.6,23.26,24.66,48.67,24.67V45.78c-19.26,0.12-30.09,4.58-37.26,8.29C22.65,55.81,17.03,59.11,17.03,59.11z"/>
	</g>
	
		<linearGradient id="SVGID_1_" gradientUnits="userSpaceOnUse" x1="85.6885" y1="83.4384" x2="85.6885" y2="30.707" gradientTransform="matrix(1 0 0 -1 0 128)">
		<stop  offset="0.2551" style="stop-color:#B71C1C"/>
		<stop  offset="1" style="stop-color:#D32F2F"/>
	</linearGradient>
	<path style="fill:url(#SVGID_1_);" d="M100.29,48.3c2.62,2.85,7.14,6.77,7.85,10.51c1.13,5.96,1.15,15.17,1.15,16.98
		c0,8.92-7.34,14.68-16.83,18.72c-14.29,6.08-30.37-4.13-30.37-19.12V61.88c0-19.12,24.66-28.2,37.9-13.91
		C100.09,48.08,100.19,48.19,100.29,48.3z"/>
	
		<linearGradient id="SVGID_2_" gradientUnits="userSpaceOnUse" x1="42.851" y1="83.4384" x2="42.851" y2="30.707" gradientTransform="matrix(1 0 0 -1 0 128)">
		<stop  offset="0.2551" style="stop-color:#B71C1C"/>
		<stop  offset="1" style="stop-color:#D32F2F"/>
	</linearGradient>
	<path style="fill:url(#SVGID_2_);" d="M28.02,48.3c-2.62,2.85-6.52,6.77-7.23,10.51c-1.13,5.96-1.31,14.71-1.31,16.52
		c0,8.92,6.88,15.14,16.38,19.18c14.29,6.08,30.37-4.13,30.37-19.12V61.88c0-19.12-24.66-28.2-37.9-13.91
		C28.22,48.08,28.12,48.19,28.02,48.3z"/>
</g>
<g id="suit">
	
		<linearGradient id="SVGID_3_" gradientUnits="userSpaceOnUse" x1="12" y1="18.0085" x2="116" y2="18.0085" gradientTransform="matrix(1 0 0 -1 0 128)">
		<stop  offset="0" style="stop-color:#F44336"/>
		<stop  offset="0.3592" style="stop-color:#E73B32"/>
		<stop  offset="1" style="stop-color:#C62828"/>
	</linearGradient>
	<path style="fill:url(#SVGID_3_);" d="M64.14,96c-0.05,0-0.09,0-0.14,0c-25.65,0.03-52,7.1-52,24.99v3h1.44h1.45h98.22h1.45H116v-3
		C116,104.12,89.9,96,64.14,96z"/>
</g>
<g id="hairGroup">
	<path id="hair_3_" style="fill:#312D2D;" d="M98.9,79.85c-1.25-2.27,0.34-4.58,3.06-7.44c4.31-4.54,7-15.07,2.64-25.76
		c0.03-0.06-0.86-1.86-0.83-1.92l-1.79-0.09c-0.57-0.08-18.26-0.12-37.97-0.12s-37.4,0.04-37.97,0.12c0,0-2.65,1.95-2.63,2.01
		c-4.35,10.69-1.66,21.21,2.64,25.76c2.71,2.86,4.3,5.17,3.06,7.44c-1.21,2.21-4.81,2.53-4.81,2.53s0.83,2.26,2.83,3.48
		c1.85,1.13,4.13,1.39,5.7,1.43c0,0,6.15,8.51,22.23,8.51l8.95,0l8.95,0c16.08,0,22.23-8.51,22.23-8.51c1.57-0.04,3.85-0.3,5.7-1.43
		c2-1.22,2.83-3.48,2.83-3.48S100.11,82.06,98.9,79.85z"/>
	<g id="hairHighlights_1_">
		
			<radialGradient id="SVGID_4_" cx="99.638" cy="45.8498" r="23.419" gradientTransform="matrix(1 0 0 0.4912 -21.0551 59.6285)" gradientUnits="userSpaceOnUse">
			<stop  offset="0.7275" style="stop-color:#454140;stop-opacity:0"/>
			<stop  offset="1" style="stop-color:#454140"/>
		</radialGradient>
		<path style="fill:url(#SVGID_4_);" d="M63.99,95.79v-9.44l28.57-2.26l2.6,3.2c0,0-6.15,8.51-22.23,8.51L63.99,95.79z"/>
		
			<radialGradient id="SVGID_5_" cx="76.5728" cy="49.3316" r="6.9209" gradientTransform="matrix(-0.9057 0.4238 -0.3144 -0.6719 186.5131 79.3597)" gradientUnits="userSpaceOnUse">
			<stop  offset="0.6628" style="stop-color:#454140"/>
			<stop  offset="1" style="stop-color:#454140;stop-opacity:0"/>
		</radialGradient>
		<path style="fill:url(#SVGID_5_);" d="M95.1,83.16c-4.28-6.5,5.21-8.93,5.21-8.93s0.01,0.01,0.01,0.01
			c-1.65,2.05-2.4,3.84-1.43,5.61c1.21,2.21,4.81,2.53,4.81,2.53S98.79,86.74,95.1,83.16z"/>
		
			<radialGradient id="SVGID_6_" cx="94.4208" cy="68.9103" r="30.3883" gradientTransform="matrix(-0.0746 -0.9972 0.8311 -0.0622 33.5755 157.5339)" gradientUnits="userSpaceOnUse">
			<stop  offset="0.7247" style="stop-color:#454140;stop-opacity:0"/>
			<stop  offset="1" style="stop-color:#454140"/>
		</radialGradient>
		<path style="fill:url(#SVGID_6_);" d="M104.62,46.65c4.25,10.35,1.78,21.01-2.41,25.51c-0.57,0.62-3.01,3.01-3.57,4.92
			c0,0-9.54-13.31-12.39-21.13c-0.57-1.58-1.1-3.2-1.17-4.88c-0.05-1.26,0.14-2.76,0.87-3.83c0.89-1.31,18.16-1.7,18.16-1.7
			C104.11,45.55,104.62,46.65,104.62,46.65z"/>
		
			<radialGradient id="SVGID_7_" cx="44.2219" cy="68.9103" r="30.3883" gradientTransform="matrix(0.0746 -0.9972 -0.8311 -0.0622 98.1925 107.4749)" gradientUnits="userSpaceOnUse">
			<stop  offset="0.7247" style="stop-color:#454140;stop-opacity:0"/>
			<stop  offset="1" style="stop-color:#454140"/>
		</radialGradient>
		<path style="fill:url(#SVGID_7_);" d="M23.4,46.65C19.16,57,21.63,67.66,25.81,72.15c0.58,0.62,3.01,3.01,3.57,4.92
			c0,0,9.54-13.31,12.39-21.13c0.58-1.58,1.1-3.2,1.17-4.88c0.05-1.26-0.14-2.76-0.87-3.83c-0.89-1.31-1.93-0.96-3.44-0.96
			c-2.88,0-13.49-0.74-14.47-0.74C24.17,45.55,23.4,46.65,23.4,46.65z"/>
		
			<radialGradient id="SVGID_8_" cx="49.4392" cy="45.8498" r="23.419" gradientTransform="matrix(-1 0 0 0.4912 98.8783 59.6285)" gradientUnits="userSpaceOnUse">
			<stop  offset="0.7275" style="stop-color:#454140;stop-opacity:0"/>
			<stop  offset="1" style="stop-color:#454140"/>
		</radialGradient>
		<path style="fill:url(#SVGID_8_);" d="M64.03,95.79v-9.44l-28.57-2.26l-2.6,3.2c0,0,6.15,8.51,22.23,8.51L64.03,95.79z"/>
		
			<radialGradient id="SVGID_9_" cx="26.3739" cy="49.3316" r="6.9209" gradientTransform="matrix(0.9057 0.4238 0.3144 -0.6719 -13.0236 100.6348)" gradientUnits="userSpaceOnUse">
			<stop  offset="0.6628" style="stop-color:#454140"/>
			<stop  offset="1" style="stop-color:#454140;stop-opacity:0"/>
		</radialGradient>
		<path style="fill:url(#SVGID_9_);" d="M32.92,83.16c4.28-6.5-5.21-8.93-5.21-8.93s-0.01,0.01-0.01,0.01
			c1.65,2.05,2.4,3.84,1.43,5.61c-1.21,2.21-4.81,2.53-4.81,2.53S29.23,86.74,32.92,83.16z"/>
	</g>
</g>
<g id="neck">
	<path style="fill:#EDC391;" d="M64,90.08h-9.08v9.98c0,4.51,3.7,8.17,8.26,8.17h1.65c4.56,0,8.26-3.66,8.26-8.17v-9.98L64,90.08z"
		/>
</g>
<linearGradient id="collar_1_" gradientUnits="userSpaceOnUse" x1="64" y1="44" x2="64" y2="0.1654" gradientTransform="matrix(1 0 0 -1 0 128)">
	<stop  offset="0" style="stop-color:#FFEB3B"/>
	<stop  offset="0.6355" style="stop-color:#FFDD12"/>
	<stop  offset="1" style="stop-color:#FFD600"/>
</linearGradient>
<path id="collar" style="fill:url(#collar_1_);" d="M94,123.98v-6.1c0-1.37-1.11-2.48-2.48-2.48H66v-5.06l13.36-6.18
	c2.95-1.36,5.03-4.24,5.51-7.6l1.69-12.03L70.94,93.4c-4.05,2.42-6.71,6.69-7.22,11.46h-0.17c-0.51-4.77-3.17-9.05-7.22-11.46
	l-14.9-9.46l1.18,12.29c0.34,3.54,2.47,6.62,5.56,8.05l13.27,6.13v4.98H36.48c-1.37,0-2.48,1.11-2.48,2.48v6.1H94z"/>
<g id="face">
	<g id="ears">
		<path style="fill:#EDC391;" d="M91.55,50.43h-7.37H44.26H36.9c-5.89,0-10.71,5.14-10.71,11.41S31,73.26,36.9,73.26h7.37h39.91
			h7.37c5.89,0,10.71-5.14,10.71-11.41S97.44,50.43,91.55,50.43z"/>
	</g>
	<g id="head">
		<path style="fill:#F9DDBD;" d="M64.22,11.07L64.22,11.07L64.22,11.07c-17.4,0-33.52,18.61-33.52,45.4
			c0,26.64,16.61,39.81,33.52,39.81S97.74,83.1,97.74,56.46C97.74,29.68,81.63,11.07,64.22,11.07z"/>
	</g>
	<g id="eyebrows">
		<path style="fill:#454140;" d="M55.02,50.15c-0.93-1.23-3.07-3.01-7.23-3.01s-6.31,1.79-7.23,3.01c-0.41,0.54-0.31,1.17-0.02,1.55
			c0.26,0.35,1.04,0.68,1.9,0.39s2.54-1.16,5.35-1.18c2.81,0.02,4.49,0.89,5.35,1.18c0.86,0.29,1.64-0.03,1.9-0.39
			C55.32,51.32,55.43,50.69,55.02,50.15z"/>
		<path style="fill:#454140;" d="M87.89,50.15c-0.93-1.23-3.07-3.01-7.23-3.01c-4.16,0-6.31,1.79-7.23,3.01
			c-0.41,0.54-0.31,1.17-0.02,1.55c0.26,0.35,1.04,0.68,1.9,0.39s2.54-1.16,5.35-1.18c2.81,0.02,4.49,0.89,5.35,1.18
			c0.86,0.29,1.64-0.03,1.9-0.39C88.2,51.32,88.3,50.69,87.89,50.15z"/>
	</g>
	<g id="eyes">
		<ellipse style="fill:#312D2D;" cx="47.79" cy="58.81" rx="4.93" ry="5.1"/>
		<ellipse style="fill:#312D2D;" cx="80.66" cy="58.81" rx="4.93" ry="5.1"/>
	</g>
	<path id="nose" style="fill:#DBA689;" d="M68.08,68.06c-0.11-0.04-0.21-0.07-0.32-0.08h-7.08c-0.11,0.01-0.22,0.04-0.32,0.08
		c-0.64,0.26-0.99,0.92-0.69,1.63c0.3,0.71,1.71,2.69,4.55,2.69c2.84,0,4.25-1.99,4.55-2.69C69.08,68.98,68.72,68.32,68.08,68.06z"
		/>
	<path id="mouth" style="fill:#444444;" d="M72.75,76.14c-3.18,1.89-13.63,1.89-16.81,0c-1.83-1.09-3.7,0.58-2.94,2.24
		c0.75,1.63,6.44,5.42,11.37,5.42s10.55-3.79,11.3-5.42C76.43,76.72,74.58,75.05,72.75,76.14z"/>
</g>
<g id="hairGroup_1_">
	<path id="hair" style="fill:#312D2D;" d="M63.99,25.08c-32.31,0-40.99,13.52-38.82,19.43c1.64,4.45,4.09,7.97,4.09,7.97
		c-0.46,8.01,1.03,12.94,1.82,14.94c0.14,0.35,0.63,0.32,0.72-0.04c0.99-3.97,4.36-17.8,4.03-20.21c0,0,11.35-2.25,22.17-10.22
		c2.2-1.62,4.59-3,7.13-4.01c13.59-5.41,16.43,3.82,16.43,3.82s9.42-1.81,12.26,11.27c1.07,4.9,1.79,12.75,2.4,18.24
		c0.04,0.39,0.57,0.47,0.72,0.11c0.95-2.18,2.85-6.5,3.3-10.91C100.42,53.92,104.24,25.08,63.99,25.08z"/>
</g>
<g id="helmet">
	<g id="XMLID_171_">
		<g>
			
				<radialGradient id="XMLID_2_" cx="64" cy="96.3245" r="34.6381" gradientTransform="matrix(1 0 0 -1 0 128)" gradientUnits="userSpaceOnUse">
				<stop  offset="0" style="stop-color:#F44336"/>
				<stop  offset="0.2987" style="stop-color:#EB3E33"/>
				<stop  offset="0.7842" style="stop-color:#D3302C"/>
				<stop  offset="0.9978" style="stop-color:#C62828"/>
			</radialGradient>
			<path id="XMLID_172_" style="fill:url(#XMLID_2_);" d="M64.41,8C17.66,8,21.18,55.35,21.18,55.35s12.21-11.01,43.5-11.01
				s42.1,9.99,42.1,9.99S111.17,8,64.41,8z"/>
		</g>
		<g>
			<defs>
				<path id="SVGID_10_" d="M64.41,8C17.66,8,21.18,55.35,21.18,55.35s12.21-11.01,43.5-11.01s42.1,9.99,42.1,9.99S111.17,8,64.41,8
					z"/>
			</defs>
			<clipPath id="SVGID_11_">
				<use xlink:href="#SVGID_10_"  style="overflow:visible;"/>
			</clipPath>
			<path id="XMLID_173_" style="clip-path:url(#SVGID_11_);fill:#C62828;" d="M47.12,10.35L54.07,8v23.75
				C52.66,21.49,50.64,14.06,47.12,10.35z"/>
		</g>
		<g>
			<defs>
				<path id="SVGID_12_" d="M64.41,8C17.66,8,21.18,55.35,21.18,55.35s12.21-11.01,43.5-11.01s42.1,9.99,42.1,9.99S111.17,8,64.41,8
					z"/>
			</defs>
			<clipPath id="SVGID_13_">
				<use xlink:href="#SVGID_12_"  style="overflow:visible;"/>
			</clipPath>
			<path style="clip-path:url(#SVGID_13_);fill:#C62828;" d="M81.71,10.35L74.76,8v23.75C76.17,21.49,78.19,14.06,81.71,10.35z"/>
		</g>
	</g>
	<path style="fill:#E53935;" d="M69.62,42.91h-10.6c-2.82,0-5.1-2.28-5.1-5.1V9.1c0-2.82,2.28-5.1,5.1-5.1h10.6
		c2.82,0,5.1,2.28,5.1,5.1v28.7C74.72,40.62,72.44,42.91,69.62,42.91z"/>
	<g>
		<g>
			
				<linearGradient id="SVGID_14_" gradientUnits="userSpaceOnUse" x1="46.5074" y1="102.92" x2="81.4944" y2="102.92" gradientTransform="matrix(1 0 0 -1 0 128)">
				<stop  offset="0" style="stop-color:#FFEE58"/>
				<stop  offset="0.366" style="stop-color:#FEE84F"/>
				<stop  offset="0.9612" style="stop-color:#FDD937"/>
				<stop  offset="1" style="stop-color:#FDD835"/>
			</linearGradient>
			<path style="fill:url(#SVGID_14_);" d="M79.76,25.5c-3.86-6.68,1.03-9.56,1.03-9.56l-4.11-5.25c0,0-3.26,1.02-6.69,0.51
				c-3.31-0.49-5.81-3.26-5.98-3.45V7.74c0,0-0.01,0.01-0.01,0.01c0,0-0.01-0.01-0.01-0.01v0.02c-0.17,0.19-2.67,2.96-5.98,3.45
				c-3.43,0.51-6.69-0.51-6.69-0.51l-4.11,5.25c0,0,4.89,2.88,1.03,9.56s-1.49,13.78,9.34,15.06c2.87,0.34,5.74,1.52,5.74,1.52
				l0.16,0.04l0,0.29L64,42.28l0.52,0.15l0-0.29l0.16-0.04c0,0,2.88-1.19,5.74-1.52C81.25,39.29,83.62,32.19,79.76,25.5z"/>
		</g>
		<ellipse style="fill:#6D4C41;" cx="64" cy="25.58" rx="12.51" ry="11.84"/>
		<g>
			<g>
				<path style="fill:#FFEB3B;" d="M62.81,19.09c-0.56-0.51-0.85-1.27-0.75-2c-0.37,0.43-0.54,1.01-0.59,1.43
					c-0.21,1.93,2.03,2.54,2.07,2.5c0.07-0.09,0.21-0.33,0.04-0.8c-0.26-0.7,0.42-1.09,0.42-1.09s-0.26,0.56-0.07,0.8
					c0.3,0.38,0.57,0.36,0.7,0.55c0.14,0.2-0.02,0.51-0.16,0.58c1.01-0.08,1.81-0.95,2.02-1.88s-0.06-1.9-0.46-2.78
					c-0.06,0.71-0.79,1.3-1.55,1.27c0.22-0.27,0.57-1.02,0.35-1.84c-0.22-0.82-1.51-1.26-1.51-1.26s0.36,0.37,0.38,1.12
					C63.7,16.46,61.94,17.33,62.81,19.09z"/>
			</g>
			<g>
				<path style="fill:#FFEB3B;" d="M69.3,32.68l-9.93-9.68l-1.79,1.27l9.96,9.66c0.14,0.14,0.38,0.22,0.63,0.22
					c0.26,0,0.53-0.07,0.74-0.22c0.29-0.2,0.5-0.54,0.53-0.83C69.46,32.89,69.38,32.76,69.3,32.68z"/>
				<path style="fill:#FFEB3B;" d="M60.21,21.94c-0.14-0.1-0.42-0.12-0.58-0.14c0.03-0.06,0.33-0.69,0.75-0.81
					c0.35-0.1,0.26-0.54-0.06-0.65c-0.7-0.23-2.15-0.2-3.37,0.88c-0.14,0.12-1.97,1.79-2.88,2.65c-0.06,0.05-0.13,0.09-0.23,0.11
					c-0.54,0.14-0.88,0.64-0.74,1.13c0.13,0.47,0.44,1.2,1.16,1.68c0.68,0.46,1.91,0.76,1.94,0.76c0.51,0,0.95-0.22,1.1-0.67
					c0.09-0.27-0.12-0.43,0.17-0.78c0,0,2.92-2.6,3.21-3C60.97,22.7,60.73,22.33,60.21,21.94z"/>
			</g>
			<g>
				<path style="fill:#FFEB3B;" d="M58.7,32.68l9.93-9.68l1.79,1.27l-9.96,9.66c-0.14,0.14-0.38,0.22-0.63,0.22
					c-0.26,0-0.53-0.07-0.74-0.22c-0.29-0.2-0.51-0.54-0.53-0.83C58.54,32.89,58.62,32.76,58.7,32.68z"/>
				<path style="fill:#FFEB3B;" d="M67.79,21.94c0.14-0.1,0.42-0.12,0.58-0.14c-0.03-0.06-0.33-0.69-0.75-0.81
					c-0.35-0.1-0.26-0.54,0.06-0.65c0.7-0.23,2.15-0.2,3.37,0.88c0.14,0.12,1.97,1.79,2.88,2.65c0.06,0.05,0.13,0.09,0.23,0.11
					c0.54,0.14,0.88,0.64,0.74,1.13c-0.13,0.47-0.44,1.2-1.16,1.68c-0.68,0.46-1.91,0.76-1.94,0.76c-0.5,0-0.95-0.22-1.1-0.67
					c-0.09-0.27,0.12-0.43-0.17-0.78c0,0-2.92-2.6-3.21-3C67.03,22.7,67.27,22.33,67.79,21.94z"/>
			</g>
		</g>
	</g>
	<g>
		<path style="fill:#EF5350;" d="M64.14,38.25c-0.24,0-0.46,0-0.69,0.01c-17.4,0.09-28.3,3.36-35.11,7.29
			c-10.02,5.77-11.22,12.96-11.3,13.52c0,0.02,0,0.04,0,0.04l3.5,1.9c0,0,2.37-4.81,5.52-6.94c7.59-5.13,18.07-8.17,37.41-8.29
			c0.24,0,0.47-0.01,0.71-0.01v-7.52C64.16,38.25,64.15,38.25,64.14,38.25z"/>
	</g>
	<g>
		<path style="fill:#EF5350;" d="M64.02,38.25c0.24,0,0.46,0,0.69,0.01c17.4,0.09,28.3,3.36,35.11,7.29
			c10.02,5.77,11.22,12.96,11.3,13.52c0,0.02,0,0.04,0,0.04l-2.65,1.9c0,0-3.22-4.81-6.36-6.94c-7.59-5.13-18.07-8.17-37.41-8.29
			c-0.24,0-0.47-0.01-0.72-0.01v-7.52C64.01,38.25,64.01,38.25,64.02,38.25z"/>
	</g>
</g>
</svg>
