<svg xmlns="http://www.w3.org/2000/svg" viewBox="0 0 36 36"><path fill="#F3D2A2" d="M22 15c-4 0-9-3-9-3l-3 3c-1.863 1.863-3.724 2.372-3.971 5.313C6.029 29 10.792 34 18 34s11.965-4 11.965-13.551C29.613 16.819 25.81 15 22 15z"/><path d="M22.707 26.293c-.387-.387-.93-.192-1.404-.01-.474.183-1.553.717-3.303.717s-2.829-.534-3.303-.717c-.474-.183-1.017-.377-1.404.01-.391.391-.391 1.023 0 1.414C13.425 27.84 15.229 29 18 29s4.575-1.16 4.707-1.293c.391-.391.391-1.023 0-1.414zM19 25h-2c-.552 0-1-.447-1-1s.448-1 1-1h2c.553 0 1 .447 1 1s-.447 1-1 1z" fill="#C1694F"/><path d="M14 23c-.552 0-1-.447-1-1v-1c0-.552.448-1 1-1s1 .448 1 1v1c0 .553-.448 1-1 1zm8 0c-.553 0-1-.447-1-1v-1c0-.552.447-1 1-1s1 .448 1 1v1c0 .553-.447 1-1 1z" fill="#662113"/><path fill="#FFE51E" d="M17.998 5c8.205 0 13.331 5.955 13.331 11 0 5.044-1.026 8.245-2.051 6.226l-2.051-4.035s-6.152 0-8.203-2.019c0 0 3.077 6.054-3.077 0 0 0 1.026 4.037-5.127-1.008 0 0-3.077 2.018-4.102 7.062-.286 1.401-2.052-1.182-2.052-6.226 0-5.045 4.102-11 13.332-11"/></svg>