<?xml version="1.0" encoding="utf-8"?>
<!-- Generator: Adobe Illustrator 24.0.3, SVG Export Plug-In . SVG Version: 6.00 Build 0)  -->
<svg version="1.1" id="Layer_1" xmlns="http://www.w3.org/2000/svg" xmlns:xlink="http://www.w3.org/1999/xlink" x="0px" y="0px"
	 viewBox="0 0 128 128" style="enable-background:new 0 0 128 128;" xml:space="preserve">
<g id="hairGroup">
	<path id="hair_x5F_red_1_" style="fill:#E63D00;" d="M98.9,79.85c-1.25-2.27,0.34-4.58,3.06-7.44c4.31-4.54,9-15.07,4.64-25.76
		c0.03-0.06-0.86-1.86-0.83-1.92l-1.79-0.09c-0.57-0.08-20.26-0.12-39.97-0.12c-19.71,0-39.39,0.04-39.97,0.12
		c0,0-2.65,1.95-2.63,2.01c-4.35,10.69,0.33,21.22,4.64,25.76c2.71,2.86,4.3,5.17,3.06,7.44c-1.21,2.21-4.81,2.53-4.81,2.53
		s0.83,2.26,2.83,3.48c1.85,1.13,4.13,1.39,5.7,1.43c0,0,6.15,8.51,22.23,8.51l8.95,0l8.95,0c16.08,0,22.23-8.51,22.23-8.51
		c1.57-0.04,3.85-0.3,5.7-1.43c2-1.22,2.83-3.48,2.83-3.48S100.11,82.06,98.9,79.85z"/>
	<g id="hairHighlights_x5F_red_1_">
		
			<radialGradient id="SVGID_1_" cx="98.7521" cy="83.6008" r="23.419" gradientTransform="matrix(1 0 0 -0.4912 -19.2833 124.6652)" gradientUnits="userSpaceOnUse">
			<stop  offset="0.6985" style="stop-color:#F98B25;stop-opacity:0"/>
			<stop  offset="1" style="stop-color:#F98B25"/>
		</radialGradient>
		<path style="fill:url(#SVGID_1_);" d="M63.99,95.79v-9.44l28.57-2.26l2.6,3.2c0,0-6.15,8.51-22.23,8.51L63.99,95.79z"/>
		
			<radialGradient id="SVGID_2_" cx="76.5728" cy="78.6684" r="6.9209" gradientTransform="matrix(-0.9057 0.4238 0.3144 0.6719 146.2699 -6.6435)" gradientUnits="userSpaceOnUse">
			<stop  offset="0" style="stop-color:#F98B25"/>
			<stop  offset="0.8724" style="stop-color:#F98B25;stop-opacity:0"/>
		</radialGradient>
		<path style="fill:url(#SVGID_2_);" d="M95.1,83.16c-4.28-6.5,5.21-8.93,5.21-8.93s0.01,0.01,0.01,0.01
			c-1.65,2.05-2.4,3.84-1.43,5.61c1.21,2.21,4.81,2.53,4.81,2.53S98.79,86.74,95.1,83.16z"/>
		
			<radialGradient id="SVGID_3_" cx="90.9303" cy="59.2786" r="30.3992" gradientTransform="matrix(-0.0746 -0.9972 -0.8311 0.0622 143.3434 146.2686)" gradientUnits="userSpaceOnUse">
			<stop  offset="0.6985" style="stop-color:#F98B25;stop-opacity:0"/>
			<stop  offset="1" style="stop-color:#F98B25"/>
		</radialGradient>
		<path style="fill:url(#SVGID_3_);" d="M106.62,46.65c4.25,10.35-0.22,21.01-4.41,25.51c-0.58,0.62-3.01,3.01-3.57,4.92
			c0,0-9.54-13.31-12.39-21.13c-0.58-1.58-1.1-3.2-1.17-4.88c-0.05-1.26,0.14-2.76,0.87-3.82c0.89-1.31,20.16-1.7,20.16-1.7
			C106.11,45.55,106.62,46.65,106.62,46.65z"/>
		
			<radialGradient id="SVGID_4_" cx="41.5337" cy="62.6445" r="30.3992" gradientTransform="matrix(0.0746 -0.9972 0.8311 0.0622 -13.6304 100.1664)" gradientUnits="userSpaceOnUse">
			<stop  offset="0.6985" style="stop-color:#F98B25;stop-opacity:0"/>
			<stop  offset="1" style="stop-color:#F98B25"/>
		</radialGradient>
		<path style="fill:url(#SVGID_4_);" d="M21.4,46.65C17.16,57,21.63,67.66,25.81,72.15c0.58,0.62,3.01,3.01,3.57,4.92
			c0,0,9.54-13.31,12.39-21.13c0.58-1.58,1.1-3.2,1.17-4.88c0.05-1.26-0.14-2.76-0.87-3.82c-0.89-1.31-1.93-0.96-3.44-0.96
			c-2.88,0-15.49-0.74-16.47-0.74C22.17,45.55,21.4,46.65,21.4,46.65z"/>
		
			<radialGradient id="SVGID_5_" cx="48.8854" cy="83.5383" r="23.419" gradientTransform="matrix(-1 0 0 -0.4912 97.7708 124.572)" gradientUnits="userSpaceOnUse">
			<stop  offset="0.6985" style="stop-color:#F98B25;stop-opacity:0"/>
			<stop  offset="1" style="stop-color:#F98B25"/>
		</radialGradient>
		<path style="fill:url(#SVGID_5_);" d="M64.03,95.79v-9.44l-28.57-2.26l-2.6,3.2c0,0,6.15,8.51,22.23,8.51L64.03,95.79z"/>
		
			<radialGradient id="SVGID_6_" cx="26.3739" cy="78.6684" r="6.9209" gradientTransform="matrix(0.9057 0.4238 -0.3144 0.6719 27.2196 14.6316)" gradientUnits="userSpaceOnUse">
			<stop  offset="0" style="stop-color:#F98B25"/>
			<stop  offset="0.9438" style="stop-color:#F98B25;stop-opacity:0"/>
		</radialGradient>
		<path style="fill:url(#SVGID_6_);" d="M32.93,83.16c4.28-6.5-5.21-8.93-5.21-8.93s-0.01,0.01-0.01,0.01
			c1.65,2.05,2.4,3.84,1.43,5.61c-1.21,2.21-4.81,2.53-4.81,2.53S29.23,86.74,32.93,83.16z"/>
	</g>
</g>
<g id="shirt_1_">
	<linearGradient id="SVGID_7_" gradientUnits="userSpaceOnUse" x1="64" y1="94.5648" x2="64" y2="122.1097">
		<stop  offset="0" style="stop-color:#F78C1F"/>
		<stop  offset="0.4945" style="stop-color:#F37F21"/>
		<stop  offset="1" style="stop-color:#ED6D23"/>
	</linearGradient>
	<path style="fill:url(#SVGID_7_);" d="M64.13,94.68c-0.04,0-0.09,0-0.13,0c-25.49,0.03-51.13,7.5-51.13,25.28V124h1.5h1.5h96.27
		h1.5h1.5v-4.04C115.13,103.2,89.73,94.68,64.13,94.68z"/>
</g>
<g id="neck_1_">
	<path style="fill:#3C2B24;" d="M54.92,90.08v9.98c0,4.51,3.7,8.17,8.26,8.17h1.65c4.56,0,8.26-3.66,8.26-8.17v-9.98H54.92z"/>
</g>
<g id="ears_1_">
	<path style="fill:#3C2B24;" d="M91.33,50.43H36.67c-5.89,0-10.71,5.14-10.71,11.41s4.82,11.41,10.71,11.41h54.65
		c5.89,0,10.71-5.14,10.71-11.41S97.22,50.43,91.33,50.43z"/>
</g>
<g id="head">
	<path style="fill:#70534A;" d="M64,11.07L64,11.07L64,11.07c-17.4,0-33.52,18.61-33.52,45.39c0,26.64,16.61,39.81,33.52,39.81
		S97.52,83.1,97.52,56.46C97.52,29.68,81.4,11.07,64,11.07z"/>
</g>
<g id="eyes_1_">
	<ellipse style="fill:#1A1717;" cx="47.56" cy="58.81" rx="4.93" ry="5.1"/>
	<ellipse style="fill:#1A1717;" cx="80.44" cy="58.81" rx="4.93" ry="5.1"/>
</g>
<g id="eyebrows_1_">
	<path style="fill:#1A1717;" d="M54.98,49.82c-0.93-1.23-3.07-3.01-7.23-3.01s-6.31,1.79-7.23,3.01c-0.41,0.54-0.31,1.17-0.02,1.55
		c0.26,0.35,1.04,0.68,1.9,0.39c0.86-0.29,2.54-1.16,5.35-1.18c2.81,0.02,4.49,0.89,5.35,1.18c0.86,0.29,1.64-0.03,1.9-0.39
		C55.29,50.99,55.39,50.36,54.98,49.82z"/>
	<path style="fill:#1A1717;" d="M87.48,49.82c-0.93-1.23-3.07-3.01-7.23-3.01c-4.16,0-6.31,1.79-7.23,3.01
		c-0.41,0.54-0.31,1.17-0.02,1.55c0.26,0.35,1.04,0.68,1.9,0.39c0.86-0.29,2.54-1.16,5.35-1.18c2.81,0.02,4.49,0.89,5.35,1.18
		c0.86,0.29,1.64-0.03,1.9-0.39C87.79,50.99,87.89,50.36,87.48,49.82z"/>
</g>
<path id="nose_1_" style="fill:#33251F;" d="M67.86,68.06c-0.11-0.04-0.21-0.07-0.32-0.08h-7.07c-0.11,0.01-0.22,0.04-0.32,0.08
	c-0.64,0.26-0.99,0.92-0.69,1.63c0.3,0.71,1.71,2.69,4.55,2.69c2.84,0,4.25-1.99,4.55-2.69C68.85,68.98,68.5,68.32,67.86,68.06z"/>
<path id="mouth_1_" style="fill:#1A1717;" d="M72.42,76.14c-3.19,1.89-13.63,1.89-16.81,0c-1.83-1.09-3.7,0.58-2.94,2.24
	c0.75,1.63,6.45,5.42,11.37,5.42s10.55-3.79,11.3-5.42C76.09,76.72,74.25,75.05,72.42,76.14z"/>
<g id="hairGroup_1_">
	<path id="hair_x5F_red" style="fill:#E63D00;" d="M104.07,25.11c-2.44-3.7-7.91-8.64-12.82-8.97c-0.79-4.72-5.84-8.72-10.73-10.27
		C67.29,1.68,58.68,6.38,54.06,8.91c-0.96,0.53-7.17,3.97-11.51,1.5c-2.72-1.55-2.67-5.74-2.67-5.74s-8.53,3.25-5.61,12.29
		c-2.93,0.12-6.77,1.36-8.8,5.47c-2.42,4.9-1.56,8.99-0.86,10.95c-2.52,2.14-5.69,6.69-3.52,12.6c1.64,4.45,8.17,6.5,8.17,6.5
		c-0.46,8.01,1.03,12.94,1.82,14.94c0.14,0.35,0.63,0.32,0.72-0.04c0.99-3.96,4.37-17.8,4.03-20.21c0,0,11.35-2.25,22.17-10.22
		c2.2-1.62,4.59-3,7.13-4.02c13.59-5.41,16.44,3.82,16.44,3.82s9.42-1.81,12.26,11.27c1.07,4.9,1.8,12.75,2.4,18.24
		c0.04,0.39,0.57,0.47,0.73,0.11c0.95-2.18,2.85-6.5,3.3-10.91c0.16-1.55,4.34-3.6,6.14-10.26
		C108.79,36.32,105.84,27.78,104.07,25.11z"/>
	<g id="hairHighlights_x5F_red">
		
			<radialGradient id="SVGID_8_" cx="84.6246" cy="41.4739" r="35.6328" gradientTransform="matrix(0.3076 0.9515 -0.706 0.2282 87.8733 -48.513)" gradientUnits="userSpaceOnUse">
			<stop  offset="0.6985" style="stop-color:#F98B25;stop-opacity:0"/>
			<stop  offset="1" style="stop-color:#F98B25"/>
		</radialGradient>
		<path style="fill:url(#SVGID_8_);" d="M100.22,55.5c0.16-1.55,4.34-3.6,6.14-10.26c0.19-0.71,0.35-1.43,0.5-2.15
			c1.46-8.09-1.16-15.52-2.79-17.98c-2.26-3.42-7.1-7.89-11.7-8.81c-0.4-0.05-0.79-0.1-1.16-0.12c0,0,0.33,2.15-0.54,3.86
			c-1.12,2.22-3.41,2.75-3.41,2.75C99.24,34.77,98.38,44.79,100.22,55.5z"/>
		
			<radialGradient id="SVGID_9_" cx="47.28" cy="4.2004" r="9.3426" gradientTransform="matrix(0.8813 0.4726 -0.5603 1.045 7.9663 -22.5323)" gradientUnits="userSpaceOnUse">
			<stop  offset="0.3933" style="stop-color:#F98B25"/>
			<stop  offset="1" style="stop-color:#F98B25;stop-opacity:0"/>
		</radialGradient>
		<path style="fill:url(#SVGID_9_);" d="M56.95,7.39c-1.09,0.53-2.06,1.06-2.89,1.51c-0.96,0.53-7.17,3.97-11.51,1.5
			c-2.67-1.52-2.67-5.58-2.67-5.72c-1.23,1.57-4.95,12.78,5.93,13.53c4.69,0.32,7.58-3.77,9.3-7.23
			C55.72,9.71,56.69,7.88,56.95,7.39z"/>
		
			<radialGradient id="SVGID_10_" cx="160.3122" cy="62.538" r="35.4104" gradientTransform="matrix(-0.9378 -0.3944 0.2182 -0.5285 206.7949 119.5802)" gradientUnits="userSpaceOnUse">
			<stop  offset="0.7092" style="stop-color:#F98B25;stop-opacity:0"/>
			<stop  offset="1" style="stop-color:#F98B25"/>
		</radialGradient>
		<path style="fill:url(#SVGID_10_);" d="M79.16,5.47c7.32,1.98,10.89,5.71,12.08,10.68c0.35,1.46,0.77,15.08-25.23-0.4
			c-9.67-5.76-7.03-9.36-5.9-9.77C64.53,4.38,70.96,3.25,79.16,5.47z"/>
		
			<radialGradient id="SVGID_11_" cx="46.3693" cy="15.9622" r="13.0987" gradientTransform="matrix(1 0 0 1.2233 0 -3.5639)" gradientUnits="userSpaceOnUse">
			<stop  offset="0.7858" style="stop-color:#F98B25;stop-opacity:0"/>
			<stop  offset="1" style="stop-color:#F98B25"/>
		</radialGradient>
		<path style="fill:url(#SVGID_11_);" d="M39.84,4.68c-0.01,0.01-0.03,0.01-0.06,0.02c0,0,0,0-0.01,0
			c-0.93,0.39-8.24,3.78-5.51,12.26l7.78,1.25c-6.89-6.98-2.17-13.55-2.17-13.55S39.85,4.67,39.84,4.68z"/>
		
			<radialGradient id="SVGID_12_" cx="38.1531" cy="25.4421" r="16.0834" gradientTransform="matrix(-0.9657 -0.2598 0.2432 -0.9037 68.8094 58.347)" gradientUnits="userSpaceOnUse">
			<stop  offset="0.503" style="stop-color:#F98B25;stop-opacity:0"/>
			<stop  offset="1" style="stop-color:#F98B25"/>
		</radialGradient>
		<path style="fill:url(#SVGID_12_);" d="M39.07,17.73l-4.81-0.77c-0.19,0-0.83,0.06-1.18,0.11c-2.71,0.38-5.9,1.78-7.63,5.36
			c-1.86,3.86-1.81,7.17-1.3,9.38c0.15,0.74,0.45,1.58,0.45,1.58s2.38-2.26,8.05-2.41L39.07,17.73z"/>
		
			<radialGradient id="SVGID_13_" cx="36.3902" cy="42.9149" r="16.8856" gradientTransform="matrix(0.9907 0.1363 -0.1353 0.9837 6.1477 -4.2589)" gradientUnits="userSpaceOnUse">
			<stop  offset="0.6985" style="stop-color:#F98B25;stop-opacity:0"/>
			<stop  offset="1" style="stop-color:#F98B25"/>
		</radialGradient>
		<path style="fill:url(#SVGID_13_);" d="M24.37,33.58c-2.37,2.1-5.56,6.79-3.21,12.61c1.78,4.39,8.09,6.29,8.09,6.29
			c0,0.02,1.26,0.39,1.91,0.39l1.48-21.9c-3.03,0-5.94,0.91-7.82,2.22C24.85,33.23,24.36,33.55,24.37,33.58z"/>
	</g>
</g>
</svg>
