<?xml version="1.0" encoding="utf-8"?>
<!-- Generator: Adobe Illustrator 24.0.3, SVG Export Plug-In . SVG Version: 6.00 Build 0)  -->
<svg version="1.1" id="Layer_1" xmlns="http://www.w3.org/2000/svg" xmlns:xlink="http://www.w3.org/1999/xlink" x="0px" y="0px"
	 viewBox="0 0 128 128" style="enable-background:new 0 0 128 128;" xml:space="preserve">
<g id="robe">
	
		<linearGradient id="SVGID_1_" gradientUnits="userSpaceOnUse" x1="53" y1="32" x2="53" y2="4" gradientTransform="matrix(1 0 0 -1 0 128)">
		<stop  offset="3.200000e-03" style="stop-color:#616161"/>
		<stop  offset="0.2772" style="stop-color:#545454"/>
		<stop  offset="0.7831" style="stop-color:#323232"/>
		<stop  offset="1" style="stop-color:#212121"/>
	</linearGradient>
	<path style="fill:url(#SVGID_1_);" d="M50.14,96c-0.05,0-0.09,0-0.14,0c-18.21,0.02-36.76,3.6-46,12.07v2.09v2.29V124h95h1.5h1.5
		v-3.01C102,104.12,75.9,96,50.14,96z"/>
	<path style="opacity:0.19;fill:#FFFFFF;enable-background:new    ;" d="M84.02,110.26c-0.32,0.11-5.23,3.04-12.05,5.56
		c-3.21,1.19-13.11,3.08-21.95,2.88c-15.88-0.38-27.44-5.31-34.09-8.77c-2.51-1.3-5.48-3.91-7.05-5.38l-1.93,1.26
		c1.24,1.21,3.67,3.34,7.45,5.61c-4.11,4.5-5.3,10.6-5.59,12.59h2.03c0.35-2.1,1.59-7.68,5.34-11.57c2.61,1.44,5.76,2.88,9.48,4.16
		c-2.09,3.27-2.39,6.5-2.43,7.41h2c0.05-0.86,0.38-3.86,2.4-6.77c6.03,1.86,13.43,3.24,22.35,3.45c0.69,0.02,1.37,0.02,2.04,0.02
		c8.08,0,14.81-1.17,20.34-2.86c1.65,2.7,1.95,5.35,2,6.15h2c-0.04-0.85-0.31-3.74-2.06-6.79c3.75-1.3,6.89-2.83,9.47-4.38
		c3.46,3.86,4.64,9.14,4.97,11.16h2.03c-0.28-1.93-1.42-7.78-5.28-12.25c3.6-2.37,5.9-4.64,7.07-5.93l-1.77-1.06
		C89.6,106.03,87.39,108.09,84.02,110.26z"/>
</g>
<g id="robe_1_" style="opacity:0.3;">
	
		<linearGradient id="SVGID_2_" gradientUnits="userSpaceOnUse" x1="53" y1="4.6387" x2="53" y2="36.6927" gradientTransform="matrix(1 0 0 -1 0 128)">
		<stop  offset="0" style="stop-color:#BFBEBE"/>
		<stop  offset="0.236" style="stop-color:#212121;stop-opacity:0"/>
	</linearGradient>
	<path style="fill:url(#SVGID_2_);" d="M50.14,95.96c-0.05,0-0.09,0-0.14,0c-18.21,0.02-36.76,3.6-46,12.07v2.09v2.29v11.56h95h1.5
		h1.5v-3.01C102,104.08,75.9,95.96,50.14,95.96z"/>
</g>
<path id="hair_3_" style="fill:#232020;" d="M84.9,79.71c-1.25-2.27,0.34-4.58,3.06-7.44c4.31-4.54,9-15.07,4.64-25.76
	c0.03-0.06-0.86-1.86-0.83-1.92l-1.79-0.09C89.4,44.42,69.71,44.38,50,44.38s-39.4,0.04-39.97,0.12c0,0-2.65,1.95-2.63,2.01
	C3.05,57.2,7.74,67.72,12.05,72.27c2.71,2.86,4.3,5.17,3.06,7.44c-1.21,2.21-4.81,2.53-4.81,2.53s0.83,2.26,2.83,3.48
	c1.85,1.13,4.13,1.39,5.7,1.43c0,0,6.15,8.51,22.23,8.51l8.94,0l8.95,0c16.08,0,22.23-8.51,22.23-8.51c1.57-0.04,3.85-0.3,5.7-1.43
	c2-1.22,2.83-3.48,2.83-3.48S86.11,81.92,84.9,79.71z"/>
<g id="hairHighlights_1_">
	
		<radialGradient id="SVGID_3_" cx="113.638" cy="45.9868" r="23.419" gradientTransform="matrix(1 0 0 0.4912 -49.0551 59.4242)" gradientUnits="userSpaceOnUse">
		<stop  offset="0.7275" style="stop-color:#444140;stop-opacity:0"/>
		<stop  offset="1" style="stop-color:#444140"/>
	</radialGradient>
	<path style="fill:url(#SVGID_3_);" d="M49.99,95.65v-9.44l28.57-2.26l2.6,3.2c0,0-6.15,8.51-22.23,8.51L49.99,95.65z"/>
	
		<radialGradient id="SVGID_4_" cx="90.5728" cy="49.4686" r="6.9209" gradientTransform="matrix(-0.9057 0.4238 -0.3144 -0.6719 185.2367 73.3813)" gradientUnits="userSpaceOnUse">
		<stop  offset="0.6628" style="stop-color:#444140"/>
		<stop  offset="1" style="stop-color:#444140;stop-opacity:0"/>
	</radialGradient>
	<path style="fill:url(#SVGID_4_);" d="M81.1,83.02c-4.28-6.5,5.21-8.93,5.21-8.93s0.01,0.01,0.01,0.01
		c-1.65,2.05-2.4,3.84-1.43,5.61c1.21,2.21,4.81,2.53,4.81,2.53S84.79,86.6,81.1,83.02z"/>
	
		<radialGradient id="SVGID_5_" cx="108.5091" cy="69.0473" r="30.3992" gradientTransform="matrix(-0.0746 -0.9972 0.8311 -0.0622 20.4246 171.4544)" gradientUnits="userSpaceOnUse">
		<stop  offset="0.7247" style="stop-color:#444140;stop-opacity:0"/>
		<stop  offset="1" style="stop-color:#444140"/>
	</radialGradient>
	<path style="fill:url(#SVGID_5_);" d="M92.62,46.51c4.25,10.35-0.22,21.01-4.41,25.51c-0.57,0.62-3.01,3.01-3.57,4.92
		c0,0-9.54-13.31-12.39-21.13c-0.57-1.58-1.1-3.2-1.17-4.88c-0.05-1.26,0.14-2.76,0.87-3.83c0.89-1.31,20.16-1.7,20.16-1.7
		C92.11,45.42,92.62,46.51,92.62,46.51z"/>
	
		<radialGradient id="SVGID_6_" cx="30.3103" cy="69.0473" r="30.3992" gradientTransform="matrix(0.0746 -0.9972 -0.8311 -0.0622 85.4328 93.4736)" gradientUnits="userSpaceOnUse">
		<stop  offset="0.7247" style="stop-color:#444140;stop-opacity:0"/>
		<stop  offset="1" style="stop-color:#444140"/>
	</radialGradient>
	<path style="fill:url(#SVGID_6_);" d="M7.4,46.51c-4.25,10.35,0.22,21.01,4.41,25.51c0.57,0.62,3.01,3.01,3.57,4.92
		c0,0,9.54-13.31,12.39-21.13c0.58-1.58,1.1-3.2,1.17-4.88c0.05-1.26-0.14-2.76-0.87-3.83c-0.89-1.31-1.93-0.96-3.44-0.96
		c-2.88,0-15.49-0.74-16.47-0.74C8.17,45.42,7.4,46.51,7.4,46.51z"/>
	
		<radialGradient id="SVGID_7_" cx="35.4392" cy="45.9868" r="23.419" gradientTransform="matrix(-1 0 0 0.4912 70.8783 59.4242)" gradientUnits="userSpaceOnUse">
		<stop  offset="0.7275" style="stop-color:#444140;stop-opacity:0"/>
		<stop  offset="1" style="stop-color:#444140"/>
	</radialGradient>
	<path style="fill:url(#SVGID_7_);" d="M50.03,95.65v-9.44l-28.57-2.26l-2.6,3.2c0,0,6.15,8.51,22.23,8.51L50.03,95.65z"/>
	
		<radialGradient id="SVGID_8_" cx="12.3739" cy="49.4686" r="6.9209" gradientTransform="matrix(0.9057 0.4238 0.3144 -0.6719 -14.3862 106.5233)" gradientUnits="userSpaceOnUse">
		<stop  offset="0.6628" style="stop-color:#444140"/>
		<stop  offset="1" style="stop-color:#444140;stop-opacity:0"/>
	</radialGradient>
	<path style="fill:url(#SVGID_8_);" d="M18.92,83.02c4.28-6.5-5.21-8.93-5.21-8.93s-0.01,0.01-0.01,0.01
		c1.65,2.05,2.4,3.84,1.43,5.61c-1.21,2.21-4.81,2.53-4.81,2.53S15.23,86.6,18.92,83.02z"/>
</g>
<g id="neck">
	<path style="fill:#3C2B24;" d="M50,89.94h-9.08v9.98c0,4.51,3.7,8.17,8.26,8.17h1.65c4.56,0,8.26-3.66,8.26-8.17v-9.98
		C59.08,89.94,50,89.94,50,89.94z"/>
</g>
<g id="ears_2_">
	<path style="fill:#3C2B24;" d="M77.33,50.29H22.67c-5.89,0-10.71,5.14-10.71,11.41s4.82,11.41,10.71,11.41h54.65
		c5.89,0,10.71-5.14,10.71-11.41S83.22,50.29,77.33,50.29z"/>
</g>
<g id="head_1_">
	<path style="fill:#70534A;" d="M50,10.93L50,10.93L50,10.93c-17.4,0-33.52,18.61-33.52,45.4c0,26.64,16.61,39.81,33.52,39.81
		s33.52-13.17,33.52-39.81C83.52,29.54,67.4,10.93,50,10.93z"/>
</g>
<g id="eyebrows_2_">
	<path style="fill:#1A1717;" d="M40.8,49.68c-0.93-1.23-3.07-3.01-7.23-3.01s-6.31,1.79-7.23,3.01c-0.41,0.54-0.31,1.17-0.02,1.55
		c0.26,0.35,1.04,0.68,1.9,0.39s2.54-1.16,5.35-1.18c2.81,0.02,4.49,0.89,5.35,1.18c0.86,0.29,1.64-0.03,1.9-0.39
		C41.1,50.85,41.21,50.22,40.8,49.68z"/>
	<path style="fill:#1A1717;" d="M73.67,49.68c-0.93-1.23-3.07-3.01-7.23-3.01s-6.31,1.79-7.23,3.01c-0.41,0.54-0.31,1.17-0.02,1.55
		c0.26,0.35,1.04,0.68,1.9,0.39s2.54-1.16,5.35-1.18c2.81,0.02,4.49,0.89,5.35,1.18c0.86,0.29,1.64-0.03,1.9-0.39
		C73.97,50.85,74.08,50.22,73.67,49.68z"/>
</g>
<g id="eyes_2_">
	<ellipse style="fill:#1A1717;" cx="33.56" cy="58.67" rx="4.93" ry="5.1"/>
	<ellipse style="fill:#1A1717;" cx="66.44" cy="58.67" rx="4.93" ry="5.1"/>
</g>
<path id="nose_2_" style="fill:#33251F;" d="M53.86,67.92c-0.11-0.04-0.21-0.07-0.32-0.08h-7.08c-0.11,0.01-0.22,0.04-0.32,0.08
	c-0.64,0.26-0.99,0.92-0.69,1.63c0.3,0.71,1.71,2.69,4.55,2.69s4.25-1.99,4.55-2.69C54.85,68.84,54.5,68.18,53.86,67.92z"/>
<path id="hair" style="fill:#232020;" d="M90.07,24.97c-2.44-3.69-7.91-8.64-12.82-8.97c-0.79-4.72-5.84-8.72-10.73-10.27
	C53.29,1.54,44.68,6.24,40.06,8.77c-0.96,0.52-7.17,3.97-11.51,1.5c-2.72-1.55-2.67-5.74-2.67-5.74s-8.52,3.25-5.61,12.3
	c-2.93,0.12-6.77,1.36-8.8,5.47c-2.42,4.9-1.56,8.99-0.86,10.95c-2.52,2.14-5.69,6.69-3.52,12.6c1.64,4.45,8.17,6.5,8.17,6.5
	c-0.62,10.74,2.28,15.95,2.28,15.95s4.69-18.45,4.3-21.27c0,0,7.76-1.54,16.57-6.58c5.95-3.41,10.02-7.4,16.71-8.91
	c10.18-2.29,12.45,5.08,12.45,5.08s9.42-1.81,12.26,11.27c1.17,5.38,1.93,14.3,2.57,19.77c-0.06-0.48,3.24-6.33,3.86-12.33
	c0.16-1.55,4.34-3.6,6.14-10.26C94.79,36.18,91.84,27.64,90.07,24.97z"/>
<g id="hairHighlights">
	
		<radialGradient id="SVGID_9_" cx="68.0189" cy="85.0832" r="35.6328" gradientTransform="matrix(0.3076 0.9515 0.706 -0.2282 -12.9739 -2.3892)" gradientUnits="userSpaceOnUse">
		<stop  offset="0.6985" style="stop-color:#444140;stop-opacity:0"/>
		<stop  offset="1" style="stop-color:#444140"/>
	</radialGradient>
	<path style="fill:url(#SVGID_9_);" d="M86.22,55.37c0.16-1.55,4.34-3.6,6.14-10.26c0.19-0.71,0.35-1.43,0.5-2.15
		c1.46-8.09-1.16-15.52-2.79-17.98c-2.26-3.41-7.1-7.89-11.69-8.81c-0.4-0.05-0.79-0.1-1.16-0.12c0,0,0.33,2.15-0.54,3.86
		c-1.12,2.22-3.41,2.75-3.41,2.75C85.24,34.63,84.39,44.65,86.22,55.37z"/>
	
		<radialGradient id="SVGID_10_" cx="33.28" cy="123.9366" r="9.3426" gradientTransform="matrix(0.8813 0.4726 0.5603 -1.045 -65.4908 117.8499)" gradientUnits="userSpaceOnUse">
		<stop  offset="0.58" style="stop-color:#444140"/>
		<stop  offset="1" style="stop-color:#444140;stop-opacity:0"/>
	</radialGradient>
	<path style="fill:url(#SVGID_10_);" d="M42.95,7.26c-1.1,0.53-2.06,1.06-2.9,1.51c-0.96,0.52-7.17,3.97-11.51,1.5
		c-2.67-1.52-2.67-5.58-2.67-5.72c-1.23,1.57-4.95,12.78,5.93,13.53c4.69,0.32,7.58-3.77,9.3-7.23C41.72,9.58,42.69,7.75,42.95,7.26
		z"/>
	
		<radialGradient id="SVGID_11_" cx="165.2462" cy="50.2678" r="28.7211" gradientTransform="matrix(-0.9378 -0.3944 -0.2182 0.5285 220.0974 59.6379)" gradientUnits="userSpaceOnUse">
		<stop  offset="0.6985" style="stop-color:#444140;stop-opacity:0"/>
		<stop  offset="1" style="stop-color:#444140"/>
	</radialGradient>
	<path style="fill:url(#SVGID_11_);" d="M65.16,5.33c7.32,1.98,10.89,5.71,12.08,10.68c0.35,1.46,0.77,15.08-25.23-0.4
		c-9.67-5.76-7.03-9.36-5.9-9.77C50.53,4.24,56.96,3.11,65.16,5.33z"/>
	
		<radialGradient id="SVGID_12_" cx="29.5288" cy="115.4127" r="8.5755" gradientTransform="matrix(1 0 0 -1.2233 0 153.7721)" gradientUnits="userSpaceOnUse">
		<stop  offset="0.7016" style="stop-color:#444140;stop-opacity:0"/>
		<stop  offset="1" style="stop-color:#444140"/>
	</radialGradient>
	<path style="fill:url(#SVGID_12_);" d="M25.84,4.54c-0.01,0.01-0.03,0.01-0.06,0.03c0,0,0,0,0,0c-0.93,0.39-8.24,3.78-5.51,12.26
		l7.78,1.25c-6.89-6.98-2.17-13.55-2.17-13.55S25.85,4.53,25.84,4.54z"/>
	
		<radialGradient id="SVGID_13_" cx="28.349" cy="100.276" r="16.0834" gradientTransform="matrix(-0.9657 -0.2598 -0.2432 0.9037 80.1125 -55.5299)" gradientUnits="userSpaceOnUse">
		<stop  offset="0.6605" style="stop-color:#444140;stop-opacity:0"/>
		<stop  offset="1" style="stop-color:#444140"/>
	</radialGradient>
	<path style="fill:url(#SVGID_13_);" d="M25.07,17.6l-4.81-0.77c-0.19,0-0.83,0.06-1.18,0.11c-2.71,0.38-5.9,1.78-7.63,5.36
		c-1.86,3.86-1.81,7.17-1.3,9.38c0.15,0.74,0.45,1.58,0.45,1.58s2.38-2.26,8.05-2.41L25.07,17.6z"/>
	
		<radialGradient id="SVGID_14_" cx="24.5334" cy="84.7461" r="16.8856" gradientTransform="matrix(0.9907 0.1363 0.1915 -1.3921 -15.9984 157.8846)" gradientUnits="userSpaceOnUse">
		<stop  offset="0.5981" style="stop-color:#444140;stop-opacity:0"/>
		<stop  offset="1" style="stop-color:#444140"/>
	</radialGradient>
	<path style="fill:url(#SVGID_14_);" d="M10.37,33.44C8,35.55,4.81,40.24,7.16,46.05c1.77,4.39,8.09,6.29,8.09,6.29
		c0,0.02,1.26,0.4,1.91,0.4l1.48-21.9c-3.03,0-5.94,0.91-7.82,2.22C10.85,33.09,10.36,33.41,10.37,33.44z"/>
</g>
<g>
	<path style="fill:#D8D8D8;" d="M50,118.25c0,0,6.12-3.24,10.47-10.19C56.68,107.14,49.64,105.5,50,106l-10.51,2.29
		C43.82,114.98,50,118.25,50,118.25z"/>
	
		<linearGradient id="SVGID_15_" gradientUnits="userSpaceOnUse" x1="42.741" y1="22.0398" x2="42.741" y2="31.2491" gradientTransform="matrix(1 0 0 -1 0 128)">
		<stop  offset="0" style="stop-color:#FFFFFF"/>
		<stop  offset="1" style="stop-color:#BDBDBD"/>
	</linearGradient>
	<path style="fill:url(#SVGID_15_);" d="M40.95,96.31c-1.84,0.13-3.66,0.3-5.47,0.5c0.64,7.08,4.13,12.37,7.53,15.92l6.98-6.74
		C43.65,101.32,41.54,97.59,40.95,96.31z"/>
	
		<linearGradient id="SVGID_16_" gradientUnits="userSpaceOnUse" x1="57.2415" y1="22.0398" x2="57.2415" y2="31.2491" gradientTransform="matrix(1 0 0 -1 0 128)">
		<stop  offset="0" style="stop-color:#FFFFFF"/>
		<stop  offset="1" style="stop-color:#BDBDBD"/>
	</linearGradient>
	<path style="fill:url(#SVGID_16_);" d="M59.03,96.33c-0.59,1.29-2.72,5-9.03,9.67l6.92,6.68c3.27-3.5,6.66-8.72,7.58-15.81
		C62.69,96.65,60.87,96.47,59.03,96.33z"/>
</g>
<path id="mouth" style="fill:#1A1717;" d="M57.77,78.88c-1.08,0-14.46,0-15.55,0c-3.31,0-2.72,1.94-1.12,2.62
	c2.51,1.07,6.06,1.36,8.87,1.37l0,0c0.01,0,0.01,0,0.02,0s0.01,0,0.02,0v0c2.81-0.01,6.36-0.3,8.87-1.37
	C60.49,80.82,61.08,78.88,57.77,78.88z"/>
<g id="gavel_1_">
	<g>
		<path style="fill:#DD8A3E;" d="M99.21,119.57l4.57-24.84c0.04-0.29,0.06-0.57,0.03-0.86l-0.67-8.86
			c-0.18-2.33,1.63-2.63,3.95-2.39l0,0c2.32,0.24,4.03,0.9,3.39,3.14l-2.46,8.54c-0.08,0.28-0.13,0.56-0.14,0.85l-0.6,25.16
			L99.21,119.57z"/>
	</g>
	<g>
		<path style="fill:#DD8A3E;" d="M106.4,75.98l2.34,0.24c1.71,0.18,2.97,1.72,2.8,3.44l-0.06,0.56c-0.18,1.71-1.72,2.97-3.44,2.8
			l-2.34-0.24c-1.71-0.18-2.97-1.72-2.8-3.44l0.06-0.56C103.14,77.06,104.69,75.8,106.4,75.98z"/>
	</g>
	<g>
		
			<rect x="103.05" y="57.25" transform="matrix(0.1021 -0.9948 0.9948 0.1021 29.4152 170.7157)" style="fill:#995F33;" width="12.45" height="23.63"/>
	</g>
	<path style="fill:#DD8A3E;" d="M112.42,76.97l-9.62-0.99c-1.37-0.14-2.37-1.36-2.23-2.74l1.04-10.16c0.14-1.37,1.36-2.37,2.74-2.23
		l9.62,0.99c1.37,0.14,2.37,1.37,2.23,2.73l-1.04,10.16C115.01,76.12,113.79,77.12,112.42,76.97z"/>
	<path style="fill:#DD8A3E;" d="M99.35,67.99c0.59-5.76,0.62-7.94-1.62-8.17c-2.24-0.23-4.42,3.13-4.87,7.51s1,8.11,3.24,8.34
		S98.76,73.75,99.35,67.99z"/>
	<path style="fill:#DD8A3E;" d="M117.42,69.85c0.59-5.76,1.01-7.9,3.25-7.67c2.24,0.23,3.69,3.96,3.24,8.34
		c-0.45,4.38-2.63,7.74-4.87,7.51S116.83,75.61,117.42,69.85z"/>
</g>
<g id="hand_1_">
	
		<radialGradient id="palm_1_" cx="33.3485" cy="135.0711" r="19.3111" gradientTransform="matrix(-0.0347 -0.9994 -1.0566 0.0367 235.3496 144.0109)" gradientUnits="userSpaceOnUse">
		<stop  offset="0.3074" style="stop-color:#70534A"/>
		<stop  offset="1" style="stop-color:#5C4037"/>
	</radialGradient>
	<path id="palm_2_" style="fill:url(#palm_1_);" d="M101.14,103.65c-1.05,0.17-2.08,0.44-3.05,0.88c-1.39,0.63-8.03-1.32-8.44,5.08
		c-0.04,1.77-0.21,7.34,1.29,10.07c3.13,5.71,14.89,4.3,15.78,4.44c5.61,0.87,3.1-17.15-0.07-19.46c-0.4-0.26-1.04-0.58-1.6-0.89
		C103.96,103.19,102.24,103.48,101.14,103.65z"/>
	
		<radialGradient id="finger_1_" cx="116.8536" cy="13.2141" r="14.1497" gradientTransform="matrix(0.936 -0.352 -0.352 -0.936 9.5204 164.3681)" gradientUnits="userSpaceOnUse">
		<stop  offset="0" style="stop-color:#5C4037"/>
		<stop  offset="1" style="stop-color:#70534A"/>
	</radialGradient>
	<path id="finger_9_" style="fill:url(#finger_1_);" d="M109.01,120.28l-6.33-0.14c-0.81-0.04-1.48,0.51-1.62,1.26l0,0
		c-0.16,0.82,0.44,1.6,1.31,1.76l6.26,0.93c1,0.18,1.96-0.49,2.06-1.46l0.05-0.5C110.84,121.15,110.05,120.29,109.01,120.28z"/>
	
		<radialGradient id="finger_2_" cx="112.1016" cy="26.2017" r="14.1353" gradientTransform="matrix(1.0148 0.1678 0.1671 -0.9861 -7.6601 110.5846)" gradientUnits="userSpaceOnUse">
		<stop  offset="0" style="stop-color:#5C4037"/>
		<stop  offset="1" style="stop-color:#70534A"/>
	</radialGradient>
	<path id="finger_8_" style="fill:url(#finger_2_);" d="M89.7,113.94c0,0,1.28,0.89,3.23,1.66c5.94,2.35,6.66-4.92,6.8-6.04
		c0.72-5.78,5.83-4.49,10.16-4.78c0.9-0.06,3.98-0.53,4.81-2.56c0.87-3.38-2.59-3.33-9.9-3.77c-1.99-0.12-3.97-0.09-5.95,0.19
		C89.45,99.95,89.38,109.61,89.7,113.94z"/>
	
		<radialGradient id="finger_3_" cx="118.188" cy="15.037" r="16.0833" gradientTransform="matrix(0.9978 -0.0658 -0.0658 -0.9978 0.9104 134.6742)" gradientUnits="userSpaceOnUse">
		<stop  offset="0" style="stop-color:#5C4037"/>
		<stop  offset="1" style="stop-color:#70534A"/>
	</radialGradient>
	<path id="finger_7_" style="fill:url(#finger_3_);" d="M110.98,110l-9.06,0.77c-1.22,0.09-1.24,1.01-1.3,2.17l0,0
		c-0.09,1.25,0.06,2.33,1.39,2.41l9.1,0.43c1.54,0.08,2.84-1.09,2.82-2.56l-0.01-0.75C113.88,110.97,112.54,109.83,110.98,110z"/>
	
		<radialGradient id="finger_5_" cx="118.8535" cy="16.0261" r="15.3695" gradientTransform="matrix(0.9971 0.0764 0.0764 -0.9971 -2.4216 119.2554)" gradientUnits="userSpaceOnUse">
		<stop  offset="0" style="stop-color:#5C4037"/>
		<stop  offset="1" style="stop-color:#70534A"/>
	</radialGradient>
	<path id="finger_6_" style="fill:url(#finger_5_);" d="M110.86,104.66l-7.77,1.09c-1.16,0.15-1.99,1.09-1.99,2.19l0,0
		c-0.02,1.2,1.03,2.17,2.3,2.18l7.87,0.06c1.47,0,2.67-1.18,2.57-2.59l-0.05-0.72C113.67,105.44,112.34,104.42,110.86,104.66z"/>
	
		<radialGradient id="finger_10_" cx="117.1223" cy="14.6832" r="15.375" gradientTransform="matrix(0.9746 -0.2241 -0.2241 -0.9746 5.3693 151.5126)" gradientUnits="userSpaceOnUse">
		<stop  offset="0" style="stop-color:#5C4037"/>
		<stop  offset="1" style="stop-color:#70534A"/>
	</radialGradient>
	<path id="finger_4_" style="fill:url(#finger_10_);" d="M110.15,115.5l-7.18,0.4c-1.07,0.04-1.9,0.83-1.99,1.84l0,0
		c-0.12,1.09,0.76,2.06,1.92,2.18l7.17,0.66c1.34,0.12,2.53-0.86,2.56-2.15l0.02-0.66C112.65,116.44,111.52,115.4,110.15,115.5z"/>
	<path id="tone_1_" style="fill:#4A2F27;" d="M111.29,115.78c0.11-1.01-8.03,0.03-9.03-0.81c-1.14-0.95-1.02-2.81,0.39-3.44
		c1.57-0.71,9.26-0.99,9.26-1.43c-0.01-0.8-10.03,1.56-10.1-2.04c-0.04-2.23,2.32-2.22,3.9-2.51c0.94-0.17,5.08-0.49,5.08-0.78
		s-1.02-0.2-1.13-0.21c-0.75-0.07-5.58,0.3-6.88,0.61c-2.15,0.51-2.67,1.71-2.71,2.65c-0.06,1.09-0.34,2.54-0.69,3.58
		c-0.75,2.21-3.43,4.25-3.51,4.54c-0.09,0.32,1.71-0.58,2.82-1.77c0.66-0.7,1.57-0.37,1.79,0.57c0.13,0.57,0.24,1.1,0.23,1.34
		c-0.01,0.5-0.04,3.5-0.21,4.53c-0.07,0.4-0.1,0.71,0.03,1.15c0.09,0.32,0.24,0.63,0.44,0.89c0.92,1.2,2.56,1.31,3.9,1.37
		c0.81,0.04,4.03,0.39,4.78-0.04c-1.79-0.02-8.08,0.14-7.82-2.31c0.17-1.37,1.43-0.99,2.35-0.9c1.05,0.09,3.01,0.12,4.06,0.01
		c0.29-0.03,1.83,0,1.83-0.22c0-0.33-3.23-0.37-3.59-0.38c-1.31-0.04-4.04,0.17-4.65-1.38c-0.22-0.57-0.14-1.27,0.24-1.76
		C102.99,115.88,111.24,116.3,111.29,115.78z"/>
</g>
</svg>
