<?xml version="1.0" encoding="utf-8"?>
<!-- Generator: Adobe Illustrator 24.1.2, SVG Export Plug-In . SVG Version: 6.00 Build 0)  -->
<svg version="1.1" id="Layer_1" xmlns="http://www.w3.org/2000/svg" xmlns:xlink="http://www.w3.org/1999/xlink" x="0px" y="0px"
	 viewBox="0 0 128 128" style="enable-background:new 0 0 128 128;" xml:space="preserve">
<g id="hair_x5F_grey_3_">
	<path id="hair_x5F_grey_1_" style="fill:#9E9E9E;" d="M109.4,102.62c-1.62-2.96,0.45-5.96,3.98-9.68c5.6-5.91,11.7-19.6,6.04-33.51
		c0.03-0.08-1.12-2.42-1.08-2.5L116,56.81c-0.75-0.11-26.36-0.16-52-0.16s-51.25,0.05-52,0.16c0,0-3.45,2.54-3.42,2.61
		c-5.66,13.91,0.44,27.6,6.04,33.51c3.53,3.72,5.6,6.73,3.98,9.68c-1.57,2.87-6.26,3.29-6.26,3.29s1.08,2.94,3.69,4.52
		c2.41,1.46,5.37,1.81,7.42,1.86c0,0,8,11.07,28.92,11.07l11.64,0l11.64,0c20.92,0,28.92-11.07,28.92-11.07
		c2.05-0.05,5.01-0.39,7.42-1.86c2.61-1.58,3.69-4.52,3.69-4.52S110.98,105.49,109.4,102.62z"/>
	<g id="hairHighlights_x5F_grey_1_">
		
			<radialGradient id="SVGID_1_" cx="95.2482" cy="21.3487" r="30.4687" gradientTransform="matrix(1 0 0 0.4912 -12.2754 95.1286)" gradientUnits="userSpaceOnUse">
			<stop  offset="0.6985" style="stop-color:#D1D1D1;stop-opacity:0"/>
			<stop  offset="1" style="stop-color:#D1D1D1"/>
		</radialGradient>
		<path style="fill:url(#SVGID_1_);" d="M63.99,123.36v-12.29l37.18-2.94l3.38,4.16c0,0-8,11.07-28.92,11.07L63.99,123.36z"/>
		
			<radialGradient id="SVGID_2_" cx="66.7216" cy="29.7068" r="9.0043" gradientTransform="matrix(-0.9057 0.4238 -0.3144 -0.6719 182.7533 92.7655)" gradientUnits="userSpaceOnUse">
			<stop  offset="0.5838" style="stop-color:#D1D1D1"/>
			<stop  offset="1" style="stop-color:#D1D1D1;stop-opacity:0"/>
		</radialGradient>
		<path style="fill:url(#SVGID_2_);" d="M104.46,106.93c-5.57-8.46,6.78-11.61,6.78-11.61s0.01,0.01,0.01,0.01
			c-2.15,2.67-3.12,5-1.86,7.29c1.57,2.87,6.26,3.29,6.26,3.29S109.27,111.59,104.46,106.93z"/>
		
			<radialGradient id="SVGID_3_" cx="90.6472" cy="52.2799" r="39.5502" gradientTransform="matrix(-0.0746 -0.9972 0.8311 -0.0622 52.9611 169.2599)" gradientUnits="userSpaceOnUse">
			<stop  offset="0.6985" style="stop-color:#D1D1D1;stop-opacity:0"/>
			<stop  offset="1" style="stop-color:#D1D1D1"/>
		</radialGradient>
		<path style="fill:url(#SVGID_3_);" d="M119.45,59.42c5.53,13.47-0.29,27.34-5.74,33.19c-0.75,0.8-3.92,3.92-4.64,6.4
			c0,0-12.42-17.31-16.12-27.49c-0.75-2.05-1.43-4.17-1.52-6.35c-0.07-1.64,0.19-3.59,1.13-4.98c1.16-1.71,26.23-2.21,26.23-2.21
			C118.79,58,119.45,59.42,119.45,59.42z"/>
		
			<radialGradient id="SVGID_4_" cx="40.3057" cy="54.6729" r="39.5502" gradientTransform="matrix(0.0746 -0.9972 -0.8311 -0.0622 80.813 119.2076)" gradientUnits="userSpaceOnUse">
			<stop  offset="0.6985" style="stop-color:#D1D1D1;stop-opacity:0"/>
			<stop  offset="1" style="stop-color:#D1D1D1"/>
		</radialGradient>
		<path style="fill:url(#SVGID_4_);" d="M8.58,59.42c-5.52,13.47,0.29,27.34,5.74,33.19c0.75,0.8,3.92,3.92,4.64,6.4
			c0,0,12.42-17.31,16.12-27.49c0.75-2.05,1.43-4.17,1.52-6.35c0.07-1.64-0.19-3.59-1.13-4.98c-1.16-1.71-2.51-1.25-4.47-1.25
			c-3.75,0-20.15-0.96-21.42-0.96C9.58,58,8.58,59.42,8.58,59.42z"/>
		
			<radialGradient id="SVGID_5_" cx="47.056" cy="21.3487" r="30.4687" gradientTransform="matrix(-1 0 0 0.4912 92.1119 95.1286)" gradientUnits="userSpaceOnUse">
			<stop  offset="0.6985" style="stop-color:#D1D1D1;stop-opacity:0"/>
			<stop  offset="1" style="stop-color:#D1D1D1"/>
		</radialGradient>
		<path style="fill:url(#SVGID_5_);" d="M64.04,123.36v-12.29l-37.18-2.94l-3.38,4.16c0,0,8,11.07,28.92,11.07L64.04,123.36z"/>
		
			<radialGradient id="SVGID_6_" cx="14.7178" cy="28.5641" r="9.0043" gradientTransform="matrix(0.9057 0.4238 0.3144 -0.6719 -7.2631 114.0379)" gradientUnits="userSpaceOnUse">
			<stop  offset="0.5838" style="stop-color:#D1D1D1"/>
			<stop  offset="1" style="stop-color:#D1D1D1;stop-opacity:0"/>
		</radialGradient>
		<path style="fill:url(#SVGID_6_);" d="M23.57,106.93c5.57-8.46-6.78-11.61-6.78-11.61s-0.01,0.01-0.01,0.01
			c2.15,2.67,3.12,5,1.86,7.29c-1.57,2.87-6.26,3.29-6.26,3.29S18.76,111.59,23.57,106.93z"/>
	</g>
</g>
<g id="face_1_">
	<path id="ears" style="fill:#C48E6A;" d="M99.55,64.37h-9.59H38.04h-9.59c-7.67,0-13.94,6.68-13.94,14.85s6.27,14.85,13.94,14.85
		h9.59h51.93h9.59c7.67,0,13.94-6.68,13.94-14.85S107.22,64.37,99.55,64.37z"/>
	<path id="head" style="fill:#E0BB95;" d="M64,13.15L64,13.15L64,13.15c-22.64,0-43.61,24.21-43.61,59.06
		C20.39,106.87,42,124,64,124s43.61-17.13,43.61-51.79C107.61,37.37,86.64,13.15,64,13.15z"/>
	<g id="wrinkles_1_">
		<path id="wrinkle_11_" style="fill:#BA8F63;" d="M42.98,57.37c-0.6,0-1.16-0.36-1.4-0.95c-0.31-0.77,0.07-1.64,0.84-1.95
			c0.37-0.15,9.1-3.54,21.24-3.54c12.13,0,21.48,3.39,21.87,3.53c0.78,0.29,1.18,1.15,0.89,1.92s-1.15,1.18-1.93,0.89
			c-0.09-0.03-9.27-3.35-20.84-3.35c-11.58,0-20.06,3.3-20.14,3.33C43.35,57.34,43.16,57.37,42.98,57.37z"/>
		<path id="wrinkle_10_" style="fill:#BA8F63;" d="M49.03,48.96c-0.64,0-1.23-0.41-1.43-1.05c-0.25-0.79,0.19-1.63,0.98-1.88
			c0.29-0.09,7.29-2.28,15.42-2.28s15.13,2.18,15.43,2.28c0.79,0.25,1.23,1.09,0.98,1.88c-0.25,0.79-1.09,1.22-1.88,0.98
			c-0.07-0.02-6.86-2.14-14.52-2.14c-7.68,0-14.45,2.12-14.52,2.14C49.33,48.93,49.18,48.96,49.03,48.96z"/>
		<path id="wrinkle_9_" style="fill:#BA8F63;" d="M41.91,90.49c-2.63,0-5.27-0.85-7.27-2.53c-0.63-0.53-0.71-1.48-0.18-2.11
			c0.53-0.63,1.48-0.71,2.11-0.18c2.94,2.48,7.74,2.48,10.68,0c0.63-0.53,1.58-0.45,2.11,0.18c0.53,0.63,0.45,1.58-0.18,2.11
			C47.18,89.65,44.54,90.49,41.91,90.49z"/>
		<path id="wrinkle_8_" style="fill:#BA8F63;" d="M86.09,90.49c-2.64,0-5.27-0.85-7.28-2.53c-0.63-0.53-0.71-1.48-0.18-2.11
			c0.53-0.63,1.48-0.71,2.11-0.18c2.94,2.48,7.74,2.48,10.68,0c0.63-0.53,1.58-0.45,2.11,0.18c0.53,0.63,0.45,1.58-0.18,2.11
			C91.36,89.65,88.73,90.49,86.09,90.49z"/>
		<path id="wrinkle_7_" style="fill:#BA8F63;" d="M40.63,105.31c-0.38,0-0.77-0.15-1.06-0.44c-0.59-0.59-0.59-1.54,0-2.12l9.53-9.53
			c0.59-0.59,1.53-0.59,2.12,0s0.59,1.54,0,2.12l-9.53,9.54C41.4,105.17,41.01,105.31,40.63,105.31z"/>
		<path id="wrinkle_6_" style="fill:#BA8F63;" d="M87.37,105.31c-0.38,0-0.77-0.15-1.06-0.44l-9.53-9.53
			c-0.59-0.59-0.59-1.54,0-2.12s1.54-0.59,2.12,0l9.54,9.54c0.59,0.59,0.59,1.54,0,2.12C88.14,105.17,87.75,105.31,87.37,105.31z"/>
	</g>
	<path id="nose_1_" style="fill:#C48E6A;" d="M69.02,89.59c-0.14-0.06-0.28-0.09-0.42-0.11h-9.2c-0.14,0.02-0.28,0.05-0.42,0.11
		c-0.83,0.34-1.29,1.2-0.9,2.12c0.4,0.92,2.23,3.5,5.92,3.5s5.52-2.58,5.92-3.5C70.31,90.79,69.86,89.92,69.02,89.59z"/>
	<path id="mouth_1_" style="fill:#6D4C41;" d="M74.95,100.02c-4.14,2.46-17.73,2.46-21.87,0c-2.38-1.42-4.81,0.75-3.82,2.91
		c0.97,2.12,8.38,7.06,14.79,7.06s13.72-4.93,14.7-7.06C79.73,100.77,77.33,98.6,74.95,100.02z"/>
	<g id="eyes_1_">
		<ellipse style="fill:#5D4037;" cx="42.07" cy="77.34" rx="6.48" ry="6.71"/>
		<ellipse style="fill:#5D4037;" cx="85.93" cy="77.34" rx="6.48" ry="6.71"/>
	</g>
	<g id="eyebrows_x5F_grey_1_">
		<path style="fill:#9E9E9E;" d="M51.46,65.27c-1.2-1.59-3.99-3.91-9.39-3.91s-8.19,2.32-9.39,3.91c-0.53,0.71-0.4,1.52-0.03,2.01
			c0.34,0.46,1.35,0.88,2.47,0.5c1.12-0.38,3.3-1.51,6.95-1.53c3.65,0.03,5.84,1.15,6.95,1.53s2.13-0.04,2.47-0.5
			C51.86,66.79,51.99,65.98,51.46,65.27z"/>
		<path style="fill:#9E9E9E;" d="M95.32,65.27c-1.2-1.59-3.99-3.91-9.39-3.91s-8.19,2.32-9.39,3.91c-0.53,0.71-0.4,1.52-0.03,2.01
			c0.34,0.46,1.35,0.88,2.47,0.5c1.12-0.38,3.3-1.51,6.95-1.53c3.65,0.03,5.84,1.15,6.95,1.53c1.12,0.38,2.13-0.04,2.47-0.5
			C95.72,66.79,95.86,65.98,95.32,65.27z"/>
	</g>
</g>
<g id="hair_x5F_grey_2_">
	<path id="hair_x5F_grey" style="fill:#9E9E9E;" d="M116.14,31.41c-3.18-4.81-10.29-11.25-16.68-11.67
		c-1.02-6.14-7.6-11.34-13.96-13.36c-17.21-5.45-28.42,0.66-34.43,3.94c-1.25,0.68-9.33,5.16-14.98,1.95
		c-3.54-2.01-3.47-7.46-3.47-7.46s-11.09,4.22-7.3,16c-3.81,0.16-8.81,1.76-11.45,7.11c-3.15,6.37-2.03,11.7-1.12,14.25
		c-3.28,2.78-7.4,8.71-4.57,16.4c2.13,5.79,10.63,8.45,10.63,8.45c-0.6,10.42,1.34,16.84,2.37,19.43c0.18,0.45,0.83,0.41,0.94-0.06
		c1.28-5.16,5.68-23.15,5.24-26.29c0,0,14.76-2.93,28.84-13.29c2.87-2.11,5.97-3.91,9.27-5.22c17.68-7.04,21.38,4.97,21.38,4.97
		s12.25-2.35,15.95,14.67c1.39,6.38,2.33,16.59,3.12,23.73c0.06,0.5,0.74,0.61,0.94,0.14c1.24-2.83,3.71-8.46,4.3-14.19
		c0.21-2.02,5.65-4.69,7.98-13.35C122.28,45.99,118.43,34.88,116.14,31.41z"/>
	<g id="hairHighlights_x5F_grey">
		
			<radialGradient id="SVGID_7_" cx="87.184" cy="73.3821" r="46.3592" gradientTransform="matrix(0.3076 0.9515 0.706 -0.2282 8.8157 -11.4622)" gradientUnits="userSpaceOnUse">
			<stop  offset="0.6985" style="stop-color:#D1D1D1;stop-opacity:0"/>
			<stop  offset="1" style="stop-color:#D1D1D1"/>
		</radialGradient>
		<path style="fill:url(#SVGID_7_);" d="M111.12,70.95c0.21-2.02,5.65-4.69,7.98-13.35c0.25-0.92,0.46-1.86,0.65-2.8
			c1.9-10.53-1.51-20.19-3.63-23.39c-2.94-4.44-9.24-10.27-15.22-11.46c-0.52-0.07-1.03-0.13-1.51-0.16c0,0,0.43,2.79-0.7,5.02
			c-1.46,2.89-4.43,3.57-4.43,3.57C109.85,43.97,108.74,57.01,111.12,70.95z"/>
		
			<radialGradient id="SVGID_8_" cx="41.893" cy="125.144" r="12.155" gradientTransform="matrix(0.8813 0.4726 0.5603 -1.045 -64.791 115.1786)" gradientUnits="userSpaceOnUse">
			<stop  offset="0.5838" style="stop-color:#D1D1D1"/>
			<stop  offset="1" style="stop-color:#D1D1D1;stop-opacity:0"/>
		</radialGradient>
		<path style="fill:url(#SVGID_8_);" d="M54.83,8.35c-1.42,0.69-2.68,1.38-3.77,1.97c-1.25,0.68-9.33,5.16-14.98,1.95
			c-3.48-1.98-3.48-7.26-3.47-7.45c-1.6,2.04-6.44,16.63,7.71,17.6c6.1,0.42,9.87-4.9,12.09-9.41C53.22,11.38,54.49,8.99,54.83,8.35
			z"/>
		
			<radialGradient id="SVGID_9_" cx="165.8848" cy="66.1127" r="37.3638" gradientTransform="matrix(-0.9378 -0.3944 -0.2182 0.5285 239.4058 56.761)" gradientUnits="userSpaceOnUse">
			<stop  offset="0.6985" style="stop-color:#D1D1D1;stop-opacity:0"/>
			<stop  offset="1" style="stop-color:#D1D1D1"/>
		</radialGradient>
		<path style="fill:url(#SVGID_9_);" d="M83.72,5.85c9.52,2.58,14.68,7.81,15.72,13.9c0.46,1.9,1,19.62-32.83-0.52
			c-12.58-7.49-9.15-12.18-7.67-12.71C64.69,4.43,73.05,2.96,83.72,5.85z"/>
		
			<radialGradient id="SVGID_10_" cx="37.3665" cy="114.527" r="11.157" gradientTransform="matrix(1 0 0 -1.2233 0 155.3918)" gradientUnits="userSpaceOnUse">
			<stop  offset="0.6985" style="stop-color:#D1D1D1;stop-opacity:0"/>
			<stop  offset="1" style="stop-color:#D1D1D1"/>
		</radialGradient>
		<path style="fill:url(#SVGID_10_);" d="M32.57,4.82c-0.02,0.01-0.04,0.02-0.08,0.03c0,0-0.01,0-0.01,0
			c-1.21,0.51-10.73,4.91-7.17,15.94l10.13,1.63C26.48,13.35,32.61,4.8,32.61,4.8S32.59,4.81,32.57,4.82z"/>
		
			<radialGradient id="SVGID_11_" cx="38.057" cy="93.2619" r="20.925" gradientTransform="matrix(-0.9657 -0.2598 -0.2432 0.9037 95.2641 -39.4094)" gradientUnits="userSpaceOnUse">
			<stop  offset="0.6985" style="stop-color:#D1D1D1;stop-opacity:0"/>
			<stop  offset="1" style="stop-color:#D1D1D1"/>
		</radialGradient>
		<path style="fill:url(#SVGID_11_);" d="M31.57,21.81l-6.26-1.01c-0.24,0-1.08,0.08-1.53,0.14c-3.52,0.49-7.68,2.31-9.92,6.98
			c-2.42,5.02-2.35,9.33-1.7,12.21c0.19,0.97,0.58,2.05,0.58,2.05s3.1-2.94,10.47-3.13L31.57,21.81z"/>
		
			<radialGradient id="SVGID_12_" cx="30.7404" cy="74.4194" r="21.9686" gradientTransform="matrix(0.9907 0.1363 0.1915 -1.3921 -13.8356 154.5974)" gradientUnits="userSpaceOnUse">
			<stop  offset="0.6985" style="stop-color:#D1D1D1;stop-opacity:0"/>
			<stop  offset="1" style="stop-color:#D1D1D1"/>
		</radialGradient>
		<path style="fill:url(#SVGID_12_);" d="M12.44,42.42c-3.08,2.74-7.24,8.84-4.17,16.4c2.31,5.71,10.53,8.19,10.53,8.19
			c0,0.03,1.64,0.51,2.49,0.51l1.92-28.49c-3.94,0-7.72,1.18-10.17,2.88C13.06,41.97,12.43,42.38,12.44,42.42z"/>
	</g>
</g>
</svg>
