<?xml version="1.0" encoding="utf-8"?>
<!-- Generator: Adobe Illustrator 24.0.3, SVG Export Plug-In . SVG Version: 6.00 Build 0)  -->
<svg version="1.1" id="Layer_1" xmlns="http://www.w3.org/2000/svg" xmlns:xlink="http://www.w3.org/1999/xlink" x="0px" y="0px"
	 viewBox="0 0 128 128" style="enable-background:new 0 0 128 128;" xml:space="preserve">
<g id="hairGroup">
	<path id="hair_3_" style="fill:#232020;" d="M98.9,79.85c-1.25-2.27,0.34-4.58,3.06-7.44c4.31-4.54,9-15.07,4.64-25.76
		c0.03-0.06-0.86-1.86-0.83-1.92l-1.79-0.09c-0.57-0.08-20.26-0.12-39.97-0.12s-39.4,0.04-39.97,0.12c0,0-2.65,1.95-2.63,2.01
		c-4.35,10.69,0.33,21.21,4.64,25.76c2.71,2.86,4.3,5.17,3.06,7.44c-1.21,2.21-2.81,2.53-2.81,2.53s-1.17,2.26,0.83,3.48
		c1.85,1.13,4.13,1.39,5.7,1.43c0,0,6.15,8.51,22.23,8.51l8.95,0l8.95,0c16.08,0,22.23-8.51,22.23-8.51c1.57-0.04,3.85-0.3,5.7-1.43
		c2-1.22,2.83-3.48,2.83-3.48S100.11,82.06,98.9,79.85z"/>
	<g id="hairHighlights_1_">
		
			<radialGradient id="SVGID_1_" cx="99.638" cy="45.8498" r="23.419" gradientTransform="matrix(1 0 0 0.4912 -21.0551 59.6285)" gradientUnits="userSpaceOnUse">
			<stop  offset="0.7275" style="stop-color:#444140;stop-opacity:0"/>
			<stop  offset="1" style="stop-color:#444140"/>
		</radialGradient>
		<path style="fill:url(#SVGID_1_);" d="M63.99,95.79v-9.44l28.57-2.26l2.6,3.2c0,0-6.15,8.51-22.23,8.51L63.99,95.79z"/>
		
			<radialGradient id="SVGID_2_" cx="76.5728" cy="49.3316" r="6.9209" gradientTransform="matrix(-0.9057 0.4238 -0.3144 -0.6719 186.5131 79.3597)" gradientUnits="userSpaceOnUse">
			<stop  offset="0.6628" style="stop-color:#444140"/>
			<stop  offset="1" style="stop-color:#444140;stop-opacity:0"/>
		</radialGradient>
		<path style="fill:url(#SVGID_2_);" d="M95.1,83.16c-4.28-6.5,5.21-8.93,5.21-8.93s0.01,0.01,0.01,0.01
			c-1.65,2.05-2.4,3.84-1.43,5.61c1.21,2.21,4.81,2.53,4.81,2.53S98.79,86.74,95.1,83.16z"/>
		
			<radialGradient id="SVGID_3_" cx="94.5091" cy="68.9103" r="30.3992" gradientTransform="matrix(-0.0746 -0.9972 0.8311 -0.0622 33.4938 157.6219)" gradientUnits="userSpaceOnUse">
			<stop  offset="0.7247" style="stop-color:#444140;stop-opacity:0"/>
			<stop  offset="1" style="stop-color:#444140"/>
		</radialGradient>
		<path style="fill:url(#SVGID_3_);" d="M106.62,46.65c4.25,10.35-0.22,21.01-4.41,25.51c-0.57,0.62-3.01,3.01-3.57,4.92
			c0,0-9.54-13.31-12.39-21.13c-0.57-1.58-1.1-3.2-1.17-4.88c-0.05-1.26,0.14-2.76,0.87-3.83c0.89-1.31,20.16-1.7,20.16-1.7
			C106.11,45.55,106.62,46.65,106.62,46.65z"/>
		
			<radialGradient id="SVGID_4_" cx="44.3103" cy="68.9103" r="30.3992" gradientTransform="matrix(0.0746 -0.9972 -0.8311 -0.0622 98.2743 107.563)" gradientUnits="userSpaceOnUse">
			<stop  offset="0.7247" style="stop-color:#444140;stop-opacity:0"/>
			<stop  offset="1" style="stop-color:#444140"/>
		</radialGradient>
		<path style="fill:url(#SVGID_4_);" d="M21.4,46.65C17.16,57,21.63,67.66,25.81,72.15c0.58,0.62,3.01,3.01,3.57,4.92
			c0,0,9.54-13.31,12.39-21.13c0.58-1.58,1.1-3.2,1.17-4.88c0.05-1.26-0.14-2.76-0.87-3.83c-0.89-1.31-1.93-0.96-3.44-0.96
			c-2.88,0-15.49-0.74-16.47-0.74C22.17,45.55,21.4,46.65,21.4,46.65z"/>
		
			<radialGradient id="SVGID_5_" cx="49.4392" cy="45.8498" r="23.419" gradientTransform="matrix(-1 0 0 0.4912 98.8783 59.6285)" gradientUnits="userSpaceOnUse">
			<stop  offset="0.7275" style="stop-color:#444140;stop-opacity:0"/>
			<stop  offset="1" style="stop-color:#444140"/>
		</radialGradient>
		<path style="fill:url(#SVGID_5_);" d="M64.03,95.79v-9.44l-28.57-2.26l-2.6,3.2c0,0,6.15,8.51,22.23,8.51L64.03,95.79z"/>
		
			<radialGradient id="SVGID_6_" cx="27.9515" cy="49.3316" r="6.0658" gradientTransform="matrix(0.9057 0.4238 0.3144 -0.6719 -12.8749 99.9662)" gradientUnits="userSpaceOnUse">
			<stop  offset="0.6628" style="stop-color:#444140"/>
			<stop  offset="1" style="stop-color:#444140;stop-opacity:0"/>
		</radialGradient>
		<path style="fill:url(#SVGID_6_);" d="M32.92,83.16c4.28-6.5-5.21-8.93-5.21-8.93s-0.01,0.01-0.01,0.01
			c1.65,2.05,2.4,3.84,1.43,5.61c-1.21,2.21-2.81,2.53-2.81,2.53S29.23,86.74,32.92,83.16z"/>
	</g>
</g>
<g id="shirt">
	<path d="M112.18,123.94v-4.31c0-13.44-23.76-19.9-47.19-19.87c-23.28,0.02-47.19,5.64-47.19,19.87v4.31H112.18z"/>
</g>
<g id="neck">
	<path style="fill:#3C2B24;" d="M64,90.08h-9.08v9.98c0,4.51,3.7,8.17,8.26,8.17h1.65c4.56,0,8.26-3.66,8.26-8.17v-9.98L64,90.08z"
		/>
</g>
<g id="ears">
	<path style="fill:#3C2B24;" d="M91.33,50.43h-7.37H44.04h-7.37c-5.89,0-10.71,5.14-10.71,11.41s4.82,11.41,10.71,11.41h7.37h39.91
		h7.37c5.89,0,10.71-5.14,10.71-11.41S97.22,50.43,91.33,50.43z"/>
</g>
<g id="head">
	<path style="fill:#70534A;" d="M64,11.07L64,11.07L64,11.07c-17.4,0-33.52,18.61-33.52,45.4c0,26.64,16.61,39.81,33.52,39.81
		S97.52,83.1,97.52,56.46C97.52,29.68,81.4,11.07,64,11.07z"/>
</g>
<linearGradient id="tattoo_1_" gradientUnits="userSpaceOnUse" x1="52.9945" y1="91.0816" x2="52.9945" y2="55.0133" gradientTransform="matrix(1 0 0 -1 0 128)">
	<stop  offset="0" style="stop-color:#FF6D00"/>
	<stop  offset="0.2625" style="stop-color:#FD6900"/>
	<stop  offset="0.5023" style="stop-color:#F75E00"/>
	<stop  offset="0.7332" style="stop-color:#EE4C00"/>
	<stop  offset="0.9573" style="stop-color:#E03200"/>
	<stop  offset="1" style="stop-color:#DD2C00"/>
</linearGradient>
<polygon id="tattoo" style="fill:url(#tattoo_1_);" points="42.78,41.56 73.59,27.89 58.28,47.99 68.37,45.87 38.13,82.28 
	40.01,67.03 32.4,70.15 "/>
<g id="eyes">
	<ellipse style="fill:#1A1717;" cx="47.56" cy="58.81" rx="4.93" ry="5.1"/>
	<ellipse style="fill:#1A1717;" cx="80.44" cy="58.81" rx="4.93" ry="5.1"/>
</g>
<g id="eyebrows">
	<path style="fill:#1A1717;" d="M54.99,50.32c-0.93-1.23-3.07-3.01-7.23-3.01s-6.31,1.79-7.23,3.01c-0.41,0.54-0.31,1.17-0.02,1.55
		c0.26,0.35,1.04,0.68,1.9,0.39s2.54-1.16,5.35-1.18c2.81,0.02,4.49,0.89,5.35,1.18c0.86,0.29,1.64-0.03,1.9-0.39
		C55.29,51.49,55.39,50.86,54.99,50.32z"/>
	<path style="fill:#1A1717;" d="M87.48,50.32c-0.93-1.23-3.07-3.01-7.23-3.01s-6.31,1.79-7.23,3.01c-0.41,0.54-0.31,1.17-0.02,1.55
		c0.26,0.35,1.04,0.68,1.9,0.39s2.54-1.16,5.35-1.18c2.81,0.02,4.49,0.89,5.35,1.18c0.86,0.29,1.64-0.03,1.9-0.39
		C87.79,51.49,87.89,50.86,87.48,50.32z"/>
</g>
<path id="nose" style="fill:#33251F;" d="M67.86,68.06c-0.11-0.04-0.21-0.07-0.32-0.08h-7.08c-0.11,0.01-0.22,0.04-0.32,0.08
	c-0.64,0.26-0.99,0.92-0.69,1.63c0.3,0.71,1.71,2.69,4.55,2.69s4.25-1.99,4.55-2.69C68.85,68.98,68.5,68.32,67.86,68.06z"/>
<path id="mouth" style="fill:#1A1717;" d="M72.42,76.14c-3.18,1.89-13.63,1.89-16.81,0c-1.83-1.09-3.7,0.58-2.94,2.24
	c0.75,1.63,6.44,5.42,11.37,5.42s10.55-3.79,11.3-5.42C76.09,76.72,74.25,75.05,72.42,76.14z"/>
<g id="hand_1_">
	<g id="finger">
		
			<linearGradient id="SVGID_7_" gradientUnits="userSpaceOnUse" x1="111.1577" y1="46.9125" x2="118.2569" y2="46.9125" gradientTransform="matrix(1 0 0 -1 0 128)">
			<stop  offset="0.5" style="stop-color:#70534A"/>
			<stop  offset="1" style="stop-color:#5C4037"/>
		</linearGradient>
		<path style="fill:url(#SVGID_7_);" d="M113.84,86.8l0.09-0.01c1.72,0.18,3.27-0.87,3.47-2.36l0.83-6.02
			c0.2-1.49-1.04-2.85-2.75-3.03l0,0c-1.72-0.18-3.27,0.87-3.47,2.36l-0.83,6.02C110.98,85.25,112.12,86.62,113.84,86.8z"/>
	</g>
	
		<linearGradient id="hand_2_" gradientUnits="userSpaceOnUse" x1="99.1937" y1="47.1249" x2="123.7843" y2="47.1249" gradientTransform="matrix(1 0 0 -1 0 128)">
		<stop  offset="0.5" style="stop-color:#70534A"/>
		<stop  offset="1" style="stop-color:#5C4037"/>
	</linearGradient>
	<path id="hand" style="fill:url(#hand_2_);" d="M112.18,100.06c-4.97,0.15-10.43-0.91-12.08-5.94c-0.88-2.69-0.66-5.45-0.1-8.03
		c0.62-2.86,0.67-4.31,0.47-6.57c-0.14-1.66-1.19-14.62-1.19-14.62s-0.64-2.36,1.48-3.04c2.33-0.89,3.19,1.68,3.19,1.68l2.52,17.84
		l10.98,1.25c0,0,0.43-0.71,0.67-2.49c0.11-0.76-0.03-2.17,0.09-3.07c0.57-4.16,1.27-9.19,1.34-9.61c0.12-0.72,0.9-1.78,2.39-1.57
		c1.5,0.2,1.89,1.31,1.82,2.03c-0.07,0.73-0.61,6.56-0.61,6.56c-0.16,2.8-0.32,5.89-0.06,8.68l0.21,2.24
		c0.34,3.61-0.19,7.4-1.76,10.22C119.93,98.57,117.15,99.91,112.18,100.06z"/>
	<g id="finger_1_">
		
			<linearGradient id="SVGID_8_" gradientUnits="userSpaceOnUse" x1="105.6826" y1="47.1361" x2="112.4507" y2="47.1361" gradientTransform="matrix(0.9997 -0.0225 -0.0225 -0.9997 0.9381 130.4275)">
			<stop  offset="0.5" style="stop-color:#70534A"/>
			<stop  offset="1" style="stop-color:#5C4037"/>
		</linearGradient>
		<path style="fill:url(#SVGID_8_);" d="M108.6,87.02L108.6,87.02c1.73,0.04,3.19-1.14,3.27-2.64l0.34-6.91
			c0.07-1.5-1.26-2.75-2.99-2.8l0,0c-1.73-0.04-3.19,1.14-3.27,2.64l-0.34,6.91C105.53,85.73,106.87,86.98,108.6,87.02z"/>
	</g>
	
		<linearGradient id="finger_3_" gradientUnits="userSpaceOnUse" x1="108.6423" y1="44.0858" x2="106.6423" y2="28.6905" gradientTransform="matrix(1 0 0 -1 0 128)">
		<stop  offset="0.5" style="stop-color:#70534A"/>
		<stop  offset="1" style="stop-color:#5C4037"/>
	</linearGradient>
	<path id="finger_2_" style="fill:url(#finger_3_);" d="M113.84,82.79c-1.93-0.34-4.32-0.77-6.61-0.89
		c-0.32-0.02-0.64-0.03-0.96-0.04c-3.01-0.05-5.2,1.63-6.29,5.4c0,0,0,0,0,0c-0.04,0.12-0.07,0.24-0.11,0.37
		c-0.06,0.22-0.12,0.46-0.17,0.72c0,0.01,0,0.02,0,0.03c-0.07,0.34-0.14,0.69-0.19,1.07c-0.19,1.25-0.07,2.45,0.22,3.42
		c0.79,3.46,3.22,5.1,3.22,5.1s6.29,3.15,7.73,0s-0.65-7.55-0.65-7.55l-2.92-1.73c0.61-0.75,1.5-1.07,3.25-0.97
		c0.55,0.03,1.22,0.1,2.04,0.18c0.08,0.01,1.08,0.12,1.15,0.12c1.11,0.06,1.98-0.28,2.66-1.04c0.88-0.99,0.77-2.67,0.84-3.47
		C116.25,83.43,114.9,82.98,113.84,82.79z"/>
</g>
<g id="suit">
	<g>
		
			<linearGradient id="SVGID_9_" gradientUnits="userSpaceOnUse" x1="35.9395" y1="25.3877" x2="35.9395" y2="-0.3117" gradientTransform="matrix(1 0 0 -1 0 128)">
			<stop  offset="4.000000e-03" style="stop-color:#666666"/>
			<stop  offset="0.0118" style="stop-color:#656565"/>
			<stop  offset="0.2735" style="stop-color:#484747"/>
			<stop  offset="0.5297" style="stop-color:#343131"/>
			<stop  offset="0.7756" style="stop-color:#272324"/>
			<stop  offset="1" style="stop-color:#231F20"/>
		</linearGradient>
		<path style="fill:url(#SVGID_9_);" d="M54.38,123.94l-0.87-21.59c-3.41,1.41-6.85,2.1-10.46,2.1c0,0,0,0,0,0
			c-5.9,0-11.08-1.9-15.23-3.43c-2.84-1.04-5.3-1.95-7.15-1.95c-2.26,0-3.18,1.97-3.18,6.81v18.06L54.38,123.94L54.38,123.94z"/>
		
			<linearGradient id="SVGID_10_" gradientUnits="userSpaceOnUse" x1="3073.043" y1="25.3877" x2="3073.043" y2="-0.3117" gradientTransform="matrix(-1 0 0 -1 3166.2466 128)">
			<stop  offset="4.000000e-03" style="stop-color:#666666"/>
			<stop  offset="0.0118" style="stop-color:#656565"/>
			<stop  offset="0.2735" style="stop-color:#484747"/>
			<stop  offset="0.5297" style="stop-color:#343131"/>
			<stop  offset="0.7756" style="stop-color:#272324"/>
			<stop  offset="1" style="stop-color:#231F20"/>
		</linearGradient>
		<path style="fill:url(#SVGID_10_);" d="M111.8,123.94v-18.06c0-4.83-0.92-6.81-3.18-6.81c-1.83,0-4.39,0.88-7.34,1.91
			c-4.41,1.53-9.9,3.43-16.04,3.43c-3.72,0-7.22-0.68-10.64-2.07l0.12,21.6H111.8z"/>
		
			<linearGradient id="SVGID_11_" gradientUnits="userSpaceOnUse" x1="40.5315" y1="13.6667" x2="40.5315" y2="-9.094238e-03" gradientTransform="matrix(1 0 0 -1 0 128)">
			<stop  offset="4.000000e-03" style="stop-color:#666666"/>
			<stop  offset="0.2657" style="stop-color:#717273"/>
			<stop  offset="0.6493" style="stop-color:#7C7E81"/>
			<stop  offset="1" style="stop-color:#808285"/>
		</linearGradient>
		<polygon style="fill:url(#SVGID_11_);" points="57.95,123.94 56.21,112 23.12,118.22 27.23,123.94 		"/>
		
			<linearGradient id="SVGID_12_" gradientUnits="userSpaceOnUse" x1="41.5985" y1="28.8333" x2="41.5985" y2="1.3313" gradientTransform="matrix(1 0 0 -1 0 128)">
			<stop  offset="0" style="stop-color:#FF6D00"/>
			<stop  offset="0.2625" style="stop-color:#FD6900"/>
			<stop  offset="0.5023" style="stop-color:#F75E00"/>
			<stop  offset="0.7332" style="stop-color:#EE4C00"/>
			<stop  offset="0.9573" style="stop-color:#E03200"/>
			<stop  offset="1" style="stop-color:#DD2C00"/>
		</linearGradient>
		<polygon style="fill:url(#SVGID_12_);" points="39.61,123.94 57.88,123.94 54.92,96.91 25.32,104.11 38.14,121.83 		"/>
		
			<linearGradient id="SVGID_13_" gradientUnits="userSpaceOnUse" x1="87.282" y1="13.6667" x2="87.282" y2="-9.094238e-03" gradientTransform="matrix(1 0 0 -1 0 128)">
			<stop  offset="4.000000e-03" style="stop-color:#666666"/>
			<stop  offset="0.2657" style="stop-color:#717273"/>
			<stop  offset="0.6493" style="stop-color:#7C7E81"/>
			<stop  offset="1" style="stop-color:#808285"/>
		</linearGradient>
		<polygon style="fill:url(#SVGID_13_);" points="100.85,123.94 104.87,118.34 71.33,112 69.69,123.94 		"/>
		
			<linearGradient id="SVGID_14_" gradientUnits="userSpaceOnUse" x1="86.0985" y1="28.8333" x2="86.0985" y2="1.3313" gradientTransform="matrix(1 0 0 -1 0 128)">
			<stop  offset="0" style="stop-color:#FF6D00"/>
			<stop  offset="0.2625" style="stop-color:#FD6900"/>
			<stop  offset="0.5023" style="stop-color:#F75E00"/>
			<stop  offset="0.7332" style="stop-color:#EE4C00"/>
			<stop  offset="0.9573" style="stop-color:#E03200"/>
			<stop  offset="1" style="stop-color:#DD2C00"/>
		</linearGradient>
		<polygon style="fill:url(#SVGID_14_);" points="87.07,123.94 89.61,120.29 102.43,102.57 73.08,96.91 69.76,123.94 		"/>
		
			<linearGradient id="SVGID_15_" gradientUnits="userSpaceOnUse" x1="110.297" y1="29.982" x2="110.297" y2="-8.4232" gradientTransform="matrix(1 0 0 -1 0 128)">
			<stop  offset="4.000000e-03" style="stop-color:#666666"/>
			<stop  offset="0.6314" style="stop-color:#393637"/>
			<stop  offset="1" style="stop-color:#231F20"/>
		</linearGradient>
		<polygon style="fill:url(#SVGID_15_);" points="121.73,123.94 121.58,97.94 98.87,98.02 98.88,123.94 		"/>
	</g>
	<g>
		<circle style="fill:#E6E7E8;" cx="99.69" cy="107.95" r="4.11"/>
		<circle style="fill:#FF3D00;" cx="110.3" cy="107.92" r="4.11"/>
		<circle style="fill:#808285;" cx="120.9" cy="107.88" r="4.11"/>
	</g>
</g>
<g id="mike">
	<g>
		<path style="fill:#5D5F61;" d="M34.21,87.9l-22.72,9.39l-0.34-0.66c-0.07,0.06-0.14,0.12-0.23,0.17l-1.25,0.73v26.41H6.54V99.33
			c-0.82,0.37-1.79,0.09-2.27-0.69c-0.53-0.85-0.25-1.98,0.62-2.49l4.22-2.46c0.15-0.09,0.31-0.14,0.47-0.18l-0.63-1.26l21.19-12.73
			c-0.04,0.37-0.05,0.74-0.04,1.12C30.21,83.71,31.82,86.36,34.21,87.9z"/>
	</g>
	<g>
		<path style="fill:#5D5F61;" d="M42.68,86.85c-0.22,0.11-0.44,0.21-0.67,0.29c-0.43,0.17-0.87,0.3-1.31,0.38
			c-1.5,0.28-3.03,0.1-4.39-0.49l-0.92,0.38c-2.47-1.28-4.19-3.82-4.29-6.8c-0.02-0.59,0.03-1.18,0.14-1.74l0.74-0.45
			c0.34-1.44,1.1-2.78,2.21-3.79c0.33-0.33,0.68-0.6,1.07-0.84c0.21-0.14,0.43-0.27,0.66-0.38c3.72-1.87,8.24-0.37,10.1,3.34
			C47.89,80.46,46.4,84.98,42.68,86.85z"/>
	</g>
</g>
<linearGradient id="SVGID_16_" gradientUnits="userSpaceOnUse" x1="69.6135" y1="20.1638" x2="69.6135" y2="3.7695" gradientTransform="matrix(1 0 0 -1 0 128)">
	<stop  offset="0.2066" style="stop-color:#212121;stop-opacity:0"/>
	<stop  offset="1" style="stop-color:#BFBEBE"/>
</linearGradient>
<rect x="17.5" y="112.52" style="opacity:0.3;fill:url(#SVGID_16_);enable-background:new    ;" width="104.23" height="11.42"/>
<g id="hairGroup_1_">
	<path id="hair" style="fill:#232020;" d="M104.07,25.11c-2.44-3.69-7.91-8.64-12.82-8.97c-0.79-4.72-5.84-8.72-10.73-10.27
		C67.29,1.68,58.68,6.38,54.06,8.9c-0.96,0.52-7.17,3.97-11.51,1.5c-2.72-1.55-2.67-5.74-2.67-5.74s-8.52,3.25-5.61,12.3
		c-2.93,0.12-6.77,1.36-8.8,5.47c-2.42,4.9-1.56,8.99-0.86,10.95c-2.52,2.14-5.69,6.69-3.52,12.6c1.64,4.45,8.17,6.5,8.17,6.5
		c-0.46,8.01,1.03,12.94,1.82,14.93c0.14,0.35,0.63,0.32,0.72-0.04c0.99-3.97,4.37-17.8,4.03-20.21c0,0,11.35-2.25,22.17-10.22
		c2.2-1.62,4.59-3,7.13-4.01c13.59-5.41,16.43,3.82,16.43,3.82s9.42-1.81,12.26,11.27c1.07,4.9,1.79,12.75,2.4,18.24
		c0.04,0.39,0.57,0.47,0.72,0.11c0.95-2.18,2.85-6.5,3.3-10.91c0.16-1.55,4.34-3.6,6.14-10.26
		C108.79,36.32,105.84,27.78,104.07,25.11z"/>
	<g id="hairHighlights">
		
			<radialGradient id="SVGID_17_" cx="82.0189" cy="84.9462" r="35.6328" gradientTransform="matrix(0.3076 0.9515 0.706 -0.2282 -3.1836 -15.6046)" gradientUnits="userSpaceOnUse">
			<stop  offset="0.6985" style="stop-color:#444140;stop-opacity:0"/>
			<stop  offset="1" style="stop-color:#444140"/>
		</radialGradient>
		<path style="fill:url(#SVGID_17_);" d="M100.22,55.5c0.16-1.55,4.34-3.6,6.14-10.26c0.19-0.71,0.35-1.43,0.5-2.15
			c1.46-8.09-1.16-15.52-2.79-17.98c-2.26-3.41-7.1-7.89-11.69-8.81c-0.4-0.05-0.79-0.1-1.16-0.12c0,0,0.33,2.15-0.54,3.86
			c-1.12,2.22-3.41,2.75-3.41,2.75C99.24,34.77,98.39,44.79,100.22,55.5z"/>
		
			<radialGradient id="SVGID_18_" cx="47.28" cy="123.7996" r="9.3426" gradientTransform="matrix(0.8813 0.4726 0.5603 -1.045 -63.7521 111.2277)" gradientUnits="userSpaceOnUse">
			<stop  offset="0.58" style="stop-color:#444140"/>
			<stop  offset="1" style="stop-color:#444140;stop-opacity:0"/>
		</radialGradient>
		<path style="fill:url(#SVGID_18_);" d="M56.95,7.39c-1.1,0.53-2.06,1.06-2.9,1.51c-0.96,0.52-7.17,3.97-11.51,1.5
			c-2.67-1.52-2.67-5.58-2.67-5.72c-1.23,1.57-4.95,12.78,5.93,13.53c4.69,0.32,7.58-3.77,9.3-7.23
			C55.72,9.72,56.69,7.88,56.95,7.39z"/>
		
			<radialGradient id="SVGID_19_" cx="159.0551" cy="62.8623" r="28.7211" gradientTransform="matrix(-0.9378 -0.3944 -0.2182 0.5285 231.0394 50.6776)" gradientUnits="userSpaceOnUse">
			<stop  offset="0.6985" style="stop-color:#444140;stop-opacity:0"/>
			<stop  offset="1" style="stop-color:#444140"/>
		</radialGradient>
		<path style="fill:url(#SVGID_19_);" d="M79.16,5.47c7.32,1.98,10.89,5.71,12.08,10.68c0.35,1.46,0.77,15.08-25.23-0.4
			c-9.67-5.76-7.03-9.36-5.9-9.77C64.53,4.38,70.96,3.25,79.16,5.47z"/>
		
			<radialGradient id="SVGID_20_" cx="43.5288" cy="115.2758" r="8.5755" gradientTransform="matrix(1 0 0 -1.2233 0 153.7415)" gradientUnits="userSpaceOnUse">
			<stop  offset="0.7016" style="stop-color:#444140;stop-opacity:0"/>
			<stop  offset="1" style="stop-color:#444140"/>
		</radialGradient>
		<path style="fill:url(#SVGID_20_);" d="M39.84,4.68c-0.01,0.01-0.03,0.01-0.06,0.03c0,0,0,0-0.01,0
			c-0.93,0.39-8.24,3.78-5.51,12.25l7.78,1.25c-6.89-6.98-2.17-13.55-2.17-13.55S39.85,4.67,39.84,4.68z"/>
		
			<radialGradient id="SVGID_21_" cx="42.349" cy="100.139" r="16.0834" gradientTransform="matrix(-0.9657 -0.2598 -0.2432 0.9037 107.5984 -51.6315)" gradientUnits="userSpaceOnUse">
			<stop  offset="0.6605" style="stop-color:#444140;stop-opacity:0"/>
			<stop  offset="1" style="stop-color:#444140"/>
		</radialGradient>
		<path style="fill:url(#SVGID_21_);" d="M39.07,17.73l-4.81-0.77c-0.19,0-0.83,0.06-1.18,0.11c-2.71,0.38-5.9,1.78-7.63,5.36
			c-1.86,3.86-1.81,7.17-1.3,9.38c0.15,0.74,0.45,1.58,0.45,1.58s2.38-2.26,8.05-2.41L39.07,17.73z"/>
		
			<radialGradient id="SVGID_22_" cx="38.5334" cy="84.6091" r="16.8856" gradientTransform="matrix(0.9907 0.1363 0.1915 -1.3921 -15.8415 155.9227)" gradientUnits="userSpaceOnUse">
			<stop  offset="0.5981" style="stop-color:#444140;stop-opacity:0"/>
			<stop  offset="1" style="stop-color:#444140"/>
		</radialGradient>
		<path style="fill:url(#SVGID_22_);" d="M24.37,33.58c-2.37,2.1-5.56,6.79-3.21,12.61c1.77,4.39,8.09,6.29,8.09,6.29
			c0,0.02,1.26,0.4,1.91,0.4l1.48-21.9c-3.03,0-5.94,0.91-7.82,2.22C24.85,33.23,24.36,33.55,24.37,33.58z"/>
	</g>
</g>
<circle style="fill:#434444;" cx="39.07" cy="80.35" r="7.97"/>
<g>
	<path style="fill:#727475;" d="M35.39,87.41l-1.18,0.49c-2.39-1.54-4-4.19-4.11-7.26c-0.01-0.38,0-0.75,0.04-1.12l1.1-0.65
		c-0.11,0.56-0.16,1.15-0.14,1.74C31.2,83.59,32.92,86.13,35.39,87.41z"/>
</g>
<path style="fill:#434444;" d="M42.72,87.44c-0.42,0.22-0.86,0.39-1.31,0.53c-0.01-0.01-0.01-0.01-0.01-0.01
	c-0.39-0.21-0.79-0.48-1.19-0.81c-1.4-1.13-2.75-2.83-3.84-4.82c-0.09-0.17-0.19-0.34-0.27-0.51c-1.49-2.9-2.11-5.76-1.88-7.82
	c0.36-0.28,0.75-0.52,1.16-0.74c0.91-0.48,1.94-0.77,3.02-0.86c0.13-0.01,0.27-0.02,0.41-0.03c0.47-0.02,0.94,0.01,1.4,0.08
	c3.76,0.53,6.71,3.7,6.83,7.63c0.05,1.45-0.29,2.82-0.94,4.01c-0.28,0.55-0.64,1.06-1.05,1.51C44.4,86.36,43.61,86.98,42.72,87.44z"
	/>
<g>
	<g>
		<path style="fill:#5D5F61;" d="M40.85,86.39c-1.41-1.13-2.78-2.91-3.84-5.01c-1.74-3.41-2.15-6.46-1.61-8.1
			c-0.41,0.21-0.8,0.46-1.16,0.74c-0.23,2.05,0.4,4.91,1.88,7.82c0.08,0.17,0.18,0.35,0.27,0.51c1.09,1.99,2.44,3.69,3.84,4.82
			c0.41,0.32,0.81,0.6,1.19,0.81c0,0,0,0,0.01,0.01c0.45-0.14,0.89-0.31,1.31-0.53C42.15,87.28,41.52,86.92,40.85,86.39z"/>
	</g>
</g>
<path id="tone" style="fill:#4A2F27;" d="M118.18,77.58c-0.18,1.35-1.35,5.21-1.35,5.21c-1.5-0.61-2.87-1.04-4.12-1.34
	c-0.12-0.89-0.41-3.05-0.52-4.34c-0.25,1.06-0.9,3.18-1.16,4.01c-1.78-0.28-3.28-0.26-4.53-0.06c-0.08-0.69-0.38-3.07-0.54-3.75
	c-0.12,0.6-0.22,1.91-0.34,2.52c-0.11,0.56-0.25,1.17-0.32,1.48c-1.31,0.36-2.27,0.91-2.96,1.43c-0.53,0.36-0.99,0.79-1.32,1.34
	c-0.06,0.09-0.1,0.15-0.1,0.15c0.96-0.87,2.29-1.35,3.53-1.65c3.41-0.82,7.86-0.51,11.07,0.91c1.32,0.59,1.58,1.6,0.71,2.73
	c-1.27,1.67-3.45,0.91-5.2,0.76c-1.52-0.13-4.04,0.06-4.49,1.93c3.4,0.53,4.61,4.26,4.52,7.29c1.26-2.8,0.44-5.83-2.57-7.8
	c1.93-1.06,8.31,2.03,9.27-2.89C118.18,83.3,118.24,78.62,118.18,77.58z"/>
</svg>
