<?xml version="1.0" encoding="utf-8"?>
<!-- Generator: Adobe Illustrator 24.0.3, SVG Export Plug-In . SVG Version: 6.00 Build 0)  -->
<svg version="1.1" id="Layer_1" xmlns="http://www.w3.org/2000/svg" xmlns:xlink="http://www.w3.org/1999/xlink" x="0px" y="0px"
	 viewBox="0 0 128 128" style="enable-background:new 0 0 128 128;" xml:space="preserve">
<g id="head_3_">
	<path id="head_4_" style="fill:#A56C43;" d="M86.76,13.59c-2.51-4.06-8.2-7.22-12.91-6.44c-5.28,0.87-8.11,4.67-8.86,9.49
		c-0.27,1.75-0.22,3.49,0.08,4.72c0.04,0.15,0.33,1.22,0.35,1.56c0.2,1.3-2.32,2.59-2.61,4.02c-0.22,1.08,2.03,1.77,2.21,1.96
		c0.88,0.97-0.51,5.58,5.66,6.04c2.37,0.18,1.91,0.03,2.61,0.3c1.09,0.42,0.99,3.32,0.99,3.32s0.61,4.78,4.69,3.51
		c4.66-1.44,4.84-4.74,4.84-4.74s-1.25-4.61,1.05-9.38C87.07,24.12,88.38,16.19,86.76,13.59z"/>
</g>
<path id="mouth_2_" style="fill:#473530;" d="M65.64,31.48c0.86,0.05,1.7-0.15,2.43-0.69c0.79-0.59,0.25-1.24-0.66-0.86
	c-0.55,0.23-1.32,0.35-2.02,0.22L65.64,31.48z"/>
<ellipse id="eye_2_" transform="matrix(0.9995 -0.0315 0.0315 0.9995 -0.7101 2.1929)" style="fill:#42312C;" cx="69.24" cy="23.63" rx="1.13" ry="1.74"/>
<path id="eyebrow_2_" style="fill:#42312C;" d="M68.36,21.07c-1.12,0.26-1.34-0.48-0.94-1.04c0.29-0.42,0.98-0.74,2.25-0.42
	c1.2,0.3,1.66,1.03,1.97,1.47s0.24,0.86-0.04,0.89C71.22,21.99,69.75,20.74,68.36,21.07z"/>
<g id="cane">
	<g>
		
			<linearGradient id="SVGID_1_" gradientUnits="userSpaceOnUse" x1="52.439" y1="40.7397" x2="31.4909" y2="15.0241" gradientTransform="matrix(0.9991 0.0432 0.0432 -0.9991 3.7744 120.713)">
			<stop  offset="0.4697" style="stop-color:#E0E0E0"/>
			<stop  offset="0.9915" style="stop-color:#BDBDBD"/>
		</linearGradient>
		<polygon style="fill:url(#SVGID_1_);" points="23.68,121.23 21.55,119.19 57.34,81.65 67.22,71.39 69.35,73.42 54.03,89.42 		"/>
		
			<rect x="19.76" y="112.07" transform="matrix(0.69 -0.7239 0.7239 0.69 -73.203 56.1838)" style="fill:#FF3D00;" width="18.44" height="2.95"/>
		
			<linearGradient id="SVGID_2_" gradientUnits="userSpaceOnUse" x1="34.6211" y1="116.5501" x2="30.6055" y2="120.5639" gradientTransform="matrix(0.9981 0.0607 -0.0607 0.9981 -3.057 0.3117)">
			<stop  offset="0.4697" style="stop-color:#E0E0E0"/>
			<stop  offset="0.9915" style="stop-color:#BDBDBD"/>
		</linearGradient>
		<circle style="fill:url(#SVGID_2_);" cx="21.81" cy="121.05" r="2.86"/>
	</g>
	<path style="fill:#636262;" d="M57.34,81.65l2.15,2.05l11.79-12.28c0.39-0.4,0.37-1.04-0.03-1.43l-0.68-0.65
		c-0.4-0.38-1.04-0.37-1.42,0.03L57.34,81.65z"/>
</g>
<g id="leg_x5F_right">
	<path style="fill:#616161;" d="M104.36,108.76l-14-15.97c-0.87-1-1.39-2.25-1.47-3.57l-1.37-22.35l-15.42,1.7l4.86,23.06
		c0.79,3.73,2.88,7.06,5.91,9.37l16.41,12.53L104.36,108.76z"/>
</g>
<g id="leg_x5F_left">
	<path style="fill:#7C7C7C;" d="M87.33,63.18l-17.49,1.6l-4.5,20.29c-0.83,3.74-1.12,7.59-0.85,11.42l1.63,23.12h6.64l2.94-24.9
		c0,0,4.98-13.26,5.14-13.33c3.26-1.54,7.38-3.89,7.38-9.64C88.22,70.92,87.33,63.18,87.33,63.18z"/>
</g>
<g id="shoe_x5F_left">
	<path style="fill:#4568AD;" d="M73.85,123.98c0.63,0,1.14-0.51,1.14-1.14l0-2.79c0-1.89-1.92-4.05-1.92-4.05h-6.94l-6.25,2.06
		c-1.51,0.59-2.51,2.05-2.53,3.68L57.35,123c0,0.55,0.44,1,1,1L73.85,123.98z"/>
</g>
<g id="shoe_x5F_right">
	<path style="fill:#325599;" d="M108.72,111.9c0.44-0.45,0.44-1.17,0-1.61l-1.97-1.97c-1.34-1.34-4.22-1.51-4.22-1.51l-4.91,4.91
		l-2.96,5.88c-0.65,1.49-0.33,3.23,0.81,4.39l0.89,0.89c0.39,0.39,1.02,0.39,1.41,0L108.72,111.9z"/>
</g>
<g id="shirt">
	
		<radialGradient id="SVGID_3_" cx="73.7035" cy="77.3572" r="21.1882" gradientTransform="matrix(1 0 0 -1 0 130)" gradientUnits="userSpaceOnUse">
		<stop  offset="0.3666" style="stop-color:#F58B21"/>
		<stop  offset="1" style="stop-color:#EC6E24"/>
	</radialGradient>
	<path style="fill:url(#SVGID_3_);" d="M86.15,73.76h-13.9c-2.26,0-4.09-2.17-4.09-4.84l2.14-22.39c0.43-4.09,1.87-7.95,4.66-9.61
		c4.86-3.39,8.56-1.33,9.96,0.79c1,1.52,1.42,3.27,1.65,5.85l2.45,25.34C89.02,71.8,88.41,73.76,86.15,73.76z"/>
</g>
<g id="arm">
	
		<linearGradient id="arm_2_" gradientUnits="userSpaceOnUse" x1="75.0372" y1="76.3028" x2="78.5256" y2="64.4424" gradientTransform="matrix(1 0 0 -1 0 130)">
		<stop  offset="0" style="stop-color:#8D5738"/>
		<stop  offset="0.5" style="stop-color:#A56C43"/>
	</linearGradient>
	<path id="arm_1_" style="fill:url(#arm_2_);" d="M86.1,57.33l-1.8-9.96l-8,0.86l2.46,9.94l-9.36,9.69
		c-2.65,2.67,2.19,5.24,3.9,4.14l8.52-6.89C83.34,63.81,86.55,61.6,86.1,57.33z"/>
</g>
<g id="hand">
	
		<linearGradient id="hand_2_" gradientUnits="userSpaceOnUse" x1="63.6429" y1="57.3533" x2="73.3019" y2="57.3533" gradientTransform="matrix(1 0 0 -1 0 130)">
		<stop  offset="0" style="stop-color:#8D5738"/>
		<stop  offset="0.5" style="stop-color:#A56C43"/>
	</linearGradient>
	<path id="hand_1_" style="fill:url(#hand_2_);" d="M70.56,68.37c0.16-0.12,0.24-0.34,0.18-0.55c-0.08-0.26-0.37-0.41-0.63-0.32
		c-0.02,0.01-2.85,0.93-4.49,1.58c-0.47,0.19-1.9,0.75-1.94,2.5c-0.03,1.33-0.04,3.58-0.04,3.58l2.31-2.4
		c-0.06,0.89-0.13,2.8-0.15,3.59c-0.04,1.33,0.98,1.86,2.35,1.12c2.06-1.11,3.26-1.39,4.19-2.88c0.29-0.48,0.78-3.59,0.96-4.24
		L70.56,68.37z"/>
</g>
<g id="arm_x5F_shirt">
	<path style="fill:#EC6E24;" d="M75.64,53.35l10.84-1.97l-1.75-9.67c-0.54-2.98-3.39-4.96-6.37-4.42l-0.05,0.01
		c-2.98,0.54-4.96,3.39-4.42,6.37L75.64,53.35z"/>
</g>
<path id="cord" style="fill:#504F4F;" d="M77.28,73.04c-1.11-3.09-4.96-6.54-8.13-6.25c-2.2,0-2.12,1.77-2.12,1.77l2.25-0.78
	c2.33-0.29,6.09,2.94,7.05,5.6c0.37,1.04,0.55,2.45-0.75,3.26c-0.18,0.11-0.36,0.13-0.56,0.06c-0.6-0.22-1.76-1.76-2.41-2.92
	c0,0-0.11,0.6-0.26,0.83C72.26,74.74,72,75.08,72,75.08c0.63,1.03,1.86,2.26,2.68,2.55c0.19,0.07,0.39,0.1,0.57,0.1
	c0.3,0,0.59-0.08,0.85-0.25C77.55,76.59,77.97,74.97,77.28,73.04z"/>
<path id="hair" style="fill:#3C2C23;" d="M90.05,14.32c-1.4-3.72-4.75-4.44-4.75-4.44s-1.16-5.78-9.53-4.67
	C73.2,5.56,71.54,7.12,70,7.79c-1.32,0.58-2.7,0.42-2.92-1.84c-1.78,0.87-2.58,2.27-1.68,4.65c-1.67,0.36-2.32,1.78-2.7,3.42
	c-0.43,1.82,0.54,3.55,2.22,4.34c0.43-1.8,2.56-2.55,4.23-2.51c1.47,0.04,3,0.37,4.38-0.13c0.53-0.19,1.02-0.5,1.53-0.73
	c0.12,0,0.19,0,0.19,0c1.77,1-0.7,5.1,1.24,7.59c0.38,0.49,0.72,0.33,0.72,0.33l0.83-1.13c0.63-0.78,1.2-1.45,1.95-1.26
	c2.23,0.55,1.72,4.46-0.95,5.25c-0.27,0.08,0.29,1.03,1,2.33c0.71,1.29,2.19,2.05,4.25,2.06c2.06,0.01,3.33-1.51,3.33-1.51
	c0,0-2.31-1.14,0.59-3.55c2.87-2.38,1.17-5.26,1.17-5.26S91.13,17.21,90.05,14.32z"/>
<g id="hairHighlights">
	
		<radialGradient id="SVGID_4_" cx="87.7135" cy="127.9094" r="13.2231" gradientTransform="matrix(0.1917 0.9814 0.7281 -0.1422 -29.4306 -49.5848)" gradientUnits="userSpaceOnUse">
		<stop  offset="0.6985" style="stop-color:#554138;stop-opacity:0"/>
		<stop  offset="1" style="stop-color:#554138"/>
	</radialGradient>
	<path style="fill:url(#SVGID_4_);" d="M86.77,23.23c1.72-2.16,4.99-4.97,2.95-9.62c-0.8-1.82-2.39-3.13-4.41-3.71
		c0,0,0.03,0.69-0.35,1.25c-0.48,0.72-1.66,0.73-1.66,0.73C86.96,16.53,86.58,19.43,86.77,23.23z"/>
	
		<radialGradient id="SVGID_5_" cx="80.6174" cy="135.3233" r="3.3928" gradientTransform="matrix(0.9029 0.4298 0.5096 -1.0706 -71.5514 115.87)" gradientUnits="userSpaceOnUse">
		<stop  offset="0.58" style="stop-color:#554138"/>
		<stop  offset="1" style="stop-color:#554138;stop-opacity:0"/>
	</radialGradient>
	<path style="fill:url(#SVGID_5_);" d="M73.76,5.76c-0.76,0.27-2.25,1.19-2.55,1.37c-0.34,0.21-1.65,1.06-2.62,0.94
		c-1.4-0.18-1.45-1.85-1.51-2.11c-0.22,0.87-0.53,4.69,2.35,4.77c1.69,0.05,2.66-1.49,3.22-2.76C72.87,7.5,73.68,5.94,73.76,5.76z"
		/>
	
		<radialGradient id="SVGID_6_" cx="78.3836" cy="130.605" r="3.0304" gradientTransform="matrix(0.9988 -0.0479 -0.0586 -1.2219 -2.7268 172.1519)" gradientUnits="userSpaceOnUse">
		<stop  offset="0.7016" style="stop-color:#554138;stop-opacity:0"/>
		<stop  offset="1" style="stop-color:#554138"/>
	</radialGradient>
	<path style="fill:url(#SVGID_6_);" d="M65.41,10.6c0,0,0.94-0.27,2.16,0.19c-1.19-0.89-0.49-4.83-0.49-4.83
		C66.84,6.09,64.04,7.2,65.41,10.6z"/>
	
		<radialGradient id="SVGID_7_" cx="68.4066" cy="124.187" r="6.4122" gradientTransform="matrix(0.9129 0.1568 0.2083 -1.3878 -20.2928 177.912)" gradientUnits="userSpaceOnUse">
		<stop  offset="0.5981" style="stop-color:#554138;stop-opacity:0"/>
		<stop  offset="1" style="stop-color:#554138"/>
	</radialGradient>
	<path style="fill:url(#SVGID_7_);" d="M65.41,10.6c-1.89,0.39-2.61,2.45-2.75,3.7c-0.08,0.7-0.03,1.47,0.29,2.1
		c0.73,1.42,1.67,1.77,1.98,1.95l2.64-7.57C66.98,10.61,66.57,10.37,65.41,10.6z"/>
	
		<radialGradient id="SVGID_8_" cx="128.0308" cy="64.9604" r="10.4572" gradientTransform="matrix(-0.9287 -0.4153 -0.23 0.5234 210.7999 30.0597)" gradientUnits="userSpaceOnUse">
		<stop  offset="0.6985" style="stop-color:#554138;stop-opacity:0"/>
		<stop  offset="1" style="stop-color:#554138"/>
	</radialGradient>
	<path style="fill:url(#SVGID_8_);" d="M80.85,5.49c2.47,0.73,4.07,2.67,4.44,4.37c0.11,0.5-0.2,4.65-8.92-0.81
		c-3.24-2.03-2.94-3.12-2.56-3.28C75.1,5.2,78.08,4.67,80.85,5.49z"/>
	
		<radialGradient id="SVGID_9_" cx="345.0666" cy="43.8275" r="3.2334" gradientTransform="matrix(-0.9997 -0.027 0.02 -0.7416 432.1761 68.406)" gradientUnits="userSpaceOnUse">
		<stop  offset="0.5385" style="stop-color:#554138"/>
		<stop  offset="1" style="stop-color:#554138;stop-opacity:0"/>
	</radialGradient>
	<path style="fill:url(#SVGID_9_);" d="M84.11,27.26c-0.4-3.38,4.86-2.91,4.86-2.91s-0.31,0.35-0.85,0.84
		c-0.76,0.68-1.25,1.28-1.34,1.93c-0.15,1,0.86,1.52,0.86,1.52S84.85,29.38,84.11,27.26z"/>
	
		<radialGradient id="SVGID_10_" cx="94.451" cy="112.5579" r="4.3253" gradientTransform="matrix(0.6836 -0.7298 -0.5414 -0.5071 82.6245 149.2086)" gradientUnits="userSpaceOnUse">
		<stop  offset="0.6985" style="stop-color:#554138;stop-opacity:0"/>
		<stop  offset="1" style="stop-color:#554138"/>
	</radialGradient>
	<path style="fill:url(#SVGID_10_);" d="M89.39,19.84c0,0-2.18,3.33-2.87,3.54c-0.83,0.26,1.7,1.71,1.7,1.71S90.99,23.1,89.39,19.84
		z"/>
</g>
</svg>
