<?xml version="1.0" encoding="UTF-8" standalone="no"?><svg xmlns:dc="http://purl.org/dc/elements/1.1/" xmlns:cc="http://creativecommons.org/ns#" xmlns:rdf="http://www.w3.org/1999/02/22-rdf-syntax-ns#" xmlns:svg="http://www.w3.org/2000/svg" xmlns="http://www.w3.org/2000/svg" viewBox="0 0 45 45" style="enable-background:new 0 0 45 45;" xml:space="preserve" version="1.1" id="svg2"><metadata id="metadata8"><rdf:RDF><cc:Work rdf:about=""><dc:format>image/svg+xml</dc:format><dc:type rdf:resource="http://purl.org/dc/dcmitype/StillImage"/></cc:Work></rdf:RDF></metadata><defs id="defs6"><clipPath id="clipPath16" clipPathUnits="userSpaceOnUse"><path id="path18" d="M 0,36 36,36 36,0 0,0 0,36 Z"/></clipPath></defs><g transform="matrix(1.25,0,0,-1.25,0,45)" id="g10"><g id="g12"><g clip-path="url(#clipPath16)" id="g14"><g transform="translate(26,8)" id="g20"><path id="path22" style="fill:#4289c1;fill-opacity:1;fill-rule:nonzero;stroke:none" d="m 0,0 -16,0 c -2.484,0 -4.615,-1.51 -5.527,-3.661 C -21.893,-3.258 -22.416,-3 -23,-3 c -1.1,0 -2,-0.9 -2,-2 l 0,-3 31,0 0,2 C 6,-2.687 3.313,0 0,0"/></g><g transform="translate(14,9)" id="g24"><path id="path26" style="fill:#2a6797;fill-opacity:1;fill-rule:nonzero;stroke:none" d="M 0,0 8,0 C 8,0 9,-9 4,-9 -1,-9 0,0 0,0"/></g><g transform="translate(33,16.9756)" id="g28"><path id="path30" style="fill:#292f33;fill-opacity:1;fill-rule:nonzero;stroke:none" d="m 0,0 c 0,-1.949 -6.716,-3.529 -15,-3.529 -8.284,0 -15,1.58 -15,3.529 0,1.949 6.716,3.529 15,3.529 8.284,0 15,-1.58 15,-3.529"/></g><g transform="translate(26.3395,18.4366)" id="g32"><path id="path34" style="fill:#af7e57;fill-opacity:1;fill-rule:nonzero;stroke:none" d="m 0,0 c -0.809,3.6 -4.235,8.65 -8.339,8.65 -4.105,0 -7.531,-5.05 -8.34,-8.65 -0.836,-0.048 -1.494,-0.52 -1.494,-1.889 0,-1.448 0.734,-2.622 1.639,-2.622 0.015,0 0.028,0.006 0.043,0.007 1.064,-4.376 4.31,-8.013 8.152,-8.013 3.842,0 7.088,3.637 8.151,8.013 0.015,-0.001 0.028,-0.007 0.043,-0.007 0.905,0 1.639,1.174 1.639,2.622 C 1.494,-0.52 0.836,-0.048 0,0"/></g><g transform="translate(14,15.2914)" id="g36"><path id="path38" style="fill:#662113;fill-opacity:1;fill-rule:nonzero;stroke:none" d="m 0,0 0,0 c -0.55,0 -1,0.45 -1,1 l 0,1 c 0,0.55 0.45,1 1,1 L 0,3 C 0.55,3 1,2.55 1,2 L 1,1 C 1,0.45 0.55,0 0,0"/></g><g transform="translate(22,15.2914)" id="g40"><path id="path42" style="fill:#662113;fill-opacity:1;fill-rule:nonzero;stroke:none" d="m 0,0 0,0 c -0.55,0 -1,0.45 -1,1 l 0,1 c 0,0.55 0.45,1 1,1 L 0,3 C 0.55,3 1,2.55 1,2 L 1,1 C 1,0.45 0.55,0 0,0"/></g><g transform="translate(18.75,14.1758)" id="g44"><path id="path46" style="fill:#915a34;fill-opacity:1;fill-rule:nonzero;stroke:none" d="m 0,0 -1.5,0 c -0.413,0 -0.75,0.337 -0.75,0.75 l 0,0 c 0,0.412 0.337,0.75 0.75,0.75 l 1.5,0 c 0.413,0 0.75,-0.338 0.75,-0.75 l 0,0 C 0.75,0.337 0.413,0 0,0"/></g><g transform="translate(20.1667,10.9674)" id="g48"><path id="path50" style="fill:#915a34;fill-opacity:1;fill-rule:nonzero;stroke:none" d="m 0,0 -4.333,0 c -0.413,0 -0.75,0.338 -0.75,0.75 l 0,0.331 c 0,0.412 0.337,0.75 0.75,0.75 l 4.333,0 c 0.413,0 0.75,-0.338 0.75,-0.75 l 0,-0.331 C 0.75,0.338 0.413,0 0,0"/></g><g transform="translate(20.6667,10.1295)" id="g52"><path id="path54" style="fill:#e6e7e8;fill-opacity:1;fill-rule:nonzero;stroke:none" d="m 0,0 c -1.885,1.289 -2.667,0.911 -2.667,0.911 0,0 -0.781,0.378 -2.666,-0.911 -1.013,-0.692 -2.025,0.192 -2.745,1.057 0.748,0.276 1.684,0.623 2.675,0.819 1.83,-0.03 2.534,0.225 2.7,0.599 C -2.536,2.111 -1.828,1.877 -0.002,1.869 1.011,1.668 1.968,1.309 2.724,1.032 2.005,0.175 1.002,-0.685 0,0 M 5.757,8.024 C 5.95,8.116 6.105,8.248 6.206,8.423 6.621,9.141 5.987,10.282 4.791,10.972 3.596,11.663 2.291,11.641 1.876,10.923 1.462,10.206 2.096,9.065 3.291,8.374 3.81,8.075 4.345,7.918 4.823,7.885 4.531,7.361 4.333,6.412 4.333,5.317 4.333,4.254 4.519,3.326 4.796,2.793 4.388,2.809 3.843,2.397 3.506,2.029 2.797,2.768 1.665,3.578 0.386,3.831 -1.666,4.237 -2.515,3.445 -2.702,2.898 -2.884,3.445 -3.731,4.246 -5.792,3.838 -7.051,3.589 -8.166,2.8 -8.877,2.071 c -0.339,0.356 -0.86,0.737 -1.253,0.722 0.278,0.533 0.463,1.461 0.463,2.524 0,1.101 -0.2,2.053 -0.494,2.575 0.566,-0.064 1.274,0.091 1.952,0.482 1.196,0.691 1.83,1.832 1.415,2.549 -0.414,0.718 -1.719,0.74 -2.915,0.049 -1.195,-0.69 -1.829,-1.831 -1.415,-2.549 0.051,-0.087 0.115,-0.162 0.189,-0.229 -0.421,-0.353 -0.732,-1.501 -0.732,-2.877 0,-1.657 0.448,-3 1,-3 0.02,0 0.039,0.014 0.059,0.018 C -10.644,2.199 -10.667,2.033 -10.667,1.823 -10.667,0 -10,0 -10,0 c -0.667,-1.823 0.667,-3.66 0.667,-3.66 0,-2.735 2,-2.735 2,-2.735 0,-2.735 2.666,-1.823 2.666,-1.823 0.667,-0.912 2,-0.912 2,-0.912 0,0 1.334,0 2,0.912 0,0 2.667,-0.912 2.667,1.823 0,0 2,0 2,2.735 0,0 1.333,1.837 0.667,3.66 0,0 0.666,0 0.666,1.823 0,0.21 -0.022,0.376 -0.058,0.512 0.019,-0.004 0.038,-0.018 0.058,-0.018 0.553,0 1,1.343 1,3 0,1.2 -0.236,2.227 -0.576,2.707"/></g><g transform="translate(25.7654,20.8431)" id="g56"><path id="path58" style="fill:#4289c1;fill-opacity:1;fill-rule:nonzero;stroke:none" d="m 0,0 c -1.228,2.686 -6.972,15.157 -7.765,15.157 -0.794,0 -6.538,-12.471 -7.766,-15.157 -4.819,-0.844 -7.234,-2.438 -7.234,-3.843 6,2 11,2.443 15,2.443 4,0 9,-0.443 15,-2.443 C 7.235,-2.438 4.819,-0.844 0,0"/></g><g transform="translate(5,0)" id="g60"><path id="path62" style="fill:#d99e82;fill-opacity:1;fill-rule:nonzero;stroke:none" d="M 0,0 -2,0 -2,24.138 -3,28 1,28 0,24.138 0,0 Z"/></g><g transform="translate(7,30)" id="g64"><path id="path66" style="fill:#55acee;fill-opacity:1;fill-rule:nonzero;stroke:none" d="m 0,0 c 0,-1.657 -1.343,-3 -3,-3 -1.657,0 -3,1.343 -3,3 0,1.657 1.343,3 3,3 1.657,0 3,-1.343 3,-3"/></g><g transform="translate(5,30.5)" id="g68"><path id="path70" style="fill:#b0f0ff;fill-opacity:1;fill-rule:nonzero;stroke:none" d="M 0,0 C 0,-0.828 -0.672,-1.5 -1.5,-1.5 -2.328,-1.5 -3,-0.828 -3,0 -3,0.828 -2.328,1.5 -1.5,1.5 -0.672,1.5 0,0.828 0,0"/></g><g transform="translate(7,5.5)" id="g72"><path id="path74" style="fill:#af7e57;fill-opacity:1;fill-rule:nonzero;stroke:none" d="m 0,0 c 0,-1.933 -1.343,-3.5 -3,-3.5 -1.657,0 -3,1.567 -3,3.5 0,1.933 1.343,2.5 3,2.5 1.657,0 3,-0.567 3,-2.5"/></g></g></g></g></svg>
