<?xml version="1.0" encoding="utf-8"?>
<!-- Generator: Adobe Illustrator 25.2.3, SVG Export Plug-In . SVG Version: 6.00 Build 0)  -->
<svg version="1.1" id="Layer_1_copy" xmlns="http://www.w3.org/2000/svg" xmlns:xlink="http://www.w3.org/1999/xlink" x="0px"
	 y="0px" viewBox="0 0 128 128" style="enable-background:new 0 0 128 128;" xml:space="preserve">
<g>
	<g>
		<circle style="fill:#00EDCD;" cx="109.77" cy="11.02" r="4.66"/>
		<path style="opacity:0.75;fill:#81D4FA;" d="M11.43,91.09l72.66-72.66c0.11-0.11,0.21-0.28,0.31-0.45
			c0.77-1.32,0.85-2.58,0.73-4.25c-0.21-2.83,0.46-4.36,1.83-5.38c1.81-1.36,8.08-1.08,19.81,10.65s12,17.99,10.64,19.8
			c-1.02,1.37-2.55,2.03-5.38,1.83c-1.67-0.12-2.93-0.05-4.25,0.73c-0.18,0.1-0.34,0.2-0.45,0.31l-72.66,72.66
			c-9.98,9.98-19.51,8.46-25.56,2.41c-0.01-0.01-0.03-0.03-0.04-0.04c-0.01-0.01-0.03-0.03-0.04-0.04
			C2.96,110.6,1.44,101.07,11.43,91.09z"/>
		<path style="opacity:0.39;fill:#1D44B3;" d="M99.79,23.22c-6.36-6.36-11.2-9.55-14.69-10.98c-0.02,0.45-0.02,0.95,0.02,1.49
			c0.09,1.19,0.06,2.17-0.23,3.11c3.17,1.71,7.14,4.55,12.01,9.11c7,6.56,10.34,11.51,11.73,15c0.92-0.34,1.86-0.4,2.98-0.35
			C110.94,37.1,107.99,31.41,99.79,23.22z"/>
		<path style="fill:#00BFA5;" d="M54.15,48.51L11.67,90.94c-10.36,10.35-9.05,20.03-3.03,26.05c6.02,6.01,15.68,7.35,26.06-3.03
			L102,47.04L54.15,48.51z"/>
		<circle style="fill:#00937A;" cx="45.06" cy="76.96" r="5.06"/>
		<circle style="fill:#00BFA5;" cx="96.58" cy="37.04" r="4.76"/>
		<circle style="opacity:0.69;fill:#FFFFFF;enable-background:new    ;" cx="73.27" cy="57.3" r="2.93"/>
		<circle style="fill:#00BFA5;" cx="121.84" cy="12.01" r="2.17"/>
		<circle style="fill:#00EDCD;" cx="59.15" cy="72.54" r="4"/>
		<circle style="fill:#00EDCD;" cx="63.75" cy="61.12" r="1.54"/>
	</g>
	<path style="opacity:0.6;fill:none;stroke:#FFFFFF;stroke-width:4.1949;stroke-linecap:round;stroke-miterlimit:10;" d="
		M93.2,14.66c3.21,2.08,6.13,4.6,8.65,7.46"/>
	<path style="fill:#00EDCD;" d="M102.02,46.96c-0.84,0.74-3.57,1.23-10.75,2.35c-3.81,0.6-8.47,1.2-13.82,1.64
		c-16.77,1.39-28.08-0.9-21.37-3.64c5.39-2.2,24.53-1.72,36.51-1.34C98.37,46.16,102.68,46.39,102.02,46.96z"/>
	<g style="opacity:0.6;">
		<path style="fill:#FFFFFF;" d="M11.63,103.5c-1.72-0.71-1.02-2.68,0-3.71l67.5-69.29c4.1-4.24,7.85-7.12,9.95-5.12
			c2.35,2.23,1.6,6.23-7.61,14.49l-64.68,61.17C16.28,101.55,13.35,104.21,11.63,103.5z"/>
	</g>
</g>
</svg>
