<?xml version="1.0" encoding="utf-8"?>
<!-- Generator: Adobe Illustrator 25.2.3, SVG Export Plug-In . SVG Version: 6.00 Build 0)  -->
<svg version="1.1" id="Layer_3" xmlns="http://www.w3.org/2000/svg" xmlns:xlink="http://www.w3.org/1999/xlink" x="0px" y="0px"
	 viewBox="0 0 128 128" style="enable-background:new 0 0 128 128;" xml:space="preserve">
<g>
	<g>
		<path style="fill:#E2A610;" d="M120.27,7.69C117.89,5.31,114.72,4,111.36,4s-6.53,1.31-8.91,3.69c-4.91,4.92-4.91,12.92,0,17.84
			c2.38,2.38,5.55,3.69,8.91,3.69c3.37,0,6.53-1.31,8.92-3.69C125.19,20.61,125.19,12.61,120.27,7.69z M106.38,11.63
			c1.33-1.33,3.1-2.06,4.97-2.06s3.65,0.73,4.98,2.06c2.75,2.75,2.75,7.22,0,9.96c-1.33,1.33-3.1,2.06-4.98,2.06
			c-1.88,0-3.65-0.73-4.97-2.06C103.64,18.85,103.64,14.38,106.38,11.63z"/>
		<path style="fill:#FFCA28;" d="M105.51,30.95l-8.47-8.48l6.04-6.05c1.34-1.34,3.51-1.34,4.86,0l3.62,3.62
			c1.34,1.34,1.34,3.51,0,4.85L105.51,30.95z"/>
		<path style="fill:#E2A610;" d="M107.69,28.76c0,0,1.33-2.67-2.24-6.24s-6.27-2.2-6.27-2.2l-2.14,2.15l8.47,8.48L107.69,28.76z"/>
		<g>
			<ellipse style="fill:#FFCA28;" cx="62.37" cy="65.63" rx="58.33" ry="58.37"/>
		</g>
		<g>
			<ellipse style="fill:#FFFFFF;" cx="62.37" cy="65.63" rx="47.29" ry="47.32"/>
		</g>
		<g>
			<g>
				<polygon style="fill:#E0C3AB;" points="68.78,72.05 62.37,99.76 55.96,72.05 28.26,65.63 55.96,59.22 62.37,31.5 68.78,59.22 
					96.48,65.63 				"/>
			</g>
			<g>
				<polygon style="fill:#B2947C;" points="71.43,65.63 86.49,89.77 62.37,74.7 38.25,89.77 53.31,65.63 38.25,41.5 62.37,56.56 
					86.49,41.5 				"/>
			</g>
		</g>
		<g>
			<path style="opacity:0.32;fill:#212121;" d="M50.45,86.94c0,0,12.82-9.09,17.68-13.95C73,68.14,83.26,53.87,83.26,53.87
				c2.75-3.05,5.84-10.76,6.7-13c0.09-0.24-0.14-0.48-0.38-0.39c-1.96,0.75-8.17,3.2-12.5,5.96c-5.41,3.46-15.09,11.37-19.6,15.88
				s-10.37,13.2-13.7,17.93c-2.78,3.96-6.26,11.32-7.31,13.61c-0.12,0.25,0.14,0.51,0.39,0.4C39.22,93.27,46.87,89.9,50.45,86.94z"
				/>
			<path style="fill:#F44336;" d="M82.66,52.46c2.86-3.65,5.57-10.84,6.37-13.07c0.1-0.27-0.16-0.53-0.44-0.44
				c-2.23,0.8-9.41,3.52-13.06,6.38c-4.35,3.41-18.82,15.3-18.82,15.3l10.65,10.66C67.37,71.29,79.25,56.81,82.66,52.46z"/>
			<path style="fill:#2F7889;" d="M41.41,79.48c-2.86,3.65-5.57,10.84-6.37,13.07c-0.1,0.27,0.16,0.53,0.44,0.44
				c2.23-0.8,9.41-3.52,13.06-6.38c4.35-3.41,18.82-15.3,18.82-15.3L56.7,60.65C56.7,60.65,44.82,75.12,41.41,79.48z"/>
			<ellipse style="fill:#94D1E0;" cx="62.03" cy="65.98" rx="7.56" ry="7.57"/>
		</g>
		<g>
			<g>
				<g>
					<path style="fill:#F44336;" d="M90.46,37.52L90.46,37.52c-1.34-1.34-1.34-3.52,0-4.86l3.56-3.56l4.86,4.86l-3.55,3.56
						C93.98,38.87,91.8,38.87,90.46,37.52z"/>
					<path style="fill:#B2947C;" d="M34.28,93.74L34.28,93.74c1.34,1.34,1.34,3.52,0,4.86l-3.56,3.56l-4.86-4.86l3.55-3.56
						C30.76,92.4,32.94,92.4,34.28,93.74z"/>
				</g>
				<g>
					<path style="fill:#E0C3AB;" d="M102.1,65.63L102.1,65.63c0-1.9,1.54-3.44,3.44-3.44h5.02v6.88h-5.02
						C103.64,69.07,102.1,67.53,102.1,65.63z"/>
					<path style="fill:#E0C3AB;" d="M22.65,65.63L22.65,65.63c0,1.9-1.54,3.44-3.44,3.44h-5.02v-6.88h5.02
						C21.11,62.19,22.65,63.73,22.65,65.63z"/>
				</g>
				<g>
					<path style="fill:#B2947C;" d="M90.46,93.74L90.46,93.74c1.34-1.34,3.52-1.34,4.86,0l3.55,3.56l-4.86,4.86l-3.56-3.56
						C89.12,97.26,89.12,95.09,90.46,93.74z"/>
					<path style="fill:#B2947C;" d="M34.28,37.52L34.28,37.52c-1.34,1.34-3.52,1.34-4.86,0l-3.55-3.56l4.86-4.86l3.56,3.56
						C35.62,34,35.62,36.18,34.28,37.52z"/>
				</g>
				<g>
					<path style="fill:#E0C3AB;" d="M62.37,105.38L62.37,105.38c1.9,0,3.44,1.54,3.44,3.44v5.03h-6.87v-5.03
						C58.93,106.92,60.47,105.38,62.37,105.38z"/>
					<path style="fill:#E0C3AB;" d="M62.37,25.88L62.37,25.88c-1.9,0-3.44-1.54-3.44-3.44v-5.03h6.87v5.03
						C65.81,24.34,64.27,25.88,62.37,25.88z"/>
				</g>
			</g>
			<ellipse style="fill:none;stroke:#E2A610;stroke-width:3;stroke-miterlimit:10;" cx="62.37" cy="65.63" rx="47.29" ry="47.32"/>
		</g>
	</g>
	<path style="fill:#FFF59D;" d="M8.72,64.92c0,0-2.12-10.74,3.53-24.04C20.59,21.26,38.6,10.46,57.97,9.62
		c14.53-0.63,22.91,4.16,22.91,4.16s-11.82-0.97-19.97-0.61c-19.66,0.87-33.32,9.84-42.68,25.18C10.53,50.99,8.72,64.92,8.72,64.92z
		"/>
</g>
</svg>
