<?xml version="1.0" encoding="utf-8"?>
<!-- Generator: Adobe Illustrator 25.2.3, SVG Export Plug-In . SVG Version: 6.00 Build 0)  -->
<svg version="1.1" id="Layer_2" xmlns="http://www.w3.org/2000/svg" xmlns:xlink="http://www.w3.org/1999/xlink" x="0px" y="0px"
	 viewBox="0 0 128 128" style="enable-background:new 0 0 128 128;" xml:space="preserve">
<path style="fill:#AE0D1A;" d="M90.43,8.27l8.96-3.84c0,0,1.36-0.05,1.9,0.13c0.54,0.18,4.51,2.94,4.56,11.34
	c0.04,7.09,0.18,9.89-0.17,10.8c-0.13,0.33-0.58,1.4-1.54,1.96c-0.92,0.53-1.79,0.53-1.79,0.53s-0.2,90.67-0.31,91.8s-0.85,3-2.66,3
	s-70.6-0.11-71.39-0.23c-0.79-0.11-2.93-0.9-3.05-4.51S29,93.75,29,93.75l67.17,3.81L90.43,8.27z"/>
<path style="fill:#FF180A;" d="M26.29,4.52c-1.18,0.23-1.8,1.03-1.74,1.82c0.05,0.76,0.56,113.87,0.45,113.94c0,0,0,0.35,0.43,0.35
	c0.43,0,69.5-0.12,70.88-0.12s2.84-0.35,2.92-4.85S99.57,5.81,99.61,5.37c0.04-0.43-0.16-0.91-0.83-0.95
	C98.11,4.39,27.23,4.34,26.29,4.52z"/>
<path style="fill:#FBBC01;" d="M62.81,33.48C46.82,33.94,33.97,44.44,34.17,63.4c0.2,18.27,15.41,28.44,29.92,27.85
	c14.02-0.57,27.15-10.33,27.55-29.13C92.05,43.55,76.44,33.08,62.81,33.48z M62.42,86.41c-12.44,0.1-22.97-9.96-23.41-22.52
	C38.42,46.91,50.47,38.81,63.7,38.51s23.5,10.67,23.31,24C86.81,75.84,76.15,86.3,62.42,86.41z"/>
<path style="fill:#FBBC01;" d="M50.62,45.25c-0.57,0.49-0.65,2.38,1.27,4.81c1.06,1.34,2.05,1.87,2.9,1.91
	c1.48,0.07,3.32-2.19,3.04-3.25c-0.33-1.25-2.12-2.47-3.82-3.18C52.74,45,51.2,44.74,50.62,45.25z"/>
<path style="fill:#FBBC01;" d="M61.33,48.31c-0.44,1.16-0.16,3.45,4.2,3.57c4.36,0.12,7.61-0.83,9.24-1.63
	c1.63-0.79,2.81-3.01,1.47-4.4c-1.35-1.39-4.4,0.83-7.93,1.27C64.78,47.56,61.89,46.84,61.33,48.31z"/>
<path style="fill:#FBBC01;" d="M76.89,52.22c-0.99-0.03-5.12,0.3-8.54,0.49c-2.47,0.13-5.92,0.28-6.58,0.78
	c-0.97,0.73-0.66,1.53,0.23,4.05c0.88,2.52,1.21,3.75,1.65,4.03c0.81,0.51,11.17-0.14,11.97-0.59c0.52-0.29,0.97-2.39,1.46-4.22
	c0.15-0.56,1.25-1.98,1.33-2.26C78.64,53.69,77.88,52.24,76.89,52.22z M72.4,58.66c-0.25,0.09-5.34,0.6-5.59,0.48
	c-0.23-0.11-1.21-3.16-0.94-3.29c0.23-0.11,6.43-0.36,7.07-0.31C73.47,55.57,72.69,58.55,72.4,58.66z"/>
<path style="fill:#FBBC01;" d="M60.19,65.54c0,0-2.01-0.37-3.16-1.52c-1.03-1.03-1.78-2.34-1.78-2.34s4.54-4.54,3.45-7.53
	c-1.19-3.27-4.29-1.33-6.7-0.83c-4.6,0.95-7.97,0.48-8.68,1.43c-0.67,0.9-0.68,4.22,2.06,4.68c2.12,0.35,3.53-0.43,4.56-0.91
	c0.53-0.25,1.59-0.83,1.67-0.95c0.08-0.12-0.63,2.1-3.85,5.43c-3.49,3.61-5.71,5.43-6.14,5.91c-0.44,0.48-1.19,1.94,0.91,2.18
	s4.12-1.63,5.39-2.62c1.27-0.99,2.46-2.34,2.46-2.34s-0.08,1.78-0.28,3.77c-0.2,1.98-0.61,5.02-0.71,6.46
	c-0.12,1.59-0.12,4.12,2.66,4c3.25-0.14,2.84-2.93,2.81-4.52c-0.04-2.34-0.2-5.35-0.24-6.07c-0.04-0.71-0.09-3.25-0.09-3.01
	s1.88,2.18,3.22,2.85c1.35,0.67,4.59-0.68,4.23-2.42C61.62,65.45,60.19,65.54,60.19,65.54z"/>
<path style="fill:#FBBC01;" d="M59.38,63.57c-0.02,0.81,2.43,10.7,2.64,11c0.21,0.3,0.13,1.25,2.1,0.68
	c0.73-0.21-0.13-8.46-0.23-9.83c-0.2-2.83-0.95-2.02-2.34-2.54C60.15,62.36,59.39,63.02,59.38,63.57z"/>
<path style="fill:#FBBC01;" d="M61.72,62.97c0,0,5.96,0.14,9.19,0.07c1.98-0.04,3.92-0.21,4.77-0.36c0.85-0.15,2.12-0.44,3.22-0.66
	c0.81-0.16,2.63,0.28,2.36,2.37c-0.15,1.17-0.7,1.43-0.95,1.79c-0.51,0.72-1.3,6.8-1.54,7.15c-0.21,0.31-3.25-0.07-3.25-0.07
	s1.33-6.21,1.4-6.56c0.27-1.29-0.75-1.17-0.75-1.17l-13.38,0.27L61.72,62.97z"/>
<path style="fill:#FBBC01;" d="M62.8,72.73c0,0,12.43-0.27,13.29-0.31c0.86-0.04,0.54-1.02,1.1-1.05c0.57-0.03,1.37,0.26,1.56,0.91
	s0.11,2.88-1.68,3.01c-0.63,0.05-13.99,0.13-13.99,0.13L62.8,72.73z"/>
<path style="fill:#FBBC01;" d="M68.44,64.45c0.17,0.77,0.35,8.84,0.35,8.84l2.83-0.07l0.56-8.62L68.44,64.45z"/>
<path style="fill:#FBBC01;" d="M62.3,68.21c0,0,3.18,0.02,8.18-0.04c3.88-0.05,7.42-0.18,7.42-0.18s-0.14,1.98-0.39,1.9
	c-0.13-0.04-3.48,0.06-7.22,0.14c-3.83,0.08-7.68,0.27-7.68,0.27L62.3,68.21z"/>
</svg>
