<?xml version="1.0" encoding="UTF-8" standalone="no"?><svg xmlns:dc="http://purl.org/dc/elements/1.1/" xmlns:cc="http://creativecommons.org/ns#" xmlns:rdf="http://www.w3.org/1999/02/22-rdf-syntax-ns#" xmlns:svg="http://www.w3.org/2000/svg" xmlns="http://www.w3.org/2000/svg" viewBox="0 0 45 45" style="enable-background:new 0 0 45 45;" xml:space="preserve" version="1.1" id="svg2"><metadata id="metadata8"><rdf:RDF><cc:Work rdf:about=""><dc:format>image/svg+xml</dc:format><dc:type rdf:resource="http://purl.org/dc/dcmitype/StillImage"/></cc:Work></rdf:RDF></metadata><defs id="defs6"><clipPath id="clipPath16" clipPathUnits="userSpaceOnUse"><path id="path18" d="M 0,36 36,36 36,0 0,0 0,36 Z"/></clipPath></defs><g transform="matrix(1.25,0,0,-1.25,0,45)" id="g10"><g id="g12"><g clip-path="url(#clipPath16)" id="g14"><g transform="translate(18,33)" id="g20"><path id="path22" style="fill:#f2abba;fill-opacity:1;fill-rule:nonzero;stroke:none" d="m 0,0 c 0,0 0,2 -3,2 -2,0 -5.375,-2.042 -6,-4 -2,0 -5,-4 -4,-7 -3,-1 -3.625,-8.042 -2,-9 -2,-2 -1,-7 3,-8 1.009,-3.095 3.6,-5.153 6,-5 0.875,-0.708 1.792,-1 3,-1 3,0 3,1.958 3,4.958 L 0,0 Z"/></g><g transform="translate(18,33)" id="g24"><path id="path26" style="fill:#f2abba;fill-opacity:1;fill-rule:nonzero;stroke:none" d="m 0,0 c 0,0 0,2 3,2 2,0 5.375,-2.042 6,-4 2,0 5,-4 4,-7 3,-1 3.625,-8.042 2,-9 2,-2 1,-7 -3,-8 -1.009,-3.095 -3.6,-5.153 -6,-5 -0.875,-0.708 -1.792,-1 -3,-1 -3,0 -3,1.958 -3,4.958 L 0,0 Z"/></g><g transform="translate(12,25.5)" id="g28"><path id="path30" style="fill:#e75a70;fill-opacity:1;fill-rule:nonzero;stroke:none" d="M 0,0 C -0.052,0 -0.105,0.008 -0.158,0.026 -2.802,0.907 -3.5,3.338 -3.5,4.5 c 0,0.275 0.223,0.498 0.498,0.499 l 0.002,0 c 0.274,0 0.498,-0.222 0.5,-0.497 C -2.499,4.394 -2.451,1.844 0.158,0.974 0.42,0.887 0.562,0.604 0.474,0.342 0.404,0.132 0.209,0 0,0"/></g><g transform="translate(12.0005,23.5)" id="g32"><path id="path34" style="fill:#e75a70;fill-opacity:1;fill-rule:nonzero;stroke:none" d="M 0,0 C -0.184,0 -0.36,0.101 -0.448,0.276 -1.416,2.212 -0.07,3.524 0.776,3.947 1.023,4.069 1.323,3.971 1.447,3.724 1.57,3.478 1.471,3.178 1.225,3.054 1.067,2.973 -0.3,2.218 0.447,0.724 0.57,0.477 0.47,0.176 0.223,0.053 0.151,0.017 0.075,0 0,0"/></g><g transform="translate(9.2515,18.3906)" id="g36"><path id="path38" style="fill:#e75a70;fill-opacity:1;fill-rule:nonzero;stroke:none" d="m 0,0 -0.41,0.135 c -3.229,1.076 -4.027,4.406 -4.059,4.547 -0.062,0.268 0.106,0.536 0.374,0.598 0.269,0.061 0.537,-0.105 0.6,-0.374 0.007,-0.028 0.649,-2.657 3.031,-3.681 0.44,0.652 1.498,1.884 3.213,1.884 0.276,0 0.5,-0.223 0.5,-0.5 0,-0.276 -0.224,-0.5 -0.5,-0.5 C 1.09,2.109 0.204,0.402 0.195,0.384 L 0,0 Z"/></g><g transform="translate(10.9995,14.6387)" id="g40"><path id="path42" style="fill:#e75a70;fill-opacity:1;fill-rule:nonzero;stroke:none" d="M 0,0 C -0.055,0 -0.112,0.009 -0.167,0.028 -0.426,0.121 -0.562,0.403 -0.472,0.663 -0.46,0.696 0.731,3.941 5.122,2.847 5.39,2.779 5.553,2.508 5.485,2.24 5.418,1.972 5.144,1.812 4.879,1.876 1.394,2.748 0.508,0.428 0.471,0.33 0.397,0.127 0.205,0 0,0"/></g><g transform="translate(7.9995,9.5)" id="g44"><path id="path46" style="fill:#e75a70;fill-opacity:1;fill-rule:nonzero;stroke:none" d="m 0,0 c -0.075,0 -0.151,0.017 -0.223,0.053 -1.518,0.759 -1.668,2.063 -1.458,3 -1.832,0.28 -3.116,1.593 -3.176,1.655 -0.191,0.198 -0.185,0.514 0.013,0.706 0.198,0.191 0.515,0.185 0.706,-0.012 C -4.124,5.389 -2.754,4 -1,4 L -0.19,4 -0.552,3.276 C -0.629,3.118 -1.27,1.694 0.224,0.947 0.471,0.823 0.571,0.523 0.448,0.276 0.36,0.102 0.184,0 0,0"/></g><g transform="translate(13.0005,2.5)" id="g48"><path id="path50" style="fill:#e75a70;fill-opacity:1;fill-rule:nonzero;stroke:none" d="M 0,0 C -0.131,0 -0.262,0.051 -0.36,0.153 -0.551,0.352 -0.546,0.668 -0.348,0.859 -0.33,0.877 1.463,2.639 1.017,4.282 0.945,4.549 1.102,4.823 1.368,4.896 1.635,4.967 1.91,4.811 1.982,4.544 2.584,2.328 0.438,0.229 0.346,0.14 0.25,0.047 0.125,0 0,0"/></g><g transform="translate(15.1562,6.4121)" id="g52"><path id="path54" style="fill:#e75a70;fill-opacity:1;fill-rule:nonzero;stroke:none" d="M 0,0 C -1.894,0 -2.571,1.3 -2.603,1.363 -2.727,1.61 -2.627,1.911 -2.381,2.035 -2.134,2.158 -1.837,2.06 -1.712,1.817 -1.681,1.76 -1.082,0.72 0.747,1.078 1.016,1.134 1.28,0.956 1.334,0.685 1.388,0.414 1.211,0.151 0.941,0.098 0.598,0.029 0.285,0 0,0"/></g><g transform="translate(12.7334,30.9932)" id="g56"><path id="path58" style="fill:#e75a70;fill-opacity:1;fill-rule:nonzero;stroke:none" d="M 0,0 C -0.12,0 -0.24,0.043 -0.336,0.13 -0.54,0.315 -0.556,0.63 -0.371,0.835 -0.319,0.892 0.917,2.241 2.479,2.28 3.265,2.308 3.99,1.991 4.62,1.36 4.815,1.165 4.815,0.849 4.62,0.653 4.425,0.458 4.108,0.458 3.913,0.653 3.479,1.087 2.994,1.298 2.509,1.28 1.378,1.254 0.38,0.174 0.37,0.164 0.271,0.055 0.136,0 0,0"/></g><g transform="translate(24,25.5)" id="g60"><path id="path62" style="fill:#e75a70;fill-opacity:1;fill-rule:nonzero;stroke:none" d="M 0,0 C -0.209,0 -0.404,0.132 -0.475,0.342 -0.562,0.604 -0.42,0.887 -0.158,0.974 2.451,1.844 2.499,4.394 2.5,4.502 2.502,4.778 2.695,5.01 3.002,4.999 3.277,4.998 3.5,4.775 3.5,4.5 3.5,3.338 2.802,0.907 0.158,0.026 0.105,0.008 0.053,0 0,0"/></g><g transform="translate(24,23.5)" id="g64"><path id="path66" style="fill:#e75a70;fill-opacity:1;fill-rule:nonzero;stroke:none" d="M 0,0 C -0.075,0 -0.151,0.017 -0.224,0.053 -0.471,0.176 -0.57,0.477 -0.447,0.724 0.308,2.233 -1.064,2.973 -1.224,3.053 -1.471,3.176 -1.57,3.477 -1.447,3.724 -1.323,3.971 -1.022,4.069 -0.776,3.947 0.07,3.524 1.415,2.212 0.447,0.276 0.359,0.101 0.183,0 0,0"/></g><g transform="translate(26.749,18.3892)" id="g68"><path id="path70" style="fill:#e75a70;fill-opacity:1;fill-rule:nonzero;stroke:none" d="m 0,0 -0.195,0.386 c -0.009,0.017 -0.896,1.725 -2.554,1.725 -0.276,0 -0.5,0.223 -0.5,0.5 0,0.276 0.224,0.5 0.5,0.5 1.715,0 2.772,-1.233 3.212,-1.885 C 2.859,2.253 3.487,4.879 3.494,4.907 3.555,5.175 3.821,5.348 4.093,5.282 4.362,5.221 4.53,4.952 4.469,4.683 4.437,4.542 3.639,1.213 0.409,0.137 L 0,0 Z"/></g><g transform="translate(25,14.6367)" id="g72"><path id="path74" style="fill:#e75a70;fill-opacity:1;fill-rule:nonzero;stroke:none" d="M 0,0 C -0.206,0 -0.398,0.128 -0.471,0.332 -0.507,0.431 -1.404,2.75 -4.879,1.878 -5.146,1.816 -5.419,1.975 -5.485,2.242 -5.552,2.51 -5.39,2.781 -5.121,2.849 -0.732,3.946 0.46,0.698 0.472,0.665 0.563,0.404 0.426,0.119 0.165,0.028 0.11,0.009 0.055,0 0,0"/></g><g transform="translate(28,9.5)" id="g76"><path id="path78" style="fill:#e75a70;fill-opacity:1;fill-rule:nonzero;stroke:none" d="m 0,0 c -0.183,0 -0.359,0.102 -0.447,0.276 -0.123,0.247 -0.024,0.547 0.223,0.671 1.509,0.755 0.856,2.17 0.777,2.329 L 0.191,4 1,4 C 2.755,4 4.125,5.389 4.139,5.402 4.333,5.599 4.646,5.606 4.846,5.413 5.044,5.222 5.05,4.906 4.858,4.708 4.798,4.646 3.514,3.333 1.682,3.053 1.892,2.116 1.741,0.812 0.224,0.053 0.151,0.017 0.075,0 0,0"/></g><g transform="translate(23,2.5)" id="g80"><path id="path82" style="fill:#e75a70;fill-opacity:1;fill-rule:nonzero;stroke:none" d="M 0,0 C -0.125,0 -0.25,0.047 -0.347,0.14 -0.438,0.229 -2.584,2.328 -1.982,4.544 -1.91,4.81 -1.637,4.967 -1.369,4.896 -1.103,4.823 -0.945,4.549 -1.018,4.282 -1.466,2.631 0.329,0.878 0.347,0.86 0.546,0.669 0.552,0.352 0.36,0.153 0.262,0.051 0.131,0 0,0"/></g><g transform="translate(20.8438,6.4121)" id="g84"><path id="path86" style="fill:#e75a70;fill-opacity:1;fill-rule:nonzero;stroke:none" d="m 0,0 c -0.285,0 -0.599,0.029 -0.94,0.098 -0.272,0.053 -0.448,0.316 -0.394,0.587 0.054,0.271 0.321,0.451 0.587,0.393 1.848,-0.362 2.434,0.694 2.46,0.74 C 1.841,2.06 2.142,2.155 2.386,2.028 2.628,1.902 2.726,1.607 2.603,1.363 2.571,1.3 1.893,0 0,0"/></g><g transform="translate(23.2666,30.9932)" id="g88"><path id="path90" style="fill:#e75a70;fill-opacity:1;fill-rule:nonzero;stroke:none" d="m 0,0 c -0.136,0 -0.271,0.055 -0.37,0.164 -0.01,0.01 -1.008,1.09 -2.139,1.116 -0.519,0.024 -0.97,-0.193 -1.404,-0.627 -0.195,-0.195 -0.512,-0.195 -0.707,0 -0.195,0.196 -0.195,0.512 0,0.707 0.63,0.63 1.323,0.955 2.141,0.92 C -0.918,2.241 0.319,0.892 0.371,0.835 0.556,0.63 0.54,0.315 0.336,0.13 0.24,0.043 0.12,0 0,0"/></g><g transform="translate(18.5,32)" id="g92"><path id="path94" style="fill:#e75a70;fill-opacity:1;fill-rule:nonzero;stroke:none" d="m 0,0 -1,0 c -0.275,0 -0.5,-0.225 -0.5,-0.5 l 0,-26 c 0,-0.275 0.225,-0.5 0.5,-0.5 l 1,0 c 0.275,0 0.5,0.225 0.5,0.5 l 0,26 C 0.5,-0.225 0.275,0 0,0"/></g></g></g></g></svg>
