<?xml version="1.0" encoding="utf-8"?>
<!-- Generator: Adobe Illustrator 25.2.3, SVG Export Plug-In . SVG Version: 6.00 Build 0)  -->
<svg version="1.1" id="Layer_4" xmlns="http://www.w3.org/2000/svg" xmlns:xlink="http://www.w3.org/1999/xlink" x="0px" y="0px"
	 viewBox="0 0 128 128" style="enable-background:new 0 0 128 128;" xml:space="preserve">
<g>
	<path style="opacity:0.6;fill:#4FC3F7;" d="M124,71.52c0-4.32-5.33-6.83-18.4-8.68c-10.53-1.48-25.32-2.3-41.66-2.3
		c-17.48,0-32.19,0.8-42.52,2.3C9.05,64.65,4,67.17,4,71.52c0,0.13,0.01,37.69,0.01,37.69c0,7.33,26.83,14.29,59.92,14.29
		c33.1,0,59.92-6.96,59.92-14.29C123.86,109.21,124,71.92,124,71.52z"/>
	<g style="opacity:0.7;">
		<path style="fill:#FFFFFF;" d="M63.94,63.77c34.1,0,56.84,3.47,56.84,7.75s-25.97,7.75-56.84,7.75S7.22,75.8,7.22,71.52
			S27.42,63.77,63.94,63.77 M63.94,60.54c-17.48,0-32.19,0.8-42.52,2.3C9.05,64.65,4,67.17,4,71.52c0,3.61,3.33,6.47,19.57,8.68
			c10.91,1.48,25.25,2.3,40.36,2.3c15.13,0,29.48-0.82,40.42-2.3c16.3-2.21,19.64-5.07,19.64-8.68c0-4.32-5.33-6.83-18.4-8.68
			C95.07,61.36,80.28,60.54,63.94,60.54L63.94,60.54z"/>
	</g>
	<g>
		<linearGradient id="SVGID_1_" gradientUnits="userSpaceOnUse" x1="58.4366" y1="109.9976" x2="148.6412" y2="109.9976">
			<stop  offset="0" style="stop-color:#C62828"/>
			<stop  offset="1" style="stop-color:#B02424"/>
		</linearGradient>
		<path style="fill:url(#SVGID_1_);" d="M121.11,100.47l0,6.39c0,6.99-25.6,12.66-57.17,12.66s-57.17-5.67-57.17-12.66l0-6.39
			H121.11z"/>
	</g>
	<ellipse style="fill:#FF5252;" cx="63.94" cy="100.11" rx="57.17" ry="9.32"/>
	<path style="fill:#E8F5E9;" d="M42.5,98.72c-0.27-2.11-5.51-4.82-11.97-4.82c-5.03,0-9.33,1.65-11.11,3.37c0,0-3.47,0.54-5.4,1.07
		c-1.21,0.33-1.59,1.39-0.35,1.87c1.66,0.64,3.21,0.17,5,0.99c0.8,0.37,1.07,1.63,4.98,1.97c1.06,0.09,2.13,0.12,3.19,0.14
		c1.25,0.03,2.53,0.05,3.75,0.37c0.48,0.13,2.63,0.96,4.26,0.7c3.04-0.5,3.05-1.16,3.76-1.51c0.68-0.33,2.18-0.72,2.93-0.76
		c1.29-0.07,5.49-0.99,5.49-1.97C47.02,99.27,44.98,99.45,42.5,98.72z"/>
	<path style="fill:#E8F5E9;" d="M79.45,91.46c-1.47-1.39-4.94-2.71-9-2.71c-3.74,0-6.98,1.12-8.62,2.38c-2.45,0.5-4,1.22-4,2.03
		c0,1.51,5.43,2.74,12.13,2.74s12.13-1.22,12.13-2.74C82.08,92.51,81.09,91.92,79.45,91.46z"/>
	
		<radialGradient id="SVGID_2_" cx="70.4715" cy="92.7164" r="11.7548" gradientTransform="matrix(1 0 0 0.3944 0 53.4202)" gradientUnits="userSpaceOnUse">
		<stop  offset="0.5593" style="stop-color:#00BFA5"/>
		<stop  offset="1" style="stop-color:#00BFA5;stop-opacity:0"/>
	</radialGradient>
	<path style="fill:url(#SVGID_2_);" d="M80.19,92.8c0,1.73-4.36,2.22-9.75,2.22s-9.75-0.49-9.75-2.22s4.36-4.05,9.75-4.05
		S80.19,91.07,80.19,92.8z"/>
	
		<radialGradient id="SVGID_3_" cx="30.571" cy="100.457" r="14.4611" gradientTransform="matrix(1 0 0 0.3944 0 55.8122)" gradientUnits="userSpaceOnUse">
		<stop  offset="0.5551" style="stop-color:#00BFA5"/>
		<stop  offset="1" style="stop-color:#00BFA5;stop-opacity:0"/>
	</radialGradient>
	<path style="fill:url(#SVGID_3_);" d="M42.53,98.89c0,2.13-5.37,2.73-11.99,2.73s-11.99-0.6-11.99-2.73s5.37-4.99,11.99-4.99
		S42.53,96.76,42.53,98.89z"/>
	<path style="fill:#F3E5F5;" d="M111.34,98.68c-0.2,0.16-0.45,0.29-0.58,0.46c-0.14,0.18-0.14,0.38-0.2,0.58
		c-0.28,0.96-2.02,1.64-3.78,1.97c-1.76,0.33-3.67,0.44-5.38,0.85c-1.82,0.44-3.4,1.21-5.38,1.33c-1.9,0.12-3.75-0.33-5.66-0.32
		c-1.95,0.01-3.91-0.14-5.88-0.15c-2.09-0.01-3.17,0.49-6.36,0.04c-1.47-0.21-2.29-1.65-3.8-1.97c-1.25-0.26-3.69-0.58-4.37-1.72
		c-0.65-1.09,0.22-1.96,2.34-2.89c1.28-0.56,2.83-1.17,4.45-1.55c4.46-1.05,9.53-1.4,14.38-1.4c4.56,0,9.26,0.32,13.51,1.21
		c2.07,0.43,8.53,2.01,6.76,3.53C111.37,98.65,111.35,98.66,111.34,98.68z"/>
	
		<radialGradient id="SVGID_4_" cx="92.6218" cy="95.9681" r="20.8346" gradientTransform="matrix(0.9185 0 0 0.3707 5.5905 57.7962)" gradientUnits="userSpaceOnUse">
		<stop  offset="0.6323" style="stop-color:#EA80FC"/>
		<stop  offset="1" style="stop-color:#EA80FC;stop-opacity:0"/>
	</radialGradient>
	<path style="fill:url(#SVGID_4_);" d="M105.85,97.33c0,2.77-6.82,5.01-15.23,5.01s-15.23-2.24-15.23-5.01s6.82-6.18,15.23-6.18
		S105.85,94.57,105.85,97.33z"/>
	<path style="fill:none;stroke:#FFFFFF;stroke-width:3.067;stroke-linecap:round;stroke-miterlimit:10;" d="M11.99,76.29
		c0,0,5.61,1.91,17.82,3.1"/>
	<ellipse style="fill:#FFEBEE;" cx="48.4" cy="95.02" rx="4.28" ry="1.37"/>
	<ellipse style="fill:#FFEBEE;" cx="51.17" cy="104.64" rx="3.66" ry="1.17"/>
	<ellipse style="fill:#FFEBEE;" cx="60.69" cy="101.3" rx="6.65" ry="2.13"/>
	<g style="opacity:0.46;">
		<path style="fill:#FFFFFF;" d="M31.62,121.11c-13.72-2.13-19.26-4.87-19.26-4.87V78.15c0,0,8.79,2.09,19.26,2.94V121.11z"/>
	</g>
</g>
</svg>
