<?xml version="1.0" encoding="utf-8"?>
<!-- Generator: Adobe Illustrator 25.2.3, SVG Export Plug-In . SVG Version: 6.00 Build 0)  -->
<svg version="1.1" id="Layer_4" xmlns="http://www.w3.org/2000/svg" xmlns:xlink="http://www.w3.org/1999/xlink" x="0px" y="0px"
	 viewBox="0 0 128 128" style="enable-background:new 0 0 128 128;" xml:space="preserve">
<g>
	<path style="fill:#4FE8D8;" d="M96,78.61c-2.54-21.43-9.49-39.07-9.49-39.07h-0.09c-0.95-3.91-10.36-6.99-21.84-6.99
		c-0.19,0-0.38,0.01-0.58,0.01c-0.19,0-0.38-0.01-0.58-0.01c-11.48,0-20.88,3.07-21.84,6.99h-0.09c0,0-6.95,17.64-9.49,39.07
		c-2.53,21.35-3.61,34.42,1.95,39.83C37.67,122.06,53.54,124,64,124s26.33-1.94,30.05-5.56C99.61,113.03,98.53,99.96,96,78.61z"/>
	<path style="fill:#78909C;" d="M63.56,19.37c-6.49,0-11.76,1.09-11.76,2.43v13.73c0,1.34,5.27,2.43,11.76,2.43
		c6.49,0,11.76-1.09,11.76-2.43V21.81C75.32,20.46,70.05,19.37,63.56,19.37z"/>
	<path style="fill:#78909C;" d="M67.27,21.19c0,0-1.31,0.62-3.84,0.62c-2.54,0-3.84-0.62-3.84-0.62V10.06h7.69V21.19z"/>
	<path style="fill:#546E7A;" d="M63.01,17.2c-3.59-1.4-3.43-3.36-3.43-3.36v-1.89h7.69v5.9C67.27,17.85,66.1,18.4,63.01,17.2z"/>
	<path style="fill:#78909C;" d="M53.51,4.87l-1.05,2.53c-0.27,0.66,0.06,1.32,0.62,1.77c1.93,1.54,5.72,3.49,9.56,3.49
		c11.03,0,13.08-2.7,17.04-2.87c3.38-0.15,5.96,0.86,7.31,1.21c0.44,0.11,0.91-0.07,1.16-0.45l1.76-2.68
		c0.37-0.56,0.14-1.31-0.47-1.57c-1.9-0.8-5.9-2.22-10.17-2.22c-7.43,0-10.82,1.66-15.42,1.48c-3.04-0.11-6.76-0.96-8.64-1.51
		C54.51,3.85,53.79,4.21,53.51,4.87z"/>
	<path style="opacity:0.75;fill:#A7FFEB;" d="M57.94,25.79c-0.22-0.03-0.45-0.06-0.67-0.09c-0.91-0.14-1.84-0.37-2.62-0.86
		c-0.58-0.37-1.09-0.9-1.35-1.55c-0.26-0.63-0.03-1.17,0.73-0.96c1.61,0.44,3.2,0.84,4.84,1.13c1.44,0.25,2.92,0.17,4.38,0.18
		c0.39,0,0.96,0.23,0.71,0.73c-0.09,0.19-0.28,0.32-0.46,0.43C61.75,25.82,59.88,26.01,57.94,25.79z"/>
	<path style="fill:#A7FFEB;" d="M40.91,70.29c-0.98,0.02-1.32-2.58-1.01-6.51c0.54-7.03,1.68-12.3,4.59-18.73
		c1.87-4.14,8.5-3.19,6.72,1.17c-4.23,10.38-5.82,14.49-7.16,18.42C42.85,68.19,42.14,70.26,40.91,70.29z"/>
	<path style="fill:#FFFFFF;" d="M50.61,82.5c-0.02-7.53,7.96-19.22,11.79-24.16c0.99-1.28,2.08-1.36,3.02-0.04
		c3.69,5.18,11.98,16.25,11.98,24.2c0,7.4-6,13.4-13.4,13.4S50.63,89.89,50.61,82.5z"/>
</g>
</svg>
