<?xml version="1.0" encoding="utf-8"?>
<!-- Generator: Adobe Illustrator 25.2.3, SVG Export Plug-In . SVG Version: 6.00 Build 0)  -->
<svg version="1.1" id="Layer_3" xmlns="http://www.w3.org/2000/svg" xmlns:xlink="http://www.w3.org/1999/xlink" x="0px" y="0px"
	 viewBox="0 0 128 128" style="enable-background:new 0 0 128 128;" xml:space="preserve">
<g>
	<circle style="fill:#880E4F;" cx="63.13" cy="56.58" r="51.61"/>
	<g>
		<path style="fill:#EC407A;" d="M53.34,36.91c-0.12,0-0.25-0.03-0.37-0.04c-2.11-0.12-2.67-2.52-2.32-3.84
			c2.16-8.27,1.09-15.62-2.45-25.01c-0.73-1.92,2.18-2.42,3.45-1.91C52.87,6.6,54,8.36,54.49,9.69c2.93,7.93,3.75,16.26,1.33,25.17
			C55.5,36.06,54.54,36.94,53.34,36.91z"/>
	</g>
	<g>
		<path style="fill:#EC407A;" d="M59.8,44.58c-0.22,0-0.44-0.04-0.66-0.11c-1.31-0.4-2.05-1.78-1.65-3.08
			c2.78-9.2,4.81-24.24-1.63-35.54c-0.68-1.19,1.05-1.97,2.41-1.84c3.12,0.28,4.94,4.95,5.54,7.03c2.82,9.71,1.9,22.69-1.59,31.78
			C61.82,43.89,60.88,44.61,59.8,44.58z"/>
	</g>
	<g>
		<path style="fill:#EC407A;" d="M66.46,51.83c-1.7-0.49-2.02-2.73-1.63-4.04c7.74-25.94-0.05-41.88-0.11-42.05
			c-0.48-1.28,3.72-3.03,5.79,2.16c0.3,0.75,7.21,18.1-0.58,42C69.56,51,68.24,52.35,66.46,51.83z"/>
	</g>
	<g>
		<path style="fill:#EC407A;" d="M22.42,90.5c-0.72-0.85-1.62-2.2-0.48-2.96c1.89-1.27,8.38-3.33,13.57-10.37
			c0.81-1.1,2.18-1.61,3.37-0.93c1.19,0.67,1.72,2.26,0.93,3.37c-6.3,8.88-13.97,11.28-14.28,11.46
			C25.15,91.29,23.14,91.35,22.42,90.5z"/>
	</g>
	<g>
		<path style="fill:#EC407A;" d="M26.59,94.19c-0.52-1.3,2.8-1.87,2.8-1.87c1.47-0.56,7.5-1.69,12.31-9.26
			c0.73-1.15,2.19-1.6,3.37-0.92c1.19,0.68,1.6,2.19,0.92,3.37c-3.23,5.66-9.54,9.9-13.86,10.93C29.82,96.99,27.1,95.46,26.59,94.19
			z"/>
	</g>
	<g>
		<path style="fill:#EC407A;" d="M34.67,101.6c-1.53-0.81-1.98-2.29-1.01-2.61c5.73-1.85,11.99-6.63,15.03-11.13
			c0.76-1.13,2.3-1.43,3.43-0.66c1.13,0.76,1.42,2.3,0.66,3.43c-3.57,5.38-7.21,8.1-13.15,10.68C38.5,101.8,36.1,102.36,34.67,101.6
			z"/>
	</g>
	<g>
		<path style="fill:#EC407A;" d="M41.99,103.81c3.75-1.72,10-5.28,13.62-11.35c0.7-1.17,2.22-1.56,3.39-0.86
			c1.17,0.7,1.56,2.22,0.86,3.39c-2.92,4.9-6.98,8.77-13.17,10.95C43.68,107.01,40.75,104.39,41.99,103.81z"/>
	</g>
	<g>
		<path style="fill:#EC407A;" d="M18.96,83.36c-8.33-9.82-9.8-22.64-7.66-35.34c0.49-2.92,1.56-4.74,2.62-4.73
			c1.37,0.02,2.69,4.72,2.29,7.27c-1.8,11.47,1.52,22.72,8.7,31.47c0.43,0.53-0.18,2.32-1.71,2.99
			C21.67,85.68,19.96,84.54,18.96,83.36z"/>
	</g>
	<g>
		<path style="fill:#EC407A;" d="M25.31,77.83c-3.77-3.54-6.89-14.62-6.9-19.89c0-1.37,0.01-3.34,1.38-3.34c0,0,3.06,0.47,3.57,3.33
			c0.73,4.12,3.01,13.58,6.81,18.37C31.02,77.37,27.88,80.24,25.31,77.83z"/>
	</g>
	<g>
		<path style="fill:#D81B60;" d="M66.43,110.1c-4.35,0.22-11.03-0.69-13.22-3.69c-0.81-1.1,0.64-2.14,1.96-1.79
			c7.96,2.15,13.47,3.4,23.64-1.54c2.06-1,4.34,0.05,3.32,1.49C80.7,106.6,74.25,109.75,66.43,110.1z"/>
	</g>
	<g>
		<path style="fill:#D81B60;" d="M58.27,101.13c-0.77-1.13,1.52-3.02,2.88-2.8c2.15,0.34,3.64,0.72,5.14,0.78
			c1.54,0.06,3.43-0.5,4.01-0.5c1.37,0,4.65,1.35,3.81,2.43C71.51,104.38,60.7,104.68,58.27,101.13z"/>
	</g>
	<g>
		<path style="fill:#EC407A;" d="M86.48,44.57c-1.25,0.15-2.43-0.68-2.7-1.93c-0.29-1.33,0.56-2.65,1.89-2.94
			c5.89-1.28,13.57-5.67,18.05-12.72c1.07-1.69,4.4,1.48,2.61,4.16c-5.38,8.09-12.43,11.84-19.61,13.39
			C86.64,44.54,86.56,44.56,86.48,44.57z"/>
	</g>
	<g>
		<path style="fill:#EC407A;" d="M84.77,53.52c-1.33,0.16-2.55-0.77-2.74-2.11c-0.19-1.35,0.74-2.61,2.1-2.8
			c9.69-1.39,20.28-8.78,23.84-16.18c0.59-1.23,4.68,2.4,1.76,6.45c-5.21,7.21-15.43,13.27-24.89,14.62
			C84.81,53.52,84.79,53.52,84.77,53.52z"/>
	</g>
	<g>
		<path style="fill:#EC407A;" d="M85.66,61.38c-0.79,0.09-1.57,0.16-2.32,0.19c-1.36,0.06-2.52-1-2.58-2.37
			c-0.06-1.37,1-2.53,2.37-2.57c9.91-0.42,24.32-7.08,28.79-15.37c0.65-1.2,4.79,2.2,1.27,6.66c-2.64,3.35-6.8,6.09-11.56,8.48
			C96.47,59,90.67,60.79,85.66,61.38z"/>
	</g>
	<g>
		<path style="fill:#EC407A;" d="M93.49,68.14c-0.7,0.08-1.35,0.12-1.93,0.1c-1.37-0.03-2.45-1.17-2.41-2.53
			c0.03-1.36,1.16-2.45,2.53-2.41c4.57,0.1,16.91-4.7,22.15-12.93c0.74-1.15,3.47,3.15,0.52,6.51
			C107.97,64.15,99.52,67.43,93.49,68.14z"/>
	</g>
	<g>
		<path style="fill:#EC407A;" d="M74.42,58.31c-0.3,0-0.6-0.05-0.9-0.17c-1.27-0.49-1.85-1.91-1.41-3.2
			c5.09-14.93,6.87-32.53,0.47-48.74c-0.5-1.27,4.38-1.44,5.67,2.35c6.08,17.94,4.25,32.46-1.53,48.18
			C76.36,57.72,75.41,58.31,74.42,58.31z"/>
	</g>
	<g>
		<path style="fill:#D81B60;" d="M93.08,29.81c-1.27-1.59-6.13-5.43-8.01-6.09c-1.29-0.46-1.74-4.9-0.37-4.9
			c4.5-0.01,10.67,4.44,12.51,8.7C98.57,30.67,95.68,33.06,93.08,29.81z"/>
	</g>
	<g>
		<path style="fill:#D81B60;" d="M99.36,25.81c-4.43-5.92-7.99-9.81-16.19-12.69c-1.89-0.67-3.68-2.99-2.53-3.73
			c2.13-1.38,6.1,0.3,7.21,0.83c4.34,2.07,8.36,4.29,11.74,8.22c1.91,2.22,4.15,6.85,3.24,7.86
			C101.45,27.83,99.85,26.46,99.36,25.81z"/>
	</g>
	<g>
		<path style="fill:#D81B60;" d="M100.6,74.95c-0.72-1.16,3.29-2.83,3.65-7.07c0.12-1.36,4.26-2.96,4.35-1.6
			c0.34,5.3-1.53,7.23-3.61,8.74C102.72,76.65,101.06,75.71,100.6,74.95z"/>
	</g>
	<g>
		<path style="fill:#D81B60;" d="M108.84,78.57c-1.85-0.42-1.11-2.41-0.25-3.47c3.28-4.02,3.58-6.17,3.24-10.55
			c-0.17-2.16,1.6-4.09,2.44-3.02c1.09,1.4,1.91,5.49,1.13,8.85C113.56,78.37,109.42,78.7,108.84,78.57z"/>
	</g>
	<path style="fill:#D81B60;" d="M90.09,32.14c0.3,0.39,0.59,0.81,0.71,1.28c0.13,0.48,0.07,1.03-0.25,1.4
		c-0.22,0.25-0.52,0.4-0.82,0.54c-0.57,0.27-1.14,0.54-1.76,0.65c-0.62,0.11-1.29,0.04-1.8-0.32c-0.64-0.46-0.9-1.28-1.07-2.04
		c-0.29-1.24-0.47-2.5-0.56-3.77c-0.02-0.3-0.03-0.63,0.11-0.9C85.5,27.38,89.51,31.41,90.09,32.14z"/>
	<g>
		<path style="fill:#EC407A;" d="M93.08,98.12c-5.88-1.03-11.78-3.33-17.55-5.95c-1.33-0.64-2.61-1.31-3.89-1.99
			c-2.12,1.2-4.4,2.17-6.78,2.89c6.31,3.53,11.55,5.44,15.39,6.58c6.57,1.96,9.26,1.6,9.82,1.52
			C92.23,100.84,94.42,98.39,93.08,98.12z"/>
		<path style="fill:#F06292;" d="M19.25,36.29c-0.65-1.2-1.62-4.18-1.62-4.18c-1.72-0.21-3.13,2.01-2.5,5.78
			c0.37,2.17,10.16,26.84,39.1,48.29c3.8,2.82,7.35,5.07,10.62,6.9c0,0,2.3,1.52,5.44-0.1c2.66-1.37,1.34-2.8,1.34-2.8
			C48.28,77.88,32.29,60.24,19.25,36.29z"/>
		<path style="fill:#EC407A;" d="M99.65,92.69c-7.07-2.26-13.93-4.96-20.49-8.21c-1.33,1.4-2.79,2.67-4.36,3.81
			c1.39,0.78,2.77,1.53,4.14,2.26C83.25,92.85,100.49,100.35,99.65,92.69z"/>
		<path style="fill:#F06292;" d="M79.15,84.48c-23.4-11.59-43.54-29.75-56.26-60.41c-3.35,0.74-3,4.67-2.52,5.95
			c11.37,30.25,34.4,47.04,54.42,58.27c0,0,3.16,1.74,5.25-0.93C81.29,85.75,79.15,84.48,79.15,84.48z"/>
		<path style="fill:#EC407A;" d="M104.68,86.24c-7.41-2.11-14.32-5.04-20.73-8.5c-0.82,1.59-1.78,3.1-2.86,4.5
			c5.12,2.6,10.53,4.8,16.21,6.45C104.48,90.76,106.03,86.47,104.68,86.24z"/>
		<path style="fill:#F06292;" d="M29.04,17.83c-0.82-1.73-4.28,0.9-3.68,3.63c3.73,13.58,20.96,44.14,55.73,60.78
			c0,0,2.78,1.22,3.84-1.1c1.06-2.33-0.97-3.4-0.97-3.4C47.43,58.31,33.56,30.48,29.04,17.83z"/>
		<path style="fill:#EC407A;" d="M109.63,79.99c-8.36-3.08-15.83-6.41-22.61-10.16c-0.05,0.39-0.11,0.78-0.2,1.14
			c-0.35,1.51-0.82,2.96-1.38,4.35c5.91,3.03,12.27,5.62,19.13,7.77C110.05,84.62,110.91,80.48,109.63,79.99z"/>
		<path style="fill:#F06292;" d="M87.02,69.83C62.3,56.24,49.81,40.71,36.04,13.9c-1.68-2.7-5.77-0.23-4.18,2.64
			C44,42.87,56.96,59.21,85.44,75.33c0,0,2.18,0.85,3.02-1.69C88.99,72.04,88.49,70.63,87.02,69.83z"/>
	</g>
	<path style="fill:#FF80AB;" d="M70.52,124c-2.77,0-5.58-0.07-8.39-0.23c-17.33-0.96-38.97-6.92-45.51-17.77
		c-2.05-3.39-8.28-13.72,4.43-34.62c7.13-11.72,24.26-36.76,19.57-60.68c0,0-0.65-2.3,1.4-3.17c3.03-1.28,3.52,1.32,3.52,1.32
		c5.99,27.91-11.91,53.31-19.4,65.62c-9.71,15.97-7.17,23.88-4.42,28.44c3.18,5.26,16.65,13.57,40.74,14.9
		c30.28,1.67,48.81-5.9,50.71-8.61c0.07-1.02-0.59-2.22-11.95-2.46c-3.15-0.07-2.86-4.67-1.28-4.85c4.62-0.54,13.31-0.54,17.29,2.34
		c2.01,1.46,2.85,3.61,2.06,6.11C116.92,117.83,95.83,124,70.52,124z M113.25,109.1L113.25,109.1L113.25,109.1z"/>
</g>
</svg>
