<?xml version="1.0" encoding="utf-8"?>
<!-- Generator: Adobe Illustrator 25.2.3, SVG Export Plug-In . SVG Version: 6.00 Build 0)  -->
<svg version="1.1" id="Layer_1" xmlns="http://www.w3.org/2000/svg" xmlns:xlink="http://www.w3.org/1999/xlink" x="0px" y="0px"
	 viewBox="0 0 128 128" style="enable-background:new 0 0 128 128;" xml:space="preserve">
<g>
	<g>
		<g>
			<path style="fill:#A65F3E;" d="M56.31,74.64c-0.88,0-1.71-0.34-2.34-0.97C53.35,73.05,53,72.22,53,71.33
				c0-0.88,0.34-1.71,0.97-2.34l64.56-64.56c0.62-0.62,1.46-0.97,2.34-0.97s1.71,0.34,2.34,0.97c1.29,1.29,1.29,3.39,0,4.68
				L58.65,73.67C58.02,74.3,57.19,74.64,56.31,74.64z"/>
			<path style="fill:#A65F3E;" d="M120.87,4c0.71,0,1.42,0.27,1.96,0.81c1.08,1.08,1.08,2.84,0,3.93L58.27,73.3
				c-0.54,0.54-1.25,0.81-1.96,0.81c-0.71,0-1.42-0.27-1.96-0.81c-1.08-1.08-1.08-2.84,0-3.93l64.56-64.56
				C119.45,4.27,120.16,4,120.87,4 M120.87,2.94c-1.03,0-1.99,0.4-2.71,1.12L53.6,68.62c-0.73,0.72-1.12,1.69-1.12,2.71
				c0,1.03,0.4,1.99,1.12,2.71c0.72,0.72,1.69,1.12,2.71,1.12c1.03,0,1.99-0.4,2.71-1.12l64.56-64.56c1.5-1.5,1.5-3.93,0-5.43
				C122.86,3.34,121.89,2.94,120.87,2.94L120.87,2.94z"/>
		</g>
	</g>
	<path style="fill:#FFE082;" d="M5.61,91.49l31.11,31.11c6.99-7.7,12.97-16.45,16.19-26.5c0.23-0.73,0.27-1.92,1.02-2.87
		c3.61-4.53,14.92-16.06,5.65-25.33c-8.85-8.85-19.5,1.81-23.95,5.48c-1.36,1.13-3.07,1.83-4.85,2.21
		C18.84,78.2,6.51,90.54,5.61,91.49z"/>
	<path style="fill:#FFE082;" d="M59.07,60.61c0.77-0.4,1.87-0.9,3.15-0.68c0.78,0.14,1.89,1.08,3.04,2.23
		c1.15,1.15,2.23,2.44,2.55,3.27c0.33,0.83-0.03,1.94-0.03,1.94c-0.93,1.84-3.07,5.52-4.8,4.99c-1.93-0.59-3.86-2.44-5.29-3.83
		c-0.81-0.78-1.65-1.64-2.2-2.63c-0.77-1.41,0.06-2.59,1.03-3.57C57.21,61.67,58.38,60.97,59.07,60.61z"/>
	<path style="fill:#F9C248;" d="M58.61,63.79c0.93,0.88,1.68,1.95,2.71,2.71c2.02,1.48,3.64,0.77,4.96-0.42
		c0.39-0.35,0.98-0.8,1.36-0.44c0.11,0.11,0.16,0.26,0.2,0.41c0.16,0.73-0.06,1.49-0.36,2.18c-0.74,1.69-1.95,3.17-3.46,4.23
		c-0.26,0.18-0.57,0.36-0.88,0.26c-0.19-0.06-0.33-0.21-0.45-0.36c-1.66-1.95-2.96-4.26-5.01-5.79c-0.82-0.61-2.91-1.06-2.38-2.43
		C56.09,62.05,57.83,63.05,58.61,63.79z"/>
	<path style="fill:#F9C248;" d="M52.91,96.1c0.23-0.73,0.27-1.92,1.02-2.87c4.12-5.16,9.78-11.04,9.16-18.2
		c-0.08-0.98-1.35-6-2.74-4.11c-0.31,0.42-0.19,2.52-0.23,3.03c-0.8,9.38-8.16,14.57-9.52,16.19c-1.36,1.63-1.32,3.15-2.49,5.56
		c-1.31,2.71-2.99,5.24-4.88,7.58c-3.03,3.75-6.6,7.03-10.29,10.15c-0.61,0.51-1.24,1.04-1.62,1.74c-1.05,1.93,1.22,3.25,2.44,4.46
		c0.98,0.98,1.96,1.96,2.95,2.95C43.7,114.89,49.68,106.14,52.91,96.1z"/>
	<g>
		<path style="fill:#A65F3E;" d="M62.67,73.4c0,0-3.5-6.6-8.13-8.59c0,0-0.17-0.43,0.16-0.8c0.41-0.46,0.96-0.56,1.25-0.37
			c3.42,2.12,6.5,4.95,8.06,8.82C64.32,73.2,62.96,74.29,62.67,73.4z"/>
	</g>
	<path style="fill:#E2A610;" d="M36.3,118.46c-0.8-1.25-1.94-2.4-2.54-3.66c-0.14-0.31-0.27-0.64-0.23-0.98
		c0.07-0.64,1.04-1.21,1.49-1.59c0.68-0.58,1.37-1.15,2.03-1.76c1.3-1.19,2.51-2.51,3.35-4.07c0.14-0.25,0.26-0.56,0.13-0.82
		c-0.28-0.52-1.9,1.22-2.2,1.49c-0.84,0.74-1.66,1.5-2.54,2.18c-1.17,0.9-3.38,2.43-4.95,1.7c-0.8-0.37-1.52-1.35-2.1-1.99
		c-0.67-0.75-1.31-1.53-2.02-2.26c-1.02-1.06-2.06-2.1-3.11-3.12c-0.53-0.52-1.07-1.04-1.62-1.54c-0.41-0.37-0.49-0.53-0.03-0.98
		c1.52-1.48,2.98-3.03,4.37-4.63c0.18-0.21,0.35-0.54,0.14-0.72c-0.15-0.13-0.39-0.04-0.56,0.05c-2.08,1.1-3.74,2.83-5.54,4.35
		c-0.44,0.37-1.71-1.04-1.99-1.26c-0.74-0.59-1.23-0.82-0.37-1.69c3.87-3.92,7.78-7.56,12.43-10.58c0.86-0.55,1.76-1.12,2.25-2.02
		c-0.09-0.24-0.44-0.21-0.69-0.12c-6.45,2.32-15.12,10.33-15.86,11.04c-1.3,1.26-3.63-1.65-7.08-3.85c-1.18-0.75,0-1.88,0.3-2.23
		c2.08-2.46,4.83-5.14,4.83-5.14c-1.02,0.11-7.65,6.09-8.44,6.99c-0.67,0.77-1.35,1.47-1.4,2.54c-0.05,0.93,0.32,1.86,0.86,2.6
		c6.16,8.4,20.69,22.35,25.84,26.03c3.07,2.19,4.02,1.79,5.27,0.54c0.65-0.65,0.96-1.48,0.84-2.4
		C37.06,119.82,36.73,119.12,36.3,118.46z"/>
	<g>
		<g>
			<path style="fill:#F44336;" d="M53.11,95.03c-4.22-6.54-13.04-15.49-19.68-20.19c-0.52-0.37,1.64-1.63,2.18-1.25
				c6.9,4.91,14.03,12.4,18.48,19.19C54.45,93.31,53.36,95.41,53.11,95.03z"/>
		</g>
		<g>
			<path style="fill:#F44336;" d="M57.54,88.62c-4.05-5.69-12.17-13.91-17.9-18.5c-0.5-0.4,1.45-1.76,1.85-1.45
				c6.04,4.82,13.35,11.99,17.44,18.11C59.23,87.23,57.83,89.03,57.54,88.62z"/>
		</g>
	</g>
</g>
</svg>
