<?xml version="1.0" encoding="utf-8"?>
<!-- Generator: Adobe Illustrator 24.1.2, SVG Export Plug-In . SVG Version: 6.00 Build 0)  -->
<svg version="1.1" id="Layer_5" xmlns="http://www.w3.org/2000/svg" xmlns:xlink="http://www.w3.org/1999/xlink" x="0px" y="0px"
	 viewBox="0 0 128 128" style="enable-background:new 0 0 128 128;" xml:space="preserve">
<g>
	<g>
		<path style="fill:none;stroke:#BDBDBD;stroke-width:6;stroke-linejoin:round;stroke-miterlimit:10;" d="M60.55,98.3
			c-16.79,4.83-26.01-18.83-29.53-27.27C24,54.17,5.69,42.41,7.04,30s16.6-11.17,16.6-11.17"/>
		<path style="fill:none;stroke:#BDBDBD;stroke-width:6;stroke-linejoin:round;stroke-miterlimit:10;" d="M59.5,98.3
			c16.89-4.48,11.39-28.91,10.07-37.96c-2.63-18.08,7.04-37.57-0.49-47.52S49.1,11.76,49.1,11.76"/>
		<g>
			<circle style="fill:#878787;" cx="101.84" cy="32.23" r="15.25"/>
		</g>
		<circle style="fill:#BDBDBD;" cx="102.38" cy="31.13" r="13.41"/>
		<path style="fill:none;stroke:#03A9F4;stroke-width:8;stroke-miterlimit:10;" d="M69.39,58.93c-0.89,6.74,10.14,31.36-6.97,38.1
			c-19.16,7.56-26.31-20.55-31.39-26"/>
		<path style="fill:none;stroke:#03A9F4;stroke-width:5;stroke-miterlimit:10;" d="M32.63,73.54c0,0,10.77,11.36,23.4,6.15
			C68,74.75,69.86,61.64,69.86,61.64"/>
		<path style="opacity:0.22;fill:#212121;" d="M100.96,21.43c-5.24,1.22-8.49,6.45-7.28,11.69c0.18,0.78,0.46,1.54,0.83,2.26
			c0.29,0.57,0.68,1.34,0.68,1.34c-1.92,2.51-3.48,3.47-4.01,6.38c1.36,1.33,2.95,2.39,4.69,3.13c0-0.01,0.01-0.02,0.01-0.03
			c0,0.01,0.01,0.02,0.01,0.04c2.87,1.22,6.14,1.59,9.42,0.83c0.37-0.09,0.72-0.2,1.07-0.31l-0.31-2.8c0,0,0.4-3.55,0.49-3.74
			c0.23-0.45,1.16-0.69,1.64-0.97c1.16-0.7,2.17-1.65,2.95-2.76c1.57-2.25,2.12-5.11,1.5-7.78
			C111.43,23.47,106.19,20.21,100.96,21.43z"/>
		<path style="fill:none;stroke:#03A9F4;stroke-width:8;stroke-miterlimit:10;" d="M60.42,96.03c9.59,21.97,24.29,25.08,35.15,23.19
			c9.54-1.67,22.17-10.22,22.14-25.72c-0.04-18.68-12.5-17.5-19.25-29.47c-8.41-14.92,3.05-28.62,3.05-28.62"/>
		<path style="opacity:0.22;fill:#212121;" d="M94.74,38.77c0,0,1.9-0.97,3.72,0.07c2.88,1.64,3.16,3.98,3.16,3.98
			s1.74-3.46,2.67-4.4c0.92-0.95-5.57-5.66-7.04-3.85S94.74,38.77,94.74,38.77z"/>
		<path style="fill:#616161;" d="M27.83,14.04c-1.5,0.01-2.82,0.73-3.69,1.82l-1.24-0.98c-1.13-0.89-2.79-0.08-2.78,1.36l0.04,5.19
			c0.01,1.44,1.68,2.23,2.79,1.32l1.21-0.98c0.88,1.09,2.22,1.8,3.73,1.79c2.63-0.02,4.75-2.17,4.73-4.8S30.46,14.02,27.83,14.04z"
			/>
		<path style="fill:#616161;" d="M53.13,12.22l-2.65-4.46c-0.74-1.24-2.58-1.07-3.08,0.27l-0.55,1.48c-1.31-0.49-2.81-0.42-4.1,0.35
			c-2.26,1.34-3.01,4.27-1.66,6.53c1.34,2.26,4.27,3.01,6.53,1.66c1.3-0.77,2.08-2.07,2.27-3.46l1.54,0.21
			C52.85,14.99,53.87,13.46,53.13,12.22z"/>
		<circle style="fill:#424242;" cx="104.19" cy="29.3" r="9.12"/>
		<g>
			<circle style="fill:#D1D1D1;" cx="104.65" cy="28.59" r="7.08"/>
		</g>
		<path style="fill:#757575;" d="M42.37,15.11c-0.83-1.19-0.67-3.41,0.76-4.42s3.59-0.57,4.42,0.76c0.93,1.48-1.5,0.15-2.93,1.16
			S43.37,16.55,42.37,15.11z"/>
	</g>
	<path style="fill:#757575;" d="M25.01,17.25c0.36-1.41,2.13-2.74,3.83-2.32s2.78,2.33,2.32,3.83c-0.51,1.67-1.1-1.04-2.8-1.45
		C26.67,16.89,24.58,18.95,25.01,17.25z"/>
</g>
</svg>
