<?xml version="1.0" encoding="utf-8"?>
<!-- Generator: Adobe Illustrator 25.2.3, SVG Export Plug-In . SVG Version: 6.00 Build 0)  -->
<svg version="1.1" id="Layer_2" xmlns="http://www.w3.org/2000/svg" xmlns:xlink="http://www.w3.org/1999/xlink" x="0px" y="0px"
	 viewBox="0 0 128 128" style="enable-background:new 0 0 128 128;" xml:space="preserve">
<path style="fill:#95C7EC;" d="M116.62,124.26H11.32c-4.15,0-7.52-3.37-7.52-7.52V11.44c0-4.15,3.37-7.52,7.52-7.52h105.3
	c4.15,0,7.52,3.37,7.52,7.52v105.3C124.15,120.89,120.78,124.26,116.62,124.26z"/>
<polygon style="fill:#10203D;" points="10.43,117.67 10.69,9.27 118.69,8.74 118.3,117.54 "/>
<path style="fill:#2865AB;" d="M49.7,22.01c-1.08,0.95-8.23,1.19-14.86,0.53c-6.63-0.66-13.8-0.13-17.12,1.72s-7.16,5.57-7.16,5.57
	l-0.4,52.67l6.76-9.75c0,0-0.34,10.57,1.47,25.27c1.37,11.12,4.64,19.5,4.64,19.5h84.65c0,0,3.35-14.61,3.98-22.02
	c0.9-10.65,0.13-20.3,0.13-20.3l6.5,7.7l0.27-52.14c0,0-3.4-4.36-10.34-6.38c-8.49-2.47-19.6-2.16-24.42-2.25
	c-1.61-0.03-3.85,0.13-4.38-0.66s-0.4-12.21-0.4-12.21L50.36,9.01C50.36,9.01,50.76,21.08,49.7,22.01z"/>
<radialGradient id="SVGID_1_" cx="65.4524" cy="68.3516" r="75.1426" gradientTransform="matrix(1 -9.433542e-03 6.862747e-03 0.7275 -0.4662 19.2466)" gradientUnits="userSpaceOnUse">
	<stop  offset="0.5911" style="stop-color:#7AC4D9"/>
	<stop  offset="0.7747" style="stop-color:#4FA4C6"/>
	<stop  offset="0.8506" style="stop-color:#3C95BD"/>
	<stop  offset="1" style="stop-color:#327DB5"/>
</radialGradient>
<path style="fill:url(#SVGID_1_);" d="M55.28,24.85c0,0,0.93-4.01,1.08-8.49c0.15-4.48,0-7.41,0-7.41L72.72,8.8
	c0,0-0.46,4.79-0.46,7.25s0.31,7.25,0.93,8.18s4.7,0.26,8.38,2.01c4.21,2.01,5.46,6.03,5.46,6.03l18.42-0.64l6.89,3.13
	c0,0,2.32,2.01,2.93,4.79s0.86,6.99,0.86,6.99l2.74,3.93l-0.62,16.36c0,0-7.1-8.18-8.34-9.42c-1.23-1.23-2.62-4.32-4.17-1.23
	c-1.54,3.09,2.93,6.79,2.62,20.84c-0.31,14.05-2.01,24.08-6.17,23.15c-4.17-0.93-1.54-7.1-2.16-15.44s-2.16-20.37-7.56-31.95
	S76.27,37.2,73.8,37.82c-2.47,0.62-1.54,18.52-1.23,25.01c0.31,6.48,2.93,14.97,7.1,20.84c4.17,5.87,9.42,6.95,10.96,13.12
	s-0.15,9.11-0.15,9.11s5.71,0.15,8.49,2.93s4.79,8.95,4.79,8.95H25.8c0,0,0.31-8.8,7.56-13.74s13.12-4.17,13.12-4.17l4.17-5.4
	l5.4-18.37c0,0,0.31-17.13,0.31-23s0.31-12.66-0.15-13.74c-0.46-1.08-5.4-2.78-5.4-2.78s-10.03,4.48-14.51,14.2
	s-6.02,21.76-6.64,33.03c-0.62,11.27,0.77,17.75-2.16,17.29s-7.56-9.72-7.41-26.09c0.15-16.36,3.4-20.68,1.54-21.61
	c-1.85-0.93-4.09,2.44-7.41,6.64c-2.32,2.93-3.86,4.48-3.86,4.48V47.23c0,0,2.62-2.32,2.78-4.48s0.31-6.64,4.79-9.11
	s23.15-1.7,23.15-1.7s1.7-3.4,6.33-5.71S55.28,24.85,55.28,24.85z"/>
<path style="fill:#FCFDFD;" d="M58.2,9c0,0-0.24,4.33,0.77,4.9c1.01,0.58,2.74,0.19,5.77,0.19c3.03,0,4.23,0.43,5.14-0.24
	c0.91-0.67,0.34-5.24,0.34-5.24L58.2,9z"/>
<path style="fill:#004CA5;" d="M9.56,8.25l-0.19,110.6L119.23,119l0.4-111.19L9.56,8.25z M11.36,116.88L11.22,10.2l106.14-0.53
	l0.13,106.94L11.36,116.88z"/>
<path style="fill:#DAEBF5;" d="M114.8,6.94c-0.59,1.02-0.42,4.76,0.34,5.27s4.5,0.08,5.1-0.42c0.59-0.51,0.25-4.59-0.42-5.18
	C119.14,6.01,115.23,6.21,114.8,6.94z"/>
<path style="fill:#DAEBF5;" d="M7.96,7.62c-1.15,1.15-0.68,4.59,0.08,5.18c0.76,0.59,4.42,0.68,5.27-0.08
	c0.85-0.76,0.76-4.59-0.25-5.44S8.98,6.6,7.96,7.62z"/>
<path style="fill:#DAEBF5;" d="M7.79,114.72c-0.59,0.71-0.59,4.59,0.17,5.27s4.5,0.68,5.01,0.25s0.76-4.59,0.08-5.18
	C12.38,114.46,8.21,114.21,7.79,114.72z"/>
<path style="fill:#DAEBF5;" d="M114.63,114.89c-0.73,0.42-0.51,4.93,0.17,5.52c0.91,0.8,4.59,0.51,5.18-0.17
	c0.59-0.68,0.76-4.59,0.25-5.18C119.73,114.46,115.65,114.29,114.63,114.89z"/>
<path style="fill:#FEFEFE;" d="M16.63,34.31c1.02,2.51,7.39,0,7.39,0s4.93-0.59,11.73,0.25s20.65,6.2,20.65,6.2
	s-2.12,1.78-5.78,0.51c-3.65-1.27-5.1-3.99-6.2-3.31c-1.1,0.68-0.59,4.93,4.59,6.97s9.26,0.25,9.26,0.25l0.25,6.88
	c0,0-1.44-1.02-3.31-1.1s-15.55,0.93-17.08-3.57s2.89-7.05,3.91-7.82c1.02-0.76,1.61-2.21,0.34-2.8c-1.27-0.59-9.01,1.95-9.52,8.84
	s8.58,10.11,13.6,10.62s9.77,0.42,10.54,0.17c0.76-0.25,1.7-1.02,1.7-1.02s0.59,18.61,1.02,20.99c0.42,2.38,1.95,5.35,4.84,5.1
	s3.57-3.74,3.82-6.03c0.25-2.29,1.53-19.29,1.53-19.29s1.02,1.19,2.29,1.19s11.81,1.02,17.42-1.53c5.61-2.55,7.73-6.71,6.8-12.07
	s-7.14-7.31-8.33-6.37c-1.19,0.93,0.68,2.72,1.53,3.57c0.85,0.85,3.99,6.97-0.93,9.26c-4.93,2.29-15.21,1.19-16.4,1.44
	c-1.19,0.25-2.04,1.53-2.04,1.53l0.25-7.65c0,0,7.39,1.78,11.39-1.95s3.23-5.78,1.95-6.03c-1.27-0.25-2.12,3.23-5.1,4.08
	c-2.97,0.85-6.88,0.51-6.88,0.51s5.52-3.91,15.47-6.2c9.94-2.29,18.44-1.27,18.44-1.27s4.04,3.43,6.91,1.16
	c2.87-2.27-1.21-6.43-4.02-6.69s-10.28-1.17-21.76,1.7c-11.9,2.97-19.04,7.65-19.04,7.65s-4.93,0.42-7.9-0.93
	c-2.97-1.36-10.7-5.66-23.12-7.9c-8.92-1.61-15.89-1.44-17.68-0.76C18.11,29.28,15.18,30.74,16.63,34.31z"/>
<path style="fill:#FDFFFE;" d="M45.72,29.69c-0.07,1.17,1.16,2.07,2.13,2.07s2.5-1.52,5.18-1.89c2.68-0.37,3.23,0.18,3.96-0.12
	c0.73-0.3,1.28-1.58,0.24-2.44c-1.04-0.85-4.57-0.79-6.46-0.37S45.78,28.66,45.72,29.69z"/>
<path style="fill:#FEFEFE;" d="M58.16,32.43c0.06,1.28-0.03,2.96,1.71,3.6c1.16,0.43,1.77,0,4.57-0.12c2.8-0.12,3.9,0.43,5.43-0.61
	s1.28-4.45,0.3-5.24c-0.84-0.68-4.45-0.43-5.73-0.43C63.16,29.63,57.97,28.47,58.16,32.43z"/>
<path style="fill:#FEFEFE;" d="M58.77,22.62c-0.68,0.6-0.61,4.39,0.3,5.12c0.91,0.73,9.2,0.24,10,0.24s1.46-0.67,1.4-2.99
	c-0.06-2.32-0.12-3.11-3.11-2.99C64.37,22.13,59.8,21.71,58.77,22.62z"/>
<path style="fill:#FEFEFE;" d="M58.89,15.79c-0.52,0.63-1.16,4.02-0.24,4.69c0.91,0.67,3.84,0.12,5.73,0.12
	c1.89,0,4.63,0.61,5.67-0.49c1.04-1.1,0.55-4.39-0.43-4.88c-0.98-0.49-3.23,0.06-5.36,0.06C62.12,15.31,59.5,15.06,58.89,15.79z"/>
<path style="fill:#FDFFFE;" d="M72.73,28.05c0,1.1,0.49,1.52,2.07,1.52s2.93,0.06,3.78,0.55c0.85,0.49,0.98,1.22,1.89,1.28
	s3.05,0,2.93-1.34c-0.12-1.34-2.62-2.56-4.69-2.93S72.73,26.34,72.73,28.05z"/>
<path style="fill:#FDFFFE;" d="M32.64,50.71c-1.26-0.97-3.42,1.26-4.14,2.07c-0.72,0.81-4.5,5.4-0.54,10.7s11.84,5.23,17.18,4.77
	c7.2-0.63,13.67-3.69,12.68-6.93c-0.75-2.45-8.13,2.77-16.73,1.89c-7.91-0.81-10.61-2.61-10.7-6.57
	C30.3,52.73,34.62,52.24,32.64,50.71z"/>
<path style="fill:#FDFFFE;" d="M71.05,61.5c-0.92,1.37-0.1,3.12,3.51,4.59c5.31,2.16,19.34,5.94,25.72-0.63
	c6.39-6.57,0.27-15.83-2.61-15.02c-3.67,1.03,4.41,6.84-0.99,10.61c-4.37,3.06-11.33,2.25-17,1.35
	C74.4,61.57,72.31,59.62,71.05,61.5z"/>
<path style="fill:#FDFFFE;" d="M70.69,68.16c-0.96,1.11,0.54,4.95,6.48,8.36c5.94,3.42,12.51,5.68,20.33,3.96
	c8.31-1.83,8.54-12.86,4.68-13.31c-3.13-0.36,1.39,6.06-6.12,7.47c-7.2,1.35-14.39-1.89-17.09-3.24
	C76.26,70.05,72.4,66.18,70.69,68.16z"/>
<path style="fill:#FDFFFE;" d="M70.38,74.14c-1.28,0.96-1.25,2.45-0.17,5.93c0.85,2.74,5.02,15.8,11.86,23.39
	c6,6.65,9.73,6.39,9.7,4.62c-0.06-3.14-1.43-2-6.96-9.58c-4-5.49-7.36-12.49-7.36-12.49s3.33,3.12,6.67,5.48
	c3.31,2.34,6.62,3.37,7.53,3.08s0.63-2.74-0.11-3.99c-0.66-1.12-2.05-1.43-4.85-3.14c-3.5-2.14-7.02-5.36-10.1-8.27
	C73.51,76.25,71.52,73.29,70.38,74.14z"/>
<path style="fill:#FDFFFE;" d="M92.93,94.56c0.68,0.51,4.97,0.38,7.59-1.71c4.22-3.37,4.51-6.38,4.51-9.98
	c0-2.4-1.03-4.16-1.88-3.82s-0.89,5.6-3.48,8.5c-2.8,3.14-5.25,1.94-6.79,2.68C91.5,90.88,92.01,93.88,92.93,94.56z"/>
<path style="fill:#FDFFFE;" d="M92.68,106.48c-0.42,0.48-0.2,2.53,0.42,3.38c0.6,0.82,6.47,1.28,8.88-2.35
	c2.57-3.88,2.46-12.85,0.46-12.66c-1.83,0.17-0.91,7.7-3.94,9.81C95.47,106.77,93.76,105.23,92.68,106.48z"/>
<path style="fill:#FDFFFE;" d="M25.77,64.84c-1.71,0.29-1.79,5.55-1.03,8.9c0.86,3.76,4.73,7.81,12.55,7.47
	c9.41-0.41,16.83-6.85,18.25-7.99c1.43-1.14,3.25-3.42,2.45-4.51c-0.8-1.08-2.68-0.46-5.13,0.86c-2.45,1.31-11.29,5.93-16.09,5.65
	c-4.79-0.29-7.02-2-7.99-4.91C27.82,67.41,27.42,64.56,25.77,64.84z"/>
<path style="fill:#FDFFFE;" d="M58.06,74.71c-1.29-0.52-2.51,0.8-4.22,2.57s-7.59,7.47-11.18,9.98c-1.8,1.26-3.59,1.65-3.99,2.85
	s-0.08,3.44,0.74,3.71c1.6,0.51,6.1-2.97,7.99-4.34s4.22-3.88,4.22-3.88s-2.05,7.24-7.19,13.23c-4.83,5.64-5.53,4.79-6.85,6.56
	c-1.31,1.77-1.31,3.19-1.31,3.19s-0.17,2.57,1.77,1.88c1.94-0.68,6.27-2.97,10.27-8.56s6.5-10.95,8.1-15.46
	C58,81.96,59.77,75.4,58.06,74.71z"/>
<path style="fill:#FDFFFE;" d="M26.11,78.82c-1.6-0.74-3.57,2.36-2.51,7.36c1.08,5.13,4.28,7.19,7.64,8.1
	c3.9,1.06,6.1,0.91,5.99-1.6c-0.11-2.51-2.4-2.34-3.94-2.68c-1.54-0.34-4.9-1.3-5.88-4.79C26.23,80.93,27.23,79.34,26.11,78.82z"/>
<path style="fill:#FEFEFE;" d="M27.41,94.55c-1.04-0.09-2,1.48-2,5.02c0,4.26,1.67,8.37,4.57,10.17c2.37,1.48,4.04,1.72,5.15,1.48
	c1.48-0.32,1.55-4.12,0.58-4.64s-2.99-0.03-4.96-2.32c-1.55-1.8-2.5-3.8-2.32-6.44C28.57,95.97,28.18,94.62,27.41,94.55z"/>
</svg>
