<?xml version="1.0" encoding="utf-8"?>
<!-- Generator: Adobe Illustrator 25.2.3, SVG Export Plug-In . SVG Version: 6.00 Build 0)  -->
<svg version="1.1" id="Layer_2" xmlns="http://www.w3.org/2000/svg" xmlns:xlink="http://www.w3.org/1999/xlink" x="0px" y="0px"
	 viewBox="0 0 128 128" style="enable-background:new 0 0 128 128;" xml:space="preserve">
<path style="fill:#FE82A5;" d="M60.82,16.74c1.24,0.82,3.33-1.79,6.89-1.56c9.11,0.59,12.44,5.26,13.18,5.26
	c0.37,0,3.18-1.33,4.74-4.67c1.26-2.71,0.67-6.18,0.44-6.44c-0.44-0.52-4.89-6.02-16.37-5.18C60.14,4.85,57.34,14.44,60.82,16.74z"
	/>
<path style="fill:#FDA3C9;" d="M94.66,30.36c0.89,0.22,3.04,1.54,4.52,5.85c1.56,4.57,0.08,12.22,0.08,12.22s1.41,2.52,6.52,2.3
	c5.11-0.22,6.59-3.04,6.59-3.04s-0.69-12.15-6.33-19.06c-4.59-5.63-10.95-4.21-12.42-1.6C92.56,28.91,93.77,30.14,94.66,30.36z"/>
<path style="fill:#FF82A7;" d="M107.99,69.02c-0.81,1.26,0.62,5.64-1.26,9.18c-2.52,4.74-9.18,5.55-9.55,6.59
	c-0.16,0.45-0.52,3.85,1.48,6.81c2,2.96,4.49,3.85,5.09,3.92c1.78,0.22,9.08-3.73,11.8-15.4C117.98,69.66,110.29,65.46,107.99,69.02
	z"/>
<path style="fill:#FDA4C6;" d="M94.28,100.65c-1.61,0.9-3.95,6.51-9.91,9.17c-4.96,2.22-7.78,1.78-8.59,1.85
	c-0.81,0.07-2,3.51-1.11,7.26c0.74,3.11,3.91,5.08,4.37,5.18c0.67,0.15,11.18-1.85,16.81-9.92S98.65,98.2,94.28,100.65z"/>
<path style="fill:#FF7FAD;" d="M53.71,109.15c1.27,0.67,1.7,3.55-2.44,5.26c-13.78,5.66-22.51-7.85-22.36-8.74
	c0.07-0.44,0.44-3.41,3.7-6.15c2.97-2.5,6-2.07,6.59-1.7s0.83,3.43,4.67,7.03C48.75,109.45,52.16,108.34,53.71,109.15z"/>
<path style="fill:#FEA4C7;" d="M22.17,89.31c0.89,1.11-0.1,4.63-5.78,2.74c-6.89-2.3-7.78-10.59-7.18-16.74
	c0.59-6.15,3.55-10.74,3.85-11.26c0.3-0.52,3.83-0.66,7.11,0.67c3.11,1.26,5.11,3.7,4.89,3.92c-1.04,1.04-4.75,4.58-5.63,10.22
	C18.32,85.98,21.5,88.48,22.17,89.31z"/>
<path style="fill:#FF7FAD;" d="M34.9,17.11c-1.04,0-8.89,2-13.63,9.77c-4.13,6.77-2.34,14.1,1.11,13.33
	c2.67-0.59,1.26-5.92,6.74-9.11c6.29-3.66,9.7-2.52,10.15-2.81c0.44-0.3,0.67-4.37-0.3-7.18C38.09,18.53,36.38,17.11,34.9,17.11z"/>
<path style="fill:#C7C7C7;" d="M98.29,8.07c-0.3,0.81,7.18,2.15,13.33,8.37c5.41,5.48,6.74,12,7.41,12c0.67,0,2.67-6.59-5.26-14.37
	S98.62,7.16,98.29,8.07z"/>
<path style="fill:#C7C7C7;" d="M113.25,8.52c-0.46,0.81,3.48,2.3,5.92,7.03c2.52,4.89,2.37,7.26,3.18,7.55
	c0.81,0.3,1.55-4.81-0.74-9.11C118.66,8.44,113.84,7.48,113.25,8.52z"/>
<path style="fill:#C7C7C7;" d="M6.02,99.82c-1.28,0.18,1.24,7.35,6.44,12.66c6.89,7.03,13.92,8.07,14,7.11
	c0.07-0.96-6.26-3.44-11.85-9.11C9.43,105.23,7.06,99.68,6.02,99.82z"/>
<path style="fill:#C7C7C7;" d="M8.47,114.12c-0.63,0.73,1.53,4.52,4.81,6.52c3.78,2.3,7.33,2,7.48,1.11
	c0.15-0.89-3.11-1.44-6.22-3.48C10.47,115.6,9.36,113.08,8.47,114.12z"/>
<g>
	<path style="fill:#B3E5FF;" d="M78.4,115.14c-2.51,0-4.08-0.53-4.21-0.57c-0.52-0.18-0.8-0.75-0.62-1.27
		c0.18-0.52,0.75-0.79,1.27-0.62c0.1,0.03,5.74,1.84,12.74-2.07c6.42-3.59,5.82-8.48,5.79-8.68c-0.08-0.54,0.3-1.05,0.85-1.13
		c0.56-0.08,1.05,0.29,1.13,0.84c0.04,0.26,0.88,6.43-6.8,10.72C84.57,114.58,80.99,115.14,78.4,115.14z"/>
</g>
<g>
	<path style="fill:#B3E5FF;" d="M100.14,51.58c-0.3,0-0.59-0.13-0.79-0.39c-0.34-0.44-0.26-1.06,0.18-1.4
		c0.03-0.02,3.46-2.93,2.51-11.91c-0.67-6.33-7.24-8.39-7.51-8.48c-0.53-0.16-0.83-0.72-0.67-1.25c0.16-0.53,0.71-0.83,1.24-0.67
		c0.33,0.1,8.11,2.52,8.93,10.18c1.08,10.21-3.09,13.57-3.27,13.71C100.57,51.51,100.36,51.58,100.14,51.58z"/>
</g>
<g>
	<path style="fill:#B3E5FF;" d="M21.65,90.16c-0.03,0-0.06,0-0.1,0c-0.12-0.01-2.91-0.3-4.89-2.82c-1.66-2.11-2.24-5.08-1.7-8.83
		c1.36-9.58,5.31-14.37,5.48-14.57c0.36-0.42,0.99-0.48,1.41-0.12c0.42,0.36,0.48,0.99,0.12,1.41c-0.04,0.04-3.76,4.6-5.03,13.57
		c-0.45,3.17-0.02,5.62,1.27,7.29c1.44,1.85,3.52,2.09,3.54,2.09c0.55,0.06,0.95,0.55,0.89,1.1C22.59,89.78,22.16,90.16,21.65,90.16
		z"/>
</g>
<g>
	<path style="fill:#FFE269;" d="M84.63,124.89c-0.33,0-0.65-0.16-0.84-0.46c-0.3-0.46-0.17-1.08,0.29-1.38
		c0.06-0.04,5.89-3.86,9.53-10.11c3.32-5.69,1-11.42,0.98-11.48c-0.21-0.51,0.03-1.09,0.54-1.31c0.51-0.22,1.09,0.02,1.31,0.53
		c0.11,0.27,2.74,6.68-1.09,13.26c-3.89,6.67-9.92,10.61-10.17,10.78C85,124.84,84.82,124.89,84.63,124.89z"/>
</g>
<g>
	<path style="fill:#FFE269;" d="M115.54,44.91c-0.4,0-0.77-0.24-0.93-0.63c-0.04-0.1-4.11-10.09-11.84-14.3
		c-4.45-2.43-8.12-1.2-8.16-1.19c-0.52,0.18-1.09-0.1-1.27-0.62c-0.18-0.52,0.1-1.09,0.62-1.27c0.18-0.06,4.55-1.52,9.77,1.33
		c8.37,4.57,12.57,14.88,12.74,15.32c0.21,0.51-0.04,1.09-0.56,1.3C115.79,44.89,115.67,44.91,115.54,44.91z"/>
</g>
<g>
	<path style="fill:#FFE269;" d="M20.14,91.71c-2.19,0-6.05-0.82-9.05-5.9c-4.15-7.03-4.57-17.94-4.58-18.4
		c-0.02-0.55,0.41-1.01,0.97-1.03c0.55-0.05,1.01,0.41,1.03,0.96c0,0.11,0.41,10.86,4.3,17.45c3.6,6.08,8.29,4.86,8.49,4.8
		c0.53-0.15,1.08,0.16,1.23,0.69c0.15,0.53-0.15,1.08-0.68,1.23C21.84,91.53,21.17,91.71,20.14,91.71z"/>
</g>
<g>
	<path style="fill:#50C4FA;" d="M101.51,96.02c-0.25,0-0.5-0.09-0.69-0.28c-0.4-0.38-0.42-1.01-0.04-1.41
		c0.07-0.07,6.77-7.19,8.23-14.84c1.02-5.39-0.96-8.39-0.98-8.42c-0.31-0.46-0.19-1.08,0.26-1.39c0.45-0.31,1.07-0.2,1.38,0.25
		c0.1,0.15,2.49,3.67,1.3,9.93c-1.57,8.24-8.45,15.54-8.74,15.85C102.03,95.91,101.77,96.02,101.51,96.02z"/>
</g>
<g>
	<path style="fill:#50C4FA;" d="M60.71,15.7c-0.42,0-0.81-0.27-0.95-0.68c-0.2-0.59,0.33-2.63,1.57-4.34
		c1.43-1.98,4.32-4.32,9.94-4.32c0.03,0,0.07,0,0.1,0c10.03,0.05,15.96,6.17,16.21,6.43c0.38,0.4,0.36,1.03-0.04,1.41
		s-1.03,0.37-1.41-0.03C86.08,14.1,80.5,8.4,71.36,8.35c-0.03,0-0.06,0-0.09,0c-8.53,0-9.5,5.91-9.56,6.34
		c0,0.42-0.26,0.82-0.68,0.96C60.92,15.68,60.81,15.7,60.71,15.7z"/>
</g>
<g>
	<path style="fill:#50C4FA;" d="M22.27,40.27c0,0-0.01,0-0.01,0c-0.55-0.01-0.99-0.46-0.99-1.01c0-0.22,0.11-5.56,4.85-10.04
		c6.16-5.82,14.29-3.05,14.64-2.93c0.52,0.18,0.79,0.75,0.61,1.27c-0.18,0.52-0.75,0.8-1.27,0.61c-0.07-0.03-7.34-2.48-12.6,2.5
		c-4.1,3.88-4.23,8.56-4.23,8.61C23.27,39.83,22.82,40.27,22.27,40.27z"/>
</g>
<g>
	<path style="fill:#50C4FA;" d="M43.55,118.27c-8.2,0-14.06-2.74-14.31-2.86c-0.5-0.24-0.71-0.83-0.47-1.33
		c0.24-0.5,0.83-0.71,1.33-0.47c0.06,0.03,5.93,2.79,13.87,2.67c7.76-0.09,10.05-5.24,10.14-5.46c0.22-0.51,0.8-0.75,1.31-0.53
		c0.51,0.22,0.74,0.8,0.53,1.31c-0.11,0.27-2.91,6.57-11.96,6.67C43.84,118.27,43.69,118.27,43.55,118.27z"/>
</g>
<g>
	<path style="fill:#FFB803;" d="M112.21,93.75c-0.08,0-0.16-0.01-0.24-0.03c-0.54-0.13-0.86-0.68-0.73-1.21
		c0.03-0.11,2.85-11.51,1.86-17.3c-0.86-5.03-3.35-5.05-3.42-5.04c-0.5-0.01-1-0.42-1.02-0.96s0.39-1,0.93-1.03
		c0.16-0.02,4.31-0.17,5.48,6.7c1.06,6.2-1.77,17.64-1.89,18.12C113.07,93.44,112.66,93.75,112.21,93.75z"/>
</g>
<g>
	<path style="fill:#FFB803;" d="M82.17,20.93c-0.34,0-0.67-0.18-0.86-0.49c-0.14-0.23-3.53-5.73-11.7-6.37
		c-5.46-0.43-6.78,1.84-6.83,1.94c-0.26,0.48-0.87,0.66-1.35,0.41c-0.48-0.25-0.68-0.83-0.43-1.32c0.07-0.15,1.86-3.56,8.77-3.02
		c9.24,0.72,13.1,7.08,13.26,7.35c0.28,0.48,0.12,1.09-0.35,1.37C82.52,20.88,82.34,20.93,82.17,20.93z"/>
</g>
<g>
	<path style="fill:#FFB803;" d="M20.4,40.66c-0.21,0-0.42-0.06-0.6-0.2c-0.58-0.44-3.76-5.28-0.74-13.72
		c3.11-8.67,7.85-11.07,8.05-11.17c0.5-0.24,1.09-0.04,1.34,0.46c0.24,0.5,0.04,1.1-0.46,1.34c-0.04,0.02-4.24,2.21-7.05,10.05
		c-2.63,7.33-0.02,11.28,0.17,11.54c0.34,0.35,0.38,0.9,0.08,1.3C21,40.53,20.7,40.66,20.4,40.66z"/>
</g>
<g>
	<path style="fill:#FFB803;" d="M46.9,113.43c-1.48,0-3.21-0.15-5.22-0.51c-7.8-1.39-13.05-7.53-13.27-7.79
		c-0.36-0.42-0.3-1.05,0.12-1.41c0.42-0.36,1.05-0.3,1.41,0.12c0.05,0.06,5.02,5.85,12.09,7.11c9.23,1.65,11.49-1.58,11.51-1.62
		c0.3-0.45,0.91-0.59,1.37-0.31c0.46,0.29,0.61,0.88,0.33,1.35C55.03,110.75,53.21,113.43,46.9,113.43z"/>
</g>
<path style="fill:#2086FD;" d="M61.49,14.01c-1.48-0.05-6.74,23.07-6.74,23.07l8.42,2.71l7.6-2.86
	C70.78,36.93,62.97,14.06,61.49,14.01z"/>
<path style="fill:#02A945;" d="M21.22,38.97c-0.61,1.22,15.01,17.97,15.01,17.97l8.52-6.64l-0.2-6.43
	C44.55,43.87,21.86,37.7,21.22,38.97z"/>
<path style="fill:#004FAD;" d="M50.72,85.98c0,0,0.36,25.06,2.09,25.42c1.87,0.39,14.95-20.11,14.29-20.47
	c-0.66-0.36-7.76-4.08-7.76-4.08L50.72,85.98z"/>
<path style="fill:#FF8E00;" d="M69.25,86.54c0.1,0.15,24.25,15.79,25.62,14.95c1.37-0.83-10.97-27.87-10.97-27.87l-10.62,1.58
	L69.25,86.54z"/>
<path style="fill:#BE66CC;" d="M86.14,74.45c0.36,0,24.04-2.89,24.35-4.54c0.3-1.66-22.46-12.5-22.46-12.5l-1.68,10.77"/>
<path style="fill:#FFB803;" d="M70.78,42.09c0,0,23.43-15.11,24.96-14.29c1.53,0.82-12.05,29.71-12.05,29.71s-13.42-4.85-13.53-5.05
	C70.07,52.24,70.78,42.09,70.78,42.09z"/>
<path style="fill:#FDCBBA;" d="M50.07,41.99c-0.05-0.3,0.2-2.04,1.1-2.79s2.54-0.2,2.54-0.2s0.3-2.54,1.94-2.69
	c1.64-0.15,2.24,1,2.99,0.95s0.72-1.89,2.79-2.04c1.39-0.1,1.85,1.23,2.44,1.15c0.7-0.1,1.34-1.84,3.09-1.49
	c1.43,0.29,1.59,1.49,2.44,1.74c0.91,0.27,1.89-1.15,3.49,0c0.91,0.65,1.03,3.48,1.03,3.48l-5.47,3.59l-15.53,2.59L50.07,41.99z"/>
<path style="fill:#B1DE7D;" d="M52.86,47.66c0,0,1.05-3.49-0.35-5.18c-1.39-1.69-3.64-2.14-4.98-1.2c-0.94,0.66-1.44,1.89-1.44,1.89
	s-1.84-0.4-2.89,0.95c-1.05,1.34-0.35,2.49-0.7,3.34c-0.26,0.64-2.09-0.85-3.34,1.29c-1.11,1.91,0.27,3.57,0,4.03
	c-0.65,1.1-4.63,0.45-4.38,5.63c0.23,4.78,5.18,4.03,5.18,4.03l5.18-2.24L52.86,47.66z"/>
<path style="fill:#4CC1F7;" d="M51.92,80.23c0,0-3.49,1.84-3.98,2.54s-0.7,2.09,0.5,3.19c1.2,1.1,3.44,0.55,4.83,1.49
	c1.39,0.95,1.89,3.44,4.38,3.88c2.49,0.45,3.49-1.29,4.88-1c1.39,0.3,2.49,1.69,4.23,1.29c1.74-0.4,3.04-2.69,2.99-2.84
	c-0.05-0.15-2.99-4.88-4.08-5.18C64.57,83.32,51.92,80.23,51.92,80.23z"/>
<path style="fill:#FF77AD;" d="M83.59,56.33c0.1-0.2,3.14-2.99,5.23-0.8c1.91,2-0.75,4.18-0.75,4.18s1.15,1.29,1.1,2.54
	c-0.05,1.25-1.25,2.14-1.25,2.79c0,0.65,1.05,1.05,0.95,2.64c-0.1,1.59-1.64,1.84-1.59,2.79c0.05,0.95,1.56,3.41,0.25,5.33
	c-0.75,1.1-2.04,1.34-2.04,1.34l-2.19-4.58c0,0-5.08-9.06-5.08-9.26C78.21,63.1,83.59,56.33,83.59,56.33z"/>
<path style="fill:#0386D9;" d="M65.95,43.19c0,0-10.34-1.51-16.99,5.07c-4.88,4.83-7.32,11.94-6.16,19.18
	c0.42,2.62,3.85,3.34,5.27,5.89c2.15,3.87,2.99,8.11,6.38,9.49c5.02,2.04,10.09,1.99,11.36,1.74c0.4-0.08,7.09-8.55,8.14-9.18
	c3.15-1.88,3.79-1.44,5.1-3.75c1.26-2.22,1.91-4.61,1.97-7.42c0.07-2.88-0.21-4.93-0.55-6.71c-1.02-5.28-2.34-3.25-6.1-5.69
	C72.08,50.33,67.11,43.35,65.95,43.19z"/>
<path style="fill:#FFF6E2;" d="M70.04,39.6c-1.69,0-2.04,1.44-2.04,1.44s-3.93-1.05-4.78,2.74c-0.85,3.78,1.69,5.18,1.69,5.18
	s-0.8,3.34,1.05,5.38s3.29,2.09,3.29,2.09s0.8,3.19,3.39,4.48c2.59,1.29,4.48,0.4,4.48,0.4s1.94,1.79,3.93,1.25
	c1.99-0.55,2.59-1.94,2.59-1.94s3.64-0.05,3.49-3.24c-0.15-3.19-3.54-2.74-3.54-2.74s-1.25-1.39-2.69-1.84
	c-1.44-0.45-3.29-0.1-4.53-1.34c-0.88-0.88-0.6-2.49-1.69-3.59c-1.1-1.1-2.44-1.94-2.49-4.33C72.14,41.24,71.74,39.6,70.04,39.6z"/>
<path style="fill:#FFCABE;" d="M71.6,88.16c0,0-1.7,2.27-4.49,1.19c-2.35-0.91-2.12-3.62-2.12-3.62s-3.41-0.26-2.89-2.69
	c0.52-2.43,1.91-1.6,2.17-2.84c0.26-1.24-0.31-2.38,0.62-3.51s1.96-0.57,2.94-2.01c0.84-1.24,0.36-2.58,1.6-3.41
	c1.24-0.83,2.12-0.31,3.1-1.19c0.98-0.88,0.98-2.27,2.48-2.74s2.07,0.21,3.2,0.05c1.14-0.15,2.92-1.51,5.06-0.21
	c2.12,1.29,0.83,4.18,1.08,4.86c0.36,0.98,0.89,1,1.08,1.86c0.21,0.93-0.44,2.12-0.44,2.12S84,74.73,82.29,75.4
	c-1.7,0.67-1.7,1.5-2.79,1.76c-1.08,0.26-3.67-1.03-5.32,0.72c-1.65,1.76-0.77,3.77-1.45,5.48c-0.67,1.7-1.65,1.91-1.6,2.74
	S71.6,88.16,71.6,88.16z"/>
<path style="fill:#4CC1F7;" d="M61.38,57.54l3.29,0.19l1.45,5.94l-3.31,0.31c0,0-0.62-1.6-0.98-3.56
	C61.64,59.39,61.38,57.54,61.38,57.54z"/>
<path style="fill:#4CC1F7;" d="M45.79,57.23c0,0,0.73-1.66,1.83-3.12c0.72-0.96,2.14-2.04,2.14-2.04l2.68,2.17
	c0,0-1.27,1.41-1.98,2.36c-0.6,0.8-1.29,2.53-1.29,2.53L45.79,57.23z"/>
<path style="fill:#4CC1F7;" d="M60.83,72.96c0,0.2-0.31,1.89-0.83,3.07c-0.53,1.23-1.14,2.52-1.14,2.52l2.76,0.79
	c0,0,0.87-0.98,1.65-2.91c0.67-1.65,0.98-3.07,0.94-3.19S60.83,72.96,60.83,72.96z"/>
<path style="fill:#FFB803;" d="M59.41,67.38l0.2,3.98c0,0,2.13-0.28,3.5-0.91c1.54-0.7,2.72-1.54,2.72-1.54l-2.2-3.23
	c0,0-0.95,0.81-1.85,1.22C60.56,67.46,59.41,67.38,59.41,67.38z"/>
<path style="fill:#FFB803;" d="M59.06,44.7l-1.81,4.8c0,0,0.98,0.39,2.01,0.39c1.02,0,1.77-0.28,1.77-0.28s0.55-3.23,0.43-3.54
	C61.35,45.77,59.06,44.7,59.06,44.7z"/>
<path style="fill:#004FAD;" d="M56.03,53.49c0,0.12,0.24,3.74,0.24,3.74l6.02-2.64l-1.85-2.91L56.03,53.49z"/>
<path style="fill:#004FAD;" d="M53.79,59.32c0,0,0.08,1.97,0.79,3.74c0.41,1.03,1.38,3.15,1.38,3.15l2.91-3.46l-1.22-3.27
	L53.79,59.32z"/>
<path style="fill:#004FAD;" d="M67.99,63.54l3.31-2.05l1.81,5.55c0,0-2.68,0.71-3.58,0.67C69.49,67.71,67.99,63.54,67.99,63.54z"/>
<g>
	<path style="fill:#C8C7CC;" d="M54.26,52.79c-0.35-0.33-8.47-8.27-9.86-22.34c-1.22-12.4,3.1-23.95,3.28-24.43l2.81,1.06
		c-0.04,0.11-4.25,11.39-3.1,23.08c1.27,12.92,9.19,20.86,9.26,20.94L54.26,52.79z"/>
</g>
<path style="fill:#E63934;" d="M38.98,68.12c0,0-19.49,19.95-18.37,22.25c0.77,1.58,29.6-7.45,29.6-7.45l1.28-13.22l-9.39-3.88
	L38.98,68.12z"/>
<path style="fill:#FD7BA6;" d="M36.77,70.45c0,0-1.32-1.89-0.54-3.51c0.8-1.65,2.19-1.64,2.19-1.64s-1.93-4.3,1.54-5.13
	c3.39-0.81,3.29,1.34,4.43,1.69c1.15,0.35,2.72-0.28,4.03,0.55c1.49,0.95,1.15,2.34,2.19,3.29c1.05,0.95,2.84,1.05,3.69,1.99
	c0.85,0.95,0.25,2.64,1.1,3.78s2.54,1.29,2.49,3.34c-0.05,2.04-0.95,3.34-1.05,4.13c-0.1,0.8,1.99,5.08-2.59,5.98
	c-4.58,0.9-4.73-3.29-5.33-3.93c-0.6-0.65-1.44-1.49-1.29-2.89s1.1-2.79,0.1-3.88c-1-1.1-2.09-0.35-2.84-1.59s-1.09-3.24-3.29-3.72
	C38.83,68.28,36.77,70.45,36.77,70.45z"/>
</svg>
