<?xml version="1.0" encoding="utf-8"?>
<!-- Generator: Adobe Illustrator 25.2.3, SVG Export Plug-In . SVG Version: 6.00 Build 0)  -->
<svg version="1.1" id="Layer_2" xmlns="http://www.w3.org/2000/svg" xmlns:xlink="http://www.w3.org/1999/xlink" x="0px" y="0px"
	 viewBox="0 0 128 128" style="enable-background:new 0 0 128 128;" xml:space="preserve">
<g>
	<path style="fill:#B0BEC5;" d="M99.88,12.81l1.37,1.96c0.45,0.65,0.24,1.81-0.21,2.2c-0.45,0.39-1.62,0.86-2.27,0.49l-2.12-1.2
		c-0.94-0.53-1.12-1.82-0.36-2.59l1.06-1.08C98.08,11.86,99.29,11.96,99.88,12.81z"/>
	<path style="fill:#B0BEC5;" d="M109.44,5.06l1.37,1.96c0.45,0.65,0.26,1.62-0.14,2.2c-0.4,0.58-1.69,0.85-2.33,0.49l-2.12-1.2
		c-0.94-0.53-1.12-1.82-0.36-2.59l1.06-1.08C107.64,4.11,108.85,4.21,109.44,5.06z"/>
	<path style="fill:#784D30;" d="M98.85,30.8c3.42-2.95,6.38-2.31,7.98-2.67c1.93-0.43,3.35-1,4.63-2.52
		c-0.5-0.97-0.66-2.19-0.13-3.14c0.72-1.29,2.4-1.64,3.88-1.64c1.5,0,3.22,0.25,4.58-0.58c1.48-0.9,1.77-2.84,1.9-4.43l-0.02-3.27
		c0,0-3.78-1.99-4.99-1.86L98.85,30.8z"/>
	<path style="fill:#B0BEC5;" d="M110.17,29.63l-1.37-1.96c-0.45-0.65-0.38-1.53,0.18-2.1l0.31-0.31c0.52-0.53,1.34-0.64,1.99-0.28
		l2.12,1.2c0.94,0.53,1.12,1.82,0.36,2.59l-1.06,1.08C111.97,30.58,110.76,30.48,110.17,29.63z"/>
	<path style="fill:#B0BEC5;" d="M120.16,22.3l-1.37-1.96c-0.45-0.65-0.38-1.53,0.18-2.1l0.31-0.31c0.52-0.53,1.34-0.64,1.99-0.28
		l2.12,1.2c0.94,0.53,1.12,1.82,0.36,2.59l-1.06,1.08C121.96,23.25,120.75,23.15,120.16,22.3z"/>
	<path style="fill:#784D30;" d="M107.77,21.69C94.52,35.37,80.75,48.78,67.76,62.6c-0.32,0.55-0.36,1.24-0.23,1.85
		c0.18,0.86,0.62,1.66,0.75,2.54c0.31,2.48-1.47,4.78-3.46,6.06c-0.19,0.18-0.2,0.37-0.1,0.61c0.25,0.59,0.7,1.14,1.03,1.69
		c6.61,11.18,6.62,25.97-1.69,36.27c-19.87,24.84-48.2,3.82-49.54,1.96l32.93-42.79l54.56-52.11L107.77,21.69z"/>
	<path style="fill:#C87D5E;" d="M120.12,8.74c-2.18-2.91-6.3-4.42-9.48-3.09c-0.88,0.37-1.7,0.96-2.14,1.8
		c-0.44,0.84-0.47,1.84-0.57,2.8c-0.13,1.26-0.28,2.72-1.27,3.46c-2.34,1.72-4.25-0.12-4.25-0.12s-2.03,0.36-3.25,2.84
		c-0.52,1.07-0.77,2.59-1.22,3.7C97.78,20.55,97.3,21,97.3,21L46.89,64.63l7.77,6.91l47.31-45.25c0,0,0,0,0,0
		c1.82-1.53,2.61-1.19,4.26-1.51c1.98-0.38,3.78-1.44,5.06-2.96c-0.54-1.02-0.76-2.28-0.24-3.25c0.7-1.3,2.43-1.62,3.95-1.57
		c1.52,0.05,3.14,0.31,4.48-0.33c1.34-0.64,2.13-2.12,2.17-3.64C121.69,11.52,121.06,9.99,120.12,8.74z"/>
	<line style="fill:none;" x1="56.36" y1="65.09" x2="9.66" y2="110.07"/>
	<g>
		<circle style="fill:#C87D5E;" cx="35.35" cy="90.01" r="31.47"/>
	</g>
	<polygon style="fill:#B0BEC5;" points="54.92,114.66 58.72,111.08 54.71,106.61 50.97,110.25 	"/>
	<polygon style="fill:#B0BEC5;" points="66.77,91.77 62.11,91.34 60.66,96.45 66.11,96.96 	"/>
	<polygon style="fill:#B0BEC5;" points="35.35,121.48 40.57,120.99 40.62,115 35.39,115.55 	"/>
	<path style="fill:#B0BEC5;" d="M18.23,116.42l4.58,2.64l1.81-4.26c-1.38-0.67-3.26-1.61-4.66-2.38L18.23,116.42z"/>
	<polygon style="fill:#B0BEC5;" points="65.12,79.78 63.11,74.93 58.78,76.25 60.28,81.26 	"/>
	<g>
		<path style="fill:#FFCC80;" d="M33.6,116.5c-10.27,0-19.54-5.25-24.82-14.04C0.57,88.79,5.02,71,18.69,62.79
			c4.5-2.7,9.64-4.13,14.86-4.13c10.27,0,19.54,5.25,24.82,14.04c8.21,13.67,3.76,31.47-9.91,39.68
			C43.96,115.08,38.82,116.5,33.6,116.5z"/>
		<path style="fill:#B0BEC5;" d="M33.55,57.79v1.74c9.96,0,18.96,5.09,24.07,13.62c3.86,6.42,4.98,13.96,3.17,21.23
			c-1.82,7.27-6.35,13.4-12.78,17.25c-4.36,2.62-9.35,4.01-14.41,4.01c-9.96,0-18.96-5.09-24.08-13.62
			c-3.86-6.42-4.98-13.96-3.16-21.23c1.82-7.27,6.35-13.4,12.78-17.25c4.36-2.62,9.35-4,14.41-4.01L33.55,57.79 M33.55,57.79
			c-5.22,0-10.5,1.37-15.3,4.25C4.14,70.51-0.43,88.81,8.03,102.91c5.59,9.31,15.45,14.46,25.57,14.46c5.22,0,10.5-1.37,15.3-4.25
			c14.11-8.47,18.68-26.77,10.21-40.87C53.53,62.94,43.66,57.79,33.55,57.79L33.55,57.79z"/>
	</g>
	<circle style="fill:#FEF6E0;" cx="32.43" cy="86.31" r="25.53"/>
	<path style="fill:#B0BEC5;" d="M9.17,88.83c-0.28-4.38,0.97-10.33,5.33-16.28c1.77-2.41,2.48-4.81,0.01-6.49l-0.96-0.65
		c-9.13,8.4-11.18,20.38-8.59,29.88l1.59-0.42C9.22,94.16,9.34,91.59,9.17,88.83z"/>
	<line style="fill:none;stroke:#CFD8DC;stroke-width:0.5;stroke-miterlimit:10;" x1="23.79" y1="87.58" x2="17.85" y2="95.29"/>
	<line style="fill:none;stroke:#CFD8DC;stroke-width:0.5;stroke-miterlimit:10;" x1="21.42" y1="98.36" x2="28.33" y2="92.09"/>
	<line style="fill:none;stroke:#CFD8DC;stroke-width:0.5;stroke-miterlimit:10;" x1="20.36" y1="96.96" x2="26.81" y2="90.59"/>
	<line style="fill:none;stroke:#CFD8DC;stroke-width:0.5;stroke-miterlimit:10;" x1="19.04" y1="96.17" x2="25.3" y2="89.08"/>
	<path style="fill:#B0BEC5;" d="M15.18,109.22l-5.66-5.23l1.3-4.08l5.63-5.99c0.37-0.43,1.02-0.46,1.43-0.06l4.81,4.74
		c0.4,0.39,0.38,1.04-0.03,1.42l-6.61,5.92L15.18,109.22z"/>
	<g>
		<polyline style="fill:none;stroke:#CFD8DC;stroke-width:0.5;stroke-miterlimit:10;" points="23.79,87.58 101.21,19.37 
			101.72,16.97 		"/>
		<polyline style="fill:none;stroke:#CFD8DC;stroke-width:0.5;stroke-miterlimit:10;" points="25.3,89.08 102.81,19.83 112.32,9.02 
					"/>
		<polyline style="fill:none;stroke:#CFD8DC;stroke-width:0.5;stroke-miterlimit:10;" points="26.81,90.59 103.64,20.84 
			117.22,13.39 		"/>
		<polyline style="fill:none;stroke:#CFD8DC;stroke-width:0.5;stroke-miterlimit:10;" points="28.33,92.09 104.63,22.04 
			107.17,21.47 		"/>
	</g>
	<line style="fill:none;stroke:#784D30;stroke-width:2.6114;stroke-miterlimit:10;" x1="21.38" y1="85.18" x2="31.48" y2="95.23"/>
	<circle style="fill:#B0BEC5;" cx="101.72" cy="16.97" r="1.53"/>
	<circle style="fill:#B0BEC5;" cx="107.17" cy="21.47" r="1.53"/>
	<circle style="fill:#B0BEC5;" cx="112.32" cy="9.02" r="1.53"/>
	<circle style="fill:#B0BEC5;" cx="117.22" cy="13.39" r="1.53"/>
</g>
</svg>
