<?xml version="1.0" encoding="utf-8"?>
<!-- Generator: Adobe Illustrator 24.0.3, SVG Export Plug-In . SVG Version: 6.00 Build 0)  -->
<svg version="1.1" id="Layer_4" xmlns="http://www.w3.org/2000/svg" xmlns:xlink="http://www.w3.org/1999/xlink" x="0px" y="0px"
	 viewBox="0 0 128 128" style="enable-background:new 0 0 128 128;" xml:space="preserve">
<g>
	<path style="fill:none;stroke:#212121;stroke-width:2.1573;stroke-miterlimit:10;" d="M12.76,78.83"/>
	<path style="fill:#FCE8B2;" d="M110.65,19.14c-0.29-0.13,0.43-1.31-10.57-1.61c-0.96-0.03-4.13,1.66-7.75,1.71
		c-3.75,0.05-6.1-1.51-7.36-2.72c-0.56-0.54-1.45-0.4-1.85,0.26c-0.71,1.19-2.06,2.73-4.54,3.62c-2.87,1.03-5.46-0.09-6.92-1
		c-0.61-0.38-1.43-0.11-1.7,0.56c-0.64,1.59-2.09,4.05-5.22,5.23c-2.85,1.08-5.14,0.18-6.55-0.74c-0.7-0.46-1.64-0.05-1.79,0.77
		c-0.39,2.09-1.33,5.18-3.61,6.41c-2.72,1.46-5.33,0.52-6.98-0.46c-0.76-0.46-1.74,0.02-1.81,0.91c-0.16,2.39-0.82,6.11-3.18,8.2
		c-2.55,2.26-6.4,1.65-8.53,1.07c-0.75-0.2-1.47,0.36-1.48,1.14c-0.02,1.89-0.33,4.96-1.93,6.67c-2.15,2.29-5.65,2.88-5.65,2.88
		l50.08,48.96c1.17-1.25,7.92-10.42,26.08-13.62c1.73-0.31,9.52-1.32,10.27-1.82c1.02-0.69,0.02-7.39,0.07-9.03
		c0.13-4.73,0.26-9.46,0.39-14.2c0.25-9.26,0.51-18.52,0.76-27.78c0.09-3.22,0.18-6.45,0.26-9.67c0.03-1.16,0.21-2.41,0.1-3.57
		C111.12,19.85,111.3,19.43,110.65,19.14z"/>
	<path style="fill:none;stroke:#212121;stroke-width:2.1573;stroke-miterlimit:10;" d="M17.64,70.34"/>
	<path style="fill:none;stroke:#212121;stroke-width:2.1573;stroke-miterlimit:10;" d="M13.57,76.39"/>
	<path style="fill:#FFBD66;" d="M31.26,41.57c-0.26,0.21-0.44,0.54-0.45,0.92c-0.02,1.89-0.33,4.96-1.93,6.67
		c-0.06,0.06-0.12,0.11-0.17,0.17l48.47,47.72L31.26,41.57z"/>
	<path style="fill:#FFBD66;" d="M44.71,31.1c-0.38,0.16-0.67,0.51-0.71,0.98c-0.16,2.39-0.82,6.11-3.18,8.2
		c-0.05,0.04-0.1,0.08-0.15,0.12c11.92,15.48,40.57,53.09,40.57,53.09L44.71,31.1z"/>
	<path style="fill:#FFBD66;" d="M56.4,25.22c-0.39,2.09-1.33,5.18-3.61,6.41c-0.08,0.04-0.15,0.06-0.23,0.1
		c7.51,14.31,24.74,46.72,32.04,60.43c0.2-0.1,0.4-0.2,0.6-0.3L57.01,24.4C56.71,24.56,56.47,24.85,56.4,25.22z"/>
	<path style="fill:#FFBD66;" d="M69.96,19.96c-0.62,1.56-2.04,3.94-5.03,5.15c5.39,14.95,18.61,50.29,24.14,65.06
		c0.22-0.08,0.45-0.16,0.67-0.25L71.02,19.24C70.57,19.25,70.14,19.51,69.96,19.96z"/>
	<path style="fill:#FFBD66;" d="M83.12,16.78c-0.71,1.19-2.06,2.73-4.54,3.62c-0.15,0.05-0.3,0.08-0.45,0.12l14.31,68.5
		c0.44-0.13,0.89-0.27,1.35-0.39l-9.97-72.39C83.53,16.32,83.28,16.5,83.12,16.78z"/>
	<path style="fill:#FFBD66;" d="M99.53,17.62c-1.33,0.34-4.1,1.58-7.2,1.62c-0.38,0.01-0.74-0.02-1.1-0.04
		c1.15,17.13,3.54,52.75,4.91,68.83c0.25-0.06,0.51-0.11,0.77-0.17c0.12-3.94,0.17-9.04,0.17-9.04L99.53,17.62z"/>
	<g>
		<path style="fill:#6D4C41;" d="M78.41,97.6c-0.46,0-0.91-0.19-1.23-0.56L30.52,42.87c-0.58-0.68-0.51-1.7,0.17-2.28
			c0.68-0.58,1.7-0.51,2.28,0.17l46.67,54.17c0.58,0.68,0.51,1.7-0.17,2.28C79.16,97.47,78.79,97.6,78.41,97.6z"/>
	</g>
	<g>
		<path style="fill:#6D4C41;" d="M82.33,95.02c-0.55,0-1.08-0.28-1.38-0.78L43.03,31.82c-0.46-0.76-0.22-1.76,0.54-2.22
			c0.76-0.46,1.76-0.22,2.22,0.54l37.92,62.42c0.46,0.76,0.22,1.76-0.54,2.22C82.9,94.94,82.62,95.02,82.33,95.02z"/>
	</g>
	<g>
		<path style="fill:#6D4C41;" d="M84.78,92.12L55.77,25.35c-0.35-0.82,0.02-1.77,0.84-2.13c0.82-0.35,1.77,0.02,2.13,0.84
			l29.01,66.77c0,0,0.42,1.34-0.91,1.98C85.47,93.48,84.78,92.12,84.78,92.12z"/>
	</g>
	<g>
		<path style="fill:#6D4C41;" d="M90.51,91.56c-0.71,0-1.36-0.47-1.56-1.18l-19.6-70.12c-0.24-0.86,0.26-1.75,1.12-1.99
			c0.86-0.24,1.75,0.26,1.99,1.12l19.6,70.12c0.24,0.86-0.26,1.75-1.12,1.99C90.8,91.54,90.65,91.56,90.51,91.56z"/>
	</g>
	<g>
		<path style="fill:#6D4C41;" d="M94.24,90.44c-0.79,0-1.49-0.59-1.6-1.4l-10-72.17c-0.12-0.89,0.5-1.7,1.38-1.82
			c0.88-0.13,1.7,0.5,1.82,1.38l10,72.17c0.12,0.88-0.5,1.7-1.38,1.82C94.39,90.43,94.32,90.44,94.24,90.44z"/>
	</g>
	<path style="fill:#CF381A;" d="M96.48,87.37c-0.03,1.33,0.99,2.44,2.32,2.51l15.38,0.59c4.63,0.12,8.48-3.53,8.6-8.16l1.46-55.94
		c0.12-4.63-3.53-8.48-8.16-8.6l-15.11-0.57c-1.45-0.08-2.68,1.06-2.72,2.51L96.48,87.37z"/>
	<path style="fill:#CF381A;" d="M66.91,109.56l-9.75,10.07c-1.69,1.75-4.48,1.79-6.22,0.1L5.1,75.34c-1.75-1.69-1.79-4.48-0.1-6.22
		l9.75-10.07c1.69-1.75,4.48-1.79,6.22-0.1l45.83,44.39C68.55,105.03,68.6,107.81,66.91,109.56z"/>
	<path style="fill:#822322;" d="M9.83,69.85c-1.54,1.59-1.5,4.12,0.09,5.66c0.92,0.89,2.16,1.24,3.35,1.07
		c-0.13,1.19,0.25,2.42,1.18,3.31c0.92,0.89,2.16,1.24,3.35,1.07c-0.13,1.19,0.25,2.42,1.18,3.31c0.92,0.89,2.16,1.24,3.35,1.07
		c-0.13,1.19,0.25,2.42,1.18,3.31c0.92,0.89,2.16,1.24,3.35,1.07c-0.13,1.19,0.25,2.42,1.18,3.31s2.16,1.24,3.35,1.07
		c-0.13,1.19,0.25,2.42,1.18,3.31c0.92,0.89,2.16,1.24,3.35,1.07c-0.13,1.19,0.25,2.42,1.18,3.31s2.16,1.24,3.35,1.07
		c-0.13,1.19,0.25,2.42,1.18,3.31s2.16,1.24,3.35,1.07c-0.13,1.19,0.25,2.42,1.18,3.31s2.16,1.24,3.35,1.07
		c-0.13,1.19,0.25,2.42,1.18,3.31c1.59,1.54,4.12,1.5,5.66-0.09l9.8-10.12l-46.46-45L9.83,69.85z"/>
	<path style="fill:#FFF3E0;" d="M10.64,69.01c-1.54,1.59-1.5,4.12,0.09,5.66c0.92,0.89,2.16,1.24,3.35,1.07
		c-0.13,1.19,0.25,2.42,1.18,3.31c0.92,0.89,2.16,1.24,3.35,1.07c-0.13,1.19,0.25,2.42,1.18,3.31c0.92,0.89,2.16,1.24,3.35,1.07
		c-0.13,1.19,0.25,2.42,1.18,3.31c0.92,0.89,2.16,1.24,3.35,1.07c-0.13,1.19,0.25,2.42,1.18,3.31c0.92,0.89,2.16,1.24,3.35,1.07
		c-0.13,1.19,0.25,2.42,1.18,3.31s2.16,1.24,3.35,1.07c-0.13,1.19,0.25,2.42,1.18,3.31c0.92,0.89,2.16,1.24,3.35,1.07
		c-0.13,1.19,0.25,2.42,1.18,3.31s2.16,1.24,3.35,1.07c-0.13,1.19,0.25,2.42,1.18,3.31c0.92,0.89,2.16,1.24,3.35,1.07
		c-0.13,1.19,0.25,2.42,1.18,3.31c1.59,1.54,4.12,1.5,5.66-0.09l9.8-10.12l-46.46-45L10.64,69.01z"/>
	<polygon style="fill:#FFCC80;" points="13.38,66.11 59.83,111.1 66.89,103.88 20.43,58.88 	"/>
	<path style="fill:#6D4238;" d="M24.06,66.79l-7.11,7.34c-0.31,0.32-0.83,0.33-1.15,0.02l-1.13-1.1c-0.32-0.31-0.33-0.83-0.02-1.15
		l7.11-7.34c0.31-0.32,0.83-0.33,1.15-0.02l1.13,1.1C24.36,65.95,24.37,66.47,24.06,66.79z"/>
	<path style="fill:#6D4238;" d="M27.15,69.79l-7.11,7.34c-0.31,0.32-0.83,0.33-1.15,0.02l-1.13-1.1c-0.32-0.31-0.33-0.83-0.02-1.15
		l7.11-7.34c0.31-0.32,0.83-0.33,1.15-0.02l1.13,1.1C27.45,68.95,27.46,69.46,27.15,69.79z"/>
	<path style="fill:#6D4238;" d="M33.33,75.78l-7.11,7.34c-0.31,0.32-0.83,0.33-1.15,0.02l-1.13-1.1c-0.32-0.31-0.33-0.83-0.02-1.15
		l7.11-7.34c0.31-0.32,0.83-0.33,1.15-0.02l1.13,1.1C33.64,74.94,33.65,75.45,33.33,75.78z"/>
	<path style="fill:#6D4238;" d="M36.43,78.77l-7.11,7.34c-0.31,0.32-0.83,0.33-1.15,0.02l-1.13-1.1c-0.32-0.31-0.33-0.83-0.02-1.15
		l7.11-7.34c0.31-0.32,0.83-0.33,1.15-0.02l1.13,1.1C36.73,77.94,36.74,78.45,36.43,78.77z"/>
	<path style="fill:#6D4238;" d="M39.52,81.77l-7.11,7.34c-0.31,0.32-0.83,0.33-1.15,0.02l-1.13-1.1c-0.32-0.31-0.33-0.83-0.02-1.15
		l7.11-7.34c0.31-0.32,0.83-0.33,1.15-0.02l1.13,1.1C39.82,80.93,39.83,81.45,39.52,81.77z"/>
	<path style="fill:#6D4238;" d="M45.7,87.76L38.6,95.1c-0.31,0.32-0.83,0.33-1.15,0.02l-1.13-1.1c-0.32-0.31-0.33-0.83-0.02-1.15
		l7.11-7.34c0.31-0.32,0.83-0.33,1.15-0.02l1.13,1.1C46.01,86.92,46.02,87.44,45.7,87.76z"/>
	<path style="fill:#6D4238;" d="M48.8,90.75l-7.11,7.34c-0.31,0.32-0.83,0.33-1.15,0.02l-1.13-1.1c-0.32-0.31-0.33-0.83-0.02-1.15
		l7.11-7.34c0.31-0.32,0.83-0.33,1.15-0.02l1.13,1.1C49.1,89.92,49.11,90.43,48.8,90.75z"/>
	<path style="fill:#6D4238;" d="M54.98,96.75l-7.11,7.34c-0.31,0.32-0.83,0.33-1.15,0.02l-1.13-1.1c-0.32-0.31-0.33-0.83-0.02-1.15
		l7.11-7.34c0.31-0.32,0.83-0.33,1.15-0.02l1.13,1.1C55.29,95.91,55.3,96.42,54.98,96.75z"/>
	<path style="fill:#6D4238;" d="M58.08,99.74l-7.11,7.34c-0.31,0.32-0.83,0.33-1.15,0.02l-1.13-1.1c-0.32-0.31-0.33-0.83-0.02-1.15
		l7.11-7.34c0.31-0.32,0.83-0.33,1.15-0.02l1.13,1.1C58.38,98.9,58.39,99.42,58.08,99.74z"/>
	<path style="fill:#6D4238;" d="M61.17,102.74l-7.11,7.34c-0.31,0.32-0.83,0.33-1.15,0.02l-1.13-1.1c-0.32-0.31-0.33-0.83-0.02-1.15
		l7.11-7.34c0.31-0.32,0.83-0.33,1.15-0.02l1.13,1.1C61.47,101.9,61.48,102.41,61.17,102.74z"/>
	<path style="fill:#CF381A;" d="M74.47,101.75l-8.25,8.52c-1.15,1.19-3.05,1.22-4.24,0.07L14.14,63.99
		c-1.19-1.15-1.22-3.05-0.07-4.24l8.25-8.52c1.15-1.19,3.05-1.22,4.24-0.07L74.41,97.5C75.6,98.66,75.63,100.56,74.47,101.75z"/>
	<path style="fill:#FF5722;" d="M69.98,100.06l-5.52,5.7c-1.15,1.19-3.05,1.22-4.24,0.07L16.7,63.68c-1.19-1.15-1.22-3.05-0.07-4.24
		l5.52-5.7c1.15-1.19,3.05-1.22,4.24-0.07l43.51,42.15C71.11,96.97,71.14,98.87,69.98,100.06z"/>
	<path style="fill:#FF5722;" d="M111.26,86.85l-6.8-0.15c-3.4-0.08-6.09-2.89-6.02-6.29l1.24-56.1c0.08-3.4,2.89-6.09,6.29-6.02
		l6.8,0.15c3.4,0.08,6.09,2.89,6.02,6.29l-1.24,56.1C117.47,84.23,114.66,86.92,111.26,86.85z"/>
	<circle style="fill:#6D4238;" cx="104.18" cy="44.61" r="2.18"/>
	<circle style="fill:#6D4238;" cx="103.95" cy="53.93" r="2.18"/>
	<circle style="fill:#6D4238;" cx="103.72" cy="63.25" r="2.18"/>
	<circle style="fill:#6D4238;" cx="103.49" cy="72.56" r="2.18"/>
	<circle style="fill:#6D4238;" cx="114.38" cy="35.18" r="2.18"/>
	<circle style="fill:#6D4238;" cx="114.15" cy="44.5" r="2.18"/>
	<circle style="fill:#6D4238;" cx="113.92" cy="53.81" r="2.18"/>
	<circle style="fill:#6D4238;" cx="113.68" cy="63.13" r="2.18"/>
	<circle style="fill:#6D4238;" cx="109.28" cy="39.9" r="2.18"/>
	<circle style="fill:#6D4238;" cx="109.05" cy="49.21" r="2.18"/>
	<circle style="fill:#6D4238;" cx="108.82" cy="58.53" r="2.18"/>
	<circle style="fill:#6D4238;" cx="108.59" cy="67.85" r="2.18"/>
</g>
</svg>
