<?xml version="1.0" encoding="utf-8"?>
<!-- Generator: Adobe Illustrator 25.2.3, SVG Export Plug-In . SVG Version: 6.00 Build 0)  -->
<svg version="1.1" id="Layer_5" xmlns="http://www.w3.org/2000/svg" xmlns:xlink="http://www.w3.org/1999/xlink" x="0px" y="0px"
	 viewBox="0 0 128 128" style="enable-background:new 0 0 128 128;" xml:space="preserve">
<g>
	<path style="fill:#FFCC80;" d="M97.66,113.81c-5.71-26.32-15.75-29.81-27.43-43.26c-8.11-9.34-10.16-13.47-15.23-23.57
		S46.6,30.24,46.6,30.24l19.27-10.86c0,0,12.01,27.56,22.87,38.42c5.46,5.46,23.05,22.9,35.2,56.04c1.15,3.14,0,11.75-13.21,9.91
		C99.81,122.22,98.54,117.84,97.66,113.81z"/>
	<path style="fill:#EAAB57;" d="M68.82,25.88c-2,0.47-5.1,1.37-5.21,1.3l-2.21-4.14l-5.39,2.62l-8.04,7.33
		c1.43,2.85,3.9,7.77,7.03,14c1.68,3.34,3.52,6.85,5.45,10.28c0,0-0.02-7.42,5.53-13.06c3.1-3.15,6.64-8.8,6.64-10.84
		C71.34,30.56,70.06,28.27,68.82,25.88z"/>
	<path style="fill:#F44336;" d="M29.61,65.92c0.81,0.37,2.95,1.38,4.14-0.09c3.9-4.79,14.18-24.72,19.93-26.1
		c1.84-0.44,3.71-0.74,5.52-1.28c7.65-2.27,10.57-6.13,11.81-8.34c0.72-1.28,0.76-2.42-0.4-4.48c-1.29-2.3-10.28-20.65-10.28-20.65
		s-3.15-0.92-6.99,0.28c-1.44,0.45-6.96,3.36-10.86,6.29c-2.72,2.04-1.88,4.11-7.93,6.29c-7.13,2.58-19.72,5.47-25.88,6.92
		c-3.59,0.85-4.39,1.94-4.49,4.97C4,35.61,8.31,56.34,29.61,65.92z"/>
	<path style="fill:#C62828;" d="M52,5.01C50.05,5.69,14.72,21.68,8.46,23.96c-3.47,1.26-4.64,0.74-4.73,3.78
		c-0.16,4.94,3.34,22.43,17.02,32.92c-1.62-2.22-11.36-11.67-13.31-29.9c-0.21-1.93,0.88-3.74,2.78-4.15
		c7.16-1.55,29.32-6.53,42.2-12.57c5.27-2.47,9.55-6.39,7.93-9.04C59.57,3.73,56,3.6,52,5.01z"/>
	<path style="fill:#E0E0E0;" d="M24.27,44.43c-4.77-6.22-6.18-19.62-6.18-19.62s-7.15-1.4-9.96-0.48c-3.51,1.15-3.83,0.57-3.91,4.02
		c-0.13,5.86,2.35,26.94,25.4,37.56c0.81,0.37,2.95,1.38,4.14-0.09c1.2-1.47,3.73-5.55,5.82-8.9
		C33.91,54.48,29.65,51.45,24.27,44.43z"/>
	<path style="fill:#BDBDBD;" d="M10.21,26.6c1.41-0.31,7.88-1.79,7.88-1.79l-3.62-3.32c0,0-3.91,1.3-7.32,2.49
		c-2.88,1-3.43,1.2-3.42,3.76c0.01,4.94,2.5,22.15,17.02,32.92c-1.62-2.22-11.36-11.67-13.31-29.9C7.23,28.83,8.31,27.01,10.21,26.6
		z"/>
	
		<ellipse transform="matrix(0.9155 -0.4022 0.4022 0.9155 0.0109 20.5575)" style="fill:#FFCC80;" cx="48.96" cy="10.25" rx="10.43" ry="2.25"/>
	<path style="fill:#FF5450;" d="M50.13,17.86c1.78,0.34,2.89,2.09,3.73,3.7c2.04,3.94,3.73,8.06,5.04,12.3
		c0.08,0.25,0.15,0.51,0.08,0.75c-0.1,0.33-0.44,0.53-0.76,0.68c-1.85,0.91-3.97,1.72-5.94,1.1c-2.48-0.78-3.75-3.45-4.75-5.84
		c-1.07-2.58-2.14-5.17-3.21-7.75C42.85,19.25,46.85,17.23,50.13,17.86z"/>
</g>
</svg>
