<?xml version="1.0" encoding="utf-8"?>
<!-- Generator: Adobe Illustrator 25.2.3, SVG Export Plug-In . SVG Version: 6.00 Build 0)  -->
<svg version="1.1" id="Layer_2" xmlns="http://www.w3.org/2000/svg" xmlns:xlink="http://www.w3.org/1999/xlink" x="0px" y="0px"
	 viewBox="0 0 128 128" style="enable-background:new 0 0 128 128;" xml:space="preserve">
<radialGradient id="SVGID_1_" cx="63.5391" cy="64.9305" r="33.8256" gradientTransform="matrix(0.3979 0.9174 -3.1047 1.3466 239.8435 -80.7973)" gradientUnits="userSpaceOnUse">
	<stop  offset="0.119" style="stop-color:#E8D59A"/>
	<stop  offset="0.2967" style="stop-color:#E9D297"/>
	<stop  offset="0.4456" style="stop-color:#EAC78C"/>
	<stop  offset="0.5837" style="stop-color:#EDB67B"/>
	<stop  offset="0.6206" style="stop-color:#EEB075"/>
	<stop  offset="0.9032" style="stop-color:#F5A97F"/>
</radialGradient>
<path style="fill:url(#SVGID_1_);" d="M48.54,35.12C34.2,42.47,28.22,57.94,31.19,72.31c0.69,3.32,1.85,6.57,3.49,9.66
	c8.17,15.32,29.33,20.43,45.83,11.38c14.31-7.85,22.62-26.71,14.45-43.34c-1.47-2.99-3.39-5.8-5.7-8.3
	C80.08,31.76,64.89,26.75,48.54,35.12z"/>
<radialGradient id="SVGID_2_" cx="49.8919" cy="39.0121" r="62.2276" gradientTransform="matrix(0.4505 0.8928 -2.512 1.2675 125.4157 -54.978)" gradientUnits="userSpaceOnUse">
	<stop  offset="0.2187" style="stop-color:#E3DDA6"/>
	<stop  offset="0.278" style="stop-color:#E4D9A0"/>
	<stop  offset="0.3544" style="stop-color:#E8CD90"/>
	<stop  offset="0.3841" style="stop-color:#EAC788"/>
</radialGradient>
<path style="fill:url(#SVGID_2_);" d="M89.25,41.71c-9.17-9.95-24.37-14.96-40.71-6.59C34.2,42.47,28.22,57.94,31.19,72.31
	c0,0,8.89,0.32,32.53-13.4S89.25,41.71,89.25,41.71z"/>
<path style="fill:#C6DDCB;" d="M38.59,42.88c0,0,10.88-0.66,13.45-1.86c1.81-0.85,9.04-9.87,9.04-9.87s-6.16,0.44-12.65,3.88
	C42.04,38.41,38.59,42.88,38.59,42.88z"/>
<path style="fill:#F8DBAF;" d="M31.19,72.31c0,0,9.09-0.8,30.29-12.35s26.89-19.17,26.89-19.17s3.37,3.29,5.52,7.19
	c2.21,4.03,3.27,7.58,3.27,7.58L77.42,69.1c0,0-1.12-3.96,1.47-7.33c2.59-3.36,6.98-5.86,6.38-7.58s-5.43,0-9.48,3.36
	c-4.05,3.36-8.01,7.15-9.48,6.12c-1.47-1.03,2.84-4.14,1.03-4.57s-5.17,1.64-9.91,5.69c-4.74,4.05-7.58,7.58-14.74,9.22
	c-6.24,1.43-11.15-0.15-11.15-0.15L31.19,72.31z"/>
<radialGradient id="SVGID_3_" cx="60.6606" cy="68.5246" r="26.6043" gradientUnits="userSpaceOnUse">
	<stop  offset="0.4216" style="stop-color:#F6DFB4"/>
	<stop  offset="0.9843" style="stop-color:#F9D4A4"/>
</radialGradient>
<path style="fill:url(#SVGID_3_);" d="M34.16,80.99c0,0,5.03,0.89,10.92-1.29c9.05-3.35,11.53-7.56,15.49-9.67
	c2.01-1.07,4.59-1.24,4.21,2.48c-0.4,4.03-8.43,9.17-8.43,9.17l-17.38,6.38c0,0-1.47-1.64-2.67-3.27
	C35.36,83.49,34.16,80.99,34.16,80.99z"/>
<radialGradient id="SVGID_4_" cx="81.2859" cy="66.7397" r="37.8186" gradientUnits="userSpaceOnUse">
	<stop  offset="0" style="stop-color:#F6DFB4"/>
	<stop  offset="0.8693" style="stop-color:#F9D4A4"/>
</radialGradient>
<path style="fill:url(#SVGID_4_);" d="M45.49,93.16c0,0,12.37-2.13,29.44-12.25s23.23-16.98,23.23-16.98s-0.01,1.71-0.09,2.61
	s-0.28,2.1-0.28,2.1s-8.17,9.01-21.19,16.5c-15.11,8.7-25.85,10.5-25.85,10.5s-1.53-0.57-2.67-1.1
	C47.1,94.1,45.49,93.16,45.49,93.16z"/>
<path style="fill:#F6CB89;" d="M32.36,53.63c0,0-0.48,1.4-0.78,2.59s-0.61,2.81-0.61,2.81s7.6-0.89,25.18-10.04
	s21.49-15.55,21.49-15.55s-1.37-0.58-2.77-1.05c-1.11-0.37-2.6-0.71-2.6-0.71s-7.8,7.35-18.42,12.71
	C40.54,51.09,32.36,53.63,32.36,53.63z"/>
<path style="fill:#F6CB89;" d="M30.68,60.82c0,0-0.07,0.75-0.12,1.26c-0.07,0.73-0.09,1.52-0.09,1.52s9.59-0.78,27.25-10.57
	s24.22-17.36,24.22-17.36s-0.77-0.49-1.48-0.86c-0.84-0.45-1.4-0.71-1.4-0.71s-6.41,8.21-22.76,16.55
	C37.95,60,30.68,60.82,30.68,60.82z"/>
<path style="fill:#94C7EA;" d="M87.19,39.63c0,0,33.25-14.36,38.81-6.93c5.56,7.44-25.64,28.82-57.51,45.96S5.92,106.82,2.2,98.99
	s28.62-28.66,28.62-28.66s0.09,0.52,0.21,1.15c0.11,0.59,0.31,1.58,0.31,1.58L16.98,85.15l-1.81,8.2l17.77-3.32
	c0,0,20.18-7.14,33.29-13.96s40.63-26.51,40.63-26.51l7.89-13.18l-25.85,4.94c0,0-0.36-0.37-0.81-0.82
	C87.61,40.02,87.19,39.63,87.19,39.63z"/>
<path style="fill:#6BA5AF;" d="M31.09,71.79c0,0-26.22,15.51-22.87,23.78c3.04,7.5,36.22-4.7,63.81-20.44
	c25.35-14.47,52.64-32.03,47.95-39.85c-4.13-6.89-31.89,5.23-31.89,5.23s0.3,0.28,0.63,0.63c0.24,0.26,0.51,0.53,0.51,0.53
	s20.68-5.19,22.21-2.13S92.23,62.1,70.39,73.43S19.02,97.06,17.31,92.1c-2.46-7.13,14.12-18.7,14.12-18.7s-0.16-0.69-0.2-0.91
	C31.16,72.19,31.09,71.79,31.09,71.79z"/>
<path style="fill:#A7CED6;" d="M89.09,41.54c0,0,24.24-9.34,27.58-4.46s-15.83,20.98-46.5,37.28S14.03,99.66,11.2,93.77
	c-2.83-5.89,20.03-21.28,20.03-21.28s0.1,0.45,0.21,0.92c0.11,0.48,0.41,1.57,0.41,1.57S17.77,85.64,19.99,88.15
	c2.22,2.51,18.46,0.19,48.01-14.86c29.85-15.21,41.3-28.44,38.2-31.43c-2.02-1.94-15.52,1.5-15.52,1.5s-0.47-0.56-0.79-0.93
	C89.58,42.05,89.09,41.54,89.09,41.54z"/>
<path style="fill:#DDECF6;" d="M90.32,42.93c0,0,16.37-6.61,18.98-1.45c3.03,6-22.32,22.61-41.52,33.07
	C49.08,84.73,21,94.65,18.1,89.53c-2.39-4.23,13.5-15.41,13.5-15.41s0.13,0.51,0.3,1.1c0.09,0.31,0.28,0.91,0.28,0.91
	s-10.65,7.59-8.67,10.55s22.24-2.38,43.27-13.36C92.1,60.11,106.97,46.9,104.83,43.4c-2.14-3.49-13.39,0.91-13.39,0.91
	s-0.31-0.4-0.5-0.64C90.69,43.36,90.32,42.93,90.32,42.93z"/>
</svg>
