<?xml version="1.0" encoding="utf-8"?>
<!-- Generator: Adobe Illustrator 24.0.3, SVG Export Plug-In . SVG Version: 6.00 Build 0)  -->
<svg version="1.1" id="Layer_9" xmlns="http://www.w3.org/2000/svg" xmlns:xlink="http://www.w3.org/1999/xlink" x="0px" y="0px"
	 viewBox="0 0 128 128" style="enable-background:new 0 0 128 128;" xml:space="preserve">
<g>
	<g>
		<radialGradient id="SVGID_1_" cx="83.9648" cy="20.9353" r="104.5315" gradientUnits="userSpaceOnUse">
			<stop  offset="0.2442" style="stop-color:#E1F5FE"/>
			<stop  offset="0.4017" style="stop-color:#CFEEFC"/>
			<stop  offset="0.7163" style="stop-color:#A0DDF8"/>
			<stop  offset="0.9574" style="stop-color:#78CEF5"/>
		</radialGradient>
		<rect x="11.57" y="11.44" style="fill:url(#SVGID_1_);" width="104.9" height="104.9"/>
		<linearGradient id="SVGID_2_" gradientUnits="userSpaceOnUse" x1="54.3252" y1="46.2434" x2="48.8723" y2="25.2219">
			<stop  offset="0.113" style="stop-color:#FFFFFF;stop-opacity:0"/>
			<stop  offset="0.8681" style="stop-color:#FFFFFF"/>
		</linearGradient>
		<polygon style="fill:url(#SVGID_2_);" points="90.95,11.44 11.53,50.19 11.62,96.05 100.92,11.44 		"/>
		<linearGradient id="SVGID_3_" gradientUnits="userSpaceOnUse" x1="83.4685" y1="77.0351" x2="58.6667" y2="51.154">
			<stop  offset="0.113" style="stop-color:#FFFFFF;stop-opacity:0"/>
			<stop  offset="0.8681" style="stop-color:#FFFFFF"/>
		</linearGradient>
		<polygon style="fill:url(#SVGID_3_);" points="105.56,11.44 25.46,116.54 74.4,116.34 116.47,19.92 116.47,11.44 		"/>
		<linearGradient id="SVGID_4_" gradientUnits="userSpaceOnUse" x1="63.9024" y1="68.6184" x2="44.2044" y2="42.0121">
			<stop  offset="0.2293" style="stop-color:#FFFFFF;stop-opacity:0"/>
			<stop  offset="0.7187" style="stop-color:#FFFFFF"/>
		</linearGradient>
		<polygon style="fill:url(#SVGID_4_);" points="11.61,93.25 98,11.44 109.23,11.44 22,116.56 11.57,116.34 		"/>
	</g>
	<path style="fill:#D68B52;" d="M4,7.53v112.93c0,1.95,1.58,3.53,3.53,3.53h112.93c1.95,0,3.53-1.58,3.53-3.53V7.53
		c0-1.95-1.58-3.53-3.53-3.53H7.53C5.58,4,4,5.58,4,7.53z M58.01,60.19H17.14c-1.15,0-2.08-0.93-2.08-2.08V16.56
		c0-1.15,0.93-2.08,2.08-2.08h40.87c1.15,0,2.08,0.93,2.08,2.08v41.56C60.09,59.26,59.16,60.19,58.01,60.19z M110.77,60.19H69.9
		c-1.15,0-2.08-0.93-2.08-2.08V16.56c0-1.15,0.93-2.08,2.08-2.08h40.87c1.15,0,2.08,0.93,2.08,2.08v41.56
		C112.85,59.26,111.92,60.19,110.77,60.19z M58.01,113.53H17.14c-1.15,0-2.08-0.93-2.08-2.08V69.89c0-1.15,0.93-2.08,2.08-2.08
		h40.87c1.15,0,2.08,0.93,2.08,2.08v41.56C60.09,112.6,59.16,113.53,58.01,113.53z M110.77,113.53H69.9c-1.15,0-2.08-0.93-2.08-2.08
		V69.89c0-1.15,0.93-2.08,2.08-2.08h40.87c1.15,0,2.08,0.93,2.08,2.08v41.56C112.85,112.6,111.92,113.53,110.77,113.53z"/>
	<g>
		<g>
			<polygon style="fill:#FFCCBC;" points="69.15,58.63 69.15,17.89 65.97,13.71 65.97,61.81 114.07,61.81 109.9,58.64 			"/>
			<polygon style="fill:#B25B47;" points="65.97,13.71 65.97,24.17 69.15,20.98 69.15,17.89 109.9,17.89 109.9,58.64 114.07,61.81 
				114.07,13.71 			"/>
			<linearGradient id="SVGID_5_" gradientUnits="userSpaceOnUse" x1="65.7927" y1="27.0701" x2="70.1288" y2="31.4061">
				<stop  offset="0" style="stop-color:#B25B47"/>
				<stop  offset="1" style="stop-color:#B25B47;stop-opacity:0"/>
			</linearGradient>
			<polygon style="fill:url(#SVGID_5_);" points="65.97,22.8 65.97,38.09 69.15,34.91 69.15,19.59 			"/>
		</g>
		<g>
			<path style="fill:#FFCCBC;" d="M18.1,17.89h40.75v40.75H18.1V17.89 M13.93,13.71v48.1h48.1v-48.1H13.93L13.93,13.71z"/>
			<polygon style="fill:#B25B47;" points="13.93,13.71 13.93,13.8 13.93,13.8 13.93,31.69 18.1,28.52 18.1,24.8 18.1,17.97 
				18.14,17.89 58.85,17.89 58.85,58.64 62.03,61.81 62.03,13.71 			"/>
			<linearGradient id="SVGID_6_" gradientUnits="userSpaceOnUse" x1="14.1396" y1="34.5774" x2="18.7459" y2="39.1837">
				<stop  offset="0" style="stop-color:#B25B47"/>
				<stop  offset="1" style="stop-color:#B25B47;stop-opacity:0"/>
			</linearGradient>
			<polygon style="fill:url(#SVGID_6_);" points="13.93,30.41 13.93,45.7 18.1,42.52 18.1,27.2 			"/>
		</g>
		<g>
			<path style="fill:#FFCCBC;" d="M109.9,110.11H69.15V69.36h40.75V110.11 M114.07,114.29v-48.1h-48.1v48.1H114.07L114.07,114.29z"
				/>
			<polygon style="fill:#B25B47;" points="66.04,66.19 65.97,66.19 65.97,74.29 69.15,74.29 69.15,69.36 109.9,69.36 109.9,110.03 
				114.07,114.2 114.07,66.19 			"/>
			<linearGradient id="SVGID_7_" gradientUnits="userSpaceOnUse" x1="64.6335" y1="80.0879" x2="69.867" y2="85.3215">
				<stop  offset="0" style="stop-color:#B25B47"/>
				<stop  offset="1" style="stop-color:#B25B47;stop-opacity:0"/>
			</linearGradient>
			<polygon style="fill:url(#SVGID_7_);" points="65.97,73.77 65.97,92.27 69.15,89.08 69.15,73.77 			"/>
		</g>
		<g>
			<polygon style="fill:#FFCCBC;" points="58.85,84.37 58.85,110.11 18.1,110.03 18.1,69.36 58.79,69.36 61.96,66.19 13.93,66.19 
				13.93,114.2 62.03,114.1 62.03,81.09 			"/>
			<polygon style="fill:#B25B47;" points="61.96,66.19 13.93,66.19 13.93,66.19 13.93,83.02 18.1,82.99 18.1,69.36 58.79,69.36 
				58.79,69.36 58.85,69.36 58.85,80.93 62.03,80.93 62.03,66.19 			"/>
			<linearGradient id="SVGID_8_" gradientUnits="userSpaceOnUse" x1="57.5115" y1="86.8093" x2="62.745" y2="92.0429">
				<stop  offset="0" style="stop-color:#B25B47"/>
				<stop  offset="1" style="stop-color:#B25B47;stop-opacity:0"/>
			</linearGradient>
			<polygon style="fill:url(#SVGID_8_);" points="58.85,80.49 58.85,98.99 62.03,95.8 62.03,80.49 			"/>
			<linearGradient id="SVGID_9_" gradientUnits="userSpaceOnUse" x1="12.9679" y1="88.7608" x2="18.4814" y2="94.2743">
				<stop  offset="0" style="stop-color:#B25B47"/>
				<stop  offset="1" style="stop-color:#B25B47;stop-opacity:0"/>
			</linearGradient>
			<polygon style="fill:url(#SVGID_9_);" points="13.93,82.55 13.93,101.06 18.1,97.87 18.1,82.55 			"/>
		</g>
	</g>
</g>
</svg>
