<?xml version="1.0" encoding="utf-8"?>
<!-- Generator: Adobe Illustrator 25.2.3, SVG Export Plug-In . SVG Version: 6.00 Build 0)  -->
<svg version="1.1" id="Layer_2" xmlns="http://www.w3.org/2000/svg" xmlns:xlink="http://www.w3.org/1999/xlink" x="0px" y="0px"
	 viewBox="0 0 128 128" style="enable-background:new 0 0 128 128;" xml:space="preserve">
<g>
	<path style="fill:#B9E4EA;" d="M4,93.33V34.67c0-4.68,3.83-8.5,8.5-8.5H115.5c4.68,0,8.5,3.83,8.5,8.5v58.67
		c0,4.68-3.83,8.5-8.5,8.5H12.5C7.83,101.84,4,98.01,4,93.33z"/>
	<g>
		<g>
			<path style="fill:#FFFFFF;" d="M42.43,89.13H15.19c-0.85,0-1.54-0.69-1.54-1.54V50.57c0-0.85,0.69-1.54,1.54-1.54h27.24
				c0.85,0,1.54,0.69,1.54,1.54v37.03C43.97,88.44,43.28,89.13,42.43,89.13z"/>
		</g>
		<g>
			
				<linearGradient id="SVGID_1_" gradientUnits="userSpaceOnUse" x1="28.8131" y1="74.3475" x2="28.8131" y2="38.9792" gradientTransform="matrix(1 0 0 -1 0 128.1102)">
				<stop  offset="0.1531" style="stop-color:#1E88E5"/>
				<stop  offset="1" style="stop-color:#1565C0"/>
			</linearGradient>
			<path style="fill:url(#SVGID_1_);" d="M43.87,87.95v1.18H13.75v-1.18c0-4.63,5.87-6.87,12.38-7.34v-0.32
				c-2.74-0.83-5.19-2.89-6.4-6.28c-1.24-0.44-1.95-4.51-1.62-5.04c-0.24-1.71-1.86-15.12,10.7-15.21l0,0l0,0
				c12.53,0.06,10.93,13.44,10.67,15.18c0.32,0.53-0.38,4.6-1.62,5.04c-1.18,3.39-3.63,5.48-6.37,6.31v0.29
				C38.04,81.11,43.87,83.59,43.87,87.95z"/>
		</g>
	</g>
	<path style="fill:#2F7889;" d="M115.5,26.16H12.5c-4.68,0-8.5,3.83-8.5,8.5v5.33h120v-5.33C124,29.99,120.17,26.16,115.5,26.16z"/>
	<path style="fill:#82AEC0;" d="M79.09,53.76H54.33c-1.31,0-2.37-1.06-2.37-2.37v0c0-1.31,1.06-2.37,2.37-2.37h24.76
		c1.31,0,2.37,1.06,2.37,2.37v0C81.45,52.7,80.39,53.76,79.09,53.76z"/>
	<path style="fill:#82AEC0;" d="M87.96,65.55H54.33c-1.31,0-2.37-1.06-2.37-2.37v0c0-1.31,1.06-2.37,2.37-2.37h33.63
		c1.31,0,2.37,1.06,2.37,2.37v0C90.32,64.49,89.26,65.55,87.96,65.55z"/>
	<path style="fill:#82AEC0;" d="M75.27,77.34H54.33c-1.31,0-2.37-1.06-2.37-2.37l0,0c0-1.31,1.06-2.37,2.37-2.37h20.94
		c1.31,0,2.37,1.06,2.37,2.37l0,0C77.63,76.28,76.57,77.34,75.27,77.34z"/>
	<path style="fill:#82AEC0;" d="M69.57,89.13H54.33c-1.31,0-2.37-1.06-2.37-2.37v0c0-1.31,1.06-2.37,2.37-2.37h15.24
		c1.31,0,2.37,1.06,2.37,2.37v0C71.94,88.07,70.88,89.13,69.57,89.13z"/>
	<g>
		<path style="fill:#94D1E0;" d="M124,53.79c-0.17-0.01-0.34-0.03-0.52-0.03c-7.84,0-14.19,6.35-14.19,14.19s6.35,14.19,14.19,14.19
			c0.17,0,0.34-0.02,0.52-0.03V53.79z"/>
	</g>
</g>
</svg>
