<?xml version="1.0" encoding="utf-8"?>
<!-- Generator: Adobe Illustrator 24.1.2, SVG Export Plug-In . SVG Version: 6.00 Build 0)  -->
<svg version="1.1" id="Layer_5" xmlns="http://www.w3.org/2000/svg" xmlns:xlink="http://www.w3.org/1999/xlink" x="0px" y="0px"
	 viewBox="0 0 128 128" style="enable-background:new 0 0 128 128;" xml:space="preserve">
<g>
	<g>
		<linearGradient id="SVGID_1_" gradientUnits="userSpaceOnUse" x1="55.9347" y1="29.979" x2="55.9347" y2="127.5925">
			<stop  offset="0.1042" style="stop-color:#9E9E9E"/>
			<stop  offset="0.4542" style="stop-color:#849298"/>
			<stop  offset="0.6732" style="stop-color:#7A8D96"/>
			<stop  offset="0.9483" style="stop-color:#505E64"/>
		</linearGradient>
		<path style="fill:url(#SVGID_1_);" d="M35.35,21.07c3.03-7.58,8.55-13.39,15.26-15.83C52.85,4.44,73.54,4,73.54,4
			s2.4,6.96,6.44,17.07c1.3,3.26,3.32,5.57,7.61,6.18c1.41,0.2,2.48,1.46,2.48,3.01v83.81H21.8V30.37c0-1.62,1.17-2.93,2.65-3.02
			C31.83,26.9,33.97,24.53,35.35,21.07z"/>
		<linearGradient id="SVGID_2_" gradientUnits="userSpaceOnUse" x1="42.0312" y1="8.839" x2="42.0312" y2="29.155">
			<stop  offset="0" style="stop-color:#757575;stop-opacity:0"/>
			<stop  offset="0.8282" style="stop-color:#757575"/>
			<stop  offset="0.9543" style="stop-color:#757575;stop-opacity:0"/>
		</linearGradient>
		<path style="fill:url(#SVGID_2_);" d="M44.56,8.59c-3.95,3.01-7.15,7.34-9.21,12.48c-1.38,3.46-3.52,5.83-10.91,6.27
			c-0.68,0.04-1.28,0.35-1.74,0.81h38.67V8.59H44.56z"/>
		<linearGradient id="SVGID_3_" gradientUnits="userSpaceOnUse" x1="83.5678" y1="19.5368" x2="52.4534" y2="158.4737">
			<stop  offset="0.1528" style="stop-color:#BDBDBD"/>
			<stop  offset="1" style="stop-color:#6E818A"/>
		</linearGradient>
		<path style="fill:url(#SVGID_3_);" d="M51.22,21.07C55.26,10.96,63.74,4,73.54,4c9.81,0,18.28,6.96,22.32,17.07
			c1.3,3.26,3.32,5.57,7.61,6.18c1.41,0.2,2.48,1.46,2.48,3.01v83.81H37.67V30.37c0-1.62,1.17-2.93,2.65-3.02
			C47.7,26.9,49.84,24.53,51.22,21.07z"/>
		<g>
			<path style="fill:#BDBDBD;" d="M37.67,33.98c0.47,6.37,0.72,12.74,0.88,19.11c0.18,6.37,0.23,12.74,0.26,19.11
				c-0.02,6.37-0.06,12.74-0.24,19.11c-0.16,6.37-0.41,12.74-0.87,19.11c-0.47-6.37-0.72-12.74-0.89-19.11
				c-0.18-6.37-0.23-12.74-0.25-19.11c0.02-6.37,0.07-12.74,0.24-19.11C36.96,46.71,37.21,40.34,37.67,33.98z"/>
		</g>
		<g>
			<path style="fill:#E0E0E0;" d="M73.54,4c-3.41,0.87-6.5,2.34-9.28,4.26c-2.78,1.9-5.29,4.22-7.4,6.8
				c-0.53,0.65-0.97,1.31-1.43,2.04l-1.38,2.19c-0.91,1.48-1.83,2.97-2.87,4.42c-0.28,0.37-0.5,0.71-0.85,1.1
				c-0.34,0.37-0.71,0.69-1.11,0.96c-0.79,0.55-1.64,0.94-2.52,1.2c-1.76,0.52-3.59,0.58-5.32,0.3c1.75-0.17,3.45-0.54,4.95-1.27
				c0.74-0.37,1.45-0.79,2.03-1.33c0.6-0.53,0.97-1.12,1.42-1.88c0.86-1.47,1.67-3.01,2.52-4.53c0.85-1.52,1.68-3.09,2.82-4.56
				c2.22-2.89,5.02-5.24,8.15-7.03C66.42,4.92,70,3.82,73.54,4z"/>
		</g>
	</g>
	<g style="opacity:0.55;">
		<path style="fill:#777777;" d="M92.58,41.37c-1.1,0.05-2.33-0.16-3.24-0.2c-0.91-0.04-1.81,0.16-2.72,0.17
			c-1.75,0.01-3.44-0.73-5.19-0.75c-2.28-0.03-4.48,1.16-6.76,0.96c-1.26-0.11-2.47-0.64-3.74-0.65c-1.24-0.01-2.44,0.48-3.69,0.55
			c-2.09,0.12-4.15-0.98-6.22-0.7c-1.06,0.14-2.05,0.64-3.09,0.87c-1.87,0.41-4.27-0.64-4.27-2.8c0-1.5,1.22-2.72,2.72-2.72
			c1.12,0,2.22,0.1,3.34,0c1.48-0.13,2.96-0.42,4.45-0.27c1.16,0.12,2.3,0.5,3.46,0.37c0.74-0.09,1.44-0.38,2.17-0.57
			c1.14-0.31,2.36-0.35,3.52-0.14c1.07,0.2,2.1,0.62,3.18,0.66c1.46,0.06,2.88-0.57,4.34-0.56c1.19,0.01,2.34,0.45,3.53,0.5
			c1.1,0.05,2.19-0.23,3.29-0.36c2.31-0.28,7.66-0.28,7.66,3.1C95.32,40.79,94.06,41.31,92.58,41.37z"/>
	</g>
	<g style="opacity:0.55;">
		<g>
			<path style="fill:#777777;" d="M69.12,66.89c-1.13-0.01-2.4-0.36-3.5-0.21c-0.67,0.09-1.32,0.27-1.98,0.36
				c-0.62,0.08-1.25,0.08-1.88,0.08c-2.36,0-7.93,0.89-7.93-2.89c0-1.1,0.72-2.21,1.79-2.56c1.22-0.4,3.09,0.27,4.36,0.45
				c0.61,0.09,1.22,0.18,1.84,0.18c2.46,0.01,10.03-2.85,10.03,1.92c0,1.06-0.73,2.31-1.82,2.57C69.73,66.87,69.43,66.9,69.12,66.89
				z"/>
		</g>
		<g>
			<path style="fill:#777777;" d="M92.43,66.94c-0.86-0.01-1.68-0.37-2.57-0.39c-0.79-0.02-1.53,0.37-2.3,0.57
				c-1.94,0.49-4-0.28-5.97,0.07c-1.29,0.23-1.92,0.35-2.93-0.47c-0.84-0.68-1.52-1.3-1.52-2.47c0-1.26,0.87-2.35,2.08-2.65
				c1.6-0.41,2.33,0.38,3.82,0.7c0.83,0.18,1.67-0.17,2.49-0.38c1.1-0.28,2.26-0.32,3.38-0.11c0.37,0.07,0.74,0.17,1.12,0.2
				c1.32,0.1,2.35-0.83,3.61-0.21c0.92,0.46,1.52,1.42,1.52,2.44c0,1.14-0.76,2.24-1.86,2.58C92.99,66.91,92.71,66.94,92.43,66.94z"
				/>
		</g>
	</g>
	<g style="opacity:0.55;">
		<path style="fill:#777777;" d="M86.34,54.15c-1.62,0.08-3.59-0.44-4.76-0.49c-1.41-0.06-2.79,0.44-4.2,0.6
			c-2.24,0.24-4.48-0.4-6.74-0.4C68,53.87,59.9,56.36,59.9,51.53c0-3.02,2.75-2.39,4.69-2.03c1.93,0.36,3.89-0.61,5.84-0.43
			c1.05,0.1,2.04,0.52,3.09,0.63c1.92,0.19,3.8-0.7,5.72-0.66c0.6,0.01,1.19,0.12,1.79,0.16c0.95,0.07,1.9-0.02,2.83-0.18
			c0.8-0.13,1.74-0.55,2.55-0.43c1.39,0.2,2.63,1.53,2.63,2.93C89.07,53.5,87.85,54.08,86.34,54.15z"/>
	</g>
	<g>
		<path style="fill:#777777;" d="M93.63,61.79c-1.26-0.62-2.3,0.31-3.61,0.21c-0.38-0.03-0.75-0.13-1.12-0.2
			c-1.12-0.21-2.28-0.17-3.38,0.11c-0.82,0.21-1.66,0.56-2.49,0.38c-1.49-0.32-2.22-1.11-3.82-0.7c-0.9,0.23-1.61,0.89-1.92,1.73
			c0.28-0.2,0.59-0.36,0.93-0.44c1.6-0.41,2.33,0.38,3.82,0.7c0.83,0.18,1.67-0.17,2.49-0.38c1.1-0.28,2.26-0.32,3.38-0.11
			c0.37,0.07,0.74,0.17,1.12,0.2c1.32,0.1,2.35-0.83,3.61-0.21c0.92,0.46,1.52,1.42,1.52,2.44c0,0.32-0.07,0.64-0.18,0.94
			c0.71-0.5,1.17-1.35,1.17-2.23C95.15,63.2,94.55,62.24,93.63,61.79z"/>
		<path style="fill:#777777;" d="M61.81,62.31c-0.62,0-1.23-0.09-1.84-0.18c-1.27-0.18-3.13-0.85-4.36-0.45
			c-0.76,0.25-1.33,0.88-1.61,1.61c0.19-0.13,0.39-0.25,0.62-0.32c1.22-0.4,3.09,0.27,4.36,0.45c0.61,0.09,1.22,0.18,1.84,0.18
			c2.46,0.01,10.03-2.85,10.03,1.92c0,0.32-0.07,0.66-0.2,0.99c0.73-0.5,1.19-1.44,1.19-2.28C71.84,59.46,64.27,62.32,61.81,62.31z"
			/>
		<path style="fill:#777777;" d="M86.43,48.6c-0.81-0.12-1.76,0.3-2.55,0.43c-0.94,0.16-1.89,0.24-2.83,0.18
			c-0.6-0.04-1.19-0.15-1.79-0.16c-1.93-0.04-3.81,0.85-5.72,0.66c-1.05-0.11-2.04-0.53-3.09-0.63c-1.95-0.18-3.92,0.79-5.84,0.43
			c-1.74-0.33-4.13-0.86-4.6,1.21c0.98-0.45,2.44-0.14,3.61,0.08c1.93,0.36,3.89-0.61,5.84-0.43c1.05,0.1,2.04,0.52,3.09,0.63
			c1.92,0.19,3.8-0.7,5.72-0.66c0.6,0.01,1.19,0.12,1.79,0.16c0.95,0.07,1.9-0.02,2.83-0.18c0.8-0.13,1.74-0.55,2.55-0.43
			c1.39,0.2,2.63,1.53,2.63,2.93c0,0.36-0.05,0.67-0.13,0.94c0.68-0.37,1.12-1.05,1.12-2.23C89.07,50.13,87.82,48.8,86.43,48.6z"/>
		<path style="fill:#777777;" d="M87.66,35.73c-1.1,0.13-2.19,0.41-3.29,0.36c-1.19-0.05-2.34-0.49-3.53-0.5
			c-1.46-0.01-2.88,0.62-4.34,0.56c-1.08-0.04-2.12-0.46-3.18-0.66c-1.17-0.22-2.38-0.17-3.52,0.14c-0.72,0.19-1.42,0.49-2.17,0.57
			c-1.16,0.13-2.3-0.25-3.46-0.37c-1.49-0.15-2.97,0.14-4.45,0.27c-1.12,0.1-2.22,0-3.34,0c-1.17,0-2.17,0.75-2.55,1.79
			c0.44-0.31,0.98-0.5,1.56-0.5c1.12,0,2.22,0.1,3.34,0c1.48-0.13,2.96-0.42,4.45-0.27c1.16,0.12,2.3,0.5,3.46,0.37
			c0.74-0.09,1.44-0.38,2.17-0.57c1.15-0.31,2.36-0.35,3.52-0.14c1.07,0.2,2.1,0.62,3.18,0.66c1.46,0.06,2.88-0.57,4.34-0.56
			c1.19,0.01,2.34,0.45,3.53,0.5c1.1,0.05,2.19-0.23,3.29-0.36c2.31-0.28,7.66-0.28,7.66,3.1c0,0.34-0.05,0.61-0.12,0.87
			c0.66-0.36,1.1-1,1.1-2.16C95.32,35.45,89.97,35.45,87.66,35.73z"/>
	</g>
	<linearGradient id="SVGID_4_" gradientUnits="userSpaceOnUse" x1="55.9347" y1="99.8976" x2="55.9347" y2="136.13">
		<stop  offset="0.1042" style="stop-color:#9E9E9E"/>
		<stop  offset="0.4542" style="stop-color:#849298"/>
		<stop  offset="0.6732" style="stop-color:#7A8D96"/>
		<stop  offset="0.9483" style="stop-color:#505E64"/>
	</linearGradient>
	<path style="fill:url(#SVGID_4_);" d="M93.27,124H18.6c-1.13,0-2.05-0.92-2.05-2.05v-13.23c0-1.13,0.92-2.05,2.05-2.05h74.67
		c1.13,0,2.05,0.92,2.05,2.05v13.23C95.32,123.08,94.4,124,93.27,124z"/>
	<linearGradient id="SVGID_5_" gradientUnits="userSpaceOnUse" x1="72.0653" y1="104.2402" x2="72.0653" y2="138.2678">
		<stop  offset="0.1528" style="stop-color:#BDBDBD"/>
		<stop  offset="1" style="stop-color:#6E818A"/>
	</linearGradient>
	<path style="fill:url(#SVGID_5_);" d="M109.6,124H34.53c-1.02,0-1.85-0.83-1.85-1.85v-13.63c0-1.02,0.83-1.85,1.85-1.85h75.07
		c1.02,0,1.85,0.83,1.85,1.85v13.63C111.45,123.17,110.62,124,109.6,124z"/>
	<g>
		<path style="fill:#E0E0E0;" d="M32.68,108.76c-0.07-0.85,0.45-1.75,1.3-2.11c0.42-0.2,0.91-0.19,1.31-0.21l1.27-0.07l5.07-0.24
			c3.38-0.13,6.76-0.25,10.14-0.33c6.76-0.18,13.52-0.23,20.29-0.25c6.76,0.02,13.52,0.07,20.29,0.25c3.38,0.08,6.76,0.2,10.14,0.33
			l5.07,0.24l1.27,0.07c0.4,0.03,0.89,0.01,1.31,0.21c0.85,0.37,1.37,1.26,1.3,2.11c-0.05-0.86-0.67-1.59-1.42-1.8
			c-0.37-0.13-0.76-0.07-1.19-0.05l-1.27,0.07l-5.07,0.24c-3.38,0.13-6.76,0.25-10.14,0.33c-6.76,0.18-13.52,0.23-20.29,0.25
			c-6.76-0.02-13.52-0.07-20.29-0.25c-3.38-0.08-6.76-0.2-10.14-0.33l-5.07-0.24l-1.27-0.07c-0.44-0.02-0.82-0.08-1.19,0.05
			C33.35,107.17,32.73,107.9,32.68,108.76z"/>
	</g>
</g>
</svg>
