<svg xmlns="http://www.w3.org/2000/svg" viewBox="0 0 36 36"><path fill="#6c1a0d" d="M.75 8.93s.24-3.25 3.01-5.01c.67-.43 1.46.33 1.08 1.03-.82 1.47-1.64 3.51-1.12 5.2.1.32.54.34.65.03.25-.73.67-1.83 1.28-2.75.37-.56 1.26-.23 1.18.44-.12.96-.21 2.12-.11 2.99.07.64.84.93 1.31.49.3-.28.62-.66.83-1.13.23-.5.96-.44 1.13.08.12.37.19.84.15 1.41-.05.85.36 1.66 1.08 2.1l2.05 1.26-1.15.94-1.92-1.28c-.63-.42-1.42-.52-2.12-.23-2.31.93-7.59 2.22-7.31-5.56Zm34.5 0s-.24-3.25-3.01-5.01c-.67-.43-1.46.33-1.08 1.03.82 1.47 1.64 3.51 1.12 5.2-.1.32-.54.34-.65.03-.25-.73-.67-1.83-1.28-2.75-.37-.56-1.26-.23-1.18.44.12.96.21 2.12.11 2.99-.07.64-.84.93-1.31.49-.3-.28-.62-.66-.83-1.13-.23-.5-.96-.44-1.13.08-.12.37-.19.84-.15 1.41.05.85-.36 1.66-1.08 2.1l-2.05 1.26 1.15.94 1.92-1.28c.63-.42 1.42-.52 2.12-.23 2.31.93 7.59 2.22 7.31-5.56Zm-15.73.53-.7.63-.49-.87c-.16-.29-.49-.29-.65 0l-.49.87-.7-.63c-.22-.2-.52-.07-.61.27L15.01 13h6l-.87-3.27c-.09-.34-.39-.47-.61-.27Z"/><path fill="#282f33" d="M13.15 15.06s-2.37-3.81-.72-4.76 3.73 3.06 3.73 3.06z"/><path fill="#c86349" d="m12.97 15.73-.25-.41c-.18-.28-1.71-2.82-1.31-4.42.11-.46.38-.81.76-1.04.39-.22.83-.27 1.27-.14 1.58.46 3 3.1 3.15 3.4l.22.43-3.85 2.18Zm-.01-5.08c-.1 0-.2.03-.29.08-.15.09-.25.22-.3.42-.21.84.49 2.38.95 3.23l2.15-1.21c-.58-.98-1.54-2.26-2.31-2.48a.761.761 0 0 0-.21-.03Z"/><path fill="#282f33" d="M22.85 15.06s2.37-3.81.72-4.76-3.73 3.06-3.73 3.06z"/><path fill="#c86349" d="m23.03 15.73-3.85-2.18.22-.43c.16-.3 1.57-2.94 3.15-3.4.45-.13.89-.08 1.28.14s.65.58.76 1.04c.4 1.6-1.14 4.14-1.31 4.42l-.25.41Zm-2.5-2.56 2.15 1.21c.47-.86 1.16-2.39.95-3.23-.05-.19-.14-.33-.29-.41-.15-.09-.31-.1-.5-.05-.83.24-1.81 1.64-2.31 2.48Z"/><circle cx="18" cy="30" r="2.5" fill="#282f33"/><path fill="#c86349" d="M18 33c-1.65 0-3-1.35-3-3s1.35-3 3-3 3 1.35 3 3-1.35 3-3 3m0-5c-1.1 0-2 .9-2 2s.9 2 2 2 2-.9 2-2-.9-2-2-2"/><path fill="#c86349" d="M25 17.5c0-3.31-3.13-6-7-6s-7 2.69-7 6c0 1.2.41 2.32 1.13 3.26.78 1.02 1 2.37.76 3.64-.25 1.33-.39 2.46-.39 3.11 0 2.76 2.46 3 5.5 3s5.5-.24 5.5-3c0-.65-.14-1.77-.39-3.11-.24-1.26-.02-2.61.76-3.64.71-.94 1.13-2.05 1.13-3.26"/><path fill="#262b2b" d="M14.4 20.01s0-1.03 1.03-1.03 1.03 1.03 1.03 1.03v1.03s0 1.03-1.03 1.03-1.03-1.03-1.03-1.03v-1.03Zm5.15 0s0-1.03 1.03-1.03 1.03 1.03 1.03 1.03v1.03s0 1.03-1.03 1.03-1.03-1.03-1.03-1.03z"/><path fill="#6c1a0d" d="M16.06 28.03c.36-.09.51-.76.33-1.49s-.63-1.25-1-1.15-.51.76-.33 1.49.63 1.25 1 1.15Zm4.86-1.16c.19-.73.04-1.4-.33-1.49s-.81.42-1 1.15-.04 1.4.33 1.49.81-.42 1-1.15"/></svg>