<?xml version="1.0" encoding="utf-8"?>
<!-- Generator: Adobe Illustrator 25.2.3, SVG Export Plug-In . SVG Version: 6.00 Build 0)  -->
<svg version="1.1" id="Layer_3" xmlns="http://www.w3.org/2000/svg" xmlns:xlink="http://www.w3.org/1999/xlink" x="0px" y="0px"
	 viewBox="0 0 128 128" style="enable-background:new 0 0 128 128;" xml:space="preserve">
<path style="fill:#CC701F;" d="M36.02,63.39l-18.1,4.7L6.04,83.56l0.83,12.16l8.01,10.91l16.85,8.98l16.44,4.01l12.57-2.21
	l6.22-6.35l4.7-4.01c0,0,2.76-4.83,4.01-6.77c1.24-1.93,2.9-4.01,2.9-4.01s1.81-0.64,3.28-0.39c2.29,0.38,3.7,1.2,3.7,1.2
	l4.48-20.56l17.68-17.13c0,0,12.02-9.67,12.02-11.33s-0.14-15.47-0.14-15.47L36.02,63.39z"/>
<path style="fill:#E89806;" d="M25.09,70.47c0,0-4.73,2.55-9.9,8.98c-2.31,2.87-3.46,6.7-3.46,6.7l27.76,12.88l20.68,13.49
	c0,0,3.02-2.49,3.97-3.58c2.08-2.39,2.88-4.49,2.88-4.49l-4.26-15.66L25.09,70.47z"/>
<path style="fill:#FFD61C;" d="M11.73,89.7c0,0,1.27,4.49,3.69,7.83c2.42,3.34,4.61,5.99,11.52,9.79s17.28,7.54,24.99,7.6
	c7.22,0.06,9.09-2.94,9.74-4.38c0.36-0.8,0.47-1.55,0.47-1.55s-0.95-0.6-5.21-1.23c-4.23-0.62-25.46-8.48-25.46-8.48L12.38,88.14
	L11.73,89.7z"/>
<path style="fill:#FEE942;" d="M11.68,86.39c0,0,0.58-3.5,4.49-4.9s9.96-2.48,24.61,4.52c14.64,7,17.36,9.37,20.47,15.8
	c0.7,1.44,1.27,5.93,0.86,7.22c-0.01,0.03-1.05-0.04-1.78-0.12c-1.52-0.18-19.02-5.72-19.02-5.72l-19.84-9.68l-9.86-5.72
	L11.68,86.39z"/>
<path style="fill:#FEF58A;" d="M14.57,91.41c0,0,6.48,3.62,9.39,5.25c2.92,1.63,7.21,4.62,11.08,6.13c7.93,3.09,18.52,5.6,18.52,5.6
	s1.55,1.63,3.41,2.04c1.87,0.41,3.4,0.14,3.88-0.88c0.5-1.05-0.03-3.73-3.35-4.32c-3.33-0.58-5.1-0.53-5.1-0.53
	s-9.48-2.45-17.71-6.13c-2.67-1.19-18.26-10.56-19.02-11.03c-0.76-0.47-2.6-2.74-4.73-1.87c-2.37,0.97-1.18,4.36,0.18,5.31
	C12.7,92.11,14.57,91.41,14.57,91.41z"/>
<path style="fill:#F6AF41;" d="M26.75,90.31c-0.45,0.49-0.58,2.16,1.34,2.74s2.33-1.69,1.52-2.51
	C28.79,89.72,27.39,89.61,26.75,90.31z"/>
<path style="fill:#F6AF41;" d="M35.47,86.93c-0.78,0.68-0.47,2.1,0.58,2.74c1.05,0.64,2.04,0.53,2.51-0.12s-0.12-1.87-0.7-2.28
	C37.28,86.87,36.35,86.17,35.47,86.93z"/>
<path style="fill:#F6AF41;" d="M20.24,83.53c-0.54,0.65,0.42,1.78,1.56,1.69c1.14-0.08,1.31-1.14,0.97-1.56
	C22.44,83.24,21.09,82.52,20.24,83.53z"/>
<path style="fill:#F6AF41;" d="M16.95,84.93c-0.72,0.57-0.21,2.03,0.76,2.41c1.2,0.47,2.37-0.04,2.03-1.52
	C19.58,85.11,18.34,83.83,16.95,84.93z"/>
<path style="fill:#F6AF41;" d="M44.67,109.65c0,1.23,0.97,1.61,1.86,1.69s1.73-0.17,1.65-1.35s-0.93-1.52-1.78-1.52
	C45.73,108.47,44.67,108.64,44.67,109.65z"/>
<path style="fill:#FBDF96;" d="M22.2,71.65l-2.89,0.32c0,0-11.79,5.36-11.26,5.04c0.54-0.32,0.54-2.25,4.82-6.65
	s16.62-16.19,19.84-19.62c3.22-3.43,14.6-16.95,18.44-22.19c7.61-10.4,11.79-17.37,13.94-19.08c2.14-1.72,5.04-2.36,6.86-2.68
	c1.82-0.32,11.26,0.32,25.09,6.86s22.19,10.83,23.91,12.97s3.22,3.86,3.22,8.36c0,3.76,0.32,9.97-1.39,12.12s-6.22,5.9-6.22,5.9
	l3.18-4.94l0.25-13.18l-2.89-0.43l-7.72,9.01L89.96,73.58L73.45,95.24l-5.9,6.43c0,0,0.43,3,1.29,4.07
	c0.86,1.07,2.82,1.29,2.82,1.29s-1.2,3.01-2.25,4.31c-1.73,2.15-3.72,4.13-3.72,4.13l1.32-8.66l-2.14-9.11c0,0,1.61-0.32-3.54-4.93
	c-5.15-4.61-7.4-5.79-8.68-6.75c-1.29-0.96-11.26-5.47-12.54-5.79c-1.29-0.32-14.58-3.97-14.58-3.97l-4.41-0.01
	c0,0,0.76-1.49,1.4-2.24c0.64-0.75,1.82-2.36,1.82-2.36H22.2z"/>
<g>
	<path style="fill:#F9C86F;" d="M23.21,71.94l-2.67-0.31c0.19-0.2,18.91-20.53,31.41-35.04c2.9-3.36,6.98-9.71,10.26-14.81
		c2.25-3.51,4.2-6.53,5.29-7.87c2.69-3.29,7.65-6.81,7.93-7.01c0,0,0.84,0.07,1.51,0.18c0.81,0.14,1.88,0.32,1.88,0.32
		c-0.07,0.05-7.05,4.93-9.54,7.97c-1.01,1.23-2.92,4.21-5.14,7.66c-3.32,5.16-7.45,11.58-10.45,15.07
		C41.16,52.64,23.39,71.74,23.21,71.94z"/>
</g>
<g>
	<path style="fill:#F9C86F;" d="M38.63,73.9l-3.02-1.06c0.11-0.13,11.3-14.41,16.33-20.73c5.12-6.44,17.55-23.28,20.43-27.76
		c2.77-4.3,5.33-7.74,8.82-10.6c3.26-2.66,6.56-3.78,6.72-3.85l2.53,0.91c-0.95,0.55-4.73,2.21-7.79,4.72
		c-3.26,2.67-5.69,5.95-8.35,10.07c-2.91,4.51-15.58,22-20.73,28.47C48.53,60.4,38.74,73.77,38.63,73.9z"/>
</g>
<g>
	<path style="fill:#F9C86F;" d="M49.82,78.39l-2.74-1.1c0.15-0.21,14.91-21.34,20.23-28.82c1.19-1.67,2.64-3.76,4.23-6.04
		c5.78-8.29,11.58-17.67,16.55-22.19c4.85-4.42,10.01-5.86,10.26-5.95l3.15,1.49c-0.05,0.02-7.34,2.11-11.61,6.38
		c-3.44,3.44-11.07,14.18-16.49,21.96c-1.6,2.29-6.43,9.35-7.51,11.1C59.44,65.68,49.97,78.18,49.82,78.39z"/>
</g>
<g>
	<path style="fill:#F9C86F;" d="M58.57,85.52l-1.72-2.45c0.05-0.05,4.51-4.07,10.92-13.9c2.18-3.34,5.14-7.72,8.19-12.51
		c6.19-9.73,12.59-19.79,14.66-22.36c0.73-0.91,1.44-1.82,2.15-2.73c2.21-2.87,4.5-5.83,7.47-8.33c3.15-2.66,7.15-4.37,7.37-4.47
		l2.54,1.27c-0.05,0.02-4.69,2.44-7.6,4.9c-2.78,2.35-5.71,5.14-7.95,8.04c-0.71,0.92-1.43,1.85-2.18,2.77
		c-2,2.47-8.65,12.93-14.51,22.15c-3.05,4.8-5.94,9.33-8.12,12.68C63.26,80.57,58.78,85.3,58.57,85.52z"/>
</g>
<g>
	<path style="fill:#F9C86F;" d="M64.76,92.18l-0.98-2.29c0.8-1.03,8.83-9.39,13.66-17.63c4.98-8.49,13.99-23.33,17.53-28.18
		c3.55-4.88,9.58-12.1,13.54-15.74c3.74-3.44,7.55-4.97,7.76-5.06l2.29,1.39c-0.05,0.02-4.72,2.21-8.16,5.38
		c-3.85,3.55-10.08,10.59-13.56,15.38c-3.49,4.79-12.45,19.54-17.4,27.99C74.47,81.88,65.15,91.76,64.76,92.18z"/>
</g>
<g>
	<path style="fill:#F4B13A;" d="M71.96,100.84c-0.74,1.1-3.36,5.11-4.06,5.22c-0.7,0.11,0.54-3.7,0.11-4.26
		c-0.86-1.13,1.64-3.71,2.07-4.35c0.44-0.64,13.51-17.47,20.04-26.67c3.67-5.16,7.54-11.39,10.96-16.89
		c2.75-4.41,5.12-8.22,6.84-10.62l1.14-1.59c4.97-6.95,7.91-10.86,10.64-10.16c0.76,0.19,1.4,0.75,1.69,1.72
		c0.84,2.85,0.46,14.02-0.82,15.91c-0.6,0.89-2.08,2.22-5.36,5.14c-2.59,2.31-6.14,5.46-10.19,9.34l-1.91,1.82
		c-5.25,5.01-10.17,10.42-11.33,12.1c-0.71,1.12-2.55,7.59-3.35,13.53c-0.46,3.36-0.48,7.64-0.8,7.66
		c-0.88,0.06-3.83-1.36-3.71-2.87S86,85.52,87.49,79.47C80.14,89.36,72.79,99.6,71.96,100.84z M117.82,36.1
		c-0.24-0.98-4.18,4.35-6.31,7.33l-1.14,1.6c-1.67,2.31-3.95,6.46-6.66,10.82c-2.77,4.44-4.97,7.93-8,12.41
		c1.86-1.81,3.08-2.8,5.34-4.96l1.91-1.82c4.09-3.91,7.66-7.09,10.27-9.41c2.39-2.13,3.7-3.27,4.11-3.89
		C118.01,46.83,118.55,39.78,117.82,36.1z M118.15,34.71"/>
</g>
<g>
	<path style="fill:#FFF6AD;" d="M49.96,121.31c-4.69,0-10.42-0.65-17.79-3.41C7.49,108.65,2.71,94.27,3.65,87.04
		c0.58-4.45,2.92-10.56,8.59-14.19c6.51-4.15,15.85-4.59,26.99-0.86c21.74,7.29,28.53,21.26,29.1,22.59
		c0.57,1.33,2.34,3.84,1.07,4.59c-1.1,0.65-1.72-1.44-2.41-2.73c-0.69-1.28-1.88-3.42-4.37-6.31c-3.89-4.53-12.3-10.92-25.1-14.96
		C27.49,71.99,20,72.83,14.54,76.32c-5.83,3.72-6.4,8.13-6.71,11.53c-0.53,5.68,3.71,18.2,26.07,26.58
		c14.26,5.34,21.99,3.02,26.02,1.01c2.94-1.47,4.64-3.96,5.09-6.77c0.75-4.66,1.42-16.49-24.12-26.52
		c-8.11-3.19-17.32-3.43-17.91-3.47c-0.9-0.06-1.9-0.06-2.01-1.51c-0.11-1.4,1.09-1.59,1.68-1.62C23.24,75.5,32,75.25,41.51,79
		c28.22,11.13,28.16,24.77,27.25,30.38c-0.64,3.99-2.89,6.86-6.77,9.12C59.43,120,55.27,121.31,49.96,121.31z"/>
</g>
<path style="fill:#CC701F;" d="M49.01,35.32c0,0-8.69,4.38-9.06,5.03s-0.35,2.41-0.13,2.24c1.98-1.6,8.27-3.84,23.55,3.67
	s22.04,13.79,24.51,20.58c0.72,1.98,1.35,3.77,1.69,5.73c0.74,4.23,0.78,7.41,1.01,8.39c0.38-0.23,1.22-1.34,1.22-1.34l5.4-7.25
	c0,0-10.03-22.15-10.59-22.61S61.15,36.99,61.15,36.99S49.29,34.95,49.01,35.32z"/>
<path style="fill:#F4B13A;" d="M53.09,34.21c0,0-11.96,4.46-12.79,4.92c-0.83,0.46-0.66,2.25-0.63,2.8
	c1.83-2.08,5.33-2.71,9.13-2.34c3.8,0.37,9.67,2.21,9.67,2.21s1.57,1.95,4.35,2.87c2.78,0.93,5.83,1.06,5.83,1.06
	s14.51,9.24,18.15,15.06c3.86,6.16,4.26,10.24,4.75,14.1c0.23,1.76,0.21,4.41,0.26,4.74c7.13-6.81,3.14-9.11,3.14-9.11
	s0.09-11.39-0.93-12.13c-1.02-0.74-13.62-10.47-13.62-10.47l-1.48-4.45l-3.43-1.85l15.28-8.06c0,0,1.39-4.54-1.67-3.15
	c-3.06,1.39-17.24,7.2-17.24,7.2l-2.94-1.71l-5.16-2.36c0,0-1.59-1.38-2.05-1.75c-0.46-0.37-9.74-15.64-9.74-15.64l-3.06,0.19
	l6.39,17.32L53.09,34.21z"/>
<path style="fill:#FFF9AF;" d="M57.71,40.15c0,0-0.36-1.65-0.25-2.56c0.1-0.85,0.85-1.65,0.85-1.65s-3.77-8.95-4.41-10.62
	c-0.86-2.26-2.78-8.3-2.41-8.67s3.06,7.32,4.11,9.47c0.71,1.46,3.91,8.97,3.91,8.97s1.16-1.09,1.69-1.46s1.44-1.07,1.44-1.07
	s-3.9-7-5.35-10.96S53.4,5.98,53.35,6.14s-2.73,1.6-3.64,1.92s-4.48,0.58-4.48,1.11s1.84,10.61,4.14,15.9
	c2.3,5.29,3.92,7.49,3.92,7.49s-5.22-0.92-7.09-0.12c-1.87,0.8-5.7,3.19-6.47,7.55c0,0.01,3.89-2.04,9.02-1.56
	C52.23,38.77,57.71,40.15,57.71,40.15z"/>
<path style="fill:#FFF9AF;" d="M66.63,44.06c-0.32,0.16-3.44-0.27-5.41-1.6c-1.26-0.85-2.68-2.53-1.82-4.62
	c0.86-2.09,4.32-4.4,4.32-4.4s1.04-0.41,3.04,0.4c2.05,0.83,2.73,2.3,2.73,2.3s-2.66,3.05-3.04,4.65
	C66.07,42.4,66.63,44.06,66.63,44.06z"/>
<path style="fill:#FFF9AF;" d="M69.1,39.94c-0.16-0.43,0.04-1.39,0.32-1.82c0.57-0.9,0.88-1.02,0.88-1.02s2.25-0.21,8.29-3.64
	c6.04-3.42,11.71-6.9,13.05-7.97c1.34-1.07,3.64-3.26,3.64-3.26s2.83,2.03,3.9,4.28s1.87,5.24,1.87,5.24s-10.43,5.88-14.81,7.54
	c-4.38,1.66-15.67,5.61-15.67,5.61s-1.18-1.58-1.18-2.27s3.37-0.79,11.02-4.36c3.86-1.8,8.34-4.44,8.02-5.13s-5.66,1.81-11.12,4.22
	C75.47,38.18,69.1,39.94,69.1,39.94z"/>
<path style="fill:#FFF9AF;" d="M78.93,43.47c0,0-1.57,1.5-2.48,2.3c-0.91,0.8-2.03,1.71-2.03,1.71s4.04,2.33,7.67,5.21
	c3.34,2.64,6.25,6.21,7.21,8.08s2.86,5.71,3.55,12.34c0.32,3.11,0.16,5.35,0.16,5.35s1.43-0.74,3.34-3.89
	c1.68-2.77,1.98-3.78,2.14-4.64c0.16-0.86,0.29-6.54-2.3-12.35C92.86,50.15,78.93,43.47,78.93,43.47z"/>
</svg>
