<?xml version="1.0" encoding="utf-8"?>
<!-- Generator: Adobe Illustrator 25.2.3, SVG Export Plug-In . SVG Version: 6.00 Build 0)  -->
<svg version="1.1" id="Layer_2" xmlns="http://www.w3.org/2000/svg" xmlns:xlink="http://www.w3.org/1999/xlink" x="0px" y="0px"
	 viewBox="0 0 128 128" style="enable-background:new 0 0 128 128;" xml:space="preserve">
<g id="smiling-eyes-smiling-face_10_">
	<path id="mouth_9_" style="display:none;fill:#35220B;" d="M-213.36,98.75c12.29,0,23.26-7.11,30.51-18.26
		c1.1-1.7-1.23-4.29-3.23-2.29c-7.12,7.12-16.57,11.03-27.28,11.03h-0.21c-10.7,0-20.16-3.9-27.28-11.03c-2-2-4.33,0.59-3.23,2.29
		c7.24,11.15,18.22,18.26,30.51,18.26H-213.36z"/>
</g>
<radialGradient id="face_1_" cx="63" cy="-2091.1001" r="56.9597" gradientTransform="matrix(1 0 0 -1 0 -2028)" gradientUnits="userSpaceOnUse">
	<stop  offset="0.5" style="stop-color:#FDE030"/>
	<stop  offset="0.92" style="stop-color:#F7C02B"/>
	<stop  offset="1" style="stop-color:#F4A223"/>
</radialGradient>
<path id="face_10_" style="fill:url(#face_1_);" d="M63,119c-27.9,0-58-17.5-58-55.9S35.1,7.2,63,7.2c15.5,0,29.8,5.1,40.4,14.4
	C114.9,31.8,121,46.2,121,63.1s-6.1,31.2-17.6,41.4C92.8,113.8,78.4,119,63,119z"/>
<linearGradient id="face-2_1_" gradientUnits="userSpaceOnUse" x1="63" y1="1457" x2="63" y2="1345.2" gradientTransform="matrix(1 0 0 1 0 -1338)">
	<stop  offset="0" style="stop-color:#F4A223"/>
	<stop  offset="0.3812" style="stop-color:#F7C02B"/>
	<stop  offset="0.7478" style="stop-color:#FDE030;stop-opacity:0"/>
</linearGradient>
<path id="face-2_2_" style="fill:url(#face-2_1_);" d="M63,119c-27.9,0-58-17.5-58-55.9S35.1,7.2,63,7.2c15.5,0,29.8,5.1,40.4,14.4
	C114.9,31.8,121,46.2,121,63.1s-6.1,31.2-17.6,41.4C92.8,113.8,78.4,119,63,119z"/>
<path style="fill:#EB8F00;" d="M110.89,29.87c5.33,8.6,8.11,18.84,8.11,30.23c0,16.9-6.1,31.2-17.6,41.4C90.8,110.8,76.4,116,61,116
	c-18.06,0-37.04-7.35-48.18-22.94C23.58,110.72,43.81,119,63,119c15.4,0,29.8-5.2,40.4-14.5C114.9,94.3,121,80,121,63.1
	C121,50.36,117.53,39.04,110.89,29.87z"/>
<radialGradient id="SVGID_1_" cx="35.5447" cy="72.5759" r="19.4444" gradientTransform="matrix(0.9791 0 0 0.9301 -3.7557 10.8462)" gradientUnits="userSpaceOnUse">
	<stop  offset="0" style="stop-color:#ED7770"/>
	<stop  offset="0.9" style="stop-color:#ED7770;stop-opacity:0"/>
</radialGradient>
<circle style="opacity:0.8;fill:url(#SVGID_1_);" cx="31.05" cy="78.35" r="17.5"/>
<radialGradient id="SVGID_2_" cx="101.6369" cy="72.5759" r="19.4444" gradientTransform="matrix(0.9791 0 0 0.9301 -3.7557 10.8462)" gradientUnits="userSpaceOnUse">
	<stop  offset="0" style="stop-color:#ED7770"/>
	<stop  offset="0.9" style="stop-color:#ED7770;stop-opacity:0"/>
</radialGradient>
<circle style="opacity:0.8;fill:url(#SVGID_2_);" cx="95.75" cy="78.35" r="17.5"/>
<g>
	<g>
		<circle style="fill:#FFFFFF;" cx="82.04" cy="58.16" r="18.53"/>
		<circle style="fill:#422B0D;" cx="81.88" cy="58.16" r="8.04"/>
	</g>
	<g id="peepers_1_">
		<path style="fill:#896024;" d="M81.1,52.69L81.1,52.69c-1.07-0.56-2.59-0.02-3.49,1.7c-0.9,1.72-0.46,3.27,0.61,3.83l0,0
			c1.07,0.56,2.59,0.02,3.49-1.7C82.61,54.8,82.17,53.25,81.1,52.69z"/>
	</g>
</g>
<path style="fill:#422B0D;" d="M70,92.41c-0.56,0-1.12,0.12-1.66,0.36c-5.96,2.72-11.34,0.17-11.56,0.06
	c-1.98-0.96-4.37-0.16-5.35,1.81c-0.98,1.97-0.2,4.35,1.76,5.34c0.36,0.18,8.92,4.42,18.47,0.07c2.01-0.92,2.9-3.29,1.98-5.3
	C72.97,93.28,71.52,92.41,70,92.41z"/>
<g>
	<g>
		<g>
			
				<linearGradient id="SVGID_3_" gradientUnits="userSpaceOnUse" x1="48.1545" y1="75.9095" x2="0.5267" y2="123.9094" gradientTransform="matrix(-0.5681 -0.823 -0.823 0.5681 181.4017 36.6179)">
				<stop  offset="0" style="stop-color:#FFF176"/>
				<stop  offset="1" style="stop-color:#FFC400"/>
			</linearGradient>
			<path style="fill:url(#SVGID_3_);" d="M76.68,97.9c-1.46-1.9-4.02-6.07-8.8-12.22c-3.34-4.29-15.77-12.94-19.08-17.47
				c-1.71-2.34-3.15-4.69-2.23-6.42c3.06-5.77,6.93-0.85,6.93-0.85s-8.84-4.91-3.11-10.09c2.51-2.26,4.94-1.99,10.12,1.87
				c0,0,22.27,15.35,24.14,14.07c1.86-1.29-4.14-25.54-4.44-33.36c-0.16-4.22-0.34-7.65,3.56-8.7c5.68-1.54,6.35,6.44,6.24,5.29
				s1.53-4.16,5.61-4.96c3.16-0.63,4.72,3.41,5.74,9.46c1.02,6.05,6.61,28.07,9.29,29.92c0,0,0.94-11.93,6.74-16.18
				c2.63-1.93,7.22-2.7,7.79,0.56c0.33,1.92,0.33,5.24-1.19,10.15c-1.31,4.21-1.22,14.66-0.76,22.35
				c0.39,6.49,1.99,16.95-12.5,24.92C94.83,114.97,83.09,106.19,76.68,97.9z"/>
		</g>
	</g>
	<path style="fill:#EB8F00;" d="M79.53,33.75c-0.35-3.34-0.51-6.02,1.84-8.25c2.59-2.47,5.47-2.42,6.92-0.95
		c0.61,0.62,1.23,1.59,1.84,3.05c0.94-2.41,2.69-3.48,5.16-3.84c2.87-0.42,5.29,1.68,6.33,6.21c0.62,2.69,7.14,28.2,8.41,29.62
		c0,0,0.02-9.3,8.64-13.4c2.36-1.12,5.12-1.02,7.22,1.22s-0.48,6.31-2.16,16.97c-0.91,5.78-0.65,12.64-0.65,12.64
		s-2.74-3.68-1.4-16.56c0.5-4.83,3.87-9.86,1.44-11.66c-1.57-1.16-3.16-1.39-6.13,1.35c-6.11,5.64-4.6,14.79-4.94,15.93
		c-0.34,1.14-1.49,1.8-3.53-3.61c-2.03-5.4-7.29-25.43-8.91-31.6c-1.31-4.98-3.14-5.39-5.42-4.18c-2.84,1.5-2,6.24-1.59,7.79
		c0.34,1.28,3.6,18.82,5.39,24.87c0.38,1.28,1.37,3.26,1.24,4.17c-0.15,1-3.58,2.94-4.2-2.23c-0.68-5.67-4.96-26.41-4.96-26.41
		s-0.67-4.28-1.9-6.97c-0.56-1.23-2.28-2.65-5.12-0.41c-2.43,1.92-1.09,7.71-1.09,7.71l4.62,28.09c0,0,0.73,3.29-0.65,4.56
		c-1.6,1.48-4.39-0.65-4.39-0.65s-19.29-12.73-22.3-14.37c-3-1.64-4.85-3.55-7.69-1.72c-0.82,0.53-2.46,2.84,0.29,5.21
		c2.75,2.37,11.91,9.7,22.66,16.79c0.62,0.42,5.21,1.67,3.3,4.76c-1.9,3.09-5.06-1.58-5.62-2.01C65.03,70.3,56.9,63.91,52.14,61.32
		c-3.58-1.95-5.73,2.12-2.35,5.87c2.21,2.46,5.63,5.66,9.6,9.01c3.88,3.27,7.09,6.55,8.77,8.75c4.11,5.36,5.9,8.38,8.69,12.3
		c11.9,14.34,24.49,13.81,38.02,6.33c-1.76,2.01-25.49,19.29-42.38-7.45c-1.53-2.28-3.63-5.4-6.68-9.39
		c-1.49-1.95-4.78-4.95-8.33-8.29S43.56,66.27,45.27,61.46c1.17-3.28,4.1-3.44,4.1-3.44s-4.38-5.13,1.29-9.15
		c3.08-2.18,7.76,1.14,7.76,1.14l22.1,14.21c0,0,0.95,0.71,2.14,1.31c1.59,0.79,1.48-1.54,1.39-2.1
		C83.17,57.94,79.81,36.46,79.53,33.75z"/>
</g>
<g>
	
		<radialGradient id="prop-2_1_" cx="58.7255" cy="87.6971" r="71.7862" gradientTransform="matrix(0.7789 -0.6272 -0.6272 -0.7789 35.3961 162.4946)" gradientUnits="userSpaceOnUse">
		<stop  offset="0.27" style="stop-color:#FFF176"/>
		<stop  offset="1" style="stop-color:#FFC400"/>
	</radialGradient>
	<path id="prop-2" style="fill:url(#prop-2_1_);" d="M56.81,39.61c-4.11-1.2-6.83,5.6-6.83,5.6s0.77-4.32,1.27-8.1
		c0.32-2.42-0.74-6.19-3.39-7.19c-2.66-0.99-5.83,1.76-6.64,4.05l-3.19,8.94c0,0,1.53-2.93-1.02-7.57c-0.87-2-3.2-2.91-5.2-2.04
		c-0.38,0.16-0.72,0.38-1.03,0.66c-1.38,1.33-2.36,3.02-2.83,4.88c-1.95,6.9-7.48,24.93-10.37,26.91c-1.13,0.77-1.35,0.68-2.96-5.88
		c-0.81-4.06-3.38-7.54-7.03-9.5c-2.11-1.13-5.86,1.11-5.59,3.62c0.18,1.86,2.02,5.32,3.05,9.45c1.64,6.82,1.6,17.8,1.68,18.8
		c0.61,7.33,1.76,20.98,16,25.86c12.61,4.33,25.57-5.43,30.18-12.97C61.75,80.8,66.36,63.2,66.43,62.86
		c0.81-3.6,0.75-7.87-2.11-9.51c-3.52-2.04-5.9,2.77-5.9,2.77c1.12-3.1,1.74-6.36,1.82-9.65C60.18,43.17,59.58,40.43,56.81,39.61z"
		/>
	<path style="fill:#EB8F00;" d="M61.9,46.43c-0.04-2.12-0.13-7.08-4.62-8.41c-1.6-0.45-3.17-0.28-4.55,0.5
		c0.67-3.33-0.32-9.04-5.27-10.41c-1.84-0.51-4.27-0.12-6.41,2.61c-1.55,1.97-2.12,4.74-2.12,4.74c-0.13-0.28-2.03-5.71-8.04-2.59
		c-2.42,1.26-3.68,4.53-4.2,6.65C23.32,51.4,17.4,64.9,17.15,63.89c0.08-6.68-4.04-13.16-8.91-15.04c-2.11-1.13-7.53,1.13-7.07,4.65
		c0.38,2.89,3.32,8.13,4.08,13.58c0.59,4.21,0.7,20.26,3.2,26.23c0,0-0.38-4.36-0.6-10.77c-0.24-6.83-0.36-15.83-1.2-19.5
		c-0.73-3.28-2.45-6.53-3.01-9.23c-0.16-1.18,1.17-3.51,4.41-2.07c3.24,1.44,5.03,4.91,5.97,9.62c1.29,5.25,0.61,6.05,2.1,6.23
		c4.99,0.61,11.71-23.34,13.43-28.35c0.39-1.56,1.21-2.98,2.31-4.04c2.09-2.23,4.62,1.16,4.62,1.16c1.52,3.24,1.1,3.58,0.23,8.02
		c-0.62,3.16-3.43,13.55-6.05,19.3c0,0,0.88,0.94,2.46-1.28c1.58-2.22,5.53-13.73,7.07-20.67c0,0,1.75-9.3,4.68-10.55
		c2.98-1.27,4.11,0.59,4.64,2.8s0.1,5.73-1.12,10.66c-2.19,8.85-6.23,21.76-6.23,21.76s0.87,0.72,2.18-1.14
		c2.65-3.79,7.01-20.51,7.01-20.51c0.31-1.33,2.41-4.5,5-3.55c1.29,0.39,2.3,1.93,2.2,6.05c-0.1,4.94-3.51,16.16-7.08,25.18
		c0,0,1.18,0.44,2.49-1.64s5.13-12.67,6-14.03c0.87-1.36,1.75-2.68,3.66-1.92c2.5,1.18,2.47,3.72,1.57,7.7
		c-0.04,0.17-4.43,18.93-13.37,32.99c-4.72,7.43-12.9,12.15-25.6,13.41c9.97,2.03,23.2-4.13,28.47-12.89
		c8.88-14.74,13.69-32.62,13.72-32.78c0.65-2.88,2-8.89-3.48-11.47c-1.31-0.52-2.51-0.53-3.57-0.23
		C61.68,49.9,61.86,48.18,61.9,46.43z"/>
</g>
</svg>
