<?xml version="1.0" encoding="utf-8"?>
<!-- Generator: Adobe Illustrator 25.2.3, SVG Export Plug-In . SVG Version: 6.00 Build 0)  -->
<svg version="1.1" id="Raised-Hand" xmlns="http://www.w3.org/2000/svg" xmlns:xlink="http://www.w3.org/1999/xlink" x="0px"
	 y="0px" viewBox="0 0 128 128" style="enable-background:new 0 0 128 128;" xml:space="preserve">
<radialGradient id="face_1_" cx="63.6" cy="-7019.4609" r="56.9597" gradientTransform="matrix(1 0 0 -1 0 -6956.5605)" gradientUnits="userSpaceOnUse">
	<stop  offset="0.5" style="stop-color:#FDE030"/>
	<stop  offset="0.9188" style="stop-color:#F7C02B"/>
	<stop  offset="1" style="stop-color:#F4A223"/>
</radialGradient>
<path id="face_44_" style="fill:url(#face_1_);" d="M63.6,118.8c-27.9,0-58-17.5-58-55.9S35.7,7,63.6,7c15.5,0,29.8,5.1,40.4,14.4
	c11.5,10.2,17.6,24.6,17.6,41.5s-6.1,31.2-17.6,41.4C93.4,113.6,79,118.8,63.6,118.8z"/>
<linearGradient id="face_2_" gradientUnits="userSpaceOnUse" x1="63.6" y1="-7075.3608" x2="63.6" y2="-6963.5605" gradientTransform="matrix(1 0 0 -1 0 -6956.5605)">
	<stop  offset="0.1579" style="stop-color:#F4A223"/>
	<stop  offset="0.333" style="stop-color:#F7C02B"/>
	<stop  offset="0.8071" style="stop-color:#FDE030;stop-opacity:0"/>
</linearGradient>
<path id="face_65_" style="fill:url(#face_2_);" d="M63.6,118.8c-27.9,0-58-17.5-58-55.9S35.7,7,63.6,7c15.5,0,29.8,5.1,40.4,14.4
	c11.5,10.2,17.6,24.6,17.6,41.5s-6.1,31.2-17.6,41.4C93.4,113.6,79,118.8,63.6,118.8z"/>
<path style="fill:#EB8F00;" d="M111.49,29.67c5.33,8.6,8.11,18.84,8.11,30.23c0,16.9-6.1,31.2-17.6,41.4
	c-10.6,9.3-25,14.5-40.4,14.5c-18.06,0-37.04-7.35-48.18-22.94c10.76,17.66,30.99,25.94,50.18,25.94c15.4,0,29.8-5.2,40.4-14.5
	c11.5-10.2,17.6-24.5,17.6-41.4C121.6,50.16,118.13,38.84,111.49,29.67z"/>
<g>
	<path style="fill:#422B0D;" d="M44.04,40.94L44.04,40.94c-4.19,0-8,3.54-8,9.42s3.81,9.42,8,9.42l0,0c4.19,0,8-3.54,8-9.42
		S48.24,40.94,44.04,40.94z"/>
	<g>
		<g id="peepers_146_">
			<path style="fill:#896024;" d="M43.65,44.87L43.65,44.87c-1.03-0.72-2.58-0.49-3.58,0.95c-1,1.45-0.67,2.97,0.36,3.69l0,0
				c1.03,0.72,2.58,0.49,3.58-0.95S44.69,45.59,43.65,44.87z"/>
		</g>
	</g>
	<path style="fill:#422B0D;" d="M82.4,40.94L82.4,40.94c-4.19,0-8,3.54-8,9.42s3.81,9.42,8,9.42l0,0c4.19,0,8-3.54,8-9.42
		S86.59,40.94,82.4,40.94z"/>
	<g>
		<g id="peepers_145_">
			<path style="fill:#896024;" d="M82.01,44.87L82.01,44.87c-1.03-0.72-2.58-0.49-3.58,0.95c-1,1.45-0.67,2.97,0.36,3.69l0,0
				c1.03,0.72,2.58,0.49,3.58-0.95C83.38,47.11,83.04,45.59,82.01,44.87z"/>
		</g>
	</g>
</g>
<g id="palm">
	
		<radialGradient id="prop-2_1_" cx="64.5261" cy="-4876.936" r="65.3306" gradientTransform="matrix(1 0 0 -1 0 -4800.5605)" gradientUnits="userSpaceOnUse">
		<stop  offset="0.27" style="stop-color:#FFF176"/>
		<stop  offset="1" style="stop-color:#FFC400"/>
	</radialGradient>
	<path id="prop-2" style="fill:url(#prop-2_1_);" d="M96.32,81.86c-2.22-3.18-8,0.07-8,0.07s3-2.61,5.5-5c1.6-1.53,3-4.79,1.69-7
		s-5.12-2.07-6.99-0.92l-7.33,4.5c0,0,2.75-1.2,3.58-5.92c0.52-1.91-0.6-3.88-2.51-4.4c-0.36-0.1-0.73-0.14-1.1-0.12
		c-1.73,0.15-3.38,0.79-4.77,1.84c-5.3,3.76-19.45,13.35-22.62,13.1c-1.23-0.1,0.35-3.89,2.63-6.07s4.85-7.2,3.4-10.65
		c-0.85-2-4.26-3.44-5.49-1.51c-0.93,1.42-4.51,6.02-8.07,9.48c-3.56,3.47-9.42,11.22-9.93,11.98c-3.73,5.52-10.25,18.06-2.97,29.6
		c6.44,10.22,21.14,10.7,28.67,8c14.39-5.1,27.64-14.9,27.89-15.1c2.62-2.08,5-5.13,3.92-7.91c-1.33-3.44-5.74-1.4-5.74-1.4
		c2.55-1.55,4.84-3.5,6.77-5.78C96.68,86.29,97.81,84.01,96.32,81.86z"/>
	<path style="fill:#EB8F00;" d="M96.03,89.56c1.18-1.52,3.94-5.07,1.52-8.56c-0.87-1.23-2.08-2-3.49-2.24
		c2.37-1.97,4.91-6.57,2.2-10.35c-1.01-1.41-2.94-2.51-6.01-1.8c-2.21,0.51-4.19,2.14-4.19,2.14c0.07-0.27,1.81-5.18-4.2-6.4
		c-2.42-0.49-5.17,1.11-6.75,2.3c-9.13,6.48-20.13,12.4-19.73,11.55c1.42-2.82,3.82-4.78,5.12-7.35c1.43-2.84,1.23-5.01,0.84-6.87
		c-0.64-3-3.35-4.94-6.09-4.09c-2.41,0.75-3.17,3.83-7.49,8.5c-7,7.56-17.46,13.63-17.46,29.57c0,0,1.71-9.25,6.01-14.74
		c4.05-5.16,9.97-10.13,13.65-14.19c3.5-3.85,3.51-5.16,4.67-6.14c2.02-1.7,5.12-0.51,4.81,3.19c-0.36,4.45-2.23,5.95-4.26,8.49
		c-1.25,1.57-2.58,3.42-3.14,4.74c-0.36,0.84,0.33,1.74,1.24,1.62c6.13-0.81,20.37-10.55,24-12.84c1.16-0.88,2.54-1.41,3.93-1.54
		c2.74-0.39,2.6,3.45,2.6,3.45c-0.77,3.15-1.26,3.15-4.4,5.79c-2.23,1.87-10.12,7.61-15.24,10.19c0,0,0.09,1.17,2.46,0.5
		s11.71-6.54,16.74-10.57c0,0,6.52-5.57,9.3-4.79c2.82,0.8,2.57,2.76,1.68,4.62c-0.88,1.86-3.19,4.1-6.85,6.89
		c-6.58,5-16.77,11.82-16.77,11.82s0.21,1,2.19,0.43c4.03-1.17,16.61-10.49,16.61-10.49c0.98-0.76,4.26-1.81,5.54,0.34
		c0.69,1.01,0.53,2.66-1.89,5.52c-2.88,3.43-11.67,9.41-19.31,13.75c0,0,0.58,0.98,2.69,0.26s10.83-6.03,12.21-6.49
		c1.38-0.46,2.76-0.9,3.68,0.73c1.09,2.25-0.37,4.03-3.26,6.33c-0.12,0.09-13.88,10.85-28.19,15.69c-7.56,2.56-16.01,1.24-25.7-5.09
		c5.88,7.1,18.72,10.27,27.43,7.09c14.65-5.36,28.21-15.25,28.32-15.34c2.1-1.67,6.47-5.13,4.06-10.08
		c-0.63-1.11-1.47-1.8-2.39-2.19C93.91,91.89,95.01,90.77,96.03,89.56z"/>
</g>
</svg>
