<?xml version="1.0" encoding="utf-8"?>
<!-- Generator: Adobe Illustrator 26.3.1, SVG Export Plug-In . SVG Version: 6.00 Build 0)  -->
<svg version="1.1" id="emoji_x5F_u1faf3" xmlns="http://www.w3.org/2000/svg" xmlns:xlink="http://www.w3.org/1999/xlink" x="0px"
	 y="0px" viewBox="0 0 128 128" style="enable-background:new 0 0 128 128;" xml:space="preserve">
<path id="hand_5_" style="fill:#70534A;" d="M121.31,36.79c-0.85-0.78-16.12-2.16-18.07-2.43c2.87-0.6,7.32-1.67,9.93-3.14
	c4.79-2.7,6.25-9.61,2.07-10.38c-2.5-0.46-10.01,0.08-13.53,0.35c3.64-1.73,4.65-5.65,4.47-7.83c-0.23-2.79-1.82-3.77-3.56-3.24
	c-2.85,0.86-9.55,2.35-12.85,3.1c0,0,2.02-2.36,1.83-4.78c-0.19-2.35-2.01-3.12-5.86-1.95c-7.09,2.3-36.21,8.89-41.9,8.67
	c-16.92-0.64-32.54-0.4-33.65-0.07c-1.1,0.33-2.52,1.15-3.47,3.31c-1.25,2.85-2.39,7.23-2.63,13.12
	C3.57,43.51,5.95,44.57,5.95,44.57s9.54,8.48,15.85,13.06c10.39,7.54,15.04,16.95,17.54,22c1.04,2.11,1.62,3.89,2.58,5.05
	c1.74,2.09,4.74,2.02,6.77,0.49c2.77-2.1,2.88-4.12,2.86-8c0.01-4.71-6.74-20.59-7.6-23.07c-0.7-2.03,3.41-2.36,5.36-2.99
	c5.97-1.92,20.72-3.63,36.21-3.24c11.4,0.28,22.33,0.81,27.98-0.34c6.36-1.29,7.93-3.78,8.5-6.06
	C122.45,39.58,122.56,37.87,121.31,36.79z"/>
<path style="fill:#EDA600;" d="M97.31,11.09c-0.02,0.01-0.05,0.02-0.07,0.02c0.04-0.01,0.08-0.02,0.11-0.03
	C97.34,11.09,97.33,11.09,97.31,11.09z"/>
<g>
	<path style="fill:#4A2F27;" d="M121.29,36.79c-1.16,8.99-11.84,8.33-18.72,8.45c-6.56,0.02-14.55-0.41-21.5-0.42
		c-13.99,0.02-30.54,2.45-34.04,3.62c-3.5,1.16-7.44,2.06-5.93,6.65c0.58,1.76,6.19,13.47,8.13,20.46c1.32,5.31-0.04,9.12-0.04,9.12
		c0.74-0.56,2.08-1.17,2.66-5.54c0.94-7.15-6.69-21.54-7.91-25.02c-0.7-2.03,9.13-5.56,41.57-6.23c6.06-0.13,11.99,0.37,17.06,0.37
		c7.5,0.12,18.29-0.55,19.42-6.77c0.37-1.54,0.74-3.62-0.68-4.73C121.3,36.75,121.3,36.77,121.29,36.79z"/>
	<path style="fill:#4A2F27;" d="M88.03,11.08c-2.29,0.92-16.41,2.6-25.46,4.32c-4.51,0.86-6.15,2.16-6.15,2.16
		c15.09-1.16,24.93-2.23,33.34-4.34c1.05-0.26,2.62-2.82,1.52-5.98C91.11,7.57,91.19,9.82,88.03,11.08z"/>
	<g>
		<path style="fill:#4A2F27;" d="M101.7,21.19c4.65-2.65,5.08-5.41,4.26-8.83c0,0-2.34,4.97-7.86,5.99
			c-1.84,0.34-19.68,1.38-29.53,2.56c-3.8,0.45-5.61,1.51-5.61,1.51S101.71,21.19,101.7,21.19z"/>
		<path style="fill:#4A2F27;" d="M106.24,30.58c-1.95,0.56-5.3,0.39-7.29,0.03S77.53,27.94,71,27.56c-3.8-0.22-5.14,0.46-5.14,0.46
			s17.41,4.41,37.38,6.36c0,0,7.67-0.8,12.02-3.94c2.79-2.01,3.36-6.57,1.97-8.22c0,0-0.09,2.13-1.74,3.85
			C112.69,28.97,108.19,30.02,106.24,30.58z"/>
	</g>
</g>
</svg>
