<?xml version="1.0" encoding="utf-8"?>
<!-- Generator: Adobe Illustrator 26.3.1, SVG Export Plug-In . SVG Version: 6.00 Build 0)  -->
<svg version="1.1" id="emoji_x5F_u1faf1" xmlns="http://www.w3.org/2000/svg" xmlns:xlink="http://www.w3.org/1999/xlink" x="0px"
	 y="0px" viewBox="0 0 128 128" style="enable-background:new 0 0 128 128;" xml:space="preserve">
<g>
	<path style="fill:#FFCA28;" d="M64.85,111.68c9.18-1.14,27.36-3.73,30.71-4.6c5.2-1.34,7.88-3.36,7.95-6.93
		c0.07-4.16-2.97-5.49-7.67-5.2c0,0-27.29,2.31-27.29,2.31c0.19-1.14,0.62-1.09,0.8-2.36c0.6,0.09,1.24,0.07,1.83-0.01l36.41-2.89
		c6.16-0.97,8.48-3.32,7.66-7.8c-0.56-3.06-4.02-4.68-9-4.78l-35.63,0.71c0.05-0.81,0.1-1.62,0.14-2.43
		c1.99,0.31,40.81,0.05,46.34-0.62c5.05-0.61,6.91-2.9,6.91-5.73c0-3.76-2-6.54-8.17-7.1c-7.26-0.66-43.21-1.8-43.23-1.45
		c-0.67-0.1-1.4-0.12-2.07,0c-0.02-0.91-0.04-1.79-0.07-2.65l34.37,1.41c6.54,0.13,9.38-1.99,9.68-5.34
		c0.33-3.68-1.35-5.88-7.44-6.93c-14.63-2.52-40.88-4.53-53.93-5.33c-3.49-0.08-2.27-1.72-2.27-1.72
		C63.95,34.9,69.6,21.3,61.9,15.91c-1.08-0.76-4.23-1.03-7.57,2.32c-2.46,2.47-5.8,5.58-12.7,10.28C25.46,39.51,4,43.12,4,74.56
		c0,17.51,7.3,28,19.01,32.97C37.71,113.77,54.57,112.96,64.85,111.68z"/>
	<path style="fill:#EDA600;" d="M105.51,60.27c-4.14-0.13-33.08-1.43-34.88-1.68c-1.79-0.25-3.14-1.92-4.69-1.22
		c-1.09,0.49,0.47,3.29,1.36,4.33c0.84,0.98,1.75,1.29,3.18,1.29s33.63,0.66,33.63,0.66c8.04,0,10.23-3.22,10.4-6.99
		C113.8,58.55,110.77,60.44,105.51,60.27z"/>
	<path style="fill:#EDA600;" d="M115.79,76.27c-5.25,0.47-43.78-0.02-45.09-0.19s-2.25-1.05-3.47,0.05
		c-0.93,0.84-0.88,2.65-0.47,3.81c0.58,1.62,3.22,0.2,5.07,0.21c1.85,0,38.14,0.13,43.68-0.49c6.88-0.78,8.4-4.45,8.4-7.28
		C123.92,72.37,122.62,75.66,115.79,76.27z"/>
	<path style="fill:#EDA600;" d="M108.81,90.46c0,0-41.61,2.76-41.7,2.74c0,0-2.26-0.45-3.44,3.23c-0.3,0.92-0.54,2.3,0.76,2.4
		c0.73,0.05,2.5-1.27,3.1-1.35l40.09-3.51c5.44-0.72,8.02-3.53,7.78-7.93C115.4,86.04,114.9,89.46,108.81,90.46z"/>
	<path style="fill:#EDA600;" d="M64.85,111.68c9.18-1.14,27.31-3.92,30.71-4.6c6.42-1.27,8.12-3.61,7.95-6.93
		c0-0.05-0.8,2.76-6.69,3.81c-3.33,0.59-20.1,2.81-31.04,4.21c-15.53,1.99-28.73,1.12-41.2-4.33c-8.86-3.87-14.32-10.28-17.48-19.21
		C5.14,79.13,4,74.56,4,74.56c0,17.51,7.3,28,19.01,32.97C37.71,113.77,54.57,112.96,64.85,111.68z"/>
	<path style="fill:#EDA600;" d="M50.52,37.85c-3.45,2.7-3.94,4.79-1.13,5.94c2.38,0.98,1.27-0.51,1.27-0.92
		c0-0.33,0.21-0.61,0.21-0.61c9.03-5.08,14.52-13.14,14.52-19.42c0-1.25-0.23-2.43-0.69-3.5C64,30.71,53.97,35.16,50.52,37.85z"/>
	<path style="fill:#EDA600;" d="M53.1,54.67c-1.24-0.68-1.51-2.01,0.49-2.22c2.45-0.25,5.68-0.08,7.03,0.15
		c1.15,0.2,1.76,0.77,0.58,1.67C60.43,54.86,55.38,55.92,53.1,54.67z"/>
	<path style="fill:#EDA600;" d="M52.58,87.38c-1.11-0.87-1.17-2.1,0.84-2.11c2.65-0.01,5.5,0.49,6.97,0.92
		c1.12,0.34,1.61,1.04,0.31,1.74C59.84,88.39,54.63,88.98,52.58,87.38z"/>
	<path style="fill:#EDA600;" d="M51.29,103.56c-1.06-0.93-1.04-2.29,0.96-2.06c2.45,0.29,4.13,0.51,5.28,0.75
		c1.15,0.24,1.73,1.09,0.38,1.71C57.03,104.37,53.24,105.28,51.29,103.56z"/>
	<path style="fill:#EDA600;" d="M53.29,71.53c-1.33-0.88-1.51-2.3,0.76-2.45c2.93-0.2,6.24-0.01,7.95,0.42
		c1.29,0.32,1.91,1.03,0.5,1.93C61.58,72.02,55.75,73.15,53.29,71.53z"/>
</g>
</svg>
