<?xml version="1.0" encoding="utf-8"?>
<!-- Generator: Adobe Illustrator 26.3.1, SVG Export Plug-In . SVG Version: 6.00 Build 0)  -->
<svg version="1.1" id="emoji_x5F_u1faf6" xmlns="http://www.w3.org/2000/svg" xmlns:xlink="http://www.w3.org/1999/xlink" x="0px"
	 y="0px" viewBox="0 0 128 128" style="enable-background:new 0 0 128 128;" xml:space="preserve">
<g>
	<g>
		<path style="fill:#E0BB95;" d="M4.02,110.52c-0.01,0.12-0.02,0.24-0.02,0.37c7.22-9.07,10.55-12.14,13.75-13.1
			c4.11-1.23,7.36,1.69,18-0.78c7.69-1.78,14.85-0.14,19.54,5.46c2.22,2.65,4.5,3.64,5.75,3.56c1.52-0.1,2.04-0.79,2.47-1.52
			c0.76-1.29,0.53-3.31,0.53-6.22c0-5.72-4.94-10.63-8.31-12.7c-7-4.63-14.7-5.98-21.56-10.9c-2.24-1.57-4.23-3.65-5.18-6.27
			c-2.36-8.25,1.68-20.52,11.07-22.07c4.17-0.89,9.09-0.7,12.3,2.47c1.73,2.32,1.51,4.06,3.56,6.25c1.63,1.74,3.92,2.55,5.73,2.53
			c1.4-0.02,2.43-0.81,2.44-2.02l-0.07-21.38c0,0,1.21-5.18-4.39-8.33c-3.55-1.99-9.68-5.23-13.07-7.05
			C43.16,17,40.17,16,33.81,19.19c-9.98,5-29.76,23-29.76,23S4.26,88.87,4.02,110.52z"/>
	</g>
	<g>
		<path style="fill:#E0BB95;" d="M123.95,42.19c0,0-19.78-18-29.76-23C87.83,16,84.84,17,81.44,18.82
			c-3.4,1.81-9.53,5.05-13.07,7.05c-5.6,3.15-4.39,8.33-4.39,8.33l-0.11,21.35c0.01,1.21,1.08,2.03,2.48,2.05
			c1.82,0.02,4.11-0.79,5.73-2.53c2.05-2.19,1.83-3.92,3.56-6.25c3.21-3.17,8.13-3.35,12.3-2.47c9.39,1.55,13.42,13.82,11.07,22.07
			c-0.96,2.62-2.94,4.7-5.18,6.27c-6.86,4.91-14.56,6.27-21.56,10.9c-3.38,2.07-8.31,6.98-8.31,12.7c0,2.97-0.08,4.99,0.75,6.27
			c0.44,0.69,0.78,1.25,2.26,1.47c1.24,0.19,3.53-0.91,5.75-3.56c4.69-5.61,11.85-7.25,19.54-5.46c10.64,2.47,13.89-0.45,18,0.78
			c3.2,0.95,6.53,4.02,13.75,13.1c-0.01-0.12-0.01-0.24-0.02-0.37C123.74,88.87,123.95,42.19,123.95,42.19z"/>
	</g>
</g>
<g>
	<g>
		<g>
			<path style="fill:#BA8F63;" d="M47.39,98.42c-3.13-0.7-6.11-1.37-12.52-0.07c-5.89,1.19-12.34,1.72-17.81,0.13
				c-6.76-1.97-8.21-6.81-8.21-6.81c0.04,0.03,8.19,7.82,25.44,3.74c6.78-1.6,11.02-0.47,14.42,0.83c5.64,2.16,8.28,7.86,8.39,8.05
				C57.1,104.29,53.19,99.71,47.39,98.42z"/>
		</g>
		<g>
			<path style="fill:#BA8F63;" d="M27.23,63.33c-1.32-10.81,5.64-17.21,13.27-18.98c5.43-1.26,11.22,1.76,11.91,3.65
				c0.96,2.64,3.03,6.52,3.03,6.52c-1.84-1.69-3.64-5.11-4.84-5.64c-0.84-0.37-5.44-2.23-10.13-0.69c-6.11,2-10.34,7.68-9.71,14.62
				c0.26,2.89,0.85,6.84,3.87,10.19c4.75,5.28,12.77,8.29,12.77,8.29c0.15,0.07,0.07,0.3-0.09,0.26c-2.39-0.57-9.33-2.33-14.38-7.14
				C29.17,70.79,27.73,67.4,27.23,63.33z"/>
		</g>
	</g>
	<g>
		<g>
			<path style="fill:#BA8F63;" d="M80.61,98.42c3.13-0.7,6.11-1.37,12.52-0.07c5.89,1.19,12.34,1.72,17.81,0.13
				c6.76-1.97,8.21-6.81,8.21-6.81c-0.04,0.03-8.19,7.82-25.44,3.74c-6.78-1.6-11.02-0.47-14.42,0.83
				c-5.64,2.16-8.22,7.84-8.33,8.03c0,0,1.17-1.27,3.26-2.88C75.82,100.15,78.05,98.99,80.61,98.42z"/>
		</g>
		<g>
			<path style="fill:#BA8F63;" d="M100.77,63.33c1.32-10.81-5.64-17.21-13.27-18.98C82.06,43.1,76.27,46.11,75.58,48
				c-0.96,2.64-3.03,6.52-3.03,6.52c1.84-1.69,3.64-5.11,4.84-5.64c0.84-0.37,5.44-2.23,10.13-0.69c6.11,2,10.34,7.68,9.71,14.62
				c-0.26,2.89-0.85,6.84-3.87,10.19c-4.75,5.28-12.77,8.29-12.77,8.29c-0.15,0.07-0.07,0.3,0.09,0.26
				c2.39-0.57,9.33-2.33,14.38-7.14C98.83,70.79,100.27,67.4,100.77,63.33z"/>
		</g>
	</g>
	<path style="fill:#BA8F63;" d="M107.74,36.91c-2.34-1.79-14.88-8.69-14.88-8.69c-4.62-2.65-8.11-2.65-12.05-0.96
		c-2.87,1.23-13.14,6.63-14.7,8c-1.55,1.35-1.9,3.34-1.97,4.7c-0.08-1.37-0.43-3.35-1.97-4.7c-1.56-1.36-11.84-6.77-14.7-8
		c-3.95-1.69-7.44-1.69-12.05,0.96c0,0-12.54,6.89-14.88,8.69s-3.81,4.29-3.81,4.29s16.64-8.57,20.33-10.21
		c3.69-1.64,6.28-1.49,10-0.31c2.9,0.92,8.63,4.1,10.23,5.03c0.43,0.25,2.97,1.29,4.04,3.8c1.06,2.48,1.34,6.5,1.44,8.55
		c0.16,3.24,1.35,7.3,1.35,7.3s1.16-4.43,1.33-7.67c0.08-1.59,0.46-5.69,1.52-8.17c1.07-2.51,3.62-3.56,4.04-3.8
		c1.6-0.93,7.33-4.11,10.23-5.03c3.72-1.18,6.31-1.33,10,0.31c3.69,1.64,20.33,10.21,20.33,10.21S110.08,38.7,107.74,36.91z"/>
	<path style="fill:#BA8F63;" d="M79.64,19.85c0,0-9.87,4.81-12.16,6.05c-1.88,1.02-2.99,2.75-3.34,5.07
		c-0.34-2.32-1.46-4.04-3.34-5.07c-2.29-1.25-12.16-6.05-12.16-6.05c-0.18-0.07-0.28,0.17-0.13,0.28c0,0,10.76,7.5,11.45,8.06
		s2.53,2.04,2.81,3.89c0.19,1.27,1.1,6.41,1.34,7.74l0,0.33c0,0,0.01-0.06,0.03-0.15c0.02,0.09,0.03,0.15,0.03,0.15l0-0.33
		c0.24-1.34,1.15-6.48,1.34-7.74c0.27-1.85,2.12-3.32,2.81-3.89c0.69-0.56,11.45-8.06,11.45-8.06
		C79.92,20.02,79.81,19.78,79.64,19.85z"/>
</g>
</svg>
