<?xml version="1.0" encoding="utf-8"?>
<!-- Generator: Adobe Illustrator 26.3.1, SVG Export Plug-In . SVG Version: 6.00 Build 0)  -->
<svg version="1.1" id="emoji_x5F_u1faf4" xmlns="http://www.w3.org/2000/svg" xmlns:xlink="http://www.w3.org/1999/xlink" x="0px"
	 y="0px" viewBox="0 0 128 128" style="enable-background:new 0 0 128 128;" xml:space="preserve">
<g>
	<g>
		<path style="fill:#FFB300;" d="M121.54,95.58c-1.52-0.9-3.97-1.22-6.43-1.19c-3.01,0.04-10.67,1.46-10.67,1.46
			c1.54-1.58,8.64-2.3,9.33-4c0.41-1.03-0.81-5.5-7.32-5.39c-8.37,0.14-14.3,3.46-14.3,3.46s4.06-3.56,4.65-4.27
			c1.48-1.76-0.54-4.75-5.64-3.9c-3.57,0.6-7.52,2.95-12.85,6.62c-4.26,2.93-13.78,6.45-21.18,5.15c4,0.71,29.24,10.01,29.24,10.01
			c8.43-0.09,18.18,0.01,25.73,1.36c0,0,8.15-2.36,8.15-2.36C125.02,101.21,124.87,97.57,121.54,95.58z"/>
		<polygon style="fill:#FFB300;" points="53.76,92.88 53.77,92.88 53.76,92.88 		"/>
		<polygon style="fill:#FFB300;" points="54.74,92.88 54.74,92.88 54.74,92.88 		"/>
	</g>
	<g>
		<path style="fill:#FFCA28;" d="M115.68,105.69c-9.95-4.12-26.79-1.15-33.1-4c-8.75-3.95-16.81-6.3-21.59-7.85
			c-4.78-1.55-14.3-2.69-16.2-4.82c1.05-4.35,4.78-9.05,7.25-11.61c5.33-5.51,8.7-9.43,8.29-14.08c-0.38-4.38-4.44-7.02-7.84-3.78
			c-1.94,1.85-7.98,8.72-21.09,14.65c-3.47,1.57-6.66,3.91-10.79,7.71c-7.1,6.54-12.98,6.95-12.98,6.95s-0.71,0.58-1.1,1.62
			C5.6,92.97,4,98.4,4,106.45c0,7.03,1.22,11.68,2.15,14.22c0.58,1.58,1.2,2.37,1.2,2.37s4.58,1.07,13.51,0.69
			c9.43-0.4,26.64-1.21,40.57-4.81c17.86-4.61,42.91-2.47,54.06-1.43c1.58,0.15,4.43,0.53,5.8-0.68c1.16-1.02,0.83-2.56,0.86-3.6
			C122.23,110.56,119.03,107.75,115.68,105.69z"/>
	</g>
	<g>
		<path style="fill:#EDA600;" d="M119.03,116c-17.3-4.36-42.51-3.73-58.35,0.01c-17.83,4.73-43.79,5.46-54.73,4.08
			c0.18,8.34,44.84,1.28,55.48-1.17c15.05-4.16,40.55-2.86,54.06-1.43c1.95,0.12,5.58,0.81,6.41-1.66
			C121.12,116.45,119.98,116.19,119.03,116z"/>
		<path style="fill:#EDA600;" d="M45.05,89.26c0,0,0.05-1.3,1.02-3.27c1.08-2.19,3.62-6.15,5.98-8.59
			c5.33-5.51,8.73-9.43,8.29-14.08c-0.27-2.86-1.89-4.24-1.91-3.98c-0.02,0.26,0.33,0.96,0.44,2.32c0.09,1.2,0.33,2.57-2.02,6.21
			c-1.34,2.08-3.58,4.24-6.89,7.53c-3.77,3.75-5.21,5.97-5.9,8.99C43.33,87.61,44.36,88.73,45.05,89.26z"/>
	</g>
	<g>
		<g>
			<path style="fill:#EDA600;" d="M53.76,92.88L53.76,92.88C53.76,92.88,53.76,92.88,53.76,92.88
				C53.76,92.88,53.76,92.88,53.76,92.88L53.76,92.88z M53.76,92.88C53.76,92.88,53.77,92.88,53.76,92.88
				C53.77,92.88,53.77,92.88,53.76,92.88L53.76,92.88z"/>
		</g>
		<g>
			<path style="fill:#EDA600;" d="M54.74,92.88L54.74,92.88C54.74,92.88,54.74,92.88,54.74,92.88
				C54.74,92.88,54.74,92.88,54.74,92.88L54.74,92.88z M54.74,92.88C54.74,92.88,54.74,92.88,54.74,92.88
				C54.74,92.88,54.74,92.88,54.74,92.88L54.74,92.88z"/>
		</g>
	</g>
	<path style="fill:#EDA600;" d="M86.37,103.54C86.37,103.54,86.37,103.54,86.37,103.54c8.4-0.09,18.75-0.14,26.29,1.2
		c1.82-0.53,7.59-2.2,7.59-2.2c2.65-0.74,3.78-2.19,3.69-3.67c0-0.01,0-0.01-0.01-0.02c0,0-10.13,3.09-15.41,2.75
		c-6.38-0.42-11.81-0.42-14.65-0.28c-1.88,0.09-6.98,0.28-4.83-0.71c4.36-2.2,11.68-4.01,15.46-4.79c1.63-1.55,8.48-2.32,9.27-3.95
		c0.17-0.35,0.03-0.9,0.02-0.93c-1.71,0.86-6.67,1.08-10.97,2.34c-3.3,0.97-8.51,2.93-12.28,4.57c-3.34,1.46-7.28,1.98-9.57,0.84
		c-1.23-0.61-1.01-2.28,0.84-3.4c2.78-1.68,6.95-4.05,10.45-5.44c0.63-0.55,4-3.53,4.55-4.17c0.6-0.71,0.67-2.09-0.17-2.67
		c0,0-0.21,1.71-5.47,4.41c-3.58,1.84-7.12,3.3-12.33,6.98c-2.77,1.96-5.4,1.67-9.64,0.52c-2.79-0.76-5.05-0.85-7.45-1.14
		c-0.23,0.01-0.47,0.02-0.7,0.02C67.07,95.53,86.37,103.54,86.37,103.54z"/>
</g>
</svg>
