<?xml version="1.0" encoding="UTF-8" standalone="no"?><svg xmlns:dc="http://purl.org/dc/elements/1.1/" xmlns:cc="http://creativecommons.org/ns#" xmlns:rdf="http://www.w3.org/1999/02/22-rdf-syntax-ns#" xmlns:svg="http://www.w3.org/2000/svg" xmlns="http://www.w3.org/2000/svg" viewBox="0 0 45 45" style="enable-background:new 0 0 45 45;" xml:space="preserve" version="1.1" id="svg2"><metadata id="metadata8"><rdf:RDF><cc:Work rdf:about=""><dc:format>image/svg+xml</dc:format><dc:type rdf:resource="http://purl.org/dc/dcmitype/StillImage"/></cc:Work></rdf:RDF></metadata><defs id="defs6"><clipPath id="clipPath16" clipPathUnits="userSpaceOnUse"><path id="path18" d="M 0,36 36,36 36,0 0,0 0,36 Z"/></clipPath></defs><g transform="matrix(1.25,0,0,-1.25,0,45)" id="g10"><g id="g12"><g clip-path="url(#clipPath16)" id="g14"><g transform="translate(21,9)" id="g20"><path id="path22" style="fill:#be1931;fill-opacity:1;fill-rule:nonzero;stroke:none" d="m 0,0 c -1.657,0 -3,1.343 -3,3 l 0,4 c 0,1.657 1.343,3 3,3 0.603,0.006 6,0.999 6,4.999 0,2 -2,4.001 -5,4.001 -2.441,0 -4,-2.001 -4,-3.001 0,-1.656 -1.343,-3 -3,-3 -1.657,0 -3,1.344 -3,3 C -9,20.878 -4.42,25 1,25 9,25 12,19.018 12,13.999 12,9.855 9.723,6.686 5.587,5.079 4.687,4.729 3.797,4.492 3,4.332 L 3,3 C 3,1.343 1.657,0 0,0"/></g><g transform="translate(24,4)" id="g24"><path id="path26" style="fill:#be1931;fill-opacity:1;fill-rule:nonzero;stroke:none" d="m 0,0 c 0,-1.657 -1.343,-3 -3,-3 -1.657,0 -3,1.343 -3,3 0,1.657 1.343,3 3,3 1.657,0 3,-1.343 3,-3"/></g><g transform="translate(9,4)" id="g28"><path id="path30" style="fill:#be1931;fill-opacity:1;fill-rule:nonzero;stroke:none" d="m 0,0 c 0,-1.657 -1.343,-3 -3,-3 -1.657,0 -3,1.343 -3,3 0,1.657 1.343,3 3,3 1.657,0 3,-1.343 3,-3"/></g><g transform="translate(9,12)" id="g32"><path id="path34" style="fill:#be1931;fill-opacity:1;fill-rule:nonzero;stroke:none" d="m 0,0 c 0,-1.657 -1.343,-3 -3,-3 -1.657,0 -3,1.343 -3,3 l 0,19 c 0,1.657 1.343,3 3,3 1.657,0 3,-1.343 3,-3 L 0,0 Z"/></g></g></g></g></svg>
