<?xml version="1.0" encoding="utf-8"?>
<!-- Generator: Adobe Illustrator 25.2.3, SVG Export Plug-In . SVG Version: 6.00 Build 0)  -->
<svg version="1.1" id="Layer_1" xmlns="http://www.w3.org/2000/svg" xmlns:xlink="http://www.w3.org/1999/xlink" x="0px" y="0px"
	 viewBox="0 0 128 128" style="enable-background:new 0 0 128 128;" xml:space="preserve">
<g>
	<path style="fill:#427687;" d="M116.46,3.96h-104c-4.42,0-8,3.58-8,8v104c0,4.42,3.58,8,8,8h104c4.42,0,8-3.58,8-8v-104
		C124.46,7.54,120.88,3.96,116.46,3.96z"/>
	<path style="fill:#8CAFBF;" d="M110.16,3.96h-98.2c-4.13,0.03-7.47,3.37-7.5,7.5v97.9c-0.01,4.14,3.34,7.49,7.48,7.5
		c0.01,0,0.01,0,0.02,0h98.1c4.14,0.01,7.49-3.34,7.5-7.48c0-0.01,0-0.01,0-0.02v-97.9c0.09-4.05-3.13-7.41-7.18-7.5
		C110.31,3.96,110.23,3.96,110.16,3.96z"/>
	<path style="fill:#FFFFFF;" d="M67.76,108.96h-11.9c-1.32-0.02-2.38-1.08-2.4-2.4v-56.8c0.02-1.32,1.08-2.38,2.4-2.4h11.8
		c1.32,0.02,2.38,1.08,2.4,2.4v56.8C70.09,107.86,69.06,108.93,67.76,108.96C67.76,108.96,67.76,108.96,67.76,108.96z"/>
	<circle style="fill:#FFFFFF;" cx="61.76" cy="29.66" r="10.7"/>
</g>
<path style="opacity:0.5;fill:#B4E1ED;enable-background:new    ;" d="M40.16,12.86c0-2.3-1.6-3-10.8-2.7c-7.7,0.3-11.5,1.2-13.8,4
	s-2.9,8.5-3,15.3c0,4.8,0,9.3,2.5,9.3c3.4,0,3.4-7.9,6.2-12.3C26.66,17.76,40.16,15.86,40.16,12.86z"/>
</svg>
