<?xml version="1.0" encoding="utf-8"?>
<!-- Generator: Adobe Illustrator 25.2.3, SVG Export Plug-In . SVG Version: 6.00 Build 0)  -->
<svg version="1.1" id="Layer_1" xmlns="http://www.w3.org/2000/svg" xmlns:xlink="http://www.w3.org/1999/xlink" x="0px" y="0px"
	 viewBox="0 0 128 128" style="enable-background:new 0 0 128 128;" xml:space="preserve">
<g>
	<g>
		<path style="fill:#427687;" d="M116,4H12c-4.4,0-8,3.6-8,8v104c0,4.4,3.6,8,8,8h104c4.4,0,8-3.6,8-8V12C124,7.6,120.4,4,116,4z"/>
	</g>
	<g>
		<g>
			<path style="fill:#8CAFBF;" d="M109.7,4H11.5C7.4,4,4,7.4,4,11.5v97.9c0,4.2,3.4,7.5,7.5,7.5h98.1c4.2,0,7.5-3.4,7.5-7.5V11.5
				C117.3,7.4,113.8,4,109.7,4z"/>
		</g>
	</g>
</g>
<path style="opacity:0.3;fill:#FFFFFF;enable-background:new    ;" d="M39.7,12.9c0-2.3-1.6-3-10.8-2.7c-7.7,0.3-11.5,1.2-13.8,4
	s-2.9,8.5-3,15.3c0,4.8,0,9.3,2.5,9.3c3.4,0,3.4-7.9,6.2-12.3C26.2,17.8,39.7,15.9,39.7,12.9z"/>
<path style="fill:#FAFAFA;" d="M84,22H52c-2.2,0-4,1.8-4,4v8c0,2.2,1.8,4,4,4h32c6.5,0,12,7.3,12,16s-5.5,16-12,16H50
	c-1.1,0-2-0.9-2-2V54c0-3.4-4-5.3-6.6-3l-24,24c-1.8,1.6-1.8,4.4,0,6l24,24c2.6,2.3,6.6,0.4,6.6-3V88c0-1.1,0.9-2,2-2h34
	c15.5,0,28-14.3,28-32S99.5,22,84,22z"/>
</svg>
