<?xml version="1.0" encoding="utf-8"?>
<!-- Generator: Adobe Illustrator 25.2.3, SVG Export Plug-In . SVG Version: 6.00 Build 0)  -->
<svg version="1.1" id="Layer_1" xmlns="http://www.w3.org/2000/svg" xmlns:xlink="http://www.w3.org/1999/xlink" x="0px" y="0px"
	 viewBox="0 0 128 128" style="enable-background:new 0 0 128 128;" xml:space="preserve">
<path style="fill:#F77E00;" d="M116.46,4.14h-104c-4.42,0-8,3.58-8,8v104c0,4.42,3.58,8,8,8h104c4.42,0,8-3.58,8-8v-104
	C124.46,7.72,120.88,4.14,116.46,4.14z"/>
<path style="fill:#FF9800;" d="M110.16,4.14h-98.2c-4.13,0.03-7.47,3.37-7.5,7.5v97.9c-0.01,4.14,3.34,7.49,7.48,7.5
	c0.01,0,0.01,0,0.02,0h98.1c4.14,0.01,7.49-3.34,7.5-7.48c0-0.01,0-0.01,0-0.02v-97.9c0.09-4.05-3.13-7.41-7.18-7.5
	C110.31,4.14,110.23,4.14,110.16,4.14z"/>
<path style="opacity:0.75;fill:#FFBD52;enable-background:new    ;" d="M40.16,13.04c0-2.3-1.6-3-10.8-2.7c-7.7,0.3-11.5,1.2-13.8,4
	s-2.9,8.5-3,15.3c0,4.8,0,9.3,2.5,9.3c3.4,0,3.4-7.9,6.2-12.3C26.66,17.94,40.16,16.04,40.16,13.04z"/>
<path style="fill:#FAFAFA;" d="M107.46,62.14l-39.9-25.7c-0.98-0.58-2.24-0.26-2.82,0.72c-0.23,0.39-0.33,0.84-0.28,1.28v22.3
	l-37-24.3c-1.4-0.9-3,0.2-3,2v51.4c0,1.8,1.7,2.9,3,2l37-24.4v22.3c-0.13,1.13,0.69,2.15,1.82,2.28c0.45,0.05,0.9-0.05,1.28-0.28
	l39.9-25.6c1.1-0.76,1.38-2.28,0.62-3.38C107.91,62.51,107.7,62.3,107.46,62.14z"/>
<path style="opacity:0.2;fill:#FFFFFF;enable-background:new    ;" d="M107.36,66.14l-39.8,25.7c-0.35,0.24-0.78,0.34-1.2,0.3
	c-0.14,0.01-0.28-0.02-0.4-0.1c-0.1,0-0.2-0.1-0.4-0.2c-0.24-0.11-0.45-0.28-0.6-0.5c-0.12-0.1-0.2-0.24-0.2-0.4
	c-0.2-0.33-0.31-0.71-0.3-1.1v-22.4l-3,2l-34,22.4c-0.35,0.24-0.78,0.34-1.2,0.3c-0.14,0.01-0.28-0.02-0.4-0.1
	c-0.1,0-0.2-0.1-0.4-0.2c-0.7-0.46-1.12-1.26-1.1-2.1v-51.3c-0.08-1,0.54-1.91,1.5-2.2c0.1,0,0.2-0.1,0.4-0.1
	c0.42-0.04,0.85,0.06,1.2,0.3l34,22.4l3,2v-22.4c0-0.42,0.11-0.83,0.3-1.2c0.1-0.1,0.1-0.2,0.2-0.4c0.17-0.2,0.38-0.36,0.6-0.5
	c0.1-0.1,0.2-0.1,0.4-0.2s0.3-0.1,0.4-0.1c0.42-0.04,0.85,0.06,1.2,0.3l39.8,25.8c1.1,0.76,1.38,2.28,0.62,3.38
	C107.81,65.76,107.6,65.97,107.36,66.14z"/>
</svg>
