<?xml version="1.0" encoding="utf-8"?>
<!-- Generator: Adobe Illustrator 25.2.3, SVG Export Plug-In . SVG Version: 6.00 Build 0)  -->
<svg version="1.1" id="Layer_1" xmlns="http://www.w3.org/2000/svg" xmlns:xlink="http://www.w3.org/1999/xlink" x="0px" y="0px"
	 viewBox="0 0 128 128" style="enable-background:new 0 0 128 128;" xml:space="preserve">
<g>
	<path style="fill:#F77E00;" d="M116.46,4h-104c-4.42,0-8,3.58-8,8v104c0,4.42,3.58,8,8,8h104c4.42,0,8-3.58,8-8V12
		C124.46,7.58,120.88,4,116.46,4z"/>
	<path style="fill:#FF9800;" d="M110.16,4h-98.2c-4.13,0.03-7.47,3.37-7.5,7.5v97.9c-0.01,4.14,3.34,7.49,7.48,7.5
		c0.01,0,0.01,0,0.02,0h98.1c4.14,0.01,7.49-3.34,7.5-7.48c0-0.01,0-0.01,0-0.02V11.5c0.09-4.05-3.13-7.41-7.18-7.5
		C110.31,4,110.23,4,110.16,4z"/>
	<path style="opacity:0.75;fill:#FFBD52;enable-background:new    ;" d="M40.16,12.9c0-2.3-1.6-3-10.8-2.7c-7.7,0.3-11.5,1.2-13.8,4
		s-2.9,8.5-3,15.3c0,4.8,0,9.3,2.5,9.3c3.4,0,3.4-7.9,6.2-12.3C26.66,17.8,40.16,15.9,40.16,12.9z"/>
	<path style="fill:#FAFAFA;" d="M67.76,66h22.3c1.13,0.13,2.15-0.69,2.28-1.82c0.05-0.45-0.05-0.9-0.28-1.28L66.46,23
		c-0.76-1.1-2.28-1.38-3.38-0.62c-0.24,0.17-0.45,0.38-0.62,0.62l-25.7,39.9c-0.58,0.98-0.26,2.24,0.72,2.82
		c0.39,0.23,0.84,0.33,1.28,0.28h22.3l-24.4,37c-0.9,1.4,0.2,3,2,3h51.5c1.8,0,2.9-1.7,2-3L67.76,66z"/>
</g>
</svg>
