<?xml version="1.0" encoding="utf-8"?>
<!-- Generator: Adobe Illustrator 25.2.3, SVG Export Plug-In . SVG Version: 6.00 Build 0)  -->
<svg version="1.1" id="Layer_2" xmlns="http://www.w3.org/2000/svg" xmlns:xlink="http://www.w3.org/1999/xlink" x="0px" y="0px"
	 viewBox="0 0 128 128" style="enable-background:new 0 0 128 128;" xml:space="preserve">
<g>
	<g>
		<g>
			<path style="fill:#82AEC0;" d="M32.04,123.67L32.04,123.67c-1.39-0.7-2.06-2.32-1.55-3.8l4.02-11.77l7.87,5.31l-6.36,9.24
				C35.14,123.93,33.44,124.37,32.04,123.67z"/>
		</g>
		<g>
			<path style="fill:#82AEC0;" d="M95.36,123.67L95.36,123.67c1.39-0.7,2.06-2.32,1.55-3.8l-4.07-11.91l-8.29,4.77l6.83,9.92
				C92.26,123.93,93.96,124.37,95.36,123.67z"/>
		</g>
		<path style="fill:#2F7889;" d="M34.51,108.1l-2.05,6c1.27-0.73,2.93-0.66,4.25-0.01c1.32,0.65,2.33,1.79,3.1,3.05l2.33-3.38
			C42.14,113.62,34.51,108.1,34.51,108.1z"/>
		<path style="fill:#2F7889;" d="M92.87,107.95l2.22,6.6c-1.27-0.73-2.79-0.71-4.12-0.06c-1.32,0.65-2.33,1.79-3.1,3.05l-3.05-4.43
			L92.87,107.95z"/>
	</g>
	<circle style="fill:#FFEFA1;" cx="63.7" cy="73.93" r="42.01"/>
	<circle style="fill:#CC2929;" cx="63.7" cy="70.22" r="49.36"/>
	<g>
		<circle style="fill:#FF4638;" cx="63.7" cy="72.7" r="46.4"/>
	</g>
	<g>
		<g>
			<circle style="fill:#FAFAFA;" cx="63.7" cy="72.7" r="40.03"/>
		</g>
		<circle style="fill:#563428;" cx="64" cy="72.7" r="4.45"/>
		<g>
			<g>
				<g>
					<g>
						<path style="fill:#B2947C;" d="M63.7,42.57L63.7,42.57c-0.81,0-1.47-0.66-1.47-1.47v-4.4c0-0.81,0.66-1.47,1.47-1.47h0
							c0.81,0,1.47,0.66,1.47,1.47v4.4C65.17,41.91,64.51,42.57,63.7,42.57z"/>
					</g>
					<g>
						<path style="fill:#B2947C;" d="M63.7,110.16L63.7,110.16c-0.81,0-1.47-0.66-1.47-1.47v-4.4c0-0.81,0.66-1.47,1.47-1.47h0
							c0.81,0,1.47,0.66,1.47,1.47v4.4C65.17,109.5,64.51,110.16,63.7,110.16z"/>
					</g>
				</g>
				<g>
					<g>
						<path style="fill:#B2947C;" d="M99.69,74.16h-4.4c-0.81,0-1.47-0.66-1.47-1.47l0,0c0-0.81,0.66-1.47,1.47-1.47h4.4
							c0.81,0,1.47,0.66,1.47,1.47l0,0C101.16,73.51,100.5,74.16,99.69,74.16z"/>
					</g>
					<g>
						<path style="fill:#B2947C;" d="M32.11,74.16h-4.4c-0.81,0-1.47-0.66-1.47-1.47l0,0c0-0.81,0.66-1.47,1.47-1.47h4.4
							c0.81,0,1.47,0.66,1.47,1.47l0,0C33.58,73.51,32.92,74.16,32.11,74.16z"/>
					</g>
				</g>
				<g>
					<g>
						<path style="fill:#B2947C;" d="M63.7,42.57L63.7,42.57c-0.81,0-1.47-0.66-1.47-1.47v-4.4c0-0.81,0.66-1.47,1.47-1.47h0
							c0.81,0,1.47,0.66,1.47,1.47v4.4C65.17,41.91,64.51,42.57,63.7,42.57z"/>
					</g>
					<g>
						<path style="fill:#B2947C;" d="M63.7,110.16L63.7,110.16c-0.81,0-1.47-0.66-1.47-1.47v-4.4c0-0.81,0.66-1.47,1.47-1.47h0
							c0.81,0,1.47,0.66,1.47,1.47v4.4C65.17,109.5,64.51,110.16,63.7,110.16z"/>
					</g>
				</g>
				<g>
					<g>
						<path style="fill:#B2947C;" d="M46.63,46.07l-2.2-3.81c-0.41-0.7-0.17-1.6,0.54-2.01l0,0c0.7-0.41,1.6-0.17,2.01,0.54
							l2.2,3.81c0.41,0.7,0.17,1.6-0.54,2.01l0,0C47.94,47.01,47.04,46.77,46.63,46.07z"/>
					</g>
					<g>
						<path style="fill:#B2947C;" d="M80.43,104.6l-2.2-3.81c-0.41-0.7-0.16-1.6,0.54-2.01l0,0c0.7-0.41,1.6-0.16,2.01,0.54
							l2.2,3.81c0.41,0.7,0.16,1.6-0.54,2.01l0,0C81.73,105.54,80.83,105.3,80.43,104.6z"/>
					</g>
				</g>
				<g>
					<g>
						<path style="fill:#B2947C;" d="M46.63,46.07l-2.2-3.81c-0.41-0.7-0.17-1.6,0.54-2.01l0,0c0.7-0.41,1.6-0.17,2.01,0.54
							l2.2,3.81c0.41,0.7,0.17,1.6-0.54,2.01l0,0C47.94,47.01,47.04,46.77,46.63,46.07z"/>
					</g>
					<g>
						<path style="fill:#B2947C;" d="M80.43,104.6l-2.2-3.81c-0.41-0.7-0.16-1.6,0.54-2.01l0,0c0.7-0.41,1.6-0.16,2.01,0.54
							l2.2,3.81c0.41,0.7,0.16,1.6-0.54,2.01l0,0C81.73,105.54,80.83,105.3,80.43,104.6z"/>
					</g>
				</g>
				<g>
					<g>
						<path style="fill:#B2947C;" d="M35.61,58.17l-3.81-2.2c-0.7-0.41-0.94-1.3-0.54-2.01l0,0c0.41-0.7,1.3-0.94,2.01-0.54
							l3.81,2.2c0.7,0.41,0.94,1.3,0.54,2.01l0,0C37.21,58.34,36.31,58.58,35.61,58.17z"/>
					</g>
					<g>
						<path style="fill:#B2947C;" d="M94.14,91.96l-3.81-2.2c-0.7-0.41-0.94-1.3-0.54-2.01l0,0c0.41-0.7,1.3-0.94,2.01-0.54
							l3.81,2.2c0.7,0.41,0.94,1.3,0.54,2.01l0,0C95.74,92.13,94.84,92.37,94.14,91.96z"/>
					</g>
				</g>
				<g>
					<g>
						<path style="fill:#B2947C;" d="M78.76,46.61L78.76,46.61c-0.7-0.41-0.94-1.3-0.54-2.01l2.2-3.81c0.41-0.7,1.3-0.94,2.01-0.54
							l0,0c0.7,0.41,0.94,1.3,0.54,2.01l-2.2,3.81C80.36,46.77,79.47,47.01,78.76,46.61z"/>
					</g>
					<g>
						<path style="fill:#B2947C;" d="M44.97,105.14L44.97,105.14c-0.7-0.41-0.94-1.3-0.54-2.01l2.2-3.81
							c0.41-0.7,1.3-0.94,2.01-0.54l0,0c0.7,0.41,0.94,1.3,0.54,2.01l-2.2,3.81C46.57,105.3,45.67,105.54,44.97,105.14z"/>
					</g>
				</g>
				<g>
					<g>
						<path style="fill:#B2947C;" d="M89.79,57.63L89.79,57.63c-0.41-0.7-0.17-1.6,0.54-2.01l3.81-2.2c0.7-0.41,1.6-0.16,2.01,0.54
							l0,0c0.41,0.7,0.16,1.6-0.54,2.01l-3.81,2.2C91.09,58.58,90.19,58.34,89.79,57.63z"/>
					</g>
					<g>
						<path style="fill:#B2947C;" d="M31.26,91.43L31.26,91.43c-0.41-0.7-0.16-1.6,0.54-2.01l3.81-2.2c0.7-0.41,1.6-0.16,2.01,0.54
							l0,0c0.41,0.7,0.16,1.6-0.54,2.01l-3.81,2.2C32.56,92.37,31.66,92.13,31.26,91.43z"/>
					</g>
				</g>
			</g>
		</g>
		
			<line style="fill:none;stroke:#563428;stroke-width:5;stroke-linecap:round;stroke-miterlimit:10;" x1="47.49" y1="63.49" x2="63.7" y2="72.7"/>
		
			<line style="fill:none;stroke:#563428;stroke-width:3.5;stroke-linecap:round;stroke-miterlimit:10;" x1="86.87" y1="59.41" x2="64.44" y2="72.7"/>
	</g>
	<path style="fill:none;stroke:#82AEC0;stroke-width:4.9418;stroke-miterlimit:10;" d="M40.76,30.57"/>
	<path style="fill:none;stroke:#82AEC0;stroke-width:4.9418;stroke-miterlimit:10;" d="M25.15,4"/>
	<g>
		<g>
			<g>
				<polygon style="fill:#82AEC0;" points="91.99,32.49 87.85,29.78 101.94,4.82 106.24,7.25 				"/>
			</g>
			<path style="fill:#CC2929;" d="M111.17,35.21c1.23,0.36,2.55-0.32,2.93-1.54c3.24-10.35-0.96-21.61-11.12-26.84
				c-10.23-5.27-21.34-1.81-27.81,7.02c-0.73,0.99-0.56,2.38,0.36,3.19c2.09,1.85,6.73,5.33,15.98,10.01
				C101.28,31.99,107.98,34.27,111.17,35.21z"/>
			<g>
				<path style="fill:#82AEC0;" d="M105.85,10.3c0,0,2.61-3.33-1.18-5.44c-2.95-1.64-4.82,1.95-4.82,1.95
					C99.2,8,105.4,11.12,105.85,10.3z"/>
			</g>
		</g>
	</g>
	<g>
		<g>
			<g>
				<polygon style="fill:#82AEC0;" points="35.63,32.52 21.36,7.25 25.67,4.82 39.53,29.38 				"/>
			</g>
			<path style="fill:#CC2929;" d="M16.83,35.21c-1.23,0.36-2.55-0.32-2.93-1.54c-3.24-10.35,0.96-21.61,11.12-26.84
				c10.23-5.27,21.34-1.81,27.81,7.02c0.73,0.99,0.56,2.38-0.36,3.19c-2.09,1.85-6.73,5.33-15.98,10.01
				C26.72,31.99,20.02,34.27,16.83,35.21z"/>
			<g>
				<path style="fill:#82AEC0;" d="M22.15,10.3c0,0-2.61-3.33,1.18-5.44c2.95-1.64,4.82,1.95,4.82,1.95
					C28.8,8,22.6,11.12,22.15,10.3z"/>
			</g>
		</g>
	</g>
	<line style="fill:none;stroke:#82AEC0;stroke-width:3.7064;stroke-miterlimit:10;" x1="63.7" y1="23.22" x2="63.7" y2="9.5"/>
	<path style="fill:#82AEC0;" d="M63.76,14.38c-3.92,0-7.85-1.5-7.85-1.5V9.91c0,0,3.65-1.63,8.04-1.63s7.65,1.63,7.65,1.63l0,2.97
		C71.61,12.89,67.69,14.38,63.76,14.38z"/>
	<path style="fill:#94D1E0;" d="M56.9,9.79c-0.43,0.16-0.47,0.75-0.07,0.98c0.58,0.33,1.27,0.67,1.51,0.63
		c3.3-0.51,8.09-0.26,11.4,0.24c0.23,0.04,0.89-0.52,1.36-0.94c0.26-0.24,0.2-0.65-0.12-0.8c-1.04-0.47-3.39-1.31-7.03-1.31
		C60.59,8.59,58.16,9.3,56.9,9.79z"/>
	<g>
		<path style="fill:#FF4638;" d="M95.06,7.9c0.31,1.06-0.83,1.93-1.75,2.54c-2.31,1.54-4.19,3.72-5.4,6.22
			c-0.58,1.2-1.23,2.67-2.56,2.86c-0.53,0.07-1.05-0.09-1.55-0.27c-0.77-0.28-1.52-0.6-2.25-0.97c-0.87-0.44-1.76-1-2.16-1.89
			c-0.52-1.17-0.03-2.55,0.67-3.63c1.67-2.55,4.39-4.13,7.19-5.17C88.94,6.96,94.22,5.03,95.06,7.9z"/>
	</g>
	<g>
		<path style="fill:#FF4638;" d="M26.13,16.33c0.65,1.35,1.38,2.66,2.19,3.92c0.99,1.54,2.14,3.26,1.72,5.04
			c-0.49,2.04-2.75,3.02-4.74,3.7c-1.02,0.35-2.03,0.7-3.05,1.05c-0.54,0.19-1.11,0.38-1.68,0.35c-0.9-0.04-1.71-0.61-2.22-1.34
			c-0.52-0.73-0.78-1.61-0.98-2.48c-0.75-3.35-0.6-6.9,0.43-10.18c0.6-1.88,1.54-3.86,3.67-4.01C24.06,12.2,25.16,14.31,26.13,16.33
			z"/>
	</g>
</g>
</svg>
