<?xml version="1.0" encoding="utf-8"?>
<!-- Generator: Adobe Illustrator 25.2.3, SVG Export Plug-In . SVG Version: 6.00 Build 0)  -->
<svg version="1.1" id="Layer_2" xmlns="http://www.w3.org/2000/svg" xmlns:xlink="http://www.w3.org/1999/xlink" x="0px" y="0px"
	 viewBox="0 0 128 128" style="enable-background:new 0 0 128 128;" xml:space="preserve">
<g>
	<g>
		<path style="fill:#8B5738;" d="M23.36,116.32v-7.42c7.4-1.9,67.86,0,81.28,0v7.42c0,4.24-18.2,7.68-40.64,7.68
			S23.36,120.56,23.36,116.32z"/>
		<ellipse style="fill:#FFB17A;" cx="64" cy="108.48" rx="40.64" ry="7.68"/>
		<ellipse style="fill:#CC8552;" cx="64" cy="108.48" rx="40.64" ry="7.68"/>
		<path style="opacity:0.75;fill:#81D4FA;" d="M69.96,65.49c-0.75-0.31-1.07-0.92-1.07-1.73c0-0.81,0.25-1.39,0.98-1.64
			c4.61-1.86,27.77-10.73,27.77-38.36l-0.18-4.82l-66.98-0.08l-0.12,5.07c0,26.79,23.08,36.25,27.68,38.11
			c0.75,0.31,1.22,0.82,1.22,1.73c0,0.91-0.39,1.39-1.13,1.64c-4.61,1.86-27.77,10.73-27.77,38.36l0,0c0.12,3.12,2.3,5.78,5.34,6.5
			c5.04,1.19,14.38,2.57,30.53,2.57c13.91,0,21.7-1.01,26.03-2.03c3.08-0.73,5.29-3.44,5.36-6.6l0.01-0.61
			C97.64,76.81,74.57,67.35,69.96,65.49z"/>
		<path style="opacity:0.39;fill:#1D44B3;" d="M97.46,18.94l-66.98-0.08l-0.11,4.52c0,0,7.25,3.72,33.63,3.72s33.63-3.72,33.63-3.72
			L97.46,18.94z"/>
		<path style="fill:#8B5738;" d="M23.36,17.94v-7.87c7.18-0.96,70.91,0,81.28,0v7.87c0,3.36-18.2,6.08-40.64,6.08
			S23.36,21.3,23.36,17.94z"/>
		<ellipse style="fill:#CC8552;" cx="64" cy="10.08" rx="40.64" ry="6.08"/>
	</g>
	<g>
		<g>
			<path style="fill:#FFCA28;" d="M90.59,108.57c0.92-0.27,1.42-1.31,0.97-2.16c-3.14-5.94-16.54-6.11-21.61-17.27
				c-3.38-7.45-3.57-17.81-3.67-22.24c-0.14-5.99,2.85-7.28,2.85-7.28C83.29,53.92,93.7,40.76,94.3,29.01
				c0.06-1.17-22.18,9.17-29.83,10.66c-14.14,2.76-28.23-0.87-28.31-0.37c5.24,11.47,15.79,17.46,22.86,20.32
				c1.68,0.69,4.46,3.3,4.37,11.14c-0.07,5.61-0.77,20.4-10.44,26.69c-3.64,2.37-11.69,5.84-13.19,9.61
				c-0.33,0.83,0.14,1.77,1.01,1.99c2.76,0.7,11.18,1.93,24.27,1.93C75.33,110.99,85.49,110.05,90.59,108.57z"/>
		</g>
		<path style="fill:#E2A610;" d="M42.37,43.29c5.36,2.77,17.12,6.72,22.92,4.72s28.23-16.01,29-19c0.96-3.7-26,5.71-35.49,7.91
			c-6.43,1.49-18.71,0.72-21.47,1.3C34.58,38.79,37.44,40.74,42.37,43.29z"/>
	</g>
	<g style="opacity:0.6;">
		<path style="fill:#FFFFFF;" d="M45.79,37.66c1.26,2.94,3.56,9.61,0.56,10.75c-3,1.15-7.39-3.11-9.47-7.39s-1.89-9.96,1.25-10.05
			C41.27,30.88,44.12,33.77,45.79,37.66z"/>
	</g>
	<g style="opacity:0.6;">
		<path style="fill:#FFFFFF;" d="M42.9,80.6c-3.13,3.66-5.48,8.58-4.59,13.33c0.94,5.01,5.6,3.63,7.22,2.36
			c5.16-4.05,3.75-9.24,7.74-15.07c0.68-1,3.52-4.13,3.12-6.1c-0.24-1.17-2.96-1.77-7.91,0.71C46.3,76.93,44.51,78.73,42.9,80.6z"/>
	</g>
</g>
</svg>
