<?xml version="1.0" encoding="utf-8"?>
<!-- Generator: Adobe Illustrator 25.2.3, SVG Export Plug-In . SVG Version: 6.00 Build 0)  -->
<svg version="1.1" id="Layer_1" xmlns="http://www.w3.org/2000/svg" xmlns:xlink="http://www.w3.org/1999/xlink" x="0px" y="0px"
	 viewBox="0 0 128 128" style="enable-background:new 0 0 128 128;" xml:space="preserve">
<g>
	<path style="fill:#BDBDBD;" d="M50.66,48.05h26c1.6,0,2.9,1.3,2.9,2.9v0v26c0,1.6-1.3,2.9-2.9,2.9l0,0h-26c-1.6,0-2.9-1.3-2.9-2.9
		l0,0v-25.9c-0.08-1.58,1.14-2.92,2.72-3C50.54,48.05,50.6,48.05,50.66,48.05z"/>
	<path style="fill:#E0E0E0;" d="M50.66,48.05h21.4c1.6,0,2.9,1.3,2.9,2.9v0v21.4c0,1.6-1.3,2.9-2.9,2.9l0,0h-21.4
		c-1.6,0-2.9-1.3-2.9-2.9l0,0v-21.3c-0.08-1.58,1.14-2.92,2.72-3C50.54,48.05,50.6,48.05,50.66,48.05z"/>
	<path style="fill:#FFFFFF;" d="M56.86,51.05c0-0.6-0.4-0.8-2.9-0.7c-2.1,0.1-3.1,0.3-3.7,1.1s-0.8,2.3-0.8,4.2c0,1.3,0,2.5,0.7,2.5
		c0.9,0,0.9-2.1,1.7-3.3C53.26,52.45,56.86,51.85,56.86,51.05z"/>
</g>
</svg>
