<?xml version="1.0"?>
<svg xmlns="http://www.w3.org/2000/svg" viewBox="-2 -2 40 40" style="background: black;"><defs>
    <filter width="200%" height="200%" x="-50%" y="-50%" id="dilate">
        <feGaussianBlur in="SourceGraphic" stdDeviation="1"/>
        <feComponentTransfer>
            <feFuncA type="table" tableValues="0 0 0 0 0 0 0 0 0 0 0 0 0 0 0 0 0 0 0 0 0 0 0 0 0 0 0 0 0 0 0 0 0 0 0 0 0 1 1 1 1 1 1 1 1 1 1 1 1 1 1 1 1 1 1 1 1 1 1 1 1 1 1 1 1 1 1 1 1 1 1"/>
        </feComponentTransfer>
    </filter>
</defs>
<g filter="url(#dilate)"><path d="M33 30c0 1.657-1.343 3-3 3H6c-1.657 0-3-1.343-3-3V6c0-1.657 1.343-3 3-3h24c1.657 0 3 1.343 3 3v24z" stroke="white" style="stroke-width: calc(0px + 4px)"/></g><path fill="#31373D" d="M33 30c0 1.657-1.343 3-3 3H6c-1.657 0-3-1.343-3-3V6c0-1.657 1.343-3 3-3h24c1.657 0 3 1.343 3 3v24z"/></svg>
