<?xml version="1.0" encoding="utf-8"?>
<!-- Generator: Adobe Illustrator 25.2.3, SVG Export Plug-In . SVG Version: 6.00 Build 0)  -->
<svg version="1.1" id="Layer_3" xmlns="http://www.w3.org/2000/svg" xmlns:xlink="http://www.w3.org/1999/xlink" x="0px" y="0px"
	 viewBox="0 0 128 128" style="enable-background:new 0 0 128 128;" xml:space="preserve">
<g>
	<g>
		<g>
			<path style="fill:#C62828;" d="M120.44,34.72C115.11,28.18,96.41,16.23,64,16.23S12.89,28.18,7.56,34.72S1.97,48.87,2.23,54.28
				c0.01,0.3,0.06,0.75,0.15,1.27c0.63,3.61,1.72,6.2,16.52,6.2c15.79,0,17.54-3.89,17.64-6.74c0.16-4.64,0.71-10.79,2.8-12.09
				c2.47-1.52,4.58-6.93,24.67-7.24c20.09,0.32,22.2,5.72,24.67,7.24c2.1,1.3,2.64,7.44,2.8,12.09c0.1,2.85,1.85,6.74,17.64,6.74
				c14.79,0,15.89-2.6,16.52-6.2c0.09-0.52,0.13-0.97,0.15-1.27C126.03,48.87,125.78,41.27,120.44,34.72z"/>
			<g>
				<path style="fill:#912221;" d="M109.11,65.76c-9.45,0-20.34-1.1-20.63-9.64c-0.06-1.66,1.24-3.05,2.89-3.1
					c1.64-0.06,3.04,1.24,3.1,2.89c0.04,1.16,1.55,3.85,14.64,3.85c15.53,0,16.73-6.08,16.73-6.08
					C126.83,56.12,129.12,64.89,109.11,65.76z"/>
			</g>
			<g>
				<path style="fill:#912221;" d="M18.88,64.76c9.45,0,20.34-1.1,20.63-9.64c0.06-1.66-1.24-3.05-2.89-3.1
					c-1.64-0.06-3.04,1.24-3.1,2.89c-0.04,1.16-1.55,3.85-14.64,3.85c-15.53,0-16.73-6.08-16.73-6.08
					C1.19,54.9-1.13,63.89,18.88,64.76z"/>
			</g>
			<path style="fill:#912221;" d="M98.04,30.12c-5.26-2.18-15.79-5.14-34.04-5.14s-28.77,2.96-34.04,5.14
				c-1.73,0.71-1.89,3.07-0.29,4.04c2.99,1.82,6.71,5.29,7.67,11.62c0.03,0.21,0.09,0.4,0.15,0.59c0.42-1.64,1-2.92,1.83-3.43
				c2.47-1.52,4.58-6.93,24.67-7.24c20.09,0.32,22.2,5.72,24.67,7.24c0.83,0.51,1.41,1.79,1.83,3.43c0.06-0.19,0.12-0.38,0.15-0.59
				c0.96-6.32,4.68-9.8,7.67-11.62C99.92,33.19,99.77,30.83,98.04,30.12z"/>
			<g>
				<path style="fill:#F44336;" d="M119.54,46.36c-2.05-5.01-3.8-7.1-9.62-9.4c-2.1-0.83-3.36-2.37-2.84-3.65
					c0.52-1.28,1.88-1.73,4.05-1.16c6.09,1.58,10.73,7.29,10.74,13.99C121.86,49.26,120.34,48.31,119.54,46.36z"/>
			</g>
			<g>
				<path style="fill:#F44336;" d="M10.41,36.32c0.38,1.27,2.86,0.21,5.87-0.03c4.17-0.33,5.4,0.97,7.25,2.91
					c1.55,1.63,3.77,1.66,4.59,0.55c0.83-1.11,0.34-2.34-1.09-4.07c-1.06-1.29-5.63-4.36-12.38-2.54
					C13.12,33.57,10.01,34.98,10.41,36.32z"/>
			</g>
		</g>
		<path style="fill:#C62828;" d="M18.89,95.61v21.29c0,3.92,3.38,7.1,7.54,7.1h75.14c4.16,0,7.54-3.18,7.54-7.1l0-21.78L18.89,95.61
			z"/>
		<path style="fill:#FF4638;" d="M108.89,92.03c0,0-7.81-36.32-9.07-42.74s-3.45-8.31-7.15-8.37c-2.49-0.04-5.12-1.75-5.56-4.82
			c-0.44-3.03-0.54-4.81-0.72-6.15c-0.18-1.34-0.13-3.3-2.05-3.3h-3.81c-1.7,0-1.84,0.33-2.12,2.73c-0.28,2.41-0.66,7.05-1.6,9.37
			c-0.81,1.99-2.95,2.17-4.17,2.17H55.35c-1.21,0-3.36-0.18-4.17-2.17c-0.94-2.32-1.33-6.97-1.6-9.37
			c-0.28-2.41-0.42-2.73-2.12-2.73h-3.81c-1.91,0-1.86,1.96-2.05,3.3c-0.18,1.34-0.28,3.12-0.72,6.15
			c-0.45,3.07-3.07,4.78-5.56,4.82c-3.7,0.06-5.89,1.95-7.15,8.37s-9.07,42.74-9.07,42.74c-1.05,7.07,1.4,10.03,14.08,10.03h61.62
			C107.5,102.06,109.95,99.1,108.89,92.03z"/>
		<g>
			<path style="fill:#4E342E;" d="M88.5,58.82l-3.72-6.07l-8.24-1.42l-3,1.79c-0.7,0.42-1.57,0.39-2.25-0.05l-1.55-1.02l-11.41,0.09
				l-1.19,0.86c-0.69,0.5-1.62,0.53-2.34,0.09l-2.74-1.68L39.5,58.82l-4.47,25.5l0.21,4.61c0.04,0.94,0.82,1.68,1.76,1.68h54.01
				c0.94,0,1.72-0.74,1.76-1.68l0.21-4.61L88.5,58.82z"/>
			<g>
				<path style="fill:#F5F5F5;" d="M78.64,72.46h10.31c0.97,0,1.71-0.88,1.54-1.83l-0.95-5.45c-0.13-0.75-0.78-1.29-1.54-1.29h-10
					c-0.94,0-1.66,0.82-1.55,1.75l0.65,5.45C77.18,71.87,77.85,72.46,78.64,72.46z"/>
				<path style="fill:#F5F5F5;" d="M59.39,60.4h9.35c0.89,0,1.61-0.75,1.56-1.64l-0.31-5.95c-0.04-0.83-0.73-1.48-1.56-1.48H59.7
					c-0.83,0-1.52,0.65-1.56,1.48l-0.31,5.95C57.78,59.65,58.5,60.4,59.39,60.4z"/>
				<path style="fill:#F5F5F5;" d="M69.75,76.97H58.38c-0.83,0-1.52,0.65-1.56,1.48l-0.28,5.45c-0.05,0.89,0.67,1.64,1.56,1.64
					h11.93c0.89,0,1.61-0.75,1.56-1.64l-0.28-5.45C71.27,77.62,70.58,76.97,69.75,76.97z"/>
				<path style="fill:#F5F5F5;" d="M58.79,72.46h10.54c0.89,0,1.61-0.75,1.56-1.64l-0.28-5.45c-0.04-0.83-0.73-1.48-1.56-1.48h-9.98
					c-0.83,0-1.52,0.65-1.56,1.48l-0.28,5.45C57.19,71.71,57.9,72.46,58.79,72.46z"/>
				<path style="fill:#F5F5F5;" d="M48.51,76.97H37.63c-0.76,0-1.41,0.55-1.54,1.29l-0.95,5.45c-0.17,0.96,0.57,1.83,1.54,1.83
					h11.19c0.79,0,1.46-0.59,1.55-1.38l0.65-5.45C50.17,77.79,49.45,76.97,48.51,76.97z"/>
				<path style="fill:#F5F5F5;" d="M39.05,72.46h10.43c0.79,0,1.46-0.59,1.55-1.38l0.65-5.45c0.11-0.93-0.61-1.75-1.55-1.75H40.01
					c-0.76,0-1.41,0.55-1.54,1.29l-0.95,5.45C37.34,71.58,38.08,72.46,39.05,72.46z"/>
				<path style="fill:#F5F5F5;" d="M77.26,60.4h9.66c0.97,0,1.71-0.88,1.54-1.83l-1.04-5.95c-0.13-0.75-0.78-1.29-1.54-1.29h-9.33
					c-0.94,0-1.66,0.82-1.55,1.75l0.71,5.95C75.8,59.81,76.47,60.4,77.26,60.4z"/>
				<path style="fill:#F5F5F5;" d="M52.42,59.02l0.71-5.95c0.11-0.93-0.61-1.75-1.55-1.75h-9.46c-0.76,0-1.41,0.55-1.54,1.29
					l-1.04,5.95c-0.17,0.96,0.57,1.83,1.54,1.83h9.79C51.66,60.4,52.33,59.81,52.42,59.02z"/>
				<path style="fill:#F5F5F5;" d="M78.06,78.72l0.65,5.45c0.09,0.79,0.76,1.38,1.55,1.38h11.06c0.97,0,1.71-0.88,1.54-1.83
					l-0.95-5.45c-0.13-0.75-0.78-1.29-1.54-1.29H79.61C78.68,76.97,77.95,77.79,78.06,78.72z"/>
			</g>
		</g>
	</g>
	<path style="fill:#424242;" d="M52.9,73.66"/>
</g>
</svg>
