<svg xmlns="http://www.w3.org/2000/svg" viewBox="0 0 64 64" enable-background="new 0 0 64 64"><path d="m32 12c-.5 0-.9.4-.9.9v4.7h1.9v-4.7c-.1-.5-.5-.9-1-.9" fill="#3e4347"/><path fill="#b8c2c4" d="m31.1 34.5h1.9v14.4h-1.9z"/><path d="m32 16.7v24.4c1.8-2.3 4.5-3.8 7.7-3.8s5.9 1.5 7.7 3.8c-1.5-13.8-7.7-24.4-15.4-24.4" fill="#ffbe5c"/><path d="m32 16.7v24.4c-1.8-2.3-4.5-3.8-7.7-3.8-3.1 0-5.9 1.5-7.7 3.8 1.5-13.8 7.7-24.4 15.4-24.4" fill="#ed77a8"/><path d="m32 16.7c7.7 0 13.9 10.6 15.4 24.4 1.8-2.3 4.5-3.8 7.7-3.8 2.7 0 5.2 1.1 7 2.9-3.1-13.4-15.4-23.5-30.1-23.5" fill="#c7e86f"/><path d="m32 16.7c-7.7 0-13.9 10.6-15.4 24.4-1.8-2.3-4.5-3.8-7.7-3.8-2.7 0-5.2 1.1-7 2.9 3.1-13.4 15.4-23.5 30.1-23.5" fill="#60d4e0"/><path d="m30.1 48.9v5.6c0 2.1-1.7 3.8-3.8 3.8-2.1 0-3.8-1.7-3.8-3.8 0-1-.8-1.9-1.9-1.9-1 0-1.9.8-1.9 1.9 0 4.1 3.4 7.5 7.5 7.5 4.1 0 7.5-3.4 7.5-7.5v-5.6h-3.6" fill="#3e4347"/><g fill="#75d6ff"><path d="m57.1 2c3.1 4.3 4.9 8.2 4.9 11.4 0 2.7-2.2 5-4.9 5-2.7 0-4.9-2.2-4.9-5 0-3.2 1.8-7.2 4.9-11.4"/><path d="m40.4 12.1c3.1 4.3 4.9 8.2 4.9 11.4 0 2.7-2.2 5-4.9 5-2.7 0-4.9-2.2-4.9-5-.1-3.2 1.8-7.2 4.9-11.4"/><path d="m23.6 2c3.1 4.3 4.9 8.2 4.9 11.4 0 2.7-2.2 5-4.9 5-2.7 0-4.9-2.2-4.9-5 0-3.2 1.9-7.2 4.9-11.4"/><path d="m6.9 12.1c3.1 4.3 4.9 8.2 4.9 11.4 0 2.7-2.2 5-4.9 5-2.7 0-4.9-2.2-4.9-5 0-3.2 1.8-7.2 4.9-11.4"/></g></svg>