<?xml version="1.0" encoding="utf-8"?>
<!-- Generator: Adobe Illustrator 26.3.1, SVG Export Plug-In . SVG Version: 6.00 Build 0)  -->
<svg version="1.1" id="emoji_x5F_u261d" xmlns="http://www.w3.org/2000/svg" xmlns:xlink="http://www.w3.org/1999/xlink" x="0px"
	 y="0px" viewBox="0 0 128 128" style="enable-background:new 0 0 128 128;" xml:space="preserve">
<path style="fill:#FFCA28;" d="M100.4,21.77c-1.34-9.14-0.88-17.74-9.36-17.74c-6.27,0-6.66,6.36-7.12,8.64
	c-0.24,1.19-0.96,17.94-1.59,33.74c-2.22-5.85-7.25-9.5-12.14-8.28c-4.57,1.13-7.87,5.82-7.8,13.83c0,0-3.74-10.39-13.56-6.39
	c-7.64,3.11-5.2,13.26-5.2,13.26s-5.12-3.76-11.4-0.17c-4.4,2.51-6.39,8.58-6.58,16.08c-0.28,11.5,2.43,23.14,8.74,32.89
	c10.3,15.91,24.64,16.79,33.86,16.13c9.22-0.66,32.09-2.9,33.03-32.45C101.48,85.15,101.38,28.49,100.4,21.77z"/>
<path style="fill:#FFB300;" d="M66.03,58.33c-0.12-0.14-0.24-0.28-0.35-0.42c-0.82,0.82-2.33,0.94-2.46,2.32
	c-1.45,5.42-8.4,7.95-12.99,4.73c0.42,0.54-0.38,1.14-0.9,1.58c-1.05,0.89-0.12,3.18-0.04,4.56c0.38,7.12-8.26,10.4-12.73,6.15
	c-0.35,16.07,16.82,19.27,27.23,26.45c1.34-5.24,3.95-10.74,8.1-14.33c1.57-1.2,3.43-2.55,4.24-4.36
	c-7.08,0.68-15.95,1.8-20.27-5.17c-0.69-2.6-0.92-5.48,0.85-7.92c5.59-4.03,15.9-3.39,22.7-6.07c4.51-0.15,2.34-12.42,0.45-8.94
	S70.89,63.78,66.03,58.33z"/>
<g>
	<path style="fill:#EDA600;" d="M68.2,69.16c-0.64-5.93-2.31-12.34-6.3-18.77c-3.98-6.42-8.7-5.74-8.7-5.74s4.27,2.27,6.47,7.47
		c1.89,4.47,4.33,10.27,5,18.12L68.2,69.16z"/>
	<path style="fill:#EDA600;" d="M83.1,66.81c1.11-5.86,1.72-10.6-0.39-19.36c-2.27-9.43-9.22-9.43-9.22-9.43s4.63,2.09,6.07,11.58
		c0.8,5.28-0.16,17.24-0.16,17.24L83.1,66.81z"/>
	<path style="fill:#EDA600;" d="M96.85,12.53c0.55,6.03,2.51,59.56,2.32,69.79l3.19,3.11c0-8.99-1.38-64.95-1.98-71.43
		C99.35,2.82,90.8,4.04,90.8,4.04S96.22,5.63,96.85,12.53z"/>
	<path style="fill:#EDA600;" d="M54.97,77.47c-1.06-4.61-3.39-11.57-6.59-15.16c-3.49-3.91-7.33-4.56-7.33-4.56
		c9.01,9.71,9.78,18.18,10.09,20.14c0.31,1.96,0.18,7.28-3.09,8.16c-2.42,0.65-7.05,0.41-12.12-10.19
		c-0.75-1.57-2.34-2.56-3.33-2.91c-0.6-0.21-1.18,0.39-0.92,0.98c3.95,9.07,7.17,14.8,12.95,16.13c2.11,0.48,4.58,0.11,6.26-1.04
		C56.98,84.87,55.39,79.41,54.97,77.47z"/>
	<path style="fill:#EDA600;" d="M92.12,71.26c-12.09-13.41-15.15-4.65-31.56-2.68c-12.39,1.03-8.53,18.16,7.1,17.99
		c0,0,4.2,0.18,5.76-0.63c-7.33,3.81-10.7,12.5-9.6,24.43c0.06,0.7,0.52,2.55,1.2,2.07c0.46-0.32,0.33-1.61,0.71-3.87
		c0.96-5.74,3.37-16.24,11.35-20.15c0.76-0.37,1.66,0.81,3.71,2.45c1.56,1.24,2.69,1.62,3.53,1.62c0.68,0,0.47-0.69,0.31-0.85
		c-1.96-1.92-6.44-8.16-6.88-8.94c-0.48-0.87-1.96-1.44-3.17-1.1c-17.14,4.87-17.83-5.92-17.17-7.46c0.67-1.54,1.91-1.6,3.58-1.8
		c7.82-0.93,12.39-2.93,15.18-4.04c5.4-2.77,12.25,3.42,17.4,10.51c1.42,1.89,3.22,4.66,4.09,12c0.84,7.15-1.68,25.62-25.5,29.58
		c-11.63,1.94-17.35,0.66-29.99-5c-0.88-0.39-1.15-0.09-0.92,0.23c0.23,0.32,9.82,10.37,29.98,7.99
		c11.3-1.34,19.41-5.09,25.26-13.24c4.95-6.88,6.13-18.38,5.78-26.45C102.3,83.94,93.88,73.24,92.12,71.26z"/>
</g>
</svg>
