<svg xmlns="http://www.w3.org/2000/svg" viewBox="0 0 64 64" enable-background="new 0 0 64 64"><g fill="#94989b"><path d="m46.5 22c1.2-2.1 1.9-4.5 1.9-7 0-8.3-7.4-15-16.4-15s-16.4 6.7-16.4 15c0 2.5.7 4.9 1.9 7-1.1.8-1.9 2.1-1.9 3.5 0 2.5 2.2 4.5 4.9 4.5.3 0 .5 0 .7-.1-.3.7-.7 1.6-.7 2-.4 1.8 1.6 3.4 3.7 3.4 0 0 1 .1 1.2-.1.8-.7 0-3.8 0-3.8 0-.5.5-1 1-1 .6 0 1 .4 1 1 0 0-.8 3.2 0 3.9.6.6 2.9.6 3.5 0 .8-.7 0-3.9 0-3.9 0-.5.5-1 1-1s1 .4 1 1c0 0-.8 3.2 0 3.9.6.6 2.9.6 3.5 0 .8-.7 0-3.9 0-3.9 0-.5.5-1 1-1 .6 0 1 .4 1 1 0 0-.8 3.1 0 3.8.2.2 1.2.1 1.2.1 2 0 4-1.5 3.7-3.4-.1-.4-.4-1.3-.8-2 .2 0 .5.1.8.1 2.7 0 4.9-2 4.9-4.5.2-1.4-.6-2.6-1.7-3.5m-23.3.9c-1.8-1.2-6.6-6.4-2.7-6.6 2.4-.1 8.3 1.9 8.7 4.1.2 1.4-4.2 3.7-6 2.5m11.6 4.7c-.9.9-4.4.9-5.3 0-.9-.8.6-1.4 1.1-2.3.6-1 .9-1.9 1.6-1.9.7 0 1 .9 1.6 1.9.4.8 1.8 1.5 1 2.3m6.2-4.7c-1.8 1.2-6.3-1.1-6-2.6.4-2.2 6.2-4.2 8.7-4.1 3.9.3-.8 5.4-2.7 6.7"/><path d="m59.5 51.5c-2.2-1.2-3.7-.3-3.7-.3-1.5.9-4.1 1-5.7.1l-12.3-6.5 12.3-6.5c1.6-.8 4.1-.8 5.7.1 0 0 1.5.9 3.7-.3 2.4-1.3 3.2-4 1.8-6.2-.5-.7-.5-.7-.5-.7-.8-.5-1.5-1.7-1.6-2.5 0 0 0 0-.5-.7-1.4-2.2-4.4-2.9-6.8-1.7-2.2 1.2-2.2 2.8-2.2 2.8.1 1.7-1.1 3.7-2.7 4.6l-15.2 8-15.2-8c-1.6-.8-2.8-2.9-2.7-4.6 0 0 .1-1.6-2.2-2.8-2.4-1.3-5.4-.5-6.8 1.7-.5.7-.5.7-.5.7-.1.9-.8 2-1.6 2.5 0 0 0 0-.5.7-1.4 2.2-.6 5 1.8 6.2 2.2 1.2 3.7.3 3.7.3 1.5-.9 4.1-1 5.7-.1l12.3 6.5-12.3 6.5c-1.6.8-4.1.8-5.7-.1 0 0-1.5-.9-3.7.3-2.4 1.3-3.2 4-1.8 6.2.5.7.5.7.5.7 1.1.6 1.8 1.7 1.9 2.6 0 0 0 0 .5.7 1.4 2.2 4.4 2.9 6.8 1.7 2.2-1.2 2.2-2.8 2.2-2.8-.1-1.7 1.1-3.7 2.7-4.6l15.2-8 15.2 8c1.6.8 2.8 2.9 2.7 4.6 0 0-.1 1.6 2.2 2.8 2.4 1.3 5.4.5 6.8-1.7.5-.7.5-.7.5-.7.1-.9.8-2 1.6-2.5 0 0 0 0 .5-.7 1.1-2.2.3-5-2.1-6.3"/></g></svg>