<?xml version="1.0" encoding="utf-8"?>
<!-- Generator: Adobe Illustrator 25.2.3, SVG Export Plug-In . SVG Version: 6.00 Build 0)  -->
<svg version="1.1" id="Layer_1" xmlns="http://www.w3.org/2000/svg" xmlns:xlink="http://www.w3.org/1999/xlink" x="0px" y="0px"
	 viewBox="0 0 128 128" style="enable-background:new 0 0 128 128;" xml:space="preserve">
<g>
	<path style="fill:#8E24AA;" d="M116.46,3.96h-104c-4.42,0-8,3.58-8,8v104c0,4.42,3.58,8,8,8h104c4.42,0,8-3.58,8-8v-104
		C124.46,7.54,120.88,3.96,116.46,3.96z"/>
	<path style="fill:#AB47BC;" d="M110.16,3.96h-98.2c-4.13,0.03-7.47,3.37-7.5,7.5v97.9c-0.01,4.14,3.34,7.49,7.48,7.5
		c0.01,0,0.01,0,0.02,0h98.1c4.14,0.01,7.49-3.34,7.5-7.48c0-0.01,0-0.01,0-0.02v-97.9c0.09-4.05-3.13-7.41-7.18-7.5
		C110.31,3.96,110.23,3.96,110.16,3.96z"/>
	<path style="opacity:0.3;fill:#FAFAFA;enable-background:new    ;" d="M40.16,12.86c0-2.3-1.6-3-10.8-2.7c-7.7,0.3-11.5,1.2-13.8,4
		s-2.9,8.5-3,15.3c0,4.8,0,9.3,2.5,9.3c3.4,0,3.4-7.9,6.2-12.3C26.66,17.76,40.16,15.86,40.16,12.86z"/>
	<path style="fill:#FAFAFA;" d="M108.16,59.26c-0.18-0.2-0.43-0.31-0.7-0.3h-5.2c-0.51-0.02-0.92-0.4-1-0.9
		c-0.78-7.89-3.88-15.37-8.9-21.5c-0.33-0.39-0.28-0.97,0.1-1.3l3.7-3.7c0.2-0.18,0.31-0.43,0.3-0.7c0-3.7-3.5-4.6-5.3-2.8l-3,3
		c-0.34,0.38-0.91,0.42-1.3,0.1c-6.13-5.02-13.61-8.12-21.5-8.9c-0.5-0.08-0.88-0.49-0.9-1v-5.3c0.01-0.27-0.1-0.52-0.3-0.7
		c-2.6-2.6-5.7-0.8-5.7,1.7v4.2c-0.02,0.51-0.4,0.92-0.9,1c-7.89,0.78-15.37,3.88-21.5,8.9c-0.39,0.33-0.97,0.28-1.3-0.1l-3.7-3.7
		c-0.18-0.2-0.43-0.31-0.7-0.3c-3.7,0-4.6,3.5-2.8,5.3l3,3c0.38,0.34,0.42,0.91,0.1,1.3c-5.02,6.13-8.12,13.61-8.9,21.5
		c-0.08,0.5-0.49,0.88-1,0.9h-5.3c-0.27-0.01-0.52,0.1-0.7,0.3c-2.6,2.6-0.8,5.7,1.7,5.7h4.2c0.51,0.02,0.92,0.4,1,0.9
		c0.78,7.89,3.88,15.37,8.9,21.5c0.33,0.39,0.28,0.97-0.1,1.3l-3.7,3.7c-0.2,0.18-0.31,0.43-0.3,0.7c0,3.7,3.5,4.6,5.3,2.8l3-3
		c0.34-0.38,0.91-0.42,1.3-0.1c6.13,5.02,13.61,8.12,21.5,8.9c0.5,0.08,0.88,0.49,0.9,1v5.2c-0.01,0.27,0.1,0.52,0.3,0.7
		c2.6,2.6,5.7,0.8,5.7-1.7v-4.2c0.02-0.51,0.4-0.92,0.9-1c7.89-0.78,15.37-3.88,21.5-8.9c0.39-0.33,0.97-0.28,1.3,0.1l3.7,3.7
		c0.18,0.2,0.43,0.31,0.7,0.3c3.7,0,4.6-3.5,2.8-5.3l-3-3c-0.38-0.34-0.42-0.91-0.1-1.3c5.02-6.13,8.12-13.61,8.9-21.5
		c0.08-0.5,0.49-0.88,1-0.9h4.2C108.96,64.96,110.76,61.86,108.16,59.26z M64.46,28.16c0-0.55,0.44-1,0.99-1.01
		c0.04,0,0.07,0,0.11,0.01c6.42,0.78,12.51,3.31,17.6,7.3c0.44,0.34,0.52,0.96,0.19,1.4c-0.03,0.03-0.06,0.07-0.09,0.1l-12.2,12.2
		c-0.32,0.33-0.83,0.37-1.2,0.1c-1.41-0.84-2.92-1.48-4.5-1.9c-0.47-0.1-0.81-0.52-0.8-1C64.46,45.46,64.46,28.26,64.46,28.16z
		 M39.76,34.46c5.06-3.98,11.11-6.5,17.5-7.3c0.55-0.06,1.04,0.35,1.09,0.89c0,0.03,0.01,0.07,0.01,0.11v17.2
		c0.01,0.48-0.33,0.9-0.8,1c-1.59,0.38-3.11,1.02-4.5,1.9c-0.38,0.24-0.87,0.2-1.2-0.1l-12.1-12.2c-0.41-0.37-0.45-1-0.09-1.41
		C39.7,34.52,39.73,34.49,39.76,34.46z M33.96,40.26c0.34-0.44,0.96-0.52,1.4-0.19c0.03,0.03,0.07,0.06,0.1,0.09l12.2,12.2
		c0.33,0.32,0.37,0.83,0.1,1.2c-0.84,1.41-1.48,2.92-1.9,4.5c-0.1,0.47-0.52,0.81-1,0.8h-17.1c-0.55,0-1-0.44-1.01-0.99
		c0-0.04,0-0.07,0.01-0.11C27.48,51.37,29.97,45.31,33.96,40.26z M35.46,83.66c-0.39,0.39-1.02,0.39-1.41,0
		c-0.03-0.03-0.06-0.06-0.09-0.1c-4.01-5.08-6.54-11.17-7.3-17.6c-0.06-0.55,0.35-1.04,0.89-1.09c0.03,0,0.07-0.01,0.11-0.01h17.2
		c0.48-0.01,0.9,0.33,1,0.8c0.38,1.59,1.02,3.11,1.9,4.5c0.24,0.38,0.2,0.87-0.1,1.2C47.66,71.46,35.46,83.66,35.46,83.66z
		 M58.46,95.76c0,0.55-0.44,1-0.99,1.01c-0.04,0-0.07,0-0.11-0.01c-6.4-0.76-12.46-3.29-17.5-7.3c-0.44-0.34-0.52-0.96-0.19-1.4
		c0.03-0.03,0.06-0.07,0.09-0.1l12.2-12.2c0.32-0.33,0.83-0.37,1.2-0.1c1.41,0.84,2.92,1.48,4.5,1.9c0.47,0.1,0.81,0.52,0.8,1V95.76
		z M61.46,72.96c-6.08,0-11-4.92-11-11s4.92-11,11-11c6.08,0,11,4.92,11,11l0,0C72.46,68.04,67.53,72.96,61.46,72.96z M83.16,89.46
		c-5.08,4.01-11.17,6.54-17.6,7.3c-0.55,0.06-1.04-0.35-1.09-0.89c0-0.03-0.01-0.07-0.01-0.11v-17.3c-0.01-0.48,0.33-0.9,0.8-1
		c1.59-0.38,3.11-1.02,4.5-1.9c0.38-0.24,0.87-0.2,1.2,0.1l12.2,12.3C83.56,88.38,83.56,89.04,83.16,89.46z M88.96,83.66
		c-0.34,0.44-0.96,0.52-1.4,0.19c-0.03-0.03-0.07-0.06-0.1-0.09l-12.2-12.2c-0.33-0.32-0.37-0.83-0.1-1.2
		c0.84-1.41,1.48-2.92,1.9-4.5c0.1-0.47,0.52-0.81,1-0.8h17.2c0.55,0,1,0.44,1.01,0.99c0,0.04,0,0.07-0.01,0.11
		C95.46,72.55,92.93,78.6,88.96,83.66z M95.26,58.96h-17.3c-0.48,0.01-0.9-0.33-1-0.8c-0.38-1.59-1.02-3.11-1.9-4.5
		c-0.24-0.38-0.2-0.87,0.1-1.2l12.3-12.2c0.39-0.39,1.02-0.39,1.41,0c0.03,0.03,0.06,0.06,0.09,0.1c3.98,5.06,6.5,11.11,7.3,17.5
		C96.26,58.43,95.83,58.91,95.26,58.96z"/>
</g>
</svg>
