<?xml version="1.0" encoding="utf-8"?>
<!-- Generator: Adobe Illustrator 25.2.3, SVG Export Plug-In . SVG Version: 6.00 Build 0)  -->
<svg version="1.1" id="Layer_1" xmlns="http://www.w3.org/2000/svg" xmlns:xlink="http://www.w3.org/1999/xlink" x="0px" y="0px"
	 viewBox="0 0 128 128" style="enable-background:new 0 0 128 128;" xml:space="preserve">
<path style="fill:#00796B;" d="M106.7,6.9H76.53c-2.23,0-4.06,1.83-4.06,4.06v8.13c0,2.23,1.83,4.06,4.06,4.06h16.26
	c0.91,0,1.32,1.12,0.71,1.73L71.25,46.03c-17.06-11.58-40.83-9.34-55.35,6.6C0.87,68.99,1.07,94.48,16.2,110.63
	c16.56,17.57,44.28,17.88,61.24,0.91c14.73-14.73,16.45-37.48,5.18-54.03l22.25-21.15c0.61-0.61,1.73-0.2,1.73,0.71v16.26
	c0,2.23,1.83,4.06,4.06,4.06h8.13c2.23,0,4.06-1.83,4.06-4.06V10.96c0-2.23-1.83-4.06-4.06-4.06C118.89,6.9,106.7,6.9,106.7,6.9z
	 M65.46,99.45c-9.95,9.95-26.2,9.95-36.26,0s-9.95-26.2,0-36.16s26.2-9.95,36.26,0S75.41,89.5,65.46,99.45z"/>
<linearGradient id="SVGID_1_" gradientUnits="userSpaceOnUse" x1="63.8035" y1="-1538.156" x2="63.8035" y2="-1653.7789" gradientTransform="matrix(1 0 0 -1 0 -1534.0001)">
	<stop  offset="0" style="stop-color:#00BFA5"/>
	<stop  offset="0.7047" style="stop-color:#00B29A"/>
	<stop  offset="1" style="stop-color:#00AB94"/>
</linearGradient>
<path style="fill:url(#SVGID_1_);" d="M106.71,3.87H76.54c-2.23,0-4.06,1.83-4.06,4.06v7.09c0,2.23,1.83,4.06,4.06,4.06H92.8
	c0.91,0,2.27,1.28,0.71,2.76L71.26,43c-17.06-11.58-40.83-9.34-55.35,6.6c-15.03,16.35-14.83,40.81,0.3,56.96
	c16.56,17.57,44.28,17.88,61.24,0.91c14.73-14.73,15.58-37.54,4.31-54.1l22.49-21.24c1.35-1.2,2.56,0.62,2.36,1.9v15.22
	c0,2.23,1.83,4.06,4.06,4.06h8.13c2.23,0,4.06-1.83,4.06-4.06V7.94c0-2.23-1.83-4.06-4.06-4.06C118.9,3.87,106.71,3.87,106.71,3.87z
	 M65.47,96.43c-9.95,9.95-26.2,9.95-36.26,0s-9.95-27.24,0-37.19s26.2-9.95,36.26,0S75.42,86.47,65.47,96.43z"/>
<path style="opacity:0.3;fill:#FFFFFF;enable-background:new    ;" d="M86.19,7.33c0-0.91-0.61-1.22-4.27-1.02
	c-3.05,0.1-4.47,0.51-5.38,1.52s-1.12,3.35-1.22,5.99c0,1.93,0,3.66,1.02,3.66c1.42,0,1.42-3.15,2.44-4.88
	C80.81,9.26,86.19,8.55,86.19,7.33z"/>
<path style="opacity:0.3;fill:#FFFFFF;enable-background:new    ;" d="M109.1,40.59c-0.91,0-1.22,0.61-1.02,4.27
	c0.1,3.05,0.51,4.47,1.52,5.38s3.35,1.12,5.99,1.22c1.93,0,3.66,0,3.66-1.02c0-1.42-3.15-1.42-4.88-2.44
	C111.03,45.98,110.32,40.59,109.1,40.59z"/>
<path style="opacity:0.3;fill:#FFFFFF;enable-background:new    ;" d="M17.07,53.61c3.82-5.8,11.93-11.96,20.77-13.45
	c2.19-0.4,4.37-0.5,6.26,0.2c1.39,0.5,2.58,1.89,1.79,3.38c-0.6,1.19-4.23,1.07-5.53,1.46c-4.54,1.16-8.26,2.51-11.22,4.41
	c-3.94,2.53-7.68,7.07-9.36,10.04c-3.19,5.63-4.27,10.71-6.85,8.82C10.45,66.77,13.25,59.42,17.07,53.61z"/>
</svg>
