<?xml version="1.0" encoding="UTF-8" standalone="no"?><svg xmlns:dc="http://purl.org/dc/elements/1.1/" xmlns:cc="http://creativecommons.org/ns#" xmlns:rdf="http://www.w3.org/1999/02/22-rdf-syntax-ns#" xmlns:svg="http://www.w3.org/2000/svg" xmlns="http://www.w3.org/2000/svg" viewBox="0 0 45 45" style="enable-background:new 0 0 45 45;" xml:space="preserve" version="1.1" id="svg2"><metadata id="metadata8"><rdf:RDF><cc:Work rdf:about=""><dc:format>image/svg+xml</dc:format><dc:type rdf:resource="http://purl.org/dc/dcmitype/StillImage"/></cc:Work></rdf:RDF></metadata><defs id="defs6"><clipPath id="clipPath16" clipPathUnits="userSpaceOnUse"><path id="path18" d="M 0,36 36,36 36,0 0,0 0,36 Z"/></clipPath></defs><g transform="matrix(1.25,0,0,-1.25,0,45)" id="g10"><g id="g12"><g clip-path="url(#clipPath16)" id="g14"><g transform="translate(36,4)" id="g20"><path id="path22" style="fill:#9266cc;fill-opacity:1;fill-rule:nonzero;stroke:none" d="m 0,0 c 0,-2.209 -1.791,-4 -4,-4 l -28,0 c -2.209,0 -4,1.791 -4,4 l 0,28 c 0,2.209 1.791,4 4,4 l 28,0 c 2.209,0 4,-1.791 4,-4 L 0,0 Z"/></g><g transform="translate(28.999,5.5)" id="g24"><path id="path26" style="fill:#ffffff;fill-opacity:1;fill-rule:nonzero;stroke:none" d="M 0,0 C -0.157,0 -0.317,0.024 -0.475,0.077 -0.494,0.083 -3.449,1 -11,1 -18.551,1 -21.505,0.083 -21.535,0.074 c -0.785,-0.253 -1.631,0.178 -1.886,0.962 -0.257,0.784 0.164,1.626 0.947,1.887 C -22.342,2.967 -19.15,4 -11,4 -2.851,4 0.343,2.967 0.475,2.923 1.261,2.661 1.685,1.811 1.423,1.025 1.214,0.398 0.628,0 0,0"/></g><path id="path28" style="fill:#ffffff;fill-opacity:1;fill-rule:nonzero;stroke:none" d="m 15,8 -3,0 0,20 3,0 0,-20 z"/><path id="path30" style="fill:#ffffff;fill-opacity:1;fill-rule:nonzero;stroke:none" d="m 24,8 -3,0 0,20 3,0 0,-20 z"/><g transform="translate(17.999,26.5005)" id="g32"><path id="path34" style="fill:#ffffff;fill-opacity:1;fill-rule:nonzero;stroke:none" d="m 0,0 c -8.15,0 -11.342,1.033 -11.474,1.077 -0.786,0.262 -1.211,1.111 -0.949,1.897 0.261,0.784 1.104,1.208 1.889,0.952 C -10.488,3.911 -7.528,3 0,3 7.551,3 10.506,3.917 10.534,3.926 11.319,4.176 12.166,3.748 12.422,2.964 12.678,2.18 12.257,1.338 11.475,1.077 11.343,1.033 8.149,0 0,0"/></g></g></g></g></svg>
