<svg xmlns="http://www.w3.org/2000/svg" viewBox="0 0 64 64" enable-background="new 0 0 64 64"><circle cx="32" cy="32" r="30" fill="#f2b200"/><g fill="#fff" stroke="#fff" stroke-miterlimit="10"><path d="m28.3 32.1c2.1-3.5.6-8.1-2.6-10.3-.3-.2-.6-.4-.9-.5 5.1-2.1 10.9-1.9 16 .6 1.7.8 3.2-1.7 1.5-2.5-8.2-4-17.4-3-24.5 2.8-.2.1-.3.3-.4.4-.5.5-1 1-1.4 1.6-.1.1-.2.2-.2.3-.1.1-.1.2-.2.4-1.6 3.6-.6 7.6 2.8 9.9 3.5 2.4 8 .6 9.9-2.7zm-9.9-6c3.1-5.1 9.8-.4 7.4 4.6-1.1 2.2-3.7 2.8-5.8 1.7-2.2-1.3-2.6-4.3-1.6-6.3z"/><path d="m48.3 39c1.6-3.6.6-7.6-2.8-9.9-3.4-2.3-7.8-.5-9.8 2.7-2.1 3.5-.6 8.1 2.6 10.3.3.2.6.4.9.5-5.1 2.1-10.9 1.9-16-.6-1.7-.8-3.2 1.7-1.5 2.5 8.2 4 17.4 3 24.5-2.8.2-.1.3-.3.4-.4.5-.5 1-1 1.4-1.6.1-.1.2-.2.2-.3 0-.1 0-.2.1-.4zm-10.1-5.7c1.1-2.2 3.7-2.8 5.8-1.7 2.2 1.2 2.6 4.2 1.6 6.3-3.1 5.2-9.8.5-7.4-4.6z"/></g></svg>