<?xml version="1.0" encoding="utf-8"?>
<!-- Generator: Adobe Illustrator 25.2.3, SVG Export Plug-In . SVG Version: 6.00 Build 0)  -->
<svg version="1.1" id="Layer_1" xmlns="http://www.w3.org/2000/svg" xmlns:xlink="http://www.w3.org/1999/xlink" x="0px" y="0px"
	 viewBox="0 0 128 128" style="enable-background:new 0 0 128 128;" xml:space="preserve">
<circle style="fill:#5E35B1;" cx="64" cy="64" r="60"/>
<circle style="fill:#7E57C2;" cx="60.1" cy="63.1" r="56.1"/>
<path style="opacity:0.2;fill:#5E35B1;enable-background:new    ;" d="M94.8,84.1c-1.6,0.8-3.4,1.6-6.5,1.6c-2,0-4.6-0.4-8.1-1.3
	c-0.4-0.1-0.6-0.4-0.6-0.8c-0.1-8,1.8-12.1,3.6-14.2c1.8-2,3.4-3.1,6.5-3.1H90c3,0,5.3,1.3,7.5,4C103,76.8,97.1,83,94.8,84.1z"/>
<path style="opacity:0.65;fill:#A08CCF;enable-background:new    ;" d="M24,29.7c4.5-7.1,14.1-13,24.1-14.8c2.5-0.4,5-0.6,7.1,0.2
	c1.6,0.6,2.9,2.1,2,3.8c-0.7,1.4-2.6,2-4.1,2.5c-9.3,3-17.9,6.4-23.1,14.3c-2,3-4.9,14.4-8.6,12.3C17.5,45.7,18.3,38.5,24,29.7z"/>
<path style="fill:#FAFAFA;" d="M103.9,65.3c-3.5-5.1-7.8-7-13.5-7c-15.6,0.1-18.5,16.1-18.7,22.5c0,0.3-0.3,0.5-0.6,0.4L70,80.7
	c-2-0.7-2.8-4.8-3-7.4V44.6c0-8.7-6.8-16.1-15.5-16.4c-5-0.2-9.5,2-12.5,5.4c-1.1-1.2-2.3-2.3-3.8-3.1c-2.1-1.3-4.9-0.5-5.8,1.8
	c-0.8,1.9,0,4,1.6,5c2.4,1.4,4,4,4,6.9V82c0,2.1,1.5,3.9,3.6,4.2c2.4,0.2,4.4-1.6,4.4-4V44.4c0-4.3,3.2-8,7.5-8.3
	c4.7-0.3,8.5,3.4,8.5,8v30c0.3,3.8,1.6,11.6,8.2,14.1c0.2,0.1,0.5,0.2,0.9,0.3c0.8,0.3,2,0.8,3.3,1.3c0.4,0.1,0.6,0.4,0.7,0.8
	s0.1,0.8,0.2,1.2c0.4,3.1-0.6,4.2-2.3,4.9c-3.1,1.4-8,1.1-12.3,0.2c-2.5-0.5-4.8,1.4-4.8,3.9l0,0c0,1.9,1.3,3.5,3.2,3.9
	c1.4,0.3,2.8,0.5,4.2,0.7c1.3,0.1,2.7,0.2,4.1,0.2c3.7,0,7.8-0.6,10.9-2.8c3.2-2.2,5-5.7,5-9.9c0-0.3,0.2-0.5,0.5-0.4
	C103.3,98.9,112,77.1,103.9,65.3L103.9,65.3z M94.8,84.1c-2.7,1.3-5.9,2.7-14.6,0.2c-0.4-0.1-0.6-0.4-0.6-0.8
	c-0.1-8,1.8-12.1,3.6-14.2c1.8-2,3.4-3.1,6.5-3.1c3.1-0.1,5.5,1.2,7.8,3.9C103,76.7,97.1,83,94.8,84.1z"/>
<path style="opacity:0.3;fill:#A08CCF;enable-background:new    ;" d="M24,29.7c4.5-7.1,14.1-13,24.1-14.8c2.5-0.4,5-0.6,7.1,0.2
	c1.6,0.6,2.9,2.1,2,3.8c-0.7,1.4-2.6,2-4.1,2.5c-9.3,3-17.9,6.4-23.1,14.3c-2,3-4.9,14.4-8.6,12.3C17.5,45.7,18.3,38.5,24,29.7z"/>
</svg>
