<svg xmlns="http://www.w3.org/2000/svg" viewBox="0 0 64 64" enable-background="new 0 0 64 64"><circle cx="32" cy="32" r="30" fill="#785aa0"/><g fill="#fff" stroke="#fff" stroke-miterlimit="10"><path d="m48.8 18.2c-3.2 2.4-6.3 4.8-9.5 7.2 0-2 0-3.9 0-5.9 0-1.1-1.3-2-2.2-1.3-3.2 2.4-6.3 4.8-9.5 7.2 0-2 0-3.9 0-5.9 0-1.1-1.3-2-2.2-1.3-3.9 2.9-7.8 5.9-11.7 8.8-1.5 1.1-.1 3.8 1.5 2.6 3.2-2.4 6.3-4.8 9.5-7.2 0 2 0 3.9 0 5.9 0 1.1 1.3 2 2.2 1.3 3.2-2.4 6.3-4.8 9.5-7.2 0 2 0 3.9 0 5.9 0 1.1 1.3 2 2.2 1.3 3.2-2.4 6.3-4.8 9.5-7.2 0 2 0 3.9 0 5.9 0 2 2.9 2 2.9 0 0-2.9 0-5.9 0-8.8 0-1-1.3-2-2.2-1.3z"/><path d="m48.8 34.2c-3.2 2.4-6.3 4.8-9.5 7.2 0-2 0-3.9 0-5.9 0-1.1-1.3-2-2.2-1.3-3.2 2.4-6.3 4.8-9.5 7.2 0-2 0-3.9 0-5.9 0-1.1-1.3-2-2.2-1.3-3.9 2.9-7.8 5.9-11.7 8.8-1.5 1.1-.1 3.8 1.5 2.6 3.2-2.4 6.3-4.8 9.5-7.2 0 2 0 3.9 0 5.9 0 1.1 1.3 2 2.2 1.3 3.2-2.4 6.3-4.8 9.5-7.2 0 2 0 3.9 0 5.9 0 1.1 1.3 2 2.2 1.3 3.2-2.4 6.3-4.8 9.5-7.2 0 2 0 3.9 0 5.9 0 2 2.9 2 2.9 0 0-2.9 0-5.9 0-8.8 0-1-1.3-2-2.2-1.3z"/></g></svg>