<svg xmlns="http://www.w3.org/2000/svg" viewBox="0 0 64 64" enable-background="new 0 0 64 64"><g fill="#b2c1c0"><path d="m3.8 27c0 0-3.7 15.2-.3 17.8 2.2 1.6 3.4-6.3 3.4-6.3s4.2 2.1 5.1-.1c.8-2.3-3.4-2.4-8.2-11.4"/><path d="m60.2 27c0 0 3.7 15.2.3 17.8-2.2 1.6-3.4-6.3-3.4-6.3s-4.2 2.1-5.1-.1c-.8-2.3 3.4-2.4 8.2-11.4"/><path d="m59 35c-23.1 28.1-24.1 6.2-24.1.4-.1-5.4-.5-21.4-.5-21.4h-4.8c0 0-.4 16-.5 21.4 0 5.8-1 27.7-24.1-.4 0 0-.7 9.1 16 20.3 5.6 3.7 11 6.7 11 6.7s5.4-3 11-6.7c16.7-11.2 16-20.3 16-20.3"/></g><path d="m34.5 20c-.1-3.4-.1-6-.1-6h-4.8c0 0-.1 2.6-.1 6h5" opacity=".5" fill="#62727a"/><path d="m32 2c-3.9 0-7 3.1-7 7s3.1 7 7 7 7-3.1 7-7-3.1-7-7-7m0 11c-2.2 0-4-1.8-4-4s1.8-4 4-4 4 1.8 4 4-1.8 4-4 4" fill="#b2c1c0"/><g fill="#62727a"><path d="m27 12.5c.2-.2 2 2.1 5 2 2.9.1 4.8-2.2 5-2 .3.1-1.4 3-5 3-3.6 0-5.3-2.9-5-3" opacity=".5"/><path d="m41.3 50c-3.3 0-7.3-2.5-7.4-14.6 0-3-.2-9.4-.3-14.4h-1.6v39.9c1.4-.8 5.9-3.4 10.5-6.4 9.7-6.5 13.4-12.2 14.7-15.7-6.7 7.5-11.9 11.2-15.9 11.2" opacity=".5"/></g><path d="m41 22c-5.9 1.4-12.1 1.4-18 0 0-1.3 0-2.6 0-3.9 5.9-1.4 12.1-1.4 18 0 0 1.2 0 2.6 0 3.9" fill="#b2c1c0"/><path d="m40 21.1c0-.3-3.6 0-8-.1-4.4 0-8-.2-8 .1 0 .3 3.5 1 8 .9 4.5 0 8-.7 8-.9" opacity=".5" fill="#62727a"/></svg>