<?xml version="1.0" encoding="utf-8"?>
<!-- Generator: Adobe Illustrator 25.2.3, SVG Export Plug-In . SVG Version: 6.00 Build 0)  -->
<svg version="1.1" id="Layer_2" xmlns="http://www.w3.org/2000/svg" xmlns:xlink="http://www.w3.org/1999/xlink" x="0px" y="0px"
	 viewBox="0 0 128 128" style="enable-background:new 0 0 128 128;" xml:space="preserve">
<path style="fill:#5731A5;" d="M55.78,36.45l-18.82,2.8L16.61,28.51c0,0-1.75,10.53,10.26,14.59c10.81,3.65,24.45,3.39,38.4,3.61
	c14.41,0.22,23.31-0.32,26.49,2.33c1.8,1.5,0.67,4.46,0.67,4.46s7.06-1.01,7.06-1.37s-0.09-8.75-0.8-9.02
	c-0.71-0.27-23.57-6.52-23.57-6.52s-4.46-0.03-9.21-0.06C61,36.49,55.97,36.46,55.78,36.45z"/>
<path style="fill:#5731A5;" d="M25.7,32.19l-2.32-6.61l5-2.32l9.92,3.66l7.24,0.63c0,0-0.09,2.51-7.41,2.16
	c-8.03-0.39-9.03-1.82-10.06-0.96c-0.99,0.82-0.6,2.49,0.38,3.41c2.01,1.88,6.53,2.95,6.53,2.95L25.7,32.19z"/>
<path style="fill:#5731A5;" d="M27.76,61.85c0,0-1.61,2.77-1.16,6.7c0.45,3.93,3.39,8.22,10.09,10.27s18.85,3.75,28.68,4.73
	s18.4,2.14,20.37,3.13c1.97,0.98,1.34,3.13,1.61,3.39c0.27,0.27,3.57,1.34,4.38,0.89c0.8-0.45,0.63-8.4,0.63-8.4l-16.62-8.31
	c0,0-3.77-0.49-10.14-1.13c-5.66-0.58-9.19-1.17-9.19-1.17s-14.79,0.52-15.51-0.2C40.18,71.05,27.76,61.85,27.76,61.85z"/>
<path style="fill:#5731A5;" d="M55.56,105.76l19.27,2.63l4.82,4.38l8.4,4.91l3.39,4.02c0,0-0.34,2.19-2.41,1.34
	c-1.97-0.8-2.23-3.66-7.95-5.99s-10.45-2.32-15.99-2.68s-16.79-1.7-21.89-3.57c-4.17-1.54-7.68-4.46-7.86-9.02
	c-0.22-5.45,4.71-7.5,4.71-7.5l4.04,10.63L55.56,105.76z"/>
<path style="fill:#7855BD;" d="M61.21,24.67c0,0,0,93.08,0,95.41c0,2.33,0.78,4.36,4.19,4.34c3.98-0.02,4.28-2.16,4.26-3.87
	c-0.02-1.97-0.08-96.03-0.08-96.03L61.21,24.67z"/>
<path style="fill:#7855BD;" d="M34.9,34.88c-7.85-1.59-10.67-5.35-9.54-8.08c0.94-2.27,4.03-1.95,5.43-1.32
	c0.97,0.43,4.04,2.51,8.15,2.79s6.59-0.72,6.59-0.72s0.3-0.76-1.09-0.88c-2.07-0.18-3.56-0.07-3.48-1.18
	c0.07-0.95,1.98-1.11,3.85-1.32c2.49-0.28,4.11-0.65,4.22-1.33c0.08-0.48-3.08-8.38-14.24-7.95c-10.93,0.42-18.42,6.77-18.28,15.05
	c0.11,6.41,8.37,9.94,16.94,11.39c8.6,1.46,22.34,1.44,22.34,1.44l0-6.33C55.8,36.43,43.47,36.63,34.9,34.88z M35.08,21.44
	c0.03-1.26,0.58-2.57,2.25-2.5c1.45,0.06,1.93,1.51,1.9,2.64c-0.03,1.13-0.8,2.29-2.09,2.19C35.85,23.68,35.04,22.63,35.08,21.44z"
	/>
<path style="fill:#5731A5;" d="M61.21,24.67v4.1c0,0,1.29,1.49,4.27,1.42s4.12-1.15,4.12-1.15l0.03-4.16c0,0,4.26-0.87,6.1-5.1
	c1.69-3.89,1.06-7.86,1.06-7.86l-21.79-0.11c0,0-0.94,4.5,0.81,8.21C57.68,23.99,61.21,24.67,61.21,24.67z"/>
<path style="fill:#7855BC;" d="M65.69,20.17c9.17,0.24,11.15-7.72,11.15-7.72S76.16,3.52,65.8,3.33c-9-0.17-10.68,7.9-10.81,8.48
	S57.08,19.95,65.69,20.17z"/>
<path style="fill:#5731A5;" d="M104.93,47.44c0,0,0.74,2.08-0.25,7.17c-0.32,1.62-2.55,7.18-12.76,8.77
	c-9.69,1.51-22.35,1.65-22.35,1.65v3.91c0,0-2.35,0.35-4.44,0.35s-3.89-0.48-3.89-0.48v-3.78c0,0-14.13,0.13-16.55,0.13
	c-1.3,0-4.36,0.33-4.36,2.5c0,2.79,4.72,4.24,4.72,4.24s-9.48,0.78-9.57,0.09c-0.09-0.7,0.96-12.18,0.96-12.18l30.35-2.35
	c0,0,26.09-0.26,27.31-0.7C95.32,56.33,104.93,47.44,104.93,47.44z"/>
<path style="fill:#5731A5;" d="M46.96,103.21c0,0-0.73-2.65,2.87-2.69c2.5-0.02,11.37,0.15,11.37,0.15l0,5.3l8.45,0.02l-0.01-5.16
	c0,0,17.31,0.51,22.76-2.27c7.17-3.65,7.48-7.9,7.4-11.6c-0.09-3.7-7.68,1.37-7.68,1.37l-8,6.17l-27.78,0.45l-13.6,2.75l-0.26,6.8
	L46.96,103.21z"/>
<path style="fill:#7957BB;" d="M74.75,112.81l0.08-4.42c0,0,6.37,1.03,10.05,3.82c5.93,4.52,6.44,8.36,6.57,9.49
	c0.13,1.13-3.58-3.02-5.1-4.21C80.56,112.98,74.75,112.81,74.75,112.81z"/>
<path style="fill:#7855BC;" d="M55.68,110.46l-0.08-4.71c0,0-9.84-1.18-9.87-4.33c-0.02-2.59,1.93-3.47,8.75-3.2
	c6.69,0.26,30.89,1.39,39.22-3.19c3.68-2.02,6.05-4.6,6.1-7.93c0.04-2.74-1.19-5.24-4.39-7.45c-6.13-4.23-19.68-5.37-19.68-5.37
	l-0.16,6.52c0,0,12.63,1.4,12.99,6.46c0.31,4.28-18.35,4.78-23.58,4.75c-8.47-0.05-28.41-1.86-28.26,7.4
	c0.12,6.9,8.15,9.36,13.72,10.23C53.42,110.08,55.68,110.46,55.68,110.46z"/>
<path style="fill:#7855BD;" d="M55.55,79.16l0.85-7.21c0,0-3.07-0.39-6.29-0.79c-5.04-0.63-11.68-2.12-11.58-5.01
	c0.19-5.52,9.96-4.73,20.31-4.59c17.51,0.23,32.28-0.87,37.43-2.1c7.78-1.87,9.11-6.7,8.87-10.82c-0.2-3.55-1.68-5.82-4.45-7.83
	c-2.39-1.73-5.79-2.7-9.38-3.21c-5.61-0.8-16.21-1.03-16.21-1.03l0.08,6.63c0,0,13.04,0.26,16.03,1.4c4.9,1.87,3.66,8.09-1.63,9.1
	s-14.67,1.24-24.74,1.48c-6.35,0.15-26.62-1.94-34.36,3.77c-1.83,1.35-3.3,3.14-3.39,5.5c-0.36,9.28,12.89,11.8,21.36,13.5
	C52.51,78.77,55.55,79.16,55.55,79.16z"/>
</svg>
