<svg xmlns="http://www.w3.org/2000/svg" viewBox="0 0 64 64" enable-background="new 0 0 64 64"><g fill="#d0d0d0"><path d="m23.6 36.7h-20.7l10.3-26.2 10.4 26.2m-18-1.9h15.3l-7.7-19.5-7.6 19.5"/><path d="m61.1 36.7h-20.7l10.3-26.2 10.4 26.2m-18-1.9h15.3l-7.7-19.5-7.6 19.5"/></g><path d="m50.3 10.2c0 0-2.2-.8-3.4-1.3-4.3-1.8-9.6-3.9-14.9-3.9s-10.6 2.2-14.9 4c-1.2.5-3.4 1.3-3.4 1.3l-3.3 2.5c0 0 2.7 1.7 4 1.2 1.1-.4 2.2-.9 3.5-1.4 4.1-1.7 9.2-3.8 14.1-3.8s10 2.1 14.1 3.8c1.2.5 2.4 1 3.5 1.4 1.4.5 4-1.2 4-1.2l-3.3-2.6" fill="#b8c2c4"/><g fill="#428bc1"><path d="M2,34.8C2,41,7,46,13.2,46s11.2-5,11.2-11.2H2z"/><path d="M39.5,34.8c0,6.2,5,11.2,11.2,11.2S62,41,62,34.8H39.5z"/></g><path fill="#b8c2c4" d="m30.1 12.3h3.8v41.2h-3.8z"/><path fill="#d0d0d0" d="m29 18.6h6.1v34.9h-6.1z"/><path fill="#545b60" d="m27.7 36.7h8.6v19.7h-8.6z"/><circle cx="13.2" cy="13.2" r="3.8" fill="#dbb471"/><g fill="#545b60"><circle cx="50.8" cy="13.2" r="3.8"/><circle cx="13.2" cy="13.2" r="3.8"/></g><g fill="#fff"><circle cx="13.2" cy="13.2" r="1.9"/><circle cx="50.8" cy="13.2" r="1.9"/></g><g fill="#d0d0d0"><circle cx="32" cy="7.6" r="5.6"/><path d="m32 45.1c-8.3 0-15 4.2-15 9.4h30c0-5.2-6.7-9.4-15-9.4"/></g><path fill="#545b60" d="m15.1 54.5h33.8v3.8h-33.8z"/><path fill="#6b767c" d="m11.4 58.2h41.2v3.8h-41.2z"/></svg>