<?xml version="1.0" encoding="utf-8"?>
<!-- Generator: Adobe Illustrator 25.2.3, SVG Export Plug-In . SVG Version: 6.00 Build 0)  -->
<svg version="1.1" id="Layer_3" xmlns="http://www.w3.org/2000/svg" xmlns:xlink="http://www.w3.org/1999/xlink" x="0px" y="0px"
	 viewBox="0 0 128 128" style="enable-background:new 0 0 128 128;" xml:space="preserve">
<g>
	<g>
		<rect x="60.55" y="28.66" style="fill:#4C889B;" width="7" height="70.6"/>
	</g>
	<g>
		<path style="fill:#4C889B;" d="M92.42,35.83c5.23,0,10.82-1.88,15.35-8.2l-5.69-4.08c-5.42,7.55-12.69,5.6-20.28,2.73l-0.9-0.34
			c-5.05-1.88-11.04-2.92-16.85-2.92v7c4.93,0,10.19,0.9,14.41,2.48l0.87,0.33C82.46,34.01,87.27,35.83,92.42,35.83z"/>
	</g>
	<path style="fill:#4C889B;" d="M40.42,113.4c2.05-2.14,11.91-4.93,14.51-7.35c2.6-2.42-0.03-5.23,1.21-10.98
		c1.58-7.33,7.91-8.18,7.91-8.18s6.33,0.85,7.91,8.18c1.24,5.74-1.4,8.56,1.21,10.98c2.6,2.42,12.47,5.21,14.51,7.35
		c2.14,2.24,2.23,5.21,0,6.23c0,0-7.48,3.07-23.63,3.07s-23.63-3.07-23.63-3.07C38.51,119.03,38.28,115.64,40.42,113.4z"/>
	<path style="fill:#335E68;" d="M67.52,37.96c0,0.49,0.49,2.96-2.32,3.55c-2.46,0.51-4.66-0.57-4.66-3.61c0-2.5,0.24-3.66,0.24-3.66
		S67.52,36.46,67.52,37.96z"/>
	<path style="fill:#4C889B;" d="M72.37,30.35c0-4.59-3.72-17.04-8.32-17.04s-8.32,12.45-8.32,17.04s3.72,8.32,8.32,8.32
		S72.37,34.95,72.37,30.35z"/>
	<circle style="fill:#4C889B;" cx="64.05" cy="10.8" r="5.5"/>
	<circle style="fill:#4C889B;" cx="104.26" cy="24.19" r="5.5"/>
	<g>
		<path style="fill:#4C889B;" d="M35.67,35.83c5.15,0,9.96-1.82,13.09-3l0.87-0.33c4.23-1.57,9.48-2.48,14.41-2.48v-7
			c-5.82,0-11.8,1.04-16.85,2.92l-0.9,0.34c-7.6,2.87-14.86,4.82-20.28-2.73l-5.69,4.08C24.86,33.95,30.44,35.83,35.67,35.83z"/>
	</g>
	<path style="fill:#81AFC1;" d="M59.18,91.9c-1.44,1.09-1.27,3.02-1.19,3.31c0.2,0.7,0.9,1.12,1.57,1.37
		c1.74,0.64,3.72,0.49,5.39-0.28c1.21-0.56,3.66-2.27,3.41-3.88C67.95,89.77,60.63,90.8,59.18,91.9z"/>
	<path style="fill:#81AFC1;" d="M66.98,116.5c-7.44,1.69-15.26,0.84-21.64-1.33c-2.67-0.91-1.71-1.89-1.56-2.01
		c1.29-1.06,2.93-1.79,4.68-1.93c3.18-0.25,5.7,0.98,8.75,1.89c3.46,1.03,7.13,1.37,10.72,0.99c0.51-0.05,1.07-0.1,1.5,0.19
		C71.1,115.42,66.98,116.5,66.98,116.5z"/>
	<path style="fill:#81AFC1;" d="M63.2,10.99c-0.54,0.24-1.16,0.38-1.72,0.18c-0.79-0.28-1.24-1.18-1.16-2.01
		c0.15-1.51,2.49-3.56,4.07-2.77C66.48,7.44,64.62,10.35,63.2,10.99z"/>
	<path style="fill:#81AFC1;" d="M58.2,27.2c1.41,1.68,4.57,1.43,6.14-2.44c1.06-2.62,0.74-5.58,0.59-6.49
		c-0.38-2.44-2.54-3.01-4.04-0.92C57.74,21.72,57.28,26.11,58.2,27.2z"/>
	<circle style="fill:#4C889B;" cx="23.83" cy="24.91" r="1.81"/>
	<g>
		<path style="fill:#4C889B;" d="M3.44,92.29L22,24.45c0,0,1.07-1.28,1.83-1.28s1.87,1.28,1.87,1.28l18.61,67.93l-2.65,0.74
			L25.21,32.89l-2.75,0.26L6.09,93.02L3.44,92.29z"/>
		<g>
			<g>
				<path style="fill:#81AFC1;" d="M44.41,92.44H3.25c0,4.59,10.82,10.8,20.58,10.8S44.41,96.61,44.41,92.44z"/>
				<g>
					<ellipse style="fill:#335E68;" cx="23.83" cy="92.57" rx="20.58" ry="3.13"/>
					<path style="fill:#A3CDD9;" d="M23.83,90.45c8.54,0,14.87,0.79,17.85,1.59c0.53,0.14,0.53,0.91,0,1.05
						c-2.98,0.8-9.31,1.59-17.85,1.59S8.96,93.9,5.98,93.1c-0.53-0.14-0.53-0.91,0-1.05C8.96,91.24,15.29,90.45,23.83,90.45
						 M23.83,89.44c-11.37,0-20.58,1.4-20.58,3.13c0,1.73,9.21,3.13,20.58,3.13s20.58-1.4,20.58-3.13
						C44.41,90.84,35.2,89.44,23.83,89.44L23.83,89.44z"/>
				</g>
			</g>
		</g>
		<path style="fill:#A3CDD9;" d="M17.61,99.69c1.93,0.95,1.57,1.55,0.39,1.67c-2.34,0.24-6.18-1.23-8.48-3.21
			c-0.67-0.58-1.49-2.56,0.73-2.23C13.69,96.42,13.44,97.62,17.61,99.69z"/>
		<path style="fill:#4C889B;" d="M22.46,24.58v-0.03c0-0.76,0.62-1.38,1.38-1.38s1.38,0.62,1.38,1.38v0.05v71.15
			c0,0.76-0.62,1.38-1.38,1.38s-1.38-0.62-1.38-1.38V24.58z"/>
	</g>
	<circle style="fill:#4C889B;" cx="23.83" cy="24.54" r="5.5"/>
	<path style="fill:#81AFC1;" d="M24.77,20.16c1.33,0.6,0.73,1.75,0.46,2.09c-0.73,0.93-1.92,0.97-2.8,1.97
		c-0.38,0.43-0.58,1.42-1.43,1.65c-0.78,0.21-1.12-0.41-1.16-0.67c-0.34-2.01,0.41-3.41,1.73-4.39
		C22.18,20.35,23.44,19.56,24.77,20.16z"/>
	<g>
		<path style="fill:#4C889B;" d="M83.78,92.21l18.8-67.77c0,0,1.08-1.28,1.84-1.28c0.76,0,1.87,1.29,1.87,1.29l18.37,68L122,93.19
			l-16.25-60.3L103,33.15L86.42,92.95L83.78,92.21z"/>
		<g>
			<g>
				<path style="fill:#81AFC1;" d="M124.75,92.52l-41.16-0.15c-0.02,4.59,10.78,10.84,20.54,10.87
					C113.89,103.28,124.74,96.68,124.75,92.52z"/>
				<g>
					
						<ellipse transform="matrix(3.538053e-03 -1 1 3.538053e-03 11.2297 196.4117)" style="fill:#335E68;" cx="104.17" cy="92.57" rx="3.13" ry="20.58"/>
					<path style="fill:#A3CDD9;" d="M104.18,90.45c8.54,0.03,14.87,0.84,17.84,1.65c0.53,0.14,0.52,0.91,0,1.05
						c-2.98,0.79-9.31,1.56-17.85,1.53c-8.54-0.03-14.87-0.84-17.84-1.65c-0.53-0.14-0.52-0.91,0-1.05
						C89.3,91.19,95.64,90.42,104.18,90.45 M104.18,89.44c-11.37-0.04-20.59,1.33-20.59,3.06c-0.01,1.73,9.2,3.16,20.57,3.2
						s20.59-1.33,20.59-3.06C124.76,90.92,115.55,89.48,104.18,89.44L104.18,89.44z"/>
				</g>
			</g>
		</g>
		<path style="fill:#A3CDD9;" d="M97.92,99.66c1.93,0.96,1.39,1.41,0.21,1.53c-2.34,0.24-5.85-1.42-8.45-3.4
			c-0.7-0.54-1.92-2.47,0.9-1.93C93.95,96.52,94.04,97.73,97.92,99.66z"/>
		<path style="fill:#4C889B;" d="M103.03,24.57l0-0.03c0-0.76,0.62-1.37,1.38-1.37c0.76,0,1.37,0.62,1.37,1.38l0,0.05l-0.25,71.15
			c0,0.76-0.62,1.37-1.38,1.37s-1.37-0.62-1.37-1.38L103.03,24.57z"/>
	</g>
	<path style="fill:#81AFC1;" d="M104.81,20.11c1.33,0.6,0.77,1.78,0.46,2.09c-0.59,0.6-1.29,1.08-1.95,1.59
		c-0.71,0.55-1.29,1.12-2.4,0.47c-1.26-0.73-0.49-2.51,0.63-3.35C102.15,20.46,103.48,19.52,104.81,20.11z"/>
</g>
</svg>
