<?xml version="1.0" encoding="utf-8"?>
<!-- Generator: Adobe Illustrator 25.2.3, SVG Export Plug-In . SVG Version: 6.00 Build 0)  -->
<svg version="1.1" id="Layer_1" xmlns="http://www.w3.org/2000/svg" xmlns:xlink="http://www.w3.org/1999/xlink" x="0px" y="0px"
	 viewBox="0 0 128 128" style="enable-background:new 0 0 128 128;" xml:space="preserve">
<path style="fill:#522F21;" d="M121.7,82.43v18.86c0,1.37-0.65,2.66-1.75,3.47l-23.29,17.27c-0.31,0.23-0.72,0.26-1.06,0.09
	l-0.9-0.46v-19.2L121.7,82.43z"/>
<path style="fill:#AB664B;" d="M5.02,53.35l16.48,30.31c0.17,0.32,0.44,0.58,0.77,0.75l0.13-19.14L4.6,33.96v17.75
	C4.6,52.28,4.74,52.84,5.02,53.35z"/>
<path style="fill:#874D36;" d="M96.16,121.51v-19.08l-74.4-38.25v19.05c0,0.57,0.32,1.09,0.82,1.35l72.78,37.42
	C95.73,122.18,96.16,121.92,96.16,121.51z"/>
<path style="fill:#C87D5E;" d="M120.79,76.68L74.23,23.91c-0.43-0.49-0.99-0.85-1.61-1.05L33.61,10.38
	c-1.11-0.36-2.33-0.15-3.26,0.54c0,0-23.47,17.44-23.59,17.55L6.72,28.5c-2.12,1.52-3.52,5.31-1.75,8.61l14.44,26.56
	c0.35,0.64,0.88,1.16,1.53,1.49l72.76,36.92c1.23,0.63,2.71,0.51,3.82-0.31l24.7-18.28C123.76,82.35,123.8,80,120.79,76.68z"/>
<path style="fill:#AB664B;" d="M95.79,90.7L27.26,55.47L14.09,31.25l19.36-14.36l36.4,11.64l43.42,49.21L95.79,90.7z M31.04,52.15
	l65.64,33.23l12.09-8.97L68.43,30.7L33.91,19.67L19.28,30.52L31.04,52.15z"/>
<polygon style="fill:#7A4631;" points="69.85,28.53 33.45,16.89 33.89,19.69 33.91,19.67 68.43,30.7 108.77,76.42 113.27,77.74 "/>
<path style="fill:#522F21;" d="M42.51,86.7l0.6-4.3l-3.69,2.62l-5.83-3l-0.22-4.54l-3.52,2.62l0,0c-0.74-0.38-1.64-0.09-2.02,0.65
	c-0.38,0.74-0.09,1.64,0.65,2.02l12.29,6.32c0.22,0.11,0.45,0.17,0.68,0.17c0.54,0,1.07-0.3,1.34-0.81
	C43.1,87.85,42.96,87.15,42.51,86.7z"/>
<path style="fill:#522F21;" d="M78.47,105.1l0.3-4.6c0,0-3.28,2.37-3.8,2.8l-15.29-7.86v-4.25c0,0-2.46,1.79-3.4,2.5l-0.88-0.45
	c-0.74-0.38-1.64-0.09-2.02,0.65s-0.09,1.64,0.65,2.02l23.07,11.86c0.22,0.11,0.45,0.17,0.68,0.17c0.54,0,1.07-0.3,1.33-0.81
	C79.5,106.39,79.21,105.48,78.47,105.1z"/>
<g>
	<path style="fill:#E2A610;" d="M56.22,95.22c-0.28,0-0.57-0.08-0.82-0.25c-0.69-0.45-0.61-1.07-0.16-1.77l1.96-2.99
		c0.45-0.69,1.29-1.06,1.98-0.61c0.69,0.45,0.71,1.25,0.26,1.94l-1.96,2.99C57.19,94.98,56.71,95.22,56.22,95.22z"/>
</g>
<g>
	<path style="fill:#E2A610;" d="M39.55,86.67c-0.28,0-0.57-0.08-0.82-0.25c-0.69-0.45-0.61-1.07-0.16-1.77l1.96-2.99
		c0.45-0.69,1.29-1.06,1.98-0.61c0.69,0.45,0.71,1.25,0.26,1.94l-1.96,2.99C40.51,86.43,40.03,86.67,39.55,86.67z"/>
</g>
<g>
	<path style="fill:#E2A610;" d="M29.91,81.71c-0.28,0-0.57-0.08-0.82-0.25c-0.69-0.45-0.61-1.07-0.16-1.77l1.96-2.99
		c0.45-0.69,1.29-1.06,1.98-0.61c0.69,0.45,0.71,1.25,0.26,1.94l-1.96,2.99C30.87,81.47,30.39,81.71,29.91,81.71z"/>
</g>
<g>
	<path style="fill:#E2A610;" d="M75.24,104.93c-0.28,0-0.57-0.08-0.82-0.25c-0.69-0.45-0.61-1.07-0.16-1.77l1.96-2.99
		c0.45-0.69,1.29-1.06,1.98-0.61c0.69,0.45,0.71,1.25,0.26,1.94l-1.96,2.99C76.21,104.69,75.73,104.93,75.24,104.93z"/>
</g>
<g>
	<path style="fill:#FFCA28;" d="M77.28,106.05c-0.23,0-0.47-0.05-0.68-0.17L53.52,94.02c-0.74-0.38-1.03-1.28-0.65-2.02
		s1.28-1.03,2.02-0.65l23.07,11.86c0.74,0.38,1.03,1.28,0.65,2.02C78.35,105.76,77.82,106.05,77.28,106.05z"/>
</g>
<g>
	<path style="fill:#FFCA28;" d="M40.95,87.38c-0.23,0-0.46-0.05-0.68-0.17l-12.29-6.32c-0.74-0.38-1.03-1.28-0.65-2.02
		c0.38-0.74,1.28-1.03,2.02-0.65l12.29,6.32c0.74,0.38,1.03,1.28,0.65,2.02C42.02,87.08,41.5,87.38,40.95,87.38z"/>
</g>
<polygon style="opacity:0.8;fill:#FFCC80;" points="14.09,31.25 33.45,16.89 33.91,19.67 19.28,30.52 31.04,52.15 27.26,55.47 "/>
<g>
	<path style="fill:#AB664B;" d="M94.06,98.03L23.2,62.08c-0.63-0.32-1.15-0.83-1.49-1.45L5.17,30.26c-1.1,1.85-1.47,4.48-0.19,6.85
		l14.44,26.56c0.35,0.64,0.88,1.16,1.53,1.49l72.76,36.92c1.23,0.63,2.71,0.51,3.82-0.31V97.9C96.47,98.54,95.16,98.6,94.06,98.03z"
		/>
	<path style="opacity:0.8;fill:#FFCC80;" d="M21.72,60.63L5.17,30.25c-1.1,1.85-1.47,4.48-0.19,6.86l14.44,26.56
		c0.35,0.64,0.88,1.16,1.53,1.49c0,0-0.91-2.47,1.53-3.6C22.17,61.3,21.91,60.99,21.72,60.63z"/>
	<path style="fill:#874D36;" d="M122.55,79.1c-0.17,0.33-0.41,0.61-0.72,0.83l-24.05,17.8c-0.51,0.38-1.1,0.6-1.71,0.67
		c-0.09,0.07-0.19,0.15-0.27,0.21c1.44,0.93,0.95,3.45,0.36,3.79c0.48-0.11,0.94-0.32,1.36-0.62l24.7-18.28
		C123.41,82.61,123.62,80.83,122.55,79.1z"/>
</g>
</svg>
