<?xml version="1.0" encoding="utf-8"?>
<!-- Generator: Adobe Illustrator 25.2.3, SVG Export Plug-In . SVG Version: 6.00 Build 0)  -->
<svg version="1.1" id="Layer_2" xmlns="http://www.w3.org/2000/svg" xmlns:xlink="http://www.w3.org/1999/xlink" x="0px" y="0px"
	 viewBox="0 0 128 128" style="enable-background:new 0 0 128 128;" xml:space="preserve">
<path style="fill:#C8C8C8;" d="M63.95,4.06C28.43,3.56,2.05,33.98,3.82,66.51c2.09,38.31,29.48,57.56,61.52,57.34
	c33.66-0.23,59.2-24.09,58.5-60.13C123.15,27.74,96.69,4.53,63.95,4.06z"/>
<path style="fill:#FFFFFF;" d="M35.86,15.21C11,29.46-4.78,69.85,21.7,100.41c3.24,3.74,8.39,6.35,12.3,8.13
	c26.7,12.07,59.01-6.49,71.51-20.64c9.92-11.23,13.57-18.68,12.39-34.01c-0.91-11.92-6.01-23.43-16.58-31.94
	C77.42,2.67,51.65,6.15,35.86,15.21z"/>
<g>
	<path style="fill:#171717;" d="M60.9,39.79c-0.09-0.05-9.34-5.36-16.52-8.02c-7.48-2.77-13-4.26-13.06-4.27l1.03-3.86
		c0.23,0.06,5.75,1.54,13.42,4.39c7.5,2.78,16.74,8.08,17.13,8.31L60.9,39.79z"/>
</g>
<g>
	
		<rect x="71.73" y="18.18" transform="matrix(0.2698 -0.9629 0.9629 0.2698 40.3089 93.5178)" style="fill:#171717;" width="20.17" height="4"/>
</g>
<g>
	<path style="fill:#171717;" d="M117.6,54.52c-0.05-0.02-5.37-2.04-11.31-3.65c-4.47-1.21-10.23-2.44-10.29-2.45l0.83-3.91
		c0.24,0.05,5.92,1.26,10.5,2.5c6.15,1.66,11.47,3.69,11.7,3.77L117.6,54.52z"/>
</g>
<g>
	<path style="fill:#171717;" d="M86.13,93.76c0-0.06-0.5-6.16-1.7-12.4c-1.19-6.16-3.46-11.96-3.48-12.01l3.72-1.47
		c0.1,0.25,2.43,6.19,3.69,12.73c1.24,6.47,1.74,12.58,1.76,12.84L86.13,93.76z"/>
</g>
<g>
	<path style="fill:#171717;" d="M106.02,99.32l-2.64-3.01c0.04-0.03,3.88-3.43,8.62-9.83c4.38-5.92,6.4-11.1,6.42-11.16l3.73,1.43
		c-0.09,0.23-2.24,5.75-6.94,12.1C110.2,95.63,106.19,99.17,106.02,99.32z"/>
</g>
<g>
	
		<rect x="30.24" y="68.04" transform="matrix(0.746 -0.6659 0.6659 0.746 -35.0204 48.257)" style="fill:#171717;" width="31.02" height="4"/>
</g>
<g>
	<path style="fill:#171717;" d="M12.91,73.35c-0.06-0.39-1.38-9.64-1.38-18.1c0-8.44,0.96-16.25,1.01-16.58l3.97,0.5
		c-0.01,0.08-0.97,7.9-0.97,16.08c0,8.16,1.33,17.44,1.34,17.53L12.91,73.35z"/>
</g>
<g>
	<path style="fill:#171717;" d="M71.3,113.65c-0.25-0.03-6.35-0.8-16.9-3.9c-6.72-1.98-14.4-6.04-14.73-6.21l1.88-3.53
		c0.08,0.04,7.65,4.05,13.98,5.91c10.2,3,16.2,3.76,16.26,3.77L71.3,113.65z"/>
</g>
<path style="fill:#474C4F;" d="M53.37,32.72c-0.31,0.78,0.1,28.63,0.73,29.46s28.63,10.34,29.88,10.03
	c1.25-0.31,16.19-23.82,16.19-24.76S81.79,23.84,80.85,23.63C79.91,23.42,53.79,31.67,53.37,32.72z"/>
<path style="fill:#474C4F;" d="M117.36,36.14c0,0-4.12,13.71-4.12,14.76c0,1.04,2.51,6.79,3.66,13.89
	c1.15,7.1-0.52,17.76,0.21,18.18c0.73,0.42,4.35,0.21,4.35,0.21s3.49-10.97,2.02-25.07C122.01,44,117.36,36.14,117.36,36.14z"/>
<path style="fill:#474C4F;" d="M87.64,90.7c-0.84,0.08-22.88,19.01-22.78,19.54c0.1,0.52,8.63,13.09,8.63,13.09
	s10.72-0.85,20.54-6.17s13.55-10.05,13.55-10.05s1.36-12.64,0.84-12.74C107.91,94.25,88.69,90.6,87.64,90.7z"/>
<path style="fill:#474C4F;" d="M14.09,67.09c-0.57,0.47-3.87,7.73-4.81,11.81c-0.94,4.07-1.46,7.94-1.46,7.94s2.51,7.26,6.27,12.64
	c4.66,6.66,10.72,11.36,10.72,11.36s19.78-6.03,19.89-6.87s-2.3-8.15-3.97-14.21c-1.67-6.06-1.98-12.85-2.61-13.27
	c-0.63-0.42-7-2.4-12.01-4.39S14.72,66.57,14.09,67.09z"/>
<path style="fill:#474C4F;" d="M7.89,41.88c0,0,5.47,4.73,6.31,4.73c0.84,0,6.14-7.02,11.49-11.28c7.21-5.75,10.76-7.63,10.87-8.36
	c0.1-0.73,3.24-18.18,3.24-18.18s-11.6,4.39-20.06,14.1S7.89,41.88,7.89,41.88z"/>
<path style="fill:#474C4F;" d="M67.05,4.13c0,0,6.67,3.43,9.1,5.12c2.43,1.69,6.01,5.27,7.07,5.38c1.05,0.11,15.56,0.12,15.56,0.12
	s-6.58-4.5-13.87-7.08C76.14,4.56,67.05,4.13,67.05,4.13z"/>
</svg>
