<?xml version="1.0" encoding="UTF-8" standalone="no"?><svg xmlns:dc="http://purl.org/dc/elements/1.1/" xmlns:cc="http://creativecommons.org/ns#" xmlns:rdf="http://www.w3.org/1999/02/22-rdf-syntax-ns#" xmlns:svg="http://www.w3.org/2000/svg" xmlns="http://www.w3.org/2000/svg" viewBox="0 0 45 45" style="enable-background:new 0 0 45 45;" xml:space="preserve" version="1.1" id="svg2"><metadata id="metadata8"><rdf:RDF><cc:Work rdf:about=""><dc:format>image/svg+xml</dc:format><dc:type rdf:resource="http://purl.org/dc/dcmitype/StillImage"/></cc:Work></rdf:RDF></metadata><defs id="defs6"><clipPath id="clipPath16" clipPathUnits="userSpaceOnUse"><path id="path18" d="M 0,36 36,36 36,0 0,0 0,36 Z"/></clipPath><clipPath id="clipPath28" clipPathUnits="userSpaceOnUse"><path id="path30" d="M 18,36 C 8.059,36 0,27.941 0,18 l 0,0 C 0,8.059 8.059,0 18,0 l 0,0 c 9.941,0 18,8.059 18,18 l 0,0 c 0,9.941 -8.059,18 -18,18 z"/></clipPath><clipPath id="clipPath44" clipPathUnits="userSpaceOnUse"><path id="path46" d="M 0,36 36,36 36,0 0,0 0,36 Z"/></clipPath></defs><g transform="matrix(1.25,0,0,-1.25,0,45)" id="g10"><g id="g12"><g clip-path="url(#clipPath16)" id="g14"><g transform="translate(18,0)" id="g20"><path id="path22" style="fill:#e1e8ed;fill-opacity:1;fill-rule:nonzero;stroke:none" d="m 0,0 c -9.941,0 -18,8.059 -18,18 0,9.941 8.059,18 18,18 C 9.941,36 18,27.941 18,18 18,8.059 9.94,0 0,0"/></g></g></g><g id="g24"><g clip-path="url(#clipPath28)" id="g26"><g transform="translate(34,6)" id="g32"><path id="path34" style="fill:#b3bec4;fill-opacity:1;fill-rule:nonzero;stroke:none" d="M 0,0 C 4.318,0 7,4.598 7,12 7,19.402 4.318,24 0,24 -4.318,24 -7,19.402 -7,12 -7,4.598 -4.318,0 0,0 M 0,26 C 4.352,26 9,22.322 9,12 9,1.678 4.352,-2 0,-2 c -4.352,0 -9,3.678 -9,14 0,10.322 4.648,14 9,14"/></g><g transform="translate(2,6)" id="g36"><path id="path38" style="fill:#b3bec4;fill-opacity:1;fill-rule:nonzero;stroke:none" d="M 0,0 C 4.317,0 7,4.598 7,12 7,19.402 4.317,24 0,24 -4.317,24 -7,19.402 -7,12 -7,4.599 -4.317,0 0,0 M 0,26 C 4.351,26 9,22.322 9,12 9,1.678 4.351,-2 0,-2 c -4.351,0 -9,3.678 -9,14 0,10.322 4.649,14 9,14"/></g></g></g><g id="g40"><g clip-path="url(#clipPath44)" id="g42"><g transform="translate(5.0918,25.8359)" id="g48"><path id="path50" style="fill:#dd2e44;fill-opacity:1;fill-rule:nonzero;stroke:none" d="m 0,0 c -0.237,0 -0.457,0.02 -0.651,0.056 -0.543,0.102 -0.9,0.625 -0.799,1.167 0.102,0.544 0.625,0.902 1.167,0.799 C 0.147,1.945 2.408,2.016 2.865,4.298 2.973,4.839 3.497,5.189 4.042,5.082 4.583,4.974 4.935,4.447 4.826,3.905 4.244,0.993 1.687,0 0,0"/></g><g transform="translate(6.7917,21.875)" id="g52"><path id="path54" style="fill:#dd2e44;fill-opacity:1;fill-rule:nonzero;stroke:none" d="m 0,0 c -0.53,0 -0.952,0.323 -0.978,0.859 -0.026,0.551 0.4,0.911 0.951,0.937 0,0 2.564,0.035 3.87,2.294 C 4.118,4.568 4.729,4.72 5.209,4.442 5.687,4.166 5.85,3.547 5.574,3.069 3.722,-0.137 0.016,0 0,0"/></g><g transform="translate(8.9995,16.7178)" id="g56"><path id="path58" style="fill:#dd2e44;fill-opacity:1;fill-rule:nonzero;stroke:none" d="m 0,0 c -0.734,0 -1.414,0.135 -1.928,0.378 -0.499,0.237 -0.712,0.833 -0.475,1.332 0.236,0.5 0.834,0.711 1.332,0.476 0.829,-0.393 2.925,-0.239 3.73,1.012 0.299,0.465 0.918,0.599 1.382,0.3 C 4.506,3.2 4.64,2.581 4.342,2.117 3.377,0.617 1.566,0 0,0"/></g><g transform="translate(10.1611,11.1934)" id="g60"><path id="path62" style="fill:#dd2e44;fill-opacity:1;fill-rule:nonzero;stroke:none" d="M 0,0 C -1.554,0 -2.995,0.699 -3.926,1.475 -4.351,1.829 -4.408,2.46 -4.054,2.885 -3.7,3.309 -3.07,3.365 -2.646,3.013 -2.452,2.85 -0.694,1.447 1.136,2.227 1.643,2.442 2.231,2.206 2.447,1.697 2.663,1.188 2.425,0.602 1.917,0.386 1.277,0.114 0.629,0 0,0"/></g><g transform="translate(9.7505,6)" id="g64"><path id="path66" style="fill:#dd2e44;fill-opacity:1;fill-rule:nonzero;stroke:none" d="m 0,0 -0.028,0 c -2.504,0 -4.68,1.57 -5.534,3.108 -0.269,0.483 -0.094,1.044 0.388,1.313 0.483,0.269 1.092,0.07 1.36,-0.412 C -3.33,3.138 -1.818,1.875 0.027,1.824 0.58,1.809 1.015,1.436 0.999,0.885 0.984,0.342 0.54,0 0,0"/></g><g transform="translate(27.1885,5.8125)" id="g68"><path id="path70" style="fill:#dd2e44;fill-opacity:1;fill-rule:nonzero;stroke:none" d="M 0,0 C -0.066,0 -0.131,0.006 -0.197,0.02 -0.738,0.128 -1.09,0.654 -0.982,1.196 -0.317,4.519 2.912,5.347 4.496,5.045 5.039,4.943 5.396,4.421 5.294,3.878 5.192,3.336 4.677,2.975 4.127,3.08 3.702,3.16 1.436,3.087 0.979,0.804 0.885,0.328 0.467,0 0,0"/></g><g transform="translate(24.624,10.3125)" id="g72"><path id="path74" style="fill:#dd2e44;fill-opacity:1;fill-rule:nonzero;stroke:none" d="M 0,0 C -0.17,0 -0.342,0.043 -0.499,0.134 -0.978,0.41 -1.142,1.023 -0.865,1.5 0.987,4.706 3.119,4.804 4.529,4.869 L 4.641,4.874 C 5.18,4.907 5.661,4.475 5.687,3.923 5.714,3.371 5.288,2.902 4.736,2.876 L 4.621,2.871 C 3.417,2.815 2.172,2.759 0.867,0.5 0.682,0.179 0.346,0 0,0"/></g><g transform="translate(23.624,16.375)" id="g76"><path id="path78" style="fill:#dd2e44;fill-opacity:1;fill-rule:nonzero;stroke:none" d="M 0,0 C -0.186,0 -0.372,0.051 -0.54,0.159 -1.004,0.457 -1.139,1.076 -0.84,1.54 0.575,3.744 3.816,4.042 5.429,3.279 5.928,3.042 6.142,2.446 5.904,1.947 5.669,1.447 5.07,1.234 4.573,1.471 3.744,1.865 1.647,1.71 0.842,0.459 0.651,0.162 0.329,0 0,0"/></g><g transform="translate(29.249,22.3125)" id="g80"><path id="path82" style="fill:#dd2e44;fill-opacity:1;fill-rule:nonzero;stroke:none" d="M 0,0 C -0.226,0 -0.452,0.076 -0.64,0.232 -0.834,0.394 -2.592,1.79 -4.421,1.017 -4.93,0.802 -5.516,1.038 -5.732,1.547 -5.948,2.055 -5.711,2.643 -5.202,2.858 -2.983,3.8 -0.667,2.859 0.642,1.768 1.065,1.415 1.123,0.784 0.77,0.36 0.571,0.123 0.287,0 0,0"/></g><g transform="translate(31.0635,26.25)" id="g84"><path id="path86" style="fill:#dd2e44;fill-opacity:1;fill-rule:nonzero;stroke:none" d="m 0,0 c -0.352,0 -0.692,0.186 -0.875,0.514 -0.484,0.872 -1.996,2.123 -3.841,2.174 -0.553,0.015 -0.987,0.506 -0.973,1.059 0.016,0.542 0.46,1.003 1,1.003 l 0.028,0 C -2.156,4.75 0.018,3.056 0.873,1.518 1.142,1.034 0.968,0.41 0.484,0.142 0.331,0.056 0.164,0 0,0"/></g></g></g></g></svg>
