<?xml version="1.0" encoding="utf-8"?>
<!-- Generator: Adobe Illustrator 25.2.3, SVG Export Plug-In . SVG Version: 6.00 Build 0)  -->
<svg version="1.1" id="Layer_2" xmlns="http://www.w3.org/2000/svg" xmlns:xlink="http://www.w3.org/1999/xlink" x="0px" y="0px"
	 viewBox="0 0 128 128" style="enable-background:new 0 0 128 128;" xml:space="preserve">
<path style="fill:#FECA18;" d="M78,67.82l-22.83,3.97c0,0-7.6,19.36-8.07,20.67s-0.45,3.38,1.62,3.38c2.63,0,15.98-0.07,15.98-0.07
	s-3.24,15.63-3.43,17.03s1.31,2.63,2.63,1.22s19.51-24.79,20.3-25.93c1.41-2.04,0.05-3.92-1.55-4.01
	c-1.6-0.09-12.32,0.14-12.32,0.14L78,67.82z"/>
<path style="fill:#FDB900;" d="M71.92,70.54c0,0-5.09,11.26-5.28,11.9c-0.56,1.9,1.9,2.67,2.6,1.13c0.7-1.55,6.76-14.08,6.76-14.08
	L71.92,70.54z"/>
<path style="fill:#FDB900;" d="M49.99,92.17c1.34-0.04,13.1-0.07,14.08-0.14c1.83-0.14,2.11,2.39,0,2.39
	c-2.19,0-13.73,0.04-14.43,0.07C48.02,94.57,47.8,92.24,49.99,92.17z"/>
<path style="fill:#FFE36A;" d="M59.42,69.01c0,0-6,15.06-6.34,16.19c-1.41,4.72,3.66,4.58,5,1.9c0.66-1.33,7.11-14.99,7.39-17.46
	C65.75,67.18,59.42,69.01,59.42,69.01z"/>
<path style="fill:#FFE36A;" d="M61.01,86.57c-0.86-0.59-1.9-0.07-2.53,0.92c-0.63,0.99-1.55,2.6-0.14,3.45
	c1.27,0.76,2.39-0.77,2.89-1.48C61.72,88.75,62.35,87.48,61.01,86.57z"/>
<path style="fill:#FFE36A;" d="M71.34,89.8c-2.29-0.49-3.03,1.41-3.52,3.66c-0.49,2.25-2.33,9.53-2.67,11.33
	c-0.49,2.53,1.83,2.89,2.82,0.56c0.74-1.74,3.95-9.59,4.36-10.84C72.96,92.62,73.66,90.3,71.34,89.8z"/>
<path style="fill:#E4EAEE;" d="M107.92,46.26c0,0,2.6-34.98-27.31-39.42C53.72,2.85,48.44,28.38,48.44,28.38s-10.16-2.37-17.46,4.15
	c-7.25,6.48-6.69,14.15-6.69,14.15S6.41,43.86,4.58,59.21C2.87,73.55,24.01,69.98,24.01,69.98l100.38-7.39c0,0,2.38-7.54-5.21-13.23
	C114.67,45.97,107.92,46.26,107.92,46.26z"/>
<radialGradient id="SVGID_1_" cx="65.8112" cy="75.2767" r="29.4343" fx="52.6339" fy="75.4035" gradientTransform="matrix(0.0288 -0.9996 1.4975 0.0432 -48.813 137.8088)" gradientUnits="userSpaceOnUse">
	<stop  offset="0.1934" style="stop-color:#FFE366"/>
	<stop  offset="0.3305" style="stop-color:#EDDD82"/>
	<stop  offset="0.5709" style="stop-color:#D0D4AD"/>
	<stop  offset="0.7589" style="stop-color:#BFCFC7"/>
	<stop  offset="0.8699" style="stop-color:#B8CDD1"/>
</radialGradient>
<path style="fill:url(#SVGID_1_);" d="M53.81,54.19c0.84-0.28,5.63,3.81,19.43,3.94c18.96,0.19,33.32-10.98,33.32-10.98
	s0.48,3.4-1.03,5.82c-1.88,3-4.79,3.57-4.79,3.57s5.26,3.66,12.48,3.1c6.51-0.51,11.22-2.72,11.22-2.72s0.63,3.21,0.28,6.34
	c-0.7,6.24-4.36,8.78-8.4,9.24c-2.97,0.34-28.34,0.46-38.76,0.56c-9.39,0.09-57.24,1.29-62.13,0.75c-5.07-0.56-8.92-3.61-10.32-7.98
	c-1.07-3.31-0.56-5.44-0.56-5.44s9.32,2.47,14.55,1.88c6.57-0.75,10.98-4.88,10.98-4.88s3.94,2.25,12.67,1.5
	C50.26,58.23,53.81,54.19,53.81,54.19z"/>
<path style="fill:#52C0EE;" d="M103.9,74.2c-1.02-0.57-4.65,2.82-6.69,4.86c-1.25,1.25-5.23,4.52-5.77,7.67
	c-1.34,7.74,7.53,9.5,11.05,5.91c2.66-2.71,2.18-8,2.18-9.78C104.68,80.39,105.17,74.9,103.9,74.2z"/>
<path style="fill:#52C0EE;" d="M31.02,78.36c-0.97-0.56-4.45,2.72-6.41,4.71c-1.2,1.21-5.01,4.38-5.55,7.46
	c-1.32,7.55,7.13,9.32,10.51,5.84c2.55-2.63,2.13-7.8,2.14-9.54C31.72,84.42,32.22,79.06,31.02,78.36z"/>
<path style="fill:#52C0EE;" d="M47.15,100.74c-1.09-0.41-4.76,2.93-6.8,4.97c-1.25,1.25-4.95,4.45-5.49,7.6
	c-1.34,7.74,7.25,9.57,10.77,5.98c2.66-2.71,2.22-8,2.18-9.78C47.71,104.87,47.9,101.02,47.15,100.74z"/>
<path style="fill:#B2E6FE;" d="M97.78,84.22c-1.4-0.73-3.1-0.42-4.18,1.83c-1.08,2.25-0.19,4.04,0.94,4.55
	c1.3,0.6,2.91,0.05,3.99-1.78C99.61,86.99,98.95,84.83,97.78,84.22z"/>
<path style="fill:#B2E6FE;" d="M40.01,110.93c-1.44-0.5-3.02,0.03-3.74,2.34c-0.72,2.31,0.39,3.89,1.54,4.23
	c1.33,0.39,2.79-0.36,3.57-2.27C42.15,113.32,41.21,111.35,40.01,110.93z"/>
<path style="fill:#B2E6FE;" d="M24.07,87.97c-1.52-0.42-3.12,0.23-3.7,2.66c-0.58,2.43,0.66,3.99,1.87,4.25
	c1.4,0.31,2.85-0.56,3.53-2.58C26.44,90.3,25.35,88.32,24.07,87.97z"/>
</svg>
