<?xml version="1.0" encoding="UTF-8" standalone="no"?><svg xmlns:dc="http://purl.org/dc/elements/1.1/" xmlns:cc="http://creativecommons.org/ns#" xmlns:rdf="http://www.w3.org/1999/02/22-rdf-syntax-ns#" xmlns:svg="http://www.w3.org/2000/svg" xmlns="http://www.w3.org/2000/svg" viewBox="0 0 45 45" style="enable-background:new 0 0 45 45;" xml:space="preserve" version="1.1" id="svg2"><metadata id="metadata8"><rdf:RDF><cc:Work rdf:about=""><dc:format>image/svg+xml</dc:format><dc:type rdf:resource="http://purl.org/dc/dcmitype/StillImage"/></cc:Work></rdf:RDF></metadata><defs id="defs6"><clipPath id="clipPath16" clipPathUnits="userSpaceOnUse"><path id="path18" d="M 0,36 36,36 36,0 0,0 0,36 Z"/></clipPath></defs><g transform="matrix(1.25,0,0,-1.25,0,45)" id="g10"><g id="g12"><g clip-path="url(#clipPath16)" id="g14"><g transform="translate(36,4)" id="g20"><path id="path22" style="fill:#9266cc;fill-opacity:1;fill-rule:nonzero;stroke:none" d="m 0,0 c 0,-2.209 -1.791,-4 -4,-4 l -28,0 c -2.209,0 -4,1.791 -4,4 l 0,28 c 0,2.209 1.791,4 4,4 l 28,0 c 2.209,0 4,-1.791 4,-4 L 0,0 Z"/></g><g transform="translate(18,5.5)" id="g24"><path id="path26" style="fill:#ffffff;fill-opacity:1;fill-rule:nonzero;stroke:none" d="m 0,0 c -5.526,0 -8,4.27 -8,8.5 l 0,15 c 0,0.829 0.671,1.5 1.5,1.5 0.829,0 1.5,-0.671 1.5,-1.5 l 0,-15 C -5,7.21 -4.64,3 0,3 4.64,3 5,7.21 5,8.5 l 0,15 C 5,24.329 5.672,25 6.5,25 7.328,25 8,24.329 8,23.5 L 8,8.5 C 8,4.27 5.526,0 0,0"/></g><g transform="translate(4,14.5)" id="g28"><path id="path30" style="fill:#ffffff;fill-opacity:1;fill-rule:nonzero;stroke:none" d="m 0,0 c -0.384,0 -0.768,0.146 -1.061,0.439 -0.585,0.586 -0.585,1.536 0,2.122 0.525,0.524 0.987,1.018 1.415,1.475 C 2.428,6.251 4.066,8 8,8 10.43,8 12.649,6.613 14.795,5.272 16.664,4.104 18.431,3 20,3 c 2.633,0 3.518,0.945 5.457,3.015 0.447,0.479 0.933,0.996 1.482,1.546 0.586,0.585 1.536,0.585 2.122,0 0.585,-0.586 0.585,-1.536 0,-2.122 C 28.536,4.915 28.074,4.421 27.646,3.964 25.572,1.749 23.934,0 20,0 17.569,0 15.351,1.387 13.205,2.728 11.335,3.896 9.57,5 8,5 5.367,5 4.482,4.055 2.543,1.985 2.095,1.507 1.611,0.989 1.061,0.439 0.768,0.146 0.384,0 0,0"/></g></g></g></g></svg>
