<?xml version="1.0" encoding="UTF-8" standalone="no"?><svg xmlns:dc="http://purl.org/dc/elements/1.1/" xmlns:cc="http://creativecommons.org/ns#" xmlns:rdf="http://www.w3.org/1999/02/22-rdf-syntax-ns#" xmlns:svg="http://www.w3.org/2000/svg" xmlns="http://www.w3.org/2000/svg" viewBox="0 0 45 45" style="enable-background:new 0 0 45 45;" xml:space="preserve" version="1.1" id="svg2"><metadata id="metadata8"><rdf:RDF><cc:Work rdf:about=""><dc:format>image/svg+xml</dc:format><dc:type rdf:resource="http://purl.org/dc/dcmitype/StillImage"/></cc:Work></rdf:RDF></metadata><defs id="defs6"><clipPath id="clipPath16" clipPathUnits="userSpaceOnUse"><path id="path18" d="M 0,36 36,36 36,0 0,0 0,36 Z"/></clipPath></defs><g transform="matrix(1.25,0,0,-1.25,0,45)" id="g10"><g id="g12"><g clip-path="url(#clipPath16)" id="g14"><g transform="translate(29.1855,2.7207)" id="g20"><path id="path22" style="fill:#f4900c;fill-opacity:1;fill-rule:nonzero;stroke:none" d="M 0,0 C 1.166,-1.166 3.021,-1.221 4.121,-0.121 5.221,0.979 5.166,2.834 4,4 l -23.265,23.266 c -1.167,1.166 -3.021,1.221 -4.121,0.121 -1.1,-1.1 -1.046,-2.955 0.121,-4.121 L 0,0 Z"/></g><g transform="translate(3.415,28.3428)" id="g24"><path id="path26" style="fill:#f4900c;fill-opacity:1;fill-rule:nonzero;stroke:none" d="m 0,0 c -0.781,0.781 -0.781,2.048 0,2.829 l 1.414,1.414 c 0.78,0.78 2.047,0.78 2.828,0 0.781,-0.781 0.781,-2.048 0,-2.829 L 2.828,0 C 2.047,-0.78 0.78,-0.78 0,0"/></g><g transform="translate(23,35)" id="g28"><path id="path30" style="fill:#66757f;fill-opacity:1;fill-rule:nonzero;stroke:none" d="m 0,0 c -1.857,0.743 -11.001,3 -18,-4 l 0,0 c -7,-7 -4.743,-16.143 -4,-18 2,-5 1.671,1.064 2,3 1.015,5.971 3.822,9.178 5.822,11.178 2,2 5.229,4.793 11.178,5.822 1.921,0.332 8,0 3,2"/></g></g></g></g></svg>
