<svg xmlns="http://www.w3.org/2000/svg" viewBox="0 0 36 36"><path fill="#C6D5DB" d="m15.14 20.8-2.12 2.12c1.18 1.18 1.19 3.09.01 4.26l-2.83 2.83c-1.17 1.17-3.08 1.16-4.26-.01l-2.12 2.12c2.36 2.36 6.17 2.37 8.51.03l2.83-2.83c2.35-2.35 2.34-6.16-.02-8.52Z"/><path fill="#E1E8ED" d="M14.14 22.63c-.12-.12-.26-.22-.39-.32l-.68.68c1.12 1.18 1.11 3.04-.04 4.19l-2.83 2.83c-1.15 1.15-3.01 1.16-4.19.04l-.68.68c.1.14.2.27.32.39a3.52 3.52 0 0 0 4.97.02l3.54-3.54a3.51 3.51 0 0 0-.02-4.97Z"/><path fill="#E1E8ED" d="M8.82 22.96c1.17-1.17 3.08-1.16 4.26.01l2.12-2.12c-2.36-2.36-6.17-2.37-8.51-.03l-2.83 2.83c-2.34 2.35-2.33 6.16.03 8.52l2.12-2.12c-1.18-1.18-1.19-3.09-.01-4.26l2.82-2.83Z"/><path fill="#C6D5DB" d="M13.43 21.92a3.52 3.52 0 0 0-4.97-.02l-3.54 3.54c-1.37 1.37-1.36 3.59.02 4.97.12.12.26.22.39.32l.68-.68c-1.11-1.19-1.11-3.05.04-4.2l2.83-2.83c1.15-1.15 3.01-1.16 4.19-.04l.68-.68c-.1-.13-.2-.26-.32-.38ZM32.11 3.83l-2.12 2.12c1.18 1.18 1.19 3.09.01 4.26l-2.83 2.83c-1.17 1.17-3.08 1.16-4.26-.01l-2.12 2.12c2.36 2.36 6.17 2.37 8.51.03l2.83-2.83c2.35-2.35 2.34-6.16-.02-8.52Z"/><path fill="#E1E8ED" d="M31.11 5.66c-.12-.12-.26-.22-.39-.32l-.68.68c1.12 1.18 1.11 3.04-.04 4.19l-2.83 2.83c-1.15 1.15-3.01 1.16-4.19.04l-.68.68c.1.14.2.27.32.39a3.52 3.52 0 0 0 4.97.02l3.54-3.54a3.51 3.51 0 0 0-.02-4.97Zm-5.32.33c1.17-1.17 3.08-1.16 4.26.01l2.12-2.12c-2.36-2.35-6.17-2.36-8.51-.02l-2.83 2.83c-2.34 2.34-2.33 6.16.03 8.51l2.12-2.12c-1.18-1.18-1.19-3.09-.01-4.26l2.82-2.83Z"/><path fill="#C6D5DB" d="M30.4 4.95a3.519 3.519 0 0 0-4.97-.02L21.9 8.46c-1.37 1.37-1.36 3.59.02 4.97.12.12.26.22.39.32l.68-.68c-1.12-1.18-1.11-3.04.04-4.19l2.83-2.83c1.14-1.15 3-1.15 4.18-.04l.68-.68c-.1-.13-.2-.26-.32-.38ZM4.56 34.26l-2.83-2.83 4.24-4.24c.78-.78 2.05-.78 2.83 0 .78.78.78 2.05 0 2.83l-4.24 4.24Z"/><path fill="#EDF1F4" d="M8.81 27.19c-.78-.78-2.05-.78-2.83 0l-4.24 4.24 1.41 1.41 5.66-5.65Z"/><path fill="#C6D5DB" d="m20.51 18.32 5.27-5.27c.78-.78.78-2.05 0-2.83-.78-.78-2.05-.78-2.83 0l-5.27 5.27 2.83 2.83Zm-4.95-.71-5.34 5.34c-.78.78-.78 2.05 0 2.83.78.78 2.05.78 2.83 0l5.34-5.34-2.83-2.83Z"/><path fill="#EDF1F4" d="m19.11 16.92 6.68-6.68c-.79-.79-2.06-.79-2.84-.01l-5.27 5.27 1.43 1.42Zm-3.55.69-5.34 5.34c-.78.78-.78 2.05 0 2.83l6.75-6.75-1.41-1.42Z"/><path fill="#C6D5DB" d="m34.26 4.56-2.83-2.83-4.24 4.24c-.78.78-.78 2.05 0 2.83.78.78 2.05.78 2.83 0l4.24-4.24Z"/><path fill="#EDF1F4" d="M27.19 8.81c-.78-.78-.78-2.05 0-2.83l4.24-4.24 1.41 1.41-5.65 5.66Z"/><path fill="#8899A6" d="M20.515 18.32c.188-.187-.294-.972-1.075-1.753-.78-.781-1.566-1.262-1.753-1.075-.188.188.293.973 1.075 1.754.78.78 1.566 1.261 1.753 1.074Z"/><path fill="#EDF1F4" d="m17.18 19.258.132-.564c-.78-.781-1.566-1.263-1.753-1.075-.188.187.293.972 1.075 1.753 0 0 .178-.06.546-.114Z"/><path fill="#C6D5DB" d="M17.31 18.69c.78.78 1.26 1.57 1.07 1.75-.19.19-.97-.29-1.75-1.07"/><path fill="#FA743E" d="M8.777 8.76a.75.75 0 0 1 1.061 0l3.89 3.89a.75.75 0 1 1-1.062 1.06L8.777 9.822a.75.75 0 0 1 0-1.06V8.76Zm-2.882 4.872a.75.75 0 0 1 .918-.53l5.313 1.423a.75.75 0 0 1-.388 1.45L6.425 14.55a.75.75 0 0 1-.53-.919v.001Zm7.737-7.816a.75.75 0 0 1 .919.53l1.423 5.313a.749.749 0 1 1-1.449.388l-1.423-5.312a.75.75 0 0 1 .53-.919ZM27.24 27.223a.748.748 0 0 0 0-1.061l-3.89-3.89a.75.75 0 1 0-1.06 1.062l3.889 3.889a.75.75 0 0 0 1.061 0Zm-4.872 2.882a.75.75 0 0 0 .53-.918l-1.423-5.313a.75.75 0 0 0-1.45.388l1.424 5.313a.75.75 0 0 0 .919.53Zm7.816-7.737a.75.75 0 0 0-.53-.919l-5.313-1.423a.749.749 0 1 0-.388 1.449l5.312 1.423a.75.75 0 0 0 .919-.53Z"/></svg>