<?xml version="1.0" encoding="UTF-8" standalone="no"?><svg xmlns:dc="http://purl.org/dc/elements/1.1/" xmlns:cc="http://creativecommons.org/ns#" xmlns:rdf="http://www.w3.org/1999/02/22-rdf-syntax-ns#" xmlns:svg="http://www.w3.org/2000/svg" xmlns="http://www.w3.org/2000/svg" viewBox="0 0 45 45" style="enable-background:new 0 0 45 45;" xml:space="preserve" version="1.1" id="svg2"><metadata id="metadata8"><rdf:RDF><cc:Work rdf:about=""><dc:format>image/svg+xml</dc:format><dc:type rdf:resource="http://purl.org/dc/dcmitype/StillImage"/></cc:Work></rdf:RDF></metadata><defs id="defs6"><clipPath id="clipPath16" clipPathUnits="userSpaceOnUse"><path id="path18" d="M 0,36 36,36 36,0 0,0 0,36 Z"/></clipPath><clipPath id="clipPath28" clipPathUnits="userSpaceOnUse"><path id="path30" d="m 3,29 0,-4 c 0,-3.314 2.686,-6 6,-6 l 0,0 c 3.314,0 6,2.686 6,6 l 0,0 0,4 c 0,3.314 -2.686,6 -6,6 l 0,0 C 5.686,35 3,32.314 3,29 m 3,-4 0,4 c 0,1.657 1.344,3 3,3 l 0,0 c 1.656,0 3,-1.343 3,-3 l 0,0 0,-4 c 0,-1.658 -1.344,-3 -3,-3 l 0,0 c -1.656,0 -3,1.342 -3,3"/></clipPath><clipPath id="clipPath50" clipPathUnits="userSpaceOnUse"><path id="path52" d="M 0,36 36,36 36,0 0,0 0,36 Z"/></clipPath><clipPath id="clipPath62" clipPathUnits="userSpaceOnUse"><path id="path64" d="M 3,11 3,7 C 3,3.686 5.686,1 9,1 l 0,0 c 3.314,0 6,2.686 6,6 l 0,0 0,4 c 0,3.314 -2.686,6 -6,6 l 0,0 C 5.686,17 3,14.314 3,11 m 3,-4 0,4 c 0,1.657 1.344,3 3,3 l 0,0 c 1.656,0 3,-1.343 3,-3 l 0,0 0,-4 C 12,5.342 10.656,4 9,4 L 9,4 C 7.344,4 6,5.342 6,7"/></clipPath><clipPath id="clipPath84" clipPathUnits="userSpaceOnUse"><path id="path86" d="M 0,36 36,36 36,0 0,0 0,36 Z"/></clipPath><clipPath id="clipPath96" clipPathUnits="userSpaceOnUse"><path id="path98" d="m 3,29 0,-4 c 0,-3.314 2.686,-6 6,-6 l 0,0 c 3.314,0 6,2.686 6,6 l 0,0 0,4 c 0,3.314 -2.686,6 -6,6 l 0,0 C 5.686,35 3,32.314 3,29 m 3,-4 0,4 c 0,1.657 1.344,3 3,3 l 0,0 c 1.656,0 3,-1.343 3,-3 l 0,0 0,-4 c 0,-1.658 -1.344,-3 -3,-3 l 0,0 c -1.656,0 -3,1.342 -3,3"/></clipPath><clipPath id="clipPath118" clipPathUnits="userSpaceOnUse"><path id="path120" d="M 0,36 36,36 36,0 0,0 0,36 Z"/></clipPath><clipPath id="clipPath130" clipPathUnits="userSpaceOnUse"><path id="path132" d="m 7,6 0,-6 4,0 0,6 C 11,7.105 10.104,8 9,8 L 9,8 C 7.896,8 7,7.105 7,6"/></clipPath><clipPath id="clipPath140" clipPathUnits="userSpaceOnUse"><path id="path142" d="M 0,36 36,36 36,0 0,0 0,36 Z"/></clipPath><clipPath id="clipPath152" clipPathUnits="userSpaceOnUse"><path id="path154" d="m 7,36 0,-6 c 0,-1.105 0.896,-2 2,-2 l 0,0 c 1.104,0 2,0.895 2,2 l 0,0 0,6 -4,0 z"/></clipPath><clipPath id="clipPath162" clipPathUnits="userSpaceOnUse"><path id="path164" d="M 0,36 36,36 36,0 0,0 0,36 Z"/></clipPath><clipPath id="clipPath174" clipPathUnits="userSpaceOnUse"><path id="path176" d="m 21,20 0,-4 c 0,-3.314 2.686,-6 6,-6 l 0,0 c 3.314,0 6,2.686 6,6 l 0,0 0,4 c 0,3.314 -2.686,6 -6,6 l 0,0 c -3.314,0 -6,-2.686 -6,-6 m 3,-4 0,4 c 0,1.657 1.344,3 3,3 l 0,0 c 1.656,0 3,-1.343 3,-3 l 0,0 0,-4 c 0,-1.658 -1.344,-3 -3,-3 l 0,0 c -1.656,0 -3,1.342 -3,3"/></clipPath><clipPath id="clipPath196" clipPathUnits="userSpaceOnUse"><path id="path198" d="M 0,36 36,36 36,0 0,0 0,36 Z"/></clipPath><clipPath id="clipPath208" clipPathUnits="userSpaceOnUse"><path id="path210" d="m 30,36 0,-2 c 0,-1.658 -1.344,-3 -3,-3 l 0,0 c -1.656,0 -3,1.342 -3,3 l 0,0 0,2 -3,0 0,-2 c 0,-3.314 2.686,-6 6,-6 l 0,0 c 3.314,0 6,2.686 6,6 l 0,0 0,2 -3,0 z"/></clipPath><clipPath id="clipPath226" clipPathUnits="userSpaceOnUse"><path id="path228" d="M 0,36 36,36 36,0 0,0 0,36 Z"/></clipPath><clipPath id="clipPath238" clipPathUnits="userSpaceOnUse"><path id="path240" d="m 21,2 0,-2 3,0 0,2 c 0,1.658 1.344,3 3,3 l 0,0 c 1.656,0 3,-1.342 3,-3 l 0,0 0,-2 3,0 0,2 c 0,3.314 -2.686,6 -6,6 l 0,0 C 23.686,8 21,5.314 21,2"/></clipPath><clipPath id="clipPath256" clipPathUnits="userSpaceOnUse"><path id="path258" d="M 0,36 36,36 36,0 0,0 0,36 Z"/></clipPath><clipPath id="clipPath268" clipPathUnits="userSpaceOnUse"><path id="path270" d="M 25,15 25,3 c 0,-1.105 0.896,-2 2,-2 l 0,0 c 1.104,0 2,0.895 2,2 l 0,0 0,12 c 0,1.105 -0.896,2 -2,2 l 0,0 c -1.104,0 -2,-0.895 -2,-2"/></clipPath><clipPath id="clipPath278" clipPathUnits="userSpaceOnUse"><path id="path280" d="M 0,36 36,36 36,0 0,0 0,36 Z"/></clipPath><clipPath id="clipPath290" clipPathUnits="userSpaceOnUse"><path id="path292" d="m 7.125,24 0,-12 c 0,-1.105 0.896,-2 2,-2 l 0,0 c 1.104,0 2,0.895 2,2 l 0,0 0,12 c 0,1.105 -0.896,2 -2,2 l 0,0 c -1.104,0 -2,-0.895 -2,-2"/></clipPath><clipPath id="clipPath300" clipPathUnits="userSpaceOnUse"><path id="path302" d="M 0,36 36,36 36,0 0,0 0,36 Z"/></clipPath><clipPath id="clipPath312" clipPathUnits="userSpaceOnUse"><path id="path314" d="m 25,33 0,-12 c 0,-1.105 0.896,-2 2,-2 l 0,0 c 1.104,0 2,0.895 2,2 l 0,0 0,12 c 0,1.105 -0.896,2 -2,2 l 0,0 c -1.104,0 -2,-0.895 -2,-2"/></clipPath></defs><g transform="matrix(1.25,0,0,-1.25,0,45)" id="g10"><g id="g12"><g clip-path="url(#clipPath16)" id="g14"><g transform="translate(12,25)" id="g20"><path id="path22" style="fill:#c6d5db;fill-opacity:1;fill-rule:nonzero;stroke:none" d="m 0,0 c 0,-1.657 -1.344,-3 -3,-3 -1.656,0 -3,1.343 -3,3 l 0,4 c 0,1.657 1.344,3 3,3 1.656,0 3,-1.343 3,-3 L 0,0 Z M -3,10 C -6.313,10 -9,7.314 -9,4 l 0,-4 c 0,-3.313 2.687,-6 6,-6 3.314,0 6,2.687 6,6 l 0,4 c 0,3.314 -2.686,6 -6,6"/></g></g></g><g id="g24"><g clip-path="url(#clipPath28)" id="g26"><path id="path32" style="fill:#e1e8ed;fill-opacity:1;fill-rule:nonzero;stroke:none" d="M 9,18 1,18 1,35 9,35 9,18 Z"/><g transform="translate(13,24.5)" id="g34"><path id="path36" style="fill:#e1e8ed;fill-opacity:1;fill-rule:nonzero;stroke:none" d="M 0,0 C 0,-1.933 -1.567,-3.5 -3.5,-3.5 -5.433,-3.5 -7,-1.933 -7,0 l 0,5 c 0,1.933 1.567,3.5 3.5,3.5 C -1.567,8.5 0,6.933 0,5 L 0,0 Z"/></g><g transform="translate(11,24.5)" id="g38"><path id="path40" style="fill:#c6d5db;fill-opacity:1;fill-rule:nonzero;stroke:none" d="m 0,0 c 0,-1.933 -1.344,-3.5 -3,-3.5 -1.656,0 -3,1.567 -3,3.5 l 0,5 c 0,1.933 1.344,3.5 3,3.5 1.656,0 3,-1.567 3,-3.5 L 0,0 Z"/></g><path id="path42" style="fill:#c6d5db;fill-opacity:1;fill-rule:nonzero;stroke:none" d="m 12,29 -3,0 0,5 3,0 0,-5 z"/><path id="path44" style="fill:#c6d5db;fill-opacity:1;fill-rule:nonzero;stroke:none" d="m 12,29 -3,0 0,5 3,0 0,-5 z"/></g></g><g id="g46"><g clip-path="url(#clipPath50)" id="g48"><g transform="translate(12,7)" id="g54"><path id="path56" style="fill:#c6d5db;fill-opacity:1;fill-rule:nonzero;stroke:none" d="m 0,0 c 0,-1.657 -1.344,-3 -3,-3 -1.656,0 -3,1.343 -3,3 l 0,4 c 0,1.656 1.344,3 3,3 1.656,0 3,-1.344 3,-3 L 0,0 Z M -3,10 C -6.313,10 -9,7.314 -9,4 l 0,-4 c 0,-3.313 2.687,-6 6,-6 3.314,0 6,2.687 6,6 l 0,4 c 0,3.314 -2.686,6 -6,6"/></g></g></g><g id="g58"><g clip-path="url(#clipPath62)" id="g60"><path id="path66" style="fill:#e1e8ed;fill-opacity:1;fill-rule:nonzero;stroke:none" d="M 9,0 1,0 1,17 9,17 9,0 Z"/><g transform="translate(13,6.5)" id="g68"><path id="path70" style="fill:#e1e8ed;fill-opacity:1;fill-rule:nonzero;stroke:none" d="M 0,0 C 0,-1.933 -1.567,-3.5 -3.5,-3.5 -5.433,-3.5 -7,-1.933 -7,0 l 0,5 c 0,1.934 1.567,3.5 3.5,3.5 C -1.567,8.5 0,6.934 0,5 L 0,0 Z"/></g><g transform="translate(11,6.5)" id="g72"><path id="path74" style="fill:#c6d5db;fill-opacity:1;fill-rule:nonzero;stroke:none" d="m 0,0 c 0,-1.933 -1.344,-3.5 -3,-3.5 -1.656,0 -3,1.567 -3,3.5 l 0,5 c 0,1.934 1.344,3.5 3,3.5 1.656,0 3,-1.566 3,-3.5 L 0,0 Z"/></g><path id="path76" style="fill:#c6d5db;fill-opacity:1;fill-rule:nonzero;stroke:none" d="m 12,11 -3,0 0,5 3,0 0,-5 z"/><path id="path78" style="fill:#c6d5db;fill-opacity:1;fill-rule:nonzero;stroke:none" d="m 12,11 -3,0 0,5 3,0 0,-5 z"/></g></g><g id="g80"><g clip-path="url(#clipPath84)" id="g82"><g transform="translate(12,25)" id="g88"><path id="path90" style="fill:#c6d5db;fill-opacity:1;fill-rule:nonzero;stroke:none" d="m 0,0 c 0,-1.657 -1.344,-3 -3,-3 -1.656,0 -3,1.343 -3,3 l 0,4 c 0,1.657 1.344,3 3,3 1.656,0 3,-1.343 3,-3 L 0,0 Z M -3,10 C -6.313,10 -9,7.314 -9,4 l 0,-4 c 0,-3.313 2.687,-6 6,-6 3.314,0 6,2.687 6,6 l 0,4 c 0,3.314 -2.686,6 -6,6"/></g></g></g><g id="g92"><g clip-path="url(#clipPath96)" id="g94"><path id="path100" style="fill:#e1e8ed;fill-opacity:1;fill-rule:nonzero;stroke:none" d="M 9,18 1,18 1,35 9,35 9,18 Z"/><g transform="translate(13,24.5)" id="g102"><path id="path104" style="fill:#e1e8ed;fill-opacity:1;fill-rule:nonzero;stroke:none" d="M 0,0 C 0,-1.933 -1.567,-3.5 -3.5,-3.5 -5.433,-3.5 -7,-1.933 -7,0 l 0,5 c 0,1.933 1.567,3.5 3.5,3.5 C -1.567,8.5 0,6.933 0,5 L 0,0 Z"/></g><g transform="translate(11,24.5)" id="g106"><path id="path108" style="fill:#c6d5db;fill-opacity:1;fill-rule:nonzero;stroke:none" d="m 0,0 c 0,-1.933 -1.344,-3.5 -3,-3.5 -1.656,0 -3,1.567 -3,3.5 l 0,5 c 0,1.933 1.344,3.5 3,3.5 1.656,0 3,-1.567 3,-3.5 L 0,0 Z"/></g><path id="path110" style="fill:#c6d5db;fill-opacity:1;fill-rule:nonzero;stroke:none" d="m 12,29 -3,0 0,5 3,0 0,-5 z"/><path id="path112" style="fill:#c6d5db;fill-opacity:1;fill-rule:nonzero;stroke:none" d="m 12,29 -3,0 0,5 3,0 0,-5 z"/></g></g><g id="g114"><g clip-path="url(#clipPath118)" id="g116"><g transform="translate(7,0)" id="g122"><path id="path124" style="fill:#c6d5db;fill-opacity:1;fill-rule:nonzero;stroke:none" d="M 0,0 0,6 C 0,7.104 0.896,8 2,8 3.105,8 4,7.104 4,6 L 4,0 0,0 Z"/></g></g></g><g id="g126"><g clip-path="url(#clipPath130)" id="g128"><path id="path134" style="fill:#edf1f4;fill-opacity:1;fill-rule:nonzero;stroke:none" d="M 5.875,10 9,10 9,-9 l -3.125,0 0,19 z"/></g></g><g id="g136"><g clip-path="url(#clipPath140)" id="g138"><g transform="translate(7,36)" id="g144"><path id="path146" style="fill:#c6d5db;fill-opacity:1;fill-rule:nonzero;stroke:none" d="m 0,0 0,-6 c 0,-1.104 0.896,-2 2,-2 1.105,0 2,0.896 2,2 L 4,0 0,0 Z"/></g></g></g><g id="g148"><g clip-path="url(#clipPath152)" id="g150"><path id="path156" style="fill:#edf1f4;fill-opacity:1;fill-rule:nonzero;stroke:none" d="M 5.875,26 9,26 l 0,19 -3.125,0 0,-19 z"/></g></g><g id="g158"><g clip-path="url(#clipPath162)" id="g160"><g transform="translate(30,16)" id="g166"><path id="path168" style="fill:#c6d5db;fill-opacity:1;fill-rule:nonzero;stroke:none" d="m 0,0 c 0,-1.657 -1.344,-3 -3,-3 -1.656,0 -3,1.343 -3,3 l 0,4 c 0,1.657 1.344,3 3,3 1.656,0 3,-1.343 3,-3 L 0,0 Z M -3,10 C -6.313,10 -9,7.314 -9,4 l 0,-4 c 0,-3.314 2.687,-6 6,-6 3.314,0 6,2.686 6,6 l 0,4 c 0,3.314 -2.686,6 -6,6"/></g></g></g><g id="g170"><g clip-path="url(#clipPath174)" id="g172"><path id="path178" style="fill:#e1e8ed;fill-opacity:1;fill-rule:nonzero;stroke:none" d="m 27,9 -8,0 0,17 8,0 0,-17 z"/><g transform="translate(31,15.5)" id="g180"><path id="path182" style="fill:#e1e8ed;fill-opacity:1;fill-rule:nonzero;stroke:none" d="M 0,0 C 0,-1.933 -1.567,-3.5 -3.5,-3.5 -5.433,-3.5 -7,-1.933 -7,0 l 0,5 c 0,1.933 1.567,3.5 3.5,3.5 C -1.567,8.5 0,6.933 0,5 L 0,0 Z"/></g><g transform="translate(29,15.5)" id="g184"><path id="path186" style="fill:#c6d5db;fill-opacity:1;fill-rule:nonzero;stroke:none" d="m 0,0 c 0,-1.933 -1.344,-3.5 -3,-3.5 -1.656,0 -3,1.567 -3,3.5 l 0,5 c 0,1.933 1.344,3.5 3,3.5 1.656,0 3,-1.567 3,-3.5 L 0,0 Z"/></g><path id="path188" style="fill:#c6d5db;fill-opacity:1;fill-rule:nonzero;stroke:none" d="m 30,20 -3,0 0,5 3,0 0,-5 z"/><path id="path190" style="fill:#c6d5db;fill-opacity:1;fill-rule:nonzero;stroke:none" d="m 30,20 -3,0 0,5 3,0 0,-5 z"/></g></g><g id="g192"><g clip-path="url(#clipPath196)" id="g194"><g transform="translate(30,36)" id="g200"><path id="path202" style="fill:#c6d5db;fill-opacity:1;fill-rule:nonzero;stroke:none" d="m 0,0 0,-2 c 0,-1.657 -1.344,-3 -3,-3 -1.656,0 -3,1.343 -3,3 l 0,2 -3,0 0,-2 c 0,-3.313 2.687,-6 6,-6 3.314,0 6,2.687 6,6 L 3,0 0,0 Z"/></g></g></g><g id="g204"><g clip-path="url(#clipPath208)" id="g206"><path id="path212" style="fill:#e1e8ed;fill-opacity:1;fill-rule:nonzero;stroke:none" d="m 27,27 -7.042,0 0,10 7.042,0 0,-10 z"/><g transform="translate(29,33.5)" id="g214"><path id="path216" style="fill:#c6d5db;fill-opacity:1;fill-rule:nonzero;stroke:none" d="m 0,0 c 0,-1.933 -1.344,-3.5 -3,-3.5 -1.656,0 -3,1.567 -3,3.5 l 0,5 c 0,1.933 1.344,3.5 3,3.5 1.656,0 3,-1.567 3,-3.5 L 0,0 Z"/></g><g transform="translate(27.5,42)" id="g218"><path id="path220" style="fill:#e1e8ed;fill-opacity:1;fill-rule:nonzero;stroke:none" d="m 0,0 c -0.171,0 -0.335,-0.027 -0.5,-0.05 l 0,-11.9 C -0.335,-11.974 -0.171,-12 0,-12 c 1.933,0 3.5,1.567 3.5,3.5 l 0,5 C 3.5,-1.567 1.933,0 0,0"/></g></g></g><g id="g222"><g clip-path="url(#clipPath226)" id="g224"><g transform="translate(30,0)" id="g230"><path id="path232" style="fill:#c6d5db;fill-opacity:1;fill-rule:nonzero;stroke:none" d="M 0,0 0,2 C 0,3.657 -1.344,5 -3,5 -4.656,5 -6,3.657 -6,2 l 0,-2 -3,0 0,2 c 0,3.313 2.687,6 6,6 C 0.314,8 3,5.313 3,2 L 3,0 0,0 Z"/></g></g></g><g id="g234"><g clip-path="url(#clipPath238)" id="g236"><path id="path242" style="fill:#e1e8ed;fill-opacity:1;fill-rule:nonzero;stroke:none" d="m 27,9 -7.042,0 0,-10 7.042,0 0,10 z"/><g transform="translate(29,2.5)" id="g244"><path id="path246" style="fill:#c6d5db;fill-opacity:1;fill-rule:nonzero;stroke:none" d="M 0,0 C 0,1.933 -1.344,3.5 -3,3.5 -4.656,3.5 -6,1.933 -6,0 l 0,-5 c 0,-1.934 1.344,-3.5 3,-3.5 1.656,0 3,1.566 3,3.5 l 0,5 z"/></g><g transform="translate(27.5,-6)" id="g248"><path id="path250" style="fill:#e1e8ed;fill-opacity:1;fill-rule:nonzero;stroke:none" d="m 0,0 c -0.171,0 -0.335,0.027 -0.5,0.051 l 0,11.898 C -0.335,11.974 -0.171,12 0,12 1.933,12 3.5,10.433 3.5,8.5 l 0,-5 C 3.5,1.566 1.933,0 0,0"/></g></g></g><g id="g252"><g clip-path="url(#clipPath256)" id="g254"><g transform="translate(29,3)" id="g260"><path id="path262" style="fill:#c6d5db;fill-opacity:1;fill-rule:nonzero;stroke:none" d="m 0,0 c 0,-1.104 -0.895,-2 -2,-2 -1.104,0 -2,0.896 -2,2 l 0,12 c 0,1.105 0.896,2 2,2 1.105,0 2,-0.895 2,-2 L 0,0 Z"/></g></g></g><g id="g264"><g clip-path="url(#clipPath268)" id="g266"><path id="path272" style="fill:#edf1f4;fill-opacity:1;fill-rule:nonzero;stroke:none" d="M 23.875,0 27,0 l 0,19 -3.125,0 0,-19 z"/></g></g><g id="g274"><g clip-path="url(#clipPath278)" id="g276"><g transform="translate(11.125,12)" id="g282"><path id="path284" style="fill:#c6d5db;fill-opacity:1;fill-rule:nonzero;stroke:none" d="m 0,0 c 0,-1.104 -0.895,-2 -2,-2 -1.104,0 -2,0.896 -2,2 l 0,12 c 0,1.105 0.896,2 2,2 1.105,0 2,-0.895 2,-2 L 0,0 Z"/></g></g></g><g id="g286"><g clip-path="url(#clipPath290)" id="g288"><path id="path294" style="fill:#edf1f4;fill-opacity:1;fill-rule:nonzero;stroke:none" d="m 6,9 3.125,0 0,19 L 6,28 6,9 Z"/></g></g><g id="g296"><g clip-path="url(#clipPath300)" id="g298"><g transform="translate(29,21)" id="g304"><path id="path306" style="fill:#c6d5db;fill-opacity:1;fill-rule:nonzero;stroke:none" d="m 0,0 c 0,-1.104 -0.895,-2 -2,-2 -1.104,0 -2,0.896 -2,2 l 0,12 c 0,1.105 0.896,2 2,2 1.105,0 2,-0.895 2,-2 L 0,0 Z"/></g></g></g><g id="g308"><g clip-path="url(#clipPath312)" id="g310"><path id="path316" style="fill:#edf1f4;fill-opacity:1;fill-rule:nonzero;stroke:none" d="m 23.875,18 3.125,0 0,19 -3.125,0 0,-19 z"/></g></g></g></svg>
