<?xml version="1.0" encoding="utf-8"?>
<!-- Generator: Adobe Illustrator 25.2.3, SVG Export Plug-In . SVG Version: 6.00 Build 0)  -->
<svg version="1.1" id="Layer_1" xmlns="http://www.w3.org/2000/svg" xmlns:xlink="http://www.w3.org/1999/xlink" x="0px" y="0px"
	 viewBox="0 0 128 128" style="enable-background:new 0 0 128 128;" xml:space="preserve">
<g>
	<circle style="fill:#CC3333;" cx="64" cy="64" r="60"/>
	<circle style="fill:#F44336;" cx="60.1" cy="63.1" r="56.1"/>
	<path style="fill:#FF8A80;" d="M24,29.7c4.5-7.1,14.1-13,24.1-14.8c2.5-0.4,5-0.6,7.1,0.2c1.6,0.6,2.9,2.1,2,3.8
		c-0.7,1.4-2.6,2-4.1,2.5c-9.38,3.1-17.47,9.21-23,17.4c-2,3-5,11.3-8.7,9.2C17.5,45.7,18.3,38.5,24,29.7z"/>
	<path style="fill:#FAFAFA;" d="M104,72H24c-2.21,0-4-1.79-4-4v-8c0-2.21,1.79-4,4-4h80c2.21,0,4,1.79,4,4v8
		C108,70.21,106.21,72,104,72z"/>
</g>
</svg>
