<svg xmlns="http://www.w3.org/2000/svg" viewBox="0 0 64 64" enable-background="new 0 0 64 64"><path fill="#b71c3a" d="m29 9h6v12h-6z"/><path fill="#ed4c5c" d="m9 9h8v44h-8z"/><g fill="#ff6473"><path d="m10 14h5v4h-5z"/><path d="m10 22h5v28h-5z"/></g><path fill="#b71c3a" d="m6.9 9h12v4h-12z"/><path fill="#d82b45" d="m7.5 8h10v4h-10z"/><path d="m21 16c0 0-2.8 2-8 2s-8-2-8-2l.2 4.1c0 0 2.2 1.5 6.5 1.9h2.5c4.3-.5 6.5-1.9 6.5-1.9l.3-4.1" fill="#b71c3a"/><path fill="#474d51" d="m8 51h10v3h-10z"/><path fill="#5c6368" d="m9 52h7v2h-7z"/><path fill="#474d51" d="m7 54h12v10h-12z"/><path fill="#5c6368" d="m8 55h9v9h-9z"/><path fill="#ed4c5c" d="m47 9h8v44h-8z"/><g fill="#ff6473"><path d="m48 14h5v4h-5z"/><path d="m48 22h5v28h-5z"/></g><path fill="#b71c3a" d="m44.9 9h12v4h-12z"/><path fill="#d82b45" d="m45.5 8h10v4h-10z"/><path d="m59 16c0 0-2.8 2-8 2s-8-2-8-2l.2 4.1c0 0 2.2 1.5 6.5 1.9h2.5c4.3-.5 6.5-1.9 6.5-1.9l.3-4.1" fill="#b71c3a"/><path fill="#474d51" d="m46 51h10v3h-10z"/><path fill="#5c6368" d="m47 52h7v2h-7z"/><path fill="#474d51" d="m45 54h12v10h-12z"/><path fill="#5c6368" d="m46 55h9v9h-9z"/><g fill="#d82b45"><path d="m4 20h56v4h-56z"/><path d="m32 7c-19.3 0-30-2-30-2l.8 4c0 0 10.1 2 29.2 2s29.2-2 29.2-2l.8-4c0 0-10.7 2-30 2"/></g><path d="M32,2.7C11.4,2.7,0,0,0,0l0.8,5.3C0.8,5.3,11.6,8,32,8c20.4,0,31.2-2.7,31.2-2.7L64,0C64,0,52.6,2.7,32,2.7z" fill="#474d51"/></svg>