<svg xmlns="http://www.w3.org/2000/svg" viewBox="0 0 64 64" enable-background="new 0 0 64 64"><path fill="#83bf4f" d="m0 48.6h64v15.4h-64z"/><path d="m32 55.8c-14.7 0-26.7-1.9-26.7-4.3v5.2c0 2.4 12 4.3 26.7 4.3s26.7-1.9 26.7-4.3v-5.2c0 2.4-12 4.3-26.7 4.3" fill="#d0d0d0"/><ellipse cx="32" cy="45.8" rx="30.5" ry="4.8" fill="#e8e8e8"/><ellipse cx="32" cy="45.8" rx="25.7" ry="2.9" fill="#42ade2"/><path d="m35.8 42.9c-1.6-1.5-1.7-6.3-1.7-6.3h-2.1-2.1c0 0-.1 4.9-1.7 6.3-.9.8-3.3 1.8-3.8 2.9-.2.5 3.4 1 7.6 1s7.9-.5 7.6-1c-.5-1.1-2.9-2.1-3.8-2.9" fill="#e8e8e8"/><path d="m32 36.6h-2.1c0 0 0 1.7-.4 3.3.8.1 1.6.1 2.5.1.9 0 1.7 0 2.5-.1-.3-1.7-.4-3.3-.4-3.3h-2.1" fill="#d0d0d0"/><path d="m36.8 37.2c-1.5 1.9-7.8 1.7-9.5 0-1-1-1-5.7-1-5.7h11.4c0 0 0 4.6-.9 5.7" fill="#e8e8e8"/><path d="m44.7 31.3c-4 2.5-20.9 2.3-25.4 0-2.7-1.4-2.5-7.7-2.5-7.7h30.5c-.1-.1-.2 6.2-2.6 7.7" fill="#d0d0d0"/><ellipse cx="32" cy="23.8" rx="15.2" ry="1.9" fill="#e8e8e8"/><ellipse cx="32" cy="23.8" rx="13.3" ry="1" fill="#42ade2"/><path d="m58.7 53.3c-4.7 1.5-14.9 2.5-26.7 2.5s-21.9-1-26.7-2.5v2.3c4.7 1.5 14.9 2.5 26.7 2.5s21.9-1 26.7-2.5v-2.3" fill="#94989b"/><path d="m32 50.5c-16.8 0-30.5-2.1-30.5-4.8v5.7c0 2.6 13.7 4.8 30.5 4.8s30.5-2.1 30.5-4.8v-5.7c0 2.7-13.7 4.8-30.5 4.8" fill="#d0d0d0"/><path d="m32 23.8c0 0-2.5-13.7-5.7-13.7-3.5.1 4.6 7.2 5.7 13.7" fill="#b4d7ee"/><path d="m31.4 22.8c0 0-10.3-17.9-13.4-13.4-1.2 1.6 8.6 5.8 13.4 13.4" fill="#d6eef0"/><path d="m33.6 23.5c0 0 3.6-11 8.9-9.9 2 .4-7 5.7-8.9 9.9" fill="#b4d7ee"/><g fill="#d6eef0"><path d="m34.9 23.5c0 0 5.5-8.4 11.4-8.4 5.9 0 3.3 3.3 0 3.3-3.3 0-7.8.9-11.4 5.1"/><path d="m31.8 17.3c0 0-.4-12.4-4.5-13.3-3.7-.8 4.6 7 4.5 13.3"/></g><g fill="#b4d7ee"><path d="m32 24.3c0 0 0-24.3 3.6-24.3 2.6 0-3 15-3.6 24.3"/><path d="m21.5 24.4c0 0-7.6-6-7.6 21.5 0 0 .5.8 3.4.8 0 0-.1-21.5 4.2-22.3"/><path d="m42.5 24.4c0 0 7.6-6 7.6 21.5 0 0-.5.8-3.4.8 0 0 .1-21.5-4.2-22.3"/><path d="m30.8 23.5c0 0-5.5-8.4-11.4-8.4-5.9 0-3.3 3.3 0 3.3 3.3 0 7.7.9 11.4 5.1"/></g><path d="m32.1 24.1c0 0 5.9-19.8 9.9-16.2 1.6 1.4-7.1 7.8-9.9 16.2" fill="#d6eef0"/></svg>