<svg xmlns="http://www.w3.org/2000/svg" viewBox="0 0 64 64" enable-background="new 0 0 64 64"><circle cx="26.8" cy="9" r="9" fill="#e8e8e8"/><path d="m41.8 25h-30c-.6 0-1 .5-1 1v3h32v-3c0-.5-.5-1-1-1" fill="#b2c1c0"/><path fill="#d33b23" d="m12.8 29h28v31h-28z"/><g fill="#62727a"><path d="m41.8 60h-30c-.6 0-1 .5-1 1v1h32v-1c0-.5-.5-1-1-1"/><path d="m42.8 62h-32c-.6 0-1 .5-1 1v1h34v-1c0-.5-.5-1-1-1"/></g><g fill="#fff"><path d="m30.8 30.5h-8c-1.1 0-2 .9-2 2v6c0 1.1.9 2 2 2h8c1.1 0 2-.9 2-2v-6c0-1.1-.9-2-2-2"/><path d="m30.8 44h-8c-.5 0-1 .5-1 1v2c0 .5.5 1 1 1h8c.5 0 1-.5 1-1v-2c0-.5-.5-1-1-1"/></g><path fill="#e8e8e8" d="m24.8 17h4v4h-4z"/><g fill="#d33b23"><path d="m40.8 25c-3.6-2.5-8.5-4-14-4s-10.4 1.5-14 4h28"/><path d="m26.8 15.5c-3.6 0-6.5-2.9-6.5-6.5s2.9-6.5 6.5-6.5 6.5 2.9 6.5 6.5-2.9 6.5-6.5 6.5m0-12c-3 0-5.5 2.5-5.5 5.5s2.5 5.5 5.5 5.5 5.5-2.5 5.5-5.5-2.5-5.5-5.5-5.5"/></g><g fill="#fff"><path d="m30.4 59h-7.2c-.8 0-1.4-.6-1.4-1.3v-7.3c0-.7.6-1.3 1.4-1.3h7.2c.8 0 1.4.6 1.4 1.3v7.3c0 .7-.7 1.3-1.4 1.3m-7.2-9c-.2 0-.4.2-.4.3v7.3c0 .2.2.3.4.3h7.2c.2 0 .4-.2.4-.3v-7.3c0-.2-.2-.3-.4-.3h-7.2"/><path d="m31.8 42c0 .5-.5 1-1 1h-8c-.5 0-1-.5-1-1v-4c0-.5.5-1 1-1h8c.5 0 1 .5 1 1v4"/></g><g fill="#62727a"><path d="m24.8 41.5c0 .3-.2.5-.5.5h-1c-.3 0-.5-.2-.5-.5v-3c0-.3.2-.5.5-.5h1c.3 0 .5.2.5.5v3"/><path d="m27.8 41.5c0 .3-.2.5-.5.5h-1c-.3 0-.5-.2-.5-.5v-3c0-.3.2-.5.5-.5h1c.3 0 .5.2.5.5v3"/><path d="m30.8 41.5c0 .3-.2.5-.5.5h-1c-.3 0-.5-.2-.5-.5v-3c0-.3.2-.5.5-.5h1c.3 0 .5.2.5.5v3"/></g><g fill="#3e4347"><path d="m45.4 53.5h-2.9c0-1.6-1.3-2.9-2.9-2.9h-2.9v-2.9h2.9c3.1-.1 5.8 2.5 5.8 5.8"/><path d="m48.3 59.4c-3.2 0-5.9-2.6-5.9-5.9h2.9c0 1.6 1.3 2.9 2.9 2.9 1.6 0 2.9-1.3 2.9-2.9v-22.1h2.9v22.1c.2 3.2-2.4 5.9-5.7 5.9"/></g><path d="m54.2 31.4h-2.9v-.1c-2.5-.4-4.4-2.5-4.4-5.1v-.8l4.4-2.9c0-1.6-1.3-2.9-2.9-2.9v-2.9c3.2 0 5.9 2.6 5.9 5.9l-.1 8.8m-4.3-4.5c.2.6.7 1.1 1.4 1.4v-2.3l-1.4.9" fill="#d0d0d0"/></svg>