<?xml version="1.0" encoding="UTF-8" standalone="no"?><svg xmlns:dc="http://purl.org/dc/elements/1.1/" xmlns:cc="http://creativecommons.org/ns#" xmlns:rdf="http://www.w3.org/1999/02/22-rdf-syntax-ns#" xmlns:svg="http://www.w3.org/2000/svg" xmlns="http://www.w3.org/2000/svg" viewBox="0 0 45 45" style="enable-background:new 0 0 45 45;" xml:space="preserve" version="1.1" id="svg2"><metadata id="metadata8"><rdf:RDF><cc:Work rdf:about=""><dc:format>image/svg+xml</dc:format><dc:type rdf:resource="http://purl.org/dc/dcmitype/StillImage"/></cc:Work></rdf:RDF></metadata><defs id="defs6"><clipPath id="clipPath16" clipPathUnits="userSpaceOnUse"><path id="path18" d="M 0,36 36,36 36,0 0,0 0,36 Z"/></clipPath></defs><g transform="matrix(1.25,0,0,-1.25,0,45)" id="g10"><g id="g12"><g clip-path="url(#clipPath16)" id="g14"><g transform="translate(4.876,27.8267)" id="g20"><path id="path22" style="fill:#dd2e44;fill-opacity:1;fill-rule:nonzero;stroke:none" d="M 0,0 C -0.958,2.133 -0.252,4.527 1.575,5.347 3.401,6.169 5.659,5.105 6.617,2.974 7.575,0.842 6.87,-1.553 5.043,-2.373 3.216,-3.194 0.958,-2.132 0,0 M 11.93,-2.501 C 11.011,-0.455 9.927,1.565 8.904,3.759 8.876,3.827 8.854,3.896 8.823,3.965 8.759,4.107 8.686,4.242 8.614,4.378 8.597,4.416 8.579,4.451 8.562,4.489 8.561,4.488 8.561,4.487 8.56,4.486 6.922,7.476 3.466,8.848 0.583,7.553 -2.462,6.185 -3.712,2.36 -2.206,-0.99 c 1.506,-3.351 5.195,-4.957 8.24,-3.589 0.106,0.047 0.205,0.105 0.306,0.159 1.935,-0.439 1.994,-1.878 1.994,-1.878 0,0 4.618,1.523 3.596,3.797"/></g><g transform="translate(26.9775,1.1318)" id="g24"><path id="path26" style="fill:#99aab5;fill-opacity:1;fill-rule:nonzero;stroke:none" d="m 0,0 c 1.163,0.657 2.187,2.474 1.529,3.638 l -11.753,20.671 c -1.103,-0.496 -2.937,-2.313 -3.544,-3.912 L 0,0 Z"/></g><g transform="translate(31.124,27.8267)" id="g28"><path id="path30" style="fill:#dd2e44;fill-opacity:1;fill-rule:nonzero;stroke:none" d="m 0,0 c -0.959,-2.132 -3.216,-3.194 -5.044,-2.373 -1.826,0.82 -2.531,3.215 -1.572,5.347 0.956,2.131 3.214,3.195 5.041,2.373 C 0.252,4.527 0.957,2.133 0,0 M -0.584,7.553 C -3.466,8.848 -6.922,7.476 -8.56,4.486 -8.561,4.487 -8.562,4.488 -8.563,4.489 -8.58,4.451 -8.598,4.415 -8.615,4.376 -8.687,4.241 -8.76,4.107 -8.823,3.965 -8.854,3.897 -8.876,3.828 -8.904,3.759 c -1.024,-2.194 -2.108,-4.214 -3.027,-6.26 -1.021,-2.274 3.597,-3.797 3.597,-3.797 0,0 0.059,1.44 1.993,1.878 0.102,-0.054 0.2,-0.111 0.307,-0.159 3.045,-1.368 6.733,0.238 8.24,3.589 1.505,3.35 0.255,7.175 -2.79,8.543"/></g><g transform="translate(9.022,1.1318)" id="g32"><path id="path34" style="fill:#ccd6dd;fill-opacity:1;fill-rule:nonzero;stroke:none" d="m 0,0 c -1.163,0.657 -2.187,2.474 -1.529,3.638 l 11.753,20.671 c 1.103,-0.496 2.938,-2.313 3.544,-3.912 L 0,0 Z"/></g><g transform="translate(19.5625,18.6045)" id="g36"><path id="path38" style="fill:#99aab5;fill-opacity:1;fill-rule:nonzero;stroke:none" d="m 0,0 c 0,-0.863 -0.701,-1.562 -1.562,-1.562 -0.864,0 -1.562,0.699 -1.562,1.562 0,0.863 0.698,1.561 1.562,1.561 C -0.701,1.561 0,0.863 0,0"/></g></g></g></g></svg>
