<?xml version="1.0" encoding="UTF-8" standalone="no"?><svg xmlns:dc="http://purl.org/dc/elements/1.1/" xmlns:cc="http://creativecommons.org/ns#" xmlns:rdf="http://www.w3.org/1999/02/22-rdf-syntax-ns#" xmlns:svg="http://www.w3.org/2000/svg" xmlns="http://www.w3.org/2000/svg" viewBox="0 0 45 45" style="enable-background:new 0 0 45 45;" xml:space="preserve" version="1.1" id="svg2"><metadata id="metadata8"><rdf:RDF><cc:Work rdf:about=""><dc:format>image/svg+xml</dc:format><dc:type rdf:resource="http://purl.org/dc/dcmitype/StillImage"/></cc:Work></rdf:RDF></metadata><defs id="defs6"><clipPath id="clipPath16" clipPathUnits="userSpaceOnUse"><path id="path18" d="M 0,36 36,36 36,0 0,0 0,36 Z"/></clipPath></defs><g transform="matrix(1.25,0,0,-1.25,0,45)" id="g10"><g id="g12"><g clip-path="url(#clipPath16)" id="g14"><g transform="translate(30,12.1719)" id="g20"><path id="path22" style="fill:#66757f;fill-opacity:1;fill-rule:nonzero;stroke:none" d="m 0,0 c -0.391,-0.392 -1.023,-0.392 -1.414,0 l -1.414,1.414 c -0.392,0.391 -0.392,1.024 0,1.414 L 0,5.656 c 0.391,0.391 1.023,0.391 1.414,0 L 2.828,4.242 C 3.22,3.852 3.22,3.219 2.828,2.828 L 0,0 Z"/></g><g transform="translate(15,27.1719)" id="g24"><path id="path26" style="fill:#66757f;fill-opacity:1;fill-rule:nonzero;stroke:none" d="m 0,0 c -0.391,-0.392 -1.023,-0.392 -1.414,0 l -1.414,1.414 c -0.392,0.391 -0.392,1.024 0,1.414 L 0,5.656 c 0.391,0.391 1.023,0.391 1.414,0 L 2.828,4.242 C 3.22,3.852 3.22,3.219 2.828,2.828 L 0,0 Z"/></g><g transform="translate(2,14)" id="g28"><path id="path30" style="fill:#55acee;fill-opacity:1;fill-rule:nonzero;stroke:none" d="m 0,0 c 2,0 11,-1 11,-1 0,0 1,-9 1,-11 0,-2 -2,-2 -3,-1 -1,1 -4,6 -4,6 0,0 -5,3 -6,4 -1,1 -1,3 1,3"/></g><g transform="translate(3.9995,29.9614)" id="g32"><path id="path34" style="fill:#55acee;fill-opacity:1;fill-rule:nonzero;stroke:none" d="m 0,0 c 3,0.039 25,-0.961 25,-0.961 0,0 0.924,-22 0.962,-25 0.038,-3 -2.762,-4.002 -3.862,-0.001 -1.1,4.001 -5.1,17.001 -5.1,17.001 0,0 -13.955,4.416 -17.005,5.102 C -4,-2.961 -3,-0.039 0,0"/></g><g transform="translate(27,33)" id="g36"><path id="path38" style="fill:#ccd6dd;fill-opacity:1;fill-rule:nonzero;stroke:none" d="M 0,0 C 2,2 7,3 8,2 9,1 8,-4 6,-6 4,-8 -13,-24 -13,-24 c 0,0 -6.5,-4.5 -8,-3 -1.5,1.5 3,8 3,8 0,0 16,17 18,19"/></g><g transform="translate(14,14)" id="g40"><path id="path42" style="fill:#66757f;fill-opacity:1;fill-rule:nonzero;stroke:none" d="m 0,0 c 0,0 0.5,-0.5 -4,-5 -4.5,-4.5 -5,-4 -5,-4 0,0 -0.5,0.5 4,5 4.5,4.5 5,4 5,4"/></g><g transform="translate(29,32)" id="g44"><path id="path46" style="fill:#66757f;fill-opacity:1;fill-rule:nonzero;stroke:none" d="m 0,0 c 1.657,0 3,-1.343 3,-3 l 0.805,0 C 3.919,-2.685 4,-2.355 4,-2 4,-0.343 2.657,1 1,1 0.645,1 0.314,0.919 0,0.805 L 0,0 Z"/></g></g></g></g></svg>
