<svg xmlns="http://www.w3.org/2000/svg" viewBox="0 0 64 64" enable-background="new 0 0 64 64"><g fill="#acb8bf"><path transform="matrix(.7071-.7071.7071.7071-3.2532 11.4792)" d="m6.5 8.3h11.5v2.8h-11.5z"/><path transform="matrix(.7072-.707.707.7072-.5001 22.148)" d="m20.7 10.3h11.5v2.8h-11.5z"/><path transform="matrix(.7073-.7069.7069.7073-20.6921 53.5613)" d="m48.6 50.4h11.5v2.8h-11.5z"/><path transform="matrix(.7073-.7069.7069.7073-11.2004 47.9651)" d="m46.6 36.1h11.5v2.8h-11.5z"/></g><path d="m56.4 60.7c-4.7-42.1-4.7-42.1-4.7-42.1l-6.3-6.3c0 0 0 0-42.1-4.7-2-.2-1.6 4.8.7 5.9 31.7 14.8 31.7 14.8 31.7 14.8s0 0 14.8 31.7c1.1 2.3 6.1 2.7 5.9.7" fill="#42ade2"/><path d="m61.3 8.1c2.2-4.3-1.1-7.6-5.4-5.4-5.5 2.8-13.6 9.1-21.8 17.2-12.8 12.8-21 25.5-18.3 28.3 2.7 2.7 15.5-5.5 28.3-18.3 8.1-8.1 14.4-16.3 17.2-21.8" fill="#dae3ea"/><path d="m22.4 60.2c-1.6-14.8-1.6-14.8-1.6-14.8l-2.2-2.2c0 0 0 0-14.8-1.6-.7-.1-.6 1.7.2 2.1 11.1 5.2 11.1 5.2 11.1 5.2s0 0 5.2 11.1c.4.8 2.2.9 2.1.2" fill="#42ade2"/><path d="m20.2 46.2c-4.5 4.5-8.6 7.6-9.2 6.9-.6-.6 2.5-4.8 6.9-9.3 4.5-4.5 8.6-7.6 9.3-6.9.5.6-2.6 4.8-7 9.3" fill="#acb8bf"/><path d="m59.8 9.7c.5-1.8.3-3.5-.8-4.7-1.1-1.1-2.9-1.4-4.6-.8l-3.4 2.1c1.7-.6 4.2.3 5.3 1.4 1.2 1.2 2 3.6 1.4 5.3l2.1-3.3" fill="#3e4347"/><path transform="matrix(.7068-.7074.7074.7068 11.6051 42.3106)" fill="#dae3ea" d="m52.8 6.7h8v.9h-8z"/></svg>