<svg xmlns="http://www.w3.org/2000/svg" viewBox="0 0 36 36"><path fill="#AA8052" d="M18 10.087l5.007-.047h6.016c.973 0 2.265-.038 3.195.873-.81-1.187-2.172-1.967-3.718-1.967H28l-.243-.094H22.1l.016-4c0-.812.531-1.578.734-1.998-1.096.592-1.85 1.737-1.85 3.07l-.087.272v2.656L18 8.868c-1.201 0-2.182.427-2.915 1.266l-.016-1.375.016-4.828c0-.758.406-1.438.669-1.954C14.71 2.669 14 3.946 14 5.424v.522l-.181.978.031 8.022c0 .891-.414 1.576-1.031 2.125-.53.472-1.053.656-1.819.656-1.657 0-2.884-1.281-2.884-2.938L8.1 5.712c0-.816.453-1.391.756-1.861C7.757 4.441 7 5.588 7 6.924V8.81l-.072.214v6.058c0 1.989-1.891 2.786-2.828 2.786-1.719 0-3.1-1.203-3.1-2.786v2.645s.185.209.194.312c.881.882 2.156 1.016 2.984 1.016 1.594 0 2.684-.851 3.337-2.062.678 1.212 1.913 2.016 3.428 2.016s3.684-.738 4.056-3.344c.141.167.506.51.678.641.703.531 1.585.734 2.322.734l1.116-.031h1.734c-.535.27-.778.552-1.203.938-1.729 1.568-2.578 4.094-2.578 7.672 0 .276.317.562.594.562.276 0 .578-.317.578-.594 0-3.962.973-6.327 3.203-7.562 1.175-.651 2.626-.969 4.516-.969.059 0 .562-.031.562-.031.276 0 .594-.333.594-.609 0-.276-.271-.547-.547-.547H20.13L18 15.853c-1.657 0-2.915-1.281-2.915-2.938 0-1.657 1.258-2.828 2.915-2.828z"/><path fill="#D5AB88" d="M4.124 18.946c1.474 0 2.738-.831 3.392-2.043.678 1.212 1.958 2.043 3.446 2.043h.076c1.153 0 2.169-.51 2.889-1.298.022-.025.051-.043.073-.068v-.014c.185-.212.343-.448.481-.695.04-.072.069-.151.105-.227.093-.194.176-.394.236-.606.052-.173.106-.344.134-.526.141.167.296.319.46.46.069.059.147.107.221.162.116.086.229.177.355.251.589.351 1.271.56 2.008.56h3.166c-.535.27-.999.614-1.424 1-1.729 1.568-2.579 4.085-2.579 7.663 0 .276.224.5.5.5s.5-.224.5-.5c0-3.962 1.01-6.427 3.24-7.663 1.175-.651 2.682-.967 4.571-.967.059 0 .526-.033.526-.033.276 0 .5-.224.5-.5s-.224-.5-.5-.5H18c-1.657 0-3-1.343-3-3s1.343-3 3-3h11c.973 0 2.288.056 3.218.967.325.318.604.736.803 1.297l1.659 5.472c.156.512.73 2.857.626 3.346 0 7.34-8.7 14.972-19.004 14.972C6.326 36 1 27.883 1 17.957v-.229c.01.01.021.016.031.026.881.882 1.799 1.192 2.845 1.192h.248z"/><path fill="#D5AB88" d="M3.864 5.946h.271C5.718 5.946 7 7.229 7 8.81v6.273c0 1.582-1.282 2.864-2.864 2.864h-.272C2.282 17.946 1 16.664 1 15.082V8.81c0-1.581 1.282-2.864 2.864-2.864zM14 9.222v5.724c0 .891-.396 1.683-1.014 2.233-.53.472-1.221.767-1.986.767-1.657 0-3-1.343-3-3v-9c0-.816.328-1.554.857-2.095.544-.557 1.302-.905 2.143-.905 1.657 0 3 1.343 3 3v3.276zm4-.276c-1.201 0-2.267.541-3 1.38V3.947c0-.758.29-1.442.753-1.97C16.303 1.35 17.1.947 18 .947c1.657 0 3 1.343 3 3v5h-3zm4-4.007c0-.812.326-1.545.85-2.085.544-.559 1.301-.909 2.143-.909h.014C26.66 1.946 28 3.286 28 4.939v4.006h-6V4.939z"/></svg>