<?xml version="1.0" encoding="utf-8"?>
<!-- Generator: Adobe Illustrator 26.3.1, SVG Export Plug-In . SVG Version: 6.00 Build 0)  -->
<svg version="1.1" id="emoji_x5F_u270b" xmlns="http://www.w3.org/2000/svg" xmlns:xlink="http://www.w3.org/1999/xlink" x="0px"
	 y="0px" viewBox="0 0 128 128" style="enable-background:new 0 0 128 128;" xml:space="preserve">
<g>
	<g>
		<path style="fill:#F9DDBD;" d="M19.8,63.23c1.13-9.15,3.78-28.62,4.62-31.97c0.85-3.39,2.42-6.82,6.42-7.08
			c4.49-0.29,5.62,3.46,5.33,8.15c0,0-2.82,27.17-2.82,27.17c1.14-0.19,1.09-0.61,2.35-0.8c-0.09-0.6-0.07-1.23,0.01-1.83
			c0,0,1.8-29.99,2.54-35.23c0.15-1.08,1.37-8.2,6.62-8.54c4.06-0.26,6.23,1.32,6.33,6.28l-0.78,38.04c0.81-0.05,1.62-0.1,2.42-0.14
			c-0.26-1.64-0.64-26.96,0.18-40.04c0.17-2.73,0.5-4.9,0.68-6.26c0.6-4.36,2.92-7,6.08-7c4,0,6.25,0.9,6.81,7.05
			c0.66,7.24,1.45,44.39,1.1,44.41c0.1,0.67,0.12,1.39,0,2.07c0.91,0.02,1.79,0.04,2.64,0.07c0,0-2.02-34.17-1.7-38.09
			c0.31-3.92,2.25-6.04,5.59-6.34c3.67-0.33,6.51,0.83,7.56,6.91c2.52,14.59,5.71,58.88,5.97,59.92c0.26,1.05-0.76,1.38,0.15,1.66
			c1.48,0.46-4.86,42.26-31.08,42.26c-17.46,0-29.02-10.09-33.98-21.77C16.62,87.48,18.53,73.48,19.8,63.23z"/>
		<path style="fill:#F9DDBD;" d="M101.53,58.81c-10.38,6.98-13.26,19.39-13.26,19.39s-0.24-3.08-0.63-7.81
			c-9.85,18.49-22.17,41.64-28.52,53.58c13.67-0.29,28.2-5.37,42.08-33.8c6.07-12.43,10.15-19.49,12.94-23.19
			C118.69,60.94,111.18,52.31,101.53,58.81z"/>
	</g>
	<g>
		<path style="fill:#EDBD82;" d="M68.3,12.75c0.24,3.61,2.09,42.57,2.41,44.86c0.25,1.79,1.92,3.13,1.22,4.68
			c-0.49,1.08-3.28-0.47-4.31-1.36c-0.97-0.83-1.29-1.74-1.29-3.17s-1.16-45.46-1.16-45.46c-0.03-3.77-1.11-5.81-2.29-6.93
			c-0.39-0.37,0-0.92,0.53-0.8C65.83,5.13,67.91,6.98,68.3,12.75z"/>
		<path style="fill:#EDBD82;" d="M50.04,21.34c-0.09,5.26-0.5,34.61-0.66,35.92c-0.16,1.31-1.05,2.24,0.05,3.46
			c0.83,0.93,2.64,0.88,3.8,0.47c1.62-0.58,0.2-3.21,0.21-5.06c0-1.84-0.49-28.59-0.56-34.14c-0.05-4.38-1.64-6.64-3.52-7.77
			c-0.6-0.36-1.25,0.36-0.84,0.92C49.39,16.33,50.09,18.25,50.04,21.34z"/>
		<path style="fill:#EDBD82;" d="M37.54,31.64c0,0-0.69,28.62-0.68,28.71c0,0,0.45,2.25-3.22,3.43c-0.92,0.3-2.29,0.54-2.39-0.76
			c-0.05-0.73,1.27-2.49,1.35-3.09l2.48-28.95c0.07-2.97-0.58-3.49-1.95-4.63c-1.4-1.17-0.54-1.92-0.09-1.86
			C35.89,24.89,37.68,27.56,37.54,31.64z"/>
		<path style="fill:#EDBD82;" d="M56.66,98.22c6.08-19.26,27.98-19.91,27.98-19.91c0,2.43,3.66,0.15,3.66,0.15
			c-1.39,4.59-5.53,4.29-9.86,5.36c-16.35,4.05-19.34,16.08-20.8,20.01c-0.41,1.11-0.83,2.42-1.19,3.63
			c-0.25,0.83-1.47,0.63-1.44-0.24C55.06,105.09,55.44,102.09,56.66,98.22z"/>
		<path style="fill:#EDBD82;" d="M79.86,19.56c2.5,14.15,3.44,47.25,4.24,60.41l4.26-1.3c-0.18-1.25-3.02-44.31-5.7-58.2
			c-0.72-3.71-2.33-5.7-4.1-6.65c-0.66-0.35-1.27,0.51-0.76,1.06C78.66,15.82,79.46,17.28,79.86,19.56z"/>
		<path style="fill:#EDBD82;" d="M110.91,67.75c-3.44,4.16-6.82,9.53-13.22,21.5c-6.55,12.24-12.26,20.12-19.49,25.08
			c-3.61,2.48-8.78,6.12-21.21,6.16c-9.02,0.03-16.27-2.06-20.72-3.79c-0.71-0.28-1.19,0.7-0.55,1.12
			c5.43,3.54,12.45,5.83,21.47,6.16c2.49,0.09,3.61-0.06,8.78-0.78c6.79-0.95,21.73-4.6,35.61-33.04
			c6.07-12.43,9.68-19.27,12.46-22.97c0.85-1.13,1.39-2.48,1.44-3.84c0.03-0.66-0.84-0.92-1.17-0.35
			C113.66,64.1,112.59,65.72,110.91,67.75z"/>
	</g>
</g>
</svg>
