<svg xmlns="http://www.w3.org/2000/svg" viewBox="0 0 64 64" enable-background="new 0 0 64 64"><path d="m55 23.4c0 0-1.7-1.5-4.2-2.3-.7-2.3-2.4-4-4.4-4-.9 0-1.7.3-2.4.8.8.6 1.5 1.5 1.9 2.6h-10.9v-10c1.2.4 2.2 1 2.8 1.7.6-.6.9-1.4.9-2.2 0-1.9-1.8-3.5-4.3-4.1-.8-2.3-2.4-3.9-2.4-3.9s-1.6 1.6-2.5 3.9c-2.5.7-4.3 2.3-4.3 4.1 0 .8.3 1.6.9 2.2.7-.7 1.6-1.4 2.8-1.7v10h-10.7c.4-1.1 1.1-2 1.9-2.6-.7-.5-1.5-.8-2.4-.8-2 0-3.7 1.7-4.4 4-2.6.8-4.3 2.3-4.3 2.3s1.7 1.5 4.2 2.3c.7 2.3 2.4 4 4.4 4 .9 0 1.7-.3 2.4-.8-.8-.6-1.5-1.5-1.9-2.6h10.9v11.7 15.7c-1.2-.4-2.2-1-2.8-1.7-.6.6-.9 1.4-.9 2.2 0 1.9 1.8 3.5 4.3 4.1.8 2.1 2.4 3.7 2.4 3.7s1.6-1.6 2.5-3.9c2.5-.6 4.3-2.2 4.3-4.1 0-.8-.3-1.6-.9-2.2-.7.7-1.6 1.3-2.8 1.7v-15.7-11.6h10.8c-.4 1.1-1.1 2-1.9 2.6.7.5 1.5.8 2.4.8 2 0 3.7-1.7 4.4-4 2.5-.8 4.2-2.2 4.2-2.2" fill="#c28fef"/></svg>