<?xml version="1.0" encoding="UTF-8" standalone="no"?><svg xmlns:dc="http://purl.org/dc/elements/1.1/" xmlns:cc="http://creativecommons.org/ns#" xmlns:rdf="http://www.w3.org/1999/02/22-rdf-syntax-ns#" xmlns:svg="http://www.w3.org/2000/svg" xmlns="http://www.w3.org/2000/svg" viewBox="0 0 45 45" style="enable-background:new 0 0 45 45;" xml:space="preserve" version="1.1" id="svg2"><metadata id="metadata8"><rdf:RDF><cc:Work rdf:about=""><dc:format>image/svg+xml</dc:format><dc:type rdf:resource="http://purl.org/dc/dcmitype/StillImage"/></cc:Work></rdf:RDF></metadata><defs id="defs6"><clipPath id="clipPath16" clipPathUnits="userSpaceOnUse"><path id="path18" d="M 0,36 36,36 36,0 0,0 0,36 Z"/></clipPath></defs><g transform="matrix(1.25,0,0,-1.25,0,45)" id="g10"><g id="g12"><g clip-path="url(#clipPath16)" id="g14"><g transform="translate(36,4)" id="g20"><path id="path22" style="fill:#9266cc;fill-opacity:1;fill-rule:nonzero;stroke:none" d="m 0,0 c 0,-2.209 -1.791,-4 -4,-4 l -28,0 c -2.209,0 -4,1.791 -4,4 l 0,28 c 0,2.209 1.791,4 4,4 l 28,0 c 2.209,0 4,-1.791 4,-4 L 0,0 Z"/></g><g transform="translate(23.7231,12)" id="g24"><path id="path26" style="fill:#ffffff;fill-opacity:1;fill-rule:nonzero;stroke:none" d="M 0,0 2.277,3.984 4.553,0 0,0 Z M -5.723,-5.984 -8,-2 -3.446,-2 -5.723,-5.984 Z M -16,0 -13.723,3.985 -11.446,0 -16,0 Z m 0,12 4.554,0 L -13.723,8.015 -16,12 Z M -5.723,17.984 -3.446,14 -8,14 -5.723,17.984 Z M 1.125,6 -2.304,0 l -6.839,0 -3.428,6 3.428,6 6.839,0 3.429,-6 z M 4.553,12 2.277,8.016 0,12 4.553,12 Z M 3.429,6 7.145,12.504 c 0.177,0.309 0.176,0.69 -0.003,0.998 C 6.962,13.81 6.633,14 6.277,14 l -7.42,0 -3.712,6.496 c -0.355,0.623 -1.381,0.623 -1.736,0 L -10.303,14 l -7.42,0 c -0.357,0 -0.686,-0.19 -0.865,-0.498 -0.179,-0.308 -0.18,-0.689 -0.003,-0.998 L -14.875,6 -18.591,-0.504 c -0.177,-0.309 -0.176,-0.689 0.003,-0.998 C -18.409,-1.811 -18.08,-2 -17.723,-2 l 7.42,0 3.712,-6.496 C -6.414,-8.808 -6.082,-9 -5.723,-9 c 0.359,0 0.69,0.192 0.868,0.504 l 3.712,6.496 7.42,0 c 0.356,0 0.685,0.189 0.865,0.498 0.179,0.309 0.18,0.689 0.003,0.998 L 3.429,6 Z"/></g></g></g></g></svg>
