<?xml version="1.0" encoding="UTF-8" standalone="no"?><svg xmlns:dc="http://purl.org/dc/elements/1.1/" xmlns:cc="http://creativecommons.org/ns#" xmlns:rdf="http://www.w3.org/1999/02/22-rdf-syntax-ns#" xmlns:svg="http://www.w3.org/2000/svg" xmlns="http://www.w3.org/2000/svg" viewBox="0 0 45 45" style="enable-background:new 0 0 45 45;" xml:space="preserve" version="1.1" id="svg2"><metadata id="metadata8"><rdf:RDF><cc:Work rdf:about=""><dc:format>image/svg+xml</dc:format><dc:type rdf:resource="http://purl.org/dc/dcmitype/StillImage"/></cc:Work></rdf:RDF></metadata><defs id="defs6"><clipPath id="clipPath16" clipPathUnits="userSpaceOnUse"><path id="path18" d="M 0,36 36,36 36,0 0,0 0,36 Z"/></clipPath></defs><g transform="matrix(1.25,0,0,-1.25,0,45)" id="g10"><g id="g12"><g clip-path="url(#clipPath16)" id="g14"><g transform="translate(36,4)" id="g20"><path id="path22" style="fill:#77b255;fill-opacity:1;fill-rule:nonzero;stroke:none" d="m 0,0 c 0,-2.209 -1.791,-4 -4,-4 l -28,0 c -2.209,0 -4,1.791 -4,4 l 0,28 c 0,2.209 1.791,4 4,4 l 28,0 c 2.209,0 4,-1.791 4,-4 L 0,0 Z"/></g><g transform="translate(31.999,20)" id="g24"><path id="path26" style="fill:#ffffff;fill-opacity:1;fill-rule:nonzero;stroke:none" d="m 0,0 -9.171,0 6.9,6.899 c 0.781,0.782 0.782,2.047 0,2.829 -0.782,0.781 -2.047,0.781 -2.829,-10e-4 l -6.899,-6.899 0,9.172 c 0,1.104 -0.896,2 -2,2 -1.105,0 -2,-0.896 -2,-2 l 0,-9.171 -6.899,6.899 c -0.782,0.781 -2.048,0.781 -2.829,0 -0.781,-0.781 -0.781,-2.047 0,-2.828 l 6.9,-6.9 -9.172,0 c -1.105,0 -2.001,-0.896 -2,-2 0,-1.104 0.895,-2 1.999,-2 l 9.174,0 -6.901,-6.9 c -0.781,-0.781 -0.781,-2.047 0,-2.829 0.781,-0.78 2.047,-0.78 2.828,0 l 6.9,6.901 0,-9.172 c 0,-1.105 0.895,-2 2,-2 1.104,0 2,0.895 2,2 l 0,9.172 6.899,-6.899 c 0.782,-0.782 2.047,-0.783 2.829,-0.002 0.781,0.782 0.781,2.048 0,2.83 L -9.171,-4 0,-4 c 1.105,0 2.001,0.895 2.001,1.999 C 2.001,-0.895 1.105,0 0,0"/></g></g></g></g></svg>
