<?xml version="1.0" encoding="utf-8"?>
<!-- Generator: Adobe Illustrator 25.2.3, SVG Export Plug-In . SVG Version: 6.00 Build 0)  -->
<svg version="1.1" id="Layer_1" xmlns="http://www.w3.org/2000/svg" xmlns:xlink="http://www.w3.org/1999/xlink" x="0px" y="0px"
	 viewBox="0 0 128 128" style="enable-background:new 0 0 128 128;" xml:space="preserve">
<path style="fill:#7CB342;" d="M63.9,56.6c-4,0.4-7.6,3.8-7.3,8c0.3,3.9,3.2,7.1,7,7.6c4.1,0.6,8-1.9,8.9-6.2
	C73.5,60.6,69.2,56.1,63.9,56.6z"/>
<path style="fill:#7CB342;" d="M73.2,93.5c-0.5-2.6-1.2-5.1-1.8-7.6c-0.6-2.7-1.5-5.5-2.6-7.9c-1.6-3.5-5.4-4.7-7.7-1.7
	c-1.9,2.5-3.3,6.5-4.1,9.6c-2.4,8.9-9.5,35.9,6,38.1c4,0.5,8-2.1,9.8-5.8c2.2-4.8,2.1-10.2,1.6-15.4C74.2,100.2,73.7,96,73.2,93.5z"
	/>
<path style="fill:#7CB342;" d="M123.9,63c-2.1-15.6-29.1-8.5-38-6c-3.1,0.8-7.1,2.2-9.6,4.1c-3.1,2.3-1.8,6.2,1.7,7.7
	c2.5,1.1,5.3,1.9,7.9,2.6c2.5,0.6,5.1,1.2,7.6,1.8c2.5,0.5,6.7,1,9.3,1.2c5.2,0.5,10.6,0.7,15.4-1.6C121.8,71.1,124.5,67,123.9,63z"
	/>
<path style="fill:#7CB342;" d="M51.7,61.1c-2.5-1.9-6.5-3.2-9.6-4.1c-8.9-2.4-35.9-9.5-38,6c-0.5,4,2.1,8,5.8,9.8
	c4.7,2.2,10.2,2.1,15.4,1.6c2.6-0.2,6.8-0.7,9.3-1.2c2.6-0.5,5.1-1.2,7.6-1.8c2.7-0.6,5.5-1.5,7.9-2.6
	C53.6,67.3,54.8,63.5,51.7,61.1z"/>
<path style="fill:#7CB342;" d="M81.4,50.2c0.3,0,0.7-0.1,1-0.3c2.6-1.9,25.8-18.8,27.5-20.5c0.8-0.8,2.2-2.4,3-4.4
	c0.9-2.5,0.4-4.8-1.4-6.6c-1.2-1.2-2.8-1.9-4.4-1.9c-2.7,0-5.3,1.7-6.9,3.2C98.6,21.4,81.9,44.8,80,47.5c-0.5,0.7-0.4,1.6,0.2,2.2
	C80.5,50,81,50.2,81.4,50.2z"/>
<path style="fill:#7CB342;" d="M18.1,29.3C19.8,31,43,47.9,45.6,49.8c0.3,0.2,0.7,0.3,1,0.3c0.4,0,0.9-0.2,1.2-0.5
	c0.6-0.6,0.7-1.5,0.2-2.2c-1.9-2.7-18.5-26.1-20.3-27.8c-1.6-1.6-4.2-3.2-6.9-3.2c-1.7,0-3.2,0.6-4.4,1.9c-1.8,1.8-2.3,4.1-1.4,6.6
	C15.8,26.9,17.3,28.5,18.1,29.3z"/>
<path style="fill:#7CB342;" d="M109.9,98.7C108.2,97,85,80.1,82.4,78.2c-0.7-0.5-1.6-0.4-2.2,0.2s-0.7,1.5-0.2,2.2
	c1.9,2.7,18.5,26.1,20.3,27.8c1.6,1.6,4.2,3.2,6.9,3.2c1.7,0,3.2-0.6,4.4-1.9c1.8-1.8,2.3-4.1,1.4-6.6
	C112.2,101.1,110.7,99.5,109.9,98.7z"/>
<path style="fill:#7CB342;" d="M45.6,78.2C43,80.1,19.8,96.9,18.1,98.7c-0.8,0.8-2.2,2.4-3,4.4c-0.9,2.5-0.4,4.8,1.4,6.6
	c1.2,1.2,2.8,1.9,4.4,1.9c2.7,0,5.3-1.7,6.9-3.2c1.7-1.7,18.4-25.2,20.3-27.8c0.5-0.7,0.4-1.6-0.2-2.2
	C47.2,77.7,46.3,77.7,45.6,78.2L45.6,78.2z"/>
<path style="opacity:0.3;fill:#FFFFFF;enable-background:new    ;" d="M109.17,19.98c-0.59-1.44-2.73-1.48-4.78-0.39
	c-1.65,0.88-3.17,2.76-2.07,4.2c1.14,1.49,2.73-0.47,4.2-1.37C108,21.53,109.72,21.31,109.17,19.98z"/>
<path style="opacity:0.3;fill:#FFFFFF;enable-background:new    ;" d="M23.37,19.77c-0.59-1.44-2.73-1.48-4.78-0.39
	c-1.65,0.88-3.17,2.76-2.07,4.2c1.14,1.49,2.73-0.47,4.2-1.37C22.21,21.32,23.92,21.1,23.37,19.77z"/>
<path style="fill:#7CB342;" d="M61.1,51.7c2.3,3.1,6.2,1.8,7.7-1.7c1.1-2.5,1.9-5.3,2.6-7.9c0.6-2.5,1.2-5.1,1.8-7.6
	c0.5-2.5,1-6.7,1.2-9.3c0.5-5.2,0.7-10.6-1.6-15.4C71.1,6.1,67,3.5,63,4c-15.6,2.1-8.5,29.1-6,38.1C57.9,45.3,59.2,49.3,61.1,51.7z"
	/>
<path style="opacity:0.3;fill:#FFFFFF;enable-background:new    ;" d="M68.07,8.72c-0.89-2.18-4.13-2.24-7.24-0.59
	c-2.5,1.33-4.8,4.18-3.13,6.36c1.73,2.26,4.13-0.71,6.36-2.07C66.29,11.05,68.91,10.73,68.07,8.72z"/>
</svg>
