<?xml version="1.0" encoding="utf-8"?>
<!-- Generator: Adobe Illustrator 25.2.3, SVG Export Plug-In . SVG Version: 6.00 Build 0)  -->
<svg version="1.1" id="Layer_1" xmlns="http://www.w3.org/2000/svg" xmlns:xlink="http://www.w3.org/1999/xlink" x="0px" y="0px"
	 viewBox="0 0 128 128" style="enable-background:new 0 0 128 128;" xml:space="preserve">
<path style="fill:#CC3333;" d="M58.9,78.6l-41.3,41.9c-1.5,1.5-3.2,2.5-5,3c4.1,1.2,8.6,0.2,11.8-3l38.2-38.1c0.8-0.8,2.1-0.8,2.8,0
	l0,0l-3.7-3.8C61,77.8,59.7,77.8,58.9,78.6z"/>
<path style="fill:#CC3333;" d="M82.3,65.4c-0.8-0.8-0.8-2,0-2.8l38.2-38.1c4.7-4.7,4.7-12.3,0-17s-12.2-4.7-16.9,0L65.4,45.6
	c-0.8,0.8-2,0.8-2.8,0L24.5,7.5c-4.7-4.7-12.3-4.7-17,0c-0.4,0.4-0.7,0.8-1,1.2C6.7,8.4,6.9,8.2,7.1,8c4.7-4.6,10.1-2.5,14.8,2.2
	l37.6,38.5c0.8,0.8,2,0.8,2.8,0l39.3-39.2c4.7-4.7,9.4-5.1,14.1-0.4s3.9,9.6-0.8,14.3L75.6,62.6c-0.8,0.8-0.8,2,0,2.8
	c0,0,38.1,38.2,38,38.2c4.7,4.7,6.5,10,1.8,14.7s-10.6,3.5-15.3-1.1l3.4,3.4c4.7,4.7,12.3,4.7,17,0s4.7-12.2,0-16.9
	C120.5,103.6,82.3,65.4,82.3,65.4z"/>
<path style="fill:#F44336;" d="M115.4,118.3c4.7-4.7,2.9-10-1.8-14.7c0.1,0-38-38.2-38-38.2c-0.8-0.8-0.8-2,0-2.8l39.3-39.2
	c4.7-4.7,5.5-9.6,0.8-14.3s-9.4-4.3-14.1,0.4L62.3,48.7c-0.8,0.8-2,0.8-2.8,0L21.9,10.2C17.2,5.5,11.8,3.4,7.1,8
	C6.9,8.2,6.7,8.4,6.5,8.7c-3.7,4.7-3.3,11.4,1,15.7l38.1,38.2c0.8,0.8,0.8,2.1,0,2.8L7.5,103.5c-4.7,4.7-4.7,12.3,0,17
	c1.5,1.5,3.2,2.5,5,3c1.8-0.6,3.6-1.6,5-3l41.3-41.9c0.8-0.8,2.1-0.8,2.8,0l3.7,3.8l34.7,34.8C104.8,121.8,110.7,123,115.4,118.3z"
	/>
<g>
	<path style="opacity:0.2;fill:#FFFFFF;enable-background:new    ;" d="M55,56.4c-1.1-1.6-32.3-33.1-32.3-33.1s-2.3-2.6-4.7-0.8
		c-2.2,1.7-1.1,4.3,0.1,5.6s29,29.7,30.4,30.9c1.3,1.2,3.9,1.4,5.5,0.6S55.8,57.5,55,56.4z"/>
	<circle style="opacity:0.2;fill:#FFFFFF;enable-background:new    ;" cx="12.2" cy="19" r="3.3"/>
</g>
<g>
	<path style="opacity:0.2;fill:#FFFFFF;enable-background:new    ;" d="M72.1,81.8c1.1,1.6,32.8,32.6,32.8,32.6s2.3,2.6,4.7,0.7
		c2.2-1.7,1-4.3-0.2-5.6C108.2,108.2,80,80.2,78.6,79c-1.3-1.2-3.9-1.3-5.5-0.5S71.3,80.7,72.1,81.8z"/>
</g>
</svg>
