<?xml version="1.0" encoding="utf-8"?>
<!-- Generator: Adobe Illustrator 25.2.3, SVG Export Plug-In . SVG Version: 6.00 Build 0)  -->
<svg version="1.1" id="Layer_1" xmlns="http://www.w3.org/2000/svg" xmlns:xlink="http://www.w3.org/1999/xlink" x="0px" y="0px"
	 viewBox="0 0 128 128" style="enable-background:new 0 0 128 128;" xml:space="preserve">
<path style="fill:#E0E0E0;" d="M69.8,88.1l1.8-80c0.1-2.2-1.8-4.1-4-4.1H55.9c-2.3,0-4.1,1.9-4,4.1l1.8,80c0.1,2.2,1.8,3.9,4,3.9h8
	C67.9,92,69.7,90.3,69.8,88.1z"/>
<g>
	<path style="fill:#FFFFFF;" d="M64,50c0.3-1.9-0.5-26.2-0.5-26.2s0.1-3.5-2.8-3.8c-2.8-0.3-3.8,2.3-3.8,4.1
		c0,1.8,0.4,21.5,0.6,23.3c0.1,1.8,1.9,3.7,3.6,4.2S63.8,51.4,64,50z"/>
	<circle style="fill:#FFFFFF;" cx="59.6" cy="13.4" r="3.3"/>
</g>
<circle style="fill:#BDBDBD;" cx="64.1" cy="112" r="12"/>
<circle style="fill:#E0E0E0;" cx="62.4" cy="112" r="10.3"/>
<path style="fill:#FFFFFF;" d="M56.5,108.4c1.2-1.8,3.8-3.3,6.5-3.7c0.7-0.1,1.3-0.1,1.9,0.1c0.4,0.2,0.8,0.6,0.5,1
	c-0.2,0.4-0.7,0.5-1.1,0.6c-2.5,0.7-4.8,2.4-6.2,4.4c-0.5,0.8-1.4,2.9-2.4,2.4C54.7,112.5,55,110.6,56.5,108.4z"/>
<g>
	<path style="fill:#BDBDBD;" d="M71.9,4h-4.3c2.3,0,4.1,1.9,4,4.1l-1.8,80c-0.1,2.2-1.8,3.9-4,3.9H70c2.2,0,4-1.7,4-3.9l1.8-80
		C76,5.9,74.1,4,71.9,4z"/>
</g>
</svg>
