<?xml version="1.0" encoding="utf-8"?>
<!-- Generator: Adobe Illustrator 25.2.3, SVG Export Plug-In . SVG Version: 6.00 Build 0)  -->
<svg version="1.1" id="Layer_2" xmlns="http://www.w3.org/2000/svg" xmlns:xlink="http://www.w3.org/1999/xlink" x="0px" y="0px"
	 viewBox="0 0 128 128" style="enable-background:new 0 0 128 128;" xml:space="preserve">
<path style="fill:#464C4F;" d="M4.79,72.01c0,0,0.02,3.76,0.05,4.45c0.05,1.34,0.79,1.95,2.25,1.92c1.46-0.04,42.08,0.43,42.08,0.43
	l0.66-12.75L4.79,72.01z"/>
<path style="fill:#464C4F;" d="M75.39,70.28l2.55,8.21c0,0,41.06,0,42.57,0.08c1.51,0.08,2.31-0.48,2.39-1.91
	c0.08-1.44,0.22-7.22,0.22-7.22l-28.76-3.94L75.39,70.28z"/>
<path style="fill:#464C4F;" d="M47.4,114.08c0,0-0.03,5.5-0.04,6.62c-0.02,2.11,0.52,3.87,4.75,3.87s21.37-0.08,23.12-0.16
	c1.75-0.08,3.14-1.03,3.22-3.02c0.08-1.99,0.53-9.57-0.27-9.49c-0.8,0.08-18.58,0.08-18.58,0.08L47.4,114.08z"/>
<path style="fill:#616266;" d="M7.87,48.59c-2.39,0.09-3.03,0.96-3.11,3.59c-0.08,2.63,0,17.3,0,18.66s0.08,3.35,1.83,3.43
	c1.75,0.08,40.82,0.08,40.82,0.08s0,37.55,0,39.7c0,2.15,1.59,4.86,5.9,5.18s16.82,0.16,19.77,0.16c2.95,0,5.34-1.12,5.5-3.67
	c0.16-2.55,0.16-41.38,0.16-41.38s38.98-0.23,40.9-0.24c2.71-0.01,3.43-1.51,3.51-5.18c0.08-3.67-0.16-15.07-0.16-17.06
	c0-1.99-1.28-3.19-4.31-3.03c-3.03,0.16-40.34-0.16-40.34-0.16s0-40,0-41.91s-0.74-3-3.99-2.97C72.12,3.81,52.4,3.75,50.72,3.71
	c-2.12-0.05-3.09,1.43-3.07,3.82c0.02,2.31-0.16,41.22-0.16,41.22S10.02,48.51,7.87,48.59z"/>
<path style="fill:#9A9A9A;" d="M9.7,53.14c-1.59,1.75-1.91,12.12,0.96,12.12c3.21,0,2.15-5.02,6.54-6.7s6.44-2.55,6.54-4.38
	C23.89,51.22,11.46,51.2,9.7,53.14z"/>
<path style="fill:#9A9A9A;" d="M65.5,9.02c0.13,2.11-5.3,3.01-7.43,5.05c-2.14,2.04-3.5,5.3-5.1,5.25c-1.6-0.05-2.72-3.06-2.33-6.46
	s3.26-5.44,7.53-5.73S65.4,7.42,65.5,9.02z"/>
</svg>
