<?xml version="1.0" encoding="utf-8"?>
<!-- Generator: Adobe Illustrator 25.2.3, SVG Export Plug-In . SVG Version: 6.00 Build 0)  -->
<svg version="1.1" id="Layer_2" xmlns="http://www.w3.org/2000/svg" xmlns:xlink="http://www.w3.org/1999/xlink" x="0px" y="0px"
	 viewBox="0 0 128 128" style="enable-background:new 0 0 128 128;" xml:space="preserve">
<path style="fill:#464C4F;" d="M5.93,71.08c0,0-0.14,4.71,1.04,5.84c1.29,1.23,3.01,1.05,5.42,1.05s105.2,0.13,107.34,0
	s2.54-1.47,2.68-2.54c0.13-1.07,0.15-3.92,0.15-3.92l-25.31-8.67L5.93,71.08z"/>
<path style="fill:#464C4F;" d="M46.67,21.87c0,0,0.06,18.92,19.14,18.89c17.4-0.03,18.2-18.34,18.2-18.34L67.54,25.9L46.67,21.87z"
	/>
<path style="fill:#464C4F;" d="M45.78,101.59c-0.09,2.13-0.92,7.13,2.19,13.06c2.69,5.13,8.01,8.84,15.7,8.95
	c9.35,0.14,14.5-5.1,16.34-9.59c2.21-5.4,1.9-11.74,1.9-11.74s-19.31,1.11-19.98,1.65C61.25,104.47,45.78,101.59,45.78,101.59z"/>
<path style="fill:#606265;" d="M65.27,3.28c-11.11-0.2-18.87,8.57-18.6,18.6c0.24,8.87,8.97,14.59,19.14,14.32
	s17.53-7.23,18.2-13.79C84.68,15.86,79.99,3.55,65.27,3.28z"/>
<path style="fill:#606265;" d="M64.33,86.53c-12.42-0.08-19.5,9.01-18.6,18.07c0.8,8.16,10.17,14.05,18.2,14.19
	c7.76,0.13,17.4-6.02,17.94-14.99C82.38,95.24,75.91,86.61,64.33,86.53z"/>
<path style="fill:#606265;" d="M5.71,50.93c0-2.28,0.67-2.94,4.28-2.94s105.87,0.13,108.55,0.27c2.68,0.13,4.08,1.91,4.08,5.53
	c0,3.61-0.09,15.85-0.07,17.36c0.02,1.34-0.4,2.81-3.88,2.81c-3.48,0-107.48,0.13-109.48,0.13s-3.32-0.8-3.32-3.62
	C5.87,67.9,5.71,54.41,5.71,50.93z"/>
<path style="fill:#9A9A9A;" d="M52.76,104.98c2.49,0.51,3.08-3.97,6.87-6.87s5.79-4,5.73-5.82c-0.09-2.38-5.73-4.76-11.54,1.06
	C49.72,97.45,49.76,104.36,52.76,104.98z"/>
<path style="fill:#9A9A9A;" d="M54.05,23.08c2.37,0.41,3.44-4.93,6.17-7.31c2.73-2.38,6.02-4.01,4.49-6.26
	c-1.32-1.94-6.52-3.26-10.66,2.56S52.02,22.73,54.05,23.08z"/>
<path style="fill:#9A9A9A;" d="M23.87,51.36c0.2,2.2-2.27,3.56-6.54,7.09c-2.49,2.06-3.6,4.83-5.93,4.4
	c-1.37-0.25-1.4-3.11-1.47-6.08c-0.06-2.5,0.15-4.71,0.89-5.54c1.08-1.22,3.33-1.12,5.93-1.22C20.06,49.88,23.75,50.01,23.87,51.36z
	"/>
</svg>
