<svg xmlns="http://www.w3.org/2000/svg" viewBox="0 0 64 64" enable-background="new 0 0 64 64"><path d="m56.4 22.3c1.6-.2 3.5-.3 5.6-.3v-4.9c-6.1 0-10.5.9-13 1.6-5.4-1.8-11.1-2.7-17-2.7-6 0-11.8.9-17.3 2.8-2.7-.7-7.5-1.5-12.7-1.7v4.8c2 0 3.9.2 5.6.4-3.3 2.7-5.5 6.8-5.5 11.3 0 8 6.5 14.4 14.4 14.4s14.4-6.4 14.4-14.4c0-5.1-2.7-9.6-6.7-12.1 2.6-.4 5.2-.6 7.9-.6s5.3.2 7.9.6c-4 2.5-6.7 7-6.7 12.1 0 7.9 6.4 14.4 14.4 14.4 7.9 0 14.3-6.4 14.3-14.4 0-4.6-2.2-8.7-5.6-11.3m-30.3 11.3c0 5.3-4.3 9.6-9.6 9.6s-9.6-4.3-9.6-9.6 4.3-9.6 9.6-9.6c5.3.1 9.6 4.4 9.6 9.6m21.5 9.6c-5.3 0-9.6-4.3-9.6-9.6s4.3-9.6 9.6-9.6 9.6 4.3 9.6 9.6c0 5.3-4.3 9.6-9.6 9.6" fill="#4fd1d9"/></svg>