<?xml version="1.0" encoding="utf-8"?>
<!-- Generator: Adobe Illustrator 25.2.3, SVG Export Plug-In . SVG Version: 6.00 Build 0)  -->
<svg version="1.1" id="Layer_2" xmlns="http://www.w3.org/2000/svg" xmlns:xlink="http://www.w3.org/1999/xlink" x="0px" y="0px"
	 viewBox="0 0 128 128" style="enable-background:new 0 0 128 128;" xml:space="preserve">
<path style="fill:#464C4F;" d="M3.8,50.1c-1.65,2.9-2.19,7.39,3.23,12.5C12,67.3,25.94,80.43,38.8,80.1
	c14.67-0.39,19.69-14.67,25.99-14.41c3.89,0.16,7.65,5.03,12.72,9.67c3.38,3.09,7.8,6.25,14.03,6.25c9.14,0,17.31-6.14,23.92-12.48
	c5.13-4.92,8.4-10.58,8.9-13.22c1.07-5.57-2.58-6.24-2.58-6.24L93.36,73.53L62.87,54.62L37.26,69.67L9.21,52.05L3.8,50.1z"/>
<path style="fill:#606265;" d="M6.37,47.72c-4.16,2.53-3.45,5.5-2.66,6.91c2.87,5.08,11.02,11.54,17.54,15.93
	c6.2,4.17,12.4,6.61,20.39,5.85c9.84-0.93,14.01-14.62,23.26-14.73c8.14-0.1,15.41,16.47,26.84,16.47
	c10.66,0,23.93-14.05,26.26-16.86c2.33-2.81,6.49-8.62,6.2-9.4c-0.29-0.78-1.82-5.39-8.88-4.74c-5.01,0.46-10.82,8.32-13.89,10.84
	c-2.71,2.23-6.78,5.42-10.27,5.23c-7.7-0.41-11.92-16.47-25.87-16.57c-14.25-0.1-18.8,16.03-27.71,16.47
	c-5.91,0.29-17.29-12.55-21.01-15.03C12.49,45.38,8.6,46.36,6.37,47.72z"/>
<path style="fill:#9A9A99;" d="M15.96,50.68c-0.15,1-3.34,1.26-4.65,2.07c-1.47,0.91-2.07,3.39-4.4,2.58
	C5,54.66,4.79,51.44,8.43,49.06C12.07,46.69,16.21,48.96,15.96,50.68z"/>
<path style="fill:#9A9A99;" d="M51.46,56.65c-4.96,4.9-8.89,8.34-7.02,10.21c1.59,1.59,5.87-2.89,9.75-6.47
	c4.32-3.98,10.34-7.25,7.88-9.4C60.05,49.21,55.55,52.6,51.46,56.65z"/>
<path style="fill:#9A9A99;" d="M116.52,50.55c-1.29-0.89-3.35-0.1-5.65,2.05c-2.32,2.17-5.91,5.97-9,8.63
	c-4.15,3.57-6.55,3.71-5.48,5.63c1.06,1.92,5.42,0.26,11.18-4.7C112.73,57.71,119.3,52.47,116.52,50.55z"/>
</svg>
