<?xml version="1.0" encoding="utf-8"?>
<!-- Generator: Adobe Illustrator 25.2.3, SVG Export Plug-In . SVG Version: 6.00 Build 0)  -->
<svg version="1.1" id="Layer_1" xmlns="http://www.w3.org/2000/svg" xmlns:xlink="http://www.w3.org/1999/xlink" x="0px" y="0px"
	 viewBox="0 0 128 128" style="enable-background:new 0 0 128 128;" xml:space="preserve">
<path style="fill:#F2A600;" d="M87.6,22.7c0-1.1,0-2.1,0-3c-0.1-3.8-0.7-8.3-5.5-10.2c-1-0.3-2-0.5-2.9-0.5c-1.4,0-5,0-5,0
	s-2.4,3.3-4,5L58,27.4c-1.1,1.2-3,0.7-3.4-0.8l-3.9-14.7c-1.2-4.2-2.9-6.3-6-7.5C44.1,4.1,43.3,4,42.5,4s-4.7,0-4.7,0
	s-1.7,2-3.4,3.7L8.3,31.2c-1.5,1.4-1.7,3.7-0.4,5.3l4.5,10.2c4-0.1,4,0,5.1,0s2.2-0.3,3.1-1.1L34,33.9c1.1-1.1,3-0.5,3.3,1l4.2,17.6
	c0.5,2.2,4.1,7.3,4.1,7.3s4.3,0,5.1,0c2.7,0,5.4-1.2,7.2-3.3L67,45.8c0.6-0.7,1.6-0.3,1.8,0.5c2.4,20.2,36.9,77.6,36.9,77.6s4,0,5,0
	c1.1,0,2.2-0.4,3-1.2L126,110c1.5-1.6,1.5-4.1-0.1-5.7C95.7,75.5,87.5,36,87.6,22.7z"/>
<path style="fill:#FFCC32;" d="M82.6,22.7c0-1.1,0-2.1,0-3c-0.1-3.8-0.7-8.3-5.5-10.2c-3.8-1.5-7.7,0-11.8,4.5L53.1,27.4
	c-1.1,1.2-3,0.7-3.4-0.8l-3.9-14.7c-1.2-4.2-2.9-6.3-6-7.5c-3-1.1-7.3,0.3-10.4,3.3L3.3,31.2c-1.5,1.4-1.7,3.7-0.4,5.3l6.7,8.7
	c1.5,1.9,4.2,2.1,5.9,0.4L29,33.9c1.1-1.1,3-0.5,3.3,1l4.2,17.6c0.8,3.5,3.5,6.2,7,7c3.4,0.8,7.1-0.4,9.4-3L62,45.8
	c0.6-0.7,1.6-0.3,1.8,0.5c2.5,20.6,17.4,54.9,39.2,76.5c1.6,1.6,4.1,1.5,5.7-0.1L121,110c1.5-1.6,1.5-4.1-0.1-5.7
	C90.8,75.5,82.5,36,82.6,22.7z"/>
<g>
	<circle style="fill:#FFF170;" cx="102.4" cy="95" r="3.3"/>
</g>
<path style="fill:#FFF170;" d="M96,90.6c-1,0-2-0.5-2.6-1.4c-1.3-2.1-6.58-11.69-10.07-20.23c-1.44-3.68-4.27-10.35-6.39-18.63
	c-1.57-6.13-2.67-14.25-2.98-16.87c-0.63-5.31-0.74-10.69-1.23-10.8c-1.6-0.5-2.53,3.03-4.03,3.43c-2.4,0.7-4.5-1.9-3.5-4.2
	c1.1-2.3,3.74-4.41,5.34-5.59c1.6-1.18,3.2-1.49,4.7-0.99c2.9,1,2.99,4.37,3.34,8.56c0.33,3.87,1.35,14.84,3.6,24.6
	c1.56,6.79,4.89,14.63,6.61,18.41c2.41,5.29,8.4,17.2,9.7,19.3c0.9,1.4,0.4,3.3-1,4.1C97.1,90.5,96.5,90.6,96,90.6z"/>
<path style="fill:#FFF170;" d="M45.52,24.61c-1.43-7.05-2.05-9-3.01-12.44c-0.75-2.72-3.77-4.57-6.96-3.25
	c-2.25,0.92-5.82,4.29-7.12,5.39c-1.3,1.2-3.52,3.62-1.91,5.35c1.61,1.73,4.19,0.01,5.02-0.6c0.82-0.6,1.91-1.67,3.39-2.79
	c1.01-0.77,2.24-0.17,2.54,1.03c1.24,6.19,1.95,8.25,2.25,9.46c0.36,1.43,1.31,4.6,4.24,3.7S45.82,26.41,45.52,24.61z"/>
</svg>
