<?xml version="1.0" encoding="UTF-8" standalone="no"?><svg xmlns:dc="http://purl.org/dc/elements/1.1/" xmlns:cc="http://creativecommons.org/ns#" xmlns:rdf="http://www.w3.org/1999/02/22-rdf-syntax-ns#" xmlns:svg="http://www.w3.org/2000/svg" xmlns="http://www.w3.org/2000/svg" viewBox="0 0 45 45" style="enable-background:new 0 0 45 45;" xml:space="preserve" version="1.1" id="svg2"><metadata id="metadata8"><rdf:RDF><cc:Work rdf:about=""><dc:format>image/svg+xml</dc:format><dc:type rdf:resource="http://purl.org/dc/dcmitype/StillImage"/></cc:Work></rdf:RDF></metadata><defs id="defs6"><clipPath id="clipPath16" clipPathUnits="userSpaceOnUse"><path id="path18" d="M 0,36 36,36 36,0 0,0 0,36 Z"/></clipPath></defs><g transform="matrix(1.25,0,0,-1.25,0,45)" id="g10"><g id="g12"><g clip-path="url(#clipPath16)" id="g14"><g transform="translate(36,4)" id="g20"><path id="path22" style="fill:#3b88c3;fill-opacity:1;fill-rule:nonzero;stroke:none" d="m 0,0 c 0,-2.209 -1.791,-4 -4,-4 l -28,0 c -2.209,0 -4,1.791 -4,4 l 0,28 c 0,2.209 1.791,4 4,4 l 28,0 c 2.209,0 4,-1.791 4,-4 L 0,0 Z"/></g><g transform="translate(23.0859,11.0928)" id="g24"><path id="path26" style="fill:#ffffff;fill-opacity:1;fill-rule:nonzero;stroke:none" d="m 0,0 c 1.365,0 2.42,-0.62 2.42,-2.046 0,-1.427 -1.055,-2.047 -2.233,-2.047 l -10.356,0 c -1.365,0 -2.418,0.62 -2.418,2.047 0,0.65 0.402,1.209 0.712,1.581 2.574,3.069 5.365,5.86 7.721,9.271 0.558,0.806 1.086,1.767 1.086,2.883 0,1.271 -0.961,2.388 -2.233,2.388 -3.566,0 -1.861,-5.023 -4.837,-5.023 -1.488,0 -2.264,1.054 -2.264,2.263 0,3.907 3.473,7.038 7.287,7.038 3.814,0 6.883,-2.511 6.883,-6.449 C 1.768,7.597 -3.037,3.317 -5.673,0 L 0,0 Z"/></g></g></g></g></svg>
