<?xml version="1.0" encoding="utf-8"?>
<!-- Generator: Adobe Illustrator 25.2.3, SVG Export Plug-In . SVG Version: 6.00 Build 0)  -->
<svg version="1.1" id="Layer_1" xmlns="http://www.w3.org/2000/svg" xmlns:xlink="http://www.w3.org/1999/xlink" x="0px" y="0px"
	 viewBox="0 0 128 128" style="enable-background:new 0 0 128 128;" xml:space="preserve">
<g>
	<path style="fill:#427687;" d="M116.46,3.96h-104c-4.42,0-8,3.58-8,8v104c0,4.42,3.58,8,8,8h104c4.42,0,8-3.58,8-8v-104
		C124.46,7.54,120.88,3.96,116.46,3.96z"/>
	<path style="fill:#8CAFBF;" d="M122.16,6.26c-1.54-1.46-3.58-2.28-5.7-2.3h-104c-4.42,0-8,3.58-8,8v104
		c0.02,2.12,0.84,4.16,2.3,5.7l16.8-16.8h76c3.26-0.01,5.89-2.64,5.9-5.9v-76L122.16,6.26z"/>
	<path style="fill:#FAFAFA;" d="M86.16,97.86h-42.2c-0.99,0.01-1.79-0.79-1.8-1.78c0-0.01,0-0.01,0-0.02v-5.3
		c0-0.45,0.18-0.88,0.5-1.2l22.2-24.2c2.65-2.82,4.99-5.9,7-9.2c1.35-2.23,2.07-4.79,2.1-7.4c0.12-2.88-0.84-5.7-2.7-7.9
		c-1.91-2.04-4.61-3.14-7.4-3c-3.7,0-6.5,1.1-8.6,3.4c-1.79,2.11-2.84,4.74-3,7.5c-0.07,0.95-0.85,1.68-1.8,1.7h-7.7
		c-0.99,0.01-1.8-0.78-1.81-1.77c0-0.08,0-0.16,0.01-0.23c0.24-3.24,1.2-6.38,2.8-9.2c1.89-3.3,4.7-5.98,8.1-7.7
		c3.75-1.89,7.9-2.85,12.1-2.8c6.6,0,11.8,1.7,15.7,5s5.7,7.9,5.7,13.8c-0.1,3.75-1.1,7.41-2.9,10.7c-2.58,4.62-5.74,8.89-9.4,12.7
		l-13.8,14.8c-0.7,0.73-0.68,1.89,0.05,2.59c0.34,0.32,0.78,0.51,1.25,0.51h25.6c0.99-0.01,1.79,0.79,1.8,1.78c0,0.01,0,0.01,0,0.02
		v5.4c0.01,0.99-0.79,1.79-1.78,1.8C86.17,97.86,86.17,97.86,86.16,97.86z"/>
	<path style="opacity:0.5;fill:#B4E1ED;enable-background:new    ;" d="M40.16,12.86c0-2.3-1.6-3-10.8-2.7c-7.7,0.3-11.5,1.2-13.8,4
		s-2.9,8.5-3,15.3c0,4.8,0,9.3,2.5,9.3c3.4,0,3.4-7.9,6.2-12.3C26.66,17.76,40.16,15.86,40.16,12.86z"/>
</g>
</svg>
