<?xml version="1.0" encoding="UTF-8" standalone="no"?><svg xmlns:dc="http://purl.org/dc/elements/1.1/" xmlns:cc="http://creativecommons.org/ns#" xmlns:rdf="http://www.w3.org/1999/02/22-rdf-syntax-ns#" xmlns:svg="http://www.w3.org/2000/svg" xmlns="http://www.w3.org/2000/svg" viewBox="0 0 45 45" style="enable-background:new 0 0 45 45;" xml:space="preserve" version="1.1" id="svg2"><metadata id="metadata8"><rdf:RDF><cc:Work rdf:about=""><dc:format>image/svg+xml</dc:format><dc:type rdf:resource="http://purl.org/dc/dcmitype/StillImage"/></cc:Work></rdf:RDF></metadata><defs id="defs6"><clipPath id="clipPath16" clipPathUnits="userSpaceOnUse"><path id="path18" d="M 0,36 36,36 36,0 0,0 0,36 Z"/></clipPath></defs><g transform="matrix(1.25,0,0,-1.25,0,45)" id="g10"><g id="g12"><g clip-path="url(#clipPath16)" id="g14"><g transform="translate(36,4)" id="g20"><path id="path22" style="fill:#3b88c3;fill-opacity:1;fill-rule:nonzero;stroke:none" d="m 0,0 c 0,-2.209 -1.791,-4 -4,-4 l -28,0 c -2.209,0 -4,1.791 -4,4 l 0,28 c 0,2.209 1.791,4 4,4 l 28,0 c 2.209,0 4,-1.791 4,-4 L 0,0 Z"/></g><g transform="translate(15.0562,14.3174)" id="g24"><path id="path26" style="fill:#ffffff;fill-opacity:1;fill-rule:nonzero;stroke:none" d="m 0,0 c 0,-1.736 1.085,-3.225 2.945,-3.225 1.768,0 2.946,1.427 2.946,3.225 0,1.644 -0.992,3.225 -2.946,3.225 C 1.178,3.225 0,1.829 0,0 m -4.837,0 c 0,4.682 4.744,11.255 7.875,14.17 0.249,0.248 0.621,0.496 0.993,0.744 0.341,0.217 0.682,0.217 0.93,0.217 0.868,0 2.202,-1.148 2.202,-2.264 0,-0.433 -0.28,-0.805 -0.652,-1.271 C 5.271,10.077 3.256,8.093 2.232,6.635 L 2.294,6.573 c 0.559,0.248 1.271,0.372 1.955,0.372 3.72,0 6.479,-3.286 6.479,-6.945 0,-4.03 -3.194,-7.689 -7.783,-7.689 -4.774,0 -7.782,3.565 -7.782,7.689"/></g></g></g></g></svg>
