<?xml version="1.0" encoding="UTF-8" standalone="no"?><svg xmlns:dc="http://purl.org/dc/elements/1.1/" xmlns:cc="http://creativecommons.org/ns#" xmlns:rdf="http://www.w3.org/1999/02/22-rdf-syntax-ns#" xmlns:svg="http://www.w3.org/2000/svg" xmlns="http://www.w3.org/2000/svg" viewBox="0 0 45 45" style="enable-background:new 0 0 45 45;" xml:space="preserve" version="1.1" id="svg2"><metadata id="metadata8"><rdf:RDF><cc:Work rdf:about=""><dc:format>image/svg+xml</dc:format><dc:type rdf:resource="http://purl.org/dc/dcmitype/StillImage"/></cc:Work></rdf:RDF></metadata><defs id="defs6"><clipPath id="clipPath16" clipPathUnits="userSpaceOnUse"><path id="path18" d="M 0,36 36,36 36,0 0,0 0,36 Z"/></clipPath></defs><g transform="matrix(1.25,0,0,-1.25,0,45)" id="g10"><g id="g12"><g clip-path="url(#clipPath16)" id="g14"><g transform="translate(36,4)" id="g20"><path id="path22" style="fill:#3b88c3;fill-opacity:1;fill-rule:nonzero;stroke:none" d="m 0,0 c 0,-2.209 -1.791,-4 -4,-4 l -28,0 c -2.209,0 -4,1.791 -4,4 l 0,28 c 0,2.209 1.791,4 4,4 l 28,0 c 2.209,0 4,-1.791 4,-4 L 0,0 Z"/></g><g transform="translate(15.769,22.999)" id="g24"><path id="path26" style="fill:#ffffff;fill-opacity:1;fill-rule:nonzero;stroke:none" d="m 0,0 c 0,-1.396 0.807,-2.356 2.232,-2.356 1.427,0 2.265,0.96 2.265,2.356 0,1.333 -0.807,2.356 -2.265,2.356 C 0.775,2.356 0,1.333 0,0 m -0.589,-8.991 c 0,-1.582 0.93,-3.102 2.821,-3.102 1.769,0 2.822,1.52 2.822,3.102 0,1.953 -1.116,3.1 -2.822,3.1 -1.797,0 -2.821,-1.364 -2.821,-3.1 m -4.837,-0.311 c 0,2.481 1.365,4.31 3.318,5.364 -1.457,1.054 -2.357,2.481 -2.357,4.434 0,3.628 3.008,5.953 6.697,5.953 3.597,0 6.73,-2.294 6.73,-5.953 0,-1.736 -0.87,-3.473 -2.389,-4.434 2.109,-1.054 3.318,-2.976 3.318,-5.364 0,-4.309 -3.504,-7.069 -7.659,-7.069 -4.278,0 -7.658,2.915 -7.658,7.069"/></g></g></g></g></svg>
