<?xml version="1.0" encoding="utf-8"?>
<!-- Generator: Adobe Illustrator 25.2.3, SVG Export Plug-In . SVG Version: 6.00 Build 0)  -->
<svg version="1.1" id="Layer_1" xmlns="http://www.w3.org/2000/svg" xmlns:xlink="http://www.w3.org/1999/xlink" x="0px" y="0px"
	 viewBox="0 0 128 128" style="enable-background:new 0 0 128 128;" xml:space="preserve">
<g>
	<path style="fill:#427687;" d="M116.46,3.96h-104c-4.42,0-8,3.58-8,8v104c0,4.42,3.58,8,8,8h104c4.42,0,8-3.58,8-8v-104
		C124.46,7.54,120.88,3.96,116.46,3.96z"/>
	<path style="fill:#8CAFBF;" d="M122.16,6.26c-1.54-1.46-3.58-2.28-5.7-2.3h-104c-4.42,0-8,3.58-8,8v104
		c0.02,2.12,0.84,4.16,2.3,5.7l16.8-16.8h76c3.26-0.01,5.89-2.64,5.9-5.9v-76L122.16,6.26z"/>
	<path style="fill:#FAFAFA;" d="M85.06,47.46c0.06,3.12-0.81,6.18-2.5,8.8c-1.72,2.6-4.1,4.71-6.9,6.1c3.27,1.44,6.07,3.76,8.1,6.7
		c1.89,2.84,2.87,6.19,2.8,9.6c0,5.9-2,10.6-6,14.1s-9.3,5.2-16,5.2s-12-1.7-16-5.2s-6-8.2-6-14c-0.02-3.45,0.99-6.83,2.9-9.7
		c1.96-2.94,4.74-5.23,8-6.6c-2.8-1.39-5.18-3.5-6.9-6.1c-1.69-2.62-2.56-5.68-2.5-8.8c0-5.7,1.8-10.3,5.5-13.6s8.7-5,14.9-5
		c6.2,0,11.3,1.7,15,5S85.06,41.76,85.06,47.46z M75.26,78.06c0.12-2.99-0.96-5.91-3-8.1c-2.05-2.07-4.89-3.16-7.8-3
		c-2.91-0.15-5.74,0.94-7.8,3c-2,2-2.9,4.7-2.9,8.1c-0.12,2.91,0.92,5.76,2.9,7.9c1.9,2,4.6,3,8,3c2.92,0.16,5.78-0.89,7.9-2.9
		C74.36,84.16,75.26,81.46,75.26,78.06z M73.86,47.86c0.11-2.63-0.78-5.2-2.5-7.2c-1.74-1.89-4.23-2.92-6.8-2.8
		c-2.55-0.13-5.03,0.86-6.8,2.7c-1.77,2.05-2.66,4.7-2.5,7.4c-0.16,2.67,0.74,5.29,2.5,7.3c1.74,1.82,4.18,2.81,6.7,2.7
		c2.55,0.13,5.03-0.86,6.8-2.7C73.04,53.22,73.97,50.57,73.86,47.86z"/>
	<path style="opacity:0.5;fill:#B4E1ED;enable-background:new    ;" d="M40.16,12.86c0-2.3-1.6-3-10.8-2.7c-7.7,0.3-11.5,1.2-13.8,4
		s-2.9,8.5-3,15.3c0,4.8,0,9.3,2.5,9.3c3.4,0,3.4-7.9,6.2-12.3C26.66,17.76,40.16,15.86,40.16,12.86z"/>
</g>
</svg>
