<?xml version="1.0" encoding="utf-8"?>
<!-- Generator: Adobe Illustrator 25.2.3, SVG Export Plug-In . SVG Version: 6.00 Build 0)  -->
<svg version="1.1" id="Layer_2" xmlns="http://www.w3.org/2000/svg" xmlns:xlink="http://www.w3.org/1999/xlink" x="0px" y="0px"
	 viewBox="0 0 128 128" style="enable-background:new 0 0 128 128;" xml:space="preserve">
<path style="fill:#464C4F;" d="M4.51,58.36c0,0-2.87,20.96,9.33,39.44c10,15.14,25.92,25.31,48.06,25.78
	c20.96,0.44,36.4-6.84,48.23-21.29c15.92-19.45,13.45-40.92,13.45-43.64c0-4.66-8.62,21.02-8.62,21.02l-24.28,31.6l-35.59,6.49
	c0,0-28.44-12.47-28.61-13.14C26.31,103.95,4.51,58.36,4.51,58.36z"/>
<path style="fill:#464C4F;" d="M43.5,90.13c0,0-0.08,4.51,0.08,4.93c0.17,0.42,3.51,0.5,6.1,0.5c2.76,0,6.39,0.14,6.47-0.61
	c0.12-1.08,0.07-5.01,0.07-5.01l-7.63-4.66L43.5,90.13z"/>
<path style="fill:#464C4F;" d="M53.7,69.15l1.5,4.26c0,0,10.75,1.56,17.94-1.12c7.19-2.67,11.81-6.5,14.04-12.36
	c3-7.86-0.28-16.1-0.28-16.1l-10.3,16.7l-18.39,6.77L53.7,69.15z"/>
<path style="fill:#464C4F;" d="M64.14,35.22c-0.84,0.17-11.87,0.59-11.87,0.59l1.42,6.6c0,0,1.42-0.25,2.84-0.33
	c1.42-0.08,9.82-0.94,13.46,1.25c5.27,3.18,5.52,8.11,5.52,8.11s8.19-3.26,7.19-5.02c-1-1.76-6.6-9.7-6.6-9.7L64.14,35.22z"/>
<path style="fill:#464C4F;" d="M75.38,89.48c0,0,2.8,4.55,3.36,4.71s7.15,0.14,9.23,0.18c4.25,0.09,4.35-1.7,2.92-4.33
	c-1.66-3.07-3.34-4.98-3.34-4.98L75.38,89.48z"/>
<path style="fill:#606265;" d="M64.81,4.36C26.31,4.13,3.4,34.85,4.51,62.88c1.11,28.04,22.92,57.63,59.63,57.19
	c36.71-0.45,58.63-31.05,59.46-58.03S101.3,4.59,64.81,4.36z M65.26,109.83c-21.58,0.89-48.73-16.24-48.06-45.62
	c0.67-29.37,22.93-45.92,45.62-46.51c17.13-0.45,47.62,11.79,47.62,47.17C110.43,93.38,85.52,109,65.26,109.83z"/>
<path style="fill:#606265;" d="M90.14,88.79c-0.8-1.14-14.31-21.06-14.31-21.06s11.33-5.84,11.91-16.6c0.16-2.97,0-12.13-8.81-17.86
	c-8.81-5.72-27.29-3.71-31.32-3.48c-4.03,0.23-4.11,2.01-4.26,3.64c-0.15,1.63,0.16,57.81,0.16,57.81s3.03,0.2,6.35,0.18
	c3.55-0.02,6.35-0.02,6.35-0.02l-0.06-20.7l6.53,0.11l13.39,19.69c0,0,12.02-0.11,13.28,0C90.6,90.62,90.94,89.93,90.14,88.79z
	 M64.04,60.06c-4.16,0.07-8.13-0.11-8.13-0.11L55.8,39.11c0,0,4.24-0.24,8.84,0.03c5.58,0.32,10.91,3.31,10.73,10.62
	C75.18,57.67,70.45,59.94,64.04,60.06z"/>
<path style="fill:#9A9A9A;" d="M47.12,33.58c-1.31,1.13-1.48,8.55,0.26,8.89s3.49-3.84,4.88-4.88c1.4-1.05,5.52-2.53,5.41-3.84
	C57.49,31.64,49.04,31.92,47.12,33.58z"/>
<path style="fill:#9A9A9A;" d="M79.21,52.33c-1.66-0.17-2.96,4.36-4.36,5.84c-1.4,1.48-4.82,2.93-4.45,4.62
	c0.5,2.25,6.81,1.65,8.89-0.78C81.92,58.96,82.38,52.66,79.21,52.33z"/>
<path style="fill:#9A9A9A;" d="M10.06,45.44c-0.4,1.69-0.61,3.49,1.05,4.1s2.53-1.83,3.05-3.4c0.52-1.57,6.8-15.09,16.31-22.85
	c10.33-8.44,23.2-11.34,25.03-11.86s3-1.78,2.7-2.88c-0.35-1.31-2.18-1.4-3.75-1.05C53.21,7.78,40.37,8.9,27.1,19.73
	C14.28,30.19,10.5,43.61,10.06,45.44z"/>
</svg>
