<svg xmlns="http://www.w3.org/2000/svg" height="20" viewBox="0 -960 960 960" width="20"><path d="M480.392-96q-79.518 0-149.455-30Q261-156 208.5-208.5T126-330.958q-30-69.959-30-149.5Q96-560 126-629.5t82.5-122Q261-804 330.958-834q69.959-30 149.5-30Q560-864 629.5-834t122 82.5Q804-699 834-629.5T864-480v60q0 54.845-38.5 93.423Q787-288 732-288q-34 0-62.5-17t-48.66-45Q593-321 556.5-304.5T480-288q-79.68 0-135.84-56.226t-56.16-136Q288-560 344.226-616t136-56Q560-672 616-615.84T672-480v60q0 25.161 17.5 42.581Q707-360 732-360t42.5-17.419Q792-394.839 792-420v-60q0-130-91-221t-221-91q-130 0-221 91t-91 221q0 130 91 221t221 91h192v72H480.392ZM480-360q50 0 85-35t35-85q0-50-35-85t-85-35q-50 0-85 35t-35 85q0 50 35 85t85 35Z"/></svg>