<svg xmlns="http://www.w3.org/2000/svg" height="20" viewBox="0 -960 960 960" width="20"><path d="M612-516q25 0 42.5-17.5T672-576q0-25-17.5-42.5T612-636q-25 0-42.5 17.5T552-576q0 25 17.5 42.5T612-516Zm-264 0q25 0 42.5-17.5T408-576q0-25-17.5-42.5T348-636q-25 0-42.5 17.5T288-576q0 25 17.5 42.5T348-516Zm246.5 199q52.5-29 75.5-86H290q23 57 75.5 86T480-288q62 0 114.5-29ZM331-126q-70-30-122.5-82.5T126-330.96q-30-69.96-30-149.5t30-149.04q30-69.5 82.5-122T330.96-834q69.96-30 149.5-30t149.04 30q69.5 30 122 82.5T834-629.28q30 69.73 30 149Q864-401 834-331t-82.5 122.5Q699-156 629.28-126q-69.73 30-149 30Q401-96 331-126Z"/></svg>