<svg xmlns="http://www.w3.org/2000/svg" height="20" viewBox="0 -960 960 960" width="20"><path d="M612-516q25 0 42.5-17.5T672-576q0-25-17.5-42.5T612-636q-25 0-42.5 17.5T552-576q0 25 17.5 42.5T612-516Zm-264 0q25 0 42.5-17.5T408-576q0-25-17.5-42.5T348-636q-25 0-42.5 17.5T288-576q0 25 17.5 42.5T348-516Zm132 228q60 0 110.5-31t79.5-84H290q29 53 79.5 84T480-288Zm.276 192Q401-96 331-126q-70-30-122.5-82.5T126-330.958q-30-69.959-30-149.5Q96-560 126-629.5t82.5-122Q261-804 330.958-834q69.959-30 149.5-30Q560-864 629.5-834t122 82.5Q804-699 834-629.276q30 69.725 30 149Q864-401 834-331q-30 70-82.5 122.5T629.276-126q-69.725 30-149 30ZM480-480Zm0 312q130 0 221-91t91-221q0-130-91-221t-221-91q-130 0-221 91t-91 221q0 130 91 221t221 91Z"/></svg>