<svg xmlns="http://www.w3.org/2000/svg" fill="none" viewBox="0 0 20 20">
  <path fill="currentColor" d="M9.2 8.525c.35 0 .646-.12.888-.363.241-.241.362-.537.362-.887s-.12-.646-.362-.888a1.207 1.207 0 0 0-.888-.362c-.35 0-.646.12-.887.362a1.207 1.207 0 0 0-.363.888c0 .35.12.646.362.887.242.242.538.363.888.363ZM18.525 20c-.7 0-1.642-.292-2.825-.875-1.183-.583-2.45-1.375-3.8-2.375a7.564 7.564 0 0 1-1.95.25C8 17 6.35 16.325 5 14.975c-1.35-1.35-2.025-3-2.025-4.95 0-.333.025-.667.075-1a9.18 9.18 0 0 1 .2-.975C2.267 6.7 1.48 5.437.888 4.262.296 3.089 0 2.15 0 1.45 0 1 .125.646.375.387.625.13.967 0 1.4 0c.433 0 .996.15 1.688.45.691.3 1.645.808 2.862 1.525-.35.183-.675.375-.975.575-.3.2-.592.417-.875.65a9.777 9.777 0 0 0-.925-.475c-.3-.133-.617-.275-.95-.425.3.633.62 1.25.962 1.85.342.6.705 1.192 1.088 1.775A6.775 6.775 0 0 1 6.7 3.8c.983-.517 2.067-.775 3.25-.775 1.95 0 3.604.68 4.963 2.038 1.358 1.358 2.037 3.012 2.037 4.962 0 1.183-.262 2.267-.787 3.25a6.89 6.89 0 0 1-2.138 2.425c.583.383 1.18.75 1.787 1.1.609.35 1.23.667 1.863.95-.133-.317-.27-.625-.413-.925-.141-.3-.304-.608-.487-.925.25-.283.475-.583.675-.9.2-.317.383-.642.55-.975.767 1.3 1.288 2.27 1.563 2.912.274.642.412 1.18.412 1.613 0 .483-.133.846-.4 1.087-.267.242-.617.363-1.05.363ZM11.7 13.025c.283 0 .52-.096.713-.287a.968.968 0 0 0 .287-.713.968.968 0 0 0-.287-.713.968.968 0 0 0-.713-.287.968.968 0 0 0-.712.287.968.968 0 0 0-.288.713c0 .283.096.52.288.713.191.191.429.287.712.287Zm1.25-3.5a.728.728 0 0 0 .75-.75.728.728 0 0 0-.75-.75.728.728 0 0 0-.75.75.728.728 0 0 0 .75.75Zm-3.275 5.45a45.451 45.451 0 0 1-2.45-2.275 39.166 39.166 0 0 1-2.25-2.45 4.944 4.944 0 0 0 1.45 3.275c.433.433.925.775 1.475 1.025.55.25 1.142.392 1.775.425Zm2.575-.525c.8-.417 1.45-1.02 1.95-1.813.5-.791.75-1.67.75-2.637 0-1.383-.487-2.558-1.462-3.525-.976-.967-2.155-1.45-3.538-1.45-.967 0-1.842.25-2.625.75a5.052 5.052 0 0 0-1.8 1.95 33.58 33.58 0 0 0 3.125 3.6 33.583 33.583 0 0 0 3.6 3.125Z"/>
</svg>
