<svg xmlns="http://www.w3.org/2000/svg" fill="none" viewBox="0 0 16 16"><path fill="currentColor" d="M7.467 7.266 11.533 3.2a.586.586 0 0 1 .85-.001.585.585 0 0 1 0 .851L8.317 8.116zm1.416 1.417 3.5-3.5a.586.586 0 0 1 .85 0 .586.586 0 0 1 0 .85l-3.5 3.5zM3.35 12.267Q2 10.917 1.983 9.017q-.015-1.9 1.334-3.25L5.2 3.882l.883.9q.135.133.25.283.117.15.15.35l2.5-2.5a.586.586 0 0 1 .85 0 .586.586 0 0 1 0 .85L6.8 6.8l-.75.766.15.15q.65.65.642 1.55a2.15 2.15 0 0 1-.659 1.55l-.416.417-.85-.85.416-.417a.98.98 0 0 0 .292-.7.94.94 0 0 0-.276-.705l-.582-.578a.586.586 0 0 1 0-.85l.433-.417a.8.8 0 0 0 .233-.57.77.77 0 0 0-.233-.563L4.15 6.616a3.2 3.2 0 0 0-.975 2.409A3.37 3.37 0 0 0 4.2 11.433q1 1 2.387 1t2.38-1L12.68 7.72a.583.583 0 0 1 .853-.002.586.586 0 0 1 0 .85l-3.716 3.7q-1.342 1.35-3.23 1.35t-3.237-1.35M11.2 15.2V14a2.7 2.7 0 0 0 1.983-.817A2.7 2.7 0 0 0 14 11.2h1.2q0 1.66-1.17 2.83T11.2 15.2M.8 4.8q0-1.66 1.17-2.83T4.8.8V2a2.7 2.7 0 0 0-1.983.816A2.7 2.7 0 0 0 2 4.8z"/></svg>
