<svg xmlns="http://www.w3.org/2000/svg" height="24" viewBox="0 -960 960 960" width="24"><path d="M339.5-108.5q-65.5-28.5-114-77t-77-114Q120-365 120-440t28.5-140.5q28.5-65.5 77-114t114-77Q405-800 480-800h6l-62-62 56-58 160 160-160 160-56-58 62-62h-6q-117 0-198.5 81.5T200-440q0 117 81.5 198.5T480-160q117 0 198.5-81.5T760-440h80q0 75-28.5 140.5t-77 114q-48.5 48.5-114 77T480-80q-75 0-140.5-28.5ZM380-320v-60h120v-40H380v-140h180v60H440v40h80q17 0 28.5 11.5T560-420v60q0 17-11.5 28.5T520-320H380Z"/></svg>